<?xml version="1.0" encoding="UTF-8" standalone="no"?>
<!-- Created with Inkscape (http://www.inkscape.org/) -->
<svg
   xmlns:dc="http://purl.org/dc/elements/1.1/"
   xmlns:cc="http://web.resource.org/cc/"
   xmlns:rdf="http://www.w3.org/1999/02/22-rdf-syntax-ns#"
   xmlns:svg="http://www.w3.org/2000/svg"
   xmlns="http://www.w3.org/2000/svg"
   xmlns:xlink="http://www.w3.org/1999/xlink"
   version="1.0"
   width="251"
   height="304.20001"
   id="svg4166">
  <defs
     id="defs4168" />
  <metadata
     id="metadata1880"><rdf:RDF><cc:Work
           rdf:about=""><dc:title>Vallentuna kommunvapen</dc:title><dc:date>02-08-2007</dc:date><dc:creator><cc:Agent><dc:title>Lokal_Profil</dc:title></cc:Agent></dc:creator><cc:license
           rdf:resource="http://creativecommons.org/licenses/by-sa/2.5/" /><dc:rights><cc:Agent><dc:title>cc-by-sa-2.5</dc:title></cc:Agent></dc:rights><dc:format>image/svg+xml</dc:format><dc:type
           rdf:resource="http://purl.org/dc/dcmitype/StillImage" /></cc:Work><cc:License
           rdf:about="http://creativecommons.org/licenses/by-sa/2.5/"><cc:permits
           rdf:resource="http://web.resource.org/cc/Reproduction" /><cc:permits
           rdf:resource="http://web.resource.org/cc/Distribution" /><cc:requires
           rdf:resource="http://web.resource.org/cc/Notice" /><cc:requires
           rdf:resource="http://web.resource.org/cc/Attribution" /><cc:permits
           rdf:resource="http://web.resource.org/cc/DerivativeWorks" /><cc:requires
           rdf:resource="http://web.resource.org/cc/ShareAlike" /></cc:License></rdf:RDF>
  </metadata>
  <path
     d="M 249.55058,1.4395041 L 125.50008,1.4395041 L 1.4495291,1.4395041 L 1.4495291,174.9361 C 0.68228908,268.65698 81.738969,302.75585 125.50006,302.75585 C 168.49391,302.75585 250.31781,268.65698 249.55058,174.9361 L 249.55058,1.4395041 z "
     style="fill:#225500"
     id="Shield" />
  <rect
     width="248.11072"
     height="145"
     x="1.444"
     y="1.2000122"
     style="fill:#eeeeee"
     id="Division" />
  <g
     transform="matrix(0.885406,0,0,0.482949,-257.4357,10.43768)"
     style="fill:#d40000"
     id="Eagle">
    <path
       d="M 349.28703,204.70109 C 349.306,204.58485 349.46837,199.93789 349.46545,199.97805 C 349.46253,200.01822 343.42255,199.81823 342.3815,200.04073 C 340.60309,200.42082 339.58687,202.24364 339.8696,205.44514 C 340.03224,206.50681 340.14029,207.62306 341.0939,207.89375 C 342.05985,203.44788 343.23325,204.44096 344.25809,204.4566 C 345.4965,204.4755 349.26806,204.81733 349.28703,204.70109 z "
       id="path2345" />
    <path
       d="M 362.29461,185.39917 L 359.12034,188.57344 L 355.87392,186.40917 C 354.81192,185.38567 352.96169,185.14003 350.53536,185.68774 C 353.01795,180.87019 358.22317,181.12496 359.48105,182.87418 L 362.29461,185.39917 z "
       id="path2347" />
    <path
       d="M 361.4289,219.16192 C 364.05555,218.52474 362.40252,211.37363 358.90391,213.96766 C 355.4053,216.56168 351.56441,218.40107 355.72963,224.42834 C 355.94035,220.07435 358.80226,219.7991 361.4289,219.16192 z "
       id="path2349" />
    <path
       d="M 393.17166,203.07412 C 399.31392,199.54726 402.73245,200.30054 403.48806,205.23839 C 400.22373,203.66756 398.09942,204.63011 396.56237,206.89767"
       id="path2351" />
    <path
       d="M 409.90876,166.13708 L 402.98306,162.67424 L 377.87742,197.15842 C 376.16691,194.69093 374.87298,190.9737 373.40458,187.77987 L 361.36914,183.53584 C 359.53887,184.79495 357.7371,186.96461 356.17486,189.59582 C 357.26961,190.76792 358.62526,191.15731 359.98605,191.53129 C 361.81366,190.53704 363.64127,190.15551 365.46889,190.5213 C 367.70423,193.49063 368.40511,195.69273 369.65316,198.16841 C 366.26625,197.28324 362.08126,195.57379 356.59022,193.37199 C 353.56285,195.1567 350.28183,197.47086 346.49025,197.98187 C 346.82581,198.65116 347.03737,199.30495 347.15626,199.94716 C 347.55098,202.07936 346.92423,204.08387 346.42323,206.10411 C 347.28415,207.93029 348.60401,207.30023 349.48823,207.63148 C 354.69474,203.38094 355.00577,202.54143 357.7125,202.43721 C 363.15054,202.57838 364.96645,203.12201 368.21031,203.50697 C 365.22517,206.7261 361.76815,210.39433 357.67748,211.58695 C 357.09759,212.5319 357.15925,213.6907 357.38891,214.90551 C 360.86706,217.23 359.27445,218.55317 359.20486,220.37085 C 359.60293,220.90705 360.74645,220.94628 361.94628,220.94798 C 364.779,216.55591 366.39647,216.61975 368.49888,214.90551 C 369.9956,213.21642 370.44904,211.13603 371.96922,209.99478 C 377.13494,206.11671 381.72484,204.82901 385.87288,205.38268 C 390.86813,207.39588 393.7855,208.41898 397.35594,208.55696 C 397.47737,207.83791 398.17851,208.07424 397.8063,206.36792 C 396.36345,206.1443 394.92059,203.27667 393.47774,201.31793 C 390.00236,201.2915 386.26036,201.79828 384.08169,199.17841 L 409.90876,166.13708 z "
       id="path2353" />
    <path
       d="M 515.5841,204.70109 C 515.56513,204.58485 515.40276,199.93789 515.40569,199.97805 C 515.40861,200.01822 521.44859,199.81823 522.48964,200.04073 C 524.26804,200.42082 525.28427,202.24364 525.00154,205.44514 C 524.83889,206.50681 524.73084,207.62306 523.77723,207.89375 C 522.81129,203.44788 521.63789,204.44096 520.61304,204.4566 C 519.37463,204.4755 515.60307,204.81733 515.5841,204.70109 z "
       id="path2355" />
    <path
       d="M 502.57652,185.39917 L 505.7508,188.57344 L 508.99722,186.40917 C 510.05922,185.38567 511.90945,185.14003 514.33577,185.68774 C 511.85319,180.87019 506.64796,181.12496 505.39008,182.87418 L 502.57652,185.39917 z "
       id="path2357" />
    <path
       d="M 503.44223,219.16192 C 500.81559,218.52474 502.46862,211.37363 505.96723,213.96766 C 509.46583,216.56168 513.30672,218.40107 509.1415,224.42834 C 508.93078,220.07435 506.06888,219.7991 503.44223,219.16192 z "
       id="path2359" />
    <path
       d="M 471.69947,203.07412 C 465.55722,199.54726 462.13869,200.30054 461.38307,205.23839 C 464.6474,203.66756 466.77171,204.63011 468.30877,206.89767"
       id="path2361" />
    <path
       d="M 454.96238,166.13708 L 461.88807,162.67424 L 486.99371,197.15842 C 488.70423,194.69093 489.99815,190.9737 491.46656,187.77987 L 503.502,183.53584 C 505.33226,184.79495 507.13404,186.96461 508.69627,189.59582 C 507.60152,190.76792 506.24587,191.15731 504.88508,191.53129 C 503.05747,190.53704 501.22986,190.15551 499.40225,190.5213 C 497.1669,193.49063 496.46603,195.69273 495.21797,198.16841 C 498.60489,197.28324 502.78988,195.57379 508.28092,193.37199 C 511.30828,195.1567 514.58931,197.47086 518.38089,197.98187 C 518.04532,198.65116 517.83376,199.30495 517.71488,199.94716 C 517.32015,202.07936 517.9469,204.08387 518.4479,206.10411 C 517.58698,207.93029 516.26712,207.30023 515.3829,207.63148 C 510.1764,203.38094 509.86536,202.54143 507.15864,202.43721 C 501.72059,202.57838 499.90468,203.12201 496.66083,203.50697 C 499.64597,206.7261 503.10299,210.39433 507.19365,211.58695 C 507.77355,212.5319 507.71188,213.6907 507.48222,214.90551 C 504.00407,217.23 505.59669,218.55317 505.66628,220.37085 C 505.26821,220.90705 504.12468,220.94628 502.92486,220.94798 C 500.09213,216.55591 498.47466,216.61975 496.37225,214.90551 C 494.87553,213.21642 494.4221,211.13603 492.90191,209.99478 C 487.7362,206.11671 483.14629,204.82901 478.99826,205.38268 C 474.003,207.39588 471.08563,208.41898 467.5152,208.55696 C 467.39377,207.83791 466.69263,208.07424 467.06483,206.36792 C 468.50769,206.1443 469.95054,203.27667 471.39339,201.31793 C 474.86878,201.2915 478.61078,201.79828 480.78944,199.17841 L 454.96238,166.13708 z "
       id="path2363" />
    <path
       d="M 457.46303,71.375974 L 459.4015,70.049646 C 460.31973,70.508761 472.62557,69.399347 475.77653,68.111171 C 479.3144,66.66482 474.42836,55.311866 478.25227,52.711539 C 482.68523,49.697051 488.28406,53.152372 491.93165,52.141258 C 494.99381,51.292429 497.32441,44.687657 497.75056,41.575891 C 498.17841,38.451752 498.61265,33.417509 498.51062,33.162448 C 498.4086,32.907382 498.12831,31.980361 497.15079,31.688211 C 496.0511,31.359546 491.33957,29.935446 490.68094,29.253485 C 490.15408,28.707947 484.65122,24.36473 483.81026,21.429559 C 483.08997,18.915601 483.06257,17.149631 483.06257,15.31318 C 483.06257,13.476728 483.07133,10.678288 483.7855,8.4847485 C 484.49967,6.2912091 486.53142,4.3367289 489.2861,2.2962277 C 492.04078,0.25572459 496.3856,-0.1436242 496.3856,-0.1436242 L 519.70709,0.25209859 C 519.73075,0.2568015 535.18817,-0.039729752 546.89678,-4.9052954 C 539.01463,17.341562 521.00523,12.965588 518.16796,14.241916 C 542.83478,21.906691 554.32711,22.448576 556.73345,21.791771 C 556.69579,22.461996 553.72099,25.882298 550.31845,28.478087 C 547.56599,30.577937 543.75189,32.007271 541.93981,32.300357 C 538.13972,32.914987 533.95843,32.681759 529.44598,32.393073 C 526.92131,32.231556 518.93711,29.762494 519.59631,30.76998 C 520.11355,31.560502 523.66039,34.026858 528.00059,37.677005 C 531.81386,40.884005 536.2324,45.354418 540.59108,48.939045 C 548.38652,55.350105 556.47425,59.205151 556.01928,59.643084 C 553.44618,62.119771 546.28895,63.880477 540.34621,62.130083 C 537.79511,61.37867 536.20736,60.476789 533.41999,58.550421 C 531.26615,57.061889 528.26973,54.16378 526.49311,52.560451 C 523.12147,49.517674 519.95414,46.999924 517.96391,45.257547 C 517.97026,46.626311 519.02414,48.093813 520.31049,50.460825 C 536.43045,80.558232 554.79497,111.06374 554.79497,111.06374 C 539.35942,111.91478 530.6392,96.218755 523.21566,86.543466 C 513.76725,74.229129 515.9252,76.806284 513.8829,74.028625 C 511.84061,71.250967 514.37099,75.781695 518.67808,86.271638 C 523.89564,97.6546 523.76174,106.37573 525.63775,118.36116 C 527.08417,127.30571 529.23281,137.91157 529.2887,136.67204 C 529.49039,139.65807 536.89773,158.92791 543.06209,175.1355 C 535.77865,174.54844 530.55136,170.31753 526.63604,166.36135 C 523.72835,162.05444 521.31437,157.67657 519.49429,153.09808 C 516.17743,145.37421 513.77553,137.9798 511.35785,130.91701 C 506.2928,116.12044 502.75724,103.05986 499.19129,93.821495 L 499.30463,113.032 C 498.87486,117.62146 500.38367,138.63465 501.31856,145.06604 C 503.59173,160.70376 504.14067,169.98696 506.02697,178.50233 C 482.05524,174.77278 475.88658,126.88962 476.43969,107.18678 C 474.46721,121.92301 472.49472,136.23432 470.52223,148.81303 C 465.73154,146.13888 463.02552,143.38779 461.8501,137.99837 C 460.79584,123.09564 459.53753,110.28154 458.48328,97.69845 L 448.58684,78.517733 L 457.46303,71.375974 z "
       id="path2365" />
    <path
       d="M 407.53021,71.375974 L 405.59173,70.049646 C 404.67351,70.508761 392.19832,69.753695 389.2167,68.111171 C 386.00292,66.340749 391.2471,55.605197 388.03726,52.063392 C 384.44081,48.095008 375.08881,51.207925 373.06158,50.520887 C 370.05208,49.500958 367.66882,44.687657 367.24267,41.575891 C 366.81482,38.451752 366.38059,33.417509 366.48261,33.162448 C 366.58464,32.907382 366.86492,31.980361 367.84244,31.688211 C 368.94213,31.359546 373.65366,29.935446 374.31229,29.253485 C 374.83916,28.707947 380.34201,24.36473 381.18298,21.429559 C 381.90326,18.915601 381.93066,17.149631 381.93066,15.31318 C 381.93066,13.476728 381.92191,10.678288 381.20774,8.4847485 C 380.49356,6.2912091 378.46181,4.3367289 375.70713,2.2962277 C 372.95245,0.25572459 368.60763,-0.1436242 368.60763,-0.1436242 L 345.28615,0.25209859 C 345.26248,0.2568015 329.80507,-0.039729752 318.09646,-4.9052954 C 325.97861,17.341562 343.98801,12.965588 346.82528,14.241916 C 322.15846,21.906691 310.66613,22.448576 308.25979,21.791771 C 308.29744,22.461996 311.27224,25.882298 314.67478,28.478087 C 317.42725,30.577937 321.24134,32.007271 323.05343,32.300357 C 326.85352,32.914987 331.0348,32.681759 335.54725,32.393073 C 338.07192,32.231556 346.05612,29.762494 345.39692,30.76998 C 344.87968,31.560502 341.33284,34.026858 336.99264,37.677005 C 333.17937,40.884005 328.76083,45.354418 324.40215,48.939045 C 316.60672,55.350105 308.51898,59.205151 308.97396,59.643084 C 311.54705,62.119771 318.70429,63.880477 324.64702,62.130083 C 327.19812,61.37867 328.78587,60.476789 331.57324,58.550421 C 333.72708,57.061889 336.7235,54.16378 338.50012,52.560451 C 341.87177,49.517674 345.03909,46.999924 347.02932,45.257547 C 347.02298,46.626311 345.96909,48.093813 344.68275,50.460825 C 328.56278,80.558232 310.19826,111.06374 310.19826,111.06374 C 325.63382,111.91478 334.35403,96.218755 341.77758,86.543466 C 351.22598,74.229129 349.06803,76.806284 351.11033,74.028625 C 353.15262,71.250967 350.62224,75.781695 346.31515,86.271638 C 341.0976,97.6546 341.23149,106.37573 339.35548,118.36116 C 337.90907,127.30571 335.76043,137.91157 335.70454,136.67204 C 335.50285,139.65807 328.09551,158.92791 321.93115,175.1355 C 329.21458,174.54844 334.44188,170.31753 338.35719,166.36135 C 341.26489,162.05444 343.67887,157.67657 345.49895,153.09808 C 348.8158,145.37421 351.2177,137.9798 353.63538,130.91701 C 358.70043,116.12044 362.236,103.05986 365.80194,93.821495 L 365.68861,113.032 C 366.11837,117.62146 364.60957,138.63465 363.67467,145.06604 C 361.4015,160.70376 360.85256,169.98696 358.96626,178.50233 C 382.938,174.77278 389.10666,126.88962 388.55354,107.18678 C 390.52602,121.92301 392.49851,136.23432 394.471,148.81303 C 399.2617,146.13888 401.96772,143.38779 403.14313,137.99837 C 404.19739,123.09564 405.4557,110.28154 406.50996,97.69845 L 416.4064,78.517733 L 407.53021,71.375974 z "
       id="path2367" />
    <path
       d="M 433.7327,17.514905 C 435.65167,18.142897 436.62633,11.260052 431.59017,12.6177 C 417.10023,17.402335 407.58269,19.818793 406.28794,10.679223 C 405.59615,8.1801997 401.1136,6.7449327 402.30896,11.699475 C 408.84051,27.127011 420.39192,14.258003 433.7327,17.514905 z "
       id="path2371" />
    <path
       d="M 445.05748,6.7002446 L 437.20155,28.737666 C 425.02483,23.032267 417.51345,21.554824 414.04185,23.738436 C 416.20575,20.947421 418.99128,15.658514 434.03877,21.799961 C 431.75808,15.043475 414.49514,7.8473947 411.28717,15.270353 C 406.82877,4.759699 411.49452,-0.031342848 425.26461,0.8848136 L 445.05748,6.7002446 z "
       id="path2373" />
    <path
       d="M 412.6135,63.936327 C 399.5555,68.106399 409.88458,66.104886 409.18733,67.01309 C 401.03125,69.625188 406.30064,99.276635 412.07304,140.16573 C 410.96685,144.80279 409.86066,147.15727 408.75447,149.54427 C 406.86135,152.03388 403.07652,157.0062 397.50022,161.37567 L 399.6645,162.52995 L 396.63451,165.70423 C 401.528,169.02193 409.1471,167.16099 410.63018,176.95848 C 410.8804,168.93219 412.38598,173.56396 414.09303,175.37134 C 414.36825,163.75639 419.21997,159.57115 423.183,154.59426 C 423.49216,160.51199 426.45729,171.28748 417.70016,180.99847 C 410.85328,184.28064 403.84831,183.29444 397.35594,196.14842 C 401.82987,194.99445 401.21772,192.41636 414.3816,193.69557 L 422.75015,188.78987 C 421.02328,194.88069 424.74829,200.33682 402.83878,210.43266 C 387.34859,213.97329 376.48903,220.60101 371.38459,231.06547 C 379.84308,226.86283 388.78598,224.17797 400.24164,221.97549 C 412.35065,215.25733 415.03333,210.99021 421.16301,204.80554 C 419.42131,209.49822 418.4726,213.55652 414.95874,219.66692 C 407.58771,227.03818 397.43632,230.73538 400.24164,251.55396 C 409.52421,236.66749 416.44758,238.81996 426.35728,203.65125 C 428.08992,211.34344 429.92703,218.77443 428.66585,233.95117 C 426.40569,241.18454 426.69327,247.39881 419.14301,256.74824 L 426.06871,255.01682 L 432.49661,274.40876 L 438.9245,255.01682 L 445.8502,256.74824 C 438.29994,247.39881 438.58753,241.18454 436.32737,233.95117 C 435.06618,218.77443 436.90329,211.34344 438.63593,203.65125 C 448.54564,238.81996 455.469,236.66749 464.75157,251.55396 C 467.55689,230.73538 457.4055,227.03818 450.03447,219.66692 C 446.52061,213.55652 445.5719,209.49822 443.8302,204.80554 C 449.95988,210.99021 452.64255,215.25733 464.75157,221.97549 C 476.20723,224.17797 485.15014,226.86283 493.60862,231.06547 C 488.50418,220.60101 477.64462,213.97329 462.15443,210.43266 C 440.24493,200.33682 443.96992,194.88069 442.24306,188.78987 L 450.61161,193.69557 C 463.77549,192.41636 463.16334,194.99445 467.63727,196.14842 C 461.1449,183.29444 454.13993,184.28064 447.29305,180.99847 C 438.53592,171.28748 441.50105,160.51199 441.81021,154.59426 C 445.77324,159.57115 450.62496,163.75639 450.90018,175.37134 C 452.60723,173.56396 454.11282,168.93219 454.36303,176.95848 C 455.84611,167.16099 463.46521,169.02193 468.3587,165.70423 L 465.32871,162.52995 L 467.49299,161.37567 C 461.91669,157.0062 458.13187,152.03388 456.23874,149.54427 C 455.13255,147.15727 454.02636,144.80279 452.92017,140.16573 C 458.69257,99.276635 463.96196,69.625188 455.80588,67.01309 C 454.01969,66.057165 457.57743,67.680436 453.33902,65.73052 C 462.74086,67.615617 458.50513,66.6914 455.56607,64.446454 C 446.85208,55.881145 453.8417,60.649146 456.3225,60.972474 C 450.04231,50.023777 453.26698,43.875445 454.54582,39.654355 L 456.48429,44.959658 L 458.78861,34.732392 L 463.11592,38.6341 C 462.24216,34.09659 461.46448,29.394354 459.28636,27.092887 C 462.91923,27.917924 465.49797,27.866495 465.94322,27.648869 C 466.88877,27.186717 462.11843,25.178682 461.93901,21.889609 C 465.03748,22.239425 466.52743,21.72475 468.88798,19.100259 C 469.60897,18.29865 465.52085,19.958321 465.69644,19.435877 C 456.68169,11.05133 464.99952,15.05914 465.33784,13.391641 C 452.56256,6.4070544 462.45945,8.6829327 461.82673,6.6579845 C 452.33229,2.4602615 455.87917,4.6785017 459.75634,-0.65794077 C 457.58102,-0.038350163 454.47814,0.82835067 450.46481,0.17063875 C 450.4951,-0.63432904 443.32278,-2.5900409 432.12841,-2.8147084 C 428.21804,-2.8931893 425.62602,-2.589055 425.36663,1.292915 C 439.73623,18.16091 439.61608,24.770686 432.30434,26.289063 C 434.03858,29.75115 435.26495,31.773061 434.74287,32.858038 C 433.86408,34.68435 429.16204,36.274973 418.90705,42.073072 C 423.73507,43.749735 434.24958,38.33608 418.95143,48.368749 C 408.95203,53.095805 416.74394,51.228944 420.06133,51.081167 C 417.60713,54.725734 414.8142,58.339514 410.26692,61.793803 L 412.6135,63.936327 z "
       id="path2375" />
    <path
       d="M 437.50331,5.7279146 C 441.45007,4.4642071 443.46114,6.5753389 442.15652,10.345045 C 437.96864,11.995604 436.22472,9.6560216 437.50331,5.7279146 z "
       style="fill:#eeeeee"
       id="path2377" />
  </g>
  <path
     d="M 50.5,245.3908 L 40.179862,225.73805 L 18,226.62691 L 29.859731,207.86301 L 18,189.09915 L 40.179862,189.98802 L 50.5,170.33526 L 60.820138,189.98802 L 83,189.09915 L 71.140269,207.86301 L 83,226.62691 L 60.820138,225.73805 L 50.5,245.3908 z "
     style="fill:#ffcd50"
     id="6-pt-star-dull" />
  <use
     transform="translate(149.5,0)"
     id="Star2"
     x="0"
     y="0"
     width="251"
     height="304.20001"
     xlink:href="#6-pt-star-dull" />
  <g
     transform="matrix(0.635328,0.565098,-0.533102,0.673459,133.6466,106.2374)"
     style="fill:#ffcd50;stroke:#225500;stroke-width:1.66400003"
     id="Bila">
    <rect
       width="145.50311"
       height="13.140236"
       x="-212.30792"
       y="8.8134642"
       transform="matrix(-0.637028,-0.770841,0.76756,-0.640978,0,0)"
       id="rect34" />
    <path
       d="M 59.801325,128.09692 C 59.801325,128.09692 38.03106,124.46973 22.06573,103.42537 C 6.0996138,82.380231 3.1975398,61.81851 3.1975398,61.81851 C 3.1975398,61.81851 15.292392,71.736414 28.596573,71.736414 C 41.900754,71.736414 51.335242,63.269547 51.335242,63.269547 L 56.414265,46.094886 L 74.799036,42.950318 L 90.038462,60.609181 L 83.991028,77.78384 L 65.364549,80.6867 C 65.364549,80.6867 53.269697,93.749174 53.269697,109.47123 C 53.269697,125.19485 59.801325,128.09692 59.801325,128.09692 z "
       id="path42" />
  </g>
  <path
     d="M 249.55062,1.4395041 L 125.50012,1.4395041 L 1.449569,1.4395041 L 1.449569,174.9361 C 0.68232904,268.65698 81.739009,302.75585 125.5001,302.75585 C 168.49395,302.75585 250.31785,268.65698 249.55062,174.9361 L 249.55062,1.4395041 z "
     style="fill:none;fill-opacity:0;stroke:#000000;stroke-width:1.88832211;stroke-linejoin:bevel"
     id="Frame" />
</svg>
