<?xml version="1.0" encoding="UTF-8" standalone="no"?>
<!-- Created with Inkscape (http://www.inkscape.org/) -->

<svg
   xmlns:dc="http://purl.org/dc/elements/1.1/"
   xmlns:cc="http://creativecommons.org/ns#"
   xmlns:rdf="http://www.w3.org/1999/02/22-rdf-syntax-ns#"
   xmlns:svg="http://www.w3.org/2000/svg"
   xmlns="http://www.w3.org/2000/svg"
   version="1.0"
   width="251"
   height="304.20001"
   id="svg4166">
  <defs
     id="defs4168" />
  <metadata
     id="metadata1880"><rdf:RDF><cc:Work
         rdf:about=""><dc:title>Järfalla kommunvapen</dc:title><dc:date>2007-10-21</dc:date><dc:creator><cc:Agent><dc:title>Lokal_Profil</dc:title></cc:Agent></dc:creator><cc:license
         rdf:resource="http://creativecommons.org/licenses/by-sa/2.5/" /><dc:rights><cc:Agent><dc:title>cc-by-sa-2.5</dc:title></cc:Agent></dc:rights><dc:format>image/svg+xml</dc:format><dc:type
         rdf:resource="http://purl.org/dc/dcmitype/StillImage" /></cc:Work><cc:License
         rdf:about="http://creativecommons.org/licenses/by-sa/2.5/"><cc:permits
         rdf:resource="http://web.resource.org/cc/Reproduction" /><cc:permits
         rdf:resource="http://web.resource.org/cc/Distribution" /><cc:requires
         rdf:resource="http://web.resource.org/cc/Notice" /><cc:requires
         rdf:resource="http://web.resource.org/cc/Attribution" /><cc:permits
         rdf:resource="http://web.resource.org/cc/DerivativeWorks" /><cc:requires
         rdf:resource="http://web.resource.org/cc/ShareAlike" /></cc:License></rdf:RDF>
  </metadata>
  <path
     d="m 249.55058,1.4395041 -248.1010509,0 0,173.4965959 C 0.68228908,268.65698 81.738969,302.75585 125.50006,302.75585 c 42.99385,0 124.81775,-34.09887 124.05052,-127.81975 l 0,-173.4965959 z"
     id="Shield"
     style="fill:#225500;fill-opacity:1;stroke:none" />
  <path
     d="m 207.20839,13.247309 c 0,0 2.9456,4.363676 6.94875,7.27174 4.00318,2.90807 9.06391,4.360526 9.06391,4.360526 0,0 -9.4657,5.377079 -17.12136,15.914416 12.76118,8.842628 21.20207,9.845379 21.20207,9.845379 0,0 -4.29801,2.854303 -7.14042,6.76617 -2.8424,3.911853 -4.22917,8.88127 -4.22917,8.88127 0,0 -5.54291,-9.586177 -15.91531,-17.121989 l -8.98796,12.372357 c 23.073,16.763517 32.12216,17.771715 32.12216,17.771715 0,0 -4.29824,2.855484 -7.1409,6.768508 -2.84263,3.913036 -4.22966,8.883651 -4.22966,8.883651 0,0 -3.05791,-7.780564 -26.83196,-25.053414 L 60.927647,240.60465 52.192524,234.25933 176.213,63.55983 C 151.12742,45.334074 144.09203,45.783557 144.09203,45.783557 c 0,0 4.29783,-2.854419 7.14005,-6.766401 2.84222,-3.911981 4.22882,-8.88152 4.22882,-8.88152 0,0 2.27707,7.207774 26.83174,25.047785 l 8.99499,-12.358558 c -12.82141,-8.887493 -21.20741,-9.846846 -21.20741,-9.846846 0,0 4.2985,-2.854292 7.14139,-6.766148 2.84291,-3.911855 4.2302,-8.881264 4.2302,-8.881264 0,0 5.57264,9.605062 15.91405,17.117876 8.8386,-12.754837 9.84253,-21.201172 9.84253,-21.201172 z"
     id="Patriark-kors"
     style="fill:#ffcd50;fill-opacity:1;fill-rule:evenodd;stroke:none" />
  <g
     transform="translate(6.6180591e-5,-3.1779297e-4)"
     id="ram"
     style="fill:#eeeeee;fill-rule:evenodd;stroke:#225500;stroke-width:4">
    <path
       d="m 137.72947,87.048742 c -0.17812,-0.65638 -0.33283,-1.324 -0.47691,-1.9956 -10.202,-11.792 -25.546,-18.806 -42.83,-23.43 -11.475247,-3.074783 -18.739386,0.09279 -24.021575,7.190322 -3.515036,2.754275 -5.945969,8.44975 -6.715468,13.304726 -1.838324,1.420613 -3.102639,4.552318 -1.811958,9.43329 -2.559229,0.936712 -5.257969,2.646247 -3.602459,8.032092"
       id="path3504"
       style="fill:none" />
    <path
       d="m 155.91531,123.19197 c -3.1007,0 -5.7956,1.7453 -7.1525,4.3082 -1.3568,-2.5628 -4.0485,-4.3082 -7.149,-4.3082 -2.5844,0 -4.8885,1.212 -6.3685,3.0999 -0.9316,-3.4371 -4.0721,-5.9648 -7.8033,-5.9648 m -37.051301,74.53626 c -1.2911,2.751 -4.0835,4.6581 -7.3223,4.6581 -4.0557,0 -7.4161,-2.9893 -7.9978,-6.8837"
       id="use3591"
       style="fill:none" />
    <g
       transform="translate(8.1517087,-0.72467)"
       id="ram-hoofs"
       style="fill:#ffcd50;stroke:none">
      <path
         d="m 40.96801,254.21731 -9.460334,-15.03209 c 3.685184,-2.65967 6.772568,-6.2741 9.452734,-9.94102 l 2.954786,2.15485 -2.063172,15.97557 -4.688411,-3.70761 4.288093,6.80664 -0.483462,3.74314 z"
         id="path28" />
      <path
         d="m 59.126,265.44 3.5633,0 6.0215,-5.3926 -2.9531,5.3926 17.178,0 1.5893,-3.18 c -4.3243,-2.2105 -8.6803,-4.8824 -12.013,-8.421 z"
         id="path20" />
      <path
         d="m 187.02,265.65 -15.74,0 2.9533,-5.3928 -6.0215,5.3928 -3.5633,0 12.537,-11.123 c 3.3577,3.3401 7.4271,5.9134 11.7,7.944 z"
         id="path12" />
      <path
         d="m 152.66,265.46 -15.739,0 2.9531,-5.3928 -6.0215,5.3928 -3.5633,0 12.809,-11.5 c 3.2701,3.4295 7.4989,6.0422 11.714,8.2092 z"
         id="path16" />
    </g>
    <g
       id="ram-body"
       style="stroke:none">
      <path
         d="m 80.65006,94.996182 c 4.8006,0 8.7789,-3.4668 9.4829,-7.9895 0.41986,-2.7009 0.12783,-5.6131 -1.2745,-7.9725 -2.3832,-4.0151 -9.1019,-6.2101 -13.376,-7.0769 -4.4821,-0.90934 -10.552,-1.0635 -12.873,-0.85674 -2.758,0.23246 -4.3527,0.398 -4.6471,1.2631 -0.36668,1.2735 3.0748,6.4079 4.0802,7.824 2.4325,3.4279 5.3543,5.908 9.12125,6.78772 0.69045,4.53822 4.67475,8.02082 9.48625,8.02082 z"
         id="path3528" />
      <path
         d="m 51.271753,215.22837 c -0.589057,1.58237 -1.124259,3.19834 -1.612065,4.84879 -0.185812,0.62979 0.01829,1.28054 0.416339,1.97443 0.805018,1.40307 -0.416017,2.091 -2.24165,1.15584 -1.977806,-1.01363 -2.707352,2.12812 -0.3135,3.2265 -0.169162,3.06693 -7.154375,9.23282 -8.826703,10.06402 -1.263393,-0.90076 -2.238101,-3.14451 -2.452566,-4.67102 -0.543813,-3.88088 -3.410319,-5.10474 -3.259969,-8.20986 0.17474,-3.60007 2.701368,-6.90164 5.591439,-9.87276 0.804729,-0.82701 1.571271,-1.66866 2.300543,-2.52817 l 7.781747,-12.39145 c 2.117626,-4.12511 3.750388,-11.78966 5.179694,-13.58825 1.892852,1.29421 4.269183,1.46036 5.518177,1.14282 -0.514318,3.85045 0.661179,7.10712 3.974673,8.85747 -1.417495,2.71052 -1.552529,1.47235 -2.421029,3.04987 -0.540356,0.64676 -1.065339,1.30767 -1.57172,1.97796 z"
         id="path26" />
      <path
         d="m 199.5834,202.39533 c 4.818,-1.0372 8.4324,-5.323 8.4324,-10.451 0,-0.56955 -0.0454,-1.1304 -0.1315,-1.6758 0.9192,-0.23788 1.7893,-0.5943 2.5952,-1.0526 1.7647,4.0578 4.3713,7.552 8.3585,10.126 l -0.15568,7.8613 c -3.7886,4.9408 -5.908,12.968 -8.1846,21.377 -1.4151,5.2244 -2.9226,10.654 -3.6571,15.712 -0.5477,3.7679 -1.1408,7.4617 -1.8624,11.218 -0.31794,2.4412 -3.2196,2.4669 -3.7366,0.15684 -0.5005,-2.2339 -3.5194,-0.69834 -2.5518,1.404 0.69235,1.5048 0.68481,2.8851 -0.17715,3.5484 -4.5742,-2.0923 -8.9866,-4.818 -12.484,-8.4566 0.68036,-3.6416 5.4589,-5.2737 7.6776,-7.8135 1.7286,-1.2664 3.4494,-6.5576 5.98417,-15.25482 2.53477,-8.69722 4.06907,-14.61622 -0.10704,-26.69922 z"
         id="path14" />
      <path
         d="m 177.46751,205.54933 c 1.8349,1.4818 4.1696,2.3689 6.7112,2.3689 4.1789,0 7.7965,-2.4018 9.5546,-5.8981 0.85344,0.30421 1.7576,0.50495 2.6955,0.58328 l 0.20713,3.781 c -4.385,6.8436 -9.0909,15.403 -13.982,23.613 -3.3474,5.6175 -7.1504,10.722 -9.6194,15.64 -1.6315,3.2504 -0.65618,6.5588 -1.9763,9.5372 -0.8931,2.3287 -3.1877,2.787 -3.4339,0.43301 -0.23845,-2.2766 -3.4148,-1.1008 -2.6973,1.0992 0.23807,0.73006 0.63434,3.1312 -0.34482,3.7228 -4.4738,-2.2378 -9.0853,-4.9691 -12.484,-8.6824 -1.0093,-3.6024 7.2221,-7.1755 8.9965,-8.7851 1.8634,-1.0579 5.5156,-5.5982 8.64529,-12.0642 3.1297,-6.46599 6.5894,-15.38259 7.7275,-25.34859 z"
         id="path18" />
      <path
         d="m 94.297309,216.43213 c 0.30421,1.3969 0.61403,2.8234 0.26746,4.2804 -1.1956,5.0298 -2.8874,9.9258 -3.9628,14.981 -1.2894,6.0598 -3.6714,9.0004 -6.738,11.102 -1.705,1.1687 -2.5963,2.6489 -2.634,4.5045 3.2771,3.7656 7.8079,6.5439 12.26,8.813 0.60803,-1.1704 0.52313,-2.7212 0.05492,-4.6736 -0.62718,-2.6158 2.1122,-4.2661 3.2602,-1.9728 0.92752,1.8533 3.477601,1.8144 3.243601,-2.3907 0.26708,-16.23 3.3873,-30.676 9.3634,-43.339 l 3.9197,-9.7333 c -0.47865,0.0652 -0.96445,0.10075 -1.4605,0.10075 -1.8392,0 -3.5693,-0.46704 -5.0807,-1.2855 -1.8738,3.0908 -5.2712,5.1592 -9.148501,5.1592 -0.66121,0 -1.3079,-0.0615 -1.9357,-0.17599 0.10405,2.9259 -0.06904,5.8368 -0.77639,8.18782 -0.70735,2.35102 -1.07344,4.41902 -0.63269,6.44222 z"
         id="path22" />
      <path
         d="m 47.015149,119.42007 c 0,3.0317 1.6715,5.6723 4.1406,7.0566 -3.0814,1.1414 -5.2797,4.1089 -5.2797,7.5861 0,2.8545 1.4823,5.3631 3.7174,6.8021 -3.285,1.0279 -5.6713,4.0967 -5.6713,7.7197 0,3.5814 2.3315,6.6179 5.5583,7.6804 -2.4576,1.388 -4.1187,4.0249 -4.1187,7.0471 0,4.3512 3.4399,7.89959 7.7472,8.0779 -1.23768,1.4203 -1.9894,3.2794 -1.9894,5.311 0,4.4645 3.6215,8.086 8.086,8.086 0.8118,0 1.59526,-0.12164 2.3348,-0.34424 -0.2899,0.8331 -0.44674,1.72833 -0.44674,2.6603 0,4.4647 3.6215,8.086 8.086,8.086 2.3227,0 4.4158,-0.9819 5.891,-2.5513 0.5817,3.8944 3.9421,6.8837 7.9978,6.8837 3.2388,0 6.0312,-1.9071 7.3223,-4.6581 1.3207,2.6698 4.0742,4.509 7.2538,4.509 4.034201,0 7.378751,-2.9576 7.986201,-6.8218 1.4836,1.7991 3.73,2.9483 6.243,2.9483 3.667,0 6.76382,-2.4451 7.7538,-5.7918 1.4178,2.3385 3.9882,3.9042 6.9218,3.9042 3.1444,0 5.869,-1.7982 7.2061,-4.4202 1.1534,3.0591 4.1082,5.2365 7.5696,5.2365 2.6905,0 5.0735,-1.3168 6.5433,-3.3397 0.7811,3.6489 4.0255,6.3872 7.9067,6.3872 2.4347,0 4.616,-1.0784 6.0989,-2.7816 0.4961,3.9898 3.9016,7.0806 8.0251,7.0806 2.5677,0 4.8554,-1.1994 6.3368,-3.0666 0.6971,3.7562 3.9924,6.603 7.95,6.603 4.1329,0 7.54106,-3.1043 8.0257,-7.1068 1.394,1.14196 3.1778,1.8287 5.1201,1.8287 4.4647,0 8.0862,-3.6213 8.0862,-8.086 0,-1.4462 -0.38276,-2.8052 -1.046,-3.98138 4.71619,0.48222 8.92269,-3.25878 8.92269,-8.04418 0,-2.7941 -1.4193,-5.2566 -3.5755,-6.7094 3.269,-1.0371 5.64,-4.0984 5.64,-7.7098 0,-4.0255 -2.946,-7.36411 -6.7978,-7.982 1.638,-1.4795 2.6692,-3.6213 2.6692,-6.0022 0,-4.4647 -3.6213,-8.086 -8.086,-8.086 l 0,-2.604 c 5.9025,0 10.69,4.7874 10.69,10.69 0,1.7175 -0.4079,3.3418 -1.1283,4.7803 3.1449,1.861 5.2568,5.2856 5.2568,9.2038 0,3.3598 -1.5537,6.3592 -3.9789,8.3194 1.20541,1.7306 1.9142,3.8315 1.9142,6.0998 0,2.2389 -0.6902,4.3161 -1.8676,6.0331 0.26089,0.026 0.52565,0.0395 0.79272,0.0395 4.4645,0 8.086,-3.6215 8.086,-8.086 0,-1.7115 -0.53392,-3.3002 -1.4419,-4.6072 3.9684,-0.5152 7.0374,-3.9082 7.0374,-8.017 0,-3.4481 -2.1622,-6.3948 -5.2031,-7.5569 1.8152,-1.483 2.9761,-3.7372 2.9761,-6.2633 0,-4.4645 -3.6213,-8.086 -8.086,-8.086 -0.10733,0 -0.21583,0.002 -0.32219,0.006 0.5531,-1.0943 0.86718,-2.3299 0.86718,-3.6401 0,-4.4645 -3.6215,-8.086 -8.086,-8.086 -1.5108,0 -2.9256,0.41346 -4.1357,1.1354 l 0.001,-0.0818 c 0,-4.4645 -3.6215,-8.086 -8.086,-8.086 -2.6155,0 -4.9426,1.2418 -6.4205,3.1688 -1.113,-3.1363 -4.1044,-5.3824 -7.6213,-5.3824 -3.1268,0 -5.8415,1.7751 -7.1869,4.373 -1.3677,-2.5267 -4.0408,-4.2425 -7.1146,-4.2425 -3.1894,0 -5.9501,1.8469 -7.2658,4.5302 -1.4205,-2.3265 -3.981,-3.8795 -6.9057,-3.8795 -3.1007,0 -5.7956,1.7453 -7.1525,4.3082 -1.3568,-2.5628 -4.0485,-4.3082 -7.149,-4.3082 -2.5844,0 -4.8885,1.212 -6.3685,3.0999 -0.9316,-3.4371 -4.0721,-5.9648 -7.8033,-5.9648 -1.2691,0 -2.4708,0.29163 -3.5397,0.81244 0.035,-0.30594 0.0547,-0.61576 0.0547,-0.93099 -1.27302,-5.44225 -4.48071,-7.97789 -8.79034,-8.0558 1.19181,-2.17786 1.17648,-3.93643 1.62285,-6.2404 1.0153,-4.5546 6.8115,-4.1829 10.398,-3.8928 3.5764,0.76372 6.8788,0.89735 8.513,-2.830898 -5.9447,0.0174 -9.719,-4.7579 -14.68,-3.9394 -1.1244,0.18527 -1.7877,-2.833 -0.20828,-3.0053 5.0511,-0.55137 10.902,5.0381 15.52,4.9362 1.8995,-0.92597 4.022,-1.1464 3.1916,-5.6307 -0.36455,-0.63162 -0.6792,-1.2861 -0.95169,-1.9587 -1.9742,0.32935 -4.0632,0.50921 -6.3532,-0.98128 -1.5694,-1.0174 -1.0722,-3.0618 0.40632,-2.6304 1.4949,0.43262 3.537,1.1929 5.1042,1.0697 -0.17812,-0.65638 -0.33283,-1.324 -0.47691,-1.9956 -10.202,-11.792 -25.546,-18.806 -42.83,-23.43 -11.475247,-3.074783 -18.739386,0.09279 -24.021575,7.190322 -3.515036,2.754275 -5.945969,8.44975 -6.715468,13.304726 -1.838324,1.420613 -3.102639,4.552318 -1.811958,9.43329 -2.559229,0.936712 -5.257969,2.646247 -3.602459,8.03209 -6.177013,2.70183 -6.282432,7.22881 -5.49894,12.108 -3.382665,1.38196 -5.703533,4.60313 -5.757011,7.7285 z"
         id="path3061" />
    </g>
    <path
       d="m 57.34146,74.497382 c -1.8326,-3.6992 1.603,-4.0754 6.1542,-4.3982 4.7442,-0.33612 10.171289,-0.577212 14.871,0.97084 2.05252,0.676086 2.806697,1.189936 3.83147,1.919809 1.822298,1.297894 3.8023,3.1883 5.7496,2.735 -0.05879,0.59817 -1.8295,1.8167 -3.3896,1.2849 -1.3688,-0.48174 -3.5376,-2.2745 -4.9464,-2.9701 -3.496,-1.7148 -12.917,-2.0382 -15.884,-1.7986 -2.6166,0.19958 -4.129,0.34153 -4.408,1.0844 -0.34811,1.0942 2.9164,5.5034 3.8702,6.7193 2.882,3.6756 6.4853,6.0867 11.474,6.13 3.2086,0.02804 4.9635,-1.0389 7.0775,-3.2848 -0.15742,1.0838 -0.25663,1.9088 -0.38776,2.0436 -2.2629,2.0707 -4.4573,2.7768 -6.6771,3.1281 -8.7756,1.3897 -14.057,-6.9485 -17.335,-13.564 z m 8.414,1.4901 c 0,0 5.7546,0.80201 9.1709,1.5388 1.523,0.34482 7.2627,1.7071 4.047,4.4958 0,0 1.5541,-0.33728 2.4159,-1.1169 1.2039,-1.0913 0.50708,-3.0864 -0.86994,-3.71385 -4.59436,-2.08435 -9.90476,-1.66215 -14.76386,-1.20385 z"
       id="path3530"
       style="fill:#225500;stroke:none" />
    <path
       d="m 105.99146,68.906882 c 2.4616,0.2166 4.90902,1.88395 5.5625,4.34375 l 4,2.59375 -0.25,0.75 -5,-1.625 c -0.65176,1.719478 -2.88492,2.551553 -5.0625,1.84375 -2.17931,-0.70813 -3.48783,-2.693167 -3,-4.46875 l -2.21875,-0.71875 c 0.7751,-1.581 3.49915,-2.93593 5.96875,-2.71875 z m 2.40625,1.9375 c -0.6931,-0.07794 -1.37001,0.34266 -1.59375,1.03125 -0.25604,0.7876 0.18052,1.6189 0.96875,1.875 0.78696,0.25562 1.65085,-0.18115 1.90625,-0.96875 0.25625,-0.78696 -0.18158,-1.619 -0.96875,-1.875 -0.0984,-0.03195 -0.21349,-0.05137 -0.3125,-0.0625 z"
       id="path3532"
       style="fill:#225500;stroke:none" />
  </g>
  <path
     d="m 249.55062,1.4395041 -248.101051,0 0,173.4965959 c -0.76723996,93.72088 80.28944,127.81975 124.050531,127.81975 42.99385,0 124.81775,-34.09887 124.05052,-127.81975 l 0,-173.4965959 z"
     id="Frame"
     style="fill:none;stroke:#000000;stroke-width:1.88832211;stroke-linejoin:bevel" />
</svg>
