<?xml version="1.0" encoding="UTF-8" standalone="no"?>
<!-- Created with Inkscape (http://www.inkscape.org/) -->

<svg
   xmlns:dc="http://purl.org/dc/elements/1.1/"
   xmlns:cc="http://web.resource.org/cc/"
   xmlns:rdf="http://www.w3.org/1999/02/22-rdf-syntax-ns#"
   xmlns:svg="http://www.w3.org/2000/svg"
   xmlns="http://www.w3.org/2000/svg"
   version="1.0"
   width="251"
   height="304.20001"
   id="svg4166">
<metadata
   id="metadata1880"><rdf:RDF><cc:Work
         rdf:about=""><dc:title>Ekero kommunvapen</dc:title><dc:date>11-06-2007</dc:date><dc:creator><cc:Agent><dc:title>Lokal_Profil</dc:title></cc:Agent></dc:creator><cc:license
         rdf:resource="http://creativecommons.org/licenses/by-sa/2.5/" /><dc:rights><cc:Agent><dc:title>cc-by-sa-2.5</dc:title></cc:Agent></dc:rights><dc:format>image/svg+xml</dc:format><dc:type
         rdf:resource="http://purl.org/dc/dcmitype/StillImage" /></cc:Work><cc:License
         rdf:about="http://creativecommons.org/licenses/by-sa/2.5/"><cc:permits
         rdf:resource="http://web.resource.org/cc/Reproduction" /><cc:permits
         rdf:resource="http://web.resource.org/cc/Distribution" /><cc:requires
         rdf:resource="http://web.resource.org/cc/Notice" /><cc:requires
         rdf:resource="http://web.resource.org/cc/Attribution" /><cc:permits
         rdf:resource="http://web.resource.org/cc/DerivativeWorks" /><cc:requires
         rdf:resource="http://web.resource.org/cc/ShareAlike" /></cc:License></rdf:RDF>
</metadata>
  <path
     d="m 249.55088,1.438903 -124.05061,0 -124.0506612,0 0,173.496747 C 0.68236807,268.65662 81.73912,302.75552 125.50025,302.75552 c 42.99389,0 124.81786,-34.0989 124.05063,-127.81987 l 0,-173.496747 z"
     id="Shield"
     style="fill:#eeeeee" />
  <path
     d="m 217.90318,236.32425 3.93283,5.37197 L 225.5,238.84919 106.05883,88.74938 210.04865,225.90874 C 153.20699,203.50884 97.681227,206.66535 50.533287,197.40648 152.09766,216.07677 206.57474,223.582 217.90318,236.32425 z"
     id="kvist"
     style="fill:#225500" />
  <path
     d="m 190.30325,202.1834 c -9.40251,-5.57322 -26.1098,-11.20075 -36.60553,-18.63976 -15.73174,-11.15015 -1.87688,-10.8908 -2.268,-15.34901 -1.04166,-11.87334 -44.57226,-11.55173 -64.807103,-22.83933 -31.71751,-17.69294 -6.2537,-22.29712 -2.89946,-23.05276 16.439123,-3.70337 10.62506,-11.48801 -1.88295,-12.73241 -15.96999,-1.58883 -30.88928,-4.45228 -40.03956,-9.41018 -14.92438,-8.08653 -12.58733,-27.442307 6.60513,-22.794483 6.86691,1.662969 32.48154,3.123444 -6.38128,-15.688091 -14.35953,-6.950739 -21.32519,-22.4573 -12.84522,-36.648702 1.37595,-2.302682 6.71695,-11.356657 8.62142,-9.086996 L 197.80932,206.63253 190.30325,202.1834 z"
     id="green-halv"
     style="fill:#225500" />
  <path
     d="M 194.73137,198.46778 C 190.87554,188.24033 188.2347,170.80965 182.73126,159.1816 174.4823,141.75266 172.33183,155.44206 168.00928,154.28273 156.4972,151.19511 164.37293,108.38169 156.77057,86.49419 144.8541,52.186194 135.89813,76.463636 134.57151,79.635714 128.06978,95.182 121.413,88.10447 122.3595,75.570402 123.56797,59.567128 123.33874,44.377269 120.04508,34.505079 114.673,18.403222 95.205457,17.343666 96.449927,37.051637 c 0.44529,7.05135 -2.56437,32.530456 -14.34165,-9.008542 -4.35163,-15.348367 -18.41304,-24.900883 -33.86138,-19.014056 -2.50663,0.955192 -12.3505,4.64284 -10.44604,6.912501 l 160.008633,190.69085 -3.07812,-8.16461 z"
     id="svart-halva"
     style="fill:#000000" />
  <path
     d="m 142.13157,216.5342 -7.85454,-10.4155 C 81.255657,180.5132 79.196347,200.66117 32.048407,191.4023 133.61278,210.0726 130.80312,203.79196 142.13157,216.5342 z"
     id="use5194"
     style="fill:none;stroke:#ffcd50;stroke-width:1.76437962;stroke-linecap:square" />
  <g
     transform="matrix(-0.568087,0.152218,0.152218,0.568087,254.5918,-174.771)"
     id="Ollon">
    <rect
       width="182.5399"
       height="103.66347"
       rx="53.290665"
       ry="46.09137"
       x="-213.48553"
       y="634.31311"
       transform="matrix(-0.890306,0.455363,0.470115,0.882605,0,0)"
       id="rect9321"
       style="fill:#ffcd50" />
    <path
       d="m 372.31838,511.49319 a 59.683756,63.196282 60.353012 0 0 57.60685,104.53184 L 401.9805,563.28422 z"
       id="path9327"
       style="fill:#225500" />
  </g>
  <path
     d="m 249.55092,1.438903 -124.05061,0 -124.0506613,0 0,173.496747 C 0.68240803,268.65662 81.73916,302.75552 125.50029,302.75552 c 42.99389,0 124.81786,-34.0989 124.05063,-127.81987 l 0,-173.496747 z"
     id="Frame"
     style="fill:none;stroke:#000000;stroke-width:1.88832378;stroke-linecap:round;stroke-linejoin:bevel" />
</svg>
