<?xml version="1.0" encoding="UTF-8" standalone="no"?>
<!-- Created with Inkscape (http://www.inkscape.org/) -->

<svg
   xmlns:dc="http://purl.org/dc/elements/1.1/"
   xmlns:cc="http://web.resource.org/cc/"
   xmlns:rdf="http://www.w3.org/1999/02/22-rdf-syntax-ns#"
   xmlns:svg="http://www.w3.org/2000/svg"
   xmlns="http://www.w3.org/2000/svg"
   xmlns:xlink="http://www.w3.org/1999/xlink"
   version="1.0"
   width="251"
   height="304.20001"
   id="svg4166">
  <defs
     id="defs4168" />
  <metadata 
     id="metadata1880"><rdf:RDF><cc:Work
         rdf:about=""><dc:title>Botkyrka kommunvapen</dc:title><dc:date>2011-06-20</dc:date><dc:creator><cc:Agent><dc:title>Lokal_Profil</dc:title></cc:Agent></dc:creator><cc:license
         rdf:resource="http://creativecommons.org/licenses/by-sa/2.5/" /><dc:rights><cc:Agent><dc:title>cc-by-sa-2.5</dc:title></cc:Agent></dc:rights><dc:format>image/svg+xml</dc:format><dc:type
         rdf:resource="http://purl.org/dc/dcmitype/StillImage" /></cc:Work><cc:License
         rdf:about="http://creativecommons.org/licenses/by-sa/2.5/"><cc:permits
         rdf:resource="http://web.resource.org/cc/Reproduction" /><cc:permits
         rdf:resource="http://web.resource.org/cc/Distribution" /><cc:requires
         rdf:resource="http://web.resource.org/cc/Notice" /><cc:requires
         rdf:resource="http://web.resource.org/cc/Attribution" /><cc:permits
         rdf:resource="http://web.resource.org/cc/DerivativeWorks" /><cc:requires
         rdf:resource="http://web.resource.org/cc/ShareAlike" /></cc:License></rdf:RDF>
  </metadata>
  <path
     d="m 249.55058,1.4395041 -124.0505,0 -124.0505509,0 0,173.4965959 C 0.68228908,268.65698 81.738969,302.75585 125.50006,302.75585 c 42.99385,0 124.81775,-34.09887 124.05052,-127.81975 l 0,-173.4965959 z"
     id="Shield"
     style="fill:#d40000" />
  <g
     transform="matrix(0.92196023,0,0,0.92196023,9.5422831,11.896774)"
     id="g2984">
    <path
       d="m 151.09612,14.714937 a 27.796921,27.796921 0 1 1 -55.593839,0 27.796921,27.796921 0 1 1 55.593839,0 z"
       transform="matrix(1.0981129,0,0,1.0981129,-9.8268433,19.05986)"
       id="path2961"
       style="fill:#ffcd50" />
    <g
       transform="matrix(0.82790198,0,0,0.82790198,-129.42869,-33.320419)"
       id="Saint-Erik"
       style="fill:#ffcd50;stroke:#d40000">
      <g
         transform="translate(1.207855,0)"
         id="g2941">
        <path
           d="m 297.27137,390.61743 c 0,0 1.20972,9.6828 -2.37942,10.74277 -4.45872,1.3168 -12.55124,1.79726 -16.79784,-1.70476 -3.42095,-2.82112 5.41579,-10.6894 5.41579,-10.6894 l 13.76147,1.65139 z"
           id="use2934" />
        <use
           transform="matrix(-1,0,0,1,613.42632,0)"
           id="use2939"
           x="0"
           y="0"
           width="251"
           height="304.20001"
           xlink:href="#use2934" />
      </g>
      <g
         id="Head">
        <path
           d="m 301.3777,106.44658 c -2.75237,3.9402 -0.45974,4.77485 -2.24944,10.20861 6.55255,26.13412 9.78169,25.86699 17.48446,1.57274 -2.07795,-3.02346 1.20302,-7.18617 -1.80904,-11.61535 -4.90013,3.9217 -8.209,2.06221 -13.42598,-0.166 z"
           id="Hals" />
        <path
           d="m 307.95475,110.71196 c -2.51437,1.04656 -7.8314,-0.99348 -11.69188,-7.16938 -2.06747,-4.270819 -2.4759,-4.177964 -2.68457,-20.432098 -0.39902,-7.451871 5.31264,-11.594486 14.37645,-11.750769 9.0638,0.156283 14.77546,4.298898 14.37644,11.750769 -0.20867,16.254134 -0.6171,16.161279 -2.68457,20.432098 -3.86048,6.1759 -9.17751,8.21594 -11.69187,7.16938 z"
           id="Huvud" />
        <path
           d="m 297.54912,102.9876 2.41261,6.31541 0.4006,-2.09096 1.00096,3.09927 0.74086,-1.85113 0.80084,3.27252 1.30101,-1.60472 0,3.702 c 0,0 1.54154,-1.67746 1.54154,-1.67746 l 2.25788,4.22259 2.25788,-4.22259 c 0,0 1.54154,1.67746 1.54154,1.67746 l 0,-3.702 1.30101,1.60472 0.80084,-3.27252 0.74086,1.85113 1.00097,-3.09927 0.40059,2.09096 2.41261,-6.31541"
           id="Beard" />
        <path
           d="m 314.0851,104.06843 c -0.19083,-0.19084 -2.29019,-0.30587 -4.66524,-0.25564 -3.21855,0.0681 -6.85234,-0.0527 -6.43088,-0.47413 0.67192,-0.67192 9.2819,-1.1582 9.2819,-0.54136 0,0.23474 0.59798,0.41431 1.32886,0.39903 0.73087,-0.0153 1.42287,0.25276 1.53778,0.59565 0.22351,0.66698 -0.4777,0.85117 -1.05242,0.27645 z m -5.97038,-7.098745 c -0.18287,-0.182867 -0.33249,-0.827482 -0.33249,-1.432471 0,-0.89765 -0.36695,-1.15866 -1.99496,-1.418987 -1.09722,-0.175451 -1.99495,-0.413958 -1.99495,-0.530014 0,-0.797782 1.06894,-2.769635 1.50142,-2.769635 0.37061,0 0.36906,0.298161 -0.005,0.997477 -0.56469,1.055132 -0.42038,1.162141 1.37153,1.016993 0.61719,-0.05 1.12216,0.149592 1.12216,0.443528 0,0.293942 0.34989,0.534434 0.77754,0.534434 0.42765,0 0.64486,-0.214683 0.4827,-0.477074 -0.17144,-0.277393 0.3354,-0.397315 1.21093,-0.28651 0.82818,0.104815 1.6061,0.02823 1.72872,-0.17016 0.31177,-0.504464 -0.35743,-1.480665 -0.95126,-1.38764 -0.27055,0.04239 -0.56755,-0.315697 -0.65999,-0.795733 -0.0925,-0.480035 0.0658,-0.872792 0.35157,-0.872792 0.28581,0 0.38949,0.339192 0.23041,0.753763 -0.20265,0.528095 -0.0601,0.665831 0.47614,0.460057 0.83782,-0.321502 2.09069,1.467209 1.5924,2.273455 -0.1612,0.26083 -1.29186,0.916038 -2.51258,1.456017 -1.61455,0.714194 -2.13811,1.193831 -1.92093,1.759784 0.31156,0.811917 0.0961,1.014779 -0.47316,0.445508 z m 2.42092,-9.90199 c 0.0748,-1.263489 0.2549,-2.416104 0.40016,-2.561367 0.14527,-0.145266 0.20992,0.762626 0.14366,2.017537 -0.0662,1.254911 -0.24632,2.407531 -0.40016,2.561367 -0.15384,0.153841 -0.21849,-0.754053 -0.14366,-2.017537 z m -11.23197,-3.184764 c 0,-0.248627 0.50498,-0.35498 1.12216,-0.236342 1.12139,0.215558 1.12137,0.215289 -0.0408,-0.39051 -0.9012,-0.46974 -1.37686,-0.472673 -2.11287,-0.01303 -1.22442,0.764658 -1.23718,0.761378 -1.32009,-0.339225 -0.15307,-2.032094 4.53889,-2.940839 6.96499,-1.34899 0.75435,0.494949 1.37154,1.126008 1.37154,1.402353 0,0.284802 -0.32406,0.233503 -0.74811,-0.118428 -0.59919,-0.497279 -0.74811,-0.492889 -0.74811,0.02205 0,0.353611 -0.1417,0.501231 -0.31488,0.328045 -0.17319,-0.173186 -0.78421,0.01384 -1.35782,0.415615 -1.16091,0.813129 -2.81595,0.976787 -2.81595,0.278454 l -2e-5,0 z m -0.0653,-2.47359 c -0.29228,-0.100416 -0.89711,0.183118 -1.34407,0.630074 -0.75104,0.751038 -0.71075,0.764879 0.53142,0.182574 0.73924,-0.346541 1.10493,-0.712232 0.81265,-0.812648 z m 4.55394,0.668968 c 0,-0.143942 -0.59764,-0.488931 -1.32807,-0.766641 -0.95441,-0.362866 -1.48061,-0.338808 -1.87027,0.08551 -0.39386,0.428893 -0.38424,0.501927 0.0352,0.266935 0.31755,-0.177927 1.10306,-0.112862 1.74559,0.144589 1.47379,0.590532 1.41759,0.579843 1.41759,0.269605 z m 10.64999,1.02743 c -0.57361,-0.401775 -1.18463,-0.588802 -1.35782,-0.415616 -0.17319,0.173187 -0.31489,0.02557 -0.31489,-0.328045 0,-0.514944 -0.14892,-0.519335 -0.7481,-0.02205 -0.42406,0.35193 -0.74811,0.40323 -0.74811,0.118428 0,-0.276346 0.61719,-0.907405 1.37153,-1.402353 2.42611,-1.59185 7.11807,-0.683105 6.96499,1.34899 -0.0829,1.100602 -0.0957,1.103883 -1.32008,0.339224 -0.73601,-0.459645 -1.21168,-0.456712 -2.11287,0.01303 -1.16223,0.605799 -1.16226,0.606068 -0.0409,0.390511 0.61719,-0.118639 1.12216,-0.01228 1.12216,0.236341 0,0.698333 -1.65504,0.534676 -2.81594,-0.278453 z m 4.31216,-1.513822 c -0.34148,-0.411459 -0.98615,-0.744801 -1.4326,-0.740757 -0.54592,0.0049 -0.40343,0.233906 0.43512,0.699207 1.65074,0.915965 1.72578,0.919091 0.99748,0.04155 z m -2.82589,-0.429142 c 0.42286,0.237113 0.4336,0.164977 0.0394,-0.264334 -0.38966,-0.42432 -0.91586,-0.448378 -1.87027,-0.08551 -0.73044,0.27771 -1.32807,0.617143 -1.32807,0.754296 0,0.137154 0.57992,0.02889 1.28871,-0.240592 0.70878,-0.26948 1.5504,-0.343216 1.87027,-0.163859 z m -10.69624,-1.040139 c -0.12234,-0.122337 -2.07522,-0.277372 -4.33975,-0.344521 -3.05887,-0.0907 -3.88848,-0.250655 -3.22717,-0.622209 0.81242,-0.456454 5.12705,-0.624095 7.24905,-0.281655 0.48004,0.07747 0.87279,0.440091 0.87279,0.805833 0,0.688641 -0.17181,0.825663 -0.55492,0.442552 z m 5.54231,-0.263496 c 0,-0.799607 2.81845,-2.007764 4.68381,-2.007764 2.74945,0 2.53994,0.829946 -0.29424,1.165612 -1.41218,0.167253 -2.798,0.534492 -3.07959,0.816088 -0.64689,0.646882 -1.30998,0.660075 -1.30998,0.02606 z"
           id="Ansikte"
           style="fill:#d40000;stroke:none" />
        <g
           transform="translate(-2.7499982e-4,0)"
           id="g2891">
          <path
             d="m 307.95502,63.176733 c -11.81194,0 -17.34816,7.739912 -18.617,14.035792 -0.78442,3.892233 -3.07719,11.949003 -4.95314,15.085973 -3.90895,6.536575 2.08451,7.423175 4.24958,7.36052 4.82638,-0.13967 5.23566,-4.225425 5.1606,-7.099392 -0.0999,-2.343764 -0.0781,-0.546092 -0.0781,-4.609744 0,-8.284024 6.97628,-16.590169 14.23802,-16.590169"
             id="use2883" />
          <use
             transform="matrix(-1,0,0,1,615.91004,0)"
             id="use2889"
             x="0"
             y="0"
             width="251"
             height="304.20001"
             xlink:href="#use2883" />
        </g>
      </g>
      <path
         d="m 307.92146,333.88386 c -10.49501,0.70327 -24.05361,-6.10425 -34.77489,-16.82114 -19.14585,-28.98082 -30.2709,-68.97689 -32.75447,-107.08998 -1.3067,-19.50282 -4.19011,-37.46752 -5.16855,-57.11567 -0.0926,-22.76667 0.26043,-22.11172 23.19734,-18.19188 4.79168,0.49755 9.58588,1.10002 19.70066,1.29244 3.32469,0 30.45473,-1.51651 29.79991,-1.51651 -0.65482,0 26.47522,1.51651 29.79991,1.51651 10.11478,-0.19242 14.90898,-0.79489 19.70066,-1.29244 22.93691,-3.91984 23.28997,-4.57479 23.19734,18.19188 -0.97844,19.64815 -3.86185,37.61285 -5.16855,57.11567 -2.48357,38.11309 -13.60862,78.10916 -32.75447,107.08998 -10.72128,10.71689 -24.27988,17.52441 -34.77489,16.82114 z"
         id="Cloak-1" />
      <g
         transform="translate(-0.358355,0)"
         id="Shirt-1">
        <path
           d="m 307.88352,138.20562 c 0,0 0,-15.7928 0,-15.7928 -0.26361,-4.8071 -1.56376,-3.5078 -8.53812,-10.49339 1.18921,2.42797 -2.93469,8.09969 -6.77952,9.94866 0,0 -19.54928,15.9939 -32.78505,15.00042 -9.82769,-0.73766 -19.0917,1.83716 -28.93411,-0.22608 -15.98407,-1.20379 -10.23312,31.78234 -9.30308,39.89786 3.66461,6.56511 21.5957,1.96602 26.66191,-0.51139 12.70037,-6.21056 26.3266,-27.86306 39.23328,-32.78111 5.77118,-2.19909 18.67929,1.97754 20.44469,-5.04217 z"
           id="path10071" />
        <use
           transform="matrix(-1,0,0,1,616.55963,0)"
           id="use4701"
           x="0"
           y="0"
           width="600"
           height="660"
           xlink:href="#path10071" />
      </g>
      <g
         transform="matrix(1.1481588,0,0,1.1481588,-67.100853,-22.435647)"
         id="L-arm-w-fish"
         style="stroke-width:0.89463651">
        <path
           d="m 417.06751,162.15037 c 2.51249,0.2961 4.53929,0.21142 6.25966,0.21256 1.72037,8.5e-4 5.10718,-0.69939 6.39214,-1.12926 1.28497,-0.42987 6.67816,-2.53968 8.01261,-2.72784 3.44257,-0.48544 4.29277,-2.10956 4.10545,-2.76773 -0.95517,-1.23621 -2.92165,-0.16078 -4.53028,0.29014 -1.30605,0.19518 -1.98768,0.52001 -4.98806,1.1816 1.65943,-0.33877 2.70247,-0.84959 4.40559,-1.37188 2.19987,-0.8861 2.01879,-0.66088 3.95856,-1.46334 1.85738,-0.81467 6.89973,-1.86655 6.76266,-4.20345 -0.0578,-1.56713 -3.66249,-0.51155 -6.29954,0.39193 -1.18686,0.19836 -2.44276,0.61213 -3.82096,1.13409 -1.67628,0.48665 -2.40174,0.74343 -3.94501,1.24766 1.58281,-0.57453 2.97439,-0.87617 4.66382,-1.60244 1.95742,-0.82775 2.22159,-1.11304 4.41176,-1.74673 0.81918,-0.41821 5.61931,-1.65549 4.93338,-3.90456 -1.17586,-1.60541 -3.62171,0.002 -5.95439,0.66673 -1.71856,0.57492 -2.86178,0.86857 -4.75603,1.56121 0,0 -2.08047,0.70469 -4.13283,1.5566 2.11572,-0.87499 2.78195,-1.01127 4.20225,-1.55373 1.65491,-0.78875 1.61476,-0.79189 3.20191,-1.49611 4.90145,-1.60736 5.12253,-2.80073 4.88294,-3.51144 -0.5955,-1.7664 -3.46656,-0.64236 -6.32204,0.3129 -1.07142,0.21425 -2.20305,0.66491 -3.77217,1.26192 -0.89612,0.29979 -3.45731,0.57758 -3.45731,0.57758 0.36693,-0.2487 1.38447,-0.77003 1.64001,-0.95885 0.64892,-0.47953 1.1814,-2.84179 0.82054,-3.33271 -0.36086,-0.49092 -1.96613,0.86162 -2.77378,1.13182 -0.80766,0.27019 -3.2936,0.0824 -4.30317,0.42015 -1.00957,0.33774 -5.98989,2.2323 -7.40329,2.70513 -1.41338,0.47282 -2.00196,2.50465 -3.10747,3.28224 -1.10551,0.77759 -1.59353,2.13956 -3.15585,2.86609 -3.36307,1.58132 -7.23605,0.79206 -10.8324,1.15561 -17.0902,1.48614 -21.16512,1.29737 -31.83696,-0.62198 -3.01689,-1.4454 -13.44356,6.32797 -10.63309,9.08702 3.31023,3.24962 5.40206,3.88987 9.72639,4.80725 13.95961,1.12971 42.89386,-3.85807 47.64496,-3.45818 z"
           id="path15431" />
        <path
           d="m 416.12058,158.14441 c 0,0 0.26305,1.77286 1.06448,2.714"
           id="path8618"
           style="fill:none" />
        <path
           d="m 413.95107,151.64405 c 0.022,1.28354 1.14569,3.22627 2.28796,3.44268"
           id="path8620"
           style="fill:none" />
        <path
           d="m 431.22731,146.10756 c 0.75731,0.94632 1.10066,1.58125 1.18598,2.45245"
           id="path8644"
           style="fill:none" />
        <path
           d="m 432.56998,150.15713 c 0.38232,0.77184 0.46026,1.04569 0.50661,1.77998"
           id="path8646"
           style="fill:none" />
        <path
           d="m 433.24721,153.67953 c 0.12429,1.00812 -0.16537,1.70486 -0.158,2.30223"
           id="path8648"
           style="fill:none" />
        <path
           d="m 432.71132,157.60775 c -0.25069,0.83366 -0.32125,1.15718 -0.27491,1.89147"
           id="path8650"
           style="fill:none" />
        <g
           transform="matrix(-0.26457924,0.72060715,0.65829325,0.28018615,312.2397,39.605125)"
           id="Fisk"
           style="fill:#eeeeee">
          <path
             d="m 130.67086,199.54641 c 3.82556,5.63906 6.34265,21.28289 0.5579,30.19169 -0.74763,0.17098 -12.0659,-8.13529 -12.13605,-9.94594 1.90379,-5.62909 2.63359,-4.5864 0.49013,-9.69709 1.83111,-4.06942 9.71838,-9.90435 11.08802,-10.54866 z"
             id="path3753" />
          <path
             d="m 97.311715,226.60466 c 1.871093,-2.32625 -3.23976,-4.11415 -5.72383,-4.59823 -5.98237,1.86636 -12.340331,4.22372 -11.568831,5.42192 0.75906,1.17889 9.575911,7.63845 11.720631,5.28656 l 5.57203,-6.11025 z"
             id="path3759"
             style="stroke:#eeeeee" />
          <path
             d="m 51.553807,231.94121 12.961082,-1.60479 c 1.734378,1.44052 5.483968,5.29229 4.979788,5.72444 -4.885603,4.18766 -6.963948,5.28812 -10.64324,6.97027 -3.643631,-2.19451 -6.540954,-7.12389 -7.29763,-11.08992 z"
             id="path3743" />
          <path
             d="m 52.617658,199.66233 c 3.947116,-0.0228 16.474533,1.30776 22.62651,3.58306 1.05897,-2.51213 3.76344,-4.43517 0.74849,-6.11431 -3.42469,-1.90735 -6.7206,-3.8398 -10.5,-4.90625 -4.623122,-0.77699 -7.878996,1.13538 -10.84375,3 -8.723515,5.48646 -5.978366,4.46027 -2.03125,4.4375 z"
             id="path3757" />
          <path
             d="m 90.584506,206.93042 c 0,-1.19467 11.432674,-4.65032 13.576884,-2.29199 1.4992,1.6489 -0.11054,2.19921 -3.57688,3.84504 -3.188174,1.02688 -7.232814,0.1747 -10.000004,-1.55305 z"
             id="path3755"
             style="stroke:#eeeeee" />
          <path
             d="m 48.71875,199.90625 c -4.684982,-0.0519 -9.377584,0.21913 -14.0625,0.75 -7.01205,1.09585 -14.929023,2.88142 -24.65625,5.4375 -1.73421,0.45571 -3.4690582,0.93417 -5.09375,1.375 -4.83414101,1.36229 -8.776397,2.62287 -9.65625,3.09375 -0.1853186,0.14264 -0.3434754,0.29647 -0.5,0.4375 -4.852263,4.37185 3.9155497,7.94901 13.75,10.3125 1.929771,0.46378 3.585087,1.54433 3.03125,1.4375 -5.1539034,-0.99409 -10.91646693,-3.84607 -15.25,-3.5 1.7659955,1.34301 4.00036616,2.62478 6.125,3.84375 8.10501,4.03889 15.544554,5.50926 18.304327,-2.5625 1.137585,-3.3272 1.253609,-8.1303 -0.78125,-10.65625 -0.68553,-0.85098 -2.700768,-1.25001 -1.960577,-1.25 1.72333,0 3.45267,4.14638 3.3125,7.875 -0.13046,3.47034 -2.32607,7.73158 -5,9.71875 -1.15532,0.85859 0.4674,1.56232 7.4375,3.25 2.608837,0.63168 4.893269,1.08401 7.25,1.40625 0.785215,0.10581 1.560237,0.20496 2.375,0.28125 0.01044,0.001 0.02081,-0.001 0.03125,0 0.805295,0.075 1.63757,0.13863 2.5,0.1875 0.883336,0.052 1.777536,0.098 2.75,0.125 1.920758,0.0507 4.05729,0.0608 6.5,0.0312 5.15625,-0.0624 10.363672,-0.22049 13.34375,-0.375 0.993359,-0.0528 1.74375,-0.10584 2.15625,-0.15625 1.243531,-0.15198 2.435185,-0.30724 3.5625,-0.46875 2.272968,-0.3259 4.333942,-0.67765 6.21875,-1.0625 1.884808,-0.38485 3.611536,-0.81035 5.21875,-1.28125 2.408261,-0.70668 4.559048,-1.52384 6.65625,-2.5 1.699282,-0.79094 3.31544,-1.51016 4.875,-2.125 1.897733,-0.74655 3.734872,-1.36767 5.53125,-1.875 2.731861,-0.7736 5.417669,-1.27121 8.25,-1.5625 1.12344,-0.11487 2.28515,-0.20146 3.46875,-0.25 0.0101,-4.1e-4 0.0211,4.1e-4 0.0312,0 1.78242,-0.072 3.66474,-0.0633 5.65625,0 2.35621,0.0749 4.12566,0.12497 5.46875,0.125 2.01726,6.5e-4 3.07819,-0.13342 3.71875,-0.5 0.21243,-0.12244 0.36042,-0.25656 0.5,-0.4375 0.13958,-0.18094 0.26818,-0.40797 0.375,-0.65625 0.10682,-0.24828 0.19833,-0.51929 0.3125,-0.84375 0.12626,-0.35881 0.23266,-0.78099 0.3125,-1.21875 0.0817,-0.44794 0.12785,-0.90301 0.15625,-1.375 0.0259,-0.45153 0.0262,-0.89084 0,-1.3125 -6.5e-4,-0.0106 6.9e-4,-0.0206 0,-0.0312 -0.0134,-0.20451 -0.0363,-0.40575 -0.0625,-0.59375 -0.001,-0.0106 0.002,-0.0207 0,-0.0312 -0.0283,-0.19671 -0.0508,-0.35996 -0.0937,-0.53125 -0.38044,-1.51578 -0.62277,-2.12146 -2.46875,-2.25 -1.10538,-0.0724 -2.78427,0.0212 -5.4375,0.1875 -1.51787,0.0951 -2.97627,0.13351 -4.46875,0.0937 -0.99534,-0.0264 -2.00544,-0.0879 -3.0625,-0.1875 -1.58485,-0.14962 -3.2689,-0.37442 -5.15625,-0.71875 -2.509891,-0.4574 -5.39483,-1.12465 -8.84375,-2 -0.0089,-0.002 -0.02231,0.002 -0.03125,0 -1.722639,-0.43747 -3.582129,-0.94266 -5.625,-1.5 -0.0088,-0.002 -0.02241,0.002 -0.03125,0 -2.055291,-0.56088 -4.281525,-1.18232 -6.71875,-1.875 -10.186254,-2.73452 -20.213072,-4.17049 -30.21875,-4.28125 z"
             id="path3745" />
          <path
             d="m 9.3619278,210.20266 c 0.09996,0.0129 0.19356,0.0601 0.28125,0.0937 1.4860002,0.57023 2.0435902,4.42518 0.8125002,5.65625 -1.4632602,1.46327 -5.3437602,-0.29879 -5.3437502,-2.4375 0,-1.44047 2.75054,-3.50617 4.25,-3.3125 z"
             id="path3749"
             style="fill:#d40000;stroke:none" />
          <path
             d="m 8.5668608,211.43671 c -1.091696,0.0771 -2.068178,1.13749 -2.068163,2.57371 0,0.67407 0.617618,1.2409 1.378775,1.2409 1.996114,0 3.3134142,-2.5988 1.792408,-3.53886 -0.355555,-0.21973 -0.739126,-0.30146 -1.10302,-0.27575 z"
             id="path3751"
             style="fill:#eeeeee;stroke:none" />
          <path
             d="m 8.4859968,212.44945 c -0.511335,0.0361 -0.968705,0.53278 -0.968698,1.20549 0,0.31572 0.289284,0.58122 0.645798,0.58122 0.934951,0 1.551955,-1.21724 0.839538,-1.65755 -0.166537,-0.10292 -0.346196,-0.1412 -0.516638,-0.12916 z"
             id="path3761"
             style="fill:#d40000;stroke:none" />
          <path
             d="m 23.383588,216.31949 c 3.185776,0.6035 17.974249,-5.09654 16.72882,1.19109 -3.889132,7.9564 -10.646582,5.69964 -18,4.88319"
             id="path3763" />
        </g>
        <path
           d="m 418.43686,155.20888 c 2.73084,-0.5058 6.24927,-2.90613 6.79201,-4.10709 0.54286,-1.20097 0.003,-3.87468 0.003,-3.87468 l -1.3604,0.65899 c 0,0 3.47548,-1.77432 4.28312,-2.04451 0.80765,-0.27018 2.06153,-0.1155 3.27585,-0.85009 0.21811,-0.17342 1.23565,-0.69475 1.49119,-0.88357 0.64892,-0.47953 1.1814,-2.84179 0.82054,-3.33271 -0.36086,-0.49092 -1.96613,0.86162 -2.77378,1.13182 -0.80766,0.27019 -3.2936,0.0824 -4.30317,0.42015 -1.00957,0.33774 -5.98989,2.2323 -7.40329,2.70513 0,0 -0.7456,0.51165 -0.20014,0.0268"
           id="use5079" />
      </g>
      <g
         transform="matrix(-1.1481588,0,0,1.1481588,682.94288,-22.435647)"
         id="R-arm-w-axe"
         style="stroke-width:0.89463651">
        <path
           d="m 417.06751,162.15037 c 2.51249,0.2961 4.53929,0.21142 6.25966,0.21256 1.72037,8.5e-4 5.05252,-0.60125 6.39214,-0.63759 5.28528,-0.14335 2.59972,-4.5155 2.59972,-4.5155 0,0 1.0613,-4.26499 1.0613,-4.26499 0,0 -0.83429,-3.46919 -0.83429,-3.46919 1.6088,-4.11981 3.57307,-5.04779 -1.26442,-4.40888 5.86392,-4.38593 -1.46316,-3.13596 -4.6164,-2.73959 -1.00957,0.33774 -5.98989,2.2323 -7.40329,2.70513 -1.41338,0.47282 -2.00196,2.50465 -3.10747,3.28224 -1.10551,0.77759 -1.59353,2.13956 -3.15585,2.86609 -3.36307,1.58132 -7.23605,0.79206 -10.8324,1.15561 -17.0902,1.48614 -21.16512,1.29737 -31.83696,-0.62198 -3.01689,-1.4454 -13.44356,6.32797 -10.63309,9.08702 3.31023,3.24962 5.40206,3.88987 9.72639,4.80725 13.95961,1.12971 42.89386,-3.85807 47.64496,-3.45818 z"
           id="path3140" />
        <path
           d="m 416.12058,158.14441 c 0,0 0.26305,1.77286 1.06448,2.714"
           id="path3142"
           style="fill:none" />
        <path
           d="m 413.95107,151.64405 c 0.022,1.28354 1.14569,3.22627 2.28796,3.44268"
           id="path3144"
           style="fill:none" />
        <g
           id="Axe"
           style="fill:#eeeeee">
          <path
             d="m 434.96393,117.2522 -6.47176,-0.67274 -9.5932,87.71997 6.49033,0.50311 9.57463,-87.55034 z"
             id="path3316" />
          <path
             d="m 455.89697,128.62359 c -2.8581,-2.86546 -7.14161,-6.28306 -11.3033,-9.01828 -2.94086,-1.93286 -3.45688,-2.42401 -3.39353,-3.22994 0.0954,-1.21314 -0.53049,-3.26003 -2.5137,-3.06219 -1.34961,0.13464 -2.22502,1.01057 -2.56198,3.26821 -0.16464,1.10311 -0.35133,2.09844 -0.44126,2.09147 l -10.07339,-0.7809 1.34962,-17.16676 2.69863,0.20923 0.289,-3.675934 6.49031,0.50314 -0.28901,3.675924 2.17768,0.16172 c 6.52506,0.48195 16.48395,-1.27236 21.03865,-3.706044 0.82045,-0.43838 1.62987,-0.69307 1.7987,-0.56596 0.68532,0.51595 1.34085,8.848414 1.2184,15.487054 -0.0667,3.61389 -1.40417,12.97572 -2.25535,15.78635 -1.07551,2.96064 -0.95521,2.90914 -4.22947,0.023 z"
             id="path3322" />
        </g>
        <g
           id="g2911">
          <path
             d="m 431.63547,157.0513 c 3.08552,-0.73879 3.0374,2.447 1.6894,2.58425 -1.348,0.13725 -2.97644,0.0314 -4.27002,0.40937 -3.3371,0.97499 -4.78058,-0.15503 -4.88087,-0.83196 0.3615,-1.51983 2.59634,-1.34942 4.24796,-1.6008 1.88422,-0.42465 3.21353,-0.56086 3.21353,-0.56086 z"
             id="use2899" />
          <path
             d="m 433.59784,152.72475 c 2.69137,-0.28849 2.76673,3.71768 -0.095,4.04345 -2.86172,0.32577 -7.29641,1.70826 -9.76091,-0.7632 -0.59254,-1.45193 3.12704,-1.97411 5.90219,-2.23649 2.65544,-0.51455 1.26234,-0.75527 3.95371,-1.04376 z"
             id="use2903" />
          <path
             d="m 432.51424,149.24655 c 3.1396,-0.13318 4.277,2.90167 1.0836,3.4782 -3.1934,0.57653 -2.34227,0.30514 -5.54548,0.70126 -0.91871,-0.0438 -5.10991,0.76079 -5.4108,-1.57119 0.41058,-1.94715 2.60869,-1.44521 5.00817,-1.79985 3.11684,-0.40017 1.72491,-0.67524 4.86451,-0.80842 z"
             id="use2907" />
          <path
             d="m 431.83019,144.97355 c 1.67576,-0.10193 3.35236,4.00398 0.68405,4.273 -2.66831,0.26902 -0.80702,0.25958 -3.48348,0.25951 -5.12852,0.55323 -5.82133,-0.44328 -5.89561,-1.1896 -0.18455,-1.85492 2.99513,-1.50715 5.89017,-2.31777 1.00296,-0.28083 1.12911,-0.92321 2.80487,-1.02514 z"
             id="use2895" />
        </g>
        <path
           d="m 417.11748,153.48547 c 2.77661,0.0611 6.71027,-1.57204 7.48629,-2.63724 0.77615,-1.06519 0.79232,-3.79281 0.79232,-3.79281 l -1.46613,0.36802 c 0,0 3.76407,-1.02906 4.60982,-1.12905 0.84575,-0.1 2.04182,0.30691 3.38033,-0.16488 0.24887,-0.12535 1.35128,-0.42845 1.63992,-0.56124 0.73301,-0.33728 1.73558,-2.54151 1.4823,-3.09565 -0.25328,-0.55415 -2.10043,0.44299 -2.94619,0.54299 -0.84577,0.1 -3.24131,-0.59033 -4.29852,-0.46534 -1.0572,0.12498 -6.31905,0.96519 -7.79913,1.14015 0,0 -0.8342,0.34902 -0.20141,-0.0145"
           id="path3176" />
      </g>
      <path
         d="m 260.01381,389.64916 c 8.63258,-71.22423 12.00703,-170.90108 13.09956,-223.08876 0.27227,-13.00562 -7.18666,0.23816 -22.39488,12.00181 -4.46078,3.45044 -24.88356,5.64939 -28.54818,-0.91572 7.96785,4.97667 4.5713,-41.24964 8.83016,-40.9098 49.25141,3.93004 60.11717,-24.68507 67.1504,-17.78137 6.52833,6.40809 5.36592,6.84916 9.77014,5.4065 4.40423,1.44302 3.24182,1.00195 9.77015,-5.40614 7.03323,-6.9037 17.89899,21.71141 67.1504,17.78137 4.4392,-0.35423 0.86231,45.88647 8.83016,40.9098 -3.66462,6.56511 -24.0874,4.36616 -28.54818,0.91572 -15.20822,-11.76365 -22.66715,-25.00743 -22.39488,-12.00181 1.09253,52.18768 2.94706,151.86417 11.57964,223.0884 -46.593,5.6472 -47.14725,4.83149 -47.14725,4.83149 0,0 0.18685,0.90554 -47.14724,-4.83149 z"
         id="Shirt-2" />
      <path
         d="m 307.21819,120.24635 c -3.48516,1.47167 -6.87939,-1.31617 -9.81431,-3.37543 -3.37136,-2.36549 -9.57035,5.91307 -14.49221,9.0141 -11.74015,7.3969 -25.56371,10.06254 -38.43476,5.94292 -2.7162,-0.86937 -5.39544,0.98048 -7.44426,2.99573 3.84093,-1.69551 7.18188,-1.12199 9.84405,2.49699 11.02227,14.98385 7.82357,35.51358 26.92494,40.6179 3.41208,0.91179 6.90681,0.64516 10.33957,0.21573 28.14254,-3.52055 23.04492,-32.77083 23.07698,-57.90794 z"
         id="cloak-2" />
      <use
         transform="matrix(-1,0,0,1,615.84292,0)"
         id="cloak-3"
         x="0"
         y="0"
         width="600"
         height="660"
         xlink:href="#cloak-2" />
    </g>
  </g>
  <path
     d="m 249.55062,1.4395041 -124.0505,0 -124.050551,0 0,173.4965959 c -0.76723996,93.72088 80.28944,127.81975 124.050531,127.81975 42.99385,0 124.81775,-34.09887 124.05052,-127.81975 l 0,-173.4965959 z"
     id="Frame"
     style="fill:none;stroke:#000000;stroke-width:1.88832211;stroke-linejoin:bevel" />
</svg>
