<?xml version="1.0" encoding="UTF-8" standalone="no"?>
<!-- Created with Inkscape (http://www.inkscape.org/) -->
<svg
   xmlns:dc="http://purl.org/dc/elements/1.1/"
   xmlns:cc="http://web.resource.org/cc/"
   xmlns:rdf="http://www.w3.org/1999/02/22-rdf-syntax-ns#"
   xmlns:svg="http://www.w3.org/2000/svg"
   xmlns="http://www.w3.org/2000/svg"
   version="1.0"
   width="251"
   height="304.20001"
   id="svg4166">
  <defs
     id="defs4168" />
  <metadata
     id="metadata1880"><rdf:RDF><cc:Work
         rdf:about=""><dc:title>Haninge kommunvapen</dc:title><dc:date>2006-12-08</dc:date><dc:creator><cc:Agent><dc:title>Lokal_Profil</dc:title></cc:Agent></dc:creator><cc:license
         rdf:resource="http://creativecommons.org/licenses/by-sa/2.5/" /><dc:rights><cc:Agent><dc:title>cc-by-sa-2.5</dc:title></cc:Agent></dc:rights><dc:format>image/svg+xml</dc:format><dc:type
         rdf:resource="http://purl.org/dc/dcmitype/StillImage" /></cc:Work><cc:License
         rdf:about="http://creativecommons.org/licenses/by-sa/2.5/"><cc:permits
         rdf:resource="http://web.resource.org/cc/Reproduction" /><cc:permits
         rdf:resource="http://web.resource.org/cc/Distribution" /><cc:requires
         rdf:resource="http://web.resource.org/cc/Notice" /><cc:requires
         rdf:resource="http://web.resource.org/cc/Attribution" /><cc:permits
         rdf:resource="http://web.resource.org/cc/DerivativeWorks" /><cc:requires
         rdf:resource="http://web.resource.org/cc/ShareAlike" /></cc:License></rdf:RDF>
  </metadata>
  <path
     d="M 249.55058,1.4395041 L 1.4495291,1.4395041 L 1.4495291,174.9361 C 0.68228908,268.65698 81.738969,302.75585 125.50006,302.75585 C 168.49391,302.75585 250.31781,268.65698 249.55058,174.9361 L 249.55058,1.4395041 z "
     style="fill:#003d8f;stroke:none"
     id="Shield" />
  <path
     d="M 2.433,2.3800858 L 2.433,146.93101 L 248.63539,146.93101 L 248.63539,2.3800858 L 125.53419,2.3800858 L 2.433,2.3800858 z "
     style="fill:#ffcd50"
     id="Delning" />
  <g
     transform="translate(-1.726028e-7,0.150365)"
     id="Ankare">
    <path
       d="M 139.15706,164.2101 C 139.15919,157.3852 133.40581,151.85143 126.30791,151.85143 C 119.21001,151.85143 113.45662,157.3852 113.45876,164.2101 C 113.45662,171.035 119.21001,176.56877 126.30791,176.56877 C 133.40581,176.56877 139.15919,171.035 139.15706,164.2101 z "
       style="fill:#ffcd50"
       id="path3927" />
    <path
       d="M 132.25836,163.8503 C 132.2594,160.53724 129.46649,157.85095 126.02091,157.85095 C 122.57534,157.85095 119.78243,160.53724 119.78346,163.8503 C 119.78243,167.16337 122.57534,169.84965 126.02091,169.84965 C 129.46649,169.84965 132.2594,167.16337 132.25836,163.8503 z "
       style="fill:#003d8f"
       id="path3929" />
    <path
       d="M 121.50159,174.13102 C 120.89681,174.12033 121.50159,175.3225 121.50159,179.34757 L 121.50159,184.5641 L 108.93674,184.3886 C 99.05825,184.25062 96.173098,184.37809 95.442067,184.98479 C 94.273067,185.95497 94.089227,192.49469 95.230039,192.52721 L 120.92735,192.46725 C 120.95618,198.60553 121.03599,204.74427 120.95763,210.88248 C 120.66797,223.56177 120.44561,236.24208 120.3277,248.92416 C 120.2756,255.79252 120.01435,262.38194 119.74714,263.56732 C 118.73999,268.0351 115.92218,268.64197 107.23751,266.26146 C 98.205701,263.78581 86.987569,258.28217 85.0994,255.40046 C 83.598329,253.10953 83.364048,251.14525 84.448903,249.94649 C 84.98976,249.34886 85.793948,248.99866 86.235989,249.16829 C 86.724752,249.35584 87.23871,248.94687 87.54755,248.12464 C 88.634684,245.23033 85.00613,240.95255 77.859232,236.70289 C 76.122151,235.66999 73.279655,233.45179 71.542574,231.77354 C 69.719953,230.01266 68.112526,228.89624 67.741753,229.13376 C 66.588058,229.8728 64.227526,235.21122 63.502226,238.72159 C 62.044168,245.77844 63.893976,256.19104 67.331419,260.27621 C 69.145975,262.43268 70.158228,262.4515 70.581209,260.33659 C 71.326507,256.6101 75.964773,257.68501 81.01756,262.7552 C 85.016529,266.76795 92.631359,272.58497 95.94784,274.16055 C 97.211172,274.76074 99.020033,275.73654 99.967532,276.32901 C 100.91503,276.92148 103.75753,278.1133 106.28419,278.97748 C 111.57751,280.78792 117.77618,283.99334 120.23063,286.18935 C 121.16306,287.0236 122.57129,288.12901 123.36002,288.64581 C 124.73974,289.54983 124.831,289.52907 125.76874,288.09792 C 127.72089,285.11855 131.08808,282.5115 136.18887,280.03013 C 139.05563,278.63552 141.8319,277.4945 142.35837,277.4945 C 143.4774,277.4945 152.92092,273.31661 158.60979,270.30473 C 163.06773,267.94455 165.07591,266.52191 170.05623,262.19577 C 175.67884,257.31171 178.52368,256.76005 181.47449,259.98158 L 183.31676,261.99288 L 184.49953,260.69939 C 186.63952,258.35907 187.42711,256.00608 187.84089,250.71689 C 188.15728,246.67238 188.02312,244.47659 187.24516,240.96652 C 186.01587,235.42009 183.95468,230.67991 182.41356,229.85513 C 181.44051,229.33436 181.10929,229.48518 180.27774,230.82766 C 178.83185,233.1619 176.81148,234.99763 172.92054,237.51246 C 168.26158,240.52369 165.45014,243.62797 164.5857,246.71545 C 163.75069,249.69782 164.13083,250.78044 165.71529,249.93245 C 167.44375,249.00742 168.56985,249.25971 169.23575,250.72121 C 170.17329,252.77888 168.76488,254.43408 163.3212,257.67221 C 154.02375,263.20274 141.55741,267.7324 135.63396,267.7324 C 132.83881,267.7324 130.21395,266.65117 129.79356,265.32665 C 129.59085,264.68794 129.58044,257.15109 129.77042,248.57807 C 129.96042,240.00506 130.26779,224.07861 130.45346,213.18597 C 130.63915,202.29331 130.87811,193.24034 130.98446,193.06822 C 131.09083,192.89612 137.01242,192.80965 144.14352,192.87609 C 158.93864,193.01391 158.16035,193.29193 158.03785,187.91282 L 157.96593,184.75448 C 149.13027,184.13499 140.08526,185.29533 131.28673,184.10758 C 131.12065,183.9415 130.94699,181.8949 130.90079,179.55956 L 130.81679,174.29568 L 121.50159,174.13102 z "
       style="fill:#ffcd50"
       id="path1881" />
  </g>
  <g
     transform="matrix(0.993546,0,0,0.993546,7.709797,-0.959251)"
     style="fill:#ffcd50"
     id="Tjader">
    <path
       d="M 140.67648,11.377648 C 138.07934,11.777209 135.52215,13.348815 134.69639,15.053609 C 134.03045,16.412116 133.96386,17.197919 133.87063,25.362281 C 133.7774,33.766379 133.88395,37.482296 134.4167,43.515666 C 134.81626,48.057343 134.81626,48.17721 134.54988,48.17721 C 134.43002,48.17721 134.28351,48.030704 134.21692,47.844243 C 133.93722,47.111715 133.40447,43.275931 132.95164,38.854122 C 132.84509,37.722032 132.65863,35.977283 132.55208,34.991699 C 132.44553,34.006116 132.29902,30.916178 132.21911,28.13257 C 131.91278,17.730667 131.8595,17.171282 130.98047,16.238973 C 129.92829,15.133521 127.94381,14.73396 126.27897,15.280026 C 124.5875,15.826093 123.5886,16.452072 122.28336,17.743986 C 119.33993,20.647462 119.11351,22.938278 120.84494,31.861805 C 121.23119,33.806335 122.04363,37.162647 122.64297,39.213728 C 123.41545,41.877467 125.81282,48.150572 126.83836,50.201654 C 127.29119,51.107324 127.41106,51.813214 127.14469,51.986358 C 126.82504,52.186139 126.31893,51.293785 124.85387,47.97743 C 122.20345,41.944061 120.55193,37.242559 119.64626,33.127082 C 118.79386,29.184747 118.10129,26.893931 117.51527,26.028216 C 116.28995,24.190235 114.99804,24.110323 112.81377,25.721886 C 111.77491,26.481051 110.96247,27.506591 110.24326,28.945011 C 109.57732,30.316836 109.31095,31.462244 109.31095,33.1404 C 109.31095,35.897371 109.96357,38.028363 111.74827,41.1183 C 114.49192,45.886393 117.90151,50.880905 120.92486,54.61014 C 122.05695,55.995287 122.34996,56.528035 122.16349,56.821045 C 121.87048,57.300518 121.25782,56.674539 116.74278,51.387017 C 114.77162,49.082881 112.62731,46.23268 110.38977,42.95628 C 109.48409,41.637729 109.12449,41.278126 108.31205,40.905201 C 107.10005,40.332498 105.86141,40.572233 105.24875,41.504542 C 104.86251,42.090564 104.2898,44.008459 104.09002,45.393603 C 103.95683,46.245999 103.97015,46.565647 104.15661,47.431363 C 104.59613,49.429167 105.55508,50.880905 107.76598,52.971942 C 108.51183,53.664515 109.92361,55.023021 110.92251,55.981968 C 112.58735,57.566892 115.73056,60.1374 117.36876,61.229534 C 117.74169,61.46927 118.28775,61.868831 118.6074,62.121888 C 119.49975,62.841097 119.26002,63.507032 118.27443,63.040878 C 117.3954,62.614678 113.22665,60.110764 110.8426,58.552475 C 107.84589,56.607945 106.72712,56.021923 105.87473,55.928694 C 105.16883,55.8621 104.51622,56.115155 104.10334,56.621264 C 103.75705,57.034144 103.54396,58.09964 103.55727,59.324962 C 103.57059,60.590238 103.89024,61.402676 105.03565,63.200701 C 105.55508,63.999822 105.96796,64.465977 106.68717,65.012044 C 108.69829,66.557013 111.16225,67.729058 114.26551,68.634731 C 117.90151,69.686908 118.2478,69.886688 117.47531,70.379481 C 117.16898,70.592578 116.80938,70.619216 114.9048,70.605897 C 110.97579,70.592578 107.36642,69.806775 104.11666,68.23517 C 103.05116,67.715741 100.20096,65.651343 98.629354,64.25288 C 97.603815,63.347207 96.098801,61.442634 95.219769,59.93762 C 94.593789,58.885443 93.794667,57.060783 92.369566,53.50469 C 91.144247,50.468027 90.411719,48.283759 89.585958,45.247097 C 88.786836,42.316983 86.709119,35.644316 85.656942,32.660927 C 84.498217,29.344571 83.499315,27.493272 81.954345,25.815117 C 81.115267,24.909445 79.543661,23.777356 78.225109,23.138058 C 76.760053,22.418849 75.734513,22.112518 74.455918,21.979332 C 73.683433,21.912738 73.61684,21.872782 73.243916,21.353353 C 72.644575,20.527593 70.273847,18.183503 69.541318,17.704029 C 68.182811,16.798358 65.692215,16.465391 64.014059,16.958182 C 62.695508,17.357743 60.164955,18.796163 60.577835,18.92935 C 60.671066,18.969306 61.070626,19.089174 61.44355,19.195724 C 63.294849,19.715153 64.027377,20.620824 66.238281,25.189138 C 66.731073,26.18804 67.090678,27.040437 67.050722,27.080393 C 67.010766,27.120349 66.091776,26.614238 64.999642,25.961622 C 62.908607,24.696346 60.604472,23.497663 60.444648,23.564257 C 60.391373,23.590894 61.297044,25.57538 62.455771,27.999383 L 64.586763,32.394553 L 64.520169,33.393456 C 64.453576,34.632095 64.040696,35.524447 63.161662,36.296932 C 62.242672,37.109372 61.829792,37.255878 60.511241,37.255878 C 59.112778,37.255878 58.16715,36.962867 57.181567,36.21702 C 56.142708,35.417898 55.942928,35.337986 55.769785,35.644316 C 55.570004,36.030558 55.60996,36.403481 55.956246,37.615483 C 56.622181,39.866343 57.368028,40.985113 58.979591,42.183796 C 60.258186,43.142744 61.350319,43.515666 62.748782,43.515666 C 63.80096,43.502347 65.572346,43.222654 66.011863,42.996237 C 66.344831,42.809776 66.344831,42.823093 66.091776,43.422434 C 65.718852,44.328107 64.653356,45.433558 63.654454,45.952987 C 62.815376,46.405825 62.628914,46.44578 61.669968,46.44578 C 60.41801,46.44578 59.592251,46.219361 58.353612,45.553426 C 57.847502,45.273735 57.194885,44.940768 56.915193,44.807581 L 56.409082,44.567843 L 56.502313,45.31369 C 56.595544,46.139451 57.181567,47.950791 57.607765,48.776552 C 58.073919,49.695541 59.099459,50.974137 59.818669,51.506885 C 60.204911,51.799897 60.924121,52.186139 61.44355,52.385919 C 62.229353,52.692248 62.562321,52.745523 63.707729,52.732206 C 65.052917,52.732206 66.478018,52.425874 67.410327,51.946401 L 67.796569,51.74662 L 67.703338,52.306007 C 67.58347,53.065174 66.957491,54.41036 66.45138,54.983066 C 64.826499,56.834364 61.843111,56.661222 58.446843,54.516911 L 57.900776,54.170624 L 57.900776,54.756647 C 57.900776,55.515813 58.460162,57.420386 58.979591,58.472563 C 59.259284,59.01863 59.738757,59.631291 60.431329,60.297225 C 61.337,61.17626 61.576737,61.336083 62.509046,61.655734 C 64.227158,62.255075 66.105094,62.161843 67.796569,61.402676 C 68.80879,60.949841 68.875383,61.016435 69.274944,62.974284 C 69.794374,65.464879 71.006375,70.139743 72.298289,74.654781 C 74.522511,82.419583 75.588007,85.309739 78.211791,90.597263 C 80.848893,95.911423 81.861113,97.309886 86.096461,101.452 C 87.401692,102.74392 88.920023,104.12906 89.46609,104.54194 C 91.170883,105.82053 94.180909,107.67184 96.231988,108.69737 C 99.415159,110.29562 105.22211,112.50652 107.28651,112.90608 L 108.11227,113.07922 L 108.11227,114.29123 C 108.11227,116.51545 107.64611,118.36675 106.82035,119.45888 C 106.24765,120.20473 104.88914,121.21695 104.09002,121.50996 C 103.78369,121.61651 102.77147,121.77634 101.85248,121.85625 L 100.18764,122.01607 L 99.761443,121.58987 C 99.415159,121.23027 99.242014,121.16368 98.735905,121.16368 C 98.416257,121.16368 98.109925,121.21695 98.06997,121.28354 C 98.030012,121.33682 97.44399,121.44337 96.764736,121.49664 C 95.193131,121.61651 94.314096,121.94948 93.421745,122.76192 C 92.516072,123.58768 92.009962,124.51999 91.970005,125.39902 C 91.956688,125.77195 91.970005,126.11823 92.009962,126.15819 C 92.063237,126.19814 92.529391,125.98504 93.04882,125.67871 C 94.207547,125.01278 95.765833,124.49335 96.618232,124.49335 C 97.111023,124.49335 97.297484,124.55994 97.550541,124.83964 L 97.883509,125.19924 L 98.043331,124.87959 C 98.176518,124.61322 98.296386,124.55994 98.842453,124.55994 C 99.255333,124.55994 99.521707,124.62654 99.561662,124.71977 C 99.588301,124.813 99.508388,124.89291 99.361882,124.89291 C 99.028914,124.89291 98.256431,125.3857 98.256431,125.5988 C 98.256431,125.71867 97.870189,125.85186 97.097703,125.98504 C 95.166492,126.33133 94.460602,126.6643 93.381787,127.74311 C 92.609304,128.5156 92.382885,128.83525 92.209743,129.42127 C 91.970005,130.22039 91.93005,131.28589 92.12983,131.28589 C 92.209743,131.28589 92.569346,131.04615 92.942271,130.75314 C 94.980031,129.14157 97.430671,128.82193 98.882411,129.96733 C 99.654894,130.59331 100.13437,130.46013 100.30751,129.59441 C 100.4407,128.99507 100.6538,128.8752 101.54615,128.91516 C 102.5051,128.96843 102.63828,129.24813 101.8658,129.58109 C 101.45292,129.74092 101.30641,129.90074 101.2265,130.23371 C 101.11995,130.60663 100.98676,130.71318 99.974543,131.1527 C 97.24421,132.33806 96.378494,133.39024 96.658187,135.20158 C 96.804694,136.20048 96.9512,136.22712 97.790277,135.428 C 98.602718,134.65551 99.335246,134.28259 100.28087,134.14941 C 101.18654,134.01622 101.73261,134.14941 102.42518,134.68215 C 103.25094,135.30813 103.62387,135.29481 104.05006,134.61556 C 104.63609,133.68325 105.18215,133.59002 105.91468,134.26927 C 106.62057,134.94853 107.16664,134.98848 108.43192,134.48237 C 110.66946,133.60334 112.01464,132.75094 113.35983,131.3658 C 115.63733,129.00839 117.07575,126.14487 117.63514,122.82851 C 117.755,122.09598 117.92815,121.45669 118.00806,121.40341 C 118.2478,121.25691 121.13795,121.28354 122.29668,121.44337 C 122.86938,121.52328 123.81501,121.76302 124.40103,121.97612 C 124.98706,122.18922 125.49317,122.33572 125.51981,122.30908 C 125.65299,122.1759 124.53422,120.5377 123.90824,119.92504 C 123.53532,119.57875 122.81611,119.07264 122.28336,118.81958 C 121.47092,118.4067 121.12464,118.32679 119.95259,118.22024 C 119.19343,118.16697 118.36766,118.11369 118.14125,118.10037 L 117.70173,118.10037 L 117.70173,116.12921 L 117.70173,114.17136 L 120.57857,114.22463 C 122.16349,114.25127 124.21457,114.198 125.14688,114.11808 C 131.77959,113.50542 135.97498,112.5598 140.30356,110.68186 C 140.41011,110.6419 140.56994,110.96155 140.76972,111.60085 C 141.03609,112.43993 141.07604,112.81285 141.04941,114.41109 C 141.02277,116.03598 140.9695,116.36894 140.62321,117.4078 C 139.904,119.55211 138.78523,121.08376 137.09375,122.21585 C 135.349,123.3879 134.01714,123.78746 132.19247,123.65427 C 131.20689,123.58768 131.0737,123.54772 130.84729,123.24139 C 130.2879,122.46891 129.42218,122.40231 128.62306,123.08157 C 128.33005,123.32131 128.05036,123.42785 127.70407,123.42785 C 125.46653,123.42785 123.42877,124.7464 122.78947,126.61102 C 122.69624,126.8774 122.6696,127.11713 122.7362,127.18373 C 122.80279,127.25032 123.20235,127.18373 123.64187,127.0239 C 124.62745,126.67762 125.69295,126.55775 126.70517,126.69093 C 127.39774,126.77085 127.55757,126.85076 127.98377,127.31691 C 128.50319,127.8763 128.92939,127.92957 129.06258,127.43678 C 129.26236,126.67762 130.47436,126.58439 130.99379,127.27696 L 131.27348,127.6632 L 130.88724,127.82302 C 130.67414,127.91626 130.42109,128.06276 130.34117,128.16931 C 130.23463,128.3025 129.82175,128.35577 128.75625,128.35577 C 126.59862,128.35577 125.22679,128.82193 123.72178,130.07388 C 122.84275,130.80641 122.49646,131.41907 122.76284,131.75204 C 122.98925,132.03173 123.32222,132.00509 124.41435,131.60553 C 125.5864,131.17934 126.87831,131.05947 127.98377,131.28589 C 129.03594,131.48567 129.46214,131.69877 130.24794,132.43129 C 131.1403,133.27037 131.48658,133.2171 131.80623,132.19156 C 132.01933,131.53894 132.44553,131.39243 133.60425,131.59221 C 134.66975,131.76536 135.70861,131.59221 137.54659,130.92628 C 141.07604,129.62105 142.82079,128.449 145.12493,125.82522 C 145.69763,125.18592 145.51117,125.65208 144.76533,126.82412 C 144.43236,127.33023 143.69983,128.20927 143.15376,128.76865 C 141.51556,130.39353 139.97059,131.32584 137.61318,132.07169 L 136.29463,132.49789 L 135.7752,132.20488 C 134.88285,131.71208 133.67085,132.01841 133.17806,132.88413 C 133.00491,133.17714 132.84509,133.27037 132.33898,133.32365 C 131.43331,133.4302 129.7152,134.13609 128.95603,134.72211 C 127.93049,135.50791 127.51761,136.18717 127.45102,137.21271 C 127.42438,137.69218 127.42438,138.07842 127.47765,138.07842 C 127.51761,138.07842 128.10363,137.77209 128.75625,137.41249 C 130.8606,136.25376 132.29902,136.2138 134.11037,137.26598 C 135.50883,138.07842 135.76189,138.09174 136.22804,137.30594 C 137.14703,135.76097 138.38567,135.30813 139.14483,136.24044 L 139.37125,136.53345 L 140.55662,136.02734 C 143.27363,134.86861 145.8175,133.13718 147.30919,131.43239 C 149.60001,128.80861 151.03843,124.54662 151.18494,119.93835 L 151.23821,118.44666 L 152.25043,118.07374 C 154.67444,117.1947 156.59233,117.15475 159.4958,117.90059 C 160.38816,118.12701 161.12069,118.27352 161.12069,118.23356 C 161.12069,117.98051 160.12178,116.80846 159.57572,116.4089 C 157.41809,114.85061 154.31483,114.14472 152.1572,114.70411 C 151.01179,114.99712 151.05175,115.02375 150.9452,113.86503 C 150.81201,112.43993 150.11944,108.35109 149.81311,107.27227 L 149.57337,106.39324 L 150.58559,105.52752 C 152.5834,103.82273 156.67224,99.667297 157.61787,98.388702 C 159.74886,95.471907 161.78662,91.782627 162.75888,89.092251 C 163.66456,86.575015 164.77001,82.086616 165.0497,79.769163 C 165.12961,79.196457 165.18289,79.07659 165.35603,79.129864 C 165.84882,79.27637 169.3916,79.875711 170.51037,80.008898 C 174.27956,80.421779 176.43719,79.822437 178.27517,77.811313 C 179.64699,76.306301 180.41948,74.428365 180.24634,72.989943 C 180.07319,71.471612 179.42058,70.27293 178.66141,70.033194 C 177.19635,69.580359 175.55815,69.806775 169.325,71.298471 C 166.1152,72.070954 165.31608,72.150867 165.31608,71.684712 C 165.31608,71.484932 165.48922,71.365064 166.0486,71.178603 C 172.98765,68.94106 175.13196,68.195212 176.27736,67.595871 C 178.08871,66.650245 179.12757,65.877759 179.83346,64.95877 C 180.73913,63.786725 181.07209,63.027559 181.31183,61.629095 C 181.49829,60.576919 181.49829,60.190677 181.37843,59.338278 C 181.07209,57.367112 180.59262,56.381529 179.50049,55.515813 C 177.71578,54.104031 176.22409,54.663417 168.33942,59.617971 C 165.66236,61.309447 163.54469,62.548085 163.43814,62.50813 C 163.15845,62.401579 163.21172,62.108569 163.55801,61.802237 C 163.71783,61.655734 166.34162,59.764478 169.37828,57.606847 C 172.41494,55.44922 175.27846,53.318228 175.71798,52.87871 C 177.52932,51.094005 178.55486,49.362574 179.35398,46.778747 C 180.47275,43.102786 180.40616,40.732059 179.14088,38.547792 C 177.91556,36.443437 177.16972,36.030558 175.41165,36.470075 C 174.67912,36.656537 174.01318,37.295834 171.0298,40.652146 C 167.66017,44.447975 165.94206,46.592286 163.98421,49.442487 C 162.10627,52.186139 160.1351,54.916472 159.74886,55.329352 C 159.09624,56.035242 158.4969,55.808823 158.81655,54.983066 C 158.88315,54.783285 160.09514,52.971942 161.50693,50.947498 C 162.90539,48.923058 164.6235,46.365867 165.31608,45.260416 C 165.99533,44.154962 167.36715,42.077248 168.35274,40.625508 C 169.33832,39.17377 170.7501,37.02946 171.48263,35.844096 C 173.98655,31.835168 174.2396,31.089321 174.2396,27.999383 C 174.2396,26.307908 174.18633,25.695248 173.98655,25.002676 C 173.60031,23.670806 172.92105,22.445486 172.09529,21.539814 C 171.25622,20.647462 170.6036,20.261219 169.01867,19.728472 C 168.15296,19.43546 167.85995,19.395504 167.1141,19.475416 C 166.03528,19.581966 164.98311,20.074758 164.45036,20.714055 C 163.8377,21.459902 162.47919,24.35006 161.12069,27.799602 C 159.76218,31.275783 159.30934,32.474465 155.58011,42.649951 C 154.15501,46.525692 152.91637,49.788773 152.80982,49.882003 C 152.49017,50.201654 152.06397,49.855367 152.06397,49.269345 C 152.06397,48.323717 153.42248,43.888588 157.19167,32.594334 C 159.26939,26.334546 161.10737,20.700737 161.26719,20.074758 C 162.1995,16.345522 160.96086,14.1213 157.24494,12.802749 C 156.39255,12.496419 156.01963,12.443144 154.59452,12.429825 C 153.03623,12.416506 152.87641,12.443144 152.19716,12.776111 C 150.77206,13.482002 149.82643,14.520861 149.28036,16.012555 C 148.98735,16.798358 147.12273,25.815117 146.01728,31.835168 C 145.25812,35.977283 144.71205,39.879663 144.13935,45.500152 C 144.0328,46.565647 143.88629,47.484637 143.80638,47.56455 C 143.71315,47.657782 143.59328,47.657782 143.43346,47.56455 C 143.23368,47.431363 143.20704,47.138353 143.22036,44.767623 C 143.22036,43.302566 143.28695,41.5445 143.36686,40.851926 C 143.44677,40.159353 144.12603,34.698688 144.85855,28.718593 C 146.27034,17.357743 146.37689,15.919324 145.99064,14.614092 C 145.59108,13.282222 144.45899,12.016945 143.30027,11.630703 C 142.64765,11.404285 141.31578,11.271098 140.67648,11.377648 z M 108.24545,122.68201 C 108.24545,123.13484 106.18106,124.58658 104.98237,124.98614 C 103.95683,125.33243 101.26646,125.51889 100.74703,125.27915 C 100.54725,125.18592 100.38742,125.07937 100.38742,125.0261 C 100.38742,124.89291 101.45292,124.75972 102.53173,124.75972 C 103.02452,124.75972 103.75705,124.69313 104.1433,124.61322 C 105.03565,124.42676 106.68717,123.601 107.43301,122.97502 C 108.04567,122.45559 108.24545,122.389 108.24545,122.68201 z M 141.68871,123.3879 C 141.23587,124.25361 140.80967,124.7464 139.79745,125.51889 C 137.59986,127.19704 134.54988,128.19595 132.5654,127.90294 C 131.43331,127.72979 131.80623,127.5167 134.21692,126.97063 C 136.94725,126.34465 139.79745,124.91955 141.20923,123.45449 C 141.56884,123.08157 141.88849,122.80187 141.91512,122.82851 C 141.94176,122.84183 141.83521,123.09489 141.68871,123.3879 z M 111.70832,124.85296 C 111.70832,126.42456 107.48629,129.54114 105.02233,129.79419 C 104.2898,129.86078 103.45072,129.7276 103.45072,129.54114 C 103.45072,129.28808 104.2898,128.91516 105.06229,128.83525 C 106.02123,128.72869 107.45965,128.12935 108.71161,127.33023 C 109.80374,126.62434 110.34981,126.13155 111.00243,125.25252 C 111.4819,124.5999 111.70832,124.46671 111.70832,124.85296 z "
       style="fill:#d40000"
       id="path2083" />
    <path
       d="M 77.679043,28.638686 C 77.346075,28.825148 77.146295,29.038247 77.146295,29.198071 C 77.146295,29.344577 77.519218,29.757457 78.065285,30.223611 L 78.997594,31.009414 L 79.570298,30.103743 C 80.515925,28.638686 80.489288,28.745236 79.95654,28.532136 C 79.250649,28.239125 78.305022,28.279081 77.679043,28.638686 z "
       id="path1887" />
    <path
       d="M 83.472676,42.649956 C 82.820061,43.315891 81.821158,43.782046 81.048673,43.782046 C 80.276189,43.782046 79.65021,43.54231 78.931,42.969604 C 78.31834,42.476814 78.265066,42.610001 78.797813,43.34253 C 79.423792,44.208245 80.049771,44.514574 81.141904,44.514574 C 82.127487,44.501255 82.686874,44.301474 83.219622,43.742091 C 83.512631,43.435759 84.072018,42.330308 83.978786,42.237076 C 83.938831,42.21044 83.712412,42.396902 83.472676,42.649956 z "
       id="path1891" />
    <path
       d="M 75.095215,44.341432 C 73.843258,45.77985 72.071871,46.046224 70.726682,44.980728 C 70.247209,44.607806 70.193935,44.740993 70.620133,45.287057 C 71.632354,46.632246 73.896533,46.645566 75.041941,45.340334 C 75.414864,44.914135 75.854381,43.848639 75.721194,43.702133 C 75.694557,43.688814 75.414864,43.968507 75.095215,44.341432 z "
       id="path1992" />
    <path
       d="M 81.621378,50.201659 C 80.928805,51.213878 80.329464,51.759945 79.543661,52.119551 C 78.558077,52.572386 77.625768,52.519112 76.440404,51.919771 C 75.987568,51.693352 75.588007,51.50689 75.548051,51.50689 C 75.374908,51.50689 76.147393,52.479154 76.560272,52.785486 C 77.425988,53.424782 78.398252,53.518014 79.530342,53.105134 C 80.475969,52.745528 81.368322,51.946406 81.701291,51.147284 C 81.967665,50.507988 82.180762,49.642273 82.074213,49.642273 C 82.047575,49.642273 81.847794,49.895327 81.621378,50.201659 z "
       id="path1895" />
    <path
       d="M 135.349,52.572386 C 133.71081,52.931992 132.51212,54.17063 132.15252,55.902061 L 132.04597,56.368215 L 132.91168,55.48918 C 134.137,54.237223 135.00272,53.837662 136.48109,53.837662 C 137.77301,53.837662 138.21252,54.010804 139.42453,55.023026 C 139.82409,55.355993 140.15706,55.569093 140.18369,55.5025 C 140.27692,55.262764 139.54439,54.064081 139.01165,53.584608 C 138.01274,52.678935 136.61428,52.292693 135.349,52.572386 z "
       id="path1897" />
    <path
       d="M 146.27034,52.971947 C 145.12493,53.211683 144.3924,53.717795 143.68651,54.756652 C 143.3269,55.276081 142.95398,56.168435 143.04721,56.261667 C 143.07385,56.288302 143.44677,55.995293 143.88629,55.609048 C 145.00506,54.636784 145.80418,54.303817 147.0961,54.263862 C 148.50788,54.237223 149.33364,54.636784 150.46573,55.862106 C 151.25153,56.727821 151.26485,56.727821 151.18494,56.288302 C 150.75874,54.104036 148.41465,52.505793 146.27034,52.971947 z "
       id="path1899" />
    <path
       d="M 88.666969,56.82105 C 88.027672,57.726723 87.188593,58.339381 86.256284,58.5658 C 85.49712,58.752261 84.471579,58.57912 83.512631,58.099646 C 83.166347,57.926504 82.860016,57.793317 82.83338,57.833272 C 82.686874,57.979778 84.085337,59.231735 84.697998,59.498109 C 86.123097,60.11077 87.841208,59.431516 88.573737,57.95314 C 88.880068,57.353798 89.332903,56.12848 89.279629,56.061886 C 89.252991,56.035248 88.973298,56.381534 88.666969,56.82105 z "
       id="path1901" />
    <path
       d="M 78.651308,59.817757 C 76.973152,61.948749 75.441502,62.175168 73.270554,60.630198 C 72.298289,59.924309 72.298289,60.030857 73.257235,61.162946 C 74.33605,62.401584 75.534732,62.801145 76.973152,62.374948 C 77.825548,62.13521 78.531439,61.509233 78.997594,60.590243 C 79.317243,59.950944 79.663529,58.845493 79.570298,58.752261 C 79.543661,58.725626 79.130781,59.205097 78.651308,59.817757 z "
       id="path1903" />
    <path
       d="M 153.46243,60.337186 C 152.07729,60.80334 151.41136,61.362727 150.81201,62.54809 C 150.519,63.107477 150.25263,64.026466 150.35918,64.026466 C 150.38581,64.026466 150.81201,63.626905 151.3048,63.147432 C 152.51681,61.975387 153.12947,61.709014 154.66112,61.695694 C 156.24604,61.695694 156.83206,62.002023 158.31044,63.58695 C 159.3493,64.705721 159.38925,64.745676 159.30934,64.29284 C 158.86983,61.975387 157.16503,60.390463 154.92749,60.230637 C 154.32815,60.190683 153.80872,60.230637 153.46243,60.337186 z "
       id="path1905" />
    <path
       d="M 127.75735,61.056398 C 126.95823,61.376046 125.89273,62.241761 125.42657,62.934332 C 124.82723,63.840005 124.90715,64.039786 125.62636,63.373851 C 126.26565,62.76119 127.39774,62.041981 127.99708,61.868836 C 128.30341,61.775607 128.92939,61.709014 129.38223,61.709014 C 130.06148,61.722333 130.39445,61.815562 131.20689,62.201804 C 132.12588,62.654642 132.60535,63.080838 133.37784,64.106379 L 133.68417,64.492621 L 133.41779,63.773412 C 132.925,62.401584 132.01933,61.416001 130.90056,61.029759 C 130.12807,60.763385 128.44992,60.776705 127.75735,61.056398 z "
       id="path1907" />
    <path
       d="M 140.91622,61.083034 C 140.5433,61.202901 140.02387,61.469275 139.77081,61.669056 C 139.30466,62.028662 138.14593,63.613586 138.2658,63.733454 C 138.30576,63.760092 138.59877,63.560312 138.93173,63.2673 C 141.60879,60.909892 144.64545,61.349408 146.3902,64.346115 C 146.6699,64.838908 146.93627,65.21183 146.94959,65.185194 C 147.06946,65.078643 146.70985,63.68018 146.44348,63.120796 C 146.04392,62.321674 145.01838,61.44264 144.12603,61.109672 C 143.20704,60.763385 141.86185,60.750066 140.91622,61.083034 z "
       id="path1909" />
    <path
       d="M 79.010913,67.356141 C 79.34388,68.568143 80.662431,69.447178 81.927707,69.313991 C 82.939928,69.207439 83.672457,68.794559 84.138611,68.062031 C 84.36503,67.715747 84.511534,67.422734 84.484898,67.382779 C 84.44494,67.356141 84.218524,67.476009 83.978786,67.66247 C 82.873335,68.514869 81.474872,68.781243 80.462651,68.355043 C 80.196277,68.248495 79.743441,67.902208 79.45043,67.595876 C 78.997594,67.103086 78.931,67.076448 79.010913,67.356141 z "
       id="path1911" />
    <path
       d="M 96.338539,68.90111 C 95.552737,72.124234 93.754712,73.243006 90.691412,72.430565 C 90.158664,72.297378 89.732464,72.217466 89.732464,72.27074 C 89.732464,72.310698 89.932245,72.48384 90.17198,72.643665 C 92.076556,73.935577 94.034403,73.842348 95.49946,72.377291 C 96.311901,71.56485 96.644868,70.685815 96.671507,69.313991 C 96.684826,68.674691 96.671507,68.115308 96.631549,68.088669 C 96.591594,68.048714 96.471726,68.421637 96.338539,68.90111 z "
       id="path1913" />
    <path
       d="M 127.94381,68.341724 C 127.61084,68.421637 127.07809,68.661372 126.74513,68.847836 C 126.13246,69.220759 125.14688,70.153067 125.3733,70.153067 C 125.45321,70.153067 126.0126,69.926648 126.63858,69.660275 C 127.63748,69.220759 127.87721,69.167484 128.88944,69.167484 C 129.82175,69.154165 130.14139,69.220759 130.68746,69.487133 C 131.5665,69.913332 132.73854,71.098696 133.20469,72.017685 L 133.5643,72.750214 L 133.51103,72.05764 C 133.43111,70.992144 132.76518,69.740187 131.93942,69.140846 C 130.75405,68.27513 129.289,67.982121 127.94381,68.341724 z "
       id="path1915" />
    <path
       d="M 153.75545,68.421637 C 152.46353,68.754604 151.53122,69.593681 150.99847,70.93887 C 150.57228,72.017685 150.7321,72.177511 151.3048,71.245202 C 152.23711,69.740187 153.23602,69.167484 154.92749,69.167484 C 156.05958,69.167484 156.93861,69.62032 158.31044,70.898915 L 159.44253,71.951092 L 159.00301,71.125331 C 158.09734,69.420539 156.69888,68.434956 155.074,68.341724 C 154.63448,68.315088 154.03514,68.355043 153.75545,68.421637 z "
       id="path1917" />
    <path
       d="M 139.85072,69.953287 C 139.07824,70.352848 137.97279,71.458299 137.55991,72.257421 C 137.40008,72.563752 137.30685,72.816807 137.34681,72.816807 C 137.38676,72.816807 137.87956,72.457201 138.45226,72.004366 C 139.71754,71.005464 140.30356,70.699135 141.14264,70.592583 C 142.52778,70.432761 144.29917,71.285157 145.21816,72.550433 C 145.48453,72.923356 145.72427,73.203049 145.75091,73.176413 C 145.77754,73.149774 145.71095,72.816807 145.6044,72.443885 C 145.29807,71.444982 144.51227,70.52599 143.52668,70.0332 C 142.80748,69.673594 142.55442,69.62032 141.60879,69.62032 C 140.71644,69.62032 140.41011,69.673594 139.85072,69.953287 z "
       id="path1919" />
    <path
       d="M 106.20769,74.574876 C 106.42079,76.199756 106.32756,77.265252 105.90136,78.104331 C 105.26207,79.356288 104.12998,80.022223 101.78589,80.528333 C 100.56056,80.794707 100.74703,80.941213 102.35859,80.941213 C 103.89024,80.941213 105.48848,80.301916 106.15442,79.436201 C 106.9269,78.41066 107.11337,77.877912 107.10005,76.679229 C 107.10005,75.680327 107.04677,75.413953 106.67385,74.64147 C 106.44743,74.148677 106.22101,73.749116 106.18106,73.749116 C 106.12778,73.749116 106.1411,74.122038 106.20769,74.574876 z "
       id="path1921" />
    <path
       d="M 114.9048,73.948896 C 114.9048,73.988851 115.1179,74.308502 115.37096,74.668106 C 116.1834,75.786876 116.42313,76.479449 116.40982,77.678132 C 116.40982,78.903453 116.19672,79.489475 115.47751,80.288597 C 114.79826,81.034445 114.35874,81.314135 112.98691,81.90016 L 111.77491,82.39295 L 112.84041,82.40627 C 113.6928,82.40627 114.03909,82.339676 114.61179,82.073302 C 115.53078,81.647103 116.68951,80.475058 117.12903,79.52943 C 117.76832,78.130967 117.3954,75.946701 116.32991,74.84125 C 115.94366,74.42837 114.9048,73.789071 114.9048,73.948896 z "
       id="path1923" />
    <path
       d="M 83.272896,77.09211 C 82.487093,77.891232 81.594739,78.304112 80.609156,78.317428 C 79.703485,78.330747 79.503704,78.237518 78.265066,77.331845 C 77.772274,76.972242 77.332757,76.679229 77.292801,76.679229 C 77.09302,76.679229 77.70568,77.531626 78.291703,78.077693 C 79.463748,79.169827 80.409376,79.476156 81.568104,79.143189 C 82.820061,78.783583 83.485996,78.117648 83.75237,76.972242 C 83.805644,76.745823 83.832282,76.546042 83.818963,76.546042 C 83.805644,76.546042 83.552589,76.785778 83.272896,77.09211 z "
       id="path1925" />
    <path
       d="M 131.95274,76.732504 C 131.95274,76.852371 133.67085,77.678132 134.74966,78.064373 C 137.49332,79.049957 141.30246,79.835762 145.20484,80.222004 C 149.44019,80.634884 153.78208,80.235323 156.63228,79.196463 C 157.05848,79.03664 157.37813,78.890134 157.35149,78.863495 C 157.32486,78.83686 156.99189,78.863495 156.60565,78.943408 C 156.21941,79.010002 154.90085,79.196463 153.68885,79.356288 C 149.97293,79.835762 144.52559,79.569388 139.74418,78.663715 C 137.57323,78.264154 133.31125,77.172022 132.15252,76.732504 C 132.04597,76.679229 131.95274,76.692549 131.95274,76.732504 z "
       id="path1927" />
    <path
       d="M 95.352956,78.730308 C 95.059944,80.6482 94.180909,82.033347 92.849039,82.685963 C 92.302972,82.952337 91.996643,83.005611 91.064334,82.992292 C 90.118706,82.992292 89.705826,82.912379 88.573737,82.499502 C 87.814572,82.246444 87.201912,82.046664 87.201912,82.086621 C 87.201912,82.206489 88.080946,82.952337 88.600375,83.271985 C 89.239671,83.658227 90.611499,84.004513 91.543808,84.004513 C 93.4617,84.004513 95.099899,82.725918 95.539417,80.847981 C 95.725878,80.035542 95.752517,78.756947 95.606011,78.077693 C 95.526098,77.744725 95.486143,77.851274 95.352956,78.730308 z "
       id="path1929" />
    <path
       d="M 126.62526,82.659324 C 126.62526,82.845785 128.74293,83.751459 130.75405,84.417393 C 133.1381,85.203196 136.50773,85.935725 139.41121,86.308647 C 142.27473,86.668253 148.12164,86.708208 149.20045,86.37524 L 149.86639,86.162143 L 148.42797,86.148824 C 144.87187,86.122186 139.91732,85.68267 136.72083,85.123283 C 134.54988,84.750361 129.10254,83.365217 126.7984,82.60605 C 126.70517,82.566095 126.62526,82.592731 126.62526,82.659324 z "
       id="path1931" />
    <path
       d="M 105.51512,86.37524 C 105.51512,88.106671 105.5018,88.239858 105.1422,88.972387 C 104.9291,89.398586 104.42299,90.104476 104.02343,90.530675 C 103.15771,91.476303 102.55837,91.729358 100.45402,92.049006 C 99.654894,92.168874 98.97564,92.302061 98.949004,92.3287 C 98.815818,92.461886 100.12105,92.674986 101.06668,92.674986 C 102.74483,92.674986 103.78369,92.288745 104.87583,91.289842 C 106.30092,89.971289 106.70049,87.853616 105.95464,85.429615 C 105.80813,84.936822 105.64831,84.537261 105.59503,84.537261 C 105.55508,84.537261 105.51512,85.363022 105.51512,86.37524 z "
       id="path1933" />
    <path
       d="M 121.49756,88.346409 C 121.89712,88.666058 123.42877,89.411905 124.5875,89.87806 C 128.09031,91.276523 133.27129,92.435248 137.74637,92.834809 C 140.59657,93.087866 144.25921,93.034589 145.87078,92.72826 L 147.20265,92.461886 L 143.6066,92.381974 C 136.02826,92.195513 130.34117,91.209929 123.82833,88.972387 C 121.93707,88.319771 121.20455,88.11999 121.49756,88.346409 z "
       id="path1935" />
    <path
       d="M 92.742491,89.611686 C 92.116511,91.329797 90.571541,93.047909 89.213036,93.527382 C 88.001034,93.953582 86.18969,93.700524 84.631404,92.901402 C 83.485996,92.302061 83.472676,92.302061 84.032063,92.888086 C 85.803449,94.726065 88.627014,95.152265 90.531586,93.873669 C 92.023282,92.874767 92.83572,91.569533 93.0355,89.891379 C 93.102094,89.371947 93.115413,88.932432 93.062139,88.932432 C 93.022184,88.932432 92.875678,89.23876 92.742491,89.611686 z "
       id="path1937" />
    <path
       d="M 115.9703,93.327602 C 117.06243,94.179998 120.51198,95.671693 123.36218,96.497451 C 131.15361,98.774949 136.40118,99.267742 142.87407,98.322114 C 144.15266,98.135652 145.27143,97.949191 145.33803,97.922553 C 145.49785,97.84264 142.94066,97.949191 140.45007,98.122333 C 137.51995,98.335433 133.08483,98.002465 129.62196,97.309892 C 126.09251,96.604002 120.49866,94.925846 117.24889,93.593976 C 115.78384,93.007954 115.47751,92.94136 115.9703,93.327602 z "
       id="path1939" />
    <path
       d="M 104.87583,97.722772 C 104.83587,97.829321 104.67604,98.428662 104.52954,99.041323 C 104.15661,100.57297 103.81033,101.22559 102.87802,102.1579 C 101.75925,103.27667 101.23982,103.47645 99.481752,103.46313 C 98.695947,103.46313 97.697045,103.40986 97.257529,103.3699 L 96.458407,103.28999 L 96.884606,103.56968 C 98.296386,104.46203 100.85358,104.63518 102.292,103.92929 C 103.18435,103.50309 104.09002,102.53082 104.59613,101.47865 C 104.90246,100.85267 104.98237,100.47974 105.02233,99.454203 C 105.07561,98.095695 105.02233,97.376485 104.87583,97.722772 z "
       id="path1941" />
    <path
       d="M 116.42313,100.17341 C 116.66287,100.85267 116.79606,101.75834 116.80938,102.85047 C 116.80938,103.87601 116.76942,104.16902 116.47641,104.78168 C 115.79716,106.26006 114.26551,107.35219 112.04128,107.97817 C 111.45526,108.138 110.94915,108.31114 110.90919,108.33778 C 110.86924,108.37773 111.46858,108.37773 112.22774,108.33778 C 113.46639,108.27118 113.70612,108.21791 114.57184,107.79171 C 115.69061,107.24564 116.70283,106.30001 117.16898,105.3677 C 117.46199,104.795 117.50195,104.55526 117.48863,103.31663 C 117.47531,101.78498 117.16898,100.65289 116.6096,100.17341 C 116.32991,99.920357 116.32991,99.920357 116.42313,100.17341 z "
       id="path1943" />
    <path
       d="M 128.15691,100.85267 C 128.70298,102.26445 128.7962,102.77056 128.80952,104.24893 C 128.82284,105.56748 128.78289,105.88713 128.50319,106.55307 C 127.95713,107.88494 126.53203,108.95043 124.22789,109.73624 L 122.96262,110.17575 L 123.9482,110.21571 C 125.14688,110.26899 126.35888,109.93602 127.42438,109.25677 C 128.29009,108.7107 128.90276,107.99149 129.39555,106.93931 C 129.7152,106.26006 129.75515,106.03364 129.75515,104.6485 C 129.75515,103.18344 129.72851,103.06357 129.32895,102.25113 C 128.92939,101.42537 127.90385,100.22669 128.15691,100.85267 z "
       id="path1945" />
  </g>
  <path
     d="M 249.55062,1.4395041 L 1.449569,1.4395041 L 1.449569,174.9361 C 0.68232904,268.65698 81.739009,302.75585 125.5001,302.75585 C 168.49395,302.75585 250.31785,268.65698 249.55062,174.9361 L 249.55062,1.4395041 z "
     style="fill:none;fill-opacity:0;stroke:#000000;stroke-width:1.88832211;stroke-linecap:round"
     id="Frame" />
</svg>
