<?xml version="1.0" encoding="UTF-8" standalone="no"?>
<!-- Created with Inkscape (http://www.inkscape.org/) -->
<svg
   xmlns:dc="http://purl.org/dc/elements/1.1/"
   xmlns:cc="http://web.resource.org/cc/"
   xmlns:rdf="http://www.w3.org/1999/02/22-rdf-syntax-ns#"
   xmlns:svg="http://www.w3.org/2000/svg"
   xmlns="http://www.w3.org/2000/svg"
   xmlns:xlink="http://www.w3.org/1999/xlink"
   version="1.0"
   width="251"
   height="304.20001"
   id="svg4166">
  <defs
     id="defs4168" />
  <metadata
     id="metadata1880"><rdf:RDF><cc:Work
         rdf:about=""><dc:title>Tyreso kommunvapen</dc:title><dc:date>29-10-2007</dc:date><dc:creator><cc:Agent><dc:title>Lokal_Profil</dc:title></cc:Agent></dc:creator><cc:license
         rdf:resource="http://creativecommons.org/licenses/by-sa/2.5/" /><dc:rights><cc:Agent><dc:title>cc-by-sa-2.5</dc:title></cc:Agent></dc:rights><dc:format>image/svg+xml</dc:format><dc:type
         rdf:resource="http://purl.org/dc/dcmitype/StillImage" /></cc:Work><cc:License
         rdf:about="http://creativecommons.org/licenses/by-sa/2.5/"><cc:permits
         rdf:resource="http://web.resource.org/cc/Reproduction" /><cc:permits
         rdf:resource="http://web.resource.org/cc/Distribution" /><cc:requires
         rdf:resource="http://web.resource.org/cc/Notice" /><cc:requires
         rdf:resource="http://web.resource.org/cc/Attribution" /><cc:permits
         rdf:resource="http://web.resource.org/cc/DerivativeWorks" /><cc:requires
         rdf:resource="http://web.resource.org/cc/ShareAlike" /></cc:License></rdf:RDF>
  </metadata>
  <path
     d="M 249.55058,1.4395041 L 1.4495291,1.4395041 L 1.4495291,174.9361 C 0.68228908,268.65698 81.738969,302.75585 125.50006,302.75585 C 168.49391,302.75585 250.31781,268.65698 249.55058,174.9361 L 249.55058,1.4395041 z "
     style="fill:#ffcd50;stroke:none"
     id="Shield" />
  <path
     d="M 248.80587,2.2903512 L 248.80587,48.879512 C 239.29757,53.49186 226.98448,60.843549 218.02597,71.149131 C 201.33997,90.344177 213.06353,100.53104 196.37754,119.7261 C 179.69153,138.92114 167.96525,128.73303 151.27923,147.92807 C 134.59322,167.12312 146.31679,177.30999 129.6308,196.50503 C 112.9448,215.70008 101.21851,205.51195 84.532492,224.70701 C 67.846482,243.90207 62.915112,273.28397 62.915122,273.28397 C 62.915122,273.28397 61.253542,276.59074 58.566802,281.14201 C 37.96482,268.18628 19.37666,248.60533 9.555,220.94881 C 22.0366,203.96359 12.74488,193.86428 28.37702,175.88156 C 45.06303,156.6865 56.78932,166.87464 73.475332,147.67959 C 90.161332,128.48456 78.437742,118.29768 95.123762,99.102627 C 111.80977,79.907555 123.53607,90.09569 140.22207,70.900655 C 156.9081,51.705583 145.15345,41.518748 161.83944,22.32369 C 175.34869,6.7830812 185.62681,10.494903 197.89945,2.2903512 L 248.80587,2.2903512 z "
     style="fill:#d40000;stroke:none"
     id="Stream" />
  <path
     d="M 191.23448,14.98161 C 174.11615,14.98161 160.22299,28.874761 160.22299,45.993105 C 160.22299,63.111441 174.11615,77.004603 191.23448,77.004603 C 208.35282,77.004603 222.24598,63.111441 222.24598,45.993105 C 222.24598,28.874761 208.35282,14.98161 191.23448,14.98161 z M 191.23448,22.73448 C 192.60785,22.73448 193.95776,22.854689 195.26598,23.083362 L 195.26598,35.139079 L 187.20299,35.139079 L 187.20299,23.083362 C 188.51122,22.854689 189.86112,22.73448 191.23448,22.73448 z M 180.38046,25.428606 L 180.38046,35.139079 L 170.66998,35.139079 C 172.85687,31.006328 176.24772,27.615489 180.38046,25.428606 z M 202.08851,25.428606 C 206.22126,27.615489 209.6121,31.006328 211.79898,35.139079 L 202.08851,35.139079 L 202.08851,25.428606 z M 168.32474,41.961609 L 180.38046,41.961609 L 180.38046,50.024597 L 168.32474,50.024597 C 168.09608,48.716378 167.97586,47.366478 167.97586,45.993105 C 167.97586,44.61973 168.09608,43.26983 168.32474,41.961609 z M 187.20299,41.961609 L 195.26598,41.961609 L 195.26598,50.024597 L 187.20299,50.024597 L 187.20299,41.961609 z M 202.08851,41.961609 L 214.14422,41.961609 C 214.37289,43.26983 214.49311,44.61973 214.49311,45.993105 C 214.49311,47.366478 214.37289,48.716378 214.14422,50.024597 L 202.08851,50.024597 L 202.08851,41.961609 z M 170.66998,56.847128 L 180.38046,56.847128 L 180.38046,66.557602 C 176.24772,64.370721 172.85687,60.97988 170.66998,56.847128 z M 187.20299,56.847128 L 195.26598,56.847128 L 195.26598,68.902845 C 193.95776,69.131517 192.60785,69.251726 191.23448,69.251726 C 189.86112,69.251726 188.51122,69.131517 187.20299,68.902845 L 187.20299,56.847128 z M 202.08851,56.847128 L 211.79898,56.847128 C 209.6121,60.97988 206.22126,64.370721 202.08851,66.557602 L 202.08851,56.847128 z "
     style="fill:#ffcd50;stroke:none"
     id="Kvarnhjul" />
  <use
     transform="translate(-135.5586,155.731)"
     id="Hjul-2"
     x="0"
     y="0"
     width="251"
     height="304.20001"
     xlink:href="#Kvarnhjul" />
  <use
     transform="translate(-67.77931,78.26897)"
     id="Hjul-3"
     x="0"
     y="0"
     width="251"
     height="304.20001"
     xlink:href="#Kvarnhjul" />
  <g
     transform="matrix(0.350654,0,0,0.350654,-18.69781,-6.256391)"
     style="fill:#d40000"
     id="Tjur-panna">
    <use
       transform="matrix(-1,0,0,1,514.3037,0)"
       id="Horn-2"
       x="0"
       y="0"
       width="495.85947"
       height="550.13263"
       xlink:href="#Horn" />
    <use
       transform="matrix(-1,0,0,1,513.45,-4.486267e-4)"
       id="Ear-2"
       x="0"
       y="0"
       width="495.85947"
       height="550.13263"
       xlink:href="#Ear" />
    <path
       d="M 146.88796,164.69131 C 146.88796,164.69131 142.83404,185.34905 142.83404,185.34905 C 122.13204,174.15952 100.82134,166.59819 75.91789,180.45072 L 76.34932,184.55547 C 93.86385,178.75389 114.67376,178.48583 142.23929,189.56163 C 142.23929,189.56163 147.042,215.51363 147.042,215.51363 C 126.5689,224.68891 115.44215,225.4406 108.82973,222.1237 C 95.67212,215.3777 85.89431,204.45799 77.6174,191.68482 C 72.50341,187.03473 69.49027,182.16382 69.84246,176.93919 C 93.73591,155.84117 120.16097,158.82992 146.88796,164.69131 z "
       id="Ear" />
    <path
       d="M 163.76073,136.24988 C 163.76073,136.24988 152.08682,166.89387 152.08682,166.89387 C 131.8143,163.79378 119.37001,149.60371 115.60588,123.11674 C 108.83126,84.74097 95.54497,66.98547 80.58417,54.53256 C 96.76279,55.42405 112.70395,49.19184 130.19826,89.55427 C 136.87774,108.33948 147.45873,124.3379 163.76073,136.24988 z "
       id="Horn" />
    <path
       d="M 146.12,158.51985 C 140.38187,135.4012 151.73479,128.22465 170.30972,127.78461 C 180.376,106.58185 193.59113,103.19796 208.88254,111.56322 C 219.24402,104.06099 227.31113,87.5702 244.18647,105.58693 C 257.25425,92.61741 269.47354,92.9442 280.79794,107.29445 C 292.31617,103.28149 304.27103,91.85572 314.14055,115.83202 C 328.79802,111.00259 340.85591,113.64162 346.82937,133.76089 C 361.45426,132.17179 375.19456,131.94783 371.0191,159.3736 C 379.70498,169.24601 391.55114,178.43059 380.17197,192.67011 C 382.30412,208.96202 373.07043,213.32461 365.13511,214.27841 C 362.13673,227.55575 353.09071,229.22566 339.63783,224.29987 C 329.45017,239.24516 318.22482,236.33015 306.29523,228.52788 C 297.43336,237.57319 288.25588,245.24484 274.26017,231.94292 C 258.82062,250.55243 248.65625,241.60674 238.30248,233.65042 C 226.75243,246.81707 215.20237,243.2388 203.65232,226.82037 C 184.50939,238.50318 178.39464,228.91938 172.92482,218.2828 C 159.82337,220.63287 144.67356,228.77855 141.54356,202.91519 C 117.21073,185.30275 129.18909,171.64182 146.12,158.51985 z "
       style="stroke:#ffcd50;stroke-width:3"
       id="path1986" />
  </g>
  <path
     d="M 249.55062,1.4395041 L 1.449569,1.4395041 L 1.449569,174.9361 C 0.68232904,268.65698 81.739009,302.75585 125.5001,302.75585 C 168.49395,302.75585 250.31785,268.65698 249.55062,174.9361 L 249.55062,1.4395041 z "
     style="fill:none;fill-opacity:0;stroke:#000000;stroke-width:1.88832211;stroke-linejoin:bevel"
     id="Frame" />
</svg>
