<?xml version="1.0" encoding="UTF-8" standalone="no"?>
<!-- Created with Inkscape (http://www.inkscape.org/) -->
<svg
   xmlns:svg="http://www.w3.org/2000/svg"
   xmlns="http://www.w3.org/2000/svg"
   version="1.0"
   width="251"
   height="304.20001"
   id="svg4166">
  <defs
     id="defs4168" />
  <path
     d="M 249.55058,1.4395041 L 1.4495291,1.4395041 L 1.4495291,174.9361 C 0.68228908,268.65698 81.738969,302.75585 125.50006,302.75585 C 168.49391,302.75585 250.31781,268.65698 249.55058,174.9361 L 249.55058,1.4395041 z "
     style="fill:#d40000;fill-opacity:1;stroke:none"
     id="Shield" />
  <path
     d="M 108.10318,14.213671 L 102.41997,19.291054 C 99.290287,22.083615 96.336322,24.368437 95.842452,24.368437 C 94.158675,24.368437 88.205428,27.477001 84.504887,30.282433 C 76.748787,36.162446 74.751994,39.252123 73.080776,47.995575 C 69.988232,64.175083 79.655548,83.193664 95.121234,91.384118 C 104.07051,96.123568 106.50165,99.398715 103.89125,103.12556 C 102.32491,105.36183 101.98283,114.40554 103.42968,115.29974 C 103.9374,115.61355 104.35284,116.50542 104.35284,117.26146 C 104.35283,118.01749 105.84839,120.9618 107.67045,123.81013 C 112.03121,130.6271 111.37092,132.09924 101.84299,136.87862 C 97.892454,138.86028 92.990728,141.43414 90.938158,142.59068 C 86.385553,145.15588 84.124003,144.73628 78.215857,140.22508 C 74.530472,137.41108 73.888542,136.45238 73.888542,133.70525 C 73.88854,128.07601 71.68657,124.40497 66.618652,121.58877 C 61.484413,118.73571 61.015124,117.53809 61.079689,107.19324 L 61.108539,101.82737 L 65.724341,98.971348 C 73.393029,94.252756 73.923241,89.759526 67.887999,80.681226 C 63.153783,73.559948 57.49816,68.091129 53.982894,67.208853 C 50.681635,66.380292 48.064604,67.996929 40.27973,75.603843 C 33.065297,82.653362 30.5,86.990305 30.5,92.134186 C 30.5,94.962205 31.070061,95.85479 34.336886,98.22128 C 36.444027,99.747676 38.827895,100.99076 39.645057,100.99076 C 42.140637,100.99076 43.19195,103.9636 43.337699,111.4917 C 43.491747,119.44855 44.242231,118.09885 34.279188,127.12774 C 30.920426,130.17158 30.605221,133.22864 33.154086,137.94603 C 34.729035,140.86091 34.764263,141.42047 33.529121,143.83117 C 32.573142,145.69704 32.366732,147.72639 32.807901,150.66833 C 33.323292,154.10519 34.339378,155.7731 38.433411,159.89993 L 43.424246,164.94847 L 43.568489,171.52599 C 43.731612,178.95909 43.760895,179.47864 44.751289,191.28739 C 45.147288,196.00895 45.595796,201.82487 45.732147,204.21164 C 46.248231,213.24547 47.366732,221.52349 48.241989,222.61715 C 48.741484,223.2413 50.386113,224.36888 51.905783,225.12699 C 54.292137,226.31747 55.114021,226.31996 57.762082,225.21353 C 59.448415,224.50895 61.243107,223.14393 61.77206,222.15557 C 62.301014,221.1672 62.960951,215.20388 63.243347,208.91398 C 63.525741,202.62409 64.028966,194.76078 64.368449,191.46048 C 65.237036,183.01646 65.310815,182.32015 65.551248,177.1515 C 65.884351,169.99068 66.947656,168.13097 72.07107,165.69854 C 75.901803,163.87983 77.62359,163.59925 82.57202,163.99646 C 92.517443,164.79478 98.386731,168.94542 99.160063,175.70906 C 99.663777,180.11459 97.284655,199.82687 96.102095,201.00943 C 94.442448,202.66906 94.938122,213.33094 96.852162,217.13589 C 100.00209,223.3977 101.41527,244.70658 99.160063,251.8121 C 98.839391,252.82245 97.388842,255.30698 95.929,257.32222 C 92.735539,261.73064 92.543153,265.23937 95.352027,267.85201 C 98.565115,270.84066 103.12973,271.77823 112.54588,271.37156 C 120.4787,271.02895 121.41528,270.79486 123.8546,268.45784 C 125.96675,266.43428 126.50868,265.10531 126.50868,261.99571 C 126.50868,259.84214 125.9894,257.53186 125.35473,256.86063 C 124.72005,256.18941 122.77812,253.98826 121.05627,251.98519 L 117.9406,248.35025 L 118.54643,237.87815 C 119.31855,224.35925 121.41455,219.1553 126.1048,219.1553 C 128.52051,219.15531 129.69614,219.83097 131.55722,222.27096 C 134.00369,225.47846 133.92379,225.04802 135.19216,245.46537 C 135.49316,250.31069 134.07516,254.36472 131.00908,257.29337 C 128.78111,259.4215 128.59031,267.27956 130.7206,269.40985 C 132.8487,271.53796 142.76447,271.31456 149.70309,268.97711 C 157.46829,266.36122 159.4623,264.87255 160.17518,261.07256 C 160.69925,258.27907 160.38151,257.43904 157.98268,254.98547 C 156.08997,253.04956 154.97472,250.77304 154.52083,247.88867 C 153.62558,242.19939 153.68052,220.31397 154.60738,212.14504 C 155.24534,206.52229 155.08427,204.83009 153.39573,200.31706 C 150.90129,193.65008 149.62914,171.64062 151.60711,169.24693 C 153.36334,167.12157 164.5035,164.35658 168.91636,164.94847 C 172.837,165.47434 177.08987,168.31856 179.35961,171.95872 C 180.86263,174.36921 179.99734,180.09151 177.59985,183.61361 C 176.9181,184.61513 176.34385,186.89995 176.33049,188.691 C 176.31714,190.48205 175.53651,194.83778 174.59957,198.38418 C 172.14446,207.67707 172.95743,209.05235 181.55213,210.38528 C 186.48655,211.15055 189.68771,208.48503 190.98567,202.53841 C 192.4681,195.74665 194.52059,188.70449 195.22644,187.99863 C 196.29238,186.9327 197.76309,189.88108 202.17899,202.07682 C 204.54729,208.61759 205.97079,209.92369 210.74708,209.92369 C 218.73647,209.9237 222.54007,204.59635 219.4017,197.80721 C 218.61609,196.1077 216.87168,191.36817 215.50711,187.30626 C 214.14256,183.24436 212.55027,179.33712 211.98757,178.62278 C 211.34799,177.81083 211.11499,174.17746 211.32405,168.92959 C 211.90628,154.31479 211.68963,147.7896 210.48743,142.01369 C 209.48909,137.21717 209.53614,135.66827 210.77593,131.39735 C 214.94189,117.04611 217.32885,105.43243 216.40143,103.96218 C 215.87462,103.12699 213.12073,101.76616 210.31434,100.93306 C 201.90354,98.436227 201.1255,99.488482 194.88025,121.30028 L 193.69746,125.42566 L 191.99538,122.22344 C 191.05587,120.45881 190.25688,118.48808 190.2356,117.86728 C 190.19544,116.69577 186.49532,108.1271 183.94657,103.29866 C 182.09695,99.794644 181.17509,99.190789 177.71524,99.173282 C 174.13408,99.155173 170.95572,101.38554 169.43564,105.00074 C 168.38978,107.48808 168.48724,108.44558 170.12801,112.50141 C 171.16207,115.0575 173.11035,120.59776 174.48418,124.79099 C 175.85798,128.98421 177.26573,132.67878 177.59985,133.01288 C 180.77901,136.19205 172.0472,145.30246 165.82955,145.30246 C 163.87033,145.30247 157.51442,142.34443 156.04982,140.74435 C 155.79594,140.467 154.34197,139.66077 152.81875,138.95573 C 140.23049,133.12903 140.509,133.47628 144.19297,127.84896 C 145.8799,125.27214 147.55437,123.14661 147.94331,123.14661 C 148.33225,123.14662 148.66453,122.52347 148.66453,121.76187 C 148.66453,121.00027 149.04608,120.37713 149.52999,120.37713 C 150.71999,120.37714 153.46904,114.46919 153.48227,111.86674 C 153.48813,110.71429 153.17501,106.97334 152.7899,103.55829 C 151.97456,96.327919 152.38882,95.572562 158.67505,92.538069 C 163.61041,90.155668 163.24383,90.424053 169.63758,84.777751 C 176.03821,79.125373 179.85269,71.995202 180.83091,63.804699 C 182.42155,50.486489 179.52173,43.096671 169.06061,33.859681 C 165.21162,30.461087 159.51101,25.128347 156.42485,22.002838 C 149.27655,14.76342 148.23519,14.213671 140.75997,14.213671 C 132.75566,14.213671 128.71454,16.459653 127.77803,21.425863 L 127.14335,24.830017 L 126.13365,20.704644 C 124.87027,15.506763 122.56946,14.26067 114.30566,14.24252 L 108.10318,14.213671 z M 126.47983,26.87828 C 126.8748,26.750024 127.43119,27.684471 128.55695,29.993946 C 131.76785,36.58109 133.09851,37.292683 141.68313,37.292683 C 150.23113,37.292683 152.0443,38.176855 155.67478,43.9279 C 161.67966,53.440242 157.60558,65.04338 146.52972,69.978334 C 140.14325,72.823884 126.73092,75.178972 120.96972,74.478742 C 113.83375,73.611421 108.39689,70.883726 102.93925,65.449078 C 97.500601,60.033351 93.251247,51.847839 95.23663,50.620813 C 95.684052,50.344278 96.044396,49.28775 96.044396,48.255215 C 96.044386,45.325017 102.57049,37.48716 105.79528,36.542616 C 107.50687,36.041281 110.41356,36.053767 113.18056,36.600313 C 120.59031,38.063912 123.33416,36.170112 126.01825,27.686045 C 126.16289,27.228895 126.30029,26.936577 126.47983,26.87828 z "
     style="fill:#ffcd50;fill-opacity:1"
     id="Krigare" />
  <path
     d="M 249.55062,1.4395041 L 1.449569,1.4395041 L 1.449569,174.9361 C 0.68232904,268.65698 81.739009,302.75585 125.5001,302.75585 C 168.49395,302.75585 250.31785,268.65698 249.55062,174.9361 L 249.55062,1.4395041 z "
     style="fill:none;fill-opacity:0;stroke:#000000;stroke-width:1.88832211;stroke-linejoin:bevel"
     id="Frame" />
</svg>
