<?xml version="1.0" encoding="UTF-8" standalone="no"?>
<svg
   xmlns:dc="http://purl.org/dc/elements/1.1/"
   xmlns:cc="http://creativecommons.org/ns#"
   xmlns:rdf="http://www.w3.org/1999/02/22-rdf-syntax-ns#"
   xmlns:svg="http://www.w3.org/2000/svg"
   xmlns="http://www.w3.org/2000/svg"
   xmlns:xlink="http://www.w3.org/1999/xlink"
   id="svg5048"
   height="304.60001"
   width="251"
   version="1.1">
  <defs
     id="defs5105" />
  <metadata
     id="metadata1880"><rdf:RDF><cc:Work
         rdf:about=""><dc:title>Danderyd kommunvapen</dc:title><dc:date>2006-12-11</dc:date><dc:creator><cc:Agent><dc:title>Lokal_Profil</dc:title></cc:Agent></dc:creator><cc:license
         rdf:resource="http://creativecommons.org/licenses/by-sa/2.5/" /><dc:rights><cc:Agent><dc:title>cc-by-sa-2.5</dc:title></cc:Agent></dc:rights><dc:format>image/svg+xml</dc:format><dc:type
         rdf:resource="http://purl.org/dc/dcmitype/StillImage" /></cc:Work><cc:License
         rdf:about="http://creativecommons.org/licenses/by-sa/2.5/"><cc:permits
         rdf:resource="http://web.resource.org/cc/Reproduction" /><cc:permits
         rdf:resource="http://web.resource.org/cc/Distribution" /><cc:requires
         rdf:resource="http://web.resource.org/cc/Notice" /><cc:requires
         rdf:resource="http://web.resource.org/cc/Attribution" /><cc:permits
         rdf:resource="http://web.resource.org/cc/DerivativeWorks" /><cc:requires
         rdf:resource="http://web.resource.org/cc/ShareAlike" /></cc:License></rdf:RDF>
  </metadata>
  <path
     style="fill:#d40000"
     id="Shield"
     d="m 0.50543888,0.4978783 124.99155112,0 124.99158,0 0,174.8127217 c 0.77312,94.43187 -80.89847,128.78941 -124.99156,128.78941 -43.320017,0 -125.7646213,-34.35754 -124.99157112,-128.78941 l 0,-174.8127217 z" />
  <path
     style="fill:#eeeeee"
     id="Spets"
     d="M 0.50539547,175.30532 C 0.18864205,213.99831 13.850623,242.58206 33.063017,262.87084 105.49358,236.5437 177.8981,210.14767 250.32374,183.80683 c 0.0179,-0.39007 0.048,-0.77277 0.063,-1.16502 C 237.27815,173.7822 52.204416,110.13545 0.53688253,91.392299 L 0.50539547,175.30532 z M 33.063017,262.87084 c 2.47706,2.58248 2.460501,2.59864 0,0 z" />
  <path
     style="fill:#eeeeee"
     id="Chef"
     d="m 0.50047753,0.49882321 0,91.19358379 249.99417247,0 0,-91.19358379 -124.99709,0 -124.99708247,0 z" />
  <g
     style="fill:#d40000;stroke:#eeeeee;stroke-width:2.4732132"
     id="Rose"
     transform="matrix(0.41387856,0,0,0.41387856,125.52293,42.23896)">
    <g
       id="g3361">
      <path
         id="g1_rose"
         d="m -6,27 -7,36 C -5,77 -1,86 0,95 1,86 5,77 13,63 L 6,27 Z" />
      <use
         height="100%"
         width="100%"
         y="0"
         x="0"
         xlink:href="#g1_rose"
         transform="matrix(0.30901699,0.95105652,-0.95105652,0.30901699,0,0)"
         id="use7" />
      <use
         height="100%"
         width="100%"
         y="0"
         x="0"
         xlink:href="#g1_rose"
         transform="matrix(-0.80901699,0.58778525,-0.58778525,-0.80901699,0,0)"
         id="use9" />
      <use
         height="100%"
         width="100%"
         y="0"
         x="0"
         xlink:href="#g1_rose"
         transform="matrix(-0.80901699,-0.58778525,0.58778525,-0.80901699,0,0)"
         id="use11" />
      <use
         height="100%"
         width="100%"
         y="0"
         x="0"
         xlink:href="#g1_rose"
         transform="matrix(0.30901699,-0.95105652,0.95105652,0.30901699,0,0)"
         id="use13" />
    </g>
    <g
       id="g3368">
      <g
         id="g2_rose">
        <path
           id="path2843"
           d="m -19,-76 c -6.5,0 -12.5,4 -15,12 -2.5,8 -2.01,14 1.69,19.5 L 0,0 32.31,-44.5 C 36.01,-50 36.5,-56 34,-64 c -2.5,-8 -8.5,-12 -15,-12 -2,0 -8,1 -10,2 -5,2 -7,2 -9,2 -2,0 -4,0 -9,-2 -2,-1 -8,-2 -10,-2 z" />
        <path
           d="m 0,-47 c -1,20 -5,32 -7,42 L 7,-5 C 5,-15 1,-27 0,-47 Z"
           id="path17" />
      </g>
      <use
         xlink:href="#g2_rose"
         transform="matrix(0.30901699,0.95105652,-0.95105652,0.30901699,0,0)"
         id="use19"
         x="0"
         y="0"
         width="100%"
         height="100%" />
      <use
         xlink:href="#g2_rose"
         transform="matrix(-0.80901699,0.58778525,-0.58778525,-0.80901699,0,0)"
         id="use21"
         x="0"
         y="0"
         width="100%"
         height="100%" />
      <use
         xlink:href="#g2_rose"
         transform="matrix(-0.80901699,-0.58778525,0.58778525,-0.80901699,0,0)"
         id="use23"
         x="0"
         y="0"
         width="100%"
         height="100%" />
      <use
         xlink:href="#g2_rose"
         transform="matrix(0.30901699,-0.95105652,0.95105652,0.30901699,0,0)"
         id="use25"
         x="0"
         y="0"
         width="100%"
         height="100%" />
    </g>
    <circle
       cy="0"
       cx="0"
       id="circle27"
       r="25" />
  </g>
  <use
     xlink:href="#Rose"
     height="304.60001"
     width="251"
     y="0"
     x="0"
     id="Rose-2"
     transform="translate(-82.5,0)" />
  <use
     xlink:href="#Rose"
     height="304.60001"
     width="251"
     y="0"
     x="0"
     id="Rose-3"
     transform="translate(82.5,0)" />
  <path
     style="fill:none;stroke:#000000;stroke-width:1.88832211;stroke-linejoin:bevel"
     id="Frame"
     d="m 0.50543888,0.4978783 124.99155112,0 124.99158,0 0,174.8127217 c 0.77312,94.43187 -80.89847,128.78941 -124.99156,128.78941 -43.320017,0 -125.7646213,-34.35754 -124.99157112,-128.78941 l 0,-174.8127217 z" />
</svg>
