<?xml version="1.0" encoding="UTF-8" standalone="no"?>
<!-- Created with Inkscape (http://www.inkscape.org/) -->
<svg
   xmlns:dc="http://purl.org/dc/elements/1.1/"
   xmlns:cc="http://web.resource.org/cc/"
   xmlns:rdf="http://www.w3.org/1999/02/22-rdf-syntax-ns#"
   xmlns:svg="http://www.w3.org/2000/svg"
   xmlns="http://www.w3.org/2000/svg"
   xmlns:xlink="http://www.w3.org/1999/xlink"
   version="1.0"
   width="251"
   height="304.20001"
   id="svg4166">
  <defs
     id="defs4168" />
  <metadata
     id="metadata1880"><rdf:RDF><cc:Work
         rdf:about=""><dc:title>Sollentuna kommunvapen</dc:title><dc:date>28-10-2007</dc:date><dc:creator><cc:Agent><dc:title>Lokal_Profil</dc:title></cc:Agent></dc:creator><cc:license
         rdf:resource="http://creativecommons.org/licenses/by-sa/2.5/" /><dc:rights><cc:Agent><dc:title>cc-by-sa-2.5</dc:title></cc:Agent></dc:rights><dc:format>image/svg+xml</dc:format><dc:type
         rdf:resource="http://purl.org/dc/dcmitype/StillImage" /></cc:Work><cc:License
         rdf:about="http://creativecommons.org/licenses/by-sa/2.5/"><cc:permits
         rdf:resource="http://web.resource.org/cc/Reproduction" /><cc:permits
         rdf:resource="http://web.resource.org/cc/Distribution" /><cc:requires
         rdf:resource="http://web.resource.org/cc/Notice" /><cc:requires
         rdf:resource="http://web.resource.org/cc/Attribution" /><cc:permits
         rdf:resource="http://web.resource.org/cc/DerivativeWorks" /><cc:requires
         rdf:resource="http://web.resource.org/cc/ShareAlike" /></cc:License></rdf:RDF>
  </metadata>
  <path
     d="M 249.55058,1.4395041 L 1.4495291,1.4395041 L 1.4495291,174.9361 C 0.68228908,268.65698 81.738969,302.75585 125.50006,302.75585 C 168.49391,302.75585 250.31781,268.65698 249.55058,174.9361 L 249.55058,1.4395041 z "
     style="fill:#003d8f;fill-opacity:1;stroke:none"
     id="Shield" />
  <path
     d="M 1.4375,1.4375 L 1.4375,64.0625 L 187.0625,285.25 C 210.42395,272.06629 232.14142,250.82589 242.75,219.5625 L 182.03125,147.25 L 126.625,81.25 L 59.6875,1.4375 L 1.4375,1.4375 z "
     style="opacity:1;fill:#ffcd50;fill-opacity:1;stroke:none;stroke-width:0.83499998;stroke-miterlimit:4;stroke-opacity:1"
     id="Balk" />
  <use
     transform="translate(69.0383,82.07341)"
     id="use5715"
     x="0"
     y="0"
     width="251"
     height="304.20001"
     xlink:href="#g5622" />
  <use
     transform="translate(138.0766,164.5723)"
     id="use5717"
     x="0"
     y="0"
     width="251"
     height="304.20001"
     xlink:href="#g5622" />
  <g
     transform="matrix(8.795844e-2,0,0,8.795844e-2,3.572677,21.43104)"
     id="g5622">
    <g
       id="Vikingaskepp">
      <path
         d="M 534.869,115.6279 C 499.25504,88.905068 393.67627,113.74451 373.29461,97.446405 C 387.5269,84.291033 512.15375,59.101606 537.03348,82.078485 L 534.869,115.6279 z "
         style="fill:#003d8f;stroke:none"
         id="Vimpel" />
      <g
         style="fill:#d40000;stroke:#ffcd50"
         id="Mast">
        <path
           d="M 531.62963,74.375289 L 547.28888,74.375289 L 559.53306,669.33584 L 521.52818,669.33584 L 531.62963,74.375289 z "
           style="stroke-width:4.39055824"
           id="path6004" />
        <path
           d="M 533.88039,79.998619 C 525.85492,76.350843 522.26617,66.918777 525.83713,58.858806 C 529.40799,50.798835 538.80545,47.120203 546.89906,50.614025 C 554.99278,54.10774 558.76108,63.469631 555.34472,71.596348 C 551.92836,79.722958 542.603,83.580507 534.44404,80.241926"
           style="stroke-width:3.21408892"
           id="path6006" />
      </g>
      <path
         d="M 318.2994,209.23803 C 325.58594,220.01794 334.74137,235.80293 335.86671,244.57904 C 340.60521,281.53285 396.66316,286.62382 398.73978,236.88527 C 416.66001,277.17962 457.54206,280.51438 472.7557,219.28348 C 485.09669,255.71449 526.33086,260.04914 541.60142,206.1881 C 562.76542,240.20948 611.65004,236.92191 618.95051,183.75333 C 641.34189,224.96406 691.87735,220.1388 701.30567,169.57945 C 748.23506,207.92435 782.29835,184.71457 781.28121,110.51965 L 784.3423,102.86701 L 773.62867,102.86701 C 773.62867,102.86701 772.8634,116.86605 762.14977,131.78864 C 749.65478,146.16579 721.57212,158.81557 700.59526,149.11341 C 698.29954,145.28715 690.98063,120.468 690.98063,120.468 C 690.98063,120.468 682.56282,116.64174 682.56282,120.468 C 682.56282,124.29427 692.23132,147.02221 689.45018,150.08734 C 665.65008,164.59234 651.43933,171.51105 624.40313,165.66234 C 617.53248,157.42335 618.72555,151.51021 619.81159,137.30372 C 619.81159,137.30372 604.64495,137.64495 607.56741,138.83417 C 616.53245,152.87618 608.61692,174.73591 582.19962,181.16978 C 567.08123,184.85183 545.9159,193.53419 542.21416,154.29254 L 532.11281,157.35342 C 531.57025,173.44388 537.21419,192.8137 518.0321,200.00814 C 468.50947,214.65817 485.33639,200.03041 475.94275,173.27088 L 465.22912,173.27088 C 467.08469,187.68538 469.69804,212.70697 451.4545,218.86986 C 435.06565,219.37651 417.76345,227.95491 403.24317,213.51304 L 401.71262,187.81077 L 390.99899,187.81077 C 389.79939,204.24949 398.13448,215.21715 384.94435,228.75076 C 368.47557,229.75473 352.20639,236.29316 341.32456,227.98559 L 327.48248,204.64649 L 318.2994,209.23803 z "
         style="fill:#003d8f;stroke:#ffcd50;stroke-width:3.21408892"
         id="Segel" />
      <g
         style="fill:#d40000;stroke:#ffcd50;stroke-width:3.21408892"
         id="Cross-beam">
        <rect
           width="561.6828"
           height="17.315849"
           x="224.69508"
           y="266.89114"
           transform="matrix(0.973893,-0.227008,0.227008,0.973893,0,0)"
           id="rect6012" />
        <path
           d="M 270.45839,231.51262 C 262.43292,227.86484 258.84417,218.43278 262.41513,210.37281 C 265.98599,202.31284 275.38345,198.6342 283.47706,202.12802 C 291.57078,205.62174 295.33908,214.98363 291.92272,223.11035 C 288.50636,231.23696 279.181,235.09451 271.02204,231.75593"
           id="path6014" />
        <path
           d="M 818.07179,104.89062 C 810.04632,101.24284 806.45757,91.810777 810.02853,83.750806 C 813.59939,75.690835 822.99685,72.012203 831.09046,75.506025 C 839.18418,78.99974 842.95248,88.361631 839.53612,96.488348 C 836.11976,104.61496 826.7944,108.47251 818.63544,105.13393"
           id="path6016" />
      </g>
      <path
         d="M 228.46036,274.91452 C 239.02056,297.88633 248.65266,338.84328 203.51046,408.20546 C 136.87072,487.90566 148.10321,574.22666 221.39258,644.09067 C 242.33719,662.37123 277.88823,682.16348 299.40795,697.58222 C 237.78326,674.91925 168.60395,641.63179 131.57615,584.21519 C 90.14922,502.73064 111.173,432.30607 176.9999,367.53738 C 185.40495,359.26745 192.76011,347.59848 197.82587,336.01136 C 202.89164,324.42424 140.0155,343.07631 154.39928,318.42216 C 179.64316,317.65285 246.53791,291.52262 145.91586,292.06076 C 134.93956,259.95405 159.07416,281.69618 170.6738,270.99602 C 195.51603,248.08013 217.03369,250.05787 228.46036,274.91452 z "
         style="fill:#d40000;stroke:none"
         id="For" />
      <path
         d="M 791.08889,665.06999 C 866.00781,612.65924 898.9459,583.06776 904.48795,526.05539 C 908.27629,487.08349 877.0977,478.49898 868.47055,458.77798 C 858.01319,407.36402 864.46397,340.86837 906.01839,304.13026 C 914.1945,300.70983 924.38466,304.13026 933.56785,304.13026 C 933.14498,309.28523 934.39355,319.51439 932.98246,324.203 C 900.5718,322.95625 892.83527,381.17873 894.12744,427.24284 C 895.86766,455.55103 920.31359,446.51891 936.36625,464.64894 C 969.06403,553.14042 890.00312,653.57963 791.08889,665.06999 z "
         style="fill:#d40000;stroke:none"
         id="Akter" />
      <g
         transform="matrix(1.071363,0,0,1.071363,-1155.59,-1178.412)"
         id="g6022">
        <g
           id="g6024">
          <path
             d="M 1228.5189,1549.8474 C 1228.5189,1545.4059 1274.3699,1577.2522 1375.9504,1595.1607 C 1477.5308,1613.0692 1693.5424,1629.2909 1854.6401,1577.3964 C 1892.3117,1565.2612 1913.6474,1554.8264 1913.6474,1554.8264 C 1933.3711,1574.6927 1924.6065,1593.1341 1921.3101,1612.9968 C 1915.0373,1650.7937 1877.2885,1684.5073 1830.3964,1714.0121 C 1781.1434,1745.0024 1386.5855,1766.0287 1349.5638,1746.337 C 1312.5421,1726.6453 1242.4794,1689.1069 1224.3049,1592.7938 C 1220.9219,1574.8661 1221.3895,1565.4292 1228.5189,1549.8474 z "
             style="fill:#d40000;stroke:#ffcd50;stroke-width:3"
             id="path6026" />
          <g
             style="fill:none;stroke:#ffcd50;stroke-width:3"
             id="g6028">
            <path
               d="M 1222.2846,1578.6516 C 1299.8167,1605.8151 1363.5203,1625.5029 1457.6501,1635.2201 C 1550.6815,1644.824 1635.4158,1640.9629 1721.2999,1632.1896 C 1806.7635,1623.4592 1857.8365,1607.0908 1924.6844,1582.7579"
               id="path6030" />
            <path
               d="M 1224.4275,1597.6857 C 1301.9596,1624.8492 1363.5203,1643.1084 1457.6501,1652.8256 C 1550.6815,1662.4295 1635.4158,1658.5684 1721.2999,1649.7951 C 1805.8948,1641.1534 1856.7947,1625.0283 1922.6508,1601.1029"
               id="path6032" />
            <path
               d="M 1230.7757,1616.4748 C 1304.9794,1642.2893 1367.5749,1661.0283 1458.6603,1670.4312 C 1551.6917,1680.0351 1636.426,1676.174 1722.3101,1667.4007 C 1805.0305,1658.9505 1855.5326,1643.3448 1919.3047,1620.2875"
               id="path6034" />
            <path
               d="M 1237.8124,1636.1698 C 1309.4138,1660.9067 1371.0611,1678.8894 1459.6704,1688.0367 C 1552.7018,1697.6406 1637.4361,1693.7795 1723.3202,1685.0062 C 1800.8642,1677.0848 1850.0961,1662.8754 1908.4877,1642.134"
               id="path6036" />
            <path
               d="M 1248.0069,1656.9287 C 1315.7755,1680.0424 1375.8815,1696.8882 1460.6806,1705.6422 C 1553.712,1715.2461 1638.4463,1711.385 1724.3304,1702.6117 C 1793.676,1695.5278 1840.3796,1683.4152 1891.2401,1666.0995"
               id="path6038" />
            <path
               d="M 1261.9927,1679.2475 C 1324.2225,1699.9433 1381.7565,1715.1003 1460.6806,1723.2478 C 1553.712,1732.8517 1638.4463,1728.9906 1724.3304,1720.2173 C 1778.9503,1714.6377 1819.5233,1705.9383 1859.1448,1694.034"
               id="path6040" />
            <path
               d="M 1285.709,1704.5237 C 1339.2992,1721.3136 1391.8572,1734.4628 1460.6806,1741.5676 C 1516.8137,1747.3624 1569.9262,1748.255 1622.0931,1746.1243"
               id="path6042" />
            <path
               d="M 1327.8844,1734.3997 C 1357.151,1742.1938 1387.4353,1748.6455 1421.4555,1753.6014"
               id="path6044" />
          </g>
        </g>
        <path
           d="M 1229.2377,1541.1867 C 1264.9048,1559.2012 1311.1203,1572.8034 1362.75,1583.5732 C 1503.5626,1612.9463 1668.2136,1613.9386 1785.6422,1587.4288 C 1836.785,1575.8832 1882.7816,1564.7583 1917.1783,1547.4393 C 1927.569,1551.7341 1929.2608,1557.1823 1928.8632,1566.1968 C 1884.2824,1581.4742 1836.4758,1596.4906 1786.9397,1605.6429 C 1648.5782,1631.2066 1496.2327,1631.9261 1359.7648,1602.4849 C 1310.9326,1591.9499 1264.1335,1577.5532 1220.7354,1559.0511 C 1218.1807,1553.0963 1221.0147,1547.1415 1229.2377,1541.1867 z "
           style="fill:#d40000;stroke:#ffcd50;stroke-width:3"
           id="path6046" />
      </g>
      <g
         transform="matrix(1.071363,0,0,1.071363,-1155.59,-1178.412)"
         id="Shields">
        <g
           transform="matrix(0.905997,0,0,0.958983,123.6298,68.66402)"
           style="stroke:#ffcd50"
           id="g6050">
          <path
             d="M 1377.289,1666.288 C 1357.1113,1652.8719 1348.0902,1618.1872 1357.0705,1588.5504 C 1366.0508,1558.9137 1389.6796,1545.3898 1410.0289,1558.2399 C 1430.3782,1571.0899 1439.8505,1605.5164 1431.2589,1635.3985 C 1422.6673,1665.2807 1399.2194,1679.4621 1378.706,1667.1828"
             transform="matrix(1.036826,0,0,0.999543,-87.19573,0.737049)"
             style="fill:#003d8f;stroke-width:2.94691467"
             id="path6052" />
          <path
             d="M 1377.289,1666.288 C 1357.1113,1652.8719 1348.0902,1618.1872 1357.0705,1588.5504 C 1366.0508,1558.9137 1389.6796,1545.3898 1410.0289,1558.2399 C 1430.3782,1571.0899 1439.8505,1605.5164 1431.2589,1635.3985 C 1422.6673,1665.2807 1399.2194,1679.4621 1378.706,1667.1828"
             transform="matrix(0.620699,0,0,0.598379,506.7748,647.6155)"
             style="fill:none;stroke-width:4.92257738"
             id="path6054" />
          <path
             d="M 1377.289,1666.288 C 1357.1113,1652.8719 1348.0902,1618.1872 1357.0705,1588.5504 C 1366.0508,1558.9137 1389.6796,1545.3898 1410.0289,1558.2399 C 1430.3782,1571.0899 1439.8505,1605.5164 1431.2589,1635.3985 C 1422.6673,1665.2807 1399.2194,1679.4621 1378.706,1667.1828"
             transform="matrix(0.270999,0,0,0.261254,1005.877,1191.231)"
             style="fill:none;stroke-width:11.27472401"
             id="path6056" />
        </g>
        <g
           transform="matrix(0.905997,0,0,0.958983,199.8961,81.79538)"
           id="use6058">
          <path
             d="M 1377.289,1666.288 C 1357.1113,1652.8719 1348.0902,1618.1872 1357.0705,1588.5504 C 1366.0508,1558.9137 1389.6796,1545.3898 1410.0289,1558.2399 C 1430.3782,1571.0899 1439.8505,1605.5164 1431.2589,1635.3985 C 1422.6673,1665.2807 1399.2194,1679.4621 1378.706,1667.1828"
             transform="matrix(1.036826,0,0,0.999543,-87.19573,0.737049)"
             style="opacity:1;fill:#003d8f;fill-opacity:1;fill-rule:evenodd;stroke:#ffcd50;stroke-width:2.94691467;stroke-linecap:round;stroke-linejoin:round;stroke-miterlimit:4;stroke-dasharray:none;stroke-dashoffset:0;stroke-opacity:1"
             id="path6621" />
          <path
             d="M 1377.289,1666.288 C 1357.1113,1652.8719 1348.0902,1618.1872 1357.0705,1588.5504 C 1366.0508,1558.9137 1389.6796,1545.3898 1410.0289,1558.2399 C 1430.3782,1571.0899 1439.8505,1605.5164 1431.2589,1635.3985 C 1422.6673,1665.2807 1399.2194,1679.4621 1378.706,1667.1828"
             transform="matrix(0.620699,0,0,0.598379,506.7748,647.6155)"
             style="opacity:1;fill:none;fill-opacity:1;fill-rule:evenodd;stroke:#ffcd50;stroke-width:4.92257738;stroke-linecap:round;stroke-linejoin:round;stroke-miterlimit:4;stroke-dasharray:none;stroke-dashoffset:0;stroke-opacity:1"
             id="path6623" />
          <path
             d="M 1377.289,1666.288 C 1357.1113,1652.8719 1348.0902,1618.1872 1357.0705,1588.5504 C 1366.0508,1558.9137 1389.6796,1545.3898 1410.0289,1558.2399 C 1430.3782,1571.0899 1439.8505,1605.5164 1431.2589,1635.3985 C 1422.6673,1665.2807 1399.2194,1679.4621 1378.706,1667.1828"
             transform="matrix(0.270999,0,0,0.261254,1005.877,1191.231)"
             style="opacity:1;fill:none;fill-opacity:1;fill-rule:evenodd;stroke:#ffcd50;stroke-width:11.27472401;stroke-linecap:round;stroke-linejoin:round;stroke-miterlimit:4;stroke-dasharray:none;stroke-dashoffset:0;stroke-opacity:1"
             id="path6625" />
        </g>
        <g
           transform="matrix(0.905997,0,0,0.958983,276.1622,88.86636)"
           id="use6060">
          <path
             d="M 1377.289,1666.288 C 1357.1113,1652.8719 1348.0902,1618.1872 1357.0705,1588.5504 C 1366.0508,1558.9137 1389.6796,1545.3898 1410.0289,1558.2399 C 1430.3782,1571.0899 1439.8505,1605.5164 1431.2589,1635.3985 C 1422.6673,1665.2807 1399.2194,1679.4621 1378.706,1667.1828"
             transform="matrix(1.036826,0,0,0.999543,-87.19573,0.737049)"
             style="opacity:1;fill:#003d8f;fill-opacity:1;fill-rule:evenodd;stroke:#ffcd50;stroke-width:2.94691467;stroke-linecap:round;stroke-linejoin:round;stroke-miterlimit:4;stroke-dasharray:none;stroke-dashoffset:0;stroke-opacity:1"
             id="path6613" />
          <path
             d="M 1377.289,1666.288 C 1357.1113,1652.8719 1348.0902,1618.1872 1357.0705,1588.5504 C 1366.0508,1558.9137 1389.6796,1545.3898 1410.0289,1558.2399 C 1430.3782,1571.0899 1439.8505,1605.5164 1431.2589,1635.3985 C 1422.6673,1665.2807 1399.2194,1679.4621 1378.706,1667.1828"
             transform="matrix(0.620699,0,0,0.598379,506.7748,647.6155)"
             style="opacity:1;fill:none;fill-opacity:1;fill-rule:evenodd;stroke:#ffcd50;stroke-width:4.92257738;stroke-linecap:round;stroke-linejoin:round;stroke-miterlimit:4;stroke-dasharray:none;stroke-dashoffset:0;stroke-opacity:1"
             id="path6615" />
          <path
             d="M 1377.289,1666.288 C 1357.1113,1652.8719 1348.0902,1618.1872 1357.0705,1588.5504 C 1366.0508,1558.9137 1389.6796,1545.3898 1410.0289,1558.2399 C 1430.3782,1571.0899 1439.8505,1605.5164 1431.2589,1635.3985 C 1422.6673,1665.2807 1399.2194,1679.4621 1378.706,1667.1828"
             transform="matrix(0.270999,0,0,0.261254,1005.877,1191.231)"
             style="opacity:1;fill:none;fill-opacity:1;fill-rule:evenodd;stroke:#ffcd50;stroke-width:11.27472401;stroke-linecap:round;stroke-linejoin:round;stroke-miterlimit:4;stroke-dasharray:none;stroke-dashoffset:0;stroke-opacity:1"
             id="path6617" />
        </g>
        <g
           transform="matrix(0.905997,0,0,0.958983,352.4283,93.91659)"
           id="use6062">
          <path
             d="M 1377.289,1666.288 C 1357.1113,1652.8719 1348.0902,1618.1872 1357.0705,1588.5504 C 1366.0508,1558.9137 1389.6796,1545.3898 1410.0289,1558.2399 C 1430.3782,1571.0899 1439.8505,1605.5164 1431.2589,1635.3985 C 1422.6673,1665.2807 1399.2194,1679.4621 1378.706,1667.1828"
             transform="matrix(1.036826,0,0,0.999543,-87.19573,0.737049)"
             style="opacity:1;fill:#003d8f;fill-opacity:1;fill-rule:evenodd;stroke:#ffcd50;stroke-width:2.94691467;stroke-linecap:round;stroke-linejoin:round;stroke-miterlimit:4;stroke-dasharray:none;stroke-dashoffset:0;stroke-opacity:1"
             id="path6605" />
          <path
             d="M 1377.289,1666.288 C 1357.1113,1652.8719 1348.0902,1618.1872 1357.0705,1588.5504 C 1366.0508,1558.9137 1389.6796,1545.3898 1410.0289,1558.2399 C 1430.3782,1571.0899 1439.8505,1605.5164 1431.2589,1635.3985 C 1422.6673,1665.2807 1399.2194,1679.4621 1378.706,1667.1828"
             transform="matrix(0.620699,0,0,0.598379,506.7748,647.6155)"
             style="opacity:1;fill:none;fill-opacity:1;fill-rule:evenodd;stroke:#ffcd50;stroke-width:4.92257738;stroke-linecap:round;stroke-linejoin:round;stroke-miterlimit:4;stroke-dasharray:none;stroke-dashoffset:0;stroke-opacity:1"
             id="path6607" />
          <path
             d="M 1377.289,1666.288 C 1357.1113,1652.8719 1348.0902,1618.1872 1357.0705,1588.5504 C 1366.0508,1558.9137 1389.6796,1545.3898 1410.0289,1558.2399 C 1430.3782,1571.0899 1439.8505,1605.5164 1431.2589,1635.3985 C 1422.6673,1665.2807 1399.2194,1679.4621 1378.706,1667.1828"
             transform="matrix(0.270999,0,0,0.261254,1005.877,1191.231)"
             style="opacity:1;fill:none;fill-opacity:1;fill-rule:evenodd;stroke:#ffcd50;stroke-width:11.27472401;stroke-linecap:round;stroke-linejoin:round;stroke-miterlimit:4;stroke-dasharray:none;stroke-dashoffset:0;stroke-opacity:1"
             id="path6609" />
        </g>
        <g
           transform="matrix(0.905997,0,0,0.958983,428.6944,86.84561)"
           id="use6064">
          <path
             d="M 1377.289,1666.288 C 1357.1113,1652.8719 1348.0902,1618.1872 1357.0705,1588.5504 C 1366.0508,1558.9137 1389.6796,1545.3898 1410.0289,1558.2399 C 1430.3782,1571.0899 1439.8505,1605.5164 1431.2589,1635.3985 C 1422.6673,1665.2807 1399.2194,1679.4621 1378.706,1667.1828"
             transform="matrix(1.036826,0,0,0.999543,-87.19573,0.737049)"
             style="opacity:1;fill:#003d8f;fill-opacity:1;fill-rule:evenodd;stroke:#ffcd50;stroke-width:2.94691467;stroke-linecap:round;stroke-linejoin:round;stroke-miterlimit:4;stroke-dasharray:none;stroke-dashoffset:0;stroke-opacity:1"
             id="path6597" />
          <path
             d="M 1377.289,1666.288 C 1357.1113,1652.8719 1348.0902,1618.1872 1357.0705,1588.5504 C 1366.0508,1558.9137 1389.6796,1545.3898 1410.0289,1558.2399 C 1430.3782,1571.0899 1439.8505,1605.5164 1431.2589,1635.3985 C 1422.6673,1665.2807 1399.2194,1679.4621 1378.706,1667.1828"
             transform="matrix(0.620699,0,0,0.598379,506.7748,647.6155)"
             style="opacity:1;fill:none;fill-opacity:1;fill-rule:evenodd;stroke:#ffcd50;stroke-width:4.92257738;stroke-linecap:round;stroke-linejoin:round;stroke-miterlimit:4;stroke-dasharray:none;stroke-dashoffset:0;stroke-opacity:1"
             id="path6599" />
          <path
             d="M 1377.289,1666.288 C 1357.1113,1652.8719 1348.0902,1618.1872 1357.0705,1588.5504 C 1366.0508,1558.9137 1389.6796,1545.3898 1410.0289,1558.2399 C 1430.3782,1571.0899 1439.8505,1605.5164 1431.2589,1635.3985 C 1422.6673,1665.2807 1399.2194,1679.4621 1378.706,1667.1828"
             transform="matrix(0.270999,0,0,0.261254,1005.877,1191.231)"
             style="opacity:1;fill:none;fill-opacity:1;fill-rule:evenodd;stroke:#ffcd50;stroke-width:11.27472401;stroke-linecap:round;stroke-linejoin:round;stroke-miterlimit:4;stroke-dasharray:none;stroke-dashoffset:0;stroke-opacity:1"
             id="path6601" />
        </g>
        <g
           transform="matrix(0.905997,0,0,0.958983,504.9638,82.80741)"
           id="use6066">
          <path
             d="M 1377.289,1666.288 C 1357.1113,1652.8719 1348.0902,1618.1872 1357.0705,1588.5504 C 1366.0508,1558.9137 1389.6796,1545.3898 1410.0289,1558.2399 C 1430.3782,1571.0899 1439.8505,1605.5164 1431.2589,1635.3985 C 1422.6673,1665.2807 1399.2194,1679.4621 1378.706,1667.1828"
             transform="matrix(1.036826,0,0,0.999543,-87.19573,0.737049)"
             style="opacity:1;fill:#003d8f;fill-opacity:1;fill-rule:evenodd;stroke:#ffcd50;stroke-width:2.94691467;stroke-linecap:round;stroke-linejoin:round;stroke-miterlimit:4;stroke-dasharray:none;stroke-dashoffset:0;stroke-opacity:1"
             id="path6589" />
          <path
             d="M 1377.289,1666.288 C 1357.1113,1652.8719 1348.0902,1618.1872 1357.0705,1588.5504 C 1366.0508,1558.9137 1389.6796,1545.3898 1410.0289,1558.2399 C 1430.3782,1571.0899 1439.8505,1605.5164 1431.2589,1635.3985 C 1422.6673,1665.2807 1399.2194,1679.4621 1378.706,1667.1828"
             transform="matrix(0.620699,0,0,0.598379,506.7748,647.6155)"
             style="opacity:1;fill:none;fill-opacity:1;fill-rule:evenodd;stroke:#ffcd50;stroke-width:4.92257738;stroke-linecap:round;stroke-linejoin:round;stroke-miterlimit:4;stroke-dasharray:none;stroke-dashoffset:0;stroke-opacity:1"
             id="path6591" />
          <path
             d="M 1377.289,1666.288 C 1357.1113,1652.8719 1348.0902,1618.1872 1357.0705,1588.5504 C 1366.0508,1558.9137 1389.6796,1545.3898 1410.0289,1558.2399 C 1430.3782,1571.0899 1439.8505,1605.5164 1431.2589,1635.3985 C 1422.6673,1665.2807 1399.2194,1679.4621 1378.706,1667.1828"
             transform="matrix(0.270999,0,0,0.261254,1005.877,1191.231)"
             style="opacity:1;fill:none;fill-opacity:1;fill-rule:evenodd;stroke:#ffcd50;stroke-width:11.27472401;stroke-linecap:round;stroke-linejoin:round;stroke-miterlimit:4;stroke-dasharray:none;stroke-dashoffset:0;stroke-opacity:1"
             id="path6593" />
        </g>
      </g>
      <path
         d="M 228.46036,274.91452 C 233.74046,286.40042 238.78854,302.38261 236.87381,324.1636 C 235.91645,335.05409 233.21838,347.39429 227.93828,361.34699 C 227.93828,361.34699 176.9999,367.53738 176.9999,367.53738 C 185.40495,359.26745 192.76011,347.59848 197.82587,336.01136 C 202.89164,324.42424 140.0155,343.07631 154.39928,318.42216 C 179.64316,317.65285 246.53791,291.52262 145.91586,292.06076 C 134.93956,259.95405 159.07416,281.69618 170.6738,270.99602 C 195.51603,248.08013 217.03369,250.05787 228.46036,274.91452 z "
         style="fill:#003d8f;stroke:#ffcd50;stroke-width:3.21408892"
         id="For-huvud" />
      <path
         d="M 867.74005,375.95068 C 873.23988,348.30776 885.24118,322.49932 906.01839,304.13026 C 914.1945,300.70983 924.38466,304.13026 933.56785,304.13026 C 933.14498,309.28523 934.39355,319.51439 932.98246,324.203 C 916.77713,323.57962 906.74033,337.82356 900.91639,357.98135 C 898.00442,368.06024 896.14566,379.6176 895.09565,391.53424 C 895.09565,391.53424 867.74005,375.95068 867.74005,375.95068 z "
         style="fill:#003d8f;stroke:#ffcd50;stroke-width:3.21408892"
         id="Akter-huvud" />
    </g>
    <g
       style="fill:#d40000;stroke:none"
       id="Rullar">
      <path
         d="M 353.31072,767.30625 C 337.4507,760.09646 330.3595,741.45581 337.4175,725.52765 C 344.4755,709.5995 363.04758,702.33061 379.04241,709.23617 C 395.03725,716.14173 402.48316,734.64355 395.73067,750.7036 C 388.97817,766.76365 370.54831,774.38592 354.4245,767.78711"
         transform="translate(-41.53144,-2.07171)"
         style="fill:#d40000;fill-opacity:1"
         id="path6074" />
      <path
         d="M 385.34152,765.23454 C 369.4815,758.02475 362.3903,739.3841 369.4483,723.45594 C 376.5063,707.52779 395.07838,700.2589 411.07321,707.16446 C 427.06805,714.07002 434.51396,732.57184 427.76147,748.63189 C 421.00897,764.69194 402.57911,772.31421 386.4553,765.7154"
         style="fill:#d40000;fill-opacity:1"
         id="use6076" />
      <path
         d="M 458.90378,765.23454 C 443.04376,758.02475 435.95256,739.3841 443.01056,723.45594 C 450.06856,707.52779 468.64064,700.2589 484.63547,707.16446 C 500.63031,714.07002 508.07622,732.57184 501.32373,748.63189 C 494.57123,764.69194 476.14137,772.31421 460.01756,765.7154"
         style="fill:#d40000;fill-opacity:1"
         id="use6078" />
      <path
         d="M 606.02818,756.7198 C 590.16816,749.51001 583.07696,730.86936 590.13496,714.9412 C 597.19296,699.01305 615.76504,691.74416 631.75987,698.64972 C 647.75471,705.55528 655.20062,724.0571 648.44813,740.11715 C 641.69563,756.1772 623.26577,763.79947 607.14196,757.20066"
         style="fill:#d40000;fill-opacity:1"
         id="use6080" />
      <path
         d="M 679.59048,749.39073 C 663.73046,742.18094 656.63926,723.54029 663.69726,707.61213 C 670.75526,691.68398 689.32734,684.41509 705.32217,691.32065 C 721.31701,698.22621 728.76292,716.72803 722.01043,732.78808 C 715.25793,748.84813 696.82807,756.4704 680.70426,749.87159"
         style="fill:#d40000;fill-opacity:1"
         id="use6082" />
      <path
         d="M 532.46598,763.23454 C 516.60596,756.02475 509.51476,737.3841 516.57276,721.45594 C 523.63076,705.52779 542.20284,698.2589 558.19767,705.16446 C 574.19251,712.07002 581.63842,730.57184 574.88593,746.63189 C 568.13343,762.69194 549.70357,770.31421 533.57976,763.7154"
         style="fill:#d40000;fill-opacity:1"
         id="use6084" />
      <path
         d="M 753.15268,737.1756 C 737.29266,729.96581 730.20146,711.32516 737.25946,695.397 C 744.31746,679.46885 762.88954,672.19996 778.88437,679.10552 C 794.87921,686.01108 802.32512,704.5129 795.57263,720.57295 C 788.82013,736.633 770.39027,744.25527 754.26646,737.65646"
         style="fill:#d40000;fill-opacity:1"
         id="use6086" />
    </g>
  </g>
  <path
     d="M 249.55062,1.4395041 L 1.449569,1.4395041 L 1.449569,174.9361 C 0.68232904,268.65698 81.739009,302.75585 125.5001,302.75585 C 168.49395,302.75585 250.31785,268.65698 249.55062,174.9361 L 249.55062,1.4395041 z "
     style="fill:none;fill-opacity:0;stroke:#000000;stroke-width:1.88832211;stroke-linejoin:bevel"
     id="Frame" />
</svg>
