<?xml version="1.0" encoding="UTF-8" standalone="no"?>
<!-- Created with Inkscape (http://www.inkscape.org/) -->
<svg
   xmlns:svg="http://www.w3.org/2000/svg"
   xmlns="http://www.w3.org/2000/svg"
   xmlns:xlink="http://www.w3.org/1999/xlink"
   version="1.0"
   width="251"
   height="304.20001"
   id="svg4166">
  <defs
     id="defs4168" />
  <path
     d="M 249.55058,1.4395041 L 1.4495291,1.4395041 L 1.4495291,174.9361 C 0.68228908,268.65698 81.738969,302.75585 125.50006,302.75585 C 168.49391,302.75585 250.31781,268.65698 249.55058,174.9361 L 249.55058,1.4395041 z "
     style="fill:#003d8f;stroke:none"
     id="Shield" />
  <path
     d="M 249.55062,1.4395041 L 1.449569,1.4395041 L 1.449569,174.9361 C 0.68232904,268.65698 81.739009,302.75585 125.5001,302.75585 C 168.49395,302.75585 250.31785,268.65698 249.55062,174.9361 L 249.55062,1.4395041 z "
     style="fill:none;fill-opacity:0;stroke:#000000;stroke-width:1.88832211;stroke-linecap:round"
     id="Frame" />
  <g
     transform="matrix(1.575096,0,0,1.575096,269.8676,-22.49071)"
     style="fill:#ffcd50"
     id="St-Erik">
    <path
       d="M -87.989075,71.702544 C -96.345482,71.704989 -105.80478,72.495993 -112.17964,74.07727 L -121.2986,76.325348 L -121.17195,87.470734 C -120.75357,120.06123 -119.93463,127.44693 -115.78923,136.01018 C -108.04875,148.39322 -91.637343,152.48361 -86.595901,150.3852 C -76.039476,145.99127 -70.194742,139.5962 -66.964822,130.91243 C -65.105449,127.52943 -65.02959,123.64829 -64.526764,119.89369 C -63.535571,105.20258 -63.618669,96.412814 -64.400115,80.124914 C -64.543189,78.049693 -65.340821,76.044157 -66.86983,75.248808 C -72.735907,72.19743 -80.830327,71.842029 -87.989075,71.702544 z "
       id="Huvud" />
    <path
       d="M -90.96875,23.96875 C -94.634813,23.850523 -98.25044,30.027664 -96.09375,36.34375 C -94.701195,40.421997 -93.389557,39.100129 -94,34.6875 C -94.248294,32.892687 -94.159024,31.6 -93.6875,30.5 C -93.021814,28.947044 -92.804575,30.343874 -92.75,31.625 C -92.651882,33.928277 -92.106731,36.877838 -91.65625,37.15625 C -91.205767,37.434659 -91.191148,35.383453 -91.34375,33.625 C -91.49635,31.866549 -90.856246,30.812016 -90.5625,31.78125 C -89.71427,34.080993 -89.97646,33.88451 -89.6875,35.3125 C -89.28361,37.308449 -87.82236,39.568704 -87.1875,37.75 C -86.59144,36.042447 -85.86751,30.447089 -87.125,27.4375 C -88.11936,25.057671 -89.5342,24.015013 -90.96875,23.96875 z M -101.5,37.96875 C -103.09563,37.895484 -104.78292,38.307579 -105.875,39.1875 C -111.32669,43.580072 -105.30039,50.040304 -98.28125,47.3125 C -94.528906,45.854251 -94.847359,43.935406 -99.3125,45.53125 C -100.36256,45.906543 -101.91696,45.897561 -102.28125,44.875 C -102.83498,43.320656 -99.43088,43.740591 -97.78125,42.9375 C -96.964301,42.432599 -99.91539,41.319394 -101.25,40.75 C -102.47189,40.228698 -101.83088,39.832371 -99.71875,40.5625 C -95.963554,41.860614 -95.134918,41.763692 -97.59375,39.5625 C -98.52994,38.724401 -99.90437,38.042016 -101.5,37.96875 z M -90.59375,38.59375 C -92.128809,38.566121 -93.723824,39.250726 -94.8125,40.5625 C -95.709779,41.643654 -95.722545,42.602507 -94.84375,44.53125 C -93.203193,48.131877 -88.60933,47.539143 -87.21875,43.5625 C -86.40643,41.239517 -86.55288,40.495661 -88,39.4375 C -88.7561,38.884626 -89.67271,38.610328 -90.59375,38.59375 z M -79.5625,39.4375 C -85.92019,39.493874 -89.12848,41.118446 -80.6875,41.75 C -79.32085,41.852253 -77.61886,42.486603 -77.09375,43 C -76.50083,43.579695 -78.04525,43.741425 -80,43.5 C -87.07864,42.625743 -86.90975,43.226628 -81.4375,44.875 C -79.98213,45.313392 -78.96039,46.258298 -82.1875,45.375 C -86.40667,44.220164 -87.86279,43.690834 -84.25,46.40625 C -81.26531,48.649577 -76.09232,48.34903 -74.25,45.71875 C -71.82885,42.262077 -74.23057,39.4375 -79.5625,39.4375 z M -90.40625,39.59375 C -88.47438,39.591838 -87.07895,41.741417 -88.34375,43.75 C -89.50062,45.587169 -91.907534,46.373715 -93,45.28125 C -94.349276,43.93197 -93.690953,40.974068 -91.8125,39.96875 C -91.332479,39.71185 -90.852067,39.594191 -90.40625,39.59375 z M -90.4375,41 C -92.549579,40.92589 -93.49612,42.78513 -92.0625,44.21875 C -91.180904,45.100347 -90.496995,44.300514 -89.8125,43.28125 C -88.84787,41.751229 -89.08355,41.488266 -90.4375,41 z M -57.53125,45.59375 C -58.57436,45.539569 -59.34443,46.694687 -59.6875,47.4375 C -60.1103,48.352938 -60.3181,48.549392 -61.6875,48.09375 C -63.86137,47.370433 -65.40692,50.091771 -62.625,51.1875 C -61.26194,51.724377 -61.71323,53.966446 -64.84375,55.875 C -71.48496,59.923883 -83.95415,57.125452 -87.5625,50.78125 C -88.45059,49.219815 -89.75622,47.70572 -90.40625,47.53125 C -92.93961,46.851285 -93.628734,49.909983 -96.0625,52.34375 C -102.09328,58.374523 -110.86581,60.616117 -117.15625,57.75 C -119.7548,56.566023 -120.90456,56.785765 -121.09375,52.4375 C -121.12356,51.752148 -118.91213,51.955743 -119.375,50.0625 C -119.63228,49.010195 -120.20747,48.324356 -121.96875,49.1875 C -123.69539,50.033665 -122.92279,49.054539 -124.25,47.53125 C -125.49852,46.098273 -126.45517,46.598024 -127.25,47.21875 C -128.0791,47.866236 -127.90598,49.339966 -127.625,50.03125 C -127.2731,50.897043 -127.01261,51.061816 -129.125,51.875 C -130.33385,52.340357 -130.18249,53.580926 -129.75,54.125 C -128.45994,55.747906 -128.4467,54.59375 -126.90625,54.59375 C -123.56373,54.593749 -123.81834,59.130838 -127.1875,62.5 C -130.01597,65.328466 -139.21947,69.891477 -142.125,69.90625 C -144.85641,69.920139 -147.6875,67.013827 -147.6875,64.21875 C -147.6875,61.426158 -145.21674,57.338649 -143.03125,56.5 C -142.12364,56.151711 -142.55825,57.175166 -144.09375,59 C -145.51949,60.694416 -146.6875,62.942199 -146.6875,64 C -146.6875,65.884943 -146.66206,65.880801 -144.8125,64.03125 C -143.77455,62.993312 -142.18794,61.726157 -141.28125,61.21875 C -140.37457,60.711343 -139.52413,58.992153 -139.40625,57.375 C -139.20882,54.666403 -139.47464,54.405818 -142.84375,54.125 C -146.02258,53.860041 -146.86803,54.261795 -149.21875,57.34375 C -151.40667,60.212254 -152.37916,60.774331 -154.34375,60.28125 C -155.94854,59.878472 -157.45315,60.295114 -158.75,61.46875 C -160.67477,63.210649 -160.58936,63.300963 -155.4375,66.75 C -152.54848,68.684129 -147.3438,72.664507 -143.875,75.59375 C -140.40619,78.522991 -137.38564,80.9375 -137.15625,80.9375 C -136.92688,80.937497 -133.37814,79.596206 -129.28125,77.96875 C -104.78235,68.236745 -81.64431,67.728108 -55.25,76.375 L -44.28125,79.96875 L -41.75,76.6875 C -36.57523,70.004598 -31.07967,64.528366 -26.875,61.84375 C -22.84562,59.271054 -22.69003,59.002113 -24.5625,58 C -25.66819,57.408254 -27.36926,56.9375 -28.375,56.9375 C -29.38074,56.9375 -30.67583,55.944356 -31.21875,54.75 C -31.76167,53.555646 -33.39398,51.683277 -34.875,50.59375 C -37.42408,48.718487 -37.7042,48.695084 -40.125,50.28125 C -43.59626,52.555706 -43.33935,54.671051 -39.125,58.53125 C -36.40749,61.020394 -35.45466,61.447139 -35.03125,60.34375 C -34.72653,59.549658 -35.1956,57.777003 -36.09375,56.40625 C -36.9919,55.035497 -37.29332,53.9375 -36.75,53.9375 C -35.49508,53.9375 -33.6875,57.249558 -33.6875,59.5625 C -33.6875,61.527898 -39.45172,67.9375 -41.21875,67.9375 C -43.08479,67.937497 -56.44994,58.990242 -57.09375,57.3125 C -57.90168,55.207054 -57.8624,53.59375 -56.25,53.59375 C -54.97569,53.593749 -54.22697,54.608242 -53.5625,52.90625 C -52.93105,51.28885 -55.16588,50.518997 -55.65625,50.40625 C -56.13416,50.296368 -55.2174,48.9375 -55.5625,47.5625 C -55.98307,45.886833 -56.16745,46.027729 -57.0625,45.6875 C -57.22301,45.626487 -57.38223,45.60149 -57.53125,45.59375 z M -91.045275,50.286907 C -90.683324,50.283709 -89.6879,52.04543 -89.31373,52.381398 C -86.72124,54.709234 -88.20514,54.732956 -89.65625,53.836123 C -90.194887,53.503231 -91.657384,53.375786 -92.90625,54.03125 C -95.164987,55.216739 -95.173048,55.193222 -93.28125,53.0625 C -92.371498,52.037854 -91.648527,50.292237 -91.045275,50.286907 z "
       id="Krona" />
    <path
       d="M -91.692308,132.10279 C -92.517308,131.72895 -93.324535,130.63558 -93.486145,129.67308 C -93.719994,128.28035 -93.056499,127.92308 -90.236145,127.92308 C -86.588018,127.92308 -85.488858,129.2473 -88.25569,130.30903 C -89.11555,130.63899 -89.538993,131.36213 -89.196673,131.91602 C -88.498069,133.04638 -89.452378,133.1178 -91.692308,132.10279 z M -80.054678,125.22738 C -80.437308,124.84474 -84.646658,124.61409 -89.408769,124.71481 C -95.862146,124.8513 -97.778424,124.6092 -96.933378,123.76415 C -95.586137,122.41691 -83.692308,121.4419 -83.692308,122.6787 C -83.692308,123.14937 -82.493308,123.5094 -81.027858,123.47877 C -79.562418,123.44814 -78.174918,123.98558 -77.944528,124.67308 C -77.496378,126.01041 -78.902328,126.37973 -80.054678,125.22738 z M -92.025641,118.25641 C -92.392308,117.88975 -92.692308,116.59726 -92.692308,115.38422 C -92.692308,113.58438 -93.428066,113.06104 -96.692308,112.53907 C -98.892308,112.18728 -100.69231,111.70906 -100.69231,111.47636 C -100.69231,109.87676 -98.549019,105.92308 -97.681875,105.92308 C -96.938773,105.92308 -96.941892,106.52091 -97.692308,107.92308 C -98.824544,110.03868 -98.53519,110.25324 -94.942308,109.96221 C -93.704808,109.86196 -92.692308,110.26215 -92.692308,110.85151 C -92.692308,111.44088 -91.99075,111.92308 -91.133291,111.92308 C -90.275832,111.92308 -89.840309,111.49263 -90.165463,110.96652 C -90.509206,110.41033 -89.492957,110.16988 -87.737475,110.39205 C -86.076928,110.60221 -84.517148,110.44867 -84.271288,110.05087 C -83.646158,109.03939 -84.987958,107.08205 -86.178608,107.26857 C -86.721078,107.35355 -87.316578,106.63558 -87.501938,105.67308 C -87.687298,104.71058 -87.370088,103.92308 -86.797018,103.92308 C -86.223948,103.92308 -86.016058,104.60318 -86.335038,105.43442 C -86.741358,106.49328 -86.455538,106.76945 -85.380338,106.35686 C -83.700458,105.71223 -81.188388,109.2987 -82.187488,110.91527 C -82.510698,111.43825 -84.777738,112.75198 -87.225348,113.83467 C -90.462627,115.26667 -91.512389,116.22837 -91.076935,117.36314 C -90.452237,118.99108 -90.884227,119.39783 -92.025641,118.25641 z M -87.171568,98.402337 C -87.021528,95.868967 -86.660468,93.557906 -86.369208,93.266643 C -86.077948,92.975379 -85.948318,94.795759 -86.081158,97.311927 C -86.213998,99.828097 -86.575058,102.13917 -86.883518,102.44762 C -87.191978,102.75608 -87.321598,100.9357 -87.171568,98.402337 z M -109.69231,92.016697 C -109.69231,91.518187 -108.67981,91.304942 -107.44231,91.542819 C -105.19386,91.975024 -105.19391,91.974485 -107.52425,90.759823 C -109.3312,89.817967 -110.28494,89.812086 -111.76068,90.733701 C -114.2157,92.266886 -114.2413,92.260308 -114.40753,90.053536 C -114.71445,85.979068 -105.3068,84.156981 -100.44231,87.348732 C -98.929808,88.341133 -97.692308,89.606443 -97.692308,90.160532 C -97.692308,90.731576 -98.342063,90.628718 -99.192308,89.923077 C -100.39371,88.926002 -100.69231,88.934805 -100.69231,89.967299 C -100.69231,90.67631 -100.97642,90.972298 -101.32367,90.625049 C -101.67092,90.2778 -102.89605,90.6528 -104.04618,91.458382 C -106.37386,93.088753 -109.69231,93.416896 -109.69231,92.016697 z M -109.82321,87.057006 C -110.40925,86.855666 -111.62197,87.424167 -112.51814,88.32034 C -114.02402,89.826215 -113.94324,89.853968 -111.45262,88.686412 C -109.9704,87.991578 -109.23717,87.258345 -109.82321,87.057006 z M -100.69231,88.398326 C -100.69231,88.109713 -101.89059,87.417991 -103.35515,86.861166 C -105.2688,86.133597 -106.32386,86.181835 -107.10515,87.032621 C -107.89486,87.892578 -107.87557,88.039015 -107.03466,87.567842 C -106.39796,87.211088 -104.82296,87.341547 -103.53466,87.857751 C -100.57962,89.041803 -100.69231,89.020371 -100.69231,88.398326 z M -79.338438,90.458382 C -80.488568,89.6528 -81.713698,89.2778 -82.060948,89.625049 C -82.408198,89.972298 -82.692308,89.67631 -82.692308,88.967299 C -82.692308,87.934805 -82.990908,87.926002 -84.192308,88.923077 C -85.042558,89.628718 -85.692308,89.731576 -85.692308,89.160532 C -85.692308,88.606443 -84.454808,87.341133 -82.942308,86.348732 C -78.077818,83.156981 -68.670168,84.979068 -68.977088,89.053536 C -69.143318,91.260308 -69.168918,91.266886 -71.623938,89.733701 C -73.099678,88.812086 -74.053418,88.817967 -75.860368,89.759823 C -78.190708,90.974485 -78.190758,90.975024 -75.942308,90.542819 C -74.704808,90.304942 -73.692308,90.518187 -73.692308,91.016697 C -73.692308,92.416896 -77.010758,92.088753 -79.338438,90.458382 z M -70.692308,87.423077 C -71.376998,86.598077 -72.669598,85.929711 -73.564748,85.937819 C -74.659348,85.947733 -74.373658,86.406815 -72.692308,87.339771 C -69.382488,89.176335 -69.232028,89.182602 -70.692308,87.423077 z M -76.358388,86.562627 C -75.510528,87.038051 -75.488988,86.893414 -76.279468,86.032621 C -77.060758,85.181835 -78.115818,85.133597 -80.029468,85.861166 C -81.494028,86.417991 -82.692308,87.098575 -82.692308,87.373575 C -82.692308,87.648575 -81.529548,87.431494 -80.108388,86.891172 C -78.687238,86.35085 -76.999738,86.203005 -76.358388,86.562627 z M -97.804964,84.477087 C -98.050259,84.231793 -101.96591,83.920939 -106.50641,83.786301 C -112.63963,83.604435 -114.30305,83.283723 -112.97708,82.538736 C -111.34814,81.623519 -102.69704,81.287389 -98.442308,81.974002 C -97.479808,82.129326 -96.692308,82.85641 -96.692308,83.589744 C -96.692308,84.970509 -97.036805,85.245246 -97.804964,84.477087 z M -86.692308,83.948757 C -86.692308,82.345498 -81.041158,79.923077 -77.300988,79.923077 C -71.788188,79.923077 -72.208268,81.587168 -77.890958,82.260198 C -80.722468,82.595549 -83.501118,83.331885 -84.065728,83.896502 C -85.362768,85.193539 -86.692308,85.21999 -86.692308,83.948757 z "
       style="fill:#003d8f"
       id="Ansikte" />
    <path
       d="M -78.969448,180.33609 C -76.096878,179.53689 -69.604548,176.86701 -64.542028,174.40304 C -59.479518,171.93906 -54.503188,169.92308 -53.483508,169.92308 C -48.194668,169.92308 -51.898646,160.70647 -59.715438,156.18527 C -66.399472,152.192 -73.714743,149.53676 -74.38094,147.00042 C -75.530192,142.62501 -82.5719,152.75363 -92.725826,151.64793 C -94.105001,151.49774 -98.683701,150.34808 -102.12592,148.42308 C -105.56814,146.49808 -108.62998,144.92308 -108.93,144.92308 C -109.23002,144.92308 -109.74489,145.99646 -110.07416,147.30838 C -110.46769,148.87632 -112.21442,150.4183 -115.17167,151.80838 C -117.64603,152.97146 -120.03676,153.92308 -120.48441,153.92308 C -122.30934,153.92308 -129.73406,160.25456 -131.76761,163.54492 C -134.2248,167.52074 -133.86177,168.16738 -128.19231,169.91324 C -125.99231,170.59071 -122.16731,172.32482 -119.69231,173.76682 C -111.64481,178.45547 -105.04044,180.90339 -96.692308,182.29177 C -93.052092,182.89718 -84.968638,182.00519 -78.969448,180.33609 z "
       id="Hals" />
    <g
       id="Hair">
      <path
         d="M -135.15625,81.9375 C -135.41712,81.937497 -136.37092,83.4 -137.28125,85.1875 C -138.19159,86.974997 -141.16645,90.770204 -143.875,93.65625 C -150.2654,100.46544 -154.14705,108.72401 -153.0625,113.1875 C -152.21608,116.60992 -151.18657,119.17234 -148.375,121.34375 C -146.23561,123.17741 -143.95054,124.32599 -141.1875,124.90625 C -139.99845,125.03837 -136.99218,126.3639 -134.3125,127.09375 C -129.42281,128.49873 -120.72659,133.18454 -128.1875,138.03125 C -131.11798,139.93493 -133.01642,137.03232 -129.65625,133.46875 C -127.52633,131.20991 -131.24961,130.65586 -133.59375,133 C -135.80775,135.214 -135.72114,139.4605 -133.40625,141.5625 C -127.37422,146.24576 -121.26711,142.55371 -119.52626,137.17676 C -117.06818,131.41233 -122.35291,125.4056 -128.875,123.46875 C -131.72116,122.62353 -134.7969,122.08861 -135.625,121.84375 C -144.64262,119.1773 -148.38224,115.31566 -148.78125,108.46875 C -148.89824,103.38314 -147.61181,99.880144 -144.25,95.875 C -139.15914,90.163031 -139.57702,93.206315 -136.09689,86.53125 C -135.18554,84.257465 -134.00465,81.9375 -135.15625,81.9375 z "
         id="path2687" />
      <path
         d="M -126.97134,78.773676 C -127.39153,78.756528 -128.53126,82.20202 -130.09375,85.53125 C -131.92989,89.44359 -134.15451,92.241006 -134.85151,93.247412 C -137.797,97.500397 -139.70539,102.44381 -138.84356,106.75 C -138.28134,109.55917 -135.77774,111.594 -134.0625,113.125 C -132.49195,114.52685 -130.08471,117.54503 -127.48414,120.07458 C -126.18386,121.33936 -122.11156,126.9845 -120.79503,127.74184 C -119.4785,128.49919 -121.59447,121.49493 -120.97197,122.52562 C -120.42663,123.42856 -128.6584,113.71044 -130.21875,112.20562 C -134.68278,107.90047 -135.76082,104.77214 -135.67178,102.88276 C -135.52349,99.736127 -134.18608,96.751993 -132.40625,94.0625 C -129.12021,89.096962 -126.19547,83.080169 -125.75537,80.369824 C -125.37389,78.020558 -126.87437,78.777633 -126.97134,78.773676 z "
         id="path2689" />
      <path
         d="M -124.06023,111.42308 C -122.85111,115.43015 -121.70815,116.20199 -122.41785,113.1599 C -122.67208,112.07014 -122.63725,108.89221 -122.62438,107.66123 C -122.60816,106.10976 -122.38826,103.5931 -122.29389,101.01435 C -121.9868,92.623447 -123.38636,97.423077 -123.38636,97.423077 L -124.66433,100.09513 C -125.73426,103.60548 -125.19342,107.66764 -124.06023,111.42308 z "
         id="path2691" />
      <path
         d="M -137.19342,117.82547 C -140.49046,115.03441 -142.57478,113.53618 -143.8494,110.28453 C -144.61842,108.3227 -144.90894,106.42726 -143.3933,101.64883 C -142.6258,99.229087 -137.94443,91.310413 -138.59209,91.420771 C -140.61299,91.765119 -144.26433,96.83549 -145.01862,97.87818 C -147.57475,101.41162 -148.23108,107.64029 -147.33607,111.20631 C -146.14856,115.93774 -142.58795,118.73759 -138.5565,120.10175 C -134.87664,121.34695 -131.25981,122.5624 -130.91904,122.0415 C -130.57827,121.5206 -133.95514,120.5668 -137.19342,117.82547 z "
         id="path2693" />
      <path
         d="M -136.00758,93.34375 C -133.41557,89.751476 -131.34866,86.006764 -129.26054,81.869824 C -128.17257,79.714339 -131.02353,77.651796 -131.82026,79.700824 C -133.89786,85.044013 -137.01353,88.496574 -137.43144,90.016165 C -138.45634,93.742917 -141.51319,98.509945 -142.375,100.9375 C -143.76658,104.85731 -143.86589,106.28352 -143.88018,108.03863 C -143.88838,109.10127 -142.55711,111.32196 -141.95063,112.19469 C -140.56551,114.08621 -137.10264,117.84565 -133.96313,119.55059 C -131.62912,120.8181 -125.40971,124.86318 -124.36138,124.52435 C -123.80215,124.34361 -136.09712,112.54828 -137.125,111.375 C -141.56047,106.31212 -140.45651,101.30117 -136.00758,93.34375 z "
         id="path2695" />
      <path
         d="M -129.67035,100.1877 C -129.43583,99.549878 -128.34878,96.358233 -126.7067,93.187694 C -123.7571,87.492609 -121.88485,78.923077 -123.5902,78.923077 C -124.07394,78.923077 -124.75151,80.425096 -125.0959,82.260898 C -125.4403,84.096699 -127.53849,88.610365 -129.75855,92.291265 C -135.23088,101.36451 -136.17079,104.48418 -131.78257,109.28244 C -129.53127,111.7441 -121.59229,121.78985 -121.64551,120.43693 C -121.72899,118.31511 -129.25985,107.37954 -129.67822,106.05932 C -130.43082,103.68444 -130.57035,102.63542 -129.67035,100.1877 z "
         id="path2697" />
      <path
         d="M -125.75102,107.34571 C -126.11483,104.00099 -127.05642,100.99277 -124.69231,97.423077 C -123.59956,95.773077 -121.96919,90.777601 -121.98136,89.402585 C -122.00613,86.674196 -122.10253,83.531792 -123.85639,88.69822 C -124.30673,90.024797 -126.7178,95.23918 -127.77948,97.423077 C -128.96664,99.86509 -129.27598,102.48108 -128.96456,104.92308 C -128.8552,105.78061 -127.81311,107.88558 -126.97971,109.67308 C -126.18133,111.38547 -123.22659,116.63727 -122.22697,117.21101 C -121.93943,115.81398 -125.25306,111.92375 -125.75102,107.34571 z "
         id="path2699" />
    </g>
    <use
       transform="matrix(-1,0,0,1.065169,-184.255,-6.326008)"
       id="Hair-2"
       x="0"
       y="0"
       width="193"
       height="232"
       xlink:href="#Hair" />
  </g>
</svg>
