<?xml version="1.0" encoding="UTF-8" standalone="no"?>
<!-- Created with Inkscape (http://www.inkscape.org/) -->
<svg
   xmlns:svg="http://www.w3.org/2000/svg"
   xmlns="http://www.w3.org/2000/svg"
   version="1.0"
   width="251"
   height="304.04999"
   id="svg2064">
  <defs
     id="defs2066" />
  <g
     id="Nacka_kommunvapen">
    <path
       d="M 1.4495603,1.2894791 L 125.50006,1.2894791 L 249.55061,1.2894791 L 249.55061,174.78608 C 250.31785,268.50696 169.26117,302.60583 125.50008,302.60583 C 82.506226,302.60583 0.68233088,268.50696 1.4495603,174.78608 L 1.4495603,1.2894791 z "
       style="color:#000000;fill:#003d8f;fill-opacity:1;fill-rule:nonzero;stroke:#000000;stroke-width:1.88832211;stroke-linecap:round;stroke-linejoin:bevel;marker:none;marker-start:none;marker-mid:none;marker-end:none;stroke-miterlimit:4;stroke-dashoffset:0;stroke-opacity:1;visibility:visible;display:block"
       id="Shield" />
    <path
       d="M 125,27.892069 C 62.900011,27.892069 12.5,78.29208 12.5,140.39207 C 12.5,202.49206 62.900007,252.89206 125,252.89206 C 187.09999,252.89206 237.5,202.49206 237.5,140.39207 C 237.5,78.292083 187.09998,27.892068 125,27.892069 z M 125,56.017069 C 129.98217,56.017069 134.87918,56.453148 139.625,57.282694 L 139.625,101.01707 L 110.375,101.01707 L 110.375,57.282694 C 115.12082,56.453148 120.01783,56.017069 125,56.017069 z M 85.625,65.790507 L 85.625,101.01707 L 50.398438,101.01707 C 58.331762,86.024743 70.632674,73.723831 85.625,65.790507 z M 164.375,65.790507 C 179.36733,73.723831 191.66824,86.024745 199.60156,101.01707 L 164.375,101.01707 L 164.375,65.790507 z M 41.890625,125.76707 L 85.625,125.76707 L 85.625,155.01707 L 41.890625,155.01707 C 41.061079,150.27125 40.625,145.37424 40.625,140.39207 C 40.625,135.4099 41.061079,130.51289 41.890625,125.76707 z M 110.375,125.76707 L 139.625,125.76707 L 139.625,155.01707 L 110.375,155.01707 L 110.375,125.76707 z M 164.375,125.76707 L 208.10938,125.76707 C 208.93892,130.51289 209.375,135.4099 209.375,140.39207 C 209.375,145.37424 208.93892,150.27125 208.10938,155.01707 L 164.375,155.01707 L 164.375,125.76707 z M 50.398438,179.76707 L 85.625,179.76707 L 85.625,214.99363 C 70.632674,207.06031 58.331762,194.75939 50.398438,179.76707 z M 110.375,179.76707 L 139.625,179.76707 L 139.625,223.50144 C 134.87918,224.33099 129.98217,224.76707 125,224.76707 C 120.01783,224.76707 115.12082,224.33099 110.375,223.50144 L 110.375,179.76707 z M 164.375,179.76707 L 199.60156,179.76707 C 191.66824,194.75939 179.36733,207.06031 164.375,214.99363 L 164.375,179.76707 z "
       style="fill:#eeeeee;fill-opacity:1;fill-rule:evenodd;stroke:none;stroke-width:1.88800001;stroke-linecap:butt;stroke-miterlimit:4;stroke-opacity:1"
       id="Kvarnhjul" />
  </g>
</svg>
