<?xml version="1.0" encoding="UTF-8" standalone="no"?>
<!-- Created with Inkscape (http://www.inkscape.org/) -->
<svg
   xmlns:svg="http://www.w3.org/2000/svg"
   xmlns="http://www.w3.org/2000/svg"
   version="1.0"
   width="251"
   height="304.04999"
   id="svg2064">
  <defs
     id="defs2066" />
  <g
     id="Solnas_kommunvapen">
    <g
       transform="matrix(2.500438,0,0,2.362345,-223.9197,-8.280689)"
       style="fill:#003d8f;fill-opacity:1"
       id="Shield">
      <path
         d="M 90.131913,4.0511306 L 139.74342,4.0511306 L 189.35495,4.0511306 L 189.35495,77.493663 C 189.66179,117.16648 157.2448,131.60081 139.74343,131.60081 C 122.5489,131.60081 89.825075,117.16648 90.131913,77.493663 L 90.131913,4.0511306 z "
         style="color:#000000;fill:#003d8f;fill-opacity:1;fill-rule:nonzero;stroke:#000000;stroke-width:0.7769559;stroke-linecap:round;stroke-linejoin:bevel;marker:none;marker-start:none;marker-mid:none;marker-end:none;stroke-miterlimit:4;stroke-dashoffset:0;stroke-opacity:1;visibility:visible;display:block"
         id="path2124" />
    </g>
    <path
       d="M 125.49999,19.736819 C 118.23191,29.437083 117.62868,39.661363 119.44484,50.273164 C 121.246,60.797041 120.44057,71.014348 113.97118,80.007483 C 110.76049,68.091715 104.74298,60.09978 96.848369,54.764393 C 87.424084,48.395205 82.413483,40.052811 79.585204,28.879674 C 76.582503,40.622922 79.921499,50.286962 85.660399,59.395964 C 91.348763,68.42476 94.524333,78.172275 91.996236,88.949847 C 84.470658,79.173429 75.846174,74.09571 66.512523,72.187949 C 55.368257,69.910091 47.536634,64.124989 40.647873,54.884693 C 42.367684,66.883124 49.163215,74.529901 57.951128,80.749339 C 66.66673,86.917601 73.329559,94.716698 75.114029,105.65159 C 64.416999,99.495406 54.514688,98.087471 45.159143,99.897211 C 33.991477,102.05748 24.543364,99.722732 14.642854,93.822018 C 20.823358,104.24897 30.028515,108.70216 40.527573,111.08517 C 50.936121,113.44765 60.057431,118.1141 65.890971,127.52628 C 53.661012,125.93679 43.983322,128.43202 36.036343,133.68168 C 26.545454,139.9512 16.904961,141.3996 5.5,139.73681 C 15.200249,147.0049 25.424542,147.60814 36.036343,145.79196 C 46.560222,143.99082 56.777527,144.79623 65.770671,151.26563 C 53.854894,154.47632 45.862959,160.49384 40.527573,168.38844 C 34.158371,177.81274 25.815991,182.82332 14.642854,185.65162 C 26.386088,188.65433 36.050142,185.31531 45.159143,179.57642 C 54.187927,173.88806 63.935462,170.71248 74.713021,173.24059 C 64.936616,180.76616 59.858876,189.39065 57.951128,198.7243 C 55.673272,209.86856 49.888169,217.70023 40.647873,224.58891 C 52.64629,222.86917 60.293088,216.07366 66.512523,207.28569 C 72.680788,198.57008 80.479883,191.90724 91.414778,190.12279 C 85.258579,200.81983 83.850648,210.72218 85.660399,220.07766 C 87.820664,231.24534 85.48592,240.69341 79.585204,250.5939 C 90.012155,244.41344 94.465333,235.20829 96.848369,224.70928 C 99.212774,214.29218 103.88178,205.1587 113.30953,199.3258 C 111.71407,211.5658 114.19236,221.26928 119.44484,229.22053 C 125.71435,238.71139 127.16277,248.33185 125.49999,259.73678 C 132.76806,250.03655 133.37132,239.83233 131.55512,229.22053 C 129.75397,218.69659 130.57837,208.46041 137.04886,199.46614 C 140.26005,211.37542 146.25999,219.39585 154.15161,224.72933 C 163.5759,231.09855 168.58649,239.42082 171.41478,250.5939 C 174.4175,238.85074 171.07851,229.20671 165.3396,220.0977 C 159.6479,211.06371 156.48702,201.29018 159.02381,190.50373 C 166.54868,200.28084 175.1538,205.37794 184.48747,207.28569 C 195.63172,209.56347 203.46337,215.34867 210.35212,224.58891 C 208.6323,212.59046 201.8368,204.94372 193.04887,198.7243 C 184.33325,192.55606 177.68939,184.73797 175.90601,173.80198 C 186.59754,179.95252 196.4892,181.38542 205.84082,179.57642 C 217.00851,177.41613 226.45665,179.75093 236.35713,185.65162 C 230.1766,175.22463 220.97149,170.77147 210.47242,168.38844 C 200.06387,166.02598 190.96202,161.3409 185.12907,151.9273 C 197.35036,153.51221 207.04101,151.03877 214.98369,145.79196 C 224.47457,139.52245 234.09505,138.07403 245.5,139.73681 C 235.79973,132.46873 225.59551,131.86548 214.98369,133.68168 C 204.45982,135.48284 194.22354,134.65843 185.2293,128.18794 C 197.13851,124.97673 205.15909,118.97681 210.49247,111.08517 C 216.86166,101.66092 225.18402,96.650301 236.35713,93.822018 C 224.6139,90.81931 214.96989,94.158301 205.8609,99.897211 C 196.82686,105.58887 187.05334,108.74978 176.2669,106.21299 C 186.04399,98.688117 191.14111,90.082984 193.04887,80.749339 C 195.3267,69.605063 201.11185,61.773441 210.35212,54.884693 C 198.35368,56.604504 190.70688,63.400023 184.48747,72.187949 C 178.3192,80.903545 170.50111,87.547398 159.56514,89.330806 C 165.71567,78.639271 167.14859,68.747595 165.3396,59.395964 C 163.17932,48.228283 165.51408,38.780156 171.41478,28.879674 C 160.98782,35.060179 156.53463,44.265321 154.15161,54.764393 C 151.79035,65.167633 147.11449,74.274413 137.71053,80.107743 C 139.29474,67.887161 136.80191,58.215849 131.55512,50.273164 C 125.2856,40.782288 123.83718,31.141782 125.49999,19.736819 z "
       style="color:#000000;fill:#ffcd50;fill-opacity:1;fill-rule:nonzero;stroke:none;stroke-width:3;stroke-linecap:butt;stroke-linejoin:miter;marker:none;marker-start:none;marker-mid:none;marker-end:none;stroke-miterlimit:4;stroke-dasharray:none;stroke-dashoffset:0;stroke-opacity:1;visibility:visible;display:inline;overflow:visible"
       id="Sun" />
  </g>
</svg>
