<?xml version="1.0" encoding="UTF-8" standalone="no"?>
<!-- Created with Inkscape (http://www.inkscape.org/) -->

<svg
   xmlns:svg="http://www.w3.org/2000/svg"
   xmlns="http://www.w3.org/2000/svg"
   version="1.0"
   width="251"
   height="304.20001"
   id="svg4166">
  <defs
     id="defs4168">
    <clipPath
       id="clipPath3274">
      <path
         d="m 155.74456,-100.2342 -124.050526,0 c 0,0 1e-5,301.31635 1e-5,301.31635 42.99385,0 124.817746,-34.09887 124.050516,-127.81975 l 0,-173.4966 z"
         id="path3276" />
    </clipPath>
  </defs>
  <path
     d="m 249.55058,1.4395041 -124.05053,0 -124.0505209,0 0,173.4965959 C 0.68228908,268.65698 81.738969,302.75585 125.50006,302.75585 c 42.99385,0 124.81775,-34.09887 124.05052,-127.81975 l 0,-173.4965959 z"
     id="Shield"
     style="color:#000000;fill:#d40000;fill-opacity:1;stroke:none" />
  <path
     d="m 249.55058,1.4395041 -124.05053,0 c 0,0 1e-5,301.3163459 1e-5,301.3163459 42.99385,0 124.81775,-34.09887 124.05052,-127.81975 l 0,-173.4965959 z"
     id="path3272"
     style="color:#000000;fill:#eeeeee;fill-opacity:1;stroke:none" />
  <path
     d="m 49.054165,77.988989 c 3.783229,-0.405327 9.078364,-0.881873 11.792094,-1.061267 1.643004,-0.108616 4.970017,-0.375215 7.393347,-0.592434 4.691424,-0.420544 5.532318,-0.320355 4.958034,0.590772 -1.096373,1.739438 -3.576566,8.684282 -4.090195,11.453123 -0.180523,0.973 -0.421918,1.930024 -0.536523,2.126683 -0.114577,0.196682 -0.331807,1.162123 -0.482746,2.145454 -0.150938,0.983364 -0.522047,3.296878 -0.824688,5.141142 -1.152964,7.026398 -1.519157,14.530068 -1.123061,23.013618 0.281071,6.02039 1.264412,15.57988 1.905333,18.52224 0.147809,0.67865 0.268744,1.67964 0.268744,2.22445 0,0.54481 0.107758,1.26996 0.239506,1.61145 0.131705,0.34152 0.39242,1.42549 0.579345,2.40882 0.771703,4.05946 1.915222,9.15918 2.827513,12.60984 0.533711,2.01867 0.970378,3.90938 0.970378,4.20155 0,0.29218 0.108607,0.5312 0.241351,0.5312 0.132743,0 0.324427,0.583 0.42594,1.29554 0.101529,0.71256 0.297637,1.55735 0.435788,1.8773 0.138178,0.31995 0.813226,2.43222 1.500083,4.69389 1.256294,4.13659 1.924133,6.16721 2.862923,8.70509 0.279702,0.7561 0.508523,1.43997 0.508523,1.51971 0,0.5578 -0.591511,-0.0932 -1.249013,-1.37472 -0.953741,-1.85886 -7.3945,-10.37215 -9.07388,-11.99373 -2.614392,-2.52437 -5.496577,-4.94986 -6.310943,-5.31093 -0.261392,-0.11591 -0.475263,-0.34008 -0.475263,-0.49817 0,-0.15812 -0.358177,-0.39104 -0.795955,-0.51767 -0.437776,-0.1266 -0.941571,-0.4612 -1.119528,-0.74357 -0.177986,-0.28236 -0.498013,-0.51337 -0.711193,-0.51337 -0.213194,0 -0.762765,-0.25546 -1.221347,-0.56769 -0.458552,-0.31222 -1.460678,-0.80103 -2.226976,-1.08624 -4.835211,-1.7996 -5.408038,-1.92187 -9.004761,-1.92187 l -3.604883,0 -1.995877,1.35704 c -2.811683,1.91173 -3.267063,2.2916 -3.838607,3.20209 -0.277771,0.44252 -0.648923,0.80142 -0.82479,0.79757 -0.17588,-0.004 -0.937751,-0.76815 -1.693047,-1.69849 -1.948125,-2.39958 -5.84684,-7.02083 -6.106574,-7.23828 -0.299742,-0.25096 -1.182994,-4.82715 -1.724593,-8.9352 -0.246325,-1.86834 -0.584261,-4.28199 -0.750985,-5.36366 -0.166712,-1.08169 -0.359691,-6.48022 -0.428809,-11.99672 -0.102554,-8.18357 -0.03777,-10.94832 0.351876,-15.01833 0.110382,-3.03112 0.722208,-5.94262 1.046157,-8.92167 0.193889,-1.78309 0.42548,-3.228263 0.703236,-4.98846 0,-1.272982 1.209667,-6.761093 2.250174,-10.208644 1.330414,-4.408258 2.646341,-7.902197 3.039726,-8.070892 0.279903,-0.120016 6.683278,-0.769115 11.072395,-1.122386 m 137.324216,166.196282 2.82758,-0.0258 -0.17812,-12.0176 -0.17811,-12.01768 -2.05658,-2.76022 c -1.13114,-1.5181 -2.27155,-3.19167 -2.5343,-3.71908 l -0.47768,-0.95884 -0.87508,5.09875 c -0.48128,2.80427 -1.12853,6.54692 -1.43831,8.31693 -2.25538,12.88646 -2.99669,17.65001 -2.80898,18.04985 0.0645,0.13742 1.19157,0.20701 2.50463,0.15466 1.31307,-0.0523 3.65979,-0.10678 5.21495,-0.12097 z m -9.50548,-3.50708 c 0.88991,-4.92826 1.1241,-6.57058 0.98052,-6.87645 -0.12875,-0.27431 -0.48502,-0.21206 -5.93602,1.03747 -3.88572,0.89071 -8.43499,1.67016 -13.8945,2.38058 -2.24047,0.29155 -5.23456,0.68617 -6.65353,0.87697 -1.41897,0.19077 -3.61871,0.42506 -4.88832,0.52062 -1.26961,0.0956 -3.16383,0.3331 -4.20938,0.52787 -1.04557,0.19475 -5.32285,0.43756 -9.50507,0.53958 -8.04368,0.19622 -10.69155,0.3326 -14.15539,0.72909 -2.5866,0.29606 -14.898333,-0.39192 -19.791264,-1.10597 -3.226205,-0.47079 -4.532587,-0.70864 -10.720057,-1.95167 -1.787223,-0.35903 -3.580215,-0.86434 -9.512162,-2.68066 -3.611558,-1.10584 -12.061386,-5.2477 -16.401149,-8.03933 -1.221376,-0.78568 -2.31628,-1.42849 -2.433106,-1.42849 -0.11687,0 -0.135439,0.36204 -0.04128,0.80454 0.280856,1.32036 0.753827,2.41365 1.04411,2.41365 0.149729,0 0.496544,0.26729 0.770696,0.59403 0.27418,0.32671 0.724615,0.76922 1.000972,0.98332 0.276357,0.21414 1.008268,0.83346 1.62651,1.37629 1.705881,1.49779 3.771681,2.90437 5.878688,4.00274 1.045567,0.54506 2.056748,1.1567 2.247061,1.35924 0.190313,0.20251 0.415213,0.27709 0.499801,0.16574 0.08457,-0.11139 0.662101,0.0388 1.283415,0.33376 0.621299,0.29493 1.31294,0.59879 1.536991,0.67521 0.224035,0.0764 1.72109,0.61075 3.326767,1.18738 1.605677,0.5766 2.919412,0.97309 2.919412,0.88108 0,-0.092 0.191105,0.0843 0.424685,0.39183 0.848449,1.11719 -0.177669,1.63056 -1.899061,0.95016 -0.458711,-0.18131 -1.872763,-0.67051 -3.142365,-1.08703 -2.813501,-0.9231 -5.111281,-1.78279 -5.838824,-2.18452 -0.298734,-0.16496 -1.154188,-0.53427 -1.901022,-0.82069 -1.67589,-0.64271 -5.335604,-2.63924 -5.687755,-3.10294 -0.314968,-0.41471 -0.96578,-0.45254 -0.96578,-0.0562 0,0.15713 0.877702,1.45056 1.950417,2.87425 1.798225,2.38653 4.626892,5.06434 5.349676,5.06434 0.167188,0 0.303953,0.15361 0.303953,0.34138 0,0.78016 1.406238,0.82547 40.192839,1.29517 11.12771,0.1348 20.27927,0.29935 20.33681,0.36571 0.0575,0.0664 10.26732,0.12805 22.68839,0.13706 l 22.58384,0.0164 0.63048,-3.49152 z m -109.962805,1.51461 c -0.185929,-0.29501 -0.476761,-0.53636 -0.646284,-0.53636 -0.721242,0 -5.599895,-6.35373 -5.599895,-7.29306 0,-0.1014 -0.29595,-0.75855 -0.657674,-1.46038 -0.86314,-1.67476 -2.119463,-6.12626 -2.676316,-9.48313 -0.65942,-3.97497 -1.475572,-9.47643 -1.856673,-12.51524 -0.401157,-3.19876 -1.034206,-5.296 -2.200087,-7.28873 -2.934853,-5.01618 -6.991773,-8.39557 -12.434097,-10.35741 -4.68374,-1.68838 -4.469249,-1.54867 -5.449288,-3.55012 -0.502973,-1.02718 -1.010415,-2.02851 -1.127645,-2.22518 -0.716168,-1.20138 -2.652297,-4.8933 -3.281669,-6.25763 -0.40825,-0.88502 -1.167872,-2.39099 -1.688017,-3.34664 -0.520173,-0.95565 -0.945753,-1.89597 -0.945753,-2.08961 0,-0.36923 2.118699,-0.14496 4.345172,0.45995 1.196332,0.32504 1.806961,0.46382 7.060904,1.60461 1.418969,0.30812 3.252084,0.71563 4.0736,0.90562 1.263605,0.29223 4.429226,0.95856 7.739846,1.62919 0.448085,0.0908 2.036793,0.47115 3.530446,0.84529 6.287903,1.57503 10.201425,2.25713 10.52275,1.83405 0.45802,-0.60305 -0.08029,-1.16685 -1.250801,-1.31008 -0.534737,-0.0654 -1.125672,-0.24384 -1.313187,-0.39642 -0.187531,-0.15261 -0.955067,-0.40225 -1.705707,-0.55473 -2.706954,-0.55002 -7.66806,-1.70409 -10.462441,-2.43382 -5.078698,-1.32627 -5.817861,-1.51082 -7.19669,-1.79658 -2.910315,-0.60321 -12.588106,-2.98976 -14.529167,-3.58295 -2.533868,-0.77433 -4.356171,-1.16965 -4.502639,-0.97682 -0.138654,0.1826 0.800092,2.24139 1.264209,2.77252 0.08591,0.0984 0.391438,0.73715 0.678926,1.41959 0.287489,0.68247 0.735372,1.55589 0.995293,1.94096 0.259921,0.38509 1.079419,1.91855 1.821105,3.40772 0.741701,1.48915 1.521954,2.96903 1.733951,3.28862 0.211968,0.31958 0.431259,0.73395 0.487258,0.92078 0.056,0.18683 0.629475,1.29308 1.274359,2.45834 0.644873,1.16528 1.56143,2.90901 2.036794,3.87493 l 0.864279,1.75628 3.93561,1.71601 c 4.551112,1.98435 4.692549,2.06729 7.141327,4.18633 4.620879,3.9987 5.899492,7.65036 7.784049,22.23088 0.555122,4.29481 1.210043,7.31334 1.784456,8.22431 0.186031,0.29499 0.612202,1.26047 0.947108,2.14549 0.738111,1.95062 2.33064,4.88613 3.256409,6.00248 1.273033,1.53513 5.214815,4.29389 6.211535,4.3473 0.300621,0.0162 0.307339,-0.0837 0.03464,-0.51636 z m 68.572235,-4.42522 c 1.49366,-0.19321 4.12113,-0.44671 5.83882,-0.56325 1.71771,-0.11659 4.10077,-0.37361 5.2957,-0.57121 1.19491,-0.19755 3.39465,-0.5035 4.8883,-0.67988 3.37299,-0.39829 7.10116,-1.04748 16.83757,-2.93186 1.04554,-0.20233 2.97957,-0.67544 4.29777,-1.05134 1.31825,-0.37585 2.68295,-0.6834 3.03268,-0.6834 0.34977,0 1.1873,-0.31121 1.86118,-0.69156 1.1408,-0.64385 1.2382,-0.80523 1.41311,-2.34075 0.10329,-0.9071 0.11549,-1.7445 0.0271,-1.86083 -0.0884,-0.11642 -1.47797,0.13605 -3.08793,0.561 -1.60998,0.4249 -3.72156,0.91739 -4.69245,1.0944 -2.8104,0.51233 -5.71753,1.09011 -7.33247,1.45736 -0.82152,0.18677 -3.08237,0.51063 -5.02412,0.71972 -1.94175,0.20903 -4.2026,0.52797 -5.0241,0.70868 -0.82151,0.18074 -3.02126,0.41429 -4.88833,0.51906 -3.86103,0.21659 -7.62705,0.54427 -8.82613,0.76794 -0.9873,0.18416 -31.90411,0.18083 -32.14627,-0.003 -0.094,-0.0716 -1.88185,-0.24179 -3.972966,-0.37837 -4.790278,-0.31278 -8.920238,-0.78065 -10.931886,-1.23839 -0.858253,-0.19532 -2.477035,-0.52096 -3.597285,-0.72368 -3.427966,-0.62036 -6.734332,-1.37396 -7.667354,-1.74759 -0.487965,-0.19542 -1.437136,-0.45649 -2.109285,-0.58016 -0.672135,-0.12369 -1.588693,-0.36956 -2.036793,-0.54634 -0.4481,-0.1768 -1.853487,-0.66153 -3.123089,-1.07719 -2.964626,-0.97056 -8.057754,-3.04545 -10.31978,-4.2041 -2.504328,-1.28276 -5.263949,-2.59345 -5.460519,-2.59345 -0.449441,0 0.186924,1.90533 0.810703,2.42721 0.391612,0.32763 0.775424,0.70971 0.852961,0.84899 0.07751,0.1393 1.23849,0.94239 2.579949,1.78467 1.34146,0.84224 2.479732,1.65719 2.529501,1.81103 0.04981,0.15383 0.267966,0.27969 0.484822,0.27969 0.216856,0 0.664941,0.23025 0.995782,0.51163 0.330799,0.28141 1.39583,0.8639 2.366683,1.29447 0.970884,0.43056 2.131863,0.98087 2.579949,1.22289 2.307556,1.24629 3.849738,1.97713 4.172173,1.97713 0.197825,0 1.539746,0.46866 2.982071,1.04147 5.488692,2.17987 12.475908,3.89244 21.22516,5.20231 2.016438,0.30187 4.032874,0.61069 4.480965,0.68624 1.645988,0.27758 28.058378,-0.10897 30.687768,-0.44908 z m -8.69035,-6.99622 c 6.43245,-0.21178 15.66729,-0.79984 17.51648,-1.11544 0.52279,-0.0892 1.74487,-0.24747 2.71573,-0.35175 0.97088,-0.10425 3.72056,-0.44029 6.1104,-0.7467 2.38985,-0.30638 5.44505,-0.69091 6.78934,-0.85442 2.90637,-0.35354 8.25078,-1.34594 8.82614,-1.6389 0.22405,-0.1141 1.38503,-0.42391 2.57994,-0.68846 2.64833,-0.58641 6.82806,-1.79242 7.70322,-2.22266 0.6681,-0.32844 1.3827,-2.37722 1.39039,-3.98628 0.004,-0.84617 -0.0189,-0.85349 -1.96482,-0.62338 -1.08288,0.12803 -2.27441,0.30623 -2.64783,0.39598 -0.37342,0.0897 -2.26763,0.41673 -4.20938,0.72661 -1.94176,0.30987 -3.95818,0.71718 -4.48097,0.90515 -0.52277,0.18797 -1.63166,0.34264 -2.46421,0.34374 -0.83254,0.001 -2.72678,0.23453 -4.20941,0.51876 -1.48259,0.28422 -4.95651,0.68441 -7.71976,0.88937 -2.76326,0.20494 -5.63516,0.46399 -6.38198,0.57566 -1.71735,0.25686 -39.89434,0.25806 -43.180144,0.001 -4.548877,-0.35534 -9.876682,-0.99616 -13.442883,-1.61696 -1.82151,-0.31706 -6.714507,-1.16002 -9.640839,-1.66095 -0.597466,-0.10226 -1.819548,-0.40699 -2.715733,-0.67714 -0.896201,-0.2702 -2.179384,-0.59417 -2.851519,-0.71998 -0.672151,-0.12584 -1.64981,-0.36961 -2.172579,-0.54173 -0.522782,-0.17211 -2.294811,-0.72871 -3.937801,-1.23688 -1.643033,-0.50815 -3.170624,-1.02221 -3.394674,-1.14236 -0.22405,-0.12015 -0.697641,-0.28239 -1.052415,-0.36047 -0.35479,-0.0781 -1.515769,-0.51537 -2.579949,-0.97165 -1.064193,-0.45627 -2.337703,-0.94523 -2.830036,-1.08654 -0.866082,-0.24863 -0.891067,-0.22396 -0.769166,0.75843 0.06932,0.55846 0.136044,1.14465 0.148342,1.30264 0.02148,0.27657 3.888565,2.73718 6.132712,3.90229 0.597467,0.31015 2.016163,1.07511 3.152646,1.69984 1.136484,0.62476 2.480755,1.27688 2.98729,1.44916 0.506549,0.17227 3.304016,1.13805 6.216638,2.14607 8.073325,2.79424 9.537622,3.18937 16.430172,4.43342 1.7924,0.32354 3.992127,0.74022 4.888327,0.92599 0.896185,0.18577 3.340352,0.42645 5.431467,0.53484 2.091104,0.10839 4.413064,0.296 5.159904,0.4169 1.36378,0.2208 11.16935,0.72273 11.67764,0.59775 0.14937,-0.0367 3.20456,-0.16332 6.78932,-0.28137 z m -4.26275,-9.77647 c -0.0693,-0.47368 -0.44766,-0.58803 -1.98499,-0.59984 l -1.89945,-0.0146 -0.0894,-1.43031 c -0.12482,-1.99746 0.40402,-4.18811 0.97606,-4.04308 0.24608,0.0624 0.51873,0.5149 0.6059,1.00555 0.13359,0.75186 0.33826,0.90933 1.30188,1.002 1.13776,0.10943 1.14338,0.10392 1.14338,-1.11835 0,-0.67554 -0.15277,-1.39493 -0.33948,-1.59867 -0.21957,-0.23957 -2.97728,-0.34541 -7.80772,-0.29968 -7.46137,0.0707 -19.990841,-0.28042 -22.812154,-0.63918 -0.821517,-0.10444 -2.532429,-0.34827 -3.80203,-0.5418 -1.269603,-0.19357 -3.286039,-0.44247 -4.480957,-0.55318 -1.194919,-0.11069 -2.701633,-0.29013 -3.348264,-0.39876 -1.109566,-0.18642 -1.170669,-0.1508 -1.086282,0.6332 0.06943,0.64537 0.28629,0.85569 0.971979,0.94276 0.495794,0.0629 0.882618,-0.0546 0.882618,-0.26819 0,-0.63713 1.092856,-0.42338 1.255243,0.24551 0.08353,0.34417 0.284979,0.99106 0.447652,1.43753 0.425969,1.16913 0.0093,1.46935 -1.635002,1.17809 -1.253007,-0.22195 -1.42576,-0.17621 -1.42576,0.37743 0,0.82111 0.282024,1.02411 1.688204,1.21501 0.63984,0.0869 1.468839,0.24324 1.842256,0.34749 0.373402,0.10428 1.595484,0.34826 2.715719,0.54218 1.665915,0.28838 8.262326,1.44643 11.134505,1.9547 0.373417,0.0661 2.328751,0.22358 4.345189,0.35004 2.016417,0.12643 4.582794,0.32139 5.703024,0.43324 3.68102,0.36746 10.868,0.65898 13.34878,0.54147 2.08079,-0.0985 2.42227,-0.20038 2.3491,-0.70057 z m 3.85539,-0.0968 c 0,-0.66044 -0.1423,-0.72303 -1.4232,-0.62575 -1.09998,0.0835 -1.44374,0.25023 -1.51358,0.73385 -0.0773,0.53534 0.12837,0.62577 1.42323,0.62577 1.34535,0 1.51355,-0.0815 1.51355,-0.73387 z m 3.75302,-0.0601 c -0.0784,-0.71684 -0.21862,-0.78321 -1.44464,-0.68357 -1.54984,0.12599 -1.61959,0.17209 -1.39993,0.92573 0.11586,0.3975 0.54804,0.55177 1.5461,0.55177 1.27609,0 1.37841,-0.0626 1.29847,-0.79393 z m 3.71524,-0.10002 c 0,-0.59598 -0.18103,-0.71516 -1.08628,-0.71516 -1.20296,0 -1.76522,0.36159 -1.76522,1.1352 0,0.39213 0.3323,0.4861 1.42576,0.40321 1.21735,-0.0923 1.42574,-0.21264 1.42574,-0.82325 z m 3.39467,-0.17878 c 0,-0.60922 -0.18105,-0.71516 -1.22208,-0.71516 -0.83734,0 -1.22208,0.15011 -1.22208,0.47675 0,0.75659 0.2898,0.95356 1.40314,0.95356 0.85997,0 1.04102,-0.12438 1.04102,-0.71515 z m 14.66497,-0.53978 c 2.31516,-0.29704 5.43146,-0.7213 6.92511,-0.94284 1.49366,-0.22148 3.63228,-0.52066 4.75255,-0.66477 1.12024,-0.14414 3.19777,-0.51877 4.61674,-0.8325 1.41898,-0.31378 3.19099,-0.64845 3.93782,-0.7437 1.98088,-0.25266 8.06734,-1.54498 8.62477,-1.83128 0.2627,-0.13491 0.54457,-0.67007 0.62642,-1.18919 0.0819,-0.51913 0.25868,-1.58661 0.39296,-2.37218 0.13432,-0.78557 0.14052,-1.56479 0.0138,-1.73168 -0.21978,-0.28935 -4.50804,0.0697 -10.0653,0.84282 -1.41897,0.19737 -4.83787,0.52991 -7.59761,0.73897 -2.75972,0.20906 -5.38718,0.43703 -5.83884,0.50664 -1.267,0.19524 -5.59674,0.51667 -9.64728,0.71616 -2.01643,0.0993 -4.98928,0.35493 -6.60635,0.5681 -1.61706,0.21311 -3.2068,0.29937 -3.53271,0.19167 -1.02412,-0.33848 -1.36801,0.22767 -1.0874,1.79003 0.29674,1.65215 0.83209,1.77608 1.43945,0.33325 0.24265,-0.57641 0.57192,-1.10545 0.73172,-1.17557 0.4341,-0.19054 1.01422,1.95551 1.03,3.81037 l 0.0139,1.63152 -1.28996,0.109 c -0.96691,0.0816 -1.28997,0.25226 -1.28997,0.68106 0,0.51171 0.50882,0.54744 4.82043,0.33819 2.65122,-0.12866 6.71465,-0.47699 9.02981,-0.77407 z m -26.41052,-2.90383 c 0.51583,-0.18202 0.61105,-0.45982 0.61105,-1.78299 l 0,-1.56741 -1.49365,0 c -1.36902,0 -1.49334,0.0671 -1.48994,0.80455 0.007,1.49851 0.321,2.3729 0.90658,2.52364 0.32086,0.0826 0.64446,0.16993 0.71914,0.19404 0.0747,0.0241 0.41076,-0.0532 0.74682,-0.17183 z m 4.2773,-1.56252 0,-1.60911 -1.56157,-0.10721 c -1.73882,-0.11943 -1.84909,0.082 -1.24636,2.27676 0.29574,1.07686 0.39195,1.1445 1.56154,1.09814 l 1.24639,-0.0495 0,-1.60911 z m -51.512999,0.447 c -0.07245,-0.82909 -0.213726,-0.98337 -0.90064,-0.98337 -1.059697,0 -1.164425,1.27004 -0.135785,1.64675 1.084926,0.39736 1.12678,0.37054 1.036425,-0.66338 z m 55.179219,-0.61896 c 0,-1.38921 -0.0859,-1.63068 -0.64612,-1.81582 -0.35535,-0.11746 -0.99695,-0.16072 -1.42576,-0.0962 -0.69124,0.10401 -0.77503,0.24971 -0.7391,1.2852 0.0688,1.98412 0.24253,2.22913 1.58039,2.22913 l 1.23059,0 0,-1.6023 z m 3.16707,-0.0962 c -0.0802,-0.93418 -0.15348,-1.74799 -0.16281,-1.80847 -0.009,-0.0605 -0.53633,-0.0605 -1.17113,0 -1.138,0.10844 -1.15319,0.12751 -1.08228,1.36148 0.11299,1.96627 0.23327,2.14549 1.44024,2.14549 l 1.12185,0 -0.14587,-1.6985 z m -61.012152,-0.0894 c 0,-0.59599 -0.181057,-0.71516 -1.086296,-0.71516 -0.756148,0 -1.086296,0.15397 -1.086296,0.50657 0,0.60083 0.407903,0.85706 1.425759,0.89553 0.572942,0.0216 0.746833,-0.13831 0.746833,-0.68694 z m -2.899285,-0.50141 c 0.200766,-0.68888 -0.04422,-0.92891 -0.948017,-0.92891 -0.867134,0 -1.007244,0.49724 -0.294192,1.04409 0.663831,0.50908 1.071274,0.47129 1.242209,-0.11518 z m -2.532182,-0.89393 c 0,-0.44145 -0.300204,-0.81797 -0.85524,-1.07275 -1.168651,-0.53641 -1.317339,-0.50115 -1.317339,0.31239 0,0.48808 0.271499,0.80815 0.882604,1.04047 1.259482,0.47882 1.289975,0.47222 1.289975,-0.28011 z m -2.899113,-0.62786 c 0.297451,-0.39165 -0.386637,-1.19502 -1.01761,-1.19502 -0.325276,0 -0.719887,-0.16919 -0.876952,-0.37601 -0.314174,-0.41366 -0.169638,-2.02382 0.209358,-2.33222 0.524471,-0.42677 0.173344,-0.82636 -1.1866,-1.35036 -4.376183,-1.68621 -7.842066,-2.80939 -8.005419,-2.59431 -0.06417,0.0845 0.09359,1.03194 0.35058,2.10538 l 0.467232,1.95178 2.202005,0.93468 c 1.211081,0.51405 3.240737,1.35203 4.51034,1.86217 1.269616,0.51016 2.430581,0.98268 2.579948,1.05012 0.44513,0.20097 0.579242,0.19114 0.767118,-0.0562 z m 10.584142,-0.3481 c 0.392679,-0.51706 -0.398806,-1.56208 -1.183082,-1.56208 -0.80312,0 -0.806869,0.009 -0.366568,0.89395 0.419971,0.84396 1.170366,1.1675 1.54965,0.66813 z m 41.4116,-0.47396 3.06496,-0.0154 -0.18247,-3.30761 c -0.10035,-1.8192 -0.21882,-3.36397 -0.26327,-3.43284 -0.0445,-0.0689 -3.96904,-0.19654 -8.72132,-0.28373 -7.19885,-0.1321 -15.297569,-0.6054 -23.441267,-1.36997 -2.619885,-0.24593 -9.894763,-1.28017 -10.387672,-1.47673 -0.261391,-0.10425 -0.731623,-0.0824 -1.044947,0.0485 -0.462546,0.19329 -0.533914,0.41638 -0.379558,1.18623 0.104585,0.52149 0.269292,2.07453 0.366035,3.4512 l 0.175866,2.50305 0.950496,0.0941 c 0.522785,0.0517 1.989273,0.32823 3.258875,0.6145 1.269617,0.28633 3.408256,0.61402 4.752542,0.72822 1.344285,0.11421 2.810774,0.27587 3.258874,0.35919 3.322673,0.61789 14.071186,1.15265 20.503776,1.02015 2.76327,-0.0569 6.40336,-0.11043 8.08908,-0.1189 z m -43.936733,-0.73054 c 0,-0.44086 -0.182282,-0.71702 -0.475262,-0.72006 -0.261378,-0.003 -0.762549,-0.10614 -1.11369,-0.2299 -0.519395,-0.1831 -0.620391,-0.10178 -0.541699,0.43616 0.08643,0.59108 0.840619,1.0935 1.791173,1.1933 0.186709,0.0196 0.339478,-0.28617 0.339478,-0.6795 z m 50.445223,0.0894 c 0.0803,-0.31844 -0.28443,-0.44699 -1.26785,-0.44699 -1.01541,0 -1.38049,0.13509 -1.38049,0.51085 0,0.66093 2.48076,0.60108 2.64834,-0.0639 z m 2.94113,0.26817 c 0.51056,0 0.92829,-0.1609 0.92829,-0.35758 0,-0.19668 -0.67215,-0.35758 -1.49366,-0.35758 -1.39196,0 -1.76341,0.24078 -1.30415,0.84545 0.10421,0.13725 0.35861,0.16406 0.56535,0.0596 0.20674,-0.10445 0.79361,-0.1899 1.30417,-0.1899 z m 4.18716,-0.31224 c 0,-0.17171 -0.54992,-0.32676 -1.22207,-0.34453 -0.67214,-0.0178 -1.22209,0.12277 -1.22209,0.31224 0,0.18949 0.54995,0.34453 1.22209,0.34453 0.67215,0 1.22207,-0.14049 1.22207,-0.31224 z m 2.57995,-0.0453 c 0.0979,-0.20862 -0.17824,-0.35758 -0.66292,-0.35758 -0.45689,0 -0.83075,0.1609 -0.83075,0.35758 0,0.46556 1.27513,0.46556 1.49367,0 z M 67.499793,211.0517 c 0,-0.27207 -0.336074,-0.57971 -0.746832,-0.68358 -0.887723,-0.22455 -0.947557,-0.17575 -0.724156,0.59073 0.208321,0.71479 1.470988,0.79454 1.470988,0.0928 z m 77.126797,-0.0808 c 3.55736,-0.31434 9.03245,-0.91994 12.76395,-1.41181 2.31517,-0.30517 5.49258,-0.69621 7.06091,-0.86899 5.07505,-0.55905 11.5217,-1.46464 12.31628,-1.73018 0.85814,-0.28678 1.52238,-2.13797 1.52985,-4.26359 0.004,-1.13268 -0.0251,-1.16165 -1.15009,-1.14288 -0.6348,0.0106 -2.13185,0.17309 -3.32678,0.36103 -4.10381,0.64544 -8.20237,1.0891 -16.2944,1.76386 -2.38984,0.19928 -5.75057,0.52125 -7.46827,0.7155 -1.71769,0.19425 -5.99497,0.45314 -9.50505,0.57524 -9.58575,0.33356 -8.81068,0.21176 -8.91687,1.40119 -0.0499,0.55899 0.0709,1.97565 0.26843,3.14812 l 0.35919,2.13176 5.57039,-0.28565 c 3.0637,-0.15707 6.12031,-0.33423 6.79246,-0.3936 z m -79.570974,-0.67602 c 0,-0.38738 -0.301733,-0.53638 -1.086282,-0.53638 -1.222918,0 -1.376264,0.22718 -0.475234,0.70401 0.933541,0.4941 1.561516,0.4267 1.561516,-0.16763 z m 55.616524,-2.05609 -0.0798,-2.59244 -1.22208,0 -1.22208,0 -0.0848,1.76417 c -0.14391,2.99377 0.0383,3.42072 1.45976,3.42072 l 1.22878,0 -0.0798,-2.59245 z m 3.80292,0.78271 c 0.0444,-0.89703 -0.0443,-2.06364 -0.19698,-2.59246 -0.24487,-0.84808 -0.42255,-0.96149 -1.50642,-0.96149 l -1.22881,0 0,2.44344 c 0,1.34393 0.0648,2.52882 0.14402,2.63309 0.0792,0.10429 0.72078,0.17134 1.42576,0.14899 l 1.28174,-0.0406 0.0807,-1.63096 z m 3.36049,-0.68357 c -0.0491,-1.273 -0.14794,-2.4396 -0.21969,-2.59248 -0.0717,-0.15281 -0.67946,-0.2779 -1.35045,-0.2779 l -1.22001,0 0.0585,1.90505 c 0.0949,3.08862 0.30621,3.51922 1.66376,3.39 l 1.15712,-0.11014 -0.0893,-2.31453 z m 3.27427,0.8842 c -0.18764,-3.63175 -0.2384,-3.75458 -1.55183,-3.75458 -1.16775,0 -1.77989,0.44304 -1.23023,0.89033 0.15181,0.12355 0.27599,0.98751 0.27599,1.91991 0,2.05041 0.3738,2.61978 1.62829,2.4804 0.93012,-0.10334 0.95,-0.13814 0.87778,-1.53606 z m 53.91697,-0.10084 c 0.57911,-0.98801 0.23479,-1.31291 -1.85869,-1.75398 -3.37259,-0.71062 -3.30993,-0.74259 -3.67032,1.8743 l -0.12665,0.91959 2.65626,-0.22727 c 1.99118,-0.17037 2.74216,-0.37381 2.9994,-0.81264 z M 72.659676,208.68575 c 0,-0.95356 -0.09051,-1.07274 -0.814712,-1.07274 -1.424101,0 -0.860184,1.95911 0.611034,2.12281 0.112025,0.0125 0.203678,-0.46008 0.203678,-1.05007 z m -2.630482,-0.68209 c -0.124714,-0.628 -0.814223,-1.08897 -1.646796,-1.1009 -0.441987,-0.006 -0.441987,1.31135 0,1.54618 0.186708,0.0992 0.664104,0.19304 1.060877,0.20858 0.58057,0.0227 0.694959,-0.10494 0.585919,-0.65386 z m -2.693358,-0.24411 c 0.09113,-0.31277 0.1061,-0.69564 0.03326,-0.85079 -0.220058,-0.46882 -1.142857,-0.65943 -1.536574,-0.31739 -0.294263,0.25559 -0.238915,0.46524 0.271599,1.02891 0.775741,0.85655 1.014785,0.88356 1.231713,0.13927 z m -2.551777,-0.99578 c 0,-0.27041 -0.386161,-0.59337 -0.858094,-0.71762 -0.980702,-0.25828 -1.17655,-0.12262 -0.949198,0.65751 0.205638,0.70556 1.807292,0.75886 1.807292,0.0601 z m 7.599894,-1.56441 c -0.005,-2.02468 -0.165961,-2.40587 -1.150037,-2.72299 -0.83044,-0.26762 -0.904332,0.08 -0.574875,2.70385 0.159907,1.27344 0.24066,1.36177 1.525386,1.66893 0.112025,0.0268 0.201803,-0.71563 0.199526,-1.64979 z m -2.44001,-0.266 c 0,-2.12238 -0.419093,-3.04161 -1.386674,-3.04161 -0.839164,0 -0.853481,0.0279 -0.68863,1.34092 0.09258,0.73752 0.169653,1.69228 0.171295,2.12172 0.0022,0.58161 0.1935,0.81293 0.749819,0.90673 1.04016,0.17534 1.15419,0.0441 1.15419,-1.32776 z m -8.042256,-0.0916 c -0.01696,-0.63915 -0.04752,-1.86988 -0.06789,-2.73492 l -0.03704,-1.57282 -1.965584,-0.25993 c -1.081107,-0.14296 -3.678024,-0.72575 -5.770931,-1.29508 -3.053654,-0.83073 -7.356091,-1.91384 -8.498732,-2.13955 -0.691367,-0.13658 -0.474354,0.2281 0.967236,1.62541 0.896085,0.86861 1.712541,1.75666 1.814301,1.97351 0.284128,0.60529 2.636191,2.08025 3.759958,2.35782 0.551893,0.13634 1.00341,0.37262 1.00341,0.52509 0,0.15246 0.336076,0.35625 0.746834,0.45289 0.642103,0.15108 2.921501,0.94151 5.906715,2.04826 0.4481,0.16612 1.120236,0.27494 1.493653,0.24176 0.582629,-0.0518 0.674557,-0.22513 0.648072,-1.22244 z m 5.208988,-0.89393 c -0.206662,-2.06874 -0.309301,-2.29852 -1.104534,-2.47317 -0.481535,-0.10577 -0.541209,0.0735 -0.526056,1.58029 0.01256,1.24444 0.158002,1.83993 0.543155,2.22351 1.032303,1.02814 1.291388,0.71115 1.087435,-1.33063 z m -2.51452,-0.58712 c -0.05943,-1.79073 -0.232312,-2.12354 -1.175744,-2.26325 -0.616599,-0.0913 -0.680397,0.0344 -0.759478,1.49646 -0.09488,1.75375 0.424355,2.63226 1.44221,2.44013 0.460745,-0.087 0.537057,-0.34597 0.493012,-1.67334 z m 49.071085,-13.39007 c 0,-16.2249 -0.26843,-29.9604 -0.58056,-29.70642 -0.12261,0.0998 -0.44592,0.0243 -0.71844,-0.16774 -0.92164,-0.64945 -1.17768,0.0316 -1.13951,3.03138 0.0198,1.55495 -0.0419,11.31523 -0.13716,21.68949 l -0.17313,18.86229 1.37442,0 1.37438,0 0,-13.709 z m 33.06225,8.6135 c 1.3443,-2.21254 2.9502,-5.06868 3.56863,-6.34702 1.46117,-3.02039 1.70252,-3.49612 2.27198,-4.47813 0.26139,-0.45079 0.47965,-0.95512 0.48504,-1.12075 0.005,-0.16566 0.2803,-0.73444 0.61103,-1.26399 0.52254,-0.83674 0.82351,-0.97318 2.2986,-1.04204 0.93352,-0.0436 1.69732,-0.1813 1.69732,-0.30612 0,-0.12481 1.68039,-0.42966 3.73416,-0.67742 2.05377,-0.2478 4.71179,-0.64743 5.90672,-0.88806 2.07891,-0.41867 2.17636,-0.48035 2.26005,-1.43059 l 0.0875,-0.99305 -1.6679,0.19293 c -0.91732,0.10607 -2.11768,0.34596 -2.66742,0.53302 -0.54974,0.18705 -1.85499,0.44466 -2.90057,0.57252 -1.04556,0.1278 -2.63426,0.4505 -3.53044,0.71708 -0.89622,0.26658 -2.47565,0.59114 -3.50992,0.72127 -1.03423,0.13008 -2.03469,0.31447 -2.22318,0.40971 -0.1885,0.0952 -0.85371,1.2058 -1.47823,2.46791 -0.62449,1.26212 -1.22851,2.29476 -1.34219,2.29476 -0.11372,0 -0.35734,0.47868 -0.54138,1.06375 -0.18404,0.58506 -0.57292,1.42982 -0.86412,1.87729 -1.23435,1.89655 -1.50093,2.33904 -2.53397,4.20612 -0.98051,1.77218 -2.76109,4.63012 -3.80873,6.11326 -0.67491,0.95544 -0.468,1.40032 0.65137,1.40032 1.01367,0 1.1391,-0.14436 3.49564,-4.02277 z m 4.27907,3.49797 c 1.49365,-0.1108 3.51009,-0.28146 4.48096,-0.37927 0.97085,-0.0978 3.65947,-0.33789 5.97463,-0.53351 2.31516,-0.1956 4.57599,-0.43706 5.02409,-0.53646 0.4481,-0.0995 3.01447,-0.42024 5.70305,-0.71284 2.68856,-0.29259 6.58325,-0.71965 8.65483,-0.94903 l 3.76657,-0.41701 0.87676,-1.81752 c 1.66261,-3.44642 2.10468,-4.69053 3.66118,-10.30327 1.02249,-3.6873 1.02642,-5.11184 0.014,-5.08273 -0.66185,0.019 -3.66216,0.43392 -5.29568,0.73234 -0.44809,0.0819 -1.63961,0.25113 -2.64784,0.37611 l -1.83312,0.22728 0,1.50734 c 0,0.82902 0.0786,2.26234 0.17466,3.18516 0.16057,1.54263 0.23082,1.66911 0.87187,1.56963 0.47967,-0.0744 0.74528,-0.37889 0.85122,-0.97566 0.32869,-1.85115 1.63269,-0.85234 1.63269,1.25055 0,0.67429 0.0306,1.34668 0.0679,1.49418 0.0374,0.1475 -0.60424,0.34864 -1.42576,0.44697 l -1.49364,0.17878 0,1.25153 c 0,1.67008 -0.50755,1.93737 -0.67894,0.35758 -0.11349,-1.0459 -0.25849,-1.27012 -0.88262,-1.36467 -0.78223,-0.1185 -0.89046,0.22455 -0.75345,2.3881 0.0854,1.34863 -0.65159,0.71545 -0.80809,-0.69426 -0.10309,-0.92861 -0.28291,-1.25063 -0.74683,-1.33738 -0.61559,-0.1151 -0.68444,0.0455 -0.72537,1.69209 -0.0361,1.45284 -0.70038,1.3412 -0.70038,-0.11771 0,-1.18532 -0.0611,-1.28131 -0.81472,-1.28131 -0.76947,0 -0.81473,0.0795 -0.81473,1.4303 0,1.72158 -0.42557,1.88716 -0.68928,0.2682 -0.25569,-1.56962 -0.31451,-1.65997 -0.94042,-1.44445 -0.42342,0.14579 -0.54288,0.48789 -0.54288,1.55443 0,1.88391 -0.49268,2.12997 -0.7084,0.35381 l -0.17573,-1.44715 -1.43507,0 -1.43508,0 -0.18007,-1.40354 c -0.29744,-2.31789 0.96803,-4.14763 1.3787,-1.99346 0.1223,0.64181 0.35357,0.89396 0.81987,0.89396 0.63362,0 0.64949,-0.0737 0.64949,-3.01833 0,-1.66007 -0.0917,-3.09183 -0.20368,-3.18171 -0.11203,-0.0899 -2.40342,0.14763 -5.092,0.52775 -2.68856,0.38014 -5.56047,0.78277 -6.38198,0.89477 -3.75938,0.51245 -3.39193,0.20825 -5.21589,4.31761 -0.62125,1.39964 -3.53616,6.9265 -3.91888,7.43041 -0.20367,0.26818 -0.3703,0.65998 -0.3703,0.87071 0,0.21072 -0.11223,0.38309 -0.24941,0.38309 -0.13719,0 -0.52791,0.60342 -0.86826,1.34093 -0.34041,0.73752 -0.73264,1.44364 -0.87168,1.56913 -0.4698,0.4241 0.1042,1.00097 0.84569,0.84998 0.40496,-0.0825 1.95837,-0.24059 3.45204,-0.35145 z m -66.129668,-0.10097 c -8.66e-4,-0.1475 -1.045798,-1.71638 -2.322061,-3.4864 -1.276277,-1.77002 -2.605064,-3.62047 -2.95286,-4.11216 -0.34784,-0.49168 -1.069904,-1.77895 -1.604625,-2.86062 -0.534735,-1.08169 -1.218924,-2.36897 -1.520455,-2.86064 -0.301559,-0.49167 -0.554847,-1.05487 -0.56295,-1.25153 -0.03529,-0.86026 -0.854561,-1.69363 -1.812613,-1.84381 -0.569973,-0.0893 -1.3864,-0.31254 -1.81433,-0.49596 -0.894628,-0.38351 -1.299331,-0.18224 -1.088459,0.54133 0.08747,0.30019 0.748074,0.60187 1.638867,0.74842 1.210591,0.19913 1.547761,0.40579 1.786157,1.09473 0.161636,0.46709 0.39647,0.84924 0.52186,0.84924 0.125376,0 0.204947,0.12068 0.176819,0.26819 -0.07109,0.37246 1.145379,2.95003 1.392267,2.95003 0.110625,0 0.338597,0.3972 0.506592,0.88267 0.42026,1.2145 1.390998,2.66552 4.370272,6.53258 2.262645,2.93691 3.290492,3.88918 3.285519,3.04393 z m -4.249568,-0.71558 c 0.06935,-0.14776 -0.748362,-1.50588 -1.817082,-3.01811 -2.512779,-3.55543 -3.630116,-5.35858 -4.887665,-7.88763 -0.835789,-1.68087 -1.159075,-2.05608 -1.771552,-2.05608 l -0.749183,0 0.369495,3.48641 c 0.203246,1.9175 0.485817,4.17256 0.627947,5.01122 0.1421,0.83865 0.258392,2.00222 0.258392,2.58564 0,1.23562 0.119276,1.29463 3.530445,1.74638 3.140016,0.41591 4.289966,0.45012 4.439203,0.13217 z M 69.4008,198.98941 c 0,-0.37039 -0.152769,-0.67563 -0.339477,-0.67836 -0.186694,-0.003 -0.614422,-0.10186 -0.950496,-0.22047 -0.515964,-0.18206 -0.611034,-0.0747 -0.611034,0.69022 0,0.99894 0.340141,1.27497 1.279724,1.03849 0.385368,-0.097 0.621283,-0.4121 0.621283,-0.82988 z m 2.444164,0.58492 c 0,-0.57322 -1.153728,-1.1091 -1.602159,-0.74422 -0.151313,0.12316 -0.206302,0.4601 -0.122146,0.74882 0.2061,0.70718 1.724305,0.70308 1.724305,-0.005 z m -5.208917,-0.99019 c -0.06211,-0.57606 -0.298863,-0.8367 -0.833598,-0.91768 -0.49229,-0.0746 -0.746833,0.0534 -0.746833,0.37544 0,0.69264 0.563195,1.3468 1.159494,1.3468 0.371211,0 0.484404,-0.21634 0.420937,-0.80456 z m -2.395143,-0.44697 c 0,-0.7861 -0.116624,-0.89397 -0.966516,-0.89397 -0.531606,0 -0.917076,0.1207 -0.856593,0.2682 0.06045,0.1475 0.186044,0.5498 0.279067,0.89395 0.100692,0.37253 0.447365,0.62576 0.856595,0.62576 0.552239,0 0.687447,-0.17581 0.687447,-0.89394 z m -2.636754,-0.37128 c -0.03124,-0.38579 -0.142344,-2.87375 -0.246902,-5.52877 -0.25078,-6.3681 -0.293484,-6.5496 -1.616433,-6.86864 -2.084905,-0.50278 -8.418613,-1.78025 -9.621706,-1.94062 -0.672149,-0.0896 -1.649809,-0.30313 -2.172579,-0.47454 -1.787338,-0.58598 -5.390896,-1.3484 -8.418772,-1.78119 -1.120249,-0.16013 -2.220112,-0.39203 -2.444178,-0.51536 -0.224035,-0.12333 -1.629422,-0.45886 -3.123088,-0.74562 -1.493652,-0.28679 -3.666346,-0.74565 -4.828219,-1.01975 -1.161859,-0.27409 -2.175679,-0.36372 -2.252914,-0.19917 -0.114922,0.24486 0.710847,2.11773 1.24231,2.81751 0.217201,0.28601 0.79072,1.53377 1.150441,2.50305 0.182468,0.49167 0.479299,1.01687 0.659605,1.16708 0.180292,0.15026 0.77218,1.23641 1.315335,2.41368 0.543141,1.17729 1.010979,2.14052 1.039613,2.14052 0.02865,0 0.722481,0.32653 1.541878,0.72564 0.819398,0.39912 2.039764,0.89522 2.711899,1.10244 0.67215,0.20723 1.405402,0.43323 1.629437,0.50222 0.224051,0.069 1.629453,0.51996 3.123105,1.00218 6.165742,1.99052 7.748986,2.48066 10.727134,3.32097 1.717703,0.48467 3.673036,0.96114 4.345186,1.05883 0.672136,0.0977 1.95532,0.39454 2.851504,0.65956 2.043946,0.60445 2.459072,0.54535 2.387344,-0.34002 z m 9.96923,-0.23028 c 0,-1.28099 -0.616225,-7.02657 -0.827125,-7.71214 -0.141986,-0.46153 -0.481579,-0.80457 -0.796502,-0.80457 -0.465633,0 -0.54813,0.23069 -0.543574,1.51972 0.01024,2.89101 0.53005,6.50844 1.001996,6.97278 0.573418,0.56418 1.165205,0.5765 1.165205,0.0242 z m 117.69134,-0.56058 c 0.21207,-0.54082 0.9593,-2.99472 1.66049,-5.45307 0.70121,-2.45836 1.62591,-5.67657 2.05493,-7.15161 1.70153,-5.85015 2.50043,-8.96678 2.34943,-9.16561 -0.17037,-0.22429 -3.83416,0.29307 -6.7081,0.94729 -3.03812,0.69158 -4.67661,1.0299 -7.06092,1.45801 -1.2696,0.22797 -2.41554,0.54322 -2.54649,0.70057 -0.13096,0.15737 -0.15896,0.70121 -0.0623,1.20852 0.20509,1.07577 -0.0275,1.08655 8.01173,-0.37109 2.59819,-0.47108 4.83725,-0.85652 4.97573,-0.85652 0.55667,0 -0.20977,4.94883 -1.32909,8.58191 -0.0909,0.295 -0.44103,1.50183 -0.7781,2.68183 -0.33708,1.18002 -1.04395,3.45791 -1.57085,5.062 -0.5269,1.60407 -0.88542,3.01203 -0.79673,3.12883 0.43846,0.5773 1.43964,0.1485 1.80027,-0.77106 z M 69.12453,196.61746 c -0.0026,-0.34415 -0.125822,-2.15443 -0.273834,-4.02278 -0.280076,-3.535 -0.581679,-4.29094 -1.712107,-4.29094 -0.483092,0 -0.51386,0.17826 -0.354762,2.05608 0.09582,1.13084 0.244207,2.94109 0.329761,4.02276 0.216827,2.74163 0.266408,2.86062 1.192396,2.86062 0.604791,0 0.821992,-0.16603 0.818546,-0.62574 z m -2.808122,-2.28733 c -0.09598,-1.20886 -0.174482,-2.86766 -0.174482,-3.68623 0,-1.82396 -0.490876,-2.83891 -1.199792,-2.48073 -0.463988,0.23443 -0.493168,0.56653 -0.347451,3.95473 0.0875,2.03432 0.234201,3.85883 0.326027,4.05446 0.09184,0.19563 0.482688,0.3557 0.868561,0.3557 0.69725,0 0.700509,-0.0136 0.527137,-2.19793 z m -2.480423,-2.18242 c -0.105984,-2.21251 -0.274699,-4.13882 -0.374916,-4.28067 -0.100203,-0.14184 -0.485139,-0.30276 -0.85537,-0.35759 l -0.673159,-0.0997 0.09213,3.93336 c 0.05068,2.16337 0.218398,4.13452 0.372725,4.38036 0.154312,0.24582 0.584505,0.44697 0.955946,0.44697 l 0.675351,0 -0.192706,-4.02277 z m 108.355305,-3.67008 c 0,-1.65749 -0.0501,-1.79064 -0.71135,-1.89161 -0.54781,-0.0837 -0.74846,0.0782 -0.87279,0.70437 -0.32728,1.64783 0.29468,3.26727 1.17677,3.06408 0.29811,-0.0687 0.40737,-0.57205 0.40737,-1.87684 z m 1.98652,1.3049 c 0.23076,-0.19266 0.32681,-0.85489 0.27158,-1.87181 -0.0767,-1.41017 -0.15604,-1.57366 -0.76445,-1.57366 -0.54584,0 -0.69641,0.20122 -0.76805,1.02655 -0.18877,2.17514 0.33939,3.18834 1.26092,2.41892 z m 2.15504,-0.3433 c 0.19526,-0.16325 0.32092,-0.90931 0.29575,-1.75577 -0.0342,-1.14676 -0.16455,-1.51347 -0.59038,-1.66008 -0.30059,-0.10353 -0.64754,-0.106 -0.77096,-0.006 -0.36215,0.2947 -0.26352,3.27827 0.11501,3.4794 0.49197,0.2614 0.57459,0.25635 0.95058,-0.058 z m 2.78355,-0.73323 c 0,-0.36873 -0.0764,-1.17329 -0.16973,-1.78789 -0.14483,-0.95352 -0.28924,-1.11743 -0.98446,-1.11743 -0.76766,0 -0.80492,0.0646 -0.64499,1.11743 0.0933,0.6146 0.16975,1.41916 0.16975,1.78789 0,0.50658 0.19913,0.67048 0.81471,0.67048 0.61557,0 0.81472,-0.1639 0.81472,-0.67048 z M 70.487097,188.12496 c 0,-0.29798 -0.241408,-0.53639 -0.543154,-0.53639 -0.668994,0 -0.718475,0.6024 -0.06789,0.82626 0.261392,0.0899 0.505814,0.18219 0.543155,0.20501 0.03734,0.0228 0.06789,-0.1999 0.06789,-0.49488 z m -2.172593,-0.34501 c 0,-0.40515 -1.091673,-0.88134 -1.522011,-0.66392 -0.439132,0.22187 -0.435484,0.26046 0.04821,0.50994 0.599197,0.3091 1.473799,0.40044 1.473799,0.15398 z m -2.715733,-0.90652 c -0.531333,-0.45213 -1.086297,-0.45213 -1.086297,0 0,0.19666 0.336075,0.3551 0.746834,0.3521 0.581953,-0.004 0.656911,-0.082 0.339463,-0.3521 z m -2.172563,-0.35758 c 0,-0.19667 -0.373851,-0.35757 -0.830745,-0.35757 -0.484678,0 -0.760848,0.14894 -0.662923,0.35757 0.218543,0.46557 1.493668,0.46557 1.493668,0 z m 6.738208,-1.33683 c -0.136332,-0.93211 -1.035186,-1.03606 -1.035186,-0.1197 0,0.51172 0.174397,0.74136 0.563052,0.74136 0.388642,0 0.53488,-0.19255 0.472134,-0.62166 z M 172.0555,184.92784 c 0,-0.48007 -0.11969,-0.97024 -0.26596,-1.08927 -0.43569,-0.35454 -1.36349,0.50253 -1.36349,1.25953 0,0.54226 0.18593,0.70258 0.81472,0.70258 0.68275,0 0.81473,-0.14138 0.81473,-0.87284 z m 2.12271,-0.28928 c 0.0742,-0.84942 -0.0101,-0.98335 -0.61957,-0.98335 -0.75128,0 -1.12335,0.7116 -0.85449,1.63418 0.28145,0.96576 1.37501,0.48295 1.47406,-0.65083 z m -105.974014,0.39271 c 0.246684,-0.52559 -0.624616,-1.37606 -1.409815,-1.37606 -0.462387,0 -0.569625,0.16108 -0.463397,0.69601 0.190025,0.95663 1.517211,1.43846 1.873212,0.68005 z m 108.148544,-0.8046 c 0.0793,-0.88651 0.014,-0.9704 -0.67454,-0.86593 -0.61425,0.0932 -0.77336,0.30859 -0.81896,1.10849 -0.0504,0.88503 0.0228,0.97904 0.67454,0.86593 0.56509,-0.0981 0.75102,-0.34977 0.81896,-1.10849 z m 2.2884,0.52785 c 0.26913,-0.0351 0.25259,-0.80169 -0.0299,-1.38822 -0.32169,-0.66786 -1.66741,-0.16291 -1.66741,0.62566 0,0.84874 0.24706,1.09877 0.92042,0.93151 0.31527,-0.0783 0.6649,-0.15432 0.77691,-0.16895 z M 65.598771,184.18273 c 0,-0.43845 -0.978107,-1.24268 -1.511329,-1.24268 -0.283276,0 -0.08516,1.38822 0.221355,1.55108 0.688139,0.36562 1.289974,0.22172 1.289974,-0.3084 z m -2.300997,-0.1856 c 0.268197,-0.57139 -0.403535,-1.41467 -1.126896,-1.41467 -0.83292,0 -0.856926,0.984 -0.03465,1.4192 0.81882,0.43336 0.956249,0.43281 1.161541,-0.005 z m 108.236786,-2.48739 c 0.13716,0 0.24936,-0.40228 0.24936,-0.89393 0,-0.71518 -0.13577,-0.89397 -0.67894,-0.89397 -0.5785,0 -0.67893,0.16432 -0.67893,1.111 0,0.86617 0.0947,1.06315 0.42958,0.89396 0.23626,-0.1194 0.54178,-0.21706 0.67893,-0.21706 z m 1.99237,-0.21707 c 0.40272,-0.20346 0.60132,-1.58307 0.28741,-1.99641 -0.0782,-0.10297 -0.44482,-0.111 -0.81472,-0.0179 -0.47477,0.11951 -0.67255,0.40242 -0.67255,0.96196 0,1.20061 0.33135,1.49122 1.19986,1.05237 z m 2.55229,-1.30264 c 0.0742,-0.84943 -0.0101,-0.98334 -0.61957,-0.98334 -0.75127,0 -1.12334,0.7116 -0.85449,1.63419 0.28146,0.96575 1.375,0.48292 1.47406,-0.65085 z m 2.22246,-0.44697 c 0,-1.08851 -0.0864,-1.25154 -0.66291,-1.25154 -0.81507,0 -1.06906,0.48623 -0.85115,1.62944 0.12061,0.63277 0.35229,0.87361 0.84028,0.87361 0.58896,0 0.67378,-0.15752 0.67378,-1.25151 z m -121.495083,-2.0114 c -0.09334,-0.61458 -0.169739,-4.37646 -0.169739,-8.35972 l 0,-7.24228 -0.823419,-0.4491 c -0.452887,-0.247 -0.907172,-0.33884 -1.009508,-0.20408 -0.102351,0.13474 -0.235224,3.85795 -0.295302,8.27375 -0.121008,8.89688 -0.08737,9.09888 1.516489,9.09888 0.920522,0 0.94574,-0.0361 0.781479,-1.11745 z m 91.078873,0.54573 c 0,-0.11778 -0.17813,-0.72122 -0.39586,-1.34093 -0.21772,-0.61973 -0.89553,-3.13815 -1.50628,-5.5965 -0.61075,-2.45837 -1.2141,-4.79157 -1.34081,-5.18491 -0.2688,-0.83446 -2.04647,-7.84604 -2.58377,-10.19099 -0.20278,-0.88502 -0.57152,-2.49413 -0.81944,-3.5758 -1.82871,-7.97867 -3.80784,-21.55857 -4.50777,-30.9306 -0.14686,-1.96668 -0.32891,-3.84023 -0.4045,-4.16345 -0.0756,-0.32324 -0.18489,-3.94373 -0.24285,-8.04554 -0.0805,-5.69973 0.0121,-8.76445 0.39295,-13.000334 0.58442,-6.499902 1.22356,-11.623329 1.76204,-14.124363 1.3152,-6.108859 1.61415,-7.398798 2.23763,-9.654644 0.38047,-1.376663 0.90146,-3.066227 1.15775,-3.754577 1.77524,-4.768282 2.99496,-7.717751 4.25647,-10.292862 0.7982,-1.629362 1.45128,-3.053514 1.45128,-3.164795 0,-0.194412 -3.58283,0.06375 -5.83882,0.420715 -0.59746,0.09454 -3.28605,0.332194 -5.97461,0.528143 -2.68857,0.195929 -5.31604,0.423031 -5.83883,0.504641 -0.52278,0.08163 -3.27245,0.322797 -6.11039,0.535934 -2.83795,0.213129 -6.99301,0.548234 -9.2335,0.744677 -2.24049,0.19647 -6.82327,0.597784 -10.18399,0.891832 -3.36072,0.294061 -8.371255,0.697466 -11.134506,0.896428 -5.908676,0.425466 -7.332475,0.660693 -7.332475,1.211407 0,0.223452 -0.28893,0.966611 -0.64206,1.651416 -1.144487,2.219555 -2.956119,6.84572 -3.555273,9.078753 -0.321513,1.198242 -0.723332,2.511889 -0.892926,2.919241 -0.38276,0.919333 -1.318046,4.498761 -1.67517,6.410946 -0.146931,0.786682 -0.516758,2.556686 -0.821864,3.93336 -0.683467,3.083821 -1.439153,8.132702 -2.167532,14.48195 -0.817523,7.126162 -1.30863,23.988262 -0.883455,30.332932 0.180193,2.68875 0.326646,6.09545 0.325507,7.57046 -0.0012,1.47502 0.18681,4.53232 0.417707,6.794 0.230885,2.2617 0.529893,5.31899 0.664452,6.79402 0.37496,4.11052 0.75645,7.80795 1.069831,10.36978 0.156403,1.27836 0.409923,3.5311 0.563355,5.00611 0.153475,1.47502 0.407471,3.16457 0.564435,3.75459 0.15698,0.58998 0.341295,1.63591 0.409591,2.32424 0.208003,2.09603 0.246642,2.31774 0.436465,2.50305 0.100736,0.0983 0.476316,-0.5453 0.834695,-1.4303 1.229218,-3.03586 2.616814,-5.64532 4.067299,-7.64889 0.798636,-1.10316 1.53666,-2.00574 1.640049,-2.00574 0.103417,0 0.401906,-0.25308 0.663283,-0.5624 1.745702,-2.06584 2.025504,-2.26176 6.857242,-4.80125 2.840922,-1.49313 10.54622,-3.13182 12.83784,-2.73019 0.6315,0.11066 2.67577,0.42816 4.54285,0.70557 1.86705,0.27739 3.63908,0.61962 3.93779,0.76053 0.29876,0.14089 0.78758,0.37995 1.08631,0.53123 0.29873,0.15128 1.27638,0.55339 2.17258,0.89359 0.8962,0.34017 1.99607,0.8297 2.44416,1.08783 0.44811,0.25812 1.60907,0.87058 2.57994,1.36104 0.97089,0.4905 3.17882,1.79351 4.90653,2.89563 1.72769,1.10216 3.24568,2.0039 3.37328,2.0039 0.12758,0 0.42493,0.22036 0.66073,0.4897 0.23582,0.26934 0.73427,0.6314 1.10768,0.80456 0.66302,0.30747 5.1231,3.5133 6.56164,4.71642 0.39756,0.33249 1.31413,1.07196 2.03681,1.64325 0.72267,0.57128 1.7593,1.49653 2.30356,2.05608 0.54428,0.55956 1.09423,1.01815 1.22208,1.01913 0.12789,9.9e-4 0.59911,0.39745 1.04722,0.88109 0.76882,0.82979 1.49365,1.16506 1.49365,0.69089 z m 18.53489,-0.12293 -2.5821,0.344 1.18922,-0.16173 c 0.65405,-0.089 1.28085,-0.17098 1.39288,-0.18227 z M 43.87293,175.12044 c 0,-0.17076 -1.729496,-2.46373 -3.843293,-5.0955 -2.113812,-2.63177 -5.077356,-6.3317 -6.585642,-8.22208 -1.508329,-1.89037 -3.22423,-3.9822 -3.813132,-4.64852 -0.588932,-0.66632 -1.878502,-2.25742 -2.865749,-3.53578 -0.987262,-1.27832 -2.644035,-3.31002 -3.681773,-4.51483 -1.037738,-1.20483 -2.563873,-3.05529 -3.391416,-4.11216 -0.827529,-1.05686 -2.53844,-3.123 -3.802015,-4.59137 -1.263576,-1.4684 -2.491714,-2.91659 -2.729215,-3.21822 -0.237487,-0.30163 -1.453153,-1.75524 -2.701475,-3.23025 -1.248307,-1.475 -2.9787682,-3.55111 -3.8454697,-4.61357 -2.7087556,-3.32058 -1.8479798,-1.31105 1.2757154,2.97821 0.448085,0.61529 1.9756905,2.78193 3.3946733,4.81474 1.418956,2.03278 3.020264,4.3161 3.558445,5.07406 1.122413,1.58072 4.75394,6.85529 5.492424,7.9774 0.27297,0.4148 1.739459,2.4517 3.25889,4.52645 1.519402,2.07476 3.434698,4.73713 4.256201,5.9164 0.821502,1.17926 2.989365,4.2488 4.817433,6.82121 1.82807,2.5724 3.538981,5.01842 3.802031,5.43561 0.45355,0.71931 1.865512,1.2491 5.773915,2.16631 0.67215,0.15773 1.313749,0.3083 1.42576,0.33457 0.112025,0.0263 0.203692,-0.0919 0.203692,-0.26268 z M 113.39565,50.457004 c 0,-4.176114 -0.0731,-5.184884 -0.37569,-5.184884 -0.56435,0 -0.7028,1.173017 -0.70687,5.989447 -0.004,4.143574 0.0256,4.380336 0.53942,4.380336 0.51818,0 0.54314,-0.238377 0.54314,-5.184899 z m 2.27839,-8.045581 c 0.17284,-5.7e-5 0.33481,-0.801394 0.37946,-1.87731 0.0429,-1.032481 0.18627,-2.359949 0.31872,-2.94994 0.13243,-0.59003 0.29669,-2.069861 0.365,-3.288571 0.12103,-2.159482 0.10604,-2.220647 -0.59028,-2.406762 -1.36908,-0.365928 -6.42018,-0.546994 -6.78553,-0.243237 -0.30112,0.250337 -0.31472,0.88289 -0.0749,3.479831 0.16126,1.745638 0.34307,3.946162 0.40408,4.890046 0.061,0.943886 0.1938,1.825371 0.29517,1.958826 0.29105,0.383221 2.88421,0.743778 4.19458,0.583233 0.65564,-0.08034 1.32778,-0.146099 1.49365,-0.146116 z m -2.29256,-22.885 c -0.0204,-5.079997 -0.14241,-8.939481 -0.28249,-8.939481 -0.13557,0 -0.25394,1.327504 -0.26304,2.950017 -0.009,1.622529 -0.0773,5.275299 -0.15157,8.117299 -0.13782,5.276991 -0.0351,6.811627 0.45579,6.811627 0.18225,0 0.26497,-3.064069 0.24131,-8.939462 z M 113.5926,8.8673303 c 0.33091,-0.2768017 0.4714,-1.1081129 0.38922,-2.3031511 -0.0691,-1.0057895 -1.51402,-0.8316341 -1.88024,0.2266076 -0.4931,1.4250053 0.54372,2.8689748 1.49102,2.0765435 z"
     id="path2269"
     style="fill:#eeeeee;fill-opacity:1" />
  <g
     transform="translate(93.806016,101.6737)"
     id="Kungsor_kommunvapen">
    <path
       d="m -79.743444,131.51965 c 24.41127,50.04795 79.14048023,69.5625 111.65625,69.5625 32.8681,0 86.743174,-19.24525 111.218744,-68.53125 -4.70285,-0.86973 -9.60863,-1.4375 -14.53125,-1.4375 -23.38845,0 -23.36153,12.40626 -46.749994,12.40625 -23.38847,0 -23.39279,-12.40625 -46.78125,-12.40625 -23.38845,0 -23.39279,12.40626 -46.78125,12.40625 -23.38846,0 -23.39279,-12.40625 -46.78125,-12.40625 -6.91063,0 -13.81858,1.06856 -20.125,2.59375 -0.372,-0.72283 -0.76583,-1.45158 -1.125,-2.1875 z"
       id="path3244"
       style="color:#000000;fill:#eeeeee;fill-opacity:1;fill-rule:nonzero;stroke:none;stroke-width:1.88832211;marker:none;visibility:visible;display:block" />
  </g>
  <g
     transform="translate(93.806016,101.6737)"
     clip-path="url(#clipPath3274)"
     id="g3263"
     style="fill:#d40000">
    <path
       d="m -79.743444,131.51965 c 24.41127,50.04795 79.14048023,69.5625 111.65625,69.5625 32.8681,0 86.743174,-19.24525 111.218744,-68.53125 -4.70285,-0.86973 -9.60863,-1.4375 -14.53125,-1.4375 -23.38845,0 -23.36153,12.40626 -46.749994,12.40625 -23.38847,0 -23.39279,-12.40625 -46.78125,-12.40625 -23.38845,0 -23.39279,12.40626 -46.78125,12.40625 -23.38846,0 -23.39279,-12.40625 -46.78125,-12.40625 -6.91063,0 -13.81858,1.06856 -20.125,2.59375 -0.372,-0.72283 -0.76583,-1.45158 -1.125,-2.1875 z"
       id="path3265"
       style="color:#000000;fill:#d40000;fill-opacity:1;fill-rule:nonzero;stroke:none;stroke-width:1.88832211;marker:none;visibility:visible;display:block" />
  </g>
  <g
     transform="translate(338.7386,54.467849)"
     id="g3345">
    <g
       transform="matrix(1,0,0,1.4067519,-276.76553,-83.055482)"
       id="Tower">
      <path
         d="m 81.042485,46.252093 0,15.320574 0.09469,0 0,17.945592 7.717331,0 0,115.978141 72.690643,0 0,-115.978141 8.42751,0 0,-17.945592 0.0947,0 0,-15.320574 -13.63553,0 0,14.604657 -10.84215,0 0,-14.604657 -13.3988,0 0,14.604657 -13.50866,0 0,-14.604657 -13.39879,0 0,14.604657 -10.842145,0 0,-14.604657 -13.3988,0 z"
         id="Tower-body"
         style="fill:#d40000;fill-opacity:1;fill-rule:evenodd;stroke:none" />
      <path
         d="m 103.94453,90.887517 10.54739,0 0,21.047043 -10.54739,0 0,-21.047043 z"
         id="Window1"
         style="fill:#eeeeee;fill-opacity:1;fill-rule:evenodd;stroke:#eeeeee;stroke-width:1.52722323px;stroke-linecap:butt;stroke-linejoin:miter;stroke-opacity:1" />
      <path
         d="m 137.84889,90.887517 10.54739,0 0,21.047043 -10.54739,0 0,-21.047043 z"
         id="Window2"
         style="fill:#eeeeee;fill-opacity:1;fill-rule:evenodd;stroke:#eeeeee;stroke-width:1.52722323px;stroke-linecap:butt;stroke-linejoin:miter;stroke-opacity:1" />
      <path
         d="m 125.56542,149.4488 c -6.33759,0 -11.48195,3.36441 -11.48197,7.52307 0,0.0369 -8.1e-4,0.0692 0,0.10596 l -0.13121,0 0,32.26446 23.09515,0 0,-32.26446 c 8.3e-4,-0.0368 0,-0.069 0,-0.10596 0,-4.15866 -5.14434,-7.52305 -11.48197,-7.52307 z"
         id="Door"
         style="fill:#eeeeee;fill-opacity:1;fill-rule:evenodd;stroke:#eeeeee;stroke-width:1.94116414;stroke-linecap:square;stroke-linejoin:miter;stroke-miterlimit:4;stroke-opacity:1;stroke-dasharray:none" />
    </g>
  </g>
  <path
     d="m 249.55062,1.4395041 -248.101051,0 0,173.4965959 c -0.76723996,93.72088 80.28944,127.81975 124.050531,127.81975 42.99385,0 124.81775,-34.09887 124.05052,-127.81975 l 0,-173.4965959 z"
     id="Frame"
     style="fill:none;stroke:#000000;stroke-width:1.88832211;stroke-linejoin:bevel" />
</svg>
