<?xml version="1.0" encoding="UTF-8" standalone="no"?>
<!-- Created with Inkscape (http://www.inkscape.org/) -->
<svg
   xmlns:dc="http://purl.org/dc/elements/1.1/"
   xmlns:cc="http://web.resource.org/cc/"
   xmlns:rdf="http://www.w3.org/1999/02/22-rdf-syntax-ns#"
   xmlns:svg="http://www.w3.org/2000/svg"
   xmlns="http://www.w3.org/2000/svg"
   version="1.0"
   width="251"
   height="304.20001"
   id="svg4166">
  <defs
     id="defs4168" />
  <metadata
     id="metadata1880"><rdf:RDF><cc:Work
         rdf:about=""><dc:title>Norrtalje kommunvapen</dc:title><dc:date>11-11-2006</dc:date><dc:creator><cc:Agent><dc:title>Lokal_Profil</dc:title></cc:Agent></dc:creator><cc:license
         rdf:resource="http://creativecommons.org/licenses/by-sa/2.5/" /><dc:rights><cc:Agent><dc:title>cc-by-sa-2.5</dc:title></cc:Agent></dc:rights><dc:format>image/svg+xml</dc:format><dc:type
         rdf:resource="http://purl.org/dc/dcmitype/StillImage" /></cc:Work><cc:License
         rdf:about="http://creativecommons.org/licenses/by-sa/2.5/"><cc:permits
         rdf:resource="http://web.resource.org/cc/Reproduction" /><cc:permits
         rdf:resource="http://web.resource.org/cc/Distribution" /><cc:requires
         rdf:resource="http://web.resource.org/cc/Notice" /><cc:requires
         rdf:resource="http://web.resource.org/cc/Attribution" /><cc:permits
         rdf:resource="http://web.resource.org/cc/DerivativeWorks" /><cc:requires
         rdf:resource="http://web.resource.org/cc/ShareAlike" /></cc:License></rdf:RDF>
  </metadata>
  <path
     d="M 249.55058,1.4395041 L 125.50008,1.4395041 L 1.4495291,1.4395041 L 1.4495291,174.9361 C 0.68228908,268.65698 81.738969,302.75585 125.50006,302.75585 C 168.49391,302.75585 250.31781,268.65698 249.55058,174.9361 L 249.55058,1.4395041 z"
     id="Shield"
     style="fill:#eeeeee" />
  <path
     d="M 124.9921,264.75401 C 124.87672,264.73607 124.76638,264.69749 124.65173,264.67838 C 115.59078,264.15517 108.03188,258.45467 105.02355,250.6096 C 100.60411,241.04097 103.59022,229.20715 117.08788,223.03937 L 117.08788,207.64695 L 72.120795,207.64695 C 69.469179,207.64695 69.751367,193.78622 71.742584,193.72946 L 116.63405,193.84293 C 116.68438,183.12888 116.80861,172.41049 116.67186,161.69656 C 116.16626,139.56551 115.7431,117.42185 115.53728,95.285964 C 115.44637,83.297602 115.0204,71.826975 114.554,69.757978 C 112.79608,61.959658 107.89095,60.913314 92.73227,65.068379 C 76.967733,69.389478 57.376688,78.948136 54.080993,83.978014 C 51.46096,87.976789 51.015044,91.453929 52.908589,93.546283 C 53.852653,94.589443 55.276037,95.203857 56.0476,94.907783 C 56.900735,94.580478 57.77768,95.250136 58.31675,96.685263 C 60.214277,101.73719 53.886076,109.23629 41.411533,116.65383 C 38.379542,118.45676 33.438149,122.30951 30.406133,125.23882 C 27.224835,128.31231 24.434966,130.26733 23.787775,129.85276 C 21.774067,128.56279 17.641171,119.226 16.375193,113.09883 C 13.830233,100.7815 17.069342,82.59913 23.069206,75.468682 C 26.236448,71.704684 28.003781,71.663763 28.742102,75.355214 C 30.042962,81.859615 38.151576,80.007042 46.97096,71.157277 C 53.950971,64.15325 67.201909,54.01445 72.990626,51.264354 C 75.195679,50.216767 78.371185,48.516583 80.025021,47.482438 C 81.678786,46.448313 86.65807,44.37687 91.068237,42.8685 C 100.30743,39.708416 111.1019,34.107703 115.38601,30.274667 C 117.01353,28.818569 121.17619,26.157836 122.79858,24.942165 C 125.0058,23.347333 125.9959,23.602001 128.16892,24.942165 C 129.79132,26.157836 133.99178,28.818569 135.61929,30.274667 C 139.90342,34.107703 150.69787,39.708416 159.93707,42.8685 C 164.34723,44.37687 169.32652,46.448313 170.9803,47.482438 C 172.6341,48.516583 175.8096,50.216767 178.01469,51.264354 C 183.80343,54.01445 197.05431,64.15325 204.03432,71.157277 C 212.85369,80.007042 220.92448,81.859615 222.22537,75.355214 C 222.96368,71.663763 224.73105,71.704684 227.89827,75.468682 C 233.89815,82.59913 237.17505,100.7815 234.6301,113.09883 C 233.36412,119.226 229.23122,128.56279 227.21753,129.85276 C 226.57034,130.26733 223.78045,128.31231 220.59916,125.23882 C 217.56714,122.30951 212.62572,118.45676 209.59375,116.65383 C 197.11922,109.23629 190.79104,101.73719 192.68853,96.685263 C 193.22761,95.250136 194.10456,94.580478 194.95771,94.907783 C 195.72926,95.203857 197.11481,94.589443 198.05889,93.546283 C 199.9524,91.453929 199.54432,87.976789 196.92429,83.978014 C 193.6286,78.948136 174.03757,69.389478 158.27303,65.068379 C 143.11437,60.913314 138.20923,61.959658 136.45134,69.757978 C 135.98493,71.826975 135.55894,83.297602 135.46803,95.285964 C 135.26221,117.42185 134.80123,139.56551 134.29562,161.69656 C 134.15888,172.41049 134.32093,183.12888 134.37125,193.84293 L 179.26272,193.72946 C 181.25397,193.78622 181.53613,207.64695 178.88452,207.64695 L 133.91744,207.64695 L 133.91744,223.03937 C 147.30354,229.15615 150.35631,240.85607 146.09522,250.38271 C 143.15187,258.34148 135.49446,264.14175 126.35358,264.67838 C 126.23698,264.69784 126.1306,264.73575 126.01322,264.75401 C 125.83531,264.75401 125.66066,264.72015 125.48375,264.71619 C 125.31664,264.71974 125.1601,264.75401 124.9921,264.75401 z M 125.48375,254.27807 C 130.37014,254.27807 134.50639,251.16581 135.88403,246.90333 C 136.09599,246.24756 136.26373,245.56507 136.33786,244.86107 C 136.37494,244.50907 136.3758,244.16358 136.37568,243.80214 C 136.3758,243.44073 136.37494,243.05739 136.33786,242.70539 C 136.26373,242.00139 136.09599,241.31892 135.88403,240.66315 C 134.50639,236.40065 130.37016,233.3262 125.48375,233.3262 C 120.97318,233.3262 117.11387,235.95934 115.46165,239.71767 C 115.18628,240.34405 114.96359,241.00261 114.81873,241.68427 C 114.67385,242.3659 114.62942,243.07929 114.62963,243.80214 C 114.62942,244.52498 114.67385,245.23837 114.81873,245.92003 C 114.96359,246.60166 115.18628,247.26024 115.46165,247.88663 C 117.11387,251.64494 120.97318,254.27807 125.48375,254.27807 z"
     id="Anchor"
     style="fill:#000000;fill-rule:evenodd;stroke:none" />
  <path
     d="M 249.55062,1.4395041 L 125.50012,1.4395041 L 1.449569,1.4395041 L 1.449569,174.9361 C 0.68232904,268.65698 81.739009,302.75585 125.5001,302.75585 C 168.49395,302.75585 250.31785,268.65698 249.55062,174.9361 L 249.55062,1.4395041 z"
     id="Frame"
     style="fill:none;fill-opacity:0;stroke:#000000;stroke-width:1.88832211;stroke-linejoin:bevel" />
</svg>
