<?xml version="1.0" encoding="UTF-8" standalone="no"?>
<!-- Created with Inkscape (http://www.inkscape.org/) -->
<svg
   xmlns:dc="http://purl.org/dc/elements/1.1/"
   xmlns:cc="http://web.resource.org/cc/"
   xmlns:xlink="http://www.w3.org/1999/xlink"
   xmlns:rdf="http://www.w3.org/1999/02/22-rdf-syntax-ns#"
   xmlns:svg="http://www.w3.org/2000/svg"
   xmlns="http://www.w3.org/2000/svg"
   version="1.0"
   width="251"
   height="304.20001"
   id="svg4166">
  <defs
     id="defs4168" />
  <metadata
     id="metadata1880"><rdf:RDF><cc:Work
         rdf:about=""><dc:title>Sigtuna kommunvapen</dc:title><dc:date>08-01-2007</dc:date><dc:creator><cc:Agent><dc:title>Lokal_Profil</dc:title></cc:Agent></dc:creator><cc:license
         rdf:resource="http://creativecommons.org/licenses/by-sa/2.5/" /><dc:rights><cc:Agent><dc:title>cc-by-sa-2.5</dc:title></cc:Agent></dc:rights><dc:format>image/svg+xml</dc:format><dc:type
         rdf:resource="http://purl.org/dc/dcmitype/StillImage" /></cc:Work><cc:License
         rdf:about="http://creativecommons.org/licenses/by-sa/2.5/"><cc:permits
         rdf:resource="http://web.resource.org/cc/Reproduction" /><cc:permits
         rdf:resource="http://web.resource.org/cc/Distribution" /><cc:requires
         rdf:resource="http://web.resource.org/cc/Notice" /><cc:requires
         rdf:resource="http://web.resource.org/cc/Attribution" /><cc:permits
         rdf:resource="http://web.resource.org/cc/DerivativeWorks" /><cc:requires
         rdf:resource="http://web.resource.org/cc/ShareAlike" /></cc:License></rdf:RDF>
  </metadata>
  <path
     d="M 249.55058,1.4395041 L 125.50008,1.4395041 L 1.4495291,1.4395041 L 1.4495291,174.9361 C 0.68228908,268.65698 81.738969,302.75585 125.50006,302.75585 C 168.49391,302.75585 250.31781,268.65698 249.55058,174.9361 L 249.55058,1.4395041 z "
     style="color:#000000;fill:#003d8f;fill-opacity:1;fill-rule:nonzero;stroke:none;stroke-width:1.88832211;stroke-linecap:round;stroke-linejoin:bevel;marker:none;marker-start:none;marker-mid:none;marker-end:none;stroke-miterlimit:4;stroke-dashoffset:0;stroke-opacity:1;visibility:visible;display:block"
     id="Shield" />
  <path
     d="M 15.5,31.501664 L 42.390985,37.440744 L 49.39313,10.655352 L 57.695242,36.91318 L 84.393136,29.58452 L 65.804245,49.903267 L 85.5,69.36 L 58.609002,63.420919 L 51.606856,90.206312 L 43.304747,63.948484 L 16.606858,71.277144 L 35.195749,50.958388 L 15.5,31.501664 z "
     style="fill:#eeeeee;fill-opacity:1;fill-rule:nonzero;stroke:none;stroke-width:1.5;stroke-miterlimit:4;stroke-dasharray:none;stroke-opacity:1"
     id="6-pt-star-sharp" />
  <path
     d="M 38.826691,102.61939 C 51.239861,120.19127 58.721699,140.76634 60.495006,162.20728 L 60.495006,194.70976 C 103.53072,187.487 147.46925,187.487 190.50495,194.70976 L 190.50495,162.20728 C 192.27825,140.76634 199.76009,120.19127 212.17328,102.61939 C 206.87213,97.799225 198.71966,97.992836 193.65328,103.0592 C 188.58694,108.12556 188.39333,116.27803 193.2135,121.57918 L 189.30777,130.17126 C 187.02191,125.72144 181.98659,123.41527 177.12413,124.59118 C 172.2617,125.76707 168.83658,130.11927 168.83663,135.12187 C 168.83666,138.45431 170.37029,141.60133 172.99489,143.65473 C 175.61952,145.70813 179.04308,146.43946 182.27761,145.63764 L 179.6708,151.37311 C 178.5051,154.87079 175.23198,157.23006 171.54517,157.23006 C 167.85836,157.23006 164.58524,154.87079 163.41955,151.37311 L 163.41955,118.87063 C 166.41132,118.87063 168.83663,116.44532 168.83663,113.45355 C 168.83663,110.46178 166.41132,108.03647 163.41955,108.03647 C 160.42778,108.03647 158.00247,110.46178 158.00247,113.45355 C 158.00243,115.87231 159.60591,117.99802 161.93165,118.66237 L 152.58538,151.37311 C 151.33401,155.32086 147.3701,157.74759 143.28512,157.06676 C 139.20013,156.38593 136.23752,152.80478 136.33415,148.66457 L 135.11049,138.26558 C 138.37808,140.80045 142.80373,141.254 146.51757,139.43463 C 150.23141,137.61525 152.58556,133.84033 152.58538,129.7048 C 152.58538,125.10782 149.68437,121.01133 145.34814,119.48515 C 141.0119,117.95896 136.18463,119.33541 133.3054,122.91899 L 132.63488,117.22084 C 138.2135,114.49484 141.7513,108.8284 141.75122,102.61939 C 141.75112,94.854564 136.25805,88.174563 128.63948,86.674518 L 128.20853,83.659612 C 128.20853,82.163726 126.99587,80.95107 125.49998,80.95107 C 124.0041,80.95107 122.79144,82.163726 122.79144,83.659612 L 122.36048,86.674518 C 114.74192,88.174563 109.24885,94.854564 109.24874,102.61939 C 109.24865,108.8284 112.78647,114.49484 118.36509,117.22084 L 117.69457,122.91899 C 114.81534,119.33541 109.98806,117.95896 105.65182,119.48515 C 101.3156,121.01133 98.41457,125.10782 98.41457,129.7048 C 98.414405,133.84033 100.76856,137.61525 104.4824,139.43463 C 108.19624,141.254 112.62187,140.80045 115.88948,138.26558 L 114.66582,148.66457 C 114.76245,152.80478 111.79984,156.38593 107.71485,157.06676 C 103.62986,157.74759 99.665938,155.32086 98.41457,151.37311 L 89.068303,118.66237 C 91.394045,117.99802 92.997537,115.87231 92.997504,113.45355 C 92.997504,110.46178 90.572176,108.03647 87.580421,108.03647 C 84.588649,108.03647 82.163338,110.46178 82.163338,113.45355 C 82.163338,116.44532 84.588649,118.87063 87.580421,118.87063 L 87.580421,151.37311 C 86.414728,154.87079 83.141608,157.23006 79.454796,157.23006 C 75.767985,157.23006 72.494865,154.87079 71.329172,151.37311 L 68.722345,145.63764 C 71.956886,146.43946 75.38045,145.70813 78.005065,143.65473 C 80.62968,141.60133 82.163305,138.45431 82.163338,135.12187 C 82.163387,130.11927 78.738272,125.76707 73.875835,124.59118 C 69.013381,123.41527 63.978058,125.72144 61.692184,130.17126 L 57.786481,121.57918 C 62.606626,116.27803 62.413031,108.12556 57.346669,103.0592 C 52.280308,97.992836 44.127835,97.799225 38.826691,102.61939 z "
     style="fill:#ffcd50;fill-opacity:1;fill-rule:evenodd;stroke:none;stroke-width:1.65343726;stroke-linecap:butt;stroke-linejoin:miter;stroke-miterlimit:4;stroke-dasharray:none;stroke-opacity:1"
     id="krone-1" />
  <use
     transform="translate(149.5,-1.792969e-6)"
     id="star2"
     x="0"
     y="0"
     width="251"
     height="304.04999"
     xlink:href="#6-pt-star-sharp" />
  <use
     transform="translate(75,198.3987)"
     id="star3"
     x="0"
     y="0"
     width="251"
     height="304.04999"
     xlink:href="#6-pt-star-sharp" />
  <path
     d="M 249.55062,1.4395041 L 125.50012,1.4395041 L 1.449569,1.4395041 L 1.449569,174.9361 C 0.68232904,268.65698 81.739009,302.75585 125.5001,302.75585 C 168.49395,302.75585 250.31785,268.65698 249.55062,174.9361 L 249.55062,1.4395041 z "
     style="color:#000000;fill:none;fill-opacity:0;fill-rule:nonzero;stroke:#000000;stroke-width:1.88832211;stroke-linecap:round;stroke-linejoin:bevel;marker:none;marker-start:none;marker-mid:none;marker-end:none;stroke-miterlimit:4;stroke-dashoffset:0;stroke-opacity:1;visibility:visible;display:block"
     id="Frame" />
</svg>
