<?xml version="1.0" encoding="UTF-8" standalone="no"?>
<!-- Created with Inkscape (http://www.inkscape.org/) -->
<svg
   xmlns:dc="http://purl.org/dc/elements/1.1/"
   xmlns:cc="http://web.resource.org/cc/"
   xmlns:rdf="http://www.w3.org/1999/02/22-rdf-syntax-ns#"
   xmlns:svg="http://www.w3.org/2000/svg"
   xmlns="http://www.w3.org/2000/svg"
   xmlns:xlink="http://www.w3.org/1999/xlink"
   version="1.0"
   width="251"
   height="304.20001"
   id="svg4166">
  <defs
     id="defs4168" />
  <metadata
     id="metadata1880"><rdf:RDF><cc:Work
         rdf:about=""><dc:title>Nynashamn kommunvapen</dc:title><dc:date>13-12-2006</dc:date><dc:creator><cc:Agent><dc:title>Lokal_Profil</dc:title></cc:Agent></dc:creator><cc:license
         rdf:resource="http://creativecommons.org/licenses/by-sa/2.5/" /><dc:rights><cc:Agent><dc:title>cc-by-sa-2.5</dc:title></cc:Agent></dc:rights><dc:format>image/svg+xml</dc:format><dc:type
         rdf:resource="http://purl.org/dc/dcmitype/StillImage" /></cc:Work><cc:License
         rdf:about="http://creativecommons.org/licenses/by-sa/2.5/"><cc:permits
         rdf:resource="http://web.resource.org/cc/Reproduction" /><cc:permits
         rdf:resource="http://web.resource.org/cc/Distribution" /><cc:requires
         rdf:resource="http://web.resource.org/cc/Notice" /><cc:requires
         rdf:resource="http://web.resource.org/cc/Attribution" /><cc:permits
         rdf:resource="http://web.resource.org/cc/DerivativeWorks" /><cc:requires
         rdf:resource="http://web.resource.org/cc/ShareAlike" /></cc:License></rdf:RDF>
  </metadata>
  <path
     d="M 249.55058,1.4395041 L 125.50008,1.4395041 L 1.4495291,1.4395041 L 1.4495291,174.9361 C 0.68228908,268.65698 81.738969,302.75585 125.50006,302.75585 C 168.49391,302.75585 250.31781,268.65698 249.55058,174.9361 L 249.55058,1.4395041 z"
     id="Shield"
     style="fill:#eeeeee;fill-opacity:1;fill-rule:nonzero;stroke:none;stroke-width:1.88832211;stroke-linecap:round;stroke-linejoin:bevel;marker:none;marker-start:none;marker-mid:none;marker-end:none;stroke-miterlimit:4;stroke-dashoffset:0;stroke-opacity:1;visibility:visible;display:block" />
  <path
     d="M 125.11758,108.68582 C 125.03073,108.69933 124.94765,108.72838 124.86133,108.74277 C 118.03954,109.13668 112.3486,113.42847 110.0837,119.33485 C 106.7564,126.53885 109.00457,135.4483 119.16667,140.09187 L 119.16667,151.68049 L 85.311916,151.68049 C 83.315571,151.68049 83.528024,162.11595 85.02717,162.15869 L 118.82499,162.07326 C 118.86289,170.13964 118.95641,178.20928 118.85345,186.27558 C 118.47281,202.93757 118.15422,219.60905 117.99927,236.27468 C 117.93081,245.30045 117.61012,253.93645 117.25897,255.49415 C 115.93547,261.36535 112.2425,262.15311 100.82986,259.02485 C 88.961071,255.77159 74.211394,248.57508 71.730142,244.78819 C 69.75757,241.7776 69.421853,239.15974 70.847459,237.58445 C 71.558225,236.79907 72.629861,236.3365 73.210749,236.5594 C 73.853063,236.80582 74.513288,236.30165 74.919145,235.22117 C 76.347754,231.41769 71.58339,225.77178 62.191574,220.18728 C 59.908849,218.82989 56.188582,215.92924 53.905846,213.72383 C 51.510712,211.40985 49.410283,209.93797 48.923023,210.25008 C 47.406948,211.22127 44.295372,218.25075 43.342252,222.86375 C 41.426206,232.13721 43.864858,245.82632 48.382031,251.19468 C 50.766577,254.02852 52.097164,254.05933 52.653029,251.28011 C 53.632419,246.38309 59.73722,247.77785 66.37715,254.44064 C 71.63224,259.71384 81.608588,267.34713 85.966797,269.41761 C 87.626928,270.20631 90.017701,271.48635 91.262833,272.26493 C 92.507921,273.0435 96.256721,274.60304 99.577048,275.73867 C 106.53303,278.11783 114.65995,282.33447 117.88537,285.22029 C 119.11069,286.31655 122.24468,288.31977 123.46613,289.23502 C 125.1279,290.43574 125.87332,290.244 127.50935,289.23502 C 128.73082,288.31977 131.89326,286.31655 133.11857,285.22029 C 136.344,282.33447 144.47091,278.11783 151.42691,275.73867 C 154.74722,274.60304 158.49602,273.0435 159.74111,272.26493 C 160.98623,271.48635 163.377,270.20631 165.03716,269.41761 C 169.39538,267.34713 179.37169,259.71384 184.62679,254.44064 C 191.26669,247.77785 197.34302,246.38309 198.32243,251.28011 C 198.8783,254.05933 200.2089,254.02852 202.59344,251.19468 C 207.11063,245.82632 209.57773,232.13721 207.6617,222.86375 C 206.70856,218.25075 203.59698,211.22127 202.08093,210.25008 C 201.59367,209.93797 199.49323,211.40985 197.0981,213.72383 C 194.81535,215.92924 191.09507,218.82989 188.81237,220.18728 C 179.42055,225.77178 174.6562,231.41769 176.08478,235.22117 C 176.49064,236.30165 177.15089,236.80582 177.7932,236.5594 C 178.37408,236.3365 179.41724,236.79907 180.12801,237.58445 C 181.55359,239.15974 181.24636,241.7776 179.27379,244.78819 C 176.79254,248.57508 162.04288,255.77159 150.17409,259.02485 C 138.76146,262.15311 135.06848,261.36535 133.74501,255.49415 C 133.39386,253.93645 133.07314,245.30045 133.00469,236.27468 C 132.84974,219.60905 132.50268,202.93757 132.122,186.27558 C 132.01906,178.20928 132.14107,170.13964 132.17896,162.07326 L 165.97678,162.15869 C 167.47595,162.11595 167.68837,151.68049 165.69205,151.68049 L 131.83728,151.68049 L 131.83728,140.09187 C 141.9154,135.48669 144.21376,126.67807 141.00567,119.50567 C 138.78969,113.51367 133.02459,109.14678 126.14262,108.74277 C 126.05483,108.72811 125.97474,108.69956 125.88637,108.68582 C 125.75242,108.68582 125.62093,108.71131 125.48774,108.7143 C 125.36193,108.71162 125.24408,108.68582 125.11758,108.68582 z M 125.48774,116.57294 C 129.1666,116.57294 132.28069,118.91609 133.31789,122.12521 C 133.47748,122.61893 133.60377,123.13276 133.65957,123.66279 C 133.68749,123.9278 133.68814,124.18792 133.68804,124.46004 C 133.68814,124.73213 133.68749,125.02074 133.65957,125.28575 C 133.60377,125.81578 133.47748,126.3296 133.31789,126.82331 C 132.28069,130.03246 129.16661,132.34714 125.48774,132.34714 C 122.09183,132.34714 119.18624,130.36471 117.94232,127.53514 C 117.735,127.06356 117.56733,126.56774 117.45829,126.05454 C 117.3492,125.54134 117.31575,125.00426 117.3159,124.46004 C 117.31575,123.91583 117.3492,123.37873 117.45829,122.86552 C 117.56733,122.35233 117.735,121.8565 117.94232,121.38491 C 119.18624,118.55535 122.09183,116.57294 125.48774,116.57294 z"
     id="Anchor"
     style="fill:#000000;fill-rule:evenodd;stroke:none" />
  <path
     d="M 0.5,0.10033221 L 0.5,97.927343 C 9.40964,92.940755 21.724528,87.639099 34.09375,87.639099 C 57.4822,87.639099 57.486537,106.56001 80.874995,106.56001 C 104.26345,106.56001 104.26779,87.639099 127.65625,87.639099 C 151.04469,87.639099 151.04904,106.56001 174.4375,106.56001 C 197.82594,106.56001 197.83029,87.639099 221.21875,87.639099 C 231.69142,87.639099 242.12708,91.431467 250.5,95.621359 L 250.5,0.10033221 L 125.5,0.10033221 L 0.5,0.10033221 z"
     id="Vagskuren-chef"
     style="fill:#d40000" />
  <path
     d="M 123.44661,16.825474 C 115.27096,17.472557 108.14403,21.846053 103.75899,28.248985 L 121.78525,38.657225 C 122.27719,38.243351 122.83661,37.912898 123.44661,37.677448 L 123.44661,16.825474 z M 127.67097,16.825474 L 127.67097,37.684549 C 128.2785,37.919864 128.84208,38.244809 129.33229,38.657225 L 147.35857,28.248985 C 142.97352,21.846053 135.84659,17.472557 127.67097,16.825474 z M 101.66455,31.905353 C 100.05482,35.317559 99.151245,39.123416 99.151245,43.144274 C 99.151245,47.2403 100.08297,51.121244 101.74975,54.58196 L 119.78314,44.16662 C 119.72496,43.835366 119.69084,43.499207 119.69084,43.151366 C 119.69084,42.882527 119.71254,42.615461 119.74762,42.356198 L 101.66455,31.905353 z M 149.45299,31.905353 L 131.36993,42.349088 C 131.40564,42.61061 131.41962,42.880088 131.41962,43.151366 C 131.41962,43.501844 131.38637,43.840108 131.32732,44.173712 L 149.3678,54.58196 C 151.03461,51.121244 151.9663,47.240309 151.9663,43.144274 C 151.9663,39.123416 151.06273,35.317559 149.45299,31.905353 z M 121.96985,47.780408 L 103.88679,58.224133 C 108.28165,64.528508 115.34817,68.829176 123.44661,69.470155 L 123.44661,48.618155 C 122.91126,48.411443 122.41609,48.126422 121.96985,47.780408 z M 129.1477,47.780408 C 128.70184,48.126557 128.20589,48.411146 127.67097,48.618155 L 127.67097,69.470155 C 135.76938,68.829176 142.83591,64.528526 147.23077,58.224133 L 129.1477,47.780408 z M 115.4696,11.862317 L 114.25914,12.27808 L 113.08664,12.775259 L 111.82103,10.061111 L 110.33548,10.737307 L 108.9576,11.396351 L 106.30399,12.898082 L 104.92695,13.771514 L 103.6693,14.688406 L 105.37826,17.113214 L 104.35131,17.92252 L 103.39762,18.747218 L 101.15268,20.98361 L 100.29573,21.944935 L 99.504855,22.941578 L 97.033105,21.21941 L 96.093755,22.500019 L 95.226775,23.829527 L 93.706255,26.521129 L 92.997545,27.942041 L 92.368425,29.391913 L 95.153285,30.687203 L 94.678935,31.866644 L 94.284165,33.075065 L 93.430235,36.133238 L 93.148555,37.371538 L 92.952785,38.652383 L 89.851925,38.380088 L 89.635275,39.935018 L 89.538005,41.533409 L 89.499995,44.640658 L 89.598135,46.197488 L 89.782205,47.796869 L 92.924835,47.520974 L 93.131615,48.779318 L 93.391775,50.045834 L 94.260185,53.077376 L 94.663285,54.260696 L 95.145975,55.472987 L 92.241845,56.827217 L 92.960495,58.474694 L 93.549935,59.703293 L 95.089645,62.438321 L 95.493815,63.092459 L 95.937775,63.761096 L 96.879965,65.073026 L 99.523735,63.195869 L 100.32037,64.195688 L 101.15774,65.176508 L 103.39413,67.421459 L 104.3229,68.244004 L 105.36656,69.029498 L 103.46973,71.764418 L 104.71057,72.689276 L 106.06629,73.577081 L 108.7778,75.104831 L 110.19238,75.799973 L 111.68205,76.443581 L 113.08504,73.393715 L 114.25184,73.840916 L 115.47291,74.262818 L 118.54466,75.110429 L 119.77664,75.378548 L 121.05025,75.594206 L 120.75705,78.969152 L 122.29933,79.158674 L 123.91037,79.283072 L 127.05834,79.302089 L 128.60884,79.190381 L 130.2281,79.013567 L 129.91884,75.622151 L 131.15729,75.408131 L 132.44369,75.155231 L 135.50239,74.274149 L 136.6857,73.871066 L 137.87086,73.401023 L 139.301,76.467998 L 140.69788,75.84968 L 142.16442,75.132767 L 144.91303,73.586729 L 145.22067,73.360667 L 145.54818,73.141859 L 146.22314,72.71147 L 146.86554,72.246701 L 147.51425,71.795504 L 145.59373,69.02327 L 147.56079,67.395575 L 149.79217,65.165519 L 150.61654,64.169804 L 151.42735,63.180416 L 154.16136,65.110709 L 155.07445,63.809282 L 155.49439,63.15086 L 155.94146,62.479784 L 157.47643,59.748383 L 157.77065,59.032928 L 157.92816,58.662101 L 158.1119,58.312082 L 158.76817,56.849545 L 155.77889,55.434791 L 156.22609,54.267995 L 156.66066,53.074055 L 157.50826,50.002319 L 157.60616,49.361897 L 157.67501,49.048931 L 157.76374,48.743201 L 157.85438,48.122678 L 157.96492,47.5094 L 161.21954,47.792594 L 161.39008,46.209611 L 161.5,44.638364 L 161.49822,41.516615 L 161.41976,40.71062 L 161.3675,39.925415 L 161.20243,38.36675 L 158.01999,38.628146 L 157.79332,37.362557 L 157.56572,36.130439 L 156.68464,33.071762 L 156.24174,31.873952 L 155.79886,30.676123 L 158.63513,29.353556 L 158.07288,28.112285 L 157.29991,26.490133 L 155.75838,23.822039 L 154.86413,22.471228 L 153.9545,21.193679 L 151.42111,22.95326 L 149.79976,20.999774 L 147.56338,18.754823 L 146.58846,17.904214 L 145.60541,17.106986 L 147.32759,14.635243 L 146.00624,13.714886 L 144.70297,12.868706 L 142.02402,11.375345 L 140.56241,10.685621 L 139.13243,10.063739 L 137.88693,12.742768 L 136.65319,12.293732 L 135.47192,11.886311 L 132.42008,11.045954 L 131.14105,10.783253 L 129.93441,10.569404 L 130.18313,7.5951824 L 128.58026,7.4174055 L 127.00269,7.2939258 L 123.94789,7.297544 L 122.35758,7.3947703 L 120.79168,7.5797386 L 121.05223,10.547795 L 119.76675,10.767224 L 118.54095,11.008387 L 115.4696,11.862317 z M 123.44087,45.266555 L 127.67841,45.266555 L 127.67841,41.029012 L 123.44087,41.029012 L 123.44087,45.266555"
     id="Cogwheel-6spokes-square"
     style="fill:#eeeeee;fill-rule:evenodd" />
  <use
     transform="translate(-80.50002,-3.792969e-6)"
     id="Cog-2"
     x="0"
     y="0"
     width="251"
     height="304.60001"
     xlink:href="#Cogwheel-6spokes-square" />
  <use
     transform="translate(80.50002,-3.792969e-6)"
     id="Cog-3"
     x="0"
     y="0"
     width="251"
     height="304.60001"
     xlink:href="#Cogwheel-6spokes-square" />
  <path
     d="M 249.55062,1.4395041 L 125.50012,1.4395041 L 1.449569,1.4395041 L 1.449569,174.9361 C 0.68232904,268.65698 81.739009,302.75585 125.5001,302.75585 C 168.49395,302.75585 250.31785,268.65698 249.55062,174.9361 L 249.55062,1.4395041 z"
     id="Frame"
     style="fill:none;fill-opacity:0;stroke:#000000;stroke-width:1.88832211;stroke-linejoin:bevel" />
</svg>
