<?xml version="1.0" encoding="UTF-8" standalone="no"?>
<!-- Created with Inkscape (http://www.inkscape.org/) -->

<svg
   xmlns:dc="http://purl.org/dc/elements/1.1/"
   xmlns:cc="http://creativecommons.org/ns#"
   xmlns:rdf="http://www.w3.org/1999/02/22-rdf-syntax-ns#"
   xmlns:svg="http://www.w3.org/2000/svg"
   xmlns="http://www.w3.org/2000/svg"
   version="1.0"
   width="251"
   height="304.20001"
   id="svg4166">
  <defs
     id="defs4168" />
  <metadata
     id="metadata1880"><rdf:RDF><cc:Work
         rdf:about=""><dc:title>Håbo kommunvapen</dc:title><dc:date>26-10-2007</dc:date><dc:creator><cc:Agent><dc:title>Lokal_Profil</dc:title></cc:Agent></dc:creator><cc:license
         rdf:resource="http://creativecommons.org/licenses/by-sa/2.5/" /><dc:rights><cc:Agent><dc:title>cc-by-sa-2.5</dc:title></cc:Agent></dc:rights><dc:format>image/svg+xml</dc:format><dc:type
         rdf:resource="http://purl.org/dc/dcmitype/StillImage" /></cc:Work><cc:License
         rdf:about="http://creativecommons.org/licenses/by-sa/2.5/"><cc:permits
         rdf:resource="http://web.resource.org/cc/Reproduction" /><cc:permits
         rdf:resource="http://web.resource.org/cc/Distribution" /><cc:requires
         rdf:resource="http://web.resource.org/cc/Notice" /><cc:requires
         rdf:resource="http://web.resource.org/cc/Attribution" /><cc:permits
         rdf:resource="http://web.resource.org/cc/DerivativeWorks" /><cc:requires
         rdf:resource="http://web.resource.org/cc/ShareAlike" /></cc:License></rdf:RDF>
  </metadata>
  <path
     d="m 249.55058,1.4395041 -248.1010509,0 0,173.4965959 C 0.68228908,268.65698 81.738969,302.75585 125.50006,302.75585 c 42.99385,0 124.81775,-34.09887 124.05052,-127.81975 l 0,-173.4965959 z"
     id="Shield"
     style="fill:#d40000;stroke:none" />
  <g
     id="Ram-and-Flag">
    <g
       id="Flag"
       style="fill:#ffcd50;stroke:#d40000">
      <path
         d="m 184.4506,8.1492025 -6.78159,11.7460515 -12.5352,-7.237203 -3.38203,5.857851 12.53521,7.237202 L 50.9392,239.3977 l 5.888201,3.39956 123.347789,-213.644601 12.53519,7.237198 3.38203,-5.85785 -12.53519,-7.237198 6.78158,-11.746052 -5.8882,-3.3995545 z"
         id="banner-pole" />
      <g
         id="g3249">
        <path
           d="m 139.26646,37.953179 c -1.70317,0 -3.09182,1.388407 -3.09157,3.091575 -2.5e-4,1.703169 1.3884,3.091576 3.09157,3.091577 1.13804,0 2.13571,-0.628555 2.67,-1.545788 l 46.17256,1e-6 c 0.5343,0.917233 1.53196,1.545787 2.67,1.545788 1.70317,0 3.07621,-1.388405 3.07596,-3.091577 2.5e-4,-1.703169 -1.37279,-3.091574 -3.07596,-3.091575 -1.13804,0 -2.1357,0.628555 -2.67,1.545788 l -46.17256,-10e-7 c -0.53429,-0.917233 -1.53196,-1.545788 -2.67,-1.545788 z"
           id="path2933" />
        <path
           d="m 144.73744,37.491165 40.22013,10e-7 -1.5e-4,67.479204 -4.46888,0 0,-9.988232 -4.46889,0 0,9.988232 -4.46889,0 0,-9.988232 -4.46888,0 0,9.988232 -4.46889,0 -1e-5,-9.988232 -4.46888,0 0,9.988232 -4.46889,0 0,-9.988232 -4.46889,0 0,9.988232 -4.46888,0 0,-67.479205 z"
           id="path2934" />
      </g>
      <path
         d="m 148.1506,55.470533 13.49151,10e-7 0,-13.491513 6.74575,0 0,13.491512 13.49151,-1e-6 1e-5,6.745755 -13.49152,10e-7 0,26.983023 -6.74575,-6e-6 0,-26.983018 -13.49152,10e-7 1e-5,-6.745755 z"
         id="Christian-cross"
         style="fill:#d40000;stroke:none" />
    </g>
    <g
       transform="translate(8.1517087,-0.72467)"
       id="ram"
       style="fill:#ffcd50;fill-rule:evenodd;stroke:none">
      <path
         d="m 82.239,195.588 c -1.2911,2.751 -4.0835,4.6581 -7.3223,4.6581 -4.0557,0 -7.4161,-2.9893 -7.9978,-6.8837 m 40.8004,-80.51521 c 4.4647,0 8.086,3.6215 8.086,8.086 0,0.31523 -0.0197,0.62505 -0.0547,0.93099 1.0689,-0.52081 2.2706,-0.81244 3.5397,-0.81244 3.7312,0 6.8717,2.5277 7.8033,5.9648"
         id="use3272"
         style="fill:none;stroke:#d40000;stroke-width:4" />
      <g
         id="ram-hoofs">
        <path
           d="m 40.96801,254.21731 -9.460334,-15.03209 c 3.685184,-2.65967 6.772568,-6.2741 9.452734,-9.94102 l 2.954786,2.15485 -2.063172,15.97557 -4.688411,-3.70761 4.288093,6.80664 -0.483462,3.74314 z"
           id="path28" />
        <path
           d="m 59.126,265.44 3.5633,0 6.0215,-5.3926 -2.9531,5.3926 17.178,0 1.5893,-3.18 c -4.3243,-2.2105 -8.6803,-4.8824 -12.013,-8.421 z"
           id="path20" />
        <path
           d="m 187.02,265.65 -15.74,0 2.9533,-5.3928 -6.0215,5.3928 -3.5633,0 12.537,-11.123 c 3.3577,3.3401 7.4271,5.9134 11.7,7.944 z"
           id="path12" />
        <path
           d="m 152.66,265.46 -15.739,0 2.9531,-5.3928 -6.0215,5.3928 -3.5633,0 12.809,-11.5 c 3.2701,3.4295 7.4989,6.0422 11.714,8.2092 z"
           id="path16" />
      </g>
      <g
         id="ram-body">
        <path
           d="m 43.120044,215.95304 c -0.589057,1.58237 -1.124259,3.19834 -1.612065,4.84879 -0.185812,0.62979 0.01829,1.28054 0.416339,1.97443 0.805018,1.40307 -0.416017,2.091 -2.24165,1.15584 -1.977806,-1.01363 -2.707352,2.12812 -0.3135,3.2265 -0.169162,3.06693 -7.154375,9.23282 -8.826703,10.06402 -1.263393,-0.90076 -2.238101,-3.14451 -2.452566,-4.67102 -0.543813,-3.88088 -3.410319,-5.10474 -3.259969,-8.20986 0.17474,-3.60007 2.701368,-6.90164 5.591439,-9.87276 0.804729,-0.82701 1.571271,-1.66866 2.300543,-2.52817 l 7.781747,-12.39145 c 2.117626,-4.12511 3.750388,-11.78966 5.179694,-13.58825 1.892852,1.29421 4.269183,1.46036 5.518177,1.14282 -0.514318,3.85045 0.661179,7.10712 3.974673,8.85747 -1.417495,2.71052 -1.552529,1.47235 -2.421029,3.04987 -0.540356,0.64676 -1.065339,1.30767 -1.57172,1.97796 z"
           id="path26" />
        <path
           d="m 191.43169,203.12 c 4.818,-1.0372 8.4324,-5.323 8.4324,-10.451 0,-0.56955 -0.0454,-1.1304 -0.1315,-1.6758 0.9192,-0.23788 1.7893,-0.5943 2.5952,-1.0526 1.7647,4.0578 4.3713,7.552 8.3585,10.126 l -0.15568,7.8613 c -3.7886,4.9408 -5.908,12.968 -8.1846,21.377 -1.4151,5.2244 -2.9226,10.654 -3.6571,15.712 -0.5477,3.7679 -1.1408,7.4617 -1.8624,11.218 -0.31794,2.4412 -3.2196,2.4669 -3.7366,0.15684 -0.5005,-2.2339 -3.5194,-0.69834 -2.5518,1.404 0.69235,1.5048 0.68481,2.8851 -0.17715,3.5484 -4.5742,-2.0923 -8.9866,-4.818 -12.484,-8.4566 0.68036,-3.6416 5.4589,-5.2737 7.6776,-7.8135 1.7286,-1.2664 3.4494,-6.5576 5.98417,-15.25482 C 194.0735,221.122 195.6078,215.203 191.43169,203.12 z"
           id="path14" />
        <path
           d="m 169.3158,206.274 c 1.8349,1.4818 4.1696,2.3689 6.7112,2.3689 4.1789,0 7.7965,-2.4018 9.5546,-5.8981 0.85344,0.30421 1.7576,0.50495 2.6955,0.58328 l 0.20713,3.781 c -4.385,6.8436 -9.0909,15.403 -13.982,23.613 -3.3474,5.6175 -7.1504,10.722 -9.6194,15.64 -1.6315,3.2504 -0.65618,6.5588 -1.9763,9.5372 -0.8931,2.3287 -3.1877,2.787 -3.4339,0.43301 -0.23845,-2.2766 -3.4148,-1.1008 -2.6973,1.0992 0.23807,0.73006 0.63434,3.1312 -0.34482,3.7228 -4.4738,-2.2378 -9.0853,-4.9691 -12.484,-8.6824 -1.0093,-3.6024 7.2221,-7.1755 8.9965,-8.7851 1.8634,-1.0579 5.5156,-5.5982 8.64529,-12.0642 3.1297,-6.46599 6.5894,-15.38259 7.7275,-25.34859 z"
           id="path18" />
        <path
           d="m 86.1456,217.1568 c 0.30421,1.3969 0.61403,2.8234 0.26746,4.2804 -1.1956,5.0298 -2.8874,9.9258 -3.9628,14.981 -1.2894,6.0598 -3.6714,9.0004 -6.738,11.102 -1.705,1.1687 -2.5963,2.6489 -2.634,4.5045 3.2771,3.7656 7.8079,6.5439 12.26,8.813 0.60803,-1.1704 0.52313,-2.7212 0.05492,-4.6736 -0.62718,-2.6158 2.1122,-4.2661 3.2602,-1.9728 0.92752,1.8533 3.4776,1.8144 3.2436,-2.3907 0.26708,-16.23 3.3873,-30.676 9.3634,-43.339 l 3.9197,-9.7333 c -0.47865,0.0652 -0.96445,0.10075 -1.4605,0.10075 -1.8392,0 -3.5693,-0.46704 -5.0807,-1.2855 -1.8738,3.0908 -5.2712,5.1592 -9.1485,5.1592 -0.66121,0 -1.3079,-0.0615 -1.9357,-0.17599 0.10405,2.9259 -0.06904,5.8368 -0.77639,8.18782 -0.70735,2.35102 -1.07344,4.41902 -0.63269,6.44222 z"
           id="path22" />
        <path
           d="m 197.2661,192.671 c 0,4.4647 -3.6215,8.086 -8.0862,8.086 -1.9423,0 -3.7261,-0.68674 -5.1201,-1.8287 -0.48464,4.0025 -3.8928,7.1068 -8.0257,7.1068 -3.9576,0 -7.2529,-2.8468 -7.95,-6.603 -1.4814,1.8672 -3.7691,3.0666 -6.3368,3.0666 -4.1235,0 -7.529,-3.0908 -8.0251,-7.0806 -1.4829,1.7032 -3.6642,2.7816 -6.0989,2.7816 -3.8812,0 -7.1256,-2.7383 -7.9067,-6.3872 -1.4698,2.0229 -3.8528,3.3397 -6.5433,3.3397 -3.4614,0 -6.4162,-2.1774 -7.5696,-5.2365 -1.3371,2.622 -4.0617,4.4202 -7.2061,4.4202 -2.9336,0 -5.504,-1.5657 -6.9218,-3.9042 -0.98998,3.3467 -4.0868,5.7918 -7.7538,5.7918 -2.513,0 -4.7594,-1.1492 -6.243,-2.9483 -0.60745,3.8642 -3.952,6.8218 -7.9862,6.8218 -3.1796,0 -5.9331,-1.8392 -7.2538,-4.509 -1.2911,2.751 -4.0835,4.6581 -7.3223,4.6581 -4.0557,0 -7.4161,-2.9893 -7.9978,-6.8837 -1.4752,1.5694 -3.5683,2.5513 -5.891,2.5513 -4.4645,0 -8.086,-3.6213 -8.086,-8.086 0,-0.93197 0.15684,-1.8272 0.44674,-2.6603 -0.73954,0.2226 -1.523,0.34424 -2.3348,0.34424 -4.4645,0 -8.086,-3.6215 -8.086,-8.086 0,-2.0316 0.75172,-3.8907 1.9894,-5.311 -4.3073,-0.17831 -7.7472,-3.7267 -7.7472,-8.0779 0,-3.0222 1.6611,-5.6591 4.1187,-7.0471 -3.2268,-1.0625 -5.5583,-4.099 -5.5583,-7.6804 0,-3.623 2.3863,-6.6918 5.6713,-7.7197 -2.2351,-1.439 -3.7174,-3.9476 -3.7174,-6.8021 0,-3.4772 2.1983,-6.4447 5.2797,-7.5861 -2.4691,-1.3843 -4.1406,-4.0249 -4.1406,-7.0566 0,-2.4927 1.1288,-4.7215 2.9034,-6.2045 1.65,-1.3739 2.4783,-4.4372 1.9351,-6.8723 -1.0153,-4.5546 -6.8115,-4.1829 -10.398,-3.8928 -3.5764,0.76372 -6.8788,0.89735 -8.513,-2.8309 5.9447,0.0174 9.719,-4.7579 14.68,-3.9394 1.1244,0.18527 1.7877,-2.833 0.20828,-3.0053 -5.0511,-0.55137 -10.902,5.0381 -15.52,4.9362 -1.8995,-0.92597 -4.022,-1.1464 -3.1916,-5.6307 0.36455,-0.63162 0.6792,-1.2861 0.95169,-1.9587 1.9742,0.32935 4.0632,0.50921 6.3532,-0.98128 1.5694,-1.0174 1.0722,-3.0618 -0.40632,-2.6304 -1.4949,0.43262 -3.537,1.1929 -5.1042,1.0697 0.17812,-0.65638 0.33283,-1.324 0.47691,-1.9956 10.202,-11.792 25.546,-18.806 42.83,-23.43 11.475247,-3.074783 18.739386,0.09279 24.021575,7.190322 3.515036,2.754275 5.945969,8.44975 6.715468,13.304726 1.838324,1.420613 3.102639,4.552318 1.811958,9.43329 2.559229,0.936712 5.257969,2.646247 3.602459,8.032092 3.4766,0.90508 6.0445,4.0632 6.0445,7.8228 0,1.587 -0.4595,3.0666 -1.2499,4.3154 0.23188,-0.0197 0.46704,-0.0302 0.70434,-0.0302 4.4647,0 8.086,3.6215 8.086,8.086 0,0.31523 -0.0197,0.62505 -0.0547,0.93099 1.0689,-0.52081 2.2706,-0.81244 3.5397,-0.81244 3.7312,0 6.8717,2.5277 7.8033,5.9648 1.48,-1.8879 3.7841,-3.0999 6.3685,-3.0999 3.1005,0 5.7922,1.7454 7.149,4.3082 1.3569,-2.5629 4.0518,-4.3082 7.1525,-4.3082 2.9247,0 5.4852,1.553 6.9057,3.8795 1.3157,-2.6833 4.0764,-4.5302 7.2658,-4.5302 3.0738,0 5.7469,1.7158 7.1146,4.2425 1.3454,-2.5979 4.0601,-4.373 7.1869,-4.373 3.5169,0 6.5083,2.2461 7.6213,5.3824 1.4779,-1.927 3.805,-3.1688 6.4205,-3.1688 4.4645,0 8.086,3.6215 8.086,8.086 l -10e-4,0.0818 c 1.2101,-0.72194 2.6249,-1.1354 4.1357,-1.1354 4.4645,0 8.086,3.6215 8.086,8.086 0,1.3102 -0.31408,2.5458 -0.86718,3.6401 0.10636,-0.004 0.21486,-0.006 0.32219,-0.006 4.4647,0 8.086,3.6215 8.086,8.086 0,2.5261 -1.1609,4.7803 -2.9761,6.2633 3.0409,1.1621 5.2031,4.1088 5.2031,7.5569 0,4.1088 -3.069,7.5018 -7.0374,8.017 0.90798,1.307 1.4419,2.8957 1.4419,4.6072 0,4.4645 -3.6215,8.086 -8.086,8.086 -0.26707,0 -0.53183,-0.0135 -0.79272,-0.0395 1.1774,-1.717 1.8676,-3.7942 1.8676,-6.0331 0,-2.2683 -0.70879,-4.3692 -1.9142,-6.0998 2.4252,-1.9602 3.9789,-4.9596 3.9789,-8.3194 0,-3.9182 -2.1119,-7.3428 -5.2568,-9.2038 0.7204,-1.4385 1.1283,-3.0628 1.1283,-4.7803 0,-5.9026 -4.7875,-10.69 -10.69,-10.69 l 0,2.604 c 4.4647,0 8.086,3.6213 8.086,8.086 0,2.3809 -1.0312,4.5227 -2.6692,6.0022 3.8518,0.61789 6.7978,3.9565 6.7978,7.982 0,3.6114 -2.371,6.6727 -5.64,7.7098 2.1562,1.4528 3.5755,3.9153 3.5755,6.7094 0,4.7854 -4.2065,8.5264 -8.92269,8.04418 0.66324,1.17618 1.046,2.53518 1.046,3.98138 z"
           id="path3061" />
        <path
           d="m 79.8414,96.1518 c -4.8006,0 -8.7789,-3.4668 -9.4829,-7.9895 -0.41986,-2.7009 -0.12783,-5.6131 1.2745,-7.9725 2.3832,-4.0151 9.1019,-6.2101 13.376,-7.0769 4.4821,-0.90934 10.552,-1.0635 12.873,-0.85674 2.758,0.23246 4.3527,0.398 4.6471,1.2631 0.36668,1.2735 -3.0748,6.4079 -4.0802,7.824 -2.4325,3.4279 -5.3543,5.908 -9.12125,6.78772 C 88.6372,92.6692 84.6529,96.1518 79.8414,96.1518 z"
           id="path48" />
      </g>
      <path
         d="m 103.15,75.653 c 1.8326,-3.6992 -1.603,-4.0754 -6.1542,-4.3982 -4.7442,-0.33612 -10.171289,-0.577212 -14.871,0.97084 -2.05252,0.676086 -2.806697,1.189936 -3.83147,1.919809 -1.822298,1.297894 -3.8023,3.1883 -5.7496,2.735 0.05879,0.59817 1.8295,1.8167 3.3896,1.2849 1.3688,-0.48174 3.5376,-2.2745 4.9464,-2.9701 3.496,-1.7148 12.917,-2.0382 15.884,-1.7986 2.6166,0.19958 4.129,0.34153 4.408,1.0844 0.34811,1.0942 -2.9164,5.5034 -3.8702,6.7193 -2.882,3.6756 -6.4853,6.0867 -11.474,6.13 -3.2086,0.02804 -4.9635,-1.0389 -7.0775,-3.2848 0.15742,1.0838 0.25663,1.9088 0.38776,2.0436 2.2629,2.0707 4.4573,2.7768 6.6771,3.1281 8.7756,1.3897 14.057,-6.9485 17.335,-13.564 z m -8.414,1.4901 c 0,0 -5.7546,0.80201 -9.1709,1.5388 -1.523,0.34482 -7.2627,1.7071 -4.047,4.4958 0,0 -1.5541,-0.33728 -2.4159,-1.1169 -1.2039,-1.0913 -0.50708,-3.0864 0.86994,-3.71385 C 84.5665,76.2626 89.8769,76.6848 94.736,77.1431 z"
         id="ram-ear"
         style="fill:#d40000" />
      <path
         d="m 54.5,70.0625 c -2.4616,0.2166 -4.90902,1.88395 -5.5625,4.34375 l -4,2.59375 0.25,0.75 5,-1.625 c 0.65176,1.719478 2.884915,2.551553 5.0625,1.84375 2.179306,-0.70813 3.487833,-2.693167 3,-4.46875 l 2.21875,-0.71875 C 59.69365,71.20025 56.9696,69.84532 54.5,70.0625 z M 52.09375,72 c 0.693104,-0.07794 1.370013,0.34266 1.59375,1.03125 0.25604,0.7876 -0.18052,1.6189 -0.96875,1.875 -0.78696,0.25562 -1.65085,-0.18115 -1.90625,-0.96875 -0.25625,-0.78696 0.18158,-1.619 0.96875,-1.875 0.09842,-0.03195 0.213485,-0.05137 0.3125,-0.0625 z"
         id="ram-eye"
         style="fill:#d40000" />
    </g>
  </g>
  <path
     d="m 249.55062,1.4395041 -248.101051,0 0,173.4965959 c -0.76723996,93.72088 80.28944,127.81975 124.050531,127.81975 42.99385,0 124.81775,-34.09887 124.05052,-127.81975 l 0,-173.4965959 z"
     id="Frame"
     style="fill:none;stroke:#000000;stroke-width:1.88832211;stroke-linejoin:bevel" />
</svg>
