<?xml version="1.0" encoding="UTF-8" standalone="no"?>
<!-- Created with Inkscape (http://www.inkscape.org/) -->
<svg
   xmlns:dc="http://purl.org/dc/elements/1.1/"
   xmlns:cc="http://web.resource.org/cc/"
   xmlns:rdf="http://www.w3.org/1999/02/22-rdf-syntax-ns#"
   xmlns:svg="http://www.w3.org/2000/svg"
   xmlns="http://www.w3.org/2000/svg"
   xmlns:xlink="http://www.w3.org/1999/xlink"
   version="1.0"
   width="251"
   height="304.20001"
   id="svg4166">
  <defs
     id="defs4168" />
  <metadata
     id="metadata1880"><rdf:RDF><cc:Work
         rdf:about=""><dc:title>Tierp kommunvapen</dc:title><dc:date>08-11-2007</dc:date><dc:creator><cc:Agent><dc:title>Lokal_Profil</dc:title></cc:Agent></dc:creator><cc:license
         rdf:resource="http://creativecommons.org/licenses/by-sa/2.5/" /><dc:rights><cc:Agent><dc:title>cc-by-sa-2.5</dc:title></cc:Agent></dc:rights><dc:format>image/svg+xml</dc:format><dc:type
         rdf:resource="http://purl.org/dc/dcmitype/StillImage" /></cc:Work><cc:License
         rdf:about="http://creativecommons.org/licenses/by-sa/2.5/"><cc:permits
         rdf:resource="http://web.resource.org/cc/Reproduction" /><cc:permits
         rdf:resource="http://web.resource.org/cc/Distribution" /><cc:requires
         rdf:resource="http://web.resource.org/cc/Notice" /><cc:requires
         rdf:resource="http://web.resource.org/cc/Attribution" /><cc:permits
         rdf:resource="http://web.resource.org/cc/DerivativeWorks" /><cc:requires
         rdf:resource="http://web.resource.org/cc/ShareAlike" /></cc:License></rdf:RDF>
  </metadata>
  <path
     d="M 249.55058,1.4395041 L 125.50008,1.4395041 L 1.4495291,1.4395041 L 1.4495291,174.9361 C 0.68228908,268.65698 81.738969,302.75585 125.50006,302.75585 C 168.49391,302.75585 250.31781,268.65698 249.55058,174.9361 L 249.55058,1.4395041 z "
     style="fill:#d40000"
     id="Shield" />
  <path
     d="M 130.19328,179.87409 C 133.71344,189.48007 138.27853,245.25551 138.09747,257.2054 L 132.42159,255.96772 C 132.42159,255.96772 128.46082,190.54025 125.21223,181.66868 C 112.2664,146.31501 118.64607,123.48033 108.40398,119.82643 L 113.85545,113.4056 L 120.4779,118.1792 C 117.75707,119.14068 117.23616,144.51607 130.19328,179.87409 z "
     style="fill:#ffcd50"
     id="Kvist" />
  <g
     transform="matrix(-0.322505,5.686645e-2,-5.686645e-2,-0.322505,579.7856,361.668)"
     id="Humleax">
    <g
       style="fill:#ffcd50;stroke:#d40000;stroke-width:5px"
       id="g2884">
      <path
         d="M 1225.2089,1281.2943 C 1204.5303,1278.4223 1199.935,1229.0233 1199.935,1229.0233 C 1199.935,1229.0233 1234.3994,1205.4726 1237.2714,1230.7465 C 1237.2714,1230.7465 1230.3786,1281.2943 1225.2089,1281.2943 z "
         id="path1882" />
      <path
         d="M 1280.3519,1316.3331 C 1291.2656,1297.9521 1253.9292,1265.7853 1253.9292,1265.7853 C 1248.1851,1267.5085 1232.1018,1312.8867 1280.3519,1316.3331 z "
         id="path1872" />
      <path
         d="M 1333.1973,1303.6962 C 1340.6295,1302.4875 1347.5574,1261.7645 1347.5574,1261.7645 L 1290.6912,1272.6782 C 1290.1168,1288.7616 1317.1139,1301.973 1333.1973,1303.6962 z "
         id="path1878" />
      <path
         d="M 1355.5991,1293.9312 C 1366.5128,1286.4639 1367.6616,1250.8508 1363.6408,1238.2138 C 1319.0447,1163.8386 1328.0276,1270.955 1328.0276,1270.955 C 1342.9622,1283.5919 1348.7062,1285.8895 1355.5991,1293.9312 z "
         id="path1886" />
      <path
         d="M 1297.0097,1308.2914 C 1310.8848,1298.5265 1316.5395,1257.7436 1310.2211,1240.5114 L 1247.6107,1259.4669 C 1231.5273,1280.1455 1269.4382,1300.8241 1297.0097,1308.2914 z "
         id="path1876" />
      <path
         d="M 1251.6315,1315.1843 C 1245.8874,1293.3568 1272.8845,1272.6782 1267.1405,1234.193 L 1222.9112,1221.5561 C 1214.8695,1227.5874 1214.1515,1258.3181 1232.3171,1277.2017 C 1232.0123,1296.4494 1243.877,1308.2914 1251.6315,1315.1843 z "
         id="path1880" />
      <path
         d="M 1325.73,1285.3151 C 1338.9413,1269.8062 1331.2744,1203.1751 1326.3044,1197.431 C 1287.2448,1182.4964 1270.587,1252.574 1270.587,1252.574 C 1284.9472,1266.9341 1297.0097,1276.699 1325.73,1285.3151 z "
         id="path1884" />
      <path
         d="M 1276.9054,1260.6157 C 1284.9471,1238.2139 1291.8401,1226.7257 1295.2865,1207.7703 L 1245.8875,1146.8832 L 1221.7624,1218.1096 C 1221.7624,1218.1096 1245.4405,1259.2001 1276.9054,1260.6157 z "
         id="path1888" />
      <path
         d="M 1195.0751,1263.5974 C 1201.8322,1257.4147 1199.899,1244.1166 1213.1463,1233.0442 C 1248.3645,1209.6623 1248.1851,1159.5202 1248.1851,1154.3505 L 1215.444,1106.1003 L 1178.682,1171.5827 C 1178.3269,1178.3207 1179.9021,1225.4028 1189.5957,1235.9162 C 1190.6644,1239.8347 1190.7341,1262.2022 1195.0751,1263.5974 z "
         id="path1890" />
      <path
         d="M 1379.7095,1243.545 C 1414.1079,1224.2484 1397.7477,1133.6381 1397.7477,1133.6381 C 1389.3579,1122.3118 1362.0908,1173.9093 1362.0908,1173.9093 C 1362.0908,1173.9093 1370.9002,1241.867 1379.7095,1243.545 z "
         id="path1896" />
      <path
         d="M 1372.9976,1246.4814 C 1394.8112,1211.2441 1363.3493,1180.6211 1363.3493,1180.6211 L 1351.184,1222.9899 C 1351.184,1222.9899 1365.0273,1245.6424 1372.9976,1246.4814 z "
         id="path1892" />
      <path
         d="M 1347.4086,1238.0916 C 1355.2457,1224.2646 1367.9638,1210.4051 1369.2222,1163.422 C 1369.2222,1163.422 1362.0908,1142.0279 1353.2815,1141.1889 L 1328.112,1225.5068 C 1328.112,1225.5068 1340.6967,1242.2865 1347.4086,1238.0916 z "
         id="path1894" />
      <path
         d="M 1338.5993,1231.3797 C 1341.1162,1209.9856 1362.0909,1189.8499 1357.4764,1144.1253 C 1357.4764,1144.1253 1304.2455,1069.3161 1258.0568,1160.0661 C 1253.0229,1179.7822 1296.2306,1224.6679 1338.5993,1231.3797 z "
         id="path2785" />
      <path
         d="M 1310.9128,1203.6932 C 1331.404,1190.8759 1335.2433,1137.833 1335.2433,1137.833 C 1311.3323,1087.4939 1282.8488,1139.6117 1263.5102,1170.5534 C 1262.6712,1176.0068 1289.5187,1201.1762 1310.9128,1203.6932 z "
         id="path2787" />
      <path
         d="M 1280.2899,1188.5915 C 1293.1722,1177.2049 1312.1713,1147.4813 1306.7179,1118.5363 L 1265.6077,1076.5871 C 1242.1161,1067.7778 1216.1076,1116.4389 1216.1076,1116.4389 C 1216.1076,1116.4389 1233.3067,1156.2906 1251.3449,1157.1296 C 1259.1614,1161.8384 1270.2221,1186.9135 1280.2899,1188.5915 z "
         id="path2789" />
      <path
         d="M 1371.3197,1178.1042 C 1368.3833,1176.4262 1374.6756,1157.9686 1348.6671,1137.833 L 1351.6035,1052.2566 C 1351.6035,1052.2566 1396.0697,1082.0406 1387.6799,1144.5449 C 1387.6799,1144.5449 1377.3281,1172.0497 1371.3197,1178.1042 z "
         id="path2791" />
      <path
         d="M 1394.3917,1155.4516 C 1411.04,1085.3004 1371.7391,1064.0023 1368.8027,1044.2862 C 1368.8027,1044.2862 1351.143,1039.4071 1366.2858,1072.8117 C 1393.6569,1133.1915 1378.0315,1157.5491 1394.3917,1155.4516 z "
         id="path2793" />
      <path
         d="M 1348.053,1159.2677 C 1356.1613,1143.6215 1349.8694,1128.735 1351.88,1122.9114 C 1363.8393,1107.1251 1355.7069,1061.6798 1352.8367,1056.4177 L 1289.2132,995.18602 L 1271.5135,1089.9037 C 1286.8214,1114.7791 1295.9104,1116.2142 1318.8723,1124.8249 C 1331.9752,1137.9114 1330.8317,1152.0921 1348.053,1159.2677 z "
         id="path2795" />
      <path
         d="M 1172.4904,1187.4917 C 1180.1444,1181.7512 1181.5795,1087.5119 1181.5795,1087.5119 C 1181.5795,1087.5119 1163.8797,1061.2014 1150.9636,1104.7333 C 1148.9487,1109.4639 1142.0828,1163.2152 1172.4904,1187.4917 z "
         id="path2801" />
      <path
         d="M 1181.5795,1178.881 C 1192.6161,1173.1405 1192.3342,1159.2025 1197.3658,1143.9598 C 1205.4981,1129.6086 1236.5923,1120.5196 1239.9409,1087.5119 L 1222.2411,1018.6263 L 1170.577,1093.2524 C 1166.75,1120.5196 1172.0121,1172.1838 1181.5795,1178.881 z "
         id="path2797" />
      <path
         d="M 1253.8137,1109.0386 C 1319.3507,1076.0309 1302.1293,991.83741 1263.8595,988.96718 L 1217.9358,1028.1937 C 1217.9358,1028.1937 1216.5007,1071.7256 1253.8137,1109.0386 z "
         id="path2799" />
      <path
         d="M 1158.1392,1107.6035 C 1163.8797,1108.5602 1172.6186,1090.0948 1178.2309,1087.9902 C 1228.9384,1053.5474 1217.9358,1029.6288 1217.9358,1029.6288 C 1209.8035,1021.9748 1161.9662,1050.1988 1161.9662,1050.1988 C 1160.5311,1064.0716 1146.485,1102.1531 1158.1392,1107.6035 z "
         id="path2803" />
      <path
         d="M 1376.7554,1087.9902 C 1371.9717,1086.5551 1373.3804,1073.0145 1362.8826,1062.6365 C 1340.3991,1050.6772 1310.2435,1028.2073 1269.5818,989.4591 C 1252.2014,968.0081 1348.5314,994.70761 1357.6205,1019.1046 C 1357.6205,1019.1046 1393.5249,1082.5669 1376.7554,1087.9902 z "
         id="path2805" />
      <path
         d="M 1373.4067,1054.9826 C 1378.6763,1029.6289 1368.0703,1009.9041 1349.9665,994.70765 C 1337.5288,984.66183 1338.9406,955.21349 1312.1751,952.13251 C 1294.4753,952.61089 1278.2107,973.65927 1271.5135,978.92136 C 1270.1698,982.50467 1285.3863,1001.8832 1329.8749,1001.8832 C 1368.5303,1018.1479 1370.0581,1054.9826 1373.4067,1054.9826 z "
         id="path2807" />
      <path
         d="M 1156.235,1054.5332 C 1166.9359,1053.0845 1186.1157,1039.6203 1196.03,1035.9986 C 1234.4499,1035.7572 1273.0511,1004.4139 1272.8943,980.39463 C 1266.8978,979.30436 1253.2336,969.83809 1247.1559,967.97344 C 1236.089,964.57813 1214.5042,964.64601 1206.5045,968.88452 C 1196.1148,974.38932 1187.793,992.57287 1187.853,992.93278 C 1189.5431,1008.3852 1164.9962,1037.51 1161.1413,1043.0854 C 1165.0044,1037.7736 1189.5431,1008.8681 1187.853,992.93278 C 1187.853,992.93278 1179.6754,990.41554 1168.345,999.95731 C 1159.2878,1014.503 1147.3359,1038.1791 1156.235,1054.5332 z "
         id="path2811" />
    </g>
    <path
       d="M 1294.2188,973.4375 C 1287.1201,973.38229 1280.6139,973.82683 1276.5938,974.1875 C 1274.6085,976.15671 1272.812,977.87539 1271.5,978.90625 C 1289.041,978.52863 1311.8501,974.02909 1327,986.09375 C 1326.2349,975.91047 1309.086,973.55312 1294.2188,973.4375 z "
       style="fill:#d40000;stroke:#d40000;stroke-width:1px"
       id="path2809" />
    <path
       d="M 1259.3438,977.5625 C 1246.3062,977.43362 1222.1199,979.47489 1209.4063,1002.8125 C 1232.9806,972.87317 1261.8296,983.664 1272.8438,981.71875 C 1272.8551,981.49719 1272.87,981.28293 1272.875,981.0625 L 1271.0938,979.90625 C 1269.6861,979.42851 1268.0219,978.66657 1266.25,977.78125 C 1264.7083,977.75403 1262.3456,977.59217 1259.3438,977.5625 z "
       style="fill:#d40000;stroke:#d40000;stroke-width:1px"
       id="path2813" />
  </g>
  <path
     d="M 6.7309744,200.26963 C 19.356946,190.79912 19.902371,197.22628 18.071032,192.37158 C 24.107019,187.94729 25.23729,192.5514 23.576223,188.24114 C 28.965731,185.09361 29.030526,187.87282 27.629944,184.13971 C 35.636601,182.53004 34.989145,183.85289 35.888746,181.38608 C 43.305142,179.50057 42.174083,182.97745 42.638048,179.19644 C 47.514811,179.70902 46.494497,180.70486 47.247474,178.41474 C 53.924408,180.07701 53.513811,180.46084 54.612595,179.00775 C 59.756396,181.85361 57.725895,181.17012 59.58904,179.89315 C 64.122676,184.21171 67.455262,183.65443 67.10347,182.49333 C 66.343348,179.98444 61.737283,175.24749 57.756049,169.56702 C 60.35874,167.6522 57.661293,168.78154 56.354353,164.15721 C 58.857509,162.8835 56.049231,161.48072 55.589235,158.54627 C 59.095839,158.08238 54.935569,156.94252 51.284606,150.85973 C 58.45511,151.75518 60.100991,156.17361 60.376977,151.72024 C 67.454908,151.37246 64.899837,154.79309 66.962465,150.39942 C 71.343793,152.19417 69.97328,153.64008 72.086124,150.5964 C 76.053957,151.88095 74.579526,153.0141 76.34928,151.40714 C 79.804163,152.79482 77.70604,154.9457 81.655399,150.8784 C 86.8957,151.6853 85.061191,155.35417 87.314029,152.19717 C 90.80289,154.36761 90.733239,157.05689 91.962841,154.49669 C 95.117726,156.59582 94.743997,158.02682 98.1751,155.69311 C 99.47524,156.72625 103.15247,163.85378 105.03843,159.31347 C 108.13506,164.23749 106.18948,166.99512 108.30215,162.73478 C 113.45597,169.6962 107.51841,170.05881 114.62845,170.03772 C 115.18366,176.71931 112.6017,177.5051 116.5817,177.41115 C 113.83978,183.47652 115.27429,181.72649 116.73097,181.87958 C 115.71821,187.85993 110.69134,187.05324 115.65484,187.95914 C 112.11209,191.81305 112.7733,190.92516 113.5668,191.90504 C 110.01751,193.9935 109.52376,193.85525 111.09724,194.72504 C 108.94426,196.93204 107.59355,195.20362 108.29385,197.07019 C 104.52627,197.94232 97.2503,196.98659 97.2503,200.26963 C 97.2503,203.55266 104.52627,202.59484 108.29385,203.46699 C 107.59355,205.33355 108.94426,203.60721 111.09724,205.81422 C 109.52376,206.684 110.01751,206.54574 113.5668,208.63421 C 112.7733,209.61408 112.11209,208.7262 115.65484,212.58011 C 110.69134,213.48601 115.71821,212.67723 116.73097,218.65759 C 115.27429,218.81067 113.83978,217.06066 116.5817,223.12602 C 112.6017,223.03207 115.18366,223.81993 114.62845,230.50154 C 107.51841,230.48042 113.45597,230.84305 108.30215,237.80447 C 106.18948,233.54413 108.13506,236.30177 105.03843,241.22577 C 103.15247,236.68547 99.47524,243.81093 98.1751,244.84407 C 94.743997,242.51035 95.117726,243.94134 91.962841,246.04048 C 90.733239,243.48028 90.80289,246.17163 87.314029,248.34209 C 85.061191,245.18507 86.8957,248.85394 81.655399,249.66085 C 77.70604,245.59354 79.804163,247.74443 76.34928,249.1321 C 74.579526,247.52515 76.053957,248.65622 72.086124,249.94077 C 69.97328,246.8971 71.343793,248.34507 66.962465,250.13982 C 64.899837,245.74614 67.454908,249.16469 60.376977,248.81693 C 60.100991,244.36355 58.45511,248.78198 51.284606,249.67743 C 54.935569,243.59465 59.095839,242.45687 55.589235,241.99298 C 56.049231,239.05852 58.857509,237.65575 56.354353,236.38203 C 57.661293,231.75771 60.35874,232.88497 57.756049,230.97015 C 61.737283,225.28967 66.343348,220.55481 67.10347,218.04591 C 67.455262,216.88482 64.122676,216.32753 59.58904,220.64609 C 57.725895,219.36913 59.756396,218.68562 54.612595,221.53149 C 53.513811,220.07842 53.924408,220.46223 47.247474,222.12452 C 46.494497,219.8344 47.514796,220.82815 42.638048,221.34073 C 42.174078,217.55972 43.305142,221.03867 35.888746,219.15316 C 34.989155,216.68636 35.636612,218.0092 27.629944,216.39953 C 29.030536,212.66641 28.965731,215.44355 23.576223,212.29604 C 25.23728,207.98576 24.107019,212.58988 18.071032,208.16559 C 19.902371,203.3109 19.356946,209.74012 6.7309744,200.26963 z "
     style="fill:#ffcd50;stroke:none"
     id="leaf" />
  <use
     transform="matrix(-1,0,0,1,253.1414,-34.89987)"
     id="leaf-2"
     x="0"
     y="0"
     width="251"
     height="304.20001"
     xlink:href="#leaf" />
  <path
     d="M 157.22524,164.29212 C 154.78094,164.29212 125.18072,162.22754 123.18907,163.94759 C 123.18907,163.94759 124.43761,168.94175 124.43761,168.94175 C 126.51979,166.58799 154.96072,165.28538 157.22395,166.64332 L 157.22524,164.29212 z "
     style="fill:#ffcd50;stroke:none"
     id="path2115" />
  <use
     transform="matrix(-1,0,0,1,253.6177,35.03489)"
     id="use2124"
     x="0"
     y="0"
     width="251"
     height="304.20001"
     xlink:href="#path2115" />
  <path
     d="M 249.55062,1.4395041 L 125.50012,1.4395041 L 1.449569,1.4395041 L 1.449569,174.9361 C 0.68232904,268.65698 81.739009,302.75585 125.5001,302.75585 C 168.49395,302.75585 250.31785,268.65698 249.55062,174.9361 L 249.55062,1.4395041 z "
     style="fill:none;fill-opacity:0;stroke:#000000;stroke-width:1.88832211;stroke-linecap:round"
     id="Frame" />
</svg>
