<?xml version="1.0" encoding="UTF-8" standalone="no"?>
<!-- Created with Inkscape (http://www.inkscape.org/) -->
<svg
   xmlns:svg="http://www.w3.org/2000/svg"
   xmlns="http://www.w3.org/2000/svg"
   version="1.0"
   width="251"
   height="304.20001"
   id="svg4166">
  <defs
     id="defs4168" />
  <path
     d="M 249.55058,1.4395041 L 1.4495291,1.4395041 L 1.4495291,174.9361 C 0.68228908,268.65698 81.738969,302.75585 125.50006,302.75585 C 168.49391,302.75585 250.31781,268.65698 249.55058,174.9361 L 249.55058,1.4395041 z"
     id="Shield"
     style="fill:#003d8f" />
  <g
     id="Lion"
     style="fill:#ffcd50;stroke:none">
    <path
       d="M 55.963443,80.510007 C 53.735091,80.092226 53.271948,79.422433 51.350492,78.16629 C 49.733691,76.994152 49.887699,72.307837 50.351402,70.548229 C 51.118641,68.95551 50.735021,61.419773 50.351402,59.076616 C 50.50429,58.572031 51.118641,58.240494 51.888679,58.321698 C 55.039957,63.093697 57.657527,62.089007 59.731311,63.932059 C 59.731311,63.932059 90.183393,64.769301 90.183393,64.769301 C 93.182343,62.593032 96.643316,61.586662 100.02645,60.079626 C 100.71808,60.079626 100.87153,60.500767 101.40915,60.917988 C 100.41062,63.178261 100.71808,66.278016 100.71808,68.790302 C 100.87153,71.716448 101.48756,74.650994 101.10282,76.744939 C 100.79536,78.16629 99.71731,79.674446 98.565332,79.841334 C 101.48756,82.017043 99.795713,89.889916 103.02483,93.323448 C 106.71598,95.16426 105.64073,91.982741 107.71619,92.484526 C 108.02532,97.843434 104.87181,100.69118 102.87083,100.01914 C 108.79256,104.96027 114.09939,95.330028 113.09918,90.390021 C 116.18269,93.56146 115.81083,98.270735 114.63702,100.94095 C 115.75315,99.928978 116.88889,98.333458 116.99081,97.385331 C 118.58745,101.96188 118.0235,106.67059 116.28126,109.2036 C 114.62357,111.62572 107.28889,117.06415 103.17716,112.07767 C 102.46649,112.8029 102.12767,114.01312 101.92046,115.29503 C 108.93033,115.43727 115.8926,115.5504 122.73894,115.60808 C 130.57149,115.8909 137.27727,116.17651 143.54398,116.461 C 158.86523,117.50154 173.14146,119.87213 189.76533,119.49244 C 202.64877,119.68173 205.08602,112.76258 198.12151,110.67928 C 183.93432,107.6456 162.69134,108.21515 149.02945,105.65582 C 116.82056,102.71624 127.52494,76.746059 150.07279,75.040774 C 159.03771,75.134299 167.74279,76.650854 176.70828,76.937029 C 188.0242,77.314488 189.85213,64.330239 179.23344,67.172381 C 185.15406,60.917988 201.34223,66.793242 193.24926,76.937029 C 209.95994,79.780291 237.20586,82.907487 246.95651,63.475636 C 247.82735,71.247144 237.46907,79.023693 232.8522,83.189741 C 222.92963,89.922958 214.39984,96.274795 202.38668,96.17511 C 200.64611,96.460164 198.55609,97.691106 196.73096,98.451624 C 191.157,99.115817 182.36736,98.070805 179.84387,90.394501 C 177.05661,93.428733 173.92214,96.274795 167.56806,93.902517 C 163.99844,94.944169 157.64492,94.470385 156.86257,89.733668 C 157.03561,86.793521 158.08063,85.278086 160.60411,84.045464 L 162.17107,84.803182 C 160.2569,86.130448 159.12508,87.266185 161.04093,88.309517 C 173.83589,90.491386 162.95567,76.841824 147.46082,82.342419 C 141.8891,84.142349 134.66418,90.394501 144.58619,95.797651 C 152.85725,97.314207 161.21454,99.115817 169.65641,98.547389 C 181.32179,98.925408 192.89757,100.34844 204.47727,101.76811 C 207.87048,103.1917 214.57625,105.36909 215.0982,110.0162 C 222.23519,113.90112 218.40516,123.38183 213.96414,126.12821 C 210.83022,128.49601 207.26228,128.68754 207.43589,130.48803 C 201.34223,133.80619 195.5101,133.70875 190.0263,132.00346 C 192.02784,135.32275 198.29456,151.15082 208.91605,139.30231 C 211.70219,140.62845 213.6158,142.52695 215.6207,145.08403 C 214.39984,147.16902 213.44331,148.59093 213.529,151.05561 C 215.6207,154.75236 229.1969,163.75593 223.36701,178.92037 L 223.27853,180.72198 L 222.23519,181.38673 C 221.88686,179.87073 221.88686,178.63755 221.71381,177.121 C 220.23253,175.31995 220.05836,174.74984 218.40516,172.4778 C 222.41104,179.11078 221.36435,189.15768 217.36015,195.41431 L 216.14209,194.75012 C 216.92221,190.58071 217.5332,189.25288 215.44373,185.65078 C 216.66291,193.99016 215.35749,197.59226 212.13845,204.79758 C 211.09176,207.82901 210.30884,205.07983 209.78745,203.85057 C 210.30884,197.68914 210.22259,196.07906 208.3073,190.67423 C 208.65507,194.93829 209.69841,198.06772 207.61062,202.23825 C 207.00131,204.13227 204.47727,206.50342 201.25598,205.55698 C 197.68861,207.16482 196.38038,208.1135 192.89757,206.60031 L 191.07188,213.70538 C 187.9374,213.42257 185.41391,205.64994 185.15406,202.71315 L 183.67111,202.3329 L 183.06124,208.01998 L 182.19207,208.87346 C 179.66859,207.6414 177.31815,200.24959 176.88301,197.49705 C 174.96659,194.75012 178.4494,188.3994 179.66859,186.02992 L 182.80194,187.5448 C 183.76071,186.02992 184.37058,184.51337 185.2375,182.99625 C 188.3731,186.12457 190.11255,183.18778 192.46523,180.3434 C 193.85577,176.26807 193.33439,172.28683 194.46509,168.49488 C 191.157,170.48578 188.19893,171.90546 184.89141,173.04511 C 180.97289,173.80283 176.0116,170.96125 172.18213,165.74627 C 170.52837,163.66184 170.78822,162.99765 168.43946,163.2799 C 159.38661,166.97721 161.04093,180.72198 170.35644,175.98358 C 170.7003,178.06744 171.2256,180.24819 171.48434,182.3343 L 168.00376,185.17756 C 167.21972,189.82131 167.21972,192.85442 163.04191,195.60304 C 161.82385,196.55229 159.64814,197.49705 154.77254,197.21312 C 151.90072,199.9651 145.72025,201.29012 143.71815,200.15215 C 140.67104,200.34144 138.32228,200.8169 135.0982,200.62705 C 131.70499,198.3511 131.35777,200.43832 127.87608,201.57462 C 126.04815,204.70293 124.13173,205.27248 121.52032,207.54676 L 120.38738,207.26338 L 120.56323,201.29012 C 120.47363,200.72114 118.64794,199.20458 118.20999,198.63671 L 117.51444,198.91841 L 115.42665,205.46177 L 114.72998,205.55698 C 112.12025,202.23825 110.55161,200.43832 111.59774,196.17203 C 110.46481,194.08704 113.42511,190.48438 114.20747,187.45351 C 114.55637,185.93584 115.16568,182.42558 116.73208,181.86219 C 117.68973,182.42558 118.56001,182.90328 119.51878,182.99625 L 119.86544,181.67066 L 124.48063,177.21676 L 125.8723,177.78463 L 127.26453,182.90328 C 130.74622,183.84973 138.40796,182.42558 141.80285,180.72198 C 136.23001,177.21676 129.61552,173.70931 127.52494,166.50511 C 127.17772,158.06996 131.27041,154.18393 138.66838,148.49573 C 133.8807,146.69636 124.91521,154.84588 121.34783,158.06996 C 117.60292,160.34648 113.42511,163.84945 109.50828,165.27304 C 106.54629,171.33927 101.585,177.121 96.624275,183.47339 C 95.493578,185.46037 94.973312,188.11491 94.796904,190.3903 L 92.446466,190.3903 L 93.839816,181.38673 C 91.577303,187.07269 88.877408,191.2449 85.134741,195.98442 L 84.438626,195.6988 C 86.091269,191.43139 86.179753,188.3994 85.91878,184.13423 C 84.263897,188.02026 80.433306,197.87731 75.558822,197.31 C 77.384513,193.42285 77.12522,188.21179 76.168693,183.94718 C 73.905059,188.96783 72.076008,199.86821 65.11318,199.20458 C 67.290569,195.41431 66.418045,193.99016 66.158192,190.20101 C 64.328021,192.56993 58.322841,203.65792 53.884059,201.76391 L 51.70835,199.67724 C 50.315,203.47031 49.533201,204.79758 44.570793,204.22971 C 38.824346,208.1135 34.733902,206.31469 32.29666,203.37679 C 34.472369,202.71315 36.90961,203.28102 38.824346,198.91841 C 36.387664,198.25533 35.605305,198.25533 35.952523,196.07906 C 32.557073,197.02495 31.077479,197.49705 28.90065,195.41431 L 25.420076,199.67724 C 21.850458,198.16069 23.070759,194.37154 22.981714,190.86352 L 21.850458,192.28655 L 20.808246,192.00094 C 20.195575,190.01228 19.936842,186.8834 20.89281,183.84973 C 22.89547,179.87073 26.986475,176.36216 30.816506,174.94137 C 32.643877,173.89691 36.475589,180.62733 37.605725,182.90328 C 40.219936,183.84973 47.09484,181.86219 49.793614,179.87073 C 54.059908,177.50293 57.627286,173.80283 59.891479,170.20129 C 59.71675,168.11743 58.844787,167.35971 58.844787,165.27304 C 58.480769,164.72534 58.162113,164.19163 57.882099,163.67136 L 57.808175,163.99282 C 57.194384,165.33017 54.656897,172.61389 52.196694,170.68963 C 52.196694,169.93696 53.810695,167.42467 54.119271,165.74851 C 54.119271,162.23937 53.366593,158.98281 52.281259,155.83097 C 51.30737,158.19877 50.859908,161.73199 50.750142,166.22173 L 49.356793,166.22173 C 44.135652,163.18694 46.397605,148.30756 44.397185,144.51561 L 41.000055,157.78547 L 42.218676,161.00787 L 40.738522,161.38589 C 37.867818,157.12184 35.428896,154.18393 35.082239,148.59093 C 34.90751,142.81032 37.432117,138.73556 36.038207,134.66023 C 35.166803,139.20878 31.686229,141.95684 31.948322,146.69636 L 32.035687,148.87654 C 29.771494,147.45407 27.509541,140.53549 27.509541,137.02747 C 27.423296,133.142 28.117731,130.10777 28.639677,126.22117 C 26.377724,130.67787 25.332712,133.52114 24.89869,138.54459 L 24.114091,138.4505 L 23.939362,136.45792 C 18.195715,128.40248 20.457668,120.62761 22.199915,108.87711 L 19.760993,104.61305 C 10.621337,103.66492 12.624557,98.451624 15.49582,92.197231 C 12.275659,93.428733 10.273559,93.428733 9.229667,89.733668 C 7.4011756,91.438954 4.9656139,94.56559 4.0914102,93.145359 C 3.3969755,89.257084 6.5297721,82.999892 7.48854,78.831603 L 4.5287921,78.3539 L 10.707581,69.257365 C 15.146363,69.826353 19.240167,70.301817 23.677829,70.207172 L 25.332712,71.247144 C 25.245908,72.384561 25.332712,74.090406 25.768414,75.134299 C 27.248008,75.134299 28.727602,75.325268 30.209436,75.609762 C 30.990115,75.325268 31.252208,76.463805 31.773034,76.841824 C 31.339572,78.831603 29.162183,85.37273 30.031907,87.078016 C 34.996555,92.005702 39.782554,96.650014 43.787314,102.52751 C 44.007405,102.77896 44.229176,103.04777 44.450947,103.33003 C 44.934812,101.6449 45.491479,100.05498 46.122631,98.680115 C 48.274258,93.992681 52.272298,86.538709 55.963443,80.510007 z"
       id="Contours"
       style="fill:#003d8f" />
    <path
       d="M 9.9375,72.375 L 6.71875,76.9375 L 8.53125,77.125 C 9.6630665,76.082228 9.1338729,75.430113 10.875,76.09375 L 9.9375,72.375 z M 7.84375,83.09375 L 6.625,86.875 L 9.21875,83.75 L 7.84375,83.09375 z M 8.78125,86.03125 C 7.5626291,87.357957 6.8795874,88.672396 6.53125,90.09375 L 8.1875,88.40625 L 8.78125,86.03125 z M 74.8125,99.78125 C 74.120306,100.53505 74.406248,101.93281 74.40625,102.9375 C 75.021721,102.18426 75.331768,101.69219 75.5625,100.6875 L 74.8125,99.78125 z M 76.34375,101.4375 C 75.113369,104.20068 75.033141,106.79932 74.1875,109.5625 C 73.033842,109.06015 73.201723,103.52854 73.125,101.9375 L 72.03125,102.625 C 71.800519,105.72308 71.584713,110.66639 73.96875,115.1875 C 75.045124,110.08004 78.031251,108.62985 78.03125,103.1875 L 76.34375,101.4375 z M 22.71875,183.09375 C 21.239156,185.36859 21.576392,188.7647 21.75,190.28125 L 24.1875,187.34375 C 23.57819,187.43839 22.636532,188.00415 22.375,187.625 C 22.636533,184.49725 24.981824,185.74773 22.71875,183.09375 z M 27.15625,185.25 C 26.916838,185.22634 26.679655,185.41639 26.375,185.9375 C 24.460264,189.06525 23.943885,191.41736 24.03125,193.3125 C 25.510844,191.22751 26.544711,188.02394 27.9375,185.84375 C 27.632845,185.51193 27.395662,185.27366 27.15625,185.25 z M 27.9375,187.9375 C 25.9354,192.77166 23.067346,195.88141 25.15625,198.15625 C 26.897377,196.16591 27.843749,194.93254 27.84375,192.5625 C 27.930554,190.85665 27.676527,189.3594 27.9375,187.9375 z M 180.4375,195.6875 L 177.9375,195.96875 C 177.85069,198.14894 179.84858,206.11817 181.9375,206.78125 C 181.9375,203.74814 182.20555,202.43612 183.25,199.6875 L 181.0625,196.5625 C 180.19221,198.64748 179.75707,200.63231 181.0625,202.8125 L 180.53125,203 C 178.70332,201.29415 179.56721,197.67784 180.4375,195.6875 z M 112.28125,196.84375 C 112.45542,199.68757 113.35262,203.46786 115.09375,203.5625 L 116.375,198.4375 L 112.28125,196.84375 z M 41.1875,198.65625 C 41.099556,198.6619 41.004185,198.67731 40.90625,198.71875 C 40.035966,200.99358 37.348078,203.74586 34.5625,204.125 L 35.78125,204.59375 C 37.348208,205.44667 39.951089,205.46233 42.5625,203.1875 C 42.725783,202.29863 42.506667,198.57149 41.1875,198.65625 z M 188.53125,198.90625 C 183.65677,200.99123 187.77276,208.49636 189.6875,211.71875 L 190.375,212.09375 C 191.76779,206.88045 193.3278,205.0827 190.28125,200.34375 L 189.15625,205.65625 L 188.46875,205.375 C 188.64292,203.76324 188.72985,201.20081 189.6875,199.96875 L 188.53125,198.90625 z M 121.59375,201.375 L 121.4375,205.75 C 123.87475,204.51737 124.40817,203.36388 126.0625,201.46875 L 121.59375,201.375 z"
       id="Bevaring"
       style="fill:#d40000" />
    <path
       d="M 51.65625,60.40625 L 51.34375,61 C 52.034825,65.100525 51.895038,69.469815 51.125,73.40625 C 51.048836,77.174118 52.963214,79.261098 57.5,79.59375 L 57.5,79.84375 L 57.96875,79.5 C 57.96875,78.159853 58.728842,77.504126 59.5,76.5 C 60.268358,72.477319 61.437501,71.378795 61.4375,70.625 L 62.5,70.375 L 62.875,70.8125 C 62.337933,72.737316 60.96875,73.235142 60.96875,76 C 63.58408,76.753237 71.949059,82.845031 73.71875,78.40625 C 73.871077,78.073593 74.255605,77.586019 74.71875,77.25 L 75.25,77.75 C 74.557806,79.173591 74.407791,80.327964 72.71875,81 C 71.410524,84.60266 72.648824,85.709173 70.34375,89.8125 C 72.110078,88.80725 77.112036,90.156252 79.1875,90.15625 C 79.57224,87.059295 78.877804,84.202128 79.1875,81.1875 C 77.649664,81.103496 77.118834,81.003431 76.8125,78.15625 L 77.875,78.40625 C 78.028448,79.4115 78.343537,80.082322 79.1875,80 C 83.1861,79.749108 86.265622,79.765783 90.1875,79.09375 C 92.109516,77.08381 92.416762,75.39647 91.03125,72.96875 L 91.25,72.90625 C 92.634949,74.079509 93.555214,75.500922 92.9375,77.59375 L 93.1875,79.34375 C 95.032232,76.912668 97.324621,79.161269 99.25,77.90625 C 99.633619,77.654237 99.877796,77.169229 100.03125,76.5 C 100.49271,71.390304 98.723019,66.535435 100.03125,61.59375 C 96.569152,62.936697 93.168305,63.779373 90.09375,65.875 L 88.875,67.625 L 88.25,67.53125 L 89.03125,65.9375 L 88.8125,65.28125 C 88.8125,65.28125 61.656249,65.437498 61.65625,65.4375 C 61.273751,66.359306 61.562708,66.957887 60.5625,66.875 L 59.875,65.09375 C 56.030408,64.0913 52.963916,61.329176 51.65625,60.40625 z M 185.0625,66.40625 C 192.28742,73.4206 182.10226,78.916878 174.53125,77.96875 C 160.77472,77.77946 139.62521,71.257175 131.09375,87.75 C 123.08367,107.18185 171.6653,105.66647 185.59375,107.65625 C 190.90282,108.03539 195.42078,107.56064 201.6875,110.59375 C 208.73881,119.31339 195.0853,120.61906 191.34375,120.71875 C 175.76153,121.56999 160.0886,119.20014 144.59375,118.15625 C 135.1948,117.207 126.05744,117.31776 116.65625,116.9375 C 113.08551,117.22199 108.11947,116.45308 104.8125,117.875 C 103.84142,123.16054 100.42243,127.8009 96.34375,131.21875 C 96.122539,132.08736 95.432904,133.43694 95,133.59375 C 95,134.16106 94.665988,135.01623 94.28125,135.15625 C 94.142923,135.75828 93.559691,137.05018 93.09375,137.21875 L 93.09375,137.71875 C 92.70229,137.85931 92.918228,138.10328 92.375,138.25 L 92.375,138.75 C 92.087706,138.85528 91.1875,140.27824 91.1875,140.8125 C 90.817322,140.94803 90.500002,141.52195 90.5,142.09375 C 89.905811,142.31104 89.798935,143.75751 89.0625,144.15625 C 88.962255,144.58747 88.908486,144.82437 88.59375,144.9375 C 88.495745,145.35752 87.921141,146.37411 87.65625,146.46875 C 87.558805,146.90054 87.223678,147.39582 86.9375,147.5 C 86.835575,147.94018 86.71875,148.0233 86.71875,148.53125 C 86.430335,148.63429 86.099681,149.13464 86,149.5625 C 85.230521,149.77419 85.802077,150.15558 85.28125,150.34375 C 85.28125,151.0393 84.951945,151.03529 84.8125,151.625 C 84.249112,151.77733 84.093747,152.02285 84.09375,152.65625 C 83.631727,152.82426 84.087025,152.74049 83.625,152.90625 L 83.625,153.6875 C 82.83424,153.97592 82.790537,156.3246 82.21875,156.53125 C 82.21875,156.95357 81.704601,159.8459 81.125,162.875 C 80.953099,163.59189 80.790128,164.33637 80.65625,165.09375 C 80.010797,166.81533 79.692913,168.48335 79.59375,170.0625 C 79.497362,170.41191 79.417808,170.67242 79.375,170.6875 C 79.375,171.53259 78.709916,174.48152 79.625,174.8125 C 79.625,175.18716 79.978727,175.94838 80.3125,176.5 C 80.31529,176.51016 80.309702,176.52111 80.3125,176.53125 C 80.320972,176.54511 80.335305,176.54897 80.34375,176.5625 C 80.643426,177.64093 80.973154,178.60476 81.28125,179.375 L 81.28125,179.6875 C 80.948033,179.80511 80.424508,180.35641 80.3125,180.71875 C 79.857198,180.71875 79.752128,180.55264 79.625,180.96875 C 79.143376,180.96875 79.276098,180.85461 79.15625,181.25 C 78.982289,181.25 78.691823,181.26868 78.4375,181.28125 C 73.275162,177.61531 72.310703,168.13515 72.1875,164.65625 C 72.264224,161.22496 72.021439,148.92093 75.40625,148.25 C 75.40625,149.75872 74.718749,150.4439 74.71875,151.78125 C 71.949411,166.60239 75.178598,176.98481 79.5625,180 C 78.486686,175.39321 77.018502,172.28521 78.25,167.09375 C 75.787557,163.74479 75.201234,149.09038 79.96875,148 C 77.97001,154.78138 76.876257,157.29309 78.875,164.15625 C 80.415637,155.78663 88.184203,143.82472 92.875,136.625 C 94.412836,131.34842 101.32974,122.04151 100.5625,111.15625 L 101.875,111.3125 C 101.91364,111.89493 101.93806,112.4812 101.9375,113.0625 C 102.21639,112.02589 101.7256,109.65625 103.25,109.65625 C 107.10467,115.50463 117.11133,110.19622 116.71875,100.84375 C 114.566,102.85257 113.85363,104.54896 107.625,105.21875 L 107.40625,104.21875 C 108.48767,103.71417 110.55031,104.13171 111.78125,102.875 C 113.24013,101.1182 116.10952,95.66395 114.1875,93.65625 C 114.80465,96.837209 107.25953,108.82064 100.03125,98.6875 C 99.493058,105.2191 99.192967,112.56974 97.5,117.59375 C 96.654918,119.7689 97.404988,119.79054 95.40625,119.375 L 94.25,116.59375 C 94.25,124.88273 93.246497,130.59451 91.09375,137.125 L 90.1875,137.03125 C 88.881515,135.02243 87.869398,132.27203 87.5625,129.84375 C 86.871426,132.18803 84.878782,137.36328 83.03125,139.875 L 82.1875,139.375 C 82.419352,139.79334 86.643146,129.49584 86.875,128.15625 L 86.875,126.3125 L 87.8125,126.3125 C 88.348447,128.57613 89.257635,133.34813 90.71875,134.9375 C 93.178393,126.90166 93.255255,119.28022 92.71875,110.15625 C 91.71798,108.64865 91.940863,105.56124 92.09375,103.71875 L 93.1875,103.71875 C 92.18785,107.48605 96.031249,113.25017 96.03125,117.4375 C 96.879132,116.51458 97.718749,111.73632 97.71875,110.5625 C 98.257497,106.20772 98.702847,102.19797 98.78125,97.84375 L 98.09375,92.75 C 97.399875,91.995643 97.343748,90.910939 97.34375,89.90625 C 98.035945,89.90625 98.115823,89.547834 98.5,90.21875 C 99.037627,92.062922 100.55255,98.510306 101.78125,98.59375 C 104.62732,99.094415 105.46854,97.438364 106.46875,94.84375 C 103.54708,95.764996 101.26276,94.740974 100.1875,90.21875 C 99.495868,87.455012 99.882915,82.939253 97.34375,80.09375 C 96.653236,79.507961 95.342487,79.263905 93.34375,80.6875 C 93.496077,88.390685 94.038117,92.387686 88.65625,94.3125 C 89.884392,98.91705 88.881658,105.62972 84.34375,106.96875 C 84.113018,110.31884 85.429086,113.75863 84.65625,113.84375 C 81.427129,114.68099 79.181968,114.25 75.875,114.25 C 75.260089,115.17237 74.94724,116.01368 74.71875,117.1875 C 72.950741,116.35026 72.974002,115.42728 72.125,113.75 C 70.665007,113.83512 63.962584,113.42987 63.65625,112.59375 C 63.270391,110.3318 64.645383,107.80529 64.71875,105.125 C 60.645106,102.86416 60.268496,95.745697 61.34375,92.5625 C 60.115048,90.973701 57.95754,89.549253 57.34375,87.625 C 53.497478,92.733575 51.718749,102.51891 51.71875,108.96875 C 53.10314,108.21383 55.343749,104.79892 55.34375,103.125 L 56.4375,103.125 L 54.96875,114.34375 C 54.96875,118.61396 56.344099,123.31323 57.34375,127.5 C 57.727929,128.50581 58.728842,131.25707 59.5,132.09375 C 59.959783,130.0838 60.668022,127.24804 61.4375,123.5625 L 62.125,123.8125 L 62.125,129.15625 C 64.12486,137.44746 65.255463,140.80061 71.5625,147.75 C 72.791762,146.82987 73.812497,139.71727 73.8125,137.625 L 74.875,137.625 C 75.027888,141.89577 74.261632,145.0546 73.03125,149.15625 C 72.801639,150.32727 72.193318,150.27697 71.5,149.4375 L 70.40625,148.5 C 68.329107,155.53283 67.745096,159.63061 69.4375,169.34375 C 70.688603,172.54207 70.991384,174.75597 71.375,177.15625 L 71.34375,177.15625 L 71.34375,177.125 C 70.921489,177.00963 70.034265,176.4254 69.1875,175.75 L 68.9375,175.53125 L 69.15625,175.6875 C 69.061776,175.46886 68.971935,175.24296 68.875,175.03125 C 68.85708,175.14158 68.85271,175.30353 68.84375,175.46875 C 68.410848,175.10418 68.005594,174.7183 67.6875,174.375 C 67.407486,171.53062 65.378106,168.77786 63.25,165.96875 C 62.668691,167.23777 62.097999,168.45846 61.53125,169.625 C 55.960651,180.71468 39.082852,189.81105 28.8125,181.28125 L 25.84375,184.90625 C 27.584317,184.43471 28.999451,184.59994 29.78125,186.78125 C 28.38734,192.46665 28.205633,197.40498 35.34375,194.9375 C 36.561251,194.18146 36.473037,193.71695 38.5625,193.90625 C 37.517488,194.85494 37.008064,195.89303 37.09375,196.9375 C 37.356963,198.07379 44.135972,194.76645 43.875,202.0625 C 49.011576,204.05508 50.320123,200.99601 50.84375,195.6875 C 54.065031,202.4168 56.85622,200.44371 59.46875,197.125 L 64.40625,190.1875 C 65.972649,187.72282 66.244979,185.73341 67.8125,184.59375 L 68.59375,185.46875 L 67.03125,187.84375 C 67.64,191.15912 68.507377,194.94078 67.375,197.3125 C 71.800901,196.76928 73.40808,184.88344 76.34375,180.625 L 76.34375,180.5625 C 76.459116,180.91643 76.385641,180.49944 76.53125,180.96875 L 77.25,180.96875 C 77.321265,181.19895 77.695461,181.27577 78.09375,181.28125 C 77.514682,185.92501 78.98341,189.43063 78,193.71875 C 85.310045,188.03111 85.208468,181.65881 86.6875,172.9375 L 89.0625,169.53125 L 89.5,170.875 C 85.408436,176.27927 88.517226,183.85985 87.125,190.78125 C 93.477957,181.87232 93.232768,178.08374 94.625,167.5625 C 94.711804,165.76257 96.87625,163.45708 98.09375,161.5625 L 98.8125,162.25 C 94.109945,168.69648 95.567088,169.91764 95.21875,183.1875 C 100.17891,176.7399 104.62304,171.23255 108.625,164.21875 C 108.27722,161.18396 107.15912,157.31667 112.46875,159.59375 C 114.64558,159.87712 117.34195,158.15711 116.90625,155.40625 C 115.164,151.32981 113.32608,147.17142 115.15625,142.90625 L 115.34375,147.46875 C 116.47613,151.25902 119.59082,153.70717 118.375,157.59375 C 125.51312,153.99333 128.40646,147.92314 135.71875,146.3125 C 139.5499,144.98411 142.83862,144.69463 143.1875,149.90625 C 146.23237,146.68497 148.17258,145.28785 154.875,144.53125 C 151.74164,141.02379 143.97804,140.15635 143.71875,139.96875 L 143.8125,139.40625 C 146.5992,137.98322 150.40718,140.33546 153.28125,141.09375 C 157.63322,144.41135 160.86777,147.07376 164,151.90625 C 166.69934,156.74265 171.14207,161.57041 174.1875,166.40625 C 176.27585,168.77349 181.49816,173.14101 185.15625,171.625 C 189.42142,170.29885 195.52511,168.31114 197.09375,159.59375 L 197.59375,159.96875 C 197.24373,163.4762 197.33073,163.9361 195.5,166.6875 L 193.78125,181.1875 C 193.34667,186.68417 186.98903,187.92095 187.25,189.4375 L 185.59375,199.875 L 188.03125,197.875 C 190.20696,196.83391 193.17194,203.28653 193.78125,205.5625 C 196.47891,206.22501 196.29943,206.22825 198.5625,205.28125 C 199.696,204.90043 200.40112,202.91017 201.53125,202.4375 L 202.8125,204.53125 C 206.90295,204.05466 207.2668,200.44708 207.875,196.65625 C 207.78819,192.57869 205.62191,185.28053 208.84375,182.34375 L 209.53125,182.4375 C 209.18403,184.05206 207.8786,187.07955 208.75,188.40625 C 211.18612,194.66232 211.88989,196.92315 210.84375,203.9375 C 215.89353,192.84614 214.49406,189.9281 213.1875,182.0625 C 212.40402,178.83954 213.00068,176.35031 213.4375,172.9375 L 214.125,173.03125 L 214.5625,174.9375 L 213.78125,174.84375 C 214.30432,183.47266 218.74875,186.03849 218.3125,191.0625 C 219.27015,187.46208 220.30901,185.07062 219.875,181.375 C 219.5261,175.12061 215.1025,169.53901 215.625,163.28125 L 216.5625,163.1875 C 216.90972,167.73773 219.54373,172.77278 222.9375,176.5625 C 225.11377,170.40219 221.28049,160.82149 214.75,154.375 C 213.0968,152.3841 211.96528,153.32744 212.3125,148.96875 C 213.09654,147.73557 213.87457,146.60964 214.3125,145.28125 L 209.875,141.28125 C 192.55445,153.69763 194.01595,132.28005 181.21875,126.5 L 180.96875,125.65625 C 183.14782,126.1306 185.58,127.73636 187.40625,129.0625 C 192.3709,132.19082 200.56661,132.56358 205.53125,129.4375 L 203.34375,128.3125 L 203.875,127.375 C 210.92463,127.375 217.3657,124.72053 217.625,115.90625 C 217.71237,113.82182 216.6682,113.23262 215.1875,112 C 214.75292,114.65733 214.57044,115.69492 213.4375,117.6875 C 210.91234,121.09975 207.53086,122.25715 203.875,121.5 L 203.96875,120.90625 C 209.19101,120.90625 213.96235,118.44301 213.875,112.1875 C 214.74584,102.23692 194.10339,101.47065 187.3125,101.09375 L 171.21875,99.78125 C 161.12089,98.833683 149.27743,100.34535 140.3125,94.5625 C 128.73616,82.621583 159.80756,74.379746 167.46875,85.28125 C 168.5972,89.166164 166.5949,89.725022 160.9375,89.53125 C 159.98041,89.53125 158.59735,88.109745 159.46875,86.59375 C 154.33161,90.576109 163.03858,94.673702 166.78125,93.0625 L 166.53125,90.21875 L 167.03125,89.9375 L 168,92.375 C 171.04711,91.429113 172.01737,89.253429 171.84375,85.9375 L 173.0625,87.1875 C 172.80153,90.029642 171.92335,91.259326 170.09375,93.34375 C 178.97355,94.103148 183.41135,84.140104 172.09375,83.1875 C 177.31713,81.009551 180.70307,85.855985 180.875,87.75 C 180.0932,94.9542 194.03858,99.789933 197.78125,96.09375 C 193.08094,96.569773 181.31901,92.388006 182.625,85.28125 L 183.5,85.65625 C 183.58624,94.6615 199.25175,96.73751 204.5625,92.5625 C 204.99708,93.136529 204.48375,93.611793 203.875,94.65625 C 209.18406,94.088381 214.04051,93.161356 218.65625,89.84375 C 212.99661,91.738325 199.41641,90.393264 197.5,82.90625 C 205.59744,90.963373 218.83605,90.572713 228.0625,83.9375 L 228.6875,84.625 C 232.25712,82.352967 243.12916,74.078342 244,69.625 C 232.77088,81.852091 214.40272,80.824809 203,79.875 C 197.6915,78.355644 190.55895,78.25593 184.8125,77.6875 L 184.8125,76.46875 C 186.99045,77.034378 188.55805,76.842296 190.90625,76.9375 C 197.26032,70.681987 192.63743,66.406246 185.0625,66.40625 z M 69.15625,175.6875 C 69.165483,175.70887 69.178326,175.72861 69.1875,175.75 L 70.5,176.59375 L 69.15625,175.6875 z M 11.40625,70.6875 C 11.581538,72.48743 10.892488,73.420947 11.9375,74.9375 L 11.84375,76.28125 L 18.96875,78.46875 C 16.96385,79.321672 12.350438,77.790645 10,77.03125 L 7.90625,81.78125 L 11.40625,82.625 L 10.1875,86.125 L 11.21875,87 C 10.784168,88.515436 9.8514926,88.601286 10.8125,90.875 C 12.466823,92.105942 13.917363,91.808886 15.65625,89.53125 L 17.0625,89.9375 C 16.367506,96.380062 9.9339453,101.85933 20.03125,103.28125 L 23.40625,108.96875 C 22.622771,115.1285 19.149939,128.79083 24.375,133.625 C 24.98431,130.7795 26.019965,128.02987 27.9375,125.28125 C 29.242926,121.77324 29.593178,120.25879 28.8125,116.375 L 29.9375,117.03125 C 30.635855,123.19324 29.060702,129.15018 28.625,135.40625 C 28.625,139.48606 29.337053,141.68864 30.90625,144.34375 L 31.875,140.8125 C 33.093621,139.2041 34.457347,136.55481 35.9375,131.34375 L 37.59375,135.59375 C 37.767919,142.41993 33.783575,150.29893 39.875,157.40625 C 41.26947,150.58343 44.038616,145.54595 42.125,138.4375 L 43.34375,139.03125 L 45.1875,143.28125 C 47.79667,150.10352 46.238734,161.94101 49.71875,164.40625 C 49.71875,162.33751 49.600163,157.06872 51.5625,153.90625 C 50.084027,150.07901 48.248413,146.35871 46.8125,142.46875 C 45.352507,138.53344 46.12262,132.01173 43.96875,129.5 C 42.582681,127.24252 41.973793,118.09629 42.28125,115.5 C 42.522622,112.39912 43.112691,108.42109 44.0625,104.71875 C 41.67958,101.92701 39.59598,99.213699 38.8125,98.4375 C 35.681384,94.267532 31.349759,91.330021 28.5625,86.875 C 25.516508,83.747804 24.123761,80.243954 23.6875,72.375 C 24.470419,71.049414 16.545066,71.726916 11.40625,70.6875 z M 25.59375,76.75 C 26.292665,80.162811 26.537884,81.469235 28.28125,84.3125 C 29.239458,80.051807 30.292106,77.123426 29.59375,76.9375 L 25.59375,76.75 z M 60.46875,77.25 C 60.278162,77.273321 60.118405,77.40474 60.03125,77.59375 C 58.493414,80.440932 57.880606,83.268531 58.1875,86.53125 C 58.650643,88.626874 61.426987,91.130945 62.65625,91.96875 C 63.579176,91.465285 63.745306,90.816524 64.4375,90.3125 C 65.05297,90.480508 65.124999,90.308143 65.125,91.0625 C 64.279358,91.732293 63.721761,92.747884 62.875,93.5 C 61.723022,95.175044 62.193663,96.678787 62.5,98.1875 C 63.49909,101.20045 63.80606,103.79681 67.5,102.875 C 69.574904,102.12513 72.735005,101.78108 73.65625,97.59375 C 74.117713,96.003831 73.263311,94.399746 72.1875,93.5625 C 71.341857,93.479056 70.737669,94.248657 69.96875,94 C 68.96966,93.749108 69.255047,91.971852 69.5625,89.375 C 69.5625,87.78508 70.872755,86.2176 70.71875,83.875 C 69.72022,84.793446 68.88663,85.187502 67.65625,85.1875 C 68.732064,85.438952 69.119184,85.791558 69.8125,85.875 L 69.5,86.96875 C 68.042807,86.466404 66.960556,86.211908 65.5,85.625 C 62.731782,84.787758 60.428673,80.605807 61.8125,77.84375 C 61.237071,77.424779 60.786396,77.211132 60.46875,77.25 z M 63.4375,78.59375 C 62.43785,82.110726 65.418929,83.623545 67.1875,83.875 C 68.417881,84.042448 69.867714,83.030322 69.40625,80.9375 C 68.560608,80.686048 67.12745,80.0224 66.28125,79.6875 C 65.358884,80.943643 66.582115,81.948695 67.8125,81.78125 C 68.043231,82.451044 67.790989,82.509743 67.40625,82.59375 C 65.022211,82.761198 63.822027,81.33308 64.4375,79.15625 L 63.4375,78.59375 z M 92.09375,79.09375 C 90.632638,79.093749 90.805423,80.249108 89.34375,80.5 C 89.419912,81.505814 89.402328,82.526 89.25,83.53125 C 88.48052,87.464325 84.017659,86.87969 81.25,85.875 L 81.09375,84.6875 C 81.863787,85.105841 81.790779,85.019491 82.40625,85.1875 C 82.790986,85.269826 84.556684,85.533262 85.09375,85.28125 C 82.942125,85.11492 81.720992,83.930626 81.875,81 L 80.5625,81 C 80.484657,82.171576 80.329526,83.346688 80.40625,85.1875 C 80.40625,87.863876 81.568735,95.250893 78.875,95 C 76.185743,93.492968 75.34375,93.652712 75.34375,97 C 75.576722,99.092821 80.568245,103.53888 82.875,104.375 C 87.489072,105.1288 88.263876,99.271001 87.34375,95.25 C 86.804445,94.078985 85.938063,92.890329 86.09375,91.71875 L 87.09375,91.71875 L 87.40625,92.90625 C 89.865332,91.818118 90.967418,91.657215 91.8125,88.5625 C 91.812499,85.464421 91.940862,82.191825 92.09375,79.09375 z M 57.5,80.09375 C 49.040218,94.747443 45.879344,99.587051 44.1875,109.46875 C 43.41914,115.24599 42.650013,123.7167 45.1875,129.15625 C 45.1875,127.06286 46.5,125.55295 46.5,123.375 C 48.117362,120.02491 50.118836,115.16269 49.8125,111.3125 L 50.65625,110.90625 C 49.426428,102.28126 52.495796,93.082681 56.1875,86.46875 C 56.494957,84.711944 57.035736,82.523152 57.5,80.09375 z M 88.40625,80.6875 C 87.329876,80.771504 86.263874,80.853493 85.1875,80.9375 C 84.649313,82.277087 86.805566,83.184788 87.34375,81.59375 L 87.8125,82.09375 C 87.120305,83.349893 86.348094,83.772394 84.65625,83.4375 C 83.887332,83.102603 83.327285,82.256141 83.25,81 L 82.8125,81 C 82.8125,83.093385 83.735917,84.281247 85.8125,84.28125 C 88.119255,84.28125 89.02172,83.367236 88.40625,80.6875 z M 70.5625,90.96875 L 70.40625,92.75 C 71.865683,92.414544 73.734442,91.906385 74.65625,93.75 C 76.040079,92.996762 76.035316,92.496762 78.34375,93.25 C 79.187712,93.670021 79.187499,92.39112 79.1875,91.46875 C 76.110707,91.134413 73.637056,90.884183 70.5625,90.96875 z M 66.65625,104.96875 L 66.1875,105.0625 C 65.956208,107.65655 65.413184,108.98883 64.875,111.5 C 64.719872,112.25211 69.737033,112.40536 71.8125,112.65625 L 71.40625,111.5 C 71.251683,111.08109 69.182664,111.14829 68.03125,110.5625 C 67.412419,110.48018 67.273397,107.31303 66.65625,104.96875 z M 82.125,106.21875 L 82.03125,110.75 C 82.183577,111.5878 78.426499,111.39594 76.8125,111.3125 C 75.965178,111.81484 75.729049,111.6613 75.5,112.75 C 78.191495,112.49743 81.26941,113.34038 83.5,112.25 C 83.192544,110.91154 83.342631,108.90286 83.1875,106.5625 L 82.125,106.21875 z M 54.34375,108.8125 C 53.34466,109.9824 52.570207,111.5 51.03125,111.5 C 50.723794,115.51876 50.575465,117.62057 48.5,121.21875 C 47.807805,123.56527 47.285946,126.07115 46.59375,128.5 C 46.440862,132.60164 46.825952,136.45055 47.59375,140.46875 C 50.364768,147.25293 55.492718,156.553 55.1875,165.34375 C 56.955509,163.00059 57.66767,155.87018 57.28125,155.03125 C 53.512822,142.97553 50.362457,137.04333 50.4375,128 C 50.515344,125.15114 50.569789,122.22106 51.1875,119.375 L 51.65625,119.28125 C 51.425518,124.22238 51.878711,134.35859 53.03125,137.875 C 54.03146,143.73906 58.130394,150.18681 59.4375,156.96875 C 59.897843,158.13865 62.10272,162.65468 62.71875,163.40625 C 60.334151,154.53261 58.491523,147.66609 61.03125,138.625 L 62.03125,138.875 L 62.125,139.125 C 58.741311,147.07739 62.355308,157.21952 63.96875,163.75 C 64.585341,164.92046 66.794145,168.94424 67.71875,170.03125 L 68.5,169.4375 C 66.117641,162.23722 67.284193,154.36516 69.4375,147.25 C 64.053391,142.56089 60.95509,131.09375 61.1875,131.09375 L 59.71875,134.4375 L 58.8125,134.1875 C 54.429721,124.30693 53.191773,115.84365 54.34375,108.8125 z M 101.78125,116.4375 C 101.55388,118.37352 101.44197,120.1837 100.65625,120.46875 C 100.65625,121.10999 100.16453,122.12221 99.71875,122.28125 C 99.71875,123.05241 99.249999,123.04414 99.25,123.8125 C 98.85462,123.95643 98.281253,125.2769 98.28125,125.875 C 97.607536,126.11918 98.097772,127.25773 97.59375,127.4375 C 97.59375,127.94489 97.739692,128.32483 97.34375,128.46875 C 97.34375,128.55612 97.339271,128.60137 97.34375,128.65625 C 100.89489,125.29609 103.56889,121.31591 104.28125,116.4375 L 101.78125,116.4375 z M 101.40625,118.53125 C 101.35361,118.92383 101.30332,119.29358 101.21875,119.59375 C 101.29212,119.24485 101.34297,118.88407 101.40625,118.53125 z M 156.59375,145.65625 C 151.28525,146.70015 145.37933,147.74605 142.59375,153.71875 L 141.96875,153.625 L 141.46875,148.875 C 116.66119,166.7875 136.752,175.89319 144.5,179.875 C 140.9287,185.94011 122.48906,184.59912 117.09375,184.03125 C 116.04762,187.34942 115.41752,189.54388 112.71875,194.46875 C 111.32708,196.27204 116.20872,196.45779 120.125,197.5 L 121.96875,188.125 L 122.65625,188.5 C 122.30847,192.28971 121.51321,195.80326 121.25,199.5 L 124.125,199.59375 C 127.51821,202.24996 132.58748,198.16607 133.71875,194.46875 C 134.24013,195.98979 133.8089,197.20454 132.9375,198.53125 L 134.15625,198.71875 L 137,192 L 137.53125,192.1875 L 135.1875,199.125 C 137.62306,199.31485 139.0911,199.28818 141.875,198.90625 C 146.05393,198.33894 150.59027,193.23829 150.9375,188.6875 L 151.625,188.96875 C 150.49095,193.51898 149.37126,194.73841 146.5,198.625 C 153.11561,199.28863 156.689,193.42981 159.5625,188.21875 L 160.15625,188.59375 C 159.98264,190.68041 157.03402,194.45141 155.46875,195.875 C 159.99377,196.2547 162.52166,194.54937 164.4375,192.75 C 166.26824,189.33607 166.27196,188.00688 166.53125,184.5 L 170.34375,181.78125 C 170.07942,180.26413 170.26791,178.63675 169.3125,177.6875 C 166.52636,178.8266 164.43446,177.5971 163.5625,177.125 C 157.81941,171.34327 162.6802,163.77249 169.125,161.6875 C 164.42356,156.66461 161.98906,150.48929 156.59375,145.65625 z M 58.5,158.3125 C 58.456317,159.66384 58.403337,160.56812 58.28125,161.5 C 58.48342,162.14908 58.71237,162.79728 58.9375,163.46875 L 59.03125,161.6875 C 59.023969,161.08995 59.061604,160.48487 59.15625,159.875 C 58.902558,159.35866 58.679208,158.83724 58.5,158.3125 z M 110.65625,160.25 L 109.59375,160.625 L 109.78125,162.71875 L 109.6875,163.75 L 111.0625,163.375 L 112.71875,162.4375 L 113.875,161.78125 L 113,161 L 110.65625,160.25 z M 60.09375,161.53125 C 59.949823,164.1057 59.70577,166.76975 60.6875,169.0625 C 61.127122,167.56611 61.843538,166.30655 62.53125,165 C 61.672728,163.86258 60.816185,162.69555 60.09375,161.53125 z M 30.78125,176.59375 C 28.412831,176.66036 25.390249,179.52677 23.59375,181.875 C 24.2025,182.63048 24.278462,183.46864 25.0625,183.65625 L 28.46875,179.875 C 28.380266,178.92464 34.134994,183.85347 35.875,183 C 35.177205,181.4868 34.395707,180.0478 33.4375,178.53125 C 32.811669,177.1093 31.857804,176.56347 30.78125,176.59375 z M 124.75,179.03125 C 123.1836,179.78617 121.77597,181.29594 120.90625,182.8125 C 122.03695,183.1922 125.10317,183.65983 126.0625,183.28125 L 124.75,179.03125 z M 185.59375,184.78125 L 184.1875,187.53125 C 187.8421,188.44367 188.9725,185.60605 190.1875,184.8125 C 189.01576,185.22898 187.92384,185.82998 186.71875,185.75 L 185.59375,184.78125 z M 180.1875,187.84375 C 178.96608,190.1169 178.19723,192.28442 177.5,194.84375 C 179.06864,194.27364 179.94043,194.17888 181.15625,195.03125 C 182.20182,195.69544 183.07429,197.96753 184.46875,198.15625 C 184.72861,195.21946 185.50583,192.28512 185.59375,189.15625 L 183.59375,189.25 L 180.1875,187.84375 z"
       id="Main-lion" />
  </g>
  <path
     d="M 52.126427,43.654469 C 55.419794,48.316506 57.404797,53.775294 57.875277,59.463823 L 57.875277,68.087112 C 69.293157,66.170831 80.950537,66.170831 92.368427,68.087112 L 92.368427,59.463823 C 92.838887,53.775294 94.823907,48.316506 98.117287,43.654469 C 96.710847,42.37565 94.547877,42.426999 93.203707,43.771173 C 91.859547,45.115324 91.808187,47.278264 93.087047,48.684718 L 92.050807,50.964295 C 91.444347,49.783706 90.108387,49.171853 88.818337,49.483845 C 87.528277,49.795808 86.619547,50.950502 86.619577,52.277751 C 86.619577,53.161879 87.026457,53.996819 87.722807,54.541625 C 88.419147,55.086415 89.327457,55.280442 90.185627,55.067721 L 89.494007,56.589396 C 89.184717,57.517362 88.316327,58.143311 87.338187,58.143311 C 86.360027,58.143311 85.491627,57.517362 85.182337,56.589396 L 85.182337,47.966107 C 85.976107,47.966107 86.619577,47.322641 86.619577,46.528907 C 86.619577,45.735141 85.976107,45.091691 85.182337,45.091691 C 84.388617,45.091691 83.745157,45.735141 83.745157,46.528907 C 83.745127,47.170643 84.170537,47.734592 84.787577,47.910866 L 82.307937,56.589396 C 81.975907,57.636777 80.924247,58.280613 79.840467,58.099993 C 78.756667,57.919356 77.970627,56.96924 77.996297,55.870801 L 77.671627,53.111824 C 78.538557,53.78435 79.712737,53.904689 80.698057,53.421978 C 81.683387,52.939285 82.307967,51.937753 82.307937,50.840552 C 82.307937,49.620895 81.538247,48.534048 80.387817,48.129148 C 79.237357,47.724242 77.956627,48.089425 77.192717,49.040179 L 77.014817,47.528417 C 78.494887,46.805164 79.433507,45.301791 79.433507,43.654469 C 79.433477,41.594361 77.976087,39.822074 75.954797,39.424107 L 75.840477,38.62424 C 75.840477,38.227343 75.518737,37.905612 75.121867,37.905612 C 74.724977,37.905612 74.403247,38.227343 74.403247,38.62424 L 74.288917,39.424107 C 72.267627,39.822074 70.810227,41.594361 70.810207,43.654469 C 70.810207,45.301791 71.748817,46.805164 73.228887,47.528417 L 73.050997,49.040179 C 72.287077,48.089425 71.006357,47.724242 69.855907,48.129148 C 68.705457,48.534048 67.935777,49.620895 67.935777,50.840552 C 67.935747,51.937753 68.560327,52.939285 69.545647,53.421978 C 70.530967,53.904689 71.705157,53.78435 72.572077,53.111824 L 72.247427,55.870801 C 72.273077,56.96924 71.487037,57.919356 70.403257,58.099993 C 69.319457,58.280613 68.267797,57.636777 67.935777,56.589396 L 65.456117,47.910866 C 66.073167,47.734592 66.498577,47.170643 66.498567,46.528907 C 66.498567,45.735141 65.855097,45.091691 65.061367,45.091691 C 64.267607,45.091691 63.624137,45.735141 63.624137,46.528907 C 63.624137,47.322641 64.267607,47.966107 65.061367,47.966107 L 65.061367,56.589396 C 64.752077,57.517362 63.883687,58.143311 62.905517,58.143311 C 61.927387,58.143311 61.058977,57.517362 60.749717,56.589396 L 60.058077,55.067721 C 60.916257,55.280442 61.824567,55.086415 62.520897,54.541625 C 63.217247,53.996819 63.624137,53.161879 63.624137,52.277751 C 63.624157,50.950502 62.715427,49.795808 61.425367,49.483845 C 60.135307,49.171853 58.799377,49.783706 58.192897,50.964295 L 57.156687,48.684718 C 58.435527,47.278264 58.384147,45.115324 57.039997,43.771173 C 55.695838,42.426999 53.532887,42.37565 52.126427,43.654469 z"
     id="Crown"
     style="fill:#ffcd50;stroke:#003d8f" />
  <path
     d="M 60.96028,75.995839 C 60.96028,73.230981 62.34578,72.728076 62.88285,70.803259 L 62.49811,70.382118 L 61.42342,70.634691 C 61.42342,71.388489 60.26976,72.475503 59.5014,76.498184 C 58.73024,77.502314 57.96133,78.170428 57.96133,79.510574 L 57.50042,79.845471 L 57.50042,79.592339 C 52.96364,79.259682 51.04106,77.167417 51.11722,73.399549 C 51.88726,69.463112 52.04015,65.107775 51.34908,61.00725 L 51.65597,60.41978 C 52.96364,61.342706 56.03875,64.105325 59.88334,65.107775 L 60.5761,66.867943 C 61.57631,66.950827 61.17566,68.240037 61.55816,67.318231 M 88.258272,67.535496 L 88.875982,67.62062 L 90.106362,65.863252 C 93.180922,63.767628 96.562922,62.933746 100.02503,61.590799 C 98.716792,66.532486 100.48649,71.388489 100.02503,76.498184 C 99.871572,77.167417 99.641402,77.668642 99.257782,77.920655 C 97.332402,79.175678 95.025652,76.913165 93.180922,79.344246 L 92.948502,77.585198 C 93.566222,75.492374 92.643852,74.067102 91.258902,72.893844 L 91.027052,72.978968 C 92.412562,75.406689 92.103982,77.081173 90.181972,79.091114"
     id="False ears"
     style="fill:#ffcd50;stroke:#003d8f" />
  <path
     d="M 249.55062,1.4395041 L 1.449569,1.4395041 L 1.449569,174.9361 C 0.68232904,268.65698 81.739009,302.75585 125.5001,302.75585 C 168.49395,302.75585 250.31785,268.65698 249.55062,174.9361 L 249.55062,1.4395041 z"
     id="Frame"
     style="fill:none;fill-opacity:0;stroke:#000000;stroke-width:1.88832211;stroke-linejoin:bevel" />
</svg>
