<?xml version="1.0" encoding="UTF-8" standalone="no"?>
<!DOCTYPE svg PUBLIC "-//W3C//DTD SVG 1.1//EN" "http://www.w3.org/Graphics/SVG/1.1/DTD/svg11.dtd">
<svg xmlns="http://www.w3.org/2000/svg" xmlns:xlink="http://www.w3.org/1999/xlink" version="1.1" width="251" height="304.04999">
  <g>
    <g transform="matrix(2.500438,0,0,2.362345,-223.9197,-8.280689)" >
      <path d="M 90.131913,4.0511306 L 139.74342,4.0511306 L 189.35495,4.0511306 L 189.35495,77.493663 C 189.66179,117.16648 157.2448,131.60081 139.74343,131.60081 C 122.5489,131.60081 89.825075,117.16648 90.131913,77.493663 L 90.131913,4.0511306z" style="fill:#003d8f;stroke:#000000;stroke-width:0.7769559"/>
    </g>
    <g id="Fleur" transform="matrix(0.112153,0,0,0.112153,84.55349,10.60214)" style="fill:#ffcd50;stroke:#003d8f">
      <path d="M 370.56125,101.02204 C 369.87226,100.41496 369.69731,100.45927 368.98386,101.37696 C 339.99728,129.7969 314.25011,156.07552 294.05666,185.49277 C 237.53282,267.74062 218.65091,357.06967 250.28341,429.32214 C 313.07862,582.17879 337.04134,620.99774 337.04119,742.71565 L 322.05577,818.3134 C 319.95113,857.2288 296.00469,888.26688 251.07207,905.62348 C 256.85896,922.01827 283.67525,955.43911 320.87268,953.18263 C 328.22132,988.53949 335.51032,1008.3543 368.98386,1040.4927 C 369.83663,1041.2621 369.80699,1041.2621 370.56125,1040.4927 C 404.03473,1008.3543 411.3238,988.53949 418.67238,953.18263 C 455.86985,955.43911 482.68615,922.01827 488.47297,905.62348 C 443.54065,888.26688 419.59399,857.2288 417.48935,818.3134 L 402.50392,742.71565 C 402.504,620.99774 426.46649,582.17879 489.2617,429.32214 C 520.89405,357.06967 502.01223,267.74062 445.48845,185.49277 C 425.25025,156.0103 399.62873,129.51327 370.56125,101.02204z" style="fill:#ffcd50;stroke:#003d8f;stroke-width:5.5367732"/>
      <path d="M 421.59612,831.52374 C 437.7612,848.06109 514.14641,893.91783 576.81048,893.91783 C 495.12533,825.33139 465.56039,804.69024 455.92682,752.67736 C 446.29324,700.66448 477.39893,643.42012 499.74184,631.55338 C 513.60973,621.62477 543.27705,617.10435 569.54937,628.65323 C 603.91898,646.00239 605.39034,695.16449 588.20945,717.61856 C 750.53778,691.12499 734.41716,553.36748 679.13511,503.36206 C 634.44081,462.95957 585.71862,456.64146 548.1513,469.3814 C 462.78245,496.27443 394.39027,585.91309 391.59526,719.80874 C 391.59526,719.80874 406.3563,815.93292 421.59612,831.52374z" style="fill:#ffcd50;stroke:#003d8f;stroke-width:5.5367732"/>
      <path d="M 317.94892,831.52374 C 301.78383,848.06109 225.39863,893.91783 162.73457,893.91783 C 244.4197,825.33139 273.98465,804.69024 283.61823,752.67736 C 293.2518,700.66448 262.14612,643.42012 239.80321,631.55338 C 225.93531,621.62477 196.26799,617.10435 169.99567,628.65323 C 135.62606,646.00239 134.15469,695.16449 151.33559,717.61856 C -10.992738,691.12499 5.1278894,553.36748 60.40993,503.36206 C 105.10422,462.95957 153.82642,456.64146 191.39374,469.3814 C 276.76259,496.27443 345.15477,585.91309 347.94979,719.80874 C 347.94979,719.80874 333.18874,815.93292 317.94892,831.52374z" style="fill:#ffcd50;stroke:#003d8f;stroke-width:5.5367732"/>
      <rect width="265.00562" height="79.501869" x="237.26971" y="688.77802" style="fill:#ffcd50;stroke:#003d8f;stroke-width:5.5367732"/>
    </g>
    <use transform="matrix(0,1,-1,0,267.7217,10.42244)" x="0" y="0" width="251" height="304.04999" xlink:href="#Fleur"/>
    <use transform="matrix(0,-1,1,0,-16.72125,262.4716)" x="0" y="0" width="251" height="304.04999" xlink:href="#Fleur"/>
    <use transform="matrix(-1,0,0,-1,252.0496,272.8962)" x="0" y="0" width="251" height="304.04999" xlink:href="#Fleur"/>
  </g>
</svg>
