<?xml version="1.0" encoding="UTF-8" standalone="no"?>
<!-- Created with Inkscape (http://www.inkscape.org/) -->
<svg
   xmlns:dc="http://purl.org/dc/elements/1.1/"
   xmlns:cc="http://web.resource.org/cc/"
   xmlns:rdf="http://www.w3.org/1999/02/22-rdf-syntax-ns#"
   xmlns:svg="http://www.w3.org/2000/svg"
   xmlns="http://www.w3.org/2000/svg"
   xmlns:xlink="http://www.w3.org/1999/xlink"
   version="1.0"
   width="251"
   height="304.20001"
   id="svg4166">
  <defs
     id="defs4168" />
  <metadata
     id="metadata1880"><rdf:RDF><cc:Work
         rdf:about=""><dc:title>Gnesta kommunvapen</dc:title><dc:date>31-10-2007</dc:date><dc:creator><cc:Agent><dc:title>Lokal_Profil</dc:title></cc:Agent></dc:creator><cc:license
         rdf:resource="http://creativecommons.org/licenses/by-sa/2.5/" /><dc:rights><cc:Agent><dc:title>cc-by-sa-2.5</dc:title></cc:Agent></dc:rights><dc:format>image/svg+xml</dc:format><dc:type
         rdf:resource="http://purl.org/dc/dcmitype/StillImage" /></cc:Work><cc:License
         rdf:about="http://creativecommons.org/licenses/by-sa/2.5/"><cc:permits
         rdf:resource="http://web.resource.org/cc/Reproduction" /><cc:permits
         rdf:resource="http://web.resource.org/cc/Distribution" /><cc:requires
         rdf:resource="http://web.resource.org/cc/Notice" /><cc:requires
         rdf:resource="http://web.resource.org/cc/Attribution" /><cc:permits
         rdf:resource="http://web.resource.org/cc/DerivativeWorks" /><cc:requires
         rdf:resource="http://web.resource.org/cc/ShareAlike" /></cc:License></rdf:RDF>
  </metadata>
  <path
     d="M 249.55058,1.4395041 L 1.4495291,1.4395041 L 1.4495291,174.9361 C 0.68228908,268.65698 81.738969,302.75585 125.50006,302.75585 C 168.49391,302.75585 250.31781,268.65698 249.55058,174.9361 L 249.55058,1.4395041 z "
     style="fill:#225500;stroke:none"
     id="Shield" />
  <g
     transform="matrix(1.006196,0,0,1.006196,-1.442525,-1.952773)"
     id="Betula-tree">
    <path
       d="M 91.388722,184.15547 C 86.700019,190.40265 87.859712,222.18776 89.967386,222.03355 C 93.46304,222.03355 90.760461,195.11149 93.227982,186.57798 C 96.520147,188.89129 89.470585,212.80559 95.690792,216.19843 C 97.644251,214.24498 96.143073,210.27168 96.122061,207.37532 C 96.059507,198.80447 99.619647,192.79334 95.223686,184.58228 C 94.306205,183.06745 92.459336,183.00802 91.388722,184.15547 z "
       style="fill:#ffcd50;stroke:none"
       id="Fruit" />
    <use
       transform="matrix(-1,0,0,1,251.632,1.8e-5)"
       style="stroke:none"
       id="Fruit-2"
       x="0"
       y="0"
       width="251"
       height="304.20001"
       xlink:href="#Fruit" />
    <use
       transform="matrix(0.951057,-0.309017,-0.309017,-0.951057,75.04439,337.1548)"
       style="stroke:none"
       id="Fruit-3"
       x="0"
       y="0"
       width="251"
       height="304.20001"
       xlink:href="#Fruit" />
    <use
       transform="matrix(-1,0,0,1,251.795,0)"
       style="stroke:none"
       id="Fruit-4"
       x="0"
       y="0"
       width="251"
       height="304.20001"
       xlink:href="#Fruit-3" />
    <path
       d="M 93.325255,184.4863 C 93.325255,183.4762 94.392347,176.37127 94.8974,174.35107 C 95.402448,172.33086 97.21717,169.43466 99.237371,167.41446 C 101.25757,165.39426 104.28788,164.38416 106.30808,164.88921 C 108.32828,165.39426 109.33838,167.41446 110.34848,169.93971 C 111.35858,172.46496 113.50659,175.68492 113.50659,179.22027 C 113.50659,182.75562 112.49649,186.79602 112.49649,190.33138 C 112.49649,193.86673 113.50659,196.89703 114.01165,199.92733 C 114.51669,202.95764 114.51669,205.98794 114.01165,208.5132 C 113.50659,211.03845 112.49649,213.05865 112.49649,215.07885 C 112.49649,217.09905 113.50659,219.11925 113.50659,221.64451 C 113.50659,224.16976 112.49649,227.20006 112.49649,230.23036 C 112.49649,233.26067 113.50659,236.29097 114.01165,240.33137 C 114.51669,244.37178 114.51669,249.42228 114.01165,253.46269 C 113.50659,257.50309 112.49649,260.53339 109.97124,260.02835 C 107.44599,259.52329 103.40558,255.48289 99.365176,255.48289 C 95.324772,255.48289 91.284368,259.52329 86.738916,259.52329 C 82.193459,259.52329 77.142954,255.48289 73.102548,254.47279 C 69.062144,253.46269 66.031841,255.48289 63.001538,255.98794 C 59.971235,256.49299 56.940932,255.48289 55.42578,255.48289 C 53.910629,255.48289 53.910629,256.49299 54.92073,257.50309 C 55.930831,258.51319 57.951033,259.52329 59.971235,260.02835 C 61.991437,260.53339 64.011639,260.53339 65.02174,261.03845 C 66.031841,261.54349 66.031841,262.5536 65.52679,263.5637 C 65.02174,264.5738 64.011639,265.5839 64.011639,266.08895 C 64.011639,266.594 65.02174,266.594 66.536891,265.5839 C 68.052043,264.5738 70.072245,262.5536 71.587396,261.54349 C 73.102548,260.53339 74.112649,260.53339 74.112649,261.03845 C 74.112649,261.54349 73.102548,262.5536 73.607598,263.05865 C 74.112649,263.5637 76.132851,263.5637 77.142954,264.06875 C 78.153055,264.5738 78.153055,265.5839 77.142954,267.09905 C 76.132851,268.6142 74.112649,270.6344 74.112649,271.6445 C 74.112649,272.65461 76.132851,272.65461 78.153055,271.6445 C 80.173257,270.6344 82.193459,268.6142 83.708613,268.10915 C 85.223762,267.6041 86.233863,268.6142 87.243964,268.6142 C 88.254065,268.6142 89.264166,267.6041 89.769219,268.10915 C 90.274267,268.6142 90.274267,270.6344 89.264166,272.65461 C 88.254065,274.67481 86.233863,276.69501 85.223762,278.21016 C 84.213661,279.72531 84.213661,280.73541 85.728815,280.73541 C 87.243964,280.73541 90.274267,279.72531 92.294469,280.23037 C 94.314671,280.73541 95.324772,282.75562 96.334873,283.76572 C 97.344974,284.77582 98.355075,284.77582 98.860128,284.27077 C 99.365176,283.76572 99.365176,282.75562 98.355075,281.24047 C 97.344974,279.72531 95.324772,277.70511 94.819724,275.17986 C 94.314671,272.65461 95.324772,269.6243 96.334873,267.6041 C 97.344974,265.5839 98.355075,264.5738 99.365176,264.5738 C 100.37528,264.5738 101.38538,265.5839 101.89044,267.09905 C 102.39548,268.6142 102.39548,270.6344 102.90054,271.6445 C 103.40558,272.65461 104.41569,272.65461 104.92074,271.6445 C 105.42579,270.6344 105.42579,268.6142 106.43589,268.10915 C 107.44599,267.6041 109.46619,268.6142 110.98134,269.11925 C 112.49649,269.6243 113.50659,269.6243 113.50659,270.6344 C 113.50659,271.6445 112.49649,273.66471 110.98134,275.17986 C 109.46619,276.69501 107.44599,277.70511 106.43589,279.72531 C 105.42579,281.74551 105.42579,284.77582 105.93084,286.29097 C 106.43589,287.80612 107.44599,287.80612 107.95104,286.79602 C 108.45609,285.78592 108.45609,283.76572 109.46619,282.25057 C 110.47629,280.73541 112.49649,279.72531 114.01165,279.72531 C 115.5268,279.72531 116.5369,280.73541 117.04195,282.25057 C 117.547,283.76572 117.547,285.78592 118.5571,286.29097 C 119.5672,286.79602 121.5874,285.78592 121.5874,283.26067 C 121.5874,280.73541 119.5672,276.69501 119.5672,273.15966 C 119.5672,269.6243 121.5874,266.594 123.10256,265.07885 C 124.6177,263.5637 125.62781,263.5637 127.14296,264.06875 C 128.65811,264.5738 130.67831,265.5839 132.19346,267.09905 C 133.70861,268.6142 134.71871,270.6344 134.21366,272.14956 C 133.70861,273.66471 131.68841,274.67481 130.17326,276.18996 C 128.65811,277.70511 127.64801,279.72531 127.64801,282.25057 C 127.64801,284.77582 128.65811,287.80612 129.16316,288.31117 C 129.66821,288.81622 129.66821,286.79602 130.67831,284.77582 C 131.68841,282.75562 133.70861,280.73541 135.22377,279.72531 C 136.73891,278.71521 137.74902,278.71521 138.75912,279.22026 C 139.76922,279.72531 140.77932,280.73541 140.77932,282.75562 C 140.77932,284.77582 139.76922,287.80612 140.77932,288.31117 C 141.78942,288.81622 144.81972,286.79602 145.32478,283.76572 C 145.82982,280.73541 143.80962,276.69501 142.29447,273.66471 C 140.77932,270.6344 139.76922,268.6142 141.28437,268.10915 C 142.79952,267.6041 146.83992,268.6142 148.35508,269.6243 C 149.87023,270.6344 148.86013,271.6445 149.36518,272.14956 C 149.87023,272.65461 151.89043,272.65461 152.90053,271.6445 C 153.91063,270.6344 153.91063,268.6142 154.41568,267.6041 C 154.92073,266.594 155.93083,266.594 156.94093,267.6041 C 157.95104,268.6142 158.96114,270.6344 157.95104,273.15966 C 156.94093,275.68491 153.91063,278.71521 152.90053,281.24047 C 151.89043,283.76572 152.90053,285.78592 153.91063,286.29097 C 154.92073,286.79602 155.93083,285.78592 156.94093,284.27077 C 157.95104,282.75562 158.96114,280.73541 160.47629,280.23037 C 161.99144,279.72531 164.01164,280.73541 165.5268,280.73541 C 167.04194,280.73541 168.05205,279.72531 168.05205,278.71521 C 168.05205,277.70511 167.04194,276.69501 166.03184,276.18996 C 165.02174,275.68491 164.01164,275.68491 163.50659,274.16976 C 163.00154,272.65461 163.00154,269.6243 162.49649,267.6041 C 161.99144,265.5839 160.98134,264.5738 161.99144,264.5738 C 163.00154,264.5738 166.03184,265.5839 168.05205,266.08895 C 170.07225,266.594 171.08235,266.594 172.09245,267.6041 C 173.10255,268.6142 174.11265,270.6344 174.11265,272.14956 C 174.11265,273.66471 173.10255,274.67481 173.10255,275.68491 C 173.10255,276.69501 174.11265,277.70511 175.12275,277.20006 C 176.13285,276.69501 177.14295,274.67481 178.65811,273.66471 C 180.17326,272.65461 182.19346,272.65461 183.20356,272.14956 C 184.21366,271.6445 184.21366,270.6344 183.20356,270.12936 C 182.19346,269.6243 180.17326,269.6243 178.65811,268.6142 C 177.14295,267.6041 176.13285,265.5839 176.63791,265.07885 C 177.14295,264.5738 179.16316,265.5839 180.67831,265.07885 C 182.19346,264.5738 183.20356,262.5536 185.22376,262.04855 C 187.24396,261.54349 190.27427,262.5536 193.30457,262.04855 C 196.33487,261.54349 199.36518,259.52329 200.37528,258.00814 C 201.38538,256.49299 200.37528,255.48289 198.86013,255.98794 C 197.34497,256.49299 195.32477,258.51319 192.29447,258.51319 C 189.26417,258.51319 185.22376,256.49299 181.18336,256.99804 C 177.14295,257.50309 173.10255,260.53339 169.06215,260.02835 C 165.02174,259.52329 160.98134,255.48289 157.44599,254.97784 C 153.91063,254.47279 150.88033,257.50309 147.85003,258.00814 C 144.81972,258.51319 141.78942,256.49299 139.76922,253.96774 C 137.74902,251.44248 136.73891,248.41218 136.23387,244.87683 C 135.72881,241.34147 135.72881,237.30107 136.23387,233.76572 C 136.73891,230.23036 137.74902,227.20006 137.74902,224.67481 C 137.74902,222.14956 136.73891,220.12935 136.73891,217.6041 C 136.73891,215.07885 137.74902,212.04855 137.74902,209.5233 C 137.74902,206.99804 136.73891,204.97784 136.73891,202.45259 C 136.73891,199.92733 137.74902,196.89703 137.74902,194.37178 C 137.74902,191.84653 136.73891,189.82632 136.73891,187.30107 C 136.73891,184.77583 137.74902,181.74552 138.25407,178.21017 C 138.75912,174.67482 137.62121,170.44476 139.13636,168.42456 C 140.65151,166.40436 143.68181,166.40436 146.71212,167.41446 C 149.74242,168.42456 152.77272,170.44476 154.28788,172.46496 C 155.80302,174.48517 157.59311,183.30999 158.09817,184.32009 C 158.09817,184.32009 158.74597,184.46536 158.74597,184.46536 C 158.74597,182.9502 157.6264,172.66179 156.11125,170.64159 C 154.59609,168.62139 152.48494,165.4102 150.58705,164.41552 C 146.98249,162.52637 149.45014,157.90031 150.92087,154.28315 C 151.34624,153.23699 152.43602,152.26294 153.44612,151.75789 C 154.45622,151.25284 167.86976,155.84077 169.38492,155.84077 C 169.55328,154.49397 169.51991,154.96269 169.68825,153.61589 C 168.67815,153.61589 153.54322,148.91574 154.24185,148.02844 C 160.87058,136.69594 169.95512,127.14975 177.52841,116.48309 L 175.09884,115.07102 C 166.57095,126.29095 157.65933,136.9792 149.91077,148.72759 C 147.38552,152.26294 144.35521,156.30335 142.33501,158.32355 C 140.31481,160.34375 139.30471,160.34375 137.78956,160.34375 C 136.27441,160.34375 134.2542,160.34375 133.2441,159.33365 C 132.234,158.32355 132.234,156.30335 133.2441,154.7882 C 134.2542,153.27304 134.93338,151.59242 136.44853,150.58232 C 137.96368,149.57222 139.24198,148.29392 140.25208,146.77877 C 141.26218,145.26361 142.54049,144.04803 143.04555,142.53288 C 143.55059,141.01773 145.01417,134.13018 145.01417,133.12008 L 144.53183,132.63773 C 143.05642,138.40274 141.67372,143.30471 135.2643,147.71749 C 133.18434,149.1495 131.11256,150.33363 130.71885,149.73769 C 130.71885,149.73769 128.10858,97.73769 127.19318,97.73769 C 124.95552,97.73769 126.71787,97.73769 124.48021,97.73769 C 123.56481,97.73769 120.95454,149.73769 120.95454,149.73769 C 120.51396,150.29987 118.64176,148.89736 116.40909,147.71749 C 110.10022,144.38353 108.36823,138.22683 107.22011,132.77858 L 106.73777,133.10381 C 106.73777,134.11391 107.79231,141.15183 108.29736,142.66698 C 108.80241,144.18213 109.81251,145.7282 110.82261,147.24336 C 111.83271,148.75851 113.03246,149.76861 114.54762,150.77871 C 116.06277,151.78881 117.41919,153.27304 118.42929,154.7882 C 119.43939,156.30335 119.43939,158.32355 118.42929,159.33365 C 117.41919,160.34375 115.39899,160.34375 113.88384,160.34375 C 112.36868,160.34375 111.35858,160.34375 109.33838,158.32355 C 107.31818,156.30335 104.28788,152.26294 101.76263,148.72759 C 99.237371,145.19223 77.823561,118.74937 76.812241,116.22461 C 76.812241,116.22461 74.887723,117.02855 74.887723,117.02855 C 76.526585,120.27196 94.558407,146.09678 96.709161,149.42844 C 97.321659,150.37724 83.196968,152.82623 82.186867,152.82623 C 82.186867,152.82623 82.69192,155.25284 82.69192,155.25284 C 89.103583,155.0594 94.720986,153.61656 100.75253,154.28315 C 103.67419,159.65633 101.86866,161.58181 99.742421,163.87911 C 98.286949,165.45167 95.742797,167.59491 94.352336,169.70287 C 93.373596,171.18665 92.837182,173.47506 92.837182,174.99022 C 92.837182,176.50537 92.842917,183.6103 92.842917,184.6204 L 93.325255,184.4863 z "
       style="fill:#ffcd50;stroke:none"
       id="Trunk" />
    <path
       d="M 161.55992,152.91116 L 161.55992,153.08517 C 169.41663,154.97777 176.45867,165.43582 183.48516,173.14957 C 183.91756,173.10637 183.61773,172.25847 183.716,171.27453 C 184.87087,173.59286 188.31045,175.48008 189.21683,176.15746 C 189.12136,175.5854 189.18357,175.08646 188.74097,173.39816 C 190.72011,175.03769 192.39402,175.25426 193.39308,175.73842 C 193.39308,175.73842 193.09403,175.10478 192.98469,173.99476 C 194.10397,174.79166 196.19795,175.11735 197.41306,175.28741 C 197.41306,175.28741 196.24309,174.32108 196.3619,173.78169 C 197.88303,174.59491 199.98184,174.06771 200.75121,174.07645 C 198.53183,173.14396 198.92966,172.13167 197.29587,170.40448 C 199.25665,170.87681 199.99931,170.36992 201.12053,170.74895 C 201.12053,170.74895 200.2381,169.83999 200.17236,168.81354 C 202.03881,170.26726 203.58823,169.54738 204.51195,170.07777 C 204.51195,170.07777 203.86051,169.52829 203.52826,168.68569 C 205.60478,169.75901 207.61614,168.9034 209.73935,168.61467 C 206.65633,167.90515 206.67713,165.41308 205.32873,164.45264 C 205.60954,164.47647 205.88852,164.48011 206.15972,164.47039 C 206.43092,164.46066 206.69666,164.43617 206.95519,164.40292 C 207.21372,164.36966 207.46523,164.32893 207.70805,164.28218 C 207.95087,164.23542 208.18359,164.18326 208.40764,164.13303 C 208.40764,164.13303 208.37482,164.09907 208.31886,164.0407 C 208.2629,163.98231 208.18583,163.89823 208.09868,163.79211 C 208.01155,163.68598 207.91523,163.5589 207.82169,163.41568 C 207.72814,163.27246 207.63762,163.11304 207.56245,162.94336 C 208.37479,163.05244 210.26612,162.90478 211.15984,163.30914 C 211.15984,163.30914 211.79645,163.63404 210.4638,162.30414 C 211.90657,162.83063 212.96209,162.3019 214.17482,162.47106 C 213.95822,161.82504 211.96763,161.02783 211.78485,160.46106 C 211.86041,160.12609 212.35483,160.21229 212.74013,160.0065 C 212.16174,159.68579 211.8764,159.07628 211.38001,158.38004 C 213.60141,159.02883 216.77787,158.62863 216.77787,158.62863 C 216.77787,158.62863 215.76613,158.09855 215.97529,157.20104 C 219.08886,158.2163 219.85372,156.40194 222.27161,157.04123 C 221.77195,155.95197 220.6558,155.94745 220.6558,155.94746 C 223.2234,155.48843 226.17564,155.45748 228.25897,156.07885 C 228.25897,156.07885 227.87356,155.62197 227.9074,154.98863 C 231.29099,155.42213 234.14456,153.35076 237.96801,152.99994 C 234.14456,152.64912 231.29099,150.5742 227.9074,151.00771 C 227.87356,150.37436 228.25897,149.92103 228.25897,149.92103 C 226.17564,150.54241 223.2234,150.51146 220.6558,150.05243 C 220.6558,150.05243 221.77195,150.04436 222.27161,148.9551 C 219.85372,149.59439 219.08886,147.78358 215.97529,148.79885 C 215.76613,147.90134 216.77787,147.37126 216.77787,147.37126 C 216.77787,147.37126 213.60141,146.9675 211.38001,147.61629 C 211.8764,146.92006 212.16174,146.31054 212.74013,145.98983 C 212.35483,145.78405 211.86041,145.87025 211.78485,145.53527 C 211.96763,144.96851 213.95822,144.17484 214.17482,143.52883 C 212.96209,143.69799 211.90657,143.16925 210.4638,143.69574 C 211.79645,142.36585 211.15984,142.69075 211.15984,142.69075 C 210.26612,143.0951 208.37479,142.94389 207.56245,143.05297 C 207.63762,142.88329 207.72814,142.72388 207.82169,142.58066 C 207.91523,142.43744 208.01155,142.31035 208.09868,142.20423 C 208.18583,142.09811 208.2629,142.01403 208.31886,141.95564 C 208.37482,141.89726 208.40764,141.86686 208.40764,141.86686 C 208.18359,141.81663 207.95087,141.76447 207.70805,141.71771 C 207.46523,141.67096 207.21372,141.62668 206.95519,141.59342 C 206.69666,141.56017 206.43092,141.53922 206.15972,141.5295 C 205.88852,141.51977 205.60954,141.52342 205.32873,141.54725 C 206.67713,140.58681 206.65633,138.09118 209.73935,137.38167 C 207.61614,137.09293 205.60478,136.23732 203.52826,137.31065 C 203.86051,136.46805 204.51195,135.91857 204.51195,135.91857 C 203.58823,136.44895 202.03881,135.73262 200.17236,137.18635 C 200.2381,136.15989 201.12053,135.24739 201.12053,135.24739 C 199.99931,135.62641 199.25665,135.11952 197.29587,135.59185 C 198.92966,133.86466 198.53183,132.85238 200.75121,131.91989 C 199.98184,131.92863 197.88303,131.40142 196.3619,132.21464 C 196.24309,131.67526 197.41306,130.71248 197.41306,130.71248 C 196.19795,130.88254 194.10397,131.20822 192.98469,132.00512 C 193.09403,130.8951 193.39308,130.26147 193.39308,130.26147 C 192.39402,130.74562 190.72011,130.95865 188.74097,132.59818 C 189.18357,130.90987 189.12136,130.41093 189.21683,129.83888 C 188.31045,130.51625 184.87087,132.40703 183.716,134.72536 C 183.61773,133.74142 183.91756,132.88996 183.48516,132.84676 C 176.45867,140.56052 169.41663,151.01856 161.55992,152.91116 z "
       style="fill:#ffcd50;stroke:none"
       id="Leaf" />
    <use
       transform="matrix(-1,0,0,1,252.3216,0)"
       id="Leaf-2"
       x="0"
       y="0"
       width="251"
       height="304.20001"
       xlink:href="#Leaf" />
    <use
       transform="matrix(0.642788,-0.766044,0.766044,0.642788,-47.62856,145.2151)"
       id="Leaf-3"
       x="0"
       y="0"
       width="251"
       height="304.20001"
       xlink:href="#Leaf" />
    <use
       transform="matrix(-1,0,0,1,251.3312,0)"
       id="Leaf-4"
       x="0"
       y="0"
       width="251"
       height="304.20001"
       xlink:href="#Leaf-3" />
    <use
       transform="matrix(0,-1.217037,1.217037,0,-60.29766,300.1096)"
       id="Leaf-5"
       x="0"
       y="0"
       width="251"
       height="304.20001"
       xlink:href="#Leaf" />
  </g>
  <path
     d="M 249.55062,1.4395041 L 1.449569,1.4395041 L 1.449569,174.9361 C 0.68232904,268.65698 81.739009,302.75585 125.5001,302.75585 C 168.49395,302.75585 250.31785,268.65698 249.55062,174.9361 L 249.55062,1.4395041 z "
     style="fill:none;fill-opacity:0;stroke:#000000;stroke-width:1.88832211;stroke-linecap:round"
     id="Frame" />
</svg>
