<?xml version="1.0" encoding="UTF-8" standalone="no"?>
<!-- Created with Inkscape (http://www.inkscape.org/) -->
<svg
   xmlns:svg="http://www.w3.org/2000/svg"
   xmlns="http://www.w3.org/2000/svg"
   version="1.0"
   width="251"
   height="304.20001"
   id="svg4166">
  <defs
     id="defs4168" />
  <path
     d="M 1.4495603,1.4395041 L 125.50006,1.4395041 L 249.55061,1.4395041 L 249.55061,174.9361 C 250.31785,268.65698 169.26117,302.75585 125.50008,302.75585 C 82.506226,302.75585 0.68233088,268.65698 1.4495603,174.9361 L 1.4495603,1.4395041 z"
     id="Shield"
     style="fill:#eeeeee;fill-opacity:1;fill-rule:nonzero;stroke:none;stroke-width:1.88832211;stroke-linecap:round;stroke-linejoin:bevel;marker:none;marker-start:none;marker-mid:none;marker-end:none;stroke-miterlimit:4;stroke-dashoffset:0;stroke-opacity:1;visibility:visible;display:block" />
  <rect
     width="89.559479"
     height="37.826183"
     x="23.286665"
     y="183.48654"
     id="rect6845"
     style="fill:#d40000;fill-opacity:1;fill-rule:nonzero;stroke:none;stroke-width:1;stroke-linecap:butt;stroke-linejoin:miter;marker:none;marker-start:none;marker-mid:none;marker-end:none;stroke-miterlimit:4;stroke-dasharray:none;stroke-dashoffset:0;stroke-opacity:1;visibility:visible;display:inline;overflow:visible;enable-background:accumulate" />
  <path
     d="M 35.546996,185.66252 C 18.788926,185.66252 13.998326,195.96764 4.046996,201.81876 C 17.155456,275.62355 87.268496,303.225 125.95325,303.22501 C 166.0349,303.22501 237.38718,274.61058 248.51575,197.78752 C 241.72917,192.17503 235.95213,185.66252 222.64075,185.66252 C 199.25229,185.66252 199.2792,205.78751 175.89075,205.78751 C 152.50229,205.7875 152.49796,185.66252 129.1095,185.66252 C 105.72104,185.66252 105.7167,205.78751 82.328246,205.78751 C 58.939776,205.7875 58.935446,185.66252 35.546996,185.66252 z"
     id="Vagskuren_stam"
     style="fill:#003d8f;fill-opacity:1;fill-rule:nonzero;stroke:none;stroke-width:1.88832211;stroke-linecap:round;stroke-linejoin:bevel;marker:none;marker-start:none;marker-mid:none;marker-end:none;stroke-miterlimit:4;stroke-dashoffset:0;stroke-opacity:1;visibility:visible;display:block" />
  <g
     transform="matrix(-0.1781579,-0.1781579,0.1781579,-0.1781579,174.89575,207.45018)"
     id="g6568">
    <path
       d="M 284.66166,161.67243 C 290.937,158.41826 290.08065,153.6552 289.32154,140.08323 C 309.47236,154.65185 318.97763,140.37253 317.29859,164.93979 C 312.64183,192.14649 292.19839,208.92759 268.49449,226.05849 C 269.48775,256.52079 274.32593,281.61019 276.45219,305.62419 C 282.07585,329.84509 291.44489,350.15449 296.93049,372.74069 C 300.55685,387.67139 306.47588,401.84229 314.57759,416.07219 C 356.69109,413.98957 384.49699,422.00822 397.99359,440.12839 C 422.04699,438.51463 448.089,447.96355 468.355,452.66312 C 442.5138,501.47772 397.97739,522.57607 350.33679,543.16967 C 322.10369,527.20207 290.85799,522.68597 278.20159,517.06147 C 262.72899,510.18518 258.04329,503.71877 241.90509,494.60967 C 228.93319,487.28834 211.03319,489.5932 206.62959,477.93827 C 203.18975,468.83367 194.67189,377.06327 194.67249,360.36427 C 194.67362,329.18397 200.51186,290.74417 199.82333,260.90077 C 199.53306,248.30017 195.93448,241.38197 195.2672,230.47737 C 186.99258,224.11585 173.697,201.45427 165.6332,168.66337 L 259.6607,168.12422 C 266.0721,159.57549 275.6665,156.42362 286.2854,147.87402 L 284.66166,161.67243 z"
       id="path5354"
       style="fill:#d40000;fill-opacity:1;stroke:none;stroke-width:0.36850399" />
    <g
       id="g5366">
      <path
         d="M 265.014,104.618 C 266.69665,95.88927 282.1282,92.8395 287.5968,97.67708 C 294.54764,105.067 292.97866,146.84748 288.26153,150.44828 C 275.49513,161.61448 270.53113,160.66918 269.43093,159.19884 C 263.39114,149.98198 269.5222,114.79804 265.01398,104.61804 L 265.014,104.618 z"
         id="path5352"
         style="fill:#d40000;fill-opacity:1;stroke:none;stroke-width:0.36850399" />
      <path
         d="M 228.101,108.088 C 229.78365,99.35927 257.0215,92.5235 262.4901,97.3611 C 267.86346,104.12003 266.89174,162.5384 263.75208,166.4548 C 257.69642,171.19688 255.27365,180.0787 249.14228,180.8307 C 246.04883,181.20998 237.40738,177.53741 235.67288,172.13372 C 228.57691,162.91715 234.49962,122.36982 228.10097,108.08802 L 228.101,108.088 z"
         id="path5350"
         style="fill:#d40000;fill-opacity:1;stroke:none;stroke-width:0.36850399" />
      <path
         d="M 194.343,115.345 C 196.02565,106.61627 221.055,100.096 226.5236,104.9336 C 231.89696,111.69253 232.81822,173.2659 230.30955,177.1822 C 223.95087,184.87855 212.66555,189.7952 204.75435,177.81319 C 196.60219,167.54129 204.84052,130.57129 194.34295,115.34489 L 194.343,115.345 z"
         id="path5348"
         style="fill:#d40000;fill-opacity:1;stroke:none;stroke-width:0.36850399" />
      <path
         d="M 163.424,132.382 C 165.10665,123.65327 187.612,111.1386 193.0806,115.9762 C 201.30703,121.10521 201.15027,177.5255 198.44404,178.7599 C 192.45358,184.24721 184.74424,186.00894 176.35934,176.86692 C 175.7703,168.14414 170.4491,155.63572 168.91386,141.54972 C 168.95553,139.25025 166.75443,133.83183 163.424,132.3819 L 163.424,132.382 z"
         id="path1937_0"
         style="fill:#d40000;fill-opacity:1;stroke:none;stroke-width:0.36850399" />
    </g>
    <g
       transform="matrix(0.1045285,0.9945218,-0.9945218,0.1045285,800.76146,-252.23722)"
       id="g5437"
       style="fill:#000000;stroke:#eeeeee">
      <g
         id="g5439"
         style="fill:#000000;stroke:#eeeeee">
        <path
           d="M 322.92047,706.29455 L 328.99136,167.65609 L 364.50585,166.39299 L 368.99589,709.77772 C 352.51296,711.65634 342.92604,715.62887 322.92047,706.29455 z"
           id="path5441"
           style="fill:#000000;fill-opacity:1;fill-rule:nonzero;stroke:#eeeeee;stroke-width:4.03753185;stroke-linecap:round;stroke-linejoin:round;marker:none;marker-start:none;marker-mid:none;marker-end:none;stroke-miterlimit:4;stroke-dasharray:none;stroke-dashoffset:0;stroke-opacity:1;visibility:visible;display:inline;overflow:visible" />
        <path
           d="M 269.5619,266.86377 L 269.45636,194.03122 L 393.90066,193.1808 C 403.32078,212.69041 406.49906,223.66563 447.06395,224.18025 C 452.58152,229.87009 450.30445,266.08097 444.68732,267.03604 L 269.5619,266.86377 z"
           id="path5443"
           style="fill:#000000;fill-opacity:1;fill-rule:nonzero;stroke:#eeeeee;stroke-width:4.24890137;stroke-linecap:round;stroke-linejoin:round;marker:none;marker-start:none;marker-mid:none;marker-end:none;stroke-miterlimit:4;stroke-dasharray:none;stroke-dashoffset:0;stroke-opacity:1;visibility:visible;display:inline;overflow:visible" />
      </g>
    </g>
    <path
       d="M 289.885,155.074 C 296.16034,151.81983 296.72699,141.701 297.06885,130.6453 C 294.42129,116.751 292.56913,99.8848 307.48055,96.0802 C 309.82225,96.039948 310.92606,92.16385 311.94654,93.49699 C 315.81668,98.55428 316.38475,115.90569 318.89114,132.40109 C 320.18941,140.94698 322.24481,164.27529 320.89864,172.13969 C 316.24188,199.34639 295.79844,216.12749 272.09454,233.25839 C 273.0878,263.72069 277.92598,288.81009 280.05224,312.82409 C 285.6759,337.04499 295.04494,357.35439 300.53054,379.94059 C 304.1569,394.87129 310.07593,409.04219 318.17764,423.27209 C 360.29114,421.18947 388.09704,429.20812 401.59364,447.32829 C 425.64704,445.71453 445.54343,450.98567 465.80953,455.68523 C 439.02443,503.87053 401.57754,529.77603 353.93634,550.36963 C 325.70324,534.40203 294.45754,529.88593 281.80114,524.26143 C 266.32854,517.38514 261.64284,510.91873 245.50464,501.80963 C 232.53274,494.4883 217.15874,491.74213 212.75484,480.08683 C 209.31471,470.98194 200.79684,384.26353 200.79774,367.56383 C 200.79944,336.38323 205.37428,301.73223 204.68574,271.88883 C 204.39547,259.28823 199.53405,248.58153 198.86678,237.67693 C 190.59216,231.31541 177.29658,213.62797 169.23278,180.83707 L 263.26028,175.32378 C 269.67168,166.77505 279.26608,163.62318 289.88498,155.07358 L 289.885,155.074 z"
       id="path1937_1"
       style="fill:#d40000;fill-opacity:1" />
    <path
       d="M 196.997,120.021 C 198.67965,111.29227 223.709,104.772 229.1776,109.6096 C 234.55096,116.36853 235.47222,177.9419 232.96355,181.8582 C 226.60487,189.55455 215.31955,194.4712 207.40835,182.48919 C 197.57694,169.87559 211.70624,135.79349 196.99695,120.02089 L 196.997,120.021 z"
       id="path162"
       style="fill:#d40000;fill-opacity:1;stroke:#eeeeee;stroke-width:0.36850399" />
    <path
       d="M 166.078,137.058 C 167.76065,128.32927 190.266,115.8146 195.7346,120.6522 C 203.96103,125.78121 203.80427,182.2015 201.09804,183.4359 C 195.10758,188.92321 183.92774,191.00044 175.54284,181.85842 C 171.16785,176.29061 173.10306,160.31172 171.56781,146.22582 C 171.60948,143.92635 169.40838,138.50793 166.07795,137.058 L 166.078,137.058 z"
       id="path168"
       style="fill:#d40000;fill-opacity:1;stroke:#eeeeee;stroke-width:0.36850399" />
    <path
       d="M 230.755,112.765 C 232.43765,104.03627 259.6755,97.2005 265.1441,102.0381 C 270.51746,108.79703 269.54574,167.2154 266.40608,171.1318 C 260.35042,175.87388 257.92765,184.7557 251.79628,185.5077 C 248.70283,185.88698 240.06138,182.21441 238.32688,176.81072 C 230.01144,165.34402 243.27447,129.12852 230.75497,112.76502 L 230.755,112.765 z"
       id="path170"
       style="fill:#d40000;fill-opacity:1;stroke:#eeeeee;stroke-width:0.36850399" />
    <path
       d="M 267.668,109.294 C 269.35065,100.56527 284.7822,97.5155 290.2508,102.35308 C 297.20164,109.743 295.63266,151.52348 290.91553,155.12428 C 278.14913,166.29048 273.18513,165.34518 272.08493,163.87484 C 266.04514,154.65798 272.1762,119.47404 267.66798,109.29404 L 267.668,109.294 z"
       id="path172"
       style="fill:#d40000;fill-opacity:1;stroke:#eeeeee;stroke-width:0.36850399" />
    <path
       d="M 182.484,187.222 C 180.34923,177.87844 179.61534,169.7495 182.24816,164.7021 C 187.27484,155.06515 200.51466,156.45016 202.04476,176.4951"
       id="path174"
       style="fill:none;stroke:#eeeeee;stroke-width:1.41732001" />
    <path
       d="M 211.353,186.116 C 212.01376,177.95562 208.9169,170.4481 211.23791,166.0575 C 218.35401,152.596 236.10091,155.4021 233.12481,179.4855"
       id="path176"
       style="fill:none;stroke:#eeeeee;stroke-width:1.41732001" />
    <path
       d="M 243.69,182.174 C 243.85979,172.48291 242.16127,164.8183 245.20965,159.9988 C 251.75343,149.6535 265.55785,151.66239 266.56475,170.0235"
       id="path178"
       style="fill:none;stroke:#eeeeee;stroke-width:1.41732001" />
    <path
       d="M 185.639,142.737 C 190.89727,142.00084 195.52426,138.73958 201.4138,140.52853"
       id="path180"
       style="fill:none;stroke:#eeeeee;stroke-width:0.99212599" />
    <path
       d="M 221.605,138.004 C 224.54935,135.58463 228.33502,134.84847 232.9629,135.79553"
       id="path182"
       style="fill:none;stroke:#eeeeee;stroke-width:1" />
    <path
       d="M 248.738,135.796 C 253.1541,133.79786 261.3578,130.53716 267.6678,129.80157"
       id="path184"
       style="fill:none;stroke:#eeeeee;stroke-width:0.99212599" />
    <path
       d="M 249.369,142.106 C 255.78409,138.63497 262.1992,137.05778 268.6143,135.48058"
       id="path188"
       style="fill:none;stroke:#eeeeee;stroke-width:0.99212599" />
    <path
       d="M 250.042,459.636 C 245.23047,458.68639 245.1871,469.8813 239.3463,473.231 C 232.72627,477.02716 222.5709,474.25402 221.5921,477.27746 C 220.8361,479.53271 238.5878,488.56386 246.5393,483.24949 C 253.55534,478.5607 250.91543,459.55919 250.04207,459.63599 L 250.042,459.636 z"
       id="path194"
       style="fill:#eeeeee;stroke:#eeeeee" />
    <path
       d="M 182.799,186.275 C 181.16653,177.88303 180.45928,170.5495 183.21966,165.7023 C 188.66162,156.1467 200.19266,156.28078 202.04426,175.8637"
       id="path206"
       style="fill:none;stroke:#eeeeee;stroke-width:1.41732001" />
    <path
       d="M 211.353,186.119 C 211.82384,177.16577 209.99039,169.3178 213.10935,165.2889 C 222.54702,153.0976 236.13715,157.70367 233.12225,179.6424"
       id="path208"
       style="fill:none;stroke:#eeeeee;stroke-width:1.41732001" />
    <path
       d="M 243.375,182.805 C 244.18458,170.298 241.86328,162.0211 244.92187,158.0135 C 251.98241,148.7632 265.92347,154.20742 266.56527,170.0185"
       id="path210"
       style="fill:none;stroke:#eeeeee;stroke-width:1.41732001" />
    <path
       d="M 274.924,163.559 C 273.5628,156.87802 274.30321,152.8228 276.81358,150.6614 C 282.25015,145.98026 291.16198,147.95289 291.32978,153.77866"
       id="path212"
       style="fill:none;stroke:#eeeeee;stroke-width:1.41732001" />
    <path
       d="M 308.998,96.3587 C 311.83662,108.9267 310.67951,120.2845 316.88541,121.9139"
       id="path214"
       style="fill:none;stroke:#eeeeee;stroke-width:0.99212599" />
    <path
       d="M 309.313,95.7277 C 310.65095,108.7954 309.65202,120.6264 316.88491,121.9139"
       id="path216"
       style="fill:none;stroke:#eeeeee;stroke-width:0.99212599" />
    <path
       d="M 304.265,139.582 C 307.72979,137.15753 311.61722,135.15655 318.4623,136.11154"
       id="path218"
       style="fill:none;stroke:#eeeeee;stroke-width:1" />
    <path
       d="M 244.321,198.264 C 256.9655,179.65 270.9315,164.7568 290.3834,155.9716 C 295.1371,153.82492 294.27452,144.4142 295.11584,139.2662"
       id="path220"
       style="fill:none;stroke:#eeeeee;stroke-width:1.98424995" />
    <path
       d="M 275.24,163.559 C 275.24454,158.04136 274.34539,154.43285 276.78602,151.8077 C 281.89462,146.31274 290.96092,147.74593 291.33032,154.09413"
       id="path222"
       style="fill:none;stroke:#eeeeee;stroke-width:1.41732001" />
    <path
       d="M 286.617,408.124 L 303.0384,425.1951 L 303.66854,435.3009 C 301.98249,431.29668 292.72144,419.0785 286.61704,408.124 L 286.617,408.124 z"
       id="path224"
       style="fill:#eeeeee;stroke:#eeeeee" />
  </g>
  <path
     d="M 53.277726,183.39877 L 81.889246,183.39877 L 112.71188,183.39877 L 112.71188,174.7451 C 81.623516,171.28275 85.633476,137.52193 125.04107,137.52193 L 125.04107,128.91105 L 67.700566,128.91105 L 67.466416,128.91105 L 10.125916,128.91105 C 10.028676,137.64769 15.765386,137.39035 22.425796,139.51519 C 59.791506,140.39028 51.890506,175.0748 23.621886,174.7451 L 23.427416,183.39877 L 53.277726,183.39877 z"
     id="Anvil"
     style="fill:#000000;fill-opacity:1;fill-rule:evenodd;stroke:#000000;stroke-width:0.27570462px;stroke-linecap:butt;stroke-linejoin:miter;stroke-opacity:1" />
  <path
     d="M 120,1.4375012 C 119.04037,4.6674324 121.83881,9.7905916 125.75,8.5000012 C 127.17609,8.0294496 130.38808,3.5182285 133.5625,2.5000012 C 138.14441,1.0302878 141.7874,6.9140676 137.3125,9.8125012 C 134.5935,11.573646 129.46247,11.606995 128.125,12.406251 C 123.52087,15.157545 129.57468,24.692548 134.15625,21.687501 C 135.31005,20.930727 137.61179,16.441687 140.34375,14.593751 C 144.972,11.46311 150.71695,20.388412 145.90625,23.312501 C 143.06235,25.041103 137.89686,25.11211 136.78125,25.718751 C 132.11338,28.256816 138.05875,37.848512 142.6875,34.812501 C 143.70279,34.146596 145.53896,30.071165 148.25,28.281251 C 153.35683,24.909521 159.34044,30.746068 155.4375,35.343751 C 153.3643,37.785978 148.81533,39.000253 147.84375,39.937501 C 144.01232,43.63329 152.22866,51.340539 155.90625,47.218751 C 156.83002,46.183425 157.53265,41.534681 159.6875,39.187501 C 164.02922,34.458242 171.51957,41.600749 167.28125,46.156251 C 165.09161,48.509797 160.75287,49.886198 159.84375,50.750001 C 155.99239,54.409351 164.21835,62.16031 167.90625,58.031251 C 168.76003,57.075423 169.85893,51.835288 171.0625,48.875001 C 173.23084,43.541761 183.09697,47.131204 180.71875,52.937501 C 179.68467,55.46217 176.2789,58.209643 175.59375,60.593751 C 174.12343,65.710153 185.12618,68.252204 186.25,62.843751 C 186.55554,61.373437 184.60711,56.351998 185.3125,53.093751 C 186.33066,48.390854 196.92723,50.380016 195.8125,55.593751 C 195.1352,58.761697 191.53682,62.395358 191.15625,63.906251 C 189.84609,69.107321 200.88522,71.583295 202,66.218751 C 202.28074,64.867782 200.71866,60.08222 201.34375,56.843751 C 202.40272,51.357392 211.06052,52.590513 211.1875,58.218751 C 211.26258,61.545937 208.75119,66.043035 208.71875,67.312501 C 208.58282,72.624028 219.87739,72.276618 219.5625,66.750001 C 219.49346,65.537781 216.85085,61.930279 216.65625,58.687501 C 216.28967,52.578989 226.415,51.832906 226.90625,57.843751 C 227.1672,61.036643 224.80553,65.119005 224.78125,66.468751 C 224.68534,71.791306 235.9391,71.421245 235.625,65.906251 C 235.54611,64.520963 232.761,60.745916 232.625,57.562501 C 232.35095,51.148351 240.33023,50.083009 242.15625,56.031251 C 243.09966,59.104311 242.11273,63.562027 242.40625,64.781251 C 243.09829,67.655914 246.75318,67.925143 249.5625,66.687501 L 249.5625,1.4375012 L 125.5,1.4375012 L 120,1.4375012 z"
     id="Moln"
     style="fill:#003d8f" />
  <path
     d="M 1.4495187,1.4395021 L 125.50002,1.4395021 L 249.55056,1.4395021 L 249.55056,174.9361 C 250.3178,268.65698 169.26112,302.75585 125.50004,302.75585 C 82.50619,302.75585 0.68228966,268.65698 1.4495187,174.9361 L 1.4495187,1.4395021 z"
     id="Frame"
     style="fill-opacity:0;stroke:#000000;stroke-width:1.88832211;stroke-linecap:round" />
</svg>
