<?xml version="1.0" encoding="UTF-8" standalone="no"?>
<!-- Created with Inkscape (http://www.inkscape.org/) -->
<svg
   xmlns:svg="http://www.w3.org/2000/svg"
   xmlns="http://www.w3.org/2000/svg"
   version="1.0"
   width="251"
   height="304.20001"
   id="svg4166">
  <defs
     id="defs4168" />
  <path
     d="M 249.55058,1.4395041 L 125.50008,1.4395041 L 1.4495291,1.4395041 L 1.4495291,174.9361 C 0.68228908,268.65698 81.738969,302.75585 125.50006,302.75585 C 168.49391,302.75585 250.31781,268.65698 249.55058,174.9361 L 249.55058,1.4395041 z "
     style="fill:#ffcd50"
     id="Shield" />
  <g
     transform="matrix(0.202234,0,0,0.311649,155.1345,-23.44994)"
     style="fill:#003d8f;stroke:#ffcd50;stroke-width:4"
     id="Sword">
    <path
       d="M 254.81293,272.14166 C 265.02722,230.53452 277.88954,230.54105 287.67007,272.14166 C 296.38688,309.21784 298.48048,340.31095 289.67007,361.6479 C 272.84503,402.39456 267.63797,402.39456 250.81293,361.6479 C 241.79348,339.80471 245.59612,306.62872 254.81293,272.14166 z "
       id="path2198" />
    <path
       d="M 249.77297,371.73577 L 290.71004,371.73577 L 284.77946,824.71208 L 270.2415,863.8695 L 255.70355,824.71208 L 249.77297,371.73577 z "
       id="path2201" />
    <path
       d="M 268.25595,375.82369 L 269.7342,806.6985 L 274.18653,375.82369 L 268.25595,375.82369 z "
       style="fill:#ffcd50;stroke:none"
       id="path2203" />
    <rect
       width="161.86885"
       height="21.377804"
       x="189.3071"
       y="358.07336"
       id="rect2206" />
    <path
       d="M 299.03085,278.04575 C 299.03678,293.94985 286.14561,306.84582 270.24151,306.84582 C 254.3374,306.84582 241.44623,293.94985 241.45216,278.04575 C 241.44623,262.14164 254.3374,249.24567 270.24151,249.24567 C 286.14561,249.24567 299.03678,262.14164 299.03085,278.04575 L 299.03085,278.04575 z "
       id="path2210" />
    <path
       d="M 282.39236,278.04577 C 282.39489,284.75831 276.95401,290.20124 270.24146,290.20124 C 263.52893,290.20124 258.08805,284.75831 258.09057,278.04577 C 258.08805,271.33323 263.52893,265.89031 270.24146,265.89031 C 276.95401,265.89031 282.39489,271.33323 282.39236,278.04577 L 282.39236,278.04577 z "
       id="path2212" />
  </g>
  <path
     d="M 109.56872,138.02036 L 109.36093,130.61135 C 107.18161,135.03893 104.79647,139.36458 102.15972,143.56172 L 102.15972,143.55976 C 101.09812,145.75434 99.34964,146.14284 98.288045,148.33349 C 97.22645,150.52413 98.534241,151.62266 98.534241,151.62266 L 98.532271,151.61872 C 96.135804,157.32553 96.28943,168.16749 99.390016,185.56268 C 104.51581,180.29262 105.51979,171.66986 108.41259,164.93839 C 108.86904,152.0183 109.1234,151.06195 109.56872,138.02036 z M 139.05851,196.12988 L 141.18958,198.47465 C 140.97785,196.20128 141.32991,193.64281 142.25511,190.80024 L 142.25511,190.80221 C 144.03018,190.66188 145.80772,190.80221 147.58279,191.22714 C 147.58279,193.78364 147.01555,196.62621 145.87862,199.75388 C 144.74169,202.88155 145.0872,201.98838 144.59156,202.85835 C 143.05584,209.70413 137.95423,242.0017 133.58598,252.08631 C 127.05466,254.00289 126.99759,250.88128 124.1046,250.79004 C 120.83153,250.68678 118.28749,252.65999 112.5987,254.19128 C 114.74646,249.35536 123.16265,216.38734 124.34981,195.70495 C 125.53696,175.02256 129.83751,157.8967 135.00761,141.76893 C 133.43984,157.95234 132.65546,174.33222 135.64624,191.65405 L 139.48345,191.65405 L 139.05851,196.12988 z M 136.87436,252.05504 C 141.7057,255.46534 153.07166,257.77027 159.70525,255.04971 C 161.21148,238.45858 163.8376,217.6971 169.32874,199.96708 C 170.75027,197.40911 171.60211,197.69371 171.88671,200.81941 C 168.40551,210.55349 166.34534,220.85726 165.70524,231.73024 C 173.57364,216.31053 182.13682,201.81355 191.71333,188.6672 C 189.51086,182.69893 188.16073,176.16146 187.66243,169.05428 C 186.17196,171.11445 184.11032,172.60688 181.48095,173.53012 C 179.77482,179.85439 178.35525,186.17817 177.21881,192.50244 C 176.50879,194.7049 175.79728,194.6335 175.08725,192.29071 C 175.77808,186.65923 177.16465,180.79682 179.56309,174.59762 C 175.86819,176.44409 172.17328,176.58639 168.47887,175.02256 C 165.38764,181.55806 162.82967,188.09603 161.44458,194.63547 C 160.80595,197.76117 160.16584,197.76117 159.52721,194.63547 C 160.37904,188.2403 162.58151,181.84512 165.70868,175.44946 C 161.01964,176.37269 156.32863,175.58979 151.6391,173.10518 L 151.63516,173.10666 C 151.10437,182.80676 149.23323,196.45256 146.42512,205.01573 M 147.79845,101.26189 C 151.45643,99.113589 154.655,93.037484 157.17653,81.224039 C 155.54376,77.600534 153.0567,74.830835 149.71582,72.911002 L 148.01166,75.255768 C 146.23659,73.267001 143.60722,71.560866 140.12405,70.139333 C 121.0439,74.721031 125.0426,100.77935 125.18687,113.75237 C 125.31736,125.56237 128.00827,124.85431 134.58071,140.4897 C 137.13671,127.41475 141.11621,115.40484 148.22339,105.74166 C 145.31139,104.39153 142.11281,106.7358 138.63112,112.77547 C 139.34114,106.4512 141.75681,103.2546 145.87862,103.18369 C 144.95539,95.793889 142.32602,89.825618 137.99101,85.276417 C 141.97051,86.838281 144.52848,89.539046 145.66492,93.376249 C 146.30355,90.748851 146.37495,88.119483 145.87665,85.490115 C 148.43462,88.18891 148.64832,94.016357 147.79451,101.26386 L 147.79845,101.26189 z M 182.54846,89.537077 C 177.22029,99.555756 180.63059,114.47964 177.43202,127.91058 C 176.40292,131.21502 176.26062,134.98132 175.30095,138.14345 C 175.72589,144.18263 177.21881,150.8629 172.74298,155.62333 C 170.25591,155.48251 169.75958,154.4864 171.25202,152.63994 C 172.74298,151.36071 173.66818,146.9543 174.02369,139.42219 C 169.97525,148.16213 163.36638,157.47177 154.19757,167.35012 C 160.73504,166.11717 167.27252,164.6075 173.81048,162.23368 C 179.28046,152.64191 182.83503,142.48043 184.8947,131.74976 C 184.55052,112.91974 184.17531,99.488791 182.55042,89.539046 L 182.54846,89.537077 z M 187.6644,94.01488 C 185.67563,91.598718 184.82379,91.741019 185.1084,94.439814 C 185.53333,105.59542 185.96023,116.753 186.38763,127.90861 C 187.52407,128.33404 188.09179,127.62598 188.09179,125.77755 C 187.31086,115.18917 187.31086,104.60129 187.66637,94.012911 L 187.6644,94.01488 z M 188.94363,98.70392 C 190.7901,96.715153 192.06933,97.566989 192.78083,101.26189 C 192.123,114.69136 191.80393,128.12231 191.7153,141.55326 C 187.91453,150.04356 183.72182,157.36394 179.35185,164.14958 C 174.91246,167.31368 168.51728,169.16212 161.23137,169.47725 C 160.09444,170.68508 160.94874,171.32371 163.78934,171.39511 C 169.68671,172.03374 175.58555,170.11588 181.48292,165.64004 C 186.3507,157.86027 190.75563,149.61616 194.485,140.69749 C 193.45393,128.26264 194.02313,116.03953 194.69673,103.60272 C 195.69086,101.61395 196.68549,102.18119 197.67963,105.30688 C 196.36593,117.99925 195.44073,130.48825 196.40089,142.61338 C 194.44659,151.65516 191.10769,160.00463 185.74309,167.34224 L 177.85498,173.31051 C 174.94298,174.30514 172.31411,174.44547 169.96934,173.73594 C 168.90381,172.1721 166.41674,172.0298 162.50814,173.31051 C 158.1037,173.45134 154.83423,172.45868 152.70267,170.32761 C 159.95017,168.587 167.19964,166.66914 174.44715,164.35934 C 175.93761,163.1515 177.57235,162.29917 178.07065,159.8835 C 184.02169,150.45865 184.76815,137.2606 190.22089,127.47974 C 188.66494,118.26317 188.77622,108.49019 188.94166,98.699981 L 188.94363,98.70392 z M 149.29089,174.17417 C 149.35982,178.7923 148.86546,183.41044 147.79993,188.03054 C 144.17642,189.1655 140.55292,189.4501 136.92892,188.88287 C 141.37029,184.4415 145.4207,179.18277 149.29286,174.17417 L 149.29089,174.17417 z M 162.72184,97.213452 C 142.72042,100.14072 134.82887,131.87482 135.86142,184.83197 C 143.35906,180.51567 149.24264,168.35607 158.45773,159.25078 C 150.93892,125.73175 149.92755,118.0475 158.88267,102.32939 C 155.43593,106.37242 152.73566,112.41602 149.29089,118.74374 C 150.14273,108.84816 155.04546,101.99112 162.71987,97.213452 L 162.72184,97.213452 z M 147.79845,151.14947 C 147.30212,159.88941 145.17105,167.27872 141.82969,173.74726 C 139.69862,173.53603 139.27172,172.46852 139.91232,169.91006 C 143.57078,165.55732 145.20552,158.84308 145.45369,150.51084 C 146.44782,147.74114 147.37106,150.44141 147.79845,151.14947 z M 198.75107,112.34857 C 198.11244,119.80928 198.04154,126.98538 198.53935,133.87886 L 203.22888,138.35469 L 203.22888,131.95952 C 199.53397,128.33601 199.53397,125.28171 203.22888,122.79464 L 203.22888,115.76084 L 198.75304,112.35054 L 198.75107,112.34857 z M 55.657817,63.24389 C 51.301137,68.05258 45.817378,72.484099 37.852461,76.090371 C 27.333562,85.030222 27.635397,107.94758 22.525117,123.87741 C 26.281322,141.45725 33.569201,137.02376 42.359316,153.18058 C 46.19061,149.38769 50.021905,146.8312 53.853697,144.84046 C 55.88087,144.61544 57.007953,144.99064 57.232976,145.96558 C 51.485783,148.78156 45.850368,152.46317 41.905332,155.88282 C 38.129677,149.91061 33.734645,143.97484 28.156839,139.20308 C 27.218342,143.93446 27.518208,148.66831 28.379892,153.40364 C 31.647892,156.74648 36.156223,159.67571 41.228294,162.41833 C 43.857662,163.16873 46.48703,165.4229 49.115905,169.17935 C 50.993392,171.28137 54.07478,170.68164 58.35612,167.3772 C 72.037204,153.7035 81.816089,140.02833 91.265565,126.35266 C 95.279536,118.68022 105.64289,109.2076 108.62038,115.0838 C 110.87257,113.20631 110.12266,111.92708 106.36818,111.25201 C 103.13662,109.22484 96.301247,113.80457 84.505036,131.76354 C 79.002074,137.26601 73.104707,142.63849 65.797625,147.54123 C 63.770451,147.09069 63.545429,146.03894 65.122557,144.38648 C 72.843248,139.50295 78.215234,134.61941 82.929385,129.73588 C 74.101307,133.38843 58.260104,135.56776 55.121111,133.12894 C 49.91998,129.09183 44.923196,126.88198 41.328249,125.9489 C 37.408325,124.9331 34.831199,118.47096 33.794224,113.28116 C 34.244269,110.42726 34.996643,110.27708 36.04642,112.83111 C 36.871618,115.23546 37.698835,117.6398 38.526052,120.04415 C 41.943738,99.353876 46.677093,82.280218 52.501094,68.20079 C 54.8306,66.848684 55.355489,67.300699 54.078719,69.552895 C 46.715499,87.077091 42.28398,104.84748 42.132324,122.97338 C 44.911379,123.94831 47.692895,125.75293 50.47195,127.93176 C 46.848445,109.03625 47.862278,90.627723 55.655848,72.934144 C 57.457999,69.703075 57.457999,66.473482 55.655848,63.24192 L 55.657817,63.24389 z M 63.174166,183.46805 C 77.449566,170.44283 94.785176,154.60753 106.4509,130.81914 C 104.80435,128.8934 103.44239,127.89729 102.71169,128.94953 C 101.68259,131.67294 100.36495,134.39636 98.418529,137.11977 C 97.039834,138.92783 96.34704,138.67425 96.341624,136.35854 C 100.20542,127.98198 104.34298,122.05212 108.66666,117.79934 C 109.16841,117.2454 108.98376,116.69146 108.11272,116.13752 C 97.612977,123.53864 92.32519,146.50228 80.853957,158.64662 C 78.936586,159.84313 77.876961,159.8968 78.707625,157.42942 C 90.521069,145.08863 94.000797,127.59348 104.09678,117.31482 C 105.21599,116.62449 104.96191,116.16263 103.33505,115.92973 C 88.355534,134.1024 73.376015,152.27655 58.396496,170.4507 C 55.019186,172.92398 51.497108,173.7512 47.657936,170.95245 C 43.276641,164.10723 38.377842,164.56516 34.511638,160.72795 C 32.707517,165.65383 32.707517,172.98553 34.340778,181.35076 C 38.185318,180.94454 42.293828,182.48326 46.54267,185.21653 C 51.537484,186.49182 57.261535,187.23434 63.174166,183.46657 L 63.174166,183.46805 z M 42.845798,205.15639 C 39.639348,208.53616 41.757122,214.40793 39.668399,218.90493 C 43.620822,218.82024 46.54267,220.44956 48.433451,223.80176 C 49.235556,213.97708 46.084746,212.48859 42.847768,205.15442 L 42.845798,205.15639 z M 41.643872,227.41394 C 39.381828,227.18547 38.722024,225.23856 39.668399,221.57074 C 41.70739,219.99755 43.841905,219.91089 46.111828,221.99961 C 46.977451,227.13328 46.446654,230.49926 43.878835,231.2802 C 43.736534,228.50262 44.191995,223.05973 43.449962,222.94599 C 42.203228,222.63086 41.745797,224.51918 41.645842,227.41394 L 41.643872,227.41394 z M 50.237572,217.18747 C 49.875665,223.73283 48.660444,230.17823 44.396338,236.26369 C 43.996024,238.29677 44.053634,240.32985 44.567197,242.36488 C 46.858293,239.64493 49.150865,238.75666 51.441468,239.70107 L 50.239542,217.18747 L 50.237572,217.18747 z M 50.408432,247.95204 C 48.806684,247.20804 48.233048,244.97456 48.690972,241.25111 C 49.548717,240.8508 50.524144,240.79319 51.61282,241.07976 C 52.241603,244.74609 51.841782,247.03669 50.410401,247.95401 L 50.408432,247.95204 z M 51.955032,188.31317 C 54.420931,191.26752 56.684945,193.82007 57.54072,193.55468 C 60.898827,191.8579 63.576449,189.75194 65.790239,187.36877 C 65.903489,186.22445 65.332315,185.53609 64.072287,185.30713 C 60.722059,187.45543 56.682975,188.45744 51.957001,188.31317 L 51.955032,188.31317 z M 96.470138,155.05561 C 91.607776,165.78235 86.501189,176.28997 79.573248,186.09938 C 73.243069,196.03386 64.561231,205.18544 54.105308,213.74665 C 52.158882,215.53501 50.839274,215.27749 49.810669,214.08886 C 44.088101,205.23714 40.122384,195.38391 37.608235,184.69902 C 44.844413,186.10726 51.310492,189.13251 56.25558,195.35486 C 57.201955,195.6818 57.721428,196.68185 60.379354,194.32379 C 64.109216,192.33305 67.359489,189.18274 69.488588,185.81675 C 67.455998,185.58779 66.511592,185.61684 66.998074,184.70099 C 77.030541,174.47846 87.253563,164.35737 94.246992,152.49764 C 95.820181,150.37986 96.822197,149.98004 97.253039,151.29719 C 97.558814,152.54934 96.866512,153.80346 96.472107,155.05561 L 96.470138,155.05561 z M 47.058203,191.49254 C 46.000055,190.44621 44.93846,190.47723 43.878835,192.86582 C 44.307707,196.83203 45.167422,200.58454 46.971543,203.86584 C 48.231571,206.5277 49.949031,206.90093 52.126384,204.98159 C 54.015201,202.66194 56.134452,201.25764 58.485126,200.77116 C 58.740677,198.68047 57.969593,198.07827 56.165472,198.96704 C 54.19,198.88235 52.730055,201.71556 51.010626,203.09081 C 49.379827,204.43504 48.433451,204.06427 48.175439,201.97505 C 46.54267,198.25159 46.171407,194.7566 47.060173,191.49254 L 47.058203,191.49254 z M 168.31343,66.836852 C 166.75698,69.61246 170.80394,75.786551 167.71912,78.221424 L 165.59543,76.182925 C 163.58549,78.588748 166.50143,78.617799 166.95345,79.835482 C 167.77476,80.883782 167.57484,82.100973 167.88604,83.233965 C 171.99258,81.93159 167.43402,80.373665 171.02897,78.81574 C 172.18904,77.994432 172.78533,77.061843 172.81192,76.013543 C 170.91572,74.201544 171.39629,72.616537 174.25659,71.257046 C 172.16196,68.085063 170.1791,66.613799 168.30949,66.838821 L 168.31343,66.836852 z M 158.4597,84.932221 C 161.99852,86.998294 163.32945,82.526399 165.76678,82.977921 C 165.97426,74.988114 159.6486,80.523441 158.4597,84.932221 z M 60.529534,59.543556 C 61.17949,61.582055 58.598376,61.582055 60.652631,64.075031 C 61.002721,65.623108 59.448735,63.844099 58.846541,62.967151 C 58.933202,64.39607 59.55066,65.29616 60.696947,65.667423 C 61.248917,66.302115 61.272059,67.150505 60.766374,68.2121 C 58.35415,67.127363 57.426978,65.190296 57.982887,62.407302 C 58.406344,60.818849 59.254241,59.862626 60.527564,59.545526 L 60.529534,59.543556 z "
     style="fill:#d40000;fill-rule:evenodd"
     id="Mantlar" />
  <path
     d="M 109.89659,86.896443 L 109.89659,83.923056 L 107.61181,83.923056 L 107.61181,86.896443 L 103.73314,86.896448 L 103.73314,80.197015 L 113.62375,80.197015 L 113.62375,76.861233 L 113.13891,76.861233 L 113.13892,72.187429 C 113.13892,72.187429 114.14519,71.022392 115.19946,70.91444 C 115.20775,70.913588 115.21539,70.915164 115.2237,70.914435 C 115.26692,70.910703 115.30768,70.91444 115.35096,70.91444 C 116.45916,70.91444 117.56908,72.187429 117.56908,72.187429 L 117.56908,76.861229 L 117.08425,76.861233 L 117.08425,146.40867 C 117.77949,145.77963 118.63349,145.3587 119.56296,145.3587 C 121.66589,145.3587 123.5098,146.85508 124.90825,148.4436 C 126.35179,150.08333 127.51423,152.66518 127.51423,154.99434 C 127.51423,157.4296 126.64576,159.77869 125.1143,161.90751 C 123.54886,164.08359 119.96956,164.31881 118.99328,163.78446 C 118.56954,163.55254 118.19091,162.99894 117.91452,162.32563 C 117.95323,162.68408 117.97513,163.05912 117.97513,163.44066 C 117.97513,166.33464 116.80218,168.68124 115.35703,168.68124 C 113.91188,168.68125 112.73892,166.33464 112.73892,163.44066 C 112.73892,163.0563 112.76026,162.67724 112.79953,162.31633 C 112.52273,162.99451 112.14678,163.5513 111.72078,163.78446 C 110.74449,164.31881 107.15914,164.08358 105.59369,161.90751 C 104.06224,159.77868 103.19377,157.4296 103.19377,154.99434 C 103.19376,152.66518 104.35621,150.08332 105.79975,148.4436 C 107.18726,146.8675 109.01407,145.38173 111.09655,145.3587 C 111.11295,145.3585 111.1286,145.3587 111.14504,145.35869 C 112.05596,145.3587 112.91345,145.76319 113.62375,146.3715 L 113.62375,96.98741 L 103.73315,96.987405 L 103.73314,90.399475 L 107.61181,90.399475 L 107.61181,93.270661 L 109.89659,93.270661 L 109.89659,90.399475 L 113.62375,90.399475 L 113.62375,86.896448 L 109.89659,86.896443 z M 110.25416,149.921 C 110.27018,149.91984 110.28661,149.92187 110.30264,149.921 C 111.31655,149.86552 112.32912,150.36824 112.90255,150.89664 C 113.76609,151.69232 114.50347,153.86074 115.40551,153.86073 C 116.30756,153.86074 116.94797,151.69231 117.8115,150.89664 C 118.67503,150.10096 120.52212,149.36651 121.89016,150.50638 C 123.31198,151.69107 124.32804,153.92623 124.21736,155.6076 C 124.10669,157.28899 123.51094,159.00902 121.95077,159.16641 C 122.46845,157.9433 121.6768,156.03362 120.47202,156.10937 C 119.26724,156.18514 117.7663,157.91117 117.49636,159.26861 C 117.43625,159.57084 117.41898,159.91576 117.44181,160.28142 C 116.96367,159.01721 116.20945,158.20007 115.35703,158.20007 C 114.50678,158.20007 113.75058,159.0134 113.27224,160.27213 C 113.29428,159.90972 113.27731,159.5684 113.2177,159.26861 C 112.94776,157.91117 111.44076,156.18511 110.23597,156.10938 C 109.03119,156.03362 108.23955,157.94329 108.75723,159.16642 C 107.19706,159.00902 106.60738,157.28899 106.4967,155.60761 C 106.38602,153.92623 107.39602,151.69107 108.81784,150.50637 C 109.26305,150.13541 109.75735,149.95711 110.25416,149.921 z "
     style="fill:#003d8f;fill-rule:evenodd;stroke:#ffcd50;stroke-width:0.80000001"
     id="Key" />
  <path
     d="M 143.41863,49.503212 C 143.49742,49.464805 142.89719,51.801693 143.3108,50.910957 C 143.67074,55.575377 145.48225,57.533616 149.3677,59.951256 C 149.89111,58.245121 150.82567,57.523769 151.57558,57.233258 C 152.26838,55.223318 152.60862,53.211408 152.1699,51.201468 L 151.49139,49.587903 C 150.44456,49.870535 150.67008,51.513152 149.62375,51.457511 C 147.86936,50.891754 147.89644,49.730204 146.90575,49.164939 C 145.59599,48.832083 145.40346,49.264894 144.17249,49.010821 C 144.74563,46.885661 144.27835,45.883645 145.65557,44.887046 C 148.63699,41.761348 153.63181,42.231089 153.95679,42.963816 L 153.96073,53.240459 C 152.68346,54.261678 152.48355,55.623632 154.12617,55.027346 C 154.15325,56.202683 156.61718,56.796999 156.59009,54.942655 C 157.24005,56.102236 157.69403,55.592611 158.37304,54.60389 C 158.13669,53.142473 157.59605,52.719017 156.67479,52.396009 C 156.6477,49.224518 156.61914,46.052535 156.59009,42.881045 C 156.80527,42.352217 159.58679,42.319227 162.2585,42.671286 C 164.03948,43.923437 165.38567,45.787137 165.76285,47.448956 C 165.35318,48.047211 164.297,47.321919 163.47027,47.639512 C 162.33531,52.170986 159.6444,48.310641 159.73303,48.062475 C 158.21942,46.775858 157.6251,47.568115 157.69403,49.676533 C 158.89251,51.832713 158.07859,52.240413 158.71328,53.413288 C 161.04869,54.460112 163.54118,57.121977 165.42408,60.889753 C 166.55707,59.843423 166.33008,58.002865 164.74507,55.367588 C 165.88397,54.407918 166.88993,53.554112 167.12283,51.461451 C 167.10166,50.37819 165.98393,48.972414 166.7496,48.522369 C 169.03084,45.69506 165.55703,44.963859 165.34136,43.39067 C 165.64172,41.588519 164.74163,39.886372 163.6431,38.124548 C 162.82179,37.757224 162.11423,37.841915 161.51991,38.378129 L 161.94288,40.501861 C 156.33602,41.059691 152.20092,40.057675 150.21806,36.764564 C 147.98113,38.626294 145.7442,40.028673 143.50727,40.757363 C 143.07642,43.709739 142.72239,46.783736 143.42257,49.50912 L 143.41863,49.503212 z M 147.92155,70.235827 C 147.35382,65.407933 149.62375,57.760609 154.03754,56.55819 C 156.84023,56.162307 159.58679,56.190866 161.00438,56.896955 C 163.22408,58.416473 164.76625,60.433799 165.86871,64.450233 C 167.04011,68.723694 167.27843,73.701767 167.0342,75.417257 C 165.70524,75.247875 164.71258,74.398008 164.06262,72.868642 C 163.62784,70.895138 164.13746,68.310086 163.58549,65.311917 C 162.83903,61.27825 160.90245,59.160476 156.24788,59.360879 C 150.18704,59.930083 150.29291,65.756054 149.96399,71.112775 C 149.6464,71.822311 148.2677,69.96058 147.92303,70.235827 L 147.92155,70.235827 z M 153.95482,62.247768 C 155.27049,61.243783 156.79985,60.591857 158.79601,60.718401 C 161.15997,61.326504 162.74695,62.997679 162.61794,67.004265 C 162.02363,68.379513 161.16588,69.568145 161.85425,72.016805 C 160.69467,71.734173 159.67542,71.026115 158.96736,69.383498 C 158.65764,67.118007 160.63706,66.636941 160.0713,64.627001 C 158.71328,61.257077 157.01306,61.399378 156.50343,64.54231 C 154.97456,64.346338 154.12617,63.58067 153.95482,62.249737 L 153.95482,62.247768 z M 156.58812,65.730942 C 155.99381,67.727587 155.71118,69.879828 155.56887,72.103466 C 156.50146,72.895723 157.43651,72.555481 158.37107,71.083724 C 156.72846,70.291467 160.608,62.192128 156.58812,65.732911 L 156.58812,65.730942 z M 150.9793,67.687211 C 150.51202,70.985738 151.75678,72.883906 153.78199,74.143934 C 154.234,73.351677 154.234,71.993663 153.78199,70.066444 C 153.27236,68.629648 152.98776,67.435107 153.38758,66.358248 C 152.43924,63.820957 154.20101,61.053227 154.10303,60.87055 C 153.90509,60.501257 151.9759,62.816972 151.43131,65.175032 C 151.23731,65.662007 151.07975,66.983092 150.98127,67.689181 L 150.9793,67.687211 z M 158.79601,73.039994 C 157.19573,74.936191 157.30948,76.521198 158.20169,77.967843 C 160.22542,79.92165 161.98128,77.686688 164.65891,75.334536 C 161.99655,74.045949 160.49672,72.432383 158.79601,73.041963 L 158.79601,73.039994 z M 141.54903,39.307271 C 136.90381,39.801681 135.17699,44.898863 136.45229,49.331859 C 136.79056,50.407241 137.47154,50.803616 138.49079,50.520984 C 137.89647,46.245109 138.77342,43.667886 141.12409,42.790445 C 138.90242,47.689735 138.30614,51.740144 141.29348,53.919466 C 140.78336,56.098789 140.72772,58.279589 141.12409,60.460881 C 138.86008,63.122747 138.88716,65.359679 141.37767,68.021545 C 141.88779,68.587302 142.51067,68.927544 143.24728,69.041286 C 141.40672,65.50198 141.0394,63.094188 142.14334,61.818895 C 145.00364,63.17691 140.38945,67.594642 148.42921,73.034085 C 146.53252,69.339183 146.81515,65.486716 148.09044,61.564821 C 147.1421,60.051212 145.41528,59.002911 143.33394,58.166339 C 141.29495,52.305409 142.73963,38.795677 141.551,39.305302 L 141.54903,39.307271 z M 137.38684,51.116777 C 137.54047,53.692474 137.68326,55.50595 137.38684,56.723633 C 137.07516,58.408595 138.31993,59.314595 140.27373,59.866565 C 139.73703,58.733573 139.65283,57.262309 140.02015,55.44834 C 139.52579,53.111453 138.56218,51.867181 137.38684,51.1153 L 137.38684,51.116777 z M 140.18904,36.249031 C 142.42597,34.239091 144.54966,33.2484 146.56157,33.275481 L 142.48408,37.352971 C 146.02289,37.749346 148.54442,36.108748 150.04474,32.425614 C 147.83686,31.207981 144.31085,31.933223 143.24925,32.340923 C 141.09701,33.415813 140.07776,34.718187 140.19101,36.249031 L 140.18904,36.249031 z M 150.64103,33.869797 C 151.40472,31.944548 152.73566,30.444233 155.31283,29.876999 C 155.33991,30.640205 154.68996,31.575255 155.39752,32.16962 C 156.84023,29.96169 158.96539,28.773058 161.76955,28.601706 C 167.73438,32.594505 169.79996,36.587796 170.77539,40.580594 C 168.02834,37.720295 163.75291,30.526955 162.53522,32.000189 C 162.35452,33.13318 164.47771,34.669933 167.03026,38.624325 C 168.36513,40.695814 168.88264,44.196714 171.11563,47.122009 C 166.95936,45.86395 167.10166,41.911527 165.16459,38.391916 C 163.65837,35.654715 161.78531,34.470071 158.20366,33.104129 C 156.70334,34.462144 159.87336,35.822128 159.81772,37.947287 C 157.44045,38.188066 155.59743,37.083633 154.12617,35.060399 C 154.07053,35.683766 153.67415,36.135781 153.95679,36.928038 C 152.5126,36.589765 151.40866,35.570023 150.64496,33.869797 L 150.64103,33.869797 z M 168.22874,48.568653 C 167.23805,49.530293 168.36907,52.701783 168.6517,54.769333 C 169.86939,54.967767 170.83103,53.694444 170.69069,50.947887 C 170.09638,49.47613 169.27507,48.683873 168.22677,48.570623 L 168.22874,48.568653 z M 172.47758,41.942548 C 170.41151,44.717663 174.2044,47.493271 173.41017,54.855994 C 174.55646,55.306039 175.6604,56.950625 175.78743,56.979676 C 175.70274,56.046596 175.39155,55.225287 174.85485,54.515752 C 173.55247,48.739513 175.19312,46.614403 174.77015,42.792415 L 172.47758,41.944517 L 172.47758,41.942548 z M 171.71191,53.752053 C 169.64633,56.950625 171.65627,58.112176 171.62722,60.293468 C 170.52328,61.680533 169.87333,63.407349 169.67489,65.475391 C 171.51397,65.208022 173.29889,63.480715 174.68743,60.718401 C 174.97007,57.887153 172.36581,56.925513 171.71585,53.752053 L 171.71191,53.752053 z M 166.10309,55.791045 C 167.64575,57.856625 168.26912,61.4821 167.80134,63.097635 C 169.18841,62.928745 169.89598,61.399378 169.92503,59.189527 C 169.38832,57.519829 167.49015,53.215347 166.10309,55.793014 L 166.10309,55.791045 z M 171.79661,79.410056 C 171.42928,80.71243 170.83497,82.355047 170.01366,83.658898 C 170.0693,84.73428 170.15399,85.640279 169.75958,86.717139 C 168.88067,88.159844 168.17064,90.87735 168.65564,93.004972 C 168.06133,95.128162 167.46701,96.063212 166.8727,98.186402 C 167.21097,101.18703 169.02494,103.0852 172.98918,103.36832 C 174.88537,95.94947 177.46304,95.751529 179.78614,92.154612 C 180.17316,91.0812 180.54048,90.621799 180.56904,89.579407 C 180.59612,88.538493 180.45579,87.336566 180.50356,86.30353 C 180.5459,85.367002 180.33811,84.513196 180.38243,83.574207 C 179.97276,83.443723 179.78811,83.651512 179.83046,84.199543 C 179.52665,84.793859 179.3745,85.428551 179.71721,86.09968 C 179.32674,88.10962 179.59953,88.294267 179.02638,89.092433 C 179.36909,87.126808 179.35924,85.065167 179.1997,84.457064 C 179.38435,83.793813 179.53453,82.506703 179.41488,81.622369 C 179.59608,80.318025 179.66501,79.014174 179.61873,77.70983 C 179.15145,77.431137 178.90722,77.602489 178.89196,78.227333 C 178.54975,79.221963 178.51676,80.194927 178.78806,81.141303 C 178.34934,84.093679 178.37643,86.361632 177.66689,86.884551 C 178.04948,85.37685 178.04357,83.953348 178.07065,82.624385 C 177.93426,81.37765 177.92835,80.137318 178.21689,78.915695 C 178.27647,77.731003 178.32276,76.561574 178.34393,75.417257 C 177.80131,75.080462 177.37047,75.198143 177.05485,75.765378 C 176.57821,76.877197 176.59545,77.802399 176.96474,78.891076 C 176.53193,81.41458 177.56841,85.872688 176.81653,86.713199 C 176.67029,85.28625 176.86085,83.261046 176.46053,82.085709 C 176.62795,81.164445 176.04742,80.044748 176.24536,79.067844 C 176.09715,77.59658 176.20301,76.067214 175.62987,74.819002 C 175.05476,74.905663 174.70467,75.217347 174.58157,75.7575 C 174.1527,77.113544 174.17584,78.358309 174.651,79.489331 C 174.21621,80.456387 174.23542,81.423935 174.70467,82.391484 C 174.05077,83.716508 174.07588,85.043994 174.77951,86.370988 C 173.90256,87.336566 173.02364,87.306038 172.1467,87.134686 C 172.34464,85.832312 172.4313,84.639741 171.72324,84.247798 C 173.74894,81.416549 173.18121,79.971874 171.80793,79.40464 L 171.79661,79.410056 z M 203.22888,131.9595 L 203.22888,131.9595 z M 203.65381,125.9932 C 202.09589,127.36057 204.36335,128.70135 205.51554,130.65565 C 206.9351,131.47696 208.08927,131.52866 207.70274,128.97807 C 206.59289,127.58559 204.52534,125.39494 203.65381,125.99517 L 203.65381,125.9932 z M 216.60222,139.43006 C 215.89613,139.51278 214.90199,139.96085 214.29586,140.58767 C 213.70548,140.663 213.35145,140.96484 212.85906,141.26865 C 212.21107,141.74577 212.17661,141.87478 212.23028,142.25343 C 212.26081,142.60746 212.5784,142.58628 213.51492,142.26327 C 214.0861,142.04564 214.66909,141.85164 215.03838,141.53207 C 216.80213,141.15933 217.33686,140.29371 216.60025,139.43006 L 216.60222,139.43006 z M 216.52885,136.40087 C 215.60414,136.51018 214.30177,137.09908 213.50754,137.91842 C 212.73202,138.0164 212.26868,138.41425 211.62414,138.80866 C 210.77428,139.43597 210.72799,139.60141 210.79939,140.09725 C 210.84173,140.56305 211.25485,140.534 212.48435,140.11103 C 213.23229,139.82643 213.99599,139.57236 214.4805,139.15481 C 216.79277,138.66439 217.49246,137.5314 216.52737,136.3989 L 216.52885,136.40087 z M 216.45598,133.37119 C 215.31363,133.5061 213.69957,134.23484 212.71873,135.24867 C 211.76103,135.37177 211.18789,135.86022 210.39169,136.35064 C 209.33945,137.12567 209.28381,137.33149 209.37195,137.94501 C 209.42414,138.52012 209.93573,138.48565 211.45525,137.96224 C 212.38046,137.6087 213.32486,137.29505 213.92459,136.77952 C 216.78489,136.17388 217.64855,134.77155 216.45598,133.36922 L 216.45598,133.37119 z M 216.23292,128.97807 C 214.74049,129.15533 212.63601,130.10516 211.35727,131.4287 C 210.10512,131.58824 209.35865,132.22687 208.3202,132.86747 C 206.94643,133.87884 206.87552,134.14818 206.98877,134.94831 C 207.0582,135.69872 207.72391,135.6544 209.70677,134.97146 C 210.91264,134.51009 212.14756,134.10042 212.93046,133.42683 C 216.6618,132.63654 217.79085,130.80731 216.23489,128.97807 L 216.23292,128.97807 z M 192.3559,248.36369 L 200.24154,243.24775 C 202.38443,246.41333 204.35399,247.4503 207.65055,248.21203 C 211.13175,247.10809 211.36465,251.28554 208.34137,250.28155 C 206.62933,251.3722 204.78286,251.51253 202.8,250.70648 C 199.31831,248.70639 194.4136,250.26235 192.35393,248.36172 L 192.3559,248.36369 z M 73.732014,48.805001 C 73.708871,49.172325 71.810211,49.458896 71.056361,48.478053 C 70.413791,47.641481 72.115986,47.603075 71.87176,47.043226 C 71.192753,46.706431 68.75591,46.620262 68.159625,45.933377 C 65.799595,44.55025 65.52681,43.669363 65.14373,43.002222 C 67.259534,39.145767 71.822029,39.655392 75.481971,42.605798 C 74.660663,43.665916 71.189306,41.228581 68.325068,41.890354 C 67.413652,41.980954 63.503083,42.681134 67.732722,43.832837 C 68.452105,44.229212 68.456044,43.119362 69.733306,43.04058 C 70.525563,42.973122 71.346872,43.392639 72.141098,43.719587 C 73.141144,44.29076 75.424361,44.566007 74.612901,45.152445 C 73.876284,45.687181 73.603007,47.241167 73.732014,48.806971 L 73.732014,48.805001 z M 75.959098,29.478654 C 70.783084,30.213302 67.24427,32.294638 64.82466,36.635558 C 63.489788,39.182204 63.101292,40.321104 60.743231,39.526385 C 60.71418,40.657407 63.022509,41.317211 62.916645,42.061706 C 62.677836,43.750607 62.572464,44.437001 62.677836,46.177603 C 61.720135,48.820265 59.690992,51.538264 64.903443,54.765887 C 66.215173,53.007558 67.642122,51.788398 69.379277,52.363511 C 69.831292,51.609168 70.562,50.399363 71.569925,51.095604 C 70.258195,51.238397 69.819475,51.992248 70.413791,53.198114 C 70.908151,53.667362 71.087382,54.296145 71.423685,54.844669 C 72.029818,55.875243 75.354934,52.603798 75.057038,50.257062 C 75.706994,48.597212 76.118633,47.120039 76.147684,46.020038 C 76.166887,45.229258 76.720827,44.508397 77.801625,44.829485 C 81.271505,47.810864 81.717611,45.765964 83.049036,46.837407 C 84.221911,47.783782 83.848679,48.672548 85.180104,49.355002 C 85.116586,43.084895 79.80221,44.927422 78.147776,43.188789 C 81.158255,41.722941 84.020031,42.832791 86.612962,46.65079 C 88.440225,44.927422 89.20934,42.355664 88.918829,38.936008 C 85.579926,31.365497 80.992811,29.403811 75.955159,29.472746 L 75.959098,29.478654 z M 76.357442,48.964536 L 75.905427,52.001603 C 75.653323,52.296053 75.399249,52.592473 75.145668,52.8884 C 75.439626,52.980969 75.757218,53.18088 76.007352,53.654068 C 76.540119,54.663962 75.95122,55.377436 75.166841,55.642835 C 77.397865,56.683257 79.967653,61.288098 81.765865,64.707753 C 84.018062,56.967859 81.084888,57.631602 81.669849,56.252415 C 82.187352,54.913604 81.542812,52.650082 83.931401,53.455634 C 83.52961,52.861318 83.43901,51.903618 84.072225,51.826805 C 81.500466,51.072954 79.917429,50.447617 78.405789,48.843408 C 77.486495,48.382037 76.644014,48.36825 76.359412,48.962566 L 76.357442,48.964536 z M 61.32376,35.922083 C 59.389156,35.710355 58.250256,37.85718 57.984857,43.79443 C 57.794302,45.290806 57.392511,46.047119 56.778991,46.060463 C 55.272767,46.443001 54.934495,47.252985 55.761712,48.485932 C 58.41176,50.128548 60.321745,49.333829 61.487234,46.10079 C 61.566509,45.552759 61.533519,45.108129 61.550753,44.740806 C 61.412391,43.544788 58.167534,46.416412 57.806119,46.00822 C 57.921339,45.123886 61.475909,43.900294 60.858451,43.176972 C 60.404466,42.830821 59.956391,42.534894 59.816059,41.967167 C 59.746632,40.976969 59.935218,39.880414 60.283338,38.720833 C 60.552676,37.820743 62.268166,37.993572 61.32573,35.924102 L 61.32376,35.922083 z M 89.718965,42.363542 C 89.515115,47.525769 87.937986,45.762025 87.25504,47.054551 C 88.421022,49.545557 89.480647,51.082309 90.436378,51.66727 C 90.594436,49.838037 91.176934,48.433738 92.184859,47.452895 C 91.840677,45.279531 89.905581,40.640174 89.720934,42.363542 L 89.718965,42.363542 z M 86.616901,49.999542 C 87.782391,50.845962 88.630288,52.013421 89.161578,53.49798 C 89.638212,55.114007 89.584542,56.625647 89.00352,58.029946 C 87.732167,57.55282 86.247608,56.439031 84.550829,54.690551 C 84.603022,52.915481 85.293354,52.305409 86.618871,52.861318 L 86.618871,49.999542 L 86.616901,49.999542 z M 71.983533,56.283436 C 72.77776,58.296822 74.314512,59.993602 76.59576,61.372789 C 77.761249,62.484115 77.73466,60.81688 77.468769,60.180218 C 75.734075,57.489301 73.929955,55.793014 71.981564,56.285405 L 71.983533,56.283436 z M 70.073548,57.077662 C 68.35215,55.329182 64.401204,58.985677 61.56454,59.939439 C 62.385848,57.69906 64.507068,55.500534 66.813428,55.010112 C 69.303941,55.115977 70.471893,55.167678 70.073548,57.077662 z M 71.585189,58.350985 C 72.300633,59.781874 73.439533,61.001526 75.005337,62.009451 C 73.606946,61.728295 72.843248,62.080355 72.716211,63.071046 C 72.633489,65.180941 73.978209,64.42906 74.610932,65.107575 C 75.103323,66.34643 75.276152,67.267694 75.131881,67.869888 C 75.743923,68.558251 76.145714,69.462281 76.3343,70.578039 C 75.254979,70.289498 74.387878,69.681887 73.732014,68.756684 C 74.043205,69.572084 74.14513,70.389453 74.035819,71.206822 C 73.023955,70.429829 72.22382,69.545002 71.635413,68.556281 C 70.369968,66.173601 70.375384,64.638326 71.650677,63.951933 C 70.754525,61.582055 69.487111,62.630356 69.19857,64.95001 C 68.715534,67.692627 70.184829,70.421951 72.45869,72.743574 C 69.886932,72.732249 67.582542,71.724325 65.857204,68.529692 C 65.84391,65.785105 66.45349,63.667331 67.925247,62.407302 L 66.813428,61.691858 C 64.455367,64.196159 63.474524,67.217963 64.507068,70.997063 C 63.528195,71.685918 62.547352,70.785828 61.566509,68.294822 C 61.47394,65.44634 62.639429,63.351708 64.666603,61.77458 L 61.168165,64.159722 C 60.560554,63.020822 60.904736,61.77458 62.201201,60.422474 C 66.495835,58.56616 69.623503,57.877798 71.585189,58.354925 L 71.585189,58.350985 z M 76.118633,62.64562 C 75.961068,64.421182 76.436225,66.196251 77.550013,67.973783 C 77.391956,65.00565 79.85588,66.171632 78.980902,64.474852 C 79.098091,62.911511 77.907489,62.513167 76.118633,62.64562 z M 60.529534,59.543556 C 61.17949,61.582055 58.598376,61.582055 60.652631,64.075031 C 61.002721,65.623108 59.448735,63.844099 58.846541,62.967151 C 58.933202,64.39607 59.55066,65.29616 60.696947,65.667423 C 61.248917,66.302115 61.272059,67.150505 60.766374,68.2121 C 58.35415,67.127363 57.426978,65.190296 57.982887,62.407302 C 58.406344,60.818849 59.254241,59.862626 60.527564,59.545526 L 60.529534,59.543556 z M 60.052407,48.726219 C 59.483203,51.824835 58.007999,49.943901 57.940542,51.501827 C 57.850434,53.659484 59.877608,51.703707 58.619549,57.394762 C 60.050437,57.2564 61.481818,56.660115 62.914676,55.24843 C 60.794932,54.028777 59.841171,51.855363 60.052407,48.728188 L 60.052407,48.726219 z M 56.632751,41.569315 C 56.29054,43.436954 55.811443,44.975676 55.043806,45.783197 C 55.068917,46.312518 56.129035,45.889062 56.792286,45.466098 C 57.454059,44.246445 57.321606,40.323074 56.634721,41.569315 L 56.632751,41.569315 z M 63.274121,73.520567 C 67.757834,82.002987 72.397142,80.052626 76.257487,72.001049 C 74.853188,72.23395 73.489265,71.766671 72.399111,71.066491 C 73.060392,71.922266 73.410482,72.938069 73.450858,74.107497 C 71.073595,74.263093 68.538766,73.172447 65.847849,70.83359 C 65.107293,72.432383 64.563201,72.938069 63.276091,73.522537 L 63.274121,73.520567 z M 66.082227,104.75096 C 66.900088,103.76224 67.719427,102.77401 68.538766,101.78529 C 68.829276,98.369079 69.413744,95.147365 70.640783,92.354523 C 72.550768,91.029499 74.460752,89.742881 76.372707,88.729048 C 77.247685,88.009665 78.378707,87.542386 79.880992,87.4444 C 81.790977,86.821033 83.544874,86.353754 85.143175,86.04207 C 85.027955,88.14655 83.818151,89.315978 81.5177,89.550356 C 80.231082,90.641002 78.944465,90.641002 77.657355,90.952686 C 77.128527,91.902508 75.557307,92.868087 74.383939,93.173862 C 75.943834,92.550987 77.969038,91.966027 79.528933,92.591363 C 79.605746,93.135455 79.684528,93.916387 79.761834,94.462941 C 77.930632,94.385636 76.409143,94.813031 75.201308,95.04544 C 76.876422,95.239934 78.553999,94.851438 80.231082,95.04544 C 80.736768,95.163121 81.244423,95.942084 80.81555,96.68264 C 80.573294,96.770778 80.685067,97.430582 80.450196,97.4941 C 80.042497,97.605381 79.267473,96.955425 78.844017,96.972658 C 77.574633,97.022882 76.307218,97.245935 75.437656,97.500009 C 76.645984,97.576822 76.566709,98.005695 77.659324,97.967288 C 78.165502,97.967288 79.490526,97.851576 79.998181,97.851576 C 81.152346,98.192311 81.981532,98.36711 82.21985,98.669438 C 81.244423,99.682778 80.154269,100.03484 79.178843,99.486807 C 78.634751,99.525213 77.736137,99.761561 77.192045,99.486807 C 76.178212,99.678839 76.255517,100.06931 75.555337,99.954086 C 74.649338,101.91774 76.057084,107.02827 73.21648,107.08785 C 71.696962,108.56896 70.759941,108.84224 69.240915,110.01166 C 66.628781,109.1943 65.576541,107.43794 66.082227,104.74899 L 66.082227,104.75096 z M 104.85999,127.14884 C 104.3543,125.46437 104.76988,124.24275 106.10475,123.47905 C 108.46823,122.76164 108.08958,118.13415 109.84348,117.87072 C 111.23842,116.35858 112.59988,115.34524 112.89039,114.20093 C 114.55221,113.74103 116.02939,113.00245 117.32191,111.98517 C 118.26829,113.38159 118.5913,115.73571 114.62164,115.5166 C 114.96582,116.59936 114.41385,117.75501 113.09818,118.00908 C 113.77128,122.68285 112.79241,126.37579 108.45887,124.31021 C 108.3663,126.3876 113.35569,125.00062 113.40197,126.87015 C 113.49454,127.7471 113.51769,128.62454 113.05779,129.50148 C 109.06499,130.56308 105.71429,129.77821 104.85999,127.14736 L 104.85999,127.14884 z M 117.18749,116.55308 C 116.49469,116.59739 115.47938,117.15133 114.97173,117.93621 C 114.41927,117.68213 114.16569,117.75156 113.79442,118.42072 C 113.54232,119.48034 114.11743,120.17461 115.52567,119.45917 C 116.4489,119.64185 117.48736,119.6192 118.22594,118.69744 C 118.33919,117.70527 117.99501,116.98983 117.18897,116.55308 L 117.18749,116.55308 z M 114.00221,122.43863 C 114.30011,121.26329 114.87719,120.73052 115.73297,120.84624 C 116.56412,120.15541 117.39479,119.8324 118.22594,119.87869 C 118.7336,120.43263 118.96453,121.07667 118.91824,121.81526 C 118.06444,122.50806 117.21014,122.92314 116.35633,122.50806 C 114.53301,123.71786 114.34836,123.44064 114.00221,122.43863 z M 114.21,124.72578 C 114.87719,124.1487 115.24648,123.66567 116.28691,123.8252 C 116.95459,123.30819 118.03933,123.37713 118.71045,123.41012 C 119.17429,124.17184 119.61251,124.46974 118.77988,125.41809 C 118.31999,125.53331 117.72026,125.92574 116.70248,125.48751 C 114.67137,125.78541 113.84071,125.53134 114.21,124.72578 z M 115.38681,127.28769 C 115.63892,126.71061 116.46958,126.41025 117.46421,126.94351 C 118.03933,126.55108 118.61641,126.52991 119.19546,126.87409 C 119.4259,127.49745 119.5165,127.8436 119.19546,128.46648 C 118.48002,128.60533 117.53364,128.88206 117.18749,128.46648 C 116.01018,128.81115 115.45624,128.42069 115.38681,127.28966 L 115.38681,127.28769 z M 51.955037,250.88916 C 51.083997,252.97985 49.281354,254.60917 46.550061,255.77073 C 45.504222,255.94405 44.457399,256.11885 43.411561,256.29414 C 42.714827,259.14065 45.09603,261.11809 48.991335,258.55963 C 51.137668,259.08107 52.243578,259.36961 54.919231,259.08304 C 58.288662,257.63098 63.928016,257.7462 66.253579,255.42064 C 62.824076,252.28164 57.244301,251.23531 51.953067,250.88719"
     style="fill:#eeeeee;fill-rule:evenodd"
     id="Skin" />
  <path
     d="M 89.240361,198.4899 C 93.738963,190.1562 89.120951,191.14723 84.054498,207.73404 C 79.098091,218.6282 75.868498,229.95516 72.785638,241.31856 C 72.36809,245.5093 73.343517,245.28427 75.714872,240.64349 C 78.49048,229.97436 81.471415,219.30523 85.182074,208.6361 M 98.70707,198.93994 C 100.4132,212.08826 99.81363,203.02325 99.973884,210.46853 C 100.13414,217.91381 105.065,245.19589 104.51513,252.64194 C 99.590296,257.00783 81.028618,251.29807 75.387925,254.91495 C 67.194046,252.16642 59.0563,249.4046 52.724644,248.98312 C 53.251502,238.35239 52.937849,227.51044 51.608886,216.41588 L 51.612825,216.41441 C 55.490404,215.37152 61.148962,210.5131 68.282722,202.49254 C 66.195969,209.22648 63.876315,215.72949 61.321791,221.9996 C 61.718166,223.24633 62.348918,223.3325 63.212572,222.25564 C 66.228467,215.26763 68.550091,208.27814 70.171534,201.28865 C 77.871052,191.58116 83.654677,181.39457 89.467353,171.21636 C 88.941972,175.57254 88.415113,179.93119 87.890224,184.28934 C 88.107369,185.91669 88.557414,185.91669 89.24233,184.28934 C 89.767219,179.93316 90.292108,174.00526 90.819458,169.64662 C 93.092828,165.74048 94.671926,163.4031 95.552813,159.49499 C 95.862527,172.64331 97.000935,185.79162 98.70707,198.93994 z M 81.581218,231.17432 C 81.431039,237.56014 81.281352,243.94596 81.131173,250.33325 C 81.656062,250.1102 82.181443,249.88321 82.708301,249.65818 C 82.933324,243.49739 83.158347,237.33708 83.38337,231.17629 C 82.783145,231.17629 82.183413,231.17629 81.581218,231.17629 L 81.581218,231.17432 z M 73.91666,221.70761 C 73.016077,221.70761 72.114017,221.70761 71.211956,221.70761 C 69.634828,230.64746 68.0577,239.58928 66.478602,248.5311 C 67.078826,248.5311 67.681021,248.5311 68.280753,248.5311 C 70.15824,239.59125 72.037204,230.64943 73.914691,221.70761 L 73.91666,221.70761 z M 161.2294,255.39749 C 166.41477,230.1339 177.07454,211.51708 190.22286,195.91863 C 190.53996,209.45544 192.81333,223.88102 199.3897,240.26041 C 190.84377,247.33656 182.44456,251.65089 174.1586,253.77605 C 169.81916,254.88787 166.78997,253.05716 161.23137,255.39405 L 161.2294,255.39749 z M 182.97536,225.76589 C 180.22289,234.64617 178.62459,242.60714 178.71322,249.21602 C 177.86089,250.63706 177.00906,250.63558 176.15673,249.21602 C 176.79536,241.39931 178.50149,233.5826 180.84626,225.76589 C 182.125,223.20743 182.83503,223.20743 182.97733,225.76589 L 182.97536,225.76589 z M 178.07065,100.19634 C 173.37176,107.55906 169.05546,114.57564 163.78737,120.23469 C 167.73044,121.93836 172.06594,122.08115 176.57821,121.51343 C 177.64375,114.40872 178.14008,107.30154 178.06868,100.19437 L 178.07065,100.19634 z M 175.93958,123.43523 L 162.08321,123.0098 C 160.87537,124.35846 160.30814,125.7086 160.37904,127.05873 C 165.28178,127.98197 170.18452,128.33796 175.08922,128.12427 L 175.94155,123.43523 L 175.93958,123.43523 z M 174.23345,130.25731 L 173.59482,134.73314 C 168.47887,134.73314 163.07981,133.88081 157.39417,132.17517 C 157.53253,130.25337 157.67286,128.83036 159.52524,129.19177 C 164.35658,130.471 169.40162,130.68224 174.23542,130.25731 L 174.23345,130.25731 z M 155.04743,133.88081 C 160.71387,135.97741 166.78997,137.25467 173.59482,137.07791 C 170.25591,144.35988 165.5649,150.96875 159.95214,157.11576 C 157.7866,149.10456 156.08047,141.32281 155.0494,133.87884 L 155.04743,133.88081 z M 170.82315,108.51135 C 164.23348,115.40285 158.79601,123.21956 155.0494,132.3864 C 153.61064,122.81186 154.71261,113.46579 159.52524,104.46045 C 160.73307,105.88001 162.1546,107.94214 163.78737,108.72308 C 166.41674,109.78664 168.76151,109.71721 170.82118,108.51135 L 170.82315,108.51135 z M 164.6397,98.703905 C 166.57234,102.71985 170.33076,105.20297 173.16594,104.67218 C 169.04611,109.93091 165.06464,108.86341 160.3751,102.75481 C 161.22743,101.12154 162.64897,99.771409 164.63773,98.703905 L 164.6397,98.703905 z M 154.62053,96.572837 C 155.04152,93.164506 155.89582,90.321933 158.03083,86.340459 C 160.33867,86.907694 163.89127,86.057335 168.47691,83.783965 C 167.98057,87.194265 166.91307,90.889167 165.27981,94.868672 C 163.22014,96.290204 158.38831,96.216838 154.6225,96.572837 L 154.62053,96.572837 z M 58.479218,126.50873 C 65.301787,129.02239 74.035819,129.53004 81.05436,127.67816 C 73.841324,127.074 66.822783,126.56831 60.233607,124.40425 L 58.479218,126.50873 z M 53.799533,130.01899 C 59.334993,133.18457 67.405774,132.3864 75.437656,130.2514 C 68.388586,129.60932 61.039158,129.37642 57.425008,126.86079 L 53.799533,130.01702 L 53.799533,130.01899 z M 59.414268,106.85741 C 58.683067,111.9832 59.987411,115.99914 62.687683,119.25532 C 60.037143,122.68482 56.761758,125.64902 52.863006,128.14347 C 50.835832,122.14073 50.524149,116.13553 50.991428,110.13082 C 53.797564,109.50746 56.60567,108.4173 59.412299,106.85741 L 59.414268,106.85741 z M 61.754602,103.93359 C 59.571833,107.013 60.041082,111.49622 63.156932,117.38374 L 68.888856,111.7695 L 61.754602,103.93359 z M 77.663263,68.723694 C 77.157578,71.724325 76.026556,74.259154 74.272166,76.327196 L 71.231652,79.483422 C 73.062362,83.53777 74.895533,82.874519 78.599791,78.198282 L 82.693037,71.999572 C 81.017431,69.971905 79.340347,68.881752 77.663263,68.725664 L 77.663263,68.723694 z M 58.829308,68.841376 C 56.925232,77.719678 58.511715,82.456972 65.02851,79.485392 C 62.806842,76.444385 61.987503,73.870657 62.573941,71.766671 C 61.483787,70.012281 60.235084,69.037347 58.831277,68.842853 L 58.829308,68.841376 z M 50.876208,107.67675 C 50.01994,95.717061 52.356828,84.157198 56.488481,72.81891 C 56.098015,78.823618 57.461938,82.683964 62.687683,81.824249 L 69.002106,80.06986 C 66.624842,81.608582 65.103354,85.936206 63.972332,91.531738 C 64.243639,92.193019 64.672512,92.387513 65.259442,92.116206 C 65.647938,88.763515 66.661279,86.034192 68.299956,83.928236 L 69.000136,90.829588 C 67.928693,98.363663 66.096014,102.98328 63.152993,103.34518 L 61.983564,102.645 C 57.033065,107.28431 53.328315,108.95942 50.872269,107.67478 L 50.876208,107.67675 z M 61.637413,123.81782 C 65.262888,117.15133 70.175473,111.7695 75.674496,106.9746 C 76.959144,106.00114 76.374676,102.80257 76.726736,100.77539 C 77.115232,100.93099 77.661294,100.93099 78.363443,100.77539 C 79.180812,101.16389 80.155747,101.24267 81.286769,101.00829 C 82.339008,100.50212 82.844694,99.605965 83.274059,98.786627 C 82.88507,97.75753 82.573879,97.428612 81.873699,97.332596 C 81.804272,96.118852 81.419714,95.061196 80.725443,94.157167 C 80.755971,93.362447 80.477278,92.568221 79.884932,91.772025 C 81.127234,91.258461 82.060315,90.744897 82.679743,90.231333 C 83.812242,90.159936 84.791608,89.621753 85.614393,88.615798 C 86.393356,86.784596 85.847294,85.418703 84.797024,84.989831 L 76.057084,87.059843 L 70.761911,90.486884 C 69.788946,87.719154 69.436887,84.795829 69.710164,81.714446 C 71.190784,82.883875 72.86639,83.859301 74.972346,84.405363 C 78.128573,80.818294 81.171549,75.711707 84.444965,73.643665 L 97.54552,82.416596 C 99.649506,85.398023 100.78053,89.257876 99.767188,95.047409 C 99.417098,98.361693 98.597759,101.3638 97.310649,104.05472 C 98.907473,103.43184 99.882407,101.24858 100.23447,97.505425 L 101.75399,108.03225 C 93.483294,117.77421 86.670572,124.49091 82.454228,125.81052 C 85.720257,116.44328 89.288122,106.28771 92.863866,97.855515 C 91.617624,98.828972 91.07107,97.388236 90.877068,95.399469 C 90.565385,96.801799 90.213325,98.244012 90.526978,99.959994 C 90.021293,101.40221 89.630827,102.84491 89.124649,104.28762 C 87.417037,103.96067 86.541565,101.96993 85.499174,100.31205 C 86.003382,102.68932 86.585881,104.40678 88.6554,106.1592 L 87.603653,108.26318 C 86.551413,108.03028 85.966453,105.80714 85.147114,104.87209 C 85.243623,107.05535 85.634089,109.04412 86.666633,110.60401 C 84.191383,115.65299 82.358211,120.91517 80.81949,126.2778 L 76.726736,126.0449 C 77.515054,122.59422 78.938556,119.90577 81.286769,118.32667 C 78.166979,118.57828 76.33627,121.61929 75.088058,125.92968 L 71.814151,125.34472 C 72.710302,121.75962 75.088058,118.13218 78.480632,115.16798 C 75.010753,116.67815 72.047052,119.89592 69.825383,125.46043 L 61.637413,123.82372"
     style="fill:#d40000;fill-rule:evenodd"
     id="Clothes" />
  <path
     d="M 71.96236,14.701016 C 88.534272,14.701016 102.05188,28.217149 102.05188,44.79103 C 102.05188,56.861995 94.877745,67.312009 84.575941,72.097557 C 80.813581,68.858609 80.477278,67.725618 80.630904,66.896431 C 82.379384,67.356324 83.677819,66.319349 84.526209,63.780581 C 85.024016,61.380175 85.3357,58.977799 84.331715,56.575423 C 86.18212,58.274172 88.109338,59.709 90.563415,59.3013 C 91.069593,56.821619 90.955851,54.754069 90.563415,52.875105 C 91.036603,52.979 91.361581,52.786475 91.536872,52.292114 C 96.166332,45.269634 92.144483,44.356298 90.75791,41.58064 C 88.555445,33.069662 84.772405,25.987602 69.91943,28.920775 C 67.867144,29.624894 66.270813,32.071585 63.984149,32.550189 C 61.810735,33.006143 59.671789,33.558114 57.261535,37.09939 C 56.771113,39.045811 56.336824,40.992233 54.926616,42.940673 C 53.278584,42.617616 52.455306,43.321242 52.00723,44.49658 C 52.397696,45.631541 52.941788,46.689197 54.53812,47.221964 C 53.882255,48.86458 54.501683,49.006881 56.844479,50.351601 C 56.413637,51.032578 56.394434,51.797754 56.742555,52.605767 C 53.678405,52.413242 54.990135,53.973137 56.961668,55.719648 C 56.49045,57.310563 57.15961,58.681872 58.071518,59.87789 C 55.742016,62.145843 52.988073,65.028792 50.358705,66.69849 C 45.115233,61.27825 41.878255,52.892339 41.878255,44.785121 C 41.878255,28.213209 55.393896,14.695599 71.968269,14.695599 L 71.96236,14.701016 z "
     style="fill:#eeeeee"
     id="Nimbus-1" />
  <path
     d="M 135.46898,70.474144 C 136.99441,69.225933 138.51984,68.577454 140.04477,68.527723 C 138.50802,66.390746 138.20815,64.253769 138.47158,62.114822 C 135.84812,59.939439 135.02091,56.566068 135.9983,51.990278 C 133.88988,48.693721 132.4974,45.245014 136.10958,40.740129 C 136.85802,40.776566 136.93483,40.178803 137.68474,38.716943 C 138.04074,34.217918 138.32731,29.221134 150.62182,30.842577 C 153.39546,28.894186 157.40746,27.76858 161.98325,27.018669 C 166.19566,30.026685 170.46567,33.217872 176.49746,41.982924 C 177.04746,46.275588 177.46501,50.32255 175.59885,50.082263 C 176.76089,50.869104 177.17253,52.407826 176.83573,54.69449 C 177.73386,56.042656 177.58417,56.942747 176.38766,57.393285 C 178.81121,61.055197 180.9211,64.661468 173.35059,66.505965 C 172.99459,67.367649 173.66818,68.606505 176.61268,70.668146 C 177.76488,71.574146 178.91707,71.582024 180.07074,70.689319 C 186.11632,64.861379 189.88804,56.687196 189.88804,47.660684 C 189.88804,30.030625 175.51071,15.65133 157.87868,15.65133 C 140.24862,15.65133 125.86933,30.028655 125.86933,47.660684 C 125.86933,56.577393 129.54896,64.663438 135.46898,70.478083"
     style="fill:#eeeeee"
     id="Nimbus-2" />
  <path
     d="M 147.92155,70.235827 C 147.35382,65.407933 149.62375,57.760609 154.03754,56.55819 C 156.84023,56.162307 159.58679,56.190866 161.00438,56.896955 C 163.22408,58.416473 164.76625,60.433799 165.86871,64.450233 C 167.04011,68.723694 167.27843,73.701767 167.0342,75.417257 C 165.70524,75.247875 164.71258,74.398008 164.06262,72.868642 C 163.62784,70.895138 164.13746,68.310086 163.58549,65.311917 C 162.83903,61.27825 160.90245,59.160476 156.24788,59.360879 C 150.18704,59.930083 150.29291,65.756054 149.96399,71.112775 C 149.6464,71.822311 148.2677,69.96058 147.92303,70.235827 L 147.92155,70.235827 z M 153.95482,62.247768 C 155.27049,61.243783 156.79985,60.591857 158.79601,60.718401 C 161.15997,61.326504 162.74695,62.997679 162.61794,67.004265 C 162.02363,68.379513 161.16588,69.568145 161.85425,72.016805 C 160.69467,71.734173 159.67542,71.026115 158.96736,69.383498 C 158.65764,67.118007 160.63706,66.636941 160.0713,64.627001 C 158.71328,61.257077 157.01306,61.399378 156.50343,64.54231 C 154.97456,64.346338 154.12617,63.58067 153.95482,62.249737 L 153.95482,62.247768 z M 156.58812,65.730942 C 155.99381,67.727587 155.71118,69.879828 155.56887,72.103466 C 156.50146,72.895723 157.43651,72.555481 158.37107,71.083724 C 156.72846,70.291467 160.608,62.192128 156.58812,65.732911 L 156.58812,65.730942 z M 150.9793,67.687211 C 150.51202,70.985738 151.75678,72.883906 153.78199,74.143934 C 154.234,73.351677 154.234,71.993663 153.78199,70.066444 C 153.27236,68.629648 152.98776,67.435107 153.38758,66.358248 C 152.43924,63.820957 154.20101,61.053227 154.10303,60.87055 C 153.90509,60.501257 151.9759,62.816972 151.43131,65.175032 C 151.23731,65.662007 151.07975,66.983092 150.98127,67.689181 L 150.9793,67.687211 z M 141.54903,39.307271 C 136.90381,39.801681 135.17699,44.898863 136.45229,49.331859 C 136.79056,50.407241 137.47154,50.803616 138.49079,50.520984 C 137.89647,46.245109 138.77342,43.667886 141.12409,42.790445 C 138.90242,47.689735 138.30614,51.740144 141.29348,53.919466 C 140.78336,56.098789 140.72772,58.279589 141.12409,60.460881 C 138.86008,63.122747 138.88716,65.359679 141.37767,68.021545 C 141.88779,68.587302 142.51067,68.927544 143.24728,69.041286 C 141.40672,65.50198 141.0394,63.094188 142.14334,61.818895 C 145.00364,63.17691 140.38945,67.594642 148.42921,73.034085 C 146.53252,69.339183 146.81515,65.486716 148.09044,61.564821 C 147.1421,60.051212 145.41528,59.002911 143.33394,58.166339 C 141.29495,52.305409 142.73963,38.795677 141.551,39.305302 L 141.54903,39.307271 z M 137.38684,51.116777 C 137.54047,53.692474 137.68326,55.50595 137.38684,56.723633 C 137.07516,58.408595 138.31993,59.314595 140.27373,59.866565 C 139.73703,58.733573 139.65283,57.262309 140.02015,55.44834 C 139.52579,53.111453 138.56218,51.867181 137.38684,51.1153 L 137.38684,51.116777 z M 140.18904,36.249031 C 142.42597,34.239091 144.54966,33.2484 146.56157,33.275481 L 142.48408,37.352971 C 146.02289,37.749346 148.54442,36.108748 150.04474,32.425614 C 147.83686,31.207981 144.31085,31.933223 143.24925,32.340923 C 141.09701,33.415813 140.07776,34.718187 140.19101,36.249031 L 140.18904,36.249031 z M 150.64103,33.869797 C 151.40472,31.944548 152.73566,30.444233 155.31283,29.876999 C 155.33991,30.640205 154.68996,31.575255 155.39752,32.16962 C 156.84023,29.96169 158.96539,28.773058 161.76955,28.601706 C 167.73438,32.594505 169.79996,36.587796 170.77539,40.580594 C 168.02834,37.720295 163.75291,30.526955 162.53522,32.000189 C 162.35452,33.13318 164.47771,34.669933 167.03026,38.624325 C 168.36513,40.695814 168.88264,44.196714 171.11563,47.122009 C 166.95936,45.86395 167.10166,41.911527 165.16459,38.391916 C 163.65837,35.654715 161.78531,34.470071 158.20366,33.104129 C 156.70334,34.462144 159.87336,35.822128 159.81772,37.947287 C 157.44045,38.188066 155.59743,37.083633 154.12617,35.060399 C 154.07053,35.683766 153.67415,36.135781 153.95679,36.928038 C 152.5126,36.589765 151.40866,35.570023 150.64496,33.869797 L 150.64103,33.869797 z M 168.22874,48.568653 C 167.23805,49.530293 168.36907,52.701783 168.6517,54.769333 C 169.86939,54.967767 170.83103,53.694444 170.69069,50.947887 C 170.09638,49.47613 169.27507,48.683873 168.22677,48.570623 L 168.22874,48.568653 z M 172.47758,41.942548 C 170.41151,44.717663 174.2044,47.493271 173.41017,54.855994 C 174.55646,55.306039 175.6604,56.950625 175.78743,56.979676 C 175.70274,56.046596 175.39155,55.225287 174.85485,54.515752 C 173.55247,48.739513 175.19312,46.614403 174.77015,42.792415 L 172.47758,41.944517 L 172.47758,41.942548 z M 171.71191,53.752053 C 169.64633,56.950625 171.65627,58.112176 171.62722,60.293468 C 170.52328,61.680533 169.87333,63.407349 169.67489,65.475391 C 171.51397,65.208022 173.29889,63.480715 174.68743,60.718401 C 174.97007,57.887153 172.36581,56.925513 171.71585,53.752053 L 171.71191,53.752053 z M 166.10309,55.791045 C 167.64575,57.856625 168.26912,61.4821 167.80134,63.097635 C 169.18841,62.928745 169.89598,61.399378 169.92503,59.189527 C 169.38832,57.519829 167.49015,53.215347 166.10309,55.793014 L 166.10309,55.791045 z M 61.32376,35.922083 C 59.389156,35.710355 58.250256,37.85718 57.984857,43.79443 C 57.794302,45.290806 57.392511,46.047119 56.778991,46.060463 C 55.272767,46.443001 54.934495,47.252985 55.761712,48.485932 C 58.41176,50.128548 60.321745,49.333829 61.487234,46.10079 C 61.566509,45.552759 61.533519,45.108129 61.550753,44.740806 C 61.412391,43.544788 58.167534,46.416412 57.806119,46.00822 C 57.921339,45.123886 61.475909,43.900294 60.858451,43.176972 C 60.404466,42.830821 59.956391,42.534894 59.816059,41.967167 C 59.746632,40.976969 59.935218,39.880414 60.283338,38.720833 C 60.552676,37.820743 62.268166,37.993572 61.32573,35.924102 L 61.32376,35.922083 z M 89.718965,42.363542 C 89.515115,47.525769 87.937986,45.762025 87.25504,47.054551 C 88.421022,49.545557 89.480647,51.082309 90.436378,51.66727 C 90.594436,49.838037 91.176934,48.433738 92.184859,47.452895 C 91.840677,45.279531 89.905581,40.640174 89.720934,42.363542 L 89.718965,42.363542 z M 86.616901,49.999542 C 87.782391,50.845962 88.630288,52.013421 89.161578,53.49798 C 89.638212,55.114007 89.584542,56.625647 89.00352,58.029946 C 87.732167,57.55282 86.247608,56.439031 84.550829,54.690551 C 84.603022,52.915481 85.293354,52.305409 86.618871,52.861318 L 86.618871,49.999542 L 86.616901,49.999542 z M 71.983533,56.283436 C 72.77776,58.296822 74.314512,59.993602 76.59576,61.372789 C 77.761249,62.484115 77.73466,60.81688 77.468769,60.180218 C 75.734075,57.489301 73.929955,55.793014 71.981564,56.285405 L 71.983533,56.283436 z M 70.073548,57.077662 C 68.35215,55.329182 64.401204,58.985677 61.56454,59.939439 C 62.385848,57.69906 64.507068,55.500534 66.813428,55.010112 C 69.303941,55.115977 70.471893,55.167678 70.073548,57.077662 z M 71.585189,58.350985 C 72.300633,59.781874 73.439533,61.001526 75.005337,62.009451 C 73.606946,61.728295 72.843248,62.080355 72.716211,63.071046 C 72.633489,65.180941 73.978209,64.42906 74.610932,65.107575 C 75.103323,66.34643 75.276152,67.267694 75.131881,67.869888 C 75.743923,68.558251 76.145714,69.462281 76.3343,70.578039 C 75.254979,70.289498 74.387878,69.681887 73.732014,68.756684 C 74.043205,69.572084 74.14513,70.389453 74.035819,71.206822 C 73.023955,70.429829 72.22382,69.545002 71.635413,68.556281 C 70.369968,66.173601 70.375384,64.638326 71.650677,63.951933 C 70.754525,61.582055 69.487111,62.630356 69.19857,64.95001 C 68.715534,67.692627 70.184829,70.421951 72.45869,72.743574 C 69.886932,72.732249 67.582542,71.724325 65.857204,68.529692 C 65.84391,65.785105 66.45349,63.667331 67.925247,62.407302 L 66.813428,61.691858 C 64.455367,64.196159 63.474524,67.217963 64.507068,70.997063 C 63.528195,71.685918 62.547352,70.785828 61.566509,68.294822 C 61.47394,65.44634 62.639429,63.351708 64.666603,61.77458 L 61.168165,64.159722 C 60.560554,63.020822 60.904736,61.77458 62.201201,60.422474 C 66.495835,58.56616 69.623503,57.877798 71.585189,58.354925 L 71.585189,58.350985 z M 76.118633,62.64562 C 75.961068,64.421182 76.436225,66.196251 77.550013,67.973783 C 77.391956,65.00565 79.85588,66.171632 78.980902,64.474852 C 79.098091,62.911511 77.907489,62.513167 76.118633,62.64562 z M 60.529534,59.543556 C 61.17949,61.582055 58.598376,61.582055 60.652631,64.075031 C 61.002721,65.623108 59.448735,63.844099 58.846541,62.967151 C 58.933202,64.39607 59.55066,65.29616 60.696947,65.667423 C 61.248917,66.302115 61.272059,67.150505 60.766374,68.2121 C 58.35415,67.127363 57.426978,65.190296 57.982887,62.407302 C 58.406344,60.818849 59.254241,59.862626 60.527564,59.545526 L 60.529534,59.543556 z M 60.052407,48.726219 C 59.483203,51.824835 58.007999,49.943901 57.940542,51.501827 C 57.850434,53.659484 59.877608,51.703707 58.619549,57.394762 C 60.050437,57.2564 61.481818,56.660115 62.914676,55.24843 C 60.794932,54.028777 59.841171,51.855363 60.052407,48.728188 L 60.052407,48.726219 z M 56.632751,41.569315 C 56.29054,43.436954 55.811443,44.975676 55.043806,45.783197 C 55.068917,46.312518 56.129035,45.889062 56.792286,45.466098 C 57.454059,44.246445 57.321606,40.323074 56.634721,41.569315 L 56.632751,41.569315 z "
     style="fill:#003d8f;fill-rule:evenodd"
     id="Hair" />
  <path
     d="M 249.55062,1.4395041 L 125.50012,1.4395041 L 1.449569,1.4395041 L 1.449569,174.9361 C 0.68232904,268.65698 81.739009,302.75585 125.5001,302.75585 C 168.49395,302.75585 250.31785,268.65698 249.55062,174.9361 L 249.55062,1.4395041 z "
     style="fill:none;fill-opacity:0;stroke:#000000;stroke-width:1.88832211;stroke-linecap:round"
     id="Frame" />
</svg>
