<?xml version="1.0" encoding="UTF-8" standalone="no"?>
<!-- Created with Inkscape (http://www.inkscape.org/) -->
<svg
   xmlns:dc="http://purl.org/dc/elements/1.1/"
   xmlns:cc="http://web.resource.org/cc/"
   xmlns:rdf="http://www.w3.org/1999/02/22-rdf-syntax-ns#"
   xmlns:svg="http://www.w3.org/2000/svg"
   xmlns="http://www.w3.org/2000/svg"
   xmlns:xlink="http://www.w3.org/1999/xlink"
   version="1.0"
   width="251"
   height="304.20001"
   id="svg4166">
  <defs
     id="defs4168" />
  <metadata
     id="metadata1880"><rdf:RDF><cc:Work
         rdf:about=""><dc:title>Trosa kommunvapen</dc:title><dc:date>10-10-2007</dc:date><dc:creator><cc:Agent><dc:title>Lokal_Profil</dc:title></cc:Agent></dc:creator><cc:license
         rdf:resource="http://creativecommons.org/licenses/by-sa/2.5/" /><dc:rights><cc:Agent><dc:title>cc-by-sa-2.5</dc:title></cc:Agent></dc:rights><dc:format>image/svg+xml</dc:format><dc:type
         rdf:resource="http://purl.org/dc/dcmitype/StillImage" /></cc:Work><cc:License
         rdf:about="http://creativecommons.org/licenses/by-sa/2.5/"><cc:permits
         rdf:resource="http://web.resource.org/cc/Reproduction" /><cc:permits
         rdf:resource="http://web.resource.org/cc/Distribution" /><cc:requires
         rdf:resource="http://web.resource.org/cc/Notice" /><cc:requires
         rdf:resource="http://web.resource.org/cc/Attribution" /><cc:permits
         rdf:resource="http://web.resource.org/cc/DerivativeWorks" /><cc:requires
         rdf:resource="http://web.resource.org/cc/ShareAlike" /></cc:License></rdf:RDF>
  </metadata>
  <path
     d="M 249.55058,1.4395041 L 1.4495291,1.4395041 L 1.4495291,174.9361 C 0.68228908,268.65698 81.738969,302.75585 125.50006,302.75585 C 168.49391,302.75585 250.31781,268.65698 249.55058,174.9361 L 249.55058,1.4395041 z "
     style="color:#000000;fill:#003d8f;fill-opacity:1;stroke:none"
     id="Shield" />
  <g
     id="Boat-and-oars">
    <path
       d="M 77.387668,190.60331 C 77.387668,190.60331 76.436436,184.30141 77.506571,182.75566 C 78.576707,181.2099 82.857248,181.92333 83.689575,182.87456 C 84.521902,183.82579 83.927382,192.50577 83.927382,192.50577 L 77.387668,190.60331 z "
       style="fill:#ffcd50;fill-opacity:1;fill-rule:evenodd;stroke:none;stroke-width:1px;stroke-linecap:butt;stroke-linejoin:miter;stroke-opacity:1"
       id="path2176" />
    <path
       d="M 152.65384,193.3381 C 152.65384,193.3381 151.70261,187.0362 152.77274,185.49044 C 153.84288,183.94469 158.12342,184.65812 158.95575,185.60934 C 159.78807,186.56058 159.19356,195.24056 159.19356,195.24056 L 152.65384,193.3381 z "
       style="fill:#ffcd50;fill-opacity:1;fill-rule:evenodd;stroke:none;stroke-width:1px;stroke-linecap:butt;stroke-linejoin:miter;stroke-opacity:1"
       id="path2180" />
    <path
       d="M 24.23762,166.70362 C 26.615698,185.72825 32.006482,212.14594 39.457321,219.73477 C 45.878132,226.27448 55.388641,230.91174 59.314273,230.91174 C 71.204664,230.91174 171.08395,230.91174 171.08395,230.91174 C 178.21819,231.26845 190.30491,217.86731 197.48061,207.24986 C 204.61928,196.68724 205.94187,189.68113 209.72772,178.59401 C 209.72772,178.59401 181.75991,192.62468 124.1169,192.86248 C 66.592201,193.0998 52.774557,181.44771 40.884167,176.69155 L 40.884167,171.45978 L 24.23762,166.70362 z "
       style="fill:#ffcd50;fill-opacity:1;fill-rule:evenodd;stroke:#003d8f;stroke-width:0.47524577;stroke-linecap:butt;stroke-linejoin:miter;stroke-miterlimit:4;stroke-dasharray:none;stroke-opacity:1"
       id="path2164" />
    <path
       d="M 33.967589,189.87584 C 33.967589,189.87584 64.908202,207.70033 123.76264,208.20479 C 182.61705,208.70927 202.29128,185.5038 202.29128,185.5038 C 202.29128,185.5038 184.80308,215.43549 180.09473,219.80752 C 175.38637,224.17957 162.60656,225.69297 162.60656,225.69297 C 162.60656,225.69297 72.4752,226.02929 67.766847,226.02929 C 63.05849,226.02929 59.022758,226.70191 47.083718,219.30306 C 35.144676,211.90422 31.69749,174.44758 31.69749,174.44758 L 40.98808,176.75971"
       style="fill:none;fill-opacity:0.75;fill-rule:evenodd;stroke:#003d8f;stroke-width:0.9512313;stroke-linecap:butt;stroke-linejoin:miter;stroke-miterlimit:4;stroke-dasharray:none;stroke-opacity:1"
       id="path3132" />
    <path
       d="M 38.003321,205.34615 C 38.003321,205.34615 72.643358,223.00249 120.23136,222.49802 C 167.81938,221.99355 186.14832,211.06345 186.14832,211.06345"
       style="fill:none;fill-opacity:0.75;fill-rule:evenodd;stroke:#003d8f;stroke-width:0.9512313;stroke-linecap:butt;stroke-linejoin:miter;stroke-miterlimit:4;stroke-dasharray:none;stroke-opacity:1"
       id="path3134" />
    <path
       d="M 136.14399,264.41908 L 115.71358,235.24144 C 113.50934,232.09344 110.14354,230.48417 107.35317,230.97677 C 107.30071,230.89223 107.24729,230.80646 107.18901,230.72322 L 64.650012,169.97122 C 63.564679,168.42118 61.889489,167.73608 60.893074,168.43378 C 59.896644,169.13149 59.967484,170.93998 61.052824,172.48999 L 103.59183,233.24199 C 103.65012,233.32523 103.71246,233.40476 103.77395,233.48294 C 102.35669,235.93658 102.71775,239.6498 104.92201,242.79778 L 125.35241,271.97543 L 136.14399,264.41908 z "
       style="fill:#ffcd50;fill-opacity:1;stroke:#003d8f;stroke-width:0.69778371;stroke-miterlimit:10;stroke-dasharray:none;stroke-opacity:1"
       id="Oar" />
    <path
       d="M 66.882577,179.71004 C 65.929488,179.7609 65.056164,180.03438 64.654862,180.61404 C 63.982168,181.58571 64.145597,184.34491 64.332005,186.32861 C 66.447837,186.95965 68.705362,187.55472 71.208863,188.13661 C 71.326767,185.5014 71.419434,181.38971 70.85372,180.74318 C 70.333516,180.14867 68.471059,179.62527 66.882577,179.71004 z "
       style="fill:#ffcd50;fill-opacity:1;fill-rule:evenodd;stroke:#003d8f;stroke-width:0.47524577;stroke-linecap:butt;stroke-linejoin:miter;stroke-miterlimit:4;stroke-dasharray:none;stroke-opacity:1"
       id="path2174" />
    <use
       transform="translate(73.61999,0)"
       id="use2943"
       x="0"
       y="0"
       width="251"
       height="304.20001"
       xlink:href="#Oar" />
    <path
       d="M 142.98002,184.94032 C 142.02693,184.99118 141.1536,185.26467 140.7523,185.84432 C 139.98319,186.95527 140.27845,190.47911 140.49402,192.39832 C 142.83744,192.27532 145.11609,192.14423 147.33859,191.97861 C 147.41595,189.45898 147.42369,186.51351 146.95116,185.97347 C 146.43095,185.37895 144.56849,184.85556 142.98002,184.94032 z "
       style="fill:#ffcd50;fill-opacity:1;fill-rule:evenodd;stroke:#003d8f;stroke-width:0.47524577;stroke-linecap:butt;stroke-linejoin:miter;stroke-miterlimit:4;stroke-dasharray:none;stroke-opacity:1"
       id="path2178" />
  </g>
  <g
     id="Bildad-moon">
    <path
       d="M 116.10867,160.98779 C 107.03626,160.64736 95.893293,158.16935 88.377356,154.82082 C 80.037488,151.1052 73.777336,147.30059 67.165813,141.92953 C 62.176872,137.87659 62.187843,137.88684 62.820097,137.87349 C 63.12388,137.86708 63.707698,137.99306 64.117468,138.15347 C 66.338361,139.02289 75.923592,141.46976 80.593129,142.35932 C 91.681498,144.47167 101.96307,144.38276 110.8555,142.09765 C 118.55973,140.11786 127.38593,135.63397 133.13667,130.77835 C 137.58658,127.0211 142.0951,121.9214 144.01933,118.46871 L 144.97519,116.75357 L 144.26404,116.19897 C 143.87291,115.89394 143.38382,114.96141 143.1772,114.12668 C 142.7011,112.20335 143.1376,110.73767 144.6505,109.17981 C 145.52815,108.27608 145.65357,107.99179 145.30296,107.70081 C 144.23985,106.81851 143.4857,104.43545 143.58252,102.26438 L 143.67782,100.12761 L 145.04399,99.673404 C 148.44745,98.541859 148.91541,93.261264 145.75696,91.627971 C 145.25878,91.370356 143.34657,90.786262 141.50758,90.329987 C 136.34939,89.050168 135.27898,88.632946 134.14067,87.458514 C 132.64873,85.919224 132.48451,84.308809 133.57629,81.924057 C 134.22792,80.500718 135.48616,79.01588 139.16906,75.324146 C 141.78265,72.704272 144.4221,69.778429 145.03452,68.822261 C 148.00504,64.184336 148.39529,59.571876 145.91288,58.44081 C 144.58183,57.834343 140.81673,55.231578 139.4961,54.004969 L 138.23347,52.832231 L 138.4246,50.123956 C 138.60764,47.530249 138.57872,47.369899 137.74116,46.333404 C 134.28418,42.055285 125.78441,36.317621 118.33664,33.234612 C 111.79871,30.52823 103.68115,28.876046 96.985917,28.889054 C 87.200399,28.908063 72.522501,32.199158 60.64604,37.03721 C 59.397322,37.545896 58.229687,37.960315 58.051298,37.958139 C 57.703338,37.953896 59.090669,36.659595 63.280397,33.079695 C 64.729295,31.841693 66.0615,30.828782 66.240853,30.828782 C 66.420213,30.828782 66.757725,30.598923 66.990874,30.317988 C 67.440947,29.775688 72.214619,26.5711 75.727983,24.452724 C 84.261792,19.307289 95.049398,15.191969 105.08102,13.254959 C 108.60584,12.574347 109.86075,12.504157 118.37908,12.511166 C 127.37196,12.518564 127.96789,12.557757 131.94932,13.403649 C 149.84248,17.205231 163.50381,25.405971 175.62768,39.623274 C 177.59937,41.935416 181.79418,47.694043 182.07761,48.477729 C 182.14764,48.67136 182.45781,49.194677 182.76688,49.64065 C 183.90035,51.276199 186.44672,56.380168 187.78313,59.695266 C 193.82924,74.693242 194.65815,92.266995 190.07065,108.19252 C 188.49535,113.66111 185.97738,119.56564 183.43823,123.74514 C 182.70905,124.94541 182.11244,125.98385 182.11244,126.0528 C 182.11244,126.3904 177.98719,131.8922 175.68993,134.6184 C 165.29081,146.95932 151.80903,155.27908 135.94928,159.14281 C 131.01818,160.34412 121.79972,161.20135 116.10867,160.98779 z "
       style="fill:#003d8f;fill-opacity:1"
       id="path4060" />
    <path
       d="M 131.51495,157.53024 C 139.36735,155.91556 147.46329,152.97762 153.4081,149.58541 C 154.47843,148.97467 155.64607,148.31253 156.00285,148.11401 C 157.54644,147.25511 162.00938,144.13026 163.94925,142.55015 C 169.90024,137.70271 176.03101,130.65339 179.97181,124.12695 C 185.03535,115.74118 188.13024,107.10626 189.92897,96.345979 C 191.0282,89.770202 190.97469,80.110627 189.8041,73.80417 C 188.37053,66.080842 186.78926,61.286529 183.38558,54.343619 C 181.08084,49.642352 180.75961,49.06108 178.81475,46.07288 C 174.19127,38.969072 165.73812,30.692505 157.62457,25.325337 C 154.59608,23.321979 147.83891,19.707043 145.38371,18.776752 C 137.54068,15.804977 134.15136,14.868663 128.32636,14.064586 C 123.5596,13.406588 114.38345,13.335194 109.45964,13.917795 C 102.47293,14.74449 94.400854,16.988496 88.079149,19.861495 C 83.480313,21.951507 78.694785,24.541916 75.908578,26.449424 C 74.816801,27.196885 73.782203,27.867713 73.609472,27.940156 C 73.049727,28.174911 68.919156,31.263608 69.02432,31.368773 C 69.080398,31.424851 70.5022,31.04298 72.183876,30.520169 C 83.964773,26.857646 97.276541,25.554943 105.89188,27.22147 C 115.04675,28.992364 125.67214,33.421086 131.23094,37.782936 C 131.69908,38.150279 132.50183,38.740917 133.01481,39.095466 C 134.5191,40.135132 139.32251,44.865477 139.77066,45.748541 C 139.997,46.194508 140.27816,47.636256 140.39549,48.952427 C 140.65976,51.916993 141.16077,52.577727 145.165,55.242567 C 146.76116,56.304823 148.35279,57.537116 148.70194,57.980997 C 150.15971,59.834256 149.87841,62.882429 147.86089,67.094363 C 146.43277,70.075819 146.25035,70.3034 140.72013,76.002817 C 136.29423,80.564135 135.08273,82.279429 135.08273,83.984497 C 135.08273,85.393524 136.21651,86.107314 140.55,87.426502 C 147.11324,89.424463 148.10387,89.906384 148.97279,91.524023 C 149.62673,92.74143 149.71462,93.282077 149.59847,95.372949 C 149.52033,96.779559 149.23155,98.250106 148.91374,98.859637 L 148.36413,99.913744 L 149.37653,99.913744 C 150.72776,99.913744 152.10369,100.76991 153.12811,102.24814 C 154.90985,104.8192 157.55554,106.07625 161.18501,106.07625 C 164.09547,106.07625 166.40129,105.29509 167.71111,103.86534 L 168.80118,102.67547 L 169.49043,103.36471 C 170.37364,104.24793 170.08626,105.42757 168.98785,105.42757 C 168.57213,105.42757 167.25479,106.02124 166.06043,106.74684 C 163.04061,108.58144 159.62688,109.87315 157.13804,110.12294 C 155.27815,110.3096 152.53225,110.10264 148.19613,109.44896 C 147.1032,109.28419 146.72303,109.38179 145.98502,110.0166 C 145.26161,110.63885 145.08261,111.08234 145.03448,112.37156 L 144.97519,113.95986 L 146.75908,114.38294 C 149.15028,114.95005 151.25033,114.93665 152.93141,114.34352 C 153.69521,114.07404 154.38075,113.91415 154.45482,113.98822 C 154.52889,114.06229 154.15326,114.61118 153.6201,115.20796 C 152.67442,116.26649 152.5875,116.29305 150.06821,116.29305 L 147.48571,116.29305 L 146.06828,118.55966 C 136.81687,133.35358 118.54785,144.16799 100.97992,145.24989 C 95.888632,145.56342 87.917577,145.22353 83.674383,144.51196 C 78.384069,143.62479 73.811542,142.77993 73.061054,142.55095 C 71.642602,142.11817 74.068063,144.26202 77.836212,146.77168 C 82.716649,150.02215 88.854345,153.04226 93.891195,154.6717 C 98.851466,156.27637 100.40753,156.69715 103.78365,157.34672 C 109.59431,158.46469 111.18056,158.5778 119.51428,158.46831 C 126.52454,158.37621 127.93829,158.2657 131.51495,157.53024 z "
       style="fill:#eeeeee;fill-opacity:1"
       id="path4058" />
    <path
       d="M 169.86818,111.9077 C 171.4567,109.65594 172.16204,107.81545 172.31183,105.53136 C 172.44989,103.42606 172.36909,103.00587 171.46984,101.15273 C 170.23925,98.616765 169.99306,98.338419 166.38181,95.399979 C 161.31498,91.277115 160.176,89.203194 161.02806,85.651436 C 161.5168,83.614145 162.00319,83.544875 162.00319,85.512573 C 162.00319,86.332957 162.25572,87.537079 162.56437,88.188396 C 163.21107,89.553065 165.79287,92.167099 167.66944,93.357185 C 169.35665,94.427197 172.26263,97.187851 172.82769,98.257491 C 173.07332,98.722462 173.54454,99.613728 173.87483,100.23809 C 174.76499,101.92073 174.70312,106.10085 173.76147,107.89791 C 172.8747,109.59024 171.64393,111.05589 170.32945,111.98491 L 169.3009,112.71184 L 169.86818,111.9077 z "
       style="fill:#003d8f;fill-opacity:1"
       id="path4056" />
    <path
       d="M 155.46599,89.053044 C 154.81395,88.813217 153.8886,88.360257 153.40967,88.046448 C 149.15474,85.258509 146.07878,84.335008 144.8255,85.4692 C 144.08734,86.137226 143.51565,85.882176 143.51565,84.884842 C 143.51565,83.726038 144.4129,82.768999 145.86619,82.377666 C 147.76166,81.86727 149.12969,82.368843 151.29988,84.369869 C 154.81894,87.614624 156.98528,88.538402 158.79907,87.5677 C 159.93337,86.960633 160.15861,87.41836 159.25437,88.492982 C 158.28154,89.649128 157.42927,89.77513 155.46599,89.053044 z "
       style="fill:#003d8f;fill-opacity:1"
       id="path4054" />
    <path
       d="M 154.61039,62.465424 C 153.75013,62.078661 153.32003,61.497523 152.40023,59.479133 C 151.77209,58.100796 151.17699,56.567156 151.07776,56.071045 C 150.84615,54.912997 150.54868,54.694158 148.34929,54.063781 C 147.35082,53.77761 146.16115,53.170726 145.70558,52.715152 C 144.49973,51.509308 144.06263,49.288951 145.21061,50.200827 C 145.77441,50.648671 147.33128,50.891279 150.97553,51.099188 C 160.48397,51.64165 162.47855,52.038553 164.57353,53.805065 C 166.29692,55.258243 168.4961,56.45184 169.45015,56.45184 C 170.57541,56.45184 170.1799,57.057179 168.8144,57.424871 C 168.10084,57.617011 167.51702,57.89022 167.51702,58.031999 C 167.51702,58.687104 164.8785,60.855413 162.97621,61.763596 C 161.25432,62.585654 160.39251,62.786184 158.27325,62.857871 C 156.51181,62.917452 155.33547,62.791417 154.61039,62.465424 z "
       style="fill:#003d8f;fill-opacity:1"
       id="path4052" />
    <path
       d="M 162.02842,60.063876 C 163.78756,59.265459 165.12162,58.264488 165.58799,57.393034 C 165.88843,56.831664 165.70218,56.657272 163.88315,55.796728 C 161.01584,54.44027 160.70582,54.490799 160.70582,56.314618 C 160.70582,57.522919 160.52943,57.975502 159.75774,58.747192 C 158.98807,59.51685 158.53233,59.695266 157.33599,59.695266 C 156.09037,59.695266 155.69037,59.523345 154.75142,58.584398 C 154.14045,57.973416 153.41733,56.842269 153.14451,56.070741 C 152.75564,54.971059 152.6429,54.843159 152.62273,55.478816 C 152.5821,56.758993 154.53806,60.280467 155.49863,60.656557 C 156.76207,61.15123 160.35022,60.825548 162.02842,60.063876 z "
       style="fill:#eeeeee;fill-opacity:1"
       id="path4050" />
    <path
       d="M 158.6971,55.995038 L 158.7966,54.473881 L 156.75103,54.570916 C 154.79543,54.663692 154.70937,54.702853 154.79405,55.461541 C 154.96245,56.970466 156.67771,58.216125 157.94891,57.752687 C 158.44892,57.570397 158.6204,57.167561 158.6971,55.995038 z "
       style="fill:#eeeeee;fill-opacity:1"
       id="path4048" />
    <path
       d="M 167.97772,53.566244 C 167.24997,53.235715 165.71745,52.099849 164.57212,51.04209 C 163.42679,49.984338 162.14059,48.804761 161.71387,48.42082 C 159.39024,46.330029 155.34475,45.563037 149.3902,46.084343 C 145.21369,46.449983 143.02264,46.260436 141.62903,45.412928 C 140.27654,44.590432 138.9772,42.77095 138.7522,41.38447 L 138.56057,40.20353 L 139.79836,40.933839 C 140.98565,41.634361 141.34801,41.664764 148.68167,41.679204 L 156.3272,41.694256 L 158.518,42.728702 C 161.09687,43.946384 163.58647,46.298929 165.50003,49.326357 C 166.25467,50.520266 167.53422,51.963762 168.46899,52.675708 C 169.37251,53.363851 170.11177,53.984156 170.11177,54.054161 C 170.11177,54.336477 169.22946,54.134751 167.97772,53.566244 z "
       style="fill:#003d8f;fill-opacity:1"
       id="path4046" />
    <path
       d="M 158.93773,44.801054 C 158.83615,44.636721 158.13426,44.274632 157.37796,43.99642 C 156.31492,43.605381 154.33793,43.470768 148.66667,43.403276 C 142.07121,43.324785 141.39988,43.365091 142.01765,43.802483 C 142.56427,44.189506 144.27464,44.322165 150.38144,44.45117 C 154.6036,44.540361 158.16732,44.722807 158.30082,44.856599 C 158.64659,45.203142 159.15863,45.158492 158.93773,44.801054 z "
       style="fill:#eeeeee;fill-opacity:1"
       id="path4044" />
    <path
       d="M 155.97501,106.85223 C 154.60115,106.36477 153.2902,105.26257 151.23595,102.86779 L 150.03681,101.46987 L 148.31686,101.6883 C 145.69859,102.02081 145.4617,102.13565 145.4617,103.07245 C 145.4617,103.64437 145.91247,104.34896 146.85785,105.25479 C 148.52126,106.84862 150.08835,107.27534 154.38114,107.30336 L 157.30022,107.32241 L 155.97501,106.85223 z "
       style="fill:#eeeeee;fill-opacity:1"
       id="path4040" />
  </g>
  <path
     d="M 249.55062,1.4395041 L 1.449569,1.4395041 L 1.449569,174.9361 C 0.68232904,268.65698 81.739009,302.75585 125.5001,302.75585 C 168.49395,302.75585 250.31785,268.65698 249.55062,174.9361 L 249.55062,1.4395041 z "
     style="fill:none;fill-opacity:0;stroke:#000000;stroke-width:1.88832211;stroke-linejoin:bevel"
     id="Frame" />
</svg>
