<?xml version="1.0" encoding="UTF-8" standalone="no"?>
<!-- Created with Inkscape (http://www.inkscape.org/) -->
<svg
   xmlns:dc="http://purl.org/dc/elements/1.1/"
   xmlns:cc="http://web.resource.org/cc/"
   xmlns:rdf="http://www.w3.org/1999/02/22-rdf-syntax-ns#"
   xmlns:svg="http://www.w3.org/2000/svg"
   xmlns="http://www.w3.org/2000/svg"
   xmlns:xlink="http://www.w3.org/1999/xlink"
   version="1.0"
   width="251"
   height="304.20001"
   id="svg4166">
  <defs
     id="defs4168" />
  <metadata
     id="metadata1880"><rdf:RDF><cc:Work
         rdf:about=""><dc:title>Boxholm kommunsvapen</dc:title><dc:date>24-10-2007</dc:date><dc:creator><cc:Agent><dc:title>Lokal_Profil</dc:title></cc:Agent></dc:creator><cc:license
         rdf:resource="http://creativecommons.org/licenses/by-sa/2.5/" /><dc:rights><cc:Agent><dc:title>cc-by-sa-2.5</dc:title></cc:Agent></dc:rights><dc:format>image/svg+xml</dc:format><dc:type
         rdf:resource="http://purl.org/dc/dcmitype/StillImage" /></cc:Work><cc:License
         rdf:about="http://creativecommons.org/licenses/by-sa/2.5/"><cc:permits
         rdf:resource="http://web.resource.org/cc/Reproduction" /><cc:permits
         rdf:resource="http://web.resource.org/cc/Distribution" /><cc:requires
         rdf:resource="http://web.resource.org/cc/Notice" /><cc:requires
         rdf:resource="http://web.resource.org/cc/Attribution" /><cc:permits
         rdf:resource="http://web.resource.org/cc/DerivativeWorks" /><cc:requires
         rdf:resource="http://web.resource.org/cc/ShareAlike" /></cc:License></rdf:RDF>
  </metadata>
  <path
     d="M 249.55058,1.4395041 L 125.50008,1.4395041 L 1.4495291,1.4395041 L 1.4495291,174.9361 C 0.68228908,268.65698 81.738969,302.75585 125.50006,302.75585 C 168.49391,302.75585 250.31781,268.65698 249.55058,174.9361 L 249.55058,1.4395041 z "
     style="fill:#ffcd50;stroke:none"
     id="Shield" />
  <path
     d="M 125.5,1.4375 C 125.5,1.4375 125.5,70.067161 125.5,137.40625 L 249.5625,137.40625 L 249.5625,1.4375 L 125.5,1.4375 z M 125.5,137.40625 L 1.4375,137.40625 L 1.4375,174.9375 C 0.67026003,268.65838 81.738909,302.75 125.5,302.75 C 125.5,302.75 125.5,219.29343 125.5,137.40625 z "
     style="color:#000000;fill:#d40000;fill-opacity:1;fill-rule:nonzero;stroke:none;stroke-width:1.88832211;stroke-linecap:round;stroke-linejoin:bevel;marker:none;marker-start:none;marker-mid:none;marker-end:none;stroke-miterlimit:4;stroke-dashoffset:0;stroke-opacity:1;visibility:visible;display:block"
     id="Field-2-and-3" />
  <g
     transform="matrix(1.4386,0,0,1.4386,6.917883,23.97167)"
     id="Bock">
    <use
       transform="matrix(0.856874,0.197824,-0.197824,0.856874,9.864201,-11.03074)"
       id="Horn-2"
       x="0"
       y="0"
       width="251"
       height="304.20001"
       xlink:href="#Horn" />
    <path
       d="M 28.799688,5.6602654 C 29.650348,7.2847654 31.288688,7.7816354 33.174688,8.0352654 C 35.389638,8.3331254 39.666948,8.9509457 39.737188,8.8165157 C 39.842448,8.6150657 35.785748,6.9846654 33.643438,6.7227654 C 32.603968,6.5956954 31.287148,6.3671454 30.518228,5.7165854 C 29.488468,4.8453354 31.040708,3.2491954 30.734388,2.9988154 C 29.615768,2.0844854 28.001378,4.1357454 28.799688,5.6602654 z "
       style="fill:#003d8f;stroke:none"
       id="Tongue" />
    <g
       style="fill:#d40000;stroke:none"
       id="Body">
      <path
         d="M 20.3309,5.91025 C 20.1519,5.91025 19.66421,6.22366 19.2684,6.629 C 18.5638,7.3506 18.56059,7.38625 18.8934,7.754 C 19.5821,8.1871 20.2157,8.79871 20.9559,9.09775 C 21.5938,9.66287 21.785,10.04103 21.73715,10.78525 C 21.23782,11.58468 20.6655,12.00797 21.2684,12.97275 C 21.49786,13.17282 22.20437,13.68497 22.8309,14.09775 C 23.6969,14.66832 24.17868,15.20193 24.8934,16.28525 C 26.12933,18.15868 27.70973,21.14542 28.5184,23.22275 C 31.07163,29.7817 30.88085,29.43597 32.2684,30.78525 C 32.93142,31.42998 34.17132,32.56211 35.1434,33.34775 C 35.26669,33.33621 35.33182,33.33572 35.5184,33.3165 C 35.48065,33.30224 35.42963,33.30088 35.3934,33.28525 C 35.24309,33.2204 35.09476,33.13617 34.9559,32.97275 C 34.81704,32.80933 34.74654,32.44377 34.86215,32.22275 L 34.8934,32.16025 L 34.9559,32.09775 C 35.19309,31.86055 35.4925,31.78701 35.8934,31.72275 C 36.15601,31.68066 36.61374,31.6535 37.0184,31.629 C 36.97609,31.60686 36.93992,31.60463 36.8934,31.5665 C 36.79482,31.48571 36.67464,31.33195 36.67465,31.129 L 36.67465,30.78525 L 36.98715,30.66025 C 38.04721,30.2354 39.09245,30.0773 40.11215,29.84775 C 40.08648,29.83628 40.07667,29.82741 40.04965,29.8165 C 39.63873,29.65055 39.08434,29.53787 38.7684,29.5665 L 38.2059,29.629 L 38.2059,29.0665 C 38.2059,28.91335 38.23837,28.78968 38.29965,28.6915 C 37.82751,28.41611 37.44851,28.17576 37.3309,28.03525 C 36.04807,26.87855 35.1613,25.32258 33.7684,24.34775 C 32.57151,23.98122 30.32342,22.1064 28.8309,20.254 C 27.13291,17.76313 25.90066,15.04301 24.73715,12.28525 C 24.73715,11.69546 22.83562,7.57343 22.5184,7.47275 C 21.79771,6.9491 21.14263,6.27779 20.3309,5.91025 z "
         id="Front-right-leg" />
      <path
         d="M 51.78446,3.15341 C 50.74368,2.44856 49.58306,1.92145 49.06571,1.87216 C 48.63459,1.87296 48.21861,2.10497 47.81571,2.24717 C 47.23346,2.4687 46.18159,2.52203 42.87821,2.52842 C 38.80806,2.5363 38.41205,2.99401 38.0411,3.27178 C 37.73215,3.50312 37.30341,3.92216 37.56925,4.18776 C 37.85069,4.46897 38.3147,4.57183 38.81261,4.84199 C 39.38952,5.15501 39.98301,5.38684 40.17894,4.58995 C 40.34728,3.90526 40.15119,3.2018 40.41866,3.70158 C 40.73861,4.29936 40.27394,5.32664 39.53446,5.34092 C 39.36646,5.34416 38.69909,5.06141 38.06571,4.74717 C 36.46003,3.95051 35.47196,4.22124 35.47196,5.43467 C 35.47196,6.14511 35.76506,6.48586 36.62821,6.80967 C 38.19486,7.39742 38.77223,7.67822 39.15946,8.09092 C 39.38892,8.33546 39.56571,8.59758 39.56571,8.68467 C 39.56571,8.8201 36.77948,8.95777 35.78446,8.87216 C 35.60167,8.85645 35.17585,8.97168 34.81571,9.12216 C 34.26186,9.35359 34.17777,9.45363 34.28446,9.80967 C 34.47027,10.4297 35.10061,10.87168 35.94071,10.93467 L 36.69071,10.99717 C 38.79353,12.44543 41.38236,13.7131 43.90946,14.24716 L 45.53446,15.77841 C 47.56793,17.74256 48.96544,18.42779 51.06571,18.49717 C 53.54033,18.40807 54.86778,17.38145 56.19071,15.40342 C 56.51077,14.72897 56.81571,14.59356 56.81571,15.12217 C 56.81572,15.62823 55.79917,17.09543 55.09696,17.62217 C 53.54141,18.89676 52.08179,19.31616 50.09696,19.27841 C 47.76249,19.2246 47.89361,19.18195 46.90946,20.30966 C 46.59122,20.67435 46.60294,20.72191 46.87821,20.99717 C 47.33301,21.45196 46.97669,21.85569 45.59696,22.52842 C 44.59679,23.01608 43.54833,23.35453 42.53446,23.80966 C 42.53446,23.80966 42.78649,24.62693 44.06571,25.11424 C 43.20248,25.8336 41.98872,25.63916 40.94071,26.02842 C 39.8322,26.97978 41.68009,26.9907 42.47196,27.18466 C 41.95167,27.70637 41.23385,27.66838 40.62821,27.93467 C 39.84668,28.27338 38.71396,28.68624 38.71396,29.07409 C 39.59105,28.99461 41.11098,29.51006 41.06571,30.12217 C 39.77133,30.50295 38.40419,30.62331 37.15946,31.12217 C 37.15946,31.31914 38.00249,31.43474 40.06571,31.52842 C 40.43849,32.2743 38.4618,32.06987 37.62821,32.09091 C 36.10482,32.15329 35.54256,32.23906 35.31571,32.46592 C 35.02986,33.01244 37.80001,33.22031 38.37417,33.36334 C 38.19638,33.54115 35.2538,33.86518 34.87821,33.87217 C 34.46977,33.87978 34.44863,34.21325 34.84696,34.65341 C 35.76111,34.96482 38.24353,34.64263 38.06571,35.37217 C 36.45207,36.3274 34.27407,35.1916 33.12073,37.05763 C 36.9754,38.5123 40.5774,40.49443 43.87821,43.05966 C 42.11297,42.88304 38.39048,39.22856 33.90946,38.40342 C 33.50369,38.3464 32.9906,38.18756 32.78446,38.05966 C 29.2957,36.73918 26.08828,34.22319 22.19071,33.87217 C 22.19071,33.87217 21.51883,33.67674 20.62821,34.17674 C 19.73758,34.67674 18.62821,35.87217 18.62821,35.87217 C 16.00349,38.45435 13.53132,40.73353 10.56571,42.77841 C 10.4815,42.7784 8.02339,44.41656 7.84696,44.59091 C 7.46538,44.79911 7.41956,44.83022 7.15946,44.93467 C 6.3161,45.14278 5.81755,45.61438 5.59696,46.40342 C 5.48307,46.81078 5.19161,47.51652 4.94071,47.96592 C 4.68982,48.41531 4.57148,48.84234 4.65946,48.90342 C 4.74744,48.9645 4.99045,49.25946 5.22196,49.59091 C 5.77092,50.37693 6.49597,50.42442 6.65946,49.68466 C 6.72145,49.40422 6.90678,48.78334 7.06571,48.27841 C 7.22464,47.77348 7.33833,47.25579 7.69071,46.90342 C 8.04309,46.55103 8.34731,46.65678 8.47196,47.15341 C 8.62069,47.74599 9.22321,48.05986 9.69071,47.80966 C 9.98283,47.65331 10.81571,46.19161 10.81571,45.84091 C 10.81571,45.4882 12.60562,43.0591 13.44071,42.27841 C 15.19392,40.63939 15.90182,39.99808 16.03446,39.99717 C 18.85313,38.20394 23.36307,37.55079 25.84696,40.24716 C 25.84697,40.46536 26.97876,42.21338 28.25321,43.93467 C 28.50454,44.27412 29.24657,45.09585 29.90946,45.77841 C 30.57236,46.46095 31.36179,47.30069 31.65946,47.62217 C 31.9571,47.94363 32.38468,48.27948 32.59696,48.37217 C 33.59549,48.89728 34.61136,49.3875 35.65946,49.80966 C 37.0871,50.4215 37.61011,50.68193 37.84696,50.90342 C 37.98618,51.03359 38.58766,51.12217 39.19071,51.12217 C 40.20247,51.12217 40.29876,51.0836 41.06571,50.34091 C 41.5133,49.90747 42.092,49.29306 42.34696,48.96592 C 42.78463,48.40439 43.44071,48.13634 43.44071,48.52842 C 42.72782,50.11368 41.61788,50.89752 40.09696,51.87217 C 39.24415,52.29857 35.65946,50.49717 35.65946,50.49717 C 33.68228,49.30987 33.99986,50.45591 35.00321,51.84091 C 37.8644,55.31075 41.78724,58.11173 43.87821,62.43467 C 44.49414,64.0844 45.63629,64.93023 47.00321,65.84091 C 48.5025,66.76346 49.9624,67.68492 51.31571,68.80966 C 51.97741,69.3996 52.09949,69.39779 52.25321,68.99717 C 52.25321,68.99717 65.19071,57.80966 65.19071,57.80966 C 63.77746,55.18389 63.39444,53.83154 62.94071,50.02842 C 62.81295,48.95758 62.41175,46.62565 62.06571,44.84091 C 60.73882,37.99748 60.60861,37.14078 60.34696,34.15341 C 60.24835,33.02772 60.10181,31.95389 60.03446,31.77841 C 58.959,31.13416 58.75881,30.86911 59.25321,29.80966 C 59.77724,30.67559 60.43983,31.19189 61.31571,31.65341 C 61.61783,31.65341 61.65011,31.57268 61.56571,31.15341 C 61.2587,29.62872 60.82728,26.07935 60.94071,25.96592 C 61.01329,25.89334 61.38902,26.19399 61.75321,26.62217 C 62.46717,27.46154 62.96051,27.5079 62.37821,26.68466 C 62.17121,26.39205 61.89372,25.44766 61.72196,24.40342 C 61.35076,22.14677 61.36801,22.10968 61.72196,22.40342 C 62.26337,22.85274 62.55365,22.49134 62.44071,21.52842 C 61.96363,17.46075 61.02707,13.20255 60.53446,12.80967 C 60.37463,12.68219 59.92628,12.55967 59.53446,12.55967 C 58.58324,12.50839 57.81324,12.02549 57.06993,11.51998 C 56.68227,11.04617 56.50321,10.02842 56.50321,10.02842 C 56.10898,8.5187 56.1808,8.44793 57.28446,8.90341 C 59.47476,9.79691 61.49676,11.03381 63.73167,11.80206 C 64.49582,12.01087 65.15946,12.2378 65.15946,12.12216 C 65.15946,12.01601 63.22698,10.46009 61.28446,8.99717 C 60.5094,8.41346 59.7927,7.86232 59.69071,7.77842 C 59.1187,7.30777 57.67274,6.79813 57.25321,6.90341 C 56.9293,6.98471 56.76728,6.91544 56.69071,6.71591 C 56.49744,6.21228 57.2393,6.20494 57.78024,6.24801 C 58.78763,6.27658 59.22758,6.4223 60.06571,6.74717 C 60.38523,6.92593 60.53069,6.563 60.31571,6.21591 C 59.81547,5.40827 57.91931,3.42613 57.51691,2.91776 C 56.37055,2.86854 56.05793,3.21878 54.88958,3.761 C 53.37281,4.47599 52.84844,4.20276 51.78446,3.15341 z "
         id="Main-body" />
      <path
         d="M 57.88919,9.60867 C 58.64139,9.8671 59.64977,10.37734 60.11046,10.58248 C 63.03549,11.88495 67.45156,12.88525 61.07666,12.41354 C 60.74664,12.38896 59.8262,12.82152 57.56149,11.59598 C 56.88597,11.23041 55.7452,8.05802 57.88919,9.60867 z "
         id="Ear" />
    </g>
    <g
       style="fill:#003d8f;stroke:none"
       id="Hoofs">
      <path
         d="M 17.26091,0.72619 C 17.40886,0.80023 17.60359,1.07628 17.91716,1.50743 C 19.09706,2.92813 20.19841,5.31994 20.19841,5.31994 L 19.26091,6.19494 C 18.57608,7.03316 17.97666,7.27242 16.97966,7.47619 C 12.32362,3.97583 13.90527,3.67424 15.57341,0.88244 C 17.13831,1.95334 18.85304,5.62696 19.51091,5.44494 C 18.59292,3.82071 16.01704,1.11323 17.26091,0.72619 z "
         id="path4854" />
      <path
         d="M 4.11644,49.08577 C 4.40552,49.08578 5.96018,50.69345 5.96019,50.99202 C 5.96019,51.4048 5.05963,53.88457 4.64769,54.61702 C 4.43376,54.99743 4.04339,55.39579 3.77269,55.52327 C 3.19026,55.79754 2.20189,56.04541 1.64769,55.52327 C 0.71188,54.6416 0.59592,54.34088 1.31314,53.54683 C 2.21978,52.44905 3.60937,50.80247 3.39769,50.55452 C 2.45337,51.52197 0.77562,54.27594 0.24144,53.89827 C 0.02716,53.89828 0.69405,52.31218 1.08519,51.89827 C 1.2104,51.7658 1.42317,51.50924 1.55394,51.33578 C 1.98179,50.76824 3.85604,48.89314 4.11644,49.08577 z "
         id="path4852" />
    </g>
    <path
       d="M 57.654418,2.6683754 C 59.701438,0.50055546 62.484118,0.66520546 63.186288,1.0793655 C 63.888468,1.4935155 64.533678,1.9619654 65.125638,2.6978654 C 64.533678,1.9619654 63.888468,1.4935155 63.186288,1.0793655 C 65.200528,0.35127546 66.365858,0.75734546 67.071748,1.3846455 C 67.601178,1.8551154 68.073628,2.3798854 68.202438,3.1238654 C 68.073628,2.3798854 67.601178,1.8551154 67.071748,1.3846455 C 68.339868,1.0427055 69.860008,1.8689954 70.451988,2.6048854 C 71.043948,3.3407754 70.994408,3.8213554 70.889788,4.4628054 C 70.994408,3.8213554 71.043948,3.3407754 70.451988,2.6048854 C 71.845188,2.7937654 72.907738,3.9478754 73.205588,4.4223854 C 73.503428,4.8969054 73.628528,5.4277254 73.351138,6.1254854 C 73.628528,5.4277254 73.503428,4.8969054 73.205588,4.4223854 C 74.427888,4.7741554 75.492328,6.0348054 75.562308,6.7265054 C 75.632298,7.4182154 75.297938,8.1702754 74.844088,8.7112057 C 75.297938,8.1702754 75.632298,7.4182154 75.562308,6.7265054 C 76.387718,7.5649354 77.644898,9.0469257 77.367528,9.7446857 C 77.090128,10.442456 76.579318,11.037676 76.125458,11.578616 C 76.579318,11.037676 77.090128,10.442456 77.367528,9.7446857 C 78.312428,10.794236 78.764068,12.518346 78.560428,12.730526 C 78.049618,13.325766 77.821748,13.542946 77.136318,14.087916 C 77.821748,13.542946 78.049618,13.325766 78.560428,12.730526 C 79.095428,13.520716 79.477218,15.390946 79.228518,15.691236 C 78.574658,16.480726 78.408978,16.472486 77.655398,16.432316 C 78.408978,16.472486 78.605638,16.501636 79.228518,15.691236 C 79.478698,16.752886 79.354588,17.690396 79.042778,17.854916 C 78.702988,18.034186 78.460308,18.211566 77.765558,18.223686 C 78.460308,18.211566 78.526378,18.130436 79.042778,17.854916 C 79.074278,18.917436 79.056988,20.015476 78.604228,20.201606 C 78.268858,20.339466 77.226648,19.975666 77.645858,20.100496 C 78.196378,20.264406 78.089948,20.257196 78.604228,20.201606 C 78.456708,20.868836 78.237958,23.474796 77.781948,23.437466 C 77.366928,23.403486 77.412608,22.413166 77.367818,21.671316 C 76.920308,14.162556 74.834988,2.3985554 61.026038,6.7137254 L 57.654418,2.6683754 z "
       style="fill:#003d8f;stroke:#ffcd50;stroke-width:0.23568203"
       id="Horn" />
    <g
       id="Eye">
      <path
         d="M 46.88689,5.34424 C 48.25944,5.95984 48.42541,7.03104 49.92041,7.60775 C 51.2279,8.11243 52.27353,7.35777 54.03362,7.70259 C 51.36922,6.77534 52.11928,5.26562 50.71188,4.69175 C 49.12878,4.04647 48.51384,5.68275 46.88689,5.34424 z "
         style="fill:#ffcd50;stroke:none"
         id="path4169" />
      <path
         d="M 50.92383,5.02068 C 52.82356,7.01531 51.3911,8.48003 49.03274,6.89649 C 50.53574,6.74575 50.93325,6.27408 50.92383,5.02068 z "
         style="fill:#d40000;stroke:none"
         id="use2125" />
    </g>
  </g>
  <g
     transform="matrix(1.634074,0,0,1.634074,-561.4044,-631.6041)"
     style="fill:none;stroke:#ffcd50;stroke-width:5.82811928"
     id="Mars-Symbol">
    <path
       d="M 413.34148,488.5046 L 395.24747,506.49825"
       id="path26867" />
    <path
       d="M 395.03496,536.55287 C 386.82495,544.71735 373.51907,544.7225 365.31544,536.56438 C 357.11182,528.40626 357.117,515.17417 365.32701,507.00969 C 373.53702,498.84521 386.8429,498.84006 395.04653,506.99819 C 403.25015,515.15631 403.24497,528.3884 395.03496,536.55287 L 395.03496,536.55287 z "
       id="path26871" />
    <path
       d="M 397.71396,488.69569 C 413.13091,488.69569 413.13091,488.69569 413.13091,488.69569 L 413.13091,504.02714"
       id="path27759" />
  </g>
  <use
     transform="translate(117.624,-140.3376)"
     id="Mars-2"
     x="0"
     y="0"
     width="251"
     height="304.20001"
     xlink:href="#Mars-Symbol" />
  <use
     transform="translate(123.3024,133.848)"
     id="Bock-2"
     x="0"
     y="0"
     width="251"
     height="304.20001"
     xlink:href="#Bock" />
  <path
     d="M 249.55062,1.4395041 L 125.50012,1.4395041 L 1.449569,1.4395041 L 1.449569,174.9361 C 0.68232904,268.65698 81.739009,302.75585 125.5001,302.75585 C 168.49395,302.75585 250.31785,268.65698 249.55062,174.9361 L 249.55062,1.4395041 z "
     style="fill:none;fill-opacity:0;stroke:#000000;stroke-width:1.88832211;stroke-linecap:round;stroke-linejoin:bevel"
     id="Frame" />
</svg>
