<?xml version="1.0" encoding="UTF-8" standalone="no"?>
<!-- Created with Inkscape (http://www.inkscape.org/) -->
<svg
   xmlns:dc="http://purl.org/dc/elements/1.1/"
   xmlns:cc="http://web.resource.org/cc/"
   xmlns:rdf="http://www.w3.org/1999/02/22-rdf-syntax-ns#"
   xmlns:svg="http://www.w3.org/2000/svg"
   xmlns="http://www.w3.org/2000/svg"
   version="1.0"
   width="251"
   height="304.20001"
   id="svg4166">
  <defs
     id="defs4168" />
  <metadata
     id="metadata1880"><rdf:RDF><cc:Work
         rdf:about=""><dc:title>Valdemarsvik kommunvapen</dc:title><dc:date>05-12-2006</dc:date><dc:creator><cc:Agent><dc:title>Lokal_Profil</dc:title></cc:Agent></dc:creator><cc:license
         rdf:resource="http://creativecommons.org/licenses/by-sa/2.5/" /><dc:rights><cc:Agent><dc:title>cc-by-sa-2.5</dc:title></cc:Agent></dc:rights><dc:format>image/svg+xml</dc:format><dc:type
         rdf:resource="http://purl.org/dc/dcmitype/StillImage" /></cc:Work><cc:License
         rdf:about="http://creativecommons.org/licenses/by-sa/2.5/"><cc:permits
         rdf:resource="http://web.resource.org/cc/Reproduction" /><cc:permits
         rdf:resource="http://web.resource.org/cc/Distribution" /><cc:requires
         rdf:resource="http://web.resource.org/cc/Notice" /><cc:requires
         rdf:resource="http://web.resource.org/cc/Attribution" /><cc:permits
         rdf:resource="http://web.resource.org/cc/DerivativeWorks" /><cc:requires
         rdf:resource="http://web.resource.org/cc/ShareAlike" /></cc:License></rdf:RDF>
  </metadata>
  <path
     d="M 249.55058,1.4395041 L 1.4495291,1.4395041 L 1.4495291,174.9361 C 0.68228908,268.65698 81.738969,302.75585 125.50006,302.75585 C 168.49391,302.75585 250.31781,268.65698 249.55058,174.9361 L 249.55058,1.4395041 z "
     style="fill:#225500;stroke:none"
     id="Shield" />
  <path
     d="M 75.546736,63.714656 C 86.445272,53.887348 99.9679,47.166652 113.9714,43.539155 C 123.1137,41.170912 133.07537,41.90654 142.34917,43.923945 C 157.33604,48.710466 172.32228,55.293116 183.41672,66.799364 C 184.61489,67.736882 185.00431,68.947703 186.20248,69.88522 C 194.84385,70.054656 220.46254,69.602519 223.43686,69.88522 C 231.53459,66.708332 227.5618,62.390266 221.50419,60.658581 C 215.92676,59.122245 198.04449,59.718678 192.32721,59.475887 C 182.79791,49.664292 163.43856,38.313525 150.19821,34.747083 C 132.80483,30.061976 125.76972,30.80213 109.81731,33.665069 C 97.30976,35.909766 85.039353,41.146357 74.762844,48.821187 C 70.88515,51.97166 66.909362,54.998532 62.969245,58.069993 C 57.078033,58.073779 32.997445,58.010392 27.223282,59.493778 C 20.678118,63.871286 21.475288,67.622822 31.481192,69.88522 C 36.430208,70.010474 63.443732,69.861674 68.393953,69.88522 C 70.778215,67.803754 73.162475,65.796123 75.546736,63.714656 z "
     style="fill:#eeeeee"
     id="Kniv-1" />
  <path
     d="M 70.634601,42.128891 C 82.604915,32.301583 97.457375,25.580887 112.83798,21.95339 C 122.87936,19.585147 133.82067,20.320775 144.00649,22.33818 C 160.46718,27.1247 176.9272,33.707351 189.11269,45.213599 C 190.42869,46.151116 190.8564,47.361938 192.1724,48.299455 C 201.66356,48.468891 219.72183,48.016754 222.98864,48.299455 C 231.88273,45.122567 227.51924,40.804501 220.86591,39.072816 C 214.73999,37.53648 205.17897,38.132912 198.89944,37.890121 C 188.43302,28.078527 167.16984,16.72776 152.6274,13.161317 C 133.52353,8.4762108 125.79658,9.2163649 108.27539,12.079304 C 94.537844,14.324 81.060735,19.560592 69.77362,27.235421 C 65.514586,30.385895 61.147813,33.412767 56.820219,36.484228 C 50.349655,36.488014 33.980767,36.424627 27.638763,37.908013 C 20.449936,42.285521 21.325501,46.037057 32.315402,48.299455 C 37.751114,48.424709 57.341367,48.275909 62.778401,48.299455 C 65.397135,46.217988 68.015868,44.210358 70.634601,42.128891 z "
     style="fill:#eeeeee"
     id="Kniv-2" />
  <path
     d="M 126.73257,69.711389 C 115.94407,69.711405 107.20737,78.147302 107.21063,88.520855 C 107.20818,96.300997 112.12203,102.95848 119.13279,105.81036 L 119.13279,119.44248 L 100.32332,119.15748 C 85.308454,118.94778 80.915044,119.1378 79.803904,120.05996 C 78.027084,121.53461 77.737434,131.5052 79.471414,131.55463 L 118.5628,131.45964 C 118.60662,140.78954 118.72941,150.10652 118.6103,159.43634 C 118.17003,178.70831 117.79205,198.01348 117.61283,217.28969 C 117.53364,227.72929 117.164,237.71734 116.75785,239.51906 C 115.22703,246.30993 110.95872,247.22222 97.758394,243.60395 C 84.030434,239.84108 66.951792,231.50199 64.081856,227.12191 C 61.800295,223.63975 61.435459,220.63171 63.084384,218.80965 C 63.906465,217.90125 65.119925,217.36435 65.791807,217.62218 C 66.534698,217.90722 67.317327,217.30448 67.78675,216.05473 C 69.439144,211.65546 63.925148,205.12952 53.062169,198.67022 C 50.421882,197.10021 46.107743,193.7638 43.467441,191.21293 C 40.697138,188.53649 38.283674,186.81453 37.720105,187.17555 C 35.966546,188.29886 32.362713,196.42202 31.260288,201.75764 C 29.044101,212.48374 31.877862,228.32242 37.102622,234.5317 C 39.860675,237.80943 41.39957,237.84127 42.042482,234.6267 C 43.175304,228.96261 50.227008,230.57763 57.907031,238.2841 C 63.985294,244.38327 75.522984,253.22629 80.563884,255.6211 C 82.484094,256.53335 85.251054,257.99798 86.691214,258.89851 C 88.131374,259.79902 92.445524,261.62238 96.285944,262.9359 C 104.33155,265.68773 113.73968,270.57024 117.47033,273.90808 C 118.88759,275.17608 121.02136,276.87496 122.2202,277.66048 C 124.31731,279.03458 124.49977,278.98079 125.92509,276.8055 C 128.89228,272.27696 133.98916,268.32243 141.74214,264.55085 C 146.0995,262.4311 150.29918,260.70346 151.09939,260.70346 C 152.80027,260.70349 167.15186,254.3567 175.79869,249.77877 C 182.57457,246.19141 185.66083,244.00467 193.2307,237.42912 C 201.77682,230.00555 206.0826,229.16013 210.5677,234.05672 L 213.37012,237.14413 L 215.17507,235.14919 C 218.42777,231.59202 219.6285,228.03646 220.25743,219.99712 C 220.73831,213.84964 220.53742,210.51269 219.35495,205.17754 C 217.48649,196.74719 214.3351,189.52165 211.99266,188.26802 C 210.51367,187.47646 210.02668,187.69996 208.76276,189.74048 C 206.56507,193.28841 203.46713,196.08275 197.55307,199.90519 C 190.47164,204.48208 186.23234,209.22445 184.91843,213.91729 C 183.64925,218.45039 184.22007,220.09856 186.62838,218.80965 C 189.25557,217.40361 190.93609,217.7757 191.94823,219.99712 C 193.37325,223.12466 191.24515,225.62 182.97099,230.54182 C 168.83927,238.94797 149.89057,245.83638 140.88717,245.83638 C 136.63866,245.83638 132.6439,244.1922 132.00492,242.17899 C 131.69681,241.20819 131.71616,229.75033 132.00492,216.71971 C 132.29371,203.68906 132.72018,179.50758 133.00239,162.95124 C 133.28463,146.3949 133.64822,132.62372 133.80987,132.36211 C 133.97155,132.10054 143.01534,131.97613 153.85432,132.07712 C 176.34226,132.28663 175.12991,132.70085 174.94372,124.52483 L 174.84872,119.72747 C 161.4189,118.78586 146.99328,120.53533 133.61988,118.73 L 133.61988,106.04786 C 140.99927,103.3646 146.25704,96.556258 146.25453,88.520855 C 146.25777,78.147271 137.52107,69.711389 126.73257,69.711389 z M 135.76729,87.958638 C 135.76887,82.92293 131.52376,78.839885 126.28663,78.839885 C 121.04951,78.839885 116.80441,82.92293 116.80598,87.958638 C 116.80441,92.994361 121.04951,97.077391 126.28663,97.077391 C 131.52376,97.077391 135.76887,92.994361 135.76729,87.958638 z "
     style="fill:#eeeeee;fill-rule:evenodd;stroke:none"
     id="Anchor" />
  <path
     d="M 249.55062,1.4395041 L 1.449569,1.4395041 L 1.449569,174.9361 C 0.68232904,268.65698 81.739009,302.75585 125.5001,302.75585 C 168.49395,302.75585 250.31785,268.65698 249.55062,174.9361 L 249.55062,1.4395041 z "
     style="fill:none;fill-opacity:0;stroke:#000000;stroke-width:1.88832211;stroke-linecap:round"
     id="Frame" />
</svg>
