<?xml version="1.0" encoding="UTF-8" standalone="no"?>
<!-- Created with Inkscape (http://www.inkscape.org/) -->
<svg
   xmlns:dc="http://purl.org/dc/elements/1.1/"
   xmlns:cc="http://web.resource.org/cc/"
   xmlns:rdf="http://www.w3.org/1999/02/22-rdf-syntax-ns#"
   xmlns:svg="http://www.w3.org/2000/svg"
   xmlns="http://www.w3.org/2000/svg"
   xmlns:xlink="http://www.w3.org/1999/xlink"
   version="1.0"
   width="251"
   height="304.20001"
   id="svg4166">
  <defs
     id="defs4168" />
  <metadata
     id="metadata1880"><rdf:RDF><cc:Work
         rdf:about=""><dc:title>Norrkoping kommunvapen</dc:title><dc:date>07-11-2008</dc:date><dc:creator><cc:Agent><dc:title>Lokal_Profil</dc:title></cc:Agent></dc:creator><cc:license
         rdf:resource="http://creativecommons.org/licenses/by-sa/2.5/" /><dc:rights><cc:Agent><dc:title>cc-by-sa-2.5</dc:title></cc:Agent></dc:rights><dc:format>image/svg+xml</dc:format><dc:type
         rdf:resource="http://purl.org/dc/dcmitype/StillImage" /></cc:Work><cc:License
         rdf:about="http://creativecommons.org/licenses/by-sa/2.5/"><cc:permits
         rdf:resource="http://web.resource.org/cc/Reproduction" /><cc:permits
         rdf:resource="http://web.resource.org/cc/Distribution" /><cc:requires
         rdf:resource="http://web.resource.org/cc/Notice" /><cc:requires
         rdf:resource="http://web.resource.org/cc/Attribution" /><cc:permits
         rdf:resource="http://web.resource.org/cc/DerivativeWorks" /><cc:requires
         rdf:resource="http://web.resource.org/cc/ShareAlike" /></cc:License></rdf:RDF>
  </metadata>
  <path
     d="M 249.55058,1.4395041 L 1.4495291,1.4395041 L 1.4495291,174.9361 C 0.68228908,268.65698 81.738969,302.75585 125.50006,302.75585 C 168.49391,302.75585 250.31781,268.65698 249.55058,174.9361 L 249.55058,1.4395041 z"
     id="Shield"
     style="fill:#ffcd50;stroke:none" />
  <g
     transform="matrix(0.7892758,0,0,0.7892758,3.4122985,12.455102)"
     id="Seated-saint-king"
     style="stroke:#ffcd50;stroke-width:1.5">
    <path
       d="M 154.43608,-2.34375 C 126.6665,-2.34375 104.12358,20.199176 104.12358,47.96875 C 104.12358,75.738325 126.66651,98.281252 154.43608,98.28125 C 182.20566,98.28125 204.74858,75.738327 204.74858,47.96875 C 204.74858,20.199175 182.20566,-2.34375 154.43608,-2.34375 z"
       id="Halo"
       style="fill:#003d8f;stroke:none" />
    <path
       d="M 259.69318,201.90543 L 260.00206,288.64361 C 260.00206,288.64361 265.90602,287.66559 268.72353,290.48309 C 271.54104,293.3006 270.19512,305.01427 270.19512,305.01427 L 37.537386,305.01427 C 37.537386,305.01427 36.099494,293.85021 39.008974,290.94073 C 41.918454,288.03125 48.687305,288.73335 48.687305,288.73335 L 48.687305,202.27665 L 259.69318,201.90543 z M 48.656785,202.74306 L 35.381041,189.46731 L 273.98562,189.46731 L 259.77994,201.92176 M 48.662746,288.67668 L 260.05874,288.59544"
       id="Bench"
       style="fill:#d40000" />
    <path
       d="M 235.5984,56.736248 L 219.64286,56.736248 L 219.64286,47.644664 C 224.77916,47.644664 230.49626,47.644664 235.65041,47.648174 L 235.66825,32.088664 C 238.38955,32.175636 241.70863,32.113164 244.87582,32.088664 L 244.97689,47.715191 C 250.38706,47.644664 255.69617,47.644664 261.00527,47.644664 L 261.00527,56.736248 C 261.00527,56.736248 249.75681,56.736248 244.90593,56.751097 L 244.94178,84.081059 L 260.69337,84.224708 C 260.69337,84.224708 261.18821,87.40018 261.18821,88.761097 C 261.18821,90.122014 260.69337,93.297486 260.69337,93.297486 L 219.73083,93.297486 C 219.73083,93.297486 219.23599,90.122014 219.23599,88.761097 C 219.23599,87.40018 219.73083,84.224708 219.73083,84.224708 L 235.77272,84.224708 L 235.5984,56.736248 M 261.05784,88.199333 C 261.05784,99.707797 251.71763,109.04801 240.20915,109.04801 C 228.70068,109.04801 219.36047,99.707797 219.36047,88.199333 C 219.36047,76.690859 228.70068,67.350648 240.20915,67.350648 C 251.71763,67.350648 261.05784,76.690859 261.05784,88.199333 z"
       id="Riksapple"
       style="fill:#003d8f;stroke-width:1.5" />
    <g
       transform="matrix(0.4719027,0,0,0.4719027,197.90393,-3.4117911)"
       id="Head"
       style="fill:#ffcd50;stroke:none">
      <path
         d="M -107.33804,146.36914 C -107.8686,146.43468 -108.41402,146.51566 -108.93622,146.58511 C -109.23624,146.58511 -109.72999,147.64885 -110.05926,148.96077 C -110.45279,150.52871 -112.19888,152.06286 -115.15614,153.45294 C -117.63049,154.61602 -120.02133,155.56944 -120.46899,155.56944 C -122.29391,155.56944 -129.75223,161.91131 -131.78578,165.20168 C -134.24297,169.1775 -133.87015,169.80531 -128.20069,171.55118 C -86.622886,206.47394 -80.978333,196.46936 -53.475266,171.59437 C -48.186427,171.59437 -51.878391,162.37992 -59.695186,157.85871 C -66.379222,153.86544 -73.714913,151.19476 -74.381107,148.65842 C -75.698804,148.22674 -77.014732,147.86636 -78.311751,147.53538 C -80.686282,149.22038 -83.439812,150.71009 -86.604978,152.02754 C -90.184445,153.51743 -99.4682,151.87199 -107.33804,146.36914 z"
         id="Hals" />
      <g
         transform="matrix(-0.7471987,2.8704481e-2,4.3553218e-2,1.1337223,-157.16474,-1.459556)"
         id="Hair-2">
        <path
           d="M -140.4494,82.717198 C -139.57217,80.5107 -126.00803,76.86942 -121.90074,76.529671 C -111.05013,73.888428 -97.56564,126.85937 -117.55117,139.25658 C -126.10005,144.55953 -138.25406,143.07123 -133.59375,133 C -131.24961,130.65586 -127.52633,131.20991 -129.65625,133.46875 C -133.01642,137.03232 -131.11798,139.93493 -128.1875,138.03125 C -120.72659,133.18454 -130.21992,129.3485 -134.3125,127.09375 C -153.68186,116.42246 -147.05835,95.50594 -140.4494,82.717198 z"
           id="path2438" />
      </g>
      <path
         d="M -91.424258,29.606009 C -95.090321,29.487782 -98.705948,35.664923 -96.549258,41.981009 C -95.156703,46.059256 -93.845065,44.737388 -94.455508,40.324759 C -94.703802,38.529946 -94.614532,37.237259 -94.143008,36.137259 C -93.477322,34.584303 -93.260083,35.981133 -93.205508,37.262259 C -93.10739,39.565536 -92.562239,42.515097 -92.111758,42.793509 C -91.661275,43.071918 -91.646656,41.020712 -91.799258,39.262259 C -91.951858,37.503808 -91.311754,36.449275 -91.018008,37.418509 C -90.169778,39.718252 -90.431968,39.521769 -90.143008,40.949759 C -89.739118,42.945708 -88.277868,45.205963 -87.643008,43.387259 C -87.046948,41.679706 -86.323018,36.084348 -87.580508,33.074759 C -88.574868,30.69493 -89.989708,29.652272 -91.424258,29.606009 z M -101.9555,43.606009 C -103.55113,43.532743 -105.23842,43.944838 -106.3305,44.824759 C -111.78219,49.217331 -105.75589,55.677563 -98.736758,52.949759 C -94.984414,51.49151 -95.302867,49.572665 -99.768004,51.168509 C -100.81806,51.543802 -102.37246,51.53482 -102.73675,50.512259 C -103.29048,48.957915 -99.886384,49.37785 -98.236758,48.574759 C -97.419809,48.069858 -100.37089,46.956653 -101.7055,46.387259 C -102.92739,45.865957 -102.28638,45.46963 -100.17425,46.199759 C -96.419062,47.497873 -95.590426,47.400951 -98.049258,45.199759 C -98.985448,44.36166 -100.35987,43.679275 -101.9555,43.606009 z M -91.049258,44.231009 C -92.584317,44.20338 -94.179332,44.887985 -95.268008,46.199759 C -96.165287,47.280913 -96.178053,48.239766 -95.299258,50.168509 C -93.658701,53.769136 -89.064838,53.176402 -87.674258,49.199759 C -86.861938,46.876776 -87.008388,46.13292 -88.455508,45.074759 C -89.211608,44.521885 -90.128218,44.247587 -91.049258,44.231009 z M -80.018008,45.074759 C -86.375698,45.131133 -89.583988,46.755705 -81.143008,47.387259 C -79.776358,47.489512 -78.074368,48.123862 -77.549258,48.637259 C -76.956338,49.216954 -78.500758,49.378684 -80.455508,49.137259 C -87.534148,48.263002 -87.365258,48.863887 -81.893008,50.512259 C -80.437638,50.950651 -79.415898,51.895557 -82.643008,51.012259 C -86.862178,49.857423 -88.318298,49.328093 -84.705508,52.043509 C -81.720818,54.286836 -76.547828,53.986289 -74.705508,51.356009 C -72.284358,47.899336 -74.686078,45.074759 -80.018008,45.074759 z M -90.861758,45.231009 C -88.929888,45.229097 -87.534458,47.378676 -88.799258,49.387259 C -89.956128,51.224428 -92.363042,52.010974 -93.455508,50.918509 C -94.804784,49.569229 -94.146461,46.611327 -92.268008,45.606009 C -91.787987,45.349109 -91.307575,45.23145 -90.861758,45.231009 z M -90.893008,46.637259 C -93.005087,46.563149 -93.951628,48.422389 -92.518008,49.856009 C -91.636412,50.737606 -90.952503,49.937773 -90.268008,48.918509 C -89.303378,47.388488 -89.539058,47.125525 -90.893008,46.637259 z M -57.986758,51.231009 C -59.029868,51.176828 -59.799938,52.331946 -60.143008,53.074759 C -60.565808,53.990197 -60.773608,54.186651 -62.143008,53.731009 C -64.316878,53.007692 -65.862428,55.72903 -63.080508,56.824759 C -61.717448,57.361636 -62.168738,59.603705 -65.299258,61.512259 C -71.940468,65.561142 -84.409658,62.762711 -88.018008,56.418509 C -88.906098,54.857074 -90.211728,53.342979 -90.861758,53.168509 C -93.395118,52.488544 -94.084242,55.547242 -96.518008,57.981009 C -102.54878,64.011782 -111.32131,66.253376 -117.61175,63.387259 C -120.2103,62.203282 -121.36006,62.423024 -121.54925,58.074759 C -121.57906,57.389407 -119.36763,57.593002 -119.8305,55.699759 C -120.08778,54.647454 -120.66297,53.961615 -122.42425,54.824759 C -124.15089,55.670924 -123.37829,54.691798 -124.7055,53.168509 C -125.95402,51.735532 -126.91067,52.235283 -127.7055,52.856009 C -128.5346,53.503495 -128.36148,54.977225 -128.0805,55.668509 C -127.7286,56.534302 -127.46811,56.699075 -129.5805,57.512259 C -130.78935,57.977616 -130.63799,59.218185 -130.2055,59.762259 C -128.91544,61.385165 -128.9022,60.231009 -127.36175,60.231009 C -124.01923,60.231008 -124.27384,64.768097 -127.643,68.137259 C -130.47147,70.965725 -139.67497,75.528736 -142.5805,75.543509 C -145.31191,75.557398 -148.143,72.651086 -148.143,69.856009 C -148.143,67.063417 -145.67224,62.975908 -143.48675,62.137259 C -142.57914,61.78897 -143.01375,62.812425 -144.54925,64.637259 C -145.97499,66.331675 -147.143,68.579458 -147.143,69.637259 C -147.143,71.522202 -147.11756,71.51806 -145.268,69.668509 C -144.23005,68.630571 -142.64344,67.363416 -141.73675,66.856009 C -140.83007,66.348602 -139.97963,64.629412 -139.86175,63.012259 C -139.66432,60.303662 -139.93014,60.043077 -143.29925,59.762259 C -146.47808,59.4973 -147.32353,59.899054 -149.67425,62.981009 C -151.86217,65.849513 -152.83466,66.41159 -154.79925,65.918509 C -156.40404,65.515731 -157.90865,65.932373 -159.2055,67.106009 C -161.13027,68.847908 -161.04486,68.938222 -155.893,72.387259 C -153.00398,74.321388 -147.7993,78.301766 -144.3305,81.231009 C -140.86169,84.16025 -137.84114,86.574759 -137.61175,86.574759 C -137.38238,86.574756 -133.83364,85.233465 -129.73675,83.606009 C -105.23785,73.874004 -82.099818,73.365367 -55.705508,82.012259 L -44.736758,85.606009 L -42.205508,82.324759 C -37.030738,75.641857 -31.535178,70.165625 -27.330508,67.481009 C -23.301128,64.908313 -23.145538,64.639372 -25.018008,63.637259 C -26.123698,63.045513 -27.824768,62.574759 -28.830508,62.574759 C -29.836248,62.574759 -31.131338,61.581615 -31.674258,60.387259 C -32.217178,59.192905 -33.849488,57.320536 -35.330508,56.231009 C -37.879588,54.355746 -38.159708,54.332343 -40.580508,55.918509 C -44.051768,58.192965 -43.794858,60.30831 -39.580508,64.168509 C -36.862998,66.657653 -35.910168,67.084398 -35.486758,65.981009 C -35.182038,65.186917 -35.651108,63.414262 -36.549258,62.043509 C -37.447408,60.672756 -37.748828,59.574759 -37.205508,59.574759 C -35.950588,59.574759 -34.143008,62.886817 -34.143008,65.199759 C -34.143008,67.165157 -39.907228,73.574759 -41.674258,73.574759 C -43.540298,73.574756 -56.905448,64.627501 -57.549258,62.949759 C -58.357188,60.844313 -58.317908,59.231009 -56.705508,59.231009 C -55.431198,59.231008 -54.682478,60.245501 -54.018008,58.543509 C -53.386558,56.926109 -55.621388,56.156256 -56.111758,56.043509 C -56.589668,55.933627 -55.672908,54.574759 -56.018008,53.199759 C -56.438578,51.524092 -56.622958,51.664988 -57.518008,51.324759 C -57.678518,51.263746 -57.837738,51.238749 -57.986758,51.231009 z M -91.500783,55.924166 C -91.138832,55.920968 -90.143408,57.682689 -89.769238,58.018657 C -87.176748,60.346493 -88.660648,60.370215 -90.111758,59.473382 C -90.650395,59.14049 -92.112892,59.013045 -93.361758,59.668509 C -95.620495,60.853998 -95.628556,60.830481 -93.736758,58.699759 C -92.827006,57.675113 -92.104035,55.929496 -91.500783,55.924166 z"
         id="Krona" />
      <g
         transform="matrix(0.7536534,0,0,1.0735534,-28.751531,0.5468582)"
         id="Hair">
        <path
           d="M -140.4494,82.717198 C -139.57217,80.5107 -126.00803,76.86942 -121.90074,76.529671 C -111.05013,73.888428 -97.56564,126.85937 -117.55117,139.25658 C -126.10005,144.55953 -138.25406,143.07123 -133.59375,133 C -131.24961,130.65586 -127.52633,131.20991 -129.65625,133.46875 C -133.01642,137.03232 -131.11798,139.93493 -128.1875,138.03125 C -120.72659,133.18454 -129.42281,128.49873 -134.3125,127.09375 C -136.99218,126.3639 -139.99845,125.03837 -141.1875,124.90625 C -143.95054,124.32599 -146.23561,123.17741 -148.375,121.34375 C -151.18657,119.17234 -152.21608,116.60992 -153.0625,113.1875 C -151.71223,102.32596 -146.83352,90.999343 -140.4494,82.717198 z"
           id="path2687" />
      </g>
      <path
         d="M -87.686936,77.072228 C -96.043343,77.074673 -105.50264,77.865677 -111.8775,79.446954 L -120.99646,81.695032 L -120.86981,92.840418 C -120.45143,125.43091 -119.63249,132.81661 -115.48709,141.37986 C -107.74661,153.7629 -91.335204,157.85329 -86.293762,155.75488 C -75.737337,151.36095 -69.892603,144.96588 -66.662683,136.28211 C -62.58226,120.34406 -62.661019,108.62404 -63.076303,91.926102 C -63.076303,91.926102 -63.076303,80.986007 -63.076303,80.986007 C -69.303457,78.762425 -80.528188,77.211713 -87.686936,77.072228 z"
         id="Huvud"
         style="stroke:#003d8f;stroke-width:1.5" />
      <path
         d="M -91.390169,137.47247 C -92.215169,137.09863 -93.022396,136.00526 -93.184006,135.04276 C -93.417855,133.65003 -92.75436,133.29276 -89.934006,133.29276 C -86.285879,133.29276 -85.186719,134.61698 -87.953551,135.67871 C -88.813411,136.00867 -89.236854,136.73181 -88.894534,137.2857 C -88.19593,138.41606 -89.150239,138.48748 -91.390169,137.47247 z M -79.752539,130.59706 C -80.135169,130.21442 -84.344519,129.98377 -89.10663,130.08449 C -95.560007,130.22098 -102.84597,129.97888 -102.00092,129.13383 C -100.65368,127.78659 -83.390169,126.81158 -83.390169,128.04838 C -83.390169,128.51905 -82.191169,128.87908 -80.725719,128.84845 C -79.260279,128.81782 -77.872779,129.35526 -77.642389,130.04276 C -77.194239,131.38009 -78.600189,131.74941 -79.752539,130.59706 z M -91.723502,123.62609 C -92.090169,123.25943 -92.390169,121.96694 -92.390169,120.7539 C -92.390169,118.95406 -93.125927,118.43072 -96.390169,117.90875 C -98.590169,117.55696 -100.39017,117.07874 -100.39017,116.84604 C -100.39017,115.24644 -98.24688,111.29276 -97.379736,111.29276 C -96.636634,111.29276 -96.639753,111.89059 -97.390169,113.29276 C -98.522405,115.40836 -98.233051,115.62292 -94.640169,115.33189 C -93.402669,115.23164 -92.390169,115.63183 -92.390169,116.22119 C -92.390169,116.81056 -91.688611,117.29276 -90.831152,117.29276 C -89.973693,117.29276 -89.53817,116.86231 -89.863324,116.3362 C -90.207067,115.78001 -89.190818,115.53956 -87.435336,115.76173 C -85.774789,115.97189 -84.215009,115.81835 -83.969149,115.42055 C -83.344019,114.40907 -84.685819,112.45173 -85.876469,112.63825 C -86.418939,112.72323 -87.014439,112.00526 -87.199799,111.04276 C -87.385159,110.08026 -87.067949,109.29276 -86.494879,109.29276 C -85.921809,109.29276 -85.713919,109.97286 -86.032899,110.8041 C -86.439219,111.86296 -86.153399,112.13913 -85.078199,111.72654 C -83.398319,111.08191 -80.886249,114.66838 -81.885349,116.28495 C -82.208559,116.80793 -84.475599,118.12166 -86.923209,119.20435 C -90.160488,120.63635 -91.21025,121.59805 -90.774796,122.73282 C -90.150098,124.36076 -90.582088,124.76751 -91.723502,123.62609 z M -86.869429,103.77202 C -86.719389,101.23865 -86.358329,98.92759 -86.067069,98.636327 C -85.775809,98.345063 -85.646179,100.16544 -85.779019,102.68161 C -85.911859,105.19778 -86.272919,107.50885 -86.581379,107.8173 C -86.889839,108.12576 -87.019459,106.30538 -86.869429,103.77202 z M -109.39017,97.386381 C -109.39017,96.887871 -108.37767,96.674626 -107.14017,96.912503 C -104.89172,97.344708 -104.89177,97.344169 -107.22211,96.129507 C -109.02906,95.187651 -109.9828,95.18177 -111.45854,96.103385 C -113.91356,97.63657 -113.93916,97.629992 -114.10539,95.42322 C -114.41231,91.348752 -105.00466,89.526665 -100.14017,92.718416 C -98.627669,93.710817 -97.390169,94.976127 -97.390169,95.530216 C -97.390169,96.10126 -98.039924,95.998402 -98.890169,95.292761 C -100.09157,94.295686 -100.39017,94.304489 -100.39017,95.336983 C -100.39017,96.045994 -100.67428,96.341982 -101.02153,95.994733 C -101.36878,95.647484 -102.59391,96.022484 -103.74404,96.828066 C -106.07172,98.458437 -109.39017,98.78658 -109.39017,97.386381 z M -109.52107,92.42669 C -110.10711,92.22535 -111.31983,92.793851 -112.216,93.690024 C -113.72188,95.195899 -113.6411,95.223652 -111.15048,94.056096 C -109.66826,93.361262 -108.93503,92.628029 -109.52107,92.42669 z M -100.39017,93.76801 C -100.39017,93.479397 -101.58845,92.787675 -103.05301,92.23085 C -104.96666,91.503281 -106.02172,91.551519 -106.80301,92.402305 C -107.59272,93.262262 -107.57343,93.408699 -106.73252,92.937526 C -106.09582,92.580772 -104.52082,92.711231 -103.23252,93.227435 C -100.27748,94.411487 -100.39017,94.390055 -100.39017,93.76801 z M -79.036299,95.828066 C -80.186429,95.022484 -81.411559,94.647484 -81.758809,94.994733 C -82.106059,95.341982 -82.390169,95.045994 -82.390169,94.336983 C -82.390169,93.304489 -82.688769,93.295686 -83.890169,94.292761 C -84.740419,94.998402 -85.390169,95.10126 -85.390169,94.530216 C -85.390169,93.976127 -84.152669,92.710817 -82.640169,91.718416 C -77.775679,88.526665 -68.368029,90.348752 -68.674949,94.42322 C -68.841179,96.629992 -68.866779,96.63657 -71.321799,95.103385 C -72.797539,94.18177 -73.751279,94.187651 -75.558229,95.129507 C -77.888569,96.344169 -77.888619,96.344708 -75.640169,95.912503 C -74.402669,95.674626 -73.390169,95.887871 -73.390169,96.386381 C -73.390169,97.78658 -76.708619,97.458437 -79.036299,95.828066 z M -70.390169,92.792761 C -71.074859,91.967761 -72.367459,91.299395 -73.262609,91.307503 C -74.357209,91.317417 -74.071519,91.776499 -72.390169,92.709455 C -69.080349,94.546019 -68.929889,94.552286 -70.390169,92.792761 z M -76.056249,91.932311 C -75.208389,92.407735 -75.186849,92.263098 -75.977329,91.402305 C -76.758619,90.551519 -77.813679,90.503281 -79.727329,91.23085 C -81.191889,91.787675 -82.390169,92.468259 -82.390169,92.743259 C -82.390169,93.018259 -81.227409,92.801178 -79.806249,92.260856 C -78.385099,91.720534 -76.697599,91.572689 -76.056249,91.932311 z M -97.502825,89.846771 C -97.74812,89.601477 -101.66377,89.290623 -106.20427,89.155985 C -112.33749,88.974119 -114.00091,88.653407 -112.67494,87.90842 C -111.046,86.993203 -102.3949,86.657073 -98.140169,87.343686 C -97.177669,87.49901 -96.390169,88.226094 -96.390169,88.959428 C -96.390169,90.340193 -96.734666,90.61493 -97.502825,89.846771 z M -86.390169,89.318441 C -86.390169,87.715182 -80.739019,85.292761 -76.998849,85.292761 C -71.486049,85.292761 -71.906129,86.956852 -77.588819,87.629882 C -80.420329,87.965233 -83.198979,88.701569 -83.763589,89.266186 C -85.060629,90.563223 -86.390169,90.589674 -86.390169,89.318441 z"
         id="Ansikte"
         style="fill:#003d8f" />
    </g>
    <path
       d="M 257.42183,99.887213 C 256.23008,97.634196 247.32688,105.24717 244.85524,107.60399 C 247.87469,104.69171 253.83693,101.19413 251.77719,99.449523 C 249.73487,97.719672 246.243,101.28793 243.35179,103.48826 C 241.10705,105.37212 237.86566,108.03689 234.97101,108.64405 C 233.10471,108.4771 229.54075,103.07545 226.74264,102.71594 C 223.62383,102.31523 229.08314,107.66226 227.91805,110.7736 C 227.44524,113.5699 231.67388,117.52568 234.98748,116.7953 C 237.28784,116.28825 243.38692,113.79811 251.32459,107.22896 C 255.43346,103.82849 258.61358,102.14023 257.42183,99.887213 z"
       id="R-hand"
       style="fill:#003d8f;stroke-linejoin:round" />
    <g
       id="Body"
       style="fill:#003d8f">
      <path
         d="M 107.32016,129.845 C 117.64431,122.44976 124.93285,112.06981 124.2964,105.5503 C 123.81045,100.57242 120.34496,98.732483 115.93464,97.562103 C 111.09549,96.277913 108.39497,102.55141 101.46746,109.9904 C 94.704746,117.25242 95.531016,118.26495 91.677186,118.592 C 89.887816,118.5806 87.973166,116.42643 85.301106,106.68231 C 83.702386,102.13985 83.864946,101.1968 76.125576,101.14043 C 71.417526,100.96422 70.984606,102.53004 71.905866,106.87737 C 75.457256,123.63598 80.960026,136.40717 88.215966,135.93093 C 94.381066,135.52628 101.35036,133.73023 107.32016,129.845 z"
         id="L-arm" />
      <g
         transform="translate(-67.347521,-77.484967)"
         id="Legs">
        <path
           d="M 269.95649,366.05813 C 270.49771,357.94878 265.23872,356.46074 257.12235,355.48013 C 253.50078,354.97707 248.49781,347.16705 255.7658,324.24732 C 259.87685,311.28305 262.78909,298.14839 263.03493,291.46232 C 263.26055,285.32698 264.41137,277.85207 265.59231,274.85143 C 269.37097,265.25029 264.87589,255.55833 256.4896,255.55833 C 250.18917,255.55833 236.22737,251.005 232.51403,252.74342 C 229.3615,254.2193 225.39264,253.71689 221.77427,262.61735 C 220.73494,265.17388 232.21995,265.95827 236.32455,271.87042 C 238.80606,275.13156 236.82485,276.24383 237.33008,281.91292 C 238.05817,283.07486 238.40898,289.04537 238.10966,295.18071 C 237.81034,301.31604 238.42055,307.61416 238.13717,315.05809 C 237.36632,326.97663 237.27366,338.84941 235.1586,350.64326 C 233.55671,358.39851 232.24608,365.60121 232.24608,366.15561 C 232.24608,366.15561 269.95649,366.05813 269.95649,366.05813 z"
           id="path3385" />
        <use
           transform="matrix(-1,0,0,1,444.06164,0)"
           id="use2411"
           x="0"
           y="0"
           width="319.98636"
           height="377.70605"
           xlink:href="#path3385" />
      </g>
      <path
         d="M 155.605,190.04174 C 173.40793,190.04174 164.05861,189.44033 197.89089,180.375 C 203.00851,180.9123 200.25638,177.93859 192.95339,171.6875 C 188.88343,168.20377 185.32139,163.74562 185.01589,161.78125 C 183.94396,154.88872 182.91803,151.7862 164.29714,151.84375 C 156.65118,152.00577 149.00585,151.81905 141.35964,151.84375 C 126.31969,151.96525 125.355,155.38105 124.35964,161.78125 C 124.05414,163.74562 120.46085,168.20377 116.39089,171.6875 C 109.0879,177.93859 106.36702,180.9123 111.48464,180.375 C 145.77912,189.56418 137.79328,190.04174 155.605,190.04174 z"
         id="Shirt-2" />
      <path
         d="M 192.41292,95.428163 C 197.22027,95.027353 199.48853,103.8292 202.03399,109.15523 C 204.70691,114.74797 204.19251,121.35237 208.4638,123.81917 C 211.03625,123.81917 219.96391,118.01136 222.55755,114.66292 C 223.4455,113.51656 225.78597,112.05976 227.62279,111.65482 C 227.62279,111.65482 234.13512,117.36331 234.13512,117.36331 C 233.47684,119.5698 231.89521,123.71917 230.2138,125.72542 C 224.16354,134.61198 213.72223,142.37183 206.1513,143.60042 C 199.58076,144.66667 199.51689,144.60885 193.6513,132.69417 C 188.44909,122.12695 183.83226,114.46232 184.95517,105.99742 C 185.82554,99.436243 190.05197,95.340033 192.41292,95.428163 z"
         id="R-arm" />
      <path
         d="M 154.68333,152.03584 C 144.60369,151.95256 134.89338,152.72711 126.64749,154.36679 C 119.856,154.36679 124.87103,141.61357 122.96389,123.04836 C 121.92313,112.91712 121.81009,94.746573 122.19292,94.363743 L 154.68333,95.759513 L 187.17374,94.363743 C 187.55657,94.746573 187.44353,112.91712 186.40277,123.04836 C 184.49563,141.61357 189.51066,154.36679 182.71917,154.36679 C 174.47328,152.72711 164.76297,151.95256 154.68333,152.03584 z"
         id="Shirt-1" />
      <path
         d="M 154.39218,97.037923 C 157.00307,97.636993 164.40352,106.3446 170.9638,105.06917 C 178.06318,105.11372 197.24505,99.065553 197.24505,97.412923 C 194.70537,93.400163 186.794,82.810173 182.4013,81.694173 C 179.39921,81.093763 175.62266,78.630533 174.0263,76.194173 C 172.42993,73.757803 170.06086,71.350453 169.59952,71.933453 C 168.03733,73.907603 159.29267,84.023573 154.39218,85.258513 C 149.49169,84.023573 140.74703,73.907603 139.18484,71.933453 C 138.7235,71.350453 136.35443,73.757803 134.75806,76.194173 C 133.1617,78.630533 129.38515,81.093763 126.38306,81.694173 C 121.99036,82.810173 114.07899,93.400163 111.53931,97.412923 C 111.53931,99.065553 130.72118,105.11372 137.82056,105.06917 C 144.38084,106.3446 151.78129,97.636993 154.39218,97.037923 z"
         id="Shirt-3" />
      <path
         d="M 154.65361,149.92128 C 144.05056,149.83367 133.88374,150.6166 125.12236,152.35878 C 123.9919,152.58315 123.25737,153.68145 123.48173,154.81191 C 123.7061,155.94236 124.8044,156.6769 125.93486,156.45253 C 134.32922,154.78333 144.28578,153.99187 154.65361,154.07753 L 154.68486,154.07753 L 154.71611,154.07753 C 165.08394,153.99187 175.0405,154.78333 183.43486,156.45253 C 184.56532,156.6769 185.66362,155.94236 185.88798,154.81191 C 186.11235,153.68145 185.37782,152.58315 184.24736,152.35878 C 175.48598,150.6166 165.25666,149.83368 154.65361,149.92128 z"
         id="Belt" />
    </g>
    <g
       id="Axe"
       style="fill:#003d8f">
      <rect
         width="145.81744"
         height="7.4641223"
         ry="0"
         x="-207.11801"
         y="53.931835"
         transform="matrix(-0.2271414,-0.9738618,0.9739372,-0.226818,0,0)"
         id="rect3205"
         style="stroke-width:1.20000005" />
      <path
         d="M 36.023736,24.964683 C 20.145647,40.292593 24.526009,69.895623 48.659516,76.682973 C 47.715126,66.655383 53.232486,52.974203 63.872356,50.041423 C 63.751326,47.952703 63.528516,43.597753 63.492396,41.373163 C 62.989216,41.461163 62.473856,41.488993 61.957506,41.555613 C 51.833666,42.861833 39.860626,33.760373 36.023736,24.964683 z M 64.054476,51.153183 C 70.795446,49.622673 70.861276,49.568803 78.009196,47.956043 C 74.215726,37.976213 67.325966,27.113003 64.890226,24.479653 C 63.567636,28.024843 62.804046,36.198653 64.054476,51.153183 z M 73.490666,37.374173 C 74.224996,39.283403 76.981776,45.416973 77.820786,46.967453 C 81.835106,46.113013 89.207596,44.556573 94.271606,46.104153 C 93.394756,43.998483 92.449136,31.069533 73.490666,37.374173 z"
         id="path2429" />
    </g>
    <path
       d="M 82.875,78.5625 C 81.768543,78.769969 80.055482,80.604077 78.0625,80.75 C 74.8462,80.98549 74.10536,80.210679 72.84375,81.53125 C 71.685778,82.743344 70.04519,99.790026 72.9375,101.5 C 73.66059,101.20265 74.694322,101.07145 76.125,101.125 C 77.033511,101.13162 77.824885,101.18331 78.53125,101.21875 C 78.570428,101.20115 78.624591,101.17525 78.65625,101.15625 C 79.36984,100.7281 79.61034,99.399363 80.78125,98.75 C 82.33196,97.89001 86.238168,96.696471 86.84375,95.15625 C 86.928345,93.542676 86.130956,92.629123 85.62188,91.664412 C 85.112805,90.699701 86.704754,90.00688 86.60105,88.74364 C 86.500784,87.522281 85.237189,87.306137 85.195453,86.584428 C 85.153717,85.862719 85.790578,85.562376 85.640489,84.258561 C 85.495191,82.996361 84.488209,82.668866 84.372362,81.976084 C 84.800951,79.998009 84.254095,78.761333 82.875,78.5625 z"
       id="L-hand"
       style="fill:#003d8f" />
  </g>
  <path
     d="M 249.55062,1.4395041 L 1.449569,1.4395041 L 1.449569,174.9361 C 0.68232904,268.65698 81.739009,302.75585 125.5001,302.75585 C 168.49395,302.75585 250.31785,268.65698 249.55062,174.9361 L 249.55062,1.4395041 z"
     id="Frame"
     style="fill:none;fill-opacity:0;stroke:#000000;stroke-width:1.88832211;stroke-linejoin:bevel" />
</svg>
