<?xml version="1.0" encoding="UTF-8" standalone="no"?>
<!-- Created with Inkscape (http://www.inkscape.org/) -->
<svg
   xmlns:svg="http://www.w3.org/2000/svg"
   xmlns="http://www.w3.org/2000/svg"
   version="1.0"
   width="237.00006"
   height="259.74127"
   id="svg2">
  <defs
     id="defs5" />
  <path
     d="M 1.5376216,1.5376216 L 1.5376216,161.92144 L 1.6426825,161.92144 C 1.6426825,215.06922 54.018291,258.20364 118.55256,258.20364 C 183.08682,258.20364 235.46244,215.06922 235.46244,161.92144 L 235.25065,161.92144 L 235.25065,1.5376216 L 1.5376216,1.5376216 z"
     id="CoA_Nr._11"
     style="fill:#ffcd50;fill-opacity:1;stroke:#000000;stroke-width:3.07524323" />
  <g
     transform="translate(-262.94081,2.5903042)"
     id="g2638">
    <path
       d="M 407.73985,237.34208 C 406.69702,236.29925 406.36727,234.09591 406.36727,228.17074 C 406.36727,222.51692 406.06698,220.37051 405.27544,220.36661 C 404.67494,220.36365 403.16313,219.82872 401.91586,219.17787 C 399.90368,218.12788 399.53564,218.17461 398.65016,219.59248 C 396.35328,223.27036 388.86118,223.11375 384.70781,219.30102 C 383.20795,217.92419 382.42464,217.64983 382.1545,218.4067 C 381.94016,219.00721 380.82055,219.49853 379.66648,219.49853 C 378.5124,219.49853 375.87677,219.9509 373.80953,220.5038 C 368.6822,221.87516 364.89216,220.98037 358.7663,216.95226 C 353.69555,213.61795 353.51313,213.57034 350.92843,214.90697 C 347.17309,216.84897 337.26419,217.84515 335.75008,216.43292 C 334.83911,215.58325 334.79668,214.91703 335.56244,213.4862 C 336.8559,211.06935 336.37453,211.14031 330.20354,214.27618 L 325.01072,216.91497 L 319.17723,215.26509 C 315.96881,214.35766 308.43052,212.31815 302.42548,210.73285 C 296.42044,209.14755 291.14815,207.53771 290.7093,207.15542 C 290.27045,206.77314 289.96874,204.57899 290.03886,202.27956 C 290.15098,198.60249 290.5774,197.72654 293.57787,195.00962 L 296.9894,191.9205 L 297.241,159.63447 C 297.37939,141.87716 297.18578,125.88899 296.81077,124.1052 C 296.07725,120.61615 297.61932,117.1592 301.83447,112.84331 C 302.95746,111.69348 306.7287,107.21518 310.21501,102.89155 C 321.07692,89.420863 321.68789,88.892233 328.78714,86.822553 C 332.30335,85.797463 340.09426,83.392563 346.10028,81.478334 C 352.1063,79.56411 357.6091,77.985573 358.32873,77.970477 C 360.10572,77.933198 362.32736,74.692861 363.10923,70.997946 C 363.79015,67.780139 366.36204,62.213665 370.17026,55.715439 C 371.90469,52.755858 372.15678,51.79411 371.1981,51.79411 C 368.61314,51.79411 362.01973,44.908345 360.59175,40.717459 C 358.66733,35.069591 358.80535,27.830813 360.92073,23.464051 C 363.27613,18.601775 368.45806,13.471434 373.17578,11.330984 C 377.86067,9.205427 387.56741,8.868785 392.72444,10.653012 C 397.28518,12.230937 402.54741,17.143865 405.12493,22.230355 C 407.48643,26.890545 408.02,35.152752 406.21527,39.113714 C 405.27962,41.167253 405.48637,41.668039 408.57619,44.832307 C 410.55798,46.861832 412.78534,48.300268 413.94622,48.300268 C 421.48268,48.300268 456.89251,67.36937 458.83286,72.472878 C 459.32544,73.768465 459.47047,83.260043 459.18873,95.763293 C 458.92719,107.37028 458.62881,129.83781 458.52568,145.69112 L 458.33817,174.51531 L 461.17692,179.52448 C 463.97623,184.46407 464.01566,184.691 464.01566,195.86299 L 464.01566,207.19233 L 459.21405,210.06995 C 446.96804,217.40904 422.89616,232.27356 418.31337,235.32639 C 412.85053,238.96543 409.92157,239.5238 407.73985,237.34208 z"
       id="path2369"
       style="fill:#000000" />
    <path
       d="M 414.03125,50.0625 C 411.97705,50.062501 414.72171,51.602648 419.46875,53.125 C 426.4925,55.377479 438.81347,61.721154 447.59375,67.625 L 455.28125,72.8125 L 455.28125,77.6875 C 455.28124,84.156223 453.20461,91.97824 449.59375,99.15625 C 446.26518,105.77312 440.27493,114.20045 437.84375,115.71875 C 436.1143,116.79882 436.39577,119.0625 438.25,119.0625 C 438.86395,119.0625 441.38066,116.59627 443.84375,113.59375 C 448.86763,107.46963 454.51963,97.02407 456.03125,91.09375 C 456.58229,88.931942 457.17731,84.06334 457.34375,80.25 C 457.62775,73.743346 457.50489,73.163701 455.40625,71.21875 C 448.96406,65.248338 419.24852,50.0625 414.03125,50.0625 z M 419.1875,54.4375 C 418.78449,54.430594 419.44377,55.615681 420.6875,57.09375 C 423.32635,60.229841 423.38639,60.465236 421.6875,64.53125 C 420.42452,67.553957 420.45144,67.812704 424.375,75.625 C 429.56437,85.957623 436.04834,105.47309 436.09375,110.9375 L 436.125,115.125 L 440,110.9375 C 442.1225,108.63148 445.50101,103.36105 447.5,99.25 C 451.82462,90.356132 453.51719,84.429314 453.53125,78.1875 L 453.53125,73.59375 L 445.46875,68.25 C 438.26948,63.48757 421.10293,54.470322 419.1875,54.4375 z M 331.46875,89.71875 C 331.16152,89.765961 330.73142,89.91313 330.15625,90.125 C 326.15081,91.600469 323.23937,92.05235 323.8125,91.125 C 324.12131,90.625341 323.98862,90.21875 323.53125,90.21875 C 323.07391,90.218751 322.4736,90.84819 322.1875,91.59375 C 321.88922,92.371061 322.03612,92.71226 322.53125,92.40625 C 323.00617,92.112746 323.375,92.12463 323.375,92.4375 C 323.37501,93.344291 321.41372,95.768203 306.4375,113.125 L 300.625,119.84375 L 303.5,120.34375 C 305.73802,120.73974 315.75694,122.20111 323.8125,123.3125 C 324.2929,123.37877 328.90934,121.56935 334.0625,119.28125 C 339.21566,116.99315 343.45757,114.82906 343.46875,114.46875 C 343.51815,112.87696 337.42136,114.07436 333.4375,116.4375 C 331.03549,117.86232 328.15832,119.02306 327.03125,119.03125 C 324.6356,119.04866 315.79204,116.73013 313.5625,115.5 C 312.44884,114.88554 311.05505,115.14995 308.53125,116.4375 C 306.61465,117.41527 305.04931,117.90131 305.0625,117.53125 C 305.09142,116.7199 312.4437,112.9453 314,112.9375 C 314.60589,112.93446 315.71745,111.81327 316.5,110.4375 C 317.36567,108.91561 319.83921,107.0316 322.8125,105.625 C 328.10957,103.11909 329.81112,100.94454 329.6875,96.8125 C 329.64378,95.350909 330.18094,93.28276 330.875,92.21875 C 332.15609,90.254818 332.39044,89.577116 331.46875,89.71875 z M 456.9375,94.40625 L 454.03125,100.40625 C 450.38963,107.9086 447.09961,112.74509 442.0625,118 C 439.89358,120.2627 437.84263,122.80465 437.53125,123.65625 C 437.21987,124.50786 436.28911,125.45738 435.4375,125.78125 C 434.58591,126.10512 433.15683,127.2998 432.28125,128.40625 C 430.21763,131.01402 425.20122,131.19683 423.875,128.71875 C 423.37768,127.78953 422.96875,126.25349 422.96875,125.3125 C 422.96876,123.54687 420.77913,122.16345 419.375,123.03125 C 418.65234,123.47789 418.24862,195.90625 418.96875,195.90625 C 419.13184,195.90625 423.72795,193.44277 429.1875,190.40625 C 434.64704,187.36973 442.53453,183.01256 446.71875,180.75 C 450.90298,178.48745 454.62053,176.18843 454.96875,175.625 C 455.31696,175.06159 455.69118,167.11886 455.8125,157.96875 C 455.9338,148.81865 456.25697,130.77528 456.5,117.875 L 456.9375,94.40625 z M 319.5625,94.8125 C 319.45664,94.824392 318.60248,95.672523 317.09375,97.28125 C 315.02437,99.487772 311.42736,103.82833 309.09375,106.90625 C 305.41395,111.75969 305.29649,112.02736 308.21875,108.90625 C 310.07196,106.92693 313.66898,102.58637 316.21875,99.28125 C 318.60888,96.183077 319.6986,94.79721 319.5625,94.8125 z M 346.375,98.4375 C 346.10184,98.442268 345.8887,98.611955 345.6875,98.9375 C 345.36884,99.453127 345.58009,99.757 346.15625,99.625 C 346.73241,99.492987 347.3494,99.858243 347.5625,100.4375 C 347.80801,101.10485 347.30113,101.37673 346.15625,101.15625 C 345.16249,100.96487 344.34375,101.15716 344.34375,101.59375 C 344.34374,102.30646 347.72377,102.21872 358.75,101.15625 C 360.67162,100.97109 363.13784,100.77757 364.21875,100.75 C 365.29966,100.72242 366.1875,100.21366 366.1875,99.59375 C 366.18751,98.73516 364.19655,98.51094 357.78125,98.6875 C 353.14939,98.814977 349.15431,99.12694 348.90625,99.375 C 348.6582,99.623047 347.94569,99.40581 347.34375,98.90625 C 346.96372,98.590854 346.64816,98.432732 346.375,98.4375 z M 358.0625,111.4375 C 355.68619,111.42414 346.62017,114.95857 334.03125,120.875 C 330.03951,122.751 326.42074,124.28125 325.96875,124.28125 C 325.51678,124.28125 325.125,124.87314 325.125,125.59375 C 325.12501,127.39612 325.78581,127.30738 333.125,124.25 C 336.65823,122.77812 342.29343,120.2316 345.65625,118.625 C 349.01908,117.0184 353.42621,115.05473 355.4375,114.25 C 357.70888,113.3412 358.92486,112.35624 358.65625,111.65625 C 358.59854,111.50587 358.40197,111.43941 358.0625,111.4375 z M 304.03125,113.8125 C 303.79106,113.8125 302.69078,114.79899 301.5625,116 C 300.4342,117.20101 299.6973,118.1875 299.9375,118.1875 C 300.17769,118.1875 301.30921,117.20101 302.4375,116 C 303.56578,114.79899 304.27146,113.8125 304.03125,113.8125 z M 362.3125,113.8125 C 360.26605,113.8125 356.57379,115.31749 343.34375,121.5 C 339.33374,123.37391 333.69492,125.80628 330.8125,126.9375 C 327.93009,128.06872 325.29872,129.2357 324.96875,129.5 C 324.63878,129.76429 324.09345,145.23019 323.75,163.875 L 323.125,197.78125 L 327.03125,195.875 C 330.4681,194.20524 330.87664,193.70288 330.5625,191.5625 C 330.36576,190.222 331.04424,187.22061 332.09375,184.875 C 335.6454,176.93711 338.22964,169.54538 337.71875,168.71875 C 337.17828,167.84423 340.67776,155.31222 343.90625,146.5625 C 344.9698,143.68008 346.52063,139.37077 347.375,136.96875 C 348.51283,133.76982 350.5998,130.94077 355.15625,126.46875 C 365.32101,116.49237 366.84816,113.8125 362.3125,113.8125 z M 431.59375,118.25 C 430.47045,118.3696 430.90235,119.21967 432.75,121.71875 C 435.23134,125.07494 436.2464,124.96527 435.90625,121.4375 C 435.67819,119.0721 435.22024,118.57405 433.21875,118.34375 C 432.49365,118.26032 431.96818,118.21013 431.59375,118.25 z M 415.09375,119.0625 L 415.09375,121.875 C 415.08934,123.43631 414.9907,140.73593 414.875,160.3125 C 414.6841,192.61707 414.94831,197.74963 416.6875,196.3125 C 416.83569,196.19006 416.9358,179.57467 416.90625,159.375 C 416.86482,131.06725 417.10357,122.48414 417.9375,121.96875 C 419.05062,121.2808 423.97815,121.42852 426.6875,122.21875 C 427.5282,122.46396 428.16293,123.31667 428.125,124.125 C 428.08235,125.03387 427.89745,125.17519 427.625,124.5 C 426.99832,122.94695 424.98876,123.16287 424.34375,124.84375 C 422.89713,128.61358 428.98339,130.08592 431.3125,126.53125 C 434.18757,122.14335 429.59712,119.0625 420.21875,119.0625 L 415.09375,119.0625 z M 299.03125,121.75 C 298.23651,121.81884 298.0625,122.09062 298.0625,122.5 C 298.06251,123.56802 299.97277,124.08546 306.34375,124.78125 C 309.22617,125.09605 313.17213,125.65584 315.09375,126.03125 C 320.16641,127.02227 323.375,127.04303 323.375,126.0625 C 323.37501,125.01576 321.99051,124.68517 310.1875,123 C 303.40611,122.03178 300.35581,121.63527 299.03125,121.75 z M 300.46875,126.21875 C 300.28699,126.23242 300.16199,126.24426 300.125,126.28125 C 299.82907,126.57719 299.56383,141.45409 299.5,159.34375 L 299.375,191.875 L 310.28125,194.625 C 316.28629,196.14049 321.28197,197.33934 321.375,197.28125 C 321.46801,197.22317 321.79665,181.83108 322.09375,163.0625 L 322.625,128.9375 L 311.65625,127.34375 C 306.37527,126.57863 301.74105,126.12304 300.46875,126.21875 z M 457.09375,176.8125 L 446.75,182.65625 C 441.06464,185.86553 432.49725,190.61428 427.71875,193.21875 L 419.03125,197.96875 L 416.96875,204.15625 C 415.839,207.55683 414.73138,210.80575 414.5,211.40625 C 413.87451,213.02954 415.09874,212.75441 419.46875,210.21875 C 421.63056,208.96437 424.98464,207.04056 426.90625,205.96875 C 432.43707,202.88381 453.60046,190.38304 457.6875,187.78125 C 459.72922,186.48149 461.40625,185.01518 461.40625,184.53125 C 461.40624,184.04734 460.43593,182.12863 459.25,180.25 L 457.09375,176.8125 z M 462.375,187.15625 L 458.1875,189.625 C 455.87381,190.98991 452.39037,193.09917 450.46875,194.3125 C 448.54714,195.52583 439.20671,200.93098 429.71875,206.3125 L 412.46875,216.09375 L 412.46875,226.125 L 412.46875,236.125 L 414.90625,234.875 C 416.24264,234.18392 426.37227,228.04377 437.40625,221.21875 C 448.44023,214.39372 458.45524,208.10072 459.65625,207.25 C 461.71608,205.79094 461.83326,205.18966 462.09375,196.4375 L 462.375,187.15625 z M 298.0625,193.15625 L 295.8125,194.9375 L 293.5625,196.6875 L 299.53125,198.46875 C 309.52795,201.41682 321.15293,204.52667 322.40625,204.59375 C 323.26801,204.63987 323.43086,203.99457 323,202.25 C 322.67372,200.92888 322.13881,199.61151 321.8125,199.3125 C 321.48619,199.01349 315.9916,197.50513 309.625,195.96875 L 298.0625,193.15625 z M 331.625,195.90625 C 331.35098,195.90625 325.15531,198.64203 324.40625,199.09375 C 324.24042,199.19376 324.36876,200.4863 324.6875,201.9375 C 325.31885,204.81196 325.97731,204.77284 332.125,201.59375 C 334.66615,200.27966 334.71666,200.15784 333.34375,198.0625 C 332.56564,196.875 331.79365,195.90625 331.625,195.90625 z M 416.03125,198.40625 C 415.81863,198.44741 415.5258,198.65615 415.15625,199.03125 C 414.48785,199.70969 409,213.1376 409,214.09375 C 409.00001,214.26003 409.63025,214.24908 410.40625,214.09375 C 411.28675,213.91752 412.80376,211.08911 414.4375,206.5625 C 416.40118,201.12176 416.95259,198.2279 416.03125,198.40625 z M 292.6875,198.78125 C 292.0755,198.91666 291.9375,199.82509 291.9375,202.28125 L 291.9375,206.15625 L 303.25,208.96875 C 309.47479,210.52254 316.28157,212.32492 318.34375,212.96875 C 324.08454,214.76107 324.25,214.68229 324.25,210.4375 L 324.25,206.625 L 309.625,202.96875 C 301.57824,200.96808 294.30945,199.1282 293.46875,198.875 C 293.14503,198.7775 292.8915,198.73611 292.6875,198.78125 z M 336.625,201.71875 C 335.94616,201.73498 333.68265,202.4859 331.1875,203.5625 L 326,205.8125 L 326,210 L 326,214.1875 L 330.46875,212.09375 C 332.92674,210.95495 335.23189,209.71291 335.59375,209.3125 C 336.40992,208.40938 337.39308,202.33058 336.8125,201.75 C 336.78327,201.72077 336.72198,201.71643 336.625,201.71875 z M 409.34375,216 C 408.11901,216.00001 408.00675,217.22977 408.40625,225.84375 C 408.93504,237.24483 408.77631,236.09375 409.875,236.09375 C 410.40668,236.09375 410.75,232.17673 410.75,226.0625 C 410.75001,217.43833 410.54328,216 409.34375,216 z"
       id="path2367"
       style="fill:#d40000" />
    <path
       d="M 396.25103,219.84181 C 397.01093,219.55021 397.63266,218.60962 397.63266,217.75161 C 397.63266,215.96344 395.9586,215.13123 392.36157,215.13123 C 389.70034,215.13123 385.40422,216.75345 385.40422,217.75833 C 385.40422,219.58868 393.07235,221.06159 396.25103,219.84181 z"
       id="path2363"
       style="fill:#eeeeee" />
    <path
       d="M 327.75583,116.13367 C 327.75583,114.83381 324.44668,113.06212 320.11305,112.04178 C 317.6982,111.47321 317.27431,111.61294 317.27431,112.97757 C 317.27431,114.13075 318.44069,114.93877 321.42324,115.85175 C 326.82037,117.50385 327.75583,117.5455 327.75583,116.13367 z"
       id="path2303"
       style="fill:#eeeeee" />
    <path
       d="M 339.5006,110.70636 C 340.58098,109.89899 340.89643,109.13182 340.3661,108.60148 C 339.09971,107.3351 328.56978,113.51185 329.19913,115.15191 C 329.60628,116.21294 330.39686,116.04857 333.7463,114.20649 C 335.97618,112.98014 338.56561,111.40508 339.5006,110.70636 z"
       id="path2301"
       style="fill:#eeeeee" />
    <path
       d="M 332.6623,110.18224 C 336.96326,107.75493 337.35034,107.31927 335.92454,106.51061 C 333.14006,104.93134 325.87289,105.53689 321.63113,107.70163 L 317.71104,109.7022 L 321.08739,110.87175 C 322.94438,111.515 324.78425,111.84321 325.17597,111.60112 C 325.5677,111.35901 326.13508,111.5604 326.43684,112.04864 C 327.19297,113.27211 327.181,113.2757 332.6623,110.18224 z"
       id="path2295"
       style="fill:#eeeeee" />
    <path
       d="M 353.19177,110.97106 C 359.39554,108.92871 360.29003,107.77269 358.04362,104.70055 C 357.00058,103.27411 356.07725,103.18824 348.65392,103.8273 C 341.00363,104.48591 340.65281,104.59695 343.69649,105.39641 C 347.22473,106.32315 347.8894,107.42506 345.44341,108.29249 C 344.6027,108.59064 343.21771,109.43375 342.36565,110.16606 C 341.16686,111.19638 341.06808,111.65724 341.92892,112.20357 C 343.78071,113.37881 346.92237,113.03502 353.19177,110.97106 z"
       id="path2293"
       style="fill:#ffcd50" />
    <path
       d="M 337.50331,88.440946 C 335.04443,88.352205 333.4879,89.310959 332.19081,91.409696 C 331.19082,93.027709 330.40288,95.099346 330.44081,96.003446 C 330.49251,97.235746 330.64217,97.329386 331.00331,96.347196 C 331.97152,93.714015 334.20206,91.972196 336.62831,91.972196 C 337.99506,91.972197 339.09706,92.318026 339.09706,92.753446 C 339.09706,92.983924 338.90176,93.133773 338.56581,93.190946 C 338.66336,93.884404 338.32574,95.846916 337.69081,96.815946 C 335.97875,99.428886 336.45832,99.497886 340.19081,97.222196 C 341.76373,96.263173 343.8503,95.721499 344.75331,95.472196 C 345.63448,95.228924 346.17415,95.136499 346.47206,95.159696 C 346.52119,94.747505 346.57051,94.308329 346.56581,93.815946 C 346.54116,91.236258 346.15147,90.807446 343.03456,89.722196 C 340.78161,88.937752 338.97864,88.494191 337.50331,88.440946 z"
       id="path2430"
       style="fill:#ffcd50" />
    <path
       d="M 346.37831,95.815946 C 345.65359,96.408459 343.96737,97.270471 342.15956,97.878446 C 340.71464,98.364386 338.88917,99.056356 338.09706,99.378446 C 337.30495,99.700536 336.41866,99.566996 336.12831,99.097196 C 335.39648,97.913066 336.98847,96.533561 337.47206,95.003446 C 337.75669,94.102829 338.01945,93.536671 338.19081,93.222196 C 337.96348,93.217282 337.71205,93.199377 337.44081,93.128446 C 336.19393,92.802376 334.9671,93.763826 332.65956,96.909696 C 330.95197,99.237676 329.54646,101.58104 329.53456,102.0972 C 329.52264,102.61337 331.37765,103.65068 333.65956,104.4097 C 338.80768,106.12207 339.97206,106.23307 339.97206,104.9722 C 339.97206,104.42678 340.8599,103.03397 341.94081,101.9097 C 344.8836,98.848836 345.99934,97.453076 346.37831,95.815946 z"
       id="path2426"
       style="fill:#eeeeee" />
    <path
       d="M 393.24029,48.136341 C 393.08504,46.627441 392.93994,45.261594 392.80323,44.026699 C 392.52983,41.55691 392.29002,39.610931 392.06978,38.091961 C 391.62929,35.054022 391.26704,33.724116 390.87075,33.327828 C 390.3939,32.850979 387.08241,32.23989 383.5119,31.969851 C 375.94131,31.397289 374.04924,32.491934 374.04924,37.444402 C 374.04924,40.202403 374.26044,40.439124 376.72117,40.439124 C 378.28004,40.439124 379.16822,40.07526 378.85327,39.565663 C 378.55637,39.08526 377.74705,38.692203 377.0548,38.692203 C 376.36255,38.692203 375.79616,38.299145 375.79616,37.818742 C 375.79616,36.822048 376.78329,36.708552 378.78183,37.475462 C 379.75157,37.847585 380.16345,39.149571 380.16345,41.842765 C 380.16345,43.953182 380.55651,45.729019 381.03691,45.789069 C 381.51732,45.84912 382.30343,45.947384 382.78384,46.007434 C 384.29077,46.195802 384.04236,47.849563 382.4614,48.15403 C 380.18523,48.592379 378.22855,46.547833 378.78861,44.316343 C 379.17565,42.774274 378.83587,42.302883 377.09784,41.970638 C 375.26842,41.620923 374.9227,41.888191 374.9227,43.652157 C 374.9227,48.733523 380.88422,55.691622 383.7306,53.932461 C 384.17068,53.660471 384.53076,53.825367 384.53076,54.298897 C 384.53076,54.772427 384.03943,55.324294 383.43893,55.525268 C 382.83843,55.726241 383.52628,55.724096 384.96749,55.5205 C 386.4087,55.316904 388.69967,54.360566 390.05855,53.395304 C 392.91819,52.087196 393.53736,51.048233 393.24029,48.136341 z"
       id="use2419"
       style="fill:#ffcd50" />
    <path
       d="M 384.91987,36.965736 C 383.80649,36.948235 382.79081,37.171236 382.79081,37.675423 C 382.79081,38.082718 383.96134,38.45307 385.4112,38.494292 C 386.86105,38.535514 387.81746,38.205828 387.54026,37.75731 C 387.2256,37.248177 386.03326,36.983238 384.91987,36.965736 z M 386.93975,39.859074 C 386.67813,39.839158 386.32592,39.860335 385.87522,39.88637 C 384.65701,39.956743 383.66462,40.486874 383.66427,41.087378 C 383.66345,42.555759 385.81853,42.493626 387.07623,40.978195 C 387.69419,40.233605 387.72462,39.918821 386.93975,39.859074 z M 382.46327,49.27607 C 380.61999,49.336341 378.4235,50.141911 378.42351,50.995696 C 378.42351,51.495298 378.81656,51.647445 379.29697,51.350539 C 379.77738,51.053633 380.17044,51.223924 380.17043,51.732678 C 380.17043,52.885501 381.63213,52.965837 382.32679,51.84186 C 382.61072,51.382438 383.42307,51.216397 384.1283,51.487017 C 384.83352,51.757635 385.4112,51.542574 385.4112,50.995696 C 385.4112,50.448818 384.82268,49.77137 384.10101,49.494435 C 383.66184,49.32591 383.07769,49.25598 382.46327,49.27607 z"
       id="path2279"
       style="fill:#000000" />
    <path
       d="M 372.67426,217.07442 C 369.91182,215.64363 368.6966,214.27196 369.31088,213.27804 C 369.52381,212.93351 368.22044,212.17145 366.4145,211.58455 C 364.60856,210.99765 360.62185,209.01331 357.55514,207.1749 C 352.70006,204.26441 344.6033,201.15586 341.87752,201.15586 C 340.16655,201.15586 338.23736,203.9158 338.23736,206.36354 C 338.23736,208.80641 338.28789,208.82882 344.56995,209.17131 C 350.26265,209.48167 351.50694,209.90185 356.88398,213.3297 C 364.20071,217.99409 367.74186,219.27227 371.97766,218.77776 L 375.22984,218.39809 L 372.67426,217.07442 z M 406.71489,215.79514 C 407.02618,214.23868 408.42305,209.81679 409.81902,205.96871 C 411.47044,201.41649 412.567,196.30889 412.95776,191.34874 L 413.55836,183.72527 L 410.23512,186.85949 C 405.46205,191.36107 400.62389,194.37213 398.78539,193.98529 C 397.56532,193.72858 397.90641,193.30547 400.25305,192.16468 C 401.93446,191.34729 405.57347,188.58749 408.33973,186.0318 L 413.36931,181.3851 L 413.1983,173.36936 C 413.00999,164.54315 412.50467,162.77442 410.76888,164.86591 C 410.15196,165.60925 409.00749,166.20502 408.22561,166.18984 C 407.17285,166.1694 407.42943,165.6118 409.21447,164.04081 C 411.58876,161.95122 413.35495,158.57068 413.35495,156.11578 C 413.35495,155.30994 412.43405,154.86245 410.77567,154.86245 C 409.35706,154.86245 407.18268,154.40058 405.9437,153.83606 C 403.17526,152.57468 398.10438,145.70911 394.76678,138.70343 C 392.06171,133.02543 389.26929,129.5321 387.43562,129.5321 C 385.93661,129.5321 385.97103,130.45252 387.55459,132.71337 C 388.2569,133.71604 389.8628,138.81498 391.12327,144.04434 C 395.43385,161.92775 397.62905,167.75781 401.30133,171.0755 C 403.12955,172.72719 405.41037,174.07858 406.36978,174.07858 C 407.32921,174.07858 408.11419,174.51425 408.11419,175.04674 C 408.11419,176.45965 403.93102,175.21534 401.01151,172.93399 C 397.34482,170.06881 394.6901,163.70234 391.17087,149.33457 C 388.03455,136.53002 386.11238,131.27902 384.56153,131.27902 C 384.12272,131.27902 384.73816,134.06814 385.92917,137.47707 C 387.12017,140.88599 388.47348,146.68359 388.93651,150.36061 C 389.39953,154.03764 390.32978,159.99403 391.00373,163.59706 C 395.26234,186.3643 397.63155,200.14794 397.63207,202.15949 C 397.63253,203.97581 398.38967,204.86789 401.1534,206.30843 C 403.08981,207.31774 405.44815,208.14354 406.39416,208.14354 C 407.34018,208.14354 408.11419,208.58244 408.11419,209.11888 C 408.11419,210.20239 406.64635,209.89439 401.7816,207.79005 C 398.69909,206.45665 398.50669,206.46392 398.51574,207.91346 C 398.54645,212.83439 399.73623,216.13804 401.90156,217.31486 C 405.29978,219.16174 406.09157,218.91175 406.71489,215.79514 z M 387.82323,214.53987 C 389.8369,213.6985 392.20066,213.4098 394.31176,213.74738 C 398.00011,214.33716 398.09745,214.12966 397.06453,207.87892 C 396.55304,204.78364 396.3304,204.57523 393.79866,204.82181 C 391.43179,205.05233 391.1126,205.38631 391.32143,207.41377 C 391.50039,209.15122 390.90401,210.20902 388.96849,211.58723 C 386.64437,213.24215 385.64699,213.37258 379.33908,212.84653 C 373.23648,212.33759 372.30232,212.44452 372.30232,213.65205 C 372.30232,214.41785 372.99017,215.46357 373.83087,215.97586 C 375.73443,217.1358 383.52342,216.33645 387.82323,214.53987 z M 394.09375,59.75 C 393.60023,59.800394 392.91259,60.363321 391.96875,61.40625 C 390.8771,62.612513 390.71532,63.15625 391.5,63.15625 C 392.125,63.15625 391.57716,64.142742 390.28125,65.34375 C 388.98533,66.544758 387.38223,67.53125 386.71875,67.53125 C 386.05527,67.531253 385.2779,68.307213 384.96875,69.28125 C 383.96371,72.447905 396.35543,93.088223 406.71875,105.5 C 409.12544,108.38242 411.23944,110.92997 411.40625,111.15625 C 411.57307,111.38254 412.05308,110.98794 412.5,110.28125 C 414.04489,107.83841 413.40735,112.29949 411.65625,116.15625 C 409.68403,120.50002 406.52877,122.79713 403.15625,122.34375 L 400.6875,122 L 403.3125,121.28125 C 406.10217,120.51362 409.50071,117.83499 410.84375,115.34375 C 411.47648,114.17007 410.80287,112.76511 407.8125,109.09375 L 403.9375,104.375 L 400.25,108.125 C 393.79117,114.70605 387.04349,116.79325 376.375,115.46875 L 369.53125,114.625 L 361.09375,122.65625 C 356.44994,127.07505 351.95741,131.76751 351.09375,133.09375 C 350.23009,134.41998 347.79024,140.55535 345.6875,146.71875 C 343.58475,152.88215 341.60897,158.59679 341.28125,159.4375 C 340.42356,161.63777 341.76079,161.30582 344.90625,158.53125 C 348.52598,155.33835 352.19157,153.57044 359.84375,151.375 C 367.26896,149.24468 370.9685,146.36116 375.28125,139.28125 C 381.5846,128.9335 385.17335,127.08491 399.0625,126.96875 C 402.60724,126.93911 406.6762,126.33758 408.53125,125.5625 C 412.55539,123.8811 413.34162,124.38157 410.09375,126.5625 C 408.31156,127.75922 405.69672,128.26177 400.25,128.46875 C 390.48264,128.83994 389.90468,129.06803 392.21875,131.53125 C 393.22697,132.60445 395.07386,135.84118 396.34375,138.71875 C 399.25927,145.32538 404.07849,151.23414 407.78125,152.78125 C 413.0874,154.9983 413.35822,154.35147 413.28125,140.5625 C 413.24334,133.76815 412.99306,128.81064 412.71875,129.53125 C 412.44445,130.25185 411.96081,131.04105 411.65625,131.28125 C 411.3517,131.52145 409.60309,133.58089 407.75,135.875 C 405.89692,138.16911 404.19416,139.88167 403.96875,139.65625 C 403.74334,139.43084 405.37886,136.94421 407.59375,134.125 C 409.80864,131.3058 411.59375,128.34495 411.59375,127.5625 C 411.59375,126.78005 411.98835,125.89065 412.46875,125.59375 C 412.94917,125.29684 413.34375,123.92517 413.34375,122.53125 C 413.34375,121.13733 413.95023,119.49444 414.6875,118.875 C 418.26465,115.86953 418.59375,115.23973 418.59375,111.5 C 418.59374,109.10926 418.93601,107.79575 419.46875,108.125 C 420.58994,108.81793 420.58472,113.44603 419.46875,115.53125 C 418.69452,116.97792 419.06963,117.18986 423.1875,117.53125 C 425.702,117.73971 429.22974,117.45728 431.03125,116.9375 L 434.3125,116 L 434.3125,110.90625 C 434.31251,104.82991 429.5609,90.428185 422.875,76.3125 C 419.56691,69.328236 418.31956,67.461678 417.53125,68.25 C 416.96585,68.815381 415.65546,69.25 414.625,69.25 C 413.59454,69.249999 412.05304,70.043577 411.1875,71 C 409.61628,72.736155 409.60801,72.747038 406.78125,71 C 404.34828,69.496345 403.87313,69.427281 403.4375,70.5625 C 403.15867,71.289097 401.92708,71.875 400.6875,71.875 C 398.88265,71.874997 398.09941,71.129067 396.75,68.15625 C 395.82322,66.114536 395.04181,63.383609 395.03125,62.0625 C 395.01846,60.460453 394.72828,59.685207 394.09375,59.75 z M 393.4375,90.15625 L 391.40625,93.03125 C 390.28979,94.615733 388.50081,96.89765 387.40625,98.09375 C 386.31169,99.289853 385.40625,100.47539 385.40625,100.75 C 385.40626,101.0246 384.12381,101.23535 382.5625,101.21875 C 381.0012,101.20215 376.12414,101.49452 371.71875,101.875 L 363.71875,102.5625 L 364.9375,105.53125 C 365.61977,107.16417 366.1875,109.47438 366.1875,110.65625 C 366.18751,112.62645 366.61389,112.84173 371.21875,113.34375 C 373.98108,113.64489 377.00794,114.04737 377.96875,114.21875 C 380.02873,114.58618 384.34543,114.16085 389.625,113.0625 C 392.39743,112.48574 394.59227,111.14197 397.71875,108.0625 C 400.07398,105.74269 402,103.48734 402,103.0625 C 402,102.63767 400.07157,99.55826 397.71875,96.21875 L 393.4375,90.15625 z M 379.875,135.15625 C 379.31613,135.37624 378.07243,137.06535 376.90625,139.25 C 371.80966,148.7977 368.68565,151.05139 355.75,154.53125 C 346.6346,156.98342 342.75249,161.5263 337.90625,175.46875 C 337.2221,177.43708 335.85176,180.6804 334.84375,182.65625 C 333.83576,184.63211 333,186.58103 333,187 C 332.99999,187.41897 335.07164,187.60439 337.59375,187.40625 C 343.78651,186.91973 347.40789,188.61196 354.59375,195.34375 C 357.84036,198.38522 361.2892,201.33287 362.25,201.875 C 364.32684,203.04683 368.67659,203.0838 377.5,202.0625 C 381.39196,201.612 384.84115,201.63687 386.125,202.125 C 387.30337,202.57302 388.4457,202.77306 388.65625,202.5625 C 389.07919,202.13958 387.27553,187.45155 384.09375,165.34375 C 382.95292,157.41709 381.743,147.46667 381.40625,143.25 C 381.06949,139.03334 380.46411,135.40446 380.0625,135.15625 C 380.0123,135.12522 379.95484,135.12482 379.875,135.15625 z M 343.03125,189.53125 C 342.61853,189.52128 342.33854,189.68085 342.25,190 C 341.2183,193.71881 340.42115,200.12707 341.03125,199.75 C 342.16756,199.04773 350.92466,201.84066 355.5,204.375 C 369.21574,211.97234 369.6875,212.09785 369.6875,207.71875 C 369.68749,204.85267 369.50511,204.65932 366.84375,204.65625 C 363.39923,204.65231 360.29148,202.75112 353.96875,196.84375 C 349.35223,192.53052 344.8197,189.57445 343.03125,189.53125 z M 343.71875,210.8125 C 340.0707,210.76332 339.00542,211.11564 338.28125,212.46875 C 337.78393,213.39799 337.375,214.35321 337.375,214.625 C 337.37501,215.69631 345.46942,215.0384 348.53125,213.71875 C 351.43145,212.46878 351.59139,212.23911 350.03125,211.59375 C 349.07044,211.1963 346.22396,210.84626 343.71875,210.8125 z M 379.70839,211.17084 C 385.00109,211.6668 386.22711,211.51574 387.85113,210.1675 C 390.65304,207.84138 389.57264,204.89577 385.52247,203.81864 C 382.70019,203.06806 372.84828,203.72553 371.98936,204.72177 C 371.81644,204.92233 371.42731,206.97727 371.12463,209.28831 C 370.61162,213.20524 370.67274,213.39174 372.02591,212.03857 C 373.2308,210.83369 374.53658,210.6862 379.70839,211.17084 z M 395.85329,202.30284 C 396.27606,201.93245 392.3106,177.7725 390.21719,167.96436 C 389.55071,164.84174 388.39342,158.15977 387.64544,153.11553 C 385.97542,141.85322 383.51715,132.55486 382.34711,133.07464 C 381.8667,133.28806 381.56931,133.74967 381.68624,134.10046 C 381.80317,134.45124 382.30547,138.57835 382.80246,143.2718 C 383.29945,147.96524 384.51111,156.91509 385.49505,163.16033 C 387.1825,173.87094 390.61761,200.28966 390.63636,202.70105 C 390.64232,203.46692 391.38739,203.63142 393.047,203.23328 C 394.36811,202.91634 395.63094,202.49764 395.85329,202.30284 z M 339.00681,198.31711 C 339.40622,197.23621 339.94868,194.68133 340.21226,192.63962 C 340.68241,188.99787 340.64226,188.92741 338.09682,188.92741 C 334.69807,188.92741 332.12314,190.35927 332.12314,192.24923 C 332.12314,194.08319 336.20841,200.2824 337.417,200.2824 C 337.89197,200.2824 338.60739,199.39802 339.00681,198.31711 z M 364.58354,109.44251 C 364.07368,105.66034 362.31608,102.90221 360.2263,102.60487 C 358.25396,102.32423 358.2403,102.37402 359.57938,104.96351 C 360.33175,106.41844 360.94733,108.63834 360.94733,109.89661 C 360.94733,111.76951 361.30372,112.13377 362.91262,111.90527 C 364.45139,111.68673 364.81402,111.15225 364.58354,109.44251 z M 378.38074,99.463223 C 384.4278,99.015973 383.994,99.322403 389.69752,91.468873 L 392.28404,87.907343 L 389.7438,84.070283 C 388.34668,81.959908 386.7301,79.04244 386.15139,77.587024 C 385.57269,76.131608 384.3384,73.836652 383.40852,72.487121 C 381.90833,70.309907 381.868,69.916227 383.05061,68.993279 C 383.78363,68.421197 384.52987,67.167015 384.7089,66.206208 C 384.89552,65.204691 385.66836,64.510383 386.52011,64.579034 C 387.33724,64.644896 387.82948,64.413485 387.61397,64.064789 C 387.39847,63.716093 388.80397,62.286506 390.73732,60.88793 L 394.25251,58.345064 L 393.73827,53.104301 C 393.73827,53.104301 392.86883,52.107659 392.86883,52.107659 C 392.99061,52.402563 392.26833,53.351218 390.61485,54.742535 C 388.58173,56.453297 386.91972,57.034873 384.06387,57.034873 L 380.23719,57.034873 L 380.47536,60.059079 C 380.60635,61.722391 380.29496,63.237313 379.7834,63.42557 C 379.27183,63.613827 379.71356,63.627192 380.76501,63.455271 C 383.26106,63.04715 384.13174,64.546349 382.4028,66.275298 C 381.65156,67.026533 381.03691,68.182686 381.03691,68.844528 C 381.03691,69.50637 379.72745,71.046662 378.12698,72.267399 C 374.7166,74.868626 370.55749,82.576403 370.55052,86.308343 C 370.54785,87.742643 370.19403,90.291883 369.76426,91.973303 C 369.33448,93.654713 368.75938,96.295563 368.48623,97.841863 C 368.01597,100.50406 368.11567,100.63279 370.36433,100.2669 C 371.67042,100.05438 375.27781,99.692723 378.38074,99.463223 z M 365.96973,96.061583 C 366.57023,95.677933 367.06581,94.502863 367.07101,93.450303 C 367.07621,92.397753 367.6658,89.607073 368.3812,87.248803 C 369.0966,84.890533 369.68194,82.620873 369.68194,82.205109 C 369.68194,81.789342 367.81804,82.441393 365.53995,83.654123 C 363.26185,84.866843 360.73913,85.859073 359.93389,85.859073 C 357.45537,85.859073 355.6862,84.853283 356.31598,83.802253 C 356.64564,83.252093 356.24083,83.349293 355.4164,84.018253 C 354.59196,84.687213 353.63276,84.949873 353.28481,84.601933 C 352.93688,84.253993 353.41456,83.411873 354.34633,82.730543 C 356.70685,81.00449 356.08593,81.136449 347.84542,84.112153 C 343.85432,85.553363 340.35458,86.738553 340.06821,86.745903 C 339.78185,86.753263 340.13714,87.140303 340.85774,87.605993 C 342.78188,88.849473 346.31966,88.662853 350.0037,87.123573 C 351.7885,86.377843 353.70351,85.958323 354.25931,86.191333 C 354.8151,86.424323 354.38546,86.883783 353.30455,87.212353 C 352.22364,87.540913 351.33927,88.156943 351.33927,88.581323 C 351.33927,89.005693 351.04447,89.306373 350.68417,89.249473 C 347.88589,88.807643 347.40463,89.460113 347.70871,93.283493 C 348.05416,97.626993 349.94221,98.656743 351.31204,95.248773 C 352.07054,93.361753 352.1042,93.355953 352.15736,95.103193 C 352.18781,96.104043 352.38244,97.092623 352.58987,97.300053 C 353.19185,97.902033 364.76584,96.830723 365.96973,96.061583 z M 363.95302,82.774183 C 366.11039,81.142429 364.6915,81.160915 361.82079,82.801953 C 360.55436,83.525913 360.18747,84.051583 360.94733,84.053423 C 361.66794,84.055163 363.0205,83.479503 363.95302,82.774183 z M 369.07868,76.917758 C 369.65068,76.218013 371.58619,74.771015 373.37982,73.70221 C 378.70242,70.530541 382.20452,64.896018 378.85327,64.896018 C 378.13267,64.896018 377.54308,65.444035 377.54308,66.113835 C 377.54308,66.783635 376.40456,68.550445 375.01303,70.04008 C 372.7078,72.507845 372.13875,72.701323 368.60889,72.217502 C 364.91631,71.711377 364.68325,71.810931 363.63471,74.342336 C 363.02966,75.803045 361.78443,77.677093 360.86751,78.506884 C 359.95061,79.336676 359.20041,80.526182 359.20041,81.150229 C 359.20041,82.490103 367.39306,78.979859 369.07868,76.917758 z"
       id="path2361"
       style="fill:#eeeeee" />
    <path
       d="M 373.17578,50.15386 C 373.17578,49.732125 372.57901,47.958814 371.84964,46.213168 C 368.45202,38.081517 371.29531,28.171774 378.30075,23.729056 C 383.5991,20.368936 387.4086,20.434798 392.75942,23.97903 C 395.04788,25.49485 397.33232,27.754929 397.83594,29.001428 C 400.27851,35.046947 401.17277,36.716399 402.71729,38.114166 C 404.32698,39.570919 404.41027,39.524222 404.9417,36.867061 C 406.54133,28.868904 404.63911,22.359023 399.03541,16.654292 C 391.31514,8.794833 376.73013,9.150137 367.89662,17.412862 C 362.70604,22.26804 360.89759,25.984126 360.82644,31.940977 C 360.75275,38.109569 362.78498,42.64523 367.6542,47.179659 C 371.58255,50.837917 373.17578,51.696108 373.17578,50.15386 z"
       id="path2247"
       style="fill:#eeeeee" />
    <path
       d="M 376.41269,65.072701 C 379.19294,59.906353 379.30579,59.37527 378.26872,56.338096 C 377.6614,54.559509 376.61174,52.318186 375.93612,51.35738 C 374.70775,49.610459 374.70775,49.610459 375.32626,51.35738 C 376.98496,56.042155 376.80951,58.563814 374.50899,63.103659 C 372.24139,67.578569 372.07307,67.707768 369.13245,67.230572 C 366.87541,66.864305 365.96385,67.084428 365.57845,68.088791 C 364.86713,69.94244 366.91061,71.074443 370.47536,70.801477 C 373.15677,70.596152 373.74645,70.027191 376.41269,65.072701 z M 403.35122,66.364219 C 403.67577,64.836103 404.51276,62.936998 405.21119,62.143985 C 406.088,61.148441 406.18554,60.519497 405.52631,60.112069 C 403.55815,58.895681 398.4456,67.918922 399.83198,70.162118 C 400.74141,71.633614 402.67534,69.546549 403.35122,66.364219 z M 411.96505,65.02634 C 413.37875,60.570963 413.37445,60.296251 411.87294,59.145752 C 409.70277,57.482916 407.60391,58.012917 407.99322,60.125451 C 408.16689,61.067852 408.50038,63.942376 408.7343,66.513284 C 409.22305,71.884828 409.88558,71.5799 411.96505,65.02634 z M 407.63657,66.295462 C 406.93987,62.581738 405.76042,62.219438 404.94492,65.46865 C 404.5171,67.173205 404.78527,68.097159 405.95634,68.953468 C 408.06294,70.493855 408.34153,70.053164 407.63657,66.295462 z M 403.1599,58.42507 L 406.25747,54.137774 L 403.37471,50.563926 C 401.78919,48.598309 399.16076,44.538133 397.53374,41.541313 C 394.34873,35.674761 393.06813,34.646115 393.71491,38.473837 C 393.93815,39.794946 394.72818,46.182126 395.47053,52.667571 C 396.2129,59.153015 397.05034,65.212624 397.33152,66.133369 C 397.77819,67.596021 397.98292,67.485707 398.95255,65.259908 C 399.56293,63.85876 401.45625,60.783083 403.1599,58.42507 z M 414.79332,64.910195 C 415.08001,63.476782 415.66121,62.518227 416.08488,62.780073 C 416.50856,63.041919 416.60194,64.312976 416.29239,65.604643 C 415.37962,69.413478 417.15074,66.914929 418.68193,62.233706 C 420.06437,58.007228 420.05708,57.944616 417.95263,55.971154 L 415.82693,53.977761 L 414.14134,56.055708 C 412.54945,58.018144 412.54011,58.195344 413.9734,59.243386 C 415.22259,60.156823 415.31613,60.716278 414.5022,62.406203 C 412.85373,65.828849 412.49114,67.516399 413.4042,67.516399 C 413.88154,67.516399 414.50665,66.343607 414.79332,64.910195 z M 373.49384,62.028069 C 374.97484,58.15015 375.35032,54.259803 374.34103,53.250512 C 373.81211,52.721601 367.18547,63.576713 367.09857,65.114383 C 367.07821,65.474685 368.18732,65.769478 369.56327,65.769478 C 371.70484,65.769478 372.27068,65.23086 373.49384,62.028069 z M 421.18934,60.965445 C 421.18934,59.518876 421.04377,59.443788 420.34264,60.528715 C 419.87694,61.24932 419.49593,62.62502 419.49593,63.585827 C 419.49593,65.032396 419.6415,65.107484 420.34264,64.022557 C 420.80833,63.301952 421.18934,61.926252 421.18934,60.965445 z M 408.48555,56.055639 C 407.9195,55.139742 406.36727,55.874986 406.36727,57.059008 C 406.36727,57.495982 406.9546,57.628127 407.67245,57.352664 C 408.39029,57.077201 408.75618,56.49354 408.48555,56.055639 z M 410.07189,48.466886 C 407.42307,45.733028 403.87055,41.806459 402.17739,39.741177 C 399.89727,36.959922 398.90192,36.280375 398.33926,37.120796 C 397.86424,37.830308 397.77762,37.399411 398.1081,35.970818 C 398.54482,34.08291 398.07615,33.224198 395.40927,31.025936 C 393.63425,29.56281 390.8023,28.106881 389.11605,27.790539 C 386.83656,27.362905 386.30337,26.962141 387.03737,26.228141 C 387.58035,25.685164 388.0246,24.729936 388.0246,24.105412 C 388.0246,22.088006 384.92613,22.898375 382.34711,25.590295 C 380.96634,27.031505 379.02579,28.216696 378.03476,28.224052 C 375.74146,28.241075 374.5645,29.038792 373.30654,31.428731 C 371.79486,34.300699 372.07924,34.468578 374.44627,32.101546 C 376.12849,30.419316 377.49227,29.958647 380.77885,29.962469 C 390.08264,29.973288 394.78411,33.088726 400.12121,42.779723 C 401.73011,45.701129 404.82593,50.12555 407.00082,52.611768 L 410.95515,57.132164 L 412.92152,55.28485 L 414.8879,53.437536 L 410.07189,48.466886 z M 372.83004,42.422606 C 372.53979,42.132363 372.33335,42.648251 372.37128,43.569023 C 372.41319,44.586555 372.62016,44.793528 372.89899,44.096739 C 373.1513,43.46621 373.12028,42.71285 372.83004,42.422606 z M 396.30591,28.990789 C 395.45955,26.907723 391.52352,24.527398 389.9436,25.143162 C 388.73926,25.612548 388.95272,25.929195 391.08205,26.831934 C 392.52344,27.44302 394.24995,28.602311 394.91873,29.408137 C 396.28919,31.059455 397.05305,30.829642 396.30591,28.990789 z M 381.55663,24.589738 C 383.19903,22.739979 383.19795,22.728293 381.47364,23.687028 C 380.51284,24.221247 379.13715,25.058536 378.41654,25.54767 C 377.26812,26.327204 377.27836,26.438657 378.49953,26.45038 C 379.26578,26.457737 380.64147,25.620448 381.55663,24.589738 z"
       id="path2267"
       style="fill:#eeeeee" />
    <g
       transform="matrix(-0.1091706,1.5810275e-2,1.5810275e-2,0.1091706,315.87353,74.066513)"
       id="Feather"
       style="fill:#eeeeee;fill-rule:evenodd;stroke:#000000;stroke-width:5">
      <path
         d="M -145.30348,229.33369 C -173.1345,215.95225 -190.164,202.14228 -201.4998,188.8354 C -189.27798,180.0919 -192.86889,180.77402 -203.87429,185.00983 C -209.05233,187.00277 -217.98933,187.12049 -228.01497,170.23521 C -235.71156,157.27252 -242.52575,151.76693 -242.52575,151.76693 C -233.8613,152.73597 -218.76343,150.00848 -244.76833,147.21582 C -255.9494,133.48266 -269.88821,121.58797 -283.02404,109.15798 C -257.64284,119.50219 -266.69704,108.48449 -287.70707,105.13454 C -301.72529,85.958142 -327.47702,75.653428 -355.77585,67.274576 C -336.24555,67.966188 -314.84996,67.188178 -306.43918,76.64063 L -306.57109,72.089519 C -287.594,76.809376 -242.76871,93.089452 -241.53554,96.643502 C -240.58822,99.373742 -237.47109,105.472 -235.89217,111.24165 C -235.40171,107.73948 -235.51207,103.87681 -236.26529,99.628432 C -223.03039,105.63167 -198.57698,123.91376 -197.50791,128.26504 C -196.8895,130.78208 -195.28233,149.96065 -196.6684,158.4874 C -192.09976,151.4065 -191.47014,142.53514 -190.65992,133.74586 C -186.00669,138.47351 -166.88857,146.16643 -170.45704,183.29958 C -166.50423,178.9177 -167.28931,171.90364 -166.16621,165.94971 C -153.49578,182.09941 -142.31905,206.04645 -142.79707,229.86135"
         id="path2768" />
      <path
         d="M -207.23815,156.91166 C -207.23815,156.91166 -262.84086,104.93666 -262.84086,104.93666 C -200.37445,154.64542 -148.59235,207.17009 -120.47024,265.61065 L -122.21813,265.61065 C -122.21813,265.61065 -125.64795,260.59784 -128.15436,258.48718 C -130.66077,256.37652 -138.31191,251.23178 -138.31191,251.23178 C -138.31191,251.23178 -144.89863,231.24492 -158.51734,211.84291 C -172.13606,192.4409 -191.16495,173.97169 -195.08266,169.86742 C -199.00038,165.76315 -207.23815,156.91166 -207.23815,156.91166 z"
         id="path1873" />
    </g>
  </g>
</svg>
