<?xml version="1.0" encoding="UTF-8" standalone="no"?>
<!-- Created with Inkscape (http://www.inkscape.org/) -->
<svg
   xmlns:svg="http://www.w3.org/2000/svg"
   xmlns="http://www.w3.org/2000/svg"
   xmlns:xlink="http://www.w3.org/1999/xlink"
   version="1.0"
   width="251"
   height="304.04999"
   id="svg2064">
  <defs
     id="defs2066" />
  <g
     id="Mjolby_kommunvapen">
    <path
       d="M 1.4495603,1.2894791 L 125.50006,1.2894791 L 249.55061,1.2894791 L 249.55061,174.78608 C 250.31785,268.50696 169.26117,302.60583 125.50008,302.60583 C 82.506226,302.60583 0.68233088,268.50696 1.4495603,174.78608 L 1.4495603,1.2894791 z "
       style="color:#000000;fill:#d40000;fill-opacity:1;fill-rule:nonzero;stroke:#000000;stroke-width:1.88832211;stroke-linecap:round;stroke-linejoin:bevel;marker:none;marker-start:none;marker-mid:none;marker-end:none;stroke-miterlimit:4;stroke-dashoffset:0;stroke-opacity:1;visibility:visible;display:block"
       id="Shield" />
    <path
       d="M 2.1945664,2.14055 L 2.1945664,48.729711 C 11.702873,53.342059 24.015965,60.693748 32.974472,70.99933 C 49.66047,90.194376 37.936906,100.38124 54.622902,119.5763 C 71.30891,138.77134 83.035186,128.58323 99.72121,147.77827 C 116.40722,166.97332 104.68365,177.16019 121.36964,196.35523 C 138.05564,215.55028 149.78193,205.36215 166.46795,224.55721 C 183.15396,243.75227 188.08533,273.13417 188.08532,273.13417 C 188.08532,273.13417 189.7469,276.44094 192.43364,280.99221 C 213.03562,268.03648 231.62378,248.45553 241.44544,220.79901 C 228.96384,203.81379 238.25556,193.71448 222.62342,175.73176 C 205.93741,156.5367 194.21112,166.72484 177.52511,147.52979 C 160.83911,128.33476 172.5627,118.14788 155.87668,98.952826 C 139.19067,79.757754 127.46437,89.945889 110.77837,70.750854 C 94.092344,51.555782 105.84699,41.368947 89.161,22.173889 C 75.651752,6.6332801 65.373635,10.345102 53.10099,2.14055 L 2.1945664,2.14055 z "
       style="color:#000000;fill:#ffcd50;fill-opacity:1;fill-rule:nonzero;stroke:none;stroke-width:1.88832211;stroke-linecap:round;stroke-linejoin:bevel;marker:none;marker-start:none;marker-mid:none;marker-end:none;stroke-miterlimit:4;stroke-dashoffset:0;stroke-opacity:1;visibility:visible;display:block"
       id="Stream" />
    <path
       d="M 195.57592,9.7095243 C 170.44026,9.7095243 150.04029,30.109488 150.04029,55.245157 C 150.04029,80.380815 170.44026,100.78079 195.57592,100.78079 C 220.71159,100.78079 241.11156,80.380815 241.11156,55.245157 C 241.11156,30.109488 220.71159,9.7095243 195.57592,9.7095243 z M 195.57592,21.093426 C 197.59251,21.093426 199.57464,21.269935 201.49556,21.605705 L 201.49556,39.30768 L 189.65629,39.30768 L 189.65629,21.605705 C 191.57722,21.269935 193.55934,21.093426 195.57592,21.093426 z M 179.63846,25.049338 L 179.63846,39.30768 L 165.3801,39.30768 C 168.59121,33.239369 173.57015,28.26044 179.63846,25.049338 z M 211.51339,25.049338 C 217.58171,28.26044 222.56064,33.239369 225.77174,39.30768 L 211.51339,39.30768 L 211.51339,25.049338 z M 161.93647,49.325522 L 179.63846,49.325522 L 179.63846,61.164786 L 161.93647,61.164786 C 161.60071,59.243865 161.4242,57.261743 161.4242,55.245157 C 161.4242,53.228565 161.60071,51.246443 161.93647,49.325522 z M 189.65629,49.325522 L 201.49556,49.325522 L 201.49556,61.164786 L 189.65629,61.164786 L 189.65629,49.325522 z M 211.51339,49.325522 L 229.21537,49.325522 C 229.55114,51.246443 229.72765,53.228565 229.72765,55.245157 C 229.72765,57.261743 229.55114,59.243865 229.21537,61.164786 L 211.51339,61.164786 L 211.51339,49.325522 z M 165.3801,71.182628 L 179.63846,71.182628 L 179.63846,85.440971 C 173.57015,82.229868 168.59121,77.250937 165.3801,71.182628 z M 189.65629,71.182628 L 201.49556,71.182628 L 201.49556,88.884601 C 199.57464,89.220368 197.59251,89.396882 195.57592,89.396882 C 193.55934,89.396882 191.57722,89.220368 189.65629,88.884601 L 189.65629,71.182628 z M 211.51339,71.182628 L 225.77174,71.182628 C 222.56064,77.250937 217.58171,82.229868 211.51339,85.440971 L 211.51339,71.182628 z "
       style="fill:#ffcd50;fill-opacity:1;fill-rule:evenodd;stroke:none;stroke-width:1.88800001;stroke-linecap:butt;stroke-miterlimit:4;stroke-opacity:1"
       id="Kvarnhjul" />
    <use
       transform="translate(-132.2658,158.0738)"
       id="use2279"
       x="0"
       y="0"
       width="251"
       height="304.04999"
       xlink:href="#Kvarnhjul" />
  </g>
</svg>
