<?xml version="1.0" encoding="UTF-8" standalone="no"?>
<!-- Created with Inkscape (http://www.inkscape.org/) -->

<svg
   xmlns:dc="http://purl.org/dc/elements/1.1/"
   xmlns:cc="http://web.resource.org/cc/"
   xmlns:rdf="http://www.w3.org/1999/02/22-rdf-syntax-ns#"
   xmlns:svg="http://www.w3.org/2000/svg"
   xmlns="http://www.w3.org/2000/svg"
   xmlns:xlink="http://www.w3.org/1999/xlink"
   version="1.0"
   width="251"
   height="304.20001"
   id="svg4166">
  <metadata
     id="metadata1880"><rdf:RDF><cc:Work
         rdf:about=""><dc:title>Mullsjo kommunvapen</dc:title><dc:date>15-10-2007</dc:date><dc:creator><cc:Agent><dc:title>Lokal_Profil</dc:title></cc:Agent></dc:creator><cc:license
         rdf:resource="http://creativecommons.org/licenses/by-sa/2.5/" /><dc:rights><cc:Agent><dc:title>cc-by-sa-2.5</dc:title></cc:Agent></dc:rights><dc:format>image/svg+xml</dc:format><dc:type
         rdf:resource="http://purl.org/dc/dcmitype/StillImage" /></cc:Work><cc:License
         rdf:about="http://creativecommons.org/licenses/by-sa/2.5/"><cc:permits
         rdf:resource="http://web.resource.org/cc/Reproduction" /><cc:permits
         rdf:resource="http://web.resource.org/cc/Distribution" /><cc:requires
         rdf:resource="http://web.resource.org/cc/Notice" /><cc:requires
         rdf:resource="http://web.resource.org/cc/Attribution" /><cc:permits
         rdf:resource="http://web.resource.org/cc/DerivativeWorks" /><cc:requires
         rdf:resource="http://web.resource.org/cc/ShareAlike" /></cc:License></rdf:RDF>
  </metadata>
  <defs
     id="defs4168">
    <clipPath
       id="clipPath3078">
      <use
         transform="matrix(0,-1.1416685,1,0,44.55523,304.64819)"
         id="use3080"
         x="0"
         y="0"
         width="1"
         height="1"
         xlink:href="#Shield" />
    </clipPath>
  </defs>
  <path
     d="m 249.55058,1.4395041 -248.1010509,0 0,173.4965959 C 0.68228908,268.65698 81.738969,302.75585 125.50006,302.75585 c 42.99385,0 124.81775,-34.09887 124.05052,-127.81975 l 0,-173.4965959 z"
     id="Shield"
     style="fill:#eeeeee" />
  <g
     transform="matrix(0,1,-0.875911,0,266.8447,-44.55523)"
     clip-path="url(#clipPath3078)"
     id="g3050"
     style="fill:#003d8f;stroke:none">
    <g
       transform="matrix(1,0,0,0.97777493,-222.83595,-69.367129)"
       id="g3052">
      <path
         d="m 372.41494,111.83097 -7.6711,0 c -3.37643,-4.87909 -8.05778,-9.95158 -11.61802,-13.321307 0.10889,3.103247 0.45342,6.324107 0.37872,9.092597 -3.57635,-4.72716 -8.29341,-9.285407 -11.59493,-12.335827 0.26112,2.72956 0.59889,5.507337 0.65333,8.111927 -4.94093,-6.634157 -7.32974,-8.660297 -12.27134,-12.444197 5.07597,-4.05228 7.56255,-6.00787 12.36303,-12.41139 -0.009,2.6933 -0.30619,5.49073 -0.59105,7.84853 3.62295,-3.27215 8.08653,-7.22496 11.7097,-11.84065 0.034,3.22972 -0.22126,6.53348 -0.37088,9.09297 3.40366,-3.73299 7.88683,-8.435177 11.29047,-13.175857 l 7.52507,0"
         id="Gran" />
      <use
         transform="translate(0,82.766405)"
         id="use3056"
         x="0"
         y="0"
         width="251"
         height="304.20001"
         xlink:href="#Gran" />
      <use
         transform="translate(0,124.14961)"
         id="use3058"
         x="0"
         y="0"
         width="251"
         height="304.20001"
         xlink:href="#Gran" />
      <use
         transform="translate(0,165.53281)"
         id="use3060"
         x="0"
         y="0"
         width="251"
         height="304.20001"
         xlink:href="#Gran" />
      <use
         transform="translate(0,206.91601)"
         id="use3062"
         x="0"
         y="0"
         width="251"
         height="304.20001"
         xlink:href="#Gran" />
      <use
         transform="translate(0,248.29921)"
         id="use3064"
         x="0"
         y="0"
         width="251"
         height="304.20001"
         xlink:href="#Gran" />
      <use
         transform="translate(0,289.68241)"
         id="use3066"
         x="0"
         y="0"
         width="251"
         height="304.20001"
         xlink:href="#Gran" />
      <use
         transform="translate(0,41.383201)"
         id="use3070"
         x="0"
         y="0"
         width="251"
         height="304.20001"
         xlink:href="#Gran" />
    </g>
    <rect
       width="209.32619"
       height="384.77045"
       x="142.33604"
       y="-20.172415"
       id="rect3068" />
  </g>
  <path
     d="m 170.59964,105.45942 -6.55872,10.95374 -3.4484,-7.64058 -7.3701,3.3808 5.81494,12.71173 -10.48042,17.58007 -3.8541,-9.33096 4.39503,-4.73309 -5.95018,-5.54449 -1.89325,2.02847 -1.28468,-3.11031 -7.50535,3.0427 1.01423,2.50178 -1.75799,-0.27046 -1.35233,8.04626 6.8292,1.08185 6.15301,15.01068 -6.69394,11.2242 -0.94662,-2.36656 -7.57296,2.90748 3.24556,8.31672 -7.16726,11.96797 -5.34164,-9.33096 5.34164,-9.0605 -6.96442,-4.12455 -3.04269,5.13879 -6.28827,-10.95374 10.54804,-17.37722 8.51958,-0.47331 -0.47331,-8.11388 -2.97509,0.13524 2.97509,-4.86833 -6.96441,-4.19218 -3.24556,5.34164 -1.48755,-2.56939 -7.03202,4.05693 3.65125,6.49111 -8.18149,13.52313 -12.035593,-20.96085 5.679717,-13.04982 -7.370108,-3.24556 -3.313168,7.64057 -5.74733,-9.9395 c -2.344023,1.35232 -4.688026,2.70462 -7.032027,4.05694 l 6.35587,11.02135 -8.38434,-0.67616 -0.608541,8.04627 13.928824,1.14946 10.209968,17.71531 -10.007121,-1.14947 -2.028469,-6.22065 -7.708185,2.5018 0.879003,2.70461 -3.380782,-0.40568 -0.946619,8.04626 2.704626,0.33807 -1.149466,1.41993 6.288256,5.07118 4.327401,-5.40925 16.092524,1.89323 6.4911,11.29182 -2.50177,-0.33808 -1.08185,8.04626 8.72241,1.21709 7.37011,12.84696 -11.49466,-0.13523 -5.13879,-9.19573 -7.099649,3.92172 2.839867,5.13879 -12.576516,-0.0676 -9.669039,-17.85053 3.921708,-7.64056 -7.234874,-3.71886 -1.352313,2.63701 -2.704626,-5.00357 -7.16726,3.85411 3.042704,5.54447 -3.042704,0 -0.06762,8.11388 7.505336,0.0676 7.505339,13.92882 -24.206415,-0.20284 -8.384341,-11.49467 -6.558718,4.73311 4.868326,6.69393 -11.427044,-0.0676 -0.06762,8.11387 12.779358,0.0676 -4.868327,6.8968 6.626335,4.66548 8.046262,-11.42704 20.487553,0.13523 -6.085409,8.04626 -6.355871,-1.41993 -1.758007,7.91103 2.704626,0.60855 -2.028469,2.70462 6.423486,4.93595 1.622776,-2.16371 0.676156,1.69039 7.64057,-2.90746 -2.501779,-6.42349 9.80427,-12.91459 13.049817,0.13522 -1.555153,1.96086 6.355875,5.07118 5.47686,-6.96442 10.54804,0.0676 -6.22065,11.08896 -10.54803,0 0,8.11388 5.95018,0 -6.22064,11.02136 -20.352313,-0.20285 -4.733097,-7.09964 -6.761564,4.46263 1.622774,2.50178 -5.679713,-0.0676 -0.06762,8.11388 6.288256,0.0676 -1.487544,2.637 7.032028,3.98933 3.718861,-6.55872 15.88968,0.20285 -11.900357,21.09607 -14.199287,1.6904 1.014235,8.04626 8.24911,-1.01423 -5.6121,10.00712 7.032027,3.98932 6.288257,-11.08896 3.58363,7.50533 7.302493,-3.51601 -6.085412,-12.57651 10.007116,-17.78292 4.12456,9.19573 -4.3274,4.86833 6.08541,5.34163 1.82562,-2.09609 1.41992,3.17794 7.43772,-3.31316 -1.08184,-2.50179 1.758,0.27048 1.14947,-8.04627 -6.82918,-1.01424 -6.55872,-14.74021 6.42348,-11.42705 1.01424,2.36655 7.50535,-3.11032 -3.4484,-8.1815 6.55872,-11.56226 6.28825,10.88611 -4.7331,8.31673 7.03203,3.98932 2.43415,-4.19218 6.35588,11.02136 -9.66904,16.43061 -8.51956,0.60854 0.54092,8.04626 3.0427,-0.20285 -2.97509,5.00356 7.03203,4.05694 3.17794,-5.40925 1.55517,2.5694 6.9644,-4.12456 -3.78647,-6.4911 7.30248,-12.37367 12.30604,21.29893 -4.8007,11.35943 7.50534,3.17793 2.43416,-5.74733 4.12456,7.16727 7.03203,-4.12456 -5.95019,-10.3452 10.20997,0.74378 0.60855,-8.11388 -15.28114,-1.01423 c -0.13491,-0.0136 -0.27032,0 -0.4057,0 l -10.27758,-17.71531 11.56228,1.21709 2.02847,6.22063 7.70818,-2.63701 -0.879,-2.63701 3.38077,0.33808 0.87902,-8.04625 -2.77224,-0.27047 1.14946,-1.48755 -6.42349,-5.00356 -4.25979,5.47687 -17.37722,-1.82562 -6.4911,-11.2242 3.65124,0.47331 1.01424,-8.04626 -9.80427,-1.28471 -6.08541,-10.54804 12.03559,-0.27045 5.40924,8.99288 6.96442,-4.12456 -3.0427,-5.13879 12.64413,-0.27045 10.20996,17.58006 -3.71886,7.70819 7.30249,3.51601 1.28469,-2.77225 2.90748,5.00356 7.03203,-4.05693 -3.17794,-5.47687 2.97509,-0.0676 -0.13523,-8.11387 -7.50534,0.13522 -7.91103,-13.65836 24.13878,-0.54093 8.72243,11.29182 6.42349,-4.93595 -5.07118,-6.62633 11.42705,-0.27046 -0.20285,-8.11387 -12.64413,0.27046 4.59786,-6.89679 -6.82917,-4.46264 -7.64057,11.62989 -20.55517,0.47331 5.88257,-8.18149 6.42349,1.21708 1.48754,-7.97865 -2.77224,-0.54093 2.02847,-2.77224 -6.62633,-4.73309 -1.62279,2.23131 -0.67615,-1.69039 -7.50533,3.11032 2.70462,6.35587 -9.39858,13.25267 -13.11743,0.33808 1.55515,-2.09609 -6.49109,-4.86833 -5.34163,7.16727 -14.06407,0.33808 8.45196,-14.13168 10.48043,0.20285 0.20284,-8.11388 -5.88255,-0.13524 6.4911,-10.81849 20.28469,0.74376 4.53025,7.16726 6.8968,-4.3274 -1.55517,-2.50177 5.67972,0.20284 0.27046,-8.11387 -6.35587,-0.20286 1.55516,-2.56939 -6.89679,-4.25979 -3.8541,6.49111 -15.82206,-0.60853 12.37366,-20.75802 14.19929,-1.3523 -0.74377,-8.11388 -8.31673,0.81138 5.88256,-9.80428 -6.96441,-4.19216 z"
     id="Snowflake"
     style="fill:#eeeeee" />
  <path
     d="m 249.55062,1.4395041 -248.101051,0 0,173.4965959 c -0.76723996,93.72088 80.28944,127.81975 124.050531,127.81975 42.99385,0 124.81775,-34.09887 124.05052,-127.81975 l 0,-173.4965959 z"
     id="Frame"
     style="fill:none;stroke:#000000;stroke-width:1.88832211;stroke-linejoin:bevel" />
  <metadata
     id="metadata3084">
    <rdf:RDF>
      <cc:Work
         rdf:about="">
        <dc:title></dc:title>
      </cc:Work>
    </rdf:RDF>
  </metadata>
</svg>
