<?xml version="1.0" encoding="UTF-8" standalone="no"?>
<!-- Created with Inkscape (http://www.inkscape.org/) -->
<svg
   xmlns:dc="http://purl.org/dc/elements/1.1/"
   xmlns:cc="http://web.resource.org/cc/"
   xmlns:rdf="http://www.w3.org/1999/02/22-rdf-syntax-ns#"
   xmlns:svg="http://www.w3.org/2000/svg"
   xmlns="http://www.w3.org/2000/svg"
   xmlns:xlink="http://www.w3.org/1999/xlink"
   version="1.0"
   width="251"
   height="304.20001"
   id="svg4166">
  <metadata
     id="metadata1880"><rdf:RDF><cc:Work
         rdf:about=""><dc:title>Habo kommunvapen</dc:title><dc:date>24-09-2007</dc:date><dc:creator><cc:Agent><dc:title>Lokal_Profil</dc:title></cc:Agent></dc:creator><cc:license
         rdf:resource="http://creativecommons.org/licenses/by-sa/2.5/" /><dc:rights><cc:Agent><dc:title>cc-by-sa-2.5</dc:title></cc:Agent></dc:rights><dc:format>image/svg+xml</dc:format><dc:type
         rdf:resource="http://purl.org/dc/dcmitype/StillImage" /></cc:Work><cc:License
         rdf:about="http://creativecommons.org/licenses/by-sa/2.5/"><cc:permits
         rdf:resource="http://web.resource.org/cc/Reproduction" /><cc:permits
         rdf:resource="http://web.resource.org/cc/Distribution" /><cc:requires
         rdf:resource="http://web.resource.org/cc/Notice" /><cc:requires
         rdf:resource="http://web.resource.org/cc/Attribution" /><cc:permits
         rdf:resource="http://web.resource.org/cc/DerivativeWorks" /><cc:requires
         rdf:resource="http://web.resource.org/cc/ShareAlike" /></cc:License></rdf:RDF>
  </metadata>
  <defs
     id="defs4168">
    <clipPath
       id="clipPath6360">
      <use
         transform="matrix(1.621873,0,0,1.621873,-7.919951,-80.49513)"
         id="use6358"
         x="0"
         y="0"
         width="1"
         height="1"
         xlink:href="#Shield" />
    </clipPath>
    <clipPath
       id="clipPath6365">
      <use
         transform="matrix(1.621873,0,0,1.621873,-7.919951,-80.49513)"
         id="use6363"
         x="0"
         y="0"
         width="1"
         height="1"
         xlink:href="#Half-shield" />
    </clipPath>
  </defs>
  <path
     d="M 249.55058,1.4395041 L 125.50005,1.4395041 L 1.4495291,1.4395041 L 1.4495291,174.9361 C 0.68228908,268.65698 81.738969,302.75585 125.50006,302.75585 C 168.49391,302.75585 250.31781,268.65698 249.55058,174.9361 L 249.55058,1.4395041 z "
     style="color:#000000;fill:#eeeeee;fill-opacity:1;stroke:none"
     id="Shield" />
  <g
     transform="matrix(0.616571,0,0,0.616571,4.883212,49.63096)"
     clip-path="url(#clipPath6360)"
     id="fence">
    <rect
       width="8.9567595"
       height="133.37975"
       rx="4.4783802"
       ry="3.9858117"
       x="23.359556"
       y="77.2146"
       style="fill:#225500;fill-opacity:1;stroke:none"
       id="pole" />
    <rect
       width="10.443262"
       height="381.72348"
       rx="5.2216301"
       ry="11.407115"
       x="183.72923"
       y="-338.16821"
       transform="matrix(0.258819,0.965926,-0.965926,0.258819,0,0)"
       style="fill:#225500;fill-opacity:1;stroke:none"
       id="cross-beam" />
    <use
       transform="translate(110.6371,0)"
       id="pole-2"
       x="0"
       y="0"
       width="251"
       height="304.20001"
       xlink:href="#pole" />
    <use
       transform="translate(110.6368,0)"
       id="cross-beam-2"
       x="0"
       y="0"
       width="251"
       height="304.20001"
       xlink:href="#cross-beam" />
    <use
       transform="translate(-110.6372,0)"
       id="cross-beam-4"
       x="0"
       y="0"
       width="251"
       height="304.20001"
       xlink:href="#cross-beam" />
    <use
       transform="translate(-221.2742,0)"
       id="cross-beam-5"
       x="0"
       y="0"
       width="251"
       height="304.20001"
       xlink:href="#cross-beam" />
    <use
       transform="translate(-331.9112,0)"
       id="cross-beam-7"
       x="0"
       y="0"
       width="251"
       height="304.20001"
       xlink:href="#cross-beam" />
  </g>
  <path
     d="M 249.55058,1.4395041 L 125.50005,1.4395041 C 125.50005,1.4395041 125.50006,302.75585 125.50006,302.75585 C 168.49391,302.75585 250.31781,268.65698 249.55058,174.9361 L 249.55058,1.4395041 z "
     style="color:#000000;fill:#225500;fill-opacity:1;stroke:none"
     id="Half-shield" />
  <g
     transform="matrix(0.616571,0,0,0.616571,4.883212,49.63096)"
     clip-path="url(#clipPath6365)"
     id="fence-2">
    <rect
       width="10.443262"
       height="381.72348"
       rx="5.2216301"
       ry="11.407115"
       x="183.72923"
       y="-338.16821"
       transform="matrix(0.258819,0.965926,-0.965926,0.258819,0,0)"
       style="fill:#eeeeee;stroke:none"
       id="cb" />
    <rect
       width="8.9567595"
       height="133.37975"
       rx="4.4783802"
       ry="3.9858117"
       x="244.63376"
       y="77.2146"
       style="fill:#eeeeee;stroke:none"
       id="pole-3" />
    <use
       transform="translate(110.6371,0)"
       id="pole-4"
       x="0"
       y="0"
       width="251"
       height="304.20001"
       xlink:href="#pole-3" />
    <use
       transform="translate(110.6368,0)"
       id="use6279"
       x="0"
       y="0"
       width="251"
       height="304.20001"
       xlink:href="#cb" />
    <use
       transform="translate(221.2738,0)"
       id="use6281"
       x="0"
       y="0"
       width="251"
       height="304.20001"
       xlink:href="#cb" />
    <use
       transform="translate(-110.6372,0)"
       id="use6283"
       x="0"
       y="0"
       width="251"
       height="304.20001"
       xlink:href="#cb" />
    <use
       transform="translate(331.9108,0)"
       id="use6287"
       x="0"
       y="0"
       width="251"
       height="304.20001"
       xlink:href="#cb" />
  </g>
  <path
     d="M 249.55062,1.4395041 L 1.449569,1.4395041 L 1.449569,174.9361 C 0.68232904,268.65698 81.739009,302.75585 125.5001,302.75585 C 168.49395,302.75585 250.31785,268.65698 249.55062,174.9361 L 249.55062,1.4395041 z "
     style="fill:none;fill-opacity:0;stroke:#000000;stroke-width:1.88832211;stroke-linejoin:bevel"
     id="Frame" />
</svg>
