<?xml version="1.0" encoding="UTF-8" standalone="no"?>
<!-- Created with Inkscape (http://www.inkscape.org/) -->
<svg
   xmlns:dc="http://purl.org/dc/elements/1.1/"
   xmlns:cc="http://web.resource.org/cc/"
   xmlns:rdf="http://www.w3.org/1999/02/22-rdf-syntax-ns#"
   xmlns:svg="http://www.w3.org/2000/svg"
   xmlns="http://www.w3.org/2000/svg"
   version="1.0"
   width="251"
   height="304.20001"
   id="svg4166">
  <defs
     id="defs4168" />
  <metadata
     id="metadata1880"><rdf:RDF><cc:Work
         rdf:about=""><dc:title>Vaggeryd kommunvapen</dc:title><dc:date>17-08-2007</dc:date><dc:creator><cc:Agent><dc:title>Lokal_Profil</dc:title></cc:Agent></dc:creator><cc:license
         rdf:resource="http://creativecommons.org/licenses/by-sa/2.5/" /><dc:rights><cc:Agent><dc:title>cc-by-sa-2.5</dc:title></cc:Agent></dc:rights><dc:format>image/svg+xml</dc:format><dc:type
         rdf:resource="http://purl.org/dc/dcmitype/StillImage" /></cc:Work><cc:License
         rdf:about="http://creativecommons.org/licenses/by-sa/2.5/"><cc:permits
         rdf:resource="http://web.resource.org/cc/Reproduction" /><cc:permits
         rdf:resource="http://web.resource.org/cc/Distribution" /><cc:requires
         rdf:resource="http://web.resource.org/cc/Notice" /><cc:requires
         rdf:resource="http://web.resource.org/cc/Attribution" /><cc:permits
         rdf:resource="http://web.resource.org/cc/DerivativeWorks" /><cc:requires
         rdf:resource="http://web.resource.org/cc/ShareAlike" /></cc:License></rdf:RDF>
  </metadata>
  <path
     d="M 249.55058,1.4395041 L 125.50008,1.4395041 L 1.4495291,1.4395041 L 1.4495291,174.9361 C 0.68228908,268.65698 81.738969,302.75585 125.50006,302.75585 C 168.49391,302.75585 250.31781,268.65698 249.55058,174.9361 L 249.55058,1.4395041 z "
     style="color:#000000;fill:#ffcd50;fill-opacity:1;fill-rule:nonzero;stroke:none;stroke-width:1.88832211;stroke-linecap:round;stroke-linejoin:bevel;marker:none;marker-start:none;marker-mid:none;marker-end:none;stroke-miterlimit:4;stroke-dashoffset:0;stroke-opacity:1;visibility:visible;display:block"
     id="Shield" />
  <g
     transform="translate(-74.5,-361.9875)"
     id="hjul">
    <path
       d="M 200,404.1875 C 144.79997,404.1875 100,448.9875 100,504.1875 C 100,559.3875 144.79997,604.1875 200,604.1875 C 255.19997,604.1875 300,559.38751 300,504.1875 C 300,448.98749 255.19997,404.18751 200,404.1875 z M 200,408.3125 C 252.92751,408.31249 295.875,451.25995 295.875,504.1875 C 295.87499,557.11505 252.92751,600.09375 200,600.09375 C 147.07242,600.09374 104.125,557.11504 104.125,504.1875 C 104.125,451.25996 147.07242,408.3125 200,408.3125 z "
       style="fill:#000000;fill-opacity:1;stroke:none;stroke-width:0.68375695;stroke-miterlimit:4;stroke-opacity:1"
       id="Hjulband" />
    <path
       d="M 200,412.25 C 175.97996,412.25 154.10097,421.49516 137.71875,436.59375 L 146.84375,445.71875 C 160.88718,432.95372 179.54568,425.15625 200,425.15625 C 220.45431,425.15625 239.11282,432.95372 253.15625,445.71875 L 262.28125,436.59375 C 245.89903,421.49516 224.02003,412.25 200,412.25 z M 132.40625,441.90625 C 117.30765,458.28846 108.0625,480.16744 108.0625,504.1875 C 108.0625,528.20753 117.30765,550.07916 132.40625,566.46875 L 141.5,557.375 C 141.49488,557.36937 141.50512,557.34938 141.5,557.34375 C 128.73496,543.30761 120.9375,524.67306 120.9375,504.21875 C 120.9375,483.74848 128.7485,465.07843 141.53125,451.03125 L 132.40625,441.90625 z M 267.59375,441.90625 L 258.46875,451.03125 C 271.2515,465.07843 279.0625,483.74849 279.0625,504.21875 C 279.0625,524.67305 271.26504,543.30761 258.5,557.34375 L 258.5,557.375 L 267.59375,566.46875 C 282.69235,550.07916 291.9375,528.20753 291.9375,504.1875 C 291.9375,480.16744 282.69235,458.28846 267.59375,441.90625 z M 146.8125,562.6875 L 137.6875,571.8125 C 154.07156,586.92768 175.97172,596.15625 200,596.15625 C 224.02827,596.15625 245.92843,586.92768 262.3125,571.8125 L 253.1875,562.6875 C 239.14033,575.46285 220.47015,583.25 200,583.25 C 179.52984,583.25 160.85967,575.46285 146.8125,562.6875 z "
       style="fill:#d40000;fill-opacity:1;stroke:none;stroke-width:0.63458198;stroke-miterlimit:4;stroke-opacity:1"
       id="hjulring" />
    <path
       d="M 199.90625,431.03125 C 198.84494,431.03124 197.80017,431.08039 196.75,431.125 L 196.75,487.90625 C 195.55319,488.14666 194.40135,488.54824 193.3125,489.03125 L 159.875,442.9375 C 157.96867,444.18756 156.12001,445.55066 154.34375,446.96875 L 187.78125,493 C 186.95867,493.90018 186.23516,494.8725 185.625,495.9375 L 131.5,478.375 C 130.70173,480.50071 130.00707,482.65987 129.40625,484.875 L 183.5,502.4375 C 183.44117,503.00544 183.40625,503.6041 183.40625,504.1875 C 183.40626,504.82513 183.46115,505.44352 183.53125,506.0625 L 129.5,523.65625 C 130.10969,525.86773 130.81889,528.03356 131.625,530.15625 L 185.71875,512.59375 C 186.33103,513.63127 187.05941,514.5918 187.875,515.46875 L 154.46875,561.4375 C 156.23675,562.84907 158.07255,564.19234 159.96875,565.4375 L 193.40625,519.40625 C 194.46443,519.86699 195.59105,520.2047 196.75,520.4375 L 196.75,577.28125 C 197.80017,577.32612 198.84493,577.375 199.90625,577.375 C 201.13725,577.37501 202.34623,577.34153 203.5625,577.28125 L 203.5625,520.375 C 204.71397,520.12248 205.82651,519.75934 206.875,519.28125 L 240.25,565.21875 C 242.15137,563.95975 243.97802,562.61343 245.75,561.1875 L 212.375,515.25 C 213.13579,514.40057 213.80032,513.46191 214.375,512.46875 L 268.4375,530.03125 C 269.23888,527.91982 269.95615,525.7614 270.5625,523.5625 L 216.5,506 C 216.56559,505.40088 216.625,504.80401 216.625,504.1875 C 216.62499,503.63599 216.58389,503.069 216.53125,502.53125 L 270.625,484.96875 C 270.02073,482.74223 269.30459,480.57391 268.5,478.4375 L 214.46875,496.03125 C 213.88714,494.99957 213.18702,494.06739 212.40625,493.1875 L 245.875,447.21875 C 244.0947,445.78614 242.25533,444.42035 240.34375,443.15625 L 206.9375,489.125 C 205.87,488.63271 204.73754,488.22641 203.5625,487.96875 C 203.5625,487.96875 203.5625,432.72178 203.5625,431.125 C 202.34623,431.0651 201.13724,431.03125 199.90625,431.03125 z M 200,496.0625 C 204.49033,496.06251 208.15625,499.69717 208.15625,504.1875 C 208.15625,508.6778 204.49032,512.34375 200,512.34375 C 195.50968,512.34376 191.875,508.67779 191.875,504.1875 C 191.875,499.69718 195.50967,496.0625 200,496.0625 z "
       style="fill:#d40000;fill-opacity:1;stroke:none;stroke-width:0.63458198;stroke-miterlimit:4;stroke-opacity:1"
       id="Ekrar" />
    <path
       d="M 200,493.0625 C 193.8475,493.0625 188.875,498.03501 188.875,504.1875 C 188.875,510.33997 193.8475,515.34373 200,515.34375 C 206.15249,515.34375 211.15625,510.33998 211.15625,504.1875 C 211.15625,498.035 206.15249,493.0625 200,493.0625 z M 200,497.59375 C 203.64796,497.59376 206.625,500.53953 206.625,504.1875 C 206.625,507.83545 203.64796,510.8125 200,510.8125 C 196.35203,510.81251 193.40625,507.83544 193.40625,504.1875 C 193.40625,500.53954 196.35203,497.59375 200,497.59375 z "
       style="fill:#000000;stroke:none"
       id="Nav" />
  </g>
  <path
     d="M 249.55062,1.4395041 L 125.50012,1.4395041 L 1.449569,1.4395041 L 1.449569,174.9361 C 0.68232904,268.65698 81.739009,302.75585 125.5001,302.75585 C 168.49395,302.75585 250.31785,268.65698 249.55062,174.9361 L 249.55062,1.4395041 z "
     style="color:#000000;fill:none;fill-opacity:0;fill-rule:nonzero;stroke:#000000;stroke-width:1.88832211;stroke-linecap:round;stroke-linejoin:bevel;marker:none;marker-start:none;marker-mid:none;marker-end:none;stroke-miterlimit:4;stroke-dashoffset:0;stroke-opacity:1;visibility:visible;display:block"
     id="Frame" />
</svg>
