<?xml version="1.0" encoding="UTF-8" standalone="no"?>
<!-- Created with Inkscape (http://www.inkscape.org/) -->
<svg
   xmlns:svg="http://www.w3.org/2000/svg"
   xmlns="http://www.w3.org/2000/svg"
   version="1.0"
   width="251"
   height="304.04999"
   id="svg2064">
  <defs
     id="defs2066" />
  <path
     d="M 1.4495187,1.2894767 L 125.50002,1.2894767 L 249.55057,1.2894767 L 249.55057,174.78607 C 250.31781,268.50696 169.26113,302.60583 125.50004,302.60583 C 82.506185,302.60583 0.68228966,268.50696 1.4495187,174.78607 L 1.4495187,1.2894767 z "
     style="color:#000000;fill:#ffcd50;fill-opacity:1;fill-rule:nonzero;stroke:#000000;stroke-width:1.88832211;stroke-linecap:round;stroke-linejoin:bevel;marker:none;marker-start:none;marker-mid:none;marker-end:none;stroke-miterlimit:4;stroke-dashoffset:0;stroke-opacity:1;visibility:visible;display:block"
     id="path1889" />
  <path
     d="M 86.112649,183.625 C 62.828292,183.625 62.845508,163.5625 39.561142,163.5625 C 25.416892,163.5625 11.300729,170.93784 2.375761,176.75 L 2.375761,105.4375 C 16.841799,100.97408 19.914955,86.6875 39.561142,86.6875 C 62.845507,86.6875 62.82828,106.75001 86.112649,106.75 C 109.39701,106.75 109.41079,86.6875 132.69517,86.6875 C 155.97953,86.6875 155.99332,106.75001 179.27769,106.75 C 202.56206,106.75 202.54483,86.6875 225.8292,86.6875 C 237.13859,86.6875 242.96492,91.41292 248.62424,96.28125 L 248.62424,168.90625 C 241.63399,165.85473 233.72865,163.5625 225.8292,163.5625 C 202.54484,163.5625 202.56204,183.625 179.27769,183.625 C 155.99333,183.625 155.97951,163.5625 132.69517,163.5625 C 109.41081,163.5625 109.39701,183.625 86.112649,183.625 z "
     style="color:#000000;fill:#003d8f;fill-opacity:1;fill-rule:nonzero;stroke:none;stroke-width:1.88832211;stroke-linecap:round;stroke-linejoin:bevel;marker:none;marker-start:none;marker-mid:none;marker-end:none;stroke-miterlimit:4;stroke-dashoffset:0;stroke-opacity:1;visibility:visible;display:block"
     id="path2124" />
</svg>
