<?xml version="1.0" encoding="UTF-8" standalone="no"?>
<!-- Created with Inkscape (http://www.inkscape.org/) -->
<svg
   xmlns:dc="http://purl.org/dc/elements/1.1/"
   xmlns:cc="http://web.resource.org/cc/"
   xmlns:xlink="http://www.w3.org/1999/xlink"
   xmlns:rdf="http://www.w3.org/1999/02/22-rdf-syntax-ns#"
   xmlns:svg="http://www.w3.org/2000/svg"
   xmlns="http://www.w3.org/2000/svg"
   version="1.0"
   width="251"
   height="304.20001"
   id="svg4166">
<metadata
   id="metadata1880"><rdf:RDF><cc:Work
         rdf:about=""><dc:title>Eksjo kommunvapen</dc:title><dc:date>11-06-2007</dc:date><dc:creator><cc:Agent><dc:title>Lokal_Profil</dc:title></cc:Agent></dc:creator><cc:license
         rdf:resource="http://creativecommons.org/licenses/by-sa/2.5/" /><dc:rights><cc:Agent><dc:title>cc-by-sa-2.5</dc:title></cc:Agent></dc:rights><dc:format>image/svg+xml</dc:format><dc:type
         rdf:resource="http://purl.org/dc/dcmitype/StillImage" /></cc:Work><cc:License
         rdf:about="http://creativecommons.org/licenses/by-sa/2.5/"><cc:permits
         rdf:resource="http://web.resource.org/cc/Reproduction" /><cc:permits
         rdf:resource="http://web.resource.org/cc/Distribution" /><cc:requires
         rdf:resource="http://web.resource.org/cc/Notice" /><cc:requires
         rdf:resource="http://web.resource.org/cc/Attribution" /><cc:permits
         rdf:resource="http://web.resource.org/cc/DerivativeWorks" /><cc:requires
         rdf:resource="http://web.resource.org/cc/ShareAlike" /></cc:License></rdf:RDF>
</metadata>
  <defs
     id="defs4168" />
  <path
     d="M 249.55058,1.4395041 L 125.50008,1.4395041 L 1.4495291,1.4395041 L 1.4495291,174.9361 C 0.68228908,268.65698 81.738969,302.75585 125.50006,302.75585 C 168.49391,302.75585 250.31781,268.65698 249.55058,174.9361 L 249.55058,1.4395041 z "
     style="color:#000000;fill:#eeeeee;fill-opacity:1;fill-rule:nonzero;stroke:none;stroke-width:1.88832211;stroke-linecap:round;stroke-linejoin:bevel;marker:none;marker-start:none;marker-mid:none;marker-end:none;stroke-miterlimit:4;stroke-dashoffset:0;stroke-opacity:1;visibility:visible;display:block"
     id="Shield" />
  <path
     d="M 249.55062,1.4395041 L 125.50012,1.4395041 L 1.449569,1.4395041 L 1.449569,174.9361 C 0.68232904,268.65698 81.739009,302.75585 125.5001,302.75585 C 168.49395,302.75585 250.31785,268.65698 249.55062,174.9361 L 249.55062,1.4395041 z "
     style="color:#000000;fill:none;fill-opacity:0;fill-rule:nonzero;stroke:#000000;stroke-width:1.88832211;stroke-linecap:round;stroke-linejoin:bevel;marker:none;marker-start:none;marker-mid:none;marker-end:none;stroke-miterlimit:4;stroke-dashoffset:0;stroke-opacity:1;visibility:visible;display:block"
     id="Frame" />
  <path
     d="M 95.196968,144.52557 C 95.196968,143.51547 95.196968,142.50537 95.702021,140.48517 C 96.207069,138.46496 97.21717,135.43466 99.237371,133.41446 C 101.25757,131.39426 104.28788,130.38416 106.30808,130.88921 C 108.32828,131.39426 109.33838,133.41446 110.34848,135.93971 C 111.35858,138.46496 112.36868,141.49527 112.36868,145.03062 C 112.36868,148.56597 111.35858,152.60637 111.35858,156.14173 C 111.35858,159.67708 112.36868,162.70738 112.87374,165.73768 C 113.37878,168.76799 113.37878,171.79829 112.87374,174.32355 C 112.36868,176.8488 111.35858,178.869 111.35858,180.8892 C 111.35858,182.9094 112.36868,184.9296 112.36868,187.45486 C 112.36868,189.98011 111.35858,193.01041 111.35858,196.04071 C 111.35858,199.07102 112.36868,202.10132 112.87374,206.14172 C 113.37878,210.18213 113.37878,215.23263 112.87374,219.27304 C 112.36868,223.31344 111.35858,226.34374 108.83333,225.8387 C 106.30808,225.33364 102.26767,221.29324 98.227271,221.29324 C 94.186867,221.29324 90.146463,225.33364 85.601011,225.33364 C 81.055554,225.33364 76.005049,221.29324 71.964643,220.28314 C 67.924239,219.27304 64.893936,221.29324 61.863633,221.79829 C 58.83333,222.30334 55.803027,221.29324 54.287875,221.29324 C 52.772724,221.29324 52.772724,222.30334 53.782825,223.31344 C 54.792926,224.32354 56.813128,225.33364 58.83333,225.8387 C 60.853532,226.34374 62.873734,226.34374 63.883835,226.8488 C 64.893936,227.35384 64.893936,228.36395 64.388885,229.37405 C 63.883835,230.38415 62.873734,231.39425 62.873734,231.8993 C 62.873734,232.40435 63.883835,232.40435 65.398986,231.39425 C 66.914138,230.38415 68.93434,228.36395 70.449491,227.35384 C 71.964643,226.34374 72.974744,226.34374 72.974744,226.8488 C 72.974744,227.35384 71.964643,228.36395 72.469693,228.869 C 72.974744,229.37405 74.994946,229.37405 76.005049,229.8791 C 77.01515,230.38415 77.01515,231.39425 76.005049,232.9094 C 74.994946,234.42455 72.974744,236.44475 72.974744,237.45485 C 72.974744,238.46496 74.994946,238.46496 77.01515,237.45485 C 79.035352,236.44475 81.055554,234.42455 82.570708,233.9195 C 84.085857,233.41445 85.095958,234.42455 86.106059,234.42455 C 87.11616,234.42455 88.126261,233.41445 88.631314,233.9195 C 89.136362,234.42455 89.136362,236.44475 88.126261,238.46496 C 87.11616,240.48516 85.095958,242.50536 84.085857,244.02051 C 83.075756,245.53566 83.075756,246.54576 84.59091,246.54576 C 86.106059,246.54576 89.136362,245.53566 91.156564,246.04072 C 93.176766,246.54576 94.186867,248.56597 95.196968,249.57607 C 96.207069,250.58617 97.21717,250.58617 97.722223,250.08112 C 98.227271,249.57607 98.227271,248.56597 97.21717,247.05082 C 96.207069,245.53566 94.186867,243.51546 93.681819,240.99021 C 93.176766,238.46496 94.186867,235.43465 95.196968,233.41445 C 96.207069,231.39425 97.21717,230.38415 98.227271,230.38415 C 99.237371,230.38415 100.24747,231.39425 100.75253,232.9094 C 101.25757,234.42455 101.25757,236.44475 101.76263,237.45485 C 102.26767,238.46496 103.27778,238.46496 103.78283,237.45485 C 104.28788,236.44475 104.28788,234.42455 105.29798,233.9195 C 106.30808,233.41445 108.32828,234.42455 109.84343,234.9296 C 111.35858,235.43465 112.36868,235.43465 112.36868,236.44475 C 112.36868,237.45485 111.35858,239.47506 109.84343,240.99021 C 108.32828,242.50536 106.30808,243.51546 105.29798,245.53566 C 104.28788,247.55586 104.28788,250.58617 104.79293,252.10132 C 105.29798,253.61647 106.30808,253.61647 106.81313,252.60637 C 107.31818,251.59627 107.31818,249.57607 108.32828,248.06092 C 109.33838,246.54576 111.35858,245.53566 112.87374,245.53566 C 114.38889,245.53566 115.39899,246.54576 115.90404,248.06092 C 116.40909,249.57607 116.40909,251.59627 117.41919,252.10132 C 118.42929,252.60637 120.44949,251.59627 120.44949,249.07102 C 120.44949,246.54576 118.42929,242.50536 118.42929,238.97001 C 118.42929,235.43465 120.44949,232.40435 121.96465,230.8892 C 123.47979,229.37405 124.4899,229.37405 126.00505,229.8791 C 127.5202,230.38415 129.5404,231.39425 131.05555,232.9094 C 132.5707,234.42455 133.5808,236.44475 133.07575,237.95991 C 132.5707,239.47506 130.5505,240.48516 129.03535,242.00031 C 127.5202,243.51546 126.5101,245.53566 126.5101,248.06092 C 126.5101,250.58617 127.5202,253.61647 128.02525,254.12152 C 128.5303,254.62657 128.5303,252.60637 129.5404,250.58617 C 130.5505,248.56597 132.5707,246.54576 134.08586,245.53566 C 135.601,244.52556 136.61111,244.52556 137.62121,245.03061 C 138.63131,245.53566 139.64141,246.54576 139.64141,248.56597 C 139.64141,250.58617 138.63131,253.61647 139.64141,254.12152 C 140.65151,254.62657 143.68181,252.60637 144.18687,249.57607 C 144.69191,246.54576 142.67171,242.50536 141.15656,239.47506 C 139.64141,236.44475 138.63131,234.42455 140.14646,233.9195 C 141.66161,233.41445 145.70201,234.42455 147.21717,235.43465 C 148.73232,236.44475 147.72222,237.45485 148.22727,237.95991 C 148.73232,238.46496 150.75252,238.46496 151.76262,237.45485 C 152.77272,236.44475 152.77272,234.42455 153.27777,233.41445 C 153.78282,232.40435 154.79292,232.40435 155.80302,233.41445 C 156.81313,234.42455 157.82323,236.44475 156.81313,238.97001 C 155.80302,241.49526 152.77272,244.52556 151.76262,247.05082 C 150.75252,249.57607 151.76262,251.59627 152.77272,252.10132 C 153.78282,252.60637 154.79292,251.59627 155.80302,250.08112 C 156.81313,248.56597 157.82323,246.54576 159.33838,246.04072 C 160.85353,245.53566 162.87373,246.54576 164.38889,246.54576 C 165.90403,246.54576 166.91414,245.53566 166.91414,244.52556 C 166.91414,243.51546 165.90403,242.50536 164.89393,242.00031 C 163.88383,241.49526 162.87373,241.49526 162.36868,239.98011 C 161.86363,238.46496 161.86363,235.43465 161.35858,233.41445 C 160.85353,231.39425 159.84343,230.38415 160.85353,230.38415 C 161.86363,230.38415 164.89393,231.39425 166.91414,231.8993 C 168.93434,232.40435 169.94444,232.40435 170.95454,233.41445 C 171.96464,234.42455 172.97474,236.44475 172.97474,237.95991 C 172.97474,239.47506 171.96464,240.48516 171.96464,241.49526 C 171.96464,242.50536 172.97474,243.51546 173.98484,243.01041 C 174.99494,242.50536 176.00504,240.48516 177.5202,239.47506 C 179.03535,238.46496 181.05555,238.46496 182.06565,237.95991 C 183.07575,237.45485 183.07575,236.44475 182.06565,235.93971 C 181.05555,235.43465 179.03535,235.43465 177.5202,234.42455 C 176.00504,233.41445 174.99494,231.39425 175.5,230.8892 C 176.00504,230.38415 178.02525,231.39425 179.5404,230.8892 C 181.05555,230.38415 182.06565,228.36395 184.08585,227.8589 C 186.10605,227.35384 189.13636,228.36395 192.16666,227.8589 C 195.19696,227.35384 198.22727,225.33364 199.23737,223.81849 C 200.24747,222.30334 199.23737,221.29324 197.72222,221.79829 C 196.20706,222.30334 194.18686,224.32354 191.15656,224.32354 C 188.12626,224.32354 184.08585,222.30334 180.04545,222.80839 C 176.00504,223.31344 171.96464,226.34374 167.92424,225.8387 C 163.88383,225.33364 159.84343,221.29324 156.30808,220.78819 C 152.77272,220.28314 149.74242,223.31344 146.71212,223.81849 C 143.68181,224.32354 140.65151,222.30334 138.63131,219.77809 C 136.61111,217.25283 135.601,214.22253 135.09596,210.68718 C 134.5909,207.15182 134.5909,203.11142 135.09596,199.57607 C 135.601,196.04071 136.61111,193.01041 136.61111,190.48516 C 136.61111,187.95991 135.601,185.9397 135.601,183.41445 C 135.601,180.8892 136.61111,177.8589 136.61111,175.33365 C 136.61111,172.80839 135.601,170.78819 135.601,168.26294 C 135.601,165.73768 136.61111,162.70738 136.61111,160.18213 C 136.61111,157.65688 135.601,155.63667 135.601,153.11142 C 135.601,150.58618 136.61111,147.55587 137.11616,144.02052 C 137.62121,140.48517 137.62121,136.44476 139.13636,134.42456 C 140.65151,132.40436 143.68181,132.40436 146.71212,133.41446 C 149.74242,134.42456 152.77272,136.44476 154.28788,138.46496 C 155.80302,140.48517 155.80302,142.50537 156.30808,143.51547 C 156.81313,144.52557 157.82323,144.52557 158.32828,144.02052 C 158.83333,143.51547 158.83333,142.50537 158.83333,140.99022 C 158.83333,139.47506 158.83333,137.45486 157.31818,135.43466 C 155.80302,133.41446 152.77272,131.39426 151.25757,129.87911 C 149.74242,128.36395 149.74242,127.35385 151.25757,126.8488 C 152.77272,126.34375 155.80302,126.34375 157.82323,126.8488 C 159.84343,127.35385 160.85353,128.36395 161.86363,129.37405 L 162.80639,130.45149 C 164.0633,132.33702 165.32053,134.22254 167.31817,134.79493 C 169.31582,135.36732 172.05454,134.62658 173.28888,136.5121 C 174.52356,138.39763 174.2542,142.90941 176.2633,143.49291 C 178.27205,144.07675 182.55959,140.73197 184.6808,143.12254 C 186.80202,145.51311 186.75689,153.63903 189.12525,155.58045 C 191.49326,157.5222 196.2744,153.27977 198.28349,153.85216 C 200.29225,154.42455 199.52928,159.81176 200.96565,162.39324 C 202.40235,164.97439 206.03871,164.75014 207.22828,163.69492 C 208.41817,162.64004 207.16094,160.75452 208.53029,160.38415 C 209.89966,160.01378 213.89494,161.15856 216.15083,161.29324 C 218.40672,161.42792 218.92322,160.5525 219.43939,159.67708 C 219.95555,158.80166 220.47205,157.92624 219.22626,156.04071 C 217.98046,154.15519 214.97238,151.25958 214.60201,149.8791 C 214.23164,148.49864 216.49898,148.63331 216.82423,147.07338 C 217.14982,145.51311 215.53366,142.25857 212.58181,142.30335 C 209.63029,142.34813 205.34276,145.69291 203.83905,144.2451 C 202.33501,142.79728 203.61447,136.55688 200.7414,135.47944 C 197.86801,134.402 190.84242,138.48752 187.71111,137.84779 C 184.57979,137.20806 185.34275,131.84308 183.83905,130.39527 C 182.33501,128.94746 178.56397,131.41682 176.31918,131.28214 C 174.07474,131.14745 173.35622,128.40874 171.86363,126.97237 C 170.37104,125.53567 168.1037,125.40099 165.8367,125.26631 L 159.50673,123.31345 C 156.47643,123.31345 153.44612,123.31345 151.93097,122.8084 C 150.41582,122.30335 150.41582,121.29325 150.92087,120.28315 C 151.42592,119.27304 152.43602,118.26294 153.44612,117.75789 C 154.45622,117.25284 155.46632,117.25284 156.98148,117.25284 C 158.49663,117.25284 160.51683,117.25284 162.53703,117.25284 L 161.86363,117.25284 C 163.88383,118.26294 165.90403,119.27304 167.92424,118.76799 C 169.94444,118.26294 171.96464,116.24274 173.98484,117.25284 C 176.00504,118.26294 178.02525,122.30335 180.04545,121.7983 C 182.06565,121.29325 184.08585,116.24274 187.11616,117.25284 C 190.14646,118.26294 194.18686,125.33365 197.21716,125.8387 C 200.24747,126.34375 202.26767,120.28315 204.28787,119.7781 C 206.30807,119.27304 208.32828,124.32355 210.85353,125.8387 C 213.37878,127.35385 216.40908,125.33365 216.91414,123.8185 C 217.41918,122.30335 215.39898,121.29325 216.40908,120.28315 C 217.41918,119.27304 221.45959,118.26294 223.47979,117.25284 C 225.49999,116.24274 225.49999,115.23264 225.49999,114.22254 C 225.49999,113.21244 225.49999,112.20233 223.47979,111.19223 C 221.45959,110.18213 217.41918,109.17203 216.40908,108.16193 C 215.39898,107.15183 217.41918,106.14173 216.91414,104.62658 C 216.40908,103.11142 213.37878,101.09122 210.85353,102.60638 C 208.32828,104.12153 206.30807,109.17203 204.28787,108.66698 C 202.26767,108.16193 200.24747,102.10132 197.21716,102.60638 C 194.18686,103.11142 190.14646,110.18213 187.11616,111.19223 C 184.08585,112.20233 182.06565,107.15183 180.04545,106.64678 C 178.02525,106.14173 176.00504,110.18213 173.98484,111.19223 C 171.96464,112.20233 169.94444,110.18213 167.92424,109.67708 C 165.90403,109.17203 163.88383,110.18213 161.86363,111.19223 L 162.53703,111.19223 C 160.51683,112.20233 158.49663,113.21244 157.48653,113.21244 C 156.47643,113.21244 156.47643,112.20233 156.98148,111.19223 C 157.48653,110.18213 158.49663,109.17203 160.51683,108.16193 C 162.53703,107.15183 165.56733,106.14173 168.59764,105.13163 L 169.06902,104.66025 C 171.3138,104.34611 173.55824,104.03163 174.91649,102.4717 C 176.27441,100.91176 176.74578,98.105702 178.96801,97.769002 C 181.19023,97.432302 185.16329,99.564962 186.53265,97.993582 C 187.90168,96.422202 186.66733,91.147452 189.73131,90.238362 C 192.79528,89.329272 200.15757,92.785842 202.92996,91.461602 C 205.70201,90.137352 203.88383,84.031632 205.25319,82.460582 C 206.62221,80.889202 211.17911,83.852172 214.11952,83.639032 C 217.05992,83.425572 218.3845,80.036342 217.92424,78.509742 C 217.46397,76.983482 215.21952,77.320182 215.46632,75.917152 C 215.71312,74.514462 218.45185,71.371702 219.52928,69.385172 C 220.60672,67.398632 220.02289,66.568332 219.43939,65.737692 C 218.85588,64.907052 218.27205,64.076752 216.03871,64.402002 C 213.80538,64.727592 209.92188,66.209072 208.51918,65.962272 C 207.11616,65.715132 208.19359,63.740052 206.91414,62.797292 C 205.63467,61.854522 201.99831,61.944092 200.7973,64.637692 C 199.59663,67.331292 200.83097,72.628932 198.87811,73.369682 C 196.92525,74.110412 191.78518,70.294262 189.59663,72.438022 C 187.40807,74.581802 188.17104,82.684832 186.26329,85.255202 C 184.35521,87.825232 179.77609,84.862272 177.82323,85.614122 C 175.87036,86.366312 176.54376,90.832982 175.47744,92.819512 C 174.41144,94.806042 171.60538,94.312432 169.66397,95.064292 C 167.72222,95.816142 166.64477,97.814122 165.56733,99.811762 L 165.56733,102.10132 C 163.54713,103.11142 161.52693,104.12153 161.02188,103.61648 C 160.51683,103.11142 161.52693,101.09122 162.53703,99.071022 L 162.87373,98.599642 C 164.22053,96.804022 165.56733,95.008062 165.42154,92.931972 C 165.27542,90.855532 163.63703,88.498632 164.98383,86.680452 C 166.33063,84.862272 170.66262,83.582812 170.51683,81.506382 C 170.37104,79.430282 165.7468,76.556882 167.2734,73.751162 C 168.79966,70.945432 176.47643,68.206712 177.49764,65.311092 C 178.51918,62.415472 172.88484,59.362942 172.73905,57.286512 C 172.59326,55.210082 177.93535,54.110422 179.86598,51.888192 C 181.79629,49.665972 180.31481,46.321192 178.90067,45.558232 C 177.48653,44.794932 176.13973,46.613112 175.32053,45.445772 C 174.50101,44.278772 174.20942,40.125902 173.56969,37.959912 C 172.92996,35.793922 171.94208,35.614122 170.95454,35.434662 C 169.967,35.255202 168.97912,35.075402 167.63232,36.893582 C 166.28552,38.711762 164.57979,42.527932 163.40134,43.347122 C 162.22289,44.166312 161.57171,41.989202 159.98922,42.224892 C 158.40673,42.460582 155.89292,45.109072 156.94781,47.858902 C 158.00269,50.608732 162.62693,53.459242 161.78518,55.356212 C 160.94343,57.252842 154.63569,58.195602 154.61346,61.270692 C 154.5909,64.346112 160.85353,69.553512 161.32491,72.707392 C 161.79629,75.861262 156.47643,76.960922 155.62356,78.857892 C 154.77036,80.754522 158.38451,83.448132 159.02424,85.614122 C 159.66396,87.780452 157.32929,89.418832 156.48754,91.326912 C 155.64579,93.235002 156.29696,95.412102 156.94781,97.589542 L 156.47643,99.071022 C 156.47643,101.09122 156.47643,103.11142 155.46632,105.63668 C 154.45622,108.16193 152.43602,111.19223 149.91077,114.72759 C 147.38552,118.26294 144.35521,122.30335 142.33501,124.32355 C 140.31481,126.34375 139.30471,126.34375 137.78956,126.34375 C 136.27441,126.34375 134.2542,126.34375 133.2441,125.33365 C 132.234,124.32355 132.234,122.30335 133.2441,120.7882 C 134.2542,119.27304 136.27441,118.26294 137.78956,117.25284 C 139.30471,116.24274 140.31481,115.23264 141.32491,113.71749 C 142.33501,112.20233 143.34511,110.18213 143.85017,108.66698 C 144.35521,107.15183 144.35521,106.14173 144.35521,105.13163 L 141.32491,102.10132 C 141.32491,104.12153 141.32491,106.14173 140.31481,108.16193 C 139.30471,110.18213 137.28451,112.20233 135.2643,113.71749 C 133.2441,115.23264 131.2239,116.24274 130.71885,115.73769 C 130.2138,115.23264 131.2239,113.21244 132.234,111.19223 C 133.2441,109.17203 134.2542,107.15183 134.2542,106.14173 C 134.2542,105.13163 133.2441,105.13163 132.234,104.62658 C 131.2239,104.12153 130.2138,103.11142 129.2037,102.10132 L 128.5303,102.10132 C 130.5505,99.071022 132.5707,96.040722 132.5707,93.010422 C 132.5707,89.980112 130.5505,86.949812 131.5606,84.424562 C 132.5707,81.899302 136.61111,79.879102 136.61111,77.858902 C 136.61111,75.838702 132.5707,73.818502 133.5808,70.788192 C 134.5909,67.757892 140.65151,63.717492 140.65151,60.687182 C 140.65151,57.656882 134.5909,55.636682 134.08586,53.616482 C 133.5808,51.596282 138.63131,49.576072 140.14646,47.050822 C 141.66161,44.525572 139.64141,41.495272 137.62121,40.990212 C 135.601,40.485172 133.5808,42.505372 132.06565,41.495272 C 130.5505,40.485172 129.5404,36.444762 128.5303,34.424562 C 127.5202,32.404362 126.5101,32.404362 125.5,32.404362 C 124.4899,32.404362 123.47979,32.404362 122.46969,34.424562 C 121.45959,36.444762 120.44949,40.485172 118.93434,41.495272 C 117.41919,42.505372 115.39899,40.485172 113.37878,40.990212 C 111.35858,41.495272 109.33838,44.525572 110.85353,47.050822 C 112.36868,49.576072 117.41919,51.596282 116.91414,53.616482 C 116.40909,55.636682 110.34848,57.656882 110.34848,60.687182 C 110.34848,63.717492 116.40909,67.757892 117.41919,70.788192 C 118.42929,73.818502 114.38889,75.838702 114.38889,77.858902 C 114.38889,79.879102 118.42929,81.899302 119.43939,84.424562 C 120.44949,86.949812 118.42929,89.980112 118.42929,93.010422 C 118.42929,96.040722 120.44949,99.071022 122.46969,102.10132 L 122.46969,102.10132 C 121.45959,103.11142 120.44949,104.12153 119.43939,104.62658 C 118.42929,105.13163 117.41919,105.13163 117.41919,106.14173 C 117.41919,107.15183 118.42929,109.17203 119.43939,111.19223 C 120.44949,113.21244 121.45959,115.23264 120.95454,115.73769 C 120.44949,116.24274 118.42929,115.23264 116.40909,113.71749 C 114.38889,112.20233 112.36868,110.18213 111.35858,108.16193 C 110.34848,106.14173 110.34848,104.12153 110.34848,102.10132 L 107.31818,105.13163 C 107.31818,106.14173 107.31818,107.15183 107.82323,108.66698 C 108.32828,110.18213 109.33838,112.20233 110.34848,113.71749 C 111.35858,115.23264 112.36868,116.24274 113.88384,117.25284 C 115.39899,118.26294 117.41919,119.27304 118.42929,120.7882 C 119.43939,122.30335 119.43939,124.32355 118.42929,125.33365 C 117.41919,126.34375 115.39899,126.34375 113.88384,126.34375 C 112.36868,126.34375 111.35858,126.34375 109.33838,124.32355 C 107.31818,122.30335 104.28788,118.26294 101.76263,114.72759 C 99.237371,111.19223 97.21717,108.16193 96.207069,105.63668 C 95.196968,103.11142 95.196968,101.09122 95.196968,99.071022 L 94.052186,97.589542 C 94.703031,95.412102 95.354204,93.235002 94.512456,91.326912 C 93.670703,89.418832 91.336028,87.780452 91.975757,85.614122 C 92.615486,83.448132 96.229629,80.754522 95.376431,78.857892 C 94.523567,76.960922 89.2037,75.861262 89.675081,72.707392 C 90.146463,69.553512 96.409088,64.346112 96.386532,61.270692 C 96.364305,58.195602 90.056564,57.252842 89.214811,55.356212 C 88.373063,53.459242 92.997302,50.608732 94.052186,47.858902 C 95.107069,45.109072 92.593264,42.460582 91.010772,42.224892 C 89.42828,41.989202 88.777101,44.166312 87.598652,43.347122 C 86.420199,42.527932 84.714475,38.711762 83.367674,36.893582 C 82.020872,35.075402 81.032994,35.255202 80.045453,35.434662 C 79.057913,35.614122 78.070034,35.793922 77.4303,37.959912 C 76.79057,40.125902 76.498986,44.278772 75.67946,45.445772 C 74.860265,46.613112 73.513464,44.794932 72.099323,45.558232 C 70.685181,46.321192 69.2037,49.665972 71.134003,51.888192 C 73.064643,54.110422 78.406734,55.210082 78.260942,57.286512 C 78.11515,59.362942 72.480804,62.415472 73.502353,65.311092 C 74.523565,68.206712 82.200336,70.945432 83.726596,73.751162 C 85.253195,76.556882 80.628955,79.430282 80.483163,81.506382 C 80.337371,83.582812 84.669359,84.862272 86.01616,86.680452 C 87.362962,88.498632 85.724576,90.855532 85.578451,92.931972 C 85.432658,95.008062 86.77946,96.804022 88.126261,98.599642 L 89.136362,99.071022 C 90.146463,101.09122 91.156564,103.11142 90.651516,103.61648 C 90.146463,104.12153 88.126261,103.11142 86.106059,102.10132 L 85.432658,99.811762 C 84.355219,97.814122 83.277775,95.816142 81.336027,95.064292 C 79.394613,94.312432 76.588546,94.806042 75.522557,92.819512 C 74.456225,90.832982 75.129626,86.366312 73.176764,85.614122 C 71.223902,84.862272 66.644777,87.825232 64.736697,85.255202 C 62.828953,82.684832 63.591916,74.581802 61.403363,72.438022 C 59.214811,70.294262 54.074744,74.110412 52.121882,73.369682 C 50.16902,72.628932 51.403364,67.331292 50.20269,64.637692 C 49.00168,61.944092 45.365317,61.854522 44.085856,62.797292 C 42.806394,63.740052 43.883835,65.715132 42.480805,65.962272 C 41.078112,66.209072 37.19461,64.727592 34.96128,64.402002 C 32.72794,64.076752 32.14411,64.907052 31.5606,65.737692 C 30.9771,66.568332 30.39326,67.398632 31.4707,69.385172 C 32.54815,71.371702 35.28687,74.514462 35.53367,75.917152 C 35.780469,77.320182 33.53602,76.983482 33.07575,78.509742 C 32.61549,80.036342 33.94006,83.425572 36.880469,83.639032 C 39.820872,83.852172 44.377775,80.889202 45.746798,82.460582 C 47.116159,84.031632 45.297977,90.137352 48.07003,91.461602 C 50.842421,92.785842 58.20471,89.329272 61.268683,90.238362 C 64.332656,91.147452 63.098313,96.422202 64.467336,97.993582 C 65.836697,99.564962 69.809761,97.432302 72.031983,97.769002 C 74.254205,98.105702 74.725585,100.91176 76.083498,102.4717 C 77.441749,104.03163 79.686192,104.34611 81.930974,104.66025 L 83.075756,105.13163 C 86.106059,106.14173 89.136362,107.15183 91.156564,108.16193 C 93.176766,109.17203 94.186867,110.18213 94.69192,111.19223 C 95.196968,112.20233 95.196968,113.21244 94.186867,113.21244 C 93.176766,113.21244 91.156564,112.20233 89.136362,111.19223 L 89.136362,111.19223 C 87.11616,110.18213 85.095958,109.17203 83.075756,109.67708 C 81.055554,110.18213 79.035352,112.20233 77.01515,111.19223 C 74.994946,110.18213 72.974744,106.14173 70.954542,106.64678 C 68.93434,107.15183 66.914138,112.20233 63.883835,111.19223 C 60.853532,110.18213 56.813128,103.11142 53.782825,102.60638 C 50.752522,102.10132 48.73232,108.16193 46.712118,108.66698 C 44.691916,109.17203 42.671714,104.12153 40.146462,102.60638 C 37.621209,101.09122 34.59091,103.11142 34.08586,104.62658 C 33.58081,106.14173 35.601007,107.15183 34.59091,108.16193 C 33.58081,109.17203 29.5404,110.18213 27.5202,111.19223 C 25.5,112.20233 25.5,113.21244 25.5,114.22254 C 25.5,115.23264 25.5,116.24274 27.5202,117.25284 C 29.5404,118.26294 33.58081,119.27304 34.59091,120.28315 C 35.601007,121.29325 33.58081,122.30335 34.08586,123.8185 C 34.59091,125.33365 37.621209,127.35385 40.146462,125.8387 C 42.671714,124.32355 44.691916,119.27304 46.712118,119.7781 C 48.73232,120.28315 50.752522,126.34375 53.782825,125.8387 C 56.813128,125.33365 60.853532,118.26294 63.883835,117.25284 C 66.914138,116.24274 68.93434,121.29325 70.954542,121.7983 C 72.974744,122.30335 74.994946,118.26294 77.01515,117.25284 C 79.035352,116.24274 81.055554,118.26294 83.075756,118.76799 C 85.095958,119.27304 87.11616,118.26294 89.136362,117.25284 L 89.136362,117.25284 C 91.156564,117.25284 93.176766,117.25284 94.69192,117.25284 C 96.207069,117.25284 97.21717,117.25284 98.227271,117.75789 C 99.237371,118.26294 100.24747,119.27304 100.75253,120.28315 C 101.25757,121.29325 101.25757,122.30335 99.742421,122.8084 C 98.227271,123.31345 95.196968,123.31345 92.166665,123.31345 L 85.163296,125.26631 C 82.896292,125.40099 80.628955,125.53567 79.136362,126.97237 C 77.643768,128.40874 76.925247,131.14745 74.680804,131.28214 C 72.436023,131.41682 68.664979,128.94746 67.160939,130.39527 C 65.657235,131.84308 66.420198,137.20806 63.288885,137.84779 C 60.157572,138.48752 53.131983,134.402 50.258583,135.47944 C 47.385519,136.55688 48.66498,142.79728 47.16094,144.2451 C 45.657236,145.69291 41.369694,142.34813 38.418179,142.30335 C 35.46633,142.25857 33.85017,145.51311 34.17575,147.07338 C 34.50101,148.63331 36.768347,148.49864 36.397977,149.8791 C 36.027607,151.25958 33.01953,154.15519 31.77373,156.04071 C 30.52794,157.92624 31.04444,158.80166 31.5606,159.67708 C 32.07676,160.5525 32.59326,161.42792 34.84916,161.29324 C 37.105048,161.15856 41.100334,160.01378 42.469694,160.38415 C 43.839054,160.75452 42.581815,162.64004 43.771714,163.69492 C 44.961276,164.75014 48.59764,164.97439 50.03434,162.39324 C 51.470704,159.81176 50.707741,154.42455 52.716495,153.85216 C 54.725586,153.27977 59.506731,157.5222 61.874744,155.58045 C 64.243094,153.63903 64.197976,145.51311 66.319188,143.12254 C 68.4404,140.73197 72.727942,144.07675 74.736696,143.49291 C 76.745788,142.90941 76.476426,138.39763 77.711111,136.5121 C 78.945454,134.62658 81.684172,135.36732 83.681819,134.79493 C 85.67946,134.22254 86.936696,132.33702 88.193599,130.45149 L 89.136362,129.37405 C 90.146463,128.36395 91.156564,127.35385 93.176766,126.8488 C 95.196968,126.34375 98.227271,126.34375 99.742421,126.8488 C 101.25757,127.35385 101.25757,128.36395 99.742421,129.87911 C 98.227271,131.39426 95.196968,133.41446 93.681819,135.43466 C 92.166665,137.45486 92.166665,139.47506 92.166665,140.99022 C 92.166665,142.50537 92.166665,143.51547 92.166665,144.52557 L 95.196968,144.52557 z "
     style="fill:#225500;fill-opacity:1;fill-rule:evenodd;stroke:none;stroke-width:2.00001001;stroke-linecap:butt;stroke-linejoin:miter;stroke-miterlimit:10"
     id="Trunk" />
  <use
     transform="translate(64.64618,1.8359e-5)"
     style="stroke:none"
     id="Ollon2"
     x="0"
     y="0"
     width="251"
     height="304.20001"
     xlink:href="#Ollon" />
  <use
     transform="matrix(0.951057,-0.309017,-0.309017,-0.951057,64.53788,270.8191)"
     style="stroke:none"
     id="Ollon3"
     x="0"
     y="0"
     width="251"
     height="304.20001"
     xlink:href="#Ollon" />
  <use
     transform="matrix(-1,0,0,1,251.795,0)"
     style="stroke:none"
     id="Ollon4"
     x="0"
     y="0"
     width="251"
     height="304.20001"
     xlink:href="#Ollon3" />
  <g
     transform="matrix(0.505045,0,0,0.505048,24.99526,100.0341)"
     style="stroke:none"
     id="Ollon">
    <path
       d="M 117.48957,110.74999 L 153.48975,110.74999 C 153.48975,106.74997 153.48975,102.74995 151.48974,98.74993 C 149.48973,94.749905 145.48971,90.749885 141.48969,88.749875 C 137.48967,86.749865 133.48965,86.749865 129.48963,88.749875 C 125.48961,90.749885 121.48959,94.749905 119.48958,98.74993 C 117.48957,102.74995 117.48957,106.74997 117.48957,110.74999 z "
       style="fill:#225500;fill-opacity:1;fill-rule:evenodd;stroke:none;stroke-width:2.00001001;stroke-linecap:butt;stroke-linejoin:miter;stroke-miterlimit:10"
       id="path2772" />
    <path
       d="M 123.4896,110.74999 C 123.4896,116.75002 123.4896,122.75005 124.48961,126.75007 C 125.48961,130.75009 127.48962,132.7501 129.48963,135.75012 C 131.48964,138.75013 133.48965,142.75015 135.48966,142.75015 C 137.48967,142.75015 139.48968,138.75013 141.48969,135.75012 C 143.4897,132.7501 145.48971,130.75009 146.48972,126.75007 C 147.48972,122.75005 147.48972,116.75002 147.48972,110.74999"
       style="fill:#225500;fill-opacity:1;fill-rule:evenodd;stroke:none;stroke-width:2.00001001;stroke-linecap:butt;stroke-linejoin:miter;stroke-miterlimit:10"
       id="path2774" />
  </g>
</svg>
