<?xml version="1.0" encoding="UTF-8" standalone="no"?>
<!-- Created with Inkscape (http://www.inkscape.org/) -->

<svg
   xmlns:svg="http://www.w3.org/2000/svg"
   xmlns="http://www.w3.org/2000/svg"
   version="1.0"
   width="251"
   height="304.20001"
   id="svg4166">
  <defs
     id="defs4168" />
  <path
     d="m 249.55058,1.4395041 -124.0505,0 -124.0505509,0 0,173.4965959 C 0.68228908,268.65698 81.738969,302.75585 125.50006,302.75585 c 42.99385,0 124.81775,-34.09887 124.05052,-127.81975 l 0,-173.4965959 z"
     id="Border"
     style="fill:#d40000" />
  <path
     d="m 225.49782,30.651362 -99.99775,0 -99.997778,0 0,139.856488 c -0.618476,75.54887 64.721724,103.03616 99.997758,103.03616 34.65757,0 100.61621,-27.48729 99.99777,-103.03616 l 0,-139.856488 z"
     id="Shield"
     style="fill:#ffcd50" />
  <path
     d="m 123.54752,34.922669 c 19.62511,28.18693 37.45992,19.411464 28.69237,56.99107 0,0 20.21661,-7.686445 32.60433,-5.25519 19.29376,3.793272 33.42531,22.776451 33.42531,22.776451 -30.57269,-1.72799 -26.39465,3.81207 -45.34122,4.91988 -6.41543,19.2265 -16.091,36.82491 -39.27298,38.02471 l 0.0455,32.45795 c 10.51335,-16.46884 20.77842,-15.92383 35.7616,-23.8358 16.58061,-8.76261 37.03955,4.88427 43.74776,22.94559 5.98318,16.07912 1.43422,31.83975 -12.19683,42.26308 0,-19.63203 -7.45598,-20.23935 -16.83481,-28.04647 -10.20771,-8.52027 -7.45598,-15.77447 -16.82294,-18.93768 -15.62314,-5.26112 -33.65577,14.01978 -33.65577,25.59643 v 22.79029 l 26.65478,28.05044 -27.3531,-12.68546 -9.46686,26.29475 -8.06429,-26.93075 -29.035596,13.87734 27.984166,-26.49751 0.34916,-34.72105 c -8.06429,-15.42136 -22.08506,-25.93471 -35.345195,-15.21859 -6.337287,5.13254 -6.326406,4.24925 -16.542029,12.77546 -9.364981,7.80118 -18.229467,4.19881 -19.636984,23.83678 -10.513348,-15.4263 -11.852615,-25.11373 -5.605338,-39.26803 7.531153,-17.06527 24.201768,-28.98515 42.77446,-21.38574 15.427295,6.3086 24.888226,10.16122 34.355086,24.1899 l 0.70326,-26.6449 C 92.277501,152.08681 83.981759,134.6338 77.565339,115.4073 c -27.343211,1.40752 -30.145386,-11.22353 -44.834795,-6.36597 0,0 7.36696,-16.124625 22.800187,-20.334316 16.045492,-4.37982 39.920854,3.206724 39.920854,3.206724 C 82.765142,58.71593 109.16671,61.005741 123.54752,34.922668 z"
     id="herb"
     style="fill:#d40000" />
  <path
     d="m 249.55062,1.4395041 -124.0505,0 -124.050551,0 0,173.4965959 c -0.76723996,93.72088 80.28944,127.81975 124.050531,127.81975 42.99385,0 124.81775,-34.09887 124.05052,-127.81975 l 0,-173.4965959 z"
     id="Frame"
     style="fill:none;stroke:#000000;stroke-width:1.88832211;stroke-linejoin:bevel" />
</svg>
