<?xml version="1.0" encoding="UTF-8" standalone="no"?>
<!-- Created with Inkscape (http://www.inkscape.org/) -->

<svg
   xmlns:svg="http://www.w3.org/2000/svg"
   xmlns="http://www.w3.org/2000/svg"
   xmlns:xlink="http://www.w3.org/1999/xlink"
   version="1.0"
   width="251"
   height="304.20001"
   id="svg4166">
  <defs
     id="defs4168" />
  <path
     d="m 249.55054,1.4395041 -124.0505,0 -124.0505509,0 0,173.4965959 C 0.68224913,268.65698 81.738929,302.75585 125.50002,302.75585 c 42.99385,0 124.81775,-34.09887 124.05052,-127.81975 l 0,-173.4965959 z"
     id="path3315"
     style="color:#000000;fill:#225500;fill-opacity:1;fill-rule:nonzero;stroke:none;stroke-width:1.88832211;marker:none;visibility:visible;display:block" />
  <path
     d="m 1.22296,1.1697392 0,145.7612708 247.81618,0 0,-145.7612708 -123.90809,0 -123.90809,0 z"
     id="Delning"
     style="fill:#ffcd50;fill-opacity:1;fill-rule:nonzero;stroke:none" />
  <g
     transform="translate(-10.194549,0)"
     id="g4753">
    <g
       transform="matrix(0.431337,0,0,0.431337,580.86489,309.95921)"
       id="g3274">
      <path
         d="m -1149.5953,-340.78601 c -19.4653,20.42709 -16.7838,55.45441 -38.5309,74.06919 -3.348,1.73258 -9.6509,-1.93858 -10.1004,3.36678 0.1978,3.54052 2.5509,7.74766 5.9854,8.97808 12.7377,3.05173 38.8848,-7.26555 43.3941,-19.45251 -3.2318,18.40762 26.9475,34.71227 40.7755,33.29373 1.9585,-3.9993 -1.5947,-6.17157 -4.115,-10.47443 -2.981,-6.00253 -4.5523,-10.76471 -6.3595,-17.208 -7.5876,-22.37698 -1.4764,-48.34457 -11.2226,-68.83197 -4.0245,-8.45998 3.4688,-9.52692 4.8631,-16.08574 1.2706,-5.97686 -6.1081,-9.84067 -11.9707,-9.72625 -4.379,0.0855 -7.0057,5.41803 -8.9781,8.97808 -2.2559,4.0718 2.3909,7.25435 0.7482,11.2226 -0.8427,2.03564 -3.1437,0.45855 -4.4891,1.87044 z"
         id="path2189"
         style="fill:#ffcd50;fill-opacity:1;fill-rule:evenodd;stroke:#225500;stroke-width:1px;stroke-linecap:butt;stroke-linejoin:miter;stroke-opacity:1" />
      <path
         d="m -914.54625,-328.98379 c 19.4653,20.42709 16.7838,55.45441 38.5309,74.06919 3.348,1.73258 9.6509,-1.93858 10.1004,3.36678 -0.1978,3.54052 -2.5509,7.74766 -5.9854,8.97808 -12.7377,3.05173 -38.8848,-7.26555 -43.3941,-19.45251 3.2318,18.40762 -26.9475,34.71227 -40.7755,33.29373 -1.9585,-3.9993 1.5947,-6.17157 4.115,-10.47443 2.981,-6.00253 4.5523,-10.76471 6.3595,-17.208 7.5876,-22.37698 1.4764,-48.34457 11.2226,-68.83197 4.0245,-8.45998 -3.4688,-9.52692 -4.8631,-16.08574 -1.2706,-5.97686 6.1081,-9.84067 11.9707,-9.72625 4.379,0.0855 7.0057,5.41803 8.9781,8.97808 2.2559,4.0718 -2.3909,7.25435 -0.7482,11.2226 0.8427,2.03564 3.1437,0.45855 4.4891,1.87044 z"
         id="path2200"
         style="fill:#ffcd50;fill-opacity:1;fill-rule:evenodd;stroke:#225500;stroke-width:1px;stroke-linecap:butt;stroke-linejoin:miter;stroke-opacity:1" />
    </g>
    <path
       d="m 93.84375,158.40625 c -3.983028,1.69331 -0.859422,7.84459 0.59375,10.6875 3.3211,5.01657 5.8894,10.34938 7.98844,15.99844 2.59403,6.05485 5.11837,12.07548 7.58551,18.15184 4.51621,7.52284 8.19995,15.54309 11.48035,23.66385 2.24914,5.6629 5.33336,11.02233 4.67533,17.40998 -0.65566,15.57981 2.51413,-4.43039 1.42662,-5.88036 -0.63235,-5.90899 -4.42491,-10.87084 -6.09375,-16.53125 -2.96405,-6.69713 -6.05973,-13.32995 -9.85035,-19.59894 -2.34813,-6.12219 -5.03081,-12.06209 -7.52734,-18.15599 -2.2171,-5.60871 -4.594086,-11.03312 -7.99731,-16.02632 -1.891922,-2.9534 -2.642222,-6.23272 -2.28125,-9.71875 z M 183,162.0625 c -4.30301,0.73258 -5.17657,5.25433 -8.34582,7.60741 -13.58971,17.86896 -26.99283,40.06355 -37.88192,60.03001 -2.28608,5.01828 -7.92383,7.72344 -9.11601,13.33133 -2.95258,6.28598 -1.37342,13.34357 -1.75008,20.04582 0.059,7.47917 -0.28786,14.97705 0.52167,22.40727 0.74741,2.22567 -1.41829,9.98795 0.16947,9.35569 1.9834,-4.47402 1.09777,-10.35043 0.83079,-15.27589 -0.37984,-10.76624 -0.13534,-21.59162 -0.1156,-32.37664 16.13528,-23.09638 29.55961,-48.84814 44.95656,-72.77848 3.14156,-4.62471 8.34826,-7.1294 10.73094,-12.34652 z"
       id="path3401"
       style="fill:#ffcd50;fill-opacity:1;stroke:#ffcd50;stroke-width:1.5;stroke-linecap:round;stroke-miterlimit:4;stroke-opacity:1;stroke-dasharray:none" />
  </g>
  <use
     transform="translate(-124.00031,0)"
     id="use2836"
     x="0"
     y="0"
     width="251"
     height="304.20001"
     xlink:href="#path4747" />
  <path
     d="m 189.1553,13.638751 0.36973,8.90086 c 0.2043,4.889615 0.60151,9.104344 0.88151,9.384293 0.27992,0.27996 1.67985,-0.194283 3.09971,-1.052178 2.29382,-1.386045 2.22994,-1.278684 -0.39812,0.909992 -1.87067,1.557861 -2.99442,3.350118 -3.07123,4.891208 -0.18154,3.636756 -1.52887,-5.909398 -1.62096,-11.48865 -0.0491,-2.971279 -0.43562,-4.611485 -0.99526,-4.265588 -0.54491,0.336706 -0.90999,-0.802831 -0.90999,-2.843726 l 0,-3.41247 -2.50248,2.360292 c -1.37646,1.298914 -6.80219,5.214128 -12.0574,8.7018 -12.74999,8.461561 -23.30817,19.188611 -29.71697,30.11505 -5.23828,8.930844 -6.74304,13.45911 -7.27994,21.953558 -1.10518,17.4875 5.41136,31.854908 18.34207,40.437768 8.3581,5.54777 18.56785,7.48077 26.04853,4.91966 3.75108,-1.28432 4.4181,-2.17319 4.43621,-5.91496 0.0137,-2.85807 -0.20666,-3.01668 -20.38956,-13.19488 -11.22575,-5.661165 -20.27926,-10.432954 -20.10509,-10.607099 0.17417,-0.174145 9.18155,4.039919 20.01983,9.384299 10.83819,5.34437 19.87113,9.58989 20.04822,9.41272 0.17717,-0.17717 0.39575,-3.58618 0.51187,-7.5643 0.19674,-6.735747 0.08,-7.325186 -1.96213,-8.730241 -4.14392,-2.851078 -12.24986,-7.835477 -24.96791,-15.384553 -7.00703,-4.159128 -13.14938,-7.99752 -13.64988,-8.502739 -1.11583,-1.126288 2.43814,0.841443 28.03913,15.52674 6.32572,3.628594 11.90962,6.597443 12.42704,6.597443 0.5681,0 0.93847,-2.834653 0.93847,-7.166188 l 0,-7.166187 -12.51239,-8.161492 c -6.88191,-4.476478 -14.66225,-9.478313 -17.28985,-11.118965 -2.62769,-1.640652 -4.77746,-3.13991 -4.77746,-3.355596 -9e-5,-0.623563 3.13638,1.194246 19.25198,11.204277 8.3246,5.170766 15.28586,9.387569 15.46986,9.384293 0.184,-0.0033 0.46656,-3.66927 0.62562,-8.133054 l 0.28437,-8.104617 -7.10931,-5.260891 c -3.91287,-2.895268 -7.29886,-5.400157 -7.50743,-5.545265 -0.20848,-0.145116 -0.19165,-0.43392 0.0285,-0.654056 0.41605,-0.416076 5.78782,2.993692 10.29428,6.540568 1.43069,1.126115 2.95102,2.047482 3.38399,2.047482 0.43307,0 0.76785,-3.452437 0.76785,-7.678058 l 0,-7.678058 -6.4553,-5.061831 c -7.77142,-6.080786 -7.40406,-6.676467 0.59723,-0.966867 3.15613,2.252231 5.92268,4.094964 6.14245,4.094964 0.21976,0 0.48093,-3.369882 0.56874,-7.478997 0.0876,-4.109115 0.39184,-7.692208 0.6825,-7.96243 0.29056,-0.270223 0.28073,6.273257 -0.0285,14.531435 -0.30912,8.258178 -0.78814,29.551993 -1.05213,47.319588 -0.2639,17.767595 -0.69614,35.460325 -0.96687,39.300285 -0.4761,6.75047 -0.41322,6.98053 1.62088,7.36525 1.15715,0.21885 2.63215,0.26528 3.29872,0.0853 0.66657,-0.17997 1.52688,-0.34124 1.90534,-0.34124 0.37847,0 0.5753,-8.49706 0.455,-18.88235 -0.12039,-10.38528 -0.004,-17.346719 0.2275,-15.46986 0.3781,3.06328 1.80451,4.3378 3.24184,2.9006 0.80298,-0.80311 25.55395,-12.239039 25.84942,-11.943646 0.14624,0.146254 -6.28404,3.478863 -14.2755,7.393686 l -14.53139,7.10931 0,5.3462 c -9e-5,2.9417 0.34734,5.34621 0.76776,5.34621 0.42042,0 3.98904,-0.8183 7.90556,-1.81999 3.91651,-1.00167 7.23161,-1.69769 7.39368,-1.53561 0.16207,0.16208 -3.34758,1.41881 -7.8202,2.78685 -9.18127,2.80834 -9.76649,4.03379 -3.12809,6.56902 6.37094,2.43314 15.31262,1.34633 21.47007,-2.61624 9.12349,-5.87131 16.47359,-15.45365 19.30894,-25.166966 1.82763,-6.261491 1.8563,-17.206448 0.0569,-24.11479 -1.54207,-5.920517 -6.49307,-15.868778 -9.98152,-20.0767 -10.26389,-12.380806 -13.5527,-15.504135 -27.21441,-25.792588 -3.5537,-2.676259 -7.81583,-6.15747 -9.46965,-7.734933 l -3.01435,-2.872162 z m 17.88708,25.934774 c 0.7522,0 -3.4587,3.328524 -10.86303,8.559613 -3.97912,2.811093 -5.05637,4.117714 -5.28933,6.369945 -0.16589,1.602077 -0.62862,-0.268175 -1.05222,-4.294025 -0.41214,-3.91606 -0.49549,-7.381619 -0.19902,-7.678058 0.29639,-0.29643 0.51187,1.184891 0.51187,3.270284 -9e-5,2.610084 0.39003,3.782154 1.25124,3.782154 0.68805,0 4.33521,-2.25223 8.10457,-5.004956 3.76937,-2.752726 7.16974,-5.004957 7.53592,-5.004957 z m -42.8265,5.317767 2.95747,1.96217 c 1.62652,1.076439 2.95748,2.115695 2.95748,2.331855 -9e-5,0.681174 -0.38538,0.443339 -3.18497,-1.962171 l -2.72998,-2.331854 z m 51.35768,8.445863 c 0.1091,0.0578 -0.14478,0.422646 -0.71098,1.109053 -1.16278,1.409596 -2.87211,2.044461 -2.87211,1.080616 -9e-5,-0.232649 0.92136,-0.907126 2.04748,-1.507175 0.92819,-0.494635 1.42641,-0.740296 1.53561,-0.682494 z m -5.17558,3.469345 c 0.6956,-0.123777 -2.573,2.266545 -9.64028,6.824941 l -9.46956,6.114009 0.455,7.45056 c 0.25716,4.091297 0.60897,7.582982 0.76776,7.76337 0.1587,0.180379 5.84133,-2.618402 12.62614,-6.199321 6.7849,-3.580919 12.31337,-6.320159 12.31337,-6.085572 -9e-5,0.234587 -5.70045,3.609993 -12.68301,7.478997 l -12.68301,7.024002 -0.28438,4.180276 c -0.14942,2.299923 -0.6076,-3.949966 -1.02374,-13.877379 -0.41614,-9.927422 -0.51851,-18.278483 -0.22749,-18.569526 0.29101,-0.291034 0.51187,1.594388 0.51187,4.180276 -1e-4,2.585906 0.17681,4.692147 0.36963,4.692147 0.19292,0 4.73569,-2.690456 10.09528,-5.971823 5.39461,-3.302844 8.33134,-4.908689 8.87242,-5.004957 z m 15.04326,11.318027 c 0.13859,-0.0173 0.1991,0.02275 0.1991,0.08531 -9e-5,0.250257 -1.22849,1.071971 -2.72997,1.848422 -1.50158,0.77645 -2.72998,1.217114 -2.72998,0.966866 -9e-5,-0.250247 1.22849,-1.100408 2.72998,-1.876858 1.12602,-0.582332 2.115,-0.971835 2.53087,-1.023741 z m 4.29407,18.825461 c 0.5004,0 -0.11375,0.592841 -1.36499,1.308113 -1.25133,0.715272 -2.68448,1.308114 -3.18497,1.308114 -0.50059,0 0.11375,-0.592842 1.36499,-1.308114 1.25114,-0.715272 2.68447,-1.308113 3.18497,-1.308113 z m -10.00991,22.721362 -3.18498,1.27968 c -1.75182,0.70828 -4.00396,1.30176 -5.00495,1.30811 -1.82008,0.0115 -1.81999,-0.005 0,-0.73937 1.0009,-0.40383 3.25322,-0.96888 5.00495,-1.27967 l 3.18498,-0.56875 z"
     id="path4747"
     style="color:#000000;fill:#225500;fill-opacity:1;fill-rule:nonzero;stroke:none;stroke-width:1.88832211;marker:none;visibility:visible;display:block" />
  <path
     d="m 249.55058,1.4395041 -124.0505,0 -124.050551,0 0,173.4965959 c -0.76723991,93.72088 80.28944,127.81975 124.050531,127.81975 42.99385,0 124.81775,-34.09887 124.05052,-127.81975 l 0,-173.4965959 z"
     id="path3345"
     style="color:#000000;fill:none;stroke:#000000;stroke-width:1.88832211;stroke-linecap:round;stroke-linejoin:bevel;stroke-miterlimit:4;stroke-opacity:1;stroke-dashoffset:0;marker:none;visibility:visible;display:block" />
</svg>
