<?xml version="1.0" encoding="UTF-8" standalone="no"?>
<!-- Created with Inkscape (http://www.inkscape.org/) -->
<svg
   xmlns:svg="http://www.w3.org/2000/svg"
   xmlns="http://www.w3.org/2000/svg"
   version="1.0"
   width="251"
   height="304.20001"
   id="svg4166">
  <defs
     id="defs4168">
    <clipPath
       id="clipPath3484">
      <path
         d="M -367.62203,465.27543 L -243.57153,465.27543 L -119.52098,465.27543 L -119.52098,638.77203 C -118.75374,732.49291 -199.81042,766.59178 -243.57151,766.59178 C -286.56536,766.59178 -368.38926,732.49291 -367.62203,638.77203 L -367.62203,465.27543 z "
         style="opacity:0.63500007;color:#000000;fill:#003d8f;fill-opacity:1;fill-rule:nonzero;stroke:none;stroke-width:1.88832211;stroke-linecap:round;stroke-linejoin:bevel;marker:none;marker-start:none;marker-mid:none;marker-end:none;stroke-miterlimit:4;stroke-dashoffset:0;stroke-opacity:1;visibility:visible;display:block"
         id="path3486" />
    </clipPath>
    <clipPath
       id="clipPath3480">
      <path
         d="M -372.54808,459.71959 L -248.49758,459.71959 L -124.44703,459.71959 L -124.44703,633.21619 C -123.67979,726.93707 -204.73647,761.03594 -248.49756,761.03594 C -291.49141,761.03594 -373.31531,726.93707 -372.54808,633.21619 L -372.54808,459.71959 z "
         style="opacity:0.63500007;color:#000000;fill:#003d8f;fill-opacity:1;fill-rule:nonzero;stroke:none;stroke-width:1.88832211;stroke-linecap:round;stroke-linejoin:bevel;marker:none;marker-start:none;marker-mid:none;marker-end:none;stroke-miterlimit:4;stroke-dashoffset:0;stroke-opacity:1;visibility:visible;display:block"
         id="path3482" />
    </clipPath>
  </defs>
  <path
     d="M 249.55058,1.4395041 L 125.50008,1.4395041 L 1.4495291,1.4395041 L 1.4495291,174.9361 C 0.68228908,268.65698 81.738969,302.75585 125.50006,302.75585 C 168.49391,302.75585 250.31781,268.65698 249.55058,174.9361 L 249.55058,1.4395041 z "
     style="color:#000000;fill:#ffcd50;fill-opacity:1;fill-rule:nonzero;stroke:none;stroke-width:1.88832211;stroke-linecap:round;stroke-linejoin:bevel;marker:none;marker-start:none;marker-mid:none;marker-end:none;stroke-miterlimit:4;stroke-dashoffset:0;stroke-opacity:1;visibility:visible;display:block"
     id="Shield" />
  <path
     d="M 1.1,1.098484 L 1.1,91.292484 L 249.6,91.292484 L 249.6,1.098484 L 125.35,1.098484 L 1.1,1.098484 z "
     style="color:#000000;fill:#003d8f;fill-opacity:1;fill-rule:nonzero;stroke:none;stroke-width:1.88832211;stroke-linecap:round;stroke-linejoin:bevel;marker:none;marker-start:none;marker-mid:none;marker-end:none;stroke-miterlimit:4;stroke-dashoffset:0;stroke-opacity:1;visibility:visible;display:block"
     id="Chef" />
  <path
     d="M 249.55062,1.4395041 L 125.50012,1.4395041 L 1.449569,1.4395041 L 1.449569,174.9361 C 0.68232904,268.65698 81.739009,302.75585 125.5001,302.75585 C 168.49395,302.75585 250.31785,268.65698 249.55062,174.9361 L 249.55062,1.4395041 z "
     style="color:#000000;fill:none;fill-opacity:0;fill-rule:nonzero;stroke:#000000;stroke-width:1.88832211;stroke-linecap:round;stroke-linejoin:bevel;marker:none;marker-start:none;marker-mid:none;marker-end:none;stroke-miterlimit:4;stroke-dashoffset:0;stroke-opacity:1;visibility:visible;display:block"
     id="Frame" />
  <g
     transform="translate(654.20661,-526.36809)"
     id="layer1">
    <g
       transform="translate(-304.17202,128.57822)"
       id="g2207">
      <g
         transform="matrix(1.1931887,0,0,1.1931887,49.758264,-99.26426)"
         id="g2211">
        <path
           d="M -227.82125,504.31174 C -225.82049,503.98709 -227.68373,505.80964 -227.68373,506.39923 C -227.68376,508.04196 -230.54336,509.94221 -232.12123,509.33673 C -233.57914,508.77725 -235.45142,512.2253 -234.30873,513.36798 C -233.51373,514.16295 -227.68373,511.60513 -227.68373,510.46173 C -227.68376,509.93914 -227.00873,510.19923 -226.18373,511.02423 C -222.51326,514.69473 -225.5723,521.86109 -233.52748,528.27423 C -236.85068,530.95329 -242.54664,535.31411 -246.18373,537.96173 C -253.06038,542.96758 -256.02231,546.76629 -257.65248,552.58673 C -258.42612,555.34891 -258.20756,556.90147 -256.52748,560.58673 L -254.46498,565.14923 L -253.05873,561.89923 C -252.29612,560.1117 -251.54172,558.64923 -251.37123,558.64923 C -251.20074,558.6492 -251.08667,560.7647 -251.12123,563.33673 C -251.17988,567.70189 -250.91093,568.23435 -246.87123,571.33673 C -244.49096,573.16469 -243.08089,574.64923 -243.74623,574.64923 C -245.91057,574.6492 -251.57957,570.61996 -252.21498,568.61798 C -252.55561,567.54468 -253.74431,566.15859 -254.87123,565.55548 C -256.50864,564.67915 -257.25345,564.81022 -258.55873,566.24298 C -260.07001,567.90185 -260.07142,567.96751 -258.55873,566.83673 C -257.17197,565.80006 -256.82082,565.98439 -256.27748,568.14923 C -254.73386,574.29948 -244.03849,582.64923 -237.71498,582.64923 C -234.82746,582.6492 -234.69248,582.43628 -234.55873,578.39923 L -234.40248,574.14923 L -233.74623,579.14923 C -233.11904,584.01095 -231.29936,587.4382 -224.68373,596.05548 C -223.03754,598.19978 -221.68373,600.56226 -221.68373,601.30548 C -221.68376,602.83776 -220.78292,602.99854 -218.90248,601.80548 C -217.96629,601.21154 -217.86325,600.29099 -218.55873,598.46173 C -219.08531,597.07675 -219.2684,593.21418 -218.96498,589.86798 C -218.47933,584.51241 -218.73512,583.23001 -221.08998,579.21173 C -222.56131,576.70106 -223.28817,574.64923 -222.71498,574.64923 C -222.1418,574.6492 -221.68373,575.04198 -221.68373,575.49298 C -221.68376,575.94401 -220.08908,578.19398 -218.12123,580.49298 C -216.15336,582.79201 -214.87438,584.64923 -215.27748,584.64923 C -215.68059,584.6492 -215.25142,585.48585 -214.33998,586.49298 C -213.42854,587.50012 -212.94081,588.56256 -213.24623,588.86798 C -213.81974,589.44148 -202.86336,592.96253 -196.68373,594.18048 C -191.55738,595.19085 -188.96055,597.17493 -188.18373,600.71173 C -187.72895,602.78224 -187.15153,603.52328 -186.49623,602.86798 C -185.84094,602.21267 -185.89562,601.12182 -186.68373,599.64923 C -187.47814,598.16492 -187.51015,597.63391 -186.77748,598.08673 C -186.24014,598.41883 -185.9108,598.53309 -185.77748,598.43048 L -185.99623,598.14923 L -185.74623,598.39923 C -185.50605,598.07527 -186.38031,596.63622 -188.18373,594.49298 C -189.55876,592.85887 -190.68579,590.75704 -190.68373,589.83673 C -190.68147,588.81856 -189.86877,589.47795 -188.62123,591.52423 C -187.49367,593.37378 -186.3097,594.61896 -185.96498,594.27423 C -185.25151,593.56078 -179.68373,598.57196 -179.68373,599.93048 C -179.68376,600.41978 -180.86529,599.39591 -182.30873,597.68048 C -183.75218,595.96503 -185.18129,594.80303 -185.46498,595.08673 C -185.74866,595.3704 -184.34211,597.43311 -182.33998,599.64923 C -180.33786,601.86533 -178.68373,603.13624 -178.68373,602.49298 C -178.68376,601.84973 -178.41979,601.60067 -178.08998,601.93048 C -177.76014,602.26031 -178.0241,604.15053 -178.68373,606.14923 C -179.34339,608.1479 -179.63844,610.03827 -179.33998,610.33673 C -179.04154,610.63519 -178.32537,609.37204 -177.74623,607.52423 L -176.68373,604.14923 L -177.15248,608.14923 C -177.47773,610.93129 -177.34889,611.69252 -176.68373,610.64923 C -174.34848,606.98643 -176.29185,601.33434 -182.12123,594.83673 C -183.94217,592.80708 -185.77219,590.02423 -186.18373,588.64923 C -186.76242,586.71579 -186.22999,587.05577 -183.93373,590.14923 C -182.30067,592.3492 -179.95495,595.04923 -178.71498,596.14923 C -176.08065,598.48618 -171.68373,606.77908 -171.68373,609.39923 C -171.68376,611.87435 -174.4601,615.6318 -177.05873,616.68048 C -178.55874,617.28579 -178.68928,617.54236 -177.55873,617.58673 C -176.6704,617.6216 -174.72498,616.68075 -173.21498,615.49298 C -170.72131,613.53146 -170.51256,612.85124 -170.90248,608.14923 C -171.209,604.45305 -172.25375,601.62705 -174.55873,598.21173 C -178.60443,592.21717 -178.13914,591.31493 -173.87123,596.86798 C -170.23538,601.59864 -169.52672,600.67933 -172.93373,595.64923 C -175.43142,591.96173 -186.75606,582.65978 -187.93373,583.33673 C -188.34626,583.57385 -188.68373,583.03428 -188.68373,582.11798 C -188.68376,580.99674 -189.22431,580.63935 -190.30873,581.05548 C -191.46171,581.49796 -191.75497,581.26193 -191.33998,580.18048 C -191.021,579.34926 -191.18225,578.64923 -191.71498,578.64923 C -192.2477,578.6492 -192.68373,579.09923 -192.68373,579.64923 C -192.68376,580.1992 -193.15916,580.64923 -193.74623,580.64923 C -194.35852,580.6492 -194.54787,579.79654 -194.18373,578.64923 C -193.49913,576.49212 -195.17426,575.83397 -196.08998,577.89923 C -196.39484,578.5867 -196.52398,578.31717 -196.40248,577.27423 C -196.11396,574.79768 -198.35364,574.02459 -199.02748,576.36798 C -199.42116,577.73707 -199.51163,577.64879 -199.37123,576.02423 C -199.18046,573.81702 -202.22549,569.64923 -204.02748,569.64923 C -204.58641,569.6492 -205.86542,568.90323 -206.87123,567.99298 C -208.57421,566.45183 -208.68373,566.45384 -208.68373,568.02423 C -208.68376,570.53274 -211.47791,571.1425 -213.71498,569.11798 C -215.49247,567.50938 -215.68373,567.49419 -215.68373,568.99298 C -215.68376,571.07812 -218.02193,571.15798 -219.71498,569.11798 C -220.45447,568.22696 -221.27703,567.96729 -221.62123,568.52423 C -222.83774,570.49257 -224.92682,570.10066 -225.30873,567.83673 C -225.5401,566.46531 -225.27898,565.78134 -224.68373,566.14923 C -222.705,567.37215 -223.73614,565.52068 -226.43373,562.99298 C -227.94626,561.57576 -228.39623,560.96326 -227.43373,561.64923 C -225.21941,563.22742 -225.16249,561.89907 -227.33998,559.49298 C -228.91221,557.75569 -228.82153,557.6698 -225.77748,558.02423 C -224.01671,558.22925 -221.95248,559.24265 -221.15248,560.27423 C -219.74505,562.0891 -219.7123,562.08448 -220.27748,560.14923 C -220.85356,558.17658 -220.83746,558.17218 -219.27748,560.08673 C -218.40758,561.15435 -217.68373,561.54951 -217.68373,560.96173 C -217.68376,559.50411 -220.21289,557.52215 -221.02748,558.33673 C -221.38937,558.69865 -221.68373,558.45762 -221.68373,557.80548 C -221.68376,557.04006 -220.79757,556.83793 -219.18373,557.24298 C -217.74726,557.60349 -216.68373,557.45108 -216.68373,556.86798 C -216.68376,556.30982 -215.78373,556.08033 -214.68373,556.36798 C -213.58376,556.65566 -212.68373,556.43064 -212.68373,555.86798 C -212.68376,555.30535 -211.78373,555.08033 -210.68373,555.36798 C -209.33779,555.71998 -208.68373,555.41242 -208.68373,554.39923 C -208.68376,553.57119 -207.89623,552.94784 -206.93373,553.02423 C -205.96153,553.10139 -205.31213,552.57305 -205.46498,551.83673 C -205.65919,550.90114 -205.09505,550.72412 -203.55873,551.21173 C -201.82281,551.76266 -201.50181,551.56268 -201.99623,550.27423 C -202.44183,549.11302 -202.05356,548.64923 -200.58998,548.64923 C -199.05177,548.6492 -198.7013,548.19577 -199.15248,546.77423 C -199.5429,545.54406 -199.15249,544.66269 -198.05873,544.24298 C -197.1386,543.88992 -196.67853,543.34193 -197.02748,542.99298 C -197.37644,542.64405 -197.14359,541.71051 -196.49623,540.93048 C -195.58806,539.83624 -195.61043,539.31712 -196.58998,538.71173 C -197.55774,538.11361 -197.47067,537.78733 -196.21498,537.30548 C -195.30899,536.95785 -194.84949,536.17811 -195.21498,535.58673 C -195.58049,534.99537 -196.54205,534.78054 -197.33998,535.08673 C -198.21,535.4206 -198.51766,535.19691 -198.12123,534.55548 C -197.75767,533.96723 -196.43579,533.74123 -195.18373,534.05548 C -192.68199,534.68335 -189.79369,532.32928 -191.65248,531.18048 C -192.22918,530.82408 -193.205,530.85054 -193.83998,531.24298 C -194.55528,531.68507 -194.71956,531.52078 -194.27748,530.80548 C -193.04306,528.80814 -194.77489,529.54813 -198.80873,532.74298 C -200.95036,534.43922 -202.73406,536.5767 -202.77748,537.49298 C -202.82476,538.49069 -203.04307,538.66363 -203.33998,537.93048 C -204.04969,536.17796 -201.64557,533.1444 -196.77748,529.61798 C -191.35957,525.69325 -159.75622,509.26424 -159.02748,509.99298 C -158.72372,510.29673 -163.51775,513.05688 -169.68373,516.14923 C -175.84974,519.24155 -180.6565,522.02022 -180.37123,522.30548 C -180.08599,522.59074 -178.8127,522.17461 -177.52748,521.36798 C -176.24226,520.56135 -172.70873,519.08808 -169.68373,518.11798 C -166.65876,517.14785 -162.9352,515.42894 -161.40248,514.27423 C -155.31595,509.68883 -151.65,506.37047 -152.12123,505.89923 C -153.18276,504.83768 -172.84359,512.15899 -185.37123,518.27423 C -205.42424,528.06288 -214.74366,537.92359 -206.77748,540.93048 L -203.87123,542.02423 L -207.52748,545.96173 C -212.37788,551.17335 -216.20492,552.64923 -224.71498,552.64923 C -230.92422,552.6492 -232.09211,552.96386 -234.27748,555.14923 L -236.74623,557.64923 L -236.46498,554.96173 C -236.23629,552.82625 -236.69172,552.16785 -238.68373,551.68048 C -243.31672,550.54691 -242.25216,547.90583 -233.77748,539.55548 C -229.33033,535.17354 -225.68373,531.38195 -225.68373,531.11798 C -225.68376,530.29984 -237.03607,539.8305 -238.93373,542.24298 C -239.92073,543.49776 -241.39145,546.01272 -242.18373,547.83673 C -243.21007,550.19963 -243.62726,550.57422 -243.65248,549.14923 C -243.67195,548.0492 -242.78824,545.72195 -241.71498,543.96173 C -239.67224,540.61151 -225.19322,528.14923 -223.33998,528.14923 C -221.68223,528.1492 -216.8326,520.55832 -216.08998,516.80548 C -215.19165,512.26597 -217.7338,507.16819 -222.21498,504.52423 C -225.05176,502.85045 -225.83244,502.01963 -225.2995,500.30548 C -229.3586,502.34727 -229.29801,504.22554 -227.82125,504.31174 z M -185.74623,598.39923 C -185.75463,598.41056 -185.76637,598.42193 -185.77748,598.43048 L -183.83998,601.05548 C -182.65254,602.64216 -181.6155,605.34215 -181.52748,607.05548 L -181.37123,610.14923 L -180.96498,606.74298 C -180.63365,604.02448 -181.09334,602.81827 -183.27748,600.74298 L -185.74623,598.39923 z M -307.65247,507.05548 C -307.68057,507.07004 -307.68372,507.11748 -307.68372,507.14923 C -307.68372,507.93625 -301.46088,513.72333 -298.68372,515.52423 C -290.32728,520.94313 -285.42342,524.81944 -287.68372,524.21173 L -290.02747,523.55548 C -290.05735,523.5631 -290.08716,523.58278 -290.12122,523.58673 L -287.68372,525.58673 C -286.30872,526.709 -284.44498,527.637 -283.52747,527.64923 C -282.60995,527.66147 -281.03495,527.92554 -280.02748,528.24298 C -276.95538,529.21094 -285.72318,521.68274 -293.68372,516.52423 C -302.92901,510.53322 -302.24668,510.13724 -292.58997,515.89923 C -285.76947,519.96888 -276.27419,528.39282 -270.43373,535.52423 C -267.28082,539.37407 -267.1241,539.81458 -269.18373,539.02423 C -270.00367,538.70957 -272.21399,536.36109 -274.08998,533.80548 C -276.9708,529.88099 -278.01197,529.14923 -280.83997,529.14923 C -284.56806,529.1492 -285.68411,531.90613 -282.18372,532.46173 C -280.51517,532.72657 -280.43231,532.58494 -281.68372,531.68048 C -282.83188,530.85062 -282.48004,530.76058 -280.18373,531.27423 C -276.62562,532.0701 -275.71025,532.64923 -278.02748,532.64923 C -280.10178,532.6492 -280.21931,535.2431 -278.18373,536.02423 C -277.35873,536.34078 -275.89623,536.33385 -274.93373,536.02423 C -273.44628,535.54573 -273.40877,535.64043 -274.68373,536.58673 C -275.99791,537.56216 -275.95087,537.87769 -274.37123,539.08673 C -273.01714,540.12315 -272.89264,540.58879 -273.87123,540.99298 C -274.83793,541.39222 -274.67587,541.93494 -273.24623,543.08673 C -272.18638,543.94061 -271.62865,544.9379 -271.99623,545.30548 C -272.3638,545.67305 -272.11646,546.6519 -271.43373,547.49298 C -270.39286,548.77525 -270.46633,548.91791 -271.93373,548.36798 C -273.10371,547.92953 -273.68373,548.19861 -273.68373,549.18048 C -273.68373,550.97694 -271.57268,551.09454 -269.74623,549.39923 C -268.93259,548.64398 -268.64023,548.61356 -269.02748,549.30548 C -269.38002,549.93533 -268.9418,550.71661 -268.05873,551.05548 C -266.87547,551.50952 -266.63014,551.25379 -267.08998,550.05548 C -267.44207,549.13793 -266.15422,549.79793 -264.15248,551.55548 C -262.2014,553.26854 -260.29585,554.63278 -259.90248,554.61798 C -259.50911,554.60317 -260.60796,553.36568 -262.33998,551.86798 C -267.17588,547.68629 -269.47147,541.41181 -266.52748,540.43048 C -264.55599,539.77335 -266.48873,534.89157 -270.46498,530.46173 C -272.51351,528.17951 -278.47158,523.52999 -283.71497,520.11798 C -292.69261,514.27599 -306.78152,506.60404 -307.65247,507.05548 z M -290.12122,523.58673 L -290.18372,523.52423 L -290.02747,523.55548 C -289.80383,523.49846 -289.68372,523.3466 -289.68372,523.08673 C -289.68372,522.29991 -304.25805,515.6619 -305.87122,515.71173 C -306.59478,515.73411 -305.61921,517.08407 -303.71497,518.71173 C -301.57918,520.5373 -299.6043,521.45975 -298.52747,521.11798 C -297.5674,520.81326 -295.50064,521.22279 -293.96497,522.05548 C -291.94681,523.14977 -290.72008,523.65622 -290.12122,523.58673 z M -240.40248,509.64923 C -241.20775,509.6492 -245.2001,511.95553 -249.27748,514.77423 C -256.46914,519.74582 -258.78305,521.85984 -254.65248,519.64923 C -253.54111,519.05446 -252.27475,518.79871 -251.80873,519.08673 C -250.86444,519.67033 -238.80019,515.17194 -237.30873,513.68048 C -236.12818,512.49997 -238.32292,509.64923 -240.40248,509.64923 z M -238.27748,511.96173 C -238.15674,511.94377 -238.05826,511.9622 -238.02748,511.99298 C -237.57598,512.44447 -250.37361,518.70938 -251.55873,518.61798 C -251.90947,518.59092 -249.10838,516.98919 -245.33998,515.05548 C -242.04264,513.36349 -239.12266,512.08748 -238.27748,511.96173 z M -222.02748,513.08673 C -221.86476,513.06481 -221.7522,513.77275 -221.68373,515.14923 C -221.55424,517.75272 -221.42958,517.88491 -220.68373,516.14923 C -220.11684,514.8299 -219.81412,514.65976 -219.77748,515.64923 C -219.70279,517.66578 -221.97682,521.97967 -222.99623,521.74298 C -223.44479,521.63882 -224.73337,522.71116 -225.83998,524.11798 C -226.94658,525.52478 -228.83264,527.2046 -230.02748,527.83673 C -231.37694,528.55065 -230.58389,527.2232 -227.96498,524.36798 C -225.64609,521.83988 -223.46297,518.50673 -223.12123,516.96173 C -222.54483,514.35593 -222.23669,513.11491 -222.02748,513.08673 z M -152.80873,515.77423 C -153.37849,515.75962 -154.35119,515.8829 -155.87123,516.11798 C -165.21309,517.56277 -178.97365,522.89659 -181.62123,526.08673 C -182.71742,527.40758 -182.67103,527.64923 -181.30873,527.64923 C -180.41636,527.6492 -179.68373,528.11284 -179.68373,528.64923 C -179.68376,529.24251 -178.80249,529.28459 -177.43373,528.77423 C -176.19626,528.31281 -173.04623,527.62665 -170.43373,527.24298 C -167.82126,526.8593 -165.68373,526.1238 -165.68373,525.61798 C -165.68376,525.11215 -164.44623,524.39998 -162.93373,524.02423 C -159.39857,523.14596 -154.22333,519.75197 -152.71498,517.33673 C -152.0251,516.23205 -151.85913,515.79858 -152.80873,515.77423 z M -217.87123,516.86798 C -217.76643,516.86549 -217.71498,516.94298 -217.71498,517.14923 C -217.715,517.6992 -218.15057,518.82423 -218.68373,519.64923 C -219.21692,520.4742 -219.65248,520.69923 -219.65248,520.14923 C -219.65246,519.5992 -219.21689,518.47423 -218.68373,517.64923 C -218.35052,517.13359 -218.04589,516.87213 -217.87123,516.86798 z M -161.65248,520.05548 C -161.25135,520.01001 -160.98771,520.03275 -160.90248,520.11798 C -160.63246,520.38798 -161.04251,520.81371 -161.80873,521.05548 C -163.57857,521.61393 -174.53987,525.22307 -177.18373,526.11798 C -178.55144,526.58094 -178.39333,526.30417 -176.68373,525.24298 C -174.01699,523.58765 -164.46039,520.3738 -161.65248,520.05548 z M -297.68372,521.86798 C -297.793,521.86703 -297.86196,521.87531 -297.93372,521.89923 C -298.54183,522.10194 -296.42577,523.92211 -293.21497,525.93048 C -290.00416,527.93885 -286.91793,529.29962 -286.37122,528.96173 C -285.80138,528.60955 -286.1874,527.74775 -287.27747,526.93048 C -290.38102,524.60361 -296.04458,521.8823 -297.68372,521.86798 z M -182.65248,523.58673 C -183.36771,523.6819 -184.61517,524.1567 -186.33998,525.05548 C -193.93854,529.01499 -194.64078,529.63127 -191.58998,529.64923 C -190.15884,529.65763 -187.47891,528.63673 -185.65248,527.39923 C -181.99882,524.92369 -181.07898,523.37735 -182.65248,523.58673 z M -303.74622,525.64923 C -305.95773,525.6492 -305.95759,525.68257 -304.12122,527.71173 C -302.49097,529.51314 -289.0961,536.64923 -287.33997,536.64923 C -286.98517,536.6492 -286.68372,536.03217 -286.68372,535.27423 C -286.68372,534.50592 -289.33849,532.90026 -292.68372,531.64923 C -298.57785,529.44494 -300.85531,527.93287 -296.43372,529.14923 C -291.5158,530.50209 -284.68372,534.08366 -284.68372,535.30548 C -284.68372,536.80751 -281.24199,538.895 -280.30872,537.96173 C -279.96143,537.61444 -279.68373,538.0284 -279.68373,538.89923 C -279.68373,540.89053 -276.73249,542.3855 -275.40248,541.05548 C -274.50088,540.1539 -276.6939,538.2671 -280.49622,536.71173 C -282.88586,535.73423 -283.44522,535.12599 -282.49622,534.52423 C -281.56257,533.93219 -281.54811,533.69133 -282.40247,533.68048 C -283.06554,533.67209 -285.23189,532.55749 -287.21497,531.21173 C -290.98762,528.65152 -299.89242,525.64923 -303.74622,525.64923 z M -159.62123,528.21173 C -167.0812,528.23961 -178.19657,529.76003 -180.90248,531.71173 C -184.38938,534.22676 -185.64898,534.24829 -182.55873,531.74298 C -181.26033,530.69032 -180.49558,529.52638 -180.87123,529.14923 C -182.05148,527.96421 -188.65074,530.73549 -189.80873,532.89923 C -190.83623,534.81912 -190.71087,534.92341 -187.93373,534.36798 C -186.10986,534.00317 -184.21949,534.29206 -183.08998,535.11798 C -180.92202,536.70322 -173.38877,536.22965 -164.24623,533.96173 C -158.54617,532.5478 -152.1176,529.85828 -152.83998,529.18048 C -153.59573,528.47136 -156.23033,528.19906 -159.62123,528.21173 z M -224.12123,528.64923 C -224.3638,528.6492 -224.84381,529.09923 -225.18373,529.64923 C -225.52368,530.1992 -225.32869,530.64923 -224.74623,530.64923 C -224.1638,530.6492 -223.68373,530.19923 -223.68373,529.64923 C -223.68376,529.0992 -223.87869,528.64923 -224.12123,528.64923 z M -164.37123,530.27423 C -163.3851,530.23216 -162.68373,530.37271 -162.68373,530.68048 C -162.68376,531.09083 -165.24452,531.75857 -168.37123,532.14923 C -171.49797,532.53991 -175.09795,533.25888 -176.37123,533.74298 C -177.73358,534.26091 -178.68373,534.2439 -178.68373,533.71173 C -178.68376,532.91223 -173.96307,531.715 -165.43373,530.36798 C -165.05561,530.30827 -164.69994,530.28825 -164.37123,530.27423 z M -184.33998,530.64923 C -183.06946,530.6492 -183.6227,531.12892 -186.68373,532.58673 C -189.04103,533.70939 -189.07654,533.6781 -187.24623,532.21173 C -186.17861,531.35642 -184.87653,530.64923 -184.33998,530.64923 z M -191.43373,535.74298 C -191.63914,535.72942 -191.90797,535.74597 -192.21498,535.80548 C -194.69358,536.2859 -195.21235,538.38726 -192.99623,538.96173 C -189.79694,539.79106 -184.23536,539.65383 -182.74623,538.71173 C -180.69183,537.41204 -185.87721,535.10817 -188.37123,536.21173 C -189.84724,536.86485 -189.532,537.12185 -186.68373,537.71173 L -183.18373,538.46173 L -187.33998,538.36798 C -190.47823,538.30341 -191.34389,537.93683 -190.93373,536.86798 C -190.65848,536.15068 -190.8175,535.78365 -191.43373,535.74298 z M -299.43372,536.08673 C -300.1653,536.10291 -300.81217,536.14983 -301.30872,536.24298 C -305.95642,537.11493 -304.58374,538.40899 -296.52747,540.71173 C -288.87402,542.89931 -286.38993,543.06636 -286.93372,541.39923 C -287.15798,540.7117 -289.76214,539.62744 -292.74622,538.99298 C -295.7303,538.35854 -297.05872,537.81415 -295.68372,537.77423 C -294.30872,537.73434 -291.49915,538.10711 -289.43372,538.58673 C -287.3683,539.06634 -285.45359,539.08589 -285.18372,538.64923 C -284.52086,537.57672 -294.31268,535.97347 -299.43372,536.08673 z M -169.58998,537.14923 C -176.35323,537.1492 -179.15495,537.60694 -181.96498,539.11798 C -184.85439,540.67172 -185.37196,541.33764 -184.46498,542.43048 C -183.19435,543.96153 -184.89668,545.6213 -187.77748,545.64923 C -191.00495,545.6805 -189.38309,550.03258 -185.40248,552.02423 C -183.31711,553.06765 -181.81415,554.12341 -182.05873,554.36798 C -182.30333,554.61255 -184.32734,553.88135 -186.55873,552.74298 C -191.0093,550.47244 -193.68373,550.07153 -193.68373,551.71173 C -193.68376,552.29416 -193.34623,552.55725 -192.93373,552.30548 C -192.52126,552.05372 -189.70873,553.14336 -186.68373,554.71173 C -180.72364,557.80189 -176.68373,558.44145 -176.68373,556.30548 C -176.68376,554.59198 -179.12084,552.46057 -184.18373,549.74298 L -188.18373,547.61798 L -184.87123,548.24298 C -176.65103,549.78613 -170.7616,550.23852 -168.74623,549.49298 C -164.74822,548.014 -167.77013,546.47518 -179.68373,543.99298 C -182.57591,543.3904 -181.30996,543.05912 -172.30873,542.02423 C -161.96354,540.83484 -158.38092,539.64128 -160.08998,537.93048 C -160.51124,537.50879 -164.78287,537.14923 -169.58998,537.14923 z M -172.02748,538.74298 C -169.71249,538.69914 -167.64098,538.90765 -167.33998,539.39923 C -167.0874,539.8117 -169.86985,540.23122 -173.52748,540.30548 C -177.80441,540.3923 -179.46998,540.14195 -178.18373,539.61798 C -176.90352,539.09647 -174.34247,538.78682 -172.02748,538.74298 z M -283.24622,539.64923 C -285.26031,539.6492 -285.04474,542.35717 -282.93372,543.58673 C -280.6761,544.90169 -278.68373,544.92163 -278.68373,543.64923 C -278.68373,543.0992 -279.69623,542.63015 -280.93372,542.58673 C -282.17122,542.54331 -282.62465,542.27154 -281.93372,541.99298 C -280.35813,541.35775 -281.31293,539.64923 -283.24622,539.64923 z M -193.02748,540.05548 C -193.35795,540.05713 -193.74293,540.29934 -194.27748,540.74298 C -196.91373,542.93087 -195.70249,544.57586 -192.80873,542.74298 C -192.05079,542.26293 -191.75805,541.34992 -192.15248,540.71173 C -192.42418,540.27212 -192.69701,540.05383 -193.02748,540.05548 z M -189.96498,540.86798 C -190.1574,540.88321 -190.32197,540.94372 -190.43373,541.05548 C -190.7415,541.36323 -189.90733,542.07476 -188.58998,542.64923 C -186.26607,543.66267 -186.26554,543.67515 -188.93373,543.14923 C -190.48931,542.84263 -191.68373,543.0728 -191.68373,543.64923 C -191.68376,544.936 -187.00406,544.98849 -186.21498,543.71173 C -185.64754,542.79363 -188.61802,540.76139 -189.96498,540.86798 z M -276.33998,543.14923 C -276.69178,543.1796 -276.96535,543.30327 -277.12123,543.55548 C -277.39888,544.00474 -277.34794,544.67252 -276.99623,545.02423 C -276.04321,545.97727 -273.68373,545.80033 -273.68373,544.77423 C -273.68373,543.8541 -275.28458,543.05812 -276.33998,543.14923 z M -287.55872,544.08673 C -292.33394,544.27511 -299.68372,546.14294 -299.68372,547.68048 C -299.68372,548.60288 -294.03922,549.54473 -291.83997,548.99298 C -291.10749,548.8092 -288.74499,548.64923 -286.58997,548.64923 C -284.41095,548.6492 -282.68372,548.16621 -282.68372,547.55548 C -282.68372,546.81501 -284.71958,546.64481 -288.93372,547.02423 C -293.04454,547.39434 -294.32805,547.28057 -292.68372,546.71173 C -291.30872,546.23604 -288.38372,545.81453 -286.18372,545.74298 C -282.8433,545.63431 -282.49719,545.41396 -284.02747,544.52423 C -284.68298,544.14311 -285.96698,544.02394 -287.55872,544.08673 z M -195.55873,544.64923 C -196.10871,544.6492 -196.84381,545.09923 -197.18373,545.64923 C -197.52368,546.1992 -197.35873,546.64923 -196.80873,546.64923 C -196.25875,546.6492 -195.52365,546.19923 -195.18373,545.64923 C -194.84384,545.0992 -195.00873,544.64923 -195.55873,544.64923 z M -193.18373,545.68048 C -193.48393,545.74845 -193.55321,546.0514 -193.18373,546.64923 C -192.84384,547.1992 -193.37627,547.70432 -194.37123,547.74298 C -195.98603,547.80572 -195.96898,547.88208 -194.18373,548.64923 C -191.47752,549.81211 -191.45439,549.82477 -192.27748,548.49298 C -192.77504,547.68796 -192.45735,547.54749 -191.21498,548.02423 C -189.6887,548.60994 -189.61531,548.46785 -190.68373,547.18048 C -191.55461,546.13113 -192.68339,545.5672 -193.18373,545.68048 z M -185.18373,545.74298 L -179.87123,546.05548 C -176.95136,546.23012 -174.06135,546.89661 -173.43373,547.52423 C -172.80612,548.15187 -172.5154,548.64923 -172.80873,548.64923 C -173.10207,548.6492 -173.5751,548.44535 -173.83998,548.18048 C -174.10482,547.91561 -176.75694,547.24909 -179.74623,546.71173 L -185.18373,545.74298 z M -278.08998,545.80548 C -278.31193,545.8205 -278.64264,545.87412 -279.08998,545.93048 C -282.62851,546.37623 -282.12994,548.68616 -278.52748,548.52423 L -275.18373,548.36798 L -278.18373,547.89923 C -280.86689,547.48023 -280.9725,547.33646 -279.18373,546.55548 C -277.78368,545.94423 -277.42414,545.76042 -278.08998,545.80548 z M -200.77748,546.77423 C -200.43009,546.78853 -200.13113,546.88933 -199.96498,547.05548 C -199.63267,547.38777 -200.22332,547.63015 -201.27748,547.58673 C -202.44241,547.53875 -202.66896,547.28095 -201.87123,546.96173 C -201.51031,546.81728 -201.12487,546.75993 -200.77748,546.77423 z M -197.24623,549.64923 C -198.18193,549.6492 -198.52394,550.13457 -198.08998,550.83673 C -197.59939,551.63048 -197.92576,551.78349 -199.08998,551.33673 C -200.10924,550.94563 -200.54663,551.0933 -200.18373,551.68048 C -199.22242,553.23598 -195.68373,552.81415 -195.68373,551.14923 C -195.68376,550.3242 -196.38877,549.64923 -197.24623,549.64923 z M -283.30872,549.99298 C -285.39572,550.08685 -287.88675,551.23241 -289.74622,553.21173 L -292.02747,555.64923 L -289.12122,555.64923 C -287.51284,555.64618 -284.49622,555.19076 -282.43372,554.61798 C -278.234,553.45166 -278.04526,553.16271 -280.18373,551.02423 C -280.93956,550.26839 -282.05652,549.93666 -283.30872,549.99298 z M -275.96498,550.11798 C -276.37349,550.12871 -276.80643,550.47943 -277.02748,551.05548 C -278.01195,553.62094 -275.42724,554.51514 -272.68373,552.55548 C -271.47879,551.69484 -271.62522,551.59657 -273.43373,551.99298 C -274.672,552.26442 -275.46846,552.10993 -275.18373,551.64923 C -274.89899,551.18851 -275.05739,550.55283 -275.55873,550.24298 C -275.68406,550.16552 -275.82881,550.1144 -275.96498,550.11798 z M -282.68372,551.80548 C -281.73824,551.80546 -281.92308,552.10752 -283.18372,552.64923 C -284.28372,553.12189 -285.85872,553.52423 -286.68372,553.52423 C -287.6292,553.52426 -287.44436,553.19094 -286.18372,552.64923 C -285.08372,552.17651 -283.50872,551.80548 -282.68372,551.80548 z M -269.30873,552.02423 C -271.13959,552.17312 -271.16293,553.5709 -268.93373,554.27423 C -266.31971,555.09901 -262.73817,556.86269 -264.99623,556.21173 C -266.03658,555.91182 -266.53647,556.10975 -266.18373,556.68048 C -265.84771,557.22419 -264.97993,557.64923 -264.24623,557.64923 C -262.49387,557.6492 -261.44689,560.39394 -262.87123,561.27423 C -263.60201,561.7259 -263.71979,561.47946 -263.18373,560.55548 C -262.73549,559.78284 -262.74411,559.50197 -263.21498,559.93048 C -263.68575,560.35888 -264.18276,561.41593 -264.30873,562.27423 C -264.48711,563.48965 -263.95433,563.69471 -261.87123,563.18048 C -259.71511,562.64826 -259.42607,562.74983 -260.43373,563.77423 C -261.12123,564.47315 -261.72266,566.21548 -261.77748,567.61798 L -261.87123,570.14923 L -262.58998,567.68048 C -263.06547,565.97204 -263.52914,565.57359 -264.05873,566.43048 C -264.94065,567.85746 -263.95633,571.64923 -262.71498,571.64923 C -262.26088,571.6492 -261.64257,570.95672 -261.30873,570.08673 C -260.97488,569.21672 -260.68373,567.81229 -260.68373,566.99298 C -260.68373,566.17369 -260.05387,564.89436 -259.27748,564.11798 C -255.85729,560.69779 -261.86492,552.72125 -268.40248,552.02423 C -268.73619,551.98865 -269.04718,552.00296 -269.30873,552.02423 z M -201.74623,552.64923 C -202.32872,552.6492 -202.52365,553.09923 -202.18373,553.64923 C -201.84384,554.1992 -201.36377,554.64923 -201.12123,554.64923 C -200.87872,554.6492 -200.68373,554.19923 -200.68373,553.64923 C -200.68376,553.0992 -201.16377,552.64923 -201.74623,552.64923 z M -196.15248,553.43048 C -197.58595,553.4816 -198.68373,553.86675 -198.68373,554.52423 C -198.68376,555.71998 -187.52214,562.68215 -186.55873,562.08673 C -186.06492,561.78156 -186.4625,560.15595 -187.43373,558.49298 C -188.40499,556.83002 -190.30873,554.93922 -191.68373,554.27423 C -192.94984,553.66192 -194.71901,553.37936 -196.15248,553.43048 z M -204.30873,554.21173 C -204.46372,554.1962 -204.5875,554.2405 -204.65248,554.30548 C -205.20286,554.85584 -202.62849,556.62674 -201.24623,556.64923 C -200.72861,556.65763 -201.17947,556.02301 -202.24623,555.24298 C -203.04631,554.65796 -203.84377,554.25832 -204.30873,554.21173 z M -277.58998,554.64923 C -279.80966,554.6492 -284.29894,558.04694 -285.80872,560.86798 C -286.82954,562.77539 -286.70744,562.88863 -284.05872,562.24298 C -282.487,561.85983 -279.52856,560.81438 -277.49623,559.93048 C -274.38611,558.57785 -273.95237,558.03472 -274.77748,556.49298 C -275.31667,555.48552 -276.5835,554.64923 -277.58998,554.64923 z M -271.77748,554.89923 C -272.36833,554.87731 -272.68373,555.26459 -272.68373,556.05548 C -272.68373,557.85726 -270.94163,558.1084 -268.68373,556.64923 C -267.82314,556.09304 -267.66975,555.68927 -268.33998,555.68048 C -268.9825,555.67209 -270.22,555.38933 -271.08998,555.05548 C -271.34948,554.9559 -271.58053,554.90654 -271.77748,554.89923 z M -194.43373,554.93048 C -194.36561,554.83103 -193.90288,555.03966 -193.08998,555.46173 C -190.60337,556.75276 -188.06035,559.64923 -189.40248,559.64923 C -189.92397,559.6492 -191.4441,558.47388 -192.77748,557.02423 C -193.99432,555.70126 -194.52132,555.05834 -194.43373,554.93048 z M -206.87123,555.43048 C -208.22112,555.60335 -210.68373,558.03783 -210.68373,559.64923 C -210.68376,561.42579 -205.01651,568.64923 -203.62123,568.64923 C -203.11125,568.6492 -202.68066,568.31173 -202.68373,567.89923 C -202.68678,567.4867 -203.17345,565.46173 -203.74623,563.39923 C -204.48128,560.75241 -205.34694,559.64923 -206.68373,559.64923 C -207.7254,559.6492 -208.84771,559.22418 -209.18373,558.68048 C -209.52494,558.12846 -209.15014,557.93209 -208.33998,558.24298 C -206.708,558.86923 -205.2439,557.18184 -206.15248,555.71173 C -206.30169,555.4703 -206.55972,555.39059 -206.87123,555.43048 z M -276.24623,555.86798 C -276.16845,555.87569 -276.12851,555.89195 -276.08998,555.93048 C -275.82958,556.19089 -277.204,557.34334 -279.15248,558.49298 C -281.10095,559.64261 -282.68372,560.2496 -282.68372,559.83673 C -282.68372,558.91747 -277.41292,555.75239 -276.24623,555.86798 z M -201.05873,557.18048 C -201.98407,557.2303 -203.12937,557.35884 -204.58998,557.58673 C -204.81499,557.62182 -203.17807,559.44923 -200.93373,561.64923 C -196.96112,565.54336 -194.68373,566.6424 -194.68373,564.68048 C -194.68376,564.14917 -195.41493,562.17978 -196.30873,560.30548 C -197.5102,557.78594 -198.2827,557.03102 -201.05873,557.18048 z M -267.62123,557.64923 C -268.20369,557.6492 -268.68373,558.09923 -268.68373,558.64923 C -268.68373,559.1992 -268.48877,559.64923 -268.24623,559.64923 C -268.00369,559.6492 -267.52365,559.19923 -267.18373,558.64923 C -266.84381,558.0992 -267.03877,557.64923 -267.62123,557.64923 z M -212.62123,557.64923 C -213.13706,557.6492 -213.48247,558.52484 -213.40248,559.58673 C -213.23824,561.76712 -211.68373,561.31364 -211.68373,559.08673 C -211.68376,558.29417 -212.10541,557.64923 -212.62123,557.64923 z M -214.93373,558.39923 C -215.27698,558.43054 -215.69999,559.15839 -216.33998,560.68048 C -217.48876,563.41263 -218.05556,563.77711 -220.18373,563.24298 C -223.39433,562.43714 -223.42809,564.02987 -220.24623,567.21173 C -217.02923,570.42876 -216.29911,570.29106 -217.02748,566.64923 C -217.79109,562.83109 -216.73402,562.83112 -214.18373,566.64923 C -213.08376,568.29604 -211.62123,569.64764 -210.93373,569.64923 C -209.51597,569.65246 -209.43473,569.113 -210.27748,564.89923 C -210.72945,562.63948 -211.34053,562.01673 -212.68373,562.36798 C -213.66612,562.62485 -214.7517,562.34089 -215.12123,561.74298 C -215.49078,561.14506 -215.34268,560.64923 -214.77748,560.64923 C -214.21225,560.6492 -214.03277,559.93747 -214.37123,559.05548 C -214.54616,558.59962 -214.72778,558.38044 -214.93373,558.39923 z M -199.96498,558.64923 C -198.99138,558.6492 -196.40303,562.68103 -196.99623,563.27423 C -197.23483,563.51285 -198.1778,562.57264 -199.08998,561.18048 C -200.00215,559.78831 -200.39536,558.64923 -199.96498,558.64923 z M -273.33998,559.74298 C -273.44361,559.75927 -273.57279,559.79025 -273.71498,559.83673 C -275.41939,560.39383 -278.16338,565.51334 -277.24623,566.43048 C -276.90432,566.77238 -275.32667,566.30157 -273.74623,565.36798 C -269.88995,563.09004 -269.64335,563.16608 -270.33998,566.64923 C -271.06398,570.26919 -269.80868,570.50079 -266.77748,567.27423 C -265.44195,565.85265 -264.95689,564.61495 -265.55873,564.24298 C -266.11628,563.89841 -267.06801,564.42516 -267.68373,565.39923 C -268.35038,566.45386 -268.65725,566.57634 -268.43373,565.71173 C -268.2273,564.91317 -268.75223,563.44016 -269.58998,562.46173 C -271.04155,560.76642 -271.20379,560.80448 -273.52748,562.93048 L -275.96498,565.14923 L -274.12123,562.24298 C -272.85842,560.2715 -272.61459,559.62898 -273.33998,559.74298 z M -266.58998,560.14923 C -266.76928,560.16884 -266.97748,560.22633 -267.18373,560.30548 C -268.00873,560.62205 -268.68373,561.05807 -268.68373,561.27423 C -268.68373,561.49036 -268.00873,561.64923 -267.18373,561.64923 C -266.35873,561.6492 -265.68373,561.21321 -265.68373,560.68048 C -265.68373,560.28092 -266.05209,560.09039 -266.58998,560.14923 z M -207.21498,560.93048 C -206.83338,561.00156 -205.97658,562.11604 -205.18373,563.64923 C -204.27765,565.40142 -203.75248,567.06173 -204.02748,567.33673 C -204.3025,567.61171 -205.27762,566.40145 -206.18373,564.64923 C -207.08987,562.89698 -207.61498,561.23673 -207.33998,560.96173 C -207.3056,560.92736 -207.26949,560.92033 -207.21498,560.93048 z M -213.21498,563.93048 C -212.88419,563.91186 -212.24296,564.6043 -211.68373,565.64923 C -210.17249,568.47303 -210.89219,569.19279 -212.55873,566.52423 C -213.26351,565.39569 -213.60853,564.23027 -213.33998,563.96173 C -213.30641,563.92816 -213.26224,563.93314 -213.21498,563.93048 z M -219.30873,564.99298 C -219.03662,564.92084 -218.62496,565.37535 -218.33998,566.11798 C -217.66378,567.88009 -218.22893,568.18219 -219.21498,566.58673 C -219.57752,566.00011 -219.66461,565.31761 -219.40248,565.05548 C -219.36972,565.02271 -219.3476,565.00329 -219.30873,564.99298 z M -203.15248,571.64923 C -202.31023,571.6492 -201.35316,572.36301 -201.02748,573.21173 C -200.16008,575.47218 -200.93985,575.58182 -202.93373,573.49298 C -204.41441,571.94182 -204.44816,571.64923 -203.15248,571.64923 z M -217.99623,577.83673 C -217.80704,577.85775 -217.68373,578.09194 -217.68373,578.49298 C -217.68376,579.13464 -217.00873,579.64923 -216.18373,579.64923 C -215.35876,579.6492 -213.78373,580.54923 -212.68373,581.64923 C -209.84554,584.48742 -212.54598,584.12786 -216.15248,581.18048 C -217.781,579.84962 -218.79349,578.41523 -218.40248,578.02423 C -218.25586,577.8776 -218.10974,577.82412 -217.99623,577.83673 z M -222.18373,580.08673 C -221.85583,580.00971 -221.63309,580.35416 -221.33998,581.11798 C -220.9786,582.05966 -220.93699,583.24262 -221.24623,583.74298 C -221.55549,584.24335 -221.27104,584.64923 -220.62123,584.64923 C -219.83748,584.6492 -219.77402,585.07 -220.40248,585.89923 C -220.92351,586.5867 -221.20449,588.38673 -221.05873,589.89923 C -220.80321,592.55044 -221.52992,593.94381 -221.83998,591.39923 C -221.92376,590.7117 -222.03024,589.60717 -222.08998,588.93048 C -222.14973,588.25375 -222.92661,586.86697 -223.80873,585.83673 C -225.28338,584.11453 -225.28814,583.76606 -223.71498,581.68048 C -222.95166,580.66849 -222.51163,580.16375 -222.18373,580.08673 z M -222.46498,582.24298 C -222.57557,582.23265 -222.70405,582.29455 -222.83998,582.43048 C -223.33923,582.92976 -223.47311,584.07601 -223.12123,584.99298 C -222.23379,587.30557 -221.93373,587.08447 -221.93373,584.08673 C -221.93375,582.93001 -222.13321,582.27396 -222.46498,582.24298 z M -209.62123,582.71173 C -209.47718,582.65235 -209.12925,582.83456 -208.58998,583.24298 C -207.81303,583.83143 -205.26755,584.90303 -202.90248,585.64923 C -198.57673,587.01403 -196.40691,588.64923 -198.93373,588.64923 C -199.68117,588.6492 -200.72373,588.24993 -201.24623,587.74298 C -201.76871,587.23605 -203.73364,586.4113 -205.62123,585.93048 C -207.50882,585.44969 -209.26313,584.41771 -209.52748,583.61798 C -209.71098,583.06289 -209.76528,582.77111 -209.62123,582.71173 z M -240.24623,585.05548 C -240.68816,584.98057 -240.57717,585.51032 -240.21498,586.83673 C -238.7099,592.34869 -235.11107,598.63433 -233.43373,598.64923 C -232.3264,598.65906 -231.68373,597.89493 -231.68373,596.58673 C -231.68376,594.93384 -232.10956,594.67243 -233.80873,595.21173 C -235.12527,595.62957 -235.69249,595.48891 -235.30873,594.86798 C -234.96804,594.31667 -235.47439,593.5524 -236.43373,593.18048 C -238.04747,592.55488 -238.0341,592.41037 -236.18373,590.99298 C -234.2241,589.49186 -234.23575,589.45289 -236.46498,590.11798 C -238.07934,590.59961 -238.6602,590.43342 -238.46498,589.49298 C -238.31366,588.76405 -237.85554,587.91188 -237.46498,587.61798 C -237.07442,587.32406 -237.6826,586.50876 -238.80873,585.80548 C -239.51321,585.36554 -239.98107,585.10042 -240.24623,585.05548 z M -210.49623,586.08673 C -209.73187,586.04532 -208.27509,586.48251 -205.43373,587.33673 L -203.18373,588.02423 L -205.68373,588.74298 C -210.18842,590.04733 -211.56228,589.77063 -211.40248,587.64923 C -211.32622,586.63694 -211.26059,586.12814 -210.49623,586.08673 z M -208.77748,587.77423 C -209.12487,587.75992 -209.51029,587.8173 -209.87123,587.96173 C -210.66899,588.28092 -210.44243,588.53875 -209.27748,588.58673 C -208.2233,588.63015 -207.63269,588.38778 -207.96498,588.05548 C -208.13112,587.88933 -208.43009,587.78854 -208.77748,587.77423 z M -195.99623,588.27423 C -195.66147,588.2314 -195.37631,588.36888 -195.18373,588.68048 C -194.84717,589.22499 -195.06881,589.64923 -195.68373,589.64923 C -196.29868,589.6492 -196.55053,590.06311 -196.24623,590.55548 C -195.72332,591.40151 -197.82377,592.64923 -199.74623,592.64923 C -200.2319,592.6492 -201.12347,591.71911 -201.74623,590.55548 C -202.65066,588.86553 -202.6035,588.53852 -201.52748,588.93048 C -200.78654,589.20036 -200.29623,589.90548 -200.43373,590.52423 C -200.57126,591.14295 -199.97869,591.64923 -199.12123,591.64923 C -198.2638,591.6492 -197.77775,591.31173 -198.02748,590.89923 C -198.2772,590.4867 -197.85943,589.6125 -197.12123,588.93048 C -196.6988,588.54019 -196.33099,588.31706 -195.99623,588.27423 z M -206.18373,589.68048 C -205.63376,589.68051 -204.50873,590.11607 -203.68373,590.64923 C -202.85876,591.18236 -202.63373,591.61798 -203.18373,591.61798 C -203.73376,591.61796 -204.85873,591.18239 -205.68373,590.64923 C -206.50876,590.11604 -206.73373,589.68048 -206.18373,589.68048 z M -187.49623,590.86798 C -187.29671,590.79536 -186.9447,590.982 -186.49623,591.43048 C -185.84538,592.0813 -185.55581,592.86507 -185.83998,593.14923 C -186.12415,593.43343 -186.66082,593.35965 -187.02748,592.99298 C -187.39413,592.62631 -187.68373,591.87382 -187.68373,591.30548 C -187.68374,591.07051 -187.61594,590.91155 -187.49623,590.86798 z M -194.77748,592.77423 C -194.43009,592.78853 -194.13113,592.88933 -193.96498,593.05548 C -193.63267,593.38777 -194.22332,593.63015 -195.27748,593.58673 C -196.44241,593.53875 -196.66896,593.28095 -195.87123,592.96173 C -195.5103,592.81728 -195.12487,592.75993 -194.77748,592.77423 z M -233.30873,600.68048 C -234.33172,600.72646 -235.3962,601.25145 -236.12123,602.24298 C -237.30043,603.85563 -256.00574,609.90699 -265.46498,611.74298 C -270.16486,612.6552 -271.03947,612.54111 -273.65248,610.68048 C -275.67907,609.23744 -277.35664,608.8001 -279.12123,609.24298 C -282.57537,610.10993 -282.40054,611.9828 -278.93373,611.24298 C -277.10359,610.85244 -275.21978,611.28627 -273.30873,612.55548 C -270.51366,614.41179 -270.49518,614.48454 -272.49623,615.55548 C -273.62694,616.16063 -276.94757,616.67097 -279.87123,616.68048 C -284.07942,616.69413 -285.6446,617.17181 -287.33997,618.96173 L -289.46497,621.21173 L -286.90247,621.11798 C -285.37212,621.05096 -284.06997,620.25033 -283.68372,619.14923 C -283.21595,617.81564 -282.8266,617.63571 -282.27747,618.52423 C -281.79884,619.29866 -281.06966,619.40855 -280.33997,618.83673 C -279.70144,618.33632 -277.49623,617.68472 -275.43373,617.36798 C -269.22561,616.4146 -270.63022,619.90682 -277.93373,623.55548 C -279.71469,624.44518 -281.20796,625.91305 -281.21497,626.83673 C -281.22198,627.76046 -281.55949,628.83758 -281.96497,629.24298 C -283.54417,630.82229 -282.55598,631.40578 -280.18373,630.30548 C -278.81301,629.66965 -277.68802,628.80378 -277.68373,628.36798 C -277.67515,627.49799 -276.74749,626.3616 -271.99623,621.30548 C -269.74863,618.91367 -268.53161,618.23885 -267.77748,618.99298 C -267.1914,619.57907 -265.22592,620.05454 -263.43373,620.08673 C -261.01197,620.13021 -260.26986,620.57489 -260.46498,621.77423 C -260.6643,622.9993 -260.1224,623.26386 -258.21498,622.89923 C -254.54809,622.19825 -255.13356,620.90623 -259.74623,619.52423 C -268.7444,616.82833 -261.98233,612.34673 -242.68373,608.21173 C -230.85701,605.67768 -229.72507,605.18263 -230.37123,602.71173 C -230.7329,601.32872 -231.99346,600.62136 -233.30873,600.68048 z M -217.83998,602.86798 C -219.48427,602.99046 -221.42395,604.95111 -220.99623,606.58673 C -220.44021,608.71281 -228.5248,634.02538 -232.37123,642.21168 C -233.23169,644.04308 -234.14053,645.46158 -235.24623,646.55548 L -240.18373,645.08668 C -247.92554,642.72478 -249.14389,642.77618 -249.46498,645.64928 C -249.72024,647.93318 -249.63039,648.01508 -248.37123,646.43048 C -247.61319,645.47658 -246.71917,644.98878 -246.37123,645.33668 C -246.02327,645.68468 -243.36266,646.09798 -240.46498,646.27428 L -235.24623,646.58668 C -237.62568,648.93068 -240.91986,649.76872 -246.65248,649.89932 C -249.41551,649.96222 -251.68373,650.38772 -251.68373,650.86802 C -251.68373,651.34832 -252.43454,651.62342 -253.33998,651.46172 C -254.24541,651.30022 -255.14682,651.59922 -255.33998,652.14932 C -255.53316,652.69932 -254.33233,653.21562 -252.68373,653.27432 C -250.59203,653.34862 -249.68373,652.89162 -249.68373,651.80552 C -249.68373,650.73182 -249.36715,650.59082 -248.65248,651.30552 C -247.60234,652.35562 -240.93221,651.67502 -237.30873,650.14932 C -235.69928,649.47142 -235.60034,649.63152 -236.49623,651.30552 C -237.63055,653.42502 -240.70435,655.20232 -244.80873,656.08672 C -246.25549,656.39852 -247.67246,657.46272 -247.93373,658.46172 C -248.32694,659.96532 -247.91401,660.21372 -245.55873,659.86802 C -243.99379,659.63832 -242.94438,659.04392 -243.24623,658.55552 C -243.54805,658.06712 -243.28804,657.64922 -242.65248,657.64932 C -242.01689,657.64922 -239.43486,655.85092 -236.93373,653.64932 C -234.10733,651.16132 -231.9961,649.96982 -231.30873,650.49302 C -230.04405,651.45582 -226.06474,651.28922 -223.33998,650.14932 C -222.21687,649.67942 -221.216,649.81482 -220.77748,650.52432 C -220.26969,651.34582 -219.50561,651.10662 -218.21498,649.68052 C -215.63995,646.83508 -216.84741,646.21158 -222.30873,647.58668 C -226.30027,648.59168 -227.24136,648.52908 -228.55873,647.21168 C -229.95942,645.81108 -229.92704,645.00068 -228.30873,638.89928 C -227.32346,635.18448 -225.92544,630.79923 -225.18373,629.14923 C -224.44201,627.49924 -222.37346,622.54923 -220.58998,618.14923 C -218.80651,613.7492 -217.01115,609.92423 -216.62123,609.64923 C -215.62248,608.94483 -215.74644,603.72395 -216.77748,603.08673 C -217.09452,602.89079 -217.46053,602.83972 -217.83998,602.86798 z M -185.24623,604.46173 C -185.37557,604.5315 -185.48349,605.11798 -185.49623,606.14923 C -185.51664,607.7992 -185.30141,608.60751 -185.02748,607.93048 C -184.75353,607.25347 -184.74269,605.90345 -184.99623,604.93048 C -185.0913,604.56562 -185.16862,604.41987 -185.24623,604.46173 z M -195.83998,606.71173 C -195.94463,606.7179 -196.22137,606.9399 -196.68373,607.36798 C -197.74475,608.35033 -197.75626,608.86332 -196.71498,610.11798 C -196.01093,610.9663 -195.01817,611.64923 -194.49623,611.64923 C -193.9743,611.6492 -194.25189,610.95607 -195.12123,610.08673 C -195.99055,609.21737 -196.41947,607.97989 -196.05873,607.33673 C -195.82621,606.9222 -195.73533,606.70556 -195.83998,606.71173 z M -285.33997,610.18048 C -285.69606,610.22061 -285.99044,610.35581 -286.15247,610.61798 C -286.44851,611.09697 -286.12465,611.71443 -285.43372,611.99298 C -283.45224,612.79182 -282.68372,612.73746 -282.68372,611.77423 C -282.68372,610.82697 -284.27171,610.06008 -285.33997,610.18048 z M -181.52748,611.64923 C -183.04091,611.6492 -183.63399,614.29272 -182.40248,615.52423 C -180.74856,617.17818 -179.24148,616.91188 -180.65248,615.21173 C -181.31716,614.41084 -181.56979,613.28583 -181.21498,612.71173 C -180.86017,612.13765 -181.00387,611.64923 -181.52748,611.64923 z M -191.40248,613.24298 C -191.57603,613.23257 -191.68373,613.3135 -191.68373,613.52423 C -191.68376,614.44493 -188.93017,616.58035 -187.68373,616.61798 C -187.40876,616.62625 -186.50873,616.16434 -185.68373,615.58673 C -184.49329,614.75328 -184.6379,614.64222 -186.33998,615.11798 C -187.65593,615.48577 -189.10492,615.10303 -190.08998,614.11798 C -190.64183,613.56611 -191.11323,613.26033 -191.40248,613.24298 z M -256.49623,623.86798 C -256.61594,623.91155 -256.68373,624.0705 -256.68373,624.30548 C -256.68373,625.64026 -255.50737,626.81662 -254.83998,626.14923 C -254.55581,625.8651 -254.84539,625.08132 -255.49623,624.43048 C -255.9447,623.98199 -256.29671,623.79537 -256.49623,623.86798 z M -216.80873,649.64932 C -217.35875,649.64932 -217.52365,650.09922 -217.18373,650.64932 C -216.84384,651.19932 -216.10873,651.64932 -215.55873,651.64932 C -215.00871,651.64932 -214.84381,651.19932 -215.18373,650.64932 C -215.52368,650.09932 -216.25873,649.64922 -216.80873,649.64932 z "
           style="fill:#003d8f"
           id="path2213" />
        <path
           d="M -242.65694,657.64932 C -242.02138,657.64942 -243.36643,655.77492 -244.81319,656.08672 C -246.25995,656.39852 -247.67692,657.46272 -247.93819,658.46172 C -248.3314,659.96532 -247.91847,660.21372 -245.56319,659.86802 C -243.99825,659.63832 -242.94884,659.04392 -243.25069,658.55552 C -243.55251,658.06712 -243.2925,657.64922 -242.65694,657.64932 z "
           style="fill:#003d8f;fill-opacity:1"
           id="path2243" />
        <path
           d="M -220.78194,650.52432 C -220.27415,651.34582 -219.51007,651.10662 -218.21944,649.68052 C -216.93192,648.2578 -216.59003,647.39056 -217.25268,647.0509 C -219.41558,646.34899 -220.14949,647.52345 -220.78194,650.52432 z "
           style="fill:#003d8f;fill-opacity:1"
           id="path2241" />
        <path
           d="M -249.46944,645.64928 C -249.7247,647.93318 -249.63485,648.01508 -248.37569,646.43048 C -247.61765,645.47658 -247.48256,645.99324 -248.60783,645.359"
           style="fill:#003d8f;fill-opacity:1"
           id="path2239" />
        <path
           d="M -249.68819,651.80552 C -249.68819,650.71942 -251.68819,650.38772 -251.68819,650.86802 C -251.68819,651.34832 -252.439,651.62342 -253.34444,651.46172 C -254.24987,651.30022 -255.15128,651.59922 -255.34444,652.14932 C -255.53762,652.69932 -254.33679,653.21562 -252.68819,653.27432 C -250.59649,653.34862 -249.68819,652.89162 -249.68819,651.80552 z "
           style="fill:#003d8f;fill-opacity:1"
           id="path2237" />
        <path
           d="M -279.81319,627.43941 C -281.59415,628.32911 -281.21242,625.91305 -281.21943,626.83673 C -281.22644,627.76046 -281.56395,628.83758 -281.96943,629.24298 C -283.54863,630.82229 -282.56044,631.40578 -280.18819,630.30548 C -278.81747,629.66965 -277.69248,628.80378 -277.68819,628.36798"
           style="fill:#003d8f;fill-opacity:1"
           id="path2235" />
        <path
           d="M -283.68818,619.14923 C -283.30193,618.04813 -287.34443,618.96173 -287.34443,618.96173 L -289.46943,621.21173 L -286.90693,621.11798 C -285.37658,621.05096 -284.07443,620.25033 -283.68818,619.14923 z "
           style="fill:#003d8f;fill-opacity:1"
           id="path2233" />
        <path
           d="M -278.93819,611.24298 C -275.47138,610.50316 -275.67155,608.37603 -279.12569,609.24298 C -282.57983,610.10993 -282.405,611.9828 -278.93819,611.24298 z "
           style="fill:#003d8f;fill-opacity:1"
           id="path2231" />
        <path
           d="M -258.21944,622.89923 C -252.42809,621.9096 -258.66298,618.7188 -260.46944,621.77423 C -260.66876,622.9993 -260.12686,623.26386 -258.21944,622.89923 z "
           style="fill:#003d8f;fill-opacity:1"
           id="path2229" />
        <path
           d="M -224.78194,498.68048 C -224.95514,498.63664 -225.46359,499.09198 -226.43819,499.96173 C -227.54307,500.94773 -230.06998,502.01327 -232.06319,502.33673 C -234.05643,502.66016 -235.68819,503.05368 -235.68819,503.21173 C -235.68822,505.53642 -234.17729,506.45693 -231.12569,505.96173 C -229.12493,505.63708 -227.68819,505.80964 -227.68819,506.39923 C -226.33336,503.31907 -225.60637,506.27033 -225.09444,500.30548 C -224.77267,499.27049 -224.60874,498.72432 -224.78194,498.68048 z "
           style="fill:#d40000;fill-opacity:1"
           id="path2227" />
        <path
           d="M -240.40694,509.64923 C -241.21221,509.6492 -245.20456,511.95553 -249.28194,514.77423 C -256.4736,519.74582 -258.78751,521.85984 -254.65694,519.64923 C -253.54557,519.05446 -252.27921,518.79871 -251.81319,519.08673 C -250.8689,519.67033 -238.80465,515.17194 -237.31319,513.68048 C -236.13264,512.49997 -238.32738,509.64923 -240.40694,509.64923 z "
           style="fill:#003d8f;fill-opacity:1"
           id="path2225" />
        <path
           d="M -238.28194,511.96173 C -238.1612,511.94377 -238.06272,511.9622 -238.03194,511.99298 C -237.58044,512.44447 -250.37807,518.70938 -251.56319,518.61798 C -251.91393,518.59092 -249.11284,516.98919 -245.34444,515.05548 C -242.0471,513.36349 -239.12712,512.08748 -238.28194,511.96173 z "
           style="fill:#003d8f;fill-opacity:1"
           id="path2223" />
        <path
           d="M -285.34443,610.18048 C -285.70052,610.22061 -285.9949,610.35581 -286.15693,610.61798 C -286.45297,611.09697 -286.12911,611.71443 -285.43818,611.99298 C -283.4567,612.79182 -282.68818,612.73746 -282.68818,611.77423 C -282.68818,610.82697 -284.27617,610.06008 -285.34443,610.18048 z "
           style="fill:#003d8f;fill-opacity:1"
           id="path2221" />
        <path
           d="M -256.50069,623.86798 C -256.6204,623.91155 -256.68819,624.0705 -256.68819,624.30548 C -256.68819,625.64026 -255.51183,626.81662 -254.84444,626.14923 C -254.56027,625.8651 -254.84985,625.08132 -255.50069,624.43048 C -255.94916,623.98199 -256.30117,623.79537 -256.50069,623.86798 z "
           style="fill:#003d8f;fill-opacity:1"
           id="path2219" />
        <path
           d="M -216.81319,649.64932 C -217.36321,649.64932 -217.52811,650.09922 -217.18819,650.64932 C -216.8483,651.19932 -216.11319,651.64932 -215.56319,651.64932 C -215.01317,651.64932 -214.84827,651.19932 -215.18819,650.64932 C -215.52814,650.09932 -216.26319,649.64922 -216.81319,649.64932 z "
           style="fill:#003d8f;fill-opacity:1"
           id="path2215" />
      </g>
    </g>
  </g>
  <g
     transform="translate(6.5166604,-2.2868924)"
     id="g2383">
    <g
       transform="matrix(0.2011603,0,0,0.2014749,17.293606,-0.5351705)"
       style="opacity:1"
       id="g4876">
      <path
         d="M -19.639633,122.20787 C -148.60116,67.23504 311.48637,79.0228 177.74697,123.79518 C 106.18382,133.16078 42.26459,131.75236 -19.639633,122.20787 z "
         style="opacity:1;fill:#ffcd50;fill-opacity:1;fill-rule:evenodd;stroke:#003d8f;stroke-width:2.81888723;stroke-linecap:butt;stroke-linejoin:round;stroke-miterlimit:4;stroke-dasharray:none;stroke-opacity:1"
         id="path4641" />
      <path
         d="M -2.876681,96.01739 C -145.22017,125.52346 298.58253,126.27223 164.15861,98.63079 C 108.44376,91.35305 53.74709,88.38048 -2.876681,96.01739 z "
         style="opacity:1;fill:#ffcd50;fill-opacity:1;fill-rule:evenodd;stroke:#003d8f;stroke-width:2.81888723;stroke-linecap:butt;stroke-linejoin:round;stroke-miterlimit:4;stroke-dasharray:none;stroke-opacity:1"
         id="path5528" />
      <path
         d="M 396.27327,205.21245 L 316.53956,204.98 L 323.68242,217.67841 L 394.22105,218.47206 C 395.18591,212.08782 395.67725,211.78905 396.27327,205.21245 z "
         style="opacity:1;fill:#ffcd50;fill-opacity:1;fill-rule:evenodd;stroke:#003d8f;stroke-width:2.81888723;stroke-linecap:butt;stroke-linejoin:round;stroke-miterlimit:4;stroke-dasharray:none;stroke-opacity:1"
         id="path1913" />
      <g
         transform="translate(-69.96837,-155.02)"
         style="opacity:1;fill:#ffcd50;fill-opacity:1;stroke:#003d8f"
         id="g2842">
        <path
           d="M 481.36737,328.54762 L 488.27778,324.57936 L 488.27778,304.27318 C 476.26878,305.24498 472.31275,305.32187 460.5,304.27319 L 460.5,323.78571 L 467.64286,328.54762 L 481.36737,328.54762 z "
           style="fill:#ffcd50;fill-opacity:1;fill-rule:evenodd;stroke:#003d8f;stroke-width:2.81888723;stroke-linecap:butt;stroke-linejoin:round;stroke-miterlimit:4;stroke-dasharray:none;stroke-opacity:1"
           id="path11817" />
        <path
           d="M 454.7619,302.85714 L 454.7619,296.50794 C 474.11643,294.12211 476.52491,293.9539 493.65079,295.94675 L 493.88324,302.62469 C 481.57633,305.90206 468.56522,305.54802 454.7619,302.85714 z "
           style="fill:#ffcd50;fill-opacity:1;fill-rule:evenodd;stroke:#003d8f;stroke-width:2.81888723;stroke-linecap:butt;stroke-linejoin:round;stroke-miterlimit:4;stroke-dasharray:none;stroke-opacity:1"
           id="path1917" />
        <path
           d="M 454.52944,296.83668 C 470.79888,299.06598 478.43704,299.52667 494.63017,296.75007"
           style="fill:#ffcd50;fill-opacity:1;fill-rule:evenodd;stroke:#003d8f;stroke-width:2.81888723;stroke-linecap:butt;stroke-linejoin:round;stroke-miterlimit:4;stroke-dasharray:none;stroke-opacity:1"
           id="path1919" />
      </g>
      <path
         d="M 182.70143,121.64667 C 105.21484,133.05758 52.00576,132.23515 -19.968374,121.64667 C 30.6482,147.27909 45.68045,195.73356 52.25385,248.6308 C 72.33998,352.57208 129.68793,392.02174 204.6348,401.01175 C 348.46479,413.30348 411.4724,286.0963 411.83406,173.61628 L 398.8069,173.05508 C 394.28824,295.61824 337.73772,346.55817 292.2813,373.66072 C 275.83072,386.36075 262.94443,393.66222 232.27641,401.2442 C 379.40015,370.12175 365.4813,168.49411 230.03163,151.8054 C 183.80226,146.24321 131.76741,173.89152 109.38353,215.93271 C 103.36772,258.76365 119.40979,302.37785 126.85702,314.27136 C 98.74911,258.81302 91.68353,159.9119 182.70143,121.64667 z M 317.79367,274.97972 C 317.79367,331.83571 273.42745,377.97971 218.76191,377.97971 C 164.09638,377.97971 119.73015,331.83571 119.73015,274.97972 C 119.73015,218.12373 164.09638,171.97974 218.76191,171.97974 C 273.42745,171.97974 317.79367,218.12373 317.79367,274.97972 z "
         style="fill:#ffcd50;fill-opacity:1;fill-rule:evenodd;stroke:#003d8f;stroke-width:2.81888723;stroke-linecap:butt;stroke-linejoin:round;stroke-miterlimit:4;stroke-opacity:1"
         id="path2869" />
    </g>
    <g
       transform="matrix(0.2011603,0,0,0.2014749,143.5373,-0.6723336)"
       style="opacity:1"
       id="g2365">
      <path
         d="M -19.639633,122.20787 C -148.60116,67.23504 311.48637,79.0228 177.74697,123.79518 C 106.18382,133.16078 42.26459,131.75236 -19.639633,122.20787 z "
         style="opacity:1;fill:#ffcd50;fill-opacity:1;fill-rule:evenodd;stroke:#003d8f;stroke-width:2.81888723;stroke-linecap:butt;stroke-linejoin:round;stroke-miterlimit:4;stroke-dasharray:none;stroke-opacity:1"
         id="path2367" />
      <path
         d="M -2.876681,96.01739 C -145.22017,125.52346 298.58253,126.27223 164.15861,98.63079 C 108.44376,91.35305 53.74709,88.38048 -2.876681,96.01739 z "
         style="opacity:1;fill:#ffcd50;fill-opacity:1;fill-rule:evenodd;stroke:#003d8f;stroke-width:2.81888723;stroke-linecap:butt;stroke-linejoin:round;stroke-miterlimit:4;stroke-dasharray:none;stroke-opacity:1"
         id="path2369" />
      <path
         d="M 396.27327,205.21245 L 316.53956,204.98 L 323.68242,217.67841 L 394.22105,218.47206 C 395.18591,212.08782 395.67725,211.78905 396.27327,205.21245 z "
         style="opacity:1;fill:#ffcd50;fill-opacity:1;fill-rule:evenodd;stroke:#003d8f;stroke-width:2.81888723;stroke-linecap:butt;stroke-linejoin:round;stroke-miterlimit:4;stroke-dasharray:none;stroke-opacity:1"
         id="path2371" />
      <g
         transform="translate(-69.96837,-155.02)"
         style="opacity:1;fill:#ffcd50;fill-opacity:1;stroke:#003d8f"
         id="g2373">
        <path
           d="M 481.36737,328.54762 L 488.27778,324.57936 L 488.27778,304.27318 C 476.26878,305.24498 472.31275,305.32187 460.5,304.27319 L 460.5,323.78571 L 467.64286,328.54762 L 481.36737,328.54762 z "
           style="fill:#ffcd50;fill-opacity:1;fill-rule:evenodd;stroke:#003d8f;stroke-width:2.81888723;stroke-linecap:butt;stroke-linejoin:round;stroke-miterlimit:4;stroke-dasharray:none;stroke-opacity:1"
           id="path2375" />
        <path
           d="M 454.7619,302.85714 L 454.7619,296.50794 C 474.11643,294.12211 476.52491,293.9539 493.65079,295.94675 L 493.88324,302.62469 C 481.57633,305.90206 468.56522,305.54802 454.7619,302.85714 z "
           style="fill:#ffcd50;fill-opacity:1;fill-rule:evenodd;stroke:#003d8f;stroke-width:2.81888723;stroke-linecap:butt;stroke-linejoin:round;stroke-miterlimit:4;stroke-dasharray:none;stroke-opacity:1"
           id="path2377" />
        <path
           d="M 454.52944,296.83668 C 470.79888,299.06598 478.43704,299.52667 494.63017,296.75007"
           style="fill:#ffcd50;fill-opacity:1;fill-rule:evenodd;stroke:#003d8f;stroke-width:2.81888723;stroke-linecap:butt;stroke-linejoin:round;stroke-miterlimit:4;stroke-dasharray:none;stroke-opacity:1"
           id="path2379" />
      </g>
      <path
         d="M 182.70143,121.64667 C 105.21484,133.05758 52.00576,132.23515 -19.968374,121.64667 C 30.6482,147.27909 45.68045,195.73356 52.25385,248.6308 C 72.33998,352.57208 129.68793,392.02174 204.6348,401.01175 C 348.46479,413.30348 411.4724,286.0963 411.83406,173.61628 L 398.8069,173.05508 C 394.28824,295.61824 337.73772,346.55817 292.2813,373.66072 C 275.83072,386.36075 262.94443,393.66222 232.27641,401.2442 C 379.40015,370.12175 365.4813,168.49411 230.03163,151.8054 C 183.80226,146.24321 131.76741,173.89152 109.38353,215.93271 C 103.36772,258.76365 119.40979,302.37785 126.85702,314.27136 C 98.74911,258.81302 91.68353,159.9119 182.70143,121.64667 z M 317.79367,274.97972 C 317.79367,331.83571 273.42745,377.97971 218.76191,377.97971 C 164.09638,377.97971 119.73015,331.83571 119.73015,274.97972 C 119.73015,218.12373 164.09638,171.97974 218.76191,171.97974 C 273.42745,171.97974 317.79367,218.12373 317.79367,274.97972 z "
         style="fill:#ffcd50;fill-opacity:1;fill-rule:evenodd;stroke:#003d8f;stroke-width:2.81888723;stroke-linecap:butt;stroke-linejoin:round;stroke-miterlimit:4;stroke-opacity:1"
         id="path2381" />
    </g>
  </g>
</svg>
