<?xml version="1.0" encoding="UTF-8" standalone="no"?>
<!-- Created with Inkscape (http://www.inkscape.org/) -->
<svg
   xmlns:dc="http://purl.org/dc/elements/1.1/"
   xmlns:cc="http://web.resource.org/cc/"
   xmlns:rdf="http://www.w3.org/1999/02/22-rdf-syntax-ns#"
   xmlns:svg="http://www.w3.org/2000/svg"
   xmlns="http://www.w3.org/2000/svg"
   version="1.0"
   width="251"
   height="304.20001"
   id="svg4166">
  <defs
     id="defs4168" />
  <metadata
     id="metadata1880"><rdf:RDF><cc:Work
         rdf:about=""><dc:title>Vaxjo kommunvapen</dc:title><dc:date>2008-09-15</dc:date><dc:creator><cc:Agent><dc:title>Lokal_Profil</dc:title></cc:Agent></dc:creator><cc:license
         rdf:resource="http://creativecommons.org/licenses/by-sa/2.5/" /><dc:rights><cc:Agent><dc:title>cc-by-sa-2.5</dc:title></cc:Agent></dc:rights><dc:format>image/svg+xml</dc:format><dc:type
         rdf:resource="http://purl.org/dc/dcmitype/StillImage" /></cc:Work><cc:License
         rdf:about="http://creativecommons.org/licenses/by-sa/2.5/"><cc:permits
         rdf:resource="http://web.resource.org/cc/Reproduction" /><cc:permits
         rdf:resource="http://web.resource.org/cc/Distribution" /><cc:requires
         rdf:resource="http://web.resource.org/cc/Notice" /><cc:requires
         rdf:resource="http://web.resource.org/cc/Attribution" /><cc:permits
         rdf:resource="http://web.resource.org/cc/DerivativeWorks" /><cc:requires
         rdf:resource="http://web.resource.org/cc/ShareAlike" /></cc:License></rdf:RDF>
  </metadata>
  <path
     d="M 249.55058,1.4395041 L 1.4495291,1.4395041 L 1.4495291,174.9361 C 0.68228908,268.65698 81.738969,302.75585 125.50006,302.75585 C 168.49391,302.75585 250.31781,268.65698 249.55058,174.9361 L 249.55058,1.4395041 z"
     id="Shield"
     style="fill:#eeeeee;stroke:none" />
  <path
     d="M 33.4065,190.18751 C 18.042667,190.18751 12.575519,198.7222 4.219,204.75001 C 18.717654,276.00024 86.73669,302.75001 125.50025,302.75001 C 164.28839,302.75 234.66296,274.9998 247.50025,200.75001 C 241.40828,195.52965 235.4318,190.18751 223.2815,190.18751 C 199.54449,190.18751 199.581,210.62501 175.844,210.62501 C 152.10699,210.62499 152.11226,190.18751 128.37525,190.18751 C 104.63824,190.18751 104.64351,210.62501 80.9065,210.62501 C 57.169484,210.62499 57.143503,190.18751 33.4065,190.18751 z"
     id="path2806"
     style="fill:#003d8f;stroke:none" />
  <g
     transform="matrix(-2.97171e-2,0,0,2.97171e-2,234.69674,-2.8187051)"
     id="Saint"
     style="fill:none;fill-rule:evenodd;stroke:none;stroke-width:10;stroke-linecap:butt;stroke-miterlimit:10">
    <path
       d="M 4498.1167,1260 C 4498.1167,763.98385 4096.0161,361.88331 3600,361.88331 C 3103.9839,361.88331 2701.8833,763.98385 2701.8833,1260 C 2701.8833,1756.0161 3103.9839,2158.1167 3600,2158.1167 C 4096.0161,2158.1167 4498.1167,1756.0161 4498.1167,1260 z"
       id="nimbus-1"
       style="fill:#ffcd50;stroke:#eeeeee;stroke-width:37.42152786" />
    <g
       id="Robe"
       style="fill:#d40000;stroke:#eeeeee;stroke-width:30">
      <path
         d="M 2880,5490 C 2850,5730 2820,5970 2820,6105 C 2820,6240 2850,6270 2940,6300 C 3030,6330 3180,6360 3345,6375 C 3510,6390 3690,6390 3855,6375 C 4020,6360 4170,6330 4260,6300 C 4350,6270 4380,6240 4380,6090 C 4380,5940 4350,5670 4320,5400"
         id="valentin1-1" />
      <path
         d="M 4860,2070 C 4920,2070 4980,2070 5025,2100 C 5070,2130 5100,2190 5115,2385 C 5130,2580 5130,2910 5175,3180 C 5220,3450 5310,3660 5325,3765 C 5340,3870 5280,3870 5235,3855 C 5190,3840 5160,3810 5145,3810 C 5130,3810 5130,3840 5115,3855 C 5100,3870 5070,3870 5025,3840 C 4980,3810 4920,3750 4890,3735 C 4860,3720 4860,3750 4830,3795 C 4800,3840 4740,3900 4680,3930 C 4620,3960 4560,3960 4530,3945 C 4500,3930 4500,3900 4530,3855 C 4560,3810 4620,3750 4650,3615 C 4680,3480 4680,3270 4680,3060"
         id="valentin2-2" />
      <path
         d="M 2970,2520 C 2970,2460 2970,2400 3000,2340 C 3030,2280 3090,2220 3135,2160 C 3180,2100 3210,2040 3240,2010 C 3270,1980 3300,1980 3330,1980 L 3870,1980 C 3900,1980 3930,1980 3960,2010 C 3990,2040 4020,2100 4065,2160 C 4110,2220 4170,2280 4200,2340 C 4230,2400 4230,2460 4230,2520"
         id="valentin3-1" />
      <path
         d="M 4770,2430 C 4740,2520 4710,2610 4680,2655 C 4650,2700 4620,2700 4575,2700 C 4530,2700 4470,2700 4410,2700 L 4230,3330 C 4290,3390 4350,3450 4425,3465 C 4500,3480 4590,3450 4665,3360 C 4740,3270 4800,3120 4830,3000 C 4860,2880 4860,2790 4860,2700"
         id="valentin3-2" />
      <path
         d="M 2610,2700 C 2580,2730 2550,2760 2505,2745 C 2400.5316,2681.7454 2426.4706,2726.8622 2348.2047,2673.626 C 2269.9388,2620.3898 2070,2580 2025,2610 C 1980,2640 1980,2670 2010,2775 C 2040,2880 2100,3060 2205,3195 C 2310,3330 2460,3420 2580,3465 C 2700,3510 2790,3510 2880,3510"
         id="valentin4-2" />
      <g
         id="Lines"
         style="fill:none">
        <path
           d="M 3060,5730.0006 L 3060,6300"
           id="linie1-1" />
        <path
           d="M 3330,5850 L 3330,6390"
           id="linie1-2" />
        <path
           d="M 3600,5850 L 3600,6390"
           id="linie1-3" />
        <path
           d="M 3870,5850 L 3870,6390"
           id="linie1-4" />
        <path
           d="M 4140,5700.0007 L 4140,6300"
           id="linie1-5" />
        <path
           d="M 2091.3189,2606.9961 C 2194.6553,2688.6941 2234.1543,3015.255 2056.2638,2921.2087"
           id="linie2-2" />
        <path
           d="M 2340,2610 C 2400,2670 2460,2730 2490,2775 C 2520,2820 2520,2850 2520,2895 C 2520,2940 2520,3000 2505,3045 C 2490,3090 2460,3120 2430,3150"
           id="linie2-3" />
        <path
           d="M 2160,3150 C 2190,3180 2220,3210 2250,3210 C 2280,3210 2310,3180 2340,3135 C 2370,3090 2400,3030 2430,2970"
           id="linie2-4" />
        <path
           d="M 2340,3330 C 2370,3330 2400,3330 2430,3315 C 2460,3300 2490,3270 2520,3225 C 2550,3180 2580,3120 2610,3060"
           id="linie2-5" />
        <path
           d="M 2970,2520 C 2970,2490 2970,2460 3000,2415 C 3030,2370 3090,2310 3135,2280 C 3180,2250 3210,2250 3255,2265 C 3300,2280 3360,2310 3420,2340 C 3480,2370 3540,2400 3600,2430"
           id="linie2-6" />
        <path
           d="M 4230,2520 C 4230,2490 4230,2460 4200,2415 C 4170,2370 4110,2310 4065,2280 C 4020,2250 3990,2250 3945,2265 C 3900,2280 3840,2310 3780,2340 C 3720,2370 3660,2400 3600,2430"
           id="linie2-7" />
        <path
           d="M 4500,2880 C 4470,2940 4440,3000 4440,3030 C 4440,3060 4470,3060 4500,3090 C 4530,3120 4560,3180 4590,3240"
           id="linie2-8" />
        <path
           d="M 4590,2700 C 4560,2760 4530,2820 4530,2850 C 4530,2880 4560,2880 4590,2895 C 4620,2910 4650,2940 4680,2970"
           id="linie2-9" />
      </g>
      <path
         d="M 4320,3960 C 4320,4320 4320,4680 4335,4950 C 4350,5220 4380,5400 4395,5520 C 4410,5640 4410,5700 4335,5745 C 4260,5790 4110,5820 3975,5835 C 3840,5850 3720,5850 3600,5850"
         id="valentin2-1" />
      <path
         d="M 2880,3960 C 2880,4320 2880,4680 2865,4950 C 2850,5220 2820,5400 2805,5520 C 2790,5640 2790,5700 2865,5745 C 2940,5790 3090,5820 3225,5835 C 3360,5850 3480,5850 3600,5850"
         id="valentin2-3" />
      <path
         d="M 3600,2430 C 3570,2430 3540,2430 3480,2415 C 3420,2400 3330,2370 3240,2370 C 3150,2370 3060,2400 3000,2430 C 2940,2460 2910,2490 2850,2520 C 2790,2550 2700,2580 2640,2595 C 2580,2610 2550,2610 2565,2655 C 2580,2700 2640,2790 2685,2940 C 2730,3090 2760,3300 2790,3600 C 2820,3900 2850,4290 2925,4620 C 3000,4950 3120,5220 3225,5385 C 3330,5550 3420,5610 3480,5640 C 3540,5670 3570,5670 3600,5670"
         id="valentin5-1" />
      <path
         d="M 3600,2430 C 3630,2430 3660,2430 3720,2415 C 3780,2400 3870,2370 3960,2370 C 4050,2370 4140,2400 4200,2430 C 4260,2460 4290,2490 4350,2520 C 4410,2550 4500,2580 4560,2595 C 4620,2610 4650,2610 4635,2655 C 4620,2700 4560,2790 4515,2940 C 4470,3090 4440,3300 4410,3600 C 4380,3900 4350,4290 4275,4620 C 4200,4950 4080,5220 3975,5385 C 3870,5550 3780,5610 3720,5640 C 3660,5670 3630,5670 3600,5670"
         id="valentin5-2" />
      <path
         d="M 3420,2430 C 3420,2490 3420,2550 3405,2580 C 3390,2610 3360,2610 3285,2610 C 3210,2610 3090,2610 3015,2610 C 2940,2610 2910,2610 2895,2625 C 2880,2640 2880,2670 2880,2730 C 2880,2790 2880,2880 2880,2925 C 2880,2970 2880,2970 2955,2970 C 3030,2970 3180,2970 3270,2970 C 3360,2970 3390,2970 3405,2985 C 3420,3000 3420,3030 3420,3420 C 3420,3810 3420,4560 3420,4980 C 3420,5400 3420,5490 3434.33,5548.33 C 3448.67,5606.67 3477.33,5633.33 3506,5660 L 3686,5674 C 3717.33,5642.67 3748.67,5611.33 3764.33,5550.67 C 3780,5490 3780,5400 3780,4980 C 3780,4560 3780,3810 3780,3420 C 3780,3030 3780,3000 3795,2985 C 3810,2970 3840,2970 3930,2970 C 4020,2970 4170,2970 4245,2970 C 4320,2970 4320,2970 4320,2925 C 4320,2880 4320,2790 4320,2730 C 4320,2670 4320,2640 4305,2625 C 4290,2610 4260,2610 4185,2610 C 4110,2610 3990,2610 3915,2610 C 3840,2610 3810,2610 3795,2580 C 3780,2550 3780,2490 3780,2430"
         id="valentin10-1" />
    </g>
    <g
       id="Hair"
       style="fill:#8b4513;stroke:#eeeeee;stroke-width:30">
      <path
         d="M 3510,1440 C 3451.33,1452.67 3392.67,1465.33 3347.67,1495.33 C 3302.67,1525.33 3271.33,1572.67 3240.67,1626.33 C 3210,1680 3180,1740 3165,1785 C 3150,1830 3150,1860 3165,1905 C 3180,1950 3210,2010 3255,2025 C 3300,2040 3360,2010 3420,1980"
         id="valentin7-1" />
      <path
         d="M 3690,1440 C 3756,1444.67 3822,1449.33 3867,1479.33 C 3912,1509.33 3936,1564.67 3963,1622.33 C 3990,1680 4020,1740 4035,1785 C 4050,1830 4050,1860 4035,1905 C 4020,1950 3990,2010 3945,2025 C 3900,2040 3840,2010 3780,1980"
         id="valentin7-2" />
    </g>
    <g
       transform="matrix(0.3420202,-0.9396927,0.9396927,0.3420202,-1070.6658,3801.4426)"
       id="Hand-R"
       style="fill:#eebb99;stroke:#eeeeee;stroke-width:30">
      <path
         d="M 1980,2070 C 1950,2100 1920,2130 1905,2190 C 1890,2250 1890,2340 1905,2430 C 1920,2520 1950,2610 1980,2655 C 2010,2700 2040,2700 2085,2670 C 2130,2640 2190,2580 2220,2505 C 2250,2430 2250,2340 2280,2265 C 2310,2190 2370,2130 2385,2100 C 2400,2070 2370,2070 2325,2085 C 2280,2100 2220,2130 2205,2160 C 2190,2190 2220,2220 2205,2235 C 2190,2250 2130,2250 2100,2280 C 2070,2310 2117.306,2369.7142 2117.306,2429.7142"
         id="valentin6-1" />
      <path
         d="M 1986,2098 C 1978.67,2034.67 1971.33,1971.33 1955.33,1906.67 C 1939.33,1842 1914.67,1776 1917.33,1743 C 1920,1710 1950,1710 1980,1740 C 2010,1770 2040,1830 2057.33,1904 C 2074.67,1978 2079.33,2066 2084,2154"
         id="valentin6-2" />
      <path
         d="M 2084,2274 C 2086,2225.33 2088,2176.67 2087.33,2123.33 C 2086.67,2070 2083.33,2012 2069.33,1952.67 C 2055.33,1893.33 2030.67,1832.67 2033.33,1802.33 C 2036,1772 2066,1772 2096,1802 C 2126,1832 2156,1892 2172,1957.83 C 2187,2023.67 2188,2095.33 2189,2167"
         id="valentin6-3" />
      <path
         d="M 1914.4614,2170.4291 C 1917.9649,2109.1966 1893.1821,2044.7004 1873.8201,1980.9664 C 1854.4574,1917.2224 1826.377,1852.6035 1827.3064,1819.5096 C 1828.2455,1786.415 1858.2045,1784.8449 1889.7335,1813.2336 C 1921.2624,1841.6226 1954.3614,1899.9702 1975.5405,1972.9619 C 1996.7296,2045.9529 2033.9897,2126.7832 2043.2589,2214.4182"
         id="path5558" />
    </g>
    <g
       transform="matrix(-1.889811,0,0,1.889811,5059.0057,-2455.15)"
       id="Church"
       style="fill:#ffcd50;stroke:#eeeeee;stroke-width:20">
      <path
         d="M 2091.7612,2704.2168 L 2091.7612,2531.6128 L 1631.4839,2531.6128 L 2091.7612,2531.6128 L 1919.1573,2359.0088 L 1631.4839,2359.0088 L 1631.4839,2704.2168 L 2091.7612,2704.2168 z"
         id="path2566" />
      <path
         d="M 1689.0186,2704.2168 L 1573.9492,2704.2168 L 1573.9493,2243.9394 L 1631.4839,1956.2661 L 1689.0186,2243.9394 L 1573.9493,2243.9394 L 1689.0186,2243.9394 L 1689.0186,2704.2168 z"
         id="path2568" />
    </g>
    <g
       id="Hand-L"
       style="fill:#eebb99;stroke:#eeeeee;stroke-width:30">
      <path
         d="M 4937.1529,2134.3058 C 4967.1529,2224.3058 5010,2340 5010,2415 C 5010,2490 4980,2550 4950,2580 C 4920,2610 4890,2610 4860,2610 C 4830,2610 4800,2610 4770,2610 C 4740,2610 4710,2610 4695,2565 C 4680,2520 4680,2430 4695,2370 C 4710,2310 4740,2280 4755,2235 C 4770,2190 4770,2130 4785,2115 C 4800,2100 4830,2130 4845,2160 C 4860,2190 4860,2220 4847.33,2258.33 C 4834.67,2296.67 4809.33,2343.33 4796.67,2376.67 C 4784,2410 4784,2430 4784,2450"
         id="valentin9-1" />
      <g
         id="Staff"
         style="fill:#ffcd50;stroke:#eeeeee;stroke-width:30">
        <path
           d="M 5431.8478,644.05928 C 5386.5504,644.05928 5349.0775,677.37883 5342.7857,720.9339 C 5303.2008,705.47135 5260.2056,694.71723 5215.2864,693.27779 C 5179.9178,692.14439 5143.0871,696.40685 5106.0682,708.74646 C 5074.3378,719.32328 5044.6652,734.53369 5016.5374,752.80874 C 5005.6014,715.42789 4970.7348,688.12156 4929.8191,688.12156 C 4880.1135,688.12156 4839.8195,728.41549 4839.8195,778.12111 C 4839.8195,816.49005 4864.1293,849.07877 4897.9442,862.02694 C 4874.4396,891.82499 4854.2821,923.57011 4837.9445,956.24522 C 4799.8878,1032.3588 4789.379,1107.4931 4786.3823,1171.4004 C 4781.1099,1170.4387 4775.5261,1169.9942 4769.9761,1169.9942 C 4720.2706,1169.9942 4679.9766,1210.2881 4679.9766,1259.9937 C 4679.9766,1309.6993 4720.2706,1349.9933 4769.9761,1349.9933 C 4775.0474,1349.9933 4780.1335,1349.3931 4784.976,1348.587 C 4784.976,1378.257 4784.976,1411.8678 4784.976,1439.9928 L 4784.976,6070.7509 C 4775.6189,6084.9458 4769.9761,6101.6963 4769.9761,6119.9694 C 4769.9761,6169.675 4810.2701,6209.969 4859.9757,6209.969 C 4909.6814,6209.9688 4949.9752,6169.675 4949.9752,6119.9694 C 4949.9752,6101.6963 4944.3324,6084.9458 4934.9753,6070.7509 L 4934.9753,1439.9928 C 4934.9753,1379.9928 4934.9753,1319.9938 4934.9753,1244.9938 C 4934.9753,1169.9938 4935.9506,1095.8565 4972.0063,1023.7449 C 5008.062,951.63336 5092.3407,871.75896 5153.8804,851.24575 C 5215.4199,830.73254 5281.624,850.26717 5346.5357,889.21431 C 5411.4476,928.16145 5458.2814,976.86081 5480.5976,1032.6511 C 5502.9135,1088.4413 5502.9137,1161.5475 5480.5976,1217.3377 C 5458.2813,1273.128 5408.8034,1321.9063 5366.6919,1342.962 C 5324.58,1364.0179 5295.8352,1364.0178 5253.7237,1342.962 C 5211.6124,1321.9063 5167.5337,1275.2911 5158.5679,1230.4626 C 5149.6022,1185.6342 5176.5129,1109.3932 5197.9427,1087.9633 C 5219.3727,1066.5335 5245.041,1067.5692 5271.0673,1076.2446 C 5277.7851,1078.4839 5282.1535,1081.3449 5285.5985,1083.7446 C 5247.7735,1094.3969 5219.9739,1128.7627 5219.9739,1169.9942 C 5219.9739,1219.6998 5260.2677,1259.9937 5309.9734,1259.9937 C 5354.4482,1259.9937 5391.2844,1227.8592 5398.5667,1185.4628 C 5402.8208,1180.5137 5407.0678,1175.5343 5411.2229,1169.9942 C 5427.273,1148.5942 5444.9727,1119.9945 5444.9727,1079.9946 C 5444.9729,999.99483 5382.8531,955.06986 5318.8796,933.74534 C 5254.9058,912.42081 5160.5758,913.45623 5092.0057,982.02634 C 5023.4357,1050.5965 4990.3468,1154.3534 5011.3811,1259.525 C 5032.4157,1364.6964 5108.8043,1438.0796 5186.6928,1477.0239 C 5228.7883,1498.0717 5274.5937,1507.3207 5320.2859,1505.6175 C 5324.2251,1551.6855 5362.7284,1588.1171 5409.8167,1588.1171 C 5459.5225,1588.1171 5499.8162,1547.8231 5499.8162,1498.1175 C 5499.8162,1478.8507 5494.1884,1460.7267 5483.8788,1446.0865 C 5540.9166,1405.0306 5590.5128,1345.9068 5619.8156,1272.6499 C 5629.5405,1248.3373 5636.6724,1223.2533 5641.378,1197.6503 C 5644.2491,1197.9265 5646.8719,1198.119 5649.8155,1198.119 C 5699.521,1198.119 5739.815,1157.8251 5739.815,1108.1195 C 5739.815,1058.4139 5699.521,1018.1199 5649.8155,1018.1199 C 5644.2656,1018.1199 5639.1504,1018.5645 5633.878,1019.5262 C 5629.958,1005.1364 5625.3776,991.24366 5619.8156,977.33887 C 5591.9354,907.63866 5544.369,850.51149 5487.16,804.83973 C 5508.2474,788.36818 5521.8473,762.89045 5521.8473,734.05883 C 5521.8475,684.35319 5481.5533,644.05928 5431.8478,644.05928 z"
           id="stab1-1" />
        <path
           d="M 4770,1800 C 4745.1472,1800 4725,1820.1472 4725,1845 L 4725,1890 C 4725,1914.8528 4745.1472,1935 4770,1935 L 4950,1935 C 4974.8528,1935 4995,1914.8528 4995,1890 L 4995,1845 C 4995,1820.1472 4974.8528,1800 4950,1800 L 4770,1800 z"
           id="stab3-1" />
      </g>
      <path
         d="M 4942.5422,2385.5309 C 4923.6264,2410.9171 4882,2528.67 4856.33,2537.67 C 4830.67,2546.67 4807.33,2545.33 4796.67,2555.33 C 4786,2565.33 4788,2586.67 4799,2601.67 C 4810,2616.67 4832.2269,2617.5498 4852.29,2615.405 C 4931.9549,2606.8885 4931.7061,2562.4774 4952.9138,2570.0431"
         id="valentin11-1" />
      <path
         d="M 4950.8869,2202.5344 C 4918.8869,2221.2044 4886,2195.33 4864.33,2211.33 C 4842.67,2227.33 4831.33,2240.67 4826.33,2255.67 C 4821.33,2270.67 4822.67,2287.33 4828.33,2299 C 4834,2310.67 4931.8146,2312.7879 4949.4846,2308.4579"
         id="valentin11-3" />
      <path
         d="M 4955.1966,2284.5983 C 4928.5266,2305.9283 4880.67,2316.67 4859,2330 C 4837.33,2343.33 4820.67,2348.67 4807.33,2359 C 4794,2369.33 4784.0033,2384.6698 4784.67,2399 C 4785.0033,2406.1648 4783.8269,2438.6935 4808.1295,2441.6974 C 4820.9727,2443.2848 4838.303,2487.8265 4948.1059,2452.595"
         id="valentin11-4" />
      <path
         d="M 4952.5683,2381.8569 C 4911.2383,2411.1869 4875.33,2428.67 4846.33,2442.67 C 4817.33,2456.67 4800.67,2455.33 4792.33,2463 C 4784,2470.67 4784,2487.33 4790,2502.33 C 4796,2517.33 4808,2530.67 4827.33,2534.67 C 4846.67,2538.67 4937.2889,2515.1615 4954.0987,2500.6715"
         id="valentin11-2" />
    </g>
    <g
       id="Face"
       style="fill:#eebb99;stroke:#eeeeee;stroke-width:30">
      <path
         d="M 3420,1530 C 3360,1590 3300,1650 3300,1755 C 3300,1860 3360,2010 3405,2100 C 3450,2190 3480,2220 3525,2235 C 3570,2250 3630,2250 3675,2235 C 3720,2220 3750,2190 3786.67,2099.67 C 3823.33,2009.33 3866.67,1858.67 3866.67,1753.67 C 3866.67,1648.67 3823.33,1589.33 3780,1530"
         id="gesicht-1" />
      <path
         d="M 3330,1800 C 3360,1770 3390,1740 3420,1740 C 3450,1740 3480,1770 3495,1800 C 3510,1830 3510,1860 3510,1890 C 3510,1920 3510,1950 3525,1965 C 3540,1980 3570,1980 3600,1980"
         id="linie3-1" />
      <path
         d="M 3600,1800 C 3630,1770 3660,1740 3690,1740 C 3720,1740 3750,1770 3780,1800"
         id="linie3-2" />
      <path
         d="M 3510,2070 L 3690,2070"
         id="linie3-3" />
      <path
         d="M 3554,2148 L 3644,2148"
         id="linie3-4" />
      <path
         d="M 3462,1800 C 3462,1783.4315 3442.3005,1770 3418,1770 C 3393.6995,1770 3374,1783.4315 3374,1800 C 3374,1816.5685 3393.6995,1830 3418,1830 C 3442.3005,1830 3462,1816.5685 3462,1800 z"
         id="auge-1"
         style="fill:#eeeeee;stroke:none" />
      <path
         d="M 3732,1810 C 3732,1793.4315 3712.3005,1780 3688,1780 C 3663.6995,1780 3644,1793.4315 3644,1810 C 3644,1826.5685 3663.6995,1840 3688,1840 C 3712.3005,1840 3732,1826.5685 3732,1810 z"
         id="auge-2"
         style="fill:#eeeeee;stroke:none" />
    </g>
    <g
       id="Mitra"
       style="fill:#d40000;stroke:#eeeeee;stroke-width:30">
      <path
         d="M 3600,630 C 3570,660 3540,690 3510,720 C 3480,750 3450,780 3405,870 C 3360,960 3300,1110 3270,1215 C 3240,1320 3240,1380 3240,1425 C 3240,1470 3240,1500 3240,1530 C 3240,1560 3240,1590 3270,1590 C 3300,1590 3360,1560 3450,1545 C 3540,1530 3660,1530 3750,1545 C 3840,1560 3900,1590 3930,1590 C 3960,1590 3960,1560 3960,1530 C 3960,1500 3960,1470 3960,1425 C 3960,1380 3960,1320 3930,1215 C 3900,1110 3840,960 3795,870 C 3750,780 3720,750 3690,720 C 3660,690 3630,660 3600,630 z"
         id="mitra1-1" />
      <path
         d="M 3240,1440 C 3270,1410 3300,1380 3345,1365 C 3390,1350 3450,1350 3480,1335 C 3510,1320 3510,1290 3510,1200 C 3510,1110 3510,960 3510,870 C 3510,780 3510,750 3495,750 C 3480,750 3450,780 3405,870 C 3360,960 3300,1110 3270,1215 C 3240,1320 3240,1380 3240,1440 z"
         id="mitra2-1" />
      <path
         d="M 3960,1440 C 3930,1410 3900,1380 3855,1365 C 3810,1350 3750,1350 3720,1335 C 3690,1320 3690,1290 3690,1200 C 3690,1110 3690,960 3690,870 C 3690,780 3690,750 3705,750 C 3720,750 3750,780 3795,870 C 3840,960 3900,1110 3930,1215 C 3960,1320 3960,1380 3960,1440 z"
         id="mitra2-2" />
    </g>
  </g>
  <path
     d="M 249.55062,1.4395041 L 1.449569,1.4395041 L 1.449569,174.9361 C 0.68232904,268.65698 81.739009,302.75585 125.5001,302.75585 C 168.49395,302.75585 250.31785,268.65698 249.55062,174.9361 L 249.55062,1.4395041 z"
     id="Frame"
     style="fill:none;fill-opacity:0;stroke:#000000;stroke-width:1.88832211;stroke-linejoin:bevel" />
</svg>
