<?xml version="1.0" encoding="UTF-8" standalone="no"?>
<!-- Created with Inkscape (http://www.inkscape.org/) -->
<svg
   xmlns:dc="http://purl.org/dc/elements/1.1/"
   xmlns:cc="http://web.resource.org/cc/"
   xmlns:rdf="http://www.w3.org/1999/02/22-rdf-syntax-ns#"
   xmlns:svg="http://www.w3.org/2000/svg"
   xmlns="http://www.w3.org/2000/svg"
   version="1.0"
   width="251"
   height="304.20001"
   id="svg4166">
  <defs
     id="defs4168" />
  <metadata
     id="metadata1880"><rdf:RDF><cc:Work
         rdf:about=""><dc:title>Oskarshamn kommunvapen</dc:title><dc:date>01-10-2007</dc:date><dc:creator><cc:Agent><dc:title>Lokal_Profil</dc:title></cc:Agent></dc:creator><cc:license
         rdf:resource="http://creativecommons.org/licenses/by-sa/2.5/" /><dc:rights><cc:Agent><dc:title>cc-by-sa-2.5</dc:title></cc:Agent></dc:rights><dc:format>image/svg+xml</dc:format><dc:type
         rdf:resource="http://purl.org/dc/dcmitype/StillImage" /></cc:Work><cc:License
         rdf:about="http://creativecommons.org/licenses/by-sa/2.5/"><cc:permits
         rdf:resource="http://web.resource.org/cc/Reproduction" /><cc:permits
         rdf:resource="http://web.resource.org/cc/Distribution" /><cc:requires
         rdf:resource="http://web.resource.org/cc/Notice" /><cc:requires
         rdf:resource="http://web.resource.org/cc/Attribution" /><cc:permits
         rdf:resource="http://web.resource.org/cc/DerivativeWorks" /><cc:requires
         rdf:resource="http://web.resource.org/cc/ShareAlike" /></cc:License></rdf:RDF>
  </metadata>
  <path
     d="M 1.4494787,1.4395041 L 249.55053,1.4395041 L 249.55053,174.9361 C 250.31777,268.65698 169.26109,302.75585 125.5,302.75585 C 82.506149,302.75585 0.68224873,268.65698 1.4494787,174.9361 L 1.4494787,1.4395041 z"
     id="Shield"
     style="fill:#003d8f;fill-opacity:1;stroke:none" />
  <path
     d="M 1.4375,1.4375 L 1.4375,174.9375 C 1.24569,198.36772 6.2338699,218.06124 14.46875,234.4375 C 16.52747,238.53157 18.78158,242.44064 21.21875,246.125 C 21.21875,246.125 73.752594,189.82613 125.5,134.375 C 63.939159,68.408052 1.4375,1.4375 1.4375,1.4375 z M 125.5,134.375 C 177.24741,189.82613 229.78125,246.125 229.78125,246.125 C 232.21842,242.44064 234.47253,238.53157 236.53125,234.4375 C 244.76613,218.06124 249.75431,198.36772 249.5625,174.9375 L 249.5625,1.4375 C 249.5625,1.4375 187.06084,68.408052 125.5,134.375 z"
     id="use2901"
     style="opacity:1;fill:#ffcd50;fill-opacity:1;stroke:none" />
  <g
     transform="matrix(0.887222,0,0,0.887222,91.48208,8.41144)"
     id="Monogram"
     style="fill:#ffcd50;fill-opacity:1">
    <g
       transform="translate(-6.8e-5,0)"
       id="O-I"
       style="fill:#ffcd50;fill-opacity:1">
      <path
         d="M 36.71875,37.90625 C 10.542292,38.584902 13.97184,54.629353 13.875,72.6875 C 13.875,72.687498 17.129141,73.039532 17.84375,74.46875 C 19.153865,70.6575 20.487071,68.484062 22.75,67.53125 C 21.793011,52.048048 21.987571,40.212851 36.1875,40.09375 L 36.1875,53.650853 L 38.75,53.650853 L 38.75,40.09375 C 50.806101,40.212851 50.668083,52.603518 50.1875,70.46875 C 53.045937,71.421562 55.19164,73.100902 55.90625,77.03125 C 56.620859,75.602032 58.9375,74.781247 58.9375,74.78125 C 58.840755,59.076421 63.154139,38.781096 38.21875,37.90625 L 36.71875,37.90625 z M 36.255448,104.35485 L 36.255448,92.794443 L 38.75,92.710077 L 38.75,106.63276 L 36.255448,104.35485 z"
         id="path1875"
         style="fill:#ffcd50;fill-opacity:1;fill-rule:evenodd;stroke:none;stroke-width:0.2;stroke-linecap:butt;stroke-linejoin:miter;stroke-miterlimit:4;stroke-opacity:1" />
      <path
         d="M 15.159151,111.50398 C 33.121703,103.53683 46.319629,120.7679 46.319629,120.7679 C 46.319629,120.7679 62.82626,104.93501 63.331565,101.22944 C 63.675953,98.703929 60.636605,98.366048 60.636605,98.366048 L 60.636605,78.827586 C 63.83687,78.153846 63.972727,74.389185 63.5,74.448276 C 56.762599,75.290451 55.751989,80.175066 55.751989,80.175066 C 54.572944,72.93236 50.698939,71.416446 47.330239,71.416446 C 45.814324,72.932361 46.488064,73.942971 46.488064,73.942971 C 50.530504,73.774536 49.856764,76.806366 49.856764,76.806366 L 49.856764,113.18833 C 40.761273,101.90318 36.668746,104.02446 23.244032,103.75597 C 23.244032,103.75597 15.327586,108.13528 15.159151,111.50398 z"
         id="path2762"
         style="fill:#ffcd50;fill-opacity:1;fill-rule:evenodd;stroke:none;stroke-width:0.2;stroke-linecap:butt;stroke-linejoin:miter;stroke-miterlimit:4;stroke-dasharray:none;stroke-opacity:1" />
      <path
         d="M 25.487729,67.568332 L 25.130425,90.078523 C 24.534917,97.462818 15.959607,106.99094 12.982068,106.27633 L 12.982068,73.523408 C 12.982068,73.523408 16.436013,73.404307 18.222536,76.143642 C 18.222536,76.143642 20.961871,67.211027 25.487729,67.568332 z"
         id="path3667"
         style="fill:#ffcd50;fill-opacity:1;fill-rule:evenodd;stroke:none;stroke-width:0.2;stroke-linecap:butt;stroke-linejoin:miter;stroke-miterlimit:4;stroke-dasharray:none;stroke-opacity:1" />
      <path
         d="M 32.633044,54.488727 L 42.823362,54.488727 L 42.823362,56.004642 L 41.644317,56.004642 L 41.644317,90.19695 L 42.823362,90.19695 L 42.823362,92.049735 L 32.633044,92.049735 L 32.633044,90.19695 L 33.812089,90.19695 L 33.812089,56.004642 L 32.633044,56.004642 L 32.633044,54.488727 z"
         id="path3673"
         style="fill:#ffcd50;fill-opacity:1;fill-rule:evenodd;stroke:none;stroke-width:0.2;stroke-linecap:butt;stroke-linejoin:miter;stroke-miterlimit:4;stroke-dasharray:none;stroke-opacity:1" />
    </g>
    <g
       transform="matrix(0.702543,0,0,0.702543,-31.44113,19.06255)"
       id="Crown"
       style="fill:#ffcd50;fill-opacity:1;stroke:none">
      <path
         d="M 36.375,11.125 C 27.101911,15.711873 12.877061,16.909763 15.125,28.40625 L 17.625,42.28125 C 17.624999,42.281249 25.138517,36.851407 37.1875,36.851406 C 49.355585,36.851406 54.625,42.28125 54.625,42.28125 C 55.850843,37.691938 58.436107,32.116729 58.96875,27.90625 C 61.374598,17.820718 46.700837,14.22053 38.15625,11.125 L 38.15625,12.46875 C 43.800911,15.514331 58.827186,18.83992 57,27.6875 C 56.772695,27.735478 56.573247,27.845522 56.4375,28 C 55.770035,28.75956 56.5625,31.15625 56.5625,31.15625 C 56.562498,31.156251 53.122339,28.471468 53.1875,32.03125 C 53.248734,35.410203 56.4375,32.562501 56.4375,32.5625 C 56.477741,33.842577 55.806936,35.214423 54.59375,35.75 C 54.593749,35.749999 52.717457,34.908688 49.90625,34 C 48.953755,33.328662 48.341649,32.310367 48.0625,31.15625 C 48.062499,31.15625 51.451143,34.221691 51.4375,30.5625 C 51.425496,27.335893 48.21875,29.749999 48.21875,29.75 C 48.218747,29.749999 50.408811,26.124949 47.34375,26.125 C 44.255252,26.12505 46.53125,29.75 46.53125,29.75 C 46.531249,29.749999 43.191889,26.99194 43.375,30.5 C 43.540329,33.698776 46.499993,31.15625 46.5,31.15625 C 46.490842,31.787986 46.334849,32.377504 46.0625,32.90625 C 43.893979,32.384346 41.468558,31.929041 39,31.78125 C 38.594002,31.156483 38.283154,30.475097 38.09375,29.75 C 38.093749,29.75 41.437699,32.457348 41.53125,29.15625 C 41.637186,25.41817 38.15625,28.34375 38.15625,28.34375 C 39.352514,26.614068 39.867657,24.71875 37.25,24.71875 C 34.488871,24.71875 34.990692,26.63422 36.21875,28.34375 C 36.218748,28.34375 32.769058,25.418169 32.875,29.15625 C 32.968552,32.457349 36.28125,29.75 36.28125,29.75 C 36.107422,30.48573 35.780797,31.158873 35.375,31.78125 C 32.906442,31.929041 30.481022,32.384346 28.3125,32.90625 C 28.059201,32.371513 27.938415,31.777584 27.90625,31.15625 C 27.90625,31.15625 30.834666,33.698775 31,30.5 C 31.183113,26.991941 27.875,29.75 27.875,29.75 C 27.874999,29.749999 30.119743,26.125051 27.03125,26.125 C 23.966187,26.124949 26.15625,29.75 26.15625,29.75 C 26.156249,29.749999 22.949506,27.335892 22.9375,30.5625 C 22.923864,34.221692 26.3125,31.15625 26.3125,31.15625 C 26.068166,32.369225 25.361694,33.350482 24.375,34.03125 C 22.817118,34.529873 21.298001,35.138947 19.78125,35.75 C 18.553935,35.187877 17.926077,33.861812 17.9375,32.5625 C 17.937501,32.562501 21.126262,35.410205 21.1875,32.03125 C 21.252652,28.471467 17.8125,31.15625 17.8125,31.15625 C 17.812499,31.156251 18.541001,29.629576 17.9375,28 C 17.735895,27.765607 17.392286,27.664131 17,27.65625 C 15.579328,19.781195 30.910528,14.139595 36.375,12.46875 L 36.375,11.125 z"
         transform="matrix(1.4234,0,0,1.4234,44.75332,-27.13364)"
         id="path4130"
         style="fill:#ffcd50;fill-opacity:1;fill-rule:evenodd;stroke:none;stroke-width:0.52988458;stroke-linecap:butt;stroke-linejoin:miter;stroke-miterlimit:4;stroke-dasharray:none;stroke-opacity:1" />
      <path
         d="M 81.544714,10.640456 C 78.174623,-0.26071352 89.086597,-5.7695739 96.1362,-11.557091 L 96.1362,-9.9800535 C 90.642601,-4.2221298 83.399816,1.5324824 84.604171,10.577374 L 81.544714,10.640456 z"
         id="path3157"
         style="fill:#ffcd50;fill-opacity:1;fill-rule:evenodd;stroke:none;stroke-width:0.52988458;stroke-linecap:butt;stroke-linejoin:miter;stroke-miterlimit:4;stroke-dasharray:none;stroke-opacity:1" />
      <path
         d="M 113.75771,11.011696 C 117.12746,0.11526233 106.46599,-5.762029 99.426732,-11.557091 L 99.426732,-9.9800535 C 105.13525,-3.9402583 112.2215,1.8744989 110.69825,10.948614 L 113.75771,11.011696 z"
         id="path4128"
         style="fill:#ffcd50;fill-opacity:1;fill-rule:evenodd;stroke:none;stroke-width:0.52988458;stroke-linecap:butt;stroke-linejoin:miter;stroke-miterlimit:4;stroke-dasharray:none;stroke-opacity:1" />
      <path
         d="M 95.996078,-10.421672 L 99.388334,-10.421672 L 99.388334,8.7344484 L 95.996078,8.7344484 L 95.996078,-10.421672 z"
         id="rect3155"
         style="fill:#ffcd50;fill-opacity:1;stroke:none;stroke-width:0.52988458;stroke-miterlimit:4;stroke-opacity:1" />
      <path
         d="M 96.243918,-25.733522 L 96.243918,-22.249556 L 93.311138,-22.249556 L 93.311138,-19.551488 L 96.243918,-19.551488 L 96.243918,-14.908042 L 98.935651,-14.908042 L 98.935651,-19.554254 L 102.07326,-19.554254 L 102.07326,-22.252324 L 98.935651,-22.252324 L 98.935651,-25.733522 L 96.243918,-25.733522 z"
         id="rect7058"
         style="fill:#ffcd50;fill-opacity:1;stroke:none;stroke-width:0.52988458;stroke-miterlimit:4;stroke-dasharray:none;stroke-opacity:1" />
      <path
         d="M 437.90112,-2.4896135 C 437.90112,30.286534 411.3308,56.856851 378.55466,56.856851 C 345.77851,56.856851 319.20819,30.286534 319.20819,-2.4896135 C 319.20819,-35.265761 345.77851,-61.836078 378.55466,-61.836078 C 411.3308,-61.836078 437.90112,-35.265761 437.90112,-2.4896135 z"
         transform="matrix(8.83141e-2,0,0,8.83141e-2,64.26065,-9.630068)"
         id="path5109"
         style="fill:#ffcd50;fill-opacity:1;stroke:none;stroke-width:6;stroke-miterlimit:4;stroke-dasharray:none;stroke-opacity:1" />
    </g>
  </g>
  <g
     transform="matrix(0.304109,-9.709733e-3,7.963365e-3,0.3708,157.9386,80.89171)"
     id="Caduceus"
     style="fill:#003d8f">
    <path
       d="M 129.85295,316.02787 C 129.05762,309.31253 130.05024,304.93174 133.11645,301.62498 C 136.12715,298.37807 135.72095,296.27376 131.89828,295.31434 C 129.67225,294.75564 128.75059,295.15608 126.7883,297.53454 C 124.66732,300.10533 124.44288,301.19559 124.82103,307.0913 C 125.11318,311.64616 125.94902,314.8807 127.46976,317.3413 C 128.69179,319.31859 129.85874,320.93638 130.06296,320.93638 C 130.26719,320.93638 130.17269,318.72755 129.85295,316.02787 z M 159.68194,284.18638 C 164.87618,279.50315 167.4846,273.90366 167.4846,267.43638 C 167.4846,257.85048 161.57502,249.69499 149.00697,241.93638 C 141.7529,237.45824 134.77058,231.30516 132.95174,227.78791 C 130.70982,223.4525 131.14787,216.77639 133.94469,212.65505 C 136.73396,208.54484 136.80883,208.6618 127.76615,203.00435 C 121.67793,199.19533 121.25155,199.35461 117.09553,206.9906 C 113.11044,214.31252 112.62216,221.89758 115.54979,231.00254 C 117.46774,236.96737 118.84473,239.16092 123.96629,244.4101 C 127.68066,248.21702 132.56948,251.93786 136.39301,253.86798 C 148.71772,260.08947 154.67586,268.01018 151.1169,273.44184 C 150.21897,274.81225 149.52852,277.96781 149.52852,280.7012 C 149.52852,288.91864 153.0809,290.138 159.68194,284.18638 z M 170.49573,187.46045 C 178.84401,181.33225 182.81117,173.20121 182.94899,161.93638 C 183.00487,157.36941 182.44727,154.26441 181.07401,151.49552 C 179.19407,147.70501 170.67887,137.93638 169.25468,137.93638 C 168.87466,137.93638 165.67589,136.16881 162.14628,134.00846 C 158.54776,131.80592 150.52349,128.4277 143.87866,126.31779 C 130.49362,122.06768 121.62508,117.20246 117.17986,111.67103 C 114.76222,108.66262 114.06689,106.70258 113.72103,101.92104 C 113.26478,95.613398 114.03344,94.626848 116.91951,97.815918 C 120.93762,102.2559 130.98375,100.987 135.30474,95.493738 C 137.57831,92.603368 137.37039,90.503618 134.7012,89.398448 C 127.40167,86.376088 118.69969,87.346488 112.04513,91.924948 C 103.61869,97.722488 101.21617,107.47856 105.93923,116.71962 C 110.39221,125.43226 116.73282,130.15965 138.33637,140.87407 C 156.5219,149.89329 159.78858,152.00306 162.59236,156.53967 C 166.44505,162.77346 164.02343,172.43473 157.0081,178.81853 C 153.10075,182.37414 152.73366,183.93154 155.27852,186.15623 C 157.62283,188.2056 162.70218,190.84674 164.39454,190.89634 C 165.14586,190.91836 167.89139,189.37221 170.49573,187.46045 z M 121.25347,92.327998 C 120.01479,91.089318 121.62206,89.936378 124.58754,89.936378 C 126.20508,89.936378 127.52852,90.386378 127.52852,90.936378 C 127.52852,91.486378 126.89032,91.936378 126.11031,91.936378 C 125.33029,91.936378 124.06929,92.175368 123.30807,92.467478 C 122.54686,92.759578 121.62229,92.696818 121.25347,92.327998 z"
       id="Left-snake" />
    <path
       d="M 158.6354,317.26345 C 165.05928,306.86939 162.60789,298.89084 149.932,288.93638 C 148.88146,288.11138 146.18848,285.99751 143.9476,284.23888 C 141.70673,282.48026 138.61596,279.22705 137.07922,277.00954 C 134.61344,273.45142 134.3352,272.28572 134.71115,267.08833 L 135.13715,261.19896 L 130.97798,258.56767 C 128.69043,257.12046 126.09005,255.93638 125.19934,255.93638 C 120.93809,255.93638 118.77891,268.81321 121.8198,276.09109 C 124.73654,283.07183 133.91944,291.05199 143.52852,294.9565 C 148.55065,296.99717 154.30511,303.22857 155.10503,307.49251 C 155.76709,311.02158 155.3163,316.08105 153.90722,320.93638 C 153.25672,323.17783 153.3535,323.29548 154.84302,322.07396 C 155.75676,321.32463 157.46333,319.1599 158.6354,317.26345 z M 165.35931,244.18548 C 172.38277,239.91426 176.68479,231.99918 177.32194,222.17601 C 177.75005,215.57579 177.51199,214.3451 174.70377,208.64079 C 173.00476,205.18962 170.58278,201.43437 169.32159,200.29579 C 166.02256,197.31748 151.64575,187.53976 147.52852,185.47423 C 145.60352,184.5085 141.21129,181.85492 137.76802,179.57737 C 132.38819,176.0189 131.22765,174.69258 129.51802,170.14887 C 126.26769,161.51042 126.94483,155.54969 131.78,150.23726 C 134.5429,147.20163 133.59329,145.62552 126.99804,142.30043 L 121.31726,139.43638 L 117.80871,143.43638 C 112.35939,149.64899 110.52852,154.85224 110.52852,164.12632 C 110.52852,171.00569 110.96315,173.06112 113.57502,178.53382 C 117.13712,185.99752 123.89768,193.01664 132.17948,197.84982 C 144.72016,205.16845 154.8523,212.42008 156.64505,215.35997 C 157.67685,217.052 158.52273,220.14181 158.52478,222.22622 C 158.52871,226.21365 155.76146,232.66824 153.10161,234.87572 C 150.45209,237.07463 151.3286,239.66402 155.77852,242.78389 C 160.85413,246.34243 161.62665,246.45544 165.35931,244.18548 z M 172.84426,132.80419 C 182.348,127.87801 190.4777,116.23877 191.2615,106.43638 C 191.70753,100.85829 191.51804,100.15512 188.56664,96.436378 C 183.66861,90.264908 178.42513,87.586298 171.14755,87.537918 C 164.51576,87.493838 159.24875,89.435068 158.73293,92.113498 C 158.5569,93.027538 159.722,95.240558 161.32205,97.031328 C 163.85782,99.869338 164.99447,100.34247 170.17769,100.71739 C 175.46314,101.09971 176.46836,100.85789 179.22069,98.541948 C 180.92379,97.108878 182.59509,95.936378 182.93469,95.936378 C 183.78093,95.936378 182.48953,103.9695 181.24672,106.43638 C 177.65024,113.57513 168.47249,121.19268 160.22362,123.88558 C 155.11783,125.55241 155.72573,127.43682 162.52852,131.03048 C 168.64224,134.26013 169.6884,134.44 172.84426,132.80419 z M 170.27852,92.247048 C 167.45798,91.509968 168.26905,89.936378 171.4695,89.936378 C 174.79629,89.936378 176.32415,91.417088 173.94099,92.331588 C 173.07416,92.664228 172.28925,92.884178 172.19673,92.820378 C 172.10422,92.756578 171.24102,92.498578 170.27852,92.247048 z"
       id="Right-snake" />
    <path
       d="M 143.52852,324.37736 C 143.52852,309.77414 143.17189,301.93638 142.50741,301.93638 C 141.8383,301.93638 141.53285,309.86099 141.62131,324.925 C 141.69803,337.98845 142.13888,347.67719 142.64242,347.36599 C 143.12977,347.06478 143.52852,336.7199 143.52852,324.37736 z M 145.63921,277.68638 C 145.85395,269.44142 144.8895,265.93638 142.40608,265.93638 C 141.05442,265.93638 141.34676,279.35462 142.72852,280.73638 C 144.80865,282.81651 145.52515,282.06572 145.63921,277.68638 z M 147.53865,228.93638 C 147.84528,215.4173 147.78791,215.12187 144.52852,213.43638 L 141.52852,211.88502 L 141.52852,222.37174 C 141.52852,231.8805 141.73317,233.04913 143.723,234.90294 C 144.92997,236.0274 146.24908,236.60743 146.65436,236.1919 C 147.05964,235.77636 147.45757,232.51138 147.53865,228.93638 z M 150.00024,168.76615 C 150.72157,155.72363 150.70585,155.57835 148.37858,153.78268 C 145.33042,151.43079 142.51443,150.51839 141.60207,151.58704 C 141.20325,152.05418 141.13605,158.41554 141.45273,165.7234 C 142.01063,178.59748 142.10622,179.05284 144.52852,180.37535 C 149.10922,182.87629 149.23459,182.61029 150.00024,168.76615 z M 151.67092,123.68638 C 152.08618,120.04132 152.4583,113.07559 153.50057,89.436378 C 154.13107,75.136378 154.8211,62.900108 155.03398,62.244658 C 155.24685,61.589208 155.50079,55.739208 155.59828,49.244658 L 155.77555,37.436378 L 148.92473,36.747008 C 145.15679,36.367858 141.93485,36.196718 141.76487,36.366688 C 141.5949,36.536668 141.24609,55.607148 140.98975,78.745548 C 140.62399,111.76027 140.79324,120.9898 141.7761,121.62586 C 143.41492,122.68644 148.68685,124.66515 150.27852,124.81707 C 150.96602,124.88269 151.5926,124.37388 151.67092,123.68638 z M 158.64297,28.968348 C 165.78471,20.413688 160.42803,8.936378 149.29366,8.936378 C 144.98036,8.936378 143.88215,9.382738 140.92852,12.336378 C 138.01527,15.249628 137.52852,16.417088 137.52852,20.491218 C 137.52852,24.768098 137.94665,25.643808 141.68824,29.203098 C 145.63674,32.959218 146.10454,33.135488 150.90108,32.674598 C 155.06222,32.274768 156.42883,31.620538 158.64297,28.968348 z"
       id="Staff" />
    <path
       d="M 220.94673,79.329388 C 223.34509,78.409058 222.87334,77.312608 219.06684,74.960058 C 217.16291,73.783368 213.52836,69.696668 210.99004,65.878498 C 206.86891,59.679428 206.02993,58.936378 203.15172,58.936378 C 196.1361,58.936378 195.79232,63.165918 202.24704,70.066538 C 207.15455,75.313068 210.92834,77.759678 216.02852,79.001308 C 217.67852,79.402998 219.10422,79.777718 219.19673,79.834018 C 219.28925,79.890318 220.07675,79.663228 220.94673,79.329388 z M 135.15903,75.384568 C 137.87471,74.841158 138.49797,72.392788 138.51487,62.201708 L 138.52852,53.967038 L 132.53837,54.593138 L 126.54822,55.219228 L 122.03837,50.709388 C 116.43455,45.105568 116.17071,42.218658 120.90051,38.259178 C 125.45191,34.449058 127.52852,30.017458 127.52852,24.114648 C 127.52852,19.834658 127.04001,18.651428 123.77852,15.031718 C 118.81151,9.519158 112.3027,7.125628 102.92717,7.363908 C 96.79845,7.519668 94.67552,8.116538 87.42718,11.721788 C 82.80791,14.019368 76.49552,17.595068 73.39963,19.667788 C 70.30374,21.740518 64.00374,25.957038 59.39963,29.037848 C 41.15753,41.244418 31.69701,46.526118 14.04048,54.361328 L 10.05244,56.131048 L 12.8863,57.615858 C 18.07036,60.332058 25.81555,60.462158 32.76588,57.949778 C 44.50394,53.706758 75.90107,33.967098 78.84547,28.979118 C 81.25668,24.894408 82.52852,25.949748 82.52852,32.035228 C 82.52852,43.686748 93.1507,53.909988 105.27852,53.930798 C 107.06602,53.933868 108.52852,54.386378 108.52852,54.936378 C 108.52852,55.486378 108.01927,55.936378 107.39685,55.936378 C 105.58392,55.936378 107.04183,63.444138 109.53455,66.944848 C 112.41481,70.989798 118.64025,74.866658 123.8645,75.868748 C 127.71714,76.607738 129.40861,76.535228 135.15903,75.384568 z M 244.52852,75.959428 C 244.52852,75.422108 243.29102,74.230348 241.77852,73.311068 C 234.63877,68.971628 229.6874,65.290748 225.93702,61.534398 C 217.73315,53.317478 218.07756,53.498978 214.59434,55.556568 C 212.90814,56.552628 211.52852,58.102068 211.52852,58.999768 C 211.52852,61.569408 222.9263,71.776668 228.75079,74.423128 C 234.13778,76.870808 244.52852,77.882578 244.52852,75.959428 z M 86.59362,72.888348 C 88.55442,71.896168 92.29158,69.175438 94.8984,66.842278 C 102.61996,59.931328 102.91816,57.662908 96.26906,56.415528 C 92.62171,55.731278 92.32112,55.909988 85.77136,62.656628 C 82.0628,66.476658 77.79102,70.404098 76.27852,71.384268 C 73.10157,73.443078 72.80372,74.596418 75.27852,75.256478 C 77.82406,75.935408 82.50997,74.954698 86.59362,72.888348 z M 177.02718,74.832398 C 182.88489,73.357408 188.95572,68.003088 191.08149,62.436858 C 192.46569,58.812388 192.55267,57.670408 191.53771,56.447448 C 190.84796,55.616358 190.45123,54.921018 190.65608,54.902258 C 190.86092,54.883488 194.47291,54.770988 198.68271,54.652258 C 205.49703,54.460068 206.81375,54.091658 210.68271,51.294788 C 217.41088,46.430988 221.00343,38.015658 219.37381,30.936378 C 218.58731,27.519688 221.88709,29.763408 223.39471,33.670428 C 225.05113,37.963078 232.92616,44.950698 249.31023,56.665638 C 262.60296,66.170208 278.80026,70.100068 285.77852,65.513738 C 289.54277,63.039758 289.22849,61.462668 284.70091,60.106168 C 274.96778,57.190058 256.3007,45.805228 235.72147,30.234188 C 209.23101,10.190498 200.00588,6.436948 184.79686,9.513798 C 181.59724,10.161098 175.46223,15.850788 173.87956,19.638638 C 170.97945,26.579588 172.86206,34.709568 178.78189,40.809158 L 182.51701,44.657688 L 180.27276,47.955088 C 175.69158,54.686068 169.89394,56.807288 162.27852,54.538748 L 159.52852,53.719558 L 159.52852,63.799378 L 159.52852,73.879198 L 162.77852,74.817598 C 167.29766,76.122448 171.88499,76.127218 177.02718,74.832398 z M 260.94673,73.329388 C 262.64256,72.678638 263.15598,69.936378 261.58198,69.936378 C 259.64659,69.936378 239.75433,55.915618 232.64379,49.539738 C 225.02572,42.708758 223.17011,41.822028 222.13551,44.518168 C 220.59354,48.536458 221.63042,51.168468 226.77852,56.303958 C 238.78632,68.282348 254.1497,75.937658 260.94673,73.329388 z M 69.54346,69.464268 C 72.02667,68.198538 77.54885,64.555878 81.81495,61.369448 L 89.5715,55.575938 L 86.35384,52.256158 C 84.58413,50.430278 82.77923,48.936378 82.34294,48.936378 C 81.90665,48.936378 79.18134,51.073878 76.28668,53.686378 C 69.57362,59.745078 62.18967,65.098958 56.77852,67.831128 C 51.6887,70.401068 51.40038,71.666798 55.77852,72.221218 C 60.57133,72.828148 64.47959,72.045368 69.54346,69.464268 z M 53.02852,64.069208 C 58.40537,61.501228 80.52852,47.472828 80.52852,46.631318 C 80.52852,45.139158 77.17205,36.936378 76.56148,36.936378 C 76.133,36.936378 69.9878,41.278968 62.90548,46.586588 C 51.71187,54.975258 37.92635,62.936378 34.59406,62.936378 C 32.22162,62.936378 33.74116,64.940588 36.77852,65.817598 C 42.5297,67.478188 46.86812,67.011408 53.02852,64.069208 z"
       id="Wings" />
  </g>
  <path
     d="M 54.672668,77.366234 C 49.328159,77.366242 45.000087,81.545303 45.001696,86.684259 C 45.000493,90.538464 47.434771,93.836516 50.907823,95.249309 L 50.907823,102.00253 L 31.424674,102.00253 C 30.280793,102.00253 30.400963,107.97828 31.259961,108.00277 L 50.625455,107.95571 C 50.647163,112.57766 50.707981,117.1932 50.64899,121.8151 C 50.430875,131.36224 50.243632,140.92584 50.154843,150.47508 C 50.115627,155.64675 49.9325,160.59474 49.731302,161.48729 C 48.97296,164.85142 46.85847,165.30337 40.319147,163.51091 C 33.518455,161.64682 25.057861,157.51573 23.636123,155.34587 C 22.50586,153.62084 22.325123,152.13069 23.141986,151.22805 C 23.549235,150.77804 24.150372,150.51208 24.483215,150.6398 C 24.851236,150.781 25.238943,150.48241 25.471491,149.8633 C 26.290068,147.68393 23.558491,144.45106 18.177078,141.25119 C 16.869105,140.47342 14.731923,138.82059 13.423943,137.55691 C 12.051563,136.23102 10.855956,135.37798 10.576769,135.55683 C 9.7080735,136.1133 7.9227701,140.13745 7.3766392,142.78066 C 6.2787621,148.09426 7.682579,155.94059 10.270875,159.0166 C 11.637187,160.64036 12.39954,160.65614 12.718033,159.06367 C 13.279221,156.25774 16.772567,157.0578 20.577174,160.87551 C 23.588287,163.89697 29.303943,168.27772 31.801159,169.46409 C 32.752411,169.91601 34.123133,170.64156 34.836573,171.08768 C 35.550012,171.53379 37.687202,172.43707 39.589711,173.08776 C 43.575437,174.451 48.236127,176.86975 50.084258,178.52328 C 50.78636,179.15143 51.843396,179.99305 52.437298,180.38218 C 53.47618,181.0629 53.566573,181.03625 54.272666,179.95863 C 55.742582,177.71524 58.267526,175.7562 62.10827,173.88779 C 64.266861,172.83769 66.347339,171.98184 66.743768,171.98184 C 67.586359,171.98185 74.695995,168.83771 78.979553,166.56986 C 82.336251,164.79271 83.865156,163.70942 87.615195,160.45195 C 91.84886,156.7744 93.981897,156.35557 96.203782,158.7813 L 97.592075,160.31077 L 98.486225,159.32249 C 100.09757,157.56032 100.69241,155.79892 101.00398,151.81632 C 101.2422,148.77091 101.14268,147.11783 100.55689,144.47483 C 99.631277,140.29852 98.07011,136.71907 96.909687,136.09802 C 96.177012,135.70589 95.935755,135.81662 95.309616,136.82747 C 94.220907,138.58507 92.686226,139.96938 89.756454,141.86297 C 86.248383,144.13032 84.148277,146.47963 83.497383,148.80443 C 82.868643,151.05007 83.151417,151.86657 84.344479,151.22805 C 85.645955,150.53152 86.478466,150.71585 86.979878,151.81632 C 87.685813,153.36567 86.631572,154.60184 82.532632,157.04005 C 75.531924,161.20439 66.144925,164.61682 61.684725,164.61682 C 59.580066,164.61682 57.60108,163.80232 57.284549,162.805 C 57.131914,162.32407 57.141494,156.64796 57.284549,150.19272 C 57.427609,143.73747 57.63888,131.75819 57.778688,123.55635 C 57.918501,115.3545 58.09862,108.53239 58.178703,108.40278 C 58.258803,108.27321 62.739,108.21157 68.108529,108.26161 C 79.248829,108.3654 78.648241,108.5706 78.556004,104.52029 L 78.508946,102.00253 L 58.08457,102.00253 L 58.08457,95.366966 C 61.740258,94.037709 64.344903,90.664916 64.343667,86.684259 C 64.345271,81.545287 60.017195,77.366234 54.672668,77.366234 z M 59.148387,86.405743 C 59.149157,83.911103 57.046188,81.888402 54.451763,81.888402 C 51.857343,81.888402 49.754361,83.911103 49.755136,86.405743 C 49.754361,88.900387 51.857343,90.923087 54.451763,90.923087 C 57.046188,90.923087 59.149157,88.900387 59.148387,86.405743 z"
     id="Anchor"
     style="fill:#003d8f;fill-opacity:1;fill-rule:evenodd;stroke:none;stroke-width:10;stroke-miterlimit:4;stroke-opacity:1" />
  <g
     transform="matrix(1.1323399,0.4121379,0.4121379,-1.1323399,-62.127997,346.5737)"
     id="cornucopia"
     style="fill:#ffcd50;fill-opacity:1;stroke:none">
    <path
       d="M 159.5671,129.70179 C 159.4917,130.37124 158.7026,131.35159 158.0379,131.42754 C 157.8889,132.33195 159.7302,133.63555 160.7105,132.1306 C 161.6908,130.63443 160.9911,129.5234 159.5671,129.6947 L 159.5671,129.70179 z M 158.8674,120.96695 C 158.0046,121.19481 156.8332,122.1257 157.3803,123.8091 C 157.9292,125.48717 159.4023,125.39706 160.5194,124.50682 C 159.2094,123.72075 158.6903,121.75301 158.8674,120.96695 z M 158.5517,126.11423 C 157.3681,126.33502 156.4842,125.26635 155.9967,124.02461 C 155.6267,125.11445 154.82,126.44629 156.0458,127.18467 C 157.0121,127.76405 158.1011,127.97071 158.5465,126.11423 L 158.5517,126.11423 z M 158.1204,128.52888 C 157.2576,128.75675 156.0107,128.88219 155.0865,128.10143 C 154.8393,129.26021 156.0861,131.26152 157.5311,130.77929 C 158.9779,130.30236 158.792,129.2478 158.1133,128.52888 L 158.1204,128.52888 z M 179.9463,134.73248 C 179.8358,133.24163 178.0348,130.63443 175.1097,131.72434 C 172.3425,132.75941 172.2127,133.98706 172.6634,135.21469 C 173.3824,133.82811 177.9734,132.93783 179.9463,134.73955 L 179.9463,134.73248 z M 179.2063,130.86761 C 179.0958,129.37852 177.9857,127.5768 175.0676,128.66667 C 172.3004,129.70179 172.1163,132.11116 172.8423,132.15883 C 172.972,130.77222 177.0896,130.20696 179.2203,130.87468 L 179.2063,130.86761 z M 177.3912,126.79076 C 177.2808,125.29992 176.0129,123.12018 173.4648,124.64458 C 170.9659,126.13542 171.8427,128.4123 172.5687,128.45297 C 172.7055,127.06631 175.2676,126.12835 177.3982,126.79784 L 177.3912,126.79076 z M 174.8151,122.38182 C 174.0067,121.74592 172.3688,120.22859 170.5608,122.56024 C 169.0877,124.46618 170.6975,125.62493 171.2464,125.88636 C 171.1026,124.61634 172.7458,122.66446 174.8151,122.38182 z M 171.5604,119.75873 C 170.7256,119.20056 168.6563,117.78566 167.0745,120.42818 C 165.526,123.03714 168.0811,124.36196 168.7177,124.07229 C 168.4651,123.08485 169.691,120.62957 171.5533,119.75345 L 171.5604,119.75873 z M 167.1148,118.25551 C 166.245,118.03472 164.081,117.4412 163.5181,120.14555 C 162.9639,122.80931 165.512,123.17493 165.9715,122.7404 C 165.4716,121.98087 165.7926,119.53794 167.1148,118.24848 L 167.1148,118.25551 z M 162.5939,118.82078 C 161.7311,119.04864 159.5671,119.59447 160.251,122.09215 C 160.9227,124.54039 163.341,123.62363 163.5532,123.05837 C 162.7728,122.67859 161.9907,120.51122 162.5939,118.82078 z M 180.0691,139.69429 C 180.6916,138.46489 180.3917,135.58739 177.3228,135.13877 C 174.4047,134.71835 173.691,135.62983 173.4929,136.80977 C 174.7941,136.03609 179.2273,137.38207 180.0761,139.69429 L 180.0691,139.69429 z M 177.9243,146.67031 C 179.4588,145.99379 180.9932,141.49423 177.9384,139.07252 C 175.0413,136.77445 172.5617,137.776 171.6638,139.07252 C 174.4784,138.8994 179.0958,144.05428 177.9173,146.67031 L 177.9243,146.67031 z M 173.8348,152.07198 C 178.0822,150.05123 177.3842,144.28922 174.3294,141.86697 C 171.4306,139.56889 169.719,139.79675 168.3073,141.61787 C 172.0408,143.66162 174.1224,146.82223 173.8278,152.07906 L 173.8348,152.07198 z M 168.0057,155.59769 C 173.2526,156.41906 173.3771,149.67145 170.794,145.42853 C 168.972,142.4322 167.3832,142.32269 166.3818,142.83318 C 168.0671,145.95319 169.3683,150.49989 167.9987,155.60477 L 168.0057,155.59769 z M 162.1011,158.07595 C 167.3411,158.89733 168.8211,150.78249 166.238,146.5396 C 164.416,143.54327 162.8272,143.43375 161.8276,143.9448 C 163.5128,147.0625 165.3068,152.9693 162.0941,158.08302 L 162.1011,158.07595 z M 154.8463,158.68891 C 161.4575,161.27666 164.8403,150.99622 161.3208,145.54512 C 159.4356,142.61946 157.9082,142.43927 156.9086,142.94977 C 158.785,148.06401 158.1765,156.19123 154.8463,158.69595 L 154.8463,158.68891 z M 146.1131,159.06162 C 153.0663,163.62245 156.7034,154.69507 156.6473,148.39436 C 156.607,143.4055 152.7437,139.83915 151.7511,140.34961 C 154.2027,147.05717 150.2026,158.60763 146.1201,159.06869 L 146.1131,159.06162 z M 138.8583,156.95783 C 145.5239,162.49194 150.7024,154.1846 151.1128,146.5396 C 151.3811,141.52959 150.4218,137.16835 147.4283,136.7603 C 148.5244,144.54538 144.0578,155.46698 138.8583,156.96492 L 138.8583,156.95783 z M 130.9879,153.98322 C 137.8166,159.51735 144.7768,151.82468 145.9483,142.57175 C 146.5445,137.85197 145.8518,135.50615 143.7492,133.15863 C 143.8527,140.02462 134.7898,152.82447 130.9879,153.98322 z M 122.8772,153.85957 C 132.1102,159.53855 150.0307,130.80577 137.4062,126.82431 C 139.2353,134.82963 126.6791,153.43212 122.8772,153.85957 z M 118.7053,152.7485 C 123.4787,159.28945 145.4695,125.62493 131.5771,121.64349 C 132.4872,125.32111 130.2408,131.97337 126.7738,138.09924 C 123.3086,144.22034 118.6439,148.07812 118.7123,152.7485 L 118.7053,152.7485 z M 117.3409,152.61072 C 118.2388,146.73919 127.1368,135.7199 129.4604,127.58388 C 130.9458,122.37476 129.7603,117.61432 121.9863,118.53107 C 127.7611,128.56425 114.4439,142.55762 115.917,151.78935 C 115.4645,152.61072 117.9231,152.02427 117.3409,152.60368 L 117.3409,152.61072 z M 115.1085,151.82468 C 113.176,145.57341 120.1363,135.01509 121.6777,126.81196 C 122.6159,121.77419 119.0069,114.45426 111.6416,117.15154 C 119.554,125.57546 109.6635,142.15664 113.1971,150.81076 C 114.1282,151.60389 115.5259,151.5756 115.1015,151.83175 L 115.1085,151.82468 z M 112.3413,150.54049 C 109.4986,144.24858 112.9305,133.06324 113.3076,125.56842 C 113.553,120.59424 107.1487,111.96186 100.2779,117.55779 C 112.6078,124.02989 104.6007,136.75502 110.5596,150.05123 C 111.7924,150.87967 112.6972,150.21018 112.3343,150.54049 L 112.3413,150.54049 z M 108.7042,149.45066 C 105.5178,144.11611 107.1417,132.71701 105.004,125.38295 C 103.573,120.46354 95.7079,114.3147 90.5171,121.51277 C 103.929,124.78238 97.949,138.61677 106.8681,149.44359 C 108.2728,149.92052 108.9778,149.04437 108.7042,149.4577 L 108.7042,149.45066 z M 105.4284,149.58841 C 100.5795,145.18654 100.5374,134.33857 96.846,127.81176 C 93.5439,121.97378 86.5836,119.29771 83.2692,127.53616 C 97.2844,130.8199 92.9213,141.80513 100.8321,148.05696 C 102.5857,149.29167 105.6616,149.36762 105.4354,149.58841 L 105.4284,149.58841 z M 98.284,147.73194 C 93.9209,143.32955 95.8867,140.96962 91.6464,134.43572 C 87.9953,128.81155 78.0223,125.51365 76.7684,133.97295 C 89.1808,134.91794 88.6459,140.47329 94.7627,145.54512 C 96.318407,146.57727 97.495467,147.65422 98.284,147.72486 L 98.284,147.73194 z M 67.6302,149.2581 C 68.13,149.22983 68.6297,149.19628 69.1295,149.16096 C 67.8283,146.11742 69.7731,143.44083 73.6382,143.30835 C 77.5015,143.17764 82.7957,145.82775 86.6731,149.56721 C 89.9349,152.06489 93.8595,155.04659 99.5045,156.73703 C 103.915,158.05479 109.5056,158.01415 114.3422,160.07021 C 116.643,161.20779 116.2449,162.658 115.7451,165.52131 C 117.5128,164.65227 118.5808,163.36809 118.7526,161.48511 C 118.472,157.31641 115.7311,153.8737 109.0251,151.58972 C 103.1749,151.7558 97.4966,150.41685 92.1813,145.73236 C 89.7156,141.96414 86.8449,138.38891 81.1526,136.23744 C 78.3222,135.18821 75.1305,135.2836 71.5268,137.24432 C 67.0059,139.70667 66.5412,142.28736 66.6165,144.81385 C 66.9445,146.29057 67.2812,147.77434 67.6161,149.2581"
       id="path2509" />
    <path
       d="M 94.5101,157.90991 C 96.5654,159.49791 97.2634,162.08392 96.0586,163.67192 C 94.8591,165.25108 92.1953,165.25108 90.133,163.66485 C 88.0777,162.07683 87.378,159.49087 88.5845,157.90287 C 89.7841,156.3237 92.4478,156.3237 94.5101,157.90991 z M 103.8396,162.81519 C 105.4354,164.18945 105.9843,166.43103 105.0461,167.81236 C 104.1131,169.18483 102.0386,169.17777 100.4287,167.81236 C 98.8259,166.43807 98.284,164.19654 99.2222,162.81519 C 100.1551,161.44271 102.2297,161.44978 103.8396,162.81519 z M 112.6429,165.1345 C 114.4369,166.49991 115.0472,168.73615 113.9915,170.10866 C 112.9445,171.47584 110.6209,171.46879 108.8199,170.10866 C 107.0259,168.74324 106.4157,166.50698 107.4714,165.1345 C 108.5183,163.76907 110.8402,163.77436 112.6429,165.1345 z M 82.1452,152.94282 C 84.3232,152.94282 86.1049,155.14372 86.1049,157.33761 C 86.1049,159.5244 84.3302,161.31906 82.1452,161.31906 C 79.9671,161.31906 77.7891,158.80726 77.7891,156.61337 C 77.7891,154.41951 79.9671,152.94282 82.1452,152.94282 z M 85.7559,167.61098 C 87.6797,167.61098 89.2562,169.41977 89.2562,171.2268 C 89.2562,173.02852 87.6867,174.50522 85.7559,174.50522 C 84.3916,174.50522 83.029,173.47717 82.3503,172.23365 C 83.4744,171.68958 84.2408,170.59264 84.2408,169.32262 C 84.2408,168.86687 84.1461,168.4041 83.9602,167.96956 C 84.5161,167.74345 85.1316,167.61805 85.7559,167.61805 L 85.7559,167.61098 z M 75.8425,166.21024 C 74.9043,166.7843 74.2467,167.72932 74.2818,168.87396 C 74.3011,169.55755 74.5694,170.2747 74.9937,170.90882 C 74.9113,170.91589 74.8289,170.92298 74.7465,170.92298 C 72.8631,170.97949 70.9112,168.8598 70.8499,166.96273 C 70.8288,166.11485 71.1778,165.3694 71.76,164.80946 C 72.3843,165.27932 73.1033,165.56195 73.8153,165.54075 C 74.1239,165.53548 74.4186,165.48599 74.7062,165.39591 C 75.0481,165.72798 75.4322,166.00354 75.8425,166.20317 L 75.8425,166.21024 z M 74.7956,158.23494 C 73.8364,158.87613 73.1717,159.86885 73.1717,161.08413 C 73.1717,162.23582 73.775,163.4776 74.6641,164.40321 C 74.3361,164.49328 73.9942,164.54096 73.6382,164.54096 C 71.4584,164.54096 69.2804,162.02915 69.2804,159.8353 C 69.2804,159.28241 69.4171,158.77195 69.6644,158.32326 C 69.98,158.4204 70.301,158.47515 70.6236,158.47515 C 71.6092,158.47515 72.5211,158.1095 73.212,157.50365 C 73.6996,157.86223 74.2397,158.11657 74.7886,158.23494 L 74.7956,158.23494 z M 84.1461,175.47672 C 83.4604,176.51892 82.2819,177.20957 80.9474,177.20957 C 78.836,177.20957 76.7193,174.77372 76.7193,172.64873 C 76.7193,172.44207 76.7404,172.23365 76.7825,172.03402 C 77.5769,172.93844 78.6589,173.57965 79.7409,173.57965 C 80.4388,173.57965 81.0965,173.39415 81.6664,173.05501 C 82.2065,174.09719 83.1184,175.01572 84.139,175.46969 L 84.1461,175.47672 z M 87.513506,159.61016 C 87.144399,161.00816 87.592,163.08547 89.1878,164.44385 C 88.6196,165.53548 87.4745,166.28615 86.1592,166.28615 C 84.2898,166.28615 82.4187,164.14705 82.3924,162.26411 C 82.4748,162.27114 82.5555,162.27114 82.6379,162.27114 C 84.4477,162.27114 86.161231,160.92243 86.264631,159.12248 C 86.856553,159.06696 87.037634,159.31463 87.513506,159.61016 z M 81.2613,165.38884 C 81.9259,165.91346 82.4468,166.64473 82.687,167.45906 C 83.2271,169.35089 82.1452,171.34513 80.2687,171.89625 C 78.3923,172.44207 75.8846,170.83463 75.3357,168.94284 C 75.1025,168.14267 75.248,167.34954 75.6233,166.65889 C 75.6584,166.67302 75.6917,166.68713 75.7338,166.70126 C 77.9872,167.5845 80.3704,166.98389 81.2613,165.38884 z M 70.5745,150.08475 C 71.2059,150.08475 71.8091,150.2985 72.3159,150.65884 C 71.5005,151.21705 70.9393,152.07198 70.9393,153.10709 C 70.9393,154.34356 71.7337,155.7019 72.8157,156.49501 C 72.2125,157.01967 71.4251,157.33761 70.5693,157.33761 C 68.6771,157.33761 66.7867,155.16316 66.7867,153.259 C 66.7867,151.36189 68.6718,150.07947 70.5693,150.07947 L 70.5745,150.08475 z M 75.7198,149.78273 C 77.3156,149.78273 78.6519,151.22411 78.9184,152.81034 C 78.0223,153.32788 77.377,154.19871 77.377,155.28151 C 77.377,155.55709 77.4191,155.83972 77.4945,156.11526 C 76.9876,156.44733 76.3774,156.64696 75.7198,156.64696 C 73.9328,156.64696 72.137,154.58379 72.137,152.78383 C 72.137,150.98211 73.9258,149.76857 75.7198,149.76857 L 75.7198,149.78273 z M 81.1666,161.85076 C 81.5086,162.79577 81.4472,163.78143 80.9053,164.50563 C 79.925,165.78982 77.761,165.78982 76.0898,164.50563 C 74.4186,163.21617 73.8504,161.1124 74.8289,159.82821 C 75.3497,159.14462 76.2003,158.82842 77.1455,158.8691 C 77.8715,160.4765 79.4866,161.85604 81.1035,161.85604 C 81.1245,161.85604 81.1456,161.85604 81.1666,161.85604 L 81.1666,161.85076 z M 94.9065,175.72581 C 94.9819,176.31225 94.8661,176.88455 94.5242,177.33324 C 93.6877,178.43015 91.8376,178.43015 90.3996,177.33324 C 88.9686,176.22921 88.4811,174.42925 89.3246,173.32527 C 89.6455,172.90309 90.119,172.64166 90.6679,172.54451 C 90.489,173.00024 90.4417,173.53194 90.5785,174.0636 C 90.9344,175.46969 92.3865,176.42884 93.8104,176.19566 C 94.2296,176.13386 94.6066,175.96074 94.9135,175.72581 L 94.9065,175.72581 z M 97.6615,173.4701 C 97.3318,174.28443 96.6408,174.94684 95.6886,175.22942 C 93.9279,175.75408 91.941,174.79492 91.2624,173.06915 C 90.9204,172.18595 90.9818,171.27625 91.3588,170.52376 C 92.0919,170.80638 92.9143,170.86822 93.6947,170.63328 C 94.5101,170.39305 95.1397,169.86135 95.5097,169.1919 C 95.2642,169.87551 95.2572,170.65448 95.5518,171.41404 C 95.9288,172.37319 96.7162,173.09739 97.6474,173.46306 L 97.6615,173.4701 z M 96.9495,165.25812 C 97.4563,166.96976 96.2094,168.60546 94.1612,168.88807 C 92.1129,169.1707 90.0225,168.01196 89.5087,166.29324 C 89.3527,165.76155 89.3649,165.23872 89.5157,164.75472 C 89.749,164.96845 90.0085,165.17512 90.3031,165.3694 C 92.3584,166.70833 95.024,166.71366 96.2287,165.3694 C 96.4286,165.14861 96.5794,164.89954 96.6742,164.63107 C 96.7846,164.82359 96.8741,165.03026 96.9425,165.25108 L 96.9495,165.25812 z M 111.4171,174.31094 C 110.1071,176.0773 107.7028,176.88455 106.0597,176.10559 C 104.4218,175.3319 104.1482,173.2564 105.4564,171.48999 C 105.8335,170.97949 106.3122,170.5432 106.833,170.2058 C 107.9834,171.60654 109.937,172.4138 111.8608,172.12413 C 111.9853,172.11 112.1151,172.08349 112.2378,172.05525 C 112.2308,172.77945 111.9642,173.57258 111.4171,174.31094 z M 104.4761,169.9373 C 104.7988,171.0749 104.7234,172.24072 104.1833,173.10448 C 103.1749,174.68365 100.9496,174.68365 99.2222,173.10448 C 98.0104,171.98632 97.3598,170.37185 97.4352,168.95695 C 97.9824,168.42525 98.3121,167.67985 98.3121,166.86556 C 98.3524,166.82494 98.4015,166.7843 98.4488,166.74897 C 98.9977,169.11595 101.2161,170.72336 103.3871,170.32945 C 103.7782,170.26057 104.1412,170.12986 104.4709,169.94439 L 104.4761,169.9373 z M 110.8892,178.3542 C 109.588,180.12063 107.1768,180.92079 105.5318,180.14886 C 104.1552,179.50061 103.7449,177.91965 104.4288,176.38113 C 105.5792,177.31908 107.1627,177.8031 108.7165,177.56815 C 110.0124,177.37561 111.0594,176.71323 111.7047,175.80175 C 111.7661,176.60192 111.5118,177.5134 110.8892,178.34715 L 110.8892,178.3542 z M 103.0118,175.81588 C 103.2924,177.7483 101.8878,179.73553 99.8798,180.23894 C 97.8736,180.73529 95.9972,179.56949 95.7149,177.62999 C 95.6465,177.13362 95.6886,176.63019 95.8113,176.14617 C 96.9968,175.92542 97.9701,175.31246 98.5856,174.46989 C 99.6203,175.04927 100.8601,175.31246 102.0929,175.11814 C 102.3262,175.08459 102.5524,175.03514 102.7646,174.96623 C 102.8733,175.22942 102.9627,175.51209 103.0048,175.81588 L 103.0118,175.81588 z"
       id="path2511" />
  </g>
  <path
     d="M 249.55062,1.4395041 L 1.449569,1.4395041 L 1.449569,174.9361 C 0.68232904,268.65698 81.739009,302.75585 125.5001,302.75585 C 168.49395,302.75585 250.31785,268.65698 249.55062,174.9361 L 249.55062,1.4395041 z"
     id="Frame"
     style="fill:none;fill-opacity:0;stroke:#000000;stroke-width:1.88832211;stroke-linejoin:bevel" />
</svg>
