<?xml version="1.0" encoding="UTF-8" standalone="no"?>
<!-- Created with Inkscape (http://www.inkscape.org/) -->
<svg
   xmlns:dc="http://purl.org/dc/elements/1.1/"
   xmlns:cc="http://web.resource.org/cc/"
   xmlns:rdf="http://www.w3.org/1999/02/22-rdf-syntax-ns#"
   xmlns:svg="http://www.w3.org/2000/svg"
   xmlns="http://www.w3.org/2000/svg"
   version="1.0"
   width="251"
   height="304.20001"
   id="svg4166">
  <defs
     id="defs4168" />
  <metadata
     id="metadata1880"><rdf:RDF><cc:Work
         rdf:about=""><dc:title>Vastervik kommunvapen</dc:title><dc:date>14-10-2007</dc:date><dc:creator><cc:Agent><dc:title>Lokal_Profil</dc:title></cc:Agent></dc:creator><cc:license
         rdf:resource="http://creativecommons.org/licenses/by-sa/2.5/" /><dc:rights><cc:Agent><dc:title>cc-by-sa-2.5</dc:title></cc:Agent></dc:rights><dc:format>image/svg+xml</dc:format><dc:type
         rdf:resource="http://purl.org/dc/dcmitype/StillImage" /></cc:Work><cc:License
         rdf:about="http://creativecommons.org/licenses/by-sa/2.5/"><cc:permits
         rdf:resource="http://web.resource.org/cc/Reproduction" /><cc:permits
         rdf:resource="http://web.resource.org/cc/Distribution" /><cc:requires
         rdf:resource="http://web.resource.org/cc/Notice" /><cc:requires
         rdf:resource="http://web.resource.org/cc/Attribution" /><cc:permits
         rdf:resource="http://web.resource.org/cc/DerivativeWorks" /><cc:requires
         rdf:resource="http://web.resource.org/cc/ShareAlike" /></cc:License></rdf:RDF>
  </metadata>
  <path
     d="M 249.55058,1.4395041 L 1.4495291,1.4395041 L 1.4495291,174.9361 C 0.68228908,268.65698 81.738969,302.75585 125.50006,302.75585 C 168.49391,302.75585 250.31781,268.65698 249.55058,174.9361 L 249.55058,1.4395041 z "
     style="color:#000000;fill:#003d8f;fill-opacity:1;stroke:none"
     id="Shield" />
  <g
     transform="matrix(0.448349,0,0,0.448349,-18.68651,-1.40929)"
     id="Kogg">
    <g
       style="fill:#ffcd50;fill-opacity:1"
       id="Fyllning">
      <path
         d="M 315.62113,458.38835 C 315.62113,458.38835 325.53164,459.1507 328.19986,458.38835 C 330.86808,457.626 333.15512,456.86365 333.15512,456.86365 L 331.63042,397.40055 C 331.63042,397.40055 320.19521,397.78173 316.76465,401.97464 C 313.33409,406.16755 316.0023,458.38835 315.62113,458.38835 z "
         style="fill:#ffcd50;fill-opacity:1;fill-rule:evenodd;stroke:none;stroke-width:1px;stroke-linecap:butt;stroke-linejoin:miter;stroke-opacity:1"
         id="path3279" />
      <path
         d="M 264.16268,441.23553 C 264.16268,441.23553 266.83089,412.26633 296.94362,400.06877 C 327.05634,387.87121 346.87737,392.82647 364.03019,397.01938 C 381.18301,401.21229 399.09817,414.93455 399.09817,414.93455 C 399.09817,414.93455 379.7398,332.28328 387.28179,276.56849 C 393.15467,233.18394 397.95465,214.056 423.87446,172.12689 C 442.23538,142.4254 452.84366,135.91539 452.84366,135.91539 L 424.25564,145.06355 L 410.53338,162.59755 L 417.39451,162.59755 C 413.74621,169.03216 408.33538,174.5855 400.62287,178.98801 L 396.81113,164.88459 C 396.81113,164.88459 400.62287,163.74107 403.29108,158.78581 C 405.9593,153.83055 407.10282,151.16233 407.10282,151.16233 L 378.89596,161.45402 L 370.89132,175.55745 L 376.9901,175.55745 C 373.78946,181.77119 369.37545,187.37825 362.12432,191.56675 L 356.02554,178.22567 C 356.02554,178.22567 358.31258,178.98801 359.83728,176.3198 C 361.36197,173.65158 364.03019,164.88459 364.03019,164.88459 L 285.88958,194.61614 L 279.7908,206.8137 L 285.88958,206.43252 C 285.39509,207.48506 278.53264,220.30952 271.78615,223.58534 C 270.26146,219.7736 267.21207,214.056 266.83089,211.38778 C 266.44972,208.71956 266.44972,208.71956 266.44972,208.71956 L 269.11794,208.33839 L 270.26146,199.19022 L 242.81695,209.86309 C 242.81695,209.86309 241.67343,210.62543 241.29225,214.43717 C 240.91108,218.24891 240.91108,219.7736 240.91108,219.7736 L 248.15338,218.63008 C 248.15338,218.63008 240.91108,228.92177 238.24287,230.82764 C 235.57465,232.73351 232.90643,235.02055 232.90643,235.02055 C 232.90643,235.02055 228.5343,230.67116 227.57,227.77825 C 226.80765,225.49121 225.66413,223.58534 225.66413,223.58534 L 232.14409,219.39243 L 230.23822,214.81834 L 218.04066,219.7736 C 218.04066,219.7736 192.88518,266.27704 205.9085,331.81158 C 214.70286,376.06561 264.16268,441.99788 264.16268,441.23553 z "
         style="fill:#ffcd50;fill-opacity:1;fill-rule:evenodd;stroke:none;stroke-width:1px;stroke-linecap:butt;stroke-linejoin:miter;stroke-opacity:1"
         id="path3281" />
      <path
         d="M 191.73967,218.63008 C 191.36039,221.54683 191.91711,223.18664 193.64554,225.49121 L 231.76291,211.38778 C 231.76291,211.38778 232.14409,208.33839 233.28761,206.05135 C 234.43113,203.76431 234.8123,203.38314 234.8123,203.38314 L 191.73967,218.63008 z "
         style="fill:#ffcd50;fill-opacity:1;fill-rule:evenodd;stroke:none;stroke-width:1px;stroke-linecap:butt;stroke-linejoin:miter;stroke-opacity:1"
         id="path3283" />
      <path
         d="M 243.5793,200.33375 C 243.5793,200.33375 237.48052,202.23961 235.57465,207.19487 C 233.66878,212.15013 233.28761,215.19952 233.28761,218.63008 C 233.28761,222.06065 233.28761,222.06065 233.28761,222.06065 L 229.0947,224.72886 L 231.76291,230.0653 L 232.52526,230.82764 C 232.52526,230.82764 238.62404,226.63473 240.52991,224.34769 C 242.43578,222.06065 242.81695,222.06065 242.81695,222.06065 L 238.24287,222.06065 C 238.24287,222.06065 239.00521,205.67018 243.5793,200.33375 z "
         style="fill:#ffcd50;fill-opacity:1;fill-rule:evenodd;stroke:none;stroke-width:1px;stroke-linecap:butt;stroke-linejoin:miter;stroke-opacity:1"
         id="path3285" />
      <path
         d="M 250.05925,198.80905 C 250.05925,198.80905 248.91573,200.33375 247.77221,202.23961 C 246.62869,204.14548 246.24751,206.43253 246.24751,206.43253 L 272.16733,196.14084 C 272.16733,196.14084 272.5485,192.71027 272.92967,191.18558 C 273.31085,189.66088 273.69202,189.27971 273.69202,189.27971 L 250.05925,198.80905 z "
         style="fill:#ffcd50;fill-opacity:1;fill-rule:evenodd;stroke:none;stroke-width:1px;stroke-linecap:butt;stroke-linejoin:miter;stroke-opacity:1"
         id="path3287" />
      <path
         d="M 283.22136,186.23032 C 283.22136,186.23032 275.59789,186.61149 274.83554,192.3291 C 274.07319,198.0467 271.78615,210.24426 271.78615,210.24426 L 269.49911,210.62544 L 272.16733,218.24891 C 272.16733,218.24891 278.64728,213.67483 279.40963,211.38778 C 280.17197,209.10074 280.17197,209.10074 280.17197,209.10074 L 275.97906,209.10074 C 275.97906,209.10074 282.45902,194.99731 283.22136,186.23032 z "
         style="fill:#ffcd50;fill-opacity:1;fill-rule:evenodd;stroke:none;stroke-width:1px;stroke-linecap:butt;stroke-linejoin:miter;stroke-opacity:1"
         id="path3289" />
      <path
         d="M 287.79545,184.70562 C 287.79545,184.70562 288.17662,186.23032 287.79545,188.13619 C 287.41427,190.04206 287.79545,191.18558 287.79545,191.18558 C 287.79545,191.18558 344.59033,169.83985 354.88202,166.02811 C 365.17371,162.21638 365.55488,162.21638 365.55488,162.21638 L 368.60427,157.64229 L 369.36662,155.35525 C 369.36662,155.35525 295.8001,180.13154 287.79545,184.70562 z "
         style="fill:#ffcd50;fill-opacity:1;fill-rule:evenodd;stroke:none;stroke-width:1px;stroke-linecap:butt;stroke-linejoin:miter;stroke-opacity:1"
         id="path3291" />
      <path
         d="M 381.94535,151.16234 C 381.94535,151.16234 372.79719,153.83055 372.03484,155.73642 C 371.27249,157.64229 362.50549,177.8445 362.50549,177.8445 L 359.45611,179.75037 C 359.45611,179.75037 362.12432,184.32445 362.88667,185.84915 C 363.64902,187.37384 363.64902,187.37384 363.64902,187.37384 C 363.64902,187.37384 366.31723,183.94328 368.60427,180.51271 C 370.89132,177.08215 370.89132,177.08215 370.89132,177.08215 L 367.46075,176.70098 C 367.46075,176.70098 378.51479,154.21173 381.94535,151.16234 z "
         style="fill:#ffcd50;fill-opacity:1;fill-rule:evenodd;stroke:none;stroke-width:1px;stroke-linecap:butt;stroke-linejoin:miter;stroke-opacity:1"
         id="path3293" />
      <path
         d="M 386.90061,150.39999 C 386.90061,150.39999 384.99474,152.68703 384.61357,154.21173 C 384.2324,155.73642 384.2324,156.1176 384.2324,156.1176 C 384.2324,156.1176 400.62287,150.78116 404.05343,148.8753 C 407.48399,146.96943 407.48399,146.96943 407.48399,146.96943 C 407.48399,146.96943 410.53338,143.53886 410.91456,142.01417 C 411.29573,140.48947 411.29573,140.48947 411.29573,140.48947 C 411.29573,140.48947 389.18765,148.49412 386.90061,150.39999 z "
         style="fill:#ffcd50;fill-opacity:1;fill-rule:evenodd;stroke:none;stroke-width:1px;stroke-linecap:butt;stroke-linejoin:miter;stroke-opacity:1"
         id="path3295" />
      <path
         d="M 425.78033,135.91539 C 425.78033,135.91539 417.39451,136.29656 415.86981,138.58361 C 414.34512,140.87065 414.34512,140.87065 414.34512,140.87065 C 414.34512,140.87065 402.90991,163.3599 402.52873,165.26577 C 402.14756,167.17163 402.14756,167.17163 402.14756,167.17163 L 400.24169,167.55281 L 401.76639,172.50807 L 402.52873,174.03276 C 402.52873,174.03276 406.34047,172.50807 409.00869,168.31515 C 411.6769,164.12224 411.6769,164.88459 411.6769,164.88459 L 406.34047,165.26576 C 406.34047,165.26576 423.11211,140.1083 425.78033,135.91539 z "
         style="fill:#ffcd50;fill-opacity:1;fill-rule:evenodd;stroke:none;stroke-width:1px;stroke-linecap:butt;stroke-linejoin:miter;stroke-opacity:1"
         id="path3297" />
      <path
         d="M 434.16615,132.866 C 434.16615,132.866 429.97324,135.91539 429.59207,137.44008 C 429.21089,138.96478 427.6862,140.48947 427.6862,140.48947 C 427.6862,140.48947 466.94709,127.14839 470.75883,124.48018 C 474.57057,121.81196 475.71409,122.57431 473.04587,120.28727 C 470.37765,118.00022 434.54733,132.48483 434.16615,132.866 z "
         style="fill:#ffcd50;fill-opacity:1;fill-rule:evenodd;stroke:none;stroke-width:1px;stroke-linecap:butt;stroke-linejoin:miter;stroke-opacity:1"
         id="path3299" />
      <path
         d="M 318.48737,169.41558 L 317.94831,164.83356 C 317.94831,164.83356 318.21784,163.48591 319.83502,163.48591 C 321.45221,163.48591 323.87798,164.2945 323.87798,164.2945 L 323.87798,167.7984 L 318.48737,169.41558 z "
         style="fill:#ffcd50;fill-opacity:1;fill-rule:evenodd;stroke:none;stroke-width:1px;stroke-linecap:butt;stroke-linejoin:miter;stroke-opacity:1"
         id="path3301" />
      <path
         d="M 314.44441,165.10309 C 314.44441,165.10309 304.74131,165.10309 300.42883,163.48591 C 296.11634,161.86873 293.69056,159.98201 293.69056,159.98201 C 293.69056,159.98201 299.08117,155.39999 312.28817,155.13046 C 325.49516,154.86093 336.81545,155.93906 340.8584,156.74765 C 344.90136,157.55624 345.17089,159.44295 345.17089,159.44295 C 345.17089,159.44295 334.6592,163.75544 330.88577,165.10309 C 327.11235,166.45075 327.11235,166.45075 327.11235,166.45075 L 326.84282,160.7906 C 326.84282,160.7906 324.14751,158.90389 320.10455,159.44295 C 316.0616,159.98201 314.44441,161.5992 314.44441,161.5992 L 314.44441,165.10309 z "
         style="fill:#ffcd50;fill-opacity:1;fill-rule:evenodd;stroke:none;stroke-width:1px;stroke-linecap:butt;stroke-linejoin:miter;stroke-opacity:1"
         id="path3303" />
      <path
         d="M 289.91714,156.20859 L 289.91714,158.36483 C 289.91714,158.36483 300.1593,153.51328 309.0538,152.70469 C 317.94831,151.8961 334.12014,152.97422 337.35451,153.51328 C 340.58887,154.05234 346.51854,155.93906 346.51854,155.93906 L 346.51854,153.24375 C 346.51854,153.24375 337.62404,149.73985 320.64361,150.00938 C 303.66319,150.27891 295.03822,153.78281 289.91714,156.20859 z "
         style="fill:#ffcd50;fill-opacity:1;fill-rule:evenodd;stroke:none;stroke-width:1px;stroke-linecap:butt;stroke-linejoin:miter;stroke-opacity:1"
         id="path3305" />
      <path
         d="M 289.6476,151.62657 C 289.0672,146.63668 290.08511,140.04847 287.76089,136.80239 C 287.76089,136.80239 298.54211,131.41178 310.67099,130.60319 C 322.79986,129.7946 336.00685,131.41178 342.74512,133.02896 C 349.48338,134.64614 349.19255,136.09548 349.19255,136.09548 C 347.60081,139.55999 348.15105,145.88047 347.8662,151.08751 C 347.8662,151.08751 334.38967,146.77502 322.53033,146.23596 C 310.67099,145.6969 289.37807,151.35704 289.6476,151.62657 z "
         style="fill:#ffcd50;fill-opacity:1;fill-rule:evenodd;stroke:none;stroke-width:1px;stroke-linecap:butt;stroke-linejoin:miter;stroke-opacity:1"
         id="path3307" />
      <path
         d="M 283.4484,130.33366 C 283.4484,130.33366 284.79606,132.75943 285.87418,133.56802 C 286.9523,134.37661 286.9523,134.37661 286.9523,134.37661 C 286.9523,134.37661 298.54211,128.71647 309.32333,127.90788 C 320.10455,127.09929 335.46779,128.44694 340.31934,129.7946 C 345.17089,131.14225 351.63962,133.02896 351.63962,133.02896 C 351.63962,133.02896 352.17868,133.29849 352.44822,131.41178 C 352.71775,129.52506 352.71775,129.25553 352.71775,129.25553 C 352.71775,129.25553 340.82906,125.27104 329.26859,124.40399 C 318.48737,123.59539 305.01085,124.40399 295.84681,126.82976 C 291.34891,128.02038 283.71793,130.87272 283.4484,130.33366 z "
         style="fill:#ffcd50;fill-opacity:1;fill-rule:evenodd;stroke:none;stroke-width:1px;stroke-linecap:butt;stroke-linejoin:miter;stroke-opacity:1"
         id="path3309" />
      <path
         d="M 283.17887,125.21258 L 283.4484,127.09929 C 283.4484,127.09929 298.27258,123.05633 304.74131,122.24774 C 311.21005,121.43915 324.14751,122.24774 330.88577,122.7868 C 337.62404,123.32586 353.52634,126.82976 353.52634,126.82976 L 356.22164,123.86492 L 356.22164,123.05633 C 356.22164,123.05633 336.27638,119.01337 322.53033,118.20478 C 308.78427,117.39619 289.37807,121.97821 283.17887,125.21258 z "
         style="fill:#ffcd50;fill-opacity:1;fill-rule:evenodd;stroke:none;stroke-width:1px;stroke-linecap:butt;stroke-linejoin:miter;stroke-opacity:1"
         id="path3311" />
      <path
         d="M 316.87019,114.70089 L 321.71969,116.44977 L 322.39249,112.27511 C 322.39249,112.27511 318.48737,111.73605 317.40925,111.46652 C 316.33113,111.19699 316.0616,111.19699 316.0616,111.19699 L 316.87019,114.70089 z "
         style="fill:#ffcd50;fill-opacity:1;fill-rule:evenodd;stroke:none;stroke-width:1px;stroke-linecap:butt;stroke-linejoin:miter;stroke-opacity:1"
         id="path3313" />
      <path
         d="M 316.60066,96.64234 L 316.87019,98.79859 L 322.79986,98.79859 L 322.53033,96.37281 L 316.60066,96.64234 z "
         style="fill:#ffcd50;fill-opacity:1;fill-rule:evenodd;stroke:none;stroke-width:1px;stroke-linecap:butt;stroke-linejoin:miter;stroke-opacity:1"
         id="path3315" />
      <path
         d="M 315.52253,81.54863 L 315.52253,83.97441 L 321.45221,84.51347 L 321.45221,82.08769 L 315.52253,81.54863 z "
         style="fill:#ffcd50;fill-opacity:1;fill-rule:evenodd;stroke:none;stroke-width:1px;stroke-linecap:butt;stroke-linejoin:miter;stroke-opacity:1"
         id="path3317" />
      <path
         d="M 312.82723,69.68929 C 312.82723,69.68929 312.82723,59.44713 312.5577,57.02136 C 312.28817,54.59558 310.13192,51.09168 310.13192,51.09168 L 314.98347,53.78699 L 318.48737,49.74403 L 322.53033,54.05652 L 327.11235,51.09168 C 327.11235,51.09168 326.84282,53.78699 325.76469,56.21277 C 324.68657,58.63854 322.2608,62.41197 321.99127,63.75962 C 321.72174,65.10727 321.45221,70.49788 321.45221,70.49788 C 321.45221,70.49788 317.13972,70.22835 312.82723,69.68929 z "
         style="fill:#ffcd50;fill-opacity:1;fill-rule:evenodd;stroke:none;stroke-width:1px;stroke-linecap:butt;stroke-linejoin:miter;stroke-opacity:1"
         id="path3319" />
      <path
         d="M 183.72211,105.80638 C 183.72211,105.80638 200.97207,129.25553 213.37047,130.60319 C 225.76887,131.95084 236.55009,125.48211 245.4446,115.77901 C 254.33911,106.07591 262.42502,101.49389 270.78047,100.14624 C 279.13591,98.79859 310.13192,105.80638 313.90535,106.8845 C 317.67878,107.96262 323.87798,108.23215 323.87798,108.23215 L 323.60845,103.11107 C 323.60845,103.11107 317.40925,100.95483 313.09676,99.87671 C 308.78427,98.79859 308.78427,98.79859 308.78427,98.79859 C 308.78427,98.79859 307.70615,94.4861 308.51474,93.13844 C 309.32333,91.79079 309.32333,91.79079 309.32333,91.79079 C 309.32333,91.79079 316.33113,93.67751 318.7569,93.67751 C 321.18268,93.67751 323.87798,93.67751 323.87798,93.67751 C 323.87798,93.67751 324.41704,91.25173 324.41704,90.17361 C 324.41704,89.09549 323.87798,86.40018 323.87798,86.40018 C 323.87798,86.40018 317.13972,85.32206 313.90535,85.32206 C 310.67099,85.32206 309.86239,85.32206 309.86239,85.32206 C 309.86239,85.32206 309.32333,83.70488 309.32333,81.81816 C 309.32333,79.93145 310.40145,78.85333 310.40145,78.85333 C 310.40145,78.85333 315.79206,78.85333 319.02643,79.12286 C 322.2608,79.39239 323.60845,79.39239 323.60845,79.39239 C 323.60845,79.39239 324.41704,74.81037 323.60845,73.46272 C 322.79986,72.11506 322.79986,72.11506 322.79986,72.11506 C 322.79986,72.11506 308.78427,72.65413 303.93272,72.11506 C 299.08117,71.576 282.90934,68.61117 271.05,71.30647 C 259.19066,74.00178 241.13211,90.17361 230.88995,97.99 C 220.64779,105.80638 220.10873,107.69309 206.90174,108.23215 C 193.69474,108.77122 184.26117,106.07591 183.72211,105.80638 z "
         style="fill:#ffcd50;fill-opacity:1;fill-rule:evenodd;stroke:none;stroke-width:1px;stroke-linecap:butt;stroke-linejoin:miter;stroke-opacity:1"
         id="path3321" />
      <path
         d="M 82.917699,113.62276 C 82.917699,113.62276 93.42939,111.73605 97.74188,113.89229 C 102.05437,116.04854 106.63638,121.97821 117.41761,119.01337 C 128.19883,116.04854 126.58164,99.87671 134.66756,94.21657 C 142.75347,88.55643 149.49174,88.01737 156.76906,89.90408 C 164.04638,91.79079 186.2612,105.92991 186.2612,105.92991 C 186.2612,105.92991 149.22221,93.13844 142.21441,98.52906 C 135.20662,103.91967 136.55427,119.55244 128.73789,124.67352 C 120.9215,129.7946 107.98404,127.63835 103.13249,124.40399 C 98.28094,121.16962 87.76925,115.23995 82.917699,113.62276 z "
         style="fill:#ffcd50;fill-opacity:1;fill-rule:evenodd;stroke:none;stroke-width:1px;stroke-linecap:butt;stroke-linejoin:miter;stroke-opacity:1"
         id="path3323" />
      <path
         d="M 134.94479,370.33722 C 134.94479,370.33722 126.37411,368.74102 122.18121,368.74102 C 117.9883,368.74102 114.677,369.99693 117.089,372.55276 C 120.585,376.25722 123.50958,377.57952 128.84601,393.96999 C 134.18244,410.36046 156.67169,515.18323 162.00812,531.19253 C 167.34455,547.20182 174.58686,568.92872 174.58686,568.92872 C 174.58686,568.92872 200.50667,576.5522 218.42183,579.22041 C 236.337,581.88863 241.29225,581.88863 241.29225,581.88863 C 241.29225,581.88863 198.6008,551.39473 178.77977,505.27272 C 158.95873,459.1507 148.28587,429.03797 142.56826,402.73699 C 136.85066,376.436 135.70714,370.33722 134.94479,370.33722 z "
         style="fill:#ffcd50;fill-opacity:1;fill-rule:evenodd;stroke:none;stroke-width:1px;stroke-linecap:butt;stroke-linejoin:miter;stroke-opacity:1"
         id="path3629" />
      <path
         d="M 558.04761,408.83577 L 543.56301,408.07342 C 543.56301,408.07342 522.97963,496.88689 519.93024,507.17858 C 516.88085,517.47027 513.83146,522.04436 513.83146,522.04436 C 513.83146,522.04436 508.49503,541.86539 504.30212,549.87004 C 500.1092,557.87469 492.8669,565.11699 492.8669,565.11699 C 492.8669,565.11699 513.06911,559.01821 521.45493,552.91943 C 529.84075,546.82065 529.84075,546.82065 529.84075,546.82065 C 529.84075,546.82065 536.10606,451.30148 541.06132,435.67335 C 546.01658,420.04523 556.68944,419.39021 556.68944,419.39021 C 556.92889,416.84905 558.40891,411.37693 558.04761,408.83577 z "
         style="fill:#ffcd50;fill-opacity:1;fill-rule:evenodd;stroke:none;stroke-width:1px;stroke-linecap:butt;stroke-linejoin:miter;stroke-opacity:1"
         id="path3631" />
      <path
         d="M 438.35906,578.07689 C 438.35906,578.07689 471.52118,562.0676 489.43634,545.67713 C 507.3515,529.28666 510.01972,526.23727 510.01972,526.23727 C 510.01972,526.23727 502.77742,547.583 498.58451,554.06295 C 494.3916,560.5429 483.33756,567.7852 483.33756,567.7852 C 483.33756,567.7852 444.83902,578.45807 438.35906,578.07689 z "
         style="fill:#ffcd50;fill-opacity:1;fill-rule:evenodd;stroke:none;stroke-width:1px;stroke-linecap:butt;stroke-linejoin:miter;stroke-opacity:1"
         id="path3633" />
      <path
         d="M 78.406009,324.1261 L 85.683333,323.58704 C 85.683333,323.58704 85.144272,348.11431 84.874742,351.88774 C 84.605211,355.66117 84.06615,363.74708 84.06615,363.74708 L 76.249765,363.47755 C 76.249765,363.47755 77.597418,330.05577 78.406009,324.1261 z "
         style="fill:#ffcd50;fill-opacity:1;fill-rule:evenodd;stroke:none;stroke-width:1px;stroke-linecap:butt;stroke-linejoin:miter;stroke-opacity:1"
         id="path3702" />
      <path
         d="M 89.45676,330.05577 L 88.648169,334.36826 C 88.648169,334.36826 147.67535,338.68075 156.83939,339.21981 C 166.00343,339.75887 180.55807,340.83699 180.55807,340.83699 L 180.01902,334.90732 C 180.01902,334.90732 97.00361,330.05577 89.45676,330.05577 z "
         style="fill:#ffcd50;fill-opacity:1;fill-rule:evenodd;stroke:none;stroke-width:1px;stroke-linecap:butt;stroke-linejoin:miter;stroke-opacity:1"
         id="path3704" />
      <path
         d="M 181.09714,371.29394 C 181.09714,371.29394 182.44479,339.75887 182.71432,336.79403 C 182.98385,333.8292 183.52291,332.21201 183.52291,332.21201 L 188.37446,333.29013 C 189.43898,346.36826 186.21498,359.06616 187.29634,372.10253 L 181.09714,371.29394 z "
         style="fill:#ffcd50;fill-opacity:1;fill-rule:evenodd;stroke:none;stroke-width:1px;stroke-linecap:butt;stroke-linejoin:miter;stroke-opacity:1"
         id="path3706" />
      <path
         d="M 87.570047,357.81741 L 87.300516,361.86037 L 177.59324,368.86816 L 178.1323,364.82521 C 178.1323,364.82521 95.92549,358.08694 87.570047,357.81741 z "
         style="fill:#ffcd50;fill-opacity:1;fill-rule:evenodd;stroke:none;stroke-width:1px;stroke-linecap:butt;stroke-linejoin:miter;stroke-opacity:1"
         id="path3708" />
      <path
         d="M 92.15207,337.33309 L 99.96845,344.61042 L 110.21061,338.68075 L 92.15207,337.33309 z "
         style="fill:#ffcd50;fill-opacity:1;fill-rule:evenodd;stroke:none;stroke-width:1px;stroke-linecap:butt;stroke-linejoin:miter;stroke-opacity:1"
         id="path3710" />
      <path
         d="M 97.00361,346.2276 L 88.648169,353.23539 L 89.18723,339.48934 L 97.00361,346.2276 z "
         style="fill:#ffcd50;fill-opacity:1;fill-rule:evenodd;stroke:none;stroke-width:1px;stroke-linecap:butt;stroke-linejoin:miter;stroke-opacity:1"
         id="path3712" />
      <path
         d="M 90.53488,355.12211 L 99.42939,348.9229 L 105.89812,356.46976 L 90.53488,355.12211 z "
         style="fill:#ffcd50;fill-opacity:1;fill-rule:evenodd;stroke:none;stroke-width:1px;stroke-linecap:butt;stroke-linejoin:miter;stroke-opacity:1"
         id="path3714" />
      <path
         d="M 108.59343,354.85258 L 101.85516,347.30572 L 109.94108,341.64558 L 108.59343,354.85258 z "
         style="fill:#ffcd50;fill-opacity:1;fill-rule:evenodd;stroke:none;stroke-width:1px;stroke-linecap:butt;stroke-linejoin:miter;stroke-opacity:1"
         id="path3716" />
      <path
         d="M 113.88722,355.84696 L 114.35039,340.49157 L 122.22173,349.26832 L 113.88722,355.84696 z "
         style="fill:#ffcd50;fill-opacity:1;fill-rule:evenodd;stroke:none;stroke-width:1px;stroke-linecap:butt;stroke-linejoin:miter;stroke-opacity:1"
         id="path3718" />
      <path
         d="M 116.40981,357.27835 L 124.10845,351.4455 L 131.828,358.35647 L 116.40981,357.27835 z "
         style="fill:#ffcd50;fill-opacity:1;fill-rule:evenodd;stroke:none;stroke-width:1px;stroke-linecap:butt;stroke-linejoin:miter;stroke-opacity:1"
         id="path3720" />
      <path
         d="M 124.76526,347.57525 L 132.58164,340.83699 L 117.2184,339.48934 L 124.76526,347.57525 z "
         style="fill:#ffcd50;fill-opacity:1;fill-rule:evenodd;stroke:none;stroke-width:1px;stroke-linecap:butt;stroke-linejoin:miter;stroke-opacity:1"
         id="path3722" />
      <path
         d="M 126.94243,349.80739 L 134.46836,342.7237 L 134.10201,356.35201 L 126.94243,349.80739 z "
         style="fill:#ffcd50;fill-opacity:1;fill-rule:evenodd;stroke:none;stroke-width:1px;stroke-linecap:butt;stroke-linejoin:miter;stroke-opacity:1"
         id="path3724" />
      <path
         d="M 139.31991,344.07136 L 138.78084,356.20023 L 144.98005,350.80962 L 139.31991,344.07136 z "
         style="fill:#ffcd50;fill-opacity:1;fill-rule:evenodd;stroke:none;stroke-width:1px;stroke-linecap:butt;stroke-linejoin:miter;stroke-opacity:1"
         id="path3726" />
      <path
         d="M 142.01521,341.91511 L 147.5576,348.72926 L 154.68315,343.26276 L 142.01521,341.91511 z "
         style="fill:#ffcd50;fill-opacity:1;fill-rule:evenodd;stroke:none;stroke-width:1px;stroke-linecap:butt;stroke-linejoin:miter;stroke-opacity:1"
         id="path3728" />
      <path
         d="M 150.10113,350.27056 L 157.10892,344.87995 L 157.37845,359.16506 L 150.10113,350.27056 z "
         style="fill:#ffcd50;fill-opacity:1;fill-rule:evenodd;stroke:none;stroke-width:1px;stroke-linecap:butt;stroke-linejoin:miter;stroke-opacity:1"
         id="path3730" />
      <path
         d="M 147.40582,352.69633 L 140.1285,359.16506 L 154.14408,360.51272 L 147.40582,352.69633 z "
         style="fill:#ffcd50;fill-opacity:1;fill-rule:evenodd;stroke:none;stroke-width:1px;stroke-linecap:butt;stroke-linejoin:miter;stroke-opacity:1"
         id="path3732" />
      <path
         d="M 161.20683,346.32442 L 161.28272,358.35647 L 167.6965,353.31128 L 161.20683,346.32442 z "
         style="fill:#ffcd50;fill-opacity:1;fill-rule:evenodd;stroke:none;stroke-width:1px;stroke-linecap:butt;stroke-linejoin:miter;stroke-opacity:1"
         id="path3734" />
      <path
         d="M 163.03859,343.80182 L 169.50732,350.65784 L 177.59324,343.53229 L 163.03859,343.80182 z "
         style="fill:#ffcd50;fill-opacity:1;fill-rule:evenodd;stroke:none;stroke-width:1px;stroke-linecap:butt;stroke-linejoin:miter;stroke-opacity:1"
         id="path3736" />
      <path
         d="M 178.03548,347.49936 L 171.24226,353.48399 L 177.59324,360.78225 L 178.03548,347.49936 z "
         style="fill:#ffcd50;fill-opacity:1;fill-rule:evenodd;stroke:none;stroke-width:1px;stroke-linecap:butt;stroke-linejoin:miter;stroke-opacity:1"
         id="path3738" />
      <path
         d="M 168.96826,355.39164 L 162.61728,360.78225 L 175.16746,361.32131 L 168.96826,355.39164 z "
         style="fill:#ffcd50;fill-opacity:1;fill-rule:evenodd;stroke:none;stroke-width:1px;stroke-linecap:butt;stroke-linejoin:miter;stroke-opacity:1"
         id="path3740" />
      <path
         d="M 414.24634,362.33257 L 421.10747,363.47609 L 421.10747,401.59347 L 416.62587,402.29041 L 414.24634,362.33257 z "
         style="fill:#ffcd50;fill-opacity:1;fill-rule:evenodd;stroke:none;stroke-width:1px;stroke-linecap:butt;stroke-linejoin:miter;stroke-opacity:1"
         id="path3839" />
      <path
         d="M 425.30038,367.28783 L 425.30038,371.09957 L 555.66179,374.14896 L 555.66179,369.1937 L 425.30038,367.28783 z "
         style="fill:#ffcd50;fill-opacity:1;fill-rule:evenodd;stroke:none;stroke-width:1px;stroke-linecap:butt;stroke-linejoin:miter;stroke-opacity:1"
         id="path3841" />
      <path
         d="M 424.9192,394.73234 L 424.9192,399.30642 C 424.9192,399.30642 505.34686,400.06877 525.93024,400.83112 C 546.51362,401.59347 556.80531,402.35581 556.80531,402.35581 L 556.80531,397.01938 C 556.80531,397.01938 482.47643,394.35117 424.9192,394.73234 z "
         style="fill:#ffcd50;fill-opacity:1;fill-rule:evenodd;stroke:none;stroke-width:1px;stroke-linecap:butt;stroke-linejoin:miter;stroke-opacity:1"
         id="path3843" />
      <path
         d="M 424.53803,374.53013 L 425.30038,391.68295 L 432.30453,391.51024 L 432.6857,374.53013 L 424.53803,374.53013 z "
         style="fill:#ffcd50;fill-opacity:1;fill-rule:evenodd;stroke:none;stroke-width:1px;stroke-linecap:butt;stroke-linejoin:miter;stroke-opacity:1"
         id="path3845" />
      <path
         d="M 546.5433,376.98988 L 546.40635,393.96999 L 555.66179,393.96999 L 555.66179,377.19835 L 546.5433,376.98988 z "
         style="fill:#ffcd50;fill-opacity:1;fill-rule:evenodd;stroke:none;stroke-width:1px;stroke-linecap:butt;stroke-linejoin:miter;stroke-opacity:1"
         id="path3847" />
      <path
         d="M 436.35442,377.19835 L 436.35442,389.39591 L 443.97789,382.91595 L 436.35442,377.19835 z "
         style="fill:#ffcd50;fill-opacity:1;fill-rule:evenodd;stroke:none;stroke-width:1px;stroke-linecap:butt;stroke-linejoin:miter;stroke-opacity:1"
         id="path3849" />
      <path
         d="M 440.54733,374.53013 L 447.78963,380.62891 L 456.17545,374.53013 L 440.54733,374.53013 z "
         style="fill:#ffcd50;fill-opacity:1;fill-rule:evenodd;stroke:none;stroke-width:1px;stroke-linecap:butt;stroke-linejoin:miter;stroke-opacity:1"
         id="path3851" />
      <path
         d="M 447.02728,384.44065 L 439.40381,391.30178 L 456.55662,392.82647 L 447.02728,384.44065 z "
         style="fill:#ffcd50;fill-opacity:1;fill-rule:evenodd;stroke:none;stroke-width:1px;stroke-linecap:butt;stroke-linejoin:miter;stroke-opacity:1"
         id="path3853" />
      <path
         d="M 451.60136,383.29713 L 459.22484,376.81717 L 459.60601,390.9206 L 451.60136,383.29713 z "
         style="fill:#ffcd50;fill-opacity:1;fill-rule:evenodd;stroke:none;stroke-width:1px;stroke-linecap:butt;stroke-linejoin:miter;stroke-opacity:1"
         id="path3855" />
      <path
         d="M 463.03658,378.34187 L 463.41775,390.53943 L 471.80357,384.05948 L 463.03658,378.34187 z "
         style="fill:#ffcd50;fill-opacity:1;fill-rule:evenodd;stroke:none;stroke-width:1px;stroke-linecap:butt;stroke-linejoin:miter;stroke-opacity:1"
         id="path3857" />
      <path
         d="M 466.08596,375.67365 L 474.47179,381.77243 L 483.61996,375.29248 L 466.08596,375.67365 z "
         style="fill:#ffcd50;fill-opacity:1;fill-rule:evenodd;stroke:none;stroke-width:1px;stroke-linecap:butt;stroke-linejoin:miter;stroke-opacity:1"
         id="path3859" />
      <path
         d="M 474.47179,385.58417 L 467.99183,391.68295 L 482.09526,391.68295 L 474.47179,385.58417 z "
         style="fill:#ffcd50;fill-opacity:1;fill-rule:evenodd;stroke:none;stroke-width:1px;stroke-linecap:butt;stroke-linejoin:miter;stroke-opacity:1"
         id="path3861" />
      <path
         d="M 478.6647,383.6783 L 486.28817,377.19835 L 485.907,389.77708 L 478.6647,383.6783 z "
         style="fill:#ffcd50;fill-opacity:1;fill-rule:evenodd;stroke:none;stroke-width:1px;stroke-linecap:butt;stroke-linejoin:miter;stroke-opacity:1"
         id="path3863" />
      <path
         d="M 491.24343,378.34187 L 491.6246,390.15825 L 498.8669,384.82182 L 491.24343,378.34187 z "
         style="fill:#ffcd50;fill-opacity:1;fill-rule:evenodd;stroke:none;stroke-width:1px;stroke-linecap:butt;stroke-linejoin:miter;stroke-opacity:1"
         id="path3865" />
      <path
         d="M 493.91165,376.05483 L 501.91629,382.91595 L 511.06446,376.436 L 493.91165,376.05483 z "
         style="fill:#ffcd50;fill-opacity:1;fill-rule:evenodd;stroke:none;stroke-width:1px;stroke-linecap:butt;stroke-linejoin:miter;stroke-opacity:1"
         id="path3867" />
      <path
         d="M 501.91629,386.34652 L 495.05517,391.68295 L 509.15859,392.82647 L 501.91629,386.34652 z "
         style="fill:#ffcd50;fill-opacity:1;fill-rule:evenodd;stroke:none;stroke-width:1px;stroke-linecap:butt;stroke-linejoin:miter;stroke-opacity:1"
         id="path3869" />
      <path
         d="M 505.34686,385.58417 L 513.3515,378.34187 L 513.73268,390.9206 L 505.34686,385.58417 z "
         style="fill:#ffcd50;fill-opacity:1;fill-rule:evenodd;stroke:none;stroke-width:1px;stroke-linecap:butt;stroke-linejoin:miter;stroke-opacity:1"
         id="path3871" />
      <path
         d="M 517.16324,379.48539 L 517.54442,390.9206 L 525.93024,384.82182 L 517.16324,379.48539 z "
         style="fill:#ffcd50;fill-opacity:1;fill-rule:evenodd;stroke:none;stroke-width:1px;stroke-linecap:butt;stroke-linejoin:miter;stroke-opacity:1"
         id="path3873" />
      <path
         d="M 521.73733,377.19835 L 529.74197,382.53478 L 537.36545,377.19835 L 521.73733,377.19835 z "
         style="fill:#ffcd50;fill-opacity:1;fill-rule:evenodd;stroke:none;stroke-width:1px;stroke-linecap:butt;stroke-linejoin:miter;stroke-opacity:1"
         id="path3875" />
      <path
         d="M 529.74197,386.34652 L 522.01731,392.82647 L 538.05629,393.20764 L 529.74197,386.34652 z "
         style="fill:#ffcd50;fill-opacity:1;fill-rule:evenodd;stroke:none;stroke-width:1px;stroke-linecap:butt;stroke-linejoin:miter;stroke-opacity:1"
         id="path3877" />
      <path
         d="M 533.17254,384.82182 L 541.93953,378.34187 L 541.93953,391.30178 L 533.17254,384.82182 z "
         style="fill:#ffcd50;fill-opacity:1;fill-rule:evenodd;stroke:none;stroke-width:1px;stroke-linecap:butt;stroke-linejoin:miter;stroke-opacity:1"
         id="path3879" />
      <path
         d="M 559.09235,366.52548 L 559.8547,404.64286 L 566.93911,404.48497 L 566.78123,366.3022 L 559.09235,366.52548 z "
         style="fill:#ffcd50;fill-opacity:1;fill-rule:evenodd;stroke:none;stroke-width:1px;stroke-linecap:butt;stroke-linejoin:miter;stroke-opacity:1"
         id="path3881" />
      <path
         d="M 172.96338,374.14896 C 172.96338,374.14896 195.07146,415.69689 214.89249,436.28027 C 234.71352,456.86365 250.34164,471.72943 281.97906,480.11525 C 313.61648,488.50107 339.53629,484.30816 361.64437,477.82821 C 383.75244,471.34825 407.38521,453.43309 423.77568,431.70619 C 440.16615,409.97929 440.54733,403.88051 440.54733,403.88051 L 424.9192,403.88051 L 424.9192,407.31107 L 418.43925,407.31107 C 418.43925,407.31107 394.42531,441.99787 359.35733,454.57661 C 324.28935,467.15534 295.18244,460.37792 281.59789,456.10131 C 261.0145,449.62135 240.06881,440.37357 218.70423,421.79567 C 201.17024,406.54872 184.39859,376.81717 184.39859,376.81717 L 178.29981,375.67365 L 176.01277,373.76778 L 172.96338,374.14896 z "
         style="fill:#ffcd50;fill-opacity:1;fill-rule:evenodd;stroke:none;stroke-width:1px;stroke-linecap:butt;stroke-linejoin:miter;stroke-opacity:1"
         id="path3885" />
      <path
         d="M 164.19639,372.62426 L 169.15164,373.76778 C 169.15164,373.76778 191.64089,419.12746 216.41718,442.76023 C 241.19348,466.393 259.48981,477.82821 289.98371,485.45168 C 320.47761,493.07516 350.20916,486.21403 374.98545,476.30351 C 399.76174,466.393 417.29573,446.95314 427.58742,432.84971 C 437.87911,418.74628 445.50258,403.88051 445.50258,403.88051 L 471.04122,403.88051 C 471.04122,403.88051 459.98719,448.09666 429.11211,476.30351 C 398.23704,504.51037 356.68911,515.18323 328.48226,516.32675 C 300.2754,517.47027 267.49446,513.27736 248.43578,501.84215 C 229.37709,490.40694 205.74432,469.06121 192.40324,442.37905 C 169.91399,397.40055 164.57756,373.76778 164.19639,372.62426 z "
         style="fill:#ffcd50;fill-opacity:1;fill-rule:evenodd;stroke:none;stroke-width:1px;stroke-linecap:butt;stroke-linejoin:miter;stroke-opacity:1"
         id="path3887" />
      <path
         d="M 159.80422,372.37206 L 154.68315,371.833 C 154.68315,371.833 161.96047,408.21962 173.01122,434.63361 C 184.06197,461.0476 203.7377,508.48497 240.93291,527.35211 C 278.12812,546.21924 312.62803,548.10596 339.58108,549.18408 C 366.53413,550.2622 395.64343,541.36769 417.4754,529.50835 C 439.30737,517.64901 468.95573,492.04361 487.82286,458.35229 C 506.69,424.66098 509.92436,403.90713 509.92436,403.90713 L 474.61587,404.44619 C 474.61587,404.44619 462.75652,444.87577 437.95972,472.63741 C 413.16291,500.39905 358.98728,518.99666 334.72953,520.34431 C 310.47178,521.69197 285.30477,518.85831 261.68676,511.4498 C 244.25569,505.98202 208.85878,481.53191 192.41742,448.37967 C 174.42274,412.09532 160.34329,372.91112 159.80422,372.37206 z "
         style="fill:#ffcd50;fill-opacity:1;fill-rule:evenodd;stroke:none;stroke-width:1px;stroke-linecap:butt;stroke-linejoin:miter;stroke-opacity:1"
         id="path3889" />
      <path
         d="M 152.5269,372.37206 L 147.94488,371.29394 C 147.94488,371.29394 155.49174,421.42661 172.20263,458.08276 C 188.91352,494.73891 207.51113,529.77788 227.45638,543.79347 C 247.40164,557.80905 256.02662,563.4692 286.21404,569.6684 C 316.40145,575.8676 349.28418,574.25042 363.29976,573.44182 C 377.31535,572.63323 410.73714,563.19966 427.44803,554.03563 C 444.15892,544.87159 464.37371,534.3599 487.82286,508.7545 C 511.27202,483.1491 526.63526,449.45779 533.64305,430.59065 C 540.65084,411.72351 539.57272,405.52431 539.57272,405.52431 L 514.77591,404.44619 C 514.77591,404.44619 502.10798,441.10234 493.21347,456.46558 C 484.31897,471.82882 459.79169,505.2506 441.73314,518.18807 C 423.6746,531.12553 399.95591,544.063 376.23723,549.18408 C 352.51854,554.30516 311.81944,552.41844 292.41324,548.37549 C 273.00704,544.33253 247.40164,534.62943 236.88995,528.96929 C 226.37826,523.30915 199.69474,497.97328 190.26117,478.83661 C 180.82761,459.69995 171.12451,437.59844 165.7339,421.15708 C 160.34329,404.71572 153.33549,372.64159 152.5269,372.37206 z "
         style="fill:#ffcd50;fill-opacity:1;fill-rule:evenodd;stroke:none;stroke-width:1px;stroke-linecap:butt;stroke-linejoin:miter;stroke-opacity:1"
         id="path3891" />
      <path
         d="M 144.98005,371.29394 L 138.78084,370.48535 C 138.78084,370.48535 146.86676,411.45398 151.71831,427.35628 C 156.56986,443.25859 169.77685,477.21943 174.6284,488.53971 C 179.47995,499.85999 189.72211,524.92633 206.70253,544.87159 C 223.68296,564.81685 242.01103,580.98868 265.19066,587.99647 C 288.37028,595.00427 336.88577,595.00427 353.0576,593.92614 C 369.22944,592.84802 400.49498,587.99647 421.24883,580.98868 C 442.00267,573.98089 473.53775,556.4614 493.75253,536.24661 C 513.96732,516.03182 513.96732,516.03182 513.96732,516.03182 C 513.96732,516.03182 527.17432,471.02023 527.71338,464.01243 C 528.25244,457.00464 529.60009,449.72732 529.60009,449.72732 C 529.60009,449.72732 510.73296,488.00065 495.90878,504.98107 C 481.0846,521.9615 458.17451,541.63722 435.26441,553.22704 C 412.35432,564.81685 374.88958,575.8676 357.10056,577.48478 C 339.31155,579.10197 275.16329,573.17229 257.91333,565.62544 C 240.66338,558.07858 217.48376,541.63722 206.433,526.27398 C 195.38225,510.91074 176.09429,475.92741 168.4292,454.84839 C 153.33549,413.34069 144.71052,370.75488 144.98005,371.29394 z "
         style="fill:#ffcd50;fill-opacity:1;fill-rule:evenodd;stroke:none;stroke-width:1px;stroke-linecap:butt;stroke-linejoin:miter;stroke-opacity:1"
         id="path3893" />
    </g>
    <g
       id="Cirklar">
      <g
         style="fill:#003d8f;fill-opacity:1"
         id="Ytter-cirklar">
        <path
           d="M 340.00696 466.58704 A 5.336432 5.4317255 0 1 1  329.3341,466.58704 A 5.336432 5.4317255 0 1 1  340.00696 466.58704 z"
           transform="translate(-11.14352,5.8095)"
           style="fill:#003d8f;fill-opacity:1;stroke:none;stroke-width:2;stroke-miterlimit:4;stroke-dasharray:none;stroke-opacity:1"
           id="path4864" />
        <path
           d="M 340.76931 496.12799 A 6.7658334 6.7658334 0 1 1  327.23765,496.12799 A 6.7658334 6.7658334 0 1 1  340.76931 496.12799 z"
           transform="translate(-10,6)"
           style="fill:#003d8f;fill-opacity:1;stroke:none;stroke-width:2;stroke-miterlimit:4;stroke-dasharray:none;stroke-opacity:1"
           id="path4866" />
        <path
           d="M 341.34105 528.71832 A 6.1940727 6.5752463 0 1 1  328.9529,528.71832 A 6.1940727 6.5752463 0 1 1  341.34105 528.71832 z"
           transform="translate(-10,6)"
           style="fill:#003d8f;fill-opacity:1;stroke:none;stroke-width:2;stroke-miterlimit:4;stroke-dasharray:none;stroke-opacity:1"
           id="path4868" />
        <path
           d="M 340.19755 555.97229 A 5.527019 5.6223121 0 1 1  329.14351,555.97229 A 5.527019 5.6223121 0 1 1  340.19755 555.97229 z"
           transform="translate(-10,6)"
           style="fill:#003d8f;fill-opacity:1;stroke:none;stroke-width:2;stroke-miterlimit:4;stroke-dasharray:none;stroke-opacity:1"
           id="path4870" />
        <path
           d="M 340.5787 579.22388 A 5.4317255 5.4317255 0 1 1  329.71525,579.22388 A 5.4317255 5.4317255 0 1 1  340.5787 579.22388 z"
           transform="translate(-10,6)"
           style="fill:#003d8f;fill-opacity:1;stroke:none;stroke-width:2;stroke-miterlimit:4;stroke-dasharray:none;stroke-opacity:1"
           id="path4872" />
        <path
           d="M 340.5787 579.22388 A 5.4317255 5.4317255 0 1 1  329.71525,579.22388 A 5.4317255 5.4317255 0 1 1  340.5787 579.22388 z"
           transform="translate(53.21913,-0.661)"
           style="fill:#003d8f;fill-opacity:1;stroke:none;stroke-width:2;stroke-miterlimit:4;stroke-dasharray:none;stroke-opacity:1"
           id="path6822" />
        <path
           d="M 340.5787 579.22388 A 5.4317255 5.4317255 0 1 1  329.71525,579.22388 A 5.4317255 5.4317255 0 1 1  340.5787 579.22388 z"
           transform="translate(-74.53834,-4.4344)"
           style="fill:#003d8f;fill-opacity:1;stroke:none;stroke-width:2;stroke-miterlimit:4;stroke-dasharray:none;stroke-opacity:1"
           id="path6826" />
        <path
           d="M 340.5787 579.22388 A 5.4317255 5.4317255 0 1 1  329.71525,579.22388 A 5.4317255 5.4317255 0 1 1  340.5787 579.22388 z"
           transform="translate(-68.0696,-27.075)"
           style="fill:#003d8f;fill-opacity:1;stroke:none;stroke-width:2;stroke-miterlimit:4;stroke-dasharray:none;stroke-opacity:1"
           id="path6830" />
        <path
           d="M 340.5787 579.22388 A 5.4317255 5.4317255 0 1 1  329.71525,579.22388 A 5.4317255 5.4317255 0 1 1  340.5787 579.22388 z"
           transform="translate(46.21134,-21.1453)"
           style="fill:#003d8f;fill-opacity:1;stroke:none;stroke-width:2;stroke-miterlimit:4;stroke-dasharray:none;stroke-opacity:1"
           id="path6834" />
        <path
           d="M 340.5787 579.22388 A 5.4317255 5.4317255 0 1 1  329.71525,579.22388 A 5.4317255 5.4317255 0 1 1  340.5787 579.22388 z"
           transform="translate(37.58636,-50.2546)"
           style="fill:#003d8f;fill-opacity:1;stroke:none;stroke-width:2;stroke-miterlimit:4;stroke-dasharray:none;stroke-opacity:1"
           id="path6838" />
        <path
           d="M 340.5787 579.22388 A 5.4317255 5.4317255 0 1 1  329.71525,579.22388 A 5.4317255 5.4317255 0 1 1  340.5787 579.22388 z"
           transform="translate(-61.06181,-52.9499)"
           style="fill:#003d8f;fill-opacity:1;stroke:none;stroke-width:2;stroke-miterlimit:4;stroke-dasharray:none;stroke-opacity:1"
           id="path6842" />
        <path
           d="M 340.5787 579.22388 A 5.4317255 5.4317255 0 1 1  329.71525,579.22388 A 5.4317255 5.4317255 0 1 1  340.5787 579.22388 z"
           transform="translate(-53.51496,-82.0592)"
           style="fill:#003d8f;fill-opacity:1;stroke:none;stroke-width:2;stroke-miterlimit:4;stroke-dasharray:none;stroke-opacity:1"
           id="path6846" />
        <path
           d="M 340.5787 579.22388 A 5.4317255 5.4317255 0 1 1  329.71525,579.22388 A 5.4317255 5.4317255 0 1 1  340.5787 579.22388 z"
           transform="translate(-46.50716,-109.5513)"
           style="fill:#003d8f;fill-opacity:1;stroke:none;stroke-width:2;stroke-miterlimit:4;stroke-dasharray:none;stroke-opacity:1"
           id="path6850" />
        <path
           d="M 340.5787 579.22388 A 5.4317255 5.4317255 0 1 1  329.71525,579.22388 A 5.4317255 5.4317255 0 1 1  340.5787 579.22388 z"
           transform="translate(28.96138,-83.1373)"
           style="fill:#003d8f;fill-opacity:1;stroke:none;stroke-width:2;stroke-miterlimit:4;stroke-dasharray:none;stroke-opacity:1"
           id="path6854" />
        <path
           d="M 340.5787 579.22388 A 5.4317255 5.4317255 0 1 1  329.71525,579.22388 A 5.4317255 5.4317255 0 1 1  340.5787 579.22388 z"
           transform="translate(20.87547,-112.2466)"
           style="fill:#003d8f;fill-opacity:1;stroke:none;stroke-width:2;stroke-miterlimit:4;stroke-dasharray:none;stroke-opacity:1"
           id="path6858" />
        <path
           d="M 340.5787 579.22388 A 5.4317255 5.4317255 0 1 1  329.71525,579.22388 A 5.4317255 5.4317255 0 1 1  340.5787 579.22388 z"
           transform="translate(123.2971,-29.7703)"
           style="fill:#003d8f;fill-opacity:1;stroke:none;stroke-width:2;stroke-miterlimit:4;stroke-dasharray:none;stroke-opacity:1"
           id="path6862" />
        <path
           d="M 340.5787 579.22388 A 5.4317255 5.4317255 0 1 1  329.71525,579.22388 A 5.4317255 5.4317255 0 1 1  340.5787 579.22388 z"
           transform="translate(110.3596,-49.1765)"
           style="fill:#003d8f;fill-opacity:1;stroke:none;stroke-width:2;stroke-miterlimit:4;stroke-dasharray:none;stroke-opacity:1"
           id="path6866" />
        <path
           d="M 340.5787 579.22388 A 5.4317255 5.4317255 0 1 1  329.71525,579.22388 A 5.4317255 5.4317255 0 1 1  340.5787 579.22388 z"
           transform="translate(92.03152,-76.6686)"
           style="fill:#003d8f;fill-opacity:1;stroke:none;stroke-width:2;stroke-miterlimit:4;stroke-dasharray:none;stroke-opacity:1"
           id="path6870" />
        <path
           d="M 340.5787 579.22388 A 5.4317255 5.4317255 0 1 1  329.71525,579.22388 A 5.4317255 5.4317255 0 1 1  340.5787 579.22388 z"
           transform="translate(72.08627,-104.1607)"
           style="fill:#003d8f;fill-opacity:1;stroke:none;stroke-width:2;stroke-miterlimit:4;stroke-dasharray:none;stroke-opacity:1"
           id="path6874" />
        <path
           d="M 340.5787 579.22388 A 5.4317255 5.4317255 0 1 1  329.71525,579.22388 A 5.4317255 5.4317255 0 1 1  340.5787 579.22388 z"
           transform="translate(53.21913,-127.3403)"
           style="fill:#003d8f;fill-opacity:1;stroke:none;stroke-width:2;stroke-miterlimit:4;stroke-dasharray:none;stroke-opacity:1"
           id="path6878" />
        <path
           d="M 340.5787 579.22388 A 5.4317255 5.4317255 0 1 1  329.71525,579.22388 A 5.4317255 5.4317255 0 1 1  340.5787 579.22388 z"
           transform="translate(-77.7727,-120.8716)"
           style="fill:#003d8f;fill-opacity:1;stroke:none;stroke-width:2;stroke-miterlimit:4;stroke-dasharray:none;stroke-opacity:1"
           id="path6882" />
        <path
           d="M 340.5787 579.22388 A 5.4317255 5.4317255 0 1 1  329.71525,579.22388 A 5.4317255 5.4317255 0 1 1  340.5787 579.22388 z"
           transform="translate(-91.2492,-98.7701)"
           style="fill:#003d8f;fill-opacity:1;stroke:none;stroke-width:2;stroke-miterlimit:4;stroke-dasharray:none;stroke-opacity:1"
           id="path6886" />
        <path
           d="M 340.5787 579.22388 A 5.4317255 5.4317255 0 1 1  329.71525,579.22388 A 5.4317255 5.4317255 0 1 1  340.5787 579.22388 z"
           transform="translate(-105.2648,-75.5905)"
           style="fill:#003d8f;fill-opacity:1;stroke:none;stroke-width:2;stroke-miterlimit:4;stroke-dasharray:none;stroke-opacity:1"
           id="path6890" />
        <path
           d="M 340.5787 579.22388 A 5.4317255 5.4317255 0 1 1  329.71525,579.22388 A 5.4317255 5.4317255 0 1 1  340.5787 579.22388 z"
           transform="translate(103.3518,-139.1997)"
           style="fill:#003d8f;fill-opacity:1;stroke:none;stroke-width:2;stroke-miterlimit:4;stroke-dasharray:none;stroke-opacity:1"
           id="path6894" />
        <path
           d="M 340.5787 579.22388 A 5.4317255 5.4317255 0 1 1  329.71525,579.22388 A 5.4317255 5.4317255 0 1 1  340.5787 579.22388 z"
           transform="translate(133.0002,-122.4888)"
           style="fill:#003d8f;fill-opacity:1;stroke:none;stroke-width:2;stroke-miterlimit:4;stroke-dasharray:none;stroke-opacity:1"
           id="path6898" />
        <path
           d="M 340.5787 579.22388 A 5.4317255 5.4317255 0 1 1  329.71525,579.22388 A 5.4317255 5.4317255 0 1 1  340.5787 579.22388 z"
           transform="translate(163.7266,-105.2388)"
           style="fill:#003d8f;fill-opacity:1;stroke:none;stroke-width:2;stroke-miterlimit:4;stroke-dasharray:none;stroke-opacity:1"
           id="path6906" />
        <path
           d="M 340.5787 579.22388 A 5.4317255 5.4317255 0 1 1  329.71525,579.22388 A 5.4317255 5.4317255 0 1 1  340.5787 579.22388 z"
           transform="matrix(0.842105,0,0,0.842105,234.2672,0.4477)"
           style="fill:#003d8f;fill-opacity:1;stroke:none;stroke-width:2;stroke-miterlimit:4;stroke-dasharray:none;stroke-opacity:1"
           id="path6910" />
        <path
           d="M 340.5787 579.22388 A 5.4317255 5.4317255 0 1 1  329.71525,579.22388 A 5.4317255 5.4317255 0 1 1  340.5787 579.22388 z"
           transform="matrix(0.842105,0,0,0.842105,131.4455,-60.6354)"
           style="fill:#003d8f;fill-opacity:1;stroke:none;stroke-width:2;stroke-miterlimit:4;stroke-dasharray:none;stroke-opacity:1"
           id="path6914" />
        <path
           d="M 340.5787 579.22388 A 5.4317255 5.4317255 0 1 1  329.71525,579.22388 A 5.4317255 5.4317255 0 1 1  340.5787 579.22388 z"
           transform="matrix(0.842105,0,0,0.842105,-50.7555,-45.3884)"
           style="fill:#003d8f;fill-opacity:1;stroke:none;stroke-width:2;stroke-miterlimit:4;stroke-dasharray:none;stroke-opacity:1"
           id="path6918" />
        <path
           d="M 340.5787 579.22388 A 5.4317255 5.4317255 0 1 1  329.71525,579.22388 A 5.4317255 5.4317255 0 1 1  340.5787 579.22388 z"
           transform="matrix(0.842105,0,0,0.842105,-68.28949,-34.9062)"
           style="fill:#003d8f;fill-opacity:1;stroke:none;stroke-width:2;stroke-miterlimit:4;stroke-dasharray:none;stroke-opacity:1"
           id="path6922" />
        <path
           d="M 340.5787 579.22388 A 5.4317255 5.4317255 0 1 1  329.71525,579.22388 A 5.4317255 5.4317255 0 1 1  340.5787 579.22388 z"
           transform="matrix(0.842105,0,0,0.842105,-86.967,-21.3745)"
           style="fill:#003d8f;fill-opacity:1;stroke:none;stroke-width:2;stroke-miterlimit:4;stroke-dasharray:none;stroke-opacity:1"
           id="path6926" />
        <path
           d="M 340.5787 579.22388 A 5.4317255 5.4317255 0 1 1  329.71525,579.22388 A 5.4317255 5.4317255 0 1 1  340.5787 579.22388 z"
           transform="matrix(0.631579,0,0,0.614035,-8.4051,57.8413)"
           style="fill:#003d8f;fill-opacity:1;stroke:none;stroke-width:2;stroke-miterlimit:4;stroke-dasharray:none;stroke-opacity:1"
           id="path6930" />
        <path
           d="M 340.5787 579.22388 A 5.4317255 5.4317255 0 1 1  329.71525,579.22388 A 5.4317255 5.4317255 0 1 1  340.5787 579.22388 z"
           transform="matrix(0.631579,0,0,0.614035,-24.03322,62.1296)"
           style="fill:#003d8f;fill-opacity:1;stroke:none;stroke-width:2;stroke-miterlimit:4;stroke-dasharray:none;stroke-opacity:1"
           id="path6938" />
        <path
           d="M 340.5787 579.22388 A 5.4317255 5.4317255 0 1 1  329.71525,579.22388 A 5.4317255 5.4317255 0 1 1  340.5787 579.22388 z"
           transform="matrix(0.631579,0,0,0.614035,-27.65437,118.7339)"
           style="fill:#003d8f;fill-opacity:1;stroke:none;stroke-width:2;stroke-miterlimit:4;stroke-dasharray:none;stroke-opacity:1"
           id="path6942" />
        <path
           d="M 340.5787 579.22388 A 5.4317255 5.4317255 0 1 1  329.71525,579.22388 A 5.4317255 5.4317255 0 1 1  340.5787 579.22388 z"
           transform="matrix(0.631579,0,0,0.614035,-38.70841,66.1319)"
           style="fill:#003d8f;fill-opacity:1;stroke:none;stroke-width:2;stroke-miterlimit:4;stroke-dasharray:none;stroke-opacity:1"
           id="path6950" />
        <path
           d="M 340.5787 579.22388 A 5.4317255 5.4317255 0 1 1  329.71525,579.22388 A 5.4317255 5.4317255 0 1 1  340.5787 579.22388 z"
           transform="matrix(0.77193,0,0,0.77193,-40.38691,75.7818)"
           style="fill:#003d8f;fill-opacity:1;stroke:none;stroke-width:2;stroke-miterlimit:4;stroke-dasharray:none;stroke-opacity:1"
           id="path6954" />
        <path
           d="M 340.5787 579.22388 A 5.4317255 5.4317255 0 1 1  329.71525,579.22388 A 5.4317255 5.4317255 0 1 1  340.5787 579.22388 z"
           transform="matrix(0.719298,0,0,0.701754,-32.7534,130.9137)"
           style="fill:#003d8f;fill-opacity:1;stroke:none;stroke-width:2;stroke-miterlimit:4;stroke-dasharray:none;stroke-opacity:1"
           id="path6958" />
      </g>
      <g
         style="fill:#ffcd50;fill-opacity:1"
         id="Inner-cirklar">
        <path
           d="M 335.83502 466.36783 A 2.2910094 2.6953051 0 1 1  331.253,466.36783 A 2.2910094 2.6953051 0 1 1  335.83502 466.36783 z"
           transform="matrix(1.470588,0,0,1.3,-166.9619,-133.9103)"
           style="fill:#ffcd50;fill-opacity:1;stroke:none;stroke-width:2;stroke-miterlimit:4;stroke-dasharray:none;stroke-opacity:1"
           id="path5843" />
        <path
           d="M 339.33892 497.63339 A 4.4472537 4.5820189 0 1 1  330.44441,497.63339 A 4.4472537 4.5820189 0 1 1  339.33892 497.63339 z"
           transform="matrix(1.060606,0,0,1.029412,-31.21834,-10.2319)"
           style="fill:#ffcd50;fill-opacity:1;stroke:none;stroke-width:2;stroke-miterlimit:4;stroke-dasharray:none;stroke-opacity:1"
           id="path5845" />
        <path
           d="M 340.14751 529.43799 A 3.9081924 4.3124881 0 1 1  332.33113,529.43799 A 3.9081924 4.3124881 0 1 1  340.14751 529.43799 z"
           transform="matrix(1.068966,0,0,1.0625,-34.26704,-27.8984)"
           style="fill:#ffcd50;fill-opacity:1;stroke:none;stroke-width:2;stroke-miterlimit:4;stroke-dasharray:none;stroke-opacity:1"
           id="path5847" />
        <path
           d="M 340.68657 556.93011 A 4.0429578 4.3124881 0 1 1  332.60066,556.93011 A 4.0429578 4.3124881 0 1 1  340.68657 556.93011 z"
           transform="matrix(0.866667,0,0,0.84375,32.9991,91.8075)"
           style="fill:#ffcd50;fill-opacity:1;stroke:none;stroke-width:2;stroke-miterlimit:4;stroke-dasharray:none;stroke-opacity:1"
           id="path5849" />
        <path
           d="M 338.26079 579.16638 A 3.099601 3.3691316 0 1 1  332.06159,579.16638 A 3.099601 3.3691316 0 1 1  338.26079 579.16638 z"
           transform="translate(-10,6)"
           style="fill:#ffcd50;fill-opacity:1;stroke:none;stroke-width:2;stroke-miterlimit:4;stroke-dasharray:none;stroke-opacity:1"
           id="path5851" />
        <path
           d="M 338.26079 579.16638 A 3.099601 3.3691316 0 1 1  332.06159,579.16638 A 3.099601 3.3691316 0 1 1  338.26079 579.16638 z"
           transform="translate(53.21913,-0.661)"
           style="fill:#ffcd50;fill-opacity:1;stroke:none;stroke-width:2;stroke-miterlimit:4;stroke-dasharray:none;stroke-opacity:1"
           id="path6824" />
        <path
           d="M 338.26079 579.16638 A 3.099601 3.3691316 0 1 1  332.06159,579.16638 A 3.099601 3.3691316 0 1 1  338.26079 579.16638 z"
           transform="translate(-74.53834,-4.4344)"
           style="fill:#ffcd50;fill-opacity:1;stroke:none;stroke-width:2;stroke-miterlimit:4;stroke-dasharray:none;stroke-opacity:1"
           id="path6828" />
        <path
           d="M 338.26079 579.16638 A 3.099601 3.3691316 0 1 1  332.06159,579.16638 A 3.099601 3.3691316 0 1 1  338.26079 579.16638 z"
           transform="translate(-68.0696,-27.075)"
           style="fill:#ffcd50;fill-opacity:1;stroke:none;stroke-width:2;stroke-miterlimit:4;stroke-dasharray:none;stroke-opacity:1"
           id="path6832" />
        <path
           d="M 338.26079 579.16638 A 3.099601 3.3691316 0 1 1  332.06159,579.16638 A 3.099601 3.3691316 0 1 1  338.26079 579.16638 z"
           transform="translate(46.21134,-21.1453)"
           style="fill:#ffcd50;fill-opacity:1;stroke:none;stroke-width:2;stroke-miterlimit:4;stroke-dasharray:none;stroke-opacity:1"
           id="path6836" />
        <path
           d="M 338.26079 579.16638 A 3.099601 3.3691316 0 1 1  332.06159,579.16638 A 3.099601 3.3691316 0 1 1  338.26079 579.16638 z"
           transform="translate(37.58636,-50.2546)"
           style="fill:#ffcd50;fill-opacity:1;stroke:none;stroke-width:2;stroke-miterlimit:4;stroke-dasharray:none;stroke-opacity:1"
           id="path6840" />
        <path
           d="M 338.26079 579.16638 A 3.099601 3.3691316 0 1 1  332.06159,579.16638 A 3.099601 3.3691316 0 1 1  338.26079 579.16638 z"
           transform="translate(-61.06181,-52.9499)"
           style="fill:#ffcd50;fill-opacity:1;stroke:none;stroke-width:2;stroke-miterlimit:4;stroke-dasharray:none;stroke-opacity:1"
           id="path6844" />
        <path
           d="M 338.26079 579.16638 A 3.099601 3.3691316 0 1 1  332.06159,579.16638 A 3.099601 3.3691316 0 1 1  338.26079 579.16638 z"
           transform="translate(-53.51496,-82.0592)"
           style="fill:#ffcd50;fill-opacity:1;stroke:none;stroke-width:2;stroke-miterlimit:4;stroke-dasharray:none;stroke-opacity:1"
           id="path6848" />
        <path
           d="M 338.26079 579.16638 A 3.099601 3.3691316 0 1 1  332.06159,579.16638 A 3.099601 3.3691316 0 1 1  338.26079 579.16638 z"
           transform="translate(-46.50716,-109.5513)"
           style="fill:#ffcd50;fill-opacity:1;stroke:none;stroke-width:2;stroke-miterlimit:4;stroke-dasharray:none;stroke-opacity:1"
           id="path6852" />
        <path
           d="M 338.26079 579.16638 A 3.099601 3.3691316 0 1 1  332.06159,579.16638 A 3.099601 3.3691316 0 1 1  338.26079 579.16638 z"
           transform="translate(28.96138,-83.1373)"
           style="fill:#ffcd50;fill-opacity:1;stroke:none;stroke-width:2;stroke-miterlimit:4;stroke-dasharray:none;stroke-opacity:1"
           id="path6856" />
        <path
           d="M 338.26079 579.16638 A 3.099601 3.3691316 0 1 1  332.06159,579.16638 A 3.099601 3.3691316 0 1 1  338.26079 579.16638 z"
           transform="translate(20.87547,-112.2466)"
           style="fill:#ffcd50;fill-opacity:1;stroke:none;stroke-width:2;stroke-miterlimit:4;stroke-dasharray:none;stroke-opacity:1"
           id="path6860" />
        <path
           d="M 338.26079 579.16638 A 3.099601 3.3691316 0 1 1  332.06159,579.16638 A 3.099601 3.3691316 0 1 1  338.26079 579.16638 z"
           transform="translate(123.2971,-29.7703)"
           style="fill:#ffcd50;fill-opacity:1;stroke:none;stroke-width:2;stroke-miterlimit:4;stroke-dasharray:none;stroke-opacity:1"
           id="path6864" />
        <path
           d="M 338.26079 579.16638 A 3.099601 3.3691316 0 1 1  332.06159,579.16638 A 3.099601 3.3691316 0 1 1  338.26079 579.16638 z"
           transform="translate(110.3596,-49.1765)"
           style="fill:#ffcd50;fill-opacity:1;stroke:none;stroke-width:2;stroke-miterlimit:4;stroke-dasharray:none;stroke-opacity:1"
           id="path6868" />
        <path
           d="M 338.26079 579.16638 A 3.099601 3.3691316 0 1 1  332.06159,579.16638 A 3.099601 3.3691316 0 1 1  338.26079 579.16638 z"
           transform="translate(92.03152,-76.6686)"
           style="fill:#ffcd50;fill-opacity:1;stroke:none;stroke-width:2;stroke-miterlimit:4;stroke-dasharray:none;stroke-opacity:1"
           id="path6872" />
        <path
           d="M 338.26079 579.16638 A 3.099601 3.3691316 0 1 1  332.06159,579.16638 A 3.099601 3.3691316 0 1 1  338.26079 579.16638 z"
           transform="translate(72.08627,-104.1607)"
           style="fill:#ffcd50;fill-opacity:1;stroke:none;stroke-width:2;stroke-miterlimit:4;stroke-dasharray:none;stroke-opacity:1"
           id="path6876" />
        <path
           d="M 338.26079 579.16638 A 3.099601 3.3691316 0 1 1  332.06159,579.16638 A 3.099601 3.3691316 0 1 1  338.26079 579.16638 z"
           transform="translate(53.21913,-127.3403)"
           style="fill:#ffcd50;fill-opacity:1;stroke:none;stroke-width:2;stroke-miterlimit:4;stroke-dasharray:none;stroke-opacity:1"
           id="path6880" />
        <path
           d="M 338.26079 579.16638 A 3.099601 3.3691316 0 1 1  332.06159,579.16638 A 3.099601 3.3691316 0 1 1  338.26079 579.16638 z"
           transform="translate(-77.7727,-120.8716)"
           style="fill:#ffcd50;fill-opacity:1;stroke:none;stroke-width:2;stroke-miterlimit:4;stroke-dasharray:none;stroke-opacity:1"
           id="path6884" />
        <path
           d="M 338.26079 579.16638 A 3.099601 3.3691316 0 1 1  332.06159,579.16638 A 3.099601 3.3691316 0 1 1  338.26079 579.16638 z"
           transform="translate(-91.2492,-98.7701)"
           style="fill:#ffcd50;fill-opacity:1;stroke:none;stroke-width:2;stroke-miterlimit:4;stroke-dasharray:none;stroke-opacity:1"
           id="path6888" />
        <path
           d="M 338.26079 579.16638 A 3.099601 3.3691316 0 1 1  332.06159,579.16638 A 3.099601 3.3691316 0 1 1  338.26079 579.16638 z"
           transform="translate(-105.2648,-75.5905)"
           style="fill:#ffcd50;fill-opacity:1;stroke:none;stroke-width:2;stroke-miterlimit:4;stroke-dasharray:none;stroke-opacity:1"
           id="path6892" />
        <path
           d="M 338.26079 579.16638 A 3.099601 3.3691316 0 1 1  332.06159,579.16638 A 3.099601 3.3691316 0 1 1  338.26079 579.16638 z"
           transform="translate(103.3518,-139.1997)"
           style="fill:#ffcd50;fill-opacity:1;stroke:none;stroke-width:2;stroke-miterlimit:4;stroke-dasharray:none;stroke-opacity:1"
           id="path6896" />
        <path
           d="M 338.26079 579.16638 A 3.099601 3.3691316 0 1 1  332.06159,579.16638 A 3.099601 3.3691316 0 1 1  338.26079 579.16638 z"
           transform="translate(133.0002,-122.4888)"
           style="fill:#ffcd50;fill-opacity:1;stroke:none;stroke-width:2;stroke-miterlimit:4;stroke-dasharray:none;stroke-opacity:1"
           id="path6900" />
        <path
           d="M 338.26079 579.16638 A 3.099601 3.3691316 0 1 1  332.06159,579.16638 A 3.099601 3.3691316 0 1 1  338.26079 579.16638 z"
           transform="translate(163.7266,-105.2388)"
           style="fill:#ffcd50;fill-opacity:1;stroke:none;stroke-width:2;stroke-miterlimit:4;stroke-dasharray:none;stroke-opacity:1"
           id="path6908" />
        <path
           d="M 338.26079 579.16638 A 3.099601 3.3691316 0 1 1  332.06159,579.16638 A 3.099601 3.3691316 0 1 1  338.26079 579.16638 z"
           transform="matrix(0.842105,0,0,0.842105,234.2672,0.4477)"
           style="fill:#ffcd50;fill-opacity:1;stroke:none;stroke-width:2;stroke-miterlimit:4;stroke-dasharray:none;stroke-opacity:1"
           id="path6912" />
        <path
           d="M 338.26079 579.16638 A 3.099601 3.3691316 0 1 1  332.06159,579.16638 A 3.099601 3.3691316 0 1 1  338.26079 579.16638 z"
           transform="matrix(0.842105,0,0,0.842105,131.4455,-60.6354)"
           style="fill:#ffcd50;fill-opacity:1;stroke:none;stroke-width:2;stroke-miterlimit:4;stroke-dasharray:none;stroke-opacity:1"
           id="path6916" />
        <path
           d="M 338.26079 579.16638 A 3.099601 3.3691316 0 1 1  332.06159,579.16638 A 3.099601 3.3691316 0 1 1  338.26079 579.16638 z"
           transform="matrix(0.842105,0,0,0.842105,-50.7555,-45.3884)"
           style="fill:#ffcd50;fill-opacity:1;stroke:none;stroke-width:2;stroke-miterlimit:4;stroke-dasharray:none;stroke-opacity:1"
           id="path6920" />
        <path
           d="M 338.26079 579.16638 A 3.099601 3.3691316 0 1 1  332.06159,579.16638 A 3.099601 3.3691316 0 1 1  338.26079 579.16638 z"
           transform="matrix(0.842105,0,0,0.842105,-68.28949,-34.9062)"
           style="fill:#ffcd50;fill-opacity:1;stroke:none;stroke-width:2;stroke-miterlimit:4;stroke-dasharray:none;stroke-opacity:1"
           id="path6924" />
        <path
           d="M 338.26079 579.16638 A 3.099601 3.3691316 0 1 1  332.06159,579.16638 A 3.099601 3.3691316 0 1 1  338.26079 579.16638 z"
           transform="matrix(0.842105,0,0,0.842105,-86.967,-21.3745)"
           style="fill:#ffcd50;fill-opacity:1;stroke:none;stroke-width:2;stroke-miterlimit:4;stroke-dasharray:none;stroke-opacity:1"
           id="path6928" />
        <path
           d="M 338.26079 579.16638 A 3.099601 3.3691316 0 1 1  332.06159,579.16638 A 3.099601 3.3691316 0 1 1  338.26079 579.16638 z"
           transform="matrix(0.631579,0,0,0.614035,-8.4051,57.8413)"
           style="fill:#ffcd50;fill-opacity:1;stroke:none;stroke-width:2;stroke-miterlimit:4;stroke-dasharray:none;stroke-opacity:1"
           id="path6932" />
        <path
           d="M 338.26079 579.16638 A 3.099601 3.3691316 0 1 1  332.06159,579.16638 A 3.099601 3.3691316 0 1 1  338.26079 579.16638 z"
           transform="matrix(0.631579,0,0,0.614035,-24.03322,62.1296)"
           style="fill:#ffcd50;fill-opacity:1;stroke:none;stroke-width:2;stroke-miterlimit:4;stroke-dasharray:none;stroke-opacity:1"
           id="path6940" />
        <path
           d="M 338.26079 579.16638 A 3.099601 3.3691316 0 1 1  332.06159,579.16638 A 3.099601 3.3691316 0 1 1  338.26079 579.16638 z"
           transform="matrix(0.631579,0,0,0.614035,-27.65437,118.7339)"
           style="fill:#ffcd50;fill-opacity:1;stroke:none;stroke-width:2;stroke-miterlimit:4;stroke-dasharray:none;stroke-opacity:1"
           id="path6944" />
        <path
           d="M 338.26079 579.16638 A 3.099601 3.3691316 0 1 1  332.06159,579.16638 A 3.099601 3.3691316 0 1 1  338.26079 579.16638 z"
           transform="matrix(0.631579,0,0,0.614035,-38.70841,66.1319)"
           style="fill:#ffcd50;fill-opacity:1;stroke:none;stroke-width:2;stroke-miterlimit:4;stroke-dasharray:none;stroke-opacity:1"
           id="path6952" />
        <path
           d="M 338.26079 579.16638 A 3.099601 3.3691316 0 1 1  332.06159,579.16638 A 3.099601 3.3691316 0 1 1  338.26079 579.16638 z"
           transform="matrix(0.77193,0,0,0.77193,-40.38691,75.7818)"
           style="fill:#ffcd50;fill-opacity:1;stroke:none;stroke-width:2;stroke-miterlimit:4;stroke-dasharray:none;stroke-opacity:1"
           id="path6956" />
        <path
           d="M 338.26079 579.16638 A 3.099601 3.3691316 0 1 1  332.06159,579.16638 A 3.099601 3.3691316 0 1 1  338.26079 579.16638 z"
           transform="matrix(0.719298,0,0,0.701754,-32.7534,130.9137)"
           style="fill:#ffcd50;fill-opacity:1;stroke:none;stroke-width:2;stroke-miterlimit:4;stroke-dasharray:none;stroke-opacity:1"
           id="path6960" />
      </g>
    </g>
  </g>
  <path
     d="M 249.55062,1.4395041 L 1.449569,1.4395041 L 1.449569,174.9361 C 0.68232904,268.65698 81.739009,302.75585 125.5001,302.75585 C 168.49395,302.75585 250.31785,268.65698 249.55062,174.9361 L 249.55062,1.4395041 z "
     style="fill:none;fill-opacity:0;stroke:#000000;stroke-width:1.88832211;stroke-linejoin:bevel"
     id="Frame" />
</svg>
