<?xml version="1.0" encoding="UTF-8" standalone="no"?>
<!-- Created with Inkscape (http://www.inkscape.org/) -->
<svg
   xmlns:dc="http://purl.org/dc/elements/1.1/"
   xmlns:cc="http://web.resource.org/cc/"
   xmlns:rdf="http://www.w3.org/1999/02/22-rdf-syntax-ns#"
   xmlns:svg="http://www.w3.org/2000/svg"
   xmlns="http://www.w3.org/2000/svg"
   xmlns:xlink="http://www.w3.org/1999/xlink"
   version="1.0"
   width="251"
   height="304.20001"
   id="svg4166">
  <defs
     id="defs4168" />
  <metadata
     id="metadata1880"><rdf:RDF><cc:Work
         rdf:about=""><dc:title>Vimmerby kommunvapen</dc:title><dc:date>01-10-2007</dc:date><dc:creator><cc:Agent><dc:title>Lokal_Profil</dc:title></cc:Agent></dc:creator><cc:license
         rdf:resource="http://creativecommons.org/licenses/by-sa/2.5/" /><dc:rights><cc:Agent><dc:title>cc-by-sa-2.5</dc:title></cc:Agent></dc:rights><dc:format>image/svg+xml</dc:format><dc:type
         rdf:resource="http://purl.org/dc/dcmitype/StillImage" /></cc:Work><cc:License
         rdf:about="http://creativecommons.org/licenses/by-sa/2.5/"><cc:permits
         rdf:resource="http://web.resource.org/cc/Reproduction" /><cc:permits
         rdf:resource="http://web.resource.org/cc/Distribution" /><cc:requires
         rdf:resource="http://web.resource.org/cc/Notice" /><cc:requires
         rdf:resource="http://web.resource.org/cc/Attribution" /><cc:permits
         rdf:resource="http://web.resource.org/cc/DerivativeWorks" /><cc:requires
         rdf:resource="http://web.resource.org/cc/ShareAlike" /></cc:License></rdf:RDF>
  </metadata>
  <path
     d="M 249.55058,1.4395041 L 125.50008,1.4395041 L 1.4495291,1.4395041 L 1.4495291,174.9361 C 0.68228908,268.65698 81.738969,302.75585 125.50006,302.75585 C 168.49391,302.75585 250.31781,268.65698 249.55058,174.9361 L 249.55058,1.4395041 z "
     style="fill:#eeeeee;stroke:none"
     id="Shield" />
  <g
     id="Ek">
    <path
       d="M 80.78125,40.34375 C 80.52872,40.357434 80.278135,40.392635 80.03125,40.4375 C 79.043707,40.616958 78.077234,40.80276 77.4375,42.96875 C 76.797772,45.134739 76.507026,49.2705 75.6875,50.4375 C 74.868306,51.60484 73.507891,49.7992 72.09375,50.5625 C 70.679612,51.325459 69.194697,54.65278 71.125,56.875 C 73.05564,59.097229 78.395792,60.20482 78.25,62.28125 C 78.104209,64.35768 72.478451,67.41688 73.5,70.3125 C 74.521215,73.208121 82.19249,75.94427 83.71875,78.75 C 85.245352,81.55572 80.614542,84.4239 80.46875,86.5 C 80.322959,88.576432 84.684449,89.86932 86.03125,91.6875 C 87.378053,93.50568 85.739875,95.86106 85.59375,97.9375 C 85.447955,100.01359 86.778199,101.79813 88.125,103.59375 L 89.125,104.0625 C 90.135103,106.0827 91.161298,108.11994 90.65625,108.625 C 90.151193,109.13005 88.113952,108.10385 86.09375,107.09375 L 85.4375,104.8125 C 84.360064,102.81486 83.285498,100.81435 81.34375,100.0625 C 79.402334,99.310637 76.597239,99.79903 75.53125,97.8125 C 74.464915,95.825969 75.140362,91.37719 73.1875,90.625 C 71.234637,89.87315 66.65808,92.82003 64.75,90.25 C 62.842259,87.679627 63.594803,79.58128 61.40625,77.4375 C 59.217699,75.293741 54.077862,79.11573 52.125,78.375 C 50.172137,77.634248 51.388174,72.3186 50.1875,69.625 C 48.98649,66.931402 45.373211,66.86973 44.09375,67.8125 C 42.814287,68.755263 43.87178,70.72161 42.46875,70.96875 C 41.066058,71.215547 37.20208,69.73184 34.96875,69.40625 C 32.735409,69.081 32.14601,69.91936 31.5625,70.75 C 30.979,71.580636 30.39131,72.38846 31.46875,74.375 C 32.546201,76.36153 35.28445,79.50356 35.53125,80.90625 C 35.77805,82.309278 33.52277,81.97374 33.0625,83.5 C 32.602242,85.026597 33.934591,88.41154 36.875,88.625 C 39.815402,88.83814 44.380977,85.89737 45.75,87.46875 C 47.11936,89.039801 45.290447,95.1445 48.0625,96.46875 C 50.834891,97.792989 58.217277,94.34091 61.28125,95.25 C 64.345222,96.159092 63.099727,101.42862 64.46875,103 C 65.838108,104.57138 69.809028,102.44455 72.03125,102.78125 C 74.253473,103.11795 74.735837,105.90881 76.09375,107.46875 C 77.452003,109.02868 79.692718,109.34211 81.9375,109.65625 L 83.0625,110.125 C 86.092807,111.1351 89.136048,112.14615 91.15625,113.15625 C 93.176453,114.16635 94.182447,115.1774 94.6875,116.1875 C 95.192551,117.1976 95.197601,118.21875 94.1875,118.21875 C 93.177399,118.21875 91.145202,117.1976 89.125,116.1875 C 87.1048,115.1774 85.082702,114.18245 83.0625,114.6875 C 81.042302,115.19255 79.020202,117.1976 77,116.1875 C 74.979794,115.1774 72.988952,111.1512 70.96875,111.65625 C 68.948546,112.1613 66.905303,117.1976 63.875,116.1875 C 60.844697,115.1774 56.811553,108.09879 53.78125,107.59375 C 50.750947,107.08869 48.738952,113.1512 46.71875,113.65625 C 44.69855,114.1613 42.681502,109.1089 40.15625,107.59375 C 37.630998,106.07859 34.5988,108.10984 34.09375,109.625 C 33.588699,111.14015 35.603847,112.14615 34.59375,113.15625 C 33.583648,114.16635 29.55145,115.1774 27.53125,116.1875 C 25.511049,117.1976 25.5,118.20865 25.5,119.21875 C 25.5,120.22885 25.51105,121.2399 27.53125,122.25 C 29.551449,123.2601 33.58365,124.27114 34.59375,125.28125 C 35.603845,126.29135 33.5887,127.29735 34.09375,128.8125 C 34.598799,130.32765 37.630997,132.3589 40.15625,130.84375 C 42.681503,129.3286 44.698548,124.27619 46.71875,124.78125 C 48.738954,125.2863 50.750947,131.3488 53.78125,130.84375 C 56.811553,130.3387 60.844697,123.2601 63.875,122.25 C 66.905303,121.2399 68.948548,126.30745 70.96875,126.8125 C 72.98895,127.31755 74.979796,123.2601 77,122.25 C 79.0202,121.2399 81.042298,123.2762 83.0625,123.78125 C 85.082706,124.2863 87.104798,123.2601 89.125,122.25 C 91.145204,122.25 93.172346,122.25 94.6875,122.25 C 96.202652,122.25 97.208649,122.24495 98.21875,122.75 C 99.228849,123.25505 100.24494,124.27114 100.75,125.28125 C 101.25504,126.29135 101.26515,127.30745 99.75,127.8125 C 98.234847,128.31755 95.186553,128.3125 92.15625,128.3125 L 85.15625,130.28125 C 82.889242,130.41593 80.617593,130.53205 79.125,131.96875 C 77.632408,133.40512 76.931943,136.14656 74.6875,136.28125 C 72.442722,136.41593 68.66029,133.95844 67.15625,135.40625 C 65.652543,136.85407 66.412563,142.20402 63.28125,142.84375 C 60.149939,143.48348 53.1234,139.39131 50.25,140.46875 C 47.376936,141.54618 48.66029,147.80218 47.15625,149.25 C 45.652548,150.69781 41.357765,147.35728 38.40625,147.3125 C 35.454401,147.26773 33.86192,150.50223 34.1875,152.0625 C 34.512759,153.62243 36.77662,153.49454 36.40625,154.875 C 36.035881,156.25548 33.02705,159.14573 31.78125,161.03125 C 30.535461,162.91678 31.04634,163.81208 31.5625,164.6875 C 32.07866,165.56292 32.58785,166.41593 34.84375,166.28125 C 37.099639,166.14657 41.09939,165.00463 42.46875,165.375 C 43.838112,165.74536 42.591351,167.63262 43.78125,168.6875 C 44.970813,169.74272 48.59455,169.9874 50.03125,167.40625 C 51.467614,164.82478 50.709996,159.41614 52.71875,158.84375 C 54.72784,158.27136 59.506987,162.5355 61.875,160.59375 C 64.24335,158.65234 64.191288,150.51557 66.3125,148.125 C 68.433709,145.73443 72.741246,149.08384 74.75,148.5 C 76.759094,147.91651 76.484065,143.38553 77.71875,141.5 C 78.953091,139.61448 81.689853,140.35364 83.6875,139.78125 C 85.685144,139.20885 86.930597,137.32303 88.1875,135.4375 L 89.125,134.375 C 90.135103,133.3649 91.167298,132.3488 93.1875,131.84375 C 95.207703,131.3387 98.23485,131.3387 99.75,131.84375 C 101.26515,132.3488 101.26515,133.35984 99.75,134.875 C 98.234847,136.39016 95.202649,138.4173 93.6875,140.4375 C 92.172349,142.4577 92.15625,144.48484 92.15625,146 C 92.156251,147.51515 92.15625,148.52115 92.15625,149.53125 L 95.1875,149.53125 C 95.1875,148.52115 95.182447,147.5202 95.6875,145.5 C 96.19255,143.47979 97.229799,140.42645 99.25,138.40625 C 101.2702,136.38605 104.2923,135.36995 106.3125,135.875 C 108.3327,136.38005 109.33365,138.41225 110.34375,140.9375 C 111.35385,143.46275 112.375,146.4959 112.375,150.03125 C 110.36313,181.72831 114.47841,216.41861 112.875,248.28125 C 112.36994,252.32165 111.369,255.34879 108.84375,254.84375 C 106.3185,254.33869 102.25915,250.28125 98.21875,250.28125 C 94.178345,250.28125 90.139202,254.34375 85.59375,254.34375 C 81.048291,254.34376 76.009156,250.29135 71.96875,249.28125 C 67.928344,248.27115 64.905303,250.30745 61.875,250.8125 C 58.844698,251.31755 55.796402,250.28125 54.28125,250.28125 C 52.766098,250.28125 52.771149,251.3024 53.78125,252.3125 C 54.791351,253.32259 56.823548,254.33869 58.84375,254.84375 C 60.863954,255.34879 62.864899,255.33869 63.875,255.84375 C 64.885101,256.34879 64.880051,257.3649 64.375,258.375 C 63.86995,259.3851 62.875,260.4012 62.875,260.90625 C 62.875,261.41131 63.891099,261.41635 65.40625,260.40625 C 66.921401,259.39614 68.922349,257.35386 70.4375,256.34375 C 71.95265,255.33365 72.96875,255.33869 72.96875,255.84375 C 72.968747,256.34879 71.9637,257.36995 72.46875,257.875 C 72.973798,258.38005 74.989897,258.36995 76,258.875 C 77.010099,259.38006 77.010101,260.3911 76,261.90625 C 74.989895,263.42141 72.96875,265.45865 72.96875,266.46875 C 72.968747,267.47885 74.979796,267.47886 77,266.46875 C 79.0202,265.45864 81.047346,263.4113 82.5625,262.90625 C 84.077648,262.40121 85.083649,263.4375 86.09375,263.4375 C 87.103854,263.43749 88.119947,262.4012 88.625,262.90625 C 89.130045,263.41131 89.135101,265.44854 88.125,267.46875 C 87.114901,269.48894 85.103851,271.5161 84.09375,273.03125 C 83.083652,274.5464 83.078596,275.53125 84.59375,275.53125 C 86.108897,275.53126 89.136048,274.52619 91.15625,275.03125 C 93.176453,275.5363 94.177399,277.5524 95.1875,278.5625 C 96.197601,279.57259 97.213697,279.5988 97.71875,279.09375 C 98.2238,278.5887 98.228851,277.57765 97.21875,276.0625 C 96.208648,274.54735 94.192548,272.52525 93.6875,270 C 93.18245,267.47476 94.177399,264.42645 95.1875,262.40625 C 96.197601,260.38604 97.208649,259.375 98.21875,259.375 C 99.228849,259.37499 100.24494,260.3911 100.75,261.90625 C 101.25504,263.42141 101.24494,265.45865 101.75,266.46875 C 102.25504,267.47885 103.2762,267.47886 103.78125,266.46875 C 104.2863,265.45864 104.3024,263.4113 105.3125,262.90625 C 106.3226,262.40121 108.3286,263.43245 109.84375,263.9375 C 111.3589,264.44255 112.375,264.4274 112.375,265.4375 C 112.375,266.44759 111.3589,268.48485 109.84375,270 C 108.3286,271.51516 106.3226,272.51105 105.3125,274.53125 C 104.3024,276.55143 104.2762,279.5786 104.78125,281.09375 C 105.2863,282.6089 106.30745,282.60385 106.8125,281.59375 C 107.31755,280.58364 107.33365,278.57765 108.34375,277.0625 C 109.35385,275.54735 111.35984,274.53125 112.875,274.53125 C 114.39015,274.53123 115.4012,275.54734 115.90625,277.0625 C 116.4113,278.57766 116.39615,280.5887 117.40625,281.09375 C 118.41635,281.5988 120.4375,280.58775 120.4375,278.0625 C 120.4375,275.53725 118.4375,271.5041 118.4375,267.96875 C 118.4375,264.4334 120.45359,261.39015 121.96875,259.875 C 123.48389,258.35986 124.48485,258.36995 126,258.875 C 127.51515,259.38006 129.54735,260.3911 131.0625,261.90625 C 132.57764,263.42141 133.56755,265.45359 133.0625,266.96875 C 132.55746,268.48391 130.5464,269.48485 129.03125,271 C 127.5161,272.51515 126.5,274.53724 126.5,277.0625 C 126.5,279.58776 127.5262,282.61995 128.03125,283.125 C 128.5363,283.63005 128.52115,281.61395 129.53125,279.59375 C 130.54134,277.57354 132.57859,275.54135 134.09375,274.53125 C 135.60889,273.52113 136.6149,273.5262 137.625,274.03125 C 138.63509,274.5363 139.65625,275.54229 139.65625,277.5625 C 139.65626,279.58269 138.64615,282.61995 139.65625,283.125 C 140.66636,283.63005 143.68244,281.5928 144.1875,278.5625 C 144.69254,275.53218 142.6714,271.49905 141.15625,268.46875 C 139.6411,265.43843 138.6411,263.4113 140.15625,262.90625 C 141.67141,262.40121 145.70359,263.4274 147.21875,264.4375 C 148.73391,265.44759 147.7137,266.46369 148.21875,266.96875 C 148.72381,267.47381 150.7399,267.47886 151.75,266.46875 C 152.7601,265.45864 152.7762,263.41635 153.28125,262.40625 C 153.7863,261.39614 154.8024,261.39615 155.8125,262.40625 C 156.82261,263.41634 157.8226,265.44349 156.8125,267.96875 C 155.80239,270.49401 152.7601,273.53724 151.75,276.0625 C 150.7399,278.58776 151.77115,280.5887 152.78125,281.09375 C 153.79135,281.5988 154.8024,280.6089 155.8125,279.09375 C 156.82261,277.5786 157.8286,275.53629 159.34375,275.03125 C 160.8589,274.5262 162.85984,275.53125 164.375,275.53125 C 165.89014,275.53126 166.90625,274.54135 166.90625,273.53125 C 166.90625,272.52114 165.91635,271.50505 164.90625,271 C 163.89614,270.49495 162.88005,270.4839 162.375,268.96875 C 161.86995,267.45361 161.8488,264.42645 161.34375,262.40625 C 160.8387,260.38604 159.83365,259.375 160.84375,259.375 C 161.85385,259.37499 164.88604,260.4012 166.90625,260.90625 C 168.92645,261.41131 169.95865,261.39615 170.96875,262.40625 C 171.97885,263.41634 172.96875,265.45359 172.96875,266.96875 C 172.96874,268.48391 171.96875,269.4899 171.96875,270.5 C 171.96874,271.51009 172.9899,272.50505 174,272 C 175.01011,271.49495 176.01609,269.47885 177.53125,268.46875 C 179.0464,267.45864 181.0524,267.4738 182.0625,266.96875 C 183.07261,266.4637 183.0726,265.44254 182.0625,264.9375 C 181.05241,264.43245 179.0464,264.4476 177.53125,263.4375 C 176.01609,262.42739 174.99494,260.38005 175.5,259.875 C 176.00504,259.36996 178.0161,260.38005 179.53125,259.875 C 181.04639,259.36996 182.07355,257.3488 184.09375,256.84375 C 186.11395,256.33869 189.12595,257.3488 192.15625,256.84375 C 195.18655,256.33869 198.2399,254.32765 199.25,252.8125 C 200.2601,251.29734 199.2339,250.30745 197.71875,250.8125 C 196.2036,251.31755 194.18655,253.3125 191.15625,253.3125 C 188.12595,253.31249 184.07165,251.30745 180.03125,251.8125 C 175.99083,252.31754 171.9779,255.34879 167.9375,254.84375 C 163.89709,254.33869 159.84785,250.2863 156.3125,249.78125 C 152.77715,249.2762 149.74905,252.30745 146.71875,252.8125 C 143.68845,253.31754 140.6452,251.3065 138.625,248.78125 C 136.12196,222.39289 135.39762,175.88057 137.125,149.03125 C 137.35428,145.46738 137.60985,141.4577 139.125,139.4375 C 140.64016,137.4173 143.68844,137.39615 146.71875,138.40625 C 149.74906,139.41635 152.76609,141.44855 154.28125,143.46875 C 155.79638,145.48895 155.80744,147.4899 156.3125,148.5 C 156.81756,149.5101 157.8387,149.5363 158.34375,149.03125 C 158.8488,148.5262 158.84375,147.51515 158.84375,146 C 158.84375,144.48484 158.82765,142.4577 157.3125,140.4375 C 155.79734,138.4173 152.76515,136.39015 151.25,134.875 C 149.73485,133.35985 149.73485,132.3488 151.25,131.84375 C 152.76515,131.3387 155.79229,131.3387 157.8125,131.84375 C 159.8327,132.3488 160.8649,133.3649 161.875,134.375 L 162.8125,135.4375 C 164.0694,137.32303 165.31486,139.20886 167.3125,139.78125 C 169.31014,140.35363 172.04691,139.61448 173.28125,141.5 C 174.51593,143.38553 174.2409,147.9165 176.25,148.5 C 178.25874,149.08385 182.56629,145.73443 184.6875,148.125 C 186.80872,150.51557 186.75664,158.65233 189.125,160.59375 C 191.49302,162.53551 196.27216,158.27136 198.28125,158.84375 C 200.29001,159.41614 199.53238,164.82477 200.96875,167.40625 C 202.40545,169.98741 206.02918,169.74272 207.21875,168.6875 C 208.40863,167.63262 207.1619,165.74537 208.53125,165.375 C 209.90062,165.00462 213.90036,166.14657 216.15625,166.28125 C 218.41214,166.41593 218.92133,165.56292 219.4375,164.6875 C 219.95366,163.81208 220.46454,162.91678 219.21875,161.03125 C 217.97295,159.14573 214.96412,156.25548 214.59375,154.875 C 214.22338,153.49454 216.48725,153.62243 216.8125,152.0625 C 217.13809,150.50223 215.5456,147.26772 212.59375,147.3125 C 209.64222,147.35729 205.34746,150.69781 203.84375,149.25 C 202.33971,147.80218 203.62307,141.54619 200.75,140.46875 C 197.87662,139.3913 190.85006,143.48348 187.71875,142.84375 C 184.58743,142.20402 185.34745,136.85406 183.84375,135.40625 C 182.33971,133.95845 178.55729,136.41593 176.3125,136.28125 C 174.06806,136.14656 173.36759,133.40512 171.875,131.96875 C 170.38241,130.53205 168.11075,130.41593 165.84375,130.28125 L 159.5,128.3125 C 156.4697,128.3125 153.45265,128.31755 151.9375,127.8125 C 150.42235,127.30745 150.4012,126.29135 150.90625,125.28125 C 151.4113,124.27114 152.4274,123.25505 153.4375,122.75 C 154.4476,122.24495 155.45359,122.25 156.96875,122.25 C 158.30515,122.25 160.09934,122.25 161.875,122.25 C 163.8952,123.2601 165.91729,124.2863 167.9375,123.78125 C 169.9577,123.2762 171.9798,121.2399 174,122.25 C 176.02021,123.2601 178.01105,127.31755 180.03125,126.8125 C 182.05144,126.30745 184.09469,121.2399 187.125,122.25 C 190.15529,123.2601 194.18845,130.3387 197.21875,130.84375 C 200.24906,131.3488 202.26105,125.2863 204.28125,124.78125 C 206.30145,124.27619 208.3185,129.3286 210.84375,130.84375 C 213.369,132.3589 216.40119,130.32765 216.90625,128.8125 C 217.41129,127.29735 215.39615,126.29135 216.40625,125.28125 C 217.41636,124.27114 221.44855,123.2601 223.46875,122.25 C 225.48894,121.2399 225.5,120.22885 225.5,119.21875 C 225.50001,118.20865 225.48895,117.1976 223.46875,116.1875 C 221.44854,115.1774 217.41635,114.16635 216.40625,113.15625 C 215.39616,112.14615 217.41129,111.14015 216.90625,109.625 C 216.40119,108.10984 213.369,106.07859 210.84375,107.59375 C 208.3185,109.1089 206.30145,114.1613 204.28125,113.65625 C 202.26105,113.1512 200.24906,107.08869 197.21875,107.59375 C 194.18845,108.09879 190.1553,115.1774 187.125,116.1875 C 184.09468,117.1976 182.05145,112.1613 180.03125,111.65625 C 178.01104,111.1512 176.0202,115.1774 174,116.1875 C 171.97981,117.1976 169.9577,115.19255 167.9375,114.6875 C 165.91729,114.18245 163.8952,115.1774 161.875,116.1875 L 162.53125,116.1875 C 160.51105,117.1976 158.5101,118.21875 157.5,118.21875 C 156.4899,118.21875 156.4637,117.1976 156.96875,116.1875 C 157.4738,115.1774 158.51105,114.16635 160.53125,113.15625 C 162.55145,112.14615 165.56344,111.1351 168.59375,110.125 L 169.0625,109.65625 C 171.30728,109.34211 173.548,109.02868 174.90625,107.46875 C 176.26417,105.90881 176.74652,103.11795 178.96875,102.78125 C 181.19096,102.44455 185.16189,104.57138 186.53125,103 C 187.90028,101.42862 186.65477,96.15909 189.71875,95.25 C 192.78272,94.340912 200.16511,97.79299 202.9375,96.46875 C 205.70955,95.144499 203.88064,89.0398 205.25,87.46875 C 206.61902,85.897371 211.18459,88.83814 214.125,88.625 C 217.0654,88.41154 218.39776,85.0266 217.9375,83.5 C 217.47723,81.973737 215.22195,82.30928 215.46875,80.90625 C 215.71555,79.503558 218.45382,76.36153 219.53125,74.375 C 220.60869,72.38846 220.021,71.58064 219.4375,70.75 C 218.85399,69.919356 218.26459,69.081 216.03125,69.40625 C 213.79792,69.73184 209.93395,71.21555 208.53125,70.96875 C 207.12823,70.721607 208.1857,68.75526 206.90625,67.8125 C 205.62678,66.869733 202.01351,66.9314 200.8125,69.625 C 199.61183,72.318602 200.82786,77.63425 198.875,78.375 C 196.92214,79.115728 191.7823,75.29374 189.59375,77.4375 C 187.40519,79.581281 188.15775,87.67963 186.25,90.25 C 184.34192,92.820027 179.76536,89.87315 177.8125,90.625 C 175.85963,91.37719 176.53507,95.82597 175.46875,97.8125 C 174.40274,99.799029 171.59766,99.31064 169.65625,100.0625 C 167.7145,100.81435 166.63994,102.81486 165.5625,104.8125 L 165.5625,107.09375 C 163.54229,108.10385 161.5363,109.13005 161.03125,108.625 C 160.5262,108.11994 161.52115,106.0827 162.53125,104.0625 L 162.875,103.59375 C 164.2218,101.79813 165.55204,100.01359 165.40625,97.9375 C 165.26013,95.861061 163.62195,93.50568 164.96875,91.6875 C 166.31555,89.86932 170.67704,88.57643 170.53125,86.5 C 170.38546,84.423902 165.75465,81.55572 167.28125,78.75 C 168.8075,75.94427 176.47879,73.20812 177.5,70.3125 C 178.52155,67.416881 172.89579,64.35768 172.75,62.28125 C 172.60422,60.20482 177.94437,59.09723 179.875,56.875 C 181.80531,54.652779 180.32039,51.32546 178.90625,50.5625 C 177.49211,49.799199 176.1317,51.60484 175.3125,50.4375 C 174.49298,49.2705 174.20223,45.13474 173.5625,42.96875 C 172.92277,40.802759 171.95629,40.61696 170.96875,40.4375 C 169.98121,40.258038 168.9718,40.08807 167.625,41.90625 C 166.2782,43.724429 164.5847,47.52456 163.40625,48.34375 C 162.2278,49.162942 161.58249,46.98306 160,47.21875 C 158.4175,47.454438 155.88261,50.09392 156.9375,52.84375 C 157.99238,55.593582 162.623,58.44678 161.78125,60.34375 C 160.93949,62.240381 154.64723,63.20616 154.625,66.28125 C 154.60244,69.356669 160.84112,74.56487 161.3125,77.71875 C 161.78388,80.87262 156.47787,81.94678 155.625,83.84375 C 154.77179,85.740383 158.39152,88.45901 159.03125,90.625 C 159.67096,92.79133 157.34175,94.40442 156.5,96.3125 C 155.65826,98.220588 156.28665,100.41631 156.9375,102.59375 L 156.46875,104.0625 C 156.46875,106.0827 156.47886,108.09974 155.46875,110.625 C 154.45865,113.15025 152.4315,116.18339 149.90625,119.71875 C 147.381,123.2541 144.36395,127.2923 142.34375,129.3125 C 140.32355,131.3327 139.2964,131.34375 137.78125,131.34375 C 136.26609,131.34375 134.2601,131.35385 133.25,130.34375 C 132.23991,129.33365 132.2399,127.2964 133.25,125.78125 C 134.26011,124.26609 136.2661,123.2601 137.78125,122.25 C 139.29639,121.2399 140.3024,120.2339 141.3125,118.71875 C 142.3226,117.20359 143.33869,115.1714 143.84375,113.65625 C 144.34879,112.1411 144.34375,111.1351 144.34375,110.125 L 141.3125,107.09375 C 141.3125,109.11396 141.3226,111.13605 140.3125,113.15625 C 139.30241,115.17645 137.27021,117.20359 135.25,118.71875 C 133.2298,120.2339 130.78832,121.46085 130.71875,120.75 C 130.43956,117.89747 130.06781,114.62597 130.625,111.5625 C 131.37835,109.67913 134.375,108.19419 134.375,106.6875 C 134.37501,105.1808 131.37165,103.6663 132.125,101.40625 C 132.87834,99.146196 137.40625,96.13505 137.40625,93.875 C 137.40625,91.614955 132.87666,90.100444 132.5,88.59375 C 132.12332,87.087058 135.90123,85.570868 137.03125,83.6875 C 138.16127,81.804128 136.6317,79.564181 135.125,79.1875 C 133.61831,78.810835 132.13002,80.315847 131,79.5625 C 129.86998,78.809157 129.0971,75.787945 128.34375,74.28125 C 127.5904,72.774558 126.8471,72.78125 126.09375,72.78125 C 125.3404,72.781249 124.5971,72.774556 123.84375,74.28125 C 123.0904,75.787947 122.31752,78.809153 121.1875,79.5625 C 120.05748,80.315851 118.5692,78.810834 117.0625,79.1875 C 115.5558,79.564182 114.02623,81.804131 115.15625,83.6875 C 116.28627,85.570865 120.06417,87.087055 119.6875,88.59375 C 119.31083,90.100447 114.78125,91.614958 114.78125,93.875 C 114.78125,96.135047 119.30916,99.146199 120.0625,101.40625 C 120.81585,103.6663 117.8125,105.1808 117.8125,106.6875 C 117.8125,108.19419 120.80915,109.67913 121.5625,111.5625 C 121.26107,114.55858 121.31715,117.76604 120.96875,120.75 C 120.4637,121.25505 118.42645,120.2339 116.40625,118.71875 C 114.38605,117.20359 112.35385,115.17645 111.34375,113.15625 C 110.33365,111.13605 110.34375,109.11396 110.34375,107.09375 L 107.3125,110.125 C 107.3125,111.1351 107.30745,112.1411 107.8125,113.65625 C 108.31755,115.1714 109.33365,117.20359 110.34375,118.71875 C 111.35385,120.2339 112.35984,121.2399 113.875,122.25 C 115.39015,123.2601 117.4274,124.26609 118.4375,125.78125 C 119.4476,127.2964 119.4476,129.33365 118.4375,130.34375 C 117.4274,131.35385 115.39015,131.34375 113.875,131.34375 C 112.35984,131.34375 111.36395,131.3327 109.34375,129.3125 C 107.32355,127.2923 104.27525,123.2541 101.75,119.71875 C 99.224744,116.18339 97.228851,113.15025 96.21875,110.625 C 95.208649,108.09974 95.1875,106.0827 95.1875,104.0625 L 94.0625,102.59375 C 94.713346,100.41631 95.341748,98.22059 94.5,96.3125 C 93.658244,94.404418 91.329021,92.79133 91.96875,90.625 C 92.608482,88.45901 96.228198,85.74038 95.375,83.84375 C 94.522133,81.946783 89.216119,80.87262 89.6875,77.71875 C 90.158884,74.56487 96.397556,69.35667 96.375,66.28125 C 96.352769,63.206159 90.060503,62.24038 89.21875,60.34375 C 88.377,58.446781 93.007616,55.59358 94.0625,52.84375 C 95.117384,50.093922 92.582492,47.45444 91,47.21875 C 89.417507,46.983058 88.772199,49.16294 87.59375,48.34375 C 86.415293,47.524562 84.721801,43.72443 83.375,41.90625 C 82.364897,40.542614 81.53884,40.302698 80.78125,40.34375 z "
       style="fill:#225500;fill-opacity:1;fill-rule:evenodd;stroke:none;stroke-width:2.00001001;stroke-linecap:butt;stroke-linejoin:miter;stroke-miterlimit:10"
       id="Trunk" />
    <use
       transform="translate(64.64618,1.8359e-5)"
       style="stroke:none"
       id="Ollon2"
       x="0"
       y="0"
       width="251"
       height="304.20001"
       xlink:href="#Ollon" />
    <use
       transform="matrix(0.951057,-0.309017,-0.309017,-0.951057,66.08296,280.5744)"
       style="stroke:none"
       id="Ollon3"
       x="0"
       y="0"
       width="251"
       height="304.20001"
       xlink:href="#Ollon" />
    <use
       transform="matrix(-1,0,0,1,251.795,0)"
       style="stroke:none"
       id="Ollon4"
       x="0"
       y="0"
       width="251"
       height="304.20001"
       xlink:href="#Ollon3" />
    <g
       transform="matrix(0.505045,0,0,0.505048,24.99526,105.0341)"
       style="stroke:none"
       id="Ollon">
      <path
         d="M 117.48957,110.74999 L 153.48975,110.74999 C 153.48975,106.74997 153.48975,102.74995 151.48974,98.74993 C 149.48973,94.749905 145.48971,90.749885 141.48969,88.749875 C 137.48967,86.749865 133.48965,86.749865 129.48963,88.749875 C 125.48961,90.749885 121.48959,94.749905 119.48958,98.74993 C 117.48957,102.74995 117.48957,106.74997 117.48957,110.74999 z "
         style="fill:#225500;fill-opacity:1;fill-rule:evenodd;stroke:none;stroke-width:2.00001001;stroke-linecap:butt;stroke-linejoin:miter;stroke-miterlimit:10"
         id="path2772" />
      <path
         d="M 123.4896,106.78997 C 123.4896,112.79 123.4896,122.75005 124.48961,126.75007 C 125.48961,130.75009 127.48962,132.7501 129.48963,135.75012 C 131.48964,138.75013 133.48965,142.75015 135.48966,142.75015 C 137.48967,142.75015 139.48968,138.75013 141.48969,135.75012 C 143.4897,132.7501 145.48971,130.75009 146.48972,126.75007 C 147.48972,122.75005 147.48972,112.79 147.48972,106.78997"
         style="fill:#225500;fill-opacity:1;fill-rule:evenodd;stroke:none;stroke-width:2.00001001;stroke-linecap:butt;stroke-linejoin:miter;stroke-miterlimit:10"
         id="path2774" />
    </g>
  </g>
  <g
     transform="matrix(0.167596,0,0,0.167596,69.32909,-19.18472)"
     id="Ekorre">
    <path
       d="M 254.01868,257.47128 C 254.08526,257.35679 253.49428,250.3456 250.04755,245.4105 C 239.87909,252.39912 234.19038,263.31641 232.0037,269.44264 L 231.82408,269.87743 L 234.1426,275.41436 L 255.28743,271.63976 L 254.01868,257.47128 z "
       style="fill:#d40000;fill-opacity:1;fill-rule:evenodd;stroke:none;stroke-width:2;stroke-linecap:butt;stroke-linejoin:miter;stroke-miterlimit:4;stroke-dasharray:none;stroke-opacity:1;display:inline"
       id="path1892" />
    <path
       d="M 428.66486,198.56917 C 413.58534,201.71046 401.76457,209.23454 400.85391,231.37755 C 397.24815,226.92673 397.4627,217.39826 396.92363,208.86299 C 308.97236,260.53188 350.13618,364.59061 387.33826,384.81254 C 427.73859,402.13157 465.20951,491.65295 419.26918,568.58417 L 411.77217,571.79757 C 421.0659,556.77381 430.63063,553.81271 425.3758,494.83176 C 415.98566,437.97082 399.58555,427.7842 378.82582,411.27594 C 366.59152,400.52369 354.35023,390.15684 342.38389,368.13656 C 325.30025,344.90856 316.53483,342.32196 305.14151,334.4543 C 285.65967,323.52063 253.20744,331.80903 263.95202,293.44258 C 271.07935,274.9239 270.17088,259.23356 266.87949,247.91972 C 259.62964,250.47475 243.16849,262.82625 243.44695,276.68763 C 243.21393,269.9405 246.15741,267.14774 247.51177,264.02554 C 152.13706,290.98911 176.46662,321.5466 154.4884,333.83154 C 148.83433,337.09207 151.22251,347.64113 158.97048,349.13391 C 166.93601,355.42856 166.60772,355.50555 177.60455,354.08903 C 168.93241,360.60156 194.07555,360.00295 200.0337,361.3133 C 229.25127,368.77748 242.4725,379.94134 239.80793,387.50156 C 237.61364,393.72745 217.9703,394.64324 183.25381,385.35494 C 176.93743,381.61094 170.59865,378.00899 164.08279,376.18342 C 164.24107,381.3565 167.31174,381.71867 169.02826,384.31774 L 154.12705,382.30349 C 151.83787,385.40543 153.1796,386.35099 153.32856,388.00412 C 152.2622,389.81811 151.60063,391.81907 152.83447,394.73463 C 151.87465,397.79611 152.85909,399.0477 153.98508,400.15786 C 154.02306,402.28066 154.4702,404.15463 156.47949,405.04262 C 162.21728,405.02455 173.39814,402.42231 184.12771,404.35888 C 226.00461,418.40444 251.95391,433.70666 256.09158,433.16267 C 260.90349,430.77199 266.42106,421.87255 272.05572,414.035 L 262.2114,428.01265 C 278.09032,444.38949 274.58883,465.3249 281.46745,484.45131 C 281.20854,500.36844 280.85526,526.0667 310.14397,562.11425 C 294.70439,563.58457 278.8889,564.96626 274.97973,568.53928 C 255.94808,580.51067 255.12498,588.54486 262.12748,594.89434 C 275.11102,591.80024 287.37398,588.17302 304.47784,588.17256 C 373.19208,588.78593 389.14792,596.19019 405.886,596.088 C 422.65692,595.06481 424.72903,589.14189 405.17178,575.98812 C 409.79207,578.35643 415.50517,579.99854 427.05147,577.57735 C 455.83045,559.8583 478.64989,542.20805 500.90696,513.65839 C 516.32333,490.08424 520.77853,457.37821 486.94643,395.16212 C 470.52422,370.58779 466.829,348.93613 476.26344,330.30159 C 482.2836,344.15481 489.40769,356.54295 498.65548,366.09736 C 496.41649,354.24807 497.80605,347.63193 500.38248,342.74608 C 504.11676,349.91043 506.21211,357.32607 513.50582,363.98385 C 528.36691,366.89462 541.19433,362.57102 553.10674,358.34781 C 550.23729,340.50198 546.98788,297.3855 502.75428,252.95365 C 508.68332,250.67852 515.10537,251.70882 521.56321,253.14915 C 517.31407,239.49063 470.85747,194.98892 428.66486,198.56917 z "
       style="fill:#d40000;fill-opacity:1;fill-rule:evenodd;stroke:#eeeeee;stroke-width:5.96672964;stroke-linecap:butt;stroke-linejoin:miter;stroke-miterlimit:4;stroke-dasharray:none;stroke-opacity:1"
       id="path1883" />
    <path
       d="M 153.50306,388.09514 L 160.60986,388.74172"
       style="fill:none;fill-opacity:1;fill-rule:evenodd;stroke:#eeeeee;stroke-width:2;stroke-linecap:butt;stroke-linejoin:miter;stroke-miterlimit:4;stroke-dasharray:none;stroke-opacity:1"
       id="path1894" />
    <path
       d="M 152.98172,394.73771 L 160.40151,394.44697"
       style="fill:none;fill-opacity:1;fill-rule:evenodd;stroke:#eeeeee;stroke-width:2;stroke-linecap:butt;stroke-linejoin:miter;stroke-miterlimit:4;stroke-dasharray:none;stroke-opacity:1"
       id="path1896" />
    <path
       d="M 198.4626,313.65304 C 199.06294,317.87122 195.98949,321.80144 191.60221,322.42584 C 187.21494,323.05024 183.16703,320.13355 182.5667,315.91536 C 181.96636,311.69717 185.03981,307.76695 189.42708,307.14255 C 193.81436,306.51815 197.86227,309.43485 198.4626,313.65304 z "
       style="fill:#eeeeee;fill-opacity:1;fill-rule:evenodd;stroke:none;stroke-width:2;stroke-linecap:round;stroke-linejoin:round;stroke-miterlimit:4;stroke-dasharray:none;stroke-opacity:1;display:inline"
       id="path1908" />
    <path
       d="M 281.64025,483.68921 C 292.98744,383.30087 397.67746,438.53413 378.03779,542.66841"
       style="fill:none;fill-rule:evenodd;stroke:#eeeeee;stroke-width:5.96672964;stroke-linecap:butt;stroke-linejoin:miter;stroke-miterlimit:4;stroke-dasharray:none;stroke-opacity:1"
       id="path13639" />
    <path
       d="M 154.02824,399.89076 L 160.48074,399.60373"
       style="fill:none;fill-rule:evenodd;stroke:#eeeeee;stroke-width:2;stroke-linecap:butt;stroke-linejoin:miter;stroke-miterlimit:4;stroke-dasharray:none;stroke-opacity:1"
       id="path13641" />
  </g>
  <path
     d="M 93.725195,184.11772 C 94.100235,186.52471 94.287795,188.99418 94.287845,191.52611 C 94.287795,192.0263 94.272175,192.69837 94.240965,193.54233 C 93.803275,193.63615 93.475055,193.68304 93.256295,193.68299 C 93.068695,193.68304 92.802985,193.65178 92.459185,193.58922 C 91.146265,189.93196 89.005015,187.11863 86.035455,185.14926 C 83.065795,183.17999 79.392845,182.19534 75.016625,182.19527 C 72.703415,182.19534 70.749725,182.46103 69.155545,182.99239 C 66.342195,183.96147 63.872735,185.29779 61.747135,187.00136 C 59.621495,188.70504 57.824095,190.73687 56.354945,193.09688 C 54.885745,195.45699 53.721345,198.31719 52.861745,201.6775 C 52.002105,205.0379 51.572285,208.46857 51.572305,211.96956 C 51.572285,218.65903 52.588215,224.18407 54.620055,228.54469 C 56.651895,232.90535 59.433945,236.01562 62.966245,237.87553 C 66.498495,239.73545 70.062025,240.6654 73.656845,240.6654 L 75.860615,240.61851 C 78.361305,240.30593 80.064915,240.00897 80.971475,239.72763 C 83.253355,239.07119 85.136705,238.29754 86.621565,237.40665 C 88.106315,236.51577 89.559855,235.2576 90.982205,233.63212 C 92.404435,232.00665 93.615725,230.11548 94.616075,227.95859 L 95.178745,227.77103 C 95.334975,227.77105 95.569415,227.86482 95.882065,228.05236 C 95.850745,228.80259 95.819485,229.28711 95.788285,229.50591 C 94.475345,234.7887 93.521955,238.39912 92.928085,240.33719 C 92.427875,240.46223 91.802705,240.64978 91.052535,240.89985 C 87.395165,242.15021 82.503135,242.7754 76.376385,242.7754 C 71.437415,242.7754 67.741045,242.43936 65.287235,241.76729 C 62.833355,241.09522 60.160715,240.04804 57.269265,238.62575 C 54.377795,237.20346 51.837995,235.32011 49.649875,232.97567 C 47.461725,230.63125 45.695585,227.66946 44.351455,224.09027 C 43.007305,220.51113 42.335235,216.61156 42.335245,212.39156 C 42.335235,208.39043 42.866635,204.89722 43.929455,201.91195 C 44.992255,198.92675 46.633355,195.90243 48.852765,192.839 C 51.072135,189.77566 53.690085,187.22804 56.706605,185.19615 C 59.723085,183.16436 63.075625,181.72645 66.764225,180.88239 C 69.358695,180.31979 73.031625,180.03845 77.783055,180.0384 C 81.252765,180.03845 84.519345,180.49953 87.582775,181.42162 C 90.646115,182.34382 92.693585,183.24251 93.725195,184.11772 L 93.725195,184.11772 z "
     style="fill:#d40000"
     id="C" />
  <path
     d="M 148.93168,233.72084 C 149.47039,233.50045 150.02135,233.36578 150.58456,233.31681 C 154.33109,233.07193 156.47372,232.62505 157.01244,231.97612 C 157.55115,231.32722 157.82051,228.18675 157.82052,222.55469 L 157.78379,218.69796 L 157.78379,214.65757 L 157.63687,210.21315 L 157.71033,207.60526 L 157.6736,204.74026 L 157.6736,201.36103 L 157.60014,199.85506 L 157.6736,197.94507 C 157.69807,197.50433 157.71032,196.99011 157.71033,196.40237 C 157.71032,194.85972 157.63686,193.23133 157.48994,191.51718 C 157.39198,191.1744 157.25731,190.84383 157.08591,190.52545 C 156.17987,190.06024 154.71676,189.74802 152.69658,189.58881 C 150.67638,189.42969 149.53161,189.25216 149.26226,189.05622 C 149.06636,188.90934 148.95617,188.52979 148.93168,187.91757 L 152.01706,187.91757 L 161.75071,188.13795 C 164.24839,188.138 167.57864,188.06453 171.74148,187.91757 C 171.74146,188.30941 171.71697,188.67671 171.66802,189.01949 C 171.17825,189.14197 170.35793,189.27665 169.20706,189.42353 C 166.88076,189.69293 165.4605,189.95004 164.94629,190.19488 C 164.62794,190.31736 164.39531,190.5255 164.24841,190.81929 C 164.00352,191.26012 163.8566,192.08043 163.80764,193.28026 L 163.62398,198.01853 L 163.77091,214.36372 L 163.77091,220.82834 C 163.72192,222.86078 163.69743,224.24431 163.69744,224.97892 C 163.69743,227.72149 163.76477,229.47232 163.89946,230.23142 C 164.03413,230.99053 164.26675,231.53536 164.59735,231.86593 C 164.92791,232.19651 165.47275,232.45975 166.23187,232.65565 C 167.35826,232.92501 168.2398,233.07193 168.87648,233.09642 C 170.24774,233.1454 171.11703,233.34129 171.48436,233.68411 C 171.5578,234.00244 171.59453,234.2718 171.59456,234.49218 L 171.59456,234.78603 C 169.3662,234.8595 167.72557,234.89623 166.67264,234.89623 C 166.06044,234.89623 164.97076,234.8595 163.4036,234.78603 L 158.33475,234.8595 L 149.70302,234.82276 L 149.00514,234.82276 L 148.93168,233.72084 z "
     style="fill:#d40000"
     id="I" />
  <path
     d="M 174.31263,234.84113 L 174.45955,233.8494 C 174.97378,233.67799 176.06346,233.49434 177.72859,233.29844 C 179.83448,232.8087 181.03436,232.47812 181.32821,232.30671 C 181.76897,232.06184 182.36891,231.5721 183.12802,230.83748 C 184.59724,229.34377 185.74813,228.05819 186.58071,226.98075 C 186.948,226.5155 187.903,225.43807 189.44571,223.74843 C 193.31467,219.43871 196.21639,215.81461 198.1509,212.87613 C 194.37986,207.97872 190.79861,203.10578 187.40715,198.25728 C 184.01567,193.40886 181.87916,190.6663 180.99763,190.02959 C 180.70378,189.80925 179.30801,189.58886 176.81032,189.36844 C 175.87981,189.29501 175.20641,189.22156 174.79013,189.14805 C 174.64321,188.70733 174.56975,188.35227 174.56975,188.08286 L 174.64321,187.67882 C 176.38179,187.6054 177.45923,187.56868 177.87552,187.56863 L 178.86725,187.56863 L 181.32821,187.75228 L 187.49898,188.08286 C 188.67435,188.15636 190.30274,188.19309 192.38417,188.19305 C 192.99633,188.19309 193.81665,188.0829 194.84513,187.86247 C 195.4328,187.76457 195.89806,187.7156 196.2409,187.71555 C 196.53473,187.7156 196.99998,187.76457 197.63667,187.86247 C 197.75908,188.18086 197.8203,188.42572 197.82033,188.59709 L 197.7836,188.8542 C 197.3428,189.02566 196.40617,189.20931 194.97369,189.40516 C 193.54117,189.60111 192.52495,189.81538 191.92504,190.04795 C 191.32508,190.28063 190.90268,190.53162 190.65782,190.80094 C 190.53537,191.19277 190.47415,191.49887 190.47417,191.7192 C 190.47415,191.93964 190.53537,192.1845 190.65782,192.45382 C 191.34345,193.97207 192.99633,196.46975 195.61648,199.9469 L 201.9709,208.32151 C 203.41562,206.58295 204.95831,204.47706 206.59898,202.00382 C 210.24754,196.51873 212.16978,193.55578 212.36571,193.11497 C 212.56157,192.67425 212.65952,192.28245 212.65956,191.93959 C 212.65952,191.47438 212.48811,191.06422 212.14533,190.70911 C 211.80247,190.35409 211.17805,190.09085 210.27206,189.9194 C 208.31305,189.50316 207.16215,189.28278 206.81937,189.25824 C 206.59895,189.18482 206.40305,189.09912 206.23167,189.00113 C 206.03574,188.60938 205.93779,188.30328 205.93783,188.08286 L 206.01129,187.67882 L 213.21052,187.56863 L 220.15264,187.56863 L 223.89918,187.64209 L 224.45014,187.75228 L 224.5236,188.4869 L 220.00571,190.06632 C 218.43849,190.84995 217.459,191.40091 217.06725,191.7192 C 216.28362,192.35591 214.86336,193.91697 212.80648,196.40238 C 210.74952,198.88786 208.77831,201.47739 206.89283,204.17094 C 206.52549,204.68519 205.80312,205.61571 204.72571,206.96248 C 204.1135,207.74609 203.50132,208.59089 202.88917,209.4969 C 202.96261,209.69282 203.08504,209.88872 203.25648,210.08459 L 203.77071,210.74574 L 214.71648,225.43806 C 217.04272,228.64589 218.72009,230.73954 219.7486,231.71902 C 220.38522,232.3312 221.13208,232.78422 221.98918,233.07805 C 222.84618,233.3719 224.48682,233.62902 226.9111,233.8494 C 227.08246,234.26569 227.16816,234.59626 227.16821,234.84113 L 227.13148,235.20844 L 225.88264,235.24517 C 225.51528,235.24517 224.91534,235.1962 224.08283,235.09825 C 222.5156,234.90235 220.45868,234.79216 217.91206,234.76768 L 214.23898,234.69421 L 207.73764,234.95132 C 206.2194,235.09825 205.36235,235.17171 205.16648,235.17171 C 204.92158,235.17171 204.62773,235.14722 204.28494,235.09825 C 204.16248,234.8044 204.10126,234.58402 204.10129,234.4371 C 204.10126,234.31466 204.16248,234.11876 204.28494,233.8494 L 206.3786,233.66575 L 210.45571,232.85767 C 210.87196,232.71075 211.17805,232.39242 211.37398,231.90268 C 211.22702,231.41294 211.05561,231.00889 210.85975,230.69056 C 209.9292,229.07441 208.04981,226.31349 205.22158,222.40776 C 202.39328,218.50207 200.4037,215.8391 199.25283,214.41883 C 198.90998,214.66371 197.40402,216.54922 194.73494,220.07536 C 191.25774,224.65447 189.34775,227.28684 189.00494,227.97248 C 188.51518,228.903 188.27031,229.72332 188.27032,230.43344 C 188.27031,231.33947 188.74781,232.02511 189.70283,232.49036 C 190.36396,232.83319 192.70249,233.31068 196.7184,233.92286 C 196.76735,234.2412 196.79184,234.48607 196.79186,234.65748 C 196.79184,234.77991 196.7796,234.95132 196.75513,235.17171 L 195.61648,235.20844 C 195.10223,235.20844 193.58402,235.03703 191.06186,234.69421 C 186.55621,234.57177 183.40961,234.51055 181.62205,234.51055 C 180.12833,234.51055 178.58564,234.59626 176.99398,234.76768 C 176.16141,234.84113 175.65942,234.87787 175.48802,234.87787 C 175.14519,234.87787 174.7534,234.86562 174.31263,234.84113 L 174.31263,234.84113 z "
     style="fill:#d40000"
     id="X" />
  <path
     d="M 249.55062,1.4395041 L 125.50012,1.4395041 L 1.449569,1.4395041 L 1.449569,174.9361 C 0.68232904,268.65698 81.739009,302.75585 125.5001,302.75585 C 168.49395,302.75585 250.31785,268.65698 249.55062,174.9361 L 249.55062,1.4395041 z "
     style="fill:none;fill-opacity:0;stroke:#000000;stroke-width:1.88832211;stroke-linecap:round;stroke-linejoin:bevel"
     id="Frame" />
</svg>
