<?xml version="1.0" encoding="UTF-8" standalone="no"?>
<!-- Created with Inkscape (http://www.inkscape.org/) -->
<svg
   xmlns:dc="http://purl.org/dc/elements/1.1/"
   xmlns:cc="http://web.resource.org/cc/"
   xmlns:xlink="http://www.w3.org/1999/xlink"
   xmlns:rdf="http://www.w3.org/1999/02/22-rdf-syntax-ns#"
   xmlns:svg="http://www.w3.org/2000/svg"
   xmlns="http://www.w3.org/2000/svg"
   version="1.0"
   width="251"
   height="304.20001"
   id="svg4166">
  <defs
     id="defs4168" />
  <metadata
     id="metadata1880"><rdf:RDF><cc:Work
         rdf:about=""><dc:title>Olofstrom kommunvapen</dc:title><dc:date>03-08-2007</dc:date><dc:creator><cc:Agent><dc:title>Lokal_Profil</dc:title></cc:Agent></dc:creator><cc:license
         rdf:resource="http://creativecommons.org/licenses/by-sa/2.5/" /><dc:rights><cc:Agent><dc:title>cc-by-sa-2.5</dc:title></cc:Agent></dc:rights><dc:format>image/svg+xml</dc:format><dc:type
         rdf:resource="http://purl.org/dc/dcmitype/StillImage" /></cc:Work><cc:License
         rdf:about="http://creativecommons.org/licenses/by-sa/2.5/"><cc:permits
         rdf:resource="http://web.resource.org/cc/Reproduction" /><cc:permits
         rdf:resource="http://web.resource.org/cc/Distribution" /><cc:requires
         rdf:resource="http://web.resource.org/cc/Notice" /><cc:requires
         rdf:resource="http://web.resource.org/cc/Attribution" /><cc:permits
         rdf:resource="http://web.resource.org/cc/DerivativeWorks" /><cc:requires
         rdf:resource="http://web.resource.org/cc/ShareAlike" /></cc:License></rdf:RDF>
  </metadata>
  <path
     d="M 249.55058,1.4395041 L 125.50008,1.4395041 L 1.4495291,1.4395041 L 1.4495291,174.9361 C 0.68228908,268.65698 81.738969,302.75585 125.50006,302.75585 C 168.49391,302.75585 250.31781,268.65698 249.55058,174.9361 L 249.55058,1.4395041 z "
     style="color:#000000;fill:#ffcd50;fill-opacity:1;fill-rule:nonzero;stroke:none;stroke-width:1.88832211;stroke-linecap:round;stroke-linejoin:bevel;marker:none;marker-start:none;marker-mid:none;marker-end:none;stroke-miterlimit:4;stroke-dashoffset:0;stroke-opacity:1;visibility:visible;display:block"
     id="Shield" />
  <g
     transform="matrix(0.463754,0,0,0.463754,44.30593,47.4432)"
     style="fill:#000000"
     id="Smideshamamre">
    <path
       d="M 154.67033,45.089573 L 196.54015,45.089573 C 199.31015,45.089573 201.54015,47.319573 201.54015,50.089573 L 201.54015,343.5988 C 201.54015,343.5988 201.06197,372.41377 175.68075,372.43024 C 149.64617,372.44734 149.67033,343.5988 149.67033,343.5988 L 149.67033,50.089573 C 149.67033,47.319573 151.90033,45.089573 154.67033,45.089573 z "
       style="fill-opacity:1;fill-rule:evenodd;stroke:none;stroke-width:1;stroke-linecap:butt;stroke-miterlimit:4;stroke-opacity:1"
       id="rect1881" />
    <path
       d="M 253.92118,54.806162 C 253.92118,54.806162 86.051067,54.806162 86.051067,54.806162 L 86.051067,122.50919 L 312.46411,122.50919 C 312.46411,122.50919 287.95367,102.76673 253.92118,54.806162 z "
       style="fill:#000000;fill-opacity:1;fill-rule:evenodd;stroke:none;stroke-width:1;stroke-linecap:butt;stroke-miterlimit:4;stroke-opacity:1"
       id="rect1878" />
  </g>
  <path
     d="M -64.551729 106.9138 A 16.54138 16.54138 0 1 1  -97.634489,106.9138 A 16.54138 16.54138 0 1 1  -64.551729 106.9138 z"
     transform="matrix(1.057953,0,0,1.057953,211.2927,-77.35458)"
     style="opacity:1;fill:#000000;fill-opacity:1;fill-rule:evenodd;stroke:none;stroke-width:1;stroke-linecap:butt;stroke-miterlimit:4;stroke-dasharray:none;stroke-opacity:1"
     id="Roundel" />
  <use
     transform="matrix(0.841254,-0.540641,0.540641,0.841254,-55.09404,89.87732)"
     id="use1999"
     x="0"
     y="0"
     width="251"
     height="304.20001"
     xlink:href="#Roundel" />
  <use
     transform="matrix(0.415415,-0.909632,0.909632,0.415415,-52.85076,195.2731)"
     id="use2001"
     x="0"
     y="0"
     width="251"
     height="304.20001"
     xlink:href="#Roundel" />
  <use
     transform="matrix(-0.142315,-0.989821,0.989821,-0.142315,6.017636,282.7248)"
     id="use2003"
     x="0"
     y="0"
     width="251"
     height="304.20001"
     xlink:href="#Roundel" />
  <use
     transform="matrix(-0.654861,-0.755749,0.755749,-0.654861,102.8208,324.4671)"
     id="use2005"
     x="0"
     y="0"
     width="251"
     height="304.20001"
     xlink:href="#Roundel" />
  <use
     transform="matrix(-0.959493,-0.281732,0.281732,-0.959493,206.8244,307.2472)"
     id="use2009"
     x="0"
     y="0"
     width="251"
     height="304.20001"
     xlink:href="#Roundel" />
  <use
     transform="matrix(-0.959493,0.281733,-0.281733,-0.959493,285.0081,236.5323)"
     id="use2011"
     x="0"
     y="0"
     width="251"
     height="304.20001"
     xlink:href="#Roundel" />
  <use
     transform="matrix(-0.654861,0.75575,-0.75575,-0.654861,312.549,134.7738)"
     id="use2013"
     x="0"
     y="0"
     width="251"
     height="304.20001"
     xlink:href="#Roundel" />
  <use
     transform="matrix(-0.142315,0.989822,-0.989822,-0.142315,280.7032,34.27933)"
     id="use2015"
     x="0"
     y="0"
     width="251"
     height="304.20001"
     xlink:href="#Roundel" />
  <use
     transform="matrix(0.415415,0.909633,-0.909633,0.415415,199.5814,-33.04485)"
     id="use2017"
     x="0"
     y="0"
     width="251"
     height="304.20001"
     xlink:href="#Roundel" />
  <use
     transform="matrix(0.841254,0.540642,-0.540642,0.841254,94.93913,-45.82382)"
     id="use2019"
     x="0"
     y="0"
     width="251"
     height="304.20001"
     xlink:href="#Roundel" />
  <path
     d="M 249.55062,1.4395041 L 125.50012,1.4395041 L 1.449569,1.4395041 L 1.449569,174.9361 C 0.68232904,268.65698 81.739009,302.75585 125.5001,302.75585 C 168.49395,302.75585 250.31785,268.65698 249.55062,174.9361 L 249.55062,1.4395041 z "
     style="color:#000000;fill:none;fill-opacity:0;fill-rule:nonzero;stroke:#000000;stroke-width:1.88832211;stroke-linecap:round;stroke-linejoin:bevel;marker:none;marker-start:none;marker-mid:none;marker-end:none;stroke-miterlimit:4;stroke-dashoffset:0;stroke-opacity:1;visibility:visible;display:block"
     id="Frame" />
</svg>
