<?xml version="1.0" encoding="UTF-8" standalone="no"?>
<!-- Created with Inkscape (http://www.inkscape.org/) -->

<svg
   xmlns:dc="http://purl.org/dc/elements/1.1/"
   xmlns:cc="http://web.resource.org/cc/"
   xmlns:rdf="http://www.w3.org/1999/02/22-rdf-syntax-ns#"
   xmlns:svg="http://www.w3.org/2000/svg"
   xmlns="http://www.w3.org/2000/svg"
   version="1.0"
   width="251"
   height="304.20001"
   id="svg4166">
  <defs
     id="defs4168" />
  <metadata
     id="metadata1880"><rdf:RDF><cc:Work
         rdf:about=""><dc:title>Karlskrona kommunvapen</dc:title><dc:date>07-10-2007</dc:date><dc:creator><cc:Agent><dc:title>Marmelad</dc:title></cc:Agent></dc:creator><cc:license
         rdf:resource="http://creativecommons.org/licenses/by-sa/2.5/" /><dc:rights><cc:Agent><dc:title>cc-by-sa-2.5</dc:title></cc:Agent></dc:rights><dc:format>image/svg+xml</dc:format><dc:type
         rdf:resource="http://purl.org/dc/dcmitype/StillImage" /></cc:Work><cc:License
         rdf:about="http://creativecommons.org/licenses/by-sa/2.5/"><cc:permits
         rdf:resource="http://web.resource.org/cc/Reproduction" /><cc:permits
         rdf:resource="http://web.resource.org/cc/Distribution" /><cc:requires
         rdf:resource="http://web.resource.org/cc/Notice" /><cc:requires
         rdf:resource="http://web.resource.org/cc/Attribution" /><cc:permits
         rdf:resource="http://web.resource.org/cc/DerivativeWorks" /><cc:requires
         rdf:resource="http://web.resource.org/cc/ShareAlike" /></cc:License></rdf:RDF>
  </metadata>
  <path
     d="m 249.55058,1.4395041 -248.1010509,0 0,173.4965959 C 0.68228908,268.65698 81.738969,302.75585 125.50006,302.75585 c 42.99385,0 124.81775,-34.09887 124.05052,-127.81975 l 0,-173.4965959 z"
     id="Shield"
     style="color:#000000;fill:#003d8f;fill-opacity:1;stroke:none" />
  <text
     x="37.636395"
     y="184.68098"
     id="text-X"
     xml:space="preserve"
     style="font-size:43.59793472px;font-style:normal;font-weight:normal;fill:#ffcd50;fill-opacity:1;stroke:none;font-family:Times New Roman"><tspan
       x="37.636395"
       y="184.68098"
       id="tspan3373">X</tspan></text>
  <text
     x="191.43344"
     y="184.68098"
     id="tex I"
     xml:space="preserve"
     style="font-size:43.59793472px;font-style:normal;font-weight:normal;fill:#ffcd50;fill-opacity:1;stroke:none;font-family:Times New Roman"><tspan
       x="191.43344"
       y="184.68098"
       id="tspan3377">I</tspan></text>
  <path
     d="m 125.03783,62.284958 c -0.105,0.01633 -0.20541,0.05143 -0.30972,0.06883 -8.245,0.476086 -15.12321,5.663243 -17.86065,12.801854 -4.02145,8.706979 -1.30425,19.475161 10.97793,25.087501 l 0,14.00633 -40.917757,0 c -2.412827,0 -2.156063,12.61255 -0.344136,12.6642 l 40.848933,-0.10324 c 0.0458,9.74923 0.15884,19.50243 0.0344,29.25155 -0.46008,20.13813 -0.84513,40.28772 -1.03241,60.43026 -0.0827,10.9088 -0.47034,21.34648 -0.89475,23.22917 -1.5996,7.09606 -6.06303,8.04818 -19.856641,4.26728 -14.34494,-3.93197 -32.17176,-12.62985 -35.170687,-17.20679 -2.384096,-3.63867 -2.789846,-6.8027 -1.066821,-8.70664 0.85904,-0.94923 2.154258,-1.50831 2.856328,-1.23889 0.776304,0.29784 1.574292,-0.31152 2.064815,-1.61743 1.726659,-4.597 -4.031687,-11.42078 -15.382873,-18.17038 -2.758957,-1.64056 -7.255386,-5.14637 -10.014354,-7.81188 -2.894827,-2.79673 -5.43347,-4.57571 -6.022378,-4.19846 -1.832377,1.1738 -5.593094,9.6698 -6.745063,15.24522 -2.315797,11.20816 0.631625,27.75318 6.091205,34.24152 2.88202,3.42504 4.490219,3.46228 5.162038,0.10324 1.183728,-5.91866 8.562156,-4.23292 16.587349,3.81991 6.351449,6.37331 18.409099,15.5991 23.676547,18.10154 2.006493,0.95325 4.896034,2.50034 6.400929,3.44136 1.504859,0.941 6.035747,2.82591 10.048767,4.19846 8.407199,2.87551 18.229609,7.97186 22.127939,11.45972 1.48096,1.32499 5.26876,3.74612 6.74506,4.85232 2.00847,1.45121 2.9094,1.21949 4.88673,0 1.47631,-1.1062 5.29852,-3.52733 6.77948,-4.85232 3.89833,-3.48786 13.72073,-8.58421 22.12793,-11.45972 4.01303,-1.37255 8.54391,-3.25746 10.04877,-4.19846 1.50488,-0.94102 4.39442,-2.48811 6.40093,-3.44136 5.26745,-2.50244 17.3251,-11.72823 23.67655,-18.10154 8.02518,-8.05283 15.36919,-9.73857 16.55293,-3.81991 0.67183,3.35904 2.28004,3.3218 5.16204,-0.10324 5.45958,-6.48834 8.44141,-23.03336 6.12562,-34.24152 -1.15197,-5.57542 -4.9127,-14.07142 -6.74506,-15.24522 -0.5889,-0.37725 -3.12757,1.40173 -6.02238,4.19846 -2.75897,2.66551 -7.25541,6.17132 -10.01436,7.81188 -11.35118,6.7496 -17.10951,13.57338 -15.38287,18.17038 0.49052,1.30591 1.2885,1.91527 2.06482,1.61743 0.70206,-0.26942 1.96287,0.28966 2.82191,1.23889 1.72301,1.90394 1.35168,5.06797 -1.03241,8.70664 -2.99892,4.57694 -20.82576,13.27482 -35.17068,17.20679 -13.79361,3.7809 -18.25705,2.82878 -19.85664,-4.26728 -0.4244,-1.88269 -0.81203,-12.32037 -0.89476,-23.22917 -0.18728,-20.14254 -0.60674,-40.29213 -1.06682,-60.43026 -0.12443,-9.74912 0.023,-19.50232 0.0688,-29.25155 l 40.84893,0.10324 c 1.81193,-0.0516 2.06868,-12.6642 -0.34414,-12.6642 l -40.91775,0 0,-14.00633 c 12.18066,-5.565945 14.95853,-16.212286 11.08117,-24.881019 -2.67831,-7.242095 -9.64616,-12.520049 -17.96389,-13.008336 -0.1061,-0.01772 -0.2029,-0.05221 -0.30972,-0.06883 -0.16188,0 -0.32081,0.0308 -0.48179,0.03441 -0.15206,-0.0032 -0.29452,-0.03441 -0.44738,-0.03441 z m 0.44738,9.532563 c 4.44638,0 8.21014,2.832002 9.46373,6.71065 0.19286,0.596715 0.34549,1.217734 0.41297,1.858333 0.0337,0.320306 0.0345,0.634708 0.0344,0.963581 1e-4,0.328873 -6.8e-4,0.677689 -0.0344,0.997994 -0.0675,0.640599 -0.22011,1.261618 -0.41297,1.858334 -1.25359,3.878659 -5.01734,6.676235 -9.46373,6.676235 -4.10439,1.1e-5 -7.61618,-2.396011 -9.1196,-5.815896 -0.25058,-0.569977 -0.45321,-1.169247 -0.58503,-1.789506 -0.13183,-0.62026 -0.17227,-1.269405 -0.17207,-1.927161 -2e-4,-0.657757 0.0402,-1.306902 0.17207,-1.927161 0.13182,-0.620259 0.33445,-1.219529 0.58503,-1.789507 1.50342,-3.419884 5.01522,-5.815896 9.1196,-5.815896 z"
     id="Anchor"
     style="fill:#ffcd50;fill-opacity:1;fill-rule:evenodd;stroke:none" />
  <g
     id="Monogram">
    <path
       d="m 169.35249,140.40521 1.93066,28.71086 -1.93066,0 c -2.5743,-8.59451 -6.24878,-14.78093 -11.02347,-18.5593 -4.77484,-3.77821 -10.50454,-5.66735 -17.18916,-5.66743 -5.60519,8e-5 -10.67058,1.42212 -15.1962,4.26614 -4.52567,2.84417 -8.08598,7.3802 -10.68093,13.60808 -2.595,6.22801 -3.89249,13.97142 -3.89248,23.23026 -1e-5,7.63965 1.22482,14.26203 3.67449,19.86717 2.44965,5.60516 6.13452,9.90245 11.05463,12.89185 4.92004,2.98942 10.53557,4.48413 16.8466,4.48413 5.48055,0 10.31758,-1.17293 14.51113,-3.5188 4.19342,-2.34585 8.8021,-7.00642 13.82605,-13.98174 l 1.93066,1.24558 c -4.23508,7.51508 -9.17591,13.01643 -14.82252,16.50408 -5.64673,3.48765 -12.35216,5.23148 -20.11628,5.23148 -13.99216,0 -24.82879,-5.18996 -32.50991,-15.56989 -5.72973,-7.72263 -8.594578,-16.81543 -8.594578,-27.27842 0,-8.42845 1.889138,-16.17186 5.667438,-23.23026 3.77828,-7.05828 8.97862,-12.52849 15.60102,-16.41066 6.62236,-3.882 13.85716,-5.82305 21.70441,-5.82313 6.10335,8e-5 12.12369,1.49479 18.06107,4.48413 1.74376,0.91351 2.98934,1.37022 3.73676,1.37014 1.12097,8e-5 2.09668,-0.39436 2.92714,-1.18331 1.07944,-1.12095 1.84755,-2.67793 2.30435,-4.67096 l 2.17978,0 z"
       id="text2383"
       style="font-size:92.82542419px;font-style:normal;font-weight:normal;fill:#ffcd50;fill-opacity:1;stroke:#003d8f;stroke-width:1.37406814px;stroke-linecap:butt;stroke-linejoin:miter;stroke-opacity:1;font-family:Times New Roman" />
    <path
       d="m 81.64765,140.40521 -1.93066,28.71086 1.93066,0 c 2.5743,-8.59451 6.24878,-14.78093 11.02347,-18.5593 4.77484,-3.77821 10.50454,-5.66735 17.18916,-5.66743 5.60519,8e-5 10.67058,1.42212 15.1962,4.26614 4.52567,2.84417 8.08598,7.3802 10.68093,13.60808 2.595,6.22801 3.89249,13.97142 3.89248,23.23026 1e-5,7.63965 -1.22482,14.26203 -3.67449,19.86717 -2.44965,5.60516 -6.13452,9.90245 -11.05463,12.89185 -4.92004,2.98942 -10.53557,4.48413 -16.8466,4.48413 -5.48055,0 -10.31758,-1.17293 -14.51113,-3.5188 -4.19342,-2.34585 -8.8021,-7.00642 -13.82605,-13.98174 l -1.93066,1.24558 c 4.23508,7.51508 9.17591,13.01643 14.82252,16.50408 5.64673,3.48765 12.35216,5.23148 20.11628,5.23148 13.99216,0 24.82879,-5.18996 32.50991,-15.56989 5.72973,-7.72263 8.59458,-16.81543 8.59458,-27.27842 0,-8.42845 -1.88914,-16.17186 -5.66744,-23.23026 -3.77828,-7.05828 -8.97862,-12.52849 -15.60102,-16.41066 -6.62236,-3.882 -13.85716,-5.82305 -21.70441,-5.82313 -6.10335,8e-5 -12.12369,1.49479 -18.06107,4.48413 -1.74376,0.91351 -2.98934,1.37022 -3.73676,1.37014 -1.12097,8e-5 -2.09668,-0.39436 -2.92714,-1.18331 -1.07944,-1.12095 -1.84755,-2.67793 -2.30435,-4.67096 l -2.17978,0 z"
       id="use3356"
       style="font-size:92.82542419px;font-style:normal;font-weight:normal;fill:#ffcd50;fill-opacity:1;stroke:#003d8f;stroke-width:1.37406814px;stroke-linecap:butt;stroke-linejoin:miter;stroke-opacity:1;font-family:Times New Roman" />
    <path
       d="m 97.170522,185.86926 c 0,-8.42845 1.889138,-16.17186 5.667438,-23.23026 3.77828,-7.05828 8.97862,-12.52849 15.60102,-16.41066 6.62236,-3.882 13.85716,-5.82305 21.70441,-5.82313 6.10335,8e-5 12.12369,1.49479 18.06107,4.48413 1.74376,0.91351 2.98934,1.37022 3.73676,1.37014 1.12097,8e-5 2.09668,-0.39436 2.92714,-1.18331 1.07944,-1.12095 1.84755,-2.67793 2.30435,-4.67096 l 2.17978,0 1.93066,28.71086 -1.93066,0 c -2.5743,-8.59451 -6.24878,-14.78093 -11.02347,-18.5593 -4.77484,-3.77821 -10.50454,-5.66735 -17.18916,-5.66743 -5.60519,8e-5 -10.67058,1.42212 -15.1962,4.26614 -4.52567,2.84417 -8.08598,7.3802 -10.68093,13.60808 -2.595,6.22801 -3.89249,13.97142 -3.89248,23.23026"
       id="path4468"
       style="font-size:92.82542419px;font-style:normal;font-weight:normal;fill:#ffcd50;fill-opacity:1;stroke:#003d8f;stroke-width:1.37406814px;stroke-linecap:butt;stroke-linejoin:miter;stroke-opacity:1;font-family:Times New Roman" />
  </g>
  <g
     id="Kunglig-krona">
    <path
       d="m 125.28762,20.212114 c -14.06932,6.9593 -35.651563,8.776764 -32.240942,26.219475 L 96.83973,67.48303 c -10e-7,-10e-7 11.39967,-8.238271 29.68064,-8.238273 18.46167,0 26.45654,8.238273 26.45654,8.238273 1.85987,-6.963 5.78229,-15.421824 6.59043,-21.810051 3.6502,-15.301981 -18.61314,-20.764262 -31.57717,-25.460865 l 0,2.038765 c 8.5642,4.62082 31.36238,9.666473 28.59014,23.090207 -0.34487,0.07279 -0.64748,0.239755 -0.85344,0.474132 -1.01269,1.15242 0.18965,4.788729 0.18965,4.788729 0,1e-6 -5.21948,-4.073408 -5.12062,1.327568 0.0929,5.126619 4.93097,0.806025 4.93097,0.806024 0.0611,1.94216 -0.9567,4.023553 -2.79738,4.836142 0,-2e-6 -2.84675,-1.276456 -7.11197,-2.655137 -1.44514,-1.018568 -2.37384,-2.563547 -2.79738,-4.314597 0,0 5.14132,4.650951 5.12063,-0.90085 -0.0182,-4.895476 -4.88356,-1.232744 -4.88356,-1.232742 0,-2e-6 3.32281,-5.500004 -1.32757,-5.499926 -4.68593,7.5e-5 -1.23274,5.499926 -1.23274,5.499926 0,-2e-6 -5.06655,-4.184587 -4.78873,1.137915 0.25084,4.853251 4.74131,0.995677 4.74132,0.995677 -0.0139,0.958483 -0.25057,1.852912 -0.66379,2.655137 -3.29012,-0.791844 -6.97002,-1.482642 -10.71537,-1.706874 -0.61599,-0.94791 -1.08761,-1.981723 -1.37498,-3.081855 0,0 5.07351,4.107645 5.21544,-0.90085 0.16073,-5.671494 -5.12062,-1.232742 -5.12062,-1.232742 1.815,-2.62431 2.59659,-5.499926 -1.37498,-5.499926 -4.18924,0 -3.42787,2.906191 -1.56463,5.499926 0,0 -5.23395,-4.438753 -5.07321,1.232742 0.14194,5.008497 5.16803,0.90085 5.16803,0.90085 -0.26373,1.116265 -0.75929,2.137571 -1.37498,3.081855 -3.74535,0.224232 -7.42524,0.91503 -10.71537,1.706874 -0.38431,-0.811315 -0.56757,-1.712436 -0.61637,-2.655137 0,0 4.44305,3.857572 4.6939,-0.995677 0.27782,-5.3225 -4.74131,-1.137915 -4.74131,-1.137915 -1e-5,-2e-6 3.40577,-5.499849 -1.28016,-5.499926 -4.65038,-7.8e-5 -1.32757,5.499926 -1.32757,5.499926 0,-2e-6 -4.86534,-3.662736 -4.88355,1.232742 -0.0207,5.551803 5.12062,0.90085 5.12062,0.90085 -0.37071,1.840351 -1.44259,3.329135 -2.93962,4.36201 -2.36365,0.756521 -4.66849,1.680621 -6.96973,2.607724 -1.86211,-0.852865 -2.81471,-2.864799 -2.797378,-4.836142 10e-7,1e-6 4.838058,4.320598 4.930968,-0.806024 0.0989,-5.400977 -5.120621,-1.327568 -5.120621,-1.327568 -10e-7,1e-6 1.105297,-2.316302 0.189653,-4.788729 -0.30588,-0.355626 -0.82721,-0.509588 -1.422395,-0.521545 C 93.735994,33.345474 116.99681,24.78592 125.28762,22.250879 l 0,-2.038765 z"
       id="path4130"
       style="fill:#ffcd50;fill-opacity:1;fill-rule:evenodd;stroke:none" />
    <path
       d="m 109.31513,43.59693 c -3.59222,-11.619698 8.03899,-17.491664 15.55326,-23.660654 l 0,1.680985 c -5.8557,6.137446 -13.57588,12.271362 -12.29214,21.912429 l -3.26112,0.06724 z"
       id="path3157"
       style="fill:#ffcd50;fill-opacity:1;fill-rule:evenodd;stroke:none" />
    <path
       d="m 143.65138,43.99264 c 3.59186,-11.61465 -7.77234,-17.879332 -15.27557,-24.056364 l 0,1.680985 c 6.08478,6.437896 13.63811,12.635922 12.01445,22.308139 l 3.26112,0.06724 z"
       id="path4128"
       style="fill:#ffcd50;fill-opacity:1;fill-rule:evenodd;stroke:none" />
    <path
       d="m 124.71903,21.146534 3.61585,0 0,20.418758 -3.61585,0 0,-20.418758 z"
       id="rect3155"
       style="fill:#ffcd50;fill-opacity:1;stroke:none" />
    <path
       d="m 124.9832,4.8254344 0,3.7136046 -3.12608,0 0,2.875906 3.12608,0 0,4.949509 2.86916,0 0,-4.952458 3.34441,0 0,-2.8759074 -3.34441,0 0,-3.7106542 -2.86916,0 z"
       id="rect7058"
       style="fill:#ffcd50;fill-opacity:1;stroke:none" />
    <path
       d="m 132.11371,21.75596 c 0,3.085387 -2.5012,5.586588 -5.58659,5.586588 -3.08539,0 -5.58659,-2.501201 -5.58659,-5.586588 0,-3.085388 2.5012,-5.586588 5.58659,-5.586588 3.08539,0 5.58659,2.5012 5.58659,5.586588 z"
       id="path5109"
       style="fill:#ffcd50;fill-opacity:1;stroke:none" />
  </g>
  <path
     d="m 249.55062,1.4395041 -248.101051,0 0,173.4965959 c -0.76723996,93.72088 80.28944,127.81975 124.050531,127.81975 42.99385,0 124.81775,-34.09887 124.05052,-127.81975 l 0,-173.4965959 z"
     id="Frame"
     style="fill:none;stroke:#000000;stroke-width:1.88832211;stroke-linejoin:bevel" />
</svg>
