<?xml version="1.0" encoding="UTF-8" standalone="no"?>
<!-- Created with Inkscape (http://www.inkscape.org/) -->

<svg
   xmlns:dc="http://purl.org/dc/elements/1.1/"
   xmlns:cc="http://web.resource.org/cc/"
   xmlns:rdf="http://www.w3.org/1999/02/22-rdf-syntax-ns#"
   xmlns:svg="http://www.w3.org/2000/svg"
   xmlns="http://www.w3.org/2000/svg"
   xmlns:xlink="http://www.w3.org/1999/xlink"
   version="1.0"
   width="251"
   height="304.20001"
   id="svg4166">
  <defs
     id="defs4168" />
  <metadata 
     id="metadata1880"><rdf:RDF><cc:Work
         rdf:about=""><dc:title>Solvesborgs kommunvapen</dc:title><dc:date>2011-05-08</dc:date><dc:creator><cc:Agent><dc:title>Lokal_Profil</dc:title></cc:Agent></dc:creator><cc:license
         rdf:resource="http://creativecommons.org/licenses/by-sa/2.5/" /><dc:rights><cc:Agent><dc:title>cc-by-sa-2.5</dc:title></cc:Agent></dc:rights><dc:format>image/svg+xml</dc:format><dc:type
         rdf:resource="http://purl.org/dc/dcmitype/StillImage" /></cc:Work><cc:License
         rdf:about="http://creativecommons.org/licenses/by-sa/2.5/"><cc:permits
         rdf:resource="http://web.resource.org/cc/Reproduction" /><cc:permits
         rdf:resource="http://web.resource.org/cc/Distribution" /><cc:requires
         rdf:resource="http://web.resource.org/cc/Notice" /><cc:requires
         rdf:resource="http://web.resource.org/cc/Attribution" /><cc:permits
         rdf:resource="http://web.resource.org/cc/DerivativeWorks" /><cc:requires
         rdf:resource="http://web.resource.org/cc/ShareAlike" /></cc:License></rdf:RDF>
  </metadata>
  <path
     d="m 249.55058,1.4395041 -124.0505,0 -124.0505509,0 0,173.4965959 C 0.68228908,268.65698 81.738969,302.75585 125.50006,302.75585 c 42.99385,0 124.81775,-34.09887 124.05052,-127.81975 l 0,-173.4965959 z"
     id="Shield"
     style="fill:#ffcd50" />
  <path
     d="m 113.11568,9.2000122 0,107.5499578 -107.61568,0 0,24.83438 107.61568,0 0,107.61566 24.83438,0 0,-107.61566 107.54994,0 0,-24.83438 -107.54994,0 0,-107.5499578 -24.83438,0 z"
     id="Greek-Cross"
     style="fill:#d40000" />
  <g
     transform="matrix(0.64935385,0,0,0.64935385,-290.94347,-130.72444)"
     id="Eel"
     style="fill:#003d8f;stroke:#ffcd50">
    <path
       d="m 533.80312,236.75992 c 0,0 11.09815,-5.56579 16.5298,-5.58542 19.37527,-0.07 40.29319,6.10938 52.02359,21.53026 11.85271,15.58169 15.44269,35.18536 3.67958,50.8348 -16.74786,22.28108 -30.92713,18.64138 -49.74036,18.79416 -19.2906,0.15665 -66.22429,-18.8138 -60.66587,-0.39626 3.22975,10.70163 48.71773,9.53611 64.76058,14.8504 14.7269,4.87837 26.55071,16.09424 22.27856,33.36457 -10.62172,-12.21412 -23.85796,-16.6345 -35.14765,-17.98582 -16.66797,-1.99507 -33.04694,0.23529 -51.36315,-3.6607 -13.55316,-2.88286 -22.99704,-11.89346 -26.62506,-25.26644 -3.37608,-12.44435 -0.0268,-21.26282 9.7556,-29.66308 9.51593,-8.17143 24.57407,-9.82084 37.11658,-9.71786 16.98227,0.13944 43.75192,12.23504 55.53333,8.20829 6.39589,-2.18603 15.77523,-10.20864 -1.60391,-22.96434 -1.93354,-1.41915 -6.58843,-9.44127 -8.52907,-10.92552 0,0 -28.00255,-21.41704 -28.00255,-21.41704 z"
       id="eel-fin"
       style="fill:#d40000" />
    <path
       d="m 499.35,241.37043 c 45.2276,-10.71274 80.30031,-7.51754 100.46617,16.28376 5.54866,6.54896 8.56189,19.01451 7.31755,28.99738 -1.24435,9.98287 -6.69329,17.43782 -12.76891,23.08394 -27.35126,25.41774 -98.27056,-16.357 -102.50388,5.91235 -5.29562,27.8576 57.39647,13.20849 78.98497,31.59398 4.25011,3.61954 9.01674,10.97986 8.61654,14.36091 -5.49928,-6.95564 -10.02851,-7.66932 -15.797,-10.05264 -26.72905,-11.04344 -66.14727,3.49176 -84.72932,-18.66917 -7.38814,-8.81109 -8.84614,-23.30622 -0.92197,-31.63853 31.14922,-32.75359 86.26301,11.12044 102.88438,-8.73139 10.84749,-12.95577 -0.96829,-27.90263 -20.80986,-32.82987 -19.84157,-4.92724 -42.82481,-6.51838 -59.19632,2.86731 0,0 -1.54235,-21.17803 -1.54235,-21.17803 z"
       id="eel-main" />
    <path
       d="m 579.10912,360.64851 c -9.98785,-19.53645 -41.8917,-18.08192 -49.42901,-18.71868 -16.12904,-1.36261 -40.05315,-0.70774 -45.91926,-15.79388 -3.69961,-9.51445 -0.44373,-24.29366 14.62397,-26.9081 29.06095,-5.04245 67.9207,21.7561 90.37612,2.63232 10.36933,-8.83087 9.9778,-26.94914 2.04735,-38.02232 -14.10048,-19.6883 -49.42901,-18.71868 -70.78,-16.37885 l -16.68068,3.7743"
       id="eel-marking"
       style="fill:none" />
    <g
       id="g4010">
      <path
         d="m 499.30808,241.28949 c 3.4872,3.37177 10.32967,13.16833 1.30131,21.38901 -4.29751,2.34716 -15.81016,1.05635 -35.68523,-5.61087 -0.0468,-0.93524 4.48584,-1.16183 9.63768,0.83587 -4.07572,-1.46608 -5.26434,-2.2678 -9.59036,-1.09293 -1.43151,-1.70745 26.98338,-16.84403 34.3366,-15.52108 z"
         id="eel-head" />
      <path
         d="m 492.06171,249.65421 c 0,1.45748 -1.18152,2.63899 -2.63899,2.63899 -1.45747,0 -2.63899,-1.18151 -2.63899,-2.63899 0,-1.45747 1.18152,-2.63898 2.63899,-2.63898 1.45747,0 2.63899,1.18151 2.63899,2.63898 z"
         id="eel-eye"
         style="fill:#ffcd50;stroke:none" />
    </g>
    <path
       d="m 506.1354,247.45685 c 3.95097,-2.44027 15.39968,-5.68549 19.86303,-0.86321 -5.05901,4.93331 -11.05037,7.76029 -16.51315,6.67455 1.39991,-2.34705 1.06798,-4.41197 -3.34988,-5.81134 z"
       id="eel-gill-fin"
       style="fill:#d40000" />
  </g>
  <use
     transform="matrix(-1,0,0,1,251.0662,-1.03032e-7)"
     id="Eel2"
     x="0"
     y="0"
     width="251"
     height="304.20001"
     xlink:href="#Eel" />
  <g
     transform="matrix(0.64935385,0,0,-0.64935385,-289.8759,390.12609)"
     id="Eel3"
     style="fill:#003d8f;stroke:#ffcd50">
    <path
       d="m 533.80312,236.75992 c 0,0 11.09815,-5.56579 16.5298,-5.58542 19.37527,-0.07 40.29319,6.10938 52.02359,21.53026 11.85271,15.58169 15.44269,35.18536 3.67958,50.8348 -16.74786,22.28108 -30.92713,18.64138 -49.74036,18.79416 -19.2906,0.15665 -66.22429,-18.8138 -60.66587,-0.39626 3.22975,10.70163 48.71773,9.53611 64.76058,14.8504 14.7269,4.87837 26.55071,16.09424 22.27856,33.36457 -10.62172,-12.21412 -23.85796,-16.6345 -35.14765,-17.98582 -16.66797,-1.99507 -33.04694,0.23529 -51.36315,-3.6607 -13.55316,-2.88286 -22.99704,-11.89346 -26.62506,-25.26644 -3.37608,-12.44435 -0.0268,-21.26282 9.7556,-29.66308 9.51593,-8.17143 24.57407,-9.82084 37.11658,-9.71786 16.98227,0.13944 43.75192,12.23504 55.53333,8.20829 6.39589,-2.18603 15.77523,-10.20864 -1.60391,-22.96434 -1.93354,-1.41915 -6.58843,-9.44127 -8.52907,-10.92552 0,0 -28.00255,-21.41704 -28.00255,-21.41704 z"
       id="path3998"
       style="fill:#d40000" />
    <path
       d="m 499.35,241.37043 c 45.2276,-10.71274 80.30031,-7.51754 100.46617,16.28376 5.54866,6.54896 8.56189,19.01451 7.31755,28.99738 -1.24435,9.98287 -6.69329,17.43782 -12.76891,23.08394 -27.35126,25.41774 -98.27056,-16.357 -102.50388,5.91235 -5.29562,27.8576 57.39647,13.20849 78.98497,31.59398 4.25011,3.61954 9.01674,10.97986 8.61654,14.36091 -5.49928,-6.95564 -10.02851,-7.66932 -15.797,-10.05264 -26.72905,-11.04344 -66.14727,3.49176 -84.72932,-18.66917 -7.38814,-8.81109 -8.84614,-23.30622 -0.92197,-31.63853 31.14922,-32.75359 86.26301,11.12044 102.88438,-8.73139 10.84749,-12.95577 -0.96829,-27.90263 -20.80986,-32.82987 -19.84157,-4.92724 -42.82481,-6.51838 -59.19632,2.86731 0,0 -1.54235,-21.17803 -1.54235,-21.17803 z"
       id="path4000" />
    <path
       d="m 579.10912,360.64851 c -9.98785,-19.53645 -41.8917,-18.08192 -49.42901,-18.71868 -16.12904,-1.36261 -40.05315,-0.70774 -45.91926,-15.79388 -3.69961,-9.51445 -0.44373,-24.29366 14.62397,-26.9081 29.06095,-5.04245 67.9207,21.7561 90.37612,2.63232 10.36933,-8.83087 9.9778,-26.94914 2.04735,-38.02232 -14.10048,-19.6883 -49.42901,-18.71868 -70.78,-16.37885 l -16.68068,3.7743"
       id="path4002"
       style="fill:none" />
    <path
       d="m 508.91853,253.52088 c 4.58674,0.7259 16.40076,-0.69999 18.65657,-6.87151 -6.5713,-2.59795 -13.18954,-2.89293 -17.80974,0.21747 2.19744,1.6247 2.68837,3.65771 -0.84683,6.65404 z"
       id="path4008"
       style="fill:#d40000;stroke-width:1" />
    <use
       transform="matrix(0.966482,-0.2567344,-0.2567344,-0.966482,82.834647,623.96148)"
       id="use4014"
       style="fill:#003d8f;stroke:#ffcd50"
       x="0"
       y="0"
       width="1"
       height="1"
       xlink:href="#g4010" />
  </g>
  <use
     transform="matrix(-1,0,0,1,251.06632,0)"
     id="Eel4"
     x="0"
     y="0"
     width="251"
     height="304.20001"
     xlink:href="#Eel3" />
  <path
     d="m 249.55062,1.4395041 -124.0505,0 -124.050551,0 0,173.4965959 c -0.76723996,93.72088 80.28944,127.81975 124.050531,127.81975 42.99385,0 124.81775,-34.09887 124.05052,-127.81975 l 0,-173.4965959 z"
     id="Frame"
     style="fill:none;stroke:#000000;stroke-width:1.88832211;stroke-linejoin:bevel" />
</svg>
