<?xml version="1.0" encoding="UTF-8" standalone="no"?>
<!-- Created with Inkscape (http://www.inkscape.org/) -->
<svg
   xmlns:dc="http://purl.org/dc/elements/1.1/"
   xmlns:cc="http://web.resource.org/cc/"
   xmlns:rdf="http://www.w3.org/1999/02/22-rdf-syntax-ns#"
   xmlns:svg="http://www.w3.org/2000/svg"
   xmlns="http://www.w3.org/2000/svg"
   version="1.0"
   width="251"
   height="304.20001"
   id="svg4166">
  <defs
     id="defs4168" />
  <metadata
     id="metadata1880"><rdf:RDF><cc:Work
         rdf:about=""><dc:title>Staffanstorp kommunvapen</dc:title><dc:date>19-05-2007</dc:date><dc:creator><cc:Agent><dc:title>Lokal_Profil</dc:title></cc:Agent></dc:creator><cc:license
         rdf:resource="http://creativecommons.org/licenses/by-sa/2.5/" /><dc:rights><cc:Agent><dc:title>cc-by-sa-2.5</dc:title></cc:Agent></dc:rights><dc:format>image/svg+xml</dc:format><dc:type
         rdf:resource="http://purl.org/dc/dcmitype/StillImage" /></cc:Work><cc:License
         rdf:about="http://creativecommons.org/licenses/by-sa/2.5/"><cc:permits
         rdf:resource="http://web.resource.org/cc/Reproduction" /><cc:permits
         rdf:resource="http://web.resource.org/cc/Distribution" /><cc:requires
         rdf:resource="http://web.resource.org/cc/Notice" /><cc:requires
         rdf:resource="http://web.resource.org/cc/Attribution" /><cc:permits
         rdf:resource="http://web.resource.org/cc/DerivativeWorks" /><cc:requires
         rdf:resource="http://web.resource.org/cc/ShareAlike" /></cc:License></rdf:RDF>
  </metadata>
  <path
     d="M 249.55058,1.4395041 L 125.50008,1.4395041 L 1.4495291,1.4395041 L 1.4495291,174.9361 C 0.68228908,268.65698 81.738969,302.75585 125.50006,302.75585 C 168.49391,302.75585 250.31781,268.65698 249.55058,174.9361 L 249.55058,1.4395041 z "
     style="fill:#ffcd50;stroke:none"
     id="Shield" />
  <path
     d="M 249.55062,1.4395041 L 125.50012,1.4395041 L 1.449569,1.4395041 L 1.449569,174.9361 C 0.68232904,268.65698 81.739009,302.75585 125.5001,302.75585 C 168.49395,302.75585 250.31785,268.65698 249.55062,174.9361 L 249.55062,1.4395041 z "
     style="fill:none;fill-opacity:0;stroke:#000000;stroke-width:1.88832211;stroke-linecap:round"
     id="Frame" />
  <g
     transform="matrix(0.470884,0,0,0.470884,271.2275,-0.407492)"
     style="fill:#d40000;stroke:#ffcd50;stroke-width:1"
     id="lion">
    <path
       d="M -94.5896,36.7689 C -96.3896,34.9689 -98.5896,33.5689 -101.0896,32.3689 C -101.2886,32.2689 -101.4886,32.1689 -101.6896,32.1689 C -103.7896,31.1689 -106.0896,30.4689 -108.5896,29.9689 C -113.3896,29.4689 -117.8896,30.6689 -122.0896,33.4689 C -126.0896,37.4689 -127.1896,41.0689 -125.3896,44.2689 L -124.8896,44.0689 C -123.1896,39.4689 -118.7886,36.7689 -111.6896,36.1689 C -108.5896,36.2689 -106.0896,36.7689 -103.9896,37.7689 C -102.3896,38.5689 -101.1896,39.5689 -100.1896,40.9689 C -99.9896,41.2689 -99.7896,41.6689 -99.5896,41.9689 C -99.2886,42.5689 -99.0896,43.2689 -98.8896,43.8689 C -97.7886,51.8689 -99.6896,58.0689 -104.5896,62.3689 C -110.6896,67.9689 -118.2886,69.6689 -127.2886,67.5689 C -136.1886,65.3689 -143.3896,66.3689 -148.6886,70.4689 C -148.6886,70.4689 -148.7886,70.4689 -148.7886,70.5689 C -152.8896,74.4689 -155.8896,79.1689 -157.8896,84.5689 C -155.8896,79.1689 -152.8896,74.4689 -148.7886,70.5689 L -148.6886,70.4689 C -150.5886,61.4689 -155.2886,54.7689 -162.7886,50.1689 C -167.9886,48.3689 -173.7886,47.7689 -180.0896,48.4689 L -180.1896,48.4689 C -189.1896,49.8689 -194.5896,54.2689 -196.3896,61.6689 C -197.5896,67.1689 -196.0896,71.6689 -191.7886,75.4689 C -189.0896,77.1689 -186.0896,77.3689 -182.6886,75.8689 C -188.6886,73.8689 -190.5886,70.3689 -188.4886,65.3689 C -186.9886,63.3689 -184.0896,62.2689 -179.8886,62.0689 C -175.8886,62.2689 -172.7876,64.0689 -170.3886,67.3689 C -167.7876,73.3689 -166.9886,78.5689 -168.0886,83.1689 C -168.5886,84.9689 -169.3886,86.6689 -170.3886,88.2689 C -182.1886,104.6689 -189.1886,122.8689 -191.4886,142.7689 C -192.6886,158.4689 -192.9886,169.8689 -192.2886,177.0689 C -192.0896,179.5689 -191.7886,182.2689 -191.4886,185.0689 C -190.7886,190.3689 -189.8886,196.0689 -188.6886,202.3689 C -186.8886,212.0689 -182.1886,226.0689 -174.6886,244.1689 C -170.9886,253.7689 -166.1886,260.9689 -160.0886,265.7689 C -158.2876,267.0689 -156.5886,268.2689 -155.0886,269.6689 C -150.0886,274.0689 -147.2876,278.6689 -146.5886,283.3689 C -148.7876,278.2689 -152.6886,275.1689 -158.4876,274.0689 C -159.3876,273.7689 -160.3876,273.5689 -161.2876,273.4689 C -166.0886,272.8689 -170.7876,273.3689 -175.4876,274.8689 C -178.4876,275.1689 -181.3876,275.0689 -183.8876,274.5689 C -189.1876,273.5689 -193.4876,270.7689 -196.8876,266.5689 C -200.1876,261.0689 -198.7866,255.1689 -192.5876,249.1689 C -199.2866,250.2689 -203.8876,253.8689 -206.2866,259.8689 C -207.8876,265.4689 -207.6866,270.3689 -205.6866,274.6689 C -200.8866,281.5689 -194.8866,284.8689 -187.7866,284.4689 C -187.2866,284.4689 -186.7866,284.3689 -186.2866,284.3689 C -186.7866,284.6689 -187.2866,285.0689 -187.7866,285.3689 C -192.4866,288.4689 -198.1866,290.7689 -204.8876,292.2689 C -200.2866,295.3689 -194.5876,295.5689 -187.6876,292.6689 C -197.4876,299.8689 -200.7876,308.1689 -197.6876,317.3689 C -193.1876,327.2689 -185.8876,331.8689 -175.6876,331.1689 L -175.5876,331.1689 C -175.4866,331.1689 -175.2866,331.1689 -175.0876,331.1689 C -174.1876,331.0689 -173.1876,330.8689 -172.1876,330.7689 C -164.2876,327.5689 -160.7876,323.5689 -161.8876,318.5689 L -161.8876,318.5689 C -164.9876,323.0689 -169.3876,324.9689 -175.2866,324.3689 C -182.1866,322.1689 -185.5876,317.4689 -185.4866,310.0689 C -184.5876,305.5689 -182.6866,302.1689 -179.8866,299.7689 C -176.3866,296.7689 -171.5866,295.2689 -165.2856,295.1689 C -149.9856,296.5689 -140.4856,301.9689 -136.6856,311.0689 C -133.3856,320.7689 -132.8856,329.7689 -135.1856,338.0689 C -139.3856,349.4689 -148.1856,358.0689 -161.2856,363.7689 C -169.5866,366.5699 -177.2856,367.8699 -184.5866,367.6689 C -191.8866,367.4689 -198.6866,365.8689 -205.0866,362.6689 C -213.0866,357.3689 -220.9856,352.3689 -228.5866,347.8689 C -228.6866,347.7679 -228.7856,347.6689 -228.9856,347.5689 C -238.7856,340.8689 -246.9856,331.4679 -253.3856,319.4679 C -257.0856,312.5679 -259.5856,305.6679 -260.6856,298.5679 C -260.7856,298.4679 -260.7856,298.3679 -260.7856,298.2679 C -261.5866,289.6679 -263.2856,281.0679 -265.8866,272.5679 L -265.3866,272.1679 C -261.3866,275.7679 -257.3866,277.5679 -253.2856,277.4679 C -259.9856,271.4679 -264.5866,264.5679 -267.1856,256.6679 C -267.1856,256.0679 -267.2856,255.3679 -267.2856,254.7679 L -268.0896,254.7679 C -271.5896,256.6679 -275.6896,257.4679 -280.5896,257.2679 C -285.8896,256.6679 -290.3896,254.8679 -294.0896,251.8679 C -297.7886,248.7679 -300.6896,244.3679 -302.5896,238.5679 C -304.9886,240.2679 -307.4886,241.5679 -309.9886,242.4679 C -310.0886,242.5679 -310.1886,242.7679 -310.2886,243.0679 C -315.2886,251.3679 -322.1886,257.5679 -330.9886,261.5679 C -333.1886,262.4679 -335.4886,263.2679 -337.7886,264.0679 C -336.1886,262.2679 -334.8886,260.5679 -333.8886,258.7679 C -331.4886,254.5679 -330.7886,250.2679 -331.6886,246.0679 C -335.3886,246.8679 -338.5886,248.3679 -341.1886,250.5679 C -342.2886,251.4679 -343.2886,252.5679 -344.1886,253.6679 C -349.5886,259.3679 -349.6886,265.4679 -344.4886,271.9679 C -348.3886,272.4679 -351.2886,271.4679 -353.2886,268.8679 C -353.9886,268.0679 -354.4886,267.0679 -354.9886,265.8679 C -355.0886,265.5679 -355.1886,265.3679 -355.2886,265.1679 C -356.9886,259.5679 -355.3886,253.8679 -350.2886,248.1679 C -349.3886,247.1679 -348.3886,246.1679 -347.2886,245.2679 C -356.1886,248.5679 -361.1886,253.8679 -362.1886,261.4679 C -361.4886,265.2679 -359.9886,268.6679 -357.6886,271.8679 C -357.5886,272.0679 -357.4886,272.1679 -357.2886,272.3679 C -356.4886,273.5679 -355.4886,274.6679 -354.2886,275.7679 C -354.2886,275.8679 -354.1886,275.9679 -354.0886,276.0679 C -361.3886,274.3679 -367.2886,270.2679 -371.5886,263.6679 C -373.8886,259.4679 -374.1886,254.0679 -372.2886,247.5679 C -372.2886,247.4679 -372.2886,247.3679 -372.1886,247.2679 C -371.6886,245.3679 -370.9886,243.3679 -370.0886,241.2679 L -380.5886,248.5679 C -384.9886,251.0679 -390.2886,252.1679 -396.3886,252.0679 L -396.4886,252.0679 C -399.8886,252.5679 -402.9886,253.2679 -405.7886,254.3679 C -411.0886,256.4679 -415.6886,259.6679 -419.3886,264.0679 C -422.3886,261.8679 -423.0886,258.7679 -421.4886,254.6679 C -420.5886,253.3679 -419.7886,252.1679 -418.8886,251.0679 L -423.8886,252.3679 L -458.5886,286.5679 C -460.1886,288.0679 -460.4886,289.5679 -459.4886,290.8679 C -465.2886,291.0679 -469.6886,292.7679 -472.8886,295.9679 C -474.1886,297.5679 -475.5886,298.9679 -477.1886,300.3679 C -480.9886,303.9679 -485.5886,307.2679 -490.9886,310.2679 C -493.5886,311.5679 -496.1886,312.0679 -498.9886,312.0679 C -500.7886,312.0679 -502.5886,311.6679 -504.3886,311.0679 L -504.8886,311.0679 L -512.2886,309.5679 C -516.4886,309.2679 -518.8886,310.1679 -519.6886,312.2679 C -519.7886,312.8679 -519.7886,313.3679 -519.6886,313.8679 C -519.3886,315.0679 -518.3886,315.7679 -516.7886,316.0679 C -512.1886,316.6679 -509.6886,317.9679 -509.2886,319.8679 C -508.0886,323.1679 -508.7886,325.5679 -511.4886,326.8679 C -510.2886,331.9679 -506.7886,335.3679 -500.9886,336.9679 C -500.6886,332.3679 -498.5886,329.5679 -494.4886,328.2679 L -489.0886,334.5679 L -482.6886,328.4679 C -480.3886,325.5679 -479.5886,322.1679 -480.1886,318.2679 C -479.5886,322.1679 -480.3886,325.5679 -482.6886,328.4679 L -489.0886,334.5679 C -491.7886,338.3679 -493.4886,342.1679 -494.1886,345.9679 L -491.4886,351.3679 C -490.2886,348.1679 -487.4886,346.7669 -483.1886,347.3679 C -478.9886,348.7669 -476.5886,351.3679 -476.1886,355.1679 C -473.3886,357.2679 -468.8886,357.7679 -462.8886,356.5679 C -465.6886,353.8679 -467.5886,350.7669 -468.3886,347.3679 C -468.3886,347.3679 -468.3886,347.3679 -468.4886,347.2669 C -468.7886,345.6669 -468.9886,343.9669 -468.9886,342.2669 C -468.9886,343.9669 -468.7886,345.6669 -468.4886,347.2669 L -467.0886,347.0679 C -462.9886,344.0679 -458.4886,343.2669 -453.7886,344.6679 C -448.0886,338.8679 -444.8886,333.0679 -443.9886,327.3679 C -443.9886,327.3679 -443.8886,327.3679 -443.7886,327.2679 C -441.0886,335.6679 -434.4886,337.6679 -423.8886,333.2679 C -431.9886,333.9679 -433.4886,331.1679 -428.3886,324.9679 C -428.1886,325.0679 -427.9886,325.0679 -427.8886,325.0679 C -422.9886,323.0679 -420.3886,320.2679 -420.1886,316.7679 C -420.1886,316.3679 -420.1886,315.9679 -420.2886,315.5679 C -420.0886,315.8679 -419.9886,316.1679 -419.7886,316.5679 C -419.7886,316.5679 -419.7886,316.5679 -419.7886,316.6679 C -417.6886,321.1679 -415.8886,322.8679 -414.2886,321.9679 C -413.2886,314.0679 -410.9886,308.5679 -407.4886,305.0679 C -407.8886,314.5679 -405.2886,319.6679 -399.7886,320.5679 C -398.9886,315.0679 -397.9886,310.3679 -396.4886,306.5679 C -396.4886,306.2679 -396.3886,306.1679 -396.2886,306.0679 C -394.3886,300.8679 -391.8886,297.1679 -388.6886,294.8679 C -388.3886,299.1679 -389.5886,303.5679 -392.3886,307.9679 C -387.0886,305.8679 -382.6886,302.5679 -379.1886,298.0679 C -376.6886,293.8679 -375.4886,289.1679 -375.7886,284.1679 C -370.0886,294.6679 -370.2886,304.5679 -376.3886,313.5679 L -359.7886,300.4679 C -358.0886,299.0679 -356.2886,297.7679 -354.4886,296.6679 C -347.2886,292.1679 -339.3886,289.6679 -330.8886,289.3679 C -339.3886,289.6679 -347.2886,292.1679 -354.4886,296.6679 C -356.2886,297.7679 -358.0886,299.0679 -359.7886,300.4679 C -358.5886,308.2679 -359.6886,314.0679 -363.1886,317.9679 C -357.0886,318.5679 -352.5886,314.8679 -349.6886,306.7679 C -349.3886,306.0679 -349.1886,305.4679 -348.9886,304.7679 C -350.5886,312.0679 -348.9886,317.1679 -344.0886,320.2679 C -334.1886,324.8679 -323.7886,327.9679 -313.0886,329.7679 C -311.5886,330.0679 -310.1886,330.4679 -308.6886,331.0679 C -307.6886,331.4679 -306.5886,331.8679 -305.5886,332.4679 C -304.3886,333.0679 -303.2876,333.6679 -302.1886,334.4679 C -297.2886,337.6679 -293.0886,342.2679 -289.4886,348.1679 C -288.1886,344.8679 -288.3886,340.7679 -289.8886,336.1679 C -292.0886,332.7679 -294.5886,329.9679 -297.1886,327.6679 C -298.8886,326.2679 -300.5886,325.0679 -302.4886,324.0679 C -300.5896,325.0679 -298.8886,326.2679 -297.1886,327.6679 C -294.5886,329.9679 -292.0886,332.7679 -289.8886,336.1679 C -288.3886,340.7679 -288.1886,344.8679 -289.4886,348.1679 C -289.6886,348.2679 -289.6886,348.2679 -289.6886,348.4679 C -291.7886,352.3679 -293.0886,356.5689 -293.3886,361.1679 C -293.5886,361.8679 -293.5886,362.6679 -293.5886,363.4679 C -293.6886,366.2679 -293.4876,369.1679 -292.8886,372.2679 C -291.0886,376.4679 -290.3886,380.3689 -290.7876,383.8689 C -291.1876,387.1689 -292.5886,390.1689 -294.8886,392.9689 C -295.0886,393.1689 -295.2876,393.4689 -295.5886,393.7689 C -303.3886,400.5699 -309.2886,407.2689 -313.1886,413.9689 C -317.2886,421.6689 -319.7886,429.3689 -320.6886,436.9689 C -321.2886,444.8689 -321.5886,451.4689 -321.5886,456.7689 C -321.5886,459.6689 -322.5886,462.0699 -324.6886,464.1689 C -326.7886,466.1689 -329.9886,467.6689 -334.2886,468.7689 C -338.1886,469.7689 -341.6886,469.7689 -344.6886,468.7689 C -348.0886,467.4689 -350.4886,465.3699 -351.7886,462.5699 C -352.2886,461.5699 -352.5886,460.5699 -352.8886,459.3699 C -353.8886,453.9699 -351.7886,448.7689 -346.6886,443.5699 C -352.1886,444.6699 -356.6886,447.1699 -360.1886,451.2689 C -362.5886,456.3699 -363.2886,461.1689 -361.9886,465.3699 C -361.8886,465.8699 -361.6886,466.2689 -361.4886,466.7689 C -359.3886,472.1689 -356.1886,476.0699 -352.1886,478.3699 C -344.3886,481.2689 -336.4886,481.6699 -328.3886,479.4699 C -328.2886,479.3699 -328.0886,479.3699 -327.9886,479.3699 C -323.8886,477.1699 -320.4886,474.7689 -317.6886,471.9699 C -317.4886,471.7699 -317.2886,471.5709 -317.0886,471.3699 C -316.8886,471.1699 -316.7886,470.9699 -316.5886,470.8699 C -315.2886,469.2689 -314.0886,467.6699 -313.0886,465.9699 C -311.9886,463.9699 -311.0886,461.7699 -310.3886,459.4699 C -311.0886,461.7699 -311.9886,463.9699 -313.0886,465.9699 C -315.3886,472.6699 -316.8886,478.8699 -317.4886,484.4699 C -317.4886,484.5709 -317.4886,484.5709 -317.4886,484.6699 C -313.9886,480.4699 -310.4886,477.6699 -307.0896,476.1699 C -305.1896,485.4699 -304.8896,492.6699 -306.2886,497.9699 C -308.1886,504.5709 -310.5886,509.3699 -313.2886,512.1699 C -312.0886,512.3699 -310.8886,512.2699 -309.6886,511.8699 C -309.5886,511.8699 -309.5886,511.8699 -309.5886,511.8699 C -305.8886,510.7689 -302.1886,507.5699 -298.3886,502.2689 C -294.8886,497.6689 -293.1886,492.1689 -293.3886,485.6689 C -293.5886,482.0689 -293.9886,479.0689 -294.7876,476.5689 C -295.0886,475.7679 -295.3886,475.0689 -295.6876,474.4679 C -296.1876,473.4679 -296.7876,472.5689 -297.3876,471.8679 C -296.7866,472.5679 -296.1876,473.4679 -295.6876,474.4679 C -295.1876,475.0689 -294.6876,475.7679 -294.1876,476.3679 C -289.7876,481.7669 -284.6876,484.4679 -278.8876,484.3679 L -273.2376,483.12042 L -267.5876,481.4679 C -271.0876,481.5689 -274.0876,481.1679 -276.8876,480.2679 C -280.6876,479.0689 -283.8876,476.9679 -286.5876,473.9679 C -283.8876,476.9679 -280.6876,479.0689 -276.8876,480.2679 C -274.0876,481.1679 -271.0876,481.5689 -267.5876,481.4679 C -263.8876,479.4679 -261.5876,476.5689 -260.4866,472.6679 C -261.5876,476.5679 -263.8866,479.4679 -267.5876,481.4679 C -269.8876,482.6679 -272.77681,482.97497 -276.0876,483.86766 C -276.64793,484.01874 -277.25965,484.12201 -277.8876,484.1689 C -272.0876,495.6689 -260.5876,502.4689 -243.2866,504.7689 C -241.4866,504.9689 -239.5876,505.1689 -237.5876,505.2689 C -239.5876,505.1689 -241.4866,504.9689 -243.2866,504.7689 C -252.1866,516.9689 -258.0876,529.2689 -260.7866,541.5699 C -262.7866,548.7689 -264.2866,556.2689 -265.2866,563.8699 C -265.9866,564.7689 -266.7866,565.5699 -267.7866,566.2689 C -268.3876,566.5699 -269.0876,566.9689 -269.7866,567.2689 C -271.6866,568.0699 -274.0876,568.6689 -276.8876,568.8699 C -279.9876,568.6699 -282.6876,567.2689 -285.2866,564.7689 C -288.4866,564.2689 -292.0876,564.2689 -295.8876,564.7689 C -297.8876,565.5699 -298.5876,566.9689 -297.9876,568.8699 L -297.8876,568.8699 C -295.5876,569.5699 -293.8876,571.2689 -292.8876,574.0699 C -292.3876,576.8699 -292.5876,579.5699 -293.5876,582.0699 C -293.6876,582.2689 -293.7866,582.4689 -293.8876,582.7689 L -293.8876,582.7689 C -295.1876,586.7689 -295.0876,590.3699 -293.5876,593.5699 C -285.7866,592.0699 -281.5876,587.9689 -280.7866,581.2689 C -279.9866,585.0699 -278.2866,587.1689 -275.7866,587.5699 C -275.5876,587.5699 -275.5876,587.5699 -275.3876,587.5699 L -275.2866,587.5699 C -273.0876,582.8699 -269.5876,579.0699 -264.9866,576.1699 C -264.2866,575.7699 -263.5876,575.2699 -262.8866,574.9699 C -262.1866,574.5709 -261.3866,574.2699 -260.6866,573.8699 C -261.3866,574.2689 -262.1866,574.5699 -262.8866,574.9699 C -263.5866,575.2699 -264.2856,575.7699 -264.9866,576.1699 C -269.5876,579.0699 -273.0876,582.8699 -275.2866,587.5699 L -275.3896,587.5699 L -275.2886,587.8699 L -275.8896,588.0699 C -278.2886,590.1699 -278.8896,592.2689 -277.6896,594.3699 L -277.5896,594.5699 C -276.2886,593.9689 -275.0896,593.4689 -273.7886,593.1699 C -271.3896,592.4699 -269.0896,592.1699 -266.6886,592.2699 C -263.8886,594.0709 -261.7886,596.0709 -260.1886,598.2699 C -260.0886,598.2699 -260.0886,598.3709 -260.0886,598.4699 C -259.0886,599.7699 -258.3886,601.2699 -257.7876,602.7699 L -257.2876,603.1699 C -250.6876,601.9699 -248.2876,599.2699 -250.2876,595.2699 C -250.3886,595.0709 -250.4876,594.9699 -250.5886,594.7699 C -250.7876,594.3709 -251.0886,593.9699 -251.2876,593.5709 L -255.0896,589.7689 L -251.2886,593.5699 C -251.0896,593.9689 -250.7886,594.3699 -250.5896,594.7689 L -243.0896,589.9689 C -240.6896,587.6689 -239.0896,585.0699 -238.0896,582.2689 C -237.8896,578.0699 -239.8896,575.2689 -244.0896,573.6689 C -239.8896,575.2689 -237.8896,578.0689 -238.0896,582.2689 C -239.0896,585.0699 -240.6896,587.6689 -243.0896,589.9689 L -242.5896,590.5699 C -242.4886,590.8699 -242.2886,591.1699 -242.1896,591.5699 C -241.1896,593.4689 -239.5896,594.8699 -237.0896,595.6699 C -232.7886,594.0699 -229.8896,592.1699 -228.4886,590.1699 C -229.0896,587.0699 -228.0896,584.3699 -225.6886,582.0699 C -223.2886,580.4689 -220.7886,579.5699 -218.1886,579.4689 C -216.5886,579.5699 -214.8886,580.4689 -213.3886,582.2689 C -213.2876,582.2689 -213.2876,582.2689 -213.1886,582.1689 C -211.1886,581.7689 -210.2886,580.8689 -210.5886,579.4689 C -210.2876,576.9689 -210.5886,574.4689 -211.3886,571.9689 C -211.5886,571.7689 -211.5886,571.5699 -211.6886,571.3689 C -212.0886,570.0689 -212.6886,568.8689 -213.4886,567.6689 C -213.6886,567.2689 -213.8886,566.9689 -214.1886,566.6689 C -214.2886,566.4689 -214.4886,566.3689 -214.5886,566.0689 C -214.5886,566.0689 -214.5886,566.0689 -214.5886,565.9679 C -218.3886,562.7679 -222.5886,560.3679 -227.2876,559.0689 C -222.5886,560.3689 -218.3886,562.7679 -214.5886,565.9679 C -214.5886,566.0689 -214.5886,566.0689 -214.5886,566.0689 C -214.5886,566.0689 -214.5886,566.0689 -214.4876,566.1689 C -214.3876,566.2689 -214.2876,566.4689 -214.1876,566.6689 C -213.9876,566.7689 -213.7876,566.8689 -213.5876,566.9689 C -212.6876,567.5699 -211.7866,568.0699 -210.8876,568.4689 C -210.5876,568.6689 -210.0876,568.8689 -209.6876,568.9689 C -206.5876,570.2689 -200.9876,569.7689 -192.9876,567.6689 C -199.8876,565.7689 -203.8876,562.9689 -205.0886,559.5689 C -206.7876,555.7679 -207.4876,551.8689 -207.0886,547.5689 C -207.0886,547.0689 -207.0886,546.5689 -207.0886,545.8689 C -207.1886,545.0689 -207.2876,544.2679 -207.5886,543.2679 C -208.5886,541.8689 -210.8886,540.3689 -214.6886,538.8689 C -210.8886,540.3689 -208.5886,541.8689 -207.5886,543.2679 C -206.6886,543.8689 -205.8886,544.5689 -205.0886,545.4679 C -202.1886,548.6679 -199.6886,553.2679 -197.6886,559.4679 C -193.5886,553.2679 -192.2886,546.8679 -193.6886,540.2679 C -193.7886,540.2679 -193.8886,540.1679 -193.9886,540.0689 C -194.0896,539.3689 -194.1886,538.7679 -194.3886,538.0689 C -195.0886,535.5689 -196.1886,533.3689 -197.9886,531.4679 C -199.7886,529.4679 -202.2886,527.7679 -205.2886,526.3679 C -202.2886,527.7669 -199.7886,529.4679 -197.9886,531.4679 C -196.1886,533.3679 -195.0896,535.5689 -194.3886,538.0689 C -194.1886,538.7679 -194.0886,539.3689 -193.9886,540.0689 C -193.8886,540.1689 -193.7886,540.2679 -193.6886,540.2679 C -189.1886,542.3689 -184.6886,542.9679 -180.1886,541.7679 C -174.9886,539.6679 -171.3886,537.2679 -169.3886,534.3689 C -172.4886,534.7679 -175.2876,534.9689 -177.7876,534.7679 C -177.8886,534.7679 -177.8886,534.7679 -177.9876,534.7679 C -182.1876,534.3689 -185.7876,533.0689 -188.7876,530.9679 C -189.0886,530.7679 -189.2876,530.5689 -189.4876,530.3679 C -189.4876,530.3679 -189.5886,530.2669 -189.5886,530.1679 L -189.6886,530.1679 C -190.6886,529.2679 -191.5886,528.3679 -192.2886,527.3679 C -194.5896,524.4679 -195.6886,521.1679 -195.5896,517.3679 L -195.2886,516.7669 C -188.3896,518.4669 -182.4886,523.3679 -177.4886,531.4669 C -174.4886,524.8669 -179.3886,515.8669 -192.0896,504.2669 C -186.7886,505.2669 -182.9886,507.0679 -180.4886,509.8679 C -178.3886,507.7669 -177.9886,505.2669 -179.3886,502.6679 C -181.6886,496.7679 -185.7876,492.5679 -191.7876,490.2679 C -185.6876,492.4679 -179.7876,494.1679 -173.9876,495.3689 C -172.2876,495.6689 -170.5886,495.9689 -168.9876,496.2679 C -159.4876,496.2679 -153.6876,493.2679 -151.7876,487.2679 C -154.2876,488.1679 -156.6876,488.7679 -158.8886,489.2679 C -159.0886,489.2679 -159.1886,489.2679 -159.2876,489.2679 C -159.3886,489.3689 -159.4876,489.3689 -159.4876,489.3689 C -164.6876,490.2679 -168.7876,489.9689 -172.0886,488.4689 C -172.2876,488.2689 -172.4876,488.1689 -172.6886,488.0699 C -178.4886,485.2689 -182.2886,481.1699 -184.1886,475.6699 C -180.3886,472.8699 -176.1886,472.2699 -171.5886,473.7699 C -165.9876,476.2699 -162.1886,479.7699 -160.0886,483.9699 C -157.4876,477.3699 -159.5886,471.4699 -166.3886,466.3699 C -166.8886,466.1699 -167.3886,465.9699 -167.7876,465.6699 C -175.4876,462.0699 -183.6876,461.6699 -192.4876,464.6699 C -183.4876,460.8699 -176.6876,455.9699 -171.9876,450.1699 C -170.3876,446.5699 -170.7876,443.4699 -173.0886,440.9699 C -178.1886,447.0709 -185.6886,451.0709 -195.5886,452.7699 C -201.6886,452.8709 -206.8886,451.7699 -211.0886,449.2699 C -202.7876,447.1699 -198.3886,442.3709 -197.8886,434.9699 C -198.1886,435.2699 -198.4886,435.5709 -198.6886,435.8699 C -198.9886,436.1699 -199.2886,436.3699 -199.5886,436.6699 C -203.3886,440.1699 -207.9876,441.8699 -213.2876,441.8699 C -213.3886,441.8699 -213.4876,441.8699 -213.5886,441.8699 C -213.8886,441.8699 -214.1886,441.8699 -214.4876,441.8699 C -215.6876,441.7689 -217.0886,441.6699 -218.2876,441.3699 C -224.8886,437.8699 -228.5886,432.9699 -229.3886,426.8699 C -225.4886,431.6699 -220.2876,434.1699 -213.8886,434.4699 C -210.0886,433.9699 -207.4886,432.6699 -205.9886,430.6699 C -205.6886,430.2699 -205.3886,429.7699 -205.1886,429.3699 C -207.6886,429.5699 -210.0886,429.3699 -212.2886,428.6699 C -220.7886,425.9699 -228.0896,416.3699 -233.7886,399.8699 C -233.7886,399.7689 -233.8896,399.6699 -233.8896,399.5699 C -233.8896,399.5699 -233.8896,399.5699 -233.8896,399.6699 C -233.7886,399.6699 -233.6896,399.7699 -233.6896,399.8699 C -228.7896,407.8699 -222.8896,411.2689 -215.7896,409.9699 C -219.1896,406.2699 -221.8906,401.5709 -223.9896,395.8699 C -226.0906,390.0699 -227.3896,383.3699 -228.1896,375.6699 C -228.3896,373.3699 -228.5896,370.8699 -228.5896,368.3699 L -228.5896,363.3699 C -227.7886,364.1699 -226.9886,365.0699 -226.0896,365.8699 C -225.0896,366.9699 -223.8896,367.9699 -222.7886,368.9699 C -212.5896,377.2689 -199.8896,381.1689 -184.5896,380.5689 C -184.4886,380.5689 -184.2886,380.5689 -184.1896,380.5689 C -183.9896,380.5689 -183.7896,380.5689 -183.5896,380.5689 C -183.3896,380.5689 -183.2886,380.5689 -183.0896,380.5689 C -182.9886,380.5689 -182.7886,380.5689 -182.5896,380.5689 C -164.3896,380.8689 -148.2886,374.9679 -134.3896,362.6689 C -118.4896,348.8689 -110.4896,328.0689 -110.2886,300.5689 C -109.6886,295.6689 -107.9886,293.0689 -104.8896,292.3689 C -102.4896,291.8689 -99.1896,292.7689 -95.0896,295.1689 C -93.4886,288.5689 -96.9886,284.8689 -105.6896,283.8689 L -105.7896,283.8689 C -105.9896,283.8689 -106.0906,283.8689 -106.2896,283.8689 C -111.6896,284.8689 -115.6896,287.4689 -118.1896,291.5689 C -118.5896,292.2689 -118.9896,293.0689 -119.2896,293.7689 C -118.9896,293.0689 -118.5906,292.2689 -118.1896,291.5689 C -115.6896,287.4689 -111.6896,284.8689 -106.2896,283.8689 C -106.0906,283.7689 -105.9896,283.7689 -105.7896,283.7689 L -105.7896,283.7689 C -92.6896,269.3689 -87.7896,259.2689 -90.7896,253.6689 C -92.7896,249.0689 -95.9896,246.0689 -100.4896,244.4689 C -94.2896,251.3689 -96.7896,257.4689 -107.8896,262.6689 C -117.9896,266.0689 -124.1896,274.1689 -126.4896,286.8689 C -129.2896,276.3689 -133.1896,268.3689 -138.3896,262.9689 C -144.6896,256.6689 -151.0896,247.1689 -157.3896,234.3689 C -160.7886,225.7689 -162.4896,217.8689 -162.3896,210.7689 C -162.2886,208.8689 -162.1896,207.2689 -161.8896,205.7689 C -161.8896,205.6689 -161.8896,205.5689 -161.8896,205.5689 C -160.9896,201.0689 -158.8896,197.7689 -155.6896,195.7689 C -151.4896,192.9689 -146.4896,192.8689 -140.7896,195.5689 C -138.5906,197.9689 -138.7896,200.2689 -141.2896,202.2689 C -135.4896,201.6689 -133.2896,199.2689 -134.5906,195.0689 C -135.2896,193.9689 -136.0906,192.9689 -136.9896,192.0689 C -141.6896,187.1689 -148.6896,185.7689 -158.0906,187.5689 C -158.2896,187.6689 -158.4896,187.7689 -158.6906,187.7689 C -158.9906,187.8689 -159.2906,187.9689 -159.5906,188.1689 C -165.4896,190.6689 -168.9896,195.6689 -170.2896,203.2689 L -170.2896,203.3689 C -174.4896,187.1689 -175.9896,169.8689 -174.6896,151.2689 C -173.8896,141.1689 -169.6896,131.1689 -162.0896,121.1689 C -152.4886,111.8689 -144.3896,107.2689 -137.8896,107.5689 C -131.3896,107.7689 -125.1896,109.8689 -119.1896,113.7689 C -113.2896,117.7689 -110.6896,124.7689 -111.4896,134.7689 C -112.2896,141.1689 -116.2896,146.1689 -123.2896,149.7689 C -123.5906,149.8689 -123.8906,150.0689 -124.1896,150.2689 C -125.2896,150.7689 -126.6896,151.3689 -128.3896,151.8689 C -129.0896,152.0689 -129.7886,152.2689 -130.5896,152.4689 C -133.6896,153.3689 -136.7886,152.2689 -139.9886,149.2689 C -141.9886,146.7689 -142.4886,142.9689 -141.4886,137.9689 C -147.7886,144.9689 -148.0896,151.3689 -142.5896,157.3689 C -138.1896,162.2689 -132.4886,163.1689 -125.5896,160.2689 C -124.0896,159.6689 -122.3896,158.7689 -120.6896,157.6689 C -122.3896,158.7689 -124.0896,159.6689 -125.5896,160.2689 C -133.2896,170.5689 -129.7896,176.5689 -115.1896,178.1689 C -113.6896,178.2689 -112.0896,178.4689 -110.2896,178.4689 C -121.2896,177.0689 -124.0906,173.4689 -118.4896,167.6689 C -117.6896,166.7689 -116.5906,165.7689 -115.3896,164.7689 C -114.4896,164.0689 -113.4896,163.2689 -112.3896,162.5689 C -95.1896,151.0689 -88.7886,136.1689 -93.0896,117.8689 C -96.9886,106.5689 -104.4886,97.8689 -115.3896,91.8689 C -117.2886,90.8689 -119.1896,89.8689 -121.1896,89.0689 C -125.0896,88.9689 -128.8896,89.1689 -132.3896,89.5689 C -135.6896,90.3689 -138.1896,91.3689 -140.0896,92.6689 C -138.1896,91.3689 -135.6896,90.3689 -132.3896,89.5689 C -128.8896,89.1689 -125.0896,88.9689 -121.1896,89.0689 C -118.8896,89.0689 -116.4896,89.2689 -113.9896,89.4689 C -108.2896,89.6689 -103.3896,87.7689 -99.3896,83.7689 C -92.6896,76.4689 -88.5896,68.2689 -87.2886,59.1689 C -86.9886,53.0689 -88.3896,46.9689 -91.4886,40.6689 C -91.4886,40.5689 -91.5896,40.4689 -91.5896,40.3689 C -91.9886,39.8689 -92.3896,39.2689 -92.7886,38.7689 C -92.9886,38.5689 -93.0896,38.3689 -93.1886,38.2689 C -93.6896,37.6689 -94.0896,37.1689 -94.5896,36.7689 z "
       id="path3413" />
    <path
       d="M -355.89437,158.75056 C -356.39625,159.66857 -357.33433,160.27473 -358.68819,160.56905 C -360.58819,159.86906 -362.48819,159.36905 -364.38819,158.96905 C -371.28818,157.36905 -378.18818,157.06905 -385.08818,158.26905 C -385.18818,158.26906 -385.38818,158.26905 -385.48818,158.26905 C -386.08818,158.36906 -386.58818,158.46905 -387.08818,158.56905 C -393.58818,155.86905 -397.08818,151.16905 -397.28818,144.56905 C -403.18818,147.16905 -405.68818,151.06905 -405.08818,156.16905 C -401.38818,164.36906 -394.28818,168.56905 -383.98818,168.86905 C -383.68819,168.86905 -383.38818,168.86905 -383.18818,168.86905 C -383.38818,168.86905 -383.68818,168.86905 -383.98818,168.96905 C -397.98819,171.26906 -406.68818,177.36905 -410.08818,187.26905 C -413.98817,193.76905 -419.68818,193.16905 -427.08817,185.26905 C -426.58817,186.36905 -425.98818,187.46905 -425.48818,188.56905 C -423.58818,191.96905 -421.38817,195.16905 -419.08818,197.96904 C -418.98817,198.06904 -418.98818,198.06904 -418.98818,198.16905 C -415.88818,201.76904 -412.38818,204.76903 -408.38818,207.26903 C -408.48817,202.26904 -406.88818,198.26905 -403.48818,195.36904 C -402.88819,194.66905 -402.08818,194.16904 -401.18818,193.56904 C -402.08819,194.16904 -402.88818,194.66905 -403.48818,195.36904 C -406.88819,198.26905 -408.48818,202.26904 -408.38818,207.26903 C -408.88817,212.66905 -411.18818,216.76904 -415.48818,219.46904 C -419.88817,222.16905 -423.58817,221.96904 -426.78817,218.96905 C -427.18817,218.66904 -427.48818,218.26905 -427.78817,217.86903 C -428.78818,216.46903 -428.98818,214.86904 -428.28817,213.26905 C -418.22447,205.14625 -430.47577,207.79163 -432.08817,211.86904 C -432.98817,212.96904 -433.68817,214.26904 -434.18817,215.96905 C -434.58817,218.46905 -434.68817,220.76905 -434.18817,222.76905 C -433.58817,225.76905 -431.98817,228.06904 -429.38817,229.66905 C -428.38817,230.26903 -427.28817,230.86905 -426.08817,231.26904 C -424.38818,231.86904 -422.78818,232.26903 -421.28818,232.66905 C -420.98818,232.66905 -420.68818,232.76905 -420.38817,232.76905 C -419.58818,232.96903 -418.78818,233.06904 -417.98818,233.16904 C -416.18817,233.26904 -414.38818,233.26904 -412.68818,233.06904 C -411.28818,232.76905 -409.98818,232.46904 -408.68818,232.06905 C -408.48818,231.86904 -408.18818,231.76904 -407.98818,231.66903 C -407.28818,231.36904 -406.58818,231.06903 -405.88818,230.76904 C -404.18818,229.76903 -402.48818,228.56903 -400.88818,226.96904 C -398.78818,224.76903 -396.88818,222.16905 -395.28818,218.96905 C -393.18818,214.36904 -390.38818,211.26904 -387.08818,209.96904 C -390.38819,211.26904 -393.18818,214.36904 -395.28818,218.96905 C -396.88818,222.16903 -398.78818,224.76903 -400.88818,226.96904 C -402.48818,228.56903 -404.18818,229.76903 -405.88818,230.76904 C -406.58818,231.06903 -407.28818,231.36904 -407.98818,231.66903 L -408.88817,232.36906 C -410.18818,233.06904 -411.38818,233.46905 -412.48818,233.66904 C -412.78818,233.76904 -412.98818,233.76904 -413.18818,233.76904 C -414.78817,234.06905 -416.38818,233.76904 -417.98818,233.16904 C -418.78817,233.06904 -419.58818,232.96903 -420.38817,232.76905 C -420.68818,232.76903 -420.98818,232.66905 -421.28818,232.66905 C -421.18818,232.76905 -421.08818,233.06904 -421.08818,233.16904 C -420.88818,233.46905 -420.78818,233.76904 -420.58818,234.06905 C -420.48818,234.26904 -420.38817,234.56905 -420.28818,234.66905 C -420.28817,234.76903 -420.18818,234.86903 -420.08818,235.06904 C -417.88817,238.96902 -414.58818,241.36904 -410.48818,242.46904 C -407.98817,240.46903 -405.28818,238.66904 -402.38818,237.26903 C -399.78818,235.96905 -397.08818,234.86903 -394.28818,234.06905 C -385.78817,231.66903 -380.48818,226.86904 -378.48818,219.56905 C -380.48819,226.86904 -385.78818,231.66903 -394.28818,234.06905 C -397.08817,234.86903 -399.78818,235.96905 -402.38818,237.26903 C -405.28818,238.66904 -407.98818,240.46903 -410.48818,242.46904 C -413.48817,244.86903 -416.28818,247.76905 -418.88818,251.06903 C -419.78817,252.16903 -420.58818,253.36905 -421.48818,254.66905 C -423.08818,258.76904 -422.38817,261.86904 -419.38818,264.06905 C -415.68818,259.66905 -411.08818,256.46904 -405.78818,254.36904 C -402.98819,253.26902 -399.88818,252.56904 -396.48818,252.06904 L -396.38818,252.06904 C -390.28818,252.16905 -384.98818,251.06903 -380.58818,248.56903 L -370.08818,241.26904 C -370.98818,243.36905 -371.68818,245.36903 -372.18818,247.26903 C -372.28819,247.36903 -372.28818,247.46904 -372.28818,247.56904 C -374.18818,254.06905 -373.88818,259.46904 -371.58818,263.66903 C -367.28819,270.26904 -361.38818,274.36903 -354.08818,276.06903 C -354.18819,275.96902 -354.28819,275.86904 -354.28819,275.76904 C -355.48819,274.66902 -356.48818,273.56903 -357.28819,272.36903 C -357.48819,272.16902 -357.58817,272.06904 -357.68818,271.86903 C -359.98819,268.66903 -361.48818,265.26904 -362.18818,261.46904 C -361.18817,253.86904 -356.18819,248.56903 -347.28819,245.26905 C -346.98818,245.06904 -346.58819,245.06904 -346.18819,244.86903 C -346.58819,245.06904 -346.98818,245.06904 -347.28819,245.26905 C -348.38818,246.16903 -349.3882,247.16905 -350.28818,248.16904 C -355.38819,253.86904 -356.98818,259.56904 -355.28818,265.16904 C -355.18818,265.36903 -355.08818,265.56903 -354.98819,265.86904 C -354.4882,267.06902 -353.98818,268.06903 -353.28818,268.86904 C -351.2882,271.46902 -348.38818,272.46903 -344.48818,271.96904 C -349.68818,265.46903 -349.58818,259.36904 -344.18819,253.66903 C -343.28818,252.56902 -342.28819,251.46904 -341.18819,250.56904 C -338.58819,248.36905 -335.38819,246.86904 -331.68819,246.06903 C -330.78818,250.26905 -331.48818,254.56904 -333.88818,258.76904 C -334.88819,260.56906 -336.18819,262.26903 -337.78818,264.06905 C -335.48819,263.26904 -333.18818,262.46903 -330.98819,261.56905 C -322.18819,257.56904 -315.28819,251.36904 -310.28819,243.06904 L -310.38819,242.56904 C -310.4882,242.56904 -310.4882,242.56904 -310.5882,242.66904 C -314.38818,244.06903 -318.28818,244.36904 -322.08818,243.96905 L -322.18919,243.96905 C -322.18919,243.86904 -322.18919,243.86904 -322.08919,243.86904 L -322.08919,243.86904 C -319.58919,242.06905 -317.58918,239.96904 -315.98919,237.76905 C -315.6892,237.56904 -315.4892,237.16905 -315.28919,236.86904 C -314.48918,235.66904 -313.78918,234.46904 -313.18918,233.16904 C -312.18919,230.96905 -311.48919,228.56903 -311.0892,225.96905 C -311.48919,228.56903 -312.18919,230.96905 -313.18918,233.16904 C -313.78918,234.46904 -314.48918,235.66904 -315.28919,236.86904 C -315.4892,237.16905 -315.68918,237.56904 -315.98919,237.76905 C -317.5892,239.96904 -319.58919,242.06905 -322.08919,243.86904 L -322.08919,243.86904 C -322.18919,243.86904 -322.18919,243.86904 -322.18919,243.96905 L -322.08919,243.96905 C -318.28918,244.36904 -314.38918,244.06905 -310.5892,242.66904 C -310.48917,242.56904 -310.4892,242.56904 -310.38919,242.56904 C -310.28919,242.56904 -310.08918,242.56904 -309.9892,242.46904 C -307.48918,241.56903 -304.9892,240.26905 -302.59018,238.56903 C -302.8902,236.06905 -302.9892,233.66904 -302.78919,231.46905 C -302.28919,225.36905 -299.8902,220.06904 -295.5902,215.66904 C -299.8902,220.06904 -302.28919,225.36903 -302.78919,231.46905 C -302.9892,233.66904 -302.8902,236.06903 -302.59018,238.56903 C -300.69021,244.36904 -297.78919,248.76904 -294.09019,251.86904 C -290.3902,254.86903 -285.89019,256.66903 -280.59021,257.26903 C -275.69019,257.46904 -271.5902,256.66903 -268.09021,254.76903 C -267.78922,254.66902 -267.59019,254.56904 -267.2892,254.36904 L -267.1892,254.36904 C -267.08919,254.26903 -266.88919,254.16903 -266.6892,254.06905 C -266.28919,253.76902 -266.0892,253.56903 -265.68919,253.36905 C -266.28921,253.26904 -266.7892,253.16904 -267.2892,253.06903 C -273.39019,252.06904 -278.78918,248.86904 -283.39019,243.76904 C -285.89022,240.26905 -285.69019,236.86904 -282.78919,233.56903 L -282.78922,233.56903 L -282.78922,233.46905 C -281.1892,231.56905 -279.8902,229.36904 -278.78918,227.26903 C -276.89019,223.66904 -275.68919,219.86904 -275.09019,215.86905 C -275.69021,219.86904 -276.89019,223.66904 -278.78918,227.26903 C -279.8902,229.36904 -281.1892,231.56905 -282.78919,233.46905 L -282.78922,233.56903 C -276.1892,231.96904 -271.1892,229.26904 -267.7892,225.36903 C -267.59019,225.06904 -267.1892,224.76903 -266.98919,224.36904 C -266.88919,224.36904 -266.88919,224.36904 -266.88919,224.26904 C -266.6892,224.06905 -266.48919,223.76904 -266.28821,223.46905 C -266.28821,223.46905 -266.28821,223.46905 -266.1882,223.36905 L -266.28819,223.36905 C -266.1882,223.26905 -266.0892,223.16904 -266.0892,223.16904 C -263.68921,219.86904 -262.2882,216.36905 -261.7882,212.66905 C -261.7882,212.16903 -261.6882,211.66903 -261.6882,211.16904 C -261.6882,210.96903 -261.6882,210.76905 -261.5882,210.56904 L -261.58822,210.46904 C -261.5882,210.26905 -261.5882,210.06904 -261.5882,209.96904 C -261.58817,208.86905 -261.6882,207.76905 -261.7872,206.66904 C -261.88818,206.56905 -261.88821,206.56905 -261.7872,206.56905 C -262.08819,205.06905 -262.3882,203.46906 -262.8882,201.96905 C -262.3882,203.46903 -262.08819,205.06905 -261.7872,206.56905 C -261.88818,206.56903 -261.88821,206.56905 -261.7872,206.66904 C -261.68718,207.76905 -261.5882,208.86905 -261.5882,209.96904 C -261.58817,210.06904 -261.5882,210.26905 -261.5882,210.46904 L -261.58822,210.56904 C -261.6882,210.76905 -261.6882,210.96905 -261.6882,211.16904 C -261.6882,211.66903 -261.7882,212.16905 -261.7882,212.66905 C -262.2882,216.36905 -263.6882,219.86904 -266.0892,223.16904 C -266.0892,223.16904 -266.18921,223.26905 -266.18921,223.36905 C -266.28919,223.46903 -266.28919,223.46905 -266.28919,223.46905 C -266.48919,223.76904 -266.6892,224.06905 -266.89019,224.26904 C -266.89019,224.36904 -266.89019,224.36904 -266.99019,224.36904 C -266.79021,224.46904 -266.6902,224.56905 -266.5912,224.56905 C -266.19119,224.66905 -265.79019,224.86904 -265.2902,225.06904 C -262.89118,225.76905 -260.3912,226.26904 -257.8912,226.56905 C -252.69117,227.06905 -247.1912,226.36904 -241.5912,224.26904 C -235.69122,222.76905 -231.3912,219.76903 -228.79019,215.46904 C -233.09121,217.56904 -237.99021,218.46905 -243.3912,217.86903 C -248.19119,217.36904 -251.6912,215.16905 -254.0912,211.06904 L -253.89119,210.96905 L -253.79021,210.96905 L -253.69121,209.96904 C -246.39119,198.56904 -240.8912,198.96905 -237.29121,210.96905 C -233.59221,204.06903 -234.39219,197.06905 -239.49119,189.96905 C -231.29119,195.46904 -222.0922,197.46904 -211.69121,196.16904 C -204.69123,193.96905 -200.0912,190.56904 -197.79121,185.86905 C -200.6912,188.06905 -205.49121,188.96905 -212.0922,188.46905 C -220.2912,187.76905 -227.39221,185.06905 -233.4912,180.56905 C -233.59221,180.46904 -233.79119,180.36905 -233.9912,180.16905 C -238.19119,176.86904 -241.89119,172.66905 -245.09219,167.36905 C -242.71698,166.26061 -240.56812,165.34546 -238.64563,164.62358"
       id="path2409" />
    <path
       d="M -263.1896,234.3689 C -261.6896,231.6689 -259.9896,229.0689 -257.8896,226.5689 C -260.3896,226.2689 -262.8896,225.7689 -265.2886,225.0689 L -267.7886,225.3689 C -271.1886,229.2689 -276.1886,231.9689 -282.7886,233.5689 C -285.6886,236.8689 -285.8896,240.2689 -283.3896,243.7689 C -278.7886,248.8689 -273.3896,252.0689 -267.2886,253.0689 C -267.1896,246.8689 -265.8896,240.6689 -263.1896,234.3689 z "
       id="path3421" />
    <path
       d="M -425.7896,45.1689 C -425.1896,42.7689 -425.7896,40.4689 -427.4896,38.2689 L -431.7896,38.4689 C -431.8896,39.6689 -432.1896,40.8689 -432.5896,42.0689 C -432.9896,44.3689 -434.5896,45.8689 -437.3896,46.4689 C -441.5896,44.7689 -444.1896,42.0689 -445.2896,38.2689 C -445.4896,38.1689 -445.6896,38.0689 -445.7896,38.0689 C -449.5896,36.4689 -452.0896,36.9689 -453.3896,39.4689 C -455.1896,43.2689 -455.4896,47.8689 -454.4896,53.4689 C -457.3896,59.0689 -461.0896,62.0689 -465.5896,62.2689 L -465.6896,62.2689 C -464.8896,65.9689 -463.3896,69.3689 -461.3896,72.7689 C -457.6896,76.8689 -453.5896,78.6689 -449.0896,78.1689 C -448.9896,78.2689 -448.8896,78.3689 -448.7896,78.4689 L -448.1896,77.4689 C -442.8896,70.2689 -438.2896,62.6689 -434.3896,54.6689 C -432.6896,51.2689 -429.8896,48.0689 -425.7896,45.1689 z "
       id="path3423" />
    <g
       transform="translate(0,-17.79819)"
       id="lion-head">
      <path
         d="M -238.64558,164.62399 C -225.99895,159.8753 -223.14781,163.49046 -230.09215,175.46946 C -230.19216,175.46946 -230.19216,175.56946 -230.19216,175.66946 C -221.79215,171.16947 -217.59215,166.86946 -217.59215,162.66946 C -217.59218,158.36947 -222.19216,152.46946 -231.39215,144.86946 C -236.29117,143.56945 -239.29117,140.66946 -240.19216,136.16946 C -239.29217,140.66946 -236.29215,143.56946 -231.39215,144.86946 C -230.69217,145.06945 -229.89217,145.16946 -229.09216,145.36946 C -221.79117,145.16946 -216.59216,142.46946 -213.59217,137.06946 C -216.29115,138.56947 -218.69215,139.46946 -220.89216,140.06946 C -220.89216,140.06946 -220.99216,140.06946 -221.09217,140.06946 C -221.09217,140.16946 -221.19215,140.16946 -221.29115,140.16946 C -221.59216,140.16947 -221.79117,140.26946 -221.89215,140.26946 C -224.19217,140.66946 -226.09217,140.56946 -227.79116,139.96946 C -227.89216,139.86947 -228.09215,139.76946 -228.19115,139.76946 C -233.19117,137.16947 -236.29115,132.96946 -237.59115,127.16947 C -233.79015,122.36947 -228.79015,124.96946 -222.59115,134.96946 C -218.59117,126.36947 -220.79015,119.66947 -229.19116,114.66947 C -234.09114,111.76946 -238.09115,108.86947 -240.89116,105.86947 L -241.09116,105.66946 C -241.29015,105.36947 -241.59116,105.16947 -241.69116,104.96947 C -242.59115,104.06946 -243.29115,103.06947 -243.89115,101.96947 C -243.29017,103.06947 -242.59115,104.06947 -241.69116,104.96947 C -241.59116,105.16947 -241.29115,105.36947 -241.09116,105.66947 L -240.89116,105.86947 C -238.59116,108.26947 -235.79015,109.66947 -232.69116,110.26947 C -231.59114,110.46947 -230.59115,110.56947 -229.59116,110.56947 C -226.49016,110.36947 -223.89115,109.06947 -221.69117,106.66947 C -218.89118,103.26947 -218.29116,99.869472 -219.89117,96.269472 C -221.69117,100.36947 -224.59116,102.56947 -228.59117,102.76947 C -231.59116,102.86947 -234.09116,101.86947 -235.79015,99.869472 C -236.49016,99.169472 -237.09116,98.369472 -237.49015,97.369472 C -239.28916,93.669472 -240.98916,88.069472 -242.38916,80.869472 C -243.38915,76.469472 -246.18916,72.469472 -250.98916,68.769472 C -243.68914,67.869472 -239.68916,65.469472 -239.18916,61.369472 C -242.68915,63.169472 -246.28915,63.669472 -249.88916,62.969472 C -252.98914,57.169482 -257.78815,52.769476 -264.28816,49.769476 C -268.08916,48.569481 -272.08915,48.269477 -276.28816,48.969477 C -276.98814,49.069476 -277.68815,49.269476 -278.58916,49.369478 C -277.68917,49.269474 -276.98814,49.069476 -276.28816,48.969477 C -275.97936,28.358753 -278.39792,34.348371 -296.18916,40.569477 C -302.78917,43.469475 -312.88915,45.469477 -326.48914,46.569476 C -326.88916,46.569476 -327.18914,46.669478 -327.58914,46.669478 L -327.68914,46.669478 C -348.98914,49.569476 -364.98915,53.469476 -375.48914,58.369482 C -378.08914,59.569482 -380.38914,60.869472 -382.38914,62.269472 C -382.08913,65.969472 -380.58914,68.169472 -377.78914,68.769472 L -377.68913,68.969472 L -372.78914,66.069472 L -372.78914,63.769482 L -372.78914,66.069472 L -377.68913,68.969472 L -377.78914,69.069472 C -378.28914,72.369472 -378.28914,75.369472 -377.88914,77.969472 C -373.58914,86.369472 -367.28914,92.269472 -358.68915,95.769472 C -358.68913,95.769472 -358.58915,95.769472 -358.58915,95.869472 C -358.48914,95.869472 -358.38914,95.869472 -358.38914,95.969472 C -354.48916,95.869472 -350.88914,95.869472 -347.58913,96.069472 C -343.08913,96.369472 -338.98914,96.769472 -335.48915,97.569472 C -335.38915,97.569472 -335.38915,97.569472 -335.38915,97.569472 C -331.78913,98.269472 -328.78913,99.269472 -326.08915,100.46947 C -321.28916,102.66947 -317.38915,105.16947 -314.28915,107.86947 C -312.88915,109.26947 -311.58915,110.66947 -310.48915,112.16947 C -307.09015,117.46946 -307.09015,121.86947 -310.48915,125.26946 C -310.58916,125.36947 -310.78914,125.56946 -310.88915,125.66947 C -312.78915,127.26946 -316.08915,128.16946 -320.68914,128.36947 C -329.38913,128.26946 -336.48914,127.16947 -341.78915,125.16947 C -342.48915,124.96946 -343.28914,124.66947 -343.98914,124.46946 C -347.78914,123.36947 -352.18914,122.96947 -357.18914,123.16947 C -358.78913,123.16947 -360.48915,123.36947 -362.18914,123.56946 C -364.68914,126.16947 -364.58914,128.86947 -361.98913,131.56946 C -364.98913,136.96947 -370.58914,138.36946 -378.68914,135.86946 C -375.68914,141.06946 -371.98914,143.46946 -367.38914,143.16946 C -363.28913,142.76947 -358.98914,141.16946 -354.78914,138.26946 C -354.48916,138.06946 -354.28915,137.86946 -353.98914,137.66946 C -354.28915,137.96947 -354.48913,138.16946 -354.58914,138.36946 C -358.78915,142.76946 -361.48914,146.66946 -362.68914,149.96946 C -362.78914,150.06946 -362.78914,150.16946 -362.78914,150.16946 C -362.78914,150.26946 -362.78914,150.26946 -362.78914,150.36946 C -363.38914,152.16946 -363.58915,153.76946 -363.28913,155.26946 C -362.78914,153.66946 -361.98913,152.16946 -360.88914,150.76946 C -357.38915,146.76946 -350.98914,144.16946 -341.58914,143.16946 C -342.08914,146.86947 -345.08913,150.76946 -350.68913,154.66946 C -339.78915,153.16947 -332.38915,149.46946 -328.48915,143.56946 C -327.58914,149.26947 -324.38913,152.36946 -318.98914,152.76946 C -320.68914,148.36946 -320.18914,144.76946 -317.38915,142.06946 C -313.48915,149.56947 -306.68915,154.06946 -297.08915,155.66946 C -302.08914,151.66946 -304.38914,146.36946 -303.88914,139.86946 C -299.68915,143.86946 -296.18916,145.76946 -293.18914,145.46946 C -293.78916,139.86947 -292.08915,134.86946 -287.98916,130.36947 C -286.68915,135.46947 -280.98915,138.36946 -270.78915,139.06946 C -278.28915,132.56946 -281.68916,125.86947 -281.09016,118.96947 C -280.59016,112.06947 -279.59015,106.76947 -277.98916,102.86947 C -273.88915,103.36946 -271.09016,106.76947 -269.59015,113.06947 C -268.39017,101.96947 -272.89016,94.569472 -282.78915,90.869472 C -279.89014,91.569472 -277.09015,91.969472 -274.28916,92.069472 C -272.59015,92.069472 -270.89015,91.969472 -269.18916,91.769472 C -263.38915,90.969472 -260.38916,86.069472 -260.28915,77.069472 C -260.18917,75.269472 -260.39016,73.669472 -260.68914,72.269472 C -260.68917,72.169472 -260.68914,72.169472 -260.68914,72.169472 C -261.68916,68.069472 -264.08915,65.269472 -267.88916,63.969472 C -268.08916,63.869472 -268.28815,63.769472 -268.48915,63.769472 C -268.59016,63.669472 -268.68916,63.669472 -268.78914,63.669472 L -268.88915,63.669472 C -269.58915,63.369472 -270.38916,63.169472 -271.18916,63.069472 C -271.98915,62.869482 -272.78915,62.869472 -273.58916,62.769472 C -278.38913,62.869482 -281.58915,64.269472 -283.28814,66.969472 C -281.58915,64.269482 -278.38915,62.869472 -273.58916,62.769472 C -272.78813,62.869482 -271.98814,62.869472 -271.18916,63.069472 C -270.38916,63.169482 -269.58915,63.369472 -268.88915,63.669472 L -268.78816,63.669472 C -268.68816,63.669472 -268.58916,63.669472 -268.48815,63.769472 C -268.28817,63.769472 -268.08916,63.869472 -267.88815,63.969472 C -264.08815,65.269472 -261.68816,68.069472 -260.68814,72.169472 C -260.68814,72.169472 -260.68814,72.169472 -260.68814,72.269472 C -260.38816,73.669472 -260.18815,75.269472 -260.28815,77.069472 C -260.38916,86.069472 -263.38915,90.969472 -269.18816,91.769472 C -270.88815,91.969472 -272.58814,92.069472 -274.28816,92.069472 C -277.08917,91.969472 -279.88916,91.569472 -282.78815,90.869472 C -272.88915,94.569472 -268.38915,101.96947 -269.58915,113.06947 C -271.08916,106.76947 -273.88915,103.36947 -277.98816,102.86947 C -279.58915,106.76946 -280.58916,112.06947 -281.08916,118.96947 C -281.68916,125.86947 -278.28814,132.56946 -270.78815,139.06946 C -280.98817,138.36946 -286.68815,135.46946 -287.98816,130.36947 C -292.08917,134.86947 -293.78816,139.86946 -293.18814,145.46946 C -296.18813,145.76947 -299.68815,143.86946 -303.88814,139.86946 C -304.38814,146.36946 -302.08814,151.66946 -297.08814,155.66946 C -306.68813,154.06946 -313.48715,149.56946 -317.38815,142.06946 C -320.18814,144.76947 -320.68814,148.36946 -318.98814,152.76946 C -324.38813,152.36946 -327.58814,149.26946 -328.48815,143.56946 C -332.38815,149.46947 -339.78815,153.16946 -350.68813,154.66946 C -345.08813,150.76947 -342.08814,146.86946 -341.58814,143.16946 C -350.98814,144.16947 -357.38815,146.76946 -360.88814,150.76946 C -357.58815,152.56946 -355.78813,154.46946 -355.48815,156.36946 C -355.40587,157.3156 -355.54359,158.10943 -355.89432,158.75097"
         id="path2333" />
      <path
         d="M -325.05897,61.411822 C -325.05897,61.411822 -320.70155,60.402043 -318.12101,62.645996 L -316.66244,73.131708 C -319.35518,75.039068 -325.05897,73.131708 -325.05897,73.131708 L -325.05897,61.411822 z "
         style="fill:#ffcd50"
         id="Eye" />
      <path
         d="M -324.2896,67.4689 C -323.8896,65.0689 -322.3896,63.1689 -319.8896,61.5689 C -321.7896,60.9689 -323.6896,60.6689 -325.5896,60.6689 C -328.0896,62.7689 -329.1896,65.2689 -328.7896,67.8689 C -328.4896,70.5689 -326.9896,72.4689 -324.2896,73.5689 C -323.5896,73.7689 -322.8896,73.7689 -322.0896,73.8689 C -323.9896,71.8689 -324.6896,69.6689 -324.2896,67.4689 z "
         id="path3417" />
      <path
         d="M -306.1896,72.2689 C -309.6896,68.4689 -313.8896,65.1689 -318.8896,62.1689 L -318.2896,73.8689 C -317.7896,73.7689 -317.3896,73.7689 -316.8896,73.6689 L -306.1896,72.2689 z "
         id="path3419" />
      <path
         d="M -351.9896,109.0689 L -352.1896,109.0689 L -353.9896,106.1689 C -361.7896,106.2689 -369.0896,106.2689 -376.0896,106.1689 C -380.4896,105.6689 -384.6896,102.3689 -388.7896,96.1689 C -390.7896,98.5689 -391.4896,101.5689 -390.7896,105.2689 C -388.8896,111.2689 -385.1896,114.9689 -379.7896,116.5689 C -372.5896,118.8689 -364.9896,119.8689 -357.0896,119.6689 C -356.7896,119.5689 -356.4896,119.5689 -356.1896,119.5689 L -352.8896,111.1689 L -347.6896,118.9689 C -339.1896,118.5689 -330.6896,118.7689 -322.0896,119.4689 C -316.8896,119.9689 -312.9896,121.8689 -310.4896,125.2689 C -307.0906,121.8689 -307.0906,117.4689 -310.4896,112.1689 C -311.5896,110.6689 -312.8896,109.2689 -314.2896,107.8689 C -320.1896,106.4689 -325.7896,105.6689 -331.3896,105.6689 C -336.7896,105.8689 -342.5896,105.8689 -348.7896,105.5689 L -351.9896,109.0689 z "
         style="fill:#003d8f"
         id="Tongue" />
      <g
         style="fill:#003d8f"
         id="Teeth">
        <path
           d="M -347.5896,96.0689 C -350.8896,95.8689 -354.4896,95.8689 -358.3896,95.9689 L -358.6896,96.0689 L -353.9896,106.1689 L -352.1896,109.0689 L -351.9896,109.0689 L -348.7896,105.5689 L -347.5896,96.0689 z "
           id="path3427" />
        <path
           d="M -347.6896,118.9689 L -352.8896,111.1689 L -356.1896,119.5689 L -357.1896,123.1689 C -352.1896,122.9689 -347.7896,123.3689 -343.9896,124.4689 L -347.6896,118.9689 z "
           id="path3433" />
      </g>
    </g>
    <path
       d="M -470.0261,43.88765 C -472.0511,43.92515 -473.4136,44.5814 -474.0886,45.8564 C -474.0886,45.856399 -474.08235,45.9814 -474.18235,45.9814 C -472.38235,50.481401 -472.5761,54.4689 -474.7761,58.1689 L -474.7761,58.26265 C -477.2761,58.862652 -479.3886,58.2564 -481.0886,56.3564 C -481.0886,56.256399 -481.1761,56.0814 -481.2761,55.9814 C -483.4761,55.381401 -485.09485,56.0564 -485.99485,57.8564 C -487.99485,61.656399 -489.0011,65.06265 -488.9011,68.26265 C -487.8011,69.662652 -486.7011,70.77515 -485.4011,71.57515 C -483.7011,72.775148 -481.78235,73.3814 -479.68235,73.4814 C -479.28235,76.381397 -480.7761,78.8689 -484.2761,81.1689 C -485.9761,79.7689 -488.49485,78.86265 -491.49485,78.26265 C -495.39485,78.662652 -498.3761,79.57515 -500.7761,81.07515 C -501.87611,81.875148 -502.5886,82.4814 -502.5886,82.9814 C -502.6886,83.381397 -502.29485,83.6564 -501.49485,83.8564 C -497.49485,83.656403 -494.69485,84.6564 -492.99485,86.8564 C -490.99485,91.956403 -493.0011,96.06265 -498.9011,99.26265 C -500.3011,101.96265 -500.18235,104.2689 -498.68235,106.1689 C -496.08236,107.9689 -493.7011,108.7814 -491.4011,108.4814 C -488.5011,105.3814 -486.6761,102.17515 -485.7761,99.07515 C -484.2761,102.57515 -484.2761,105.77515 -485.7761,108.57515 C -481.2761,110.57515 -477.38235,110.0689 -474.18235,107.1689 C -476.78235,110.1689 -478.4011,113.3564 -478.9011,116.8564 C -478.4011,116.7564 -477.9011,116.6689 -477.4011,116.6689 C -471.5011,116.0689 -467.2886,117.2689 -464.5886,120.1689 L -464.68235,120.8564 L -477.18235,120.6689 C -476.98235,124.9689 -474.8761,128.16265 -470.7761,130.26265 C -477.5761,136.16264 -480.39485,142.9689 -478.99485,150.6689 C -477.59485,148.3689 -475.3011,146.8564 -472.4011,146.3564 C -472.1011,146.2564 -471.7886,146.2689 -471.5886,146.1689 C -471.3886,146.1689 -471.19485,146.1689 -470.99485,146.1689 C -470.99485,146.1689 -470.8761,146.1689 -470.7761,146.1689 C -465.2761,145.5689 -457.6011,147.57515 -447.9011,152.07515 L -447.7761,152.1689 L -447.9011,152.1689 C -454.50111,155.8689 -462.0761,155.6814 -470.7761,151.4814 C -466.2761,159.9814 -458.08235,163.1689 -446.18235,161.1689 L -446.0886,161.6689 C -453.08859,163.8689 -458.98235,167.5814 -463.68235,172.9814 C -463.78235,173.0814 -463.89485,173.16265 -463.99485,173.26265 L -463.9011,173.3564 C -463.7011,173.3564 -463.59485,173.26265 -463.49485,173.26265 L -463.4011,173.26265 C -455.0011,170.56264 -445.89485,170.3814 -435.99485,172.4814 C -446.99485,173.9814 -454.1011,176.2564 -457.4011,179.3564 C -459.40111,181.1564 -459.98235,183.26265 -459.18235,185.76265 C -449.78235,182.16264 -439.6011,183.5689 -428.4011,190.1689 L -428.49485,190.26265 L -428.7761,191.07515 C -438.7761,189.87516 -444.4761,191.1814 -445.7761,194.9814 C -444.6761,195.0814 -443.68235,195.1564 -442.68235,195.3564 C -435.08235,196.5564 -428.88235,199.0814 -424.18235,202.9814 C -429.68235,205.1814 -436.09485,204.2814 -443.49485,199.9814 C -441.29485,205.4814 -437.4886,209.3564 -432.0886,211.8564 C -430.48859,209.8564 -428.3886,208.7814 -425.5886,208.4814 C -425.48859,208.4814 -425.4011,208.4814 -425.4011,208.4814 C -425.10111,208.4814 -424.8011,208.4814 -424.4011,208.4814 C -424.80111,208.7814 -425.1886,209.1814 -425.5886,209.4814 C -426.76838,210.5535 -427.58245,211.84292 -428.2761,213.26265 C -427.8761,213.36264 -427.4011,213.4689 -426.9011,213.6689 C -426.70111,213.6689 -426.6011,213.66265 -426.4011,213.76265 C -423.20111,214.46264 -419.5011,214.8564 -415.4011,214.8564 C -420.40111,215.3564 -424.4761,216.3564 -427.7761,217.8564 C -427.4761,218.2564 -427.1761,218.6814 -426.7761,218.9814 C -423.5761,221.9814 -419.89485,222.1814 -415.49485,219.4814 C -411.19485,216.7814 -408.9011,212.66265 -408.4011,207.26265 C -412.40111,204.76264 -415.89485,201.7689 -418.99485,198.1689 C -418.99485,198.0689 -418.9886,198.0814 -419.0886,197.9814 C -421.38859,195.1814 -423.59485,191.97515 -425.49485,188.57515 C -425.99485,187.47516 -426.5886,186.36265 -427.0886,185.26265 C -419.68859,193.16264 -413.9886,193.76265 -410.0886,187.26265 C -406.68859,177.36264 -397.99485,171.2814 -383.99485,168.9814 L -383.99485,168.8564 C -394.29485,168.5564 -401.3886,164.3689 -405.0886,156.1689 C -405.68859,151.0689 -403.1761,147.17515 -397.2761,144.57515 C -397.0761,151.17516 -393.5886,155.87515 -387.0886,158.57515 C -386.58859,158.47516 -386.09485,158.36265 -385.49485,158.26265 L -386.18235,153.8564 C -388.68235,149.9564 -391.39485,146.06265 -393.99485,142.26265 C -404.69485,126.76264 -416.29485,111.3689 -428.99485,96.1689 C -434.59485,89.5689 -441.1761,83.6814 -448.7761,78.4814 C -448.8761,78.381397 -448.9886,78.2689 -449.0886,78.1689 C -453.58859,78.6689 -457.7011,76.86265 -461.4011,72.76265 C -463.40111,69.362652 -464.88235,65.96265 -465.68235,62.26265 C -465.98235,60.962652 -466.3011,59.66265 -466.4011,58.26265 C -464.5011,53.262652 -464.9761,48.47515 -467.7761,44.07515 C -468.6011,43.95015 -469.3511,43.87515 -470.0261,43.88765 z "
       id="path3435" />
    <path
       d="M -434.1896,222.7689 C -435.6896,224.6689 -436.6896,226.8689 -437.0896,229.4689 C -437.6896,234.4689 -434.4896,237.4689 -427.5896,238.4689 C -431.3896,235.0689 -431.9896,232.1689 -429.3896,229.6689 C -431.9896,228.0689 -433.5896,225.7689 -434.1896,222.7689 z "
       id="path3443" />
    <path
       d="M -489.2896,289.4689 C -489.7896,285.6689 -491.3896,281.8689 -494.1896,278.0689 C -496.2896,276.9689 -498.1896,277.1689 -499.7896,278.7689 C -499.2896,281.0689 -499.7896,283.4689 -501.0896,285.7689 C -504.5896,288.4689 -508.5896,290.1689 -513.2896,291.0689 C -515.2896,292.8689 -515.7896,294.5689 -514.5896,296.3689 C -510.8896,296.6689 -507.8896,297.5689 -505.6896,298.8689 L -499.8896,297.5689 L -505.6896,298.8689 C -504.7896,299.4689 -503.9896,300.0689 -503.3896,300.8689 C -500.5896,305.2689 -499.0896,309.0689 -498.9896,312.0689 C -496.1896,312.0689 -493.5896,311.5689 -490.9896,310.2689 C -485.5896,307.2689 -480.9896,303.9689 -477.1896,300.3689 C -481.8896,298.1689 -485.9896,294.5689 -489.2896,289.4689 z "
       id="path3445" />
    <path
       d="M -402.8896,381.5689 C -411.7896,381.4679 -417.1896,384.9679 -419.0896,392.1689 C -420.0896,397.5689 -419.6896,401.6689 -418.0896,404.4689 C -417.4896,405.3689 -416.8896,406.1689 -416.0896,406.8689 C -414.3896,408.1689 -412.0896,408.8689 -409.2896,408.9689 C -405.0896,409.0699 -399.5896,407.9689 -392.7896,405.4689 C -397.6896,409.5699 -402.3896,412.2689 -406.8896,413.4689 C -407.6896,413.6689 -408.3896,413.7689 -409.1896,413.9689 C -413.2896,414.5699 -417.2896,414.0699 -421.1896,412.2689 C -422.9896,411.4689 -424.8896,410.3699 -426.5896,408.9689 C -427.2896,408.4689 -427.8896,407.8689 -428.5896,407.3689 C -428.1896,408.0689 -427.8896,408.7679 -427.5896,409.4689 C -421.9896,420.2689 -415.5896,423.8689 -408.1896,420.1689 C -408.1896,420.0689 -408.1896,420.0689 -408.0896,419.9689 C -407.3896,419.5699 -406.6896,419.1689 -405.9896,418.8689 C -405.6896,418.6689 -405.3896,418.5689 -405.0896,418.4689 C -401.2896,416.7689 -397.4896,416.1689 -393.6896,416.6689 C -397.4896,416.1689 -401.2896,416.7689 -405.0896,418.4689 C -405.3896,418.5699 -405.6896,418.6689 -405.9896,418.8689 C -406.6896,419.1689 -407.3896,419.5689 -408.0896,419.9689 C -408.1896,420.0689 -408.1896,420.0689 -408.1896,420.1689 C -410.7896,428.4689 -418.4896,433.8689 -431.3896,436.1689 C -417.9896,441.2689 -408.0896,438.4689 -401.4896,427.5689 L -400.7896,428.0689 C -401.4896,431.4679 -402.4896,434.6689 -403.7896,437.6689 C -407.4896,446.2689 -413.7896,453.3689 -422.6896,459.1689 C -415.6896,460.2689 -409.9896,459.4689 -405.3896,456.8689 C -400.5896,454.1689 -397.0896,449.3689 -394.7896,442.6689 C -395.0896,451.0689 -397.6896,457.9689 -402.3896,463.3689 C -401.2896,465.0689 -400.0896,466.7679 -398.5896,468.2679 C -397.1896,469.7679 -395.5896,471.1679 -393.7896,472.4679 C -390.1896,474.9679 -385.8896,476.9679 -380.8896,478.3679 C -387.1896,478.9679 -391.5896,478.3679 -394.1896,476.6679 C -394.7896,476.2679 -395.3896,475.8679 -395.8896,475.5679 C -395.8896,475.5679 -395.8896,475.5679 -395.9896,475.4669 C -396.6896,474.9669 -397.1896,474.6669 -397.3896,474.4669 C -399.4896,473.7669 -400.8896,473.2669 -401.4896,473.0679 C -402.0896,472.8679 -402.7896,472.7669 -403.6896,472.6679 C -406.4896,472.5679 -410.5896,473.1679 -416.1896,474.3679 C -423.2896,477.5679 -431.9896,479.5679 -441.9896,480.2669 C -444.2896,480.1669 -446.2896,479.6669 -448.2896,478.7669 C -450.1896,477.7669 -451.9896,476.3679 -453.5896,474.6669 C -453.9896,468.6669 -455.6896,462.2669 -458.5896,455.1669 C -460.1896,453.9669 -462.6896,453.5669 -465.8896,453.8669 C -467.3896,453.5669 -468.3896,454.0669 -468.6896,455.3669 C -468.7896,455.4669 -468.7896,455.5669 -468.7896,455.6669 C -468.7896,455.7669 -468.7896,455.7669 -468.7896,455.8669 C -462.9896,464.5669 -463.9896,468.5669 -471.8896,467.8669 C -473.8896,467.8669 -476.9896,468.4669 -481.2896,469.5669 C -485.6896,471.7659 -486.8896,474.1669 -485.0896,476.9659 L -484.5896,477.3659 C -484.3896,477.7649 -484.1896,478.0659 -483.8896,478.4659 C -483.8896,478.4659 -483.7896,478.5669 -483.7896,478.6659 C -481.7896,481.3659 -478.9896,483.4659 -475.3896,484.7659 C -469.8896,486.7659 -462.6896,487.2659 -453.6896,486.2659 C -458.6896,490.2659 -466.4896,491.1659 -477.0896,488.7659 C -480.3896,487.7659 -484.1896,485.8669 -488.4896,483.3669 L -491.0896,485.8669 C -486.6896,490.5669 -484.2896,495.1669 -483.7896,499.6669 C -484.3896,502.7669 -486.2896,505.4669 -489.4896,508.0669 C -489.5896,508.1669 -489.6896,508.3669 -489.6896,508.5669 C -490.6896,511.3669 -489.9896,513.3669 -487.5896,514.6669 L -480.7896,514.3669 C -476.8896,512.0669 -474.7896,509.0669 -474.7896,505.0669 C -474.5896,508.9659 -473.6896,511.1669 -472.0896,511.7659 C -468.6896,512.2659 -465.5896,512.0669 -462.6896,511.0669 C -460.0896,509.8669 -457.5896,509.5669 -454.9896,510.2659 C -451.1896,508.3669 -448.7896,505.9659 -447.8896,503.0669 C -448.7896,505.9659 -451.1896,508.3669 -454.9896,510.2659 C -457.5896,509.5669 -460.0896,509.8669 -462.6896,511.0669 C -463.4896,511.3669 -464.2896,511.8669 -465.0896,512.3669 L -471.9896,518.1669 L -469.3896,521.2669 C -469.3896,521.3679 -469.2896,521.4669 -469.2896,521.4669 C -463.1896,522.8669 -458.7896,525.8669 -455.8896,530.3669 C -454.9896,532.3669 -455.2896,533.7659 -456.5896,534.4669 C -456.5896,534.5679 -456.5896,534.5679 -456.6896,534.6669 C -457.0896,536.4669 -455.9896,537.7669 -453.2896,538.1669 C -450.1896,539.4669 -447.6896,539.5669 -445.6896,538.2669 C -440.9896,535.3679 -438.4896,531.1669 -437.8896,525.6669 C -440.2896,522.1669 -438.7896,517.6669 -433.4896,512.0669 C -438.7896,517.6669 -440.2896,522.1669 -437.8896,525.6669 C -436.8896,527.1669 -435.1896,529.8669 -432.7896,533.5669 C -428.9896,526.8669 -425.3896,522.4659 -422.0896,520.5669 C -425.3896,525.2659 -426.6896,530.0669 -425.8896,534.7659 C -425.8896,534.8669 -425.8896,534.9659 -425.7896,534.9659 L -425.7896,534.7659 C -419.4896,528.1659 -411.7896,524.4659 -402.6896,523.7659 C -405.5896,531.9659 -412.6896,537.4659 -423.8896,540.3669 C -423.9896,540.3669 -424.0896,540.3669 -424.0896,540.4669 C -421.8896,546.5679 -415.9896,548.6669 -406.5896,546.7669 C -399.7896,544.1669 -395.2896,539.8679 -392.8896,533.9669 L -392.2896,534.0679 C -391.6896,530.4669 -389.6896,527.2669 -386.3896,524.7669 C -389.6896,527.2669 -391.6896,530.4669 -392.2896,534.0679 C -392.3896,534.5679 -392.3896,535.0679 -392.3896,535.4669 C -393.5896,549.3669 -385.6896,555.9669 -368.8896,555.4669 C -368.6896,555.3669 -368.3896,555.3669 -368.1896,555.3669 C -368.2896,555.3669 -368.4896,555.2659 -368.5896,555.2659 C -368.6896,555.1659 -368.7896,555.1659 -368.7896,555.0669 C -375.0896,552.1669 -378.0896,547.2659 -377.7896,540.5669 L -377.6896,540.2659 C -377.8896,536.5669 -375.5896,532.2659 -370.6896,527.2659 C -365.4896,534.2659 -362.5896,541.7659 -361.8896,549.6659 C -355.9896,540.5659 -353.5896,530.5659 -354.9896,519.4659 C -354.8896,519.7659 -354.7896,520.0669 -354.6896,520.3659 C -354.6896,520.5659 -354.5896,520.7649 -354.5896,520.9659 C -354.0896,522.6659 -353.5896,524.3659 -352.8896,525.8659 C -348.0896,537.2649 -338.3896,542.9659 -323.9896,542.9659 C -332.4896,537.2659 -338.4896,529.8659 -341.9896,520.6659 C -342.8896,519.6659 -343.6896,518.6659 -344.4896,517.5659 C -343.6896,518.6659 -342.8896,519.6659 -341.9896,520.6659 C -336.7896,526.1659 -330.0896,529.1659 -321.6896,529.3659 C -319.4896,529.2649 -317.4896,528.8659 -315.5896,528.1659 C -312.1896,526.7659 -309.3896,524.3659 -307.3896,520.8659 L -307.5896,520.5659 L -307.0896,519.9649 C -307.6896,520.2649 -308.2886,520.6649 -308.8896,520.9649 C -312.2896,522.9649 -315.1896,523.8649 -317.6896,523.7649 C -326.2896,522.4649 -331.1896,516.9649 -332.2896,507.2649 C -331.5896,499.6649 -328.1896,493.1649 -321.8896,488.0659 C -320.5896,486.8659 -319.1896,485.8659 -317.5896,484.8659 L -317.5896,484.6659 L -317.4896,484.4659 C -316.8896,478.8659 -315.3896,472.6659 -313.0896,465.9659 C -314.0896,467.6659 -315.2896,469.2659 -316.5896,470.8659 C -316.7896,470.9659 -316.8896,471.1659 -317.0896,471.3659 C -317.2896,471.5659 -317.4896,471.7649 -317.6896,471.9659 C -320.4896,474.7659 -323.8896,477.1659 -327.9896,479.3659 L -328.2896,479.5659 L -328.3896,479.4649 C -336.4896,481.6649 -344.3896,481.2649 -352.1896,478.3649 C -356.1896,476.0649 -359.3896,472.1649 -361.4896,466.7639 C -361.6896,466.2639 -361.8896,465.8649 -361.9896,465.3649 C -363.2896,461.1649 -362.5896,456.3649 -360.1896,451.2639 C -356.6896,447.1639 -352.1896,444.6639 -346.6896,443.5649 C -351.7896,448.7639 -353.8896,453.9639 -352.8896,459.3649 C -352.5896,460.5649 -352.2896,461.5649 -351.7896,462.5649 C -350.4896,465.3649 -348.0896,467.4639 -344.6896,468.7639 C -341.6896,469.7639 -338.1896,469.7639 -334.2896,468.7639 C -329.9896,467.6639 -326.7896,466.1639 -324.6896,464.1639 C -322.5896,462.0639 -321.5896,459.6639 -321.5896,456.7639 C -321.5896,451.4639 -321.2896,444.8649 -320.6896,436.9639 C -319.7896,429.3639 -317.2896,421.6639 -313.1896,413.9639 C -309.2896,407.2639 -303.3896,400.5649 -295.5896,393.7639 C -295.2886,393.4639 -295.0896,393.1639 -294.8896,392.9639 C -292.5896,390.1639 -291.1896,387.1639 -290.7886,383.8639 C -290.3896,380.3639 -291.0896,376.4639 -292.8896,372.2629 C -293.4896,369.1629 -293.6896,366.2629 -293.5896,363.4629 L -294.5896,361.1629 C -311.5896,362.3629 -325.5896,367.9629 -336.6896,377.8629 C -341.3896,377.2619 -346.1896,376.7619 -350.7896,376.5629 C -359.7896,376.4619 -367.5896,378.6629 -374.2896,383.1629 C -381.2896,391.4629 -387.4896,396.6629 -392.8896,398.6629 C -393.3896,398.8629 -393.8896,399.0629 -394.3896,399.1629 C -399.1896,400.4629 -403.2896,399.4629 -406.7896,396.2629 C -410.5896,392.5689 -409.2896,387.6689 -402.8896,381.5689 z "
       id="path3459" />
    <path
       d="M -307.2896,335.7689 C -308.7896,336.3689 -310.0896,337.1689 -311.0896,338.1689 C -313.1896,339.6689 -314.5896,342.2689 -315.2896,345.9689 C -303.2896,346.1689 -296.0896,351.0699 -293.5896,360.7689 C -293.4886,360.8699 -293.4886,360.9689 -293.3896,361.1689 C -293.0896,356.5689 -291.7886,352.3689 -289.6896,348.4689 C -289.6896,348.2689 -289.6896,348.2689 -289.4896,348.1689 C -293.0906,342.2689 -297.2896,337.6689 -302.1896,334.4689 C -304.0896,334.6689 -305.7896,335.1689 -307.2896,335.7689 z "
       id="path3461" />
    <g
       style="fill:#003d8f"
       id="Claws">
      <path
         d="M -434.8896,28.2689 C -434.9896,28.0689 -435.0896,27.9689 -435.0896,27.8689 C -440.3896,21.1689 -445.9896,18.4689 -451.9896,19.6689 C -456.0896,20.9689 -458.4896,23.2689 -459.0896,26.5689 C -453.6896,25.9689 -449.6896,27.0689 -447.1896,29.7689 C -444.9896,32.2689 -444.4896,35.0689 -445.7896,38.0689 C -445.6896,38.0689 -445.4896,38.1689 -445.2896,38.2689 C -444.1896,42.0689 -441.5896,44.7689 -437.3896,46.4689 C -434.5896,45.8689 -432.9896,44.3689 -432.5896,42.0689 C -432.1896,40.8689 -431.8896,39.6689 -431.7896,38.4689 C -431.4896,35.1689 -432.5896,31.7689 -434.8896,28.2689 z "
         id="path3437" />
      <path
         d="M -483.3896,38.3689 C -488.1896,38.4689 -492.9896,39.8689 -497.4896,42.6689 C -500.2896,45.1689 -502.0896,48.3689 -502.9896,52.3689 C -498.6896,50.0689 -494.2896,48.9689 -489.6896,49.1689 C -485.2896,50.7689 -482.4896,52.9689 -481.2896,55.9689 C -481.1896,56.0689 -481.0896,56.2689 -481.0896,56.3689 C -479.3896,58.2689 -477.2896,58.8689 -474.7896,58.2689 L -474.7896,58.1689 C -472.5896,54.4689 -472.3896,50.4689 -474.1896,45.9689 L -474.1896,46.0689 C -474.2896,45.8689 -474.2896,45.7689 -474.2896,45.5689 C -475.7896,41.6689 -478.7896,39.2689 -483.3896,38.3689 z "
         id="path3439" />
      <path
         d="M -502.5896,82.9689 L -502.9896,83.5689 C -505.3896,83.4689 -507.7896,84.3689 -510.0896,85.9689 C -515.2896,90.4689 -518.6896,95.2689 -520.2896,100.3689 C -520.2896,103.7689 -519.8896,106.3689 -518.9896,108.2689 C -517.3896,111.2689 -514.8896,112.9689 -511.5896,113.1689 C -512.6896,107.6689 -511.0896,102.9689 -506.9896,98.9689 C -502.9896,97.1689 -500.2896,97.1689 -498.8896,99.2689 C -492.9896,96.0689 -490.9896,91.9689 -492.9896,86.8689 C -494.6896,84.6689 -497.4896,83.6689 -501.4896,83.8689 C -502.2896,83.6689 -502.6896,83.3689 -502.5896,82.9689 z "
         id="path3441" />
      <path
         d="M -499.7896,278.7689 C -499.8896,277.7689 -500.2896,276.8689 -500.6896,276.0689 C -506.5896,274.2689 -512.5896,273.8689 -518.8896,275.0689 C -525.2896,276.1689 -528.8896,279.4689 -529.9896,284.8689 C -530.9896,290.2689 -529.9896,293.5689 -526.7896,294.7689 C -524.8896,289.5689 -521.7896,286.8689 -517.2896,286.7689 C -513.5896,287.2689 -512.2896,288.6689 -513.2896,291.0689 L -513.2896,291.0689 C -508.5896,290.1689 -504.5896,288.4689 -501.0896,285.7689 C -499.7896,283.4689 -499.2896,281.0689 -499.7896,278.7689 z "
         id="path3447" />
      <path
         d="M -516.7896,316.0689 C -518.3896,315.7689 -519.3896,315.0689 -519.6896,313.8689 C -524.6896,314.5689 -528.3896,317.3689 -530.7896,322.0689 C -532.3896,327.4689 -531.8896,332.1689 -529.2896,336.1689 C -527.5896,340.6689 -524.4896,343.5689 -519.9896,344.8689 C -521.8896,341.0689 -522.4896,336.8689 -521.6896,332.3689 C -520.7896,329.2689 -518.8896,327.8689 -516.0896,327.9689 C -514.2896,327.7689 -512.6896,327.3689 -511.4896,326.8689 C -508.7896,325.5689 -508.0896,323.1689 -509.2896,319.8689 C -509.6896,317.9689 -512.1896,316.6689 -516.7896,316.0689 z "
         id="path3449" />
      <path
         d="M -476.1896,355.1689 C -476.5896,351.3689 -478.9896,348.7689 -483.1896,347.3689 C -487.4896,346.7679 -490.2896,348.1689 -491.4896,351.3689 C -492.5896,355.4689 -492.2896,359.1689 -490.6896,362.4689 C -488.4896,368.0699 -484.9896,371.8689 -480.1896,373.9689 C -477.8896,374.9689 -475.6896,375.1689 -473.4896,374.7689 C -469.6896,373.7689 -467.0896,372.3699 -465.7896,370.4689 C -470.1896,370.3689 -473.4896,368.8689 -475.7896,365.9689 C -477.2896,362.7689 -477.4896,359.1689 -476.1896,355.1689 z "
         id="path3451" />
      <path
         d="M -307.3896,573.4689 C -310.3896,576.2689 -312.3896,579.4689 -313.3896,583.0699 C -314.3896,587.6699 -314.4896,591.9689 -313.5896,596.0699 C -311.9896,600.7689 -308.2896,604.0699 -302.3896,605.9689 C -304.6896,602.1689 -305.4896,597.9689 -304.6896,593.1689 C -302.4896,587.9689 -298.8896,584.4689 -293.8896,582.7689 C -293.7886,582.4689 -293.6896,582.2689 -293.5896,582.0699 C -292.5896,579.5699 -292.3896,576.8699 -292.8896,574.0699 C -293.8896,571.2689 -295.5896,569.5699 -297.8896,568.8699 L -297.9896,568.8699 C -301.4896,569.6689 -304.5896,571.2689 -307.3896,573.4689 z "
         id="path3467" />
      <path
         d="M -468.9896,455.6689 C -468.9896,455.4689 -469.0896,455.3689 -469.1896,455.1689 C -472.7896,452.1689 -477.3896,450.8689 -482.7896,451.3689 C -490.6896,451.9689 -496.1896,453.9689 -499.1896,457.1689 C -502.8896,460.8689 -504.2896,464.5689 -503.3896,468.2689 C -497.9896,464.2689 -492.0896,462.2689 -485.4896,462.3699 C -481.2896,464.4699 -480.0896,466.9699 -482.0896,469.7689 L -479.9896,469.0699 C -480.4896,469.1699 -480.8896,469.3699 -481.2896,469.5699 C -476.9896,468.4689 -473.8896,467.8699 -471.8896,467.8699 C -463.9896,468.5699 -462.9896,464.5699 -468.7896,455.8699 C -468.8896,455.7689 -468.8896,455.6689 -468.9896,455.6689 z "
         id="path3469" />
      <path
         d="M -456.5896,534.4689 C -455.2896,533.7689 -454.9896,532.3689 -455.8896,530.3689 C -458.7896,525.8689 -463.1896,522.8689 -469.2896,521.4689 C -469.2896,521.4689 -469.3896,521.3689 -469.3896,521.2689 C -474.0896,526.9689 -476.4896,533.2689 -476.4896,540.2689 C -475.5896,550.5699 -469.4896,554.2689 -458.2896,551.2689 C -463.0896,548.2689 -465.0896,543.9689 -464.2896,538.2689 C -462.7896,534.7689 -460.2896,533.5699 -456.8896,534.5699 C -456.7896,534.5699 -456.7896,534.5699 -456.6896,534.5699 C -456.6896,534.4689 -456.6896,534.4689 -456.5896,534.4689 z "
         id="path3471" />
      <path
         d="M -506.3896,499.6689 C -507.3896,505.6689 -506.9896,510.7689 -505.2896,515.2689 C -502.3896,519.9689 -498.4896,522.4689 -493.7896,522.4689 C -495.8896,519.8689 -496.6896,516.5699 -496.1896,512.3689 C -494.9896,509.6689 -492.7896,508.3689 -489.6896,508.5689 C -489.6896,508.3689 -489.5896,508.1689 -489.4896,508.0689 C -486.2896,505.4679 -484.3896,502.7679 -483.7896,499.6689 C -484.2896,495.1689 -486.6896,490.5689 -491.0896,485.8689 C -498.6896,488.2689 -503.7896,492.8689 -506.3896,499.6689 z "
         id="path3473" />
      <path
         d="M -277.6896,594.6689 C -278.0896,599.9689 -277.3896,605.1689 -275.6896,610.1689 C -274.2896,613.4689 -272.1896,615.8689 -269.5896,617.6689 C -265.0896,619.3689 -261.6896,619.6689 -259.1896,618.3689 C -256.3896,617.2679 -254.1896,616.0689 -252.6896,614.7679 C -256.7896,615.1679 -260.0896,614.1679 -262.3896,611.8689 C -265.1896,608.2679 -265.5896,604.6689 -263.2886,601.1689 L -261.0896,598.9689 L -260.1896,598.2689 C -261.7896,596.0699 -263.8896,594.0699 -266.6896,592.2689 C -269.0896,592.1689 -271.3896,592.4689 -273.7896,593.1689 C -275.0906,593.4689 -276.2896,593.9689 -277.5906,594.5689 C -277.5896,594.5689 -277.5896,594.5689 -277.6896,594.6689 z "
         id="path3475" />
      <path
         d="M -228.4896,590.1689 L -228.3896,590.1689 C -225.9896,590.7689 -224.4896,592.0689 -223.9896,593.9689 C -223.0906,595.9689 -222.8896,597.8689 -223.5906,599.5699 C -224.9896,602.6699 -227.8906,604.1699 -232.2896,604.0699 C -231.2896,607.1699 -228.3906,608.8699 -223.3906,609.1699 C -216.4906,608.1699 -212.8906,605.2699 -212.5906,600.3699 C -211.7896,594.4699 -211.9896,588.5699 -213.0906,582.5699 C -213.1906,582.3699 -213.2896,582.2689 -213.3906,582.2689 C -214.8906,580.4689 -216.5906,579.5699 -218.1906,579.4689 C -220.7906,579.5699 -223.2906,580.4689 -225.6906,582.0699 C -228.0896,584.3689 -229.0896,587.0689 -228.4896,590.1689 z "
         id="path3477" />
    </g>
  </g>
</svg>
