<?xml version="1.0" encoding="UTF-8" standalone="no"?>
<!-- Created with Inkscape (http://www.inkscape.org/) -->
<svg
   xmlns:dc="http://purl.org/dc/elements/1.1/"
   xmlns:cc="http://web.resource.org/cc/"
   xmlns:rdf="http://www.w3.org/1999/02/22-rdf-syntax-ns#"
   xmlns:svg="http://www.w3.org/2000/svg"
   xmlns="http://www.w3.org/2000/svg"
   xmlns:xlink="http://www.w3.org/1999/xlink"
   version="1.0"
   width="251"
   height="304.20001"
   id="svg4166">
  <defs
     id="defs4168" />
  <metadata
     id="metadata1880"><rdf:RDF><cc:Work
         rdf:about=""><dc:title>Burlov kommunvapen</dc:title><dc:date>10-09-2007</dc:date><dc:creator><cc:Agent><dc:title>Lokal_Profil</dc:title></cc:Agent></dc:creator><cc:license
         rdf:resource="http://creativecommons.org/licenses/by-sa/2.5/" /><dc:rights><cc:Agent><dc:title>cc-by-sa-2.5</dc:title></cc:Agent></dc:rights><dc:format>image/svg+xml</dc:format><dc:type
         rdf:resource="http://purl.org/dc/dcmitype/StillImage" /></cc:Work><cc:License
         rdf:about="http://creativecommons.org/licenses/by-sa/2.5/"><cc:permits
         rdf:resource="http://web.resource.org/cc/Reproduction" /><cc:permits
         rdf:resource="http://web.resource.org/cc/Distribution" /><cc:requires
         rdf:resource="http://web.resource.org/cc/Notice" /><cc:requires
         rdf:resource="http://web.resource.org/cc/Attribution" /><cc:permits
         rdf:resource="http://web.resource.org/cc/DerivativeWorks" /><cc:requires
         rdf:resource="http://web.resource.org/cc/ShareAlike" /></cc:License></rdf:RDF>
  </metadata>
  <path
     d="M 249.55058,1.4395041 L 125.50008,1.4395041 L 1.4495291,1.4395041 L 1.4495291,174.9361 C 0.68228908,268.65698 81.738969,302.75585 125.50006,302.75585 C 168.49391,302.75585 250.31781,268.65698 249.55058,174.9361 L 249.55058,1.4395041 z "
     style="color:#000000;fill:#d40000;fill-opacity:1;fill-rule:nonzero;stroke:none;stroke-width:1.88832211;stroke-linecap:round;stroke-linejoin:bevel;marker:none;marker-start:none;marker-mid:none;marker-end:none;stroke-miterlimit:4;stroke-dashoffset:0;stroke-opacity:1;visibility:visible;display:block"
     id="Shield" />
  <path
     d="M 104.46144,140.72769 C 104.38427,140.69468 101.65565,139.91611 83.241018,154.81273 C 53.041634,179.24269 120.6191,273.23572 125.34135,293.41878 C 125.39472,293.67935 125.44907,293.94055 125.50387,294.20042 C 125.55598,293.94106 125.60385,293.67924 125.65865,293.41878 C 130.3809,273.23572 197.95836,179.24268 167.75898,154.81273 C 167.75898,154.81273 146.87907,140.72769 146.87907,140.72769 L 125.49614,140.72769 C 125.49614,140.72769 104.46144,140.72769 104.46144,140.72769 z "
     style="fill:#eeeeee;fill-opacity:1;fill-rule:evenodd;stroke:none;stroke-width:1px;stroke-linecap:butt;stroke-linejoin:miter;stroke-opacity:1"
     id="Beta" />
  <path
     d="M 728.57145,209.50508 L 171.68033,-196.36587 L -384.64239,210.28387 L -170.725,-444.77208 L -729.38506,-848.20475 L -40.28572,-847.18064 L 170.7661,-1503.1655 L 382.73552,-847.4766 L 1071.8328,-849.46486 L 513.73774,-445.25095 L 728.57145,209.50508 z "
     transform="matrix(5.551799e-2,0,0,5.551799e-2,115.994,91.47401)"
     style="opacity:1;fill:#eeeeee;fill-opacity:1;stroke:none;stroke-width:46.33037567;stroke-linejoin:miter;stroke-miterlimit:4;stroke-dasharray:none;stroke-opacity:1"
     id="5-pt-Star" />
  <g
     id="Blast">
    <path
       d="M 79.808468,107.28354 C 74.656357,104.28948 63.305776,99.292538 63.233362,105.87518 C 60.906356,117.41113 50.867939,94.557981 44.200796,104.45794 C 44.633709,118.30075 27.567742,100.22803 25.7818,110.97039 C 27.248808,122.42289 12.748622,114.64964 11.242556,122.68223 C 9.7608963,130.58465 28.067246,127.4079 23.137313,135.66657 C 22.811331,143.63675 43.370738,134.98819 40.2018,145.24271 C 42.264594,152.80357 53.960644,136.84187 60.370575,145.95485 C 64.393499,151.67423 69.039415,143.2721 75.061651,142.79409 C 126.73586,126.94942 79.808468,107.28354 79.808468,107.28354 z "
       style="fill:#ffcd50;fill-opacity:1;fill-rule:evenodd;stroke:none;stroke-width:1.22088242px;stroke-linecap:butt;stroke-linejoin:miter;stroke-opacity:1"
       id="path10795" />
    <path
       d="M 43.696385,123.92735 C 73.731012,129.96401 96.835166,117.62738 117.31561,140.23398 L 122.03604,140.11441 C 104.68886,118.73796 78.122105,124.10122 43.696385,123.92735 z "
       style="fill:#ffcd50;fill-opacity:1;fill-rule:evenodd;stroke:#d40000;stroke-width:1;stroke-linecap:butt;stroke-linejoin:miter;stroke-miterlimit:4;stroke-dasharray:none;stroke-opacity:1"
       id="path7245" />
  </g>
  <use
     transform="matrix(-1,0,0,1,251,0)"
     id="Blast-2"
     x="0"
     y="0"
     width="251"
     height="304.20001"
     xlink:href="#Blast" />
  <path
     d="M 249.55062,1.4395041 L 125.50012,1.4395041 L 1.449569,1.4395041 L 1.449569,174.9361 C 0.68232904,268.65698 81.739009,302.75585 125.5001,302.75585 C 168.49395,302.75585 250.31785,268.65698 249.55062,174.9361 L 249.55062,1.4395041 z "
     style="color:#000000;fill:none;fill-opacity:0;fill-rule:nonzero;stroke:#000000;stroke-width:1.88832211;stroke-linecap:round;stroke-linejoin:bevel;marker:none;marker-start:none;marker-mid:none;marker-end:none;stroke-miterlimit:4;stroke-dashoffset:0;stroke-opacity:1;visibility:visible;display:block"
     id="Frame" />
</svg>
