<?xml version="1.0" encoding="UTF-8" standalone="no"?>
<!-- Created with Inkscape (http://www.inkscape.org/) -->
<svg
   xmlns:dc="http://purl.org/dc/elements/1.1/"
   xmlns:cc="http://web.resource.org/cc/"
   xmlns:rdf="http://www.w3.org/1999/02/22-rdf-syntax-ns#"
   xmlns:svg="http://www.w3.org/2000/svg"
   xmlns="http://www.w3.org/2000/svg"
   xmlns:xlink="http://www.w3.org/1999/xlink"
   version="1.0"
   width="251"
   height="304.20001"
   id="svg4166">
  <defs
     id="defs4168" />
  <metadata
     id="metadata1880"><rdf:RDF><cc:Work
         rdf:about=""><dc:title>Vellinge kommunvapen</dc:title><dc:date>11-10-2007</dc:date><dc:creator><cc:Agent><dc:title>Lokal_Profil</dc:title></cc:Agent></dc:creator><cc:license
         rdf:resource="http://creativecommons.org/licenses/by-sa/2.5/" /><dc:rights><cc:Agent><dc:title>cc-by-sa-2.5</dc:title></cc:Agent></dc:rights><dc:format>image/svg+xml</dc:format><dc:type
         rdf:resource="http://purl.org/dc/dcmitype/StillImage" /></cc:Work><cc:License
         rdf:about="http://creativecommons.org/licenses/by-sa/2.5/"><cc:permits
         rdf:resource="http://web.resource.org/cc/Reproduction" /><cc:permits
         rdf:resource="http://web.resource.org/cc/Distribution" /><cc:requires
         rdf:resource="http://web.resource.org/cc/Notice" /><cc:requires
         rdf:resource="http://web.resource.org/cc/Attribution" /><cc:permits
         rdf:resource="http://web.resource.org/cc/DerivativeWorks" /><cc:requires
         rdf:resource="http://web.resource.org/cc/ShareAlike" /></cc:License></rdf:RDF>
  </metadata>
  <path
     d="M 249.55058,1.4395041 L 1.4495291,1.4395041 L 1.4495291,174.9361 C 0.68228908,268.65698 81.738969,302.75585 125.50006,302.75585 C 168.49391,302.75585 250.31781,268.65698 249.55058,174.9361 L 249.55058,1.4395041 z "
     style="color:#000000;fill:#003d8f;fill-opacity:1;stroke:none"
     id="Shield" />
  <path
     d="M 94.5,14.09375 L 94.5,69.875 L 63.46875,69.875 L 63.46875,125.65625 L 32.46875,125.65625 L 32.46875,181.4375 L 1.5625,181.4375 C 2.2874073,203.32156 7.5627992,221.78456 15.78125,237.1875 L 235.125,237.1875 C 243.402,221.78479 248.70424,203.32102 249.4375,181.4375 L 218.53125,181.4375 L 218.53125,125.65625 L 187.53125,125.65625 L 187.53125,69.875 L 156.5,69.875 L 156.5,14.09375 L 94.5,14.09375 z "
     style="opacity:1;fill:#eeeeee;fill-opacity:1;fill-rule:evenodd;stroke:none;stroke-width:0.63800001;stroke-linecap:butt;stroke-miterlimit:4;stroke-dasharray:none;stroke-opacity:1"
     id="Trappgavel" />
  <g
     transform="matrix(0.206379,0,0,0.206379,9.365381,188.8084)"
     id="sill">
    <path
       d="M 288.50993,341.21138 C 290.00519,341.15623 289.37927,349.93643 287.3922,352.11769 C 280.23088,357.22252 269.51112,350.55389 263.1535,346.63151 C 261.16644,345.0918 259.96013,341.87255 260.81517,341.85294 C 272.42677,341.58659 273.71106,341.75719 288.50993,341.21138 z "
       style="fill:#eeeeee;fill-opacity:1;fill-rule:evenodd;stroke:none;stroke-width:1.12303519px;stroke-linecap:butt;stroke-linejoin:miter;stroke-opacity:1"
       id="path10642" />
    <path
       d="M 355.90138,334.6619 C 376.16699,332.68851 377.04949,331.91662 399.34861,326.32178 C 407.40739,339.81214 384.82703,340.7712 372.09597,343.44826 C 369.99584,343.88987 360.91871,339.72728 358.93164,338.31588 C 356.94458,336.90447 354.78365,336.20161 355.90138,334.6619 z "
       style="fill:#eeeeee;fill-opacity:1;fill-rule:evenodd;stroke:none;stroke-width:1.12303519px;stroke-linecap:butt;stroke-linejoin:miter;stroke-opacity:1"
       id="path10644" />
    <path
       d="M 291.80846,273.83047 C 291.80846,273.83047 296.06156,259.00672 298.01805,257.38758 C 300.39313,255.42203 341.08453,265.4979 362.34938,269.19205 C 368.52082,271.26994 371.74125,275.87182 372.28473,282.04798 C 334.98733,276.71836 316.64445,274.46404 291.80846,273.83047 z "
       style="fill:#eeeeee;fill-opacity:1;fill-rule:evenodd;stroke:none;stroke-width:1.12303519px;stroke-linecap:butt;stroke-linejoin:miter;stroke-opacity:1"
       id="path10646" />
    <path
       d="M 478.95059,295.26954 C 495.77571,286.26329 510.88471,266.69765 531.13595,265.07828 C 533.61979,265.71982 534.7375,269.18419 532.37787,273.41839 C 522.9379,283.10021 514.25896,293.09149 506.54598,304.21269 C 512.67857,317.05218 527.40811,318.95989 536.47619,331.67093 C 541.94063,342.44893 541.56806,347.32469 539.58099,347.06807 C 537.59392,346.81145 518.71677,337.44486 511.01688,333.72388 C 504.04444,328.37957 484.02833,322.82045 479.7752,318.0088 C 481.28325,304.04524 481.59385,304.58142 478.95059,295.26954 z "
       style="fill:#eeeeee;fill-opacity:1;fill-rule:evenodd;stroke:none;stroke-width:1.12303519px;stroke-linecap:butt;stroke-linejoin:miter;stroke-opacity:1"
       id="path10648" />
    <path
       d="M 130.23499,313.32836 C 130.23499,313.32836 128.74468,319.10229 136.81715,321.7968 C 144.88961,324.49129 157.43298,327.69903 163.51837,329.75198 C 194.90864,335.4284 221.71367,322.20173 203.01135,288.69293 C 210.18966,286.3418 212.53996,303.72798 212.97575,309.86401 C 212.18484,323.09257 202.843,329.50465 192.08248,334.88436 C 192.08248,334.88436 204.57942,337.64993 223.25461,339.3752 C 245.38183,341.41937 269.10576,341.88295 292.18104,341.29984 C 306.09051,340.52999 335.52397,336.93732 339.87067,336.6807 C 344.21739,336.42407 371.78796,333.21634 389.54738,328.7255 C 407.3068,324.23467 439.72085,314.99638 452.01584,314.73976 C 464.31082,314.48315 479.33802,318.20413 479.33802,318.20413 C 479.33802,318.20413 481.07671,312.5585 481.32509,307.29781 C 481.57348,302.03712 479.33802,295.23672 479.33802,295.23672 C 479.33802,295.23672 458.47381,294.9801 447.79332,294.08193 C 437.11283,293.18376 399.97949,287.15321 391.16187,285.22857 C 359.65129,280.21015 327.80236,275.73438 295.90679,274.19395 C 278.39576,274.19395 241.75918,271.88438 226.23522,273.68071 C 195.36246,276.1776 166.57176,285.15573 139.30098,299.59924 C 135.07846,302.42205 132.59463,304.73163 132.9672,307.04119 C 133.33977,309.35077 132.59463,310.89048 137.18972,312.68682 C 141.78482,314.48315 152.7137,318.20413 155.44591,319.48722 C 158.17813,320.77031 159.66843,322.82327 158.92328,323.20819 C 158.17813,323.59312 152.83788,321.54018 148.11859,319.48722 C 143.39931,317.43426 137.93487,316.40779 135.32685,314.61146 C 132.71882,312.81512 130.11079,311.01879 130.23499,313.32836 z "
       style="fill:#eeeeee;fill-opacity:1;fill-rule:evenodd;stroke:#003d8f;stroke-width:2.13958216;stroke-linecap:butt;stroke-linejoin:miter;stroke-miterlimit:4;stroke-dasharray:none;stroke-opacity:1"
       id="path10650" />
    <path
       d="M 212.43776,322.56665 C 212.43776,322.56665 235.53743,322.18172 239.0148,320.38539 C 242.49217,318.58905 240.75349,317.56258 238.14546,316.66441 C 235.53743,315.76625 218.89573,314.09821 216.66028,312.81512"
       style="fill:none;fill-opacity:1;fill-rule:evenodd;stroke:#003d8f;stroke-width:2.13958216;stroke-linecap:butt;stroke-linejoin:miter;stroke-miterlimit:4;stroke-dasharray:none;stroke-opacity:1"
       id="path10652" />
    <path
       d="M 147.74602,304.85993 C 147.74602,304.85993 146.87668,299.98417 151.59597,296.64812 C 156.31525,293.31207 161.28293,294.21024 163.89095,296.51981 C 166.49897,298.82938 168.11347,304.60331 166.74736,308.32428 C 165.38125,312.04527 162.15227,315.50962 157.80556,315.76625 C 153.45884,316.02287 148.98794,311.53203 148.36698,309.22245 C 147.74602,306.91289 147.74602,305.11655 147.74602,304.85993 z "
       style="fill:#003d8f;fill-opacity:1;fill-rule:evenodd;stroke:none;stroke-width:1.12303519px;stroke-linecap:butt;stroke-linejoin:miter;stroke-opacity:1"
       id="path10654" />
    <path
       d="M 150.85081,302.93529 C 150.85081,302.93529 152.21692,298.82938 154.94914,297.6746 C 157.68136,296.51981 161.77969,297.54629 162.89742,299.47094 C 164.01514,301.39558 165.50544,305.88641 164.01514,309.09415 C 162.52484,312.30188 158.79909,313.96991 155.5701,312.81512 C 152.34111,311.66033 149.6089,307.42613 150.85081,302.93529 z "
       style="fill:#eeeeee;fill-opacity:1;fill-rule:evenodd;stroke:none;stroke-width:1.12303519px;stroke-linecap:butt;stroke-linejoin:miter;stroke-opacity:1"
       id="path10656" />
    <path
       d="M 157.30878,300.24079 C 157.30878,300.24079 161.28293,300.11248 161.90389,303.57684 C 162.52484,307.04119 160.91034,308.83753 159.54424,309.60739 C 158.17813,310.37724 154.32818,309.86401 153.58304,307.68274 C 152.83788,305.50148 153.08627,302.93529 153.95561,301.6522 C 154.82495,300.3691 157.30878,300.3691 157.30878,300.24079 z "
       style="fill:#003d8f;fill-opacity:1;fill-rule:evenodd;stroke:none;stroke-width:1.12303519px;stroke-linecap:butt;stroke-linejoin:miter;stroke-opacity:1"
       id="path10658" />
    <path
       d="M 177.55205,292.02898 C 188.95943,299.851 189.39677,308.54432 185.25194,320.89863 C 185.12774,322.43834 181.79907,323.81372 183.14067,320.25707 C 192.34768,295.84878 169.47533,293.7905 177.55205,292.02898 z "
       style="fill:#003d8f;fill-opacity:1;fill-rule:evenodd;stroke:none;stroke-width:1.12303519px;stroke-linecap:butt;stroke-linejoin:miter;stroke-opacity:1"
       id="path10660" />
  </g>
  <use
     transform="translate(93,0)"
     id="sill-2"
     x="0"
     y="0"
     width="251"
     height="304.20001"
     xlink:href="#sill" />
  <use
     transform="translate(47,31.46897)"
     id="sill-3"
     x="0"
     y="0"
     width="251"
     height="304.20001"
     xlink:href="#sill" />
  <g
     transform="matrix(0.480623,0,0,0.480623,223.3171,78.97506)"
     id="Millrynde">
    <path
       d="M -104.08663,280.39311 C -108.92801,280.39311 -188.52374,236.70394 -188.52374,150.28373 C -188.52374,63.056631 -110.5418,20.174357 -104.08663,20.174357"
       style="fill:none;stroke:#003d8f;stroke-width:30;stroke-miterlimit:4;stroke-dasharray:none;stroke-opacity:1"
       id="use15016" />
    <use
       transform="matrix(-1,0,0,1,-407.043,-4.953788e-7)"
       id="use16790"
       x="0"
       y="0"
       width="251"
       height="304.20001"
       xlink:href="#use15016" />
    <path
       d="M -260.62931,94.81013 L -260.62931,205.77888 L -145.62931,205.77888 L -145.62931,94.81013 L -260.62931,94.81013 z "
       style="opacity:1;fill:#003d8f;fill-opacity:1;fill-rule:evenodd;stroke:none;stroke-width:10;stroke-linecap:round;stroke-linejoin:round;stroke-miterlimit:4;stroke-dasharray:none;stroke-opacity:1"
       id="path16796" />
    <path
       d="M -231.56681,122.84138 L -174.66056,122.84138 L -174.66056,177.74763 L -231.56681,177.74763 L -231.56681,122.84138 z "
       style="opacity:1;fill:#eeeeee;fill-opacity:1;fill-rule:evenodd;stroke:none;stroke-width:10;stroke-linecap:round;stroke-linejoin:round;stroke-miterlimit:4;stroke-dasharray:none;stroke-opacity:1"
       id="rect14124" />
  </g>
  <path
     d="M 249.55062,1.4395041 L 1.449569,1.4395041 L 1.449569,174.9361 C 0.68232904,268.65698 81.739009,302.75585 125.5001,302.75585 C 168.49395,302.75585 250.31785,268.65698 249.55062,174.9361 L 249.55062,1.4395041 z "
     style="fill:none;fill-opacity:0;stroke:#000000;stroke-width:1.88832211;stroke-linejoin:bevel"
     id="Frame" />
</svg>
