<?xml version="1.0" encoding="UTF-8" standalone="no"?>
<svg
   xmlns:dc="http://purl.org/dc/elements/1.1/"
   xmlns:cc="http://creativecommons.org/ns#"
   xmlns:rdf="http://www.w3.org/1999/02/22-rdf-syntax-ns#"
   xmlns:svg="http://www.w3.org/2000/svg"
   xmlns="http://www.w3.org/2000/svg"
   id="svg4166"
   height="304.20001"
   width="251"
   version="1.0">
<metadata
   id="metadata1880"><rdf:RDF><cc:Work
         rdf:about=""><dc:title>Lomma kommunvapen</dc:title><dc:date>2007-06-14</dc:date><dc:creator><cc:Agent><dc:title>Lokal_Profil</dc:title></cc:Agent></dc:creator><cc:license
         rdf:resource="http://creativecommons.org/licenses/by-sa/2.5/" /><dc:rights><cc:Agent><dc:title>cc-by-sa-2.5</dc:title></cc:Agent></dc:rights><dc:format>image/svg+xml</dc:format><dc:type
         rdf:resource="http://purl.org/dc/dcmitype/StillImage" /></cc:Work><cc:License
         rdf:about="http://creativecommons.org/licenses/by-sa/2.5/"><cc:permits
         rdf:resource="http://web.resource.org/cc/Reproduction" /><cc:permits
         rdf:resource="http://web.resource.org/cc/Distribution" /><cc:requires
         rdf:resource="http://web.resource.org/cc/Notice" /><cc:requires
         rdf:resource="http://web.resource.org/cc/Attribution" /><cc:permits
         rdf:resource="http://web.resource.org/cc/DerivativeWorks" /><cc:requires
         rdf:resource="http://web.resource.org/cc/ShareAlike" /></cc:License></rdf:RDF>
</metadata>
  <defs
     id="defs4168" />
  <path
     clip-path="none"
     id="Shield"
     style="color:#000000;fill:#d40000;fill-opacity:1;fill-rule:nonzero;stroke:none;stroke-width:1.88832211;stroke-linecap:round;stroke-linejoin:bevel;marker:none;marker-start:none;marker-mid:none;marker-end:none;stroke-miterlimit:4;stroke-dashoffset:0;stroke-opacity:1;visibility:visible;display:block"
     d="M 249.55058,1.4395041 L 125.50008,1.4395041 L 1.4495291,1.4395041 L 1.4495291,174.9361 C 0.68228908,268.65698 81.738969,302.75585 125.50006,302.75585 C 168.49391,302.75585 250.31781,268.65698 249.55058,174.9361 L 249.55058,1.4395041 z " />
  <path
     style="fill:#ffcd50;fill-rule:evenodd;stroke:none;stroke-width:0.68181819"
     id="Anchor"
     d="m 125.15369,12.471467 c -0.0787,0.0122 -0.1539,0.0385 -0.23207,0.0516 -6.17792,0.35673 -11.33172,4.24344 -13.38285,9.59235 -3.01325,6.52406 -0.97727,14.59258 8.22568,18.79788 v 10.49483 H 89.105071 c -1.80792,0 -1.61552,9.4505 -0.25787,9.4892 l 30.607819,-0.0774 c 0.0343,7.30503 0.11902,14.61302 0.0258,21.91798 -0.34473,15.089348 -0.63324,30.187293 -0.77358,45.279933 -0.062,8.17389 -0.35241,15.99477 -0.67041,17.40545 -1.19859,5.31704 -4.54299,6.03045 -14.87846,3.19746 -10.748539,-2.94621 -24.106079,-9.46348 -26.353139,-12.89294 -1.78639,-2.72643 -2.09042,-5.09721 -0.79937,-6.52382 0.64368,-0.71125 1.61417,-1.13016 2.14024,-0.9283 0.58168,0.22317 1.1796,-0.23342 1.54715,-1.21191 1.29376,-3.44449 -3.02092,-8.55752 -11.52629,-13.61493 -2.06726,-1.22927 -5.4364,-3.85615 -7.50368,-5.8534 -2.16907,-2.09556 -4.07125,-3.42853 -4.51252,-3.14587 -1.37298,0.87952 -4.19086,7.24552 -5.05403,11.42313 -1.7352,8.39818 0.47328,20.79525 4.5641,25.65692 2.15948,2.56636 3.36448,2.59426 3.86788,0.0774 0.88695,-4.43482 6.41555,-3.17169 12.42877,2.86223 4.7591,4.77548 13.79383,11.6883 17.74068,13.56336 1.50345,0.71426 3.66856,1.87348 4.79618,2.57858 1.12757,0.70508 4.52253,2.11743 7.529469,3.14587 6.29944,2.1546 13.65931,5.97326 16.58029,8.5867 1.10968,0.9928 3.94785,2.80693 5.05403,3.6358 1.50492,1.08738 2.17999,0.91375 3.6616,0 1.10618,-0.82887 3.97013,-2.643 5.07979,-3.6358 2.921,-2.61344 10.28085,-6.4321 16.58031,-8.5867 3.00693,-1.02844 6.4019,-2.44079 7.52947,-3.14587 1.12759,-0.7051 3.29271,-1.86432 4.79618,-2.57858 3.94687,-1.87506 12.98156,-8.78788 17.74066,-13.56336 6.0132,-6.03392 11.51601,-7.29705 12.40298,-2.86223 0.5034,2.5169 1.70842,2.489 3.86789,-0.0774 4.09083,-4.86167 6.32508,-17.25874 4.58988,-25.65692 -0.86316,-4.17761 -3.68105,-10.54361 -5.05402,-11.42313 -0.44127,-0.28266 -2.34346,1.05031 -4.51253,3.14587 -2.06728,1.99725 -5.43643,4.62413 -7.50368,5.8534 -8.50537,5.05741 -12.82003,10.17044 -11.52629,13.61493 0.36755,0.97849 0.96547,1.43508 1.54717,1.21191 0.52605,-0.20186 1.47075,0.21705 2.11444,0.9283 1.29103,1.42661 1.01279,3.79739 -0.77359,6.52382 -2.24706,3.42946 -15.60458,9.94673 -26.35313,12.89294 -10.33545,2.83299 -13.67987,2.11958 -14.87843,-3.19746 -0.31801,-1.41068 -0.60845,-9.23156 -0.67044,-17.40545 -0.14033,-15.09264 -0.45464,-30.190585 -0.79937,-45.279933 -0.0932,-7.30496 0.0172,-14.61295 0.0515,-21.91798 l 30.60782,0.0774 c 1.35767,-0.0387 1.55005,-9.4892 -0.25787,-9.4892 H 131.2391 v -10.49486 c 9.12689,-4.17053 11.20832,-12.14775 8.30303,-18.64318 -2.00683,-5.42644 -7.22779,-9.38117 -13.46021,-9.74705 -0.0795,-0.0133 -0.15203,-0.0391 -0.23206,-0.0516 -0.1213,0 -0.24038,0.0231 -0.361,0.0258 -0.11394,-0.002 -0.22067,-0.0258 -0.33522,-0.0258 z m 0.33522,7.14269 c 3.33163,0 6.1518,2.12199 7.0911,5.02823 0.14451,0.44712 0.25888,0.91245 0.30943,1.39245 0.0253,0.24 0.0258,0.47556 0.0258,0.722 8e-5,0.24641 -5.1e-4,0.50778 -0.0258,0.74778 -0.0505,0.48 -0.16492,0.94532 -0.30943,1.39244 -0.9393,2.90625 -3.75946,5.00247 -7.0911,5.00247 -3.07539,0 -5.70674,-1.79533 -6.83325,-4.35783 -0.18776,-0.42707 -0.33959,-0.87609 -0.43836,-1.34086 -0.0988,-0.46475 -0.12907,-0.95115 -0.12893,-1.444 -1.4e-4,-0.49285 0.0301,-0.97925 0.12893,-1.44402 0.0988,-0.46474 0.2506,-0.91378 0.43836,-1.34086 1.12651,-2.56248 3.75786,-4.3578 6.83325,-4.3578 z" />
  <path
     id="Mur"
     d="M 2.0488281 189.72656 C 2.6692311 196.66931 3.7639068 203.24395 5.2773438 209.46289 L 14.974609 209.46289 L 14.974609 189.72656 L 2.0488281 189.72656 z M 62.341797 189.72656 L 62.341797 209.46289 L 101.81641 209.46289 L 101.81641 189.72656 L 62.341797 189.72656 z M 149.18359 189.72656 L 149.18359 209.46289 L 188.6582 209.46289 L 188.6582 189.72656 L 149.18359 189.72656 z M 236.02734 189.72656 L 236.02734 209.46289 L 245.6875 209.46289 C 247.21399 203.24399 248.3188 196.66926 248.94531 189.72656 L 236.02734 189.72656 z M 6.3046875 213.41016 C 8.2667631 220.45804 10.772783 227.0304 13.730469 233.14648 L 36.683594 233.14648 L 36.683594 213.41016 L 6.3046875 213.41016 z M 40.630859 213.41016 L 40.630859 233.14648 L 80.105469 233.14648 L 80.105469 213.41016 L 40.630859 213.41016 z M 84.052734 213.41016 L 84.052734 233.14648 L 123.52734 233.14648 L 123.52734 213.41016 L 84.052734 213.41016 z M 127.47461 213.41016 L 127.47461 233.14648 L 166.94727 233.14648 L 166.94727 213.41016 L 127.47461 213.41016 z M 170.89453 213.41016 L 170.89453 233.14648 L 210.36914 233.14648 L 210.36914 213.41016 L 170.89453 213.41016 z M 214.31641 213.41016 L 214.31641 233.14648 L 237.16602 233.14648 C 240.14567 227.03034 242.67172 220.45813 244.65039 213.41016 L 214.31641 213.41016 z M 18.921875 237.09375 L 18.921875 242.70312 C 21.998813 247.76737 25.396549 252.47376 29.052734 256.83203 L 58.394531 256.83203 L 58.394531 237.09375 L 18.921875 237.09375 z M 62.341797 237.09375 L 62.341797 256.83203 L 101.81641 256.83203 L 101.81641 237.09375 L 62.341797 237.09375 z M 105.76367 237.09375 L 105.76367 256.83203 L 145.23633 256.83203 L 145.23633 237.09375 L 105.76367 237.09375 z M 149.18359 237.09375 L 149.18359 256.83203 L 188.6582 256.83203 L 188.6582 237.09375 L 149.18359 237.09375 z M 192.60547 237.09375 L 192.60547 256.83203 L 221.74414 256.83203 C 225.47717 252.40748 228.94313 247.6231 232.07812 242.4707 L 232.07812 237.09375 L 192.60547 237.09375 z M 32.523438 260.7793 C 33.881148 262.25745 35.269437 263.68994 36.683594 265.08203 L 36.683594 260.7793 L 32.523438 260.7793 z M 40.630859 260.7793 L 40.630859 268.79883 C 45.475492 273.15941 50.580065 277.05724 55.835938 280.51562 L 80.105469 280.51562 L 80.105469 260.7793 L 40.630859 260.7793 z M 84.052734 260.7793 L 84.052734 280.51562 L 123.52734 280.51562 L 123.52734 260.7793 L 84.052734 260.7793 z M 127.47461 260.7793 L 127.47461 280.51562 L 166.94727 280.51562 L 166.94727 260.7793 L 127.47461 260.7793 z M 170.89453 260.7793 L 170.89453 280.51562 L 194.84766 280.51562 C 200.21141 276.99547 205.42551 273.02172 210.36914 268.56641 L 210.36914 260.7793 L 170.89453 260.7793 z M 214.31641 260.7793 L 214.31641 264.8418 C 215.65332 263.52475 216.96703 262.17288 218.25391 260.7793 L 214.31641 260.7793 z M 62.341797 284.46289 L 62.341797 284.53711 C 75.44102 292.12441 89.14452 297.1369 101.81641 299.95117 L 101.81641 284.46289 L 62.341797 284.46289 z M 105.76367 284.46289 L 105.76367 300.75586 C 112.83127 302.09402 119.521 302.75586 125.5 302.75586 C 131.43926 302.75586 138.13516 302.0777 145.23633 300.70898 L 145.23633 284.46289 L 105.76367 284.46289 z M 149.18359 284.46289 L 149.18359 299.88867 C 161.74558 297.0543 175.38423 292.03945 188.45508 284.46289 L 149.18359 284.46289 z "
     style="fill:#ffcd50;fill-opacity:1;fill-rule:evenodd;stroke:none" />
  <path
     id="Frame"
     style="color:#000000;fill:none;fill-opacity:0;fill-rule:nonzero;stroke:#000000;stroke-width:1.88832211;stroke-linecap:round;stroke-linejoin:bevel;marker:none;marker-start:none;marker-mid:none;marker-end:none;stroke-miterlimit:4;stroke-dashoffset:0;stroke-opacity:1;visibility:visible;display:block"
     d="M 249.55062,1.4395041 L 125.50012,1.4395041 L 1.449569,1.4395041 L 1.449569,174.9361 C 0.68232904,268.65698 81.739009,302.75585 125.5001,302.75585 C 168.49395,302.75585 250.31785,268.65698 249.55062,174.9361 L 249.55062,1.4395041 z " />
</svg>
