<?xml version="1.0" encoding="UTF-8" standalone="no"?>
<!-- Created with Inkscape (http://www.inkscape.org/) -->
<svg
   xmlns:svg="http://www.w3.org/2000/svg"
   xmlns="http://www.w3.org/2000/svg"
   version="1.0"
   width="251"
   height="304.20001"
   id="svg4166">
  <defs
     id="defs4168" />
  <path
     d="M 249.55058,1.4395041 L 1.4495291,1.4395041 L 1.4495291,174.9361 C 0.68228908,268.65698 81.738969,302.75585 125.50006,302.75585 C 168.49391,302.75585 250.31781,268.65698 249.55058,174.9361 L 249.55058,1.4395041 z "
     style="fill:#d40000;stroke:none"
     id="Shield" />
  <path
     d="M 144.48247,48.190992 C 157.65548,37.916344 167.81409,33.622806 183.00544,24.427996 C 198.19678,15.233186 194.63303,20.57043 194.63303,20.57043 L 177.86523,34.34599 L 215.81494,17.625172 C 215.81494,17.625172 215.4065,21.903465 208.58233,26.63368 C 201.75818,31.363897 188.51829,36.546035 188.51829,36.546035 L 231.96175,26.263895 C 231.96175,26.263895 229.74037,31.374474 219.6558,35.497661 C 209.57122,39.620847 191.62345,42.756635 191.62345,42.756635 L 233.5,39.894929 C 233.5,39.894929 228.68941,44.28514 220.68767,46.478133 C 212.68594,48.671127 201.49307,48.666895 201.49307,48.666895 L 229.56363,52.766642 C 229.56363,52.766642 224.5739,55.661224 218.63351,56.927368 C 212.69311,58.193512 205.80207,57.831212 205.80207,57.831212 L 221.33739,62.153397 L 208.71614,66.389209 L 207.63651,70.780835 L 201.56952,71.384338 L 196.70638,74.941563 L 192.03432,76.151392 L 189.15848,78.952117 L 186.09155,84.100239 L 171.59769,123.16871 L 158.73761,145.12402 C 158.73761,145.12402 174.92689,156.85402 188.88575,165.75695 C 202.84461,174.65988 214.57306,180.73574 214.57306,180.73574 C 205.99967,180.46738 197.12557,184.6754 195.33599,187.62796 C 193.53111,190.60576 192.31768,194.18369 194.31426,202.81399 C 182.79292,190.26744 147.33934,157.99292 147.33934,157.99292 L 136.32323,166.16702 L 120.14778,178.57976 L 102.17613,189.40159 L 91.284385,194.82302 L 82.408272,198.63254 L 77.440019,200.52379 C 77.440019,200.52379 77.632105,203.10722 76.194182,204.50758 C 74.756258,205.90794 74.36061,210.61969 68.711665,206.78725 C 68.711665,206.78725 71.177469,211.19795 69.469638,213.69623 C 67.761806,216.19449 65.857404,212.23633 64.123302,214.3181 C 62.389199,216.39986 65.957144,217.0177 64.112518,219.41158 C 62.267902,221.80546 58.704049,220.73518 58.704049,220.73518 C 58.704049,220.73518 54.127543,235.55659 52.188012,235.72624 C 50.248481,235.89589 50.945936,221.4138 50.945936,221.4138 C 50.945936,221.4138 46.639358,235.13726 44.047753,241.09959 C 41.456148,247.06194 40.579527,245.26317 40.579527,245.26317 L 43.254711,212.39962 C 43.254711,212.39962 38.709271,229.05734 34.980697,237.15849 C 31.252133,245.25964 28.340455,244.80419 28.340455,244.80419 L 35.773679,206.71745 C 35.773679,206.71745 31.47664,223.28061 28.388213,229.43209 C 25.299786,235.58355 23.419971,231.32332 23.419971,231.32332 L 30.891423,204.59531 C 30.891423,204.59531 21.30966,219.39357 19.10964,220.02284 C 16.909611,220.65211 21.312629,212.24248 22.091306,207.11242 C 22.869983,201.98236 27.662049,191.03936 27.662049,191.03936 L 19.416674,194.74677 C 19.416674,194.74677 23.314834,185.30158 33.270408,172.41321 C 43.225992,159.52484 51.081226,149.40131 59.239,143.19328 C 63.911404,139.63761 83.382736,133.43393 83.382736,133.43393 L 94.207769,127.60721 L 87.022916,121.24363 L 83.449604,123.74118 C 83.449604,123.74118 81.793704,120.15115 82.904392,117.59587 C 84.015079,115.04057 87.892345,113.52003 87.892345,113.52003 C 87.892345,113.52003 87.713199,112.0244 90.768192,110.7193 C 93.823186,109.41421 95.488024,108.92262 100.11231,108.29965 C 104.73659,107.67666 109.26534,108.22737 109.26534,108.22737 C 109.26534,108.22737 112.82116,105.91872 120.76872,97.02447 C 133.28248,83.02013 128.48338,78.722801 130.31345,65.526597 C 130.31345,65.526597 131.30948,58.465645 144.48247,48.190992 z "
     style="fill:#eeeeee"
     id="Glada" />
  <path
     d="M 249.55062,1.4395041 L 1.449569,1.4395041 L 1.449569,174.9361 C 0.68232904,268.65698 81.739009,302.75585 125.5001,302.75585 C 168.49395,302.75585 250.31785,268.65698 249.55062,174.9361 L 249.55062,1.4395041 z "
     style="fill:none;fill-opacity:0;stroke:#000000;stroke-width:1.88832211;stroke-linejoin:bevel"
     id="Frame" />
</svg>
