<?xml version="1.0" encoding="UTF-8" standalone="no"?>
<!-- Created with Inkscape (http://www.inkscape.org/) -->
<svg
   xmlns:dc="http://purl.org/dc/elements/1.1/"
   xmlns:cc="http://web.resource.org/cc/"
   xmlns:rdf="http://www.w3.org/1999/02/22-rdf-syntax-ns#"
   xmlns:svg="http://www.w3.org/2000/svg"
   xmlns="http://www.w3.org/2000/svg"
   version="1.0"
   width="251"
   height="304.20001"
   id="svg4166">
  <defs
     id="defs4168" />
  <metadata
     id="metadata1880"><rdf:RDF><cc:Work
         rdf:about=""><dc:title>Osby kommunvapen</dc:title><dc:date>23-08-2007</dc:date><dc:creator><cc:Agent><dc:title>Lokal_Profil</dc:title></cc:Agent></dc:creator><cc:license
         rdf:resource="http://creativecommons.org/licenses/by-sa/2.5/" /><dc:rights><cc:Agent><dc:title>cc-by-sa-2.5</dc:title></cc:Agent></dc:rights><dc:format>image/svg+xml</dc:format><dc:type
         rdf:resource="http://purl.org/dc/dcmitype/StillImage" /></cc:Work><cc:License
         rdf:about="http://creativecommons.org/licenses/by-sa/2.5/"><cc:permits
         rdf:resource="http://web.resource.org/cc/Reproduction" /><cc:permits
         rdf:resource="http://web.resource.org/cc/Distribution" /><cc:requires
         rdf:resource="http://web.resource.org/cc/Notice" /><cc:requires
         rdf:resource="http://web.resource.org/cc/Attribution" /><cc:permits
         rdf:resource="http://web.resource.org/cc/DerivativeWorks" /><cc:requires
         rdf:resource="http://web.resource.org/cc/ShareAlike" /></cc:License></rdf:RDF>
  </metadata>
  <path
     d="M 249.55058,1.4395041 L 125.50008,1.4395041 L 1.4495291,1.4395041 L 1.4495291,174.9361 C 0.68228908,268.65698 81.738969,302.75585 125.50006,302.75585 C 168.49391,302.75585 250.31781,268.65698 249.55058,174.9361 L 249.55058,1.4395041 z "
     style="color:#000000;fill:#eeeeee;fill-opacity:1;fill-rule:nonzero;stroke:none;stroke-width:1.88832211;stroke-linecap:round;stroke-linejoin:bevel;marker:none;marker-start:none;marker-mid:none;marker-end:none;stroke-miterlimit:4;stroke-dashoffset:0;stroke-opacity:1;visibility:visible;display:block"
     id="Shield" />
  <g
     transform="matrix(0.417985,-1.030684e-2,-1.030799e-2,0.421618,-169.5364,-20.64043)"
     id="Rifle">
    <path
       d="M 641.81811,502.52089 C 653.15348,522.68837 638.93437,536.7008 617.81016,532.34514"
       style="fill:none;stroke:#d40000;stroke-width:2.56468868;stroke-miterlimit:4;stroke-dasharray:none;stroke-opacity:1"
       id="avtryckare1" />
    <path
       d="M 630.63688,516.56331 C 629.16796,524.14226 636.51707,525.6552 636.51707,525.6552"
       style="fill:none;stroke:#d40000;stroke-width:3.05467224;stroke-miterlimit:4;stroke-dasharray:none;stroke-opacity:1"
       id="avtryckare2" />
    <path
       d="M 899.46858,145.39372 L 612.72086,428.04185 C 609.04631,437.89024 619.88353,440.54499 619.70163,443.0071 C 611.80222,456.26672 614.00789,469.33839 612.35249,472.93758 C 600.41472,489.42048 585.53457,488.85194 584.24755,488.664 C 569.73577,485.62866 564.5923,506.84785 560.73581,507.60432 C 555.41044,513.47765 561.47256,525.22432 554.49179,530.90499 C 555.59234,531.09762 509.48297,577.51103 504.52594,582.43522 C 502.68864,587.35942 472.37807,619.37614 472.37807,619.37614 C 477.15317,631.49868 528.40605,665.03304 528.22415,666.16542 C 566.06122,620.88909 615.6587,528.63085 620.80218,528.067 C 648.17495,496.80679 674.44259,453.80463 669.66749,441.68206 C 673.52394,420.27497 696.85378,401.32996 704.20292,402.27906 C 699.60972,388.82678 705.85374,378.02929 706.03564,376.89218 L 910.85611,170.96857 C 910.85611,160.5516 907.18152,163.58226 900.20078,163.01372 C 900.20078,163.01372 905.89907,154.10977 906.99962,154.10977 C 907.91827,147.85583 902.03804,144.44931 899.46858,145.39372 z "
       style="fill:#d40000;fill-opacity:1;stroke:none;stroke-width:1.68045974;stroke-opacity:1"
       id="Wood" />
    <path
       d="M 956.01637,105.77425 L 947.96097,96.51823 L 612.72086,428.04185 C 609.04631,437.89024 619.70163,441.68206 619.51516,444.33211 L 848.40217,217.38198 C 848.40217,217.38198 933.79162,128.31845 956.01637,105.77425 z "
       style="fill:#d40000;fill-opacity:1;stroke:#eeeeee;stroke-width:2.38480997;stroke-miterlimit:4;stroke-dasharray:none;stroke-opacity:1"
       id="barrel" />
    <path
       d="M 611.62032,429.36686 C 617.49596,435.80873 653.50032,450.58605 658.09352,477.29324 C 640.27553,506.09134 619.15136,527.49847 616.94569,532.23473 C 586.82156,517.64538 570.47249,506.65988 565.14257,502.29952 C 566.42956,497.56326 573.04196,492.63906 573.04196,492.63906 C 577.26682,485.44072 584.79782,489.22785 584.79782,489.22785 C 600.59662,482.22213 607.94576,467.44485 604.82148,456.64732 C 601.14689,443.0071 603.72094,446.22569 603.16609,444.52474 C 604.82148,436.9458 611.62032,429.36686 611.62032,429.36686 z "
       style="fill:#d40000;fill-opacity:1;stroke:#eeeeee;stroke-width:2.38480997;stroke-miterlimit:4;stroke-dasharray:none;stroke-opacity:1"
       id="chamber" />
  </g>
  <g
     transform="matrix(0.542553,-0.455256,0.455256,0.542553,27.60951,-46.86471)"
     style="fill:#225500;fill-opacity:1;display:inline"
     id="Palmblad">
    <path
       d="M 13.977181,264.4348 C 10.059161,270.8603 1.6941815,279.76313 -5.6119785,285.2835 C -9.6855685,288.36141 -22.607409,294.73206 -24.843799,294.76506 C -25.680959,294.77741 -26.098309,296.51742 -26.107449,300.0335 C -26.114959,302.921 -26.392449,306.296 -26.724079,307.5335 C -27.694089,311.15306 -23.832839,310.38276 -15.070739,305.20871 C -7.7760785,300.90119 -4.5124985,297.81933 8.4819815,282.96746 C 12.591961,278.27001 15.824131,270.31455 15.869821,264.7835 L 15.898721,261.2835 L 13.977181,264.4348 z "
       style="fill:#225500;fill-opacity:1;stroke:#eeeeee;stroke-width:1.40905046;stroke-miterlimit:4;stroke-dasharray:none;stroke-opacity:1"
       id="path21454" />
    <path
       d="M 12.996851,231.33953 C 12.496711,231.03042 11.072681,232.91637 9.8323515,235.53051 C 6.6112915,242.31923 -12.988299,261.72756 -19.802809,264.87647 L -25.011819,267.2835 L -25.052809,274.89749 L -25.093799,282.51148 L -20.801549,280.33847 C -13.969659,276.87972 -8.0233585,272.39687 -1.9394985,266.11854 C 3.6597715,260.34029 11.491731,248.60669 12.968731,243.7835 C 14.057701,240.22742 14.076281,232.00665 12.996851,231.33953 z "
       style="fill:#225500;fill-opacity:1;stroke:#eeeeee;stroke-width:1.40905046;stroke-miterlimit:4;stroke-dasharray:none;stroke-opacity:1"
       id="path21452" />
    <path
       d="M 6.9467715,302.88128 C -8.5737585,316.95064 -12.699779,319.48253 -21.591549,320.39352 C -28.327939,321.08368 -28.558789,321.29087 -30.567429,328.44934 C -31.440899,331.56226 -30.254799,331.85082 -22.905989,330.31325 C -12.758879,328.1902 0.26054146,321.12606 5.4529215,314.92613 C 7.7943615,312.13034 12.458771,301.6397 12.809181,298.38128 C 12.862541,297.88506 10.224461,299.91006 6.9467715,302.88128 z "
       style="fill:#225500;fill-opacity:1"
       id="path21450" />
    <path
       d="M 5.9625415,205.31832 C 5.4435215,204.99755 3.7998715,206.88349 2.3099815,209.5093 C -1.2968485,215.86606 -15.275939,230.03715 -21.908079,234.06001 C -27.076659,237.19513 -27.202649,237.37945 -26.503449,240.7835 C -26.108049,242.7085 -25.516619,246.00582 -25.189169,248.11087 L -24.593799,251.93824 L -16.593799,246.24645 C -12.193799,243.11597 -7.0750685,239.14365 -5.2188385,237.41908 C -1.6442185,234.098 4.9652915,224.63947 6.0565215,221.2835 C 7.0802615,218.13507 7.0086215,205.96483 5.9625415,205.31832 z "
       style="fill:#225500;fill-opacity:1"
       id="path21448" />
    <path
       d="M 2.1562015,330.99408 C -5.8178885,338.68424 -17.595839,344.62549 -26.518509,345.4587 C -32.603749,346.02695 -33.059269,346.24568 -34.044799,349.07275 C -35.780949,354.05307 -35.400809,357.7835 -33.157149,357.7835 C -28.861549,357.7835 -15.182799,353.85652 -9.5683785,351.01149 C -1.8779585,347.11449 0.53113146,344.4371 3.3626915,336.64035 C 6.6153515,327.68409 6.4398915,326.86292 2.1562015,330.99408 z "
       style="fill:#225500;fill-opacity:1"
       id="path21446" />
    <path
       d="M 1.4822015,168.78351 C 1.2489915,168.78351 -0.21350854,171.34899 -1.7677985,174.48457 C -3.3220985,177.62015 -5.1915885,180.88264 -5.9222285,181.73456 C -7.9671485,184.11893 -18.471399,198.91343 -20.512189,202.2835 C -21.511369,203.9335 -24.201319,206.85199 -26.489849,208.76902 L -30.650819,212.25455 L -29.674829,217.01902 C -28.403519,223.22514 -26.554369,223.22789 -19.923119,217.0335 C -12.105609,209.73099 -2.8936585,194.95941 0.50065146,184.2835 C 1.6846915,180.55941 2.4304115,168.78351 1.4822015,168.78351 z "
       style="fill:#225500;fill-opacity:1"
       id="path21444" />
    <path
       d="M -6.3437985,360.12275 C -13.526969,365.51793 -19.226399,367.59259 -28.825709,368.30644 L -38.057629,368.99296 L -39.070139,372.63823 C -40.749519,378.68438 -40.664709,378.78401 -33.843809,378.77792 C -22.340879,378.76766 -15.886109,375.40124 -7.3933685,364.98297 C -2.2786685,358.70864 -1.8561685,356.75215 -6.3437985,360.12275 z "
       style="fill:#225500;fill-opacity:1"
       id="path21442" />
    <path
       d="M -6.6255985,147.22464 C -7.4331085,148.29226 -8.0937985,150.14196 -8.0937985,151.33509 C -8.0937985,154.5942 -14.527199,163.35179 -29.927159,181.05618 C -33.096539,184.69982 -34.107499,186.60817 -33.690819,188.16074 C -33.377469,189.32826 -33.114959,191.59944 -33.107449,193.20781 L -33.093799,196.13213 L -30.455909,193.70781 C -28.051139,191.49774 -10.099639,171.05449 -10.089439,170.51438 C -10.087049,170.3874 -8.9715385,167.13351 -7.6105285,163.28351 C -4.7264085,155.12491 -4.0315085,143.79495 -6.6255985,147.22464 z "
       style="fill:#225500;fill-opacity:1"
       id="path21440" />
    <path
       d="M -12.978789,380.7835 C -13.465529,380.7835 -14.531429,381.796 -15.347439,383.0335 C -17.202339,385.8465 -28.723309,389.86049 -37.306349,390.68414 L -43.552119,391.2835 L -44.736289,396.62746 C -45.899299,401.87599 -45.881809,401.96036 -43.757129,401.35185 C -42.567299,401.01109 -39.343809,400.45057 -36.593809,400.10626 C -33.843809,399.76194 -30.520609,398.64847 -29.208939,397.63187 C -27.897269,396.61527 -26.249629,395.7835 -25.547529,395.7835 C -24.182899,395.7835 -12.093799,383.07359 -12.093799,381.63888 C -12.093799,381.16842 -12.492049,380.7835 -12.978789,380.7835 z "
       style="fill:#225500;fill-opacity:1"
       id="path21438" />
    <path
       d="M -15.039699,124.28351 C -15.728409,122.57313 -16.221219,123.07995 -18.442909,127.78351 C -22.145049,135.62135 -31.667389,150.72832 -35.228219,154.41298 C -38.013719,157.29537 -38.196899,157.91321 -37.548329,162.23817 L -36.844169,166.93389 L -33.357629,163.6087 C -29.828529,160.24292 -22.996059,151.76769 -19.908629,146.92612 C -18.248599,144.32293 -14.205979,130.7079 -14.224749,127.78351 C -14.230039,126.95851 -14.596769,125.38351 -15.039699,124.28351 z "
       style="fill:#225500;fill-opacity:1"
       id="path21436" />
    <path
       d="M -23.786649,104.79423 C -24.330519,102.76008 -24.771419,103.60359 -26.198159,109.40783 C -28.097569,117.13495 -32.785219,125.26333 -38.494489,130.72968 C -42.124689,134.20541 -42.606549,135.96977 -41.473229,141.63642 L -40.852639,144.73932 L -35.133049,137.51142 C -24.952779,124.64651 -21.297129,114.10551 -23.786649,104.79423 z "
       style="fill:#225500;fill-opacity:1"
       id="path21434" />
    <path
       d="M -55.600259,102.60533 C -55.706629,101.13234 -56.275469,97.982343 -56.864349,95.605333 C -57.453229,93.228323 -58.446409,88.725593 -59.071419,85.599283 C -59.762469,82.142623 -61.335799,78.495666 -63.086209,76.293056 C -64.669339,74.300946 -66.157079,72.133846 -66.392309,71.477266 C -66.627539,70.820696 -67.179699,70.619096 -67.619339,71.029266 C -67.732906,74.167496 -67.181042,76.671385 -66.093809,80.644183 C -65.443433,83.020686 -64.545389,87.501453 -61.616729,93.347133 C -59.154339,98.262133 -57.593873,102.64024 -57.116729,103.57894 C -54.888108,107.96339 -54.977608,107.14658 -55.600259,102.60533 z "
       style="fill:#225500;fill-opacity:1"
       id="path21432" />
    <path
       d="M -35.664769,82.187403 C -36.528789,79.215256 -37.581329,76.783496 -38.003739,76.783496 C -38.426149,76.783496 -39.273829,80.720993 -39.887479,85.533493 C -40.501129,90.345993 -42.327199,95.939611 -43.048989,98.323243 C -45.721249,107.14801 -46.299019,111.79753 -47.775909,117.33024 C -48.901439,121.54669 -46.671589,121.71138 -44.907519,120.11492 C -41.719689,117.22998 -37.134859,107.66669 -35.666869,100.84028 C -33.791649,92.120213 -33.791259,88.632033 -35.664769,82.187403 z "
       style="fill:#225500;fill-opacity:1"
       id="path21430" />
    <path
       d="M -42.443769,266.7835 C -45.053239,266.7835 -51.251489,262.62495 -55.093809,258.2963 C -56.468809,256.74726 -60.340059,252.51069 -63.696599,248.88168 C -73.361959,238.43173 -74.436449,237.05549 -77.255559,231.51486 C -79.850159,226.41547 -79.934749,226.35238 -80.608979,229.01366 C -81.522339,232.61881 -77.708899,245.22956 -74.372529,249.63712 C -69.631579,255.90022 -51.943299,272.42453 -44.415579,277.62276 L -41.237359,279.81747 L -40.801769,277.55048 C -40.562189,276.30364 -40.304889,273.371 -40.229989,271.0335 C -40.107169,267.20056 -40.324409,266.7835 -42.443769,266.7835 z "
       style="fill:#225500;fill-opacity:1;stroke:#eeeeee;stroke-width:1.40905046;stroke-miterlimit:4;stroke-dasharray:none;stroke-opacity:1"
       id="path21428" />
    <path
       d="M -42.748789,233.61224 C -43.659039,232.60643 -44.901139,231.7835 -45.509009,231.7835 C -46.116889,231.7835 -47.736879,230.771 -49.108989,229.5335 C -50.481099,228.296 -55.552089,223.98743 -60.377849,219.9589 C -67.053729,214.3859 -70.570939,210.46215 -75.085619,203.55112 C -80.641799,195.04576 -80.980349,194.71653 -80.407409,198.37571 C -79.455679,204.4541 -75.577179,212.39206 -70.776149,218.0876 C -68.367219,220.94535 -64.310029,226.36338 -61.760159,230.12769 C -59.210299,233.89199 -56.011859,237.84672 -54.652529,238.91597 C -51.503549,241.39296 -42.020129,247.7835 -41.493319,247.7835 C -41.273589,247.7835 -41.093809,245.00643 -41.093809,241.61224 C -41.093809,237.27314 -41.585149,234.89805 -42.748789,233.61224 z "
       style="fill:#225500;fill-opacity:1"
       id="path21426" />
    <path
       d="M -42.346139,203.28453 C -42.482359,203.196 -46.418809,200.08945 -51.093809,196.38109 C -61.339639,188.25376 -64.149539,184.79784 -69.272439,174.02296 C -73.433939,165.27016 -77.185179,158.89596 -78.215999,158.82584 C -79.406419,158.74485 -80.011209,166.30874 -79.124849,170.19245 C -77.355659,177.94443 -68.044409,193.41983 -58.853909,203.88303 C -53.772339,209.66828 -48.195279,213.72317 -43.189179,215.27232 L -40.784549,216.01643 L -41.441509,209.73097 C -41.802839,206.27396 -42.209919,203.37307 -42.346139,203.28453 z "
       style="fill:#225500;fill-opacity:1"
       id="path21424" />
    <path
       d="M -56.436939,289.047 C -61.204349,284.22708 -67.116499,278.54764 -69.575039,276.42603 C -72.095709,274.25081 -75.310019,270.03726 -76.945609,266.76415 L -79.846109,260.95973 L -80.434439,265.25206 C -81.667809,274.25046 -76.800699,283.20157 -63.630629,296.15596 C -52.198189,307.40118 -45.327919,312.615 -44.612659,310.58859 C -44.359299,309.87079 -43.784649,307.0335 -43.335669,304.2835 C -42.546389,299.44922 -42.606319,299.25909 -45.144119,298.547 C -46.587759,298.14193 -51.669529,293.86693 -56.436939,289.047 z "
       style="fill:#225500;fill-opacity:1;stroke:#eeeeee;stroke-width:1.40905046;stroke-miterlimit:4;stroke-dasharray:none;stroke-opacity:1"
       id="path21422" />
    <path
       d="M -44.562999,169.50379 C -46.746969,160.89433 -47.631769,159.04874 -52.222629,153.52672 C -55.077359,150.09295 -57.931119,146.83351 -58.564319,146.28351 C -61.355199,143.85934 -74.926149,128.06084 -76.032689,125.94786 C -78.447769,121.33622 -78.000049,124.56532 -75.076099,132.84722 C -73.437949,137.48718 -71.192589,142.40851 -70.086399,143.78351 C -68.980219,145.15851 -66.986929,147.85851 -65.656869,149.78351 C -61.342219,156.02813 -42.093809,180.38519 -42.093809,179.60036 C -42.093809,179.40086 -43.204939,174.85741 -44.562999,169.50379 z "
       style="fill:#225500;fill-opacity:1"
       id="path21420" />
    <path
       d="M -48.906069,324.7835 C -50.687289,324.7835 -61.187459,317.55715 -66.093809,312.95469 C -67.468809,311.66485 -70.297609,309.50773 -72.380049,308.16109 C -74.462479,306.81445 -77.048299,304.2661 -78.126309,302.49808 C -80.042549,299.35531 -80.086409,299.33998 -80.090069,301.81171 C -80.097719,306.98651 -73.651649,318.01455 -66.954939,324.2835 C -53.758829,336.6367 -50.184929,339.33214 -50.049669,337.0335 C -50.025399,336.621 -49.380769,334.0335 -48.617169,331.2835 C -46.801189,324.74355 -46.799409,324.7835 -48.906069,324.7835 z "
       style="fill:#225500;fill-opacity:1"
       id="path21418" />
    <path
       d="M -50.166909,130.03351 C -50.934199,125.99378 -51.837449,123.78351 -52.721029,123.78351 C -56.427209,123.78351 -68.034219,109.45626 -74.987759,96.298303 C -76.146089,94.106443 -77.093809,93.026793 -77.093809,93.899083 C -77.093809,100.12282 -64.177789,125.41833 -57.890489,131.50801 C -56.627319,132.73148 -53.843759,135.19552 -51.704799,136.98365 C -48.571049,139.60341 -47.928829,139.85111 -48.397799,138.25915 C -48.717899,137.17255 -49.513999,133.47101 -50.166909,130.03351 z "
       style="fill:#225500;fill-opacity:1"
       id="path21416" />
    <path
       d="M -50.144039,64.283496 L -51.394499,61.283496 L -52.229409,65.752606 C -52.927139,69.487416 -52.838689,85.236743 -52.066359,94.783493 C -51.942269,96.317253 -51.142309,94.578023 -49.996569,90.283493 C -47.908479,82.456793 -47.982139,69.470156 -50.144039,64.283496 z "
       style="fill:#225500;fill-opacity:1"
       id="path21414" />
    <path
       d="M -57.650389,354.59967 C -59.606519,352.88217 -64.908739,346.48342 -69.433109,340.38022 C -79.853919,326.32297 -81.315029,324.07583 -82.825269,319.7835 C -83.987409,316.48053 -84.032689,316.64941 -83.629489,322.7835 C -83.172629,329.73385 -80.168859,338.01701 -72.823679,352.58139 C -69.647309,358.87965 -67.235159,362.10017 -62.813919,365.94564 C -59.610209,368.73215 -56.870399,370.8481 -56.725459,370.64776 C -56.152559,369.85586 -54.339199,362.15103 -54.220169,360.00295 C -54.139179,358.54119 -55.370739,356.60123 -57.650389,354.59967 z "
       style="fill:#225500;fill-opacity:1"
       id="path21412" />
    <path
       d="M -72.297679,373.51995 C -78.597539,364.81487 -83.798059,355.12125 -84.635579,350.52245 C -85.573709,345.3712 -87.093809,344.79676 -87.093809,349.59349 C -87.093809,364.94055 -80.825439,380.7 -70.780959,390.60602 L -65.384049,395.92854 L -63.349159,391.60602 L -61.314269,387.2835 L -64.454039,383.6516 C -66.180909,381.65406 -69.710549,377.09481 -72.297679,373.51995 z "
       style="fill:#225500;fill-opacity:1"
       id="path21410" />
    <path
       d="M -29.957259,235.7835 C -31.69021,219.52801 -31.749213,208.91473 -34.566358,195.14233 C -35.555933,185.08291 -37.793783,175.27556 -38.989707,165.25137 C -39.788217,158.59141 -41.607062,147.91551 -42.43468,142.96742 C -44.53347,130.41935 -46.027188,121.80493 -49.026943,109.49215 C -49.924893,104.29522 -48.11354,96.348311 -50.875821,100.02392 C -53.284836,103.22946 -54.549298,108.09881 -52.877257,114.1748 C -50.026866,124.53277 -48.721831,133.7484 -46.839913,144.01185 C -46.285133,146.65142 -45.346657,153.44288 -44.840677,158.11788 C -38.257012,187.66991 -38.368763,218.14959 -37.546179,248.2835 C -36.800019,283.30683 -38.841869,304.44599 -45.736109,333.07357 C -50.38759,356.02465 -55.39474,375.68518 -63.136909,401.32704 C -64.880189,403.44461 -69.940669,424.66037 -71.594149,436.78349 C -72.531829,443.65849 -73.702849,451.72863 -74.196419,454.71715 C -75.369649,461.82101 -75.363139,492.78349 -74.188419,492.78349 C -73.690459,492.78349 -71.350379,491.1688 -68.988249,489.1953 C -66.626119,487.22179 -62.983549,484.92293 -60.893639,484.08672 C -57.749934,482.89418 -57.949637,478.54046 -56.867639,473.54036 C -57.134339,472.52047 -56.858939,466.19545 -56.255629,459.48475 C -55.652319,452.77406 -54.664979,440.98349 -54.061529,433.28349 C -53.458089,425.58349 -52.513189,417.03349 -51.961749,414.28349 C -51.410309,411.53349 -50.321019,405.97883 -49.541099,401.93982 C -48.761179,397.90079 -45.911059,385.75079 -43.207499,374.93982 C -40.503939,364.12884 -38.004799,352.5835 -37.653859,349.2835 C -37.011619,343.24429 -36.428749,340.13444 -33.530469,327.2835 C -30.547869,314.05869 -30.090979,311.25283 -29.214919,300.78074 C -28.057699,286.94769 -28.490859,249.02151 -29.957259,235.7835 z "
       style="fill:#225500;fill-opacity:1;stroke:#eeeeee;stroke-width:1.40905046;stroke-miterlimit:4;stroke-dasharray:none;stroke-opacity:1"
       id="use5662" />
  </g>
  <path
     d="M 249.55062,1.4395041 L 125.50012,1.4395041 L 1.449569,1.4395041 L 1.449569,174.9361 C 0.68232904,268.65698 81.739009,302.75585 125.5001,302.75585 C 168.49395,302.75585 250.31785,268.65698 249.55062,174.9361 L 249.55062,1.4395041 z "
     style="color:#000000;fill:none;fill-opacity:0;fill-rule:nonzero;stroke:#000000;stroke-width:1.88832211;stroke-linecap:round;stroke-linejoin:bevel;marker:none;marker-start:none;marker-mid:none;marker-end:none;stroke-miterlimit:4;stroke-dashoffset:0;stroke-opacity:1;visibility:visible;display:block"
     id="Frame" />
</svg>
