<?xml version="1.0" encoding="UTF-8" standalone="no"?>
<!-- Created with Inkscape (http://www.inkscape.org/) -->

<svg
   xmlns:dc="http://purl.org/dc/elements/1.1/"
   xmlns:cc="http://web.resource.org/cc/"
   xmlns:rdf="http://www.w3.org/1999/02/22-rdf-syntax-ns#"
   xmlns:svg="http://www.w3.org/2000/svg"
   xmlns="http://www.w3.org/2000/svg"
   xmlns:xlink="http://www.w3.org/1999/xlink"
   version="1.0"
   width="251"
   height="304.20001"
   id="svg4166">
  <defs
     id="defs4168" />
  <metadata 
     id="metadata1880"><rdf:RDF><cc:Work
         rdf:about=""><dc:title>Perstorp kommunvapen</dc:title><dc:date>2009-12-07</dc:date><dc:creator><cc:Agent><dc:title>Lokal_Profil</dc:title></cc:Agent></dc:creator><cc:license
         rdf:resource="http://creativecommons.org/licenses/by-sa/2.5/" /><dc:rights><cc:Agent><dc:title>cc-by-sa-2.5</dc:title></cc:Agent></dc:rights><dc:format>image/svg+xml</dc:format><dc:type
         rdf:resource="http://purl.org/dc/dcmitype/StillImage" /></cc:Work><cc:License
         rdf:about="http://creativecommons.org/licenses/by-sa/2.5/"><cc:permits
         rdf:resource="http://web.resource.org/cc/Reproduction" /><cc:permits
         rdf:resource="http://web.resource.org/cc/Distribution" /><cc:requires
         rdf:resource="http://web.resource.org/cc/Notice" /><cc:requires
         rdf:resource="http://web.resource.org/cc/Attribution" /><cc:permits
         rdf:resource="http://web.resource.org/cc/DerivativeWorks" /><cc:requires
         rdf:resource="http://web.resource.org/cc/ShareAlike" /></cc:License></rdf:RDF>
  </metadata>
  <path
     d="m 249.55058,1.4395041 -124.0505,0 -124.0505509,0 0,173.4965959 C 0.68228908,268.65698 81.738969,302.75585 125.50006,302.75585 c 42.99385,0 124.81775,-34.09887 124.05052,-127.81975 l 0,-173.4965959 z"
     id="Shield"
     style="fill:#003d8f" />
  <path
     d="m 1.1,1.0980226 0,90.1939894 248.5,0 0,-90.1939894 -124.25,0 -124.25,0 z"
     id="Chef"
     style="fill:#ffcd50" />
  <g
     transform="matrix(0.22567734,0,0,0.22567734,74.504181,-233.08499)"
     id="Karp"
     style="stroke:#ffcd50;stroke-width:1.5px">
    <path
       d="m 79.669589,1135.1981 c 5.599369,0.4 21.160341,-10.0981 28.769571,-17.891 21.44865,-21.9664 74.28013,-70.2525 96.05415,-64.4182 7.34448,1.968 11.00947,37.6926 13.49154,39.1548 63.08774,37.1662 203.99104,34.3816 230.06325,99.187 2.5066,6.2305 -39.47442,9.8252 -61.8719,21.4239 0,0 -306.506611,-77.4565 -306.506611,-77.4565 z"
       id="fin-1"
       style="fill:#d40000" />
    <path
       d="m 509.39186,1210.5944 c 70.70271,-47.5122 165.74579,-107.7943 163.13233,-82.2836 -8.00972,77.6194 -53.73406,105.2102 -53.73406,125.0024 0,17.8864 82.80958,95.3613 66.74335,111.4275 -25.67179,25.6718 -175.34272,-52.9 -184.95829,-52.3344"
       id="Tail-fin"
       style="fill:#d40000" />
    <path
       d="m 398.34794,1314.4547 c 22.62487,16.6858 39.07149,4.7693 46.47393,12.1717 9.30911,9.3091 10.48385,26.1945 12.14876,44.7623 1.44014,16.0611 8.13429,38.6753 -9.10113,39.4817 -43.21106,2.0215 -112.62891,-55.6198 -123.65853,-74.2853"
       id="fin-2"
       style="fill:#d40000" />
    <path
       d="m 511.17055,1209.7435 c 13.43387,-2.29 25.04601,37.7485 25.49265,51.5981 0.68005,21.0872 4.4437,57.0899 -37.62175,50.9 -46.8234,-4.1728 -71.25833,-1.8247 -104.01307,7.7457 -35.15507,10.2718 -78.56125,36.3257 -104.01308,35.4087 -73.88815,-2.6621 -132.8036,8.0193 -199.173969,5.5326 -61.137981,-2.2906 -112.365488,-1.7342 -182.57614,-18.8109 -14.694081,-3.5739 -29.477941,-1.4238 -44.260881,-9.9587 -1.85187,-1.0692 -32.66945,-3.215 -49.48597,-7.721 -10.12921,-2.7141 -43.17445,0.4243 -46.1911,-8.6187 -2.06496,-6.1901 12.41939,-7.0649 15.23321,-11.5815 -2.94857,-1.1379 -16.51065,1.5637 -20.24965,-3.0614 -3.60788,-4.4629 0.77946,-16.8072 6.80072,-22.8285 9.72132,-9.7213 22.57044,-15.2888 32.50664,-17.9512 4.06869,-1.0902 18.02015,-13.7609 23.7644,-17.9086 8.6099,-6.2169 19.56808,-11.3219 28.56532,-16.9637 24.98091,-15.6645 35.60625,-34.8952 66.79982,-50.0831 58.667953,-28.565 127.707092,-41.5966 190.11755,-41.5966 8.61894,0 260.00353,58.3103 288.80226,69.9578 12.52472,25.735 89.26449,18.6687 109.50304,5.941 z"
       id="Body"
       style="fill:#003d8f" />
    <path
       d="m 132.78265,1348.7568 c 0,13.2921 45.43812,66.1992 80.77611,79.6696 11.48812,4.3791 33.91058,3.3637 32.08914,-5.5326 -3.74334,-18.2834 -9.3131,-34.8633 -21.02392,-54.2196 -2.50231,-4.136 -26.66332,4.0721 -59.75219,-17.7043"
       id="fin-3"
       style="fill:#d40000" />
    <path
       d="m -43.080197,1316.3849 c 2.828109,6.7874 64.654281,84.1775 98.4063,91.0176 13.934652,2.824 23.726819,5.2746 22.130442,-13.2783 -1.440004,-16.7356 -8.838291,-45.9691 -24.233724,-47.8632 -4.691096,-0.5771 -25.087096,8.2648 -72.033696,-15.2085"
       id="fin-4"
       style="fill:#d40000" />
    <path
       d="m -199.38164,1308.7441 c 4.52497,4.8078 -2.26249,22.9077 7.07027,30.5436 -19.51395,-7.6359 -2.82811,-24.3217 -21.49363,-34.2201 -1.41405,1.4141 -0.56562,5.3734 -0.56562,5.3734 0,0 -6.22184,-14.1405 -11.02962,-15.5546"
       id="Moustach"
       style="fill:#003d8f;stroke-width:1.75px" />
    <path
       d="m -156.37705,1267.8655 c 0,6.0126 -5.90821,10.8869 -13.19637,10.8869 -7.28815,0 -13.19637,-4.8743 -13.19637,-10.8869 0,-6.0129 5.90822,-10.8872 13.19637,-10.8872 7.28816,0 13.19637,4.8743 13.19637,10.8872 z"
       id="Eye-1"
       style="fill:#ffcd50;stroke:none" />
    <path
       d="m -163.10519,1268.5253 c 0,3.0974 -3.04363,5.6084 -6.79813,5.6084 -3.75451,0 -6.79813,-2.511 -6.79813,-5.6084 0,-3.0976 3.04362,-5.6086 6.79813,-5.6086 3.7545,0 6.79813,2.511 6.79813,5.6086 z"
       id="Eye-2"
       style="fill:#003d8f;stroke:none" />
    <path
       d="m -144.17039,1330.2181 c 11.64756,5.8238 79.460994,-8.8098 90.065255,-36.6199 7.125402,-18.6867 -5.335578,-66.1682 -17.815105,-73.2399"
       id="path4233"
       style="fill:none;stroke-width:2px" />
    <path
       d="m -120.1312,1245.1171 c -4.12822,52.0156 -1.41478,74.1895 -7.4308,78.849 -8.89835,6.8919 -31.37447,-0.8257 -33.43858,-3.3026 0,0 -17.33853,1.2384 -22.29239,-0.8257"
       id="path4235"
       style="fill:none;stroke-width:2px" />
  </g>
  <g
     transform="matrix(0.32159043,0,0,0.32159043,-59.911565,191.25399)"
     id="Hazlenut"
     style="fill:#ffcd50;stroke:#003d8f">
    <path
       d="m 575.83435,240.57918 27.26762,10.55466 c 1.40883,7.74857 -1.68414,24.9596 -18.12049,38.81309 l 0,16.05237 -16.87146,0 0,-16.05237 C 551.67367,276.09344 548.5807,258.88241 549.98953,251.13384 l 25.84482,-10.55466 z"
       id="Stem" />
    <path
       d="m 538.07423,162.80691 85.37935,6.75664 -24.5696,75.55152 -38.69711,-6.1424 -22.11264,-76.16576 z"
       id="back"
       style="stroke:none" />
    <path
       d="m 620.49313,77.429269 c 32.45788,-25.578218 78.10899,-25.692742 97.51315,-15.2534 -9.82784,-3.0712 -23.54276,4.478492 -23.71916,6.418909 0,0 14.15047,6.903603 14.32688,8.491217 0,0 -14.84656,0.157344 -14.84656,0.86295 0,0 10.93225,10.012131 9.87384,11.952548 0,0 -16.04325,-4.185994 -19.74768,-2.59838 0,0 10.3554,11.561626 10.0026,14.207647 l -44.8209,54.90926 -28.58217,-78.990751 z"
       id="Fold-2" />
    <use
       transform="matrix(-1,0,0,1,1155.1623,0)"
       id="Fold-4"
       x="0"
       y="0"
       width="1106"
       height="1215"
       xlink:href="#Fold-2" />
    <path
       d="m 653.50257,113.87473 c 0,-13.899681 -50.53357,-71.895693 -51.1379,-83.680205 C 599.04083,41.67687 572.1233,77.03591 567.5908,78.848912 l 10.20111,92.140878 c 0,0 6.27293,21.3749 12.31627,13.51856 l 63.39439,-70.63362 z"
       id="Nut-1" />
    <path
       d="m 576.52345,109.40522 c 0,0 31.34002,-51.776489 25.59885,-78.66935"
       id="Nut-1-line"
       style="fill:none" />
    <path
       d="m 500.82639,119.1261 c 5.37503,-24.345727 60.39005,-73.037178 59.75769,-87.2652 4.4265,12.963309 48.63964,139.47348 5.50457,162.13468 L 500.82639,119.1261 z"
       id="Nut-2" />
    <path
       d="m 560.90026,31.8609 c 3.16178,15.808914 -31.30165,92.95641 -43.94878,99.27998"
       id="Nut-2-line"
       style="fill:none" />
    <g
       id="Fold-1">
      <path
         d="m 576.76472,233.94362 c 0,-59.83465 86.92354,-187.255065 168.76395,-108.8002 0,0 -13.85452,-4.89096 -17.30913,-2.47273 -1.38185,2.07277 9.63644,19.5454 6.18183,24.72732 -5.18192,-7.60015 -18.54549,-16.07276 -18.54549,-16.07276 0,0 9.70919,24.29088 5.56365,28.43642 0,0 -9.67271,-12.98185 -11.74548,-12.98185 0,0 3.6546,25.12728 1.23637,27.20005 l -10.50911,-9.89092 c 0,0 2.61821,14.76365 1.23636,15.45457 l -9.27274,-0.61818 -0.89091,10.98181 c -36.27345,51.47376 -71.519,58.77891 -77.61833,61.96378 -41.50466,21.67236 -37.09097,-7.55594 -37.09097,-17.92731 z"
         id="path2824" />
      <path
         d="m 576.57514,245.63521 c 2.59838,-25.20429 30.22045,-70.55679 32.81883,-71.85598 3.11806,-0.25984 4.83646,12.09115 4.83646,12.09115 3.37789,-3.37789 5.59342,-18.06811 2.95857,-24.14702 0,0 2.56882,-3.48989 2.56882,-3.48989 2.59838,-0.77951 10.1926,7.50859 10.1926,7.50859 3.37789,-3.37789 0.17124,-19.25428 0.17124,-19.25428 0,-2.0787 6.56377,-6.90923 6.56377,-6.90923 1.81887,0.77951 3.10915,12.43661 3.10915,12.43661 6.75579,-2.0787 5.09333,-19.26318 5.09333,-19.26318 l 8.37966,-5.61004 c 2.33854,0.51968 5.18193,8.29107 5.18193,8.29107 5.19676,-1.81887 6.28909,-16.91277 6.28909,-16.91277 3.63773,-4.93692 23.42059,-10.37868 23.42059,-10.37868 2.33854,2.0787 1.03638,11.74569 1.03638,11.74569 3.89757,-1.81887 9.93276,-10.62368 9.93276,-10.62368 16.15837,0.99286 30.73659,5.89235 45.11744,15.2389"
         id="path3006"
         style="fill:none" />
      <path
         d="m 621.27264,187.0809 c 0,0 4.93692,13.25174 4.67708,18.18866 7.27546,-5.71644 4.93693,-25.9838 4.93693,-25.9838"
         id="path2828"
         style="fill:none" />
      <path
         d="m 644.65806,164.99467 c 0,0 3.63773,8.8345 1.29919,13.51158 7.01563,-2.33854 9.87384,-22.60591 9.87384,-22.60591"
         id="path2830"
         style="fill:none" />
      <path
         d="m 668.82299,134.85347 c 0,0 4.18126,15.35343 1.29919,23.38541 9.09433,-5.4566 9.35417,-27.02315 9.35417,-27.02315"
         id="path2832"
         style="fill:none" />
      <path
         d="m 693.24776,131.21573 c 0,0 2.85822,10.65336 1.81887,14.55093 5.19676,-2.0787 5.97627,-19.48785 5.97627,-19.48785"
         id="path2834"
         style="fill:none" />
      <path
         d="m 598.14706,205.00972 c 0,0 2.07871,12.9919 0.25984,21.04688 7.01563,-2.85822 11.17303,-25.46412 11.17303,-25.46412"
         id="path2836"
         style="fill:none" />
      <path
         d="m 610.87912,217.48195 c 2.33854,2.33854 -0.77951,15.85011 -0.77951,15.85011 6.23611,0 12.9919,-20.00752 12.9919,-20.00752"
         id="path2838"
         style="fill:none" />
      <path
         d="m 639.4613,197.9941 c 0,1.03935 2.14848,10.39742 1.29919,17.40914 6.23612,-5.4566 8.05498,-21.82639 8.05498,-21.82639"
         id="path2840"
         style="fill:none" />
      <path
         d="m 657.39012,179.80544 c 2.59838,1.81887 1.81887,18.70833 1.81887,18.70833 8.57465,-4.93692 8.57465,-24.16493 8.57465,-24.16493"
         id="path2842"
         style="fill:none" />
      <path
         d="m 675.57878,164.99467 c 1.55903,1.55903 3.89757,8.05498 5.97627,14.81077 4.93693,-4.41724 3.63774,-20.78704 3.63774,-20.78704"
         id="path2844"
         style="fill:none" />
    </g>
    <use
       transform="matrix(-1,0,0,1,1153.0915,0)"
       id="Fold-3"
       x="0"
       y="0"
       width="1106"
       height="1215"
       xlink:href="#Fold-1" />
  </g>
  <use
     transform="translate(60,-90)"
     id="Hazlenut-2"
     x="0"
     y="0"
     width="251"
     height="304.20001"
     xlink:href="#Hazlenut" />
  <use
     transform="translate(-60.000003,-90)"
     id="Hazlenut-3"
     x="0"
     y="0"
     width="251"
     height="304.20001"
     xlink:href="#Hazlenut" />
  <path
     d="m 249.55062,1.4395041 -124.0505,0 -124.050551,0 0,173.4965959 c -0.76723996,93.72088 80.28944,127.81975 124.050531,127.81975 42.99385,0 124.81775,-34.09887 124.05052,-127.81975 l 0,-173.4965959 z"
     id="Frame"
     style="fill:none;stroke:#000000;stroke-width:1.88832211;stroke-linecap:round;stroke-linejoin:bevel" />
</svg>
