<?xml version="1.0" encoding="UTF-8" standalone="no"?>
<!-- Created with Inkscape (http://www.inkscape.org/) -->
<svg
   xmlns:dc="http://purl.org/dc/elements/1.1/"
   xmlns:cc="http://web.resource.org/cc/"
   xmlns:rdf="http://www.w3.org/1999/02/22-rdf-syntax-ns#"
   xmlns:svg="http://www.w3.org/2000/svg"
   xmlns="http://www.w3.org/2000/svg"
   version="1.0"
   width="251"
   height="304.20001"
   id="svg4166">
  <defs
     id="defs4168" />
  <metadata
     id="metadata1880"><rdf:RDF><cc:Work
         rdf:about=""><dc:title>Klippan kommunvapen</dc:title><dc:date>06-12-2006</dc:date><dc:creator><cc:Agent><dc:title>Lokal_Profil</dc:title></cc:Agent></dc:creator><cc:license
         rdf:resource="http://creativecommons.org/licenses/by-sa/2.5/" /><dc:rights><cc:Agent><dc:title>cc-by-sa-2.5</dc:title></cc:Agent></dc:rights><dc:format>image/svg+xml</dc:format><dc:type
         rdf:resource="http://purl.org/dc/dcmitype/StillImage" /></cc:Work><cc:License
         rdf:about="http://creativecommons.org/licenses/by-sa/2.5/"><cc:permits
         rdf:resource="http://web.resource.org/cc/Reproduction" /><cc:permits
         rdf:resource="http://web.resource.org/cc/Distribution" /><cc:requires
         rdf:resource="http://web.resource.org/cc/Notice" /><cc:requires
         rdf:resource="http://web.resource.org/cc/Attribution" /><cc:permits
         rdf:resource="http://web.resource.org/cc/DerivativeWorks" /><cc:requires
         rdf:resource="http://web.resource.org/cc/ShareAlike" /></cc:License></rdf:RDF>
  </metadata>
  <path
     d="M 249.55058,1.4395041 L 125.50008,1.4395041 L 1.4495291,1.4395041 L 1.4495291,174.9361 C 0.68228908,268.65698 81.738969,302.75585 125.50006,302.75585 C 168.49391,302.75585 250.31781,268.65698 249.55058,174.9361 L 249.55058,1.4395041 z "
     style="color:#000000;fill:#eeeeee;fill-opacity:1;fill-rule:nonzero;stroke:none;stroke-width:1.88832211;stroke-linecap:round;stroke-linejoin:bevel;marker:none;marker-start:none;marker-mid:none;marker-end:none;stroke-miterlimit:4;stroke-dashoffset:0;stroke-opacity:1;visibility:visible;display:block"
     id="Shield" />
  <path
     d="M 180.24985,288.90026 L 1.4373568,11.869016 L 1.4373568,174.93151 C 0.67012782,268.65239 82.506007,302.74401 125.49985,302.74401 C 140.87335,302.74401 160.83525,298.42351 180.24985,288.90026 z "
     style="color:#000000;fill:#000000;fill-opacity:1;fill-rule:nonzero;stroke:none;stroke-width:1.88832211;stroke-linecap:round;stroke-linejoin:bevel;marker:none;marker-start:none;marker-mid:none;marker-end:none;stroke-miterlimit:4;stroke-dashoffset:0;stroke-opacity:1;visibility:visible;display:block"
     id="rak-skura" />
  <path
     d="M 4.969,1.4310112 C 6.660659,2.0123962 8.294817,2.4524122 9.906496,2.8060112 C 11.518186,3.1596102 13.119156,3.4193432 14.687746,3.6497612 C 17.824926,4.1105982 20.907896,4.4290122 24.093996,5.0247612 C 25.687046,5.3226352 27.308396,5.6925002 28.968996,6.1810112 C 30.629606,6.6695222 32.328956,7.2722582 34.093996,8.0560112 C 35.859046,8.8397642 37.687626,9.8099102 39.593996,10.993511 C 41.500366,12.177112 43.478176,13.586706 45.562746,15.274761 C 48.336786,17.521132 50.602826,19.711555 52.468996,21.837261 C 54.335166,23.962967 55.813806,26.016495 57.031496,28.056011 C 58.249196,30.095527 59.202886,32.099459 60.031496,34.087261 C 60.860116,36.075063 61.551326,38.054197 62.250246,40.024761 C 62.949166,41.995325 63.640386,43.974459 64.468996,45.962261 C 65.297616,47.950063 66.251296,49.953995 67.468996,51.993511 C 68.686696,54.033027 70.165326,56.086555 72.031496,58.212261 C 73.897676,60.337967 76.163706,62.528389 78.937746,64.774761 C 81.711786,67.021129 84.313766,68.764902 86.781496,70.149761 C 89.249236,71.53462 91.595056,72.567766 93.843996,73.337261 C 96.092946,74.106756 98.257576,74.624483 100.37525,75.024761 C 102.49293,75.425039 104.55133,75.685056 106.62525,75.962261 C 108.69917,76.239466 110.75757,76.530732 112.87525,76.931011 C 114.99293,77.33129 117.15755,77.849013 119.4065,78.618511 C 121.65545,79.388009 124.00126,80.421149 126.469,81.806011 C 128.93674,83.190873 131.53871,84.934638 134.31275,87.181011 C 137.08679,89.427382 139.35197,91.617804 141.219,93.743511 C 143.08603,95.869218 144.56234,97.922744 145.7815,99.962261 C 147.00066,102.00178 147.95105,104.00571 148.7815,105.99351 C 149.61195,107.98131 150.33063,109.96044 151.0315,111.93101 C 151.73237,113.90158 152.41981,115.88071 153.25025,117.86851 C 154.08069,119.85631 155.03109,121.86024 156.25025,123.89976 C 157.46941,125.93928 158.94572,127.99281 160.81275,130.11851 C 162.67978,132.24421 164.94496,134.43464 167.719,136.68101 C 170.49304,138.92738 173.09587,140.67201 175.56275,142.05601 C 178.02963,143.44001 180.34652,144.47548 182.594,145.24351 C 184.84148,146.01154 187.0094,146.53256 189.12525,146.93101 C 191.2411,147.32946 193.33453,147.59326 195.4065,147.86851 C 197.47847,148.14376 199.54065,148.40756 201.6565,148.80601 C 203.77235,149.20446 205.94027,149.72548 208.18775,150.49351 C 210.43523,151.26154 212.75212,152.297 215.219,153.68101 C 217.68588,155.06502 220.28872,156.80964 223.06275,159.05601 C 225.36353,160.91914 227.30642,162.74637 228.969,164.52476 C 230.63158,166.30315 232.01575,168.03027 233.18775,169.74351 C 234.35975,171.45675 235.32746,173.13831 236.1565,174.80601 C 236.98554,176.47371 237.67906,178.13301 238.31275,179.77476 C 239.58014,183.05826 240.59727,186.32122 241.969,189.61851 C 242.65486,191.26716 243.44187,192.90577 244.37525,194.58726 C 245.25707,196.17587 246.30063,197.79607 247.5315,199.43101 C 248.78448,191.71288 249.63424,183.6638 249.56275,174.93101 L 249.56275,1.4310112 L 125.50025,1.4310112 L 4.969,1.4310112 z "
     style="color:#000000;fill:#003d8f;fill-opacity:1;fill-rule:nonzero;stroke:none;stroke-width:1.88832211;stroke-linecap:round;stroke-linejoin:bevel;marker:none;marker-start:none;marker-mid:none;marker-end:none;stroke-miterlimit:4;stroke-dashoffset:0;stroke-opacity:1;visibility:visible;display:block"
     id="vag-skura" />
  <path
     d="M 249.55062,1.4395041 L 125.50012,1.4395041 L 1.449569,1.4395041 L 1.449569,174.9361 C 0.68232904,268.65698 81.739009,302.75585 125.5001,302.75585 C 168.49395,302.75585 250.31785,268.65698 249.55062,174.9361 L 249.55062,1.4395041 z "
     style="color:#000000;fill:none;fill-opacity:0;fill-rule:nonzero;stroke:#000000;stroke-width:1.88832211;stroke-linecap:round;stroke-linejoin:bevel;marker:none;marker-start:none;marker-mid:none;marker-end:none;stroke-miterlimit:4;stroke-dashoffset:0;stroke-opacity:1;visibility:visible;display:block"
     id="Frame" />
</svg>
