<?xml version="1.0" encoding="UTF-8" standalone="no"?>
<!-- Created with Inkscape (http://www.inkscape.org/) -->
<svg
   xmlns:dc="http://purl.org/dc/elements/1.1/"
   xmlns:cc="http://web.resource.org/cc/"
   xmlns:rdf="http://www.w3.org/1999/02/22-rdf-syntax-ns#"
   xmlns:svg="http://www.w3.org/2000/svg"
   xmlns="http://www.w3.org/2000/svg"
   xmlns:xlink="http://www.w3.org/1999/xlink"
   version="1.0"
   width="517.4"
   height="668.9"
   id="svg4166">
  <defs
     id="defs4168" />
  <metadata
     id="metadata1880"><rdf:RDF><cc:Work
         rdf:about=""><dc:title>Malmo kommunvapen</dc:title><dc:date>02-11-2007</dc:date><dc:creator><cc:Agent><dc:title>Lokal_Profil</dc:title></cc:Agent></dc:creator><cc:license
         rdf:resource="http://creativecommons.org/licenses/by-sa/2.5/" /><dc:rights><cc:Agent><dc:title>cc-by-sa-2.5</dc:title></cc:Agent></dc:rights><dc:format>image/svg+xml</dc:format><dc:type
         rdf:resource="http://purl.org/dc/dcmitype/StillImage" /></cc:Work><cc:License
         rdf:about="http://creativecommons.org/licenses/by-sa/2.5/"><cc:permits
         rdf:resource="http://web.resource.org/cc/Reproduction" /><cc:permits
         rdf:resource="http://web.resource.org/cc/Distribution" /><cc:requires
         rdf:resource="http://web.resource.org/cc/Notice" /><cc:requires
         rdf:resource="http://web.resource.org/cc/Attribution" /><cc:permits
         rdf:resource="http://web.resource.org/cc/DerivativeWorks" /><cc:requires
         rdf:resource="http://web.resource.org/cc/ShareAlike" /></cc:License></rdf:RDF>
  </metadata>
  <g
     style="stroke:#000000;stroke-width:2.88008237"
     id="Mantling">
    <path
       d="M 367.24386,254.94828 L 354.64044,252.95826 C 334.04229,233.78278 319.07043,218.50292 316.16685,190.60453 C 323.34423,160.82686 336.4018,157.19331 348.6704,149.47758 C 350.0006,125.37808 380.7012,115.96376 397.7574,99.727255 C 394.02696,116.76716 396.43687,123.94215 387.80732,133.55747 C 400.65979,122.7509 424.6859,127.098 428.93427,101.71727 C 446.33052,121.26667 452.40516,163.79065 398.42073,167.38769 C 413.67438,171.16215 419.24197,188.87343 432.25095,186.6245 C 406.36559,204.48902 388.0864,189.45171 364.59051,188.6145 C 347.6947,187.38212 328.17124,189.89184 337.39366,219.79137 C 341.78431,231.79467 356.95882,248.76371 367.24386,254.94828 z "
       style="fill:#d40000"
       id="path2267" />
    <path
       d="M 365.25385,188.6145 C 366.96731,219.16961 375.50672,240.95691 398.42073,255.61162 C 390.4834,228.85699 408.04113,218.68582 406.38078,199.22791 C 450.05845,244.76348 400.23501,259.54542 439.54766,288.11516 C 445.60245,275.30767 419.19691,263.24104 446.84438,226.42475 C 449.93995,236.27297 453.03553,242.0672 456.13111,258.26497 C 457.33975,238.87578 476.60665,231.52543 487.30798,218.4647 C 478.67038,242.48753 493.62992,264.20489 476.03123,280.15511 C 491.19902,273.0598 500.43807,289.02524 485.98131,305.36193 C 476.1095,286.05064 468.30166,299.76276 460.11114,307.35195 C 454.96091,339.89631 440.65629,363.19788 417.65752,380.98243 C 450.47131,351.35532 431.64216,309.58821 398.42073,315.97534 C 390.39013,322.08181 384.11142,327.93801 400.41075,330.56877 C 395.07018,338.93823 377.93147,349.3671 367.9072,332.55878 C 354.53325,344.32245 333.69494,338.66927 315.50352,339.19216 C 331.98458,326.6679 332.73023,310.28675 354.64044,304.6986 C 344.34947,303.9401 335.76037,300.34513 330.76028,290.76851 C 344.72098,293.3836 369.63733,281.47496 385.81732,290.10517 C 393.67307,292.74469 396.35854,287.31215 389.134,283.47179 C 378.91205,278.07692 341.67213,285.07677 320.14688,248.97824 C 354.70424,246.84758 356.37347,254.48712 368.3927,255.5796 C 326.53264,224.62917 323.11818,182.65382 365.25385,188.6145 z "
       style="fill:#eeeeee"
       id="path2269" />
    <path
       d="M 428.45221,552.25035 C 421.49742,591.76489 360.12657,608.46617 360.92835,558.65772 C 328.83889,557.43671 320.82083,602.14368 353.04236,608.93097 C 337.0937,630.82332 351.46327,645.58198 355.9996,662.65433 C 357.16207,666.70848 362.36641,670.079 367.33572,662.16146 C 381.01678,611.27036 424.70607,603.25983 428.45221,552.25035 z "
       style="fill:#eeeeee"
       id="path2271" />
    <path
       d="M 230.30466,314.55126 C 264.11254,344.33655 312.45412,363.17246 355.85042,360.31457 C 395.41409,357.70909 418.99048,331.76693 404.49893,315.01345 C 451.875,314.96777 446.5472,389.33701 383.05075,391.38989 C 388.53055,398.8151 393.2918,399.72981 400.8459,410.88715 C 388.28853,407.4323 357.31423,426.95412 343.17812,412.66109 C 356.11548,427.55845 375.34977,434.77722 398.27451,428.56725 C 417.04463,422.41459 420.67644,407.1625 408.68394,394.00553 C 422.8127,392.24872 445.128,391.64615 442.96641,414.58937 C 470.99154,391.95493 478.33384,400.84753 515.40171,418.06933 C 495.80942,423.89247 471.89047,451.4798 446.9872,445.90121 C 460.06536,444.82876 467.9919,459.97869 480.05035,463.19093 C 454.05645,480.17442 427.63898,476.49794 394.06193,457.89773 C 407.09242,477.84585 426.98912,476.92617 443.41594,496.95944 C 458.15022,514.92857 463.41892,538.96249 468.50618,545.7033 C 450.0268,535.60723 442.64949,541.74035 422.82605,529.40674 C 446.35813,565.65938 389.82258,607.401 366.70122,580.29422 C 382.65898,570.00671 395.8527,560.75298 392.99015,535.77275 C 387.48634,546.2387 374.00321,551.28603 364.31555,551.98967 C 379.58997,531.52755 381.15337,514.56142 365.78759,495.49203 C 372.79311,519.00074 355.10251,542.53197 348.18712,550.88147 C 346.71001,539.74066 340.35584,545.62456 340.78371,529.78828 C 335.50651,555.14608 318.94826,554.05991 305.71655,570.76027 C 306.61467,555.57992 293.76325,522.66699 311.95867,515.20269 C 295.95532,515.78034 288.88639,497.19228 296.73491,482.41387 C 306.62244,488.27468 317.66544,495.34773 324.98373,484.50638 C 327.87176,479.31289 324.22305,468.85106 314.34086,455.74484 L 314.54918,430.5117 L 294.07373,430.59163 C 268.34545,400.87233 234.67452,368.26031 227.65569,348.8652 C 207.35428,347.48223 201.51412,340.20311 197.16085,321.59253 C 192.80758,302.98194 195.29419,327.64026 193.78752,315.19049 C 188.03359,289.6087 162.59855,282.79874 200.37472,296.98837 C 209.82501,296.42531 210.13253,299.80245 212.02933,300.21204 C 213.92612,300.62162 216.34159,293.78126 219.30182,307.04227 C 221.87964,318.98475 221.49952,306.30218 230.30466,314.55126 z "
       style="fill:#d40000"
       id="path4773" />
    <path
       d="M 225.07651,345.65118 C 229.5678,355.04393 240.70907,372.11341 249.91948,374.10553 C 269.61308,381.80162 279.34383,367.24499 280.50641,353.67393 C 289.42065,361.34145 291.6897,371.82931 289.54683,385.10603 C 307.07157,381.4476 321.90869,390.82563 331.97832,391.45552 C 312.0175,402.88822 309.27583,407.39117 292.03224,407.61529 C 295.13526,416.49931 293.96439,420.79891 293.33896,428.30736 C 275.79551,413.75487 226.27962,388.09761 225.07651,345.65118 z "
       style="fill:#eeeeee"
       id="path2275" />
    <path
       d="M 199.54199,329.47292 C 251.88196,373.46957 297.60059,285.87516 230.85598,290.57205 C 240.72266,266.64115 256.28367,268.98636 266.57182,274.92659 C 258.55879,240.12467 295.05762,236.77444 309.31834,229.98168 C 288.82349,250.88259 315.21765,275.77324 298.41951,298.40957 C 306.07369,276.96178 313.85206,278.72136 322.00837,268.51408 C 321.23555,274.15997 332.41572,317.5101 299.46577,321.95025 C 286.22344,348.15407 231.3594,378.50304 199.54199,329.47292 z "
       style="fill:#eeeeee"
       id="path2285" />
  </g>
  <path
     d="M 237.96892,390.61477 C 209.37303,389.15352 195.08387,387.4018 175.1446,416.72607 C 197.11998,420.11798 220.45722,443.80557 240.38398,426.59158 C 253.44441,412.75058 245.34109,401.73142 237.96892,390.61477 z "
     style="fill:#4d4d4d;stroke:#000000;stroke-width:3.60010266"
     id="Helmet-inner" />
  <g
     id="Shield">
    <path
       d="M 181.36225,381.62813 L 23.013905,509.85612 L 112.68347,620.58882 C 160.63227,680.8019 229.98959,660.67207 257.91972,638.0547 C 285.36018,615.83385 319.96,551.78086 271.03185,492.36086 L 181.36225,381.62813 z "
       style="fill:#eeeeee;stroke:none"
       id="Shield-shield" />
    <g
       style="fill:#ffcd50;stroke:#eeeeee;stroke-width:0.48395354"
       id="Shield-crown">
      <path
         d="M 183.81297,448.12596 C 182.84638,449.33567 181.50104,449.98568 180.42222,450.72521 C 179.55165,451.33539 178.66407,453.10475 180.3354,454.27176 C 179.70521,454.23026 179.37692,454.35997 179.27429,455.14233 C 179.04416,454.49039 178.67024,454.22696 178.5839,453.18653 C 177.92717,452.19898 177.32054,452.4532 176.58755,451.94711 C 176.76555,452.84723 176.36914,453.73864 177.12154,454.64749 C 177.74835,454.90282 178.10266,455.32063 178.32389,455.79961 C 177.385,455.8176 177.04838,456.16178 176.95849,456.89125 C 176.89024,456.43166 176.73913,455.76659 176.50888,455.35827 C 175.79748,454.66858 174.31736,454.70342 173.57367,455.43192 C 172.86541,456.42248 171.92196,457.68353 170.94916,458.40139 C 171.9053,459.48887 172.15101,460.52215 172.69436,461.54426 C 173.17194,462.4149 174.69375,462.68956 175.47411,462.3772 C 175.96626,461.69862 176.61096,460.78556 177.10312,460.10698 C 177.04282,460.89243 177.20217,461.05339 178.06663,461.10056 C 177.56113,461.63427 177.05022,462.07689 176.7624,462.27493 C 175.99653,462.57677 175.73841,463.31588 175.76619,464.43584 C 177.1539,464.43575 177.44346,463.96578 177.72947,463.1285 C 178.01599,462.48051 178.70785,461.06639 179.00064,461.48462 C 178.99314,462.26567 179.04136,462.20926 179.5893,462.15507 C 179.30953,464.1103 177.71995,466.15759 176.14812,467.27699 C 173.04922,468.98821 169.41049,468.28342 167.50586,464.60029 C 165.26254,460.23946 165.35195,460.23674 164.84678,460.27854 C 164.85639,459.89604 164.4388,461.80869 163.74685,465.07003 C 162.00581,469.6539 158.56893,470.23065 155.14001,469.83761 C 153.01637,469.67309 150.86362,467.85318 151.25353,466.5331 C 151.56267,465.72151 152.46014,466.37827 153.17801,467.13903 C 153.60661,467.41667 154.54951,467.70791 155.24676,467.63088 C 155.2785,466.74605 154.78843,465.78523 153.87413,465.50775 C 153.09534,465.27139 152.02658,465.58198 152.06068,464.83246 C 152.33369,462.28955 154.93283,464.67899 156.13209,464.56475 C 158.64746,464.07004 157.66113,461.46703 159.51855,460.52824 C 158.08843,461.37005 156.01305,457.61808 154.22244,459.76058 C 153.10709,461.33727 153.29095,461.09979 152.34446,461.87624 C 151.2774,462.45422 150.23253,460.94786 151.34899,460.33362 C 152.67429,460.60402 153.65656,459.25962 153.95479,457.82527 C 152.96402,457.69072 151.77114,457.91258 151.18091,459.5408 C 149.90525,460.33145 149.43532,458.83052 150.41149,458.39559 C 151.83534,458.24458 151.91127,455.59477 150.18213,454.96228 C 148.28853,453.86911 147.53784,455.67589 144.22419,452.51281 C 147.68761,457.18815 147.40475,461.16076 148.22731,465.94623 C 150.05852,469.11717 152.09742,470.67024 150.90159,474.86686 L 178.86336,479.23193 L 206.80543,483.72131 C 206.96498,479.36055 209.38402,478.51356 212.10549,476.0637 C 214.2721,471.79745 215.50872,467.78733 220.06389,464.52483 C 215.93498,466.50911 215.77936,464.55878 213.64062,465.01328 C 211.80067,465.08047 211.05403,467.62405 212.36153,468.20767 C 213.15552,468.92297 212.24477,470.20522 211.27587,469.05906 C 211.21768,467.32814 210.15175,466.74852 209.1679,466.57031 C 209.00828,468.02661 209.52703,469.60875 210.87102,469.76114 C 211.74302,470.69032 210.2838,471.80007 209.44757,470.92064 C 208.78735,469.8897 208.88882,470.17237 208.31529,468.32819 C 207.2744,465.73722 204.14116,468.6642 203.04118,467.42166 C 204.51758,468.88848 202.77514,471.05929 205.01452,472.30709 C 206.11977,472.78634 209.33009,471.31704 208.80393,473.81986 C 208.60473,474.54322 207.68427,473.91757 206.87055,473.9017 C 205.91525,473.88306 205.15226,474.64541 204.90901,475.49674 C 205.54833,475.78546 206.53508,475.79986 207.0285,475.66825 C 207.94633,475.16656 209.00282,474.81928 209.04604,475.68668 C 209.00892,477.06264 206.39915,478.12823 204.32861,477.62845 C 200.94606,476.94264 197.85563,475.33205 197.61632,470.43452 C 197.40166,467.03665 198.71824,465.70257 198.0509,465.53764 C 198.04457,465.19574 196.66716,465.96312 194.18646,468.82615 C 191.23688,471.74044 187.55845,471.28629 185.14003,468.7012 C 183.99105,467.15085 183.11193,464.71255 183.45006,462.76656 C 183.95444,462.98743 183.98286,463.05598 184.2171,462.31084 C 184.6248,462.00356 184.84581,463.56226 184.91805,464.26708 C 184.93133,465.15176 185.06149,465.68821 186.38125,466.11713 C 186.75375,465.06057 186.73667,464.27787 186.10156,463.75413 C 185.88903,463.47684 185.5399,462.898 185.22407,462.2342 C 186.0608,462.45649 186.26209,462.35264 186.44747,461.587 C 186.70584,462.38446 187.03683,463.45205 187.2952,464.2495 C 187.94083,464.78773 189.47303,464.99678 190.19629,464.31634 C 191.0289,463.51217 191.58189,462.60539 192.82729,461.8666 C 192.12393,460.88326 191.61635,459.39238 191.24886,458.23144 C 190.76669,457.30878 189.36979,456.81826 188.48007,457.25435 C 188.13492,457.57154 187.78568,458.15735 187.57874,458.57336 C 187.71867,457.85182 187.50489,457.42046 186.61751,457.11322 C 186.97593,456.72604 187.44202,456.43817 188.11705,456.38903 C 189.11348,455.75717 189.01193,454.7869 189.45938,453.98584 C 188.60587,454.24065 188.10749,453.81141 187.17773,454.54768 C 186.7741,455.51051 186.33708,455.6455 185.91675,456.19441 C 186.0609,455.41863 185.78877,455.19382 185.1766,455.03855 C 187.42558,454.5449 186.82939,452.48809 186.18999,451.63875 C 185.3925,450.60204 184.6208,449.61671 183.81297,448.12596 z "
         style="stroke:none"
         id="path5151" />
      <path
         d="M 151.41978,476.94974 L 151.43988,477.54841 C 151.94755,479.49978 152.00444,480.17054 151.58722,481.93756 L 151.60867,482.57676 C 167.11183,478.05323 188.82679,481.42315 203.35137,490.67394 L 203.65319,489.90884 C 203.85641,488.48612 203.78814,487.73063 205.2519,485.85629 L 205.6483,484.85147 C 194.74601,470.19571 163.6501,466.48159 151.41978,476.94974 z "
         style="stroke:none"
         id="path5153" />
      <path
         d="M 152.24408,476.65892 C 150.51238,477.54075 149.90426,476.33253 150.84582,475.05339 C 164.20351,463.72808 197.0478,469.38329 206.48055,483.1228 C 207.32323,484.07746 206.05041,485.8948 204.90291,484.72895 C 196.20269,471.94354 166.39383,466.17128 152.24408,476.65892 z "
         id="path5155" />
      <path
         d="M 152.36576,484.46075 C 167.03602,480.45676 186.84571,491.48669 202.23626,492.37374 C 203.30786,493.02682 204.23725,491.91165 203.57219,490.8943 C 192.29236,478.36069 164.90397,477.63861 151.65768,482.67172 C 150.71157,483.31288 151.1167,484.81218 152.36576,484.46075 z "
         id="path5157" />
    </g>
    <path
       d="M 211.37123,493.89232 C 214.63616,493.14895 205.40477,493.53029 198.37772,491.44668 C 197.41994,491.16268 194.63197,490.99041 192.18223,491.06384 C 189.7325,491.13728 188.3103,491.05992 189.02179,490.89194 C 191.34835,490.34261 190.21544,489.50222 183.96997,487.14456 C 177.22486,484.59828 170.77352,483.45157 163.10986,483.43671 C 155.83929,483.42262 153.34711,483.97669 149.90364,486.37274 C 147.03948,488.36571 146.78884,489.03104 148.39707,489.28321 C 170.94113,492.81798 179.57336,501.13222 211.37123,493.89232 z "
       style="fill:none;stroke:#eeeeee;stroke-width:1.11691272"
       id="Shield-fake-scalp" />
    <g
       style="fill:#d40000"
       id="Shield-Griphuvud">
      <path
         d="M 206.93472,642.22656 C 209.13636,637.59926 210.18657,631.65747 209.831,625.84031 C 209.52921,620.90306 208.49795,616.97188 202.89616,599.40431 C 201.08622,593.72824 200.15716,584.5783 200.8567,579.31846 C 201.33808,575.69896 199.1365,563.57406 198.02974,563.74936 C 197.7028,563.80114 196.59508,564.92557 195.56813,566.2481 C 194.54119,567.57062 192.63947,569.68352 191.34209,570.94344 C 189.06251,573.1572 188.34125,575.76358 186.68141,587.78562 C 186.58061,588.51569 186.90755,588.31851 187.54359,587.26563 C 188.56812,585.56965 188.56812,585.56965 188.40302,587.12951 C 187.86009,592.25876 188.24439,596.66778 189.80355,603.19762 C 191.68123,611.06142 193.08548,614.77576 196.3022,620.38698 C 201.1494,628.84237 204.33156,639.09593 203.72523,644.30542 C 203.3791,647.27932 205.04364,646.20115 206.93472,642.22656 z "
         id="path1955" />
      <path
         d="M 177.0348,643.56864 C 182.91543,637.37861 185.69231,626.87961 185.13211,612.95387 C 184.70547,602.34808 184.73095,591.07038 185.18584,589.17278 C 185.99628,585.79201 187.41255,575.00071 187.07901,574.74774 C 186.37037,574.21029 179.39222,579.42704 177.17316,582.1532 C 174.50443,585.43179 171.00473,596.52062 170.0841,604.61497 C 169.31813,611.34951 169.7601,618.14854 171.90885,632.68594 C 172.82257,638.8678 173.37613,644.56031 173.13898,645.33597 C 172.47546,647.5061 173.91421,646.85341 177.0348,643.56864 z "
         id="path1953" />
      <path
         d="M 233.12611,634.9952 C 233.07104,634.64751 232.28117,633.87668 231.37084,633.28223 C 230.46051,632.68778 228.73016,630.75156 227.52565,628.97954 C 222.8286,622.06946 221.93314,619.33487 219.49153,604.44442 C 217.59705,592.89072 216.79674,589.55033 215.19901,586.52801 C 213.18466,582.71756 211.83454,581.50605 213.21743,584.74984 C 215.14619,589.2741 209.11966,587.64262 205.72358,582.72114 C 202.06823,577.42395 201.35836,578.41193 202.10833,587.75276 C 202.59785,593.84959 207.47591,610.63062 210.93251,618.10877 C 213.64276,623.97225 218.18129,629.26315 222.93832,632.10479 C 228.55422,635.4595 233.41822,636.83948 233.12611,634.9952 z "
         id="path1951" />
      <path
         d="M 147.05752,632.78773 C 148.78734,631.24843 151.19193,629.14216 152.40105,628.10711 C 153.61017,627.07206 155.45652,624.53657 156.50406,622.47268 C 159.65569,616.26322 161.63643,613.28284 164.90411,609.83327 C 167.30537,607.29835 168.15976,605.64314 168.65277,602.57099 C 169.00398,600.38251 169.86981,596.77489 170.57686,594.55405 C 171.44567,591.82508 171.65251,589.44776 171.21494,587.22029 C 170.85884,585.40756 170.43224,583.82615 170.26692,583.70604 C 169.99292,583.50697 155.41793,594.00331 152.75168,596.31984 C 151.26266,597.61355 149.02517,606.4676 149.11671,610.70388 C 149.29201,618.81592 148.23137,624.22407 145.2217,630.56437 C 143.55009,634.08584 142.2822,637.56497 142.40417,638.29577 C 142.57012,639.29013 142.78779,639.11643 143.26915,637.60547 C 143.62292,636.49501 145.32769,634.32702 147.05752,632.78773 z "
         id="path1949" />
      <path
         d="M 249.09573,614.81709 C 249.05081,614.55403 247.56526,613.79055 245.79449,613.12049 C 244.02373,612.45042 241.32802,610.58954 239.80403,608.9852 C 235.60791,604.56785 230.22085,593.28909 226.4843,581.09802 C 225.99115,579.48904 224.35423,575.60727 222.84671,572.47187 C 221.33919,569.33647 219.68533,565.55595 219.17148,564.07072 C 217.87474,560.32274 215.98967,559.27799 215.80977,562.2076 C 215.5627,566.23112 214.55398,572.219 213.63813,575.09879 C 212.87004,577.51392 212.92769,578.25865 214.01925,580.023 C 214.7266,581.1663 216.09885,584.39166 217.06871,587.19045 C 219.50205,594.21248 221.91044,598.51701 226.73213,604.46188 C 233.57001,612.8926 241.44889,617.4618 246.63954,616.0068 C 248.03536,615.61554 249.14064,615.08017 249.09573,614.81709 z "
         id="path1947" />
      <path
         d="M 257.19064,598.10464 C 257.12671,597.70103 256.19718,597.29268 255.12501,597.19719 C 252.46217,596.96004 246.06923,591.6239 242.91386,587.00461 C 241.48461,584.91229 238.37092,578.74646 235.99455,573.3028 C 229.75804,559.0165 229.29681,558.14093 227.33067,556.85595 C 226.35148,556.216 223.30973,554.11867 220.57122,552.19522 C 217.83271,550.27177 215.33891,548.73814 215.02944,548.78715 C 214.05884,548.94088 216.737,557.95632 218.61933,560.87171 C 221.263,564.96626 225.97789,575.00718 228.09754,581.0567 C 231.34668,590.3298 238.2358,597.1441 246.20841,598.97086 C 250.36735,599.92381 257.39102,599.36982 257.19064,598.10464 z "
         id="path1945" />
      <path
         d="M 142.21491,612.24998 C 143.85488,610.53182 145.78163,607.24376 146.79679,604.43085 C 149.33077,597.40945 153.29344,592.93745 161.56582,587.76357 C 168.44512,583.46096 168.73662,583.15901 176.09922,572.70908 C 180.23153,566.84398 184.3048,560.24467 185.15092,558.04395 C 186.76554,553.84443 186.43499,553.08247 184.22322,555.90556 C 181.50847,559.37067 172.68569,565.36652 168.60103,566.5222 C 166.25897,567.18484 162.19938,569.2948 158.93135,571.54799 C 150.21005,577.561 146.24961,584.50516 143.59148,598.4447 C 142.14281,606.04166 140.37717,611.09381 138.35599,613.42538 C 136.65824,615.38385 136.59541,615.65677 137.88942,615.45182 C 138.7119,615.32155 140.65837,613.88072 142.21491,612.24998 z "
         id="path1943" />
      <path
         d="M 211.58812,582.0388 C 211.39219,580.186 211.91865,575.68264 212.75804,572.03134 C 214.78184,563.22797 214.94043,556.97519 213.31914,549.90823 C 212.18269,544.95456 211.33139,543.19997 207.28926,537.48024 C 204.70064,533.81724 202.32552,530.86097 202.01122,530.91075 C 201.69692,530.96053 201.37651,532.13281 201.29919,533.51581 C 201.22187,534.89882 200.64624,537.6644 200.02002,539.66155 C 199.31405,541.91301 199.02679,545.60078 199.26404,549.367 C 200.49755,568.94958 201.37626,573.6408 204.84411,579.15749 C 207.02289,582.62353 210.76961,586.41862 211.44165,585.84022 C 211.71816,585.60224 211.78407,583.8916 211.58812,582.0388 z "
         id="path1941" />
      <path
         d="M 173.22867,586.05648 C 173.07297,585.07341 177.22798,579.31376 178.20444,579.1591 C 178.60757,579.09525 180.86644,577.48839 183.22416,575.5883 C 196.72383,564.70892 198.59785,561.76093 198.11695,552.16082 C 197.98266,549.4801 197.94627,546.67125 198.03607,545.91892 C 198.13755,545.06876 197.79035,544.61584 197.11869,544.72222 C 196.27526,544.85581 196.00316,544.11612 195.87917,541.35279 C 195.69621,537.27516 194.36992,537.43878 194.25318,541.55338 C 194.20846,543.12935 192.99932,545.80409 191.06842,548.59834 C 189.35646,551.07578 187.26437,555.19032 186.41936,557.74177 C 185.49341,560.53758 182.47537,565.80896 178.82337,571.00907 C 173.18326,579.04008 171.22914,583.1154 171.67339,585.92031 C 171.77324,586.55071 172.19157,587.01316 172.60302,586.94799 C 173.01447,586.88282 173.29601,586.48164 173.22867,586.05648 z "
         id="path1939" />
      <path
         d="M 242.93875,561.38107 C 242.88578,561.0466 241.65233,559.94788 240.19775,558.93948 C 236.44694,556.33919 234.64919,554.01195 230.20268,546.00051 C 224.67633,536.04348 219.23547,528.96538 217.33163,529.25632 C 214.63855,529.66788 208.32798,526.34708 203.80946,522.14058 C 201.12766,519.64396 198.85386,517.71082 198.75658,517.84471 C 198.12577,518.71295 203.23143,529.63846 206.14819,533.66192 C 208.08396,536.33218 210.67373,539.92367 211.90323,541.64303 C 214.18642,544.83587 220.44805,550.49353 223.39187,552.02352 C 224.29216,552.49143 227.40557,554.58646 230.31056,556.67914 C 236.43015,561.08753 243.29723,563.6444 242.93875,561.38107 z "
         id="path1937" />
      <path
         d="M 169.94306,564.66036 C 172.42849,563.58638 176.14324,561.37331 178.19806,559.74241 C 182.18639,556.57689 187.47984,550.14951 187.25705,548.74286 C 186.88747,546.4094 176.86115,540.26214 174.13027,540.69467 C 173.23876,540.83587 173.22152,541.23778 174.04529,542.67519 C 176.27381,546.56377 175.986,553.199 173.41667,557.16723 C 172.83656,558.06319 170.70268,559.9008 168.67473,561.25082 C 165.63082,563.27716 164.29876,563.72663 161.03957,563.82705 C 158.86819,563.89395 156.05199,563.60398 154.78135,563.18266 C 150.32781,561.70597 151.57397,564.63124 156.15084,566.39742 C 159.81008,567.80951 163.82553,567.30378 169.94306,564.66036 z "
         id="path1935" />
      <path
         d="M 240.34225,542.9706 C 239.97574,542.33562 239.39131,541.86117 239.04351,541.91625 C 238.69571,541.97134 236.09491,538.93482 233.26395,535.16844 C 230.11698,530.98165 227.50557,528.22475 226.54401,528.07415 C 225.67901,527.93868 223.11918,527.02801 220.85549,526.05044 C 214.76583,523.42065 214.68276,523.39322 214.79219,524.04832 C 214.84773,524.38075 216.17205,525.25596 217.73515,525.99325 C 219.40608,526.78139 220.48224,527.78044 220.34684,528.41778 C 220.22018,529.01399 221.12608,530.48033 222.35997,531.67629 C 223.59384,532.87226 225.72534,535.41865 227.0966,537.33494 C 229.68363,540.95022 234.30524,543.77425 238.41053,544.24833 C 241.07521,544.55606 241.20704,544.46885 240.34225,542.9706 z "
         id="path1933" />
      <path
         d="M 191.56542,545.6911 C 193.85881,541.88612 194.13194,537.10331 192.34451,532.04833 C 190.54843,526.96891 190.47578,526.60293 191.23947,526.48198 C 192.11701,526.34299 195.83385,535.11021 196.39237,538.63655 C 197.23756,543.9729 199.10757,541.94938 200.01567,534.71583 C 201.07678,526.26341 197.67783,516.40736 191.0613,508.75049 C 188.69156,506.00814 178.1967,498.64033 176.94304,498.83889 C 176.503,498.90858 175.61426,499.91206 174.96806,501.06884 C 172.89553,504.77894 167.14504,504.07043 166.50447,500.02605 C 166.24863,498.41068 166.01816,498.36739 162.68299,499.30829 C 158.70794,500.4297 154.89924,499.63003 148.27391,496.28299 C 145.19854,494.72933 143.84756,494.5017 140.77327,495.01913 C 137.57603,495.55726 136.47558,496.20704 133.30362,499.42978 C 127.5548,505.27062 126.91016,511.56922 131.43217,517.71518 C 133.16474,520.06996 134.08249,520.01062 134.30346,517.52954 C 134.48429,515.49904 137.11744,512.54961 139.74028,511.43966 C 140.62631,511.06471 144.01424,510.66742 147.26902,510.5568 C 153.37306,510.34934 158.88297,511.8212 161.27595,514.29846 C 162.04524,515.09486 164.15476,515.60061 167.01393,515.67416 C 172.58911,515.81757 177.52414,517.68111 181.658,521.20399 C 185.64286,524.5999 187.30735,527.80211 187.34306,532.14117 C 187.37449,535.96131 187.15365,536.15582 184.6669,534.49818 C 183.6934,533.84926 181.48749,533.13485 179.76489,532.91061 C 176.30415,532.4601 153.63712,534.98658 153.76727,535.80833 C 153.92559,536.80788 160.71283,538.12369 166.03009,538.18566 C 175.63982,538.29764 185.4912,542.22438 187.40095,546.70405 C 188.38465,549.01148 189.76676,548.67531 191.56542,545.6911 z "
         id="path1931" />
      <path
         d="M 243.56943,526.62913 C 243.50426,526.21768 243.02516,525.94848 242.50475,526.03091 C 241.14537,526.24621 235.44763,524.2045 233.07292,522.65114 C 231.95964,521.9229 228.08901,518.65409 224.47153,515.38712 C 216.76632,508.42849 209.79835,504.45314 204.38605,503.92802 C 202.26697,503.7224 200.47218,503.64648 200.39763,503.75928 C 200.32308,503.87207 202.65037,507.40965 205.5694,511.62056 C 210.00876,518.02467 211.63596,519.74217 215.5193,522.12265 C 218.07273,523.68788 220.35531,524.9379 220.59172,524.90045 C 220.82814,524.86301 223.2937,525.52597 226.07075,526.37369 C 228.84781,527.22142 232.34334,528.01346 233.8386,528.13378 C 237.70069,528.44456 243.7098,527.51539 243.56943,526.62913 z "
         id="path1929" />
      <path
         d="M 213.78883,524.80281 C 212.57233,523.50563 209.02786,518.80446 205.91222,514.35577 C 202.79659,509.90709 199.24096,505.30513 198.01084,504.12921 C 195.31929,501.55624 195.97782,501.31216 202.61556,502.42247 C 205.174,502.85043 209.0577,502.92547 211.246,502.58924 C 217.4529,501.63559 225.34276,496.19484 226.48299,492.08202 C 226.97419,490.31028 226.79684,490.38738 223.8735,493.21646 C 219.83184,497.12777 217.56524,498.35915 211.83713,499.75545 C 206.99209,500.9365 201.9357,500.56773 197.8678,498.73665 C 194.54675,497.24176 196.95476,497.0087 201.32795,498.40176 C 208.67636,500.74256 217.6654,498.27394 224.19602,492.12159 C 228.0509,488.49 228.828,485.62326 225.10905,488.75337 C 221.94297,491.41817 215.79319,493.71846 211.37142,493.89185 C 208.02549,494.02306 205.40496,493.52982 198.37791,491.4462 C 197.42012,491.16221 194.63216,490.98993 192.18242,491.06337 C 189.73269,491.13681 188.31049,491.05945 189.02198,490.89146 C 191.34854,490.34213 190.21563,489.50174 183.97016,487.14408 C 177.22505,484.5978 170.7737,483.45109 163.11004,483.43623 C 155.83947,483.42213 153.34728,483.9762 149.90382,486.37226 C 147.03966,488.36522 146.93407,488.5692 148.39725,489.28272 C 149.26265,489.70473 151.60131,491.23508 153.59428,492.68349 C 157.90145,495.81377 160.23343,495.72845 164.82875,492.27243 C 167.28217,490.42727 168.14845,490.10398 168.9937,490.71809 C 169.83896,491.33221 169.71036,491.54901 168.37544,491.76044 C 167.44843,491.90726 165.58472,493.06516 164.23388,494.33354 C 160.39572,497.93741 158.29934,497.84794 152.48841,493.83228 C 148.86988,491.33168 146.98872,490.49581 145.80874,490.86423 C 142.90136,491.77202 143.88261,492.87658 150.0742,495.66575 C 154.92863,497.85257 156.99743,498.34959 160.46237,498.16149 C 162.91236,498.02848 164.95117,497.58227 165.16299,497.13271 C 165.97494,495.40942 168.93937,493.20483 170.85203,492.9019 C 173.35535,492.50541 175.34417,492.89497 175.48912,493.81019 C 175.55614,494.23331 175.04096,494.31069 174.17033,494.00828 C 171.73949,493.16391 168.78208,494.75146 167.91512,497.3661 C 167.1854,499.56683 167.2487,499.87207 168.67257,501.01915 C 170.68795,502.64277 173.02777,501.87984 173.82472,499.33922 C 174.39967,497.50631 174.26116,497.2629 172.25745,496.58526 C 170.87595,496.11804 170.40725,495.66084 170.99567,495.35449 C 171.51058,495.08642 172.77136,495.42091 173.7974,496.0978 C 174.82345,496.7747 176.81568,497.69862 178.22458,498.15097 C 183.61698,499.8823 190.93052,506.21379 200.62478,517.54334 C 204.20736,521.73023 210.13358,526.42026 212.55096,526.98172 C 215.70204,527.71361 216.01008,527.17138 213.78883,524.80281 z "
         id="path1927" />
      <path
         d="M 170.02086,500.03818 C 169.61602,499.5678 169.45482,498.94892 169.66263,498.66288 C 170.22611,497.88733 171.11206,498.75639 170.92227,499.8985 C 170.78928,500.69883 170.61297,500.72615 170.02086,500.03818 z "
         style="fill:#eeeeee"
         id="path1925" />
      <path
         d="m 185.61035,528.84688 c -1.32954,-1.75446 -6.27122,-3.84015 -11.0412,-4.66004 -4.96366,-0.85315 -14.76607,0.69743 -21.69105,3.43168 -17.09961,4.90732 -26.76784,2.63289 -38.16077,-11.93398 -0.61507,-1.23308 -0.76996,-1.25002 -1.18481,-0.12962 6.24145,21.82013 27.53353,19.96118 43.15928,14.45765 10.979,-3.4625 18.83245,-3.55341 25.75138,-0.29808 3.35955,1.58068 4.73652,1.20361 3.16723,-0.86724 l -6e-5,-3.7e-4 z"
         id="path1921" />
      <path
         d="M 232.34937,516.07659 C 232.50762,515.69863 231.62273,515.0479 230.38296,514.63052 C 229.14319,514.21313 225.12624,511.55635 221.45639,508.72654 C 217.20601,505.4491 214.21052,503.67227 213.20425,503.83165 C 210.86125,504.20275 211.4214,504.96947 215.69685,507.24343 C 217.81341,508.36917 221.20939,510.93707 223.24348,512.94988 C 225.27758,514.9627 227.49857,516.90498 228.17902,517.26607 C 229.46583,517.94893 231.85022,517.26885 232.34937,516.07659 z "
         id="path1919" />
    </g>
    <path
       d="M 181.36229,381.62811 L 23.013927,509.85609 L 112.6835,620.5888 C 160.63231,680.80189 229.98962,660.67205 257.91975,638.05468 C 285.36021,615.83384 319.96003,551.78083 271.03188,492.36083 L 181.36229,381.62811 z "
       style="fill:none;fill-opacity:0;stroke:#000000;stroke-width:1.5508095;stroke-linejoin:bevel"
       id="Shield-Frame" />
  </g>
  <g
     id="Helmet">
    <path
       d="M 205.99875,337.91814 C 209.95795,366.28743 227.31165,375.87094 237.97191,390.62464 C 209.37602,389.16339 195.07615,387.39962 175.13687,416.72388 C 161.87608,434.09806 141.74433,457.51991 108.68222,456.79353 C 86.25316,433.93631 98.86344,388.1549 117.66773,381.73439 C 116.7147,372.81832 108.79729,362.03177 99.89601,352.22909 C 90.99472,342.42642 69.333,322.90168 64.44444,317.92115 L 194.38157,318.31202 C 194.38157,318.31202 197.03116,323.98971 200.05926,329.28889 C 203.08736,334.58806 203.08736,334.58806 203.08736,334.58806 L 205.99875,337.91814 z "
       style="fill:#808080;stroke:#000000;stroke-width:3.24009228"
       id="path2576" />
    <path
       d="M 117.76338,380.17417 C 120.9204,398.20686 118.20758,424.89549 116.20496,442.38175"
       style="fill:none;stroke:#000000;stroke-width:3.24009228"
       id="path2578" />
    <path
       d="M 222.7266,374.00818 C 200.93258,372.97263 180.99026,376.30784 162.9199,407.16833 C 154.34161,424.20424 133.66477,437.22038 115.76627,441.17095 C 106.44486,429.1477 109.42955,404.04342 117.85224,397.90663 L 117.41621,391.58414 C 104.78759,402.5335 101.21022,430.3085 114.36397,445.87043 C 143.25546,438.19631 160.09078,424.32187 168.65025,406.19129 C 187.47815,379.33136 198.81214,378.35652 226.42481,377.41302 L 222.7266,374.00818 z "
       style="fill:#000000;stroke:none"
       id="path2580" />
    <path
       d="M 96.41683,292.61107 L 81.68826,305.19845 L 150.22864,305.42017 L 172.76495,306.66658 L 193.03018,317.7543 C 187.6772,290.98942 183.13505,281.90512 183.13505,281.90512 L 104.98159,281.90512 L 96.41683,292.61107 z "
       style="fill:#808080;stroke:#000000;stroke-width:3"
       id="path7710" />
    <path
       d="M 102.03746,306.26116 L 61.890126,316.69946 L 164.13198,317.77006 L 158.24371,305.19057 L 102.03746,306.26116 z "
       style="fill:#4d4d4d;stroke:#000000;stroke-width:1px"
       id="path8740" />
    <path
       d="M 147.22754,317.71179 C 164.63912,303.32831 145.95098,297.76148 145.95098,297.76148 L 187.18983,297.49383 L 187.18983,297.49383 L 187.94686,299.00788 L 193.24603,317.17649 L 147.22754,317.71179 z "
       style="fill:#808080;stroke:#000000;stroke-width:2"
       id="path8736" />
  </g>
  <g
     id="Plume">
    <g
       id="Feather-1">
      <path
         d="M 90.128083,172.44991 C 86.14877,170.93603 82.169452,169.42215 78.190139,167.90827 C 79.732864,166.30346 81.612851,165.80436 82.818316,163.09382 C 78.795798,165.18176 78.741286,160.95715 70.033168,160.75505 C 71.665632,160.50693 74.347628,160.8607 75.980092,160.61258 C 73.543327,158.85935 70.859257,157.19402 66.660682,155.34272 C 68.420519,155.62288 70.180362,155.90304 71.940199,156.1832 C 70.327634,154.70361 68.715064,153.22401 67.102499,151.74441 C 68.523446,152.1752 69.944388,152.60599 71.365335,153.03678 C 66.950296,149.08883 64.442172,145.02026 56.835689,142.98645 C 56.707752,142.06896 61.30117,143.15026 63.533914,143.23217 C 61.246138,139.62027 57.863917,138.18 51.52842,141.04824 C 50.896492,143.58307 51.189411,146.2906 47.781901,147.83422 C 46.579683,150.71759 44.173601,152.3297 41.503849,153.1999 C 38.53019,153.4115 35.903967,152.7197 32.930308,152.93131 C 33.652285,154.86573 21.148379,154.41992 20.679992,146.23668 C 20.684467,148.28778 20.688941,150.33889 20.693417,152.39 C 16.536862,149.18828 11.233734,147.61963 8.2237482,142.78484 C 8.0454708,144.23679 7.8671941,145.68874 7.6889167,147.14069 C 6.4222773,143.5065 4.5080387,142.36954 2.7932863,139.01038 C -0.48688345,129.60013 0.80260494,116.52364 11.794727,109.00461 C 16.888317,106.04531 21.97945,104.23948 27.623509,104.50082 C 31.236265,99.449546 37.282322,98.65866 41.381646,99.757351 C 39.926339,98.040744 38.098017,95.509662 36.64271,93.793056 C 44.335235,95.605281 44.243778,99.654682 49.807589,100.02297 C 47.045151,97.593904 46.075194,95.976208 44.208996,93.952831 C 46.65773,95.406939 49.106471,96.861042 51.555206,98.31515 C 50.866309,97.141204 50.177411,95.967259 49.488514,94.793313 C 52.308725,98.160958 56.702648,98.824556 59.233675,103.10275 C 59.459579,101.78481 59.378888,100.07445 59.604793,98.756504 C 66.298756,104.16334 67.750275,112.2968 67.576916,119.6986 C 69.703536,111.57483 64.643362,107.05532 66.875466,101.9264 C 69.582309,105.9754 72.289156,110.0244 74.995999,114.07339 C 75.111147,112.61369 75.2263,111.15399 75.341448,109.69429 C 76.559888,113.70297 79.15583,115.16087 81.063024,117.89417 C 80.948913,116.21408 80.8348,114.53399 80.720689,112.8539 C 83.509752,125.7435 86.123698,121.76002 87.621968,130.2339 C 87.642982,129.01896 87.664001,127.80402 87.685014,126.58908 C 93.45256,129.38305 91.888856,135.06106 91.339878,138.73506 C 94.082191,138.84196 96.715377,148.98728 98.864056,153.92894 C 100.62102,159.52738 101.64738,176.05441 102.00634,181.4812 C 99.033797,182.20558 92.805574,174.12851 90.128083,172.44991 z "
         style="fill:#d40000;stroke:#000000;stroke-width:1.42573118"
         id="path2808" />
      <path
         d="M 89.568444,163.91082 C 87.34278,163.57943 84.955911,163.14108 82.689586,163.85071"
         style="fill:none;stroke:#000000;stroke-width:0.98171782"
         id="path2824" />
      <path
         d="M 89.910527,168.22403 C 86.805042,167.95895 85.856928,167.87159 83.47462,169.52583"
         style="fill:none;stroke:#000000;stroke-width:0.98171782"
         id="path2826" />
      <path
         d="M 91.002632,162.16923 C 88.232562,159.88236 83.262945,157.76127 77.97853,158.91388 C 80.718349,155.53114 86.539159,157.58242 91.052306,160.34481 C 88.491081,155.41045 81.676969,153.87644 74.180442,154.35066 C 78.151653,153.00774 83.692705,153.07793 88.563406,155.768 C 86.438065,150.5966 77.311905,148.48814 70.507361,148.05943 C 73.931189,146.67836 80.429924,147.9412 84.180726,148.86663 C 80.100929,144.70466 71.787812,143.07376 63.92971,143.41642 C 69.208577,141.36239 76.340563,142.67393 83.144164,145.95 C 80.178143,139.10636 66.979754,134.66738 62.258882,139.98607 C 64.580815,133.61738 71.711864,137.77627 76.438353,136.67137 C 71.226156,133.21298 67.948378,131.03811 58.95799,137.05291 C 60.63769,133.07511 69.006464,130.70313 72.855708,132.48327 C 71.06941,130.23003 66.765723,130.02121 61.594288,130.49037 C 63.124893,128.67345 67.786166,130.46613 69.467425,128.84204 C 66.286574,126.82435 61.986439,128.2431 60.910235,126.8325 C 59.220346,124.50393 58.857694,120.59497 59.998573,117.2193 C 60.297456,121.41099 61.304424,125.51528 63.064561,125.61518 C 60.846794,119.0668 60.362999,110.46497 65.201924,106.78791 C 59.158426,117.43575 66.922323,126.37941 68.616195,127.25567 C 69.06962,125.21932 69.523039,123.18297 69.976464,121.14662 C 70.253289,126.70123 70.492391,129.72334 74.237177,131.17105 C 74.058762,124.81496 74.772237,119.00422 76.445415,115.31618 C 75.806297,122.4145 74.465198,132.39033 77.809279,135.44502 C 78.83555,127.08672 79.818233,123.34294 81.873568,119.38221 C 79.908708,127.10226 77.749492,134.27544 80.864616,138.9582 C 82.051655,133.78672 82.160069,131.01067 85.081199,128.75432 C 82.520695,133.9896 82.30888,138.55442 82.900027,142.25898 C 84.529003,137.98439 85.892855,135.1591 89.373431,133.55255 C 84.973441,138.38764 84.681766,142.41964 85.280449,146.29947 C 86.455968,142.40503 88.536955,140.36514 90.750556,140.08487 C 87.323244,143.15076 86.101573,148.84098 88.74863,152.1297 C 89.796135,150.22441 89.662503,147.99975 91.891143,146.41382 C 93.697053,149.45398 97.258022,150.26894 98.655652,153.08463 C 98.918343,155.44135 99.181035,157.79808 99.443726,160.1548 C 95.77369,155.25863 100.13962,154.48718 91.818856,147.71246 C 89.750477,152.25271 90.740378,156.73264 92.046584,158.63637 C 92.515043,155.29436 93.545487,153.76469 94.749192,152.95365 C 94.615674,155.69756 94.19138,157.96993 94.057862,160.71385 C 93.03945,161.19897 92.021044,161.68411 91.002632,162.16923 z "
         style="fill:#000000;stroke:#000000;stroke-width:0.57481861px"
         id="path2828" />
      <path
         d="M 27.229266,104.4249 C 24.908252,106.21597 23.536042,108.48328 22.52695,110.72324 C 19.320087,109.8206 17.515947,110.38528 14.006988,113.11497 C 14.336205,113.04991 14.670958,113.54238 14.942426,113.34509 C 17.995473,111.12631 21.814569,110.87227 22.18294,112.35303 C 21.989153,113.59796 22.00424,113.14176 21.810453,114.3867 C 19.148097,115.26387 13.559706,114.77448 11.481893,119.68064 C 14.867354,116.76349 19.001461,115.95283 21.888329,115.92438 C 21.835304,117.0229 21.631808,118.17489 21.729247,119.21993 C 15.437483,119.55053 10.403011,123.70494 8.2671971,128.8628 C 8.4735586,128.58458 9.3674658,129.03068 9.9097,128.02026 C 11.918212,124.27753 17.227605,120.29428 21.807791,120.58016 C 22.053883,122.48441 22.715302,123.93602 23.314547,125.30804 C 20.411581,124.96224 17.795912,126.3785 12.971809,130.54548 C 13.383146,130.38086 14.345234,130.95262 14.691604,130.59467 C 17.672922,127.51366 21.653834,125.64077 23.301841,126.4115 C 25.599413,131.29518 27.588517,132.8313 29.731855,136.04121 C 30.872703,135.3508 27.524374,131.37511 26.198033,128.51109 C 25.821853,124.6357 38.959141,127.31212 38.703641,125.96978 C 40.910773,125.49886 42.642923,126.5525 44.482014,127.90708 C 43.588969,126.46534 42.71951,123.65946 38.881861,124.5183 C 37.906582,125.8422 28.605864,123.48174 25.614878,126.57273 C 24.861522,125.3752 24.543415,124.73477 24.276268,123.0933 C 26.110254,118.84567 33.737889,118.97883 39.399529,119.30229 C 35.468059,117.44598 28.536002,116.58828 23.501663,120.7842 C 22.878256,119.09301 23.019639,118.79082 23.325129,116.56614 C 26.341936,111.74892 33.540803,111.5463 36.956962,115.19619 C 36.331993,111.74774 28.720971,109.52803 23.720235,114.17623 C 23.928722,112.21491 24.510283,110.7311 25.437534,109.36168 C 29.869218,104.99346 35.007386,107.76302 38.639641,110.49158 C 37.963044,106.94765 30.973126,104.42727 27.164227,106.47054 C 27.464182,105.3502 27.775358,105.31048 28.332731,104.43761 C 27.964909,104.43337 27.597087,104.42913 27.229266,104.4249 z "
         style="fill:#000000;stroke:#000000;stroke-width:0.16701423"
         id="path2830" />
      <path
         d="M 45.529873,129.49174 C 49.989055,129.60762 51.197032,134.15087 51.497635,141.29029 C 52.232028,136.90706 59.635893,133.81362 53.572664,129.18434 C 54.24002,129.50172 54.90738,129.81911 55.574735,130.13649 C 55.825616,127.77363 56.192475,125.42501 53.067959,123.70719 C 49.832904,122.25049 48.089202,120.15285 48.135886,114.97884"
         style="fill:none;stroke:#000000;stroke-width:1.59274542;stroke-linecap:round"
         id="path2832" />
    </g>
    <g
       id="Feather-2">
      <path
         d="M 97.515513,176.22747 C 99.450684,184.78261 115.67973,187.79497 117.75263,172.36831 C 117.78206,140.44877 120.59873,118.97618 114.78733,86.620155 C 113.705,80.216702 109.76543,78.795461 110.04135,69.330882 C 109.45222,71.566135 108.8631,73.801388 108.27397,76.03664 C 106.17068,68.886671 107.42446,64.113709 109.43744,58.872585 C 107.93284,61.729665 106.21717,62.876709 104.92364,67.443825 C 104.08782,63.145584 103.80504,58.915247 102.41619,54.549101 C 100.60624,50.965971 104.72936,50.49717 106.89742,48.805908 C 100.73238,49.926685 98.991638,51.590696 98.946575,62.304537 C 99.84828,53.312031 95.719459,50.999696 94.105901,45.347279 C 93.765202,42.046501 96.677266,40.829238 102.27453,42.888878 C 95.887796,37.850126 91.264644,41.30816 91.403034,49.420805 C 91.450506,45.929802 91.670188,42.179249 88.591081,39.006066 C 87.2042,36.633078 85.094527,35.574777 84.430442,31.887109 C 83.272397,36.433938 85.427669,39.142096 85.926282,42.769593 C 82.859919,33.1984 60.474194,30.068309 52.159737,41.432531 C 44.376877,36.86475 27.236217,46.079724 26.233316,62.501926 C 27.972397,57.398567 32.18316,52.739034 36.588013,49.927794 C 29.437313,56.501418 26.655067,61.786964 28.452346,67.494458 C 30.516834,72.120823 30.250353,77.443386 26.19015,78.230183 C 32.137661,78.026711 31.611158,72.256654 33.211917,67.449514 C 34.410699,62.79986 35.633803,61.381091 37.616111,59.494162 C 31.763667,66.575848 33.34325,74.850762 35.762013,79.720128 C 38.053946,83.288593 39.911673,85.821351 40.200079,89.705187 C 41.678588,87.650041 42.378474,85.078266 42.127522,82.2494 C 44.69853,89.393232 51.397889,96.061562 62.64508,96.551817 C 55.647202,92.832432 49.908191,88.004534 49.847407,80.365248 C 51.889773,87.302357 56.415893,92.29894 62.162025,94.21743 C 66.231403,95.281397 68.673184,94.742083 71.199839,93.511481 C 69.325336,92.547088 67.450828,91.582699 65.576325,90.618305 C 80.711918,96.496334 84.39092,77.951364 68.871711,74.03069 C 76.955959,76.373669 79.441944,78.590642 79.917224,85.753433 C 81.193397,82.482734 81.023972,81.841394 80.31359,78.747802 C 83.598734,81.421836 82.086114,86.594328 81.070709,90.003409 C 82.537245,87.456328 84.18089,86.895798 84.471002,83.642897 C 84.627678,81.283643 83.142229,78.582413 80.031624,75.400955 C 83.592029,77.758665 84.62737,78.964266 85.837375,81.033382 C 85.966522,71.59442 82.741231,68.901095 69.823285,66.28075 C 82.670602,68.885085 86.022894,71.942701 86.068042,81.028213 C 85.689621,79.631339 83.516243,78.090157 80.110064,75.437638 C 88.533244,83.191404 82.560121,88.14393 81.430776,89.239251 C 83.61921,82.090912 80.990393,79.792668 80.354024,78.788656 C 80.593315,80.338332 81.064395,82.706721 80.033139,84.752308 C 78.616462,87.56242 75.502243,92.088163 72.63014,92.113746 C 75.77249,93.580998 79.002169,95.480004 80.972997,98.487531 C 78.402376,98.067005 75.831748,97.646484 73.261126,97.225958 C 79.174552,100.04397 85.990343,104.6569 89.560721,110.55546 C 87.000952,109.19226 86.78913,106.9946 82.572703,106.55073 C 86.183569,108.77429 86.844969,113.30222 89.919769,115.31961 C 87.737096,115.1565 85.554428,114.9934 83.371754,114.83029 C 87.232365,119.56789 92.594401,123.50745 93.090772,130.4985 C 91.024435,130.44722 90.668128,130.18489 94.423368,137.58489 C 91.250072,135.9972 94.068114,140.4782 93.890487,141.92485 C 100.08508,155.42151 98.646373,170.50709 97.515513,176.22747 z "
         style="fill:#eeeeee;stroke:#000000;stroke-width:1.42573118"
         id="path2965" />
      <path
         d="M 50.903552,40.839266 C 49.819977,44.351553 48.87765,47.650947 49.139013,50.522563 C 45.462936,50.147938 40.03997,48.062319 37.024666,58.244362 C 39.114302,54.663748 40.726486,53.096593 43.771174,52.050672 C 45.909954,51.507472 47.696603,51.957075 49.214662,52.719049 C 49.340703,54.192654 49.466742,55.666266 49.592783,57.139871 C 42.63334,61.005104 42.33097,63.155181 41.475644,71.683835 C 41.808416,71.189237 42.410643,72.057095 42.434207,71.461435 C 42.672958,65.426241 46.154687,58.292725 49.96487,58.797182 C 50.634733,60.529422 51.304591,62.261662 51.974455,63.993902 C 47.608036,65.491482 47.332274,71.175039 51.117161,73.788595 C 49.719062,69.549505 50.125553,67.48896 52.73054,66.273936 C 53.692195,67.504798 54.653849,68.735659 55.615504,69.966521 C 54.766684,72.816938 55.065845,75.693195 56.596539,77.91485 C 56.302686,75.307848 55.967065,73.041068 57.207209,72.003812 C 57.861757,71.048142 59.256457,71.564734 60.281083,71.345198 C 58.971268,70.762281 57.349086,69.910781 56.178517,68.193803 C 55.846241,67.462311 55.868106,66.659181 56.626111,65.485978 C 57.97966,64.462646 60.057429,64.103811 63.199636,64.451258 C 61.104591,63.38821 58.826519,62.878263 56.015291,64.835405 C 55.207526,64.851339 54.429624,65.561633 53.675542,64.20277 C 52.745712,62.400236 52.08446,60.285335 51.409289,58.28384 C 51.408569,55.789577 53.805312,54.395496 56.870575,54.119542 C 60.120209,53.904594 64.279098,54.722218 67.292015,56.435173 C 65.586905,54.383959 62.254348,53.399192 58.766612,52.740722 C 55.888346,52.118713 53.340395,53.494228 51.387324,54.712551 C 51.15649,52.842355 50.925662,50.972165 50.694828,49.101969 C 53.944414,46.699818 61.306473,45.493315 66.489989,46.091398 C 62.026003,44.008412 56.519543,44.790439 51.200128,46.8617 C 51.021023,44.88274 51.975979,43.043026 52.363905,41.13369 C 51.877123,41.035547 51.390334,40.937409 50.903552,40.839266 z "
         style="fill:#000000;stroke:none"
         id="path2967" />
      <path
         d="M 101.23056,74.416197 C 98.198921,76.540564 92.977015,82.15873 94.460368,89.240659 C 92.322958,86.840728 90.786055,84.114243 92.269621,78.956599 C 91.611103,80.257132 91.670688,80.925317 90.489139,81.921456 C 89.156394,81.675839 88.908447,81.723538 88.587121,79.760775 C 88.740428,78.064721 88.807979,77.719123 90.166484,77.291861 C 91.784024,78.181164 93.412652,79.632241 94.6026,78.787824 C 93.394937,77.658446 91.429044,76.836243 91.028043,75.005331 C 92.346236,70.195927 95.208653,68.458215 97.29896,65.18466 C 94.707506,66.01954 92.630802,67.878327 91.571099,70.582501 C 91.138434,65.414052 92.054836,59.690729 95.474269,53.794387 C 92.386166,55.699563 90.277739,59.406241 89.501793,63.997053 C 86.673203,59.907789 85.532708,57.066545 91.252408,54.427167 C 89.750555,53.710786 88.843702,54.668621 87.639352,54.789348 C 86.382554,52.524576 85.125756,50.259805 83.868959,47.995033 C 82.940832,46.317767 83.363162,44.726256 85.430657,42.776346 C 83.954622,43.207669 81.393791,43.34567 80.970805,47.588956 C 79.143243,46.454095 76.745623,46.049824 75.536632,48.353345 C 79.001655,48.637164 81.175713,49.002656 82.386783,50.690942 C 83.590516,52.45036 84.794248,54.209784 85.99798,55.969201 C 84.978921,58.0611 85.711544,58.927044 85.568329,60.405962 C 81.107562,60.241445 76.542963,57.662447 74.98367,54.731928 C 74.173437,59.900219 82.982309,60.405353 86.787904,62.537787 C 90.951161,66.220583 91.117063,71.814309 89.384523,74.613072 C 88.849244,67.67948 86.317099,69.836817 84.034474,65.397833 C 85.520354,69.19195 87.956755,70.460859 86.503717,73.413775 C 87.11525,76.558616 86.349967,76.57226 88.338309,82.848296 C 90.423448,85.867096 92.508592,88.885896 94.59373,91.904696 C 91.942501,89.364054 87.79835,89.201962 83.929547,88.753445 C 96.75539,93.02196 97.712161,96.153373 102.20026,109.64556 C 97.40227,103.98995 91.945671,99.13411 85.091595,95.227496 C 91.866918,101.20315 99.205393,107.80837 103.20513,115.52472 C 98.877691,111.24148 95.052532,106.77973 88.541725,104.63014 C 101.969,114.00521 105.21928,116.28646 105.76068,132.80565 C 99.751247,126.88604 93.741818,120.96643 87.73239,115.04682 C 88.574462,115.98277 86.900439,115.00319 87.728754,115.88152 C 102.45022,131.49196 106.91326,134.11418 106.86249,144.40554 C 102.57965,138.38859 98.666301,134.57856 93.075939,130.08227 C 98.165926,136.07527 107.12328,143.82404 107.138,150.07451 C 102.91864,145.92922 98.874988,141.00492 94.479917,137.63864 C 98.694838,143.40268 108.54958,150.17944 107.12467,154.93076 C 103.99575,150.99061 102.90644,151.30378 100.79733,149.49029 C 106.62116,155.6659 107.84975,156.23361 108.02827,163.39727 C 105.53517,161.01846 103.70207,158.48051 100.54895,156.26083 C 103.13927,160.02344 106.73961,161.42828 106.3357,166.10418 C 105.05837,165.42917 103.78104,164.75416 102.50372,164.07915 C 103.27953,165.14598 104.05535,166.21282 104.83116,167.27965 C 106.00777,169.3025 107.18437,171.32536 108.36097,173.3482 C 108.2088,176.69766 108.05663,180.0471 107.90445,183.39655 C 108.51008,183.21183 109.11571,183.0271 109.72134,182.84237 C 109.96979,179.76383 110.21824,176.6853 110.4667,173.60676 C 110.49795,169.65952 110.52922,165.71227 110.56047,161.76503 C 111.16941,159.44325 111.77835,157.12146 112.38729,154.79967 C 111.68651,155.2318 110.98574,155.66393 110.28496,156.09606 C 110.27854,152.91782 110.9432,150.14222 112.51135,145.87639 C 111.66058,147.00259 110.80981,148.1288 109.95904,149.255 C 109.40573,144.16466 111.64748,141.73919 113.06868,138.17221 C 111.69289,139.88167 110.3171,141.59113 108.94132,143.30058 C 110.34052,137.70769 108.59047,129.72668 113.13895,126.52192 C 110.15378,127.49227 109.81421,130.38863 108.15185,132.32199 C 108.76451,128.28602 111.35718,123.77264 115.13708,121.32643 C 112.67766,123.421 110.21824,125.51558 107.75881,127.61016 C 109.33409,124.21056 111.63856,120.74038 114.556,118.14604 C 112.54489,118.82405 109.46286,121.05178 107.70502,124.88314 C 104.63122,118.95789 109.70168,114.51297 112.00345,110.44863 C 109.62217,111.03533 107.89959,115.38558 105.84766,117.85404 C 102.46533,109.44487 103.59392,108.63467 109.72277,95.789267 C 106.48131,98.28993 105.09956,103.90103 102.78795,107.95691 C 99.040986,100.06337 102.94431,93.109169 107.42877,85.986149 C 103.51315,89.38365 101.27595,94.108035 99.442773,98.801981 C 97.147854,92.496422 99.567094,87.570274 102.96871,81.163582 C 100.45889,83.449137 98.5939,87.655198 96.248812,93.163297 C 95.0812,87.127409 97.076623,80.759373 101.23056,74.416197 z "
         style="fill:#000000;stroke:none"
         id="path2989" />
    </g>
    <use
       transform="matrix(-0.970296,-0.241922,-0.241922,0.970296,278.2825,34.16883)"
       id="Feather-5"
       x="0"
       y="0"
       width="560"
       height="730"
       xlink:href="#Feather-1" />
    <use
       transform="matrix(-0.970296,-0.241922,-0.241922,0.970296,278.9228,34.24745)"
       id="Feather-4"
       x="0"
       y="0"
       width="560"
       height="730"
       xlink:href="#Feather-2" />
    <g
       id="Feather-3">
      <path
         d="M 139.49337,6.2424829 C 133.78352,1.7887282 125.8331,-0.47596339 118.47604,2.7350792 C 114.13754,1.6146097 108.37646,4.7169134 103.93315,9.8788983 C 101.20293,13.703258 99.081305,14.505348 95.657083,14.039693 C 97.409875,16.334703 99.392364,16.758974 102.02183,15.228102 C 104.71531,13.004024 111.73641,9.1089097 115.8998,8.2512232 C 111.16208,10.201605 106.45366,12.833245 103.27367,14.974892 C 99.507266,18.400747 97.778045,21.805459 99.295728,28.592894 C 100.91337,32.725039 100.19141,36.027362 97.678367,37.346465 C 100.76266,37.634743 102.80841,36.439115 103.61162,32.106872 C 104.96026,27.751172 106.93018,24.963782 109.31737,22.091988 C 102.94186,28.724093 105.245,40.897879 112.79448,46.798264 C 115.42333,52.637021 118.05217,58.475784 120.68102,64.314541 C 115.60787,58.130447 111.49343,47.452344 105.46156,45.762254 C 109.78918,49.548951 111.77956,53.591223 113.38784,58.536053 C 113.14574,64.926564 117.13733,67.76774 119.01208,72.383583 C 116.15669,69.862762 115.40174,65.700904 110.44591,64.821126 C 115.75035,69.858083 113.9962,77.148047 119.75546,84.004154 C 117.5002,81.014468 116.01387,78.390468 112.74357,77.039456 C 115.71545,81.925649 115.7804,86.183638 117.29881,90.75573 C 114.7794,86.603289 113.18133,83.784716 108.69984,83.460523 C 115.51789,88.321624 113.11824,93.136046 115.32743,97.973808 C 114.22405,97.386198 113.12066,96.798593 112.01727,96.210983 C 117.03884,101.71055 114.62447,112.53648 115.92807,120.69923 C 114.99112,119.86078 114.05417,119.02233 113.11723,118.18388 C 114.91461,123.06151 114.07233,127.34374 114.54988,131.92367 C 113.45664,130.88517 112.3634,129.84668 111.27017,128.80819 C 113.65206,133.71237 114.44687,138.28604 114.80799,143.07774 C 114.15549,142.50028 113.50299,141.92282 112.85049,141.34536 C 114.68616,145.91119 114.70741,153.10266 114.20821,159.00947 C 113.9361,158.59972 113.66398,158.18998 113.39187,157.78024 C 113.14397,166.27019 112.89608,174.76014 112.64818,183.2501 L 117.92035,183.89744 L 123.19251,184.54478 C 125.00588,176.24704 126.81926,167.94931 128.63264,159.65157 C 128.26948,159.98331 127.90632,160.31505 127.54316,160.64679 C 128.48778,154.79467 130.24818,147.82197 133.1339,143.83585 C 132.36108,144.2383 131.58825,144.64075 130.81543,145.0432 C 132.32505,140.4812 134.20272,136.23567 137.70029,132.0534 C 136.38829,132.79657 135.0763,133.53973 133.7643,134.2829 C 135.33565,129.95455 135.55435,125.59575 138.47835,121.29784 C 137.3664,121.88471 136.25444,122.47159 135.14249,123.05846 C 138.38211,115.45355 138.65849,104.36511 144.86136,100.24373 C 143.6486,100.54696 142.43582,100.85017 141.22306,101.15339 C 144.537,96.993787 143.37333,91.741845 151.16487,88.674576 C 146.73807,87.904968 144.50559,90.253208 141.05645,93.672803 C 143.63585,89.60386 144.72897,85.488065 148.79465,81.465974 C 145.29466,81.985698 143.21767,84.172178 140.30613,86.52746 C 147.55296,81.268301 147.61452,73.770514 153.97994,70.166436 C 148.95849,69.821157 147.21912,73.676751 143.8387,75.431912 C 146.77444,71.406721 151.3348,69.615594 152.6459,63.356339 C 155.40267,58.94747 158.31184,55.506789 163.427,52.87952 C 157.16544,53.060165 150.58994,62.425709 144.17141,67.1988 C 148.1347,62.169455 152.09798,57.140104 156.06126,52.110759 C 164.81393,48.212029 169.99376,36.957036 165.41208,28.979557 C 167.03362,32.343561 168.27068,35.52472 168.52553,40.077303 C 168.25681,44.475174 169.95254,46.130197 173.01496,46.596642 C 170.89569,44.708762 170.99408,41.329874 173.56333,37.711814 C 176.67796,31.493156 175.82378,27.771242 172.99804,23.535975 C 168.17103,18.697751 166.13444,16.978913 162.37356,13.957487 C 163.92387,14.066364 169.39073,18.622938 174.15144,24.08451 C 176.33245,26.206034 178.35869,26.273974 180.61463,24.471174 C 177.17947,24.094602 175.8849,22.760113 173.76471,18.39667 C 170.67486,12.535615 165.68902,7.9443392 161.20832,7.9819465 C 154.84663,3.0864518 145.33681,3.2072948 139.49337,6.2424829 z "
         style="fill:#d40000;stroke:#000000;stroke-width:1.42573118"
         id="path1528" />
      <path
         d="M 135.52675,3.8548456 C 136.12803,4.7139687 138.07518,6.0791187 137.99835,6.7497954 C 136.45109,6.5598149 134.90383,6.3698352 133.35656,6.1798548 C 137.62221,7.474858 138.22164,8.0742734 137.06192,9.5796728 C 133.91529,8.9170218 129.29115,3.7252762 124.39879,8.1426294 C 127.27481,7.5825957 136.72337,8.320435 136.57747,13.525196 C 121.07776,9.4845006 118.65723,15.42953 115.4391,15.877089 C 116.52203,15.681535 115.61343,16.434301 117.10824,16.155552 C 123.6338,12.097609 137.03429,12.163772 135.81613,16.847749 C 125.46345,16.061593 121.28158,18.41733 118.5256,21.439012 C 123.39832,19.019332 137.41285,14.391243 136.17926,20.583338 C 134.67204,21.026512 131.15475,20.135958 131.43096,20.903295 C 131.11101,21.302888 137.43504,20.13405 136.23771,23.96717 C 130.34322,21.046893 124.40823,23.310811 120.81484,28.491886 C 126.43608,24.145893 135.63022,21.255393 135.56392,27.536062 C 131.52997,28.044598 126.51258,30.851655 127.26539,35.208691 C 128.72837,30.868441 132.61837,29.035095 136.95562,28.413707 C 142.62009,30.337479 145.01168,33.787796 144.73572,37.261201 C 147.66857,37.170053 145.00801,29.519981 138.36324,27.761981 C 138.60094,26.77325 138.49081,26.470602 139.13562,25.32025 C 143.75461,24.118188 150.84208,28.171426 152.96256,32.617205 C 151.28908,26.944304 146.6939,23.105898 139.05128,24.077045 C 137.98643,20.754338 143.08093,23.236821 145.09575,22.816709 C 144.99442,21.967609 140.67485,21.562728 138.24795,21.163284 C 137.86114,20.813567 138.24913,19.848519 138.34473,19.27852 C 147.40215,19.476027 150.05918,20.114835 156.97519,26.045 C 153.53168,21.091025 148.29994,17.565393 137.72896,18.117547 C 143.78708,11.816705 155.11025,16.891284 159.84151,21.682406 C 156.14202,14.685746 145.9289,11.622674 137.98837,15.465346 C 138.90629,10.028653 151.90704,8.9856846 155.20971,12.396914 C 154.21829,8.3917138 146.83929,8.7212591 139.39912,10.691205 C 139.12506,9.3000996 144.41274,8.8723853 146.91956,7.962976 C 143.28065,6.8008882 142.07362,8.3917316 139.3431,8.1125419 C 139.3304,7.1476137 142.35549,5.7141933 143.78018,4.7504452 C 138.82085,7.086374 139.67185,7.1908626 135.52675,3.8548456 z "
         style="fill:#000000;stroke:#000000;stroke-width:0.07185233"
         id="path2427" />
      <path
         d="M 133.99258,52.750656 C 128.44519,52.796725 120.26733,51.297767 117.09297,49.415943 C 109.56901,46.096969 113.74691,29.019334 115.55339,28.377316 C 114.48402,34.528376 113.71797,40.127708 115.30133,45.779921 C 116.49332,47.903958 118.23397,48.437672 120.74735,49.393466 C 118.21263,46.372977 118.84769,40.561237 118.87609,35.85295 C 120.70293,35.684611 118.60087,49.286967 123.95386,50.140559 C 122.01704,48.646272 121.91636,37.953895 124.07975,34.724965 C 123.79747,36.064571 121.57328,51.301056 128.27601,50.435667 C 126.1661,47.153214 124.91536,45.507581 126.89552,42.491739 C 127.00079,46.431145 128.06087,49.309836 131.5802,49.42784 C 127.08829,44.439383 129.08064,40.36489 132.99888,34.995539 C 134.09421,36.307969 126.72865,46.068799 134.35664,49.697475 C 143.56709,48.058331 137.9273,36.778613 139.3076,35.770152 C 141.81049,41.927921 142.75795,46.363377 137.19265,50.116962 C 140.63599,50.853869 142.361,48.317143 143.41617,44.520222 C 144.60791,47.925524 142.99621,49.219692 140.15487,51.894208 C 146.44915,54.355431 147.97707,39.033454 148.02726,37.665352 C 149.34523,41.321739 146.66082,51.67215 144.42003,52.653491 C 149.82052,53.120261 151.0716,39.413417 152.80346,40.01871 C 151.69198,44.594012 150.90219,50.386752 147.71203,52.704315 C 150.38198,52.384954 152.20004,52.288195 153.87048,50.515621 C 156.7742,45.414352 157.38551,39.796021 157.83598,33.568969 C 159.43348,34.628943 159.35583,52.210025 151.25243,53.6102 C 147.71711,54.668178 139.25897,54.124492 133.99258,52.750656 z "
         style="fill:#000000;stroke:#000000;stroke-width:0.07185233;stroke-linecap:round"
         id="path2422" />
      <path
         d="M 133.74267,52.894801 C 133.50258,52.865321 132.94754,52.797171 132.39251,52.729021 C 132.77218,55.515818 132.34282,58.337401 131.54952,60.846047 C 129.9492,58.077769 128.39991,55.986383 126.06015,54.870944 C 125.5808,54.812088 124.43332,54.284141 124.53933,54.974502 C 127.93607,56.758237 132.02976,62.552659 130.60823,67.260802 C 129.89799,65.317577 128.52145,63.947848 126.55712,62.38714 C 126.14417,62.413264 125.18767,61.743684 125.75978,62.810015 C 128.45424,65.872739 131.61001,70.460769 129.78651,76.456021 C 125.76067,70.608906 125.67535,69.833317 122.85682,67.82007 C 126.21409,72.202398 131.15184,79.434965 128.39522,89.038547 C 126.74109,85.238008 124.02353,82.327214 121.67629,78.709821 C 121.71402,77.961074 125.19916,80.014946 124.74346,81.354044 C 124.10655,81.32706 122.77393,81.843618 122.13701,81.816633 C 125.44453,85.408228 129.36873,91.623922 127.56018,96.465102 C 126.30923,96.411596 126.18869,90.304001 122.05615,88.106551 C 123.26971,89.416393 124.05683,91.835048 125.05717,93.699294 C 124.23346,93.316453 123.40976,92.933618 122.58605,92.550776 C 125.71758,95.831865 128.145,98.542681 126.6574,103.19189 C 124.25034,101.93754 124.93627,95.982859 122.23828,97.885995 C 125.95469,104.4005 126.71,105.08426 125.19436,113.2303 C 124.35442,113.59861 123.54753,109.52362 119.99456,105.78958 C 117.60897,102.4346 116.66949,97.419456 115.3535,98.269889 C 117.42271,109.24909 126.10263,108.94449 124.56118,122.14136 C 122.88225,121.54006 122.75683,114.985 119.65469,114.54763 C 120.73107,116.07119 121.47379,117.55379 121.97319,119.44195 C 121.51863,119.18126 121.06406,118.92058 120.60949,118.65989 C 122.61747,124.97305 123.74904,128.17892 122.51929,135.64276 C 120.78642,133.27882 120.30613,128.98826 117.32068,128.55094 C 120.08016,133.63313 122.98763,138.29805 121.84625,143.62699 C 120.83442,142.27352 120.27997,140.34724 118.81075,139.56657 C 122.36649,145.28155 121.85333,153.39987 118.08055,155.36049 C 118.75863,155.46936 120.96526,154.55636 121.41019,154.6366 C 121.86131,154.66638 123.78151,156.08609 124.46578,156.1445 C 121.27939,153.3294 122.74548,145.32809 127.57818,140.64307 C 125.96374,141.04512 124.95975,142.78004 123.65054,143.84853 C 123.83225,138.40176 127.7819,134.57878 131.6889,130.31514 C 128.68634,130.01722 127.18234,134.06414 124.92906,135.93864 C 125.54149,128.39901 127.41503,125.56211 130.89065,119.92225 C 130.38652,120.06523 129.88239,120.2082 129.37826,120.35118 C 130.31962,118.63992 131.39895,117.38104 132.81193,116.16313 C 129.69613,115.83704 127.98863,122.16705 126.2141,122.34431 C 127.91105,109.16654 136.25945,111.56195 140.9233,101.40947 C 139.85215,100.26593 137.7273,104.90482 134.60092,107.58302 C 130.25015,110.3466 128.4814,114.10534 127.75551,113.54477 C 128.2556,105.27403 129.15389,104.79331 134.33591,99.371399 C 132.17847,96.87209 131.40345,102.81583 128.76444,103.4506 C 128.44577,98.579611 131.4569,96.536566 135.28917,94.110524 C 134.39731,94.282721 133.50547,94.454912 132.61361,94.627109 C 134.03523,93.060243 135.3841,90.903855 136.87849,89.926506 C 132.3371,91.058932 130.74258,96.955943 129.51584,96.705227 C 128.9322,91.570323 134.24354,86.488611 138.3217,83.803864 C 137.69717,83.675963 136.52911,82.852359 135.90458,82.724459 C 135.78638,81.314895 139.66487,80.165162 139.52034,80.900796 C 136.3677,83.842889 133.02667,86.00978 130.50225,89.297258 C 130.15083,79.312057 136.69162,73.488878 141.00935,70.048923 C 137.7875,71.320502 137.51708,72.052412 132.19628,76.751904 C 131.87733,70.493592 136.0493,66.805295 139.40466,64.485397 C 140.21775,63.589148 139.12768,64.007439 138.73331,63.882189 C 136.44976,64.921324 134.78274,65.917349 133.62349,67.63103 C 133.38319,62.71884 138.75708,58.08689 142.48444,57.177887 C 142.75432,56.533678 141.5132,56.768341 141.03385,56.709485 C 138.49375,57.225751 136.48452,58.880205 134.26203,61.179102 C 134.09919,58.553056 134.36519,55.711416 135.40777,53.09925 C 134.85274,53.0311 134.2977,52.96295 133.74267,52.894801 z "
         style="fill:#000000;stroke:#000000;stroke-width:0.14370465"
         id="path2529" />
      <path
         d="M 111.07985,45.397344 C 119.88468,48.797502 121.22613,55.002559 123.51827,58.735623"
         style="fill:#d40000;stroke:#000000;stroke-width:0.71852326"
         id="path2538" />
      <path
         d="M 157.78169,51.131613 C 148.41583,52.30069 145.61309,57.996904 142.48592,61.064559"
         style="fill:#d40000;stroke:#000000;stroke-width:0.71852326"
         id="path2540" />
    </g>
  </g>
  <g
     id="Avslitet-Griphuvud">
    <path
       d="m 173.24039,343.78713 c -0.33201,-2.68978 0.31936,-9.2529 1.44749,-14.58471 2.71996,-12.85515 2.79189,-21.95332 0.25445,-32.19046 -1.77862,-7.17586 -1.12497,-9.94819 -7.14911,-18.16444 -3.85793,-5.26181 -12.22824,-19.90899 -12.6841,-19.82861 -0.45586,0.0804 0.3181,12.44336 0.24076,14.45678 -0.0773,2.01343 0.84996,6.05036 -0.0101,8.97095 -0.96961,3.29247 -1.29378,8.66332 -0.85312,14.13495 2.29117,28.44991 3.68827,35.2506 8.87202,43.18613 3.25685,4.98574 8.80248,10.41027 9.76523,9.55197 0.39611,-0.35314 0.44854,-2.84279 0.11652,-5.53256 l -4e-5,0 z m -55.68862,6.81719 c -0.25141,-1.42585 5.64549,-9.90826 7.06174,-10.15799 0.58469,-0.10309 3.82924,-2.49748 7.21011,-5.32085 19.35795,-16.16587 24.18711,-20.50105 23.24397,-34.45139 -0.26337,-3.89547 -0.38761,-11.61043 -0.2761,-12.7069 0.126,-1.23906 -0.39046,-1.88898 -1.36464,-1.71721 -1.2233,0.2157 -3.8162,2.77743 -4.06669,-1.23845 -0.18481,-2.96297 -4.38905,-16.23662 -4.92462,-16.16104 -0.53558,0.0756 4.29181,12.53224 4.25914,15.52589 -0.025,2.29324 -3.41002,7.18229 -6.14741,11.29531 -2.42702,3.6467 -5.36532,9.68406 -6.52955,13.41638 -1.27575,4.08979 -5.53142,11.83317 -10.71093,19.48901 -7.99919,11.82362 -10.73784,17.80043 -10.0205,21.86868 0.16122,0.91431 0.78138,1.57629 1.37815,1.47106 0.59676,-0.10522 0.99606,-0.69585 0.88733,-1.3125 z m 100.76106,-37.65801 c -0.0855,-0.48512 -1.90738,-2.0518 -4.04853,-3.4815 -5.52126,-3.68669 -8.19501,-7.02583 -14.86548,-18.56492 -8.29039,-14.34137 -17.3515,-26.91818 -20.1131,-26.4467 -3.90641,0.66695 -12.20074,-1.58225 -18.87934,-7.58554 -3.96384,-3.56305 -11.91878,-13.82023 -12.05685,-13.62302 -0.89543,1.27878 11.4065,24.54274 15.75082,30.32048 2.8832,3.83452 6.74098,8.9923 8.57283,11.46175 3.40177,4.58576 12.65242,12.65538 16.9728,14.8059 1.32127,0.65768 5.90265,3.62568 10.18084,6.59557 9.01235,6.25628 19.06485,9.8007 18.48601,6.51798 z m -106.08287,6.62254 c 3.58758,-1.6251 8.93419,-4.93813 11.88135,-7.36231 5.72033,-4.70523 13.28582,-15.16133 12.89631,-17.19606 -1.78971,-9.34912 -15.5879,-12.84972 -19.53816,-12.09831 -1.28986,0.24535 -1.06588,2.50728 0.16871,4.57695 3.33993,5.59904 3.08976,15.25673 -0.54637,21.09342 -0.82098,1.31783 -3.87787,4.04465 -6.79308,6.05963 -4.37568,3.02441 -6.30164,3.71194 -11.039307,3.94073 -3.156394,0.15243 -7.25968,-0.19782 -9.118419,-0.77833 -6.514791,-2.03467 -4.628086,2.18826 2.073422,4.64084 5.357908,1.96086 11.185214,1.12338 20.015544,-2.87656 z m 101.8391,-33.33311 c -0.54917,-0.91422 -1.41123,-1.58944 -1.91568,-1.50049 -0.50444,0.0889 -4.36418,-4.26139 -8.57718,-9.66741 -4.68329,-6.00944 -8.55136,-11.88916 -9.95369,-12.08379 -1.2615,-0.17508 -5.00768,-1.19255 -8.32485,-2.55687 -8.92365,-3.67021 -14.37012,-7.82273 -14.19432,-6.87271 0.0892,0.48207 5.91023,9.2247 8.20234,10.25734 2.45023,1.10386 3.07262,1.31937 2.89187,2.24977 -0.16908,0.87035 3.60613,2.49593 5.43107,4.20403 1.82493,1.70811 4.98965,5.35752 7.03269,8.10979 3.85439,5.19244 10.64783,9.18244 16.63066,9.76773 3.88337,0.37992 4.0729,0.24973 2.77709,-1.90739 z m -69.42049,5.67908 c 3.23894,-5.59224 3.27272,-13.03946 0.54473,-20.34613 -2.7412,-7.342 -4.06637,-7.87243 -2.95871,-8.06774 1.27278,-0.22442 5.20687,13.40058 6.10871,18.51517 1.36474,7.73982 5.72745,3.78114 6.86457,-6.76251 1.32872,-12.32028 -3.13884,-27.53696 -12.95641,-38.50526 -3.51622,-3.92836 -19.69328,-13.40964 -21.51159,-13.08902 -0.63823,0.11253 -1.93847,1.57724 -2.81583,3.29341 -3.40423,6.65885 -12.26989,5.04825 -13.30422,-0.81771 -0.41312,-2.34292 0.21876,-2.88411 -4.60808,-1.43099 -5.752906,1.73191 -11.31265,0.66554 -21.033599,-4.03426 -4.512323,-2.18158 -6.482984,-2.47836 -10.941138,-1.64776 -4.636469,0.86383 -6.220476,1.83683 -10.752016,6.60456 -8.212901,8.64094 -8.990575,17.81809 -2.257673,26.64209 2.579657,3.38085 3.912947,3.27124 4.171336,-0.34289 0.211465,-2.95779 3.966288,-7.31434 7.752811,-8.99524 1.279132,-0.56783 6.196511,-1.23167 10.927509,-1.47518 8.872538,-0.45669 16.923607,1.54413 20.46689,5.08635 1.13909,1.13877 4.22004,1.82079 8.38034,1.85517 8.11226,0.067 15.33717,2.65213 21.43895,7.67092 5.88186,4.83791 8.38401,9.453 8.5461,15.7629 0.1427,5.55527 -0.17356,5.84378 -3.83241,3.49601 -1.43235,-0.91909 -4.65879,-1.90214 -7.16987,-2.18456 -5.0448,-0.56736 -37.947954,3.68263 -37.737798,4.87448 0.25563,1.44975 10.160519,3.19118 17.895598,3.14632 13.9794,-0.0811 28.40709,5.37994 31.29838,11.84676 1.48929,3.33099 4.94317,3.29106 7.48342,-1.09489 z m 73.6993,-29.52831 c -0.10522,-0.59676 -0.80886,-0.97613 -1.56366,-0.84304 -1.97164,0.34765 -10.31037,-2.47721 -13.80361,-4.67615 -1.63767,-1.03089 -7.35016,-5.68685 -12.69442,-10.34655 -11.38323,-9.92514 -21.61847,-15.53006 -29.50355,-16.15641 -3.08724,-0.24525 -8.11997,-1.27828 -8.22554,-1.11233 -0.10556,0.16594 5.78952,6.22013 10.14191,12.27045 6.61925,9.20154 9.02948,11.6582 14.7379,15.02182 3.75349,2.21167 7.10505,3.97177 7.44794,3.91131 0.3429,-0.0605 3.94567,0.84117 8.00619,2.00361 4.06052,1.16246 9.16459,2.22567 11.34237,2.36271 5.62497,0.35396 14.34113,-1.14999 14.11447,-2.43542 z m -16.58651,-15.06295 c 0.22055,-0.55373 -1.08296,-1.47769 -2.8967,-2.05327 -1.81374,-0.57558 -7.72351,-4.33767 -13.13284,-8.36023 -6.26502,-4.65887 -12.58214,-8.42856 -14.06264,-8.36197 -13.32202,0.59921 -1.11188,4.36258 5.16414,7.56134 3.10693,1.58355 7.86926,5.23214 10.87877,8.10797 3.00952,2.87584 7.0152,4.43413 8.01402,4.94203 1.8889,0.96049 5.33953,-0.0892 6.03525,-1.83587 z m -14.40284,-33.18131 c 2.66722,-2.61017 1.00084,-0.22808 -2.61968,2.32671 -5.92988,4.18439 -4.92956,4.25117 -13.22517,6.42739 -7.01672,1.84073 -14.38017,1.1907 -20.34309,-1.36917 -4.86813,-2.0899 -1.3718,-1.03774 5.024,0.87733 10.74708,3.21796 22.07812,-0.58613 31.16394,-8.26226 z m 6.11729,-2.08132 c 1.55396,-6.0107 1.59862,-8.249 -2.93853,-4.2929 -4.53716,3.9561 -13.42309,7.45779 -19.84979,7.82223 -4.86305,0.27578 -8.68691,-0.37508 -18.96006,-3.22713 -1.40023,-0.38874 -4.62309,-0.6072 -7.99364,-1.76871 -9.43242,-3.25045 -4.66342,-2.10761 -13.07045,-4.1226 -10.19869,-2.44441 -19.28689,-5.03615 -30.43342,-4.86321 -10.574794,0.16407 -14.18541,1.03319 -19.132807,4.60547 -4.801544,2.59656 -5.29253,5.08516 -7.301924,6.8805 -2.988835,2.61077 -1.774399,4.66869 7.301566,8.56812 7.115877,3.05732 12.315771,5.17993 16.624324,2.64001 3.074621,-1.81251 5.545721,-2.1666 5.842371,-2.82582 2.81843,-2.17312 6.54293,-5.80988 9.76925,-4.30762 0.9866,0.22597 2.22121,0.89866 3.73068,1.8571 1.50949,0.95844 2.97822,4.18798 5.03883,4.81012 7.88675,2.38117 18.92647,10.19393 33.31356,26.4257 5.31686,5.99855 14.29715,12.66934 17.82728,13.42458 4.60157,0.98447 5.03582,0.18803 1.74507,-3.20047 -1.80222,-1.85576 -5.86649,-9.32935 -10.51087,-15.72051 -4.64436,-6.39115 -9.44847,-12.50996 -11.26743,-14.18901 -3.97995,-3.67384 -4.72266,-2.35126 4.95957,-0.90492 3.7319,0.55748 9.38231,-0.88421 12.55648,-1.42878 9.0032,-1.54459 21.19597,-10.17144 22.74994,-16.18215 z m -59.19726,55.11108 c -1.98411,-2.52545 -9.24581,-5.44206 -16.22479,-6.51661 -7.26236,-1.11813 -21.521916,1.39339 -31.553957,5.55819 -24.818756,7.59385 -38.980007,4.52225 -55.970139,-16.4368 -0.928607,-1.78307 -1.154983,-1.80382 -1.731591,-0.1589 9.660176,31.67077 40.67223,28.41689 63.325831,19.99088 15.927196,-5.3304 27.380956,-5.66298 37.556706,-1.0905 4.94091,2.22021 6.93996,1.63513 4.59804,-1.34572 l -1e-4,-5.4e-4 z"
       style="fill:#d40000;stroke:#000000;stroke-width:2.5"
       id="path13108" />
    <path
       d="M 112.42721,224.22578 C 112.42721,225.54911 111.35444,226.62188 110.03111,226.62188 C 108.70778,226.62188 107.63501,225.54911 107.63501,224.22578 C 107.63501,222.90245 108.70778,221.82968 110.03111,221.82968 C 111.35444,221.82968 112.42721,222.90245 112.42721,224.22578 z "
       style="fill:#000000;stroke:#000000;stroke-width:2.5"
       id="path16682" />
  </g>
  <g
     style="fill:#ffcd50;stroke:#000000;stroke-width:1.22205532"
     id="Crest-crown">
    <path
       d="M 121.9367,151.91543 C 120.57657,153.74513 118.63038,154.77072 117.08095,155.91434 C 115.83131,156.85694 114.61619,159.50607 117.13544,161.13738 C 116.20602,161.1087 115.72963,161.31643 115.61881,162.4729 C 115.24669,161.52543 114.68295,161.15702 114.50244,159.63051 C 113.48535,158.21114 112.60578,158.61638 111.50122,157.90936 C 111.80939,159.2247 111.2719,160.55673 112.42572,161.85539 C 113.36116,162.19889 113.90398,162.79547 114.25413,163.4889 C 112.87352,163.56361 112.3959,164.08736 112.30111,165.16536 C 112.17706,164.49259 111.92053,163.52175 111.56075,162.93276 C 110.47851,161.95447 108.30239,162.0818 107.24553,163.19196 C 106.25426,164.68592 104.93082,166.58998 103.53627,167.69625 C 104.99907,169.2473 105.41372,170.7551 106.26576,172.23115 C 107.01324,173.48772 109.26661,173.81366 110.39882,173.31393 C 111.08813,172.29014 111.98985,170.9135 112.67916,169.88971 C 112.63081,171.04856 112.87355,171.27722 114.14799,171.3022 C 113.4316,172.1135 112.70256,172.79105 112.28922,173.09725 C 111.17779,173.58075 110.83597,174.68158 110.93439,176.32812 C 112.97633,176.25667 113.37826,175.55025 113.75608,174.30354 C 114.14438,173.33533 115.08975,171.21897 115.54206,171.81933 C 115.57117,172.96899 115.63922,172.88351 116.44271,172.77561 C 116.13151,175.66701 113.89773,178.76118 111.64238,180.4891 C 107.17044,183.16632 101.78002,182.31624 98.788179,176.99456 C 95.263164,170.69311 95.394578,170.68451 94.653398,170.77197 C 94.647881,170.20865 94.131701,173.04447 93.281123,177.87894 C 90.954823,184.71334 85.927273,185.73861 80.86158,185.33648 C 77.728305,185.20353 74.467125,182.63624 74.973011,180.67377 C 75.3862,179.46367 76.740526,180.38394 77.835929,181.46648 C 78.480863,181.85299 79.88326,182.23308 80.905265,182.0839 C 80.906495,180.78029 80.136016,179.39168 78.776412,179.03036 C 77.618309,178.72259 76.061648,179.23452 76.073298,178.12989 C 76.344351,174.3741 80.291645,177.75647 82.050425,177.52674 C 85.726243,176.66954 84.141142,172.89003 86.826001,171.41321 C 84.764917,172.72537 81.518285,167.31119 78.993597,170.55579 C 77.433437,172.93312 77.691766,172.57423 76.338956,173.76538 C 74.798528,174.67069 73.183658,172.50783 74.794896,171.54664 C 76.758904,171.87641 78.13519,169.84772 78.500305,167.72183 C 77.035528,167.57476 75.291671,167.96251 74.506843,170.38868 C 72.6704,171.61765 71.901785,169.43324 73.315831,168.7431 C 75.403193,168.44773 75.378755,164.54476 72.801913,163.70295 C 69.959391,162.19171 68.947633,164.88887 63.909228,160.40484 C 69.245722,167.10639 69.033649,172.96643 70.489921,179.96573 C 73.347403,184.53752 76.427353,186.718 74.883402,192.95457 L 116.25206,197.94066 L 157.59813,203.11068 C 157.6088,196.68584 161.12477,195.31523 165.00339,191.57054 C 167.97221,185.18162 169.58576,179.21739 176.12082,174.1827 C 170.14729,177.31464 169.81809,174.45283 166.6944,175.23151 C 163.99045,175.42492 163.02252,179.20604 164.97643,179.99762 C 166.18151,181.00935 164.90727,182.94292 163.42269,181.30619 C 163.24812,178.76222 161.64987,177.9641 160.19302,177.75245 C 160.03299,179.90352 160.87761,182.2049 162.86306,182.36007 C 164.1939,183.6825 162.10376,185.39043 160.8281,184.13936 C 159.80364,182.65631 159.96747,183.06703 159.02879,180.38288 C 157.36403,176.62389 152.90403,181.09181 151.22161,179.32 C 153.46944,181.40249 151.01708,184.68626 154.37633,186.40726 C 156.02729,187.05565 160.6756,184.72869 160.02999,188.43849 C 159.77407,189.51312 158.38749,188.63981 157.18933,188.65827 C 155.7827,188.67993 154.69917,189.8409 154.385,191.10609 C 155.34055,191.49808 156.79324,191.46855 157.51253,191.24955 C 158.83728,190.46416 160.37401,189.89888 160.48218,191.17299 C 160.49827,193.19955 156.71288,194.90163 153.64051,194.27262 C 148.62801,193.4373 143.99783,191.22622 143.39403,184.03204 C 142.90356,179.04327 144.77228,177.01259 143.78185,176.8042 C 143.75496,176.30143 141.76761,177.50137 138.2645,181.84165 C 134.0741,186.28146 128.63815,185.80223 124.94672,182.12267 C 123.17639,179.90046 121.75751,176.3578 122.15505,173.477 C 122.90856,173.77607 122.95391,173.87548 123.26029,172.76701 C 123.84441,172.29391 124.2497,174.57611 124.39223,175.6095 C 124.45723,176.91057 124.67631,177.69325 126.64032,178.25656 C 127.13415,176.68274 127.06879,175.53192 126.10735,174.7939 C 125.78037,174.3968 125.2369,173.56302 124.73806,172.6025 C 125.98068,172.88658 126.27153,172.72343 126.50497,171.58731 C 126.92612,172.74744 127.46802,174.30134 127.88918,175.46148 C 128.86686,176.22027 131.13215,176.44915 132.16142,175.41074 C 133.34524,174.18466 134.11234,172.82196 135.90692,171.67087 C 134.82142,170.26009 133.99794,168.09242 133.39753,166.40303 C 132.64063,165.07016 130.55996,164.42016 129.2732,165.10758 C 128.78162,165.59204 128.29784,166.47198 128.01472,167.09475 C 128.18354,166.02584 127.8468,165.4021 126.52528,164.99561 C 127.03278,164.40748 127.70381,163.95995 128.69456,163.85295 C 130.12828,162.872 129.92901,161.44951 130.54623,160.2478 C 129.30344,160.6666 128.54803,160.06061 127.21778,161.19176 C 126.67333,162.62926 126.03721,162.85035 125.44693,163.67964 C 125.61917,162.53071 125.20719,162.21391 124.29844,162.01689 C 127.58233,161.17494 126.59937,158.17909 125.61489,156.96218 C 124.38814,155.47769 123.202,154.06749 121.9367,151.91543 z "
       id="path2216" />
    <path
       d="M 75.75293,195.99279 L 75.813266,196.87268 C 76.660562,199.71794 76.778738,200.702 76.255617,203.32352 L 76.320037,204.26297 C 98.89971,196.81015 131.02536,200.65293 152.87292,213.51862 L 153.27772,212.37731 C 153.50364,210.27341 153.36436,209.16525 155.42189,206.33203 L 155.95353,204.83312 C 139.15824,183.82814 93.211305,179.96095 75.75293,195.99279 z "
       id="path2187" />
    <path
       d="M 76.950898,195.52252 C 74.448113,196.90907 73.491208,195.16248 74.810923,193.23191 C 93.884114,175.88085 142.50346,182.51443 157.08932,202.2467 C 158.37834,203.60813 156.59884,206.34766 154.85043,204.69114 C 141.39148,186.32514 97.232623,179.36336 76.950898,195.52252 z "
       id="path2183" />
    <path
       d="M 77.530873,206.99626 C 98.91167,200.35071 132.42426,203.32027 151.31945,216.0771 C 152.92981,216.98301 154.24005,215.29433 153.20917,213.83153 C 135.9674,195.96859 95.629647,196.31352 76.397033,204.40017 C 75.037826,205.39222 75.711,207.57756 77.530873,206.99626 z "
       id="path1308" />
  </g>
</svg>
