<?xml version="1.0" encoding="UTF-8" standalone="no"?>
<!-- Created with Inkscape (http://www.inkscape.org/) -->

<svg
   xmlns:svg="http://www.w3.org/2000/svg"
   xmlns="http://www.w3.org/2000/svg"
   xmlns:xlink="http://www.w3.org/1999/xlink"
   version="1.0"
   width="251"
   height="304.20001"
   id="svg4166">
  <defs
     id="defs4168" />
  <path
     d="m 1.4495603,1.4395041 124.0504997,0 124.05055,0 0,173.4965959 c 0.76724,93.72088 -80.28944,127.81975 -124.05053,127.81975 -42.993854,0 -124.81774912,-34.09887 -124.0505197,-127.81975 l 0,-173.4965959 z"
     id="Shield"
     style="fill:#eeeeee" />
  <path
     d="M 11.125,227.15625 C 33.935252,281.68326 91.706554,302.75 125.5,302.75 c 34.39719,0 91.83469,-21.06431 114.46875,-75.59375 l -228.84375,0 z"
     id="mark"
     style="fill:#225500" />
  <g
     transform="translate(0.19648702,-0.21747695)"
     id="Building"
     style="fill:#d40000;stroke:#eeeeee;stroke-width:2.15645075">
    <g
       id="R-side-tower">
      <path
         d="m 158.80351,144.77998 0,18.5625 -4.65625,0 0,72.1875 81.84375,0 c 8.44239,-16.55032 13.57028,-36.52034 13.375,-60.375 l 0,-11.84375 -5.40625,0 0,-18.53125 -18.40625,0 0,18.53125 -48.34375,0.0312 0,-18.5625 -18.40625,0 z"
         id="use3180"
         style="fill:#d40000;stroke:none" />
      <g
         transform="matrix(0.9274025,0,0,0.9274972,0.07801152,-0.1031711)"
         id="Side-tower">
        <path
           d="m 237.07576,125.24652 -40.07576,0 0.0758,109.88923 -2,20 44,0 -2,-20 0,-109.88923 z"
           id="path4464" />
        <path
           d="m 217.07862,150.14401 c -2.20912,0 -4.00985,1.76662 -4.00985,3.97576 l 0,22.00141 8.01971,0 0,-22.00141 c 0,-2.20914 -1.80072,-3.97576 -4.00986,-3.97576 z"
           id="side-tower-window"
           style="fill:#eeeeee;stroke:none" />
        <path
           d="m 242.0758,126.13577 -50,0 8.00001,-14 16.99999,-41.999994 17,41.999994 8,14 z"
           id="path4470" />
        <path
           d="m 211.0758,69.135752 c 0,3.313709 2.6863,6 6,6 3.3137,0 6,-2.686291 6,-6 0,-3.313709 -2.6863,-6 -6,-6 -3.3137,0 -6,2.686291 -6,6 z"
           id="path4472"
           style="stroke:none" />
      </g>
      <path
         d="m 149.09943,218.08732 94.33638,0"
         id="path4297"
         style="fill:none;stroke:#eeeeee;stroke-width:1.99999988" />
    </g>
    <use
       transform="matrix(-1,0,0,1,250.60691,0)"
       id="L-side-tower"
       x="0"
       y="0"
       width="251"
       height="304.20001"
       xlink:href="#R-side-tower" />
    <g
       transform="matrix(0.9274025,0,0,0.9274972,0.07801152,-0.1031711)"
       id="Center-tower">
      <path
         d="m 105,140.24652 60,0 0,115 -60,0 0,-115 z"
         id="rect3192" />
      <rect
         width="37.842392"
         height="55.933701"
         x="116.07486"
         y="73.008163"
         id="rect4243" />
      <path
         d="m 110,73.246521 50,0 -8,-14 -17,-41.999999 -17,41.999999 -8,14 z"
         id="path4245" />
      <path
         d="m 90,141.24652 90,0 0,-35 -22,0 0,17 -12,0 0,-17 -22,0 0,17 -12,0 0,-17 c -7.33333,0 -14.666667,0 -22,0 l 0,35 z"
         id="path4205" />
      <path
         d="m 134.99452,205.23178 c -5.52284,0 -10.00779,4.48392 -10.00779,10.00677 l 0,39.01629 20.01558,0 0,-39.01629 c 0,-5.52285 -4.48495,-10.00677 -10.00779,-10.00677 z"
         id="Door"
         style="fill:#eeeeee;stroke:none" />
      <path
         d="m 120,254.24652 0,-39 c 0,-6 4,-15 15,-15 11,0 15,9 15,15 l 0,39"
         id="path4241"
         style="fill:none" />
      <path
         d="m 141,16.246521 c 0,3.313709 -2.6863,6 -6,6 -3.3137,0 -6,-2.686291 -6,-6 0,-3.313709 2.6863,-6 6,-6 3.3137,0 6,2.686291 6,6 z"
         id="path4275"
         style="stroke:none" />
      <path
         d="m 134.99452,80.231402 c -2.20914,0 -4.00986,1.800308 -4.00986,4.009446 l 0,17.014872 8.01972,0 0,-17.014872 c 0,-2.209138 -1.80073,-4.009446 -4.00986,-4.009446 z"
         id="Center-window"
         style="fill:#eeeeee;stroke:none" />
      <path
         d="m 92,141.24652 c 0,4.92562 6.842969,13 13,13 l 0,-13 -13,0 z"
         id="path4370" />
      <path
         d="m 178,141.24652 c 0,4.92562 -6.84297,13 -13,13 l 0,-13 13,0 z"
         id="path4372" />
      <path
         d="m 134.99452,159.24108 c -1.65684,0 -2.99897,2.45434 -2.99897,5.49193 0,1.0979 0.16942,2.14014 0.47175,2.99866 -0.85852,-0.30233 -1.86738,-0.4717 -2.96527,-0.4717 -3.03757,0 -5.49249,1.34182 -5.49249,2.99866 0,1.65683 2.45492,2.99866 5.49249,2.99866 1.09826,0 2.10658,-0.20288 2.96527,-0.50539 -0.30817,0.86401 -0.47175,1.88927 -0.47175,2.99866 0,3.03756 1.34213,5.49193 2.99897,5.49193 1.65684,0 2.99897,-2.45437 2.99897,-5.49193 0,-1.10939 -0.16358,-2.13465 -0.47175,-2.99866 0.85869,0.30251 1.86701,0.50539 2.96527,0.50539 3.03757,0 5.52619,-1.34183 5.52619,-2.99866 0,-1.65684 -2.48862,-2.99866 -5.52619,-2.99866 -1.09789,0 -2.10675,0.16937 -2.96527,0.4717 0.30233,-0.85852 0.47175,-1.90076 0.47175,-2.99866 0,-3.03759 -1.34213,-5.49193 -2.99897,-5.49193 z"
         id="Center-window-cross"
         style="fill:#eeeeee;stroke:none" />
    </g>
    <path
       d="m 15.548575,236.56226 219.510095,0"
       id="Bottom-line"
       style="fill:none;stroke:#eeeeee;stroke-width:2.15645075" />
  </g>
  <path
     d="m 1.4495187,1.4395021 124.0505013,0 124.05054,0 0,173.4965979 c 0.76724,93.72088 -80.28944,127.81975 -124.05052,127.81975 -42.99385,0 -124.81775034,-34.09887 -124.0505213,-127.81975 l 0,-173.4965979 z"
     id="Frame"
     style="fill:none;stroke:#000000;stroke-width:1.88832211;stroke-linejoin:bevel" />
</svg>
