<?xml version="1.0" encoding="UTF-8" standalone="no"?>
<!-- Created with Inkscape (http://www.inkscape.org/) -->
<svg
   xmlns:svg="http://www.w3.org/2000/svg"
   xmlns="http://www.w3.org/2000/svg"
   xmlns:xlink="http://www.w3.org/1999/xlink"
   version="1.0"
   width="251"
   height="304.20001"
   id="svg4166">
  <defs
     id="defs4168">
    <clipPath
       id="clipPath3484">
      <path
         d="M -367.62203,465.27543 L -243.57153,465.27543 L -119.52098,465.27543 L -119.52098,638.77203 C -118.75374,732.49291 -199.81042,766.59178 -243.57151,766.59178 C -286.56536,766.59178 -368.38926,732.49291 -367.62203,638.77203 L -367.62203,465.27543 z "
         style="opacity:0.63500007;color:#000000;fill:#003d8f;fill-opacity:1;fill-rule:nonzero;stroke:none;stroke-width:1.88832211;stroke-linecap:round;stroke-linejoin:bevel;marker:none;marker-start:none;marker-mid:none;marker-end:none;stroke-miterlimit:4;stroke-dashoffset:0;stroke-opacity:1;visibility:visible;display:block"
         id="path3486" />
    </clipPath>
    <clipPath
       id="clipPath3480">
      <path
         d="M -372.54808,459.71959 L -248.49758,459.71959 L -124.44703,459.71959 L -124.44703,633.21619 C -123.67979,726.93707 -204.73647,761.03594 -248.49756,761.03594 C -291.49141,761.03594 -373.31531,726.93707 -372.54808,633.21619 L -372.54808,459.71959 z "
         style="opacity:0.63500007;color:#000000;fill:#003d8f;fill-opacity:1;fill-rule:nonzero;stroke:none;stroke-width:1.88832211;stroke-linecap:round;stroke-linejoin:bevel;marker:none;marker-start:none;marker-mid:none;marker-end:none;stroke-miterlimit:4;stroke-dashoffset:0;stroke-opacity:1;visibility:visible;display:block"
         id="path3482" />
    </clipPath>
  </defs>
  <path
     d="M 249.55058,1.4395041 L 125.50008,1.4395041 L 1.4495291,1.4395041 L 1.4495291,174.9361 C 0.68228908,268.65698 81.738969,302.75585 125.50006,302.75585 C 168.49391,302.75585 250.31781,268.65698 249.55058,174.9361 L 249.55058,1.4395041 z "
     style="color:#000000;fill:#003d8f;fill-opacity:1;fill-rule:nonzero;stroke:none;stroke-width:1.88832211;stroke-linecap:round;stroke-linejoin:bevel;marker:none;marker-start:none;marker-mid:none;marker-end:none;stroke-miterlimit:4;stroke-dashoffset:0;stroke-opacity:1;visibility:visible;display:block"
     id="Shield" />
  <path
     d="M 249.55062,1.4395041 L 125.50012,1.4395041 L 1.449569,1.4395041 L 1.449569,174.9361 C 0.68232904,268.65698 81.739009,302.75585 125.5001,302.75585 C 168.49395,302.75585 250.31785,268.65698 249.55062,174.9361 L 249.55062,1.4395041 z "
     style="color:#000000;fill:none;fill-opacity:0;fill-rule:nonzero;stroke:#000000;stroke-width:1.88832211;stroke-linecap:round;stroke-linejoin:bevel;marker:none;marker-start:none;marker-mid:none;marker-end:none;stroke-miterlimit:4;stroke-dashoffset:0;stroke-opacity:1;visibility:visible;display:block"
     id="Frame" />
  <g
     transform="translate(-1172.323,-766.01846)"
     id="g2207">
    <path
       d="M 1390.3483,785.33376 L 1392.3792,815.53601 L 1390.3483,815.53601 C 1387.6403,806.49506 1383.7749,799.98728 1378.7522,796.01265 C 1373.7293,792.03818 1367.702,790.0509 1360.6701,790.05082 C 1354.7738,790.0509 1349.4453,791.54682 1344.6846,794.53857 C 1339.9238,797.53048 1336.1786,802.30213 1333.4488,808.85352 C 1330.719,815.40504 1329.3541,823.55069 1329.3541,833.29048 C 1329.3541,841.32698 1330.6426,848.29336 1333.2195,854.18965 C 1335.7964,860.08599 1339.6727,864.60649 1344.8484,867.75119 C 1350.024,870.89589 1355.9312,872.46824 1362.5701,872.46824 C 1368.3353,872.46824 1373.4236,871.23439 1377.835,868.76666 C 1382.2462,866.29895 1387.0943,861.39628 1392.3792,854.05863 L 1394.4102,855.36892 C 1389.9551,863.27437 1384.7576,869.06149 1378.8177,872.7303 C 1372.8776,876.39912 1365.8239,878.23353 1357.6565,878.23353 C 1342.9375,878.23353 1331.5379,872.77398 1323.4578,861.85487 C 1317.4305,853.73107 1314.4168,844.16595 1314.4168,833.15945 C 1314.4168,824.29319 1316.4041,816.14754 1320.3786,808.72249 C 1324.3532,801.29757 1329.8237,795.54321 1336.7901,791.45938 C 1343.7564,787.37572 1351.367,785.33385 1359.6219,785.33376 C 1366.0423,785.33385 1372.3754,786.9062 1378.6212,790.05082 C 1380.4555,791.01178 1381.7658,791.49222 1382.552,791.49214 C 1383.7312,791.49222 1384.7576,791.0773 1385.6312,790.24736 C 1386.7667,789.06818 1387.5748,787.43032 1388.0553,785.33376 L 1390.3483,785.33376 z "
       transform="scale(0.9545797,1.0475815)"
       style="font-size:134.17399597px;font-style:normal;font-weight:normal;fill:#ffcd50;fill-opacity:1;stroke:none;stroke-width:1px;stroke-linecap:butt;stroke-linejoin:miter;stroke-opacity:1;font-family:Times New Roman"
       id="text2248" />
    <g
       transform="matrix(0.2357124,0,0,0.3318544,1440.098,806.50472)"
       style="fill:#ffcd50;stroke:#003d8f;stroke-width:0.5;stroke-opacity:1"
       id="lion">
      <path
         d="M -94.5896,36.7689 C -96.3896,34.9689 -98.5896,33.5689 -101.0896,32.3689 C -101.2886,32.2689 -101.4886,32.1689 -101.6896,32.1689 C -103.7896,31.1689 -106.0896,30.4689 -108.5896,29.9689 C -113.3896,29.4689 -117.8896,30.6689 -122.0896,33.4689 C -126.0896,37.4689 -127.1896,41.0689 -125.3896,44.2689 L -124.8896,44.0689 C -123.1896,39.4689 -118.7886,36.7689 -111.6896,36.1689 C -108.5896,36.2689 -106.0896,36.7689 -103.9896,37.7689 C -102.3896,38.5689 -101.1896,39.5689 -100.1896,40.9689 C -99.9896,41.2689 -99.7896,41.6689 -99.5896,41.9689 C -99.2886,42.5689 -99.0896,43.2689 -98.8896,43.8689 C -97.7886,51.8689 -99.6896,58.0689 -104.5896,62.3689 C -110.6896,67.9689 -118.2886,69.6689 -127.2886,67.5689 C -136.1886,65.3689 -143.3896,66.3689 -148.6886,70.4689 C -148.6886,70.4689 -148.7886,70.4689 -148.7886,70.5689 C -152.8896,74.4689 -155.8896,79.1689 -157.8896,84.5689 C -155.8896,79.1689 -152.8896,74.4689 -148.7886,70.5689 L -148.6886,70.4689 C -150.5886,61.4689 -155.2886,54.7689 -162.7886,50.1689 C -167.9886,48.3689 -173.7886,47.7689 -180.0896,48.4689 L -180.1896,48.4689 C -189.1896,49.8689 -194.5896,54.2689 -196.3896,61.6689 C -197.5896,67.1689 -196.0896,71.6689 -191.7886,75.4689 C -189.0896,77.1689 -186.0896,77.3689 -182.6886,75.8689 C -188.6886,73.8689 -190.5886,70.3689 -188.4886,65.3689 C -186.9886,63.3689 -184.0896,62.2689 -179.8886,62.0689 C -175.8886,62.2689 -172.7876,64.0689 -170.3886,67.3689 C -167.7876,73.3689 -166.9886,78.5689 -168.0886,83.1689 C -168.5886,84.9689 -169.3886,86.6689 -170.3886,88.2689 C -182.1886,104.6689 -189.1886,122.8689 -191.4886,142.7689 C -192.6886,158.4689 -192.9886,169.8689 -192.2886,177.0689 C -192.0896,179.5689 -191.7886,182.2689 -191.4886,185.0689 C -190.7886,190.3689 -189.8886,196.0689 -188.6886,202.3689 C -186.8886,212.0689 -182.1886,226.0689 -174.6886,244.1689 C -170.9886,253.7689 -166.1886,260.9689 -160.0886,265.7689 C -158.2876,267.0689 -156.5886,268.2689 -155.0886,269.6689 C -150.0886,274.0689 -147.2876,278.6689 -146.5886,283.3689 C -148.7876,278.2689 -152.6886,275.1689 -158.4876,274.0689 C -159.3876,273.7689 -160.3876,273.5689 -161.2876,273.4689 C -166.0886,272.8689 -170.7876,273.3689 -175.4876,274.8689 C -178.4876,275.1689 -181.3876,275.0689 -183.8876,274.5689 C -189.1876,273.5689 -193.4876,270.7689 -196.8876,266.5689 C -200.1876,261.0689 -198.7866,255.1689 -192.5876,249.1689 C -199.2866,250.2689 -203.8876,253.8689 -206.2866,259.8689 C -207.8876,265.4689 -207.6866,270.3689 -205.6866,274.6689 C -200.8866,281.5689 -194.8866,284.8689 -187.7866,284.4689 C -187.2866,284.4689 -186.7866,284.3689 -186.2866,284.3689 C -186.7866,284.6689 -187.2866,285.0689 -187.7866,285.3689 C -192.4866,288.4689 -198.1866,290.7689 -204.8876,292.2689 C -200.2866,295.3689 -194.5876,295.5689 -187.6876,292.6689 C -197.4876,299.8689 -200.7876,308.1689 -197.6876,317.3689 C -193.1876,327.2689 -185.8876,331.8689 -175.6876,331.1689 L -175.5876,331.1689 C -175.4866,331.1689 -175.2866,331.1689 -175.0876,331.1689 C -174.1876,331.0689 -173.1876,330.8689 -172.1876,330.7689 C -164.2876,327.5689 -160.7876,323.5689 -161.8876,318.5689 L -161.8876,318.5689 C -164.9876,323.0689 -169.3876,324.9689 -175.2866,324.3689 C -182.1866,322.1689 -185.5876,317.4689 -185.4866,310.0689 C -184.5876,305.5689 -182.6866,302.1689 -179.8866,299.7689 C -176.3866,296.7689 -171.5866,295.2689 -165.2856,295.1689 C -149.9856,296.5689 -140.4856,301.9689 -136.6856,311.0689 C -133.3856,320.7689 -132.8856,329.7689 -135.1856,338.0689 C -139.3856,349.4689 -148.1856,358.0689 -161.2856,363.7689 C -169.5866,366.5699 -177.2856,367.8699 -184.5866,367.6689 C -191.8866,367.4689 -198.6866,365.8689 -205.0866,362.6689 C -213.0866,357.3689 -220.9856,352.3689 -228.5866,347.8689 C -228.6866,347.7679 -228.7856,347.6689 -228.9856,347.5689 C -238.7856,340.8689 -246.9856,331.4679 -253.3856,319.4679 C -257.0856,312.5679 -259.5856,305.6679 -260.6856,298.5679 C -260.7856,298.4679 -260.7856,298.3679 -260.7856,298.2679 C -261.5866,289.6679 -263.2856,281.0679 -265.8866,272.5679 L -265.3866,272.1679 C -261.3866,275.7679 -257.3866,277.5679 -253.2856,277.4679 C -259.9856,271.4679 -264.5866,264.5679 -267.1856,256.6679 C -267.1856,256.0679 -267.2856,255.3679 -267.2856,254.7679 L -268.0896,254.7679 C -271.5896,256.6679 -275.6896,257.4679 -280.5896,257.2679 C -285.8896,256.6679 -290.3896,254.8679 -294.0896,251.8679 C -297.7886,248.7679 -300.6896,244.3679 -302.5896,238.5679 C -304.9886,240.2679 -307.4886,241.5679 -309.9886,242.4679 C -310.0886,242.5679 -310.1886,242.7679 -310.2886,243.0679 C -315.2886,251.3679 -322.1886,257.5679 -330.9886,261.5679 C -333.1886,262.4679 -335.4886,263.2679 -337.7886,264.0679 C -336.1886,262.2679 -334.8886,260.5679 -333.8886,258.7679 C -331.4886,254.5679 -330.7886,250.2679 -331.6886,246.0679 C -335.3886,246.8679 -338.5886,248.3679 -341.1886,250.5679 C -342.2886,251.4679 -343.2886,252.5679 -344.1886,253.6679 C -349.5886,259.3679 -349.6886,265.4679 -344.4886,271.9679 C -348.3886,272.4679 -351.2886,271.4679 -353.2886,268.8679 C -353.9886,268.0679 -354.4886,267.0679 -354.9886,265.8679 C -355.0886,265.5679 -355.1886,265.3679 -355.2886,265.1679 C -356.9886,259.5679 -355.3886,253.8679 -350.2886,248.1679 C -349.3886,247.1679 -348.3886,246.1679 -347.2886,245.2679 C -356.1886,248.5679 -361.1886,253.8679 -362.1886,261.4679 C -361.4886,265.2679 -359.9886,268.6679 -357.6886,271.8679 C -357.5886,272.0679 -357.4886,272.1679 -357.2886,272.3679 C -356.4886,273.5679 -355.4886,274.6679 -354.2886,275.7679 C -354.2886,275.8679 -354.1886,275.9679 -354.0886,276.0679 C -361.3886,274.3679 -367.2886,270.2679 -371.5886,263.6679 C -373.8886,259.4679 -374.1886,254.0679 -372.2886,247.5679 C -372.2886,247.4679 -372.2886,247.3679 -372.1886,247.2679 C -371.6886,245.3679 -370.9886,243.3679 -370.0886,241.2679 L -380.5886,248.5679 C -384.9886,251.0679 -390.2886,252.1679 -396.3886,252.0679 L -396.4886,252.0679 C -399.8886,252.5679 -402.9886,253.2679 -405.7886,254.3679 C -411.0886,256.4679 -415.6886,259.6679 -419.3886,264.0679 C -422.3886,261.8679 -423.0886,258.7679 -421.4886,254.6679 C -420.5886,253.3679 -419.7886,252.1679 -418.8886,251.0679 L -423.8886,252.3679 L -458.5886,286.5679 C -460.1886,288.0679 -460.4886,289.5679 -459.4886,290.8679 C -465.2886,291.0679 -469.6886,292.7679 -472.8886,295.9679 C -474.1886,297.5679 -475.5886,298.9679 -477.1886,300.3679 C -480.9886,303.9679 -485.5886,307.2679 -490.9886,310.2679 C -493.5886,311.5679 -496.1886,312.0679 -498.9886,312.0679 C -500.7886,312.0679 -502.5886,311.6679 -504.3886,311.0679 L -504.8886,311.0679 L -512.2886,309.5679 C -516.4886,309.2679 -518.8886,310.1679 -519.6886,312.2679 C -519.7886,312.8679 -519.7886,313.3679 -519.6886,313.8679 C -519.3886,315.0679 -518.3886,315.7679 -516.7886,316.0679 C -512.1886,316.6679 -509.6886,317.9679 -509.2886,319.8679 C -508.0886,323.1679 -508.7886,325.5679 -511.4886,326.8679 C -510.2886,331.9679 -506.7886,335.3679 -500.9886,336.9679 C -500.6886,332.3679 -498.5886,329.5679 -494.4886,328.2679 L -489.0886,334.5679 L -482.6886,328.4679 C -480.3886,325.5679 -479.5886,322.1679 -480.1886,318.2679 C -479.5886,322.1679 -480.3886,325.5679 -482.6886,328.4679 L -489.0886,334.5679 C -491.7886,338.3679 -493.4886,342.1679 -494.1886,345.9679 L -491.4886,351.3679 C -490.2886,348.1679 -487.4886,346.7669 -483.1886,347.3679 C -478.9886,348.7669 -476.5886,351.3679 -476.1886,355.1679 C -473.3886,357.2679 -468.8886,357.7679 -462.8886,356.5679 C -465.6886,353.8679 -467.5886,350.7669 -468.3886,347.3679 C -468.3886,347.3679 -468.3886,347.3679 -468.4886,347.2669 C -468.7886,345.6669 -468.9886,343.9669 -468.9886,342.2669 C -468.9886,343.9669 -468.7886,345.6669 -468.4886,347.2669 L -467.0886,347.0679 C -462.9886,344.0679 -458.4886,343.2669 -453.7886,344.6679 C -448.0886,338.8679 -444.8886,333.0679 -443.9886,327.3679 C -443.9886,327.3679 -443.8886,327.3679 -443.7886,327.2679 C -441.0886,335.6679 -434.4886,337.6679 -423.8886,333.2679 C -431.9886,333.9679 -433.4886,331.1679 -428.3886,324.9679 C -428.1886,325.0679 -427.9886,325.0679 -427.8886,325.0679 C -422.9886,323.0679 -420.3886,320.2679 -420.1886,316.7679 C -420.1886,316.3679 -420.1886,315.9679 -420.2886,315.5679 C -420.0886,315.8679 -419.9886,316.1679 -419.7886,316.5679 C -419.7886,316.5679 -419.7886,316.5679 -419.7886,316.6679 C -417.6886,321.1679 -415.8886,322.8679 -414.2886,321.9679 C -413.2886,314.0679 -410.9886,308.5679 -407.4886,305.0679 C -407.8886,314.5679 -405.2886,319.6679 -399.7886,320.5679 C -398.9886,315.0679 -397.9886,310.3679 -396.4886,306.5679 C -396.4886,306.2679 -396.3886,306.1679 -396.2886,306.0679 C -394.3886,300.8679 -391.8886,297.1679 -388.6886,294.8679 C -388.3886,299.1679 -389.5886,303.5679 -392.3886,307.9679 C -387.0886,305.8679 -382.6886,302.5679 -379.1886,298.0679 C -376.6886,293.8679 -375.4886,289.1679 -375.7886,284.1679 C -370.0886,294.6679 -370.2886,304.5679 -376.3886,313.5679 L -359.7886,300.4679 C -358.0886,299.0679 -356.2886,297.7679 -354.4886,296.6679 C -347.2886,292.1679 -339.3886,289.6679 -330.8886,289.3679 C -339.3886,289.6679 -347.2886,292.1679 -354.4886,296.6679 C -356.2886,297.7679 -358.0886,299.0679 -359.7886,300.4679 C -358.5886,308.2679 -359.6886,314.0679 -363.1886,317.9679 C -357.0886,318.5679 -352.5886,314.8679 -349.6886,306.7679 C -349.3886,306.0679 -349.1886,305.4679 -348.9886,304.7679 C -350.5886,312.0679 -348.9886,317.1679 -344.0886,320.2679 C -334.1886,324.8679 -323.7886,327.9679 -313.0886,329.7679 C -311.5886,330.0679 -310.1886,330.4679 -308.6886,331.0679 C -307.6886,331.4679 -306.5886,331.8679 -305.5886,332.4679 C -304.3886,333.0679 -303.2876,333.6679 -302.1886,334.4679 C -297.2886,337.6679 -293.0886,342.2679 -289.4886,348.1679 C -288.1886,344.8679 -288.3886,340.7679 -289.8886,336.1679 C -292.0886,332.7679 -294.5886,329.9679 -297.1886,327.6679 C -298.8886,326.2679 -300.5886,325.0679 -302.4886,324.0679 C -300.5896,325.0679 -298.8886,326.2679 -297.1886,327.6679 C -294.5886,329.9679 -292.0886,332.7679 -289.8886,336.1679 C -288.3886,340.7679 -288.1886,344.8679 -289.4886,348.1679 C -289.6886,348.2679 -289.6886,348.2679 -289.6886,348.4679 C -291.7886,352.3679 -293.0886,356.5689 -293.3886,361.1679 C -293.5886,361.8679 -293.5886,362.6679 -293.5886,363.4679 C -293.6886,366.2679 -293.4876,369.1679 -292.8886,372.2679 C -291.0886,376.4679 -290.3886,380.3689 -290.7876,383.8689 C -291.1876,387.1689 -292.5886,390.1689 -294.8886,392.9689 C -295.0886,393.1689 -295.2876,393.4689 -295.5886,393.7689 C -303.3886,400.5699 -309.2886,407.2689 -313.1886,413.9689 C -317.2886,421.6689 -319.7886,429.3689 -320.6886,436.9689 C -321.2886,444.8689 -321.5886,451.4689 -321.5886,456.7689 C -321.5886,459.6689 -322.5886,462.0699 -324.6886,464.1689 C -326.7886,466.1689 -329.9886,467.6689 -334.2886,468.7689 C -338.1886,469.7689 -341.6886,469.7689 -344.6886,468.7689 C -348.0886,467.4689 -350.4886,465.3699 -351.7886,462.5699 C -352.2886,461.5699 -352.5886,460.5699 -352.8886,459.3699 C -353.8886,453.9699 -351.7886,448.7689 -346.6886,443.5699 C -352.1886,444.6699 -356.6886,447.1699 -360.1886,451.2689 C -362.5886,456.3699 -363.2886,461.1689 -361.9886,465.3699 C -361.8886,465.8699 -361.6886,466.2689 -361.4886,466.7689 C -359.3886,472.1689 -356.1886,476.0699 -352.1886,478.3699 C -344.3886,481.2689 -336.4886,481.6699 -328.3886,479.4699 C -328.2886,479.3699 -328.0886,479.3699 -327.9886,479.3699 C -323.8886,477.1699 -320.4886,474.7689 -317.6886,471.9699 C -317.4886,471.7699 -317.2886,471.5709 -317.0886,471.3699 C -316.8886,471.1699 -316.7886,470.9699 -316.5886,470.8699 C -315.2886,469.2689 -314.0886,467.6699 -313.0886,465.9699 C -311.9886,463.9699 -311.0886,461.7699 -310.3886,459.4699 C -311.0886,461.7699 -311.9886,463.9699 -313.0886,465.9699 C -315.3886,472.6699 -316.8886,478.8699 -317.4886,484.4699 C -317.4886,484.5709 -317.4886,484.5709 -317.4886,484.6699 C -313.9886,480.4699 -310.4886,477.6699 -307.0896,476.1699 C -305.1896,485.4699 -304.8896,492.6699 -306.2886,497.9699 C -308.1886,504.5709 -310.5886,509.3699 -313.2886,512.1699 C -312.0886,512.3699 -310.8886,512.2699 -309.6886,511.8699 C -309.5886,511.8699 -309.5886,511.8699 -309.5886,511.8699 C -305.8886,510.7689 -302.1886,507.5699 -298.3886,502.2689 C -294.8886,497.6689 -293.1886,492.1689 -293.3886,485.6689 C -293.5886,482.0689 -293.9886,479.0689 -294.7876,476.5689 C -295.0886,475.7679 -295.3886,475.0689 -295.6876,474.4679 C -296.1876,473.4679 -296.7876,472.5689 -297.3876,471.8679 C -296.7866,472.5679 -296.1876,473.4679 -295.6876,474.4679 C -295.1876,475.0689 -294.6876,475.7679 -294.1876,476.3679 C -289.7876,481.7669 -284.6876,484.4679 -278.8876,484.3679 L -267.5876,481.4679 C -271.0876,481.5689 -274.0876,481.1679 -276.8876,480.2679 C -280.6876,479.0689 -283.8876,476.9679 -286.5876,473.9679 C -283.8876,476.9679 -280.6876,479.0689 -276.8876,480.2679 C -274.0876,481.1679 -271.0876,481.5689 -267.5876,481.4679 C -263.8876,479.4679 -261.5876,476.5689 -260.4866,472.6679 C -261.5876,476.5679 -263.8866,479.4679 -267.5876,481.4679 C -269.8876,482.6679 -272.7866,483.5689 -276.0876,483.9679 C -276.2866,483.9679 -276.3876,483.9679 -276.3876,484.0689 C -276.8876,484.0689 -277.3876,484.1689 -277.8876,484.1689 C -272.0876,495.6689 -260.5876,502.4689 -243.2866,504.7689 C -241.4866,504.9689 -239.5876,505.1689 -237.5876,505.2689 C -239.5876,505.1689 -241.4866,504.9689 -243.2866,504.7689 C -252.1866,516.9689 -258.0876,529.2689 -260.7866,541.5699 C -262.7866,548.7689 -264.2866,556.2689 -265.2866,563.8699 C -265.9866,564.7689 -266.7866,565.5699 -267.7866,566.2689 C -268.3876,566.5699 -269.0876,566.9689 -269.7866,567.2689 C -271.6866,568.0699 -274.0876,568.6689 -276.8876,568.8699 C -279.9876,568.6699 -282.6876,567.2689 -285.2866,564.7689 C -288.4866,564.2689 -292.0876,564.2689 -295.8876,564.7689 C -297.8876,565.5699 -298.5876,566.9689 -297.9876,568.8699 L -297.8876,568.8699 C -295.5876,569.5699 -293.8876,571.2689 -292.8876,574.0699 C -292.3876,576.8699 -292.5876,579.5699 -293.5876,582.0699 C -293.6876,582.2689 -293.7866,582.4689 -293.8876,582.7689 L -293.8876,582.7689 C -295.1876,586.7689 -295.0876,590.3699 -293.5876,593.5699 C -285.7866,592.0699 -281.5876,587.9689 -280.7866,581.2689 C -279.9866,585.0699 -278.2866,587.1689 -275.7866,587.5699 C -275.5876,587.5699 -275.5876,587.5699 -275.3876,587.5699 L -275.2866,587.5699 C -273.0876,582.8699 -269.5876,579.0699 -264.9866,576.1699 C -264.2866,575.7699 -263.5876,575.2699 -262.8866,574.9699 C -262.1866,574.5709 -261.3866,574.2699 -260.6866,573.8699 C -261.3866,574.2689 -262.1866,574.5699 -262.8866,574.9699 C -263.5866,575.2699 -264.2856,575.7699 -264.9866,576.1699 C -269.5876,579.0699 -273.0876,582.8699 -275.2866,587.5699 L -275.3896,587.5699 L -275.2886,587.8699 L -275.8896,588.0699 C -278.2886,590.1699 -278.8896,592.2689 -277.6896,594.3699 L -277.5896,594.5699 C -276.2886,593.9689 -275.0896,593.4689 -273.7886,593.1699 C -271.3896,592.4699 -269.0896,592.1699 -266.6886,592.2699 C -263.8886,594.0709 -261.7886,596.0709 -260.1886,598.2699 C -260.0886,598.2699 -260.0886,598.3709 -260.0886,598.4699 C -259.0886,599.7699 -258.3886,601.2699 -257.7876,602.7699 L -257.2876,603.1699 C -250.6876,601.9699 -248.2876,599.2699 -250.2876,595.2699 C -250.3886,595.0709 -250.4876,594.9699 -250.5886,594.7699 C -250.7876,594.3709 -251.0886,593.9699 -251.2876,593.5709 L -255.0896,589.7689 L -251.2886,593.5699 C -251.0896,593.9689 -250.7886,594.3699 -250.5896,594.7689 L -243.0896,589.9689 C -240.6896,587.6689 -239.0896,585.0699 -238.0896,582.2689 C -237.8896,578.0699 -239.8896,575.2689 -244.0896,573.6689 C -239.8896,575.2689 -237.8896,578.0689 -238.0896,582.2689 C -239.0896,585.0699 -240.6896,587.6689 -243.0896,589.9689 L -242.5896,590.5699 C -242.4886,590.8699 -242.2886,591.1699 -242.1896,591.5699 C -241.1896,593.4689 -239.5896,594.8699 -237.0896,595.6699 C -232.7886,594.0699 -229.8896,592.1699 -228.4886,590.1699 C -229.0896,587.0699 -228.0896,584.3699 -225.6886,582.0699 C -223.2886,580.4689 -220.7886,579.5699 -218.1886,579.4689 C -216.5886,579.5699 -214.8886,580.4689 -213.3886,582.2689 C -213.2876,582.2689 -213.2876,582.2689 -213.1886,582.1689 C -211.1886,581.7689 -210.2886,580.8689 -210.5886,579.4689 C -210.2876,576.9689 -210.5886,574.4689 -211.3886,571.9689 C -211.5886,571.7689 -211.5886,571.5699 -211.6886,571.3689 C -212.0886,570.0689 -212.6886,568.8689 -213.4886,567.6689 C -213.6886,567.2689 -213.8886,566.9689 -214.1886,566.6689 C -214.2886,566.4689 -214.4886,566.3689 -214.5886,566.0689 C -214.5886,566.0689 -214.5886,566.0689 -214.5886,565.9679 C -218.3886,562.7679 -222.5886,560.3679 -227.2876,559.0689 C -222.5886,560.3689 -218.3886,562.7679 -214.5886,565.9679 C -214.5886,566.0689 -214.5886,566.0689 -214.5886,566.0689 C -214.5886,566.0689 -214.5886,566.0689 -214.4876,566.1689 C -214.3876,566.2689 -214.2876,566.4689 -214.1876,566.6689 C -213.9876,566.7689 -213.7876,566.8689 -213.5876,566.9689 C -212.6876,567.5699 -211.7866,568.0699 -210.8876,568.4689 C -210.5876,568.6689 -210.0876,568.8689 -209.6876,568.9689 C -206.5876,570.2689 -200.9876,569.7689 -192.9876,567.6689 C -199.8876,565.7689 -203.8876,562.9689 -205.0886,559.5689 C -206.7876,555.7679 -207.4876,551.8689 -207.0886,547.5689 C -207.0886,547.0689 -207.0886,546.5689 -207.0886,545.8689 C -207.1886,545.0689 -207.2876,544.2679 -207.5886,543.2679 C -208.5886,541.8689 -210.8886,540.3689 -214.6886,538.8689 C -210.8886,540.3689 -208.5886,541.8689 -207.5886,543.2679 C -206.6886,543.8689 -205.8886,544.5689 -205.0886,545.4679 C -202.1886,548.6679 -199.6886,553.2679 -197.6886,559.4679 C -193.5886,553.2679 -192.2886,546.8679 -193.6886,540.2679 C -193.7886,540.2679 -193.8886,540.1679 -193.9886,540.0689 C -194.0896,539.3689 -194.1886,538.7679 -194.3886,538.0689 C -195.0886,535.5689 -196.1886,533.3689 -197.9886,531.4679 C -199.7886,529.4679 -202.2886,527.7679 -205.2886,526.3679 C -202.2886,527.7669 -199.7886,529.4679 -197.9886,531.4679 C -196.1886,533.3679 -195.0896,535.5689 -194.3886,538.0689 C -194.1886,538.7679 -194.0886,539.3689 -193.9886,540.0689 C -193.8886,540.1689 -193.7886,540.2679 -193.6886,540.2679 C -189.1886,542.3689 -184.6886,542.9679 -180.1886,541.7679 C -174.9886,539.6679 -171.3886,537.2679 -169.3886,534.3689 C -172.4886,534.7679 -175.2876,534.9689 -177.7876,534.7679 C -177.8886,534.7679 -177.8886,534.7679 -177.9876,534.7679 C -182.1876,534.3689 -185.7876,533.0689 -188.7876,530.9679 C -189.0886,530.7679 -189.2876,530.5689 -189.4876,530.3679 C -189.4876,530.3679 -189.5886,530.2669 -189.5886,530.1679 L -189.6886,530.1679 C -190.6886,529.2679 -191.5886,528.3679 -192.2886,527.3679 C -194.5896,524.4679 -195.6886,521.1679 -195.5896,517.3679 L -195.2886,516.7669 C -188.3896,518.4669 -182.4886,523.3679 -177.4886,531.4669 C -174.4886,524.8669 -179.3886,515.8669 -192.0896,504.2669 C -186.7886,505.2669 -182.9886,507.0679 -180.4886,509.8679 C -178.3886,507.7669 -177.9886,505.2669 -179.3886,502.6679 C -181.6886,496.7679 -185.7876,492.5679 -191.7876,490.2679 C -185.6876,492.4679 -179.7876,494.1679 -173.9876,495.3689 C -172.2876,495.6689 -170.5886,495.9689 -168.9876,496.2679 C -159.4876,496.2679 -153.6876,493.2679 -151.7876,487.2679 C -154.2876,488.1679 -156.6876,488.7679 -158.8886,489.2679 C -159.0886,489.2679 -159.1886,489.2679 -159.2876,489.2679 C -159.3886,489.3689 -159.4876,489.3689 -159.4876,489.3689 C -164.6876,490.2679 -168.7876,489.9689 -172.0886,488.4689 C -172.2876,488.2689 -172.4876,488.1689 -172.6886,488.0699 C -178.4886,485.2689 -182.2886,481.1699 -184.1886,475.6699 C -180.3886,472.8699 -176.1886,472.2699 -171.5886,473.7699 C -165.9876,476.2699 -162.1886,479.7699 -160.0886,483.9699 C -157.4876,477.3699 -159.5886,471.4699 -166.3886,466.3699 C -166.8886,466.1699 -167.3886,465.9699 -167.7876,465.6699 C -175.4876,462.0699 -183.6876,461.6699 -192.4876,464.6699 C -183.4876,460.8699 -176.6876,455.9699 -171.9876,450.1699 C -170.3876,446.5699 -170.7876,443.4699 -173.0886,440.9699 C -178.1886,447.0709 -185.6886,451.0709 -195.5886,452.7699 C -201.6886,452.8709 -206.8886,451.7699 -211.0886,449.2699 C -202.7876,447.1699 -198.3886,442.3709 -197.8886,434.9699 C -198.1886,435.2699 -198.4886,435.5709 -198.6886,435.8699 C -198.9886,436.1699 -199.2886,436.3699 -199.5886,436.6699 C -203.3886,440.1699 -207.9876,441.8699 -213.2876,441.8699 C -213.3886,441.8699 -213.4876,441.8699 -213.5886,441.8699 C -213.8886,441.8699 -214.1886,441.8699 -214.4876,441.8699 C -215.6876,441.7689 -217.0886,441.6699 -218.2876,441.3699 C -224.8886,437.8699 -228.5886,432.9699 -229.3886,426.8699 C -225.4886,431.6699 -220.2876,434.1699 -213.8886,434.4699 C -210.0886,433.9699 -207.4886,432.6699 -205.9886,430.6699 C -205.6886,430.2699 -205.3886,429.7699 -205.1886,429.3699 C -207.6886,429.5699 -210.0886,429.3699 -212.2886,428.6699 C -220.7886,425.9699 -228.0896,416.3699 -233.7886,399.8699 C -233.7886,399.7689 -233.8896,399.6699 -233.8896,399.5699 C -233.8896,399.5699 -233.8896,399.5699 -233.8896,399.6699 C -233.7886,399.6699 -233.6896,399.7699 -233.6896,399.8699 C -228.7896,407.8699 -222.8896,411.2689 -215.7896,409.9699 C -219.1896,406.2699 -221.8906,401.5709 -223.9896,395.8699 C -226.0906,390.0699 -227.3896,383.3699 -228.1896,375.6699 C -228.3896,373.3699 -228.5896,370.8699 -228.5896,368.3699 L -228.5896,363.3699 C -227.7886,364.1699 -226.9886,365.0699 -226.0896,365.8699 C -225.0896,366.9699 -223.8896,367.9699 -222.7886,368.9699 C -212.5896,377.2689 -199.8896,381.1689 -184.5896,380.5689 C -184.4886,380.5689 -184.2886,380.5689 -184.1896,380.5689 C -183.9896,380.5689 -183.7896,380.5689 -183.5896,380.5689 C -183.3896,380.5689 -183.2886,380.5689 -183.0896,380.5689 C -182.9886,380.5689 -182.7886,380.5689 -182.5896,380.5689 C -164.3896,380.8689 -148.2886,374.9679 -134.3896,362.6689 C -118.4896,348.8689 -110.4896,328.0689 -110.2886,300.5689 C -109.6886,295.6689 -107.9886,293.0689 -104.8896,292.3689 C -102.4896,291.8689 -99.1896,292.7689 -95.0896,295.1689 C -93.4886,288.5689 -96.9886,284.8689 -105.6896,283.8689 L -105.7896,283.8689 C -105.9896,283.8689 -106.0906,283.8689 -106.2896,283.8689 C -111.6896,284.8689 -115.6896,287.4689 -118.1896,291.5689 C -118.5896,292.2689 -118.9896,293.0689 -119.2896,293.7689 C -118.9896,293.0689 -118.5906,292.2689 -118.1896,291.5689 C -115.6896,287.4689 -111.6896,284.8689 -106.2896,283.8689 C -106.0906,283.7689 -105.9896,283.7689 -105.7896,283.7689 L -105.7896,283.7689 C -92.6896,269.3689 -87.7896,259.2689 -90.7896,253.6689 C -92.7896,249.0689 -95.9896,246.0689 -100.4896,244.4689 C -94.2896,251.3689 -96.7896,257.4689 -107.8896,262.6689 C -117.9896,266.0689 -124.1896,274.1689 -126.4896,286.8689 C -129.2896,276.3689 -133.1896,268.3689 -138.3896,262.9689 C -144.6896,256.6689 -151.0896,247.1689 -157.3896,234.3689 C -160.7886,225.7689 -162.4896,217.8689 -162.3896,210.7689 C -162.2886,208.8689 -162.1896,207.2689 -161.8896,205.7689 C -161.8896,205.6689 -161.8896,205.5689 -161.8896,205.5689 C -160.9896,201.0689 -158.8896,197.7689 -155.6896,195.7689 C -151.4896,192.9689 -146.4896,192.8689 -140.7896,195.5689 C -138.5906,197.9689 -138.7896,200.2689 -141.2896,202.2689 C -135.4896,201.6689 -133.2896,199.2689 -134.5906,195.0689 C -135.2896,193.9689 -136.0906,192.9689 -136.9896,192.0689 C -141.6896,187.1689 -148.6896,185.7689 -158.0906,187.5689 C -158.2896,187.6689 -158.4896,187.7689 -158.6906,187.7689 C -158.9906,187.8689 -159.2906,187.9689 -159.5906,188.1689 C -165.4896,190.6689 -168.9896,195.6689 -170.2896,203.2689 L -170.2896,203.3689 C -174.4896,187.1689 -175.9896,169.8689 -174.6896,151.2689 C -173.8896,141.1689 -169.6896,131.1689 -162.0896,121.1689 C -152.4886,111.8689 -144.3896,107.2689 -137.8896,107.5689 C -131.3896,107.7689 -125.1896,109.8689 -119.1896,113.7689 C -113.2896,117.7689 -110.6896,124.7689 -111.4896,134.7689 C -112.2896,141.1689 -116.2896,146.1689 -123.2896,149.7689 C -123.5906,149.8689 -123.8906,150.0689 -124.1896,150.2689 C -125.2896,150.7689 -126.6896,151.3689 -128.3896,151.8689 C -129.0896,152.0689 -129.7886,152.2689 -130.5896,152.4689 C -133.6896,153.3689 -136.7886,152.2689 -139.9886,149.2689 C -141.9886,146.7689 -142.4886,142.9689 -141.4886,137.9689 C -147.7886,144.9689 -148.0896,151.3689 -142.5896,157.3689 C -138.1896,162.2689 -132.4886,163.1689 -125.5896,160.2689 C -124.0896,159.6689 -122.3896,158.7689 -120.6896,157.6689 C -122.3896,158.7689 -124.0896,159.6689 -125.5896,160.2689 C -133.2896,170.5689 -129.7896,176.5689 -115.1896,178.1689 C -113.6896,178.2689 -112.0896,178.4689 -110.2896,178.4689 C -121.2896,177.0689 -124.0906,173.4689 -118.4896,167.6689 C -117.6896,166.7689 -116.5906,165.7689 -115.3896,164.7689 C -114.4896,164.0689 -113.4896,163.2689 -112.3896,162.5689 C -95.1896,151.0689 -88.7886,136.1689 -93.0896,117.8689 C -96.9886,106.5689 -104.4886,97.8689 -115.3896,91.8689 C -117.2886,90.8689 -119.1896,89.8689 -121.1896,89.0689 C -125.0896,88.9689 -128.8896,89.1689 -132.3896,89.5689 C -135.6896,90.3689 -138.1896,91.3689 -140.0896,92.6689 C -138.1896,91.3689 -135.6896,90.3689 -132.3896,89.5689 C -128.8896,89.1689 -125.0896,88.9689 -121.1896,89.0689 C -118.8896,89.0689 -116.4896,89.2689 -113.9896,89.4689 C -108.2896,89.6689 -103.3896,87.7689 -99.3896,83.7689 C -92.6896,76.4689 -88.5896,68.2689 -87.2886,59.1689 C -86.9886,53.0689 -88.3896,46.9689 -91.4886,40.6689 C -91.4886,40.5689 -91.5896,40.4689 -91.5896,40.3689 C -91.9886,39.8689 -92.3896,39.2689 -92.7886,38.7689 C -92.9886,38.5689 -93.0896,38.3689 -93.1886,38.2689 C -93.6896,37.6689 -94.0896,37.1689 -94.5896,36.7689 z "
         style="fill:#ffcd50;stroke:#003d8f"
         id="path3413" />
      <path
         d="M -242.3896,80.8689 C -243.3896,76.4689 -246.1896,72.4689 -250.9896,68.7689 C -243.6896,67.8689 -239.6896,65.4689 -239.1896,61.3689 C -242.6896,63.1689 -246.2896,63.6689 -249.8896,62.9689 C -252.9896,57.1689 -257.7886,52.7689 -264.2886,49.7689 C -268.0896,48.5689 -272.0896,48.2689 -276.2886,48.9689 C -276.9886,49.0689 -277.6886,49.2689 -278.5896,49.3689 C -277.6896,49.2689 -276.9886,49.0689 -276.2886,48.9689 C -270.4886,47.4689 -268.0896,43.2689 -269.0896,36.1689 C -269.8896,28.4689 -275.0896,22.9689 -284.2886,19.6689 C -287.8896,18.6689 -290.7886,19.0689 -292.8896,20.7689 C -288.2886,21.2689 -285.3896,22.3689 -284.1896,23.9689 C -283.7896,24.4689 -283.4896,24.9689 -283.1896,25.5689 C -281.7896,28.3689 -281.7896,31.0689 -283.0896,33.3689 C -285.5896,36.2689 -289.8896,38.5689 -296.1896,40.5689 C -302.7896,43.4689 -312.8896,45.4689 -326.4896,46.5689 C -326.8896,46.5689 -327.1896,46.6689 -327.5896,46.6689 L -327.6896,46.6689 C -348.9896,49.5689 -364.9896,53.4689 -375.4896,58.3689 C -378.0896,59.5689 -380.3896,60.8689 -382.3896,62.2689 C -382.0896,65.9689 -380.5896,68.1689 -377.7896,68.7689 L -377.6896,68.9689 L -372.7896,66.0689 L -372.7896,63.7689 L -372.7896,66.0689 L -377.6896,68.9689 L -377.7896,69.0689 C -378.2896,72.3689 -378.2896,75.3689 -377.8896,77.9689 C -373.5896,86.3689 -367.2896,92.2689 -358.6896,95.7689 C -358.6896,95.7689 -358.5896,95.7689 -358.5896,95.8689 C -358.4896,95.8689 -358.3896,95.8689 -358.3896,95.9689 C -354.4896,95.8689 -350.8896,95.8689 -347.5896,96.0689 C -343.0896,96.3689 -338.9896,96.7689 -335.4896,97.5689 C -335.3896,97.5689 -335.3896,97.5689 -335.3896,97.5689 C -331.7896,98.2689 -328.7896,99.2689 -326.0896,100.4689 C -321.2896,102.6689 -317.3896,105.1689 -314.2896,107.8689 C -312.8896,109.2689 -311.5896,110.6689 -310.4896,112.1689 C -307.0906,117.4689 -307.0906,121.8689 -310.4896,125.2689 C -310.5896,125.3689 -310.7896,125.5689 -310.8896,125.6689 C -312.7896,127.2689 -316.0896,128.1689 -320.6896,128.3689 C -329.3896,128.2689 -336.4896,127.1689 -341.7896,125.1689 C -342.4896,124.9689 -343.2896,124.6689 -343.9896,124.4689 C -347.7896,123.3689 -352.1896,122.9689 -357.1896,123.1689 C -358.7896,123.1689 -360.4896,123.3689 -362.1896,123.5689 C -364.6896,126.1689 -364.5896,128.8689 -361.9896,131.5689 C -364.9896,136.9689 -370.5896,138.3689 -378.6896,135.8689 C -375.6896,141.0689 -371.9896,143.4689 -367.3896,143.1689 C -363.2896,142.7689 -358.9896,141.1689 -354.7896,138.2689 C -354.4896,138.0689 -354.2896,137.8689 -353.9896,137.6689 C -354.2896,137.9689 -354.4896,138.1689 -354.5896,138.3689 C -358.7896,142.7689 -361.4896,146.6689 -362.6896,149.9689 C -362.7896,150.0689 -362.7896,150.1689 -362.7896,150.1689 C -362.7896,150.2689 -362.7896,150.2689 -362.7896,150.3689 C -363.3896,152.1689 -363.5896,153.7689 -363.2896,155.2689 C -362.7896,153.6689 -361.9896,152.1689 -360.8896,150.7689 C -357.3896,146.7689 -350.9896,144.1689 -341.5896,143.1689 C -342.0896,146.8689 -345.0896,150.7689 -350.6896,154.6689 C -339.7896,153.1689 -332.3896,149.4689 -328.4896,143.5689 C -327.5896,149.2689 -324.3896,152.3689 -318.9896,152.7689 C -320.6896,148.3689 -320.1896,144.7689 -317.3896,142.0689 C -313.4896,149.5689 -306.6896,154.0689 -297.0896,155.6689 C -302.0896,151.6689 -304.3896,146.3689 -303.8896,139.8689 C -299.6896,143.8689 -296.1896,145.7689 -293.1896,145.4689 C -293.7896,139.8689 -292.0896,134.8689 -287.9896,130.3689 C -286.6896,135.4689 -280.9896,138.3689 -270.7896,139.0689 C -278.2896,132.5689 -281.6896,125.8689 -281.0906,118.9689 C -280.5906,112.0689 -279.5906,106.7689 -277.9896,102.8689 C -273.8896,103.3689 -271.0906,106.7689 -269.5906,113.0689 C -268.3906,101.9689 -272.8906,94.5689 -282.7896,90.8689 C -279.8906,91.5689 -277.0906,91.9689 -274.2896,92.0689 C -272.5906,92.0689 -270.8906,91.9689 -269.1896,91.7689 C -263.3896,90.9689 -260.3896,86.0689 -260.2896,77.0689 C -260.1896,75.2689 -260.3906,73.6689 -260.6896,72.2689 C -260.6896,72.1689 -260.6896,72.1689 -260.6896,72.1689 C -261.6896,68.0689 -264.0896,65.2689 -267.8896,63.9689 C -268.0896,63.8689 -268.2886,63.7689 -268.4896,63.7689 C -268.5906,63.6689 -268.6896,63.6689 -268.7896,63.6689 L -268.8896,63.6689 C -269.5896,63.3689 -270.3896,63.1689 -271.1896,63.0689 C -271.9896,62.8689 -272.7896,62.8689 -273.5896,62.7689 C -278.3896,62.8689 -281.5896,64.2689 -283.2886,66.9689 C -281.5896,64.2689 -278.3896,62.8689 -273.5896,62.7689 C -272.7886,62.8689 -271.9886,62.8689 -271.1896,63.0689 C -270.3896,63.1689 -269.5896,63.3689 -268.8896,63.6689 L -268.7886,63.6689 C -268.6886,63.6689 -268.5896,63.6689 -268.4886,63.7689 C -268.2886,63.7689 -268.0896,63.8689 -267.8886,63.9689 C -264.0886,65.2689 -261.6886,68.0689 -260.6886,72.1689 C -260.6886,72.1689 -260.6886,72.1689 -260.6886,72.2689 C -260.3886,73.6689 -260.1886,75.2689 -260.2886,77.0689 C -260.3896,86.0689 -263.3896,90.9689 -269.1886,91.7689 C -270.8886,91.9689 -272.5886,92.0689 -274.2886,92.0689 C -277.0896,91.9689 -279.8896,91.5689 -282.7886,90.8689 C -272.8896,94.5689 -268.3896,101.9689 -269.5896,113.0689 C -271.0896,106.7689 -273.8896,103.3689 -277.9886,102.8689 C -279.5896,106.7689 -280.5896,112.0689 -281.0896,118.9689 C -281.6896,125.8689 -278.2886,132.5689 -270.7886,139.0689 C -280.9886,138.3689 -286.6886,135.4689 -287.9886,130.3689 C -292.0896,134.8689 -293.7886,139.8689 -293.1886,145.4689 C -296.1886,145.7689 -299.6886,143.8689 -303.8886,139.8689 C -304.3886,146.3689 -302.0886,151.6689 -297.0886,155.6689 C -306.6886,154.0689 -313.4876,149.5689 -317.3886,142.0689 C -320.1886,144.7689 -320.6886,148.3689 -318.9886,152.7689 C -324.3886,152.3689 -327.5886,149.2689 -328.4886,143.5689 C -332.3886,149.4689 -339.7886,153.1689 -350.6886,154.6689 C -345.0886,150.7689 -342.0886,146.8689 -341.5886,143.1689 C -350.9886,144.1689 -357.3886,146.7689 -360.8886,150.7689 C -357.5886,152.5689 -355.7886,154.4689 -355.4886,156.3689 C -355.2886,158.6689 -356.3886,160.0689 -358.6886,160.5689 C -360.5886,159.8689 -362.4886,159.3689 -364.3886,158.9689 C -371.2886,157.3689 -378.1886,157.0689 -385.0886,158.2689 C -385.1886,158.2689 -385.3886,158.2689 -385.4886,158.2689 C -386.0886,158.3689 -386.5886,158.4689 -387.0886,158.5689 C -393.5886,155.8689 -397.0886,151.1689 -397.2886,144.5689 C -403.1886,147.1689 -405.6886,151.0689 -405.0886,156.1689 C -401.3886,164.3689 -394.2886,168.5689 -383.9886,168.8689 C -383.6886,168.8689 -383.3886,168.8689 -383.1886,168.8689 C -383.3886,168.8689 -383.6886,168.8689 -383.9886,168.9689 C -397.9886,171.2689 -406.6886,177.3689 -410.0886,187.2689 C -413.9886,193.7689 -419.6886,193.1689 -427.0886,185.2689 C -426.5886,186.3689 -425.9886,187.4689 -425.4886,188.5689 C -423.5886,191.9689 -421.3886,195.1689 -419.0886,197.9689 C -418.9886,198.0689 -418.9886,198.0689 -418.9886,198.1689 C -415.8886,201.7689 -412.3886,204.7689 -408.3886,207.2689 C -408.4886,202.2689 -406.8886,198.2689 -403.4886,195.3689 C -402.8886,194.6689 -402.0886,194.1689 -401.1886,193.5689 C -402.0886,194.1689 -402.8886,194.6689 -403.4886,195.3689 C -406.8886,198.2689 -408.4886,202.2689 -408.3886,207.2689 C -408.8886,212.6689 -411.1886,216.7689 -415.4886,219.4689 C -419.8886,222.1689 -423.5886,221.9689 -426.7886,218.9689 C -427.1886,218.6689 -427.4886,218.2689 -427.7886,217.8689 C -428.7886,216.4689 -428.9886,214.8689 -428.2886,213.2689 L -432.0886,211.8689 C -432.9886,212.9689 -433.6886,214.2689 -434.1886,215.9689 C -434.5886,218.4689 -434.6886,220.7689 -434.1886,222.7689 C -433.5886,225.7689 -431.9886,228.0689 -429.3886,229.6689 C -428.3886,230.2689 -427.2886,230.8689 -426.0886,231.2689 C -424.3886,231.8689 -422.7886,232.2689 -421.2886,232.6689 C -420.9886,232.6689 -420.6886,232.7689 -420.3886,232.7689 C -419.5886,232.9689 -418.7886,233.0689 -417.9886,233.1689 C -416.1886,233.2689 -414.3886,233.2689 -412.6886,233.0689 C -411.2886,232.7689 -409.9886,232.4689 -408.6886,232.0689 C -408.4886,231.8689 -408.1886,231.7689 -407.9886,231.6689 C -407.2886,231.3689 -406.5886,231.0689 -405.8886,230.7689 C -404.1886,229.7689 -402.4886,228.5689 -400.8886,226.9689 C -398.7886,224.7689 -396.8886,222.1689 -395.2886,218.9689 C -393.1886,214.3689 -390.3886,211.2689 -387.0886,209.9689 C -390.3886,211.2689 -393.1886,214.3689 -395.2886,218.9689 C -396.8886,222.1689 -398.7886,224.7689 -400.8886,226.9689 C -402.4886,228.5689 -404.1886,229.7689 -405.8886,230.7689 C -406.5886,231.0689 -407.2886,231.3689 -407.9886,231.6689 L -408.8886,232.3689 C -410.1886,233.0689 -411.3886,233.4689 -412.4886,233.6689 C -412.7886,233.7689 -412.9886,233.7689 -413.1886,233.7689 C -414.7886,234.0689 -416.3886,233.7689 -417.9886,233.1689 C -418.7886,233.0689 -419.5886,232.9689 -420.3886,232.7689 C -420.6886,232.7689 -420.9886,232.6689 -421.2886,232.6689 C -421.1886,232.7689 -421.0886,233.0689 -421.0886,233.1689 C -420.8886,233.4689 -420.7886,233.7689 -420.5886,234.0689 C -420.4886,234.2689 -420.3886,234.5689 -420.2886,234.6689 C -420.2886,234.7689 -420.1886,234.8689 -420.0886,235.0689 C -417.8886,238.9689 -414.5886,241.3689 -410.4886,242.4689 C -407.9886,240.4689 -405.2886,238.6689 -402.3886,237.2689 C -399.7886,235.9689 -397.0886,234.8689 -394.2886,234.0689 C -385.7886,231.6689 -380.4886,226.8689 -378.4886,219.5689 C -380.4886,226.8689 -385.7886,231.6689 -394.2886,234.0689 C -397.0886,234.8689 -399.7886,235.9689 -402.3886,237.2689 C -405.2886,238.6689 -407.9886,240.4689 -410.4886,242.4689 C -413.4886,244.8689 -416.2886,247.7689 -418.8886,251.0689 C -419.7886,252.1689 -420.5886,253.3689 -421.4886,254.6689 C -423.0886,258.7689 -422.3886,261.8689 -419.3886,264.0689 C -415.6886,259.6689 -411.0886,256.4689 -405.7886,254.3689 C -402.9886,253.2689 -399.8886,252.5689 -396.4886,252.0689 L -396.3886,252.0689 C -390.2886,252.1689 -384.9886,251.0689 -380.5886,248.5689 L -370.0886,241.2689 C -370.9886,243.3689 -371.6886,245.3689 -372.1886,247.2689 C -372.2886,247.3689 -372.2886,247.4689 -372.2886,247.5689 C -374.1886,254.0689 -373.8886,259.4689 -371.5886,263.6689 C -367.2886,270.2689 -361.3886,274.3689 -354.0886,276.0689 C -354.1886,275.9689 -354.2886,275.8689 -354.2886,275.7689 C -355.4886,274.6689 -356.4886,273.5689 -357.2886,272.3689 C -357.4886,272.1689 -357.5886,272.0689 -357.6886,271.8689 C -359.9886,268.6689 -361.4886,265.2689 -362.1886,261.4689 C -361.1886,253.8689 -356.1886,248.5689 -347.2886,245.2689 C -346.9886,245.0689 -346.5886,245.0689 -346.1886,244.8689 C -346.5886,245.0689 -346.9886,245.0689 -347.2886,245.2689 C -348.3886,246.1689 -349.3886,247.1689 -350.2886,248.1689 C -355.3886,253.8689 -356.9886,259.5689 -355.2886,265.1689 C -355.1886,265.3689 -355.0886,265.5689 -354.9886,265.8689 C -354.4886,267.0689 -353.9886,268.0689 -353.2886,268.8689 C -351.2886,271.4689 -348.3886,272.4689 -344.4886,271.9689 C -349.6886,265.4689 -349.5886,259.3689 -344.1886,253.6689 C -343.2886,252.5689 -342.2886,251.4689 -341.1886,250.5689 C -338.5886,248.3689 -335.3886,246.8689 -331.6886,246.0689 C -330.7886,250.2689 -331.4886,254.5689 -333.8886,258.7689 C -334.8886,260.5689 -336.1886,262.2689 -337.7886,264.0689 C -335.4886,263.2689 -333.1886,262.4689 -330.9886,261.5689 C -322.1886,257.5689 -315.2886,251.3689 -310.2886,243.0689 L -310.3886,242.5689 C -310.4886,242.5689 -310.4886,242.5689 -310.5886,242.6689 C -314.3886,244.0689 -318.2886,244.3689 -322.0886,243.9689 L -322.1896,243.9689 C -322.1896,243.8689 -322.1896,243.8689 -322.0896,243.8689 L -322.0896,243.8689 C -319.5896,242.0689 -317.5896,239.9689 -315.9896,237.7689 C -315.6896,237.5689 -315.4896,237.1689 -315.2896,236.8689 C -314.4896,235.6689 -313.7896,234.4689 -313.1896,233.1689 C -312.1896,230.9689 -311.4896,228.5689 -311.0896,225.9689 C -311.4896,228.5689 -312.1896,230.9689 -313.1896,233.1689 C -313.7896,234.4689 -314.4896,235.6689 -315.2896,236.8689 C -315.4896,237.1689 -315.6896,237.5689 -315.9896,237.7689 C -317.5896,239.9689 -319.5896,242.0689 -322.0896,243.8689 L -322.0896,243.8689 C -322.1896,243.8689 -322.1896,243.8689 -322.1896,243.9689 L -322.0896,243.9689 C -318.2896,244.3689 -314.3896,244.0689 -310.5896,242.6689 C -310.4896,242.5689 -310.4896,242.5689 -310.3896,242.5689 C -310.2896,242.5689 -310.0896,242.5689 -309.9896,242.4689 C -307.4896,241.5689 -304.9896,240.2689 -302.5906,238.5689 C -302.8906,236.0689 -302.9896,233.6689 -302.7896,231.4689 C -302.2896,225.3689 -299.8906,220.0689 -295.5906,215.6689 C -299.8906,220.0689 -302.2896,225.3689 -302.7896,231.4689 C -302.9896,233.6689 -302.8906,236.0689 -302.5906,238.5689 C -300.6906,244.3689 -297.7896,248.7689 -294.0906,251.8689 C -290.3906,254.8689 -285.8906,256.6689 -280.5906,257.2689 C -275.6906,257.4689 -271.5906,256.6689 -268.0906,254.7689 C -267.7896,254.6689 -267.5906,254.5689 -267.2896,254.3689 L -267.1896,254.3689 C -267.0896,254.2689 -266.8896,254.1689 -266.6896,254.0689 C -266.2896,253.7689 -266.0896,253.5689 -265.6896,253.3689 C -266.2896,253.2689 -266.7896,253.1689 -267.2896,253.0689 C -273.3906,252.0689 -278.7896,248.8689 -283.3906,243.7689 C -285.8906,240.2689 -285.6906,236.8689 -282.7896,233.5689 L -282.7896,233.5689 L -282.7896,233.4689 C -281.1896,231.5689 -279.8906,229.3689 -278.7896,227.2689 C -276.8906,223.6689 -275.6896,219.8689 -275.0906,215.8689 C -275.6906,219.8689 -276.8906,223.6689 -278.7896,227.2689 C -279.8906,229.3689 -281.1896,231.5689 -282.7896,233.4689 L -282.7896,233.5689 C -276.1896,231.9689 -271.1896,229.2689 -267.7896,225.3689 C -267.5906,225.0689 -267.1896,224.7689 -266.9896,224.3689 C -266.8896,224.3689 -266.8896,224.3689 -266.8896,224.2689 C -266.6896,224.0689 -266.4896,223.7689 -266.2886,223.4689 C -266.2886,223.4689 -266.2886,223.4689 -266.1886,223.3689 L -266.2886,223.3689 C -266.1886,223.2689 -266.0896,223.1689 -266.0896,223.1689 C -263.6896,219.8689 -262.2886,216.3689 -261.7886,212.6689 C -261.7886,212.1689 -261.6886,211.6689 -261.6886,211.1689 C -261.6886,210.9689 -261.6886,210.7689 -261.5886,210.5689 L -261.5886,210.4689 C -261.5886,210.2689 -261.5886,210.0689 -261.5886,209.9689 C -261.5886,208.8689 -261.6886,207.7689 -261.7876,206.6689 C -261.8886,206.5689 -261.8886,206.5689 -261.7876,206.5689 C -262.0886,205.0689 -262.3886,203.4689 -262.8886,201.9689 C -262.3886,203.4689 -262.0886,205.0689 -261.7876,206.5689 C -261.8886,206.5689 -261.8886,206.5689 -261.7876,206.6689 C -261.6876,207.7689 -261.5886,208.8689 -261.5886,209.9689 C -261.5886,210.0689 -261.5886,210.2689 -261.5886,210.4689 L -261.5886,210.5689 C -261.6886,210.7689 -261.6886,210.9689 -261.6886,211.1689 C -261.6886,211.6689 -261.7886,212.1689 -261.7886,212.6689 C -262.2886,216.3689 -263.6886,219.8689 -266.0896,223.1689 C -266.0896,223.1689 -266.1896,223.2689 -266.1896,223.3689 C -266.2896,223.4689 -266.2896,223.4689 -266.2896,223.4689 C -266.4896,223.7689 -266.6896,224.0689 -266.8906,224.2689 C -266.8906,224.3689 -266.8906,224.3689 -266.9906,224.3689 C -266.7906,224.4689 -266.6906,224.5689 -266.5916,224.5689 C -266.1916,224.6689 -265.7906,224.8689 -265.2906,225.0689 C -262.8916,225.7689 -260.3916,226.2689 -257.8916,226.5689 C -252.6916,227.0689 -247.1916,226.3689 -241.5916,224.2689 C -235.6916,222.7689 -231.3916,219.7689 -228.7906,215.4689 C -233.0916,217.5689 -237.9906,218.4689 -243.3916,217.8689 C -248.1916,217.3689 -251.6916,215.1689 -254.0916,211.0689 L -253.8916,210.9689 L -253.7906,210.9689 L -253.5916,210.8689 L -253.6916,209.9689 C -246.3916,198.5689 -240.8916,198.9689 -237.2916,210.9689 C -233.5926,204.0689 -234.3926,197.0689 -239.4916,189.9689 C -231.2916,195.4689 -222.0926,197.4689 -211.6916,196.1689 C -204.6916,193.9689 -200.0916,190.5689 -197.7916,185.8689 C -200.6916,188.0689 -205.4916,188.9689 -212.0926,188.4689 C -220.2916,187.7689 -227.3926,185.0689 -233.4916,180.5689 C -233.5926,180.4689 -233.7916,180.3689 -233.9916,180.1689 C -238.1916,176.8689 -241.8916,172.6689 -245.0926,167.3689 C -227.0926,158.9689 -222.0926,161.6689 -230.0926,175.4689 C -230.1926,175.4689 -230.1926,175.5689 -230.1926,175.6689 C -221.7926,171.1689 -217.5926,166.8689 -217.5926,162.6689 C -217.5926,158.3689 -222.1926,152.4689 -231.3926,144.8689 C -236.2916,143.5689 -239.2916,140.6689 -240.1926,136.1689 C -239.2926,140.6689 -236.2926,143.5689 -231.3926,144.8689 C -230.6926,145.0689 -229.8926,145.1689 -229.0926,145.3689 C -221.7916,145.1689 -216.5926,142.4689 -213.5926,137.0689 C -216.2916,138.5689 -218.6926,139.4689 -220.8926,140.0689 C -220.8926,140.0689 -220.9926,140.0689 -221.0926,140.0689 C -221.0926,140.1689 -221.1926,140.1689 -221.2916,140.1689 C -221.5926,140.1689 -221.7916,140.2689 -221.8926,140.2689 C -224.1926,140.6689 -226.0926,140.5689 -227.7916,139.9689 C -227.8926,139.8689 -228.0926,139.7689 -228.1916,139.7689 C -233.1916,137.1689 -236.2916,132.9689 -237.5916,127.1689 C -233.7906,122.3689 -228.7906,124.9689 -222.5916,134.9689 C -218.5916,126.3689 -220.7906,119.6689 -229.1916,114.6689 C -234.0916,111.7689 -238.0916,108.8689 -240.8916,105.8689 L -241.0916,105.6689 C -241.2906,105.3689 -241.5916,105.1689 -241.6916,104.9689 C -242.5916,104.0689 -243.2916,103.0689 -243.8916,101.9689 C -243.2906,103.0689 -242.5916,104.0689 -241.6916,104.9689 C -241.5916,105.1689 -241.2916,105.3689 -241.0916,105.6689 L -240.8916,105.8689 C -238.5916,108.2689 -235.7906,109.6689 -232.6916,110.2689 C -231.5916,110.4689 -230.5916,110.5689 -229.5916,110.5689 C -226.4906,110.3689 -223.8916,109.0689 -221.6916,106.6689 C -218.8916,103.2689 -218.2916,99.8689 -219.8916,96.2689 C -221.6916,100.3689 -224.5916,102.5689 -228.5916,102.7689 C -231.5916,102.8689 -234.0916,101.8689 -235.7906,99.8689 C -236.4906,99.1689 -237.0916,98.3689 -237.4906,97.3689 C -239.2896,93.6689 -240.9896,88.0689 -242.3896,80.8689 z M -319.8896,61.5689 C -319.4896,61.7689 -319.1896,61.9689 -318.8896,62.1689 C -313.8896,65.1689 -309.6896,68.4689 -306.1896,72.2689 L -306.1896,72.2689 L -300.8896,70.2689 L -306.1896,72.2689 L -306.1896,72.2689 L -316.8896,73.6689 C -317.3896,73.7689 -317.7896,73.7689 -318.2896,73.8689 C -319.5896,73.9689 -320.8896,73.9689 -322.0896,73.8689 C -322.8896,73.7689 -323.5896,73.7689 -324.2896,73.5689 C -326.9896,72.4689 -328.4896,70.5689 -328.7896,67.8689 C -329.1896,65.2689 -328.0896,62.7689 -325.5896,60.6689 C -326.0896,60.6689 -326.6896,60.6689 -327.1896,60.6689 C -328.4896,60.7689 -329.7896,60.9689 -331.1896,61.2689 C -331.2896,58.5689 -329.7896,56.4689 -326.4896,54.9689 C -329.7896,56.4689 -331.2896,58.5689 -331.1896,61.2689 C -329.7896,60.9689 -328.4896,60.7689 -327.1896,60.6689 C -326.6896,60.6689 -326.0896,60.6689 -325.5896,60.6689 C -323.6896,60.6689 -321.7896,60.9689 -319.8896,61.5689 L -319.8896,61.5689 z M -307.9896,97.7689 C -311.5896,94.2689 -315.8896,91.5689 -320.5896,89.6689 C -324.6896,88.3689 -328.7896,87.9689 -333.0896,88.7689 C -328.7896,87.9689 -324.6896,88.3689 -320.5896,89.6689 C -315.8896,91.5689 -311.5896,94.2689 -307.9896,97.7689 z M -275.8896,72.2689 C -276.1896,72.3689 -276.3896,72.4689 -276.5896,72.5689 C -278.7886,73.6689 -280.6896,74.0689 -282.1896,73.9689 C -280.6896,74.0689 -278.7896,73.6689 -276.5896,72.5689 C -276.3896,72.4689 -276.1896,72.3689 -275.8896,72.2689 C -273.9896,71.2689 -271.8896,69.6689 -269.7886,67.6689 C -271.8896,69.6689 -273.9896,71.2689 -275.8896,72.2689 C -273.9896,73.5689 -272.1896,75.2689 -270.6896,77.3689 C -271.2896,80.3689 -272.4896,82.6689 -274.2896,84.0689 C -272.4896,82.6689 -271.2896,80.3689 -270.6896,77.3689 C -272.1896,75.2689 -273.9896,73.5689 -275.8896,72.2689 z M -297.1896,117.8689 C -297.8896,114.6689 -299.1896,111.3689 -300.9896,107.9689 C -299.1896,111.3689 -297.8896,114.6689 -297.1896,117.8689 C -296.4896,123.1689 -299.5896,127.8689 -306.5896,131.8689 C -299.5896,127.8689 -296.4896,123.1689 -297.1896,117.8689 z "
         style="fill:#ffcd50;stroke:#003d8f"
         id="path3415" />
      <path
         d="M -324.2896,67.4689 C -323.8896,65.0689 -322.3896,63.1689 -319.8896,61.5689 C -321.7896,60.9689 -323.6896,60.6689 -325.5896,60.6689 C -328.0896,62.7689 -329.1896,65.2689 -328.7896,67.8689 C -328.4896,70.5689 -326.9896,72.4689 -324.2896,73.5689 C -323.5896,73.7689 -322.8896,73.7689 -322.0896,73.8689 C -323.9896,71.8689 -324.6896,69.6689 -324.2896,67.4689 z "
         style="fill:#ffcd50;stroke:#003d8f"
         id="path3417" />
      <path
         d="M -306.1896,72.2689 C -309.6896,68.4689 -313.8896,65.1689 -318.8896,62.1689 L -318.2896,73.8689 C -317.7896,73.7689 -317.3896,73.7689 -316.8896,73.6689 L -306.1896,72.2689 z "
         style="fill:#ffcd50;stroke:#003d8f"
         id="path3419" />
      <path
         d="M -263.1896,234.3689 C -261.6896,231.6689 -259.9896,229.0689 -257.8896,226.5689 C -260.3896,226.2689 -262.8896,225.7689 -265.2886,225.0689 L -267.7886,225.3689 C -271.1886,229.2689 -276.1886,231.9689 -282.7886,233.5689 C -285.6886,236.8689 -285.8896,240.2689 -283.3896,243.7689 C -278.7886,248.8689 -273.3896,252.0689 -267.2886,253.0689 C -267.1896,246.8689 -265.8896,240.6689 -263.1896,234.3689 z "
         style="fill:#ffcd50;stroke:#003d8f"
         id="path3421" />
      <path
         d="M -425.7896,45.1689 C -425.1896,42.7689 -425.7896,40.4689 -427.4896,38.2689 L -431.7896,38.4689 C -431.8896,39.6689 -432.1896,40.8689 -432.5896,42.0689 C -432.9896,44.3689 -434.5896,45.8689 -437.3896,46.4689 C -441.5896,44.7689 -444.1896,42.0689 -445.2896,38.2689 C -445.4896,38.1689 -445.6896,38.0689 -445.7896,38.0689 C -449.5896,36.4689 -452.0896,36.9689 -453.3896,39.4689 C -455.1896,43.2689 -455.4896,47.8689 -454.4896,53.4689 C -457.3896,59.0689 -461.0896,62.0689 -465.5896,62.2689 L -465.6896,62.2689 C -464.8896,65.9689 -463.3896,69.3689 -461.3896,72.7689 C -457.6896,76.8689 -453.5896,78.6689 -449.0896,78.1689 C -448.9896,78.2689 -448.8896,78.3689 -448.7896,78.4689 L -448.1896,77.4689 C -442.8896,70.2689 -438.2896,62.6689 -434.3896,54.6689 C -432.6896,51.2689 -429.8896,48.0689 -425.7896,45.1689 z "
         style="fill:#ffcd50;stroke:#003d8f"
         id="path3423" />
      <path
         d="M -377.7896,69.0689 L -377.6896,68.9689 L -377.6896,68.9689 L -377.7896,68.7689 C -377.7896,68.8689 -377.7896,68.9689 -377.7896,68.9689 L -377.7896,69.0689 z "
         style="fill:#ffcd50;stroke:#003d8f;stroke-opacity:1"
         id="path3425" />
      <path
         d="M -347.5896,96.0689 C -350.8896,95.8689 -354.4896,95.8689 -358.3896,95.9689 L -358.6896,96.0689 L -353.9896,106.1689 L -352.1896,109.0689 L -351.9896,109.0689 L -348.7896,105.5689 L -347.5896,96.0689 z "
         style="fill:#ffcd50;stroke:#003d8f"
         id="path3427" />
      <path
         d="M -358.6896,96.0689 L -358.3896,95.9689 C -358.3896,95.8689 -358.4896,95.8689 -358.5896,95.8689 C -358.5896,95.7689 -358.6896,95.7689 -358.6896,95.7689 L -358.6896,95.9689 L -358.6896,96.0689 z "
         style="fill:#ffcd50;stroke:#003d8f;stroke-opacity:1"
         id="path3429" />
      <path
         d="M -351.9896,109.0689 L -352.1896,109.0689 L -353.9896,106.1689 C -361.7896,106.2689 -369.0896,106.2689 -376.0896,106.1689 C -380.4896,105.6689 -384.6896,102.3689 -388.7896,96.1689 C -390.7896,98.5689 -391.4896,101.5689 -390.7896,105.2689 C -388.8896,111.2689 -385.1896,114.9689 -379.7896,116.5689 C -372.5896,118.8689 -364.9896,119.8689 -357.0896,119.6689 C -356.7896,119.5689 -356.4896,119.5689 -356.1896,119.5689 L -352.8896,111.1689 L -347.6896,118.9689 C -339.1896,118.5689 -330.6896,118.7689 -322.0896,119.4689 C -316.8896,119.9689 -312.9896,121.8689 -310.4896,125.2689 C -307.0906,121.8689 -307.0906,117.4689 -310.4896,112.1689 C -311.5896,110.6689 -312.8896,109.2689 -314.2896,107.8689 C -320.1896,106.4689 -325.7896,105.6689 -331.3896,105.6689 C -336.7896,105.8689 -342.5896,105.8689 -348.7896,105.5689 L -351.9896,109.0689 z "
         style="fill:#ffcd50;stroke:#003d8f"
         id="path3431" />
      <path
         d="M -347.6896,118.9689 L -352.8896,111.1689 L -356.1896,119.5689 L -357.1896,123.1689 C -352.1896,122.9689 -347.7896,123.3689 -343.9896,124.4689 L -347.6896,118.9689 z "
         style="fill:#ffcd50;stroke:#003d8f"
         id="path3433" />
      <path
         d="M -425.4896,188.5689 C -425.9896,187.4689 -426.5896,186.3689 -427.0896,185.2689 C -419.6896,193.1689 -413.9896,193.7689 -410.0896,187.2689 C -406.6896,177.3689 -397.9896,171.2689 -383.9896,168.9689 L -383.9896,168.8689 C -394.2896,168.5689 -401.3896,164.3689 -405.0896,156.1689 C -405.6896,151.0689 -403.1896,147.1689 -397.2896,144.5689 C -397.0896,151.1689 -393.5896,155.8689 -387.0896,158.5689 C -386.5896,158.4689 -386.0896,158.3689 -385.4896,158.2689 L -386.1896,153.8689 C -388.6896,149.9689 -391.3896,146.0689 -393.9896,142.2689 C -404.6896,126.7689 -416.2896,111.3689 -428.9896,96.1689 C -434.5896,89.5689 -441.1896,83.6689 -448.7896,78.4689 C -448.8896,78.3689 -448.9896,78.2689 -449.0896,78.1689 C -453.5896,78.6689 -457.6896,76.8689 -461.3896,72.7689 C -463.3896,69.3689 -464.8896,65.9689 -465.6896,62.2689 C -465.9896,60.9689 -466.2896,59.6689 -466.3896,58.2689 C -464.4896,53.2689 -464.9896,48.4689 -467.7896,44.0689 C -471.0896,43.5689 -473.1896,44.1689 -474.0896,45.8689 C -474.0896,45.8689 -474.0896,45.9689 -474.1896,45.9689 C -472.3896,50.4689 -472.5896,54.4689 -474.7896,58.1689 L -474.7896,58.2689 C -477.2896,58.8689 -479.3896,58.2689 -481.0896,56.3689 C -481.0896,56.2689 -481.1896,56.0689 -481.2896,55.9689 C -483.4896,55.3689 -485.0896,56.0689 -485.9896,57.8689 C -487.9896,61.6689 -488.9896,65.0689 -488.8896,68.2689 C -487.7896,69.6689 -486.6896,70.7689 -485.3896,71.5689 C -483.6896,72.7689 -481.7896,73.3689 -479.6896,73.4689 C -479.2896,76.3689 -480.7896,78.8689 -484.2896,81.1689 C -484.2896,81.1689 -484.3896,81.2689 -484.4896,81.2689 C -479.5896,85.2689 -473.6896,86.7689 -466.6896,85.9689 C -473.6896,86.7689 -479.5896,85.2689 -484.4896,81.2689 C -484.3896,81.2689 -484.2896,81.1689 -484.2896,81.1689 C -485.9896,79.7689 -488.4896,78.8689 -491.4896,78.2689 C -495.3896,78.6689 -498.3896,79.5689 -500.7896,81.0689 C -501.8896,81.8689 -502.5896,82.4689 -502.5896,82.9689 C -502.6896,83.3689 -502.2896,83.6689 -501.4896,83.8689 C -497.4896,83.6689 -494.6896,84.6689 -492.9896,86.8689 C -490.9896,91.9689 -492.9896,96.0689 -498.8896,99.2689 C -500.2896,101.9689 -500.1896,104.2689 -498.6896,106.1689 C -496.0896,107.9689 -493.6896,108.7689 -491.3896,108.4689 C -488.4896,105.3689 -486.6896,102.1689 -485.7896,99.0689 C -484.2896,102.5689 -484.2896,105.7689 -485.7896,108.5689 C -481.2896,110.5689 -477.3896,110.0689 -474.1896,107.1689 C -473.5896,106.5689 -473.0896,105.9689 -472.5896,105.3689 C -473.0896,105.9689 -473.5896,106.5689 -474.1896,107.1689 C -476.7896,110.1689 -478.3896,113.3689 -478.8896,116.8689 C -478.3896,116.7689 -477.8896,116.6689 -477.3896,116.6689 C -471.4896,116.0689 -467.2896,117.2689 -464.5896,120.1689 L -464.6896,120.8689 L -477.1896,120.6689 C -476.9896,124.9689 -474.8896,128.1689 -470.7896,130.2689 C -466.6896,132.1689 -460.7896,133.0689 -452.8896,132.8689 C -460.7896,133.0689 -466.6896,132.1689 -470.7896,130.2689 C -477.5896,136.1689 -480.3896,142.9689 -478.9896,150.6689 C -477.5896,148.3689 -475.2896,146.8689 -472.3896,146.3689 C -472.0896,146.2689 -471.7896,146.2689 -471.5896,146.1689 C -471.3896,146.1689 -471.1896,146.1689 -470.9896,146.1689 C -470.9896,146.1689 -470.8896,146.1689 -470.7896,146.1689 C -465.2896,145.5689 -457.5896,147.5689 -447.8896,152.0689 L -447.7896,152.1689 L -447.8896,152.1689 C -454.4896,155.8689 -462.0896,155.6689 -470.7896,151.4689 C -466.2896,159.9689 -458.0896,163.1689 -446.1896,161.1689 L -446.0896,161.6689 C -453.0896,163.8689 -458.9896,167.5689 -463.6896,172.9689 L -463.6896,172.9689 C -463.7896,173.0689 -463.8896,173.1689 -463.9896,173.2689 L -463.8896,173.3689 C -463.6896,173.3689 -463.5896,173.2689 -463.4896,173.2689 L -463.3896,173.2689 L -463.3896,173.2689 C -454.9896,170.5689 -445.8896,170.3689 -435.9896,172.4689 C -446.9896,173.9689 -454.0896,176.2689 -457.3896,179.3689 C -459.3896,181.1689 -459.9896,183.2689 -459.1896,185.7689 C -449.7896,182.1689 -439.5896,183.5689 -428.3896,190.1689 L -428.4896,190.2689 L -428.7896,191.0689 C -438.7896,189.8689 -444.4896,191.1689 -445.7896,194.9689 C -444.6896,195.0689 -443.6896,195.1689 -442.6896,195.3689 C -435.0896,196.5689 -428.8896,199.0689 -424.1896,202.9689 C -429.6896,205.1689 -436.0896,204.2689 -443.4896,199.9689 C -441.2896,205.4689 -437.4896,209.3689 -432.0896,211.8689 C -430.4896,209.8689 -428.3896,208.7689 -425.5896,208.4689 C -425.4896,208.4689 -425.3896,208.4689 -425.3896,208.4689 C -425.0896,208.4689 -424.7896,208.4689 -424.3896,208.4689 C -424.7896,208.7689 -425.1896,209.1689 -425.5896,209.4689 L -426.3896,213.7689 C -423.1896,214.4689 -419.4896,214.8689 -415.3896,214.8689 C -420.3896,215.3689 -424.4896,216.3689 -427.7896,217.8689 C -427.4896,218.2689 -427.1896,218.6689 -426.7896,218.9689 C -423.5896,221.9689 -419.8896,222.1689 -415.4896,219.4689 C -411.1896,216.7689 -408.8896,212.6689 -408.3896,207.2689 C -412.3896,204.7689 -415.8896,201.7689 -418.9896,198.1689 C -418.9896,198.0689 -418.9896,198.0689 -419.0896,197.9689 C -421.3896,195.1689 -423.5896,191.9689 -425.4896,188.5689 z "
         style="fill:#ffcd50;stroke:#003d8f"
         id="path3435" />
      <path
         d="M -434.8896,28.2689 C -434.9896,28.0689 -435.0896,27.9689 -435.0896,27.8689 C -440.3896,21.1689 -445.9896,18.4689 -451.9896,19.6689 C -456.0896,20.9689 -458.4896,23.2689 -459.0896,26.5689 C -453.6896,25.9689 -449.6896,27.0689 -447.1896,29.7689 C -444.9896,32.2689 -444.4896,35.0689 -445.7896,38.0689 C -445.6896,38.0689 -445.4896,38.1689 -445.2896,38.2689 C -444.1896,42.0689 -441.5896,44.7689 -437.3896,46.4689 C -434.5896,45.8689 -432.9896,44.3689 -432.5896,42.0689 C -432.1896,40.8689 -431.8896,39.6689 -431.7896,38.4689 C -431.4896,35.1689 -432.5896,31.7689 -434.8896,28.2689 z "
         style="fill:#ffcd50;stroke:#003d8f"
         id="path3437" />
      <path
         d="M -483.3896,38.3689 C -488.1896,38.4689 -492.9896,39.8689 -497.4896,42.6689 C -500.2896,45.1689 -502.0896,48.3689 -502.9896,52.3689 C -498.6896,50.0689 -494.2896,48.9689 -489.6896,49.1689 C -485.2896,50.7689 -482.4896,52.9689 -481.2896,55.9689 C -481.1896,56.0689 -481.0896,56.2689 -481.0896,56.3689 C -479.3896,58.2689 -477.2896,58.8689 -474.7896,58.2689 L -474.7896,58.1689 C -472.5896,54.4689 -472.3896,50.4689 -474.1896,45.9689 L -474.1896,46.0689 C -474.2896,45.8689 -474.2896,45.7689 -474.2896,45.5689 C -475.7896,41.6689 -478.7896,39.2689 -483.3896,38.3689 z "
         style="fill:#ffcd50;stroke:#003d8f"
         id="path3439" />
      <path
         d="M -502.5896,82.9689 L -502.9896,83.5689 C -505.3896,83.4689 -507.7896,84.3689 -510.0896,85.9689 C -515.2896,90.4689 -518.6896,95.2689 -520.2896,100.3689 C -520.2896,103.7689 -519.8896,106.3689 -518.9896,108.2689 C -517.3896,111.2689 -514.8896,112.9689 -511.5896,113.1689 C -512.6896,107.6689 -511.0896,102.9689 -506.9896,98.9689 C -502.9896,97.1689 -500.2896,97.1689 -498.8896,99.2689 C -492.9896,96.0689 -490.9896,91.9689 -492.9896,86.8689 C -494.6896,84.6689 -497.4896,83.6689 -501.4896,83.8689 C -502.2896,83.6689 -502.6896,83.3689 -502.5896,82.9689 z "
         style="fill:#ffcd50;stroke:#003d8f"
         id="path3441" />
      <path
         d="M -434.1896,222.7689 C -435.6896,224.6689 -436.6896,226.8689 -437.0896,229.4689 C -437.6896,234.4689 -434.4896,237.4689 -427.5896,238.4689 C -431.3896,235.0689 -431.9896,232.1689 -429.3896,229.6689 C -431.9896,228.0689 -433.5896,225.7689 -434.1896,222.7689 z "
         style="fill:#ffcd50;stroke:#003d8f"
         id="path3443" />
      <path
         d="M -489.2896,289.4689 C -489.7896,285.6689 -491.3896,281.8689 -494.1896,278.0689 C -496.2896,276.9689 -498.1896,277.1689 -499.7896,278.7689 C -499.2896,281.0689 -499.7896,283.4689 -501.0896,285.7689 C -504.5896,288.4689 -508.5896,290.1689 -513.2896,291.0689 C -515.2896,292.8689 -515.7896,294.5689 -514.5896,296.3689 C -510.8896,296.6689 -507.8896,297.5689 -505.6896,298.8689 L -499.8896,297.5689 L -505.6896,298.8689 C -504.7896,299.4689 -503.9896,300.0689 -503.3896,300.8689 C -500.5896,305.2689 -499.0896,309.0689 -498.9896,312.0689 C -496.1896,312.0689 -493.5896,311.5689 -490.9896,310.2689 C -485.5896,307.2689 -480.9896,303.9689 -477.1896,300.3689 C -481.8896,298.1689 -485.9896,294.5689 -489.2896,289.4689 z "
         style="fill:#ffcd50;stroke:#003d8f"
         id="path3445" />
      <path
         d="M -499.7896,278.7689 C -499.8896,277.7689 -500.2896,276.8689 -500.6896,276.0689 C -506.5896,274.2689 -512.5896,273.8689 -518.8896,275.0689 C -525.2896,276.1689 -528.8896,279.4689 -529.9896,284.8689 C -530.9896,290.2689 -529.9896,293.5689 -526.7896,294.7689 C -524.8896,289.5689 -521.7896,286.8689 -517.2896,286.7689 C -513.5896,287.2689 -512.2896,288.6689 -513.2896,291.0689 L -513.2896,291.0689 C -508.5896,290.1689 -504.5896,288.4689 -501.0896,285.7689 C -499.7896,283.4689 -499.2896,281.0689 -499.7896,278.7689 z "
         style="fill:#ffcd50;stroke:#003d8f"
         id="path3447" />
      <path
         d="M -516.7896,316.0689 C -518.3896,315.7689 -519.3896,315.0689 -519.6896,313.8689 C -524.6896,314.5689 -528.3896,317.3689 -530.7896,322.0689 C -532.3896,327.4689 -531.8896,332.1689 -529.2896,336.1689 C -527.5896,340.6689 -524.4896,343.5689 -519.9896,344.8689 C -521.8896,341.0689 -522.4896,336.8689 -521.6896,332.3689 C -520.7896,329.2689 -518.8896,327.8689 -516.0896,327.9689 C -514.2896,327.7689 -512.6896,327.3689 -511.4896,326.8689 C -508.7896,325.5689 -508.0896,323.1689 -509.2896,319.8689 C -509.6896,317.9689 -512.1896,316.6689 -516.7896,316.0689 z "
         style="fill:#ffcd50;stroke:#003d8f"
         id="path3449" />
      <path
         d="M -476.1896,355.1689 C -476.5896,351.3689 -478.9896,348.7689 -483.1896,347.3689 C -487.4896,346.7679 -490.2896,348.1689 -491.4896,351.3689 C -492.5896,355.4689 -492.2896,359.1689 -490.6896,362.4689 C -488.4896,368.0699 -484.9896,371.8689 -480.1896,373.9689 C -477.8896,374.9689 -475.6896,375.1689 -473.4896,374.7689 C -469.6896,373.7689 -467.0896,372.3699 -465.7896,370.4689 C -470.1896,370.3689 -473.4896,368.8689 -475.7896,365.9689 C -477.2896,362.7689 -477.4896,359.1689 -476.1896,355.1689 z "
         style="fill:#ffcd50;stroke:#003d8f"
         id="path3451" />
      <path
         d="M -310.2896,243.0689 C -310.1896,242.7689 -310.0896,242.5689 -309.9896,242.4689 C -310.0896,242.5689 -310.2896,242.5689 -310.3896,242.5689 L -310.2896,243.0689 z "
         style="fill:#ffcd50;stroke:#003d8f;stroke-opacity:1"
         id="path3453" />
      <path
         d="M -426.8896,213.6689 C -426.6896,213.6689 -426.5896,213.6689 -426.3896,213.7689 L -425.5896,209.4689 C -425.6896,209.5689 -425.7896,209.6689 -425.8896,209.8689 C -427.0896,210.9689 -427.8896,212.1689 -428.2896,213.2689 C -427.8896,213.3689 -427.3896,213.4689 -426.8896,213.6689 z "
         style="fill:#ffcd50;stroke:#003d8f;stroke-opacity:1"
         id="path3455" />
      <path
         d="M -408.6896,232.0689 L -408.8896,232.3689 L -407.9896,231.6689 C -408.1896,231.7689 -408.4896,231.8689 -408.6896,232.0689 z "
         style="fill:#ffcd50;stroke:#003d8f;stroke-opacity:1"
         id="path3457" />
      <path
         d="M -402.8896,381.5689 C -411.7896,381.4679 -417.1896,384.9679 -419.0896,392.1689 C -420.0896,397.5689 -419.6896,401.6689 -418.0896,404.4689 C -417.4896,405.3689 -416.8896,406.1689 -416.0896,406.8689 C -414.3896,408.1689 -412.0896,408.8689 -409.2896,408.9689 C -405.0896,409.0699 -399.5896,407.9689 -392.7896,405.4689 C -397.6896,409.5699 -402.3896,412.2689 -406.8896,413.4689 C -407.6896,413.6689 -408.3896,413.7689 -409.1896,413.9689 C -413.2896,414.5699 -417.2896,414.0699 -421.1896,412.2689 C -422.9896,411.4689 -424.8896,410.3699 -426.5896,408.9689 C -427.2896,408.4689 -427.8896,407.8689 -428.5896,407.3689 C -428.1896,408.0689 -427.8896,408.7679 -427.5896,409.4689 C -421.9896,420.2689 -415.5896,423.8689 -408.1896,420.1689 C -408.1896,420.0689 -408.1896,420.0689 -408.0896,419.9689 C -407.3896,419.5699 -406.6896,419.1689 -405.9896,418.8689 C -405.6896,418.6689 -405.3896,418.5689 -405.0896,418.4689 C -401.2896,416.7689 -397.4896,416.1689 -393.6896,416.6689 C -397.4896,416.1689 -401.2896,416.7689 -405.0896,418.4689 C -405.3896,418.5699 -405.6896,418.6689 -405.9896,418.8689 C -406.6896,419.1689 -407.3896,419.5689 -408.0896,419.9689 C -408.1896,420.0689 -408.1896,420.0689 -408.1896,420.1689 C -410.7896,428.4689 -418.4896,433.8689 -431.3896,436.1689 C -417.9896,441.2689 -408.0896,438.4689 -401.4896,427.5689 L -400.7896,428.0689 C -401.4896,431.4679 -402.4896,434.6689 -403.7896,437.6689 C -407.4896,446.2689 -413.7896,453.3689 -422.6896,459.1689 C -415.6896,460.2689 -409.9896,459.4689 -405.3896,456.8689 C -400.5896,454.1689 -397.0896,449.3689 -394.7896,442.6689 C -395.0896,451.0689 -397.6896,457.9689 -402.3896,463.3689 C -401.2896,465.0689 -400.0896,466.7679 -398.5896,468.2679 C -397.1896,469.7679 -395.5896,471.1679 -393.7896,472.4679 C -390.1896,474.9679 -385.8896,476.9679 -380.8896,478.3679 C -387.1896,478.9679 -391.5896,478.3679 -394.1896,476.6679 C -394.7896,476.2679 -395.3896,475.8679 -395.8896,475.5679 C -395.8896,475.5679 -395.8896,475.5679 -395.9896,475.4669 C -396.6896,474.9669 -397.1896,474.6669 -397.3896,474.4669 C -399.4896,473.7669 -400.8896,473.2669 -401.4896,473.0679 C -402.0896,472.8679 -402.7896,472.7669 -403.6896,472.6679 C -406.4896,472.5679 -410.5896,473.1679 -416.1896,474.3679 C -423.2896,477.5679 -431.9896,479.5679 -441.9896,480.2669 C -444.2896,480.1669 -446.2896,479.6669 -448.2896,478.7669 C -450.1896,477.7669 -451.9896,476.3679 -453.5896,474.6669 C -453.9896,468.6669 -455.6896,462.2669 -458.5896,455.1669 C -460.1896,453.9669 -462.6896,453.5669 -465.8896,453.8669 C -467.3896,453.5669 -468.3896,454.0669 -468.6896,455.3669 C -468.7896,455.4669 -468.7896,455.5669 -468.7896,455.6669 C -468.7896,455.7669 -468.7896,455.7669 -468.7896,455.8669 C -462.9896,464.5669 -463.9896,468.5669 -471.8896,467.8669 C -473.8896,467.8669 -476.9896,468.4669 -481.2896,469.5669 C -485.6896,471.7659 -486.8896,474.1669 -485.0896,476.9659 L -484.5896,477.3659 C -484.3896,477.7649 -484.1896,478.0659 -483.8896,478.4659 C -483.8896,478.4659 -483.7896,478.5669 -483.7896,478.6659 C -481.7896,481.3659 -478.9896,483.4659 -475.3896,484.7659 C -469.8896,486.7659 -462.6896,487.2659 -453.6896,486.2659 C -458.6896,490.2659 -466.4896,491.1659 -477.0896,488.7659 C -480.3896,487.7659 -484.1896,485.8669 -488.4896,483.3669 L -491.0896,485.8669 C -486.6896,490.5669 -484.2896,495.1669 -483.7896,499.6669 C -484.3896,502.7669 -486.2896,505.4669 -489.4896,508.0669 C -489.5896,508.1669 -489.6896,508.3669 -489.6896,508.5669 C -490.6896,511.3669 -489.9896,513.3669 -487.5896,514.6669 L -480.7896,514.3669 C -476.8896,512.0669 -474.7896,509.0669 -474.7896,505.0669 C -474.5896,508.9659 -473.6896,511.1669 -472.0896,511.7659 C -468.6896,512.2659 -465.5896,512.0669 -462.6896,511.0669 C -460.0896,509.8669 -457.5896,509.5669 -454.9896,510.2659 C -451.1896,508.3669 -448.7896,505.9659 -447.8896,503.0669 C -448.7896,505.9659 -451.1896,508.3669 -454.9896,510.2659 C -457.5896,509.5669 -460.0896,509.8669 -462.6896,511.0669 C -463.4896,511.3669 -464.2896,511.8669 -465.0896,512.3669 L -471.9896,518.1669 L -469.3896,521.2669 C -469.3896,521.3679 -469.2896,521.4669 -469.2896,521.4669 C -463.1896,522.8669 -458.7896,525.8669 -455.8896,530.3669 C -454.9896,532.3669 -455.2896,533.7659 -456.5896,534.4669 C -456.5896,534.5679 -456.5896,534.5679 -456.6896,534.6669 C -457.0896,536.4669 -455.9896,537.7669 -453.2896,538.1669 C -450.1896,539.4669 -447.6896,539.5669 -445.6896,538.2669 C -440.9896,535.3679 -438.4896,531.1669 -437.8896,525.6669 C -440.2896,522.1669 -438.7896,517.6669 -433.4896,512.0669 C -438.7896,517.6669 -440.2896,522.1669 -437.8896,525.6669 C -436.8896,527.1669 -435.1896,529.8669 -432.7896,533.5669 C -428.9896,526.8669 -425.3896,522.4659 -422.0896,520.5669 C -425.3896,525.2659 -426.6896,530.0669 -425.8896,534.7659 C -425.8896,534.8669 -425.8896,534.9659 -425.7896,534.9659 L -425.7896,534.7659 C -419.4896,528.1659 -411.7896,524.4659 -402.6896,523.7659 C -405.5896,531.9659 -412.6896,537.4659 -423.8896,540.3669 C -423.9896,540.3669 -424.0896,540.3669 -424.0896,540.4669 C -421.8896,546.5679 -415.9896,548.6669 -406.5896,546.7669 C -399.7896,544.1669 -395.2896,539.8679 -392.8896,533.9669 L -392.2896,534.0679 C -391.6896,530.4669 -389.6896,527.2669 -386.3896,524.7669 C -389.6896,527.2669 -391.6896,530.4669 -392.2896,534.0679 C -392.3896,534.5679 -392.3896,535.0679 -392.3896,535.4669 C -393.5896,549.3669 -385.6896,555.9669 -368.8896,555.4669 C -368.6896,555.3669 -368.3896,555.3669 -368.1896,555.3669 C -368.2896,555.3669 -368.4896,555.2659 -368.5896,555.2659 C -368.6896,555.1659 -368.7896,555.1659 -368.7896,555.0669 C -375.0896,552.1669 -378.0896,547.2659 -377.7896,540.5669 L -377.6896,540.2659 C -377.8896,536.5669 -375.5896,532.2659 -370.6896,527.2659 C -365.4896,534.2659 -362.5896,541.7659 -361.8896,549.6659 C -355.9896,540.5659 -353.5896,530.5659 -354.9896,519.4659 C -354.8896,519.7659 -354.7896,520.0669 -354.6896,520.3659 C -354.6896,520.5659 -354.5896,520.7649 -354.5896,520.9659 C -354.0896,522.6659 -353.5896,524.3659 -352.8896,525.8659 C -348.0896,537.2649 -338.3896,542.9659 -323.9896,542.9659 C -332.4896,537.2659 -338.4896,529.8659 -341.9896,520.6659 C -342.8896,519.6659 -343.6896,518.6659 -344.4896,517.5659 C -343.6896,518.6659 -342.8896,519.6659 -341.9896,520.6659 C -336.7896,526.1659 -330.0896,529.1659 -321.6896,529.3659 C -319.4896,529.2649 -317.4896,528.8659 -315.5896,528.1659 C -312.1896,526.7659 -309.3896,524.3659 -307.3896,520.8659 L -307.5896,520.5659 L -307.0896,519.9649 C -307.6896,520.2649 -308.2886,520.6649 -308.8896,520.9649 C -312.2896,522.9649 -315.1896,523.8649 -317.6896,523.7649 C -326.2896,522.4649 -331.1896,516.9649 -332.2896,507.2649 C -331.5896,499.6649 -328.1896,493.1649 -321.8896,488.0659 C -320.5896,486.8659 -319.1896,485.8659 -317.5896,484.8659 L -317.5896,484.6659 L -317.4896,484.4659 C -316.8896,478.8659 -315.3896,472.6659 -313.0896,465.9659 C -314.0896,467.6659 -315.2896,469.2659 -316.5896,470.8659 C -316.7896,470.9659 -316.8896,471.1659 -317.0896,471.3659 C -317.2896,471.5659 -317.4896,471.7649 -317.6896,471.9659 C -320.4896,474.7659 -323.8896,477.1659 -327.9896,479.3659 L -328.2896,479.5659 L -328.3896,479.4649 C -336.4896,481.6649 -344.3896,481.2649 -352.1896,478.3649 C -356.1896,476.0649 -359.3896,472.1649 -361.4896,466.7639 C -361.6896,466.2639 -361.8896,465.8649 -361.9896,465.3649 C -363.2896,461.1649 -362.5896,456.3649 -360.1896,451.2639 C -356.6896,447.1639 -352.1896,444.6639 -346.6896,443.5649 C -351.7896,448.7639 -353.8896,453.9639 -352.8896,459.3649 C -352.5896,460.5649 -352.2896,461.5649 -351.7896,462.5649 C -350.4896,465.3649 -348.0896,467.4639 -344.6896,468.7639 C -341.6896,469.7639 -338.1896,469.7639 -334.2896,468.7639 C -329.9896,467.6639 -326.7896,466.1639 -324.6896,464.1639 C -322.5896,462.0639 -321.5896,459.6639 -321.5896,456.7639 C -321.5896,451.4639 -321.2896,444.8649 -320.6896,436.9639 C -319.7896,429.3639 -317.2896,421.6639 -313.1896,413.9639 C -309.2896,407.2639 -303.3896,400.5649 -295.5896,393.7639 C -295.2886,393.4639 -295.0896,393.1639 -294.8896,392.9639 C -292.5896,390.1639 -291.1896,387.1639 -290.7886,383.8639 C -290.3896,380.3639 -291.0896,376.4639 -292.8896,372.2629 C -293.4896,369.1629 -293.6896,366.2629 -293.5896,363.4629 L -294.5896,361.1629 C -311.5896,362.3629 -325.5896,367.9629 -336.6896,377.8629 C -341.3896,377.2619 -346.1896,376.7619 -350.7896,376.5629 C -359.7896,376.4619 -367.5896,378.6629 -374.2896,383.1629 C -381.2896,391.4629 -387.4896,396.6629 -392.8896,398.6629 C -393.3896,398.8629 -393.8896,399.0629 -394.3896,399.1629 C -399.1896,400.4629 -403.2896,399.4629 -406.7896,396.2629 C -410.5896,392.5689 -409.2896,387.6689 -402.8896,381.5689 z "
         style="fill:#ffcd50;stroke:#003d8f"
         id="path3459" />
      <path
         d="M -307.2896,335.7689 C -308.7896,336.3689 -310.0896,337.1689 -311.0896,338.1689 C -313.1896,339.6689 -314.5896,342.2689 -315.2896,345.9689 C -303.2896,346.1689 -296.0896,351.0699 -293.5896,360.7689 C -293.4886,360.8699 -293.4886,360.9689 -293.3896,361.1689 C -293.0896,356.5689 -291.7886,352.3689 -289.6896,348.4689 C -289.6896,348.2689 -289.6896,348.2689 -289.4896,348.1689 C -293.0906,342.2689 -297.2896,337.6689 -302.1896,334.4689 C -304.0896,334.6689 -305.7896,335.1689 -307.2896,335.7689 z "
         style="fill:#ffcd50;stroke:#003d8f"
         id="path3461" />
      <path
         d="M -328.2896,479.5689 L -327.9896,479.3689 C -328.0896,479.3689 -328.2896,479.3689 -328.3896,479.4689 L -328.2896,479.5689 z "
         style="fill:#ffcd50;stroke:#003d8f;stroke-opacity:1"
         id="path3463" />
      <path
         d="M -276.3896,484.0689 C -276.3896,483.9679 -276.2886,483.9679 -276.0896,483.9679 C -272.7886,483.5689 -269.8896,482.6679 -267.5896,481.4679 L -278.8896,484.3679 C -278.5896,484.2669 -278.2886,484.2669 -277.8896,484.1679 C -277.3896,484.1689 -276.8896,484.0689 -276.3896,484.0689 z "
         style="fill:#ffcd50;stroke:#003d8f;stroke-opacity:1"
         id="path3465" />
      <path
         d="M -307.3896,573.4689 C -310.3896,576.2689 -312.3896,579.4689 -313.3896,583.0699 C -314.3896,587.6699 -314.4896,591.9689 -313.5896,596.0699 C -311.9896,600.7689 -308.2896,604.0699 -302.3896,605.9689 C -304.6896,602.1689 -305.4896,597.9689 -304.6896,593.1689 C -302.4896,587.9689 -298.8896,584.4689 -293.8896,582.7689 C -293.7886,582.4689 -293.6896,582.2689 -293.5896,582.0699 C -292.5896,579.5699 -292.3896,576.8699 -292.8896,574.0699 C -293.8896,571.2689 -295.5896,569.5699 -297.8896,568.8699 L -297.9896,568.8699 C -301.4896,569.6689 -304.5896,571.2689 -307.3896,573.4689 z "
         style="fill:#ffcd50;stroke:#003d8f"
         id="path3467" />
      <path
         d="M -468.9896,455.6689 C -468.9896,455.4689 -469.0896,455.3689 -469.1896,455.1689 C -472.7896,452.1689 -477.3896,450.8689 -482.7896,451.3689 C -490.6896,451.9689 -496.1896,453.9689 -499.1896,457.1689 C -502.8896,460.8689 -504.2896,464.5689 -503.3896,468.2689 C -497.9896,464.2689 -492.0896,462.2689 -485.4896,462.3699 C -481.2896,464.4699 -480.0896,466.9699 -482.0896,469.7689 L -479.9896,469.0699 C -480.4896,469.1699 -480.8896,469.3699 -481.2896,469.5699 C -476.9896,468.4689 -473.8896,467.8699 -471.8896,467.8699 C -463.9896,468.5699 -462.9896,464.5699 -468.7896,455.8699 C -468.8896,455.7689 -468.8896,455.6689 -468.9896,455.6689 z "
         style="fill:#ffcd50;stroke:#003d8f"
         id="path3469" />
      <path
         d="M -456.5896,534.4689 C -455.2896,533.7689 -454.9896,532.3689 -455.8896,530.3689 C -458.7896,525.8689 -463.1896,522.8689 -469.2896,521.4689 C -469.2896,521.4689 -469.3896,521.3689 -469.3896,521.2689 C -474.0896,526.9689 -476.4896,533.2689 -476.4896,540.2689 C -475.5896,550.5699 -469.4896,554.2689 -458.2896,551.2689 C -463.0896,548.2689 -465.0896,543.9689 -464.2896,538.2689 C -462.7896,534.7689 -460.2896,533.5699 -456.8896,534.5699 C -456.7896,534.5699 -456.7896,534.5699 -456.6896,534.5699 C -456.6896,534.4689 -456.6896,534.4689 -456.5896,534.4689 z "
         style="fill:#ffcd50;stroke:#003d8f"
         id="path3471" />
      <path
         d="M -506.3896,499.6689 C -507.3896,505.6689 -506.9896,510.7689 -505.2896,515.2689 C -502.3896,519.9689 -498.4896,522.4689 -493.7896,522.4689 C -495.8896,519.8689 -496.6896,516.5699 -496.1896,512.3689 C -494.9896,509.6689 -492.7896,508.3689 -489.6896,508.5689 C -489.6896,508.3689 -489.5896,508.1689 -489.4896,508.0689 C -486.2896,505.4679 -484.3896,502.7679 -483.7896,499.6689 C -484.2896,495.1689 -486.6896,490.5689 -491.0896,485.8689 C -498.6896,488.2689 -503.7896,492.8689 -506.3896,499.6689 z "
         style="fill:#ffcd50;stroke:#003d8f"
         id="path3473" />
      <path
         d="M -277.6896,594.6689 C -278.0896,599.9689 -277.3896,605.1689 -275.6896,610.1689 C -274.2896,613.4689 -272.1896,615.8689 -269.5896,617.6689 C -265.0896,619.3689 -261.6896,619.6689 -259.1896,618.3689 C -256.3896,617.2679 -254.1896,616.0689 -252.6896,614.7679 C -256.7896,615.1679 -260.0896,614.1679 -262.3896,611.8689 C -265.1896,608.2679 -265.5896,604.6689 -263.2886,601.1689 L -261.0896,598.9689 L -260.1896,598.2689 C -261.7896,596.0699 -263.8896,594.0699 -266.6896,592.2689 C -269.0896,592.1689 -271.3896,592.4689 -273.7896,593.1689 C -275.0906,593.4689 -276.2896,593.9689 -277.5906,594.5689 C -277.5896,594.5689 -277.5896,594.5689 -277.6896,594.6689 z "
         style="fill:#ffcd50;stroke:#003d8f"
         id="path3475" />
      <path
         d="M -228.4896,590.1689 L -228.3896,590.1689 C -225.9896,590.7689 -224.4896,592.0689 -223.9896,593.9689 C -223.0906,595.9689 -222.8896,597.8689 -223.5906,599.5699 C -224.9896,602.6699 -227.8906,604.1699 -232.2896,604.0699 C -231.2896,607.1699 -228.3906,608.8699 -223.3906,609.1699 C -216.4906,608.1699 -212.8906,605.2699 -212.5906,600.3699 C -211.7896,594.4699 -211.9896,588.5699 -213.0906,582.5699 C -213.1906,582.3699 -213.2896,582.2689 -213.3906,582.2689 C -214.8906,580.4689 -216.5906,579.5699 -218.1906,579.4689 C -220.7906,579.5699 -223.2906,580.4689 -225.6906,582.0699 C -228.0896,584.3689 -229.0896,587.0689 -228.4896,590.1689 z "
         style="fill:#ffcd50;stroke:#003d8f"
         id="path3477" />
      <path
         d="M -250.2896,595.2689 L -249.6896,594.7689 C -247.0896,593.2689 -244.7896,591.7689 -243.0896,589.9689 L -250.5896,594.7689 C -250.4896,594.9689 -250.3896,595.0689 -250.2896,595.2689 z "
         style="fill:#ffcd50;stroke:#003d8f;stroke-opacity:1"
         id="path3479" />
      <line
         x1="-265.28958"
         y1="225.06889"
         x2="-267.78958"
         y2="225.36891"
         id="line3885"
         style="fill:#ffcd50;stroke:#003d8f;stroke-linecap:round;stroke-linejoin:round;stroke-opacity:1" />
    </g>
    <use
       transform="matrix(-1,0,0,1,2595.8891,-3.2311064e-7)"
       id="use2246"
       x="0"
       y="0"
       width="251"
       height="304.20001"
       xlink:href="#lion" />
    <path
       d="M 1306.9606,831.21784 L 1309.6074,831.21784 C 1309.569,832.4071 1309.5499,833.11677 1309.5499,833.34686 L 1309.7225,841.80537 L 1309.3773,849.40078 L 1309.6074,857.85929 L 1309.6074,864.53404 L 1309.7225,873.62551 C 1309.7225,875.04489 1309.6841,877.19308 1309.6074,880.0701 L 1310.8158,880.12764 L 1314.9012,880.12764 L 1318.814,880.18518 L 1322.0363,880.0701 C 1322.1129,881.2593 1322.1513,882.14159 1322.1514,882.71698 C 1322.1513,883.29241 1322.1129,884.1747 1322.0363,885.36386 C 1319.6579,885.47896 1318.3728,885.5365 1318.181,885.53648 L 1315.304,885.47894 L 1313.0024,885.47894 C 1312.3885,885.47896 1311.2569,885.4406 1309.6074,885.36386 C 1309.5307,890.81109 1309.5307,898.04206 1309.6074,907.05679 C 1309.3772,907.28696 1309.1279,907.4404 1308.8594,907.51712 L 1305.2919,907.6322 C 1304.5246,907.6322 1303.3546,907.59384 1301.7819,907.51712 C 1301.8969,902.99057 1301.9545,899.7491 1301.9545,897.7927 C 1301.9545,896.06649 1301.9161,894.4937 1301.8394,893.07435 C 1301.7243,890.46584 1301.6668,888.96978 1301.6668,888.58615 C 1301.6668,887.89568 1301.7051,886.82158 1301.7819,885.36386 C 1300.1707,885.55569 1298.924,885.65159 1298.0417,885.65157 C 1297.5814,885.65159 1297.0635,885.63241 1296.4881,885.59403 C 1292.6137,885.40224 1290.4271,885.30634 1289.9284,885.30632 C 1289.4297,885.30634 1288.2022,885.4406 1286.2458,885.70911 L 1280.3191,885.36386 L 1277.0968,885.53648 L 1274.9103,885.19124 L 1272.1483,885.76665 L 1271.6304,885.36386 C 1271.5537,884.51995 1271.5153,883.887 1271.5153,883.46501 C 1271.5153,883.04307 1271.5537,882.41012 1271.6304,881.56616 C 1272.7045,880.14684 1274.6801,877.2698 1277.5571,872.93502 L 1288.7776,856.65094 C 1291.5396,852.5464 1293.8604,849.28575 1295.7401,846.86898 C 1297.6197,844.45232 1299.4802,841.85339 1301.3215,839.07218 C 1303.1628,836.2911 1305.0425,833.67299 1306.9606,831.21784 L 1306.9606,831.21784 z M 1301.7819,880.0701 L 1301.8394,870.63338 L 1301.7819,863.15306 L 1301.7819,843.87685 C 1298.6363,848.01985 1294.2632,854.29181 1288.6625,862.69273 C 1282.2563,872.28292 1278.4586,878.07537 1277.2694,880.0701 C 1278.9573,879.9934 1280.2232,879.95504 1281.0671,879.95501 L 1296.8333,880.18518 C 1297.9841,880.1852 1299.6336,880.14684 1301.7819,880.0701 L 1301.7819,880.0701 z "
       style="font-size:117.84383392px;font-style:normal;font-weight:normal;fill:#ffcd50;fill-opacity:1;stroke:none;stroke-width:1px;stroke-linecap:butt;stroke-linejoin:miter;stroke-opacity:1;font-family:Times New Roman"
       id="text2252" />
    <g
       transform="matrix(0.4626193,0,0,0.4626193,1376.6842,789.04785)"
       id="g2334">
      <g
         transform="matrix(1.776355,0,0,1.776355,-341.44946,24.107663)"
         style="fill:#ffcd50;fill-opacity:1;stroke:none"
         id="Kunglig-krona">
        <path
           d="M 36.375,11.125 C 27.101911,15.711873 12.877061,16.909763 15.125,28.40625 L 17.625,42.28125 C 17.624999,42.281249 25.138517,36.851407 37.1875,36.851406 C 49.355585,36.851406 54.625,42.28125 54.625,42.28125 C 55.850843,37.691938 58.436107,32.116729 58.96875,27.90625 C 61.374598,17.820718 46.700837,14.22053 38.15625,11.125 L 38.15625,12.46875 C 43.800911,15.514331 58.827186,18.83992 57,27.6875 C 56.772695,27.735478 56.573247,27.845522 56.4375,28 C 55.770035,28.75956 56.5625,31.15625 56.5625,31.15625 C 56.562498,31.156251 53.122339,28.471468 53.1875,32.03125 C 53.248734,35.410203 56.4375,32.562501 56.4375,32.5625 C 56.477741,33.842577 55.806936,35.214423 54.59375,35.75 C 54.593749,35.749999 52.717457,34.908688 49.90625,34 C 48.953755,33.328662 48.341649,32.310367 48.0625,31.15625 C 48.062499,31.15625 51.451143,34.221691 51.4375,30.5625 C 51.425496,27.335893 48.21875,29.749999 48.21875,29.75 C 48.218747,29.749999 50.408811,26.124949 47.34375,26.125 C 44.255252,26.12505 46.53125,29.75 46.53125,29.75 C 46.531249,29.749999 43.191889,26.99194 43.375,30.5 C 43.540329,33.698776 46.499993,31.15625 46.5,31.15625 C 46.490842,31.787986 46.334849,32.377504 46.0625,32.90625 C 43.893979,32.384346 41.468558,31.929041 39,31.78125 C 38.594002,31.156483 38.283154,30.475097 38.09375,29.75 C 38.093749,29.75 41.437699,32.457348 41.53125,29.15625 C 41.637186,25.41817 38.15625,28.34375 38.15625,28.34375 C 39.352514,26.614068 39.867657,24.71875 37.25,24.71875 C 34.488871,24.71875 34.990692,26.63422 36.21875,28.34375 C 36.218748,28.34375 32.769058,25.418169 32.875,29.15625 C 32.968552,32.457349 36.28125,29.75 36.28125,29.75 C 36.107422,30.48573 35.780797,31.158873 35.375,31.78125 C 32.906442,31.929041 30.481022,32.384346 28.3125,32.90625 C 28.059201,32.371513 27.938415,31.777584 27.90625,31.15625 C 27.90625,31.15625 30.834666,33.698775 31,30.5 C 31.183113,26.991941 27.875,29.75 27.875,29.75 C 27.874999,29.749999 30.119743,26.125051 27.03125,26.125 C 23.966187,26.124949 26.15625,29.75 26.15625,29.75 C 26.156249,29.749999 22.949506,27.335892 22.9375,30.5625 C 22.923864,34.221692 26.3125,31.15625 26.3125,31.15625 C 26.068166,32.369225 25.361694,33.350482 24.375,34.03125 C 22.817118,34.529873 21.298001,35.138947 19.78125,35.75 C 18.553935,35.187877 17.926077,33.861812 17.9375,32.5625 C 17.937501,32.562501 21.126262,35.410205 21.1875,32.03125 C 21.252652,28.471467 17.8125,31.15625 17.8125,31.15625 C 17.812499,31.156251 18.541001,29.629576 17.9375,28 C 17.735895,27.765607 17.392286,27.664131 17,27.65625 C 15.579328,19.781195 30.910528,14.139595 36.375,12.46875 L 36.375,11.125 z "
           transform="matrix(1.4234,0,0,1.4234,44.75332,-27.13364)"
           style="fill:#ffcd50;fill-opacity:1;fill-rule:evenodd;stroke:none;stroke-width:0.52988458;stroke-linecap:butt;stroke-linejoin:miter;stroke-miterlimit:4;stroke-dasharray:none;stroke-opacity:1"
           id="path4130" />
        <path
           d="M 81.544714,10.640456 C 78.174623,-0.26071352 89.086597,-5.7695739 96.1362,-11.557091 L 96.1362,-9.9800535 C 90.642601,-4.2221298 83.399816,1.5324824 84.604171,10.577374 L 81.544714,10.640456 z "
           style="fill:#ffcd50;fill-opacity:1;fill-rule:evenodd;stroke:none;stroke-width:0.52988458;stroke-linecap:butt;stroke-linejoin:miter;stroke-miterlimit:4;stroke-dasharray:none;stroke-opacity:1"
           id="path3157" />
        <path
           d="M 113.75771,11.011696 C 117.12746,0.11526233 106.46599,-5.762029 99.426732,-11.557091 L 99.426732,-9.9800535 C 105.13525,-3.9402583 112.2215,1.8744989 110.69825,10.948614 L 113.75771,11.011696 z "
           style="fill:#ffcd50;fill-opacity:1;fill-rule:evenodd;stroke:none;stroke-width:0.52988458;stroke-linecap:butt;stroke-linejoin:miter;stroke-miterlimit:4;stroke-dasharray:none;stroke-opacity:1"
           id="path4128" />
        <path
           d="M 95.996078,-10.421672 L 99.388334,-10.421672 L 99.388334,8.7344484 L 95.996078,8.7344484 L 95.996078,-10.421672 z "
           style="fill:#ffcd50;fill-opacity:1;stroke:none;stroke-width:0.52988458;stroke-miterlimit:4;stroke-opacity:1"
           id="rect3155" />
        <path
           d="M 96.243918,-25.733522 L 96.243918,-22.249556 L 93.311138,-22.249556 L 93.311138,-19.551488 L 96.243918,-19.551488 L 96.243918,-14.908042 L 98.935651,-14.908042 L 98.935651,-19.554254 L 102.07326,-19.554254 L 102.07326,-22.252324 L 98.935651,-22.252324 L 98.935651,-25.733522 L 96.243918,-25.733522 z "
           style="fill:#ffcd50;fill-opacity:1;stroke:none;stroke-width:0.52988458;stroke-miterlimit:4;stroke-dasharray:none;stroke-opacity:1"
           id="rect7058" />
        <path
           d="M 437.90112,-2.4896135 C 437.90112,30.286534 411.3308,56.856851 378.55466,56.856851 C 345.77851,56.856851 319.20819,30.286534 319.20819,-2.4896135 C 319.20819,-35.265761 345.77851,-61.836078 378.55466,-61.836078 C 411.3308,-61.836078 437.90112,-35.265761 437.90112,-2.4896135 z "
           transform="matrix(8.83141e-2,0,0,8.83141e-2,64.26065,-9.630068)"
           style="fill:#ffcd50;fill-opacity:1;stroke:none;stroke-width:6;stroke-miterlimit:4;stroke-dasharray:none;stroke-opacity:1"
           id="path5109" />
      </g>
    </g>
  </g>
</svg>
