<?xml version="1.0" encoding="UTF-8" standalone="no"?>
<!-- Created with Inkscape (http://www.inkscape.org/) -->
<svg
   xmlns:dc="http://purl.org/dc/elements/1.1/"
   xmlns:cc="http://web.resource.org/cc/"
   xmlns:rdf="http://www.w3.org/1999/02/22-rdf-syntax-ns#"
   xmlns:svg="http://www.w3.org/2000/svg"
   xmlns="http://www.w3.org/2000/svg"
   version="1.0"
   width="251"
   height="304.20001"
   id="svg4166">
  <defs
     id="defs4168" />
  <metadata
     id="metadata1880"><rdf:RDF><cc:Work
         rdf:about=""><dc:title>Simrishamn kommunvapen</dc:title><dc:date>10-10-2007</dc:date><dc:creator><cc:Agent><dc:title>Lokal_Profil</dc:title></cc:Agent></dc:creator><cc:license
         rdf:resource="http://creativecommons.org/licenses/by-sa/2.5/" /><dc:rights><cc:Agent><dc:title>cc-by-sa-2.5</dc:title></cc:Agent></dc:rights><dc:format>image/svg+xml</dc:format><dc:type
         rdf:resource="http://purl.org/dc/dcmitype/StillImage" /></cc:Work><cc:License
         rdf:about="http://creativecommons.org/licenses/by-sa/2.5/"><cc:permits
         rdf:resource="http://web.resource.org/cc/Reproduction" /><cc:permits
         rdf:resource="http://web.resource.org/cc/Distribution" /><cc:requires
         rdf:resource="http://web.resource.org/cc/Notice" /><cc:requires
         rdf:resource="http://web.resource.org/cc/Attribution" /><cc:permits
         rdf:resource="http://web.resource.org/cc/DerivativeWorks" /><cc:requires
         rdf:resource="http://web.resource.org/cc/ShareAlike" /></cc:License></rdf:RDF>
  </metadata>
  <path
     d="M 249.55058,1.4395041 L 1.4495291,1.4395041 L 1.4495291,174.9361 C 0.68228908,268.65698 81.738969,302.75585 125.50006,302.75585 C 168.49391,302.75585 250.31781,268.65698 249.55058,174.9361 L 249.55058,1.4395041 z "
     style="color:#000000;fill:#ffcd50;fill-opacity:1;stroke:none"
     id="Shield" />
  <path
     d="M 33.406157,130.18751 C 16.398345,130.18752 11.537038,140.65543 1.4374072,146.59376 L 1.4374072,174.93751 C 0.67016719,268.65839 81.738816,302.75001 125.49991,302.75001 C 168.49376,302.75 250.32964,268.65839 249.56241,174.93751 L 249.56241,142.50001 C 242.67469,136.80388 236.79092,130.18751 223.28116,130.18751 C 199.54415,130.18752 199.58066,150.62501 175.84366,150.62501 C 152.10665,150.625 152.11192,130.18751 128.37491,130.18751 C 104.6379,130.18752 104.64317,150.62501 80.906157,150.62501 C 57.169137,150.625 57.14316,130.18751 33.406157,130.18751 z "
     style="color:#000000;fill:#003d8f;fill-opacity:1;fill-rule:nonzero;stroke:none;stroke-width:1.88832211;stroke-linecap:round;stroke-linejoin:bevel;marker:none;marker-start:none;marker-mid:none;marker-end:none;stroke-miterlimit:4;stroke-dashoffset:0;stroke-opacity:1;visibility:visible;display:block"
     id="wave-divider" />
  <g
     transform="matrix(0.564102,0,0,0.564102,-5.558442,-72.23488)"
     id="Boat">
    <path
       d="M 37.330912,179.09733 C 42.330912,219.09733 53.665242,274.64155 69.330912,290.59733 C 82.830912,304.34733 102.82712,314.09733 111.08091,314.09733 C 136.08091,314.09733 346.08091,314.09733 346.08091,314.09733 C 361.08091,314.84733 386.49371,286.67094 401.58091,264.34733 C 416.59021,242.13904 419.37101,227.40841 427.33091,204.09733 C 427.33091,204.09733 368.52751,233.59733 247.33091,234.09733 C 126.38303,234.5963 97.330907,210.09733 72.330912,200.09733 L 72.330912,189.09733 L 37.330912,179.09733 z "
       style="fill:#d40000;fill-opacity:1;fill-rule:evenodd;stroke:none;stroke-width:2.66590834;stroke-linecap:butt;stroke-linejoin:miter;stroke-miterlimit:4;stroke-dasharray:none;stroke-opacity:1"
       id="path2164" />
    <path
       d="M 57.788542,227.81781 C 57.788542,227.81781 122.84236,265.29447 246.58604,266.35513 C 370.32971,267.41579 411.69551,218.62542 411.69551,218.62542 C 411.69551,218.62542 374.92591,281.55793 365.02641,290.75031 C 355.12693,299.9427 328.25688,303.12468 328.25688,303.12468 C 328.25688,303.12468 138.75226,303.83179 128.85277,303.83179 C 118.95327,303.83179 110.46799,305.246 85.365702,289.68965 C 60.263412,274.1333 53.015572,195.37929 53.015572,195.37929 L 72.549392,200.24064"
       style="fill:none;fill-opacity:0.75;fill-rule:evenodd;stroke:#ffcd50;stroke-width:2;stroke-linecap:butt;stroke-linejoin:miter;stroke-miterlimit:4;stroke-dasharray:none;stroke-opacity:1"
       id="path3132" />
    <path
       d="M 66.273822,260.34472 C 66.273822,260.34472 139.10582,297.46783 239.16142,296.40717 C 339.21703,295.34651 377.75431,272.36554 377.75431,272.36554"
       style="fill:none;fill-opacity:0.75;fill-rule:evenodd;stroke:#ffcd50;stroke-width:2;stroke-linecap:butt;stroke-linejoin:miter;stroke-miterlimit:4;stroke-dasharray:none;stroke-opacity:1"
       id="path3134" />
  </g>
  <g
     transform="matrix(1.498274,0,0,1.498274,31.02743,-109.1142)"
     id="Fisk">
    <path
       d="M 130.67086,199.54641 C 134.49642,205.18547 133.20865,219.71731 131.22876,229.7381 C 130.48113,229.90908 119.16286,221.60281 119.09271,219.79216 C 120.9965,214.16307 121.7263,215.20576 119.58284,210.09507 C 121.41395,206.02565 128.98886,197.06707 130.67086,199.54641 z "
       style="fill:#d40000;fill-opacity:1"
       id="path3753" />
    <path
       d="M 97.311715,226.60466 C 99.182808,224.27841 94.071955,222.49051 91.587885,222.00643 C 85.605515,223.87279 79.247554,226.23015 80.019054,227.42835 C 80.778114,228.60724 89.594965,235.0668 91.739685,232.71491 L 97.311715,226.60466 z "
       style="fill:#d40000;fill-opacity:1"
       id="path3759" />
    <path
       d="M 51.553807,231.94121 L 64.514889,230.33642 C 66.249267,231.77694 69.998857,235.62871 69.494677,236.06086 C 64.609074,240.24852 62.530729,241.34898 58.851437,243.03113 C 55.207806,240.83662 52.310483,235.90724 51.553807,231.94121 z "
       style="fill:#d40000;fill-opacity:1"
       id="path3743" />
    <path
       d="M 52.617658,199.66233 C 56.564774,199.63956 69.092191,200.97009 75.244168,203.24539 C 76.303138,200.73326 79.007608,198.81022 75.992658,197.13108 C 72.567968,195.22373 69.272058,193.29128 65.492658,192.22483 C 60.869536,191.44784 57.613662,193.36021 54.648908,195.22483 C 45.925393,200.71129 48.670542,199.6851 52.617658,199.66233 z "
       style="fill:#d40000;fill-opacity:1"
       id="path3757" />
    <path
       d="M 90.584506,206.93042 C 90.584506,205.73575 102.01718,202.2801 104.16139,204.63843 C 105.66059,206.28733 104.05085,206.83764 100.58451,208.48347 C 97.396336,209.51035 93.351696,208.65817 90.584506,206.93042 z "
       style="fill:#d40000;fill-opacity:1"
       id="path3755" />
    <path
       d="M 48.71875,199.90625 C 44.033768,199.85439 39.341166,200.12538 34.65625,200.65625 C 27.6442,201.7521 19.727227,203.53767 10,206.09375 C 8.26579,206.54946 6.5309418,207.02792 4.90625,207.46875 C 0.072108987,208.83104 -3.870147,210.09162 -4.75,210.5625 C -4.9353186,210.70514 -5.0934754,210.85897 -5.25,211 C -10.102263,215.37185 -1.3344503,218.94901 8.5,221.3125 C 10.429771,221.77628 11.82778,222.27019 11.53125,222.75 C 10.58301,224.28428 7.77388,223.69482 1.21875,220.59375 C -2.7627079,218.71022 -4.288906,218.48718 -3.71875,219.25 C -1.9527545,220.59301 0.28161616,221.87478 2.40625,223.09375 C 10.51126,227.13264 15.6673,226.31124 18.65625,220.53125 C 20.27142,217.40786 19.909859,212.40095 17.875,209.875 C 17.18947,209.02402 17.228559,208.62499 17.96875,208.625 C 19.69208,208.625 21.42142,212.77138 21.28125,216.5 C 21.15079,219.97034 18.95518,224.23158 16.28125,226.21875 C 15.12593,227.07734 16.74865,227.78107 23.71875,229.46875 C 26.327587,230.10043 28.612019,230.55276 30.96875,230.875 C 31.753965,230.98081 32.528987,231.07996 33.34375,231.15625 C 33.354186,231.15725 33.364556,231.15525 33.375,231.15625 C 34.180295,231.23126 35.01257,231.29488 35.875,231.34375 C 36.758336,231.39578 37.652536,231.44178 38.625,231.46875 C 40.545758,231.51947 42.68229,231.52954 45.125,231.5 C 50.28125,231.43765 55.488672,231.27951 58.46875,231.125 C 59.462109,231.07224 60.2125,231.01916 60.625,230.96875 C 61.868531,230.81677 63.060185,230.66151 64.1875,230.5 C 66.460468,230.1741 68.521442,229.82235 70.40625,229.4375 C 72.291058,229.05265 74.017786,228.62715 75.625,228.15625 C 78.033261,227.44957 80.184048,226.63241 82.28125,225.65625 C 83.980532,224.86531 85.59669,224.14609 87.15625,223.53125 C 89.053983,222.7847 90.891122,222.16358 92.6875,221.65625 C 95.419361,220.88265 98.105169,220.38504 100.9375,220.09375 C 102.06094,219.97888 103.22265,219.89229 104.40625,219.84375 C 104.41636,219.84334 104.42738,219.84416 104.4375,219.84375 C 106.21992,219.7717 108.10224,219.78043 110.09375,219.84375 C 112.44996,219.91867 114.21941,219.96872 115.5625,219.96875 C 117.57976,219.9694 118.64069,219.83533 119.28125,219.46875 C 119.49368,219.34631 119.64167,219.21219 119.78125,219.03125 C 119.92083,218.85031 120.04943,218.62328 120.15625,218.375 C 120.26307,218.12672 120.35458,217.85571 120.46875,217.53125 C 120.59501,217.17244 120.70141,216.75026 120.78125,216.3125 C 120.86295,215.86456 120.9091,215.40949 120.9375,214.9375 C 120.96343,214.48597 120.96368,214.04666 120.9375,213.625 C 120.93685,213.61437 120.93819,213.60435 120.9375,213.59375 C 120.92414,213.38924 120.90124,213.188 120.875,213 C 120.8735,212.98938 120.87655,212.97931 120.875,212.96875 C 120.84668,212.77204 120.82424,212.60879 120.78125,212.4375 C 120.40081,210.92172 120.15848,210.31604 118.3125,210.1875 C 117.20712,210.11506 115.52823,210.20872 112.875,210.375 C 111.35713,210.47013 109.89873,210.50851 108.40625,210.46875 C 107.41091,210.44234 106.40081,210.38087 105.34375,210.28125 C 103.7589,210.13163 102.07485,209.90683 100.1875,209.5625 C 97.677609,209.1051 94.79267,208.43785 91.34375,207.5625 C 91.334814,207.56023 91.321444,207.56477 91.3125,207.5625 C 89.589861,207.12503 87.730371,206.61984 85.6875,206.0625 C 85.678667,206.06009 85.665089,206.06491 85.65625,206.0625 C 83.600959,205.50162 81.374725,204.88018 78.9375,204.1875 C 68.751246,201.45298 58.724428,200.01701 48.71875,199.90625 z "
       style="fill:#ffcd50;fill-opacity:1;stroke:#ffcd50;stroke-width:0.79681402;stroke-miterlimit:4;stroke-dasharray:none;stroke-opacity:1"
       id="path3745" />
    <path
       d="M 9.3619278,210.20266 C 9.4618878,210.21557 9.5554878,210.26276 9.6431778,210.29641 C 11.129178,210.86664 11.686768,214.72159 10.455678,215.95266 C 8.9924178,217.41593 5.1119178,215.65387 5.1119278,213.51516 C 5.1119278,212.07469 7.8624678,210.00899 9.3619278,210.20266 z "
       style="fill:#003d8f;fill-opacity:1"
       id="path3749" />
    <path
       d="M 8.5668608,211.43671 C 7.4751648,211.51385 6.4986828,212.5742 6.4986978,214.01042 C 6.4986978,214.68449 7.1163158,215.25132 7.8774728,215.25132 C 9.8735868,215.25132 11.190887,212.65252 9.6698808,211.71246 C 9.3143258,211.49273 8.9307548,211.411 8.5668608,211.43671 z "
       style="fill:#ffcd50;fill-opacity:1"
       id="path3751" />
    <path
       d="M 8.4859968,212.44945 C 7.9746618,212.48558 7.5172918,212.98223 7.5172988,213.65494 C 7.5172988,213.97066 7.8065828,214.23616 8.1630968,214.23616 C 9.0980478,214.23616 9.7150518,213.01892 9.0026348,212.57861 C 8.8360978,212.47569 8.6564388,212.43741 8.4859968,212.44945 z "
       style="fill:#003d8f;fill-opacity:1"
       id="path3761" />
    <path
       d="M 23.383588,216.31949 C 26.569364,216.92299 41.357837,211.22295 40.112408,217.51058 C 36.223276,225.46698 29.465826,223.21022 22.112408,222.39377 C 22.112408,222.39377 23.383588,216.31949 23.383588,216.31949 z "
       style="fill:#d40000;fill-opacity:1;stroke:none;stroke-opacity:1"
       id="path3763" />
  </g>
  <path
     d="M 249.55062,1.4395041 L 1.449569,1.4395041 L 1.449569,174.9361 C 0.68232904,268.65698 81.739009,302.75585 125.5001,302.75585 C 168.49395,302.75585 250.31785,268.65698 249.55062,174.9361 L 249.55062,1.4395041 z "
     style="fill:none;fill-opacity:0;stroke:#000000;stroke-width:1.88832211;stroke-linejoin:bevel"
     id="Frame" />
</svg>
