<?xml version="1.0" encoding="UTF-8" standalone="no"?>
<!-- Created with Inkscape (http://www.inkscape.org/) -->
<svg
   xmlns:dc="http://purl.org/dc/elements/1.1/"
   xmlns:cc="http://web.resource.org/cc/"
   xmlns:rdf="http://www.w3.org/1999/02/22-rdf-syntax-ns#"
   xmlns:svg="http://www.w3.org/2000/svg"
   xmlns="http://www.w3.org/2000/svg"
   xmlns:xlink="http://www.w3.org/1999/xlink"
   version="1.0"
   width="251"
   height="304.20001"
   id="svg4166">
  <defs
     id="defs4168" />
  <metadata
     id="metadata1880"><rdf:RDF><cc:Work
         rdf:about=""><dc:title>Angelholms kommunvapen</dc:title><dc:date>27-09-2007</dc:date><dc:creator><cc:Agent><dc:title>Lokal_Profil</dc:title></cc:Agent></dc:creator><cc:license
         rdf:resource="http://creativecommons.org/licenses/by-sa/2.5/" /><dc:rights><cc:Agent><dc:title>cc-by-sa-2.5</dc:title></cc:Agent></dc:rights><dc:format>image/svg+xml</dc:format><dc:type
         rdf:resource="http://purl.org/dc/dcmitype/StillImage" /></cc:Work><cc:License
         rdf:about="http://creativecommons.org/licenses/by-sa/2.5/"><cc:permits
         rdf:resource="http://web.resource.org/cc/Reproduction" /><cc:permits
         rdf:resource="http://web.resource.org/cc/Distribution" /><cc:requires
         rdf:resource="http://web.resource.org/cc/Notice" /><cc:requires
         rdf:resource="http://web.resource.org/cc/Attribution" /><cc:permits
         rdf:resource="http://web.resource.org/cc/DerivativeWorks" /><cc:requires
         rdf:resource="http://web.resource.org/cc/ShareAlike" /></cc:License></rdf:RDF>
  </metadata>
  <path
     d="M 249.55058,1.4395041 L 1.4495291,1.4395041 L 1.4495291,174.9361 C 0.68228908,268.65698 81.738969,302.75585 125.50006,302.75585 C 168.49391,302.75585 250.31781,268.65698 249.55058,174.9361 L 249.55058,1.4395041 z "
     style="fill:#003d8f;stroke:none"
     id="Shield" />
  <use
     transform="matrix(-1,0,0,1,251.0004,0)"
     id="Lax-2"
     x="0"
     y="0"
     width="251"
     height="304.20001"
     xlink:href="#Lax" />
  <g
     transform="matrix(0.358344,0.250914,-0.250914,0.358344,55.79349,82.01061)"
     id="Lax">
    <path
       d="M 442.1552,81.482275 C 442.1552,81.482275 470.16642,55.316672 494.72988,47.949843 C 500.2782,46.285846 505.85287,48.097233 505.85287,48.097233 C 512.70367,65.423219 502.28382,97.343465 500.0626,109.5431 C 500.36455,118.80904 512.1778,130.28632 506.5608,172.05435 C 485.25038,172.91101 457.95798,148.7888 443.29989,140.79023 L 455.12659,111.50567 L 442.1552,81.482275 z "
       style="fill:#eeeeee;stroke:#003d8f;stroke-width:2.31299901;stroke-linecap:butt"
       id="path27036" />
    <path
       d="M 274.93851,73.115584 C 271.02147,75.111363 234.15696,75.063128 236.23709,68.493737 C 238.31722,61.924346 253.87508,34.209065 275.54893,23.958782 C 288.71753,32.05099 290.51374,44.383765 302.83069,56.683936 C 303.64031,57.984849 303.81668,60.58513 301.8409,61.197053 C 290.69841,64.64802 278.85555,71.119805 274.93851,73.115584 z "
       style="fill:#eeeeee;stroke:#003d8f;stroke-width:2.31299901;stroke-linecap:butt"
       id="path27012" />
    <path
       d="M 277.09764,162.20848 C 277.09764,162.20848 212.4624,133.04011 248.41171,168.21856 C 283.40351,201.96075 288.15832,198.26466 288.95624,198.26466 C 302.62647,198.26466 298.92164,169.81126 298.46425,168.76597 C 298.11057,167.95769 296.82394,166.59128 295.89876,166.46315 C 289.06685,165.51702 277.09764,162.20848 277.09764,162.20848 z "
       style="fill:#eeeeee;stroke:#003d8f;stroke-width:2.31299901;stroke-linecap:butt"
       id="path27102" />
    <path
       d="M 380.90968,132.69006 C 364.8474,122.84849 338.09227,139.03897 344.42173,148.72263 C 350.75119,158.40629 366.12669,177.24311 382.41218,181.77455 C 384.54261,181.84032 387.50164,180.69285 388.44102,179.57715 C 399.60425,166.31866 399.88395,159.74265 400.07366,157.73284 C 410.62261,143.28712 406.91015,139.21243 406.91015,139.21243 C 405.95879,135.97576 396.97196,142.53163 380.90968,132.69006 z "
       style="fill:#eeeeee;stroke:#003d8f;stroke-width:2.31299901;stroke-linecap:butt"
       id="path27082" />
    <path
       d="M 385.23267,91.64544 C 374.82232,93.80971 331.86441,81.62324 358.74423,81.88289 C 385.62405,82.14254 384.12232,68.777153 400.63838,76.00438 C 416.93225,83.134383 395.64302,89.48117 385.23267,91.64544 z "
       style="fill:#eeeeee;stroke:#003d8f;stroke-width:2.31299901;stroke-linecap:butt"
       id="path27032" />
    <path
       d="M 57.46529,130.4699 C 52.799508,129.34097 35.821451,132.30566 30.189836,120.19086 C 27.638587,119.86264 25.94016,121.53379 25.94016,121.53379 C 23.282723,122.48075 23.023488,125.81576 23.023488,125.81576 C 57.085094,171.78282 235.36006,168.93466 247.1497,168.02609 C 284.51884,165.09314 309.82128,157.55675 338.00396,157.83463 C 341.31653,157.39504 344.03094,153.20141 346.31961,152.5287 C 366.3027,146.65504 380.51134,136.38392 393.68162,132.50881 C 402.18718,130.64208 406.12411,131.2676 413.33018,130.8853 C 437.81886,129.22469 441.42479,141.15812 445.18918,140.63807 C 470.02677,140.4498 470.95509,81.46015 442.77365,81.34609 C 442.77365,81.34609 438.58109,90.22526 414.36389,94.34101 C 351.02353,80.35576 324.05804,68.81107 237.51793,64.55185 C 232.49482,64.29281 160.54876,60.136 98.42288,86.90551 C 76.411449,88.14974 48.722529,101.04487 48.722529,101.04487 C 48.722529,101.04487 28.676849,101.37513 29.782692,109.70814 C 33.987899,114.58503 54.958376,112.20898 66.391141,125.98678 C 70.917227,133.57691 62.160564,131.45887 57.46529,130.4699 z "
       style="fill:#eeeeee;stroke:#003d8f;stroke-width:2.31299901;stroke-linecap:butt"
       id="path27112" />
    <path
       d="M 96.38125,98.55367 C 122.93862,89.75073 129.7712,104.93611 126.06102,120.71341 C 122.15976,137.30329 99.06675,152.8523 90.24967,156.85131"
       style="fill:none;stroke:#003d8f;stroke-width:1.19354832px;stroke-linecap:butt"
       id="path27114" />
    <path
       d="M 122.86621,134.23399 C 133.04228,114.98751 137.8144,96.10967 108.29374,92.23743"
       style="fill:none;stroke:#003d8f;stroke-width:1.19354832px;stroke-linecap:butt"
       id="path27128" />
    <path
       d="M 114.00205,153.63437 C 124.96384,151.5852 122.29782,145.70714 121.95899,144.23514 C 132.43301,142.68118 155.02323,124.94942 177.42449,134.14811 C 177.71375,150.69382 153.53751,160.21599 149.9382,160.89864 C 132.966,159.98608 124.01065,155.52458 114.00205,153.63437 z "
       style="fill:#eeeeee;stroke:#003d8f;stroke-width:2.31299901;stroke-linecap:butt"
       id="path27192" />
    <g
       id="g2711">
      <path
         d="M 61.777163,107.65207 C 62.676976,109.8214 70.158345,112.76889 71.931458,112.92421 C 73.70457,113.07951 75.110563,112.80957 77.353808,112.09782 C 80.29275,111.16533 82.791749,108.13451 82.651633,105.94196 C 82.445201,102.71167 79.345512,100.64621 72.73249,100.96541 C 69.59262,101.11697 61.107244,106.03698 61.777163,107.65207 z "
         style="fill:#003d8f;stroke:none"
         id="path27212" />
      <path
         d="M 72.393334,101.91468 C 69.864479,102.38531 68.564244,103.1995 68.822701,104.8182 C 69.081158,106.4369 71.035706,109.6213 73.722487,109.29931 C 76.409268,108.97733 80.530753,106.43202 79.243584,104.04408 C 78.305517,102.30379 76.565441,101.14577 72.393334,101.91468 z "
         style="fill:#eeeeee;stroke:none"
         id="path27214" />
    </g>
  </g>
  <path
     d="M 75.5,85.260298 C 82.660896,95.397147 86.977012,107.26648 87.999995,119.6353 L 87.999995,138.3853 C 112.8264,134.21864 138.17361,134.21864 162.99999,138.3853 L 162.99999,119.6353 C 164.02298,107.26648 168.3391,95.397147 175.5,85.260298 C 172.44189,82.479648 167.73889,82.591338 164.81621,85.514016 C 161.89354,88.436695 161.78185,93.139682 164.5625,96.197796 L 162.30937,101.1544 C 160.99071,98.587394 158.08594,97.257002 155.28089,97.935363 C 152.47585,98.613713 150.49997,101.12441 150.5,104.01029 C 150.50002,105.93272 151.38474,107.74816 152.89882,108.93272 C 154.41292,110.11729 156.3879,110.53919 158.25382,110.07662 L 156.75001,113.3853 C 156.07754,115.40303 154.18935,116.76405 152.0625,116.76405 C 149.93566,116.76405 148.04747,115.40303 147.37501,113.3853 L 147.37501,94.635299 C 149.10089,94.635299 150.5,93.236191 150.5,91.510294 C 150.5,89.784412 149.10089,88.385299 147.37501,88.385299 C 145.6491,88.385299 144.25001,89.784412 144.25001,91.510294 C 144.24998,92.905636 145.175,94.131909 146.51666,94.515163 L 141.12499,113.3853 C 140.4031,115.66267 138.11641,117.0626 135.75988,116.66984 C 133.40333,116.27707 131.69426,114.21119 131.75001,111.8228 L 131.0441,105.82384 C 132.92911,107.28615 135.48217,107.54779 137.62461,106.49823 C 139.76704,105.44867 141.12511,103.27101 141.12499,100.8853 C 141.12499,98.233412 139.45147,95.870224 136.95,94.989807 C 134.4485,94.109376 131.66375,94.903427 130.00278,96.970718 L 129.61597,93.683565 C 132.83416,92.111002 134.87505,88.84215 134.875,85.260298 C 134.87495,80.780936 131.70611,76.927381 127.31111,76.062037 L 127.0625,74.3228 C 127.0625,73.459855 126.36295,72.7603 125.50001,72.7603 C 124.63707,72.7603 123.93751,73.459855 123.93751,74.3228 L 123.68889,76.062037 C 119.29391,76.927381 116.12507,80.780936 116.12499,85.260298 C 116.12494,88.84215 118.16584,92.111002 121.38403,93.683565 L 120.99723,96.970718 C 119.33626,94.903427 116.5515,94.109376 114.05,94.989807 C 111.54853,95.870224 109.875,98.233412 109.875,100.8853 C 109.87489,103.27101 111.23296,105.44867 113.3754,106.49823 C 115.51783,107.54779 118.07088,107.28615 119.95591,105.82384 L 119.25001,111.8228 C 119.30575,114.21119 117.59667,116.27707 115.24012,116.66984 C 112.88358,117.0626 110.59689,115.66267 109.875,113.3853 L 104.48333,94.515163 C 105.825,94.131909 106.75002,92.905636 106.75001,91.510294 C 106.75001,89.784412 105.35088,88.385299 103.62499,88.385299 C 101.89911,88.385299 100.5,89.784412 100.5,91.510294 C 100.5,93.236191 101.89911,94.635299 103.62499,94.635299 L 103.62499,113.3853 C 102.95253,115.40303 101.06434,116.76405 98.937499,116.76405 C 96.810649,116.76405 94.922459,115.40303 94.249989,113.3853 L 92.746173,110.07662 C 94.612119,110.53919 96.587099,110.11729 98.101169,108.93272 C 99.615259,107.74816 100.49998,105.93272 100.5,104.01029 C 100.50003,101.12441 98.524149,98.613713 95.719119,97.935363 C 92.914065,97.257002 90.009294,98.587394 88.690621,101.1544 L 86.437503,96.197796 C 89.218143,93.139682 89.106463,88.436695 86.183786,85.514016 C 83.261107,82.591338 78.558119,82.479648 75.5,85.260298 z "
     style="fill:#ffcd50;stroke:none"
     id="Crown" />
  <g
     transform="matrix(0.857295,0,0,0.857295,10.14948,1.30447)"
     id="Kerub">
    <path
       d="M 159.36208 33.08276 A 28.443104 18.558622 0 1 1  102.47587,33.08276 A 28.443104 18.558622 0 1 1  159.36208 33.08276 z"
       transform="matrix(0.80404,0,0,0.489131,28.9813,7.823387)"
       style="fill:#eeeeee;stroke:none"
       id="Gloria" />
    <path
       d="M 119.3642,62.449064 C 118.73105,60.549627 112.3297,57.856933 109.79712,57.223792 C 107.26455,56.590644 103.46568,56.590644 101.56625,54.058067 C 99.66681,51.525489 99.66681,46.460333 102.19939,40.762033 C 104.73197,35.063733 109.79712,28.732289 110.43027,23.667133 C 111.06341,18.601978 107.26455,14.803111 103.46568,12.903677 C 99.66681,11.004245 95.86795,11.004245 88.903364,14.169967 C 81.938772,17.335689 71.808461,23.667133 57.879286,33.1643 C 43.950108,42.661466 26.222063,55.324355 16.724897,62.288948 C 7.22773,69.253533 5.9614413,70.519822 6.285189,71.321803 C 6.608515,72.123791 8.522299,72.461464 11.054877,72.461464 C 13.587455,72.461464 16.738826,72.123791 19.581222,71.954951 C 22.423197,71.786111 24.955775,71.786111 31.287219,67.987244 C 37.618664,64.188378 47.748975,56.590644 53.447278,52.791778 C 59.145575,48.992911 60.411864,48.992911 56.612997,52.158636 C 52.81413,55.324355 43.950108,61.6558 38.251808,65.454667 C 32.553508,69.253533 30.02093,70.519822 29.711534,71.377944 C 29.401715,72.23649 31.3155,72.686444 33.214933,72.686444 C 35.114366,72.686444 36.999448,72.23649 39.208701,72.011091 C 41.41753,71.786111 43.950108,71.786111 48.382122,69.253533 C 52.81413,66.720955 59.145575,61.6558 62.311297,59.75637 C 65.477016,57.856933 65.477016,59.123222 63.577586,61.022659 C 61.678149,62.922089 57.879286,65.454667 55.346708,67.354097 C 52.81413,69.253533 51.547841,70.519822 51.913797,71.490643 C 52.279335,72.461464 54.277535,73.136817 56.176972,73.136817 C 58.076402,73.136817 59.877068,72.461464 62.044105,71.490643 C 64.210727,70.519822 66.743305,69.253533 69.275883,67.354097 C 71.808461,65.454667 74.341038,62.922089 75.607327,62.288948 C 76.873616,61.6558 76.873616,62.922089 74.974186,64.821525 C 73.074749,66.720955 69.275883,69.253533 67.376453,71.15297 C 65.477016,73.0524 65.477016,74.318689 66.743305,74.951836 C 68.009594,75.584978 70.542172,75.584978 73.074749,74.951836 C 75.607327,74.318689 78.139905,73.0524 80.039342,71.786111 C 81.938772,70.519822 83.205061,69.253533 84.105394,68.634321 C 85.006145,68.015527 85.540523,68.043385 84.752888,69.169117 C 83.964836,70.294842 81.854355,72.517605 81.277348,74.051503 C 80.700765,75.584978 81.657233,76.42917 83.233343,76.738567 C 84.809029,77.048382 87.003927,76.822984 89.058268,75.824305 C 91.112191,74.825202 93.025975,73.0524 94.193493,72.377047 C 95.361437,71.701694 95.783533,72.123791 95.305296,73.066329 C 94.826641,74.009292 93.448071,75.472279 93.335372,76.626286 C 93.222673,77.779875 94.37668,78.624068 95.966295,78.99003 C 97.55634,79.355561 99.5824,79.243286 102.43872,78.610139 C 105.29462,77.976998 128.6656,78.53467 132.35177,77.38108"
       style="fill:#eeeeee;stroke:none"
       id="Wing" />
    <use
       transform="matrix(-1,0,0,1,269.1034,0)"
       id="Wing-2"
       x="0"
       y="0"
       width="251"
       height="304.20001"
       xlink:href="#Wing" />
    <g
       transform="translate(-183.9796,-101.0889)"
       id="Face">
      <path
         d="M 318.0625,127.40625 C 314.35825,127.37931 311.125,128.06062 308.15625,129.09375 C 306.06625,130.10075 304.05476,131.1285 301.96875,132.0625 C 299.37975,136.2385 299.95376,140.83951 300.09375,144.4375 C 301.53175,145.5195 302.25775,145.87476 301.46875,148.96875 C 301.51089,149.43315 301.52795,149.39522 301.5625,149.75 C 301.80676,150.76693 302.63553,151.41496 304.84375,151.125 C 307.86775,150.981 310.23449,151.4255 311.3125,152.9375 C 313.3985,154.8825 312.96025,156.81651 313.03125,158.6875 C 313.03125,159.9135 312.89425,161.0435 312.03125,161.6875 C 312.46425,162.8395 312.73474,164.16399 312.59375,166.25 C 311.65575,166.825 310.81276,166.664 310.09375,165.875 C 310.38375,165.227 310.379,164.5815 309.875,163.9375 C 310.308,160.4835 310.66477,159.19575 311.09375,157.46875 C 311.81275,155.81275 311.08925,154.8515 310.15625,154.0625 C 306.55825,152.1215 304.32101,152.58524 301.875,152.65625 C 301.805,153.16025 301.82,153.5585 301.75,154.0625 C 304.703,154.2035 307.36724,154.66399 308.15625,156.75 C 308.15625,157.469 307.94149,157.82775 307.4375,157.96875 C 306.5045,157.67975 306.05501,157.39126 305.625,157.03125 C 304.118,156.67225 304.27376,157.95349 304.34375,158.3125 C 303.83975,158.6765 303.41024,158.61651 302.90625,158.1875 C 302.83625,157.6835 302.82099,157.10626 302.75,156.53125 C 302.391,156.10225 302.04749,156.23001 301.6875,156.875 C 301.3285,160.261 302.03199,163.07001 302.75,165.875 C 304.91,171.133 307.81575,174.46526 311.34375,176.40625 C 314.29675,177.99225 314.78149,179.99251 316.9375,179.5625 C 320.2495,178.9885 321.41424,175.82051 325.15625,174.8125 C 327.53125,173.5165 329.828,172.08925 331.625,168.78125 C 333.136,165.53825 335.43749,164.22574 337.8125,163.21875 C 338.20225,160.41751 337.56673,159.75763 339.0625,158.09375 C 338.86882,155.83725 337.50412,154.32995 336.25,152.71875 C 336.47437,152.135 336.83837,151.83136 337.34375,151.84375 C 337.64698,151.85119 338.002,151.97688 338.40625,152.21875 C 339.34025,153.29675 340.20351,154.5315 340.5625,156.6875 C 341.2115,150.9255 340.5345,147.3825 339.3125,144.9375 C 340.37556,141.3233 340.46875,141.40625 340.46875,141.40625 C 339.67975,138.66825 339.24225,135.44175 337.15625,134.21875 C 334.13225,134.57775 332.62425,127.66749 325.28125,128.3125 C 322.66188,127.69113 320.28505,127.42241 318.0625,127.40625 z M 301.875,152.65625 C 301.87501,152.65624 301.82045,152.39875 301.5625,149.75 C 301.82045,152.39875 301.87501,152.65624 301.875,152.65625 z M 314.4375,135.28125 C 316.11838,135.17851 317.80125,135.78062 318.65625,137.21875 C 319.23025,139.15975 318.67249,138.9725 318.3125,139.1875 C 316.7265,137.4605 314.98501,136.78875 312.25,137.21875 C 311.891,136.63975 311.19499,137.00774 311.625,136.21875 C 312.435,135.65175 313.42897,135.3429 314.4375,135.28125 z M 321.53125,137.84375 C 322.19614,137.79989 323.09325,137.88662 324.28125,138.15625 C 325.50325,139.01925 325.50325,139.76125 324.28125,140.40625 C 322.26525,139.75725 319.67149,139.73774 319.8125,139.09375 C 319.94687,138.37563 320.4231,137.91686 321.53125,137.84375 z M 327.25,139.5 C 328.30052,139.4093 329.26525,140.33475 330.34375,141.46875 C 329.47975,143.40975 329.54376,142.63249 328.96875,142.5625 C 328.89875,140.9055 325.65225,140.61276 326.15625,139.96875 C 326.535,139.6815 326.89983,139.53023 327.25,139.5 z M 304.625,139.59375 C 306.20701,139.80875 306.59025,140.23825 305.65625,141.03125 L 305.625,141.0625 C 304.04299,140.9925 303.55875,142.418 303.34375,144 C 302.76976,144.43 302.4025,144.21525 302.1875,143.28125 C 302.18749,140.83626 302.969,139.59375 304.625,139.59375 z M 332.40625,142.59375 C 332.67788,142.58765 332.88437,142.81563 333.0625,143.21875 C 332.7735,144.58575 333.42125,145.59 336.15625,145.875 C 338.38225,146.379 339.10149,148.04624 338.3125,150.78125 C 337.3045,151.49925 336.58525,151.49924 336.15625,150.78125 C 336.80425,148.18725 335.297,147.52276 333.5,147.09375 C 331.418,146.37475 330.40677,145.21874 331.84375,142.84375 C 332.0605,142.6825 332.24327,142.59741 332.40625,142.59375 z M 321.15625,150.875 C 323.39973,150.71347 325.92324,151.12 327.8125,153.0625 C 329.1055,153.6365 329.24649,154.301 328.3125,154.875 C 322.8395,152.215 321.24974,153.43826 319.09375,154.15625 C 316.72275,153.72725 316.73024,152.6995 319.03125,151.1875 C 319.67875,151.044 320.40842,150.92884 321.15625,150.875 z M 322.25,154.71875 C 323.88717,154.77754 325.59188,155.5625 327.4375,157.40625 C 327.1525,158.05024 326.238,158.25025 325.375,158.03125 C 325.16,159.03925 324.22575,159.2615 323.21875,159.1875 C 321.20275,158.68349 320.97225,158.047 321.40625,156.75 C 319.89425,156.46499 319.55125,155.8865 319.40625,155.3125 C 320.31511,154.91574 321.27732,154.68382 322.25,154.71875 z M 319.21875,168.6875 C 319.45346,168.51156 319.463,169.5025 319.96875,169.1875 C 320.32876,170.12149 320.3285,170.934 320.6875,172.375 C 320.40249,172.375 320.25875,172.375 319.96875,172.375 C 319.82876,172.016 319.81275,171.20775 319.59375,170.84375 C 317.57774,173.36375 315.21425,173.5785 312.40625,171.5625 C 312.33624,171.99249 312.2615,172.446 312.1875,172.875 C 311.90249,173.379 311.6015,173.379 311.3125,172.875 C 311.3125,171.7375 311.04037,170.57338 311.3125,169.5 C 311.6715,169.78499 312.04725,169.4725 312.40625,169.6875 C 314.70724,173.0705 317.94175,172.36675 319.09375,168.84375 C 319.13875,168.76313 319.18522,168.71263 319.21875,168.6875 z "
         style="fill:#eeeeee;fill-rule:evenodd;stroke:none"
         id="path3870" />
      <path
         d="M 300.093,144.43 C 299.953,140.832 299.375,136.223 301.964,132.047 C 304.05,131.113 306.066,130.105 308.156,129.098 C 312.906,127.445 318.304,126.652 325.289,128.309 C 332.632,127.664 334.144,134.57 337.168,134.211 C 339.254,135.434 339.687,138.672 340.476,141.41 C 339.27113,144.02783 340.13187,142.84317 339.328,144.938 C 340.55,147.383 341.199,150.91 340.55,156.672 C 337.14551,159.57917 338.30434,159.7459 337.82,163.227 C 335.445,164.234 333.14,165.527 331.629,168.77 C 329.832,172.078 327.527,173.52 325.152,174.816 C 321.41,175.824 320.257,178.992 316.945,179.566 C 314.789,179.996 314.285,177.984 311.332,176.398 C 307.804,174.457 304.925,171.145 302.765,165.887 C 302.047,163.082 301.328,160.273 301.687,156.887 C 301.74354,155.22066 301.746,154.078 301.746,154.078 C 301.816,153.574 301.816,153.145 301.886,152.641 C 301.886,152.641 301.81374,152.90054 301.457,148.969 C 302.246,145.875 301.527,145.516 300.089,144.434 L 300.093,144.43 z "
         style="fill:none;stroke:#003d8f;stroke-width:1"
         id="use3860" />
    </g>
  </g>
  <path
     d="M 249.55062,1.4395041 L 1.449569,1.4395041 L 1.449569,174.9361 C 0.68232904,268.65698 81.739009,302.75585 125.5001,302.75585 C 168.49395,302.75585 250.31785,268.65698 249.55062,174.9361 L 249.55062,1.4395041 z "
     style="fill:none;fill-opacity:0;stroke:#000000;stroke-width:1.88832211;stroke-linejoin:bevel"
     id="Frame" />
</svg>
