<?xml version="1.0" encoding="UTF-8" standalone="no"?>
<!-- Created with Inkscape (http://www.inkscape.org/) -->
<svg
   xmlns:dc="http://purl.org/dc/elements/1.1/"
   xmlns:cc="http://web.resource.org/cc/"
   xmlns:rdf="http://www.w3.org/1999/02/22-rdf-syntax-ns#"
   xmlns:svg="http://www.w3.org/2000/svg"
   xmlns="http://www.w3.org/2000/svg"
   xmlns:xlink="http://www.w3.org/1999/xlink"
   version="1.0"
   width="251"
   height="304.20001"
   id="svg4166">
  <defs
     id="defs4168" />
  <metadata
     id="metadata1880"><rdf:RDF><cc:Work
         rdf:about=""><dc:title>Laholm kommunvapen</dc:title><dc:date>26-09-2007</dc:date><dc:creator><cc:Agent><dc:title>Lokal_Profil</dc:title></cc:Agent></dc:creator><cc:license
         rdf:resource="http://creativecommons.org/licenses/by-sa/2.5/" /><dc:rights><cc:Agent><dc:title>cc-by-sa-2.5</dc:title></cc:Agent></dc:rights><dc:format>image/svg+xml</dc:format><dc:type
         rdf:resource="http://purl.org/dc/dcmitype/StillImage" /></cc:Work><cc:License
         rdf:about="http://creativecommons.org/licenses/by-sa/2.5/"><cc:permits
         rdf:resource="http://web.resource.org/cc/Reproduction" /><cc:permits
         rdf:resource="http://web.resource.org/cc/Distribution" /><cc:requires
         rdf:resource="http://web.resource.org/cc/Notice" /><cc:requires
         rdf:resource="http://web.resource.org/cc/Attribution" /><cc:permits
         rdf:resource="http://web.resource.org/cc/DerivativeWorks" /><cc:requires
         rdf:resource="http://web.resource.org/cc/ShareAlike" /></cc:License></rdf:RDF>
  </metadata>
  <path
     d="M 249.55058,1.4395041 L 1.4495291,1.4395041 L 1.4495291,174.9361 C 0.68228908,268.65698 81.738969,302.75585 125.50006,302.75585 C 168.49391,302.75585 250.31781,268.65698 249.55058,174.9361 L 249.55058,1.4395041 z "
     style="color:#000000;fill:#003d8f;fill-opacity:1;stroke:none"
     id="Shield" />
  <g
     transform="matrix(0.43234,0,0,0.43234,5.304035,3.054396)"
     id="Lax">
    <path
       d="M 442.1552,81.482275 C 442.1552,81.482275 470.16642,55.316672 494.72988,47.949843 C 500.2782,46.285846 505.85287,48.097233 505.85287,48.097233 C 512.70367,65.423219 502.28382,97.343465 500.0626,109.5431 C 500.36455,118.80904 512.1778,130.28632 506.5608,172.05435 C 485.25038,172.91101 457.95798,148.7888 443.29989,140.79023 L 455.12659,111.50567 L 442.1552,81.482275 z "
       style="fill:#d40000;fill-opacity:1;fill-rule:evenodd;stroke:none;stroke-width:1.19354832px;stroke-linecap:butt;stroke-linejoin:miter;stroke-opacity:1"
       id="path27036" />
    <path
       d="M 274.93851,73.115584 C 271.02147,75.111363 234.15696,75.063128 236.23709,68.493737 C 238.31722,61.924346 253.87508,34.209065 275.54893,23.958782 C 288.71753,32.05099 290.51374,44.383765 302.83069,56.683936 C 303.64031,57.984849 303.81668,60.58513 301.8409,61.197053 C 290.69841,64.64802 278.85555,71.119805 274.93851,73.115584 z "
       style="fill:#d40000;fill-opacity:1;fill-rule:evenodd;stroke:none;stroke-width:1.19354832px;stroke-linecap:butt;stroke-linejoin:miter;stroke-opacity:1"
       id="path27012" />
    <path
       d="M 277.09764,162.20848 C 277.09764,162.20848 212.4624,133.04011 248.41171,168.21856 C 283.40351,201.96075 288.15832,198.26466 288.95624,198.26466 C 302.62647,198.26466 298.92164,169.81126 298.46425,168.76597 C 298.11057,167.95769 296.82394,166.59128 295.89876,166.46315 C 289.06685,165.51702 277.09764,162.20848 277.09764,162.20848 z "
       style="fill:#d40000;fill-opacity:1;fill-rule:evenodd;stroke:none;stroke-width:1.19354832px;stroke-linecap:butt;stroke-linejoin:miter;stroke-opacity:1"
       id="path27102" />
    <path
       d="M 380.90968,132.69006 C 364.8474,122.84849 338.09227,139.03897 344.42173,148.72263 C 350.75119,158.40629 366.12669,177.24311 382.41218,181.77455 C 384.54261,181.84032 387.50164,180.69285 388.44102,179.57715 C 399.60425,166.31866 399.88395,159.74265 400.07366,157.73284 C 410.62261,143.28712 406.91015,139.21243 406.91015,139.21243 C 405.95879,135.97576 396.97196,142.53163 380.90968,132.69006 z "
       style="fill:#d40000;fill-opacity:1;fill-rule:evenodd;stroke:none;stroke-width:1.19354832px;stroke-linecap:butt;stroke-linejoin:miter;stroke-opacity:1"
       id="path27082" />
    <path
       d="M 385.23267,91.64544 C 374.82232,93.80971 331.86441,81.62324 358.74423,81.88289 C 385.62405,82.14254 384.12232,68.777153 400.63838,76.00438 C 416.93225,83.134383 395.64302,89.48117 385.23267,91.64544 z "
       style="fill:#d40000;fill-opacity:1;fill-rule:evenodd;stroke:none;stroke-width:1.19354832px;stroke-linecap:butt;stroke-linejoin:miter;stroke-opacity:1"
       id="path27032" />
    <path
       d="M 57.46529,130.4699 C 52.799508,129.34097 35.821451,132.30566 30.189836,120.19086 C 27.638587,119.86264 25.94016,121.53379 25.94016,121.53379 C 23.282723,122.48075 23.023488,125.81576 23.023488,125.81576 C 57.085094,171.78282 235.36006,168.93466 247.1497,168.02609 C 284.51884,165.09314 309.82128,157.55675 338.00396,157.83463 C 341.31653,157.39504 344.03094,153.20141 346.31961,152.5287 C 366.3027,146.65504 380.51134,136.38392 393.68162,132.50881 C 402.18718,130.64208 406.12411,131.2676 413.33018,130.8853 C 437.81886,129.22469 441.42479,141.15812 445.18918,140.63807 C 470.02677,140.4498 470.95509,81.46015 442.77365,81.34609 C 442.77365,81.34609 438.58109,90.22526 414.36389,94.34101 C 351.02353,80.35576 324.05804,68.81107 237.51793,64.55185 C 232.49482,64.29281 160.54876,60.136 98.42288,86.90551 C 76.411449,88.14974 48.722529,101.04487 48.722529,101.04487 C 48.722529,101.04487 28.676849,101.37513 29.782692,109.70814 C 33.987899,114.58503 54.958376,112.20898 66.391141,125.98678 C 70.917227,133.57691 62.160564,131.45887 57.46529,130.4699 z "
       style="fill:#eeeeee;fill-opacity:1;fill-rule:evenodd;stroke:#003d8f;stroke-width:1.19354832px;stroke-linecap:butt;stroke-linejoin:miter;stroke-opacity:1"
       id="path27112" />
    <path
       d="M 96.38125,98.55367 C 122.93862,89.75073 129.7712,104.93611 126.06102,120.71341 C 122.15976,137.30329 99.06675,152.8523 90.24967,156.85131"
       style="fill:none;fill-rule:evenodd;stroke:#003d8f;stroke-width:1.19354832px;stroke-linecap:butt;stroke-linejoin:miter;stroke-opacity:1"
       id="path27114" />
    <path
       d="M 122.86621,134.23399 C 133.04228,114.98751 137.8144,96.10967 108.29374,92.23743"
       style="fill:none;fill-rule:evenodd;stroke:#003d8f;stroke-width:1.19354832px;stroke-linecap:butt;stroke-linejoin:miter;stroke-opacity:1"
       id="path27128" />
    <path
       d="M 114.00205,153.63437 C 124.96384,151.5852 122.29782,145.70714 121.95899,144.23514 C 132.43301,142.68118 155.02323,124.94942 177.42449,134.14811 C 177.71375,150.69382 153.53751,160.21599 149.9382,160.89864 C 132.966,159.98608 124.01065,155.52458 114.00205,153.63437 z "
       style="fill:#d40000;fill-opacity:1;fill-rule:evenodd;stroke:none;stroke-width:1.19354832px;stroke-linecap:butt;stroke-linejoin:miter;stroke-opacity:1"
       id="path27192" />
    <g
       id="g2711">
      <path
         d="M 61.777163,107.65207 C 62.676976,109.8214 70.158345,112.76889 71.931458,112.92421 C 73.70457,113.07951 75.110563,112.80957 77.353808,112.09782 C 80.29275,111.16533 82.791749,108.13451 82.651633,105.94196 C 82.445201,102.71167 79.345512,100.64621 72.73249,100.96541 C 69.59262,101.11697 61.107244,106.03698 61.777163,107.65207 z "
         style="fill:#003d8f;fill-opacity:1;fill-rule:evenodd;stroke:none;stroke-width:1px;stroke-linecap:butt;stroke-linejoin:miter;stroke-opacity:1"
         id="path27212" />
      <path
         d="M 72.393334,101.91468 C 69.864479,102.38531 68.564244,103.1995 68.822701,104.8182 C 69.081158,106.4369 71.035706,109.6213 73.722487,109.29931 C 76.409268,108.97733 80.530753,106.43202 79.243584,104.04408 C 78.305517,102.30379 76.565441,101.14577 72.393334,101.91468 z "
         style="fill:#eeeeee;fill-opacity:1;fill-rule:evenodd;stroke:none;stroke-width:1px;stroke-linecap:butt;stroke-linejoin:miter;stroke-opacity:1"
         id="path27214" />
    </g>
  </g>
  <use
     transform="translate(0,85)"
     id="Lax-2"
     x="0"
     y="0"
     width="251"
     height="304.20001"
     xlink:href="#Lax" />
  <use
     transform="translate(0,170)"
     id="Lax-3"
     x="0"
     y="0"
     width="251"
     height="304.20001"
     xlink:href="#Lax" />
  <path
     d="M 249.55062,1.4395041 L 1.449569,1.4395041 L 1.449569,174.9361 C 0.68232904,268.65698 81.739009,302.75585 125.5001,302.75585 C 168.49395,302.75585 250.31785,268.65698 249.55062,174.9361 L 249.55062,1.4395041 z "
     style="fill:none;fill-opacity:0;stroke:#000000;stroke-width:1.88832211;stroke-linejoin:bevel"
     id="Frame" />
</svg>
