<?xml version="1.0" encoding="UTF-8" standalone="no"?>
<!-- Created with Inkscape (http://www.inkscape.org/) -->
<svg
   xmlns:svg="http://www.w3.org/2000/svg"
   xmlns="http://www.w3.org/2000/svg"
   xmlns:xlink="http://www.w3.org/1999/xlink"
   version="1.0"
   width="251"
   height="304.20001"
   id="svg4166">
  <defs
     id="defs4168" />
  <path
     d="M 1.4495586,1.4395041 L 249.55061,1.4395041 L 249.55061,174.9361 C 250.31785,268.65698 169.26117,302.75585 125.50008,302.75585 C 82.506229,302.75585 0.68232863,268.65698 1.4495586,174.9361 L 1.4495586,1.4395041 z "
     style="fill:#eeeeee;stroke:none"
     id="Shield" />
  <path
     d="M 126.0625,191.375 C 123.85088,191.36303 121.61395,191.49246 119.375,191.75 C 103.04347,193.46206 90.789611,198.90703 79.59375,209.40625 C 73.67276,214.95886 70.685271,218.96628 67.3125,225.9375 C 66.25784,228.11737 65.318461,229.98555 65.21875,230.09375 C 65.11905,230.20196 63.445151,229.30651 61.46875,228.125 C 45.29575,219.56041 27.010092,218.31909 10.21875,225 C 32.388642,281.13318 91.263438,302.74999 125.5,302.75 C 160.307,302.75 218.69381,281.17523 240.75,225.1875 C 224.97816,218.63539 208.69274,218.89231 193.03125,226.03125 C 190.8285,227.03533 188.30448,228.39054 187.40625,229.03125 C 185.30366,230.53101 184.81346,230.4865 184.25,228.8125 C 182.07119,222.3395 175.6177,213.56856 168.46875,207.375 C 156.25119,197.90347 141.54387,191.45881 126.0625,191.375 z "
     style="fill:#225500"
     id="Treberg" />
  <g
     transform="matrix(-0.8,0,0,0.664652,225.9,-15.37341)"
     id="Oak-tree">
    <path
       d="M 95.196968,144.52557 C 95.196968,143.51547 95.196968,142.50537 95.702021,140.48517 C 96.207069,138.46496 97.21717,135.43466 99.237371,133.41446 C 101.25757,131.39426 104.28788,130.38416 106.30808,130.88921 C 108.32828,131.39426 109.33838,133.41446 110.34848,135.93971 C 111.35858,138.46496 112.36868,141.49527 112.36868,145.03062 C 111.57007,213.5065 113.06021,282.11451 108.83333,350.65378 C 108.83333,350.65378 139.03476,347.82076 139.03476,347.82076 C 139.3531,279.92827 134.99509,211.89491 137.11616,144.02052 C 137.62121,140.48517 137.62121,136.44476 139.13636,134.42456 C 140.65151,132.40436 143.68181,132.40436 146.71212,133.41446 C 149.74242,134.42456 152.77272,136.44476 154.28788,138.46496 C 155.80302,140.48517 155.80302,142.50537 156.30808,143.51547 C 156.81313,144.52557 157.82323,144.52557 158.32828,144.02052 C 158.83333,143.51547 158.83333,142.50537 158.83333,140.99022 C 158.83333,139.47506 158.83333,137.45486 157.31818,135.43466 C 155.80302,133.41446 152.77272,131.39426 151.25757,129.87911 C 149.74242,128.36395 149.74242,127.35385 151.25757,126.8488 C 152.77272,126.34375 155.80302,126.34375 157.82323,126.8488 C 159.84343,127.35385 160.85353,128.36395 161.86363,129.37405 L 162.80639,130.45149 C 164.0633,132.33702 165.32053,134.22254 167.31817,134.79493 C 169.31582,135.36732 172.05454,134.62658 173.28888,136.5121 C 174.52356,138.39763 174.2542,142.90941 176.2633,143.49291 C 178.27205,144.07675 182.55959,140.73197 184.6808,143.12254 C 186.80202,145.51311 186.75689,153.63903 189.12525,155.58045 C 191.49326,157.5222 196.2744,153.27977 198.28349,153.85216 C 200.29225,154.42455 199.52928,159.81176 200.96565,162.39324 C 202.40235,164.97439 206.03871,164.75014 207.22828,163.69492 C 208.41817,162.64004 207.16094,160.75452 208.53029,160.38415 C 209.89966,160.01378 213.89494,161.15856 216.15083,161.29324 C 218.40672,161.42792 218.92322,160.5525 219.43939,159.67708 C 219.95555,158.80166 220.47205,157.92624 219.22626,156.04071 C 217.98046,154.15519 214.97238,151.25958 214.60201,149.8791 C 214.23164,148.49864 216.49898,148.63331 216.82423,147.07338 C 217.14982,145.51311 215.53366,142.25857 212.58181,142.30335 C 209.63029,142.34813 205.34276,145.69291 203.83905,144.2451 C 202.33501,142.79728 203.61447,136.55688 200.7414,135.47944 C 197.86801,134.402 190.84242,138.48752 187.71111,137.84779 C 184.57979,137.20806 185.34275,131.84308 183.83905,130.39527 C 182.33501,128.94746 178.56397,131.41682 176.31918,131.28214 C 174.07474,131.14745 173.35622,128.40874 171.86363,126.97237 C 170.37104,125.53567 168.1037,125.40099 165.8367,125.26631 L 159.50673,123.31345 C 156.47643,123.31345 153.44612,123.31345 151.93097,122.8084 C 150.41582,122.30335 150.41582,121.29325 150.92087,120.28315 C 151.42592,119.27304 152.43602,118.26294 153.44612,117.75789 C 154.45622,117.25284 155.46632,117.25284 156.98148,117.25284 C 158.49663,117.25284 160.51683,117.25284 162.53703,117.25284 L 161.86363,117.25284 C 163.88383,118.26294 165.90403,119.27304 167.92424,118.76799 C 169.94444,118.26294 171.96464,116.24274 173.98484,117.25284 C 176.00504,118.26294 178.02525,122.30335 180.04545,121.7983 C 182.06565,121.29325 184.08585,116.24274 187.11616,117.25284 C 190.14646,118.26294 194.18686,125.33365 197.21716,125.8387 C 200.24747,126.34375 202.26767,120.28315 204.28787,119.7781 C 206.30807,119.27304 208.32828,124.32355 210.85353,125.8387 C 213.37878,127.35385 216.40908,125.33365 216.91414,123.8185 C 217.41918,122.30335 215.39898,121.29325 216.40908,120.28315 C 217.41918,119.27304 221.45959,118.26294 223.47979,117.25284 C 225.49999,116.24274 225.49999,115.23264 225.49999,114.22254 C 225.49999,113.21244 225.49999,112.20233 223.47979,111.19223 C 221.45959,110.18213 217.41918,109.17203 216.40908,108.16193 C 215.39898,107.15183 217.41918,106.14173 216.91414,104.62658 C 216.40908,103.11142 213.37878,101.09122 210.85353,102.60638 C 208.32828,104.12153 206.30807,109.17203 204.28787,108.66698 C 202.26767,108.16193 200.24747,102.10132 197.21716,102.60638 C 194.18686,103.11142 190.14646,110.18213 187.11616,111.19223 C 184.08585,112.20233 182.06565,107.15183 180.04545,106.64678 C 178.02525,106.14173 176.00504,110.18213 173.98484,111.19223 C 171.96464,112.20233 169.94444,110.18213 167.92424,109.67708 C 165.90403,109.17203 163.88383,110.18213 161.86363,111.19223 L 162.53703,111.19223 C 160.51683,112.20233 158.49663,113.21244 157.48653,113.21244 C 156.47643,113.21244 156.47643,112.20233 156.98148,111.19223 C 157.48653,110.18213 158.49663,109.17203 160.51683,108.16193 C 162.53703,107.15183 165.56733,106.14173 168.59764,105.13163 L 169.06902,104.66025 C 171.3138,104.34611 173.55824,104.03163 174.91649,102.4717 C 176.27441,100.91176 176.74578,98.105702 178.96801,97.769002 C 181.19023,97.432302 185.16329,99.564962 186.53265,97.993582 C 187.90168,96.422202 186.66733,91.147452 189.73131,90.238362 C 192.79528,89.329272 200.15757,92.785842 202.92996,91.461602 C 205.70201,90.137352 203.88383,84.031632 205.25319,82.460582 C 206.62221,80.889202 211.17911,83.852172 214.11952,83.639032 C 217.05992,83.425572 218.3845,80.036342 217.92424,78.509742 C 217.46397,76.983482 215.21952,77.320182 215.46632,75.917152 C 215.71312,74.514462 218.45185,71.371702 219.52928,69.385172 C 220.60672,67.398632 220.02289,66.568332 219.43939,65.737692 C 218.85588,64.907052 218.27205,64.076752 216.03871,64.402002 C 213.80538,64.727592 209.92188,66.209072 208.51918,65.962272 C 207.11616,65.715132 208.19359,63.740052 206.91414,62.797292 C 205.63467,61.854522 201.99831,61.944092 200.7973,64.637692 C 199.59663,67.331292 200.83097,72.628932 198.87811,73.369682 C 196.92525,74.110412 191.78518,70.294262 189.59663,72.438022 C 187.40807,74.581802 188.17104,82.684832 186.26329,85.255202 C 184.35521,87.825232 179.77609,84.862272 177.82323,85.614122 C 175.87036,86.366312 176.54376,90.832982 175.47744,92.819512 C 174.41144,94.806042 171.60538,94.312432 169.66397,95.064292 C 167.72222,95.816142 166.64477,97.814122 165.56733,99.811762 L 165.56733,102.10132 C 163.54713,103.11142 161.52693,104.12153 161.02188,103.61648 C 160.51683,103.11142 161.52693,101.09122 162.53703,99.071022 L 162.87373,98.599642 C 164.22053,96.804022 165.56733,95.008062 165.42154,92.931972 C 165.27542,90.855532 163.63703,88.498632 164.98383,86.680452 C 166.33063,84.862272 170.66262,83.582812 170.51683,81.506382 C 170.37104,79.430282 165.7468,76.556882 167.2734,73.751162 C 168.79966,70.945432 176.47643,68.206712 177.49764,65.311092 C 178.51918,62.415472 172.88484,59.362942 172.73905,57.286512 C 172.59326,55.210082 177.93535,54.110422 179.86598,51.888192 C 181.79629,49.665972 180.31481,46.321192 178.90067,45.558232 C 177.48653,44.794932 176.13973,46.613112 175.32053,45.445772 C 174.50101,44.278772 174.20942,40.125902 173.56969,37.959912 C 172.92996,35.793922 171.94208,35.614122 170.95454,35.434662 C 169.967,35.255202 168.97912,35.075402 167.63232,36.893582 C 166.28552,38.711762 164.57979,42.527932 163.40134,43.347122 C 162.22289,44.166312 161.57171,41.989202 159.98922,42.224892 C 158.40673,42.460582 155.89292,45.109072 156.94781,47.858902 C 158.00269,50.608732 162.62693,53.459242 161.78518,55.356212 C 160.94343,57.252842 154.63569,58.195602 154.61346,61.270692 C 154.5909,64.346112 160.85353,69.553512 161.32491,72.707392 C 161.79629,75.861262 156.47643,76.960922 155.62356,78.857892 C 154.77036,80.754522 158.38451,83.448132 159.02424,85.614122 C 159.66396,87.780452 157.32929,89.418832 156.48754,91.326912 C 155.64579,93.235002 156.29696,95.412102 156.94781,97.589542 L 156.47643,99.071022 C 156.47643,101.09122 156.47643,103.11142 155.46632,105.63668 C 154.45622,108.16193 152.43602,111.19223 149.91077,114.72759 C 147.38552,118.26294 144.35521,122.30335 142.33501,124.32355 C 140.31481,126.34375 139.30471,126.34375 137.78956,126.34375 C 136.27441,126.34375 134.2542,126.34375 133.2441,125.33365 C 132.234,124.32355 132.234,122.30335 133.2441,120.7882 C 134.2542,119.27304 136.27441,118.26294 137.78956,117.25284 C 139.30471,116.24274 140.31481,115.23264 141.32491,113.71749 C 142.33501,112.20233 143.34511,110.18213 143.85017,108.66698 C 144.35521,107.15183 144.35521,106.14173 144.35521,105.13163 L 141.32491,102.10132 C 141.32491,104.12153 141.32491,106.14173 140.31481,108.16193 C 139.30471,110.18213 137.28451,112.20233 135.2643,113.71749 C 133.2441,115.23264 131.2239,116.24274 130.71885,115.73769 C 130.2138,115.23264 131.2239,113.21244 132.234,111.19223 C 133.2441,109.17203 134.2542,107.15183 134.2542,106.14173 C 134.2542,105.13163 133.2441,105.13163 132.234,104.62658 C 131.2239,104.12153 130.2138,103.11142 129.2037,102.10132 L 128.5303,102.10132 C 130.5505,99.071022 132.5707,96.040722 132.5707,93.010422 C 132.5707,89.980112 130.5505,86.949812 131.5606,84.424562 C 132.5707,81.899302 136.61111,79.879102 136.61111,77.858902 C 136.61111,75.838702 132.5707,73.818502 133.5808,70.788192 C 134.5909,67.757892 140.65151,63.717492 140.65151,60.687182 C 140.65151,57.656882 134.5909,55.636682 134.08586,53.616482 C 133.5808,51.596282 138.63131,49.576072 140.14646,47.050822 C 141.66161,44.525572 139.64141,41.495272 137.62121,40.990212 C 135.601,40.485172 133.5808,42.505372 132.06565,41.495272 C 130.5505,40.485172 129.5404,36.444762 128.5303,34.424562 C 127.5202,32.404362 126.5101,32.404362 125.5,32.404362 C 124.4899,32.404362 123.47979,32.404362 122.46969,34.424562 C 121.45959,36.444762 120.44949,40.485172 118.93434,41.495272 C 117.41919,42.505372 115.39899,40.485172 113.37878,40.990212 C 111.35858,41.495272 109.33838,44.525572 110.85353,47.050822 C 112.36868,49.576072 117.41919,51.596282 116.91414,53.616482 C 116.40909,55.636682 110.34848,57.656882 110.34848,60.687182 C 110.34848,63.717492 116.40909,67.757892 117.41919,70.788192 C 118.42929,73.818502 114.38889,75.838702 114.38889,77.858902 C 114.38889,79.879102 118.42929,81.899302 119.43939,84.424562 C 120.44949,86.949812 118.42929,89.980112 118.42929,93.010422 C 118.42929,96.040722 120.44949,99.071022 122.46969,102.10132 L 122.46969,102.10132 C 121.45959,103.11142 120.44949,104.12153 119.43939,104.62658 C 118.42929,105.13163 117.41919,105.13163 117.41919,106.14173 C 117.41919,107.15183 118.42929,109.17203 119.43939,111.19223 C 120.44949,113.21244 121.45959,115.23264 120.95454,115.73769 C 120.44949,116.24274 118.42929,115.23264 116.40909,113.71749 C 114.38889,112.20233 112.36868,110.18213 111.35858,108.16193 C 110.34848,106.14173 110.34848,104.12153 110.34848,102.10132 L 107.31818,105.13163 C 107.31818,106.14173 107.31818,107.15183 107.82323,108.66698 C 108.32828,110.18213 109.33838,112.20233 110.34848,113.71749 C 111.35858,115.23264 112.36868,116.24274 113.88384,117.25284 C 115.39899,118.26294 117.41919,119.27304 118.42929,120.7882 C 119.43939,122.30335 119.43939,124.32355 118.42929,125.33365 C 117.41919,126.34375 115.39899,126.34375 113.88384,126.34375 C 112.36868,126.34375 111.35858,126.34375 109.33838,124.32355 C 107.31818,122.30335 104.28788,118.26294 101.76263,114.72759 C 99.237371,111.19223 97.21717,108.16193 96.207069,105.63668 C 95.196968,103.11142 95.196968,101.09122 95.196968,99.071022 L 94.052186,97.589542 C 94.703031,95.412102 95.354204,93.235002 94.512456,91.326912 C 93.670703,89.418832 91.336028,87.780452 91.975757,85.614122 C 92.615486,83.448132 96.229629,80.754522 95.376431,78.857892 C 94.523567,76.960922 89.2037,75.861262 89.675081,72.707392 C 90.146463,69.553512 96.409088,64.346112 96.386532,61.270692 C 96.364305,58.195602 90.056564,57.252842 89.214811,55.356212 C 88.373063,53.459242 92.997302,50.608732 94.052186,47.858902 C 95.107069,45.109072 92.593264,42.460582 91.010772,42.224892 C 89.42828,41.989202 88.777101,44.166312 87.598652,43.347122 C 86.420199,42.527932 84.714475,38.711762 83.367674,36.893582 C 82.020872,35.075402 81.032994,35.255202 80.045453,35.434662 C 79.057913,35.614122 78.070034,35.793922 77.4303,37.959912 C 76.79057,40.125902 76.498986,44.278772 75.67946,45.445772 C 74.860265,46.613112 73.513464,44.794932 72.099323,45.558232 C 70.685181,46.321192 69.2037,49.665972 71.134003,51.888192 C 73.064643,54.110422 78.406734,55.210082 78.260942,57.286512 C 78.11515,59.362942 72.480804,62.415472 73.502353,65.311092 C 74.523565,68.206712 82.200336,70.945432 83.726596,73.751162 C 85.253195,76.556882 80.628955,79.430282 80.483163,81.506382 C 80.337371,83.582812 84.669359,84.862272 86.01616,86.680452 C 87.362962,88.498632 85.724576,90.855532 85.578451,92.931972 C 85.432658,95.008062 86.77946,96.804022 88.126261,98.599642 L 89.136362,99.071022 C 90.146463,101.09122 91.156564,103.11142 90.651516,103.61648 C 90.146463,104.12153 88.126261,103.11142 86.106059,102.10132 L 85.432658,99.811762 C 84.355219,97.814122 83.277775,95.816142 81.336027,95.064292 C 79.394613,94.312432 76.588546,94.806042 75.522557,92.819512 C 74.456225,90.832982 75.129626,86.366312 73.176764,85.614122 C 71.223902,84.862272 66.644777,87.825232 64.736697,85.255202 C 62.828953,82.684832 63.591916,74.581802 61.403363,72.438022 C 59.214811,70.294262 54.074744,74.110412 52.121882,73.369682 C 50.16902,72.628932 51.403364,67.331292 50.20269,64.637692 C 49.00168,61.944092 45.365317,61.854522 44.085856,62.797292 C 42.806394,63.740052 43.883835,65.715132 42.480805,65.962272 C 41.078112,66.209072 37.19461,64.727592 34.96128,64.402002 C 32.72794,64.076752 32.14411,64.907052 31.5606,65.737692 C 30.9771,66.568332 30.39326,67.398632 31.4707,69.385172 C 32.54815,71.371702 35.28687,74.514462 35.53367,75.917152 C 35.780469,77.320182 33.53602,76.983482 33.07575,78.509742 C 32.61549,80.036342 33.94006,83.425572 36.880469,83.639032 C 39.820872,83.852172 44.377775,80.889202 45.746798,82.460582 C 47.116159,84.031632 45.297977,90.137352 48.07003,91.461602 C 50.842421,92.785842 58.20471,89.329272 61.268683,90.238362 C 64.332656,91.147452 63.098313,96.422202 64.467336,97.993582 C 65.836697,99.564962 69.809761,97.432302 72.031983,97.769002 C 74.254205,98.105702 74.725585,100.91176 76.083498,102.4717 C 77.441749,104.03163 79.686192,104.34611 81.930974,104.66025 L 83.075756,105.13163 C 86.106059,106.14173 89.136362,107.15183 91.156564,108.16193 C 93.176766,109.17203 94.186867,110.18213 94.69192,111.19223 C 95.196968,112.20233 95.196968,113.21244 94.186867,113.21244 C 93.176766,113.21244 91.156564,112.20233 89.136362,111.19223 L 89.136362,111.19223 C 87.11616,110.18213 85.095958,109.17203 83.075756,109.67708 C 81.055554,110.18213 79.035352,112.20233 77.01515,111.19223 C 74.994946,110.18213 72.974744,106.14173 70.954542,106.64678 C 68.93434,107.15183 66.914138,112.20233 63.883835,111.19223 C 60.853532,110.18213 56.813128,103.11142 53.782825,102.60638 C 50.752522,102.10132 48.73232,108.16193 46.712118,108.66698 C 44.691916,109.17203 42.671714,104.12153 40.146462,102.60638 C 37.621209,101.09122 34.59091,103.11142 34.08586,104.62658 C 33.58081,106.14173 35.601007,107.15183 34.59091,108.16193 C 33.58081,109.17203 29.5404,110.18213 27.5202,111.19223 C 25.5,112.20233 25.5,113.21244 25.5,114.22254 C 25.5,115.23264 25.5,116.24274 27.5202,117.25284 C 29.5404,118.26294 33.58081,119.27304 34.59091,120.28315 C 35.601007,121.29325 33.58081,122.30335 34.08586,123.8185 C 34.59091,125.33365 37.621209,127.35385 40.146462,125.8387 C 42.671714,124.32355 44.691916,119.27304 46.712118,119.7781 C 48.73232,120.28315 50.752522,126.34375 53.782825,125.8387 C 56.813128,125.33365 60.853532,118.26294 63.883835,117.25284 C 66.914138,116.24274 68.93434,121.29325 70.954542,121.7983 C 72.974744,122.30335 74.994946,118.26294 77.01515,117.25284 C 79.035352,116.24274 81.055554,118.26294 83.075756,118.76799 C 85.095958,119.27304 87.11616,118.26294 89.136362,117.25284 L 89.136362,117.25284 C 91.156564,117.25284 93.176766,117.25284 94.69192,117.25284 C 96.207069,117.25284 97.21717,117.25284 98.227271,117.75789 C 99.237371,118.26294 100.24747,119.27304 100.75253,120.28315 C 101.25757,121.29325 101.25757,122.30335 99.742421,122.8084 C 98.227271,123.31345 95.196968,123.31345 92.166665,123.31345 L 85.163296,125.26631 C 82.896292,125.40099 80.628955,125.53567 79.136362,126.97237 C 77.643768,128.40874 76.925247,131.14745 74.680804,131.28214 C 72.436023,131.41682 68.664979,128.94746 67.160939,130.39527 C 65.657235,131.84308 66.420198,137.20806 63.288885,137.84779 C 60.157572,138.48752 53.131983,134.402 50.258583,135.47944 C 47.385519,136.55688 48.66498,142.79728 47.16094,144.2451 C 45.657236,145.69291 41.369694,142.34813 38.418179,142.30335 C 35.46633,142.25857 33.85017,145.51311 34.17575,147.07338 C 34.50101,148.63331 36.768347,148.49864 36.397977,149.8791 C 36.027607,151.25958 33.01953,154.15519 31.77373,156.04071 C 30.52794,157.92624 31.04444,158.80166 31.5606,159.67708 C 32.07676,160.5525 32.59326,161.42792 34.84916,161.29324 C 37.105048,161.15856 41.100334,160.01378 42.469694,160.38415 C 43.839054,160.75452 42.581815,162.64004 43.771714,163.69492 C 44.961276,164.75014 48.59764,164.97439 50.03434,162.39324 C 51.470704,159.81176 50.707741,154.42455 52.716495,153.85216 C 54.725586,153.27977 59.506731,157.5222 61.874744,155.58045 C 64.243094,153.63903 64.197976,145.51311 66.319188,143.12254 C 68.4404,140.73197 72.727942,144.07675 74.736696,143.49291 C 76.745788,142.90941 76.476426,138.39763 77.711111,136.5121 C 78.945454,134.62658 81.684172,135.36732 83.681819,134.79493 C 85.67946,134.22254 86.936696,132.33702 88.193599,130.45149 L 89.136362,129.37405 C 90.146463,128.36395 91.156564,127.35385 93.176766,126.8488 C 95.196968,126.34375 98.227271,126.34375 99.742421,126.8488 C 101.25757,127.35385 101.25757,128.36395 99.742421,129.87911 C 98.227271,131.39426 95.196968,133.41446 93.681819,135.43466 C 92.166665,137.45486 92.166665,139.47506 92.166665,140.99022 C 92.166665,142.50537 92.166665,143.51547 92.166665,144.52557 L 95.196968,144.52557 z "
       style="fill:#225500;stroke:none"
       id="Trunk" />
    <use
       transform="translate(64.64618,1.8359e-5)"
       id="Ollon2"
       x="0"
       y="0"
       width="251"
       height="304.20001"
       xlink:href="#Ollon" />
    <use
       transform="matrix(0.951057,-0.309017,-0.309017,-0.951057,64.53788,270.8191)"
       id="Ollon3"
       x="0"
       y="0"
       width="251"
       height="304.20001"
       xlink:href="#Ollon" />
    <use
       transform="matrix(-1,0,0,1,251.795,0)"
       id="Ollon4"
       x="0"
       y="0"
       width="251"
       height="304.20001"
       xlink:href="#Ollon3" />
    <g
       transform="matrix(0.505045,0,0,0.505048,24.99526,100.0341)"
       style="fill:#225500;stroke:none"
       id="Ollon">
      <path
         d="M 117.48957,110.74999 L 153.48975,110.74999 C 153.48975,106.74997 153.48975,102.74995 151.48974,98.74993 C 149.48973,94.749905 145.48971,90.749885 141.48969,88.749875 C 137.48967,86.749865 133.48965,86.749865 129.48963,88.749875 C 125.48961,90.749885 121.48959,94.749905 119.48958,98.74993 C 117.48957,102.74995 117.48957,106.74997 117.48957,110.74999 z "
         id="path2772" />
      <path
         d="M 123.4896,105.98356 C 123.4896,111.98359 123.4896,122.75005 124.48961,126.75007 C 125.48961,130.75009 127.48962,132.7501 129.48963,135.75012 C 131.48964,138.75013 133.48965,142.75015 135.48966,142.75015 C 137.48967,142.75015 139.48968,138.75013 141.48969,135.75012 C 143.4897,132.7501 145.48971,130.75009 146.48972,126.75007 C 147.48972,122.75005 147.48972,111.98359 147.48972,105.98356"
         id="path2774" />
    </g>
  </g>
  <g
     transform="matrix(-0.651325,0,0,0.740528,116.2714,51.29273)"
     id="Torn3">
    <path
       d="M 100.75806,127.85645 L 150.17753,127.85645 C 152.56785,127.85645 154.50091,129.76467 154.50091,132.1077 L 154.50091,236.1181 C 150.56433,237.37381 146.62743,238.36449 142.66604,239.08915 L 108.29471,239.03781 C 104.35781,238.31451 100.39641,237.34731 96.434683,236.14057 L 96.434683,132.10635 C 96.434683,129.76467 98.389884,127.8551 100.75806,127.8551 L 100.75806,127.85645 z "
       style="fill:#d40000;stroke:none"
       id="path2253" />
    <path
       d="M 96.337728,67.02206 L 102.23084,67.02206 L 102.23084,75.93486 L 109.50145,75.93486 L 109.50145,67.02206 L 115.66093,67.02206 L 115.66093,75.93486 L 122.9312,75.93486 L 122.9312,67.02206 L 129.06586,67.02206 L 129.06586,75.93486 L 136.33613,75.93486 L 136.33613,67.02206 L 142.47079,67.02206 L 142.47079,75.93486 L 149.76488,75.93486 L 149.76488,67.02206 L 154.78774,67.02206 L 154.78774,83.4715 L 96.333703,83.4715 L 96.333703,67.02206 L 96.337728,67.02206 z "
       style="fill:#d40000;stroke:none"
       id="path2255" />
    <path
       d="M 99.550993,84.63855 L 150.83138,84.63855 L 150.83138,126.64349 L 99.550993,126.64349 L 99.550993,84.63855 z M 107.59489,103.93828 C 107.95654,97.24806 110.54077,92.63381 114.69641,89.47054 C 118.12573,93.04411 120.54088,97.58622 120.92769,103.93828 L 120.92769,124.46956 L 107.59489,124.46956 L 107.59489,103.93828 z M 129.43019,103.93828 C 129.79184,97.24806 132.37608,92.63381 136.53139,89.47054 C 139.96103,93.04411 142.37618,97.58622 142.78648,103.93828 L 142.78648,124.46956 L 129.43019,124.46956 L 129.43019,103.93828 z "
       style="fill:#d40000;fill-rule:evenodd;stroke:none"
       id="path2257" />
    <path
       d="M 93.005031,65.83322 L 103.37268,65.83322 L 103.37268,74.55178 L 108.26399,74.55178 L 108.26399,65.83322 L 116.92186,65.83322 L 116.92186,74.55178 L 121.54849,74.55178 L 121.54849,65.83322 L 130.37544,65.83322 L 130.37544,74.55178 L 134.9769,74.55178 L 134.9769,65.83322 L 143.7069,65.83322 L 143.7069,74.55178 L 148.35701,74.55178 L 148.35701,65.83322 L 158,65.83322 L 125.10145,32.427419 L 93,65.83322 L 93.005031,65.83322 z "
       style="fill:#d40000;stroke:none"
       id="path2259" />
  </g>
  <g
     transform="matrix(1.001623,0,0,1.001623,148.6497,105.7088)"
     id="Goat">
    <use
       transform="matrix(0.856874,0.197824,-0.197824,0.856874,9.864201,-11.03074)"
       id="Horn-2"
       x="0"
       y="0"
       width="251"
       height="304.20001"
       xlink:href="#Horn" />
    <path
       d="M 28.799688,5.6602654 C 29.650348,7.2847654 31.288688,7.7816354 33.174688,8.0352654 C 35.389638,8.3331254 39.666948,8.9509457 39.737188,8.8165157 C 39.842448,8.6150657 35.785748,6.9846654 33.643438,6.7227654 C 32.603968,6.5956954 31.287148,6.3671454 30.518228,5.7165854 C 29.488468,4.8453354 31.040708,3.2491954 30.734388,2.9988154 C 29.615768,2.0844854 28.001378,4.1357454 28.799688,5.6602654 z "
       style="fill:#ffcd50;stroke:none"
       id="Tongue" />
    <g
       style="fill:#d40000;stroke:none"
       id="Body">
      <path
         d="M 20.3309,5.91025 C 20.1519,5.91025 19.66421,6.22366 19.2684,6.629 C 18.5638,7.3506 18.56059,7.38625 18.8934,7.754 C 19.5821,8.1871 20.2157,8.79871 20.9559,9.09775 C 21.5938,9.66287 21.785,10.04103 21.73715,10.78525 C 21.23782,11.58468 20.6655,12.00797 21.2684,12.97275 C 21.49786,13.17282 22.20437,13.68497 22.8309,14.09775 C 23.6969,14.66832 24.17868,15.20193 24.8934,16.28525 C 26.12933,18.15868 27.70973,21.14542 28.5184,23.22275 C 31.07163,29.7817 30.88085,29.43597 32.2684,30.78525 C 32.93142,31.42998 34.17132,32.56211 35.1434,33.34775 C 35.26669,33.33621 35.33182,33.33572 35.5184,33.3165 C 35.48065,33.30224 35.42963,33.30088 35.3934,33.28525 C 35.24309,33.2204 35.09476,33.13617 34.9559,32.97275 C 34.81704,32.80933 34.74654,32.44377 34.86215,32.22275 L 34.8934,32.16025 L 34.9559,32.09775 C 35.19309,31.86055 35.4925,31.78701 35.8934,31.72275 C 36.15601,31.68066 36.61374,31.6535 37.0184,31.629 C 36.97609,31.60686 36.93992,31.60463 36.8934,31.5665 C 36.79482,31.48571 36.67464,31.33195 36.67465,31.129 L 36.67465,30.78525 L 36.98715,30.66025 C 38.04721,30.2354 39.09245,30.0773 40.11215,29.84775 C 40.08648,29.83628 40.07667,29.82741 40.04965,29.8165 C 39.63873,29.65055 39.08434,29.53787 38.7684,29.5665 L 38.2059,29.629 L 38.2059,29.0665 C 38.2059,28.91335 38.23837,28.78968 38.29965,28.6915 C 37.82751,28.41611 37.44851,28.17576 37.3309,28.03525 C 36.04807,26.87855 35.1613,25.32258 33.7684,24.34775 C 32.57151,23.98122 30.32342,22.1064 28.8309,20.254 C 27.13291,17.76313 25.90066,15.04301 24.73715,12.28525 C 24.73715,11.69546 22.83562,7.57343 22.5184,7.47275 C 21.79771,6.9491 21.14263,6.27779 20.3309,5.91025 z "
         id="Front-right-leg" />
      <path
         d="M 51.78446,3.15341 C 50.74368,2.44856 49.58306,1.92145 49.06571,1.87216 C 48.63459,1.87296 48.21861,2.10497 47.81571,2.24717 C 47.23346,2.4687 46.18159,2.52203 42.87821,2.52842 C 38.80806,2.5363 38.41205,2.99401 38.0411,3.27178 C 37.73215,3.50312 37.30341,3.92216 37.56925,4.18776 C 37.85069,4.46897 38.3147,4.57183 38.81261,4.84199 C 39.38952,5.15501 39.98301,5.38684 40.17894,4.58995 C 40.34728,3.90526 40.15119,3.2018 40.41866,3.70158 C 40.73861,4.29936 40.27394,5.32664 39.53446,5.34092 C 39.36646,5.34416 38.69909,5.06141 38.06571,4.74717 C 36.46003,3.95051 35.47196,4.22124 35.47196,5.43467 C 35.47196,6.14511 35.76506,6.48586 36.62821,6.80967 C 38.19486,7.39742 38.77223,7.67822 39.15946,8.09092 C 39.38892,8.33546 39.56571,8.59758 39.56571,8.68467 C 39.56571,8.8201 36.77948,8.95777 35.78446,8.87216 C 35.60167,8.85645 35.17585,8.97168 34.81571,9.12216 C 34.26186,9.35359 34.17777,9.45363 34.28446,9.80967 C 34.47027,10.4297 35.10061,10.87168 35.94071,10.93467 L 36.69071,10.99717 C 38.79353,12.44543 41.38236,13.7131 43.90946,14.24716 L 45.53446,15.77841 C 47.56793,17.74256 48.96544,18.42779 51.06571,18.49717 C 53.54033,18.40807 54.86778,17.38145 56.19071,15.40342 C 56.51077,14.72897 56.81571,14.59356 56.81571,15.12217 C 56.81572,15.62823 55.79917,17.09543 55.09696,17.62217 C 53.54141,18.89676 52.08179,19.31616 50.09696,19.27841 C 47.76249,19.2246 47.89361,19.18195 46.90946,20.30966 C 46.59122,20.67435 46.60294,20.72191 46.87821,20.99717 C 47.33301,21.45196 46.97669,21.85569 45.59696,22.52842 C 44.59679,23.01608 43.54833,23.35453 42.53446,23.80966 C 42.53446,23.80966 42.78649,24.62693 44.06571,25.11424 C 43.20248,25.8336 41.98872,25.63916 40.94071,26.02842 C 39.8322,26.97978 41.68009,26.9907 42.47196,27.18466 C 41.95167,27.70637 41.23385,27.66838 40.62821,27.93467 C 39.84668,28.27338 38.71396,28.68624 38.71396,29.07409 C 39.59105,28.99461 41.11098,29.51006 41.06571,30.12217 C 39.77133,30.50295 38.40419,30.62331 37.15946,31.12217 C 37.15946,31.31914 38.00249,31.43474 40.06571,31.52842 C 40.43849,32.2743 38.4618,32.06987 37.62821,32.09091 C 36.10482,32.15329 35.54256,32.23906 35.31571,32.46592 C 35.02986,33.01244 37.80001,33.22031 38.37417,33.36334 C 38.19638,33.54115 35.2538,33.86518 34.87821,33.87217 C 34.46977,33.87978 34.44863,34.21325 34.84696,34.65341 C 35.76111,34.96482 38.24353,34.64263 38.06571,35.37217 C 36.45207,36.3274 34.27407,35.1916 33.12073,37.05763 C 36.9754,38.5123 40.5774,40.49443 43.87821,43.05966 C 42.11297,42.88304 38.39048,39.22856 33.90946,38.40342 C 33.50369,38.3464 32.9906,38.18756 32.78446,38.05966 C 29.2957,36.73918 26.08828,34.22319 22.19071,33.87217 C 22.19071,33.87217 21.51883,33.67674 20.62821,34.17674 C 19.73758,34.67674 18.62821,35.87217 18.62821,35.87217 C 16.00349,38.45435 13.53132,40.73353 10.56571,42.77841 C 10.4815,42.7784 8.02339,44.41656 7.84696,44.59091 C 7.46538,44.79911 7.41956,44.83022 7.15946,44.93467 C 6.3161,45.14278 5.81755,45.61438 5.59696,46.40342 C 5.48307,46.81078 5.19161,47.51652 4.94071,47.96592 C 4.68982,48.41531 4.57148,48.84234 4.65946,48.90342 C 4.74744,48.9645 4.99045,49.25946 5.22196,49.59091 C 5.77092,50.37693 6.49597,50.42442 6.65946,49.68466 C 6.72145,49.40422 6.90678,48.78334 7.06571,48.27841 C 7.22464,47.77348 7.33833,47.25579 7.69071,46.90342 C 8.04309,46.55103 8.34731,46.65678 8.47196,47.15341 C 8.62069,47.74599 9.22321,48.05986 9.69071,47.80966 C 9.98283,47.65331 10.81571,46.19161 10.81571,45.84091 C 10.81571,45.4882 12.60562,43.0591 13.44071,42.27841 C 15.19392,40.63939 15.90182,39.99808 16.03446,39.99717 C 18.85313,38.20394 23.36307,37.55079 25.84696,40.24716 C 25.84697,40.46536 26.97876,42.21338 28.25321,43.93467 C 28.50454,44.27412 29.24657,45.09585 29.90946,45.77841 C 30.57236,46.46095 31.36179,47.30069 31.65946,47.62217 C 31.9571,47.94363 32.38468,48.27948 32.59696,48.37217 C 33.59549,48.89728 34.61136,49.3875 35.65946,49.80966 C 37.0871,50.4215 37.61011,50.68193 37.84696,50.90342 C 37.98618,51.03359 38.58766,51.12217 39.19071,51.12217 C 40.20247,51.12217 40.29876,51.0836 41.06571,50.34091 C 41.5133,49.90747 42.092,49.29306 42.34696,48.96592 C 42.78463,48.40439 43.44071,48.13634 43.44071,48.52842 C 42.72782,50.11368 41.61788,50.89752 40.09696,51.87217 C 39.24415,52.29857 35.65946,50.49717 35.65946,50.49717 C 33.68228,49.30987 33.99986,50.45591 35.00321,51.84091 C 37.8644,55.31075 41.78724,58.11173 43.87821,62.43467 C 44.49414,64.0844 45.63629,64.93023 47.00321,65.84091 C 48.5025,66.76346 49.9624,67.68492 51.31571,68.80966 C 51.97741,69.3996 52.09949,69.39779 52.25321,68.99717 C 52.52011,68.30163 52.3637,67.33344 51.50321,64.37217 C 50.98346,62.58354 50.96244,62.19708 51.37821,62.27841 C 52.13799,62.42702 52.89696,65.09972 52.90946,67.62217 C 52.91052,71.32242 52.18221,74.89758 51.69071,78.55966 C 51.30355,81.34317 51.06705,83.85646 51.06571,85.05966 C 51.06312,87.36104 50.81628,88.28431 49.75321,90.52842 C 48.56699,93.0325 48.25739,94.05183 48.00321,96.18466 C 47.57605,99.06121 46.19646,100.87698 44.31571,103.15341 C 42.58789,105.12282 40.74935,106.97214 38.62821,108.49717 C 37.4059,109.20844 36.19267,109.938 34.97196,110.65341 C 34.07508,111.57737 32.73064,111.09723 33.62821,113.68466 C 33.63274,114.89604 33.8563,115.0859 34.62821,114.49717 C 35.4696,113.85538 35.75724,113.85862 35.59696,114.49717 C 35.39059,115.31943 36.29716,115.57823 36.97196,114.90342 C 37.17593,114.69945 37.34696,114.41495 37.34696,114.24716 C 37.34696,113.61177 38.64282,111.25283 39.47196,110.40342 C 40.93521,108.82046 42.8464,107.82243 44.50321,106.49717 C 45.08783,106.048 45.64418,105.65624 46.31571,105.37217 C 48.2221,104.90148 50.11946,104.48207 51.87821,103.62217 C 52.39702,103.19161 52.48102,102.69146 52.22196,101.59091 C 51.8761,100.12175 51.91846,99.55653 52.44071,98.43467 C 54.37261,95.55684 57.68532,94.58137 60.59696,92.87217 C 60.80093,92.77711 61.1801,92.51918 61.44071,92.27841 C 65.89996,89.73484 69.63544,90.218 72.87821,85.05966 C 73.19203,84.60128 73.79865,83.52028 74.22196,82.65341 C 74.9479,81.16677 74.98785,80.95088 75.15946,78.68466 C 75.36411,75.98256 75.55451,75.55935 76.37821,75.93467 C 76.97046,76.2045 79.25382,76.23037 80.25321,75.96592 C 82.05302,75.54738 83.77142,75.34822 85.62821,75.05966 C 85.96921,75.05965 86.345,74.9314 86.47196,74.77841 C 86.81459,74.36559 86.39204,73.93467 85.62821,73.93467 C 85.13335,73.93467 85.03659,73.89215 85.12821,73.65341 C 85.22504,73.40103 85.41542,73.36181 86.47196,73.46592 C 87.3441,73.55186 87.78542,73.52231 87.87821,73.37217 C 88.08696,73.0344 87.58894,72.84401 86.53446,72.84091 C 85.75118,72.83861 85.57307,72.7848 85.65946,72.55966 C 87.64751,72.15471 88.60568,72.93811 90.37821,73.93467 C 90.75496,73.93467 90.48479,72.39433 89.94071,71.46592 C 89.50639,70.72478 89.3372,70.60818 88.59696,70.49717 C 87.45428,70.32582 86.26689,70.52211 85.31571,71.05966 C 84.87639,71.30792 84.40618,71.58415 84.25321,71.65341 C 84.10024,71.72268 83.65608,72.02066 83.28446,72.30966 C 82.91283,72.5987 82.56316,72.84091 82.50321,72.84091 C 82.44324,72.84091 82.10295,73.10321 81.75321,73.43467 C 80.69405,74.42374 79.76531,75.46367 78.31571,75.62217 C 76.76075,75.62217 75.44381,74.17845 74.22196,71.15341 C 73.62019,69.38735 72.38797,68.01704 71.19071,66.62217 C 69.0084,63.85214 66.90902,60.96532 65.19071,57.80966 C 63.77746,55.18389 63.39444,53.83154 62.94071,50.02842 C 62.81295,48.95758 62.41175,46.62565 62.06571,44.84091 C 60.73882,37.99748 60.60861,37.14078 60.34696,34.15341 C 60.24835,33.02772 60.10181,31.95389 60.03446,31.77841 C 58.959,31.13416 58.75881,30.86911 59.25321,29.80966 C 59.77724,30.67559 60.43983,31.19189 61.31571,31.65341 C 61.61783,31.65341 61.65011,31.57268 61.56571,31.15341 C 61.2587,29.62872 60.82728,26.07935 60.94071,25.96592 C 61.01329,25.89334 61.38902,26.19399 61.75321,26.62217 C 62.46717,27.46154 62.96051,27.5079 62.37821,26.68466 C 62.17121,26.39205 61.89372,25.44766 61.72196,24.40342 C 61.35076,22.14677 61.36801,22.10968 61.72196,22.40342 C 62.26337,22.85274 62.55365,22.49134 62.44071,21.52842 C 61.96363,17.46075 61.02707,13.20255 60.53446,12.80967 C 60.37463,12.68219 59.92628,12.55967 59.53446,12.55967 C 58.58324,12.50839 57.81324,12.02549 57.06993,11.51998 C 56.68227,11.04617 56.50321,10.02842 56.50321,10.02842 C 56.10898,8.5187 56.1808,8.44793 57.28446,8.90341 C 59.47476,9.79691 61.49676,11.03381 63.73167,11.80206 C 64.49582,12.01087 65.15946,12.2378 65.15946,12.12216 C 65.15946,12.01601 63.22698,10.46009 61.28446,8.99717 C 60.5094,8.41346 59.7927,7.86232 59.69071,7.77842 C 59.1187,7.30777 57.67274,6.79813 57.25321,6.90341 C 56.9293,6.98471 56.76728,6.91544 56.69071,6.71591 C 56.49744,6.21228 57.2393,6.20494 57.78024,6.24801 C 58.78763,6.27658 59.22758,6.4223 60.06571,6.74717 C 60.38523,6.92593 60.53069,6.563 60.31571,6.21591 C 59.81547,5.40827 57.91931,3.42613 57.51691,2.91776 C 56.37055,2.86854 56.05793,3.21878 54.88958,3.761 C 53.37281,4.47599 52.84844,4.20276 51.78446,3.15341 z "
         id="Main-body" />
      <path
         d="M 57.88919,9.60867 C 58.64139,9.8671 59.64977,10.37734 60.11046,10.58248 C 63.03549,11.88495 67.45156,12.88525 61.07666,12.41354 C 60.74664,12.38896 59.8262,12.82152 57.56149,11.59598 C 56.88597,11.23041 55.7452,8.05802 57.88919,9.60867 z "
         id="Ear" />
      <path
         d="M 73.87821,85.05966 C 74.03557,85.08498 73.9663,85.37019 73.22196,88.21591 C 72.23168,92.00204 71.95306,93.93385 72.06571,96.37217 C 72.13706,97.91675 72.27282,98.81958 72.56571,99.62217 C 73.21411,101.39896 73.55854,102.80898 73.44071,103.27841 C 73.16304,103.89391 73.45224,103.90574 71.94071,104.77841 C 71.98422,104.82191 71.66956,105.63336 71.22196,106.59091 C 70.10966,109.02298 69.3338,111.58224 68.63665,114.15763 C 68.26106,116.13665 68.06298,117.99435 67.81571,120.02842 C 67.479,122.67441 67.20976,123.39017 66.53446,123.55966 C 65.55235,123.52752 65.54168,122.60136 65.31571,121.77841 C 64.7769,122.61939 64.10007,123.35525 63.34696,124.02842 C 62.41192,124.49619 61.92063,125.37214 61.37821,126.21591 C 60.7297,126.01748 60.26335,125.57167 59.75321,125.18466 C 59.62301,124.38183 60.37063,123.71454 60.81571,123.02842 C 61.23563,122.21639 62.5142,121.10858 63.47196,120.74716 C 63.62595,120.68905 64.07097,120.17182 64.44071,119.59091 C 65.50768,117.91441 65.82472,117.29335 67.06571,114.27841 C 67.71525,112.70035 68.42145,109.41585 68.65946,107.02842 C 68.847,105.14709 68.85281,104.91361 68.50321,103.90342 C 68.25748,103.1933 68.12822,102.33476 68.12821,101.46592 C 68.12821,100.3548 68.05353,100.11876 67.78446,100.02842 C 66.94246,99.74567 64.75463,97.63576 64.22196,96.59091 C 63.54513,95.26331 62.90947,93.52735 62.90946,92.99717 C 62.90946,92.35953 63.54025,91.76596 64.22196,91.74716 C 68.96435,90.3918 71.08619,88.51062 73.78446,85.05966 C 73.81533,85.05966 73.85573,85.05604 73.87821,85.05966 z "
         id="Rear-right-leg" />
    </g>
    <g
       style="fill:#ffcd50;stroke:none"
       id="Hoofs">
      <path
         d="M 29.85055,115.04359 C 29.1553,115.65271 28.32015,116.12986 27.61402,116.5889 C 26.59485,117.24059 26.18921,116.12066 26.18921,115.88137 C 28.02753,114.39426 30.60102,114.56669 32.22046,112.88137 C 32.59039,112.29764 32.83621,112.02114 32.97046,112.03761 C 33.1047,112.05409 33.14057,112.35154 33.09546,112.97511 C 33.04657,113.65088 33.10446,114.26669 33.28296,114.69387 L 33.56421,115.38137 L 32.40796,117.06886 C 31.28577,118.73324 31.26343,118.76518 30.53296,118.75637 C 29.17385,118.63697 28.08707,117.98388 27.03296,117.19387 C 28.2175,116.48045 29.36363,115.9075 30.34546,114.85011 C 30.27334,114.73344 30.0189,114.89609 29.85055,115.04359 z "
         id="path4856" />
      <path
         d="M 17.26091,0.72619 C 17.40886,0.80023 17.60359,1.07628 17.91716,1.50743 C 19.09706,2.92813 20.19841,5.31994 20.19841,5.31994 L 19.26091,6.19494 C 18.57608,7.03316 17.97666,7.27242 16.97966,7.47619 C 12.32362,3.97583 13.90527,3.67424 15.57341,0.88244 C 17.13831,1.95334 18.85304,5.62696 19.51091,5.44494 C 18.59292,3.82071 16.01704,1.11323 17.26091,0.72619 z "
         id="path4854" />
      <path
         d="M 4.11644,49.08577 C 4.40552,49.08578 5.96018,50.69345 5.96019,50.99202 C 5.96019,51.4048 5.05963,53.88457 4.64769,54.61702 C 4.43376,54.99743 4.04339,55.39579 3.77269,55.52327 C 3.19026,55.79754 2.20189,56.04541 1.64769,55.52327 C 0.71188,54.6416 0.59592,54.34088 1.31314,53.54683 C 2.21978,52.44905 3.60937,50.80247 3.39769,50.55452 C 2.45337,51.52197 0.77562,54.27594 0.24144,53.89827 C 0.02716,53.89828 0.69405,52.31218 1.08519,51.89827 C 1.2104,51.7658 1.42317,51.50924 1.55394,51.33578 C 1.98179,50.76824 3.85604,48.89314 4.11644,49.08577 z "
         id="path4852" />
      <path
         d="M 58.38591,125.04275 C 58.49953,125.01741 58.64735,125.0367 58.79216,125.07401 C 59.08178,125.14862 59.40636,125.3637 59.63591,125.6365 C 59.89336,125.94246 60.205,126.19561 60.32341,126.199 C 60.44183,126.20241 60.73821,126.3729 60.97966,126.57401 C 61.39448,126.91957 61.40563,126.96138 61.19841,127.79275 C 61.07781,128.27665 60.84709,128.87579 60.69841,129.10525 C 60.28243,129.74727 59.01512,129.60938 56.76091,128.66775 C 56.42599,128.52789 56.01144,128.41775 55.82341,128.41776 C 55.63538,128.41777 55.37552,128.30588 55.26091,128.16775 C 54.94564,127.78791 56.1296,126.32629 57.16716,125.82401 C 57.62913,125.60037 58.07834,125.32342 58.13591,125.23025 C 58.19287,125.1381 58.27229,125.06811 58.38591,125.04275 z "
         id="path4864" />
    </g>
    <path
       d="M 57.654418,2.6683754 C 59.701438,0.50055546 62.484118,0.66520546 63.186288,1.0793655 C 63.888468,1.4935155 64.533678,1.9619654 65.125638,2.6978654 C 64.533678,1.9619654 63.888468,1.4935155 63.186288,1.0793655 C 65.200528,0.35127546 66.365858,0.75734546 67.071748,1.3846455 C 67.601178,1.8551154 68.073628,2.3798854 68.202438,3.1238654 C 68.073628,2.3798854 67.601178,1.8551154 67.071748,1.3846455 C 68.339868,1.0427055 69.860008,1.8689954 70.451988,2.6048854 C 71.043948,3.3407754 70.994408,3.8213554 70.889788,4.4628054 C 70.994408,3.8213554 71.043948,3.3407754 70.451988,2.6048854 C 71.845188,2.7937654 72.907738,3.9478754 73.205588,4.4223854 C 73.503428,4.8969054 73.628528,5.4277254 73.351138,6.1254854 C 73.628528,5.4277254 73.503428,4.8969054 73.205588,4.4223854 C 74.427888,4.7741554 75.492328,6.0348054 75.562308,6.7265054 C 75.632298,7.4182154 75.297938,8.1702754 74.844088,8.7112057 C 75.297938,8.1702754 75.632298,7.4182154 75.562308,6.7265054 C 76.387718,7.5649354 77.644898,9.0469257 77.367528,9.7446857 C 77.090128,10.442456 76.579318,11.037676 76.125458,11.578616 C 76.579318,11.037676 77.090128,10.442456 77.367528,9.7446857 C 78.312428,10.794236 78.764068,12.518346 78.560428,12.730526 C 78.049618,13.325766 77.821748,13.542946 77.136318,14.087916 C 77.821748,13.542946 78.049618,13.325766 78.560428,12.730526 C 79.095428,13.520716 79.477218,15.390946 79.228518,15.691236 C 78.574658,16.480726 78.408978,16.472486 77.655398,16.432316 C 78.408978,16.472486 78.605638,16.501636 79.228518,15.691236 C 79.478698,16.752886 79.354588,17.690396 79.042778,17.854916 C 78.702988,18.034186 78.460308,18.211566 77.765558,18.223686 C 78.460308,18.211566 78.526378,18.130436 79.042778,17.854916 C 79.074278,18.917436 79.056988,20.015476 78.604228,20.201606 C 78.268858,20.339466 77.226648,19.975666 77.645858,20.100496 C 78.196378,20.264406 78.089948,20.257196 78.604228,20.201606 C 78.456708,20.868836 78.237958,23.474796 77.781948,23.437466 C 77.366928,23.403486 77.412608,22.413166 77.367818,21.671316 C 76.920308,14.162556 74.834988,2.3985554 61.026038,6.7137254 L 57.654418,2.6683754 z "
       style="fill:#ffcd50;stroke:#eeeeee;stroke-width:0.23568203"
       id="Horn" />
    <g
       id="Eye">
      <path
         d="M 46.88689,5.34424 C 48.25944,5.95984 48.42541,7.03104 49.92041,7.60775 C 51.2279,8.11243 52.27353,7.35777 54.03362,7.70259 C 51.36922,6.77534 52.11928,5.26562 50.71188,4.69175 C 49.12878,4.04647 48.51384,5.68275 46.88689,5.34424 z "
         style="fill:#eeeeee;stroke:none"
         id="path4169" />
      <path
         d="M 50.92383,5.02068 C 52.82356,7.01531 51.3911,8.48003 49.03274,6.89649 C 50.53574,6.74575 50.93325,6.27408 50.92383,5.02068 z "
         style="fill:#d40000;stroke:none"
         id="use2125" />
    </g>
  </g>
  <path
     d="M 1.4495186,1.4395041 L 249.55057,1.4395041 L 249.55057,174.9361 C 250.31781,268.65698 169.26113,302.75585 125.50004,302.75585 C 82.506189,302.75585 0.68228863,268.65698 1.4495186,174.9361 L 1.4495186,1.4395041 z "
     style="fill:none;fill-opacity:0;stroke:#000000;stroke-width:1.88832211;stroke-linejoin:bevel"
     id="Frame" />
</svg>
