<?xml version="1.0" encoding="UTF-8" standalone="no"?>
<!-- Created with Inkscape (http://www.inkscape.org/) -->
<svg
   xmlns:svg="http://www.w3.org/2000/svg"
   xmlns="http://www.w3.org/2000/svg"
   xmlns:xlink="http://www.w3.org/1999/xlink"
   version="1.0"
   width="251"
   height="304.20001"
   id="svg4166">
  <defs
     id="defs4168" />
  <path
     d="M 249.55058,1.4395041 L 1.4495291,1.4395041 L 1.4495291,174.9361 C 0.68228908,268.65698 81.738969,302.75585 125.50006,302.75585 C 168.49391,302.75585 250.31781,268.65698 249.55058,174.9361 L 249.55058,1.4395041 z "
     style="fill:#ffcd50;fill-opacity:1"
     id="Shield" />
  <path
     d="M 125.53125,154.46875 C 124.54367,154.50705 123.54229,154.67571 122.5625,154.90625 C 119.76893,155.36199 117.15977,156.62 115.0625,158.71875 C 114.35467,159.42608 113.7386,160.18537 113.21875,161 C 108.55488,167.08057 108.70784,175.46149 113.875,180.625 C 108.21636,174.96236 98.6506,175.3494 92.53125,181.46875 C 86.411919,187.58808 86.05611,197.1226 91.71875,202.78125 C 86.060109,197.11861 76.49435,197.50564 70.375,203.625 C 64.255659,209.74434 63.89986,219.27886 69.5625,224.9375 C 63.903859,219.27486 54.3381,219.6619 48.21875,225.78125 C 42.099409,231.90059 41.74361,241.4351 47.40625,247.09375 C 41.747609,241.43111 32.18185,241.81816 26.0625,247.9375 C 25.297582,248.70242 24.615559,249.5176 24.03125,250.375 C 24.036209,250.38184 24.02629,250.39941 24.03125,250.40625 C 51.122006,287.78169 96.500681,302.75 125.5,302.75 C 154.00506,302.74999 199.55694,287.76009 226.8125,250.34375 C 226.27033,249.57856 225.68843,248.84468 225,248.15625 C 218.88066,242.03692 209.3149,241.68111 203.65625,247.34375 C 209.31888,241.68511 208.96309,232.11934 202.84375,226 C 196.72439,219.88065 187.15864,219.52486 181.5,225.1875 C 187.16264,219.52887 186.80684,209.96309 180.6875,203.84375 C 174.56815,197.7244 165.00239,197.36861 159.34375,203.03125 C 165.00638,197.37261 164.65058,187.80683 158.53125,181.6875 C 152.4119,175.56816 142.84614,175.21236 137.1875,180.875 C 141.93953,176.12632 142.45247,168.65232 138.875,162.75 C 138.20951,161.19191 137.25599,159.75511 136,158.5 C 133.17068,155.66868 129.39099,154.31908 125.53125,154.46875 z "
     style="fill:#003d8f;fill-opacity:1;fill-rule:nonzero;stroke:none;stroke-width:1;stroke-miterlimit:4;stroke-dasharray:none;stroke-opacity:1"
     id="Inverterat_mantelsnitt_fjallskura" />
  <g
     transform="translate(-0.794798,0)"
     id="g6696">
    <g
       transform="matrix(0.34156,0,0,-0.34156,-50.43754,89.25661)"
       style="fill:#003d8f;stroke:#ffcd50;stroke-width:3;stroke-opacity:1"
       id="g2022">
      <path
         d="M 191.85431,-333.83867 L 260.16193,-242.58372 L 328.49829,-333.83867 L 260.16193,-333.83867 L 191.85431,-333.83867 z "
         style="fill:#003d8f;stroke:#ffcd50;stroke-opacity:1"
         id="path1900" />
      <path
         d="M 253.8013,-333.37025 C 238.43538,-321.67602 223.97249,-295.5282 221.2388,-287.6515 C 175.85001,-282.02 162.22867,-250.27786 189.8013,-239.089 C 190.45496,-242.6262 222.08554,-273.16521 225.77979,-274.3133 C 221.37615,-272.68407 189.73432,-242.28032 189.89505,-239.0265 C 183.56388,-215.76229 197.18971,-206.41115 215.1763,-207.964 C 218.07739,-222.37444 232.69465,-253.13562 239.5858,-260.75851 C 232.84884,-252.577 217.93786,-222.18218 215.1138,-207.4015 C 225.05035,-185.87771 238.37685,-179.84149 259.8013,-193.37025 L 260.1763,-255.36038 L 260.5513,-193.37025 C 281.97575,-179.84149 295.27099,-185.87771 305.20755,-207.4015 C 301.61589,-220.64699 286.78979,-251.14907 280.7668,-260.75851 C 285.52039,-252.96811 299.99014,-223.98071 305.1763,-207.964 C 323.16289,-206.41115 336.78874,-215.76229 330.45755,-239.0265 C 329.43405,-246.0245 297.15974,-275.42586 294.54156,-274.93153 C 298.74007,-275.39131 330.88596,-244.73223 330.5513,-239.089 C 358.12393,-250.27786 344.5026,-282.02 299.1138,-287.6515 C 296.38011,-295.5282 282.47296,-322.50962 267.10704,-334.20385 C 267.10704,-334.20385 262.46479,-338.30169 260.1763,-337.24525 L 253.8013,-333.37025 z "
         style="fill:#003d8f;stroke:#ffcd50;stroke-opacity:1"
         id="path2792" />
      <path
         d="M 227.94362,-280.9552 C 251.07759,-269.43659 272.23091,-271.78253 292.40899,-280.9552"
         style="fill:#003d8f;stroke:#ffcd50;stroke-width:2;stroke-opacity:1"
         id="path3686" />
    </g>
    <use
       transform="translate(175.7331,0)"
       id="use2029"
       x="0"
       y="0"
       width="251"
       height="304.20001"
       xlink:href="#g2022" />
  </g>
  <path
     d="M 1.5919379,1.4395041 L 1.5919379,147.20077 L 249.40812,147.20077 L 249.40812,1.4395041 L 125.50003,1.4395041 L 1.5919379,1.4395041 z "
     style="fill:#003d8f;fill-opacity:1;fill-rule:nonzero;stroke:none;stroke-width:1.88800001;stroke-miterlimit:4;stroke-dasharray:none;stroke-opacity:1"
     id="path3066" />
  <use
     id="use3076"
     x="0"
     y="0"
     width="251"
     height="304.20001"
     xlink:href="#Frame" />
  <g
     transform="matrix(0.141869,0,0,0.141869,31.17377,21.65735)"
     id="g1973">
    <path
       d="M 516.41381,326.79312 L 329.21381,794.79313 L 419.58622,833.52417 L 622.92416,836.75176 L 823.03451,836.75176 L 1000.5518,807.70348 L 784.30348,317.11036 L 516.41381,326.79312 z "
       style="fill:#ffcd50;fill-rule:evenodd;stroke:#003d8f;stroke-width:7.04875612;stroke-linecap:butt;stroke-linejoin:miter;stroke-opacity:1"
       id="path1960" />
    <path
       d="M 131.625,4.5 C 130.4708,17.331027 125.52835,16.834507 112.0625,32.5625 C 108.73149,36.453094 107.03947,42.539376 106.21875,45.625 C 105.39803,48.710627 102.55362,60.752308 101.4375,65.875 C 100.32138,70.997695 163.42861,70.997697 162.3125,65.875 C 161.19638,60.752306 158.32072,48.710626 157.5,45.625 C 156.67928,42.539375 154.98727,36.453093 151.65625,32.5625 C 138.19039,16.834504 133.2792,17.331027 132.125,4.5 L 131.625,4.5 z "
       transform="matrix(7.048756,0,0,7.048756,-275.9763,-152.6574)"
       style="fill:#ffcd50;fill-rule:evenodd;stroke:#003d8f;stroke-width:1;stroke-linecap:butt;stroke-linejoin:miter;stroke-miterlimit:3.5;stroke-dasharray:none;stroke-opacity:1"
       id="path1949" />
    <path
       d="M 839.17245,852.88969 L 629.37934,338.89657"
       style="fill:none;fill-rule:evenodd;stroke:#003d8f;stroke-width:7.04875612;stroke-linecap:butt;stroke-linejoin:miter;stroke-opacity:1"
       id="path1965" />
    <path
       d="M 649.55175,844.01383 L 571.28278,336.47588"
       style="fill:none;fill-rule:evenodd;stroke:#003d8f;stroke-width:7.04875612;stroke-linecap:butt;stroke-linejoin:miter;stroke-opacity:1"
       id="path1967" />
    <path
       d="M 416.35864,838.36555 L 537.39313,335.66898"
       style="fill:none;fill-rule:evenodd;stroke:#003d8f;stroke-width:7.04875612;stroke-linecap:butt;stroke-linejoin:miter;stroke-opacity:1"
       id="path1969" />
    <path
       d="M 447.02071,181.55173 L 547.07588,173.48277 L 672.95175,167.02759 L 779.4621,168.64139 L 842.40003,188.0069"
       style="fill:none;fill-rule:evenodd;stroke:#003d8f;stroke-width:7.04875612;stroke-linecap:butt;stroke-linejoin:miter;stroke-opacity:1"
       id="path1971" />
  </g>
  <path
     d="M 249.55062,1.4395041 L 1.449569,1.4395041 L 1.449569,174.9361 C 0.68232904,268.65698 81.739009,302.75585 125.5001,302.75585 C 168.49395,302.75585 250.31785,268.65698 249.55062,174.9361 L 249.55062,1.4395041 z "
     style="fill:none;fill-opacity:0;stroke:#000000;stroke-width:1.88832211;stroke-linejoin:bevel"
     id="Frame" />
</svg>
