<?xml version="1.0" encoding="UTF-8" standalone="no"?>
<!-- Created with Inkscape (http://www.inkscape.org/) -->
<svg
   xmlns:dc="http://purl.org/dc/elements/1.1/"
   xmlns:cc="http://web.resource.org/cc/"
   xmlns:rdf="http://www.w3.org/1999/02/22-rdf-syntax-ns#"
   xmlns:svg="http://www.w3.org/2000/svg"
   xmlns="http://www.w3.org/2000/svg"
   xmlns:xlink="http://www.w3.org/1999/xlink"
   version="1.0"
   width="251"
   height="304.20001"
   id="svg4166">
  <defs
     id="defs4168" />
  <metadata
     id="metadata1880"><rdf:RDF><cc:Work
         rdf:about=""><dc:title>Ockero kommunvapen</dc:title><dc:date>10-10-2007</dc:date><dc:creator><cc:Agent><dc:title>Lokal_Profil</dc:title></cc:Agent></dc:creator><cc:license
         rdf:resource="http://creativecommons.org/licenses/by-sa/2.5/" /><dc:rights><cc:Agent><dc:title>cc-by-sa-2.5</dc:title></cc:Agent></dc:rights><dc:format>image/svg+xml</dc:format><dc:type
         rdf:resource="http://purl.org/dc/dcmitype/StillImage" /></cc:Work><cc:License
         rdf:about="http://creativecommons.org/licenses/by-sa/2.5/"><cc:permits
         rdf:resource="http://web.resource.org/cc/Reproduction" /><cc:permits
         rdf:resource="http://web.resource.org/cc/Distribution" /><cc:requires
         rdf:resource="http://web.resource.org/cc/Notice" /><cc:requires
         rdf:resource="http://web.resource.org/cc/Attribution" /><cc:permits
         rdf:resource="http://web.resource.org/cc/DerivativeWorks" /><cc:requires
         rdf:resource="http://web.resource.org/cc/ShareAlike" /></cc:License></rdf:RDF>
  </metadata>
  <path
     d="M 249.55058,1.4395041 L 1.4495291,1.4395041 L 1.4495291,174.9361 C 0.68228908,268.65698 81.738969,302.75585 125.50006,302.75585 C 168.49391,302.75585 250.31781,268.65698 249.55058,174.9361 L 249.55058,1.4395041 z "
     style="color:#000000;fill:#003d8f;fill-opacity:1;stroke:none"
     id="Shield" />
  <g
     transform="matrix(0.993545,0,0,1,0.810124,0)"
     style="fill:#eeeeee;fill-opacity:1"
     id="Karvskura">
    <path
       d="M 146.1248,91.732637 C 146.1283,101.95271 137.43077,110.23947 126.70061,110.23947 C 115.97044,110.23947 107.27291,101.95271 107.27642,91.732637 C 107.27291,81.512567 115.97044,73.225803 126.70061,73.225803 C 137.43077,73.225803 146.1283,81.512567 146.1248,91.732637 L 146.1248,91.732637 z "
       style="fill:#eeeeee;fill-opacity:1;fill-rule:nonzero;stroke:none;stroke-width:1;stroke-miterlimit:4;stroke-dasharray:none;stroke-opacity:1"
       id="path2041" />
    <use
       transform="translate(38.8484,0)"
       style="fill:#eeeeee;fill-opacity:1"
       id="use2061"
       x="0"
       y="0"
       width="275"
       height="321"
       xlink:href="#path2041" />
    <use
       transform="translate(-38.8484,0)"
       style="fill:#eeeeee;fill-opacity:1"
       id="use2063"
       x="0"
       y="0"
       width="275"
       height="321"
       xlink:href="#path2041" />
    <use
       transform="translate(-77.6968,0)"
       style="fill:#eeeeee;fill-opacity:1"
       id="use2065"
       x="0"
       y="0"
       width="275"
       height="321"
       xlink:href="#path2041" />
    <use
       transform="translate(77.6968,0)"
       style="fill:#eeeeee;fill-opacity:1"
       id="use2067"
       x="0"
       y="0"
       width="275"
       height="321"
       xlink:href="#path2041" />
    <path
       d="M 0.49999986,107.57125 C 1.1774858,107.94237 1.8381631,108.34833 2.5638211,108.64083 C 3.7256311,109.10913 4.9417686,109.46383 6.2058586,109.71041 C 7.4699486,109.95699 8.7807791,110.08621 10.121049,110.08621 C 11.461319,110.08621 12.772149,109.95699 14.036239,109.71041 C 15.300329,109.46383 16.516467,109.10913 17.678277,108.64083 C 18.840087,108.17253 19.953033,107.60045 20.986461,106.93529 C 22.019888,106.27013 22.960445,105.51766 23.83939,104.6805 C 24.718335,103.84334 25.538705,102.91859 26.237065,101.93429 C 26.935425,100.94999 27.536058,99.889952 28.027733,98.783373 C 28.519408,97.676794 28.891806,96.518468 29.150695,95.314473 C 29.409584,94.110478 29.545249,92.861961 29.545249,91.585405 C 29.545249,90.30885 29.409583,89.060333 29.150695,87.856338 C 28.891807,86.652343 28.519408,85.494017 28.027733,84.387438 C 27.536058,83.280859 26.935425,82.249726 26.237065,81.265428 C 25.538705,80.28113 24.718335,79.356377 23.83939,78.519215 C 22.960445,77.682054 22.019888,76.92959 20.986461,76.26443 C 19.953033,75.599271 18.840087,75.027189 17.678277,74.558888 C 16.516467,74.090586 15.300329,73.706982 14.036239,73.460403 C 12.772149,73.213824 11.461319,73.084605 10.121049,73.084605 C 8.7807791,73.084605 7.4699486,73.213824 6.2058586,73.460403 C 4.9417686,73.706982 3.7256311,74.090586 2.5638211,74.558888 C 1.8381631,74.851386 1.1774858,75.257349 0.49999986,75.628465 L 0.49999986,107.57125 z "
       style="fill:#eeeeee;fill-opacity:1;fill-rule:nonzero;stroke:none;stroke-width:1;stroke-miterlimit:4;stroke-dasharray:none;stroke-opacity:1"
       id="path2106" />
    <path
       d="M 250.50003,74.619848 C 249.42588,74.206383 248.32075,73.834221 247.1615,73.608085 C 245.89741,73.361507 244.58658,73.232288 243.24631,73.232288 C 241.90604,73.232288 240.59521,73.361507 239.33112,73.608085 C 238.06703,73.854664 236.85089,74.238269 235.68908,74.70657 C 234.52727,75.174872 233.41432,75.746954 232.3809,76.412113 C 231.34747,77.077272 230.37656,77.829737 229.49762,78.666898 C 228.61867,79.504059 227.82865,80.428812 227.13029,81.41311 C 226.43193,82.397409 225.8313,83.428541 225.33962,84.53512 C 224.84795,85.6417 224.47555,86.800025 224.21666,88.00402 C 223.95778,89.208016 223.82211,90.456533 223.82211,91.733088 C 223.82211,93.009643 223.95778,94.25816 224.21666,95.462155 C 224.47555,96.666151 224.84795,97.824476 225.33962,98.931055 C 225.8313,100.03763 226.43193,101.09767 227.13029,102.08197 C 227.82865,103.06627 228.61867,103.99102 229.49762,104.82819 C 230.37656,105.66535 231.34747,106.41781 232.3809,107.08297 C 233.41432,107.74813 234.52727,108.32021 235.68908,108.78851 C 236.85089,109.25681 238.06703,109.61151 239.33112,109.85809 C 240.59521,110.10467 241.90604,110.23389 243.24631,110.23389 C 244.58658,110.23389 245.89741,110.10467 247.1615,109.85809 C 248.32049,109.63201 249.42611,109.28857 250.50003,108.87524 L 250.50003,74.619848 z "
       style="fill:#eeeeee;fill-opacity:1;fill-rule:nonzero;stroke:none;stroke-width:1;stroke-miterlimit:4;stroke-dasharray:none;stroke-opacity:1"
       id="path2098" />
  </g>
  <path
     d="M 1.1,1.0980112 L 1.1,91.292012 L 249.6,91.292012 L 249.6,1.0980112 L 125.35,1.0980112 L 1.1,1.0980112 z "
     style="color:#000000;fill:#eeeeee;fill-opacity:1;fill-rule:nonzero;stroke:none;stroke-width:1.88832211;stroke-linecap:round;stroke-linejoin:bevel;marker:none;marker-start:none;marker-mid:none;marker-end:none;stroke-miterlimit:4;stroke-dashoffset:0;stroke-opacity:1;visibility:visible;display:block"
     id="Chef" />
  <path
     d="M 249.55062,1.4395041 L 1.449569,1.4395041 L 1.449569,174.9361 C 0.68232904,268.65698 81.739009,302.75585 125.5001,302.75585 C 168.49395,302.75585 250.31785,268.65698 249.55062,174.9361 L 249.55062,1.4395041 z "
     style="fill:none;fill-opacity:0;stroke:#000000;stroke-width:1.88832211;stroke-linejoin:bevel"
     id="Frame" />
  <g
     transform="matrix(0.537084,0,0,0.537084,0.718706,-86.44474)"
     id="Boat">
    <path
       d="M 122.08091,224.84734 C 122.08091,224.84734 120.08091,211.59734 122.33091,208.34734 C 124.58091,205.09734 133.58091,206.59734 135.33091,208.59734 C 137.08091,210.59734 135.83091,228.84734 135.83091,228.84734 L 122.08091,224.84734 z "
       style="fill:#003d8f;fill-opacity:1;fill-rule:evenodd;stroke:none;stroke-width:1px;stroke-linecap:butt;stroke-linejoin:miter;stroke-opacity:1"
       id="path2174" />
    <path
       d="M 149.08091,229.34734 C 149.08091,229.34734 147.08091,216.09734 149.33091,212.84734 C 151.58091,209.59734 160.58091,211.09734 162.33091,213.09734 C 164.08091,215.09734 162.83091,233.34734 162.83091,233.34734 L 149.08091,229.34734 z "
       style="fill:#003d8f;fill-opacity:1;fill-rule:evenodd;stroke:none;stroke-width:1px;stroke-linecap:butt;stroke-linejoin:miter;stroke-opacity:1"
       id="path2176" />
    <path
       d="M 282.08091,235.84734 C 282.08091,235.84734 280.08091,222.59734 282.33091,219.34734 C 284.58091,216.09734 293.58091,217.59734 295.33091,219.59734 C 297.08091,221.59734 295.83091,239.84734 295.83091,239.84734 L 282.08091,235.84734 z "
       style="fill:#003d8f;fill-opacity:1;fill-rule:evenodd;stroke:none;stroke-width:1px;stroke-linecap:butt;stroke-linejoin:miter;stroke-opacity:1"
       id="path2178" />
    <path
       d="M 307.33091,235.09734 C 307.33091,235.09734 305.33091,221.84734 307.58091,218.59734 C 309.83091,215.34734 318.83091,216.84734 320.58091,218.84734 C 322.33091,220.84734 321.08091,239.09734 321.08091,239.09734 L 307.33091,235.09734 z "
       style="fill:#003d8f;fill-opacity:1;fill-rule:evenodd;stroke:none;stroke-width:1px;stroke-linecap:butt;stroke-linejoin:miter;stroke-opacity:1"
       id="path2180" />
    <path
       d="M 37.330912,179.09733 C 42.330912,219.09733 53.665242,274.64155 69.330912,290.59733 C 82.830912,304.34733 102.82712,314.09733 111.08091,314.09733 C 136.08091,314.09733 346.08091,314.09733 346.08091,314.09733 C 361.08091,314.84733 386.49371,286.67094 401.58091,264.34733 C 416.59021,242.13904 419.37101,227.40841 427.33091,204.09733 C 427.33091,204.09733 368.52751,233.59733 247.33091,234.09733 C 126.38303,234.5963 97.330907,210.09733 72.330912,200.09733 L 72.330912,189.09733 L 37.330912,179.09733 z "
       style="fill:#003d8f;fill-opacity:1;fill-rule:evenodd;stroke:#eeeeee;stroke-width:1px;stroke-linecap:butt;stroke-linejoin:miter;stroke-opacity:1"
       id="path2164" />
    <path
       d="M 57.788542,227.81781 C 57.788542,227.81781 122.84236,265.29447 246.58604,266.35513 C 370.32971,267.41579 411.69551,218.62542 411.69551,218.62542 C 411.69551,218.62542 374.92591,281.55793 365.02641,290.75031 C 355.12693,299.9427 328.25688,303.12468 328.25688,303.12468 C 328.25688,303.12468 138.75226,303.83179 128.85277,303.83179 C 118.95327,303.83179 110.46799,305.246 85.365702,289.68965 C 60.263412,274.1333 53.015572,195.37929 53.015572,195.37929 L 72.549392,200.24064"
       style="fill:none;fill-opacity:0.75;fill-rule:evenodd;stroke:#eeeeee;stroke-width:2;stroke-linecap:butt;stroke-linejoin:miter;stroke-miterlimit:4;stroke-dasharray:none;stroke-opacity:1"
       id="path3132" />
    <path
       d="M 66.273822,260.34472 C 66.273822,260.34472 139.10582,297.46783 239.16142,296.40717 C 339.21703,295.34651 377.75431,272.36554 377.75431,272.36554"
       style="fill:none;fill-opacity:0.75;fill-rule:evenodd;stroke:#eeeeee;stroke-width:2;stroke-linecap:butt;stroke-linejoin:miter;stroke-miterlimit:4;stroke-dasharray:none;stroke-opacity:1"
       id="path3134" />
  </g>
  <g
     transform="matrix(0.169959,0,0,0.169959,-7.434369,79.95161)"
     id="Sill">
    <path
       d="M 288.50993,341.21138 C 290.00519,341.15623 289.37927,349.93643 287.3922,352.11769 C 280.23088,357.22252 269.51112,350.55389 263.1535,346.63151 C 261.16644,345.0918 259.96013,341.87255 260.81517,341.85294 C 272.42677,341.58659 273.71106,341.75719 288.50993,341.21138 z "
       style="fill:#eeeeee;fill-opacity:1;fill-rule:evenodd;stroke:none;stroke-width:1.12303519px;stroke-linecap:butt;stroke-linejoin:miter;stroke-opacity:1"
       id="path3018" />
    <path
       d="M 355.90138,334.6619 C 376.16699,332.68851 377.04949,331.91662 399.34861,326.32178 C 407.40739,339.81214 384.82703,340.7712 372.09597,343.44826 C 369.99584,343.88987 360.91871,339.72728 358.93164,338.31588 C 356.94458,336.90447 354.78365,336.20161 355.90138,334.6619 z "
       style="fill:#eeeeee;fill-opacity:1;fill-rule:evenodd;stroke:none;stroke-width:1.12303519px;stroke-linecap:butt;stroke-linejoin:miter;stroke-opacity:1"
       id="path3034" />
    <path
       d="M 291.80846,273.83047 C 291.80846,273.83047 296.06156,259.00672 298.01805,257.38758 C 300.39313,255.42203 341.08453,265.4979 362.34938,269.19205 C 368.52082,271.26994 371.74125,275.87182 372.28473,282.04798 C 334.98733,276.71836 316.64445,274.46404 291.80846,273.83047 z "
       style="fill:#eeeeee;fill-opacity:1;fill-rule:evenodd;stroke:none;stroke-width:1.12303519px;stroke-linecap:butt;stroke-linejoin:miter;stroke-opacity:1"
       id="path3032" />
    <path
       d="M 478.95059,295.26954 C 495.77571,286.26329 510.88471,266.69765 531.13595,265.07828 C 533.61979,265.71982 534.7375,269.18419 532.37787,273.41839 C 522.9379,283.10021 514.25896,293.09149 506.54598,304.21269 C 512.67857,317.05218 527.40811,318.95989 536.47619,331.67093 C 541.94063,342.44893 541.56806,347.32469 539.58099,347.06807 C 537.59392,346.81145 518.71677,337.44486 511.01688,333.72388 C 504.04444,328.37957 484.02833,322.82045 479.7752,318.0088 C 481.28325,304.04524 481.59385,304.58142 478.95059,295.26954 z "
       style="fill:#eeeeee;fill-opacity:1;fill-rule:evenodd;stroke:none;stroke-width:1.12303519px;stroke-linecap:butt;stroke-linejoin:miter;stroke-opacity:1"
       id="path3036" />
    <path
       d="M 130.23499,313.32836 C 130.23499,313.32836 128.74468,319.10229 136.81715,321.7968 C 144.88961,324.49129 157.43298,327.69903 163.51837,329.75198 C 194.90864,335.4284 221.71367,322.20173 203.01135,288.69293 C 210.18966,286.3418 212.53996,303.72798 212.97575,309.86401 C 212.18484,323.09257 202.843,329.50465 192.08248,334.88436 C 192.08248,334.88436 204.57942,337.64993 223.25461,339.3752 C 245.38183,341.41937 269.10576,341.88295 292.18104,341.29984 C 306.09051,340.52999 335.52397,336.93732 339.87067,336.6807 C 344.21739,336.42407 371.78796,333.21634 389.54738,328.7255 C 407.3068,324.23467 439.72085,314.99638 452.01584,314.73976 C 464.31082,314.48315 479.33802,318.20413 479.33802,318.20413 C 479.33802,318.20413 481.07671,312.5585 481.32509,307.29781 C 481.57348,302.03712 479.33802,295.23672 479.33802,295.23672 C 479.33802,295.23672 458.47381,294.9801 447.79332,294.08193 C 437.11283,293.18376 399.97949,287.15321 391.16187,285.22857 C 359.65129,280.21015 327.80236,275.73438 295.90679,274.19395 C 278.39576,274.19395 241.75918,271.88438 226.23522,273.68071 C 195.36246,276.1776 166.57176,285.15573 139.30098,299.59924 C 135.07846,302.42205 132.59463,304.73163 132.9672,307.04119 C 133.33977,309.35077 132.59463,310.89048 137.18972,312.68682 C 141.78482,314.48315 152.7137,318.20413 155.44591,319.48722 C 158.17813,320.77031 159.66843,322.82327 158.92328,323.20819 C 158.17813,323.59312 152.83788,321.54018 148.11859,319.48722 C 143.39931,317.43426 137.93487,316.40779 135.32685,314.61146 C 132.71882,312.81512 130.11079,311.01879 130.23499,313.32836 z "
       style="fill:#eeeeee;fill-opacity:1;fill-rule:evenodd;stroke:#003d8f;stroke-width:2.13958216;stroke-linecap:butt;stroke-linejoin:miter;stroke-miterlimit:4;stroke-dasharray:none;stroke-opacity:1"
       id="path3020" />
    <path
       d="M 212.43776,322.56665 C 212.43776,322.56665 235.53743,322.18172 239.0148,320.38539 C 242.49217,318.58905 240.75349,317.56258 238.14546,316.66441 C 235.53743,315.76625 218.89573,314.09821 216.66028,312.81512"
       style="fill:none;fill-opacity:1;fill-rule:evenodd;stroke:#003d8f;stroke-width:2.13958216;stroke-linecap:butt;stroke-linejoin:miter;stroke-miterlimit:4;stroke-dasharray:none;stroke-opacity:1"
       id="path3028" />
    <path
       d="M 147.74602,304.85993 C 147.74602,304.85993 146.87668,299.98417 151.59597,296.64812 C 156.31525,293.31207 161.28293,294.21024 163.89095,296.51981 C 166.49897,298.82938 168.11347,304.60331 166.74736,308.32428 C 165.38125,312.04527 162.15227,315.50962 157.80556,315.76625 C 153.45884,316.02287 148.98794,311.53203 148.36698,309.22245 C 147.74602,306.91289 147.74602,305.11655 147.74602,304.85993 z "
       style="fill:#003d8f;fill-opacity:1;fill-rule:evenodd;stroke:none;stroke-width:1.12303519px;stroke-linecap:butt;stroke-linejoin:miter;stroke-opacity:1"
       id="path3022" />
    <path
       d="M 150.85081,302.93529 C 150.85081,302.93529 152.21692,298.82938 154.94914,297.6746 C 157.68136,296.51981 161.77969,297.54629 162.89742,299.47094 C 164.01514,301.39558 165.50544,305.88641 164.01514,309.09415 C 162.52484,312.30188 158.79909,313.96991 155.5701,312.81512 C 152.34111,311.66033 149.6089,307.42613 150.85081,302.93529 z "
       style="fill:#eeeeee;fill-opacity:1;fill-rule:evenodd;stroke:none;stroke-width:1.12303519px;stroke-linecap:butt;stroke-linejoin:miter;stroke-opacity:1"
       id="path3024" />
    <path
       d="M 157.30878,300.24079 C 157.30878,300.24079 161.28293,300.11248 161.90389,303.57684 C 162.52484,307.04119 160.91034,308.83753 159.54424,309.60739 C 158.17813,310.37724 154.32818,309.86401 153.58304,307.68274 C 152.83788,305.50148 153.08627,302.93529 153.95561,301.6522 C 154.82495,300.3691 157.30878,300.3691 157.30878,300.24079 z "
       style="fill:#003d8f;fill-opacity:1;fill-rule:evenodd;stroke:none;stroke-width:1.12303519px;stroke-linecap:butt;stroke-linejoin:miter;stroke-opacity:1"
       id="path3026" />
    <path
       d="M 177.55205,292.02898 C 188.95943,299.851 189.39677,308.54432 185.25194,320.89863 C 185.12774,322.43834 181.79907,323.81372 183.14067,320.25707 C 192.34768,295.84878 169.47533,293.7905 177.55205,292.02898 z "
       style="fill:#003d8f;fill-opacity:1;fill-rule:evenodd;stroke:none;stroke-width:1.12303519px;stroke-linecap:butt;stroke-linejoin:miter;stroke-opacity:1"
       id="path3030" />
  </g>
  <use
     transform="translate(75.99999,0)"
     id="use10662"
     x="0"
     y="0"
     width="251"
     height="304.20001"
     xlink:href="#Sill" />
  <use
     transform="translate(152,0)"
     id="use10664"
     x="0"
     y="0"
     width="251"
     height="304.20001"
     xlink:href="#Sill" />
  <use
     transform="translate(30.75,44.69403)"
     id="use10666"
     x="0"
     y="0"
     width="251"
     height="304.20001"
     xlink:href="#Sill" />
  <use
     transform="translate(114,44.69403)"
     id="use10668"
     x="0"
     y="0"
     width="251"
     height="304.20001"
     xlink:href="#Sill" />
  <use
     transform="translate(0,89.38806)"
     id="use10670"
     x="0"
     y="0"
     width="251"
     height="304.20001"
     xlink:href="#Sill" />
  <use
     transform="translate(75.99999,89.38806)"
     id="use10672"
     x="0"
     y="0"
     width="251"
     height="304.20001"
     xlink:href="#Sill" />
  <use
     transform="translate(152,89.38806)"
     id="use10674"
     x="0"
     y="0"
     width="251"
     height="304.20001"
     xlink:href="#Sill" />
  <use
     transform="translate(30.75,134.0821)"
     id="use10676"
     x="0"
     y="0"
     width="251"
     height="304.20001"
     xlink:href="#Sill" />
  <use
     transform="translate(114,134.0821)"
     id="use10678"
     x="0"
     y="0"
     width="251"
     height="304.20001"
     xlink:href="#Sill" />
</svg>
