<?xml version="1.0" encoding="UTF-8" standalone="no"?>
<!-- Created with Inkscape (http://www.inkscape.org/) -->
<svg
   xmlns:dc="http://purl.org/dc/elements/1.1/"
   xmlns:cc="http://web.resource.org/cc/"
   xmlns:rdf="http://www.w3.org/1999/02/22-rdf-syntax-ns#"
   xmlns:svg="http://www.w3.org/2000/svg"
   xmlns="http://www.w3.org/2000/svg"
   xmlns:xlink="http://www.w3.org/1999/xlink"
   version="1.0"
   width="251"
   height="304.20001"
   id="svg4166">
  <defs
     id="defs4168" />
  <metadata
     id="metadata1880"><rdf:RDF><cc:Work
         rdf:about=""><dc:title>Sotenas kommunvapen</dc:title><dc:date>10-10-2007</dc:date><dc:creator><cc:Agent><dc:title>Lokal_Profil</dc:title></cc:Agent></dc:creator><cc:license
         rdf:resource="http://creativecommons.org/licenses/by-sa/2.5/" /><dc:rights><cc:Agent><dc:title>cc-by-sa-2.5</dc:title></cc:Agent></dc:rights><dc:format>image/svg+xml</dc:format><dc:type
         rdf:resource="http://purl.org/dc/dcmitype/StillImage" /></cc:Work><cc:License
         rdf:about="http://creativecommons.org/licenses/by-sa/2.5/"><cc:permits
         rdf:resource="http://web.resource.org/cc/Reproduction" /><cc:permits
         rdf:resource="http://web.resource.org/cc/Distribution" /><cc:requires
         rdf:resource="http://web.resource.org/cc/Notice" /><cc:requires
         rdf:resource="http://web.resource.org/cc/Attribution" /><cc:permits
         rdf:resource="http://web.resource.org/cc/DerivativeWorks" /><cc:requires
         rdf:resource="http://web.resource.org/cc/ShareAlike" /></cc:License></rdf:RDF>
  </metadata>
  <path
     d="M 249.55058,1.4395041 L 125.50008,1.4395041 L 1.4495291,1.4395041 L 1.4495291,174.9361 C 0.68228908,268.65698 81.738969,302.75585 125.50006,302.75585 C 168.49391,302.75585 250.31781,268.65698 249.55058,174.9361 L 249.55058,1.4395041 z "
     style="color:#000000;fill:#003d8f;fill-opacity:1;fill-rule:nonzero;stroke:none;stroke-width:1.88832211;stroke-linecap:round;stroke-linejoin:bevel;marker:none;marker-start:none;marker-mid:none;marker-end:none;stroke-miterlimit:4;stroke-dashoffset:0;stroke-opacity:1;visibility:visible;display:block"
     id="Border" />
  <path
     d="M 225.49782,30.651362 L 125.50007,30.651362 L 25.502292,30.651362 L 25.502292,170.50785 C 24.883816,246.05672 90.224016,273.54401 125.50005,273.54401 C 160.15762,273.54401 226.11626,246.05672 225.49782,170.50785 L 225.49782,30.651362 z "
     style="color:#000000;fill:#eeeeee;fill-opacity:1;fill-rule:nonzero;stroke:none;stroke-width:1.88832211;stroke-linecap:round;stroke-linejoin:bevel;marker:none;marker-start:none;marker-mid:none;marker-end:none;stroke-miterlimit:4;stroke-dashoffset:0;stroke-opacity:1;visibility:visible;display:block"
     id="Shield" />
  <g
     id="Plattfisk">
    <path
       d="M 54.244764,229.86554 C 57.278577,232.84658 59.75396,231.47165 64.143736,231.73506 C 91.948705,217.21641 90.241549,220.2264 78.682344,231.45272 C 88.653906,230.55172 97.916389,228.22968 98.865474,224.51366 C 179.89968,234.87216 190.14937,165.96202 175.38433,105.95406 C 174.97212,101.24958 176.39967,96.872319 179.09322,93.662264 C 186.2321,85.154455 223.0978,85.185254 211.75319,62.49605 C 210.9463,60.882253 202.10669,53.650288 202.10669,53.650288 C 202.10669,53.650288 192.46018,46.216601 190.44295,45.813148 C 165.56828,40.838221 173.83776,74.754384 166.69888,83.26219 C 164.00533,86.472245 159.94242,88.638191 155.23782,89.049158 C 92.256435,76.743998 33.039891,116.23208 51.766963,184.99338 C 44.777481,188.15331 49.053727,223.09341 54.244764,229.86554 z "
       style="fill:#003d8f;fill-opacity:1;fill-rule:evenodd;stroke:none;stroke-width:0.87559295;stroke-linecap:butt;stroke-linejoin:miter;stroke-miterlimit:4;stroke-dasharray:none;stroke-opacity:1"
       id="path1885" />
    <path
       d="M 50.84854,184.52491 C 62.877839,96.75701 144.02289,88.205118 154.51105,87.944445"
       style="fill:none;fill-rule:evenodd;stroke:#eeeeee;stroke-width:1.35064983;stroke-linecap:butt;stroke-linejoin:miter;stroke-miterlimit:4;stroke-dasharray:none;stroke-opacity:1"
       id="path2777" />
    <path
       d="M 99.197589,225.27625 C 183.54319,198.18884 177.88437,116.85242 176.31981,106.47833"
       style="fill:none;fill-rule:evenodd;stroke:#eeeeee;stroke-width:1.35064983;stroke-linecap:butt;stroke-linejoin:miter;stroke-miterlimit:4;stroke-dasharray:none;stroke-opacity:1"
       id="use2779" />
    <use
       transform="translate(-8.967787,-7.524856)"
       id="use2785"
       x="0"
       y="0"
       width="125"
       height="155"
       xlink:href="#Eye" />
    <path
       d="M 99.277796,224.89189 C 106.40982,196.93435 100.44267,201.42471 86.725431,186.09367"
       style="fill:none;fill-rule:evenodd;stroke:#eeeeee;stroke-width:1px;stroke-linecap:butt;stroke-linejoin:miter;stroke-opacity:1"
       id="path3727" />
    <g
       id="Eye">
      <path
         d="M 27.238064,25.079575 C 27.238214,25.363541 27.054096,25.593841 26.826923,25.593841 C 26.599751,25.593841 26.415633,25.363541 26.415783,25.079575 C 26.415633,24.795609 26.599751,24.565309 26.826923,24.565309 C 27.054096,24.565309 27.238214,24.795609 27.238064,25.079575 L 27.238064,25.079575 z "
         transform="matrix(-5.544813,-4.652643,4.652643,-5.544813,99.74145,474.2419)"
         style="fill:#eeeeee;fill-opacity:1;fill-rule:evenodd;stroke:none;stroke-width:0.5;stroke-linecap:round;stroke-linejoin:round;stroke-miterlimit:4;stroke-dasharray:none;stroke-opacity:1"
         id="path2783" />
      <path
         d="M 65.425681,209.55528 C 66.262545,208.55687 67.588744,208.29046 68.387118,208.96037 C 69.185489,209.63028 69.153415,210.98259 68.315496,211.98012 C 67.47863,212.97852 66.152433,213.24494 65.354062,212.57503 C 64.555687,211.90511 64.587761,210.5528 65.425681,209.55528 L 65.425681,209.55528 z "
         style="fill:#003d8f;fill-opacity:1;fill-rule:evenodd;stroke:none;stroke-width:0.5;stroke-linecap:round;stroke-linejoin:round;stroke-miterlimit:4;stroke-dasharray:none;stroke-opacity:1"
         id="use1878" />
    </g>
  </g>
  <path
     d="M 249.55062,1.4395041 L 125.50012,1.4395041 L 1.449569,1.4395041 L 1.449569,174.9361 C 0.68232904,268.65698 81.739009,302.75585 125.5001,302.75585 C 168.49395,302.75585 250.31785,268.65698 249.55062,174.9361 L 249.55062,1.4395041 z "
     style="color:#000000;fill:none;fill-opacity:0;fill-rule:nonzero;stroke:#000000;stroke-width:1.88832211;stroke-linecap:round;stroke-linejoin:bevel;marker:none;marker-start:none;marker-mid:none;marker-end:none;stroke-miterlimit:4;stroke-dashoffset:0;stroke-opacity:1;visibility:visible;display:block"
     id="Frame" />
</svg>
