<?xml version="1.0" encoding="UTF-8" standalone="no"?>
<!-- Created with Inkscape (http://www.inkscape.org/) -->
<svg
   xmlns:dc="http://purl.org/dc/elements/1.1/"
   xmlns:cc="http://web.resource.org/cc/"
   xmlns:rdf="http://www.w3.org/1999/02/22-rdf-syntax-ns#"
   xmlns:svg="http://www.w3.org/2000/svg"
   xmlns="http://www.w3.org/2000/svg"
   version="1.0"
   width="251"
   height="304.20001"
   id="svg4166">
  <defs
     id="defs4168" />
  <metadata
     id="metadata1880"><rdf:RDF><cc:Work
         rdf:about=""><dc:title>Dals-Ed kommunvapen</dc:title><dc:date>31-08-2007</dc:date><dc:creator><cc:Agent><dc:title>Lokal_Profil</dc:title></cc:Agent></dc:creator><cc:license
         rdf:resource="http://creativecommons.org/licenses/by-sa/2.5/" /><dc:rights><cc:Agent><dc:title>cc-by-sa-2.5</dc:title></cc:Agent></dc:rights><dc:format>image/svg+xml</dc:format><dc:type
         rdf:resource="http://purl.org/dc/dcmitype/StillImage" /></cc:Work><cc:License
         rdf:about="http://creativecommons.org/licenses/by-sa/2.5/"><cc:permits
         rdf:resource="http://web.resource.org/cc/Reproduction" /><cc:permits
         rdf:resource="http://web.resource.org/cc/Distribution" /><cc:requires
         rdf:resource="http://web.resource.org/cc/Notice" /><cc:requires
         rdf:resource="http://web.resource.org/cc/Attribution" /><cc:permits
         rdf:resource="http://web.resource.org/cc/DerivativeWorks" /><cc:requires
         rdf:resource="http://web.resource.org/cc/ShareAlike" /></cc:License></rdf:RDF>
  </metadata>
  <path
     d="M 249.55058,1.4395041 L 125.50008,1.4395041 L 1.4495291,1.4395041 L 1.4495291,174.9361 C 0.68228908,268.65698 81.738969,302.75585 125.50006,302.75585 C 168.49391,302.75585 250.31781,268.65698 249.55058,174.9361 L 249.55058,1.4395041 z "
     style="color:#000000;fill:#003d8f;fill-opacity:1;fill-rule:nonzero;stroke:none;stroke-width:1.88832211;stroke-linecap:round;stroke-linejoin:bevel;marker:none;marker-start:none;marker-mid:none;marker-end:none;stroke-miterlimit:4;stroke-dashoffset:0;stroke-opacity:1;visibility:visible;display:block"
     id="Shield" />
  <path
     d="M 125.59375,127.03125 C 71.060705,127.03125 63.709465,161.95623 1.4375,169.5625 L 1.4375,174.9375 C 1.3176188,189.58139 3.2039775,202.76373 6.625,214.59375 L 244.3125,214.59375 C 247.76221,202.76373 249.68238,189.58139 249.5625,174.9375 L 249.5625,169.53125 C 186.07552,161.8618 179.48071,127.03125 125.59375,127.03125 z "
     style="fill:#eeeeee;fill-opacity:1;stroke:none;stroke-width:1;stroke-miterlimit:4;stroke-opacity:1"
     id="hojd" />
  <path
     d="M 21.625,176.90625 C 12.044838,176.90625 11.30219,195.48821 3.09375,198.375 C 14.721502,274.40251 85.602953,302.75 125.5,302.75 C 164.69805,302.74999 236.1727,274.40469 247.90625,198.375 C 239.69782,195.48821 238.95517,176.90625 229.375,176.90625 C 218.98868,176.90625 218.98006,198.78125 208.59375,198.78125 C 198.20744,198.78125 198.1988,176.90625 187.8125,176.90625 C 177.42619,176.90625 177.41757,198.78125 167.03125,198.78125 C 156.64494,198.78125 156.66756,176.90625 146.28125,176.90625 C 135.89494,176.90625 135.88631,198.78125 125.5,198.78125 C 115.11368,198.78125 115.10506,176.90625 104.71875,176.90625 C 94.332444,176.90625 94.355059,198.78125 83.96875,198.78125 C 73.582443,198.78125 73.573809,176.90625 63.1875,176.90625 C 52.801192,176.90625 52.792559,198.78125 42.40625,198.78125 C 32.019942,198.78125 32.011309,176.90625 21.625,176.90625 z "
     style="fill:#225500;fill-opacity:1;stroke:none;stroke-width:1.09289885;stroke-miterlimit:4;stroke-opacity:1"
     id="Vagskuren-stam" />
  <path
     d="M 18,241.1875 C 43.890457,285.34026 94.223951,302.75 125.5,302.75 C 156.22531,302.74999 206.77253,285.33267 232.84375,241.1875 L 18,241.1875 z "
     style="opacity:1;fill:#003d8f;fill-opacity:1;stroke:none;stroke-width:1;stroke-miterlimit:4;stroke-dasharray:none;stroke-opacity:1"
     id="Delad-stam" />
  <path
     d="M 95.641084,102.36999 C 94.80831,93.557033 98.0414,89.935263 95.543112,81.424143 C 97.649504,82.691753 99.462005,85.106263 100.39271,87.158613 C 101.8133,77.983495 102.69506,68.204754 102.00926,59.512568 C 105.14436,60.47834 107.29977,67.23895 108.62237,70.438184 C 112.14937,57.399848 113.0801,45.629151 110.58181,38.627076 C 113.76592,39.049643 115.6274,43.637174 117.78277,48.828353 C 119.88918,45.387687 119.54629,38.264922 119.54629,30.900652 C 119.88918,27.399625 120.37903,23.476063 122.14254,21.604838 C 123.85704,38.083809 130.42119,36.695481 134.09513,55.045707 C 135.41776,51.423959 135.66271,47.500386 135.31979,42.55067 C 139.63058,45.629151 143.40249,57.158406 145.41092,73.637397 C 147.32138,72.43014 148.20313,67.782207 148.93793,62.530699 C 153.10173,69.834545 154.57132,78.949319 152.46493,89.814563 C 151.38724,92.893043 150.70142,96.03189 151.04433,99.53293 C 152.80781,98.20496 153.39566,95.00576 154.42437,92.349773 C 155.15914,96.27336 155.89395,100.92125 155.25715,104.30157 C 153.15072,123.85905 134.96804,127.17125 123.48018,127.07243 C 117.04817,127.01486 97.952098,122.59086 95.641084,102.36999 z "
     style="font-style:normal;font-variant:normal;font-weight:normal;font-stretch:normal;letter-spacing:normal;word-spacing:normal;text-anchor:start;fill:#d40000;fill-opacity:1;fill-rule:evenodd;stroke:none;stroke-width:0;stroke-linecap:butt;stroke-linejoin:miter;stroke-miterlimit:10.43299961;stroke-dasharray:none;stroke-dashoffset:0;stroke-opacity:1"
     id="Eld" />
  <path
     d="M 249.55062,1.4395041 L 125.50012,1.4395041 L 1.449569,1.4395041 L 1.449569,174.9361 C 0.68232904,268.65698 81.739009,302.75585 125.5001,302.75585 C 168.49395,302.75585 250.31785,268.65698 249.55062,174.9361 L 249.55062,1.4395041 z "
     style="color:#000000;fill:none;fill-opacity:0;fill-rule:nonzero;stroke:#000000;stroke-width:1.88832211;stroke-linecap:round;stroke-linejoin:bevel;marker:none;marker-start:none;marker-mid:none;marker-end:none;stroke-miterlimit:4;stroke-dashoffset:0;stroke-opacity:1;visibility:visible;display:block"
     id="Frame" />
</svg>
