<?xml version="1.0" encoding="UTF-8" standalone="no"?>
<!-- Created with Inkscape (http://www.inkscape.org/) -->
<svg
   xmlns:dc="http://purl.org/dc/elements/1.1/"
   xmlns:cc="http://web.resource.org/cc/"
   xmlns:rdf="http://www.w3.org/1999/02/22-rdf-syntax-ns#"
   xmlns:svg="http://www.w3.org/2000/svg"
   xmlns="http://www.w3.org/2000/svg"
   version="1.0"
   width="251"
   height="304.20001"
   id="svg4166">
  <defs
     id="defs4168" />
  <metadata
     id="metadata1880"><rdf:RDF><cc:Work
         rdf:about=""><dc:title>Ale kommunvapen</dc:title><dc:date>29-10-2007</dc:date><dc:creator><cc:Agent><dc:title>Lokal_Profil</dc:title></cc:Agent></dc:creator><cc:license
         rdf:resource="http://creativecommons.org/licenses/by-sa/2.5/" /><dc:rights><cc:Agent><dc:title>cc-by-sa-2.5</dc:title></cc:Agent></dc:rights><dc:format>image/svg+xml</dc:format><dc:type
         rdf:resource="http://purl.org/dc/dcmitype/StillImage" /></cc:Work><cc:License
         rdf:about="http://creativecommons.org/licenses/by-sa/2.5/"><cc:permits
         rdf:resource="http://web.resource.org/cc/Reproduction" /><cc:permits
         rdf:resource="http://web.resource.org/cc/Distribution" /><cc:requires
         rdf:resource="http://web.resource.org/cc/Notice" /><cc:requires
         rdf:resource="http://web.resource.org/cc/Attribution" /><cc:permits
         rdf:resource="http://web.resource.org/cc/DerivativeWorks" /><cc:requires
         rdf:resource="http://web.resource.org/cc/ShareAlike" /></cc:License></rdf:RDF>
  </metadata>
  <path
     d="M 249.55058,1.4395041 L 125.50008,1.4395041 L 1.4495291,1.4395041 L 1.4495291,174.9361 C 0.68228908,268.65698 81.738969,302.75585 125.50006,302.75585 C 168.49391,302.75585 250.31781,268.65698 249.55058,174.9361 L 249.55058,1.4395041 z "
     style="fill:#eeeeee;stroke:none"
     id="Shield" />
  <path
     d="M 128.375,274.1875 C 105.55083,274.18751 104.66712,293.07794 83.53125,294.53125 C 98.687218,300.1881 113.49749,302.75 125.5,302.75 C 137.71353,302.75 153.05291,299.99487 168.75,293.90625 C 151.83017,290.31264 149.46954,274.1875 128.375,274.1875 z "
     style="fill:#003d8f;stroke:none"
     id="Vagskura-2" />
  <path
     d="M 33.40625,232.1875 C 25.555545,232.1875 20.29502,234.42357 15.90625,237.40625 C 18.936864,243.22637 22.658335,248.66029 26.625,253.84375 C 28.665514,253.43464 30.891188,253.1875 33.40625,253.1875 C 57.143253,253.1875 57.169232,273.62499 80.90625,273.625 C 104.64326,273.625 104.638,253.18749 128.375,253.1875 C 152.11201,253.1875 152.10675,273.62499 175.84375,273.625 C 199.58075,273.625 199.54425,253.18749 223.28125,253.1875 C 223.75179,253.1875 224.20386,253.20304 224.65625,253.21875 C 228.9921,247.64131 232.92899,241.53193 236.3125,234.875 C 232.81156,233.24847 228.66278,232.1875 223.28125,232.1875 C 199.54425,232.18749 199.58075,252.625 175.84375,252.625 C 152.10675,252.62497 152.11201,232.1875 128.375,232.1875 C 104.638,232.18749 104.64326,252.625 80.90625,252.625 C 57.169232,252.62497 57.143253,232.1875 33.40625,232.1875 z M 15.90625,237.40625 C 13.935613,233.60286 13.898135,233.62077 15.90625,237.40625 z "
     style="fill:#003d8f;stroke:none"
     id="Vagskura-1" />
  <g
     transform="matrix(0.277851,0,0,0.441256,50.46451,-9.843248)"
     id="Leaf">
    <path
       d="M 247.2401,485.40146 C 244.09785,465.88382 254.04047,455.96719 255.24604,436.7825 C 255.40385,434.27119 202.74343,432.23445 209.5325,414.01491 C 211.76405,408.0262 254.26713,400.155 253.29595,400.3274 C 199.915,409.80344 156.47804,409.69632 150.45358,408.44337 C 130.64076,404.32276 111.03627,396.3198 99.765876,387.7516 C 91.724332,381.6381 91.399538,379.74465 98.25687,378.95454 C 106.24601,378.03402 106.12048,376.83737 97.360863,370.41356 C 82.531276,359.53837 74.043922,351.8604 68.031075,343.88075 C 58.872986,331.72705 58.572666,327.5041 67.149008,331.47758 C 71.977728,333.71476 75,333.87557 75,331.89533 C 75,331.40544 73.484462,328.86609 71.632137,326.25231 C 67.354476,320.21621 62.066083,308.30072 57.983478,295.5 C 55.522851,287.78488 54.67405,283.04376 54.26861,274.75 C 53.957935,268.39476 54.124229,264 54.675382,264 C 55.188139,264 57.134217,265.575 59,267.5 C 60.865783,269.425 63.233618,271 64.261854,271 C 66.026545,271 66.092441,270.28378 65.437033,258.22709 C 64.653092,243.80594 65.695035,235.03905 69.683189,222.5 C 72.171898,214.67532 76.071581,206.69183 77.981601,205.51137 C 78.50843,205.18577 79.605129,206.51251 80.41871,208.45969 C 82.385901,213.16784 84.733346,213.07145 85.525459,208.25 C 86.777557,200.6287 90.316523,190.30485 94.855956,181.03111 C 99.264526,172.02473 105.68827,162.12462 107.1791,162.039 C 107.55261,162.01755 108.37737,164.50082 109.01191,167.55738 C 110.61693,175.28871 112.42198,174.42601 116.45516,164 C 121.39291,151.23561 128.69322,139.44252 137.34751,130.25 C 142.81196,124.4457 143.99341,123.914 144.01365,127.25 C 144.03641,130.99885 145.15816,134 146.53663,134 C 147.25349,134 149.7885,130.90938 152.17,127.13196 C 157.05559,119.38267 174.66386,100 176.81814,100 C 177.92165,100 178.08056,100.97713 177.55115,104.50744 C 176.52005,111.38332 178.87382,111.49839 184.70757,104.85729 C 193.68982,94.631967 207.06521,83 209.84087,83 C 210.52249,83 211,84.61413 211,86.918213 C 211,91.224722 211.78403,94 213.00063,94 C 213.43329,94 216.51661,91.329352 219.85246,88.065227 C 223.18831,84.801102 228.52367,80.355817 231.70882,78.186816 C 234.89397,76.017815 238.35724,73.288463 239.40499,72.121589 C 242.0811,69.141191 242.72935,69.438545 243.5,74 C 243.87169,76.2 244.69874,77.974439 245.3379,77.943198 C 248.53789,77.786789 264.30807,54.538764 266.15848,47.25 C 267.1174,43.472803 269,41.333322 269,44.020752 C 269,46.514887 279.92606,66.73276 284.55338,72.801145 C 290.91946,81.149786 293.49526,81.731362 293.50993,74.823399 C 293.5154,72.251268 293.83257,69.834096 294.21476,69.451904 C 296.17287,67.493798 308.77209,78.292158 320.28889,91.799143 C 321.82277,93.598097 323.51027,94.802668 324.03889,94.475967 C 324.5675,94.149267 325,91.433524 325,88.440983 C 325,85.448442 325.38248,83 325.84996,83 C 328.82116,83 340.05085,93.839631 350.5,106.79385 C 353.25,110.20312 356.01436,112.99421 356.64301,112.99627 C 358.21808,113.00141 358.99721,110.59467 359.01531,105.66821 C 359.04534,97.494928 360.0864,97.713755 370.21042,108.02137 C 375.33081,113.23462 382.12841,120.9875 385.31621,125.25 C 388.50401,129.5125 391.50664,133 391.98872,133 C 392.86223,133 393.26511,131.96692 394.42611,126.75 C 394.76271,125.2375 395.44374,124 395.93953,124 C 396.43531,124 399.52118,127.2237 402.79702,131.16378 C 408.36043,137.85528 414.68528,149.15837 421.91941,165.33724 C 423.75314,169.43833 425.47292,172.00903 426.21687,171.76104 C 426.89904,171.53365 428.32965,168.6819 429.39602,165.4238 C 430.46238,162.16571 431.51529,159.28172 431.73582,159.01494 C 434.15548,156.08779 451.06265,194.27259 453.20367,207.5 C 453.79564,211.15731 456.33883,209.5691 459.20852,203.75 C 460.76811,200.5875 462.46838,198 462.98689,198 C 464.30924,198 465.75136,200.96827 467.96109,208.23829 C 471.56294,220.08837 472.32613,226.4448 472.42543,245.42074 C 472.49188,258.11817 472.88338,264.46113 473.61571,264.70524 C 474.2159,264.9053 476.9752,263.02964 479.7475,260.53711 C 485.83095,255.06756 486,255.29418 486,268.91897 C 486,284.07769 480.70634,299.79533 469.56158,317.72698 C 466.50271,322.64863 464,327.19847 464,327.83772 C 464,329.55912 467.28264,329.25357 473,327 C 482.01903,323.44503 482.80697,324.49236 478.09973,333.77852 C 472.71662,344.39801 455.85411,361.83365 443.25179,369.81089 C 437.31189,373.57083 437.76537,374.845 445.17063,375.20228 C 448.56448,375.36603 451.49704,375.97267 451.68742,376.55038 C 452.34631,378.54968 445.08441,385.70165 436.80974,391.20284 C 422.62067,400.63606 411.80813,405.24472 397.256,408.06193 C 393.8218,408.72678 318.43353,404.26464 281.82894,400.03734 C 274.71959,399.21631 325.61471,404.84687 325.5208,414.39827 C 325.28127,439.26074 283.11713,430.60466 276.54891,435.5059 C 269.91139,445.63067 271.83265,450.58344 271.00402,462.33077 C 271.01428,483.17929 269.65763,495.90561 280.6905,509.81619 C 236.64573,560.59586 250.09709,526.25813 247.2401,485.40146 z "
       style="fill:#225500"
       id="path1910" />
    <path
       d="M 238,369.65934 C 217.288,357.7852 189.59916,342.51975 151.5,321.97004 C 142.51558,317.12407 131.2203,310.47946 123,305.2045 C 116.23499,300.8634 116.54482,301.12185 117.25483,300.41184 C 117.57832,300.08835 119.79082,300.93313 122.17149,302.28913 C 124.55217,303.64513 129.425,306.33013 133,308.2558 C 153.13881,319.10352 165.15568,325.66126 194.24601,341.67843 C 204.55632,347.35529 213.14592,352 213.33401,352 C 213.52209,352 218.81139,354.81915 225.08799,358.26478 C 243.72829,368.49763 259.80267,376.53066 260.41446,375.91888 C 260.72912,375.60421 261.28449,364.09914 261.6486,350.35206 L 262.31061,325.35736 L 259.40531,323.33675 C 257.80739,322.22541 252.9,319.27925 248.5,316.78972 C 244.1,314.3002 236.45,309.889 231.5,306.98707 C 226.55,304.08514 220.025,300.36268 217,298.71492 C 213.975,297.06717 205.2,292.23515 197.5,287.9771 C 189.8,283.71905 181.025,278.90656 178,277.28269 C 150.98191,262.7789 128.67431,250.04907 126.5,247.89422 C 124.50515,245.91723 124.5103,245.91637 128.5,247.56047 C 130.7,248.46706 132.95,249.56428 133.5,249.99874 C 134.05,250.4332 137.425,252.34618 141,254.2498 C 144.575,256.15343 151.55,259.86597 156.5,262.4999 C 161.45,265.13383 169.325,269.40437 174,271.98999 C 178.675,274.57561 186.55,278.85764 191.5,281.50562 C 196.45,284.1536 203.875,288.19965 208,290.49683 C 218.49389,296.34081 252.73013,314.49654 257.23744,316.6078 C 259.29304,317.57066 261.20014,318.13319 261.47545,317.85788 C 262.2813,317.05203 263.3774,262.63982 262.64645,259.7275 C 262.15819,257.78209 260.05573,255.96334 254.74065,252.88854 C 250.75829,250.58472 244.35,246.81559 240.5,244.5127 C 233.95459,240.59754 202.96605,223.2566 189.5,215.97349 C 186.2,214.18869 180.63923,211.17804 177.14274,209.28317 C 168.33039,204.50743 159.73919,198.92748 160.31381,198.35285 C 160.79389,197.87278 176.14878,205.6823 194,215.4857 C 199.225,218.35513 208.45,223.32031 214.5,226.51945 C 220.55,229.71858 227.94993,233.65226 230.9443,235.26095 C 253.20311,247.21929 261.2749,251.1251 262.07526,250.32474 C 263.03307,249.36693 263.47767,197.58191 262.5411,196.06649 C 262.06535,195.29672 232.35233,178.13882 199.5,159.66317 C 188.73869,153.61117 183.70048,150.05784 185.83029,150.02224 C 186.56195,150.01001 190.83695,151.96908 195.33029,154.37574 C 225.33189,170.44474 234.07122,175.09035 246.73689,181.70218 C 254.56718,185.78981 261.42968,188.85247 261.98689,188.5081 C 263.1597,187.78327 263.3928,149.12622 262.23469,147.41343 C 261.83061,146.81582 259.25,145.05783 256.5,143.50677 C 243.13018,135.96593 223.08738,123 224.80054,123 C 226.38379,123 238.14059,128.79202 243.73013,132.32572 C 246.0567,133.79657 248.30024,135 248.71578,135 C 249.13131,135 251.81166,136.18412 254.67211,137.63137 C 262.64035,141.66294 262.99734,141.19869 263.01531,126.78138 C 263.03697,109.41324 264.61157,108.5731 265.51535,125.44746 C 266.05051,135.43941 266.61269,139.29788 267.58787,139.67209 C 268.32386,139.95452 274.23017,137.05548 280.71301,133.22978 C 287.19586,129.40409 294.075,125.5185 296,124.59514 L 299.5,122.91631 L 296,126.02901 C 294.075,127.74099 286.91881,133.0036 280.09735,137.72369 L 267.6947,146.30567 L 268.34542,165.01818 C 269.09616,186.607 269.58036,190.02557 271.875,189.93796 C 272.76875,189.90384 278.79678,186.64134 285.27063,182.68796 C 317.32611,163.11266 330.72204,155.19769 333,154.48711 C 335.38859,153.74201 335.36631,153.81905 332.5,156.21573 C 330.85,157.59539 327.19456,160.24876 324.37679,162.1121 C 321.55903,163.97545 316.83403,167.1186 313.87679,169.09688 C 310.91956,171.07516 300.76621,177.50478 291.3138,183.38493 C 281.86139,189.26507 273.18759,194.84647 272.03869,195.78805 C 269.97473,197.47955 269.95973,197.8252 270.78284,224.72462 C 271.24103,239.69816 271.92507,252.2584 272.30294,252.63627 C 273.21331,253.54664 277.30977,251.2444 311.5,230.60722 C 349.55333,207.63829 358.93771,202.1074 368.25,197.16039 C 376.32315,192.87166 378.62422,192.7319 372.20767,196.92003 C 362.18173,203.46403 340.17074,217.18197 319,230.08071 C 306.075,237.95555 291.675,246.83499 287,249.81279 C 282.325,252.7906 277.24992,255.96341 275.72205,256.86349 C 274.19418,257.76357 272.69242,259.47458 272.3848,260.66573 C 271.5712,263.81609 273.88221,316.28221 274.87845,317.27845 C 275.34135,317.74135 284.22056,313.06679 294.61004,306.89055 C 314.96008,294.79305 359.78057,267.79472 377.28041,257.09273 C 383.20964,253.46673 391.98464,248.09917 396.78041,245.16482 C 401.57619,242.23047 407.3,238.94895 409.5,237.87255 L 413.5,235.91546 L 410.5,238.52026 C 405.10906,243.20103 389.95368,252.83296 340.92846,282.73611 C 324.74281,292.60862 307.225,303.43026 302,306.78419 C 296.775,310.13812 288.84077,315.16094 284.36839,317.94601 C 279.896,320.73109 275.67674,323.68458 274.99225,324.50934 C 274.01212,325.69032 273.96763,330.94732 274.78285,349.25445 C 275.35216,362.0395 276.13207,373.2875 276.51597,374.25 C 276.89987,375.2125 278.13346,376 279.25726,376 C 280.38107,376 308.12043,359.9624 340.90028,340.36089 C 402.21793,303.6945 407.73174,300.41686 412,298.0963 L 414.5,296.73711 L 412.05989,299.38536 C 410.71784,300.8419 396.76784,309.96674 381.05989,319.66277 C 365.35195,329.3588 350.925,338.29165 349,339.51354 C 344.56049,342.33152 339.39943,345.53005 307.73563,365.08689 C 293.56522,373.8391 276.28181,381.75145 275.16241,381.75145 C 275.16241,381.75145 260.92126,381.99262 260.92126,381.99262 C 260.13957,381.98856 249.825,376.43859 238,369.65934 z "
       style="fill:#eeeeee"
       id="path1875" />
  </g>
  <path
     d="M 249.55062,1.4395041 L 125.50012,1.4395041 L 1.449569,1.4395041 L 1.449569,174.9361 C 0.68232904,268.65698 81.739009,302.75585 125.5001,302.75585 C 168.49395,302.75585 250.31785,268.65698 249.55062,174.9361 L 249.55062,1.4395041 z "
     style="color:#000000;fill:none;fill-opacity:0;fill-rule:nonzero;stroke:#000000;stroke-width:1.88832211;stroke-linecap:round"
     id="Frame" />
</svg>
