<?xml version="1.0" encoding="UTF-8" standalone="no"?>
<!-- Created with Inkscape (http://www.inkscape.org/) -->
<svg
   xmlns:dc="http://purl.org/dc/elements/1.1/"
   xmlns:cc="http://web.resource.org/cc/"
   xmlns:rdf="http://www.w3.org/1999/02/22-rdf-syntax-ns#"
   xmlns:svg="http://www.w3.org/2000/svg"
   xmlns="http://www.w3.org/2000/svg"
   xmlns:xlink="http://www.w3.org/1999/xlink"
   version="1.0"
   width="251"
   height="304.20001"
   id="svg4166">
  <defs
     id="defs4168" />
  <metadata
     id="metadata1880"><rdf:RDF><cc:Work
         rdf:about=""><dc:title>Grastorp kommunvapen</dc:title><dc:date>01-08-2008</dc:date><dc:creator><cc:Agent><dc:title>Lokal_Profil</dc:title></cc:Agent></dc:creator><cc:license
         rdf:resource="http://creativecommons.org/licenses/by-sa/2.5/" /><dc:rights><cc:Agent><dc:title>cc-by-sa-2.5</dc:title></cc:Agent></dc:rights><dc:format>image/svg+xml</dc:format><dc:type
         rdf:resource="http://purl.org/dc/dcmitype/StillImage" /></cc:Work><cc:License
         rdf:about="http://creativecommons.org/licenses/by-sa/2.5/"><cc:permits
         rdf:resource="http://web.resource.org/cc/Reproduction" /><cc:permits
         rdf:resource="http://web.resource.org/cc/Distribution" /><cc:requires
         rdf:resource="http://web.resource.org/cc/Notice" /><cc:requires
         rdf:resource="http://web.resource.org/cc/Attribution" /><cc:permits
         rdf:resource="http://web.resource.org/cc/DerivativeWorks" /><cc:requires
         rdf:resource="http://web.resource.org/cc/ShareAlike" /></cc:License></rdf:RDF>
  </metadata>
  <path
     d="M 249.55058,1.4395041 L 1.4495291,1.4395041 L 1.4495291,174.9361 C 0.68228908,268.65698 81.738969,302.75585 125.50006,302.75585 C 168.49391,302.75585 250.31781,268.65698 249.55058,174.9361 L 249.55058,1.4395041 z"
     id="Shield"
     style="fill:#d40000;stroke:none" />
  <path
     d="M 249.55058,1.4395041 L 1.4495291,1.4395041 L 1.4495291,156.9361 C 1.4495291,156.9361 249.55058,156.9361 249.55058,156.9361 L 249.55058,1.4395041 z"
     id="use3593"
     style="fill:#000000;stroke:none" />
  <path
     d="M 78.90625,88.84375 C 55.621868,88.843752 55.628088,108.90625 32.34375,108.90625 C 15.906939,108.90626 11.053846,98.91146 1.4375,93.03125 L 1.4375,169.90625 C 11.053842,175.78645 15.90693,185.78125 32.34375,185.78125 C 55.628109,185.78125 55.62189,165.71875 78.90625,165.71875 C 102.19058,165.71875 102.21564,185.78125 125.5,185.78125 C 148.78436,185.78125 148.80939,165.71875 172.09375,165.71875 C 195.37809,165.71875 195.37189,185.78125 218.65625,185.78125 C 235.09306,185.78125 239.94616,175.78645 249.5625,169.90625 L 249.5625,93.03125 C 239.94615,98.91145 235.09305,108.90625 218.65625,108.90625 C 195.3719,108.90626 195.37811,88.84375 172.09375,88.84375 C 148.80937,88.843752 148.78434,108.90625 125.5,108.90625 C 102.21565,108.90626 102.19061,88.84375 78.90625,88.84375 z"
     id="Stream"
     style="fill:#ffcd50;stroke:none" />
  <g
     transform="matrix(0.4032289,0,0,0.4032289,28.068991,-31.834662)"
     id="Hand">
    <path
       d="M 295.86806,265.24037 C 296.02939,263.20841 300.3879,259.62989 301.46931,244.03103 C 300.09555,237.17711 296.52088,229.68886 283.20185,213.63762 C 278.20219,207.32312 269.47152,201.29353 264.84562,197.46548 C 259.60137,193.12623 255.87097,187.83006 251.47841,185.66412 L 252.62225,189.47883 C 253.77499,192.78746 254.999,196.29284 257.20605,199.05936 C 258.69946,200.89062 260.03991,201.56136 261.26854,201.86579 C 262.8478,202.10853 264.36278,202.95145 265.67701,202.05329 C 266.40774,202.86003 267.40194,204.73952 266.419,205.24328 C 264.0458,205.63127 261.9168,205.06663 260.11109,203.95467 C 258.30538,202.84272 256.77849,201.19196 255.55986,199.3945 C 254.46995,197.58788 252.5549,194.67587 252.51728,189.51977 C 246.78266,191.44281 245.65949,194.43378 247.83498,206.99437 C 251.65135,214.64364 255.49702,229.40805 263.90368,232.97138 L 271.76354,230.46357 C 268.51533,233.47952 267.65288,234.38123 267.56416,236.29746 C 267.88021,238.96703 271.8285,244.4664 277.02719,248.22628 C 277.773,246.52758 280.13985,243.06768 283.49958,244.97585 C 277.69856,248.91007 279.82673,250.76664 277.98647,253.66663 M 287.28311,218.78401 C 285.20353,211.86141 286.03429,217.88284 284.87389,187.23132 C 283.40838,169.15082 277.228,109.99262 267.41869,106.94222 C 264.70933,106.09976 257.09289,106.77866 254.58479,115.58704 C 254.42917,102.46804 245.68003,97.40594 242.53359,97.66184 C 237.84934,98.0431 230.08719,105.30291 234.70316,123.67034 C 234.24848,130.03271 232.84562,134.58284 232.91818,141.65534 C 232.97204,146.87704 235.16832,156.45194 235.06628,159.48354 C 234.66574,171.36924 232.64521,174.48164 233.98911,181.12044 C 224.1064,175.86671 221.34371,174.17414 218.22761,176.51697 C 211.02137,181.93568 210.41589,195.86937 209.02351,197.65857 C 203.09456,197.7626 199.63573,195.84014 196.61971,197.89413 C 193.60393,199.94812 192.27703,203.79672 190.61253,211.07753 C 183.5398,217.9439 180.28498,219.19778 182.44412,229.43442 C 184.42661,274.08072 185.40247,293.88368 200.91254,319.05093 C 200.91254,319.05093 263.01222,319.05093 263.01222,319.05093 C 286.78382,310.85001 287.42554,282.05131 297.31084,261.90851"
       id="path1937_1"
       style="fill:#ffcd50;fill-rule:nonzero;stroke:#000000;stroke-width:1.79999995;stroke-miterlimit:4" />
    <path
       d="M 191.21,221.405 L 200.87955,233.5699 C 204.40132,246.6498 214.8464,262.82545 225.23765,262.597 C 234.8262,262.3862 238.09253,255.99766 237.86091,245.83206 C 260.37215,249.73163 249.35524,218.32913 248.64308,216.6018 C 245.36113,207.69335 239.9855,192.45885 234.89783,182.16195 L 230.84287,180.29052 C 248.80967,214.58152 258.51722,244.42047 241.74072,244.79887 C 224.71332,236.45537 222.26773,209.76716 209.32723,197.96256 C 216.39712,207.94392 224.06522,233.56997 235.50222,244.17497 C 240.80726,262.16847 217.62212,273.71117 202.43892,231.38647 L 191.21002,221.40511 L 191.21,221.405 z"
       id="path69"
       style="fill:#000000" />
    <path
       d="M 222.089,257.275 C 216.96821,252.58649 214.04087,239.1667 227.39149,238.8719 L 227.39149,241.67905 C 219.51174,241.18837 218.70245,249.012 222.089,257.27495 L 222.089,257.275 z"
       id="path73"
       style="fill:#000000" />
    <path
       d="M 245.795,221.405 C 237.57934,217.79678 229.7824,229.17902 237.68536,237.3128 C 225.20586,233.14785 236.55802,212.5757 245.795,221.405 z"
       id="path75"
       style="fill:#000000;stroke:#000000;stroke-width:0.99212599" />
    <path
       d="M 254.685,107.243 L 253.59338,108.95853 C 255.65474,140.66153 261.21981,180.37879 257.41741,191.34999 C 257.41741,191.34999 259.51976,192.13952 259.51976,192.13952 C 260.89258,159.66662 258.19003,149.54272 254.68499,107.24302 L 254.685,107.243 z"
       id="path81"
       style="fill:#000000" />
    <path
       d="M 243.8818,268.3478 C 235.38069,277.31606 236.26454,278.5117 237.3315,284.5677 L 239.65138,281.84559 C 237.69406,278.16565 248.71006,267.01869 253.39518,259.61429 C 255.83609,251.0375 263.93498,245.10289 272.64948,246.77139 L 273.77597,244.64229 C 258.42947,242.95057 249.66017,252.98437 243.88177,268.34789 L 243.8818,268.3478 z"
       id="path85"
       style="fill:#000000" />
    <path
       d="M 283.49845,244.96438 C 280.13872,243.0562 277.76619,246.53546 277.02038,248.23416 C 271.8217,244.47427 267.88476,238.97621 267.56871,236.30664 C 267.65743,234.39041 268.51078,233.4771 271.75899,230.46116 L 263.91377,232.96431 C 255.30074,229.31352 251.46039,213.88758 247.54974,206.42059 C 249.99695,215.43296 254.1439,231.96254 264.66715,235.96716 C 268.24361,242.91362 272.94489,247.98244 276.26621,250.9427 L 277.97792,253.66455 C 279.81819,250.76456 277.69748,248.89863 283.49849,244.96441 L 283.49845,244.96438 z"
       id="use2608"
       style="fill:#000000" />
    <path
       d="M 256.54586,200.08698 C 256.54586,200.08698 264.38042,203.36324 266.23222,202.36612 L 266.08977,205.21504 C 261.38904,205.78483 256.54586,200.08698 256.54586,200.08698 z"
       id="path3431"
       style="fill:#000000" />
  </g>
  <path
     d="M 37.522504,13.958032 C 37.646877,12.006946 36.296987,11.925968 36.498986,10.676171 C 36.96948,8.925982 38.681462,7.4095683 40.23825,7.1788 C 41.645884,7.761897 41.656878,11.267027 41.202311,14.304666 C 39.771605,18.921546 36.409041,21.757278 33.047551,24.747191 C 28.990633,28.35574 24.893038,31.147281 25.027666,36.750494 C 25.041951,40.6971 26.76328,41.721673 27.863894,43.6813 C 27.056524,49.3897 27.040557,54.256642 27.975031,60.896133 C 25.986686,62.22051 25.205965,63.069186 25.268949,66.973218 C 25.26212,72.598276 28.937655,75.510745 32.661232,78.741176 C 36.881312,82.402365 41.307038,86.740189 41.558273,90.745224 C 41.506208,93.279371 41.609359,96.397912 40.703809,97.1788 C 39.074364,96.633316 36.979356,95.737231 36.281024,94.139847 C 36.303327,92.998338 37.41193,92.44124 37.046306,90.715322 C 37.051697,85.89447 29.822658,83.657817 24.886803,78.528941 C 22.117946,75.651863 20.336492,70.88596 20.311676,66.269509 C 20.326838,62.076598 21.971483,60.455102 23.38334,57.547955 L 23.382711,45.755678 C 21.931215,43.760008 20.09174,42.348813 20.036909,38.015547 C 20.13579,29.691799 24.32394,24.969622 28.98588,21.749481 C 31.974288,19.685357 36.257713,17.937276 37.522515,13.958032 L 37.522504,13.958032 z"
     id="Bow"
     style="fill:#ffcd50" />
  <g
     transform="matrix(1.0669423,0,0,1.0669423,229.42521,-3.7636218)"
     id="Glove">
    <path
       d="M -131.04292,261.40826 C -130.43263,260.71223 -129.91753,259.11738 -128.96574,254.97693 C -128.03904,250.94563 -126.79815,247.2893 -125.83036,245.73837 C -125.24399,244.79868 -125.24311,244.39049 -125.82629,243.85186 C -126.81932,242.9347 -129.05785,241.65064 -130.45006,241.19958 C -130.96664,241.03221 -131.06709,240.92932 -131.00615,240.63002 C -130.46607,237.97731 -130.3487,237.72823 -129.33929,237.09261 C -128.67806,236.67625 -128.44437,236.35627 -127.62012,234.73867 C -125.99564,231.55063 -124.31979,228.33481 -124.19111,228.15868 C -124.12354,228.06619 -123.59183,227.08258 -123.00954,225.97287 C -122.42724,224.86314 -121.7246,223.53904 -121.44811,223.03042 C -121.17162,222.52179 -120.65967,221.57601 -120.31046,220.92868 C -119.64117,219.68803 -116.421,213.94502 -115.83228,212.94205 C -115.64229,212.61838 -115.11024,211.71042 -114.64996,210.92437 C -114.18966,210.13833 -113.43816,208.88291 -112.97995,208.13457 C -112.52173,207.38623 -112.00952,206.41441 -111.8417,205.97498 C -111.42382,204.88076 -111.63776,204.52155 -113.06956,203.91341 C -114.00036,203.51806 -114.40951,203.44319 -115.61002,203.44853 C -116.81404,203.45389 -117.20101,203.52923 -118.04984,203.92352 C -118.66968,204.21145 -119.26299,204.64589 -119.58853,205.05022 C -119.87996,205.41216 -120.4206,206.06854 -120.78994,206.50884 C -121.15929,206.94913 -122.05407,208.02817 -122.77836,208.9067 C -123.50264,209.78523 -124.14053,210.54185 -124.1959,210.58809 C -124.25126,210.63433 -125.2817,211.84494 -126.48576,213.27832 C -127.68982,214.71172 -128.87147,216.11148 -129.11166,216.38891 C -129.35184,216.66634 -129.70603,217.08248 -129.89874,217.31368 L -130.24914,217.73403 L -130.15015,216.89332 C -130.03372,215.90445 -129.56476,212.62469 -128.98413,208.73856 C -128.75616,207.21269 -128.3733,204.64016 -128.13334,203.02182 C -127.53667,198.99774 -126.92452,195.00058 -126.62696,193.18565 C -126.49052,192.35337 -126.26488,190.79832 -126.12557,189.73002 C -125.98625,188.6617 -125.7587,187.41327 -125.6199,186.95572 C -125.01597,184.96477 -125.63976,183.51282 -127.41822,182.76993 C -128.32235,182.39224 -130.09603,182.42854 -130.90505,182.84127 C -132.02207,183.41113 -132.27823,183.9365 -132.99751,187.13263 C -133.22644,188.14988 -133.604,189.81446 -133.83654,190.8317 C -134.22531,192.53242 -134.47766,193.66286 -135.46926,198.14577 C -136.44303,202.54811 -136.56533,202.84504 -137.40733,202.8511 C -138.23848,202.85709 -138.22086,203.09672 -138.31065,190.56721 L -138.39472,178.83653 L -138.81507,178.3868 C -139.61913,177.52655 -140.84112,177.17626 -142.28354,177.39257 C -142.9061,177.48593 -143.25579,177.67077 -143.81793,178.20364 C -144.50419,178.85415 -144.55917,178.97588 -144.77504,180.32298 C -145.05836,182.09094 -145.4082,186.77946 -146.30367,200.80965 C -146.41756,202.59404 -146.472,202.80038 -146.88758,203.02279 C -147.45768,203.32789 -147.9983,202.666 -148.22474,201.38571 C -148.33545,200.7597 -148.60798,199.22607 -148.83035,197.97763 C -149.41964,194.66923 -149.94681,191.61675 -151.09411,184.86973 C -151.60566,181.86145 -151.92283,181.22156 -153.191,180.6392 C -154.01631,180.26022 -154.85176,180.24163 -155.81327,180.58088 C -157.48204,181.16965 -157.79252,182.03412 -157.4922,185.25559 C -157.37871,186.47291 -157.1042,188.94433 -156.88218,190.74764 C -156.66015,192.55093 -156.28282,195.62586 -156.04367,197.58083 C -155.52878,201.78989 -155.43732,204.18306 -155.77571,204.59228 C -156.0774,204.95713 -156.68431,204.94822 -157.02297,204.574 C -157.17098,204.41046 -157.44402,203.86191 -157.62973,203.35499 C -158.09911,202.07376 -160.46982,194.5693 -161.4111,191.38512 C -161.62167,190.67279 -161.85481,190.29343 -162.31524,189.9139 C -162.86851,189.45785 -163.05637,189.40251 -164.05138,189.40251 C -165.02409,189.40251 -165.22226,189.45766 -165.59727,189.83267 C -166.3685,190.6039 -166.37399,191.28944 -165.63888,195.03519 C -165.42109,196.14491 -165.04075,198.11214 -164.79368,199.40682 C -164.5466,200.70149 -164.20626,202.47957 -164.03736,203.3581 C -162.57089,210.98604 -161.57038,216.37313 -160.93023,220.08797 C -160.54477,222.32483 -160.16897,224.3621 -159.41045,228.32681 C -159.2866,228.97415 -159.09362,230.1091 -158.98159,230.84891 C -158.69673,232.73012 -157.95703,235.56259 -157.18129,237.74263 C -156.81931,238.75987 -156.47318,239.90886 -156.41211,240.29593 L -156.30106,240.99971 L -157.9308,241.77172 C -160.90683,243.18148 -161.28083,243.66488 -161.11777,245.89083 C -160.98145,247.75156 -160.75059,248.5361 -160.16791,249.11879 C -159.1437,250.14301 -158.92222,250.77385 -157.63108,256.34476 C -157.33884,257.60569 -156.90123,259.00546 -156.65862,259.45534 L -156.21751,260.27333 L -155.05528,260.42939 C -154.33651,260.52591 -152.3156,260.52444 -149.75888,260.42555 C -143.23218,260.1731 -138.50962,260.46594 -133.18239,261.45343 C -131.48251,261.76853 -131.35647,261.76588 -131.04292,261.40826 z"
       id="path5506"
       style="fill:#d40000" />
    <path
       d="M -155.31419,259.24423 C -155.55787,258.95074 -155.73282,257.89529 -156.2971,254.89285 C -156.48828,253.87561 -156.78694,252.49477 -156.96079,251.82431 C -157.13464,251.15386 -157.69871,249.18826 -157.67303,249.18826 C -125.15378,255.70499 -157.81539,255.72435 -159.83251,246.19708 L -159.83251,245.69809 L -158.98209,246.46269 C -156.72596,248.49114 -153.61102,249.01581 -143.94332,248.99578 C -134.84258,248.97692 -132.59175,248.67705 -129.35722,247.05253 C -128.61112,246.6778 -128.05414,246.48306 -128.05414,246.59692 C -128.05414,246.70629 -128.24058,247.26182 -128.46846,247.83142 C -128.69633,248.40102 -129.06595,249.57972 -129.28983,250.45077 C -129.51371,251.32182 -129.96498,252.94244 -130.29266,254.05216 C -130.62033,255.16188 -131.00914,256.59948 -131.15666,257.24681 C -131.30418,257.89415 -131.54593,258.79299 -131.69387,259.24423 C -131.69387,259.24423 -155.31419,259.24423 -155.31419,259.24423 z M -151.8261,247.7611 C -153.29485,247.5747 -154.53169,247.38705 -154.57463,247.34411 C -154.61757,247.30117 -154.67015,245.72857 -154.69147,243.84945 L -154.73023,240.43286 L -155.91673,236.81786 C -156.79893,234.12999 -157.21675,232.53447 -157.54589,230.5967 C -158.11617,227.23918 -158.19059,226.84734 -158.88701,223.53484 C -159.4289,220.95731 -159.67939,219.67661 -160.77792,213.86682 C -161.00524,212.66462 -161.30149,211.11353 -161.43626,210.41996 C -161.84357,208.32379 -162.47236,204.79553 -163.0244,201.50856 C -164.1479,194.81892 -164.40752,193.3072 -164.64842,192.05211 C -164.78584,191.33619 -164.85112,190.67413 -164.79349,190.58089 C -164.73586,190.48765 -164.39633,190.41135 -164.03897,190.41135 C -163.21546,190.41135 -162.48792,190.99501 -162.21836,191.87192 C -161.79734,193.24152 -160.29891,197.94034 -160.00318,198.81833 C -159.83186,199.32695 -159.42234,200.59543 -159.09314,201.63717 C -158.17968,204.52774 -157.905,205.07309 -157.09394,205.60638 C -156.16975,206.21404 -155.30448,206.13825 -154.55181,205.3837 C -154.05532,204.88596 -154.03265,204.80328 -154.05267,203.56373 C -154.0642,202.84953 -154.19913,201.4329 -154.35251,200.41565 C -154.5059,199.39841 -154.69952,197.92298 -154.78278,197.13694 C -154.93545,195.69557 -155.28415,192.84285 -156.07358,186.577 C -156.51677,183.05926 -156.50479,182.23555 -156.00405,181.79396 C -155.29974,181.17287 -153.60796,181.31992 -152.8607,182.06718 C -152.48028,182.4476 -152.2988,183.25293 -151.24562,189.23438 C -150.81444,191.68323 -150.13846,195.46837 -149.8143,197.24907 C -149.67681,198.00432 -149.45717,199.28416 -149.32621,200.09317 C -148.88643,202.80986 -148.01743,204.36694 -146.94103,204.36694 C -146.57343,204.36694 -146.21281,204.21115 -145.87068,203.90455 L -145.35471,203.44217 L -145.02849,199.32275 C -144.68392,194.97158 -144.3798,191.03679 -143.94988,185.36716 C -143.51224,179.59573 -143.4495,179.16424 -142.97949,178.69423 C -142.25591,177.97066 -140.09899,178.12529 -139.54602,178.94038 C -139.25344,179.37165 -139.23054,180.07662 -139.15135,191.09151 C -139.07367,201.8958 -139.04473,202.81921 -138.77069,203.23725 C -138.12168,204.22731 -136.97882,204.52354 -136.15753,203.9146 C -135.22662,203.22437 -135.04543,202.69163 -133.50934,196.1281 C -132.59388,192.21641 -131.94747,189.19614 -131.57976,187.11235 C -131.05204,184.12178 -130.65883,183.52118 -129.19146,183.46439 C -127.7661,183.40922 -126.53455,184.34159 -126.50743,185.49637 C -126.5015,185.74898 -126.61766,186.75011 -126.76555,187.72112 C -126.91345,188.69213 -127.22192,190.77285 -127.45104,192.34496 C -128.20977,197.55099 -129.43814,205.73058 -129.90032,208.65449 C -130.28458,211.08536 -130.46845,212.31321 -131.00821,216.05263 C -131.53298,219.68818 -131.49927,219.55821 -132.09267,220.23405 C -132.48083,220.67615 -132.77727,220.8335 -133.39332,220.92445 C -135.22411,221.19476 -137.40689,222.43377 -138.32583,223.72429 C -138.69397,224.2413 -139.04287,225.38437 -138.83253,225.38437 C -138.76914,225.38437 -138.20013,224.85574 -137.56807,224.20962 C -136.30809,222.92161 -135.39028,222.40318 -133.42072,221.86695 C -131.99221,221.47804 -131.98766,221.47385 -128.83676,217.63454 C -122.87702,210.37272 -119.09852,205.87288 -118.62837,205.47726 C -117.67207,204.67258 -117.11639,204.47028 -115.86403,204.47086 C -114.96507,204.47128 -114.50832,204.56324 -113.93042,204.86019 C -113.51428,205.07401 -113.14879,205.27097 -113.11824,205.29785 C -113.0587,205.35026 -113.37812,205.93402 -114.77095,208.31821 C -115.25717,209.1505 -115.78688,210.05846 -115.94809,210.33589 C -116.10931,210.61332 -116.63894,211.52127 -117.12507,212.35356 C -117.6112,213.18585 -118.14083,214.09381 -118.30204,214.37124 C -118.46325,214.64866 -118.99438,215.55662 -119.48231,216.38891 C -119.97026,217.2212 -120.87555,218.77229 -121.49408,219.83577 C -122.11262,220.89925 -123.00051,222.41251 -123.46716,223.19856 C -123.93382,223.98462 -124.51702,224.96823 -124.76316,225.38437 C -125.00929,225.80052 -125.62792,227.01112 -126.13789,228.07461 C -127.85976,231.66541 -129.59742,235.03542 -130.12267,235.8027 C -130.40993,236.22232 -131.1737,237.07443 -131.81993,237.69626 C -133.01648,238.84765 -133.15809,239.14593 -132.36502,238.8444 C -131.83532,238.643 -131.84034,238.57185 -132.26058,240.32482 C -132.48518,241.26172 -132.63355,242.64533 -132.70576,244.47641 C -132.76534,245.98692 -132.86616,247.30705 -132.92981,247.41005 C -132.99347,247.51304 -133.79514,247.67196 -134.7113,247.7632 C -140.29716,248.31947 -147.43339,248.3186 -151.8261,247.7611 z M -131.44417,245.93943 C -131.48139,245.40769 -131.48247,244.34841 -131.44658,243.58547 C -131.38602,242.29821 -131.35536,242.19859 -131.02081,242.20202 C -130.21134,242.21031 -127.05299,243.96223 -127.04824,244.40559 C -127.04662,244.5561 -127.15394,244.7694 -127.28671,244.87959 C -127.63095,245.16529 -130.95885,246.88739 -131.18655,246.89766 C -131.29931,246.90275 -131.40401,246.51331 -131.44417,245.93943 z M -157.16313,246.48986 C -157.56781,246.26086 -158.27722,245.78479 -158.7396,245.43194 C -159.44691,244.89217 -159.5803,244.70295 -159.5803,244.23936 C -159.5803,243.74263 -159.48089,243.631 -158.57146,243.10646 C -156.98562,242.19178 -156.44021,241.97402 -156.30066,242.19981 C -156.09166,242.53797 -155.98521,244.77006 -156.13635,245.64519 C -156.2162,246.10757 -156.28604,246.58046 -156.29156,246.69605 C -156.30479,246.97355 -156.311,246.97208 -157.16313,246.48986 z"
       id="path5504"
       style="fill:#ffcd50" />
    <g
       id="Squares">
      <rect
         width="5"
         height="5"
         x="-154.97481"
         y="253.4464"
         id="rect5688"
         style="fill:#d40000" />
      <use
         transform="translate(6,0)"
         id="use6199"
         x="0"
         y="0"
         width="251"
         height="304.20001"
         xlink:href="#rect5688" />
      <use
         transform="translate(12,0)"
         id="use6201"
         x="0"
         y="0"
         width="251"
         height="304.20001"
         xlink:href="#rect5688" />
      <use
         transform="translate(18,0)"
         id="use6203"
         x="0"
         y="0"
         width="251"
         height="304.20001"
         xlink:href="#rect5688" />
    </g>
  </g>
  <g
     transform="matrix(0.154588,0,0,0.154588,175.82521,2.1747374)"
     id="Arrow"
     style="fill:#ffcd50;stroke:#000000;stroke-width:3">
    <g
       id="g2075">
      <path
         d="M 275.7168,33.870317 C 275.7168,33.870317 268.33152,56.07009 260.96886,81.156891 C 253.6062,106.2437 243.57672,134.21753 243.57672,134.21753 C 249.87464,119.59643 258.43115,117.61912 268.30299,110.10166 L 282.22492,109.98487 C 291.20133,120.43347 300.88403,120.05628 307.59869,135.11228 C 307.59869,135.11228 297.83665,108.32132 290.19256,83.010825 C 282.54847,57.700338 275.7168,33.870317 275.7168,33.870317 z"
         id="path2077" />
      <path
         d="M 268.64085,111.04954 L 266.97864,125.28908 L 284.13392,125.13424 L 282.25204,111.07832 L 268.64085,111.04954 z"
         id="path2079" />
    </g>
    <path
       d="M 270.02599,613.06299 L 269.96912,125.64154 L 281.55784,125.61062 L 281.61471,613.03207 L 270.02599,613.06299 z"
       id="path2081" />
    <g
       id="g2083">
      <path
         d="M 268.40958,594.68656 L 242.63843,612.83527 L 244.56003,540.42553 L 268.40243,520.6114 L 268.40958,594.68656 z"
         id="path2085" />
      <path
         d="M 283.34995,594.31458 L 309.1211,612.46329 L 307.1995,540.05355 L 283.3571,520.23942 L 283.34995,594.31458 z"
         id="path2087" />
    </g>
  </g>
  <g
     transform="matrix(0.1485666,-0.1040275,0.1040275,0.1485666,96.714243,210.38129)"
     id="Arrow-2"
     style="fill:#ffcd50;stroke:#d40000;stroke-width:3">
    <g
       id="g5661">
      <path
         d="M 275.7168,33.870317 C 275.7168,33.870317 268.33152,56.07009 260.96886,81.156891 C 253.6062,106.2437 243.57672,134.21753 243.57672,134.21753 C 249.87464,119.59643 258.43115,117.61912 268.30299,110.10166 L 282.22492,109.98487 C 291.20133,120.43347 300.88403,120.05628 307.59869,135.11228 C 307.59869,135.11228 297.83665,108.32132 290.19256,83.010825 C 282.54847,57.700338 275.7168,33.870317 275.7168,33.870317 z"
         id="path5663" />
      <path
         d="M 268.64085,111.04954 L 266.97864,125.28908 L 284.13392,125.13424 L 282.25204,111.07832 L 268.64085,111.04954 z"
         id="path5665" />
    </g>
    <path
       d="M 270.02599,613.06299 L 269.96912,125.64154 L 281.55784,125.61062 L 281.61471,613.03207 L 270.02599,613.06299 z"
       id="path5667" />
    <g
       id="g5669">
      <path
         d="M 268.40958,594.68656 L 242.63843,612.83527 L 244.56003,540.42553 L 268.40243,520.6114 L 268.40958,594.68656 z"
         id="path5671" />
      <path
         d="M 283.34995,594.31458 L 309.1211,612.46329 L 307.1995,540.05355 L 283.3571,520.23942 L 283.34995,594.31458 z"
         id="path5673" />
    </g>
  </g>
  <use
     transform="matrix(-1,0,0,1,347.55229,0)"
     id="Arrow-3"
     x="0"
     y="0"
     width="251"
     height="304.20001"
     xlink:href="#Arrow-2" />
  <path
     d="M 249.55062,1.4395041 L 1.449569,1.4395041 L 1.449569,174.9361 C 0.68232904,268.65698 81.739009,302.75585 125.5001,302.75585 C 168.49395,302.75585 250.31785,268.65698 249.55062,174.9361 L 249.55062,1.4395041 z"
     id="Frame"
     style="fill:none;fill-opacity:0;stroke:#000000;stroke-width:1.88832211;stroke-linejoin:bevel" />
</svg>