<?xml version="1.0" encoding="UTF-8" standalone="no"?>
<!-- Created with Inkscape (http://www.inkscape.org/) -->
<svg
   xmlns:dc="http://purl.org/dc/elements/1.1/"
   xmlns:cc="http://web.resource.org/cc/"
   xmlns:rdf="http://www.w3.org/1999/02/22-rdf-syntax-ns#"
   xmlns:svg="http://www.w3.org/2000/svg"
   xmlns="http://www.w3.org/2000/svg"
   xmlns:xlink="http://www.w3.org/1999/xlink"
   version="1.0"
   width="251"
   height="304.20001"
   id="svg4166">
  <defs
     id="defs4168" />
  <metadata
     id="metadata1880"><rdf:RDF><cc:Work
         rdf:about=""><dc:title>Karlsborg kommunvapen</dc:title><dc:date>23-01-2008</dc:date><dc:creator><cc:Agent><dc:title>Lokal_Profil</dc:title></cc:Agent></dc:creator><cc:license
         rdf:resource="http://creativecommons.org/licenses/by-sa/2.5/" /><dc:rights><cc:Agent><dc:title>cc-by-sa-2.5</dc:title></cc:Agent></dc:rights><dc:format>image/svg+xml</dc:format><dc:type
         rdf:resource="http://purl.org/dc/dcmitype/StillImage" /></cc:Work><cc:License
         rdf:about="http://creativecommons.org/licenses/by-sa/2.5/"><cc:permits
         rdf:resource="http://web.resource.org/cc/Reproduction" /><cc:permits
         rdf:resource="http://web.resource.org/cc/Distribution" /><cc:requires
         rdf:resource="http://web.resource.org/cc/Notice" /><cc:requires
         rdf:resource="http://web.resource.org/cc/Attribution" /><cc:permits
         rdf:resource="http://web.resource.org/cc/DerivativeWorks" /><cc:requires
         rdf:resource="http://web.resource.org/cc/ShareAlike" /></cc:License></rdf:RDF>
  </metadata>
  <path
     d="M 249.55058,1.4395041 L 125.50008,1.4395041 L 1.4495291,1.4395041 L 1.4495291,174.9361 C 0.68228908,268.65698 81.738969,302.75585 125.50006,302.75585 C 168.49391,302.75585 250.31781,268.65698 249.55058,174.9361 L 249.55058,1.4395041 z "
     style="fill:#003d8f;stroke:none"
     id="Shield" />
  <path
     d="M 33.4065,190.18751 C 18.042667,190.18751 12.575519,198.7222 4.219,204.75001 C 18.717654,276.00024 86.73669,302.75001 125.50025,302.75001 C 164.28839,302.75 234.66296,274.9998 247.50025,200.75001 C 241.40828,195.52965 235.4318,190.18751 223.2815,190.18751 C 199.54449,190.18751 199.581,210.62501 175.844,210.62501 C 152.10699,210.62499 152.11226,190.18751 128.37525,190.18751 C 104.63824,190.18751 104.64351,210.62501 80.9065,210.62501 C 57.169484,210.62499 57.143503,190.18751 33.4065,190.18751 z "
     style="fill:#eeeeee;stroke:none"
     id="Vagskura" />
  <use
     transform="matrix(-1,0,0,1,251,0)"
     id="Mur-2"
     x="0"
     y="0"
     width="251"
     height="304.20001"
     xlink:href="#Mur" />
  <g
     id="Mur">
    <path
       d="M 0.9375,85.465073 L 89.8565,85.465073 L 89.8565,89.465073 L 0.9375,89.465073 L 0.9375,85.465073 z "
       style="fill:#eeeeee"
       id="rect3334" />
    <path
       d="M 1.4375,88.1875 L 1.4375,150.1875 L 89.356786,150.1875 L 89.356786,88.1875 L 1.4375,88.1875 z "
       style="fill:#eeeeee;stroke:#003d8f"
       id="path3115" />
    <rect
       width="8.3941364"
       height="8.3941364"
       x="65.30294"
       y="124.99043"
       style="fill:#003d8f"
       id="rect3095" />
    <use
       transform="translate(-54,0)"
       id="use3097"
       x="0"
       y="0"
       width="251"
       height="304.20001"
       xlink:href="#rect3095" />
    <use
       transform="translate(27,0)"
       id="use3099"
       x="0"
       y="0"
       width="251"
       height="304.20001"
       xlink:href="#use3097" />
  </g>
  <g
     style="fill:#eeeeee"
     id="Porttorn">
    <path
       d="M 110.2,38.000012 L 140.8,38.000012 L 140.8,42.000012 L 110.2,42.000012 L 110.2,38.000012 z "
       id="path3351" />
    <path
       d="M 95.2,50.428012 L 155.8,50.428012 L 155.8,54.428012 L 95.2,54.428012 L 95.2,50.428012 z "
       id="path3348" />
    <path
       d="M 82.7,62.781012 L 168.3,62.781012 L 168.3,66.781012 L 82.7,66.781012 L 82.7,62.781012 z "
       id="path3346" />
    <path
       d="M 110.5,40.1875 L 110.5,52.6875 L 95.5,52.6875 L 95.5,65.1875 L 83,65.1875 L 83,150.1875 L 95.5,150.1875 L 155.5,150.1875 L 168,150.1875 L 168,65.1875 L 155.5,65.1875 L 155.5,52.6875 L 140.5,52.6875 L 140.5,40.1875 L 110.5,40.1875 z "
       style="stroke:#003d8f"
       id="Torn" />
    <path
       d="M 110.58954,121.60911 C 111.39843,112.13378 116.20523,105.59863 125.49998,101.1185 C 134.41624,105.23292 139.5453,112.61271 140.41046,121.60911 L 140.41044,150.6875 L 110.58954,150.6875 L 110.58954,121.60911 z "
       style="fill:#003d8f"
       id="Port" />
    <path
       d="M 125.5,59.093274 C 108.41896,67.326448 99.580257,79.336628 98.09375,96.749524 L 98.09375,150.18701 L 100.0625,150.18701 L 100.0625,100.59326 C 101.44201,84.433683 109.64836,73.296364 125.5,65.655774 C 140.70614,72.672666 149.46202,85.250468 150.9375,100.59326 L 150.9375,150.18701 L 152.90625,150.18701 L 152.90625,96.749524 C 151.31634,80.21676 141.88549,66.654381 125.5,59.093274 z "
       style="stroke:#003d8f"
       id="use3301" />
    <path
       d="M 125.5,71.351592 C 110.71607,78.477543 103.06838,88.87762 101.78178,103.94878 L 101.78178,150.18701 L 103.50227,150.18701 L 103.50227,107.26687 C 104.69627,93.280475 111.78013,83.617698 125.5,77.004639 C 138.66117,83.07788 146.22067,93.987413 147.49773,107.26687 L 147.49773,150.18701 L 149.21822,150.18701 L 149.21822,103.94878 C 147.84212,89.639393 139.68192,77.895858 125.5,71.351592 z "
       style="stroke:#003d8f"
       id="path3324" />
  </g>
  <path
     d="M 249.55062,1.4395041 L 125.50012,1.4395041 L 1.449569,1.4395041 L 1.449569,174.9361 C 0.68232904,268.65698 81.739009,302.75585 125.5001,302.75585 C 168.49395,302.75585 250.31785,268.65698 249.55062,174.9361 L 249.55062,1.4395041 z "
     style="fill:none;fill-opacity:0;stroke:#000000;stroke-width:1.88832211;stroke-linecap:round"
     id="Frame" />
</svg>
