<?xml version="1.0" encoding="UTF-8" standalone="no"?>
<!-- Created with Inkscape (http://www.inkscape.org/) -->
<svg
   xmlns:dc="http://purl.org/dc/elements/1.1/"
   xmlns:cc="http://web.resource.org/cc/"
   xmlns:rdf="http://www.w3.org/1999/02/22-rdf-syntax-ns#"
   xmlns:svg="http://www.w3.org/2000/svg"
   xmlns="http://www.w3.org/2000/svg"
   xmlns:xlink="http://www.w3.org/1999/xlink"
   version="1.0"
   width="251"
   height="304.20001"
   id="svg4166">
  <defs
     id="defs4168" />
  <metadata
     id="metadata1880"><rdf:RDF><cc:Work
         rdf:about=""><dc:title>Mark kommunvapen</dc:title><dc:date>30-10-2007</dc:date><dc:creator><cc:Agent><dc:title>Lokal_Profil</dc:title></cc:Agent></dc:creator><cc:license
         rdf:resource="http://creativecommons.org/licenses/by-sa/2.5/" /><dc:rights><cc:Agent><dc:title>cc-by-sa-2.5</dc:title></cc:Agent></dc:rights><dc:format>image/svg+xml</dc:format><dc:type
         rdf:resource="http://purl.org/dc/dcmitype/StillImage" /></cc:Work><cc:License
         rdf:about="http://creativecommons.org/licenses/by-sa/2.5/"><cc:permits
         rdf:resource="http://web.resource.org/cc/Reproduction" /><cc:permits
         rdf:resource="http://web.resource.org/cc/Distribution" /><cc:requires
         rdf:resource="http://web.resource.org/cc/Notice" /><cc:requires
         rdf:resource="http://web.resource.org/cc/Attribution" /><cc:permits
         rdf:resource="http://web.resource.org/cc/DerivativeWorks" /><cc:requires
         rdf:resource="http://web.resource.org/cc/ShareAlike" /></cc:License></rdf:RDF>
  </metadata>
  <path
     d="M 249.55058,1.4395041 L 1.4495291,1.4395041 L 1.4495291,174.9361 C 0.68228908,268.65698 81.738969,302.75585 125.50006,302.75585 C 168.49391,302.75585 250.31781,268.65698 249.55058,174.9361 L 249.55058,1.4395041 z "
     style="fill:#000000;stroke:none"
     id="Shield" />
  <path
     d="M 83.844,1.4315072 L 83.844,294.52526 C 98.978271,300.18608 113.70421,302.74401 125.50025,302.74401 C 137.33926,302.74401 151.90428,300.24081 166.844,294.74401 L 166.844,1.4315072 L 125.50025,1.4315072 L 83.844,1.4315072 z "
     style="fill:#ffcd50;stroke:none"
     id="Stolpe" />
  <path
     d="M 249.55062,1.4395041 L 1.449569,1.4395041 L 1.449569,174.9361 C 0.68232904,268.65698 81.739009,302.75585 125.5001,302.75585 C 168.49395,302.75585 250.31785,268.65698 249.55062,174.9361 L 249.55062,1.4395041 z "
     style="fill:none;fill-opacity:0;stroke:#000000;stroke-width:1.88832211;stroke-linejoin:bevel"
     id="Frame" />
  <path
     d="M 149.27586,66.97242 C 149.2808,81.681919 137.35778,93.608944 122.64828,93.608944 C 107.93878,93.608944 96.015754,81.681919 96.020691,66.97242 C 96.015754,52.262921 107.93878,40.335896 122.64828,40.335896 C 137.35778,40.335896 149.2808,52.262921 149.27586,66.97242 L 149.27586,66.97242 z "
     transform="matrix(1.060088,0,0,1.060088,-4.517978,-32.25185)"
     style="fill:#000000;stroke:none"
     id="Roundel" />
  <use
     transform="translate(0,75.31037)"
     id="Roundel-2"
     x="0"
     y="0"
     width="251"
     height="304.20001"
     xlink:href="#Roundel" />
  <use
     transform="translate(0,150.6207)"
     id="Roundel-3"
     x="0"
     y="0"
     width="251"
     height="304.20001"
     xlink:href="#Roundel" />
  <use
     transform="translate(0,225.9311)"
     id="Roundel-4"
     x="0"
     y="0"
     width="251"
     height="304.20001"
     xlink:href="#Roundel" />
  <g
     transform="matrix(1.014971,0,0,1.014971,-2.788696,-3.848904)"
     id="Skyttel">
    <path
       d="M 202.47399,50.795619 C 203.72889,24.104915 208.69933,24.104915 210.00345,50.795625 L 210.29873,210.93986 C 209.04381,237.63057 203.7781,237.63057 202.47397,210.93986 L 202.47399,50.795619 z "
       style="fill:#ffcd50;stroke:#000000;stroke-width:1"
       id="path5705" />
    <g
       id="Spole">
      <path
         d="M 214.77282,82.979879 C 214.77282,87.266113 211.01577,90.744795 206.38656,90.744795 C 201.75735,90.744795 198.0003,87.266113 198.0003,82.979879 C 198.0003,78.693645 201.75735,75.214962 206.38656,75.214962 C 211.01577,75.214962 214.77282,78.693645 214.77282,82.979879 z "
         style="fill:#ffcd50;stroke:#000000;stroke-width:1"
         id="path1984" />
      <use
         transform="translate(-4.316406e-4,5.802349)"
         id="use2461"
         x="0"
         y="0"
         width="251"
         height="304.20001"
         xlink:href="#path1984" />
      <use
         transform="translate(0,11.10422)"
         id="use2463"
         x="0"
         y="0"
         width="251"
         height="304.20001"
         xlink:href="#path1984" />
      <use
         transform="translate(0,16.72422)"
         id="use2465"
         x="0"
         y="0"
         width="251"
         height="304.20001"
         xlink:href="#path1984" />
      <use
         transform="translate(0,22.34522)"
         id="use2467"
         x="0"
         y="0"
         width="251"
         height="304.20001"
         xlink:href="#path1984" />
      <use
         transform="translate(0,27.96522)"
         id="use2469"
         x="0"
         y="0"
         width="251"
         height="304.20001"
         xlink:href="#path1984" />
      <use
         transform="translate(0,33.58522)"
         id="use2471"
         x="0"
         y="0"
         width="251"
         height="304.20001"
         xlink:href="#path1984" />
      <use
         transform="translate(0,39.20622)"
         id="use2473"
         x="0"
         y="0"
         width="251"
         height="304.20001"
         xlink:href="#path1984" />
      <use
         transform="translate(0,44.82622)"
         id="use2475"
         x="0"
         y="0"
         width="251"
         height="304.20001"
         xlink:href="#path1984" />
      <use
         transform="translate(0,50.44622)"
         id="use2479"
         x="0"
         y="0"
         width="251"
         height="304.20001"
         xlink:href="#path1984" />
      <use
         transform="translate(0,56.06722)"
         id="use2481"
         x="0"
         y="0"
         width="251"
         height="304.20001"
         xlink:href="#path1984" />
      <use
         transform="translate(0,61.68722)"
         id="use2483"
         x="0"
         y="0"
         width="251"
         height="304.20001"
         xlink:href="#path1984" />
      <use
         transform="translate(0,67.30722)"
         id="use2485"
         x="0"
         y="0"
         width="251"
         height="304.20001"
         xlink:href="#path1984" />
      <use
         transform="translate(0,73.28522)"
         id="use2487"
         x="0"
         y="0"
         width="251"
         height="304.20001"
         xlink:href="#path1984" />
      <use
         transform="translate(0,78.54822)"
         id="use2489"
         x="0"
         y="0"
         width="251"
         height="304.20001"
         xlink:href="#path1984" />
      <use
         transform="translate(0,84.16822)"
         id="use2491"
         x="0"
         y="0"
         width="251"
         height="304.20001"
         xlink:href="#path1984" />
      <use
         transform="translate(0,89.78822)"
         id="use2493"
         x="0"
         y="0"
         width="251"
         height="304.20001"
         xlink:href="#path1984" />
      <use
         transform="translate(0,95.40922)"
         id="use2495"
         x="0"
         y="0"
         width="251"
         height="304.20001"
         xlink:href="#path1984" />
      <use
         transform="translate(0,101.0292)"
         id="use2497"
         x="0"
         y="0"
         width="251"
         height="304.20001"
         xlink:href="#path1984" />
      <use
         transform="translate(0,106.6492)"
         id="use2499"
         x="0"
         y="0"
         width="251"
         height="304.20001"
         xlink:href="#path1984" />
    </g>
    <path
       d="M 202.47399,193.03671 C 203.72889,187.41877 208.69933,187.41877 210.00345,193.03672 L 210.29873,226.74435 C 209.04381,232.3623 203.7781,232.3623 202.47397,226.74435 L 202.47399,193.03671 z "
       style="fill:#ffcd50;stroke:#000000;stroke-width:1"
       id="use2197" />
    <path
       d="M 206.5625,10.78125 C 201.88087,10.78125 188.9375,53.9375 188.9375,53.9375 C 185.20939,104.46371 185.4641,162.11733 189.28125,212.90625 C 189.28124,212.90625 202.79725,257.09375 206.5625,257.09375 C 211.06602,257.09376 223.84375,213.375 223.84375,213.375 C 227.6609,162.71025 227.91561,105.08552 224.1875,54.4375 C 224.18749,54.4375 210.50585,10.78125 206.5625,10.78125 z M 206.3125,44.21875 C 209.96512,44.218749 213.64028,52.361676 216.1875,68.625 C 221.28193,101.15165 221.87094,166.1921 216.96875,198.71875 C 212.06654,231.2454 201.68819,231.24541 196.59375,198.71875 C 191.49931,166.19212 191.69154,101.15165 196.59375,68.625 C 199.04485,52.361674 202.65988,44.218751 206.3125,44.21875 z "
       style="fill:#ffcd50"
       id="path5701" />
  </g>
  <g
     transform="matrix(1.194003,0,0,1.194003,-6.302622,-19.2126)"
     style="fill:#ffcd50;stroke:#000000"
     id="Wheat">
    <path
       d="M 40.319303,19.556403 C 40.288991,53.372229 20.796912,61.270261 40.770422,77.195255 C 59.224194,59.011526 40.590317,52.481046 40.319303,19.556403 z "
       id="top-korn" />
    <g
       id="h-korn">
      <path
         d="M 61.64218,40.591162 C 52.313429,74.097517 37.84032,58.057973 41.526964,101.85582 C 45.069828,99.81377 46.309401,91.394559 48.717446,89.302382 C 64.689219,70.999818 56.669863,57.693935 61.64218,40.591162 z "
         id="path10777" />
      <path
         d="M 72.017958,72.871782 C 61.923567,88.675114 37.833884,84.199475 41.886842,123.45662 C 44.217777,119.2428 47.414237,113.02526 49.843992,111.92482 C 60.867917,104.28845 61.331693,85.51937 72.017958,72.871782 z "
         id="path10779" />
      <path
         d="M 72.327039,94.123627 C 62.232648,109.92696 38.142958,105.45131 42.195923,144.70847 C 44.526858,140.49465 47.723318,134.2771 50.153073,133.17667 C 61.176998,125.5403 61.640774,106.77121 72.327039,94.123627 z "
         id="path10781" />
      <path
         d="M 72.306153,114.77968 C 62.211763,130.58301 38.122074,126.10737 42.17504,165.36453 C 44.505973,161.1507 47.702433,154.93316 50.132189,153.83272 C 61.156114,146.19635 61.619889,127.42727 72.306153,114.77968 z "
         id="path10783" />
      <path
         d="M 72.626539,135.73746 C 62.532148,151.54079 38.442457,147.06514 42.495423,186.3223 C 44.826358,182.10848 48.022818,175.89093 50.452572,174.7905 C 61.476498,167.15413 61.940273,148.38505 72.626539,135.73746 z "
         id="path10785" />
      <path
         d="M 72.605559,156.39345 C 62.511169,172.19678 38.42148,167.72113 42.474446,206.97829 C 44.805379,202.76447 48.001839,196.54692 50.431595,195.44649 C 61.45552,187.81012 61.919295,169.04103 72.605559,156.39345 z "
         id="path10787" />
      <path
         d="M 72.925929,177.35124 C 62.83154,193.15457 38.741848,188.67892 42.794814,227.93608 C 45.125748,223.72226 48.322207,217.50471 50.751963,216.40428 C 61.77589,208.76791 62.239665,189.99883 72.925929,177.35124 z "
         id="path10789" />
    </g>
    <g
       id="v-korn">
      <path
         d="M 19.249354,40.456848 C 29.182752,73.78898 43.363342,57.490202 40.469646,101.34762 C 36.890416,99.369995 35.498731,90.974581 33.053229,88.926308 C 16.752942,70.915673 24.530273,57.466879 19.249354,40.456848 z "
         id="path10793" />
      <path
         d="M 9.4592634,72.919917 C 19.83791,88.538056 43.842708,83.62733 40.500609,122.95142 C 38.093822,118.78045 34.7854,112.62174 32.336132,111.56545 C 21.175851,104.12976 20.372597,85.372118 9.4592634,72.919917 z "
         id="path10795" />
      <path
         d="M 9.5347035,94.173892 C 19.91335,109.79203 43.918148,104.8813 40.576049,144.20539 C 38.169262,140.03442 34.86084,133.87572 32.411572,132.81942 C 21.251291,125.38373 20.448037,106.62609 9.5347035,94.173892 z "
         id="path10797" />
      <path
         d="M 9.9292765,114.82621 C 20.307923,130.44435 44.312721,125.53362 40.970622,164.8577 C 38.563835,160.68674 35.255413,154.52803 32.806145,153.47174 C 21.645864,146.03604 20.84261,127.27841 9.9292765,114.82621 z "
         id="path10799" />
      <path
         d="M 9.9880949,135.78636 C 20.366742,151.4045 44.371539,146.49378 41.029441,185.81786 C 38.622653,181.64689 35.314232,175.48819 32.864964,174.43189 C 21.704683,166.9962 20.901429,148.23857 9.9880949,135.78636 z "
         id="path10801" />
      <path
         d="M 10.38276,156.43861 C 20.761407,172.05675 44.766205,167.14602 41.424106,206.47011 C 39.017319,202.29914 35.708897,196.14043 33.259629,195.08414 C 22.099348,187.64845 21.296094,168.89081 10.38276,156.43861 z "
         id="path10803" />
      <path
         d="M 10.441594,177.39878 C 20.820241,193.01692 44.825039,188.1062 41.48294,227.43028 C 39.076153,223.25931 35.767731,217.10061 33.318463,216.04431 C 22.158182,208.60862 21.354928,189.85099 10.441594,177.39878 z "
         id="path10805" />
    </g>
  </g>
</svg>
