<?xml version="1.0" encoding="UTF-8" standalone="no"?>
<!-- Created with Inkscape (http://www.inkscape.org/) -->
<svg
   xmlns:dc="http://purl.org/dc/elements/1.1/"
   xmlns:cc="http://web.resource.org/cc/"
   xmlns:rdf="http://www.w3.org/1999/02/22-rdf-syntax-ns#"
   xmlns:svg="http://www.w3.org/2000/svg"
   xmlns="http://www.w3.org/2000/svg"
   xmlns:xlink="http://www.w3.org/1999/xlink"
   version="1.0"
   width="251"
   height="304.20001"
   id="svg4166">
  <defs
     id="defs4168" />
  <metadata
     id="metadata1880"><rdf:RDF><cc:Work
         rdf:about=""><dc:title>Svenljunga kommunvapen</dc:title><dc:date>13-10-2007</dc:date><dc:creator><cc:Agent><dc:title>Lokal_Profil</dc:title></cc:Agent></dc:creator><cc:license
         rdf:resource="http://creativecommons.org/licenses/by-sa/2.5/" /><dc:rights><cc:Agent><dc:title>cc-by-sa-2.5</dc:title></cc:Agent></dc:rights><dc:format>image/svg+xml</dc:format><dc:type
         rdf:resource="http://purl.org/dc/dcmitype/StillImage" /></cc:Work><cc:License
         rdf:about="http://creativecommons.org/licenses/by-sa/2.5/"><cc:permits
         rdf:resource="http://web.resource.org/cc/Reproduction" /><cc:permits
         rdf:resource="http://web.resource.org/cc/Distribution" /><cc:requires
         rdf:resource="http://web.resource.org/cc/Notice" /><cc:requires
         rdf:resource="http://web.resource.org/cc/Attribution" /><cc:permits
         rdf:resource="http://web.resource.org/cc/DerivativeWorks" /><cc:requires
         rdf:resource="http://web.resource.org/cc/ShareAlike" /></cc:License></rdf:RDF>
  </metadata>
  <path
     d="M 249.55058,1.4395041 L 1.4495291,1.4395041 L 1.4495291,174.9361 C 0.68228908,268.65698 81.738969,302.75585 125.50006,302.75585 C 168.49391,302.75585 250.31781,268.65698 249.55058,174.9361 L 249.55058,1.4395041 z "
     style="fill:#003d8f;stroke:none"
     id="Shield" />
  <g
     transform="matrix(0.6,0,0,0.6,80.5,152.1592)"
     style="fill:#eeeeee;stroke:#003d8f;stroke-width:1.5"
     id="Flower">
    <path
       d="M 74.694998,85 C 59.417723,89.758418 50.220933,102.26236 49.47133,117.48272 C 50.321546,128.74179 54.468263,138.03801 60.817405,146.06141 C 52.467188,140.08159 42.526957,136.29013 32.482717,134.50183 C 16.095837,134.60666 4.5613215,145.79465 -1.110223e-016,160.305 C 4.7584192,175.58228 17.262365,184.77907 32.482717,185.52867 C 43.283496,184.71306 52.257924,180.86073 60.0549,174.9451 C 54.139266,182.74207 50.286938,191.7165 49.47133,202.51728 C 50.220933,217.73764 59.417723,230.24157 74.694998,235 C 89.205345,230.43867 100.39334,218.90416 100.49817,202.51728 C 98.711073,192.47973 94.911509,182.55988 88.938593,174.21309 C 96.958712,180.55579 106.26493,184.67896 117.51728,185.52867 C 132.73763,184.77907 145.24158,175.58228 150,160.305 C 145.43867,145.79465 133.90416,134.60666 117.51728,134.50183 C 107.12492,136.3521 96.851283,140.35758 88.328589,146.70191 C 94.667693,138.18158 98.648774,127.87014 100.49817,117.48272 C 100.39334,101.09584 89.205345,89.561322 74.694998,85 z "
       style="stroke:none"
       id="path3975" />
    <path
       d="M 51.423343,114.8902 C 45.560979,115.07786 39.669297,116.72925 34.190728,119.58723 C 26.840707,133.58712 29.022044,148.74708 38.94876,160 C 27.812457,171.62764 27.630746,187.47411 34.587231,200.80927 C 48.587113,208.15929 63.747084,205.97795 75,196.05124 C 86.252926,205.97796 101.41288,208.15929 115.41277,200.80927 C 122.36926,187.47412 122.18755,171.62766 111.05124,160 C 120.97795,148.74708 123.15928,133.58712 115.80927,119.58723 C 102.47411,112.63074 86.627644,112.81246 75,123.94876 C 68.14942,117.38765 59.830306,114.62108 51.423343,114.8902 z "
       id="use4002" />
    <path
       d="M 92.247264,159.99999 C 92.247264,169.52539 84.525402,177.24726 75.000001,177.24726 C 65.474601,177.24726 57.752739,169.52539 57.752739,159.99999 C 57.752739,150.47459 65.474601,142.75273 75.000001,142.75273 C 84.525402,142.75273 92.247264,150.47459 92.247264,159.99999 L 92.247264,159.99999 z "
       id="path4000" />
  </g>
  <use
     transform="matrix(-1,0,0,1,250.943,0)"
     id="Knife-2"
     x="0"
     y="0"
     width="251"
     height="304.20001"
     xlink:href="#Knife" />
  <g
     transform="matrix(0.316321,-8.635644e-2,0.115131,0.237262,-7.726902,117.7706)"
     style="fill:#eeeeee;stroke:#003d8f;stroke-width:4.02842093px"
     id="Knife">
    <path
       d="M 435.13929,557.80733 L 459.45139,559.89236 C 407.12729,364.42834 304.20606,249.13336 98.604802,159.46969 C 107.99432,196.16739 96.502242,232.8651 72.581362,269.56281 C 209.14862,337.11282 304.18197,439.49772 354.57079,579.32635 C 374.46109,566.57434 395.19589,559.21425 434.09669,557.80733 C 434.09669,557.80733 435.13929,557.80733 435.13929,557.80733 z "
       id="path22626" />
    <path
       d="M 118.07786,65.013913 L 138.55432,168.85198 L 86.468125,185.86654 L 42.013855,91.411108 C 67.368495,74.657953 92.723175,71.26002 118.07786,65.013913 z "
       id="path23513" />
    <path
       d="M 557.9855,573.95596 L 461.35528,530.77918 L 433.12475,577.74195 L 515.2483,642.19145 C 537.24674,621.22493 546.22803,597.27198 557.9855,573.95596 z "
       id="path24400" />
  </g>
  <g
     transform="matrix(1.072788,0,0,1.072788,-9.160582,-12.80233)"
     id="Ko">
    <path
       d="M 134.57296,143.53484 C 137.19734,142.05435 139.10928,139.92193 139.10928,138.47544 C 139.10928,138.21444 137.91317,137.85145 136.45128,137.6688 C 134.05333,137.36919 133.66794,137.45075 132.51184,138.50248 C 128.7731,142.11664 122.49304,142.69938 118.07141,140.0992 C 116.97297,137.83927 115.20447,138.15989 111.28313,138.9474 L 108.60564,139.48512 C 110.10622,142.09121 112.51342,143.74415 115.38965,144.50492 C 118.2581,144.80937 123.71452,144.42395 123.71452,144.42395 C 131.58328,144.35635 133.37709,144.20947 134.57296,143.53484 z M 113.21259,136.18172 C 117.82279,135.13424 119.99932,134.90725 125.50031,134.90024 C 129.30074,134.8954 133.42169,135.16341 135.05047,135.52133 C 142.23811,137.10086 147.44724,135.92427 149.93788,132.15871 C 151.18083,130.27949 151.28574,129.76526 151.28574,125.55077 C 151.28574,120.46618 150.49179,118.24516 147.51849,115.01179 C 144.58296,111.81956 144.57532,112.55402 147.63605,103.73898 C 152.69615,89.165746 153.36968,87.149775 155.51541,80.153712 C 158.40562,70.730459 161.07155,58.871402 161.07389,55.42769 C 161.07503,53.767696 162.02967,53.714425 166.63012,55.117654 C 172.28535,56.842599 180.32849,56.936033 186.14382,55.344332 C 191.97119,53.749331 203.00644,48.098312 202.13943,46.891993 C 195.48254,37.612685 159.69408,26.763455 159.69408,26.763455 C 157.46445,27.519169 158.59338,24.238923 155.15546,23.257534 C 152.51184,22.788258 150.17725,24.091588 148.06824,25.60356 C 147.31535,26.265295 147.12784,26.116332 145.37175,25.039551 C 140.24657,21.896942 139.65761,27.140075 137.34972,25.936502 C 130.99599,22.623007 126.441,23.633782 122.3965,28.062263 C 120.09883,23.18853 115.40025,20.619135 110.21465,23.063251 L 108.68658,24.228766 C 106.66491,21.071039 103.48943,20.041389 100.6453,22.900263 L 99.91495,24.312612 C 96.500864,19.713718 93.024319,21.445348 91.828687,26.776859 C 91.817035,29.276365 91.482732,28.622537 89.549445,28.873835 C 76.045662,32.147793 56.919462,34.871766 48.860273,47.788209 C 48.860273,49.634291 56.433502,53.141774 65.334299,55.418026 C 69.144621,56.392467 70.666153,56.509814 78.754947,56.453077 L 87.878024,56.389081 L 88.69399,63.359242 C 89.1428,67.192827 89.843734,71.841515 90.251621,73.689652 C 92.372903,83.300933 95.379388,94.688002 97.820791,102.35783 C 99.325514,107.08516 100.78263,111.66197 101.05877,112.52852 C 101.63202,114.32726 101.02458,116.51884 99.179254,119.30997 C 97.571007,121.74248 96.092881,126.35947 96.06509,129.03708 C 96.027462,132.66773 97.260245,134.84477 100.14435,136.24083 C 103.34933,137.79223 106.18062,137.77943 113.21259,136.18172 z M 105.69858,126.66737 C 102.79738,124.04629 102.46795,120.18692 105.00366,118.52546 C 106.12313,117.79197 106.27918,117.79016 106.99148,118.50243 C 107.61185,119.12281 107.67016,119.58506 107.28681,120.84428 C 106.52423,123.34923 107.28801,125.342 109.26012,125.99286 C 110.17177,126.29373 111.11734,126.41647 111.36139,126.26563 C 111.88727,125.94061 113.32385,126.4225 113.32385,126.92393 C 113.32385,127.53452 110.95245,128.38202 109.24393,128.38202 C 108.0239,128.38202 107.10412,127.93716 105.69858,126.66737 z M 136.12486,126.76229 C 134.85359,125.79725 135.09798,125.5825 137.36757,125.67033 C 140.31514,125.78441 141.01932,125.02532 141.01932,121.73394 C 141.01932,117.80404 142.79746,116.58321 144.80471,119.13501 C 146.08143,120.75807 146.05574,122.11946 144.7105,124.13321 C 142.81623,126.96875 138.24203,128.36945 136.12486,126.76229 z M 138.61277,85.286923 C 136.66401,83.270597 135.76673,81.159726 135.76673,78.591525 C 135.76673,75.900753 137.66945,72.113952 139.71663,70.730411 C 143.05699,68.472916 148.29878,67.640424 152.06599,68.769104 C 154.79671,69.587252 154.3128,70.126044 150.84729,70.126044 C 147.18079,70.126044 146.2719,70.416469 146.2719,71.58802 C 146.2719,72.218818 146.74979,72.559959 147.94844,72.784832 C 148.87055,72.957819 149.72615,73.263032 149.84978,73.46308 C 149.97345,73.663127 149.43673,74.707322 148.65715,75.783515 C 147.16909,77.837717 144.20324,79.671682 142.35147,79.682722 C 140.41217,79.694287 139.10876,80.245517 139.13025,81.045042 C 139.14911,81.747853 139.80444,83.732816 140.76714,86.003183 C 141.33571,87.344001 140.25306,86.984065 138.61277,85.286923 z M 144.62355,74.694391 C 145.56314,73.260411 144.91335,71.715176 143.18878,71.282334 C 140.50203,70.608012 138.8595,72.526233 140.27445,74.685748 C 141.31972,76.281007 143.581,76.285501 144.62355,74.694391 z M 106.52032,85.606208 C 106.36761,85.453525 106.64939,84.432852 107.14647,83.338045 C 108.39688,80.584147 108.31957,80.153712 106.57475,80.153712 C 104.23497,80.153712 101.59559,79.191963 99.74171,77.663875 C 97.934152,76.173921 97.496754,74.785466 98.879236,74.926097 C 100.62219,75.103396 100.90864,74.877463 100.90864,73.325347 C 100.90864,71.18688 100.1718,70.603552 97.470587,70.603552 C 94.745735,70.603552 94.498386,69.947078 96.921787,69.147272 C 99.458118,68.31021 103.97716,68.534247 106.06659,69.600632 C 108.12522,70.651336 108.95618,71.535375 110.45809,74.272766 C 112.15988,77.374424 111.35676,81.857794 108.57069,84.809415 C 107.53956,85.901813 107.01841,86.104329 106.52032,85.606208 z M 105.89669,75.561207 C 107.12518,75.089792 107.6545,73.690579 107.12814,72.306092 C 106.75707,71.330085 106.33963,71.08106 105.07476,71.08106 C 103.16554,71.08106 102.34117,71.801065 102.34117,73.4686 C 102.34117,75.496815 103.81065,76.361692 105.89669,75.561207 z M 117.62142,58.230653 C 115.98663,57.690152 114.2368,56.632997 112.98649,55.430455 C 111.18371,53.696523 110.78986,53.523785 109.14313,53.744661 C 107.63678,53.946704 107.03474,53.760519 105.77975,52.704548 C 104.46188,51.595598 104.25144,51.111591 104.25297,49.19262 C 104.25411,47.791895 104.61764,46.37171 105.23372,45.36115 C 106.37119,43.495379 106.89535,43.603472 106.15488,45.551113 C 105.52376,47.211031 105.92787,49.234006 107.10302,50.297488 C 107.74618,50.879556 108.67622,51.064413 110.47981,50.968687 C 112.74678,50.848365 113.08892,50.970793 114.31249,52.340186 C 116.91481,55.252708 119.14821,56.278314 122.88824,56.278314 C 126.37797,56.278314 128.29626,55.631152 130.07297,53.854435 C 130.83531,53.092084 131.20046,53.013921 132.00019,53.441911 C 132.54283,53.732336 134.16884,53.980579 135.61345,53.993557 C 138.90735,54.023158 140.06306,53.032563 140.41899,49.874473 C 140.69805,47.398777 141.26581,46.68061 141.74656,48.195254 C 143.15593,52.635868 137.77312,56.949475 132.34452,55.729743 C 130.8451,55.392856 130.20672,55.448409 129.61509,55.967279 C 126.53206,58.67113 121.70746,59.581595 117.62142,58.230653 z M 147.06218,46.809929 C 146.22224,45.881835 145.99056,44.340611 146.69092,44.340611 C 146.92141,44.340611 147.37748,44.662929 147.70443,45.056873 C 148.41577,45.914019 151.10104,46.005562 151.9065,45.200125 C 152.22165,44.88497 152.47951,43.445288 152.47951,42.000826 C 152.47951,39.967569 152.60805,39.503092 153.04884,39.94387 C 153.36199,40.257005 153.61817,41.618519 153.61817,42.969461 C 153.61817,45.056424 153.42087,45.595406 152.30593,46.554438 C 150.70657,47.930167 148.18705,48.052918 147.06218,46.809929 z M 96.28078,46.689181 C 94.648562,46.085353 93.578658,44.102969 93.931871,42.336963 C 94.280642,40.593018 95.479713,39.088028 96.520346,39.088028 C 97.130028,39.088028 97.118998,39.217948 96.446332,39.961265 C 95.525172,40.979117 95.401497,43.417564 96.229066,44.245114 C 97.146407,45.162469 99.549513,44.915635 100.75847,43.779873 C 102.17366,42.4504 102.19443,43.238632 100.78688,44.856759 C 99.39886,46.452452 97.608682,47.180437 96.28078,46.689181 z "
       style="fill:#eeeeee;stroke:#eeeeee;stroke-width:0.47750801"
       id="path1954" />
    <path
       d="M 89.661474,39.352211 C 94.066255,40.967671 92.841192,27.486672 91.031768,26.550971 C 85.300205,24.897949 79.559908,25.960937 74.082023,27.809023 C 69.075877,30.241336 65.906962,34.637979 65.510024,39.70213 C 65.29523,42.442697 65.379229,42.784794 66.530465,43.855993 C 68.105234,45.321345 68.586075,45.112296 72.946772,41.066373 C 78.294148,36.104993 85.256693,37.736749 89.661474,39.352211 z "
       style="fill:#d40000;stroke:none"
       id="Horn" />
    <use
       transform="matrix(-1,0,0,1,248.8131,0)"
       id="Horn-2"
       x="0"
       y="0"
       width="251"
       height="304.20001"
       xlink:href="#Horn" />
    <path
       d="M 129.88434,148.29137 C 130.83536,145.66804 130.9537,137.63775 130.9537,136.04515 C 130.9537,136.04515 119.1885,136.0145 119.1885,136.0145 C 118.03444,137.95873 118.76526,143.97145 120.12673,148.29939 C 122.86528,157.00481 126.7265,157.00163 129.88434,148.29137 z "
       style="fill:#d40000;stroke:none"
       id="path1958" />
  </g>
  <path
     d="M 249.55062,1.4395041 L 1.449569,1.4395041 L 1.449569,174.9361 C 0.68232904,268.65698 81.739009,302.75585 125.5001,302.75585 C 168.49395,302.75585 250.31785,268.65698 249.55062,174.9361 L 249.55062,1.4395041 z "
     style="fill:none;fill-opacity:0;stroke:#000000;stroke-width:1.88832211;stroke-linejoin:bevel"
     id="Frame" />
</svg>
