<?xml version="1.0" encoding="UTF-8" standalone="no"?>
<!-- Created with Inkscape (http://www.inkscape.org/) -->
<svg
   xmlns:dc="http://purl.org/dc/elements/1.1/"
   xmlns:cc="http://web.resource.org/cc/"
   xmlns:rdf="http://www.w3.org/1999/02/22-rdf-syntax-ns#"
   xmlns:svg="http://www.w3.org/2000/svg"
   xmlns="http://www.w3.org/2000/svg"
   xmlns:xlink="http://www.w3.org/1999/xlink"
   version="1.0"
   width="251"
   height="304.20001"
   id="svg4166">
  <metadata
     id="metadata1880"><rdf:RDF><cc:Work
         rdf:about=""><dc:title>Herrljunga kommunvapen</dc:title><dc:date>03-01-2008</dc:date><dc:creator><cc:Agent><dc:title>Lokal_Profil</dc:title></cc:Agent></dc:creator><cc:license
         rdf:resource="http://creativecommons.org/licenses/by-sa/2.5/" /><dc:rights><cc:Agent><dc:title>cc-by-sa-2.5</dc:title></cc:Agent></dc:rights><dc:format>image/svg+xml</dc:format><dc:type
         rdf:resource="http://purl.org/dc/dcmitype/StillImage" /></cc:Work><cc:License
         rdf:about="http://creativecommons.org/licenses/by-sa/2.5/"><cc:permits
         rdf:resource="http://web.resource.org/cc/Reproduction" /><cc:permits
         rdf:resource="http://web.resource.org/cc/Distribution" /><cc:requires
         rdf:resource="http://web.resource.org/cc/Notice" /><cc:requires
         rdf:resource="http://web.resource.org/cc/Attribution" /><cc:permits
         rdf:resource="http://web.resource.org/cc/DerivativeWorks" /><cc:requires
         rdf:resource="http://web.resource.org/cc/ShareAlike" /></cc:License></rdf:RDF>
  </metadata>
  <defs
     id="defs4168" />
  <path
     d="M 249.55058,1.4395041 L 125.50008,1.4395041 L 1.4495291,1.4395041 L 1.4495291,174.9361 C 0.68228908,268.65698 81.738969,302.75585 125.50006,302.75585 C 168.49391,302.75585 250.31781,268.65698 249.55058,174.9361 L 249.55058,1.4395041 z "
     style="color:#000000;fill:#003d8f;fill-opacity:1;fill-rule:nonzero;stroke:none;stroke-width:1.88832211;stroke-linecap:round;stroke-linejoin:bevel;marker:none;marker-start:none;marker-mid:none;marker-end:none;stroke-miterlimit:4;stroke-dashoffset:0;stroke-opacity:1;visibility:visible;display:block"
     id="Shield" />
  <path
     d="M 100.5,1.4375 L 100.5,112.25 L 1.4375,112.25 L 1.4375,162.25 L 100.5,162.25 L 100.5,299.625 C 109.52307,301.72703 118.05076,302.75 125.5,302.75 C 132.89051,302.75 141.43148,301.70729 150.5,299.5625 L 150.5,162.25 L 249.5625,162.25 L 249.5625,112.25 L 150.5,112.25 L 150.5,1.4375 L 125.5,1.4375 L 100.5,1.4375 z "
     style="fill:#eeeeee;fill-opacity:1;fill-rule:nonzero;stroke:none;stroke-width:0;stroke-miterlimit:4;stroke-dasharray:none;stroke-opacity:1"
     id="Kavel-kors" />
  <g
     transform="matrix(0.192513,0,0,0.192513,-20.06195,-47.27266)"
     style="fill:#ffcd50;stroke:#003d8f;stroke-width:1.5"
     id="Garb">
    <path
       d="M 268.43371,764.41915 C 308.03449,656.66554 318.21084,575.67799 260.50947,462.3925 C 355.18848,369.6518 425.1003,399.48996 488.33144,462.3925 C 428.78836,576.90732 444.79728,657.18541 479.41667,760.45703 C 405.06634,801.47421 340.1438,801.80517 268.43371,764.41915 z "
       id="path6015" />
    <path
       d="M 372.0625,403.5625 C 370.10577,403.62949 368.13535,403.75978 366.15625,403.9375 C 373.30162,533.72899 368.19051,662.75226 367.5,791.84375 C 370.13445,791.8813 372.76828,791.85821 375.40625,791.78125 C 374.45851,661.97336 381.48448,536.06068 372.46875,403.5625 C 372.33383,403.5666 372.19753,403.55788 372.0625,403.5625 z "
       id="path7531" />
    <path
       d="M 390.09375,404.5 C 373.76444,523.12577 367.97061,642.80008 372.5625,791.84375 C 374.89384,791.81225 377.22758,791.74618 379.5625,791.625 C 378.05536,644.49113 382.71422,524.7728 396.6875,405.625 C 394.50827,405.18837 392.29997,404.80304 390.09375,404.5 z "
       id="path7559" />
    <g
       id="g7546">
      <path
         d="M 421.9074,280.04383 C 405.05151,298.98808 395.80154,299.03296 404.35009,327.66987 C 422.9702,314.54623 422.44576,304.0173 421.9074,280.04383 z "
         id="path5862" />
      <path
         d="M 384.45424,293.31691 C 395.55096,304.70195 411.69798,310.35491 401.56644,341.89881 C 381.37689,324.98983 383.98646,323.17278 384.45424,293.31691 z "
         id="path5864" />
      <path
         d="M 381.16486,325.37509 C 395.79833,335.61364 409.17837,337.54164 399.27166,365.08403 C 386.41673,350.06294 380.9063,351.50744 381.16486,325.37509 z "
         id="path5866" />
      <path
         d="M 377.22553,342.51549 C 388.33481,353.67703 404.48738,359.23143 394.3933,390.10842 C 374.18534,373.52705 376.79262,371.75077 377.22553,342.51549 z "
         id="path5868" />
      <path
         d="M 370.86415,367.45621 C 383.82874,378.3857 402.56591,383.93701 391.22004,413.74012 C 368.81196,395.4324 379.82605,390.78329 370.86415,367.45621 z "
         id="path5870" />
      <path
         d="M 368.45896,392.60069 C 380.65532,403.15072 399.75236,409.07 389.02326,437.90424 C 371.73422,422.47278 369.50932,420.05168 368.45896,392.60069 z "
         id="path5872" />
      <path
         d="M 433.14665,305.97367 C 424.38743,313.46209 404.13759,313.23382 403.38782,344.48137 C 428.31164,329.59725 428.04116,332.31961 433.14665,305.97367 z "
         id="path5874" />
      <path
         d="M 431.89645,328.22563 C 422.56793,335.18944 400.87077,334.8237 400.30119,364.14993 C 426.89296,350.36473 426.62354,352.91816 431.89645,328.22563 z "
         id="path5876" />
      <path
         d="M 428.77927,348.38811 C 419.11918,355.92444 396.693,355.58513 396.02961,387.22379 C 423.55109,372.2846 423.26611,375.03994 428.77927,348.38811 z "
         id="path5878" />
      <path
         d="M 427.22336,376.0793 C 417.01146,380.076 393.21849,373.14498 393.13111,412.35933 C 413.50541,406.45655 412.05135,394.59189 427.22336,376.0793 z "
         id="path5880" />
      <path
         d="M 415.94557,400.22942 C 401.76545,406.48748 393.75617,405.50588 391.23819,437.03678 C 411.80464,422.712 411.56276,425.30078 415.94557,400.22942 z "
         id="path5882" />
    </g>
    <path
       d="M 431.625,418.4375 C 396.11457,522.0563 388.9086,619.59607 393.09375,790.40625 C 396.00174,790.04069 398.92439,789.6295 401.84375,789.125 C 399.39719,619.69715 405.54132,525.7862 438.125,422.0625 C 435.97028,420.7892 433.80313,419.59496 431.625,418.4375 z "
       id="path7615" />
    <g
       id="g7602">
      <path
         d="M 489.82581,303.86883 C 469.3329,318.80358 460.28418,316.88404 462.55947,346.68292 C 483.54091,337.81062 485.26329,327.4103 489.82581,303.86883 z "
         id="path5888" />
      <path
         d="M 450.40873,308.88966 C 458.83601,322.37066 473.4152,331.32217 456.81902,359.99677 C 440.67861,339.18767 443.61441,337.96592 450.40873,308.88966 z "
         id="path5890" />
      <path
         d="M 440.38965,339.51914 C 452.51643,352.63049 465.18235,357.3546 449.65523,382.16659 C 440.2816,364.7592 434.59013,365.00114 440.38965,339.51914 z "
         id="path5892" />
      <path
         d="M 432.90186,355.4328 C 441.38885,368.69807 455.99438,377.55445 439.57637,405.58529 C 423.34844,385.09242 426.27334,383.91003 432.90186,355.4328 z "
         id="path5894" />
      <path
         d="M 421.39152,378.45495 C 431.7408,391.88725 448.8727,401.28922 431.45936,428.00494 C 413.44787,405.35806 425.1978,403.15274 421.39152,378.45495 z "
         id="path5896" />
      <path
         d="M 413.70397,402.51594 C 423.38307,415.41437 440.78853,425.25231 424.18356,451.15215 C 410.56395,432.40256 408.90366,429.56437 413.70397,402.51594 z "
         id="path5898" />
      <path
         d="M 495.30509,331.59345 C 485.15597,337.05201 465.41601,332.53072 458.05072,362.90709 C 485.56591,353.65245 484.72375,356.25537 495.30509,331.59345 z "
         id="path5900" />
      <path
         d="M 489.36018,353.073 C 478.76608,357.89806 457.64096,352.93522 450.85958,381.47231 C 479.77145,373.64559 478.96619,376.08365 489.36018,353.073 z "
         id="path5902" />
      <path
         d="M 482.03434,372.1144 C 470.99471,377.42855 449.15158,372.33679 441.78768,403.11371 C 471.85303,394.35663 470.9897,396.9887 482.03434,372.1144 z "
         id="path5904" />
      <path
         d="M 474.63616,398.84434 C 463.80862,400.58239 442.02899,388.75902 433.61996,427.06126 C 454.78293,425.61763 455.88039,413.71469 474.63616,398.84434 z "
         id="path5906" />
      <path
         d="M 458.48925,420.05035 C 443.30391,423.15594 435.68549,420.49665 426.53214,450.77461 C 449.67053,441.14167 448.88467,443.62012 458.48925,420.05035 z "
         id="path5908" />
    </g>
    <path
       d="M 465.4375,441.5 C 419.11133,536.05173 409.49347,621.87543 433.3125,781.0625 C 436.724,779.91432 440.15284,778.67678 443.59375,777.34375 C 419.87923,625.41589 428.66748,539.80174 471.1875,446.375 C 469.2776,444.7106 467.36239,443.09021 465.4375,441.5 z "
       id="path7671" />
    <g
       id="g7658">
      <path
         d="M 542.88907,327.93268 C 520.63371,340.08606 511.91001,337.01018 510.30481,366.85267 C 532.25902,360.77392 535.31454,350.68446 542.88907,327.93268 z "
         id="path5914" />
      <path
         d="M 503.15372,327.80355 C 509.7631,342.26289 523.05944,353.0281 502.88756,379.31043 C 489.57965,356.5853 492.64901,355.75428 503.15372,327.80355 z "
         id="path5916" />
      <path
         d="M 489.25017,356.87654 C 499.57576,371.44872 511.52275,377.77424 492.91143,400.36506 C 485.87245,381.8898 480.19761,381.3922 489.25017,356.87654 z "
         id="path5918" />
      <path
         d="M 479.76344,371.68577 C 486.45998,385.93893 499.79476,396.61321 479.88297,422.2803 C 466.4473,399.8574 469.50075,399.06399 479.76344,371.68577 z "
         id="path5920" />
      <path
         d="M 465.36695,393.02233 C 473.88843,407.68243 489.6576,419.22506 468.92927,443.45914 C 454.0042,418.66928 465.94083,418.0051 465.36695,393.02233 z "
         id="path5922" />
      <path
         d="M 454.62642,415.88432 C 462.55255,429.92821 478.53648,441.93858 458.71543,465.46841 C 447.6402,445.11208 446.36167,442.08268 454.62642,415.88432 z "
         id="path5924" />
      <path
         d="M 544.72963,356.13356 C 533.95875,360.23098 514.97109,353.18992 503.73176,382.35581 C 532.21418,376.74459 531.04183,379.21643 544.72963,356.13356 z "
         id="path5926" />
      <path
         d="M 536.05154,376.66167 C 524.92153,380.07329 504.6176,372.41492 494.19558,399.83268 C 523.87788,395.81832 522.76348,398.13148 536.05154,376.66167 z "
         id="path5928" />
      <path
         d="M 526.3201,394.59327 C 514.68494,398.43211 493.68575,390.55287 482.3959,420.1161 C 513.3425,415.32869 512.14539,417.8267 526.3201,394.59327 z "
         id="path5930" />
      <path
         d="M 515.52066,420.1392 C 504.55918,420.45957 484.49524,405.9137 471.19394,442.80339 C 492.36555,444.1142 494.99613,432.45382 515.52066,420.1392 z "
         id="path5932" />
      <path
         d="M 496.76203,439.07412 C 481.3023,440.18582 474.09269,436.56177 461.09313,465.39838 C 485.28466,458.8449 484.18428,461.20062 496.76203,439.07412 z "
         id="path5934" />
    </g>
    <path
       d="M 347.03125,407.34375 C 344.89771,407.91261 342.75417,408.57936 340.59375,409.28125 C 356.42311,527.2741 366.76649,646.48851 365.375,791.78125 C 367.35575,791.83268 369.33016,791.857 371.3125,791.84375 C 375.86719,643.56723 365.03763,525.03538 347.03125,407.34375 z "
       id="path7503" />
    <g
       id="g7490">
      <path
         d="M 314.0979,280.04383 C 330.95379,298.98808 340.20376,299.03296 331.65521,327.66987 C 313.0351,314.54623 313.55954,304.0173 314.0979,280.04383 z "
         id="path5741" />
      <path
         d="M 351.55106,293.31691 C 340.45434,304.70195 324.30732,310.35491 334.43886,341.89881 C 354.62841,324.98983 352.01884,323.17278 351.55106,293.31691 z "
         id="path5743" />
      <path
         d="M 354.84044,325.37509 C 340.20697,335.61364 326.82693,337.54164 336.73364,365.08403 C 349.58857,350.06294 355.099,351.50744 354.84044,325.37509 z "
         id="path5745" />
      <path
         d="M 358.77977,342.51549 C 347.67049,353.67703 331.51792,359.23143 341.612,390.10842 C 361.81996,373.52705 359.21268,371.75077 358.77977,342.51549 z "
         id="path5747" />
      <path
         d="M 365.14115,367.45621 C 352.17656,378.3857 333.43939,383.93701 344.78526,413.74012 C 367.19334,395.4324 356.17925,390.78329 365.14115,367.45621 z "
         id="path5749" />
      <path
         d="M 367.54634,392.60069 C 355.34998,403.15072 336.25294,409.07 346.98204,437.90424 C 364.27108,422.47278 366.49598,420.05168 367.54634,392.60069 z "
         id="path5751" />
      <path
         d="M 302.85865,305.97367 C 311.61787,313.46209 331.86771,313.23382 332.61748,344.48137 C 307.69366,329.59725 307.96414,332.31961 302.85865,305.97367 z "
         id="path5753" />
      <path
         d="M 304.10885,328.22563 C 313.43737,335.18944 335.13453,334.8237 335.70411,364.14993 C 309.11234,350.36473 309.38176,352.91816 304.10885,328.22563 z "
         id="path5755" />
      <path
         d="M 307.22603,348.38811 C 316.88612,355.92444 339.3123,355.58513 339.97569,387.22379 C 312.45421,372.2846 312.73919,375.03994 307.22603,348.38811 z "
         id="path5757" />
      <path
         d="M 308.78194,376.0793 C 318.99384,380.076 342.78681,373.14498 342.87419,412.35933 C 322.49989,406.45655 323.95395,394.59189 308.78194,376.0793 z "
         id="path5759" />
      <path
         d="M 320.05973,400.22942 C 334.23985,406.48748 342.24913,405.50588 344.76711,437.03678 C 324.20066,422.712 324.44254,425.30078 320.05973,400.22942 z "
         id="path5761" />
    </g>
    <path
       d="M 307.53125,424.78125 C 305.41733,426.07404 303.29619,427.45343 301.15625,428.875 C 334.76244,530.23944 347.40799,624.35136 345.0625,790.125 C 347.63414,790.4775 350.21118,790.78696 352.78125,791.03125 C 356.85856,623.31242 343.78838,526.20389 307.53125,424.78125 z "
       id="path7447" />
    <g
       id="g7434">
      <path
         d="M 246.17949,303.86883 C 266.6724,318.80358 275.72112,316.88404 273.44583,346.68292 C 252.46439,337.81062 250.74201,327.4103 246.17949,303.86883 z "
         id="path5767" />
      <path
         d="M 285.59657,308.88966 C 277.16929,322.37066 262.5901,331.32217 279.18628,359.99677 C 295.32669,339.18767 292.39089,337.96592 285.59657,308.88966 z "
         id="path5769" />
      <path
         d="M 295.61565,339.51914 C 283.48887,352.63049 270.82295,357.3546 286.35007,382.16659 C 295.7237,364.7592 301.41517,365.00114 295.61565,339.51914 z "
         id="path5771" />
      <path
         d="M 303.10344,355.4328 C 294.61645,368.69807 280.01092,377.55445 296.42893,405.58529 C 312.65686,385.09242 309.73196,383.91003 303.10344,355.4328 z "
         id="path5773" />
      <path
         d="M 314.61378,378.45495 C 304.2645,391.88725 287.1326,401.28922 304.54594,428.00494 C 322.55743,405.35806 310.8075,403.15274 314.61378,378.45495 z "
         id="path5775" />
      <path
         d="M 322.30133,402.51594 C 312.62223,415.41437 295.21677,425.25231 311.82174,451.15215 C 325.44135,432.40256 327.10164,429.56437 322.30133,402.51594 z "
         id="path5777" />
      <path
         d="M 240.70021,331.59345 C 250.84933,337.05201 270.58929,332.53072 277.95458,362.90709 C 250.43939,353.65245 251.28155,356.25537 240.70021,331.59345 z "
         id="path5779" />
      <path
         d="M 246.64512,353.073 C 257.23922,357.89806 278.36434,352.93522 285.14572,381.47231 C 256.23385,373.64559 257.03911,376.08365 246.64512,353.073 z "
         id="path5781" />
      <path
         d="M 253.97096,372.1144 C 265.01059,377.42855 286.85372,372.33679 294.21762,403.11371 C 264.15227,394.35663 265.0156,396.9887 253.97096,372.1144 z "
         id="path5783" />
      <path
         d="M 261.36914,398.84434 C 272.19668,400.58239 293.97631,388.75902 302.38534,427.06126 C 281.22237,425.61763 280.12491,413.71469 261.36914,398.84434 z "
         id="path5785" />
      <path
         d="M 277.51605,420.05035 C 292.70139,423.15594 300.31981,420.49665 309.47316,450.77461 C 286.33477,441.14167 287.12063,443.62012 277.51605,420.05035 z "
         id="path5787" />
    </g>
    <path
       d="M 274.40625,449.5 C 272.69186,451.00136 270.98099,452.5415 269.25,454.125 C 311.88979,547.9208 319.07573,628.96381 305.84375,780.25 L 307.78125,781.3125 C 309.99044,782.04969 312.20412,782.74594 314.40625,783.40625 C 329.51583,629.89198 321.47388,547.21073 274.40625,449.5 z "
       id="path7366" />
    <g
       id="g7353">
      <path
         d="M 193.11623,327.93268 C 215.37159,340.08606 224.09529,337.01018 225.70049,366.85267 C 203.74628,360.77392 200.69076,350.68446 193.11623,327.93268 z "
         id="path5793" />
      <path
         d="M 232.85158,327.80355 C 226.2422,342.26289 212.94586,353.0281 233.11774,379.31043 C 246.42565,356.5853 243.35629,355.75428 232.85158,327.80355 z "
         id="path5795" />
      <path
         d="M 246.75513,356.87654 C 236.42954,371.44872 224.48255,377.77424 243.09387,400.36506 C 250.13285,381.8898 255.80769,381.3922 246.75513,356.87654 z "
         id="path5797" />
      <path
         d="M 256.24186,371.68577 C 249.54532,385.93893 236.21054,396.61321 256.12233,422.2803 C 269.558,399.8574 266.50455,399.06399 256.24186,371.68577 z "
         id="path5799" />
      <path
         d="M 270.63835,393.02233 C 262.11687,407.68243 246.3477,419.22506 267.07603,443.45914 C 282.0011,418.66928 270.06447,418.0051 270.63835,393.02233 z "
         id="path5801" />
      <path
         d="M 281.37888,415.88432 C 273.45275,429.92821 257.46882,441.93858 277.28987,465.46841 C 288.3651,445.11208 289.64363,442.08268 281.37888,415.88432 z "
         id="path5803" />
      <path
         d="M 191.27567,356.13356 C 202.04655,360.23098 221.03421,353.18992 232.27354,382.35581 C 203.79112,376.74459 204.96347,379.21643 191.27567,356.13356 z "
         id="path5805" />
      <path
         d="M 199.95376,376.66167 C 211.08377,380.07329 231.3877,372.41492 241.80972,399.83268 C 212.12742,395.81832 213.24182,398.13148 199.95376,376.66167 z "
         id="path5807" />
      <path
         d="M 209.6852,394.59327 C 221.32036,398.43211 242.31955,390.55287 253.6094,420.1161 C 222.6628,415.32869 223.85991,417.8267 209.6852,394.59327 z "
         id="path5809" />
      <path
         d="M 220.48464,420.1392 C 231.44612,420.45957 251.51006,405.9137 264.81136,442.80339 C 243.63975,444.1142 241.00917,432.45382 220.48464,420.1392 z "
         id="path5811" />
      <path
         d="M 239.24327,439.07412 C 254.703,440.18582 261.91261,436.56177 274.91217,465.39838 C 250.72064,458.8449 251.82102,461.20062 239.24327,439.07412 z "
         id="path5813" />
    </g>
    <g
       id="g7518">
      <path
         d="M 348.17141,277.27222 C 363.93803,297.13222 373.17092,297.69593 363.02936,325.8082 C 345.17478,311.66067 346.28904,301.17774 348.17141,277.27222 z "
         id="path1900" />
      <path
         d="M 384.82102,292.62544 C 373.10309,303.37005 356.66437,308.1083 365.01042,340.17089 C 386.11674,324.42113 383.61321,322.46054 384.82102,292.62544 z "
         id="path2789" />
      <path
         d="M 386.30682,324.81767 C 371.12203,334.2192 357.6549,335.39357 366.00095,363.44834 C 379.67829,349.17204 385.09901,350.92338 386.30682,324.81767 z "
         id="path3677" />
      <path
         d="M 389.27841,342.15207 C 377.56048,352.67283 361.12176,357.31237 369.46781,388.707 C 390.57413,373.28536 388.0706,371.36561 389.27841,342.15207 z "
         id="path3679" />
      <path
         d="M 394.23066,367.41039 C 380.67336,377.59538 361.65427,382.08684 371.31039,412.4795 C 394.71021,395.45765 383.97427,390.198 394.23066,367.41039 z "
         id="path3681" />
      <path
         d="M 395.22151,392.6502 C 382.45252,402.49943 363.05349,407.33809 372.14816,436.72881 C 390.27565,422.29153 392.63286,419.99905 395.22151,392.6502 z "
         id="path3683" />
      <path
         d="M 335.49525,302.53073 C 343.8206,310.49874 364.05136,311.4068 363.04703,342.64721 C 338.99742,326.38835 339.11475,329.1216 335.49525,302.53073 z "
         id="path3685" />
      <path
         d="M 335.4952,324.81779 C 344.41838,332.29395 366.10189,333.14595 365.02544,362.45796 C 339.24886,347.20272 339.37461,349.76725 335.4952,324.81779 z "
         id="path4592" />
      <path
         d="M 337.4764,345.1234 C 346.69851,353.18977 369.10841,354.10905 367.9959,385.73512 C 341.35581,369.27555 341.48577,372.04254 337.4764,345.1234 z "
         id="path4594" />
      <path
         d="M 337.47644,372.85827 C 347.44806,377.42154 371.59238,371.83617 369.47979,410.99368 C 349.4687,403.95724 351.58605,392.19283 337.47644,372.85827 z "
         id="path4596" />
      <path
         d="M 347.38171,397.60303 C 361.18844,404.64671 369.24018,404.11596 369.98538,435.73847 C 350.2549,420.28251 350.35117,422.88078 347.38171,397.60303 z "
         id="path4598" />
    </g>
    <path
       d="M 328.53125,413.8125 C 326.23577,414.80414 323.92028,415.88595 321.59375,417.03125 C 351.42453,536.51827 358.70623,647.25895 356.75,791.375 C 357.57507,791.43545 358.39364,791.48199 359.21875,791.53125 L 362.5625,790.84375 C 366.39567,662.18318 361.64585,536.695 328.53125,413.8125 z "
       id="path7475" />
    <g
       id="g7462">
      <path
         d="M 277.86463,294.97203 C 297.36008,311.18725 306.51307,309.85054 302.336,339.44282 C 281.96517,329.24637 280.91169,318.75716 277.86463,294.97203 z "
         id="path5503" />
      <path
         d="M 316.87974,302.50434 C 307.60725,315.41857 292.48524,323.41902 307.21292,353.09665 C 324.65156,333.36278 321.79994,331.95571 316.87974,302.50434 z "
         id="path5505" />
      <path
         d="M 324.91873,333.71206 C 311.97796,346.02072 299.03576,349.92483 312.94368,375.67936 C 323.41178,358.90733 329.07611,359.51289 324.91873,333.71206 z "
         id="path5507" />
      <path
         d="M 331.37307,350.07216 C 322.0548,362.76728 306.9126,370.67111 321.50365,399.69489 C 339.0094,380.28221 336.16613,378.91512 331.37307,350.07216 z "
         id="path5509" />
      <path
         d="M 341.38696,373.78354 C 330.19952,386.52621 312.50122,394.81288 328.1697,422.58791 C 347.59315,401.13974 336.00838,398.18722 341.38696,373.78354 z "
         id="path5511" />
      <path
         d="M 347.51941,398.28706 C 337.03494,410.53983 319.03575,419.24407 333.94971,446.15318 C 348.74095,428.31334 350.57942,425.58718 347.51941,398.28706 z "
         id="path5513" />
      <path
         d="M 270.62284,322.28931 C 280.40196,328.38599 300.39073,325.13685 305.79755,355.9222 C 278.93081,344.9262 279.60472,347.57766 270.62284,322.28931 z "
         id="path5515" />
      <path
         d="M 275.18139,344.10518 C 285.44509,349.59814 306.84444,345.99698 311.78622,374.90945 C 283.4343,365.24908 284.08195,367.73367 275.18139,344.10518 z "
         id="path5517" />
      <path
         d="M 281.27401,363.57626 C 291.95105,369.5858 314.07519,365.90192 319.45499,397.08691 C 290.01149,386.42429 290.70466,389.1062 281.27401,363.57626 z "
         id="path5519" />
      <path
         d="M 286.94694,390.72475 C 297.64111,393.15195 320.13254,382.74618 326.0739,421.50794 C 305.04665,418.71333 304.71294,406.76456 286.94694,390.72475 z "
         id="path5521" />
      <path
         d="M 301.70409,412.92033 C 316.65963,416.99107 324.43258,414.82463 331.6301,445.62616 C 309.1554,434.53264 309.78108,437.05629 301.70409,412.92033 z "
         id="path5523" />
    </g>
    <path
       d="M 263.1875,459.8125 C 262.29583,460.66837 261.3961,461.5285 260.5,462.40625 C 295.64319,531.40311 305.62085,588.40188 299.09375,646.78125 C 299.0903,646.81212 299.09721,646.84413 299.09375,646.875 C 297.98987,685.05668 292.34354,726.18824 282.78125,771.4375 C 285.25864,772.567 287.72335,773.61954 290.1875,774.65625 L 291.59375,775 C 318.53565,645.46956 315.58529,550.28818 263.1875,459.8125 z "
       id="path7338" />
    <path
       d="M 292.6875,434.8125 C 290.52301,436.39899 288.34771,438.03001 286.15625,439.75 C 326.42694,545.30197 332.30244,643.36155 327.125,786.625 L 332.40625,787.96875 C 333.16818,788.12513 333.926,788.25927 334.6875,788.40625 C 341.72908,642.52673 336.43039,540.81093 292.6875,434.8125 z "
       id="path7394" />
    <g
       id="g7381">
      <path
         d="M 220.17022,315.78913 C 241.8681,328.91195 250.71894,326.22369 251.00682,356.10795 C 229.34195,349.06714 226.73425,338.85277 220.17022,315.78913 z "
         id="path5529" />
      <path
         d="M 259.87265,317.41208 C 252.63218,331.56596 238.87411,341.73446 257.86759,368.88064 C 272.16453,346.76435 269.13479,345.7988 259.87265,317.41208 z "
         id="path5531" />
      <path
         d="M 272.48085,347.06982 C 261.5228,361.17259 249.30852,366.96521 266.90572,390.35466 C 274.75244,372.20771 280.4437,371.9608 272.48085,347.06982 z "
         id="path5533" />
      <path
         d="M 281.30542,362.28295 C 273.98696,376.227 260.1945,386.30298 278.95527,412.82305 C 293.36652,391.01432 290.35101,390.08705 281.30542,362.28295 z "
         id="path5535" />
      <path
         d="M 294.74718,384.23352 C 285.58761,398.50366 269.32485,409.33981 288.96454,434.46426 C 304.9681,410.35654 293.07235,409.16672 294.74718,384.23352 z "
         id="path5537" />
      <path
         d="M 304.46928,407.54685 C 295.93165,421.22762 279.43371,432.52159 298.19806,456.90248 C 310.16005,437.05424 311.5709,434.08415 304.46928,407.54685 z "
         id="path5539" />
      <path
         d="M 217.08806,343.88145 C 227.66781,348.44979 246.94747,342.25275 256.88994,371.88584 C 228.6826,365.02427 229.74481,367.5454 217.08806,343.88145 z "
         id="path5541" />
      <path
         d="M 224.85262,364.77225 C 235.82139,368.67127 256.44326,361.91555 265.64629,389.76619 C 236.16982,384.44702 237.18115,386.80707 224.85262,364.77225 z "
         id="path5543" />
      <path
         d="M 233.78399,383.11548 C 245.23859,387.46359 266.56477,380.51787 276.5402,410.55016 C 245.83475,404.40294 246.92056,406.95131 233.78399,383.11548 z "
         id="path5545" />
      <path
         d="M 243.44661,409.11274 C 254.38331,409.9161 275.06909,396.26899 286.73098,433.70929 C 265.52215,434.08537 263.40824,422.32033 243.44661,409.11274 z "
         id="path5547" />
      <path
         d="M 261.35216,428.85634 C 276.74786,430.64859 284.11025,427.34594 295.82576,456.72768 C 271.94667,449.11396 272.94213,451.5159 261.35216,428.85634 z "
         id="path5549" />
    </g>
    <g
       id="g7325">
      <path
         d="M 165.44713,348.62988 C 189.08544,357.80788 197.33894,353.63134 202.784,383.01673 C 180.22869,379.82363 175.89598,370.21317 165.44713,348.62988 z "
         id="path5555" />
      <path
         d="M 204.83316,343.37116 C 200.14612,358.56286 188.3511,370.95479 211.74773,394.41248 C 222.00993,370.15926 218.85896,369.73151 204.83316,343.37116 z "
         id="path5557" />
      <path
         d="M 222.37426,370.40551 C 214.01668,386.18896 202.98647,394.00414 224.35894,414.00272 C 228.95344,394.77325 234.51652,393.54707 222.37426,370.40551 z "
         id="path5559" />
      <path
         d="M 233.69376,383.86584 C 228.89366,398.86434 217.04879,411.17107 240.10806,434.05225 C 250.53598,410.08223 247.40564,409.68973 233.69376,383.86584 z "
         id="path5561" />
      <path
         d="M 250.72473,403.16488 C 244.16751,418.80256 230.02076,432.2847 253.7047,453.63944 C 265.30392,427.12996 253.38146,428.01261 250.72473,403.16488 z "
         id="path5563" />
      <path
         d="M 264.32731,424.44865 C 258.2809,439.3984 243.98158,453.3721 266.67491,474.14563 C 275.02898,452.52967 275.90564,449.36054 264.32731,424.44865 z "
         id="path5565" />
      <path
         d="M 167.26331,376.83233 C 178.47308,379.50471 196.39264,370.07088 211.30381,397.54137 C 182.33531,395.65481 183.817,397.95459 167.26331,376.83233 z "
         id="path5567" />
      <path
         d="M 178.51937,396.06808 C 189.99671,398.01401 209.14181,387.79808 223.0168,413.64061 C 193.06464,413.49247 194.46839,415.64238 178.51937,396.06808 z "
         id="path5569" />
      <path
         d="M 190.48469,412.59302 C 202.51812,414.89738 222.32414,404.37265 237.33672,432.23064 C 206.03103,431.47917 207.54067,433.80169 190.48469,412.59302 z "
         id="path5571" />
      <path
         d="M 204.49225,436.53066 C 215.40332,435.43299 233.42113,418.41821 251.37431,453.28159 C 230.5492,457.31513 226.43503,446.09203 204.49225,436.53066 z "
         id="path5573" />
      <path
         d="M 225.53874,452.88492 C 241.0126,451.99114 247.69391,447.46652 264.30806,474.38319 C 239.47285,471.00822 240.8682,473.20214 225.53874,452.88492 z "
         id="path5575" />
    </g>
    <path
       d="M 415.78125,411.15625 C 382.32131,534.97225 378.04875,662.31109 381.84375,791.5 C 384.46087,791.33161 387.06372,791.09382 389.6875,790.8125 C 387.69248,645.34481 393.05348,534.58623 422.8125,414.125 C 420.47859,413.07606 418.14429,412.06103 415.78125,411.15625 z "
       id="path7587" />
    <g
       id="g7574">
      <path
         d="M 465.58717,294.97203 C 446.09172,311.18725 436.93873,309.85054 441.1158,339.44282 C 461.48663,329.24637 462.54011,318.75716 465.58717,294.97203 z "
         id="path5581" />
      <path
         d="M 426.57206,302.50434 C 435.84455,315.41857 450.96656,323.41902 436.23888,353.09665 C 418.80024,333.36278 421.65186,331.95571 426.57206,302.50434 z "
         id="path5583" />
      <path
         d="M 418.53307,333.71206 C 431.47384,346.02072 444.41604,349.92483 430.50812,375.67936 C 420.04002,358.90733 414.37569,359.51289 418.53307,333.71206 z "
         id="path5585" />
      <path
         d="M 412.07873,350.07216 C 421.397,362.76728 436.5392,370.67111 421.94815,399.69489 C 404.4424,380.28221 407.28567,378.91512 412.07873,350.07216 z "
         id="path5587" />
      <path
         d="M 402.06484,373.78354 C 413.25228,386.52621 430.95058,394.81288 415.2821,422.58791 C 395.85865,401.13974 407.44342,398.18722 402.06484,373.78354 z "
         id="path5589" />
      <path
         d="M 395.93239,398.28706 C 406.41686,410.53983 424.41605,419.24407 409.50209,446.15318 C 394.71085,428.31334 392.87238,425.58718 395.93239,398.28706 z "
         id="path5591" />
      <path
         d="M 472.82896,322.28931 C 463.04984,328.38599 443.06107,325.13685 437.65425,355.9222 C 464.52099,344.9262 463.84708,347.57766 472.82896,322.28931 z "
         id="path5593" />
      <path
         d="M 468.27041,344.10518 C 458.00671,349.59814 436.60736,345.99698 431.66558,374.90945 C 460.0175,365.24908 459.36985,367.73367 468.27041,344.10518 z "
         id="path5595" />
      <path
         d="M 462.17779,363.57626 C 451.50075,369.5858 429.37661,365.90192 423.99681,397.08691 C 453.44031,386.42429 452.74714,389.1062 462.17779,363.57626 z "
         id="path5597" />
      <path
         d="M 456.50486,390.72475 C 445.81069,393.15195 423.31926,382.74618 417.3779,421.50794 C 438.40515,418.71333 438.73886,406.76456 456.50486,390.72475 z "
         id="path5599" />
      <path
         d="M 441.74771,412.92033 C 426.79217,416.99107 419.01922,414.82463 411.8217,445.62616 C 434.2964,434.53264 433.67072,437.05629 441.74771,412.92033 z "
         id="path5601" />
    </g>
    <path
       d="M 451.3125,430.65625 C 405.02534,537.21572 399.16469,639.32471 410.59375,787.375 C 414.08536,786.60877 417.6102,785.74568 421.125,784.78125 C 408.51577,635.0352 414.15429,538.9 457.03125,434.84375 C 455.13015,433.40454 453.23004,432.01409 451.3125,430.65625 z "
       id="path7643" />
    <g
       id="g7630">
      <path
         d="M 523.28158,315.78913 C 501.5837,328.91195 492.73286,326.22369 492.44498,356.10795 C 514.10985,349.06714 516.71755,338.85277 523.28158,315.78913 z "
         id="path5607" />
      <path
         d="M 483.57915,317.41208 C 490.81962,331.56596 504.57769,341.73446 485.58421,368.88064 C 471.28727,346.76435 474.31701,345.7988 483.57915,317.41208 z "
         id="path5609" />
      <path
         d="M 470.97095,347.06982 C 481.929,361.17259 494.14328,366.96521 476.54608,390.35466 C 468.69936,372.20771 463.0081,371.9608 470.97095,347.06982 z "
         id="path5611" />
      <path
         d="M 462.14638,362.28295 C 469.46484,376.227 483.2573,386.30298 464.49653,412.82305 C 450.08528,391.01432 453.10079,390.08705 462.14638,362.28295 z "
         id="path5613" />
      <path
         d="M 448.70462,384.23352 C 457.86419,398.50366 474.12695,409.33981 454.48726,434.46426 C 438.4837,410.35654 450.37945,409.16672 448.70462,384.23352 z "
         id="path5615" />
      <path
         d="M 438.98252,407.54685 C 447.52015,421.22762 464.01809,432.52159 445.25374,456.90248 C 433.29175,437.05424 431.8809,434.08415 438.98252,407.54685 z "
         id="path5617" />
      <path
         d="M 526.36374,343.88145 C 515.78399,348.44979 496.50433,342.25275 486.56186,371.88584 C 514.7692,365.02427 513.70699,367.5454 526.36374,343.88145 z "
         id="path5619" />
      <path
         d="M 518.59918,364.77225 C 507.63041,368.67127 487.00854,361.91555 477.80551,389.76619 C 507.28198,384.44702 506.27065,386.80707 518.59918,364.77225 z "
         id="path5621" />
      <path
         d="M 509.66781,383.11548 C 498.21321,387.46359 476.88703,380.51787 466.9116,410.55016 C 497.61705,404.40294 496.53124,406.95131 509.66781,383.11548 z "
         id="path5623" />
      <path
         d="M 500.00519,409.11274 C 489.06849,409.9161 468.38271,396.26899 456.72082,433.70929 C 477.92965,434.08537 480.04356,422.32033 500.00519,409.11274 z "
         id="path5625" />
      <path
         d="M 482.09964,428.85634 C 466.70394,430.64859 459.34155,427.34594 447.62604,456.72768 C 471.50513,449.11396 470.50967,451.5159 482.09964,428.85634 z "
         id="path5627" />
    </g>
    <path
       d="M 483,457.1875 C 428.8682,553.9459 433.90005,655.46768 456.78125,771.8125 C 459.5598,770.56133 462.35404,769.24468 465.15625,767.875 C 455.36151,717.61935 449.0005,671.41078 449.03125,627.5 C 449.0313,627.42722 449.03116,627.35402 449.03125,627.28125 C 446.02887,576.29757 456.12425,524.37163 488.34375,462.40625 C 486.57222,460.64393 484.78241,458.89595 483,457.1875 z "
       id="path7699" />
    <g
       id="g7686">
      <path
         d="M 578.00447,348.62988 C 554.36616,357.80788 546.11266,353.63134 540.6676,383.01673 C 563.22291,379.82363 567.55562,370.21317 578.00447,348.62988 z "
         id="path5633" />
      <path
         d="M 538.61844,343.37116 C 543.30548,358.56286 555.1005,370.95479 531.70387,394.41248 C 521.44167,370.15926 524.59264,369.73151 538.61844,343.37116 z "
         id="path5635" />
      <path
         d="M 521.07734,370.40551 C 529.43492,386.18896 540.46513,394.00414 519.09266,414.00272 C 514.49816,394.77325 508.93508,393.54707 521.07734,370.40551 z "
         id="path5637" />
      <path
         d="M 509.75784,383.86584 C 514.55794,398.86434 526.40281,411.17107 503.34354,434.05225 C 492.91562,410.08223 496.04596,409.68973 509.75784,383.86584 z "
         id="path5639" />
      <path
         d="M 492.72687,403.16488 C 499.28409,418.80256 513.43084,432.2847 489.7469,453.63944 C 478.14768,427.12996 490.07014,428.01261 492.72687,403.16488 z "
         id="path5641" />
      <path
         d="M 479.12429,424.44865 C 485.1707,439.3984 499.47002,453.3721 476.77669,474.14563 C 468.42262,452.52967 467.54596,449.36054 479.12429,424.44865 z "
         id="path5643" />
      <path
         d="M 576.18829,376.83233 C 564.97852,379.50471 547.05896,370.07088 532.14779,397.54137 C 561.11629,395.65481 559.6346,397.95459 576.18829,376.83233 z "
         id="path5645" />
      <path
         d="M 564.93223,396.06808 C 553.45489,398.01401 534.30979,387.79808 520.4348,413.64061 C 550.38696,413.49247 548.98321,415.64238 564.93223,396.06808 z "
         id="path5647" />
      <path
         d="M 552.96691,412.59302 C 540.93348,414.89738 521.12746,404.37265 506.11488,432.23064 C 537.42057,431.47917 535.91093,433.80169 552.96691,412.59302 z "
         id="path5649" />
      <path
         d="M 538.95935,436.53066 C 528.04828,435.43299 510.03047,418.41821 492.07729,453.28159 C 512.9024,457.31513 517.01657,446.09203 538.95935,436.53066 z "
         id="path5651" />
      <path
         d="M 517.91286,452.88492 C 502.439,451.99114 495.75769,447.46652 479.14354,474.38319 C 503.97875,471.00822 502.5834,473.20214 517.91286,452.88492 z "
         id="path5653" />
    </g>
    <g
       id="g8124">
      <rect
         width="182.25757"
         height="32.6875"
         rx="15.848485"
         ry="16.34375"
         x="280.32007"
         y="590.77502"
         id="rect7704" />
      <path
         d="M 303.34375,590.78125 L 286.3125,619.9375 C 289.01388,622.1448 292.42649,623.46875 296.15625,623.46875 L 306.46875,623.46875 L 325.5625,590.78125 L 303.34375,590.78125 z M 347.96875,590.78125 L 328.875,623.46875 L 351.0625,623.46875 L 370.15625,590.78125 L 347.96875,590.78125 z M 392.59375,590.78125 L 373.5,623.46875 L 395.6875,623.46875 L 414.78125,590.78125 L 392.59375,590.78125 z M 437.1875,590.78125 L 418.09375,623.46875 L 440.3125,623.46875 L 457.0625,594.75 C 454.28852,592.28387 450.68535,590.78125 446.71875,590.78125 L 437.1875,590.78125 z "
         id="rect7758" />
    </g>
  </g>
  <use
     transform="translate(141.7302,159.7574)"
     id="Garb-4"
     x="0"
     y="0"
     width="251"
     height="304.20001"
     xlink:href="#Garb" />
  <path
     d="M 249.55062,1.4395041 L 125.50012,1.4395041 L 1.449569,1.4395041 L 1.449569,174.9361 C 0.68232904,268.65698 81.739009,302.75585 125.5001,302.75585 C 168.49395,302.75585 250.31785,268.65698 249.55062,174.9361 L 249.55062,1.4395041 z "
     style="color:#000000;fill:none;fill-opacity:0;fill-rule:nonzero;stroke:#000000;stroke-width:1.88832211;stroke-linecap:round;stroke-linejoin:bevel;marker:none;marker-start:none;marker-mid:none;marker-end:none;stroke-miterlimit:4;stroke-dashoffset:0;stroke-opacity:1;visibility:visible;display:block"
     id="Frame" />
  <g
     transform="matrix(0.314751,0,0,0.314751,131.8316,-22.04515)"
     style="fill:#ffcd50;fill-rule:evenodd;stroke:#003d8f;stroke-width:2;stroke-linecap:round"
     id="Goose">
    <g
       id="goose_right_foot">
      <path
         d="M 152.37276,365.73793 C 144.87018,362.71669 139.37816,367.43279 135.04827,366.96282 C 133.74736,367.23706 134.38047,365.7427 134.61388,365.20599 C 136.81393,364.50705 142.19276,363.69101 153.63862,361.60803 L 152.37276,365.73793 z "
         id="path1952" />
      <path
         d="M 144.26763,368.18135 C 146.14189,361.6438 134.47678,366.82875 133.66321,363.46758 L 175.53939,355.84672 L 169.7112,359.86069 C 166.49048,365.74947 155.95371,366.3237 144.26763,368.18135 z "
         id="path1954" />
      <path
         d="M 185.68879,348.78855 L 171.90463,351.00242 C 167.02569,350.4137 164.17038,351.52974 160.79379,352.58627 C 157.60922,351.43493 145.21197,359.79685 136.3519,361.41544 C 134.31617,361.78733 130.96477,363.75893 131.94732,364.5685 C 135.18995,366.55129 157.65927,358.32556 163.93753,358.71408 C 162.07647,359.76684 159.36782,364.41151 155.99439,365.52938 C 151.82982,366.90942 149.00384,365.19259 145.28578,367.97542 C 140.17137,369.51004 146.44372,368.85777 148.58898,369.21722 C 149.70475,368.87653 151.37115,370.78926 156.99012,368.79185 C 162.61245,366.47876 165.79723,366.23086 168.55753,362.30188 C 174.01289,355.57052 176.95667,355.0178 176.03901,360.37399 C 177.02859,362.87826 179.11061,362.57098 178.92436,359.72233 C 178.70694,356.39689 178.87325,354.98329 182.25295,355.46508 C 187.94932,355.64578 210.08467,361.86807 211.34024,354.85668 L 210.46754,348.60323 L 185.68879,348.78855 z "
         id="path1956" />
    </g>
    <path
       d="M 122.09617,97.227238 C 114.70919,97.386848 107.35367,101.41914 105.3768,106.20476 C 106.68862,108.96334 110.06097,109.91194 109.43686,114.17358 C 107.52521,118.88505 108.51143,120.75085 109.03337,124.53808 C 114.239,128.19222 121.8892,132.23994 126.25711,130.86774 C 130.78674,136.25105 136.97532,154.88745 140.12688,168.36655 C 144.45487,186.87724 142.23336,205.93958 142.87561,223.99695 C 137.87833,238.87462 131.55989,254.03708 134.30157,267.19498 C 140.38902,281.05172 152.59254,289.01926 156.74538,300.40678 C 162.82187,317.06907 173.97793,331.45528 188.36846,347.58921 C 189.28125,348.61259 191.22112,348.0867 191.36938,349.53098 C 193.18953,367.26228 207.03632,353.95506 222.41245,357.85285 C 254.8896,364.9109 273.17619,351.82145 295.19092,330.66809 C 300.48674,326.79548 311.17687,323.57176 326.5366,320.70708 C 331.65949,319.75163 337.91954,320.09393 343.4325,317.95834 C 344.52507,317.53511 344.46095,316.23528 343.7099,316.09223 C 330.3178,313.54142 331.83894,315.13315 319.5765,310.41823 C 309.9955,309.12378 300.09491,309.76102 290.42476,309.18256 C 308.66231,309.0077 308.99798,306.68977 324.16613,301.59201 C 326.34422,300.74021 325.18039,299.78619 324.267,299.52415 C 298.67665,292.1826 291.28489,287.04262 271.66274,271.68374 C 258.53265,260.0631 248.54091,243.72088 232.12129,237.03453 L 204.00348,230.52835 C 178.1896,223.1649 178.75806,205.23212 174.24651,189.34774 C 174.24651,189.34774 163.43333,135.06476 149.3818,112.73616 C 144.56704,105.08526 137.38993,96.896778 122.09617,97.227238 z "
       id="path24209" />
    <g
       id="goose_face">
      <path
         d="M 79.42316,118.32981 C 80.68011,115.76758 83.89438,115.24004 85.52895,114.69547 C 93.60442,112.00504 96.16006,103.51112 109.14792,102.15535 C 112.42897,105.83081 110.556,112.45731 112.05417,115.24133 C 111.45753,122.20358 111.02924,120.86671 110.4326,123.74743 C 102.7085,125.23726 89.38307,121.25586 81.75727,120.53188 C 80.27308,120.39098 79.18187,118.82167 79.42316,118.32981 z "
         id="path24213" />
      <path
         d="M 81.03995,120.27755 C 89.68293,119.38423 104.88758,121.20249 109.92757,119.11321"
         id="path24215" />
      <path
         d="M 136.32592,126.16975 C 140.20615,125.49161 143.53424,123.89324 144.74304,118.76269"
         id="path24217" />
      <path
         d="M 99.135962,111.4927 C 98.471311,112.6386 101.67363,112.98836 101.36175,111.78007 C 102.55237,110.40606 98.840983,110.63203 99.135962,111.4927 z "
         id="path24219" />
      <path
         d="M 116.39556,104.74485 C 114.46619,105.16123 113.82259,106.0062 113.48471,106.95308 C 114.27244,108.30374 115.58775,108.07165 116.89743,107.85645 C 118.46572,107.5532 118.86867,106.66729 119.4068,105.84896 C 119.18209,105.16931 117.9502,104.89253 116.39556,104.74485 z "
         id="path24221" />
    </g>
    <g
       id="wing">
      <path
         d="M 323.51532,317.50879 C 329.58773,321.22821 347.98109,317.92607 356.25013,314.79902 C 359.06666,313.73391 358.63292,311.36562 356.69748,311.76566 C 352.02306,312.73182 338.83407,312.86124 329.80384,311.1914"
         id="path24225" />
      <path
         d="M 321.16579,321.90987 C 326.21198,326.93423 344.67857,326.45783 353.63846,326.85318 C 356.64673,326.98593 356.67278,324.56096 354.776,324.00583 C 350.21131,322.66988 337.37132,319.62307 328.74615,317.22021"
         id="path24227" />
      <path
         d="M 154.67453,265.15303 C 156.32576,271.78983 168.10362,284.85176 171.50877,289.39432"
         id="path24229" />
      <path
         d="M 185.31284,273.23346 C 192.37695,286.11273 201.14783,296.1474 210.90087,304.54513 C 225.90159,315.12113 241.43187,316.69428 256.85833,320.03262 C 264.51213,320.85119 271.06895,321.88967 275.86912,321.63813 C 279.29674,321.50619 277.80657,320.21097 277.73278,320.20097 C 257.95081,315.69377 241.21093,305.96083 226.22002,294.27625 C 240.70093,303.29455 253.82236,314.2161 272.51416,317.33915 C 278.23567,318.66672 285.09349,319.42308 290.815,318.91042 C 292.61562,318.77805 291.85302,318.05176 291.87353,318.01252 C 286.39779,315.85337 281.80967,314.80375 274.70261,310.60545 L 246.75778,291.75111 C 259.19991,299.19872 270.44637,309.83479 284.12979,313.9723 C 292.29651,317.17047 297.73884,315.4141 303.12171,314.23764 C 305.11027,313.88899 304.70632,313.07763 304.4992,313.13059 C 288.43955,306.30436 273.44269,296.73336 259.72014,286.02748 C 278.01162,301.06353 305.86246,316.0478 330.31622,313.78631 C 330.65481,313.31079 330.15005,313.11994 330.7377,313.04518 C 310.53204,307.88111 293.31843,297.62546 279.4197,288.75334 C 299.56779,299.11214 308.4866,311.62766 340.27037,310.42523 C 340.89389,310.40165 341.18978,309.99428 340.90577,309.53972 C 320.548,301.49906 295.7157,292.63573 291.58409,285.88802"
         id="path24231" />
    </g>
    <g
       id="goose_left_leg">
      <path
         d="M 227.78641,407.89392 C 233.56769,402.7629 218.17326,399.49201 217.35969,396.13085 C 220.83656,394.20617 225.6597,390.25031 224.15372,384.54394 L 259.23588,388.50999 L 254.76582,398.12628 L 227.78641,407.89392 z "
         id="path24241" />
      <path
         d="M 252.57834,352.93096 L 255.60111,383.66568 C 253.75333,389.70175 235.78269,384.17795 223.64528,384.23126 C 222.32942,384.23704 221.35914,385.22638 223.3431,385.91784 C 225.35338,386.61849 239.50693,389.63271 243.03197,389.15645 C 246.58895,388.67588 248.96067,389.40455 251.62049,390.17278 C 250.42858,391.15666 226.64946,394.10025 220.04839,394.07871 C 217.97897,394.07195 214.66125,396.4222 215.6438,397.23177 C 218.88643,399.03135 244.39252,393.53225 250.67079,395.59455 C 247.20837,398.10691 241.75762,402.57676 229.25199,406.16008 C 224.13758,407.6947 227.21133,409.39219 229.35659,409.75164 C 230.47236,409.41095 236.52811,407.11759 242.14708,405.12018 C 247.61313,404.21361 251.28808,400.70525 255.14235,400.05816 C 257.6664,399.6344 259.18974,397.86392 261.34471,397.36038 C 262.75361,396.6889 263.10086,393.45401 264.44326,392.26014 C 265.5601,391.26688 267.78382,392.31346 268.01837,391.63073 C 268.5917,389.96193 265.94684,389.81719 265.79316,389.22232 C 262.11267,386.2774 264.25517,361.33236 265.51074,354.32098 L 261.56875,352.4061 L 252.57834,352.93096 z "
         id="path24243" />
      <path
         d="M 255.5532,383.90791 C 255.67869,386.30787 255.97667,388.53532 255.47097,391.56646"
         id="path24245" />
      <path
         d="M 248.34224,353.37006 C 249.3222,353.77016 253.0488,355.65115 253.96575,355.88324 C 258.54289,357.04172 262.39873,356.27672 266.16906,355.28371 C 270.47274,352.45715 270.99108,348.11646 270.78548,343.48619"
         id="path24247" />
    </g>
  </g>
  <use
     transform="translate(-146.0981,157.8337)"
     id="Goose-2"
     x="0"
     y="0"
     width="251"
     height="304.20001"
     xlink:href="#Goose" />
</svg>
