<?xml version="1.0" encoding="UTF-8" standalone="no"?>
<!-- Created with Inkscape (http://www.inkscape.org/) -->
<svg
   xmlns:dc="http://purl.org/dc/elements/1.1/"
   xmlns:cc="http://web.resource.org/cc/"
   xmlns:rdf="http://www.w3.org/1999/02/22-rdf-syntax-ns#"
   xmlns:svg="http://www.w3.org/2000/svg"
   xmlns="http://www.w3.org/2000/svg"
   xmlns:xlink="http://www.w3.org/1999/xlink"
   version="1.0"
   width="251"
   height="304.20001"
   id="svg4166">
  <defs
     id="defs4168">
  <metadata
     id="metadata1880"><rdf:RDF><cc:Work
         rdf:about=""><dc:title>Gotene kommunvapen</dc:title><dc:date>18-05-2007</dc:date><dc:creator><cc:Agent><dc:title>Lokal_Profil</dc:title></cc:Agent></dc:creator><cc:license
         rdf:resource="http://creativecommons.org/licenses/by-sa/2.5/" /><dc:rights><cc:Agent><dc:title>cc-by-sa-2.5</dc:title></cc:Agent></dc:rights><dc:format>image/svg+xml</dc:format><dc:type
         rdf:resource="http://purl.org/dc/dcmitype/StillImage" /></cc:Work><cc:License
         rdf:about="http://creativecommons.org/licenses/by-sa/2.5/"><cc:permits
         rdf:resource="http://web.resource.org/cc/Reproduction" /><cc:permits
         rdf:resource="http://web.resource.org/cc/Distribution" /><cc:requires
         rdf:resource="http://web.resource.org/cc/Notice" /><cc:requires
         rdf:resource="http://web.resource.org/cc/Attribution" /><cc:permits
         rdf:resource="http://web.resource.org/cc/DerivativeWorks" /><cc:requires
         rdf:resource="http://web.resource.org/cc/ShareAlike" /></cc:License></rdf:RDF>
  </metadata>
    <clipPath
       id="clipPath2388">
      <path
         d="M 163.53111,78.878059 C 163.53111,122.56499 128.11586,157.98024 84.428927,157.98024 C 40.741998,157.98024 5.3267441,122.56499 5.3267441,78.878059 C 5.3267441,35.19113 40.741998,-0.22412395 84.428927,-0.22412395 C 128.11586,-0.22412395 163.53111,35.19113 163.53111,78.878059 z "
         transform="matrix(0.910519,0,0,0.910519,30.1499,-17.69355)"
         style="opacity:0.79999994;fill:#eeeeee;fill-opacity:1;fill-rule:nonzero;stroke:none;stroke-width:0.69999999;stroke-linecap:butt;stroke-miterlimit:4;stroke-dasharray:none;stroke-opacity:1"
         id="path2001" />
    </clipPath>
  </defs>
  <path
     d="M 249.55058,1.4395041 L 125.50008,1.4395041 L 1.4495291,1.4395041 L 1.4495291,174.9361 C 0.68228908,268.65698 81.738969,302.75585 125.50006,302.75585 C 168.49391,302.75585 250.31781,268.65698 249.55058,174.9361 L 249.55058,1.4395041 z "
     style="color:#000000;fill:#d40000;fill-opacity:1;fill-rule:nonzero;stroke:none;stroke-width:1.88832211;stroke-linecap:round;stroke-linejoin:bevel;marker:none;marker-start:none;marker-mid:none;marker-end:none;stroke-miterlimit:4;stroke-dashoffset:0;stroke-opacity:1;visibility:visible;display:block"
     id="Shield" />
  <g
     transform="matrix(0.624791,0,0,-0.624791,58.63231,275.0146)"
     clip-path="url(#clipPath2388)"
     id="Bezant_fountain">
    <path
       d="M 36.454593,106 C 25.715344,106 23.715114,118.61369 12.975862,118.61369 C 8.5226999,118.61369 2.9894524,114.92528 0,113.27936 L 0,138.67789 C 2.9894524,140.32381 8.5226999,142 12.975862,142 C 23.715114,142 25.715344,129.39852 36.454593,129.39852 C 47.193842,129.39852 49.194071,142.00001 59.933327,142 C 70.672575,142 72.672808,129.39852 83.412059,129.39852 C 94.151308,129.39852 96.151541,142.00001 106.89079,142 C 117.63005,142 119.63027,129.39852 130.36953,129.39852 C 141.10879,129.39852 143.10901,142.00001 153.84825,142 C 164.5875,142 166.58776,129.39852 177.32699,129.39852 C 188.06625,129.39852 190.06647,142.00001 200.80573,142 C 206.51096,142 211.18464,138.82737 214.04841,136.24736 L 214.04841,112.84883 C 211.18464,115.42883 206.51096,118.61369 200.80573,118.61369 C 190.06647,118.61369 188.06625,106 177.32699,106 C 166.58776,106 164.5875,118.61369 153.84825,118.61369 C 143.10901,118.61369 141.10877,106 130.36953,106 C 119.63028,106 117.63005,118.61369 106.89079,118.61369 C 96.151541,118.61369 94.151311,106 83.412059,106 C 72.672805,106 70.672575,118.61369 59.933327,118.61369 C 49.194071,118.61369 47.193842,106 36.454593,106 z "
       style="fill:#003d8f;fill-opacity:1;fill-rule:evenodd;stroke:none;stroke-width:1.05100191px;stroke-linecap:butt;stroke-linejoin:miter;stroke-opacity:1"
       id="path4127" />
    <use
       transform="translate(0,-46)"
       id="use1987"
       x="0"
       y="0"
       width="142"
       height="142"
       xlink:href="#path4127" />
    <use
       transform="translate(0,-92)"
       id="use1989"
       x="0"
       y="0"
       width="142"
       height="142"
       xlink:href="#path4127" />
    <use
       transform="translate(0,-138)"
       id="use1991"
       x="0"
       y="0"
       width="142"
       height="142"
       xlink:href="#path4127" />
    <path
       d="M 36.454593,83 C 25.715344,83 23.715114,95.61369 12.975862,95.61369 C 8.5226999,95.61369 2.9894524,91.92528 0,90.27936 L 0,115.67789 C 2.9894524,117.32381 8.5226999,119 12.975862,119 C 23.715114,119 25.715344,106.39852 36.454593,106.39852 C 47.193842,106.39852 49.194071,119.00001 59.933327,119 C 70.672575,119 72.672808,106.39852 83.412059,106.39852 C 94.151308,106.39852 96.151541,119.00001 106.89079,119 C 117.63005,119 119.63027,106.39852 130.36953,106.39852 C 141.10879,106.39852 143.10901,119.00001 153.84825,119 C 164.5875,119 166.58776,106.39852 177.32699,106.39852 C 188.06625,106.39852 190.06647,119.00001 200.80573,119 C 206.51096,119 211.18464,115.82737 214.04841,113.24736 L 214.04841,87.84883 C 211.18464,90.42883 206.51096,95.61369 200.80573,95.61369 C 190.06647,95.61369 188.06625,83 177.32699,83 C 166.58776,83 164.5875,95.61369 153.84825,95.61369 C 143.10901,95.61369 141.10877,83 130.36953,83 C 119.63028,83 117.63005,95.61369 106.89079,95.61369 C 96.151541,95.61369 94.151311,83 83.412059,83 C 72.672805,83 70.672575,95.61369 59.933327,95.61369 C 49.194071,95.61369 47.193842,83 36.454593,83 z "
       style="fill:#eeeeee;fill-opacity:1;fill-rule:evenodd;stroke:none;stroke-width:1.05100191px;stroke-linecap:butt;stroke-linejoin:miter;stroke-opacity:1"
       id="use1993" />
    <use
       transform="translate(0,-46)"
       id="use1997"
       x="0"
       y="0"
       width="142"
       height="142"
       xlink:href="#use1993" />
    <use
       transform="translate(0,-92)"
       id="use1999"
       x="0"
       y="0"
       width="142"
       height="142"
       xlink:href="#use1993" />
  </g>
  <g
     transform="matrix(0.389527,0,0,-0.389527,97.73351,331.1269)"
     id="Sword">
    <path
       d="M 254.81293,227.21933 C 265.02722,185.61219 277.95578,185.61219 287.67007,227.21933 C 297.38436,268.82647 300.38436,320.04076 289.67007,361.6479 C 278.95578,403.25504 261.52722,403.25504 250.81293,361.6479 C 240.09864,320.04076 244.59864,268.82647 254.81293,227.21933 z "
       style="fill:#eeeeee;fill-opacity:1;fill-rule:nonzero;stroke:none;stroke-width:5;stroke-miterlimit:4;stroke-dasharray:none;stroke-opacity:1"
       id="path2198" />
    <g
       transform="translate(5.076465,0)"
       id="g4551">
      <path
         d="M 244.45691,371.58029 L 285.87317,371.58029 L 279.87317,757.43822 L 265.16504,790.79361 L 250.45691,757.43822 L 244.45691,371.58029 z "
         style="fill:#eeeeee;fill-opacity:1;fill-rule:nonzero;stroke:none;stroke-width:5;stroke-miterlimit:4;stroke-opacity:1"
         id="path2201" />
      <path
         d="M 263.15625,375.0625 L 264.65179,742.09375 L 269.15625,375.0625 L 263.15625,375.0625 z "
         style="fill:#d40000;fill-opacity:1;fill-rule:evenodd;stroke:none;stroke-width:4;stroke-linecap:butt;stroke-linejoin:miter;stroke-miterlimit:4;stroke-dasharray:none;stroke-opacity:1"
         id="path2203" />
    </g>
    <rect
       width="161.86885"
       height="21.377804"
       x="189.3071"
       y="358.07336"
       style="fill:#eeeeee;fill-opacity:1;fill-rule:nonzero;stroke:#d40000;stroke-width:5;stroke-miterlimit:4;stroke-dasharray:none;stroke-opacity:1"
       id="rect2206" />
    <g
       transform="translate(0,4)"
       style="fill:#003d8f;fill-opacity:1"
       id="g2208">
      <path
         d="M 317.69297,37.924389 C 317.6989,53.828496 304.80773,66.724467 288.90363,66.724467 C 272.99952,66.724467 260.10835,53.828496 260.11428,37.924389 C 260.10835,22.020282 272.99952,9.1243109 288.90363,9.1243109 C 304.80773,9.1243109 317.6989,22.020282 317.69297,37.924389 L 317.69297,37.924389 z "
         transform="translate(-18.66212,191.199)"
         style="fill:#eeeeee;fill-opacity:1;fill-rule:nonzero;stroke:#d40000;stroke-width:5;stroke-miterlimit:4;stroke-dasharray:none;stroke-opacity:1"
         id="path2210" />
      <path
         d="M 161.6244,35.904083 C 161.62734,43.716645 155.29483,50.051537 147.48226,50.051537 C 139.6697,50.051537 133.33719,43.716645 133.34013,35.904083 C 133.33719,28.091521 139.6697,21.756629 147.48226,21.756629 C 155.29483,21.756629 161.62734,28.091521 161.6244,35.904083 L 161.6244,35.904083 z "
         transform="matrix(0.859198,0,0,0.859198,143.525,198.2747)"
         style="fill:#eeeeee;fill-opacity:1;fill-rule:nonzero;stroke:#d40000;stroke-width:4.65550423;stroke-miterlimit:4;stroke-dasharray:none;stroke-opacity:1"
         id="path2212" />
    </g>
  </g>
  <use
     transform="translate(-154.9999,-8.784179e-7)"
     id="Sword2"
     x="0"
     y="0"
     width="251"
     height="304.20001"
     xlink:href="#Sword" />
  <path
     d="M 65.818646,70.812183 L 113.56373,70.812183 L 113.56373,23.067095 L 137.43627,23.067095 L 137.43627,70.812183 L 185.18136,70.812183 L 185.18136,94.684722 L 137.43627,94.684722 L 137.43627,190.17489 L 113.56373,190.17489 L 113.56373,94.684722 L 65.818646,94.684722 L 65.818646,70.812183 z "
     style="fill:#eeeeee;fill-opacity:1;stroke:none;stroke-width:1.89895213;stroke-opacity:1"
     id="Christian-cross" />
  <path
     d="M 249.55062,1.4395041 L 125.50012,1.4395041 L 1.449569,1.4395041 L 1.449569,174.9361 C 0.68232904,268.65698 81.739009,302.75585 125.5001,302.75585 C 168.49395,302.75585 250.31785,268.65698 249.55062,174.9361 L 249.55062,1.4395041 z "
     style="color:#000000;fill:none;fill-opacity:0;fill-rule:nonzero;stroke:#000000;stroke-width:1.88832211;stroke-linecap:round;stroke-linejoin:bevel;marker:none;marker-start:none;marker-mid:none;marker-end:none;stroke-miterlimit:4;stroke-dashoffset:0;stroke-opacity:1;visibility:visible;display:block"
     id="Frame" />
</svg>
