<?xml version="1.0" encoding="UTF-8" standalone="no"?>
<svg
   xmlns:dc="http://purl.org/dc/elements/1.1/"
   xmlns:cc="http://creativecommons.org/ns#"
   xmlns:rdf="http://www.w3.org/1999/02/22-rdf-syntax-ns#"
   xmlns:svg="http://www.w3.org/2000/svg"
   xmlns="http://www.w3.org/2000/svg"
   id="svg4166"
   height="304.20001"
   width="251"
   version="1.0">
  <metadata
     id="metadata1880"><rdf:RDF><cc:Work
         rdf:about=""><dc:title>Mölndals kommunvapen, sedan 2016</dc:title><dc:date>2017-12-08</dc:date><dc:creator><cc:Agent><dc:title>Lokal_Profil</dc:title></cc:Agent></dc:creator><cc:license
         rdf:resource="http://creativecommons.org/licenses/by-sa/2.5/" /><dc:rights><cc:Agent><dc:title>cc-by-sa-2.5</dc:title></cc:Agent></dc:rights><dc:format>image/svg+xml</dc:format><dc:type
         rdf:resource="http://purl.org/dc/dcmitype/StillImage" /></cc:Work><cc:License
         rdf:about="http://creativecommons.org/licenses/by-sa/2.5/"><cc:permits
         rdf:resource="http://web.resource.org/cc/Reproduction" /><cc:permits
         rdf:resource="http://web.resource.org/cc/Distribution" /><cc:requires
         rdf:resource="http://web.resource.org/cc/Notice" /><cc:requires
         rdf:resource="http://web.resource.org/cc/Attribution" /><cc:permits
         rdf:resource="http://web.resource.org/cc/DerivativeWorks" /><cc:requires
         rdf:resource="http://web.resource.org/cc/ShareAlike" /></cc:License></rdf:RDF>
  </metadata>
  <defs
     id="defs4168" />
  <path
     d="m 1.4495603,1.4395041 124.0504997,0 124.05055,0 0,173.4965959 c 0.76724,93.72088 -80.28944,127.81975 -124.05053,127.81975 -42.993854,0 -124.81774912,-34.09887 -124.0505197,-127.81975 l 0,-173.4965959 z"
     style="fill:#d40000;stroke:none"
     id="Shield" />
  <path
     d="m 125.50011,20.482562 c -42.959679,0 -77.825536,34.865842 -77.825536,77.825533 0,42.959685 34.86584,77.825525 77.825536,77.825525 42.95968,0 77.82554,-34.86584 77.82554,-77.825525 0,-42.959691 -34.86586,-77.825533 -77.82554,-77.825533 z m 0,19.456376 c 3.44657,0 6.83424,0.301674 10.11733,0.875541 l 0,30.254671 -20.23465,0 0,-30.254671 c 3.28307,-0.573867 6.67076,-0.875541 10.11732,-0.875541 z m -27.238944,6.761099 0,24.369113 -24.369118,0 C 79.380179,60.697722 87.889761,52.188172 98.261166,46.700037 Z m 54.477884,0 c 10.37141,5.488135 18.881,13.997685 24.36911,24.369113 l -24.36911,0 0,-24.369113 z m -84.732559,41.490735 30.254675,0 0,20.234638 -30.254675,0 c -0.573855,-3.28307 -0.875531,-6.67075 -0.875531,-10.117315 0,-3.446584 0.301676,-6.834254 0.875531,-10.117323 z m 47.376299,0 20.23465,0 0,20.234638 -20.23465,0 0,-20.234638 z m 37.35626,0 30.25466,0 c 0.57387,3.283069 0.87554,6.670739 0.87554,10.117323 0,3.446565 -0.30167,6.834245 -0.87554,10.117315 l -30.25466,0 0,-20.234638 z m -78.847002,37.356258 24.369118,0 0,24.3691 C 87.889761,144.42801 79.380179,135.91846 73.892048,125.54703 Z m 41.490742,0 20.23465,0 0,30.25466 c -3.28309,0.57387 -6.67076,0.87555 -10.11733,0.87555 -3.44656,0 -6.83425,-0.30168 -10.11732,-0.87555 l 0,-30.25466 z m 37.35626,0 24.36911,0 c -5.48811,10.37143 -13.9977,18.88098 -24.36911,24.3691 l 0,-24.3691 z"
     style="fill:#eeeeee;stroke:none"
     id="Kvarnhjul" />
  <path
     style="fill:#eeeeee;stroke:#d40000;stroke-width:1.5"
     d="m 249.11133,127.36719 c -129.6386,0 -128.71518,27.92412 -247.6621112,27.99609 l 0,19.57227 c -0.1089749,13.31181 1.4525711,25.41721 4.328125,36.39648 C 120.32183,210.58269 121.09121,183.36719 249.11133,183.36719 l 0,-56 z"
     id="Wave" />
  <path
     d="m 1.4495187,1.4395041 124.0505013,0 124.05054,0 0,173.4965959 c 0.76724,93.72088 -80.28944,127.81975 -124.05052,127.81975 -42.993854,0 -124.81775034,-34.09887 -124.0505213,-127.81975 l 0,-173.4965959 z"
     style="fill:none;stroke:#000000;stroke-width:1.88832211"
     id="Frame" />
</svg>
