<?xml version="1.0" encoding="UTF-8" standalone="no"?>
<!-- Created with Inkscape (http://www.inkscape.org/) -->
<svg
   xmlns:dc="http://purl.org/dc/elements/1.1/"
   xmlns:cc="http://web.resource.org/cc/"
   xmlns:rdf="http://www.w3.org/1999/02/22-rdf-syntax-ns#"
   xmlns:svg="http://www.w3.org/2000/svg"
   xmlns="http://www.w3.org/2000/svg"
   xmlns:xlink="http://www.w3.org/1999/xlink"
   version="1.0"
   width="251"
   height="304.20001"
   id="svg4166">
  <defs
     id="defs4168" />
  <metadata
     id="metadata1880"><rdf:RDF><cc:Work
         rdf:about=""><dc:title>Lysekil kommunvapen</dc:title><dc:date>09-04-2007</dc:date><dc:creator><cc:Agent><dc:title>Lokal_Profil</dc:title></cc:Agent></dc:creator><cc:license
         rdf:resource="http://creativecommons.org/licenses/by-sa/2.5/" /><dc:rights><cc:Agent><dc:title>cc-by-sa-2.5</dc:title></cc:Agent></dc:rights><dc:format>image/svg+xml</dc:format><dc:type
         rdf:resource="http://purl.org/dc/dcmitype/StillImage" /></cc:Work><cc:License
         rdf:about="http://creativecommons.org/licenses/by-sa/2.5/"><cc:permits
         rdf:resource="http://web.resource.org/cc/Reproduction" /><cc:permits
         rdf:resource="http://web.resource.org/cc/Distribution" /><cc:requires
         rdf:resource="http://web.resource.org/cc/Notice" /><cc:requires
         rdf:resource="http://web.resource.org/cc/Attribution" /><cc:permits
         rdf:resource="http://web.resource.org/cc/DerivativeWorks" /><cc:requires
         rdf:resource="http://web.resource.org/cc/ShareAlike" /></cc:License></rdf:RDF>
  </metadata>
  <path
     d="M 1.4495603,1.4395041 L 125.50006,1.4395041 L 249.55061,1.4395041 L 249.55061,174.9361 C 250.31785,268.65698 169.26117,302.75585 125.50008,302.75585 C 82.506226,302.75585 0.68233088,268.65698 1.4495603,174.9361 L 1.4495603,1.4395041 z "
     style="color:#000000;fill:#eeeeee;fill-opacity:1;fill-rule:nonzero;stroke:none;stroke-width:1.88832211;stroke-linecap:round;stroke-linejoin:bevel;marker:none;marker-start:none;marker-mid:none;marker-end:none;stroke-miterlimit:4;stroke-dashoffset:0;stroke-opacity:1;visibility:visible;display:block"
     id="Shield" />
  <path
     d="M 1.444,1.4402572 L 1.444,98.279012 L 249.556,98.279012 L 249.556,1.4402572 L 125.5,1.4402572 L 1.444,1.4402572 z "
     style="color:#000000;fill:#003d8f;fill-opacity:1;fill-rule:nonzero;stroke:none;stroke-width:1.88832211;stroke-linecap:round;stroke-linejoin:bevel;marker:none;marker-start:none;marker-mid:none;marker-end:none;stroke-miterlimit:4;stroke-dashoffset:0;stroke-opacity:1;visibility:visible;display:block"
     id="chief" />
  <path
     d="M 90.5,31.995372 L 117.391,37.934452 L 124.39314,11.149062 L 132.69525,37.406888 L 159.39314,30.078228 L 140.80425,50.396974 L 160.5,69.853705 L 133.60901,63.914624 L 126.60686,90.700012 L 118.30475,64.44219 L 91.606858,71.770848 L 110.19576,51.452094 L 90.5,31.995372 z "
     style="fill:#eeeeee;fill-opacity:1;fill-rule:nonzero;stroke:none;stroke-width:2;stroke-miterlimit:4;stroke-dasharray:none;stroke-opacity:1"
     id="6-pt-star-sharp" />
  <use
     transform="translate(-80,2.070312e-7)"
     id="star2"
     x="0"
     y="0"
     width="251"
     height="304.20001"
     xlink:href="#6-pt-star-sharp" />
  <use
     transform="translate(80,2.070312e-7)"
     id="star3"
     x="0"
     y="0"
     width="251"
     height="304.20001"
     xlink:href="#6-pt-star-sharp" />
  <g
     transform="matrix(1.39403,0,0,1.39403,-58.84023,-67.50911)"
     id="Fish">
    <path
       d="M 171.96916,235.07035 C 171.64989,234.23834 171.94504,232.88722 172.62505,232.06786 C 174.86404,229.37004 173.57042,225.92519 165.0004,211.76379 C 164.89413,211.58818 163.8618,212.0349 162.70634,212.7565 C 160.06533,214.40584 156.92203,212.70617 157.5063,209.94469 C 158.25736,206.39491 157.85935,199.58551 156.82785,198.3374 C 155.18267,196.34673 152.61242,185.23995 152.61242,180.12135 C 152.61242,175.9523 152.40328,175.51468 150.67332,176.06375 C 146.57959,177.36305 145.22844,167.60646 148.14297,157.79217 C 149.8438,152.06485 153.35157,148.7503 160.11242,146.48202 C 162.31242,145.74391 165.85734,143.614 167.99002,141.74887 C 178.29754,132.73446 195.72336,129.92771 199.49569,136.6743 C 200.80476,139.01549 200.73843,139.69093 198.80829,143.6743 C 197.63334,146.09913 194.19186,151.06958 191.16056,154.71974 C 185.02668,162.10589 183.32729,165.59884 184.19181,169.04338 C 184.90579,171.8881 183.32946,173.0372 180.66745,171.61253 C 178.96577,170.70182 178.45001,170.99647 177.06811,173.66876 C 174.25093,179.11659 172.6344,185.89033 172.62324,192.29412 C 172.61434,197.40423 173.00035,198.86658 174.80098,200.54412 C 176.00469,201.66555 178.02969,202.58308 179.30098,202.58308 C 181.07229,202.58308 181.61242,203.14227 181.61242,204.97609 C 181.61242,206.30768 180.85691,207.65902 179.9091,208.02273 C 178.47141,208.57442 178.66634,208.97995 181.1591,210.62313 C 186.45266,214.11255 192.82209,212.7753 194.73797,207.77228 L 195.76778,205.08308 L 197.6901,207.44386 C 202.6939,213.58898 197.06987,224.46863 188.01097,226.16809 C 185.31622,226.67363 184.61242,227.28193 184.61242,229.10548 C 184.61242,234.08891 173.58835,239.28988 171.96916,235.07035 z "
       style="fill:#eeeeee;fill-opacity:1"
       id="path1964" />
    <path
       d="M 179.36242,232.59404 C 182.33818,230.77968 183.04409,229.22268 182.88107,224.83308 C 182.8517,224.04241 184.24317,223.58308 186.66777,223.58308 C 191.21923,223.58308 194.88493,220.67263 196.46436,215.8049 C 197.72015,211.9346 196.92422,208.27455 195.41373,210.97364 C 194.91833,211.85886 193.17802,213.27348 191.54636,214.11724 C 184.96484,217.52068 174.12618,210.70756 171.54869,201.54683 C 168.92508,192.22221 170.92313,180.09114 176.74813,169.97851 C 178.04849,167.72099 182.03742,162.60719 185.61242,158.61451 C 189.18742,154.62182 193.6175,148.59388 195.45704,145.21908 C 198.12179,140.33035 198.32506,139.61692 196.45704,141.7093 C 195.1675,143.15373 192.88426,146.62473 191.38318,149.42265 C 188.45505,154.88047 184.56032,158.1608 182.12014,157.22442 C 180.42636,156.57445 180.07657,153.03229 181.61242,152.08308 C 182.16242,151.74316 182.61242,152.3916 182.61242,153.52406 C 182.61242,154.65652 183.10688,155.58308 183.71121,155.58308 C 185.41613,155.58308 190.18996,150.03469 191.63263,146.37641 C 192.34694,144.56508 194.07164,141.84261 195.46531,140.32649 C 198.69721,136.81058 197.52691,135.51331 190.98885,135.36439 C 175.61745,135.01426 162.9364,145.70212 156.4891,164.44153 C 151.84492,177.94005 155.2225,193.20082 166.72408,210.68583 C 170.84747,216.95432 174.83061,223.99373 175.57549,226.32897 C 176.79963,230.16669 176.75547,230.76753 175.11614,232.57897 C 172.68236,235.26827 174.9631,235.27636 179.36242,232.59404 z "
       style="fill:#003d8f;fill-opacity:1"
       id="path1962" />
    <path
       d="M 183.86242,145.85244 C 183.17492,145.61262 182.61242,144.29762 182.61242,142.9302 C 182.61242,140.92388 183.04673,140.50566 184.86242,140.76353 C 186.26119,140.96219 187.227,141.88616 187.41529,143.2058 C 187.72677,145.38884 186.07048,146.62266 183.86242,145.85244 z "
       style="fill:#eeeeee;fill-opacity:1"
       id="path1960" />
    <path
       d="M 186.05963,142.49767 C 185.73766,141.9767 185.04798,141.81389 184.52701,142.13587 C 184.00604,142.45784 183.84323,143.14752 184.16521,143.66849 C 184.48718,144.18946 185.17686,144.35227 185.69783,144.03029 C 186.2188,143.70832 186.38161,143.01864 186.05963,142.49767 z "
       style="fill:#003d8f;fill-opacity:1"
       id="path1958" />
    <path
       d="M 162.87886,209.98331 C 163.60068,209.26148 161.59646,204.58308 160.5654,204.58308 C 160.16611,204.58308 159.64128,205.93308 159.39911,207.58308 C 159.06075,209.88851 159.34317,210.58308 160.61895,210.58308 C 161.53202,210.58308 162.54898,210.31318 162.87886,209.98331 z "
       style="fill:#003d8f;fill-opacity:1"
       id="path1956" />
    <path
       d="M 179.61242,205.80232 C 179.61242,205.3729 178.26879,204.51439 176.62659,203.89453 C 173.84778,202.84565 173.71155,202.89978 174.66177,204.67529 C 175.64251,206.50781 179.61242,207.41157 179.61242,205.80232 z "
       style="fill:#003d8f;fill-opacity:1"
       id="path1954" />
    <path
       d="M 152.96267,169.50473 C 154.70024,162.74997 158.79093,152.62586 160.83015,150.03341 L 162.90828,147.3915 L 159.01035,149.46476 C 152.80583,152.76488 151.55827,154.11264 150.04087,159.15457 C 148.54056,164.1397 148.13048,171.76781 149.29992,172.93725 C 150.62751,174.26484 152.091,172.89335 152.96267,169.50473 z "
       style="fill:#003d8f;fill-opacity:1"
       id="path1952" />
    <path
       d="M 182.61242,167.52406 C 182.61242,166.3916 182.16242,165.74316 181.61242,166.08308 C 181.06242,166.423 180.61242,167.34956 180.61242,168.1421 C 180.61242,168.93464 181.06242,169.58308 181.61242,169.58308 C 182.16242,169.58308 182.61242,168.65652 182.61242,167.52406 z "
       style="fill:#003d8f;fill-opacity:1"
       id="path1946" />
  </g>
  <use
     transform="matrix(-1,0,0,1,251,0)"
     id="Fish2"
     x="0"
     y="0"
     width="251"
     height="304.20001"
     xlink:href="#Fish" />
  <path
     d="M 1.4495187,1.4395041 L 125.50002,1.4395041 L 249.55056,1.4395041 L 249.55056,174.9361 C 250.3178,268.65698 169.26112,302.75585 125.50004,302.75585 C 82.506186,302.75585 0.68228966,268.65698 1.4495187,174.9361 L 1.4495187,1.4395041 z "
     style="color:#000000;fill:none;fill-opacity:1;fill-rule:nonzero;stroke:#000000;stroke-width:1.88832211;stroke-linecap:round;stroke-linejoin:bevel;marker:none;marker-start:none;marker-mid:none;marker-end:none;stroke-miterlimit:4;stroke-dashoffset:0;stroke-opacity:1;visibility:visible;display:block"
     id="Frame" />
</svg>
