<?xml version="1.0" encoding="UTF-8" standalone="no"?>
<!-- Created with Inkscape (http://www.inkscape.org/) -->
<svg
   xmlns:dc="http://purl.org/dc/elements/1.1/"
   xmlns:cc="http://web.resource.org/cc/"
   xmlns:rdf="http://www.w3.org/1999/02/22-rdf-syntax-ns#"
   xmlns:svg="http://www.w3.org/2000/svg"
   xmlns="http://www.w3.org/2000/svg"
   version="1.0"
   width="251"
   height="304.20001"
   id="svg4166">
  <defs
     id="defs4168" />
   <metadata
           id="metadata1880"><rdf:RDF><cc:Work
     	   rdf:about=""><dc:title>Stromstad kommunvapen</dc:title><dc:date>2009-01-25</dc:date><dc:creator><cc:Agent><dc:title>EnDumEn and Lokal_Profil</dc:title></cc:Agent></dc:creator><cc:license
     	   rdf:resource="http://creativecommons.org/licenses/by-sa/2.5/" /><dc:rights><cc:Agent><dc:title>cc-by-sa-2.5</dc:title></cc:Agent></dc:rights><dc:format>image/svg+xml</dc:format><dc:type
     	   rdf:resource="http://purl.org/dc/dcmitype/StillImage" /></cc:Work><cc:License
     	   rdf:about="http://creativecommons.org/licenses/by-sa/2.5/"><cc:permits
     	   rdf:resource="http://web.resource.org/cc/Reproduction" /><cc:permits
     	   rdf:resource="http://web.resource.org/cc/Distribution" /><cc:requires
     	   rdf:resource="http://web.resource.org/cc/Notice" /><cc:requires
     	   rdf:resource="http://web.resource.org/cc/Attribution" /><cc:permits
     	   rdf:resource="http://web.resource.org/cc/DerivativeWorks" /><cc:requires
     	   rdf:resource="http://web.resource.org/cc/ShareAlike" /></cc:License></rdf:RDF>
   </metadata>
  <path
     d="M 249.55058,1.4395041 L 1.4495291,1.4395041 L 1.4495291,174.9361 C 0.68228908,268.65698 81.738969,302.75585 125.50006,302.75585 C 168.49391,302.75585 250.31781,268.65698 249.55058,174.9361 L 249.55058,1.4395041 z "
     style="fill:#003d8f"
     id="Shield" />
  <g
     transform="matrix(-0.360495,0,0,0.360495,265.8011,-5.846419)"
     style="fill:#ffcd50;stroke:#003d8f"
     id="skepp">
    <path
       d="M 526.5338,562.13761 L 529.5412,85.195213 C 529.5663,81.216213 534.5252,80.707113 534.5535,85.195213 L 537.5608,562.13761"
       id="fockmast" />
    <path
       d="M 341.0439,544.29769 L 344.0439,39.297716 C 344.0726,34.460916 349.0172,34.811716 349.0439,39.297716 L 352.0439,544.29769"
       id="stormast" />
    <path
       d="M 186.0439,506.29769 L 189.0439,229.29767 C 189.0881,225.21347 193.9981,225.06697 194.0439,229.29767 L 197.0439,506.29769"
       id="mesanmast" />
    <path
       d="M 471.8751,259.80417 C 554.9473,318.90277 500.2246,456.9321 463.2896,492.05181 C 572.3286,438.03615 616.4875,426.88381 606.4478,481.58943 C 674.6159,346.56977 635.819,309.02941 594.2904,285.94731 C 537.7966,272.45041 525.6108,270.48057 471.8751,259.80417 z "
       id="fock" />
    <path
       d="M 605.5423,288.06437 C 557.8102,273.37577 512.6828,263.90727 463.5603,256.71407 C 459.2042,256.07627 461.9808,250.73857 464.0749,250.92207 C 516.8167,255.54417 561.068,266.17367 605.8044,281.46767 C 609.6081,282.76807 613.6159,290.54877 605.5423,288.06437 z "
       id="fockrå" />
    <path
       d="M 481.5317,112.57481 C 507.9645,127.06951 501.6608,174.12507 467.679,251.26097 C 587.5046,217.96977 610.6596,243.15047 597.0955,278.71657 C 632.3944,212.12717 616.6678,145.12957 575.5241,133.64657 C 524.5341,121.19991 538.0255,122.97861 481.5317,112.57481 z "
       id="förmärssegel" />
    <path
       d="M 584.4818,135.22697 C 537.3462,119.65681 526.441,117.28751 476.075,111.33791 C 471.7029,110.82141 473.8737,106.60591 475.9678,106.78941 C 528.7096,111.41151 540.9401,114.89071 585.6765,130.18467 C 589.4803,131.48507 590.7276,137.29017 584.4818,135.22697 z "
       id="förmärsrå" />
    <path
       d="M 556.6662,486.16932 L 706.1509,387.9566 C 709.9049,385.49018 714.6052,389.65475 708.9746,393.6041 L 560.9018,497.4642"
       id="bogspröt" />
    <path
       d="M 90.6987,448.59764 C 119.549,461.55769 114.5646,496.74224 91.4326,479.65702 C 115.5767,562.34422 74.4308,508.58192 84.0439,614.29769 L 558.5439,614.29769 C 579.1346,614.29769 652.3973,546.81107 622.5439,446.29769 C 588.1895,479.72349 547.2,482.70792 505.178,487.31998 C 533.8428,515.08118 292.1678,507.6866 314.9663,478.1276 C 293.6341,474.05573 208.797,465.5721 230.1135,442.77226 C 145.7591,417.46954 87.8147,411.21819 107.5561,389.99657 C 114.7656,382.24647 67.8795,360.73747 71.6897,370.17907 C 82.7447,397.57307 76.4939,442.21656 90.6987,448.59764 z "
       id="skrov" />
    <path
       d="M 100.6261,455.07665 C 325.7384,578.34787 621.7903,514.09705 608.7356,482.77581 M 603.1003,461.5622 C 603.1003,461.5622 660.8957,606.05073 467.1111,606.90066 C 273.3265,607.75059 246.9786,607.75059 246.9786,607.75059 C 228.8251,607.62195 90.6716,625.06656 110.5682,476.04054 M 110.5142,476.15828 C 220.2596,574.31944 616.3978,553.69996 610.8957,504.69832 M 108.9245,493.50236 C 193.3616,591.03964 609.756,575.0309 609.2946,525.78899 M 108.817,512.33304 C 158.9974,595.55966 567.5231,595.02052 599.8061,553.32239 M 113.5928,541.23188 C 162.5643,614.51029 552.9018,599.62257 574.8314,580.15253 M 80.7859,422.64671 C 172.0352,472.10042 283.3092,492.07865 349.7064,498.4425"
       style="fill:none"
       id="skrovmönster" />
    <path
       d="M 279.4538,232.34607 C 359.4301,305.54817 313.1609,450.02742 276.226,485.14714 C 373.5694,436.29127 460.8142,423.03969 443.7862,488.72701 C 511.889,340.95107 466.7075,276.82161 402.9428,259.74447 C 347.8609,241.25217 333.1894,241.64657 279.4538,232.34607 z "
       id="storsegel" />
    <path
       d="M 413.7979,259.31617 C 366.0657,244.62757 320.9383,235.15907 271.8158,227.96597 C 267.4598,227.32807 270.2363,221.99037 272.3305,222.17397 C 325.0722,226.79597 369.3235,237.42547 414.06,252.71947 C 417.8637,254.01987 421.8714,261.80067 413.7979,259.31617 z "
       id="storrå" />
    <path
       d="M 298.2994,80.611313 C 320.8612,89.556413 320.8845,130.26287 275.6398,222.42697 C 395.4654,189.13577 424.8122,216.38047 411.2481,251.94647 C 447.5709,184.33317 422.4267,114.08741 384.6827,100.20311 C 328.1889,87.756413 354.7932,91.015113 298.2994,80.611313 z "
       id="stormärssegel" />
    <path
       d="M 397.4181,101.79811 C 350.2825,86.227913 339.3773,83.858613 289.0113,77.909013 C 284.6392,77.392513 286.81,73.177013 288.9041,73.360513 C 341.6459,77.982613 353.8764,81.461813 398.6129,96.755813 C 402.4166,98.056213 403.664,103.86121 397.4181,101.79811 z "
       id="stormärsrå" />
    <path
       d="M 105.2722,223.68497 C 164.9821,274.72287 234.3718,337.51207 283.2183,424.5928 C 263.3644,397.53767 214.3881,386.17637 116.8387,423.0806 C 171.1372,272.38127 128.4241,258.97127 105.2722,223.68497 z "
       id="mesansegel" />
    <path
       d="M 286.4303,412.24475 C 291.8902,420.58082 287.4653,425.26199 286.2502,423.21662 C 246.2163,355.82787 167.7361,269.57527 99.3877,215.75337 C 97.7254,214.44437 103.4711,210.24277 105.0908,211.60407 C 183.5517,277.54397 231.7873,328.81757 286.4303,412.24475 z "
       id="mesanrå" />
  </g>
  <path
     d="M 33.4065,190.18751 C 18.042667,190.18751 12.575519,198.7222 4.219,204.75001 C 18.717654,276.00024 86.73669,302.75001 125.50025,302.75001 C 164.28839,302.75 234.66296,274.9998 247.50025,200.75001 C 241.40828,195.52965 235.4318,190.18751 223.2815,190.18751 C 199.54449,190.18751 199.581,210.62501 175.844,210.62501 C 152.10699,210.62499 152.11226,190.18751 128.37525,190.18751 C 104.63824,190.18751 104.64351,210.62501 80.9065,210.62501 C 57.169484,210.62499 57.143503,190.18751 33.4065,190.18751 z "
     style="fill:#eeeeee;stroke:#003d8f"
     id="Vagskura" />
  <path
     d="M 125.34375,233.5 C 113.61971,233.55753 102.3226,238.46092 94.25,247.125 C 89.086625,252.66669 85.240256,258.61002 82.34375,265.4375 C 72.846215,252.49863 50.413422,252.18223 36.59375,265 C 63.692062,291.72453 100.62436,302.75 125.5,302.75 C 150.10982,302.74999 187.43593,291.56892 214.71875,264.4375 C 200.78031,252.09549 178.67607,252.68213 169.40625,265.65625 C 167.33921,259.1317 163.47374,253.93271 158.9375,248.9375 C 149.20943,238.22521 137.06779,233.44247 125.34375,233.5 z "
     style="fill:#000000"
     id="Treberg" />
  <path
     d="M 249.55062,1.4395041 L 1.449569,1.4395041 L 1.449569,174.9361 C 0.68232904,268.65698 81.739009,302.75585 125.5001,302.75585 C 168.49395,302.75585 250.31785,268.65698 249.55062,174.9361 L 249.55062,1.4395041 z "
     style="fill:none;fill-opacity:0;stroke:#000000;stroke-width:1.88832211;stroke-linejoin:bevel"
     id="Frame" />
</svg>
