<?xml version="1.0" encoding="UTF-8" standalone="no"?>
<!-- Created with Inkscape (http://www.inkscape.org/) -->
<svg
   xmlns:dc="http://purl.org/dc/elements/1.1/"
   xmlns:cc="http://web.resource.org/cc/"
   xmlns:rdf="http://www.w3.org/1999/02/22-rdf-syntax-ns#"
   xmlns:svg="http://www.w3.org/2000/svg"
   xmlns="http://www.w3.org/2000/svg"
   xmlns:xlink="http://www.w3.org/1999/xlink"
   version="1.0"
   width="251"
   height="304.20001"
   id="svg4166">
  <metadata
     id="metadata1880"><rdf:RDF><cc:Work
         rdf:about=""><dc:title>Trollhattan kommunvapen</dc:title><dc:date>09-10-2007</dc:date><dc:creator><cc:Agent><dc:title>Lokal_Profil</dc:title></cc:Agent></dc:creator><cc:license
         rdf:resource="http://creativecommons.org/licenses/by-sa/2.5/" /><dc:rights><cc:Agent><dc:title>cc-by-sa-2.5</dc:title></cc:Agent></dc:rights><dc:format>image/svg+xml</dc:format><dc:type
         rdf:resource="http://purl.org/dc/dcmitype/StillImage" /></cc:Work><cc:License
         rdf:about="http://creativecommons.org/licenses/by-sa/2.5/"><cc:permits
         rdf:resource="http://web.resource.org/cc/Reproduction" /><cc:permits
         rdf:resource="http://web.resource.org/cc/Distribution" /><cc:requires
         rdf:resource="http://web.resource.org/cc/Notice" /><cc:requires
         rdf:resource="http://web.resource.org/cc/Attribution" /><cc:permits
         rdf:resource="http://web.resource.org/cc/DerivativeWorks" /><cc:requires
         rdf:resource="http://web.resource.org/cc/ShareAlike" /></cc:License></rdf:RDF>
  </metadata>
  <defs
     id="defs4168">
    <clipPath
       id="clipPath9123">
      <use
         style="stroke:none"
         id="use3772"
         x="0"
         y="0"
         width="1"
         height="1"
         xlink:href="#Stream" />
    </clipPath>
  </defs>
  <path
     d="M 249.55058,1.4395041 L 1.4495291,1.4395041 L 1.4495291,174.9361 C 0.68228908,268.65698 81.738969,302.75585 125.50006,302.75585 C 168.49391,302.75585 250.31781,268.65698 249.55058,174.9361 L 249.55058,1.4395041 z "
     style="color:#000000;fill:#d40000;fill-opacity:1;stroke:none"
     id="Shield" />
  <path
     d="M 39.65625,81.65625 L 1.4375,86.34375 L 1.4375,132.25 C 10.162686,135.55894 20.519907,140.62395 28.78125,148.0625 C 46.512583,164.02786 36.768666,174.87838 54.5,190.84375 C 72.231344,206.80912 81.987394,195.97215 99.71875,211.9375 C 117.45009,227.90287 107.70619,238.72213 125.4375,254.6875 C 143.16886,270.65289 152.9249,259.81587 170.65625,275.78125 C 174.78868,279.50211 178.37563,283.82902 181.46875,288.25 C 199.73877,279.00997 217.46886,265.0252 230.25,245.375 C 228.24482,238.6483 226.2404,231.91683 217.34375,223.90625 C 199.61239,207.94089 189.85634,218.77787 172.125,202.8125 C 154.39366,186.84715 164.13761,176.02787 146.40625,160.0625 C 128.67488,144.09711 118.91883,154.90287 101.1875,138.9375 C 83.456134,122.97213 93.262575,112.15288 75.53125,96.1875 C 61.175685,83.261697 52.021664,87.892627 39.65625,81.65625 z "
     style="color:#000000;fill:#eeeeee;fill-opacity:1;fill-rule:nonzero;stroke:none;stroke-width:1.88832211;stroke-linecap:round;stroke-linejoin:bevel;marker:none;marker-start:none;marker-mid:none;marker-end:none;stroke-miterlimit:4;stroke-dashoffset:0;stroke-opacity:1;visibility:visible;display:block"
     id="Stream" />
  <path
     d="M 1.1,1.0980222 L 1.1,91.292012 L 249.6,91.292012 L 249.6,1.0980222 L 125.35,1.0980222 L 1.1,1.0980222 z "
     style="color:#000000;fill:#eeeeee;fill-opacity:1;fill-rule:nonzero;stroke:none;stroke-width:1.88832211;stroke-linecap:round;stroke-linejoin:bevel;marker:none;marker-start:none;marker-mid:none;marker-end:none;stroke-miterlimit:4;stroke-dashoffset:0;stroke-opacity:1;visibility:visible;display:block"
     id="Chef" />
  <g
     transform="matrix(0,-0.805125,0.805125,0,-38.78143,-72.94711)"
     style="fill:#d40000;fill-opacity:1"
     id="Antik-blixt">
    <path
       d="M -152.42825,210.0929 C -152.42422,254.87465 -158.38325,291.19045 -165.73548,291.19045 C -173.0877,291.19045 -179.04673,254.87465 -179.0427,210.0929 C -179.04673,165.31115 -173.0877,128.99535 -165.73548,128.99535 C -158.38325,128.99535 -152.42422,165.31115 -152.42825,210.0929 L -152.42825,210.0929 z "
       transform="matrix(1.257947,0,0,1,60.8972,0)"
       style="fill:#d40000;fill-opacity:1;stroke:none;stroke-width:5;stroke-miterlimit:4;stroke-dasharray:none;stroke-opacity:1"
       id="path4632" />
    <g
       transform="matrix(0.712492,0,0,1,-68.9401,-23.38846)"
       style="fill:#d40000;fill-opacity:1"
       id="g4654">
      <path
         d="M -110.38593,249.84625 C -108.94445,241.72956 -108.23219,235.4714 -106.74928,227.46251 C -104.5306,231.56686 -103.59088,233.20697 -99.76286,240.65101 C -96.03289,247.90433 -90.67505,258.21571 -87.85652,263.56517 C -82.75763,273.24271 -82.72949,273.28084 -82.23989,271.17814 C -81.96927,270.01583 -81.69713,267.43948 -81.63514,265.45292 C -81.37856,257.23071 -80.0727,248.89587 -78.95812,248.36665 C -78.69959,248.24389 -73.23675,258.64817 -66.81849,271.48729 L -53.90995,297.44052 C -52.78294,293.52396 -51.93513,291.2093 -50.43925,285.13706 C -48.39716,292.86816 -48.44536,301.26572 -47.79991,309.27036 C -47.41516,313.97118 -47.18904,317.77805 -47.29742,317.73011 C -55.36827,309.88796 -55.676,309.48209 -72.27588,294.61621 C -62.82402,298.85926 -63.87875,298.22734 -59.13078,299.91888 C -58.86428,299.79317 -62.91629,292.20832 -67.38192,282.80337 C -71.84756,273.39843 -75.6415,265.77007 -75.81289,265.85144 C -75.9843,265.93283 -77.01054,272.20253 -78.09345,279.78412 L -80.06237,293.56883 L -90.63268,272.49277 C -96.44635,260.90093 -102.06692,249.57563 -102.67467,248.55945 C -103.37504,252.10889 -105.86986,266.1671 -107.42759,271.44074"
         style="fill:#d40000;fill-opacity:1"
         id="path4612" />
      <path
         d="M -110.38593,249.84625 C -111.82741,241.72956 -112.53967,235.4714 -114.02258,227.46251 C -116.24126,231.56686 -117.18098,233.20697 -121.009,240.65101 C -124.73897,247.90433 -130.09681,258.21571 -132.91534,263.56517 C -138.01423,273.24271 -138.04237,273.28084 -138.53197,271.17814 C -138.80259,270.01583 -139.07473,267.43948 -139.13672,265.45292 C -139.3933,257.23071 -140.69916,248.89587 -141.81374,248.36665 C -142.07227,248.24389 -147.53511,258.64817 -153.95337,271.48729 L -166.86191,297.44052 C -167.98892,293.52396 -168.83673,291.2093 -170.33261,285.13706 C -172.3747,292.86816 -172.3265,301.26572 -172.97195,309.27036 C -173.3567,313.97118 -173.58282,317.77805 -173.47444,317.73011 C -165.40359,309.88796 -165.09586,309.48209 -148.49598,294.61621 C -157.94784,298.85926 -156.89311,298.22734 -161.64108,299.91888 C -161.90758,299.79317 -157.85557,292.20832 -153.38994,282.80337 C -148.9243,273.39843 -145.13036,265.77007 -144.95897,265.85144 C -144.78756,265.93283 -143.76132,272.20253 -142.67841,279.78412 L -140.70949,293.56883 L -130.13918,272.49277 C -124.32551,260.90093 -118.70494,249.57563 -118.09719,248.55945 C -117.39682,252.10889 -114.902,266.1671 -113.34427,271.44074"
         style="fill:#d40000;fill-opacity:1"
         id="path4634" />
    </g>
    <g
       transform="matrix(0.712492,0,0,1,-26.99253,0)"
       style="fill:#d40000;fill-opacity:1"
       id="g4650">
      <path
         d="M -169.26033,163.88754 C -167.81885,172.00423 -167.10659,178.26239 -165.62368,186.27128 C -163.405,182.16693 -162.46528,180.52682 -158.63726,173.08278 C -154.90729,165.82946 -149.54945,155.51808 -146.73092,150.16862 C -141.63203,140.49108 -141.60389,140.45295 -141.11429,142.55565 C -140.84367,143.71796 -140.57153,146.29431 -140.50954,148.28087 C -140.25296,156.50308 -138.9471,164.83792 -137.83252,165.36714 C -137.57399,165.4899 -132.11115,155.08562 -125.69289,142.2465 L -112.78435,116.29327 C -111.65734,120.20983 -110.80953,122.52449 -109.31365,128.59673 C -107.27156,120.86563 -107.31976,112.46807 -106.67431,104.46344 C -106.28956,99.762619 -106.06344,95.955749 -106.17182,96.003689 C -114.24267,103.84584 -114.5504,104.25171 -131.15028,119.11758 C -121.69842,114.87453 -122.75315,115.50645 -118.00518,113.81491 C -117.73868,113.94062 -121.79069,121.52547 -126.25632,130.93042 C -130.72196,140.33536 -134.5159,147.96372 -134.68729,147.88235 C -134.8587,147.80096 -135.88494,141.53126 -136.96785,133.94967 L -138.93677,120.16496 L -149.50708,141.24102 C -155.32075,152.83286 -160.94132,164.15816 -161.54907,165.17434 C -162.24944,161.6249 -164.74426,147.56669 -166.30199,142.29305"
         style="fill:#d40000;fill-opacity:1"
         id="path4636" />
      <path
         d="M -169.26033,163.88755 C -170.70181,172.00424 -171.41407,178.26239 -172.89698,186.27128 C -175.11566,182.16693 -176.05538,180.52682 -179.8834,173.08278 C -183.61337,165.82947 -188.97121,155.51809 -191.78974,150.16863 C -196.88863,140.49109 -196.91677,140.45296 -197.40637,142.55566 C -197.67699,143.71797 -197.94913,146.29432 -198.01112,148.28088 C -198.2677,156.50309 -199.57356,164.83793 -200.68814,165.36715 C -200.94667,165.48991 -206.40951,155.08563 -212.82777,142.24651 L -225.73631,116.29328 C -226.86332,120.20984 -227.71113,122.5245 -229.20701,128.59674 C -231.2491,120.86564 -231.2009,112.46808 -231.84635,104.46344 C -232.2311,99.762624 -232.45722,95.955754 -232.34884,96.003694 C -224.27799,103.84584 -223.97026,104.25171 -207.37038,119.11759 C -216.82224,114.87454 -215.76751,115.50646 -220.51548,113.81492 C -220.78198,113.94063 -216.72997,121.52548 -212.26434,130.93043 C -207.7987,140.33537 -204.00476,147.96373 -203.83337,147.88236 C -203.66196,147.80097 -202.63572,141.53127 -201.55281,133.94968 L -199.58389,120.16497 L -189.01358,141.24103 C -183.19991,152.83287 -177.57934,164.15817 -176.97159,165.17435 C -176.27122,161.62491 -173.7764,147.5667 -172.21867,142.29306"
         style="fill:#d40000;fill-opacity:1"
         id="path4638" />
    </g>
    <g
       transform="matrix(0.712492,0,0,1,-30.16209,-47.58342)"
       style="fill:#d40000;fill-opacity:1"
       id="g4662">
      <path
         d="M -164.81178,306.46751 C -164.55325,306.34475 -159.09041,316.74903 -152.67215,329.58815 L -139.76361,355.54138 C -138.6366,351.62482 -137.78879,349.31016 -136.29291,343.23792 C -134.25082,350.96902 -134.29902,359.36658 -133.65357,367.37122 C -133.26882,372.07204 -133.0427,375.87891 -133.15108,375.83097 C -141.22193,367.98882 -141.52966,367.58295 -158.12954,352.71707 C -148.67768,356.96012 -149.73241,356.3282 -144.98444,358.01974 C -144.71794,357.89403 -148.76995,350.30918 -153.23558,340.90423 C -157.70122,331.49929 -161.49516,323.87093 -161.66655,323.9523"
         style="fill:#d40000;fill-opacity:1"
         id="path4642" />
      <path
         d="M -164.81178,306.46751 C -165.07031,306.34475 -170.53315,316.74903 -176.95141,329.58815 L -189.85995,355.54138 C -190.98696,351.62482 -191.83477,349.31016 -193.33065,343.23792 C -195.37274,350.96902 -195.32454,359.36658 -195.96999,367.37122 C -196.35474,372.07204 -196.58086,375.87891 -196.47248,375.83097 C -188.40163,367.98882 -188.0939,367.58295 -171.49402,352.71707 C -180.94588,356.96012 -179.89115,356.3282 -184.63912,358.01974 C -184.90562,357.89403 -180.85361,350.30918 -176.38798,340.90423 C -171.92234,331.49929 -168.1284,323.87093 -167.95701,323.9523"
         style="fill:#d40000;fill-opacity:1"
         id="path4644" />
    </g>
    <g
       transform="matrix(0.712492,0,0,1,-11.77412,56.4549)"
       style="fill:#d40000;fill-opacity:1"
       id="g4658">
      <path
         d="M -190.61973,92.749315 C -190.87826,92.872075 -196.3411,82.467795 -202.75936,69.628675 L -215.6679,43.675449 C -216.79491,47.592005 -217.64272,49.906665 -219.1386,55.978905 C -221.18069,48.247805 -221.13249,39.850249 -221.77794,31.845609 C -222.16269,27.144789 -222.38881,23.337919 -222.28043,23.385859 C -214.20958,31.228009 -213.90185,31.633879 -197.30197,46.499759 C -206.75383,42.256709 -205.6991,42.888629 -210.44707,41.197089 C -210.71357,41.322799 -206.66156,48.907645 -202.19593,58.312595 C -197.73029,67.717535 -193.93635,75.345895 -193.76496,75.264525"
         style="fill:#d40000;fill-opacity:1"
         id="path4646" />
      <path
         d="M -190.61973,92.749318 C -190.3612,92.872078 -184.89836,82.467798 -178.4801,69.628678 L -165.57156,43.675448 C -164.44455,47.592008 -163.59674,49.906668 -162.10086,55.978908 C -160.05877,48.247808 -160.10697,39.850248 -159.46152,31.845608 C -159.07677,27.144786 -158.85065,23.337916 -158.95903,23.385856 C -167.02988,31.228008 -167.33761,31.633878 -183.93749,46.499758 C -174.48563,42.256708 -175.54036,42.888628 -170.79239,41.197088 C -170.52589,41.322798 -174.5779,48.907648 -179.04353,58.312598 C -183.50917,67.717538 -187.30311,75.345898 -187.4745,75.264528"
         style="fill:#d40000;fill-opacity:1"
         id="path4648" />
    </g>
  </g>
  <g
     clip-path="url(#clipPath9123)"
     id="Sparrar">
    <path
       d="M 118.66014,130.72844 L 68.000469,130.72844 L 50.076948,130.72844 L 50.076948,148.62804 L 50.076948,199.31164 L 68.000469,199.31164 L 68.000469,148.62804 L 118.66014,148.62804 L 118.66014,130.72844 z "
       style="opacity:1;fill:#000000;fill-opacity:1;fill-rule:evenodd;stroke:none;stroke-width:1;stroke-linecap:round;stroke-linejoin:round;stroke-miterlimit:4;stroke-dasharray:none;stroke-opacity:1"
       id="Sparre" />
    <use
       transform="translate(70.97242,63.85837)"
       id="Sparre-2"
       x="0"
       y="0"
       width="251"
       height="304.20001"
       xlink:href="#Sparre" />
  </g>
  <path
     d="M 249.55062,1.4395041 L 1.449569,1.4395041 L 1.449569,174.9361 C 0.68232904,268.65698 81.739009,302.75585 125.5001,302.75585 C 168.49395,302.75585 250.31785,268.65698 249.55062,174.9361 L 249.55062,1.4395041 z "
     style="fill:none;fill-opacity:0;stroke:#000000;stroke-width:1.88832211;stroke-linejoin:bevel"
     id="Frame" />
</svg>
