<?xml version="1.0" encoding="UTF-8" standalone="no"?>
<!-- Created with Inkscape (http://www.inkscape.org/) -->

<svg
   xmlns:svg="http://www.w3.org/2000/svg"
   xmlns="http://www.w3.org/2000/svg"
   xmlns:xlink="http://www.w3.org/1999/xlink"
   version="1.0"
   width="251"
   height="304.20001"
   id="svg4166">
  <defs
     id="defs4168" />
  <path
     d="m 249.55058,1.4395041 -248.1010509,0 0,173.4965959 C 0.68228908,268.65698 81.738969,302.75585 125.50006,302.75585 c 42.99385,0 124.81775,-34.09887 124.05052,-127.81975 l 0,-173.4965959 z"
     id="Shield"
     style="color:#000000;fill:#d40000;stroke:none" />
  <g
     transform="matrix(1.36092,0,0,1.36092,-247.86386,-1072.3322)"
     id="g11462">
    <path
       d="m 242.6139,815.13242 c -7.25117,0 -13.05509,5.88501 -13.05509,13.13618 0,3.62558 1.47125,6.90963 3.8489,9.28728 1.18883,1.18882 4.63728,3.86949 6.5693,4.73124 -4.56478,15.47223 -9.31377,28.4284 9.85368,40.06686 -26.44429,44.80327 -44.59815,75.4114 -44.59815,75.4114 l 28.86094,-114.33507 c -0.44516,-0.38897 -0.93372,-0.68607 -1.40612,-1.00531 -0.94478,-0.63846 -1.82492,-1.36543 -2.62848,-2.16899 -3.21422,-3.21423 -5.20314,-7.65377 -5.20314,-12.55502 0,-9.80251 7.95566,-17.75817 17.75816,-17.75817 9.8025,0 17.75816,7.95566 17.75816,17.75817 0,4.90125 -1.98892,9.34079 -5.20314,12.55502 -0.80356,0.80356 -1.6837,1.53053 -2.62848,2.16899 -0.4724,0.31924 -0.96096,0.61634 -1.40612,1.00531 l 28.86094,114.33507 c 0,0 -18.15386,-30.60813 -44.59815,-75.4114 19.16745,-11.63846 14.41846,-24.59463 9.85368,-40.06686 1.93202,-0.86175 5.38047,-3.54242 6.5693,-4.73124 2.37765,-2.37765 3.8489,-5.6617 3.8489,-9.28728 0,-7.25117 -5.80392,-13.13618 -13.05509,-13.13618 z"
       id="path11442"
       style="fill:#eeeeee;stroke:#d40000;stroke-width:1" />
    <path
       d="m 242.69499,815.13242 c -7.25117,0 -13.13618,5.88501 -13.13618,13.13618 0,3.62558 1.47125,6.90963 3.8489,9.28728 1.18883,1.18882 4.63728,3.86949 6.5693,4.73124 -4.56478,15.47223 -9.31377,28.4284 9.85368,40.06686 -26.44429,44.80327 -44.59815,75.4114 -44.59815,75.4114 l 28.86094,-114.33507 c -0.44516,-0.38897 -0.93372,-0.68607 -1.40612,-1.00531 -0.94478,-0.63846 -1.82492,-1.36543 -2.62848,-2.16899 -3.21422,-3.21423 -5.20314,-7.65377 -5.20314,-12.55502 0,-9.80251 7.95566,-17.75817 17.75816,-17.75817"
       id="path11444"
       style="fill:#eeeeee;stroke:#d40000;stroke-width:1" />
  </g>
  <use
     transform="matrix(1,0,0,-1,89.892577,261.04483)"
     id="use11479"
     x="0"
     y="0"
     width="101"
     height="122.28"
     xlink:href="#g11462" />
  <path
     d="m 249.55062,1.4395041 -248.101051,0 0,173.4965959 c -0.76723996,93.72088 80.28944,127.81975 124.050531,127.81975 42.99385,0 124.81775,-34.09887 124.05052,-127.81975 l 0,-173.4965959 z"
     id="Frame"
     style="fill:none;stroke:#000000;stroke-width:1.88831997;stroke-linejoin:bevel" />
</svg>
