<?xml version="1.0" encoding="UTF-8" standalone="no"?>
<!-- Created with Inkscape (http://www.inkscape.org/) -->
<svg
   xmlns:dc="http://purl.org/dc/elements/1.1/"
   xmlns:cc="http://web.resource.org/cc/"
   xmlns:rdf="http://www.w3.org/1999/02/22-rdf-syntax-ns#"
   xmlns:svg="http://www.w3.org/2000/svg"
   xmlns="http://www.w3.org/2000/svg"
   xmlns:xlink="http://www.w3.org/1999/xlink"
   version="1.0"
   width="251"
   height="304.20001"
   id="svg4166">
  <defs
     id="defs4168" />
  <metadata
     id="metadata1880"><rdf:RDF><cc:Work
         rdf:about=""><dc:title>Ulricehamn kommunvapen</dc:title><dc:date>01-10-2007</dc:date><dc:creator><cc:Agent><dc:title>Lokal_Profil</dc:title></cc:Agent></dc:creator><cc:license
         rdf:resource="http://creativecommons.org/licenses/by-sa/2.5/" /><dc:rights><cc:Agent><dc:title>cc-by-sa-2.5</dc:title></cc:Agent></dc:rights><dc:format>image/svg+xml</dc:format><dc:type
         rdf:resource="http://purl.org/dc/dcmitype/StillImage" /></cc:Work><cc:License
         rdf:about="http://creativecommons.org/licenses/by-sa/2.5/"><cc:permits
         rdf:resource="http://web.resource.org/cc/Reproduction" /><cc:permits
         rdf:resource="http://web.resource.org/cc/Distribution" /><cc:requires
         rdf:resource="http://web.resource.org/cc/Notice" /><cc:requires
         rdf:resource="http://web.resource.org/cc/Attribution" /><cc:permits
         rdf:resource="http://web.resource.org/cc/DerivativeWorks" /><cc:requires
         rdf:resource="http://web.resource.org/cc/ShareAlike" /></cc:License></rdf:RDF>
  </metadata>
  <path
     d="M 249.55058,1.4395041 L 1.4495291,1.4395041 L 1.4495291,174.9361 C 0.68228908,268.65698 81.738969,302.75585 125.50006,302.75585 C 168.49391,302.75585 250.31781,268.65698 249.55058,174.9361 L 249.55058,1.4395041 z"
     id="Shield"
     style="fill:#003d8f;fill-opacity:1;stroke:none" />
  <path
     d="M 109.53489,117.78917 C 109.9555,119.21967 110.16585,120.31346 110.16592,121.07053 C 110.16585,121.57552 110.03964,122.33276 109.7873,123.34225 C 107.59965,123.93137 105.83277,124.22585 104.48664,124.22569 C 103.89761,124.22585 102.90899,124.16275 101.52078,124.03639 C 100.13245,123.91034 99.017629,123.84723 98.176319,123.84708 C 94.305929,123.84723 91.23491,124.60447 88.96325,126.11879 C 87.448722,127.04446 86.523209,128.26446 86.18671,129.77877 L 84.924646,144.16631 L 85.303265,206.63847 C 85.387353,229.52394 86.14459,243.76421 87.57498,249.35933 C 89.005266,254.95449 91.403185,259.56103 94.768744,263.17892 C 98.134189,266.79685 103.20347,269.78373 109.97662,272.13957 C 116.74961,274.49543 123.33337,275.67336 129.72792,275.67335 C 144.03119,275.67336 154.99011,273.61199 162.60467,269.48924 C 170.21899,265.36651 175.68793,259.66619 179.01151,252.38828 C 182.3348,245.11041 183.9965,234.06736 183.99665,219.2591 C 183.9965,218.83847 183.8703,215.47297 183.61804,209.16259 L 183.61804,205.5026 C 183.61789,204.15648 183.70203,201.52718 183.87045,197.61471 C 184.03858,193.70239 184.12272,191.40964 184.12287,190.73646 L 182.22977,154.51523 C 181.64065,142.31541 180.94652,135.12166 180.14736,132.93394 C 179.34791,130.74651 178.19102,129.10583 176.67669,128.01189 C 173.39519,125.65619 167.16901,123.55276 157.99814,121.70156 C 157.57734,120.5238 157.32492,119.30381 157.24091,118.04158 L 206.5876,117.91538 L 210.5,118.04158 L 210.37379,122.58501 C 200.02471,123.93137 193.8406,125.50895 191.82145,127.31776 C 189.80199,129.12686 188.79234,132.47133 188.7925,137.35116 C 188.79234,139.95956 188.96062,145.63885 189.29733,154.38902 L 190.18077,180.51374 L 190.05456,190.86267 L 190.43318,203.98812 C 190.43303,220.47915 189.97027,231.71151 189.04491,237.68524 C 187.69856,246.01488 185.78442,252.61968 183.30252,257.49964 C 180.82032,262.37964 177.22344,266.77581 172.51188,270.68821 C 167.80004,274.60061 161.51076,277.81887 153.64402,280.34299 C 145.77705,282.86711 138.01536,284.12918 130.35895,284.12918 C 118.32719,284.12918 109.66102,283.2878 104.36043,281.60505 C 94.684547,278.66024 86.985966,274.83199 81.264661,270.12027 C 75.543266,265.40858 71.588802,260.69688 69.401262,255.98516 C 66.456416,249.75901 64.984008,240.67216 64.984038,228.72458 L 64.984038,220.01634 L 64.605419,184.67855 L 64.984038,156.15591 L 64.984038,136.97255 C 64.984008,132.09271 64.310908,128.68514 62.964736,126.74982 C 62.039196,125.40378 60.692996,124.73068 58.926132,124.73052 L 51.479955,124.85673 C 45.926864,124.85688 42.393089,124.26793 40.878619,123.08984 C 40.626202,122.33276 40.499996,121.65966 40.5,121.07053 C 40.499996,120.31346 40.752407,119.72449 41.257238,119.30365 C 42.182745,118.6307 43.318602,118.29416 44.664811,118.294 L 47.946177,118.294 L 56.402004,118.16779 L 76.342612,118.16779 L 109.53489,117.78917 z"
     id="U"
     style="fill:#ffcd50;stroke:none" />
  <path
     d="M 37.588987,47.899951 C 37.776457,52.398563 31.528635,55.522265 25.905221,55.522265 C 30.216568,57.95893 35.714519,55.210381 35.902193,63.457938 C 35.277376,68.143807 31.028446,70.205745 28.404302,69.767962 C 25.561072,69.049726 22.031222,68.61237 22.218479,55.866201 C 19.969061,58.115609 16.595269,63.083007 15.657929,65.894603 L 12.846324,65.894603 C 12.846324,65.894603 14.194876,61.956926 20.56817,55.396163 C 19.068623,54.271565 17.719867,54.64798 15.283193,54.64798 C 12.846324,54.64798 7.410372,54.460297 7.597833,48.462361 C 7.785302,42.464006 13.221255,41.714133 13.970921,41.714133 C 16.220329,41.714133 22.094064,43.026198 22.656465,52.773503 C 22.656465,52.773503 23.148437,41.437464 31.778307,41.526873 C 34.90201,41.558928 37.401517,43.401348 37.588987,47.899951 z"
     id="Trifoil"
     style="fill:#ffcd50;fill-opacity:1" />
  <use
     transform="translate(171.869,-26.62759)"
     id="use2973"
     x="0"
     y="0"
     width="251"
     height="304.20001"
     xlink:href="#Trifoil" />
  <use
     transform="translate(87.08748,97.18553)"
     id="use2975"
     x="0"
     y="0"
     width="251"
     height="304.20001"
     xlink:href="#Trifoil" />
  <use
     transform="translate(131.4431,139.6643)"
     id="use2977"
     x="0"
     y="0"
     width="251"
     height="304.20001"
     xlink:href="#Trifoil" />
  <use
     transform="translate(194.4621,110.5448)"
     id="use2979"
     x="0"
     y="0"
     width="251"
     height="304.20001"
     xlink:href="#Trifoil" />
  <use
     transform="translate(20.97932,160.5724)"
     id="use2981"
     x="0"
     y="0"
     width="251"
     height="304.20001"
     xlink:href="#Trifoil" />
  <use
     transform="translate(2.42069,90.37242)"
     id="use2983"
     x="0"
     y="0"
     width="251"
     height="304.20001"
     xlink:href="#Trifoil" />
  <use
     transform="translate(186.1163,178.7395)"
     id="use2985"
     x="0"
     y="0"
     width="251"
     height="304.20001"
     xlink:href="#Trifoil" />
  <use
     transform="translate(202.5311,35.50345)"
     id="use2987"
     x="0"
     y="0"
     width="251"
     height="304.20001"
     xlink:href="#Trifoil" />
  <use
     transform="translate(58.09655,-29.04828)"
     id="use2989"
     x="0"
     y="0"
     width="251"
     height="304.20001"
     xlink:href="#Trifoil" />
  <g
     transform="matrix(1.1703247,0,0,1.1689155,-26.766092,-31.620512)"
     id="Crown"
     style="fill:#ffcd50;stroke:none">
    <path
       d="M 162.5159,91.676121 C 168.20287,64.842784 157.57703,65.679729 133.38058,69.849834 L 133.38058,73.056 C 154.59928,70.822164 159.14576,70.145156 156.29593,91.547873 L 162.5159,91.676121 z"
       id="path1901" />
    <path
       d="M 127.38091,40.362648 L 127.38091,47.422904 L 127.16458,47.422904 L 121.1938,47.422904 L 121.1938,52.929903 L 127.16458,52.929903 L 127.38091,52.929903 L 127.38091,62.343578 L 132.87576,62.343578 L 132.87576,52.929903 L 139.01961,52.929903 L 139.01961,47.422904 L 132.87576,47.422904 L 132.87576,40.362648 L 127.38091,40.362648 z"
       id="path1903" />
    <path
       d="M 126.65842,63.959988 L 133.55499,63.959988 L 133.55499,90.706795 L 126.65842,90.706795 L 126.65842,63.959988 z"
       id="rect1905" />
    <path
       d="M 186.94685,122.99993 C 188.84527,114.8885 191.84468,101.49291 193.97834,90.622979 C 195.98253,68.632016 182.07376,66.439801 158.60699,70.036476 L 158.60699,74.073569 C 176.07718,72.026644 192.08156,70.734563 188.60446,89.687229 C 187.52115,89.726125 186.54534,89.997499 185.98436,90.649715 C 184.23794,95.36541 186.3854,99.820069 186.3854,99.820066 C 186.3854,99.820066 176.38485,92.058591 176.57339,102.35996 C 176.7506,112.13804 186.0111,103.85716 186.0111,103.85716 C 186.04415,107.61713 184.21557,111.4543 180.66395,113.08098 L 168.7933,113.08098 C 165.16436,111.12866 162.6117,107.94368 161.78854,103.85716 C 161.78854,103.85716 171.58653,112.73511 171.54707,102.14607 C 171.51233,92.808863 162.21631,99.820066 162.21631,99.820066 C 162.21631,99.820066 168.59962,89.31278 159.72989,89.312929 C 150.79235,89.313076 157.29694,99.820069 157.29694,99.820066 C 157.29694,99.820066 147.70363,91.860706 148.23353,102.0124 C 148.71198,111.26906 157.21673,103.85716 157.21673,103.85716 C 157.02616,107.53851 155.50868,110.91749 152.43104,113.08098 L 138.20763,113.08098 C 135.65142,110.52917 133.77528,107.38956 132.9407,103.85716 C 132.9407,103.85716 142.53546,111.75232 142.80618,102.19955 C 143.11276,91.382221 133.10111,99.820069 133.10111,99.820066 C 136.65488,94.872997 138.09691,89.339667 130.10671,89.339665 C 122.11651,89.339667 123.55854,94.872997 127.11231,99.820066 C 127.11231,99.820069 117.10066,91.382221 117.40724,102.19955 C 117.67796,111.75232 127.27272,103.85716 127.27272,103.85716 C 126.43814,107.38956 124.562,110.52917 122.00579,113.08098 L 107.78238,113.08098 C 104.70474,110.91749 103.18726,107.53851 102.99669,103.85716 C 102.99669,103.85716 111.50144,111.26906 111.97989,102.0124 C 112.50979,91.860706 102.91648,99.820066 102.91648,99.820066 C 102.91648,99.820069 109.42107,89.313076 100.48353,89.312929 C 91.613801,89.31278 97.997111,99.820066 97.997111,99.820066 C 97.997109,99.820066 88.701088,92.808863 88.666345,102.14607 C 88.626886,112.73511 98.424883,103.85716 98.424883,103.85716 C 97.601719,107.94368 95.049057,111.12866 91.420124,113.08098 L 79.549465,113.08098 C 75.997846,111.4543 74.169266,107.61713 74.202321,103.85716 C 74.202323,103.85716 83.462819,112.13804 83.64003,102.35996 C 83.828571,92.058591 73.828021,99.820066 73.828021,99.820066 C 73.828021,99.820069 75.97548,95.36541 74.229057,90.649715 C 73.668077,89.997499 72.692273,89.726125 71.608957,89.687229 C 68.131862,70.734563 84.136244,72.026644 101.60643,74.073569 L 101.60643,70.036476 C 78.139656,66.439801 64.230886,68.632016 66.235077,90.622979 C 68.368737,101.49291 71.36815,114.8885 73.266571,122.99993 L 186.94685,122.99993 z"
       id="path1897" />
    <use
       transform="matrix(-1,0,0,1,260.21341,0)"
       id="use9811"
       x="0"
       y="0"
       width="301"
       height="494.51999"
       xlink:href="#path1901" />
    <path
       d="M 140.76207,72.649917 C 140.76207,78.531676 135.98846,83.305278 130.10671,83.305278 C 124.22495,83.305278 119.45134,78.531676 119.45134,72.649917 C 119.45134,66.768158 124.22495,61.994557 130.10671,61.994557 C 135.98846,61.994557 140.76207,66.768158 140.76207,72.649917 z"
       id="path1907" />
  </g>
  <use
     transform="translate(96.99555,178.0154)"
     id="use2991"
     x="0"
     y="0"
     width="251"
     height="304.20001"
     xlink:href="#Trifoil" />
  <path
     d="M 249.55062,1.4395041 L 1.449569,1.4395041 L 1.449569,174.9361 C 0.68232904,268.65698 81.739009,302.75585 125.5001,302.75585 C 168.49395,302.75585 250.31785,268.65698 249.55062,174.9361 L 249.55062,1.4395041 z"
     id="Frame"
     style="fill:none;fill-opacity:0;stroke:#000000;stroke-width:1.88832211;stroke-linejoin:bevel" />
</svg>
