<?xml version="1.0" encoding="UTF-8" standalone="no"?>
<!-- Created with Inkscape (http://www.inkscape.org/) -->
<svg
   xmlns:dc="http://purl.org/dc/elements/1.1/"
   xmlns:cc="http://web.resource.org/cc/"
   xmlns:rdf="http://www.w3.org/1999/02/22-rdf-syntax-ns#"
   xmlns:svg="http://www.w3.org/2000/svg"
   xmlns="http://www.w3.org/2000/svg"
   version="1.0"
   width="251"
   height="304.20001"
   id="svg4166">
  <defs
     id="defs4168" />
     <metadata
           id="metadata1880"><rdf:RDF><cc:Work
     	   rdf:about=""><dc:title>Mariestad vapen</dc:title><dc:date>19-05-2008</dc:date><dc:creator><cc:Agent><dc:title>Lokal_Profil</dc:title></cc:Agent></dc:creator><cc:license
     	   rdf:resource="http://creativecommons.org/licenses/by-sa/2.5/" /><dc:rights><cc:Agent><dc:title>cc-by-sa-2.5</dc:title></cc:Agent></dc:rights><dc:format>image/svg+xml</dc:format><dc:type
     	   rdf:resource="http://purl.org/dc/dcmitype/StillImage" /></cc:Work><cc:License
     	   rdf:about="http://creativecommons.org/licenses/by-sa/2.5/"><cc:permits
     	   rdf:resource="http://web.resource.org/cc/Reproduction" /><cc:permits
     	   rdf:resource="http://web.resource.org/cc/Distribution" /><cc:requires
     	   rdf:resource="http://web.resource.org/cc/Notice" /><cc:requires
     	   rdf:resource="http://web.resource.org/cc/Attribution" /><cc:permits
     	   rdf:resource="http://web.resource.org/cc/DerivativeWorks" /><cc:requires
     	   rdf:resource="http://web.resource.org/cc/ShareAlike" /></cc:License></rdf:RDF>
     </metadata>
  <path
     d="M 249.55058,1.4395041 L 1.4495291,1.4395041 L 1.4495291,174.9361 C 0.68228908,268.65698 81.738969,302.75585 125.50006,302.75585 C 168.49391,302.75585 250.31781,268.65698 249.55058,174.9361 L 249.55058,1.4395041 z "
     style="fill:#ffcd50;stroke:none"
     id="Shield" />
  <g
     transform="matrix(0.404596,0.206152,-0.206152,0.404596,95.02291,-77.24115)"
     style="fill:#d40000;stroke:#ffcd50;stroke-width:4.17157078px;stroke-linecap:butt;stroke-linejoin:miter"
     id="Bull">
    <path
       d="M 44.085972,280.68345 C -27.141476,278.7674 53.328171,235.3957 12.086268,199.21763 C 71.850822,202.15525 36.721272,232.14884 53.262176,278.52437 L 44.085972,280.68345 z "
       id="path77543" />
    <path
       d="M 158.09125,431.00667 L 110.43798,436.75072 C 101.59617,439.21278 91.53609,437.77634 89.580124,462.2731 C 86.437554,506.49513 65.132298,502.12583 77.358714,537.45507 L 84.182319,548.59692 C 95.522443,539.75749 110.58628,535.88301 117.99486,521.8015 C 112.42682,534.15498 96.197529,540.11174 84.182319,548.59692 C 90.594942,559.44363 96.321466,570.97644 108.27886,576.27838 L 126.43783,561.35809 L 102.88109,537.26155 L 126.43783,561.35809 L 147.83545,545.898 C 137.88858,534.95054 127.94172,528.66603 117.99486,523.42082 L 136.6936,519.10258 C 130.49055,512.0701 120.92602,507.27855 110.43798,503.10273 C 116.95268,495.67625 120.29419,485.71115 119.61418,472.52887 C 152.32084,474.45471 173.48548,467.00908 196.7618,463.54614 L 158.09125,431.00667 z "
       id="path76656" />
    <path
       d="M 112.74982,288.58665 C 191.81607,257.41864 182.21299,250.59178 269.43837,281.22325 C 332.08648,303.22374 334.75499,311.4595 384.28898,308.90471 L 413.78328,427.03471 C 384.63922,433.34876 274.48659,491.30824 217.42614,464.97198 C 237.53361,441.21276 229.72322,419.44767 231.46038,397.00061 C 230.82309,420.0631 235.93857,442.71469 216.34657,467.1311 C 226.49175,480.26751 220.14533,496.2946 212.02833,500.88937 C 209.21089,531.20464 218.31639,540.13672 225.79235,564.01859 L 207.90365,557.03985 L 211.37878,566.45162 C 210.34352,576.14005 211.09461,585.82844 204.66497,595.51687 L 178.40931,594.97711 L 188.47159,564.05697 L 178.40931,594.97711 L 150.53433,594.97711 C 158.0915,582.75187 161.95584,571.69553 174.0911,564.05697 L 209.86925,565.13653 L 174.0911,564.05697 C 184.66061,548.04615 188.394,523.65197 184.57047,501.88392 C 168.14228,489.76621 174.34916,465.59075 180.56843,459.22794 C 162.64302,433.1522 170.21747,420.03119 176.25018,400.43281 C 170.51115,420.48764 162.50578,433.33283 180.56843,458.68814 C 156.95125,437.57894 132.73077,407.42028 110.43798,406.17686 C 140.8348,393.74841 153.42377,373.48455 147.83545,345.22261 C 153.39006,373.47191 140.65179,393.80423 110.78426,405.87133 C 99.711535,410.83116 92.182767,415.79104 88.307044,420.75087 C 76.447518,430.32141 70.726083,436.05924 48.750455,432.97228 C 30.074999,430.3489 16.650717,406.83889 43.739689,389.29096 C 50.51236,315.35487 22.681265,318.08667 46.784811,295.41022 C 37.619828,291.83977 33.674106,277.73577 48.134273,266.64924 C 58.627401,259.82505 72.986824,265.67977 87.960762,271.50724 C 119.12261,249.54025 60.399484,209.80904 109.01214,191.66074 C 105.08197,232.4215 164.18771,252.00798 113.13686,288.04685 C 86.366929,294.41985 89.335211,281.77269 87.400603,271.85348 C 89.549713,281.7391 86.130193,294.60803 112.51626,288.58611 C 133.35822,289.0832 152.31012,287.69027 175.71043,290.74573 C 160.14629,320.3127 145.7525,332.96975 118.53466,305.12627 C 145.45719,332.6082 160.66248,320.29389 176.25018,290.74573 L 112.74982,288.58665 z "
       id="path74880" />
    <path
       d="M 46.931525,296.78312 C 72.75405,299.85448 76.801809,268.00066 63.324464,264.07354 L 75.079493,267.86179 C 60.517748,296.60579 89.498862,310.22455 100.35225,290.0593"
       id="path80204" />
    <path
       d="M 82.97953,425.31557 C 84.346512,412.59165 86.8097,396.75562 59.176338,390.03038 L 71.42115,342.27728"
       id="path81093" />
    <path
       d="M 69.262028,349.81076 C 71.009875,340.26186 75.184783,319.9416 111.93407,313.61604 L 104.79372,315.35863 C 121.23972,356.6002 75.111572,360.48794 70.734718,344.82948 L 69.262028,349.81076 z "
       id="Bull-Eye-1" />
    <path
       d="M 75.592721,333.66423 C 82.274451,341.53816 84.906838,339.15231 90.389784,338.89196 C 88.259947,333.31382 87.57485,327.44672 89.040322,321.14952 C 83.478242,323.86125 81.154802,326.08724 75.592721,333.66423 z "
       id="Bull-Eye-2" />
    <path
       d="M 52.182615,418.05199 C 58.577509,412.00655 59.808623,411.68362 67.642708,414.27354"
       id="path85532" />
    <path
       d="M 397.80999,266.65683 C 462.60602,274.35111 406.37398,179.25685 330.49718,199.85598 C 308.78601,205.06917 287.20144,212.07708 263.46472,188.58443 L 232.92063,183.74682 L 251.3648,174.39257 L 191.27137,186.81694 C 212.02637,165.41027 236.83721,136.39551 278.73238,165.51559 C 297.33217,178.44379 316.27088,191.02665 345.47591,182.41372 C 400.49479,166.18795 423.19696,206.48267 422.57589,237.81964 C 434.23525,295.95265 392.8356,338.17264 397.80999,266.65683 z "
       style="stroke-width:4.17157078"
       id="svans" />
  </g>
  <path
     d="M 249.5625,39.53125 C 248.00565,42.5802 246.18721,45.479199 243.96875,48.03125 C 227.18037,67.344081 215.35088,57.06218 198.5625,76.375 C 181.77412,95.687831 193.6009,105.96841 176.8125,125.28125 C 160.02413,144.59405 148.19464,134.34341 131.40625,153.65625 C 114.61786,172.96908 126.44463,183.21845 109.65625,202.53125 C 92.867868,221.84406 81.06963,211.59342 64.28125,230.90625 C 49.237757,248.2118 57.115131,258.23658 46.84375,274.03125 C 66.133956,289.24246 88.541204,297.80928 107.78125,301.125 C 110.99988,293.92411 115.2204,286.42828 120.78125,280.03125 C 137.56964,260.71843 149.36788,270.96906 166.15625,251.65625 C 182.94462,232.34344 171.14912,222.09407 187.9375,202.78125 C 204.72591,183.46844 216.52412,193.71906 233.3125,174.40625 C 247.73619,157.81368 241.08407,147.89775 249.5625,133.1875 L 249.5625,39.53125 z "
     style="fill:#003d8f"
     id="Stream" />
  <path
     d="M 249.55062,1.4395041 L 1.449569,1.4395041 L 1.449569,174.9361 C 0.68232904,268.65698 81.739009,302.75585 125.5001,302.75585 C 168.49395,302.75585 250.31785,268.65698 249.55062,174.9361 L 249.55062,1.4395041 z "
     style="fill:none;fill-opacity:0;stroke:#000000;stroke-width:1.88832211"
     id="Frame" />
</svg>
