<?xml version="1.0" encoding="UTF-8" standalone="no"?>
<!-- Created with Inkscape (http://www.inkscape.org/) -->

<svg
   xmlns:svg="http://www.w3.org/2000/svg"
   xmlns="http://www.w3.org/2000/svg"
   version="1.0"
   width="251"
   height="304.20001"
   id="svg4166">
  <defs
     id="defs4168" />
  <path
     d="m 249.55058,1.4395041 -248.1010509,0 0,173.4965959 C 0.68228908,268.65698 81.738969,302.75585 125.50006,302.75585 c 42.99385,0 124.81775,-34.09887 124.05052,-127.81975 l 0,-173.4965959 z"
     id="Shield"
     style="fill:#d40000;stroke:none" />
  <g
     transform="translate(229.13767,67.819483)"
     id="g3345">
    <path
       d="m 153.41689,45.432468 a 28.312988,29.629871 0 1 1 -56.625981,0 28.312988,29.629871 0 1 1 56.625981,0 z"
       transform="translate(-230.45455,-67.161042)"
       id="path3341"
       style="fill:#eeeeee;stroke:#d40000;stroke-width:0.68300003" />
    <path
       d="m 153.41689,45.432468 a 28.312988,29.629871 0 1 1 -56.625981,0 28.312988,29.629871 0 1 1 56.625981,0 z"
       transform="matrix(0.7817777,0,0,0.7692543,-203.15409,-56.677695)"
       id="path3343"
       style="fill:#d40000;stroke:#d40000;stroke-width:0.68300003" />
  </g>
  <path
     d="m 51.441714,112.82483 c -3.736509,1.64902 -12.89053,-2.63373 -13.605858,-3.48423 -0.963453,-1.14552 -12.879232,-5.2344 -13.658642,-3.91302 -0.142973,2.03886 5.198811,3.61116 5.727782,4.31521 l -2.652267,7.35727 c 1.807738,2.16806 10.357343,1.77117 10.357343,1.77117 l 13.766089,4.39738"
     id="V-hand"
     style="fill:#eeeeee;stroke:#d40000;stroke-width:0.68300003" />
  <path
     d="m 194.69189,84.934743 c 6.48148,-4.744612 11.78199,-13.333483 12.49732,-14.183988 0.96345,-1.145522 10.08147,-5.136032 10.86089,-3.814656 0.14297,2.038864 -5.19882,3.611163 -5.72779,4.315214 l 2.65226,7.357267 c -1.80773,2.168062 -6.66218,3.78762 -6.66218,3.78762 -3.72496,2.868381 -5.27109,5.736762 -7.90665,8.605143"
     id="H-hand"
     style="fill:#eeeeee;stroke:#d40000;stroke-width:0.68300003" />
  <path
     d="m 139.12223,39.526934 c -0.39185,-7.94492 -6.10023,-11.579805 -14.29175,-12.334556 -8.31856,0.366561 -16.89762,6.670815 -16.15624,12.864727 1.47069,7.277521 -3.72371,9.107725 -7.28746,14.684879 -6.414794,7.853929 -7.967454,17.132723 -4.745857,26.143456 19.740687,-0.534277 52.133207,1.558587 55.634217,-2.001915 2.65788,-9.589428 2.89149,-14.114138 -3.21803,-22.751166 -3.5167,-5.70866 -9.55632,-11.444809 -9.93488,-16.605425 z"
     id="Hair"
     style="fill:#eeeeee;stroke:#d40000;stroke-width:0.68300003" />
  <g
     transform="matrix(0.1414978,0,0,0.1318317,-10.412733,-0.2655466)"
     id="Dress"
     style="fill:#eeeeee;stroke:#d40000;stroke-width:5.00075912">
    <path
       d="m 955.27309,2180.0733 c -2.32851,35.7039 -53.4219,73.4664 -63.64603,72.9601 -26.6032,-1.3173 -43.46559,-47.3464 -38.80856,-71.4077"
       id="path4974"
       style="fill:#eeeeee;stroke:#d40000;stroke-width:5.00075912" />
    <path
       d="m 1060.0609,2173.0878 c 2.3285,35.7039 53.4219,73.4664 63.646,72.9601 26.6032,-1.3173 43.4656,-47.3464 38.8086,-71.4077"
       id="use4976"
       style="fill:#eeeeee;stroke:#d40000;stroke-width:5.00075912" />
    <path
       d="M 515.16138,852.93764 C 643.02304,830.96142 666.19057,672.31226 728.43915,625.61567 767.60509,596.23482 866.38979,593.1045 866.38979,593.1045 l 189.07351,-5.82268 c 0,0 84.298,-9.57976 111.834,15.21395 151.1239,136.07341 159.5664,76.24063 229.4907,82.23415 l -41.0744,319.45988 C 1283.7914,988.20709 1137.6975,885.61965 1137.6975,885.61965 L 785.83788,997.85463 c 0,0 -112.15173,88.47917 -171.23055,119.82537 -35.35192,18.757 -106.75396,1.5967 -111.74856,-10.3903 l 12.30261,-254.35206 z"
       id="path4930"
       style="fill:#eeeeee;stroke:#d40000;stroke-width:5.00075912" />
    <path
       d="m 543.42671,982.40106 c -2.46776,70.66744 -21.77364,127.55674 -38.14267,126.98514 -16.36903,-0.5716 -25.64221,-58.3888 -23.17445,-129.05622 2.46776,-70.66742 15.74658,-127.55676 32.11561,-126.98514 16.36903,0.57162 31.66927,58.3888 29.20151,129.05622 z"
       id="path4932"
       style="fill:#eeeeee;stroke:#d40000;stroke-width:5.00075912" />
    <path
       d="m 519.85087,857.29573 c -27.55408,6.40341 -81.25368,-12.05006 -92.27036,-1.45566 -0.90023,57.19025 -7.68048,72.08254 -10.54584,83.05938 26.75135,18.44607 119.32055,19.07626 124.36127,18.06812"
       id="path4960"
       style="fill:#eeeeee;stroke:#d40000;stroke-width:5.00075912" />
    <path
       d="m 1404.2073,848.58269 c -11.4851,87.23776 -30.6357,156.21641 -47.6976,153.97021 -17.0619,-2.2463 -21.588,-74.87101 -10.1029,-162.10876 11.4851,-87.23778 34.0875,-158.19761 51.1494,-155.95137 17.0619,2.24624 18.1361,76.85215 6.6511,164.08992 z"
       id="path4937"
       style="fill:#eeeeee;stroke:#d40000;stroke-width:5.00075912" />
    <path
       d="m 1146.9067,669.39196 c 16.8922,518.82784 200.7497,1285.35684 141.2685,1493.20814 -133.1823,43.8894 -557.01394,42.6231 -574.96287,11.3015 -67.29499,-207.2943 52.89878,-825.6007 57.92009,-1262.94048"
       id="path4939"
       style="fill:#eeeeee;stroke:#d40000;stroke-width:5.00075912" />
    <path
       d="m 775.37048,721.66131 c 2.82537,172.34758 5.65074,193.53786 93.23721,190.71249"
       id="path4941"
       style="fill:#eeeeee;stroke:#d40000;stroke-width:5.00075912" />
    <path
       d="m 1073.447,916.61186 c 28.2537,7.76977 91.8246,-3.88489 81.406,-104.36211 0,0 -7.844,-142.44844 -7.844,-142.44844"
       id="path4943"
       style="fill:#eeeeee;stroke:#d40000;stroke-width:5.00075912" />
    <path
       d="m 1391.3217,688.52789 c 0.849,5.09451 47.4532,-32.23798 62.6475,-53.5307 11.7594,32.19395 34.1932,47.32692 44.1433,53.36608 -65.7707,74.5592 -96.3742,228.54637 -155.4845,222.16707"
       id="path4962"
       style="fill:#eeeeee;stroke:#d40000;stroke-width:5.00075912" />
  </g>
  <path
     d="m 112.00383,77.664068 c 4.77557,-4.091805 4.02804,-9.588665 3.9854,-15.11062 5.48997,2.936748 10.43047,2.967264 15.6712,0.57812 0.93806,5.402766 0.38375,12.506445 7.41918,13.817419 -2.57914,5.673141 -9.91022,7.23066 -13.81095,7.204547 -4.67167,-0.03127 -10.99384,-1.879394 -13.26483,-6.489466 z"
     id="Neck"
     style="fill:#eeeeee;stroke:#d40000;stroke-width:0.68300003" />
  <path
     d="m 118.3144,63.8791 c -4.93731,-2.28086 -5.02363,-4.838846 -5.50043,-9.295941 -0.71585,-6.691522 -0.57744,-16.05389 7.71765,-19.028851 4.95243,-1.776144 13.26113,0.423104 14.45463,7.587705 0.96919,5.818065 1.49895,12.806999 -1.27917,18.075444 -1.62611,3.08376 -10.02031,5.143492 -15.39268,2.661643 z"
     id="Face"
     style="fill:#eeeeee;stroke:#d40000;stroke-width:0.68300003" />
  <g
     transform="matrix(0.1414978,0,0,0.1318317,-10.412733,-0.2655466)"
     id="Face-lines"
     style="fill:#eeeeee;stroke:#d40000;stroke-width:5.00075912;stroke-linecap:round">
    <path
       d="m 894.73047,342.31952 c 4.3233,-5.28404 28.82203,-9.12696 36.98828,0.96075"
       id="path5065"
       style="fill:#eeeeee;stroke:#d40000;stroke-width:5.00075912" />
    <path
       d="m 932.15066,453.0178 c -0.52863,1.70897 0.13608,3.56161 1.63059,4.5447 5.52919,3.80132 13.48695,4.31269 22.0625,4.1875 8.57555,-0.12519 17.52722,-2.06395 24.03125,-3.88508 2.1401,-0.59543 3.27084,-2.69155 2.67541,-4.83165 -0.59544,-2.14011 -2.81303,-3.39231 -4.95313,-2.79688 0,0 -41.53478,-0.0489 -41.53478,-0.0489 -1.96171,0.0467 -3.13216,1.13307 -3.91184,2.8303 z"
       id="use5071"
       style="fill:#eeeeee;stroke:#d40000;stroke-width:5.00075912" />
    <path
       d="m 941.32609,420.61938 c 21.61652,0.96073 24.85368,-5.5589 18.73432,-44.19378 -4.79102,-30.24839 7.30934,-42.23777 24.14794,-40.27974 16.29945,1.89533 30.61395,3.05128 29.17285,-1.03184"
       id="path5069"
       style="fill:#eeeeee;stroke:#d40000;stroke-width:5.00075912" />
    <path
       d="m 916.34521,367.74074 c 0,2.75192 -2.40525,4.98536 -5.36885,4.98536 -2.9636,0 -5.36885,-2.23344 -5.36885,-4.98536 0,-2.75191 2.40525,-4.98535 5.36885,-4.98535 2.9636,0 5.36885,2.23344 5.36885,4.98535 z"
       id="path5079"
       style="fill:#eeeeee;stroke:#d40000;stroke-width:5.00075912" />
    <path
       d="m 1001.0963,367.74074 c 0,2.75192 -2.40526,4.98536 -5.36886,4.98536 -2.9636,0 -5.36885,-2.23344 -5.36885,-4.98536 0,-2.75191 2.40525,-4.98535 5.36885,-4.98535 2.9636,0 5.36886,2.23344 5.36886,4.98535 z"
       id="use5081"
       style="fill:#eeeeee;stroke:#d40000;stroke-width:5.00075912" />
  </g>
  <g
     transform="matrix(0.1598101,0,0,0.2719097,-11.54442,27.532658)"
     id="g13414"
     style="fill:#eeeeee;stroke:#d40000;stroke-opacity:1">
    <path
       d="m 254.81293,227.21933 c 10.21429,-41.60714 23.14285,-41.60714 32.85714,0 9.71429,41.60714 12.71429,92.82143 2,134.42857 -10.71429,41.60714 -28.14285,41.60714 -38.85714,0 -10.71429,-41.60714 -6.21429,-92.82143 4,-134.42857 z"
       id="rect4549"
       style="fill:#eeeeee;fill-opacity:1;fill-rule:nonzero;stroke:#d40000;stroke-width:5" />
    <g
       transform="translate(5.076465,0)"
       id="g4551"
       style="fill:#eeeeee;stroke:#d40000;stroke-opacity:1">
      <path
         d="m 244.45691,371.58029 41.41626,0 -6,385.85793 -14.70813,33.35539 -14.70813,-33.35539 -6,-385.85793 z"
         id="rect2770"
         style="fill:#eeeeee;fill-opacity:1;fill-rule:nonzero;stroke:#d40000;stroke-width:5;stroke-miterlimit:4;stroke-opacity:1" />
      <path
         d="m 263.15625,375.0625 1.49554,367.03125 4.50446,-367.03125 -6,0 z"
         id="path2773"
         style="fill:#eeeeee;fill-opacity:1;fill-rule:evenodd;stroke:#d40000;stroke-width:4;stroke-linecap:butt;stroke-linejoin:miter" />
    </g>
    <path
       d="m 259.28455,206.73275 c -0.38936,0.94352 -0.77026,1.87423 -1.125,2.8125 l 31.34375,18.25 c -0.31264,-1.33762 -0.64084,-2.66707 -0.96875,-4 l -29.25,-17.0625 z m -5.5,16.8125 c -0.26424,0.99761 -0.5256,1.9997 -0.78125,3 l 41,23.90625 c -0.21278,-1.29466 -0.42856,-2.58325 -0.65625,-3.875 l -39.5625,-23.03125 z m -4.15625,17.5625 c -0.21699,1.03067 -0.44868,2.06091 -0.65625,3.09375 l 47.875,27.875 c -0.11957,-1.23194 -0.24128,-2.45701 -0.375,-3.6875 L 249.6283,241.10775 z m -3.3125,18.09375 c -0.1624,1.05135 -0.31646,2.10332 -0.46875,3.15625 l 52.34375,30.5 c -0.0356,-1.17571 -0.0759,-2.35587 -0.125,-3.53125 l -51.75,-30.125 z m -2.3125,18.65625 c -0.10399,1.08517 -0.2197,2.16386 -0.3125,3.25 l 54.4375,31.71875 c 0.0423,-1.13759 0.0648,-2.26808 0.0937,-3.40625 l -54.21875,-31.5625 z m -1.28125,19.25 c -0.038,1.13205 -0.0684,2.27391 -0.0937,3.40625 l 54.125,31.53125 c 0.11581,-1.08998 0.20976,-2.18995 0.3125,-3.28125 L 242.7221,297.10775 z m 0,20 c 0.04,1.17772 0.0705,2.35407 0.125,3.53125 l 51.25,29.84375 c 0.0802,-0.36173 0.16909,-0.73404 0.25,-1.09375 0.11767,-0.67952 0.23147,-1.35092 0.34375,-2.03125 l -51.96875,-30.25 z m 1.46875,20.84375 c 0.18759,1.25305 0.37019,2.51769 0.5625,3.78125 l 45.1875,26.34375 c 0.28366,-0.99782 0.55259,-1.99429 0.8125,-3 l -46.5625,-27.125 z"
       id="path16111"
       style="fill:#eeeeee;fill-opacity:1;fill-rule:nonzero;stroke:#d40000;stroke-width:5;stroke-miterlimit:4;stroke-opacity:1" />
    <rect
       width="161.86885"
       height="21.377804"
       x="189.3071"
       y="358.07336"
       id="rect1882"
       style="fill:#eeeeee;fill-opacity:1;fill-rule:nonzero;stroke:#d40000;stroke-width:5" />
    <g
       transform="translate(0,4)"
       id="g5445"
       style="fill:#eeeeee;stroke:#d40000;stroke-opacity:1">
      <path
         d="m 317.69297,37.924389 c 0.006,15.904107 -12.88524,28.800078 -28.78934,28.800078 -15.90411,0 -28.79528,-12.895971 -28.78935,-28.800078 -0.006,-15.904107 12.88524,-28.8000781 28.78935,-28.8000781 15.9041,0 28.79527,12.8959711 28.78934,28.8000781 l 0,0 z"
         transform="translate(-18.66212,191.199)"
         id="path5443"
         style="fill:#eeeeee;fill-opacity:1;fill-rule:nonzero;stroke:#d40000;stroke-width:5" />
      <path
         d="m 161.6244,35.904083 c 0.003,7.812562 -6.32957,14.147454 -14.14214,14.147454 -7.81256,0 -14.14507,-6.334892 -14.14213,-14.147454 -0.003,-7.812562 6.32957,-14.147454 14.14213,-14.147454 7.81257,0 14.14508,6.334892 14.14214,14.147454 l 0,0 z"
         transform="matrix(0.859198,0,0,0.859198,143.525,198.2747)"
         id="path5441"
         style="fill:#eeeeee;fill-opacity:1;fill-rule:nonzero;stroke:#d40000;stroke-width:4.65550423" />
    </g>
  </g>
  <g
     id="g3310">
    <path
       d="m 31.424679,111.03423 c -0.186214,0.64748 -2.510401,0.63048 -3.990503,0.26098 -2.016543,-0.50342 -3.589049,-1.13491 -3.315816,-2.08497 0.279858,-0.97309 1.973958,-0.7644 3.990502,-0.26098 1.567873,0.39141 3.502029,1.43748 3.315817,2.08497 z"
       id="path5009"
       style="fill:#eeeeee;stroke:#d40000;stroke-width:0.68300003" />
    <path
       d="m 30.890984,113.43643 c -0.186509,0.67679 -2.60929,0.6827 -4.15638,0.31262 -2.107812,-0.50423 -3.754289,-1.14646 -3.48062,-2.13952 0.280306,-1.01713 2.04857,-0.81683 4.156382,-0.31261 1.638835,0.39204 3.667129,1.46273 3.480618,2.13951 z"
       id="use5012"
       style="fill:#eeeeee;stroke:#d40000;stroke-width:0.68300003" />
    <path
       d="m 30.963387,115.85338 c -0.151899,0.64369 -2.435488,0.72357 -3.906907,0.42215 -2.004712,-0.41065 -3.57943,-0.96554 -3.356546,-1.91003 0.22829,-0.96738 1.902195,-0.8328 3.906907,-0.42215 1.558675,0.31929 3.508446,1.26635 3.356546,1.91003 z"
       id="use5014"
       style="fill:#eeeeee;stroke:#d40000;stroke-width:0.68300003" />
    <path
       d="m 31.069962,117.85905 c -0.108349,0.59683 -2.199358,0.76557 -3.563683,0.55057 -1.858804,-0.29291 -3.330097,-0.73612 -3.171116,-1.61187 0.162837,-0.89697 1.704879,-0.66747 3.563683,-0.37456 1.44523,0.22775 3.279464,0.83902 3.171116,1.43586 z"
       id="use5016"
       style="fill:#eeeeee;stroke:#d40000;stroke-width:0.68300003" />
  </g>
  <path
     d="m 170.30584,101.50737 -5.86953,-34.561376 c 6.3145,-0.822121 13.63363,-1.233983 20.61725,-2.343703 9.26957,-1.473112 18.28088,-3.59101 26.80953,-3.816854 1.84255,0.471576 4.94513,24.33067 3.70474,34.582833 -6.30134,-1.187217 -30.17462,4.092709 -45.26198,6.13906 l -1e-5,4e-5 z"
     id="path3555"
     style="fill:#eeeeee;stroke:#d40000;stroke-width:0.48674312;stroke-opacity:1" />
  <g
     id="g3320">
    <path
       d="m 210.80262,72.542747 c 0.18623,0.647481 2.51041,0.63048 3.99051,0.260979 2.01654,-0.503418 3.58905,-1.134905 3.31581,-2.084966 -0.27985,-0.973094 -1.97395,-0.764401 -3.99049,-0.26098 -1.56788,0.391412 -3.50204,1.437485 -3.31583,2.084967 z"
       id="path5057"
       style="fill:#eeeeee;stroke:#d40000;stroke-width:0.68300003" />
    <path
       d="m 211.33632,74.944952 c 0.18651,0.676787 2.60929,0.682703 4.15639,0.312613 2.10781,-0.504222 3.75429,-1.146451 3.48062,-2.139511 -0.28031,-1.017136 -2.04858,-0.816836 -4.15639,-0.312613 -1.63884,0.392037 -3.66713,1.462726 -3.48062,2.139511 z"
       id="path5059"
       style="fill:#eeeeee;stroke:#d40000;stroke-width:0.68300003" />
    <path
       d="m 211.26392,77.361903 c 0.1519,0.643683 2.43549,0.723563 3.90691,0.422151 2.00471,-0.410655 3.57943,-0.965545 3.35654,-1.910032 -0.22829,-0.967385 -1.9022,-0.832806 -3.9069,-0.422152 -1.55868,0.319287 -3.50845,1.266349 -3.35655,1.910033 z"
       id="path5061"
       style="fill:#eeeeee;stroke:#d40000;stroke-width:0.68300003" />
    <path
       d="m 211.15734,79.367566 c 0.10835,0.596834 2.19936,0.765569 3.56368,0.550575 1.85881,-0.292915 3.33011,-0.736122 3.17112,-1.611867 -0.16283,-0.896976 -1.70488,-0.667478 -3.56368,-0.374561 -1.44523,0.227744 -3.27946,0.839019 -3.17112,1.435853 z"
       id="path5063"
       style="fill:#eeeeee;stroke:#d40000;stroke-width:0.68300003" />
  </g>
  <path
     d="m 172.71755,87.261647 0,0 z"
     id="path4270"
     style="fill:none;stroke:#000000;stroke-width:1px;stroke-linecap:butt;stroke-linejoin:miter;stroke-opacity:1" />
  <path
     d="m 181.34289,86.505198 c -1.27912,0.108829 -2.56294,-0.03181 -3.51497,-0.38505 -1.10212,-0.408915 -2.17088,-1.400392 -2.66038,-2.467969 -0.30462,-0.664414 -0.28534,-1.024573 0.0814,-1.518105 0.61786,-0.831593 3.2538,-2.541139 6.58878,-4.273179 1.79851,-0.934056 2.67806,-1.279103 4.5397,-1.780907 4.68771,-1.263583 5.8916,-1.521621 7.80069,-1.672014 0.83621,-0.06587 2.54802,-0.249374 3.80402,-0.407776 1.256,-0.158405 2.86788,-0.359577 3.58196,-0.447066 l 1.29833,-0.159066 0.42947,2.956157 c 0.23621,1.625882 0.54008,3.631176 0.67527,4.456213 l 0.2458,1.500055 -1.6417,0.26844 c -3.83769,0.627492 -7.40028,0.978936 -8.71848,0.860069 -0.58927,-0.05314 -0.62937,-0.0465 -1.41825,0.235078 -1.65777,0.591712 -3.85051,0.920672 -5.16369,0.774677 -0.43718,-0.04861 -0.45024,-0.04453 -0.88762,0.276762 -1.0653,0.782539 -3.53158,1.655319 -5.04029,1.783681 l 0,0 z m 1.4833,-2.378152 c 0.978,-0.278306 2.15434,-0.876365 2.45846,-1.249887 0.13149,-0.161487 0.3177,-0.501989 0.41382,-0.756663 0.28498,-0.755151 0.2836,-0.752978 0.39947,-0.625872 0.055,0.0603 0.11376,0.190632 0.13069,0.289638 0.0522,0.305268 0.26972,0.554928 0.55651,0.638696 0.58588,0.171123 3.39207,-0.159637 4.70295,-0.554344 0.32724,-0.09852 0.81932,-0.296011 1.09352,-0.438859 0.42487,-0.221357 0.55953,-0.351282 0.91158,-0.879541 0.41052,-0.616019 0.4136,-0.61851 0.50393,-0.408513 0.05,0.116217 0.0777,0.276019 0.0616,0.355126 -0.0405,0.199036 0.20266,0.64219 0.37197,0.677751 0.0767,0.01613 0.64714,0.02209 1.2676,0.01328 0.82461,-0.01172 1.76486,-0.106503 3.49477,-0.352298 l 2.36666,-0.336271 -0.0198,-0.450845 c -0.0109,-0.247957 -0.15921,-1.303346 -0.32956,-2.345304 l -0.30969,-1.894464 -0.39253,0.0176 c -0.21588,0.0097 -0.97993,0.0905 -1.69788,0.179625 -1.24837,0.154984 -2.68385,0.267334 -4.41082,0.345245 -0.81843,0.03692 -0.91579,0.05887 -3.43859,0.775331 -0.54685,0.155302 -2.00912,0.49012 -3.24946,0.744028 -1.37992,0.282483 -2.42762,0.536198 -2.69944,0.653699 -0.24435,0.105622 -0.87074,0.339519 -1.392,0.51976 -1.46246,0.505698 -1.53661,0.585388 -1.00193,1.076704 0.99335,0.912776 0.5244,2.007067 -1.20444,2.81064 -0.31032,0.144238 -0.78381,0.321941 -1.05221,0.394912 l -0.488,0.132657 -0.15547,-0.257661 c -0.1938,-0.32121 -0.77927,-0.817793 -1.25069,-1.060851 l -0.35767,-0.184402 -0.39451,0.288024 c -0.53308,0.389223 -0.644,0.54346 -0.59702,0.830196 0.10709,0.653485 1.37181,1.445964 2.50477,1.569468 0.40194,0.04382 2.32242,-0.265881 3.20347,-0.516599 l 0,0 z m -1.92744,-1.996503 c 0.65537,-0.291248 1.34282,-0.809338 1.31326,-0.989742 -0.0356,-0.217253 -0.28798,-0.442466 -0.73374,-0.65477 l -0.40057,-0.190767 -0.63107,0.349586 c -0.73439,0.406837 -1.27579,0.733066 -1.27047,0.765554 0.002,0.01254 0.23919,0.202334 0.52695,0.421771 0.28777,0.219435 0.52831,0.430001 0.53452,0.467915 0.0159,0.09685 0.12412,0.06909 0.66111,-0.169545 l 1e-5,-2e-6 z"
     id="path2499"
     style="fill:#d40000;stroke:#d40000;stroke-width:0.08252256" />
  <path
     d="m 249.55062,1.4395041 -248.101051,0 0,173.4965959 c -0.76723996,93.72088 80.28944,127.81975 124.050531,127.81975 42.99385,0 124.81775,-34.09887 124.05052,-127.81975 l 0,-173.4965959 z"
     id="Frame"
     style="fill:none;stroke:#000000;stroke-width:1.88832211;stroke-linejoin:bevel" />
</svg>
