<?xml version="1.0" encoding="UTF-8" standalone="no"?>
<!-- Created with Inkscape (http://www.inkscape.org/) -->
<svg
   xmlns:dc="http://purl.org/dc/elements/1.1/"
   xmlns:cc="http://web.resource.org/cc/"
   xmlns:rdf="http://www.w3.org/1999/02/22-rdf-syntax-ns#"
   xmlns:svg="http://www.w3.org/2000/svg"
   xmlns="http://www.w3.org/2000/svg"
   xmlns:xlink="http://www.w3.org/1999/xlink"
   version="1.0"
   width="251"
   height="304.20001"
   id="svg4166">
  <defs
     id="defs4168" />
  <metadata
     id="metadata1880"><rdf:RDF><cc:Work
         rdf:about=""><dc:title>Tidaholm kommunvapen</dc:title><dc:date>2008-08-08</dc:date><dc:creator><cc:Agent><dc:title>Lokal_Profil</dc:title></cc:Agent></dc:creator><cc:license
         rdf:resource="http://creativecommons.org/licenses/by-sa/2.5/" /><dc:rights><cc:Agent><dc:title>cc-by-sa-2.5</dc:title></cc:Agent></dc:rights><dc:format>image/svg+xml</dc:format><dc:type
         rdf:resource="http://purl.org/dc/dcmitype/StillImage" /></cc:Work><cc:License
         rdf:about="http://creativecommons.org/licenses/by-sa/2.5/"><cc:permits
         rdf:resource="http://web.resource.org/cc/Reproduction" /><cc:permits
         rdf:resource="http://web.resource.org/cc/Distribution" /><cc:requires
         rdf:resource="http://web.resource.org/cc/Notice" /><cc:requires
         rdf:resource="http://web.resource.org/cc/Attribution" /><cc:permits
         rdf:resource="http://web.resource.org/cc/DerivativeWorks" /><cc:requires
         rdf:resource="http://web.resource.org/cc/ShareAlike" /></cc:License></rdf:RDF>
  </metadata>
  <path
     d="M 249.55058,1.4395041 L 1.4495291,1.4395041 L 1.4495291,174.9361 C 0.68228908,268.65698 81.738969,302.75585 125.50006,302.75585 C 168.49391,302.75585 250.31781,268.65698 249.55058,174.9361 L 249.55058,1.4395041 z"
     id="Shield"
     style="fill:#eeeeee;stroke:none" />
  <path
     d="M 1.1,1.0980224 L 1.1,91.292012 L 249.6,91.292012 L 249.6,1.0980224 L 125.35,1.0980224 L 1.1,1.0980224 z"
     id="Chef"
     style="fill:#003d8f;fill-opacity:1;fill-rule:nonzero;stroke:none;stroke-width:1.88832211;stroke-linecap:round;stroke-linejoin:bevel;marker:none;marker-start:none;marker-mid:none;marker-end:none;stroke-miterlimit:4;stroke-dashoffset:0;stroke-opacity:1;visibility:visible;display:block" />
  <g
     transform="matrix(0.6113974,0,0,0.6113974,-23.890151,-127.68209)"
     id="Vulkan">
    <g
       id="Eldar"
       style="fill:#d40000;stroke:none">
      <use
         transform="matrix(-1,0,0,1,499.52772,-3.3831711)"
         id="use10559"
         x="0"
         y="0"
         width="509.27939"
         height="871.09052"
         xlink:href="#use10555" />
      <path
         d="M 241.43298,498.5521 C 239.29364,497.07808 230.81283,488.85058 230.81283,488.85058 C 225.76582,481.02102 218.31104,470.11643 212.55904,463.562 C 214.65958,462.99084 219.90831,467.39971 222.53668,469.35752 C 216.08521,457.59057 209.18439,447.92486 203.62115,443.47147 C 205.4061,442.45168 209.1583,445.27396 213.42761,448.44681 C 212.28684,444.84221 207.67806,439.37816 203.08239,433.57823 C 201.06139,430.67524 198.84694,427.37705 198.52175,425.15417 C 209.62456,437.4043 211.89431,433.52245 225.10105,446.41398 C 223.4728,442.99972 221.14132,439.80557 217.88862,436.05295 C 221.86929,436.64628 230.86619,444.12413 242.10944,456.24943 C 242.26883,454.48706 239.78955,450.4519 236.86342,446.00378 C 243.41071,449.98735 249.80089,456.54166 255.57498,465.99366 C 255.57498,465.99366 263.89425,478.72834 263.89425,478.72834 C 263.89425,478.72834 264.97779,507.64976 264.97779,507.64976 C 249.42813,521.93694 243.42831,519.39215 241.43298,498.5521 z"
         id="use10555" />
      <path
         d="M 228.01086,485.55638 C 233.94248,478.36199 219.7622,467.36739 226.57664,461.52886 C 227.73651,448.93762 228.92523,431.01439 228.36529,419.08589 C 230.925,420.41124 232.68482,429.689 233.76468,434.07939 C 236.64435,416.18655 237.40427,400.03331 235.3645,390.42419 C 237.9642,391.00409 239.48405,397.29967 241.24383,404.42365 C 242.96364,399.70195 242.68368,389.92719 242.68368,379.821 C 242.96364,375.01643 243.36359,369.63203 244.80344,367.06412 C 246.20326,389.67862 251.56268,387.77338 254.56233,412.95589 C 255.64221,407.98568 255.84219,402.60126 255.56222,395.80864 C 259.08183,400.03331 262.16146,415.8552 263.80126,438.46975 C 265.3611,436.81301 266.08101,430.43453 266.68097,423.22774 C 270.08058,433.25101 271.28044,445.75946 269.56064,460.67012 C 260.55181,477.53213 281.56779,468.63977 268.29314,485.62036 C 276.65064,509.56458 272.84092,511.32829 245.89558,511.80009 C 218.9558,512.27178 210.00267,509.86663 228.01086,485.55638 z"
         id="Eld" />
    </g>
    <g
       id="Berg">
      <path
         d="M 115.8125,168.90625 C 108.62996,174.24333 102.1875,190.125 102.1875,190.125 C 102.18748,190.12496 89.077302,201.4304 86.84375,207.0625 C 85.179195,211.25982 64.46875,229.125 64.46875,229.125 L 47.125,245.46875 C 47.125001,245.46876 37.04732,256.29719 34.25,260.8125 C 34.031574,261.16507 33.819178,261.55226 33.59375,261.9375 C 60.91116,290.88764 99.693793,302.75 125.5,302.75 C 150.83498,302.74999 189.63705,290.90338 217.09375,262 L 212.34375,255.21875 L 203.625,246.15625 L 184.59375,226.90625 L 173.09375,204.125 L 160.8125,188.53125 C 160.8125,188.53122 153.59633,185.05231 149.75,178.84375 C 148.0842,176.15491 141.98435,172.09032 140.1875,169.1875 C 139.71468,172.60007 143.94072,177.72689 141.3125,180.21875 C 138.59152,177.83751 137.64168,173.71317 135.09375,170.875 C 133.2157,172.01124 132.60617,175.22461 132.5625,177.15625 C 131.63315,194.085 128.76126,171.18608 124.40625,170.0625 C 121.59207,172.55449 122.32981,181.23902 119.1875,183.46875 C 116.00008,179.56321 121.29153,174.46661 119.34375,170.375 C 116.27625,173.41236 115.16715,178.4554 110.9375,180.125 C 109.55666,178.74441 115.43167,170.61794 115.8125,168.90625 z"
         transform="matrix(1.6355974,0,0,1.6355974,39.074669,208.83649)"
         id="path10404"
         style="fill:#003d8f" />
      <path
         d="M 239.60723,526.88949 L 225.32768,543.29546 L 200.33846,561.88887"
         id="path8505"
         style="fill:none;stroke:#eeeeee" />
      <path
         d="M 202.32862,600.78154 L 159.48996,625.93735 L 152.35019,643.43704"
         id="path8507"
         style="fill:none;stroke:#eeeeee" />
      <path
         d="M 257.45668,589.97532 L 278.87601,598.72516 L 287.80073,615.13112 L 302.08028,619.50605 L 302.08028,619.50605 L 303.86522,630.44335"
         id="path8509"
         style="fill:none;stroke:#eeeeee" />
      <path
         d="M 269.78449,516.90557 L 276.92426,532.21781 L 287.63393,544.24885"
         id="path8511"
         style="fill:none;stroke:#eeeeee" />
    </g>
  </g>
  <path
     d="M 44.668336,16.781102 C 35.58427,17.500076 27.665465,22.359521 22.793202,29.473883 L 42.822378,41.038589 C 43.368985,40.57874 43.990557,40.211559 44.668336,39.949959 L 44.668336,16.781102 z M 49.362049,16.781102 L 49.362049,39.957846 C 50.037079,40.219305 50.663291,40.580349 51.207987,41.038589 L 71.237183,29.473883 C 66.364891,22.359521 58.446096,17.500076 49.362049,16.781102 z M 20.466049,33.536519 C 18.677456,37.32786 17.673475,41.556575 17.673475,46.024199 C 17.673475,50.575342 18.708722,54.887502 20.560712,58.732744 L 40.597795,47.160152 C 40.533155,46.792086 40.495235,46.41857 40.495235,46.032086 C 40.495235,45.733375 40.519366,45.436632 40.55834,45.148556 L 20.466049,33.536519 z M 73.564326,33.536519 L 53.472016,45.140669 C 53.511705,45.431248 53.527234,45.730664 53.527234,46.032086 C 53.527234,46.421497 53.490284,46.797356 53.424684,47.168039 L 73.469644,58.732744 C 75.321681,54.887502 76.356881,50.575352 76.3569,46.024199 C 76.3569,41.556575 75.35291,37.32786 73.564326,33.536519 z M 43.027489,51.175464 L 22.935188,62.779606 C 27.818369,69.784462 35.670049,74.562984 44.668336,75.275173 L 44.668336,52.106307 C 44.073493,51.876613 43.52331,51.559916 43.027489,51.175464 z M 51.002877,51.175464 C 50.507489,51.560067 49.95643,51.876283 49.362049,52.106307 L 49.362049,75.275173 C 58.360298,74.562984 66.211987,69.784471 71.095187,62.779606 L 51.002877,51.175464 z M 35.805004,11.266486 L 34.460035,11.728434 L 33.157258,12.280857 L 31.751018,9.2651302 L 30.100411,10.016462 L 28.569428,10.748735 L 25.620976,12.417337 L 24.090933,13.387813 L 22.69354,14.40658 L 24.592383,17.100811 L 23.451319,18.000029 L 22.391668,18.916368 L 19.897296,21.401253 L 18.945136,22.469394 L 18.066369,23.576763 L 15.319988,21.663239 L 14.27627,23.086156 L 13.312948,24.56338 L 11.623498,27.554043 L 10.836035,29.132839 L 10.137014,30.743803 L 13.231291,32.183013 L 12.704242,33.493507 L 12.265606,34.836189 L 11.316797,38.234156 L 11.003818,39.610062 L 10.786303,41.033215 L 7.340891,40.730665 L 7.1001757,42.458363 L 6.9921004,44.234354 L 6.9498698,47.686853 L 7.0589145,49.41666 L 7.2634322,51.193752 L 10.755235,50.88721 L 10.985004,52.285375 L 11.274058,53.692603 L 12.238962,57.060989 L 12.686849,58.375794 L 13.223178,59.722768 L 9.9963545,61.227474 L 10.794868,63.057996 L 11.449804,64.423116 L 13.160581,67.462034 L 13.609663,68.188848 L 14.102943,68.931784 L 15.149832,70.389478 L 18.087348,68.303756 L 18.972505,69.414655 L 19.902924,70.504453 L 22.387799,72.998853 L 23.419762,73.912791 L 24.579385,74.785563 L 22.471799,77.824358 L 23.8505,78.851982 L 25.356853,79.838438 L 28.369644,81.535935 L 29.941399,82.308311 L 31.59659,83.023427 L 33.155489,79.634693 L 34.451931,80.131577 L 35.808675,80.600358 L 39.221729,81.542156 L 40.590595,81.840067 L 42.0057,82.07969 L 41.67994,85.82962 L 43.393578,86.040198 L 45.18362,86.178429 L 48.681371,86.199549 L 50.404157,86.075436 L 52.203329,85.878965 L 51.859705,82.11074 L 53.235752,81.872933 L 54.665089,81.591935 L 58.06362,80.612951 L 59.378425,80.165083 L 60.695263,79.642815 L 62.284317,83.050561 L 63.836411,82.36354 L 65.465907,81.566975 L 68.519912,79.849149 L 68.861729,79.597968 L 69.225644,79.354843 L 69.975592,78.876641 L 70.689361,78.360227 L 71.410161,77.85889 L 69.276251,74.778636 L 71.46187,72.970081 L 73.941173,70.492246 L 74.857145,69.385893 L 75.758058,68.28658 L 78.795837,70.431351 L 79.810397,68.985318 L 80.276957,68.253733 L 80.773719,67.508104 L 82.479263,64.473206 L 82.806161,63.67825 L 82.981154,63.266231 L 83.185314,62.877319 L 83.91451,61.252283 L 80.593098,59.68033 L 81.089992,58.383888 L 81.572844,57.0573 L 82.514613,53.644255 L 82.623394,52.932679 L 82.699893,52.584933 L 82.798481,52.245234 L 82.899197,51.555766 L 83.022011,50.874344 L 86.638265,51.189008 L 86.827743,49.430147 L 86.94987,47.684312 L 86.947893,44.2157 L 86.860712,43.320142 L 86.802651,42.4477 L 86.619244,40.715841 L 83.083216,41.006279 L 82.831347,39.600076 L 82.578453,38.23105 L 81.599488,34.832519 L 81.107376,33.50162 L 80.615272,32.170721 L 83.766698,30.701187 L 83.141973,29.321996 L 82.283093,27.519606 L 80.570293,24.55506 L 79.576712,23.054147 L 78.565992,21.634646 L 75.751121,23.589742 L 73.949616,21.419201 L 71.464731,18.92481 L 70.381503,17.97969 L 69.28922,17.093883 L 71.202754,14.347512 L 69.734594,13.324886 L 68.286529,12.384679 L 65.309898,10.725394 L 63.685889,9.9590318 L 62.097023,9.2680479 L 60.713117,12.244754 L 59.342312,11.745827 L 58.029794,11.29314 L 54.638849,10.359399 L 53.217719,10.067512 L 51.876985,9.8299118 L 52.153352,6.525215 L 50.372373,6.3276903 L 48.619517,6.1904856 L 45.225305,6.1945044 L 43.458284,6.3025326 L 41.718406,6.5080667 L 42.007903,9.8058928 L 40.579592,10.049705 L 39.217587,10.317667 L 35.805004,11.266486 z M 44.661955,48.382297 L 49.37034,48.382297 L 49.37034,43.673921 L 44.661955,43.673921 L 44.661955,48.382297"
     id="Cogwheel-6spokes-square"
     style="fill:#eeeeee;fill-rule:evenodd;stroke:none" />
  <use
     transform="translate(156.80026,0)"
     id="Cog-2"
     x="0"
     y="0"
     width="251"
     height="304.20001"
     xlink:href="#Cogwheel-6spokes-square" />
  <g
     transform="matrix(0.4190477,0,0,0.4190477,62.283313,-109.1282)"
     id="Owl"
     style="fill:#eeeeee;stroke:#003d8f;stroke-width:1">
    <g
       transform="matrix(1.752675,0,0,1.752675,-660.0029,-288.363)"
       id="Owl-body">
      <path
         d="M 462.40327,430.60065 C 482.55972,430.60065 485.1144,418.24393 488.77269,410.91485 C 491.79709,404.85573 499.14786,379.92638 486.57717,358.23335 C 485.00209,355.51524 487.72652,341.33839 482.01442,334.26843 C 484.06288,331.03048 488.88784,329.91286 493.25274,328.79869 C 487.43592,323.44088 480.31975,326.85401 475.77793,328.79869 C 472.01673,325.79728 465.98479,324.71713 462.40327,324.7713 C 458.82178,324.71713 452.78984,325.79728 449.02864,328.79869 C 444.48682,326.85401 437.37065,323.44088 431.55384,328.79869 C 435.91874,329.91286 440.74369,331.03048 442.79215,334.26843 C 437.08005,341.33839 439.80448,355.51524 438.2294,358.23335 C 425.65871,379.92638 433.00948,404.85573 436.03388,410.91485 C 439.69218,418.24393 442.24686,430.60065 462.40327,430.60065 z"
         id="path4808" />
      <path
         d="M 462.47574,361.01445 C 460.71463,358.41061 460.43528,355.62358 461.20412,351.25422 C 459.4683,355.99786 456.67239,358.43412 451.35666,358.43412 C 444.01848,358.43412 441.25238,353.24001 440.99806,345.75637 C 440.72502,337.72231 446.65468,328.89869 452.38057,333.48817 C 456.15161,336.51078 460.85293,340.71194 462.47574,346.49154 C 464.09854,340.71194 468.79987,336.51078 472.57093,333.48817 C 478.2968,328.89869 484.22651,337.72231 483.95347,345.75637 C 483.69913,353.24001 480.93303,358.43412 473.59484,358.43412 C 468.27909,358.43412 465.48318,355.99786 463.74736,351.25422 C 464.51622,355.62358 464.23687,358.41061 462.47574,361.01445 z"
         id="path4820"
         style="stroke-width:0.81913126" />
      <path
         d="M 464.53015,346.48917 C 464.12632,352.03183 469.10409,355.99278 474.55574,356.32091 C 480.86641,356.09093 483.03888,351.46064 482.96483,345.01733 C 482.88543,338.10011 477.44291,330.74668 472.70008,334.91597 C 469.57646,337.66184 464.90127,341.39596 464.53015,346.48917 z"
         id="path4444"
         style="fill:#003d8f;stroke:none" />
      <path
         d="M 460.55409,346.48917 C 460.95792,352.03183 455.98014,355.99278 450.52849,356.32091 C 444.21782,356.09093 442.04535,351.46064 442.1194,345.01733 C 442.1988,338.10011 447.64133,330.74668 452.38415,334.91597 C 455.50777,337.66184 460.18297,341.39596 460.55409,346.48917 z"
         id="path4440"
         style="fill:#003d8f;stroke:none" />
      <path
         d="M 461.09567,346.63161 C 461.43689,351.31504 457.64033,353.77456 453.0338,354.05183 C 447.70142,353.8575 445.86575,349.945 445.92833,344.50054 C 445.9954,338.65564 450.43517,332.61982 454.19225,336.40881 C 455.49487,337.7225 457.28315,339.01452 458.64415,340.70384 C 460.00515,342.39316 460.93887,344.47979 461.09567,346.63161 z"
         id="path4446"
         style="stroke:none" />
      <path
         d="M 457.93805,344.93315 C 457.93805,346.95325 456.30043,348.59087 454.28033,348.59087 C 452.26022,348.59087 450.6226,346.95325 450.6226,344.93315 C 450.6226,342.91304 452.26022,341.27542 454.28033,341.27542 C 456.30043,341.27542 457.93805,342.91304 457.93805,344.93315 z"
         id="path4826"
         style="stroke-width:0.81913084" />
      <path
         d="M 456.59563,345.14503 C 456.59563,346.29103 455.66661,347.22005 454.52061,347.22005 C 453.37461,347.22005 452.44559,346.29103 452.44559,345.14503 C 452.44559,343.99903 453.37461,343.07001 454.52061,343.07001 C 455.66661,343.07001 456.59563,343.99903 456.59563,345.14503 z"
         id="path4828"
         style="fill:#003d8f;stroke:none" />
      <path
         d="M 463.96923,346.63161 C 463.62801,351.31504 467.42457,353.77456 472.0311,354.05183 C 477.36348,353.8575 479.19915,349.945 479.13657,344.50054 C 479.0695,338.65564 474.62973,332.61982 470.87265,336.40881 C 469.57003,337.7225 467.78175,339.01452 466.42075,340.70384 C 465.05975,342.39316 464.12603,344.47979 463.96923,346.63161 z"
         id="path11161"
         style="stroke:none" />
      <path
         d="M 467.00495,344.93315 C 467.00495,346.95325 468.64257,348.59087 470.66268,348.59087 C 472.68279,348.59087 474.3204,346.95325 474.3204,344.93315 C 474.3204,342.91304 472.68279,341.27542 470.66268,341.27542 C 468.64257,341.27542 467.00495,342.91304 467.00495,344.93315 z"
         id="path4306"
         style="stroke-width:0.81913084" />
      <path
         d="M 468.34737,345.14503 C 468.34737,346.29103 469.27639,347.22005 470.42239,347.22005 C 471.5684,347.22005 472.49741,346.29103 472.49741,345.14503 C 472.49741,343.99903 471.5684,343.07001 470.42239,343.07001 C 469.27639,343.07001 468.34737,343.99903 468.34737,345.14503 z"
         id="path4308"
         style="fill:#003d8f;stroke:none" />
      <path
         d="M 438.40582,358.01758 C 428.4178,373.54984 429.54952,394.60895 436.06153,410.84752 C 441.04124,397.02369 446.40536,360.64238 438.40582,358.01758 z"
         id="path3253" />
      <path
         d="M 486.46949,358.01758 C 496.45751,373.54984 495.32579,394.60895 488.81378,410.84752 C 483.83407,397.02369 478.46995,360.64238 486.46949,358.01758 z"
         id="path3256" />
      <path
         d="M 446.3812,331.13355 C 443.90584,329.54668 441.77634,328.54294 438.39123,328.70786 C 441.50329,330.05098 442.86427,330.70831 444.5537,332.13504 C 445.06942,331.77785 445.61189,331.42735 446.3812,331.13355 z"
         id="path4796"
         style="fill:#003d8f;stroke:none" />
      <path
         d="M 478.25562,331.13355 C 480.73097,329.54668 482.86047,328.54294 486.24558,328.70786 C 483.13352,330.05098 481.77254,330.70831 480.08311,332.13504 C 479.56739,331.77785 479.02492,331.42735 478.25562,331.13355 z"
         id="path4798"
         style="fill:#003d8f;stroke:none" />
    </g>
    <g
       transform="matrix(1.752675,0,0,1.752675,-660.0029,-288.363)"
       id="owl-foot">
      <path
         d="M 441.94366,432.69375 C 438.60528,429.31066 439.36612,420.80121 446.49593,421.86597 L 446.51503,425.53703 C 442.7926,424.48995 442.17565,429.64366 441.94366,432.69375 z"
         id="path2266" />
      <path
         d="M 440.03106,427.21632 C 440.10876,429.00901 440.46952,431.2083 441.93,432.67093 C 442.19809,430.3175 442.31552,429.15042 442.80314,427.62003 C 441.79192,427.65985 440.86031,427.54044 440.03106,427.21632 z"
         id="path3243" />
      <path
         d="M 447.40454,432.69375 C 443.41768,429.89088 443.46178,422.71252 447.14441,421.79771 C 448.77856,421.418 449.81932,422.44998 449.9861,425.56142 L 448.4946,425.57116 C 447.50261,425.51386 447.70479,428.92692 447.40454,432.69375 z"
         id="path3286" />
      <path
         d="M 444.50215,427.83067 C 445.02356,429.65749 445.4867,431.17417 447.39088,432.67093 C 447.54379,430.44762 447.64418,429.49387 447.64967,427.82482 C 446.57178,427.97035 445.49145,428.12809 444.50215,427.83067 z"
         id="path3288" />
    </g>
    <use
       transform="matrix(-1,0,0,1,300.7113,6.578128e-8)"
       id="owl-foot-2"
       x="0"
       y="0"
       width="301"
       height="805.92999"
       xlink:href="#owl-foot" />
  </g>
  <path
     d="M 249.55062,1.4395041 L 1.449569,1.4395041 L 1.449569,174.9361 C 0.68232904,268.65698 81.739009,302.75585 125.5001,302.75585 C 168.49395,302.75585 250.31785,268.65698 249.55062,174.9361 L 249.55062,1.4395041 z"
     id="Frame"
     style="fill:none;fill-opacity:0;stroke:#000000;stroke-width:1.88832211;stroke-linejoin:bevel" />
</svg>
