<?xml version="1.0" encoding="UTF-8" standalone="no"?>
<!-- Created with Inkscape (http://www.inkscape.org/) -->
<svg
   xmlns:dc="http://purl.org/dc/elements/1.1/"
   xmlns:cc="http://web.resource.org/cc/"
   xmlns:xlink="http://www.w3.org/1999/xlink"
   xmlns:rdf="http://www.w3.org/1999/02/22-rdf-syntax-ns#"
   xmlns:svg="http://www.w3.org/2000/svg"
   xmlns="http://www.w3.org/2000/svg"
   version="1.0"
   width="251"
   height="304.20001"
   id="svg4166">
<metadata
   id="metadata1880"><rdf:RDF><cc:Work
         rdf:about=""><dc:title>Falkoping kommunvapen</dc:title><dc:date>14-06-2007</dc:date><dc:creator><cc:Agent><dc:title>Lokal_Profil</dc:title></cc:Agent></dc:creator><cc:license
         rdf:resource="http://creativecommons.org/licenses/by-sa/2.5/" /><dc:rights><cc:Agent><dc:title>cc-by-sa-2.5</dc:title></cc:Agent></dc:rights><dc:format>image/svg+xml</dc:format><dc:type
         rdf:resource="http://purl.org/dc/dcmitype/StillImage" /></cc:Work><cc:License
         rdf:about="http://creativecommons.org/licenses/by-sa/2.5/"><cc:permits
         rdf:resource="http://web.resource.org/cc/Reproduction" /><cc:permits
         rdf:resource="http://web.resource.org/cc/Distribution" /><cc:requires
         rdf:resource="http://web.resource.org/cc/Notice" /><cc:requires
         rdf:resource="http://web.resource.org/cc/Attribution" /><cc:permits
         rdf:resource="http://web.resource.org/cc/DerivativeWorks" /><cc:requires
         rdf:resource="http://web.resource.org/cc/ShareAlike" /></cc:License></rdf:RDF>
</metadata>
  <defs
     id="defs4168" />
  <path
     d="M 249.55058,1.4395041 L 125.50008,1.4395041 L 1.4495291,1.4395041 L 1.4495291,174.9361 C 0.68228908,268.65698 81.738969,302.75585 125.50006,302.75585 C 168.49391,302.75585 250.31781,268.65698 249.55058,174.9361 L 249.55058,1.4395041 z "
     style="color:#000000;fill:#eeeeee;fill-opacity:1;fill-rule:nonzero;stroke:none;stroke-width:1.88832211;stroke-linecap:round;stroke-linejoin:bevel;marker:none;marker-start:none;marker-mid:none;marker-end:none;stroke-miterlimit:4;stroke-dashoffset:0;stroke-opacity:1;visibility:visible;display:block"
     id="Shield" />
  <g
     transform="translate(0,-12)"
     id="Torn">
    <path
       d="M 100.75806,127.85645 L 150.17753,127.85645 C 152.56785,127.85645 154.50091,129.76467 154.50091,132.1077 L 154.50091,236.1181 C 150.56433,237.37381 146.62743,238.36449 142.66604,239.08915 L 108.29471,239.03781 C 104.35781,238.31451 100.39641,237.34731 96.434683,236.14057 L 96.434683,132.10635 C 96.434683,129.76467 98.389884,127.8551 100.75806,127.8551 L 100.75806,127.85645 z "
       style="fill:#d40000;fill-opacity:1;fill-rule:evenodd;stroke:none"
       id="path2050" />
    <path
       d="M 96.337728,67.02206 L 102.23084,67.02206 L 102.23084,75.93486 L 109.50145,75.93486 L 109.50145,67.02206 L 115.66093,67.02206 L 115.66093,75.93486 L 122.9312,75.93486 L 122.9312,67.02206 L 129.06586,67.02206 L 129.06586,75.93486 L 136.33613,75.93486 L 136.33613,67.02206 L 142.47079,67.02206 L 142.47079,75.93486 L 149.76488,75.93486 L 149.76488,67.02206 L 154.78774,67.02206 L 154.78774,83.4715 L 96.333703,83.4715 L 96.333703,67.02206 L 96.337728,67.02206 z "
       style="fill:#d40000;fill-opacity:1;fill-rule:evenodd;stroke:none"
       id="path2048" />
    <path
       d="M 99.550993,84.63855 L 150.83138,84.63855 L 150.83138,126.64349 L 99.550993,126.64349 L 99.550993,84.63855 z M 107.59489,103.93828 C 107.95654,97.24806 110.54077,92.63381 114.69641,89.47054 C 118.12573,93.04411 120.54088,97.58622 120.92769,103.93828 L 120.92769,124.46956 L 107.59489,124.46956 L 107.59489,103.93828 z M 129.43019,103.93828 C 129.79184,97.24806 132.37608,92.63381 136.53139,89.47054 C 139.96103,93.04411 142.37618,97.58622 142.78648,103.93828 L 142.78648,124.46956 L 129.43019,124.46956 L 129.43019,103.93828 z "
       style="fill:#d40000;fill-opacity:1;fill-rule:evenodd;stroke:none"
       id="path2044" />
    <path
       d="M 93.005031,65.83322 L 103.37268,65.83322 L 103.37268,74.55178 L 108.26399,74.55178 L 108.26399,65.83322 L 116.92186,65.83322 L 116.92186,74.55178 L 121.54849,74.55178 L 121.54849,65.83322 L 130.37544,65.83322 L 130.37544,74.55178 L 134.9769,74.55178 L 134.9769,65.83322 L 143.7069,65.83322 L 143.7069,74.55178 L 148.35701,74.55178 L 148.35701,65.83322 L 158,65.83322 L 125.10145,32.427419 L 93,65.83322 L 93.005031,65.83322 z "
       style="fill:#d40000;fill-opacity:1;fill-rule:evenodd;stroke:none"
       id="path2038" />
  </g>
  <use
     transform="translate(-78.75,0)"
     id="Torn2"
     x="0"
     y="0"
     width="251"
     height="304.20001"
     xlink:href="#Torn" />
  <use
     transform="translate(78.75,0)"
     id="Torn3"
     x="0"
     y="0"
     width="251"
     height="304.20001"
     xlink:href="#Torn" />
  <path
     d="M 249.55062,1.4395041 L 125.50012,1.4395041 L 1.449569,1.4395041 L 1.449569,174.9361 C 0.68232904,268.65698 81.739009,302.75585 125.5001,302.75585 C 168.49395,302.75585 250.31785,268.65698 249.55062,174.9361 L 249.55062,1.4395041 z "
     style="color:#000000;fill:none;fill-opacity:0;fill-rule:nonzero;stroke:#000000;stroke-width:1.88832211;stroke-linecap:round;stroke-linejoin:bevel;marker:none;marker-start:none;marker-mid:none;marker-end:none;stroke-miterlimit:4;stroke-dashoffset:0;stroke-opacity:1;visibility:visible;display:block"
     id="Frame" />
</svg>
