<?xml version="1.0" encoding="UTF-8" standalone="no"?>
<!-- Created with Inkscape (http://www.inkscape.org/) -->
<svg
   xmlns:dc="http://purl.org/dc/elements/1.1/"
   xmlns:cc="http://web.resource.org/cc/"
   xmlns:rdf="http://www.w3.org/1999/02/22-rdf-syntax-ns#"
   xmlns:svg="http://www.w3.org/2000/svg"
   xmlns="http://www.w3.org/2000/svg"
   xmlns:xlink="http://www.w3.org/1999/xlink"
   version="1.0"
   width="251"
   height="304.20001"
   id="svg4166">
  <defs
     id="defs4168" />
  <metadata
     id="metadata1880"><rdf:RDF><cc:Work
         rdf:about=""><dc:title>Torsby kommunvapen</dc:title><dc:date>27-08-2007</dc:date><dc:creator><cc:Agent><dc:title>Lokal_Profil</dc:title></cc:Agent></dc:creator><cc:license
         rdf:resource="http://creativecommons.org/licenses/by-sa/2.5/" /><dc:rights><cc:Agent><dc:title>cc-by-sa-2.5</dc:title></cc:Agent></dc:rights><dc:format>image/svg+xml</dc:format><dc:type
         rdf:resource="http://purl.org/dc/dcmitype/StillImage" /></cc:Work><cc:License
         rdf:about="http://creativecommons.org/licenses/by-sa/2.5/"><cc:permits
         rdf:resource="http://web.resource.org/cc/Reproduction" /><cc:permits
         rdf:resource="http://web.resource.org/cc/Distribution" /><cc:requires
         rdf:resource="http://web.resource.org/cc/Notice" /><cc:requires
         rdf:resource="http://web.resource.org/cc/Attribution" /><cc:permits
         rdf:resource="http://web.resource.org/cc/DerivativeWorks" /><cc:requires
         rdf:resource="http://web.resource.org/cc/ShareAlike" /></cc:License></rdf:RDF>
  </metadata>
  <path
     d="M 249.55058,1.4395041 L 125.50008,1.4395041 L 1.4495291,1.4395041 L 1.4495291,174.9361 C 0.68228908,268.65698 81.738969,302.75585 125.50006,302.75585 C 168.49391,302.75585 250.31781,268.65698 249.55058,174.9361 L 249.55058,1.4395041 z "
     style="color:#000000;fill:#003d8f;fill-opacity:1;fill-rule:nonzero;stroke:none;stroke-width:1.88832211;stroke-linecap:round;stroke-linejoin:bevel;marker:none;marker-start:none;marker-mid:none;marker-end:none;stroke-miterlimit:4;stroke-dashoffset:0;stroke-opacity:1;visibility:visible;display:block"
     id="Border" />
  <path
     d="M 225.49782,30.651362 L 125.50007,30.651362 L 25.502292,30.651362 L 25.502292,170.50785 C 24.883816,246.05672 90.224016,273.54401 125.50005,273.54401 C 160.15762,273.54401 226.11626,246.05672 225.49782,170.50785 L 225.49782,30.651362 z "
     style="color:#000000;fill:#eeeeee;fill-opacity:1;fill-rule:nonzero;stroke:none;stroke-width:1.88832211;stroke-linecap:round;stroke-linejoin:bevel;marker:none;marker-start:none;marker-mid:none;marker-end:none;stroke-miterlimit:4;stroke-dashoffset:0;stroke-opacity:1;visibility:visible;display:block"
     id="Shield" />
  <g
     transform="matrix(0.460358,0,0,0.460358,18.5446,86.5824)"
     id="Boat">
    <path
       d="M 122.08091,224.84734 C 122.08091,224.84734 120.08091,211.59734 122.33091,208.34734 C 124.58091,205.09734 133.58091,206.59734 135.33091,208.59734 C 137.08091,210.59734 135.83091,228.84734 135.83091,228.84734 L 122.08091,224.84734 z "
       style="fill:#003d8f;fill-opacity:1;fill-rule:evenodd;stroke:none;stroke-width:1px;stroke-linecap:butt;stroke-linejoin:miter;stroke-opacity:1"
       id="path2174" />
    <path
       d="M 149.08091,229.34734 C 149.08091,229.34734 147.08091,216.09734 149.33091,212.84734 C 151.58091,209.59734 160.58091,211.09734 162.33091,213.09734 C 164.08091,215.09734 162.83091,233.34734 162.83091,233.34734 L 149.08091,229.34734 z "
       style="fill:#003d8f;fill-opacity:1;fill-rule:evenodd;stroke:none;stroke-width:1px;stroke-linecap:butt;stroke-linejoin:miter;stroke-opacity:1"
       id="path2176" />
    <path
       d="M 282.08091,235.84734 C 282.08091,235.84734 280.08091,222.59734 282.33091,219.34734 C 284.58091,216.09734 293.58091,217.59734 295.33091,219.59734 C 297.08091,221.59734 295.83091,239.84734 295.83091,239.84734 L 282.08091,235.84734 z "
       style="fill:#003d8f;fill-opacity:1;fill-rule:evenodd;stroke:none;stroke-width:1px;stroke-linecap:butt;stroke-linejoin:miter;stroke-opacity:1"
       id="path2178" />
    <path
       d="M 307.33091,235.09734 C 307.33091,235.09734 305.33091,221.84734 307.58091,218.59734 C 309.83091,215.34734 318.83091,216.84734 320.58091,218.84734 C 322.33091,220.84734 321.08091,239.09734 321.08091,239.09734 L 307.33091,235.09734 z "
       style="fill:#003d8f;fill-opacity:1;fill-rule:evenodd;stroke:none;stroke-width:1px;stroke-linecap:butt;stroke-linejoin:miter;stroke-opacity:1"
       id="path2180" />
    <path
       d="M 37.330912,179.09733 C 42.330912,219.09733 53.665242,274.64155 69.330912,290.59733 C 82.830912,304.34733 102.82712,314.09733 111.08091,314.09733 C 136.08091,314.09733 346.08091,314.09733 346.08091,314.09733 C 361.08091,314.84733 386.49371,286.67094 401.58091,264.34733 C 416.59021,242.13904 419.37101,227.40841 427.33091,204.09733 C 427.33091,204.09733 368.52751,233.59733 247.33091,234.09733 C 126.38303,234.5963 97.330907,210.09733 72.330912,200.09733 L 72.330912,189.09733 L 37.330912,179.09733 z "
       style="fill:#003d8f;fill-opacity:1;fill-rule:evenodd;stroke:#eeeeee;stroke-width:1px;stroke-linecap:butt;stroke-linejoin:miter;stroke-opacity:1"
       id="path2164" />
    <path
       d="M 57.788542,227.81781 C 57.788542,227.81781 122.84236,265.29447 246.58604,266.35513 C 370.32971,267.41579 411.69551,218.62542 411.69551,218.62542 C 411.69551,218.62542 374.92591,281.55793 365.02641,290.75031 C 355.12693,299.9427 328.25688,303.12468 328.25688,303.12468 C 328.25688,303.12468 138.75226,303.83179 128.85277,303.83179 C 118.95327,303.83179 110.46799,305.246 85.365702,289.68965 C 60.263412,274.1333 53.015572,195.37929 53.015572,195.37929 L 72.549392,200.24064"
       style="fill:none;fill-opacity:0.75;fill-rule:evenodd;stroke:#eeeeee;stroke-width:2;stroke-linecap:butt;stroke-linejoin:miter;stroke-miterlimit:4;stroke-dasharray:none;stroke-opacity:1"
       id="path3132" />
    <path
       d="M 66.273822,260.34472 C 66.273822,260.34472 139.10582,297.46783 239.16142,296.40717 C 339.21703,295.34651 377.75431,272.36554 377.75431,272.36554"
       style="fill:none;fill-opacity:0.75;fill-rule:evenodd;stroke:#eeeeee;stroke-width:2;stroke-linecap:butt;stroke-linejoin:miter;stroke-miterlimit:4;stroke-dasharray:none;stroke-opacity:1"
       id="path3134" />
  </g>
  <use
     transform="matrix(-0.5,0.866025,-0.866025,-0.5,275.272,42.04046)"
     id="Oar2"
     x="0"
     y="0"
     width="251"
     height="304.20001"
     xlink:href="#Oar" />
  <path
     d="M 36.81751,61.664058 L 87.02826,90.653247 C 92.445522,93.780905 98.51781,93.839619 102.29537,91.193386 C 102.4309,91.282023 102.5687,91.371827 102.71194,91.454527 L 207.25785,151.81414 C 209.92522,153.35414 212.86778,153.21246 213.85776,151.49776 C 214.84775,149.78304 213.49918,147.16387 210.8318,145.62385 L 106.28589,85.264254 C 106.14265,85.181553 105.99599,85.107108 105.85147,85.03406 C 106.25438,80.439478 103.16739,75.210084 97.75013,72.082426 L 47.539379,43.093237 L 36.81751,61.664058 z "
     style="fill:#003d8f;fill-opacity:1;stroke:#eeeeee;stroke-width:2.63502049;stroke-miterlimit:10;stroke-opacity:1"
     id="Oar" />
  <path
     d="M 249.55062,1.4395041 L 125.50012,1.4395041 L 1.449569,1.4395041 L 1.449569,174.9361 C 0.68232904,268.65698 81.739009,302.75585 125.5001,302.75585 C 168.49395,302.75585 250.31785,268.65698 249.55062,174.9361 L 249.55062,1.4395041 z "
     style="color:#000000;fill:none;fill-opacity:0;fill-rule:nonzero;stroke:#000000;stroke-width:1.88832211;stroke-linecap:round;stroke-linejoin:bevel;marker:none;marker-start:none;marker-mid:none;marker-end:none;stroke-miterlimit:4;stroke-dashoffset:0;stroke-opacity:1;visibility:visible;display:block"
     id="Frame" />
</svg>
