<?xml version="1.0" encoding="UTF-8" standalone="no"?>
<!-- Created with Inkscape (http://www.inkscape.org/) -->
<svg
   xmlns:dc="http://purl.org/dc/elements/1.1/"
   xmlns:cc="http://web.resource.org/cc/"
   xmlns:rdf="http://www.w3.org/1999/02/22-rdf-syntax-ns#"
   xmlns:svg="http://www.w3.org/2000/svg"
   xmlns="http://www.w3.org/2000/svg"
   xmlns:xlink="http://www.w3.org/1999/xlink"
   version="1.0"
   width="251"
   height="304.20001"
   id="svg4166">
  <metadata
     id="metadata1880"><rdf:RDF><cc:Work
         rdf:about=""><dc:title>Munkefors kommunvapen</dc:title><dc:date>31-10-2007</dc:date><dc:creator><cc:Agent><dc:title>Lokal_Profil</dc:title></cc:Agent></dc:creator><cc:license
         rdf:resource="http://creativecommons.org/licenses/by-sa/2.5/" /><dc:rights><cc:Agent><dc:title>cc-by-sa-2.5</dc:title></cc:Agent></dc:rights><dc:format>image/svg+xml</dc:format><dc:type
         rdf:resource="http://purl.org/dc/dcmitype/StillImage" /></cc:Work><cc:License
         rdf:about="http://creativecommons.org/licenses/by-sa/2.5/"><cc:permits
         rdf:resource="http://web.resource.org/cc/Reproduction" /><cc:permits
         rdf:resource="http://web.resource.org/cc/Distribution" /><cc:requires
         rdf:resource="http://web.resource.org/cc/Notice" /><cc:requires
         rdf:resource="http://web.resource.org/cc/Attribution" /><cc:permits
         rdf:resource="http://web.resource.org/cc/DerivativeWorks" /><cc:requires
         rdf:resource="http://web.resource.org/cc/ShareAlike" /></cc:License></rdf:RDF>
  </metadata>
  <defs
     id="defs4168">
    <clipPath
       id="clipPath3400">
      <use
         transform="matrix(0.809181,0,0,0.80918,2.677297,-86.49155)"
         id="use3398"
         x="0"
         y="0"
         width="1"
         height="1"
         xlink:href="#Shield" />
    </clipPath>
  </defs>
  <path
     d="M 249.55058,1.4395041 L 1.4495291,1.4395041 L 1.4495291,174.9361 C 0.68228908,268.65698 81.738969,302.75585 125.50006,302.75585 C 168.49391,302.75585 250.31781,268.65698 249.55058,174.9361 L 249.55058,1.4395041 z "
     style="fill:#eeeeee;stroke:none"
     id="Shield" />
  <path
     d="M 1.4375,1.4375 L 1.4375,79.5625 C 4.7171471,76.350037 8.6154097,74.125 13.75,74.125 C 32.40914,74.124997 32.40336,103.40625 51.0625,103.40625 C 69.72164,103.40625 69.715855,74.125 88.375,74.125 C 107.03414,74.124997 107.0596,103.40625 125.71875,103.40625 C 144.37789,103.40625 144.3721,74.125 163.03125,74.125 C 181.69039,74.124997 181.6846,103.40625 200.34375,103.40625 C 219.00289,103.40625 218.9971,74.125 237.65625,74.125 C 242.85344,74.124999 246.54056,76.411463 249.5625,79.6875 L 249.5625,1.4375 L 1.4375,1.4375 z "
     style="fill:#003d8f;stroke:none"
     id="Wave-chief" />
  <g
     transform="matrix(0.133256,0,0,0.133563,10.6574,-8.380147)"
     style="fill:#eeeeee;stroke:#003d8f;stroke-width:2"
     id="Linden-tree">
    <path
       d="M 176.57935,332.24805 C 211.81397,343.35435 207.8032,304.7506 196.5945,288.33052 C 180.95998,265.4269 153.28203,253.5187 110.71962,281.24596 C 83.12719,299.22094 74.8561,327.80546 51.5,341.35656 C 79.35195,353.25111 83.67293,362.8952 127.72885,403.59954 C 141.21847,416.06289 175.5221,414.66592 191.54878,393.02843 C 213.38574,367.29393 186.6858,336.85693 176.57935,332.24805 z "
       id="path43959" />
    <path
       d="M 420.1256,340.43882 C 384.89098,351.54512 387.87554,304.7506 399.08424,288.33052 C 414.71876,265.4269 442.39671,253.5187 484.95912,281.24596 C 512.55155,299.22094 520.82264,327.80546 544.17874,341.35656 C 516.32679,353.25111 512.00581,362.8952 467.94989,403.59954 C 454.46027,416.06289 420.15664,414.66592 404.12996,393.02843 C 382.293,367.29393 410.01915,345.0477 420.1256,340.43882 z "
       id="path43957" />
    <path
       d="M 192.69268,495.33212 C 215.34784,473.25046 197.40173,446.46612 180.11742,440.56099 C 153.87557,431.59554 124.67589,436.81011 105.64847,483.90912 C 93.31329,514.44247 102.89393,542.6151 91.5,567.09607 C 121.14612,560.90585 130.20967,566.34012 189.63385,574.49703 C 207.8291,576.99459 235.15688,556.21279 235.91214,529.2969 C 239.08633,495.69568 203.61777,493.32599 192.69268,495.33212 z "
       id="path43955" />
    <path
       d="M 408.91523,495.33212 C 373.66686,484.26952 402.90055,447.60855 421.49049,440.56099 C 447.42076,430.73068 476.93202,436.81011 495.95944,483.90912 C 508.29462,514.44247 498.71398,542.6151 510.10791,567.09607 C 480.46179,560.90585 471.39824,566.34012 411.97406,574.49703 C 393.77881,576.99459 366.45103,556.21279 365.69577,529.2969 C 362.52158,495.69568 397.99014,493.32599 408.91523,495.33212 z "
       id="path42133" />
    <path
       d="M 438.21548,183.89823 C 392.8843,198.17696 371.35595,68.360865 460.45873,95.636793 C 490.87142,104.94665 514.83085,116.38836 540.89071,114.63586 C 524.33169,140.89318 524.76633,150.42664 509.9006,210.81706 C 505.34875,229.30817 476.65065,247.82398 452.38381,238.39698 C 421.2586,228.78066 432.3583,193.67824 438.21548,183.89823 z "
       id="path43026" />
    <path
       d="M 303.32333,210.36626 C 276.26469,258.80997 207.54147,204.96437 237.1407,153.39793 C 253.47063,124.94866 312.60596,104.25225 305.37945,81.493211 C 315.72411,110.99047 328.82618,113.55911 366.50313,162.0568 C 378.03923,176.90648 375.15556,211.88777 353.37524,226.46782 C 327.34792,246.6485 307.36203,221.09432 303.32333,210.36626 z "
       id="path43028" />
    <path
       d="M 161.38863,178.72245 C 221.74726,191.07148 217.20329,84.287341 135.00475,95.636793 C 103.49793,99.987055 80.632636,116.38836 54.572779,114.63586 C 71.131794,140.89318 75.286754,149.4787 85.562888,210.81706 C 92.694424,253.38527 172.7174,239.57076 161.38863,178.72245 z "
       id="path43032" />
    <path
       d="M 307.05974,87.220393 L 286.60127,298.2054 C 220.78563,201.34435 129.44463,143.1096 55.636838,116.03584 C 129.52705,156.37865 242.49106,243.45811 283.7901,330.72005 L 285.64606,394.86617 C 224.58688,321.89005 142.0563,308.25127 54.878016,340.82961 C 137.49007,334.30758 221.24647,334.52841 285.47101,426.78889 L 285.27756,502.0776 C 188.34996,434.6692 114.32619,513.84188 93.844582,565.24606 C 142.99265,479.25353 252.04581,480.63838 283.82122,536.22609 L 283.59374,561.65313 C 269.68184,586.36032 253.16867,627.7362 206.15575,614.12666 C 156.59439,599.77941 98.582199,623.60998 156.67488,679.10577 C 147.71862,653.11588 176.55118,625.39134 210.46938,644.18172 C 251.28491,666.7932 260.79824,629.26803 285.52759,623.48128 C 264.5762,636.046 274.58698,657.70383 224.5109,674.57328 C 174.11081,691.55189 195.44609,724.95428 219.9873,737.36533 C 208.48193,696.95106 242.30401,699.95646 255.54457,695.7543 C 268.6227,691.60367 278.59949,676.18242 293.4225,649.60201 C 274.71375,675.49438 287.11761,738.52181 298.63956,771.39715 C 322.68927,739.52187 328.41913,677.69815 317.95706,645.82287 C 326.52957,659.0854 341.332,690.00555 348.15004,692.21797 C 388.31351,705.25052 399.3393,715.6988 384.05979,740.38863 C 426.44066,717.45571 415.81025,679.69182 378.56441,672.36717 C 342.73493,665.32105 334.35764,634.03675 319.17963,621.14565 C 367.90076,660.62131 391.90014,651.8936 429.941,645.36304 C 456.51188,640.80154 449.15239,676.1425 452.25321,681.34153 C 497.46293,644.77734 475.73955,619.91183 452.07497,616.84026 C 414.5027,611.96354 342.41411,598.93577 319.82074,558.48471 L 318.99681,530.98155 C 385.46028,434.78575 511.56213,567.8994 511.3136,567.91774 C 484.54735,537.56139 397.82996,421.80436 316.45335,506.53293 L 315.25579,427.94457 C 348.40424,347.83137 471.06964,333.56261 541.30797,341.32935 C 491.10009,333.99603 386.24465,308.13507 315.15013,392.55024 L 316.46324,327.97123 C 359.63704,249.71261 458.54668,172.72313 537.58336,116.00058 C 472.90372,150.32294 380.03135,204.42843 312.12181,299.75907 L 307.05974,87.220393 z "
       id="path2265" />
  </g>
  <use
     transform="matrix(-1,0,0,1,250.9889,0)"
     id="Linden-2"
     x="0"
     y="0"
     width="251"
     height="304.20001"
     xlink:href="#Linden-tree" />
  <path
     d="M 120.4192,6.0000136 L 120.4192,38.41922 L 88,38.41922 L 88,48.580811 L 120.4192,48.580811 L 120.4192,81.000012 L 130.58079,81.000012 L 130.58079,48.580811 L 163,48.580811 L 163,38.41922 L 130.58079,38.41922 L 130.58079,6.0000136 L 120.4192,6.0000136 z "
     style="fill:#eeeeee;stroke:none"
     id="Cross" />
  <path
     d="M 100.29274,30.700895 C 95.582404,28.559617 93.497363,22.99888 95.638645,18.288537 C 97.779923,13.578194 103.34066,11.493156 108.05101,13.634435 C 112.76134,15.775714 114.84638,21.33645 112.7051,26.046793 C 110.6159,30.642584 105.2937,32.754979 100.62147,30.84282"
     style="fill:#eeeeee;stroke:none"
     id="Lod" />
  <use
     transform="translate(42.65625,0)"
     id="Lod-2"
     x="0"
     y="0"
     width="251"
     height="304.20001"
     xlink:href="#Lod" />
  <use
     transform="translate(0,42.65625)"
     id="Lod-3"
     x="0"
     y="0"
     width="251"
     height="304.20001"
     xlink:href="#Lod" />
  <use
     transform="translate(42.65625,42.65625)"
     id="Lod-4"
     x="0"
     y="0"
     width="251"
     height="304.20001"
     xlink:href="#Lod" />
  <g
     transform="matrix(1.235818,0,0,1.235819,-3.308652,106.8879)"
     style="fill:#003d8f;stroke:#eeeeee"
     clip-path="url(#clipPath3400)"
     id="Munk">
    <path
       d="M 94.541,22.412 C 94.541,22.412 89.249,22.306 88.968,22.871 C 88.327,24.159 91.988,23.427 92.488,24.844 C 92.988,26.261 97.026,54.069 97.026,54.069 L 95.135,56.053 L 95.135,61.621 L 105.719,61.621 L 105.719,24.538 L 94.541,22.412 z "
       style="fill:#eeeeee"
       id="path20" />
    <path
       d="M 100.509,59.163 C 100.509,59.163 98.891,57.248 98.103,56.132 C 97.315,55.016 96.259,53.038 96.259,53.038 C 96.259,53.038 93.592,53.501 89.824,53.418 C 85.801,53.33 84.634,53.038 84.634,53.038 C 84.634,53.038 83.978,46.715 83.603,46.257 C 83.228,45.799 81.771,45.679 81.572,45.413 C 81.291,45.038 82.039,42.855 82.206,41.005 C 82.665,35.913 82.931,29.961 83.165,28.444 C 83.571,25.819 86.321,23.475 88.853,23.381 C 90.59,23.317 91.993,23.73 93.963,24.65 C 95.933,25.57 99.071,27.737 100.384,30.496 C 101.697,33.255 102.092,36.329 102.009,45.163 C 101.963,50.038 102.051,55.246 101.446,57.319 C 101.117,58.45 100.509,59.163 100.509,59.163 z "
       id="path32" />
    <path
       d="M 94.134,22.496 C 94.134,22.496 106.94,22.061 115.051,23.454 C 127.426,25.579 134.05,33.2 136.718,38.454 C 142.218,49.287 141.884,51.287 141.884,51.287 C 141.884,51.287 125.926,51.256 122.009,52.1 C 118.364,52.885 116.763,54.664 119.136,57.689 C 121.197,60.315 126.447,65.662 137.447,66.162 C 148.447,66.662 163.577,62.283 163.577,62.283 L 163.552,134.65768 C 145.41453,131.32261 149.77129,119.9439 139.885,103.787 C 137.54298,99.959503 129.885,92.287 129.885,92.287 L 129.885,192.787 L 77.385,192.787 L 77.385,94.787 C 77.385,94.787 69.003,103.898 67.337,106.398 C 56.416971,117.5646 66.675433,130.77941 44.885,133.57468 L 44.885,61.954 C 44.885,61.954 49.15,63.831 54.26,65.225 C 59.76,66.725 68.772,67.112 76.01,65.788 C 86.489,63.871 95.177,56.163 95.177,56.163 L 98.885,61.246 L 104.51,58.579 C 104.51,58.579 105.677,40.871 104.385,32.787 C 103.752,28.834 102.3,25.663 94.134,22.496 z "
       id="path34" />
    <path
       d="M 128.134,65.65825 C 128.134,65.65825 125.40625,69.639749 121.29025,72.97075 C 117.17425,76.30175 110.18375,78.65825 103.97775,78.65825 C 97.51075,78.65825 91.682753,77.628753 85.47775,73.97075 C 79.27275,70.31275 77.977747,66.252003 77.97775,66.252 L 75.47775,66.97075 C 75.47775,66.97075 76.688501,71.782001 83.3215,76.002 C 87.401889,78.597665 92.496731,81.280446 102.384,81.5645 L 102.384,120.28325 L 79.759,120.28325 L 79.759,123.28325 L 102.384,123.28325 L 102.384,190.53325 L 104.884,190.53325 L 104.884,123.28325 L 127.509,123.28325 L 127.509,120.28325 L 104.884,120.28325 L 104.884,81.59575 C 114.22508,81.426172 120.26468,78.269159 125.72775,73.377 C 129.18575,70.28 130.8215,66.908253 130.8215,66.90825 L 128.134,65.65825 z "
       style="fill:#eeeeee"
       id="path38" />
    <g
       style="fill:#eeeeee;stroke:none"
       id="Hand">
      <path
         d="M 44.894,76.395 L 44.894,61.967 C 44.894,61.967 43.644,61.459 42.769,61.043 C 41.201,60.296 40.348,59.53 40.348,59.53 L 40.348,53.93 C 40.348,53.93 32.685,47.418 30.81,45.209 C 29.78,43.996 29.217,43.766 28.867,45.397 C 28.679,46.272 28.609,47.251 28.687,49.055 C 28.726,49.959 29.346,50.833 28.489,50.372 C 27.632,49.911 24.132,47.209 22.476,45.99 C 21.106,44.982 19.476,43.552 18.882,43.521 C 18.547,43.503 18.133,44.201 17.726,44.802 C 17.07,45.771 17.851,46.208 16.476,47.958 C 16.047,48.503 15.39,49.513 15.913,49.958 C 16.065,50.087 17.945,51.163 20.007,52.521 C 22.304,54.035 24.945,55.99 24.945,55.99 C 24.945,55.99 23.994,56.683 23.632,56.834 C 22.507,57.303 22.663,58.209 22.788,58.772 C 23.012,59.779 22.257,60.022 21.694,60.678 C 21.173,61.286 20.163,62.241 21.663,62.866 C 21.947,62.985 29.32,66.178 31.632,67.304 C 38.884,70.834 44.894,76.395 44.894,76.395 z "
         style="fill:#003d8f;stroke:#eeeeee"
         id="path28" />
      <path
         d="M 26.077,53.444 L 26.85,52.611 C 26.85,52.611 21.733,48.744 20.543,47.97 C 19.353,47.196 17.952,46.042 17.773,46.756 C 17.594,47.47 17.567,48.089 18.163,48.386 C 18.759,48.683 24.53,52.076 26.077,53.444 z "
         id="path50" />
      <path
         d="M 28.874,48.327 C 28.395,48.356 28.951,50.209 29.873,51.153 C 30.522,51.818 32.258,53.627 32.623,54.277 C 33.584,55.994 32.966,59.726 33.634,61.059 C 34.174,62.137 35.481,64.322 37.62,64.212 C 39.285,64.127 39.048,63.261 38.334,62.903 C 37.62,62.545 35.525,62.48 34.788,60.023 C 34.082,57.669 35.37,55.864 33.216,52.676 C 31.986,50.858 29.676,48.278 28.874,48.327 z "
         id="path54" />
      <path
         d="M 28.668,58.156 C 29.34,58.681 29.749,60.392 30.535,60.22 C 31.356,60.04 31.125,58.893 30.363,57.984 C 29.601,57.075 28.176,55.861 27.39,55.846 C 26.038,55.821 25.008,56.043 24.392,56.263 C 23.704,56.509 23.557,57.025 23.778,57.221 C 24.103,57.51 24.331,57.416 24.958,57.295 C 25.72,57.148 27.317,57.099 28.668,58.156 z "
         id="path58" />
      <path
         d="M 24.712,59.016 C 25.445,58.931 26.579,59.336 27.366,60.269 C 28.153,61.202 29.184,62.48 28.496,62.8 C 27.808,63.12 27.611,62.505 27.071,61.94 C 26.531,61.375 25.302,60.097 24.442,60.146 C 23.721,60.187 23.387,60.662 22.82,60.662 C 22.427,60.662 22.279,60.269 22.501,59.925 C 22.723,59.581 23.016,59.212 24.712,59.016 z "
         id="path60" />
    </g>
    <g
       style="fill:#eeeeee;stroke:none"
       id="Face">
      <path
         d="M 88.528775,29.979799 C 88.450775,30.885799 89.606775,32.135799 89.606775,32.432799 C 89.606775,32.932799 89.048775,32.824799 88.778775,32.666799 C 88.403775,32.447799 87.215775,30.916799 87.215775,30.353799 C 87.215775,29.572799 88.215775,28.665799 88.528775,28.853799 C 88.841775,29.041799 88.572775,29.477799 88.528775,29.979799 z "
         id="path66" />
      <path
         d="M 90.487775,30.729799 C 91.029775,32.088799 91.787775,32.788799 92.347775,32.568799 C 93.050775,32.292799 92.250775,31.594799 92.055775,31.107799 C 91.860775,30.620799 92.144775,29.556799 91.638775,29.166799 C 91.132775,28.776799 90.322775,28.789799 90.166775,29.198799 C 90.010775,29.607799 90.413775,30.543799 90.487775,30.729799 z "
         id="path70" />
      <path
         d="M 94.013775,31.182799 C 94.466775,32.041799 94.965775,32.740799 95.763775,32.682799 C 96.214775,32.649799 95.873775,32.134799 95.659775,31.848799 C 95.016775,30.991799 95.347775,29.822799 94.821775,29.491799 C 94.295775,29.160799 93.243775,29.141799 93.224775,29.608799 C 93.205775,30.075799 93.780775,30.741799 94.013775,31.182799 z "
         id="path74" />
      <path
         d="M 97.099775,31.399799 C 97.480775,31.984799 98.120775,32.794799 98.341775,32.770799 C 99.112775,32.687799 98.833775,31.825799 98.716775,31.572799 C 98.599775,31.319799 98.345775,30.587799 98.325775,30.119799 C 98.305775,29.651799 97.952775,28.939799 97.466775,28.978799 C 96.980775,29.017799 96.462775,29.417799 96.560775,30.119799 C 96.658775,30.821799 96.846775,31.010799 97.099775,31.399799 z "
         id="path78" />
      <path
         d="M 91.713,35.286 C 93.446,35.35 94.759,36.204 95.071,36.496 C 95.498,36.895 95.941,37.741 95.529,38.142 C 94.779,38.871 92.801,39.351 91.029,39.059 C 89.257,38.767 88.383,37.613 88.675,36.601 C 88.967,35.589 90.347,35.235 91.713,35.286 z "
         id="path82" />
    </g>
    <use
       transform="matrix(-1,0,0,1,208.459,0)"
       id="Hand-2"
       x="0"
       y="0"
       width="209"
       height="253"
       xlink:href="#Hand" />
  </g>
  <path
     d="M 249.55062,1.4395041 L 1.449569,1.4395041 L 1.449569,174.9361 C 0.68232904,268.65698 81.739009,302.75585 125.5001,302.75585 C 168.49395,302.75585 250.31785,268.65698 249.55062,174.9361 L 249.55062,1.4395041 z "
     style="fill:none;fill-opacity:0;stroke:#000000;stroke-width:1.88832211;stroke-linecap:round"
     id="Frame" />
</svg>
