<?xml version="1.0" encoding="UTF-8" standalone="no"?>
<!-- Created with Inkscape (http://www.inkscape.org/) -->
<svg
   xmlns:svg="http://www.w3.org/2000/svg"
   xmlns="http://www.w3.org/2000/svg"
   xmlns:xlink="http://www.w3.org/1999/xlink"
   version="1.0"
   width="251"
   height="304.20001"
   id="svg4166">
  <defs
     id="defs4168" />
  <path
     d="M 249.55058,1.4395041 L 125.50008,1.4395041 L 1.4495291,1.4395041 L 1.4495291,174.9361 C 0.68228908,268.65698 81.738969,302.75585 125.50006,302.75585 C 168.49391,302.75585 250.31781,268.65698 249.55058,174.9361 L 249.55058,1.4395041 z"
     id="Shield"
     style="fill:#003d8f" />
  <g
     transform="matrix(1.152835,0,0,1.152835,-32.060791,98.295844)"
     id="Kyrka"
     style="fill:#eeeeee;stroke:#003d8f;stroke-width:0.86742681">
    <rect
       width="117.23723"
       height="36.745998"
       x="78.053864"
       y="103.88994"
       id="rect2941" />
    <rect
       width="39.897976"
       height="14.52574"
       x="116.0866"
       y="61.455898"
       id="rect2967" />
    <path
       d="M 145.07666,74.573169 C 145.07888,79.568027 141.03041,83.618349 136.03559,83.618349 C 131.04076,83.618349 126.99229,79.568027 126.99452,74.573169 C 126.99229,69.57831 131.04076,65.527988 136.03559,65.527988 C 141.03041,65.527988 145.07888,69.57831 145.07666,74.573169 L 145.07666,74.573169 z"
       id="path33278"
       style="fill:#000000;stroke:none" />
    <path
       d="M 136.67252,103.93988 L 68.463773,103.80712 L 81.866215,75.734393 L 136.67252,75.856662 L 191.47878,75.734393 L 204.88119,103.80712 L 136.67252,103.93988 z"
       id="path34169" />
    <path
       d="M 174.76282,120.37617 C 174.7926,116.14444 178.07541,111.19451 181.35824,108.94062 C 184.46982,110.71972 187.92389,116.00145 187.95366,120.37617 L 187.95366,134.46527 L 174.76282,134.46527 L 174.76282,120.37617 z"
       id="rect3447"
       style="fill:#000000;stroke:none" />
    <use
       transform="translate(-24.45359,-3.533274e-4)"
       id="use7009"
       x="0"
       y="0"
       width="251"
       height="304.20001"
       xlink:href="#rect3447" />
    <use
       transform="translate(-64.917927,0)"
       id="use2957"
       x="0"
       y="0"
       width="251"
       height="304.20001"
       xlink:href="#rect3447" />
    <use
       transform="translate(-64.917927,0)"
       id="use2959"
       x="0"
       y="0"
       width="251"
       height="304.20001"
       xlink:href="#use7009" />
    <path
       d="M 136.02204,11.926249 L 122.68534,52.776628 L 114.66165,61.640646 L 157.40953,61.640646 L 149.38583,52.776628 L 136.02204,11.926249 z"
       id="path3948" />
    <g
       transform="translate(-11.248551,2.5522346)"
       id="g3944"
       style="stroke:#eeeeee;stroke-width:1.73485363">
      <path
         d="M 147.28414,1.9096284 L 147.28414,14.468244"
         id="path2971" />
      <path
         d="M 143.51037,5.590602 L 151.05791,5.590602"
         id="path2973" />
    </g>
    <g
       transform="translate(-64.589079,62.979569)"
       id="g3953"
       style="stroke:#eeeeee;stroke-width:1.73485363">
      <path
         d="M 147.28414,1.9096284 L 147.28414,14.468244"
         id="path3955" />
      <path
         d="M 143.51037,5.590602 L 151.05791,5.590602"
         id="path3957" />
    </g>
    <g
       transform="translate(43.365754,62.979569)"
       id="g3959"
       style="stroke:#eeeeee;stroke-width:1.73485363">
      <path
         d="M 147.28414,1.9096284 L 147.28414,14.468244"
         id="path3961" />
      <path
         d="M 143.51037,5.590602 L 151.05791,5.590602"
         id="path3963" />
    </g>
  </g>
  <path
     d="M 1.2500344,1.4395041 L 1.2500344,91.633502 L 249.75002,91.633502 L 249.75002,1.4395041 L 125.50002,1.4395041 L 1.2500344,1.4395041 z"
     id="Chef"
     style="fill:#eeeeee" />
  <path
     d="M 249.55062,1.4395041 L 125.50012,1.4395041 L 1.449569,1.4395041 L 1.449569,174.9361 C 0.68232904,268.65698 81.739009,302.75585 125.5001,302.75585 C 168.49395,302.75585 250.31785,268.65698 249.55062,174.9361 L 249.55062,1.4395041 z"
     id="Frame"
     style="fill:none;fill-opacity:0;stroke:#000000;stroke-width:1.88832211;stroke-linecap:round;stroke-linejoin:bevel" />
  <path
     d="M 47.410691,10.583393 C 44.668741,10.79014 35.078188,16.163703 33.244809,16.939581 C 31.352295,17.740491 36.14198,11.71826 33.983098,12.463717 C 31.824217,13.209175 24.617406,22.290842 23.185655,23.72259 C 21.753905,25.154338 23.935911,17.761344 22.210885,19.258263 C 20.48586,20.755181 17.203557,31.88923 16.402645,33.781748 C 15.601737,35.674265 14.806446,28.04057 13.749427,30.15376 C 12.692408,32.26695 13.910927,43.912921 13.910927,46.09614 C 13.910927,48.279359 10.181881,41.638049 10.040689,43.996637 C 9.8994967,46.355223 15.601738,56.512245 16.402645,58.404765 C 17.203555,60.297284 11.175556,55.507592 11.921013,57.666478 C 12.666471,59.82536 21.753908,67.032172 23.185655,68.463921 C 24.617404,69.895671 17.21864,67.707901 18.715559,69.432923 C 20.212476,71.157948 31.352295,74.446019 33.244809,75.246931 C 35.13733,76.04784 27.503632,76.843126 29.616825,77.90015 C 31.730013,78.957171 43.370217,77.732877 45.553438,77.732877 C 47.736651,77.732877 41.095348,81.467704 43.453935,81.608886 C 45.812522,81.750079 55.975306,76.047838 57.867826,75.246931 C 59.760346,74.446021 54.964898,80.474016 57.123773,79.728565 C 59.282658,78.983103 66.495233,69.895669 67.926986,68.463921 C 69.358739,67.032173 67.170967,74.430933 68.895991,72.934017 C 70.621015,71.4371 73.909084,60.297281 74.71,58.404765 C 75.510906,56.512246 76.300428,64.145941 77.357448,62.032751 C 78.414458,59.919561 77.195946,48.279359 77.195946,46.09614 C 77.195946,43.912921 80.924991,50.548463 81.066184,48.189874 C 81.207367,45.831288 75.510906,35.67427 74.71,33.781748 C 73.909084,31.889227 79.931314,36.678914 79.185852,34.520034 C 78.440401,32.361153 69.358739,25.15434 67.926986,23.72259 C 66.495233,22.29084 73.888234,24.478616 72.391317,22.753589 C 70.8944,21.028563 59.760346,17.740491 57.867826,16.939581 C 55.975306,16.138673 63.609004,15.349152 61.495821,14.292131 C 59.382628,13.235113 47.736651,14.453632 45.553438,14.453631 C 43.370217,14.453631 50.011527,10.724582 47.652935,10.583393 C 47.579236,10.57898 47.499141,10.576725 47.410691,10.583393 z M 45.553438,39.768792 C 49.046588,39.76879 51.880783,42.602988 51.880783,46.09614 C 51.880783,49.589291 49.046588,52.423488 45.553438,52.423488 C 42.060281,52.423492 39.226085,49.589291 39.226085,46.09614 C 39.226091,42.602988 42.060281,39.768792 45.553438,39.768792 z"
     id="Saw"
     style="fill:#003d8f;fill-rule:nonzero;stroke:none" />
  <use
     transform="translate(159.75738,0)"
     id="Saw-2"
     x="0"
     y="0"
     width="251"
     height="304.20001"
     xlink:href="#Saw" />
  <use
     transform="translate(79.878694,0)"
     id="Saw-3"
     x="0"
     y="0"
     width="251"
     height="304.20001"
     xlink:href="#Saw" />
</svg>
