<?xml version="1.0" encoding="UTF-8" standalone="no"?>
<!-- Created with Inkscape (http://www.inkscape.org/) -->
<svg
   xmlns:svg="http://www.w3.org/2000/svg"
   xmlns="http://www.w3.org/2000/svg"
   version="1.0"
   width="251"
   height="304">
  <path
     d="M 249.55058,1.4395041 L 1.4495291,1.4395041 L 1.4495291,174.9361 C 0.68228908,268.65698 81.738969,302.75585 125.50006,302.75585 C 168.49391,302.75585 250.31781,268.65698 249.55058,174.9361 L 249.55058,1.4395041 z"
     id="Shield"
     style="fill:#eeeeee" />
  <g
     id="bojort"
     style="fill:#d40000;stroke:#eeeeee;stroke-linecap:round;stroke-width:0.75;">
    <path
       id="märsrå"
       d="M 79.478302,33.209395 C 83.153886,31.839512 101.14136,28.505657 104.46454,28.87902 C 106.41259,29.097884 107.22373,26.17023 103.54279,25.989127 C 99.636656,25.796944 86.144118,28.256386 81.125132,29.605291 C 75.868111,31.01817 76.892914,34.172964 79.478302,33.209395 z" />
    <path
       id="märssegel"
       d="M 80.938371,32.881187 C 67.144069,40.515252 69.590304,53.647592 80.293128,76.087094 C 78.292336,60.404951 95.212043,60.07093 109.6746,63.380512 C 102.18151,54.581348 93.779433,39.922973 106.00601,28.671667 C 101.37562,29.308583 85.798398,32.088346 80.938371,32.881187 z" />
    <path
       d="M 77.734722,74.855384 C 81.744536,72.984835 102.46921,64.651977 106.29379,63.819814 C 110.14746,62.98132 110.12828,66.830646 108.04638,67.174422 C 102.43175,68.101536 87.583904,74.991373 80.572161,78.070986 C 74.577789,80.703762 75.20872,75.81485 77.734722,74.855384 z"
       id="rå" />
    <path
       id="gaffel"
       d="M 95.398708,65.016929 C 116.10902,45.976739 127.81078,34.191313 150.84505,11.824974 C 153.89948,8.8591136 154.16004,12.472091 152.92719,13.866877 C 129.79167,40.041193 124.56468,43.086364 95.855006,71.083303 L 95.398708,65.016929 z" />
    <path
       id="storsegel"
       d="M 98.618982,68.999473 C 119.44546,49.949957 127.81747,44.393579 150.39197,17.041 C 146.32456,51.533367 149.81255,111.21499 191.70292,147.78816 C 164.55247,166.28739 155.55886,171.73861 102.45071,170.36292 C 100.5084,128.55761 98.996513,72.838637 98.618982,68.999473 z" />
    <path
       id="blindrå"
       d="M 13.178784,156.45911 C 22.654319,154.96394 34.567967,153.10938 42.4428,152.45952 C 43.200131,152.39702 43.202925,151.0261 42.4428,151.03109 C 29.530752,151.11775 26.683063,151.20938 13.434276,154.55523 C 12.8523,154.7022 12.584898,156.55282 13.178784,156.45911 z" />
    <g
       id="blinda">
      <path
         d="M 18.892318,155.87976 L 40.651126,153.60226 C 32.163011,164.70156 39.871882,176.31812 67.753653,183.33566 C 39.846405,180.10639 40.797248,181.88468 45.134219,188.83589 C 8.6193559,187.35149 5.9395072,168.62896 18.892318,155.87976 z"
         id="path2444" />
      <path
         style="fill:none"
         d="M 19.022504,157.75258 C 13.325389,171.8232 21.144111,181.713 42.632916,187.08226"
         id="path2448" />
    </g>
    <path
       id="bogspröt"
       d="M 55.854824,167.20401 L 12.832991,142.11097 C 11.058951,141.04971 10.008675,143.46366 11.546165,144.42946 L 57.814755,174.47292" />
    <path
       id="mast"
       d="M 103.26041,205.35624 L 96.077764,205.55325 L 92.160493,13.9382 C 92.049056,8.4873675 95.484237,8.4440677 95.722505,13.79016 L 103.26041,205.35624 z" />
    <path
       id="fock"
       d="M 93.134109,73.022937 C 64.227507,84.514798 36.845189,119.55116 30.101787,150.7027 C 41.703097,148.17572 72.531825,152.64459 96.266305,179.05452 C 76.595574,133.70334 81.458125,99.078406 93.134109,73.022937 z" />
    <g
       id="skrov">
      <path
         d="M 54.578334,166.57536 C 46.047971,212.43015 71.7512,216.25048 134.6306,216.99725 C 198.59259,217.76398 233.819,219.98293 230.75819,179.5559 C 233.66785,178.07171 237.67282,175.91257 241.01019,172.60371 C 239.96313,167.82061 239.32904,162.2249 240.19973,155.60707 C 165.76862,194.44691 84.018418,181.29678 54.578334,166.57536 z"
         id="path2432" />
      <path
         style="fill:none"
         id="path2434"
         d="M 230.84507,179.6184 C 186.70511,202.01882 48.029894,195.08378 53.312509,176.91897 M 230.72128,188.10553 C 163.87302,211.92771 51.23893,196.28003 53.186311,184.36241 M 229.01582,197.21181 C 166.25478,220.18608 54.517472,206.00886 54.145027,191.28508 M 239.7666,165.52514 C 185.61355,197.61698 50.554138,186.91326 53.731371,171.33526" />
    </g>
    <g
       id="läbord">
      <path
         id="path2438"
         d="M 153.27539,185.77529 C 176.04789,186.86121 171.84182,222.41832 145.62069,214.12026 C 109.50952,202.69235 98.072373,196.64844 101.12633,188.26573 C 103.91889,180.60051 115.85218,184.0076 153.27539,185.77529 z" />
      <path
         d="M 110.8753,183.62732 C 114.86946,187.40805 111.20055,195.35951 105.76578,197.67996 M 112.88597,187.76892 L 166.48466,194.88125 M 109.80261,195.03461 L 161.55198,212.80024 M 111.79358,191.65403 L 167.50793,204.06861"
         style="fill:none"
         id="path2436" />
    </g>
  </g>
  <path
     d="M 33.4065,190.18751 C 18.042667,190.18751 12.575519,198.7222 4.219,204.75001 C 18.717654,276.00024 86.73669,302.75001 125.50025,302.75001 C 164.28839,302.75 234.66296,274.9998 247.50025,200.75001 C 241.40828,195.52965 235.4318,190.18751 223.2815,190.18751 C 199.54449,190.18751 199.581,210.62501 175.844,210.62501 C 152.10699,210.62499 152.11226,190.18751 128.37525,190.18751 C 104.63824,190.18751 104.64351,210.62501 80.9065,210.62501 C 57.169484,210.62499 57.143503,190.18751 33.4065,190.18751 z"
     style="fill:#003d8f;stroke:#eeeeee"
     id="Vagskura" />
  <path
     d="M 249.55062,1.4395041 L 1.449569,1.4395041 L 1.449569,174.9361 C 0.68232904,268.65698 81.739009,302.75585 125.5001,302.75585 C 168.49395,302.75585 250.31785,268.65698 249.55062,174.9361 L 249.55062,1.4395041 z "
     style="fill:none;fill-opacity:0;stroke:#000000;stroke-width:1.88832211;stroke-linejoin:bevel"
     id="Frame" />
</svg>
