<?xml version="1.0" encoding="UTF-8" standalone="no"?>
<!-- Created with Inkscape (http://www.inkscape.org/) -->

<svg
   xmlns:dc="http://purl.org/dc/elements/1.1/"
   xmlns:cc="http://web.resource.org/cc/"
   xmlns:rdf="http://www.w3.org/1999/02/22-rdf-syntax-ns#"
   xmlns:svg="http://www.w3.org/2000/svg"
   xmlns="http://www.w3.org/2000/svg"
   xmlns:xlink="http://www.w3.org/1999/xlink"
   version="1.0"
   width="251"
   height="304.20001"
   id="svg4166">
  <defs
     id="defs4168" />
  <metadata
     id="metadata1880"><rdf:RDF><cc:Work
         rdf:about=""><dc:title>Saffle kommunvapen</dc:title><dc:date>12-10-2007</dc:date><dc:creator><cc:Agent><dc:title>Lokal_Profil</dc:title></cc:Agent></dc:creator><cc:license
         rdf:resource="http://creativecommons.org/licenses/by-sa/2.5/" /><dc:rights><cc:Agent><dc:title>cc-by-sa-2.5</dc:title></cc:Agent></dc:rights><dc:format>image/svg+xml</dc:format><dc:type
         rdf:resource="http://purl.org/dc/dcmitype/StillImage" /></cc:Work><cc:License
         rdf:about="http://creativecommons.org/licenses/by-sa/2.5/"><cc:permits
         rdf:resource="http://web.resource.org/cc/Reproduction" /><cc:permits
         rdf:resource="http://web.resource.org/cc/Distribution" /><cc:requires
         rdf:resource="http://web.resource.org/cc/Notice" /><cc:requires
         rdf:resource="http://web.resource.org/cc/Attribution" /><cc:permits
         rdf:resource="http://web.resource.org/cc/DerivativeWorks" /><cc:requires
         rdf:resource="http://web.resource.org/cc/ShareAlike" /></cc:License></rdf:RDF>
  </metadata>
  <path
     d="m 249.55058,1.4395041 -248.1010509,0 0,173.4965959 C 0.68228908,268.65698 81.738969,302.75585 125.50006,302.75585 c 42.99385,0 124.81775,-34.09887 124.05052,-127.81975 l 0,-173.4965959 z"
     id="Shield"
     style="fill:#ffcd50;stroke:none" />
  <g
     id="Eagle">
    <use
       transform="matrix(-1,0,0,1,251.00011,0)"
       id="use2825"
       x="0"
       y="0"
       width="251"
       height="304.20001"
       xlink:href="#path2367" />
    <path
       d="m 106.40902,70.283805 -1.4823,-1.014202 c -0.70213,0.351071 -10.241523,-0.226305 -12.521475,-1.482292 -2.457478,-1.353787 1.552584,-9.562931 -0.901881,-12.271239 -2.750094,-3.0345 -9.901279,-0.654149 -11.451439,-1.179506 -2.301271,-0.779908 -4.123676,-4.46049 -4.44954,-6.839961 -0.327163,-2.388932 -0.659206,-6.238462 -0.581194,-6.433499 0.07802,-0.195041 0.292341,-0.903905 1.03982,-1.127303 0.840899,-0.25132 4.44366,-1.340285 4.947293,-1.86176 0.402882,-0.417156 4.61074,-3.738279 5.253804,-5.982714 0.550776,-1.922345 0.571728,-3.272728 0.571728,-4.677005 0,-1.404278 -0.0067,-3.544158 -0.552795,-5.22149 -0.546111,-1.677331 -2.099727,-3.171862 -4.206146,-4.73217 -2.106418,-1.560309 -5.428767,-1.865679 -5.428767,-1.865679 l -17.833213,0.302597 c -0.0181,0.0036 -11.837902,-0.223152 -20.791113,-3.943699 6.027236,17.011482 19.798466,13.66531 21.968038,14.641279 -18.861953,5.861016 -27.649781,6.275378 -29.489835,5.77314 0.02879,0.5125 2.303527,3.127899 4.905344,5.112818 2.104729,1.605691 5.021245,2.698658 6.406894,2.922772 2.905811,0.469988 6.103106,0.291646 9.553637,0.0709 1.930537,-0.123507 8.035807,-2.011522 7.531737,-1.241129 -0.395517,0.604488 -3.107676,2.490433 -6.426492,5.281588 -2.915889,2.452293 -6.29461,5.870679 -9.627557,8.611733 -5.960924,4.902338 -12.145368,7.850173 -11.797459,8.185046 1.967562,1.893846 7.440482,3.240203 11.984703,1.901731 1.950747,-0.574582 3.16485,-1.264222 5.296266,-2.737256 1.646975,-1.138234 3.938244,-3.354329 5.29677,-4.580344 2.578196,-2.326718 5.000148,-4.251963 6.522015,-5.584305 -0.0048,1.046652 -0.810725,2.168805 -1.794349,3.978786 -12.326442,23.014554 -26.369221,46.341171 -26.369221,46.341171 11.803095,0.65076 18.471169,-11.351501 24.147727,-18.749894 7.224899,-9.416392 5.574781,-7.445722 7.136465,-9.569711 1.561676,-2.123989 -0.373227,1.340518 -3.666726,9.361852 -3.989698,8.704198 -3.887317,15.372976 -5.321843,24.537863 -1.106025,6.83962 -2.749024,14.94959 -2.791761,14.00176 -0.154226,2.28333 -5.818389,17.01838 -10.532084,29.41182 5.569413,-0.44891 9.566567,-3.68415 12.560483,-6.70932 2.223428,-3.29336 4.069324,-6.64098 5.461083,-10.14201 2.536292,-5.90621 4.37295,-11.56048 6.221675,-16.96118 3.873087,-11.31448 6.576628,-21.3015 9.303392,-28.365791 l -0.08666,14.689681 c 0.328624,3.50941 -0.825109,19.57755 -1.539998,24.49543 -1.738222,11.95768 -2.15798,19.05626 -3.600375,25.5677 18.330447,-2.85187 23.04743,-39.46664 22.624476,-54.532792 1.508294,11.268342 3.016596,22.211752 4.524898,31.830302 3.663295,-2.04484 5.732505,-4.14851 6.631305,-8.26963 0.80616,-11.39566 1.76835,-21.19421 2.57451,-30.816104 l 7.56751,-14.6669 -6.78735,-5.461081 z"
       id="path2367"
       style="fill:#003d8f;fill-rule:nonzero;stroke:none" />
    <path
       d="m 126.44525,29.097915 c 1.46738,0.480206 2.21267,-4.782892 -1.63833,-3.744741 -11.08,3.658662 -18.35777,5.506453 -19.34783,-1.482293 -0.52899,-1.910926 -3.95665,-3.00843 -3.0426,0.780155 4.99447,11.796958 13.82748,1.956427 24.02876,4.446879 z"
       id="path2371"
       style="fill:#d40000;fill-rule:nonzero;stroke:none" />
    <path
       d="m 135.10496,20.828279 -6.00719,16.851333 c -9.31116,-4.362741 -15.05488,-5.492496 -17.7095,-3.822756 1.65466,-2.134203 3.78467,-6.178466 15.29102,-1.482292 -1.74397,-5.166475 -14.94441,-10.669095 -17.39744,-4.992988 -3.4092,-8.037172 0.15855,-11.700733 10.68811,-11.000176 l 15.135,4.446879 z"
       id="path2373"
       style="fill:#d40000;fill-rule:nonzero;stroke:none;marker:none;visibility:visible;display:inline;overflow:visible" />
    <path
       d="m 110.29605,64.594937 c -9.98505,3.188725 -2.08672,1.65823 -2.61988,2.352706 -6.23671,1.99739 -2.20737,24.670932 2.20661,55.937557 -0.84587,3.54581 -1.69174,5.34621 -2.53761,7.17148 -1.44761,1.90372 -4.34175,5.7059 -8.605774,9.0471 l 1.654954,0.88264 -2.316936,2.42728 c 3.741896,2.53694 9.567986,1.11394 10.702056,8.60577 0.19133,-6.13745 1.3426,-2.59568 2.64793,-1.21363 0.21046,-8.8816 3.92042,-12.08192 6.95082,-15.88759 l 14.24365,0 c 3.03041,3.80567 6.74037,7.00599 6.95082,15.88759 1.30533,-1.38205 2.45661,-4.92382 2.64793,1.21363 1.13407,-7.49183 6.96016,-6.06883 10.70206,-8.60577 l -2.31694,-2.42728 1.65496,-0.88264 c -4.26403,-3.3412 -7.15816,-7.14338 -8.60578,-9.0471 -0.84587,-1.82527 -1.69174,-3.62567 -2.53761,-7.17148 4.41398,-31.266625 8.44332,-53.940167 2.20662,-55.937557 -1.36585,-0.730967 1.35465,0.510298 -1.88633,-0.980742 7.18929,1.441475 3.95036,0.734755 1.70295,-0.981885 -6.66332,-6.549627 -1.31857,-2.903684 0.57842,-2.656445 -4.80227,-8.372129 -2.33646,-13.073568 -1.35857,-16.301305 l 1.48229,4.056801 1.76204,-7.820474 3.30896,2.983516 c -0.66814,-3.469694 -1.26281,-7.065348 -2.92835,-8.825208 2.77794,0.63088 4.74983,0.591554 5.0903,0.425142 0.72303,-0.353393 -2.9247,-1.888875 -3.0619,-4.403928 2.3693,0.267494 3.50862,-0.126062 5.31366,-2.132929 0.55132,-0.612966 -2.57474,0.656133 -2.44047,0.256637 -6.8933,-6.411404 -0.53291,-3.346755 -0.27421,-4.62184 -9.76886,-5.340897 -2.20101,-3.600604 -2.68484,-5.149019 -7.2601,-3.209868 -4.54791,-1.513649 -1.58316,-5.594261 -1.6634,0.473782 -4.03608,1.136521 -7.10494,0.633589 0.0232,-0.615534 -5.46129,-2.111006 -14.02128,-2.282802 -2.99014,-0.06001 -4.97218,0.17255 -5.17052,3.140972 10.98798,12.898433 10.89611,17.952724 5.30505,19.11378 1.32612,2.64735 2.26388,4.193443 1.86467,5.023091 -0.67199,1.396524 -4.26749,2.612824 -12.10916,7.046451 3.69183,1.282092 11.73195,-2.857562 0.0339,4.814109 -7.64623,3.614633 -1.688,2.187102 0.84871,2.074102 -1.87665,2.786887 -4.01232,5.550233 -7.48948,8.191621 l 1.79435,1.638321 z"
       id="path2375"
       style="fill:#003d8f;fill-rule:nonzero;stroke:none" />
    <path
       d="m 129.32852,20.084769 c 3.01796,-0.966318 4.55577,0.647999 3.55816,3.530576 -3.20234,1.262132 -4.53586,-0.526875 -3.55816,-3.530576 z"
       id="path2377"
       style="fill:#ffcd50;fill-rule:nonzero;stroke:none" />
  </g>
  <path
     d="m 33.406157,130.18751 c -17.007812,1e-5 -21.869119,10.46792 -31.9687498,16.40625 l 0,28.34375 c -0.76724001,93.72088 80.3014088,127.8125 124.0625028,127.8125 42.99385,-10e-6 124.82973,-34.09162 124.0625,-127.8125 l 0,-32.4375 c -6.88772,-5.69613 -12.77149,-12.3125 -26.28125,-12.3125 -23.73701,1e-5 -23.7005,20.4375 -47.4375,20.4375 -23.73701,-1e-5 -23.73174,-20.4375 -47.46875,-20.4375 -23.73701,1e-5 -23.73174,20.4375 -47.468753,20.4375 -23.73702,-1e-5 -23.762997,-20.4375 -47.5,-20.4375 z"
     id="wave-divider"
     style="fill:#003d8f;fill-rule:nonzero;stroke:#ffcd50;stroke-width:1.88832211;stroke-linecap:round;stroke-linejoin:bevel;stroke-miterlimit:4;stroke-opacity:1;stroke-dashoffset:0;marker:none;visibility:visible;display:block" />
  <path
     d="m 249.55062,1.4395041 -248.101051,0 0,173.4965959 c -0.76723996,93.72088 80.28944,127.81975 124.050531,127.81975 42.99385,0 124.81775,-34.09887 124.05052,-127.81975 l 0,-173.4965959 z"
     id="Frame"
     style="fill:none;stroke:#000000;stroke-width:1.88832211;stroke-linejoin:bevel" />
</svg>
