<?xml version="1.0" encoding="UTF-8" standalone="no"?>
<!-- Created with Inkscape (http://www.inkscape.org/) -->
<svg
   xmlns:dc="http://purl.org/dc/elements/1.1/"
   xmlns:cc="http://web.resource.org/cc/"
   xmlns:rdf="http://www.w3.org/1999/02/22-rdf-syntax-ns#"
   xmlns:svg="http://www.w3.org/2000/svg"
   xmlns="http://www.w3.org/2000/svg"
   version="1.0"
   width="251"
   height="304.20001"
   id="svg4166">
  <defs
     id="defs4168" />
   <metadata
           id="metadata1880"><rdf:RDF><cc:Work
     	   rdf:about=""><dc:title>Lekeberg kommunvapen</dc:title><dc:date>2009-01-25</dc:date><dc:creator><cc:Agent><dc:title>EnDumEn and Lokal_Profil</dc:title></cc:Agent></dc:creator><cc:license
     	   rdf:resource="http://creativecommons.org/licenses/by-sa/2.5/" /><dc:rights><cc:Agent><dc:title>cc-by-sa-2.5</dc:title></cc:Agent></dc:rights><dc:format>image/svg+xml</dc:format><dc:type
     	   rdf:resource="http://purl.org/dc/dcmitype/StillImage" /></cc:Work><cc:License
     	   rdf:about="http://creativecommons.org/licenses/by-sa/2.5/"><cc:permits
     	   rdf:resource="http://web.resource.org/cc/Reproduction" /><cc:permits
     	   rdf:resource="http://web.resource.org/cc/Distribution" /><cc:requires
     	   rdf:resource="http://web.resource.org/cc/Notice" /><cc:requires
     	   rdf:resource="http://web.resource.org/cc/Attribution" /><cc:permits
     	   rdf:resource="http://web.resource.org/cc/DerivativeWorks" /><cc:requires
     	   rdf:resource="http://web.resource.org/cc/ShareAlike" /></cc:License></rdf:RDF>
   </metadata>
  <path
     d="M 249.55058,1.4395041 L 125.50008,1.4395041 L 1.4495291,1.4395041 L 1.4495291,174.9361 C 0.68228908,268.65698 81.738969,302.75585 125.50006,302.75585 C 168.49391,302.75585 250.31781,268.65698 249.55058,174.9361 L 249.55058,1.4395041 z "
     style="fill:#000000"
     id="Shield" />
  <g
     transform="matrix(0.965517,0,0,0.965517,4.327617,5.244782)"
     id="Deer-head">
    <g
       id="Ansikte">
      <path
         d="M 125.50003,297.09778 C 140.39477,297.09778 144.08485,291.44925 148.37516,283.06774 C 155.54824,269.05447 158.62061,253.61588 163.75845,238.84237 C 169.42358,222.55269 178.91124,207.66513 182.62741,190.63371 C 185.56595,177.16625 186.93991,163.30199 191.62777,150.4258 C 194.85995,141.54792 202.86078,135.64963 208.23934,128.10246 C 213.44297,120.80075 219.80888,114.24135 224.08024,106.30786 C 229.63427,95.991994 228.03811,83.6081 227.33767,72.27777 C 226.8217,63.931359 226.5005,54.835684 221.80024,47.632424 C 219.03737,43.398256 213.35487,43.693915 209.34916,46.15134 C 196.74621,53.883008 191.42535,68.089254 185.54071,80.739526 C 179.89822,92.869239 174.02261,105.49096 164.9808,115.30278 C 156.95286,124.0144 144.00863,124.774 125.50003,124.77399 C 106.99143,124.77399 94.047195,124.01439 86.019254,115.30278 C 76.977446,105.49095 71.10184,92.869235 65.459346,80.739518 C 59.574699,68.08925 54.25385,53.883 41.6509,46.151333 C 37.645189,43.693907 31.962695,43.398248 29.199824,47.63242 C 24.499565,54.835676 24.178363,63.931351 23.662387,72.277762 C 22.96195,83.608089 21.365789,95.991982 26.919819,106.30785 C 31.191182,114.24134 37.557092,120.80074 42.760723,128.10245 C 48.139285,135.64963 56.140109,141.54792 59.372288,150.42579 C 64.060146,163.30198 65.434109,177.16624 68.372644,190.6337 C 72.088814,207.66512 81.576481,222.55269 87.241609,238.84236 C 92.379454,253.61587 95.451822,269.05446 102.6249,283.06774 C 106.91521,291.44924 110.75377,297.09778 125.50003,297.09778 z "
         style="fill:#ffcd50"
         id="huvud" />
      <path
         d="M 125.50003,292.43086 C 127.56775,292.43086 130.13384,292.68037 131.74929,291.18734 C 133.0515,289.98382 132.47995,287.91022 132.37495,286.27982 C 132.27475,284.7239 133.6943,283.51833 135.17984,283.44155 C 136.87696,283.35383 137.10189,285.25488 137.11359,286.51281 C 137.12447,287.68373 137.91519,289.05071 139.24813,288.83681 C 140.94374,288.5647 142.18154,287.13603 143.0131,285.74508 C 144.06309,283.98876 144.02917,281.69099 142.92539,279.95379 C 142.28873,278.95175 141.64447,277.9356 141.43959,276.7318 C 141.10219,274.74925 141.86197,272.83143 141.54877,270.85536 C 141.36485,269.69492 140.64666,268.71605 139.62586,268.14451 C 138.45717,267.49017 137.18857,266.31798 135.75613,266.95006 C 134.61341,267.45482 133.66882,268.28307 132.45486,268.70932 C 130.23671,269.48818 127.94176,269.51815 125.50003,269.51813 C 123.05831,269.51813 120.76335,269.48817 118.54521,268.70932 C 117.33124,268.28306 116.38666,267.45481 115.24393,266.95006 C 113.81149,266.31798 112.54289,267.49016 111.3742,268.1445 C 110.3534,268.71604 109.63521,269.69492 109.45129,270.85535 C 109.1381,272.83142 109.89788,274.74924 109.56047,276.73179 C 109.35559,277.93559 108.71133,278.95175 108.07467,279.95378 C 106.97089,281.69098 106.93697,283.98876 107.98696,285.74508 C 108.81852,287.13602 110.05632,288.5647 111.75193,288.83681 C 113.08488,289.05071 113.87559,287.68373 113.88648,286.5128 C 113.89817,285.25487 114.12311,283.35382 115.82022,283.44154 C 117.30576,283.51832 118.72531,284.72389 118.62511,286.27982 C 118.52011,287.91021 117.94856,289.98381 119.25077,291.18734 C 120.86622,292.68036 123.43231,292.43086 125.50003,292.43086 z "
         style="fill:#000000"
         id="nos" />
      <g
         transform="matrix(0.382151,0,0,0.382151,-15.89584,-16.27815)"
         style="fill:#000000"
         id="ögon">
        <path
           d="M 301.75754,589.17842 C 289.12002,589.55249 275.01033,586.04795 267.29977,575.33183 C 262.75681,569.01804 261.85567,560.26461 263.35275,552.98254 C 264.85002,545.69953 269.3668,537.93745 277.12561,535.67921 C 286.68749,532.89617 296.46062,538.84512 302.19706,546.29749 C 307.6948,553.43977 311.83867,561.89157 317.61934,568.35867 C 325.48558,577.15899 333.77087,585.5646 338.48652,596.32451 C 341.38514,602.93845 341.53043,611.25722 338.58622,617.75467 C 336.79135,621.71569 335.96001,627.05162 332.16235,628.95531 C 326.29013,631.89892 327.36229,621.77635 328.24521,618.18413 C 329.4392,613.32631 331.50225,608.26536 329.66472,603.17956 C 327.43501,597.00833 322.39281,591.89395 316.63479,589.28092 C 311.94416,587.15228 306.69594,589.03224 301.75754,589.17842 z "
           id="höger_öga" />
        <path
           d="M 438.24246,589.17842 C 450.87998,589.55249 464.98967,586.04795 472.70023,575.33183 C 477.24319,569.01804 478.14433,560.26461 476.64725,552.98254 C 475.14998,545.69953 470.63319,537.93745 462.87439,535.67921 C 453.31251,532.89617 443.53938,538.84512 437.80294,546.29749 C 432.3052,553.43977 428.16132,561.89157 422.38066,568.35867 C 414.51442,577.15899 406.22913,585.5646 401.51348,596.32451 C 398.61485,602.93845 398.46956,611.25722 401.41378,617.75467 C 403.20865,621.71569 404.03999,627.05162 407.83765,628.95531 C 413.70987,631.89892 412.63771,621.77635 411.75479,618.18413 C 410.5608,613.32631 408.49775,608.26536 410.33528,603.17956 C 412.56499,597.00833 417.60718,591.89395 423.36521,589.28092 C 428.05584,587.15228 433.30405,589.03224 438.24246,589.17842 z "
           id="vänster_öga" />
      </g>
    </g>
    <g
       transform="matrix(0.382151,0,0,0.382151,-15.89584,-16.27815)"
       style="fill:#d40000"
       id="horn">
      <path
         d="M 244.23898,434.06586 C 261.06324,423.71677 276.87134,416.2388 274.47043,398.839 C 268.52365,355.74178 257.88859,312.70904 250.63678,269.57018 C 240.96306,212.024 237.94234,153.62946 249.83284,96.161749 C 252.25068,84.476134 254.94026,60.027208 258.50947,61.210267 C 262.83284,62.643295 260.15827,89.903071 260.4596,104.2529 C 261.38222,148.19055 261.40043,192.32594 267.54737,236.06937 C 269.25377,248.21267 280.39987,256.72876 294.34475,246.87202 C 300.27973,242.67697 328.82902,229.56112 323.80856,239.15165 C 315.8814,254.29485 292.61475,264.70235 289.38601,281.08124 C 282.90087,313.97913 292.88342,348.14136 304.24623,380.30933 C 309.57473,395.39431 317.16879,412.67956 334.38394,421.57926 C 346.44919,427.81662 371.57996,429.29692 349.78074,441.46726 C 332.24082,451.25966 310.64724,452.11252 289.96407,449.91718 C 277.05585,448.54708 233.14775,440.8884 244.23898,434.06586 z "
         id="höger horn" />
      <path
         d="M 495.76101,434.06586 C 478.93677,423.71677 463.12867,416.2388 465.52959,398.839 C 471.47636,355.74178 482.11142,312.70904 489.36321,269.57018 C 499.03693,212.024 502.05766,153.62946 490.16718,96.161749 C 487.74933,84.476134 485.05974,60.027208 481.49052,61.210267 C 477.16716,62.643295 479.84174,89.903071 479.54041,104.2529 C 478.61778,148.19055 478.59958,192.32594 472.45264,236.06937 C 470.74622,248.21267 459.60015,256.72876 445.65524,246.87202 C 439.72029,242.67697 411.17098,229.56112 416.19143,239.15165 C 424.1186,254.29485 447.38524,264.70235 450.61399,281.08124 C 457.09913,313.97913 447.11657,348.14136 435.75378,380.30933 C 430.42526,395.39431 422.83121,412.67956 405.61605,421.57926 C 393.5508,427.81662 368.42005,429.29692 390.21927,441.46726 C 407.75918,451.25966 429.35277,452.11252 450.03593,449.91718 C 462.94415,448.54708 506.85226,440.8884 495.76101,434.06586 z "
         id="vänster horn" />
    </g>
  </g>
  <path
     d="M 249.55062,1.4395041 L 125.50012,1.4395041 L 1.449569,1.4395041 L 1.449569,174.9361 C 0.68232904,268.65698 81.739009,302.75585 125.5001,302.75585 C 168.49395,302.75585 250.31785,268.65698 249.55062,174.9361 L 249.55062,1.4395041 z "
     style="fill:none;fill-opacity:0;stroke:#000000;stroke-width:1.88832211;stroke-linecap:round;stroke-linejoin:bevel"
     id="Frame" />
</svg>
