<?xml version="1.0" encoding="UTF-8" standalone="no"?>
<!-- Created with Inkscape (http://www.inkscape.org/) -->
<svg
   xmlns:dc="http://purl.org/dc/elements/1.1/"
   xmlns:cc="http://web.resource.org/cc/"
   xmlns:rdf="http://www.w3.org/1999/02/22-rdf-syntax-ns#"
   xmlns:svg="http://www.w3.org/2000/svg"
   xmlns="http://www.w3.org/2000/svg"
   xmlns:xlink="http://www.w3.org/1999/xlink"
   version="1.0"
   width="251"
   height="304.04999"
   id="svg5827">
<metadata
   id="metadata1880"><rdf:RDF><cc:Work
       rdf:about=""><dc:title>Laxa kommuns vapen</dc:title><dc:date>2007-05-09</dc:date><dc:creator><cc:Agent><dc:title>Lokal_Profil</dc:title></cc:Agent></dc:creator><cc:license
         rdf:resource="http://creativecommons.org/licenses/by-sa/2.5/" /><dc:rights><cc:Agent><dc:title>cc-by-sa-2.5</dc:title></cc:Agent></dc:rights><dc:format>image/svg+xml</dc:format><dc:type
         rdf:resource="http://purl.org/dc/dcmitype/StillImage" /></cc:Work><cc:License
       rdf:about="http://creativecommons.org/licenses/by-sa/2.5/"><cc:permits
         rdf:resource="http://web.resource.org/cc/Reproduction" /><cc:permits
         rdf:resource="http://web.resource.org/cc/Distribution" /><cc:requires
         rdf:resource="http://web.resource.org/cc/Notice" /><cc:requires
         rdf:resource="http://web.resource.org/cc/Attribution" /><cc:permits
         rdf:resource="http://web.resource.org/cc/DerivativeWorks" /><cc:requires
         rdf:resource="http://web.resource.org/cc/ShareAlike" /></cc:License></rdf:RDF>
</metadata>
  <defs
     id="defs5829" />
  <path
     d="M 1.4602422,1.2829608 L 125.51074,1.2829608 L 249.5613,1.2829608 L 249.5613,174.77956 C 250.32854,268.50044 169.27186,302.59931 125.51076,302.59931 C 82.516912,302.59931 0.69301317,268.50044 1.4602422,174.77956 L 1.4602422,1.2829608 z "
     style="color:#000000;fill:#d40000;fill-opacity:1;fill-rule:nonzero;stroke:#000000;stroke-width:1.88832211;stroke-linecap:round;stroke-linejoin:bevel;marker:none;marker-start:none;marker-mid:none;marker-end:none;stroke-miterlimit:4;stroke-dashoffset:0;stroke-opacity:1;visibility:visible;display:block"
     id="Shield" />
  <path
     d="M 1.46875,1.28125 L 1.46875,33.0625 L 95.875,127.46875 L 7.21875,216.125 C 11.777713,230.94678 18.781201,243.60654 27.3125,254.28125 L 125,156.59375 L 223.375,254.96875 C 231.94071,244.35263 239.0006,231.74385 243.625,216.96875 L 154.125,127.46875 L 249.5625,32.03125 L 249.5625,1.28125 L 222.0625,1.28125 L 125,98.34375 L 27.9375,1.28125 L 1.46875,1.28125 z "
     style="fill:#eeeeee;fill-opacity:1;fill-rule:nonzero;stroke:none;stroke-width:0.69999999;stroke-linecap:butt;stroke-miterlimit:4;stroke-opacity:1"
     id="Cross" />
  <path
     d="M 1.4602422,1.2829608 L 125.51074,1.2829608 L 249.5613,1.2829608 L 249.5613,174.77956 C 250.32854,268.50044 169.27186,302.59931 125.51076,302.59931 C 82.516912,302.59931 0.69301317,268.50044 1.4602422,174.77956 L 1.4602422,1.2829608 z "
     style="color:#000000;fill:none;fill-opacity:1;fill-rule:nonzero;stroke:#000000;stroke-width:1.88832211;stroke-linecap:round;stroke-linejoin:bevel;marker:none;marker-start:none;marker-mid:none;marker-end:none;stroke-miterlimit:4;stroke-dashoffset:0;stroke-opacity:1;visibility:visible;display:block"
     id="Frame" />
  <path
     d="M 96.36057,220.29599 C 94.00859,218.70564 88.390751,215.23442 84.668451,217.83223 C 82.981261,218.39462 88.487021,225.49161 89.708091,227.33412 C 93.93736,233.76582 95.98867,241.15385 99.26008,248.20829 C 100.9293,255.15071 107.9191,259.84524 109.86461,266.28477 C 110.42701,270.78395 111.53858,281.53601 110.97618,284.91039 C 110.41379,288.28477 110.41379,290.68585 110.41379,290.68585 C 110.7152,292.01198 135.66114,296.18927 146.08716,290.09218 C 145.68948,286.51311 143.14682,273.99527 143.30344,266.75566 C 146.43877,260.58019 148.07553,255.36435 149.66623,250.98993 C 151.25693,246.61551 152.44995,237.49509 152.44995,233.91602 C 152.44995,230.33695 153.2989,217.90847 154.01127,214.37854 C 155.84906,205.27199 157.54355,195.7002 153.52007,195.08958 C 149.83914,194.18146 146.35116,206.22991 146.11053,210.64735 C 145.44371,214.1102 144.69316,216.28238 143.74936,224.39182 C 144.34623,219.92634 143.89965,216.90394 144.03056,212.19451 C 143.61633,205.95842 144.07051,206.29408 143.64701,200.78005 C 143.11377,195.46665 146.59214,182.1694 140.01938,180.82646 C 135.64321,179.83894 134.65289,189.77062 133.84821,197.13112 C 133.30013,200.29314 132.99475,203.78662 133.16273,207.6695 C 132.95827,212.28487 132.99716,214.3157 132.9639,218.60555 C 132.8397,214.16428 133.29177,210.40688 132.84742,205.58463 C 132.37042,200.00735 131.82722,199.129 132.10032,193.10027 C 131.70264,190.71423 134.15828,177.61095 127.3213,177.72742 C 121.80775,179.5558 122.54543,186.93953 122.22668,193.35321 C 122.22668,198.14002 121.98174,201.26001 122.14432,206.57882 C 122.14432,206.57882 122.16831,212.37995 122.62436,218.21616 C 122.1631,212.20212 122.402,210.40911 122.21632,206.40434 C 121.56771,201.62466 121.52201,201.72449 121.04406,197.17834 C 121.1333,183.54948 119.19669,181.83557 117.01512,181.93047 C 111.59304,182.16634 111.46857,189.41808 110.89296,198.52298 C 110.49528,201.40291 110.69412,204.60707 110.89296,209.02981 C 110.89296,210.19758 112.20809,232.32492 109.68289,237.97844 C 103.63991,233.83727 102.45912,225.57318 96.36057,220.29599 z "
     style="fill:#eeeeee;fill-opacity:1;fill-rule:evenodd;stroke:#d40000;stroke-width:2.55579448;stroke-linecap:butt;stroke-linejoin:miter;stroke-miterlimit:4;stroke-dasharray:none;stroke-opacity:1"
     id="Glove" />
  <g
     transform="matrix(2.27267,0,0,2.260066,-718.5821,-1096.793)"
     style="stroke:#eeeeee;stroke-opacity:1"
     id="Mars-Symbol">
    <path
       d="M 387.95009,489.60348 L 378.66214,498.89143"
       style="opacity:1;color:#000000;fill:none;fill-opacity:0.75;fill-rule:evenodd;stroke:#eeeeee;stroke-width:3;stroke-linecap:butt;stroke-linejoin:miter;marker:none;marker-start:none;marker-mid:none;marker-end:none;stroke-miterlimit:4;stroke-dasharray:none;stroke-dashoffset:0;stroke-opacity:1;visibility:visible;display:inline;overflow:visible"
       id="path6404" />
    <path
       d="M 49.396475,36.70454 C 49.396475,45.717349 42.401407,53.023675 33.772553,53.023675 C 25.143698,53.023675 18.14863,45.717349 18.14863,36.70454 C 18.14863,27.691731 25.143698,20.385405 33.772553,20.385405 C 42.401407,20.385405 49.396475,27.691731 49.396475,36.70454 L 49.396475,36.70454 z "
       transform="matrix(0.48802,0.48802,-0.467594,0.467594,371.6094,473.1357)"
       style="opacity:1;color:#000000;fill:none;fill-opacity:1;fill-rule:evenodd;stroke:#eeeeee;stroke-width:4.44071579;stroke-linecap:butt;stroke-linejoin:miter;marker:none;marker-start:none;marker-mid:none;marker-end:none;stroke-miterlimit:4;stroke-dasharray:none;stroke-dashoffset:0;stroke-opacity:1;visibility:visible;display:inline;overflow:visible"
       id="path6406" />
    <path
       d="M 379.92823,489.70212 C 387.842,489.70212 387.842,489.70212 387.842,489.70212 L 387.842,497.61589"
       style="fill:none;fill-rule:evenodd;stroke:#eeeeee;stroke-width:3;stroke-linecap:butt;stroke-linejoin:miter;stroke-miterlimit:4;stroke-dasharray:none;stroke-opacity:1"
       id="path6408" />
  </g>
</svg>
