<?xml version="1.0" encoding="UTF-8" standalone="no"?>
<!-- Created with Inkscape (http://www.inkscape.org/) -->
<svg
   xmlns:dc="http://purl.org/dc/elements/1.1/"
   xmlns:cc="http://web.resource.org/cc/"
   xmlns:rdf="http://www.w3.org/1999/02/22-rdf-syntax-ns#"
   xmlns:svg="http://www.w3.org/2000/svg"
   xmlns="http://www.w3.org/2000/svg"
   version="1.0"
   width="251"
   height="304.20001"
   id="svg4166">
  <defs
     id="defs4168" />
  <metadata
     id="metadata1880"><rdf:RDF><cc:Work
         rdf:about=""><dc:title>Hallefors kommunvapen</dc:title><dc:date>18-08-2007</dc:date><dc:creator><cc:Agent><dc:title>Lokal_Profil</dc:title></cc:Agent></dc:creator><cc:license
         rdf:resource="http://creativecommons.org/licenses/by-sa/2.5/" /><dc:rights><cc:Agent><dc:title>cc-by-sa-2.5</dc:title></cc:Agent></dc:rights><dc:format>image/svg+xml</dc:format><dc:type
         rdf:resource="http://purl.org/dc/dcmitype/StillImage" /></cc:Work><cc:License
         rdf:about="http://creativecommons.org/licenses/by-sa/2.5/"><cc:permits
         rdf:resource="http://web.resource.org/cc/Reproduction" /><cc:permits
         rdf:resource="http://web.resource.org/cc/Distribution" /><cc:requires
         rdf:resource="http://web.resource.org/cc/Notice" /><cc:requires
         rdf:resource="http://web.resource.org/cc/Attribution" /><cc:permits
         rdf:resource="http://web.resource.org/cc/DerivativeWorks" /><cc:requires
         rdf:resource="http://web.resource.org/cc/ShareAlike" /></cc:License></rdf:RDF>
  </metadata>
  <path
     d="M 249.55058,1.4395041 L 125.50008,1.4395041 L 1.4495291,1.4395041 L 1.4495291,174.9361 C 0.68228908,268.65698 81.738969,302.75585 125.50006,302.75585 C 168.49391,302.75585 250.31781,268.65698 249.55058,174.9361 L 249.55058,1.4395041 z "
     style="color:#000000;fill:#eeeeee;fill-opacity:1;fill-rule:nonzero;stroke:none;stroke-width:1.88832211;stroke-linecap:round;stroke-linejoin:bevel;marker:none;marker-start:none;marker-mid:none;marker-end:none;stroke-miterlimit:4;stroke-dashoffset:0;stroke-opacity:1;visibility:visible;display:block"
     id="Shield" />
  <path
     d="M 95.641084,121.83646 C 94.80831,113.0235 98.0414,109.40173 95.543112,100.89061 C 97.649504,102.15822 99.462005,104.57273 100.39271,106.62508 C 101.8133,97.449962 102.69506,87.671221 102.00926,78.979035 C 105.14436,79.944807 107.29977,86.705417 108.62237,89.904651 C 112.14937,76.866315 113.0801,65.095618 110.58181,58.093543 C 113.76592,58.51611 115.6274,63.103641 117.78277,68.29482 C 119.88918,64.854154 119.54629,57.731389 119.54629,50.367119 C 119.88918,46.866092 120.37903,42.94253 122.14254,41.071305 C 123.85704,57.550276 130.42119,56.161948 134.09513,74.512174 C 135.41776,70.890426 135.66271,66.966853 135.31979,62.017137 C 139.63058,65.095618 143.40249,76.624873 145.41092,93.103864 C 147.32138,91.896607 148.20313,87.248674 148.93793,81.997166 C 153.10173,89.301012 154.57132,98.415786 152.46493,109.28103 C 151.38724,112.35951 150.70142,115.49836 151.04433,118.9994 C 152.80781,117.67143 153.39566,114.47223 154.42437,111.81624 C 155.15914,115.73983 155.89395,120.38772 155.25715,123.76804 C 153.15072,143.32552 134.96804,146.63772 123.48018,146.5389 C 117.04817,146.48133 97.952098,142.05733 95.641084,121.83646 z "
     style="font-style:normal;font-variant:normal;font-weight:normal;font-stretch:normal;letter-spacing:normal;word-spacing:normal;text-anchor:start;fill:#d40000;fill-opacity:1;fill-rule:evenodd;stroke:none;stroke-width:0;stroke-linecap:butt;stroke-linejoin:miter;stroke-miterlimit:10.43299961;stroke-dasharray:none;stroke-dashoffset:0;stroke-opacity:1"
     id="Eld" />
  <path
     d="M 124.93725,148.21876 C 109.45588,148.30257 94.748565,154.74723 82.531,164.21876 C 75.38204,170.41232 68.928561,179.18326 66.74975,185.65626 C 66.186277,187.33026 65.696092,187.37477 63.5935,185.87501 C 62.695263,185.2343 60.17125,183.87909 57.9685,182.87501 C 41.417305,175.33051 24.163914,175.4425 7.56225,183.18751 L 1.781,186.37501 C 7.461471,271.44094 84.303917,302.75 125.49975,302.75001 C 167.50245,302.75001 243.8281,271.3332 249.2185,185.93751 L 247.031,184.71876 C 228.61774,174.94213 207.73521,175.32852 189.531,184.96876 C 187.5546,186.15027 185.8807,187.04572 185.781,186.93751 C 185.68129,186.82931 184.74191,184.96113 183.68725,182.78126 C 180.31448,175.81004 177.32699,171.80262 171.406,166.25001 C 160.21014,155.75079 147.95628,150.30582 131.62475,148.59376 C 129.3858,148.33622 127.14887,148.20679 124.93725,148.21876 z "
     style="fill:#003d8f;fill-opacity:1"
     id="Treberg" />
  <path
     d="M 120.8125,148.40625 C 114.69813,148.88072 108.74191,150.30769 103.03125,152.5 C 99.553037,158.6059 95.5,163.75547 95.5,175.71875 C 95.5,196.64268 107.90626,196.63858 107.90625,217.5625 C 107.90625,238.48642 95.5,238.48233 95.5,259.40625 C 95.5,280.2866 107.85473,280.33144 107.90625,301.125 C 114.21395,302.22681 120.15816,302.75 125.5,302.75 C 134.28858,302.75 144.57653,301.33259 155.40625,298.375 C 154.31536,280.30319 143.09375,279.31533 143.09375,259.40625 C 143.09375,238.48235 155.50001,238.48642 155.5,217.5625 C 155.5,196.63858 143.09375,196.64267 143.09375,175.71875 C 143.09375,167.30796 145.0958,158.92068 147.5,151.875 C 142.62428,150.28599 137.38178,149.19724 131.625,148.59375 C 130.88214,148.5083 130.14781,148.46301 129.40625,148.40625 L 126.46875,148.40625 L 120.8125,148.40625 z "
     style="opacity:1;fill:#eeeeee;fill-opacity:1;fill-rule:nonzero;stroke:#003d8f;stroke-width:1;stroke-miterlimit:4;stroke-dasharray:none;stroke-opacity:1"
     id="Stolpe" />
  <path
     d="M 87.008127,64.517302 C 87.008127,50.48177 79.273186,38.250175 67.847739,31.820853 C 74.034289,37.045507 77.966147,44.866123 77.966147,53.591575 C 77.966147,69.309698 65.212802,82.06305 49.494671,82.06305 C 33.776539,82.06305 21.023195,69.309698 21.023195,53.591575 C 21.023195,44.87973 24.944806,37.072323 31.114691,31.847763 C 19.710413,38.282907 12.008127,50.497555 12.008127,64.517302 C 12.008127,85.219236 28.792737,102.03076 49.494671,102.03076 C 70.196605,102.03076 87.008136,85.219236 87.008127,64.517302 z "
     style="fill:#003d8f;fill-opacity:1;fill-rule:nonzero;stroke:none;stroke-width:2;stroke-miterlimit:4;stroke-dasharray:none;stroke-opacity:1"
     id="Crescent" />
  <g
     transform="matrix(1.228496,0,0,1.228496,-275.7838,-568.2289)"
     style="stroke:#003d8f;stroke-opacity:1"
     id="Mars-Symbol">
    <g
       transform="matrix(1.948116,0,0,1.937312,-342.4303,-460.0101)"
       style="stroke:#003d8f;stroke-opacity:1"
       id="g1872">
      <path
         d="M 387.95009,489.60348 L 378.66214,498.89143"
         style="opacity:1;color:#000000;fill:none;fill-opacity:0.75;fill-rule:evenodd;stroke:#003d8f;stroke-width:3;stroke-linecap:butt;stroke-linejoin:miter;marker:none;marker-start:none;marker-mid:none;marker-end:none;stroke-miterlimit:4;stroke-dasharray:none;stroke-dashoffset:0;stroke-opacity:1;visibility:visible;display:inline;overflow:visible"
         id="path26867" />
      <path
         d="M 49.396475,36.70454 C 49.396475,45.717349 42.401407,53.023675 33.772553,53.023675 C 25.143698,53.023675 18.14863,45.717349 18.14863,36.70454 C 18.14863,27.691731 25.143698,20.385405 33.772553,20.385405 C 42.401407,20.385405 49.396475,27.691731 49.396475,36.70454 L 49.396475,36.70454 z "
         transform="matrix(0.48802,0.48802,-0.467594,0.467594,371.6094,473.1357)"
         style="opacity:1;color:#000000;fill:none;fill-opacity:1;fill-rule:evenodd;stroke:#003d8f;stroke-width:4.44071579;stroke-linecap:butt;stroke-linejoin:miter;marker:none;marker-start:none;marker-mid:none;marker-end:none;stroke-miterlimit:4;stroke-dasharray:none;stroke-dashoffset:0;stroke-opacity:1;visibility:visible;display:inline;overflow:visible"
         id="path26871" />
      <path
         d="M 379.92823,489.70212 C 387.842,489.70212 387.842,489.70212 387.842,489.70212 L 387.842,497.61589"
         style="fill:none;fill-rule:evenodd;stroke:#003d8f;stroke-width:3;stroke-linecap:butt;stroke-linejoin:miter;stroke-miterlimit:4;stroke-dasharray:none;stroke-opacity:1"
         id="path27759" />
    </g>
  </g>
  <path
     d="M 249.55062,1.4395041 L 125.50012,1.4395041 L 1.449569,1.4395041 L 1.449569,174.9361 C 0.68232904,268.65698 81.739009,302.75585 125.5001,302.75585 C 168.49395,302.75585 250.31785,268.65698 249.55062,174.9361 L 249.55062,1.4395041 z "
     style="color:#000000;fill:none;fill-opacity:0;fill-rule:nonzero;stroke:#000000;stroke-width:1.88832211;stroke-linecap:round;stroke-linejoin:bevel;marker:none;marker-start:none;marker-mid:none;marker-end:none;stroke-miterlimit:4;stroke-dashoffset:0;stroke-opacity:1;visibility:visible;display:block"
     id="Frame" />
</svg>
