<?xml version="1.0" encoding="UTF-8" standalone="no"?>
<!-- Created with Inkscape (http://www.inkscape.org/) -->

<svg
   xmlns:dc="http://purl.org/dc/elements/1.1/"
   xmlns:cc="http://web.resource.org/cc/"
   xmlns:xlink="http://www.w3.org/1999/xlink"
   xmlns:rdf="http://www.w3.org/1999/02/22-rdf-syntax-ns#"
   xmlns:svg="http://www.w3.org/2000/svg"
   xmlns="http://www.w3.org/2000/svg"
   version="1.0"
   width="251"
   height="304.04999"
   id="svg2064">
  <defs
     id="defs2066" />
<metadata
   id="metadata1880"><rdf:RDF><cc:Work
       rdf:about=""><dc:title>Nora kommunvapen</dc:title><dc:date>2007-05-09</dc:date><dc:creator><cc:Agent><dc:title>Lokal_Profil</dc:title></cc:Agent></dc:creator><cc:license
         rdf:resource="http://creativecommons.org/licenses/by-sa/2.5/" /><dc:rights><cc:Agent><dc:title>cc-by-sa-2.5</dc:title></cc:Agent></dc:rights><dc:format>image/svg+xml</dc:format><dc:type
         rdf:resource="http://purl.org/dc/dcmitype/StillImage" /></cc:Work><cc:License
       rdf:about="http://creativecommons.org/licenses/by-sa/2.5/"><cc:permits
         rdf:resource="http://web.resource.org/cc/Reproduction" /><cc:permits
         rdf:resource="http://web.resource.org/cc/Distribution" /><cc:requires
         rdf:resource="http://web.resource.org/cc/Notice" /><cc:requires
         rdf:resource="http://web.resource.org/cc/Attribution" /><cc:permits
         rdf:resource="http://web.resource.org/cc/DerivativeWorks" /><cc:requires
         rdf:resource="http://web.resource.org/cc/ShareAlike" /></cc:License></rdf:RDF>
</metadata>
  <path
     d="m 1.4495587,1.2894847 124.0505013,0 124.05055,0 0,173.4965953 c 0.76724,93.72088 -80.28944,127.81975 -124.05053,127.81975 -42.993851,0 -124.81775133,-34.09887 -124.0505213,-127.81975 l 0,-173.4965953 z"
     id="Shield"
     style="fill:#eeeeee" />
  <path
     d="m 2.46875,193.46875 c 9.426331,79.60496 83.02671,109.125 123.03125,109.125 40.71844,0 113.69385,-29.52005 123.03125,-109.125 l -246.0625,0 z"
     id="Stam"
     style="fill:#225500" />
  <g
     transform="matrix(0.14041792,0,0,0.27121684,152.49071,33.480629)"
     id="Gran"
     style="fill:#225500">
    <path
       d="m -219.86513,331.1238 c 7.09106,118.00763 -2.36332,236.70139 -13.25521,270.58393 l 84.57483,0 c -14.06417,-31.88553 -25.40692,-160.81631 -16.2539,-269.67965"
       id="path2884" />
    <path
       d="m -183.99354,-98.168766 c -14.78564,29.86057 -23.88373,63.558529 -49.85436,85.104197 0.72692,14.0952522 26.08819,-4.021246 25.85675,-3.301703 -6.51266,20.2479059 -28.79529,57.146395 -56.06679,68.057618 5.7343,14.963664 21.60954,20.862438 33.73314,8.967469 l -10.52142,15.144917 c 7.2208,4.159304 15.18985,-0.488345 23.31597,-6.984929 -25.25185,48.771047 -58.56769,51.010547 -88.37881,60.474047 20.60811,34.79775 32.55413,15.70451 47.2879,13.95512 -2.06948,7.15894 -6.77506,12.2494 -14.33199,15.10233 8.75085,13.7289 38.90283,-9.3583 58.57567,-14.41831 -44.029,37.6764 -88.54434,60.60808 -131.92758,48.11852 3.11476,13.77748 0.33906,23.47592 12.8242,32.81018 13.72765,10.26315 46.97358,-0.67731 46.97358,-0.67731 l -26.77968,17.03143 c 5.6744,6.28314 10.23776,15.60736 22.11616,15.25263 20.39096,-0.60893 34.77419,-12.4547 52.4038,-19.72387 -47.46727,53.87166 -155.63111,39.08871 -157.21856,34.13106 7.23834,16.21721 1.78241,23.47491 28.02736,44.48837 21.92858,17.55747 54.12275,-2.93857 54.11454,-2.93535 2.96036,1.74221 -28.02189,20.41143 -36.75816,23.2029 -7.3041,2.33383 11.95078,20.91181 22.35689,20.44209 24.84235,-1.12133 47.65016,-13.10869 68.30985,-20.72756 -51.9636,43.79279 -126.13971,45.09673 -181.78193,5.4237 2.72408,24.18228 1.88249,43.80356 27.38748,76.36666 17.76587,22.6823 70.94071,-15.55511 68.75203,-8.47075 -13.77285,10.26144 -24.63033,21.66671 -46.06017,28.92396 41.57748,44.44116 59.25188,4.47776 83.88888,-10.8999 l -26.97434,37.40162 c 25.76558,6.67934 36.38067,23.86194 74.28548,-44.12211 l -11.31828,33.22227 c 20.80071,-4.73064 41.60146,-26.22181 62.40217,-58.91662 l 17.71392,16.81296 17.71395,-14.79445 c 20.88573,20.57498 25.95448,55.11293 66.2959,58.51289 l -12.6902,-29.32761 c 28.665372,40.93447 51.559251,51.3637 70.169749,34.172 l -20.457757,-27.71282 c 13.941164,9.26033 31.343272,27.37066 41.823455,27.71282 21.2734084,-3.15905 24.1508497,-11.38624 33.1479848,-25.29067 -11.6161499,-2.42588 -25.2704738,-10.441 -31.9980728,-21.65733 11.370618,-0.28618 36.9820992,17.16364 54.856677,8.88134 8.723302,-4.042 22.887544,-12.68304 30.061149,-77.2254 -48.7445562,33.23856 -102.751208,49.20974 -181.375965,-15.60189 30.171953,8.63676 67.797682,45.34835 85.603774,7.40894 -20.133543,-5.12161 -25.80607,-12.13444 -29.718154,-19.37751 16.456343,3.36431 33.225093,9.69231 48.3989,3.24148 14.8734339,-6.32314 23.1036112,-22.58197 30.34529,-43.73033 -23.695586,-1.5211 -77.218409,21.81002 -154.40158,-38.0666 17.29865,5.87847 36.85378,20.38966 51.890806,17.62037 14.984392,-2.75956 13.433945,-10.5382 18.056909,-15.60188 -5.14469,-0.69726 -10.289343,-5.78189 -15.434033,-12.91839 11.163622,2.41146 22.327282,8.82165 33.490904,6.45917 15.825159,-13.2815 13.108382,-25.10807 16.342012,-37.4016 -63.164828,6.7892 -106.682898,-33.5634 -107.998418,-46.5443 14.05965,5.28835 31.90109,26.47425 40.22952,7.67028 -4.10798,2.07223 -15.53727,-12.49322 -13.37614,-13.58339 0,5.89303 50.367575,14.27332 53.141781,-15.19817 15.814888,-0.77343 -75.864951,7.5503 -89.598551,-64.164684 8.89258,6.49557 15.5626,7.759095 20.80071,5.651779 l -5.32061,-12.444113 c 22.43749,10.732395 26.93907,-5.850374 29.99131,-9.749181 -28.02275,-17.302753 -42.28385,-38.8114907 -54.5036,-65.492312 8.73058,2.010909 16.70949,15.5232203 26.26107,4.971062 -19.1546,-22.87926 -32.6697,-52.949585 -44.10247,-85.675137 z"
       id="path2886" />
  </g>
  <use
     transform="matrix(-1,0,0,1,336.5,4.185853e-6)"
     id="use3240"
     x="0"
     y="0"
     width="251"
     height="304.04999"
     xlink:href="#Gran" />
  <use
     transform="translate(-86.5,0)"
     id="use3242"
     x="0"
     y="0"
     width="251"
     height="304.04999"
     xlink:href="#Gran" />
  <use
     transform="matrix(-0.392144,0,0,0.392144,217.91914,117.8835)"
     id="use3244"
     x="0"
     y="0"
     width="251"
     height="304.04999"
     xlink:href="#Gran" />
  <use
     transform="matrix(-1,0,0,1,250.91014,-1.1209301e-7)"
     id="use3246"
     x="0"
     y="0"
     width="251"
     height="304.04999"
     xlink:href="#use3244" />
  <path
     d="m 1.4495187,1.2894847 124.0505013,0 124.05055,0 0,173.4965953 c 0.76724,93.72088 -80.28944,127.81975 -124.05053,127.81975 -42.99385,0 -124.81775133,-34.09887 -124.0505213,-127.81975 l 0,-173.4965953 z"
     id="Frame"
     style="fill:none;stroke:#000000;stroke-width:1.88832211;stroke-linejoin:bevel" />
</svg>
