<?xml version="1.0" encoding="UTF-8" standalone="no"?>
<!-- Created with Inkscape (http://www.inkscape.org/) -->
<svg
   xmlns:dc="http://purl.org/dc/elements/1.1/"
   xmlns:cc="http://web.resource.org/cc/"
   xmlns:rdf="http://www.w3.org/1999/02/22-rdf-syntax-ns#"
   xmlns:svg="http://www.w3.org/2000/svg"
   xmlns="http://www.w3.org/2000/svg"
   xmlns:xlink="http://www.w3.org/1999/xlink"
   version="1.0"
   width="251"
   height="304.20001"
   id="svg4166">
  <defs
     id="defs4168" />
  <metadata
     id="metadata1880"><rdf:RDF><cc:Work
         rdf:about=""><dc:title>Fagersta kommunvapen</dc:title><dc:date>10-10-2007</dc:date><dc:creator><cc:Agent><dc:title>Lokal_Profil</dc:title></cc:Agent></dc:creator><cc:license
         rdf:resource="http://creativecommons.org/licenses/by-sa/2.5/" /><dc:rights><cc:Agent><dc:title>cc-by-sa-2.5</dc:title></cc:Agent></dc:rights><dc:format>image/svg+xml</dc:format><dc:type
         rdf:resource="http://purl.org/dc/dcmitype/StillImage" /></cc:Work><cc:License
         rdf:about="http://creativecommons.org/licenses/by-sa/2.5/"><cc:permits
         rdf:resource="http://web.resource.org/cc/Reproduction" /><cc:permits
         rdf:resource="http://web.resource.org/cc/Distribution" /><cc:requires
         rdf:resource="http://web.resource.org/cc/Notice" /><cc:requires
         rdf:resource="http://web.resource.org/cc/Attribution" /><cc:permits
         rdf:resource="http://web.resource.org/cc/DerivativeWorks" /><cc:requires
         rdf:resource="http://web.resource.org/cc/ShareAlike" /></cc:License></rdf:RDF>
  </metadata>
  <path
     d="M 249.55058,1.4395041 L 1.4495291,1.4395041 L 1.4495291,174.9361 C 0.68228908,268.65698 81.738969,302.75585 125.50006,302.75585 C 168.49391,302.75585 250.31781,268.65698 249.55058,174.9361 L 249.55058,1.4395041 z "
     style="color:#000000;fill:#eeeeee;fill-opacity:1;stroke:none"
     id="Shield" />
  <path
     d="M 1.4375,97.21875 L 1.4375,174.9375 C 0.67026003,268.65838 81.738909,302.75 125.5,302.75 C 150.40278,302.74999 188.32527,291.30832 215.6875,263.46875 L 1.4375,97.21875 z "
     style="fill:#003d8f;fill-opacity:1;fill-rule:evenodd;stroke:none;stroke-width:1px;stroke-linecap:butt;stroke-linejoin:miter;stroke-opacity:1"
     id="Styckning" />
  <path
     d="M 0.5,0.10033271 L 0.5,97.927342 C 9.40964,92.940752 21.724528,87.639099 34.09375,87.639099 C 57.4822,87.639099 57.486537,106.56001 80.874996,106.56001 C 104.26345,106.56001 104.26779,87.639099 127.65625,87.639099 C 151.04469,87.639099 151.04904,106.56001 174.4375,106.56001 C 197.82594,106.56001 197.83029,87.639099 221.21875,87.639099 C 231.69142,87.639099 242.12708,91.431464 250.5,95.621352 L 250.5,0.10033271 L 125.5,0.10033271 L 0.5,0.10033271 z "
     style="color:#000000;fill:#003d8f;fill-opacity:1;fill-rule:nonzero;stroke:none;stroke-width:1.88832211;stroke-linecap:round;stroke-linejoin:bevel;marker:none;marker-start:none;marker-mid:none;marker-end:none;stroke-miterlimit:4;stroke-dashoffset:0;stroke-opacity:1;visibility:visible;display:block"
     id="Vagskuren-chef" />
  <g
     transform="matrix(1.766399,0,0,1.766399,-496.6921,-755.0103)"
     style="stroke:#003d8f;stroke-opacity:1"
     id="Mars-Symbol">
    <g
       transform="matrix(1.948116,0,0,1.937312,-342.4303,-460.0101)"
       style="stroke:#003d8f;stroke-opacity:1"
       id="g1872">
      <path
         d="M 387.95009,489.60348 L 378.66214,498.89143"
         style="opacity:1;color:#000000;fill:none;fill-opacity:0.75;fill-rule:evenodd;stroke:#003d8f;stroke-width:3;stroke-linecap:butt;stroke-linejoin:miter;marker:none;marker-start:none;marker-mid:none;marker-end:none;stroke-miterlimit:4;stroke-dasharray:none;stroke-dashoffset:0;stroke-opacity:1;visibility:visible;display:inline;overflow:visible"
         id="path26867" />
      <path
         d="M 49.396475,36.70454 C 49.396475,45.717349 42.401407,53.023675 33.772553,53.023675 C 25.143698,53.023675 18.14863,45.717349 18.14863,36.70454 C 18.14863,27.691731 25.143698,20.385405 33.772553,20.385405 C 42.401407,20.385405 49.396475,27.691731 49.396475,36.70454 L 49.396475,36.70454 z "
         transform="matrix(0.48802,0.48802,-0.467594,0.467594,371.6094,473.1357)"
         style="opacity:1;color:#000000;fill:none;fill-opacity:1;fill-rule:evenodd;stroke:#003d8f;stroke-width:4.44071579;stroke-linecap:butt;stroke-linejoin:miter;marker:none;marker-start:none;marker-mid:none;marker-end:none;stroke-miterlimit:4;stroke-dasharray:none;stroke-dashoffset:0;stroke-opacity:1;visibility:visible;display:inline;overflow:visible"
         id="path26871" />
      <path
         d="M 379.92823,489.70212 C 387.842,489.70212 387.842,489.70212 387.842,489.70212 L 387.842,497.61589"
         style="fill:none;fill-rule:evenodd;stroke:#003d8f;stroke-width:3;stroke-linecap:butt;stroke-linejoin:miter;stroke-miterlimit:4;stroke-dasharray:none;stroke-opacity:1"
         id="path27759" />
    </g>
  </g>
  <g
     transform="matrix(0.129213,0,0,0.129213,25.64842,149.7504)"
     style="fill:#ffcd50;fill-opacity:1;stroke:#003d8f;stroke-opacity:1"
     id="Fleur-de-lis">
    <path
       d="M 370.56125,101.02204 C 369.87226,100.41496 369.69731,100.45927 368.98386,101.37696 C 339.99728,129.7969 314.25011,156.07552 294.05666,185.49277 C 237.53282,267.74062 218.65091,357.06967 250.28341,429.32214 C 313.07862,582.17879 337.04134,620.99774 337.04119,742.71565 L 322.05577,818.3134 C 319.95113,857.2288 296.00469,888.26688 251.07207,905.62348 C 256.85896,922.01827 283.67525,955.43911 320.87268,953.18263 C 328.22132,988.53949 335.51032,1008.3543 368.98386,1040.4927 C 369.83663,1041.2621 369.80699,1041.2621 370.56125,1040.4927 C 404.03473,1008.3543 411.3238,988.53949 418.67238,953.18263 C 455.86985,955.43911 482.68615,922.01827 488.47297,905.62348 C 443.54065,888.26688 419.59399,857.2288 417.48935,818.3134 L 402.50392,742.71565 C 402.504,620.99774 426.46649,582.17879 489.2617,429.32214 C 520.89405,357.06967 502.01223,267.74062 445.48845,185.49277 C 425.25025,156.0103 399.62873,129.51327 370.56125,101.02204 z "
       style="fill:#eeeeee;fill-opacity:1;fill-rule:evenodd;stroke:#003d8f;stroke-width:5.5367732;stroke-miterlimit:4;stroke-dasharray:none;stroke-opacity:1"
       id="path6182" />
    <path
       d="M 421.59612,831.52374 C 437.7612,848.06109 514.14641,893.91783 576.81048,893.91783 C 495.12533,825.33139 465.56039,804.69024 455.92682,752.67736 C 446.29324,700.66448 477.39893,643.42012 499.74184,631.55338 C 513.60973,621.62477 543.27705,617.10435 569.54937,628.65323 C 603.91898,646.00239 605.39034,695.16449 588.20945,717.61856 C 750.53778,691.12499 734.41716,553.36748 679.13511,503.36206 C 634.44081,462.95957 585.71862,456.64146 548.1513,469.3814 C 462.78245,496.27443 394.39027,585.91309 391.59526,719.80874 C 391.59526,719.80874 406.3563,815.93292 421.59612,831.52374 z "
       style="fill:#eeeeee;fill-opacity:1;fill-rule:evenodd;stroke:#003d8f;stroke-width:5.5367732;stroke-miterlimit:4;stroke-dasharray:none;stroke-opacity:1"
       id="path6190" />
    <path
       d="M 317.94892,831.52374 C 301.78383,848.06109 225.39863,893.91783 162.73457,893.91783 C 244.4197,825.33139 273.98465,804.69024 283.61823,752.67736 C 293.2518,700.66448 262.14612,643.42012 239.80321,631.55338 C 225.93531,621.62477 196.26799,617.10435 169.99567,628.65323 C 135.62606,646.00239 134.15469,695.16449 151.33559,717.61856 C -10.992738,691.12499 5.1278894,553.36748 60.40993,503.36206 C 105.10422,462.95957 153.82642,456.64146 191.39374,469.3814 C 276.76259,496.27443 345.15477,585.91309 347.94979,719.80874 C 347.94979,719.80874 333.18874,815.93292 317.94892,831.52374 z "
       style="fill:#eeeeee;fill-opacity:1;fill-rule:evenodd;stroke:#003d8f;stroke-width:5.5367732;stroke-miterlimit:4;stroke-dasharray:none;stroke-opacity:1"
       id="path6188" />
    <rect
       width="265.00562"
       height="79.501869"
       x="237.26971"
       y="688.77802"
       style="fill:#eeeeee;fill-opacity:1;stroke:#003d8f;stroke-width:5.5367732;stroke-miterlimit:4;stroke-dasharray:none;stroke-opacity:1"
       id="rect6184" />
  </g>
  <g
     transform="matrix(0.461796,0,0,0.461796,68.2245,-34.10116)"
     style="fill:#eeeeee;fill-opacity:1;stroke:#003d8f;stroke-width:2.16545844;stroke-miterlimit:4;stroke-dasharray:none;stroke-opacity:1"
     id="Bevingat-hjul">
    <use
       transform="matrix(-1,0,0,1,248.0557,0)"
       style="fill:#eeeeee;fill-opacity:1;stroke:#003d8f;stroke-width:2.16545844;stroke-miterlimit:4;stroke-dasharray:none;stroke-opacity:1"
       id="Wing-2"
       x="0"
       y="0"
       width="251"
       height="304.20001"
       xlink:href="#Wing" />
    <path
       d="M 125,104.20001 C 83.60033,104.20001 50,137.80035 50,179.20001 C 50,220.59968 83.600331,254.2 125,254.20001 C 166.39967,254.20001 200.00001,220.59968 200,179.20001 C 200,137.80034 166.39967,104.20001 125,104.20001 z M 119.81268,115.00693 L 119.81268,166.01557 C 118.31965,166.59187 116.97186,167.411 115.76781,168.42397 L 71.64471,142.95052 C 82.377561,127.27872 99.80195,116.59073 119.81268,115.00693 z M 130.15644,115.00693 C 150.16718,116.59073 167.62246,127.27872 178.35529,142.95052 L 134.23219,168.42397 C 133.03236,167.41452 131.64342,166.62241 130.15644,166.04645 L 130.15644,115.00693 z M 66.519144,151.90483 L 110.76575,177.4709 C 110.67988,178.10548 110.64224,178.75815 110.64224,179.41615 C 110.64224,180.26753 110.716,181.10637 110.85838,181.91718 L 66.704405,207.39062 C 62.624731,198.92015 60.343766,189.44161 60.343763,179.41615 C 60.343763,169.57473 62.579148,160.25654 66.519144,151.90483 z M 183.48086,151.90483 C 187.42082,160.25654 189.62531,169.57473 189.62536,179.41615 C 189.62532,189.44161 187.34439,198.92015 183.26472,207.39062 L 139.11075,181.91718 C 139.25521,181.10061 139.32689,180.27398 139.32688,179.41615 C 139.32688,178.75219 139.29078,178.11098 139.20338,177.4709 L 183.48086,151.90483 z M 122.03582,174.29058 L 127.93331,174.32146 L 130.89749,179.41615 L 127.93331,184.54171 L 122.03582,184.54171 L 119.10251,179.41615 L 122.03582,174.29058 z M 116.20008,190.74797 C 117.2923,191.59489 118.50238,192.31072 119.81268,192.81672 L 119.81268,243.85625 C 99.9909,242.28739 82.710352,231.74462 71.953479,216.31405 L 116.20008,190.74797 z M 133.76904,190.74797 L 178.04652,216.31405 C 167.28964,231.74464 149.97816,242.28737 130.15644,243.85625 L 130.15644,192.81672 C 131.46578,192.31 132.67781,191.59519 133.76904,190.74797 z "
       style="opacity:1;fill:#eeeeee;fill-opacity:1;fill-rule:evenodd;stroke:#003d8f;stroke-width:2.16545844;stroke-linecap:round;stroke-linejoin:round;stroke-miterlimit:4;stroke-dasharray:none;stroke-opacity:1"
       id="Hjul" />
    <path
       d="M 123.05569,180.01911 C 124.76599,173.00377 137.84803,167.72464 140.64599,165.32075 C 143.44394,162.91687 159.03707,162.39434 164.87395,162.81008 C 170.71076,163.22579 178.73583,165.21731 184.6956,162.56531 C 190.6554,159.91335 194.54991,152.61791 193.58118,143.08286 C 192.61249,133.54782 186.78055,121.77322 189.33752,114.14583 C 191.89454,106.51848 202.84045,103.03839 212.32597,102.29411 C 221.81148,101.5498 229.83652,103.54128 242.11505,111.75201 C 254.3936,119.96274 270.92561,134.39269 293.0486,155.37378 C 315.1716,176.35489 342.8856,203.88711 357.59327,218.89709 C 372.30097,233.90706 374.00236,236.39475 372.70182,237.38012 C 371.40216,238.36575 367.0997,237.84884 361.74966,236.52118 C 356.39962,235.19353 350.00201,233.05511 344.12729,231.32185 C 338.25349,229.5888 332.90345,228.26114 322.44926,219.47039 C 311.99502,210.67968 296.43664,194.42586 287.31993,185.96705 C 278.20324,177.50822 275.52821,176.84437 281.11921,183.39554 C 286.71019,189.94667 300.56719,203.71279 309.6839,212.17161 C 318.80059,220.63043 323.177,223.78196 323.17082,225.18012 C 323.16518,226.57911 318.77636,226.22391 314.76385,225.22817 C 310.75132,224.23242 307.11506,222.59614 302.62135,221.11332 C 298.12821,219.63134 292.77817,218.30367 285.36285,212.33255 C 277.94755,206.36142 268.46698,195.74682 263.23986,191.35147 C 258.01276,186.9561 257.03914,188.77995 259.59121,192.5115 C 262.14331,196.24303 268.2211,201.88224 272.11071,205.94566 C 276.0003,210.00914 277.70169,212.49684 276.18217,213.70329 C 274.66352,214.90995 269.92307,214.83516 265.91055,213.83939 C 261.89803,212.84366 258.61342,210.92695 254.78203,208.39262 C 250.95152,205.85851 246.5751,202.70701 242.6855,198.64354 C 238.79591,194.58009 235.39313,189.60472 233.20492,188.02895 C 231.01671,186.4532 230.04308,188.27704 232.59517,192.00857 C 235.14726,195.74012 241.22506,201.37935 243.77716,205.11087 C 246.32923,208.84243 245.35561,210.66628 242.19378,210.91439 C 239.03194,211.16246 233.68192,209.8348 228.81868,207.59523 C 223.95547,205.35562 219.57904,202.20411 216.54014,199.38449 C 213.50124,196.56489 211.79986,194.07719 210.37402,192.71335 C 208.94698,191.34989 207.79667,191.10986 208.595,193.1442 C 209.39419,195.17871 212.14352,199.48659 212.18304,201.99837 C 212.22202,204.50934 209.55242,205.22381 205.985,204.8432 C 202.41818,204.4634 197.95479,202.98812 194.38288,200.47277 C 190.81219,197.95699 188.13243,194.40033 186.18532,192.81556 C 184.23733,191.23053 183.02113,191.61721 183.30666,193.2255 C 183.59279,194.8346 185.38015,197.66445 184.73092,199.38566 C 184.08204,201.10629 180.99512,201.71722 177.35569,201.41101 C 173.71569,201.10393 169.52201,199.88007 163.97487,197.47078 C 158.42863,195.0617 129.95568,183.61307 123.05569,180.01911 z "
       style="fill:#eeeeee;fill-opacity:1;stroke:#003d8f;stroke-width:2.16545844;stroke-miterlimit:4;stroke-dasharray:none;stroke-opacity:1"
       id="Wing" />
  </g>
  <path
     d="M 249.55062,1.4395041 L 1.449569,1.4395041 L 1.449569,174.9361 C 0.68232904,268.65698 81.739009,302.75585 125.5001,302.75585 C 168.49395,302.75585 250.31785,268.65698 249.55062,174.9361 L 249.55062,1.4395041 z "
     style="fill:none;fill-opacity:0;stroke:#000000;stroke-width:1.88832211;stroke-linejoin:bevel"
     id="Frame" />
</svg>
