<?xml version="1.0" encoding="UTF-8" standalone="no"?>
<!-- Created with Inkscape (http://www.inkscape.org/) -->
<svg
   xmlns:svg="http://www.w3.org/2000/svg"
   xmlns="http://www.w3.org/2000/svg"
   version="1.0"
   width="251"
   height="304.04999"
   id="svg2064">
  <defs
     id="defs2066" />
  <g
     id="g4432">
    <g
       transform="matrix(2.5,0,0,2.5,-0.749997,-0.900009)"
       style="fill:#ffcd50;fill-opacity:1"
       id="g2072">
      <g
         transform="matrix(1.000175,0,0,0.944938,-89.26788,-2.952272)"
         style="fill:#ffcd50;fill-opacity:1"
         id="g1905">
        <path
           d="M 90.131913,4.0511306 L 139.74342,4.0511306 L 189.35495,4.0511306 L 189.35495,77.493663 C 189.66179,117.16648 157.2448,131.60081 139.74343,131.60081 C 122.5489,131.60081 89.825075,117.16648 90.131913,77.493663 L 90.131913,4.0511306 z "
           style="fill:#ffcd50;fill-rule:nonzero;stroke:#000000;stroke-width:0.7769559;stroke-linecap:round;stroke-linejoin:bevel;marker:none;marker-start:none;marker-mid:none;marker-end:none;stroke-miterlimit:4;stroke-dashoffset:0;stroke-opacity:1;visibility:visible;display:block"
           id="path2124" />
      </g>
    </g>
    <path
       d="M 134.21662,261.63535 L 115.78341,261.63535 L 115.78341,179.53936 L 115.78341,131.61301 L 67.857035,131.61301 L 67.857035,159.26284 L 49.423824,159.26284 L 49.423824,131.61301 L 21.774005,131.61301 L 21.774005,113.17979 L 49.423824,113.17979 L 49.423824,85.529977 L 67.857035,85.529977 L 67.857035,113.17979 L 115.78341,113.17979 L 115.78341,65.253441 L 88.133571,65.253441 L 88.133571,46.820225 L 115.78341,46.820225 L 115.78341,19.170406 L 134.21662,19.170406 L 134.21662,46.820225 L 161.86642,46.820225 L 161.86642,65.253441 L 134.21662,65.253441 L 134.21662,113.17979 L 182.14296,113.17979 L 182.14296,85.529977 L 200.57617,85.529977 L 200.57617,113.17979 L 228.22599,113.17979 L 228.22599,131.61301 L 200.57617,131.61301 L 200.57617,159.26284 L 182.14296,159.26284 L 182.14296,131.61301 L 134.21662,131.61301 L 134.21662,179.53936 L 134.21662,261.63535 z "
       style="fill:#003d8f;fill-opacity:1;stroke:none;stroke-width:0.71174371;stroke-miterlimit:4;stroke-dasharray:none;stroke-opacity:1"
       id="path1415" />
  </g>
</svg>
