<?xml version="1.0" encoding="UTF-8" standalone="no"?>
<!-- Created with Inkscape (http://www.inkscape.org/) -->

<svg
   xmlns:dc="http://purl.org/dc/elements/1.1/"
   xmlns:cc="http://web.resource.org/cc/"
   xmlns:rdf="http://www.w3.org/1999/02/22-rdf-syntax-ns#"
   xmlns:svg="http://www.w3.org/2000/svg"
   xmlns="http://www.w3.org/2000/svg"
   xmlns:xlink="http://www.w3.org/1999/xlink"
   version="1.0"
   width="251"
   height="304.20001"
   id="svg4166">
  <defs
     id="defs4168" />
<metadata
   id="metadata1880"><rdf:RDF><cc:Work
         rdf:about=""><dc:title>Arboga kommunvapen</dc:title><dc:date>02-08-2007</dc:date><dc:creator><cc:Agent><dc:title>Lokal_Profil</dc:title></cc:Agent></dc:creator><cc:license
         rdf:resource="http://creativecommons.org/licenses/by-sa/2.5/" /><dc:rights><cc:Agent><dc:title>cc-by-sa-2.5</dc:title></cc:Agent></dc:rights><dc:format>image/svg+xml</dc:format><dc:type
         rdf:resource="http://purl.org/dc/dcmitype/StillImage" /></cc:Work><cc:License
         rdf:about="http://creativecommons.org/licenses/by-sa/2.5/"><cc:permits
         rdf:resource="http://web.resource.org/cc/Reproduction" /><cc:permits
         rdf:resource="http://web.resource.org/cc/Distribution" /><cc:requires
         rdf:resource="http://web.resource.org/cc/Notice" /><cc:requires
         rdf:resource="http://web.resource.org/cc/Attribution" /><cc:permits
         rdf:resource="http://web.resource.org/cc/DerivativeWorks" /><cc:requires
         rdf:resource="http://web.resource.org/cc/ShareAlike" /></cc:License></rdf:RDF>
</metadata>
  <path
     d="m 249.55058,1.4395041 -124.0505,0 -124.0505509,0 0,173.4965959 C 0.68228908,268.65698 81.738969,302.75585 125.50006,302.75585 c 42.99385,0 124.81775,-34.09887 124.05052,-127.81975 l 0,-173.4965959 z"
     id="Shield"
     style="color:#000000;fill:#eeeeee;fill-opacity:1;fill-rule:nonzero;stroke:none;stroke-width:1.88832211;marker:none;visibility:visible;display:block" />
  <path
     d="m 249.55062,1.4395041 -124.0505,0 -124.050551,0 0,173.4965959 c -0.76723996,93.72088 80.28944,127.81975 124.050531,127.81975 42.99385,0 124.81775,-34.09887 124.05052,-127.81975 l 0,-173.4965959 z"
     id="Frame"
     style="color:#000000;fill:none;stroke:#000000;stroke-width:1.88832211;stroke-linecap:round;stroke-linejoin:bevel;stroke-miterlimit:4;stroke-opacity:1;stroke-dashoffset:0;marker:none;visibility:visible;display:block" />
  <g
     transform="matrix(0.965897,0,0,0.965897,-292.2472,22.35341)"
     id="g3283">
    <use
       transform="matrix(-1,0,0,1,864.87114,0)"
       id="use2852"
       x="0"
       y="0"
       width="251"
       height="304.20001"
       xlink:href="#g2838" />
    <use
       transform="matrix(-1,0,0,1,864.99324,0)"
       id="use2836"
       x="0"
       y="0"
       width="251"
       height="304.20001"
       xlink:href="#path2367" />
    <g
       id="g2838"
       style="fill:#d40000;stroke:none">
      <path
         d="m 349.28703,204.70109 c 0.019,-0.11624 0.18134,-4.7632 0.17842,-4.72304 -0.003,0.0402 -6.0429,-0.15982 -7.08395,0.0627 -1.77841,0.38009 -2.79463,2.20291 -2.5119,5.40441 0.16264,1.06167 0.27069,2.17792 1.2243,2.44861 0.96595,-4.44587 2.13935,-3.45279 3.16419,-3.43715 1.23841,0.0189 5.00997,0.36073 5.02894,0.24449 z"
         id="path2345" />
      <path
         d="m 362.29461,185.39917 -3.17427,3.17427 -3.24642,-2.16427 c -1.062,-1.0235 -2.91223,-1.26914 -5.33856,-0.72143 2.48259,-4.81755 7.68781,-4.56278 8.94569,-2.81356 l 2.81356,2.52499 z"
         id="path2347" />
      <path
         d="m 361.4289,219.16192 c 2.62665,-0.63718 0.97362,-7.78829 -2.52499,-5.19426 -3.49861,2.59402 -7.3395,4.43341 -3.17428,10.46068 0.21072,-4.35399 3.07263,-4.62924 5.69927,-5.26642 z"
         id="path2349" />
      <path
         d="m 393.17166,203.07412 c 6.14226,-3.52686 9.56079,-2.77358 10.3164,2.16427 -3.26433,-1.57083 -5.38864,-0.60828 -6.92569,1.65928"
         id="path2351" />
      <path
         d="m 409.90876,166.13708 -6.9257,-3.46284 -25.10564,34.48418 c -1.71051,-2.46749 -3.00444,-6.18472 -4.47284,-9.37855 l -12.03544,-4.24403 c -1.83027,1.25911 -3.63204,3.42877 -5.19428,6.05998 1.09475,1.1721 2.4504,1.56149 3.81119,1.93547 1.82761,-0.99425 3.65522,-1.37578 5.48284,-1.00999 2.23534,2.96933 2.93622,5.17143 4.18427,7.64711 -3.38691,-0.88517 -7.5719,-2.59462 -13.06294,-4.79642 -3.02737,1.78471 -6.30839,4.09887 -10.09997,4.60988 0.33556,0.66929 0.54712,1.32308 0.66601,1.96529 0.39472,2.1322 -0.23203,4.13671 -0.73303,6.15695 0.86092,1.82618 2.18078,1.19612 3.065,1.52737 5.20651,-4.25054 5.51754,-5.09005 8.22427,-5.19427 5.43804,0.14117 7.25395,0.6848 10.49781,1.06976 -2.98514,3.21913 -6.44216,6.88736 -10.53283,8.07998 -0.57989,0.94495 -0.51823,2.10375 -0.28857,3.31856 3.47815,2.32449 1.88554,3.64766 1.81595,5.46534 0.39807,0.5362 1.54159,0.57543 2.74142,0.57713 2.83272,-4.39207 4.45019,-4.32823 6.5526,-6.04247 1.49672,-1.68909 1.95016,-3.76948 3.47034,-4.91073 5.16572,-3.87807 9.75562,-5.16577 13.90366,-4.6121 4.99525,2.0132 7.91262,3.0363 11.48306,3.17428 0.12143,-0.71905 0.82257,-0.48272 0.45036,-2.18904 -1.44285,-0.22362 -2.88571,-3.09125 -4.32856,-5.04999 -3.47538,-0.0264 -7.21738,0.48035 -9.39605,-2.13952 l 25.82707,-33.04133 z"
         id="path2353" />
    </g>
    <path
       d="m 407.53021,71.375974 -1.93848,-1.326328 c -0.91822,0.459115 -13.39341,-0.295951 -16.37503,-1.938475 -3.21378,-1.770422 2.0304,-12.505974 -1.17944,-16.047779 -3.59645,-3.968384 -12.94845,-0.855467 -14.97568,-1.542505 -3.0095,-1.019929 -5.39276,-5.83323 -5.81891,-8.944996 -0.42785,-3.124139 -0.86208,-8.158382 -0.76006,-8.413443 0.10203,-0.255066 0.38231,-1.182087 1.35983,-1.474237 1.09969,-0.328665 5.81122,-1.752765 6.46985,-2.434726 0.52687,-0.545538 6.02972,-4.888755 6.87069,-7.823926 0.72028,-2.513958 0.74768,-4.279928 0.74768,-6.116379 0,-1.836452 -0.009,-4.634892 -0.72292,-6.8284315 -0.71418,-2.1935394 -2.74593,-4.1480196 -5.50061,-6.1885208 -2.75468,-2.04050311 -7.0995,-2.4398519 -7.0995,-2.4398519 l -23.32148,0.39572279 c -0.0237,0.004703 -15.48108,-0.29182834 -27.18969,-5.15739399 7.88215,22.2468574 25.89155,17.8708834 28.72882,19.1472114 -24.66682,7.664775 -36.15915,8.20666 -38.56549,7.549855 0.0376,0.670225 3.01245,4.090527 6.41499,6.686316 2.75247,2.09985 6.56656,3.529184 8.37865,3.82227 3.80009,0.61463 7.98137,0.381402 12.49382,0.09272 2.52467,-0.161517 10.50887,-2.630579 9.84967,-1.623093 -0.51724,0.790522 -4.06408,3.256878 -8.40428,6.907025 -3.81327,3.207 -8.23181,7.677413 -12.59049,11.26204 -7.79543,6.41106 -15.88317,10.266106 -15.42819,10.704039 2.57309,2.476687 9.73033,4.237393 15.67306,2.486999 2.5511,-0.751413 4.13885,-1.653294 6.92622,-3.579662 2.15384,-1.488532 5.15026,-4.386641 6.92688,-5.98997 3.37165,-3.042777 6.53897,-5.560527 8.5292,-7.302904 -0.006,1.368764 -1.06023,2.836266 -2.34657,5.203278 -16.11997,30.097407 -34.48449,60.602915 -34.48449,60.602915 15.43556,0.85104 24.15577,-14.844985 31.57932,-24.520274 9.4484,-12.314337 7.29045,-9.737182 9.33275,-12.514841 2.04229,-2.777658 -0.48809,1.75307 -4.79518,12.243013 -5.21755,11.382962 -5.08366,20.104092 -6.95967,32.089522 -1.44641,8.94455 -3.59505,19.55041 -3.65094,18.31088 -0.20169,2.98603 -7.60903,22.25587 -13.77339,38.46346 7.28343,-0.58706 12.51073,-4.81797 16.42604,-8.77415 2.9077,-4.30691 5.32168,-8.68478 7.14176,-13.26327 3.31685,-7.72387 5.71875,-15.11828 8.13643,-22.18107 5.06505,-14.79657 8.60062,-27.85715 12.16656,-37.095515 L 365.68861,113.032 c 0.42976,4.58946 -1.07904,25.60265 -2.01394,32.03404 -2.27317,15.63772 -2.82211,24.92092 -4.70841,33.43629 23.97174,-3.72955 30.1404,-51.61271 29.58728,-71.31555 1.97248,14.73623 3.94497,29.04754 5.91746,41.62625 4.7907,-2.67415 7.49672,-5.42524 8.67213,-10.81466 1.05426,-14.90273 2.31257,-27.71683 3.36683,-40.29992 l 9.89644,-19.180717 -8.87619,-7.141759 z"
       id="path2367"
       style="color:#000000;fill:#000000;fill-opacity:1;fill-rule:nonzero;stroke:none;stroke-width:1.52609396;marker:none;visibility:visible;display:inline;overflow:visible" />
    <path
       d="m 433.7327,17.514905 c 1.91897,0.627992 2.89363,-6.254853 -2.14253,-4.897205 -14.48994,4.784635 -24.00748,7.201093 -25.30223,-1.938477 -0.69179,-2.4990233 -5.17434,-3.9342903 -3.97898,1.020252 6.53155,15.427536 18.08296,2.558528 31.42374,5.81543 z"
       id="path2371"
       style="color:#000000;fill:#d40000;fill-opacity:1;fill-rule:nonzero;stroke:none;stroke-width:1.52609396;marker:none;visibility:visible;display:inline;overflow:visible" />
    <path
       d="m 445.05748,6.7002446 -7.85593,22.0374214 c -12.17672,-5.705399 -19.6881,-7.182842 -23.1597,-4.99923 2.1639,-2.791015 4.94943,-8.079922 19.99692,-1.938475 -2.28069,-6.756486 -19.54363,-13.9525663 -22.7516,-6.529608 -4.4584,-10.510654 0.20735,-15.30169585 13.97744,-14.3855394 l 19.79287,5.815431 z"
       id="path2373"
       style="color:#000000;fill:#d40000;fill-opacity:1;fill-rule:nonzero;stroke:none;stroke-width:1.52609396;marker:none;visibility:visible;display:inline;overflow:visible" />
    <path
       d="m 412.6135,63.936327 c -13.058,4.170072 -2.72892,2.168559 -3.42617,3.076763 -8.15608,2.612098 -2.88669,32.263545 2.88571,73.15264 -1.10619,4.63706 -2.21238,6.99154 -3.31857,9.37854 -1.89312,2.48961 -5.67795,7.46193 -11.25425,11.8314 l 2.16428,1.15428 -3.02999,3.17428 c 4.89349,3.3177 12.51259,1.45676 13.99567,11.25425 0.25022,-8.02629 1.7558,-3.39452 3.46285,-1.58714 0.27522,-11.61495 5.12694,-15.80019 9.08997,-20.77708 0.30916,5.91773 3.27429,16.69322 -5.48284,26.40421 -6.84688,3.28217 -13.85185,2.29597 -20.34422,15.14995 4.47393,-1.15397 3.86178,-3.73206 17.02566,-2.45285 l 8.36855,-4.9057 c -1.72687,6.09082 1.99814,11.54695 -19.91137,21.64279 -15.49019,3.54063 -26.34975,10.16835 -31.45419,20.63281 8.45849,-4.20264 17.40139,-6.8875 28.85705,-9.08998 12.10901,-6.71816 14.79169,-10.98528 20.92137,-17.16995 -1.7417,4.69268 -2.69041,8.75098 -6.20427,14.86138 -7.37103,7.37126 -17.52242,11.06846 -14.7171,31.88704 9.28257,-14.88647 16.20594,-12.734 26.11564,-47.90271 1.73264,7.69219 3.56975,15.12318 2.30857,30.29992 -2.26016,7.23337 -1.97258,13.44764 -9.52284,22.79707 l 6.9257,-1.73142 6.4279,19.39194 6.42789,-19.39194 6.9257,1.73142 c -7.55026,-9.34943 -7.26267,-15.5637 -9.52283,-22.79707 -1.26119,-15.17674 0.57592,-22.60773 2.30856,-30.29992 9.90971,35.16871 16.83307,33.01624 26.11564,47.90271 2.80532,-20.81858 -7.34607,-24.51578 -14.7171,-31.88704 -3.51386,-6.1104 -4.46257,-10.1687 -6.20427,-14.86138 6.12968,6.18467 8.81235,10.45179 20.92137,17.16995 11.45566,2.20248 20.39857,4.88734 28.85705,9.08998 -5.10444,-10.46446 -15.964,-17.09218 -31.45419,-20.63281 -21.9095,-10.09584 -18.18451,-15.55197 -19.91137,-21.64279 l 8.36855,4.9057 c 13.16388,-1.27921 12.55173,1.29888 17.02566,2.45285 -6.49237,-12.85398 -13.49734,-11.86778 -20.34422,-15.14995 -8.75713,-9.71099 -5.792,-20.48648 -5.48284,-26.40421 3.96303,4.97689 8.81475,9.16213 9.08997,20.77708 1.70705,-1.80738 3.21264,-6.43915 3.46285,1.58714 1.48308,-9.79749 9.10218,-7.93655 13.99567,-11.25425 l -3.02999,-3.17428 2.16428,-1.15428 c -5.5763,-4.36947 -9.36112,-9.34179 -11.25425,-11.8314 -1.10619,-2.387 -2.21238,-4.74148 -3.31857,-9.37854 5.7724,-40.889095 11.04179,-70.540542 2.88571,-73.15264 -1.78619,-0.955925 1.77155,0.667346 -2.46686,-1.28257 9.40184,1.885097 5.16611,0.96088 2.22705,-1.284066 -8.71399,-8.565309 -1.72437,-3.797308 0.75643,-3.47398 -6.28019,-10.948697 -3.05552,-17.097029 -1.77668,-21.318119 l 1.93847,5.305303 2.30432,-10.227266 4.32731,3.901708 c -0.87376,-4.53751 -1.65144,-9.239746 -3.82956,-11.541213 3.63287,0.825037 6.21161,0.773608 6.65686,0.555982 0.94555,-0.462152 -3.82479,-2.470187 -4.00421,-5.75926 3.09847,0.349816 4.58842,-0.164859 6.94897,-2.78935 0.72099,-0.801609 -3.36713,0.858062 -3.19154,0.335618 -9.01475,-8.384547 -0.69692,-4.376737 -0.3586,-6.044236 -12.77528,-6.9845866 -2.87839,-4.7087083 -3.51111,-6.7336565 -9.49444,-4.197723 -5.94756,-1.9794828 -2.07039,-7.31592527 -2.17532,0.61959061 -5.2782,1.48629144 -9.29153,0.82857952 0.0303,-0.80496779 -7.14203,-2.76067965 -18.3364,-2.98534715 -3.91037,-0.078481 -6.50239,0.2256534 -6.76178,4.1076234 14.3696,16.867995 14.24945,23.477771 6.93771,24.996148 1.73424,3.462087 2.96061,5.483998 2.43853,6.568975 -0.87879,1.826312 -5.58083,3.416935 -15.83582,9.215034 4.82802,1.676663 15.34253,-3.736992 0.0444,6.295677 -9.9994,4.727056 -2.20749,2.860195 1.1099,2.712418 -2.4542,3.644567 -5.24713,7.258347 -9.79441,10.712636 l 2.34658,2.142524 z"
       id="path2375"
       style="color:#000000;fill:#000000;fill-opacity:1;fill-rule:nonzero;stroke:none;stroke-width:1.52609396;marker:none;visibility:visible;display:inline;overflow:visible" />
    <path
       d="m 437.50331,5.7279146 c 3.94676,-1.2637075 5.95783,0.8474243 4.65321,4.6171304 -4.18788,1.650559 -5.9318,-0.6890234 -4.65321,-4.6171304 z"
       id="path2377"
       style="fill:#eeeeee;fill-opacity:1;fill-rule:nonzero;stroke:none" />
  </g>
  <path
     d="m 58.740603,52.47192 -3.65174,-6.954054 -7.84826,0.314525 4.19652,-6.639534 -4.19652,-6.639521 7.84826,0.314525 3.65174,-6.954057 3.65174,6.954057 7.84826,-0.314525 -4.19652,6.639521 4.19652,6.639534 -7.84826,-0.314525 -3.65174,6.954054 z"
     id="6-pt-star-dull"
     style="fill:#ffcd50;fill-opacity:1;fill-rule:nonzero;stroke:none" />
  <use
     transform="translate(133.2594,0)"
     id="use3303"
     x="0"
     y="0"
     width="251"
     height="304.20001"
     xlink:href="#6-pt-star-dull" />
</svg>
