<?xml version="1.0" encoding="UTF-8" standalone="no"?>
<!-- Created with Inkscape (http://www.inkscape.org/) -->
<svg
   xmlns:dc="http://purl.org/dc/elements/1.1/"
   xmlns:cc="http://web.resource.org/cc/"
   xmlns:rdf="http://www.w3.org/1999/02/22-rdf-syntax-ns#"
   xmlns:svg="http://www.w3.org/2000/svg"
   xmlns="http://www.w3.org/2000/svg"
   version="1.0"
   width="251"
   height="304.20001"
   id="svg4166">
  <defs
     id="defs4168" />
  <metadata
     id="metadata1880"><rdf:RDF><cc:Work
         rdf:about=""><dc:title>Malung kommunvapen</dc:title><dc:date>03-08-2007</dc:date><dc:creator><cc:Agent><dc:title>Lokal_Profil</dc:title></cc:Agent></dc:creator><cc:license
         rdf:resource="http://creativecommons.org/licenses/by-sa/2.5/" /><dc:rights><cc:Agent><dc:title>cc-by-sa-2.5</dc:title></cc:Agent></dc:rights><dc:format>image/svg+xml</dc:format><dc:type
         rdf:resource="http://purl.org/dc/dcmitype/StillImage" /></cc:Work><cc:License
         rdf:about="http://creativecommons.org/licenses/by-sa/2.5/"><cc:permits
         rdf:resource="http://web.resource.org/cc/Reproduction" /><cc:permits
         rdf:resource="http://web.resource.org/cc/Distribution" /><cc:requires
         rdf:resource="http://web.resource.org/cc/Notice" /><cc:requires
         rdf:resource="http://web.resource.org/cc/Attribution" /><cc:permits
         rdf:resource="http://web.resource.org/cc/DerivativeWorks" /><cc:requires
         rdf:resource="http://web.resource.org/cc/ShareAlike" /></cc:License></rdf:RDF>
  </metadata>
  <path
     d="M 249.55058,1.4395041 L 125.50008,1.4395041 L 1.4495291,1.4395041 L 1.4495291,174.9361 C 0.68228908,268.65698 81.738969,302.75585 125.50006,302.75585 C 168.49391,302.75585 250.31781,268.65698 249.55058,174.9361 L 249.55058,1.4395041 z"
     id="Shield"
     style="fill:#003d8f" />
  <path
     d="M 125.50003,165.93031 C 133.67123,165.93031 142.6627,168.59528 149.45693,173.92524 C 163.04539,184.58514 167.61627,203.13486 160.49793,218.87047 L 143.83226,268.03419 L 177.1636,282.20001 L 185.49644,260.53464 L 177.1636,256.36822 L 187.163,223.03689 C 196.10221,196.20948 186.66656,166.69855 163.83107,150.02042 C 152.41331,141.68135 138.95854,137.49513 125.50003,137.49513 C 112.04152,137.49513 98.586749,141.68135 87.168995,150.02042 C 64.333504,166.69855 54.897849,196.20948 63.837056,223.03689 L 73.836457,256.36822 L 65.503622,260.53464 L 73.836457,282.20001 L 107.1678,268.03419 L 90.502132,218.87047 C 83.383785,203.13486 87.954672,184.58514 101.54313,173.92524 C 108.33737,168.59528 117.32883,165.93031 125.50003,165.93031 z M 82.169291,170.54002 C 84.929128,170.54002 87.168995,172.7799 87.168995,175.53973 C 87.168995,178.29957 84.929128,180.53943 82.169291,180.53943 C 79.40946,180.53943 77.169594,178.29957 77.169594,175.53973 C 77.169594,172.7799 79.40946,170.54002 82.169291,170.54002 z M 73.836457,190.53883 C 76.596293,190.53883 78.836159,192.77869 78.836159,195.53853 C 78.836159,198.29837 76.596293,200.53823 73.836457,200.53823 C 71.076626,200.53823 68.83676,198.29837 68.83676,195.53853 C 68.83676,192.77869 71.076626,190.53883 73.836457,190.53883 z M 75.503028,212.20421 C 78.262858,212.20421 80.502725,214.44407 80.502725,217.2039 C 80.502725,219.96373 78.262858,222.20361 75.503028,222.20361 C 72.743192,222.20361 70.503325,219.96373 70.503325,217.2039 C 70.503325,214.44407 72.743192,212.20421 75.503028,212.20421 z M 82.169291,232.20301 C 84.929128,232.20301 87.168995,234.44287 87.168995,237.2027 C 87.168995,239.96254 84.929128,242.20241 82.169291,242.20241 C 79.40946,242.20241 77.169594,239.96254 77.169594,237.2027 C 77.169594,234.44287 79.40946,232.20301 82.169291,232.20301 z M 168.83077,170.54002 C 166.07093,170.54002 163.83107,172.7799 163.83107,175.53973 C 163.83107,178.29957 166.07093,180.53943 168.83077,180.53943 C 171.5906,180.53943 173.83047,178.29957 173.83047,175.53973 C 173.83047,172.7799 171.5906,170.54002 168.83077,170.54002 z M 177.1636,190.53883 C 174.40377,190.53883 172.1639,192.77869 172.1639,195.53853 C 172.1639,198.29837 174.40377,200.53823 177.1636,200.53823 C 179.92343,200.53823 182.1633,198.29837 182.1633,195.53853 C 182.1633,192.77869 179.92343,190.53883 177.1636,190.53883 z M 175.49703,212.20421 C 172.7372,212.20421 170.49733,214.44407 170.49733,217.2039 C 170.49733,219.96373 172.7372,222.20361 175.49703,222.20361 C 178.25687,222.20361 180.49673,219.96373 180.49673,217.2039 C 180.49673,214.44407 178.25687,212.20421 175.49703,212.20421 z M 168.83077,232.20301 C 166.07093,232.20301 163.83107,234.44287 163.83107,237.2027 C 163.83107,239.96254 166.07093,242.20241 168.83077,242.20241 C 171.5906,242.20241 173.83047,239.96254 173.83047,237.2027 C 173.83047,234.44287 171.5906,232.20301 168.83077,232.20301 z"
     id="Horseshoe"
     style="fill:#ffcd50;fill-rule:evenodd" />
  <g
     transform="matrix(0,-0.510241,0.510241,0,2.574414,209.7003)"
     id="Hammare"
     style="fill:#ffcd50">
    <path
       d="M 243.47842,69.433125 L 282.00541,69.433125 C 282.00541,72.921125 282.00541,78.769125 282.00541,82.261121 C 275.24042,83.776121 273.09942,79.714125 270.03342,76.761125 C 268.47442,75.538125 266.30242,75.538125 264.04842,75.714125 C 257.10742,76.323125 250.16642,76.933125 243.22442,77.542025 C 243.31042,74.839125 243.39642,72.136125 243.48242,69.429125 L 243.47842,69.433125 z M 242.54442,134.60912 L 239.18942,385.01912 C 240.94342,424.80012 290.17741,418.11212 287.92741,385.01912 L 283.13041,128.81212 C 271.75542,131.26912 274.46242,136.59712 272.25242,141.43312 C 271.01742,146.04612 265.08042,145.71812 262.42742,143.08112 C 257.61542,139.34312 252.51742,135.41312 242.54842,134.60912 L 242.54442,134.60912 z"
       id="Skaft" />
    <path
       d="M 156.82642,75.284125 C 174.11142,86.730121 194.36142,92.636121 218.19342,91.859121 C 222.92456,93.179795 220.80614,86.654643 225.79142,84.620121 C 237.65842,81.632121 250.37342,79.495125 264.31842,78.601125 C 269.59542,77.519125 271.52542,83.109121 276.29142,84.620121 C 279.33042,85.929121 282.36541,87.237121 285.40041,88.546121 C 322.04441,92.636121 357.92741,101.62012 391.09541,128.07712 C 392.91641,129.64812 393.69341,131.91712 393.43541,134.88212 L 393.44341,134.87812 C 359.55241,128.29212 326.31841,124.10512 294.51341,125.19412 C 280.49842,124.54212 270.60342,127.59312 269.78342,138.80812 C 269.79142,142.13212 266.14242,143.00712 263.01742,139.85512 C 247.33442,129.10112 234.53342,128.71012 223.70942,135.40512 C 217.45545,136.99973 219.38901,131.36678 215.91642,128.53412 C 194.75942,128.12412 174.53742,133.11612 155.24842,143.51912 C 146.36542,125.71012 144.20142,104.37802 156.82242,75.280125"
       id="Huvud" />
  </g>
  <path
     d="M 249.55062,1.4395041 L 125.50012,1.4395041 L 1.449569,1.4395041 L 1.449569,174.9361 C 0.68232904,268.65698 81.739009,302.75585 125.5001,302.75585 C 168.49395,302.75585 250.31785,268.65698 249.55062,174.9361 L 249.55062,1.4395041 z"
     id="Frame"
     style="fill:none;fill-opacity:0;stroke:#000000;stroke-width:1.88832211;stroke-linejoin:bevel" />
</svg>
