<?xml version="1.0" encoding="UTF-8" standalone="no"?>
<!-- Created with Inkscape (http://www.inkscape.org/) -->
<svg
   xmlns:dc="http://purl.org/dc/elements/1.1/"
   xmlns:cc="http://web.resource.org/cc/"
   xmlns:rdf="http://www.w3.org/1999/02/22-rdf-syntax-ns#"
   xmlns:svg="http://www.w3.org/2000/svg"
   xmlns="http://www.w3.org/2000/svg"
   version="1.0"
   width="251"
   height="304.20001"
   id="svg4166">
  <defs
     id="defs4168" />
  <metadata
     id="metadata1880"><rdf:RDF><cc:Work
         rdf:about=""><dc:title>Gagnef kommunvapen</dc:title><dc:date>16-12-2006</dc:date><dc:creator><cc:Agent><dc:title>Lokal_Profil</dc:title></cc:Agent></dc:creator><cc:license
         rdf:resource="http://creativecommons.org/licenses/by-sa/2.5/" /><dc:rights><cc:Agent><dc:title>cc-by-sa-2.5</dc:title></cc:Agent></dc:rights><dc:format>image/svg+xml</dc:format><dc:type
         rdf:resource="http://purl.org/dc/dcmitype/StillImage" /></cc:Work><cc:License
         rdf:about="http://creativecommons.org/licenses/by-sa/2.5/"><cc:permits
         rdf:resource="http://web.resource.org/cc/Reproduction" /><cc:permits
         rdf:resource="http://web.resource.org/cc/Distribution" /><cc:requires
         rdf:resource="http://web.resource.org/cc/Notice" /><cc:requires
         rdf:resource="http://web.resource.org/cc/Attribution" /><cc:permits
         rdf:resource="http://web.resource.org/cc/DerivativeWorks" /><cc:requires
         rdf:resource="http://web.resource.org/cc/ShareAlike" /></cc:License></rdf:RDF>
  </metadata>
  <path
     d="M 249.55058,1.4395041 L 125.50008,1.4395041 L 1.4495291,1.4395041 L 1.4495291,174.9361 C 0.68228908,268.65698 81.738969,302.75585 125.50006,302.75585 C 168.49391,302.75585 250.31781,268.65698 249.55058,174.9361 L 249.55058,1.4395041 z "
     style="color:#000000;fill:#d40000;fill-opacity:1;fill-rule:nonzero;stroke:none;stroke-width:1.88832211;stroke-linecap:round;stroke-linejoin:bevel;marker:none;marker-start:none;marker-mid:none;marker-end:none;stroke-miterlimit:4;stroke-dashoffset:0;stroke-opacity:1;visibility:visible;display:block"
     id="Shield" />
  <path
     d="M 1.444,1.4315132 L 1.444,38.087763 C 2.5257837,38.958811 3.5583379,39.889601 4.53775,40.869013 C 21.878682,58.209946 10.509316,69.559331 27.85025,86.900263 C 45.191179,104.24119 56.540572,92.871835 73.8815,110.21276 C 87.574044,123.90531 83.403333,133.87341 89.569,145.99401 C 87.242038,150.4966 85.5065,155.9047 85.5065,163.96276 C 85.5065,188.48654 101.569,188.5015 101.569,213.02526 C 101.569,237.54905 85.5065,237.53274 85.5065,262.05651 C 85.5065,281.92201 96.064893,285.70687 100.069,299.46276 C 109.30009,301.67904 117.99746,302.74401 125.5065,302.74401 C 134.48805,302.74401 145.03773,301.30616 156.1315,298.21276 C 151.7915,288.81029 147.00651,275.44848 147.0065,262.05651 C 147.0065,237.53275 163.03775,237.54904 163.03775,213.02526 C 163.03775,188.5015 147.00651,188.48652 147.0065,163.96276 C 147.0065,163.63901 147.00098,163.34058 147.0065,163.02526 C 149.39061,160.66056 151.68787,158.34389 153.78775,156.24401 C 171.12868,138.90308 159.79056,127.5537 177.1315,110.21276 C 194.47244,92.871835 205.82182,104.24119 223.16275,86.900263 C 240.50369,69.559331 229.13432,58.209946 246.47525,40.869013 C 247.45466,39.889601 248.48722,38.958811 249.569,38.087763 L 249.569,1.4315132 L 201.97525,1.4315132 C 199.67072,9.8704442 193.09833,29.96468 179.66275,43.400263 C 162.32181,60.741191 150.97243,49.40309 133.6315,66.744013 C 130.53578,69.839732 127.86559,72.515172 125.5065,74.962763 C 123.14741,72.515172 120.47722,69.839732 117.3815,66.744013 C 100.04057,49.40309 88.69118,60.741191 71.35025,43.400263 C 57.914667,29.96468 51.342279,9.8704442 49.03775,1.4315132 L 1.444,1.4315132 z "
     style="fill:#ffcd50;fill-opacity:1;fill-rule:nonzero;stroke:none;stroke-width:1.88800001;stroke-miterlimit:4;stroke-dasharray:none;stroke-opacity:1"
     id="av_vagskuror_bildat_gaffelkors" />
  <path
     d="M 249.55062,1.4395041 L 125.50012,1.4395041 L 1.449569,1.4395041 L 1.449569,174.9361 C 0.68232904,268.65698 81.739009,302.75585 125.5001,302.75585 C 168.49395,302.75585 250.31785,268.65698 249.55062,174.9361 L 249.55062,1.4395041 z "
     style="color:#000000;fill:none;fill-opacity:0;fill-rule:nonzero;stroke:#000000;stroke-width:1.88832211;stroke-linecap:round;stroke-linejoin:bevel;marker:none;marker-start:none;marker-mid:none;marker-end:none;stroke-miterlimit:4;stroke-dashoffset:0;stroke-opacity:1;visibility:visible;display:block"
     id="Frame" />
</svg>
