<?xml version="1.0" encoding="UTF-8" standalone="no"?>
<!-- Created with Inkscape (http://www.inkscape.org/) -->

<svg
   xmlns:dc="http://purl.org/dc/elements/1.1/"
   xmlns:cc="http://creativecommons.org/ns#"
   xmlns:rdf="http://www.w3.org/1999/02/22-rdf-syntax-ns#"
   xmlns:svg="http://www.w3.org/2000/svg"
   xmlns="http://www.w3.org/2000/svg"
   xmlns:xlink="http://www.w3.org/1999/xlink"
   version="1.0"
   width="251"
   height="304.20001"
   id="svg4166">
  <metadata 
     id="metadata1880"><rdf:RDF><cc:Work
         rdf:about=""><dc:title>Orsa kommunvapen</dc:title><dc:date>2013-12-25</dc:date><dc:creator><cc:Agent><dc:title>Lokal_Profil</dc:title></cc:Agent></dc:creator><cc:license
         rdf:resource="http://creativecommons.org/licenses/by-sa/2.5/" /><dc:rights><cc:Agent><dc:title>cc-by-sa-2.5</dc:title></cc:Agent></dc:rights><dc:format>image/svg+xml</dc:format><dc:type
         rdf:resource="http://purl.org/dc/dcmitype/StillImage" /></cc:Work><cc:License
         rdf:about="http://creativecommons.org/licenses/by-sa/2.5/"><cc:permits
         rdf:resource="http://web.resource.org/cc/Reproduction" /><cc:permits
         rdf:resource="http://web.resource.org/cc/Distribution" /><cc:requires
         rdf:resource="http://web.resource.org/cc/Notice" /><cc:requires
         rdf:resource="http://web.resource.org/cc/Attribution" /><cc:permits
         rdf:resource="http://web.resource.org/cc/DerivativeWorks" /><cc:requires
         rdf:resource="http://web.resource.org/cc/ShareAlike" /></cc:License></rdf:RDF>
  </metadata>
  <defs
     id="defs4168">
    <clipPath
       id="clipPath3397">
      <path
         d="m -117.56502,179.48276 a 57.136861,57.136861 0 0 1 -114.27372,0 57.136861,57.136861 0 1 1 114.27372,0 z"
         id="path3399"
         style="fill:#d40000;stroke:#ffcd50;stroke-width:3" />
    </clipPath>
  </defs>
  <path
     d="m 249.55058,1.4395041 -248.1010509,0 0,173.4965959 C 0.68228908,268.65698 81.738969,302.75585 125.50006,302.75585 c 42.99385,0 124.81775,-34.09887 124.05052,-127.81975 l 0,-173.4965959 z"
     id="Shield"
     style="fill:#ffcd50;stroke:none" />
  <g
     transform="matrix(1.0463031,0,0,1.0463031,247.62524,-101.10372)"
     id="Slipsten"
     style="fill:none;stroke:#ffcd50;stroke-width:3">
    <path
       d="m -117.56502,179.48276 a 57.136861,57.136861 0 0 1 -114.27372,0 57.136861,57.136861 0 1 1 114.27372,0 z"
       id="path3216"
       style="fill:#d40000;stroke:#ffcd50;stroke-width:3" />
    <g
       clip-path="url(#clipPath3397)"
       id="g3348"
       style="fill:none;stroke-width:3">
      <g
         transform="matrix(1.0262411,0,0,1.0262411,5.5839207,-4.7098211)"
         id="g3231">
        <g
           transform="translate(3.4577943e-7,2.0556907e-6)"
           id="g3224">
          <path
             d="m -120.00001,109.91379 a 55.675865,55.675865 0 0 1 -111.35173,0 55.675865,55.675865 0 1 1 111.35173,0 z"
             id="path4169" />
          <path
             d="m -189.56898,179.48276 a 55.675865,55.675865 0 1 1 -111.35173,0 55.675865,55.675865 0 1 1 111.35173,0 z"
             id="path4171" />
          <path
             d="m -50.43104,179.48276 a 55.675865,55.675865 0 0 1 -111.35173,0 55.675865,55.675865 0 1 1 111.35173,0 z"
             id="path4173" />
          <path
             d="m -120.00001,249.05173 a 55.675865,55.675865 0 0 1 -111.35173,0 55.675865,55.675865 0 1 1 111.35173,0 z"
             id="path2206" />
        </g>
        <g
           transform="translate(-24.206883,-250.94483)"
           id="g3209">
          <path
             d="m -41.820912,430.4276 a 45.632414,45.632414 0 0 1 -91.264828,0 45.632414,45.632414 0 1 1 91.264828,0 z"
             id="path2210" />
          <path
             d="m -169.85225,430.4276 a 45.632412,45.632412 0 1 1 -91.26482,0 45.632412,45.632412 0 1 1 91.26482,0 z"
             id="path2212" />
          <path
             d="m -105.83658,366.41193 a 45.632415,45.632415 0 0 1 -91.26483,0 45.632415,45.632415 0 1 1 91.26483,0 z"
             id="path2214" />
          <path
             d="m -105.83658,494.44326 a 45.632415,45.632415 0 0 1 -91.26483,0 45.632415,45.632415 0 1 1 91.26483,0 z"
             id="path2216" />
        </g>
      </g>
      <path
         d="m -141.9931,179.48276 a 32.708784,32.708784 0 1 1 -65.41756,0 32.708784,32.708784 0 1 1 65.41756,0 z"
         id="path3245" />
      <path
         d="m -136.19662,179.48277 a 38.50528,38.50528 0 0 1 -77.01056,0 38.50528,38.50528 0 1 1 77.01056,0 z"
         id="path3247" />
    </g>
    <rect
       width="10.668647"
       height="10.668647"
       x="-180.03621"
       y="174.13774"
       id="rect3275"
       style="fill:#ffcd50;stroke:none" />
  </g>
  <use
     transform="translate(121.33183,-0.8068966)"
     id="Slipsten-3"
     x="0"
     y="0"
     width="251"
     height="304.20001"
     xlink:href="#Slipsten" />
  <use
     transform="matrix(1.2047781,0,0,1.2047781,47.389303,111.1789)"
     id="Slipsten-2"
     x="0"
     y="0"
     width="251"
     height="304.20001"
     xlink:href="#Slipsten" />
  <path
     d="m 249.55062,1.4395041 -248.101051,0 0,173.4965959 c -0.76723996,93.72088 80.28944,127.81975 124.050531,127.81975 42.99385,0 124.81775,-34.09887 124.05052,-127.81975 l 0,-173.4965959 z"
     id="Frame"
     style="fill:none;stroke:#000000;stroke-width:1.88832211;stroke-linejoin:bevel" />
</svg>
