<?xml version="1.0" encoding="UTF-8" standalone="no"?>
<!-- Created with Inkscape (http://www.inkscape.org/) -->
<svg
   xmlns:dc="http://purl.org/dc/elements/1.1/"
   xmlns:cc="http://web.resource.org/cc/"
   xmlns:rdf="http://www.w3.org/1999/02/22-rdf-syntax-ns#"
   xmlns:svg="http://www.w3.org/2000/svg"
   xmlns="http://www.w3.org/2000/svg"
   version="1.0"
   width="251"
   height="304.20001"
   id="svg4166">
<metadata
   id="metadata1880"><rdf:RDF><cc:Work
         rdf:about=""><dc:title>Alvdalens kommunvapen</dc:title><dc:date>11-06-2007</dc:date><dc:creator><cc:Agent><dc:title>Lokal_Profil</dc:title></cc:Agent></dc:creator><cc:license
         rdf:resource="http://creativecommons.org/licenses/by-sa/2.5/" /><dc:rights><cc:Agent><dc:title>cc-by-sa-2.5</dc:title></cc:Agent></dc:rights><dc:format>image/svg+xml</dc:format><dc:type
         rdf:resource="http://purl.org/dc/dcmitype/StillImage" /></cc:Work><cc:License
         rdf:about="http://creativecommons.org/licenses/by-sa/2.5/"><cc:permits
         rdf:resource="http://web.resource.org/cc/Reproduction" /><cc:permits
         rdf:resource="http://web.resource.org/cc/Distribution" /><cc:requires
         rdf:resource="http://web.resource.org/cc/Notice" /><cc:requires
         rdf:resource="http://web.resource.org/cc/Attribution" /><cc:permits
         rdf:resource="http://web.resource.org/cc/DerivativeWorks" /><cc:requires
         rdf:resource="http://web.resource.org/cc/ShareAlike" /></cc:License></rdf:RDF>
</metadata>
  <defs
     id="defs4168" />
  <path
     d="M 249.55058,1.4395041 L 125.50008,1.4395041 L 1.4495291,1.4395041 L 1.4495291,174.9361 C 0.68228908,268.65698 81.738969,302.75585 125.50006,302.75585 C 168.49391,302.75585 250.31781,268.65698 249.55058,174.9361 L 249.55058,1.4395041 z "
     style="color:#000000;fill:#eeeeee;fill-opacity:1;fill-rule:nonzero;stroke:none;stroke-width:1.88832211;stroke-linecap:round;stroke-linejoin:bevel;marker:none;marker-start:none;marker-mid:none;marker-end:none;stroke-miterlimit:4;stroke-dashoffset:0;stroke-opacity:1;visibility:visible;display:block"
     id="Shield" />
  <path
     d="M 0.5,0.10033221 L 0.5,97.927342 C 9.409641,92.940752 21.724528,87.639102 34.09375,87.639102 C 57.4822,87.639102 57.486537,106.56001 80.875,106.56001 C 104.26345,106.56001 104.2678,87.639102 127.65625,87.639102 C 151.0447,87.639102 151.04905,106.56001 174.4375,106.56001 C 197.82595,106.56001 197.83029,87.639102 221.21875,87.639102 C 231.69142,87.639102 242.12709,91.431462 250.5,95.621362 L 250.5,0.10033221 L 125.5,0.10033221 L 0.5,0.10033221 z "
     style="color:#000000;fill:#003d8f;fill-opacity:1;fill-rule:nonzero;stroke:none;stroke-width:1.88832211;stroke-linecap:round;stroke-linejoin:bevel;marker:none;marker-start:none;marker-mid:none;marker-end:none;stroke-miterlimit:4;stroke-dashoffset:0;stroke-opacity:1;visibility:visible;display:block"
     id="Vagskuren-chef" />
  <path
     d="M 125.75,123.375 C 110.26863,123.45881 95.561316,129.90348 83.34375,139.375 C 76.194799,145.56855 69.741311,154.3395 67.5625,160.8125 C 66.999028,162.48651 66.508842,162.49976 64.40625,161 C 63.508015,160.35929 60.95275,159.03533 58.75,158.03125 C 42.198802,150.48675 24.945415,150.56749 8.34375,158.3125 L 1.4375,162.15625 L 1.4375,174.9375 C 0.67026003,268.65838 81.738909,302.75 125.5,302.75 C 168.49385,302.74999 250.32973,268.65838 249.5625,174.9375 L 249.5625,160.78125 L 247.84375,159.84375 C 229.43049,150.06712 208.54796,150.48476 190.34375,160.125 C 188.36736,161.30652 186.69345,162.17071 186.59375,162.0625 C 186.49405,161.9543 185.5234,160.08613 184.46875,157.90625 C 181.09598,150.93502 178.13975,146.9276 172.21875,141.375 C 161.02291,130.87576 148.73779,125.43081 132.40625,123.71875 C 130.1673,123.46121 127.96162,123.36303 125.75,123.375 z "
     style="color:#000000;fill:#d40000;fill-opacity:1;fill-rule:nonzero;stroke:none;stroke-width:1.88832211;stroke-linecap:round;stroke-linejoin:bevel;marker:none;marker-start:none;marker-mid:none;marker-end:none;stroke-miterlimit:4;stroke-dashoffset:0;stroke-opacity:1;visibility:visible;display:block"
     id="Vagskuret_treberg" />
  <path
     d="M 5.5,62.03607 C 13.789426,57.12276 24.232785,53.861553 35.500003,52.667808 C 91.575382,44.165899 158.97714,46.618405 212.74927,59.694004 C 215.99481,53.106212 219.48335,52.061035 228.40862,48.007015 L 219.25001,66.720206 L 234.25,69.062272 L 245.5,40.957479 C 180.0446,21.268885 103.51618,22.137901 39.250004,43.299544 C 25.29076,47.332631 13.549651,53.850788 5.5,62.03607 L 5.5,62.03607 z "
     style="fill:#eeeeee;fill-opacity:1;fill-rule:evenodd;stroke:none;stroke-width:0.99544668;stroke-linecap:butt;stroke-linejoin:miter;stroke-miterlimit:10"
     id="Lie" />
  <path
     d="M 125.95506,144.78417 C 119.21051,144.78417 131.78947,144.78416 125.04492,144.78416 C 118.30036,144.78416 118.47225,144.54216 118.47225,143.12112 C 118.47225,140.17288 121.44053,136.89101 125.04492,136.89101 C 128.6493,136.89101 122.35068,136.89102 125.95506,136.89102 C 129.55945,136.89102 132.52774,140.17289 132.52774,143.12113 C 132.52774,144.54217 132.69962,144.78417 125.95506,144.78417 z M 125.04492,291.3705 C 120.03114,291.22941 115.1246,290.73878 113.26805,289.98139 L 110.53047,288.86458 L 112.91136,284.16285 C 118.41212,273.30003 118.99467,270.82134 119.45889,238.26871 L 119.45889,207.96078 L 94.148135,207.96078 C 73.957979,207.98563 68.270369,206.87655 66.839725,207.96078 C 65.845888,208.71399 62.841378,211.25677 60.163044,211.89929 C 55.969993,212.90518 54.944573,212.83898 52.783131,211.42274 C 49.461682,209.24646 49.839064,205.58471 53.427815,205.16725 C 55.219324,204.95885 56.23759,205.47118 56.88107,206.90473 C 57.781975,208.91176 57.83777,208.91439 61.246882,207.1105 C 63.146172,206.10553 66.833351,202.43773 69.440618,198.95983 C 80.975487,184.57544 94.491438,170.51971 114.07723,169.45027 L 119.45889,169.45027 L 119.45889,160.81393 C 119.45889,152.57827 119.32717,152.05327 116.61979,149.49793 C 113.35393,146.41549 111.82115,143.36484 113.73974,139.15511 C 114.79219,136.84582 117.80455,131.94197 125.04492,131.98734 C 132.28528,132.03271 118.7147,132.03271 125.95506,131.98735 C 133.19543,131.94197 136.20779,136.84582 137.26025,139.15511 C 139.17883,143.36484 137.64606,146.41549 134.3802,149.49794 C 131.67282,152.05327 131.5411,152.57827 131.5411,160.81393 L 131.5411,169.45028 L 136.92276,169.45028 C 156.50855,170.51972 170.0245,184.57545 181.55937,198.95984 C 184.16664,202.43773 187.85381,206.10553 189.7531,207.1105 C 193.16223,208.91439 193.21802,208.91176 194.11893,206.90473 C 194.76241,205.47119 195.78067,204.95886 197.57218,205.16726 C 201.16093,205.58472 201.53831,209.24646 198.21687,211.42275 C 196.05542,212.83899 195.03,212.90519 190.83694,211.8993 C 188.15861,211.25678 185.1541,208.71399 184.16026,207.96078 C 182.72962,206.87655 177.04201,207.98563 156.85185,207.96078 L 131.5411,207.96078 L 131.5411,238.26871 C 132.00532,270.82134 132.58787,273.30003 138.08863,284.16285 L 140.46952,288.86458 L 137.73194,289.98139 C 135.87539,290.73878 130.96884,291.22941 125.95506,291.3705 M 181.77115,205.95612 C 169.96798,190.48254 154.3319,181.63856 137.70763,179.80361 L 131.5411,179.80361 L 131.5411,192.53954 L 131.5411,205.95612 L 155.34136,205.95612 C 177.85226,205.95612 181.77115,205.95612 181.77115,205.95612 z M 69.228835,205.95611 C 81.032011,190.48253 96.668084,181.63855 113.29236,179.80361 L 119.45889,179.80361 L 119.45889,192.53954 L 119.45889,205.95611 L 95.658629,205.95611 C 73.147727,205.95611 69.228835,205.95611 69.228835,205.95611 z "
     style="fill:#eeeeee;fill-opacity:1;fill-rule:evenodd"
     id="Crossbow undrawn" />
  <path
     d="M 249.55062,1.4395041 L 125.50012,1.4395041 L 1.449569,1.4395041 L 1.449569,174.9361 C 0.68232904,268.65698 81.739009,302.75585 125.5001,302.75585 C 168.49395,302.75585 250.31785,268.65698 249.55062,174.9361 L 249.55062,1.4395041 z "
     style="color:#000000;fill:none;fill-opacity:0;fill-rule:nonzero;stroke:#000000;stroke-width:1.88832211;stroke-linecap:round;stroke-linejoin:bevel;marker:none;marker-start:none;marker-mid:none;marker-end:none;stroke-miterlimit:4;stroke-dashoffset:0;stroke-opacity:1;visibility:visible;display:block"
     id="Frame" />
</svg>
