<?xml version="1.0" encoding="UTF-8" standalone="no"?>
<!-- Created with Inkscape (http://www.inkscape.org/) -->
<svg
   xmlns:svg="http://www.w3.org/2000/svg"
   xmlns="http://www.w3.org/2000/svg"
   xmlns:xlink="http://www.w3.org/1999/xlink"
   version="1.0"
   width="251"
   height="304.20001"
   id="svg4166">
  <defs
     id="defs4168" />
  <path
     d="M 249.55058,1.4395041 L 125.50008,1.4395041 L 1.4495291,1.4395041 L 1.4495291,174.9361 C 0.68228908,268.65698 81.738969,302.75585 125.50006,302.75585 C 168.49391,302.75585 250.31781,268.65698 249.55058,174.9361 L 249.55058,1.4395041 z "
     style="color:#000000;fill:#d40000;fill-opacity:1;fill-rule:nonzero;stroke:none;stroke-width:1.88832211;stroke-linecap:round;stroke-linejoin:bevel;marker:none;marker-start:none;marker-mid:none;marker-end:none;stroke-miterlimit:4;stroke-dashoffset:0;stroke-opacity:1;visibility:visible;display:block"
     id="Shield" />
  <path
     d="M 1.2226551,1.1697363 L 1.2226551,146.93101 L 249.03884,146.93101 L 249.03884,1.1697363 L 125.13075,1.1697363 L 1.2226551,1.1697363 z "
     style="fill:#eeeeee;fill-opacity:1;fill-rule:nonzero;stroke:none;stroke-width:1.88800001;stroke-miterlimit:4;stroke-dasharray:none;stroke-opacity:1"
     id="Delning" />
  <path
     d="M 57.718457,167.06156 C 48.634395,167.78055 40.715597,172.63999 35.843327,179.75434 L 55.872501,191.31906 C 56.419102,190.85921 57.040678,190.49202 57.718457,190.23042 L 57.718457,167.06156 z M 62.412171,167.06156 L 62.412171,190.23831 C 63.087205,190.49977 63.713419,190.86081 64.258112,191.31906 L 84.287306,179.75434 C 79.415015,172.63999 71.496216,167.78055 62.412171,167.06156 z M 33.516171,183.81698 C 31.727585,187.60832 30.723605,191.83705 30.723605,196.30467 C 30.723605,200.8558 31.758848,205.16796 33.61084,209.01321 L 53.647921,197.44062 C 53.583287,197.07255 53.545367,196.69904 53.545367,196.31255 C 53.545367,196.01385 53.569496,195.7171 53.608466,195.42903 L 33.516171,183.81698 z M 86.614442,183.81698 L 66.522145,195.42114 C 66.561822,195.71171 66.577361,196.01114 66.577361,196.31255 C 66.577361,196.70196 66.540408,197.07783 66.474807,197.4485 L 86.51977,209.01321 C 88.371795,205.16796 89.40699,200.85584 89.407007,196.30467 C 89.407007,191.83705 88.403027,187.60832 86.614442,183.81698 z M 56.077608,201.45592 L 35.985313,213.06007 C 40.868495,220.06492 48.720176,224.84345 57.718457,225.55563 L 57.718457,202.38678 C 57.123619,202.15707 56.573437,201.84039 56.077608,201.45592 z M 64.053003,201.45592 C 63.557613,201.84054 63.006547,202.15674 62.412171,202.38678 L 62.412171,225.55563 C 71.410422,224.84345 79.262117,220.06495 84.145307,213.06007 L 64.053003,201.45592 z M 48.855127,161.54695 L 47.51016,162.0089 L 46.207384,162.56132 L 44.801143,159.54561 L 43.150546,160.29692 L 41.619553,161.02921 L 38.671098,162.69779 L 37.141056,163.66827 L 35.743665,164.68704 L 37.642505,167.38128 L 36.501449,168.2805 L 35.441802,169.19684 L 32.947426,171.68171 L 31.995264,172.74986 L 31.116495,173.85723 L 28.370118,171.9437 L 27.3264,173.36662 L 26.363079,174.84384 L 24.673619,177.83451 L 23.88616,179.41329 L 23.187134,181.02426 L 26.281425,182.46348 L 25.754366,183.77398 L 25.315741,185.11666 L 24.366923,188.51463 L 24.053946,189.89052 L 23.836427,191.31368 L 20.391025,191.01114 L 20.150306,192.73883 L 20.042223,194.51481 L 20,197.96731 L 20.109035,199.69713 L 20.31356,201.47422 L 23.805366,201.16767 L 24.035131,202.56584 L 24.324186,203.97306 L 25.289089,207.34146 L 25.736978,208.65626 L 26.273303,210.00323 L 23.046485,211.50794 L 23.844995,213.33847 L 24.499927,214.70358 L 26.210717,217.74249 L 26.659787,218.46932 L 27.153075,219.21224 L 28.199961,220.66994 L 31.137472,218.58422 L 32.022631,219.69512 L 32.953048,220.78492 L 35.43792,223.27931 L 36.469888,224.19326 L 37.629513,225.06602 L 35.521929,228.10482 L 36.900629,229.13244 L 38.406985,230.1189 L 41.419776,231.8164 L 42.991527,232.58879 L 44.646717,233.3039 L 46.205621,229.91514 L 47.502053,230.41204 L 48.858801,230.88082 L 52.271859,231.82262 L 53.640711,232.12051 L 55.055827,232.36015 L 54.730064,236.11009 L 56.443693,236.32065 L 58.233743,236.45889 L 61.731491,236.48001 L 63.454278,236.3559 L 65.253455,236.15944 L 64.909829,232.3912 L 66.285875,232.1534 L 67.71521,231.8724 L 71.113743,230.89342 L 72.428544,230.44553 L 73.745394,229.92327 L 75.334439,233.33102 L 76.886531,232.644 L 78.51603,231.84744 L 81.570038,230.12961 L 81.911854,229.87843 L 82.275766,229.63531 L 83.025712,229.15711 L 83.739486,228.64071 L 84.460278,228.13937 L 82.326373,225.0591 L 84.51199,223.25055 L 86.991293,220.77272 L 87.90727,219.66636 L 88.808166,218.56704 L 91.845952,220.71183 L 92.860509,219.26578 L 93.32709,218.5342 L 93.823837,217.78856 L 95.529379,214.75367 L 95.856271,213.95872 L 96.031281,213.5467 L 96.235442,213.15778 L 96.964622,211.53274 L 93.643221,209.9608 L 94.140113,208.66435 L 94.622963,207.33776 L 95.564739,203.92473 L 95.673518,203.21314 L 95.750017,202.86539 L 95.848595,202.5257 L 95.949315,201.83623 L 96.07213,201.15481 L 99.688386,201.46947 L 99.877862,199.7106 L 100,197.96476 L 99.998011,194.49616 L 99.910838,193.60062 L 99.852781,192.72816 L 99.669363,190.99631 L 96.133338,191.28675 L 95.881469,189.88055 L 95.628565,188.51152 L 94.649614,185.11298 L 94.157494,183.78209 L 93.665394,182.45119 L 96.816821,180.98164 L 96.192082,179.60247 L 95.33323,177.80008 L 93.620425,174.83552 L 92.626823,173.33462 L 91.616101,171.91511 L 88.80124,173.8702 L 86.99973,171.69967 L 84.514858,169.20528 L 83.431625,168.26016 L 82.339343,167.37434 L 84.252863,164.62798 L 82.784718,163.60535 L 81.336649,162.66514 L 78.360016,161.00586 L 76.736011,160.2395 L 75.14715,159.54851 L 73.76324,162.52522 L 72.392433,162.0263 L 71.079919,161.5736 L 67.688971,160.63986 L 66.267851,160.34798 L 64.927118,160.11038 L 65.203479,156.80568 L 63.422501,156.60816 L 61.66965,156.47095 L 58.275429,156.47496 L 56.50841,156.58299 L 54.768529,156.78854 L 55.058035,160.08635 L 53.62972,160.33017 L 52.267719,160.59814 L 48.855127,161.54695 z M 57.712083,198.66276 L 62.420462,198.66276 L 62.420462,193.95439 L 57.712083,193.95439 L 57.712083,198.66276"
     style="fill:#eeeeee;fill-opacity:1;fill-rule:evenodd;stroke:none;stroke-width:1.00140512;stroke-linecap:butt;stroke-linejoin:miter;stroke-miterlimit:4;stroke-opacity:1"
     id="Cogwheel-6spokes-square" />
  <use
     transform="translate(140,0)"
     id="Cog2"
     x="0"
     y="0"
     width="251"
     height="304.20001"
     xlink:href="#Cogwheel-6spokes-square" />
  <use
     transform="translate(70,59.28966)"
     id="Cog3"
     x="0"
     y="0"
     width="251"
     height="304.20001"
     xlink:href="#Cogwheel-6spokes-square" />
  <path
     d="M 249.55062,1.4395041 L 125.50012,1.4395041 L 1.449569,1.4395041 L 1.449569,174.9361 C 0.68232904,268.65698 81.739009,302.75585 125.5001,302.75585 C 168.49395,302.75585 250.31785,268.65698 249.55062,174.9361 L 249.55062,1.4395041 z "
     style="color:#000000;fill:none;fill-opacity:0;fill-rule:nonzero;stroke:#000000;stroke-width:1.88832211;stroke-linecap:round;stroke-linejoin:bevel;marker:none;marker-start:none;marker-mid:none;marker-end:none;stroke-miterlimit:4;stroke-dashoffset:0;stroke-opacity:1;visibility:visible;display:block"
     id="Frame" />
  <path
     d="M 78.50773,47.621724 C 81.985775,47.401223 86.853763,47.141961 89.348587,47.044364 C 90.859053,46.985273 93.917679,46.840234 96.145524,46.722054 C 100.4585,46.493269 101.23156,46.547779 100.70361,47.043462 C 99.695675,47.989777 97.415553,51.767998 96.943359,53.274343 C 96.777397,53.803693 96.555476,54.324341 96.450115,54.431335 C 96.344781,54.538329 96.145074,55.063574 96.006311,55.598542 C 95.86755,56.133514 95.526376,57.392138 95.248149,58.395486 C 94.188193,62.218088 93.851539,66.300335 94.215682,70.915677 C 94.474081,74.190972 95.378097,79.391655 95.967317,80.992402 C 96.103203,81.361608 96.214382,81.906179 96.214382,82.202574 C 96.214382,82.498969 96.313447,82.893479 96.434567,83.079264 C 96.555648,83.26505 96.795331,83.854774 96.967177,84.389739 C 97.676629,86.598218 98.727904,89.372639 99.566602,91.249911 C 100.05726,92.348141 100.4587,93.376752 100.4587,93.535695 C 100.4587,93.694649 100.55855,93.824686 100.68058,93.824686 C 100.80262,93.824686 100.97884,94.141861 101.07216,94.529513 C 101.1655,94.917163 101.34579,95.376758 101.4728,95.550822 C 101.59983,95.724885 102.22042,96.874031 102.85187,98.104456 C 104.00682,100.3549 104.62079,101.45962 105.48385,102.84032 C 105.74099,103.25167 105.95135,103.62371 105.95135,103.6671 C 105.95135,103.97056 105.40755,103.61637 104.80309,102.91921 C 103.92629,101.90793 98.005091,97.276399 96.461182,96.394205 C 94.057688,95.020865 91.408006,93.701311 90.659333,93.504877 C 90.419027,93.441827 90.22241,93.319866 90.22241,93.233858 C 90.22241,93.147838 89.893126,93.021117 89.490663,92.952231 C 89.0882,92.883354 88.625045,92.701318 88.461444,92.547704 C 88.297815,92.394089 88.003604,92.26841 87.807621,92.26841 C 87.611626,92.26841 87.106387,92.129431 86.684793,91.959571 C 86.263231,91.78971 85.341943,91.523781 84.637462,91.368618 C 80.192296,90.38957 79.665678,90.323059 76.359094,90.323059 L 73.045009,90.323059 L 71.210136,91.061326 C 68.625266,92.10138 68.206618,92.308039 67.68118,92.803377 C 67.425818,93.044117 67.084605,93.239372 66.922925,93.237286 C 66.761232,93.23519 66.06082,92.819375 65.366452,92.313244 C 63.575478,91.007798 59.991263,88.493677 59.752482,88.375373 C 59.476919,88.23884 58.664916,85.749238 58.167007,83.51433 C 57.940553,82.497885 57.629879,81.184776 57.476602,80.596312 C 57.323339,80.007838 57.145926,77.070859 57.082384,74.069693 C 56.988104,69.617553 57.047657,68.113433 57.405876,65.899214 C 57.507353,64.250181 58.069825,62.666222 58.367642,61.045525 C 58.54589,60.075465 58.758798,59.289248 59.014148,58.331632 C 59.014148,57.639088 60.126234,54.653376 61.082806,52.777788 C 62.305899,50.379543 63.515672,48.478722 63.877324,48.386955 C 64.134649,48.321659 70.021478,47.968525 74.056533,47.776336 M 200.3031,138.19272 L 202.90259,138.17869 L 202.73885,131.64071 L 202.5751,125.10269 L 200.68443,123.60104 C 199.64454,122.77513 198.59612,121.86465 198.35456,121.57773 L 197.91541,121.05609 L 197.11092,123.82998 C 196.66848,125.3556 196.07343,127.39173 195.78864,128.35466 C 193.7152,135.36534 193.03369,137.95687 193.20625,138.1744 C 193.26555,138.24916 194.30171,138.28701 195.50884,138.25853 C 196.71599,138.23006 198.8734,138.20045 200.3031,138.19272 z M 191.56442,136.28475 C 192.38254,133.60362 192.59784,132.71014 192.46584,132.54373 C 192.34747,132.3945 192.01993,132.42837 187.00867,133.10815 C 183.4364,133.59273 179.25411,134.01677 174.23501,134.40327 C 172.17527,134.56188 169.42271,134.77657 168.11819,134.88037 C 166.81369,134.98416 164.7914,135.11161 163.62422,135.16361 C 162.45702,135.2156 160.7156,135.34481 159.75439,135.4508 C 158.79317,135.55674 154.86093,135.68884 151.01607,135.74434 C 143.62126,135.85109 141.18698,135.92528 138.00257,136.14098 C 135.62461,136.30205 124.30604,135.92777 119.80782,135.5393 C 116.84187,135.28317 115.64087,135.15377 109.95253,134.47753 C 108.30948,134.2822 106.66112,134.0073 101.20769,133.01916 C 97.88747,132.41753 90.119275,130.16423 86.129585,128.64548 C 85.006735,128.21805 84.000154,127.86834 83.892752,127.86834 C 83.785312,127.86834 83.768239,128.0653 83.854805,128.30603 C 84.113004,129.02436 84.547821,129.61914 84.814689,129.61914 C 84.952338,129.61914 85.271178,129.76455 85.523214,129.94231 C 85.775276,130.12006 86.189376,130.3608 86.44344,130.47728 C 86.697504,130.59377 87.370379,130.9307 87.938749,131.22603 C 89.507019,132.04088 91.406177,132.8061 93.343212,133.40365 C 94.304436,133.70017 95.234046,134.03294 95.409007,134.14313 C 95.583967,134.25329 95.790726,134.29387 95.868491,134.23329 C 95.946242,134.17269 96.477181,134.25442 97.048375,134.41487 C 97.619555,134.57532 98.255404,134.74064 98.46138,134.78221 C 98.667343,134.8238 100.04363,135.11448 101.51978,135.42819 C 102.99594,135.74186 104.20369,135.95757 104.20369,135.90751 C 104.20369,135.85745 104.37938,135.95337 104.59412,136.12069 C 105.37413,136.72848 104.43078,137.00777 102.84825,136.6376 C 102.42654,136.53896 101.12656,136.27282 99.959375,136.04622 C 97.372833,135.54403 95.26041,135.07633 94.591556,134.85777 C 94.316921,134.76803 93.530473,134.56711 92.843885,134.41129 C 91.303189,134.06163 87.938696,132.97545 87.614953,132.72319 C 87.325393,132.49756 86.727075,132.47698 86.727075,132.69262 C 86.727075,132.77811 87.533981,133.48178 88.520162,134.25632 C 90.173328,135.55467 92.773808,137.01149 93.438287,137.01149 C 93.591988,137.01149 93.71772,137.09506 93.71772,137.19721 C 93.71772,137.62164 95.010521,137.64629 130.66829,137.90183 C 140.89835,137.97515 149.31168,138.06468 149.36458,138.10078 C 149.41747,138.13689 158.80365,138.17044 170.22275,138.17535 L 190.98479,138.18426 L 191.56442,136.28475 z M 90.472073,137.10875 C 90.301142,136.94826 90.03377,136.81696 89.877922,136.81696 C 89.214862,136.81696 84.729754,133.36032 84.729754,132.84929 C 84.729754,132.79412 84.457677,132.4366 84.125132,132.05479 C 83.33162,131.14366 82.17664,128.72189 81.664709,126.89565 C 81.058484,124.73313 80.308168,121.74015 79.957809,120.08692 C 79.589013,118.34669 79.00703,117.20573 77.935198,116.12162 C 75.237093,113.39265 71.507436,111.55415 66.504132,110.48684 C 62.198219,109.5683 62.395408,109.64431 61.494427,108.55545 C 61.032027,107.99663 60.565518,107.45187 60.457746,107.34487 C 59.79935,106.69129 58.019404,104.68275 57.440801,103.94051 C 57.065485,103.45903 56.36714,102.63973 55.888954,102.11983 C 55.410741,101.59992 55.019492,101.08835 55.019492,100.98301 C 55.019492,100.78213 56.967281,100.90415 59.014148,101.23324 C 60.113974,101.41008 60.675346,101.48557 65.505465,102.10621 C 66.809969,102.27382 68.495211,102.49553 69.250457,102.59889 C 70.41213,102.75787 73.322388,103.12038 76.365947,103.48522 C 76.777886,103.53461 78.238437,103.74155 79.611599,103.94509 C 85.392271,104.80196 88.990103,105.17305 89.285509,104.94287 C 89.70658,104.61479 89.211694,104.30807 88.135606,104.23014 C 87.644006,104.19454 87.10074,104.0975 86.928346,104.01448 C 86.755944,103.93145 86.050322,103.79564 85.360235,103.71269 C 82.871645,103.41346 78.31074,102.7856 75.741775,102.3886 C 71.072766,101.66707 70.393228,101.56668 69.125626,101.41121 C 66.450081,101.08305 57.552975,99.78467 55.768496,99.461966 C 53.439028,99.040708 51.763727,98.825627 51.629073,98.930539 C 51.501604,99.029882 52.364623,100.14994 52.791303,100.43889 C 52.870287,100.49238 53.151164,100.83992 53.415461,101.21119 C 53.679758,101.58248 54.091512,102.05765 54.330465,102.26714 C 54.56942,102.47664 55.322811,103.3109 56.004666,104.12105 C 56.686535,104.9312 57.403848,105.73631 57.598743,105.91017 C 57.793612,106.08404 57.995214,106.30947 58.046696,106.41111 C 58.098176,106.51275 58.625391,107.11458 59.218255,107.74853 C 59.811107,108.38248 60.653728,109.33112 61.090745,109.85663 L 61.885304,110.8121 L 65.503437,111.74567 C 69.687422,112.82523 69.817449,112.87034 72.068689,114.02316 C 76.316812,116.1986 77.492282,118.18523 79.224817,126.11752 C 79.735158,128.45404 80.337249,130.09623 80.865325,130.59182 C 81.036349,130.75231 81.428141,131.27756 81.736032,131.75904 C 82.414601,132.82025 83.878663,134.41726 84.729754,135.02459 C 85.900094,135.85976 89.523905,137.36061 90.440222,137.38968 C 90.716594,137.39846 90.72277,137.34412 90.472073,137.10875 z M 153.51274,134.70128 C 154.8859,134.59618 157.30141,134.45827 158.88055,134.39485 C 160.45969,134.33143 162.65052,134.1916 163.74904,134.0841 C 164.84758,133.97663 166.86987,133.81018 168.24303,133.71422 C 171.34393,133.49754 174.77135,133.14436 183.72234,132.1192 C 184.68355,132.00912 186.46156,131.75173 187.67342,131.54723 C 188.88533,131.34275 190.13995,131.17543 190.46146,131.17543 C 190.78302,131.17543 191.55299,131.00613 192.1725,130.7992 C 193.22128,130.44892 193.31083,130.36113 193.47162,129.52575 C 193.5666,129.03226 193.5778,128.5767 193.49656,128.51339 C 193.41529,128.45007 192.13782,128.58742 190.65773,128.8186 C 189.17764,129.04977 187.23639,129.3177 186.34384,129.414 C 183.76014,129.69272 181.08751,130.00705 179.60286,130.20684 C 178.8476,130.30846 176.76913,130.48465 174.98401,130.5984 C 173.19889,130.71212 171.12043,130.88563 170.36519,130.98395 C 169.60995,131.08227 167.58766,131.20933 165.8712,131.26634 C 162.32163,131.38416 158.85941,131.56244 157.75705,131.68413 C 156.8494,131.7843 128.42656,131.78249 128.20394,131.68224 C 128.11751,131.64331 126.4739,131.55069 124.55147,131.47639 C 120.14761,131.30622 116.35081,131.05168 114.50144,130.80266 C 113.71242,130.6964 112.22422,130.51925 111.19434,130.40896 C 108.0429,130.07146 105.00325,129.66148 104.14549,129.4582 C 103.69689,129.3519 102.82429,129.20987 102.20636,129.14258 C 101.58844,129.07528 100.74582,128.94153 100.33387,128.84535 C 99.921917,128.74917 98.629899,128.48546 97.462713,128.25932 C 94.737237,127.73131 90.054964,126.6025 87.975411,125.97215 C 85.673097,125.27429 83.136088,124.56123 82.955375,124.56123 C 82.542189,124.56123 83.127221,125.59779 83.70068,125.88171 C 84.060702,126.05996 84.413553,126.26781 84.484835,126.34359 C 84.556092,126.41937 85.623418,126.85628 86.856666,127.31451 C 88.089918,127.77272 89.136368,128.21608 89.182122,128.29978 C 89.227918,128.38346 89.428472,128.45194 89.627834,128.45194 C 89.827197,128.45194 90.239136,128.5772 90.54329,128.73028 C 90.847403,128.88338 91.82652,129.20028 92.719053,129.43452 C 93.611617,129.66875 94.678944,129.96813 95.090883,130.09981 C 97.212294,130.77783 98.630071,131.17543 98.926497,131.17543 C 99.108364,131.17543 100.34203,131.4304 101.66801,131.74203 C 106.71394,132.92795 113.13751,133.85965 121.18099,134.57226 C 123.03476,134.73649 124.88853,134.90449 125.30047,134.9456 C 126.8137,135.09661 151.09544,134.88632 153.51274,134.70128 z M 145.52341,130.89511 C 151.43697,130.77989 159.92686,130.45997 161.62688,130.28827 C 162.10749,130.23972 163.23099,130.15364 164.12354,130.09691 C 165.01611,130.04018 167.54397,129.85737 169.74102,129.69068 C 171.93809,129.52399 174.74683,129.3148 175.98267,129.22584 C 178.65461,129.0335 183.5679,128.49361 184.09684,128.33422 C 184.30281,128.27215 185.37014,128.10361 186.46866,127.95967 C 188.90336,127.64065 192.74592,126.98454 193.55048,126.75047 C 194.16469,126.5718 194.82164,125.45718 194.82871,124.5818 C 194.83242,124.12146 194.81136,124.11748 193.0224,124.24266 C 192.02685,124.31231 190.93144,124.40926 190.58815,124.45809 C 190.24486,124.50692 188.50344,124.6848 186.71832,124.85339 C 184.93321,125.02197 183.07945,125.24357 182.59884,125.34582 C 182.11823,125.44808 181.09879,125.53223 180.3334,125.53283 C 179.56801,125.53342 177.82659,125.66042 176.46355,125.81506 C 175.10056,125.96968 171.90688,126.1874 169.36653,126.29891 C 166.82618,126.4104 164.18596,126.55133 163.49937,126.61209 C 161.92057,126.75181 126.82321,126.75248 123.80248,126.61284 C 119.62055,126.41953 114.72253,126.07091 111.444,125.73318 C 109.76943,125.56068 105.27114,125.10208 102.58087,124.82956 C 102.0316,124.77392 100.9081,124.60814 100.08421,124.46116 C 99.260301,124.31417 98.080629,124.13793 97.462713,124.06947 C 96.844784,124.00102 95.94599,123.8684 95.465392,123.77476 C 94.98478,123.68113 93.355698,123.37832 91.845248,123.10185 C 90.334756,122.8254 88.930391,122.54574 88.724415,122.48037 C 88.518438,122.41501 88.083051,122.32675 87.756895,122.28427 C 87.430727,122.24175 86.363396,122.00388 85.385061,121.75565 C 84.406713,121.50742 83.235935,121.24141 82.783317,121.16453 C 81.987101,121.02927 81.96413,121.04269 82.076198,121.57714 C 82.139925,121.88097 82.201268,122.19988 82.212575,122.28584 C 82.232324,122.43629 85.787457,123.77495 87.850579,124.4088 C 88.39985,124.57754 89.704102,124.9937 90.748908,125.33358 C 91.793715,125.67347 93.029542,126.02824 93.495216,126.12197 C 93.960903,126.21569 96.532705,126.74111 99.210371,127.2895 C 106.63244,128.80967 107.97861,129.02463 114.31516,129.70144 C 115.96297,129.87746 117.98525,130.10414 118.80915,130.2052 C 119.63305,130.30627 121.88005,130.4372 123.80248,130.49617 C 125.7249,130.55513 127.85955,130.65721 128.54614,130.72298 C 129.7999,130.84311 138.81449,131.11617 139.28177,131.04818 C 139.41908,131.0282 142.22783,130.95932 145.52341,130.89511 z M 141.60454,125.57638 C 141.54085,125.31868 141.19298,125.25646 139.77965,125.25004 L 138.03344,125.24211 L 137.95125,124.46397 C 137.83651,123.37728 138.32268,122.18549 138.84857,122.26439 C 139.0748,122.29834 139.32546,122.54452 139.40559,122.81144 C 139.52841,123.22048 139.71656,123.30615 140.60246,123.35657 C 141.64843,123.41611 141.65361,123.41311 141.65361,122.74815 C 141.65361,122.38064 141.51316,121.98926 141.3415,121.87842 C 141.13965,121.74808 138.60441,121.6905 134.16362,121.71539 C 127.30414,121.75383 115.7854,121.56283 113.19167,121.36765 C 112.43643,121.31082 110.86353,121.17818 109.69634,121.07289 C 108.52916,120.96759 106.67538,120.83217 105.57686,120.77195 C 104.47833,120.71172 103.09316,120.6141 102.49869,120.55501 C 101.47863,120.45359 101.42246,120.47297 101.50003,120.89949 C 101.56387,121.25059 101.76323,121.365 102.39361,121.41238 C 102.84941,121.44661 103.20503,121.38268 103.20503,121.26647 C 103.20503,120.91985 104.20972,121.03614 104.35901,121.40004 C 104.43581,121.58728 104.621,121.9392 104.77055,122.18211 C 105.16216,122.81815 104.7791,122.98148 103.26744,122.82303 C 102.11551,122.70228 101.9567,122.72717 101.9567,123.02836 C 101.9567,123.47508 102.21597,123.5855 103.50871,123.68937 C 104.09694,123.73663 104.85907,123.8217 105.20236,123.87841 C 105.54564,123.93515 106.66914,124.06787 107.69901,124.17338 C 109.23054,124.33027 115.29483,124.96029 117.93532,125.2368 C 118.27861,125.27275 120.07621,125.35844 121.92999,125.42723 C 123.78374,125.49602 126.14309,125.60208 127.17296,125.66293 C 130.55704,125.86283 137.16427,126.02144 139.44492,125.95751 C 141.35786,125.90389 141.6718,125.8485 141.60454,125.57638 z M 145.14891,125.52374 C 145.14891,125.16443 145.0181,125.13038 143.84051,125.1833 C 142.82927,125.22874 142.51325,125.31944 142.44904,125.58254 C 142.37798,125.87379 142.56706,125.92299 143.75747,125.92299 C 144.99428,125.92299 145.14891,125.87862 145.14891,125.52374 z M 148.59918,125.49106 C 148.52715,125.10108 148.3982,125.06496 147.27109,125.11917 C 145.84627,125.18771 145.78214,125.2128 145.98408,125.6228 C 146.09059,125.83906 146.48791,125.92299 147.40546,125.92299 C 148.57861,125.92299 148.67267,125.88893 148.59918,125.49106 z M 152.01473,125.43664 C 152.01473,125.11241 151.84829,125.04757 151.01607,125.04757 C 149.91015,125.04757 149.39325,125.24428 149.39325,125.66517 C 149.39325,125.87849 149.69874,125.92962 150.70399,125.88453 C 151.82314,125.83431 152.01473,125.76883 152.01473,125.43664 z M 155.13556,125.33938 C 155.13556,125.00795 154.96911,124.9503 154.01206,124.9503 C 153.24226,124.9503 152.88856,125.03197 152.88856,125.20968 C 152.88856,125.62129 153.15498,125.72845 154.17852,125.72845 C 154.96911,125.72845 155.13556,125.66078 155.13556,125.33938 z M 168.61754,125.04573 C 170.74594,124.88412 173.61085,124.65331 174.98401,124.53279 C 176.35718,124.41229 178.32329,124.24953 179.35318,124.17113 C 180.38306,124.09271 182.29301,123.88891 183.59751,123.71822 C 184.90201,123.54751 186.53108,123.36545 187.21767,123.31362 C 189.03876,123.17617 194.63424,122.4731 195.1467,122.31735 C 195.38821,122.24395 195.64733,121.9528 195.72258,121.67039 C 195.79783,121.38796 195.9604,120.80722 196.08385,120.37984 C 196.20733,119.95246 196.21303,119.52854 196.09651,119.43774 C 195.89446,119.28033 191.95213,119.47566 186.84316,119.89627 C 185.53865,120.00364 182.39554,120.18456 179.85843,120.2983 C 177.32134,120.41204 174.90582,120.53605 174.4906,120.57393 C 173.32581,120.68015 169.34533,120.85501 165.62153,120.96355 C 163.76777,121.01757 161.03473,121.15663 159.54811,121.2726 C 158.0615,121.38855 156.6,121.43548 156.30038,121.37687 C 155.35886,121.19274 155.04271,121.50073 155.30069,122.35072 C 155.5735,123.24953 156.06567,123.31697 156.62402,122.53202 C 156.8471,122.21843 157.14981,121.93061 157.29673,121.89246 C 157.6958,121.78881 158.22912,122.95633 158.24364,123.96543 L 158.25638,124.85304 L 157.07047,124.91233 C 156.18156,124.95677 155.88456,125.04958 155.88456,125.28286 C 155.88456,125.56124 156.35233,125.58068 160.31613,125.46684 C 162.75349,125.39685 166.48912,125.20735 168.61754,125.04573 z M 144.33749,123.46594 C 144.81172,123.36692 144.89925,123.21579 144.89925,122.49593 L 144.89925,121.64321 L 143.5261,121.64321 C 142.2675,121.64321 142.15321,121.67972 142.15635,122.08092 C 142.16269,122.89616 142.45145,123.37185 142.98979,123.45386 C 143.28476,123.49881 143.58226,123.54631 143.65092,123.55942 C 143.71958,123.57254 144.02854,123.53047 144.33749,123.46594 z M 148.26975,122.61588 L 148.26975,121.74047 L 146.83416,121.68214 C 145.2356,121.61716 145.13421,121.72677 145.68832,122.92077 C 145.96022,123.50663 146.04867,123.54343 147.1239,123.5182 L 148.26975,123.49129 L 148.26975,122.61588 z M 100.91219,122.85906 C 100.84559,122.408 100.71571,122.32408 100.08421,122.32408 C 99.109993,122.32408 99.013713,123.01501 99.959375,123.21995 C 100.95678,123.43614 100.99526,123.42155 100.91219,122.85906 z M 151.64024,122.52233 C 151.64024,121.76655 151.56124,121.63518 151.04623,121.53447 C 150.71954,121.47056 150.1297,121.44702 149.73548,121.48211 C 149.1,121.5387 149.02297,121.61797 149.056,122.18131 C 149.1193,123.26073 149.27896,123.39403 150.5089,123.39403 L 151.64024,123.39403 L 151.64024,122.52233 z M 154.55182,122.46999 C 154.47807,121.96176 154.41071,121.51903 154.40214,121.48612 C 154.39358,121.45323 153.90908,121.45323 153.32547,121.48612 C 152.27927,121.54511 152.26532,121.55549 152.3305,122.22681 C 152.43439,123.29652 152.54496,123.39403 153.65457,123.39403 L 154.68591,123.39403 L 154.55182,122.46999 z M 98.46138,122.42134 C 98.46138,122.09712 98.294929,122.03228 97.462713,122.03228 C 96.767563,122.03228 96.464045,122.11605 96.464045,122.30788 C 96.464045,122.63475 96.839045,122.77415 97.774792,122.79508 C 98.301517,122.80684 98.46138,122.71983 98.46138,122.42134 z M 95.795974,122.14857 C 95.980545,121.77379 95.755323,121.64321 94.924432,121.64321 C 94.127247,121.64321 93.99844,121.91373 94.653972,122.21123 C 95.264254,122.48819 95.638828,122.46764 95.795974,122.14857 z M 93.468057,121.66223 C 93.468057,121.42207 93.19207,121.21724 92.681808,121.07863 C 91.607435,120.7868 91.47074,120.80598 91.47074,121.24858 C 91.47074,121.51412 91.720337,121.68824 92.282142,121.81464 C 93.440024,122.07513 93.468057,122.07153 93.468057,121.66223 z M 90.802814,121.32067 C 91.07627,121.1076 90.447367,120.67054 89.867292,120.67054 C 89.568255,120.67054 89.205478,120.57849 89.061081,120.46598 C 88.77225,120.24093 88.905128,119.36495 89.253551,119.19717 C 89.735714,118.96499 89.412912,118.7476 88.162672,118.46252 C 84.1395,117.54517 80.953203,116.93412 80.803028,117.05114 C 80.744032,117.0971 80.889064,117.61254 81.125326,118.19654 L 81.554868,119.25837 L 83.579242,119.76686 C 84.692628,120.04653 86.558556,120.50242 87.725748,120.77994 C 88.892947,121.05749 89.96026,121.31455 90.097577,121.35125 C 90.5068,121.46058 90.630094,121.45523 90.802814,121.32067 z M 100.53315,121.13128 C 100.89415,120.84999 100.16652,120.28146 99.445507,120.28146 C 98.707174,120.28146 98.703728,120.28647 99.108509,120.7678 C 99.494602,121.22695 100.18446,121.40296 100.53315,121.13128 z M 138.60416,120.87344 L 141.42189,120.86507 L 141.25413,119.06562 C 141.16189,118.07592 141.05297,117.23552 141.0121,117.19804 C 140.97123,117.16058 137.36324,117.09112 132.99431,117.04368 C 126.37617,116.97181 118.93076,116.71432 111.444,116.29838 C 109.03546,116.16458 102.34743,115.60191 101.89428,115.49499 C 101.65397,115.43826 101.22168,115.45013 100.93363,115.5214 C 100.50839,115.62655 100.44278,115.74792 100.58469,116.16674 C 100.68083,116.45046 100.83226,117.29535 100.92119,118.04431 L 101.08287,119.40606 L 101.9567,119.45722 C 102.43731,119.48535 103.7855,119.63581 104.95268,119.79154 C 106.11988,119.94731 108.086,120.12558 109.32185,120.18772 C 110.55769,120.24985 111.90588,120.3378 112.31784,120.38312 C 115.37248,120.71928 125.25393,121.01021 131.16762,120.93811 C 133.70798,120.90714 137.05443,120.87804 138.60416,120.87344 z M 98.211717,120.476 C 98.211717,120.23616 98.044139,120.08592 97.774792,120.08426 C 97.5345,120.08281 97.073757,120.02652 96.750942,119.95919 C 96.273444,119.85957 96.180597,119.90382 96.25294,120.19648 C 96.332401,120.51804 97.025749,120.79138 97.899624,120.84568 C 98.071271,120.85633 98.211717,120.68999 98.211717,120.476 z M 144.58764,120.52464 C 144.66143,120.35141 144.32615,120.28146 143.42206,120.28146 C 142.48856,120.28146 142.15293,120.35496 142.15293,120.55938 C 142.15293,120.91895 144.43358,120.88639 144.58764,120.52464 z M 147.29151,120.67054 C 147.76088,120.67054 148.14492,120.583 148.14492,120.476 C 148.14492,120.369 147.52699,120.28146 146.77174,120.28146 C 145.49208,120.28146 145.15059,120.41245 145.5728,120.74141 C 145.66861,120.81609 145.90248,120.83067 146.09254,120.77385 C 146.28261,120.71702 146.82214,120.67054 147.29151,120.67054 z M 151.14091,120.50067 C 151.14091,120.40725 150.63534,120.3229 150.01741,120.31323 C 149.39949,120.30356 148.89391,120.38002 148.89391,120.4831 C 148.89391,120.58619 149.39949,120.67054 150.01741,120.67054 C 150.63534,120.67054 151.14091,120.5941 151.14091,120.50067 z M 153.51274,120.476 C 153.60276,120.3625 153.34887,120.28146 152.90329,120.28146 C 152.48325,120.28146 152.13956,120.369 152.13956,120.476 C 152.13956,120.72928 153.31183,120.72928 153.51274,120.476 z M 95.465392,120.01234 C 95.465392,119.86432 95.156427,119.69697 94.778804,119.64045 C 93.962692,119.51828 93.907686,119.54484 94.113066,119.96183 C 94.304581,120.3507 95.465392,120.39409 95.465392,120.01234 z M 166.37054,119.96837 C 169.64093,119.79736 174.67435,119.46789 178.10485,119.20029 C 180.23325,119.03427 183.15436,118.82153 184.59617,118.72754 C 189.26183,118.4234 195.18845,117.93072 195.91892,117.78626 C 196.70783,117.63024 197.3185,116.62314 197.32537,115.46673 C 197.32904,114.85051 197.30225,114.83475 196.26805,114.84496 C 195.68446,114.85075 194.30817,114.93912 193.20964,115.04136 C 189.43687,115.39252 185.66893,115.63388 178.22967,116.00097 C 176.0326,116.10939 172.94299,116.28455 171.36385,116.39023 C 169.78473,116.49591 165.85247,116.63676 162.62555,116.70319 C 153.81306,116.88465 154.5256,116.81838 154.42798,117.46548 C 154.38209,117.76958 154.49315,118.5403 154.67476,119.17816 L 155.00496,120.33791 L 160.12601,120.18251 C 162.94257,120.09705 165.75261,120.00067 166.37054,119.96837 z M 93.218381,119.6006 C 93.218381,119.38985 92.940988,119.30879 92.219727,119.30879 C 91.095462,119.30879 90.954487,119.43238 91.782833,119.69179 C 92.641064,119.9606 93.218381,119.92392 93.218381,119.6006 z M 144.34845,118.48201 L 144.27509,117.07164 L 143.15159,117.07164 L 142.0281,117.07164 L 141.95012,118.03141 C 141.81783,119.66012 141.9853,119.89239 143.29213,119.89239 L 144.42179,119.89239 L 144.34845,118.48201 z M 147.84459,118.90783 C 147.88539,118.41981 147.80389,117.78515 147.6635,117.49744 C 147.43838,117.03606 147.27504,116.97437 146.2786,116.97437 L 145.14891,116.97437 L 145.14891,118.30368 C 145.14891,119.03482 145.2085,119.67944 145.28131,119.73617 C 145.35412,119.7929 145.94395,119.82938 146.59207,119.81723 L 147.77041,119.79513 L 147.84459,118.90783 z M 150.934,118.53595 C 150.88889,117.84339 150.79799,117.20872 150.73203,117.12556 C 150.66606,117.04242 150.10738,116.97437 149.49051,116.97437 L 148.36892,116.97437 L 148.42274,118.01077 C 148.50997,119.69109 148.70426,119.92535 149.9523,119.85505 L 151.01607,119.79513 L 150.934,118.53595 z M 153.94414,119.01698 C 153.77164,117.04118 153.72497,116.97437 152.51749,116.97437 C 151.44394,116.97437 150.88119,117.21539 151.3865,117.45873 C 151.52606,117.52595 151.64024,117.99597 151.64024,118.50322 C 151.64024,119.61872 151.98388,119.92849 153.13717,119.85264 C 153.99225,119.79643 154.01053,119.7775 153.94414,119.01698 z M 203.51175,118.96213 C 204.04413,118.42461 203.72761,118.24785 201.803,118.0079 C 198.70247,117.6213 198.76007,117.6039 198.42875,119.02758 L 198.31232,119.52787 L 200.75431,119.40423 C 202.58485,119.31154 203.27526,119.20087 203.51175,118.96213 z M 100.20904,118.72519 C 100.20904,118.20642 100.12582,118.14158 99.460047,118.14158 C 98.150825,118.14158 98.669252,119.2074 100.02179,119.29646 C 100.12478,119.30324 100.20904,119.04616 100.20904,118.72519 z M 97.790751,118.3541 C 97.676099,118.01245 97.042211,117.76167 96.276799,117.75517 C 95.870465,117.7517 95.870465,118.46859 96.276799,118.59635 C 96.448445,118.6503 96.887332,118.70138 97.252097,118.70983 C 97.785834,118.7222 97.890995,118.65273 97.790751,118.3541 z M 95.31466,118.22129 C 95.398443,118.05114 95.412201,117.84285 95.345239,117.75844 C 95.142934,117.50339 94.294574,117.39968 93.932617,117.58576 C 93.662091,117.72483 93.712976,117.83888 94.182307,118.14553 C 94.89547,118.61152 95.115231,118.62623 95.31466,118.22129 z M 92.968731,117.67956 C 92.968731,117.53245 92.613719,117.35674 92.179857,117.28915 C 91.27827,117.14864 91.09822,117.22244 91.307231,117.64685 C 91.496282,118.03071 92.968731,118.0597 92.968731,117.67956 z M 99.955558,116.82847 C 99.950984,115.72697 99.802984,115.5196 98.898291,115.34707 C 98.13484,115.20148 98.066911,115.3906 98.369791,116.81806 C 98.516798,117.51086 98.591037,117.55891 99.772127,117.72601 C 99.875115,117.74059 99.957652,117.33669 99.955558,116.82847 z M 97.712377,116.68376 C 97.712377,115.5291 97.327092,115.02901 96.437563,115.02901 C 95.666092,115.02901 95.652931,115.04419 95.804484,115.75852 C 95.889592,116.15976 95.960451,116.67918 95.961961,116.91281 C 95.964016,117.22922 96.139852,117.35507 96.651293,117.4061 C 97.607546,117.5015 97.712377,117.43012 97.712377,116.68376 z M 90.318877,116.63392 C 90.303288,116.2862 90.275189,115.61665 90.25646,115.14603 L 90.22241,114.29037 L 88.415384,114.14896 C 87.421488,114.07118 85.034052,113.75413 83.109976,113.44439 C 80.302653,112.99244 76.347284,112.40319 75.296818,112.28041 C 74.661221,112.20609 74.860729,112.40449 76.186029,113.16468 C 77.009829,113.63723 77.760422,114.12036 77.853974,114.23834 C 78.115183,114.56763 80.27751,115.37005 81.310626,115.52107 C 81.817998,115.59524 82.233092,115.72378 82.233092,115.80674 C 82.233092,115.88968 82.542057,116.00054 82.91968,116.05312 C 83.509987,116.13531 85.605511,116.56534 88.34992,117.16745 C 88.761872,117.25782 89.379788,117.31702 89.723082,117.29897 C 90.258713,117.27081 90.343225,117.1765 90.318877,116.63392 z M 95.107663,116.14759 C 94.917672,115.02212 94.823313,114.89712 94.092229,114.80211 C 93.649539,114.74457 93.594678,114.84211 93.608609,115.66184 C 93.620154,116.33886 93.753866,116.66282 94.107949,116.87151 C 95.056978,117.43084 95.295163,117.2584 95.107663,116.14759 z M 92.795983,115.82818 C 92.741348,114.85396 92.582412,114.67291 91.715089,114.5969 C 91.148229,114.54723 91.089578,114.61561 91.016876,115.41103 C 90.929648,116.36513 91.406998,116.84306 92.342742,116.73853 C 92.766319,116.69122 92.836476,116.55032 92.795983,115.82818 z M 137.90861,108.54353 C 137.90861,99.71664 137.66183,92.244058 137.37489,92.382232 C 137.26217,92.436515 136.96493,92.395452 136.7144,92.290977 C 135.86711,91.937655 135.63172,92.308193 135.66681,93.94015 C 135.68501,94.786095 135.62826,100.09602 135.54071,105.73996 L 135.38155,116.0017 L 136.6451,116.0017 L 137.90861,116.0017 L 137.90861,108.54353 z M 168.3038,113.22956 C 169.53967,112.02588 171.01602,110.47202 171.58456,109.77657 C 172.92787,108.13338 173.14975,107.87457 173.67327,107.34032 C 173.91357,107.09508 174.11423,106.8207 174.11917,106.73059 C 174.12409,106.64047 174.37687,106.33104 174.68092,106.04294 C 175.16131,105.58773 175.438,105.5135 176.7941,105.47604 C 177.65232,105.45233 178.35451,105.3774 178.35451,105.30949 C 178.35451,105.24161 179.89933,105.07575 181.78744,104.94095 C 183.67553,104.80614 186.11913,104.58873 187.21767,104.45782 C 189.12887,104.23004 189.21846,104.1965 189.2954,103.67953 L 189.37584,103.13927 L 187.8425,103.24424 C 186.99918,103.30195 185.89566,103.43245 185.39026,103.53422 C 184.88485,103.63598 183.68489,103.77613 182.72367,103.84568 C 181.76246,103.91522 180.30192,104.09078 179.47802,104.2358 C 178.6541,104.38084 177.20207,104.5574 176.25124,104.6282 C 175.30044,104.69897 174.38069,104.79928 174.20739,104.8511 C 174.03411,104.90291 173.42256,105.5071 172.84842,106.19372 C 172.2743,106.88035 171.71901,107.44215 171.61449,107.44215 C 171.50995,107.44215 171.28598,107.70257 171.11678,108.02087 C 170.94759,108.33916 170.59009,108.79874 170.32237,109.04218 C 169.18759,110.07397 168.94251,110.3147 167.99281,111.33045 C 167.09139,112.29457 165.45446,113.84939 164.49132,114.65627 C 163.87086,115.17606 164.06107,115.41809 165.09015,115.41809 C 166.02205,115.41809 166.13737,115.33955 168.3038,113.22956 z M 172.23768,115.13258 C 173.61085,115.0723 175.46463,114.97945 176.35718,114.92624 C 177.24972,114.87304 179.72144,114.74242 181.84985,114.63599 C 183.97824,114.52958 186.05671,114.39823 186.46866,114.34414 C 186.88061,114.29004 189.23996,114.11552 191.71165,113.95634 C 194.18334,113.79715 197.76386,113.56483 199.66833,113.44003 L 203.13105,113.21317 L 203.93709,112.22438 C 205.46557,110.3494 205.87198,109.67257 207.30293,106.61904 C 208.24294,104.61302 208.24656,103.83803 207.31578,103.85387 C 206.70731,103.8642 203.94903,104.08993 202.44729,104.25229 C 202.03535,104.29682 200.93994,104.3889 200.01304,104.4569 L 198.3278,104.58055 L 198.3278,105.4006 C 198.3278,105.85161 198.40005,106.63138 198.48836,107.13343 C 198.63598,107.97266 198.70057,108.04148 199.28991,107.98735 C 199.73088,107.94685 199.97506,107.78123 200.07247,107.45657 C 200.37464,106.44949 201.57346,106.99286 201.57346,108.13691 C 201.57346,108.50375 201.60155,108.86955 201.63586,108.94979 C 201.67022,109.03004 201.08036,109.13946 200.32512,109.19296 L 198.95198,109.29022 L 198.95198,109.9711 C 198.95198,110.87967 198.48535,111.0251 198.3278,110.16564 C 198.22346,109.59663 198.09016,109.47465 197.51638,109.42321 C 196.79725,109.35874 196.69775,109.54537 196.82371,110.72242 C 196.90221,111.45612 196.22468,111.11164 196.0808,110.34471 C 195.98603,109.83952 195.82071,109.66433 195.39423,109.61713 C 194.82828,109.55452 194.76499,109.64187 194.72736,110.53768 C 194.69416,111.32809 194.08348,111.26735 194.08348,110.47365 C 194.08348,109.8288 194.02734,109.77657 193.33448,109.77657 C 192.6271,109.77657 192.58548,109.8198 192.58548,110.5547 C 192.58548,111.4913 192.19424,111.58138 191.95179,110.70061 C 191.71674,109.84669 191.66266,109.79753 191.08724,109.91479 C 190.69798,109.9941 190.58815,110.18021 190.58815,110.76045 C 190.58815,111.78536 190.13521,111.91922 189.9369,110.95293 L 189.77534,110.16564 L 188.45603,110.16564 L 187.13673,110.16564 L 186.97117,109.40206 C 186.69773,108.14105 187.86113,107.14561 188.23866,108.31755 C 188.35109,108.66672 188.56371,108.8039 188.99239,108.8039 C 189.5749,108.8039 189.58949,108.76382 189.58949,107.16182 C 189.58949,106.25868 189.50523,105.47976 189.40223,105.43087 C 189.29925,105.38197 187.1927,105.51118 184.72101,105.71798 C 182.24932,105.92478 179.60908,106.14383 178.85385,106.20475 C 175.39771,106.48355 175.73553,106.31806 174.0587,108.55369 C 173.48757,109.31514 170.8078,112.32195 170.45595,112.59608 C 170.26871,112.74198 170.11552,112.95514 170.11552,113.06977 C 170.11552,113.18442 170.01234,113.27819 169.88623,113.27819 C 169.7601,113.27819 169.40091,113.60648 169.08801,114.0077 C 168.77507,114.40894 168.41448,114.79309 168.28665,114.86137 C 167.85475,115.09209 168.38244,115.40593 169.06412,115.32378 C 169.43641,115.27892 170.86452,115.19289 172.23768,115.13258 z M 111.44256,115.07764 C 111.44176,114.99741 110.48112,114.14388 109.30781,113.18093 C 108.13449,112.21798 106.91289,111.21127 106.59315,110.94377 C 106.27337,110.67629 105.60955,109.97596 105.11797,109.38751 C 104.62637,108.79903 103.99737,108.09871 103.72017,107.83122 C 103.44293,107.56373 103.21008,107.25733 103.20263,107.15034 C 103.17018,106.68233 102.417,106.22895 101.53623,106.14725 C 101.01224,106.09864 100.26167,105.97722 99.868262,105.87743 C 99.045802,105.66879 98.673746,105.77828 98.867607,106.17193 C 98.948023,106.33524 99.555335,106.49937 100.37427,106.57909 C 101.4872,106.68743 101.79718,106.79986 102.01634,107.17466 C 102.16494,107.42878 102.38083,107.63668 102.4961,107.63668 C 102.61137,107.63668 102.68452,107.70234 102.65866,107.78259 C 102.5933,107.98521 103.71164,109.38751 103.93861,109.38751 C 104.04032,109.38751 104.2499,109.60359 104.40434,109.8677 C 104.7907,110.52843 105.68313,111.31784 108.42207,113.42165 C 110.5022,115.01942 111.44713,115.53749 111.44256,115.07764 z M 107.53579,114.68834 C 107.59955,114.60796 106.8478,113.8691 105.86529,113.04639 C 103.55521,111.11212 102.52801,110.13115 101.3719,108.75526 C 100.60353,107.84081 100.30633,107.63668 99.743258,107.63668 L 99.05451,107.63668 L 99.394199,109.53341 C 99.581048,110.57659 99.840826,111.80342 99.97149,112.25967 C 100.10213,112.71593 100.20904,113.34896 100.20904,113.66635 C 100.20904,114.33858 100.31869,114.37068 103.45469,114.61644 C 106.34141,114.84271 107.39859,114.86133 107.53579,114.68834 z M 97.213049,113.45006 C 97.213049,113.24853 97.072604,113.08248 96.900957,113.081 C 96.729323,113.07954 96.336099,113.02558 96.027134,112.96105 C 95.552793,112.86201 95.465392,112.92044 95.465392,113.33656 C 95.465392,113.88002 95.778094,114.03018 96.641883,113.90153 C 96.996165,113.84875 97.213049,113.67733 97.213049,113.45006 z M 99.460047,113.76826 C 99.460047,113.45641 98.399388,113.16487 97.987131,113.36338 C 97.848024,113.43039 97.797471,113.6137 97.874838,113.77076 C 98.064313,114.15549 99.460047,114.15327 99.460047,113.76826 z M 94.671322,113.22956 C 94.614221,112.91617 94.396568,112.77437 93.904968,112.73031 C 93.45239,112.68973 93.218381,112.75935 93.218381,112.93458 C 93.218381,113.31139 93.736145,113.66728 94.284342,113.66728 C 94.625608,113.66728 94.729669,113.54958 94.671322,113.22956 z M 92.46939,112.9864 C 92.46939,112.55874 92.362173,112.50005 91.580846,112.50005 C 91.092122,112.50005 90.737748,112.56572 90.79335,112.64597 C 90.848927,112.7262 90.964388,112.94507 91.049906,113.1323 C 91.142477,113.33497 91.461184,113.47274 91.837401,113.47274 C 92.345088,113.47274 92.46939,113.37708 92.46939,112.9864 z M 90.045341,112.78441 C 90.016618,112.57453 89.914479,111.22099 89.818357,109.77657 C 89.587806,106.31211 89.548546,106.21337 88.332317,106.0398 C 86.415593,105.76627 80.59281,105.07128 79.486767,104.98403 C 78.868838,104.9353 77.970044,104.81912 77.489446,104.72588 C 75.846287,104.40708 72.533422,103.99229 69.749798,103.75684 C 68.719916,103.66973 67.708776,103.54357 67.502786,103.47646 C 67.296824,103.40938 66.004806,103.22684 64.631629,103.07083 C 63.258467,102.9148 61.26104,102.66517 60.192892,102.51605 C 59.124757,102.36694 58.192721,102.31817 58.121716,102.4077 C 58.016064,102.54091 58.775221,103.55982 59.263812,103.94051 C 59.463492,104.09611 59.990746,104.77493 60.321449,105.30226 C 60.489199,105.56974 60.762084,105.85547 60.927846,105.9372 C 61.093595,106.01894 61.637735,106.60984 62.137076,107.25031 C 62.636403,107.89079 63.066501,108.41482 63.092824,108.41482 C 63.119161,108.41482 63.757025,108.59247 64.510324,108.80961 C 65.263622,109.02674 66.385544,109.29663 67.00346,109.40937 C 67.621388,109.5221 68.295491,109.64506 68.501453,109.68259 C 68.70743,109.72011 69.999461,109.96547 71.372623,110.22781 C 77.04099,111.31073 78.496517,111.57737 81.234425,112.03453 C 82.813564,112.29821 84.611164,112.55742 85.229094,112.61057 C 85.84701,112.66374 87.026681,112.82522 87.850579,112.9694 C 89.729643,113.29824 90.111283,113.26608 90.045341,112.78441 z M 99.210371,112.65913 C 99.210371,111.96222 98.643856,108.83643 98.449968,108.46346 C 98.319437,108.21238 98.007239,108.02575 97.717718,108.02575 C 97.289648,108.02575 97.213805,108.15126 97.217993,108.85253 C 97.227404,110.42533 97.705286,112.39335 98.139161,112.64597 C 98.666323,112.95289 99.210371,112.95959 99.210371,112.65913 z M 207.4078,112.35415 C 207.60276,112.05993 208.28972,110.72492 208.93436,109.38751 C 209.579,108.05007 210.42911,106.29926 210.82351,105.49679 C 212.38779,102.3141 213.12225,100.61854 212.98343,100.51038 C 212.8268,100.38837 209.45856,100.66982 206.81645,101.02573 C 204.0234,101.40197 202.5171,101.58604 200.32512,101.81895 C 199.15793,101.94297 198.10445,102.11448 197.98405,102.20009 C 197.86367,102.2857 197.83791,102.58156 197.92678,102.85756 C 198.11532,103.44281 197.90149,103.44867 205.29221,102.65567 C 207.68081,102.39938 209.73926,102.1897 209.86656,102.1897 C 210.37833,102.1897 209.67372,104.88202 208.64469,106.85855 C 208.56114,107.01903 208.23924,107.67559 207.92936,108.31755 C 207.61947,108.95952 206.96962,110.19876 206.48523,111.07145 C 206.00083,111.94412 205.67122,112.7101 205.75277,112.77363 C 206.15585,113.08772 207.07627,112.85443 207.4078,112.35415 z M 96.959065,112.15962 C 96.956666,111.97238 96.843392,110.98754 96.70732,109.9711 C 96.449837,108.04793 96.172564,107.63668 95.133324,107.63668 C 94.689203,107.63668 94.660917,107.73366 94.807182,108.75526 C 94.895272,109.37047 95.031688,110.35532 95.110341,110.94377 C 95.309677,112.43531 95.35526,112.50005 96.206549,112.50005 C 96.762552,112.50005 96.962233,112.40972 96.959065,112.15962 z M 94.377469,110.91524 C 94.289232,110.25759 94.217061,109.35513 94.217061,108.9098 C 94.217061,107.91752 93.765782,107.36534 93.114053,107.5602 C 92.687494,107.68774 92.660667,107.86841 92.794631,109.71171 C 92.875073,110.81845 93.009939,111.81105 93.094358,111.91748 C 93.178789,112.02391 93.538107,112.11099 93.892854,112.11099 C 94.533859,112.11099 94.536854,112.10357 94.377469,110.91524 z M 92.097135,109.72794 C 91.999704,108.52425 91.844599,107.47628 91.752466,107.39911 C 91.660347,107.32193 91.306462,107.23439 90.966098,107.20456 L 90.347241,107.15034 L 90.431938,109.29022 C 90.478528,110.46716 90.632719,111.53954 90.774595,111.67328 C 90.916459,111.80703 91.31195,111.91646 91.653428,111.91646 L 92.274295,111.91646 L 92.097135,109.72794 z M 191.71165,107.73129 C 191.71165,106.82955 191.6656,106.75712 191.05769,106.70218 C 190.55408,106.65666 190.36962,106.74474 190.2553,107.08538 C 189.95443,107.98186 190.52621,108.8629 191.33715,108.75234 C 191.61121,108.71499 191.71165,108.44113 191.71165,107.73129 z M 193.53794,108.44119 C 193.75007,108.33637 193.83838,107.9761 193.7876,107.42287 C 193.71714,106.65568 193.64414,106.56674 193.08481,106.56674 C 192.58301,106.56674 192.44459,106.67621 192.37872,107.12521 C 192.20518,108.30856 192.69074,108.85979 193.53794,108.44119 z M 195.51913,108.25443 C 195.69865,108.16562 195.81416,107.75973 195.79102,107.29922 C 195.75963,106.67535 195.63974,106.47584 195.24827,106.39608 C 194.97192,106.33977 194.65296,106.33841 194.5395,106.39307 C 194.20656,106.5534 194.29723,108.17656 194.64522,108.28598 C 195.09751,108.42819 195.17347,108.42544 195.51913,108.25443 z M 198.07814,107.85553 C 198.07814,107.65492 198.0079,107.21721 197.92209,106.88286 C 197.78895,106.36411 197.65619,106.27493 197.01705,106.27493 C 196.31133,106.27493 196.27707,106.31007 196.42409,106.88286 C 196.5099,107.21721 196.58014,107.65492 196.58014,107.85553 C 196.58014,108.13112 196.76322,108.22028 197.32913,108.22028 C 197.89505,108.22028 198.07814,108.13112 198.07814,107.85553 z M 98.211717,107.53941 C 98.211717,107.3773 97.989781,107.24761 97.712377,107.24761 C 97.09735,107.24761 97.05186,107.57533 97.649961,107.69711 C 97.890266,107.74605 98.114971,107.79624 98.149301,107.80866 C 98.18363,107.82107 98.211717,107.6999 98.211717,107.53941 z M 96.214382,107.35172 C 96.214382,107.13131 95.210771,106.87224 94.815148,106.99053 C 94.411439,107.11123 94.414793,107.13222 94.859472,107.26795 C 95.410332,107.43611 96.214382,107.48581 96.214382,107.35172 z M 93.71772,106.85855 C 93.229249,106.61257 92.719053,106.61257 92.719053,106.85855 C 92.719053,106.96554 93.028018,107.05174 93.405642,107.0501 C 93.940649,107.04778 94.00956,107.00549 93.71772,106.85855 z M 91.720417,106.66401 C 91.720417,106.55702 91.376726,106.46947 90.956687,106.46947 C 90.511107,106.46947 90.257216,106.55051 90.347241,106.66401 C 90.548154,106.9173 91.720417,106.9173 91.720417,106.66401 z M 97.915066,105.93673 C 97.78973,105.42962 96.963386,105.37307 96.963386,105.87161 C 96.963386,106.15 97.123714,106.27493 97.481017,106.27493 C 97.838309,106.27493 97.97275,106.17018 97.915066,105.93673 z M 191.58681,105.80009 C 191.58681,105.53891 191.47679,105.27223 191.34232,105.20748 C 190.94177,105.0146 190.08882,105.48087 190.08882,105.8927 C 190.08882,106.18772 190.25974,106.27493 190.83781,106.27493 C 191.46549,106.27493 191.58681,106.19801 191.58681,105.80009 z M 193.5383,105.6427 C 193.60654,105.18059 193.52898,105.10772 192.96872,105.10772 C 192.27803,105.10772 191.93597,105.49486 192.18315,105.99678 C 192.4419,106.52218 193.44724,106.25952 193.5383,105.6427 z M 96.112971,105.85635 C 96.339757,105.57041 95.538743,105.10772 94.816884,105.10772 C 94.391797,105.10772 94.293209,105.19535 94.390868,105.48638 C 94.565564,106.00682 95.785689,106.26895 96.112971,105.85635 z M 195.5374,105.41862 C 195.61035,104.93633 195.55029,104.89068 194.91729,104.94751 C 194.35259,104.99823 194.20631,105.11541 194.16438,105.55058 C 194.11803,106.03206 194.18534,106.08321 194.78451,106.02167 C 195.30401,105.96831 195.47496,105.83139 195.5374,105.41862 z M 197.64121,105.70578 C 197.88863,105.68669 197.87343,105.26964 197.61371,104.95055 C 197.31797,104.5872 196.0808,104.86192 196.0808,105.29092 C 196.0808,105.75267 196.30794,105.8887 196.92697,105.7977 C 197.21681,105.75509 197.53824,105.71374 197.64121,105.70578 z M 93.71772,105.39471 C 93.71772,105.15619 92.818516,104.71866 92.328308,104.71866 C 92.067882,104.71866 92.250014,105.47389 92.531806,105.56249 C 93.164434,105.7614 93.71772,105.68311 93.71772,105.39471 z M 91.602345,105.29374 C 91.848907,104.98288 91.231362,104.52411 90.566352,104.52411 C 89.800622,104.52411 89.778552,105.05944 90.534501,105.2962 C 91.28727,105.53197 91.413613,105.53167 91.602345,105.29374 z M 191.10791,103.94051 C 191.23399,103.94051 191.33715,103.72166 191.33715,103.45418 C 191.33715,103.06511 191.21232,102.96784 190.71299,102.96784 C 190.18114,102.96784 190.08882,103.05723 190.08882,103.57225 C 190.08882,104.04348 190.17585,104.15065 190.48375,104.0586 C 190.70095,103.99365 190.98182,103.94051 191.10791,103.94051 z M 192.93956,103.82243 C 193.30979,103.71173 193.49237,102.96118 193.20378,102.73631 C 193.13191,102.68029 192.79484,102.67591 192.45479,102.72656 C 192.01831,102.79157 191.83648,102.94549 191.83648,103.2499 C 191.83648,103.90306 192.1411,104.06118 192.93956,103.82243 z M 195.28597,103.11374 C 195.3542,102.65162 195.27663,102.57877 194.71637,102.57877 C 194.02571,102.57877 193.68364,102.96591 193.93081,103.46782 C 194.18956,103.99322 195.19489,103.73054 195.28597,103.11374 z M 197.32913,102.87057 C 197.32913,102.27839 197.24974,102.1897 196.7197,102.1897 C 195.97038,102.1897 195.73689,102.45422 195.93721,103.07616 C 196.0481,103.42041 196.26109,103.55143 196.70971,103.55143 C 197.25115,103.55143 197.32913,103.46575 197.32913,102.87057 z M 85.634791,101.7763 C 85.54898,101.44195 85.478744,99.395359 85.478744,97.228334 L 85.478744,93.288285 L 84.721748,93.043962 C 84.305394,92.909588 83.887756,92.859622 83.793674,92.932938 C 83.69958,93.006244 83.577426,95.031791 83.522194,97.434135 C 83.410949,102.27434 83.441871,102.38424 84.916352,102.38424 C 85.762617,102.38424 85.785801,102.36461 85.634791,101.7763 z M 169.36653,102.0732 C 169.36653,102.00912 169.20277,101.68083 169.00262,101.34369 C 168.80245,101.00654 168.17931,99.636434 167.61783,98.299 C 167.05636,96.961569 166.50168,95.692229 166.38519,95.478238 C 166.13806,95.024262 164.50381,91.209726 164.00984,89.933992 C 163.82342,89.452513 163.48441,88.577105 163.2565,87.988641 C 161.57531,83.647971 159.75583,76.260049 159.11237,71.161353 C 158.97735,70.09141 158.80999,69.072136 158.7405,68.896285 C 158.67098,68.720445 158.57052,66.750771 158.51723,64.519248 C 158.44319,61.4184 158.52836,59.751091 158.87849,57.446627 C 159.41577,53.91046 160.00336,51.123142 160.49838,49.762489 C 161.7075,46.439065 161.98233,45.737302 162.55551,44.510045 C 162.9053,43.761084 163.38426,42.841906 163.61987,42.467422 C 165.2519,39.873313 166.37323,38.268707 167.53298,36.867761 C 168.2668,35.981331 168.86718,35.206544 168.86718,35.146007 C 168.86718,35.040241 165.57338,35.180682 163.49937,35.374888 C 162.95011,35.42632 160.47841,35.555616 158.00672,35.662213 C 155.53503,35.768809 153.11952,35.892358 152.6389,35.936762 C 152.15829,35.981165 149.63042,36.112365 147.02142,36.228322 C 144.4124,36.34427 140.59251,36.526583 138.53277,36.633459 C 136.47302,36.740333 132.25991,36.958669 129.17029,37.118642 C 126.08068,37.278622 121.47434,37.498078 118.93398,37.606324 C 113.50195,37.837791 112.19301,37.965764 112.19301,38.265373 C 112.19301,38.386941 111.92738,38.791237 111.60274,39.163803 C 110.55057,40.371315 108.88508,42.888106 108.33426,44.102943 C 108.03868,44.754829 107.66928,45.469498 107.51336,45.691113 C 107.16148,46.191263 106.30164,48.138595 105.97333,49.178883 C 105.83825,49.606863 105.49826,50.56981 105.21776,51.318771 C 104.58943,52.99646 103.8947,55.74323 103.22508,59.197445 C 102.47351,63.074302 102.02201,72.24786 102.41289,75.699574 C 102.57855,77.162342 102.71319,79.015705 102.71214,79.818159 C 102.71108,80.620624 102.88388,82.283895 103.09615,83.51433 C 103.30841,84.744765 103.5833,86.408034 103.707,87.210497 C 104.05172,89.446761 104.40243,91.458294 104.69053,92.85201 C 104.83432,93.54748 105.06739,94.77305 105.20844,95.575505 C 105.34954,96.37797 105.58305,97.297137 105.72735,97.618123 C 105.87166,97.939099 106.04111,98.508116 106.1039,98.882602 C 106.29512,100.02291 106.33064,100.14352 106.50515,100.24434 C 106.59776,100.29784 106.94305,99.947679 107.27252,99.466204 C 108.40258,97.814598 109.67824,96.394958 111.01172,95.30495 C 111.74593,94.704795 112.42442,94.213763 112.51947,94.213763 C 112.61454,94.213763 112.88895,94.076074 113.12924,93.907794 C 114.73412,92.783909 114.99135,92.677327 119.43333,91.295755 C 122.04508,90.483438 129.12881,89.591938 131.23557,89.810432 C 131.81612,89.870642 133.69549,90.043374 135.41194,90.194293 C 137.12839,90.345202 138.75747,90.53139 139.0321,90.608042 C 139.30675,90.684694 139.75614,90.814752 140.03076,90.897053 C 140.3054,90.979355 141.20419,91.198117 142.0281,91.38319 C 142.852,91.568263 143.86314,91.834584 144.27509,91.97501 C 144.68705,92.115436 145.75436,92.44864 146.64691,92.715467 C 147.53948,92.982305 149.56931,93.69119 151.15764,94.290787 C 152.74596,94.890394 154.1415,95.380972 154.25881,95.380972 C 154.3761,95.380972 154.64946,95.500856 154.86625,95.647386 C 155.08303,95.793915 155.54127,95.990886 155.88456,96.085095 C 156.49409,96.252363 160.5944,97.996448 161.91689,98.650992 C 162.28237,98.831871 163.12501,99.234168 163.78939,99.544966 C 164.45378,99.855775 165.40677,100.35913 165.90713,100.66354 C 166.4075,100.96797 166.91309,101.21746 167.03063,101.21799 C 167.1482,101.21853 167.58142,101.43422 167.99337,101.69733 C 168.70017,102.14876 169.36653,102.33116 169.36653,102.0732 z M 186.40624,102.00632 L 184.03244,102.19348 L 185.12574,102.10548 C 185.72703,102.05709 186.30326,102.01247 186.40624,102.00632 z M 73.744454,100.46452 C 73.744454,100.37162 72.154472,99.124165 70.21119,97.69239 C 68.267894,96.260626 65.543414,94.247731 64.156797,93.219305 C 62.770141,92.190881 61.19266,91.052858 60.651262,90.690355 C 60.109839,90.327851 58.924295,89.462242 58.016687,88.766773 C 57.109065,88.071314 55.58594,86.96601 54.631915,86.31055 C 53.677889,85.655079 52.274864,84.648366 51.514076,84.073402 C 50.753303,83.498425 49.180407,82.374386 48.018761,81.575536 C 46.857116,80.776676 45.72805,79.988815 45.509706,79.824717 C 45.291377,79.66062 44.173776,78.869806 43.026153,78.067351 C 41.878545,77.264896 40.287675,76.135425 39.490889,75.557413 C 37.000643,73.750907 37.791981,74.844159 40.663695,77.177668 C 41.075635,77.5124 42.480012,78.691125 43.784528,79.797039 C 45.089019,80.902943 46.561154,82.145152 47.055921,82.557497 C 48.087791,83.417466 51.426371,86.287002 52.105284,86.897475 C 52.356234,87.123135 53.704425,88.231281 55.101286,89.360019 C 56.498121,90.488757 58.258915,91.937179 59.014148,92.578738 C 59.769381,93.220296 61.762368,94.890229 63.442971,96.289709 C 65.123574,97.689179 66.69647,99.019898 66.9383,99.246854 C 67.355263,99.638201 68.653325,99.926412 72.246446,100.4254 C 72.864375,100.51122 73.454218,100.59313 73.557192,100.60743 C 73.660181,100.62172 73.744454,100.55741 73.744454,100.46452 z M 137.65893,32.643398 C 137.65893,30.371449 137.59176,29.822644 137.31354,29.822644 C 136.79472,29.822644 136.66744,30.460807 136.6637,33.081106 C 136.66045,35.335354 136.68726,35.464158 137.15961,35.464158 C 137.63598,35.464158 137.65893,35.33447 137.65893,32.643398 z M 139.75353,28.266326 C 139.91242,28.266302 140.06132,27.83035 140.10238,27.245012 C 140.14177,26.683311 140.27362,25.96112 140.39538,25.640139 C 140.51714,25.319152 140.66814,24.514068 140.73093,23.851055 C 140.84221,22.676215 140.82842,22.642939 140.18828,22.541687 C 138.92964,22.342617 134.286,22.244112 133.95013,22.40936 C 133.67329,22.545554 133.66079,22.889679 133.88131,24.302506 C 134.02957,25.252191 134.19671,26.449352 134.25279,26.962859 C 134.30884,27.476367 134.43096,27.955916 134.52416,28.028523 C 134.79172,28.237007 137.17571,28.433164 138.38037,28.34582 C 138.98312,28.302117 139.60104,28.266344 139.75353,28.266326 z M 137.6459,15.816114 C 137.62711,13.052424 137.51499,10.952735 137.38621,10.952735 C 137.26158,10.952735 137.15274,11.674947 137.14438,12.557651 C 137.13598,13.440354 137.07329,15.427591 137.00504,16.97373 C 136.87833,19.844594 136.97273,20.67949 137.42405,20.67949 C 137.5916,20.67949 137.66765,19.012526 137.6459,15.816114 z M 137.83999,10.01721 C 138.14421,9.8666205 138.27337,9.4143626 138.19781,8.7642163 C 138.13426,8.217039 136.80594,8.3117776 136.46925,8.8874997 C 136.01593,9.6627529 136.96911,10.448324 137.83999,10.01721 z "
     style="fill:#d40000;fill-opacity:1"
     id="path2269" />
</svg>
