<?xml version="1.0" encoding="UTF-8" standalone="no"?>
<!-- Created with Inkscape (http://www.inkscape.org/) -->

<svg
   xmlns:svg="http://www.w3.org/2000/svg"
   xmlns="http://www.w3.org/2000/svg"
   version="1.0"
   width="251"
   height="304.20001"
   id="svg4166">
  <defs
     id="defs4168" />
  <path
     d="m 249.55062,1.4395041 -248.101051,0 0,173.4965959 c -0.76723996,93.72088 80.28944,127.81975 124.050531,127.81975 42.99385,0 124.81775,-34.09887 124.05052,-127.81975 l 0,-173.4965959 z"
     id="use2844"
     style="fill:#d40000" />
  <path
     d="m 139.23009,274.99081 c 10.30228,-0.44212 20.97907,-1.40299 23.7262,-2.13528 3.9686,-1.05787 5.56297,-0.95914 7.76041,0.48053 2.53294,1.65953 2.88863,1.57559 4.22759,-0.99751 2.26933,-4.36102 4.82021,-6.36162 14.79368,-11.60235 5.08773,-2.67346 12.15255,-7.69409 15.69957,-11.157 5.2226,-5.09874 6.76078,-7.59522 8.08779,-13.12662 0.90126,-3.75676 1.60238,-9.22975 1.55804,-12.16226 -0.0821,-5.42817 0.64094,-6.38249 3.02744,-3.99606 1.38301,1.38298 10.40194,0.34496 10.40194,-1.1972 0,-0.4577 -1.14198,-1.80997 -2.53775,-3.00501 -1.91888,-1.64296 -3.11691,-1.86288 -4.91269,-0.90183 -3.04974,1.63213 -8.78259,1.64671 -8.78259,0.0223 0,-0.68676 1.35924,-1.24866 3.02054,-1.24866 2.41502,0 7.29214,-1.92681 11.86466,-4.68738 1.26594,-0.76428 -5.70629,-6.68199 -9.48072,-8.0468 -3.8745,-1.401 -4.15708,-1.88717 -4.1749,-7.18298 -0.0226,-6.72508 -1.28075,-9.18305 -4.13897,-8.08629 -2.26907,0.87071 -2.71653,3.08862 -1.00182,4.96576 2.03634,2.22923 2.58153,8.93592 0.91201,11.21906 -1.55481,2.12626 -1.76997,2.11927 -4.87972,-0.15828 -4.65372,-3.40838 -4.89963,-4.9661 -1.43412,-9.0845 1.68826,-2.00634 3.06957,-4.51692 3.06957,-5.57909 0,-1.06215 0.62475,-2.3173 1.38834,-2.78921 0.88548,-0.54724 1.10997,-2.95642 0.61977,-6.65155 -0.46264,-3.48747 -0.0638,-8.51037 1.00201,-12.61902 1.95334,-7.53014 1.70948,-8.73789 -1.76431,-8.73789 -4.12079,0 -5.87442,4.38079 -6.13412,15.32383 -0.2624,11.05707 -1.91932,20.43086 -4.06925,23.02128 -2.26629,2.73061 -6.91891,1.81902 -17.26503,-3.38274 -5.46376,-2.74703 -10.5085,-4.99463 -11.21053,-4.99463 -2.10908,0 -1.43806,2.51435 0.9088,3.40525 3.40849,1.29396 17.03031,11.57805 18.38703,13.88171 0.6696,1.13696 2.07438,4.58672 3.12173,7.66612 2.10971,6.20298 5.63487,8.71262 12.2797,8.74224 2.60833,0.0116 3.82804,0.51008 3.3078,1.35185 -0.45329,0.73341 -2.6517,1.17601 -4.88535,0.98358 -2.96644,-0.25557 -5.18927,0.59928 -8.24586,3.17116 -4.46397,3.75606 -3.9693,3.72693 -21.46766,1.26485 -5.27768,-0.74258 -5.9313,-0.57455 -5.9313,1.5248 0,3.50855 4.48702,5.75539 9.80238,4.90843 2.53566,-0.40404 5.38857,-0.12158 6.43065,0.63668 1.48716,1.08213 1.22777,1.22418 -1.25907,0.68953 -4.9461,-1.06334 -7.0286,0.85393 -5.22557,4.81101 1.83737,4.03251 1.9438,9.39558 0.18643,9.39558 -0.71689,0 -1.21222,-0.70237 -1.10074,-1.56082 0.66564,-5.1259 -0.46709,-7.43488 -5.40017,-11.00785 -2.91882,-2.11407 -5.77943,-4.68746 -6.35691,-5.71864 -1.43349,-2.5597 1.23157,-8.91237 5.78233,-13.78326 2.36768,-2.53426 3.43026,-4.71654 2.93056,-6.0187 -0.97754,-2.54734 -6.40059,-2.01778 -6.44724,0.6296 -0.048,2.72713 -1.82911,5.14876 -3.17502,4.31698 -0.63931,-0.39512 -1.1624,-2.37093 -1.1624,-4.39068 0,-4.09204 -0.9023,-4.48958 -4.39454,-1.93608 -2.02736,1.48243 -2.1604,2.20599 -0.91009,4.95004 1.80894,3.97009 -0.20181,5.69795 -2.44707,2.10282 -1.52645,-2.44417 -4.76507,-3.5513 -4.70748,-1.60928 0.0153,0.51507 1.1266,2.34123 2.46962,4.05813 3.12599,3.99624 3.12733,7.64707 0.005,12.76856 -1.371,2.24856 -2.51312,5.77398 -2.53806,7.83426 -0.0367,3.03238 -0.87014,4.13217 -4.3751,5.7732 -4.75512,2.2264 -5.37291,1.81936 -2.3344,-1.53806 2.65327,-2.93173 1.25336,-4.83966 -3.62993,-4.94722 -3.32719,-0.0733 -3.57255,-0.25971 -1.48717,-1.13002 1.37357,-0.57326 3.62122,-0.79357 4.99478,-0.48962 1.96776,0.43545 3.04933,-0.64894 5.09994,-5.11324 l 2.60256,-5.66592 -3.38659,0 c -4.79164,0 -10.9013,2.80216 -17.4272,7.99287 -3.09052,2.4582 -6.0924,4.47492 -6.67086,4.48156 -0.57846,0.007 -2.33888,1.02457 -3.91205,2.26198 l -2.86031,2.24985 3.12844,2.78649 c 2.66384,2.37268 3.01413,3.50148 2.35861,7.60067 -0.68368,4.27547 -0.38934,5.06345 2.63053,7.04208 1.87019,1.22537 5.09784,2.63502 7.17256,3.13256 l 3.77221,0.90464 -4.5868,0.12781 c -3.25467,0.0907 -5.79325,-0.85123 -8.74086,-3.24329 -2.28473,-1.85411 -4.39756,-3.54917 -4.69516,-3.76678 -0.29762,-0.21761 0.12382,-1.06057 0.93652,-1.87324 2.27308,-2.27301 1.753,-6.98614 -0.92932,-8.42164 -2.75036,-1.47189 -6.2862,-0.47649 -8.41705,2.36957 -2.79444,3.73236 -2.98152,0.35976 -0.36758,-6.62642 2.06782,-5.52658 3.81678,-7.84935 8.16042,-10.83775 3.0407,-2.092 5.52853,-4.61946 5.52853,-5.61661 0,-2.07154 -1.97009,-2.42768 -3.12173,-0.56435 -1.73762,2.81143 -3.93008,1.1954 -3.3881,-2.49731 0.62494,-4.25779 -2.05075,-5.32935 -3.11791,-1.24866 -0.77319,2.95658 -2.30492,3.24543 -3.31077,0.62433 -0.39531,-1.03013 -1.57924,-1.87299 -2.63097,-1.87299 -1.41915,0 -1.91224,1.37726 -1.91224,5.34113 0,5.60407 -1.66942,8.89527 -7.870907,15.51721 l -3.747407,4.00146 2.731806,6.57325 2.731807,6.57326 -2.835286,2.13859 c -3.178302,2.39733 -4.61244,2.03635 -2.417385,-0.60847 1.092683,-1.31655 0.986581,-2.80384 -0.444348,-6.22841 -2.343437,-5.60847 -5.452898,-7.41469 -10.189396,-5.91881 -6.913696,2.18348 -17.351059,2.64341 -19.774562,0.87135 -3.127842,-2.28704 -1.805338,-5.01776 4.295196,-8.86873 2.779931,-1.75484 5.054428,-3.71103 5.054428,-4.3471 0,-0.63606 -2.669084,-1.50254 -5.931298,-1.9255 -3.262214,-0.42296 -7.27196,-1.04913 -8.910534,-1.39154 -2.91002,-0.60806 -2.95978,-0.47586 -2.141948,5.68908 2.079788,15.67773 13.232178,25.47226 37.158536,32.63428 11.844568,3.54549 15.675658,5.52906 16.658268,8.62489 0.7759,2.44458 0.95885,2.41948 6.64315,-0.91165 5.43656,-3.18594 7.15495,-3.48165 24.57667,-4.2293 l -3.3e-4,3e-5 z m -6.86682,-2.14326 c 0,-2.72964 4.4057,-3.82679 9.83402,-2.44898 3.90155,0.99029 6.12964,0.95816 8.50184,-0.12266 4.00703,-1.82568 5.35171,-0.85849 1.5988,1.14993 -1.78422,0.95487 -5.14686,1.17606 -9.53818,0.62741 -4.5845,-0.57277 -7.36803,-0.36141 -8.58945,0.65227 -1.21428,1.00772 -1.80703,1.0543 -1.80703,0.14203 z m 35.51534,-4.06002 c -0.46458,-0.7517 -3.02437,-1.15796 -5.69281,-0.9035 -5.50292,0.52479 -6.54345,-1.00366 -1.53844,-2.2598 1.88169,-0.47225 4.34073,-0.18721 5.69818,0.6605 2.02968,1.26752 3.04307,0.9161 6.75412,-2.34214 2.40137,-2.10838 4.99047,-3.44755 5.75355,-2.97595 0.87151,0.53858 0.4435,1.20661 -1.15098,1.79642 -1.39613,0.51645 -3.68024,2.39055 -5.0758,4.16468 -2.81875,3.58331 -3.51421,3.85576 -4.74782,1.85979 z m -33.01795,-13.618 c -2.6884,-2.68832 -3.265,-4.99462 -1.24869,-4.99462 0.68678,0 1.24869,0.54213 1.24869,1.20474 0,2.10519 5.38679,4.18393 10.33929,3.98987 2.89706,-0.11351 4.48177,0.30266 4.01684,1.05492 -1.4405,2.33069 -11.66412,1.43702 -14.35613,-1.25491 z m 22.45145,-0.65449 c -2.05248,-2.47302 -0.60277,-3.91829 1.87102,-1.8653 1.14183,0.94763 3.40735,1.28186 5.64929,0.83348 3.89388,-0.77874 5.21877,0.85285 1.76782,2.17706 -3.47191,1.33224 -7.66057,0.81577 -9.28813,-1.14524 z m 40.77603,-38.14445 c -1.80958,-1.42338 -3.29015,-3.34679 -3.29015,-4.27425 0,-0.95918 1.61141,-0.075 3.73705,2.05063 2.77772,2.77762 4.42061,3.51998 6.39985,2.8918 1.79324,-0.56913 2.38378,-0.39367 1.80838,0.53732 -1.33008,2.15206 -5.04422,1.63474 -8.65513,-1.2055 z m 6.69942,-54.88943 c 0,-1.35256 0.84242,-2.45812 1.87304,-2.45812 2.43248,0 2.43248,3.26411 0,4.19751 -1.27403,0.48888 -1.87304,-0.0674 -1.87304,-1.73939 z M 80.220295,246.36557 c 1.952971,-0.89953 4.043581,-3.29066 4.866321,-5.56582 1.89302,-5.23489 5.2598,-7.37867 8.69823,-5.53855 2.075118,1.11055 2.915402,0.93544 4.356832,-0.90795 1.546546,-1.97778 1.556873,-8.51768 0.0159,-10.05861 -0.25572,-0.25571 -2.520764,0.93014 -5.033425,2.63523 -2.512672,1.7051 -7.3285,4.01686 -10.701848,5.13727 -3.765787,1.25075 -6.425731,2.95826 -6.890757,4.42339 -0.416565,1.31246 -3.532819,3.94505 -6.92501,5.85017 -8.608262,4.83465 -8.23936,7.12412 1.009844,6.26716 3.948996,-0.36591 8.720757,-1.37494 10.603913,-2.24229 z m 42.768925,-13.65755 c 0.43747,-0.7078 -0.0638,-0.91713 -1.17499,-0.49073 -2.16327,0.83011 -2.55906,1.72509 -0.76291,1.72509 0.64625,0 1.51832,-0.55546 1.9379,-1.23436 z m -47.398309,-2.62527 c 9.06416,-1.67556 15.762752,-4.99501 21.34569,-10.57777 7.184349,-7.18413 8.856119,-16.20706 4.118679,-22.22954 -3.51747,-4.47162 -6.657275,-4.40582 -5.79183,0.12135 1.666995,8.72002 -11.112606,21.56172 -21.45744,21.56172 -6.838762,0 -21.845839,-3.79385 -27.034277,-6.83438 -2.824172,-1.65503 -6.750642,-5.42996 -8.725489,-8.38879 -3.390992,-5.08051 -3.619403,-6.26487 -4.107893,-21.30001 -0.284477,-8.75618 -0.143013,-15.92036 0.314384,-15.92036 0.457384,0 2.112054,1.38158 3.677031,3.07016 2.595049,2.80003 8.053005,5.67043 10.782051,5.67043 0.603457,0 -0.127192,-2.66899 -1.623664,-5.93111 -2.165237,-4.71996 -2.724627,-8.28939 -2.739349,-17.47969 -0.01016,-6.35171 -0.216886,-11.54924 -0.45937,-11.55006 -0.242484,-8.3e-4 -3.103642,2.38655 -6.358139,5.30529 -3.254498,2.91873 -9.715143,7.52104 -14.357002,10.22734 -7.850192,4.57684 -8.234703,4.99815 -5.504457,6.03132 1.614399,0.6109 5.007027,0.84293 7.539155,0.5156 2.532127,-0.32733 4.835606,-0.36342 5.118835,-0.0802 0.283242,0.28322 -0.243245,3.43788 -1.169951,7.01035 -2.149166,8.28496 -2.131472,24.49079 0.03679,33.70409 3.734346,15.86788 18.482126,27.51601 35.821952,28.29298 1.762519,0.079 6.520944,-0.46945 10.574294,-1.21872 z m 65.897069,-5.91265 8.50036,-2.1443 -3.19341,-2.99995 c -2.15995,-2.02911 -3.19341,-4.31845 -3.19341,-7.07408 0,-4.0033 -0.0814,-4.06163 -4.6826,-3.35506 -2.57543,0.39551 -5.385,1.27181 -6.24347,1.94739 -1.67538,1.31836 -2.25241,15.95658 -0.62435,15.83833 0.51509,-0.0374 4.76168,-1.03296 9.43688,-2.21233 z m -17.18987,-4.046 c 1.34393,-2.17446 -0.18671,-2.63497 -1.89934,-0.57143 -0.98491,1.18671 -1.07965,1.90315 -0.25164,1.90315 0.73034,0 1.69827,-0.59926 2.15098,-1.33172 z m -16.90873,-4.28723 c 0,-2.4239 -2.01877,-2.4239 -2.94895,0 -0.43782,1.14093 -0.002,1.87299 1.11511,1.87299 1.00861,0 1.83384,-0.84285 1.83384,-1.87299 z m 9.98956,-0.69802 c 0,-0.64623 -0.56191,-1.17496 -1.24869,-1.17496 -0.68679,0 -1.2487,0.87602 -1.2487,1.94669 0,1.07067 0.56191,1.59941 1.2487,1.17495 0.68678,-0.42444 1.24869,-1.30045 1.24869,-1.94668 z m -44.729246,-2.81551 c 1.527715,-2.1881 3.245195,-4.30426 3.816635,-4.70255 0.57144,-0.39829 0.785916,-1.52208 0.476626,-2.49731 -0.309289,-0.97525 -0.906502,-3.34053 -1.327137,-5.25621 l -0.764788,-3.48303 -3.826199,2.23437 c -5.348371,3.12331 -12.562416,11.3669 -12.090696,13.81623 0.366616,1.90362 3.676618,3.29751 8.780944,3.69778 1.186334,0.093 3.406912,-1.62116 4.934615,-3.80928 z m 14.302346,-2.30292 c 2.86669,-3.14722 6.701706,-10.11893 6.701706,-12.18311 0,-2.84329 -5.206956,-4.18364 -10.311506,-2.65431 -4.644157,1.39136 -4.901576,1.71685 -4.186286,5.29317 0.419187,2.09585 0.762153,6.2887 0.762153,9.31743 0,4.86088 0.25632,5.36865 2.185215,4.32889 1.201869,-0.64787 3.383787,-2.49381 4.848718,-4.10207 z m 26.00314,4.02975 c 0.39513,-0.63931 0.24098,-1.45742 -0.34253,-1.81805 -0.58353,-0.36063 -1.06096,0.16243 -1.06096,1.16238 0,2.10545 0.39377,2.28939 1.40349,0.65567 z m 36.85011,-6.71542 c -0.0384,-2.64582 -0.0987,-2.65789 -1.83305,-0.36667 -0.98633,1.30301 -1.49154,2.85738 -1.1227,3.45417 1.11339,1.80144 2.99813,-0.16733 2.95575,-3.0875 z m 4.90247,-3.36011 c 0.0239,-1.03012 -0.73014,-0.4753 -1.67572,1.23299 -0.94559,1.70829 -1.39065,3.63762 -0.98904,4.28741 0.7885,1.2758 2.59375,-2.46401 2.66476,-5.5204 z m -10.90727,0.96951 c 0.55632,-0.87662 1.0201,-3.92178 1.03061,-6.76703 0.0198,-5.36516 -1.9034,-7.3266 -6.0881,-6.20908 -1.1051,0.29514 -3.55456,0.88047 -5.44321,1.30077 -3.2481,0.72282 -3.43391,1.14388 -3.43391,7.78192 l 0,7.01774 6.46156,-0.76526 c 3.55385,-0.42087 6.91672,-1.48247 7.47305,-2.35906 z m 29.54437,0.0648 c -0.21946,-1.49142 -1.02986,-2.91912 -1.8009,-3.17268 -1.86664,-0.61389 -3.10742,4.35032 -1.27512,5.10158 2.81361,1.1536 3.46912,0.74255 3.07602,-1.9289 z m -6.60148,-2.03382 c -0.35403,-0.35403 0.0538,-1.50562 0.90635,-2.55908 1.0415,-1.287 1.07293,-1.62939 0.0958,-1.0436 -0.79981,0.4795 -1.69776,0.16593 -1.99543,-0.6968 -0.29767,-0.86273 -0.79153,0.511 -1.09747,3.05275 -0.44771,3.71949 -0.23518,4.35487 1.08908,3.25585 0.90494,-0.751 1.35568,-1.6551 1.00166,-2.00912 l 1e-5,0 z m -5.66014,-2.12212 c 0,-2.40366 -0.56191,-4.37029 -1.24869,-4.37029 -0.68678,0 -1.24869,1.96663 -1.24869,4.37029 0,2.40368 0.56191,4.3703 1.24869,4.3703 0.68678,0 1.24869,-1.96662 1.24869,-4.3703 z m 47.4504,-0.49073 c 0,-0.61329 -0.90662,-1.46295 -2.01471,-1.88814 -1.30161,-0.49948 -1.77836,-1.67687 -1.34695,-3.32656 0.42384,-1.62072 0.1335,-2.37555 -0.79486,-2.0665 -2.30581,0.76766 -2.40525,4.15364 -0.18709,6.37173 2.21706,2.21699 4.34361,2.66225 4.34361,0.90947 z M 90.288964,190.2591 c 2.303279,-2.07759 -0.821591,-7.07715 -6.841222,-10.94541 -3.473306,-2.23196 -6.721997,-4.05813 -7.219327,-4.05813 -0.497317,0 -1.482138,1.26837 -2.188487,2.81859 -0.938057,2.05875 -0.781408,4.3942 0.581093,8.66315 l 1.865374,5.84455 6.39846,-0.70783 c 3.519158,-0.38931 6.851,-1.11601 7.404109,-1.61492 z m 105.127276,1.23889 c 1.13815,-1.84153 -0.26993,-3.55815 -11.23215,-13.69334 -14.42473,-13.3365 -21.35412,-19.78703 -43.36823,-40.37136 -10.80368,-10.10197 -19.88879,-18.36724 -20.18917,-18.36724 -1.65619,0 -4.49644,1.67305 -4.49644,2.64861 0,0.62303 3.45139,4.3557 7.66975,8.29484 4.21837,3.93913 9.15919,8.5668 10.97961,10.2837 12.99883,12.25968 23.10002,21.62524 30.06345,27.87404 4.45653,3.99918 9.56761,8.64805 11.35797,10.33081 2.01706,1.89585 4.03559,2.76012 5.30695,2.27227 1.43734,-0.55154 2.05176,-0.11075 2.05176,1.47198 0,2.57951 7.19242,10.49444 9.53647,10.49444 0.85492,0 1.89893,-0.55744 2.32003,-1.23875 z m -51.59953,-3.60312 c 1.12631,-1.04252 4.77959,-19.09958 4.77959,-23.62415 0,-2.64405 -0.84336,-3.98242 -3.18049,-5.04725 -4.93601,-2.24894 -12.89912,-1.74758 -17.51074,1.10246 -3.92072,2.42307 -4.10343,2.8634 -3.62842,8.74434 0.27513,3.40606 1.11679,8.57916 1.87036,11.49582 2.70772,10.4801 1.91429,9.75546 9.73463,8.89056 3.90255,-0.4316 7.47333,-1.13442 7.93507,-1.56178 z M 95.652131,176.72214 c 2.678762,-1.94043 7.528539,-6.48436 10.777279,-10.09762 5.63951,-6.2723 5.82891,-6.7202 4.18558,-9.89796 -2.59267,-5.01348 -6.15507,-7.71727 -11.259331,-8.54554 -4.028001,-0.65365 -5.143747,-0.22175 -9.008793,3.48717 -4.429781,4.25085 -11.677453,16.90298 -11.677453,20.38511 0,1.91309 8.21531,8.19688 10.71642,8.19688 0.767697,0 3.587537,-1.58761 6.266298,-3.52804 z m 28.712579,-17.0954 c 4.56469,-3.95341 11.65545,-5.93124 17.69445,-4.93553 l 4.6641,0.76902 -7.57863,-7.27134 c -9.28806,-8.91147 -25.73556,-24.11914 -26.7909,-24.77134 -0.86015,-0.5316 -22.502059,19.5183 -22.46772,20.81496 0.01191,0.44973 2.128824,0.56846 4.704257,0.26385 6.332283,-0.74893 13.659653,3.59795 17.120213,10.15638 4.0599,7.69432 4.41325,8.11626 6.79663,8.11626 1.22621,0 3.86213,-1.41401 5.8576,-3.14226 z m 104.89882,-7.15915 c -0.43405,-1.54521 -3.55673,-13.48548 -6.93927,-26.53393 -9.51003,-36.685698 -8.81723,-34.894858 -13.68134,-35.365218 l -4.16613,-0.40286 0.8742,6.02181 c 0.4808,3.312 1.65095,9.393178 2.60033,13.513738 0.94937,4.12057 2.91414,12.79139 4.36614,19.26851 3.81846,17.03341 9.13884,26.30743 15.09223,26.30743 2.14229,0 2.49351,-0.53228 1.85384,-2.80948 z M 150.21757,136.8594 c -0.90559,-5.89672 -2.03502,-7.32496 -6.49837,-8.2176 -1.96482,-0.39295 -5.18322,-1.05767 -7.152,-1.47717 -3.15313,-0.67184 -2.61263,0.13669 4.53693,6.78672 4.46409,4.15219 8.50263,7.55868 8.97453,7.56996 0.47191,0.0113 0.53442,-2.08656 0.13891,-4.66191 z m 60.81346,4.31001 c 0,-1.26846 -8.8701,-48.006508 -9.36374,-49.339048 -0.48352,-1.30527 -1.1729,-1.24181 -3.39158,0.31216 -1.53158,1.07274 -4.06445,1.95042 -5.6286,1.95042 -3.71819,0 -3.67964,1.97618 0.40362,20.697338 3.30681,15.16118 6.09023,21.53287 10.8684,24.87953 2.29451,1.60708 7.1119,2.62287 7.1119,1.4996 z M 29.345978,130.4669 c 2.747128,-1.86237 7.030986,-6.45369 9.519697,-10.20295 2.488697,-3.74926 6.703041,-10.1125 9.365208,-14.14053 2.662154,-4.02802 6.091061,-9.191248 7.619788,-11.473828 l 2.779494,-4.15015 -4.318298,-4.44652 C 51.936796,83.607326 49.7204,81.60638 49.386537,81.60638 c -2.980846,0 -31.903156,47.48572 -31.903156,52.37977 0,1.82981 7.063277,-0.26564 11.862597,-3.51925 z m 137.936812,-1.32952 c 0.71094,-1.32837 1.29262,-4.4327 1.29262,-6.89849 0,-3.6636 -0.58562,-4.70595 -3.20303,-5.70105 -5.01048,-1.90493 -7.19245,-1.56315 -6.17597,0.96739 0.48274,1.20183 1.19476,3.02799 1.58223,4.05813 0.39901,1.06077 -0.7338,0.5623 -2.61226,-1.14952 -1.82422,-1.66238 -3.66583,-2.67345 -4.09247,-2.24682 -0.42663,0.42661 -1.05843,3.28401 -1.40399,6.34975 -0.57495,5.10076 -0.37696,5.6217 2.33165,6.13491 7.18195,1.36081 10.99403,0.89076 12.28122,-1.5143 z m -16.52336,-9.21896 0.63212,-5.6081 -7.09296,-1.47245 c -7.97762,-1.65609 -10.67877,-1.11836 -10.70367,2.13087 -0.009,1.22338 -0.34607,3.45111 -0.7482,4.95051 -0.65288,2.43434 0.11752,2.98988 7.19705,5.18976 4.3605,1.35498 8.41314,2.00323 9.00586,1.44055 0.5927,-0.56267 1.36212,-3.54668 1.7098,-6.63114 z m -100.585853,2.37187 c 3.047406,-0.66517 13.700268,-12.7445 15.595886,-17.68423 0.535303,-1.39497 -3.918378,-10.513118 -5.135044,-10.513118 -0.319578,0 -15.291617,22.277688 -17.412911,25.909598 -1.160999,1.98779 0.09843,4.0917 2.085307,3.48357 0.836488,-0.25603 3.026536,-0.79415 4.866762,-1.19582 z m 80.200773,-7.15125 c 0.5877,-3.67522 0.35795,-5.53463 -0.7725,-6.25183 -3.17674,-2.01544 -4.52528,-0.9759 -5.39249,4.15689 -0.71211,4.2148 -0.45818,5.52529 1.3229,6.82761 3.01168,2.20213 3.86679,1.36635 4.84209,-4.73267 z m -13.30758,1.97549 c 3.32753,-1.36686 4.05825,-2.35298 4.05825,-5.47669 0,-2.3105 -0.64442,-3.80969 -1.63758,-3.80969 -0.90067,0 -2.84387,-1.12379 -4.31823,-2.49731 -2.86247,-2.66672 -6.52771,-3.24063 -8.46661,-1.32573 -1.13587,1.12183 -6.14526,2.25389 -10.937337,2.47171 -1.30511,0.0593 -1.901836,0.68041 -1.413222,1.47098 0.541321,0.87586 2.862757,1.06581 6.450489,0.52781 6.29389,-0.94379 6.56634,1.10744 0.32906,2.47733 -5.048996,1.10891 -4.76824,3.06151 0.3265,2.27071 2.23204,-0.34645 4.33921,-0.71885 4.6826,-0.82756 0.34339,-0.1087 0.62435,0.35193 0.62435,1.02361 0,1.15205 -1.75835,1.8749 -5.30695,2.18167 -0.85848,0.0742 -1.560872,0.64105 -1.560872,1.25963 0,0.61858 0.983352,0.83255 2.185212,0.47551 6.87098,-2.0412 9.3888,-2.32121 8.54125,-0.94987 -0.48637,0.78692 -1.66084,1.43076 -2.60995,1.43076 -0.94911,0 -2.11007,0.62198 -2.57991,1.38218 -1.01332,1.63954 5.33616,0.50148 11.63295,-2.08505 z m 73.43552,0.3907 c -0.32847,-1.54521 -1.50537,-7.02369 -2.61531,-12.17439 -1.10995,-5.15071 -2.27124,-10.644438 -2.58062,-12.208318 -0.54979,-2.77899 -0.63103,-2.79312 -3.58637,-0.62433 -2.58468,1.89681 -2.92458,2.94443 -2.34041,7.2137 1.83972,13.445418 5.04535,20.602818 9.22752,20.602818 1.92919,0 2.35744,-0.63484 1.89519,-2.80948 z m -16.45565,-0.37701 c 0.42642,-1.11121 0.21709,-1.61242 -0.49075,-1.17497 -0.67891,0.41959 -1.2344,1.29161 -1.2344,1.93784 0,1.7961 0.89503,1.40032 1.72515,-0.76287 z M 73.674635,116.56874 c 0,-1.59671 -4.614013,-6.24328 -6.199543,-6.24328 -2.162027,0 -3.812439,4.47275 -2.23314,6.052 1.765916,1.76585 8.432683,1.91708 8.432683,0.19128 z m 10.109006,-7.46223 c 4.912413,-4.67293 5.111181,-5.12788 3.379616,-7.73567 -2.570025,-3.870548 -4.268674,-4.114348 -5.389303,-0.77352 -0.940217,2.80305 -0.97011,2.79222 -1.487245,-0.53832 l -0.527735,-3.398868 -4.915211,3.25263 c -2.703361,1.788948 -4.915211,3.495848 -4.915211,3.793108 0,2.34558 5.905862,10.36556 7.633119,10.36556 0.551424,0 3.351309,-2.23421 6.22197,-4.96492 z m 86.679749,2.15544 c 0.44416,-1.54521 1.06301,-3.73358 1.37522,-4.86304 0.94515,-3.41924 -2.94743,-6.0627 -8.92758,-6.0627 -6.17201,0 -8.52204,2.5462 -7.83607,8.49019 0.33259,2.8819 1.11519,3.48243 5.38394,4.13135 8.59311,1.30632 9.16963,1.2086 10.00449,-1.6958 z m -17.13897,-4.96308 c 0.0406,-2.93608 -0.78973,-7.244028 -1.84525,-9.573218 -1.78976,-3.94945 -1.80119,-5.50003 -0.12525,-16.991644 0.51848,-3.555148 -4.67916,-4.21043 -5.59575,-0.705478 -0.36646,1.401279 -2.12544,3.102535 -3.90885,3.780568 -1.78341,0.678032 -3.3023,1.949064 -3.37531,2.824504 -0.073,0.87546 -0.25784,2.43457 -0.41076,3.46471 -0.15291,1.03014 -0.37413,3.13725 -0.49161,4.68246 -0.42242,5.5563 -2.71098,2.67169 -2.71098,-3.41704 0,-5.935777 -0.20407,-6.311785 -4.37043,-8.052548 -3.42067,-1.429199 -4.37043,-2.538143 -4.37043,-5.102932 0,-5.271325 -3.9914,-3.399278 -5.75747,2.700368 -2.33824,8.075842 -3.79512,10.004052 -9.729,12.876512 -8.93707,4.32622 -9.4197,5.90567 -2.1117,6.91075 3.4248,0.471018 7.46664,1.931568 8.98187,3.245678 1.70282,1.4768 4.62089,2.38928 7.64076,2.38928 2.68719,0 6.11317,0.65853 7.61328,1.46338 3.10485,1.66586 18.56417,5.74064 19.72674,5.19959 0.42144,-0.19613 0.79949,-2.75885 0.84014,-5.69494 z m 24.46734,1.84144 c -1.10002,-4.60208 -1.68083,-5.48096 -3.05916,-4.62913 -1.33542,0.82532 -1.57107,5.98942 -0.32994,7.23051 2.21849,2.21842 4.1811,0.71198 3.3891,-2.60138 z M 94.806678,94.989452 C 82.110028,82.985682 66.134381,68.588519 64.458421,67.639768 c -1.909254,-1.080799 -4.976622,0.734347 -4.359454,2.579758 0.255408,0.76369 8.050195,8.385934 17.321751,16.938336 14.834078,13.683458 17.381927,15.552568 21.227805,15.572758 l 4.370427,0.0229 -8.212272,-7.764108 0,4e-5 z m -20.888198,1.99151 c 4.289615,-4.10957 4.357169,-5.4403 0.448743,-8.83853 -2.468781,-2.14652 -3.776101,-2.44765 -6.827149,-1.57266 -6.083327,1.74462 -6.512653,2.35619 -4.231351,6.02746 2.619099,4.21489 5.548424,7.738978 6.432862,7.738978 0.371062,0 2.250672,-1.509858 4.176895,-3.355248 z M 170.9842,85.099494 c -1.55293,-4.72123 -5.62604,-7.239082 -11.71059,-7.239082 -4.46155,0 -5.68253,2.468306 -5.68253,11.48763 l 0,8.49086 7.17999,0.0191 c 3.949,0.0105 8.02286,0.55622 9.05304,1.21266 1.54055,0.981658 1.94472,0.25788 2.27691,-4.07726 0.22212,-2.89893 -0.28044,-7.3512 -1.11682,-9.893938 l 0,3e-5 z m -67.59064,8.743708 c 2.50374,-2.50365 1.69663,-5.60477 -2.34345,-9.004177 -4.522419,-3.805241 -5.228818,-3.892248 -9.402042,-1.157929 l -3.166502,2.074706 5.395659,4.73966 c 5.858025,5.14582 7.234095,5.62991 9.516335,3.34774 z m 76.33079,-4.07437 c 1.94302,-1.00475 3.86418,-2.69043 4.26923,-3.74597 1.10791,-2.887091 2.9434,-2.310075 3.82501,1.20247 0.86688,3.45379 4.07279,4.08069 8.62237,1.68606 3.75849,-1.97826 4.73774,-3.7054 3.9648,-6.992848 -0.87919,-3.739337 1.12503,-3.596304 2.85655,0.203868 1.26584,2.778121 5.96016,5.45467 7.26985,4.14501 0.3089,-0.30889 -0.49585,-3.029199 -1.78834,-6.045127 -1.29249,-3.015928 -3.28508,-8.700946 -4.428,-12.63336 -2.20836,-7.598333 -4.46901,-9.707013 -10.40658,-9.707013 -3.38317,0 -8.61081,2.710657 -10.69688,5.546579 -0.53446,0.726568 -0.64372,3.687693 -0.2428,6.580277 0.85478,6.16716 -0.82838,10.000608 -5.10486,11.626471 -2.43352,0.925191 -3.04582,2.042751 -3.04582,5.559173 0,5.00729 0.0996,5.05955 4.90547,2.57441 z m -67.89216,-0.37747 c 4.95604,-3.44153 7.33052,-13.490777 3.86687,-16.365258 -3.78342,-3.139857 -8.78504,-2.829716 -13.1048,0.8126 l -4.170776,3.516715 3.794636,4.062039 c 2.08705,2.234133 4.14224,5.157224 4.5671,6.495784 0.79698,2.51097 2.74008,3.08006 5.04697,1.47812 z M 64.363857,84.083001 c 2.769829,-1.053054 3.076784,-1.584981 1.801442,-3.121639 -2.55112,-3.073816 -11.22108,-2.06057 -11.22108,1.311388 0,1.412042 1.625737,2.325059 5.225661,2.934752 0.470383,0.0797 2.357672,-0.426352 4.193977,-1.124501 z M 98.131339,67.235166 c -1.089111,-1.662161 -1.980204,-4.924649 -1.980204,-7.249995 0,-11.299586 -5.989738,-16.604949 -14.296677,-12.663168 -6.923836,3.285476 -13.075067,11.147999 -12.745974,16.291961 0.22213,3.472137 1.811119,5.635756 8.97368,12.218781 l 8.703762,7.999539 6.662809,-6.787518 c 6.489777,-6.611246 6.611385,-6.866009 4.682604,-9.8096 z m 45.238341,10.313082 c 0.31744,-1.671637 -0.4308,-2.185147 -3.18402,-2.185147 -4.03276,0 -8.97687,-3.007737 -7.45146,-4.533095 0.54524,-0.545226 2.082,-0.310216 3.415,0.522238 4.46063,2.785613 7.28454,1.832577 9.38961,-3.168911 -0.1666,-3.512132 10.92911,-8.007958 3.09043,-23.975078 -1.05101,-1.963773 -3.93918,-3.318652 -9.59055,-4.499031 -1.82816,-0.381852 -9.17281,4.031372 -9.17281,5.511716 -0.27143,1.90567 -0.88695,4.412449 -0.76486,4.941693 -2.05717,6.739171 -2.07736,10.593962 0.95961,24.105434 -1.75926,4.569194 0.3827,6.285621 7.27969,5.833433 4.17505,-0.27373 5.72078,-0.928301 6.02936,-2.553252 z m -85.252377,-2.26822 c 0.452702,-0.732449 0.0025,-1.996713 -1.000518,-2.809476 -1.978007,-1.602874 -4.07524,-6.399583 -2.325144,-5.317997 0.587123,0.362847 2.064341,-0.441725 3.28268,-1.787938 1.579948,-1.745758 3.113557,-2.222208 5.347909,-1.661436 2.184778,0.548322 2.865154,0.353294 2.248449,-0.644519 -0.486367,-0.786928 -1.941795,-1.430772 -3.234294,-1.430772 -3.821617,0 -4.088575,-2.281981 -0.333339,-2.84957 2.759428,-0.417076 2.497452,-0.559885 -1.301227,-0.709299 -5.217682,-0.205241 -5.301807,-2.68441 -0.09109,-2.68441 1.95367,0 2.803881,-0.514284 2.272262,-1.374445 -0.479174,-0.775291 -2.395383,-1.065279 -4.395717,-0.665222 -1.950423,0.390068 -3.882128,0.165722 -4.292674,-0.498538 -0.713804,-1.154919 1.118218,-1.77012 3.771357,-1.266437 0.718648,0.136441 0.662807,-0.360162 -0.131563,-1.169903 -2.662441,-2.713978 -7.683309,-0.09626 -9.757378,5.087199 -1.074389,2.685084 -2.530604,4.881969 -3.236042,4.881969 -2.162776,0 0.132462,6.545391 4.050203,11.550063 3.585069,4.579708 7.482207,6.010567 9.126126,3.350731 z M 159.85814,69.448556 c 8.34081,-9.592484 8.20794,-26.349744 -0.28565,-36.023105 -10.99198,-12.518786 -29.66137,-12.552325 -40.61872,-0.07297 -2.09431,2.38522 -4.4936,6.414557 -5.33175,8.954086 -2.01125,6.09394 -1.02143,16.955185 1.94946,21.391459 l 2.37658,3.548817 0.99219,-8.116263 c 0.5457,-4.463944 1.29091,-10.477433 1.65603,-13.363301 0.43037,-3.401626 1.91422,-6.585548 4.21902,-9.052755 3.32132,-3.555372 4.14233,-3.805715 12.4814,-3.805715 9.5339,0 15.28774,2.029303 17.50606,6.174116 1.57699,2.946553 1.61343,11.814931 0.0918,22.338789 -1.69367,11.71345 -0.25912,14.033315 4.96361,8.026844 l -3e-5,-2e-6 z m -32.05343,-0.913067 c 0.38687,-1.00815 0.16604,-2.165092 -0.49075,-2.571005 -0.65678,-0.405901 -1.19416,0.418949 -1.19416,1.833002 0,3.014951 0.69441,3.319111 1.68491,0.738003 z m -4.1823,-3.78596 c 0,-1.030141 -0.46826,-1.872983 -1.04057,-1.872983 -0.57233,0 -1.04059,0.842842 -1.04059,1.872983 0,1.030141 0.46826,1.872984 1.04059,1.872984 0.57231,0 1.04057,-0.842843 1.04057,-1.872984 z m 1.96728,-7.744288 c -0.50032,-4.692561 -2.79974,-5.026551 -2.79974,-0.406649 0,2.216164 0.65371,3.780642 1.57974,3.780642 0.97286,0 1.44155,-1.296167 1.22,-3.373993 z M 45.667163,52.609548 C 46.40212,50.294004 45.178087,48.57443 38.275379,42.22519 l -8.2726,-7.609296 4.35421,-4.220119 c 4.834645,-4.685781 5.294876,-6.389759 2.379324,-8.809379 -1.691768,-1.403989 -2.598096,-0.978397 -6.322115,2.968754 -2.390987,2.534234 -4.733288,4.58374 -5.20512,4.554459 -0.471831,-0.02928 -3.366168,-2.255209 -6.431862,-4.9465 -5.31387,-4.66489 -5.683983,-4.793714 -7.930783,-2.76044 -2.28415,2.067062 -2.179709,2.293106 3.388769,7.334429 3.160071,2.860895 5.745568,5.598086 5.745568,6.082652 0,0.484566 -1.685738,2.800909 -3.746084,5.147446 -4.227305,4.814479 -4.711998,7.287654 -1.657916,8.45958 1.408714,0.540556 3.633014,-0.707188 6.83599,-3.834709 5.400204,-5.272998 3.9329,-5.78024 15.868908,5.485757 3.092317,2.918733 6.045904,5.306787 6.563538,5.306787 0.517633,0 1.337514,-1.248781 1.821957,-2.775063 z m 107.502207,-3.78038 c -0.3464,-0.858451 -0.62983,-0.156082 -0.62983,1.56082 0,1.716902 0.28343,2.41927 0.62983,1.56082 0.3464,-0.858451 0.3464,-2.263189 0,-3.12164 z M 126.38885,46.62569 c 0.34877,-2.376267 0.0525,-3.626708 -0.79255,-3.345024 -0.74225,0.247409 -1.26448,0.964899 -1.1605,1.594434 0.10397,0.629522 -0.2977,2.054039 -0.89259,3.165567 -0.59489,1.111541 -0.74206,2.360521 -0.32705,2.775537 1.34716,1.3471 2.60347,-0.312251 3.17269,-4.190514 z m 25.26203,-5.325354 c -0.41265,-1.07533 -1.56791,-2.268895 -2.56721,-2.652357 -1.36822,-0.52501 -1.26728,0.03768 0.40871,2.278472 2.44037,3.262737 3.32596,3.416135 2.1585,0.373885 z m -23.03369,-0.625839 c 0,-0.536198 1.82621,-1.743623 4.05826,-2.683174 3.78379,-1.592735 3.86324,-1.74446 1.17493,-2.243248 -1.92771,-0.357665 -3.94994,0.531616 -6.10158,2.683174 -2.50119,2.501108 -2.76298,3.218148 -1.17492,3.218148 1.12382,0 2.04331,-0.438702 2.04331,-0.9749 z m 15.60868,-4.019723 c -1.37356,-0.590214 -3.62121,-1.056612 -4.99478,-1.036421 -2.00764,0.02951 -1.88519,0.232761 0.62435,1.036421 4.2695,1.367291 7.55238,1.367291 4.37043,0 z"
     id="path2224"
     style="fill:#ffcd50" />
  <path
     d="m 137.64723,64.285433 c -1.37357,-0.590227 -1.795,-1.112628 -0.93652,-1.160901 0.85847,-0.04826 3.40084,1.695153 3.576,0.754667 0.48445,-2.601166 0.36782,-1.627606 0.38625,-2.671105 0.0248,-1.403669 0.61911,-2.567286 0.41666,-4.411513 -0.19109,-1.740714 -0.24234,-1.607069 0.22195,-1.746055 2.02427,-0.605974 -0.0632,1.374758 0.27066,5.667098 0.11492,3.513784 -0.0966,2.171381 -0.51455,3.315925 -0.89967,1.455658 -0.0329,1.707542 -3.42045,0.251884 z m -5.36939,-10.238978 c 1.09234,-2.09139 1.95102,-1.998102 3.49635,0.293659 0,1.653707 -1.69095,1.511685 -3.49635,-0.293659 z m 12.94242,0.380566 c -0.37998,-0.614801 0.14877,-1.44 1.175,-1.833784 1.13339,-0.434907 1.86587,0.0039 1.86587,1.117804 0,2.019564 -1.95123,2.478994 -3.04087,0.71598 z m -3.72193,-3.075859 c 0.43258,-1.127274 2.14929,-2.049594 3.8149,-2.049594 1.97347,0 3.42175,-0.978659 4.15769,-2.809475 0.94594,-2.353329 1.11863,-1.998549 1.0636,2.185147 -0.0361,2.747043 -0.31105,4.071642 -0.61093,2.943557 -0.57389,-2.158839 -4.53822,-1.880576 -7.62234,0.535036 -1.18576,0.928733 -1.38969,0.724353 -0.80292,-0.804671 z m -7.59719,-1.691317 c -3.82428,-0.919835 -4.99976,-2.629582 -1.32491,-1.927113 1.77918,0.340097 3.54067,1.113164 3.91444,1.717926 0.37379,0.604761 0.50596,1.034386 0.29373,0.954722 -0.21222,-0.07966 -1.50969,-0.415153 -2.88326,-0.745535 z"
     id="path2238"
     style="fill:#d40000;fill-opacity:1" />
  <path
     d="m 136.20621,66.892696 c -0.75684,0 1.40684,0.572096 2.14108,0.755656 0.77998,0.194978 1.06572,1.133474 2.14108,1.133474 0.29388,0 0.58775,0 0.88163,0"
     id="path2301"
     style="fill:#d40000;fill-opacity:1;fill-rule:evenodd;stroke:#d40000;stroke-width:0.5;stroke-linecap:butt;stroke-linejoin:miter;stroke-opacity:1" />
  <path
     d="m 249.55062,1.4395041 -248.101051,0 0,173.4965959 c -0.76723996,93.72088 80.28944,127.81975 124.050531,127.81975 42.99385,0 124.81775,-34.09887 124.05052,-127.81975 l 0,-173.4965959 z"
     id="Frame"
     style="fill:none;stroke:#000000;stroke-width:1.88832211;stroke-linejoin:bevel" />
</svg>
