<?xml version="1.0" encoding="UTF-8" standalone="no"?>
<!-- Created with Inkscape (http://www.inkscape.org/) -->
<svg
   xmlns:dc="http://purl.org/dc/elements/1.1/"
   xmlns:cc="http://web.resource.org/cc/"
   xmlns:rdf="http://www.w3.org/1999/02/22-rdf-syntax-ns#"
   xmlns:svg="http://www.w3.org/2000/svg"
   xmlns="http://www.w3.org/2000/svg"
   version="1.0"
   width="251"
   height="304.20001"
   id="svg4166">
  <defs
     id="defs4168" />
  <metadata
     id="metadata1880"><rdf:RDF><cc:Work
         rdf:about=""><dc:title>Borlange kommunvapen</dc:title><dc:date>28-03-2007</dc:date><dc:creator><cc:Agent><dc:title>Lokal_Profil</dc:title></cc:Agent></dc:creator><cc:license
         rdf:resource="http://creativecommons.org/licenses/by-sa/2.5/" /><dc:rights><cc:Agent><dc:title>cc-by-sa-2.5</dc:title></cc:Agent></dc:rights><dc:format>image/svg+xml</dc:format><dc:type
         rdf:resource="http://purl.org/dc/dcmitype/StillImage" /></cc:Work><cc:License
         rdf:about="http://creativecommons.org/licenses/by-sa/2.5/"><cc:permits
         rdf:resource="http://web.resource.org/cc/Reproduction" /><cc:permits
         rdf:resource="http://web.resource.org/cc/Distribution" /><cc:requires
         rdf:resource="http://web.resource.org/cc/Notice" /><cc:requires
         rdf:resource="http://web.resource.org/cc/Attribution" /><cc:permits
         rdf:resource="http://web.resource.org/cc/DerivativeWorks" /><cc:requires
         rdf:resource="http://web.resource.org/cc/ShareAlike" /></cc:License></rdf:RDF>
  </metadata>
  <path
     d="M 249.55058,1.4395041 L 1.4495291,1.4395041 L 1.4495291,174.9361 C 0.68228908,268.65698 81.738969,302.75585 125.50006,302.75585 C 168.49391,302.75585 250.31781,268.65698 249.55058,174.9361 L 249.55058,1.4395041 z "
     style="fill:#d40000;stroke:none"
     id="Shield" />
  <path
     d="M 52.719,1.4312632 C 91.21844,74.909823 153.53634,153.0748 242.1565,221.40001 C 246.95401,207.88004 249.70618,192.45183 249.56275,174.93126 L 249.56275,1.4312632 L 125.50025,1.4312632 L 52.719,1.4312632 z "
     style="fill:#003d8f;stroke:none"
     id="Upper-left-field" />
  <path
     d="M 1.423,1.3914862 L 1.423,48.281192 C 10.992644,52.923294 23.385168,60.322409 32.401466,70.694472 C 49.195105,90.013345 37.395912,100.26593 54.189549,119.58481 C 70.983198,138.90368 82.78512,128.64985 99.578785,147.96871 C 116.37243,167.28759 104.57323,177.54017 121.36686,196.85904 C 138.16051,216.17792 149.96244,205.92406 166.7561,225.24295 C 183.54975,244.56184 188.51294,274.13328 188.51293,274.13328 C 188.51293,274.13328 190.18522,277.46138 192.8893,282.04201 C 213.62418,269.00271 232.33225,249.29544 242.21727,221.46051 C 229.65515,204.36572 239.00681,194.20126 223.27383,176.10253 C 206.48018,156.78364 194.67824,167.03751 177.88459,147.71863 C 161.09095,128.39977 172.89017,118.14718 156.09651,98.828295 C 139.30286,79.509396 127.50091,89.763255 110.70727,70.444393 C 93.913608,51.125494 105.74408,40.872944 88.950452,21.554059 C 75.354056,5.9131982 65.009635,9.6489652 52.657819,1.3914862 L 1.423,1.3914862 z "
     style="fill:#eeeeee;stroke:none"
     id="Stream" />
  <g
     id="Mars-Symbol"
     style="fill:none;stroke:#eeeeee;stroke-width:8.6353035">
    <path
       d="M 237.69005,14.806392 L 210.88086,41.466914"
       id="path26867" />
    <path
       d="M 210.56599,85.997663 C 198.40153,98.094664 178.68672,98.1023 166.53173,86.014716 C 154.37673,73.927132 154.38441,54.321651 166.54887,42.22465 C 178.71334,30.127649 198.42815,30.120013 210.58314,42.207598 C 222.73813,54.295181 222.73046,73.900661 210.56599,85.997663 L 210.56599,85.997663 z "
       id="path26871" />
    <path
       d="M 214.53536,15.089533 C 237.37805,15.089533 237.37805,15.089533 237.37805,15.089533 L 237.37805,37.805551"
       id="path27759" />
  </g>
  <path
     d="M 72.838922,193.30056 L 83.884669,186.9233 L 136.24945,277.62175 L 125.2037,283.99901 L 72.838922,193.30056 z M 43.216995,227.49179 C 45.929929,220.14543 50.709406,210.64045 55.829072,202.41019 C 59.446886,196.59427 59.958028,195.31288 59.190458,193.98341 C 58.035038,191.98216 57.47421,187.93716 61.13546,186.59195 C 63.627035,185.6765 65.88479,186.43629 68.316439,190.02507 C 69.504593,191.77861 70.643915,193.32842 70.796994,193.24004 L 87.940711,183.34211 L 71.590856,155.02333 L 66.998124,157.67494 L 63.497129,151.61104 L 52.451382,157.9883 L 55.952377,164.05221 L 52.240407,166.17972 C 41.11611,172.55014 22.111694,177.99936 12.092665,177.69149 C 10.28789,177.63603 8.6520784,177.8865 8.4575194,178.24809 C 7.6677739,179.71589 13.290537,194.57476 18.908227,205.86541 C 21.966347,212.01173 31.944276,226.94429 35.733451,231.04537 C 40.04064,235.21344 39.786374,235.22722 43.216995,227.49179 z "
     style="fill:#eeeeee;stroke:none"
     id="Axe" />
  <path
     d="M 249.55062,1.4395041 L 1.449569,1.4395041 L 1.449569,174.9361 C 0.68232904,268.65698 81.739009,302.75585 125.5001,302.75585 C 168.49395,302.75585 250.31785,268.65698 249.55062,174.9361 L 249.55062,1.4395041 z "
     style="fill:none;fill-opacity:0;stroke:#000000;stroke-width:1.88832211;stroke-linejoin:bevel"
     id="Frame" />
</svg>
