<?xml version="1.0" encoding="UTF-8" standalone="no"?>
<!-- Created with Inkscape (http://www.inkscape.org/) -->

<svg
   xmlns:svg="http://www.w3.org/2000/svg"
   xmlns="http://www.w3.org/2000/svg"
   version="1.0"
   width="188.13559"
   height="223.66862"
   id="svg2">
  <defs
     id="defs4" />
  <g
     transform="translate(-279.329,-420.516)"
     id="layer4"
     style="display:inline">
    <path
       d="m 279.8125,421 0.43343,138.12801 c 3.77731,47.49715 44.55967,84.57287 93.60943,84.57288 49.04981,0 89.28523,-37.44033 93.0625,-84.9375 l 0.0426,-9.51011 0.0199,-4.42739 L 466.5625,421 l -186.75,0 z"
       id="rect2471"
       style="fill:#eeeeee;fill-opacity:1;stroke:#000000;stroke-width:0.96773499;stroke-miterlimit:4;stroke-opacity:1;stroke-dasharray:none" />
    <path
       d="m 296.875,604.40625 c 17.0345,23.78994 45.25828,39.28124 76.96875,39.28125 31.58898,2e-5 59.51298,-15.53826 76.40625,-39.28125 l -153.375,0 z"
       id="path3247"
       style="fill:#000000;fill-opacity:1;stroke:#000000;stroke-width:0.96773499;stroke-miterlimit:4;stroke-opacity:1;stroke-dasharray:none" />
  </g>
  <g
     transform="translate(-279.329,-420.516)"
     id="layer2">
    <path
       d="m 355.20654,595.33653 c 1.30538,-3.26343 1.30538,-33.86718 1.30538,-33.86718 0,0 11.38575,-1.88554 11.60331,-0.7252 0.21756,1.16033 3.26344,4.71384 2.24814,10.80558 -1.01529,6.09175 -3.48099,9.0651 -4.06116,13.34382 -0.58016,4.27872 -0.94277,12.40104 -0.94277,12.40104 0,0 -2.4657,2.17563 -5.58409,1.30538 -3.11839,-0.87025 -4.56881,-3.19092 -4.56881,-3.26344 z"
       id="path3260"
       style="fill:#ffcd50;fill-rule:evenodd;stroke:#000000;stroke-width:1px;stroke-linecap:butt;stroke-linejoin:miter;stroke-opacity:1" />
    <path
       d="m 376.09251,560.30902 c 1.3779,2.75579 10.51551,20.16076 11.60332,24.1494 1.08781,3.98864 2.03058,8.84753 1.66798,10.37047 -0.36261,1.52293 0.32928,2.7948 1.77969,1.77951 1.45042,-1.01529 7.57548,-3.73757 7.79304,-5.04294 0.21757,-1.30538 -3.62603,-6.01922 -4.27872,-10.80559 -0.65269,-4.78637 0.0725,-13.19878 -1.59546,-17.25994 -1.66797,-4.06116 -4.49628,-9.21013 -6.09174,-9.57273 -1.59545,-0.36261 -10.87811,6.38182 -10.87811,6.38182 z"
       id="path3262"
       style="fill:#ffcd50;fill-rule:evenodd;stroke:#000000;stroke-width:1px;stroke-linecap:butt;stroke-linejoin:miter;stroke-opacity:1" />
  </g>
  <g
     transform="translate(-279.329,-420.516)"
     id="layer5"
     style="display:inline">
    <path
       d="m 303.78244,604.00103 c 7.46272,-5.6497 7.10358,-12.53572 7.10358,-12.53572 l 12.95358,0 c 0,0 -0.92896,2.16181 1.16033,5.08681 2.08929,2.925 5.52539,1.18105 6.3611,4.10605 0.83572,2.92501 1.3261,3.52589 1.3261,3.52589 l -28.90469,-0.18303 z"
       id="path3253"
       style="fill:#000000;fill-rule:evenodd;stroke:#000000;stroke-width:1px;stroke-linecap:butt;stroke-linejoin:miter;stroke-opacity:1" />
    <path
       d="m 326.66008,591.35564 -18.11114,0 c 0,0 -3.21765,-3.14706 -3.21765,-5.66445 0,-2.5174 3.21765,-5.66446 3.21765,-5.66446 l 18.11114,0 c 0,0 3.43523,3.14705 3.43523,5.66446 0,2.5174 -3.43523,5.66445 -3.43523,5.66445 z"
       id="path3255"
       style="fill:#d40000;fill-opacity:1;stroke:none" />
  </g>
  <g
     transform="translate(-279.329,-420.516)"
     id="layer10">
    <path
       d="m 355.49662,467.40996 c 4.78637,1.30538 5.07646,0.72521 6.96199,-2.4657 1.88554,-3.19091 4.78637,-4.35124 2.32067,-5.36653 -2.46571,-1.0153 -8.26737,-3.91612 -8.55745,-2.90083 -0.29008,1.01529 -1.59545,2.90083 -1.01529,5.07645 0.58017,2.17562 0.29008,5.65661 0.29008,5.65661 z"
       id="path3300"
       style="fill:#ffcd50;fill-rule:evenodd;stroke:#000000;stroke-width:1px;stroke-linecap:butt;stroke-linejoin:miter;stroke-opacity:1;display:inline" />
  </g>
  <g
     transform="translate(-279.329,-420.516)"
     id="layer11">
    <path
       d="m 330.11437,444.34837 c 0,0 100.80382,28.71821 100.94886,30.16863 0.14504,1.45041 -1.30538,7.25207 -3.19092,6.52686 -1.88553,-0.72521 -99.49844,-32.05416 -100.80381,-32.63433 -1.30538,-0.58016 -0.43513,-5.07645 3.04587,-4.06116 z"
       id="path3272"
       style="fill:#000000;fill-rule:evenodd;stroke:#000000;stroke-width:1px;stroke-linecap:butt;stroke-linejoin:miter;stroke-opacity:1" />
    <path
       d="m 418.44462,458.70748 c -8.12232,24.65705 -9.86282,25.38225 -9.28265,26.83267 0.58016,1.45041 9.86282,7.54215 11.45827,6.52686 1.59546,-1.01529 11.8934,-26.83267 11.45828,-27.84796 -0.43513,-1.01529 2.17562,-1.7405 -1.59546,-2.90083 -3.77108,-1.16033 -11.31323,-5.22149 -12.03844,-2.61074 z"
       id="path3270"
       style="fill:#003d8f;fill-rule:evenodd;stroke:#000000;stroke-width:1px;stroke-linecap:butt;stroke-linejoin:miter;stroke-opacity:1" />
  </g>
  <g
     transform="translate(-279.329,-420.516)"
     id="layer6">
    <path
       d="m 339.97719,604.40163 c 0,0 -0.79773,-2.24815 0.79773,-2.39319 1.59545,-0.14504 8.775,0.58017 11.38575,-3.48099 2.61075,-4.06116 2.24814,-3.40848 3.33595,-2.39319 1.08782,1.01529 8.41241,2.17562 10.15291,0.72521 1.74049,-1.45042 1.52293,1.88554 1.59545,3.91612 0.0725,2.03058 0,3.40847 0,3.40847 l -27.26779,0.21757 z"
       id="path3258"
       style="fill:#000000;fill-rule:evenodd;stroke:#000000;stroke-width:1px;stroke-linecap:butt;stroke-linejoin:miter;stroke-opacity:1;display:inline" />
    <path
       d="m 378.46339,604.42953 c 0.0725,-0.94277 -1.71819,-1.04319 2.92314,-2.20353 4.64132,-1.16033 4.2062,-0.21756 5.65661,-2.61074 1.45042,-2.39319 1.45042,-5.51158 2.1031,-4.78637 0.65269,0.72521 2.57343,1.62713 5.47426,0.0317 2.90083,-1.59545 3.2303,-2.09209 3.72674,-2.92332 0.67037,-1.12244 1.25309,-2.05656 2.12334,-0.82371 0.87025,1.23286 5.57299,5.45586 2.96225,7.26887 -2.61075,1.81302 -9.06509,5.36654 -9.35518,5.80166 -0.29008,0.43513 -15.61426,0.10043 -15.61426,0.24547 z"
       id="path3264"
       style="fill:#000000;fill-rule:evenodd;stroke:#000000;stroke-width:1px;stroke-linecap:butt;stroke-linejoin:miter;stroke-opacity:1;display:inline" />
  </g>
  <g
     transform="translate(-279.329,-420.516)"
     id="layer9"
     style="display:inline">
    <path
       d="m 338.52677,461.02814 c 1.7405,-4.93141 -0.36266,-5.72387 1.45041,-8.70249 2.03059,-3.33595 2.61075,-6.09174 5.65663,-5.65661 3.04587,0.43512 8.12232,3.04587 8.12232,4.2062 0,1.16033 -2.46571,0.87025 -2.75579,3.62603 -0.29008,2.75579 4.35124,1.45042 0,4.06116 -3.11923,1.87154 -4.93141,1.7405 -5.9467,3.33596 -1.01529,1.59545 -6.52687,-1.16033 -6.52687,-0.87025 z"
       id="path3298"
       style="fill:#ffcd50;fill-rule:evenodd;stroke:#000000;stroke-width:1px;stroke-linecap:butt;stroke-linejoin:miter;stroke-opacity:1" />
    <path
       d="m 356.65696,451.16532 c 0.14504,2.4657 -0.11846,1.06849 0.58016,2.46571 0.43513,0.87024 7.54216,2.75578 7.97728,1.74049 0.43513,-1.01529 0,-2.75579 -0.87025,-3.04587 -0.87024,-0.29008 -7.68719,-2.32066 -7.68719,-1.16033 z"
       id="path3302"
       style="fill:#ffcd50;fill-rule:evenodd;stroke:#000000;stroke-width:1px;stroke-linecap:butt;stroke-linejoin:miter;stroke-opacity:1" />
  </g>
  <g
     transform="translate(-279.329,-420.516)"
     id="layer8">
    <path
       d="m 354.62638,494.67776 c -3.62604,-1.16033 -6.96199,0.43512 -5.80166,-5.51158 1.16033,-5.9467 2.32066,-20.45084 4.2062,-21.46613 1.88554,-1.01529 3.33595,-1.01529 5.36653,-0.43513 2.03058,0.58017 4.20621,0.72521 3.481,3.481 -0.72521,2.75579 -0.43513,16.38968 -1.30538,18.13018 -0.87025,1.7405 -1.59545,5.9467 -3.48099,6.09174 -1.88554,0.14504 -2.61075,-0.43512 -2.4657,-0.29008 z"
       id="path3290"
       style="fill:#003d8f;fill-rule:evenodd;stroke:#000000;stroke-width:1px;stroke-linecap:butt;stroke-linejoin:miter;stroke-opacity:1" />
    <path
       d="m 354.48133,511.64761 c -0.43512,-7.6872 -1.88553,-6.52687 0.87025,-12.47357 2.75579,-5.9467 4.06116,-9.71777 4.20621,-10.73306 0.14504,-1.01529 -4.78637,-2.17563 -7.25208,-2.17563 -2.4657,0 -4.49628,1.7405 -7.54215,-1.01529 -3.04587,-2.75578 -7.54216,-4.2062 -7.39712,-12.76364 0.14504,-8.55745 -1.88554,-8.41241 0.14504,-9.86282 2.03058,-1.45042 6.67191,-3.62604 7.54216,-1.01529 0.87025,2.61074 0.58017,7.39711 2.03058,9.57273 1.45041,2.17562 -0.43512,3.19091 1.88554,3.19091 2.32066,0 14.21406,-0.29008 16.96985,-0.43512 2.75579,-0.14504 2.4657,-3.91612 6.52687,-3.481 4.06116,0.43513 3.91612,1.45042 6.23678,0.87025 2.32066,-0.58016 3.33595,-2.75578 4.2062,-1.30537 0.87025,1.45042 5.51158,9.57274 3.04587,21.03101 -2.4657,11.45828 -4.35124,19.29052 -4.35124,19.29052 l -27.12276,1.30537 z"
       id="path3294"
       style="fill:#003d8f;fill-rule:evenodd;stroke:#000000;stroke-width:1px;stroke-linecap:butt;stroke-linejoin:miter;stroke-opacity:1" />
    <path
       d="m 364.19912,495.11289 c 3.48099,-8.55745 -9.4277,-8.84754 -11.89341,-8.84754 -2.4657,0 -4.49628,1.7405 -7.54215,-1.01529 -3.04587,-2.75578 -7.54216,-4.2062 -7.39712,-12.76364"
       id="path3296"
       style="fill:none;stroke:#000000;stroke-width:1px;stroke-linecap:butt;stroke-linejoin:miter;stroke-opacity:1" />
  </g>
  <g
     transform="translate(-279.329,-420.516)"
     id="layer12">
    <path
       d="m 353.9739,511.40293 c 0,5.51158 0.0723,26.64223 -0.6529,29.83314 -0.7252,3.19091 -4.2062,15.66448 -2.75579,17.69506 1.45042,2.03058 -0.58016,4.49628 2.90083,3.62603 3.481,-0.87025 13.92398,1.01529 15.51944,-1.45041 1.59546,-2.46571 0.87025,-4.49629 2.17562,-3.19091 1.30538,1.30537 1.16033,4.06116 4.20621,2.4657 3.04587,-1.59545 13.34381,-4.64133 11.8934,-7.39711 -1.45042,-2.75579 -3.91612,-2.32067 -3.19092,-4.93141 0.72521,-2.61075 0.29009,-3.62604 -1.16033,-7.83224 -1.45041,-4.2062 -1.01529,-8.70249 0.14504,-11.60332 1.16033,-2.90083 0.19487,-18.16903 -1.45482,-18.56972 -2.38857,-0.58016 -26.75553,0.48495 -27.62578,1.35519 z"
       id="path3266"
       style="fill:#000000;fill-rule:evenodd;stroke:#000000;stroke-width:1px;stroke-linecap:butt;stroke-linejoin:miter;stroke-opacity:1;display:inline" />
    <path
       d="m 353.81961,512.03292 c -1.01529,8.70249 -2.38415,21.51595 -4.70481,25.57711 -2.32066,4.06116 -8.84753,7.83224 -4.64133,11.8934 4.20621,4.06116 11.8934,6.38183 16.38969,4.49629 4.49628,-1.88554 10.00786,0.14504 11.16819,-5.2215 1.16033,-5.36653 1.7405,-16.96985 2.03058,-22.62646 0.29008,-5.65662 5.22149,-14.21407 2.03058,-14.93927 -3.19091,-0.72521 -17.03817,0.96547 -22.2729,0.82043 z"
       id="path3268"
       style="fill:#000000;fill-rule:evenodd;stroke:#eeeeee;stroke-width:1px;stroke-linecap:butt;stroke-linejoin:miter;stroke-opacity:1;display:inline" />
  </g>
  <g
     transform="translate(-279.329,-420.516)"
     id="layer7"
     style="display:inline">
    <path
       d="m 372.32143,470.60088 c -0.87024,-4.35125 -2.17562,-4.49629 0.43513,-6.52687 2.61075,-2.03058 4.2062,-1.45041 5.07645,-3.04587 0.87025,-1.59546 3.19091,-2.03058 2.75579,-0.58017 -0.43513,1.45042 2.17562,7.10704 2.03058,8.26737 -0.14504,1.16033 0.29008,5.07645 -2.75579,4.2062 -3.04587,-0.87025 -7.97728,-1.88554 -7.54216,-2.32066 z"
       id="path3304"
       style="fill:#ffcd50;fill-rule:evenodd;stroke:#000000;stroke-width:1px;stroke-linecap:butt;stroke-linejoin:miter;stroke-opacity:1" />
    <path
       d="m 371.45119,466.10459 c -3.19092,0.14504 -5.51158,0.72521 -5.2215,-1.59546 0.29009,-2.32066 0.72521,-4.9314 0.14504,-6.6719 -0.58016,-1.7405 -3.77107,-1.30538 -1.59545,-3.62604 2.17562,-2.32066 3.48099,-2.61075 3.62603,-4.06116 0.14505,-1.45041 1.0153,-4.06116 3.04588,-5.65662 2.03058,-1.59545 1.59545,-2.17562 2.90082,-1.59545 1.30538,0.58016 8.41241,4.35124 5.80166,6.52686 -2.61074,2.17562 -1.74049,7.6872 -1.16033,9.13761 0.58017,1.45042 2.46571,1.7405 0.58017,2.75579 -1.88554,1.01529 -7.25208,3.04587 -8.12232,4.78637 z"
       id="path3306"
       style="fill:#ffcd50;fill-rule:evenodd;stroke:#000000;stroke-width:1px;stroke-linecap:butt;stroke-linejoin:miter;stroke-opacity:1" />
    <path
       d="m 368.43782,449.80493 c 1.88554,0.7252 2.54824,1.61047 2.54824,1.61047 0,0 -0.71521,0.97527 -1.55921,0.81898 -1.21851,-0.22564 -1.53418,0.20255 -1.67923,-0.37761 -0.14504,-0.58017 0.98028,-1.9068 0.6902,-2.05184 z"
       id="path3343"
       style="fill:#eeeeee;fill-rule:evenodd;stroke:#000000;stroke-width:1px;stroke-linecap:butt;stroke-linejoin:miter;stroke-opacity:1" />
  </g>
  <g
     transform="translate(-279.329,-420.516)"
     id="layer3">
    <path
       d="m 380.5888,461.89839 c -0.14504,2.03058 -2.46571,2.4657 0.87025,2.4657 3.33595,0 7.54215,-0.43512 8.26736,-2.32066 0.72521,-1.88554 1.59546,-3.19091 0.43512,-4.06116 -1.16033,-0.87025 -3.33595,-1.01529 -3.91612,0 -0.58016,1.01529 -5.65661,4.06116 -5.65661,3.91612 z"
       id="path3276"
       style="fill:#d40000;fill-rule:evenodd;stroke:#000000;stroke-width:1px;stroke-linecap:butt;stroke-linejoin:miter;stroke-opacity:1;display:inline" />
    <path
       d="m 372.46648,443.33308 c 2.75578,-2.4657 -1.30538,-3.19091 4.06116,-2.17562 5.36653,1.01529 11.02315,2.61075 11.45827,5.36653 0.43513,2.75579 2.46571,8.12233 0.43513,9.86282 -2.03058,1.7405 -7.25208,6.67191 -8.70249,5.07645 -1.45042,-1.59545 -1.7405,-5.9467 -3.19091,-8.12232 -1.45042,-2.17562 1.16033,-2.17562 0.87025,-4.64132 -0.29009,-2.46571 -0.29009,-3.481 -1.7405,-4.20621 -1.45042,-0.7252 -3.04587,-1.45041 -3.19091,-1.16033 z"
       id="path3274"
       style="fill:#d40000;fill-rule:evenodd;stroke:#000000;stroke-width:1px;stroke-linecap:butt;stroke-linejoin:miter;stroke-opacity:1;display:inline" />
  </g>
</svg>
