<?xml version="1.0" encoding="UTF-8" standalone="no"?>
<!-- Created with Inkscape (http://www.inkscape.org/) -->
<svg
   xmlns:dc="http://purl.org/dc/elements/1.1/"
   xmlns:cc="http://web.resource.org/cc/"
   xmlns:xlink="http://www.w3.org/1999/xlink"
   xmlns:rdf="http://www.w3.org/1999/02/22-rdf-syntax-ns#"
   xmlns:svg="http://www.w3.org/2000/svg"
   xmlns="http://www.w3.org/2000/svg"
   version="1.0"
   width="251"
   height="304.20001"
   id="svg4166">
<metadata
   id="metadata1880"><rdf:RDF><cc:Work
         rdf:about=""><dc:title>Hedemora kommunvapen</dc:title><dc:date>20-05-2007</dc:date><dc:creator><cc:Agent><dc:title>Lokal_Profil</dc:title></cc:Agent></dc:creator><cc:license
         rdf:resource="http://creativecommons.org/licenses/by-sa/2.5/" /><dc:rights><cc:Agent><dc:title>cc-by-sa-2.5</dc:title></cc:Agent></dc:rights><dc:format>image/svg+xml</dc:format><dc:type
         rdf:resource="http://purl.org/dc/dcmitype/StillImage" /></cc:Work><cc:License
         rdf:about="http://creativecommons.org/licenses/by-sa/2.5/"><cc:permits
         rdf:resource="http://web.resource.org/cc/Reproduction" /><cc:permits
         rdf:resource="http://web.resource.org/cc/Distribution" /><cc:requires
         rdf:resource="http://web.resource.org/cc/Notice" /><cc:requires
         rdf:resource="http://web.resource.org/cc/Attribution" /><cc:permits
         rdf:resource="http://web.resource.org/cc/DerivativeWorks" /><cc:requires
         rdf:resource="http://web.resource.org/cc/ShareAlike" /></cc:License></rdf:RDF>
</metadata>
  <defs
     id="defs4168" />
  <path
     d="M 249.55058,1.4395041 L 125.50008,1.4395041 L 1.4495291,1.4395041 L 1.4495291,174.9361 C 0.68228908,268.65698 81.738969,302.75585 125.50006,302.75585 C 168.49391,302.75585 250.31781,268.65698 249.55058,174.9361 L 249.55058,1.4395041 z "
     style="color:#000000;fill:#eeeeee;fill-opacity:1;fill-rule:nonzero;stroke:none;stroke-width:1.88832211;stroke-linecap:round;stroke-linejoin:bevel;marker:none;marker-start:none;marker-mid:none;marker-end:none;stroke-miterlimit:4;stroke-dashoffset:0;stroke-opacity:1;visibility:visible;display:block"
     id="Shield" />
  <path
     d="M 249.55062,1.4395041 L 125.50012,1.4395041 L 1.449569,1.4395041 L 1.449569,174.9361 C 0.68232904,268.65698 81.739009,302.75585 125.5001,302.75585 C 168.49395,302.75585 250.31785,268.65698 249.55062,174.9361 L 249.55062,1.4395041 z "
     style="color:#000000;fill:none;fill-opacity:0;fill-rule:nonzero;stroke:#000000;stroke-width:1.88832211;stroke-linecap:round;stroke-linejoin:bevel;marker:none;marker-start:none;marker-mid:none;marker-end:none;stroke-miterlimit:4;stroke-dashoffset:0;stroke-opacity:1;visibility:visible;display:block"
     id="Frame" />
  <g
     transform="matrix(0.440882,0,0,0.440882,210.2451,61.06982)"
     id="Gran">
    <path
       d="M -219.86513,331.1238 C -212.77407,395.011 -222.22845,459.26966 -233.12034,477.61306 L -148.54551,477.61306 C -162.60968,460.35081 -173.95243,390.55001 -164.79941,331.61336"
       style="fill:#225500;fill-opacity:1;fill-rule:evenodd;stroke:none;stroke-width:3;stroke-linecap:butt;stroke-linejoin:miter;stroke-miterlimit:4;stroke-dasharray:none;stroke-opacity:1"
       id="path2884" />
    <path
       d="M -183.99354,-98.168766 C -198.77918,-71.397756 -207.87727,-41.186397 -233.8479,-21.869977 C -233.12098,-9.2331076 -207.75971,-25.47516 -207.99115,-24.830065 C -214.50381,-6.677134 -236.78644,26.403608 -264.05794,36.185889 C -258.32364,49.601319 -242.4484,54.889769 -230.3248,44.225527 L -240.84622,57.803457 C -233.62542,61.532413 -225.65637,57.36564 -217.53025,51.541232 C -242.7821,95.266122 -276.09794,97.273915 -305.90906,105.75825 C -285.30095,136.95561 -273.35493,119.83788 -258.62116,118.26949 C -260.69064,124.68773 -265.39622,129.25149 -272.95315,131.80925 C -264.2023,144.11767 -234.05032,123.41921 -214.37748,118.88274 C -258.40648,152.66091 -302.92182,173.21994 -346.30506,162.02262 C -343.1903,174.3746 -345.966,183.06958 -333.48086,191.43806 C -319.75321,200.63932 -286.50728,190.83082 -286.50728,190.83082 L -313.28696,206.10008 C -307.61256,211.73312 -303.0492,220.09261 -291.1708,219.77457 C -270.77984,219.22865 -256.39661,208.60851 -238.767,202.09146 C -286.23427,250.38922 -394.39811,237.13581 -395.98556,232.69111 C -388.74722,247.23039 -394.20315,253.73716 -367.9582,272.57644 C -346.02962,288.31731 -313.83545,269.94191 -313.84366,269.9448 C -310.8833,271.50674 -341.86555,288.24433 -350.60182,290.74698 C -357.90592,292.83934 -338.65104,309.49512 -328.24493,309.074 C -303.40258,308.0687 -280.59477,297.32162 -259.93508,290.49104 C -311.89868,329.75276 -386.07479,330.92179 -441.71701,295.35358 C -438.99293,317.03381 -439.83452,334.62495 -414.32953,363.81887 C -396.56366,384.15431 -343.38882,349.87318 -345.5775,356.22456 C -359.35035,365.42429 -370.20783,375.64949 -391.63767,382.15586 C -350.06019,421.99886 -332.38579,386.17033 -307.74879,372.38374 L -334.72313,405.91555 C -308.95755,411.9038 -298.34246,427.30859 -260.43765,366.35858 L -271.75593,396.14348 C -250.95522,391.9023 -230.15447,372.63473 -209.35376,343.32274 L -191.63984,358.39612 L -173.92589,345.13239 C -153.04016,363.57856 -147.97141,394.543 -107.62999,397.59118 L -120.32019,371.29798 C -91.654818,407.99712 -68.760939,417.34728 -50.150441,401.93434 L -70.608198,377.08885 C -56.667034,385.39106 -39.264926,401.62758 -28.784743,401.93434 C -7.5113346,399.10214 -4.6338933,391.72619 4.3632418,379.2604 C -7.2529081,377.08552 -20.907232,369.89968 -27.634831,359.84387 C -16.264213,359.5873 9.3472682,375.23165 27.221846,367.80629 C 35.945148,364.18251 50.10939,356.43552 57.282995,298.57111 C 8.5384388,328.3706 -45.468213,342.68931 -124.09297,284.58349 C -93.921017,292.32664 -56.295288,325.23982 -38.489196,291.22585 C -58.622739,286.63416 -64.295266,280.34693 -68.20735,273.85326 C -51.751007,276.86948 -34.982257,282.54274 -19.80845,276.75936 C -4.9350161,271.09045 3.2951612,256.51386 10.53684,237.55365 C -13.158746,236.18992 -66.681569,257.10706 -143.86474,203.42564 C -126.56609,208.69589 -107.01096,221.70567 -91.973934,219.22291 C -76.989542,216.74886 -78.539989,209.77505 -73.917025,205.23529 C -79.061715,204.61017 -84.206368,200.05163 -89.351058,193.65352 C -78.187436,195.81547 -67.023776,201.56243 -55.860154,199.44439 C -40.034995,187.53707 -42.751772,176.93414 -39.518142,165.91258 C -102.68297,171.99933 -146.20104,135.82187 -147.51656,124.18405 C -133.45691,128.92523 -115.61547,147.9191 -107.28704,131.06071 C -111.39502,132.91854 -122.82431,119.86011 -120.66318,118.88274 C -120.66318,124.16605 -70.295605,131.67926 -67.521399,105.25707 C -51.706511,104.56367 -143.38635,112.02617 -157.11995,47.731263 C -148.22737,53.554761 -141.55735,54.687554 -136.31924,52.798274 L -141.63985,41.641705 C -119.20236,51.263661 -114.70078,36.396648 -111.64854,32.901236 C -139.67129,17.388733 -153.93239,-1.8945777 -166.15214,-25.814836 C -157.42156,-24.011987 -149.44265,-11.897744 -139.89107,-21.35811 C -159.04567,-41.87014 -172.56077,-68.829203 -183.99354,-98.168766 z "
       style="fill:#225500;fill-opacity:1;fill-rule:evenodd;stroke:none;stroke-width:1.00000012;stroke-linecap:butt;stroke-linejoin:miter;stroke-miterlimit:4;stroke-dasharray:none;stroke-opacity:1"
       id="path2886" />
  </g>
</svg>
