<?xml version="1.0" encoding="UTF-8" standalone="no"?>
<!-- Created with Inkscape (http://www.inkscape.org/) -->

<svg
   xmlns:svg="http://www.w3.org/2000/svg"
   xmlns="http://www.w3.org/2000/svg"
   xmlns:xlink="http://www.w3.org/1999/xlink"
   version="1.0"
   width="251"
   height="304.20001"
   id="svg4166">
  <defs
     id="defs4168">
    <clipPath
       id="clipPath2932">
      <path
         d="m 244.21234,144.23424 0,36.78371 c 0.74547,91.06245 -78.01198,124.1941 -120.53176,124.1941 -41.774317,0 -121.2772209,-33.13165 -120.5317569,-124.1941 l 0,-36.93552 241.0635169,0.15181 z"
         id="path2934"
         style="fill:#003d8f" />
    </clipPath>
  </defs>
  <path
     d="m 249.55058,1.4395041 -248.1010509,0 0,173.4965959 C 0.68228908,268.65698 81.738969,302.75585 125.50006,302.75585 c 42.99385,0 124.81775,-34.09887 124.05052,-127.81975 l 0,-173.4965959 z"
     id="Shield"
     style="fill:#eeeeee" />
  <path
     d="m 248.13682,139.54856 0,36.86376 C 248.90159,269.83311 168.10448,303.8228 124.48353,303.8228 81.627339,303.8228 0.06546872,269.83311 0.83023872,176.41232 l 0,-37.0195 247.30658128,0.15574 z"
     id="Division"
     style="fill:#003d8f" />
  <g
     transform="matrix(0.41293332,0,0,0.33549777,17.432375,-10.665228)"
     id="Horse"
     style="fill:#000000;stroke:#eeeeee;stroke-width:2">
    <g
       transform="matrix(0.56064398,0.82805696,-0.82805696,0.56064398,136.77419,-190.40163)"
       id="Hoofs">
      <path
         d="m 572.7801,263.55523 6.31499,-3.9335 -22.15181,-34.68399 -5.72297,3.56473"
         id="path2919" />
      <path
         d="m 548.35882,262.60612 c 6.597,1.02666 14.87624,1.89567 24.42128,0.94911 -6.80438,-10.4843 -16.09059,-25.72264 -21.68271,-35.2501 -5.46668,5.18549 -6.95887,5.978 -9.2785,7.97067"
         id="path2921" />
      <path
         d="m 693.57955,89.486452 7.07118,-2.312986 -13.2356,-38.967941 -6.40827,2.096133"
         id="path5147" />
      <path
         d="m 670.09021,82.737351 c 6.16145,2.571178 13.99416,5.390684 23.48934,6.749101 -4.10606,-11.805102 -9.48784,-28.819127 -12.64497,-39.405763 -6.54612,3.731234 -8.18432,4.144789 -10.91243,5.526385"
         id="path5145" />
      <path
         d="m 605.83356,206.87779 6.37126,3.84168 20.85112,-35.48116 -5.77396,-3.48153"
         id="path2339" />
      <path
         d="m 595.59479,184.68618 c 2.07948,6.34432 5.06296,14.11605 10.23877,22.19161 6.25372,-10.82179 15.61712,-26.01282 21.56847,-35.32011 -7.10183,-2.51751 -8.48529,-3.48744 -11.31372,-4.64992"
         id="path2341" />
      <path
         d="m 451.52551,434.09178 5.8797,4.55858 24.84721,-32.80698 -5.32847,-4.13122"
         id="path2924" />
      <path
         d="m 443.94499,410.85742 c 1.3253,6.54355 3.38195,14.61022 7.58052,23.23436 7.47326,-10.01851 18.54458,-24.01374 25.54089,-32.56336 -6.75972,-3.32867 -8.02061,-4.45333 -10.69415,-5.93778"
         id="path2926" />
    </g>
    <g
       transform="matrix(0.97111294,-0.23862038,0.23862038,0.97111294,-302.40424,117.84461)"
       id="g2917" />
    <path
       d="m 196.88524,294.87565 c 14.14821,16.41069 30.72153,44.7594 45.22661,64.53536 6.71274,2.65012 8.82833,7.82576 14.66438,14.85738 -6.86542,-1.4205 -18.92945,7.26842 -6.00803,17.94306 -11.31521,3.74574 -16.08204,3.65018 -23.92407,19.26951 -3.67466,-9.4955 -4.73945,-15.12854 -6.5072,-37.63167 -9.78971,-16.69475 -29.2658,-35.24356 -34.08812,-37.67468 -28.19549,-14.2144 -36.58019,-35.50076 -49.51581,-71.2548"
       id="path2923" />
    <path
       d="M 77.066598,67.312048 C 70.244174,65.43435 57.889725,66.69352 52.207152,65.531054 c -0.885459,1.647075 -1.185983,4.922093 15.024187,8.349979"
       id="path5119" />
    <g
       id="Mane-tail">
      <path
         d="m 386.92034,188.35915 c 36.7367,8.08326 86.90548,57.52485 107.60965,15.79999 -9.69637,10.1119 -14.31594,8.36799 -23.68926,7.75179 33.93732,-16.60201 9.63492,-40.56207 14.65231,-60.96378 -4.02658,-1.17861 -6.17059,1.2485 -8.81091,4.73054 -11.5504,-20.17954 -28.99385,-20.22617 -40.91644,-39.00606 -1.48179,5.88816 -1.44072,2.75798 -0.53671,11.48652 -27.39349,-11.45633 -28.30936,-36.438988 -28.45205,-50.893592 -19.01743,15.31822 -13.7104,32.488832 -4.37946,59.211592 -11.1907,-7.55548 -13.5254,-16.74236 -15.9983,-29.28694 -13.4842,55.28594 49.70886,57.74487 56.90136,72.58147 -2.33554,18.65712 -43.46338,4.74757 -65.58177,0.64043"
         id="path5115" />
      <path
         d="M 217.01267,181.168 C 185.27,45.43136 110.91185,53.690528 63.020651,87.383221 55.327487,87.042446 61.098977,86.756204 51.944309,83.834596 66.261151,63.416036 98.557842,57.344559 112.01888,53.910412 c 0.81089,2.251825 0.74391,-0.550535 1.44159,4.003247 5.48172,-2.20972 9.6502,-3.73836 17.43738,-4.029416 0.0357,2.274758 -1.31988,3.041733 -2.96053,5.954035 10.97723,-7.739705 45.26506,10.590917 56.58536,15.664659 -5.29741,0.965645 -3.54268,1.710938 -8.47297,2.252242 7.06211,2.045232 11.92095,11.381454 21.4723,13.166703 -3.44424,1.807084 1.34513,1.905745 -5.4499,3.515201 7.9738,3.278056 11.6727,12.991927 18.04799,14.217047 -1.80272,2.22924 -3.62059,3.40445 -9.31411,4.48465 19.20151,1.85732 13.57859,36.66853 36.80971,57.7637 -11.15544,1.5054 -9.11155,8.37983 -20.22652,10.08299"
         id="path5117" />
    </g>
    <path
       d="m 295.03486,268.38236 c 4.72447,13.15761 4.21945,23.30851 11.87371,28.9533 26.42935,19.49086 44.61899,15.30929 59.77345,43.72898 2.59189,4.86066 -8.38882,26.4269 -18.82142,42.72763 -19.24929,11.78903 -23.78537,15.29457 -30.57855,22.87879 17.47714,-0.10168 19.55559,4.18923 28.02909,12.57161 3.64689,-16.35881 16.86493,-9.55283 18.71529,-2.79057 3.61669,-8.39184 7.26826,-12.6261 6.58286,-19.81041 11.03791,-21.90091 29.67758,-47.76571 37.56877,-67.79322 1.85228,-4.70102 -2.04114,-6.86254 -6.20774,-13.47703 -11.9372,-2.03983 -22.65818,-9.32779 -23.37585,-14.86499 -1.9507,-15.05066 18.08611,-38.65974 20.08174,-47.0078 l -103.64135,14.88371 z"
       id="path2343" />
    <path
       d="m 78.303987,147.72869 c -2.373473,5.4099 -4.842964,12.25599 -10.916735,20.2832 3.82701,3.41069 4.949867,3.12314 7.461423,3.85392"
       id="path5155" />
    <path
       d="m 302.00739,284.80033 c 6.06149,1.45596 8.10521,5.70347 15.29433,9.52196 8.6222,-7.13914 15.99279,-9.51647 23.81854,-12.05771 -3.58576,-5.23472 -7.17171,-12.44696 -7.17171,-12.44696"
       id="path6128" />
    <path
       d="m 422.4393,328.62566 c -23.98916,-20.53181 -42.9908,-16.12534 -73.92419,-27.14938 -8.95868,-3.19269 -11.40788,-13.05663 -19.73223,-24.28822 -65.95531,27.75338 -90.35506,24.8591 -175.3491,22.05687 -23.21088,-8.51764 -44.6498,-9.19561 -56.427422,-50.53953 0.682688,-29.59587 0.927288,-35.89943 10.357172,-51.73104 0.95871,-2.98912 4.85999,-7.54818 9.40096,-10.28155 1.95734,-16.89132 11.2612,-39.57758 -1.57161,-57.28377 -6.92016,6.56925 -18.52483,9.47434 -18.52483,9.47434 0,0 -3.074983,5.86993 -8.407543,12.78667 1.185276,7.53249 2.982937,11.50968 -1.617967,17.47582 -1.393078,1.80647 -8.128202,8.02263 -12.529279,9.13367 -1.196952,0.30218 -4.219485,-1.06824 -4.257555,-2.67817 -0.08381,-3.5449 5.48123,-7.15422 6.570055,-11.31557 1.359694,-5.1965 -1.038559,-14.78201 5.327242,-22.16993 -9.41682,3.44727 -15.208103,12.93384 -23.101791,23.09932 -1.409708,1.81542 0.907025,4.83015 0.408341,8.31192 -0.496383,3.46567 -5.135895,6.62785 -8.888226,4.06172 -3.765505,-3.11692 -6.425914,-4.55523 -7.452038,-12.36553 -3.307875,-6.43308 -8.725464,-3.99638 -4.133867,-15.99636 7.043593,-18.40818 15.764873,-40.51993 23.363138,-60.461528 1.10587,-2.902344 10.229858,-11.683481 17.423797,-14.524096 0.688827,-2.724094 3.162959,-4.260657 -2.929703,-7.408452 -6.227701,-3.217549 -14.228289,-1.204958 -20.126526,-6.129618 -1.520951,-1.132342 -0.361447,-2.488287 1.453779,-4.99642 6.863397,4.364655 16.224038,-0.627878 26.70953,2.102274 8.706468,3.370798 3.047027,8.898489 9.302363,10.953816 69.87386,-13.820026 105.34772,30.209769 123.3048,110.929004 66.83501,22.98248 93.49386,-18.7431 145.6754,-7.34493 29.90604,6.53246 59.15245,30.04991 60.9426,60.64919 0.50129,8.56862 -11.86022,36.95974 -5.64444,50.80501 2.28681,5.09374 18.59582,6.51124 26.49223,7.7306 9.82358,19.31268 17.22443,50.3232 26.59155,72.98909 5.88646,4.17537 6.70592,9.70632 10.6955,17.92742 -6.32814,-3.0177 -20.11703,2.5415 -10.11606,15.99109 -11.88215,0.9375 -16.48848,-0.29276 -27.83107,13.0041 -1.30269,-10.09805 -0.99256,-15.82244 2.66046,-38.09735 -5.52321,-18.54851 -20.01057,-41.20889 -24.11347,-44.72048 z"
       id="use2839" />
    <path
       d="m 57.75231,109.82861 c 4.732138,-2.92813 6.267019,-15.568289 21.197945,-11.022732 -4.795065,3.587102 -4.52554,12.694232 -9.943294,15.419132 -3.602549,0.69297 -7.850907,-2.12289 -11.254651,-4.3964 z"
       id="Eye"
       style="fill:#eeeeee;stroke:none" />
    <path
       d="m 75.20802,103.59272 c 0.582423,1.61725 -0.794125,3.59692 -3.080866,4.43069 -2.286732,0.83376 -4.624888,0.20852 -5.233019,-1.39937 -0.608138,-1.60788 0.742133,-3.59458 3.022028,-4.44642 2.279903,-0.85183 4.63324,-0.24892 5.267002,1.34938 l -4.138188,1.56485 4.163043,-1.49913 z"
       id="Eye-2"
       style="stroke:#000000;stroke-width:1.5" />
    <path
       d="m 44.754661,154.78758 c 6.520566,-6.78651 12.272276,1.88789 4.58305,5.59123"
       id="path5153"
       style="fill:none" />
    <path
       d="m 402.43219,285.37664 c 6.28233,5.74895 11.64321,8.93906 24.04061,14.4681 14.49745,-1.24698 14.65189,11.2538 13.33934,17.01223"
       id="path5157"
       style="fill:none" />
    <path
       d="m 181.38751,291.07782 c -30.40859,13.12687 -29.15686,23.26706 -36.78263,50.08079 -10.48446,18.96203 -32.0137,42.47621 -45.530728,62.94022 -0.157236,7.21522 -4.277752,10.99467 -8.848557,18.90738 -1.049006,-6.93192 -13.382999,-15.23317 -18.913042,0.58863 -7.437959,-9.31349 -9.001745,-13.81753 -26.371457,-15.75504 7.631415,-6.74011 12.545409,-9.69265 33.038347,-19.15603 12.262668,-14.97265 22.904507,-39.67341 23.512037,-45.0396 3.55213,-31.37543 5.7804,-58.08327 5.78313,-86.70223"
       id="use2912" />
  </g>
  <g
     transform="matrix(1.025898,0,0,1.025898,-2.4001326,-9.2936296)"
     clip-path="url(#clipPath2932)"
     id="Net"
     style="fill:none;stroke:#eeeeee;stroke-width:2">
    <path
       d="m 311.73394,321.70509 c -4.99769,-8.00712 -13.15396,-17.89152 -23.11048,-17.89152 -18.74156,0 -22.23225,39.1472 -40.97386,39.1472 -18.74154,0 -22.23227,-39.1472 -40.97386,-39.1472 -18.74156,0 -22.23227,39.1472 -40.97383,39.1472 -18.74159,0 -22.2323,-39.1472 -40.97388,-39.1472 -18.7416,0 -22.23228,39.1472 -40.973874,39.1472 -18.741582,0 -22.232296,-39.1472 -40.973858,-39.1472 -18.741613,0 -22.232297,39.1472 -40.9738595,39.1472 -18.7415915,0 -22.2323035,-39.1472 -40.9738865,-39.1472 -7.771426,0 -17.427745,11.44715 -22.644792,16.5554"
       id="use2846" />
    <use
       transform="translate(0,-79.346509)"
       id="use2862"
       x="0"
       y="0"
       width="251"
       height="304.20001"
       xlink:href="#use2846" />
    <use
       transform="translate(0,-158.68247)"
       id="use2864"
       x="0"
       y="0"
       width="251"
       height="304.20001"
       xlink:href="#use2846" />
    <use
       transform="translate(-40.74481,-39.71793)"
       id="use2866"
       x="0"
       y="0"
       width="251"
       height="304.20001"
       xlink:href="#use2846" />
    <use
       transform="translate(0,-79.346499)"
       id="use2870"
       x="0"
       y="0"
       width="251"
       height="304.20001"
       xlink:href="#use2866" />
    <use
       transform="translate(0,-158.8315)"
       id="use2872"
       x="0"
       y="0"
       width="251"
       height="304.20001"
       xlink:href="#use2866" />
  </g>
  <path
     d="m 249.55062,1.4395041 -248.101051,0 0,173.4965959 c -0.76723996,93.72088 80.28944,127.81975 124.050531,127.81975 42.99385,0 124.81775,-34.09887 124.05052,-127.81975 l 0,-173.4965959 z"
     id="Frame"
     style="fill:none;stroke:#000000;stroke-width:1.88832211;stroke-linejoin:bevel" />
</svg>
