<?xml version="1.0" encoding="UTF-8" standalone="no"?>
<!-- Created with Inkscape (http://www.inkscape.org/) -->
<svg
   xmlns:dc="http://purl.org/dc/elements/1.1/"
   xmlns:cc="http://web.resource.org/cc/"
   xmlns:rdf="http://www.w3.org/1999/02/22-rdf-syntax-ns#"
   xmlns:svg="http://www.w3.org/2000/svg"
   xmlns="http://www.w3.org/2000/svg"
   version="1.0"
   width="251"
   height="304.20001"
   id="svg4166">
  <defs
     id="defs4168" />
  <metadata
     id="metadata1880"><rdf:RDF><cc:Work
         rdf:about=""><dc:title>Ljusdal kommunvapen</dc:title><dc:date>04-10-2007</dc:date><dc:creator><cc:Agent><dc:title>Lokal_Profil</dc:title></cc:Agent></dc:creator><cc:license
         rdf:resource="http://creativecommons.org/licenses/by-sa/2.5/" /><dc:rights><cc:Agent><dc:title>cc-by-sa-2.5</dc:title></cc:Agent></dc:rights><dc:format>image/svg+xml</dc:format><dc:type
         rdf:resource="http://purl.org/dc/dcmitype/StillImage" /></cc:Work><cc:License
         rdf:about="http://creativecommons.org/licenses/by-sa/2.5/"><cc:permits
         rdf:resource="http://web.resource.org/cc/Reproduction" /><cc:permits
         rdf:resource="http://web.resource.org/cc/Distribution" /><cc:requires
         rdf:resource="http://web.resource.org/cc/Notice" /><cc:requires
         rdf:resource="http://web.resource.org/cc/Attribution" /><cc:permits
         rdf:resource="http://web.resource.org/cc/DerivativeWorks" /><cc:requires
         rdf:resource="http://web.resource.org/cc/ShareAlike" /></cc:License></rdf:RDF>
  </metadata>
  <path
     d="M 249.55058,1.4395041 L 1.4495291,1.4395041 L 1.4495291,174.9361 C 0.68228908,268.65698 81.738969,302.75585 125.50006,302.75585 C 168.49391,302.75585 250.31781,268.65698 249.55058,174.9361 L 249.55058,1.4395041 z "
     style="color:#000000;fill:#000000;stroke:none"
     id="Shield" />
  <g
     transform="matrix(0.509182,0,0,0.509182,-2.493433,1.975058)"
     style="opacity:1"
     id="Goat">
    <path
       d="M 152,170 C 150,132 176,110 186,108 C 196,106 206,105 218,107 C 206,105 196,106 186,108 C 197,84 211,78 223,78 C 232,78 241,79 249,85 C 241,79 232,78 223,78 C 231,64 252,59 264,61 C 276,63 280,68 285,75 C 280,68 276,63 264,61 C 278,51 298,53 305,55 C 312,57 318,61 322,70 C 318,61 312,57 305,55 C 319,48 340,51 347,57 C 354,63 358,73 359,82 C 358,73 354,63 347,57 C 362,58 381,68 385,77 C 389,86 390,96 391,105 C 390,96 389,86 385,77 C 403,79 415,94 417,104 C 418,114 418,118 417,129 C 418,118 418,114 417,104 C 429,107 438,121 440,134 C 442,147 439,151 432,157 C 439,151 442,147 440,134 C 452,142 455,158 453,165 C 451,172 450,175 444,181 C 450,175 451,172 453,165 C 462,177 463,193 458,201 C 453,209 450,208 445,210 C 450,208 453,209 458,201 C 461,225 446,253 434,253 C 424,253 433,236 433,226 C 433,121 289,42 219,180 L 152,170 z "
       style="opacity:1;fill:#d40000;fill-opacity:1;fill-rule:evenodd;stroke:#000000;stroke-width:3;stroke-linecap:butt;stroke-linejoin:round;stroke-miterlimit:4;stroke-dasharray:none;stroke-opacity:1"
       id="path2181" />
    <path
       d="M 44,304 C 45.228078,271.27208 88.360324,218.87854 89,211 C 89.559575,204.10802 88.326092,194.58698 92,185 C 98.820617,173.01124 116.15323,157.70184 130.75,155.5 C 134.93444,135.75 148.4027,137.31579 163.83714,112.87727 C 162.87949,137.87727 151.25,137 154.75,162.25 C 161.5,138 179.5,145 192,121 C 189.5,140 187.25,149.75 177,163 C 197.75,145.75 214,141.75 224,127 C 222.25,142.75 219.93691,152.52427 199.25,172.5 C 323.90498,158.58398 408.14934,304.07698 422,336.5 C 438.00419,373.96421 442.5,374.5 459.75,361 C 447.25,388.75 429,390.5 404.25,356.5 C 427,423.25 440,426 458,407 C 450.75,427.75 409.75,454 382,395 C 391,466.75 407.75,467.25 431.25,458 C 412.75919,478.39829 380.75,489.5 354,454 C 370.85261,489.34078 344.5,517.75 320.75,536.5 C 351.5,490.25 315.75,493.75 321.5,455.75 C 263.25,504.25 331.25,500.25 261.75,551 C 290.75,497.5 260.5,497 276,475 C 231.75,510 271,550 196.25,548.25 C 209.25,540.25 221.00873,535.78386 221.25,522.5 C 222.08987,476.25766 236.75196,475.37859 237,460 C 237.25,444.5 231.59818,441.79823 232,427.25 C 232.57542,406.41657 241.19441,403.18331 235.74407,380.09368 C 234.93554,376.66845 235.55971,373.26872 233.41667,373.25 C 230.5384,373.22486 230.28861,376.56943 230.15658,380.17627 C 229.66431,393.62391 216.70877,399.95725 216.5,408.5 C 215.9684,430.25262 209.5,429.5 203.75,443.5 C 201.48772,433.15168 204.48262,425.50539 204.25,419.5 C 203.83623,408.81822 178.5501,384.99771 178,397 C 177.4501,408.99771 167.25,408.75 161,419 C 173.25,394.75 161,395 161,378.75 C 161,361.68761 169,362.25 169.5,352.5 C 170.00732,342.60719 168.5,336.75 162.25,336.5 C 156.45593,336.26824 149.58882,344.26919 147.25,353.25 C 145.26808,360.86036 144.67806,377.27023 133.5,376 C 122.5,374.75 116.6197,384.34301 110.5,380 C 102.75,374.5 112.75,364.25 121,351 C 129.75917,336.93224 136.73969,321.27517 124,315.5 C 111.44155,309.80699 82.820261,359.21669 66.5,360 C 53.103296,360.64299 55.75,336.75 56,326 C 49.75,319.25 43.271684,323.40941 44,304 z "
       style="opacity:1;fill:#ffcd50;fill-opacity:1;fill-rule:evenodd;stroke:#000000;stroke-width:3;stroke-linecap:butt;stroke-linejoin:miter;stroke-miterlimit:8;stroke-dasharray:none;stroke-opacity:1"
       id="path2197" />
    <path
       d="M 184.4,348 C 184.35,358.85 189.35,358.45 189,369.2 C 188.66484,379.4943 177.74387,378.86287 177.4,388.6 C 176.58647,411.63586 186.47597,410.0532 186.2,420.4 C 185.86519,432.75257 176.90003,431.79677 176.8,443 C 176.69311,455.39994 179.55,453.2 184.4,469.6 C 183.25,442.8 204.07657,432.91938 204.6,413.6 C 205.15,393.3 201.4,403.05 201.2,392.6 C 200.99285,381.56915 210.90078,381.02294 211,371.2 C 211.1,361.3 206.8,361.95 206.8,355.6"
       style="fill:#ffcd50;fill-opacity:1;fill-rule:evenodd;stroke:#000000;stroke-width:3;stroke-linecap:round;stroke-linejoin:miter;stroke-miterlimit:4;stroke-dasharray:none;stroke-opacity:1"
       id="path3194" />
    <path
       d="M 324.5,216 C 379.34178,220.60884 377.09722,273.41358 409.75,273.25 C 388.44813,282.77377 370.70413,280.10789 346.75,252.5"
       style="fill:#ffcd50;fill-opacity:1;fill-rule:evenodd;stroke:#000000;stroke-width:3;stroke-linecap:round;stroke-linejoin:miter;stroke-miterlimit:4;stroke-dasharray:none;stroke-opacity:1"
       id="path3176" />
    <path
       d="M 254.5,186 C 309.8266,166.08157 311.72855,206.8962 359.5,208 C 346.65385,229.19663 329.14944,220.89087 312.5,218"
       style="fill:#ffcd50;fill-opacity:1;fill-rule:evenodd;stroke:#000000;stroke-width:3;stroke-linecap:round;stroke-linejoin:miter;stroke-miterlimit:4;stroke-dasharray:none;stroke-opacity:1"
       id="path3174" />
    <path
       d="M 206.6125,171.8625 C 211.1625,171.7125 216.52064,168.02434 224.31846,163.90838 C 232.11628,159.79243 239.61628,155.27368 244.75,154.5 C 255.59951,152.86492 275.4375,153.3125 291.75,155.25 C 284.0625,175.9375 257.0625,207.75 225,207.5"
       style="fill:#ffcd50;fill-opacity:1;fill-rule:evenodd;stroke:#000000;stroke-width:3;stroke-linecap:round;stroke-linejoin:miter;stroke-miterlimit:4;stroke-dasharray:none;stroke-opacity:1"
       id="path3170" />
    <path
       d="M 213.375,196.25 C 226.00923,174.66881 244.12259,166.38617 270.75,172.125 C 252.99363,181.51061 234.4466,190.25912 213.375,196.25 z "
       style="fill:#000000;fill-opacity:1;fill-rule:evenodd;stroke:#000000;stroke-width:1px;stroke-linecap:butt;stroke-linejoin:miter;stroke-opacity:1"
       id="path3172" />
    <path
       d="M 195,308.25 C 205.14132,319.08187 199.26612,336.17366 210.25,345.5 C 204.35831,328 222.39119,317.5 212.5,296.75"
       style="fill:none;fill-rule:evenodd;stroke:#000000;stroke-width:3;stroke-linecap:round;stroke-linejoin:miter;stroke-miterlimit:4;stroke-dasharray:none;stroke-opacity:1"
       id="path3186" />
    <path
       d="M 215.75,288.5 C 230.57707,293.79756 228.25559,310.62014 237,323.25 C 226.89433,292.60901 251.35361,281.29485 224.75,262.25"
       style="fill:none;fill-rule:evenodd;stroke:#000000;stroke-width:3;stroke-linecap:round;stroke-linejoin:miter;stroke-miterlimit:4;stroke-dasharray:none;stroke-opacity:1"
       id="path3188" />
    <path
       d="M 224,250.75 C 246.72831,258.25069 240.62553,267.96624 250.5,278.25 C 245.89784,263.17026 252.87474,235.5421 224.5,224.75"
       style="fill:none;fill-rule:evenodd;stroke:#000000;stroke-width:3;stroke-linecap:round;stroke-linejoin:miter;stroke-miterlimit:4;stroke-dasharray:none;stroke-opacity:1"
       id="path3190" />
    <path
       d="M 126.91667,319.66667 C 90.270833,352.85417 102.60552,399.66941 60.5,400.5 C 47.429848,400.75885 41.906523,394.41445 41.75,385.75 C 41.666465,381.12586 43.928421,376.95238 46.25,377 C 49.760268,377.072 46.308342,388.27081 60.125,387.875 C 87.66717,387.086 86.8125,349.3125 126.91667,319.66667 z "
       style="fill:#d40000;fill-opacity:1;fill-rule:evenodd;stroke:#000000;stroke-width:3;stroke-linecap:butt;stroke-linejoin:round;stroke-miterlimit:4;stroke-dasharray:none;stroke-opacity:1"
       id="path3192" />
    <path
       d="M 55.475,325.725 C 68.35,319.6625 72.658628,315.93112 72.75,311.25 C 72.830733,307.11397 73.138086,303.10678 77,303 C 90.5625,302.625 74.729977,313.77806 85,313.75 C 95.625144,313.72097 96.436921,307.17964 96,301.25 C 95.5625,295.3125 92.0625,288.5625 74.75,294 C 95.4375,281.8125 86.789022,275.0673 93.875,258 C 99.6875,244 105.60417,237.5 97.458333,224.5 C 108.34414,219.2183 124.5625,215.66667 126,191.5 C 125.47917,220.79167 112.70833,215.10417 107.66667,225.95833 C 104.04167,238.14583 108.5,242.625 103.5,256.625 C 98.5,270.625 92.1875,272.3125 91.25,283.5 C 90.3125,294.6875 101.625,291.5 101.75,301.125 C 101.86499,309.86442 88.825,317.35 81.075,316.975 C 76.575,323.35 69.1,324.4125 55.475,325.725 z "
       style="fill:#000000;fill-opacity:1;fill-rule:evenodd;stroke:none;stroke-width:1px;stroke-linecap:butt;stroke-linejoin:miter;stroke-opacity:1"
       id="path4167" />
    <path
       d="M 126,220.66666 C 139.27778,221.16666 144.18161,229.39042 158.33334,229.16666 C 170.71145,228.97359 176.77778,219.33333 192.33333,216.33333 C 167.44444,217.55555 168.59181,202.70949 155.16667,202.66667 C 140.06642,202.6201 140.44444,218.05555 126,220.66666 z "
       style="fill:#000000;fill-opacity:1;fill-rule:evenodd;stroke:#000000;stroke-width:1px;stroke-linecap:butt;stroke-linejoin:miter;stroke-opacity:1"
       id="path4169" />
    <path
       d="M 232.26527,116.46607 C 293.02112,67.021006 355.60515,86.805998 391,119.59518 C 345.75932,87.218838 286.88881,76.645953 235.1088,119.93415 C 229.91572,124.27558 226.60662,121.07126 232.26527,116.46607 z "
       style="fill:#000000;fill-opacity:1;fill-rule:evenodd;stroke:none;stroke-width:1px;stroke-linecap:butt;stroke-linejoin:miter;stroke-opacity:1"
       id="path30374" />
    <path
       d="M 140.66666,195.5 C 172.16403,180.7626 169.61701,207.174 195,205.66668 C 168.0787,212.24 176.59017,186.79285 140.66666,195.5 z "
       style="fill:#000000;fill-opacity:1;fill-rule:evenodd;stroke:none;stroke-width:1px;stroke-linecap:butt;stroke-linejoin:round;stroke-opacity:1"
       id="path3168" />
    <path
       d="M 160.56248,205.91416 C 178.41208,214.95156 174.08309,228.36059 153.65221,227.72307 C 163.12999,220.85196 162.89064,215.99645 160.56248,205.91416 z "
       style="fill:#ffcd50;fill-opacity:1;fill-rule:evenodd;stroke:none;stroke-width:1px;stroke-linecap:butt;stroke-linejoin:miter;stroke-opacity:1"
       id="use2125" />
  </g>
  <path
     d="M 249.55062,1.4395041 L 1.449569,1.4395041 L 1.449569,174.9361 C 0.68232904,268.65698 81.739009,302.75585 125.5001,302.75585 C 168.49395,302.75585 250.31785,268.65698 249.55062,174.9361 L 249.55062,1.4395041 z "
     style="fill:none;fill-opacity:0;stroke:#000000;stroke-width:1.88832211;stroke-linejoin:bevel"
     id="Frame" />
</svg>
