<?xml version="1.0" encoding="UTF-8" standalone="no"?>
<!-- Created with Inkscape (http://www.inkscape.org/) -->
<svg
   xmlns:dc="http://purl.org/dc/elements/1.1/"
   xmlns:cc="http://web.resource.org/cc/"
   xmlns:rdf="http://www.w3.org/1999/02/22-rdf-syntax-ns#"
   xmlns:svg="http://www.w3.org/2000/svg"
   xmlns="http://www.w3.org/2000/svg"
   xmlns:xlink="http://www.w3.org/1999/xlink"
   version="1.0"
   width="251"
   height="304.20001"
   id="svg4166">
  <defs
     id="defs4168" />
  <metadata
     id="metadata1880"><rdf:RDF><cc:Work
         rdf:about=""><dc:title>Gavle kommunvapen</dc:title><dc:date>16-12-2006</dc:date><dc:creator><cc:Agent><dc:title>Lokal_Profil</dc:title></cc:Agent></dc:creator><cc:license
         rdf:resource="http://creativecommons.org/licenses/by-sa/2.5/" /><dc:rights><cc:Agent><dc:title>cc-by-sa-2.5</dc:title></cc:Agent></dc:rights><dc:format>image/svg+xml</dc:format><dc:type
         rdf:resource="http://purl.org/dc/dcmitype/StillImage" /></cc:Work><cc:License
         rdf:about="http://creativecommons.org/licenses/by-sa/2.5/"><cc:permits
         rdf:resource="http://web.resource.org/cc/Reproduction" /><cc:permits
         rdf:resource="http://web.resource.org/cc/Distribution" /><cc:requires
         rdf:resource="http://web.resource.org/cc/Notice" /><cc:requires
         rdf:resource="http://web.resource.org/cc/Attribution" /><cc:permits
         rdf:resource="http://web.resource.org/cc/DerivativeWorks" /><cc:requires
         rdf:resource="http://web.resource.org/cc/ShareAlike" /></cc:License></rdf:RDF>
  </metadata>
  <path
     d="M 249.55058,1.4395041 L 125.50008,1.4395041 L 1.4495291,1.4395041 L 1.4495291,174.9361 C 0.68228908,268.65698 81.738969,302.75585 125.50006,302.75585 C 168.49391,302.75585 250.31781,268.65698 249.55058,174.9361 L 249.55058,1.4395041 z"
     id="Shield"
     style="fill:#003d8f" />
  <path
     d="M 33.905778,102.74401 C 16.598951,102.74401 12.08375,113.70504 1.4370279,119.40026 L 1.4370279,174.93151 C 1.3966739,179.86084 1.6005989,184.60958 1.9995279,189.21276 C 10.741752,184.26052 22.322218,179.36901 33.905778,179.36901 C 57.294228,179.36901 57.29857,199.36901 80.687028,199.36901 C 104.07548,199.36901 104.07983,179.36901 127.46828,179.36901 C 150.85673,179.36901 150.86106,199.36901 174.24953,199.36901 C 197.63798,199.36901 197.61107,179.36901 220.99953,179.36901 C 230.99586,179.36901 240.98553,183.02882 249.15578,187.21276 C 249.44172,183.23488 249.59655,179.14848 249.56203,174.93151 L 249.56203,116.93151 C 241.42258,111.02703 236.0438,102.74401 220.99953,102.74401 C 197.61107,102.74401 197.63798,122.74401 174.24953,122.74401 C 150.86107,122.74401 150.85674,102.74401 127.46828,102.74401 C 104.07982,102.74401 104.07548,122.74401 80.687028,122.74401 C 57.298559,122.74401 57.29423,102.74401 33.905778,102.74401 z"
     id="Vagskuren_bjalke"
     style="fill:#eeeeee" />
  <path
     d="M 125.29224,195.31807 C 125.24504,195.32541 125.1999,195.34119 125.153,195.34901 C 121.44625,195.56305 118.35397,197.89507 117.12329,201.10442 C 115.31534,205.01886 116.53693,209.85997 122.0587,212.38315 L 122.0587,218.68005 L 103.66307,218.68005 C 102.57832,218.68005 102.69376,224.35035 103.50835,224.37357 L 121.87304,224.32715 C 121.89363,228.71017 121.94445,233.09497 121.88851,237.47794 C 121.68167,246.53155 121.50856,255.59032 121.42436,264.64591 C 121.38717,269.55024 121.21291,274.24277 121.02211,275.08918 C 120.30296,278.2794 118.29632,278.70745 112.09504,277.00765 C 105.64591,275.23993 97.631392,271.32957 96.283152,269.27189 C 95.211322,267.63603 95.028902,266.21356 95.803532,265.3576 C 96.189742,264.93085 96.772032,264.6795 97.087672,264.80062 C 97.436682,264.93452 97.795432,264.66057 98.015962,264.07347 C 98.792222,262.00677 96.203412,258.93896 91.100192,255.90451 C 89.859832,255.16695 87.838352,253.59082 86.597982,252.39247 C 85.296542,251.13513 84.155232,250.33535 83.890472,250.50495 C 83.066682,251.03266 81.375952,254.85226 80.858052,257.35883 C 79.816932,262.39774 81.142022,269.83598 83.596512,272.75298 C 84.892202,274.2928 85.615202,274.30954 85.917242,272.7994 C 86.449412,270.13851 89.766572,270.89638 93.374502,274.51674 C 96.229962,277.38202 101.6508,281.52971 104.01891,282.65475 C 104.92098,283.08331 106.22005,283.77884 106.89662,284.2019 C 107.57316,284.62495 109.61014,285.47236 111.4143,286.08942 C 115.19397,287.38218 119.60989,289.67338 121.36248,291.24144 C 122.02828,291.83712 123.73119,292.9256 124.39489,293.42292 C 125.29785,294.07535 125.70289,293.97117 126.59185,293.42292 C 127.25556,292.9256 128.97393,291.83712 129.63973,291.24144 C 131.39233,289.67338 135.80824,287.38218 139.58791,286.08942 C 141.39207,285.47236 143.42905,284.62495 144.1056,284.2019 C 144.78215,283.77884 146.08122,283.08331 146.9833,282.65475 C 149.35142,281.52971 154.77224,277.38202 157.6277,274.51674 C 161.23562,270.89638 164.53731,270.13851 165.06949,272.7994 C 165.37153,274.30954 166.09454,274.2928 167.39022,272.75298 C 169.84472,269.83598 171.18527,262.39774 170.14415,257.35883 C 169.62625,254.85226 167.93552,251.03266 167.11174,250.50495 C 166.84698,250.33535 165.70566,251.13513 164.40422,252.39247 C 163.16385,253.59082 161.14236,255.16695 159.90201,255.90451 C 154.79879,258.93896 152.20999,262.00677 152.98624,264.07347 C 153.20677,264.66057 153.56552,264.93452 153.91454,264.80062 C 154.23017,264.6795 154.79699,264.93085 155.1832,265.3576 C 155.95782,266.21356 155.79088,267.63603 154.71905,269.27189 C 153.37081,271.32957 145.3563,275.23993 138.90717,277.00765 C 132.7059,278.70745 130.69925,278.2794 129.98011,275.08918 C 129.78931,274.24277 129.61504,269.55024 129.57785,264.64591 C 129.49365,255.59032 129.30507,246.53155 129.09823,237.47794 C 129.04229,233.09497 129.10858,228.71017 129.12917,224.32715 L 147.49386,224.37357 C 148.30846,224.35035 148.42389,218.68005 147.33914,218.68005 L 128.94352,218.68005 L 128.94352,212.38315 C 134.41965,209.88083 135.66851,205.0945 133.92534,201.19724 C 132.72124,197.94138 129.58866,195.56854 125.84921,195.34901 C 125.80151,195.34105 125.75799,195.32554 125.70997,195.31807 C 125.63719,195.31807 125.56574,195.33192 125.49337,195.33354 C 125.42501,195.33209 125.36097,195.31807 125.29224,195.31807 z M 125.49337,199.60368 C 127.49235,199.60368 129.18445,200.87688 129.74803,202.62062 C 129.83474,202.88889 129.90336,203.16809 129.93369,203.45609 C 129.94886,203.60009 129.94921,203.74143 129.94916,203.88929 C 129.94921,204.03714 129.94886,204.19396 129.93369,204.33796 C 129.90336,204.62596 129.83474,204.90515 129.74803,205.17342 C 129.18445,206.91717 127.49236,208.1749 125.49337,208.1749 C 123.64814,208.1749 122.06933,207.09771 121.39342,205.56021 C 121.28077,205.30396 121.18967,205.03455 121.13041,204.75569 C 121.07114,204.47684 121.05296,204.185 121.05305,203.88929 C 121.05296,203.59358 121.07114,203.30174 121.13041,203.02288 C 121.18967,202.74403 121.28077,202.47461 121.39342,202.21836 C 122.06933,200.68087 123.64814,199.60368 125.49337,199.60368 z"
     id="Anchor"
     style="fill:#ffcd50;fill-rule:evenodd;stroke:none" />
  <use
     transform="translate(-56.667,-187.914)"
     id="Anchor-2"
     x="0"
     y="0"
     width="251"
     height="304.20001"
     xlink:href="#Anchor" />
  <use
     transform="translate(56.667,-187.914)"
     id="Anchor-3"
     x="0"
     y="0"
     width="251"
     height="304.20001"
     xlink:href="#Anchor" />
  <path
     d="M 249.55062,1.4395041 L 125.50012,1.4395041 L 1.449569,1.4395041 L 1.449569,174.9361 C 0.68232904,268.65698 81.739009,302.75585 125.5001,302.75585 C 168.49395,302.75585 250.31785,268.65698 249.55062,174.9361 L 249.55062,1.4395041 z"
     id="Frame"
     style="fill:none;fill-opacity:0;stroke:#000000;stroke-width:1.88832211;stroke-linejoin:bevel" />
</svg>
