<?xml version="1.0" encoding="UTF-8" standalone="no"?>
<svg
   xmlns:dc="http://purl.org/dc/elements/1.1/"
   xmlns:cc="http://creativecommons.org/ns#"
   xmlns:rdf="http://www.w3.org/1999/02/22-rdf-syntax-ns#"
   xmlns:svg="http://www.w3.org/2000/svg"
   xmlns="http://www.w3.org/2000/svg"
   xmlns:xlink="http://www.w3.org/1999/xlink"
   version="1.0"
   width="251"
   height="304.20001"
   id="svg4166">
  <defs
     id="defs4168">
    <clipPath
       id="clipPath3765"
       clipPathUnits="userSpaceOnUse">
      <path
         style="fill:#003d8f"
         id="path3767"
         d="m 622.54056,47.50152 -124.0505,0 -124.05055,0 0,173.4966 c -0.76724,93.72088 80.28944,127.81975 124.05053,127.81975 42.99385,0 124.81775,-34.09887 124.05052,-127.81975 l 0,-173.4966 z" />
    </clipPath>
  </defs>
  <metadata
     id="metadata1880"><rdf:RDF><cc:Work
         rdf:about=""><dc:title>Bollnäs vapen</dc:title><dc:date>2016-02-15</dc:date><dc:creator><cc:Agent><dc:title>Lokal_Profil</dc:title></cc:Agent></dc:creator><cc:license
         rdf:resource="http://creativecommons.org/licenses/by-sa/2.5/" /><dc:rights><cc:Agent><dc:title>cc-by-sa-2.5</dc:title></cc:Agent></dc:rights><dc:format>image/svg+xml</dc:format><dc:type
         rdf:resource="http://purl.org/dc/dcmitype/StillImage" /></cc:Work><cc:License
         rdf:about="http://creativecommons.org/licenses/by-sa/2.5/"><cc:permits
         rdf:resource="http://web.resource.org/cc/Reproduction" /><cc:permits
         rdf:resource="http://web.resource.org/cc/Distribution" /><cc:requires
         rdf:resource="http://web.resource.org/cc/Notice" /><cc:requires
         rdf:resource="http://web.resource.org/cc/Attribution" /><cc:permits
         rdf:resource="http://web.resource.org/cc/DerivativeWorks" /><cc:requires
         rdf:resource="http://web.resource.org/cc/ShareAlike" /></cc:License></rdf:RDF>
  </metadata>
  <path
     d="m 249.55058,1.4395041 -124.0505,0 -124.0505509,0 0,173.4965959 C 0.68228908,268.65698 81.738969,302.75585 125.50006,302.75585 c 42.99385,0 124.81775,-34.09887 124.05052,-127.81975 l 0,-173.4965959 z"
     id="Shield"
     style="fill:#003d8f" />
  <g
     clip-path="url(#clipPath3765)"
     transform="translate(-372.98998,-46.062016)"
     id="g3753">
    <g
       transform="matrix(0.9447484,0,0,-0.85745103,27.215063,555.42744)"
       id="g3757">
      <path
         id="Bjalke"
         style="fill:#eeeeee"
         d="m 622.89896,273.51798 c 0,0 0,19.99999 0,19.99999 -6.39955,-0.65877 -10.67549,-4.25757 -16,-8.65625 -5.89498,-4.86996 -13.0723,-10.625 -23.9375,-10.625 -10.87008,0 -18.16022,5.74313 -24.15625,10.625 -5.99603,4.88186 -10.68227,8.78125 -17.90625,8.78125 -7.60732,0 -12.38858,-3.91996 -18.34375,-8.78125 -5.95517,-4.86129 -13.07629,-10.625 -23.71875,-10.625 -10.62753,0 -17.61375,5.77679 -23.46875,10.625 -5.855,4.84821 -10.57773,8.78125 -18.59375,8.78125 -7.63772,0 -12.17039,-3.90559 -18.03125,-8.78125 -5.86086,-4.87566 -13.03016,-10.625 -24.03125,-10.625 -10.7193,0 -17.85271,5.76143 -23.78125,10.625 -5.35949,4.39674 -9.72384,8.00112 -16.15625,8.65625 0,0 0,-19.99999 0,-19.99999 6.43241,-0.65513 10.79676,-4.25951 16.15625,-8.65625 5.92854,-4.86357 13.06195,-10.625 23.78125,-10.625 11.00109,0 18.17039,5.74934 24.03125,10.625 5.86086,4.87566 10.39353,8.78125 18.03125,8.78125 8.01602,0 12.73875,-3.93304 18.59375,-8.78125 5.855,-4.84821 12.84122,-10.625 23.46875,-10.625 10.64246,0 17.76358,5.76371 23.71875,10.625 5.95517,4.86129 10.73643,8.78125 18.34375,8.78125 7.22398,0 11.91022,-3.89939 17.90625,-8.78125 5.99603,-4.88187 13.28617,-10.625 24.15625,-10.625 10.8652,0 18.04252,5.75504 23.9375,10.625 5.32451,4.39868 9.60045,7.99748 16,8.65625 z" />
      <use
         xlink:href="#Bjalke"
         height="304.20001"
         width="251"
         y="0"
         x="0"
         id="use1888"
         transform="translate(6.9542835e-7,39.40624)" />
    </g>
  </g>
  <path
     d="m 249.55062,1.4395041 -124.0505,0 -124.050551,0 0,173.4965959 c -0.76723996,93.72088 80.28944,127.81975 124.050531,127.81975 42.99385,0 124.81775,-34.09887 124.05052,-127.81975 l 0,-173.4965959 z"
     id="Frame"
     style="fill:none;stroke:#000000;stroke-width:1.88832211;stroke-linejoin:bevel" />
  <g
     style="fill:#eeeeee;stroke:#003d8f;stroke-width:4"
     id="Crane"
     transform="matrix(0.17909846,0,0,0.17909846,-3.1898229,-2.6185212)">
    <path
       style="fill:#d40000;stroke:none"
       id="Sphere"
       d="m 443.05442,876.30783 a 68.50644,68.50644 0 0 1 -137.01288,0 68.50644,68.50644 0 1 1 137.01288,0 z" />
    <g
       style="fill:#d40000"
       id="Legs">
      <path
         id="R-leg"
         d="m 641.77655,958.05996 c -2.5979,-1.01558 -7.76174,-4.03203 -11.47521,-6.70323 C 614.40253,939.92028 484.4808,852.51978 474,846.21026 c -13.6614,-8.22429 -14.5032,-8.56422 -16.4318,-6.63561 -2.6902,2.69019 -2.9944,8.42021 -1.0312,19.42536 1.0302,5.775 2.0424,13.27075 2.2493,16.65722 0.3635,5.95018 0.2473,6.30022 -3.4551,10.41021 -3.9828,4.42131 -10.61625,7.21254 -14.47027,7.49502 4.56703,-17.22475 -2.72964,-44.74864 -14.17563,-57.44245 -4.2226,-4.48055 -11.5207,-9.12 -14.3463,-9.12 -7.1698,0 -22.0197,8.51409 -29.6478,16.99842 -5.3284,5.92651 -7.6913,10.61701 -7.6913,15.26785 0,4.62635 -3.1455,8.39743 -8.29,9.93876 -5.94048,1.74201 -11.8616,5.76157 -13.4408,9.79497 -10.42355,-14.38479 2.17318,-29.18327 7.0975,-35.92402 3.4697,-4.71679 7.6307,-10.60098 9.2465,-13.07598 1.6158,-2.475 5.1764,-5.98327 7.9123,-7.79615 8.283,-5.48842 8.9312,-6.17571 7.3324,-7.77449 -0.7609,-0.76093 -4.8652,-1.86777 -9.1207,-2.45965 -6.171,-0.85831 -9.4991,-0.77209 -16.4414,0.42594 -13.153,2.26979 -21.8423,6.96346 -32.413,17.50825 -7.2884,7.27056 -9.3469,10.09957 -13.3492,18.3461 -2.6026,5.3625 -3.79035,8.21928 -4.89918,10.6247 -6.62404,-14.6914 -2.37747,-21.01422 1.73228,-33.3747 3.1992,-9.74827 13.38246,-18.15555 22.3218,-23.00587 25.07289,-13.60407 51.15944,-15.02985 70.4211,-9.42666 l 19.1952,5.90815 c 18.3453,5.64656 34.7538,11.28729 41.1952,14.16162 1.65,0.73627 17.4581,10.63804 35.1291,22.00392 80.57393,51.82469 132.52773,82.37811 143.46167,84.36814 5.50742,1.00238 11.89448,-1.17279 15.90923,-5.41802 4.03075,-4.26215 13.82034,-20.53072 24.25909,-40.31429 3.9825,-7.54765 8.99806,-15.68226 9.54806,-15.68046 0.55,0.002 6.71144,3.26173 10.74809,8.44086 l 6.91593,8.87332 -13.05345,23.58929 c -6.84133,12.36318 -13.38331,25.59061 -14.58529,29.36803 -3.98106,12.51116 -13.2995,24.19422 -23.25386,29.15469 -5.86223,2.92127 -10.33749,3.06436 -16.80202,0.53723 z" />
      <path
         id="L-leg"
         d="m 681.22251,1283.2529 -5.2775,-2.7203 c -3.39775,0.3624 -6.59016,1.5185 -9.55827,4.1875 -0.19078,-2.9105 0.7706,-6.4553 3.61867,-9.9105 3.7921,-4.6005 8.58184,-6.8096 14.76425,-6.8096 4.04091,0 9.42166,-1.8726 28.84887,-10.0398 13.13481,-5.5219 24.9212,-11.0719 26.19198,-12.3333 2.4492,-2.431 5.35695,-9.5469 4.48059,-10.9649 -0.28664,-0.4638 -2.15689,0.7193 -4.15613,2.6291 -5.42818,5.1854 -7.19131,5.7606 -18.89886,6.165 -5.90486,0.2039 -14.78464,1.1064 -19.73284,2.0055 -12.41009,2.2549 -42.45404,9.2553 -47.69176,11.1124 -2.37133,0.8409 -9.48651,2.1873 -15.81151,2.9922 -6.325,0.8049 -13.26687,1.8773 -15.42638,2.3831 -2.92724,0.6856 -4.63227,0.5546 -6.70034,-0.5148 -8.16582,-3.2203 -9.4539,-0.5185 -12.99898,2.4678 -3.81818,-9.7318 17.96309,-19.8849 21.5252,-21.0284 3.90527,-1.1799 9.75996,-2.9789 13.01041,-3.998 3.25045,-1.019 13.15045,-3.011 22,-4.4266 18.99271,-3.0382 35.72183,-6.2477 36.47113,-6.997 0.29352,-0.2935 -3.95323,-0.4029 -9.43721,-0.243 -9.1364,0.2664 -10.2174,0.098 -12.91668,-2.0179 -3.01049,-2.7984 -6.22553,-2.259 -9.98152,-2.4101 2.82964,-6.4499 11.258,-9.6102 16.77113,-9.7593 2.09921,-0.012 13.95532,1.328 26.34689,2.978 12.39158,1.65 24.13067,3 26.08686,3 7.00828,0 14.6702,-11.7729 24.07996,-37 13.29613,-35.6463 23.66926,-82.0227 33.55092,-150 3.22902,-22.2129 3.34153,-23.8834 2.05412,-30.5 -1.81566,-9.3316 -1.77092,-17.8126 0.14075,-26.68461 1.95156,-9.05711 1.67279,-12.26256 -4.18783,-48.15342 -2.50013,-15.31092 -4.27978,-29.62895 -3.95479,-29.95394 0.61712,-0.61712 6.60265,1.40037 18.88064,6.94401 6.28454,2.83754 7.68572,1.22105 7.68572,3.4606 0,1.42097 1.3304,16.26625 2.95645,27.66407 1.62606,11.39781 3.24512,23.6483 3.59793,27.2233 0.35282,3.575 1.92345,10.59309 3.49031,15.59575 1.56685,5.00266 3.39515,12.06074 4.06288,15.68464 1.41757,7.6934 0.84615,9.7406 -7.31863,26.2196 -4.81038,9.7088 -5.04024,10.5824 -7.89401,30 -8.00361,54.4582 -16.47213,95.9776 -26.9539,132.1492 -4.67307,16.1264 -4.64912,16.2273 8.90576,37.5542 7.45962,11.7367 8.43857,14.1481 7.64663,18.8355 -0.67484,3.9944 -2.3645,8.0184 -5.41536,9.9611 -1.55256,-3.1759 0.43735,-6.2193 -4.93018,-7.4566 -3.71921,-1.2452 -6.05855,-4.6106 -6.11244,-8.7934 -0.0709,-5.5025 -6.94496,-8.7303 -11.49961,-5.3999 -1.33374,0.9753 -1.95659,2.9884 -2.24316,7.25 -0.2182,3.245 -0.61493,6.9444 -0.88162,8.2211 -0.68424,3.2755 -23.1551,27.1739 -27.10084,28.8225 -1.78528,0.746 -6.32875,1.3563 -10.09659,1.3563 -8.40791,0 -14.05335,1.6282 -29.78598,8.5905 -6.72306,2.9752 -12.83213,5.4035 -13.5757,5.3961 -0.74356,-0.01 -3.72681,-1.2376 -6.62943,-2.7337 z" />
    </g>
    <g
       id="Tail">
      <g
         id="Back-tail">
        <path
           id="path3673"
           d="m 1079,904.63833 c 0,-0.19893 1.3003,-3.23643 2.8896,-6.75 8.8556,-19.5783 13.6225,-53.50115 11.1754,-79.52841 -1.0458,-11.12262 -4.7786,-18.97368 -2.95,-28.44938 1.7842,-9.24537 1.4191,-15.2884 3.2548,-40.83993 0.2868,-3.99077 3.8595,-16.8551 3.8595,-16.8551 0,0 17.4356,28.80923 20.1494,38.87186 6.5085,24.13279 12.311,44.8651 8.067,68.05873 l -3.544,19.36793 -11.0729,17.03423 c -7.9451,12.22255 -16.833,21.59825 -24.2746,26.31616 -4.3155,2.73602 -7.5542,3.92526 -7.5542,2.77391 z" />
        <path
           id="path3671"
           d="m 987.63165,876.1965 c -0.23113,-0.38307 2.14862,-5.02976 5.28834,-10.32598 9.02061,-16.92683 17.32111,-35.86303 17.59021,-55.28968 8.7941,-15.00488 12.6669,-31.20982 15.2749,-54.02088 0.849,-7.425 3.2058,-15.00663 3.624,-17.20663 l 1.2004,-11.62751 9.2665,9.10665 c 12.5393,12.32306 13.496,49.90688 12.1725,71.94052 -1.1149,18.56008 -7.3681,24.50355 -12.2334,29.8563 -16.6718,18.34214 -26.3076,26.56176 -38.1408,32.53515 -7.57314,3.82289 -13.49241,5.94401 -14.04265,5.03206 z" />
        <path
           id="path3669"
           d="m 1173.402,857.75001 c 0.3494,-1.2375 1.6303,-7.65 2.8466,-14.25 3.2742,-25.01657 4.5252,-55.26233 -5.2858,-76 -2.1107,-4.4 -7.4961,-11.57015 -7.8441,-14.32015 -2.5014,-19.76528 -8.1875,-36.85156 -16.2347,-53.6977 -2.7304,-5.71575 -6.5779,-16.95011 -6.5779,-16.95011 0,0 13.2476,2.34924 20.8986,8.02208 19.8007,14.68135 39.1664,20.48903 46.5103,45.19566 l 4.6803,15.74582 -2.8265,19.23341 c -4.3268,29.44222 -12.5735,54.92705 -28.795,80.02099 -5.7705,8.9268 -8.7016,11.71006 -7.3718,7 z" />
        <path
           id="path3665"
           d="m 1228.2312,690.50001 c -9.057,-15.90288 -34.1756,-40.00266 -50.9059,-39.84721 -16.5118,1.10284 -21.1957,-19.81198 -38.154,-27.9128 -10.1273,-4.83771 -35.9576,-14.13595 -43.369,-15.52589 -7.2866,-1.36653 4.7567,-8.49468 16.5598,-8.49468 34.4077,0 67.9851,10.37066 94.4335,27.76147 10.6093,6.97603 19.7804,15.62204 20.5957,17.96055 0.318,0.91194 3.8162,10.55856 6.1604,16.05856 5.3671,12.59258 8.8275,23.63935 11.4762,36.63685 2.1684,10.64056 3.8309,27.63198 2.5427,29.86315 -5.7695,-12.59274 -12.2386,-25.64972 -19.3394,-36.5 z" />
      </g>
      <path
         id="Front-tail"
         d="m 1109.0951,932.85303 c 17.0553,-22.34033 35.7603,-55.69916 44.3599,-79.11218 8.131,-22.13715 12.4204,-44.44841 13.2652,-67.89512 1.5662,-43.46814 -7.1945,-72.57191 -23.2792,-100.62541 8.072,2.16291 21.8976,13.24433 27.2174,17.95804 39.1952,32.15767 50.4022,77.47598 56.7001,102.22809 7.6534,-20.83587 7.7354,-48.50085 2.7082,-73.56501 -4.2044,-19.61383 -12.6725,-39.82671 -23.8135,-56.84143 -8.0676,-12.32105 -28.7341,-32.61641 -42.621,-41.85553 -20.9032,-17.48343 -41.0201,-20.12222 -67.3212,-28.58221 3.5204,-1.46683 24.2181,-1.90676 37.0262,-0.53412 38.4246,4.11795 73.1427,20.32004 98.5091,45.97186 11.7018,11.83349 19.6583,21.6823 26.3104,32.56809 7.8288,12.81142 8.5107,11.54933 3.8091,-7.04972 -10.8563,-42.94538 -34.907,-78.46598 -67.872,-100.24061 -15.211,-10.04739 -35.2769,-18.30384 -54.5938,-22.46354 -11.8589,-2.5537 -37.8849,-3.50713 -51.1437,-1.87359 -37.4338,4.61197 -74.0259,19.261 -113.8563,45.58047 -17.48956,11.55689 -43.38245,32.37987 -43.78553,35.15673 -0.16293,1.12246 2.0734,4.62221 4.08225,8.15754 15.61654,27.48319 28.16096,70.74169 34.08631,105.82416 2.71465,16.07275 2.03226,43.24637 0.36074,57.62226 -2.6899,23.13443 -4.86861,44.87901 -17.14409,63.07049 -6.19326,9.17802 -5.32014,9.65939 6.14007,3.38511 12.50673,-6.84724 25.00631,-16.25056 33.96473,-25.55137 9.91852,-10.29765 12.47252,-14.78718 20.17092,-28.31769 15.2587,-26.81839 20.9024,-80.11034 19.412,-85.21526 3.0911,2.34693 5.7816,9.94336 8.6869,20.22286 14.7183,52.07663 6.3053,109.19504 -22.5304,152.9655 -3.3717,5.11801 -3.9671,6.04143 -7.0275,10.31518 3.8854,-0.22165 12.5552,-4.2643 22.0365,-10.57624 17.0256,-11.33441 32.3792,-29.81092 42.5261,-51.08037 16.048,-33.63901 24.9322,-90.22508 22.2738,-113.70024 5.4156,4.10712 13.9106,29.14427 17.6251,46.9601 4.0018,19.19389 5.007,29.59352 4.9526,51.24014 -0.046,18.24348 -0.3983,22.5497 -3.2024,39.12109 -3.4353,20.30183 -7.7157,37.03673 -14.0367,54.87891 -2.2408,6.325 -3.9314,10.73378 -5.6963,13.72514 2.9186,-0.89606 5.7026,-4.01629 11.7,-11.87212 z" />
    </g>
    <g
       id="Beak">
      <path
         style="fill:#d40000"
         id="Beak-conture"
         d="m 604.34057,96.444494 c -3.92146,3.050024 -47.08087,27.357596 -51.4147,29.628806 -32.11113,16.82832 -81.04351,31.8074 -93.24361,49.67183 12.63582,5.22861 107.18657,-29.62881 152.93694,-31.8074 z" />
      <path
         style="fill:#003d8f;stroke:none"
         id="Beak-line"
         d="m 607.65068,119.6361 c -17.62948,8.41039 -76.50221,30.56854 -76.50221,30.56854 l 77.63437,-25.39291 z" />
    </g>
    <path
       id="R-tigh"
       d="m 720.58844,870.75001 c 12.13411,-12.49892 30.14619,-30.3682 30.14619,-31.99561 -12.84629,-27.01089 -32.33224,-53.59957 -49.76684,-64.38587 -1.69483,-0.90928 -3.83935,17.12958 -4.24275,24.38148 -0.32559,5.85317 -2.01575,16.1448 -4.22884,25.75 -2.26127,9.81433 -3.74635,18.92017 -3.84134,23.55339 l -0.20524,10.01084 11.24228,9.62343 c 6.6946,5.7306 11.60073,12.42899 11.60073,12.42899 0,0 5.4247,-5.37915 9.29581,-9.36665 z" />
    <path
       id="Main-body"
       d="m 653.0625,63 c -14.38471,0 -29.81815,5.312617 -38.625,13.28125 -6.61828,5.988364 -11.86367,15.59929 -11.09375,20.34375 0.31082,1.91537 -0.10094,5.24884 -0.90625,7.53125 -2.10126,5.95562 -1.8011,9.26074 1.1875,12.8125 3.12863,4.745 1.09667,8.14603 -1.96875,15.1875 -1.38079,2.38068 -2.66355,5.90531 -2.84375,7.8125 -0.27745,2.93645 0.11507,3.66709 2.40625,4.78125 4.42673,2.15262 29.06178,7.99846 47.21875,11.1875 11.25943,1.97757 17.80214,3.59351 19.5,4.84375 3.86337,2.84485 8.00395,11.03414 8.03125,15.875 0.0613,10.88673 -18.8723,38.00222 -50.53125,72.34375 -4.81685,5.225 -22.76874,23.9 -39.875,41.5 0,0 -24.65762,25.56387 -31.09375,32 -9.85672,9.85672 -14.32536,18.73192 -20.71875,28.5 -19.885,30.64299 -34.58195,66.6509 -42.46875,104 -2.2994,10.88905 -2.63688,14.88421 -2.65625,31 -0.018,14.98634 -0.009,18.62631 3.5625,31 24.13352,83.60331 66.08916,138.56607 180.8125,236.90625 11.28074,9.66979 25.15496,21.41875 30.8125,26.09375 9.42054,7.78446 10.71589,9.28395 15.28125,17.75 7.30782,13.55169 17.15494,27.89021 31.90625,46.375 7.18859,9.00798 15.18741,19.525 17.75,23.375 4.7534,7.14145 11.22797,20.71567 11.25,23.59375 0.007,0.87726 0.7875,4.46234 1.75,5.3125 2.16599,1.9132 27.08909,12.35702 29.46875,12.40625 1.0844,0.0224 2.63464,-3.59052 4.125,-6.5625 7.06488,-14.08831 12.79571,-34.66721 16.15625,-58 2.7965,-19.4165 3.90681,-24.88424 6.03125,-29.96875 0.46032,-1.10169 2.03273,-3.37728 3.34375,-5.28125 3.6281,2.07211 6.15425,3.10907 6.9375,2.625 0.056,-1.962 2.12126,-6.96247 4.34375,-10.21875 11.58425,9.67104 37.35128,35.16118 55.69689,36.11774 0.53079,-3.55259 3.21113,-16.98562 5.24061,-17.52399 11.86506,7.88524 33.93637,22.8747 49.63229,25.82843 1.63951,-2.42154 7.58316,-20.27854 9.77396,-32.32843 2.2482,-12.36557 3.04918,-38.56865 1.59375,-52.46875 -3.17332,-30.30698 -11.51545,-62.17874 -24.21875,-92.4375 -24.33038,-49.6156 -43.25966,-78.16591 -86.25,-121.15625 -18.06601,-17.99758 -27.22607,-25.58239 -46.125,-38.3125 -30.00935,-20.21397 -57.75576,-33.37777 -116,-55.0625 -46.01824,-17.13291 -63.47131,-26.56301 -79.1875,-42.75 -8.22691,-8.47336 -11.67425,-15.58942 -12.15625,-25.09375 -0.49741,-9.80817 2.21463,-18.00415 11.125,-33.5625 15.48959,-27.04633 34.51789,-53.04952 83.1875,-113.65625 35.72543,-44.48775 41.31647,-52.36065 45.6875,-64.1875 4.28762,-11.60116 5.09276,-27.4573 2,-39.6875 C 746.80737,113.97304 725.7529,90.369865 713.21875,82.3125 700.6846,74.255135 688.10303,63 659.21875,63 Z" />
    <path
       d="m 659.21875,63 -0.6875,2.75 c -0.37922,1.5125 -0.9215,5.782328 -1.21875,9.5 -0.31524,3.942589 -0.50845,5.606026 -1.21875,6.4375 3.49109,-0.579933 7.97441,-1.021753 12.90625,-1.125 0.77229,-0.01617 1.55286,-0.03355 2.34375,-0.03125 2.37268,0.0069 4.81807,0.10746 7.25,0.28125 15.78683,1.128153 18.49638,1.152554 23.40625,4.59375 3.05665,0.10441 4,-0.748599 4,-2.96875 0,-2.049526 0.0939,-3.585367 0.25,-4.78125 C 695.54402,70.508191 682.84559,63 659.21875,63 Z"
       id="Red-highlight"
       style="fill:#d40000;stroke:none" />
    <path
       style="fill:none"
       id="Conture-overlay"
       d="m 653.0625,63 c -14.38471,0 -29.81815,5.312617 -38.625,13.28125 -6.61828,5.988364 -11.86367,15.59929 -11.09375,20.34375 0.31082,1.91537 -0.10094,5.24884 -0.90625,7.53125 -2.10126,5.95562 -1.8011,9.26074 1.1875,12.8125 3.12863,4.745 1.09667,8.14603 -1.96875,15.1875 -1.38079,2.38068 -2.66355,5.90531 -2.84375,7.8125 -0.27745,2.93645 0.11507,3.66709 2.40625,4.78125 4.42673,2.15262 29.06178,7.99846 47.21875,11.1875 11.25943,1.97757 17.80214,3.59351 19.5,4.84375 3.86337,2.84485 8.00395,11.03414 8.03125,15.875 0.0613,10.88673 -18.8723,38.00222 -50.53125,72.34375 -4.81685,5.225 -22.76874,23.9 -39.875,41.5 0,0 -24.65762,25.56387 -31.09375,32 -9.85672,9.85672 -14.32536,18.73192 -20.71875,28.5 -19.885,30.64299 -34.58195,66.6509 -42.46875,104 -2.2994,10.88905 -2.63688,14.88421 -2.65625,31 -0.018,14.98634 -0.009,18.62631 3.5625,31 24.13352,83.60331 66.08916,138.56607 180.8125,236.90625 11.28074,9.66979 25.15496,21.41875 30.8125,26.09375 9.42054,7.78446 10.71589,9.28395 15.28125,17.75 7.30782,13.55169 17.15494,27.89021 31.90625,46.375 7.18859,9.00798 15.18741,19.525 17.75,23.375 4.7534,7.14145 11.22797,20.71567 11.25,23.59375 0.007,0.87726 0.7875,4.46234 1.75,5.3125 2.16599,1.9132 27.08909,12.35702 29.46875,12.40625 1.0844,0.0224 2.63464,-3.59052 4.125,-6.5625 7.06488,-14.08831 12.79571,-34.66721 16.15625,-58 2.7965,-19.4165 3.90681,-24.88424 6.03125,-29.96875 0.46032,-1.10169 2.03273,-3.37728 3.34375,-5.28125 3.6281,2.07211 6.15425,3.10907 6.9375,2.625 0.056,-1.962 2.12126,-6.96247 4.34375,-10.21875 11.58425,9.67104 37.35128,35.16118 55.69689,36.11774 0.53079,-3.55259 3.21113,-16.98562 5.24061,-17.52399 11.86506,7.88524 33.93637,22.8747 49.63229,25.82843 1.63951,-2.42154 7.58316,-20.27854 9.77396,-32.32843 2.2482,-12.36557 3.04918,-38.56865 1.59375,-52.46875 -3.17332,-30.30698 -11.51545,-62.17874 -24.21875,-92.4375 -24.33038,-49.6156 -43.25966,-78.16591 -86.25,-121.15625 -18.06601,-17.99758 -27.22607,-25.58239 -46.125,-38.3125 -30.00935,-20.21397 -57.75576,-33.37777 -116,-55.0625 -46.01824,-17.13291 -63.47131,-26.56301 -79.1875,-42.75 -8.22691,-8.47336 -11.67425,-15.58942 -12.15625,-25.09375 -0.49741,-9.80817 2.21463,-18.00415 11.125,-33.5625 15.48959,-27.04633 34.51789,-53.04952 83.1875,-113.65625 35.72543,-44.48775 41.31647,-52.36065 45.6875,-64.1875 4.28762,-11.60116 5.09276,-27.4573 2,-39.6875 C 746.80737,113.97304 725.7529,90.369865 713.21875,82.3125 700.6846,74.255135 688.10303,63 659.21875,63 Z" />
    <g
       style="stroke:none"
       id="Eye">
      <path
         style="fill:#003d8f"
         id="path3651"
         d="m 649.21945,93.39447 a 11.328665,11.328665 0 1 1 -22.65733,0 11.328665,11.328665 0 1 1 22.65733,0 z" />
      <path
         style="fill:#eeeeee"
         id="use3653"
         d="m 640.47884,94.048047 a 4.113065,4.113065 0 0 1 -8.22613,0 4.113065,4.113065 0 1 1 8.22613,0 z" />
    </g>
    <path
       style="fill:none"
       id="Wing-line"
       d="m 846.78578,812.64264 c -6.56332,-2.57589 -33.92773,-21.8592 -53.65615,-40.28311 -5.21101,-4.86644 -8.00504,-7.31601 -9.66752,-7.46026 -3.56222,5.11274 -5.38289,18.1957 -5.4371,18.98084 -2.05092,0 -27.34243,-26.09418 -42.26896,-44.0617 -7.24134,-8.71662 -13.63631,-15.69933 -14.21106,-15.51714 -3.10557,3.62274 -4.51686,8.37016 -6.06318,12.48614 -2.61836,-0.65715 -26.25464,-29.43028 -37.91656,-46.15692 -16.20258,-23.2393 -31.33581,-51.6919 -39.98439,-75.1763 -6.68302,-18.14708 -14.1835,-45.44268 -15.61697,-56.83293 -2.0196,-16.04759 -0.20862,-31.88579 5.04814,-44.14933 2.32894,-5.43319 9.01667,-15.77655 9.73575,-15.05747" />
  </g>
</svg>
