<?xml version="1.0" encoding="UTF-8" standalone="no"?>
<!-- Created with Inkscape (http://www.inkscape.org/) -->

<svg
   xmlns:dc="http://purl.org/dc/elements/1.1/"
   xmlns:cc="http://web.resource.org/cc/"
   xmlns:rdf="http://www.w3.org/1999/02/22-rdf-syntax-ns#"
   xmlns:svg="http://www.w3.org/2000/svg"
   xmlns="http://www.w3.org/2000/svg"
   version="1.0"
   width="251"
   height="304.20001"
   id="svg4166">
  <defs
     id="defs4168" />
  <metadata 
     id="metadata1880"><rdf:RDF><cc:Work
         rdf:about=""><dc:title>Solleftea kommunvapen</dc:title><dc:date>2009-12-08</dc:date><dc:creator><cc:Agent><dc:title>Lokal_Profil</dc:title></cc:Agent></dc:creator><cc:license
         rdf:resource="http://creativecommons.org/licenses/by-sa/2.5/" /><dc:rights><cc:Agent><dc:title>cc-by-sa-2.5</dc:title></cc:Agent></dc:rights><dc:format>image/svg+xml</dc:format><dc:type
         rdf:resource="http://purl.org/dc/dcmitype/StillImage" /></cc:Work><cc:License
         rdf:about="http://creativecommons.org/licenses/by-sa/2.5/"><cc:permits
         rdf:resource="http://web.resource.org/cc/Reproduction" /><cc:permits
         rdf:resource="http://web.resource.org/cc/Distribution" /><cc:requires
         rdf:resource="http://web.resource.org/cc/Notice" /><cc:requires
         rdf:resource="http://web.resource.org/cc/Attribution" /><cc:permits
         rdf:resource="http://web.resource.org/cc/DerivativeWorks" /><cc:requires
         rdf:resource="http://web.resource.org/cc/ShareAlike" /></cc:License></rdf:RDF>
  </metadata>
  <path
     d="m 249.55058,1.4395041 -248.1010509,0 0,173.4965959 C 0.68228908,268.65698 81.738969,302.75585 125.50006,302.75585 c 42.99385,0 124.81775,-34.09887 124.05052,-127.81975 l 0,-173.4965959 z"
     id="Shield"
     style="fill:#eeeeee;stroke:none" />
  <path
     d="m 249.55062,1.4395041 -248.101051,0 0,173.4965959 c -0.76723996,93.72088 80.28944,127.81975 124.050531,127.81975 42.99385,0 124.81775,-34.09887 124.05052,-127.81975 l 0,-173.4965959 z"
     id="Frame"
     style="fill:none;stroke:#000000;stroke-width:1.88832211;stroke-linecap:round" />
  <g
     transform="matrix(0.51005851,0,0,0.74944397,-2.8076335,25.626085)"
     id="Orre"
     style="fill:#000000;stroke:#000000;stroke-width:0.99212599">
    <path
       d="m 58.1692,46.3805 c 4.46032,-8.43704 21.8821,-9.54794 29.7238,-8.96826 22.5247,2.08942 77.4522,86.7359 179.153,86.5715 59.0769,0.34073 84.3421,-21.8597 84.8124,-45.4689 0.65934,-7.32218 -4.31632,-16.8982 -12.3914,-16.8942 -8.4498,0.572032 -12.3914,4.52523 -12.67,12.7052 -0.10318,8.33528 4.30214,13.8532 12.3704,14.0176 -16.2933,4.24347 -45.5477,2.00665 -46.6257,-32.0695 -0.7268,-26.6074 23.6234,-43.3528 43.4653,-43.4741 23.5571,-0.447024 49.7906,25.0688 49.777,46.1585 -0.0179,27.9576 -43.4523,54.7912 -51.1044,63.4958 2.79014,2.33887 8.30637,6.98712 14.9496,4.59326 16.645,-5.99811 44.5213,-25.3208 69.7618,-22.9246 23.3348,0.0329 53.9955,22.0433 53.9442,51.9432 0.0159,31.0686 -26.1723,46.3584 -45.5978,46.4329 -22.0896,0.34866 -38.2618,-11.4185 -38.3735,-31.0751 0.17263,-11.0937 4.57172,-15.143 8.97081,-22.2917 -0.0414,11.482 4.7075,19.0193 14.2464,19.2308 10.008,-0.0133 15.1951,-8.39651 15.3663,-14.694 -0.0323,-7.87238 -8.23578,-15.1812 -18.6931,-15.1639 -22.9306,-0.77556 -73.8233,21.4177 -107.739,42.6124 -8.32224,33.2881 -25.632,67.5749 -12.9824,96.8687 -1.7365,0 -13.7373,-13.5099 -22.6196,-13.9156 -6.2949,5.54145 -6.391,10.2379 -5.92356,16.3432 10.5168,0.60605 25.57929,8.68674 29.7269,21.2756 -5.41317,-6.4958 -18.8569,-8.21501 -18.8569,-8.21501 -1.0817,-1.61773 -1.71921,-4.6715 -6.06274,-4.8532 -4.34353,-0.1817 -5.16671,3.26268 -6.20022,5.31695 l -22.3274,3.61237 c 0,0 -18.49965,4.57979 -26.07809,16.48876 -1.08263,-14.07424 11.27279,-18.69685 11.27279,-18.69685 -15.01939,-9.43049 -24.83505,-2.81258 -36.12393,9.31215 1.78169,-16.24229 20.52883,-25.33694 28.42083,-25.62954 6.08939,0.53064 14.1514,6.41481 26.7217,3.28252 6.2144,-8.76445 10.175,-12.4571 8.50026,-24.0392 -45.819,-13.5471 -112.647,-31.2871 -129.852,-72.6633 -5.59418,0.62815 -15.4559,9.00482 -26.7466,-6.83348 10.0429,0.51448 14.923,2.14214 16.0481,-9.3138 -9.25881,3.7355 -22.4187,4.13263 -32.0253,-7.3681 9.89178,-2.26857 23.7371,-0.47679 21.5629,-15.16 -11.0849,11.4661 -25.2454,6.79692 -33.6994,-0.97059 33.6407,-11.9787 23.491,-28.5698 -5.15424,-58.841598 21.9325,-12.9592 11.0061,-32.9862 -0.946772,-40.737 L 58.1692,46.3805 z"
       id="path14" />
    <path
       d="m 174.435,127.191 c 38.4809,-2.35502 81.8096,5.12504 105.049,28.7878 -10.0783,-1.68945 -18.1843,-3.94243 -27.1355,-0.84161 28.7263,8.50763 71.8229,20.1149 94.3507,47.7828 -25.3001,-13.4915 -65.5336,-32.3362 -90.2702,-33.9934 48.2536,16.1014 106.088,36.7109 122.502,72.8178 -39.8855,-26.5555 -93.2953,-53.6746 -120.501,-55.9985 44.7132,17.4039 123.238,45.5148 141.747,92.5042 -35.6848,-30.1952 -106.487,-69.196 -129.313,-68.8893 62.0419,22.0462 141.218,66.2159 140.502,102.579 -44.0314,-46.5356 -96.4565,-66.2792 -149.16,-79.9643 -49.2996,-12.801 -99.6566,-25.1824 -113.484,-78.8205"
       id="Winglines"
       style="fill:none;stroke:#eeeeee;stroke-width:5.66929007" />
    <path
       d="m 148.876,130.315 c 42.9727,-8.06939 102.006,-3.4594 130.609,25.6643 -10.0783,-1.68945 -18.1843,-3.94243 -27.1355,-0.84161 28.7263,8.50763 71.8229,20.1149 94.3507,47.7828 -25.3001,-13.4915 -65.5336,-32.3362 -90.2702,-33.9934 48.2536,16.1014 106.088,36.7109 122.502,72.8178 -39.8855,-26.5555 -93.2953,-53.6746 -120.501,-55.9985 44.7132,17.4039 123.238,45.5148 141.747,92.5042 -35.6848,-30.1952 -106.487,-69.196 -129.313,-68.8893 62.0419,22.0462 141.218,66.2159 140.502,102.579 -44.0314,-46.5356 -96.4565,-66.2792 -149.16,-79.9643 -49.2996,-12.801 -99.6566,-25.1824 -113.484,-78.8205 l 0.15335,-22.8405 z"
       id="path18" />
    <circle
       cx="80.814697"
       cy="55.288101"
       r="4.9932299"
       id="Eye"
       style="fill:#eeeeee;stroke:#eeeeee" />
    <path
       d="M 69.9546,45.845 C 76.05901,25.283 102.6355,48.4764 99.4057,65.8502 89.1293,46.5134 76.432,45.6097 74.0469,55.7067 71.98044,53.64024 68.35776,50.44701 69.95452,45.84496 z"
       id="Eyebrow"
       style="fill:#eeeeee" />
    <path
       d="m 337.778,188.981 c 14.182,-16.2482 29.2093,-28.8337 45.6458,-42.5464 -21.9776,7.05317 -46.2096,17.6667 -65.651,30.1487 7.13792,3.85058 15.6847,7.13792 20.0052,12.3976 z"
       id="path24" />
    <path
       d="m 375.816,25.2763 c 10.707,-4.97792 21.4141,-4.03881 30.4305,-1.40882 5.07175,3.0994 7.88939,6.48057 7.88939,10.707 -0.4697,4.13235 -16.1547,29.3973 -29.0217,44.2369 6.66822,-17.8452 8.82851,-30.6184 -9.29821,-53.5351 z"
       id="path26" />
    <path
       d="m 377.289,109.726 c 10.0792,-4.42829 61.8976,-24.8618 90.6636,-26.5536 2.44205,-12.867 -12.3035,-28.4043 -18.3147,-26.0564 -5.65285,0.481323 -44.1213,32.9377 -69.2552,44.6312 20.7417,-19.2487 62.4212,-44.5856 64.747,-48.5759 -1.59647,-7.88939 -11.6461,-18.8782 -24.7952,-15.7788 -3.8829,1.42611 -18.1395,30.2122 -30.9305,43.2522 -16.1175,16.431 -27.8615,28.3218 -45.991,40.9952 4.39881,4.65874 24.7748,-7.20454 33.876,-11.914 z"
       id="path28" />
    <path
       d="m 417.813,99.2325 c 18.2205,-5.72939 50.516,-13.2829 52.958,-9.99582 5.72911,6.29263 3.00529,31.1817 0.28176,37.4746 -10.707,-10.8011 -25.3451,-26.2579 -53.2398,-27.4788 z"
       id="path30" />
    <path
       d="m 34.6,72.0491 c 10.6129,0.375591 24.3272,2.16028 32.4046,2.83e-4 -0.469701,4.50822 -6.29433,8.4532 -8.45433,10.4255 -8.73468,2.72353 -16.3426,-4.69673 -23.9502,-10.4258 z"
       id="path32" />
    <path
       d="M 28.9647,51.5699 C 47.4659,51.758121 60.0531,66.0345 67.2852,67.3492 66.25225,57.2057 59.02022,51.0058 54.042,47.9066 48.10993,43.50184 40.205,40.67456 28.9647,51.56981 z"
       id="path34" />
    <path
       d="m 39.6717,63.5962 c 7.23175,-2.44205 18.6908,1.8788 18.3152,4.79055 -0.610866,1.97433 -13.2593,0.776977 -18.3152,-4.79055 z"
       id="path36" />
  </g>
</svg>
