<?xml version="1.0" encoding="UTF-8" standalone="no"?>
<!-- Created with Inkscape (http://www.inkscape.org/) -->

<svg
   xmlns:svg="http://www.w3.org/2000/svg"
   xmlns="http://www.w3.org/2000/svg"
   version="1.0"
   width="251"
   height="304.20001"
   id="svg4166">
  <defs
     id="defs4168">
    <clipPath
       id="clipPath2507">
      <path
         d="m -162.55035,-341.16614 -248.10105,0 0,246.491199 c -0.76724,133.151726 80.28944,181.596889 124.05053,181.596889 42.99385,0 124.81775,-48.445163 124.05052,-181.596889 l 0,-246.491199 z"
         id="path2509"
         style="fill:#eeeeee;fill-opacity:1;stroke:none" />
    </clipPath>
    <clipPath
       id="clipPath2236">
      <path
         d="m -261.16618,207.87761 -116.75931,0 -116.75935,0 0,163.29916 c -0.72215,88.21235 75.57034,120.30702 116.75933,120.30702 40.46685,0 117.48146,-32.09467 116.75933,-120.30702 l 0,-163.29916 z"
         id="use2234"
         style="color:#000000;fill:#003d8f;fill-opacity:1;fill-rule:nonzero;stroke:none;stroke-width:1.88832211;marker:none;visibility:visible;display:block" />
    </clipPath>
  </defs>
  <path
     d="m 249.55062,1.4395029 -248.1010505,0 0,173.4965971 C 0.6823295,268.65698 81.73901,302.75585 125.5001,302.75585 c 42.99385,0 124.81775,-34.09887 124.05052,-127.81975 l 0,-173.4965971 z"
     id="path2194"
     style="fill:#eeeeee;fill-opacity:1;stroke:none" />
  <path
     d="m 62.967836,159.47816 c -0.79169,-1.281 3.14896,-6.66553 8.757001,-11.96561 8.669777,-8.19368 11.159946,-12.70779 16.631305,-30.14899 9.156766,-29.189113 8.972017,-28.026489 3.699583,-23.282024 -2.58277,2.324131 -6.718699,12.247244 -9.648313,23.148684 -4.342171,16.15777 -6.601186,20.5269 -14.746323,28.52075 -8.777969,8.61491 -9.894919,9.10699 -12.780294,5.63035 -2.792431,-3.36466 -2.157387,-4.65273 5.437605,-11.02912 7.317276,-6.14321 9.280525,-9.87872 13.16864,-25.05623 2.513143,-9.81021 6.102301,-20.17632 7.975909,-23.035827 3.200584,-4.884703 2.996166,-5.491348 -3.380295,-10.031783 -4.585221,-3.264992 -7.291909,-4.015521 -8.343697,-2.313669 -0.856259,1.385457 -0.415446,3.660381 0.979561,5.055412 4.672581,4.672581 2.992086,9.070773 -2.900714,7.591778 -3.44067,-0.863552 -6.472231,-0.117399 -8.256132,2.03208 -1.550469,1.868184 -5.795707,3.396705 -9.433867,3.396705 -9.129712,0 -11.894314,-7.921072 -10.061411,-28.827677 l 1.428351,-16.29228 -8.051121,-4.975869 c -8.26281,-5.106702 -10.783223,-11.441588 -4.552196,-11.441588 1.924412,0 6.058928,1.677364 9.187786,3.727475 8.916656,5.842419 9.55113,1.466699 0.845592,-5.83156 -9.838828,-8.248328 -6.937909,-11.922729 4.476687,-5.670337 l 8.575944,4.697508 3.695253,-6.438616 c 2.032376,-3.541236 5.392569,-6.438613 7.467086,-6.438613 3.817804,0 3.811513,0.248841 -0.389076,15.384352 -2.344279,8.446841 3.07491,5.850268 5.945904,-2.848954 1.503974,-4.557085 4.148487,-7.977072 6.168282,-7.977072 2.924873,0 3.274496,1.968562 2.02392,11.395817 -1.394643,10.513239 -1.143844,11.395823 3.238303,11.395823 2.612491,0 7.846772,-1.601409 11.631732,-3.558686 16.885179,-8.731666 65.609529,-12.565663 101.152169,-7.959405 8.63171,1.118654 14.76783,0.909796 16.63832,-0.566327 4.38231,-3.458384 11.3067,3.82932 7.73151,8.137169 -1.42372,1.715469 -4.60083,13.499518 -7.06025,26.186799 l -4.47167,23.067776 4.78674,19.182689 4.78674,19.1827 -8.46827,15.14273 c -4.65756,8.3285 -9.47592,15.14272 -10.70746,15.14272 -5.29949,0 -4.35271,-7.61314 2.22074,-17.85695 3.89345,-6.06741 7.07899,-13.06681 7.07899,-15.55424 0,-6.65005 -6.9302,-25.84706 -9.33089,-25.84706 -2.98014,0 -2.56848,3.66832 1.78816,15.93475 l 3.85309,10.84861 -8.98121,13.93834 c -9.57057,14.85303 -9.65656,14.92533 -14.27157,11.99916 -2.35219,-1.49142 -1.47929,-4.32483 3.98854,-12.9467 7.53076,-11.8748 8.36391,-16.9474 4.57063,-27.82879 -2.93932,-8.43172 -3.37708,-8.54729 -45.91051,-12.12018 -27.3745,-2.29951 -34.18084,-2.27194 -37.09951,0.15034 -1.96596,1.6316 -6.328875,12.16806 -9.695404,23.41436 -5.570161,18.60782 -7.029623,21.14164 -16.218799,28.15809 -10.829399,8.26887 -12.926639,9.01276 -15.171091,5.38119 z M 195.2012,83.841985 c 3.02456,-6.52823 5.09156,-12.277168 4.59331,-12.775416 -0.49825,-0.498248 -7.12257,-0.184385 -14.72073,0.697492 -12.42121,1.441616 -13.81483,2.130995 -13.81483,6.833661 0,5.352751 -3.82983,7.997128 -11.58222,7.997128 -2.85247,0 -4.37192,-1.584224 -4.37192,-4.558327 0,-2.532401 1.51945,-4.558326 3.41875,-4.558326 5.00848,0 4.17223,-3.829655 -1.13958,-5.218714 -5.62352,-1.470585 -5.97399,-6.233648 -0.5628,-7.648713 3.21718,-0.841307 3.83845,-3.019663 3.18923,-11.18244 -0.75811,-9.532211 -1.20909,-10.137589 -7.55177,-10.137589 l -6.74551,0 1.58935,21.652058 c 1.51617,20.654757 1.37965,21.652051 -2.96375,21.652051 -3.79071,0 -4.79379,-2.003636 -5.99037,-11.965607 -0.79048,-6.581084 -1.44615,-16.387366 -1.45705,-21.791718 l -0.0198,-9.826086 -10.82603,1.417751 c -14.77621,1.935033 -31.101466,7.987328 -28.516735,10.572058 1.23934,1.239341 5.496975,0.636821 10.616985,-1.502447 9.03048,-3.773177 15.81673,-2.881705 22.45808,2.950172 5.46431,4.798299 5.05584,13.460145 -0.78207,16.584491 -6.16507,3.299453 -12.2106,1.697657 -38.533504,-10.209603 C 62.688251,49.796073 58.514123,48.914903 52.777173,54.651853 c -3.662456,3.662433 -4.593038,7.594605 -4.593038,19.407599 0,8.148008 0.866675,14.814561 1.925916,14.814561 3.177039,0 9.072642,-7.609214 12.791279,-16.509187 l 3.495256,-8.365282 22.232258,12.872828 22.232276,12.872828 29.62913,2.674393 c 51.73689,4.669892 48.32549,5.20472 54.71095,-8.577608 z M 123.96632,62.663636 c 0.31338,-1.25354 -2.50708,-2.558794 -6.2677,-2.900555 -6.53893,-0.594269 -6.64247,-0.468504 -2.37133,2.879678 4.75492,3.727411 7.71061,3.734568 8.63903,0.02088 z m 74.24686,-4.325396 c 1.81403,-1.814032 2.70186,-4.852316 1.97296,-6.751771 -1.44583,-3.767844 -14.97944,-8.262819 -24.93865,-8.283017 -6.70222,-0.01359 -7.22388,1.474131 -4.78779,13.654526 l 1.4799,7.399555 11.48769,-1.360547 c 6.31823,-0.748295 12.97188,-2.844737 14.78589,-4.658746 z m -22.3959,-5.930839 c 0,-5.21901 8.63274,-6.409736 13.21915,-1.82333 4.58508,4.585061 3.1093,6.381657 -5.24208,6.381657 -6.45762,0 -7.97707,-0.868248 -7.97707,-4.558327 z"
     id="path2235"
     style="fill:#d40000;fill-opacity:1" />
  <g
     transform="matrix(1,0,0,0.7038653,412.10097,243.35976)"
     clip-path="url(#clipPath2507)"
     id="g2501">
    <path
       d="m -83.341918,-146.69448 c -5.04262,1.46154 -12.88544,5.65748 -17.729852,10.50189 -11.68275,11.68275 -0.15013,27.56731 -11.83288,39.250065 -11.68276,11.682762 -27.56734,0.150115 -39.25009,11.832905 -11.68274,11.682752 -0.15014,27.567312 -11.83289,39.250062 -11.68276,11.68277 -27.56733,0.15012 -39.25006,11.8329 -11.68278,11.68277 -0.15015,27.5673098 -11.8329,39.2500698 -11.68278,11.6827702 -27.56734,0.15012 -39.25006,11.8328802 -11.68277,11.68278 -0.15017,27.56735 -11.83292,39.25009 -5.84138,5.84139 -12.59907,8.87109 -20.44733,8.87109 -7.84826,0 -14.60594,-3.0297 -20.44733,-8.87109 -11.68274,-11.68274 -0.15015,-27.56731 -11.83291,-39.25009 -11.68273,-11.6827602 -27.56728,-0.15011 -39.25005,-11.8328802 -11.68277,-11.68276 -0.15013,-27.5672998 -11.8329,-39.2500678 -11.68275,-11.682783 -27.56732,-0.150137 -39.25008,-11.832905 -11.68275,-11.682748 -0.15015,-27.567311 -11.83289,-39.250059 -11.68275,-11.68279 -27.56732,-0.150143 -39.25008,-11.832905 -11.68275,-11.682755 -0.15013,-27.567315 -11.83288,-39.250065 -4.84442,-4.84441 -12.68723,-9.04035 -17.72985,-10.50189"
       id="path2492"
       style="fill:none;stroke:#003d8f;stroke-width:16;stroke-linecap:butt;stroke-linejoin:miter;stroke-opacity:1" />
    <path
       d="m -83.341916,-219.38738 c -5.04262,1.46154 -12.88544,5.65748 -17.729854,10.50189 -11.68275,11.68275 -0.15014,27.56731 -11.83289,39.25007 -11.68276,11.68276 -27.56734,0.15011 -39.25009,11.8329 -11.68274,11.68275 -0.15014,27.56731 -11.83289,39.25006 -11.68276,11.68277 -27.56733,0.15012 -39.25006,11.8329 -11.68278,11.68277 -0.15015,27.567311 -11.8329,39.250071 -11.68278,11.68277 -27.56734,0.15012 -39.25006,11.83288 -11.68276,11.68278 -0.15017,27.56735 -11.83291,39.250089 -5.84138,5.84139 -12.59907,8.8710896 -20.44733,8.8710896 -7.84826,0 -14.60595,-3.0296996 -20.44733,-8.8710896 -11.68274,-11.682739 -0.15015,-27.567309 -11.83291,-39.250089 -11.68273,-11.68276 -27.56729,-0.15011 -39.25006,-11.83288 -11.68276,-11.68276 -0.15013,-27.567301 -11.8329,-39.250071 -11.68274,-11.68278 -27.56731,-0.15013 -39.25007,-11.8329 -11.68275,-11.68275 -0.15015,-27.56731 -11.83289,-39.25006 -11.68275,-11.68279 -27.56732,-0.15014 -39.25008,-11.8329 -11.68275,-11.68276 -0.15014,-27.56732 -11.83289,-39.25007 -4.84441,-4.84441 -12.68723,-9.04035 -17.72985,-10.50189"
       id="path2499"
       style="fill:none;stroke:#003d8f;stroke-width:16;stroke-linecap:butt;stroke-linejoin:miter;stroke-opacity:1" />
  </g>
  <g
     transform="matrix(1.062446,0,0,1.062446,-537.32626,91.24055)"
     clip-path="url(#clipPath2236)"
     id="dubbelbro">
    <g
       transform="matrix(0.559045,0,0,0.559046,-17.24362,-31.65687)"
       id="Bro">
      <path
         d="m -27.476611,354.49636 0,187.7832 282.620711,0 0,-187.7832 -282.620711,0 z"
         id="feldu-1"
         style="fill:#eeeeee;fill-opacity:1;fill-rule:evenodd;stroke:none" />
      <path
         d="m 48.254405,482.92772 c -17.970851,183.35055 137.021195,62.2427 187.902095,61.38399 11.92559,-0.20127 11.3456,14.79629 8.58919,-61.38399 -11.74732,-44.62759 -52.09782,-79.30868 -98.24564,-79.30868 -46.14782,0 -86.498322,34.68109 -98.245645,79.30868 z"
         id="Valv"
         style="fill:#003d8f;fill-opacity:1;fill-rule:evenodd;stroke:none" />
      <g
         id="Valvstenar">
        <path
           d="m 85.551363,396.25076 c 9.889404,-7.68439 21.845667,-12.24519 34.340497,-13.09942"
           id="steink-1"
           style="fill:none;stroke:#003d8f;stroke-width:1.36452281;stroke-linecap:butt;stroke-linejoin:miter;stroke-miterlimit:10;stroke-opacity:1" />
        <path
           d="m 207.44873,396.25076 c -9.8894,-7.68439 -21.84566,-12.24519 -34.34048,-13.09942"
           id="steink-2"
           style="fill:none;stroke:#003d8f;stroke-width:1.36452281;stroke-linecap:butt;stroke-linejoin:miter;stroke-miterlimit:10;stroke-opacity:1" />
        <path
           d="m 50.801515,425.63348 -8.187137,10.91619"
           id="steink-3"
           style="fill:none;stroke:#003d8f;stroke-width:1.36452281;stroke-linecap:butt;stroke-linejoin:miter;stroke-miterlimit:10;stroke-opacity:1" />
        <path
           d="m 242.19858,425.63348 8.95259,12.19194"
           id="steink-4"
           style="fill:none;stroke:#003d8f;stroke-width:1.36452281;stroke-linecap:butt;stroke-linejoin:miter;stroke-miterlimit:10;stroke-opacity:1" />
        <path
           d="M 134.49225,448.64844 117.84507,374.9642 c 18.71346,-5.45809 38.5965,-5.45809 57.30996,0 l -16.64718,73.68424"
           id="steing-1"
           style="fill:none;stroke:#003d8f;stroke-width:1.36452281;stroke-linecap:butt;stroke-linejoin:miter;stroke-miterlimit:10;stroke-opacity:1" />
        <path
           d="m 212.99779,448.64844 35.84147,-28.65498 c -10.02292,-13.21861 -22.53957,-24.34452 -36.84212,-32.74855 l -35.11371,61.40353"
           id="steing-2"
           style="fill:none;stroke:#003d8f;stroke-width:1.36452281;stroke-linecap:butt;stroke-linejoin:miter;stroke-miterlimit:10;stroke-opacity:1" />
        <path
           d="M 80.002306,448.64844 44.160837,419.99346 C 54.18376,406.77485 66.70041,395.64894 81.002953,387.24491 l 35.113717,61.40353"
           id="steing-3"
           style="fill:none;stroke:#003d8f;stroke-width:1.36452281;stroke-linecap:butt;stroke-linejoin:miter;stroke-miterlimit:10;stroke-opacity:1" />
      </g>
    </g>
    <g
       transform="matrix(-0.559045,0,0,0.559046,263.1862,-31.65687)"
       id="Bro2">
      <path
         d="m -27.476611,354.49636 0,187.7832 278.339361,0 0,-187.7832 -278.339361,0 z"
         id="path3319"
         style="fill:#eeeeee;fill-opacity:1;fill-rule:evenodd;stroke:none" />
      <path
         d="m 48.254405,482.92772 c -16.612336,171.12395 137.021195,62.2427 187.902095,61.38399 11.92559,-0.20127 11.3456,14.79629 8.58919,-61.38399 -11.74732,-44.62759 -52.09782,-79.30868 -98.24564,-79.30868 -46.14782,0 -86.498322,34.68109 -98.245645,79.30868 z"
         id="path3321"
         style="fill:#003d8f;fill-opacity:1;fill-rule:evenodd;stroke:none" />
      <g
         id="g3323">
        <path
           d="m 85.551363,396.25076 c 9.889404,-7.68439 21.845667,-12.24519 34.340497,-13.09942"
           id="path3325"
           style="fill:none;stroke:#003d8f;stroke-width:1.36452281;stroke-linecap:butt;stroke-linejoin:miter;stroke-miterlimit:10;stroke-opacity:1" />
        <path
           d="m 207.44873,396.25076 c -9.8894,-7.68439 -21.84566,-12.24519 -34.34048,-13.09942"
           id="path3327"
           style="fill:none;stroke:#003d8f;stroke-width:1.36452281;stroke-linecap:butt;stroke-linejoin:miter;stroke-miterlimit:10;stroke-opacity:1" />
        <path
           d="m 50.801515,425.63348 -8.187137,10.91619"
           id="path3329"
           style="fill:none;stroke:#003d8f;stroke-width:1.36452281;stroke-linecap:butt;stroke-linejoin:miter;stroke-miterlimit:10;stroke-opacity:1" />
        <path
           d="m 242.19858,425.63348 8.95259,12.19194"
           id="path3331"
           style="fill:none;stroke:#003d8f;stroke-width:1.36452281;stroke-linecap:butt;stroke-linejoin:miter;stroke-miterlimit:10;stroke-opacity:1" />
        <path
           d="M 134.49225,448.64844 117.84507,374.9642 c 18.71346,-5.45809 38.5965,-5.45809 57.30996,0 l -16.64718,73.68424"
           id="path3333"
           style="fill:none;stroke:#003d8f;stroke-width:1.36452281;stroke-linecap:butt;stroke-linejoin:miter;stroke-miterlimit:10;stroke-opacity:1" />
        <path
           d="m 212.99779,448.64844 35.84147,-28.65498 c -10.02292,-13.21861 -22.53957,-24.34452 -36.84212,-32.74855 l -35.11371,61.40353"
           id="path3335"
           style="fill:none;stroke:#003d8f;stroke-width:1.36452281;stroke-linecap:butt;stroke-linejoin:miter;stroke-miterlimit:10;stroke-opacity:1" />
        <path
           d="M 80.002306,448.64844 44.160837,419.99346 C 54.18376,406.77485 66.70041,395.64894 81.002953,387.24491 l 35.113717,61.40353"
           id="path3337"
           style="fill:none;stroke:#003d8f;stroke-width:1.36452281;stroke-linecap:butt;stroke-linejoin:miter;stroke-miterlimit:10;stroke-opacity:1" />
      </g>
    </g>
    <rect
       width="6.6574359"
       height="40.115314"
       x="119.58568"
       y="229.47798"
       id="Middle-pillar-extension"
       style="fill:#eeeeee;fill-opacity:1;fill-rule:evenodd;stroke:none" />
  </g>
  <path
     d="m 249.55062,1.4395041 -248.101051,0 0,173.4965959 c -0.76723996,93.72088 80.28944,127.81975 124.050531,127.81975 42.99385,0 124.81775,-34.09887 124.05052,-127.81975 l 0,-173.4965959 z"
     id="Frame"
     style="fill:none;stroke:#000000;stroke-width:1.88832211;stroke-linejoin:bevel" />
</svg>
