<?xml version="1.0" encoding="UTF-8" standalone="no"?>
<!-- Created with Inkscape (http://www.inkscape.org/) -->
<svg
   xmlns:svg="http://www.w3.org/2000/svg"
   xmlns="http://www.w3.org/2000/svg"
   version="1.0"
   width="251"
   height="304.20001"
   id="svg4166">
  <defs
     id="defs4168">
    <clipPath
       id="clipPath2246">
      <path
         d="M -8.75959,60.17435 L -256.86062,60.07349 L -256.86062,97.1037 C -257.62792,190.82458 -176.57121,224.92345 -132.81012,224.92345 C -89.81627,224.92345 -7.99236,190.82458 -8.75959,97.1037 L -8.75959,60.17435 z "
         id="path2248" />
    </clipPath>
  </defs>
  <path
     d="M 249.55058,1.4395041 L 1.4495291,1.4395041 L 1.4495291,174.9361 C 0.68228908,268.65698 81.738969,302.75585 125.50006,302.75585 C 168.49391,302.75585 250.31781,268.65698 249.55058,174.9361 L 249.55058,1.4395041 z "
     style="color:#000000;fill:#d40000;fill-opacity:1;stroke:none"
     id="Shield" />
  <g
     transform="matrix(8.5870692e-2,0,0,0.2437785,319.61113,50.404411)"
     id="g3225">
    <path
       d="M -3563.2553,219.47587 C -3095.2552,167.83449 -1258.7586,149.27587 -961.82073,178.32415"
       style="fill:none;fill-rule:evenodd;stroke:#000000;stroke-width:27.64647865;stroke-linecap:butt;stroke-linejoin:miter;stroke-opacity:1"
       id="path2210" />
    <path
       d="M -3152.7488,248.61114 L -3144.1692,-23.017134"
       style="fill:none;fill-rule:evenodd;stroke:#000000;stroke-width:27.64647865;stroke-linecap:butt;stroke-linejoin:miter;stroke-miterlimit:4;stroke-dasharray:none;stroke-opacity:1"
       id="path3183" />
    <path
       d="M -3046.4144,-14.204857 L -3040.0065,224.71872"
       style="fill:none;fill-rule:evenodd;stroke:#000000;stroke-width:27.64647865;stroke-linecap:butt;stroke-linejoin:miter;stroke-miterlimit:4;stroke-dasharray:none;stroke-opacity:1"
       id="path3185" />
    <path
       d="M -3133.8342,-0.3864275 L -3047.2283,6.8416002"
       style="fill:none;fill-rule:evenodd;stroke:#000000;stroke-width:29.06337929;stroke-linecap:butt;stroke-linejoin:miter;stroke-opacity:1"
       id="path3187" />
    <path
       d="M -1688.4992,216.8173 C -1688.4992,209.92756 -1687.8309,-95.18939 -1687.8309,-95.18939"
       style="fill:none;fill-rule:evenodd;stroke:#000000;stroke-width:27.64647865;stroke-linecap:butt;stroke-linejoin:miter;stroke-opacity:1"
       id="path3189" />
    <path
       d="M -1592.6223,-82.217853 L -1586.6532,206.26696"
       style="fill:none;fill-rule:evenodd;stroke:#000000;stroke-width:27.64647865;stroke-linecap:butt;stroke-linejoin:miter;stroke-opacity:1"
       id="path3191" />
    <path
       d="M -1681.7754,-69.70513 L -1600.3938,-62.62591"
       style="fill:none;fill-rule:evenodd;stroke:#000000;stroke-width:34.75227737;stroke-linecap:butt;stroke-linejoin:miter;stroke-opacity:1"
       id="path3193" />
    <path
       d="M -3117.0415,-16.944828 C -3120.2691,-16.944828 -3522.9105,209.79311 -3522.9105,209.79311"
       style="fill:none;fill-rule:evenodd;stroke:#000000;stroke-width:3.45580983;stroke-linecap:butt;stroke-linejoin:miter;stroke-opacity:1"
       id="path3195" />
    <path
       d="M -3429.3105,200.11035 L -3044.4208,-10.489656"
       style="fill:none;fill-rule:evenodd;stroke:#000000;stroke-width:3.45580983;stroke-linecap:butt;stroke-linejoin:miter;stroke-opacity:1"
       id="path3197" />
    <path
       d="M -3116.2346,-16.137932 L -3342.1657,205.75863"
       style="fill:none;fill-rule:evenodd;stroke:#000000;stroke-width:3.45580983;stroke-linecap:butt;stroke-linejoin:miter;stroke-opacity:1"
       id="path3199" />
    <path
       d="M -3255.8277,193.65518 L -3043.6139,-11.296552"
       style="fill:none;fill-rule:evenodd;stroke:#000000;stroke-width:3.45580983;stroke-linecap:butt;stroke-linejoin:miter;stroke-opacity:1"
       id="path3201" />
    <path
       d="M -3117.0415,-14.524139 L -2863.676,186.39311"
       style="fill:none;fill-rule:evenodd;stroke:#000000;stroke-width:3.45580983;stroke-linecap:butt;stroke-linejoin:miter;stroke-opacity:1"
       id="path3203" />
    <path
       d="M -2812.0346,181.55173 L -3045.2277,-9.682759"
       style="fill:none;fill-rule:evenodd;stroke:#000000;stroke-width:3.45580983;stroke-linecap:butt;stroke-linejoin:miter;stroke-opacity:1"
       id="path3205" />
    <path
       d="M -3117.8484,-16.944828 L -2594.1725,172.67587"
       style="fill:none;fill-rule:evenodd;stroke:#000000;stroke-width:3.45580983;stroke-linecap:butt;stroke-linejoin:miter;stroke-opacity:1"
       id="path3207" />
    <path
       d="M -2570.7725,167.83449 L -3045.2277,-9.682759"
       style="fill:none;fill-rule:evenodd;stroke:#000000;stroke-width:3.45580983;stroke-linecap:butt;stroke-linejoin:miter;stroke-opacity:1"
       id="path3209" />
    <path
       d="M -1651.7173,-90.372417 L -2338.3863,171.06208"
       style="fill:none;fill-rule:evenodd;stroke:#000000;stroke-width:3.45580983;stroke-linecap:butt;stroke-linejoin:miter;stroke-opacity:1"
       id="path3211" />
    <path
       d="M -2246.4001,160.57242 L -1652.5242,-67.779313"
       style="fill:none;fill-rule:evenodd;stroke:#000000;stroke-width:3.45580983;stroke-linecap:butt;stroke-linejoin:miter;stroke-opacity:1"
       id="path3213" />
    <path
       d="M -1651.7173,-88.758624 L -2007.5587,171.86897"
       style="fill:none;fill-rule:evenodd;stroke:#000000;stroke-width:3.45580983;stroke-linecap:butt;stroke-linejoin:miter;stroke-opacity:1"
       id="path3215" />
    <path
       d="M -1937.3587,158.95863 L -1619.4414,-79.882762"
       style="fill:none;fill-rule:evenodd;stroke:#000000;stroke-width:3.45580983;stroke-linecap:butt;stroke-linejoin:miter;stroke-opacity:1"
       id="path3217" />
    <path
       d="M -1651.7173,-90.372417 L -967.469,164.6069"
       style="fill:none;fill-rule:evenodd;stroke:#000000;stroke-width:3.45580983;stroke-linecap:butt;stroke-linejoin:miter;stroke-opacity:1"
       id="path3219" />
    <path
       d="M -1616.2139,-68.58621 L -1248.269,165.4138"
       style="fill:none;fill-rule:evenodd;stroke:#000000;stroke-width:3.45580983;stroke-linecap:butt;stroke-linejoin:miter;stroke-opacity:1"
       id="path3221" />
    <path
       d="M -1268.4414,164.6069 L -1655.7518,-86.337934"
       style="fill:none;fill-rule:evenodd;stroke:#000000;stroke-width:3.45580983;stroke-linecap:butt;stroke-linejoin:miter;stroke-opacity:1"
       id="path3223" />
  </g>
  <path
     d="M 249.55057,138.00675 L 1.449541,137.90589 L 1.449541,174.9361 C 0.68224097,268.65698 81.738951,302.75585 125.50004,302.75585 C 168.49389,302.75585 250.3178,268.65698 249.55057,174.9361 L 249.55057,138.00675 z "
     style="color:#000000;fill:#eeeeee;fill-opacity:1;stroke:none"
     id="path3379" />
  <g
     transform="translate(259.02336,77.8324)"
     clip-path="url(#clipPath2246)"
     id="g4192">
    <g
       id="g4196">
      <path
         d="M -225.97645,112.36095 C -241.34027,112.36095 -246.80743,120.89564 -255.16395,126.92345 C -253.93488,132.96344 -252.33056,138.66848 -250.3827,144.0797 C -244.21749,138.81197 -238.259,133.36094 -225.97645,133.36095 C -202.23945,133.36095 -202.21346,153.79842 -178.47645,153.79845 C -154.73946,153.79845 -154.74471,133.36094 -131.00771,133.36095 C -107.2707,133.36095 -107.27596,153.79842 -83.538957,153.79845 C -59.801957,153.79845 -59.838457,133.36094 -36.101457,133.36095 C -26.776637,133.36095 -21.090287,136.50658 -16.195207,140.3297 C -14.406357,134.83328 -12.940327,129.04062 -11.882707,122.92345 C -17.974677,117.70309 -23.951157,112.36095 -36.101457,112.36095 C -59.838467,112.36095 -59.801957,132.79845 -83.538957,132.79845 C -107.27597,132.79843 -107.2707,112.36095 -131.00771,112.36095 C -154.74472,112.36095 -154.73946,132.79845 -178.47645,132.79845 C -202.21347,132.79843 -202.23945,112.36095 -225.97645,112.36095 z M -243.47645,159.5797 C -245.47879,155.67465 -245.52035,155.69883 -243.47645,159.5797 z M -243.47645,159.5797 C -240.29915,165.50193 -236.7033,170.98335 -232.7577,176.0172 C -230.71719,175.60809 -228.4915,175.36094 -225.97645,175.36095 C -202.23945,175.36095 -202.21346,195.79843 -178.47645,195.79845 C -154.73946,195.79845 -154.74471,175.36093 -131.00771,175.36095 C -107.2707,175.36095 -107.27596,195.79843 -83.538957,195.79845 C -59.801957,195.79845 -59.838457,175.36093 -36.101457,175.36095 C -35.630917,175.36095 -35.178847,175.37648 -34.726457,175.3922 C -30.391057,169.81471 -26.484677,163.70561 -23.101457,157.04845 C -26.597027,155.42862 -30.733017,154.36095 -36.101457,154.36095 C -59.838457,154.36094 -59.801957,174.79844 -83.538957,174.79845 C -107.27596,174.79842 -107.2707,154.36095 -131.00771,154.36095 C -154.74471,154.36094 -154.73945,174.79844 -178.47645,174.79845 C -202.21347,174.79842 -202.23944,154.36095 -225.97645,154.36095 C -233.82716,154.36095 -239.08767,156.59702 -243.47645,159.5797 z M -131.00771,196.36095 C -153.83188,196.36096 -154.71559,215.25138 -175.85145,216.7047 C -160.70236,222.35648 -145.88083,224.92345 -133.88271,224.92345 C -121.67364,224.92345 -106.35257,222.16315 -90.663957,216.0797 C -107.55661,212.47342 -109.92564,196.36094 -131.00771,196.36095 z M -64.570207,202.7047 C -60.797557,200.11099 -60.770807,200.15285 -64.570207,202.7047 z "
         style="color:#000000;fill:#003d8f;fill-opacity:1;fill-rule:nonzero;stroke:none;stroke-width:2;stroke-linecap:round;stroke-linejoin:bevel;marker:none;marker-start:none;marker-mid:none;marker-end:none;stroke-miterlimit:4;stroke-dashoffset:0;stroke-opacity:1;visibility:visible;display:block"
         id="path4188" />
      <path
         d="M -225.97645,73.090821 C -241.34027,73.090821 -252.08513,82.338714 -260.86957,88.937086 C -259.6405,94.977076 -260.74635,104.39077 -258.79849,109.80199 C -252.63328,104.53426 -238.259,94.090811 -225.97645,94.090821 C -202.23945,94.090821 -202.21346,114.52829 -178.47645,114.52832 C -154.73946,114.52832 -154.74471,94.090811 -131.00771,94.090821 C -107.2707,94.090821 -107.27596,114.52829 -83.538957,114.52832 C -59.801957,114.52832 -59.838457,94.090811 -36.101457,94.090821 C -26.776637,94.090821 -11.818654,102.65679 -7.7794168,109.618 C -5.9905668,104.12158 -5.8083014,94.762909 -4.7506814,88.645739 C -8.8456842,82.426895 -23.951157,73.090821 -36.101457,73.090821 C -59.838467,73.090821 -59.801957,93.528321 -83.538957,93.528321 C -107.27597,93.528301 -107.2707,73.090821 -131.00771,73.090821 C -154.74472,73.090821 -154.73946,93.528321 -178.47645,93.528321 C -202.21347,93.528301 -202.23945,73.090821 -225.97645,73.090821 z "
         style="color:#000000;fill:#003d8f;fill-opacity:1;fill-rule:nonzero;stroke:none;stroke-width:2;stroke-linecap:round;stroke-linejoin:bevel;marker:none;marker-start:none;marker-mid:none;marker-end:none;stroke-miterlimit:4;stroke-dashoffset:0;stroke-opacity:1;visibility:visible;display:block"
         id="path4190" />
    </g>
  </g>
  <path
     d="M 249.55062,1.4395041 L 1.449569,1.4395041 L 1.449569,174.9361 C 0.68232904,268.65698 81.739009,302.75585 125.5001,302.75585 C 168.49395,302.75585 250.31785,268.65698 249.55062,174.9361 L 249.55062,1.4395041 z "
     style="fill:none;fill-opacity:0;stroke:#000000;stroke-width:1.88832211;stroke-linejoin:bevel"
     id="Frame" />
</svg>
