<?xml version="1.0" encoding="UTF-8" standalone="no"?>
<!-- Created with Inkscape (http://www.inkscape.org/) -->
<svg
   xmlns:dc="http://purl.org/dc/elements/1.1/"
   xmlns:cc="http://web.resource.org/cc/"
   xmlns:rdf="http://www.w3.org/1999/02/22-rdf-syntax-ns#"
   xmlns:svg="http://www.w3.org/2000/svg"
   xmlns="http://www.w3.org/2000/svg"
   xmlns:xlink="http://www.w3.org/1999/xlink"
   version="1.0"
   width="251"
   height="304.20001"
   id="svg4166">
  <metadata
     id="metadata1880"><rdf:RDF><cc:Work
         rdf:about=""><dc:title>Nordmaling kommunvapen</dc:title><dc:date>11-10-2007</dc:date><dc:creator><cc:Agent><dc:title>Lokal_Profil</dc:title></cc:Agent></dc:creator><cc:license
         rdf:resource="http://creativecommons.org/licenses/by-sa/2.5/" /><dc:rights><cc:Agent><dc:title>cc-by-sa-2.5</dc:title></cc:Agent></dc:rights><dc:format>image/svg+xml</dc:format><dc:type
         rdf:resource="http://purl.org/dc/dcmitype/StillImage" /></cc:Work><cc:License
         rdf:about="http://creativecommons.org/licenses/by-sa/2.5/"><cc:permits
         rdf:resource="http://web.resource.org/cc/Reproduction" /><cc:permits
         rdf:resource="http://web.resource.org/cc/Distribution" /><cc:requires
         rdf:resource="http://web.resource.org/cc/Notice" /><cc:requires
         rdf:resource="http://web.resource.org/cc/Attribution" /><cc:permits
         rdf:resource="http://web.resource.org/cc/DerivativeWorks" /><cc:requires
         rdf:resource="http://web.resource.org/cc/ShareAlike" /></cc:License></rdf:RDF>
  </metadata>
  <defs
     id="defs4168">
    <clipPath
       id="clipPath5903">
      <use
         transform="translate(-2.999924e-7,-142)"
         id="use5901"
         x="0"
         y="0"
         width="1"
         height="1"
         xlink:href="#Shield" />
    </clipPath>
    <clipPath
       id="clipPath5906">
      <use
         transform="matrix(0.981911,0,0,0.981911,10.79705,8.949946)"
         id="use5908"
         x="0"
         y="0"
         width="1"
         height="1"
         xlink:href="#Shield" />
    </clipPath>
  </defs>
  <path
     d="M 249.55058,1.4395041 L 125.50008,1.4395041 L 1.4495291,1.4395041 L 1.4495291,174.9361 C 0.68228908,268.65698 81.738969,302.75585 125.50006,302.75585 C 168.49391,302.75585 250.31781,268.65698 249.55058,174.9361 L 249.55058,1.4395041 z "
     style="color:#000000;fill:#003d8f;fill-opacity:1;fill-rule:nonzero;stroke:none;stroke-width:1.88832211;stroke-linecap:round;stroke-linejoin:bevel;marker:none;marker-start:none;marker-mid:none;marker-end:none;stroke-miterlimit:4;stroke-dashoffset:0;stroke-opacity:1;visibility:visible;display:block"
     id="Shield" />
  <g
     id="Pike">
    <path
       d="M 157.56817,110.31711 C 132.50155,111.6974 107.33612,109.7467 82.594983,111.26283 C 71.371657,112.4408 59.221482,112.29848 49.114138,115.0566 C 45.942777,115.92201 44.795122,116.4696 39.211195,117.63289 C 35.389239,118.71526 31.208472,119.57684 28.373403,121.29622 C 25.036742,123.31978 17.735496,125.27567 8.9806002,127.26407 C 6.218409,128.1078 5.7980664,129.31894 9.1718599,129.77954 C 12.722402,130.08977 16.575994,130.51296 19.601572,131.87312 C 16.027362,132.36059 10.070136,132.39663 6.8370752,130.70558 C 5.4809843,130.41475 5.3678002,130.89337 5.5890339,131.73181 C 9.7125665,135.00608 15.715353,135.65984 21.59027,136.48217 C 27.790672,138.62065 33.474475,140.36346 41.113518,140.81947 C 44.317492,141.56935 47.608848,141.08749 49.657655,142.43916 C 50.678421,142.93574 51.732815,143.29908 52.820944,143.5262 L 53.19054,142.66743 L 57.071273,142.03695 L 61.669455,143.7436 C 69.327252,144.00716 81.157743,144.85742 91.280439,144.74368 C 99.155189,145.02909 108.7101,144.10394 113.64086,146.51555 C 115.58852,145.56406 117.07935,144.44305 122.85896,144.885 C 135.32061,145.13506 147.73257,145.04228 160.01401,144.21103 C 161.99335,143.95492 163.76084,143.35779 166.24275,143.93927 C 174.50753,144.1367 181.47312,142.59245 187.79876,138.10186 C 189.44813,136.99013 191.10468,136.14889 193.63617,135.52558 C 200.56435,134.89689 207.48604,134.37859 214.19211,137.52573 C 215.64084,131.9169 213.15592,129.36093 214.43125,126.62272 C 211.4272,123.56033 212.61266,119.32975 211.10491,116.52411 C 206.68871,119.37674 189.9647,120.27122 186.85304,116.54585 C 180.05319,112.52101 170.68951,110.18782 157.56817,110.31711 z "
       style="fill:#eeeeee;fill-opacity:1;fill-rule:evenodd;stroke:none;stroke-width:1.50963902;stroke-linecap:butt;stroke-linejoin:miter;stroke-miterlimit:4;stroke-dasharray:none;stroke-opacity:1"
       id="path5654" />
    <path
       d="M 242.00947,102.8274 C 240.71946,102.81947 239.03293,103.19317 237.01996,103.80574 C 227.5598,106.68453 219.59682,110.98287 211.10491,116.52411 C 212.69273,119.66824 211.34247,123.48311 214.43446,126.62272 C 213.15912,129.36093 215.6427,131.92218 214.19397,137.53101 C 214.19397,137.53101 241.02777,148.80104 243.16173,145.88507 C 246.37363,140.09983 243.14822,137.04978 237.29172,123.8725 C 239.59494,120.75988 246.73269,111.78764 244.6075,104.13185 C 244.18591,103.22107 243.29948,102.83533 242.00947,102.8274 z "
       style="fill:#ffcd50;fill-opacity:1;fill-rule:evenodd;stroke:#003d8f;stroke-width:1.00448573;stroke-linecap:butt;stroke-linejoin:miter;stroke-miterlimit:4;stroke-dasharray:none;stroke-opacity:1"
       id="path5656" />
    <path
       d="M 57.071767,142.04074 L 53.188392,142.66282 L 52.647017,143.91753 C 56.461398,152.12162 60.12446,161.48439 64.919703,162.332 C 70.180537,161.48889 69.37204,155.38396 67.028561,147.95045 C 65.54446,146.48695 63.223804,145.43842 61.829544,143.8136 L 57.071767,142.04074 z "
       style="fill:#ffcd50;fill-opacity:1;fill-rule:evenodd;stroke:#003d8f;stroke-width:1.00448573;stroke-linecap:butt;stroke-linejoin:miter;stroke-miterlimit:4;stroke-dasharray:none;stroke-opacity:1"
       id="path5658" />
    <path
       d="M 193.56008,135.57993 L 191.12511,136.32999 C 191.12204,136.33121 191.11731,136.32876 191.11424,136.32999 C 189.86819,136.82621 188.82962,137.40703 187.79876,138.10186 C 181.50931,142.56675 174.5868,144.1158 166.38406,143.93927 C 175.63515,148.67943 181.73305,154.95296 193.56008,155.90759 C 200.29941,155.15679 205.36508,152.88906 203.24561,142.8631 C 202.18993,137.70712 198.67437,136.47163 193.56008,135.57993 z "
       style="fill:#ffcd50;fill-opacity:1;fill-rule:evenodd;stroke:#003d8f;stroke-width:1.00448573;stroke-linecap:butt;stroke-linejoin:miter;stroke-miterlimit:4;stroke-dasharray:none;stroke-opacity:1"
       id="path5660" />
    <path
       d="M 183.33103,94.674595 C 181.32733,94.698082 179.07028,95.197073 176.41745,96.42473 C 175.19986,97.031424 163.95387,105.80989 157.83993,110.24101 L 158.18778,110.31711 C 170.86504,110.2678 179.99309,112.54221 186.66824,116.43715 C 192.27528,116.19379 192.96911,115.96305 195.85373,115.7197 C 198.1765,115.5102 198.8378,114.45729 199.29965,113.31734 C 201.46694,104.65944 198.51516,101.12887 194.36449,98.664034 C 190.91878,96.862097 187.73916,94.622925 183.33103,94.674595 z "
       style="fill:#ffcd50;fill-opacity:1;fill-rule:evenodd;stroke:#003d8f;stroke-width:1.00448573;stroke-linecap:butt;stroke-linejoin:miter;stroke-miterlimit:4;stroke-dasharray:none;stroke-opacity:1"
       id="path5662" />
    <path
       d="M 120.03266,144.78716 C 116.5077,144.8539 115.22334,145.74246 113.64086,146.51555 C 113.60455,146.49779 113.56897,146.4786 113.53215,146.4612 L 113.48867,146.54817 C 113.48867,146.54817 121.76146,157.17906 126.23966,160.54925 C 128.92016,162.56653 129.98943,162.35 131.02264,160.54925 C 132.51059,157.71453 132.32106,152.69514 130.57695,149.12445 C 129.95028,147.84148 126.53913,146.59649 125.00043,145.13502 L 123.78295,144.89587 C 123.47512,144.89012 123.16686,144.89117 122.85896,144.885 C 121.77528,144.80213 120.84611,144.77176 120.03266,144.78716 z "
       style="fill:#ffcd50;fill-opacity:1;fill-rule:evenodd;stroke:#003d8f;stroke-width:1.00448573;stroke-linecap:butt;stroke-linejoin:miter;stroke-miterlimit:4;stroke-dasharray:none;stroke-opacity:1"
       id="path5664" />
    <g
       transform="matrix(0.465767,0,0,0.465767,-10.39143,74.35751)"
       id="g5666">
      <path
         d="M 100.56486,102.64624 C 100.32228,104.8667 97.941624,106.45037 95.313956,106.69051 C 93.314814,106.87322 90.673175,105.47749 90.518306,102.84343 C 90.351377,100.00425 92.048497,98.02087 95.663807,98.164419 C 99.670037,98.31986 100.77904,100.68571 100.56486,102.64624 z "
         style="color:#000000;fill:#003d8f;fill-opacity:1;fill-rule:nonzero;stroke:none;stroke-width:0.56499267;stroke-linecap:butt;stroke-linejoin:miter;marker:none;marker-start:none;marker-mid:none;marker-end:none;stroke-miterlimit:4;stroke-dasharray:none;stroke-dashoffset:0;stroke-opacity:1;visibility:visible;display:inline;overflow:visible"
         id="path5668" />
      <path
         d="M 97.656616,102.76717 C 97.428591,103.72772 96.969046,104.22914 96.07393,104.29941 C 94.260291,104.4418 92.047988,104.10006 92.698882,102.47799 C 93.155141,101.34096 94.594494,100.21644 95.694035,100.15507 C 96.975693,100.08354 97.942984,101.56083 97.656616,102.76717 z "
         style="color:#000000;fill:#eeeeee;fill-opacity:1;fill-rule:nonzero;stroke:none;stroke-width:1.5;stroke-linecap:butt;stroke-linejoin:miter;marker:none;marker-start:none;marker-mid:none;marker-end:none;stroke-miterlimit:4;stroke-dashoffset:0;stroke-opacity:1;visibility:visible;display:inline;overflow:visible"
         id="path5670" />
    </g>
    <path
       d="M 10.433682,128.23836 C 16.860733,128.08165 27.073137,126.81534 33.456501,130.63172 C 35.09618,131.61202 35.952809,134.13875 31.623995,134.29673 C 27.797226,134.43639 23.429252,133.08945 19.194822,131.82683"
       style="fill:none;fill-rule:evenodd;stroke:#003d8f;stroke-width:0.52631027;stroke-linecap:butt;stroke-linejoin:miter;stroke-miterlimit:4;stroke-dasharray:none;stroke-opacity:1"
       id="path5674" />
    <path
       d="M 56.004294,115.92973 C 56.951506,116.13095 59.478636,117.67626 61.343465,119.95916 C 71.476505,132.95446 58.936581,139.87991 47.63576,141.62387 L 47.494447,141.63474 C 45.626167,141.2703 43.347821,141.3424 41.113518,140.81947 C 33.902007,140.38898 28.429065,138.80438 22.622958,136.83003 L 21.981605,136.44956 C 35.811449,135.93071 40.075095,143.26695 48.835213,135.72853 C 56.463233,126.75612 48.86873,123.44716 50.666124,118.99929"
       style="fill:none;fill-rule:evenodd;stroke:#003d8f;stroke-width:0.78946537;stroke-linecap:butt;stroke-linejoin:miter;stroke-miterlimit:4;stroke-opacity:1"
       id="path5672" />
  </g>
  <g
     transform="matrix(1.018422,0,0,1.018422,-10.99595,-9.114822)"
     clip-path="url(#clipPath5906)"
     id="Chain">
    <use
       transform="translate(-228.6499,0)"
       id="use5892"
       x="0"
       y="0"
       width="251"
       height="304.20001"
       xlink:href="#Chain-link" />
    <use
       transform="translate(-182.7201,0)"
       id="use2246"
       x="0"
       y="0"
       width="307.38556"
       height="183.85681"
       xlink:href="#Chain-link" />
    <use
       transform="translate(-137.2581,0)"
       id="use2242"
       x="0"
       y="0"
       width="307.38556"
       height="183.85681"
       xlink:href="#Chain-link" />
    <use
       transform="translate(-91.63476,0)"
       id="use2235"
       x="0"
       y="0"
       width="307.38556"
       height="183.85681"
       xlink:href="#Chain-link" />
    <use
       transform="translate(-45.93012,0)"
       id="use2239"
       x="0"
       y="0"
       width="307.38556"
       height="183.85681"
       xlink:href="#Chain-link" />
    <path
       d="M 261.85158,47.59141 L 234.94243,47.64971 C 209.54137,47.63255 209.60994,77.18933 234.72494,77.25373 L 262.27273,77.2577 C 287.14937,77.13516 286.97675,47.57467 261.85158,47.59141 z M 262.05359,53.42962 L 233.76943,53.5489 C 217.87414,53.53547 217.85445,71.21869 234.20821,71.26912 L 262.31144,71.19851 C 279.46132,70.85662 278.48625,53.56971 262.05359,53.42962 z "
       style="fill:#ffcd50;fill-opacity:1;fill-rule:evenodd;stroke:#003d8f;stroke-width:1;stroke-linecap:butt;stroke-linejoin:round;stroke-miterlimit:4;stroke-dasharray:none;stroke-opacity:1;display:inline"
       id="Chain-link" />
    <g
       transform="translate(-598.0638,-227.1607)"
       style="display:inline"
       id="Chain-link-fake">
      <path
         d="M 811.95684,298.38675 C 821.91986,298.48489 825.29966,294.93635 826.32922,292.38585"
         style="fill:none;fill-rule:evenodd;stroke:#003d8f;stroke-width:1;stroke-linecap:butt;stroke-linejoin:miter;stroke-miterlimit:4;stroke-dasharray:none;stroke-opacity:1"
         id="path3911" />
      <path
         d="M 811.853,304.42122 C 825.02934,304.88365 829.9168,298.48504 831.50189,295.59279"
         style="fill:none;fill-rule:evenodd;stroke:#003d8f;stroke-width:1;stroke-linecap:butt;stroke-linejoin:miter;stroke-miterlimit:4;stroke-dasharray:none;stroke-opacity:1"
         id="path3913" />
      <path
         d="M 811.9263,301.39374 C 824.10359,301.73104 827.51676,296.40704 828.92207,294.02028"
         style="fill:none;fill-rule:evenodd;stroke:#ffcd50;stroke-width:5;stroke-linecap:butt;stroke-linejoin:miter;stroke-miterlimit:4;stroke-dasharray:none;stroke-opacity:1"
         id="path3915" />
      <use
         id="use5897"
         x="0"
         y="0"
         width="251"
         height="304.20001"
         xlink:href="#path3915" />
    </g>
    <use
       transform="translate(-45.70464,0)"
       id="use2237"
       x="0"
       y="0"
       width="307.38556"
       height="183.85681"
       xlink:href="#Chain-link-fake" />
    <use
       transform="translate(-91.3092,0)"
       id="use2244"
       x="0"
       y="0"
       width="307.38556"
       height="183.85681"
       xlink:href="#Chain-link-fake" />
    <use
       transform="translate(-136.79,0)"
       id="use2248"
       x="0"
       y="0"
       width="307.38556"
       height="183.85681"
       xlink:href="#Chain-link-fake" />
    <use
       transform="translate(-182.72,0)"
       id="use5899"
       x="0"
       y="0"
       width="251"
       height="304.20001"
       xlink:href="#Chain-link-fake" />
  </g>
  <use
     transform="translate(2.999924e-7,142)"
     clip-path="url(#clipPath5903)"
     id="Chain-2"
     x="0"
     y="0"
     width="251"
     height="304.20001"
     xlink:href="#Chain" />
  <path
     d="M 249.55062,1.4395041 L 125.50012,1.4395041 L 1.449569,1.4395041 L 1.449569,174.9361 C 0.68232904,268.65698 81.739009,302.75585 125.5001,302.75585 C 168.49395,302.75585 250.31785,268.65698 249.55062,174.9361 L 249.55062,1.4395041 z "
     style="color:#000000;fill:none;fill-opacity:0;fill-rule:nonzero;stroke:#000000;stroke-width:1.88832211;stroke-linecap:round;stroke-linejoin:bevel;marker:none;marker-start:none;marker-mid:none;marker-end:none;stroke-miterlimit:4;stroke-dashoffset:0;stroke-opacity:1;visibility:visible;display:block"
     id="Frame" />
</svg>
