<?xml version="1.0" encoding="UTF-8" standalone="no"?>
<!-- Created with Inkscape (http://www.inkscape.org/) -->
<svg
   xmlns:dc="http://purl.org/dc/elements/1.1/"
   xmlns:cc="http://web.resource.org/cc/"
   xmlns:rdf="http://www.w3.org/1999/02/22-rdf-syntax-ns#"
   xmlns:svg="http://www.w3.org/2000/svg"
   xmlns="http://www.w3.org/2000/svg"
   xmlns:xlink="http://www.w3.org/1999/xlink"
   version="1.0"
   width="251"
   height="304.20001"
   id="svg4166">
  <defs
     id="defs4168" />
  <metadata
     id="metadata1880"><rdf:RDF><cc:Work
         rdf:about=""><dc:title>Bjurholm kommunvapen</dc:title><dc:date>12-11-2007</dc:date><dc:creator><cc:Agent><dc:title>Lokal_Profil</dc:title></cc:Agent></dc:creator><cc:license
         rdf:resource="http://creativecommons.org/licenses/by-sa/2.5/" /><dc:rights><cc:Agent><dc:title>cc-by-sa-2.5</dc:title></cc:Agent></dc:rights><dc:format>image/svg+xml</dc:format><dc:type
         rdf:resource="http://purl.org/dc/dcmitype/StillImage" /></cc:Work><cc:License
         rdf:about="http://creativecommons.org/licenses/by-sa/2.5/"><cc:permits
         rdf:resource="http://web.resource.org/cc/Reproduction" /><cc:permits
         rdf:resource="http://web.resource.org/cc/Distribution" /><cc:requires
         rdf:resource="http://web.resource.org/cc/Notice" /><cc:requires
         rdf:resource="http://web.resource.org/cc/Attribution" /><cc:permits
         rdf:resource="http://web.resource.org/cc/DerivativeWorks" /><cc:requires
         rdf:resource="http://web.resource.org/cc/ShareAlike" /></cc:License></rdf:RDF>
  </metadata>
  <path
     d="M 249.55058,1.4395041 L 1.4495291,1.4395041 L 1.4495291,174.9361 C 0.68228908,268.65698 81.738969,302.75585 125.50006,302.75585 C 168.49391,302.75585 250.31781,268.65698 249.55058,174.9361 L 249.55058,1.4395041 z "
     style="fill:#003d8f;stroke:none"
     id="Shield" />
  <path
     d="M 37.3125,57.46875 C 18.221178,57.46875 14.400382,75.389814 1.4375,82.59375 L 1.4375,182.9375 C 1.3921135,188.48161 1.6536286,193.80538 2.15625,198.9375 C 11.304727,191.35194 24.287205,183.0625 37.3125,183.0625 C 61.202169,183.0625 61.204095,211.125 85.09375,211.125 C 108.98342,211.125 108.98534,183.0625 132.875,183.0625 C 156.76465,183.0625 156.79785,211.125 180.6875,211.125 C 204.57715,211.125 204.54783,183.0625 228.4375,183.0625 C 235.67014,183.0625 242.898,185.63385 249.46875,189.21875 C 249.535,187.15287 249.57991,185.0645 249.5625,182.9375 L 249.5625,68.3125 C 244.38448,62.51004 238.55208,57.468748 228.4375,57.46875 C 204.54782,57.46875 204.57718,85.562502 180.6875,85.5625 C 156.79783,85.562514 156.76467,57.468748 132.875,57.46875 C 108.98532,57.46875 108.98342,85.562502 85.09375,85.5625 C 61.204079,85.562514 61.202169,57.468748 37.3125,57.46875 z "
     style="fill:#ffcd50;stroke:none"
     id="Vagskuren-Bjalke" />
  <g
     transform="matrix(0.850513,0,0,0.693238,12.14718,46.62905)"
     style="fill:#000000;stroke:#ffcd50;stroke-width:2.21941209px"
     id="Castor">
    <use
       transform="matrix(0.984808,0.213044,-0.141538,0.984808,-15.73634,-35.54759)"
       id="Leg-back-left"
       x="0"
       y="0"
       width="251"
       height="304.20001"
       xlink:href="#Leg-back-right" />
    <path
       d="M 81.251972,143.65072 C 79.888912,152.01686 75.052667,160.41099 69.977806,172.37713 C 69.348488,177.97949 66.093752,181.80173 64.355893,184.36528 C 63.243143,186.00511 41.166315,177.39787 41.166315,177.39787 C 37.595024,174.34953 37.308074,170.22091 40.088791,168.05083 C 41.061147,167.23222 43.162602,165.8715 47.094037,164.83665 C 51.716263,163.83941 54.26119,169.23989 54.849614,166.85147 C 58.185907,160.54928 68.562861,139.61334 61.358244,133.08297"
       id="Leg-front-left" />
    <path
       d="M 22.271587,123.48841 C 22.161977,126.31243 24.547615,130.07962 24.547615,130.07962 C 24.547615,130.07962 24.322585,124.4118 25.857124,122.6636 L 22.271587,123.48841 z "
       style="fill:#d40000;stroke:none"
       id="Teeth" />
    <path
       d="M 19.49969,122.40155 C 22.046862,124.13901 27.745513,124.07969 33.857168,123.68977 C 39.413768,123.33527 45.311762,122.70749 49.493083,122.90834 C 58.273401,123.3301 26.239821,131.59784 28.590792,132.65735 C 30.941762,133.71685 33.403405,134.12956 39.733242,135.90114 C 55.223074,139.41568 64.858651,132.22596 75.08797,141.20598 C 90.36438,154.61669 120.1655,155.47858 126.69701,155.14981 C 144.88362,155.66015 160.73893,158.23719 174.81696,158.06241 C 197.45566,136.88196 200.72013,149.41785 212.27319,144.46402 C 208.04716,125.27601 208.04587,105.92803 197.59676,88.499583 C 187.02706,74.613681 171.31623,65.309148 151.34938,59.17258 C 140.26284,55.771526 127.93282,59.090062 115.26428,63.48459 C 101.67437,69.895832 94.728027,77.11288 81.742051,82.709378 C 74.157829,85.484313 65.193246,87.316053 57.913556,88.721586 C 52.767184,89.435424 46.920221,90.349231 42.086951,91.308504 C 30.535651,93.699259 19.838536,102.23744 15.945608,116.35568 C 15.945608,116.35568 14.636678,119.08441 19.49969,122.40155 z "
       style="stroke:none"
       id="Main body" />
    <path
       d="M 40.59375,101.3125 C 39.685643,101.12606 38.881845,101.31324 37.96875,101.375 L 37.875,101.375 L 37.78125,101.40625 C 36.814158,101.65179 36.120306,102.0512 35.59375,102.46875 C 35.079009,102.87693 34.695125,103.25529 34.09375,103.65625 C 34.079947,103.66545 34.076554,103.67826 34.0625,103.6875 C 33.48652,103.94926 32.991185,104.19745 32.625,104.46875 C 32.218061,104.77024 31.841134,105.09067 31.71875,105.71875 C 31.596366,106.34683 31.985741,107.00797 32.34375,107.28125 C 32.701759,107.55453 33.056785,107.67017 33.4375,107.78125 C 34.960362,108.22556 37.002083,108.26117 38.125,108.1875 C 40.582096,108.02029 42.591463,106.04502 42.4375,103.65625 C 42.399418,103.08945 42.256318,102.56909 41.90625,102.125 C 41.556182,101.68091 41.047804,101.40572 40.59375,101.3125 z "
       style="fill:#ffcd50;stroke:none"
       id="eye-1" />
    <path
       d="M 15.128439,118.62251 C 14.582519,117.38852 14.091707,116.5739 14.646238,115.17972 C 15.294736,113.90739 17.17473,111.97053 17.312928,112.06028 C 18.794069,114.86532 19.119215,119.54408 18.199245,121.40733 C 16.434415,120.25656 16.395455,119.91316 15.128439,118.62251 z "
       style="stroke-width:1"
       id="nos" />
    <path
       d="M 55.569241,94.211673 C 55.569241,94.211673 58.281811,92.642416 61.201687,92.021776 C 64.531704,92.023021 65.388388,95.38623 64.887814,97.194368 C 63.693828,100.25037 63.110981,101.1911 61.306473,102.70916"
       id="ear" />
    <path
       d="M 37.78514,105.27582 C 38.015091,106.35765 37.323702,107.42231 36.241861,107.65226 C 35.160019,107.88221 34.095377,107.19082 33.865422,106.10897 C 33.63547,105.02714 34.326858,103.96249 35.4087,103.73253 C 36.490543,103.50259 37.555187,104.19398 37.78514,105.27582 z "
       style="stroke:none"
       id="eye-2" />
    <path
       d="M 104.68147,145.11973 C 105.73288,153.55328 102.25596,159.1815 100.82301,172.55547 C 101.79344,178.08403 99.800534,183.04149 98.882135,186.17967 C 98.293636,188.18753 75.14873,189.36311 75.14873,189.36311 C 70.943016,187.99717 69.522417,184.23795 71.53047,181.03191 C 72.215979,179.85466 73.811365,177.6942 77.217215,175.07208 C 81.282678,172.19543 85.179643,176.20233 85.06675,173.71104 C 86.444948,166.38897 88.667306,149.3722 80.076678,146.25881"
       id="Leg-front-right" />
    <use
       transform="translate(-41.69833,-2.85244)"
       id="use2035"
       x="0"
       y="0"
       width="251"
       height="304.20001"
       xlink:href="#g2026" />
    <path
       d="M 210.13335,126.52578 C 210.46988,139.43635 241.13044,143.66513 258.69955,150.39907 C 262.74493,152.15078 264.44467,154.97215 265.60244,158.20566 C 266.27748,162.23084 264.35738,165.16376 261.43288,166.32876 C 255.02912,168.88685 247.13262,168.93835 239.22196,168.11094 C 222.88771,164.36485 211.37097,160.54218 196.0094,146.16374"
       id="Tail" />
    <path
       d="M 195.77485,144.72844 C 195.77485,144.72844 191.01307,157.72805 193.01801,165.12251 C 195.02296,172.51697 203.79464,174.30629 201.09174,180.17405 C 198.71643,185.33065 183.0263,187.81 181.86598,188.0937 C 173.77498,189.3885 165.82141,191.51522 157.84187,193.56545 C 156.54341,191.62651 157.94308,185.76284 159.65281,184.7225 C 165.13952,182.41127 165.10507,182.75175 170.93833,182.56261 C 175.79849,182.58732 156.46291,167.99905 160.36068,150.72574"
       id="Leg-back-right" />
    <g
       id="g2026">
      <path
         d="M 116.48748,182.26634 C 116.46812,182.02885 116.39068,181.8151 116.31325,181.62511 C 115.17115,181.19762 114.00967,181.10262 112.79013,181.38761 C 111.55123,181.64886 110.85435,182.43259 110.64142,183.71506 C 110.44784,184.99753 110.64142,185.78126 111.26087,186.06625 C 111.62867,184.83129 112.22875,184.19005 113.09986,184.1663 C 113.8161,184.28504 114.06775,184.61754 113.87417,185.18753 L 113.87417,185.18753 C 114.78398,184.97378 115.5583,184.57004 116.23582,183.9288 C 116.48748,183.38257 116.58426,182.81258 116.48748,182.26634 z "
         style="fill:#d40000;stroke:none"
         id="Klo" />
      <use
         transform="matrix(0.866026,0.613434,-0.407542,0.866026,93.17293,-48.48062)"
         id="use2010"
         x="0"
         y="0"
         width="251"
         height="304.20001"
         xlink:href="#Klo" />
      <use
         transform="matrix(0.996195,-0.106929,7.103919e-2,0.996195,-12.45893,17.02418)"
         id="use2012"
         x="0"
         y="0"
         width="251"
         height="304.20001"
         xlink:href="#Klo" />
    </g>
    <use
       transform="translate(44.48844,3.993803)"
       id="use2031"
       x="0"
       y="0"
       width="251"
       height="304.20001"
       xlink:href="#g2026" />
    <use
       transform="translate(-74.09564,-13.88307)"
       id="use2033"
       x="0"
       y="0"
       width="251"
       height="304.20001"
       xlink:href="#g2026" />
    <path
       d="M 118.64591,156.23183 C 122.59695,156.47594 127.89889,158.63344 133.26198,158.71993 C 138.62507,158.80642 144.92084,157.50807 152.91775,158.19428"
       id="Fake-tummy-1" />
    <path
       d="M 62.947899,137.74405 C 64.284244,137.82304 65.514579,137.61685 66.80651,137.93869 C 69.390372,138.58239 71.910593,139.81678 74.467923,142.06179 C 76.377474,143.73813 78.513974,145.21839 80.803605,146.52476"
       id="Fake-tummy-2" />
    <path
       d="M 41.00596,124.09495 C 36.596306,123.42309 33.545575,127.98757 19.326513,132.57072 C 17.419382,133.18543 20.349076,136.45801 22.836879,134.66269 C 25.664636,132.62205 34.86778,128.9157 37.739837,127.61369 C 40.496781,126.36386 43.285735,125.58296 46.113493,124.16417"
       style="fill:#d40000;stroke:none"
       id="Tongue" />
  </g>
  <path
     d="M 249.55062,1.4395041 L 1.449569,1.4395041 L 1.449569,174.9361 C 0.68232904,268.65698 81.739009,302.75585 125.5001,302.75585 C 168.49395,302.75585 250.31785,268.65698 249.55062,174.9361 L 249.55062,1.4395041 z "
     style="fill:none;fill-opacity:0;stroke:#000000;stroke-width:1.88832211;stroke-linecap:round"
     id="Frame" />
</svg>
