<?xml version="1.0" encoding="UTF-8" standalone="no"?>
<!-- Created with Inkscape (http://www.inkscape.org/) -->

<svg
   xmlns:svg="http://www.w3.org/2000/svg"
   xmlns="http://www.w3.org/2000/svg"
   xmlns:xlink="http://www.w3.org/1999/xlink"
   version="1.0"
   width="251"
   height="304.20001"
   id="svg4166">
  <defs
     id="defs4168" />
  <path
     d="m 249.55058,1.4395041 -124.0505,0 -124.0505509,0 0,173.4965959 C 0.68228908,268.65698 81.738969,302.75585 125.50006,302.75585 c 42.99385,0 124.81775,-34.09887 124.05052,-127.81975 l 0,-173.4965959 z"
     id="Shield"
     style="fill:#eeeeee" />
  <path
     d="m 1.4375,1.4375 0,91.03125 C 6.3151212,89.38349 12.170332,87.0625 21,87.0625 c 26.123255,0 26.095488,20.37501 52.21875,20.375 26.123242,0 26.157969,-20.375488 52.28125,-20.375488 26.12325,0 26.12672,20.375498 52.25,20.375488 26.12324,0 26.09549,-20.375 52.21875,-20.375 8.85225,0 14.70657,2.40424 19.59375,5.5 l 0,-91.125 -124.0625,0 -124.0625,0 z"
     id="wave-divider"
     style="fill:#003d8f" />
  <path
     d="m 52.856343,20.40695 c 10.403874,11.686877 16.674643,25.371123 18.160906,39.631253 l 0,21.617039 c 36.069611,-4.80378 72.895901,-4.80378 108.965491,0 l 0,-21.617039 c 1.48628,-14.26013 7.75705,-27.944376 18.16092,-39.631253 -4.44306,-3.20582 -11.27591,-3.077052 -15.5222,0.292517 -4.24627,3.369584 -4.40855,8.791702 -0.36858,12.317432 l -3.27354,5.714505 c -1.91583,-2.95953 -6.13609,-4.49333 -10.21147,-3.711254 -4.07537,0.782074 -6.94609,3.676675 -6.94604,7.003847 3e-5,2.216364 1.28541,4.309421 3.48518,5.675114 2.19978,1.365697 5.06917,1.852096 7.78014,1.318805 l -2.18484,3.814602 c -0.977,2.326267 -3.72033,3.895392 -6.81038,3.895392 -3.09002,0 -5.83332,-1.569125 -6.81033,-3.895392 l 0,-21.61704 c 2.50751,0 4.54023,-1.613044 4.54023,-3.602835 0,-1.9898 -2.03272,-3.602851 -4.54023,-3.602851 -2.50751,0 -4.54024,1.613051 -4.54024,3.602851 -2e-5,1.60869 1.34389,3.02248 3.29317,3.464331 l -7.83338,21.755544 c -1.0488,2.62561 -4.37112,4.239597 -7.79487,3.786778 -3.42374,-0.452817 -5.90681,-2.834594 -5.82583,-5.588199 l -1.02556,-6.916249 c 2.73866,1.685905 6.44793,1.987562 9.56061,0.777517 3.11269,-1.210052 5.08579,-3.720702 5.08565,-6.471193 0,-3.057409 -2.43143,-5.781938 -6.06579,-6.796987 -3.63432,-1.01505 -7.68022,-0.0996 -10.0934,2.283818 l -0.56197,-3.789787 c 4.67564,-1.813032 7.64076,-5.581711 7.64067,-9.711266 -9e-5,-5.164283 -4.604,-9.607076 -10.98935,-10.6047375 l -0.3612,-2.0051823 c 0,-0.9949038 -1.01637,-1.8014209 -2.27011,-1.8014209 -1.25374,0 -2.27011,0.8065171 -2.27011,1.8014209 l -0.36121,2.0051823 c -6.38536,0.9976615 -10.98928,5.4404545 -10.98936,10.6047375 -7e-5,4.129555 2.96508,7.898234 7.6407,9.711266 l -0.56197,3.789787 c -2.4132,-2.383414 -6.45909,-3.298868 -10.09342,-2.283818 -3.63434,1.015049 -6.0658,3.739578 -6.0658,6.796987 -1.3e-4,2.750491 1.97295,5.261141 5.08567,6.471193 3.11267,1.210045 6.82194,0.908388 9.56062,-0.777517 l -1.02558,6.916249 c 0.081,2.753605 -2.40207,5.135382 -5.82583,5.588199 -3.42377,0.452819 -6.74608,-1.161168 -7.79488,-3.786778 L 94.965473,31.076974 c 1.949238,-0.441851 3.293191,-1.855641 3.293169,-3.464331 0,-1.9898 -2.032747,-3.602851 -4.540246,-3.602851 -2.507494,0 -4.540218,1.613051 -4.540218,3.602851 0,1.989791 2.032724,3.602835 4.540218,3.602835 l 0,21.61704 c -0.977003,2.326267 -3.7203,3.895392 -6.810332,3.895392 -3.09005,0 -5.833351,-1.569125 -6.810358,-3.895392 l -2.184852,-3.814602 c 2.71096,0.533291 5.580365,0.04689 7.780138,-1.318805 2.199781,-1.365693 3.485145,-3.45875 3.485186,-5.675114 4e-5,-3.327172 -2.870657,-6.221773 -6.946038,-7.003847 -4.075361,-0.782076 -8.295626,0.751724 -10.211492,3.711254 L 68.747152,33.016899 C 72.787061,29.491169 72.62481,24.069051 68.37853,20.699467 64.132247,17.329898 57.299402,17.20113 52.856343,20.40695 z"
     id="Crown"
     style="fill:#eeeeee;stroke:#003d8f;stroke-width:0.86282402" />
  <g
     transform="translate(-1.5383656,-9.619568)"
     id="Lappmossa"
     style="fill:#003d8f;stroke:#d40000;stroke-width:5">
    <path
       d="m 125.5,123.9375 c -25.19465,0 -47.420346,27.83939 -60.65625,70.21875 l 121.3125,0 C 172.92035,151.77689 150.69465,123.9375 125.5,123.9375 z"
       id="use4158"
       style="stroke:#eeeeee;stroke-width:10;stroke-miterlimit:4;stroke-dasharray:none" />
    <path
       d="m 125.5,126.09375 c -11.71389,0 -22.0051,26.99869 -28.3125,68.0625 l 56.625,0 c -6.3074,-41.06381 -16.59861,-68.0625 -28.3125,-68.0625 z"
       id="use3382"
       style="stroke:#eeeeee;stroke-width:10;stroke-miterlimit:4;stroke-dasharray:none" />
    <path
       d="m 125.5,123.9375 c -25.19465,0 -47.420346,27.83939 -60.65625,70.21875 l 121.3125,0 C 172.92035,151.77689 150.69465,123.9375 125.5,123.9375 z"
       id="path3900"
       style="fill:none" />
    <path
       d="m 125.5,126.09375 c -11.71389,0 -22.0051,26.99869 -28.3125,68.0625 l 56.625,0 c -6.3074,-41.06381 -16.59861,-68.0625 -28.3125,-68.0625 z"
       id="path3905"
       style="fill:none" />
  </g>
  <g
     transform="matrix(-0.27234876,0.74827209,0.74827209,0.27234876,24.828305,91.884059)"
     id="Vargspjut">
    <path
       d="m 122.54875,85.496326 -0.74947,4.111848 c -9.75986,-1.653379 -15.83282,-1.259539 -18.77331,8.345983 10.71732,-5.802355 14.25748,-3.838463 19.33998,-2.583283 l -0.16454,190.276166 4.36888,0 0,-189.80769 c 10.54616,1.905226 17.035,1.920677 20.10771,-8.116698 -10.71732,5.802354 -14.25748,3.838462 -19.33997,2.583282 l -0.74945,-4.809608 -4.03983,0 z"
       id="Spjut"
       style="fill:#003d8f;stroke:#eeeeee" />
    <path
       d="m 126.38426,279.81927 c 1.18649,0 1.37948,1.76076 1.37948,3.22231 0,4.56971 -2.90185,8.63263 -3.37607,8.80676 -0.46343,0.17015 -3.38083,-4.40918 -3.38083,-8.80676 0,-1.63222 -0.0532,-3.22231 1.38413,-3.22231"
       id="Skoning"
       style="fill:#d40000" />
    <path
       d="m 127.07073,88.226878 2.53243,0 c 1.55253,-33.53588 -5.51326,-47.002165 -6.30191,-47.002165 -0.78864,0 -5.57416,13.687581 -3.80037,47.002165 l 2.44682,0"
       id="Spets"
       style="fill:#d40000" />
    <path
       d="m 117.8579,82.064125 c -1.77769,-2.925392 -4.18654,-6.05397 -7.26234,-9.482437 -8.71042,-9.709206 -9.64493,-13.793828 -2.77215,-12.117142 2.1402,0.522129 5.70487,-0.260288 7.92139,-1.7387 3.84477,-2.564367 4.30388,-3.112151 1.94314,-8.947447 -3.54454,-8.761735 -23.070755,-32.395218 -10.30288,-25.43619 6.79557,3.689685 17.82795,17.687711 21.80263,27.663306 1.44357,3.623224 3.52188,7.044638 4.6184,7.60318 3.00956,1.532953 10.5935,-1.77341 12.45635,-5.430591 1.87849,-3.687961 4.27934,-3.263076 3.86455,0.683914 -0.46459,4.42142 -2.68755,7.690576 -10.05093,14.780972 -5.02407,4.837817 -7.74479,8.318871 -8.77477,13.094453"
       id="Hjorthornsslida"
       style="fill:#d40000" />
  </g>
  <use
     transform="matrix(-1,0,0,1,251.00006,0)"
     id="Vargspjut-2"
     x="0"
     y="0"
     width="251"
     height="304.20001"
     xlink:href="#Vargspjut" />
  <path
     d="m 249.55062,1.4395041 -124.0505,0 -124.050551,0 0,173.4965959 c -0.76723996,93.72088 80.28944,127.81975 124.050531,127.81975 42.99385,0 124.81775,-34.09887 124.05052,-127.81975 l 0,-173.4965959 z"
     id="Frame"
     style="fill:none;stroke:#000000;stroke-width:1.88832211;stroke-linejoin:bevel" />
</svg>
