<?xml version="1.0" encoding="UTF-8" standalone="no"?>
<!-- Created with Inkscape (http://www.inkscape.org/) -->

<svg
   xmlns:svg="http://www.w3.org/2000/svg"
   xmlns="http://www.w3.org/2000/svg"
   version="1.0"
   width="251"
   height="304.20001"
   id="svg4166">
  <defs
     id="defs4168" />
  <path
     d="m 249.55058,1.4395041 -248.1010509,0 0,173.4965959 C 0.68228908,268.65698 81.738969,302.75585 125.50006,302.75585 c 42.99385,0 124.81775,-34.09887 124.05052,-127.81975 l 0,-173.4965959 z"
     id="Shield"
     style="fill:#d40000;fill-opacity:1;stroke:none" />
  <g
     transform="matrix(0.4430357,0,0,0.6139935,3.6652208,-12.280523)"
     id="layer1">
    <path
       d="m 273.29685,443.46506 c -0.32877,0 -0.49134,0.20886 -0.78125,0.25805 -17.07073,1.23832 -35.51093,10.18535 -29.65625,33.47226 6.25114,24.86382 23.03622,8.49708 32.15625,-8.99475 9.12221,17.48521 25.87594,33.85033 32.125,8.99475 5.85468,-23.28691 -12.58551,-32.23394 -29.65625,-33.47226 -0.28719,-0.0482 -0.45602,-0.25805 -0.78125,-0.25805 -0.55112,0 -1.12969,0.0944 -1.6875,0.11059 -0.56822,-0.0168 -1.15745,-0.11059 -1.71875,-0.11059 z"
       id="path1316"
       style="fill:#ffcd50;fill-opacity:1;fill-rule:evenodd;stroke:#ffcd50;stroke-width:1.84152818;stroke-miterlimit:4;stroke-opacity:1;stroke-dashoffset:0" />
    <path
       d="m 215.58544,374.72303 c 4.2334,8.46204 36.50764,102.31443 39.68267,104.42994 l 36.98094,0 c 3.17503,-2.11551 37.93215,-96.27418 42.16554,-104.73621 1.90157,-3.801 -120.73417,-3.50164 -118.82915,0.30627 z"
       id="path1434"
       style="fill:#d40000;fill-opacity:1;fill-rule:evenodd;stroke:#d40000;stroke-width:4.02059174;stroke-linecap:butt;stroke-linejoin:miter;stroke-miterlimit:4;stroke-opacity:1" />
    <g
       transform="translate(-2.063615e-5,0)"
       id="g1380">
      <g
         transform="matrix(-1.005429,0,0,1.004867,-23.0732,-33.9867)"
         id="g18205">
        <path
           d="m -334.90264,379.77337 c 0,0 -19.16337,1.52091 -21.29263,-0.91254 -2.12927,-2.43344 -91.55831,-51.40649 -93.99175,-38.63091 -2.43345,12.77558 26.15951,55.36084 44.41034,55.05666 18.25082,-0.30418 57.79428,0.91254 57.79428,0.91254 l 13.07976,-16.42575 z"
           id="path18207"
           style="fill:#ffcd50;fill-opacity:1;fill-rule:evenodd;stroke:#d40000;stroke-width:4;stroke-linecap:butt;stroke-linejoin:miter;stroke-miterlimit:4;stroke-opacity:1" />
        <path
           d="m -431.32784,347.53025 c -4.10643,2.28136 30.41804,19.46755 30.41804,27.9846 0,8.51705 -4.25852,9.73377 -0.30418,11.55885 3.95435,1.82509 32.24313,4.86689 30.11387,-0.30418 -2.12927,-5.17106 -56.12129,-41.52063 -60.22773,-39.23927 z"
           id="path18209"
           style="fill:#d40000;fill-opacity:1;fill-rule:evenodd;stroke:none" />
      </g>
      <g
         transform="matrix(1.005429,0,0,1.004867,573.0732,-34.14565)"
         id="g18199">
        <path
           d="m -334.90264,379.77337 c 0,0 -19.16337,1.52091 -21.29263,-0.91254 -2.12927,-2.43344 -91.55831,-51.40649 -93.99175,-38.63091 -2.43345,12.77558 26.15951,55.36084 44.41034,55.05666 18.25082,-0.30418 57.79428,0.91254 57.79428,0.91254 l 13.07976,-16.42575 z"
           id="path3731"
           style="fill:#ffcd50;fill-opacity:1;fill-rule:evenodd;stroke:#d40000;stroke-width:4;stroke-linecap:butt;stroke-linejoin:miter;stroke-miterlimit:4;stroke-opacity:1" />
        <path
           d="m -431.32784,347.53025 c -4.10643,2.28136 30.41804,19.46755 30.41804,27.9846 0,8.51705 -4.25852,9.73377 -0.30418,11.55885 3.95435,1.82509 32.24313,4.86689 30.11387,-0.30418 -2.12927,-5.17106 -56.12129,-41.52063 -60.22773,-39.23927 z"
           id="path4491"
           style="fill:#d40000;fill-opacity:1;fill-rule:evenodd;stroke:none" />
      </g>
    </g>
    <path
       d="m 271.5281,322.20531 c -15.78824,2.6936 -32.80218,17.62786 -57.68649,45.28182 -0.35221,5.63232 6.69266,19.00485 13.38478,18.65284 6.69209,-0.352 4.93287,-11.24539 4.93288,-14.41356 0,-3.16815 23.21596,18.78188 26.73813,21.95007 0.0204,-0.0223 -5.13012,1.45701 -6.44103,3.26581 0.95985,1.04651 3.30146,2.57325 4.52443,3.70545 -0.33527,11.58343 1.49583,28.56425 3.26765,43.11507 3.61055,18.53254 3.48435,26.67168 2.92202,28.63871 -1.40885,4.92827 -10.55699,9.1449 -10.557,15.48124 0,5.76162 44.77301,5.76161 44.77301,0 -1e-5,-6.33634 -9.14815,-10.55298 -10.557,-15.48124 -0.56233,-1.96703 -0.68854,-10.10618 2.92202,-28.63871 1.77182,-14.55082 3.60292,-31.53165 3.26765,-43.11507 1.22297,-1.1322 3.56458,-2.65891 4.52443,-3.70545 -1.31091,-1.8088 -6.49286,-3.28804 -6.47245,-3.26581 3.52217,-3.16819 26.76955,-25.11823 26.76955,-21.95007 10e-6,3.16817 -1.75921,14.06155 4.93288,14.41356 6.69212,0.35201 13.73699,-13.02053 13.38478,-18.65284 -24.88738,-27.65738 -41.92803,-42.59095 -57.71791,-45.28182 -0.49086,-0.34281 -6.42147,-0.34281 -6.91233,0 z"
       id="path2198"
       style="fill:#ffcd50;fill-opacity:1;fill-rule:evenodd;stroke:#d40000;stroke-width:4.02059174;stroke-linecap:butt;stroke-linejoin:miter;stroke-miterlimit:4;stroke-opacity:1" />
    <g
       transform="matrix(1.005429,0,0,1.004867,575.5798,-34.14565)"
       id="g15131">
      <path
         d="m -322.38432,430.03608 c -7.6045,-1.82508 -15.93622,10.75836 -16.84875,17.14615 -0.91255,6.38779 16.12836,52.28962 24.26822,56.04222 4.11505,-7.21125 -0.42332,-69.84238 -7.41947,-73.18837 z"
         id="path2963"
         style="fill:#ffcd50;fill-opacity:1;fill-rule:evenodd;stroke:none" />
      <path
         d="m -275.52929,430.03607 c 7.6045,-1.82508 15.93622,10.75836 16.84875,17.14615 0.91255,6.38779 -16.12836,52.28962 -24.26822,56.04223 -4.11505,-7.21125 0.42332,-69.84239 7.41947,-73.18838 z"
         id="path15129"
         style="fill:#ffcd50;fill-opacity:1;fill-rule:evenodd;stroke:none" />
    </g>
    <g
       transform="matrix(1.005429,0,0,1.004867,572.9934,-34.14565)"
       id="g18267">
      <g
         id="g18247">
        <path
           d="m -356.93444,380.86561 c 0,0 4.35881,5.87273 11.5118,6.26028 8.13539,0.44078 42.7066,-13.45457 43.79245,-26.80394 0.54293,-6.67468 -28.03999,-7.38488 -41.3964,-9.65762 1.649,19.36061 -4.182,30.36275 -13.90785,30.20128 z"
           id="path12843"
           style="fill:#d40000;fill-opacity:1;fill-rule:evenodd;stroke:none" />
        <g
           transform="translate(-0.548794,0.548794)"
           id="g18225">
          <path
             d="m -342.97232,378.10667 c 3.14737,11.87645 49.7262,-17.2953 38.10494,-23.69306 -11.79723,-6.49463 -41.26181,11.78077 -38.10494,23.69306 z"
             id="path6771"
             style="fill:#ffcd50;fill-opacity:1;fill-rule:evenodd;stroke:#d40000;stroke-width:4;stroke-linecap:butt;stroke-linejoin:miter;stroke-miterlimit:4;stroke-opacity:1" />
          <path
             d="m -310.00837,356.25139 c -4.16783,-1.41883 -161.85407,-187.99619 -32.88156,-289.592459 -25.55116,-10.342134 -51.10232,44.410349 -59.61937,43.801979 l -34.67657,-41.368536 c 0,0 23.11772,40.760186 21.901,58.402646 -1.21673,17.64246 1.21671,49.27723 -6.08362,55.36084 l -46.23542,-58.40264 c 4.25853,40.76018 68.74478,111.33003 70.56986,124.71397 1.82508,13.38394 13.38394,41.9769 4.25853,42.58526 -9.12542,0.60836 -65.09462,-27.9846 -83.9538,-71.17822 -0.60836,56.57756 68.13641,93.68757 80.91199,96.12101 12.77558,2.43345 55.94138,34.03333 55.33302,51.6758 -0.60836,17.64246 29.8552,-10.43478 30.47594,-12.11965 z"
             id="path4493"
             style="fill:#ffcd50;fill-opacity:1;fill-rule:evenodd;stroke:#d40000;stroke-width:4;stroke-linecap:butt;stroke-linejoin:miter;stroke-miterlimit:4;stroke-opacity:1" />
        </g>
      </g>
      <g
         transform="matrix(-1,0,0,1,-592.7687,-0.02948892)"
         id="g18257">
        <path
           d="m -356.93444,380.86561 c 0,0 4.35881,5.87273 11.5118,6.26028 8.13539,0.44078 42.7066,-13.45457 43.79245,-26.80394 0.54293,-6.67468 -28.03999,-7.38488 -41.3964,-9.65762 1.649,19.36061 -4.182,30.36275 -13.90785,30.20128 z"
           id="path18259"
           style="fill:#d40000;fill-opacity:1;fill-rule:evenodd;stroke:none" />
        <g
           transform="translate(-0.548794,0.548794)"
           id="g18261">
          <path
             d="m -342.97232,378.10667 c 3.14737,11.87645 49.7262,-17.2953 38.10494,-23.69306 -11.79723,-6.49463 -41.26181,11.78077 -38.10494,23.69306 z"
             id="path18263"
             style="fill:#ffcd50;fill-opacity:1;fill-rule:evenodd;stroke:#d40000;stroke-width:4;stroke-linecap:butt;stroke-linejoin:miter;stroke-miterlimit:4;stroke-opacity:1" />
          <path
             d="m -310.00837,356.25139 c -4.16783,-1.41883 -161.85407,-187.99619 -32.88156,-289.592459 -25.55116,-10.342134 -51.10232,44.410349 -59.61937,43.801979 l -34.67657,-41.368536 c 0,0 23.11772,40.760186 21.901,58.402646 -1.21673,17.64246 1.21671,49.27723 -6.08362,55.36084 l -46.23542,-58.40264 c 4.25853,40.76018 68.74478,111.33003 70.56986,124.71397 1.82508,13.38394 13.38394,41.9769 4.25853,42.58526 -9.12542,0.60836 -65.09462,-27.9846 -83.9538,-71.17822 -0.60836,56.57756 68.13641,93.68757 80.91199,96.12101 12.77558,2.43345 55.94138,34.03333 55.33302,51.6758 -0.60836,17.64246 29.8552,-10.43478 30.47594,-12.11965 z"
             id="path18265"
             style="fill:#ffcd50;fill-opacity:1;fill-rule:evenodd;stroke:#d40000;stroke-width:4;stroke-linecap:butt;stroke-linejoin:miter;stroke-miterlimit:4;stroke-opacity:1" />
        </g>
      </g>
    </g>
    <path
       d="m 229.66888,379.2587 c 0.86395,13.96732 26.7827,20.80424 32.8304,16.05247"
       id="path1315"
       style="fill:none;stroke:#ffcd50;stroke-width:1px;stroke-linecap:butt;stroke-linejoin:miter;stroke-opacity:1" />
    <path
       d="m 320.24049,379.35884 c -0.86395,13.96732 -26.7827,20.591 -32.8304,15.83923"
       id="path3591"
       style="fill:none;stroke:#ffcd50;stroke-width:1px;stroke-linecap:butt;stroke-linejoin:miter;stroke-opacity:1" />
    <path
       d="m 221.44308,379.87861 c 0,0 12.25566,35.20501 13.57735,39.29023 6.7286,0.72092 16.46105,-19.34473 16.5812,-21.14703 -4.20538,-0.84108 -20.78658,-5.52707 -22.70904,-16.10058 -1.92245,-10.57352 -7.44951,-2.04262 -7.44951,-2.04262 z"
       id="path3593"
       style="fill:#ffcd50;fill-opacity:1;fill-rule:evenodd;stroke:none" />
    <path
       d="m 328.41895,380.05261 c 0,0 -12.25566,35.20501 -13.57735,39.29023 -6.7286,0.72092 -16.46105,-19.34473 -16.5812,-21.14703 4.20538,-0.84108 20.78658,-5.52707 22.70904,-16.10058 1.92245,-10.57352 7.44951,-2.04262 7.44951,-2.04262 z"
       id="path4353"
       style="fill:#ffcd50;fill-opacity:1;fill-rule:evenodd;stroke:none" />
    <path
       d="m 258.11859,473.889 c -12.74425,-13.12467 -14.45616,-15.40722 -14.45616,-11.03233 0,4.37489 0.19021,25.29828 4.75531,22.82552 4.56511,-2.47277 9.32042,-8.17915 9.70085,-11.79319 z"
       id="path4355"
       style="fill:#ffcd50;fill-opacity:1;fill-rule:evenodd;stroke:#ffcd50;stroke-width:1px;stroke-linecap:butt;stroke-linejoin:miter;stroke-opacity:1" />
  </g>
  <path
     d="m 115.81403,229.84382 c 2.46448,0.23283 2.94721,-0.79033 1.44013,-2.27387 -2.49928,-2.84715 -4.5765,-5.99597 -7.14568,-8.82871 -0.97514,-1.14855 -2.05723,-2.20799 -3.15151,-3.20736 -0.85096,-0.2383 -0.9027,0.81794 -0.77675,1.38212 -0.274,7.05406 2.75285,11.45225 9.63381,12.92782 z"
     id="path27023"
     style="fill:#ffcd50;fill-opacity:1;fill-rule:evenodd;stroke:#ffcd50;stroke-width:0.25;stroke-linecap:butt;stroke-linejoin:miter;stroke-opacity:1" />
  <g
     transform="matrix(0.3000611,0,0,0.4158482,260.33139,8.8527593)"
     id="g14737">
    <path
       d="m -481.64027,71.601219 c 34.72161,29.018461 28.04669,74.061381 26.20509,117.233341 -11.60144,-37.19669 -49.43568,-57.17812 -26.20509,-117.233341 z"
       id="path22775"
       style="color:#000000;fill:#ffcd50;fill-opacity:1;fill-rule:nonzero;stroke:#d40000;stroke-width:2;stroke-linecap:butt;stroke-linejoin:miter;stroke-miterlimit:4;stroke-opacity:1;stroke-dasharray:none;stroke-dashoffset:0;marker:none;visibility:visible;display:inline;overflow:visible;enable-background:accumulate" />
    <path
       d="m -417.05245,71.601219 c -34.72161,29.018461 -28.04669,74.061381 -26.20509,117.233341 11.60144,-37.19669 49.43568,-57.17812 26.20509,-117.233341 z"
       id="path22777"
       style="color:#000000;fill:#ffcd50;fill-opacity:1;fill-rule:nonzero;stroke:#d40000;stroke-width:2;stroke-linecap:butt;stroke-linejoin:miter;stroke-miterlimit:4;stroke-opacity:1;stroke-dasharray:none;stroke-dashoffset:0;marker:none;visibility:visible;display:inline;overflow:visible;enable-background:accumulate" />
    <path
       d="m -370.23468,89.015179 c 9.16618,39.723441 -9.25918,73.594131 -42.32114,104.360091 11.91608,-35.82452 8.67686,-78.82787 42.32114,-104.360091 z"
       id="path22779"
       style="color:#000000;fill:#ffcd50;fill-opacity:1;fill-rule:nonzero;stroke:#d40000;stroke-width:2;stroke-linecap:butt;stroke-linejoin:miter;stroke-miterlimit:4;stroke-opacity:1;stroke-dasharray:none;stroke-dashoffset:0;marker:none;visibility:visible;display:inline;overflow:visible;enable-background:accumulate" />
    <path
       d="m -341.86028,160.67257 -75.50476,22.60334 c 19.02679,39.55013 44.94603,26.25807 75.50476,-22.60334 z"
       id="path22781"
       style="color:#000000;fill:#ffcd50;fill-opacity:1;fill-rule:nonzero;stroke:#d40000;stroke-width:2;stroke-linecap:butt;stroke-linejoin:miter;stroke-miterlimit:4;stroke-opacity:1;stroke-dasharray:none;stroke-dashoffset:0;marker:none;visibility:visible;display:inline;overflow:visible;enable-background:accumulate" />
    <path
       d="m -354.06826,106.08161 c -1.20724,62.61191 -39.7368,112.94794 -78.6153,130.10603 26.15744,-36.05001 40.34577,-108.52116 78.6153,-130.10603 z"
       id="path22783"
       style="color:#000000;fill:#ffcd50;fill-opacity:1;fill-rule:nonzero;stroke:#d40000;stroke-width:2;stroke-linecap:butt;stroke-linejoin:miter;stroke-miterlimit:4;stroke-opacity:1;stroke-dasharray:none;stroke-dashoffset:0;marker:none;visibility:visible;display:inline;overflow:visible;enable-background:accumulate" />
    <path
       d="m -389.92787,78.957036 c 9.69567,63.636814 -20.54462,153.415384 -45.05438,156.311124 2.13151,-52.10371 -6.12045,-104.20741 45.05438,-156.311124 z"
       id="path22785"
       style="color:#000000;fill:#ffcd50;fill-opacity:1;fill-rule:nonzero;stroke:#d40000;stroke-width:2;stroke-linecap:butt;stroke-linejoin:miter;stroke-miterlimit:4;stroke-opacity:1;stroke-dasharray:none;stroke-dashoffset:0;marker:none;visibility:visible;display:inline;overflow:visible;enable-background:accumulate" />
    <path
       d="m -528.45804,89.015179 c -9.16618,39.723441 9.25918,73.594131 42.32114,104.360091 -11.91608,-35.82452 -8.67686,-78.82787 -42.32114,-104.360091 z"
       id="path22787"
       style="color:#000000;fill:#ffcd50;fill-opacity:1;fill-rule:nonzero;stroke:#d40000;stroke-width:2;stroke-linecap:butt;stroke-linejoin:miter;stroke-miterlimit:4;stroke-opacity:1;stroke-dasharray:none;stroke-dashoffset:0;marker:none;visibility:visible;display:inline;overflow:visible;enable-background:accumulate" />
    <path
       d="m -341.37936,160.67257 c -23.94178,29.42446 -58.89179,53.89704 -105.80285,78.87122 51.48376,1.19466 85.78157,-36.21444 105.80285,-78.87122 z"
       id="path22789"
       style="color:#000000;fill:#d40000;fill-opacity:1;fill-rule:nonzero;stroke:#ffcd50;stroke-width:2;stroke-linecap:butt;stroke-linejoin:miter;stroke-miterlimit:4;stroke-opacity:1;stroke-dasharray:none;stroke-dashoffset:0;marker:none;visibility:visible;display:inline;overflow:visible;enable-background:accumulate" />
    <path
       d="m -556.83244,160.67257 75.50476,22.60334 c -19.02679,39.55013 -44.94603,26.25807 -75.50476,-22.60334 z"
       id="path22791"
       style="color:#000000;fill:#ffcd50;fill-opacity:1;fill-rule:nonzero;stroke:#d40000;stroke-width:2;stroke-linecap:butt;stroke-linejoin:miter;stroke-miterlimit:4;stroke-opacity:1;stroke-dasharray:none;stroke-dashoffset:0;marker:none;visibility:visible;display:inline;overflow:visible;enable-background:accumulate" />
    <path
       d="m -544.62446,106.08161 c 1.20724,62.61191 39.7368,112.94794 78.6153,130.10603 -26.15744,-36.05001 -40.34577,-108.52116 -78.6153,-130.10603 z"
       id="path22793"
       style="color:#000000;fill:#ffcd50;fill-opacity:1;fill-rule:nonzero;stroke:#d40000;stroke-width:2;stroke-linecap:butt;stroke-linejoin:miter;stroke-miterlimit:4;stroke-opacity:1;stroke-dasharray:none;stroke-dashoffset:0;marker:none;visibility:visible;display:inline;overflow:visible;enable-background:accumulate" />
    <path
       d="m -508.76485,78.957036 c -9.69567,63.636814 20.54462,153.415384 45.05438,156.311124 -2.13151,-52.10371 6.12045,-104.20741 -45.05438,-156.311124 z"
       id="path22795"
       style="color:#000000;fill:#ffcd50;fill-opacity:1;fill-rule:nonzero;stroke:#d40000;stroke-width:2;stroke-linecap:butt;stroke-linejoin:miter;stroke-miterlimit:4;stroke-opacity:1;stroke-dasharray:none;stroke-dashoffset:0;marker:none;visibility:visible;display:inline;overflow:visible;enable-background:accumulate" />
    <path
       d="m -557.31336,160.67257 c 23.94178,29.42446 58.89179,53.89704 105.80285,78.87122 -51.48376,1.19466 -85.78157,-36.21444 -105.80285,-78.87122 z"
       id="path22797"
       style="color:#000000;fill:#d40000;fill-opacity:1;fill-rule:nonzero;stroke:#ffcd50;stroke-width:2;stroke-linecap:butt;stroke-linejoin:miter;stroke-miterlimit:4;stroke-opacity:1;stroke-dasharray:none;stroke-dashoffset:0;marker:none;visibility:visible;display:inline;overflow:visible;enable-background:accumulate" />
    <path
       d="m -455.67049,76.198605 c 4.01163,-7.121103 8.22197,-9.175347 12.87268,0 19.24746,33.740975 17.25868,150.433275 -4.59738,162.287725 -23.87601,-16.03563 -25.44783,-128.93956 -8.2753,-162.287725 z"
       id="path22799"
       style="color:#000000;fill:#ffcd50;fill-opacity:1;fill-rule:nonzero;stroke:#d40000;stroke-width:2;stroke-linecap:butt;stroke-linejoin:miter;stroke-miterlimit:4;stroke-opacity:1;stroke-dasharray:none;stroke-dashoffset:0;marker:none;visibility:visible;display:inline;overflow:visible;enable-background:accumulate" />
    <path
       d="m -448.262,238.96823 c -39.30703,0.6218 -9.66353,-60.46291 0,-76.93401 9.66353,16.4711 39.30703,77.55581 0,76.93401 z"
       id="path22801"
       style="color:#000000;fill:#d40000;fill-opacity:1;fill-rule:nonzero;stroke:#ffcd50;stroke-width:2;stroke-linecap:butt;stroke-linejoin:miter;stroke-miterlimit:4;stroke-opacity:1;stroke-dashoffset:0;marker:none;visibility:visible;display:inline;overflow:visible;enable-background:accumulate" />
  </g>
  <path
     d="m 135.15454,229.98116 c -2.46448,0.23283 -2.94721,-0.79033 -1.44013,-2.27387 2.49928,-2.84715 4.5765,-5.99597 7.14568,-8.82871 0.97514,-1.14855 2.05723,-2.20799 3.15151,-3.20736 0.85096,-0.2383 0.9027,0.81794 0.77675,1.38212 0.274,7.05406 -2.75285,11.45225 -9.63381,12.92782 z"
     id="path28120"
     style="fill:#ffcd50;fill-opacity:1;fill-rule:evenodd;stroke:#ffcd50;stroke-width:0.25;stroke-linecap:butt;stroke-linejoin:miter;stroke-opacity:1" />
  <path
     d="m 249.55062,1.4395041 -248.101051,0 0,173.4965959 c -0.76723996,93.72088 80.28944,127.81975 124.050531,127.81975 42.99385,0 124.81775,-34.09887 124.05052,-127.81975 l 0,-173.4965959 z"
     id="Frame"
     style="fill:none;stroke:#000000;stroke-width:1.88832211;stroke-linejoin:bevel" />
</svg>
