<?xml version="1.0" encoding="UTF-8" standalone="no"?>
<!-- Created with Inkscape (http://www.inkscape.org/) -->
<svg
   xmlns:dc="http://purl.org/dc/elements/1.1/"
   xmlns:cc="http://web.resource.org/cc/"
   xmlns:rdf="http://www.w3.org/1999/02/22-rdf-syntax-ns#"
   xmlns:svg="http://www.w3.org/2000/svg"
   xmlns="http://www.w3.org/2000/svg"
   version="1.0"
   width="251"
   height="304.20001"
   id="svg4166">
  <defs
     id="defs4168" />
  <metadata
     id="metadata1880"><rdf:RDF><cc:Work
         rdf:about=""><dc:title>Skelleftea kommunvapen</dc:title><dc:date>09-10-2007</dc:date><dc:creator><cc:Agent><dc:title>Lokal_Profil</dc:title></cc:Agent></dc:creator><cc:license
         rdf:resource="http://creativecommons.org/licenses/by-sa/2.5/" /><dc:rights><cc:Agent><dc:title>cc-by-sa-2.5</dc:title></cc:Agent></dc:rights><dc:format>image/svg+xml</dc:format><dc:type
         rdf:resource="http://purl.org/dc/dcmitype/StillImage" /></cc:Work><cc:License
         rdf:about="http://creativecommons.org/licenses/by-sa/2.5/"><cc:permits
         rdf:resource="http://web.resource.org/cc/Reproduction" /><cc:permits
         rdf:resource="http://web.resource.org/cc/Distribution" /><cc:requires
         rdf:resource="http://web.resource.org/cc/Notice" /><cc:requires
         rdf:resource="http://web.resource.org/cc/Attribution" /><cc:permits
         rdf:resource="http://web.resource.org/cc/DerivativeWorks" /><cc:requires
         rdf:resource="http://web.resource.org/cc/ShareAlike" /></cc:License></rdf:RDF>
  </metadata>
  <path
     d="M 249.55058,1.4395041 L 1.4495291,1.4395041 L 1.4495291,174.9361 C 0.68228908,268.65698 81.738969,302.75585 125.50006,302.75585 C 168.49391,302.75585 250.31781,268.65698 249.55058,174.9361 L 249.55058,1.4395041 z "
     style="color:#000000;fill:#003d8f;fill-opacity:1;stroke:none"
     id="Shield" />
  <path
     d="M 0.5,0.10033031 L 0.5,97.927342 C 9.40964,92.940752 21.724528,87.639097 34.09375,87.639097 C 57.4822,87.639097 57.486537,106.56001 80.874995,106.56001 C 104.26345,106.56001 104.26779,87.639097 127.65625,87.639097 C 151.04469,87.639097 151.04904,106.56001 174.4375,106.56001 C 197.82594,106.56001 197.83029,87.639097 221.21875,87.639097 C 231.69142,87.639097 242.12708,91.431462 250.5,95.621352 L 250.5,0.10033031 L 125.5,0.10033031 L 0.5,0.10033031 z "
     style="color:#000000;fill:#ffcd50;fill-opacity:1;fill-rule:nonzero;stroke:none;stroke-width:1.88832211;stroke-linecap:round;stroke-linejoin:bevel;marker:none;marker-start:none;marker-mid:none;marker-end:none;stroke-miterlimit:4;stroke-dashoffset:0;stroke-opacity:1;visibility:visible;display:block"
     id="Vagskuren-chef" />
  <path
     d="M 125.5,114.44827 C 120.20036,121.52138 119.7605,128.97658 121.08479,136.71435 C 122.39813,144.38802 121.81084,151.83814 117.09358,158.39563 C 114.75245,149.70705 110.36468,143.8796 104.60819,139.9892 C 97.736312,135.345 94.082749,129.26201 92.020462,121.11494 C 89.830992,129.67772 92.265676,136.72441 96.450292,143.36639 C 100.59806,149.9499 102.91358,157.05746 101.07018,164.91612 C 95.582772,157.78747 89.294085,154.08497 82.488298,152.6939 C 74.362271,151.03296 68.651712,146.81465 63.628657,140.07693 C 64.882686,148.82578 69.837761,154.40157 76.245614,158.93657 C 82.600741,163.43426 87.459054,169.12111 88.76023,177.09446 C 80.960312,172.60558 73.739876,171.57896 66.918125,172.89856 C 58.775035,174.47376 51.885786,172.77134 44.666664,168.46874 C 49.173282,176.07172 55.885375,179.31884 63.540939,181.05645 C 71.130505,182.77909 77.78146,186.18171 82.035083,193.04476 C 73.117404,191.88575 66.060755,193.7052 60.266083,197.53307 C 53.345643,202.10461 46.316117,203.16073 38,201.94828 C 45.073097,207.24793 52.528312,207.68779 60.266083,206.36349 C 67.939745,205.05017 75.389863,205.63744 81.947364,210.35471 C 73.258777,212.69584 67.431324,217.08362 63.540939,222.84009 C 58.896729,229.71198 52.813743,233.36553 44.666664,235.42783 C 53.229439,237.6173 60.276145,235.1826 66.918125,230.99799 C 73.501613,226.85023 80.609191,224.53471 88.467828,226.37812 C 81.339199,231.86551 77.636681,238.15421 76.245614,244.96 C 74.584677,253.08601 70.366373,258.79661 63.628657,263.81961 C 72.377503,262.56564 77.953293,257.61057 82.488298,251.20267 C 86.985991,244.84754 92.672832,239.98922 100.64619,238.68806 C 96.157297,246.48798 95.130681,253.70845 96.450292,260.53016 C 98.025484,268.67327 96.323067,275.56248 92.020462,282.78158 C 99.623447,278.275 102.87056,271.56291 104.60819,263.90738 C 106.33224,256.31157 109.73672,249.65174 116.61113,245.39858 C 115.44777,254.32359 117.25485,261.39905 121.08479,267.19684 C 125.6563,274.11726 126.71244,281.13218 125.5,289.44827 C 130.79963,282.37519 131.23951,274.93461 129.9152,267.19684 C 128.60186,259.52313 129.20299,252.05924 133.92105,245.50092 C 136.26255,254.18476 140.6375,260.03299 146.39181,263.92201 C 153.26368,268.56623 156.91724,274.63455 158.97953,282.78158 C 161.16901,274.21887 158.73434,267.18676 154.54972,260.54477 C 150.39952,253.95748 148.09471,246.83095 149.94445,238.96583 C 155.43134,246.09497 161.7059,249.81161 168.5117,251.20267 C 176.63772,252.86355 182.3483,257.08192 187.37134,263.81961 C 186.11731,255.07073 181.16225,249.49499 174.7544,244.96 C 168.39925,240.46232 163.55478,234.76163 162.25439,226.78746 C 170.0503,231.27224 177.26297,232.31705 184.08185,230.99799 C 192.22496,229.42279 199.11423,231.12525 206.33334,235.42783 C 201.82669,227.82482 195.11463,224.57772 187.45907,222.84009 C 179.86949,221.11746 173.23273,217.70126 168.97954,210.83717 C 177.8909,211.99284 184.95699,210.1893 190.74853,206.36349 C 197.66897,201.79197 204.6839,200.73583 213,201.94828 C 205.92689,196.64863 198.48632,196.20876 190.74853,197.53307 C 183.07488,198.84642 175.61092,198.24528 169.05262,193.52722 C 177.73643,191.18571 183.58476,186.81077 187.47368,181.05645 C 192.11789,174.1846 198.18628,170.53102 206.33334,168.46874 C 197.77056,166.27926 190.73847,168.71394 184.09649,172.89856 C 177.50918,177.04873 170.38265,179.35356 162.51754,177.50382 C 169.64667,172.01693 173.36331,165.74235 174.7544,158.93657 C 176.41531,150.81053 180.63365,145.09998 187.37134,140.07693 C 178.62248,141.33095 173.04669,146.28603 168.5117,152.6939 C 164.01401,159.04901 158.31332,163.8935 150.33917,165.1939 C 154.82393,157.39798 155.86877,150.18529 154.54972,143.36639 C 152.97451,135.22329 154.67694,128.33404 158.97953,121.11494 C 151.37654,125.62155 148.12942,132.33363 146.39181,139.9892 C 144.67005,147.57491 141.26057,154.21527 134.40352,158.46874 C 135.55867,149.5579 133.74098,142.50589 129.9152,136.71435 C 125.34367,129.79392 124.28753,122.76438 125.5,114.44827 z "
     style="color:#000000;fill:#ffcd50;fill-opacity:1;fill-rule:nonzero;stroke:none;stroke-width:3;stroke-linecap:butt;stroke-linejoin:miter;marker:none;marker-start:none;marker-mid:none;marker-end:none;stroke-miterlimit:4;stroke-dasharray:none;stroke-dashoffset:0;stroke-opacity:1;visibility:visible;display:inline;overflow:visible"
     id="Sun" />
  <g
     transform="matrix(0,-0.805125,0.805125,0,-38.78143,-72.12951)"
     id="Antik-blixt">
    <path
       d="M -152.42825,210.0929 C -152.42422,254.87465 -158.38325,291.19045 -165.73548,291.19045 C -173.0877,291.19045 -179.04673,254.87465 -179.0427,210.0929 C -179.04673,165.31115 -173.0877,128.99535 -165.73548,128.99535 C -158.38325,128.99535 -152.42422,165.31115 -152.42825,210.0929 L -152.42825,210.0929 z "
       transform="matrix(1.257947,0,0,1,60.8972,0)"
       style="fill:#003d8f;fill-opacity:1;stroke:none;stroke-width:5;stroke-miterlimit:4;stroke-dasharray:none;stroke-opacity:1"
       id="path4632" />
    <g
       transform="matrix(0.712492,0,0,1,-68.9401,-23.38846)"
       id="g4654">
      <path
         d="M -110.38593,249.84625 C -108.94445,241.72956 -108.23219,235.4714 -106.74928,227.46251 C -104.5306,231.56686 -103.59088,233.20697 -99.76286,240.65101 C -96.03289,247.90433 -90.67505,258.21571 -87.85652,263.56517 C -82.75763,273.24271 -82.72949,273.28084 -82.23989,271.17814 C -81.96927,270.01583 -81.69713,267.43948 -81.63514,265.45292 C -81.37856,257.23071 -80.0727,248.89587 -78.95812,248.36665 C -78.69959,248.24389 -73.23675,258.64817 -66.81849,271.48729 L -53.90995,297.44052 C -52.78294,293.52396 -51.93513,291.2093 -50.43925,285.13706 C -48.39716,292.86816 -48.44536,301.26572 -47.79991,309.27036 C -47.41516,313.97118 -47.18904,317.77805 -47.29742,317.73011 C -55.36827,309.88796 -55.676,309.48209 -72.27588,294.61621 C -62.82402,298.85926 -63.87875,298.22734 -59.13078,299.91888 C -58.86428,299.79317 -62.91629,292.20832 -67.38192,282.80337 C -71.84756,273.39843 -75.6415,265.77007 -75.81289,265.85144 C -75.9843,265.93283 -77.01054,272.20253 -78.09345,279.78412 L -80.06237,293.56883 L -90.63268,272.49277 C -96.44635,260.90093 -102.06692,249.57563 -102.67467,248.55945 C -103.37504,252.10889 -105.86986,266.1671 -107.42759,271.44074"
         style="fill:#003d8f"
         id="path4612" />
      <path
         d="M -110.38593,249.84625 C -111.82741,241.72956 -112.53967,235.4714 -114.02258,227.46251 C -116.24126,231.56686 -117.18098,233.20697 -121.009,240.65101 C -124.73897,247.90433 -130.09681,258.21571 -132.91534,263.56517 C -138.01423,273.24271 -138.04237,273.28084 -138.53197,271.17814 C -138.80259,270.01583 -139.07473,267.43948 -139.13672,265.45292 C -139.3933,257.23071 -140.69916,248.89587 -141.81374,248.36665 C -142.07227,248.24389 -147.53511,258.64817 -153.95337,271.48729 L -166.86191,297.44052 C -167.98892,293.52396 -168.83673,291.2093 -170.33261,285.13706 C -172.3747,292.86816 -172.3265,301.26572 -172.97195,309.27036 C -173.3567,313.97118 -173.58282,317.77805 -173.47444,317.73011 C -165.40359,309.88796 -165.09586,309.48209 -148.49598,294.61621 C -157.94784,298.85926 -156.89311,298.22734 -161.64108,299.91888 C -161.90758,299.79317 -157.85557,292.20832 -153.38994,282.80337 C -148.9243,273.39843 -145.13036,265.77007 -144.95897,265.85144 C -144.78756,265.93283 -143.76132,272.20253 -142.67841,279.78412 L -140.70949,293.56883 L -130.13918,272.49277 C -124.32551,260.90093 -118.70494,249.57563 -118.09719,248.55945 C -117.39682,252.10889 -114.902,266.1671 -113.34427,271.44074"
         style="fill:#003d8f"
         id="path4634" />
    </g>
    <g
       transform="matrix(0.712492,0,0,1,-26.99253,0)"
       id="g4650">
      <path
         d="M -169.26033,163.88754 C -167.81885,172.00423 -167.10659,178.26239 -165.62368,186.27128 C -163.405,182.16693 -162.46528,180.52682 -158.63726,173.08278 C -154.90729,165.82946 -149.54945,155.51808 -146.73092,150.16862 C -141.63203,140.49108 -141.60389,140.45295 -141.11429,142.55565 C -140.84367,143.71796 -140.57153,146.29431 -140.50954,148.28087 C -140.25296,156.50308 -138.9471,164.83792 -137.83252,165.36714 C -137.57399,165.4899 -132.11115,155.08562 -125.69289,142.2465 L -112.78435,116.29327 C -111.65734,120.20983 -110.80953,122.52449 -109.31365,128.59673 C -107.27156,120.86563 -107.31976,112.46807 -106.67431,104.46344 C -106.28956,99.762619 -106.06344,95.955749 -106.17182,96.003689 C -114.24267,103.84584 -114.5504,104.25171 -131.15028,119.11758 C -121.69842,114.87453 -122.75315,115.50645 -118.00518,113.81491 C -117.73868,113.94062 -121.79069,121.52547 -126.25632,130.93042 C -130.72196,140.33536 -134.5159,147.96372 -134.68729,147.88235 C -134.8587,147.80096 -135.88494,141.53126 -136.96785,133.94967 L -138.93677,120.16496 L -149.50708,141.24102 C -155.32075,152.83286 -160.94132,164.15816 -161.54907,165.17434 C -162.24944,161.6249 -164.74426,147.56669 -166.30199,142.29305"
         style="fill:#003d8f"
         id="path4636" />
      <path
         d="M -169.26033,163.88755 C -170.70181,172.00424 -171.41407,178.26239 -172.89698,186.27128 C -175.11566,182.16693 -176.05538,180.52682 -179.8834,173.08278 C -183.61337,165.82947 -188.97121,155.51809 -191.78974,150.16863 C -196.88863,140.49109 -196.91677,140.45296 -197.40637,142.55566 C -197.67699,143.71797 -197.94913,146.29432 -198.01112,148.28088 C -198.2677,156.50309 -199.57356,164.83793 -200.68814,165.36715 C -200.94667,165.48991 -206.40951,155.08563 -212.82777,142.24651 L -225.73631,116.29328 C -226.86332,120.20984 -227.71113,122.5245 -229.20701,128.59674 C -231.2491,120.86564 -231.2009,112.46808 -231.84635,104.46344 C -232.2311,99.762624 -232.45722,95.955754 -232.34884,96.003694 C -224.27799,103.84584 -223.97026,104.25171 -207.37038,119.11759 C -216.82224,114.87454 -215.76751,115.50646 -220.51548,113.81492 C -220.78198,113.94063 -216.72997,121.52548 -212.26434,130.93043 C -207.7987,140.33537 -204.00476,147.96373 -203.83337,147.88236 C -203.66196,147.80097 -202.63572,141.53127 -201.55281,133.94968 L -199.58389,120.16497 L -189.01358,141.24103 C -183.19991,152.83287 -177.57934,164.15817 -176.97159,165.17435 C -176.27122,161.62491 -173.7764,147.5667 -172.21867,142.29306"
         style="fill:#003d8f"
         id="path4638" />
    </g>
    <g
       transform="matrix(0.712492,0,0,1,-30.16209,-47.58342)"
       id="g4662">
      <path
         d="M -164.81178,306.46751 C -164.55325,306.34475 -159.09041,316.74903 -152.67215,329.58815 L -139.76361,355.54138 C -138.6366,351.62482 -137.78879,349.31016 -136.29291,343.23792 C -134.25082,350.96902 -134.29902,359.36658 -133.65357,367.37122 C -133.26882,372.07204 -133.0427,375.87891 -133.15108,375.83097 C -141.22193,367.98882 -141.52966,367.58295 -158.12954,352.71707 C -148.67768,356.96012 -149.73241,356.3282 -144.98444,358.01974 C -144.71794,357.89403 -148.76995,350.30918 -153.23558,340.90423 C -157.70122,331.49929 -161.49516,323.87093 -161.66655,323.9523"
         style="fill:#003d8f"
         id="path4642" />
      <path
         d="M -164.81178,306.46751 C -165.07031,306.34475 -170.53315,316.74903 -176.95141,329.58815 L -189.85995,355.54138 C -190.98696,351.62482 -191.83477,349.31016 -193.33065,343.23792 C -195.37274,350.96902 -195.32454,359.36658 -195.96999,367.37122 C -196.35474,372.07204 -196.58086,375.87891 -196.47248,375.83097 C -188.40163,367.98882 -188.0939,367.58295 -171.49402,352.71707 C -180.94588,356.96012 -179.89115,356.3282 -184.63912,358.01974 C -184.90562,357.89403 -180.85361,350.30918 -176.38798,340.90423 C -171.92234,331.49929 -168.1284,323.87093 -167.95701,323.9523"
         style="fill:#003d8f"
         id="path4644" />
    </g>
    <g
       transform="matrix(0.712492,0,0,1,-11.77412,56.4549)"
       id="g4658">
      <path
         d="M -190.61973,92.749315 C -190.87826,92.872075 -196.3411,82.467795 -202.75936,69.628675 L -215.6679,43.675449 C -216.79491,47.592005 -217.64272,49.906665 -219.1386,55.978905 C -221.18069,48.247805 -221.13249,39.850249 -221.77794,31.845609 C -222.16269,27.144789 -222.38881,23.337919 -222.28043,23.385859 C -214.20958,31.228009 -213.90185,31.633879 -197.30197,46.499759 C -206.75383,42.256709 -205.6991,42.888629 -210.44707,41.197089 C -210.71357,41.322799 -206.66156,48.907645 -202.19593,58.312595 C -197.73029,67.717535 -193.93635,75.345895 -193.76496,75.264525"
         style="fill:#003d8f"
         id="path4646" />
      <path
         d="M -190.61973,92.749318 C -190.3612,92.872078 -184.89836,82.467798 -178.4801,69.628678 L -165.57156,43.675448 C -164.44455,47.592008 -163.59674,49.906668 -162.10086,55.978908 C -160.05877,48.247808 -160.10697,39.850248 -159.46152,31.845608 C -159.07677,27.144786 -158.85065,23.337916 -158.95903,23.385856 C -167.02988,31.228008 -167.33761,31.633878 -183.93749,46.499758 C -174.48563,42.256708 -175.54036,42.888628 -170.79239,41.197088 C -170.52589,41.322798 -174.5779,48.907648 -179.04353,58.312598 C -183.50917,67.717538 -187.30311,75.345898 -187.4745,75.264528"
         style="fill:#003d8f"
         id="path4648" />
    </g>
  </g>
  <path
     d="M 249.55062,1.4395041 L 1.449569,1.4395041 L 1.449569,174.9361 C 0.68232904,268.65698 81.739009,302.75585 125.5001,302.75585 C 168.49395,302.75585 250.31785,268.65698 249.55062,174.9361 L 249.55062,1.4395041 z "
     style="fill:none;fill-opacity:0;stroke:#000000;stroke-width:1.88832211;stroke-linejoin:bevel"
     id="Frame" />
</svg>
