<?xml version="1.0" encoding="UTF-8" standalone="no"?>
<!-- Created with Inkscape (http://www.inkscape.org/) -->
<svg
   xmlns:dc="http://purl.org/dc/elements/1.1/"
   xmlns:cc="http://web.resource.org/cc/"
   xmlns:rdf="http://www.w3.org/1999/02/22-rdf-syntax-ns#"
   xmlns:svg="http://www.w3.org/2000/svg"
   xmlns="http://www.w3.org/2000/svg"
   xmlns:xlink="http://www.w3.org/1999/xlink"
   version="1.0"
   width="251"
   height="304.20001"
   id="svg4166">
  <defs
     id="defs4168" />
  <metadata
     id="metadata1880"><rdf:RDF><cc:Work
         rdf:about=""><dc:title>Arvidsjaur kommunvapen</dc:title><dc:date>10-10-2007</dc:date><dc:creator><cc:Agent><dc:title>Lokal_Profil</dc:title></cc:Agent></dc:creator><cc:license
         rdf:resource="http://creativecommons.org/licenses/by-sa/2.5/" /><dc:rights><cc:Agent><dc:title>cc-by-sa-2.5</dc:title></cc:Agent></dc:rights><dc:format>image/svg+xml</dc:format><dc:type
         rdf:resource="http://purl.org/dc/dcmitype/StillImage" /></cc:Work><cc:License
         rdf:about="http://creativecommons.org/licenses/by-sa/2.5/"><cc:permits
         rdf:resource="http://web.resource.org/cc/Reproduction" /><cc:permits
         rdf:resource="http://web.resource.org/cc/Distribution" /><cc:requires
         rdf:resource="http://web.resource.org/cc/Notice" /><cc:requires
         rdf:resource="http://web.resource.org/cc/Attribution" /><cc:permits
         rdf:resource="http://web.resource.org/cc/DerivativeWorks" /><cc:requires
         rdf:resource="http://web.resource.org/cc/ShareAlike" /></cc:License></rdf:RDF>
  </metadata>
  <path
     d="M 249.55058,1.4395041 L 125.50008,1.4395041 L 1.4495291,1.4395041 L 1.4495291,174.9361 C 0.68228908,268.65698 81.738969,302.75585 125.50006,302.75585 C 168.49391,302.75585 250.31781,268.65698 249.55058,174.9361 L 249.55058,1.4395041 z "
     style="color:#000000;fill:#ffcd50;fill-opacity:1;fill-rule:nonzero;stroke:none;stroke-width:1.88832211;stroke-linecap:round;stroke-linejoin:bevel;marker:none;marker-start:none;marker-mid:none;marker-end:none;stroke-miterlimit:4;stroke-dashoffset:0;stroke-opacity:1;visibility:visible;display:block"
     id="Shield" />
  <path
     d="M 1.1,1.0980226 L 1.1,91.292012 L 249.6,91.292012 L 249.6,1.0980226 L 125.35,1.0980226 L 1.1,1.0980226 z "
     style="color:#000000;fill:#003d8f;fill-opacity:1;fill-rule:nonzero;stroke:none;stroke-width:1.88832211;stroke-linecap:round;stroke-linejoin:bevel;marker:none;marker-start:none;marker-mid:none;marker-end:none;stroke-miterlimit:4;stroke-dashoffset:0;stroke-opacity:1;visibility:visible;display:block"
     id="Chef" />
  <g
     transform="matrix(1.014775,0,0,1.014777,-0.580348,10.32479)"
     style="fill:#ffcd50;fill-opacity:1"
     id="Karlavagnen">
    <path
       d="M 192.12341,65.763873 L 188.79508,59.42571 L 181.64192,59.71238 L 185.46677,53.660883 L 181.64192,47.609397 L 188.79508,47.896062 L 192.12341,41.557899 L 195.45174,47.896062 L 202.6049,47.609397 L 198.78005,53.660883 L 202.6049,59.71238 L 195.45174,59.42571 L 192.12341,65.763873 z "
       style="fill:#ffcd50;fill-opacity:1;fill-rule:nonzero;stroke:none;stroke-width:1.88800001;stroke-miterlimit:4;stroke-opacity:1"
       id="6-pt-star-dull" />
    <use
       transform="translate(20.18382,-31.71744)"
       style="fill:#ffcd50;fill-opacity:1"
       id="use8768"
       x="0"
       y="0"
       width="251"
       height="304.20001"
       xlink:href="#6-pt-star-dull" />
    <use
       transform="translate(-165.7957,-0.576681)"
       style="fill:#ffcd50;fill-opacity:1"
       id="use8770"
       x="0"
       y="0"
       width="251"
       height="304.20001"
       xlink:href="#6-pt-star-dull" />
    <use
       transform="translate(-150.802,-32.00578)"
       style="fill:#ffcd50;fill-opacity:1"
       id="use8772"
       x="0"
       y="0"
       width="251"
       height="304.20001"
       xlink:href="#6-pt-star-dull" />
    <use
       transform="translate(-108.1277,-29.69906)"
       style="fill:#ffcd50;fill-opacity:1"
       id="use8774"
       x="0"
       y="0"
       width="251"
       height="304.20001"
       xlink:href="#6-pt-star-dull" />
    <use
       transform="translate(-66.60662,-36.61922)"
       style="fill:#ffcd50;fill-opacity:1"
       id="use8776"
       x="0"
       y="0"
       width="251"
       height="304.20001"
       xlink:href="#6-pt-star-dull" />
    <use
       transform="translate(-50.45956,-2.306723)"
       style="fill:#ffcd50;fill-opacity:1"
       id="use8778"
       x="0"
       y="0"
       width="251"
       height="304.20001"
       xlink:href="#6-pt-star-dull" />
  </g>
  <g
     transform="matrix(0.922021,0,0,0.76635,0.729668,69.81142)"
     id="Ren">
    <path
       d="M 129.93736,161.73092 C 132.04157,161.69929 139.31541,162.6124 146.19041,162.7793 C 172.42482,163.41617 175.99021,164.21988 169.14812,167.95441 C 167.3836,168.91752 163.95927,171.55601 161.21305,173.36187 C 151.09659,180.01426 136.75219,186.24242 132.19041,178.10769 C 131.94771,177.6749 131.40291,177.20776 130.44041,177.21049 C 129.09982,177.21429 129.39225,177.80965 131.69041,179.75536 C 134.46071,182.62315 136.56904,183.08106 140.44041,183.11658 C 144.2162,183.04002 147.95284,181.61811 151.5529,180.59767 C 156.21256,179.00997 156.31813,179.02206 159.98104,181.5631 C 162.02119,182.97839 167.06476,187.41442 171.18896,191.42094 C 179.47734,198.68367 188.24799,205.16184 197.69041,210.73652 C 199.26428,212.02661 199.64372,212.19476 200.37526,212.45347 C 201.10679,212.71218 142.08195,267.39728 140.56921,265.81974 C 138.52539,258.63354 133.65256,254.10596 130.04104,248.20552 C 128.96594,246.28052 126.9853,242.90552 125.63961,240.70552 C 124.29393,238.50552 122.71512,234.9813 122.13114,232.87392 C 121.1014,229.15793 121.20055,228.90146 125.41697,224.37392 C 129.73736,219.06265 133.91949,212.30391 135.19041,205.41019 C 129.63098,211.82898 125.68567,222.52218 115.55985,228.17362 C 107.76754,232.15922 102.45506,233.0216 91.927143,232.00996 C 81.871193,231.04366 79.647633,231.76876 72.432733,238.36705 C 67.556413,242.82663 64.517703,244.20552 59.566293,244.20552 C 56.702442,244.20552 52.782087,242.81403 53.127534,240.98517 C 53.34819,239.81698 64.700058,235.6126 72.465133,232.40562 C 75.361154,231.20956 75.534994,229.6313 72.650953,230.20552 C 67.976763,231.13617 66.454407,231.68287 61.914303,233.70552 C 55.489976,236.56761 53.641213,237.98699 48.451593,235.20552 C 46.399233,234.10552 44.141213,233.20552 43.433773,233.20552 C 42.726343,233.20552 41.635573,232.0819 41.009853,230.70858 C 40.087963,228.68525 40.211713,227.58116 41.662283,224.88761 C 43.163683,222.09966 43.250203,221.18576 42.198703,219.22102 C 41.147203,217.25628 40.844053,214.82414 41.499213,213.74692 C 42.154373,212.6697 43.815403,210.79439 45.190403,209.57957 C 49.540953,205.73585 60.112343,196.87407 66.006083,192.13023 C 69.132463,189.61382 72.914003,185.7413 74.409513,183.52464 C 77.126423,179.4976 88.855463,169.98144 95.050703,166.77776 C 96.854913,165.84477 98.863879,163.25068 100.35951,161.64347 C 106.51592,155.02778 121.29544,161.49402 129.93736,161.73092 z "
       style="fill:#003d8f;fill-opacity:1"
       id="path1875" />
    <path
       d="M 137.1993,177.87466 C 134.68822,177.22097 132.58419,176.0442 132.42693,175.20552 C 132.19674,173.97792 133.58212,173.69722 140.05578,173.65983 C 147.17359,173.61871 148.3399,173.32887 151.69977,170.76618 C 154.27674,168.80063 157.54505,167.55957 162.24816,166.7607 C 168.97646,165.61784 171.20459,166.41971 164.92894,167.72549 C 163.14775,168.0961 160.35221,169.58053 158.38033,170.30415 C 152.53318,172.44987 148.95748,176.43112 148.74928,176.70307 C 147.68166,177.52942 146.25596,178.20552 145.58107,178.20552 C 142.7114,178.87007 140.06756,178.54554 137.1993,177.87466 z "
       style="fill:#ffcd50;fill-opacity:1"
       id="Ear" />
    <path
       d="M 48.789482,220.62081 C 48.503492,219.18814 48.785626,218.21993 49.716813,217.43848 C 50.45292,216.82073 51.261943,215.72563 51.514643,215.00493 C 51.767342,214.28422 52.490098,213.69456 53.120769,213.69456 C 55.074667,213.69456 54.592615,218.67894 52.429522,220.84203 C 50.065672,223.20588 49.296192,223.15912 48.789482,220.62081 z "
       style="fill:#ffcd50;fill-opacity:1"
       id="Nose" />
    <g
       id="Eye">
      <path
         d="M 90.190403,194.31251 C 90.190403,193.82135 90.831393,193.17353 91.614833,192.87289 C 92.398263,192.57226 93.780123,190.76503 94.685633,188.85682 C 100.06144,183.69512 101.72776,183.18788 108.6904,187.20552 C 110.3404,188.29827 111.05083,189.19531 110.26914,189.19893 C 109.48745,189.20255 108.01844,189.95615 107.00469,190.87359 C 105.8699,191.90055 102.81544,194.14966 99.465873,192.88367 C 96.023865,191.58274 93.324773,193.67115 92.780323,194.2156 C 91.548113,195.44781 90.190403,195.49861 90.190403,194.31251 z "
         style="fill:#ffcd50;fill-opacity:1"
         id="path2025" />
      <path
         d="M 105.12197,188.6528 C 105.12197,187.2759 103.85021,186.14936 102.29583,186.14936 C 100.74146,186.14936 99.469694,187.2759 99.469694,188.6528 C 99.469694,190.0297 100.74146,191.15624 102.29583,191.15624 C 103.85021,191.15624 105.12197,190.0297 105.12197,188.6528 z "
         style="fill:#003d8f;fill-opacity:1"
         id="use1973" />
    </g>
    <path
       d="M 122.99812,163.60063 C 122.2078,168.91526 113.20327,167.5669 110.60978,164.64328 C 108.49573,162.26013 112.57459,160.65288 109.55554,158.2781 C 106.23004,155.66226 102.62169,155.64663 98.174803,158.2288 C 89.120043,163.48661 86.286873,164.39246 82.650583,163.19238 C 80.747483,162.5643 79.190403,161.73765 79.190403,161.35537 C 79.190403,160.9731 80.738993,159.82636 82.631713,158.80706 C 91.349923,154.11199 86.491413,147.24816 74.328653,147.07695 C 68.692943,146.99762 62.742323,148.93664 57.967933,152.40814 C 56.730773,153.30769 55.940073,153.35519 55.161603,152.57671 C 54.383133,151.79824 54.827813,150.60146 56.739863,148.32912 C 59.898213,144.57563 58.996373,142.63495 53.625553,141.62738 C 49.772983,140.90463 47.705293,138.9121 48.542853,136.72944 C 49.003503,135.52901 49.668683,135.43686 51.859863,136.26995 C 55.826533,137.77807 61.969453,136.47237 63.759333,133.74067 C 65.466553,131.13512 65.611223,128.5914 64.627543,118.47516 C 64.016523,112.19137 64.147063,111.15938 65.624663,110.59238 C 68.036403,109.6669 69.095403,111.11463 70.810233,117.68145 C 71.637563,120.84964 73.357133,125.09347 74.631493,127.1122 C 77.976093,132.41038 87.208563,138.97082 97.099573,143.07763 C 105.14658,146.4188 106.38672,146.64653 116.6904,146.67506 C 127.36004,146.70461 127.92541,146.59331 135.51513,142.96933 C 144.31245,138.76873 146.49958,137.23212 153.86151,130.07971 C 169.1426,115.23351 172.6908,85.888642 162.05791,62.292617 C 159.7716,57.218948 157.25946,54.058048 150.02852,47.156646 C 143.32211,40.75587 141.06085,37.985522 141.53474,36.750593 C 142.76771,33.537525 150.18517,37.507406 160.26782,46.77668 C 165.39904,51.493959 166.70707,52.205515 170.24746,52.205515 C 172.4884,52.205515 175.15209,51.761207 176.16677,51.218165 C 179.33562,49.522248 182.18929,43.789972 182.20572,39.087481 C 182.22428,33.777498 183.36359,31.674257 185.7296,32.582181 C 187.2187,33.153602 187.38023,34.115288 186.84586,39.227898 C 186.50223,42.515587 186.4283,45.205515 186.68157,45.205515 C 186.93485,45.205515 188.61545,44.307197 190.41624,43.209253 C 193.73407,41.186373 201.60195,40.444357 202.60057,42.060155 C 203.34427,43.263481 199.18028,46.825388 196.19041,47.543451 C 194.81541,47.873679 189.79177,51.520725 185.02677,55.647998 C 175.2248,64.13811 173.59371,67.231528 174.69539,75.241728 C 175.58773,81.729843 178.90172,84.634507 184.55199,83.880921 C 189.99494,83.154987 193.66999,79.170857 197.1062,70.270888 C 200.10102,62.514137 202.15078,60.801563 203.18686,65.190484 C 203.5095,66.557217 204.98525,68.355602 206.46631,69.186895 C 209.03528,70.628823 209.47926,70.73112 212.11079,67.701926 C 216.06204,63.153574 223.83674,45.224692 223.57798,54.49043 C 223.44832,59.417912 218.68921,69.734447 214.17289,74.878255 C 212.53252,76.746524 211.19041,78.916919 211.19041,79.701356 C 211.19041,81.854362 215.26267,85.205515 217.87897,85.205515 C 220.51728,85.205515 220.97057,86.692161 218.60862,87.598526 C 215.96277,88.613835 213.46268,88.296985 207.30483,86.165932 C 199.0568,83.311528 196.34692,83.986309 186.44111,91.36116 C 180.24472,95.97435 177.57108,100.77271 173.74597,114.14498 C 172.26089,119.33668 170.40501,124.82364 169.62178,126.33823 C 167.87074,129.72437 168.03918,129.83996 178.29359,132.28916 C 188.68176,134.7703 192.52886,134.7053 197.40229,131.96628 C 202.52633,129.08641 204.19041,125.73966 204.19041,118.3142 C 204.19041,115.01934 204.59354,112.07441 205.08625,111.7699 C 206.88394,110.65886 210.24698,114.67933 210.46952,118.20552 C 210.59101,120.13052 211.14041,122.03613 211.69041,122.44021 C 213.49301,123.76455 218.60888,123.19859 223.04961,121.18356 C 228.19444,118.84904 228.19944,118.84832 228.15881,120.45552 C 228.09487,122.98466 223.52,126.79258 217.19041,129.58511 C 213.61541,131.16235 209.56541,133.4672 208.19041,134.70698 C 204.48663,138.04656 201.76148,139.20192 197.50615,139.23673 L 193.69041,139.26795 L 199.95113,145.15617 C 206.08651,150.92651 211.26259,153.20552 218.23277,153.20552 C 220.65983,153.20552 228.19041,150.00207 228.19041,148.96962 C 228.19041,148.54936 228.64041,148.20552 229.19041,148.20552 C 231.24217,148.20552 230.08595,152.2549 227.0454,155.71789 C 223.27722,160.00962 218.44064,162.20552 212.75612,162.20552 C 208.68632,162.20552 200.95383,159.24978 199.69497,157.2129 C 198.4462,155.19234 197.4415,156.29681 196.90764,160.27703 C 196.02501,166.85754 192.14066,171.72917 186.20418,173.70095 C 182.10583,175.0622 180.82602,175.14799 179.61469,174.14268 C 178.31606,173.06491 178.58812,172.50208 181.61286,170.00883 C 186.36434,166.09226 188.86458,158.42292 187.29283,152.58589 C 185.41778,145.62246 176.97694,139.27911 169.51733,139.22748 C 165.1836,139.19749 160.67222,143.791 159.82365,149.09764 C 159.46429,151.34498 158.40874,153.54359 157.44449,154.08321 C 156.48024,154.62283 156.8627,152.41802 156.67844,151.45552 C 156.50731,149.84466 155.3571,148.15387 152.64659,147.32103 C 148.5507,146.1901 144.49458,147.67365 137.3825,152.90396 C 135.01315,154.64641 131.86315,156.344 130.3825,156.67638 C 126.30871,157.59087 123.47546,160.39068 122.99812,163.60063 z "
       style="fill:#d40000;fill-opacity:1;stroke:#ffcd50;stroke-width:1.18964124;stroke-miterlimit:4;stroke-dasharray:none;stroke-opacity:1"
       id="Horn" />
  </g>
  <path
     d="M 249.55062,1.4395041 L 125.50012,1.4395041 L 1.449569,1.4395041 L 1.449569,174.9361 C 0.68232904,268.65698 81.739009,302.75585 125.5001,302.75585 C 168.49395,302.75585 250.31785,268.65698 249.55062,174.9361 L 249.55062,1.4395041 z "
     style="color:#000000;fill:none;fill-opacity:0;fill-rule:nonzero;stroke:#000000;stroke-width:1.88832211;stroke-linecap:round;stroke-linejoin:bevel;marker:none;marker-start:none;marker-mid:none;marker-end:none;stroke-miterlimit:4;stroke-dashoffset:0;stroke-opacity:1;visibility:visible;display:block"
     id="Frame" />
</svg>
