<?xml version="1.0" encoding="UTF-8" standalone="no"?>
<!-- Created with Inkscape (http://www.inkscape.org/) -->
<svg
   xmlns:dc="http://purl.org/dc/elements/1.1/"
   xmlns:cc="http://web.resource.org/cc/"
   xmlns:rdf="http://www.w3.org/1999/02/22-rdf-syntax-ns#"
   xmlns:svg="http://www.w3.org/2000/svg"
   xmlns="http://www.w3.org/2000/svg"
   xmlns:xlink="http://www.w3.org/1999/xlink"
   version="1.0"
   width="251"
   height="304.20001"
   id="svg4166">
  <defs
     id="defs4168" />
  <metadata
     id="metadata1880"><rdf:RDF><cc:Work
         rdf:about=""><dc:title>Jokkmokk kommunvapen</dc:title><dc:date>14-10-2007</dc:date><dc:creator><cc:Agent><dc:title>Lokal_Profil</dc:title></cc:Agent></dc:creator><cc:license
         rdf:resource="http://creativecommons.org/licenses/by-sa/2.5/" /><dc:rights><cc:Agent><dc:title>cc-by-sa-2.5</dc:title></cc:Agent></dc:rights><dc:format>image/svg+xml</dc:format><dc:type
         rdf:resource="http://purl.org/dc/dcmitype/StillImage" /></cc:Work><cc:License
         rdf:about="http://creativecommons.org/licenses/by-sa/2.5/"><cc:permits
         rdf:resource="http://web.resource.org/cc/Reproduction" /><cc:permits
         rdf:resource="http://web.resource.org/cc/Distribution" /><cc:requires
         rdf:resource="http://web.resource.org/cc/Notice" /><cc:requires
         rdf:resource="http://web.resource.org/cc/Attribution" /><cc:permits
         rdf:resource="http://web.resource.org/cc/DerivativeWorks" /><cc:requires
         rdf:resource="http://web.resource.org/cc/ShareAlike" /></cc:License></rdf:RDF>
  </metadata>
  <path
     d="M 249.55058,1.4395041 L 1.4495291,1.4395041 L 1.4495291,174.9361 C 0.68228908,268.65698 81.738969,302.75585 125.50006,302.75585 C 168.49391,302.75585 250.31781,268.65698 249.55058,174.9361 L 249.55058,1.4395041 z "
     style="color:#000000;fill:#eeeeee;fill-opacity:1;stroke:none"
     id="Shield" />
  <g
     transform="translate(-6.468964e-6,3.45755e-4)"
     id="Blixt-kors">
    <path
       d="M 242.25055,7.6639175 L 221.07568,37.249298 L 222.08304,28.563691 L 185.30278,57.040909 L 225.5062,59.573523 L 215.72122,66.618985 L 129.33823,128.92171 L 123.76468,126.07435 L 201.91594,68.125047 L 163.81323,65.400977 L 172.42801,58.552002 L 218.46997,22.728227 L 208.64568,21.601381 L 242.25055,7.6639175 z "
       style="fill:#003d8f;fill-opacity:1;fill-rule:evenodd;stroke:#003d8f;stroke-width:1.99910965pt;marker-start:none;stroke-opacity:1"
       id="Blixt" />
    <use
       transform="matrix(-1,0,0,1,251,0)"
       id="use2195"
       x="0"
       y="0"
       width="251"
       height="304.20001"
       xlink:href="#Blixt" />
    <use
       transform="matrix(-0.615665,0.788016,-0.788016,-0.615665,303.8405,106.3043)"
       id="use2197"
       x="0"
       y="0"
       width="251"
       height="304.20001"
       xlink:href="#Blixt" />
  </g>
  <path
     d="M 58.643034,144.99316 C 40.815195,144.99316 14.605924,131.21898 9.391809,134.13066 C 9.391809,134.13066 7.9477388,146.1552 9.391809,148.56198 C 54.044803,150.57457 51.418159,164.29635 51.418159,164.29635 L 51.418159,251.47124 C 51.418159,257.84657 65.867911,257.87648 65.867911,251.47124 L 65.867911,164.29635 C 65.867911,164.29635 62.278553,150.09321 107.89426,148.56198 C 109.81968,146.1552 107.89426,134.13066 107.89426,134.13066 C 104.5107,132.73876 75.989702,144.99316 58.643034,144.99316 z "
     style="color:#000000;fill:#d40000;fill-opacity:1;fill-rule:nonzero;stroke:none;stroke-width:1.12051535;stroke-linecap:butt;stroke-linejoin:miter;marker:none;marker-start:none;marker-mid:none;marker-end:none;stroke-miterlimit:4;stroke-dasharray:none;stroke-dashoffset:0;stroke-opacity:1;visibility:visible;display:inline;overflow:visible"
     id="Trumhammare" />
  <use
     transform="translate(133.5,0)"
     id="Trumhammare-2"
     x="0"
     y="0"
     width="251"
     height="304.20001"
     xlink:href="#Trumhammare" />
  <path
     d="M 116.68257,23.092688 L 116.68257,19.965555 L 112.9911,19.965555 L 112.9911,23.092688 L 106.72441,23.092688 L 106.72441,16.046864 L 122.70446,16.046864 L 122.70446,12.538611 L 121.92113,12.538611 L 121.92113,7.6231468 C 121.92113,7.6231468 123.54696,6.3978781 125.25032,6.2843428 C 125.26372,6.2834454 125.27605,6.2850984 125.28947,6.2843428 C 125.35931,6.2804098 125.42516,6.2843428 125.49511,6.2843428 C 127.28558,6.2843428 129.07887,7.6231468 129.07887,7.6231468 L 129.07887,12.538611 L 128.29553,12.538611 L 128.29553,85.681969 C 129.41882,85.020407 130.79862,84.577699 132.30034,84.577699 C 135.69801,84.577699 138.67719,86.151464 140.93662,87.822118 C 143.26893,89.546629 145.14706,92.261981 145.14706,94.711569 C 145.14705,97.272736 143.74389,99.743272 141.26954,101.98217 C 138.74028,104.27076 132.95728,104.51814 131.37993,103.95616 C 130.69528,103.71227 130.08355,103.13003 129.63699,102.42191 C 129.69953,102.79889 129.73493,103.19332 129.73493,103.5946 C 129.73493,106.63821 127.83981,109.10614 125.5049,109.10614 C 123.17,109.10614 121.27488,106.63821 121.27488,103.5946 C 121.27488,103.19035 121.30935,102.7917 121.3728,102.41212 C 120.92557,103.12538 120.31817,103.71095 119.62987,103.95616 C 118.05252,104.51814 112.25972,104.27076 109.73045,101.98217 C 107.25611,99.743272 105.85294,97.272736 105.85294,94.711569 C 105.85293,92.261981 107.73106,89.546603 110.06338,87.822118 C 112.30515,86.164524 115.25671,84.601932 118.62131,84.577699 C 118.64782,84.577508 118.67312,84.577699 118.69967,84.577699 C 120.17142,84.577699 121.55684,85.003112 122.70446,85.642887 L 122.70446,33.705403 L 106.72441,33.705403 L 106.72441,26.776842 L 112.9911,26.776842 L 112.9911,29.796483 L 116.68257,29.796483 L 116.68257,26.776842 L 122.70446,26.776842 L 122.70446,23.092688 L 116.68257,23.092688 z M 117.26028,89.375908 C 117.28617,89.374676 117.31271,89.376824 117.33862,89.375908 C 118.97678,89.317552 120.61276,89.846268 121.53925,90.401988 C 122.93444,91.238804 124.12582,93.519344 125.58322,93.519344 C 127.04065,93.519344 128.07535,91.238804 129.47053,90.401988 C 130.86572,89.565163 133.85003,88.792736 136.06035,89.991541 C 138.35756,91.237482 139.99919,93.588216 139.82037,95.356533 C 139.64155,97.124858 138.67902,98.933818 136.15827,99.099351 C 136.99469,97.813 135.71565,95.804575 133.7691,95.884237 C 131.82255,95.963929 129.39751,97.7792 128.96137,99.206837 C 128.86427,99.524685 128.83634,99.887443 128.87324,100.272 C 128.10073,98.942418 126.88213,98.08304 125.5049,98.08304 C 124.13117,98.08304 122.9094,98.938427 122.13654,100.26224 C 122.17216,99.881092 122.14474,99.522112 122.04842,99.206837 C 121.61229,97.7792 119.17746,95.963899 117.23091,95.884237 C 115.28435,95.804575 114.00531,97.813 114.84174,99.099351 C 112.32098,98.933818 111.36825,97.124858 111.18942,95.356533 C 111.01059,93.588216 112.64245,91.237482 114.93965,89.991541 C 115.65898,89.601409 116.4576,89.413875 117.26028,89.375908 z "
     style="fill:#d40000;fill-opacity:1;fill-rule:evenodd;stroke:#d40000;stroke-width:0.70588243;stroke-linecap:butt;stroke-linejoin:miter;stroke-miterlimit:4;stroke-dasharray:none;stroke-opacity:1"
     id="Key" />
  <path
     d="M 249.55062,1.4395041 L 1.449569,1.4395041 L 1.449569,174.9361 C 0.68232904,268.65698 81.739009,302.75585 125.5001,302.75585 C 168.49395,302.75585 250.31785,268.65698 249.55062,174.9361 L 249.55062,1.4395041 z "
     style="fill:none;fill-opacity:0;stroke:#000000;stroke-width:1.88832211;stroke-linejoin:bevel"
     id="Frame" />
</svg>
