<?xml version="1.0" encoding="UTF-8" standalone="no"?>
<!-- Created with Inkscape (http://www.inkscape.org/) -->
<svg   
xmlns:dc="http://purl.org/dc/elements/1.1/" 
xmlns:cc="http://web.resource.org/cc/"
   xmlns:rdf="http://www.w3.org/1999/02/22-rdf-syntax-ns#"
  xmlns:svg="http://www.w3.org/2000/svg"
   
xmlns="http://www.w3.org/2000/svg"
      xmlns:xlink="http://www.w3.org/1999/xlink"
 
version="1.0"
   width="251"
   height="304.20001"
   id="svg4166">
  
<metadata
 id="metadata14"><rdf:RDF>
      
 <cc:Work
 rdf:about="">
  <dc:format>image/svg+xml</dc:format><dc:type
           rdf:resource="http://purl.org/dc/dcmitype/StillImage" />
   <cc:license
  rdf:resource="http://creativecommons.org/licenses/by-sa/2.5/" />

     <dc:title>Alvsbyns kommunvapen</dc:title>
     <dc:date>21-01-2007</dc:date>
     <dc:creator>
      <cc:Agent><dc:title>Lokal_Profil</dc:title></cc:Agent>
     </dc:creator>

 </cc:Work>
 <cc:License
   rdf:about="http://creativecommons.org/licenses/by-sa/2.5/">

  <cc:permits 
 rdf:resource="http://web.resource.org/cc/Reproduction" />

  <cc:permits
  rdf:resource="http://web.resource.org/cc/Distribution" />
  <cc:requires rdf:resource="http://web.resource.org/cc/Notice" />
  <cc:requires
 rdf:resource="http://web.resource.org/cc/Attribution" />

  <cc:permits  rdf:resource="http://web.resource.org/cc/DerivativeWorks" />

  <cc:requires
 rdf:resource="http://web.resource.org/cc/ShareAlike" />
       </cc:License>

</rdf:RDF>
</metadata>   
<defs
     id="defs4168" />
  <g
     id="Alvsbyn_kommunvapen">
    <path
       d="M 1.4495603,1.4395041 L 125.50006,1.4395041 L 249.55061,1.4395041 L 249.55061,174.9361 C 250.31785,268.65698 169.26117,302.75585 125.50008,302.75585 C 82.506226,302.75585 0.68233088,268.65698 1.4495603,174.9361 L 1.4495603,1.4395041 z "
       style="color:#000000;fill:#003d8f;fill-opacity:1;fill-rule:nonzero;stroke:none;stroke-width:1.88832211;stroke-linecap:round;stroke-linejoin:bevel;marker:none;marker-start:none;marker-mid:none;marker-end:none;stroke-miterlimit:4;stroke-dashoffset:0;stroke-opacity:1;visibility:visible;display:block"
       id="Shield" />
    <path
       d="M 125.75,123.375 C 110.26864,123.45881 95.561316,129.90348 83.34375,139.375 C 76.194796,145.56855 69.741311,154.3395 67.5625,160.8125 C 66.999025,162.48651 66.508842,162.49976 64.40625,161 C 63.508012,160.35929 60.95275,159.03533 58.75,158.03125 C 42.198803,150.48675 24.945415,150.56749 8.34375,158.3125 L 1.4375,162.15625 L 1.4375,174.9375 C 1.3046553,191.16514 3.6546631,205.58986 7.84375,218.375 C 14.923568,213.67404 20.60975,207.96875 34.34375,207.96875 C 57.732203,207.96875 57.736534,224.46875 81.125,224.46875 C 104.51345,224.46875 104.51779,207.96875 127.90625,207.96875 C 151.29471,207.96875 151.29904,224.46875 174.6875,224.46875 C 198.07595,224.46875 198.04904,207.96875 221.4375,207.96875 C 232.61301,207.96875 238.46048,211.72526 244.0625,215.65625 C 247.68295,203.5527 249.68601,190.02477 249.5625,174.9375 L 249.5625,160.78125 L 247.84375,159.84375 C 229.43049,150.06712 208.54796,150.48476 190.34375,160.125 C 188.36736,161.30652 186.69345,162.17071 186.59375,162.0625 C 186.49405,161.9543 185.5234,160.08613 184.46875,157.90625 C 181.09598,150.93502 178.13975,146.9276 172.21875,141.375 C 161.02291,130.87576 148.73779,125.43081 132.40625,123.71875 C 130.1673,123.46121 127.96162,123.36303 125.75,123.375 z "
       style="color:#000000;fill:#ffcd50;fill-opacity:1;fill-rule:nonzero;stroke:none;stroke-width:1.88832211;stroke-linecap:round;stroke-linejoin:bevel;marker:none;marker-start:none;marker-mid:none;marker-end:none;stroke-miterlimit:4;stroke-dashoffset:0;stroke-opacity:1;visibility:visible;display:block"
       id="Vagskuret_treberg" />
    <path
       d="M 125.5,4.0668715 C 122.01737,8.714914 121.72832,13.614047 122.59859,18.698869 C 123.46163,23.741561 123.07568,28.637352 119.97578,32.946566 C 118.43733,27.236924 115.55392,23.407455 111.77109,20.850918 C 107.25528,17.799014 104.85437,13.801616 103.49915,8.4478219 C 102.06037,14.074795 103.6603,18.70548 106.41019,23.07021 C 109.13587,27.396509 110.65749,32.067196 109.4461,37.231449 C 105.8401,32.546915 101.70753,30.113838 97.235164,29.199703 C 91.895206,28.10823 88.142553,25.336202 84.841689,20.90856 C 85.665764,26.657808 88.921956,30.321891 93.132832,33.302038 C 97.309057,36.257665 100.50167,39.994731 101.35672,45.234374 C 96.231068,42.28453 91.486204,41.609895 87.00334,42.477062 C 81.652165,43.512188 77.124945,42.393458 72.380951,39.56603 C 75.342443,44.562284 79.753248,46.696098 84.784046,47.83796 C 89.771475,48.969981 94.142103,51.205988 96.937335,55.715989 C 91.077151,54.954358 86.439925,56.149991 82.631999,58.665455 C 78.08428,61.669598 73.464876,62.363624 68,61.566874 C 72.648037,65.049502 77.547177,65.338553 82.631999,64.468293 C 87.67469,63.605249 92.570481,63.991173 96.879699,67.091094 C 91.170054,68.629554 87.340585,71.512939 84.784046,75.295779 C 81.732136,79.811589 77.734745,82.212491 72.380951,83.56772 C 78.007918,85.006523 82.638609,83.406576 87.00334,80.656685 C 91.329631,77.931013 96.000325,76.409381 101.16458,77.620771 C 96.480053,81.226769 94.046956,85.359342 93.132832,89.831713 C 92.041358,95.171676 89.26933,98.924344 84.841689,102.22517 C 90.590931,101.40112 94.255023,98.144943 97.235164,93.934046 C 100.1908,89.757816 103.92786,86.565204 109.1675,85.710159 C 106.21765,90.835819 105.54302,95.580708 106.41019,100.06352 C 107.4453,105.41471 106.32658,109.94192 103.49915,114.6859 C 108.4954,111.72443 110.62921,107.31362 111.77109,102.28285 C 112.90403,97.291333 115.14127,92.914858 119.65873,90.119933 C 118.89425,95.984933 120.08174,100.63452 122.59859,104.44448 C 125.60272,108.99219 126.29674,113.602 125.5,119.06686 C 128.98263,114.41884 129.27168,109.52931 128.40141,104.44448 C 127.53836,99.401778 127.93339,94.496925 131.03384,90.187173 C 132.57253,95.893703 135.4475,99.736831 139.22891,102.29245 C 143.74471,105.34437 146.14562,109.33214 147.50083,114.6859 C 148.93963,109.05895 147.3397,104.43786 144.5898,100.07314 C 141.86254,95.744341 140.34796,91.061196 141.56349,85.892684 C 145.16916,90.577552 149.29244,93.019922 153.76484,93.934046 C 159.10478,95.025488 162.85745,97.797563 166.1583,102.22517 C 165.33423,96.475914 162.07803,92.811853 157.86717,89.831713 C 153.69094,86.876097 150.50742,83.129924 149.65287,77.889768 C 154.77591,80.836901 159.51566,81.52349 163.99666,80.656685 C 169.34783,79.621542 173.87507,80.740301 178.61903,83.56772 C 175.65755,78.571448 171.24676,76.437643 166.21596,75.295779 C 161.22852,74.163767 156.86721,71.918833 154.07225,67.40814 C 159.92829,68.167581 164.57174,66.98239 168.37761,64.468293 C 172.92531,61.464157 177.53513,60.770122 183,61.566874 C 178.35197,58.084245 173.46243,57.795188 168.37761,58.665455 C 163.33492,59.528507 158.43003,59.133482 154.1203,56.033036 C 159.82678,54.494332 163.66998,51.619369 166.22556,47.83796 C 169.27746,43.322166 173.26527,40.921248 178.61903,39.56603 C 172.99207,38.127235 168.37099,39.727165 164.00627,42.477062 C 159.67746,45.204318 154.9943,46.718918 149.82581,45.503374 C 154.51067,41.897704 156.95304,37.774412 157.86717,33.302038 C 158.95863,27.962071 161.73069,24.209417 166.1583,20.90856 C 160.40906,21.732635 156.74497,24.988823 153.76484,29.199703 C 150.8092,33.375928 147.06303,36.559444 141.82289,37.41399 C 144.77001,32.290964 145.45662,27.551201 144.5898,23.07021 C 143.55469,17.71903 144.67341,13.191803 147.50083,8.4478219 C 142.50459,11.409313 140.37077,15.820111 139.22891,20.850918 C 138.09746,25.835801 135.85693,30.199468 131.35088,32.994606 C 132.10998,27.13891 130.9155,22.504739 128.40141,18.698869 C 125.39727,14.151158 124.70324,9.5317478 125.5,4.0668715 z "
       style="color:#000000;fill:#ffcd50;fill-opacity:1;fill-rule:nonzero;stroke:none;stroke-width:3;stroke-linecap:butt;stroke-linejoin:miter;marker:none;marker-start:none;marker-mid:none;marker-end:none;stroke-miterlimit:4;stroke-dasharray:none;stroke-dashoffset:0;stroke-opacity:1;visibility:visible;display:inline;overflow:visible"
       id="Sun" />
    <path
       d="M 1.4495603,1.4395041 L 125.50006,1.4395041 L 249.55061,1.4395041 L 249.55061,174.9361 C 250.31785,268.65698 169.26117,302.75585 125.50008,302.75585 C 82.506226,302.75585 0.68233088,268.65698 1.4495603,174.9361 L 1.4495603,1.4395041 z "
       style="color:#000000;fill:#eeeeee;fill-opacity:0;fill-rule:nonzero;stroke:#000000;stroke-width:1.88832211;stroke-linecap:round;stroke-linejoin:bevel;marker:none;marker-start:none;marker-mid:none;marker-end:none;stroke-miterlimit:4;stroke-dashoffset:0;stroke-opacity:1;visibility:visible;display:block"
       id="Frame" />
  </g>
</svg>
