<?xml version="1.0" encoding="UTF-8" standalone="no"?>
<!-- Created with Inkscape (http://www.inkscape.org/) -->
<svg
   xmlns:svg="http://www.w3.org/2000/svg"
   xmlns="http://www.w3.org/2000/svg"
   version="1.0"
   width="251"
   height="304.20001"
   id="svg4166">
  <defs
     id="defs4168" />
  <path
     d="M 1.84676,1.921915 L 125.5,1.921915 L 249.15334,1.921915 L 249.15334,174.86298 C 249.91811,268.28378 169.121,302.27344 125.50005,302.27344 C 82.64387,302.27344 1.08197,268.28378 1.84676,174.86298 L 1.84676,1.921915 z"
     id="Shield"
     style="fill:#eeeeee" />
  <path
     d="M 249.15333,137.99915 L 249.15333,174.86291 C 249.9181,268.2837 169.12099,302.27338 125.50003,302.27338 C 82.64385,302.27338 1.0819705,268.2837 1.8467431,174.86291 L 1.8467431,137.84341 L 249.15333,137.99915 z"
     id="Delning"
     style="fill:#003d8f" />
  <g
     transform="matrix(2.0696072,0,0,2.069607,-673.8936,-997.64656)"
     id="Mars-symbol"
     style="fill:none;stroke:#003d8f;stroke-width:5.33916378;stroke-linecap:butt">
    <path
       d="M 413.34148,488.5046 L 395.24747,506.49825"
       id="path26867" />
    <path
       d="M 395.03495,536.55286 C 386.82493,544.71735 373.51905,544.7225 365.31543,536.56438 C 357.11181,528.40625 357.11699,515.17416 365.32701,507.00968 C 373.53702,498.8452 386.8429,498.84004 395.04652,506.99817 C 403.25014,515.15629 403.24496,528.38838 395.03495,536.55286 L 395.03495,536.55286 z"
       id="path26871" />
    <path
       d="M 397.71396,488.69569 C 413.13091,488.69569 413.13091,488.69569 413.13091,488.69569 L 413.13091,504.02714"
       id="path27759" />
  </g>
  <g
     transform="matrix(0.7356941,0,0,0.7356941,-19.50125,-19.553614)"
     id="Fjallripa"
     style="fill:#eeeeee;stroke:#003d8f">
    <g
       id="Klor"
       style="fill:#d40000;stroke:#d40000">
      <path
         d="M 160.47229,418.35157 C 156.55602,418.25638 155.29931,423.25442 155.29931,423.25442 C 155.29931,423.25442 159.37852,420.62486 160.88519,421.60329"
         id="path3263" />
      <path
         d="M 151.18215,410.44286 C 147.37124,409.5355 145.10284,414.16303 145.10284,414.16303 C 145.10284,414.16303 149.63964,412.43905 150.90994,413.70935"
         id="path3259" />
      <path
         d="M 169.78666,398.17622 C 166.69047,397.43904 164.84749,401.19869 164.84749,401.19869 C 164.84749,401.19869 168.53344,399.79804 169.5655,400.8301"
         id="path3261" />
      <path
         d="M 190.58434,413.27627 C 193.68053,412.53909 196.61234,415.48212 196.61234,415.48212 C 196.61234,415.48212 191.83756,414.89809 190.8055,415.93015"
         id="path3267" />
      <path
         d="M 160.83033,407.85499 C 157.18278,406.4261 154.29244,410.69288 154.29244,410.69288 C 154.29244,410.69288 159.02502,409.61709 160.10615,411.0518"
         id="path3233" />
      <path
         d="M 200.68819,397.72253 C 203.78438,396.98535 205.62736,400.745 205.62736,400.745 C 205.62736,400.745 201.94141,399.34435 200.90935,400.37641"
         id="path3265" />
    </g>
    <path
       d="M 173.07275,409.32437 C 170.74836,408.25641 167.19514,408.51471 163.64955,407.3769 C 161.79982,406.78331 157.24499,408.647 157.43024,410.58079 C 157.82073,414.65701 173.38685,412.96801 173.38685,412.96801"
       id="ta" />
    <path
       d="M 199.71057,380.32479 C 199.71057,380.32479 194.41285,393.48052 195.40632,395.47393 C 196.50036,397.66914 200.83157,395.30192 201.8932,397.51299 C 202.36586,398.49739 202.16497,401.12132 201.07471,401.05976 C 186.59466,400.23867 189.74171,403.23121 169.15376,401.60542 C 168.01144,401.51521 167.92627,396.71771 170.09608,397.28325 C 172.77288,397.98093 185.32189,394.42195 186.84092,391.60055 C 189.07939,387.44288 188.71848,380.26016 190.98005,379.5063"
       id="fot" />
    <path
       d="M 256.45892,368.32033 C 268.12235,373.7087 305.67777,387.66581 304.74959,390.9651 C 303.94088,393.83975 264.21378,411.32798 238.72506,406.51633 C 225.35646,403.99267 206.22478,380.67624 197.08502,372.49138"
       id="stjart" />
    <g
       id="stjart-linjer"
       style="fill:none">
      <path
         d="M 268.58738,404.97858 C 256.60772,404.54453 235.94716,389.78698 235.59992,388.22442"
         id="path3347" />
      <path
         d="M 259.55923,406.62795 C 247.57957,406.1939 225.18283,385.96738 224.83559,384.40482"
         id="path3349" />
      <path
         d="M 252.35407,407.32242 C 240.37441,406.88837 216.93596,382.58182 216.58872,381.01926"
         id="path3351" />
      <path
         d="M 245.66977,407.32242 C 233.69011,406.88837 208.45949,379.23407 208.11225,377.67151"
         id="path3353" />
      <path
         d="M 273.70911,403.58963 C 270.93122,403.93687 259.03838,395.42958 259.03838,395.42958"
         id="path3355" />
      <path
         d="M 262.94479,374.16134 C 264.68098,374.42177 301.66165,388.48485 302.52974,392.99892"
         id="path3357" />
      <path
         d="M 264.24693,377.46008 C 265.05649,377.41164 298.88376,389.70018 299.75185,394.21425"
         id="path3359" />
      <path
         d="M 270.41037,382.84225 C 272.14656,385.01248 295.67182,390.13422 296.53991,395.77681"
         id="path3361" />
      <path
         d="M 292.11265,397.94704 C 292.28627,393.95382 279.52533,390.39465 279.52533,390.39465"
         id="path3363" />
    </g>
    <path
       d="M 89.214966,229.99621 C 94.671539,226.17661 111.04126,215.26346 125.22835,223.17549 C 139.41544,231.08752 136.35037,243.74732 145.96332,261.64433 C 155.86341,280.07595 180.68077,278.76432 197.25511,289.47285 C 229.35151,310.21004 250.38848,355.36097 257.00458,366.68336 C 279.79122,389.36276 290.07284,396.60428 287.01573,399.14996 C 275.72175,408.55457 206.59501,379.69236 196.70945,372.13993 C 178.09992,357.9225 178.3078,353.58885 183.06802,362.3181 C 188.945,373.09525 183.95472,396.48989 181.70388,408.9718 C 186.2855,411.83956 188.25176,410.40415 190.43439,412.24574 C 192.61702,414.08733 192.14693,417.04827 189.85563,416.53109 C 181.56781,414.66041 181.32038,416.11984 178.69708,417.49568 C 171.79069,421.11787 167.88111,421.50332 161.99969,421.84155 C 159.22058,422.00138 157.15898,419.54592 158.51344,418.5208 C 161.05277,416.59891 171.4046,415.11044 169.15376,413.88271 C 161.30828,419.21423 155.77938,414.69554 151.24637,414.57447 C 148.61738,414.50426 149.28271,409.31149 151.69272,408.9718 C 154.09595,408.63306 162.53308,413.17203 170.5179,411.97291 C 173.55462,411.51687 175.53579,403.56854 170.79073,391.23793 C 154.71157,382.14831 123.44897,363.12068 114.3152,329.033 C 108.8105,308.48919 110.82597,281.9398 111.04126,260.28019 C 111.11257,253.10591 94.603332,243.91047 90.579109,238.18107 C 86.554886,232.45167 91.160793,237.06894 90.819757,235.02273 C 90.478721,232.97652 83.758393,233.81581 89.214966,229.99621 z"
       id="kropp" />
    <path
       d="M 174.72607,356.40516 C 185.09688,369.36867 184.85438,382.37688 185.92529,382.1668 C 188.85861,381.59137 203.74549,383.17392 208.94908,384.40248 L 199.196,374.10653 C 199.196,374.10653 197.96655,373.14475 194.65903,370.24296 L 174.72607,356.40516 z"
       id="underdel" />
    <path
       d="M 163.15153,300.93165 C 196.77766,302.63683 220.71837,330.46535 231.08586,361.22678 C 244.18163,368.25212 254.82195,371.11682 250.45669,371.8671 C 236.72359,374.22748 202.77989,375.55029 175.42882,364.2279 C 148.07775,352.90551 141.46165,340.96926 141.05241,325.2134"
       id="vinge" />
    <path
       d="M 89.935511,229.55336 C 84.722533,231.13992 81.276405,234.72016 81.379977,237.67528 C 82.75377,237.31207 91.556411,233.31352 93.99565,234.83231 C 91.525036,233.25223 81.387674,237.67528 81.387674,237.67528 C 82.52093,237.30697 91.72,239.26289 92.93825,240.73612"
       id="nabb"
       style="fill:#d40000" />
    <g
       id="oga">
      <path
         d="M 110.82392,226.34729 C 105.28142,226.95762 100.31628,230.13744 95.192418,232.2091 C 102.44834,234.01091 109.52851,233.25966 116.30344,230.5525 L 121.95286,229.40562 C 118.62917,228.1236 114.65308,226.73344 110.82392,226.34729 z"
         id="use2567"
         style="fill:#003d8f;stroke:none" />
      <path
         d="M 124.26153,230.13898 C 105.90297,223.16959 109.81252,227.02253 94.910199,232.29217"
         id="path3253"
         style="fill:none" />
      <path
         d="M 122.10834,229.39552 C 112.92896,229.16887 114.34599,236.08599 94.910199,232.11533"
         id="path3255"
         style="fill:none" />
      <path
         d="M 112.75898,228.94907 A 3.8530707,3.6830823 0 1 1 105.05284,228.94907 A 3.8530707,3.6830823 0 1 1 112.75898,228.94907 z"
         transform="matrix(0.7986752,0,0,0.7986752,22.817368,46.943061)"
         id="path3251"
         style="fill:none;stroke:#eeeeee" />
      <path
         d="M 112.75898,228.94907 A 3.8530707,3.6830823 0 1 1 105.05284,228.94907 A 3.8530707,3.6830823 0 1 1 112.75898,228.94907 z"
         transform="matrix(0.2648918,0,0,0.2648918,80.133337,168.88056)"
         id="path3257"
         style="stroke:none" />
    </g>
    <g
       id="ving-linjer"
       style="fill:none">
      <path
         d="M 243.80869,367.3922 C 251.53202,374.49767 185.34002,368.83217 176.22648,364.5071"
         id="path3292" />
      <path
         d="M 236.47152,363.95185 C 250.60522,372.52476 180.47432,364.9705 169.50718,361.57223"
         id="path3294" />
      <path
         d="M 231.06519,361.21352 C 235.89941,370.25357 174.14119,361.64946 163.17405,358.25119"
         id="path3296" />
    </g>
  </g>
  <path
     d="M 1.4495187,1.4395021 L 125.50002,1.4395021 L 249.55056,1.4395021 L 249.55056,174.9361 C 250.3178,268.65698 169.26112,302.75585 125.50004,302.75585 C 82.50619,302.75585 0.68228966,268.65698 1.4495187,174.9361 L 1.4495187,1.4395021 z"
     id="Frame"
     style="fill-opacity:0;stroke:#000000;stroke-width:1.88832211;stroke-linejoin:bevel" />
</svg>
