<svg width="200" height="200" viewBox="0 0 200 200" fill="none" xmlns="http://www.w3.org/2000/svg">
<rect x="101.76" y="5.32324" width="31.6861" height="9.14697" fill="black"/>
<rect x="97.0342" y="14.4702" width="37.9026" height="6.41921" fill="black"/>
<rect x="92.3105" y="23.6167" width="42.627" height="6.41921" fill="black"/>
<rect x="92.3105" y="23.6167" width="42.627" height="9.14648" fill="black"/>
<rect x="89.6807" y="32.7632" width="48.4895" height="6.41921" fill="black"/>
<rect x="84.9561" y="41.9102" width="55.2032" height="6.41921" fill="black"/>
<rect x="84.9561" y="48.3293" width="43.516" height="9.14648" fill="black"/>
<rect x="79.9824" y="60.2036" width="48.4896" height="6.41921" fill="black"/>
<rect x="72.0244" y="66.6228" width="52.4683" height="9.14648" fill="black"/>
<rect x="69.041" y="78.4971" width="45.7542" height="6.41921" fill="black"/>
<rect x="68.668" y="84.9163" width="39.7187" height="9.14697" fill="black"/>
<rect x="5.32324" y="96.7905" width="189.353" height="6.41921" fill="black"/>
<rect x="72.0244" y="105.937" width="29.7341" height="9.14697" fill="black"/>
<rect x="69.041" y="115.084" width="34.067" height="6.41921" fill="black"/>
<rect x="65.8086" y="124.23" width="48.9869" height="6.41921" fill="black"/>
<rect x="64.0674" y="130.65" width="48.4895" height="9.14697" fill="black"/>
<rect x="59.8408" y="142.524" width="45.2568" height="6.41921" fill="black"/>
<rect x="59.8408" y="148.943" width="40.0348" height="9.14697" fill="black"/>
<rect x="64.0674" y="160.818" width="35.9318" height="6.41921" fill="black"/>
<rect x="69.041" y="167.237" width="27.9934" height="9.14648" fill="black"/>
<rect x="68.668" y="179.111" width="23.6416" height="6.41921" fill="black"/>
<rect x="69.041" y="185.53" width="10.9411" height="9.14648" fill="black"/>
</svg>
