<svg width="838" height="258" viewBox="0 0 838 258" fill="none" xmlns="http://www.w3.org/2000/svg">
<g clip-path="url(#clip0_416_175)">
<path d="M494.216 143.025L455.505 193.279C464.142 228.456 469.456 249.971 471.445 257.823H458.175C451.841 230.759 447.574 212.595 445.376 203.329L434.383 214.008L425.117 257.823H412.868L437.21 143.025H449.459L436.817 202.544C440.22 197.728 454.982 177.889 481.103 143.025H494.216Z" fill="url(#paint0_linear_416_175)"/>
<path d="M536.168 142.947L540.173 257.823H527.845L526.824 220.447H498.243L481.518 257.823H469.111C491.202 209.088 508.607 170.795 521.328 142.947H536.168ZM526.039 178.674L525.882 167.445C525.882 162.682 526.065 158.206 526.432 154.018C523.867 161.609 519.888 171.424 514.496 183.464C513.397 185.924 511.487 190.19 508.764 196.262C506.042 202.335 504.158 206.575 503.111 208.983H526.746L526.039 178.674Z" fill="url(#paint1_linear_416_175)"/>
<path d="M593.668 143.025C605.027 143.025 612.827 145.695 617.067 151.034C619.789 154.489 621.15 159.122 621.15 164.933C621.15 168.073 620.758 171.581 619.972 175.454C618.297 183.307 615.523 189.771 611.649 194.849C607.828 199.927 602.672 203.774 596.18 206.392L607.802 257.823H594.453L584.402 209.454H572.074L561.788 257.823H549.617L573.959 143.025H593.668ZM583.381 198.697C589.716 198.697 594.898 196.786 598.929 192.965C603.012 189.143 605.839 183.464 607.409 175.926C608.037 172.942 608.351 170.272 608.351 167.916C608.351 164.252 607.566 161.373 605.996 159.279C603.431 155.876 598.536 154.175 591.312 154.175H583.774L574.352 198.697H583.381Z" fill="url(#paint2_linear_416_175)"/>
<path d="M688.543 154.175H666.008L644.022 257.823H631.851L653.837 154.175H631.223L633.578 143.025H690.899L688.543 154.175Z" fill="url(#paint3_linear_416_175)"/>
<path d="M732.773 142.947L736.777 257.823H724.449L723.429 220.447H694.847L678.122 257.823H665.716C687.806 209.088 705.212 170.795 717.932 142.947H732.773ZM722.643 178.674L722.486 167.445C722.486 162.682 722.67 158.206 723.036 154.018C720.471 161.609 716.493 171.424 711.101 183.464C710.002 185.924 708.091 190.19 705.369 196.262C702.647 202.335 700.762 206.575 699.715 208.983H723.35L722.643 178.674Z" fill="url(#paint4_linear_416_175)"/>
<path d="M813.279 257.823H798.046L777.787 161.399H777.002C776.426 167.786 775.379 174.643 773.861 181.972L757.764 257.823H746.222L770.563 143.025H785.875L806.133 238.35H806.683C807.835 230.341 809.039 223.378 810.295 217.463L826.078 143.025H837.62L813.279 257.823Z" fill="url(#paint5_linear_416_175)"/>
<rect x="403.252" y="0.261719" width="43.1" height="8.73151" fill="#FCA727"/>
<rect x="396.826" y="12.7029" width="51.5557" height="8.73151" fill="#FCA727"/>
<rect x="390.4" y="25.144" width="57.9819" height="8.73151" fill="#FCA727"/>
<rect x="390.4" y="25.144" width="57.9819" height="8.73151" fill="#FCA727"/>
<rect x="386.823" y="37.5857" width="65.9563" height="8.73151" fill="#FCA727"/>
<rect x="380.396" y="50.0271" width="75.0883" height="8.73151" fill="#FCA727"/>
<rect x="380.396" y="62.4688" width="59.1912" height="8.73151" fill="#FA5A1F"/>
<rect x="373.631" y="74.9102" width="65.9563" height="8.73151" fill="#FA5A1F"/>
<rect x="362.808" y="87.3517" width="71.3683" height="8.73151" fill="#FA5A1F"/>
<rect x="358.749" y="99.7932" width="62.2356" height="8.73151" fill="#FA5A1F"/>
<rect x="358.242" y="124.676" width="479.378" height="8.73151" fill="#6E59E9"/>
<rect x="362.808" y="137.118" width="40.4448" height="8.73151" fill="#6E59E9"/>
<rect x="358.749" y="149.559" width="46.3385" height="8.73151" fill="#6E59E9"/>
<rect x="354.352" y="162.001" width="66.6328" height="8.73151" fill="#6E59E9"/>
<rect x="351.984" y="174.442" width="65.9563" height="8.73151" fill="#5E86FB"/>
<rect x="346.234" y="186.884" width="61.559" height="8.73151" fill="#5E86FB"/>
<rect x="346.234" y="199.325" width="54.456" height="8.73151" fill="#5E86FB"/>
<rect x="351.984" y="211.767" width="48.875" height="8.73151" fill="#5E86FB"/>
<rect x="358.749" y="224.208" width="38.0771" height="8.73151" fill="#5E86FB"/>
<rect x="358.242" y="236.65" width="32.1577" height="8.73151" fill="#5E86FB"/>
<rect x="358.749" y="249.092" width="14.8823" height="8.73151" fill="#5E86FB"/>
<path d="M40.313 1.77231C50.7193 1.77231 57.8647 4.21804 61.749 9.10949C64.2427 12.2745 65.4896 16.5186 65.4896 21.8417C65.4896 24.719 65.1299 27.932 64.4106 31.4807C62.876 38.674 60.3344 44.5965 56.7857 49.2482C53.2849 53.8998 48.5613 57.4246 42.6148 59.8223L53.2609 106.939H41.0323L31.8249 62.6277H20.5314L11.1081 106.939H-0.0415039L22.2578 1.77231H40.313ZM30.8897 52.7729C36.6923 52.7729 41.4399 51.0225 45.1325 47.5218C48.873 44.021 51.4626 38.8179 52.9013 31.9123C53.4767 29.1788 53.7645 26.7331 53.7645 24.5751C53.7645 21.2182 53.0451 18.5807 51.6065 16.6625C49.2567 13.5454 44.7728 11.9868 38.155 11.9868H31.2494L22.6174 52.7729H30.8897Z" fill="url(#paint6_linear_416_175)"/>
<path d="M114.712 1.70038L118.381 106.939H107.087L106.152 72.6984H79.9683L64.6465 106.939H53.2811C73.5183 62.292 89.4634 27.2127 101.117 1.70038H114.712ZM105.433 34.43L105.289 24.1435C105.289 19.7796 105.457 15.6794 105.792 11.843C103.442 18.7965 99.7978 27.7881 94.8584 38.8179C93.8514 41.0718 92.101 44.9801 89.6073 50.543C87.1136 56.1058 85.3872 59.9902 84.4281 62.1961H106.08L105.433 34.43Z" fill="url(#paint7_linear_416_175)"/>
<path d="M190.19 11.9868H169.545L149.404 106.939H138.254L158.396 11.9868H137.679L139.837 1.77231H192.348L190.19 11.9868Z" fill="url(#paint8_linear_416_175)"/>
<path d="M192.008 106.939H181.218L203.518 1.77231H214.308L192.008 106.939Z" fill="url(#paint9_linear_416_175)"/>
<path d="M274.104 106.939H260.149L241.59 18.6047H240.871C240.344 24.4552 239.385 30.7374 237.994 37.4511L223.248 106.939H212.673L234.973 1.77231H249L267.558 89.0991H268.062C269.117 81.7619 270.22 75.3839 271.371 69.9649L285.829 1.77231H296.404L274.104 106.939Z" fill="url(#paint10_linear_416_175)"/>
<path d="M326.42 108.377C314.719 108.377 306.662 103.654 302.25 94.2064C299.852 89.0751 298.654 83.0807 298.654 76.2231C298.654 69.3655 299.493 62.0043 301.171 54.1396C304.768 37.2114 310.978 23.9996 319.802 14.5045C328.674 5.0093 339.344 0.261719 351.812 0.261719C359.917 0.261719 367.11 2.49165 373.392 6.9515C371.57 9.73291 369.46 12.874 367.062 16.3747C361.499 12.3944 355.84 10.4043 350.086 10.4043C341.07 10.4043 333.325 14.2407 326.851 21.9136C320.377 29.5385 315.654 40.3524 312.681 54.3554C311.146 61.4049 310.379 67.6151 310.379 72.9861C310.379 78.3571 311.098 82.9368 312.537 86.7253C315.414 94.3982 320.929 98.2346 329.081 98.2346C334.692 98.2346 339.751 97.4913 344.259 96.0047L351.381 62.4119H336.418L338.576 52.1974H364.616L353.754 103.342C344.739 106.699 335.627 108.377 326.42 108.377Z" fill="url(#paint11_linear_416_175)"/>
<rect x="-0.0415039" y="112.235" width="412.31" height="8.73151" fill="#6E59E9"/>
</g>
<defs>
<linearGradient id="paint0_linear_416_175" x1="625.244" y1="142.947" x2="625.244" y2="257.823" gradientUnits="userSpaceOnUse">
<stop stop-color="#6E59E9"/>
<stop offset="1" stop-color="#5E86FB"/>
</linearGradient>
<linearGradient id="paint1_linear_416_175" x1="625.244" y1="142.947" x2="625.244" y2="257.823" gradientUnits="userSpaceOnUse">
<stop stop-color="#6E59E9"/>
<stop offset="1" stop-color="#5E86FB"/>
</linearGradient>
<linearGradient id="paint2_linear_416_175" x1="625.244" y1="142.947" x2="625.244" y2="257.823" gradientUnits="userSpaceOnUse">
<stop stop-color="#6E59E9"/>
<stop offset="1" stop-color="#5E86FB"/>
</linearGradient>
<linearGradient id="paint3_linear_416_175" x1="625.244" y1="142.947" x2="625.244" y2="257.823" gradientUnits="userSpaceOnUse">
<stop stop-color="#6E59E9"/>
<stop offset="1" stop-color="#5E86FB"/>
</linearGradient>
<linearGradient id="paint4_linear_416_175" x1="625.244" y1="142.947" x2="625.244" y2="257.823" gradientUnits="userSpaceOnUse">
<stop stop-color="#6E59E9"/>
<stop offset="1" stop-color="#5E86FB"/>
</linearGradient>
<linearGradient id="paint5_linear_416_175" x1="625.244" y1="142.947" x2="625.244" y2="257.823" gradientUnits="userSpaceOnUse">
<stop stop-color="#6E59E9"/>
<stop offset="1" stop-color="#5E86FB"/>
</linearGradient>
<linearGradient id="paint6_linear_416_175" x1="186.675" y1="0.261719" x2="186.675" y2="108.377" gradientUnits="userSpaceOnUse">
<stop stop-color="#FCA727"/>
<stop offset="1" stop-color="#FA5A1F"/>
</linearGradient>
<linearGradient id="paint7_linear_416_175" x1="186.675" y1="0.261719" x2="186.675" y2="108.377" gradientUnits="userSpaceOnUse">
<stop stop-color="#FCA727"/>
<stop offset="1" stop-color="#FA5A1F"/>
</linearGradient>
<linearGradient id="paint8_linear_416_175" x1="186.675" y1="0.261719" x2="186.675" y2="108.377" gradientUnits="userSpaceOnUse">
<stop stop-color="#FCA727"/>
<stop offset="1" stop-color="#FA5A1F"/>
</linearGradient>
<linearGradient id="paint9_linear_416_175" x1="186.675" y1="0.261719" x2="186.675" y2="108.377" gradientUnits="userSpaceOnUse">
<stop stop-color="#FCA727"/>
<stop offset="1" stop-color="#FA5A1F"/>
</linearGradient>
<linearGradient id="paint10_linear_416_175" x1="186.675" y1="0.261719" x2="186.675" y2="108.377" gradientUnits="userSpaceOnUse">
<stop stop-color="#FCA727"/>
<stop offset="1" stop-color="#FA5A1F"/>
</linearGradient>
<linearGradient id="paint11_linear_416_175" x1="186.675" y1="0.261719" x2="186.675" y2="108.377" gradientUnits="userSpaceOnUse">
<stop stop-color="#FCA727"/>
<stop offset="1" stop-color="#FA5A1F"/>
</linearGradient>
<clipPath id="clip0_416_175">
<rect width="838" height="258" fill="white"/>
</clipPath>
</defs>
</svg>
