<!-- Created with Inkscape (http://www.inkscape.org/) -->
<svg xmlns:rdf="http://www.w3.org/1999/02/22-rdf-syntax-ns#" xmlns="http://www.w3.org/2000/svg" height="300" width="248" version="1.0" xmlns:cc="http://creativecommons.org/ns#" xmlns:dc="http://purl.org/dc/elements/1.1/">
 <metadata>
  <rdf:RDF>
   <cc:Work rdf:about="">
    <dc:format>image/svg+xml</dc:format>
    <dc:type rdf:resource="http://purl.org/dc/dcmitype/StillImage"/>
    <dc:title/>
   </cc:Work>
  </rdf:RDF>
 </metadata>
 <path d="m247,1.0001,0,214.77c0,82.42-84.912,44.012-123,82.791-38.089-38.77-123-0.37-123-82.79v-214.77z" stroke-miterlimit="4" fill="#003d8f"/>
 <path d="m247,1.0001,0,214.77c0,82.45-84.879,44.015-122.95,82.81v-297.58h122.95z" fill-rule="evenodd" fill="#d40000"/>
 <path d="M198.47,273.82,124.05,1.0001,49.621,273.83c25.704,5.27,55.721,5.6935,74.424,24.751,18.715-19.067,48.732-19.481,74.424-24.758z" fill-rule="evenodd" fill="#ffcd50"/>
 <path d="m247,1.0001,0,214.77c0,82.42-84.912,44.012-123,82.791-38.089-38.77-123-0.37-123-82.79v-214.77z" stroke="#000" stroke-dasharray="none" stroke-miterlimit="4" stroke-width="2" fill="none"/>
 <path d="m200.22,62.368c21.944,0,39.785,17.843,39.785,39.785,0,21.943-17.841,39.785-39.785,39.785-21.985,0-39.783-17.843-39.783-39.785,0-21.943,17.798-39.785,39.783-39.785z" fill-rule="evenodd" fill="#ffcd50"/>
 <path d="m167.94,118.51,3.0537,7.6333m-0.95923-5.5388,3.2722,8.1129m-0.87221-5.3222,3.0092,7.3297m-0.87221-5.2797,2.8796,6.8926m-0.87221-5.2333,2.8352,6.6296m-0.91669-5.2777,2.7926,6.4555m-0.95924-5.3222,2.7907,6.2834m-0.95924-5.3222,2.7481,6.1944m-1.0037-5.3667,2.7926,6.1074m-1.0463-5.4092,2.7907,6.0204m-1.0908-5.4537,2.7926,5.9778m-1.1352-5.4982,2.8371,5.8908m-1.1778-5.4982,2.8352,5.8463m-1.2223-5.5408,2.8796,5.8018m-1.2648-5.5833,2.8796,5.7593m-1.3093-5.5852,2.9222,5.7148m-1.3518-5.6703,2.9667,5.7148m-1.4408-5.7148,3.0112,5.6703m-1.4833-5.7148,3.0537,5.6278m-1.5278-5.7574,3.0982,5.6278m-1.6148-5.8018,3.1407,5.5833m-1.6574-5.8463,3.1407,5.5833m-1.6999-5.8889,3.1833,5.5408m-1.7889-5.8889,3.2722,5.4963m-1.8759-5.9334,3.3167,5.4963m-1.9204-5.9314,3.3148,5.4092m-1.963-5.9778,3.3593,5.4537m-2.05-6.0204,3.4463,5.4092m-2.137-6.0629,3.4888,5.3648m-2.224-6.0629,3.5333,5.3648m-2.2685-6.1074,3.5778,5.3222m-2.3556-6.1074,3.5759,5.2797m-2.3981-6.1074,3.6629,5.2352m-2.5296-6.1519,3.7074,5.2352m-2.5722-6.1944,3.7519,5.1907m-2.6611-6.15,3.7944,5.1462m-2.7481-6.1944,3.8389,5.1037m-2.8352-6.1944,3.8814,5.0611m-2.9222-6.2389,3.9259,5.0611m-3.0092-6.2389,3.9685,5.0166m-3.0962-6.237,4.0129,4.9722m-3.1852-6.237,4.0574,4.9296m-3.3148-6.2834,4.1444,4.8871m-3.4037-6.2389,4.1889,4.8426m-3.4908-6.2389,4.1889,4.7981m-3.5778-6.2815,4.276,4.7556m-3.7519-6.2389,4.3185,4.713m-3.8389-6.2834,4.4055,4.713m-3.9704-6.2834,4.45,4.6241m-4.1-6.237,4.4926,4.5796m-4.187-6.2815,4.4926,4.537m-4.3185-6.2389,4.5796,4.4945m-4.4481-6.2389,4.6241,4.45m-4.5815-6.2389,4.6686,4.4055m-4.7111-6.237,4.7111,4.3611m-4.8871-6.237,4.8001,4.3185m-5.0611-6.2389,4.8852,4.276m-5.2778-6.2389,4.9722,4.2315m-5.4963-6.2815,5.0611,4.2315m-5.7593-6.3259,5.1926,4.1889m-6.0204-6.3685,5.2777,4.2315m-6.3685-6.5,5.4537,4.2315m-6.85-6.676,5.7148,4.3204m-7.5907-6.9796,6.1519,4.5351m-9.0315-7.8518,7.1111,5.1482m-8.1574-7.0241,5.4537,3.8389m-61.119,41.835,1.7464,4.363m13,3.2278,1.0463,2.2685m0.78518-1.3093,1.0463,2.2685m0.69816-1.4833,1.0482,2.226m0.65367-1.5704,1.0908,2.224m0.61113-1.6574,1.0907,2.1815m0.56665-1.7464,1.0907,2.1815m0.5241-1.8314,1.0888,2.1815m0.5241-1.9204,1.0907,2.139m0.47962-1.9649,1.1352,2.139m0.39259-2.05,1.1778,2.137m0.34811-2.137,1.1778,2.1796m0.35004-2.224,1.1778,2.137m0.30556-2.2685,1.1778,2.1815m0.26109-2.3555,1.2222,2.137m0.2166-2.3556,1.2667,2.139m0.12957-2.4445,1.2648,2.1389m0.13151-2.5315,1.3093,2.1389m0.087-2.5741,1.3093,2.137m0-2.6166,1.3518,2.137m-0.0445-2.6611,1.3538,2.137m-0.0445-2.7481,1.3518,2.139m-0.12957-2.7926,1.3944,2.137m-0.17405-2.8352,1.4408,2.137m-0.21854-2.8777,1.4389,2.0925m-0.30556-2.9222,1.4833,2.137m-0.34811-3.0092,1.5259,2.137m-0.43514-3.0537,1.5259,2.137m-0.47961-3.0962,1.5704,2.137m-0.5241-3.1407,1.5704,2.0945m-0.6092-3.1407,1.6129,2.0925m-0.69815-3.2278,1.6574,2.0945m-0.78518-3.2278,1.7019,2.0945m-0.82773-3.3167,1.6999,2.0945m-0.91475-3.3593,1.6999,2.0945m-0.95924-3.4037,1.7444,2.0945m-1.0908-3.4018,1.7889,2.05m-1.1333-3.4463,1.8314,2.05m-1.2648-3.4908,1.8314,2.0519m-1.3518-3.5333,1.9204,2.05m-1.4833-3.6223,1.963,2.0945m-1.5704-3.6648,1.963,2.0519m-1.7019-3.6648,2.05,2.05m-1.8314-3.7074,2.05,2.05m-1.9185-3.7519,2.0925,2.05m-2.05-3.8389,2.137,2.05m-2.1796-3.8389,2.1796,2.05m-2.3555-3.9259,2.2685,2.0945m-2.5741-4.0129,2.3556,2.0945m-2.7481-4.0574,2.4,2.0945m-3.0092-4.1444,2.5296,2.137m-3.2722-4.276,2.6186,2.1815m-3.6223-4.4926,2.7926,2.3111m-4.1444-4.7536,3.0537,2.4426m-4.9296-5.2352,3.5333,2.7481m-4.7111-4.8852,2.7056,2.05" stroke="#d40000" stroke-dasharray="none" stroke-miterlimit="4" stroke-width="0.40000001" fill="none"/>
 <path d="m236.73,96.57,0,11.167,2.7481,0,0-11.167-2.7481,0z" fill-rule="evenodd" fill="#ffcd50"/>
 <path d="m183.16,97.487,4.8426,0c0.26108,0,0.47962,0.2166,0.47962,0.47962v1.9185c0,0.26302-0.21854,0.47962-0.47962,0.47962h-4.84c-0.26302,0-0.47962-0.2166-0.47962-0.47962v-1.9185c0-0.26302,0.2166-0.47962,0.47962-0.47962z" stroke="#d40000" stroke-dasharray="none" stroke-miterlimit="4" stroke-width="0.60000002" fill="none"/>
 <path d="m183.12,103.94,4.8426,0c0.26108,0,0.47962,0.21854,0.47962,0.47962v1.9204c0,0.30556-0.21854,0.52217-0.47962,0.52217h-4.84c-0.26109,0-0.47962-0.21661-0.47962-0.52217v-1.9204c0-0.26108,0.21853-0.47962,0.47962-0.47962z" stroke="#d40000" stroke-dasharray="none" stroke-miterlimit="4" stroke-width="0.60000002" fill="none"/>
 <path d="m212.43,103.94,4.8871,0c0.26108,0,0.47962,0.21854,0.47962,0.47962v1.9204c0,0.30556-0.21854,0.52217-0.47962,0.52217h-4.89c-0.26109,0-0.47962-0.21661-0.47962-0.52217v-1.9204c0-0.26108,0.21853-0.47962,0.47962-0.47962z" stroke="#d40000" stroke-dasharray="none" stroke-miterlimit="4" stroke-width="0.60000002" fill="none"/>
 <path d="m212.43,97.442,4.8871,0c0.26108,0,0.47962,0.21854,0.47962,0.47962v1.963c0,0.26302-0.21854,0.47962-0.47962,0.47962h-4.89c-0.26109,0-0.47962-0.2166-0.47962-0.47962v-1.963c0-0.26108,0.21853-0.47962,0.47962-0.47962z" stroke="#d40000" stroke-dasharray="none" stroke-miterlimit="4" stroke-width="0.60000002" fill="none"/>
 <path d="m195.51,92.95,0-4.8426c0-0.26108,0.21854-0.47962,0.48155-0.47962h1.963c0.26108,0,0.47962,0.21854,0.47962,0.47962v4.843c0,0.26108-0.21854,0.47962-0.47962,0.47962h-1.963c-0.26301,0-0.48155-0.21854-0.48155-0.47962z" stroke="#d40000" stroke-dasharray="none" stroke-miterlimit="4" stroke-width="0.60000002" fill="none"/>
 <path d="m202.01,92.95,0-4.8426c0-0.26108,0.21853-0.47962,0.47962-0.47962h1.9204c0.30556,0,0.47961,0.21854,0.47961,0.47962v4.843c0,0.26108-0.17405,0.47962-0.47961,0.47962h-1.9204c-0.26109,0-0.47962-0.21854-0.47962-0.47962z" stroke="#d40000" stroke-dasharray="none" stroke-miterlimit="4" stroke-width="0.60000002" fill="none"/>
 <path d="m202.01,69.959,0-4.8407c0-0.26302,0.21853-0.48155,0.47962-0.48155h1.9204c0.30556,0,0.47961,0.21854,0.47961,0.48155v4.8407c0,0.26302-0.17405,0.47962-0.47961,0.47962h-1.9204c-0.26109,0-0.47962-0.2166-0.47962-0.47962z" stroke="#d40000" stroke-dasharray="none" stroke-miterlimit="4" stroke-width="0.60000002" fill="none"/>
 <path d="m195.51,69.959,0-4.8407c0-0.26302,0.21854-0.48155,0.48155-0.48155h1.963c0.26108,0,0.47962,0.21854,0.47962,0.48155v4.8407c0,0.26302-0.21854,0.47962-0.47962,0.47962h-1.963c-0.26301,0-0.48155-0.2166-0.48155-0.47962z" stroke="#d40000" stroke-dasharray="none" stroke-miterlimit="4" stroke-width="0.60000002" fill="none"/>
 <path d="m172.43,97.792c3.2278,0,5.8444,1.963,5.8444,4.361,0,2.4-2.6166,4.363-5.8444,4.363-3.1852,0-5.8018-1.963-5.8018-4.363,0-2.3981,2.6166-4.361,5.8018-4.361z" fill-rule="evenodd" fill="#d40000"/>
 <path d="m195.86,78.029c0-3.1833,1.963-5.8018,4.361-5.8018,2.4,0,4.363,2.6186,4.363,5.8018,0,3.2297-1.963,5.8463-4.363,5.8463-2.3981,0-4.361-2.6166-4.361-5.8463z" fill-rule="evenodd" fill="#d40000"/>
 <path d="m227.97,96.57c-3.8834,0-7.0241,2.4871-7.0241,5.5833,0,3.0537,3.1407,5.5833,7.0241,5.5833,3.8814,0,7.0222-2.5296,7.0222-5.5833,0-3.0962-3.1407-5.5833-7.0222-5.5833z" fill-rule="evenodd" fill="#ffcd50"/>
 <path d="m227.97,97.792c-3.1852,0-5.8018,1.963-5.8018,4.361,0,2.4,2.6166,4.363,5.8018,4.363,3.2278,0,5.8018-1.963,5.8018-4.363,0-2.3981-2.5741-4.361-5.8018-4.361z" fill-rule="evenodd" fill="#d40000"/>
 <path d="m159.08,97.792,3.4037,0,0,8.724-3.4037,0,0-8.724z" fill-rule="evenodd" fill="#003d8f"/>
 <path d="m193.42,97.792,13.567,0,0,8.724-13.567,0,0-8.724z" fill-rule="evenodd" fill="#003d8f"/>
 <path d="m237.91,97.792,3.4018,0,0,8.724-3.4018,0,0-8.724z" fill-rule="evenodd" fill="#003d8f"/>
 <path d="m223.82,92.818,0,3.3593,14.133,0,0-3.3593-14.133,0zm0,17.798,0,3.4038,14.133,0,0-3.4038-14.133,0z" fill-rule="evenodd" fill="#ffcd50"/>
 <path stroke-linejoin="round" d="m191.28,62.239c-0.87221,0.04255-1.6574,0.82773-1.6574,1.7444v27.57h-27.876c-0.91476,0-1.7444,0.78518-1.7444,1.7019,0,0.87221,0.82966,1.6999,1.7444,1.6999h31.235v-30.972c0-0.91669-0.78518-1.7444-1.7019-1.7444zm17.8,0c-0.87414,0.04255-1.6593,0.82773-1.6593,1.7444v30.972h31.28c0.87221,0,1.6999-0.82773,1.6999-1.6999,0-0.91669-0.82773-1.7019-1.6999-1.7019h-27.876v-27.57c0-0.91669-0.82966-1.7444-1.7444-1.7444zm-47.507,47.113c-0.87221,0.0445-1.6574,0.91669-1.6129,1.7889,0.0426,0.87221,0.87221,1.6574,1.787,1.6129h76.954c0.87221,0,1.6999-0.78519,1.6999-1.6999,0-0.87221-0.82773-1.7019-1.6999-1.7019h-77.128z" fill-rule="evenodd" stroke="#d40000" stroke-miterlimit="4" stroke-dasharray="none" stroke-width="0.60000002" fill="#ffcd50"/>
 <path d="m220.57,41.124c1.6032,0,2.9029,1.2996,2.9029,2.9009,0,1.6032-1.2996,2.9029-2.9029,2.9029-1.6013,0-2.9028-1.2996-2.9028-2.9029,0-1.6013,1.3015-2.9009,2.9028-2.9009z" fill-rule="evenodd" fill="#FFF"/>
 <path d="m200.2,20.752c1.6032,0,2.9029,1.2996,2.9029,2.9009,0,1.6032-1.2996,2.9029-2.9029,2.9029-1.6013,0-2.9028-1.2996-2.9028-2.9029,0-1.6013,1.3015-2.9009,2.9028-2.9009z" fill-rule="evenodd" fill="#FFF"/>
 <path d="m179.85,41.124c1.6032,0,2.9028,1.2996,2.9028,2.9009,0,1.6032-1.2996,2.9029-2.9028,2.9029-1.6013,0-2.9009-1.2996-2.9009-2.9029,0-1.6013,1.2996-2.9009,2.9009-2.9009z" fill-rule="evenodd" fill="#FFF"/>
 <path d="m182.68,45.792c-1.6148-0.04448-2.2685,1.6574-2.0945,3.2278,4.9296-4.9296,9.8148-1.3518,13.132-1.4833,1.9185-0.04255,3.7944-1.4833,3.7944-3.5333s-1.8759-3.4463-3.7944-3.5333c-3.3167-0.08703-8.2019,3.4463-13.132-1.4389-0.17405,1.5704,0.47962,3.2703,2.0945,3.2278,0.52216-0.04448,0.60919,0.26108-0.0445,0.30556-1.5704,0.08703-0.56665,1.1333,0.17405,1.4389-0.7407,0.30556-1.7444,1.3518-0.17405,1.4389,0.65367,0.04448,0.56664,0.35004,0.0445,0.35004z" fill-rule="evenodd" stroke="#d40000" stroke-miterlimit="4" stroke-dasharray="none" stroke-width="0.60000002" fill="#ffcd50"/>
 <path d="m195.81,41.603c-1.5704-0.47962-2.5741,0.04448-3.4018,0.91669-1.0907,1.0463-1.963,2.7926-3.6204,2.8796-1.3538,0.08703-2.4445-0.91669-0.91669-1.7019,0.69816-0.34811,0.30557-0.69816-0.26108-0.34811-1.3538,0.82773-3.6223,1.3073-5.0611,0.56665-0.7407-0.39259-1.3093-1.2648,0.087-1.3518,0.35004,0,0.47962-0.08703,0.47962-0.17599m12.694,4.0149c-1.5704,0.47962-2.5741-0.04448-3.4018-0.87221-0.47962-0.43707-0.87221-1.0037-1.3093-1.5278m-3.9704-0.39259c0.0445,0.13151,0.1315,0.26108,0.26301,0.39259m-0.26301,0.39259c-0.30363-0.13151-0.65368-0.26108-1.0463-0.39259m-3.2722,0c-0.087,0.04448-0.17405,0.08703-0.26108,0.13151-0.7407,0.39259-1.3093,1.2648,0.087,1.3073,0.35004,0.04448,0.47962,0.13151,0.47962,0.21854" stroke="#d40000" stroke-linecap="round" stroke-miterlimit="4" stroke-dasharray="none" stroke-width="0.60000002" fill="none"/>
 <path d="m198.78,61.453c-0.0426-0.61113-0.34811-0.5241-0.34811-0.04448,0.0425,1.6574-2.313,2.7926-4.8871,1.6148,5.8889-1.3093,3.9259-7.7648,3.2297-11.43-0.61113-3.3148,1.5259-5.0611,3.4444-5.0611,1.8759,0,4.0149,1.7464,3.4037,5.0611-0.65367,3.6648-2.6166,10.12,3.2278,11.43-2.5296,1.1778-4.9296,0.04255-4.8852-1.6148,0-0.47962-0.30556-0.56665-0.35004,0.04448-0.0426,1.6129-1.1778,0.65367-1.3963-0.21854-0.21661,0.87221-1.3518,1.8314-1.4389,0.21854z" fill-rule="evenodd" stroke="#d40000" stroke-miterlimit="4" stroke-dasharray="none" stroke-width="0.60000002" fill="#ffcd50"/>
 <path d="m197.82,48.409c-0.47962,1.5704,0.0426,2.5741,0.87221,3.4037,1.0463,1.0907,2.8352,2.0055,2.9222,3.6203,0.087,1.3518-0.91476,2.4426-1.6999,0.91669-0.39259-0.69816-0.69816-0.30556-0.35005,0.26108,0.82967,1.3518,1.2648,3.6203,0.5241,5.0611-0.35004,0.7407-1.2648,1.3073-1.3093-0.08896-0.0426-0.30556-0.13151-0.47962-0.17406-0.43514m4.0129-12.739c0.47962,1.5704-0.0425,2.5741-0.91669,3.4037-0.43513,0.47962-1.0018,0.87221-1.4833,1.3073m-0.3926,3.9704c0.13151-0.04255,0.26302-0.13151,0.3926-0.26108m0.39452,0.26108c-0.17599,0.30556-0.30556,0.65367-0.39452,1.0463m0,3.2722c0,0.08703,0.0445,0.17406,0.089,0.26302,0.39259,0.7407,1.2648,1.3073,1.3518-0.08896,0-0.30556,0.087-0.47962,0.17405-0.43514" stroke="#d40000" stroke-linecap="round" stroke-miterlimit="4" stroke-dasharray="none" stroke-width="0.60000002" fill="none"/>
 <path d="m217.71,45.792c1.6574-0.04448,2.2685,1.6574,2.0945,3.2278-4.8871-4.9296-9.8167-1.3518-13.132-1.4833-1.9204-0.04255-3.7963-1.4833-3.7963-3.5333s1.8759-3.4463,3.7963-3.5333c3.3148-0.08703,8.2444,3.4463,13.132-1.4389,0.17405,1.5704-0.43708,3.2703-2.0945,3.2278-0.47962-0.04448-0.56664,0.26108,0.0426,0.30556,1.6148,0.08703,0.61113,1.1333-0.12958,1.4389,0.74071,0.30556,1.7444,1.3518,0.12958,1.4389-0.60919,0.04448-0.52217,0.35004-0.0426,0.35004z" fill-rule="evenodd" stroke="#d40000" stroke-miterlimit="4" stroke-dasharray="none" stroke-width="0.60000002" fill="#ffcd50"/>
 <path d="m204.58,46.403c1.6148,0.47962,2.5741-0.04448,3.4463-0.87221,1.0482-1.0482,1.963-2.8371,3.6204-2.9241,1.3538-0.08703,2.4445,0.91669,0.91669,1.7019-0.69815,0.39259-0.30556,0.69816,0.21854,0.34811,1.3518-0.82773,3.6204-1.2648,5.0611-0.52217,0.7407,0.39259,1.3074,1.2648-0.089,1.3073-0.30557,0.04448-0.43514,0.13151-0.43514,0.21854m-12.74-4.058c1.6148-0.47962,2.5741,0.04448,3.4463,0.91669,0.43708,0.43707,0.87221,1.0037,1.3093,1.4833m3.9259,0.39259c0-0.13151-0.087-0.26108-0.26108-0.39259m0.26108-0.39259c0.34811,0.17406,0.69815,0.30556,1.0463,0.39259m3.3167,0c0.087,0,0.12958-0.04255,0.21854-0.08703,0.7407-0.39259,1.3074-1.2648-0.089-1.3518-0.30557,0-0.43514-0.08703-0.43514-0.17599" stroke="#d40000" stroke-linecap="round" stroke-miterlimit="4" stroke-dasharray="none" stroke-width="0.60000002" fill="none"/>
 <path d="m201.97,26.511c-0.0445-1.6574,1.6574-2.2685,3.2278-2.0945-4.8852,4.8852-1.3518,9.8148-1.4389,13.132-0.087,1.9185-1.4833,3.7944-3.5352,3.7944-2.05,0-3.4888-1.8759-3.5333-3.7944-0.12957-3.3167,3.4463-8.2464-1.4833-13.132,1.5723-0.17406,3.2722,0.43707,3.2297,2.0945,0,0.47962,0.30556,0.56665,0.34811-0.04448,0.087-1.6129,1.1352-0.61113,1.4389,0.13151,0.30556-0.74264,1.3538-1.7444,1.4408-0.13151,0.0425,0.61113,0.34811,0.5241,0.30556,0.04448z" fill-rule="evenodd" stroke="#d40000" stroke-miterlimit="4" stroke-dasharray="none" stroke-width="0.60000002" fill="#ffcd50"/>
 <path d="m202.62,39.64c0.47962-1.6129-0.0425-2.5722-0.91669-3.4463-1.0463-1.0463-2.7907-1.963-2.8777-3.6203-0.087-1.3518,0.91476-2.4426,1.6999-0.91669,0.35004,0.69816,0.69815,0.30556,0.35004-0.2166-0.82966-1.3538-1.3093-3.6203-0.56664-5.0611,0.39259-0.7407,1.2648-1.3093,1.3518,0.08703,0,0.30556,0.087,0.43707,0.17405,0.43707m-4.0129,12.737c-0.47962-1.6129,0.0426-2.5722,0.87221-3.4463,0.43707-0.43514,1.0037-0.87221,1.5259-1.3073m0.39452-3.9259c-0.13151,0.04255-0.26302,0.08703-0.39452,0.26108m-0.3926-0.26108c0.13151-0.35004,0.26302-0.69816,0.3926-1.0482m0-3.3148c-0.0426-0.08703-0.087-0.13151-0.12958-0.21854-0.39259-0.7407-1.2648-1.3093-1.3093,0.08703-0.0426,0.30556-0.13151,0.43707-0.21854,0.43707" stroke="#d40000" stroke-linecap="round" stroke-miterlimit="4" stroke-dasharray="none" stroke-width="0.60000002" fill="none"/>
 <path d="m200.2,41.124c1.6032,0,2.9029,1.2996,2.9029,2.9009,0,1.6032-1.2996,2.9029-2.9029,2.9029-1.6013,0-2.9028-1.2996-2.9028-2.9029,0-1.6013,1.3015-2.9009,2.9028-2.9009z" fill-rule="evenodd" fill="#FFF"/>
 <path stroke-linejoin="round" d="m68.853,142.78-35.745,0-6.6489-8.1729s4.1135-2.3497,4.0149-7.759c-0.09476-5.3957-0.13731-10.67-0.13731-10.67s-1.2455,2.3575-4.5719,2.3575c-3.3245,0-4.5699-2.079-4.9876-3.6049-0.4158-1.524-4.8271,0.14311-4.0187-9.6968,2.3575,2.2163,5.3068,3.3883,7.204,1.3847,2.4116-2.5451,0.23401-7.8692-5.125-13.994-4.8581-5.5504-9.4222-12.607-7.204-22.583,1.787-8.0375,8.2231-13.901,10.254-15.932-1.1584-3.1407-0.87221-4.1638-3.5062-9.5595-4.274-1.9011-8.4243-12.064-11.256-18.123,2.5992,4.0729,6.2737,4.8523,8.3218,6.5058,0.46221-1.9456,5.5756-4.7807,8.3895-0.40033,1.8643,2.899-0.07349,8.3082-5.0998,7.3181,3.425,2.1389,4.4868,2.5296,6.8713,1.8063,2.9647-0.90122,3.4231-3.104,3.5623-6.0146-2.3536-0.06189-2.5199-1.6671-2.2492-3.6416,0.35585-2.5838,0.91476-4.6705,4.2528-2.1099,2.6553,2.0384,1.9726,4.1019,0.82966,4.8233,1.9552,2.137,3.0344,3.866,7.467,3.7286,4.4345-0.13924,7.7706-1.7908,8.3218-7.057-2.6244,1.6941-5.5021,3.3496-9.5034,0.73877-3.2993-2.1544-2.2956-7.3277,0.09476-9.3158,2.3111-1.9204,5.3532-1.3963,8.08,0.69235-0.69235-1.8024,1.4505-9.3371,4.2353-10.579,3.0537,1.8353,4.2953,7.8402,4.0091,10.579,1.4717-1.0869,4.4519-2.7249,7.438-1.0443,4.8658,2.7385,3.2355,7.9331,1.2493,9.6678-1.5588,1.3615-5.8521,2.1177-9.3661-0.65948,0.51056,5.2874,3.8157,6.3143,7.496,7.0492,2.253,0.44868,5.8792,0.43127,8.3237-2.9551-1.4543-0.75811-1.7328-2.3672-0.03094-4.4694,3.0228-3.7403,4.4442-2.5122,5.1269,1.3344,0.5357,3.0266-0.86641,3.5643-2.3169,3.7016,0.34038,2.224,0.7175,4.8252,3.4598,5.7419,2.0674,0.69042,4.0245,0.37132,7.6642-2.0171-4.1735,1.4717-7.6681-3.8292-5.9101-6.9854,2.2298-4.0071,6.8887-3.4772,8.7434,0.06769,1.6806-1.493,5.8715-3.9839,7.9234-6.5058-2.5625,7.2484-8.3682,18.817-11.054,18.123-3.307,7.2465-3.6552,9.6968-3.6552,9.6968s11.174,7.8866,10.944,22.03c-0.14505,9.1379-8.5384,17.025-11.637,21.335-3.5797,4.9799-2.5547,8.2947-0.55504,9.5614,1.6845,1.0656,4.1116-0.0967,6.235-1.9398,0.32104,2.313,0.96891,4.7111-0.27656,6.6489-1.2474,1.9398-1.9649,1.7696-3.8814,2.4948,0.16245,1.4176-0.36358,2.5934-1.7986,3.4618-2.2414,1.3596-4.7981,1.0115-7.4844-1.5201-0.05222,4.9451-0.2224,7.2678-0.13731,10.252,0.13731,4.9876,4.2953,8.0356,4.2953,8.0356l-6.6508,8.1729z" fill-rule="evenodd" stroke="#003d8f" stroke-miterlimit="4" stroke-dasharray="none" stroke-width="1.70000005" fill="#ffcd50"/>
 <path d="m48.368,111.03c1.698-0.849,2.4426-0.76584,4.392,0.0193-1.0018-0.72523-0.86061-1.6787-2.371-1.9301-0.43127,1.0018-1.5298,0.95731-2.021,1.9107zm-4.9586-9.1669c2.4735,0.26109,10.217,0.41387,13.808,0,0.16632,0.4158-2.3633,0.94571-3.485,1.5394-0.9341,0.49509-2.1119,1.1855-3.2336,1.1855-1.1178,0-2.2376-0.59373-3.7306-1.1855-1.3441-0.53377-3.5488-1.1565-3.3593-1.5394zm-2.0519-2.4638c5.1559-0.28236,12.277-0.22627,17.541,0-1.8372-0.53184-2.9319-0.97471-4.0187-1.8779-0.69429-0.57632-1.5684-0.80065-2.5509-0.79098-0.92443,0.0097-1.9436,0.60533-1.9436,0.60533s-0.80066-0.60533-1.9765-0.60533-1.698,0.32877-2.8719,1.0385c-1.1758,0.70976-2.6437,0.97858-4.1793,1.6303zm16.602-30.153c0.62466-0.59759,0.79485-1.1314,1.8256-1.7908,1.1198-0.71556,1.9668-0.96891,3.6223-0.99018,1.3692-0.01354,2.4677,0.33651,3.5159,1.2996,0.97664,0.89542,1.1739,1.669,3.0479,2.7694-1.3905,0.6208-2.0964,0.83546-3.044,1.4002-0.65561,0.38872-1.8682,1.0521-3.7635,1.0946-1.8063,0.03868-4.831-0.97084-4.831-0.97084s1.6999,0.76971,2.7984-0.43127c0.48542-0.5299,0.65367-1.6941,0.07929-2.3865-0.77358-0.93603-2.2028-0.97858-3.251,0.0058zm-25.101-7.633c3.5159,1.0849,5.7477,0.29589,7.8151,0.93603,2.4174,0.74457,3.837,1.5723,5.2449,3.6068,1.2029,1.7367,1.6206,5.9295,0.7349,8.4513-0.2166-2.2221-1.0347-4.7362-2.5045-6.6818-1.6632-2.2028-3.2722-3.5411-5.8463-4.4094-2.3207-0.78518-3.1697,0.16438-5.4441-1.903zm38.161-0.08316c-0.4216,0.7291-1.0366,1.9397-2.607,2.7733-1.5704,0.83547-6.0513,0.22627-8.2831,0.40226-1.5646,0.12377-3.8602,0.68268-5.0631,2.0577-1.2242,1.3963-1.8914,2.0558-2.1061,7.7126-0.29589,7.7435,0.70009,6.5735,0.99405,12.242,0.06382,1.2203-0.28429,1.7057,0.74264,2.7017,0.71363,0.69042,2.4987,0.28429,2.4987,0.28429s-1.6342,1.932-3.5933,1.6323c-1.0985-0.16632-1.7173,1.6709-3.0537,1.6361-1.3364-0.03094-2.4813-2.048-3.4018-1.8701-1.2532,0.24755-2.4406-0.59372-3.1059-1.3905,1.0192,0.48155,1.6342,0.46802,2.8178-0.46995,1.201-0.9515,2.6843,0.98825,4.4423-1.0907,1.3015-1.5433,0.34037-2.7849,0.16245-3.7847-0.21854-1.2165-0.48736-6.7359-0.45448-12.035,0.01934-2.6205,0.30943-5.1114,2.2395-7.144,1.5549-1.64,4.4771-3.1233,8.2522-3.1891,4.0729-0.07156,7.9853,0.21467,9.5189-0.46802zm-39.746,7.6352c0.62853-0.59566,0.79485-1.1294,1.8295-1.7908,1.1178-0.71363,1.8856-0.88768,3.5372-0.90702,1.3712-0.01547,2.5528,0.25722,3.5971,1.2165,0.97858,0.89735,1.1758,1.669,3.0479,2.7713-1.3886,0.61886-2.0945,0.83546-3.044,1.3982-0.65561,0.39066-1.8682,1.0521-3.7635,1.0965-1.8024,0.03868-4.8291-0.97084-4.8291-0.97084s1.698,0.76971,2.7965-0.4332c0.48542-0.52797,0.65367-1.6903,0.08123-2.3846-0.77551-0.93796-2.2028-0.97858-3.2529,0.0039z" fill-rule="evenodd" fill="#003d8f"/>
 <path d="m31.212,108.85c2.9029,3.4946,8.3624,7.5811,11.379,8.6544,1.5665,1.5684,5.007,7.4012,10.051,6.7398,4.2373-0.54343,4.4964-2.3265,6.4768-3.7925,3.893-1.6458,7.0918-4.2721,11.294-8.6312,0.06575,2.2898,0.09283,4.3204,0.07156,5.4576l1.7019-0.17019-0.0019-0.008h0.0039c0.01741-3.0015,0.03481-6.0803,0.0039-9.136,0.7349,1.17,1.7328,2.7694,3.7286,3.6803-2.6166-1.8933-2.9067-4.4326-3.2104-5.1134-0.26302-0.58985-0.29396-1.9281-0.20693-3.425,0.0019-0.004,0-0.01,0-0.0135,1.4563-8.022,7.4031-18.255,7.5501-25.004-0.41967,3.6668-0.65367,5.1772-5.7516,12.263,1.6922-6.5658,4.042-15.938,3.1833-21.935,1.3982,2.6863,3.2258,8.842,4.1386,13.325-0.69816-4.6666-1.756-9.6291-2.4155-11.321-1.17-3.0131-6.5948-12.068-6.7572-16.624,2.8603,0.43514,5.9372,1.1236,8.1013,1.7502l-0.856-2.138c-13.812-3.26-43.289-4.181-58.647-0.133v1.6922c2.5663-0.67688,5.5272-1.2145,8.7414-1.6245-0.17019,4.5602-5.5852,13.69-6.7553,16.702-0.62273,1.5974-1.5994,6.1035-2.2937,10.528,1.0772-5.2391,3.1639-11.954,4.5216-12.205,0.3307,3.9665,0.36358,15.162,1.8044,16.7,0.35198,0.29009,0.88188,9.2385,1.3499,12.453,0.25528,1.7386,0.03288,5.3261,0.93216,7.4979,0.09863,3.9549,0.36938,7.9988,0.1199,11.909h0.0019v0.01l1.727,0.14891v-0.01h0.0039c0.16825-2.7017,0.10056-5.4673,0.0077-8.2251zm39.65-53.353c1.1024,3.9162,3.133,8.6428,4.6009,10.648-0.96697,2.1254-0.65561,7.6236-1.3325,12.7-0.5415,1.8237-1.3422,4.3746-1.698,4.742-0.86448,0.89735-2.5083,1.5181-2.5083,1.5181l-3.3225,8.109,4.3262-6.4671s0.45061-0.18179,0.99598-0.45254c-0.60532,8.931-1.0115,12.992-1.3441,14.986-0.56665,3.4038-4.9702,6.8326-7.494,8.8381-1.4195,1.1314-5.8618,4.1947-5.8618,4.1947s-2.9164,4.4848-6.8713,4.4848c-3.982,0-6.5909-4.537-6.5909-4.537s-4.6163-2.6785-7.231-4.8465c-2.8564-2.3652-6.2234-4.5177-6.2757-8.666-0.0097-0.84514-0.19339-2.197-0.36938-4.3475-0.36165-4.4403-0.8258-9.9134-0.89928-10.788,0.82966,0.45641,1.6593,0.83547,1.6593,0.83547l2.5721,4.8078-2.3613-5.6935s-1.9475-0.82966-2.6572-1.6439c-0.239-0.253-0.384-0.939-0.421-1.299-0.388-3.686-0.849-11.666-0.7-15.82,1.8663-2.6128,4.4133-7.9427,5.6413-11.857,12.095-1.2184,26.841-0.83546,38.141,0.57245z" fill-rule="evenodd" fill="#003d8f"/>
 <path d="m50.362,43.51,0.33457-3.1697,0.32684,3.1697,0.78518,0.78518-0.78712,0.78518-0.3249,3.1678-0.335-3.168-0.785-0.785,0.785-0.785z" fill-rule="evenodd" fill="#003d8f"/>
 <path d="m40.435,44.119,0.0039-3.0034,0.61693,2.9377,0.81226,0.65754-0.65948,0.81226,0.0077,3.0015-0.6266-2.9357-0.81226-0.65754,0.65754-0.81226z" fill-rule="evenodd" fill="#003d8f"/>
 <path d="m31.883,45.133-0.25335-2.9319,0.85287,2.8139,0.849,0.57438-0.57245,0.849,0.26302,2.928-0.86254-2.812-0.849-0.57245,0.57245-0.849z" fill-rule="evenodd" fill="#003d8f"/>
 <path d="m24.569,46.887-0.49896-2.841,1.0733,2.6746,0.87995,0.48736-0.48929,0.87801,0.50863,2.8371-1.083-2.6727-0.87801-0.48542,0.48736-0.87801z" fill-rule="evenodd" fill="#003d8f"/>
 <path d="m69.469,45.133,0.25335-2.9319-0.85287,2.8139-0.85094,0.57438,0.57438,0.849-0.26302,2.928,0.86254-2.812,0.849-0.57245-0.57245-0.849z" fill-rule="evenodd" fill="#003d8f"/>
 <path d="m60.918,44.119-0.0039-3.0034-0.61693,2.9377-0.81226,0.65754,0.65754,0.81226-0.0058,3.0015,0.6266-2.9357,0.81226-0.65754-0.65754-0.81226z" fill-rule="evenodd" fill="#003d8f"/>
 <path d="m76.784,46.887,0.49896-2.841-1.0733,2.6746-0.87995,0.48736,0.48736,0.87801-0.50669,2.8371,1.083-2.6727,0.87801-0.48542-0.48735-0.87801z" fill-rule="evenodd" fill="#003d8f"/>
 <g transform="matrix(0.95254349,0,0,0.95254349,6.1904638,10.523464)">
  <path d="m79.109,200.41c7.1031,6.8538,14.954,7.3523,25.795,5.4831,6.9784-1.1215,20.063,1.7446,28.661,5.2338v0.49846c-9.2215-2.1185-18.817-4.1123-27.914-1.7446-14.081,3.7384-25.421,4.7354-26.543-9.4707z" fill-rule="evenodd" fill="#d20000"/>
  <path fill="none" d="m79.109,200.41c7.1031,6.8538,14.954,7.3523,25.795,5.4831,6.9784-1.1215,20.063,1.7446,28.661,5.2338v0.49846c-9.2215-2.1185-18.817-4.1123-27.914-1.7446-14.081,3.6138-25.421,4.7354-26.543-9.4707z"/>
  <path d="m132.94,215.62c-6.7292,2.3677-13.458,2.7415-19.315-3.3646-2.7415,4.6108-1.2462,8.3492,1.62,11.714l3.7384,4.7354,18.069-10.343-4.1123-2.7415zm-30.281-37.26c-15.452-2.2431-21.683,3.8631-18.941,16.698,3.4892-4.6108,9.4707-4.2369,15.203,0,8.9723,6.48,18.318,10.094,30.406,8.3492l3.8631-1.2462-24.175-24.051-6.3554,0.24923z" fill-rule="evenodd" fill="#d20000"/>
  <path d="m110.12,173.16c-4.969,0.0445-7.5867,2.0176-7.8438,5.1875,5.3584,3.24,10.233,8.3611,14.969,13.969,15.577,12.337,29.763,27.173-6.375,32.531-2.9908,0.37385-5.978,1.4988-8.9688,1.125,0.8723,1.8692,2.13,3.4722,3.75,4.5938-6.6046,1.4954-12.209,7.9699-19.188,8.3438,1.7446,1.8692,3.8514,3.0012,6.3438,3.375-7.6015,6.1061-8.608,11.232-13.219,15.594,2.3677,0.62308,10.007-0.90856,12.375-1.6562-1.8803,3.3135-2.8843,6.1657-5.625,9.9375,6.2668,0.23786,12.92-3.6885,17-7.5625-0.38759,4.5494-1.999,8.2227-5.0312,11.25,5.6352-0.25197,13.27-4.4136,16.594-9.9688,0.63369,3.4923,0.005,6.084-2.25,10.469,5.5336-0.99258,13.09-5.9469,15.281-11.156,1.376,5.1319,4.2973,8.4251,8.625,10-0.59109-4.1684,1.3802-7.72,2.7812-12,2.8196,4.8363,6.4865,7.7081,10.906,8-0.92165-3.7667-0.6967-8.3908-0.59375-12.438,1.7057,3.1646,7.0613,6.5032,10.094,6.2812-2.3677-8.1,0.11189-9.3861-4.125-23.094,1.9938,1.4954,3.9761,2.0953,6.3438,2.5938-2.1184-4.1123-1.7311-14.68-5.7188-22.281,2.2431,1.3708,3.9761,3.5968,6.3438,4.5938-0.74769-9.2215-3.3595-17.553-8.4688-24.656,4.471-1.0605,6.954-2.1402,9.4591-5.7289-1.6107-0.0196-2.9165-0.55516-3.8613-1.7016,4.335-0.50685,8.085-4.4076,8.621-8.4757-7.6212,2.0208-14.839,0.0345-23.812,3.2188-5.9639-4.5751-17.328-6.7174-26.156-9.125-3.2322-0.85673-5.9914-1.239-8.25-1.2188z" fill-rule="evenodd" fill="#000"/>
  <path d="m109.64,183.09c3.6138-1.2462,7.6015-0.74769,10.468,0.99692,1.62,0.8723,1.9938,3.4892,0.62307,4.86-4.2369,4.1123-11.838,0.99692-11.091-5.8569z" fill-rule="evenodd" stroke="#000" stroke-miterlimit="4" stroke-dasharray="none" stroke-width="1.04982078" fill="#FFF"/>
  <path d="m113.25,182.47c2.4923-0.12461,4.86,0.37385,6.8538,1.4954-0.12461,2.1185-1.62,3.7384-3.6138,3.7384s-3.6138-1.62-3.6138-3.7384c0-0.49846,0.12462-1.1215,0.37385-1.4954z" fill-rule="evenodd" fill="#000"/>
 </g>
</svg>
