<!-- Created with Inkscape (http://www.inkscape.org/) -->
<svg xmlns:rdf="http://www.w3.org/1999/02/22-rdf-syntax-ns#" xmlns="http://www.w3.org/2000/svg" height="300" width="248" version="1.0" xmlns:cc="http://creativecommons.org/ns#" xmlns:xlink="http://www.w3.org/1999/xlink" xmlns:dc="http://purl.org/dc/elements/1.1/">
 <metadata>
  <rdf:RDF>
   <cc:Work rdf:about="">
    <dc:format>image/svg+xml</dc:format>
    <dc:type rdf:resource="http://purl.org/dc/dcmitype/StillImage"/>
    <dc:title/>
   </cc:Work>
  </rdf:RDF>
 </metadata>
 <path d="m247,1.0001,0,214.77c0,82.42-84.912,44.012-123,82.791-38.089-38.77-123-0.37-123-82.79v-214.77z" stroke="#000" stroke-miterlimit="4" stroke-dasharray="none" stroke-width="2" fill="#d40000"/>
 <path fill="#ffcd50" d="m124,99.208c45.299,0,82.068,36.769,82.068,82.068s-36.77,82.068-82.068,82.068c-45.299,0-82.069-36.769-82.069-82.068s36.77-82.068,82.069-82.068z" fill-rule="evenodd"/>
 <path d="m57.408,215.02,6.2799,15.756m-1.982-11.429,6.7945,16.764m-1.8394-11.025,6.248,15.162m-1.8211-10.917,5.9851,14.283m-1.8402-10.884,5.8402,13.706m-1.8801-10.898,5.7653,13.306m-1.939-10.939,5.7262,12.994m-2.0091-11.002,5.7191,12.761m-2.0832-11.065,5.7286,12.568m-2.1613-11.132,5.7509,12.407m-2.2473-11.204,5.7852,12.271m-2.3373-11.281,5.8306,12.158m-2.4329-11.36,5.8832,12.062m-2.5309-11.441,5.9389,11.97m-2.6313-11.514,6.0003,11.887m-2.7333-11.586,6.0688,11.817m-2.8392-11.659,6.1357,11.744m-2.9508-11.735,6.2106,11.684m-3.0631-11.805,6.2902,11.629m-3.1802-11.875,6.3636,11.56m-3.2981-11.945,6.4472,11.508m-3.4224-12.015,6.5316,11.456m-3.549-12.081,6.6121,11.394m-3.6773-12.146,6.7013,11.345m-3.8119-12.212,6.789,11.289m-3.9466-12.269,6.8758,11.23m-4.086-12.328,6.9706,11.181m-4.2333-12.393,7.0598,11.123m-4.3751-12.441,7.153,11.065m-4.5257-12.492,7.247,11.007m-4.681-12.546,7.3418,10.947m-4.8348-12.588,7.4374,10.886m-4.9949-12.63,7.5322,10.822m-5.1606-12.676,7.6294,10.758m-5.3271-12.712,7.729,10.693m-5.4976-12.745,7.8262,10.624m-5.6745-12.777,7.9226,10.551m-5.8545-12.807,8.0237,10.481m-6.0377-12.831,8.1249,10.41m-6.2265-12.856,8.2205,10.328m-6.4153-12.869,8.3185,10.246m-6.6145-12.886,8.4213,10.17m-6.8184-12.902,8.524,10.089m-7.028-12.912,8.6228,10.001m-7.2375-12.915,8.7216,9.911m-7.4541-12.914,8.822,9.821m-7.682-12.92,8.9279,9.7349m-7.9194-12.921,9.0315,9.6433m-8.1592-12.917,9.1335,9.5485m-8.4037-12.909,9.2378,9.4529m-8.6603-12.898,9.3438,9.3565m-8.9263-12.887,9.4537,9.2617m-9.2052-12.877,9.5668,9.1669m-9.4959-12.866,9.6831,9.0745m-9.8026-12.86,9.8034,8.9821m-10.128-12.855,9.9325,8.8945m-10.482-12.861,10.077,8.8164m-10.872-12.885,10.23,8.7439m-11.307-12.929,10.41,8.6889m-11.808-13.008,10.629,8.6603m-12.409-13.145,10.906,8.6722m-13.16-13.376,11.27,8.7431m-14.158-13.758,11.795,8.9239m-15.663-14.475,12.689,9.3589m-18.604-16.158,14.715,10.576m-16.842-14.429,11.259,7.8819m-126.08,86.343,3.5188,8.9765m26.899,6.6336,2.1581,4.7344m1.5694-2.7484,2.1629,4.6675m1.4658-3.0033,2.17,4.6046m1.3694-3.2344,2.1916,4.5695m1.2778-3.4423,2.2147,4.5416m1.1918-3.6335,2.241,4.5146m1.1065-3.8071,2.2688,4.4946m1.0253-3.9728,2.2999,4.4803m0.94322-4.129,2.3326,4.4652m0.86196-4.274,2.3676,4.454m0.78151-4.4126,2.4042,4.4444m0.69945-4.5448,2.4425,4.4373m0.61819-4.6747,2.4823,4.4325m0.52658-4.8109,2.5246,4.4269m0.43815-4.9344,2.566,4.4221m0.34733-5.0563,2.6106,4.419m0.25492-5.1758,2.656,4.4158m0.15773-5.2945,2.6982,4.4078m0.059-5.41,2.746,4.4046m-0.043-5.5223,2.7938,4.4014m-0.14817-5.633,2.844,4.3982m-0.25652-5.7414,2.8918,4.3919m-0.36646-5.8465,2.9396,4.3831m-0.48117-5.9501,2.9922,4.3791m-0.60066-6.0537,3.0456,4.3759m-0.72256-6.1556,3.1005,4.3712m-0.85001-6.2544,3.1515,4.3608m-0.97748-6.3468,3.2041,4.3504m-1.1113-6.4416,3.2606,4.3433m-1.2539-6.5364,3.3204,4.3377m-1.4005-6.6304,3.3809,4.3321m-1.5518-6.7236,3.4399,4.3226m-1.7072-6.8105,3.4996,4.3106m-1.8689-6.8965,3.5602,4.2995m-2.0346-6.9825,3.6231,4.2891m-2.2107-7.0662,3.6892,4.2788m-2.3939-7.1522,3.757,4.2692m-2.5867-7.2382,3.8278,4.2612m-2.789-7.3259,3.9019,4.254m-3.0017-7.4119,3.9792,4.2485m-3.224-7.4996,4.0589,4.2437m-3.459-7.5904,4.1441,4.2397m-3.7084-7.6812,4.2325,4.2389m-3.9728-7.7744,4.3281,4.2405m-4.2548-7.8732,4.4317,4.2461m-4.5584-7.9775,4.544,4.258m-4.8882-8.0946,4.6675,4.2764m-5.2538-8.2253,4.8077,4.305m-5.6816-8.3942,4.9893,4.3656m-6.1795-8.6053,5.1877,4.4341m-6.7674-8.8642,5.453,4.5512m-7.533-9.2458,5.8171,4.74m-8.5782-9.813,6.3428,5.0443m-10.234-10.806,7.2845,5.6506m-9.7357-10.097,5.6243,4.2548" stroke="#d40000" stroke-miterlimit="4" stroke-dasharray="none" stroke-width="0.5" fill="none"/>
 <path fill="#003d8f" d="m110,172.28,28,0,0,18-28,0,0-18z" fill-rule="evenodd"/>
 <path style="direction:ltr;baseline-shift:baseline;block-progression:tb;text-indent:0;color:#000000;enable-background:accumulate;text-transform:none;text-align:start;" fill="#ffcd50" d="m199.31,169.78,0,23,5.739,0,0-23z" fill-rule="evenodd"/>
 <path fill="#d40000" d="m115,131.56c0-6.6236,4.0321-12,8.9996-12s9.0004,5.3764,9.0004,12-4.0329,12-9.0004,12-8.9996-5.3764-8.9996-12z" fill-rule="evenodd"/>
 <path id="rect4026-1" stroke="#d40000" fill="none" d="m88.802,171.63,10,0c0.554,0,1,0.446,1,1v4c0,0.554-0.446,1-1,1h-10c-0.554,0-1-0.446-1-1v-4c0-0.554,0.446-1,1-1z"/>
 <use xlink:href="#rect4026-1" transform="translate(-0.0617218,13.336304)" height="300" width="248" y="0" x="0"/>
 <use xlink:href="#rect4026-1" transform="translate(60.45863,13.336304)" height="300" width="248" y="0" x="0"/>
 <use xlink:href="#rect4026-1" transform="translate(60.45863,-0.039677)" height="300" width="248" y="0" x="0"/>
 <use xlink:href="#rect4026-1" transform="matrix(0,-1,1,0,-57.314302,251.08317)" height="300" width="248" y="0" x="0"/>
 <use xlink:href="#rect4026-1" transform="matrix(0,-1,1,0,-43.938717,251.08317)" height="300" width="248" y="0" x="0"/>
 <use xlink:href="#rect4026-1" transform="matrix(0,-1,1,0,-43.938717,203.65749)" height="300" width="248" y="0" x="0"/>
 <use xlink:href="#rect4026-1" transform="matrix(0,-1,1,0,-57.314302,203.65749)" height="300" width="248" y="0" x="0"/>
 <path fill-rule="evenodd" fill="#d40000" d="m66.727,172.28c6.6236,0,12,4.0321,12,8.9996,0,4.9683-5.3764,9.0004-12,9.0004s-12-4.0321-12-9.0004c0-4.9675,5.3764-8.9996,12-8.9996z"/>
 <path fill-rule="evenodd" fill="#003d8f" d="m39.185,172.28,7,0,0,18-7,0,0-18z"/>
 <path fill="#ffcd50" d="m181.27,169.78c-8.0035,0-14.5,5.1521-14.5,11.5,0,6.3484,6.4965,11.5,14.5,11.5s14.5-5.1521,14.5-11.5c0-6.3474-6.4965-11.5-14.5-11.5z" fill-rule="evenodd"/>
 <path style="direction:ltr;baseline-shift:baseline;block-progression:tb;text-indent:0;color:#000000;enable-background:accumulate;text-transform:none;text-align:start;" d="m172.7,162,0,7,29.216,0,0-7zm0,36.75,0,7,29.216,0,0-7z" fill="#ffcd50"/>
 <path stroke-linejoin="round" style="direction:ltr;baseline-shift:baseline;block-progression:tb;text-indent:0;color:#000000;enable-background:accumulate;text-transform:none;text-align:start;" d="m105.56,98.969c-1.8228,0.03139-3.4562,1.708-3.44,3.531v56.906h-57.5c-1.8502-0.028-3.5533,1.6496-3.5533,3.5s1.7031,3.528,3.5533,3.5h64.5v-63.91c0.0167-1.8639-1.6988-3.5643-3.5625-3.5312zm36.75,0c-1.8194,0.03653-3.4463,1.7112-3.43,3.531v63.906h64.5c1.8502,0.028,3.5533-1.6496,3.5533-3.5s-1.7031-3.528-3.5533-3.5h-57.5v-56.91c0.0167-1.8639-1.6988-3.5643-3.5625-3.5312zm-98.031,97.188c-1.8326,0.09-3.4181,1.8393-3.3281,3.6719,0.08999,1.8326,1.8393,3.4181,3.6719,3.3281h158.75c1.8502,0.028,3.5533-1.6496,3.5533-3.5s-1.7031-3.528-3.5533-3.5h-158.75c-0.11449-0.006-0.22926-0.006-0.34375,0z" stroke="#d40000" stroke-dasharray="none" stroke-miterlimit="4" stroke-width="1" fill="#ffcd50"/>
 <path fill="#003d8f" d="m208.81,172.28-7,0,0,18,7,0,0-18z" fill-rule="evenodd"/>
 <path fill="#d40000" d="m181.27,172.28c-6.6236,0-12,4.0321-12,8.9996,0,4.9683,5.3764,9.0004,12,9.0004s12-4.0321,12-9.0004c0-4.9675-5.3764-8.9996-12-8.9996z" fill-rule="evenodd"/>
 <path d="m121.05,97.347c-0.0693-1.2953-0.70742-1.1257-0.68113-0.10277,0.0876,3.3746-4.8186,5.7432-10.12,3.3518,12.141-2.7172,8.0732-16.083,6.6628-23.656-1.264-6.7871,3.1762-10.373,7.0843-10.373,3.9082,0,8.3483,3.5862,7.0843,10.373-1.4104,7.5731-5.4777,20.939,6.6628,23.656-5.3015,2.3914-10.208,0.0228-10.12-3.3518,0.0263-1.0229-0.61182-1.1926-0.68112,0.10277-0.17366,3.2694-2.4823,1.2968-2.9459-0.50728-0.46359,1.8041-2.7722,3.7767-2.9459,0.50728z" stroke="#d40000" stroke-miterlimit="4" stroke-dasharray="none" stroke-width="0.8" fill="#ffcd50"/>
 <path d="m119.07,70.407c-1.0141,3.2646,0.0788,5.2817,1.837,7.071,2.1565,2.1939,5.782,4.0493,5.9955,7.4478,0.17606,2.7922-1.9064,5.0188-3.5458,1.8936-0.76477-1.4571-1.4252-0.61979-0.72095,0.50268,1.7327,2.7627,2.6727,7.4566,1.1496,10.416-0.79584,1.5471-2.6058,2.7301-2.7596-0.17207-0.0351-0.64767-0.21191-0.92888-0.37681-0.92092m8.28-26.239c1.0141,3.2646-0.0788,5.2817-1.837,7.071-0.89543,0.91056-2.0426,1.7622-3.0942,2.6903m-0.82452,8.1345c0.27006-0.06931,0.54809-0.24218,0.82372-0.53773m0.82453,0.53773c-0.32264,0.66042-0.60306,1.3877-0.82373,2.1493m0,6.813c0.0661,0.16172,0.13782,0.32105,0.21669,0.474,0.79584,1.5471,2.6058,2.7301,2.7596-0.17207,0.0351-0.64767,0.2119-0.92888,0.37601-0.92092" stroke="#d40000" stroke-linecap="round" stroke-miterlimit="4" stroke-dasharray="none" stroke-width="1" fill="none"/>
 <path d="m34.226,62.763a13.939,13.939,0,1,1,-27.878,0,13.939,13.939,0,1,1,27.878,0z" transform="matrix(0.43045027,0,0,0.43045027,115.26776,-7.6879495)" fill="#FFF"/>
 <path d="m127.66,25.227c-0.0876-3.3738,3.416-4.6779,6.6615-4.3417-10.148,10.127-2.8058,20.253-3.0416,27.103-0.13544,3.9354-3.0456,7.8286-7.2773,7.8286-4.2325,0-7.1427-3.8932-7.2781-7.8286-0.23501-6.8503,7.1068-16.976-3.0416-27.103,3.2455-0.33618,6.7491,0.96792,6.6623,4.3417-0.0262,1.0229,0.61181,1.1934,0.68033-0.10277,0.17445-3.2694,2.362-1.2109,2.977,0.30113,0.61422-1.512,2.8026-3.5705,2.9763-0.30113,0.0693,1.2961,0.70741,1.1257,0.68112,0.10277z" fill-rule="evenodd" stroke="#d40000" stroke-miterlimit="4" stroke-dasharray="none" stroke-width="0.80000001" fill="#ffcd50"/>
 <path d="m128.93,52.283c1.0133-3.2646-0.0796-5.2809-1.8379-7.0702-2.1557-2.1939-5.7812-4.0501-5.9947-7.4486-0.17605-2.7922,1.9064-5.018,3.5458-1.8936,0.76398,1.4571,1.4252,0.61979,0.72095-0.50268-1.7327-2.7627-2.6735-7.4566-1.1503-10.416,0.79664-1.5471,2.6058-2.7301,2.7604,0.17207,0.0343,0.64767,0.2111,0.92888,0.37601,0.92092m-8.285,26.238c-1.0133-3.2646,0.0796-5.2809,1.8378-7.0702,0.89463-0.91136,2.0418-1.763,3.0942-2.691m0.82372-8.1345c-0.26926,0.06931-0.54808,0.24218-0.82372,0.53773m-0.82372-0.53773c0.32263-0.65962,0.60226-1.3877,0.82372-2.1485m0-6.8129c-0.0661-0.16172-0.13702-0.32025-0.21589-0.474-0.79664-1.5471-2.6058-2.7301-2.7604,0.17207-0.0343,0.64767-0.21112,0.92888-0.37602,0.92092" stroke="#d40000" stroke-linecap="round" stroke-miterlimit="4" stroke-dasharray="none" stroke-width="1" fill="none"/>
 <path d="m34.226,62.763a13.939,13.939,0,1,1,-27.878,0,13.939,13.939,0,1,1,27.878,0z" transform="matrix(0.43045027,0,0,0.43045027,157.28296,34.328441)" fill="#FFF"/>
 <path d="m160.12,65.002c3.3738-0.08683,4.6779,3.4168,4.3409,6.6623-10.127-10.148-20.253-2.8066-27.102-3.0416-3.9354-0.13543-7.8294-3.0456-7.8294-7.2781,0-4.2318,3.894-7.1419,7.8294-7.2773,6.8495-0.23501,16.976,7.106,27.102-3.0416,0.33698,3.2455-0.96712,6.7491-4.3409,6.6623-1.0229-0.02709-1.1934,0.61182,0.10197,0.68033,3.2702,0.17367,1.2109,2.362-0.30113,2.9762,1.512,0.61501,3.5713,2.8034,0.30113,2.977-1.2953,0.06851-1.1248,0.70662-0.10197,0.68033z" fill-rule="evenodd" stroke="#d40000" stroke-miterlimit="4" stroke-dasharray="none" stroke-width="0.80000001" fill="#ffcd50"/>
 <path d="m133.06,66.277c3.2654,1.0133,5.2817-0.07966,7.071-1.8378,2.194-2.1557,4.0493-5.7812,7.4486-5.9955,2.7914-0.17606,5.018,1.9064,1.8928,3.5458-1.4563,0.76477-0.61979,1.4252,0.50267,0.72176,2.7636-1.7335,7.4574-2.6735,10.416-1.1503,1.5471,0.79664,2.7301,2.6058-0.17207,2.7604-0.64767,0.03426-0.92888,0.21111-0.92012,0.37601m-26.239-8.2851c3.2654-1.0133,5.2817,0.07966,7.071,1.8378,0.91056,0.89463,1.7622,2.0418,2.6902,3.0942m8.1345,0.82373c-0.0693-0.26926-0.24138-0.54809-0.53694-0.82373m0.53694-0.82373c0.66041,0.32264,1.3886,0.60226,2.1493,0.82373m6.8121,0c0.1625-0.06612,0.32104-0.13702,0.47399-0.21589,1.5471-0.79664,2.7301-2.6058-0.17207-2.7604-0.64767-0.03426-0.92888-0.21111-0.92012-0.37601" stroke="#d40000" stroke-linecap="round" stroke-miterlimit="4" stroke-dasharray="none" stroke-width="1" fill="none"/>
 <path d="m34.226,62.763a13.939,13.939,0,1,1,-27.878,0,13.939,13.939,0,1,1,27.878,0z" transform="matrix(0.43045027,0,0,0.43045027,73.251327,34.32913)" fill="#FFF"/>
 <path d="m87.882,65.002c-3.3746-0.08683-4.6779,3.4168-4.3417,6.6623,10.127-10.148,20.253-2.8066,27.102-3.0416,3.9354-0.13543,7.8294-3.0456,7.8294-7.2781,0-4.2318-3.894-7.1419-7.8294-7.2773-6.8495-0.23501-16.976,7.106-27.102-3.0416-0.33618,3.2455,0.96712,6.7491,4.3417,6.6623,1.0229-0.02709,1.1926,0.61182-0.10277,0.68033-3.2694,0.17367-1.2109,2.362,0.30113,2.9762-1.512,0.61501-3.5705,2.8034-0.30113,2.977,1.2953,0.06851,1.1257,0.70662,0.10277,0.68033z" fill-rule="evenodd" stroke="#d40000" stroke-miterlimit="4" stroke-dasharray="none" stroke-width="0.80000001" fill="#ffcd50"/>
 <path d="m114.94,56.412c-3.2646-1.0133-5.2817,0.07966-7.071,1.8378-2.194,2.1557-4.0493,5.7812-7.4486,5.9947-2.7914,0.17606-5.018-1.9056-1.8928-3.5458,1.4571-0.76398,0.61979-1.4252-0.50268-0.72096-2.7627,1.7327-7.4566,2.6735-10.416,1.1503-1.5471-0.79664-2.7301-2.6058,0.17207-2.7604,0.64767-0.03426,0.92888-0.21111,0.92092-0.37601m26.238,8.2851c-3.2646,1.0133-5.2817-0.07966-7.071-1.8378-0.91057-0.89463-1.7622-2.0418-2.6903-3.0942m-8.136-0.824c0.06931,0.26926,0.24218,0.54809,0.53773,0.82373m-0.53773,0.82372c-0.66041-0.32264-1.3877-0.60226-2.1493-0.82373m-6.8121,0c-0.16172,0.06612-0.32104,0.13702-0.474,0.21589-1.5471,0.79664-2.7301,2.6058,0.17207,2.7604,0.64767,0.03426,0.92888,0.21111,0.92092,0.37601" stroke="#d40000" stroke-linecap="round" stroke-miterlimit="4" stroke-dasharray="none" stroke-width="1" fill="none"/>
 <path d="m34.226,62.763a13.939,13.939,0,1,1,-27.878,0,13.939,13.939,0,1,1,27.878,0z" transform="matrix(0.43045027,0,0,0.43045027,115.26737,34.328441)" fill="#FFF"/>
</svg>
