<!-- Created with Inkscape (http://www.inkscape.org/) -->
<svg xmlns:rdf="http://www.w3.org/1999/02/22-rdf-syntax-ns#" xmlns="http://www.w3.org/2000/svg" height="300" width="248" version="1.0" xmlns:cc="http://creativecommons.org/ns#" xmlns:dc="http://purl.org/dc/elements/1.1/">
 <metadata>
  <rdf:RDF>
   <cc:Work rdf:about="">
    <dc:title/>
    <dc:date>27-01-2008</dc:date>
    <dc:creator>
     <cc:Agent>
      <dc:title>Lokal_Profil</dc:title>
     </cc:Agent>
    </dc:creator>
    <cc:license rdf:resource="http://creativecommons.org/licenses/by-sa/2.5/"/>
    <dc:rights>
     <cc:Agent>
      <dc:title>cc-by-sa-2.5</dc:title>
     </cc:Agent>
    </dc:rights>
    <dc:format>image/svg+xml</dc:format>
    <dc:type rdf:resource="http://purl.org/dc/dcmitype/StillImage"/>
   </cc:Work>
   <cc:License rdf:about="http://creativecommons.org/licenses/by-sa/2.5/">
    <cc:permits rdf:resource="http://web.resource.org/cc/Reproduction"/>
    <cc:permits rdf:resource="http://web.resource.org/cc/Distribution"/>
    <cc:requires rdf:resource="http://web.resource.org/cc/Notice"/>
    <cc:requires rdf:resource="http://web.resource.org/cc/Attribution"/>
    <cc:permits rdf:resource="http://web.resource.org/cc/DerivativeWorks"/>
    <cc:requires rdf:resource="http://web.resource.org/cc/ShareAlike"/>
   </cc:License>
  </rdf:RDF>
 </metadata>
 <g transform="matrix(0.96001114,0,0,0.96001114,-203.89326,-351.38476)">
  <path fill="#800080" d="m388.09,524.8c-1.3977,0-2.5311,1.1334-2.5311,2.5311v2.5311h10.124v5.0622h-15.187v-7.5933c0.0143-4.13,3.4002-7.5933,7.5933-7.5933,1.3965,0.00095,2.5311-1.1334,2.5311-2.5311,0-1.3965-1.1346-2.5299-2.5311-2.5299h-7.5933l5.0622-5.0622h2.5311c4.1288,0.0143,7.5933,3.4002,7.5933,7.5921,0,4.1931-3.4014,7.5933-7.5933,7.5933zm58.213-15.185,0,25.31-5.0622,0,0-20.248zm-229.75-0.00095,5.0622,0,0,20.249,10.124,0,0,5.0622-15.186,0zm201.91-5.0622c-9.7827,0-17.716,7.935-17.716,17.718,0,9.7839,7.9338,17.718,17.716,17.718,9.7839,0,17.718-7.9338,17.718-17.718,0-9.7827-7.9338-17.718-17.718-17.718zm12.655,17.718c0,6.9885-5.667,12.655-12.655,12.655-6.9873,0-12.655-5.667-12.655-12.655,0-6.9873,5.6682-12.655,12.655-12.655,6.9885,0,12.655,5.6682,12.655,12.655zm-88.014-7.5921c2.7954,0,5.0622,2.2668,5.0622,5.0622v5.061c0,2.7954-2.2668,5.0622-5.0622,5.0622h-5.0622v-15.185zm0,20.248c5.5908,0,10.124-4.5336,10.124-10.124v-5.061c0-5.5908-4.5336-10.124-10.124-10.124h-10.13v25.31zm-20.249-25.31,5.0624,0,0,25.31-5.0624,0zm-86.054,0,15.186,0,0,5.0622-10.124,0,0,5.061,10.124,0,0,5.0622-10.124,0,0,5.0622,10.124,0,0,5.0622-15.186,0zm75.931,0,5.0621,0,0,25.31-5.0621,0-10.124-15.89,0,15.89-5.0621,0,0-25.31,5.0621,0,10.124,15.89zm-43.026,5.061,5.0608,0c4.1928,0,7.5933,3.4002,7.5933,7.5933s-3.4635,7.579-7.5933,7.5933h-5.0608v-5.0622h5.0608c1.3976,0,2.5311-1.1334,2.5311-2.5311s-1.1335-2.5311-2.5311-2.5311h-5.0608zm5.0608,25.311c9.7835,0,17.718-7.9338,17.718-17.718,0-9.7827-7.934-17.718-17.718-17.718-9.7834,0-17.718,7.935-17.718,17.718,0,9.7839,7.9341,17.718,17.718,17.718zm-12.66-17.74c0-6.9873,5.6672-12.655,12.655-12.655,6.9881,0,12.655,5.6682,12.655,12.655,0,6.9885-5.6672,12.655-12.655,12.655-6.9881,0-12.655-5.667-12.655-12.655zm196.85,2.5311-7.5933,0,0-5.0622,7.5933,0c1.3977,0.00096,2.5311-1.1334,2.5311-2.5311,0-1.3965-1.1334-2.5299-2.5311-2.5299h-7.5933l5.0622-5.0622h2.5311c4.13,0.0143,7.5933,3.4002,7.5933,7.5921,0,1.9454-0.73218,3.7193-1.9346,5.0634,1.2024,1.3429,1.9346,3.1168,1.9346,5.061,0,4.1931-3.4633,7.579-7.5933,7.5933h-7.5933v-5.0622h7.5933c1.3977,0,2.5311-1.1334,2.5311-2.5311s-1.1334-2.5311-2.5311-2.5311z"/>
 </g>
 <path d="m247.06,0.94368,0,215.09c0,82.54-84.912,44.076-123,82.912-38.092-38.83-123-0.37-123-82.91v-215.09h246z" stroke="#000" stroke-dasharray="none" stroke-miterlimit="4" stroke-width="2.00000620000000010" fill="#ffcd50"/>
 <path d="m33.319,80.827c-5.6063,3.5207-9.9765,3.9181-11.627-2.5577,1.9643,1.8843,4.8275,0.99364,5.8583-1.6229l1.1132-2.4523,4.6103,1.4599,1.0502,3.6508-1.0048,1.5223zm-14.081-24.244c-2.5942-0.35319-7.573,0.04415-6.5411,4.5161-3.3959-3.4118-3.476-5.7117-1.3298-7.1398,1.7153-1.0672,6.0036-2.8232,8.1893-3.0204l2.8267,0.16188-0.0324,5.551-3.1128-0.06887zm12.438-15.419c-0.0842-0.93713-0.24193-1.8348-0.90711-2.457-1.6735-2.0326-6.6388,0.9077-6.5758,3.4112-3.2794-2.8232,0.27843-5.8441,7.0114-8.838,1.5181-0.3061,2.6925,0.13539,3.5219,1.3245,0.72346,1.3398,1.4481,2.6801,2.1715,4.0187l1.0955,2.5954-5.1548,2.6525-1.1626-2.7072zm23.73,6.265c1.73-1.2156,3.3318-2.4082,4.0334-3.443,2.2039-2.3546-1.0555-5.8153-3.9928-9.2094-3.1169-2.3046-4.1712-0.79468-4.9317,1.2615,1.683-0.60219,2.6324,0.27372,3.4201,1.2762,1.3268,1.6959,0.50742,5.0477-3.9881,5.2054l-2.7219,1.8807,5.3379,4.7592,2.8432-1.7306zm5.4947,119.36c0.43239,6.6013-1.2943,10.632-7.773,9.0064,2.59-0.83108,3.1673-3.7725,1.3574-5.9222l-1.6299-2.144,3.4763-3.3602,3.7072,0.81172,0.86191,1.6084zm-28.007,0.86335c-1.5424,2.1139-3.5581,6.6809,0.86335,7.8963-4.6129,1.366-6.673,0.34419-6.9089-2.2208-0.12334-2.0157,0.37001-6.6214,1.2334-8.6363l1.4865-2.4079,4.866,2.6646-1.5403,2.7041zm-7.6497-18.26c-0.86335-0.37073-1.7267-0.6597-2.5908-0.37001-2.5829,0.50625-2.3556,6.2693-0.12334,7.403-4.0414,1.5431-5.008-3.0217-4.4422-10.364,0.45318-1.48,1.399-2.3025,2.8381-2.4674h4.5648l2.803,0.26889-0.11616,5.7932-2.9335-0.26316zm16.78-17.89c-0.24667-2.0988-0.53421-4.0736-1.1107-5.1822-1.0233-3.0569-5.6139-1.8343-9.9937-0.86335-3.5072,1.6457-2.6804,3.2899-1.2341,4.9348,0.27033-1.7661,1.4915-2.1849,2.7478-2.3993,2.1211-0.36283,4.6789,1.9497,2.6811,5.9775l0.36212,3.2885,6.7203-2.433-0.17281-3.3229zm11.773,110.67c-4.3375-0.85331-6.5239,1.503-5.7365,5.3271-6.3166-3.8291-3.021-9.9794,2.9708-11.781l2.3133-1.0161,3.5093,4.4831-0.97521,2.9242-2.0816,0.0624zm38.827-2.0487c0.39439,1.1172,0.68695,2.2631,1.1007,3.4512,0.43884,1.2584,0.20293,2.1892-0.51916,3.5911-0.74862,1.4528-1.5489,2.0953-3.5523,3.6119-0.71707,0.75149-4.1325,0.75149-5.3271,0.10255,3.9274-1.8106,3.9611-4.747,1.4341-6.8638l-1.6163-1.9067,4.093-5.6533,3.5086,0.78016,0.87841,2.8869zm-17.518,9.6295c-0.75148,3.0583-2.2537,5.8943-3.893,7.4783-1.7755-1.2972-3.4835-4.5068-3.7904-6.5561l-0.43311-3.6922,2.9242-2.9242,5.2633,1.9497-0.07099,3.7445zm-19.977-24.18c-1.9476-2.0243-4.7814-0.79093-6.4543,2.5606-1.6363-6.1682,0.88558-10.224,6.9663-8.1954l3.1615,0.33559-0.58513,5.4583-3.0884-0.15918zm88.428,26.109c-5.9459-1.7324-5.3737,2.8159-2.7872,5.1127-4.5462,1.2807-5.2489-3.5151-5.0008-9.8984,0.0445-1.153,0.84829-2.6094,2.0673-2.831,1.46-0.26675,3.2935-0.0609,5.3651,0.28109l2.5398,0.29399v4.8732l-2.1842,2.1684zm0.53924-11.905c-4.0708-1.3502-5.8513-0.0143-5.2353,3.8342h-0.008c-3.8277-4.2414-5.8391-11.13,4.0694-9.6252l3.0138,0.12764,0.19432,5.4583-2.0343,0.20508zm21.833,14.555c-0.89849,3.2798-3.1271,6.2062-5.0862,7.7479-1.6693-1.9891-3.6262-5.2633-4.0694-8.2169l0.0782-3.1802,5.8477-2.144,3.7036,2.7284-0.47398,3.0647zm18.938-5.5558c1.0813,4.8617,0.62027,11.338-7.043,10.095,2.3355-1.9791,3.2956-4.8438,0.3908-6.1037l-1.4807-1.5001,2.5341-4.2881,5.5988,1.797z" fill-rule="evenodd" stroke-miterlimit="4" stroke-width="0" fill="#d40000"/>
 <path d="m38.317,67.136c-1.4104,3.7521-3.0586,7.633-2.3999,10.267,0.29079,2.9374-0.7264,4.1453-3.0492,3.629-0.87768-2.7402-2.0732-5.0271-5.498-4.1376-1.6294-1.8272-1.5523-3.267,0.23076-4.3195,2.9739-3.0321,3.871-6.1585,4.8882-9.2807,0.63986-1.5876,0.1189-2.55-1.5588-2.8867-1.4652-0.41264-2.9315-0.82411-4.3966-1.2373-1.6476-0.29079-3.3506,0.0077-5.1077,0.8971-2.5995,0.0047-3.6043-0.85001-3.0168-2.5648,3.2134-2.7749,2.8049-5.1048,1.0254-6.7295,0.92536-1.71,2.0697-2.9274,4.7481-0.7005,1.5346,1.7724,3.8321,3.1334,6.2397,4.4349,1.5805,0.22016,2.948,0.13186,2.8226-2.1068-0.69755-2.4629-1.3415-5.0047-2.9032-6.2385-2.0832-1.9537-0.65988-3.5019,1.2638-4.9924,2.1715,0.34495,4.6015-0.48269,5.4933-3.2017,3.5619-0.12656,4.0488,2.7172,1.4634,8.5313-0.0753,1.2432-0.0783,2.4494,0.42795,3.38,1.5941,2.1109,3.32,0.2078,5.0653-2.271,0.4562-4.273,2.4641-6.0184,6.0254-5.2355-0.073,2.6425,1.7371,4.266,5.428,4.8729,0.77583,1.5976,0.0665,2.8738-2.1256,3.828-2.8656,0.80586-5.3196,2.3746-7.7143,4.0523-2.5377,1.9243-3.0822,4.0835-1.6294,6.4722,1.9096,3.7014,4.1312,7.2328,6.3351,10.775l4.1,6.9632-6.4075,4.4549-3.6738-5.5781c-2.352-3.516-4.522-7.129-6.075-11.076zm12.919,88.75c2.6295,3.0217,5.259,6.3138,7.8877,6.9871,2.7191,1.1394,3.2999,2.6072,1.7418,4.4049-2.826-0.52992-5.4045-0.56505-6.2492,2.8683-2.3807,0.56505-3.6097-0.18644-3.6879-2.2537-1.2541-4.0564-3.5782-6.3295-5.8391-8.7073-1.0928-1.3165-2.1856-1.3165-3.2784,0-1.0584,1.0921-2.1168,2.1849-3.1759,3.2777-1.0397,1.3101-1.5862,2.9493-1.6392,4.9176-1.2291,2.2874-2.4581,2.7657-3.6879,1.4341-0.91282-4.1432-3.1558-4.8918-5.4296-4.098-1.0634-1.6263-1.5905-3.211,1.6392-4.5075,2.2882-0.50768,4.5763-1.8823,6.8638-3.3802,0.94438-1.285,1.5166-2.5291-0.51198-3.4835-2.4983-0.55573-5.0374-1.1961-6.8638-0.40945-2.7084,0.90279-3.3939-1.0835-3.7904-3.4835,1.3352-1.7453,1.7633-4.2752-0.20508-6.3511,1.5804-3.1909,4.3124-2.2688,8.1953,2.7657,1.0591,0.65755,2.1175,1.2326,3.1759,1.229,2.6144-0.39869,1.7597-2.8209,0.41016-5.5314-3.5416-2.4308-4.1224-5.0259-1.7418-7.7859,2.2882,1.3187,4.5756,0.4998,6.8638-2.4588,1.7726,0.0782,2.5578,1.3072,2.3563,3.6879-0.65325,2.9027-0.44028,5.8054-0.10254,8.708,0.4876,3.1479,2.1268,4.6502,4.9176,4.5075,4.1611,0.0796,8.323-0.19647,12.483-0.45175l8.0706-0.2983,0.87339,7.75-6.6501,0.58082c-4.2085,0.39869-8.4169,0.59015-12.626,0.0817z" fill-rule="evenodd" stroke="#ffcd50" stroke-miterlimit="4" stroke-dasharray="none" stroke-width="1" fill="#d40000"/>
 <path d="m62.32,56.554c5.1729,4.9879,10.79,5.3572,18.653,4.0055,5.0553-0.86908,14.495,1.2204,20.713,3.7768v0.34276c-6.718-1.527-13.586-2.959-20.145-1.259-10.186,2.639-18.349,3.379-19.225-6.867z" stroke="#ffcd50" stroke-dasharray="none" stroke-miterlimit="4.50000000000000000" stroke-width="0.50000000000000000" fill="#d40000"/>
 <path d="m101.23,67.54c-4.8639,1.7195-9.7084,1.9877-13.961-2.4029-2.0099,3.3372-0.90135,6.0456,1.1444,8.4678l2.7679,3.4197,13.005-7.4991-2.9558-1.9856zm-21.859-26.893c-11.139-1.5876-15.714,2.7399-13.733,12.016,2.5943-3.2619,6.8716-3.0138,10.986,0,6.4744,4.7441,13.241,7.3112,21.972,6.0657l2.8353-0.8784-17.466-17.372-4.595,0.16851z" stroke-miterlimit="4.5" stroke-width="0" fill="#d40000"/>
 <path fill="#000" d="m188.72,15.75c-8.1958,6.591-16.398,12.748-24.594,18.906,0.0741-1.6897,0.14464-3.3727,0.21875-5.0625-9.6682,6.744-19.137,13.719-28.906,20.812-5.3041,3.8506-10.08,6.965-12.188,13.688-2.0587,6.5638-1.0358,14.5,8.0312,16.156-2.2606,3.5214-2.8065,7.2375-0.875,12.156-1.0094,4.6826-5.1279,11.591-9.4375,8.7812l-0.25-0.28125c-1.1244-5.1523-0.36991-9.7693-3.0938-18.688,1.3875,1.095,2.82,1.5837,4.5625,1.9688-1.5245-3.0016-1.2259-10.664-4.125-16.188,1.6063,1.0093,2.7317,2.4424,4.3125,3.125-0.50772-2.4669-0.43457-5.2375-1.0625-7.5-1.0204-3.6353-2.598-7.0479-4.7812-10.125,5.3565-2.4187,8.2393-4.9211,9.8125-11.188-11.887,3.1372-23.733-1.2868-35.656-4.5-2.3213-0.62542-4.3074-0.92107-5.9375-0.90625-3.5862,0.0326-5.4972,1.4737-5.6875,3.7188,3.9231,2.4,7.4125,6.1268,10.781,10.188,11.305,8.8923,21.534,19.527-4.5625,23.406-2.1576,0.32125-4.2637,1.1198-6.4062,0.84375,0.62241,1.3818,1.5129,2.4829,2.6875,3.3125-4.838,1.1401-8.8297,5.7583-13.875,6,1.2441,1.3818,2.7343,2.2239,4.5312,2.5-1.4055,1.1208-2.4742,2.2116-3.375,3.25-5.542-5.335-10.993-10.77-14.214-17.972-2.0167,2.3269-3.7765,4.9229-4.8438,8.25-5.8671-2.6972-9.6803-1.8035-12.094,1.5312,6.2374,1.7348,10.306,7.1161,14.188,12.812-1.2833,0.1507-2.7284-0.23529-4.2812-0.96875,1.906,6.6841,6.9946,8.3114,10.875,9.0938-0.86767,2.56-0.80143,4.9973,0.1875,7.3125,1.0201-2.301,2.7463-3.6016,4.4062-4.0938h0.125c-0.8153,2.3826-1.3775,4.5419-2.6875,6.3438,1.6406,0.11975,4.1108-0.26171,5.75-1.9375-3.4749,3.9403-3.0706,10.093-3.7812,15.969,1.1373-0.70273,2.269-1.7576,3.4062-3.5625-2.7758,5.3242-0.6273,9.7524,0,14.938,1.1392-2.2591,2.603-6.0112,4.875-4.75-0.55565,3.4118-0.15428,6.8704,1.1562,10.406-4.6472,0.70296-8.6674,0.12635-11.375-3.0312-2.6618,6.4636-1.1403,9.9849,4.5625,11.125-3.6119,1.4262-4.9508,4.2969-4,7.7188,5.0381-2.3764,10.083-1.0612,17.688-3.4375-0.76009,1.3309-1.1555,2.6698-1.1562,4,3.8033-2.3756,8.7452-0.58456,11.406-5.7188,3.1251,3.1251,6.2804,4.1392,9.4062,3,10.335,6.6364,30.542,2.3263,34.156,2.9688,0.40711,0.0724,0.78775,0.16782,1.1562,0.28125,0.59173,3.6093-1.5969,5.9356-6.6562,5.8438-16.77-0.30332-31.23,0.88429-37.531,10.188-1.9977,2.9514-2.0821,6.1009-5.0938,8.625,2.3362,1.1122,5.076,0.52103,7.9062-0.34375-2.1318,4.225-6.8474,7.053-9.2188,11.25,1.3089-0.0686,2.5133,0.0917,3.6875,0-0.10398,4.8796,0.90302,8.8921,2.6562,12.906,1.1459,2.6237,1.5241,3.1148-1.1562,5.1562-3.5223,2.6824-10.64,6.3116-16.844,10.781-5.6946-0.72596-8.7784-2.8578-9.9062-6-1.0089-3.3272-5.6025-3.0514-6.4688,0.40625,2.1512,2.015,2.1256,4.1493-0.0937,6.4375,0.32072,3.4441,3.3651,3.866,5.2188,2.5,1.359,0.4353,2.5382,1.6417,3.9062,2.8438l0.0312,0.0312c-2.8986,2.0805-5.8188,3.5077-8.7188,1.4688-4.245-1.4764-6.278-0.47675-6.0938,2.9688,3.7546,0.30547,5.1151,2.941,4.4375,7.1875,1.3538,3.0461,4.1133,3.3651,5.3438,0.75,1.3474-3.8234,5.1824-4.8207,9-5h0.1875c0.17148,2.4594-0.29252,4.7794-2.7812,6.625-2.8001,2.1519-2.1542,5.6734,1.875,6.0312,1.6657-3.6721,4.695-4.475,7.7812-1.2188,3.031-0.11115,4.1766-1.6497,2.5625-5.3125-1.5614-1.3044-2.3024-2.8235-2.5-4.4688,2.2444,0.39785,5.3562-1.1425,5.9375-3.6562,3.277-0.91856-1.5263,8.0772,4.4375,7.875,2.0121-3.4885,4.1255-6.2221,7.125-3.7812,2.7571-1.3445-0.73603-4.7384-0.5625-7.375,3.8908-0.75363,6.601-5.1946,7.4062-4-0.64966,2.106-0.57677,4.5815,0.25,6.6875,2.0099-2.8324,4.2801-4.9253,6.7812-6.2812,0.10827,0.80741,0.46232,1.6301,1.0625,2.4375,1.8357-3.2311,7.575-6.4165,4.25-16.438-3.7718-11.366-0.0131-15.873,8.2812-20.125-0.17926,2.3132,0.20355,4.4613,1.5,6.2812,2.8912-7.5672,8.4832-10.386,15.312-11.062h0.0625c-0.23596,5.5959,1.1176,11.117,6.5312,14.844-0.86908,1.8658-2.2776,2.8097-3.7812,3.4062,2.7973,1.9318,5.5777,2.2656,8.375,1-0.79952,3.1307,0.008,5.7168,2.4062,7.7812,0.20795-2.0157,1.0406-3.787,2.5938-4.375,3.1967,1.8651,6.3971,4.2568,9.5938,7.1875-1.8605,8.2174-4.3794,15.764-6.8125,19.062-4.0585,1.094-6.1258-0.72182-6.2812-5.4062-0.0631-1.8959-1.2362-3.2696-3.875-2.625-1.4234,0.34778-2.9127,0.69755-3.2812,2.25,1.7238,0.76152,1.8189,4.3918,1.375,7.8438-1.3577,0.29532-2.0781,1.4554-2.375,2.75,2.362,1.0247,3.4164,5.0876,1.1562,7.2188,0.70416,2.803,3.6448,2.6102,4.4688,0.8125,0.31622-0.69125,0.99516-0.95448,1.875-0.8125,1.678,0.27166,3.2869,0.0554,4.7812-0.6875l0.0312,0.0937c0.37215,1.5496,0.9033,3.0779,3,3.25,1.389-3.8334,7.8906-3.3784,8.9375,0.40625,4.1697-1.4463,3.8941-4.0406,1.5938-7.1562,0.9874-0.25456,1.8028-0.87268,2.75-1.5625,1.3352-0.97234,1.454,0.40266,1.8125,1.375,0.49525,1.3428,1.4656,2.5555,2.375,2.9062-0.01,2.1435,1.0888,3.8988,3.875,2.7188,1.2972-2.3348,2.4467-4.0557,6.4688-3.875,1.5352-2.243-0.23704-2.783-1.9688-3.5625-5.5558-2.5011-2.711-10.394-0.625-17.688,1.4578,1.3918,2.9172,2.7644,4.375,4.1562-0.19862-5.4339,1.8154-7.6828,1.2188-12.719,0.99386,1.3918,1.972,2.4034,3.5625,3,0.0667-4.904,3.3152-11.212-2.7812-13.531,1.3918-1.3251,3.5909-3.2345,4.1875-5.1562-3.6513-0.30404-7.3675,1.6377-9.9375-2,0.66329-0.86119,1.0548-1.9832,1.1875-3.375-6.9598,1.693-13.011-0.2204-12.531-6.75,0.52602-7.144,0.46197-14.529-1.25-22.062,2.3569,4.0107,4.5107,9.0927,7.4062,12.875,5.2088,6.8035,13.519,15.258,27.219,9.1875,4.2206-1.8701,8.5388-2.1669,12.812-1.5-0.60377-2.4136-1.8158-4.2314-3.625-5.4375,4.6803-7.3542,3.0911-13.761-0.28125-19.906-2.808-5.3092-5.5394-10.642-5.6562-16.25,1.4658-0.79137,2.4688-2.3403,2.4688-4.125,0-1.0544-0.34789-1.9988-0.9375-2.7812,2.5033-1.3058,5.0084-3.3852,6.8125-6.4062,1.759-3.4684,7.107-3.7721,9.2188,2.5625,5.0776-5.4805,4.0181-12.805-2.7188-14.312,2.5133-1.6837,4.5326-3.7658,5.4375-6.6562-2.6646,0.0366-5.3354,1.5364-8,2.7812,6.5203-4.3641,12.456-9.9071,8.4375-23.594l-4.0625,6.7812c1.4578-8.944-0.71901-14.417-6.5-17.344,0.52776,14.573-3.9363,25.603-11.438,35.312-6.5145,8.4327-8.7401,14.584-4.3438,20.469h0.0312c-0.79165,0.83761-1.2812,1.945-1.2812,3.1875,0,1.7254,0.94828,3.2175,2.3438,4.0312h-0.0625c0.033,4.7147,1.4454,9.4804,4.1875,13.469-4.7262-1.4083-8.8913,1.3808-9.3438,5.9062,11.412-6.536,16.231,7.4065,9.3438,14.156-9.9328,9.7327-21.075,5.0498-26.688-7.0938-4.9306-10.667-12.548-20.794-21.094-26.094,3.908,0.69672,8.3893,0.13993,13.719-2.4062-4.2876-4.0296-9.7101-7.9117-15.156-11.812,10.101,5.2414,21.626,8.0663,30.438-0.0312-5.7191-2.906-11.438-5.6772-17.219-8.1875,9.0193,0.16923,17.739-0.76806,24.25-9.375-10.146-2.4588-20.291-4.9162-30.438-7.375l-0.40625-0.1875c16.59,1.4816,29.497-1.9665,34.469-16.125-6.7122,1.6845-13.573,2.1988-20.438,2.9375,15.667-8.6852,28.343-19.686,31.156-33.875-3.964,2.292-7.9424,4.6144-11.906,6.9688l0.15625-0.2187c10.072-9.9493,15.732-20.185,17.969-30.594-5.8981,4.0569-11.79,8.2831-17.688,12.594l0.0625-0.15625c6.17-9.002,13.43-16.395,15.18-31.783-9.7327,7.8368-19.455,16.619-29.188,22.281l-0.1875,0.0625c3.2395-3.1544,5.85-6.285,7.375-9.4375-6.5323,4.9702-13.061,9.9406-19.594,14.906,8.7985-9.0047,14.822-20.564,16.312-31z"/>
 <path d="m209.57,141.4c2.5033-1.3058,5.0087-3.3802,6.8128-6.4012,1.759-3.4684,7.0882-3.7703,9.2,2.5642,5.0776-5.4805,4.022-12.82-2.7148-14.328,2.5133-1.6837,4.5247-3.7452,5.4296-6.6357-2.6646,0.0366-5.3292,1.5252-7.9938,2.77,6.5203-4.3641,12.465-9.8969,8.4463-23.584-1.3574,2.2623-2.7148,4.5247-4.0722,6.787,1.4578-8.944-0.70415-14.418-6.4851-17.344,0.52776,14.573-3.9611,25.583-11.462,35.292-6.5145,8.4327-8.7181,14.603-4.3218,20.488zm-53.477,98.098c-4.103,1.1322-6.2048-0.65755-6.3611-5.368-0.0631-1.8959-1.2169-3.2648-3.8557-2.6202-1.4234,0.34778-2.9328,0.67046-3.3014,2.2229,1.7238,0.76152,1.8357,4.415,1.3918,7.8669m15.859-93.027c8.546,5.2998,16.184,15.425,21.115,26.092,5.6125,12.144,16.763,16.822,26.696,7.0889,6.8874-6.7497,2.0608-20.713-9.3512-14.177,0.45246-4.5254,4.6251-7.2904,9.3512-5.8821-2.7421-3.9883-4.154-8.7547-4.187-13.469l4.5799,0.0975c0.11688,5.6082,2.8317,10.928,5.6397,16.237,3.3724,6.1453,4.9822,12.554,0.30188,19.909,1.8092,1.2061,3.016,3.016,3.6198,5.4296-4.2737-0.66687-8.5998-0.36212-12.82,1.508-13.7,6.0707-21.987-2.3878-27.196-9.1914-3.8607-5.0431-6.4608-12.397-9.9056-16.448m2.3405,2.9615c1.855,7.7529,1.9318,15.319,1.3911,22.662-0.47972,6.5296,5.5644,8.452,12.524,6.7591-0.13266,1.3918-0.52991,2.5183-1.1932,3.3795,2.57,3.6377,6.2887,1.6837,9.94,1.9877-0.5966,1.9217-2.7829,3.8435-4.1748,5.1686,6.0965,2.3197,2.8496,8.6141,2.7829,13.518-1.5904-0.59659-2.5843-1.5904-3.5782-2.9823,0.5966,5.036-1.3911,7.289-1.1925,12.723-1.4578-1.3918-2.9156-2.7829-4.3734-4.1748-2.086,7.294-4.96,15.191,0.59588,17.692,1.7317,0.77946,3.5237,1.3359,1.9884,3.5789-4.022-0.1807-5.1908,1.5266-6.488,3.8614-3.5029,1.4836-4.3296-1.6751-3.6506-4.4092m-20.674,2.4574c0.37215,1.5496,0.88557,3.087,2.9823,3.2591,1.389-3.8334,7.8985-3.3874,8.9454,0.39726,4.1697-1.4463,3.8908-4.0407,1.5904-7.1563,0.9874-0.25456,1.8192-0.87195,2.7664-1.5618,1.3352-0.97234,1.4348,0.40801,1.7934,1.3804,0.50697,1.3746,1.5367,2.6424,2.4631,2.9579m-10.396-35.593c-1.9992,11.226-5.629,22.756-8.8522,25.856-2.7564,2.6517-5.6569,2.8037-8.153,1.6306-3.4032-1.5998-5.0001,0.15775-5.4719,2.215,2.362,1.0247,3.4211,5.0904,1.1609,7.2216,0.70416,2.803,3.6441,2.6116,4.468,0.81387,0.31622-0.69125,0.99528-0.96875,1.8751-0.82677,3.7825,0.61237,7.3191-1.176,9.6151-6.1625m-17.64-73.89c-0.18644,5.6311-10.411,25.013,2.5972,33.967-0.86908,1.8658-2.2925,2.8002-3.7962,3.3967,2.7973,1.9318,5.5946,2.2645,8.3918,0.99888-0.79952,3.1307,0,5.7279,2.3979,7.7924,0.20795-2.0157,1.044-3.8076,2.5972-4.3956,3.1967,1.8651,6.3941,4.2622,9.5908,7.1929m-64.416-63.29c10.335,6.6364,30.56,2.3154,34.175,2.9579,7.7271,1.3739,8.5245,10.359,1.1975,17.936,1.8414,0.23304,3.6828,0.46609,5.5243,0.69914m-67.708,46.08c-5.7796-0.70918-8.9031-2.8776-10.04-6.0442-1.0089-3.3272-5.5874-3.0482-6.4536,0.40945,2.1512,2.015,2.1168,4.1662-0.10254,6.4543,0.39224,4.212,4.8789,3.9008,6.2492,1.3316m-1.1272,1.1265c1.4004,0.40801,2.5951,1.6385,3.9955,2.869m3.9955,5.634c0.4833,3.1092,0.52131,6.1144-2.5614,8.4004-2.8001,2.1519-2.1849,5.6863,1.8443,6.0442,1.6657-3.6721,4.6989-4.4852,7.7852-1.229,3.031-0.11115,4.1755-1.6643,2.5614-5.3271-2.5958-2.1684-2.9371-4.9004-2.2537-7.8884m58.217-76.46c0.73786,3.7524-1.4686,6.184-6.6443,6.09-16.77-0.30332-31.218,0.89203-37.519,10.195-1.9977,2.9514-2.1032,6.1065-5.1148,8.6306,2.3362,1.1122,5.1055,0.49549,7.9358-0.36929-2.1318,4.225-6.8566,7.061-9.2279,11.258,2.3384-0.12261,4.3067,0.49263,6.4593-0.92214m-2.7679,0.92214c-0.10398,4.8796,0.88773,8.8837,2.641,12.898,1.1459,2.6237,1.5367,3.1221-1.1437,5.1636-4.9528,3.7718-17.003,9.4215-23.645,16.637-3.0755,2.2824-6.151,4.0091-9.2279,1.8457-4.245-1.4764-6.275-0.49262-6.0908,2.9529,3.7546,0.30547,5.1077,2.9514,4.43,7.1979,1.3538,3.0461,4.1217,3.3537,5.3522,0.73858,1.3474-3.8234,5.1643-4.8043,8.982-4.9836m68.904-47.802c-6.8293,0.6762-12.427,3.5065-15.319,11.074-1.2964-1.8199-1.67-3.9783-1.4908-6.2915-8.2943,4.2522-12.045,8.774-8.2728,20.14,3.325,10.021-2.4237,13.197-4.2594,16.428-0.60018-0.80741-0.9537-1.6148-1.062-2.4222-2.5011,1.356-4.7563,3.4505-6.7662,6.2829-0.82678-2.106-0.91569-4.582-0.26603-6.6881-0.80526-1.1946-3.5186,3.2447-7.4094,3.9984-0.17353,2.6366,3.3444,6.0119,0.58728,7.3564-2.9995-2.4409-5.1342,0.3069-7.1463,3.7954-5.9638,0.20221-1.1423-8.802-4.4193-7.8834-0.58656,2.5363-3.7775,4.0894-6.0255,3.6527m22.345-94.001c4.6337,6.1854,10.141,8.5876,16.7,6.4235-1.3115-3.3724-2.4624-6.2628-3.6133-9.314m-2.3283-6.6637c2.4222,11.173,9.7284,17.597,19.911,15.817-1.204-4.5233-1.9268-9.1261-3.1307-13.328m-0.40156-0.81674c6.9355,14.152,15.483,14.475,24.433,11.312-3.016-5.0775-5.8821-9.8539-9.0486-14.931m9.3505-6.787c8.044,6.1338,17.445,12.116,24.131,18.401-16.391,7.8311-24.727-3.1637-33.181-11.614m16.863-14.06c10.733,3.7302,21.191,8.5209,31.612,13.816-9.0142,8.2836-20.865,5.1349-31.129-0.33558m7.7135-24.603c10.146,2.4588,20.294,4.9169,30.44,7.3757-6.511,8.6069-15.216,9.5355-24.235,9.3663m-3.4096-28.559c10.423-2.1254,21.02-1.9196,31.272-4.4924-5.0668,14.429-18.371,17.769-35.419,16.068m4.67-22.148c13.82-8.456,27.64-16.887,41.46-24.879-2.82,14.226-15.56,25.235-31.29,33.931m-9.4854-23.046c15.664-12.159,31.329-23.952,46.994-34.727-2.2372,10.409-7.897,20.631-17.969,30.581m-13.64-27.645c9.732-5.6627,19.465-14.451,29.198-22.288-1.7511,15.389-9.03,22.791-15.204,31.79m-68.314,41.327c-0.87482,4.6781-5.1227,12.001-9.5377,9.1225m43.164-66.478c0.0746-1.7002,0.14915-3.4003,0.22372-5.1005-9.6682,6.744-19.148,13.722-28.917,20.815-5.3041,3.8506-10.056,6.9663-12.164,13.689-2.0788,6.6278-1.0347,14.644,8.28,16.192m17.669-34.338c13.165-10.136,26.331-19.615,39.496-30.203-1.518,10.631-7.7206,22.427-16.789,31.501m-52.828,64.496c-0.1384-4.838-2.5571-8.224-2.9027-12.648,1.6586,1.1753,3.3172,2.3498,4.9764,3.5251-1.7826-5.9187-0.50123-10.509-3.5251-20.409,1.3875,1.095,2.8188,1.5718,4.5613,1.9569-1.5245-3.0016-1.2477-10.648-4.1468-16.172,1.6593,1.0426,2.9027,2.6732,4.5612,3.3171-0.48043-6.5819-2.4043-12.647-6.07-17.813,5.3565-2.4187,8.229-4.9456,9.8023-11.212-11.887,3.1372-23.737-1.2792-35.66-4.4924-7.4281-2.0013-11.334-0.43167-11.611,2.8338,3.9231,2.4,7.4123,6.0979,10.781,10.159,11.305,8.8923,21.536,19.549-4.5613,23.428-2.1577,0.32125-4.2845,1.1057-6.4271,0.82965,0.62241,1.3818,1.5209,2.4875,2.6955,3.3171-4.838,1.1401-8.8457,5.7709-13.891,6.0126,1.2441,1.3818,2.7643,2.2114,4.5613,2.4875-5.4597,4.354-6.151,8.0864-9.537,11.196,1.7274,0.4833,3.4555,0.27607,5.183-0.20723-5.188,5.6476-4.6753,10.848-7.3757,14.562,1.6406,0.11975,4.1095-0.2438,5.7487-1.9196-3.4749,3.9403-3.0805,10.092-3.7911,15.968,1.1373-0.70273,2.2738-1.7475,3.4111-3.5524-2.7758,5.3242-0.6303,9.7492-0.0029,14.934,1.1437-2.2681,2.6252-6.0535,4.9126-4.747m1.2441,10.781c-2.9027-7.4632-1.6586-14.651,3.7316-21.562m4.4415,19.012c-8.0362,2.6904-15.453,4.0708-19.677-0.85546-2.6617,6.4636-1.1401,9.9816,4.5627,11.122-3.6119,1.4262-4.9427,4.278-3.9919,7.6998,5.0381-2.3764,10.076-1.0455,17.681-3.4218-0.76009,1.3309-1.1401,2.6617-1.1409,3.9919,3.8033-2.3756,8.7461-0.56935,11.407-5.7035,3.2325,3.2325,6.4643,4.1834,9.6962,2.8518-1.9009-2.661-3.8019-5.3228-5.7035-7.9845,6.6214-3.282,11.548-8.4234,12.162-18.464h0.29543c1.7016,7.8038,7.1248,10.575,14.064,10.478-0.53062-3.5588,0.27392-4.8718,0.2854-6.559,3.5172,4.2773,7.7952,5.5135,12.833,3.7072-1.0813-1.6141-2.1282-3.325-1.9956-5.7036,4.1303,2.6202,8.2126,4.2386,13.118,0-1.1409-0.73571-2.2817-1.0641-3.4226-3.4218,3.5172,0.1936,7.0351,0.1011,10.552-1.9963-1.1659-1.1387-2.737-2.945-2.281-4.8481,2.9464,0.57007,5.8936,0,8.84-1.7109-1.546-1.8995-3.4978-4.4666-3.4218-7.1298,3.708-0.0882,7.322-0.36857,10.266-4.2773-2.091-1.0462-4.1819-2.4717-6.2736-4.278,4.3762-1.3258,8.4657-3.0339,10.552-7.4145-2.5671-0.38004-6.0843-1.4255-9.1261-2.5664,3.4233-1.8027,7.0358-3.6068,9.6962-7.6999-3.0425-1.1423-6.369-2.1878-9.4108-2.5671,4.0873-2.661,7.6991-5.8928,10.266-11.122-3.7072-2.2623-7.4145-3.0669-11.122-3.7072,1.8063-2.5664,2.4717-6.2743,2.8518-9.6962,12.215-9.9715,25.771-19.017,30.229-28.232-17.491,13.308-34.981,26.617-52.473,39.925-9.0379,7.6403-13.611,12.957-7.5801,23.911,2.2007,3.9955,1.1796,7.8404-1.7661,10.893-4.8689,5.0438-10.023,6.3704-15.464,3.9797m-51.629-4.4524c-1.66,0.49211-3.4159,1.8142-4.4361,4.1153-0.98893-2.3152-1.049-4.7528-0.1813-7.3128-3.8804-0.78232-8.9734-2.4335-10.879-9.1176,1.5529,0.73346,3.0045,1.1355,4.2877,0.98481-3.8816-5.6964-7.9474-11.083-14.185-12.818,2.4135-3.3347,6.2303-4.2195,12.097-1.5223,1.0672-3.3271,2.8314-5.9195,4.8481-8.2464,3.2458,7.2563,8.7497,12.698,14.34,18.07m81.116,32.191c6.047,3.7431,12.094,7.1986,18.141,10.021m-12.28-19.01c7.1405,2.8525,14.282,4.9248,21.424,6.3926m-14.34-16.759c6.2772-0.2015,12.554-0.71922,18.832-1.3818m-19.351-6.0477c9.0271-3.0203,17.694-8.7798,26.261-15.031m-27.816,3.4555c10.055-5.3787,19.612-12.78,29.199-20.041m-30.754,5.7014c8.926-6.0169,17.853-12.756,26.78-19.696m-44.81,80.003c5.1234,3.8169,10.885,8.1072,16.32,12.811m-26.694-8.3129c2.0293,3.6492,4.4487,7.2001,7.7271,10.537m-19.301-4.0901c0.65396,2.6646,1.3804,5.1758,2.8374,7.4388m-18.221-11.768c0.38793,3.8808,0.97736,7.6267,2.0071,11.08" stroke="#ffcd50" stroke-miterlimit="4.50000000000000000" stroke-dasharray="none" stroke-width="1.50000000000000000" fill="none"/>
 <path d="m84.363,44.061c2.6323-0.88701,5.4934-0.53852,7.5672,0.67834,1.148,0.67332,1.4908,2.5642,0.45892,3.5739-3.0081,2.945-8.5245,0.71778-8.0261-4.2522z" stroke="#ffcd50" stroke-dasharray="none" stroke-miterlimit="4.50000000000000000" stroke-width="1.50000000000000000" fill="#ffcd50"/>
 <path fill-rule="evenodd" fill="#000" d="m86.971,43.576c1.7948-0.08103,3.5437,0.33917,4.9399,1.153-0.02507,1.4714-1.171,2.6574-2.5822,2.6574-1.4255,0-2.5822-1.2118-2.5822-2.7055,0-0.39439,0.08031-0.76726,0.22444-1.105z"/>
 <path d="m205.83,139.53c2.5807,0,4.6753,2.0946,4.6753,4.6753s-2.0946,4.676-4.6753,4.676-4.676-2.0953-4.676-4.676,2.0953-4.6753,4.676-4.6753z" stroke="#ffcd50" stroke-miterlimit="4.50000000000000000" stroke-dasharray="none" stroke-width="1.50000000000000000" fill="#000"/>
</svg>
