<?xml version="1.0" encoding="UTF-8" standalone="no"?>
<!-- Created with Inkscape (http://www.inkscape.org/) -->

<svg
   xmlns:dc="http://purl.org/dc/elements/1.1/"
   xmlns:cc="http://creativecommons.org/ns#"
   xmlns:rdf="http://www.w3.org/1999/02/22-rdf-syntax-ns#"
   xmlns:svg="http://www.w3.org/2000/svg"
   xmlns="http://www.w3.org/2000/svg"
   version="1.0"
   width="248.00006"
   height="300.00006"
   id="svg4166">
  <defs
     id="defs4168" />
  <metadata
     id="metadata1880">
    <rdf:RDF>
      <cc:Work
         rdf:about="">
        <dc:title></dc:title>
        <dc:date>27-01-2008</dc:date>
        <dc:creator>
          <cc:Agent>
            <dc:title>Lokal_Profil</dc:title>
          </cc:Agent>
        </dc:creator>
        <cc:license
           rdf:resource="http://creativecommons.org/licenses/by-sa/2.5/" />
        <dc:rights>
          <cc:Agent>
            <dc:title>cc-by-sa-2.5</dc:title>
          </cc:Agent>
        </dc:rights>
        <dc:format>image/svg+xml</dc:format>
        <dc:type
           rdf:resource="http://purl.org/dc/dcmitype/StillImage" />
      </cc:Work>
      <cc:License
         rdf:about="http://creativecommons.org/licenses/by-sa/2.5/">
        <cc:permits
           rdf:resource="http://web.resource.org/cc/Reproduction" />
        <cc:permits
           rdf:resource="http://web.resource.org/cc/Distribution" />
        <cc:requires
           rdf:resource="http://web.resource.org/cc/Notice" />
        <cc:requires
           rdf:resource="http://web.resource.org/cc/Attribution" />
        <cc:permits
           rdf:resource="http://web.resource.org/cc/DerivativeWorks" />
        <cc:requires
           rdf:resource="http://web.resource.org/cc/ShareAlike" />
      </cc:License>
    </rdf:RDF>
  </metadata>
  <path
     d="m 236.71048,152.42992 -7.28954,0 0,-4.8597 7.28954,0 c 1.34179,0.001 2.42985,-1.08806 2.42985,-2.42985 0,-1.34065 -1.08806,-2.42871 -2.42985,-2.42871 l -7.28954,0 4.85969,-4.8597 2.42985,0 c 3.9648,0.0137 7.28955,3.26418 7.28955,7.28841 0,1.86753 -0.70289,3.57048 -1.85724,4.86084 1.15435,1.28921 1.85724,2.99217 1.85724,4.85855 0,4.02537 -3.32475,7.27584 -7.28955,7.28955 l -7.28954,0 0,-4.8597 7.28954,0 c 1.34179,0 2.42985,-1.08806 2.42985,-2.42985 0,-1.34178 -1.08806,-2.42984 -2.42985,-2.42984 z M 47.736988,150.00007 c 0,-6.70781 5.440531,-12.14925 12.149133,-12.14925 6.708603,0 12.149134,5.44144 12.149134,12.14925 0,6.70894 -5.440531,12.14924 -12.149134,12.14924 -6.708602,0 -12.149133,-5.4403 -12.149133,-12.14924 z m 12.149133,17.00894 c 9.392181,0 17.008833,-7.61642 17.008833,-17.00894 0,-9.39138 -7.616652,-17.00895 -17.008833,-17.00895 -9.392066,0 -17.008833,7.61757 -17.008833,17.00895 0,9.39252 7.616767,17.00894 17.008833,17.00894 z m -4.858327,-24.29849 4.858327,0 c 4.025139,0 7.289549,3.26418 7.289549,7.28955 0,4.02536 -3.324985,7.27583 -7.289549,7.28954 l -4.858327,0 0,-4.85969 4.858327,0 c 1.341675,0 2.42985,-1.08807 2.42985,-2.42985 0,-1.34179 -1.088175,-2.42985 -2.42985,-2.42985 l -4.858327,0 z m 41.304586,-4.85856 4.85958,0 0,24.29735 -4.85958,0 -9.719399,-15.25456 0,15.25456 -4.859585,0 0,-24.29735 4.859585,0 9.719399,15.25456 z m -72.89366,0 14.578983,0 0,4.8597 -9.719398,0 0,4.85856 9.719398,0 0,4.8597 -9.719398,0 0,4.85969 9.719398,0 0,4.8597 -14.578983,0 z m 82.61169,0 4.85992,0 0,24.29735 -4.85992,0 z m 19.43902,24.29735 c 5.36716,0 9.7194,-4.35224 9.7194,-9.71939 l 0,-4.85856 c 0,-5.36716 -4.35224,-9.7194 -9.7194,-9.7194 l -9.7194,0 0,24.29735 z m 0,-19.43765 c 2.68358,0 4.8597,2.17612 4.8597,4.8597 l 0,4.85856 c 0,2.68357 -2.17612,4.85969 -4.8597,4.85969 l -4.8597,0 0,-14.57795 z m 84.49385,7.28841 c 0,6.70894 -5.4403,12.14924 -12.14925,12.14924 -6.7078,0 -12.14924,-5.4403 -12.14924,-12.14924 0,-6.70781 5.44144,-12.14925 12.14924,-12.14925 6.70895,0 12.14925,5.44144 12.14925,12.14925 z m -12.14925,-17.00895 c -9.39138,0 -17.0078,7.61757 -17.0078,17.00895 0,9.39252 7.61642,17.00894 17.0078,17.00894 9.39253,0 17.00895,-7.61642 17.00895,-17.00894 0,-9.39138 -7.61642,-17.00895 -17.00895,-17.00895 z m -193.8340042,4.8597 4.8597107,0 0,19.43879 9.7192845,0 0,4.8597 -14.5789952,0 z m 220.5612142,0.001 0,24.29735 -4.8597,0 0,-19.43765 z m -55.88426,14.57796 c -1.34179,0 -2.42985,1.08806 -2.42985,2.42984 l 0,2.42985 9.7194,0 0,4.8597 -14.5791,0 c 0,-2.42985 0,-4.8597 0,-7.28955 0.0137,-3.96479 3.26418,-7.28954 7.28955,-7.28954 1.34065,0.001 2.42985,-1.08806 2.42985,-2.42985 0,-1.34065 -1.0892,-2.42871 -2.42985,-2.42871 l -7.28955,0 4.8597,-4.8597 2.42985,0 c 3.96365,0.0137 7.28955,3.26418 7.28955,7.28841 0,4.02536 -3.26533,7.28955 -7.28955,7.28955 z"
     id="path3027"
     style="fill:#800080;fill-opacity:1;stroke:none" />
  <path
     d="m 247.05637,0.94368471 0,215.08763529 c 0,82.54013 -84.91242,44.07633 -123.00055,82.91236 C 85.967715,260.10765 1.0563712,298.57145 1.0563712,216.03132 l 0,-215.08763529 245.9999988,0 z"
     id="path3053"
     style="fill:#d40000;fill-opacity:1;stroke:#000000;stroke-width:2.0000062;stroke-miterlimit:4;stroke-opacity:1;stroke-dasharray:none" />
  <g
     id="g4339">
    <path
       d="m 101.21563,67.425782 c -4.86697,1.72004 -9.71393,1.989053 -13.96988,-2.40464 -2.01083,3.33883 -0.90181,6.048981 1.14493,8.473047 l 2.77019,3.421243 13.01215,-7.50354 -2.95739,-1.98611 z M 79.34487,40.516762 c -11.14552,-1.58936 -15.72347,2.74076 -13.74029,12.023204 2.59535,-3.264072 6.87544,-3.015661 10.99188,0 6.4787,4.746296 13.24936,7.314582 21.98496,6.068996 l 2.83729,-0.879446 -17.47647,-17.381109 -4.59737,0.168355 z M 184.90361,248.76514 c 1.08194,4.86462 0.62102,11.34449 -7.04733,10.10066 2.33694,-1.98021 3.29761,-4.84695 0.39145,-6.10725 l -1.48223,-1.50106 2.53532,-4.29068 5.60279,1.79833 z m -18.94928,5.55923 c -0.89946,3.28173 -3.12927,6.20968 -5.09006,7.75194 -1.67001,-1.99023 -3.62728,-5.26548 -4.07112,-8.22169 l 0.0777,-3.18166 5.8512,-2.14564 3.70614,2.73017 -0.47386,3.06688 z m -22.38641,-2.65188 c -5.94891,-1.73358 -5.37675,2.81728 -2.78844,5.11538 -4.54851,1.28149 -5.25254,-3.5166 -5.00413,-9.90406 0.0447,-1.15317 0.84942,-2.61067 2.06911,-2.83259 1.46044,-0.26725 3.29469,-0.0613 5.36791,0.28078 l 2.54121,0.29434 0,4.87638 -2.18566,2.16977 z m 0.53979,-11.91195 c -4.07288,-1.35154 -5.85473,-0.0142 -5.23841,3.83624 l -0.008,5.9e-4 c -3.83035,-4.24476 -5.84295,-11.1367 4.0717,-9.63151 l 3.01508,0.12832 0.19543,5.46151 -2.03615,0.20485 z m -89.01998,-14.2124 c -1.94844,-2.02613 -4.78397,-0.79174 -6.45751,2.5624 -1.63763,-6.17259 0.88592,-10.23017 6.97022,-8.2005 l 3.16342,0.33611 -0.58513,5.46092 -3.091,-0.15893 z m -1.33271,16.60526 c -4.34012,-0.85413 -6.52755,1.50402 -5.73994,5.33024 -6.32035,-3.83152 -3.02331,-9.98529 2.97269,-11.78774 l 2.31457,-1.0166 3.51132,4.48552 -0.9754,2.92619 -2.08324,0.0623 z m 21.32154,7.58596 c -0.75171,3.05922 -2.25512,5.89711 -3.89511,7.48235 -1.77655,-1.29857 -3.4854,-4.50966 -3.79326,-6.56052 l -0.43266,-3.69438 2.9256,-2.9256 5.26607,1.95079 -0.0706,3.74736 z m 17.52828,-9.63563 c 0.39498,1.11784 0.68754,2.26395 1.10195,3.45302 0.43855,1.25913 0.2025,2.19037 -0.51978,3.59313 -0.74935,1.45338 -1.54992,2.09677 -3.55487,3.61373 -0.71756,0.75229 -4.13468,0.75229 -5.33023,0.10302 3.93042,-1.81129 3.96397,-4.74984 1.43513,-6.8678 l -1.61761,-1.90782 4.09583,-5.65635 3.5113,0.78055 0.87828,2.88852 z M 55.4056,47.429295 c 1.73004,-1.215566 3.33176,-2.408173 4.03344,-3.443023 2.20391,-2.354605 -1.05546,-5.815286 -3.99282,-9.20945 -3.11691,-2.304571 -4.17119,-0.79468 -4.93172,1.261479 1.68295,-0.60219 2.63244,0.273723 3.42006,1.276197 1.32682,1.695904 0.50742,5.047685 -3.98812,5.205444 l -2.72192,1.880741 5.33789,4.759247 2.84319,-1.730635 z M 31.67588,41.164278 c -0.0842,-0.937134 -0.24193,-1.834827 -0.90711,-2.457031 -1.67353,-2.032613 -6.63881,0.9077 -6.57582,3.411235 -3.27938,-2.823173 0.27843,-5.844131 7.01143,-8.838012 1.51813,-0.306099 2.69249,0.13539 3.52189,1.324465 0.72346,1.339771 1.44809,2.68013 2.17154,4.018723 l 1.09548,2.595364 -5.15482,2.652463 -1.16259,-2.707207 z m -12.4382,15.418545 c -2.59419,-0.35319 -7.573,0.04415 -6.54109,4.516134 -3.39593,-3.411823 -3.47599,-5.711684 -1.32976,-7.139753 1.71533,-1.067224 6.00365,-2.823172 8.18931,-3.02037 l 2.82671,0.161879 -0.0324,5.550983 -3.11278,-0.06887 z M 33.31881,80.82702 c -5.60631,3.520724 -9.97646,3.918063 -11.62705,-2.557691 1.96434,1.884274 4.82753,0.993644 5.85826,-1.622911 l 1.11315,-2.452323 4.61032,1.459856 1.05015,3.650816 -1.00483,1.522253 z m 8.65612,50.59458 c -0.24664,-2.09971 -0.5345,-4.07582 -1.11138,-5.18484 -1.02366,-3.05863 -5.61691,-1.83541 -9.99941,-0.86414 -3.50954,1.64647 -2.68249,3.29233 -1.235,4.9382 0.27079,-1.76772 1.49223,-2.18625 2.74901,-2.40111 2.12267,-0.3632 4.68213,1.95079 2.68306,5.98129 l 0.36262,3.28997 6.72357,-2.43408 -0.17247,-3.32529 z m -16.7901,17.90089 c -0.86355,-0.37143 -1.72769,-0.65988 -2.59243,-0.37026 -2.58418,0.50624 -2.35696,6.27327 -0.12361,7.407 -4.04345,1.54404 -5.01002,-3.02272 -4.44432,-10.36968 0.45326,-1.48163 1.39922,-2.30457 2.83965,-2.46939 1.52284,0 3.04509,0 4.56793,0 l 2.80376,0.26901 -0.11597,5.79645 -2.93501,-0.26313 z m 7.65423,18.27115 c -1.54286,2.11444 -3.56016,6.68473 0.86414,7.90088 -4.61561,1.36685 -6.67707,0.34437 -6.91312,-2.22216 -0.12362,-2.01671 0.37026,-6.62527 1.2344,-8.64139 l 1.48693,-2.40935 4.86874,2.66658 -1.54109,2.70544 z m 28.02392,-0.86414 c 0.43266,6.60526 -1.29561,10.63812 -7.77725,9.01226 2.59124,-0.83235 3.16871,-3.77503 1.35742,-5.92596 l -1.63056,-2.14563 3.47835,-3.36178 3.70968,0.81115 0.86236,1.60996 z"
       id="path3059"
       style="fill:#003d8f;fill-opacity:1;fill-rule:evenodd;stroke:#d20000;stroke-width:1;stroke-miterlimit:4;stroke-dasharray:none" />
    <path
       d="m 51.19203,155.82356 c 2.63127,3.02332 5.26255,6.318 7.89323,6.99082 2.72074,1.14023 3.30116,2.6095 1.74241,4.40783 -2.82788,-0.53038 -5.40736,-0.56511 -6.25266,2.87026 -2.38227,0.56511 -3.61255,-0.1866 -3.69026,-2.25512 -1.25441,-4.05935 -3.58017,-6.33331 -5.84295,-8.71263 -1.09312,-1.31741 -2.18684,-1.31741 -3.27996,0 -1.05899,1.09312 -2.11856,2.18625 -3.17755,3.27996 -1.04073,1.31093 -1.587,2.95091 -1.63998,4.91995 -1.23028,2.28927 -2.45997,2.76725 -3.69025,1.43513 -0.91359,-4.14528 -3.15753,-4.89463 -5.43267,-4.09995 -1.06486,-1.62704 -1.59229,-3.21345 1.63999,-4.51025 2.28927,-0.50801 4.57853,-1.8831 6.86779,-3.38298 0.94479,-1.28502 1.51755,-2.53003 -0.51271,-3.48481 -2.49941,-0.55628 -5.04003,-1.19732 -6.86779,-0.41029 -2.71016,0.90416 -3.39594,-1.0843 -3.79269,-3.48482 1.33624,-1.74653 1.76419,-4.27832 -0.20485,-6.35567 1.58112,-3.19226 4.31482,-2.26985 8.2005,2.76783 1.05898,0.65812 2.11797,1.23323 3.17754,1.23029 2.61538,-0.39911 1.76066,-2.82258 0.4103,-5.53568 -3.54428,-2.4323 -4.12468,-5.02885 -1.743,-7.79021 2.28926,1.31976 4.57853,0.49977 6.86779,-2.45998 1.77361,0.0777 2.55945,1.30799 2.35755,3.69026 -0.6534,2.90382 -0.43972,5.80822 -0.10243,8.71263 0.488,3.14988 2.12798,4.6527 4.92054,4.51025 4.16413,0.0801 8.32766,-0.19603 12.49119,-0.4515 l 8.07512,-0.29903 0.87355,7.7543 -6.65411,0.58159 c -4.21062,0.39852 -8.42183,0.59101 -12.63364,0.0818 z M 38.31704,67.136166 c -1.4104,3.752063 -3.05862,7.633042 -2.39992,10.266668 0.29079,2.937371 -0.7264,4.145283 -3.04922,3.629036 -0.87768,-2.740172 -2.07322,-5.027082 -5.498,-4.13763 -1.62939,-1.827174 -1.55227,-3.267015 0.23076,-4.319524 2.97386,-3.032144 3.87097,-6.158471 4.88815,-9.280678 0.63986,-1.587593 0.1189,-2.550038 -1.55875,-2.886747 -1.46515,-0.412644 -2.93148,-0.824111 -4.39663,-1.237344 -1.64764,-0.290794 -3.35061,0.0077 -5.10773,0.897105 -2.59949,0.0047 -3.60432,-0.850014 -3.01684,-2.564755 3.21344,-2.774902 2.80493,-5.104785 1.02543,-6.729462 0.92536,-1.710033 2.0697,-2.927364 4.74806,-0.700496 1.53461,1.77243 3.83212,3.133392 6.23971,4.4349 1.58053,0.220156 2.94796,0.131858 2.82258,-2.106784 -0.69755,-2.462917 -1.34154,-5.004714 -2.90323,-6.238527 -2.08324,-1.953734 -0.65988,-3.501887 1.26383,-4.992353 2.17154,0.344951 4.6015,-0.482694 5.4933,-3.201674 3.56193,-0.12656 4.04875,2.717215 1.46339,8.531324 -0.0753,1.243232 -0.0783,2.449378 0.42795,3.380036 1.59406,2.110904 3.31999,0.207795 5.06534,-2.271016 0.4562,-4.273021 2.4641,-6.018372 6.02544,-5.235466 -0.073,2.642456 1.73711,4.265956 5.42796,4.872856 0.77583,1.5976 0.0665,2.873796 -2.12563,3.828 -2.86555,0.805864 -5.31964,2.37462 -7.71427,4.052276 -2.53768,1.924302 -3.08218,4.083475 -1.62939,6.472222 1.90959,3.70144 4.13115,7.23276 6.33506,10.775264 l 4.09996,6.963158 -6.40747,4.454913 -3.67378,-5.57806 C 42.04027,74.696216 39.8705,71.083073 38.31704,67.136166 z"
       id="path3061"
       style="fill:#003d8f;fill-opacity:1;fill-rule:evenodd;stroke:#d20000;stroke-width:1;stroke-miterlimit:4;stroke-dasharray:none" />
    <path
       d="m 119.02763,110.68754 0,0 c -0.40146,-4.33365 -2.52237,-7.55593 -2.84436,-11.677667 1.65941,1.176127 3.3194,2.351657 4.97881,3.527197 -1.78303,-5.921832 -0.50094,-10.515078 -3.52662,-20.421492 1.38805,1.096068 2.82023,1.572876 4.56382,1.957854 -1.52519,-3.002711 -1.24853,-10.654002 -4.14881,-16.18085 1.6594,1.042503 2.90441,2.674833 4.67625,3.338243 -0.37262,-6.598783 -2.51237,-12.143878 -5.78409,-17.770208 5.18131,-1.853664 8.21992,-5.624564 9.62798,-11.235001 -4.50731,0.688134 -11.86545,0.349659 -16.93432,2.135039 -5.06064,-3.703795 -12.94033,-5.049452 -18.94281,-6.666477 -7.42702,-2.000826 -11.36745,-0.450319 -11.64352,2.814931 3.92453,2.401697 7.41642,6.101371 10.78704,10.16542 11.31152,8.896878 21.54816,19.559709 -4.56382,23.441864 -2.15976,0.320816 -4.28715,1.106077 -6.43102,0.82941 0.6222,1.383331 1.52167,2.489407 2.6972,3.319406 -4.84107,1.141394 -8.85154,5.774081 -13.89923,6.016017 1.24441,1.382742 2.76608,2.21274 4.56381,2.489407 -1.42453,1.135508 -2.52354,2.229223 -3.43124,3.279965 -5.52273,-5.310224 -10.93539,-10.709923 -14.14294,-17.880874 -2.01672,2.326938 -3.78091,4.919359 -4.84813,8.246417 -5.8671,-2.697201 -9.68391,-1.812458 -12.09738,1.522253 6.23735,1.734755 10.30316,7.121504 14.18473,12.817883 -1.28326,0.150695 -2.73487,-0.251353 -4.28773,-0.984813 1.90604,6.684136 6.99906,8.335306 10.87945,9.117626 -0.86767,2.56004 -0.80763,4.99765 0.1813,7.31281 0.85061,-1.919 2.43113,-3.53603 4.48023,-4.12821 -0.80116,2.35343 -1.35802,4.47905 -2.65482,6.26266 1.64116,0.12009 4.11174,-0.24311 5.75172,-1.92018 -3.47717,3.9422 -3.08219,10.09773 -3.79327,15.97659 1.13786,-0.70285 2.27572,-1.74889 3.41299,-3.55428 -2.77725,5.32729 -0.63044,9.75513 -0.002,14.94292 1.13845,-2.25866 2.61243,-6.02073 4.88404,-4.76572 -0.5551,3.40947 -0.17895,6.88191 1.12845,10.41559 -4.64623,0.70403 -8.65848,0.13422 -11.36333,-3.02037 -2.66306,6.4681 -1.14081,9.98765 4.56558,11.12845 -3.61373,1.4269 -4.94526,4.28068 -3.99459,7.70486 5.04121,-2.37814 10.08183,-1.04662 17.69133,-3.42418 -0.76054,1.33153 -1.1408,2.66306 -1.1414,3.99458 3.80505,-2.37755 8.75148,-0.5704 11.41396,-5.70696 3.03214,3.03214 6.0637,4.05757 9.09525,3.07629 0.77996,-0.25195 1.51459,-0.64517 2.2563,-0.99012 1.01366,2.77255 5.28373,6.67825 8.57253,6.87721 -0.0918,-0.97421 -0.073,-1.81363 0.008,-2.60065 9.91348,1.23263 21.06548,-0.86238 23.66025,-0.40147 0.41029,0.073 0.79881,0.16836 1.16966,0.28256 0.59042,3.6102 -1.63233,5.93183 -6.69297,5.84001 -16.7801,-0.30374 -31.2362,0.89239 -37.54124,10.20133 -1.99965,2.95267 -2.10443,6.1102 -5.11833,8.63552 2.33812,1.11313 5.10891,0.49563 7.94091,-0.36968 -2.13327,4.2277 -6.86073,7.06558 -9.23358,11.26502 1.31563,-0.0688 2.51353,0.0953 3.69378,5.8e-4 -0.1036,4.88228 0.88769,8.88806 2.64246,12.90443 1.1461,2.62597 1.53755,3.12396 -1.14434,5.16659 -3.53132,2.68896 -10.66813,6.33212 -16.8837,10.81647 -5.6899,-0.72758 -8.77267,-2.88734 -9.89994,-6.02956 -1.01012,-3.32823 -5.59101,-3.0498 -6.45809,0.41029 2.15269,2.01613 2.11855,4.16825 -0.10243,6.45751 0.3214,3.4489 3.38651,3.86626 5.24018,2.49588 1.35212,0.43973 2.52061,1.63704 3.88274,2.83435 l 0.0477,0.0377 c -2.90617,2.08794 -5.81234,3.51543 -8.7191,1.47104 -4.24713,-1.47752 -6.27856,-0.4927 -6.09372,2.95444 3.75618,0.30551 5.11008,2.95327 4.43196,7.20215 1.35449,3.04745 4.12467,3.35532 5.35495,0.73876 1.34861,-3.82506 5.16719,-4.80634 8.98753,-4.98588 l 0.19249,-0.0959 c 0.19014,2.49647 -0.2437,4.8499 -2.76666,6.72122 -2.80198,2.1527 -2.18625,5.68932 1.84484,6.04781 1.66764,-3.67437 4.70215,-4.48788 7.7908,-1.23028 3.03214,-0.11067 4.17707,-1.6653 2.5624,-5.33024 -1.56228,-1.30504 -2.30869,-2.81435 -2.50648,-4.4608 2.2457,0.3991 5.38851,-1.14964 5.97069,-3.66554 3.27879,-0.91888 -1.5458,8.09043 4.42195,7.88852 2.01319,-3.4907 4.1494,-6.24029 7.15094,-3.79798 2.75842,-1.34565 -0.76172,-4.72216 -0.58865,-7.36049 3.89333,-0.75466 6.60819,-5.19603 7.41406,-4.00048 -0.64987,2.10737 -0.5604,4.58442 0.26666,6.69179 2.01025,-2.83495 4.26713,-4.92996 6.77008,-6.2868 0.10772,0.80822 0.46209,1.61585 1.06252,2.42407 1.83658,-3.23346 7.58888,-6.41159 4.26124,-16.43809 -3.77326,-11.37274 -0.0212,-15.89712 8.2782,-20.15189 -0.17954,2.31399 0.19426,4.47375 1.49106,6.29504 2.89322,-7.57242 8.49482,-10.40383 15.32789,-11.08019 l 0.0494,9.9e-4 c -0.2384,5.60278 1.15082,11.14317 6.57053,14.87346 -0.86944,1.86719 -2.29397,2.80198 -3.79858,3.39887 2.79905,1.93254 5.59809,2.2663 8.39712,0.99953 -0.79998,3.13221 0,5.73169 2.39934,7.79728 0.20839,-2.01731 1.04486,-3.80976 2.59831,-4.39841 3.19932,1.86602 6.39805,4.26478 9.59678,7.19744 l 0.0212,0.02 c -1.85543,8.19933 -4.41195,15.72994 -6.83954,19.047 -4.06582,1.09901 -6.14847,-0.69697 -6.30505,-5.38675 -0.063,-1.89722 -1.21733,-3.26643 -3.85743,-2.62186 -1.42453,0.3479 -2.93501,0.67107 -3.30293,2.22393 1.71946,0.76053 1.83542,4.39605 1.3957,7.84142 -1.35802,0.29551 -2.1009,1.47163 -2.39758,2.76726 2.36343,1.02484 3.42242,5.09359 1.16141,7.22511 0.70461,2.8055 3.64611,2.6136 4.47021,0.81528 0.3173,-0.69226 0.99601,-0.9701 1.87663,-0.82764 1.67,0.27018 3.29173,0.0724 4.78044,-0.66107 l 0.0506,0.0665 c 0.37203,1.55051 0.88592,3.08866 2.98387,3.26113 1.38981,-3.83507 7.90324,-3.38946 8.95104,0.39793 4.17236,-1.44749 3.89275,-4.04345 1.59112,-7.16095 0.98776,-0.25488 1.82011,-0.87237 2.76784,-1.56227 1.33624,-0.97305 1.43572,0.40793 1.7948,1.38097 0.49153,1.3333 1.47457,2.56652 2.37992,2.92795 -0.006,2.13917 1.089,3.88687 3.87038,2.70839 1.29857,-2.33577 2.46763,-4.04404 6.49224,-3.86391 1.53638,-2.24335 -0.25725,-2.80021 -1.98965,-3.58018 -5.55922,-2.50294 -2.68365,-10.405 -0.5963,-17.70309 1.45868,1.39274 2.91736,2.7849 4.37604,4.17706 -0.19897,-5.43678 1.79008,-7.69073 1.19319,-12.73017 0.99482,1.39274 1.98905,2.38698 3.58077,2.98387 0.0659,-4.90641 3.3147,-11.20557 -2.78491,-13.52603 1.39216,-1.32564 3.58017,-3.24877 4.17707,-5.1713 -3.65376,-0.30433 -7.37463,1.65057 -9.94586,-1.98906 0.66341,-0.86178 1.06134,-1.98905 1.19379,-3.3818 -6.96374,1.69355 -13.01214,-0.22958 -12.53121,-6.76301 0.52449,-7.13329 0.46739,-14.47848 -1.23558,-22.00027 2.35225,4.00578 4.53144,9.05582 7.41289,12.81966 3.50129,4.57264 7.2981,8.76678 13.00683,10.4515 9.65919,2.85084 20.79765,-1.61349 25.0795,-11.46104 3.61903,-8.32294 -0.41618,-13.92042 -3.6673,-21.11316 -2.86379,-6.33566 -4.52849,-12.25395 -4.2324,-17.96211 0.4097,-7.90559 4.59089,-15.0995 9.25242,-21.23324 1.21145,1.8984 1.57053,4.71627 1.66294,7.98741 6.07253,-7.35991 6.24618,-19.29776 7.89676,-24.23596 -4.47611,2.65894 -16.10551,5.35614 -22.01439,12.8485 3.74265,-0.69991 6.9614,-0.91771 9.1347,0.4044 -8.13575,9.99824 -12.61657,21.8166 -10.25372,34.76869 1.39628,7.65189 9.36015,18.42421 6.1202,25.87594 -2.96327,6.81541 -10.81646,9.79693 -17.46174,7.62186 -5.24136,-1.71474 -8.93338,-6.70002 -11.15495,-11.50754 -4.93349,-10.67343 -12.57654,-20.80412 -21.12788,-26.10728 -1.03721,-1.77479 -2.13151,-3.53132 -3.28056,-5.26843 l -0.0889,-0.11597 c 5.20132,-2.73782 12.09031,-1.44455 18.05865,1.88369 -1.53402,-12.08619 2.24629,-22.80082 20.59632,-25.99838 -14.25242,-19.739246 -4.30068,-29.420795 10.85827,-35.844748 -29.42021,-15.548638 -4.36191,-46.449892 -0.008,-53.700311 l -26.40396,16.55582 c 0.71934,-11.954921 7.55358,-24.116459 9.32072,-28.38477 l -53.10932,46.262702 c -3.48245,3.033908 -9.27773,8.82094 -10.89299,14.387228 -2.18625,7.53356 3.79857,13.023324 10.45857,12.181552 3.87804,-0.490347 4.94232,2.303981 1.09195,4.274786 -3.30822,1.69355 -7.04439,7.402291 -6.92077,13.453041 -3.56664,0.41794 -7.14682,1.25265 -10.50272,2.49176 z"
       id="path3063"
       style="fill:#ffcd50;fill-opacity:1;fill-rule:evenodd;stroke:none" />
    <path
       d="m 129.53388,108.3712 c -0.20015,-6.1155 3.57664,-11.918429 6.91724,-13.628462 3.85037,-1.970805 2.78609,-4.765133 -1.09195,-4.274786 -6.66,0.841772 -12.64482,-4.647992 -10.45856,-12.181552 1.61526,-5.566287 7.41053,-11.353319 10.89299,-14.387228 L 188.90291,17.63647 c -1.77067,4.277141 -8.62846,16.476941 -9.32542,28.45482 M 167.69792,165.7135 c 3.44713,4.05286 6.04839,11.41218 9.91171,16.4581 3.50129,4.57264 7.2981,8.76678 13.00683,10.4515 9.65919,2.85084 20.79765,-1.6135 25.0795,-11.46104 3.61903,-8.32294 -0.41618,-13.92043 -3.6673,-21.11316 -2.86379,-6.33566 -4.52791,-12.25455 -4.2324,-17.96211 0.40912,-7.90559 4.59089,-15.0995 9.25242,-21.23324 1.21145,1.8984 1.57053,4.71627 1.66295,7.98741 6.07252,-7.35991 6.24617,-19.29776 7.89675,-24.23596 -4.47611,2.65894 -16.10551,5.35614 -22.01439,12.8485 3.74265,-0.69991 6.9614,-0.91771 9.1347,0.4044 -8.13575,9.99824 -12.61598,21.81719 -10.25372,34.76869 1.39569,7.6513 9.36015,18.42421 6.12021,25.87594 -2.96328,6.81541 -10.81647,9.79693 -17.46175,7.62186 -5.24136,-1.71474 -8.93338,-6.70003 -11.15495,-11.50754 -4.93349,-10.67343 -12.57654,-20.80412 -21.12788,-26.10728 -1.07605,-1.84013 -2.21215,-3.66142 -3.40829,-5.46151 m 13.59785,25.62871 c 1.85601,7.75783 1.93255,15.32906 1.39216,22.67544 -0.48093,6.53343 5.56747,8.45656 12.53121,6.76301 -0.13245,1.39275 -0.53038,2.52002 -1.19379,3.3818 2.57123,3.63963 6.2921,1.68473 9.94586,1.98906 -0.5969,1.92253 -2.78491,3.84566 -4.17707,5.1713 6.09961,2.32046 2.85084,8.61962 2.78491,13.52603 -1.59172,-0.59689 -2.58595,-1.59113 -3.58077,-2.98387 0.59689,5.03944 -1.39216,7.29339 -1.19319,12.73017 -1.45868,-1.39216 -2.91736,-2.78432 -4.37604,-4.17707 -2.08735,7.2981 -4.96292,15.20015 0.5963,17.7031 1.7324,0.77997 3.52603,1.33683 1.98965,3.58018 -4.02461,-0.18013 -5.19367,1.52814 -6.49224,3.86391 -3.50483,1.48457 -4.33189,-1.6759 -3.65258,-4.41195 m -33.53193,-77.03209 c -0.18602,5.63398 -10.41678,25.02828 2.59889,33.98697 -0.86944,1.86719 -2.29397,2.80198 -3.79857,3.39887 2.79904,1.93254 5.59808,2.2663 8.39711,0.99953 -0.79998,3.13221 0,5.73169 2.39934,7.79728 0.20839,-2.01732 1.04486,-3.80976 2.59831,-4.39841 3.19932,1.86602 6.39805,4.26478 9.59678,7.19744 m 1.20439,-5.82824 c -1.99965,11.23265 -5.63222,22.76904 -8.85686,25.87123 -2.75842,2.65305 -5.66047,2.80551 -8.15811,1.63174 -3.40594,-1.60054 -5.00295,0.15776 -5.47505,2.21628 2.36343,1.02484 3.42242,5.09359 1.16141,7.22511 0.70461,2.8055 3.64611,2.6136 4.47021,0.81528 0.3173,-0.69226 0.99601,-0.9701 1.87663,-0.82765 3.78503,0.61278 7.32341,-1.17672 9.62092,-6.16612 m -4.78986,5.57158 c 0.37203,1.55051 0.88592,3.08866 2.98387,3.26113 1.38981,-3.83507 7.90324,-3.38946 8.95104,0.39793 4.17236,-1.44749 3.89275,-4.04345 1.59112,-7.16095 0.98776,-0.25488 1.82011,-0.87237 2.76784,-1.56227 1.33624,-0.97305 1.43572,0.40793 1.7948,1.38097 0.50683,1.37509 1.53697,2.64364 2.46468,2.95974 M 156.1162,239.48859 c -4.10525,1.13256 -6.20792,-0.65812 -6.36509,-5.37086 -0.063,-1.89722 -1.21733,-3.26643 -3.85743,-2.62186 -1.42453,0.3479 -2.93501,0.67107 -3.30293,2.22393 1.72476,0.76231 1.83601,4.41783 1.39216,7.87203 M 86.83134,195.92367 c -0.1036,4.88227 0.88769,8.88864 2.64246,12.90501 1.1461,2.62597 1.53755,3.12396 -1.14434,5.16659 -4.95585,3.77385 -17.0132,9.42725 -23.65908,16.64706 -3.07805,2.28338 -6.15493,4.01166 -9.23358,1.8466 -4.24713,-1.47752 -6.27856,-0.4927 -6.09372,2.95444 3.75619,0.30551 5.11008,2.95327 4.43196,7.20215 1.35449,3.04745 4.12467,3.35532 5.35495,0.73876 1.34861,-3.82506 5.16719,-4.80634 8.98753,-4.98588 m 68.94403,-47.83028 c -6.83307,0.67636 -12.43467,3.50777 -15.32789,11.08019 -1.2968,-1.82129 -1.6706,-3.98105 -1.49106,-6.29504 -8.29939,4.25477 -12.05146,8.77915 -8.2782,20.15189 3.32764,10.0265 -2.42466,13.20463 -4.26124,16.43809 -0.60043,-0.80822 -0.9548,-1.61585 -1.06252,-2.42407 -2.50295,1.35684 -4.75983,3.45185 -6.77008,6.2868 -0.82706,-2.10737 -0.91653,-4.58442 -0.26666,-6.69179 -0.80587,-1.19555 -3.52073,3.24582 -7.41406,4.00048 -0.17307,2.63833 3.34707,6.01484 0.58865,7.36049 -3.00154,-2.44231 -5.13775,0.30728 -7.15094,3.79798 -5.96775,0.20191 -1.14316,-8.8074 -4.42195,-7.88852 -0.58689,2.53826 -3.77973,4.09172 -6.02956,3.65553 m 33.72679,-79.57566 c 9.92584,1.24558 21.11139,-0.85766 23.71028,-0.39558 7.73194,1.3745 8.53015,10.36557 1.1985,17.94681 1.84307,0.2331 3.68554,0.46621 5.52802,0.69931 m -5.60219,-18.61786 c 0.73875,3.75559 -1.46927,6.18791 -6.64764,6.09431 -16.7801,-0.30374 -31.2362,0.89239 -37.54124,10.20133 -1.99965,2.95267 -2.10443,6.1102 -5.11833,8.63552 2.33812,1.11313 5.10891,0.49563 7.94091,-0.36968 -2.13327,4.2277 -6.86073,7.06558 -9.23358,11.26502 2.33988,-0.12244 4.30951,0.49271 6.46339,-0.923 m -18.00979,29.82931 c -5.78292,-0.70873 -8.90866,-2.87909 -10.04534,-6.0478 -1.01012,-3.32823 -5.59101,-3.0498 -6.45809,0.41029 2.15269,2.01613 2.11856,4.16825 -0.10243,6.45751 0.39264,4.21474 4.88227,3.90334 6.25266,1.33271 m 6.86838,9.63563 c 0.48328,3.11043 0.52154,6.11726 -2.56298,8.40535 -2.80199,2.1527 -2.18626,5.68932 1.84483,6.04781 1.66764,-3.67437 4.70215,-4.48788 7.7908,-1.23028 3.03214,-0.11067 4.17707,-1.6653 2.5624,-5.33024 -2.59713,-2.16977 -2.93855,-4.90347 -2.25513,-7.89264 m 4.68861,-95.35152 c -8.04157,2.69249 -15.46269,4.07406 -19.68921,-0.8559 -2.66306,6.4681 -1.14081,9.98765 4.56558,11.12845 -3.61373,1.4269 -4.94526,4.28068 -3.99458,7.70486 5.0412,-2.37814 10.08182,-1.04662 17.69132,-3.42418 -0.76053,1.33153 -1.1408,2.66306 -1.1414,3.99458 3.80505,-2.37755 8.75149,-0.5704 11.41396,-5.70696 3.23405,3.23404 6.4681,4.1853 9.70156,2.85319 -1.90193,-2.66307 -1.83659,-5.77997 -3.73912,-8.44362 6.62528,-3.2835 9.58738,-7.97388 10.20133,-18.0198 M 63.07808,106.08664 c -1.65999,0.49211 -3.41594,1.81422 -4.43608,4.11526 -0.98893,-2.31516 -1.04897,-4.75277 -0.1813,-7.31281 -3.88039,-0.78232 -8.97341,-2.43349 -10.87945,-9.117626 1.55286,0.73346 3.00447,1.135508 4.28773,0.984813 -3.88157,-5.696379 -7.94738,-11.083128 -14.18473,-12.817883 2.41347,-3.334711 6.23028,-4.219454 12.09738,-1.522253 1.06722,-3.327058 2.83141,-5.919479 4.84813,-8.246417 3.24582,7.256306 8.74971,12.698387 14.34013,18.07042 m 50.06598,20.533336 c -0.38085,-4.37662 -2.52826,-7.6142 -2.8526,-11.763607 1.65941,1.176127 3.3194,2.351657 4.97881,3.527197 -1.78303,-5.921832 -0.50094,-10.515078 -3.52662,-20.421492 1.38805,1.096068 2.82023,1.572876 4.56382,1.957854 -1.52519,-3.002711 -1.24853,-10.654002 -4.14881,-16.18085 1.6594,1.042503 2.90441,2.674833 4.67625,3.338243 -0.37733,-6.682371 -2.56652,-12.284566 -5.90889,-17.983889 M 70.75174,133.03215 c -2.28926,-1.30739 -3.77149,2.48 -4.91524,4.74925 -0.62809,-5.18779 -2.7749,-9.61563 0.002,-14.94292 -1.13727,1.80539 -2.27513,2.85143 -3.41299,3.55428 0.71108,-5.87886 0.3161,-12.03439 3.79327,-15.97659 -1.63998,1.67707 -4.11056,2.04027 -5.75171,1.92018 2.70191,-3.71616 2.1886,-8.91924 7.37992,-14.570886 -1.72888,0.483871 -3.45774,0.691665 -5.18602,0.207204 3.38827,-3.11161 4.07994,-6.845426 9.54263,-11.202035 -1.79774,-0.276667 -3.31941,-1.106665 -4.56382,-2.489407 5.04769,-0.241936 9.05817,-4.874623 13.89923,-6.016017 -1.17553,-0.829999 -2.07499,-1.936075 -2.6972,-3.319406 2.14387,0.276667 4.27126,-0.508594 6.43102,-0.82941 26.11199,-3.882155 15.87534,-14.544986 4.56382,-23.441864 -3.37062,-4.064049 -6.86251,-7.763723 -10.78704,-10.16542 0.27608,-3.26525 4.21651,-4.815757 11.64353,-2.814931 6.11079,1.645869 14.16824,3.010952 19.21534,6.868973 M 71.9958,143.81978 c -2.9044,-7.46822 -1.65941,-14.66036 3.73441,-21.57525 M 60.11034,228.11054 c 1.40099,0.40794 2.59654,1.63881 3.99753,2.86967 M 135.94748,77.039637 c -1.96963,-3.112789 4.40487,-8.139871 6.42454,-10.151294 l 37.59929,-37.451178 m -67.8562,26.716532 c 0.78408,-1.329175 2.38109,-1.913118 4.10172,-2.449968 5.62574,-1.755358 8.88099,-5.611024 10.35379,-11.478113 -6.33153,0.966566 -18.28881,-0.09477 -21.62176,5.553926 m 17.53888,-2.674832 c -3.69851,1.219685 -10.8983,0.144219 -14.23713,5.101842 1.03426,0.754062 2.06852,2.155641 2.77902,3.233462 m 8.81801,84.143006 c 14.47257,1.67942 22.25336,9.97352 28.89865,19.19004 2.16566,-17.18804 15.38088,-17.57066 25.79353,-11.7642 -1.53402,-12.08619 2.24629,-22.80083 20.59632,-25.99838 C 180.88372,99.271233 190.83546,89.589684 205.99441,83.165731 176.5742,67.617094 201.6325,36.71584 205.98641,29.46542 l -57.11449,35.811785 c -3.76619,2.781966 -10.56688,7.411121 -12.99212,12.707805 -3.28173,7.168009 1.55345,10.413832 8.28586,9.984706 3.97752,-0.253121 4.26949,3.385923 0.96421,5.04533 -5.02708,2.524137 -7.82141,8.844484 -8.97105,14.887584 -7.68543,-0.24017 -16.17614,1.6129 -22.85086,5.43561 m -14.67036,43.68028 1.73475,-0.8247 c 1.01366,2.77255 5.28373,6.67825 8.57253,6.87721 -0.45326,-4.79809 1.79656,-6.30739 0.80645,-14.46964 1.06429,1.8731 4.37486,2.92796 6.65471,3.16636 -1.6912,-3.23228 -1.19673,-10.64046 -2.20745,-15.75408 1.6959,1.54463 3.66377,1.33801 5.79645,2.15153 -0.58924,-3.62845 0.488,-11.43397 -4.83989,-14.62328 14.22653,-6.35155 17.58596,-4.48906 20.22489,2.46763 l 7.3499,19.37546 m 6.00012,11.27443 -6.63468,-31.47283 c -2.27809,-10.80823 1.39333,-12.02968 8.14163,-4.49788 l 15.56983,17.37758 m 8.65435,6.84013 -20.53628,-30.13896 c -4.78338,-7.01967 -3.40888,-11.44515 6.5146,-7.49706 l 25.3026,10.06888 m 9.31658,1.65705 -31.70594,-17.89264 c -6.53874,-3.689672 -8.99401,-8.199919 0.9289,-9.740419 l 28.90336,-4.48729 m 12.74313,-3.69673 -47.85147,1.764776 c -0.85295,-4.581473 -4.76042,-4.571467 -8.24819,-4.836948 -5.74111,-0.437957 -0.0736,-6.365087 2.58183,-8.338835 l 42.9998,-31.950232"
       id="path3065"
       style="fill:none;stroke:#d20000;stroke-width:1;stroke-miterlimit:4;stroke-dasharray:none" />
    <path
       d="m 84.33958,43.932705 c 2.63363,-0.887686 5.49624,-0.539204 7.57182,0.678715 1.14846,0.673417 1.49106,2.565343 0.45857,3.576057 -3.00978,2.946789 -8.52898,0.718155 -8.03039,-4.254772 z"
       id="path3067"
       style="fill:#ffcd50;fill-opacity:1;fill-rule:evenodd;stroke:#d20000;stroke-width:1;stroke-miterlimit:4;stroke-dasharray:none" />
    <path
       d="m 86.94966,43.447068 c 1.79597,-0.08182 3.54604,0.339652 4.94291,1.153168 -0.0253,1.472806 -1.17201,2.658938 -2.5836,2.658938 -1.42689,0 -2.58359,-1.212033 -2.58359,-2.707207 0,-0.393808 0.0795,-0.767602 0.22428,-1.104899 z"
       id="path3069"
       style="fill:#d20000;fill-rule:evenodd;stroke:none" />
  </g>
  <path
     d="m 101.82362,64.562535 0,-0.343773 c -10.602145,-5.00648 -15.915288,-4.521431 -25.862857,-2.366378 -3.576622,0.775254 -6.918385,0.779374 -10.017619,-2.186251 0.961855,-0.617496 1.9549,-0.48917 3.155154,-0.133624 -2.786656,-2.727222 -7.640651,-3.210505 -9.593791,-4.053454 0.927125,1.914295 1.623491,6.743002 4.469607,9.407827 -0.407928,-1.183778 -0.579817,-2.170947 -0.005,-3.158704 5.087104,4.76219 10.284868,3.61432 16.411526,1.89899 7.145594,-2.000238 11.757071,-1.725337 21.44328,0.935367 z"
     id="path3072-7"
     style="fill:#003d8f;fill-opacity:1;fill-rule:evenodd;stroke:#d40000;stroke-width:0.49999872;stroke-miterlimit:7;stroke-opacity:1;stroke-dasharray:none" />
  <g
     transform="matrix(0.99999492,0,0,1,271.42159,2.3899016)"
     id="g4292">
    <path
       d="m -42.745637,6.6145383 1.245586,7.8384817 7.840248,-1.237345 -7.070292,3.607256 3.599604,7.074412 -5.615146,-5.609259 -5.615734,5.609259 3.599603,-7.074412 -7.069703,-3.607256 7.839659,1.237345 1.246175,-7.8384817 z"
       id="path3094-5"
       style="fill:#ffffff;fill-rule:evenodd;stroke:#d40000;stroke-width:0.75;stroke-linejoin:round;stroke-miterlimit:4;stroke-opacity:1;stroke-dasharray:none" />
    <path
       d="m -44.844179,13.280427 -6.547569,-4.6809563 c -0.03355,-2.294563 -0.95597,-4.9164163 -1.546388,-6.4592716 1.285026,1.0383811 3.493646,2.7254559 5.665181,3.466568 l 2.428776,7.6736599 z"
       id="path3096-1"
       style="fill:#ffffff;fill-rule:evenodd;stroke:#d40000;stroke-width:0.75;stroke-linejoin:round;stroke-miterlimit:4;stroke-opacity:1;stroke-dasharray:none" />
    <path
       d="m -46.140389,17.271483 -6.475754,4.780438 c -2.192138,-0.676949 -4.971161,-0.609843 -6.620562,-0.525077 1.383919,-0.901226 3.672007,-2.480577 5.047685,-4.31717 l 8.048631,0.06181 z"
       id="path3098"
       style="fill:#ffffff;fill-rule:evenodd;stroke:#d40000;stroke-width:0.75;stroke-linejoin:round;stroke-miterlimit:4;stroke-opacity:1;stroke-dasharray:none" />
    <path
       d="m -42.746226,19.737344 -2.545328,7.635985 c 1.320933,1.876032 2.116202,4.53968 2.545328,6.134925 0.429716,-1.595245 1.224395,-4.258893 2.545918,-6.134925 l -2.545918,-7.635985 z"
       id="path3100-7"
       style="fill:#ffffff;fill-rule:evenodd;stroke:#d40000;stroke-width:0.75;stroke-linejoin:round;stroke-miterlimit:4;stroke-opacity:1;stroke-dasharray:none" />
    <path
       d="m -39.351473,17.271483 6.475754,4.780438 c 2.192137,-0.676949 4.971161,-0.609843 6.62115,-0.525077 -1.384508,-0.901226 -3.672596,-2.480577 -5.048274,-4.31717 l -8.04863,0.06181 z"
       id="path3102-1"
       style="fill:#ffffff;fill-rule:evenodd;stroke:#d40000;stroke-width:0.75;stroke-linejoin:round;stroke-miterlimit:4;stroke-opacity:1;stroke-dasharray:none" />
    <path
       d="m -40.647683,13.280427 6.547569,-4.6809563 c 0.03355,-2.294563 0.95597,-4.9164163 1.546387,-6.4592716 -1.285026,1.0383811 -3.493646,2.7254559 -5.665181,3.466568 l -2.428775,7.6736599 z"
       id="path3104-1"
       style="fill:#ffffff;fill-rule:evenodd;stroke:#d40000;stroke-width:0.75;stroke-linejoin:round;stroke-miterlimit:4;stroke-opacity:1;stroke-dasharray:none" />
    <path
       d="m -42.801559,7.9348833 c -0.15717,3.2829087 -0.591594,4.9105297 -0.968331,6.8907527 -1.395693,-1.825996 -2.520606,-3.062164 -4.649758,-6.4657464 -0.589828,-0.8788565 -0.483871,-2.1014854 -0.237226,-3.3959298 0.612786,-1.6187913 1.868968,-2.1897831 3.467156,-1.8931028 0.835885,0.2278081 1.438664,0.5556869 2.388159,0.5556869 0.949495,0 1.552862,-0.3278788 2.388159,-0.5556869 1.598777,-0.2966803 2.85437,0.2743115 3.467156,1.8931028 0.246645,1.2944444 0.352603,2.5170733 -0.236637,3.3959298 -2.129741,3.4035824 -3.254065,4.6397504 -4.650346,6.4657464 -0.376737,-1.980223 -0.811162,-3.607844 -0.968332,-6.8907527 z"
       id="path3106-5"
       style="fill:#ffffff;fill-rule:evenodd;stroke:#d40000;stroke-width:0.75;stroke-linejoin:round;stroke-miterlimit:4;stroke-opacity:1;stroke-dasharray:none" />
    <path
       d="m -50.593537,13.676589 c 3.073937,1.164352 4.487289,2.080294 6.254421,3.050391 -2.168003,0.763481 -3.691433,1.451026 -7.586539,2.424655 -1.017778,0.289028 -2.147989,-0.189545 -3.302334,-0.824112 -1.350955,-1.083118 -1.505771,-2.454087 -0.72934,-3.882744 0.475042,-0.724041 0.973041,-1.196728 1.26619,-2.099131 0.293737,-0.902991 0.168354,-1.578174 0.210148,-2.4429031 0.211326,-1.6123161 1.142572,-2.6300944 2.871442,-2.7130942 1.307394,0.1659997 2.502945,0.4426658 3.156348,1.2750189 2.579471,3.0768804 3.407114,4.5284954 4.712155,6.4204204 -1.999649,-0.253709 -3.681426,-0.343184 -6.852491,-1.208501 z"
       id="path3108-2"
       style="fill:#ffffff;fill-rule:evenodd;stroke:#d40000;stroke-width:0.75;stroke-linejoin:round;stroke-miterlimit:4;stroke-opacity:1;stroke-dasharray:none" />
    <path
       d="m -47.540202,22.861905 c 2.056747,-2.563577 3.364731,-3.624915 4.833416,-5.005303 0.05592,2.296918 0.239581,3.958681 -0.03826,7.963865 -0.04003,1.057806 -0.844126,1.984344 -1.804217,2.886158 -1.447494,0.950083 -2.799037,0.673417 -3.918063,-0.506241 -0.542148,-0.675183 -0.837651,-1.295033 -1.605253,-1.853074 -0.76819,-0.558042 -1.448671,-0.647517 -2.258655,-0.954204 -1.468097,-0.699907 -2.148578,-1.899578 -1.692373,-3.569582 0.560985,-1.192019 1.193785,-2.24335 2.187429,-2.607726 3.72322,-1.502238 5.360259,-1.841301 7.562404,-2.497647 -0.858842,1.823053 -1.463976,3.395341 -3.266426,6.143754 z"
       id="path3110-7"
       style="fill:#ffffff;fill-rule:evenodd;stroke:#d40000;stroke-width:0.75;stroke-linejoin:round;stroke-miterlimit:4;stroke-opacity:1;stroke-dasharray:none" />
    <path
       d="m -37.861596,22.796565 c -1.802451,-2.748414 -2.407585,-4.320701 -3.267016,-6.143755 2.202734,0.656347 3.839185,0.99541 7.562993,2.497648 0.993055,0.364375 1.625855,1.415707 2.187429,2.607726 0.455616,1.670004 -0.224865,2.870264 -1.692373,3.569582 -0.809984,0.306687 -1.490465,0.396162 -2.258655,0.954204 -0.76819,0.558041 -1.063693,1.177891 -1.605253,1.853074 -1.119026,1.179657 -2.470569,1.456324 -3.918063,0.506829 -0.960091,-0.902403 -1.764777,-1.82894 -1.804217,-2.886746 -0.277843,-4.005184 -0.09477,-5.666359 -0.03826,-7.963865 1.468685,1.380388 2.776669,2.441726 4.833417,5.005303 z"
       id="path3112-6"
       style="fill:#ffffff;fill-rule:evenodd;stroke:#d40000;stroke-width:0.75;stroke-linejoin:round;stroke-miterlimit:4;stroke-opacity:1;stroke-dasharray:none" />
    <path
       d="m -34.932467,13.57122 c -3.171065,0.865318 -4.853431,0.954793 -6.85308,1.208502 1.305041,-1.891926 2.133273,-3.34354 4.712743,-6.4210097 0.653403,-0.8317644 1.848954,-1.1090192 3.15576,-1.2744302 1.729458,0.082411 2.660705,1.1007781 2.872031,2.7125055 0.04179,0.8653174 -0.08359,1.5399124 0.209559,2.4429034 0.293737,0.902991 0.791736,1.375678 1.26619,2.099719 0.776431,1.428657 0.621615,2.799626 -0.728751,3.882745 -1.154345,0.633977 -2.284556,1.11314 -3.302334,0.824112 -3.895695,-0.97363 -5.419125,-1.661174 -7.586539,-2.424655 1.767131,-0.970098 3.180483,-1.886628 6.254421,-3.050392 z"
       id="path3114-1"
       style="fill:#ffffff;fill-rule:evenodd;stroke:#d40000;stroke-width:0.75;stroke-linejoin:round;stroke-miterlimit:4;stroke-opacity:1;stroke-dasharray:none" />
    <path
       d="m -42.745637,11.746401 c 2.440549,0 4.421361,1.980812 4.421361,4.421949 0,2.440549 -1.980812,4.421949 -4.421361,4.421949 -2.441137,0 -4.421949,-1.9814 -4.421949,-4.421949 0,-2.441137 1.980812,-4.421949 4.421949,-4.421949 z"
       id="path3116-4"
       style="fill:#ffffff;fill-rule:evenodd;stroke:#d40000;stroke-width:0.75;stroke-linejoin:round;stroke-miterlimit:4;stroke-opacity:1;stroke-dasharray:none" />
  </g>
  <g
     transform="matrix(0.99999492,0,0,1,277.51926,18.143875)"
     id="g4318">
    <path
       d="m -52.842774,194.82404 1.245586,7.83849 7.839659,-1.23735 -7.069703,3.60726 3.599603,7.07382 -5.615734,-5.60926 -5.615734,5.60926 3.599603,-7.07382 -7.069703,-3.60726 7.840248,1.23735 1.246175,-7.83849 z"
       id="path3120-2"
       style="fill:#ffffff;fill-rule:evenodd;stroke:#d40000;stroke-width:0.75;stroke-linejoin:round;stroke-miterlimit:4;stroke-opacity:1;stroke-dasharray:none" />
    <path
       d="m -54.941316,201.48993 -6.54757,-4.68154 c -0.03355,-2.29398 -0.955969,-4.91642 -1.546387,-6.45927 1.285026,1.03838 3.493646,2.72604 5.665181,3.46715 l 2.428776,7.67366 z"
       id="path3122-3"
       style="fill:#ffffff;fill-rule:evenodd;stroke:#d40000;stroke-width:0.75;stroke-linejoin:round;stroke-miterlimit:4;stroke-opacity:1;stroke-dasharray:none" />
    <path
       d="m -56.238115,205.4804 -6.475165,4.78044 c -2.192138,-0.67636 -4.971161,-0.60985 -6.621151,-0.52508 1.384508,-0.90122 3.672007,-2.48058 5.047685,-4.31658 l 8.048631,0.0612 z"
       id="path3124-2"
       style="fill:#ffffff;fill-rule:evenodd;stroke:#d40000;stroke-width:0.75;stroke-linejoin:round;stroke-miterlimit:4;stroke-opacity:1;stroke-dasharray:none" />
    <path
       d="m -52.843363,207.94685 -2.545328,7.63598 c 1.320933,1.87545 2.116201,4.5391 2.545328,6.13434 0.429127,-1.59524 1.224395,-4.25889 2.545329,-6.13434 l -2.545329,-7.63598 z"
       id="path3126-2"
       style="fill:#ffffff;fill-rule:evenodd;stroke:#d40000;stroke-width:0.75;stroke-linejoin:round;stroke-miterlimit:4;stroke-opacity:1;stroke-dasharray:none" />
    <path
       d="m -49.44861,205.4804 6.475165,4.78044 c 2.192726,-0.67636 4.971749,-0.60985 6.621151,-0.52508 -1.384508,-0.90122 -3.672008,-2.48058 -5.047686,-4.31658 l -8.04863,0.0612 z"
       id="path3128-1"
       style="fill:#ffffff;fill-rule:evenodd;stroke:#d40000;stroke-width:0.75;stroke-linejoin:round;stroke-miterlimit:4;stroke-opacity:1;stroke-dasharray:none" />
    <path
       d="m -50.744821,201.48993 6.546981,-4.68154 c 0.03414,-2.29398 0.956559,-4.91642 1.546976,-6.45927 -1.285026,1.03838 -3.494235,2.72604 -5.66577,3.46715 l -2.428187,7.67366 z"
       id="path3130-6"
       style="fill:#ffffff;fill-rule:evenodd;stroke:#d40000;stroke-width:0.75;stroke-linejoin:round;stroke-miterlimit:4;stroke-opacity:1;stroke-dasharray:none" />
    <path
       d="m -52.898696,196.1438 c -0.15717,3.2835 -0.591595,4.91053 -0.968332,6.89075 -1.395692,-1.8254 -2.520605,-3.06157 -4.650345,-6.46574 -0.58924,-0.87886 -0.483283,-2.10149 -0.236638,-3.39534 0.612786,-1.61938 1.868379,-2.18979 3.467156,-1.89311 0.835297,0.22781 1.438664,0.55569 2.388159,0.55569 0.948906,0 1.552274,-0.32788 2.388159,-0.55569 1.598777,-0.29668 2.85437,0.27373 3.467156,1.89311 0.246645,1.29385 0.352602,2.51648 -0.236638,3.39534 -2.12974,3.40417 -3.254653,4.64034 -4.650345,6.46574 -0.376737,-1.98022 -0.811162,-3.60725 -0.968332,-6.89075 z"
       id="path3132"
       style="fill:#ffffff;fill-rule:evenodd;stroke:#d40000;stroke-width:0.75;stroke-linejoin:round;stroke-miterlimit:4;stroke-opacity:1;stroke-dasharray:none" />
    <path
       d="m -60.690674,201.88609 c 3.073937,1.16377 4.487289,2.07971 6.253832,3.0504 -2.167414,0.76289 -3.690844,1.45102 -7.58595,2.42406 -1.018367,0.28962 -2.147989,-0.18954 -3.302923,-0.82352 -1.350367,-1.08312 -1.505182,-2.45409 -0.728751,-3.88275 0.475042,-0.72404 0.973041,-1.19672 1.266189,-2.09971 0.293149,-0.90241 0.168355,-1.57759 0.20956,-2.44291 0.211915,-1.61173 1.142573,-2.63009 2.87203,-2.7125 1.306806,0.16541 2.502357,0.44266 3.156349,1.27443 2.578882,3.07747 3.407114,4.52908 4.712154,6.42101 -1.999648,-0.25371 -3.681425,-0.34319 -6.85249,-1.20851 z"
       id="path3134-8"
       style="fill:#ffffff;fill-rule:evenodd;stroke:#d40000;stroke-width:0.75;stroke-linejoin:round;stroke-miterlimit:4;stroke-opacity:1;stroke-dasharray:none" />
    <path
       d="m -57.637928,211.07141 c 2.056748,-2.56416 3.36532,-3.6255 4.834005,-5.00589 0.05592,2.29751 0.238992,3.95868 -0.03885,7.96445 -0.03944,1.05722 -0.844126,1.98376 -1.804217,2.88616 -1.447493,0.94949 -2.799037,0.67342 -3.917475,-0.50683 -0.542147,-0.67518 -0.83765,-1.29503 -1.60584,-1.85248 -0.767602,-0.55805 -1.448672,-0.64752 -2.258067,-0.9548 -1.468097,-0.69931 -2.148578,-1.89899 -1.692962,-3.56958 0.561574,-1.19143 1.194374,-2.24335 2.188018,-2.60772 3.72322,-1.50224 5.360259,-1.84072 7.562404,-2.49765 -0.859431,1.82364 -1.463976,3.39534 -3.267015,6.14434 z"
       id="path3136-5"
       style="fill:#ffffff;fill-rule:evenodd;stroke:#d40000;stroke-width:0.75;stroke-linejoin:round;stroke-miterlimit:4;stroke-opacity:1;stroke-dasharray:none" />
    <path
       d="m -47.958734,211.00607 c -1.803039,-2.74841 -2.407584,-4.3207 -3.267015,-6.14434 2.202145,0.65693 3.839185,0.996 7.562405,2.49765 0.993643,0.36496 1.626443,1.41629 2.188017,2.60831 0.455616,1.67 -0.224865,2.86967 -1.692962,3.56958 -0.809395,0.30669 -1.490465,0.39616 -2.258066,0.95421 -0.76819,0.55745 -1.063693,1.1773 -1.605841,1.85307 -1.118438,1.17966 -2.469982,1.45573 -3.917475,0.50624 -0.960091,-0.90181 -1.764777,-1.82894 -1.804217,-2.88616 -0.277843,-4.00577 -0.09477,-5.66694 -0.03885,-7.96445 1.468685,1.38098 2.777257,2.44173 4.834005,5.00589 z"
       id="path3138-7"
       style="fill:#ffffff;fill-rule:evenodd;stroke:#d40000;stroke-width:0.75;stroke-linejoin:round;stroke-miterlimit:4;stroke-opacity:1;stroke-dasharray:none" />
    <path
       d="m -45.030193,201.78014 c -3.170476,0.86531 -4.852842,0.95538 -6.852491,1.2085 1.30504,-1.89134 2.133273,-3.34354 4.712155,-6.42042 0.653991,-0.83235 1.849542,-1.10902 3.156348,-1.27443 1.729458,0.0824 2.660116,1.10019 2.87203,2.7125 0.0418,0.86473 -0.08359,1.53992 0.20956,2.44291 0.293149,0.9024 0.791736,1.37509 1.266189,2.09972 0.776432,1.42865 0.621616,2.79903 -0.72875,3.88215 -1.154934,0.63457 -2.284556,1.11314 -3.302923,0.82411 -3.895106,-0.97363 -5.418536,-1.66117 -7.58595,-2.42465 1.766543,-0.9701 3.180483,-1.88604 6.253832,-3.05039 z"
       id="path3140-6"
       style="fill:#ffffff;fill-rule:evenodd;stroke:#d40000;stroke-width:0.75;stroke-linejoin:round;stroke-miterlimit:4;stroke-opacity:1;stroke-dasharray:none" />
    <path
       d="m -52.843363,199.95591 c 2.441138,0 4.421949,1.98081 4.421949,4.42136 0,2.44113 -1.980811,4.42195 -4.421949,4.42195 -2.440548,0 -4.421949,-1.98082 -4.421949,-4.42195 0,-2.44055 1.981401,-4.42136 4.421949,-4.42136 z"
       id="path3142-1"
       style="fill:#ffffff;fill-rule:evenodd;stroke:#d40000;stroke-width:0.75;stroke-linejoin:round;stroke-miterlimit:4;stroke-opacity:1;stroke-dasharray:none" />
  </g>
  <g
     transform="matrix(0.99999492,0,0,1,265.45939,18.143875)"
     id="g4344">
    <path
       d="m -241.70156,194.82404 1.24617,7.83849 7.83966,-1.23735 -7.0697,3.60726 3.59901,7.07382 -5.61514,-5.60926 -5.61574,5.60926 3.59961,-7.07382 -7.06971,-3.60726 7.83966,1.23735 1.24618,-7.83849 z"
       id="path3146-8"
       style="fill:#ffffff;fill-rule:evenodd;stroke:#d40000;stroke-width:0.75;stroke-linejoin:round;stroke-miterlimit:4;stroke-opacity:1;stroke-dasharray:none" />
    <path
       d="m -243.79952,201.48993 -6.54757,-4.68154 c -0.0341,-2.29398 -0.95655,-4.91642 -1.54697,-6.45927 1.28503,1.03838 3.49423,2.72604 5.66577,3.46715 l 2.42877,7.67366 z"
       id="path3148-9"
       style="fill:#ffffff;fill-rule:evenodd;stroke:#d40000;stroke-width:0.75;stroke-linejoin:round;stroke-miterlimit:4;stroke-opacity:1;stroke-dasharray:none" />
    <path
       d="m -245.09631,205.4804 -6.47517,4.78044 c -2.19273,-0.67636 -4.97116,-0.60985 -6.62115,-0.52508 1.38451,-0.90122 3.67201,-2.48058 5.04768,-4.31658 l 8.04864,0.0612 z"
       id="path3150-2"
       style="fill:#ffffff;fill-rule:evenodd;stroke:#d40000;stroke-width:0.75;stroke-linejoin:round;stroke-miterlimit:4;stroke-opacity:1;stroke-dasharray:none" />
    <path
       d="m -241.70156,207.94685 -2.54592,7.63598 c 1.32152,1.87545 2.11679,4.5391 2.54592,6.13434 0.42912,-1.59524 1.22439,-4.25889 2.54533,-6.13434 l -2.54533,-7.63598 z"
       id="path3152-7"
       style="fill:#ffffff;fill-rule:evenodd;stroke:#d40000;stroke-width:0.75;stroke-linejoin:round;stroke-miterlimit:4;stroke-opacity:1;stroke-dasharray:none" />
    <path
       d="m -238.30681,205.4804 6.47517,4.78044 c 2.19213,-0.67636 4.97116,-0.60985 6.62115,-0.52508 -1.38451,-0.90122 -3.67201,-2.48058 -5.04769,-4.31658 l -8.04863,0.0612 z"
       id="path3154-9"
       style="fill:#ffffff;fill-rule:evenodd;stroke:#d40000;stroke-width:0.75;stroke-linejoin:round;stroke-miterlimit:4;stroke-opacity:1;stroke-dasharray:none" />
    <path
       d="m -239.60361,201.48993 6.54757,-4.68154 c 0.0335,-2.29398 0.95597,-4.91642 1.54639,-6.45927 -1.28444,1.03838 -3.49365,2.72604 -5.66518,3.46715 l -2.42878,7.67366 z"
       id="path3156-5"
       style="fill:#ffffff;fill-rule:evenodd;stroke:#d40000;stroke-width:0.75;stroke-linejoin:round;stroke-miterlimit:4;stroke-opacity:1;stroke-dasharray:none" />
    <path
       d="m -241.7569,196.1438 c -0.15717,3.2835 -0.59159,4.91053 -0.96833,6.89075 -1.39628,-1.8254 -2.5206,-3.06157 -4.65034,-6.46574 -0.58924,-0.87886 -0.48329,-2.10149 -0.23723,-3.39534 0.61338,-1.61938 1.86897,-2.18979 3.46775,-1.89311 0.83529,0.22781 1.43866,0.55569 2.38815,0.55569 0.94891,0 1.55228,-0.32788 2.38757,-0.55569 1.59878,-0.29668 2.85496,0.27373 3.46775,1.89311 0.24664,1.29385 0.3526,2.51648 -0.23723,3.39534 -2.12915,3.40417 -3.25406,4.64034 -4.64975,6.46574 -0.37674,-1.98022 -0.81117,-3.60725 -0.96834,-6.89075 z"
       id="path3158-4"
       style="fill:#ffffff;fill-rule:evenodd;stroke:#d40000;stroke-width:0.75;stroke-linejoin:round;stroke-miterlimit:4;stroke-opacity:1;stroke-dasharray:none" />
    <path
       d="m -249.54946,201.88609 c 3.07394,1.16377 4.48788,2.07971 6.25442,3.0504 -2.16742,0.76289 -3.69085,1.45102 -7.58595,2.42406 -1.01837,0.28962 -2.14799,-0.18954 -3.30292,-0.82352 -1.35037,-1.08312 -1.50519,-2.45409 -0.72876,-3.88275 0.47446,-0.72404 0.97246,-1.19672 1.26619,-2.09971 0.29315,-0.90241 0.16777,-1.57759 0.20956,-2.44291 0.21192,-1.61173 1.14258,-2.63009 2.87203,-2.7125 1.30681,0.16541 2.50236,0.44266 3.15635,1.27443 2.57888,3.07747 3.40712,4.52908 4.71216,6.42101 -1.99965,-0.25371 -3.68202,-0.34319 -6.85308,-1.20851 z"
       id="path3160-3"
       style="fill:#ffffff;fill-rule:evenodd;stroke:#d40000;stroke-width:0.75;stroke-linejoin:round;stroke-miterlimit:4;stroke-opacity:1;stroke-dasharray:none" />
    <path
       d="m -246.49613,211.07141 c 2.05675,-2.56416 3.36473,-3.6255 4.83342,-5.00589 0.0565,2.29751 0.23958,3.95868 -0.0383,7.96445 -0.0394,1.05722 -0.84413,1.98376 -1.80422,2.88616 -1.44749,0.94949 -2.79904,0.67342 -3.91806,-0.50683 -0.54156,-0.67518 -0.83707,-1.29503 -1.60526,-1.85248 -0.76819,-0.55805 -1.44867,-0.64752 -2.25865,-0.9548 -1.46751,-0.69931 -2.14799,-1.89899 -1.69237,-3.56958 0.56157,-1.19143 1.19437,-2.24335 2.18742,-2.60772 3.72381,-1.50224 5.36026,-1.84072 7.563,-2.49765 -0.85943,1.82364 -1.46457,3.39534 -3.26702,6.14434 z"
       id="path3162-1"
       style="fill:#ffffff;fill-rule:evenodd;stroke:#d40000;stroke-width:0.75;stroke-linejoin:round;stroke-miterlimit:4;stroke-opacity:1;stroke-dasharray:none" />
    <path
       d="m -236.81693,211.00607 c -1.80304,-2.74841 -2.40818,-4.3207 -3.26702,-6.14434 2.20215,0.65693 3.8386,0.996 7.56241,2.49765 0.99364,0.36496 1.62644,1.41629 2.18742,2.60831 0.45621,1.67 -0.22427,2.86967 -1.69237,3.56958 -0.80998,0.30669 -1.49046,0.39616 -2.25806,0.95421 -0.76819,0.55745 -1.0637,1.1773 -1.60585,1.85307 -1.11902,1.17966 -2.47057,1.45573 -3.91806,0.50624 -0.96009,-0.90181 -1.76419,-1.82894 -1.80422,-2.88616 -0.27784,-4.00577 -0.0942,-5.66694 -0.0383,-7.96445 1.46869,1.38098 2.77667,2.44173 4.83401,5.00589 z"
       id="path3164-2"
       style="fill:#ffffff;fill-rule:evenodd;stroke:#d40000;stroke-width:0.75;stroke-linejoin:round;stroke-miterlimit:4;stroke-opacity:1;stroke-dasharray:none" />
    <path
       d="m -233.88839,201.78014 c -3.17107,0.86531 -4.85284,0.95538 -6.85249,1.2085 1.30504,-1.89134 2.13327,-3.34354 4.71215,-6.42042 0.65399,-0.83235 1.84954,-1.10902 3.15635,-1.27443 1.72887,0.0824 2.66012,1.10019 2.87203,2.7125 0.0412,0.86473 -0.0842,1.53992 0.20956,2.44291 0.29315,0.9024 0.79115,1.37509 1.26619,2.09972 0.77643,1.42865 0.62161,2.79903 -0.72875,3.88215 -1.15494,0.63457 -2.28515,1.11314 -3.30292,0.82411 -3.89511,-0.97363 -5.41854,-1.66117 -7.58595,-2.42465 1.76654,-0.9701 3.17989,-1.88604 6.25383,-3.05039 z"
       id="path3166"
       style="fill:#ffffff;fill-rule:evenodd;stroke:#d40000;stroke-width:0.75;stroke-linejoin:round;stroke-miterlimit:4;stroke-opacity:1;stroke-dasharray:none" />
    <path
       d="m -241.70156,199.95591 c 2.44055,0 4.42195,1.98081 4.42195,4.42136 0,2.44113 -1.9814,4.42195 -4.42195,4.42195 -2.44055,0 -4.42195,-1.98082 -4.42195,-4.42195 0,-2.44055 1.9814,-4.42136 4.42195,-4.42136 z"
       id="path3168-3"
       style="fill:#ffffff;fill-rule:evenodd;stroke:#d40000;stroke-width:0.75;stroke-linejoin:round;stroke-miterlimit:4;stroke-opacity:1;stroke-dasharray:none" />
  </g>
  <g
     transform="matrix(0.99999492,0,0,1,271.42159,2.3899016)"
     id="g4266">
    <path
       d="m -251.66331,6.6145383 1.24559,7.8384817 7.83966,-1.237345 -7.06971,3.607256 3.59961,7.074412 -5.61574,-5.609259 -5.61514,5.609259 3.59901,-7.074412 -7.0697,-3.607256 7.84025,1.237345 1.24617,-7.8384817 z"
       id="path3172-3"
       style="fill:#ffffff;fill-rule:evenodd;stroke:#d40000;stroke-width:0.75;stroke-linejoin:round;stroke-miterlimit:4;stroke-opacity:1;stroke-dasharray:none" />
    <path
       d="m -253.76185,13.280427 -6.54757,-4.6809563 c -0.0335,-2.294563 -0.95597,-4.9164163 -1.54639,-6.4592716 1.28503,1.0383811 3.49365,2.7254559 5.66518,3.466568 l 2.42878,7.6736599 z"
       id="path3174-4"
       style="fill:#ffffff;fill-rule:evenodd;stroke:#d40000;stroke-width:0.75;stroke-linejoin:round;stroke-miterlimit:4;stroke-opacity:1;stroke-dasharray:none" />
    <path
       d="m -255.05806,17.271483 -6.47576,4.780438 c -2.19231,-0.676949 -4.97127,-0.609843 -6.62097,-0.525077 1.38445,-0.901226 3.67201,-2.480577 5.04774,-4.31717 l 8.04899,0.06181 z"
       id="path3176-1"
       style="fill:#ffffff;fill-rule:evenodd;stroke:#d40000;stroke-width:0.75;stroke-linejoin:round;stroke-miterlimit:4;stroke-opacity:1;stroke-dasharray:none" />
    <path
       d="m -251.6639,19.737344 -2.54533,7.635985 c 1.32094,1.876032 2.1162,4.53968 2.54533,6.134925 0.42913,-1.595245 1.2244,-4.258893 2.54592,-6.134925 l -2.54592,-7.635985 z"
       id="path3178-1"
       style="fill:#ffffff;fill-rule:evenodd;stroke:#d40000;stroke-width:0.75;stroke-linejoin:round;stroke-miterlimit:4;stroke-opacity:1;stroke-dasharray:none" />
    <path
       d="m -248.26915,17.271483 6.47517,4.780438 c 2.19273,-0.676949 4.97175,-0.609843 6.62115,-0.525077 -1.38451,-0.901226 -3.67201,-2.480577 -5.04769,-4.31717 l -8.04863,0.06181 z"
       id="path3180-3"
       style="fill:#ffffff;fill-rule:evenodd;stroke:#d40000;stroke-width:0.75;stroke-linejoin:round;stroke-miterlimit:4;stroke-opacity:1;stroke-dasharray:none" />
    <path
       d="m -249.56536,13.280427 6.54698,-4.6809563 c 0.0342,-2.294563 0.95656,-4.9164163 1.54698,-6.4592716 -1.28503,1.0383811 -3.49423,2.7254559 -5.66577,3.466568 l -2.42819,7.6736599 z"
       id="path3182-8"
       style="fill:#ffffff;fill-rule:evenodd;stroke:#d40000;stroke-width:0.75;stroke-linejoin:round;stroke-miterlimit:4;stroke-opacity:1;stroke-dasharray:none" />
    <path
       d="m -251.71923,7.9348833 c -0.15717,3.2829087 -0.5916,4.9105297 -0.96833,6.8907527 -1.3957,-1.825996 -2.52061,-3.062164 -4.65035,-6.4657464 -0.58924,-0.8788565 -0.48328,-2.1014854 -0.23664,-3.3959298 0.61279,-1.6187913 1.86838,-2.1897831 3.46716,-1.8931028 0.83588,0.2278081 1.43866,0.5556869 2.38816,0.5556869 0.9489,0 1.55227,-0.3278788 2.38816,-0.5556869 1.59877,-0.2966803 2.85437,0.2743115 3.46715,1.8931028 0.24665,1.2944444 0.35261,2.5170733 -0.23663,3.3959298 -2.12974,3.4035824 -3.25466,4.6397504 -4.65035,6.4657464 -0.37674,-1.980223 -0.81116,-3.607844 -0.96833,-6.8907527 z"
       id="path3184-7"
       style="fill:#ffffff;fill-rule:evenodd;stroke:#d40000;stroke-width:0.75;stroke-linejoin:round;stroke-miterlimit:4;stroke-opacity:1;stroke-dasharray:none" />
    <path
       d="m -259.51121,13.676589 c 3.07394,1.164352 4.48729,2.080294 6.25383,3.050391 -2.16741,0.763481 -3.69084,1.451026 -7.58595,2.424655 -1.01836,0.289028 -2.14799,-0.189545 -3.30274,-0.824112 -1.35043,-1.083118 -1.50524,-2.454087 -0.72893,-3.882744 0.47481,-0.724041 0.97292,-1.196728 1.26625,-2.099131 0.29332,-0.902991 0.16812,-1.578174 0.20967,-2.4429031 0.21168,-1.6123161 1.1424,-2.6300944 2.87186,-2.7130942 1.3068,0.1659997 2.50235,0.4426658 3.15635,1.2750189 2.57888,3.0768804 3.40711,4.5284954 4.71215,6.4204204 -1.99965,-0.253709 -3.68142,-0.343184 -6.85249,-1.208501 z"
       id="path3186-4"
       style="fill:#ffffff;fill-rule:evenodd;stroke:#d40000;stroke-width:0.75;stroke-linejoin:round;stroke-miterlimit:4;stroke-opacity:1;stroke-dasharray:none" />
    <path
       d="m -256.45846,22.861905 c 2.05674,-2.563577 3.36532,-3.624915 4.834,-5.005303 0.0559,2.296918 0.23899,3.958681 -0.0388,7.963865 -0.0394,1.057806 -0.84413,1.984344 -1.80422,2.886158 -1.44749,0.950083 -2.79903,0.673417 -3.91747,-0.506241 -0.54215,-0.675183 -0.83765,-1.295033 -1.60584,-1.853074 -0.7676,-0.558042 -1.44867,-0.647517 -2.25807,-0.954204 -1.4681,-0.699907 -2.14852,-1.899578 -1.69296,-3.569582 0.56157,-1.192019 1.19437,-2.24335 2.18802,-2.607726 3.72322,-1.502238 5.36026,-1.841301 7.5624,-2.497647 -0.85943,1.823053 -1.46397,3.395341 -3.26701,6.143754 z"
       id="path3188-2"
       style="fill:#ffffff;fill-rule:evenodd;stroke:#d40000;stroke-width:0.75;stroke-linejoin:round;stroke-miterlimit:4;stroke-opacity:1;stroke-dasharray:none" />
    <path
       d="m -246.77927,22.796565 c -1.80304,-2.748414 -2.40758,-4.320701 -3.26701,-6.143755 2.20214,0.656347 3.83918,0.99541 7.5624,2.497648 0.99364,0.364375 1.62644,1.415707 2.18802,2.607726 0.45561,1.670004 -0.22487,2.870264 -1.69296,3.569582 -0.8094,0.306687 -1.49047,0.396162 -2.25807,0.954204 -0.76819,0.558041 -1.06369,1.177891 -1.60584,1.853074 -1.11844,1.179657 -2.46998,1.456324 -3.91748,0.506829 -0.96009,-0.902403 -1.76477,-1.82894 -1.80421,-2.886746 -0.27785,-4.005184 -0.0948,-5.666359 -0.0388,-7.963865 1.46868,1.380388 2.77725,2.441726 4.834,5.005303 z"
       id="path3190-7"
       style="fill:#ffffff;fill-rule:evenodd;stroke:#d40000;stroke-width:0.75;stroke-linejoin:round;stroke-miterlimit:4;stroke-opacity:1;stroke-dasharray:none" />
    <path
       d="m -243.85014,13.57122 c -3.17106,0.865318 -4.85343,0.954793 -6.85308,1.208502 1.30504,-1.891926 2.13327,-3.34354 4.71216,-6.4210097 0.65399,-0.8317644 1.84954,-1.1090192 3.15634,-1.2744302 1.72946,0.082411 2.66012,1.1007781 2.87203,2.7125055 0.0418,0.8653174 -0.0836,1.5399124 0.20956,2.4429034 0.29315,0.902991 0.79174,1.375678 1.26619,2.099719 0.77643,1.428657 0.62162,2.799626 -0.72875,3.882745 -1.15493,0.633977 -2.28455,1.11314 -3.30292,0.824112 -3.89511,-0.97363 -5.41854,-1.661174 -7.58595,-2.424655 1.76654,-0.970098 3.18048,-1.886628 6.25442,-3.050392 z"
       id="path3192-7"
       style="fill:#ffffff;fill-rule:evenodd;stroke:#d40000;stroke-width:0.75;stroke-linejoin:round;stroke-miterlimit:4;stroke-opacity:1;stroke-dasharray:none" />
    <path
       d="m -251.6639,11.746401 c 2.44114,0 4.42195,1.980812 4.42195,4.421949 0,2.440549 -1.98081,4.421949 -4.42195,4.421949 -2.44055,0 -4.42195,-1.9814 -4.42195,-4.421949 0,-2.441137 1.9814,-4.421949 4.42195,-4.421949 z"
       id="path3194-9"
       style="fill:#ffffff;fill-rule:evenodd;stroke:#d40000;stroke-width:0.75;stroke-linejoin:round;stroke-miterlimit:4;stroke-opacity:1;stroke-dasharray:none" />
  </g>
</svg>
