<!-- Created with Inkscape (http://www.inkscape.org/) -->
<svg xmlns:rdf="http://www.w3.org/1999/02/22-rdf-syntax-ns#" xmlns="http://www.w3.org/2000/svg" height="300" width="248" version="1.0" xmlns:cc="http://creativecommons.org/ns#" xmlns:dc="http://purl.org/dc/elements/1.1/">
 <metadata>
  <rdf:RDF>
   <cc:Work rdf:about="">
    <dc:format>image/svg+xml</dc:format>
    <dc:type rdf:resource="http://purl.org/dc/dcmitype/StillImage"/>
    <dc:title/>
   </cc:Work>
  </rdf:RDF>
 </metadata>
 <path d="m247,1.0001,0,214.77c0,82.42-84.912,44.012-123,82.791-38.089-38.77-123-0.37-123-82.79v-214.77z" stroke="#000" stroke-miterlimit="4" stroke-dasharray="none" stroke-width="2" fill="#003d8f"/>
 <path fill-rule="evenodd" fill="#ffcd50" d="m109.77,136.15-3.4462,79.912c-0.36189,8.3915-2.9906,13.098-6.8392,16.831-4.2729,4.1425-11.792,3.1064-17.529,3.1468h-0.01286l-0.2829,0.004c-5.0371,0.0367-10.601,3.1542-15.785,3.8816-3.1946,0.44823-6.47,0.51987-9.7839,0.19105-8.7277-0.86524-16.572-4.5686-25.228,0.64846-1.0251,0.61724-0.47579,1.5927,0.5511,0.97546,7.1276-4.2968,16.498,1.2473,24.318,2.0207,2.9594,0.29393,5.8913,0.29393,8.7699,0.0147,2.6526-0.25351,1.0324,1.7011,0.16533,2.6692-4.3482,4.846-11.38,5.6268-18.236,4.4805-1.341-0.31046-1.4384,1.0214-0.30127,1.2106,10.184,1.7048,18.769,2.0556,23.787-6.3285,2.6435-4.4199,6.503-5.0481,12.01-4.5411,6.4773,0.59519,13.724,1.1096,19.97-0.80278,1.7323-0.53089,2.3716-0.24799,1.0985,1.4714-3.3342,4.497-8.5329,3.2625-15.297,5.331-9.8446,3.0127-9.5029,11.296-18.429,16.467-0.99199,0.66868-0.22963,1.7268,0.76052,1.0563,8.5531-4.4401,9.4698-10.881,18.73-13.715,3.1799-0.97361,4.2564-0.54926,1.4917,1.7268-0.75134,0.61907-1.3943,1.3961-1.9913,2.2191-0.72746,1.0048,0.31597,1.8848,1.0214,0.91116,1.7746-2.4469,4.4639-2.6306,6.4865-4.4639,1.1555-1.0471,2.4028-1.5945,3.9533-1.7599,3.2368-0.34536,6.1246-1.1151,9.4092-4.3225,2.9337-2.8657,3.2662-0.92585,2.2944,1.9674-2.4414,7.2709-8.0406,8.0498-13.35,12.185-3.5785,2.7868-6.2991,6.7161-7.7816,11.004-0.38761,1.1298,0.72195,1.725,1.1096,0.59703,2.4377-7.0505,9.1391-9.3688,15.166-12.359,2.6545-1.3171,3.4334-1.2969,2.9172,1.003-0.8836,3.933,0.35087,8.3676-1.3612,14.182-0.48681,1.0912,0.58785,1.6901,1.0747,0.60071,1.2418-2.7831,1.9858-6.4112,2.7022-9.7711,0.30127-1.4182,0.99566-2.7004,1.0802-3.9937,0.39128-6.0144,3.4113-8.3437,5.0628-13.627,0.27555-1.2179,1.2602-3.2717,2.0611-0.67051,1.4365,4.6605,3.5216,9.5506,2.603,13.783-1.2712,5.8472-1.9803,9.3559-0.0753,16.263,0.28106,1.161,1.4182,0.82115,1.1389-0.33985-1.8407-7.5997,1.0618-8.8268,2.4745-14.771,1.3759-5.7939,1.2639-9.8354,0.19105-14.994-0.66684-3.1982,2.1144-0.70725,2.6324,0.7293,1.8811,5.2043,4.6715,7.6126,5.0646,13.627,0.0845,1.2933,0.77889,2.5755,1.0802,3.9937,0.71644,3.3599,1.4604,6.988,2.7022,9.7711,0.48681,1.0894,1.5615,0.49048,1.0746-0.60071-1.7121-5.8141-0.47762-10.249-1.3612-14.182-0.5162-2.2999,0.2627-2.3202,2.9172-1.003,6.0272,2.9907,12.729,5.309,15.166,12.359,0.38761,1.1279,1.4972,0.53273,1.1096-0.59703-1.4825-4.2876-4.2031-8.217-7.7816-11.004-5.309-4.1351-10.908-4.914-13.35-12.185-0.97178-2.8933-0.63929-4.8332,2.2944-1.9674,3.2827,3.2074,6.1724,3.9771,9.4092,4.3225,1.5504,0.16533,2.7978,0.71276,3.9514,1.7599,2.0244,1.8333,4.7138,2.017,6.4883,4.4639,0.70541,0.97362,1.7488,0.0937,1.0195-0.91116-0.59519-0.82298-1.2382-1.6-1.9895-2.2191-2.7647-2.2761-1.6882-2.7004,1.4917-1.7268,9.2604,2.8345,10.177,9.2751,18.728,13.715,0.99199,0.67051,1.7544-0.38761,0.76236-1.0563-8.926-5.1712-8.5862-13.454-18.431-16.467-6.762-2.0685-11.963-0.83401-15.295-5.331-1.273-1.7194-0.63377-2.0023,1.0985-1.4714,6.244,1.9123,13.491,1.398,19.968,0.80278,5.5092-0.50702,9.3688,0.12124,12.012,4.5411,5.0187,8.3841,13.603,8.0333,23.787,6.3285,1.1371-0.18921,1.0398-1.521-0.30127-1.2106-6.8557,1.1463-13.888,0.36556-18.236-4.4805-0.86891-0.96811-2.4873-2.9227,0.16533-2.6692,2.8786,0.27923,5.8105,0.27923,8.7699-0.0147,7.8202-0.77338,17.191-6.3175,24.318-2.0207,1.025,0.61723,1.5762-0.35822,0.5511-0.97546-8.656-5.2171-16.5-1.5137-25.23-0.64846-3.3121,0.32882-6.5894,0.25718-9.7839-0.19105-5.1822-0.72746-10.747-3.8449-15.784-3.8816l-0.2829-0.004h-0.0129c-5.737-0.0404-13.256,0.99567-17.529-3.1468-3.8485-3.7328-6.4792-8.4392-6.841-16.831l-3.4444-79.912c-0.32331-7.5134,1.8811-11.827,5.4651-14.347,1.8976-1.3355,3.7604-1.5743,5.4082,0.31413l2.3789-2.0134c-0.30862-0.3674-0.64847-0.7146-1.0048-1.0361,2.4304-0.51803,5.0628-0.76787,7.7412-0.93504,7.8551-0.49048,17.242,1.5743,18.058,11.189l2.4359-0.39128c-0.73481-5.3678-3.3654-8.7515-6.9898-10.851,5.9005,0.10655,11.81,0.34903,17.694,0.1984,3.8081-0.0974,6.7914-0.67602,7.9965,4.0322,0.4519,1.769,0.51987,4.0212,0.36556,6.762-0.2039,3.573,2.3404,3.9771,4.4658,1.8701,1.9913-1.9785,2.998,0.14512,2.3624,2.5167-0.43353,1.6239-2.1769,4.0267-2.682,5.7701-1.161,4.001,1.3447,6.4736,4.2766,3.7879,3.178-2.9153,4.2692-0.64295,2.017,2.7757-4.1204,6.2514,0.67602,10.686,3.2736,6.4461,1.2345-2.0134,2.818-0.59336,2.9153,2.3698,0.26637,8.1122,9.2383,6.7749,7.0284-1.3153-0.8487-3.1101,0.38209-3.9826,2.7188-2.2926,2.976,2.1493,4.4584-2.0556,2.3495-5.6488-0.76236-1.2988-1.6937-2.4193-2.8713-3.3085-1.4292-1.0802-3.8485-3.641-0.0863-3.3617,2.6637,0.1984,3.9092-1.8517,0.39129-5.2777-1.9399-1.8903-3.6354-2.84-5.9005-4.2747-2.0244-1.2841-1.7158-2.8327,0.1984-3.0311,4.3923-0.45558,1.8113-4.5944-3.0899-5.9795-4.5062-1.2749-10.484-1.3024-11.272-1.3741-4.802-0.44639-4.5521-2.0648,0.14328-2.502,0.78808-0.0735,6.7657-0.10104,11.272-1.3741,4.9012-1.3869,7.4803-5.5257,3.0899-5.9813-1.9142-0.19839-2.2228-1.747-0.1984-3.0311,2.2632-1.4347,3.9588-2.3826,5.9005-4.2729,3.5179-3.426,2.2724-5.4761-0.39129-5.2796-3.7622,0.28106-1.3429-2.2797,0.0863-3.3599,1.1775-0.88912,2.1089-2.0115,2.8712-3.3085,2.1089-3.5932,0.62642-7.8-2.3495-5.6488-2.3367,1.6882-3.5675,0.81747-2.7188-2.2926,2.2099-8.0902-6.762-9.4294-7.0284-1.3171-0.0974,2.9631-1.6809,4.385-2.9153,2.3697-2.5975-4.2398-7.394,0.19656-3.2736,6.4461,2.2522,3.4187,1.161,5.6929-2.017,2.7776-2.9319-2.6876-5.4376-0.21493-4.2766,3.7861,0.50518,1.7433,2.2485,4.148,2.682,5.7701,0.63561,2.3716,0.18738,3.7494-1.8058,1.7727-2.1236-2.1071-5.1492-1.6441-4.4658,1.8701,0.38393,1.9656,0.41516,3.8688,0.11757,5.5221-0.91851,5.1014-4.8405,4.3427-8.8581,4.4658-3.4481,0.10655-6.9108,0.0735-10.375,0.006,2.0538-1.7029,3.6722-4.1039,4.6495-7.4179l-2.3477-0.75317c-1.409,5.8729-4.8332,8.138-10.322,7.8808-5.4651-0.25718-12.398-0.55294-19.006-0.16349,3.8338-1.1132,6.5783-2.0648,9.5543-4.4382,3.2607-2.6012,2.6692-6.0879-0.10104-4.9746-1.589,0.63928-2.4653-0.50701-1.3649-2.3348,1.2308-2.0446,2.7463-3.8375,3.5399-6.1154,1.4365-4.1278-0.73481-5.4467-2.7757-4.2288-2.8841,1.7213-2.1585-1.2822-1.4512-2.7096,0.69071-1.3925,1.24-3.2221,1.2492-4.8001,0.0165-3.2203-2.7463-5.5753-4.3096-2.8125-1.2492,2.2063-3.6208,0.67051-4.3464-2.1052-1.916-7.3223-9.2292-4.7248-6.2128,1.8407,1.1022,2.3973,0.58968,4.069-1.1959,2.9576-3.7567-2.3422-5.8086,3.099-0.0386,6.4369,3.1542,1.8242,3.1909,4.069-0.5015,3.0127-3.404-0.97178-4.4162,1.995-1.8976,4.7193,1.0967,1.1867,3.4426,2.4065,4.4346,3.5252,1.4494,1.6349,1.4935,3.7273-0.87993,2.9466-2.5314-0.834-5.3035,1.5358-2.9025,3.6299,3.0586,2.6674,5.1951,5.4339,0.45925,6.3395-4.091,0.78073-7.7944,2.6269-10.35,4.9765-0.0706-7.8723-1.7909-16.697,3.3691-20.67l-2.491-3.3195c-0.74767,0.56213-1.4512,1.1389-2.1052,1.7415-0.49967-8.7626-0.62459-15.225,7.2727-20.545,6.1264-4.1278,13.954-4.181,24.203-4.1682,2.2889,0.0037,4.7303,0.17084,5.6451,2.8933l2.4616-0.82482c-0.25351-0.75318-0.6154-1.4586-1.1077-2.085,11.103-0.09369,22.182-0.18554,33.261-0.97178,7.9561-0.5658,16.724-3.2754,21.835-10.006,2.7868-3.6704,2.9833-7.7118-0.97729-6.1338-1.973,0.78624-2.2706-0.82298-0.92402-3.1688,1.5082-2.6251,3.2497-4.9526,4.216-7.8716,1.7507-5.2943-0.2682-7.0119-2.7794-5.4376-3.5473,2.2228-3.0899-1.1941-2.2246-3.0274,1.1187-2.3661,2.3808-4.7817,2.017-7.4895-0.50886-3.7934-3.4168-6.0713-5.0353-2.818-1.4549,2.919-3.8669,1.6056-4.7524-1.9472-2.3091-9.2788-11.56-6.4038-7.6512,2.1328,1.3961,3.0458,0.44272,5.4761-1.7617,4.0671-4.6421-2.9668-6.762,3.4352,0.3674,7.6585,3.8982,2.3091,3.5675,6.1448-0.98831,4.824-4.2012-1.2179-5.4339,2.2007-2.3165,5.6672,1.3576,1.5082,4.2545,3.0513,5.4835,4.475,1.7948,2.0832,1.8591,4.7579-1.071,3.7769-3.1229-1.0453-5.4174,0.67786-3.4499,4.2031,0.81012,1.4531,2.7261,5.0426,1.938,7.0743-0.5658,1.4604-5.7407,2.1291-12.042,2.4102,0.51069-0.56029,0.92952-1.1977,1.2602-1.8793l-2.2026-1.1279c-1.6294,3.0127-5.263,3.1854-8.1692,3.1891-3.6979,0.0018-7.2452-0.05511-10.026-0.10838,5.6066-1.3925,12.086-4.1039,15.447-8.5329,2.7868-3.6704,3.5087-7.6475-0.45191-6.0695-1.973,0.78624-2.2706-0.82298-0.92402-3.1688,1.5082-2.6251,3.2497-4.9526,4.216-7.8716,1.7507-5.2943-0.26821-7.0119-2.7794-5.4376-3.5473,2.2228-3.0899-1.1941-2.2246-3.0274,1.1187-2.3661,2.3808-4.7817,2.017-7.4895-0.50885-3.7934-3.4168-6.0713-5.0352-2.818-1.4549,2.919-3.8669,1.6056-4.7524-1.9472-2.3091-9.2788-11.56-6.4038-7.6512,2.1328,1.3961,3.0458,0.44272,5.4761-1.7617,4.0671-4.6421-2.9668-6.762,3.4352,0.3674,7.6585,3.8981,2.3091,3.5675,6.1448-0.98831,4.824-4.2012-1.2179-5.4339,2.2007-2.3165,5.6672,1.3576,1.5082,4.2545,3.0513,5.4835,4.475,1.7948,2.0832,1.8591,4.7579-1.071,3.7769-3.1229-1.0453-4.971,0.35822-3.0054,3.8834,3.3801,6.0603,1.5357,9.8703-5.478,9.7747-4.1002-0.05695-7.8569-0.16166-11.305-0.06797,0.97913-1.8554,1.578-4.0635,1.6864-6.6996l-2.4598-0.15798c-0.91484,7.4619-3.0072,6.6794-7.9267,7.7944,0.25167-0.89646,0.37108-1.8297,0.37108-2.7592l-2.7261,0.02572c-0.20207,3.1707-1.6129,3.7787-3.9496,5.1289-4.102,2.3697-7.5575,6.3579-10.524,13.023l-0.52355-12.187c-0.38944-9.1226,9.209-7.9102,12.291-14.523,1.1647-2.502,1.1445-5.1418-2.5241-4.7046-2.7261,0.32515-1.7874-2.6857-0.30678-4.4162,1.5008-1.7543,3.1192-3.6244,4.1204-5.7076,2.7225-5.6635,0.26637-9.4367-3.4517-6.9825-3.7365,2.4653-3.5675-1.9234-1.9858-3.6777,1.42-1.5743,2.2356-3.3838,3.2111-5.2649,3.1597-6.0915-1.7911-8.8158-5.4137-4.9544-1.5982,1.7029-3.6281,0.52171-3.2497-2.1346,1.6864-11.779-10.658-11.779-8.9738,0,0.37842,2.6563-1.6515,3.8375-3.2497,2.1346-3.6226-3.8614-8.5733-1.1371-5.4137,4.9544,0.97545,1.8811,1.7911,3.6906,3.2111,5.2649,1.5817,1.7543,1.7488,6.143-1.9858,3.6777-3.7181-2.4542-6.1742,1.319-3.4518,6.9825,1.0012,2.0832,2.6196,3.9533,4.1204,5.7076,1.4806,1.7305,2.4194,4.7413-0.30678,4.4162-3.3176-0.3968-3.652,1.7286-2.8235,3.9882,2.649,7.2342,12.978,6.1632,12.58,15.475l-0.51253,11.959c-2.9668-6.6684-6.4222-10.66-10.524-13.03-2.3367-1.3502-3.7475-1.9583-3.9514-5.1289l-2.7243-0.02572c0,0.92953,0.11757,1.8627,0.37108,2.7592-4.9195-1.1151-7.0119-0.3325-7.9267-7.7944l-2.4598,0.15798c0.10838,2.6361,0.70725,4.8442,1.6864,6.6996-3.4481-0.09369-7.2048,0.01102-11.305,0.06797-7.0137,0.09552-8.8581-3.7144-5.478-9.7747,1.9656-3.5252,0.11757-4.9287-3.0054-3.8834-2.93,0.98096-2.8657-1.6937-1.071-3.7769,1.229-1.4237,4.1259-2.9668,5.4835-4.475,3.1174-3.4664,1.8848-6.8851-2.3165-5.6672-4.5558,1.3208-4.8865-2.5149-0.98831-4.824,7.1294-4.2233,5.0095-10.625,0.3674-7.6585-2.2044,1.409-3.1578-1.0214-1.7617-4.0671,3.9092-8.5366-5.342-11.412-7.653-2.1328-0.8836,3.5528-3.2974,4.8662-4.7505,1.9472-1.6202-3.2534-4.5264-0.97545-5.0353,2.818-0.36373,2.7078,0.8983,5.1234,2.017,7.4895,0.86523,1.8333,1.3226,5.2502-2.2246,3.0274-2.5112-1.5743-4.5319,0.14329-2.7794,5.4376,0.96627,2.919,2.7078,5.2465,4.2141,7.8716,1.3484,2.3459,1.0508,3.9551-0.92218,3.1688-3.9606-1.578-3.2387,2.3991-0.4519,6.0695,3.3617,4.429,9.839,7.1405,15.447,8.5329-2.7812,0.05327-6.3285,0.11022-10.026,0.10838-2.9062-0.0037-6.5398-0.17635-8.1692-3.1891l-2.2026,1.1279c0.33066,0.68153,0.74766,1.319,1.2602,1.8793-6.301-0.28106-11.476-0.94974-12.042-2.4102-0.78808-2.0317,1.1279-5.6213,1.938-7.0743,1.9674-3.5252-0.32699-5.2483-3.4499-4.2031-2.9319,0.98096-2.8657-1.6937-1.071-3.7769,1.229-1.4237,4.1259-2.9668,5.4835-4.475,3.1174-3.4664,1.8848-6.8851-2.3165-5.6672-4.5558,1.3208-4.8865-2.5149-0.98831-4.824,7.1294-4.2233,5.0095-10.625,0.3674-7.6585-2.2044,1.409-3.1578-1.0214-1.7617-4.0671,3.9092-8.5366-5.342-11.412-7.653-2.1328-0.8836,3.5528-3.2974,4.8662-4.7505,1.9472-1.6202-3.2534-4.5264-0.97545-5.0353,2.818-0.36373,2.7078,0.8983,5.1234,2.017,7.4895,0.86523,1.8333,1.3226,5.2502-2.2246,3.0274-2.5112-1.5743-4.5319,0.14329-2.7794,5.4376,0.96627,2.919,2.7078,5.2465,4.2141,7.8716,1.3484,2.3459,1.0508,3.9551-0.92218,3.1688-3.9624-1.578-3.764,2.4634-0.97913,6.1338,5.1106,6.7308,13.88,9.4404,21.837,10.006,11.077,0.78624,22.158,0.87809,33.259,0.97178-0.49048,0.62642-0.85238,1.3318-1.1059,2.085l2.4598,0.82482c0.91667-2.7225,3.3562-2.8915,5.6451-2.8933,10.781-0.01653,18.883,0.04776,25.141,4.8424,7.1092,5.4467,6.8098,11.557,6.3359,19.871-0.65398-0.60254-1.3576-1.1794-2.1052-1.7415l-2.491,3.3195c5.8893,5.8691,3.6118,12.56,3.3691,20.673-2.5553-2.3532-6.2587-4.1994-10.352-4.9801-4.734-0.90565-2.5975-3.6722,0.46109-6.3395,2.401-2.0942-0.37291-4.4639-2.9025-3.6299-2.3734,0.78073-2.3293-1.3116-0.87993-2.9466,0.99199-1.1187,3.3378-2.3385,4.4346-3.5252,2.5185-2.7243,1.5064-5.6911-1.8976-4.7193-3.6924,1.0563-3.6557-1.1885-0.5015-3.0127,5.7701-3.3379,3.7181-8.7791-0.0386-6.4369-1.7856,1.1114-2.2981-0.56029-1.1977-2.9576,3.0182-6.5655-4.2949-9.163-6.2109-1.8407-0.72562,2.7757-3.0972,4.3115-4.3464,2.1052-1.5633-2.7629-4.3262-0.40782-4.3096,2.8125,0.0073,1.578,0.55845,3.4077,1.2473,4.8001,0.70909,1.4274,1.4347,4.4309-1.4494,2.7096-2.0409-1.2179-4.2141,0.10104-2.7757,4.2288,0.79175,2.2779,2.3091,4.0708,3.5399,6.1154,1.1004,1.8278,0.22412,2.9741-1.3649,2.3348-2.7721-1.1132-3.3617,2.3734-0.10104,4.9746,2.976,2.3734,5.7205,3.325,9.5543,4.4382-6.6077-0.38945-13.541-0.0937-19.006,0.16349-5.4908,0.25719-8.9132-2.0078-10.322-7.8808l-2.3477,0.75317c0.97545,3.314,2.5957,5.715,4.6495,7.4179-3.4646,0.068-6.9274,0.10104-10.375-0.006-4.0175-0.12308-7.9396,0.63561-8.8581-4.4658-0.2976-1.6533-0.26637-3.5565,0.11573-5.5221,0.68337-3.5142-2.3404-3.9771-4.4658-1.8701-1.9913,1.9766-2.4396,0.59887-1.8039-1.7727,0.43354-1.6221,2.1769-4.0267,2.682-5.7701,1.161-4.001-1.3447-6.4736-4.2766-3.7861-3.178,2.9153-4.2692,0.64112-2.017-2.7776,4.1204-6.2495-0.67602-10.686-3.2736-6.4461-1.2345,2.0152-2.818,0.59336-2.9153-2.3697-0.26637-8.1123-9.2383-6.7731-7.0303,1.3171,0.85054,3.1101-0.38026,3.9808-2.7169,2.2926-2.976-2.1511-4.4584,2.0556-2.3495,5.6488,0.76052,1.2969,1.6937,2.4193,2.8694,3.3085,1.431,1.0802,3.8504,3.641,0.08818,3.3599-2.6637-0.19656-3.9092,1.8535-0.39128,5.2796,1.9399,1.8903,3.6354,2.8382,5.9005,4.2729,2.0244,1.2841,1.7158,2.8327-0.1984,3.0311-4.3923,0.45558-1.8113,4.5944,3.0899,5.9813,4.5062,1.273,10.484,1.3006,11.272,1.3741,4.6954,0.43721,4.9452,2.0556,0.14329,2.502-0.78808,0.0716-6.7657,0.0992-11.272,1.3741-4.9012,1.3851-7.4822,5.5239-3.0899,5.9795,1.9142,0.19839,2.2228,1.747,0.1984,3.0311-2.265,1.4347-3.9606,2.3844-5.9005,4.2747-3.5197,3.426-2.2724,5.4761,0.39128,5.2777,3.7622-0.27923,1.3429,2.2816-0.08818,3.3617-1.1775,0.88912-2.1089,2.0097-2.8694,3.3085-2.1089,3.5932-0.62642,7.7981,2.3495,5.6488,2.3367-1.69,3.5675-0.81747,2.7169,2.2926-2.2081,8.0902,6.7639,9.4276,7.0303,1.3153,0.09736-2.9631,1.6809-4.3831,2.9153-2.3698,2.5975,4.2398,7.394-0.19472,3.2736-6.4461-2.2522-3.4187-1.161-5.6911,2.017-2.7757,2.9319,2.6857,5.4376,0.21309,4.2766-3.7879-0.50518-1.7433-2.2485-4.1461-2.682-5.7701-0.63561-2.3716,0.36924-4.4952,2.3624-2.5167,2.1254,2.107,4.6697,1.7029,4.4658-1.8701-0.15431-2.7408-0.08634-4.993,0.36556-6.762,1.2051-4.7083,4.1884-4.1296,7.9965-4.0322,5.884,0.15063,11.794-0.0918,17.694-0.1984-3.6244,2.0997-6.255,5.4835-6.9898,10.851l2.4359,0.39128c0.81563-9.6149,10.203-11.68,18.058-11.189,2.6784,0.16717,5.3108,0.41701,7.7412,0.93504-0.35638,0.32148-0.69623,0.66868-1.0067,1.0361l2.3808,2.0134c1.6478-1.8884,3.5105-1.6496,5.4082-0.31413,3.584,2.5204,5.7884,6.8337,5.4651,14.347z"/>
 <g fill-rule="evenodd" fill="#003d8f">
  <path d="m34.647,102.71c1.6294-2.0777,2.8694-3.7861,4.745-5.4155l0.26086,0.29943c-1.8352,1.5909-3.1082,4.0175-4.5576,6.007,0.69439,1.3208,1.4843,2.5608,2.3863,3.7016,1.8168,2.2963,3.9955,4.3813,6.5379,5.6507l-0.17635,0.35638c-2.8566-1.4255-4.9581-2.761-7.0688-5.4247-0.95525-1.2069-1.7874-2.5167-2.5167-3.911-2.3459-0.42802-4.7597-1.646-6.9366-2.5296l0.15064-0.36741c1.7819,0.72379,4.1645,1.5321,6.2918,1.9032-3.02-6.349-3.646-13.219-4.357-20.097l0.39312-0.04225c0.32148,3.1082,0.76787,6.3175,1.4494,9.479,1.6276-2.3991,3.2919-4.4346,5.3108-6.5673l0.28657,0.27004c-2.1107,2.2283-3.6557,4.6881-5.3567,7.3719,0.74399,3.1854,1.736,6.3653,3.1578,9.3173z"/>
  <path d="m123.13,19.135c0,5.094,0.26269,9.7766,0.26269,15.084l0.002,19.981c3.1597-4.3004,6.6739-7.4987,10.589-10.827l0.25535,0.30127c-3.9624,3.3709-7.7632,7.6456-10.844,12.104v10.906l-0.33434,0.75869c-1.183-1.6496-3.2276-3.685-5.2888-5.0426l0.21493-0.33066c1.4788,0.86523,3.0164,1.7617,4.4897,3.3085v-26.414c-1.8664-2.908-4.8662-6.9311-7.1846-9.1024l0.27371-0.28474c2.7684,2.6655,4.5925,4.4492,6.9108,7.7742v-3.1321c0-5.3016,0.25718-9.9915,0.25718-15.084h0.3968z"/>
  <path d="m37.353,23.522c-2.3973,5.2667-4.2821,11.083-5.4394,16.901,2.4524-3.0256,5.5551-4.4988,8.8434-6.2771l0.18738,0.34903c-3.3893,1.8315-7.2525,4.5613-9.4239,8.0682-0.17084,1.0177-0.31964,2.0354-0.44272,3.0458-0.58784,4.8111-0.47395,9.4165,0.67602,13.342,0.97178,3.3195,2.2834,6.132,5.0849,8.3456l-0.244,0.309c-2.756-2.178-4.723-5.037-5.7-8.336-0.623-2.109-0.957-4.4-1.051-6.808-3.079-1.372-5.028-4.745-6.461-7.142l0.33066-0.2186c1.4237,2.2926,3.5271,4.9489,6.1044,6.1852-0.0147-1.8591,0.10655-3.7787,0.34168-5.7315,0.94239-7.8073,3.6226-15.064,6.8355-22.206l0.35822,0.17268z"/>
  <path d="m71.955,26.136c-2.1989,3.8853-3.8026,8.5862-4.7781,13.408,2.1254-2.2375,4.2178-3.6795,6.9751-4.9434l0.16349,0.35822c-2.728,1.2528-5.3824,3.8871-7.4601,6.3101-0.61724,3.6226-0.87993,7.2691-0.77155,10.645,2.6765-2.2007,5.0518-3.1523,8.0902-4.1314l0.11941,0.37659c-2.8455,0.91667-5.7884,2.84-8.1582,4.9085,0.2829,4.6807,1.6331,11.38,6.3395,13.434l-0.15798,0.36189c-5.362-2.342-6.774-8.441-7.088-13.748-2.864-2.429-4.31-4.8-6.02-7.807l0.34352-0.19656c1.3722,2.412,3.4168,4.7579,5.6194,6.7327-0.27372-8.9573,2.0409-18.131,6.4406-25.906l0.34352,0.19656z"/>
  <path d="m90.097,109.81-0.02204-0.37108c1.7893,0.79176,3.5142,1.4366,5.5478,1.6974-2.2503-2.2871-2.8235-5.6249-2.93-8.8103-2.5296-2.1016-3.8596-4.1884-5.5276-6.7308l0.33066-0.21677c1.3208,2.0134,3.2313,4.4382,5.1767,5.7627,0.0018-5.4063,1.2933-10.585,3.3893-15.477l0.36557,0.15615c-0.62458,1.4568-1.1408,3.0256-1.5523,4.6495,1.3502-0.99566,2.2926-1.4641,3.7934-2.1254l0.16717,0.35822c-1.3833,0.63193-2.8841,1.6129-4.1719,2.6398-0.74766,3.2552-1.093,6.6886-1.0765,9.8758,2.2632-1.4292,4.6421-2.581,7.0964-3.5785l0.16717,0.35822c-2.5608,1.1481-5.1381,2.5424-7.2452,4.2582,0.11022,3.2166,0.7844,7.7889,3.5234,9.6094l0.0092,0.007c-2.5975-0.22412-4.7395-0.77706-7.0413-2.063z"/>
  <path d="m29.101,152.07c1.1647-6.9439,2.2761-14.015,5.8564-20.218-2.1346,1.0985-4.2692,1.7305-6.65,1.9417v0.002l-0.03858,0.002-0.03123-0.39496,0.03674-0.004v0.002c2.4506-0.21494,6.6665-1.7782,8.1508-3.8228,2.3238-3.1909,5.2906-5.399,9.0014-6.9678l0.15247,0.36373c-3.5785,1.5137-6.5287,4.3886-8.7111,7.5611,0.90197,2.2632,1.8866,4.0892,3.9202,5.7444l-0.24983,0.30861c-1.9436-1.5817-3.1762-3.0696-4.2233-5.2116-1.4788,2.3385-2.6159,4.9122-3.5528,7.5097,0.834,3.4444,1.8444,6.5196,3.7861,9.4514l-0.33066,0.21861c-1.826-2.7574-3.055-5.2814-3.9073-8.3658-1.2914,3.8981-2.1475,7.9432-2.8198,11.946l-0.38945-0.0661z"/>
  <path d="m212.47,102.71c-1.6294-2.0777-2.8694-3.7861-4.7468-5.4155l-0.25902,0.29943c1.8352,1.5909,3.1082,4.0175,4.5576,6.007-0.69439,1.3208-1.4843,2.5608-2.3863,3.7016-1.8168,2.2963-3.9955,4.3813-6.5398,5.6507l0.17819,0.35638c2.8566-1.4255,4.9563-2.761,7.0688-5.4247,0.95524-1.2069,1.7874-2.5167,2.5167-3.911,2.3459-0.42802,4.7597-1.646,6.9347-2.5296l-0.1488-0.36741c-1.7819,0.72379-4.1645,1.5321-6.2918,1.9032,3.02-6.3506,3.6446-13.221,4.3574-20.099l-0.39312-0.04225c-0.32332,3.1082-0.76787,6.3175-1.4494,9.479-1.6276-2.3991-3.2919-4.4346-5.3108-6.5673l-0.28658,0.27004c2.1089,2.2283,3.6538,4.6881,5.3567,7.3719-0.744,3.1854-1.736,6.3653-3.1578,9.3173z"/>
  <path d="m209.77,23.522c2.3955,5.2667,4.2821,11.083,5.4394,16.901-2.4524-3.0256-5.5551-4.4988-8.8452-6.2771l-0.18737,0.34903c3.3911,1.8315,7.2525,4.5613,9.4257,8.0682,0.17084,1.0177,0.31964,2.0354,0.44272,3.0458,0.58784,4.8111,0.47395,9.4165-0.67602,13.342-0.97178,3.3195-2.2834,6.132-5.0867,8.3456l0.24616,0.31046c2.7555-2.1787,4.723-5.0371,5.7003-8.3364,0.62275-2.1089,0.95708-4.3996,1.0508-6.808,3.077-1.3722,5.0279-4.745,6.4589-7.1423l-0.32883-0.2186c-1.4237,2.2926-3.5271,4.9489-6.1044,6.1852,0.0147-1.8591-0.10655-3.7787-0.34352-5.7315-0.94055-7.8073-3.6208-15.064-6.8355-22.206l-0.35638,0.17268z"/>
  <path d="m175.16,26.136c2.2007,3.8853,3.8045,8.5862,4.7799,13.408-2.1273-2.2375-4.2178-3.6795-6.9751-4.9434l-0.16349,0.35822c2.728,1.2528,5.3824,3.8871,7.4601,6.3101,0.61724,3.6226,0.87809,7.2691,0.77155,10.645-2.6765-2.2007-5.0518-3.1523-8.0902-4.1314l-0.12125,0.37659c2.8474,0.91667,5.7903,2.84,8.16,4.9085-0.2829,4.6807-1.6331,11.38-6.3395,13.434l0.15799,0.36189c5.3622-2.3422,6.7749-8.4411,7.089-13.748,2.8639-2.4285,4.3096-4.8001,6.0199-7.8073l-0.34352-0.19656c-1.3722,2.412-3.4168,4.7579-5.6213,6.7327,0.27556-8.9573-2.0391-18.131-6.4387-25.906l-0.34536,0.19656z"/>
  <path d="m157.02,109.81,0.0202-0.37108c-1.7892,0.79176-3.5142,1.4366-5.5478,1.6974,2.2522-2.2871,2.8253-5.6249,2.9319-8.8103,2.5296-2.1016,3.8596-4.1884,5.5276-6.7308l-0.33067-0.21677c-1.3208,2.0134-3.2313,4.4382-5.1767,5.7627-0.002-5.4063-1.2933-10.585-3.3893-15.477l-0.36557,0.15615c0.62459,1.4568,1.1408,3.0256,1.5523,4.6495-1.3502-0.99566-2.2944-1.4641-3.7934-2.1254l-0.16717,0.35822c1.3814,0.63193,2.8841,1.6129,4.1719,2.6398,0.74766,3.2552,1.093,6.6886,1.0765,9.8758-2.2632-1.4292-4.6421-2.581-7.0964-3.5785l-0.16716,0.35822c2.5608,1.1481,5.1381,2.5424,7.2452,4.2582-0.11022,3.2166-0.78441,7.7889-3.5234,9.6094l-0.009,0.007c2.5957-0.22412,4.7395-0.77706,7.0413-2.063z"/>
  <path d="m218.02,152.07c-1.1647-6.9439-2.2761-14.015-5.8564-20.218,2.1346,1.0985,4.2674,1.7305,6.6482,1.9417l0.002,0.002,0.0367,0.002,0.0331-0.39496-0.0367-0.004v0.002c-2.4506-0.21494-6.6665-1.7782-8.1508-3.8228-2.3238-3.1909-5.2906-5.399-9.0014-6.9678l-0.15247,0.36373c3.5785,1.5137,6.5288,4.3886,8.7111,7.5611-0.90381,2.2632-1.8866,4.0892-3.9202,5.7444l0.24984,0.30861c1.9417-1.5817,3.1762-3.0696,4.2233-5.2116,1.477,2.3385,2.6159,4.9122,3.5528,7.5097-0.834,3.4444-1.8444,6.5196-3.7861,9.4514l0.32883,0.21861c1.826-2.7574,3.0568-5.2814,3.9092-8.3658,1.2914,3.8981,2.1475,7.9432,2.818,11.946l0.39128-0.0661z"/>
 </g>
 <g fill-rule="evenodd" transform="matrix(1.8370136,0,0,1.8370136,-422.76414,-740.1415)">
  <path d="m263.19,476.93,0,4.119c0,3.527,1.852,6.461,4.296,7.075v0.553c0,1.004,1.907,0.92,1.907,0v-0.553c2.443-0.614,4.296-3.549,4.296-7.075v-4.11h-10.51z" stroke="#003d8f" stroke-miterlimit="4" stroke-dasharray="none" stroke-width="0.43548942" fill="#ffcd50"/>
  <path d="m269.83,487.14c1.721-2.211,1.729-4.853,1.455-9.649h1.258c0.05,5.102-0.267,8.599-2.713,9.649z" fill="#003d8f"/>
  <path d="m268.44,472.39c3.243,0,5.873,2.63,5.873,5.872h-11.745c0-3.242,2.63-5.872,5.872-5.872z" stroke="#003d8f" stroke-miterlimit="4" stroke-dasharray="none" stroke-width="0.43548942" fill="#ffcd50"/>
  <path d="m268.45,476.27c1.101-0.826,2.387-1.365,3.689-1.593m-5.223,0.842c0.998-0.935,2.255-1.608,3.552-1.945m2.434,3.479c-1.172-2.27-3.116-3.392-5.398-3.367m3.437,2.836c-1.157-1.437-2.791-2.145-4.609-2.126" stroke="#003d8f" stroke-miterlimit="4" stroke-dasharray="none" stroke-width="0.38105324" fill="none"/>
 </g>
 <g fill-rule="evenodd" transform="matrix(1.8370136,0,0,1.8370136,-316.36156,-740.1415)">
  <path d="m263.19,476.93,0,4.119c0,3.527,1.852,6.461,4.296,7.075v0.553c0,1.004,1.907,0.92,1.907,0v-0.553c2.443-0.614,4.296-3.549,4.296-7.075v-4.11h-10.51z" stroke="#003d8f" stroke-miterlimit="4" stroke-dasharray="none" stroke-width="0.43548942" fill="#ffcd50"/>
  <path d="m269.83,487.14c1.721-2.211,1.729-4.853,1.455-9.649h1.258c0.05,5.102-0.267,8.599-2.713,9.649z" fill="#003d8f"/>
  <path d="m268.44,472.39c3.243,0,5.873,2.63,5.873,5.872h-11.745c0-3.242,2.63-5.872,5.872-5.872z" stroke="#003d8f" stroke-miterlimit="4" stroke-dasharray="none" stroke-width="0.43548942" fill="#ffcd50"/>
  <path d="m268.45,476.27c1.101-0.826,2.387-1.365,3.689-1.593m-5.223,0.842c0.998-0.935,2.255-1.608,3.552-1.945m2.434,3.479c-1.172-2.27-3.116-3.392-5.398-3.367m3.437,2.836c-1.157-1.437-2.791-2.145-4.609-2.126" stroke="#003d8f" stroke-miterlimit="4" stroke-dasharray="none" stroke-width="0.38105324" fill="none"/>
 </g>
 <g transform="matrix(1.8370136,0,0,-1.8370136,-428.44602,977.09297)" fill-rule="evenodd">
  <path d="m263.19,476.93,0,4.119c0,3.527,1.852,6.461,4.296,7.075v0.553c0,1.004,1.907,0.92,1.907,0v-0.553c2.443-0.614,4.296-3.549,4.296-7.075v-4.119h-10.499z" stroke="#003d8f" stroke-miterlimit="4" stroke-dasharray="none" stroke-width="0.43548942" fill="#ffcd50"/>
  <path d="m269.83,487.14c1.721-2.211,1.729-4.853,1.455-9.649h1.258c0.05,5.102-0.267,8.599-2.713,9.649z" fill="#003d8f"/>
  <path d="m268.44,472.39c3.243,0,5.873,2.63,5.873,5.872h-11.745c0-3.242,2.63-5.872,5.872-5.872z" stroke="#003d8f" stroke-miterlimit="4" stroke-dasharray="none" stroke-width="0.43548942" fill="#ffcd50"/>
  <path d="m268.45,476.27c1.101-0.826,2.387-1.365,3.689-1.593m-5.223,0.842c0.998-0.935,2.255-1.608,3.552-1.945m2.434,3.479c-1.172-2.27-3.116-3.392-5.398-3.367m3.437,2.836c-1.157-1.437-2.791-2.145-4.609-2.126" stroke="#003d8f" stroke-miterlimit="4" stroke-dasharray="none" stroke-width="0.38105325" fill="none"/>
 </g>
 <g transform="matrix(1.8370136,0,0,-1.8370136,-310.67876,977.09297)" fill-rule="evenodd">
  <path d="m263.19,476.93,0,4.119c0,3.527,1.852,6.461,4.296,7.075v0.553c0,1.004,1.907,0.92,1.907,0v-0.553c2.443-0.614,4.296-3.549,4.296-7.075v-4.119h-10.499z" stroke="#003d8f" stroke-dasharray="none" stroke-miterlimit="4" stroke-width="0.43548942" fill="#ffcd50"/>
  <path d="m269.83,487.14c1.721-2.211,1.729-4.853,1.455-9.649h1.258c0.05,5.102-0.267,8.599-2.713,9.649z" fill="#003d8f"/>
  <path d="m268.44,472.39c3.243,0,5.873,2.63,5.873,5.872h-11.745c0-3.242,2.63-5.872,5.872-5.872z" stroke="#003d8f" stroke-dasharray="none" stroke-miterlimit="4" stroke-width="0.43548942" fill="#ffcd50"/>
  <path d="m268.45,476.27c1.101-0.826,2.387-1.365,3.689-1.593m-5.223,0.842c0.998-0.935,2.255-1.608,3.552-1.945m2.434,3.479c-1.172-2.27-3.116-3.392-5.398-3.367m3.437,2.836c-1.157-1.437-2.791-2.145-4.609-2.126" stroke="#003d8f" stroke-dasharray="none" stroke-miterlimit="4" stroke-width="0.38105325" fill="none"/>
 </g>
 <g transform="matrix(1.8370136,0,0,-1.8370136,-398.22715,934.2174)" fill-rule="evenodd">
  <path d="m263.19,476.93,0,4.119c0,3.527,1.852,6.461,4.296,7.075v0.553c0,1.004,1.907,0.92,1.907,0v-0.553c2.443-0.614,4.296-3.549,4.296-7.075v-4.119h-10.499z" stroke="#003d8f" stroke-dasharray="none" stroke-miterlimit="4" stroke-width="0.43548942" fill="#ffcd50"/>
  <path d="m269.83,487.14c1.721-2.211,1.729-4.853,1.455-9.649h1.258c0.05,5.102-0.267,8.599-2.713,9.649z" fill="#003d8f"/>
  <path d="m268.44,472.39c3.243,0,5.873,2.63,5.873,5.872h-11.745c0-3.242,2.63-5.872,5.872-5.872z" stroke="#003d8f" stroke-dasharray="none" stroke-miterlimit="4" stroke-width="0.43548942" fill="#ffcd50"/>
  <path d="m268.45,476.27c1.101-0.826,2.387-1.365,3.689-1.593m-5.223,0.842c0.998-0.935,2.255-1.608,3.552-1.945m2.434,3.479c-1.172-2.27-3.116-3.392-5.398-3.367m3.437,2.836c-1.157-1.437-2.791-2.145-4.609-2.126" stroke="#003d8f" stroke-dasharray="none" stroke-miterlimit="4" stroke-width="0.38105325" fill="none"/>
 </g>
 <g transform="matrix(1.8370136,0,0,-1.8370136,-340.89763,934.2174)" fill-rule="evenodd">
  <path d="m263.19,476.93,0,4.119c0,3.527,1.852,6.461,4.296,7.075v0.553c0,1.004,1.907,0.92,1.907,0v-0.553c2.443-0.614,4.296-3.549,4.296-7.075v-4.119h-10.499z" stroke="#003d8f" stroke-miterlimit="4" stroke-dasharray="none" stroke-width="0.43548942" fill="#ffcd50"/>
  <path d="m269.83,487.14c1.721-2.211,1.729-4.853,1.455-9.649h1.258c0.05,5.102-0.267,8.599-2.713,9.649z" fill="#003d8f"/>
  <path d="m268.44,472.39c3.243,0,5.873,2.63,5.873,5.872h-11.745c0-3.242,2.63-5.872,5.872-5.872z" stroke="#003d8f" stroke-miterlimit="4" stroke-dasharray="none" stroke-width="0.43548942" fill="#ffcd50"/>
  <path d="m268.45,476.27c1.101-0.826,2.387-1.365,3.689-1.593m-5.223,0.842c0.998-0.935,2.255-1.608,3.552-1.945m2.434,3.479c-1.172-2.27-3.116-3.392-5.398-3.367m3.437,2.836c-1.157-1.437-2.791-2.145-4.609-2.126" stroke="#003d8f" stroke-miterlimit="4" stroke-dasharray="none" stroke-width="0.38105325" fill="none"/>
 </g>
 <g transform="translate(200,0)">
  <path d="m-102.91,153.39c0.26398,1.3015,0.50891,2.6001,0.75,3.9062h51.406c0.24109-1.3062,0.48602-2.6047,0.75-3.9062zm53.219-1.3438c1.7746-8.4905,4.0183-16.904,6.625-25.188-2.5708-0.67161-5.296,0.73418-6.2188,3.2812-0.20017,0.5569-0.3045,1.0988-0.3125,1.6562-0.0821-0.037-0.1628-0.0571-0.25-0.0937-2.6989-0.97341-5.6797,0.42458-6.6562,3.125-0.97342,2.6989,0.42915,5.6813,3.125,6.6562,0.9223,0.33064,1.8835,0.39763,2.7812,0.21875-0.79065,5.1337-8.591,7.6912-12,2.2188-3.6202,5.261-10.849,3.8792-12.094-2.3438,0.91756,0.79918,2.1282,1.253,3.4375,1.25,2.871-0.01,5.1965-2.3165,5.1875-5.1875-0.01-2.871-2.3477-5.1981-5.2188-5.1875-0.0919-0.004-0.18905-0.006-0.28125,0,0.1775-0.52888,0.252-1.1007,0.25-1.6875-0.01-2.871-2.3236-5.1875-5.125-5.1875s-5.1467,2.3165-5.1562,5.1875c-0.002,0.58681,0.10378,1.1586,0.28125,1.6875-0.0922-0.006-0.18931-0.004-0.28125,0-2.871-0.0106-5.2092,2.3165-5.2188,5.1875-0.01,2.871,2.3165,5.1779,5.1875,5.1875,1.3093,0.003,2.4887-0.45082,3.4062-1.25-1.2444,6.223-8.4736,7.6047-12.094,2.3438-3.409,5.4725-11.178,2.915-11.969-2.2188,0.89779,0.17888,1.859,0.11189,2.7812-0.21875,2.6958-0.97492,4.0984-3.9573,3.125-6.6562-0.97651-2.7004-3.9573-4.0984-6.6562-3.125-0.0873,0.0367-0.19913,0.0568-0.28125,0.0937-0.008-0.55744-0.0811-1.0994-0.28125-1.6562-0.9228-2.5471-3.6479-3.9529-6.2188-3.2812,2.6067,8.2833,4.8191,16.697,6.5938,25.188z" stroke="#003d8f" stroke-miterlimit="4" stroke-dasharray="none" stroke-width="5" fill="none"/>
  <path fill="#ffcd50" d="m-102.91,153.39c0.26398,1.3015,0.50891,2.6001,0.75,3.9062h51.406c0.24109-1.3062,0.48602-2.6047,0.75-3.9062zm53.219-1.3438c1.7746-8.4905,4.0183-16.904,6.625-25.188-2.5708-0.67161-5.296,0.73418-6.2188,3.2812-0.20017,0.5569-0.3045,1.0988-0.3125,1.6562-0.0821-0.037-0.1628-0.0571-0.25-0.0937-2.6989-0.97341-5.6797,0.42458-6.6562,3.125-0.97342,2.6989,0.42915,5.6813,3.125,6.6562,0.9223,0.33064,1.8835,0.39763,2.7812,0.21875-0.79065,5.1337-8.591,7.6912-12,2.2188-3.6202,5.261-10.849,3.8792-12.094-2.3438,0.91756,0.79918,2.1282,1.253,3.4375,1.25,2.871-0.01,5.1965-2.3165,5.1875-5.1875-0.01-2.871-2.3477-5.1981-5.2188-5.1875-0.0919-0.004-0.18905-0.006-0.28125,0,0.1775-0.52888,0.252-1.1007,0.25-1.6875-0.01-2.871-2.3236-5.1875-5.125-5.1875s-5.1467,2.3165-5.1562,5.1875c-0.002,0.58681,0.10378,1.1586,0.28125,1.6875-0.0922-0.006-0.18931-0.004-0.28125,0-2.871-0.0106-5.2092,2.3165-5.2188,5.1875-0.01,2.871,2.3165,5.1779,5.1875,5.1875,1.3093,0.003,2.4887-0.45082,3.4062-1.25-1.2444,6.223-8.4736,7.6047-12.094,2.3438-3.409,5.4725-11.178,2.915-11.969-2.2188,0.89779,0.17888,1.859,0.11189,2.7812-0.21875,2.6958-0.97492,4.0984-3.9573,3.125-6.6562-0.97651-2.7004-3.9573-4.0984-6.6562-3.125-0.0873,0.0367-0.19913,0.0568-0.28125,0.0937-0.008-0.55744-0.0811-1.0994-0.28125-1.6562-0.9228-2.5471-3.6479-3.9529-6.2188-3.2812,2.6067,8.2833,4.8191,16.697,6.5938,25.188z"/>
 </g>
 <g transform="translate(200,69.37762)">
  <path d="m-102.91,153.39c0.26398,1.3015,0.50891,2.6001,0.75,3.9062h51.406c0.24109-1.3062,0.48602-2.6047,0.75-3.9062zm53.219-1.3438c1.7746-8.4905,4.0183-16.904,6.625-25.188-2.5708-0.67161-5.296,0.73418-6.2188,3.2812-0.20017,0.5569-0.3045,1.0988-0.3125,1.6562-0.0821-0.037-0.1628-0.0571-0.25-0.0937-2.6989-0.97341-5.6797,0.42458-6.6562,3.125-0.97342,2.6989,0.42915,5.6813,3.125,6.6562,0.9223,0.33064,1.8835,0.39763,2.7812,0.21875-0.79065,5.1337-8.591,7.6912-12,2.2188-3.6202,5.261-10.849,3.8792-12.094-2.3438,0.91756,0.79918,2.1282,1.253,3.4375,1.25,2.871-0.01,5.1965-2.3165,5.1875-5.1875-0.01-2.871-2.3477-5.1981-5.2188-5.1875-0.0919-0.004-0.18905-0.006-0.28125,0,0.1775-0.52888,0.252-1.1007,0.25-1.6875-0.01-2.871-2.3236-5.1875-5.125-5.1875s-5.1467,2.3165-5.1562,5.1875c-0.002,0.58681,0.10378,1.1586,0.28125,1.6875-0.0922-0.006-0.18931-0.004-0.28125,0-2.871-0.0106-5.2092,2.3165-5.2188,5.1875-0.01,2.871,2.3165,5.1779,5.1875,5.1875,1.3093,0.003,2.4887-0.45082,3.4062-1.25-1.2444,6.223-8.4736,7.6047-12.094,2.3438-3.409,5.4725-11.178,2.915-11.969-2.2188,0.89779,0.17888,1.859,0.11189,2.7812-0.21875,2.6958-0.97492,4.0984-3.9573,3.125-6.6562-0.97651-2.7004-3.9573-4.0984-6.6562-3.125-0.0873,0.0367-0.19913,0.0568-0.28125,0.0937-0.008-0.55744-0.0811-1.0994-0.28125-1.6562-0.9228-2.5471-3.6479-3.9529-6.2188-3.2812,2.6067,8.2833,4.8191,16.697,6.5938,25.188z" stroke="#003d8f" stroke-dasharray="none" stroke-miterlimit="4" stroke-width="5" fill="none"/>
  <path fill="#ffcd50" d="m-102.91,153.39c0.26398,1.3015,0.50891,2.6001,0.75,3.9062h51.406c0.24109-1.3062,0.48602-2.6047,0.75-3.9062zm53.219-1.3438c1.7746-8.4905,4.0183-16.904,6.625-25.188-2.5708-0.67161-5.296,0.73418-6.2188,3.2812-0.20017,0.5569-0.3045,1.0988-0.3125,1.6562-0.0821-0.037-0.1628-0.0571-0.25-0.0937-2.6989-0.97341-5.6797,0.42458-6.6562,3.125-0.97342,2.6989,0.42915,5.6813,3.125,6.6562,0.9223,0.33064,1.8835,0.39763,2.7812,0.21875-0.79065,5.1337-8.591,7.6912-12,2.2188-3.6202,5.261-10.849,3.8792-12.094-2.3438,0.91756,0.79918,2.1282,1.253,3.4375,1.25,2.871-0.01,5.1965-2.3165,5.1875-5.1875-0.01-2.871-2.3477-5.1981-5.2188-5.1875-0.0919-0.004-0.18905-0.006-0.28125,0,0.1775-0.52888,0.252-1.1007,0.25-1.6875-0.01-2.871-2.3236-5.1875-5.125-5.1875s-5.1467,2.3165-5.1562,5.1875c-0.002,0.58681,0.10378,1.1586,0.28125,1.6875-0.0922-0.006-0.18931-0.004-0.28125,0-2.871-0.0106-5.2092,2.3165-5.2188,5.1875-0.01,2.871,2.3165,5.1779,5.1875,5.1875,1.3093,0.003,2.4887-0.45082,3.4062-1.25-1.2444,6.223-8.4736,7.6047-12.094,2.3438-3.409,5.4725-11.178,2.915-11.969-2.2188,0.89779,0.17888,1.859,0.11189,2.7812-0.21875,2.6958-0.97492,4.0984-3.9573,3.125-6.6562-0.97651-2.7004-3.9573-4.0984-6.6562-3.125-0.0873,0.0367-0.19913,0.0568-0.28125,0.0937-0.008-0.55744-0.0811-1.0994-0.28125-1.6562-0.9228-2.5471-3.6479-3.9529-6.2188-3.2812,2.6067,8.2833,4.8191,16.697,6.5938,25.188z"/>
 </g>
 <g transform="translate(200,34.688812)">
  <path d="m-102.91,153.39c0.26398,1.3015,0.50891,2.6001,0.75,3.9062h51.406c0.24109-1.3062,0.48602-2.6047,0.75-3.9062zm53.219-1.3438c1.7746-8.4905,4.0183-16.904,6.625-25.188-2.5708-0.67161-5.296,0.73418-6.2188,3.2812-0.20017,0.5569-0.3045,1.0988-0.3125,1.6562-0.0821-0.037-0.1628-0.0571-0.25-0.0937-2.6989-0.97341-5.6797,0.42458-6.6562,3.125-0.97342,2.6989,0.42915,5.6813,3.125,6.6562,0.9223,0.33064,1.8835,0.39763,2.7812,0.21875-0.79065,5.1337-8.591,7.6912-12,2.2188-3.6202,5.261-10.849,3.8792-12.094-2.3438,0.91756,0.79918,2.1282,1.253,3.4375,1.25,2.871-0.01,5.1965-2.3165,5.1875-5.1875-0.01-2.871-2.3477-5.1981-5.2188-5.1875-0.0919-0.004-0.18905-0.006-0.28125,0,0.1775-0.52888,0.252-1.1007,0.25-1.6875-0.01-2.871-2.3236-5.1875-5.125-5.1875s-5.1467,2.3165-5.1562,5.1875c-0.002,0.58681,0.10378,1.1586,0.28125,1.6875-0.0922-0.006-0.18931-0.004-0.28125,0-2.871-0.0106-5.2092,2.3165-5.2188,5.1875-0.01,2.871,2.3165,5.1779,5.1875,5.1875,1.3093,0.003,2.4887-0.45082,3.4062-1.25-1.2444,6.223-8.4736,7.6047-12.094,2.3438-3.409,5.4725-11.178,2.915-11.969-2.2188,0.89779,0.17888,1.859,0.11189,2.7812-0.21875,2.6958-0.97492,4.0984-3.9573,3.125-6.6562-0.97651-2.7004-3.9573-4.0984-6.6562-3.125-0.0873,0.0367-0.19913,0.0568-0.28125,0.0937-0.008-0.55744-0.0811-1.0994-0.28125-1.6562-0.9228-2.5471-3.6479-3.9529-6.2188-3.2812,2.6067,8.2833,4.8191,16.697,6.5938,25.188z" stroke="#003d8f" stroke-dasharray="none" stroke-miterlimit="4" stroke-width="5" fill="none"/>
  <path fill="#ffcd50" d="m-102.91,153.39c0.26398,1.3015,0.50891,2.6001,0.75,3.9062h51.406c0.24109-1.3062,0.48602-2.6047,0.75-3.9062zm53.219-1.3438c1.7746-8.4905,4.0183-16.904,6.625-25.188-2.5708-0.67161-5.296,0.73418-6.2188,3.2812-0.20017,0.5569-0.3045,1.0988-0.3125,1.6562-0.0821-0.037-0.1628-0.0571-0.25-0.0937-2.6989-0.97341-5.6797,0.42458-6.6562,3.125-0.97342,2.6989,0.42915,5.6813,3.125,6.6562,0.9223,0.33064,1.8835,0.39763,2.7812,0.21875-0.79065,5.1337-8.591,7.6912-12,2.2188-3.6202,5.261-10.849,3.8792-12.094-2.3438,0.91756,0.79918,2.1282,1.253,3.4375,1.25,2.871-0.01,5.1965-2.3165,5.1875-5.1875-0.01-2.871-2.3477-5.1981-5.2188-5.1875-0.0919-0.004-0.18905-0.006-0.28125,0,0.1775-0.52888,0.252-1.1007,0.25-1.6875-0.01-2.871-2.3236-5.1875-5.125-5.1875s-5.1467,2.3165-5.1562,5.1875c-0.002,0.58681,0.10378,1.1586,0.28125,1.6875-0.0922-0.006-0.18931-0.004-0.28125,0-2.871-0.0106-5.2092,2.3165-5.2188,5.1875-0.01,2.871,2.3165,5.1779,5.1875,5.1875,1.3093,0.003,2.4887-0.45082,3.4062-1.25-1.2444,6.223-8.4736,7.6047-12.094,2.3438-3.409,5.4725-11.178,2.915-11.969-2.2188,0.89779,0.17888,1.859,0.11189,2.7812-0.21875,2.6958-0.97492,4.0984-3.9573,3.125-6.6562-0.97651-2.7004-3.9573-4.0984-6.6562-3.125-0.0873,0.0367-0.19913,0.0568-0.28125,0.0937-0.008-0.55744-0.0811-1.0994-0.28125-1.6562-0.9228-2.5471-3.6479-3.9529-6.2188-3.2812,2.6067,8.2833,4.8191,16.697,6.5938,25.188z"/>
 </g>
</svg>
