<!-- Created with Inkscape (http://www.inkscape.org/) -->
<svg xmlns:rdf="http://www.w3.org/1999/02/22-rdf-syntax-ns#" xmlns="http://www.w3.org/2000/svg" height="300" width="248" version="1.0" xmlns:cc="http://creativecommons.org/ns#" xmlns:dc="http://purl.org/dc/elements/1.1/">
 <metadata>
  <rdf:RDF>
   <cc:Work rdf:about="">
    <dc:format>image/svg+xml</dc:format>
    <dc:type rdf:resource="http://purl.org/dc/dcmitype/StillImage"/>
    <dc:title/>
   </cc:Work>
  </rdf:RDF>
 </metadata>
 <path d="m247,1.0001,0,214.77c0,82.42-84.912,44.012-123,82.791-38.089-38.77-123-0.37-123-82.79v-214.77z" stroke="#000" stroke-dasharray="none" stroke-miterlimit="4" stroke-width="2" fill="#d40000"/>
 <path d="m205.19,107.21c6.2719,8.3857,11.957,17.137,14.299,27.983-3.5346-5.7922-7.839-10.554-12.915-14.287,19.081,25.302,24.092,54.653,17.445,87.363-1.0377-17.326-6.6414-32.073-14.842-42.379,10.124,26.525,9.871,55.922-9.7346,76.455,4.5697-15.178,2.5043-28.683-5.0111-40.352-0.20332,24.908-4.5797,51.697-32.092,64.291,5.7711-13.254,7.5923-26.119,4.5288-38.517-6.1393,24.892-25.881,44.857-59.559,43.73,12.66-6.6067,23.5-19.536,27.564-32.725-17.768,14.237-48.616,23.534-72.186,14.769,17.659-4.5784,33.248-11.873,42.791-22.588-25.657,10.166-51.467,5.8913-67.97-4.1247,26.35-1.4034,63.016-10.286,68.195-36.512,1.758-8.9002-2.2626-15.657-7.7001-17.389-3.7193-1.184-8.8866-0.25043-11.75,4.4222-2.8738,4.6888-7.0294,8.4725-12.107,10.083,5.6607-5.238,9.1655-11.05,7.9295-18.129-1.3216,4.5747-4.4532,8.0287-9.2226,9.1506,3.4775-2.9915,5.6037-7.0207,4.4817-11.395-2.9866,3.8556-6.5484,6.5608-10.687,8.1142,4.261-3.9709,7.7435-7.8849,5.7748-11.395,13.553-0.56905,27.442-0.12273,41.455,0.69055-6.9761-1.7828-14.748-2.7597-20.82-5.7686,12.51-0.67195,24.416-2.9345,34.109-10.744,10.058-8.1018,8.2084-15.767-1.6092-22.41-13.48-9.11-31.814-8.36-43.746-20.25-9.273-9.243-13.631-23.711-7.772-32.768,12.861-1.649,30.838-2.673,50.728-2.673,16.662,0,31.98,0.71906,44.075,1.9216-7.1633,3.9052-12.721,10.549-15.114,16.412l1.0612,0.63476c3.8036-5.9707,9.2275-10.589,15.134-14.473,14.335-9.4296,49.677-3.2816,65.433-17.169-1.2844,24.448-12.776,38.843-31.355,46.26-4.8065,1.9204-9.5784,3.8457-14.478,5.5343-4.9169,1.6948-7.3257,3.5755-6.21,9.7916l1.2348-0.0483c0.38929-4.5524,2.1076-5.507,5.9992-6.6339,4.9528-1.4344,9.9218-2.7572,14.651-4.8623z" fill-rule="evenodd" fill="#ffcd50"/>
 <path d="M20.813,141.1c-10.383-15.73-10.623-41.3-1.567-51.306,7.423-8.204,21.534-10.119,36.99-10.139-1.9687,8.5394,1.0947,14.116,8.1737,15.501,2.3493,0.45995,3.9995-0.65707,3.9437-3.3188-0.06323-3.0176-2.2688-3.8061-4.566-4.8078-3.7168-1.6216-5.2281-4.4954-5.3582-8.6275,1.9849-3.3325,6.5732-4.1445,10.972-2.3506-0.61616,22.644,9.6143,36.129,28.839,42.004,18.06,5.5194,31.774,12.047,29.602,22.334-2.7622,13.078-28.878,17.049-42.297,16.693,3.1862,2.2675,6.3736,3.7825,9.561,4.5462-9.7618-0.25663-19.597-0.64715-29.356-0.0521-8.8829,0.5393-19.996,2.9977-29.263,1.6191,1.0178-11.061,15.638-10.509,39.497-9.2474,9.9342,0.52442,36.41,0.94841,43.28-8.5084,10.089-13.89-19.009-23.664-32.935-23.78,1.3575,12.24-26.025,3.9139-33.228,2.8403-21.604-3.2209-34.548-2.6196-32.288,16.595z" fill-rule="evenodd" fill="#ffcd50"/>
 <path d="m173.29,100.4c-3.9276,5.5492-14.421,2.9085-18.996-0.17853l-0.17356,0.20456c2.3555,5.1202,17.667,11.512,21.951-2.1485-5.1785,0.36821-5.3409-3.9833-1.6724-5.6558,3.9189-1.7852,9.1841-2.6196,14.576-3.2866,7.0988-0.87775,13.067-0.54797,19.313-7.7348,7.8477-0.60004,14.814-5.1983,18.312-12.303l-1.1083-0.54797c-4.2858,9.0056-20.378,14.038-29.072,6.9538l-0.89634,0.85295c2.4473,3.5507,6.4095,5.0148,10.648,5.1066-4.6813,4.359-12.333,4.8995-17.349,5.3012-5.8628,0.47235-11.589,0.85915-15.563,2.2266-7.0059,2.4101-7.5886,10.085,0.0298,11.21z" fill-rule="evenodd" fill="#d20000"/>
 <path d="m124.81,11.454c5.0086,0,9.075,4.7507,9.075,10.604,0,5.8541-4.0664,10.605-9.075,10.605-5.0098,0-9.075-4.7507-9.075-10.605,0-5.8529,4.0652-10.604,9.075-10.604z" fill-rule="evenodd" fill="#ffcd50"/>
 <path d="m70.998,28.247c4.7532,0,8.6089,3.8556,8.6089,8.6101s-3.8556,8.6101-8.6089,8.6101c-0.27275,0-0.54177-0.01364-0.80708-0.03843,0.50706,1.5373,0.99676,2.9469,2.0766,4.2648,3.6003,4.3949,10.092,5.1227,14.778,3.8693,3.6486-0.97445,6.4232-3.7651,6.5025-8.6634-2.9134-0.01984-5.2702-2.3878-5.2702-5.3062,0-2.9295,2.3766-5.3062,5.3074-5.3062,2.9295,0,5.3062,2.3766,5.3062,5.3062,0,2.0121-1.1207,3.7614-2.7709,4.6615,1.4356,4.2065,6.086,7.2898,11.602,7.2898,9.9986,0,12.517-6.9104,13.026-14.442-1.515,2.4671-4.2362,4.1148-7.3418,4.1148-4.7557,0-8.6114-3.8556-8.6114-8.6101s3.8556-8.6101,8.6114-8.6101c0.52938,0,1.0476,0.04959,1.5522,0.14133,0.34837,6.1765,4.628,11.057,9.8548,11.057,5.2318,0,9.5151-4.8921,9.8548-11.076,0.46987-0.07934,0.95337-0.12274,1.4456-0.12274,4.7545,0,8.6101,3.8556,8.6101,8.6101s-3.8556,8.6101-8.6101,8.6101c-3.1068,0-5.8281-1.6476-7.3431-4.1148,0.50954,7.5315,3.0275,14.442,13.027,14.442,5.5144,0,10.165-3.0833,11.6-7.2898-1.6501-0.90006-2.7709-2.6494-2.7709-4.6615,0-2.9295,2.3766-5.3062,5.3074-5.3062,2.9296,0,5.3062,2.3766,5.3062,5.3062,0,2.9184-2.3568,5.2863-5.2702,5.3062,0.0793,4.8983,2.8539,7.689,6.5025,8.6634,4.6863,1.2534,11.178,0.52566,14.778-3.8693,1.0798-1.3179,1.5695-2.7275,2.0766-4.2648-0.2653,0.02479-0.53433,0.03843-0.80708,0.03843-4.7532,0-8.6089-3.8556-8.6089-8.6101s3.8556-8.6101,8.6089-8.6101c2.9122,0,5.4859,1.4456,7.0443,3.6573,0.10786-0.39052,0.24175-0.77981,0.40044-1.1654,2.0146-4.8995,7.3902-7.3332,12.005-5.4363,4.6144,1.8993,6.7207,7.4113,4.7049,12.311-1.9464,4.7359-7.0344,7.167-11.538,5.6136,0.77981-2.2229,1.8051-4.3825,3.1973-6.4095-5.3644,3.4366-11.99,17.329-17.834,31.802-0.9447,0.27647-1.8596,0.57773-2.7411,0.90626-12.877-1.4902-30.089-2.4002-49-2.4002-20.042,0-38.178,1.0228-51.266,2.6742-5.9583-14.891-12.798-29.453-18.307-32.982,1.3922,2.027,2.4175,4.1867,3.1973,6.4095-4.504,1.5534-9.592-0.87775-11.538-5.6136-2.0158-4.8995,0.09174-10.411,4.7049-12.311,4.6144-1.8968,9.99,0.53682,12.005,5.4363,0.15869,0.38556,0.29258,0.77485,0.40044,1.1654,1.5584-2.2117,4.1321-3.6573,7.0443-3.6573z" fill-rule="evenodd" fill="#ffcd50"/>
 <path d="m16.931,160.56c3.1787-33.383,50.189-18.25,67.278-17.719,8.418,0.26282,18.198-0.25787,34.827-5.4624,0.62483,1.6042,0.62731,3.2692-0.0285,4.9392-39.998,14.063-75.318-3.723-102.08,18.242z" fill-rule="evenodd" fill="#ffcd50"/>
 <path d="m77.572,79.273c0.98189,7.684,8.2493,8.2196,14.153,6.2161,1.1282,6.7393,7.4708,11.903,15.123,11.903,7.8191,0,14.268-5.3905,15.188-12.344,6.0029,1.5175,11.718,2.3927,16.877,0.76121-4.8264-0.33226-10.276-2.0344-16.107-4.4594-9.4742-3.9337-20.125-8.532-30.57-6.076-5.7512,1.3538-5.8318,5.7822-3.1589,7.7658-4.7917,2.0939-9.2436,0.26283-11.505-3.7664z" fill-rule="evenodd" fill="#d20000"/>
 <path d="m115.26,83.29c0.64343,1.1679,1.0079,2.4845,1.0079,3.8755,0,4.8264-4.3578,8.7403-9.7296,8.7403-5.3719,0-9.7296-3.9139-9.7296-8.7403,0-1.3551,0.34465-2.6382,0.95833-3.7837,5.9781-1.6489,11.221-1.5051,17.493-0.09174z" fill-rule="evenodd" fill="#ffcd50"/>
 <path d="m106.08,83.21c2.3915,0,4.3317,1.9402,4.3317,4.3305,0,2.3915-1.9402,4.3317-4.3317,4.3317-2.3902,0-4.3305-1.9402-4.3305-4.3317,0-2.3903,1.9402-4.3305,4.3305-4.3305z" fill-rule="evenodd" fill="#d20000"/>
</svg>
