<!-- Created with Inkscape (http://www.inkscape.org/) -->
<svg xmlns:rdf="http://www.w3.org/1999/02/22-rdf-syntax-ns#" xmlns="http://www.w3.org/2000/svg" height="300" width="248" version="1.0" xmlns:cc="http://creativecommons.org/ns#" xmlns:dc="http://purl.org/dc/elements/1.1/">
 <metadata>
  <rdf:RDF>
   <cc:Work rdf:about="">
    <dc:format>image/svg+xml</dc:format>
    <dc:type rdf:resource="http://purl.org/dc/dcmitype/StillImage"/>
    <dc:title/>
   </cc:Work>
  </rdf:RDF>
 </metadata>
 <path d="m247,1.0001,0,214.77c0,82.42-84.912,44.012-123,82.791-38.089-38.77-123-0.37-123-82.79v-214.77z" stroke="#000" stroke-miterlimit="4" stroke-dasharray="none" stroke-width="2" fill="#003d8f"/>
 <path d="m70.349,34.917c0.27085,4.28,6.0067,10.531,17.91,8.8661,14.665-2.0497,23.57-2.3008,27.157,1.855l0.3428,3.6861-2.3192,0.03809c-0.09-1.569-11.34-6.682-27.546-1.62-11.951,3.734-23.245-3.241-15.545-12.825z" fill-rule="evenodd" fill="#d20000"/>
 <path d="m90.29,44.461c-0.91836-2.59-1.1596-5.915-1.1596-5.915l6.4764-1.3148c-2.0624,1.6463-4.1291,5.0206-5.3168,7.2297zm0.11567,1.5193c-0.32869,2.7268,0.38794,6.1802,0.38794,6.1802l6.4031-0.11991c-2.347-1.538-4.907-4.002-6.794-6.06z" fill-rule="evenodd" fill="#d20000"/>
 <path d="m124.1,252.54s1.1624-7.0407,7.2283-9.0552c9.9439-3.2897,2.0412,8.591,0.2116,7.825-4.4338-2.4475-7.4399,1.2301-7.4399,1.2301z" fill-rule="evenodd" fill="#d40000"/>
 <path fill-rule="evenodd" fill="#FFF" d="m126.72,10.402c1.4883,1.8903,0.6351,4.5337-1.1875,5.0938-10.574-0.41474-19.228,0.73613-22.219,2.2188-4.7737,2.3657,0.0697,4.5384-6.6875,4.75-3.3616,0.10439-7.6054,1.0157-11.344,1.8438-0.48105,1.5165-0.55798,2.7006,0.0937,4.5938l1.4375-0.0625c-3.4138,6.7318-0.72622,15.894,14.594,8.375,2.9935-1.8409,8.762,1.5767,11.719,5.875,3.9626,5.7584-1.5843,8.0745-6.7812,6.5312-4.84-1.4375-13.532-0.35557-17.062,1.2188,0.16081,0.85346,0.27338,1.523,1.1875,2.375-3.0217,3.703-1.2631,8.6796,2.375,11.438-0.22853-7.162,3.8641-9.6444,14.594-7.9375,6.1957,0.25392,6.5726,3.7265,3.7188,6.6875-4.1728,4.328-14.38,8.6679-16.094,9.5312-10.749,5.4128-21.46,12.871-21.906,23.719,2.2232-1.9594,5.1172-2.3362,7.4688-1.6562-4.5579,4.0444-7.3294,8.7005-8.125,14.063,5.3408-1.824,14.551-3.5027,20.406-9.8438l0.0937,1.3125c-5.606,9.0114-17.426,13.506-22.156,15.844-8.9649,4.4295-21.783,5.7709-31.438,2.4375-5.0474-1.7436-9.6668-4.143-13.656,0.84375-2.6323,3.2911-2.6496,8.1079,0.96875,11.375,1.4445-0.52477,3.0013-0.73425,4.625-0.71875-5.0601,1.3542-9.2058,4.0787-5.9062,10.312,1.6152,3.0499,4.9535,4.8753,9.3125,2.875,0.24546-1.2174,0.75114-2.2375,1.5312-3.0938-1.5179,4.4831-1.0306,8.9502,4.5938,10.375,5.4847,1.3895,12.725-2.6429,12.156-10.562,3.1388,13.794,24.124,6.1056,16.656-6.9375,3.8864,2.6986,5.5917,6.9477,5.0938,12.719,1.3655-0.34139,2.6378-0.7044,3.875-1.0938,2.2825-2.8637,3.3924-6.4664,3.6562-10.844,2.0286,2.4179,2.8561,5.2271,3,8.2812,1.9397-0.89296,3.7072-1.8563,5.3125-2.8438,1.4516-3.0978,1.7554-6.5628,1.0938-10.5,2.2359,1.7676,3.5794,4.0535,4.375,6.6562,8.9874-7.2142,13.376-14.49,25.469-14.938l0.78125-4.0625c-5.1899-0.52196-3.0338-10.413,1.7188-15.875l0.78125,0.15625c-2.7071,3.6706-4.7518,11.548,0.3125,13.594l-1.3438,8.5c-4.5791,0.0155-8.0298,0.97754-11.094,2.6562,11.277,3.9556,20.866,10.453,29.469,18.844-6.5893,22.833-7.6409,42.071,1.75,54.312-3.569,10.199-3.3892,23.823,1.5312,33.125,2.0102-1.1864,3.8681-2.5521,5.5312-4.125-4.5636-10.864-0.41285-16.13-0.75-26.969,4.2123,8.0183,0.78496,16.214,3.7812,23.656,3.5352-3.8356,10.028-6.9636,6.3438-14.625,2.8806,0.96349,6.0584,1.7367,9.5625,2.2812,3.229,0.5008-3.0327,17.821-9.5938,26.031-2.0046,2.5082-4.1914,3.818-6.5938,4.4062-3.9273,0.96208-10.796,0.52437-14.625-0.46875-9.2371-2.3953-10.857,11.954-3.9062,10.875-16.845,10.418,5.6259,24.524,10.875,7.0938-1.4474,11.882,18.1,14.337,18.156-0.15625,2.2867-0.57274,4.5883-1.4757,6.875-3.0938,12.951,9.3542,23.293-13.859,8.4375-13.625,0.30048-1.2061,0.60436-2.4189,0.90625-3.625,4.6722,0.13119,9.3264-0.53268,14-1.9688l0.3125-0.40625c-3.04-1.4206-5.523-3.385-7-6.4688,3.9428,1.3641,7.499,1.7633,10.844,1.2188,1.2894-1.8734,2.488-3.7502,3.625-5.625-3.5888-1.1088-6.5859-2.8703-8.5312-6.0938,4.5382,1.0975,8.437,1.225,12.062-0.125,1.0143-1.9298,1.9564-3.8528,2.8438-5.7812-3.9908-0.7011-7.4414-2.1615-9.8438-5.375,4.9755,0.69264,9.2278,0.20487,12.781-1.5938,1.0284-2.6337,1.9548-5.2413,2.8125-7.875-27.876,0.19468-36.113-9.4855-36.469-18.875-0.25803-6.8228,5.9078-14.214,7.25-21.938,7.6792,8.5348,17.331,14.377,26.469,12.625,24.265-4.6525,23.482-29.628,9.9375-42.969-4.6494-4.4362-9.7237-6.588-14.438-8.4688-3.72,0.55936-4.9804,4.434-3.4688,6.8125,1.8861,0.77683,3.7147,1.519,5.4688,2.3438-0.55493-0.0709-1.0518-0.11796-1.4688-0.125-10.286-0.1738-7.8402-10.834-2.4062-11.469,6.578-0.767,24.309,1.381,24.594-16-9.095,9.0862-21.251,4.7096-27.906,8.3125,0.776-7.887,29.459-5.1728,26.469-26.469-4.208,10.703-31.247,9.4948-38.344,21.844-8.957,15.585,0.9145,26.374,13.312,27.219,6.0628,0.46799,10.446-1.4278,13.281,1.75,10.813,12.117,8.1819,29.269-6.0312,29.781-11.853,0.4276-20.899-9.8578-26.812-20.188-4.8359-14.186-17.518-22.618-28.625-32.938-4.2927-3.9894-12.29-8.2368-13.531-14.125,2.7141,0.22712,5.4377-0.78744,7.3125-2.5-3.8498-1.5348-5.6586-4.2846-5.375-8.25,8.4119,0.60941,13.923-2.2063,16.5-8.4062-5.6328,1.0086-10.35-0.10271-13.062-5.9062,9.5461,0.48951,15.07-3.0281,16.594-10.562-7.6642,2.9765-12.953,1.6996-14.781-5.7812,8.4951-0.24546,13.456-3.9493,13.688-12.219-6.0278,3.2192-11.614,3.6115-15.938-3.875,4.644-3.2446,8.0698-7.1345,8.0938-12.812-2.7254,1.2597-5.3996,2.034-8.125,0.375-0.97901,1.6956-2.891,3.2858-5.4062,4.5625-0.35267-0.30048-0.70983-0.60436-1.0625-0.90625,5.5468-4.2701,6.16-10.818,4.6562-17.094-4.4846,0.64891-12.678,1.3909-14.812,9.625l-1-1.0938c0.26944-3.6128,1.5657-5.8707,4.2812-8.125-2.109-1.563-4.2542-2.8059-6.5-3.2812zm96,2.5938c5.7316,10.775-3.7766,17.401-7,27.156-1.3657,4.5556-0.90737,13.522,4.4375,18.969-3.3573,10.962-17.234,11.018-26.469,17.875-13.732,10.197-15.582,24.561-9.0625,35.406,0.71454-3.4293,2.2059-6.91,4.3125-9.8438-1.4018-7.4239,2.0323-15.078,8.9062-19.344,13.154-8.1633,24.976-8.1682,29.188-22.094,11.802-2.4576,13.893-17.072,10.031-25.812-0.6052,2.2317-2.2307,7.0926-6,6.7188,7.3838-13.677-0.95745-26.983-8.3438-29.031z"/>
 <path d="m42.19,232.58s2.4151-6.7148,8.7448-7.5993c10.376-1.4375,0.45424,8.8182-1.2061,7.7333-3.9175-3.2079-7.5387-0.13401-7.5387-0.13401z" fill-rule="evenodd" fill="#d40000"/>
 <path d="m94.285,243.21c10.747,11.744-14.354,25.667-15.654,6.1816-1.9002,0.68418-3.8836,0.86334-5.8797,0.96914-0.66302,6.9349-7.9407,9.8099-13.164,8.1551-6.3001-1.9947-5.544-6.6979-3.3151-11.208-1.0326,1.0566-1.8917,2.2416-2.3699,3.7171-6.1844,0.43872-8.979-3.7722-8.6545-8.3385,0.41333-5.7979,3.4463-8.2835,9.1511-7.5542-1.4445-0.64327-2.9582-1.0058-4.5438-1.0905-2.2416-3.3743,4.3153-14.402,14.083-7.8307,5.369,3.6113,11.242,3.5902,16.306,2.2021,8.749-2.3982,19.02-10.969,25.27-21.028-7.0717-4.2927-9.4967-10.075-7.2763-17.346-2.7861,4.0797-6.712,5.5143-10.624,5.4085,2.6789-3.7863,4.3096-7.7968,3.6396-12.3-3.5535,6.018-7.32,8.3258-11.284,9.1511-1.8381-0.38653-3.9146-1.5052-5.094-2.803,4.201-1.4615,7.4329-4.8231,9.6984-10.082,5.3437-13.646,14.299-23.541,28.637-27.618,7.7263-2.1964,15.317-5.5017,20.916-11.295,1.7605,1.4389,3.5592,3.0203,5.3987,4.7681-2.796,9.9707-4.524,19.266-4.7836,27.617-10.898,10.56-16.073,24.712,0.33997,36.427,0.007,2.1668-0.28778,4.3322-0.88449,6.4976-3.1162,1.7182-6.9476,2.188-11.379,1.8663,2.4715,2.8891,5.7782,4.1361,9.5447,4.6313-0.78575,1.8748-1.7803,3.7073-2.9638,5.5045-4.1714,1.3557-8.079,1.3571-12.973,0.0621,1.8141,3.1529,4.6524,4.9712,8.0536,6.1604-1.6293,1.7676-3.4294,3.5126-5.3817,5.2449-4.2518,0.28919-7.7432-0.44013-12.011-2.5477,1.089,3.277,3.3264,5.5581,6.1999,7.3553l-0.0621,0.048c-6.135,2.3135-12.446,2.0116-18.94-0.92541z" fill-rule="evenodd" fill="#FFF"/>
 <path d="m136.72,162.47c-5.2999-1.3655-6.4355-10.312-1.7281-12.778-1.2767-3.1021-4.1375-6.7261-10.58-10.084,2.4983-1.1525,5.7584-1.4728,8.3498-1.4488,2.5378,1.9552,5.156,4.2052,7.8688,6.8122-1.7337,6.1097-3.0682,11.963-3.9104,17.498z" fill-rule="evenodd" stroke="#003d8f" stroke-miterlimit="4" stroke-dasharray="none" stroke-width="1.50000000000000000" fill="#FFF"/>
 <path d="m94.124,70.754-0.001,0c-7.8095,3.9823-17.272,9.8296-21.339,18.102-1.5955,0.12555-3.9358-0.20032-5.3042-0.45847,0.84641-3.2925,0.89437-6.4919-0.57979-9.6222-0.91694,3.3645-2.3615,5.9178-4.7808,7.9802-2.0328-0.80691-3.9344-1.7944-5.7034-2.9624,1.6519-3.174,2.4659-6.4228,1.6392-9.9411-1.539,2.8679-3.4068,5.0107-5.9319,6.5103-1.213-1.165-2.347-2.438-3.397-3.826,4.534-4.536,5.039-10.177,1.511-14.711-2.721,16.535-26.151,3.637-11.099-4.219-1.085-0.862-2.143-1.752-3.008-2.834-5.59,2.928-10.799-0.836-11.984-5.691-1.6251-6.657,2.8552-9.0918,8.117-9.0636-1.6463-0.27508-3.2714-0.37383-4.8654-0.21442-2.5392-2.5801-1.7112-6.9772,0.44719-9.003,4.8372-4.5396,8.1735-3.1895,10.115,1.35-0.2384-1.398-0.61364-2.7565-1.2329-4.0458,2.421-5.387,12.593-1.7862,13.457,5.2017-0.0204,10.18,7.6663,19.181,14.665,24.822,7.2015,5.7245,21.067,11.419,29.274,12.626l-0.10157,0.05078,0.004-0.0014,0.0987-0.04937z" fill-rule="evenodd" fill="#FFF"/>
 <path d="m141.85,17.026c-4.445,0.4486-7.3341,3.8822-7.9873,7.4103l1.9891,3.0894-0.70957,0.46129-3.782-3.2714c1.3458-5.338,4.3759-7.4103,10.168-8.5417l0.32163,0.85205z" fill-rule="evenodd" fill="#003d8f"/>
 <path d="m39.937,250.66s0.42884-7.1225,6.2535-9.7534c9.5517-4.2998,2.9173,8.3343,1.0185,7.7616-4.6623-1.9764-7.272,1.9919-7.272,1.9919z" fill-rule="evenodd" fill="#d40000"/>
 <path d="m60.81,265.06s-4.9261-5.1631-2.8862-11.221c3.3532-9.9241,8.0902,3.5366,6.3763,4.5382-4.62,2.0681-3.49,6.6824-3.49,6.6824z" fill-rule="evenodd" fill="#d40000"/>
 <path d="m92.529,264.47s4.8457-5.2379,2.7156-11.264c-3.5041-9.8705-8.0352,3.6607-6.3072,4.6355,4.6524,1.9975,3.5916,6.6288,3.5916,6.6288z" fill-rule="evenodd" fill="#d40000"/>
 <path d="m19.664,55.561s0.13683-7.1352,5.8487-10.002c9.3669-4.6891,3.2573,8.2073,1.3359,7.7122-4.7399-1.7831-7.1846,2.2895-7.1846,2.2895z" fill-rule="evenodd" fill="#d40000"/>
 <path d="m19.4,32.653s4.4267-5.5962,10.71-4.4211c10.292,1.9397-2.377,8.5036-3.6071,6.9476-2.6916-4.2885-7.1028-2.5265-7.1028-2.5265z" fill-rule="evenodd" fill="#d40000"/>
 <path d="m37.368,19.872s7.1352,0.11991,10.016,5.8247c4.7103,9.3556-8.1989,3.2756-7.7094,1.3543,1.7732-4.7441-2.3065-7.179-2.3065-7.179z" fill-rule="evenodd" fill="#d40000"/>
 <path d="m35.189,74.834s7.1028-0.67713,9.5291-6.5893c3.964-9.6956-8.4302-2.6253-7.7912-0.74766,2.1372,4.5904-1.738,7.3369-1.738,7.3369z" fill-rule="evenodd" fill="#d40000"/>
 <path d="m17.386,128.85s0.97337-7.0689,6.9829-9.2456c9.8536-3.5549,2.2712,8.5332,0.42039,7.8152-4.4958-2.3276-7.4032,1.4304-7.4032,1.4304z" fill-rule="evenodd" fill="#d40000"/>
 <path d="m24.523,149.43s-3.8004-6.0391-0.59813-11.57c5.2604-9.0594,7.2255,5.0742,5.3479,5.7147-4.9402,1.1088-4.7498,5.8557-4.7498,5.8557z" fill-rule="evenodd" fill="#d40000"/>
 <path d="m43.049,157.43s-5.4734-4.5791-4.1276-10.827c2.219-10.236,8.4359,2.6069,6.846,3.7933-4.359,2.5759-2.7184,7.0336-2.7184,7.0336z" fill-rule="evenodd" fill="#d40000"/>
 <path d="m64.597,153.82s5.1687-4.9204,3.4237-11.07c-2.8721-10.072-8.2511,3.1444-6.5879,4.2264,4.5156,2.2881,3.1642,6.8432,3.1642,6.8432z" fill-rule="evenodd" fill="#d40000"/>
 <path d="m128.35,272.36s-2.3671-6.7318,1.982-11.415c7.1366-7.667,5.9206,6.5498,3.9485,6.7586-5.0629-0.0141-5.9305,4.6567-5.9305,4.6567z" fill-rule="evenodd" fill="#d40000"/>
 <path d="m152.39,276.21s-4.5241-5.52-2.0356-11.407c4.0896-9.6434,7.8011,4.1347,6.018,5.0051-4.7624,1.7154-3.9823,6.4017-3.9823,6.4017z" fill-rule="evenodd" fill="#d40000"/>
 <path d="m191.49,258.4s-0.13684-7.1352-5.8501-10.002c-9.3669-4.6863-3.2558,8.2073-1.3345,7.7122,4.7385-1.7831,7.1846,2.2895,7.1846,2.2895z" fill-rule="evenodd" fill="#d40000"/>
 <path fill-rule="evenodd" fill="#003d8f" d="m115.67,25.719c-0.14623,2.1708-1.3724,4.032-3.1672,4.7611-1.803-0.9751-3.024-3.1995-2.9542-5.4336-1.136,1.719-1.1321,3.9301-0.24391,5.5126-1.9309-0.66592-3.2845-2.5842-3.1869-4.84,0.11542-2.6677,9.7374-2.7406,9.5521,0z"/>
 <path fill-rule="evenodd" fill="#003d8f" d="m108.37,23.603c2.7436-0.76308,9.4777-1.5681,10.455,2.521,0.49844-4.9975-4.116-5.1908-7.6368-4.669-2.3652,0.34864-7.2867,1.7887-6.7564-2.5179-2.7502,3.3261,0.34961,5.6675,3.9383,4.666z"/>
</svg>
