<!-- Created with Inkscape (http://www.inkscape.org/) -->
<svg xmlns:rdf="http://www.w3.org/1999/02/22-rdf-syntax-ns#" xmlns="http://www.w3.org/2000/svg" height="300" width="248" version="1.0" xmlns:cc="http://creativecommons.org/ns#" xmlns:dc="http://purl.org/dc/elements/1.1/">
 <metadata>
  <rdf:RDF>
   <cc:Work rdf:about="">
    <dc:format>image/svg+xml</dc:format>
    <dc:type rdf:resource="http://purl.org/dc/dcmitype/StillImage"/>
    <dc:title/>
   </cc:Work>
  </rdf:RDF>
 </metadata>
 <path fill="#FFF" stroke-miterlimit="4" d="m247,1.0001,0,214.77c0,82.42-84.912,44.012-123,82.791-38.089-38.77-123-0.37-123-82.79v-214.77z"/>
 <path fill="#003d8f" d="m1,1,0,135.06,123,0v-135.06h-123z"/>
 <path fill-rule="evenodd" fill="#FFF" d="m124,81.375c-8.56,3.014-16.29,1.605-25.438,8.25-11.859,8.614-10.075,19.145-22.093,27.875-12.019,8.73-21.455,3.79-33.313,12.41-2.707,1.96-4.697,4.04-6.312,6.15h59.406c7.9-7.98,7.83-16.98,18.22-24.53,3.33-2.42,6.47-3.74,9.53-4.62v-25.535z"/>
 <path fill-rule="evenodd" fill="#FFF" d="m124,4.4062c-0.58,0.3619-1.16,0.7317-1.75,1.1563-11.86,8.6145-10.07,19.142-22.09,27.876-12.024,8.731-21.461,3.791-33.316,12.406-11.86,8.614-10.107,19.109-22.125,27.844-12.019,8.729-21.455,3.791-33.313,12.406-5.4772,3.98-8.0419,8.387-10.406,12.812v37.154h3.9062c0.1052-0.07,0.2071-0.14,0.3126-0.22,12.018-8.73,10.236-19.22,22.093-27.84,11.858-8.615,21.295-3.67,33.313-12.406,12.018-8.732,10.268-19.26,22.125-27.875s21.29-3.674,33.31-12.407c3.68-2.669,6.06-5.509,7.94-8.406v-42.5z"/>
 <path fill-rule="evenodd" fill="#FFF" d="m1.001,61.035,0-25.792c3.8025-0.876,7.7064-2.256,11.928-5.324,12.018-8.731,10.248-19.237,22.106-27.852,0.525-0.3818,1.046-0.7356,1.562-1.0666h56.9c-2.09,3.6344-4.665,7.2139-9.2399,10.536-12.015,8.7319-21.46,3.8025-33.32,12.417-11.856,8.6144-10.086,19.12-22.105,27.851-10.108,7.3449-18.396,5.025-27.83,9.2299z"/>
 <path fill-rule="evenodd" fill="#ffcd50" d="m109.51,156.24c-0.94369-1.5512-1.8843-1.3015-1.9168,0.59051-0.0897,5.2881-2.8644,7.0184-6.1362,9.363,2.144,0.22105,3.9572,1.5311,4.7718,3.4424,4.1813-4.6389,5.1235-10.367,3.2809-13.396z"/>
 <path fill-rule="evenodd" fill="#ffcd50" d="m109.51,156.24c-0.94369-1.5512-1.8843-1.3015-1.9168,0.59051-0.0912,5.3793-2.9617,7.0772-6.3063,9.4856l-0.55337,3.5685,3.9796,1.2544c5.4538-4.834,6.8445-11.534,4.7968-14.899z"/>
 <path d="m111.59,191.48c1.5141,1.0534,2.8365,0.59434,3.4-0.44828-1.8093-1.2444-5.1335-2.0984-6.9854-2.4988-0.7582-0.16386-0.31843-1.2606,0.31997-1.222,2.3016,0.13912,4.5554,1.7011,7.095,2.7855,2.2337,0.0324,4.6412-4.1133,2.5467-5.9041-1.9345-1.654-3.8915-3.2214-5.3956-5.4862-1.8418-2.7739-3.4254-5.436-6.5254-7.4497-0.20481-2.4261-2.5675-4.1983-4.9473-4.3204-3.6295-0.18549-6.9109,1.9284-10.926,1.3711-5.1637-0.71803-10.848,1.5427-16.759,4.9125-11.881,5.7156-23.551,5.1135-35.642,2.2932-4.4626-1.0411-9.7447-1.6865-14.53-0.9924-2.7252,0.39573-5.1575,1.6408-7.9502,1.5767-6.8585-0.15767-8.1246-7.5355-4.5732-12.045,4.5686-5.8015,16.79-4.921,22.762-3.8219,9.8727,1.8163,23.627,6.9028,33.368,2.236,2.8852-1.3819,6.3986-3.5986,8.9673-0.0788,0.90585-3.716-2.0118-5.72-4.9264-6.1238,1.0334-3.2137,8.0668,1.055,8.1532-4.9882-3.8142,3.6689-9.6103-4.7394-13.861,1.858-1.4415-1.9678-4.0955-3.1194-7.3774-1.5891,3.58,0.99704,3.6465,4.4047,2.5807,6.2668-3.7972,6.6313-20.634,0.14685-26.297-0.89576-7.575-1.3935-20.421-1.7119-25.91,4.8916-4.8453,5.8301-3.8567,16.348,4.9828,17.697-1.552,1.7977-2.6982,4.1373-3.2662,7.1447-1.521,8.063,0.30298,15.23,3.165,22.355,1.8379,4.5763,0.82082,11.804-3.165,14.084-0.71647,0.74351-0.71647,1.7259,0,2.9478,0.4591,0.78682,0.81461,1.5543,1.089,2.3063,1.0813,2.9648,1.4337,7.8039,1.3062,10.969-0.06724,1.6926-0.6384,3.2283-0.49465,3.9789,0.12753,0.97538,1.2868,0.98543,1.4932,0.0626,0.20018-0.89268,1.4066-0.27902,1.0202,0.56114-0.16617,0.36171-0.21332,0.68786-0.2025,1.13l0.83858,0.50161,6.2712-3.9587c0.98386-2.3535-1.586-3.1434-2.4168-4.9009-0.52247-1.1052-0.91125-2.2213-0.97463-3.3621-0.21873-2.0474-0.35553-4.094,0.08193-6.1416,0.94985-2.6255,2.1571-5.2518,4.1079-7.8778,1.2266-1.6501,2.2599-3.3899,3.4657-4.938,1.0078-1.293,1.933-2.661,2.8056-4.06,1.4229-2.2831,2.2816-4.4696,4.1806-6.1044,1.7436-1.501,3.8783-1.9044,6.7398-1.807l0.27901,0.3849c-3.41,0.13758-6.0169,1.4236-7.5355,3.57,6.7328,1.4577,12.791,5.2062,18.085,9.6967l0.16308-4.0948c3.9989,0.72732,8.5214,2.3751,12.913,3.58-0.54101-2.0907-2.2182-5.1413-3.7671-6.5109l0.49078-0.0989c3.8343,3.3884,4.4913,6.4256,5.4435,10.901,0.34858,1.6339,0.36094,3.1889,0.52788,4.8924,0.27283,2.7924,0.43128,5.578,0.41041,8.3858-0.02937,3.8962-2.3202,8.069-2.3882,9.1519-0.1198,0.97615,1.0017,1.273,1.4306,0.4305,0.41659-0.81386,1.4322,0.0781,0.84944,0.7961-0.23651,0.29138-0.39186,0.54257-0.3509,1.0102l0.58819,0.57195,6.8839-3.1526c-0.28674-1.1478-0.0224-2.5505-0.25351-3.7841-0.3563-1.8998-0.75512-3.4347-0.67166-5.4943,0.0626-2.3952,0.36944-4.3027,1.2096-5.1397,2.2878-1.6594,2.9702-4.1234,2.9231-6.9536-0.08502-2.6812,0.24655-5.0717,2.5397-7.0567,2.9772-2.5745,4.802-6.5929,5.0276-10.49l0.3849,0.0208c-0.02396,4.3947-1.3355,8.3875-4.6984,11.294-1.2498,1.0828-2.0636,2.3349-2.1726,4.2617,7.5712-0.0448,11.601-6.98,15.19-15.296,2.3867-5.531,5.7691-9.1147,10.218-9.6621,2.1116-0.25969,3.3474-0.90661,4.0778-2.1687-1.8209-0.34703-3.6674,0.34781-5.5585,0.17081-4.9271-0.46141-6.4876-4.7262-6.3063-9.1859l0.3849-0.0186c0.16926,3.7578,1.8634,7.7142,6.0023,8.1121,1.8998,0.18317,3.563-0.42355,5.4047-0.24888,1.5319,0.14454,3.3018,0.47611,4.6605,1.2096zm-67.619,45.417c-2.4779-1.7753-4.4812-3.7044-6.4806-7.7769-1.0318-2.0999-2.0389-6.3332-1.0674-8.6153,1.3634-3.2013,2.76-6.6237,3.8312-9.8948-2.8372-1.4979-5.7907-2.5931-8.9408-3.2778-1.7274,3.039-3.5051,5.666-5.5294,8.4506-0.02089,1.7259,0.03245,3.4687,0.19322,5.2557,0.11362,1.2575-0.7698,3.7872,1.0674,5.5656,3.5198,3.4061,7.0837,6.8947,9.1751,11.777,0.81618,1.906,0.61832,2.7492,0.87724,4.0909,0.12675,0.97615,1.2868,0.98619,1.4932,0.0626,0.20017-0.89268,1.4066-0.27979,1.0202,0.56114-0.17776,0.38567-0.2226,0.64072-0.20791,1.0534l0.40268,0.53175,6.7074-3.9881c0.26665-1.4855-1.2312-2.8558-2.5413-3.7957zm42.789-21.422c2.8295,0.22645,5.3206-1.5898,7.1571-0.62604,2.365,1.2413,2.3249,3.2894,3.6913,4.6157,0.94445,0.91741,3.1897,1.9802,3.1171,3.4123-0.0433,0.83783-0.66625,1.4461-1.0929,2.43-0.44287,0.878,0.51011,1.5388,1.2003,0.89192,0.66701-0.62679,1.3193,0.56034,0.52788,1.0364-0.28984,0.1739-0.67241,0.48924-0.75669,0.80846l0.3679,0.70875,7.5069-0.0116c0.5897-1.4956,0.54413-2.9779-0.11516-4.2068-1.8-2.5876-2.5969-5.6536-3.8992-9.0526-0.71803-1.8766-1.1161-4.0152-2.117-5.7378-1.038-1.7862-2.8643-4.0924-5.0956-5.0075-1.3711-0.56266-2.4315-0.89733-3.4749-1.1408-1.749,4.0438-3.8706,8.6185-7.0173,11.88z" fill-rule="evenodd" stroke="#FFF" stroke-miterlimit="4" stroke-dasharray="none" stroke-width="0.40000001" fill="#d40000"/>
 <path d="m90.668,170.81c-0.73423-0.25505-1.4043-0.73654-2.2097-0.7474-0.94445-0.0116-1.3425,0.74352-1.2498,2.0458,0.26588,3.7161,3.5924,7.4308,7.6532,5.9813l-0.12984-0.36326c-3.1982,1.1416-6.3279-2.8365-6.5595-5.6573-0.06493-0.79685,0.09738-1.0651,0.47146-0.97383,0.61135,0.15072,1.1246,0.44365,1.6787,0.67242,1.6269,0.67165,3.747-0.0502,5.0593,1.3534,0.88653,0.94759,0.93598,2.2414,2.5637,2.44-1.1794-0.8293-0.97614-2.0892-1.8511-3.0653-1.5334-1.705-3.5661-1.0403-5.4263-1.6857zm5.1181,4.0074c-1.3781-1.2644-2.9416-1.7298-5.1413-1.9314,0,0,1.9345,0.94758,3.0529,1.6014,0.49697,0.29757,2.3612,1.4407,0.90661,2.0512,0,0,0.58663,0.0611,0.98003-0.11439,0.55029-0.245,0.61443-1.2266,0.20172-1.6068z" fill-rule="evenodd" stroke="#FFF" stroke-miterlimit="4" stroke-dasharray="none" stroke-width="0.40000001" fill="#FFF"/>
 <path d="m90.569,191.12c1.1454,3.7207,1.4561,8.4938-2.0335,11.063l0.228,0.3107c4.1164-3.0297,4.223-7.2435,2.8837-11.591-0.78757-2.5575-1.9368-5.1807-1.29-7.9226l-0.37562-0.0873c-0.71031,3.0112-0.29833,5.3499,0.58738,8.2282z" fill-rule="evenodd" stroke="#FFF" stroke-miterlimit="4" stroke-dasharray="none" stroke-width="0.40000001" fill="#FFF"/>
 <path fill-rule="evenodd" fill="#FFF" d="m114.61,183.8c-0.7265,0.27593,0.19168,1.4616-0.18394,2.787-0.43591,1.5365,1.9925,2.5861,2.5088,0.0611,0.23882-1.1632-1.5991-3.1233-2.3249-2.8481z"/>
 <path d="m34.019,207.42c-0.30529,1.1601-0.46914,3.0421-0.28288,4.3406,0.70022,4.8808-5.5812,6.0595-7.3056,2.2692" stroke="#FFF" stroke-dasharray="none" stroke-miterlimit="4" stroke-width="1.9000001" fill="none"/>
 <path fill-rule="evenodd" fill="#ffcd50" d="m21.213,241.59c0.61443,0.85251,3.1001,3.6859,6.4191,5.9613-0.63764,0.28751-1.3734,0.41118-2.076,0.48383l-2.382-2.127,1.0465,3.1774c-1.9886,0.33079-8.063,0.42741-9.0542-1.3224-0.46451-0.82083-0.85484-1.7877-1.0627-2.7159,2.5869-0.45369,4.4379-3.7161,7.1096-3.4571z"/>
 <path fill-rule="evenodd" fill="#ffcd50" d="m73.225,241.91c0.50779,0.91973,2.6363,4.0298,5.659,6.6863-0.66701,0.20945-1.4128,0.24346-2.1185,0.23187l-2.1107-2.3967,0.65929,3.2802c-2.0142,0.0904-8.0565-0.54101-8.8318-2.3967-0.36249-0.87027-0.63376-1.8774-0.72958-2.8241,2.6224-0.14066,4.8507-3.158,7.4724-2.5807z"/>
 <path fill-rule="evenodd" fill="#ffcd50" d="m108.48,228.74c0.0873,1.0472,0.75976,4.7556,2.4338,8.415-0.69406-0.0819-1.3889-0.35475-2.0281-0.65389l-0.94835-3.0498-0.73735,3.2632c-1.8758-0.74043-7.1328-3.7841-7.0826-5.795,0.0247-0.94213,0.18858-1.9724,0.48769-2.8759,2.4508,0.9437,5.7173-0.9004,7.8751,0.69638z"/>
 <path fill-rule="evenodd" fill="#ffcd50" d="m46.512,240.69c0.61443,0.85251,3.1001,3.6859,6.418,5.9613-0.63683,0.28752-1.3727,0.41118-2.0752,0.48383l-2.382-2.127,1.0465,3.1774c-1.9886,0.33079-8.063,0.4274-9.0542-1.3224-0.46451-0.82083-0.85484-1.7885-1.0627-2.7167,2.5869-0.45291,4.4379-3.7153,7.1096-3.4564z"/>
 <path d="m116.53,187.21c-0.73736,0.61524-1.0009,1.7993-0.57582,2.9262,0.51397,1.3603,1.8371,2.1208,2.9563,1.6988,1.1183-0.42355,1.6084-1.8681,1.0968-3.2292-0.24733-0.65465-0.68321-1.1694-1.1926-1.4809,0.12134-0.40036,0.1824-0.80765,0.16694-1.1995,0.93058,0.50701,1.7352,1.4128,2.1773,2.5861,0.86099,2.2777,0.0394,4.6999-1.8341,5.4074-1.8735,0.70718-4.0901-0.5673-4.9504-2.8458-0.742-1.9655-0.27128-4.7888,2.0396-5.4754,0.33929,0.32848,0.37794,1.2845,0.11593,1.6122z" fill-rule="evenodd" stroke="#FFF" stroke-miterlimit="4" stroke-dasharray="none" stroke-width="0.5" fill="#ffcd50"/>
 <path fill-rule="evenodd" fill="#ffcd50" d="m102.01,153.13c-1.1377-1.4152-1.984-1.1099-1.9284,0.78292,0.0742,2.5104-0.9607,4.5484-2.3627,6.3619-1.865,2.4122-3.9556,4.683-2.9579,8.11,0.39495,1.3572,1.6037,2.7708,2.9988,3.2933,2.675,1.0024,4.9256-1.9028,3.89-4.5701-0.76128-1.9601-0.81462-3.8969-0.002-5.8447,1.3859-2.9828,1.5678-6.6323,0.36172-8.1332z"/>
 <path fill-rule="evenodd" fill="#ffcd50" d="m102.01,153.13c-1.1377-1.4152-1.984-1.1099-1.9284,0.78292,0.0742,2.5104-0.9607,4.5484-2.3627,6.3619-1.865,2.4122-3.9556,4.683-2.9579,8.11,0.39495,1.3572,1.6037,2.7708,2.9988,3.2933,2.675,1.0024,4.9256-1.9028,3.89-4.5701-0.76128-1.9601-0.81462-3.8969-0.002-5.8447,1.3859-2.9828,1.5678-6.6323,0.36172-8.1332z"/>
 <path d="m105.51,174.97-5.5974-0.69871-0.14453,0.35785,8.5402,3.4502,0.14376-0.35707-2.9418-2.7528z" fill-rule="evenodd" stroke="#FFF" stroke-miterlimit="4" stroke-dasharray="none" stroke-width="0.40000001" fill="#FFF"/>
 <path d="m105.13,174.88c-1.1462-0.46219-2.3998-0.0363-2.7986,0.95142-0.39958,0.98775,0.20637,2.1649,1.3526,2.6278,1.1454,0.46296,2.399,0.0371,2.7986-0.95066,0.39881-0.98775-0.20714-2.1656-1.3526-2.6286z" fill-rule="evenodd" stroke="#FFF" stroke-miterlimit="4" stroke-dasharray="none" stroke-width="1.60000002" fill="#d40000"/>
 <path fill-rule="evenodd" fill="#FFF" d="m104.96,175.08c-0.66469,0-1.2042,0.53948-1.2042,1.2042,0,0.66393,0.53947,1.2034,1.2042,1.2034,0.66471,0,1.2034-0.53947,1.2034-1.2034,0-0.66469-0.53871-1.2042-1.2034-1.2042z"/>
 <path d="m162.34,17.382,31.042,0,0,37.21-31.042,0,0-37.21z" fill-rule="evenodd" stroke="#FFF" stroke-miterlimit="4" stroke-dasharray="none" stroke-width="0.69999999" fill="#d20000"/>
 <path d="m159.67,9.1572,0,10.799,36.391,0,0-10.799-8.3365,0,0,5.5528-5.7055,0,0-5.5528-8.3213,0,0,5.5528-5.7055,0,0-5.5528z" fill-rule="evenodd" stroke="#FFF" stroke-miterlimit="4" stroke-dasharray="none" stroke-width="1" fill="#d20000"/>
 <path d="m199.81,56.793-43.884,0,0,70.819,43.884,0,0-70.819z" fill-rule="evenodd" stroke="#FFF" stroke-miterlimit="4" stroke-dasharray="none" stroke-width="0.69999999" fill="#d20000"/>
 <path d="m152.68,41.54,0,17.882,50.373,0,0-17.882-9.5602,0,0,8.2141-4.0536,0,0-8.2141-9.545,0,0,8.2141-4.0536,0,0-8.2141-9.5602,0,0,8.2141-4.0383,0,0-8.2141z" fill-rule="evenodd" stroke="#FFF" stroke-miterlimit="4" stroke-dasharray="none" stroke-width="1" fill="#d20000"/>
 <path d="m177.86,14.855,0,4.716m14.043-4.716,0,4.716m-28.085-4.716,0,4.716" stroke="#500" stroke-dasharray="none" stroke-miterlimit="4" stroke-width="0.5" fill="none"/>
 <path d="m199.2,98.669-42.669,0m0,7.2376,42.669,0m0-21.709-42.669,0m0,7.2366,42.669,0m0,28.944-42.669,0m0-7.2351,42.669,0m-42.67-50.649h42.669m0,14.471-42.669,0m0-7.2351,42.669,0" stroke="#500" stroke-dasharray="none" stroke-miterlimit="4" stroke-width="0.5" fill="none"/>
 <path d="m196.02,84.224,0,7.2356-3.5017,2.42-11.157,0-3.5024-2.42-3.5023,2.42-11.156,0-3.5024-2.42,0-7.2356,36.323,0z" fill-rule="evenodd" stroke="#500" stroke-miterlimit="4" stroke-dasharray="none" stroke-width="0.5" fill="#d20000"/>
 <path d="m196.02,59.789,0,2.7278m0,7.2356,0,7.2347m0,21.705,0,7.2366m0,7.2356,0,7.2346m-36.323-60.609,0,2.7278m0,7.2356,0,7.2346m0,21.705,0,7.2366m0,7.2356,0,7.2346m18.162-60.609,0,2.7278m0,7.2356,0,7.2347m0,7.2351,0,7.2356m0,7.2337,0,7.2366m0,7.2356,0,7.2346m-9.08-57.886v7.2351m0,7.2356,0,7.2347m18.161-21.705,0,7.2351m0,7.2356,0,7.2347m-1.6025,7.2518-2.4-7.2533m5.6056,7.2533,2.4-7.2533m-20.562,7.2533,2.4007-7.2533m-5.6061,7.2542-2.4-7.2542" stroke="#500" stroke-dasharray="none" stroke-miterlimit="4" stroke-width="0.5" fill="none"/>
 <path d="m189.82,45.711,3.1914,0m-30.29,0,3.1952,0m10.299,0,3.3116,0m13.484-7.2366-30.29,0m0-7.2371,30.29,0m-30.29-7.2371,30.29,0" stroke="#500" stroke-dasharray="none" stroke-miterlimit="4" stroke-width="0.5" fill="none"/>
 <path d="m177.86,38.474,0,7.2347m9.08-14.468,0,7.2347m-18.161-7.2347,0,7.2347m9.0815-14.472,0,7.2366m9.08-10.861,0,3.6263m-18.16-3.6266v3.6263" stroke="#500" stroke-dasharray="none" stroke-miterlimit="4" stroke-width="0.5" fill="none"/>
 <path d="m198.26,49.71,0,7.2841m-13.602-7.2841,0,7.2841m-13.601-7.2841,0,7.2841m-13.601-7.2841,0,7.2841" stroke="#500" stroke-dasharray="none" stroke-miterlimit="4" stroke-width="0.5" fill="none"/>
 <path d="m175.22,94.864c0-3.5546-2.8817-6.437-6.4363-6.437-3.554,0-6.4363,2.8824-6.4363,6.437v32.751h12.873v-32.761z" fill-rule="evenodd" fill="#ffcd50"/>
 <path d="m171.46,106.75c0.59244,0,1.0727,0.48028,1.0727,1.0727,0,0.38257-0.20161,0.71836-0.50368,0.90827l0.31308,2.7269h-1.7642l0.31308-2.7262c-0.30207-0.18991-0.50368-0.5257-0.50368-0.90896,0-0.59244,0.48028-1.0727,1.0727-1.0727z" fill-rule="evenodd" fill="#000"/>
 <path d="m161.91,98.305,7.5551,0c0.11835-0.50368-0.0867-1.0431-0.5195-1.3363,0.90895-0.6179,2.2239,0.2195,1.9301,1.3596,0.62409,0.08532,1.1759,0.39909,1.5723,0.85322-0.39634,0.45413-0.94818,0.7679-1.573,0.85391,0.29175,1.1408-1.019,1.9796-1.9294,1.361,0.43349-0.2945,0.63716-0.83258,0.5195-1.3363h-7.56v-1.7553z" fill-rule="evenodd" fill="#000"/>
 <path d="m161.91,115.67,7.5551,0c0.11835-0.50367-0.0867-1.0431-0.5195-1.3362,0.90895-0.6179,2.2239,0.2195,1.9301,1.3596,0.62409,0.0853,1.1759,0.39909,1.5723,0.85322-0.39634,0.45413-0.94818,0.7679-1.573,0.85391,0.29175,1.1408-1.019,1.9796-1.9294,1.361,0.43349-0.2945,0.63716-0.83258,0.5195-1.3363h-7.56v-1.7553z" fill-rule="evenodd" fill="#000"/>
 <path d="m193.38,94.864c0-3.5546-2.8824-6.437-6.437-6.437-3.5539,0-6.4363,2.8824-6.4363,6.437v32.751h12.873v-32.761z" fill-rule="evenodd" fill="#ffcd50"/>
 <path d="m184.26,106.75c-0.59243,0-1.0734,0.48028-1.0734,1.0727,0,0.38257,0.2016,0.71836,0.50436,0.90827l-0.31308,2.7269h1.7636l-0.31308-2.7262c0.30276-0.18991,0.50368-0.5257,0.50368-0.90896,0-0.59244-0.48029-1.0727-1.072-1.0727z" fill-rule="evenodd" fill="#000"/>
 <path d="m193.83,98.305-7.5551,0c-0.11903-0.50368,0.0867-1.0431,0.51951-1.3363-0.90965-0.6179-2.2239,0.2195-1.9301,1.3596-0.62478,0.08532-1.1759,0.39909-1.573,0.85322,0.39702,0.45413,0.94887,0.7679,1.573,0.85391-0.29175,1.1408,1.019,1.9796,1.9301,1.361-0.4335-0.2945-0.63786-0.83258-0.51951-1.3363h7.5551v-1.7553z" fill-rule="evenodd" fill="#000"/>
 <path d="m193.83,115.67-7.5551,0c-0.11903-0.50367,0.0867-1.0431,0.51951-1.3362-0.90965-0.6179-2.2239,0.2195-1.9301,1.3596-0.62478,0.0853-1.1759,0.39909-1.573,0.85322,0.39702,0.45413,0.94887,0.7679,1.573,0.85391-0.29175,1.1408,1.019,1.9796,1.9301,1.361-0.4335-0.2945-0.63786-0.83258-0.51951-1.3363h7.5551v-1.7553z" fill-rule="evenodd" fill="#000"/>
 <path d="m163.72,22.627,3.6867,0m2.7537,0,15.408,0m2.7544,0,3.686,0m-28.289,7.2347,12.767,0,0-4.4815m2.7544,4.4815,12.767,0,0-4.4815m-28.289,11.717,3.6867,0,0-4.4822m2.7537,4.4822,15.408,0,0-4.4822m2.7544,4.4822,3.686,0,0-4.4822m-28.289,11.717,1.9954,0m10.772,0,0-4.4822m13.496,4.4822,2.025,0,0-4.4822m2.6732-23.764,0,2.4881-1.4099,0m-2.753-2.4881,0,2.4881-11.278,0m-2.7524-2.4881,0,2.4881-11.278,0m-2.753-2.4881,0,2.4881-1.4099,0m28.06-5.241,5.5733,0-0.00048-2.7984m-19.604,2.7984,5.5733,0,0-2.7984m-19.604,2.7984,5.5733,0,0-2.7984" stroke="#500" stroke-dasharray="none" stroke-miterlimit="4" stroke-width="0.25" fill="none"/>
 <path d="m157.3,82.824,10.107,0,0-4.4822m2.7537,4.4822,15.408,0,0-4.4822m2.7544,4.4822,10.107,0,0-4.4822m-41.13-2.753,1.0266,0,0-4.4815m2.7537,4.4815,15.408,0,0-4.4815m2.7544,4.4815,15.407,0,0-4.4815m2.7544,4.4815,1.0266,0,0-4.4815m-41.13-2.753,10.107,0,0-4.4828m2.7537,4.4828,15.408,0,0-4.4828m2.7544,4.4828,10.107,0,0-4.4828m-41.13-2.753,1.0266,0m2.7537,0,15.408,0m2.7544,0,15.407,0m2.7544,0,1.0266,0m-41.13,28.776,1.0266,0,0-4.3177m39.077,4.3177,1.0266,0,0-4.3177m-37.566-42.663,0,5.47-6.8059,0m20.408-5.47,0,5.47-6.8058,0m34.011-5.47,0,5.47-6.8059,0m-6.7961-5.47,0,5.47-6.8059,0m-27.205,7.2351,2.0257,0,0-4.4822m2.7544,4.4822,10.848,0,0-4.4822m2.7537,4.4822,10.848,0,0-4.4822m2.7544,4.4822,10.848,0,0-4.4822m2.7537,4.4822,2.0257,0,0-4.4822m-44.371,46.156,3.6709,0,0-3.1218m15.626,3.1218,2.5356,0,0-3.3021m15.625,3.3021,3.6716,0,0-4.4808m-1.0266,11.718,1.0266,0,0-4.3184m-41.13,4.3184,1.0266,0,0-4.3184m36.432,11.554,3.6716,0,0-4.4815m-21.833,4.4815,2.5356,0,0-4.4815m-21.833,4.4815,3.6709,0,0-4.4815m-3.6709,18.951,3.6709,0,0-4.4815m15.626,4.4815,2.5356,0,0-4.4815m15.625,4.4815,3.6716,0,0-4.4815m-1.0266-2.7544,1.0266,0,0-4.3177m-41.13,4.3177,1.0266,0,0-4.3177m12.549-29.083-0.53257,1.6094c-1.0432-0.20987-2.0739-0.21055-3.117,0m-3.4294-1.6094,0.86836,2.625c-1.1931,0.7404-2.1737,1.7986-2.8184,3.0475m20.111-5.6727,0.86835,2.6243c-1.1918,0.74035-2.1744,1.8-2.8191,3.0475m9.0306-5.6717-0.53325,1.6101c-1.0438-0.20917-2.0746-0.21055-3.1163-0.00049m5.6776,1.0156c1.1931,0.7404,2.1744,1.7993,2.8191,3.0475l0.76586-0.52982v-5.1426m-21.746,2.6243c1.1931,0.74035,2.1744,1.8007,2.8184,3.0482l0.76586-0.52914v-5.1436" stroke="#500" stroke-dasharray="none" stroke-miterlimit="4" stroke-width="0.25" fill="none"/>
 <path d="m137.6,124.6,6.1783,0,0.86698-21.898-7.9129,0,0.86767,21.898z" fill-rule="evenodd" stroke="#FFF" stroke-dasharray="none" stroke-miterlimit="4" stroke-width="0.7342338" fill="#003d8f"/>
 <path d="m136.96,108.31,7.6446-4.4134m-7.5111,7.7698,7.3714-4.2558m-7.2386,7.6122,7.0996-4.0989m-6.9668,7.4554,6.8278-3.942m-6.6944,7.2985,6.5554-3.7851m-5.5804,6.6551,5.4407-3.1418m-7.081-16.51,3.889-2.2459" stroke="#FFF" stroke-dasharray="none" stroke-miterlimit="4" stroke-width="0.7342338" fill="none"/>
 <path d="m136.73,21.178,3.9565-8.5728,3.9565,8.5728,0,80.636-7.9129,0,0-80.636z" fill-rule="evenodd" stroke="#FFF" stroke-dasharray="none" stroke-miterlimit="4" stroke-width="0.7342338" fill="#003d8f"/>
 <path d="m140.69,127.64c2.3092,0,4.1815-1.8723,4.1815-4.1815h-8.363c0,2.3092,1.8723,4.1815,4.1815,4.1815z" fill-rule="evenodd" stroke="#FFF" stroke-dasharray="none" stroke-miterlimit="4" stroke-width="0.7342338" fill="#003d8f"/>
 <path d="m140.69,16.038,0,86.155" stroke="#FFF" stroke-dasharray="none" stroke-miterlimit="4" stroke-width="0.7342338" fill="none"/>
 <path d="m136.27,100.09-8.407-0.46171,0,4.5929,8.407-0.46239,8.835,0,8.407,0.46239,0-4.5929-8.407,0.54221-8.835-0.0805z" fill-rule="evenodd" stroke="#FFF" stroke-dasharray="none" stroke-miterlimit="4" stroke-width="0.7342338" fill="#003d8f"/>
 <path d="m145.11,103.75,0-3.5884m-8.835-0.0805,0,3.6688" stroke="#FFF" stroke-dasharray="none" stroke-miterlimit="4" stroke-width="0.7342338" fill="none"/>
 <path d="m222.21,79.334c-7.218-6.5342-12.411-5.7074-14.197-1.5578-0.94471,2.1963-2.4413,2.4729-4.3858,2.0532,0.7266,1.961,1.8434,3.0193,4.5723,2.7991-0.32684,2.4565,0.98192,4.2035,1.8661,6.4378,1.7945,4.5372-4.2847,4.873-4.5723,1.9597-0.39977-4.0514-2.0278-6.3766-4.6652-5.0388-2.85,1.4463-1.6858,4.6026,0,5.7853-2.473,2.4255-1.4457,6.1578,0.46652,7.1842-4.1897,3.0344-2.1172,6.6894,0.34817,6.6942,3.0104,0.006,3.5911-3.4583,2.8246-5.8543,1.7388,1.1229,3.4989,2.2438,6.7368,1.1188-0.18647,1.4305,0.72728,2.2088-0.39221,4.0129,1.7106-0.24909,2.7991-1.4931,3.2656-3.7322,0.21743,1.0885,0.90208,1.5241,0.65298,3.2656,2.3408-1.2908,3.8643-3.675,2.9856-7.3712-0.97913-4.123-1.8234-7.7256-0.10321-9.3003,0.52914-4.9081,3.3262-5.8357,4.5964-8.4564zm-13.31-42.128c-3.6558-1.5103-7.3267-3.5051-10.874-6.172-2.2129-1.6645-2.828-3.8952-1.8681-6.1142,2.5074-1.9934,1.5737-4.5785-0.15688-5.7867-1.6074-1.1223-3.9028-1.0555-4.7657,1.778,0.74108,0.9592,1.3452,1.9032,1.9597,3.0331l-0.31583,0.17202c-1.1574-2.1289-3.2835-4.0693-5.2742-1.2743-0.74177,1.0418-0.91104,2.548-0.28693,3.9496,1.6184-0.01996,3.1094-0.18991,4.829,0.20918l-0.0296,0.35987c-2.8308-0.2367-6.638-0.49678-5.5239,3.7115,1.0844,4.0955,4.0473,2.3491,5.7828,0.01514l0.28899,0.21399c-0.89934,1.2096-1.8447,2.1729-2.9464,3.0633,0.30551,3.4549,4.8262,4.3019,6.8636,1.5096-1.5854,2.0952-2.3209,4.189-1.189,6.2841,0.76448-1.1904,1.5571-2.2672,2.548-2.548-1.4511,2.197-1.1849,4.1485-1.0191,6.1142,1.0163-1.6322,2.0037-3.3076,3.4817-4.2462,0.82018,0.82846,1.6734,1.5915,2.5466,2.3147l0.18578-0.77545,0.001-0.0041-0.004-0.000685c0.10114-0.42248,0.24358-0.84153,0.42798-1.2537,0.18441-0.41009,0.40528-0.80095,0.66468-1.1711,0.97296-1.3851,2.5046-2.5342,4.6734-3.3819zm24.951,11.066c1.7278-2.7909,5.19-4.2131,4.1911-7.9199,2.1647,1.1099,3.7948,5.7613,0.46859,9.4887,1.1271,0.37088,1.9968-1.0266,2.3512-1.6865,0.62958,3.6606-1.7402,6.8685-5.3266,7.266-2.581,6.6962-0.0158,13.198,3.9145,19.042,1.917,2.8514,3.1019,6.3815,3.2966,9.805,0.42661,7.4965-6.452,9.7888-9.8593,3.9757-0.30069,2.325-0.89175,4.5716-2.2321,6.7359-1.6424,2.6505-1.8716,4.4148-0.37638,5.4118,2.2149,1.4759,3.3881,3.1438,3.1397,5.6242-0.11147,1.7112,0.67364,2.4144,2.356,2.1076-0.7266,2.0932-2.3822,2.497-4.4594,2.5645,1.0404,0.6943,1.9418,0.85666,3.2078,0.65504-0.46515,1.5055-2.2927,1.6651-3.4604,1.3287-1.2206,1.3252-2.3209,2.6505-3.5044,3.9757-1.0858,1.2158-1.7457,2.078-3.6145,1.6755-0.33716,0.34611-0.67432,0.59933-1.1526,0.89934,0.92479-0.13693,2.5308,0.4961,2.6677,1.9528,0.1266,1.4409-0.81608,4.0108-3.726,3.878-2.5445-0.11628-2.6161-1.6748-2.6161-1.6748-0.76101,0.32133-1.5475,0.53672-2.3732,0.59727,0.4211,0.99288-0.0213,2.4929-1.2344,3.181-0.87178,0.51332-2.2521,0.64475-3.4129,0.27661-3.203-1.0135-2.4296-4.4209,0.55802-5.7021l-0.41698-0.10803c-2.2872,0.63854-3.1005,2.4668-3.139,4.3803-1.7519,0.69429-3.2402-0.25459-3.8361-1.7326-1.3817-3.4239,3.2168-5.2047,6.0325-4.4402l-0.31652-0.34679c-2.0133-0.57182-3.7239-0.16377-5.5582,0.94956-1.0383-1.2964-0.45001-3.6599,1.2234-4.0521,0.96743-0.24015,2.5624,0.44381,3.6778,0.90071,1.3707,0.56834,2.6986,0.43624,3.3964,0.23532,3.5574-1.0686,6.0144-4.2317,8.0154-7.2175,2.2548-3.3654,1.8633-5.0339,1.0603-6.1813-0.57525-0.82087-0.89313-1.9597-1.1546-3.4349-0.19336,1.7897-1.5083,2.6553-2.8514,3.0998,2.6298-4.101-3.0771-14.862,1.8984-21.113,2.3422-2.9422,3.4335-5.6507,3.309-8.7712l-0.29381,0.24083c-0.0578,1.1229-0.28281,2.1269-0.68808,3.0014-2.486-4.5262-7.6365-7.4236-10.611-11.967,1.1574-1.3995,4.2751-3.5814,5.659-3.9124-0.28831-1.9803-0.1156-3.5794,0.15207-5.3173-0.65641,1.5544-1.1959,3.1081-1.4821,4.6624-1.8833,0.39702-4.2021,2.226-5.4133,3.5877,0.70046,2.9175,0.5938,4.5978-1.5014,6.7652,0.0172-2.314-1.3101-4.2613-1.8193-4.6755,0.22638,2.1502,0.24427,4.079-1.7952,5.195-0.5147-2.2411-2.0663-3.7363-3.6248-4.6336l-0.27111,0.07225c3.1459,3.3661,1.37,8.4505-3.1211,7.9385-0.0151-1.831-0.21949-3.448-0.56149-5.1945l-0.35436,0.06881c0.52502,2.6766,1.2599,6.6228-2.5411,6.6482-4.1519,0.02682-3.2312-4.4175-1.2034-6.6189l-0.35299-0.18578c-1.3844,1.5028-2.1468,3.0881-2.1929,5.0222-1.4828,0.27524-2.6966-0.54632-3.3462-1.7161-1.7986-3.2402,1.6562-5.5748,4.7257-4.9096l-0.12798-0.3523c-1.6892-0.36606-3.2271,0.07982-4.8083,0.77755-1.7133-2.228,0.16789-5.5116,3.0585-5.4833,0.89518,0.009,1.9039,0.45758,3.0441,1.4223,6.2483,1.3315,10.839-5.3741,13.264-10.21-1.37,1.5-2.731,3.0599-4.2915,4.2448-0.36538-2.9532,0.68048-5.9067,3.547-8.8583-1.5227,0.40253-2.8562,1.1126-3.9386,2.3147-0.0557-3.8209,1.0493-6.7721,3.5959-9.0022-0.85734-0.03234-1.7147,0.11009-2.5721,0.42868,0.62821-2.6429,2.9285-4.6982,7.3727-5.7956,1.9273-0.47546,3.7542-1.8234,4.231-2.8947,3.1019-0.82293,4.7911-2.4241,5.0643-5.8768l-0.35987-0.02821c-0.1555,1.9645-1.1436,3.2044-2.5872,4.0136-1.939,1.0872-2.237,0.37707-4.1141,0.43762-2.0828,0.06743-3.223,1.2269-3.6055,2.2562-0.77893-1.3817-0.65504-3.2636,0.90825-3.8271l-0.33647-0.78235c1.7918-0.69566,5.6081,0.63991,6.7647-0.60413,1.3562-1.4587,1.5571-5.1886-1.0776-5.5998-1.4877-0.23189-2.8143,0.46721-4.0301,1.1491-3.0193,1.6934-4.6384-1.3714-3.0723-3.7886-0.21399,0.0048-0.42798,0.0089-0.64128,0.01376-0.17959-0.66884-0.16858-1.4016,0.0324-2.1978,1.4305-0.30344,3.2959-0.99704,5.0579-0.92411,0.0131-1.6803,1.6122-2.2803,4.7987-1.8007,1.8915,0.04541,3.1487-0.92616,3.772-2.9147,0.70531,0.85049,1.0266,2.4076,1.0459,3.4693-0.41216,0.61788-0.73762,1.3108-0.91447,2.1454l0.33441,0.13555c0.51744-2.1688,3.5884-2.9725,4.4739-5.0173,3.1253,3.3806,2.826,7.4236-0.74725,10.702l0.25665,0.25253c1.7546-1.4643,2.9202-2.9595,3.4384-4.5118,0.55665-0.50094,1.2681-1.3074,1.8028-1.8516,0.86835,2.892,0.26767,5.5542-1.5372,7.2831,1.5427,0.0289,2.998-0.55391,4.542-1.5516,0.28693,2.6588-0.62753,5.0486-3.5134,6.1813,1.3982,1.0177,2.8473,1.6734,4.3728,1.8007-0.74245,2.323-2.5762,3.0565-4.7154,3.3434,0.93854,1.6941,2.3292,2.7083,4.0294,3.2581-1.7106,2.1296-3.6351,2.806-6.1069,2.6484,0.25459,1.6775,1.4752,3.7115,3.0158,4.4657-1.4862,1.5867-3.5849,2.3897-5.5792,2.0698-0.0564,9.4936,1.9445,18.741,6.1157,27.593,1.7305,3.6716,1.2323,8.2543,2.969,10.735,1.884,2.6911,4.9874,2.036,4.7106-2.837-0.16995-2.9939-1.2076-6.0839-2.8845-8.5778-4.52-6.7217-7.1891-14.223-3.9131-21.896-0.40046-1.7697-0.65851-4.0287,0.34817-5.656z" stroke="#FFF" stroke-dasharray="none" stroke-miterlimit="4" stroke-width="1.5" fill="none"/>
 <path d="m222.21,79.334c-7.218-6.5342-12.411-5.7074-14.197-1.5578-0.94471,2.1963-2.4413,2.4729-4.3858,2.0532,0.7266,1.961,1.8434,3.0193,4.5723,2.7991-0.32684,2.4565,0.98192,4.2035,1.8661,6.4378,1.7945,4.5372-4.2847,4.873-4.5723,1.9597-0.39977-4.0514-2.0278-6.3766-4.6652-5.0388-2.85,1.4463-1.6858,4.6026,0,5.7853-2.473,2.4255-1.4457,6.1578,0.46652,7.1842-4.1897,3.0344-2.1172,6.6894,0.34817,6.6942,3.0104,0.006,3.5911-3.4583,2.8246-5.8543,1.7388,1.1229,3.4989,2.2438,6.7368,1.1188-0.18647,1.4305,0.72728,2.2088-0.39221,4.0129,1.7106-0.24909,2.7991-1.4931,3.2656-3.7322,0.21743,1.0885,0.90208,1.5241,0.65298,3.2656,2.3408-1.2908,3.8643-3.675,2.9856-7.3712-0.97913-4.123-1.8234-7.7256-0.10321-9.3003,0.52914-4.9081,3.3262-5.8357,4.5964-8.4564z" fill-rule="evenodd" stroke-width="0" fill="#003d8f"/>
 <path d="m222.61,76.96c0.3523,1.3851,0.11147,3.3943-0.85186,4.3638-0.71284,0.22087-2.1447,0.38188-2.4461-1.3899-0.38877-2.1317,0.83879-2.828,0.83879-2.828-0.41767-1.1058-1.5193-2.4385-3.7569-3.6599,0.93718-0.32822,2.7454-0.11216,2.7454-0.11216,1.1621,0.50711,2.6298,2.2012,3.4707,3.6262z" fill-rule="evenodd" stroke="#FFF" stroke-miterlimit="4" stroke-dasharray="none" stroke-width="0.5" fill="#003d8f"/>
 <path d="m209.28,27.827c3.201-0.75137,6.6801-1.6101,8.404,2.5239l-0.95367,0.66884c-1.6197-3.9042-5.0961-1.9789-7.4437-0.9943-3.1204,1.3108-8.012-1.6101-4.2565-5.0422,0.29725,2.9436,2.0401,3.3613,4.2496,2.8438z" fill-rule="evenodd" fill="#ffcd50"/>
 <path d="m210.96,28.972c-0.0447,1.0246,0.15069,1.9177,0.15069,1.9177l2.1434-0.04817c-0.76448-0.55048-1.5262-1.1539-2.294-1.8695zm0.003-1.3135c-0.34061-0.9592-0.42455-1.9844-0.42455-1.9844l2.2604-0.503c-0.30069,0.22363-1.5138,1.756-1.8358,2.4874z" fill-rule="evenodd" fill="#ffcd50"/>
 <path d="m208.9,37.206c-3.6558-1.5103-7.3267-3.5051-10.874-6.172-2.2129-1.6645-2.828-3.8952-1.8681-6.1142,2.5074-1.9934,1.5737-4.5785-0.15688-5.7867-1.6074-1.1223-3.9028-1.0555-4.7657,1.778,0.74108,0.9592,1.3452,1.9032,1.9597,3.0331l-0.31584,0.17202c-1.1574-2.1289-3.2835-4.0693-5.2742-1.2743-0.74178,1.0418-0.91104,2.548-0.28693,3.9496,1.6184-0.01996,3.1094-0.18991,4.829,0.20918l-0.0296,0.35987c-2.8308-0.2367-6.638-0.49678-5.5239,3.7115,1.0844,4.0955,4.0473,2.3491,5.7828,0.01514l0.28899,0.21399c-0.89933,1.2096-1.8447,2.1729-2.9464,3.0633,0.30551,3.4549,4.8262,4.3019,6.8636,1.5096-1.5854,2.0952-2.3209,4.189-1.189,6.2841,0.76449-1.1904,1.5571-2.2672,2.548-2.548-1.4511,2.197-1.1849,4.1485-1.0191,6.1142,1.0163-1.6322,2.0037-3.3076,3.4817-4.2462,0.82019,0.82846,1.6734,1.5915,2.5466,2.3147l0.18578-0.77545,0.001-0.0041-0.004-0.000685c0.10115-0.42248,0.24359-0.84153,0.42799-1.2537,0.18441-0.41009,0.40528-0.80095,0.66468-1.1711,0.97296-1.3851,2.5046-2.5342,4.6734-3.3819zm24.951,11.066c1.7278-2.7909,5.19-4.2131,4.1911-7.9199,2.1647,1.1099,3.7948,5.7613,0.46859,9.4887,1.1271,0.37088,1.9968-1.0266,2.3512-1.6865,0.62958,3.6606-1.7401,6.8685-5.3266,7.266-2.581,6.6962-0.0158,13.198,3.9145,19.042,1.917,2.8514,3.1019,6.3815,3.2966,9.805,0.42661,7.4965-6.452,9.7888-9.8593,3.9757-0.30069,2.325-0.89175,4.5716-2.2321,6.7359-1.6424,2.6505-1.8716,4.4148-0.37638,5.4118,2.2149,1.4759,3.3881,3.1438,3.1397,5.6242-0.11147,1.7112,0.67364,2.4144,2.356,2.1076-0.72659,2.0932-2.3821,2.497-4.4594,2.5645,1.0404,0.6943,1.9418,0.85666,3.2078,0.65504-0.46514,1.5055-2.2927,1.6651-3.4604,1.3287-1.2206,1.3252-2.3209,2.6505-3.5044,3.9757-1.0858,1.2158-1.7457,2.078-3.6145,1.6755-0.33716,0.34611-0.67432,0.59933-1.1526,0.89934,0.92479-0.13693,2.5308,0.4961,2.6677,1.9528,0.12661,1.4409-0.81607,4.0108-3.726,3.878-2.5445-0.11628-2.6161-1.6748-2.6161-1.6748-0.76101,0.32133-1.5475,0.53672-2.3732,0.59727,0.42111,0.99288-0.0213,2.4929-1.2344,3.181-0.87178,0.51332-2.2521,0.64475-3.4129,0.27661-3.203-1.0135-2.4296-4.4209,0.55801-5.7021l-0.41697-0.10803c-2.2872,0.63854-3.1005,2.4668-3.139,4.3803-1.7519,0.69429-3.2402-0.25459-3.8361-1.7326-1.3817-3.4239,3.2168-5.2047,6.0325-4.4402l-0.31652-0.34679c-2.0133-0.57182-3.7239-0.16377-5.5582,0.94956-1.0383-1.2964-0.45001-3.6599,1.2234-4.0521,0.96743-0.24015,2.5624,0.44381,3.6778,0.90071,1.3707,0.56834,2.6986,0.43624,3.3964,0.23532,3.5574-1.0686,6.0144-4.2317,8.0154-7.2175,2.2548-3.3654,1.8633-5.0339,1.0603-6.1813-0.57524-0.82087-0.89312-1.9597-1.1546-3.4349-0.19335,1.7897-1.5083,2.6553-2.8514,3.0998,2.6298-4.101-3.0771-14.862,1.8984-21.113,2.3422-2.9422,3.4335-5.6507,3.309-8.7712l-0.29381,0.24083c-0.0578,1.1229-0.28281,2.1269-0.68808,3.0014-2.486-4.5262-7.6365-7.4236-10.611-11.967,1.1574-1.3995,4.275-3.5814,5.659-3.9124-0.28831-1.9803-0.1156-3.5794,0.15206-5.3173-0.6564,1.5544-1.1959,3.1081-1.4821,4.6624-1.8833,0.39702-4.2021,2.226-5.4133,3.5877,0.70046,2.9175,0.5938,4.5978-1.5014,6.7652,0.0172-2.314-1.3101-4.2613-1.8193-4.6755,0.22638,2.1502,0.24427,4.079-1.7952,5.195-0.5147-2.2411-2.0663-3.7363-3.6248-4.6336l-0.27111,0.07225c3.1459,3.3661,1.37,8.4505-3.1211,7.9385-0.0151-1.831-0.2195-3.448-0.56149-5.1945l-0.35436,0.06881c0.52502,2.6766,1.2599,6.6228-2.5411,6.6482-4.1519,0.02682-3.2312-4.4175-1.2035-6.6189l-0.35298-0.18578c-1.3844,1.5028-2.1468,3.0881-2.1929,5.0222-1.4828,0.27524-2.6966-0.54632-3.3462-1.7161-1.7986-3.2402,1.6562-5.5748,4.7257-4.9096l-0.12798-0.3523c-1.6892-0.36606-3.2271,0.07982-4.8083,0.77755-1.7133-2.228,0.16789-5.5116,3.0585-5.4833,0.89518,0.009,1.9039,0.45758,3.0441,1.4223,6.2483,1.3315,10.839-5.3741,13.264-10.21-1.37,1.5-2.731,3.0599-4.2916,4.2448-0.36537-2.9532,0.68049-5.9067,3.5471-8.8583-1.5227,0.40253-2.8562,1.1126-3.9386,2.3147-0.0557-3.8209,1.0493-6.7721,3.5959-9.0022-0.85734-0.03234-1.7147,0.11009-2.5721,0.42868,0.62821-2.6429,2.9285-4.6982,7.3727-5.7956,1.9273-0.47546,3.7542-1.8234,4.231-2.8947,3.1019-0.82293,4.7911-2.4241,5.0642-5.8768l-0.35987-0.02821c-0.1555,1.9645-1.1436,3.2044-2.5872,4.0136-1.939,1.0872-2.237,0.37707-4.1141,0.43762-2.0828,0.06743-3.223,1.2269-3.6055,2.2562-0.77892-1.3817-0.65503-3.2636,0.90825-3.8271l-0.33647-0.78235c1.7918-0.69566,5.6081,0.63991,6.7647-0.60413,1.3562-1.4587,1.5571-5.1886-1.0776-5.5998-1.4877-0.23189-2.8143,0.46721-4.0301,1.1491-3.0193,1.6934-4.6384-1.3714-3.0723-3.7886-0.21399,0.0048-0.42799,0.0089-0.64128,0.01376-0.17959-0.66884-0.16858-1.4016,0.0324-2.1978,1.4305-0.30344,3.2959-0.99704,5.0579-0.92411,0.0131-1.6803,1.6122-2.2803,4.7987-1.8007,1.8915,0.04541,3.1487-0.92616,3.7721-2.9147,0.7053,0.85049,1.0266,2.4076,1.0459,3.4693-0.41217,0.61788-0.73761,1.3108-0.91447,2.1454l0.33441,0.13555c0.51744-2.1688,3.5884-2.9725,4.4739-5.0173,3.1253,3.3806,2.826,7.4236-0.74725,10.702l0.25665,0.25253c1.7546-1.4643,2.9202-2.9595,3.4384-4.5118,0.55665-0.50094,1.2681-1.3074,1.8028-1.8516,0.86836,2.892,0.26767,5.5542-1.5372,7.2831,1.5427,0.0289,2.998-0.55391,4.542-1.5516,0.28693,2.6588-0.62753,5.0486-3.5134,6.1813,1.3982,1.0177,2.8473,1.6734,4.3728,1.8007-0.74246,2.323-2.5762,3.0565-4.7154,3.3434,0.93855,1.6941,2.3291,2.7083,4.0294,3.2581-1.7106,2.1296-3.6352,2.806-6.1069,2.6484,0.25459,1.6775,1.4753,3.7115,3.0158,4.4657-1.4862,1.5867-3.5849,2.3897-5.5792,2.0698-0.0564,9.4936,1.9446,18.741,6.1157,27.593,1.7305,3.6716,1.2323,8.2543,2.969,10.735,1.8839,2.6911,4.9874,2.036,4.7106-2.837-0.16996-2.9939-1.2076-6.0839-2.8845-8.5778-4.52-6.7217-7.1891-14.223-3.9131-21.896-0.40046-1.7697-0.65851-4.0287,0.34817-5.656z" fill-rule="evenodd" stroke-width="0" fill="#003d8f"/>
 <path d="m215.32,17.297c-1.0452,1.125,0.11835,1.8434,1.3287,1.5248,0.9475-0.24909,3.212-0.48372,3.5264,0.74657,0.1734-1.8076-1.4897-1.6858-2.6904-1.5076-0.84153,0.12248-2.0072,0.43762-2.1647-0.76375z" fill-rule="evenodd" fill="#FFF"/>
 <path d="m218.94,19.866c-0.0537,0.78852-0.49884,1.4643-1.1505,1.7285-0.55802-0.31514-0.88559-1.0644-0.9757-1.7986-0.33579,0.547-0.34404,1.1807-0.1851,1.8276-0.70114-0.24152-1.1924-0.93855-1.1574-1.7574,0.042-0.9688,3.5354-0.99498,3.4686,0z" fill-rule="evenodd" fill="#FFF"/>
 <path d="m227.36,16.81c-0.4961,1.8764-2.1702,2.0739-3.0502,3.7514,0.85254,0.62821,1.3432,1.4415,1.6356,2.4248l-0.2312,0.40803c-0.15481-0.89312-1.5193-2.2707-2.3711-2.5975,0.78925-2.3993,3.4508-2.55,3.8966-4.3046l0.12041,0.31789z" fill-rule="evenodd" fill="#FFF"/>
 <path d="m202.21,122.06s-0.31032-2.9347,1.8847-4.4072c3.5581-2.4248,1.7684,3.2051,0.94129,3.0916-2.0312-0.47684-2.826,1.3156-2.826,1.3156z" fill-rule="evenodd" fill="#ffcd50"/>
 <path d="m197.62,92.25s2.7716-1.0156,4.734,0.75483c3.2182,2.8597-2.678,2.4957-2.7695,1.6658-0.0323-2.0856-1.9645-2.4207-1.9645-2.4207z" fill-rule="evenodd" fill="#ffcd50"/>
 <path d="m198.18,107.61s2.9223,0.41285,4.4712-1.7285c2.548-3.4707-3.1411-1.8805-3.0572-1.0493,0.40528,2.0464-1.414,2.7778-1.414,2.7778z" fill-rule="evenodd" fill="#ffcd50"/>
 <path d="m198.37,84.096s2.945-0.19473,4.3308,2.0553c2.2838,3.6503-3.2718,1.6425-3.126,0.82019,0.55528-2.0106-1.2048-2.8755-1.2048-2.8755z" fill-rule="evenodd" fill="#ffcd50"/>
 <path d="m185.03,66.818s1.1938-2.6993,3.8299-2.8824c4.2929-0.32959-0.0626,3.6599-0.72386,3.1494-1.5234-1.425-3.106-0.26698-3.106-0.26698z" fill-rule="evenodd" fill="#ffcd50"/>
 <path d="m187.18,75.399s-0.00069-2.9512,2.3367-4.1849c3.7927-2.0381,1.4223,3.3723,0.6117,3.1727-1.9693-0.68671-2.9484,1.0122-2.9484,1.0122z" fill-rule="evenodd" fill="#ffcd50"/>
 <path d="m199.87,77.6s2.4895-1.5853,2.2741-4.22c-0.31927-4.2936-3.609,0.61308-3.0048,1.1897,1.6376,1.2915,0.73074,3.0303,0.73074,3.0303z" fill-rule="evenodd" fill="#ffcd50"/>
 <path d="m195.49,79.025s-2.1365-2.036-1.4168-4.5792c1.1429-4.1512,3.4232,1.2984,2.7186,1.7477-1.8558,0.95093-1.3018,2.8315-1.3018,2.8315z" fill-rule="evenodd" fill="#ffcd50"/>
 <path d="m188.66,38.4s2.9354,0.30895,4.4065-1.8867c2.4234-3.5588-3.2058-1.767-3.0916-0.93992,0.47753,2.0305-1.3149,2.8266-1.3149,2.8266z" fill-rule="evenodd" fill="#ffcd50"/>
 <path d="m193.87,16.217s2.87,0.68602,3.5271,3.2457c1.1009,4.1622-3.6111,0.60001-3.2285-0.14243,1.1264-1.756-0.29863-3.1032-0.29863-3.1032z" fill-rule="evenodd" fill="#ffcd50"/>
 <path d="m185.66,21.907s2.8225-0.86148,4.6852,1.0142c3.0558,3.0331-2.8115,2.3443-2.8569,1.5103,0.0826-2.0842-1.8282-2.5246-1.8282-2.5246z" fill-rule="evenodd" fill="#ffcd50"/>
 <path d="m184.44,31.712s1.2681-2.6649,3.9083-2.775c4.3005-0.20986-0.16514,3.6572-0.81125,3.128-1.4828-1.467-3.0971-0.35299-3.0971-0.35299z" fill-rule="evenodd" fill="#ffcd50"/>
 <path d="m202.67,56.999-49.615,0m8.8172-7.1221-8.824,0m22.426,0-8.824,0m22.427,0-8.824,0m22.427,0-8.824,0" stroke="#55000f" stroke-dasharray="none" stroke-miterlimit="4" stroke-width="0.5" fill="none"/>
 <path stroke-linejoin="miter" d="m188.1,14.834,7.5959,0m-21.627,0,7.5959,0m-21.628,0,7.5959,0" stroke="#500" stroke-linecap="butt" stroke-miterlimit="4" stroke-dasharray="none" stroke-width="0.5" fill="none"/>
 <path d="m224.29,127.7s1.6521-2.4454,0.40597-4.7767c-2.0023-3.8113-3.0668,1.9989-2.283,2.2879,2.0168,0.53258,1.8771,2.4888,1.8771,2.4888z" fill-rule="evenodd" fill="#ffcd50"/>
 <path d="m211.88,130.53s-2.025-2.1468-1.1718-4.648c1.3603-4.0844,3.3489,1.4773,2.6223,1.8888-1.9039,0.85184-1.4505,2.7592-1.4505,2.7592z" fill-rule="evenodd" fill="#ffcd50"/>
 <path d="m204.31,127.49s-0.80024-2.8411,1.1147-4.6624c3.0984-2.9897,2.2837,2.861,1.4491,2.8886-2.0814-0.1273-2.5638,1.7739-2.5638,1.7739z" fill-rule="evenodd" fill="#ffcd50"/>
 <path d="m24.532,74.156,5.3959-13.641-3.6052-1.3114-4.6343,13.918-0.49217-0.17897c-0.3845,1.0568,0.1608,2.2258,1.2178,2.6108,1.057,0.38443,2.2254-0.16056,2.6106-1.2176l-0.49174-0.17905z" fill-rule="evenodd" stroke="#003d8f" stroke-miterlimit="4" stroke-dasharray="none" stroke-width="0.24856624" fill="#ffcd50"/>
 <path fill-rule="evenodd" fill="#ffcd50" d="m68.742,86.26c1.7562,1.0686,4.0265,1.586,5.6554,2.276,5.7802,2.4484,5.3969,10.533,8.4671,9.8124-3.3776,3.7956-7.4555,0.72844-6.924-2.952-1.9314,0.41819-1.4215,3.9353-0.34484,7.8368,1.0116,3.6648,2.5105,7.716,3.3607,8.4398,1.2473,1.0621,3.1391,1.2656,5.0444,1.982,1.596,0.60005,3.1852,1.7818,4.5779,1.993,1.56,0.23652,2.567-0.0768,3.8033-0.76345,1.9741-1.0966,4.8617-3.236,6.7789-0.0555,0.47044,0.78031,0.53675,1.82-0.0569,3.0547-0.64429-0.12741-1.2885-0.16519-1.9328-0.11314,6.9002,0.39326,2.9046,8.2529-1.4917,5.0514-0.28858-0.39387-0.62196-0.76523-1.0001-1.1141,1.2457,1.6221,2.4885,3.7464-0.0195,5.1294-1.881,1.0373-4.9154,0.47184-5.1792-3.1421l-1.902-0.50901c1.0299,7.0498-9.9934,5.9581-7.0771-2.4326-2.1709-0.7731-3.9857-1.8038-5.8344-2.7973-2.0077,0.54057,0.0392,4.2958-4.54,4.5372,1.9161-1.6671,0.55381-4.7654,2.2047-5.7294-0.47707-0.22427-0.94067-0.39911-1.4402-0.5643-5.2736-0.74113,0.81022,5.9491-6.7704,6.847,4.0676-4.1414-1.1778-7.54,3.2897-10.31,0.68484-11.898-2.3149-18.218-8.4637-19.313-0.59-3.6136-1.649-7.1636-2.9201-10.59,1.9294-1.5988,3.781-3.2963,5.4735-5.1434,1.5431,3.5191,3.8583,6.5104,7.2407,8.569z"/>
 <path d="m79.212,66.669,0,34.668c0,13.366,13.802,7.1379,19.994,13.427,6.1913-6.2877,19.994-0.06,19.994-13.427v-34.841l-39.989,0.16218z" fill-rule="evenodd" stroke="#FFF" stroke-miterlimit="4" stroke-dasharray="none" stroke-width="1" fill="#003d8f"/>
 <path fill-rule="evenodd" fill="#ffcd50" d="m91.272,107.01,0-3.7119,15.873,0,0,3.7119zm-0.00099-4.1752c-0.0261-3.4863-0.51712-7.4236-2.0051-10.484,0.18462-0.0552,0.37988-0.0853,0.58238-0.0853,1.1217,0,2.0314,0.909,2.0314,2.0298,0,0.27718-0.0556,0.54133-0.15629,0.78199,0.26096-0.12183,0.55182-0.18947,0.85879-0.18947,1.1219,0,2.0316,0.90881,2.0316,2.0296,0,1.1209-0.90965,2.03-2.0316,2.03-0.14564,0-0.28767-0.0159-0.42468-0.0451,0.15228,1.3706,0.85581,2.4077,1.7005,2.4077,0.65208,0,1.2198-0.61738,1.5151-1.529,0.29531,0.91144,0.86342,1.529,1.5155,1.529,0.90801,0,1.6529-1.1982,1.7253-2.7214-0.32745,0.226-0.72403,0.35887-1.1521,0.35887-1.1219,0-2.0316-0.909-2.0316-2.03,0-1.1156,0.9014-2.0212,2.0163-2.0296-0.17136-0.29746-0.2698-0.6427-0.2698-1.0106,0-1.1207,0.90985-2.0296,2.0318-2.0296,1.1219,0,2.0316,0.90881,2.0316,2.0296,0,0.3679-0.0982,0.71313-0.2696,1.0106,1.1149,0.008,2.0163,0.91402,2.0163,2.0296,0,1.1209-0.90985,2.03-2.0316,2.03-0.4281,0-0.82464-0.13288-1.1521-0.35887,0.0723,1.5232,0.81703,2.7214,1.7253,2.7214,0.65209,0,1.2202-0.61758,1.5155-1.529,0.29531,0.91164,0.86283,1.529,1.5149,1.529,0.84493,0,1.5485-1.037,1.7007-2.4077-0.13702,0.0292-0.27904,0.0451-0.42489,0.0451-1.1217,0-2.0314-0.909-2.0314-2.03,0-1.1207,0.90965-2.0296,2.0314-2.0296,0.30716,0,0.59805,0.0676,0.8588,0.18947-0.10065-0.24065-0.15629-0.50479-0.15629-0.78199,0-1.1207,0.90985-2.0298,2.0316-2.0298,0.2025,0,0.39776,0.0301,0.58239,0.0853-1.4882,3.0607-1.979,6.9976-2.0052,10.484z"/>
 <path fill-rule="evenodd" fill="#d40000" d="m88.032,32.516c-0.24336,3.3772-3.5223,3.3993-8.9533,2.7223-6.6869-0.84179-8.5318-0.16598-11.62,2.7806l0.8838,1.6744c1.433-2.092,4.4266-4.7586,11.815-2.6859,7.8114,2.3642,11.024-0.3995,7.875-4.4913z"/>
 <path fill-rule="evenodd" fill="#d40000" d="m78.632,36.953c0.0876,1.7447-0.24798,3.6051-0.24798,3.6051l-3.7028-0.07717c1.4987-0.98407,2.743-2.2671,3.9507-3.528zm0.23692-1.7348c0.55888-1.5767,0.70592-3.6293,0.70592-3.6293l-3.6756-0.80103c1.2556,1.0021,2.2461,3.0856,2.9697,4.4303z"/>
 <path fill-rule="evenodd" fill="#d40000" d="m102.74,117.7c-0.75598-1.8934-2.227-3.6018-4.4335-3.7575-2.0172-0.14288-1.4103,2.1548,0.55321,3.3788,1.169-0.48169,2.579-0.19352,3.8802,0.3786z"/>
 <path fill-rule="evenodd" fill="#d40000" d="m103.12,123.56c-0.47306-1.9828-1.681-3.8867-3.8415-4.3607-1.9752-0.43406-1.7077,1.9274,0.0575,3.4233,1.2264-0.30687,2.5796,0.18266,3.784,0.93744z"/>
 <path fill-rule="evenodd" fill="#d40000" d="m95.162,129.44c0.67943-1.9221,0.69891-4.1764-0.85805-5.7479-1.4229-1.437-2.4806,0.69107-1.8106,2.9056,1.1967,0.40834,2.0672,1.5542,2.6686,2.8421z"/>
 <path fill-rule="evenodd" fill="#d40000" d="m85.822,129.82c-1.673-1.1649-3.0039-2.9848-2.6558-5.1692,0.31751-1.9971,2.4181-0.88539,3.1657,1.3042-0.73386,1.0295-0.77244,2.4681-0.50981,3.8649z"/>
 <path d="m56.332,88.78c0.84781,0.25541,2.4763,0.43768,2.8514-1.5968,0.45557-2.4655-0.95554-3.2814-0.95554-3.2814,0.49719-1.262,1.783-2.7979,4.3673-4.1947-1.1316-0.22105-2.4959-0.31283-3.5197-0.1808" stroke="#FFF" stroke-dasharray="none" stroke-miterlimit="4" stroke-width="0.69999999" fill="none"/>
 <path fill-rule="evenodd" fill="#ffcd50" d="m25.392,5.8383c-4.447,1.866-4.592,7.3033-2.003,10.019-1.352-0.253-2.527-1.094-3.325-2.283-0.562,4.596,2.074,8.186,6.214,8.839,1.383,8.838-1.928,16.16-7.441,23.285-5.861,7.575-9.117,14.728-10.299,21.001-0.7595-6.84,1.4207-12.75,3.4481-18.267,2.079-5.653,4.005-10.924,2.843-16.482,1.833-2.849,0.779-7.291-1.662-9.32-1.952-1.623-2.73-3.188-2.175-6.089-4.5826,2.124-4.1039,9.867-1.3669,12.272-1.6096,0.087-2.6893-1.235-3.4797-3.356-1.3728,4.36,1.706,7.3207,5.9964,7.7049,0.71432,4.6359-0.99071,9.2966-2.8275,14.291-1.8412,5.0087-3.7979,10.318-3.8057,16.372-0.0137,10.533,5.0007,24.084,16.451,26.55,5.2378,1.1284,12.213,0.65119,18.346-3.5443,0.27588,1.4714,0.9206,3.0074,1.8019,4.6478,1.6588,3.0869-0.30372,5.5624-4.1164,6.0894-3.2927,0.45236-9.5551,1.4515-12.288-0.57662-4.532-3.3653-8.2269,1.6454-11.712-0.93452,1.1935,7.8441,8.4704-1.3272,9.4601,6.7455-2.5481,0.18889-3.6412-3.1267-6.5402-0.85499,2.9453,0.51697,2.3547,4.2054,6.9284,3.1366,0.009,4.0662-0.49162,7.9584-2.7186,10.548-9.2658,1.6155-1.4078,11.711,2.7186,5.1101l2.0818,1.3372c-2.5844,4.5186,1.1145,7.0985,4.1472,6.0744,2.7832-0.94447,2.4084-2.6594,2.1281-5.0057,0.33205,1.0737,0.5115,2.1574,0.54381,3.2659,1.4336,2.3811,4.2889,2.0977,5.4993,0.40264,1.5713-2.2021,0.0432-3.8326-1.6309-4.7373,0.64671,0.0944,1.4694,0.4772,1.9257,1.0091,4.4858-0.88979,0.48317-7.4613-4.3028-4.2253-2.0609,1.3918-5.3701-0.1541-4.5981-3.1714,0.4951-1.9287,1.1791-3.5791,2.1126-5.3388,1.7826-3.3703,5.976-3.6586,10.331-3.077,2.0823,0.27836,4.1363,0.512,6.0426,0.55674,1.4038,2.2121-1.3819,2.9179-1.5226,4.8963,1.6459-1.6652,5.6017-0.25351,5.4824-5.1101,0.67604-0.13918,1.6255-0.42253,2.2071-0.67107,3.8922,3.0173-3.8952,9.2807,3.4946,11.607-2.8434-5.1797,3.1366-7.3768-0.77546-13.173,3.5592-5.975,0.3082-16.891-1.8939-22.727,3.3206-2.729,6.9444-6.1142,9.8176-10.658,2.6097-1.531,5.6122-4.6627,8.6792-8.0181,3.0571,1.6702,4.8168,4.1159,5.2841,7.3321,1.1781-0.69593,2.3314-1.6503,3.246-4.4241,2.0878,0.6661,3.7133,2.4606,5.2841,4.4241,0.78541-1.5907,1.1831-3.1764,1.193-4.7671,1.4764-0.2237,3.4548-0.05964,4.4291,1.367,0.57663-0.8898,1.705-1.4018,2.903-1.367-0.45732,5.5823,9.2459,5.7613,6.9742-0.16901-0.16901-0.45236,0.24357-0.85002,0.512-1.198,0.61639,0.01491,1.3024,0.30323,2.053,0.855,1.2875,8.0777,12.323,2.1474,5.7314-2.6097-2.058-1.4863-4.8218-1.4068-7.6104,0.04473-3.2212-0.85002-6.3329-1.1632-9.3702-1.1035-2.2468,0.04966-2.8384-0.90968-4.4738-2.0977-1.7448-1.2676-4.1706-2.5252-6.492-3.5393-0.2386-5.2194-2.5252-8.545-5.806-9.227-0.16405-1.5932-0.61639-3.0661-1.6802-4.2566-2.4407,4.1706-5.98,1.6856-3.8823-0.54381,1.367-1.454,6.159-2.5242,7.6403,0.96336,0.68102-1.4008,0.79038-2.8329-0.33802-4.3341l0.22866-1.2427c-1.884,0.33157-3.4349,1.4744-5.3437,1.7706-1.6653,0.25948-3.4349,0.17895-4.5782-0.79187-1.0837-0.91465-1.874-2.6778-1.7597-4.0702,0.19387-2.3423,2.913-4.01,7.3172-3.1844,3.5144,2.8011,7.4265,0.85599,4.8019-3.8992l0.74564-0.07757c0.18392-0.72227,0.21872-1.4525-0.0795-2.1748-2.2369-0.28781-4.4838-0.24457-6.7256-0.15509-0.68599,0.0268-0.4971-0.36735-0.60645-1.0101-0.3082-2.5844-5.2443-2.1961-10.842-1.3824-1.7199,0.1203-2.401-0.51051-2.048-1.8954-0.52194,0.03828-1.0041,0.21723-1.4316,0.52841,0.75558,0.7685,1.3024,1.6916,1.7398,2.6873l-0.16901,0.10887c-2.1027-2.5029-3.415-3.1625-5.7165-3.34-1.7199,2.6908-1.372,5.7951,1.4267,7.9072l-0.0944,0.07757c-0.65119-0.21374-1.2875-0.48814-1.8939-0.83908-1.4217,0.03335-2.7638-0.21723-3.9449-0.76105-0.35939,1.8934,0.97231,3.4632,2.5481,4.4117-0.79535,2.8886-3.2386,3.1307-5.9194,2.998,0.18591,2.0227,1.4306,3.7491,5.0047,4.8312-0.9743,1.8889-3.2669,2.4646-5.7503,2.8429,0.43694,2.2086,1.7557,3.8848,4.5225,4.7532-3.5796,1.7542-9.05,3.4443-11.078,3.6332-2.4571,0.21872-4.1621,1.1781-5.1265,2.8931-1.4863,1.4764-2.9517,2.5749-4.3182,3.4647-4.1,2.6594-8.0404,0.52195-7.6736,6.3976-1.276,1.0837-1.6702,3.1565-1.1652,4.2402-1.1483,1.4714-1.0449,2.7191-0.35741,4.0264,0.77347,1.4664,1.714,2.1872,2.7807,2.4059,1.3715,0.27837,2.9477-0.26346,4.6602-1.1185,0.83959-0.9047,1.4286-1.7995,1.7706-2.7042,0.6845-0.74564,0.99469-1.6155,0.93205-2.6097,1.8382-0.96436,2.5958-2.5898,3.1849-4.3048,0.96386-0.08946,1.9252-0.18392,2.8891-0.27837-0.24108,1.3769,1.2199,1.4167,0.97877,3.6834,3.2689-2.0729-0.85648-4.4291,1.9103-8.0628,3.338,0.95939,6.4413,0.47721,9.8643,0.96436,1.6076,0.22866,2.8752,0.43246,3.6357,1.6155l-0.16901,0.24854c-0.55674-0.61142-1.4714-0.86493-2.4407-0.93452,0.31814,6.7604-0.89278,12.85-6.3538,17.01-2.4531,1.8691-3.753,3.7083-4.2099,5.6221-6.0248,4.3148-12.821,5.0504-17.802,3.9767-6.472-1.399-10.694-6.405-11.526-12.897-0.921-7.198,1.905-16.732,10.067-27.28,6.088-7.869,9.618-16.071,7.938-25.879,2.111-2.829,1.066-7.516-1.461-9.616-1.952-1.622-2.73-3.1878-2.175-6.0893z"/>
 <path fill-rule="evenodd" fill="#003d8f" d="m67.472,26.332c0.0581,0.86208,0.54501,1.6012,1.2578,1.8908,0.71602-0.38724,1.2009-1.2706,1.1731-2.1579,0.45114,0.68266,0.44957,1.5607,0.0969,2.1892,0.76682-0.26446,1.3044-1.0263,1.2656-1.9221-0.0458-1.0594-3.867-1.0883-3.7934,0z"/>
 <path fill-rule="evenodd" fill="#003d8f" d="m71.952,23.471c1.0922,1.3209-0.13886,2.2507-1.564,1.853-1.0895-0.30304-3.7639-0.62275-4.152,1.0011-0.19794-1.9847,1.6346-2.0614,3.0328-1.8542,0.93928,0.13845,2.8937,0.71035,2.6831-0.99994z"/>
 <path fill-rule="evenodd" fill="#003b8f" d="m23.912,71.516c1.2228,0.61734,2.0959,1.0365,5.1588-0.4833l-0.96488,1.5232c-2.2348,0.84035-2.7894,0.70408-4.2727-0.85546z"/>
 <path style="direction:ltr;enable-background:accumulate;baseline-shift:baseline;block-progression:tb;text-indent:0;color:#000000;text-transform:none;text-align:start;" fill="#FFF" d="m50.622,47.421c0.27666,0.30046,0.76106,0.55928,1.1916,0.59491-0.77125,2.4083-2.0137,4.2626-3.6129,5.7225,3.701,1.5943,8.227,0.47197,11.069-0.90672-0.0925,2.7564-0.76588,5.2135-1.8319,7.3456,3.4357,0.10366,7.2646-1.005,9.6309-2.6228,0.4824,2.7602,0.5802,5.3636,0.27664,7.792,2.74-0.94072,5.5043-3.1129,6.6521-5.1822,2.0682,1.7083,3.7214,3.6153,5.1424,5.5098,1.2197-2.9284,1.9559-6.3424,1.8305-9.0433,0.86352,0.06717,1.9688,0.0045,2.7105,0.25234-0.77552-0.69112-2.705-1.2473-3.6486-1.2427,0.12661,3.0007-0.16549,6.2608-1.0788,8.5631-1.7138-1.9447-3.3488-3.9186-5.2-5.2145-1.236,2.3101-3.4502,4.4904-5.5659,5.2766,0.1616-2.8424-0.0728-5.5242-0.61993-7.9471-2.7056,1.8542-6.2076,3.2082-8.9812,3.1313,0.97294-2.6569,1.5693-5.2612,1.3376-7.7339-3.4265,1.6245-7.5817,2.7528-10.394,1.7373,1.6924-1.9624,2.7351-3.9942,3.2555-6.076-0.54009,0.07413-1.5297,0.15014-2.1635,0.04349z"/>
 <path fill-rule="evenodd" fill="#ffcd50" d="m64.412,5.5693,0,0.77706,0.77711,0,0,0.80381-0.77711,0,0,1.3679-0.80381,0,0-1.3679-0.77711,0,0-0.80381,0.77711,0,0-0.77706,0.80381,0z"/>
 <path fill="none" d="m53.572,16.377c1.852-3.495,6.664-5.5142,10.172-5.6758"/>
 <path fill-rule="evenodd" fill="#ffcd50" d="m62.712,15.492,1.0319,1.1181,0.51608,0,1.0319-1.1181-0.5898-4.9111-1.4004,0-0.5896,4.9111z"/>
 <path fill-rule="evenodd" fill="#ffcd50" d="m53.182,16.438c1.1844-3.7136,6.6943-5.6803,10.541-5.8573l0.0245,0.40452c-3.6451,0.16799-8.6466,1.9552-10.063,5.7201l-0.5028-0.26707z"/>
 <path fill-rule="evenodd" fill="#ffcd50" d="m57.632,15.647,1.1084,0.9101,1.256-0.9871c-0.0884-2.2858,1.0842-4.2703,3.7896-4.5909v-0.39869c-3.3266,0.24094-6.3021,2.2115-6.154,5.0663z"/>
 <path fill-rule="evenodd" fill="#ffcd50" d="m74.922,16.438c-1.1832-3.7136-6.6914-5.6803-10.539-5.8573l-0.0245,0.40452c3.6451,0.16799,8.6466,1.9552,10.063,5.7201l0.5028-0.26707z"/>
 <path fill-rule="evenodd" fill="#ffcd50" d="m70.482,15.647-1.1084,0.9101-1.256-0.9871c0.0884-2.2858-1.0842-4.2703-3.7896-4.5909v-0.39869c3.3266,0.24094,6.3021,2.2115,6.154,5.0663z"/>
 <path fill-rule="evenodd" fill="#003d8f" d="m64.012,8.1063c0.85004,0,1.5399,0.68987,1.5399,1.5399,0,0.85004-0.68987,1.5399-1.5399,1.5399-0.85004,0-1.5399-0.68987-1.5399-1.5399,0-0.85004,0.68987-1.5399,1.5399-1.5399z"/>
 <path d="m72.752,23.31,2.6784-7.1259c-0.66576-0.24235-1.3707,0.24757-1.4059,0.93202-0.53979-0.18688-1.1322,0.09344-1.328,0.6322-0.27028,0.74212,0.36413,1.4925,1.1139,1.399-0.71015,2.1211-3.6425,2.4207-4.1459-0.24858,0.66696,0.4843,1.6637,0.01628,1.6637-0.84865,0-0.57335-0.46039-1.0393-1.0315-1.0482,0.20115-0.65532-0.2944-1.3566-1.0025-1.3566-0.70836,0-1.2037,0.70136-1.0025,1.3566-0.57131,0.0088-1.0317,0.47486-1.0317,1.0482,0,0.86491,0.99696,1.3329,1.6637,0.84865-0.35971,2.5431-4.1451,2.5288-4.5026,0,0.66676,0.4843,1.6637,0.01628,1.6637-0.84865,0-0.57335-0.46039-1.0393-1.0317-1.0482,0.20116-0.65532-0.2942-1.3566-1.0023-1.3566-0.70817,0-1.2035,0.70136-1.0023,1.3566-0.57131,0.0088-1.0317,0.47486-1.0317,1.0482,0,0.86491,0.99696,1.3329,1.6637,0.84865-0.3575,2.5288-4.1429,2.5431-4.5026,0,0.66676,0.4843,1.6637,0.01628,1.6637-0.84865,0-0.57335-0.46039-1.0393-1.0317-1.0482,0.20115-0.65532-0.2942-1.3566-1.0025-1.3566-0.70816,0-1.2037,0.70136-1.0025,1.3566-0.57111,0.0088-1.0315,0.47486-1.0315,1.0482,0,0.86491,0.99676,1.3329,1.6637,0.84865-0.5034,2.6693-3.4357,2.3697-4.1459,0.24858,0.74977,0.09344,1.3839-0.65692,1.1139-1.399-0.19593-0.53875-0.78835-0.81907-1.328-0.6322-0.0351-0.68445-0.74013-1.1743-1.4059-0.93202l2.6784,7.1259h17.403z" fill-rule="evenodd" stroke="#FFF" stroke-miterlimit="4" stroke-dasharray="none" stroke-width="0.40000001" fill="#ffcd50"/>
 <path fill-rule="evenodd" fill="#ffcd50" d="m45.452,6.1883,3.343-3.1069,0.564,4.5292-19.067,52.386-3.908-1.422,19.068-52.387z"/>
 <path fill="none" d="m49.042,2.4063-20.793,57.129"/>
 <path fill-rule="evenodd" fill="#003d8f" d="m48.792,3.0813-20.269,56.275-0.376-0.139,20.645-56.136z"/>
 <path d="m25.892,57.959-4.8237-2.0325-0.8845,2.4301,5.0017,1.5435,5.1623,1.8789,4.8235,2.0325,0.8844-2.4301-5.0171-1.5012-5.1469-1.9213z" fill-rule="evenodd" stroke="#003d8f" stroke-miterlimit="4" stroke-dasharray="none" stroke-width="0.5" fill="#ffcd50"/>
 <path d="m30.852,61.991,0.711-1.953m-6.1664-2.2874-0.72462,1.9916" fill-rule="evenodd" stroke="#003d8f" stroke-miterlimit="4" stroke-dasharray="none" stroke-width="0.5" fill="#ffcd50"/>
 <path fill-rule="evenodd" fill="#d40000" d="m38.882,129.92c0.64527-1.9338,0.62494-4.1883-0.95936-5.732-1.4481-1.4115-2.4681,0.73491-1.7592,2.9374,1.2037,0.38704,2.0941,1.5174,2.7185,2.7945z"/>
 <path fill-rule="evenodd" fill="#d40000" d="m43.062,123.26c-0.55604-1.9615-1.8424-3.8127-4.0209-4.1959-1.9916-0.35087-1.6255,1.9973,0.20075,3.4178,1.2125-0.3581,2.5851,0.0744,3.8202,0.77812z"/>
 <path fill-rule="evenodd" fill="#d40000" d="m30.112,130.35c0.95554-1.8007,1.3074-4.0275-0.0006-5.8115-1.1952-1.6311-2.5554,0.31771-2.2195,2.6068,1.1233,0.58036,1.8152,1.8424,2.2201,3.2046z"/>
 <path fill-rule="evenodd" fill="#d40000" d="m18.212,124.83c-0.95554-1.8007-1.3075-4.0277,0.00046-5.8115,1.1953-1.6313,2.5555,0.31751,2.2195,2.6066-1.1232,0.58035-1.815,1.8424-2.22,3.2048z"/>
 <path fill-rule="evenodd" fill="#d40000" d="m109.2,72.336c1.6982-1.1279,3.0688-2.9179,2.769-5.1096-0.27369-2.0038-2.3982-0.93848-3.1936,1.2341,0.711,1.0456,0.71781,2.4846,0.42462,3.8754z"/>
 <path fill-rule="evenodd" fill="#d40000" d="m101.28,72.808c-1.8514-0.85367-3.4808-2.4118-3.5211-4.6234-0.0374-2.022,2.2256-1.2959,3.3453,0.72884-0.54177,1.1422-0.32775,2.5652,0.17584,3.8945z"/>
 <path fill-rule="evenodd" fill="#ffcd50" d="m56.172,29.106c-2.7971-2.1116-3.15-5.213-1.4336-7.9029,2.3033,0.17724,3.6236,0.83036,5.724,3.3328l-4.2906,4.5702z"/>
 <path fill-rule="evenodd" fill="#003d8f" d="m60.622,24.431-0.16297,0.17643c-1.6008-2.1188-3.2686-3.2351-5.7081-3.4036,2.5038-0.09312,4.9126,0.71741,5.8712,3.2271z"/>
 <path fill-rule="evenodd" fill="#003d8f" d="m56.222,22.218c1.1131,0.4204,2.6631,1.7328,3.6805,3.1377l-0.60631,0.68808c-0.79919-1.5624-1.906-2.824-3.0742-3.8258z"/>
 <path fill-rule="evenodd" fill="#ffcd50" d="m82.742,86.91,0-3.286,14.087,0,0,3.286zm-0.001-3.6961c-0.0232-3.0863-0.45893-6.5715-1.7796-9.2809,0.16385-0.04887,0.33714-0.0755,0.51687-0.0755,0.99557,0,1.8028,0.8047,1.8028,1.7969,0,0.24538-0.0494,0.4792-0.1387,0.69225,0.23161-0.10785,0.48976-0.16772,0.7622-0.16772,0.99577,0,1.803,0.80451,1.803,1.7967,0,0.99232-0.80729,1.797-1.803,1.797-0.12925,0-0.25531-0.01402-0.37691-0.03997,0.13515,1.2133,0.75952,2.1314,1.5092,2.1314,0.57871,0,1.0826-0.54655,1.3447-1.3535,0.26209,0.80684,0.76628,1.3535,1.3451,1.3535,0.80586,0,1.467-1.0607,1.5312-2.4091-0.29062,0.20006-0.64254,0.31769-1.0225,0.31769-0.99576,0-1.803-0.8047-1.803-1.797,0-0.98755,0.79998-1.7892,1.7895-1.7967-0.15208-0.26331-0.23944-0.56892-0.23944-0.89459,0-0.99218,0.80749-1.7967,1.8032-1.7967,0.99572,0,1.803,0.80451,1.803,1.7967,0,0.32568-0.0872,0.6313-0.23926,0.89459,0.98949,0.0076,1.7895,0.80913,1.7895,1.7967,0,0.99232-0.80749,1.797-1.803,1.797-0.37994,0-0.73187-0.11762-1.0225-0.31769,0.0642,1.3484,0.72511,2.4091,1.5312,2.4091,0.57871,0,1.083-0.54669,1.345-1.3535,0.26209,0.80699,0.76573,1.3535,1.3445,1.3535,0.74987,0,1.3743-0.91805,1.5094-2.1314-0.1216,0.02595-0.24764,0.03997-0.37709,0.03997-0.99557,0-1.8028-0.8047-1.8028-1.797,0-0.99218,0.80729-1.7967,1.8028-1.7967,0.27261,0,0.53078,0.05988,0.7622,0.16772-0.0893-0.21303-0.1387-0.44687-0.1387-0.69225,0-0.99218,0.80749-1.7969,1.803-1.7969,0.17972,0,0.35302,0.0267,0.51687,0.0755-1.3208,2.7094-1.7563,6.1947-1.7796,9.2809z"/>
 <path fill-rule="evenodd" fill="#ffcd50" d="m101.59,86.91,0-3.286,14.087,0,0,3.286zm-0.001-3.6961c-0.0232-3.0863-0.45892-6.5715-1.7795-9.2809,0.16385-0.04887,0.33715-0.0755,0.51688-0.0755,0.99556,0,1.8028,0.8047,1.8028,1.7969,0,0.24538-0.0493,0.4792-0.1387,0.69225,0.2316-0.10785,0.48976-0.16772,0.7622-0.16772,0.99577,0,1.803,0.80451,1.803,1.7967,0,0.99232-0.80729,1.797-1.803,1.797-0.12925,0-0.2553-0.01402-0.3769-0.03997,0.13514,1.2133,0.75952,2.1314,1.5092,2.1314,0.57871,0,1.0826-0.54655,1.3446-1.3535,0.2621,0.80684,0.76629,1.3535,1.3451,1.3535,0.80586,0,1.467-1.0607,1.5312-2.4091-0.29062,0.20006-0.64254,0.31769-1.0225,0.31769-0.99577,0-1.803-0.8047-1.803-1.797,0-0.98755,0.8-1.7892,1.7895-1.7967-0.15209-0.26331-0.23945-0.56892-0.23945-0.89459,0-0.99218,0.80749-1.7967,1.8032-1.7967,0.99572,0,1.803,0.80451,1.803,1.7967,0,0.32568-0.0872,0.6313-0.23927,0.89459,0.9895,0.0076,1.7895,0.80913,1.7895,1.7967,0,0.99232-0.80748,1.797-1.803,1.797-0.37994,0-0.73188-0.11762-1.0225-0.31769,0.0642,1.3484,0.72512,2.4091,1.5312,2.4091,0.57871,0,1.083-0.54669,1.345-1.3535,0.26209,0.80699,0.76573,1.3535,1.3445,1.3535,0.74987,0,1.3743-0.91805,1.5094-2.1314-0.12159,0.02595-0.24765,0.03997-0.37708,0.03997-0.99557,0-1.8028-0.8047-1.8028-1.797,0-0.99218,0.8073-1.7967,1.8028-1.7967,0.27261,0,0.53078,0.05988,0.7622,0.16772-0.0893-0.21303-0.1387-0.44687-0.1387-0.69225,0-0.99218,0.80748-1.7969,1.803-1.7969,0.17973,0,0.35302,0.0267,0.51687,0.0755-1.3208,2.7094-1.7563,6.1947-1.7796,9.2809z"/>
 <path fill-rule="evenodd" fill="#003b8f" d="m24.972,68.613c1.2228,0.61734,2.0959,1.0365,5.1588-0.4833l-0.96488,1.5232c-2.2348,0.84035-2.7894,0.70408-4.2727-0.85546z"/>
 <path fill-rule="evenodd" fill="#003b8f" d="m25.762,65.426c1.2228,0.61734,2.0959,1.0365,5.1588-0.4833l-0.96488,1.5232c-2.2348,0.84035-2.7894,0.70408-4.2727-0.85546z"/>
 <path fill-rule="evenodd" fill="#d40000" d="m26.312,66.192c1.7065,1.1151,3.8923,1.6679,5.7877,0.52751,1.733-1.0423-0.0842-2.5739-2.3944-2.4472-0.68002,1.0659-1.9995,1.6402-3.3932,1.9197z"/>
 <path fill="#000" d="m124,136.06v162.5c38.09-38.78,123-0.36,123-82.78v-79.72h-123z"/>
 <path fill="#ffcd50" d="m124,298.56c38.09-38.78,123-0.36,123-82.78v-79.72z"/>
 <path d="m247,1.0001,0,214.77c0,82.42-84.912,44.012-123,82.791-38.089-38.77-123-0.37-123-82.79v-214.77z" stroke="#000" stroke-dasharray="none" stroke-miterlimit="4" stroke-width="2" fill="none"/>
 <path d="m226.83,155.23-6.9195-1.5955-2.0779,6.7905-2.0779-6.7905-6.9195,1.5955,4.8414-5.195-4.8414-5.195,6.9195,1.5962,2.0779-6.7905,2.0779,6.7905,6.9195-1.5955-4.8421,5.195,4.8421,5.194z" fill-rule="evenodd" fill="#FFF"/>
 <path d="m179.67,147.36c1.3718-0.38154,4.7388-0.78407,5.2274,1.2605,0.24922-2.4987-2.058-2.5954-3.8184-2.3345-1.1826,0.17432-3.6433,0.89435-3.3782-1.259-1.3751,1.663,0.1748,2.8337,1.9692,2.333z" fill-rule="evenodd" fill="#000"/>
 <path d="m158.21,245.6-6.9195-1.5955-2.0779,6.7905-2.0779-6.7905-6.9195,1.5955,4.8414-5.195-4.8414-5.195,6.9195,1.5962,2.0779-6.7905,2.0779,6.7905,6.9195-1.5955-4.8421,5.195,4.8421,5.194z" fill-rule="evenodd" fill="#FFF"/>
 <path d="m159.36,258.45s0.49053-3.8292,3.9178-4.8217c4.1081-1.0898,3.3947,4.6922,0.54572,3.7409-2.2197-0.74367-4.4635,1.0808-4.4635,1.0808z" fill-rule="evenodd" fill="#d40000"/>
 <path d="m207.25,253.3s0.18205-3.8564,3.5188-5.1205c4.0074-1.4156,3.7599,4.4049,0.84394,3.685-2.2723-0.56323-4.3627,1.4355-4.3627,1.4355z" fill-rule="evenodd" fill="#d40000"/>
 <path d="m158.52,155.49c0.27966,2.1352,3.2618,4.7169,9.1675,3.4841,7.2745-1.5199,9.4517-2.5539,13.495,0.42469l0.29629,1.8351-1.1607,0.0972c-2.5405-2.0563-5.5748-3.0161-13.445,0.24857-6.428,2.667-12.086-0.41701-8.3532-6.0897z" fill-rule="evenodd" fill="#d40000"/>
 <path d="m169.69,158.74c-0.54742-1.2666-0.78051-2.9238-0.78051-2.9238l3.2004-0.87768c-0.9775,0.89409-1.899,2.655-2.4199,3.8015zm0.3035,1.2632c-0.073,1.3768,0.40265,3.0834,0.40265,3.0834l3.2034-0.27674c-1.2252-0.69146-2.591-1.8394-3.6061-2.8067z" fill-rule="evenodd" fill="#d40000"/>
 <path d="m185.72,137.78c0.5021,2.6849-1.8234,4.1988-3.5625,4.3125-3.9901,0.26051-7.324,0.87788-8.5,1.5625-2.3115,1.3455-0.24806,2.724-2.3125,2.9688-1.6763,0.19875-3.7798,0.77205-5.625,1.3125-0.18956,0.77645-0.10905,1.6363,0.28125,2.5625l0.71875-0.0937c-1.4829,3.4876,0.20339,8.2215,7.625,3.9375,2.8847-2.0524,8.5136,1.4879,6.625,5.1562-0.7404,1.439-2.275,2.6954-3.6562,3.125-2.9312,0.91156-5.86-1.9266-9.0625,0.125,0.10917,0.42174,0.20034,0.72892,0.6875,1.125-1.177,1.5437-0.50743,3.6927,1.3125,4.7188-0.91621-4.0555,5.8038-4.633,8.1875-2.8125,1.114,0.85014,1.331,2.5909,0.34375,3.6562-0.99851,1.0779-3.6026,0.91697-4.2188-2.0312-1.9951,1.6735-1.8814,3.7964,0.0312,5.25-5.5881,3.1565-9.0314,8.1395-10.938,13.156,1.8968-0.90907,3.8301-1.8238,5.25-2-2.2027,2.9424-4.1675,6.8194-4.25,9.9688,1.5482-1.5462,6.0494-3.0591,8.2188-2.75l-0.0625,0.53125c-4.5148,1.7404-13.229,7.3989-21,11-2.4902,1.1541-3.8371,1.2796-4.9375,0.34375-1.2832-1.0914-1.4245-2.237-3.4062-2.6562-4.3774-0.92621-6.5069,4.2014-3.3438,6.9375-3.3807,3.6348,1.5722,8.977,4.625,4.625-1.6975,7.6521,9.5985,6.3313,6.5625-1.0312,0.59407-0.22826,1.1872-0.45924,1.7812-0.6875-1.5526,7.7946,12.161,4.6097,5.9688-2.7188,0.7503-0.38189,1.5074-0.70032,2.2812-1,1.5638,2.6168,0.3863,5.9983,4.0625,6.1562-1.4351-2.7532,0.94755-3.8601-0.40625-7.3438,1.0089-0.26835,2.014-0.49619,3.0312-0.71875,0.83068,3.0044-1.6739,7.5143,3.2188,8.375-1.7882-3.8831,2.4432-6.0157,0.78125-9.2188,3.2694-0.72809,6.4618-1.5921,9.3125-3.3125,1.5405-1.9675,3.0719-4.535,3.7188-6.5l0.0937,0.0312c-0.22437,1.4795-0.26147,3.4702-0.9375,5.2188,2.602,2.8361,5.8332,4.7422,9.9688,6.7812l9.8438-13c-1.9124-2.9888-3.1805-6.5028-3.4062-11.062,3.9547-0.35589,6.3837-2.6034,6.6562-6.2188-3.0783,0.59601-5.4824-0.53692-6.75-3,3.1974-0.48724,5.9828-1.4877,5.9062-6.1562-3.264,0.82853-5.6494,0.25714-7.0625-2.7188,3.6539-0.71109,4.6029-3.5826,3.5312-6.7812-2.5877,2.23-5.2824,1.311-6.75-0.65625,3.0653-2.5793,3.8134-5.6316,2.9688-9-1.2397,1.1063-2.8644,1.5619-4.4062,0.71875l-1.5,1-0.3125-0.25c2.049-1.8647,2.3384-4.4849,1.6875-7.2812-2.5438-0.37807-5.5157,0.20242-7.25,2.3125l-0.38-0.33,1.06-1.85c0.51134-1.967-0.48769-3.6364-2.2812-3.7812z" fill-rule="evenodd" fill="#ffcd50"/>
 <path d="m191.96,142.8c-1.7713,0.0108-3.0401,1.2589-3.4298,2.6273l0.6703,1.294-0.29737,0.15564-1.3709-1.433c0.73017-2.0566,2.0036-2.7618,4.3323-2.9926l0.0955,0.34859z" fill-rule="evenodd" fill="#000"/>
 <path fill-rule="evenodd" fill="#000" d="m179.46,147.29c-0.00003,0.85273-0.43036,1.6126-1.113,1.945-0.62412-0.29901-1.0311-1.0822-1.1817-1.8661-0.32159,0.61329-0.2849,1.2962-0.0669,1.9812-0.77252-0.20926-1.3524-0.92375-1.3737-1.8084-0.0249-1.0462,3.7354-1.3282,3.7352-0.25164z"/>
 <path fill-rule="evenodd" fill="#000" d="m174.87,144.88c-1.1184,1.474,0.29027,2.2717,1.6669,1.7828,1.0776-0.38187,3.6834-0.84909,4.1503,0.64823,0.0506-2.2497-1.8674-1.9687-3.2445-1.6547-0.96523,0.21683-2.2903,0.69816-2.5726-0.77637z"/>
 <path d="m175.37,261.97-1.4472,0.37569c2.7558,5.9534-2.3978,7.4068-4.7963,5.7989-2.5162-1.6868-1.4991-4.3099,0.22921-5.8872l-0.11591-0.0742c-0.63113,0.34511-1.6435,1.3043-2.1996,2.2888-1.9645,2.9992-5.0478,1.0317-5.6063-1.3581-0.75046-3.2108,1.6956-5.2993,4.806-4.0434l0.0748-0.15219c-0.36892-0.41963-1.1981-0.91694-1.7717-1.0068-1.4869-1.1029-1.3174-2.8142-0.52265-3.8492,0.88146-1.1479,2.6137-1.7156,3.9381-0.41347,0.54906,0.53986,0.80433,1.0692,1.2195,1.259,1.4111,0.57256,2.3901,0.75385,3.8599,0.66314,2.0726-0.0407,3.1569-1.7678,4.6172-3.4611,1.0594-1.2285,2.1307-2.4242,2.5717-4.0212,0.47721-1.7285,0.3193-3.2582,0.17336-4.8536-0.3548-3.8754-0.77709-7.9714,0.97241-11.461-1.7306,3.3612-4.6315,4.3138-6.7692,3.3622,4.2357-1.6413,3.036-4.5263,4.5845-7.52,1.7562-3.3955,5.7872-5.7708,8.8552-9.0132,2.385-2.5203,4.8019-6.0024,6.5261-9.1676l-1.1995-0.9662,1.9335-1.0728c0.5067,0.28114,1.7625,1.1988,2.1326,1.5203,2.8493,2.4751,1.8916,6.1324,0.88069,10.775-0.6941,3.1869-1.2584,6.3541-1.2635,9.6516-6.2784,2.491-8.9593,8.4749-8.5898,17.421,4.9832,2.6014,2.993,9.5486,6.038,12.175-2.3968-0.33442-4.3504-1.9633-4.7089-5.2568-1.2412,1.3997,1.3759,4.0491-1.5058,6.9529,0.35375-4.3067-1.775-3.8857-1.8983-6.4618-1.2417,1.7826-3.3247,3.7742-4.9389,4.9484,6.3312,6.909-5.9382,11.939-6.079,2.8481z" fill-rule="evenodd" fill="#000"/>
 <path d="m170.7,173.93c-6.6638-2.0008-13.346-4.2689-20.071-7.1875-1.9163-1.3713-3.6982-3.3136-2.2938-5.326,1.1701-1.677,1.2432-3.6916-0.27486-5.1374-2.2078-2.103-6.4221-1.1257-4.5213,2.442-3.7164-3.1535-8.8011,2.5478-4.4211,4.9762-6.7488,2.1158-0.40754,11.146,3.6313,5.2914l1.036,1.4897c-6.8874,3.5428,2.1369,13.742,6.0987,3.7216,0.641,0.50149,1.2937,1.0234,1.9565,1.5567-2.8767,1.9568-1.0769,3.6699-3.8093,5.6637,2.6982,0.62258,3.5811-2.1558,6.1182-3.8039,0.25696,0.20594,0.51537,0.4124,0.77498,0.61856-1.677,3.8498-4.7512,5.8079-2.0504,9.0968,0.35093-4.1015,4.06-2.9876,5.0283-6.7999,1.7117,1.27,3.4653,2.4654,5.2462,3.4712,1.6987-3.8861,4.2348-7.3994,7.552-10.073z" fill-rule="evenodd" fill="#ffcd50"/>
 <path d="m198.85,219.79c-4.1647,1.1328-5.2572-3.8616-1.4793-6.2313-0.20822-2.0931-1.6645-3.805-3.8946-5.1893l2.2626-1.349" stroke="#ffcd50" stroke-dasharray="none" stroke-miterlimit="4" stroke-width="1" fill="none"/>
 <path d="m240.25,148.06c0.12,2.19-0.46,4.26-2.13,5.78-4.11,3.76-6.37,8.1-3.18,13.16-1.77,4.25-4.5,5.23-8,6.5-7.02,2.54-13.37,7.14-11.97,15.53,0.83,4.99,4.13,8.12,8.41,10.22,4.15,2.04,9.02,2.58,12.71,5.5,4.32,3.41,3.48,8.68-2.12,9.72-7,1.29-16.56-4.27-20.35-10.59-0.93-1.56-2.22-2.96-3.59-4.22-2.3-2.13-4.38-4.28-6-6.82l-9.84,13c0.66,0.33,1.28,0.67,2,1,6.69,3.15,3.58,10.29,2.59,16.32-0.86,5.23-0.96,9.91,0.97,12.56,1.18,1.62,3.18,2.63,4.28,4.28,1.28,2.33-0.85,4.06,2.03,6.16-0.53-3,3.17-4.31,0.53-8.22,2.88-0.26,5.89-1.09,8.72-1.38,4.03-0.4,7.4-0.71,8.75,2.66,1.46,3.65,0.25,5.95-2.4,7.31-2.35,1.2-3.99,1.28-5.75,0.81-1.08-0.28-2.92-0.6-4-0.12-2.03,0.9-2.67,5.19,0.28,5.06,0.3-0.14,0.61-0.26,0.93-0.31l0.04,0.12c-2.46,1.82-1.47,3.99-0.41,5.13,1.6,1.71,4.21,2.01,5.53-0.66-0.01-0.63,0.42-1.53,0.81-1.84l0.13,0.03c-0.07,0.25-0.09,0.52-0.1,0.81-0.02,1.61,1.34,2.41,2.88,2.5,3.3,0.21,6.77-3.7,3.88-7.94,0.9-0.4,1.7-0.98,2.4-1.71,3.87,8.49,13.7-4.56,4.03-6.63-0.03-2.16,0.25-4.1,0.47-6.28,0.16-1.56,0.35-3.11,0.6-4.66,1.43-0.37,3.06,0.14,4.78,1.28-0.48-2.29-2.5-3.8-4.32-4.15,0.01-0.11,0-0.21,0-0.31,2.41-1.19,2.69-3.44,5.75-4.04-2.79-2.05-4.78,0.49-6.68,1.04-0.94-0.85-2.56-1.06-4.79-0.72-3.46,0.52-6.73,1.71-10.03,2.28-5.17,0.9-4.89-2.25-3.21-6.88,1.08-3,1.43-5.76,1.21-8.25,5.1,4.18,12.51,7.28,18.41,6.19,8.02-1.48,9.57-9.83,3.34-14.75-2.52-1.99-5.33-3.03-8.12-3.94,2.48-4.73,13.42-1.63,12.75-11.12-6.13,7.4-13.5,1.72-16.03,10.03-1.42-0.56-2.77-1.22-3.97-2.03-0.41-12.45,18.34-3.94,17.75-19.19-5.97,9.56-19.19,0.79-20.66,16.5-0.88-1.17-1.51-2.54-1.78-4.19-1.16-6.95,4.48-10.33,10.13-12.37,4.16-1.5,7.42-2.72,9.56-7.81,4.17,0.02,8.09-3.2,7.37-8.79-1.45,3.13-3.53,4.24-5.93,4.16,7.24-5.91,5.66-11.47,1.34-15.72z"/>
 <path fill-rule="evenodd" fill="#d40000" d="m135.82,208.38s-0.59465-3.8148,2.421-5.722c3.6424-2.1903,4.5664,3.5617,1.5651,3.4415-2.3386-0.0969-3.986,2.2804-3.986,2.2804zm4.9436,8.7572s-2.8787-2.5729-1.7562-5.9595c1.4277-4.0032,5.7897-0.1413,3.3925,1.6682-1.8698,1.4084-1.6363,4.2913-1.6363,4.2913zm9.0662,3.744s-3.661-1.2254-3.9686-4.7802c-0.27095-4.2414,5.2621-2.418,3.7756,0.19174-1.1609,2.0328,0.19305,4.5885,0.19305,4.5885zm5.9498-2.7643s3.5347-1.5524,3.5185-5.1207c-0.11477-4.2482-5.4598-1.9307-3.7426,0.53368,1.3405,1.9192,0.22401,4.587,0.22401,4.587zm-21.114-44.388s-1.3659-3.611,1.1933-6.0973c3.1145-2.8921,5.2009,2.5472,2.2389,3.0462-2.3085,0.38606-3.4322,3.0511-3.4322,3.0511zm-1.8251-12.967s2.0858-3.2487,5.6078-2.6751c4.1783,0.7779,1.0535,5.6943-1.1124,3.6134-1.6856-1.6241-4.4954-0.9383-4.4954-0.9383zm5.3979,17.524s3.3053,1.9947,6.2124-0.074c3.4063-2.5416-1.5671-5.5751-2.592-2.7522-0.79647,2.2016-3.6203,2.8262-3.6203,2.8262zm2.9092-25.771s3.8518-0.26071,5.4898,2.9093c1.8652,3.819-3.9452,4.2394-3.5646,1.2599,0.29979-2.3213-1.9252-4.1692-1.9252-4.1692zm93.501,101.32s2.49-2.9502,0.90437-6.1466c-1.974-3.7639-5.7523,0.6707-3.1254,2.1269,2.0485,1.1327,2.221,4.0197,2.221,4.0197zm-11.236,7.4418s-3.3688-1.886-3.0092-5.4357c0.52345-4.2178,5.6204-1.3961,3.674,0.89122-1.5191,1.7811-0.66478,4.5445-0.66478,4.5445zm-10.305,0.54893s-2.5344-2.9119-0.99767-6.1321c1.9168-3.7937,5.7617,0.58277,3.1573,2.0789-2.0309,1.1634-2.1596,4.0531-2.1596,4.0531zm-32.476,7.9044s-3.5435-1.5323-3.5471-5.1007c0.0906-4.2487,5.4486-1.9616,3.7454,0.51256-1.3299,1.9268-0.19833,4.5881-0.19833,4.5881zm-10.107,2.0207s-3.0578-2.3568-2.1837-5.8162c1.1326-4.0963,5.7635-0.56155,3.5042,1.4176-1.763,1.5405-1.3205,4.3986-1.3205,4.3986zm-11.423-4.8108s-0.62222-3.8098,2.379-5.7394c3.6263-2.2168,4.5926,3.5282,1.5906,3.4295-2.3395-0.0792-3.9696,2.3099-3.9696,2.3099z"/>
</svg>
