<!-- Created with Inkscape (http://www.inkscape.org/) -->
<svg xmlns:rdf="http://www.w3.org/1999/02/22-rdf-syntax-ns#" xmlns="http://www.w3.org/2000/svg" height="300" width="248" version="1.0" xmlns:cc="http://creativecommons.org/ns#" xmlns:dc="http://purl.org/dc/elements/1.1/">
 <metadata>
  <rdf:RDF>
   <cc:Work rdf:about="">
    <dc:format>image/svg+xml</dc:format>
    <dc:type rdf:resource="http://purl.org/dc/dcmitype/StillImage"/>
    <dc:title/>
   </cc:Work>
  </rdf:RDF>
 </metadata>
 <path d="m247,1.0001,0,214.77c0,82.42-84.912,44.012-123,82.791-38.089-38.77-123-0.37-123-82.79v-214.77h246z" stroke="#000" stroke-dasharray="none" stroke-miterlimit="4" stroke-width="2" fill="#FFF"/>
 <g transform="matrix(0.9548642,0,0,0.9548642,5.5958035,8.4887541)">
  <path fill-rule="evenodd" fill="#d40000" d="m40.048,203.66c-1.5166-0.59936-3.8478-1.2727-4.8117-1.2856-2.4532-0.42033-3.2978,3.1473-4.237,6.4801-0.16216,2.9864,1.2584,3.024,2.9047,2.6413-1.1027-0.82898-0.94055-1.8124-0.6279-2.7451,0.52801-1.5736,3.1071-2.0264,5.1166,0.80303l2.3689,0.95353,0.7252-5.8989-1.4387-0.94834zm10.01,24.373c-1.488,1.3648-4.3784,4.935-1.2182,6.5268-3.6973,0.33341-5.101-0.75374-4.8909-2.7308,0.21276-1.5425,0.32044-5.5214,1.2792-6.9147l2.4571-1.0288,3.6973,2.5881-1.3246,1.5594zm-14.477-5.6213c-0.7252,0.0221-1.9382,0.10249-2.448,0.58638-1.6424,1.1961-0.47741,4.9791,1.4543,5.044-2.3235,2.3974-4.4887-0.48001-6.4879-5.8016-0.16606-1.1818,0.22703-2.0666,1.1806-2.6504,1.0651-0.49687,2.1289-1.1689,3.1927-1.6644l2.0485-0.55136,2.6815,4.2643-1.6216,0.7732zm38.455-10.026c4.5458,2.3261,6.5333,5.066,2.893,8.7153,0.47352-2.0459-1.2467-3.5923-3.3873-3.2433l-2.8022,0.30617-0.11416-3.7077,2.0043-2.1354,1.4063,0.0649z"/>
  <path d="m51.522,214.4c-2.7334,4.3174-5.419,4.5758-6.9979,5.4412-2.8917,2.2664-1.89,6.3423,0.11042,7.3828,1.8201-1.5321,3.8945-1.1806,4.8649,1.5451,1.6398,1.9304,4.4479,0.499,5.0214-2.612-0.52801-2.0108,0.02389-3.034,0.69201-4.6686,0.75114-1.4193,1.5023-2.8398,2.2534-4.2604,0.99504-2.2872,2.3001-1.2234,4.0826-0.27244,1.2649,0.67461,2.605,1.5633,4.1812,2.7451,1.3479,1.7189,4.8532,0.71352,6.0221-1.466-1.4063-3.4586,0.37622-4.5847,3.1213-5.8846,0.21665-2.5012-1.1896-3.3964-4.2202-2.6854-2.6634,1.056-5.1854,1.9369-9.2395,0.98855,6.6889-2.0926,15.55-7.0611,22.479-13.981l-5.2384-6.2669c-3.8115,3.5274-16.104,14.406-21.705,15.685-4.4628,0.0791-7.9361-0.0266-9.9872-1.3694-1.9992-2.4299-4.3546-4.9628-7.5136-1.0956,1.1313,2.4273,0.10768,4.4264-1.7423,5.1114-0.16087,2.099,1.0742,3.7337,2.7347,4.1722" stroke="#FFF" stroke-dasharray="none" stroke-miterlimit="4" stroke-width="1.04726934" fill="#d40000"/>
  <path d="m49.648,211.65c-6.6682,3.1784-8.0435,1.3952-8.6973,1.4419-6.4399-1.8954-10.97,1.1566-9.1667,5.2263,2.8528-0.32173,3.8037,1.7708,3.5118,4.0904,0.8692,1.658,4.7728,3.3116,8.0005-1.9426,3.9754-1.4773,7.2543-3.3727,10.225-6.609" stroke="#FFF" stroke-dasharray="none" stroke-miterlimit="4" stroke-width="1.04726934" fill="#d40000"/>
  <path d="m51.662,205.83c1.8318,0.27244,4.936,1.6779,6.7691,3.3786m8.413-8.7057c1.2428,0.0402,2.9618,0.95684,4.2073,2.066m-11.714,2.339c1.2649,0.0259,2.849,0.99382,3.9361,2.0874m-0.24336-4.2877c1.2026,0.0441,2.9288,1.0314,3.955,2.1458m3.1893-6.9946c1.4439,0.24649,3.6372,1.3577,5.0824,2.4981" stroke="#FFF" stroke-linecap="butt" stroke-miterlimit="4" stroke-dasharray="none" stroke-width="1.04726934" fill="#d40000"/>
  <path fill-rule="evenodd" fill="#d40000" d="m207.95,203.66c1.5166-0.59936,3.8478-1.2727,4.8117-1.2856,2.4532-0.42033,3.2978,3.1473,4.237,6.4801,0.16217,2.9864-1.2584,3.024-2.9047,2.6413,1.1027-0.82898,0.94055-1.8124,0.6279-2.7451-0.52801-1.5736-3.1071-2.0264-5.1166,0.80303l-2.3689,0.95353-0.72519-5.8989,1.4387-0.94834zm-10.01,24.373c1.488,1.3648,4.3784,4.935,1.2182,6.5268,3.6973,0.33341,5.101-0.75374,4.8909-2.7308-0.21276-1.5425-0.32044-5.5214-1.2792-6.9147l-2.4571-1.0288-3.6974,2.5881,1.3246,1.5594zm14.477-5.6213c0.7252,0.0221,1.9382,0.10249,2.448,0.58638,1.6424,1.1961,0.47741,4.9791-1.4543,5.044,2.3235,2.3974,4.4887-0.48001,6.4879-5.8016,0.16605-1.1818-0.22703-2.0666-1.1806-2.6504-1.0651-0.49687-2.1289-1.1689-3.1927-1.6644l-2.0484-0.55136-2.6816,4.2643,1.6216,0.7732zm-38.455-10.026c-4.5458,2.3261-6.5333,5.066-2.893,8.7153-0.47352-2.0459,1.2467-3.5923,3.3873-3.2433l2.8022,0.30617,0.11416-3.7077-2.0044-2.1354-1.4063,0.0649z"/>
  <path d="m196.48,214.4c2.7334,4.3174,5.419,4.5758,6.9978,5.4412,2.8917,2.2664,1.89,6.3423-0.11042,7.3828-1.8201-1.5321-3.8945-1.1806-4.8649,1.5451-1.6398,1.9304-4.4479,0.499-5.0214-2.612,0.52801-2.0108-0.0239-3.034-0.692-4.6686-0.75115-1.4193-1.5023-2.8398-2.2534-4.2604-0.99504-2.2872-2.3001-1.2234-4.0826-0.27244-1.2649,0.67461-2.605,1.5633-4.1812,2.7451-1.3479,1.7189-4.8532,0.71352-6.0221-1.466,1.4063-3.4586-0.37623-4.5847-3.1213-5.8846-0.21665-2.5012,1.1896-3.3964,4.2202-2.6854,2.6634,1.056,5.1854,1.9369,9.2395,0.98855-6.6889-2.0926-15.55-7.0611-22.479-13.981l5.2384-6.2669c3.8115,3.5274,16.104,14.406,21.705,15.685,4.4628,0.0791,7.9361-0.0266,9.9872-1.3694,1.9992-2.4299,4.3546-4.9628,7.5136-1.0956-1.1312,2.4273-0.10767,4.4264,1.7423,5.1114,0.16086,2.099-1.0742,3.7337-2.7347,4.1722" stroke="#FFF" stroke-dasharray="none" stroke-miterlimit="4" stroke-width="1.04726934" fill="#d40000"/>
  <path d="m198.35,211.65c6.6682,3.1784,8.0435,1.3952,8.6973,1.4419,6.4399-1.8954,10.97,1.1566,9.1667,5.2263-2.8528-0.32173-3.8037,1.7708-3.5118,4.0904-0.8692,1.658-4.7728,3.3116-8.0005-1.9426-3.9754-1.4773-7.2543-3.3727-10.225-6.609" stroke="#FFF" stroke-dasharray="none" stroke-miterlimit="4" stroke-width="1.04726934" fill="#d40000"/>
  <path fill-rule="evenodd" fill="#d40000" d="m94.314,25.594c0.69536,6.9731,7.8669,7.8189,17.742,5.2424,10.916-2.8489,17.938,3.949,23.702,12.75-7.0937-8.3806-15.722-12.766-23.986-9.4963-20.14,7.971-23.258-3.82-17.456-8.496z"/>
  <path fill-rule="evenodd" fill="#d40000" d="m107.75,29.91c-8.011-9.133-1.66-16.886,6.15-17.581l5.0089,5.8781c14.961,3.0188,20.571,13.265,15.953,26.753l-10.866-4.4303c-6.6695,1.056-12.92-1.5827-13.667-6.2414,5.9222,4.119,15.319-0.01946,21.713,4.5237,0.45406-14.538-19.614-20.043-24.284-8.9022z"/>
  <path fill-rule="evenodd" fill="#003d8f" d="m163.67,74.339c-0.3386-7.1651,4.3486-10.979,10.441-13.854-0.83677-7.0288,3.9062-11.575,8.6349-13.453,3.6948-1.4673,4.0061-5.8703,1.5412-8.535-0.37622,0.02724-0.75504,0.04281-1.1377,0.04281-8.7037,0-15.758-7.0561-15.758-15.76,0-15.084,17.401-18.519,28.808-14.785,8.0939,2.6478,15.52,8.9657,22.488,17.755,5.2256,6.5903,10.516,11.8,16.027,12.799,1.8681,0.3386,2.5518-1.0482,4.0813-1.0482,4.0035,0,2.247,7.3843,1.3985,9.0695-2.8645,5.6835-11.176,9.0072-23.427,3.9062,6.6163,6.3906,14.138,12.614,22.798,13.064l-0.003,0.28022c-8.2094,0.84455-15.882-3.9075-22.713-9.6909,2.6997,7.3117,4.9687,13.021,7.5543,17.087,1.7047,2.6815,5.7134,7.3415,9.1954,7.6178,1.0975,0.08692,1.6035-0.95352,2.7516-0.95352,1.2856,0,2.4299,0.88477,2.8774,2.1263,0.93017,2.5739,0.0726,7.1404-1.4024,9.2952-4.0061,5.8418-14.885,6.122-25.58-5.079,5.2269,12.942,12.315,27.633,20.317,29.21l-0.0545,0.27503c-9.8349-1.1364-17.479-15.387-23.03-28.371,4.8299,17.084,10.052,34.106,15.976,50.616,1.1105,3.0928,3.5235,10.078,7.4842,10.41,1.1806,0.0986,1.283-0.44498,2.1341-0.88087,1.0573-0.54228,2.5972-0.25039,3.1525,1.2,0.76022,1.9875-0.56823,5.6965-1.1248,6.9432-2.3196,5.188-8.3378,6.5904-14.137,3.8154-9.7065-4.6457-16.41-23.641-21.271-42.866,2.6556,20.325,7.6671,44.026,19.828,51.684l-0.14919,0.23611c-11.952-7.527-17.693-24.654-20.905-41.937,2.5311,28.364,5.8976,52.247,17.955,58.296,2.5661,1.2869,3.6169,1.3713,6.196,0.80823,3.8932-0.84844,2.2158,4.7015,1.4478,6.4944-4.4329,10.342-20.06,5.1283-25.888-2.6348-9.9556-13.262-17.134-40.481-22.497-73.969,0.2387,16.516,1.3713,33.288,7.6204,48.488l-0.25816,0.10638c-8.5026-15.966-9.9932-32.198-10.286-48.945-1.9252,12.653-2.352,24.847-0.11027,36.269,0.57341,2.9228,2.6673,3.0448,2.5985,5.2671-0.0701,2.269-2.1458,2.5596-3.8803,2.3209-3.2991-0.45276-5.8548-2.4428-7.6944-5.2541-3.1758-4.852-5.5266-12.782-7.2416-20.944-1.5957,6.6306-2.1613,13.336,0.36455,19.211l-0.25168,0.12195c-3.7622-5.9949-3.6571-13.452-2.1847-20.932-4.3577,6.6747-6.1311,12.514-5.3787,17.515,1.2272,8.1601,6.436,14.994,14.801,15.982,3.6506,0.432,7.2922,0.33081,10.903,3.1369,3.7129,2.8839,4.8468,7.3869,1.0236,13.37-5.7899,9.0617,2.4792,12.266,6.807,9.076,0.0778,7.4881-5.14,11.726-13.16,8.849-0.79395,5.0673-2.9112,9.3783-7.9421,12.025,0.79525-5.389-1.9252-9.4496-7.4868-11.345-8.9605-3.0526-10.078-10.604-5.2191-16.563,3.1577-3.8725,2.269-7.8656-2.042-10.664-4.9376-4.4602-7.697-10.814-7.034-18.606-1.3609,4.4628-4.1696,9.3277-5.6718,13.387-3.997,10.795,5.7834,14.398,8.1679,9.303,3.7817,9.0008-4.6132,15.127-13.614,11.572-0.75763,21.482,13.84,24.659,16.791,14.748,12.404,12.782-7.4868,27.682-19.514,11.345,1.152,14.871,8.0291,24.47,15.038,29.228,9.0111,6.1168,17.812,1.3518,15.819-4.7235-1.9914-6.0753-10.36-5.5227-11.344,2.269-5.437-5.2321-4.6963-13.025,1.2818-17.527,6.2868-4.7326,16.061-3.4885,18.685,4.8195,5.2191-6.4282,14.446-5.6706,19.059,1.3622-7.034-0.0765-10.436,3.1758-10.21,9.7558,12.192-2.8735,23.937,6.4204,16.79,19.287-2.9501-7.1093-8.7724-8.4714-15.429-3.4042,4.6885,5.8989,4.2357,13.008-2.9501,15.202-0.6798-6.3542-8.609-9.7013-16.79-10.664-11.106-1.3051-21.555-7.6386-30.858-21.328,2.928,15.177,10.452,32.661-2.8813,44.245-13.334-11.584-5.8094-29.068-2.8813-44.245-9.303,13.689-19.752,20.023-30.858,21.328-8.1809,0.96261-16.11,4.3097-16.79,10.664-7.1858-2.1938-7.6386-9.303-2.9501-15.202-6.6565-5.0673-12.479-3.7051-15.429,3.4042-7.1469-12.867,4.5977-22.161,16.79-19.287,0.22573-6.58-3.1758-9.8323-10.21-9.7558,4.6132-7.0327,13.84-7.7904,19.059-1.3622,2.6245-8.308,12.398-9.5521,18.685-4.8195,5.978,4.5017,6.7188,12.295,1.2817,17.527-0.98337-7.7917-9.3523-8.3443-11.344-2.269-1.9927,6.0753,6.8083,10.84,15.819,4.7235,7.0094-4.7586,13.886-14.357,15.038-29.228-12.027,16.337-31.918,1.4374-19.514-11.345,2.9514,9.9115,17.549,6.7344,16.791-14.748-9.0008,3.5546-17.396-2.5713-13.614-11.572,2.3845,5.0945,12.165,1.4919,8.1679-9.303-1.5023-4.0593-4.311-8.9242-5.6718-13.387,0.66292,7.7917-2.0965,14.146-7.034,18.606-4.311,2.7983-5.1996,6.7914-2.042,10.664,4.8584,5.9586,3.7415,13.51-5.2191,16.563-5.5616,1.8954-8.282,5.956-7.4868,11.345-5.031-2.6465-7.1482-6.9575-7.9421-12.025-8.02,2.8774-13.238-1.3609-13.16-8.849,4.3278,3.1901,12.597-0.0143,6.807-9.076-3.8232-5.9832-2.6893-10.486,1.0236-13.37,3.6104-2.8061,7.2533-2.7049,10.903-3.1369,8.3651-0.98726,13.574-7.8215,14.801-15.982,0.95093-6.3283-1.8954-12.161-5.3579-17.416,1.453,7.4466,1.5399,14.866-2.2054,20.834l-0.25168-0.12195c2.5259-5.8742,1.9602-12.58,0.36454-19.211-1.715,8.1614-4.0658,16.092-7.2416,20.944-1.8396,2.8113-4.3953,4.8014-7.6944,5.2541-1.7345,0.23871-3.8102-0.0519-3.8803-2.3209-0.06876-2.2223,2.0251-2.3442,2.5985-5.2671,2.2418-11.422,1.8149-23.616-0.11027-36.269-0.29319,16.747-1.7838,32.979-10.286,48.945l-0.25816-0.10638c6.2492-15.201,7.3817-31.972,7.6204-48.488-5.3631,33.488-12.541,60.706-22.497,73.969-5.8275,7.7631-21.455,12.977-25.888,2.6348-0.76801-1.7929-2.4454-7.3428,1.4478-6.4944,2.5791,0.56303,3.6299,0.47871,6.196-0.80823,12.057-6.0494,15.424-29.932,17.955-58.296-3.2121,17.283-8.9528,34.41-20.905,41.937l-0.14919-0.23611c12.161-7.658,17.173-31.359,19.828-51.684-4.861,19.225-11.564,38.22-21.271,42.866-5.799,2.775-11.817,1.3726-14.137-3.8154-0.55655-1.2467-1.885-4.9557-1.1248-6.9432,0.55525-1.4504,2.0952-1.7423,3.1525-1.2,0.85104,0.43589,0.95352,0.97947,2.1341,0.88087,3.9607-0.33211,6.3737-7.3168,7.4842-10.41,5.9248-16.51,11.147-33.532,15.976-50.616-5.592,12.977-13.236,27.226-23.071,28.366l-0.05449-0.27503c8.002-1.57,15.09-16.265,20.317-29.207-10.695,11.201-21.574,10.921-25.58,5.079-1.4753-2.154-2.3328-6.721-1.4026-9.295,0.4476-1.241,1.5916-2.126,2.8776-2.126,1.1481,0,1.6541,1.0404,2.7516,0.95352,3.482-0.27633,7.4907-4.9363,9.1954-7.6178,2.5855-4.0658,4.8545-9.7753,7.5543-17.087-6.8316,5.7834-14.504,10.535-22.713,9.6909l-0.0481-0.281c8.6596-0.451,16.181-6.674,22.798-13.065-12.251,5.102-20.563,1.778-23.427-3.906-0.8485-1.685-2.605-9.069,1.3985-9.069,1.5295,0,2.2132,1.3868,4.0813,1.0482,5.511-0.999,10.801-6.209,16.027-12.799,6.968-8.79,14.393-15.108,22.487-17.755,11.408-3.7337,28.808-0.2984,28.808,14.785,0,8.7037-7.0548,15.76-15.758,15.76-0.38271,0-0.76152-0.01557-1.1377-0.04281-2.4649,2.6647-2.1535,7.0678,1.5412,8.535,4.7287,1.8785,9.4717,6.4243,8.6349,13.453,6.0922,2.8748,10.779,6.6889,10.441,13.854,1.5101,2.3378,3.1979,6.1402,6.1908,6.6046,6.157-0.0026,6.5657-6.3049,12.276-8.1549-2.2599-0.39568-4.1125-2.6647-4.3149-4.9155,6.724,1.488,9.556-7.0729,15.062-10.146-2.2327-1.7319-3.0811-3.9763-2.5427-6.6098,4.8377,4.3616,14.063,0.56433,12.463-10.529,2.5804-0.64217,6.8005,0.50725,10.631,2.5207,3.6493-12.183-5.9456-23.893-16.459-22.94-1.7124-3.1356-3.1317-5.4357-5.4695-7.4401,1.9641-4.0852,8.2885-6.8667,23.948-0.8666,2.7153,1.0404,5.1322,1.1118,7.5958-0.57082,0.59806,2.4065-0.22184,4.0878-2.4597,5.0452,5.2775,3.5261,4.1631,15.435,11.451,15.171-1.2934,2.3378-3.4405,3.386-6.8342,2.5531,1.6242,7.2429-0.94574,11.388,4.0295,17.538-2.352,0.85752-4.7858-0.07914-7.3013-2.8048,0.46703,4.6846,0.0895,15.446,2.7308,19.596-2.4156,0.69536-5.1711-0.22573-6.5021-2.618-1.187,7.1093,4.9259,7.3207,8.692,11.258,6.4243,6.7123,11.68,4.2357,16.155-2.6906z"/>
  <path d="m196.34,205.83c-1.8318,0.27244-4.936,1.6779-6.7691,3.3786m-8.413-8.7057c-1.2428,0.0402-2.9618,0.95684-4.2073,2.066m11.714,2.339c-1.2649,0.0259-2.849,0.99382-3.9361,2.0874m0.24336-4.2877c-1.2026,0.0441-2.9288,1.0314-3.955,2.1458m-3.1893-6.9946c-1.4439,0.24649-3.6372,1.3577-5.0824,2.4981" stroke="#FFF" stroke-linecap="butt" stroke-miterlimit="4" stroke-dasharray="none" stroke-width="1.04726934" fill="#d40000"/>
  <path fill-rule="evenodd" fill="#FFF" d="m128.37,13.75c1.5127-0.06876,2.7957,1.1027,2.8645,2.6154s-1.1027,2.797-2.6154,2.8658c-1.5127,0.06876-2.7957-1.1027-2.8658-2.6154-0.0688-1.5127,1.104-2.797,2.6167-2.8658z"/>
  <path fill-rule="evenodd" fill="#003d8f" d="m127.73,14.998c0.79396-0.03632,1.4673,0.5786,1.5036,1.3726,0.0363,0.79396-0.5786,1.4673-1.3726,1.5036-0.79395,0.03632-1.4673-0.5786-1.5036-1.3726-0.0363-0.79396,0.5786-1.4686,1.3726-1.5036z"/>
 </g>
</svg>
