<!-- Created with Inkscape (http://www.inkscape.org/) -->
<svg xmlns:rdf="http://www.w3.org/1999/02/22-rdf-syntax-ns#" xmlns="http://www.w3.org/2000/svg" height="300" width="248" version="1.0" xmlns:cc="http://creativecommons.org/ns#" xmlns:xlink="http://www.w3.org/1999/xlink" xmlns:dc="http://purl.org/dc/elements/1.1/">
 <metadata>
  <rdf:RDF>
   <cc:Work rdf:about="">
    <dc:format>image/svg+xml</dc:format>
    <dc:type rdf:resource="http://purl.org/dc/dcmitype/StillImage"/>
    <dc:title/>
   </cc:Work>
  </rdf:RDF>
 </metadata>
 <path stroke-linejoin="miter" d="m0.97144,101.81,246.06,0" stroke="#000" stroke-linecap="butt" stroke-dasharray="none" stroke-miterlimit="4" stroke-width="2" fill="none"/>
 <path d="m247,1.0001,0,214.77c0,82.42-84.912,44.012-123,82.791-38.089-38.77-123-0.37-123-82.79v-214.77z" stroke="#000" stroke-dasharray="none" stroke-miterlimit="4" stroke-width="2" fill="#FFF"/>
 <path fill="#003d8f" d="M144.88,209.22c-5.39,0-10.76,4.89-15.19,14.66l-5.69,12.46v62.22c15.27-15.55,38.07-18.69,59.91-22.18l-23.85-52.5c-4.43-9.77-9.8-14.66-15.18-14.66z" fill-rule="evenodd"/>
 <path fill="#003d8f" d="M225.47,209.22c-5.39,0-10.75,4.89-15.19,14.66l-23.66,52.06c27.03-4.43,52.04-10.24,58.66-41.94l-4.59-10.12c-4.44-9.77-9.83-14.66-15.22-14.66z" fill-rule="evenodd"/>
 <path fill="#003d8f" d="M185.19,182.25c-6.45,0-12.94,5.83-18.25,17.53l-28.19,62.19-14.75,29.65v6.94c27.73-28.23,80.28-15.55,106.81-38.37l-27.4-60.41c-5.31-11.7-11.77-17.53-18.22-17.53z" fill-rule="evenodd"/>
 <path fill="#d40000" d="m143.13,147.72c-4.6162,11.18-0.0447,18.207-2.5768,25.112-0.656-3.9365-1.5704-7.0013-3.0512-8.1472,2.1602,10.358-6.2535,12.974-2.4885,25.247-1.3542-1.4218-2.1082-3.8968-2.6463-6.7526-0.8089,3.914-0.7557,8.3101,2.3736,14.424-1.5429-0.98958-2.7086-2.8205-3.6156-5.2266,0.70195,11.041,5.9485,18.919,12.784,19.767,6.134,0.76059,13.915-4.1389,14.716-17.492-0.5846,2.107-1.652,2.2545-2.3842,3.4266,2.9768-10.723,1.2276-18.995-1.8455-26.582,0.57105,4.2723,0.74525,8.1967-0.50115,10.879-0.23712-10.199-1.7412-18.551-5.0995-24.198,0.1345,1.419,0.685,5.2183-0.77835,10.106-0.2095-8.1196-5.1465-9.9428-4.887-20.563z" fill-rule="evenodd"/>
 <path fill="#d40000" d="m183.11,109.89c-5.4555,13.213-0.0528,21.517-3.0453,29.678-0.7753-4.6522-1.8559-8.275-3.6058-9.6283,2.5529,12.241-7.39,15.333-2.941,29.837-1.6004-1.6803-2.4916-4.6053-3.1274-7.9805-0.956,4.6257-0.89305,9.8206,2.8052,17.047-1.8234-1.1694-3.2011-3.3333-4.273-6.1768,0.8296,13.049,7.03,22.36,15.109,23.361,7.249,0.89886,16.444-4.8914,17.391-20.672-0.69095,2.4901-1.9523,2.6644-2.8178,4.0497,3.5181-12.672,1.4508-22.449-2.181-31.415,0.6749,5.049,0.8807,9.6865-0.59225,12.857-0.28025-12.052-2.0578-21.92-6.0275-28.595,0.15933,1.6789,0.80995,6.164-0.9195,11.946-0.24615-9.602-6.0795-11.759-5.773-24.308z" fill-rule="evenodd"/>
 <path fill="#d40000" d="m227.21,147.72c4.6162,11.18,0.0447,18.207,2.5768,25.112,0.656-3.9365,1.5704-7.0013,3.0512-8.1472-2.1602,10.358,6.2535,12.974,2.4885,25.247,1.3542-1.4218,2.1082-3.8968,2.6463-6.7526,0.8089,3.914,0.7557,8.3101-2.3736,14.424,1.5429-0.98958,2.7086-2.8205,3.6156-5.2266-0.70195,11.041-5.9485,18.919-12.784,19.767-6.134,0.76059-13.915-4.1389-14.716-17.492,0.5846,2.107,1.652,2.2545,2.3842,3.4266-2.9768-10.723-1.2276-18.995,1.8455-26.582-0.57105,4.2723-0.74525,8.1967,0.50115,10.879,0.23712-10.199,1.7412-18.551,5.0995-24.198-0.13451,1.419-0.685,5.2183,0.7784,10.106,0.20892-8.1259,5.1465-9.9478,4.8866-20.567z" fill-rule="evenodd"/>
 <path stroke-linejoin="miter" d="m124,98.953,0,199.67" stroke="#003d8f" stroke-linecap="butt" stroke-dasharray="none" stroke-miterlimit="4" stroke-width="2" fill="none"/>
 <path d="m1,1,0,100.81,246,0v-100.81h-246z" fill="#d40000"/>
 <g transform="matrix(-0.64524112,0.26866478,0.36472274,0.59673264,-52.249058,13.983845)" fill-rule="evenodd">
  <path d="m-238.29,195.41c-2.9506,24.932-16.769,46.397-40.975,68.199l-2.0118-22.102-22.188-0.46514c20.06-25.67,40.508-40.95,65.175-45.63z" stroke="#d40000" stroke-dasharray="none" stroke-miterlimit="4" stroke-width="1.43884945" fill="#ffcd50"/>
  <path d="m-117.31,60.708-12.849-0.96987,43.005-26.408-23.343,44.744-1.8648-12.748-24.549,26.326-4.9497-4.6161,24.551-26.328z" stroke="#d40000" stroke-dasharray="none" stroke-miterlimit="4" stroke-width="1.43884945" fill="#FFF"/>
  <path d="m-297.05,253.45,160.93-172.57,4.95,4.616-160.93,172.58-4.949-4.62z" stroke="#d40000" stroke-dasharray="none" stroke-miterlimit="4" stroke-width="1.43884945" fill="#ffcd50"/>
  <path d="m-112.17,60.158,20.76-22.262-20.24,25.809-0.52-3.547z" fill="#d40000"/>
 </g>
 <g transform="matrix(0.64524112,0.26866478,-0.36472274,0.59673264,300.24905,13.983845)" fill-rule="evenodd">
  <path d="m-238.29,195.41c-2.9506,24.932-16.769,46.397-40.975,68.199l-2.0118-22.102-22.188-0.46514c20.06-25.67,40.508-40.95,65.175-45.63z" stroke="#d40000" stroke-dasharray="none" stroke-miterlimit="4" stroke-width="1.43884953" fill="#ffcd50"/>
  <path d="m-117.31,60.708-12.849-0.96987,43.005-26.408-23.343,44.744-1.8648-12.748-24.549,26.326-4.9497-4.6161,24.551-26.328z" stroke="#d40000" stroke-dasharray="none" stroke-miterlimit="4" stroke-width="1.43884953" fill="#FFF"/>
  <path d="m-297.05,253.45,160.93-172.57,4.95,4.616-160.93,172.58-4.949-4.62z" stroke="#d40000" stroke-dasharray="none" stroke-miterlimit="4" stroke-width="1.43884953" fill="#ffcd50"/>
  <path d="m-112.17,60.158,20.76-22.262-20.24,25.809-0.52-3.547z" fill="#d40000"/>
 </g>
 <path d="m247,1.0001,0,214.77c0,82.42-84.912,44.012-123,82.791-38.089-38.77-123-0.37-123-82.79v-214.77z" stroke="#000" stroke-miterlimit="4" stroke-dasharray="none" stroke-width="2" fill="none"/>
 <g id="g3052" stroke="#d40000" transform="matrix(0.70116994,0,0,0.70092537,-84.694468,-226.70562)" stroke-dasharray="none" fill-rule="evenodd">
  <path stroke-width="0.85586194" stroke-miterlimit="4" d="m297.64,342.86-15.928-10.228,4.805,18.306-14.65,11.988,18.895,1.087,6.874,17.637,6.874-17.634,18.898-1.087-14.647-11.986,4.805-18.31-15.926,10.227z" fill="#FFF"/>
  <path stroke-width="0.85586194" stroke-miterlimit="4" d="m297.64,338.04c9.111,0,16.506,7.396,16.506,16.506,0,9.111-7.395,16.506-16.506,16.506s-16.506-7.395-16.506-16.506c0-9.11,7.395-16.506,16.506-16.506z" fill="#d20000"/>
  <path stroke-width="0.85586194" stroke-miterlimit="4" d="m289.57,357.17c-0.179-0.545-1.044-0.875-2.198-0.657-1.472,0.278-3,1.55-4.215,2.32-6.48,4.108-8.628-5.189-6.688-11.159s9.142-12.229,11.97-5.097c0.53,1.338,1.019,3.265,2.046,4.355,0.806,0.855,1.701,1.096,2.165,0.758s0.51-1.263-0.053-2.293c-0.72-1.314-2.401-2.374-3.509-3.292-5.91-4.893,2.269-9.809,8.546-9.809s14.456,4.916,8.546,9.809c-1.108,0.918-2.789,1.978-3.509,3.292-0.564,1.031-0.517,1.957-0.052,2.292,0.466,0.335,1.359,0.094,2.165-0.76,1.027-1.09,1.516-3.018,2.046-4.355,2.827-7.132,10.03-0.873,11.97,5.097,1.939,5.97-0.209,15.267-6.688,11.159-1.215-0.77-2.743-2.042-4.215-2.32-1.155-0.218-2.02,0.113-2.196,0.658s0.329,1.32,1.391,1.822c1.354,0.64,3.338,0.51,4.774,0.601,7.656,0.485,3.929,9.269-1.149,12.959-5.078,3.689-14.584,4.519-12.68-2.913,0.358-1.393,1.095-3.24,0.905-4.725-0.15-1.166-0.732-1.886-1.306-1.884s-1.155,0.723-1.304,1.887c-0.19,1.486,0.547,3.333,0.904,4.726,1.905,7.432-7.601,6.602-12.68,2.912-5.078-3.69-8.805-12.474-1.148-12.959,1.436-0.091,3.42,0.04,4.773-0.6,1.063-0.503,1.569-1.279,1.389-1.824z" fill="#FFF"/>
  <path stroke-width="0.85586194" stroke-miterlimit="4" d="m314.14,364.25c-0.199,3.752-3.455,3.865-5.543,5.381-2.087,1.517-3.2,4.579-6.831,3.609m10.198-31.382c3.507,1.35,2.607,4.481,3.405,6.935,0.797,2.454,3.366,4.458,1.321,7.612m-26.695-19.396c2.368-2.919,5.068-1.096,7.648-1.096s5.28-1.823,7.647,1.096m-26.695,19.394c-2.044-3.153,0.524-5.158,1.321-7.611,0.798-2.454-0.102-5.585,3.405-6.935m10.196,31.382c-3.63,0.97-4.743-2.092-6.831-3.608-2.087-1.517-5.343-1.629-5.542-5.382" fill="none"/>
  <path stroke-width="0.85586197" stroke-miterlimit="7" d="m304.16,363.52c-3.935-7.927-4.497-7.945,4.026-12.403-8.753,1.292-8.944,1.821-10.549-7.663-1.477,8.724-1.034,9.069-10.548,7.668,7.841,4.103,8.307,3.788,4.032,12.402,6.323-6.191,6.167-6.732,13.039-0.004z" fill="#d20000"/>
  <path stroke-width="0.85586194" stroke-miterlimit="4" d="m297.64,350.34c2.323,0,4.208,1.886,4.208,4.208,0,2.323-1.885,4.208-4.208,4.208s-4.208-1.885-4.208-4.208c0-2.322,1.885-4.208,4.208-4.208z" fill="#FFF"/>
 </g>
 <use xlink:href="#g3052" transform="translate(-90.603429,25.899558)" height="300" width="248" y="0" x="0"/>
 <use xlink:href="#g3052" transform="translate(88.586283,25.899558)" height="300" width="248" y="0" x="0"/>
 <use xlink:href="#g3052" transform="translate(1.0640397e-7,57.888401)" height="300" width="248" y="0" x="0"/>
 <path d="m52.879,239.08c3.1199-2.8299,3.5804-7.2174-0.59382-9.712l-1.7401,3.7276c2.0039,0.83781,3.0336,2.4811,2.3339,5.9845zm-19.25,13.835c-3.7536-1.2102-5.5083-5.0767-2.3853-9.2903l2.7431,2.6708c-1.6075,1.6892-2.067,3.6834-0.35786,6.6195zm-11.196-5.2192c-3.0215-2.9863-3.3334-7.3939,0.92138-9.674l1.6125,3.8132c-2.0303,0.73555-3.1149,2.3242-2.5339,5.8608zm-3.5401-12.366c-1.4995-4.3892-0.06416-8.4477,4.5631-7.9722l-0.06095,4.2944c-2.0712-0.5367-3.6413,0.22813-4.5021,3.6777z" fill-rule="evenodd" stroke="#FFF" stroke-miterlimit="4" stroke-dasharray="none" stroke-width="0.6" fill="#d20000"/>
 <path fill="#d20000" d="m42.399,127c2.4558,1.6372,5.5796,1.6372,9.371,0,4.1952-1.6796,8.0372-0.63066,10.945,2.982-3.544-2.0987-7.1269-1.7403-10.444-0.5262-6.233,2.2818-8.9625,0.38241-9.8718-2.4558z" fill-rule="evenodd"/>
 <path fill="#d20000" d="m46.333,126.03c-1.4753-3.7616-0.91639-8.147,6.0088-9.0342,0.75101-1.5061,2.4202-1.7984,4.5068-1.4034,8.4454,4.9557,9.5093,16.767,3.8627,23.507-2.5428-3.5807-5.3401-6.9447-12.304-6.7541,2.6369-2.2792,7.0849-1.2023,11.66-0.35095,0.66582-2.1804,0.48261-5.9888-0.90285-8.1256-1.0775-1.6616-3.8121-2.4003-5.58-0.39859-2.4833-1.8321-5.7479-1.0817-7.2517,2.5598z" fill-rule="evenodd"/>
 <path stroke-linejoin="round" d="m22.49,229.52c0.08875-2.7193,1.6332-5.9508,3.718-2.1367,0.40348,0.73773,1.2162,1.0515,3.4278,0.92566,2.4013-0.13636,4.7695-0.604,7.2039-0.78319,3.502-0.25829,4.9441-5.6777,7.5525-9.7592l3.6021,1.0681c-1.4332,2.6599-3.0151,5.3258-4.7641,7.9787-1.1941,1.8111-0.51932,3.2875,2.2078,2.8491,1.2087-0.19405,1.9465-0.71588,2.6897-1.27,2.7781-2.072,4.9919-1.5992,3.6428,2.2674-0.94598,2.711-1.7116,4.6755-3.8342,2.9208-1.1709-0.96806-2.5136-1.305-3.9507-0.85486-0.77738,0.24387-1.5797,0.39946-2.3821,0.42743-1.9362,0.0673-2.9434,0.85442-3.0208,2.7071-0.34859,2.8255-1.3944,5.1759-3.1373,7.0522,0.15505,3.9413-1.0472,5.1851-3.718,4.1314-2.3885-0.94227-3.9504-2.8347-1.5687-4.915,1.9668-1.718,3.8588-3.3897,4.9961-6.5535,0.73604-1.2823,1.4717-2.5646,2.2078-3.8469-1.6941,0.53363-3.142,2.1769-4.1689,3.9054-1.4486,2.4383-3.4948,3.7656-5.8552,5.196-0.3183,0.46283-0.61913,1.18-0.95631,1.6551-1.2718,1.7945-3.0101,0.67742-3.6599-1.2823-0.6922-2.0865-1.749-4.5925,1.5106-4.9863,4.1314-0.49954,7.6345-2.3395,10.98-5.6278-2.8272,1.0839-5.771,1.4676-8.6564,1.4248-3.3551,1.8937-4.1742,0.80111-4.0666-2.4934z" fill-rule="evenodd" stroke="#FFF" stroke-dasharray="none" stroke-miterlimit="4" stroke-width="0.6" fill="#d20000"/>
 <path d="m72.121,239.08c-3.1195-2.8299-3.58-7.2174,0.59418-9.712l1.7401,3.7276c-2.0039,0.83781-3.0336,2.4811-2.3343,5.9845zm19.25,13.835c3.7536-1.2102,5.5083-5.0767,2.3853-9.2903l-2.7431,2.6708c1.6075,1.6892,2.067,3.6834,0.35786,6.6195zm11.196-5.2192c3.0215-2.9863,3.3334-7.3939-0.92139-9.674l-1.6125,3.8132c2.0302,0.73555,3.1145,2.3242,2.5339,5.8608zm3.5401-12.366c1.4995-4.3892,0.0638-8.4477-4.5631-7.9722l0.0609,4.2944c2.0712-0.5367,3.6413,0.22813,4.5021,3.6777z" fill-rule="evenodd" stroke="#FFF" stroke-miterlimit="4" stroke-dasharray="none" stroke-width="0.6" fill="#d20000"/>
 <path stroke-linejoin="round" d="m102.51,229.52c-0.0891-2.7193-1.6332-5.9508-3.7183-2.1367-0.40348,0.73773-1.2158,1.0515-3.4275,0.92566-2.4013-0.13636-4.7695-0.604-7.2039-0.78319-3.502-0.25829-4.9441-5.6777-7.5525-9.7592l-3.6021,1.0681c1.4332,2.6599,3.0151,5.3258,4.7641,7.9787,1.1941,1.8111,0.51932,3.2875-2.2078,2.8491-1.2087-0.19405-1.9468-0.71588-2.6897-1.27-2.7781-2.072-4.9919-1.5992-3.6428,2.2674,0.94598,2.711,1.7116,4.6755,3.8342,2.9208,1.1709-0.96806,2.5136-1.305,3.9507-0.85486,0.77738,0.24387,1.5797,0.39946,2.3817,0.42743,1.9365,0.0673,2.9438,0.85442,3.0211,2.7071,0.34859,2.8255,1.3944,5.1759,3.1373,7.0522-0.15505,3.9413,1.0472,5.1851,3.718,4.1314,2.3885-0.94227,3.9504-2.8347,1.5687-4.915-1.9672-1.718-3.8588-3.3897-4.9961-6.5535-0.73604-1.2823-1.4717-2.5646-2.2078-3.8469,1.6938,0.53363,3.142,2.1769,4.1689,3.9054,1.4482,2.4383,3.4945,3.7656,5.8552,5.196,0.3183,0.46283,0.61913,1.18,0.95596,1.6551,1.2721,1.7945,3.0104,0.67742,3.6602-1.2823,0.6922-2.0865,1.749-4.5925-1.5106-4.9863-4.1314-0.49954-7.6345-2.3395-10.98-5.6278,2.8272,1.0839,5.771,1.4676,8.656,1.4248,3.3555,1.8937,4.1746,0.80111,4.0669-2.4934z" fill-rule="evenodd" stroke="#FFF" stroke-dasharray="none" stroke-miterlimit="4" stroke-width="0.6" fill="#d20000"/>
 <path fill="#003b8f" d="m65.757,219.69c0.40206-3.138,1.2251-6.439,2.2398-9.8392,3.8566,2.9404,4.8717,9.6779,5.1213,13.228,2.5795,1.0791,5.4321,1.7115,8.0112,1.8976l-0.91033-2.6791c2.5339,0.31642,4.9919-0.0183,7.2827-1.7858-4.7056-1.9763-7.0595-7.1317-8.4664-13.841-1.2112-5.7782-3.332-9.1845-6.2836-11.487,1.6335-5.259,2.9873-10.542,3.317-15.642,0.60202-0.2159,1.2023-0.4554,1.7996-0.71807,1.3901,15.22,4.7648,35.145,15.602,40.46,3.2282,1.583,7.5054,2.0948,8.9023-2.9925,0.58241-2.1223-1.2796-1.9501-2.9381-2.6817-10.013-4.4142-14.765-23.474-16.413-37.651,0.74352-0.50085,1.4813-1.0362,2.2138-1.604,2.7018,13.109,7.3728,28.984,17.769,32.582,3.3462,1.1577,7.6437,1.1153,8.5965-4.1235,0.39743-2.1852-1.4393-1.7748-3.1516-2.2879-9.602-2.8784-15.666-18.104-18.523-30.333,0.76241-0.76308,1.5163-1.5611,2.2609-2.3915,2.7777,9.931,6.3303,21.08,14.598,24.36,3.3077,1.3129,7.6038,1.4702,8.7177-3.7206,0.46444-2.1656-1.3837-1.8404-3.0789-2.433-7.5782-2.6481-13.238-13.189-16.176-23.175,0.83584-1.1166,1.6571-2.2735,2.4622-3.468,1.6086,6.307,4.7199,14.423,10.864,17.311,3.2464,1.5257,7.2962,1.9628,8.6336-3.1485,0.55747-2.1319-1.302-1.9278-2.9694-2.6297-6.3599-2.6773-9.6772-7.3961-12.791-17.54,0.86115-1.4969,1.6991-3.0362,2.5118-4.613,0.95203,4.9063,2.4248,9.6272,6.4739,13.125,2.8418,2.4553,6.9155,4.1449,9.2242-0.41563,0.96308-1.9025-0.88182-2.2578-2.3596-3.4343-3.7254-2.9667-4.3959-7.8231-4.3916-13.063,0.005-5.717,1.0697-12.054,0.86186-20.35-0.22527-8.9983-3.4702-13.671-7.1914-15.167-6.0401-2.4287-12.714,1.2395-11.839,10.021,0.30725,3.0877,2.248,6.0784,5.55,6.6999,2.3083,9.0267-15.191,29.353-26.954,31.304-0.5564-2.6529-1.2432-5.1528-2.0652-7.4744,1.2261,1.1805,3.0832,1.857,4.4316,1.7351-1.2105-3.4304-2.0463-6.5998-0.26269-12.622,1.2693,0.94446,2.6708,0.76308,3.9404,0.0594-1.7023-1.5865-2.5032-3.7066-2.8297-5.8359-0.20994-1.371-0.5981-4.8853,0.31687-6.6046,1.0347,0.0808,2.0695,0.20191,3.1045-0.36319-2.0666-1.5568-3.3095-3.8626-4.2961-6.8559-0.50863-1.5436-1.1049-2.8718-1.8121-4.176,1.533-2.1472,2.3649-4.1873,2.4954-6.12-7.3992,7.4621-16.9-1.8255-21.41,6.4421,7.3115,5.9591,9.2819,13.475,5.1227,21.098-2.1104,4.5274-5.0403,7.8454-6.8432,11.77-1.3249,2.8836-2.3952,5.835-3.2222,8.9975-11.763-1.6105-29.623-22.241-27.292-31.355,3.302-0.62148,5.2424-3.6122,5.55-6.6999,0.87433-8.782-5.7992-12.45-11.839-10.021-3.7212,1.496-6.9662,6.1689-7.1914,15.167-0.2078,8.2964,0.85687,14.633,0.86186,20.35,0.0043,5.2397-0.66653,10.096-4.3916,13.063-1.4778,1.1765-3.3227,1.5318-2.3596,3.4343,2.3086,4.5606,6.3823,2.871,9.2242,0.41563,4.0491-3.4981,5.5219-8.2191,6.4739-13.125,0.81231,1.5769,1.6506,3.1161,2.5118,4.613-3.1135,10.144-6.4308,14.863-12.791,17.54-1.667,0.7019-3.5266,0.4978-2.9691,2.6297,1.337,5.1112,5.3872,4.6742,8.6336,3.1485,6.1446-2.8884,9.2555-11.004,10.864-17.311,0.80519,1.1944,1.6264,2.3513,2.4622,3.468-2.9384,9.9861-8.5979,20.527-16.176,23.175-1.6952,0.59263-3.5433,0.26747-3.0789,2.433,1.1139,5.1908,5.41,5.0335,8.7177,3.7206,8.2675-3.2805,11.82-14.429,14.598-24.36,0.74459,0.83038,1.4985,1.6284,2.2605,2.3915-2.8565,12.229-8.9208,27.455-18.523,30.333-1.7123,0.5131-3.549,0.10271-3.152,2.2879,0.95275,5.2389,5.2506,5.2813,8.5965,4.1235,10.396-3.5978,15.067-19.473,17.769-32.582,0.73212,0.56773,1.4703,1.1031,2.2138,1.604-1.6482,14.177-6.3998,33.237-16.413,37.651-1.6585,0.73162-3.5205,0.55942-2.9381,2.6817,1.3969,5.0872,5.6741,4.5754,8.9023,2.9925,10.837-5.314,14.212-25.24,15.602-40.46,0.59738,0.26267,1.1976,0.50217,1.7996,0.71807,0.32471,5.0216,1.6417,10.22,3.2414,15.399-3.1181,2.3045-5.3483,5.745-6.6026,11.729-1.4065,6.7095-3.7607,11.865-8.4664,13.841,2.2908,1.7674,4.7488,2.1022,7.2827,1.7858l-0.91033,2.6791c2.5792-0.18618,5.4317-0.81858,8.0112-1.8976,0.25628-3.6472,1.3202-10.661,5.4453-13.462,1.0468,3.4828,1.8991,6.8634,2.3104,10.073-1.7925,1.0725-2.9891,3.003-2.9891,5.2061,0,2.3592,1.3719,4.4059,3.3783,5.4211-0.14222,5.8394-1.2529,11.502-3.9033,16.814-2.1743,4.3565-5.5586,3.5414-4.4911-1.3216,1.6122-7.3463-2.7495-8.8519-5.8573-7.508-1.312,0.56729-2.5549,2.4418-2.6205,3.6358,0.4819-1.1534,1.6988-1.85,2.5043-1.631,1.1777,0.31948,1.8217,2.5943-0.13438,8.2567-4.0577,11.744,6.4778,15.056,11.318,4.6257,2.9146-6.2821,4.2152-13.838,4.5125-22.378,0.27267,0.0677,0.55247,0.118,0.83833,0.14903,0.16396,11.721-0.94348,22.433-4.1485,31.481,1.8567,2.8635,3.4731,5.727,4.8504,8.5906,1.3773-2.8635,2.994-5.727,4.8504-8.5906-3.2047-9.0477-4.3118-19.76-4.1475-31.481,0.2855-0.031,0.5653-0.0813,0.83798-0.14903,0.29727,8.5408,1.5975,16.096,4.5121,22.378,4.8397,10.431,15.375,7.1186,11.318-4.6257-1.9561-5.6624-1.312-7.9372-0.13438-8.2567,0.80554-0.21896,2.0224,0.47769,2.5043,1.631-0.06558-1.194-1.3085-3.0685-2.6205-3.6358-3.1078-1.3439-7.4691,0.16171-5.8573,7.508,1.0675,4.863-2.3168,5.6781-4.4911,1.3216-2.6504-5.3119-3.7607-10.975-3.903-16.814,2.0064-1.0152,3.3779-3.0615,3.3779-5.4207,0-2.2031-1.1966-4.1336-2.9891-5.2061z" fill-rule="evenodd"/>
 <g fill="#FFF" transform="translate(100,0)" fill-rule="evenodd">
  <path d="M63.031,116.19c-1.26-0.02-2.481,0.72-3.156,2.19,0.724,0.87,1.355,1.76,1.875,2.68,1.922,0.62,3.827-0.77,4.781-2.87-0.45-0.4-0.884-0.78-1.312-1.16-0.678-0.56-1.432-0.83-2.188-0.84z" transform="translate(-100,0)"/>
  <path d="m-37.072,117.92c1.0051,0,1.821,0.81591,1.821,1.821,0,1.0055-0.81591,1.8214-1.821,1.8214s-1.821-0.8159-1.821-1.8214c0-1.0051,0.81591-1.821,1.821-1.821z" stroke="#003d8f" stroke-dasharray="none" stroke-miterlimit="4" stroke-width="0.9"/>
 </g>
</svg>
