<?xml version="1.0" encoding="UTF-8" standalone="no"?>
<!-- Created with Inkscape (http://www.inkscape.org/) -->

<svg
   xmlns:dc="http://purl.org/dc/elements/1.1/"
   xmlns:cc="http://creativecommons.org/ns#"
   xmlns:rdf="http://www.w3.org/1999/02/22-rdf-syntax-ns#"
   xmlns:svg="http://www.w3.org/2000/svg"
   xmlns="http://www.w3.org/2000/svg"
   version="1.0"
   width="248"
   height="300"
   id="svg2">
  <defs
     id="defs268" />
  <metadata
     id="metadata4">
    <rdf:RDF>
      <cc:Work
         rdf:about="">
        <dc:format>image/svg+xml</dc:format>
        <dc:type
           rdf:resource="http://purl.org/dc/dcmitype/StillImage" />
        <dc:title></dc:title>
      </cc:Work>
    </rdf:RDF>
  </metadata>
  <g
     transform="matrix(0.24489796,0,0,0.24489796,3.9964996,132.63819)"
     id="g3136">
    <path
       d="m 400.00002,120 0,-100 -19.99998,0 0,62.771393 L 340.00004,20 320,20 l 0,100 20.00004,0 0,-62.771393 40,62.771393 19.99998,0 z"
       id="path3381"
       style="fill:#ff0000;fill-opacity:1;fill-rule:evenodd;stroke:none" />
    <g
       id="g3007">
      <path
         d="m 0,20 20.00005,0 0,80.00004 40.00001,0 0,19.99996 L 0,120 0,20 z"
         id="path3365"
         style="fill:#9900cc;fill-opacity:1;fill-rule:evenodd;stroke:none" />
      <path
         d="m 80,20 60.00006,0 0,19.99998 -40.00002,0 0,20.00004 40.00002,0 0,19.99996 -40.00002,0 0,20.00004 40.00002,0 0,19.99998 L 80,120 80,20 z"
         id="path3371"
         style="fill:#9900cc;fill-opacity:1;fill-rule:evenodd;stroke:none" />
      <path
         d="m 230,20.00003 c 27.61001,0 49.99997,22.38996 49.99997,49.99997 0,27.61001 -22.38996,49.99997 -49.99997,49.99997 -27.61001,0 -50.00004,-22.38996 -50.00004,-49.99997 0,-27.61001 22.39003,-49.99997 50.00004,-49.99997 z M 230,0 c 38.654,0 70,31.346 70,70 0,38.654 -31.346,70 -70,70 -38.654,0 -70,-31.346 -70,-70 0,-38.654 31.346,-70 70,-70 z m 0.002,100.00001 c 16.56518,0 29.99959,-13.43441 29.99959,-30.00001 0,-16.5656 -13.43441,-30.00001 -29.99959,-30.00001 l -19.99961,0 0,20.00003 19.99961,0 c 5.5214,0 9.99956,4.47816 9.99956,9.99998 0,5.52182 -4.47816,9.99998 -9.99956,9.99998 l -19.99961,0 0,20.00003 19.99961,0 z"
         id="path3373"
         style="fill:#9900cc;fill-opacity:1;fill-rule:evenodd;stroke:none" />
      <path
         d="m 420,20 19.99998,0 0,100 L 420,120 420,20 z"
         id="path3367"
         style="fill:#9900cc;fill-opacity:1;fill-rule:evenodd;stroke:none" />
      <path
         d="m 520.00004,90.00004 c 0,5.52176 -4.47816,9.99998 -9.99998,9.99998 l -30.00004,0 0,-60.00004 30.00004,0 c 5.52182,0 9.99998,4.47822 9.99998,9.99998 l 0,40.00008 z m 20.00004,0 C 540.00008,106.56566 526.56566,120 510.00006,120 L 460,120 l 0,-100 50.00006,0 c 16.5656,0 30.00003,13.43434 30.00003,29.99996 l 0,40.00008 z"
         id="path3369"
         style="fill:#9900cc;fill-opacity:1;fill-rule:evenodd;stroke:none" />
      <path
         d="m 660.00005,90.00004 0,9.99998 40.00001,0 0,19.99998 L 640,120 640,90.00004 c 0,-16.5656 13.43443,-30.00002 30.00003,-30.00002 5.52182,0 9.99999,-4.47824 9.99999,-10.00006 0,-5.52176 -4.47817,-9.99998 -9.99956,-9.99998 L 640,39.99998 660.00005,20 l 10.00041,0 c 16.56518,0 29.9996,13.43436 29.9996,29.99996 0,16.5656 -13.43442,30.00002 -30.00003,30.00002 -5.52183,0 -9.99998,4.47824 -9.99998,10.00006 z"
         id="path3379"
         style="fill:#9900cc;fill-opacity:1;fill-rule:evenodd;stroke:none" />
      <path
         d="m 790,-5e-6 c -38.65993,0 -70,31.34007 -70,70 C 720,108.65993 751.34007,140 790,140 c 38.65993,0 70,-31.34007 70,-70.000005 0,-38.65993 -31.34007,-70 -70,-70 z m 0,20 c 27.61424,0 50,22.38576 50,50 C 840,97.614233 817.61424,120 790,120 c -27.61424,0 -50,-22.385767 -50,-50.000005 0,-27.61424 22.38576,-50 50,-50 z"
         id="path2993"
         style="fill:#9900cc;fill-opacity:1;stroke:none" />
      <path
         d="m 880,40 0,80 20,0 0,-100 z"
         id="path3383"
         style="fill:#9900cc;fill-opacity:1;fill-rule:evenodd;stroke:none" />
      <path
         d="m 920,20 0,60 30,0 c 5.5214,0 10,4.47818 10,10 0,5.52176 -4.4786,10 -10,10 l -30,0 20,20 10,0 c 16.56516,0 30,-13.43438 30,-30 0,-16.5656 -13.43484,-30 -30,-30 l -10,0 0,-20 40,0 0,-20 -60,0 z"
         id="path3375"
         style="fill:#9900cc;fill-opacity:1;fill-rule:evenodd;stroke:none" />
    </g>
  </g>
  <path
     d="M 247,0.99293 247,215.76 c 0,82.45 -84.882,44.015 -122.95,82.809 C 85.97,259.769 1,298.209 1,215.759 V 0.989 h 246 z"
     id="path8"
     style="fill:#ffffff;fill-rule:evenodd" />
  <path
     d="m 247,0.99567 0,147.51 -246,0 0,-147.51 246,0 z"
     id="path10"
     style="fill:#003d8f;fill-rule:evenodd" />
  <g
     id="g5495">
    <g
       transform="matrix(1.568831,0,0,1.568831,-316.26207,-574.33892)"
       id="g38"
       style="fill:#ffcd50;fill-rule:evenodd;stroke:#cc9933;stroke-width:0.25496691;stroke-miterlimit:4;stroke-dasharray:none">
      <path
         d="m 321.17,382.19 c 0.956,-0.432 1.924,-0.875 2.901,-1.335 l -2.073,6.796 -0.828,-5.461 z"
         id="path40" />
      <path
         d="m 321.02,381.24 c 1.034,-0.473 2.078,-0.956 3.132,-1.452 0.741,-0.308 -0.092,0.991 -0.293,1.096 -0.67,0.349 -1.688,0.843 -2.696,1.299 l -0.143,-0.943 z"
         id="path42" />
      <path
         d="m 320.87,380.2 c 1.028,-0.457 2.066,-0.922 3.113,-1.402 1.476,-0.588 0.343,0.848 -0.256,1.155 -0.671,0.344 -1.69,0.826 -2.702,1.269 l -0.15,-1.03 z"
         id="path44" />
      <path
         d="m 320.54,379.22 c 1.256,-0.59 2.518,-1.188 3.801,-1.769 1.777,-0.756 1.2,0.449 -0.278,1.231 -0.772,0.409 -1.988,0.974 -3.194,1.497 l -0.107,-0.702 -0.222,-0.257 z"
         id="path46" />
      <path
         d="m 320.09,378.7 c 1.524,-0.887 3.039,-1.833 4.616,-2.732 1.549,-0.812 1.129,0.371 -0.147,1.177 -0.927,0.586 -2.558,1.522 -3.896,2.22 l -0.57,-0.67 z"
         id="path48" />
      <path
         d="m 319.73,378.28 c 1.714,-1.356 3.403,-2.773 5.151,-4.126 1.626,-1.217 1.345,0.199 0.03,1.37 -1.03,0.918 -3.021,2.437 -4.538,3.503 l -0.643,-0.747 z"
         id="path50" />
      <path
         d="m 319.59,378.12 c 1.762,-2.016 3.532,-4.038 5.31,-6.073 1.421,-1.594 1.341,-0.174 0.231,1.311 -1.088,1.455 -3.573,4.182 -4.915,5.49 l -0.626,-0.728 z"
         id="path52" />
      <path
         d="m 319.07,377.52 c 1.674,-2.235 3.353,-4.472 5.034,-6.717 1.354,-1.788 1.393,-0.298 0.355,1.353 -1.013,1.611 -3.409,4.651 -4.718,6.142 l -0.671,-0.778 z"
         id="path54" />
      <path
         d="m 318.7,377.09 4.425,-7.365 c 1.213,-2.019 1.423,-0.472 0.524,1.371 -0.86,1.765 -2.996,5.11 -4.218,6.843 l -0.72,-0.84 z"
         id="path56" />
      <path
         d="m 318.47,376.82 c 0.8,-1.91 1.65,-3.863 2.527,-5.72 0.931,-1.921 1.242,-0.533 0.58,1.198 -0.498,1.3 -1.58,3.544 -2.478,5.252 l -0.629,-0.73 z"
         id="path58" />
      <path
         d="m 320.63,386.6 c 0.582,-0.021 1.167,-0.078 1.716,-0.177 l -0.268,0.866 c -0.221,0.043 -0.459,0.076 -0.7,0.1 -0.172,-0.109 -0.346,-0.213 -0.519,-0.311 l -0.23,-0.48 z"
         id="path60" />
      <path
         d="m 320.37,386.06 c 0.777,-0.121 1.56,-0.3 2.261,-0.552 l -0.276,0.889 c -0.456,0.184 -1.053,0.331 -1.618,0.432 l -0.367,-0.769 z"
         id="path62" />
      <path
         d="m 320.06,385.4 c 0.884,-0.185 1.776,-0.437 2.568,-0.781 0.118,-0.037 0.218,-0.063 0.303,-0.078 l -0.243,0.784 c -0.105,0.069 -0.219,0.134 -0.337,0.19 -0.52,0.256 -1.257,0.479 -1.933,0.633 l -0.36,-0.74 z"
         id="path64" />
      <path
         d="m 319.78,384.84 c 0.908,-0.264 1.823,-0.592 2.641,-1.013 1.2,-0.478 0.634,0.432 -0.232,0.908 -0.549,0.316 -1.343,0.618 -2.058,0.839 l -0.351,-0.734 z"
         id="path66" />
      <path
         d="m 319.48,384.19 c 1.029,-0.302 2.073,-0.67 3.017,-1.155 1.22,-0.496 0.671,0.408 -0.239,0.91 -0.648,0.371 -1.612,0.734 -2.425,0.984 l -0.353,-0.739 z"
         id="path68" />
      <path
         d="m 319.26,383.74 c 0.984,-0.452 1.951,-1.005 2.847,-1.609 1.172,-0.668 0.815,0.42 -0.073,1.061 -0.629,0.466 -1.614,0.9 -2.442,1.243 l -0.332,-0.695 z"
         id="path70" />
      <path
         d="m 318.96,383.11 c 1.019,-0.513 2.017,-1.14 2.933,-1.82 1.14,-0.722 0.833,0.382 -0.024,1.062 -0.657,0.536 -1.732,1.053 -2.58,1.447 l -0.329,-0.689 z"
         id="path72" />
      <path
         d="m 318.62,382.4 c 1.012,-0.553 2.146,-1.257 3.035,-1.971 1.114,-0.764 0.847,0.351 0.016,1.063 -0.683,0.601 -1.85,1.198 -2.704,1.633 l -0.36,-0.72 z"
         id="path74" />
      <path
         d="m 318.37,381.71 c 1.066,-0.601 2.087,-1.351 3.046,-2.127 1.128,-0.808 0.895,0.316 0.026,1.072 -0.714,0.634 -1.924,1.277 -2.815,1.76 l -0.256,-0.535 v -0.024 l -10e-4,-0.146 z"
         id="path76" />
      <path
         d="m 318.1,381.32 c 1.048,-0.829 2.094,-1.717 3.012,-2.716 1.009,-1.014 0.98,0.182 0.196,1.108 -0.693,0.828 -1.967,1.74 -2.827,2.405 l -0.38,-0.8 z"
         id="path78" />
      <path
         d="m 317.77,380.63 c 1.078,-0.973 2.213,-2.082 3.151,-3.225 0.961,-1.123 1.001,0.106 0.236,1.128 -0.717,0.967 -2.085,2.24 -2.95,3.011 l -0.437,-0.914 z"
         id="path80" />
      <path
         d="m 317.51,380.08 c 1.103,-1.201 2.169,-2.491 3.127,-3.86 0.878,-1.253 0.99,-0.176 0.276,0.96 -0.751,1.198 -2.211,2.864 -3.018,3.705 l -0.385,-0.805 z"
         id="path82" />
      <path
         d="m 317.3,379.64 c 0.834,-1.134 1.641,-2.693 2.403,-3.883 0.82,-1.173 0.997,0.207 0.384,1.254 -0.56,0.971 -1.773,2.385 -2.513,3.201 l -0.27,-0.57 z"
         id="path84" />
      <path
         d="m 317.04,379.11 c 0.576,-0.9 1.06,-1.938 1.548,-2.837 0.73,-1.097 0.883,-0.037 0.413,0.89 -0.356,0.731 -1.125,1.802 -1.697,2.5 l -0.264,-0.553 z"
         id="path86" />
      <path
         d="m 318.46,386.15 c -0.461,-1.001 -1.407,-1.874 -2.173,-3.261 -0.764,-1.383 -0.049,-2.648 0.725,-3.877 0.377,-0.599 0.709,-0.62 0.772,0.372 0.396,-0.497 0.644,0.111 0.468,0.751 0.448,-0.571 0.686,0.08 0.464,0.732 0.483,-0.569 0.691,0.109 0.426,0.755 0.524,-0.574 0.701,0.135 0.391,0.773 0.57,-0.583 0.715,0.157 0.36,0.787 0.62,-0.591 0.731,0.179 0.331,0.798 0.672,-0.596 0.748,0.198 0.307,0.805 0.722,-0.592 0.763,0.217 0.285,0.808 0.766,-0.576 0.772,0.238 0.264,0.813 0.803,-0.549 0.778,0.258 0.248,0.814 0.665,-0.409 0.731,-0.011 0.437,0.427 -1.12,-0.771 -2.303,-1.319 -3.305,-1.497 z"
         id="path88"
         style="stroke-linejoin:round" />
    </g>
    <path
       d="m 179.01,49.273 c 0.9978,-0.55066 2.8522,-1.6049 3.6852,-3.3008 l -0.89894,-1.2504 c -0.43928,1.4245 -1.9077,3.2365 -3.5236,3.726 l 0.73732,0.8252 z"
       id="path90"
       style="fill:#ffcd50;fill-rule:evenodd;stroke:#806600;stroke-width:0.60000002;stroke-miterlimit:4;stroke-dasharray:none" />
    <path
       d="m 182.44,43.128 c -1.6661,-1.0056 -3.6334,-2.6341 -5.1975,-6.1077 -0.85815,-0.54752 -1.7148,-0.88012 -2.7533,-1.0684 -0.32474,-0.05805 -0.67302,-0.10511 -0.62439,0.24631 -0.342,0.01255 -0.41888,0.40005 -0.26513,0.66518 -1.1562,-0.93819 -1.0307,-2.0238 -0.31534,-2.8584 -0.0502,-0.27769 -0.0267,-0.58989 0.0376,-0.86444 0.39848,-1.7022 3.1189,-3.4969 5.4831,-3.3526 1.2535,-0.28396 3.3855,0.2667 3.853,0.94911 4.14912,1.462282 11.85799,5.89314 12.466,10.872 0.10511,0.21022 0.20552,0.42202 0.30278,0.63692 l 9.1714,6.352 c 1.7728,1.2284 0.7483,3.442 -0.9319,2.1681 1.528,1.4057 0.20081,3.282 -1.288,1.6865 l -0.0471,-0.0502 c 1.3508,1.55 -0.16629,3.0984 -1.4292,1.379 l -0.14904,-0.11296 c 1.1766,1.7053 -0.53811,2.9243 -1.5751,1.0778 l -0.0361,-0.06432 c 0.67932,1.6442 -0.98206,2.3627 -1.7822,0.67462 -0.0141,1.3178 -1.6253,1.3758 -2.0709,-0.4126 l -0.08,-0.31847 c -0.0439,1.4527 -1.7492,1.2896 -1.994,-0.44241 -0.52712,0.67147 -1.7524,0.12551 -1.7634,-1.3963 l -0.0314,-4.1998 c -0.63692,-0.49889 -1.2456,-1.0699 -1.8371,-1.7085 l 0,-0.0015 c -0.78287,0.73263 -1.8497,1.3194 -3.2381,1.7555 l -2.0175,-1.2111 c -0.19924,0.07373 -0.40476,0.1459 -0.6197,0.21336 l -2.8459,-1.71 c 0.73893,-0.9978 1.2519,-1.9281 1.5782,-2.7972 z"
       id="path92"
       style="fill:#ffcd50;fill-rule:evenodd;stroke:#806600;stroke-width:0.30000001;stroke-miterlimit:4;stroke-dasharray:none" />
    <path
       d="m 182.32,34.69 0.41888,0.99305 -0.91777,-0.56478 0.49889,-0.42829 z m -0.66672,0.99151 0.41887,0.99305 -0.91776,-0.56478 0.49889,-0.42829 z m -1.0511,0.56948 0.41888,0.99305 -0.91777,-0.56478 0.49889,-0.42829 z m -1.0511,0.56949 0.41888,0.99305 -0.91777,-0.56478 0.49889,-0.42829 z m -1.2456,0.38593 0.41888,0.99151 -0.91777,-0.56478 0.49889,-0.42672 z m 5.3983,-1.0621 0.41888,0.99151 -0.91776,-0.56321 0.49889,-0.42829 z m -0.66672,0.99151 0.41887,0.99151 -0.91776,-0.56321 0.49889,-0.42829 z m -1.0511,0.56949 0.41888,0.99151 -0.91777,-0.56321 0.49889,-0.42829 z m -1.0511,0.56949 0.41887,0.99305 -0.91776,-0.56478 0.49889,-0.42829 z m -1.2456,0.38437 0.41888,0.99305 -0.91777,-0.56478 0.49889,-0.42829 z m 4.7316,-0.06903 0.41888,0.99151 -0.91777,-0.56321 0.49889,-0.42829 z m -1.0511,0.56949 0.41887,0.99151 -0.91776,-0.56321 0.49889,-0.42829 z m -1.0511,0.56949 0.41888,0.99305 -0.91777,-0.56478 0.49889,-0.42829 z m -1.2456,0.38436 0.41888,0.99305 -0.91776,-0.56478 0.49889,-0.42829 z m 3.6805,0.50046 0.41888,0.99151 -0.91776,-0.56321 0.49888,-0.42829 z m -1.0511,0.56949 0.41889,0.99305 -0.91622,-0.56478 0.49732,-0.42829 z m -1.2456,0.38436 0.41888,0.99305 -0.91776,-0.56478 0.49889,-0.42829 z m 1.7979,1.1641 0.41731,0.99305 -0.91622,-0.56478 0.49889,-0.42829 z"
       id="path94"
       style="fill:#cc9933;fill-rule:evenodd;stroke:#cc9933;stroke-width:0.15000001;stroke-linejoin:miter;stroke-miterlimit:4;stroke-dasharray:none" />
    <g
       transform="matrix(1.568831,0,0,1.568831,-316.26207,-574.33892)"
       id="g96"
       style="fill-rule:evenodd">
      <path
         d="m 314.5,386.73 c 0.109,0.285 -0.033,0.604 -0.318,0.712 -0.284,0.109 -0.603,-0.033 -0.712,-0.318 0.025,-0.399 0.742,-0.793 1.03,-0.394 z m -2.015,1.103 c 0.074,-0.028 0.158,0.009 0.187,0.084 0.028,0.075 -0.009,0.159 -0.084,0.187 -0.075,0.029 -0.159,-0.008 -0.187,-0.083 -0.029,-0.075 0.009,-0.159 0.084,-0.188 z m -0.416,-0.085 c -0.473,0.535 -0.566,1.237 0.181,1.844 -0.098,-0.169 -0.049,-0.416 0.169,-0.424 -0.031,-0.224 0.191,-0.194 0.398,-0.157 0.865,0.157 1.531,0.471 2.261,1.04 -0.605,-0.735 -1.379,-1.215 -2.221,-1.295 -0.197,-0.019 -0.094,-0.216 0.14,-0.315 0.255,-0.108 0.413,-0.093 0.576,-0.006 0.395,0.214 0.499,-0.124 0.11,-0.231 -0.448,-0.123 -0.852,0.065 -1.208,0.271 -0.523,0.274 -0.727,-0.013 -0.406,-0.727 z m 1.032,-0.359 c 0.02,0.8 0.746,0.451 0.995,0.759 0.667,0.823 0.887,0.275 1.591,0.697 0.071,-0.424 -0.045,-0.699 -0.357,-0.917 -0.171,-0.12 -0.244,-0.353 -0.099,-0.578 0.12,-0.184 0.233,-0.349 0.331,-0.576 0.352,-0.812 1.803,-0.67 1.399,0.503 0.591,-0.692 0.341,-1.32 -0.112,-1.531 -0.386,-0.181 -1.046,-0.047 -1.529,0.213 -0.323,-0.021 -0.788,0.078 -0.976,0.214 0.375,-0.619 1.507,-0.839 2.256,-0.789 -1.75,-1.034 -4.665,0.752 -4.557,2.18 0.116,-0.16 0.248,-0.278 0.396,-0.352 0.114,0.187 0.26,0.363 0.504,0.41 -0.093,-0.469 0.258,-0.848 0.632,-1.083 0.476,-0.299 0.888,-0.131 1.277,-0.216 -0.278,0.347 0.008,0.82 -0.442,1.203 -0.365,0.311 -1.001,0.337 -1.309,-0.137 z"
         id="path98"
         style="fill:#806600" />
      <path
         d="m 314.01,386.58 c 0.078,-0.03 0.167,0.009 0.197,0.088 0.03,0.079 -0.01,0.167 -0.088,0.197 -0.079,0.03 -0.167,-0.009 -0.197,-0.088 -0.03,-0.079 0.009,-0.167 0.088,-0.197 z"
         id="path100"
         style="fill:#ffffff" />
    </g>
    <g
       transform="matrix(1.568831,0,0,1.568831,-316.26207,-574.33892)"
       id="g102"
       style="fill:#ffcd50;fill-rule:evenodd;stroke:#cc9933;stroke-width:0.25496691;stroke-miterlimit:4;stroke-dasharray:none">
      <path
         d="m 324.55,396.66 0.345,3.27 c 0.137,1.291 -1.255,1.104 -1.264,-0.191 -0.009,-1.178 -0.018,-2.357 -0.027,-3.536 l 0.946,0.457 z"
         id="path104" />
      <path
         d="m 325.29,396.82 c 0.236,1.255 0.472,2.51 0.707,3.764 0.243,1.291 -1.135,1.261 -1.254,-0.048 l -0.36,-3.966 0.907,0.25 z"
         id="path106" />
      <path
         d="m 325.87,396.78 1.434,4.107 c 0.449,1.285 -0.898,1.56 -1.229,0.228 l -1.088,-4.368 0.883,0.033 z"
         id="path108" />
      <path
         d="m 326.24,396.54 c 0.74,1.42 1.479,2.84 2.219,4.261 0.615,1.181 -0.598,1.731 -1.111,0.48 l -1.841,-4.495 0.733,-0.246 z"
         id="path110" />
      <path
         d="m 326.48,395.84 c 1.026,1.488 2.053,2.975 3.079,4.463 0.75,1.087 -0.343,1.864 -1.004,0.687 l -2.473,-4.42 0.398,-0.73 z"
         id="path112" />
      <path
         d="m 326.2,394.6 c 1.449,1.625 2.898,3.25 4.347,4.876 0.885,0.992 -0.089,1.996 -0.898,0.894 l -3.24,-4.41 -0.209,-1.36 z"
         id="path114" />
      <path
         d="m 325.87,393.56 c 1.67,1.471 3.847,3.395 5.517,4.866 1.02,0.898 0.166,2.128 -0.792,1.101 l -4.37,-4.686 -0.355,-1.281 z"
         id="path116" />
      <path
         d="m 325.53,392.58 6.48,4.488 c 1.156,0.801 0.447,2.259 -0.668,1.323 l -5.338,-4.482 -0.474,-1.329 z"
         id="path118" />
    </g>
    <path
       d="m 195.16,41.448719 c -2.2242,-3.468116 -6.12766,-6.692999 -8.70268,-7.625493 l -0.84884,0.544511 c -1.17339,-0.624049 -2.15687,-1.160392 -2.75648,-1.672838 -0.10511,-1.3837 -1.6253,-2.5776 -3.18,-2.474 l -0.89894,-0.42515 c 1.2472,-0.30278 3.4138,0.25258 3.886,0.94128 4.22363,1.351679 12.28691,6.309636 12.5,11.322 z"
       id="path120"
       style="fill:#806600;fill-rule:evenodd" />
    <path
       d="m 197.01,50.311 c -2.8913,-0.18983 -5.1756,-1.4135 -7.3298,-3.4138 l 2.7564,-8.7949 c 2.8678,3.0137 5.0328,7.4379 4.5731,12.209 z"
       id="path122"
       style="fill:#ffcd50;fill-rule:evenodd" />
    <g
       transform="matrix(1.568831,0,0,1.568831,-316.26207,-574.33892)"
       id="g124"
       style="fill:#ffcd50;fill-rule:evenodd;stroke:#cc9933;stroke-width:0.25496691;stroke-linejoin:round;stroke-miterlimit:4;stroke-dasharray:none">
      <path
         d="m 327.85,375.4 c 2.34,-1.845 4.805,-3.737 7.233,-5.469 2.227,-1.554 1.71,0.18 -0.1,1.691 -1.507,1.257 -4.53,3.354 -6.66,4.707 l -0.182,-0.718 -0.291,-0.211 z"
         id="path126" />
      <path
         d="m 328.17,375.25 10.12,-5.399 c 2.643,-1.41 1.861,0.416 -0.324,1.84 -2.242,1.461 -7.265,3.943 -9.57,4.926 l -0.254,-1.002 -0.016,-0.012 0.044,-0.353 z"
         id="path128" />
      <path
         d="m 328.44,375.55 c 3.379,-1.303 6.765,-2.607 10.159,-3.916 2.668,-1.013 1.703,0.619 -0.531,1.698 -2.301,1.111 -7.337,2.897 -9.615,3.546 l -0.177,-0.703 0.164,-0.625 z"
         id="path130" />
      <path
         d="m 328.74,376.5 c 3.279,-0.989 6.571,-1.978 9.879,-2.977 2.608,-0.758 1.563,0.718 -0.636,1.569 -2.36,0.912 -7.555,2.339 -9.606,2.721 l 0.148,-0.659 -0.007,-0.03 0.222,-0.624 z"
         id="path132" />
      <path
         d="m 328.44,376.79 c 2.894,-0.31 5.806,-0.72 8.739,-1.012 2.574,-0.214 1.315,1.123 -0.893,1.498 -1.908,0.324 -5.565,0.646 -7.952,0.743 l 0.196,-0.872 -0.09,-0.357 z"
         id="path134" />
      <path
         d="m 328.46,377.43 c 2.397,0.09 4.827,0.086 7.298,0.188 2.218,0.171 0.966,1.163 -0.953,1.17 -1.619,0.006 -4.58,-0.119 -6.579,-0.316 l 0.234,-1.042 z"
         id="path136" />
      <path
         d="m 328.29,378.21 c 2.01,0.247 4.034,0.48 6.074,0.756 2.427,0.384 0.99,1.294 -1.131,1.139 -1.28,-0.093 -3.34,-0.361 -5.22,-0.663 l 0.277,-1.232 z"
         id="path138" />
      <path
         d="m 328,379.47 c 1.664,0.24 3.352,0.477 5.066,0.701 2.1,0.383 0.779,1.232 -1.056,1.073 -1.075,-0.093 -2.744,-0.294 -4.289,-0.535 l 0.28,-1.23 z"
         id="path140" />
      <path
         d="m 327.72,380.74 c 1.601,0.211 3.225,0.42 4.873,0.618 2.099,0.351 0.779,1.129 -1.057,0.983 -1.029,-0.082 -2.603,-0.254 -4.091,-0.463 l 0.07,-0.23 0.205,-0.908 z"
         id="path142" />
      <path
         d="m 327.44,381.89 c 1.603,0.219 3.234,0.433 4.897,0.628 2.003,0.358 0.692,1.213 -1.063,1.068 -1.063,-0.087 -2.711,-0.264 -4.207,-0.484 l 0.373,-1.212 z"
         id="path144" />
      <path
         d="m 327.18,382.73 c 1.66,0.322 3.356,0.638 5.091,0.922 1.919,0.453 0.734,1.275 -0.933,1.044 -1.147,-0.159 -2.985,-0.446 -4.525,-0.773 l 0.367,-1.193 z"
         id="path146" />
      <path
         d="m 326.83,383.87 c 1.629,0.365 3.301,0.589 5.018,0.899 2.106,0.311 0.692,1.432 -0.915,1.17 -1.149,-0.188 -2.981,-0.508 -4.473,-0.869 l 0.37,-1.2 z"
         id="path148" />
      <path
         d="m 326.52,384.87 c 1.677,0.404 3.407,0.704 5.194,1.029 1.964,0.472 0.652,1.374 -0.907,1.105 -1.214,-0.21 -3.165,-0.608 -4.637,-0.999 l 0.35,-1.135 z"
         id="path150" />
      <path
         d="m 326.29,385.63 c 1.759,0.57 3.588,1.122 5.492,1.595 1.734,0.561 0.605,1.31 -0.91,0.94 -1.33,-0.324 -3.506,-0.885 -4.929,-1.407 l 0.347,-1.128 z"
         id="path152" />
      <path
         d="m 326.09,386.28 c 1.669,0.719 3.394,1.487 5.209,2.072 1.714,0.678 0.588,1.349 -0.913,0.874 -1.293,-0.409 -3.331,-1.109 -4.711,-1.732 l 0.069,-0.092 0.346,-1.122 z"
         id="path154" />
      <path
         d="m 325.82,387.16 c 1.565,0.841 3.214,1.54 4.952,2.303 1.591,0.792 0.276,1.371 -1.136,0.765 -1.244,-0.534 -3.084,-1.525 -4.303,-2.274 l 0.411,-0.548 0.076,-0.246 z"
         id="path156" />
      <path
         d="m 325.58,387.62 c 1.416,1.015 2.917,2.01 4.508,2.928 1.52,0.955 0.168,1.284 -1.192,0.528 -1.154,-0.642 -2.77,-1.799 -3.896,-2.684 l 0.58,-0.772 z"
         id="path158" />
      <path
         d="m 325.32,387.97 c 1.291,1.177 2.669,2.333 4.14,3.409 1.447,1.118 0.06,1.266 -1.249,0.359 -1.063,-0.736 -2.466,-1.979 -3.493,-2.967 l 0.602,-0.801 z"
         id="path160" />
      <path
         d="m 325.02,388.36 c 1.072,1.2 2.218,2.377 3.442,3.487 1.376,1.282 -0.071,1.272 -1.328,0.215 -0.861,-0.725 -1.897,-1.843 -2.758,-2.845 l 0.644,-0.857 z"
         id="path162" />
      <path
         d="m 324.63,388.88 c 0.85,1.142 1.756,2.263 2.721,3.332 1.304,1.446 -0.063,1.277 -1.269,0.069 -0.66,-0.661 -1.423,-1.596 -2.118,-2.515 l 0.666,-0.886 z"
         id="path164" />
      <path
         d="m 325.18,378.71 c 1.828,-0.4 3.688,-0.862 5.472,-1.546 1.77,-0.637 1.04,0.747 -0.448,1.396 -1.463,0.643 -3.778,1.132 -5.199,1.431 l 0.175,-1.281 z"
         id="path166" />
      <path
         d="m 325.04,379.72 c 1.689,-0.257 3.413,-0.581 5.065,-1.11 1.755,-0.485 0.969,0.818 -0.481,1.347 -1.337,0.499 -3.425,0.702 -4.796,0.903 l 0.212,-1.14 z"
         id="path168" />
      <path
         d="m 325.12,380.31 c 1.558,0.007 3.158,-0.18 4.707,-0.434 1.756,-0.184 0.791,0.912 -0.647,1.201 -1.304,0.276 -3.278,0.188 -4.585,0.166 l 0.435,-0.771 0.09,-0.162 z"
         id="path170" />
      <path
         d="m 325,381.29 c 1.507,0.034 3.065,-0.087 4.557,-0.325 1.711,-0.144 0.715,0.921 -0.652,1.184 -1.267,0.262 -3.196,0.138 -4.425,0.084 l 0.52,-0.93 z"
         id="path172" />
      <path
         d="m 325.51,377.02 c 1.143,-0.742 2.252,-1.698 3.293,-2.487 1.42,-0.89 1.042,0.419 0.012,1.249 -0.833,0.692 -2.182,1.462 -3.215,1.962 l -0.138,-0.349 0.048,-0.375 z"
         id="path174" />
      <path
         d="m 325.58,377.38 c 1.664,-0.722 3.242,-1.862 4.876,-2.72 1.644,-0.78 0.971,0.857 -0.365,1.628 -1.271,0.745 -3.256,1.456 -4.569,1.882 l 0.058,-0.79 z"
         id="path176" />
      <path
         d="m 325.13,378 c 1.995,-0.638 4.006,-1.399 5.947,-2.318 1.761,-0.833 1.205,0.428 -0.298,1.235 -1.644,0.882 -4.446,1.842 -5.822,2.24 l 0.17,-1.16 z"
         id="path178" />
      <path
         d="m 324.71,382.23 c 1.505,0.09 3.067,0.027 4.566,-0.157 1.716,-0.08 0.681,0.947 -0.695,1.16 -1.275,0.214 -3.199,0.019 -4.425,-0.08 l 0.554,-0.923 z"
         id="path180" />
      <path
         d="m 324.42,383.07 c 1.499,0.159 3.062,0.169 4.568,0.054 1.717,0 0.637,0.978 -0.748,1.127 -1.284,0.155 -3.197,-0.128 -4.417,-0.284 l 0.597,-0.897 z"
         id="path182" />
      <path
         d="m 324.46,383.68 c 1.425,0.349 2.928,0.638 4.386,0.7 1.662,0.22 0.485,0.874 -0.837,0.856 -1.244,0.002 -3.079,-0.351 -4.195,-0.661 l 0.646,-0.895 z"
         id="path184" />
      <path
         d="m 324.1,384.51 c 1.356,0.354 2.798,0.639 4.175,0.697 1.628,0.228 0.429,0.876 -0.828,0.858 -1.164,0.004 -2.873,-0.342 -3.927,-0.655 l 0.58,-0.9 z"
         id="path186" />
      <path
         d="m 323.85,385.19 c 1.325,0.474 2.772,0.88 4.136,1.028 1.584,0.332 0.323,0.908 -0.87,0.815 -1.162,-0.07 -2.874,-0.572 -3.824,-0.969 l 0.558,-0.874 z"
         id="path188" />
      <path
         d="m 323.48,385.92 c 1.304,0.58 2.778,1.087 4.14,1.3 1.554,0.392 0.245,0.935 -0.89,0.798 -1.178,-0.122 -2.938,-0.774 -3.766,-1.226 l 0.516,-0.872 z"
         id="path190" />
      <path
         d="m 323.34,386.46 c 1.21,0.754 2.642,1.441 3.949,1.803 1.503,0.537 0.117,0.976 -0.953,0.732 -1.174,-0.25 -2.912,-1.176 -3.575,-1.71 l 0.421,-0.678 0.158,-0.147 z"
         id="path192" />
      <path
         d="m 323.27,387.19 c 1.086,0.862 2.41,1.649 3.599,2.113 1.462,0.645 0.011,1.012 -0.997,0.689 -1.195,-0.371 -2.967,-1.616 -3.405,-2.166 0.268,-0.212 0.535,-0.424 0.803,-0.636 z"
         id="path194" />
      <path
         d="m 322.86,387.99 c 0.99,0.94 2.233,1.793 3.322,2.329 1.444,0.71 -0.029,0.945 -1.023,0.676 -1.313,-0.356 -3.863,-2.743 -4.017,-3.444 l 1.718,0.439 z"
         id="path196" />
      <path
         d="m 319.87,387.84 c 1.822,-0.384 2.76,-4.007 3.67,-7.734 0.037,-1.248 0.831,-2.357 2.106,-3.272 0.753,-0.493 1.208,-0.172 0.447,0.837 0.794,-0.151 0.529,0.641 -0.172,1.113 0.906,-0.179 0.596,0.646 -0.159,1.09 0.939,-0.148 0.576,0.679 -0.216,1.082 0.983,-0.119 0.565,0.712 -0.264,1.07 1.034,-0.089 0.56,0.745 -0.305,1.058 1.089,-0.056 0.557,0.779 -0.343,1.045 1.143,-0.018 0.559,0.81 -0.371,1.03 1.188,0.028 0.556,0.842 -0.396,1.016 1.218,0.08 0.549,0.87 -0.418,1.003 1.23,0.137 0.536,0.894 -0.437,0.991 1.085,0.174 0.646,0.691 -0.146,0.822 -0.35119,0.0581 -0.74817,-0.0252 -1.0312,-0.15214"
         id="path198" />
    </g>
    <path
       d="m 183.67,46.7 c -0.39848,-0.02196 -0.7891,-0.29337 -1.0025,-0.82365 -0.26199,0.47222 -0.64791,0.66672 -1.015,0.64167 m 3.2381,-1.914 c -0.55066,0.43457 -1.3445,0.24631 -1.6834,-0.59773 -0.34985,0.62599 -0.91777,0.76404 -1.368,0.54752"
       id="path200"
       style="fill:none;stroke:#cc9933;stroke-width:0.40000001;stroke-miterlimit:4;stroke-dasharray:none" />
    <path
       d="m 194.46,42.803 c 0.39535,0.84402 -0.37809,1.6174 -1.1955,1.277 0.35142,0.88327 -0.342,1.641 -1.3162,1.3037 0.34828,0.96485 -0.46751,1.5767 -1.2802,1.2378 0.18356,0.44869 0.0377,0.855 -0.25886,1.0794 m 3.0984,-6.3755 c 0.39378,0.84402 -0.37965,1.6159 -1.197,1.2754 0.30906,0.77502 -0.18669,1.4543 -0.96954,1.3806 m 1.2127,-4.1354 c 0.29494,0.63223 -0.0628,1.2221 -0.60242,1.3382 m 4.1731,7.3298 c 0.35299,0.88481 -0.34044,1.6426 -1.3147,1.3037 m 1.4747,-3.0467 c -0.23846,0.30592 -0.66832,0.45025 -1.1123,0.26513 0.35141,0.88327 -0.34201,1.6426 -1.3162,1.3037 0.24317,0.67771 -0.0847,1.1813 -0.58359,1.3037 m 2.143,-5.3622 c 0.39377,0.84562 -0.37966,1.6174 -1.197,1.277 0.35142,0.88327 -0.342,1.6426 -1.3162,1.3037 0.34828,0.96485 -0.46751,1.5767 -1.2802,1.2378 0.091,0.22121 0.10041,0.433 0.0518,0.61655"
       id="path202"
       style="fill:none;stroke:#cc9933;stroke-width:0.40000001;stroke-miterlimit:4;stroke-dasharray:none" />
    <path
       d="m 183.93,46.413 -0.002,-0.0015"
       id="path204"
       style="fill:none;stroke:#cc9933;stroke-width:0.88941574" />
    <path
       d="m 190.26,45.176 c -0.15532,-0.10982 -0.29651,-0.26827 -0.40476,-0.47693 -0.39221,0.88641 -1.5249,0.80792 -1.8167,-0.06432 -0.45182,0.87852 -1.5186,0.855 -1.9187,-0.13963 -0.32788,0.58829 -0.8613,0.7185 -1.2833,0.51458 m 6.1575,-5.1128 c -0.49889,0.34043 -1.2158,0.13806 -1.4386,-0.53026 -0.40633,0.7891 -1.31,0.85031 -1.7791,0.13335 m 3.4341,2.1195 c -0.13178,-0.10668 -0.25101,-0.25102 -0.34514,-0.43143 -0.39221,0.88481 -1.5249,0.80638 -1.8167,-0.06589 -0.45025,0.88012 -1.5186,0.855 -1.9187,-0.13963 -0.32945,0.59304 -0.86759,0.7201 -1.2912,0.50987 m 2.9729,5.5176 c -0.48163,0.20395 -1.0794,-0.0204 -1.2786,-0.6181 -0.45182,0.87852 -1.5202,0.85346 -1.9187,-0.13963 -0.2463,0.44084 -0.60871,0.62439 -0.95386,0.60088 m 6.4745,-3.2726 c -0.29337,-0.05648 -0.58514,-0.26984 -0.77502,-0.63692 -0.39221,0.88641 -1.5249,0.80638 -1.8167,-0.06432 -0.45183,0.87852 -1.5202,0.85346 -1.9187,-0.13963 -0.27298,0.48948 -0.68715,0.66049 -1.0621,0.58829"
       id="path206"
       style="fill:none;stroke:#cc9933;stroke-width:0.40000001;stroke-miterlimit:4;stroke-dasharray:none" />
    <path
       d="m 185.56,34.121 c 2.8584,-0.60088 4.33,-6.2845 5.7576,-12.133 0.058,-1.9579 1.3037,-3.6977 3.3024,-5.1316 0.25258,-0.1663 0.4832,-0.27141 0.67771,-0.32318 1.4825,-1.0511 2.9196,-2.2669 4.2814,-3.2992 0.28396,-0.17728 0.52085,-0.29965 0.71536,-0.37338 2.9933,-2.3297 6.0791,-4.6641 9.1273,-6.8383 3.4734,-2.4238 2.6921,0.24787 -0.10512,2.6074 l 5.1348,-2.7408 c 4.1464,-2.2105 2.9196,0.65265 -0.5083,2.8866 -0.38908,0.25258 -0.83149,0.52556 -1.3131,0.81267 l 2.3203,-0.89579 c 4.1857,-1.5892 2.6717,0.97108 -0.83304,2.6639 -1.1656,0.56321 -2.78,1.2363 -4.5496,1.9249 1.801,-0.54281 3.6036,-1.0856 5.4093,-1.6316 4.0915,-1.1892 2.4521,1.1264 -0.99935,2.4615 -1.0746,0.41574 -2.5274,0.90049 -4.126,1.3931 0.95226,-0.10668 1.9046,-0.21022 2.8568,-0.30592 4.0397,-0.33573 2.0646,1.7618 -1.401,2.3501 -0.8895,0.15061 -2.0238,0.30122 -3.2757,0.44398 0.81736,0.02196 1.6379,0.04863 2.4615,0.08315 3.4797,0.26827 1.5155,1.823 -1.4967,1.834 l -2.9243,0.08628 2.2262,0.19296 c 3.8076,0.60402 1.5531,2.0316 -1.7744,1.7884 l -1.8481,-0.21493 1.5939,0.32789 c 3.2946,0.60088 1.2221,1.9312 -1.6567,1.6818 l 0.90363,0.18355 c 3.2961,0.55066 1.2237,1.7712 -1.6567,1.5422 l 1.2614,0.26827 c 2.7439,0.49105 1.5233,1.5767 -0.66518,1.6912 0.18669,0.03138 0.37495,0.06275 0.56164,0.09413 2.816,0.66364 1.3696,1.834 -0.97108,1.6865 0.10354,0.01726 0.20551,0.03608 0.30906,0.05491 2.6199,0.38593 1.7681,1.572 0.0471,1.8418 2.6011,0.72479 0.85031,1.9736 -1.3963,1.7085 0.40947,0.10825 0.82366,0.21336 1.2378,0.3169 2.7203,0.88012 0.94911,2.0536 -1.4276,1.4732 l 0.67302,0.28553 c 2.689,1.0636 0.92245,2.1164 -1.4324,1.3728 l 0.60557,0.36554 c 2.496,1.2409 0.433,2.1493 -1.7822,1.1986 l 0.71227,0.5083 c 2.1446,1.3492 0.64006,1.903 -1.2378,1.1327 0.08,0.05961 0.16002,0.11766 0.24003,0.17728 2.0442,1.5783 0.48791,1.9249 -1.3398,0.94288 1.6472,1.6645 -0.0894,1.7273 -1.8653,0.46281 1.892,2.1587 -0.21807,1.8732 -2.0803,0.0078 -0.61026,-0.61341 -1.2786,-1.3743 -2.112,-2.4834 0.77937,0.86446 1.6188,2.1933 2.2714,3.6397 l 9.1713,6.352 c 1.7728,1.2284 0.74831,3.442 -0.93189,2.1681 1.528,1.4056 0.20081,3.282 -1.288,1.6865 l -0.0471,-0.0502 c 1.3508,1.55 -0.16629,3.0984 -1.4292,1.379 l -0.13,-0.114 c 1.1766,1.7053 -0.53811,2.9243 -1.5751,1.0778 l -0.0361,-0.06432 c 0.67932,1.6442 -0.98206,2.3627 -1.7822,0.67462 -0.0141,1.3178 -1.6253,1.3758 -2.0709,-0.4126 l -0.08,-0.31847 c -0.0439,1.4527 -1.7492,1.2896 -1.994,-0.44241 -0.52712,0.67147 -1.7524,0.12551 -1.7634,-1.3963 l -0.0314,-4.1998 c -0.63691,-0.49889 -1.2456,-1.0699 -1.8371,-1.7085 m -12.51,-10.247 c 1.859,4.3755 4.3472,5.9739 6.2124,6.9733 0.61501,0.32789 1.1688,0.61186 1.6206,0.93819 m -2.4536,-1.4527 c -0.32632,0.87852 -0.84248,1.8199 -1.5924,2.8317 l 2.8459,1.71 c 0.21493,-0.06746 0.42045,-0.13963 0.6197,-0.21336 m 0.90311,-7.576 c 0.67147,1.881 0.42515,4.1982 -1.7085,7.0752 l 2.8475,1.71 c 4.1103,-1.2896 5.4156,-3.9127 4.8069,-7.6999 m -7.8092,-9.4671 c -0.72325,-1.5704 -2.2073,-2.94 -3.4091,-5.116 -1.1986,-2.1697 -0.0769,-4.1542 1.1374,-6.0826 0.17256,-0.27454 0.33886,-0.47065 0.48947,-0.57422 0.71696,-1.2268 1.3508,-2.5541 1.9892,-3.7291 0.13963,-0.20866 0.26514,-0.36867 0.37809,-0.4832 1.0856,-2.5619 2.2246,-5.1489 3.395,-7.6261 1.4606,-3.0137 1.9485,-0.83618 0.90678,1.8858 l 2.4333,-4.046 c 1.903,-3.1675 2.2324,-0.74047 0.82205,2.1509 -0.23376,0.48163 -0.53026,1.0386 -0.86753,1.6442 l 1.5782,-2.1069 c 2.1242,-2.8051 2.1854,-0.46751 0.55694,2.1226 -0.54282,0.86284 -1.3367,1.9862 -2.2309,3.1847 0.97423,-1.1139 1.9501,-2.2293 2.9259,-3.3479 2.2293,-2.5007 2.1038,-0.27298 0.3624,2.0568 -0.54438,0.7264 -1.31,1.6551 -2.1682,2.6497 0.58829,-0.46908 1.1798,-0.93504 1.7759,-1.3963 2.5509,-1.9093 2.1101,0.3122 0.0471,2.1493 -0.53026,0.47378 -1.2221,1.0464 -1.9971,1.6645 0.55379,-0.32789 1.1123,-0.65265 1.674,-0.97268 2.4301,-1.2739 1.7712,0.58206 -0.23062,1.8465 l -0.34828,0.47693 c 0.59459,-0.25258 1.0197,-0.36554 1.3006,-0.37495"
       id="path208"
       style="fill:none;stroke:#806600;stroke-width:0.60000002;stroke-linejoin:round;stroke-miterlimit:4;stroke-dasharray:none" />
  </g>
  <g
     transform="matrix(2.7421998,0,0,2.7421998,-692.07729,-1107.1876)"
     id="g14"
     style="fill-rule:evenodd">
    <path
       d="m 287.36,460.29 20.483,0 0,31.721 -7.48,13.085 -5.523,0 -7.48,-13.085 0,-31.721 z"
       id="path16"
       style="fill:#000000" />
    <path
       d="m 295.32,467.36 4.562,0 0,20.43 -4.562,0 0,-20.43 z"
       id="path18"
       style="fill:#d40000" />
  </g>
  <g
     transform="matrix(2.7421998,0,0,2.7421998,-692.07729,-1107.1876)"
     id="g20"
     style="fill-rule:evenodd">
    <path
       d="m 326.43,480.08 -2.602,0 c -0.043,0 -0.077,-0.026 -0.077,-0.059 l -0.238,-19.336 c 0,-0.522 3.253,-0.523 3.253,0 l -0.259,19.336 c 0,0.033 -0.034,0.059 -0.077,0.059 z"
       id="path22"
       style="fill:#d40000" />
    <path
       d="m 330.18,479.59 -8.029,0 -3.186,-2.042 0,-1.396 11.215,0 0,3.438 z"
       id="path24"
       style="fill:#000000" />
    <path
       d="m 323.86,481.61 2.603,0 c 0.042,0 0.076,0.026 0.077,0.058 l 0.238,19.337 c 0,0.522 -3.253,0.522 -3.253,0 l 0.259,-19.337 c 0,-0.032 0.034,-0.058 0.076,-0.058 z"
       id="path26"
       style="fill:#d40000" />
    <path
       d="m 320.12,482.1 8.029,0 3.185,2.042 0,1.395 -11.214,0 0,-3.437 z"
       id="path28"
       style="fill:#000000" />
  </g>
  <path
     d="m 45.498,155.05 -3.9351,-0.0274 -0.06856,5.9944 c -8.5118,6.2166 -9.2001,14.114 -1.2422,21.598 l 10.596,9.9679 2.2486,73.255 c 0.07678,2.5036 4.7769,2.5365 4.7385,0.0329 l -1.21,-77.26 -10.701,-9.95 c -5.967,-5.55 -6.649,-10.63 -0.521,-15.44 l 0.09323,-8.169 z"
     id="path30"
     style="fill:#000000;fill-rule:evenodd" />
  <path
     d="m 51.418,155.05 3.9351,-0.0274 0.06855,5.9944 c 8.509,6.2166 9.2001,14.114 1.2422,21.598 l -10.596,9.9679 -2.2513,73.255 c -0.07678,2.5036 -4.7742,2.5365 -4.7358,0.0329 l 1.2066,-77.261 10.703,-9.9514 c 5.967,-5.5502 6.6471,-10.634 0.51828,-15.439 l -0.09049,-8.169 z"
     id="path32"
     style="fill:#000000;fill-rule:evenodd;stroke:#ffffff;stroke-width:3;stroke-miterlimit:4;stroke-dasharray:none" />
  <path
     d="m 51.418,155.05 3.9351,-0.0274 0.06855,5.9944 c 8.509,6.2166 9.2001,14.114 1.2422,21.598 l -10.596,9.9679 -2.2513,73.255 c -0.07678,2.5036 -4.7742,2.5365 -4.7358,0.0329 l 1.2066,-77.261 10.703,-9.9514 c 5.967,-5.5502 6.6471,-10.634 0.51828,-15.439 l -0.09049,-8.169 z"
     id="path34"
     style="fill:#000000;fill-rule:evenodd;stroke-width:0" />
  <path
     d="m 48.457,184.23 c -0.79906,0 -1.4493,0.64771 -1.4493,1.4506 0,0.79952 0.65022,1.4506 1.4493,1.4506 0.80168,0 1.4519,-0.65107 1.4519,-1.4506 0,-0.80288 -0.65022,-1.4506 -1.4519,-1.4506 z"
     id="path36"
     style="fill:#000000;fill-rule:evenodd;stroke:#ffffff;stroke-width:1.29999995;stroke-miterlimit:4;stroke-dasharray:none" />
  <path
     d="m 247,1.0001 0,214.77 c 0,82.42 -84.912,44.012 -123,82.791 -38.089,-38.77 -123,-0.37 -123,-82.79 V 1.0011 z"
     id="path236"
     style="fill:none;stroke:#000000;stroke-width:2;stroke-miterlimit:4;stroke-dasharray:none" />
  <g
     transform="matrix(0.62421276,0,0,0.62421276,204.03308,-9.85951)"
     id="g3781">
    <path
       d="m -203.29944,159.80395 0.12552,0 c -0.36004,-1.53018 -0.8101,-2.79033 -2.52031,-3.42041 -0.99012,-0.36004 -2.16026,-0.8101 -3.15038,-0.99012 -1.44017,-0.18002 -2.5203,0.72009 -3.60043,0.8101 -1.80022,0.27003 -3.3304,0.09 -4.1405,1.35016 -5.52217,4.90835 -9.76331,6.57292 -12.64191,7.82032 -0.53331,0.88348 -1.09013,1.78922 -1.65957,2.63795 -0.99187,1.47805 -1.60357,2.57056 -2.79072,3.09325 -0.18639,1.35053 -0.48905,2.68307 -0.88023,3.98923 1.79247,0.8136 2.02137,1.35979 4.38078,0.0112 2.07025,-1.26015 4.50055,-4.05049 6.21075,-5.94072 1.35017,-1.44017 4.14051,-3.87047 6.84083,-5.85071 1.17014,-0.90011 2.25027,-1.89023 3.42042,-2.70032 0.99012,-0.63008 2.25027,-0.36005 3.24039,-0.45006 0.54006,0.18002 1.08013,0.72009 1.89023,1.35017 0.58644,0.51306 1.2934,0.60769 1.97311,0.38204 -0.33242,-1.2559 -1.29416,-1.90523 -1.97236,-2.90197 l 0.43792,-0.24566 c 0.78072,1.10639 1.8201,1.11064 2.35416,2.4523 0.28566,0.0496 0.5967,0.0666 0.94362,0.0323 -0.12577,-0.55957 -0.57407,-3.08025 -2.05675,-3.24539 l 0.44155,-0.41318 c 1.05,0.26154 1.6447,0.87423 2.04688,1.74422 -0.33029,-0.96775 -0.88099,-1.74522 -1.80122,-1.97424 l 0.31679,-0.42768 c 1.45967,0.4398 2.05287,1.25878 2.59143,2.8871"
       id="path3537"
       style="fill:#ffcc50;fill-opacity:1;fill-rule:evenodd;stroke:none" />
    <g
       transform="translate(-198.77549,-8.6674115)"
       id="g3149">
      <path
         d="m -6.41442,158.93934 -1.09364,0 0.18077,0.59432 -1.1025,0.0936 0.2204,0.8256 c -0.72534,0.0344 -1.47418,0.11552 -2.19952,0.0404 l 0.0623,0.45431 c -2.24452,0.87786 -3.76196,0.0996 -5.34465,-2.06238 l -3.155,-0.12376 4.60941,-5.54516 c 6.52714,-1.12051 7.46238,3.58443 7.82243,5.72307 z"
         id="path3563"
         style="fill:#003d8f;fill-opacity:1;fill-rule:nonzero;stroke:none" />
      <path
         d="m -41.54142,194.33524 c 2.71845,-3.90234 4.82346,-9.39476 5.58992,-14.2741 -2.53205,0.35542 -5.48254,0.45606 -8.03472,0.43518 -4.04486,-0.034 -9.16273,-0.25378 -12.71066,-2.47643 l 0.15239,-0.48368 c 3.53243,1.62482 8.78769,1.93348 12.56602,1.96499 2.42142,0.0199 4.79183,-0.36605 7.196,-0.38017 2.59394,-0.0135 3.92672,-3.05225 5.10787,-4.98611 2.02424,-3.3144 4.83333,-6.81745 7.57966,-9.81506 1.61707,-1.76584 3.14301,-3.83684 4.93472,-5.38965 1.17015,-0.72009 2.52031,-0.45005 3.60044,-0.54007 0.54006,0.18003 1.17014,0.8101 1.98024,1.44018 0.65133,0.50669 1.35966,0.6067 2.12726,0.3923 -0.25578,-1.86398 -1.73246,-2.01075 -2.05175,-3.09163 l 0.43618,-0.26966 c 0.73783,1.04151 1.9246,0.65346 2.46217,2.59657 0.31191,0.0659 0.69396,0.0783 1.11313,0.0584 -0.30478,-1.14176 -0.99399,-3.15926 -2.24889,-3.5398 l 0.50081,-0.3888 c 1.43805,0.46743 2.08612,1.6117 2.53518,3.06037 l 0.0669,-0.006 c -0.37629,-1.23927 -0.95711,-2.94411 -2.33241,-3.32615 l 0.32817,-0.4298 c 1.53756,0.44217 2.15063,1.38341 2.6982,3.05362 l 0.21578,0 c -0.45006,-1.6202 -0.8101,-2.97036 -2.70033,-3.60044 -1.08013,-0.45005 -2.25027,-0.99012 -3.42041,-1.08013 -1.53019,-0.27003 -2.70033,0.72009 -3.87047,0.90011 -1.89023,0.27003 -3.51043,0 -4.9506,1.7102 -2.027,2.55606 -3.92085,4.58481 -5.65193,6.24013 -2.53131,2.41967 -5.24901,4.82734 -7.95884,7.03286 -1.03163,0.8396 -1.92786,1.74246 -2.57206,3.00123 -1.92249,-1.16476 -3.88747,-1.93448 -6.00985,-2.65357 -1.63183,-0.55244 -2.90836,-0.96849 -4.3219,-2.01249 -0.99762,-0.73772 -1.93274,-1.51881 -4.11,-1.29941 l 0.10489,-0.57632 c 1.76409,-0.20265 2.83922,-0.22503 4.5983,1.07563 1.32604,0.97975 2.50968,1.34654 4.04912,1.86785 1.8821,0.63783 3.53418,1.19702 5.31102,2.21165 0.60307,-0.94549 1.45817,-1.71871 2.34903,-2.4218 -1.05238,-3.71945 -1.52618,-6.99672 -1.26965,-9.13535 0.27003,-3.15038 -0.18003,-7.29088 2.61031,-9.00109 0.82323,-0.48869 1.4398,-0.86611 1.98374,-1.13651 -2.51318,-0.41993 -3.71445,-1.17577 -4.57993,-2.18752 l 0.33179,-0.37279 c 1.52694,1.35754 3.92848,1.57656 5.85884,1.76471 1.27215,0.12377 2.47455,0.45681 3.71057,0.62158 0.98237,0.13326 2.37191,-0.23778 3.09588,-0.9585 1.6567,-1.64794 -2.63482,-2.69895 -3.11888,-2.74995 -0.85723,-0.0908 -1.69208,-0.17965 -2.37716,-0.62308 l 0.50993,-0.28278 c 1.8091,-0.39017 3.27802,-1.16514 4.03637,-2.17614 l 0,0 c 1.08013,-0.18002 1.53018,-0.90011 1.62019,-2.25027 0.051,-0.81648 -0.0723,-1.66133 -0.46668,-2.4863 0.28979,1.47918 -1.03475,2.75808 -2.69783,2.55356 -0.68608,-0.0839 -1.85797,-0.53582 -2.02637,-1.29241 -0.18714,-0.84198 0.90261,-1.26503 1.48906,-1.54106 0.79697,-0.3753 1.61494,-0.76084 1.56244,-1.44593 -0.008,-0.10839 0.0482,-0.19027 0.12689,-0.23315 -0.72859,-0.6527 -2.33466,-0.55782 -4.37153,-0.87498 -1.84947,-0.28666 -3.89322,-0.22753 -4.45729,-2.48343 l 0.44468,-0.23565 c 0.33104,0.77959 0.55182,1.12414 1.36829,1.25703 -0.25803,-0.94024 -0.91611,-1.75984 -1.68295,-2.03875 -1.17015,-1.6202 -2.70033,-3.06037 -4.23052,-4.1405 0.09,-2.70033 -0.63007,-5.49066 -2.88034,-8.46102 -0.8101,-1.08013 -2.25028,-1.6202 -2.25028,0.54006 0.09,3.15038 -1.62019,5.49067 -2.43029,8.281 -0.53869,0.17965 -1.03625,0.43981 -1.46893,0.7786 0.26303,0.43292 0.4288,0.93336 0.56382,1.60919 l -0.89011,0.44506 c -0.60882,-2.13651 -0.72046,-2.6567 -3.60543,-4.00299 -0.72009,-0.27003 -1.44018,-0.54006 -1.80022,-0.36004 -0.70484,0.35217 -0.0978,1.8626 0.292015,2.64451 0.389815,0.7819 0.558465,1.6295 0.551465,2.54212 -0.0156,2.12225 -0.97562,4.36227 -0.28066,6.44853 l -0.94487,0.31253 c -0.88448,-2.60356 0.30129,-4.62068 0.23966,-6.8462 -0.86861,2.79184 -2.39279,6.4184 -2.10751,11.91057 0.27003,6.48078 -5.76069,13.14158 -5.94072,18.72226 -0.09,2.70033 -0.45005,2.70033 -1.08013,4.77058 -2.39491,7.93296 1.16552,16.72464 -6.33839,25.89613 -1.52618,1.86547 -3.33103,3.98536 -5.91059,5.86671 -5.65118,1.61669 -9.17711,-2.11601 -7.95921,-8.24487 0.52056,-2.61982 5.34927,-6.47691 9.79743,-4.22276 0.5702,-3.2404 -1.31828,-5.63906 -4.9641,-5.63094 l 1.028,-0.73246 c -1.59319,-0.12976 -3.81296,0.4418 -4.87471,0.91886 l 0.79409,-1.24277 c -1.4383,0.24128 -3.11312,1.20164 -4.19325,2.54718 l 0.39654,-1.63757 c -1.55531,0.70596 -3.01186,2.20601 -3.78395,3.87372 l -0.0773,-1.69108 c -1.12239,1.13401 -1.96399,3.00898 -2.39592,4.44378 l -0.41042,-1.56481 c -0.82885,1.7052 -0.982,3.90447 -0.85648,5.54904 l -0.85898,-1.50043 c -0.14602,1.66495 0.25053,3.78796 0.70096,5.05799 l -1.13226,-0.69483 c 0.47518,1.62019 1.28353,2.83459 2.19639,3.96685 l -1.21902,-0.0649 c 0.78309,1.50318 1.87385,2.62594 3.27302,3.38528 l -1.29453,0.23078 c 1.028,1.06913 2.77083,1.84097 3.9176,2.20277 l -1.25666,0.51343 c 1.35017,0.90011 3.77021,1.56957 5.12037,1.92961 l -1.71596,0.46106 c 1.41505,0.79734 3.18476,0.99649 4.70082,0.77997 -1.8636,0.99787 -2.52805,2.14563 -3.02349,3.61781 l 1.30904,-0.71871 c -0.42918,0.86673 -1.2169,2.04937 -1.09714,3.88497 l 0.70409,-0.93512 c -0.12864,1.8041 0.0305,3.26377 0.79172,4.88147 2.61031,4.77058 -1.17014,5.67069 -3.51043,8.281 -0.99012,1.08013 -1.62019,2.16026 -1.44017,3.96048 0.27003,2.16026 1.17014,4.23051 0.99012,6.48078 -0.27003,3.96048 -0.72009,8.01097 -0.09,12.15147 1.6202,1.08013 2.16026,2.25028 2.07025,3.42042 -0.09,1.44017 0.54006,2.16026 2.07025,2.34028 0.8101,0.09 1.6202,0.63008 2.5203,1.44018 0.8271,0.60169 1.71759,0.76259 2.61807,0.4323 -0.30291,-1.83923 -1.58507,-2.10388 -2.2594,-3.26727 l 0.59745,-0.11952 c 0.81897,0.92599 2.23927,0.86473 2.66732,3.14688 0.5727,0.25091 1.46568,0.27991 2.55681,-0.0354 -0.71046,-1.34703 -1.95998,-3.17838 -3.57768,-3.68907 l 0.6552,-0.28491 c 1.80622,0.24916 2.80622,1.64608 3.66882,3.2499 0.2179,-0.0226 0.42768,-0.0613 0.63295,-0.12114 -0.6712,-1.22928 -1.68582,-2.98774 -3.7872,-3.44167 l 0.35966,-0.30616 c 1.69396,0.017 2.8726,0.99962 3.83497,2.48342 l 0.31404,-0.11764 c -1.17015,-1.80021 -2.25028,-3.24039 -4.9506,-2.88034 -2.25027,-0.54007 -4.41054,-2.79034 -4.68057,-4.32053 -0.54006,-2.97036 -0.18002,-6.39077 0.72009,-9.18111 0.63007,-1.7102 1.62019,-5.8507 2.79034,-6.93083 1.2654,-1.2024 3.06537,-2.53881 5.52466,-4.22739 6.08349,-4.17626 8.1995,-9.03684 10.18824,-16.05344 0.63507,-2.24065 1.00149,-5.03386 2.57456,-6.8072 l 0.45318,0.16664 c -0.97487,1.28103 -1.27778,4.06987 -1.84835,6.12424 7.19237,-2.7457 14.57501,-8.7378 18.87353,-14.90642 z m -12.24748,57.10878 0.62657,-0.11551 c 0.78272,0.80622 2.00637,0.93199 2.46255,2.98561 0.52731,0.19878 1.31253,0.21753 2.2719,-0.0575 -0.59432,-1.13538 -1.68583,-3.06349 -3.08737,-3.35378 l 0.81572,-0.31503 c 1.47955,0.26228 2.32541,1.64182 3.02824,2.96823 0.17715,-0.0226 0.35079,-0.0468 0.51869,-0.086 -0.49819,-1.05538 -1.77147,-2.79396 -3.02812,-3.15463 l 0.3813,-0.3658 c 1.27303,0.11452 2.29678,1.19952 3.08837,2.36966 l 0.36755,-0.13776 c -1.17015,-1.71021 -2.16027,-2.97036 -4.68057,-2.79034 -2.07025,-0.45005 -3.51042,-2.79034 -4.41053,-3.96048 -1.80022,-2.5203 -1.44018,-11.6114 1.17014,-13.50163 4.50054,-3.24039 7.4709,-8.82107 8.82106,-13.77167 0.52619,-5.08561 -1.85272,-8.97596 -5.47041,-13.25072 -2.97611,2.31053 -6.28138,4.26451 -9.83569,5.52291 -1.01387,3.54193 -2.20026,7.22213 -4.00761,10.01922 1.90123,1.87172 3.98211,2.94085 5.09199,4.81945 2.61032,4.50055 -2.16026,4.59056 -2.61031,7.83095 -0.18002,1.26015 0.27003,3.96048 0.45005,7.20087 0.18003,2.79034 0.36005,5.67069 1.53019,7.11086 1.53018,0.99012 1.98024,2.07025 1.89023,3.15038 -0.09,1.35017 0.45005,1.98024 1.89023,2.16026 0.81009,0.09 1.53018,0.63008 2.43029,1.35017 0.75834,0.6067 1.58157,0.70158 2.41404,0.39329 -0.31929,-1.57619 -1.54443,-2.05149 -2.1185,-3.02099"
         id="path3565"
         style="fill:#ffcc50;fill-opacity:1;fill-rule:evenodd;stroke:none" />
      <path
         d="m -32.82062,144.80338 -0.40255,-0.90999 0.24416,-0.0429 0.4568,0.0323 0.44468,0.0131 0.43768,-0.006 0.42455,-0.0238 0.41068,-0.0394 0.39829,-0.0539 0.3853,-0.0698 0.3713,-0.0854 0.35766,-0.0975 0.34267,-0.10989 0.32666,-0.12326 0.30942,-0.13389 0.29441,-0.1439 0.27503,-0.15489 0.25766,-0.16164 0.23915,-0.16965 0.22015,-0.17902 0.20053,-0.18352 0.18039,-0.18753 0.15977,-0.19277 0.14002,-0.19565 0.11839,-0.19702 0.0974,-0.20053 0.0788,-0.19915 0.0566,-0.20127 0.0383,-0.20027 0.017,-0.20265 -0.004,-0.20453 -0.0251,-0.20377 -0.0454,-0.20628 -0.0691,-0.2079 -0.0928,-0.2109 0.89086,-0.44505 0.13189,0.29653 0.10026,0.30167 0.0688,0.30403 0.0365,0.30504 0.004,0.30229 -0.0249,0.30053 -0.0539,0.29804 -0.0836,0.29053 -0.10976,0.28566 -0.13652,0.27429 -0.16152,0.2679 -0.18327,0.25803 -0.20653,0.24728 -0.22715,0.23853 -0.2474,0.22616 -0.26679,0.21427 -0.28603,0.20453 -0.30441,0.19352 -0.32242,0.17827 -0.33704,0.16727 -0.35617,0.15302 -0.36992,0.13889 -0.38592,0.12552 -0.40017,0.10951 -0.41455,0.0931 -0.42843,0.0776 -0.44093,0.0616 -0.45393,0.0429 -0.46343,0.0238 -0.47318,0.006 -0.48718,-0.0131 -0.49581,-0.0323 0.24415,-0.0429 z m -0.40255,-0.90999 0.12052,-0.0535 0.12364,0.01 -0.24416,0.0429 z m -1.36891,0.90511 -1.00012,0 0.50006,-0.50006 0.0471,0.001 0.0464,-6.2e-4 0.0475,-0.001 0.0483,-0.003 0.0514,-0.002 0.0503,-0.004 0.0492,-0.004 0.0521,-0.002 0.0553,-0.006 0.0521,-0.006 0.0549,-0.005 0.0556,-0.009 0.0571,-0.009 0.0556,-0.009 0.058,-0.009 0.0589,-0.0125 0.0581,-0.0113 0.0609,-0.0125 0.0614,-0.0153 0.0602,-0.0149 0.063,-0.0156 0.0635,-0.017 0.0624,-0.0181 0.063,-0.0197 0.0659,-0.0206 0.0645,-0.0226 0.0666,-0.0216 0.0674,-0.0249 0.0663,-0.0265 0.0666,-0.0259 0.0694,-0.0294 0.0699,-0.0291 0.40255,0.90998 -0.0819,0.0369 -0.0808,0.0337 -0.0823,0.0336 -0.0819,0.0301 -0.0793,0.029 -0.0788,0.0295 -0.08,0.0261 -0.0773,0.0249 -0.0788,0.0234 -0.0779,0.0223 -0.0755,0.0206 -0.0744,0.0199 -0.0759,0.0184 -0.0734,0.0152 -0.0723,0.0166 -0.0738,0.0149 -0.0709,0.0125 -0.0701,0.0135 -0.0713,0.0113 -0.0684,0.009 -0.0676,0.009 -0.0663,0.01 -0.0678,0.006 -0.063,0.006 -0.0641,0.006 -0.0649,0.004 -0.0616,0.004 -0.0593,0.002 -0.0601,0.002 -0.0589,0.001 -0.0585,7.5e-4 -0.0549,0.002 0.50006,-0.49994 z m -1.00012,0 0,-0.50006 0.50006,0 -0.50006,0.50006 z m 1.80696,0.95962 -0.27353,0.96111 -0.0373,-0.0139 -0.0801,-0.0319 -0.079,-0.0315 -0.0769,-0.0351 -0.0755,-0.0383 -0.0736,-0.04 -0.072,-0.0415 -0.0684,-0.0425 -0.0684,-0.044 -0.0663,-0.0475 -0.0649,-0.0485 -0.0626,-0.0518 -0.061,-0.0531 -0.0566,-0.0543 -0.0571,-0.0574 -0.0528,-0.0588 -0.0506,-0.0592 -0.0504,-0.0624 -0.0464,-0.0659 -0.0426,-0.0645 -0.0421,-0.0674 -0.0379,-0.0684 -0.0355,-0.0694 -0.0315,-0.072 -0.029,-0.0748 -0.0266,-0.0758 -0.0224,-0.0745 -0.0197,-0.079 -0.0153,-0.0779 -0.0131,-0.0788 -0.009,-0.0811 -0.006,-0.0794 -0.004,-0.0804 1.00012,0 -7.5e-4,0.0371 0.002,0.0369 0.004,0.0344 0.005,0.0355 0.007,0.0346 0.009,0.0323 0.01,0.0355 0.0113,0.0326 0.0135,0.0323 0.0159,0.0329 0.0164,0.034 0.018,0.033 0.0189,0.0326 0.0226,0.0333 0.023,0.0305 0.0234,0.0311 0.0274,0.0322 0.0294,0.0312 0.0294,0.0298 0.0334,0.0309 0.0332,0.0298 0.0358,0.0282 0.0372,0.0295 0.0394,0.0276 0.0408,0.0284 0.045,0.0269 0.0443,0.0259 0.0468,0.0245 0.0479,0.0226 0.05,0.023 0.0514,0.0238 0.0531,0.0206 -0.0373,-0.0139 z m -0.27353,0.96111 -10e-4,-3.7e-4 -0.0358,-0.0135 0.0373,0.0139 z m 3.48067,-0.69883 -0.20702,0.97662 10e-4,0 -0.15015,-0.0301 -0.14539,-0.0263 -0.14064,-0.0251 -0.13677,-0.0205 -0.13226,-0.0192 -0.12789,-0.0141 -0.12577,-0.0138 -0.11976,-0.01 -0.11739,-0.01 -0.11189,-0.007 -0.11026,-0.006 -0.10627,-0.005 -0.10313,-0.002 -0.10139,-0.002 -0.0981,-10e-4 -0.0964,10e-4 -0.0933,-10e-4 -0.0924,7.5e-4 -0.0898,6.2e-4 -0.0864,3.8e-4 -0.0858,3.7e-4 -0.0833,0 -0.0844,-7.5e-4 -0.0823,-10e-4 -0.0815,-0.002 -0.0808,-0.004 -0.0833,-0.007 -0.0808,-0.007 -0.083,-0.0128 -0.0808,-0.0131 -0.0811,-0.017 -0.0833,-0.0213 0.27353,-0.96112 0.0365,0.01 0.0421,0.009 0.0454,0.009 0.0475,0.005 0.0539,0.007 0.0556,0.004 0.0616,0.004 0.0659,0.002 0.0703,0.001 0.073,7.5e-4 0.079,0 0.0815,-3.8e-4 0.0864,-3.7e-4 0.0898,-7.5e-4 0.0924,-6.3e-4 0.0975,-0.002 0.10063,0.002 0.10602,0.001 0.10913,0.003 0.11439,0.002 0.11839,0.005 0.12152,0.006 0.12764,0.008 0.12926,0.01 0.13539,0.0135 0.13715,0.0137 0.14351,0.0184 0.14777,0.0192 0.15239,0.024 0.15702,0.0253 0.1609,0.0304 0.16577,0.0338 0.001,0 z m -0.001,0 0.001,0 0.0991,0.0213 -0.10101,-0.0213 z m 3.22102,0.80822 0.19552,0.98024 -0.11689,0.0181 -0.11664,0.0131 -0.11476,0.005 -0.11301,0 -0.11664,-0.004 -0.11452,-0.01 -0.11401,-0.0141 -0.11452,-0.0178 -0.11338,-0.0226 -0.11302,-0.0245 -0.11276,-0.0266 -0.11402,-0.0294 -0.11351,-0.0336 -0.11264,-0.0336 -0.11376,-0.0337 -0.11302,-0.0371 -0.11413,-0.0383 -0.11339,-0.0376 -0.11377,-0.0383 -0.11301,-0.0411 -0.11376,-0.0373 -0.11264,-0.0393 -0.11314,-0.039 -0.11401,-0.039 -0.11239,-0.0365 -0.11264,-0.035 -0.11139,-0.0341 -0.11151,-0.0325 -0.11202,-0.0312 -0.10989,-0.029 -0.10876,-0.0272 -0.10814,-0.0245 0.20703,-0.97662 0.12789,0.0286 0.12789,0.0309 0.12551,0.0332 0.12402,0.0348 0.12289,0.0369 0.12339,0.0375 0.12051,0.0394 0.12014,0.04 0.11764,0.039 0.11727,0.039 0.11626,0.0394 0.11376,0.0414 0.11302,0.0369 0.11026,0.0383 0.10914,0.0376 0.10626,0.0346 0.10526,0.033 0.10239,0.0336 0.10064,0.0301 0.0979,0.0259 0.0949,0.0253 0.0929,0.023 0.0896,0.0201 0.0865,0.0149 0.0825,0.0143 0.0794,0.01 0.0755,0.006 0.0698,0.004 0.0699,0 0.0638,-0.005 0.0585,-0.005 0.0539,-0.01 z"
         id="path3567"
         style="fill:#003d8f;fill-opacity:1;fill-rule:nonzero;stroke:none" />
      <path
         d="m -50.84405,128.46503 c -0.34091,-1.22828 -1.8991,-1.6432 -1.23115,0.0142 0.4058,1.00849 0.71346,1.91498 0.88211,3.02599 0.23665,1.57306 0.6432,3.35053 2.77796,2.85197 -0.0734,-0.67758 -0.12551,-1.30553 -0.0448,-1.95086 l 0.99224,0.12126 c -0.10414,0.83698 0.0411,1.69421 0.13402,2.52906 -3.53381,1.38029 -4.43254,-0.56557 -4.82196,-3.23427 l -3.8e-4,0 c -0.004,-0.0259 -0.007,-0.0521 -0.0113,-0.0784 -0.12164,-0.80623 -0.24878,-1.60107 -0.57169,-2.31228 l 10e-4,-3.8e-4 c -0.29166,-0.61195 -0.79309,-1.73496 -0.41217,-2.45755 0.13189,-0.24953 0.34016,-0.40154 0.62057,-0.44367 l 0,-3.8e-4 c 0.43693,-0.0663 1.67546,0.56494 2.07975,1.63045 l -0.39404,0.30479 z"
         id="path3569"
         style="fill:#003d8f;fill-opacity:1;fill-rule:nonzero;stroke:none" />
      <path
         d="m -36.20628,135.79066 0.13564,0.67508 c -0.56519,0.11764 -1.00774,0.0751 -1.37166,-0.0663 -0.36642,0.76335 -0.95999,0.94187 -1.61145,1.01238 -0.4433,0.0475 -0.93874,-0.002 -1.34829,0.18252 -1.078,0.48768 -1.57281,-0.41418 -0.56744,-1.25015 0.60032,-0.49794 1.70321,-1.16802 1.60357,-1.87535 -0.18815,-0.17965 -0.3948,-0.30829 -0.64145,-0.33567 l 0.10914,-0.99222 c 1.79034,0.16454 2.03412,3.03138 3.69194,2.64971 z"
         id="path3571"
         style="fill:#003d8f;fill-opacity:1;fill-rule:nonzero;stroke:none" />
      <path
         d="m -37.70246,155.86984 c -0.09,0.99012 -0.09,1.98024 -0.18002,2.97036 -7.83095,0.18002 -15.03182,-2.34028 -21.33258,-6.93084 0.45005,-0.90011 0.8101,-1.89023 1.26015,-2.88035 5.94072,4.59056 12.78155,7.02085 20.25245,6.84083 z"
         id="path3573"
         style="fill:#ffffff;fill-opacity:1;fill-rule:evenodd;stroke:#003d8f;stroke-width:1;stroke-miterlimit:4;stroke-opacity:1;stroke-dasharray:none" />
      <path
         d="m -27.80126,144.43846 c 1.71021,0.27003 3.24039,0.72008 4.32052,3.96048 0.27003,0.63007 0.18002,1.44017 0.63008,1.98024 1.17014,1.17014 -0.90011,0.54006 -1.44018,0 -0.81009,-0.72009 -1.62019,-1.98024 -2.70032,-2.79034 -0.72009,-0.54007 -1.53019,-0.90011 -2.52031,-0.72009 -0.36004,-0.18002 -0.72009,-0.27003 -1.17014,-0.36004 -1.71021,-0.36005 -2.61032,-0.09 -3.24039,-0.27004 -0.72009,-0.27003 -1.17014,-0.81009 -1.17014,-1.44017 0.54006,0 1.26015,-0.18002 2.07025,-0.45005 0.99012,0.09 1.89023,0.09 2.70032,-0.09 0.8101,0.18002 1.71021,0.09 2.52031,0.18002"
         id="path3577"
         style="fill:#ffffff;fill-opacity:1;fill-rule:evenodd;stroke:#003d8f;stroke-width:0.5;stroke-miterlimit:4;stroke-opacity:1;stroke-dasharray:none" />
      <path
         d="m -42.04111,120.83535 c -0.18002,-1.41779 -1.29803,-2.77258 -1.18114,-1.19952 0.0447,0.60383 0.31904,1.60882 0.24215,2.48905 -0.006,0.0703 -0.0135,0.14077 -0.0206,0.21015 l 0,0.002 c -0.0875,0.8236 -0.32317,1.6437 -0.29867,2.4778 0.0155,0.5497 0.14102,0.99125 0.3883,1.28778 0.9855,-0.0605 1.95124,0.0419 2.87397,0.4108 l -0.0023,0.50394 c -0.98057,-0.28282 -2.315728,-0.19691 -3.228818,0.11401 -0.71621,-0.6137 -1.00037,-1.34653 -1.027,-2.2889 -0.0273,-0.95074 0.24166,-1.85372 0.32104,-2.79846 0.0386,-0.43768 0.05,-0.88348 0.0131,-1.32741 l 7.5e-4,0 c -0.12939,-0.8286 -0.13114,-1.49581 -0.0145,-1.88848 l 0,-10e-4 c 0.0744,-0.24991 0.2019,-0.43455 0.38192,-0.54257 0.23003,-0.13864 0.48418,-0.14076 0.75597,0.0125 l 6.2e-4,-10e-4 c 0.72834,0.40929 1.09326,1.52768 1.25028,2.33778 l -0.45506,0.20265 z"
         id="path3585"
         style="fill:#003d8f;fill-opacity:1;fill-rule:nonzero;stroke:none" />
      <path
         d="m -28.9714,137.77765 c 0.99012,-0.63007 2.70032,-0.99012 2.61031,-2.16026 2.88035,2.61032 0.09,4.77058 -1.89023,3.87047 -1.26015,-0.45006 -1.53018,-1.17014 -0.72008,-1.71021"
         id="path3587"
         style="fill:#003d8f;fill-opacity:1;fill-rule:evenodd;stroke:none" />
      <path
         d="m -27.89127,143.53835 -0.8101,1.89023 -0.54007,-1.35017 c 0.45006,-0.18002 0.99012,-0.36004 1.35017,-0.54006 z m -0.45006,3.69044 -0.36004,-1.17014 -0.54007,0.90011 c 0.27004,0.09 0.54007,0.18002 0.90011,0.27003"
         id="path3581"
         style="fill:#ffffff;fill-opacity:1;fill-rule:evenodd;stroke:#003d8f;stroke-width:0.5;stroke-miterlimit:4;stroke-opacity:1;stroke-dasharray:none" />
    </g>
  </g>
  <g
     transform="translate(240,0)"
     id="g5283">
    <path
       d="m -44.1875,62.53125 c 0.48697,0.510408 1.39981,1.482256 2.3125,1.125 1.46067,-0.663701 0.80425,-2.894518 -0.65625,-4.375 -4.68604,-4.900835 -10.47853,-8.702922 -18.9375,-9.46875 -9.49358,-0.918833 -18.72851,-0.744797 -28.34375,-1 -7.97199,-0.204104 -11.36818,-2.356881 -15.75,-5.0625 -4.44246,-2.756647 -8.34521,-4.352975 -13.03125,-4.8125 -12.71895,-1.327188 -13.69222,4.289933 -26.59375,-4.03125"
       id="path5279"
       style="fill:none;stroke:#003d8f;stroke-width:1.26999998;stroke-miterlimit:4;stroke-opacity:1;stroke-dasharray:none" />
    <path
       d="m -119.87698,93.470639 c 1.56885,3.475527 2.19077,7.555431 3.04281,10.873651 0.73037,2.75665 1.88663,5.15604 2.37335,8.01481 1.5824,8.52506 2.98198,20.47078 -0.66929,25.72886 1.58214,0.35726 2.25169,1.22514 2.86007,2.04192 0.7912,1.02096 1.52157,1.07199 2.79949,0.91891 0.18257,-1.22514 -0.42615,-2.60357 -0.12166,-3.77761 0.30423,-1.07199 1.64298,-1.27638 1.94746,-0.2552 0.54755,1.42924 1.8863,0.96993 2.06886,-0.81679 0.24358,-1.63363 -0.48679,-3.57349 -0.85185,-5.36021 -1.03452,-5.00288 -2.31244,-12.60934 -2.98198,-18.37783 -0.42615,-3.62453 -0.24332,-5.20706 -0.18249,-8.62741 0.0608,-1.73569 -0.24366,-3.47138 -0.73037,-5.156041 0.30423,-3.21595 0,-6.534248 -0.54754,-9.903571 -1.89255,0 -4.37426,-0.114664 -6.38768,-0.145643 -1.19893,0.869046 -2.67958,1.488358 -4.13581,2.052847 0.4742,0.918032 1.10152,1.870034 1.51663,2.789307 z"
       id="path3539"
       style="fill:#ffffff;fill-opacity:1;fill-rule:evenodd;stroke:none" />
    <path
       d="m -145.78125,24.9375 c -2.14868,0.05652 -5.93473,0.282796 -8.875,1.1875 -2.09216,0.678387 -3.67395,1.268186 -3.84375,3.8125 -0.0566,0.565591 -0.16081,1.30375 -0.5,1.8125 -0.96122,1.470295 -4.55209,1.903239 -5.34375,0.09375 -0.39571,-0.734905 -0.335,-1.477702 -0.84375,-2.15625 -3.50586,1.017741 -6.98816,2.346963 -10.4375,2.96875 -8.0293,2.092163 -16.65182,3.613766 -17.5,13 0.0565,0.509073 0.0742,1.022258 0.1875,1.53125 2.09216,0.0566 3.33932,-0.790242 4.1875,-2.65625 0.11312,-0.791666 1.91382,-0.756022 1.6875,0.375 -0.56535,1.752727 -2.4764,4.294637 -4.625,4.125 0.39571,0.452231 1.33334,0.8125 2.125,0.8125 2.09216,-1.809408 4.94063,-3.697916 7.9375,-2.90625 0.73515,0.169556 0.56095,1.757325 -0.34375,1.53125 -2.43152,-0.621868 -4.70979,0.455484 -6.40625,1.8125 1.86601,2.035563 3.50911,2.477624 6.5625,0.78125 0.22616,-0.113118 0.52369,-0.273602 0.75,-0.5 1.58317,0.565591 1.41821,2.143067 1.53125,3.5 0.33919,4.919392 -0.0101,9.834923 4.34375,10.34375 0.39595,-1.639685 1.13851,-3.266396 2.15625,-4.90625 l 0.375,0.28125 c -2.09208,3.336065 -1.52368,9.333575 0.625,12.5 0.33919,0.565591 2.62488,3.339032 3.8125,-1.75 0.73491,-3.44934 0.90316,-6.39599 1.46875,-9.5625 0.45223,-2.82723 0.55078,-5.709917 0.4375,-8.59375 0.0159,0.02124 0.0465,0.04109 0.0625,0.0625 3.94876,5.548257 11.02343,12.558067 16.96875,14.09375 -0.0608,-1.531588 0.13001,-3.226941 0.3125,-4.65625 -5.41617,-1.327333 -10.52463,-4.799467 -12.59375,-8.78125 l 0.5,-0.21875 c 1.88655,3.777603 9.3717,7.046746 13.875,7.8125 -1.51141,7.2874 2.87921,18.491027 11.1875,22.5 0.45221,-1.233736 0.7322,-2.423858 1.1875,-4.34375 0.45531,-1.919887 1.40466,-3.569738 3.3125,-5.84375 l 0.4375,0.25 c -1.89768,2.261982 -1.64448,3.989604 -2.0625,5.75 -0.41802,1.760401 -0.61879,2.638493 -0.90625,3.5625 -1.02399,3.290602 -3.00651,5.97619 -5.875,8.375 -1.42668,1.193497 -2.99259,2.365942 -4.78125,3.71875 -1.78866,1.352814 -4.2244,2.932696 -4.46875,6.5 -0.31284,4.35617 2.3736,5.98958 3.6875,8.71875 2.69035,5.45832 3.68643,8.91788 4.6875,14.21875 0.50444,2.72669 2.55417,5.25572 5,7.71875 0.71064,-1.17593 1.82611,-1.53298 2.90625,-1.875 1.49986,-0.47461 1.69308,-1.2911 1.75,-2.3125 -0.9749,-0.6992 -2.05051,-1.42404 -2.46875,-1.9375 -0.70595,-0.95047 0.0464,-1.82769 1.125,-1.34375 1.60109,0.65503 2.13188,-0.46424 0.71875,-1.8125 -0.96586,-1.02715 -2.39714,-1.44202 -3.375,-2.375 -3.40004,-3.24817 -3.32107,-6.31729 -5.46875,-11.59375 -2.75292,-6.56049 -1.19194,-6.14905 3,-11.1875 2.96548,-3.523643 10.86224,-6.306227 15.53125,-8 1.61125,-0.584763 3.4504,-1.24351 4.46875,-2.40625 2.42697,-2.773336 3.92266,-8.713465 3.09375,-12.03125 l 0.5,-0.0625 c 0.95257,3.813173 0.78869,8.989204 -1.8125,12.375 3.8599,0.09775 7.62873,-0.08836 11.46875,-0.625 7.24162,-0.969932 14.46358,-2.408236 21.21875,-3.53125 1.21709,-0.204173 1.46047,1.020695 2.3125,1.53125 3.34704,-0.306446 6.40288,-2.537305 9.75,-2.84375 -1.09543,-2.450203 -1.70908,-4.998487 -1.34375,-7.5 0.48671,-3.675478 3.10706,-7.204726 1.28125,-10.625 l 0.46875,-0.1875 c 1.88655,3.573426 0.42289,7.168272 -0.125,10.84375 -0.73012,5.053983 2.92585,10.416171 5.96875,14.5 3.28621,4.441237 8.96882,10.022237 11.28125,14.71875 1.33901,2.8587 0.48698,6.3319 0,9.34375 -0.54754,3.36932 -1.52297,6.5767 -2.375,9.84375 -1.15617,4.39029 -2.99838,8.93805 -6.40625,12.5625 -0.7912,0.86788 -2.06417,2.3601 -3.28125,3.6875 1.64323,0.30623 2.29763,1.16337 2.90625,2.03125 0.85204,1.07199 1.65932,1.05941 2.9375,0.90625 0.36506,-1.02095 0.53283,-1.82173 0.59375,-2.28125 0.24331,-1.48034 1.54946,-2.13673 2.21875,-0.65625 0.5478,1.12301 1.57746,0.80446 2.125,-0.625 0.60872,-1.48049 0.78785,-3.37496 1.03125,-4.90625 1.64324,-7.5044 4.13475,-14.4552 6.8125,-21.5 1.27792,-3.52248 2.84541,-6.86927 2.90625,-10.1875 0.18283,-4.033023 -2.78933,-4.387062 -4.25,-6.53125 -0.85176,-1.225136 -1.15458,-3.032054 -1.09375,-5.125 0.18258,-3.573427 1.26795,-5.184025 3.09375,-8.09375 1.21709,-2.144264 1.95219,-4.390159 2.5,-6.6875 0.73011,-3.062872 1.77459,-9.865185 -0.78125,-12.46875 l 0.40625,-0.3125 c 0.48697,0.510408 1.39981,1.482256 2.3125,1.125 1.46067,-0.663701 0.80425,-2.894518 -0.65625,-4.375 -4.68604,-4.900835 -10.47853,-8.702922 -18.9375,-9.46875 -9.49358,-0.918833 -18.72851,-0.744797 -28.34375,-1 -7.97199,-0.204104 -11.36818,-2.356881 -15.75,-5.0625 -4.44246,-2.756647 -8.34521,-4.352975 -13.03125,-4.8125 -12.71895,-1.327188 -13.72774,4.344749 -26.59375,-4.03125 -0.99781,-0.649591 -1.47055,-1.095359 -2.03051,-1.615744 0.84819,-0.621787 2.85046,-2.183329 3.81176,-3.540506 1.69613,-2.26172 0.73491,-4.982056 -2.375,-4.8125 z m 75.3125,58.15625 c -2.25187,0 -4.62498,1.600869 -6.9375,2.46875 0.60871,2.39917 1.6529,4.093488 2.6875,5.625 5.78122,8.729536 4.18746,11.26331 -0.4375,20.65625 -1.94746,4.33926 -4.74504,8.46494 -8.03125,12.90625 -2.86033,3.82863 -6.69575,8.59836 -9.3125,11.40625 1.58215,0.35725 2.26803,1.21439 2.9375,2.03125 0.85185,1.12301 1.69083,1.0594 2.96875,0.90625 0.42614,-1.07198 0.59867,-2.23439 0.78125,-3 0.30423,-1.12323 1.66462,-1.28243 1.96875,-0.3125 0.54764,1.42946 1.7683,0.98569 2.4375,-0.75 1.52158,-10.15871 9.29262,-16.55179 16.65625,-25.28125 4.13824,-2.90972 5.95715,-6.99738 4.375,-10.46875 L -60.59375,97.25 c -1.64324,-2.961042 -3.5263,-4.911082 -5.65625,-7.71875 -1.39958,-1.939869 -3.00166,-4.140381 -4.21875,-6.4375 z"
       id="path3541"
       style="fill:#ffffff;fill-opacity:1;fill-rule:evenodd;stroke:none" />
    <path
       d="m -46.48449,103.83374 -0.48672,-0.20418 c 1.7038,-2.39939 -2.61692,-6.432126 -4.50356,-7.963708 l 0.42615,-0.30623 c 1.7038,1.429315 3.10373,1.633418 4.56413,3.420128 1.70406,1.99111 1.39966,3.06309 0,5.05399 z m -87.20688,-52.121513 c 2.92115,-2.858698 5.35533,-4.69651 10.46735,-5.155817 5.23358,-0.408501 7.97199,1.12301 11.56269,3.164927 l -0.30449,0.357474 c -2.79923,-1.582537 -7.48528,-2.450418 -11.13655,-2.144188 -3.59043,0.306229 -8.03308,1.990891 -10.16312,4.033026 z"
       id="path3553"
       style="fill:#003d8f;fill-opacity:1;fill-rule:evenodd;stroke:none" />
    <path
       d="m -61.08999,144.72434 c -2.61676,1.07199 -5.41617,1.63356 -8.15457,1.63356 l 1.76463,-3.21617 -3.77292,3.11412 c -0.48698,-0.051 -0.9737,-0.10205 -1.46067,-0.15315 l 6.51177,-6.33007 c 3.22538,0.40828 2.25169,3.67554 6.02461,3.11389 z"
       id="path3555"
       style="fill:#d40000;fill-opacity:1;fill-rule:evenodd;stroke:none" />
    <path
       d="m -88.04923,141.91659 c -2.61666,1.07206 -5.41615,1.63364 -8.15482,1.63364 l 1.8258,-3.21617 -3.83401,3.11411 c -0.4868,0 -0.97351,-0.10212 -1.39966,-0.15314 l 6.45076,-6.3303 c 3.28621,0.4085 2.25161,3.67578 6.02479,3.11412 z"
       id="path3557"
       style="fill:#d40000;fill-opacity:1;fill-rule:evenodd;stroke:none" />
    <path
       d="m -110.74847,143.85646 c -2.55609,1.07198 -5.35533,1.63364 -8.094,1.63364 l 1.76498,-3.21625 -3.8341,3.11412 c -0.48671,-0.051 -0.91286,-0.10205 -1.39958,-0.15308 l 6.45077,-6.33007 c 3.28621,0.40828 2.31243,3.67547 6.02453,3.1139 z"
       id="path3559"
       style="fill:#d40000;fill-opacity:1;fill-rule:evenodd;stroke:none" />
    <path
       d="m -128.1446,129.48643 c 0.62904,2.3628 0.68405,4.77684 0.15763,7.03175 l -3.42707,-2.14521 2.87848,3.76893 c -0.16354,0.38809 -0.32708,0.77611 -0.55023,1.15319 l -5.91895,-6.67909 c 1.1062,-2.56654 4.70255,-1.06973 4.9151,-4.27081 z"
       id="path3561"
       style="fill:#d40000;fill-opacity:1;fill-rule:evenodd;stroke:none" />
    <path
       d="m -147.84421,3.6984055 c -0.43729,1.7494577 -0.43729,5.1565997 -0.27334,6.9521435 0.0547,1.473343 0.49226,2.30202 2.89786,1.795544 2.13234,-0.828742 3.22608,-2.9466845 4.59291,-4.5580858 1.14815,-1.3810406 1.96832,-2.9925072 3.06181,-4.4197648 0.38288,-0.5525608 0.87482,-0.5985796 0.54683,0.1380583 -0.49218,1.0589058 -0.82016,2.2099809 -1.36699,3.3149055 -0.60132,1.1049245 -1.36684,4.0975648 -0.82024,4.7421638 0.65621,0.736704 1.91374,-0.138058 2.51522,-0.552561 2.187,-1.3350216 3.33538,-3.591022 4.42888,-5.5708417 0.16403,-0.2301612 0.27334,-0.3682847 0.38264,-0.5063431 0.49225,-0.5985808 0.5469,-0.1843406 0.32798,0.3682202 -0.32798,1.2891993 -0.16394,1.7955437 -0.81992,3.0387242 -0.32822,0.5985802 -0.27357,1.2892 0.27333,1.7494594 1.47614,1.335284 3.71803,-1.2429839 4.92083,-2.5321826 0.71086,-0.782658 1.03884,-1.1508788 0.6562,0.1381235 -0.21891,0.7826574 -0.6562,1.5193625 -1.03885,2.3020201 -1.42171,2.532182 -2.8432,4.558085 -4.86616,6.537708 -2.8981,2.946684 -5.95991,5.478867 -9.78731,7.182306 -2.56964,1.151141 -5.35811,1.565381 -8.14667,2.163962 -2.67917,0.506541 -6.67053,1.196963 -8.1469,3.268886 -0.32799,0.414438 -0.49195,1.012821 -0.49195,1.70344 -0.0547,1.24318 -4.28806,1.887583 -4.5614,0.460523 -0.32798,-1.519362 -1.17966,-2.440145 -2.54665,-3.222868 -2.95251,-1.565382 -6.17835,-2.532182 -9.02156,-4.1898 -2.78848,-1.242983 -5.41299,-2.716326 -7.10806,-4.695946 -1.36683,-1.611467 -1.91365,-3.591285 -1.80412,-5.893306 0.0547,-1.289002 0.21869,-1.289002 0.49194,-0.09204 0.60156,2.302019 2.40592,5.1566 4.31958,6.583726 1.36684,1.013018 1.47615,0.368418 0.9842,-0.690619 -0.65621,-1.335086 -1.42172,-2.578266 -1.69506,-4.051609 -0.43752,-2.578202 0,-5.3405478 0.82017,-7.3663851 0.43737,-1.1049252 0.49202,-0.5525607 0.43737,0.2301618 -0.54668,3.7292773 -0.10939,7.0441833 1.74963,9.9447833 0.16403,0.276182 1.42148,2.256067 2.18699,2.762346 1.47637,1.105122 0.71087,-0.598384 0.43753,-1.196964 -0.49218,-1.05884 -0.82017,-2.67024 -0.87482,-3.775363 -0.1093,-1.150878 0.1093,-2.302019 0.65597,-3.591022 1.03909,-1.657485 0.87481,-1.519362 0.60148,0.230163 -0.27326,1.887583 -0.10929,3.637041 0.65621,5.202423 0.38264,0.782723 1.36684,2.854581 2.56964,4.281905 1.09373,1.33502 3.11678,2.486163 4.92106,1.196963 0.60132,-0.322202 1.09349,-2.578202 1.42148,-3.498984 0.21869,-0.690685 0.43753,-1.473343 0.60156,-1.335285 0.32799,0.27638 0.16395,2.163962 0.32799,2.532249 0.43752,1.197095 1.7497,0.6446 2.29629,-0.04609 1.09374,-1.289003 1.58568,-2.992441 1.80437,-4.788183 0.49217,-3.314906 0.1093,-7.0440526 0.1093,-9.6224513 0,-2.1637645 0.27357,-1.7034389 0.76551,-0.184143 0.16403,0.5985802 0.27357,1.1971604 0.32823,1.7955437 0.16403,2.6705036 0.54667,5.4328486 0.76527,8.1493056 0.16427,2.025706 1.14838,2.716325 2.40591,1.979687 2.13235,-1.289199 3.60873,-4.281707 4.64749,-6.261525 0.92955,-2.1177424 0.92955,-4.3737421 1.20288,-6.5837895 0.10931,-0.6906178 0.27326,-1.427257 0.76551,-1.9798185 0.82017,-1.0588386 0.92947,-0.644402 0.49195,0.4605232"
       id="path3543"
       style="fill:#d40000;fill-opacity:1;fill-rule:evenodd;stroke:none" />
    <g
       transform="translate(-240,0)"
       id="g5270">
      <path
         d="m 71.658374,33.116728 c -0.151142,7.1e-4 -0.310008,0.01662 -0.464205,0.04037 -1.233575,0.189915 -2.073607,1.131159 -1.897187,2.119198 0.176421,0.988037 1.288957,1.562389 2.522855,1.372433 1.233897,-0.189955 2.154183,-1.131043 1.977917,-2.119198 -0.154235,-0.864636 -1.081367,-1.417605 -2.13938,-1.412798 z"
         id="path3116-9"
         style="fill:#003d8f;fill-opacity:1;fill-rule:evenodd;stroke:none" />
      <path
         d="m 71.316286,34.169722 c 0.05651,0.311055 -0.141176,0.565342 -0.452231,0.621868 -0.311054,0.05652 -0.678627,-0.113038 -0.735146,-0.395712 -0.05651,-0.282675 0.169439,-0.565551 0.50875,-0.62211 0.339317,-0.05656 0.622102,0.0849 0.678627,0.395954 z"
         id="path3549-8"
         style="fill:#ffffff;fill-opacity:1;fill-rule:evenodd;stroke:none" />
      <path
         d="m 71.994914,33.15198 c 1.074263,0.05652 2.148603,0.734906 2.374754,1.356936 l -1.017822,0.169636 c -0.226073,-0.395712 -0.791664,-0.735147 -1.413535,-0.791666 -0.961219,-0.113118 -1.86592,0.452473 -2.035559,1.300658 l -2.431518,0.395713 -0.05651,-0.282675 1.865927,-0.791666 c 0.452308,-0.904705 1.639931,-1.413535 2.714271,-1.356936"
         id="path3551-8"
         style="fill:#003d8f;fill-opacity:1;fill-rule:evenodd;stroke:none" />
    </g>
    <path
       d="m -144.48254,27.497439 c -2.65767,0.282674 -7.18135,1.13086 -9.66915,2.996867 -0.90479,0.735148 -1.35726,1.526815 -1.30065,2.88375 -1.80925,-1.243898 -1.01783,-2.88375 0.39586,-3.95809 2.71428,-2.092164 7.69019,-2.26172 10.57394,-2.431519 z"
       id="path4467"
       style="fill:#003d8f;fill-opacity:1;fill-rule:evenodd;stroke:none" />
    <path
       d="m -150.81563,35.187544 c 1.97904,-0.961303 8.0293,-4.693238 8.08582,-7.350912 0,-0.565349 -0.28268,-1.357015 -0.9613,-1.63969 -2.4878,-1.131021 -10.17791,0.621868 -12.32659,1.752728 -2.03556,1.074341 -1.13086,2.82723 -2.71419,4.184488 l -0.3392,-0.395954 c 0.3392,-0.282675 0.39572,-0.735148 0.39572,-1.187379 0.11303,-1.922526 0.45433,-3.07672 2.1507,-3.924906 2.88383,-1.470295 9.94981,-3.14317 13.28603,-1.899191 1.30049,0.452472 1.97912,1.752889 1.97912,2.940267 0.0565,3.788534 -5.76757,7.011557 -8.59489,8.425253 -5.93713,2.827312 -4.29728,-0.622029 -8.08582,-1.413696 l 0.11305,-0.50883 c 3.27954,0.678387 2.99686,2.940349 7.01155,1.017822 z"
       id="path4465"
       style="fill:#003d8f;fill-opacity:1;fill-rule:evenodd;stroke:none" />
    <path
       d="m -168.11821,51.019986 c -2.88375,-0.226075 -9.1038,-2.26172 -11.25248,-0.791667 l -0.28267,-0.45223 c 3.22302,-2.148844 8.19893,-0.452474 11.81783,-0.226318 3.50562,0.226318 7.63359,-0.282675 8.76444,-3.675254 l 0.50875,0.169557 c -1.47005,4.353882 -4.86279,5.315105 -9.55587,4.975912 z"
       id="path4463"
       style="fill:#003d8f;fill-opacity:1;fill-rule:evenodd;stroke:none" />
    <path
       d="m -182.42408,44.347703 -0.50882,-0.169557 c 0.67838,-1.979125 0.22615,-3.223023 2.8273,-3.618977 1.86577,-0.339193 4.91916,-1.074341 6.21982,-1.866008 l 0.28267,0.395955 c -2.2052,1.413534 -2.71419,2.374757 -6.27641,2.940348 -1.69637,0.226075 -2.03556,0.678387 -2.54456,2.318239 z"
       id="path3553-0"
       style="fill:#003d8f;fill-opacity:1;fill-rule:evenodd;stroke:none" />
  </g>
  <g
     transform="matrix(1.568831,0,0,1.568831,-316.26207,-574.33892)"
     id="g246"
     style="fill:#ffcd50;fill-rule:evenodd;stroke:#806600;stroke-width:0.38245037;stroke-miterlimit:4;stroke-dasharray:none">
    <g
       id="g5488">
      <path
         d="m 319.58,400.48 c 0.393,-0.477 0.356,-1.186 -0.334,-1.379 l -0.226,0.497 c 0.36,10e-4 0.614,0.335 0.56,0.882 z"
         id="path248" />
      <path
         d="m 313.08,399.58 c -0.092,-0.612 0.303,-1.202 0.994,-1.014 l -0.061,0.544 c -0.309,-0.185 -0.698,-0.028 -0.933,0.47 z"
         id="path250" />
      <path
         d="m 313.89,397.16 c 0.244,-0.569 0.89,-0.862 1.379,-0.337 l -0.339,0.429 c -0.165,-0.319 -0.578,-0.391 -1.04,-0.092 z"
         id="path252" />
      <path
         d="m 315.82,401.48 c -0.227,-0.465 -0.261,-1.351 0.168,-1.569 l 0.286,0.423 c -0.158,0.166 -0.304,0.632 -0.454,1.146 z"
         id="path254" />
      <path
         d="m 317.11,399.18 c 0.48,-0.519 0.629,-0.591 1.188,-0.09 0.2,0.132 0.33,0.448 0.559,0.519 0.542,0.169 0.979,-0.29 0.615,-0.636 -0.338,-0.321 -0.892,-0.243 -1.306,-0.611 -0.168,-0.113 -0.258,-0.384 -0.053,-0.507 0.39,-0.193 0.969,-0.814 1.329,-1.322 l -0.687,-0.413 c -0.35109,0.74586 -1.0001,1.1988 -1.589,1.401 -1.699,0.398 -1.468,-0.834 -1.943,-0.945 -0.24,-0.055 -0.352,0.221 -0.432,0.454 -0.188,0.543 0.718,0.764 1.327,0.93 0.462,0.126 0.594,0.143 -0.057,0.321 -0.832,0.227 -1.87,-0.018 -2.061,0.034 -0.485,0.133 -0.299,1.146 0.547,0.89 0.725,-0.219 1.202,-0.186 1.823,-0.508 0.243,-0.125 0.673,-0.34 0.514,-0.023 -0.245,0.489 -0.622,0.512 -1.059,0.913 -0.504,0.463 0.063,1.212 0.694,0.605 0.283,-0.273 0.35,-0.752 0.591,-1.012 z"
         id="path256" />
    </g>
  </g>
</svg>
