<?xml version="1.0" encoding="UTF-8" standalone="no"?>
<!-- Created with Inkscape (http://www.inkscape.org/) -->

<svg
   xmlns:svg="http://www.w3.org/2000/svg"
   xmlns="http://www.w3.org/2000/svg"
   xmlns:xlink="http://www.w3.org/1999/xlink"
   version="1.0"
   width="251"
   height="304.20001"
   id="svg4166">
  <defs
     id="defs4168">
    <clipPath
       id="clipPath3108">
      <rect
         width="272.94217"
         height="271.22009"
         x="321.81296"
         y="-5.5930562"
         id="rect3110" />
    </clipPath>
  </defs>
  <path
     d="m 249.55062,1.4395041 -248.101051,0 0,173.4965959 c -0.76723996,93.72088 80.28944,127.81975 124.050531,127.81975 42.99385,0 124.81775,-34.09887 124.05052,-127.81975 l 0,-173.4965959 z"
     id="Frame"
     style="fill:#003d8f;fill-opacity:1;stroke:#000000;stroke-width:1.88831997" />
  <g
     transform="translate(-328.12152,-49.218228)"
     clip-path="url(#clipPath3108)"
     id="g3006">
    <path
       d="m 352.68694,228.67646 c 0,0 44.55247,-89.69505 60.26541,-121.09817 0,0 -10.47169,83.77275 -11.70064,107.16434 0.70453,7.60155 1.27448,12.06854 1.27448,12.06854"
       id="path2197"
       style="fill:#eeeeee" />
    <path
       d="m 410.04211,225.94041 c 6.86121,-5.10124 137.16007,-14.65584 147.95565,-14.80994 -37.03271,-27.66125 -52.83051,-52.82244 -80.96266,-112.288092 -7.70053,7.052722 -55.87925,29.942542 -61.90492,30.575542 1.91126,2.31542 2.88385,32.58992 -2.23339,34.6292 5.54728,4.49905 0.89403,57.23989 -2.85468,61.89329 z"
       id="path2895"
       style="fill:#eeeeee" />
    <path
       d="m 415.66386,68.863295 -10.98242,174.649395 4.08948,0.28954 8.64367,-174.909526 c 0,0 -0.54886,-2.10959 -0.85958,-1.57181 l -0.89115,1.542401 z"
       id="path2893"
       style="fill:#eeeeee" />
    <path
       d="m 345.18255,226.49942 6.85156,1.60922 32.0387,49.88694 -22.98547,-4e-4 -15.90479,-51.49576 z"
       id="path2883"
       style="fill:#eeeeee;stroke:#003d8f;stroke-width:0;stroke-miterlimit:4;stroke-dasharray:none" />
    <g
       transform="translate(-22.70804,40.969386)"
       id="g3998"
       style="fill:#ffcd50;stroke:#003d8f;stroke-width:2.09039593">
      <use
         transform="translate(-31.83182,0)"
         id="use2916"
         x="0"
         y="0"
         width="251"
         height="304.20001"
         xlink:href="#g2355" />
      <use
         transform="translate(-64.27201,0)"
         id="use2918"
         x="0"
         y="0"
         width="251"
         height="304.20001"
         xlink:href="#g2355" />
      <g
         transform="matrix(0.308615,0,0,0.308615,353.8299,47.742437)"
         id="g2355">
        <path
           d="m 444.44556,500.91058 c 0.004,7.13364 -5.77846,12.91846 -12.9121,12.91846 -7.13364,0 -12.91562,-5.78482 -12.9121,-12.91846 -0.004,-7.13365 5.77846,-12.91847 12.9121,-12.91847 7.13364,0 12.91562,5.78482 12.9121,12.91847 z"
           id="path2357" />
        <path
           d="m 430.84256,482.69558 c 0.004,7.13364 -5.77846,12.91846 -12.9121,12.91846 -7.13364,0 -12.91562,-5.78482 -12.9121,-12.91846 -0.004,-7.13365 5.77846,-12.91847 12.9121,-12.91847 7.13364,0 12.91562,5.78482 12.9121,12.91847 z"
           id="path2359" />
        <path
           d="m 459.20256,478.31458 c 0.004,7.13364 -5.77846,12.91846 -12.9121,12.91846 -7.13364,0 -12.91562,-5.78482 -12.9121,-12.91846 -0.004,-7.13365 5.77846,-12.91847 12.9121,-12.91847 7.13364,0 12.91562,5.78482 12.9121,12.91847 z"
           id="path2361" />
        <path
           d="m 470.27056,506.44458 c 0.004,7.13364 -5.77846,12.91846 -12.9121,12.91846 -7.13364,0 -12.91562,-5.78482 -12.9121,-12.91846 -0.004,-7.13365 5.77846,-12.91847 12.9121,-12.91847 7.13364,0 12.91562,5.78482 12.9121,12.91847 z"
           id="path2363" />
        <path
           d="m 443.06256,515.66758 c 0.004,7.13364 -5.77846,12.91846 -12.9121,12.91846 -7.13364,0 -12.91562,-5.78482 -12.9121,-12.91846 -0.004,-7.13365 5.77846,-12.91847 12.9121,-12.91847 7.13364,0 12.91562,5.78482 12.9121,12.91847 z"
           id="path2365" />
        <path
           d="m 414.93256,507.82758 c 0.004,7.13364 -5.77846,12.91846 -12.9121,12.91846 -7.13364,0 -12.91562,-5.78482 -12.9121,-12.91846 -0.004,-7.13365 5.77846,-12.91847 12.9121,-12.91847 7.13364,0 12.91562,5.78482 12.9121,12.91847 z"
           id="path2367" />
        <path
           d="m 406.17056,482.00358 c 0.004,7.13364 -5.77846,12.91846 -12.9121,12.91846 -7.13364,0 -12.91562,-5.78482 -12.9121,-12.91846 -0.004,-7.13365 5.77846,-12.91847 12.9121,-12.91847 7.13364,0 12.91562,5.78482 12.9121,12.91847 z"
           id="path2369" />
        <path
           d="m 459.66356,483.38758 c 0.004,7.13364 -5.77846,12.91846 -12.9121,12.91846 -7.13364,0 -12.91562,-5.78482 -12.9121,-12.91846 -0.004,-7.13365 5.77846,-12.91847 12.9121,-12.91847 7.13364,0 12.91562,5.78482 12.9121,12.91847 z"
           id="path2371" />
        <path
           d="m 492.40556,486.15458 c 0.004,7.13364 -5.77846,12.91846 -12.9121,12.91846 -7.13364,0 -12.91562,-5.78482 -12.9121,-12.91846 -0.004,-7.13365 5.77846,-12.91847 12.9121,-12.91847 7.13364,0 12.91562,5.78482 12.9121,12.91847 z"
           id="path2373" />
        <path
           d="m 473.49856,506.90558 c 0.004,7.13364 -5.77846,12.91846 -12.9121,12.91846 -7.13364,0 -12.91562,-5.78482 -12.9121,-12.91846 -0.004,-7.13365 5.77846,-12.91847 12.9121,-12.91847 7.13364,0 12.91562,5.78482 12.9121,12.91847 z"
           id="path2375" />
        <path
           d="m 461.50856,522.12358 c 0.004,7.13364 -5.77846,12.91846 -12.9121,12.91846 -7.13364,0 -12.91562,-5.78482 -12.9121,-12.91846 -0.004,-7.13365 5.77846,-12.91847 12.9121,-12.91847 7.13364,0 12.91562,5.78482 12.9121,12.91847 z"
           id="path2377" />
        <path
           d="m 497.47756,520.27858 c 0.004,7.13364 -5.77846,12.91846 -12.9121,12.91846 -7.13364,0 -12.91562,-5.78482 -12.9121,-12.91846 -0.004,-7.13365 5.77846,-12.91847 12.9121,-12.91847 7.13364,0 12.91562,5.78482 12.9121,12.91847 z"
           id="path2379" />
        <path
           d="m 501.16656,505.06058 c 0.004,7.13364 -5.77846,12.91846 -12.9121,12.91846 -7.13364,0 -12.91562,-5.78482 -12.9121,-12.91846 -0.004,-7.13365 5.77846,-12.91847 12.9121,-12.91847 7.13364,0 12.91562,5.78482 12.9121,12.91847 z"
           id="path2381" />
        <path
           d="m 503.93356,486.15458 c 0.004,7.13364 -5.77846,12.91846 -12.9121,12.91846 -7.13364,0 -12.91562,-5.78482 -12.9121,-12.91846 -0.004,-7.13365 5.77846,-12.91847 12.9121,-12.91847 7.13364,0 12.91562,5.78482 12.9121,12.91847 z"
           id="path2383" />
        <path
           d="m 408.93756,505.06058 c 0.004,7.13364 -5.77846,12.91846 -12.9121,12.91846 -7.13364,0 -12.91562,-5.78482 -12.9121,-12.91846 -0.004,-7.13365 5.77846,-12.91847 12.9121,-12.91847 7.13364,0 12.91562,5.78482 12.9121,12.91847 z"
           id="path2385" />
        <path
           d="m 414.47156,518.43458 c 0.004,7.13364 -5.77846,12.91846 -12.9121,12.91846 -7.13364,0 -12.91562,-5.78482 -12.9121,-12.91846 -0.004,-7.13365 5.77846,-12.91847 12.9121,-12.91847 7.13364,0 12.91562,5.78482 12.9121,12.91847 z"
           id="path2387" />
        <path
           d="m 457.81956,525.35158 c 0.004,7.13364 -5.77846,12.91846 -12.9121,12.91846 -7.13364,0 -12.91562,-5.78482 -12.9121,-12.91846 -0.004,-7.13365 5.77846,-12.91847 12.9121,-12.91847 7.13364,0 12.91562,5.78482 12.9121,12.91847 z"
           id="path2389" />
        <path
           d="m 502.55056,522.58458 c 0.004,7.13364 -5.77846,12.91846 -12.9121,12.91846 -7.13364,0 -12.91562,-5.78482 -12.9121,-12.91846 -0.004,-7.13365 5.77846,-12.91847 12.9121,-12.91847 7.13364,0 12.91562,5.78482 12.9121,12.91847 z"
           id="path2391" />
        <path
           d="m 426.59656,503.38358 c 0.004,7.13364 -5.77846,12.91846 -12.9121,12.91846 -7.13364,0 -12.91562,-5.78482 -12.9121,-12.91846 -0.004,-7.13365 5.77846,-12.91847 12.9121,-12.91847 7.13364,0 12.91562,5.78482 12.9121,12.91847 z"
           id="path2393" />
        <path
           d="m 477.13656,483.41658 c 0.004,7.13364 -5.77846,12.91846 -12.9121,12.91846 -7.13364,0 -12.91562,-5.78482 -12.9121,-12.91846 -0.004,-7.13365 5.77846,-12.91847 12.9121,-12.91847 7.13364,0 12.91562,5.78482 12.9121,12.91847 z"
           id="path2395" />
        <path
           d="m 480.88056,524.59758 c 0.004,7.13364 -5.77846,12.91846 -12.9121,12.91846 -7.13364,0 -12.91562,-5.78482 -12.9121,-12.91846 -0.004,-7.13365 5.77846,-12.91847 12.9121,-12.91847 7.13364,0 12.91562,5.78482 12.9121,12.91847 z"
           id="path2397" />
        <path
           d="m 429.71556,523.34958 c 0.004,7.13364 -5.77846,12.91846 -12.9121,12.91846 -7.13364,0 -12.91562,-5.78482 -12.9121,-12.91846 -0.004,-7.13365 5.77846,-12.91847 12.9121,-12.91847 7.13364,0 12.91562,5.78482 12.9121,12.91847 z"
           id="path2399" />
        <path
           d="m 447.18656,475.30558 c 0.004,7.13364 -5.77846,12.91846 -12.9121,12.91846 -7.13364,0 -12.91562,-5.78482 -12.9121,-12.91846 -0.004,-7.13365 5.77846,-12.91847 12.9121,-12.91847 7.13364,0 12.91562,5.78482 12.9121,12.91847 z"
           id="path2401" />
        <path
           d="m 418.48456,490.28058 c 0.004,7.13364 -5.77846,12.91846 -12.9121,12.91846 -7.13364,0 -12.91562,-5.78482 -12.9121,-12.91846 -0.004,-7.13365 5.77846,-12.91847 12.9121,-12.91847 7.13364,0 12.91562,5.78482 12.9121,12.91847 z"
           id="path2403" />
        <path
           d="m 464.03356,497.14358 c 0.004,7.13364 -5.77846,12.91846 -12.9121,12.91846 -7.13364,0 -12.91562,-5.78482 -12.9121,-12.91846 -0.004,-7.13365 5.77846,-12.91847 12.9121,-12.91847 7.13364,0 12.91562,5.78482 12.9121,12.91847 z"
           id="path2405" />
        <path
           d="m 488.99156,498.39158 c 0.004,7.13364 -5.77846,12.91846 -12.9121,12.91846 -7.13364,0 -12.91562,-5.78482 -12.9121,-12.91846 -0.004,-7.13365 5.77846,-12.91847 12.9121,-12.91847 7.13364,0 12.91562,5.78482 12.9121,12.91847 z"
           id="path2407" />
      </g>
    </g>
    <path
       d="m 351.72268,228.43048 c 53.93401,20.1696 133.01589,26.13004 202.47365,12.55794 l -5.95842,35.0749 c -59.82172,1.74276 -119.34541,3.99884 -181.56637,1.60922 l -14.94886,-49.24206 z"
       id="path2885"
       style="fill:#eeeeee;stroke:#003d8f;stroke-width:0;stroke-miterlimit:4;stroke-dasharray:none" />
    <path
       d="m 352.30681,228.50974 3.76302,14.10286 c 54.264,21.63424 127.11892,17.79543 194.80434,11.58199 0.0934,-0.007 0.80159,-0.0246 0.89449,-0.0312 l 2.69101,-13.39221 c -69.45776,13.5721 -158.85296,5.65244 -202.15286,-12.26144 z"
       id="Bradgang"
       style="fill:#000000;stroke:#003d8f;stroke-width:0;stroke-miterlimit:4;stroke-dasharray:none" />
    <path
       d="m 482.70657,94.955153 -70.91103,33.015807 1.64727,2.0652 69.90259,-34.011417 -0.63883,-1.06959 z"
       id="path2893-6"
       style="fill:#eeeeee" />
    <path
       d="m 558.55328,227.97496 5.73632,0.3076 c 0,0 -7.04561,20.46545 -6.03111,27.94028 2.62573,1.35217 6.14491,1.17716 5.95999,2.43421 l -2.53012,17.19878 -11.84078,0.24842 8.7057,-48.12929 0,1e-5 0,-1e-5 z"
       id="path2883-9"
       style="fill:#eeeeee;stroke:#003d8f;stroke-width:0;stroke-miterlimit:4;stroke-dasharray:none" />
    <path
       d="m 521.04573,238.76137 -0.0939,-2.84951 c 3.45501,-0.0879 6.93317,-0.43098 10.89441,-0.81995 5.69728,-0.55937 11.67903,-2.12505 16.14623,-2.2515 l 17.93927,-0.18347 -2.25808,5.78861 c -13.71169,0.23444 -6.88164,-1.94981 -18.77159,-1.8 -4.35313,0.0549 -13.56194,2.03013 -23.85631,2.11578 l 0,4e-5 z"
       id="path2883-1"
       style="fill:#eeeeee;stroke:#003d8f;stroke-width:0;stroke-miterlimit:4;stroke-dasharray:none" />
    <path
       d="m 408.95738,226.27136 0.10187,2.58796 154.19694,-14.94735 0.088,-2.95121 -154.38681,15.3106 z"
       id="path2893-65"
       style="fill:#eeeeee" />
  </g>
</svg>
