<?xml version="1.0" encoding="UTF-8" standalone="no"?>
<!-- Created with Inkscape (http://www.inkscape.org/) -->
<svg
   xmlns:dc="http://purl.org/dc/elements/1.1/"
   xmlns:cc="http://web.resource.org/cc/"
   xmlns:rdf="http://www.w3.org/1999/02/22-rdf-syntax-ns#"
   xmlns:svg="http://www.w3.org/2000/svg"
   xmlns="http://www.w3.org/2000/svg"
   version="1.0"
   width="251"
   height="304.20001"
   id="svg4166">
  <defs
     id="defs4168" />
  <metadata
     id="metadata1880"><rdf:RDF><cc:Work
         rdf:about=""><dc:title>Nykvarn kommunvapen</dc:title><dc:date>13-10-2007</dc:date><dc:creator><cc:Agent><dc:title>Lokal_Profil</dc:title></cc:Agent></dc:creator><cc:license
         rdf:resource="http://creativecommons.org/licenses/by-sa/2.5/" /><dc:rights><cc:Agent><dc:title>cc-by-sa-2.5</dc:title></cc:Agent></dc:rights><dc:format>image/svg+xml</dc:format><dc:type
         rdf:resource="http://purl.org/dc/dcmitype/StillImage" /></cc:Work><cc:License
         rdf:about="http://creativecommons.org/licenses/by-sa/2.5/"><cc:permits
         rdf:resource="http://web.resource.org/cc/Reproduction" /><cc:permits
         rdf:resource="http://web.resource.org/cc/Distribution" /><cc:requires
         rdf:resource="http://web.resource.org/cc/Notice" /><cc:requires
         rdf:resource="http://web.resource.org/cc/Attribution" /><cc:permits
         rdf:resource="http://web.resource.org/cc/DerivativeWorks" /><cc:requires
         rdf:resource="http://web.resource.org/cc/ShareAlike" /></cc:License></rdf:RDF>
  </metadata>
  <path
     d="M 249.55058,1.4395041 L 1.4495291,1.4395041 L 1.4495291,174.9361 C 0.68228908,268.65698 81.738969,302.75585 125.50006,302.75585 C 168.49391,302.75585 250.31781,268.65698 249.55058,174.9361 L 249.55058,1.4395041 z "
     style="color:#000000;fill:#003d8f;stroke:none"
     id="Shield" />
  <path
     d="M 125.5,171.49521 C 97.900003,171.49521 75.5,193.89521 75.5,221.49521 C 75.5,249.09521 97.900003,271.4952 125.5,271.4952 C 153.1,271.4952 175.5,249.09521 175.5,221.49521 C 175.5,193.89521 153.09999,171.49521 125.5,171.49521 z M 125.5,183.99521 C 127.7143,183.99521 129.89074,184.18902 132,184.55771 L 132,203.99521 L 119,203.99521 L 119,184.55771 C 121.10926,184.18902 123.2857,183.99521 125.5,183.99521 z M 108,188.33896 L 108,203.99521 L 92.343747,203.99521 C 95.86967,197.33196 101.33675,191.86488 108,188.33896 z M 143,188.33896 C 149.66325,191.86488 155.13033,197.33196 158.65624,203.99521 L 143,203.99521 L 143,188.33896 z M 88.562504,214.99521 L 108,214.99521 L 108,227.99521 L 88.562504,227.99521 C 88.193809,225.88595 88.000001,223.70951 88.000001,221.49521 C 88.000001,219.28091 88.193809,217.10446 88.562504,214.99521 z M 119,214.99521 L 132,214.99521 L 132,227.99521 L 119,227.99521 L 119,214.99521 z M 143,214.99521 L 162.4375,214.99521 C 162.80618,217.10446 163,219.28091 163,221.49521 C 163,223.70951 162.80618,225.88595 162.4375,227.99521 L 143,227.99521 L 143,214.99521 z M 92.343747,238.99521 L 108,238.99521 L 108,254.65145 C 101.33675,251.12554 95.86967,245.65846 92.343747,238.99521 z M 119,238.99521 L 132,238.99521 L 132,258.43271 C 129.89074,258.80139 127.7143,258.99521 125.5,258.99521 C 123.2857,258.99521 121.10926,258.80139 119,258.43271 L 119,238.99521 z M 143,238.99521 L 158.65624,238.99521 C 155.13033,245.65846 149.66325,251.12554 143,254.65145 L 143,238.99521 z "
     style="fill:#ffcd50;fill-rule:evenodd;stroke:none;stroke-width:1.88800001;stroke-linecap:butt;stroke-miterlimit:4;stroke-opacity:1"
     id="Kvarnhjul" />
  <g
     transform="matrix(0.33206,0,0,0.33206,7.51735,-19.46784)"
     style="display:inline"
     id="Dragonfly">
    <path
       d="M 354.785,104.66026 C 357.40327,104.37831 360.11302,103.99291 363.06599,104.02548 C 366.01896,104.05804 369.21514,104.50858 372.76081,105.87211 C 379.85214,108.59921 384.82956,113.62611 387.79356,118.97166 C 390.75757,124.31722 393.11467,134.06523 391.16943,141.5929 C 389.22424,149.12059 382.86087,157.23876 378.73352,159.85725 C 374.60618,162.47573 380.33869,159.5148 382.48449,165.22403 C 384.63028,170.93325 383.07656,178.88739 385.16788,185.79667 C 387.25921,192.70598 388.41299,202.38244 388.48604,209.60092 C 388.55908,216.81941 383.82061,224.2203 383.14812,230.20241 C 382.47563,236.18452 383.07362,249.42658 382.45563,254.20864 C 381.83764,258.99067 379.36748,263.17943 376.36752,267.45245 C 373.36755,271.72553 374.32815,272.37299 375.87701,277.40696 C 377.24177,281.84263 378.11493,288.055 375.41535,297.28711 C 373.79896,302.81489 368.53174,310.9984 369.03869,320.1969 C 369.77376,333.53409 366.17854,350.60097 366.21104,355.10979 C 366.26589,362.72831 367.19593,397.00672 367.1055,407.82538 C 367.0151,418.64403 368.77857,452.12183 367.45175,463.68602 C 366.12494,475.25022 365.33852,501.23013 363.06599,507.13959 C 360.79344,513.04901 355.76602,535.04105 355.65061,535.24303 C 355.5352,535.44503 350.47892,513.45296 348.20637,507.54354 C 345.93385,501.63405 345.17628,475.65417 343.84947,464.08997 C 342.52263,452.52575 344.28612,419.04798 344.19572,408.22933 C 344.1053,397.41067 345.03532,363.13226 345.09018,355.51374 C 345.12266,351.00491 341.49861,333.93804 342.23367,320.60085 C 342.74063,311.40235 337.50225,303.21884 335.88587,297.69106 C 333.1863,288.45895 334.05945,282.24658 335.42421,277.81091 C 336.97307,272.77693 337.93367,272.12948 334.9337,267.85641 C 331.93374,263.58337 329.46358,259.39462 328.84558,254.61259 C 328.22761,249.83052 328.82558,236.58847 328.1531,230.60636 C 327.48062,224.62424 322.74214,217.22337 322.81517,210.00487 C 322.88822,202.78638 324.04201,193.10993 326.13334,186.20062 C 328.22467,179.29134 326.67093,171.3372 328.81673,165.62798 C 330.96254,159.91874 336.69504,162.87968 332.5677,160.26121 C 328.44036,157.6427 322.07697,149.52454 320.13179,141.99685 C 318.18654,134.46917 320.54365,124.72117 323.50766,119.37561 C 326.47166,114.03005 331.44908,109.00316 338.5404,106.27606 C 342.08608,104.91253 345.2534,104.46199 348.20637,104.42943 C 351.81035,104.162 351.83094,104.5327 354.785,104.66026 z "
       style="fill:#ffcd50;fill-rule:evenodd;stroke:none;stroke-width:0.9233163px;stroke-linecap:butt;stroke-linejoin:miter;stroke-opacity:1"
       id="path3012" />
    <g
       transform="matrix(0.923316,0,0,0.923316,133.2978,-51.71978)"
       id="g5185">
      <path
         d="M 217.57427,230.89497 C 227.54907,226.99178 232.31963,222.22123 236.6565,213.54749 C 240.99337,204.87375 237.95756,192.29682 235.35544,186.22521 C 232.75332,180.15359 232.31963,180.15359 225.38064,170.17879"
         style="fill:none;fill-rule:evenodd;stroke:#003d8f;stroke-width:1.79191148;stroke-linecap:butt;stroke-linejoin:miter;stroke-miterlimit:4;stroke-dasharray:none;stroke-opacity:1;display:inline"
         id="path5167" />
      <path
         d="M 263.99215,230.89497 C 254.01735,226.99178 249.24679,222.22123 244.90992,213.54749 C 240.57305,204.87375 243.60886,192.29682 246.21098,186.22521 C 248.8131,180.15359 249.46363,179.61148 256.40262,169.63668"
         style="fill:none;fill-rule:evenodd;stroke:#003d8f;stroke-width:1.79191148;stroke-linecap:butt;stroke-linejoin:miter;stroke-miterlimit:4;stroke-dasharray:none;stroke-opacity:1;display:inline"
         id="path5169" />
      <path
         d="M 217.57427,230.89497 C 231.01857,226.99178 230.58488,226.5581 240.126,226.12441 C 249.66711,225.69072 253.13661,226.12441 264.41247,230.46128"
         style="fill:none;fill-rule:evenodd;stroke:#003d8f;stroke-width:1.79191148;stroke-linecap:butt;stroke-linejoin:miter;stroke-miterlimit:4;stroke-dasharray:none;stroke-opacity:1;display:inline"
         id="path5171" />
    </g>
    <path
       d="M 336.57154,272.72884 C 343.37887,268.3241 347.37407,265.72132 356.19262,265.72132 C 363.40038,265.72131 370.20769,267.32303 374.21199,271.32734"
       style="fill:none;fill-rule:evenodd;stroke:#003d8f;stroke-width:1.6545006;stroke-linecap:butt;stroke-linejoin:miter;stroke-miterlimit:4;stroke-dasharray:none;stroke-opacity:1;display:inline"
       id="path5190" />
    <path
       d="M 340.97628,312.17122 C 350.58661,308.16692 350.98704,307.56628 356.19263,307.56628 C 361.39822,307.56628 366.80403,308.96777 370.00748,311.37036"
       style="fill:none;fill-rule:evenodd;stroke:#003d8f;stroke-width:1.6545006;stroke-linecap:butt;stroke-linejoin:miter;stroke-miterlimit:4;stroke-dasharray:none;stroke-opacity:1;display:inline"
       id="path5192" />
    <path
       d="M 343.37886,341.40264 C 348.58445,340.60177 350.18617,338.59962 354.99134,339.00005 C 359.7965,339.40048 365.00209,339.40048 367.40467,341.80306"
       style="fill:none;fill-rule:evenodd;stroke:#003d8f;stroke-width:1.6545006;stroke-linecap:butt;stroke-linejoin:miter;stroke-miterlimit:4;stroke-dasharray:none;stroke-opacity:1;display:inline"
       id="path5194" />
    <path
       d="M 344.78037,379.44351 C 347.18295,378.64265 349.38532,377.44136 354.19048,377.44136 C 358.99565,377.44136 363.40037,377.84178 366.60382,379.84394"
       style="fill:none;fill-rule:evenodd;stroke:#003d8f;stroke-width:1.6545006;stroke-linecap:butt;stroke-linejoin:miter;stroke-miterlimit:4;stroke-dasharray:none;stroke-opacity:1;display:inline"
       id="path5196" />
    <path
       d="M 344.17972,418.68568 C 344.17972,418.68568 350.58661,415.48223 355.39177,415.48223 C 360.19694,415.48223 362.59951,416.68352 367.00425,418.68568"
       style="fill:none;fill-rule:evenodd;stroke:#003d8f;stroke-width:1.6545006;stroke-linecap:butt;stroke-linejoin:miter;stroke-miterlimit:4;stroke-dasharray:none;stroke-opacity:1;display:inline"
       id="path5198" />
    <path
       d="M 342.97843,456.32612 C 345.78144,455.52526 350.38639,453.12268 355.59199,453.12268 C 360.79758,453.12268 362.19908,452.72225 367.40467,455.92569"
       style="fill:none;fill-rule:evenodd;stroke:#003d8f;stroke-width:1.6545006;stroke-linecap:butt;stroke-linejoin:miter;stroke-miterlimit:4;stroke-dasharray:none;stroke-opacity:1;display:inline"
       id="path5200" />
    <path
       d="M 345.78144,489.56184 C 347.38316,488.76097 350.38639,485.95796 354.79112,485.95796 C 359.19586,485.95796 362.99995,487.55968 365.00209,489.56184"
       style="fill:none;fill-rule:evenodd;stroke:#003d8f;stroke-width:1.6545006;stroke-linecap:butt;stroke-linejoin:miter;stroke-miterlimit:4;stroke-dasharray:none;stroke-opacity:1;display:inline"
       id="path5202" />
    <path
       d="M 350.18617,515.5898 C 352.18833,515.18937 352.18833,513.58765 354.99134,513.18722 C 357.79435,512.78679 360.79758,514.98915 360.79758,514.98915"
       style="fill:none;fill-rule:evenodd;stroke:#003d8f;stroke-width:1.6545006;stroke-linecap:butt;stroke-linejoin:miter;stroke-miterlimit:4;stroke-dasharray:none;stroke-opacity:1;display:inline"
       id="path5204" />
    <path
       d="M 355.7922,513.58765 L 355.39177,535.21089"
       style="fill:none;fill-rule:evenodd;stroke:#003d8f;stroke-width:1.6545006;stroke-linecap:butt;stroke-linejoin:miter;stroke-miterlimit:4;stroke-dasharray:none;stroke-opacity:1;display:inline"
       id="path5206" />
    <g
       transform="matrix(0.785568,0.485177,-0.485177,0.785568,250.37,-66.552)"
       style="fill:#ffcd50;fill-rule:evenodd;stroke:#003d8f;stroke-width:1.79190946"
       id="g5417">
      <path
         d="M 327,215.10875 C 327,215.10875 345.21485,194.29178 359.09284,185.61804 C 372.97082,176.9443 388.58355,168.27056 405.93103,160.46419 C 423.27851,152.65782 439.75862,144.85146 451.03448,138.77984 C 462.31035,132.70822 490.06631,111.89125 504.81167,99.74801 C 519.55703,87.604774 549.91512,61.583554 560.32361,59.848806 C 570.7321,58.114058 589.81432,52.909814 596.75332,59.848806 C 603.69231,66.787798 608.89655,72.859416 606.29443,82.40053 C 603.69231,91.941644 595.88594,104.08488 586.34483,113.62599 C 576.80371,123.16711 566.39523,137.04509 558.58886,145.71883 C 550.78249,154.39257 533.43501,170.87268 523.8939,180.41379 C 514.35279,189.95491 504.81167,198.62865 491.80106,208.16976 C 478.79045,217.71088 453.63661,235.05836 438.89125,242.86472 C 424.14589,250.67109 411.13528,255.00796 393.7878,257.61008 C 376.44032,260.2122 366.8992,264.54907 356.49072,263.6817 C 346.08223,262.81432 335.67374,260.2122 330.4695,255.00796 C 325.26525,249.80371 319.19363,238.52785 320.06101,230.72149 C 320.92838,222.91512 320.06101,220.313 327,215.10875 z "
         transform="matrix(0.930418,-0.366501,0.366501,0.930418,-107.375,98.85358)"
         id="path2188" />
      <path
         d="M 327,215.10875 C 327,215.10875 345.21485,194.29178 359.09284,185.61804 C 372.97082,176.9443 388.58355,168.27056 405.93103,160.46419 C 423.27851,152.65782 439.75862,144.85146 451.03448,138.77984 C 462.31035,132.70822 490.06631,111.89125 504.81167,99.74801 C 519.55703,87.604774 549.91512,61.583554 560.32361,59.848806 C 570.7321,58.114058 589.81432,52.909814 596.75332,59.848806 C 603.69231,66.787798 608.89655,72.859416 606.29443,82.40053 C 603.69231,91.941644 595.88594,104.08488 586.34483,113.62599 C 576.80371,123.16711 566.39523,137.04509 558.58886,145.71883 C 550.78249,154.39257 533.43501,170.87268 523.8939,180.41379 C 514.35279,189.95491 504.81167,198.62865 491.80106,208.16976 C 478.79045,217.71088 453.63661,235.05836 438.89125,242.86472 C 424.14589,250.67109 411.13528,255.00796 393.7878,257.61008 C 376.44032,260.2122 366.8992,264.54907 356.49072,263.6817 C 346.08223,262.81432 335.67374,260.2122 330.4695,255.00796 C 325.26525,249.80371 319.19363,238.52785 320.06101,230.72149 C 320.92838,222.91512 320.06101,220.313 327,215.10875 z "
         transform="matrix(-0.744312,0.667832,0.667832,0.744312,329.8582,-171.1871)"
         id="path4617" />
      <path
         d="M 244.84168,265.8508 C 244.84168,265.8508 221.75862,276.92525 207.78896,285.45056 C 193.81931,293.97587 178.52259,306.19413 161.72699,315.92755 C 145.2681,325.46585 131.53211,335.21606 121.05428,342.57979 C 110.57644,349.94354 79.534862,365.44066 62.074561,373.18804 C 44.614264,380.93542 7.7541643,396.429 1.5425348,404.95904 C -4.6690948,413.48909 -17.866732,428.22129 -14.769204,437.53282 C -11.671671,446.84435 -8.5729537,454.21637 1.1233982,456.16179 C 10.81975,458.10721 25.17305,456.56436 37.976394,452.30526 C 50.779752,448.04615 67.8493,444.95335 79.100336,441.857 C 90.351372,438.76065 112.85463,430.62845 125.65798,426.36934 C 138.46133,422.11024 150.48912,417.46275 164.84596,410.10138 C 179.20282,402.74001 205.977,388.01609 219.55947,378.32683 C 233.14193,368.63758 255.89643,350.532 269.6301,341.16046 C 278.13532,335.35669 293.80296,328.18617 303.85053,323.99668 C 314.23588,319.66635 306.19669,313.80892 304.75039,310.72295 C 302.86494,306.70001 302.19964,301.09653 298.10035,296.29204 C 294.48303,292.05243 287.50729,288.61837 284.41023,284.82869 C 279.75287,279.12979 277.32693,277.72143 272.46025,269.13125 C 270.77386,266.1546 269.34339,252.6491 265.37813,252.07943 C 260.46537,251.37364 249.22185,263.66405 244.84168,265.8508 z "
         id="path4961" />
      <path
         d="M 321.47115,218.52344 C 321.47115,218.52344 341.70906,202.84231 355.58705,194.16857 C 369.46503,185.49483 387.23928,177.28804 403.46284,166.62842 C 419.36117,156.18249 434.22977,148.26615 445.50563,142.19453 C 456.7815,136.12291 484.53746,115.30594 499.28282,103.1627 C 514.02818,91.019455 544.38627,64.998235 554.79476,63.263487 C 565.20325,61.528739 584.28547,56.324495 591.22447,63.263487 C 598.16346,70.202479 603.3677,76.274097 600.76558,85.815211 C 598.16346,95.356325 590.35709,107.49957 580.81598,117.04068 C 571.27486,126.5818 560.86638,140.45978 553.06001,149.13352 C 545.25364,157.80726 527.90616,174.28737 518.36505,183.82848 C 508.82394,193.3696 499.28282,202.04334 486.27221,211.58445 C 473.2616,221.12557 448.10776,238.47305 433.3624,246.27941 C 418.61704,254.08578 392.23933,266.32487 377.71035,274.40869 C 368.7126,279.41498 355.28572,290.2136 347.04078,297.32179 C 338.51866,304.66895 336.88083,294.85796 334.7691,292.18297 C 332.0162,288.69578 327.30372,285.59189 324.84326,279.77524 C 322.67208,274.64247 322.72495,266.86745 320.72313,262.40134 C 317.71281,255.68521 317.53976,252.88544 312.03791,244.68755 C 310.13142,241.84683 298.69593,234.52056 299.96204,230.71993 C 301.53069,226.01114 317.5546,221.46085 321.47115,218.52344 z "
         id="path3726" />
    </g>
    <path
       d="M 323.49095,202.94757 C 328.17913,205.82265 332.06925,212.60605 338.31934,210.31073 C 346.67662,207.24156 350.62814,198.46232 355.20341,190.4891 C 359.77868,198.13267 361.12583,205.95069 373.81836,212.31376 C 377.04457,208.64253 383.38097,206.49558 387.76531,201.81498"
       style="fill:none;fill-rule:evenodd;stroke:#003d8f;stroke-width:1.6545006;stroke-linecap:butt;stroke-linejoin:miter;stroke-miterlimit:4;stroke-dasharray:none;stroke-opacity:1"
       id="path5394" />
    <path
       d="M 354.92027,157.07776 L 355.20341,191.0554"
       style="fill:none;fill-rule:evenodd;stroke:#003d8f;stroke-width:1.6545006;stroke-linecap:butt;stroke-linejoin:miter;stroke-miterlimit:4;stroke-dasharray:none;stroke-opacity:1"
       id="path5396" />
    <g
       transform="matrix(0.923316,0,0,0.923316,83.09918,-19.78547)"
       id="g7413">
      <path
         d="M 280.66138,135.67047 C 280.66138,133.50204 278.49295,127.86411 279.79401,127.64726 C 281.09507,127.43042 283.2635,132.20098 284.13087,135.23679"
         style="fill:#ffcd50;fill-rule:evenodd;stroke:none;stroke-width:1px;stroke-linecap:butt;stroke-linejoin:miter;stroke-opacity:1"
         id="path5410" />
      <path
         d="M 309.8214,135.45185 C 309.8214,133.28342 311.98983,127.64549 310.68877,127.42864 C 309.38771,127.2118 307.43612,131.33183 306.56875,134.36764"
         style="fill:#ffcd50;fill-rule:evenodd;stroke:none;stroke-width:1px;stroke-linecap:butt;stroke-linejoin:miter;stroke-opacity:1"
         id="path5412" />
    </g>
  </g>
  <path
     d="M 249.55062,1.4395041 L 1.449569,1.4395041 L 1.449569,174.9361 C 0.68232904,268.65698 81.739009,302.75585 125.5001,302.75585 C 168.49395,302.75585 250.31785,268.65698 249.55062,174.9361 L 249.55062,1.4395041 z "
     style="fill:none;fill-opacity:0;stroke:#000000;stroke-width:1.88832211;stroke-linejoin:bevel"
     id="Frame" />
</svg>
