<?xml version="1.0" encoding="UTF-8" standalone="no"?>
<!-- Created with Inkscape (http://www.inkscape.org/) -->
<svg
   xmlns:dc="http://purl.org/dc/elements/1.1/"
   xmlns:cc="http://web.resource.org/cc/"
   xmlns:rdf="http://www.w3.org/1999/02/22-rdf-syntax-ns#"
   xmlns:svg="http://www.w3.org/2000/svg"
   xmlns="http://www.w3.org/2000/svg"
   version="1.0"
   width="251"
   height="304.20001"
   id="svg4166">
  <defs
     id="defs4168" />
  <metadata
       id="metadata1880"><rdf:RDF><cc:Work
           rdf:about=""><dc:title>Sodertalje vapen</dc:title><dc:date>2008-09-03</dc:date><dc:creator><cc:Agent><dc:title>Lokal_Profil</dc:title></cc:Agent></dc:creator><cc:license
           rdf:resource="http://creativecommons.org/licenses/by-sa/2.5/" /><dc:rights><cc:Agent><dc:title>cc-by-sa-2.5</dc:title></cc:Agent></dc:rights><dc:format>image/svg+xml</dc:format><dc:type
           rdf:resource="http://purl.org/dc/dcmitype/StillImage" /></cc:Work><cc:License
           rdf:about="http://creativecommons.org/licenses/by-sa/2.5/"><cc:permits
           rdf:resource="http://web.resource.org/cc/Reproduction" /><cc:permits
           rdf:resource="http://web.resource.org/cc/Distribution" /><cc:requires
           rdf:resource="http://web.resource.org/cc/Notice" /><cc:requires
           rdf:resource="http://web.resource.org/cc/Attribution" /><cc:permits
           rdf:resource="http://web.resource.org/cc/DerivativeWorks" /><cc:requires
           rdf:resource="http://web.resource.org/cc/ShareAlike" /></cc:License></rdf:RDF>
  </metadata>
  <path
     d="M 249.55058,1.4395041 L 1.4495291,1.4395041 L 1.4495291,174.9361 C 0.68228908,268.65698 81.738969,302.75585 125.50006,302.75585 C 168.49391,302.75585 250.31781,268.65698 249.55058,174.9361 L 249.55058,1.4395041 z"
     id="Shield"
     style="fill:#003d8f;stroke:none" />
  <g
     transform="matrix(0.1326053,0,0,0.1326053,-6.1228464,-1.9987197)"
     id="Kvinna-m-attribut"
     style="fill:#eeeeee;stroke:#003d8f;stroke-width:5">
    <path
       d="M 1259.489,389.7483 C 1259.489,560.02211 1121.2958,698.21534 951.02206,698.21534 C 780.74825,698.21534 642.55501,560.02211 642.55501,389.7483 C 642.55501,219.47449 780.74825,81.281247 951.02206,81.281247 C 1121.2958,81.281247 1259.489,219.47449 1259.489,389.7483 z"
       id="Halo"
       style="fill:none;stroke:#ffcd50;stroke-width:56.55882645" />
    <path
       d="M 437.1407,857.83903 C 410.73386,870.34753 346.04013,837.86108 340.98473,831.40963 C 334.17577,822.72036 249.96401,791.7045 244.45572,801.7277 C 243.4453,817.19336 281.19701,829.11992 284.93538,834.46045 L 266.19115,890.26848 C 278.96688,906.71416 339.38906,903.70354 339.38906,903.70354 L 436.67742,937.05955"
       id="V-hand"
       style="fill:#ffcd50" />
    <path
       d="M 1449.5252,646.28075 C 1495.3314,610.29083 1532.7914,545.14056 1537.8468,538.68911 C 1544.6558,529.99984 1609.0951,499.73011 1614.6034,509.75331 C 1615.6138,525.21897 1577.8621,537.14553 1574.1237,542.48606 L 1592.8679,598.29409 C 1580.0922,614.73977 1545.7846,627.02481 1545.7846,627.02481 C 1519.4594,648.78271 1508.5325,670.54061 1489.9064,692.29851"
       id="H-hand"
       style="fill:#ffcd50" />
    <path
       d="M 1142.1508,615.72232 C 1116.9091,521.51904 1096.8197,254.87473 960.82359,258.35379 C 824.82783,254.87473 804.73852,521.51904 779.49682,615.72232 C 900.38146,615.72232 1021.2662,615.72232 1142.1508,615.72232 z"
       id="Dok" />
    <g
       id="Dress">
      <path
         d="M 955.27309,2180.0733 C 952.94458,2215.7772 901.85119,2253.5397 891.62706,2253.0334 C 865.02386,2251.7161 848.16147,2205.687 852.8185,2181.6257"
         id="path4974" />
      <path
         d="M 1060.0609,2173.0878 C 1062.3894,2208.7917 1113.4828,2246.5542 1123.7069,2246.0479 C 1150.3101,2244.7306 1167.1725,2198.7015 1162.5155,2174.6402"
         id="use4976" />
      <path
         d="M 515.16138,852.93764 C 643.02304,830.96142 666.19057,672.31226 728.43915,625.61567 C 767.60509,596.23482 866.38979,593.1045 866.38979,593.1045 L 1055.4633,587.28182 C 1055.4633,587.28182 1139.7613,577.70206 1167.2973,602.49577 C 1318.4212,738.56918 1326.8637,678.7364 1396.788,684.72992 L 1355.7136,1004.1898 C 1283.7914,988.20709 1137.6975,885.61965 1137.6975,885.61965 L 785.83788,997.85463 C 785.83788,997.85463 673.68615,1086.3338 614.60733,1117.68 C 579.25541,1136.437 507.85337,1119.2767 502.85877,1107.2897 L 515.16138,852.93764 z"
         id="path4930" />
      <path
         d="M 543.42671,982.40106 C 540.95895,1053.0685 521.65307,1109.9578 505.28404,1109.3862 C 488.91501,1108.8146 479.64183,1050.9974 482.10959,980.32998 C 484.57735,909.66256 497.85617,852.77322 514.2252,853.34484 C 530.59423,853.91646 545.89447,911.73364 543.42671,982.40106 z"
         id="path4932" />
      <path
         d="M 519.85087,857.29573 C 492.29679,863.69914 438.59719,845.24567 427.58051,855.84007 C 426.68028,913.03032 419.90003,927.92261 417.03467,938.89945 C 443.78602,957.34552 536.35522,957.97571 541.39594,956.96757"
         id="path4960" />
      <path
         d="M 1404.2073,848.58269 C 1392.7222,935.82045 1373.5716,1004.7991 1356.5097,1002.5529 C 1339.4478,1000.3066 1334.9217,927.68189 1346.4068,840.44414 C 1357.8919,753.20636 1380.4943,682.24653 1397.5562,684.49277 C 1414.6181,686.73901 1415.6923,761.34492 1404.2073,848.58269 z"
         id="path4937" />
      <path
         d="M 1146.9067,669.39196 C 1163.7989,1188.2198 1347.6564,1954.7488 1288.1752,2162.6001 C 1154.9929,2206.4895 731.16126,2205.2232 713.21233,2173.9016 C 645.91734,1966.6073 766.11111,1348.3009 771.13242,910.96112"
         id="path4939" />
      <path
         d="M 775.37048,721.66131 C 778.19585,894.00889 781.02122,915.19917 868.60769,912.3738"
         id="path4941" />
      <path
         d="M 1073.447,916.61186 C 1101.7007,924.38163 1165.2716,912.72697 1154.853,812.24975 C 1154.853,812.24975 1147.009,669.80131 1147.009,669.80131"
         id="path4943" />
      <path
         d="M 1391.3217,688.52789 C 1392.1707,693.6224 1438.7749,656.28991 1453.9692,634.99719 C 1465.7286,667.19114 1488.1624,682.32411 1498.1125,688.36327 C 1432.3418,762.92247 1401.7383,916.90964 1342.628,910.53034"
         id="path4962" />
    </g>
    <path
       d="M 865.1482,592.99004 C 898.8983,561.95194 902.29754,518.39542 901.99624,476.50902 C 940.79521,498.78552 975.71094,499.01699 1012.7484,480.89431 C 1019.3779,521.87661 1020.3733,579.7204 1056.4994,586.94568 C 1038.272,629.97889 986.46143,640.55302 958.89398,640.35494 C 925.87813,640.11771 881.19779,627.95941 865.1482,592.99004 z"
       id="Neck"
       style="fill:#ffcd50" />
    <path
       d="M 919.54827,486.56466 C 884.65514,469.26336 884.04509,449.85994 880.67537,416.05096 C 875.61634,365.2929 876.59448,294.27532 935.21797,271.70896 C 970.21799,258.23615 1028.9377,274.91839 1037.3724,329.26496 C 1044.2219,373.39748 1047.9659,426.41154 1028.3322,466.37496 C 1016.8401,489.7666 957.51617,505.39055 919.54827,486.56466 z"
       id="Face"
       style="fill:#ffcd50" />
    <g
       transform="translate(6.7178696,0)"
       id="Face-lines"
       style="fill:#003d8f;stroke-width:8;stroke-linecap:round">
      <path
         d="M 894.73047,342.31952 C 899.05377,337.03548 923.5525,333.19256 931.71875,343.28027"
         id="path5065"
         style="fill:none" />
      <path
         d="M 932.15066,453.0178 C 931.62203,454.72677 932.28674,456.57941 933.78125,457.5625 C 939.31044,461.36382 947.2682,461.87519 955.84375,461.75 C 964.4193,461.62481 973.37097,459.68605 979.875,457.86492 C 982.0151,457.26949 983.14584,455.17337 982.55041,453.03327 C 981.95497,450.89316 979.73738,449.64096 977.59728,450.23639 C 977.59728,450.23639 936.0625,450.1875 936.0625,450.1875 C 934.10079,450.23422 932.93034,451.32057 932.15066,453.0178 z"
         id="use5071"
         style="stroke:none" />
      <path
         d="M 941.32609,420.61938 C 962.94261,421.58011 966.17977,415.06048 960.06041,376.4256 C 955.26939,346.17721 967.36975,334.18783 984.20835,336.14586 C 1000.5078,338.04119 1014.8223,339.19714 1013.3812,335.11402"
         id="path5069"
         style="fill:none" />
      <path
         d="M 916.34521,367.74074 C 916.34521,370.49266 913.93996,372.7261 910.97636,372.7261 C 908.01276,372.7261 905.60751,370.49266 905.60751,367.74074 C 905.60751,364.98883 908.01276,362.75539 910.97636,362.75539 C 913.93996,362.75539 916.34521,364.98883 916.34521,367.74074 z"
         id="path5079" />
      <path
         d="M 1001.0963,367.74074 C 1001.0963,370.49266 998.69104,372.7261 995.72744,372.7261 C 992.76384,372.7261 990.35859,370.49266 990.35859,367.74074 C 990.35859,364.98883 992.76384,362.75539 995.72744,362.75539 C 998.69104,362.75539 1001.0963,364.98883 1001.0963,367.74074 z"
         id="use5081" />
    </g>
    <g
       transform="matrix(1.0669264,0,0,1.0669264,-26.194564,-362.10999)"
       id="Staff"
       style="fill:#ffcd50;stroke:#003d8f;stroke-width:5">
      <rect
         width="37.249912"
         height="1660.5558"
         rx="18.624956"
         ry="23.952997"
         x="265.00427"
         y="462.00241"
         id="rect5132" />
      <path
         d="M 313.37054,463.02584 C 313.38084,479.45881 300.06219,492.78581 283.62923,492.78581 C 267.19627,492.78581 253.87761,479.45881 253.88791,463.02584 C 253.87761,446.59288 267.19627,433.26588 283.62923,433.26588 C 300.06219,433.26588 313.38084,446.59288 313.37054,463.02584 L 313.37054,463.02584 z"
         id="path5134" />
    </g>
    <g
       id="V-hand-fingers"
       style="fill:#ffcd50">
      <path
         d="M 295.67535,844.25653 C 294.35933,849.16795 277.93373,849.03899 267.47348,846.23617 C 253.22207,842.41753 242.10878,837.62743 244.03979,830.42081 C 246.01761,823.03947 257.99024,824.6225 272.24165,828.44116 C 283.3222,831.41019 296.99136,839.3451 295.67535,844.25653 z"
         id="path5009" />
      <path
         d="M 291.9036,862.47829 C 290.58549,867.61201 273.4631,867.65688 262.52943,864.84959 C 247.633,861.02485 235.99694,856.15327 237.93103,848.62048 C 239.91202,840.90507 252.40878,842.42443 267.30521,846.24918 C 278.88726,849.22295 293.22172,857.34458 291.9036,862.47829 z"
         id="use5012" />
      <path
         d="M 292.41529,880.8119 C 291.34178,885.69451 275.20309,886.30043 264.80421,884.01409 C 250.63641,880.8991 239.50749,876.69002 241.08267,869.52568 C 242.69605,862.18765 254.52595,863.20849 268.69375,866.32348 C 279.70929,868.74541 293.4888,875.92928 292.41529,880.8119 z"
         id="use5014" />
      <path
         d="M 293.16848,896.02571 C 292.40275,900.55295 277.62507,901.83288 267.98305,900.20206 C 254.84642,897.98017 244.44843,894.61826 245.57199,887.97536 C 246.7228,881.17141 257.62079,882.91225 270.75742,885.13415 C 280.97122,886.86169 293.9342,891.49847 293.16848,896.02571 z"
         id="use5016" />
    </g>
    <g
       id="H-hand-fingers"
       style="fill:#ffcd50">
      <path
         d="M 1563.3837,552.28214 C 1564.6998,557.19356 1581.1254,557.0646 1591.5856,554.26178 C 1605.837,550.44314 1616.9503,545.65304 1615.0193,538.44642 C 1613.0415,531.06508 1601.0689,532.64811 1586.8175,536.46677 C 1575.7369,539.4358 1562.0677,547.37071 1563.3837,552.28214 z"
         id="path5057" />
      <path
         d="M 1567.1555,570.5039 C 1568.4736,575.63762 1585.596,575.68249 1596.5297,572.8752 C 1611.4261,569.05046 1623.0622,564.17888 1621.1281,556.64609 C 1619.1471,548.93068 1606.6503,550.45004 1591.7539,554.27479 C 1580.1718,557.24856 1565.8374,565.37019 1567.1555,570.5039 z"
         id="path5059" />
      <path
         d="M 1566.6438,588.83751 C 1567.7173,593.72012 1583.856,594.32604 1594.2549,592.0397 C 1608.4227,588.92471 1619.5516,584.71563 1617.9764,577.55129 C 1616.363,570.21326 1604.5331,571.2341 1590.3654,574.34909 C 1579.3498,576.77102 1565.5703,583.95489 1566.6438,588.83751 z"
         id="path5061" />
      <path
         d="M 1565.8906,604.05132 C 1566.6563,608.57856 1581.434,609.85849 1591.076,608.22767 C 1604.2127,606.00578 1614.6107,602.64387 1613.4871,596.00097 C 1612.3363,589.19702 1601.4383,590.93786 1588.3017,593.15976 C 1578.0879,594.8873 1565.1249,599.52408 1565.8906,604.05132 z"
         id="path5063" />
    </g>
    <path
       d="M 833.05429,180.99202 C 851.35316,206.89562 862.38252,237.22634 864.99662,268.8335 L 864.99662,316.74701 C 928.43772,306.09958 993.20969,306.09958 1056.6506,316.74701 L 1056.6506,268.8335 C 1059.2648,237.22634 1070.2943,206.89562 1088.5933,180.99202 C 1080.7785,173.88638 1068.7603,174.1718 1061.292,181.64038 C 1053.8235,189.10896 1053.5378,201.12692 1060.6435,208.94159 L 1054.886,221.60761 C 1051.5162,215.04791 1044.0935,211.64828 1036.9254,213.38172 C 1029.7574,215.11516 1024.7083,221.53097 1024.7083,228.90555 C 1024.7083,233.81805 1026.9692,238.45722 1030.8382,241.48426 C 1034.7074,244.51128 1039.7543,245.58937 1044.5223,244.40735 L 1040.6796,252.8623 C 1038.9613,258.01839 1034.1361,261.49633 1028.7011,261.49633 C 1023.2661,261.49633 1018.4411,258.01839 1016.7227,252.8623 L 1016.7227,204.9488 C 1021.1331,204.9488 1024.7083,201.37353 1024.7083,196.96321 C 1024.7083,192.55289 1021.1331,188.97761 1016.7227,188.97761 C 1012.3125,188.97761 1008.7371,192.55289 1008.7371,196.96321 C 1008.7371,200.52883 1011.1008,203.66242 1014.5293,204.64177 L 1000.7516,252.8623 C 998.9069,258.68189 993.06352,262.25925 987.04164,261.2556 C 981.01978,260.25196 976.6524,254.97279 976.79488,248.86951 L 974.99101,233.53986 C 979.80793,237.27663 986.33201,237.94525 991.80677,235.26318 C 997.28151,232.58115 1000.7519,227.01638 1000.7516,220.91999 C 1000.7516,214.14335 996.47508,208.10451 990.08283,205.85468 C 983.69058,203.60485 976.57445,205.63394 972.33006,210.91669 L 971.3416,202.51676 C 979.56528,198.49823 984.78055,190.14504 984.78043,180.99202 C 984.78028,169.54553 976.6827,159.69819 965.45178,157.48691 L 964.81648,153.04249 C 964.81648,150.83733 963.02885,149.0497 960.82369,149.0497 C 958.61853,149.0497 956.83088,150.83733 956.83088,153.04249 L 956.1956,157.48691 C 944.96469,159.69819 936.86708,169.54553 936.86693,180.99202 C 936.8668,190.14504 942.08207,198.49823 950.30578,202.51676 L 949.31735,210.91669 C 945.07291,205.63394 937.9568,203.60485 931.56455,205.85468 C 925.17229,208.10451 920.89575,214.14335 920.89575,220.91999 C 920.89548,227.01638 924.36588,232.58115 929.84063,235.26318 C 935.31539,237.94525 941.83942,237.27663 946.65637,233.53986 L 944.85252,248.86951 C 944.99496,254.97279 940.62763,260.25196 934.60573,261.2556 C 928.58386,262.25925 922.74045,258.68189 920.89575,252.8623 L 907.11795,204.64177 C 910.54643,203.66242 912.91022,200.52883 912.91018,196.96321 C 912.91018,192.55289 909.33487,188.97761 904.92456,188.97761 C 900.51427,188.97761 896.939,192.55289 896.939,196.96321 C 896.939,201.37353 900.51427,204.9488 904.92456,204.9488 L 904.92456,252.8623 C 903.20618,258.01839 898.38112,261.49633 892.9462,261.49633 C 887.51127,261.49633 882.68621,258.01839 880.96781,252.8623 L 877.12497,244.40735 C 881.89316,245.58937 886.94,244.51128 890.80908,241.48426 C 894.67816,238.45722 896.93895,233.81805 896.939,228.90555 C 896.93907,221.53097 891.88993,215.11516 884.72197,213.38172 C 877.55399,211.64828 870.13117,215.04791 866.76146,221.60761 L 861.00385,208.94159 C 868.10948,201.12692 867.82408,189.10896 860.35552,181.64038 C 852.88694,174.1718 840.869,173.88638 833.05429,180.99202 z"
       id="Crown"
       style="fill:#ffcd50;stroke-width:4" />
    <path
       d="M 933.27324,715.79534 L 933.27324,770.89652 L 878.17206,770.89652 L 878.17206,825.9977 L 933.27324,825.9977 L 933.27324,881.09888 L 988.37444,881.09888 L 988.37444,825.9977 L 1043.4755,825.9977 L 1043.4755,770.89652 L 988.37444,770.89652 L 988.37444,715.79534 L 933.27324,715.79534 z"
       id="rect2571"
       style="fill:#d40000;stroke:none" />
  </g>
  <path
     d="M 249.55062,1.4395041 L 1.449569,1.4395041 L 1.449569,174.9361 C 0.68232904,268.65698 81.739009,302.75585 125.5001,302.75585 C 168.49395,302.75585 250.31785,268.65698 249.55062,174.9361 L 249.55062,1.4395041 z"
     id="Frame"
     style="fill:none;fill-opacity:0;stroke:#000000;stroke-width:1.88832211;stroke-linejoin:bevel" />
</svg>
