<?xml version="1.0" encoding="UTF-8" standalone="no"?>
<!-- Created with Inkscape (http://www.inkscape.org/) -->
<svg
   xmlns:dc="http://purl.org/dc/elements/1.1/"
   xmlns:cc="http://web.resource.org/cc/"
   xmlns:rdf="http://www.w3.org/1999/02/22-rdf-syntax-ns#"
   xmlns:svg="http://www.w3.org/2000/svg"
   xmlns="http://www.w3.org/2000/svg"
   xmlns:xlink="http://www.w3.org/1999/xlink"
   version="1.0"
   width="251"
   height="304.20001"
   id="svg4166">
  <defs
     id="defs4168" />
  <metadata
     id="metadata1880"><rdf:RDF><cc:Work
         rdf:about=""><dc:title>Sundbyberg kommunvapen</dc:title><dc:date>09-10-2007</dc:date><dc:creator><cc:Agent><dc:title>Lokal_Profil</dc:title></cc:Agent></dc:creator><cc:license
         rdf:resource="http://creativecommons.org/licenses/by-sa/2.5/" /><dc:rights><cc:Agent><dc:title>cc-by-sa-2.5</dc:title></cc:Agent></dc:rights><dc:format>image/svg+xml</dc:format><dc:type
         rdf:resource="http://purl.org/dc/dcmitype/StillImage" /></cc:Work><cc:License
         rdf:about="http://creativecommons.org/licenses/by-sa/2.5/"><cc:permits
         rdf:resource="http://web.resource.org/cc/Reproduction" /><cc:permits
         rdf:resource="http://web.resource.org/cc/Distribution" /><cc:requires
         rdf:resource="http://web.resource.org/cc/Notice" /><cc:requires
         rdf:resource="http://web.resource.org/cc/Attribution" /><cc:permits
         rdf:resource="http://web.resource.org/cc/DerivativeWorks" /><cc:requires
         rdf:resource="http://web.resource.org/cc/ShareAlike" /></cc:License></rdf:RDF>
  </metadata>
  <path
     d="M 249.55058,1.4395041 L 1.4495291,1.4395041 L 1.4495291,174.9361 C 0.68228908,268.65698 81.738969,302.75585 125.50006,302.75585 C 168.49391,302.75585 250.31781,268.65698 249.55058,174.9361 L 249.55058,1.4395041 z "
     style="color:#000000;fill:#eeeeee;fill-opacity:1;stroke:none"
     id="Shield" />
  <rect
     width="248.11072"
     height="65.120682"
     x="0.5"
     y="105.36733"
     style="fill:#d40000;fill-opacity:1;fill-rule:evenodd;stroke:none;stroke-width:1.88800001;stroke-linecap:butt;stroke-miterlimit:4;stroke-dasharray:none;stroke-opacity:1"
     id="Bjalke" />
  <g
     transform="matrix(0,-0.596653,0.704487,0,-18.24646,50.30641)"
     style="fill:#eeeeee;fill-opacity:1"
     id="Antik-blixt">
    <path
       d="M -152.42825,210.0929 C -152.42422,254.87465 -158.38325,291.19045 -165.73548,291.19045 C -173.0877,291.19045 -179.04673,254.87465 -179.0427,210.0929 C -179.04673,165.31115 -173.0877,128.99535 -165.73548,128.99535 C -158.38325,128.99535 -152.42422,165.31115 -152.42825,210.0929 L -152.42825,210.0929 z "
       transform="matrix(1.257947,0,0,1,60.8972,0)"
       style="fill:#eeeeee;fill-opacity:1;stroke:none;stroke-width:5;stroke-miterlimit:4;stroke-dasharray:none;stroke-opacity:1"
       id="path4632" />
    <g
       transform="matrix(0.712492,0,0,1,-68.9401,-23.38846)"
       style="fill:#eeeeee;fill-opacity:1"
       id="g4654">
      <path
         d="M -110.38593,249.84625 C -108.94445,241.72956 -108.23219,235.4714 -106.74928,227.46251 C -104.5306,231.56686 -103.59088,233.20697 -99.76286,240.65101 C -96.03289,247.90433 -90.67505,258.21571 -87.85652,263.56517 C -82.75763,273.24271 -82.72949,273.28084 -82.23989,271.17814 C -81.96927,270.01583 -81.69713,267.43948 -81.63514,265.45292 C -81.37856,257.23071 -80.0727,248.89587 -78.95812,248.36665 C -78.69959,248.24389 -73.23675,258.64817 -66.81849,271.48729 L -53.90995,297.44052 C -52.78294,293.52396 -51.93513,291.2093 -50.43925,285.13706 C -48.39716,292.86816 -48.44536,301.26572 -47.79991,309.27036 C -47.41516,313.97118 -47.18904,317.77805 -47.29742,317.73011 C -55.36827,309.88796 -55.676,309.48209 -72.27588,294.61621 C -62.82402,298.85926 -63.87875,298.22734 -59.13078,299.91888 C -58.86428,299.79317 -62.91629,292.20832 -67.38192,282.80337 C -71.84756,273.39843 -75.6415,265.77007 -75.81289,265.85144 C -75.9843,265.93283 -77.01054,272.20253 -78.09345,279.78412 L -80.06237,293.56883 L -90.63268,272.49277 C -96.44635,260.90093 -102.06692,249.57563 -102.67467,248.55945 C -103.37504,252.10889 -105.86986,266.1671 -107.42759,271.44074"
         style="fill:#eeeeee;fill-opacity:1"
         id="path4612" />
      <path
         d="M -110.38593,249.84625 C -111.82741,241.72956 -112.53967,235.4714 -114.02258,227.46251 C -116.24126,231.56686 -117.18098,233.20697 -121.009,240.65101 C -124.73897,247.90433 -130.09681,258.21571 -132.91534,263.56517 C -138.01423,273.24271 -138.04237,273.28084 -138.53197,271.17814 C -138.80259,270.01583 -139.07473,267.43948 -139.13672,265.45292 C -139.3933,257.23071 -140.69916,248.89587 -141.81374,248.36665 C -142.07227,248.24389 -147.53511,258.64817 -153.95337,271.48729 L -166.86191,297.44052 C -167.98892,293.52396 -168.83673,291.2093 -170.33261,285.13706 C -172.3747,292.86816 -172.3265,301.26572 -172.97195,309.27036 C -173.3567,313.97118 -173.58282,317.77805 -173.47444,317.73011 C -165.40359,309.88796 -165.09586,309.48209 -148.49598,294.61621 C -157.94784,298.85926 -156.89311,298.22734 -161.64108,299.91888 C -161.90758,299.79317 -157.85557,292.20832 -153.38994,282.80337 C -148.9243,273.39843 -145.13036,265.77007 -144.95897,265.85144 C -144.78756,265.93283 -143.76132,272.20253 -142.67841,279.78412 L -140.70949,293.56883 L -130.13918,272.49277 C -124.32551,260.90093 -118.70494,249.57563 -118.09719,248.55945 C -117.39682,252.10889 -114.902,266.1671 -113.34427,271.44074"
         style="fill:#eeeeee;fill-opacity:1"
         id="path4634" />
    </g>
    <g
       transform="matrix(0.712492,0,0,1,-26.99253,0)"
       style="fill:#eeeeee;fill-opacity:1"
       id="g4650">
      <path
         d="M -169.26033,163.88754 C -167.81885,172.00423 -167.10659,178.26239 -165.62368,186.27128 C -163.405,182.16693 -162.46528,180.52682 -158.63726,173.08278 C -154.90729,165.82946 -149.54945,155.51808 -146.73092,150.16862 C -141.63203,140.49108 -141.60389,140.45295 -141.11429,142.55565 C -140.84367,143.71796 -140.57153,146.29431 -140.50954,148.28087 C -140.25296,156.50308 -138.9471,164.83792 -137.83252,165.36714 C -137.57399,165.4899 -132.11115,155.08562 -125.69289,142.2465 L -112.78435,116.29327 C -111.65734,120.20983 -110.80953,122.52449 -109.31365,128.59673 C -107.27156,120.86563 -107.31976,112.46807 -106.67431,104.46344 C -106.28956,99.762619 -106.06344,95.955749 -106.17182,96.003689 C -114.24267,103.84584 -114.5504,104.25171 -131.15028,119.11758 C -121.69842,114.87453 -122.75315,115.50645 -118.00518,113.81491 C -117.73868,113.94062 -121.79069,121.52547 -126.25632,130.93042 C -130.72196,140.33536 -134.5159,147.96372 -134.68729,147.88235 C -134.8587,147.80096 -135.88494,141.53126 -136.96785,133.94967 L -138.93677,120.16496 L -149.50708,141.24102 C -155.32075,152.83286 -160.94132,164.15816 -161.54907,165.17434 C -162.24944,161.6249 -164.74426,147.56669 -166.30199,142.29305"
         style="fill:#eeeeee;fill-opacity:1"
         id="path4636" />
      <path
         d="M -169.26033,163.88755 C -170.70181,172.00424 -171.41407,178.26239 -172.89698,186.27128 C -175.11566,182.16693 -176.05538,180.52682 -179.8834,173.08278 C -183.61337,165.82947 -188.97121,155.51809 -191.78974,150.16863 C -196.88863,140.49109 -196.91677,140.45296 -197.40637,142.55566 C -197.67699,143.71797 -197.94913,146.29432 -198.01112,148.28088 C -198.2677,156.50309 -199.57356,164.83793 -200.68814,165.36715 C -200.94667,165.48991 -206.40951,155.08563 -212.82777,142.24651 L -225.73631,116.29328 C -226.86332,120.20984 -227.71113,122.5245 -229.20701,128.59674 C -231.2491,120.86564 -231.2009,112.46808 -231.84635,104.46344 C -232.2311,99.762624 -232.45722,95.955754 -232.34884,96.003694 C -224.27799,103.84584 -223.97026,104.25171 -207.37038,119.11759 C -216.82224,114.87454 -215.76751,115.50646 -220.51548,113.81492 C -220.78198,113.94063 -216.72997,121.52548 -212.26434,130.93043 C -207.7987,140.33537 -204.00476,147.96373 -203.83337,147.88236 C -203.66196,147.80097 -202.63572,141.53127 -201.55281,133.94968 L -199.58389,120.16497 L -189.01358,141.24103 C -183.19991,152.83287 -177.57934,164.15817 -176.97159,165.17435 C -176.27122,161.62491 -173.7764,147.5667 -172.21867,142.29306"
         style="fill:#eeeeee;fill-opacity:1"
         id="path4638" />
    </g>
    <g
       transform="matrix(0.712492,0,0,1,-30.16209,-47.58342)"
       style="fill:#eeeeee;fill-opacity:1"
       id="g4662">
      <path
         d="M -164.81178,306.46751 C -164.55325,306.34475 -159.09041,316.74903 -152.67215,329.58815 L -139.76361,355.54138 C -138.6366,351.62482 -137.78879,349.31016 -136.29291,343.23792 C -134.25082,350.96902 -134.29902,359.36658 -133.65357,367.37122 C -133.26882,372.07204 -133.0427,375.87891 -133.15108,375.83097 C -141.22193,367.98882 -141.52966,367.58295 -158.12954,352.71707 C -148.67768,356.96012 -149.73241,356.3282 -144.98444,358.01974 C -144.71794,357.89403 -148.76995,350.30918 -153.23558,340.90423 C -157.70122,331.49929 -161.49516,323.87093 -161.66655,323.9523"
         style="fill:#eeeeee;fill-opacity:1"
         id="path4642" />
      <path
         d="M -164.81178,306.46751 C -165.07031,306.34475 -170.53315,316.74903 -176.95141,329.58815 L -189.85995,355.54138 C -190.98696,351.62482 -191.83477,349.31016 -193.33065,343.23792 C -195.37274,350.96902 -195.32454,359.36658 -195.96999,367.37122 C -196.35474,372.07204 -196.58086,375.87891 -196.47248,375.83097 C -188.40163,367.98882 -188.0939,367.58295 -171.49402,352.71707 C -180.94588,356.96012 -179.89115,356.3282 -184.63912,358.01974 C -184.90562,357.89403 -180.85361,350.30918 -176.38798,340.90423 C -171.92234,331.49929 -168.1284,323.87093 -167.95701,323.9523"
         style="fill:#eeeeee;fill-opacity:1"
         id="path4644" />
    </g>
    <g
       transform="matrix(0.712492,0,0,1,-11.77412,56.4549)"
       style="fill:#eeeeee;fill-opacity:1"
       id="g4658">
      <path
         d="M -190.61973,92.749315 C -190.87826,92.872075 -196.3411,82.467795 -202.75936,69.628675 L -215.6679,43.675449 C -216.79491,47.592005 -217.64272,49.906665 -219.1386,55.978905 C -221.18069,48.247805 -221.13249,39.850249 -221.77794,31.845609 C -222.16269,27.144789 -222.38881,23.337919 -222.28043,23.385859 C -214.20958,31.228009 -213.90185,31.633879 -197.30197,46.499759 C -206.75383,42.256709 -205.6991,42.888629 -210.44707,41.197089 C -210.71357,41.322799 -206.66156,48.907645 -202.19593,58.312595 C -197.73029,67.717535 -193.93635,75.345895 -193.76496,75.264525"
         style="fill:#eeeeee;fill-opacity:1"
         id="path4646" />
      <path
         d="M -190.61973,92.749318 C -190.3612,92.872078 -184.89836,82.467798 -178.4801,69.628678 L -165.57156,43.675448 C -164.44455,47.592008 -163.59674,49.906668 -162.10086,55.978908 C -160.05877,48.247808 -160.10697,39.850248 -159.46152,31.845608 C -159.07677,27.144786 -158.85065,23.337916 -158.95903,23.385856 C -167.02988,31.228008 -167.33761,31.633878 -183.93749,46.499758 C -174.48563,42.256708 -175.54036,42.888628 -170.79239,41.197088 C -170.52589,41.322798 -174.5779,48.907648 -179.04353,58.312598 C -183.50917,67.717538 -187.30311,75.345898 -187.4745,75.264528"
         style="fill:#eeeeee;fill-opacity:1"
         id="path4648" />
    </g>
  </g>
  <path
     d="M 67.17587,22.623551 C 57.524048,23.387468 49.110325,28.550621 43.933537,36.109632 L 65.21454,48.397139 C 65.795306,47.90854 66.455729,47.518414 67.17587,47.240464 L 67.17587,22.623551 z M 72.162941,22.623551 L 72.162941,47.248843 C 72.880164,47.526643 73.545509,47.910255 74.124254,48.397139 L 95.405275,36.109632 C 90.228457,28.550621 81.814739,23.387468 72.162941,22.623551 z M 41.460936,40.42618 C 39.560562,44.45448 38.493834,48.947497 38.493834,53.694345 C 38.493834,58.529932 39.593777,63.111601 41.561519,67.197177 L 62.850925,54.901291 C 62.782241,54.510224 62.741954,54.113365 62.741954,53.702723 C 62.741954,53.385347 62.767591,53.070057 62.809005,52.763979 L 41.460936,40.42618 z M 97.877865,40.42618 L 76.529782,52.755599 C 76.571948,53.06433 76.588454,53.382468 76.588454,53.702723 C 76.588454,54.116479 76.549189,54.515823 76.479489,54.909675 L 97.777264,67.197177 C 99.745046,63.111601 100.84495,58.529946 100.84497,53.694345 C 100.84497,48.947497 99.778231,44.45448 97.877865,40.42618 z M 65.432469,59.167563 L 44.084396,71.496967 C 49.272778,78.939622 57.615191,84.016805 67.17587,84.773508 L 67.17587,60.156588 C 66.543851,59.912537 65.95928,59.576048 65.432469,59.167563 z M 73.906325,59.167563 C 73.379966,59.576209 72.794467,59.912182 72.162941,60.156588 L 72.162941,84.773508 C 81.72358,84.016805 90.066005,78.939638 95.254405,71.496967 L 73.906325,59.167563 z M 57.758576,16.764273 L 56.329552,17.255091 L 54.94535,17.842043 L 53.451216,14.637839 L 51.697454,15.436126 L 50.070782,16.214167 L 46.938047,17.987052 L 45.312377,19.018181 L 43.827651,20.10062 L 45.845169,22.963244 L 44.632794,23.918669 L 43.506915,24.892273 L 40.856641,27.532462 L 39.844972,28.667366 L 38.911279,29.843942 L 35.993252,27.810823 L 34.884303,29.322678 L 33.860771,30.89222 L 32.065726,34.069801 L 31.229047,35.74727 L 30.486336,37.458921 L 33.774015,38.988086 L 33.214021,40.380488 L 32.747975,41.807084 L 31.73986,45.417429 L 31.407321,46.879321 L 31.176208,48.391427 L 27.515465,48.069968 L 27.2597,49.905647 L 27.144867,51.792632 L 27.1,55.460917 L 27.215856,57.298836 L 27.433159,59.186992 L 31.143204,58.861291 L 31.387329,60.346848 L 31.69445,61.842022 L 32.719658,65.420935 L 33.195545,66.817911 L 33.765387,68.249077 L 30.336893,69.847821 L 31.185313,71.792758 L 31.881179,73.243192 L 33.698885,76.472044 L 34.176029,77.244286 L 34.700145,78.03365 L 35.812462,79.582452 L 38.933571,77.366371 L 39.874051,78.546707 L 40.862619,79.704617 L 43.502797,82.354916 L 44.59926,83.325972 L 45.831362,84.253293 L 43.592052,87.482012 L 45.056921,88.573868 L 46.657423,89.62197 L 49.858514,91.425564 L 51.528501,92.246218 L 53.287138,93.006029 L 54.943471,89.405491 L 56.320943,89.933435 L 57.762477,90.431517 L 61.388851,91.432176 L 62.843268,91.7487 L 64.346819,92.003302 L 64.000702,95.987605 L 65.821436,96.211349 L 67.723356,96.358215 L 71.439716,96.380651 L 73.270177,96.248788 L 75.181801,96.040037 L 74.816704,92.036297 L 76.278748,91.783629 L 77.797417,91.48506 L 81.408356,90.444891 L 82.805337,89.96903 L 84.204483,89.414124 L 85.89285,93.034854 L 87.541952,92.30489 L 89.273287,91.458542 L 92.518174,89.633353 L 92.881352,89.366479 L 93.268012,89.108159 L 94.064829,88.600061 L 94.823211,88.051378 L 95.589065,87.518708 L 93.321784,84.245936 L 95.644004,82.324348 L 98.278259,79.691647 L 99.251484,78.516146 L 100.2087,77.348121 L 103.43634,79.626942 L 104.51431,78.090531 L 105.01003,77.313224 L 105.53784,76.52099 L 107.34998,73.296417 L 107.69731,72.451779 L 107.88324,72.014005 L 108.10016,71.600783 L 108.87493,69.874181 L 105.34593,68.203984 L 105.87388,66.826519 L 106.38691,65.417011 L 107.38754,61.790658 L 107.50312,61.0346 L 107.5844,60.665126 L 107.68915,60.304198 L 107.79616,59.571633 L 107.92665,58.847628 L 111.76892,59.181955 L 111.97024,57.31316 L 112.1,55.458211 L 112.0979,51.772815 L 112.00527,50.821287 L 111.94358,49.89431 L 111.74871,48.054216 L 107.99168,48.362805 L 107.72407,46.868713 L 107.45537,45.414126 L 106.41522,41.803184 L 105.89235,40.389105 L 105.36949,38.975021 L 108.71788,37.413644 L 108.05411,35.948258 L 107.14155,34.033213 L 105.3217,30.88338 L 104.26602,29.288668 L 103.19213,27.780447 L 100.20133,29.85773 L 98.287229,27.551535 L 95.647043,24.901249 L 94.49611,23.897059 L 93.335562,22.955881 L 95.368687,20.037861 L 93.808768,18.951321 L 92.2702,17.952358 L 89.10753,16.189366 L 87.382022,15.375105 L 85.693852,14.640938 L 84.223454,17.803686 L 82.766975,17.273573 L 81.37242,16.79259 L 77.769536,15.800494 L 76.259594,15.490365 L 74.835064,15.23791 L 75.128702,11.726672 L 73.236414,11.516805 L 71.374004,11.371022 L 67.767647,11.375292 L 65.890191,11.490075 L 64.041568,11.708457 L 64.349165,15.212391 L 62.831582,15.471446 L 61.384452,15.756158 L 57.758576,16.764273 z M 67.169092,56.199829 L 72.171747,56.199829 L 72.171747,51.197171 L 67.169092,51.197171 L 67.169092,56.199829"
     style="fill:#d40000;fill-opacity:1;fill-rule:evenodd;stroke:none;stroke-width:1.00140512;stroke-linecap:butt;stroke-linejoin:miter;stroke-miterlimit:4;stroke-opacity:1"
     id="Cogwheel-6spokes-square" />
  <use
     transform="translate(111.73,0)"
     id="Gear-2"
     x="0"
     y="0"
     width="251"
     height="304.20001"
     xlink:href="#Cogwheel-6spokes-square" />
  <use
     transform="translate(55.9,178.7207)"
     id="Gear-3"
     x="0"
     y="0"
     width="251"
     height="304.20001"
     xlink:href="#Cogwheel-6spokes-square" />
  <path
     d="M 249.55062,1.4395041 L 1.449569,1.4395041 L 1.449569,174.9361 C 0.68232904,268.65698 81.739009,302.75585 125.5001,302.75585 C 168.49395,302.75585 250.31785,268.65698 249.55062,174.9361 L 249.55062,1.4395041 z "
     style="fill:none;fill-opacity:0;stroke:#000000;stroke-width:1.88832211;stroke-linejoin:bevel"
     id="Frame" />
</svg>
