<?xml version="1.0" encoding="UTF-8" standalone="no"?>
<!-- Created with Inkscape (http://www.inkscape.org/) -->
<svg
   
xmlns:dc="http://purl.org/dc/elements/1.1/" 
xmlns:cc="http://web.resource.org/cc/"
   xmlns:rdf="http://www.w3.org/1999/02/22-rdf-syntax-ns#"
  xmlns:svg="http://www.w3.org/2000/svg"
   
xmlns="http://www.w3.org/2000/svg"
      xmlns:xlink="http://www.w3.org/1999/xlink"
 
version="1.0"
   width="251"
   height="304.20001"
   id="svg4166">
 
<metadata
 id="metadata14"><rdf:RDF>
      
 <cc:Work
 rdf:about="">
  <dc:format>image/svg+xml</dc:format><dc:type
           rdf:resource="http://purl.org/dc/dcmitype/StillImage" />
   <cc:license
  rdf:resource="http://creativecommons.org/licenses/by-sa/2.5/" />

     <dc:title>Knivsta_kommunvapen</dc:title>
     <dc:date>21-01-2007</dc:date>
     <dc:creator>
      <cc:Agent><dc:title>Lokal_Profil</dc:title></cc:Agent>
     </dc:creator>

 </cc:Work>
 <cc:License
   rdf:about="http://creativecommons.org/licenses/by-sa/2.5/">

  <cc:permits 
 rdf:resource="http://web.resource.org/cc/Reproduction" />

  <cc:permits
  rdf:resource="http://web.resource.org/cc/Distribution" />
  <cc:requires rdf:resource="http://web.resource.org/cc/Notice" />
  <cc:requires
 rdf:resource="http://web.resource.org/cc/Attribution" />

  <cc:permits  rdf:resource="http://web.resource.org/cc/DerivativeWorks" />

  <cc:requires
 rdf:resource="http://web.resource.org/cc/ShareAlike" />
       </cc:License>

</rdf:RDF>
</metadata>    
<defs
     id="defs4168" />
  <g
     id="Knivsta_kommunvapen">
    <path
       d="M 1.4495603,1.4395041 L 125.50006,1.4395041 L 249.55061,1.4395041 L 249.55061,174.9361 C 250.31785,268.65698 169.26117,302.75585 125.50008,302.75585 C 82.506226,302.75585 0.68233088,268.65698 1.4495603,174.9361 L 1.4495603,1.4395041 z "
       style="color:#000000;fill:#d40000;fill-opacity:1;fill-rule:nonzero;stroke:none;stroke-width:1.88832211;stroke-linecap:round;stroke-linejoin:bevel;marker:none;marker-start:none;marker-mid:none;marker-end:none;stroke-miterlimit:4;stroke-dashoffset:0;stroke-opacity:1;visibility:visible;display:block"
       id="Shield" />
    <path
       d="M 124.9375,148.21875 C 109.45613,148.30256 94.748815,154.74722 82.53125,164.21875 C 75.38229,170.41231 68.928811,179.18325 66.75,185.65625 C 66.186527,187.33025 65.696342,187.37476 63.59375,185.875 C 62.695513,185.23429 60.1715,183.87908 57.96875,182.875 C 41.417555,175.3305 24.164164,175.44249 7.5625,183.1875 L 1.78125,186.375 C 7.4617212,271.44093 84.304167,302.74999 125.5,302.75 C 167.5027,302.75 243.82835,271.33319 249.21875,185.9375 L 247.03125,184.71875 C 228.61799,174.94212 207.73546,175.32851 189.53125,184.96875 C 187.55485,186.15026 185.88095,187.04571 185.78125,186.9375 C 185.68154,186.8293 184.74216,184.96112 183.6875,182.78125 C 180.31473,175.81003 177.32724,171.80261 171.40625,166.25 C 160.21039,155.75078 147.95653,150.30581 131.625,148.59375 C 129.38605,148.33621 127.14912,148.20678 124.9375,148.21875 z "
       style="opacity:1;fill:#ffcd50;fill-opacity:1"
       id="Treberg" />
    <path
       d="M 25.5,34.954133 C 39.821792,55.227839 48.454022,78.966482 50.49999,103.70414 L 50.49999,141.20412 C 100.15278,132.8708 150.84722,132.8708 200.49999,141.20412 L 200.49999,103.70414 C 202.54596,78.966482 211.17819,55.227839 225.5,34.954133 C 219.38376,29.392834 209.97778,29.616215 204.13241,35.46157 C 198.28707,41.306925 198.06369,50.712904 203.62501,56.829141 L 199.11874,66.742328 C 196.48141,61.608313 190.67187,58.94755 185.06177,60.304262 C 179.4517,61.660955 175.49994,66.682337 175.5,72.454127 C 175.50004,76.29896 177.26947,79.929856 180.29762,82.298985 C 183.32581,84.668114 187.27577,85.511887 191.00763,84.586781 L 188,91.204134 C 186.65508,95.2396 182.87869,97.96163 178.625,97.96163 C 174.37131,97.96163 170.59492,95.2396 169.25,91.204134 L 169.25,53.70414 C 172.70178,53.70414 175.5,50.905918 175.5,47.454137 C 175.5,44.002357 172.70178,41.204135 169.25,41.204135 C 165.79822,41.204135 162.99999,44.002357 162.99999,47.454137 C 162.99996,50.244801 164.84998,52.697358 167.53332,53.463853 L 156.74999,91.204134 C 155.30622,95.758879 150.73281,98.558738 146.01974,97.773223 C 141.30665,96.987709 137.88851,92.855926 138,88.079133 L 136.58819,76.081215 C 140.35821,79.005835 145.46433,79.52913 149.7492,77.430007 C 154.03407,75.330884 156.7502,70.975549 156.74999,66.204144 C 156.74999,60.900343 153.40292,56.173983 148.39997,54.413138 C 143.397,52.652293 137.8275,54.240382 134.50556,58.374963 L 133.73194,51.800676 C 140.16831,48.655532 144.25008,42.117837 144.24999,34.954133 C 144.24987,25.995409 137.9122,18.288305 129.12221,16.557617 L 128.625,13.079144 C 128.625,11.353254 127.22589,9.954143 125.5,9.954143 C 123.77411,9.954143 122.375,11.353254 122.375,13.079144 L 121.87777,16.557617 C 113.0878,18.288305 106.75013,25.995409 106.74999,34.954133 C 106.7499,42.117837 110.83169,48.655532 117.26806,51.800676 L 116.49444,58.374963 C 113.1725,54.240382 107.603,52.652293 102.60003,54.413138 C 97.597083,56.173983 94.249993,60.900343 94.249993,66.204144 C 94.249803,70.975549 96.965933,75.330884 101.2508,77.430007 C 105.53567,79.52913 110.64178,79.005835 114.41181,76.081215 L 113,88.079133 C 113.11149,92.855926 109.69335,96.987709 104.98026,97.773223 C 100.26717,98.558738 95.693763,95.758879 94.249993,91.204134 L 83.466653,53.463853 C 86.150003,52.697358 88.000043,50.244801 88.000003,47.454137 C 88.000003,44.002357 85.201763,41.204135 81.750003,41.204135 C 78.298223,41.204135 75.500003,44.002357 75.500003,47.454137 C 75.500003,50.905918 78.298223,53.70414 81.750003,53.70414 L 81.750003,91.204134 C 80.405073,95.2396 76.628683,97.96163 72.374993,97.96163 C 68.121313,97.96163 64.344923,95.2396 62.999993,91.204134 L 59.992347,84.586781 C 63.724223,85.511887 67.674183,84.668114 70.702363,82.298985 C 73.730533,79.929856 75.499963,76.29896 75.500003,72.454127 C 75.500053,66.682337 71.548303,61.660955 65.938223,60.304262 C 60.328132,58.94755 54.518588,61.608313 51.881243,66.742328 L 47.375008,56.829141 C 52.936287,50.712904 52.712926,41.306925 46.867571,35.46157 C 41.022216,29.616215 31.616237,29.392834 25.5,34.954133 z "
       style="fill:#ffcd50;fill-opacity:1;fill-rule:evenodd;stroke:none;stroke-width:1.0942663;stroke-linecap:butt;stroke-linejoin:miter;stroke-miterlimit:10"
       id="Crown" />
    <path
       d="M 1.4495187,1.4395041 L 125.50002,1.4395041 L 249.55057,1.4395041 L 249.55057,174.9361 C 250.31781,268.65698 169.26113,302.75585 125.50004,302.75585 C 82.506185,302.75585 0.68228966,268.65698 1.4495187,174.9361 L 1.4495187,1.4395041 z "
       style="color:#000000;fill:#eeeeee;fill-opacity:0;fill-rule:nonzero;stroke:#000000;stroke-width:1.88832211;stroke-linecap:round;stroke-linejoin:bevel;marker:none;marker-start:none;marker-mid:none;marker-end:none;stroke-miterlimit:4;stroke-dashoffset:0;stroke-opacity:1;visibility:visible;display:block"
       id="Frame" />
  </g>
</svg>
