<?xml version="1.0" encoding="UTF-8" standalone="no"?>
<!-- Created with Inkscape (http://www.inkscape.org/) -->
<svg
   xmlns:dc="http://purl.org/dc/elements/1.1/"
   xmlns:cc="http://web.resource.org/cc/"
   xmlns:rdf="http://www.w3.org/1999/02/22-rdf-syntax-ns#"
   xmlns:svg="http://www.w3.org/2000/svg"
   xmlns="http://www.w3.org/2000/svg"
   version="1.0"
   width="251"
   height="304.20001"
   id="svg4166">
  <defs
     id="defs4168" />
  <metadata
     id="metadata1880"><rdf:RDF><cc:Work
         rdf:about=""><dc:title>Oxelosund kommunvapen</dc:title><dc:date>06-12-2006</dc:date><dc:creator><cc:Agent><dc:title>Lokal_Profil</dc:title></cc:Agent></dc:creator><cc:license
         rdf:resource="http://creativecommons.org/licenses/by-sa/2.5/" /><dc:rights><cc:Agent><dc:title>cc-by-sa-2.5</dc:title></cc:Agent></dc:rights><dc:format>image/svg+xml</dc:format><dc:type
         rdf:resource="http://purl.org/dc/dcmitype/StillImage" /></cc:Work><cc:License
         rdf:about="http://creativecommons.org/licenses/by-sa/2.5/"><cc:permits
         rdf:resource="http://web.resource.org/cc/Reproduction" /><cc:permits
         rdf:resource="http://web.resource.org/cc/Distribution" /><cc:requires
         rdf:resource="http://web.resource.org/cc/Notice" /><cc:requires
         rdf:resource="http://web.resource.org/cc/Attribution" /><cc:permits
         rdf:resource="http://web.resource.org/cc/DerivativeWorks" /><cc:requires
         rdf:resource="http://web.resource.org/cc/ShareAlike" /></cc:License></rdf:RDF>
  </metadata>
  <path
     d="M 249.55058,1.4395041 L 125.50008,1.4395041 L 1.4495291,1.4395041 L 1.4495291,174.9361 C 0.68228908,268.65698 81.738969,302.75585 125.50006,302.75585 C 168.49391,302.75585 250.31781,268.65698 249.55058,174.9361 L 249.55058,1.4395041 z "
     style="color:#000000;fill:#003d8f;fill-opacity:1;fill-rule:nonzero;stroke:none;stroke-width:1.88832211;stroke-linecap:round;stroke-linejoin:bevel;marker:none;marker-start:none;marker-mid:none;marker-end:none;stroke-miterlimit:4;stroke-dashoffset:0;stroke-opacity:1;visibility:visible;display:block"
     id="Shield" />
  <path
     d="M 248.37475,1.4315139 L 4.656,206.74401 C 13.696982,247.46614 40.523647,273.36647 68.781,287.86901 L 249.56225,2.6190139 L 249.56225,1.4315139 L 248.37475,1.4315139 z "
     style="opacity:1;color:#000000;fill:#eeeeee;fill-opacity:1;fill-rule:nonzero;stroke:none;stroke-width:1.88800001;stroke-linecap:round;stroke-linejoin:bevel;marker:none;marker-start:none;marker-mid:none;marker-end:none;stroke-miterlimit:4;stroke-dasharray:none;stroke-dashoffset:0;stroke-opacity:1;visibility:visible;display:block"
     id="vansterstrale" />
  <g
     transform="matrix(1.58468,0,0,1.58468,-547.7705,-751.3703)"
     style="stroke:#eeeeee;stroke-opacity:1"
     id="Mars-symbol">
    <g
       transform="matrix(1.948116,0,0,1.937312,-342.4303,-460.0101)"
       style="stroke:#eeeeee;stroke-opacity:1"
       id="g1872">
      <path
         d="M 387.95009,489.60348 L 378.66214,498.89143"
         style="opacity:1;color:#000000;fill:none;fill-opacity:0.75;fill-rule:evenodd;stroke:#eeeeee;stroke-width:3;stroke-linecap:butt;stroke-linejoin:miter;marker:none;marker-start:none;marker-mid:none;marker-end:none;stroke-miterlimit:4;stroke-dasharray:none;stroke-dashoffset:0;stroke-opacity:1;visibility:visible;display:inline;overflow:visible"
         id="path26867" />
      <path
         d="M 49.396475,36.70454 C 49.396475,45.717349 42.401407,53.023675 33.772553,53.023675 C 25.143698,53.023675 18.14863,45.717349 18.14863,36.70454 C 18.14863,27.691731 25.143698,20.385405 33.772553,20.385405 C 42.401407,20.385405 49.396475,27.691731 49.396475,36.70454 L 49.396475,36.70454 z "
         transform="matrix(0.48802,0.48802,-0.467594,0.467594,371.6094,473.1357)"
         style="opacity:1;color:#000000;fill:none;fill-opacity:1;fill-rule:evenodd;stroke:#eeeeee;stroke-width:4.44071579;stroke-linecap:butt;stroke-linejoin:miter;marker:none;marker-start:none;marker-mid:none;marker-end:none;stroke-miterlimit:4;stroke-dasharray:none;stroke-dashoffset:0;stroke-opacity:1;visibility:visible;display:inline;overflow:visible"
         id="path26871" />
      <path
         d="M 379.92823,489.70212 C 387.842,489.70212 387.842,489.70212 387.842,489.70212 L 387.842,497.61589"
         style="fill:none;fill-rule:evenodd;stroke:#eeeeee;stroke-width:3;stroke-linecap:butt;stroke-linejoin:miter;stroke-miterlimit:4;stroke-dasharray:none;stroke-opacity:1"
         id="path27759" />
    </g>
  </g>
  <path
     d="M 185.72879,143.42229 C 180.14626,143.4223 175.62543,147.78748 175.62712,153.1553 C 175.62585,157.18116 178.16854,160.62609 181.79627,162.1018 L 181.79627,169.15577 L 161.44543,169.15577 C 160.25061,169.15577 160.37613,175.39766 161.27338,175.42324 L 181.50133,175.37409 C 181.52401,180.20187 181.58753,185.02297 181.52591,189.8507 C 181.29808,199.82303 181.1025,209.81255 181.00976,219.78707 C 180.9688,225.18907 180.77751,230.35742 180.56735,231.28972 C 179.77523,234.80367 177.56658,235.27574 170.73603,233.40346 C 163.63246,231.45636 154.79507,227.14127 153.31002,224.87479 C 152.12942,223.07294 151.94063,221.51641 152.79387,220.57359 C 153.21926,220.10353 153.84717,219.82571 154.19483,219.95913 C 154.57924,220.10662 154.98422,219.79473 155.22713,219.14804 C 156.08215,216.87163 153.22892,213.49477 147.60785,210.15239 C 146.24163,209.33998 144.00926,207.61354 142.64303,206.29359 C 141.20953,204.90866 139.96068,204.01762 139.66906,204.20443 C 138.76167,204.78569 136.89686,208.98905 136.32641,211.74998 C 135.17964,217.30022 136.64597,225.49599 139.34954,228.709 C 140.7767,230.40507 141.57301,230.42155 141.90568,228.75816 C 142.49187,225.82726 146.14079,226.66295 150.11484,230.65069 C 153.26005,233.80672 159.23025,238.38256 161.83869,239.62177 C 162.8323,240.09382 164.26407,240.85168 165.00928,241.31767 C 165.75449,241.78364 167.98686,242.72714 169.9741,243.40682 C 174.13733,244.83077 179.00559,247.35724 180.93603,249.08441 C 181.6694,249.74054 182.77351,250.61963 183.39386,251.0261 C 184.47901,251.73713 184.57343,251.70929 185.31097,250.58369 C 186.84635,248.24038 189.48374,246.1941 193.49553,244.24248 C 195.75026,243.14562 197.9234,242.25164 198.33748,242.25164 C 199.21759,242.25166 206.64386,238.96749 211.11819,236.59864 C 214.62438,234.74234 216.22137,233.61081 220.13842,230.20827 C 224.56064,226.36694 226.78867,225.92946 229.1095,228.46322 L 230.55963,230.06081 L 231.4936,229.02851 C 233.17671,227.18785 233.79804,225.34802 234.12348,221.18804 C 234.37231,218.00702 234.26835,216.2803 233.65648,213.51961 C 232.68965,209.1573 231.05895,205.41843 229.84685,204.76973 C 229.08154,204.36014 228.82955,204.47579 228.17552,205.53167 C 227.03833,207.36755 225.43529,208.81349 222.37505,210.79142 C 218.71074,213.15975 216.51711,215.6137 215.83723,218.04202 C 215.18048,220.38768 215.47585,221.24054 216.72204,220.57359 C 218.08148,219.84603 218.95107,220.03857 219.47481,221.18804 C 220.21219,222.8064 219.111,224.09762 214.82951,226.64442 C 207.51702,230.99421 197.71196,234.55863 193.05313,234.55863 C 190.85474,234.55863 188.78762,233.70785 188.45699,232.66611 C 188.29755,232.16377 188.30756,226.23486 188.45699,219.49214 C 188.60642,212.7494 188.82709,200.23662 188.97313,191.6695 C 189.11917,183.10237 189.30732,175.97644 189.39096,175.84107 C 189.47463,175.70572 194.15435,175.64135 199.76302,175.6936 C 211.39946,175.80201 210.77212,176.01635 210.67578,171.78565 L 210.62663,169.15577 L 189.29264,169.15577 L 189.29264,162.22469 C 193.11114,160.83623 195.83178,157.31324 195.83048,153.1553 C 195.83216,147.78746 191.31133,143.42229 185.72879,143.42229 z M 190.40383,152.86438 C 190.40464,150.25864 188.20801,148.14586 185.49804,148.14586 C 182.78808,148.14586 180.59144,150.25864 180.59225,152.86438 C 180.59144,155.47013 182.78808,157.5829 185.49804,157.5829 C 188.20801,157.5829 190.40464,155.47013 190.40383,152.86438 z "
     style="fill:#eeeeee;fill-opacity:1;fill-rule:evenodd;stroke:none;stroke-width:10;stroke-miterlimit:4;stroke-opacity:1"
     id="Anchor" />
  <path
     d="M 249.55062,1.4395041 L 125.50012,1.4395041 L 1.449569,1.4395041 L 1.449569,174.9361 C 0.68232904,268.65698 81.739009,302.75585 125.5001,302.75585 C 168.49395,302.75585 250.31785,268.65698 249.55062,174.9361 L 249.55062,1.4395041 z "
     style="color:#000000;fill:none;fill-opacity:0;fill-rule:nonzero;stroke:#000000;stroke-width:1.88832211;stroke-linecap:round;stroke-linejoin:bevel;marker:none;marker-start:none;marker-mid:none;marker-end:none;stroke-miterlimit:4;stroke-dashoffset:0;stroke-opacity:1;visibility:visible;display:block"
     id="Frame" />
</svg>
