<?xml version="1.0" encoding="UTF-8" standalone="no"?>
<!-- Created with Inkscape (http://www.inkscape.org/) -->

<svg
   xmlns:svg="http://www.w3.org/2000/svg"
   xmlns="http://www.w3.org/2000/svg"
   version="1.0"
   width="251"
   height="304.20001"
   id="svg4166">
  <defs
     id="defs4168" />
  <path
     d="m 249.55058,1.4395041 -248.1010509,0 0,173.4965959 C 0.68228908,268.65698 81.738969,302.75585 125.50006,302.75585 c 42.99385,0 124.81775,-34.09887 124.05052,-127.81975 l 0,-173.4965959 z"
     id="Shield"
     style="color:#000000;fill:#ffcd50;fill-opacity:1;stroke:none" />
  <path
     d="m 124.93753,148.2246 c -15.48137,0.0838 -30.188693,6.52847 -42.406253,16 -7.14896,6.19356 -13.60244,14.9645 -15.78125,21.4375 -0.56347,1.674 -1.05366,1.71851 -3.15625,0.21875 -0.89824,-0.64071 -3.42225,-1.99592 -5.625,-3 -16.5512,-7.5445 -33.80459,-7.43251 -50.40625,0.3125 l -5.7812499,3.1875 c 5.6804699,85.06593 82.5229199,116.37499 123.7187529,116.375 42.0027,0 118.32835,-31.41681 123.71875,-116.8125 l -2.1875,-1.21875 c -18.41326,-9.77663 -39.29579,-9.39024 -57.5,0.25 -1.9764,1.18151 -3.6503,2.07696 -3.75,1.96875 -0.0997,-0.1082 -1.03909,-1.97638 -2.09375,-4.15625 -3.37277,-6.97122 -6.36026,-10.97864 -12.28125,-16.53125 -11.19586,-10.49922 -23.44972,-15.94419 -39.78125,-17.65625 -2.23895,-0.25754 -4.47588,-0.38697 -6.6875,-0.375 z"
     id="path4408"
     style="fill:#225500;fill-opacity:1" />
  <path
     d="m 1.2500693,0.49534304 0,104.71814696 248.5000007,0 0,-104.71814696 -124.25,0 -124.2500007,0 z"
     id="Chef"
     style="color:#000000;fill:#225500;fill-opacity:1;fill-rule:nonzero;stroke:none;stroke-width:1.88832211;marker:none;visibility:visible;display:block" />
  <path
     d="m 68.817754,16.06212 c -3.312749,14.606184 -7.378382,45.776048 -3.764471,59.027013 0.301162,0.150581 -15.359066,0.451732 -15.359066,0.451732 l 0,15.057917 151.331993,0 0,-29.81467 c 0,0 1.80696,2.409274 -3.76447,-3.463309 -5.57143,-5.872593 -8.7361,-8.579672 -0.60232,-19.424709 0.90347,-1.204638 -11.74517,-3.162158 -11.74517,-3.162158 l 15.20849,-15.509647 -1.80695,-3.31275 -26.80309,23.339773 -6.77606,-5.571432 -23.18918,22.436286 c 0,0 -53.60616,11.745166 -56.316575,0.903476 -2.710426,-10.841691 -3.613847,-12.433239 -3.6139,-37.644783 0,-0.602312 -12.64865,-3.312739 -12.799231,-3.312739 z"
     id="path2206"
     style="fill:#ffcd50;fill-rule:evenodd;stroke:none" />
  <g
     transform="matrix(1.947629,0,0,1.954819,-600.9756,-776.45772)"
     id="Venus-symbol3"
     style="stroke:#ffcd50;stroke-opacity:1">
    <path
       d="m 389.9462,504.8215 c 0,9.34598 -7.58478,16.9224 -16.94106,16.9224 -9.35628,0 -16.94106,-7.57642 -16.94106,-16.9224 0,-9.34599 7.58478,-16.9224 16.94106,-16.9224 9.35628,0 16.94106,7.57641 16.94106,16.9224 z"
       id="path2605"
       style="color:#000000;fill:none;stroke:#ffcd50;stroke-width:4.61774349;stroke-linecap:butt;stroke-linejoin:miter;stroke-miterlimit:4;stroke-opacity:1;stroke-dasharray:none;stroke-dashoffset:0;marker:none;visibility:visible;display:inline;overflow:visible" />
    <path
       d="m 373.00525,521.74399 0,21.5376"
       id="path2607"
       style="fill:none;stroke:#ffcd50;stroke-width:4.61774349;stroke-linecap:butt;stroke-linejoin:miter;stroke-miterlimit:4;stroke-opacity:1;stroke-dasharray:none" />
    <path
       d="m 363.76467,534.05119 18.48115,0"
       id="path2609"
       style="fill:none;stroke:#ffcd50;stroke-width:4.61774349;stroke-linecap:butt;stroke-linejoin:miter;stroke-miterlimit:4;stroke-opacity:1;stroke-dasharray:none" />
  </g>
  <path
     d="m 249.55062,1.4395041 -248.101051,0 0,173.4965959 c -0.76723996,93.72088 80.28944,127.81975 124.050531,127.81975 42.99385,0 124.81775,-34.09887 124.05052,-127.81975 l 0,-173.4965959 z"
     id="Frame"
     style="fill:none;stroke:#000000;stroke-width:1.88832211;stroke-linejoin:bevel" />
</svg>
