<?xml version="1.0" encoding="UTF-8" standalone="no"?>
<!-- Created with Inkscape (http://www.inkscape.org/) -->
<svg
   xmlns:dc="http://purl.org/dc/elements/1.1/"
   xmlns:cc="http://web.resource.org/cc/"
   xmlns:rdf="http://www.w3.org/1999/02/22-rdf-syntax-ns#"
   xmlns:svg="http://www.w3.org/2000/svg"
   xmlns="http://www.w3.org/2000/svg"
   xmlns:xlink="http://www.w3.org/1999/xlink"
   version="1.0"
   width="251"
   height="304.20001"
   id="svg4166">
  <defs
     id="defs4168" />
  <metadata
     id="metadata1880"><rdf:RDF><cc:Work
         rdf:about=""><dc:title>Motala kommunvapen</dc:title><dc:date>24-02-2008</dc:date><dc:creator><cc:Agent><dc:title>Lokal_Profil</dc:title></cc:Agent></dc:creator><cc:license
         rdf:resource="http://creativecommons.org/licenses/by-sa/2.5/" /><dc:rights><cc:Agent><dc:title>cc-by-sa-2.5</dc:title></cc:Agent></dc:rights><dc:format>image/svg+xml</dc:format><dc:type
         rdf:resource="http://purl.org/dc/dcmitype/StillImage" /></cc:Work><cc:License
         rdf:about="http://creativecommons.org/licenses/by-sa/2.5/"><cc:permits
         rdf:resource="http://web.resource.org/cc/Reproduction" /><cc:permits
         rdf:resource="http://web.resource.org/cc/Distribution" /><cc:requires
         rdf:resource="http://web.resource.org/cc/Notice" /><cc:requires
         rdf:resource="http://web.resource.org/cc/Attribution" /><cc:permits
         rdf:resource="http://web.resource.org/cc/DerivativeWorks" /><cc:requires
         rdf:resource="http://web.resource.org/cc/ShareAlike" /></cc:License></rdf:RDF>
  </metadata>
  <path
     d="M 249.55058,1.4395041 L 125.50008,1.4395041 L 1.4495291,1.4395041 L 1.4495291,174.9361 C 0.68228908,268.65698 81.738969,302.75585 125.50006,302.75585 C 168.49391,302.75585 250.31781,268.65698 249.55058,174.9361 L 249.55058,1.4395041 z "
     style="fill:#eeeeee"
     id="Shield" />
  <path
     d="M 1.4375,1.4375 L 1.4375,52.21875 L 193.65625,281.28125 C 212.29366,269.33097 229.26808,251.98545 239.5,228.125 L 49.28125,1.4375 L 1.4375,1.4375 z "
     style="fill:#003d8f"
     id="Balk" />
  <g
     transform="matrix(0.540168,0,0,0.540168,-134.7991,152.3752)"
     style="fill:#d40000;stroke:#eeeeee;stroke-width:2"
     id="Propeller">
    <g
       id="g1898">
      <use
         transform="matrix(-1,0,0,1,762.9294,0)"
         id="use1896"
         x="0"
         y="0"
         width="485"
         height="606.99799"
         xlink:href="#g1881" />
      <g
         id="g1881">
        <path
           d="M 381.73595,125.75758 C 381.72337,125.76672 349.53464,153.49974 316.15588,154.87913 C 267.16588,156.90433 266.58046,94.579373 316.15561,96.632934 C 349.53393,98.011437 381.72468,125.74567 381.73595,125.75758 z "
           id="path2129" />
        <path
           d="M 358.36064,109.85 C 361.99545,114.5353 362.83083,121.08057 359.96368,126.71138 C 356.00568,134.47986 346.49646,137.56831 338.72798,133.61032 L 302.85492,115.618 C 295.08545,111.65985 285.58132,114.74809 281.62218,122.51741 C 279.57086,126.5451 279.41082,131.0394 280.81723,134.98297"
           id="path2131" />
      </g>
    </g>
    <use
       transform="matrix(0,1,-1,0,507.2201,-255.7093)"
       id="use1904"
       x="0"
       y="0"
       width="485"
       height="606.99799"
       xlink:href="#g1898" />
    <circle
       cx="380.91699"
       cy="121.563"
       r="28.966"
       transform="translate(0.547708,4.192356)"
       id="circle2133" />
  </g>
  <g
     transform="matrix(6.348887e-2,0,0,6.348887e-2,124.6169,3.827369)"
     id="Markattvinge">
    <g
       style="fill:#000000;stroke:#eeeeee;stroke-width:5"
       id="Wing">
      <path
         d="M 822.77145,2111.6864 C 862.72711,2086.7872 783.3342,1656.6177 781.00086,1494.8712 C 778.66918,1333.2395 797.65173,1082.0071 761.73914,934.06399 C 726.44559,788.67082 658.57594,715.00841 585.24553,651.0287 C 451.59474,564.10815 23.215019,403.29687 23.215019,403.29687 C 9.1316264,446.87038 3.7069146,563.7171 31.063209,579.8682 C -45.100998,594.31718 -31.340428,655.12303 -0.036661422,667.32459 C -53.508268,724.83763 -47.036866,793.62031 21.429692,796.18857 C -49.718264,852.98598 9.8788143,929.02141 71.659884,907.51466 C 29.279726,987.2804 99.817748,1018.6222 132.0248,1023.7058 C 121.20812,1097.9276 159.32049,1127.585 219.58153,1114.775 C 204.40225,1261.4079 277.32666,1315.4075 324.85147,1294.3856 C 359.99785,1465.0705 376.27949,1555.4511 452.58942,1540.5645 C 512.26199,1775.0811 549.66134,1824.4732 596.28439,1816.6209 C 628.39595,1927.4883 701.02788,2017.2796 740.7335,2006.0825 C 756.48132,2092.1399 783.14192,2136.3824 822.77145,2111.6864 z "
         id="path10141" />
      <path
         d="M 566.50922,641.49249 C 563.86069,639.35242 483.44047,630.13913 477.65035,686.6561 C 471.86024,743.17303 515.58994,835.629 553.20521,896.53573 C 590.22343,956.47571 638.62701,1021.9383 659.63956,1081.6397 C 681.07359,1142.5387 751.90753,1432.4924 751.90753,1432.4924"
         id="path11049" />
      <path
         d="M 220.23756,1115.4802 C 226.57518,1072.0999 246.97755,1049.6707 281.43794,1005.9455 C 315.8983,962.22018 358.07898,940.57911 358.07898,940.57911"
         id="path11051" />
      <path
         d="M 131.88487,1024.0415 C 142.77355,996.15744 176.01326,966.3634 188.6089,953.52528 C 201.5211,940.36458 271.01417,879.50939 308.69142,874.05891"
         id="path11053" />
      <path
         d="M 71.33074,908.22678 C 80.235192,888.10702 203.81158,836.39811 227.1617,829.54305 C 249.89096,822.87023 286.7894,820.11717 286.7894,820.11717"
         id="path11055" />
      <path
         d="M 21.032339,796.19016 C 44.740219,780.18437 136.31976,748.21658 161.42615,744.80512 C 186.06222,741.45756 221.2038,744.07749 221.2038,744.07749"
         id="path11057" />
      <path
         d="M -0.084803301,667.16868 C 25.713151,646.66117 99.988853,654.76969 132.86369,655.11622 C 166.70096,655.49759 223.81174,671.89861 223.81174,671.89861"
         id="path11059" />
      <path
         d="M 324.89862,1294.9391 C 318.48544,1259.0521 333.68266,1153.6077 347.79205,1108.0979 C 361.9733,1062.3562 393.4095,1019.1662 393.4095,1019.1662"
         id="path11061" />
      <path
         d="M 452.50692,1540.7091 C 424.75008,1388.7136 433.84959,1313.5775 447.98235,1135.8148"
         id="path11063" />
      <path
         d="M 596.36605,1816.8197 C 564.57957,1709.6685 529.23011,1501.0853 527.90364,1217.726"
         id="path11065" />
      <path
         d="M 740.71083,2006.4216 C 740.71083,2006.4216 593.24692,1615.9322 638.70086,1283.9389"
         id="path11067" />
      <path
         d="M 319.57608,591.67216 C 317.53437,591.59824 268.87579,599.20657 254.97983,625.44862 C 241.08389,651.69064 246.97175,682.05564 263.99237,696.64029 C 281.01303,711.22496 323.0624,683.78718 323.0624,683.78718"
         id="path11069" />
      <path
         d="M 297.03696,696.81407 C 297.03696,696.81407 238.83541,732.78096 238.97637,766.60046 C 239.11735,800.42005 284.13998,822.06223 303.97178,825.50874 C 323.78015,828.9512 330.89934,820.52101 349.28069,806.87685"
         id="path11071" />
      <path
         d="M 385.127,776.65941 C 351.837,811.56879 308.58413,825.16465 307.89586,858.35795 C 307.23221,890.87075 327.5227,917.31131 347.02563,925.86974 C 367.10695,934.68201 388.54046,927.37217 388.54046,927.37217"
         id="path11073" />
      <path
         d="M 436.61766,841.55223 C 435.88793,842.88865 389.41315,893.63509 388.40125,940.65439 C 387.39755,987.29393 434.94072,1024.7028 462.69547,1025.111 C 489.76971,1025.4946 500.02811,1000.9095 504.12777,991.17761"
         id="path11075" />
      <path
         d="M 526.87635,908.52945 C 525.41684,911.20227 497.85987,966.17766 505.54243,1008.6045 C 513.21187,1050.9585 555.77146,1083.0209 581.56272,1092.4421 C 607.96164,1102.0853 631.79364,1088.4681 638.73856,1075.4321"
         id="path11077" />
    </g>
    <g
       style="fill:#000000;stroke:#eeeeee;stroke-width:5"
       id="Markatt">
      <path
         d="M 532.61506,796.38193 C 547.07081,801.03518 726.82084,747.43012 745.87657,729.96375 C 769.81881,714.99985 770.23515,662.08148 783.20386,646.11999 C 809.14128,617.18979 750.14936,363.99339 733.84737,315.86562 C 790.80078,289.40047 854.28521,244.07124 823.54209,209.17191 C 823.54209,209.17191 807.09685,194.29815 824.22566,200.83646 C 814.59527,192.73211 805.84241,192.21621 813.80333,167.35448 C 804.01351,159.74359 794.09312,143.30408 789.50491,133.27171 C 764.15031,122.76609 750.4075,100.86903 730.36073,90.948777 C 632.08442,64.409517 588.30082,60.408865 489.06577,67.734847 C 389.83072,75.06083 289.41874,92.046859 238.00807,120.94559 C 79.275507,210.17161 21.67216,409.22262 21.67216,409.22262"
         id="path4136" />
      <path
         d="M 301.98937,473.44016 C 246.45619,489.50996 237.64092,456.49049 237.86737,417.21993 C 238.09568,377.62678 237.73982,356.19663 253.5756,327.62865 C 269.03071,299.7474 311.98602,256.57987 342.18223,322.28788"
         style="fill:none"
         id="path2169" />
      <path
         d="M 533.63069,297.02658 C 532.99352,307.85848 549.22134,312.61723 556.23021,324.72347 C 556.23021,324.72347 496.66422,314.4781 487.10666,318.30112"
         style="fill:none"
         id="path6111" />
      <use
         transform="translate(-29.30984,21.66379)"
         id="use7082"
         x="0"
         y="0"
         width="936"
         height="846"
         xlink:href="#path6111" />
      <use
         transform="translate(-39.50456,21.66379)"
         id="use7084"
         x="0"
         y="0"
         width="936"
         height="846"
         xlink:href="#use7082" />
      <use
         transform="matrix(0.97437,-0.224951,0.224951,0.97437,-124.4587,195.0184)"
         id="use7086"
         x="0"
         y="0"
         width="936"
         height="846"
         xlink:href="#path6111" />
      <use
         transform="translate(-4.460192,29.94701)"
         id="use7088"
         x="0"
         y="0"
         width="936"
         height="846"
         xlink:href="#use7086" />
      <use
         transform="translate(-2.548681,29.30984)"
         id="use7090"
         x="0"
         y="0"
         width="936"
         height="846"
         xlink:href="#use7088" />
      <use
         transform="translate(-5.734533,31.22135)"
         id="use7092"
         x="0"
         y="0"
         width="936"
         height="846"
         xlink:href="#use7090" />
      <use
         transform="translate(-7.008874,29.94701)"
         id="use7094"
         x="0"
         y="0"
         width="936"
         height="846"
         xlink:href="#use7092" />
      <use
         transform="matrix(0.961262,-0.275637,0.275637,0.961262,-119.6251,170.6631)"
         id="use7096"
         x="0"
         y="0"
         width="936"
         height="846"
         xlink:href="#use7094" />
      <use
         transform="matrix(0.978147,-0.207912,0.207912,0.978147,-97.53183,133.4344)"
         id="use7098"
         x="0"
         y="0"
         width="936"
         height="846"
         xlink:href="#use7096" />
      <use
         transform="translate(14.65492,26.12399)"
         id="use7100"
         x="0"
         y="0"
         width="936"
         height="846"
         xlink:href="#use7098" />
      <use
         transform="matrix(0.992546,-0.121869,0.121869,0.992546,-25.46561,110.9487)"
         id="use7102"
         x="0"
         y="0"
         width="936"
         height="846"
         xlink:href="#use7098" />
      <use
         transform="matrix(0.987688,-0.156435,0.156435,0.987688,-56.55792,99.19737)"
         id="use7104"
         x="0"
         y="0"
         width="936"
         height="846"
         xlink:href="#use7102" />
      <use
         transform="translate(29.72305,13.2807)"
         id="use7106"
         x="0"
         y="0"
         width="936"
         height="846"
         xlink:href="#use7104" />
      <use
         transform="matrix(0.987688,-0.156435,0.156435,0.987688,-67.47306,104.0365)"
         id="use7108"
         x="0"
         y="0"
         width="936"
         height="846"
         xlink:href="#use7106" />
      <path
         d="M 610.32302,672.36319 C 621.15181,671.67554 637.34146,632.75538 635.05925,646.55671 C 628.14506,668.00991 632.14955,706.92731 637.10885,715.9477"
         style="fill:none"
         id="use7110" />
      <path
         d="M 534.34931,297.23317 C 584.81063,293.62879 652.39275,306.24412 732.5902,316.15616"
         style="fill:none"
         id="path7118" />
      <path
         d="M 735.3261,317.74434 C 745.76504,376.19236 796.27405,396.62113 844.92881,428.43982 C 853.82304,435.10494 839.25595,440.29436 853.63728,466.65416 C 894.40014,541.36916 801.062,529.45801 777.25372,547.07671 C 864.32166,516.60377 848.08153,538.0844 844.92881,553.14739 C 841.77609,568.21038 827.61819,590.06788 807.72666,608.20794 C 793.36427,621.3057 792.54111,632.14403 782.20369,645.98447"
         id="path3145" />
      <path
         d="M 737.50913,652.88023 C 747.84992,649.59327 739.19679,619.10648 744.7927,616.86812 C 747.78548,626.84405 773.5335,640.23599 780.52772,647.78869"
         style="fill:none"
         id="use8089" />
      <path
         d="M 789.11439,448.57377 C 789.11439,448.57377 800.49376,475.87659 832.75214,462.92158"
         style="fill:none"
         id="path4116" />
      <use
         transform="translate(-28.9302,18.95427)"
         id="use8093"
         x="0"
         y="0"
         width="936"
         height="846"
         xlink:href="#use8089" />
      <path
         d="M 845.63102,449.64953 C 849.79874,455.48434 827.29304,456.31789 827.29304,456.31789 C 800.11039,461.46217 800.61961,443.81471 800.61961,443.81471 C 817.28183,441.58784 826.87627,455.06757 845.63102,449.64953 z "
         style="fill:#eeeeee"
         id="Nose" />
      <use
         transform="matrix(0.984808,0.173648,-0.173648,0.984808,95.97493,-100.1756)"
         id="use8095"
         x="0"
         y="0"
         width="936"
         height="846"
         xlink:href="#use8093" />
      <use
         transform="translate(-39.40493,4.987966)"
         id="use8097"
         x="0"
         y="0"
         width="936"
         height="846"
         xlink:href="#use8095" />
      <use
         transform="matrix(0.987688,-0.156435,0.156435,0.987688,-67.55072,106.5298)"
         id="use8101"
         x="0"
         y="0"
         width="936"
         height="846"
         xlink:href="#use7108" />
      <path
         d="M 694.43657,335.97277 C 680.89602,341.13108 668.64505,366.92259 669.28984,371.43611 C 683.66922,386.97976 706.84399,393.81483 728.12199,389.30131"
         style="fill:none"
         id="path6096" />
      <path
         d="M 751.1779,433.98053 C 744.73002,403.6755 720.22808,380.46314 720.22808,380.46314 C 720.22808,380.46314 720.22808,380.46314 720.22808,380.46314 C 720.22808,380.46314 691.21263,381.51424 687.98869,374.66005 C 690.56784,357.25078 701.18393,339.68505 716.28113,339.8415"
         style="fill:none"
         id="path5125" />
      <g
         style="stroke:none"
         id="Eye">
        <path
           d="M 723.11117,359.06244 C 722.88027,366.32178 724.00814,381.01119 712.6247,380.0354 C 699.86916,378.942 699.40261,369.12946 699.40261,361.79804 C 699.40261,351.73103 695.91452,347.1457 711.71282,340.36916 C 714.84214,339.02686 723.35023,351.4657 723.11117,359.06244 z "
           style="fill:#eeeeee"
           id="path2610" />
        <path
           d="M 719.4637,356.55496 C 719.4637,360.20426 717.31898,363.166 714.67639,363.166 C 712.0338,363.166 709.88909,360.20426 709.88909,356.55496 C 709.88909,352.90567 712.0338,349.94392 714.67639,349.94392 C 717.31898,349.94392 719.4637,352.90567 719.4637,356.55496 z "
           id="path6106" />
      </g>
      <use
         transform="translate(-22.44585,6.484356)"
         id="use8127"
         x="0"
         y="0"
         width="936"
         height="846"
         xlink:href="#use8125" />
      <use
         transform="translate(-26.43622,6.484356)"
         id="use8125"
         x="0"
         y="0"
         width="936"
         height="846"
         xlink:href="#use8123" />
      <use
         transform="translate(-32.42178,8.978339)"
         id="use8123"
         x="0"
         y="0"
         width="936"
         height="846"
         xlink:href="#use8121" />
      <use
         transform="matrix(0.997564,6.975647e-2,-6.975647e-2,0.997564,34.99671,-31.78308)"
         id="use8121"
         x="0"
         y="0"
         width="936"
         height="846"
         xlink:href="#use8119" />
      <use
         transform="translate(-27.73041,7.68934)"
         id="use8119"
         x="0"
         y="0"
         width="936"
         height="846"
         xlink:href="#use8117" />
      <use
         transform="translate(-24.64323,6.276964)"
         id="use8117"
         x="0"
         y="0"
         width="936"
         height="846"
         xlink:href="#use8115" />
      <use
         transform="translate(-15.96149,10.47473)"
         id="use8115"
         x="0"
         y="0"
         width="936"
         height="846"
         xlink:href="#use8113" />
      <use
         transform="translate(-18.95427,11.47232)"
         id="use8113"
         x="0"
         y="0"
         width="936"
         height="846"
         xlink:href="#use8111" />
      <use
         transform="translate(-9.975932,20.94946)"
         id="use8111"
         x="0"
         y="0"
         width="936"
         height="846"
         xlink:href="#use8109" />
      <use
         transform="matrix(0.996195,-8.715574e-2,8.715574e-2,0.996195,-62.49503,96.4376)"
         id="use8109"
         x="0"
         y="0"
         width="936"
         height="846"
         xlink:href="#use8107" />
      <use
         transform="translate(-7.481949,25.43863)"
         id="use8107"
         x="0"
         y="0"
         width="936"
         height="846"
         xlink:href="#use8103" />
      <path
         d="M 785.51574,644.30188 C 775.17495,647.58884 783.82808,678.07563 778.23217,680.31399 C 775.23939,670.33806 749.49137,656.94612 742.49715,649.39342"
         id="use8103" />
      <path
         d="M 634.44159,68.809938 C 624.87111,72.357287 620.27555,53.586623 595.69761,59.1809 C 610.34759,67.838442 618.96283,88.288911 623.82695,97.361"
         id="use8159" />
      <use
         transform="matrix(0.994522,-0.104529,0.104529,0.994522,-61.00305,61.86036)"
         id="use8161"
         x="0"
         y="0"
         width="936"
         height="846"
         xlink:href="#use8159" />
      <use
         transform="translate(-100.6185,3.975488)"
         id="use8163"
         x="0"
         y="0"
         width="936"
         height="846"
         xlink:href="#use8161" />
      <use
         transform="matrix(0.997564,-6.975647e-2,6.975647e-2,0.997564,-97.78022,44.92942)"
         id="use8169"
         x="0"
         y="0"
         width="936"
         height="846"
         xlink:href="#use8163" />
      <path
         d="M 313.41998,299.04435 C 273.65774,296.88532 255.75574,340.33591 256.20554,358.77767 C 257.04444,393.17234 250.89791,397.55034 242.89149,418.15114"
         style="fill:none"
         id="path8181" />
      <use
         transform="matrix(0.996195,8.715574e-2,-8.715574e-2,0.996195,28.54709,-53.97259)"
         id="use8139"
         x="0"
         y="0"
         width="936"
         height="846"
         xlink:href="#use8137" />
      <path
         d="M 684.00658,75.619674 C 688.35645,85.560232 718.32814,67.919684 721.13917,73.25096 C 711.53069,77.270114 694.70681,98.081369 687.92657,105.82675"
         id="use8137" />
      <use
         transform="matrix(0.866025,0.5,-0.5,0.866025,193.7832,-345.8154)"
         id="use8151"
         x="0"
         y="0"
         width="936"
         height="846"
         xlink:href="#use8149" />
      <use
         transform="matrix(0.987688,-0.156435,0.156435,0.987688,-25.75569,105.9884)"
         id="use8155"
         x="0"
         y="0"
         width="936"
         height="846"
         xlink:href="#use8137" />
      <use
         transform="matrix(0.978147,0.207912,-0.207912,0.978147,62.25391,-147.6909)"
         id="use8185"
         x="0"
         y="0"
         width="936"
         height="846"
         xlink:href="#use8149" />
      <use
         transform="matrix(0.992546,0.121869,-0.121869,0.992546,32.57508,-78.22489)"
         id="use8149"
         x="0"
         y="0"
         width="936"
         height="846"
         xlink:href="#use8147" />
      <use
         transform="translate(21.46249,13.9326)"
         id="use8147"
         x="0"
         y="0"
         width="936"
         height="846"
         xlink:href="#use8145" />
      <use
         transform="translate(17.95498,13.9326)"
         id="use8145"
         x="0"
         y="0"
         width="936"
         height="846"
         xlink:href="#use8143" />
      <use
         transform="matrix(0.994522,0.104529,-0.104529,0.994522,32.92104,-62.88333)"
         id="use8143"
         x="0"
         y="0"
         width="936"
         height="846"
         xlink:href="#use8141" />
      <use
         transform="translate(26.45017,9.802406)"
         id="use8141"
         x="0"
         y="0"
         width="936"
         height="846"
         xlink:href="#use8139" />
    </g>
  </g>
  <use
     transform="matrix(-1,0,0,1,369.8139,0)"
     id="Markattvinge-2"
     x="0"
     y="0"
     width="251"
     height="304.20001"
     xlink:href="#Markattvinge" />
  <path
     d="M 249.55062,1.4395041 L 125.50012,1.4395041 L 1.449569,1.4395041 L 1.449569,174.9361 C 0.68232904,268.65698 81.739009,302.75585 125.5001,302.75585 C 168.49395,302.75585 250.31785,268.65698 249.55062,174.9361 L 249.55062,1.4395041 z "
     style="fill:none;fill-opacity:0;stroke:#000000;stroke-width:1.88832211;stroke-linecap:round"
     id="Frame" />
</svg>
