<!-- Created with Inkscape (http://www.inkscape.org/) -->
<svg xmlns:rdf="http://www.w3.org/1999/02/22-rdf-syntax-ns#" xmlns="http://www.w3.org/2000/svg" height="300" width="248" version="1.0" xmlns:cc="http://creativecommons.org/ns#" xmlns:dc="http://purl.org/dc/elements/1.1/">
 <metadata>
  <rdf:RDF>
   <cc:Work rdf:about="">
    <dc:format>image/svg+xml</dc:format>
    <dc:type rdf:resource="http://purl.org/dc/dcmitype/StillImage"/>
    <dc:title/>
   </cc:Work>
  </rdf:RDF>
 </metadata>
 <path stroke-miterlimit="4" d="m247,1.0001,0,214.77c0,82.42-84.912,44.012-123,82.791-38.089-38.77-123-0.37-123-82.79v-214.77z" fill="#ffcd50"/>
 <path d="M34.875,230.19c-11.566,0-22.084,4.48-29.938,11.78,10.986,30.55,43.22,31.29,73.688,36.81,0.161-1.51,0.25-3.04,0.25-4.59,0-24.3-19.699-44-44-44z" fill="#250"/>
 <path d="M213.12,230.19c-24.3,0-44,19.7-44,44,0,1.55,0.09,3.08,0.26,4.59,30.46-5.52,62.7-6.26,73.68-36.81-7.85-7.3-18.37-11.78-29.94-11.78z" fill="#250"/>
 <path d="M124,222.41c-35.686,0-66.656,20.09-82.25,49.59,27.182,7.2,61.6,5.54,82.25,26.56,20.64-21.01,55.04-19.37,82.22-26.56-15.6-29.49-46.54-49.59-82.22-49.59z" fill="#250"/>
 <path d="m247,1.0001,0,214.77c0,82.42-84.912,44.012-123,82.791-38.089-38.77-123-0.37-123-82.79v-214.77z" stroke="#000" stroke-dasharray="none" stroke-miterlimit="4" stroke-width="2" fill="none"/>
 <g transform="matrix(1.0210915,0,0,1.0210915,-14.286939,1.8884514)">
  <g transform="matrix(1.0023649,0,0,1.0023649,2.1655406,-0.57586483)">
   <path fill="#003d8f" d="m49.366,211.22s2.0485-7.0879,8.468-8.3272c10.699-2.0675,1.1111,9.1009-0.80418,8.0786-4.2442-3.1014-7.6638,0.24861-7.6638,0.24861z" fill-rule="evenodd"/>
   <path fill="#003d8f" d="m102.71,29.771c0.15474,3.7381,5.1396,9.1906,15.422,7.6334,12.618-1.7136,20.408-1.8696,23.523,1.7136l0.31203,3.1153h-2.0256c-0.15251-1.2462-9.8061-5.7634-23.829-1.4014-10.44,3.2711-20.098-2.8046-13.398-11.06z" fill-rule="evenodd"/>
   <path fill="#003d8f" d="m119.84,38.027c-0.77881-2.1804-1.1835-5.2652-1.1835-5.2652l5.8563-0.96527c-1.8684,1.4016-3.582,4.3608-4.6728,6.2305zm0.0318,0.96652c-0.31204,2.3364,0.43506,5.732,0.43506,5.732l6.1074-0.21816c-2.0256-1.2456-4.9849-3.8015-6.5425-5.5138z" fill-rule="evenodd"/>
   <path fill="#d40000" d="m66.418,49.859c-7.5535-0.79023-12.301,1.5081-10.902,9.196-2.9478,1.9584-3.3639,7.0728-0.71412,9.6105-2.2781,4.0158-0.6989,7.8465,3.114,8.8866,2.1221,0.57967,4.3976-0.08879,6.5285-0.37799,0.70144,0.35896,1.8379,0.48454,2.6408,0.49088-0.1579-9.2337-0.38758-18.493-0.6666-27.806z" fill-rule="evenodd"/>
   <path fill="#d40000" d="M111.43,68.731c-7.06-1.973-14.93-5.215-21.985-7.872-1.34-5.266-3.791-12.481-11.165-9.556-0.05834,2.0587-0.11289,4.1173-0.16743,6.1722l3.1736,3.5693-3.2497-0.61646c-0.15982,6.4068-0.29681,12.792-0.39956,19.17,1.6261,0.03678,4.2289-0.6545,5.4099-1.3001l2.6789,0.14841c2.6206,2.2845,3.2155,5.1663,1.7859,8.6456,1.5627,0.91323,3.1254,1.7745,4.6881,2.5876,1.5348-2.4734,1.6096-4.9481,1.1543-7.4216,1.6274,2.8832,2.424,5.9071,2.2159,9.0982,1.8214,0.8676,3.6441,1.668,5.4657,2.4112l0.54541-2.8857c-0.5706-9.4607,2.2896-15.692,9.8474-22.148z" fill-rule="evenodd"/>
   <path d="m66.82,36.469c1.3205,40.211,2.0016,79.398,0.35769,119.49,1.687,0,3.322-0.58094,5.0623-0.58094,1.739,0,3.3753,0.58094,5.0623,0.58094-1.6439-40.084-0.96276-79.271,0.35769-119.49-3.5897,0.59108-7.2503,0.59108-10.84,0z" stroke="#ffcd50" stroke-miterlimit="4" stroke-dasharray="none" stroke-width="4.39665109" fill="none"/>
   <path fill="#000" d="m72.241,48.484c6.6351-3.6036,12.797-2.1233,18.444,2.2578,12.565,9.7505,15.945,7.8756,18.88,2.6472l-2.1801-2.1218c-1.5943,7.6269-8.2746,0.68903-11.031-2.0034-5.8711-5.7356-10.009-12.664-24.113-8.8668-14.104-3.7977-18.241,3.1311-24.114,8.8668-2.7561,2.6924-9.4347,9.6302-11.031,2.0034l-2.1804,2.1208c2.9351,5.2285,6.3155,7.1032,18.88-2.6472,5.647-4.3812,11.809-5.8614,18.444-2.2578z" fill-rule="evenodd"/>
   <path fill="#d40000" d="m66.82,36.469c1.3205,40.211,2.0016,79.398,0.35769,119.49,1.687,0,3.322-0.58094,5.0623-0.58094,1.739,0,3.3753,0.58094,5.0623,0.58094-1.6439-40.084-0.96276-79.271,0.35769-119.49-3.5897,0.59108-7.2503,0.59108-10.84,0z" fill-rule="evenodd"/>
   <path d="m64.609,115.85c5.5567,0.90374,9.0817,0.63682,14.603-0.56307m1.7343,23.037c-1.4209,0.41031-2.9222,0.66796-4.7863,0.65171-3.4821-0.0317-7.3568,0.08-10.964-0.10551" stroke="#ffcd50" stroke-miterlimit="4" stroke-dasharray="none" stroke-width="5.32424545000000030" fill="none"/>
   <path fill="#d40000" d="m68.879,85.398c-5.6762-0.5264-5.6813,3.2599-5.0039,10.333,0.30315,3.1762,0.81179,8.1179-1.5652,10.722-0.59869,0.6545-1.4003,1.1175-2.4493,1.1175-1.1428,0-2.07-0.92597-2.07-2.07,0-1.1428,0.92723-2.0688,2.07-2.0688,0.64944,0,1.2304,0.29807,1.6096,0.76612,2.0308-3.0734,0.04693-7.6498-0.51625-10.872-1.4296-5.8271-0.241-13.618,7.9251-14.758v6.8304z" fill-rule="evenodd"/>
   <path fill="#d40000" d="m95.878,215.54c6.2127,3.3804,4.6919,10.558,1.498,13.577-4.3786,4.1363-12.273,4.6373-13.695-5.4897-1.6718,0.63549-3.369,0.92974-5.2373,1.2354-0.22959,6.3725-6.54,9.4042-11.436,8.2092-5.7624-1.304-5.3857-5.6267-3.629-9.8743-0.96527,0.92722-1.5627,2.1728-1.9902,3.407-5.6027,0.91835-8.2778-2.8413-8.402-6.956-0.03932-5.3223,2.7069-7.7539,7.8833-7.438-1.4042-0.41477-2.7956-0.65831-4.1756-0.73061-2.2591-2.7588,3.5922-13.601,12.668-8.1268,2.6523,1.6007,4.8111,2.2223,7.0372,2.1982,6.1176-0.0659,15.995-4.5879,18.878-11.673,3.3765-8.2942,0.63041-18.428-0.10401-20.469-0.88155,2.2667-2.5064,3.7926-4.6449,4.1909-1.5678-0.26003-3.1051-0.57459-4.5955-0.93988,2.3897-1.9051,3.7355-4.3798,1.6464-6.7011-2.0244,4.045-4.5498,5.1016-6.2267,5.3591-2.7259-0.94373-5.2094-2.0917-7.3365-3.4349,8.2561-2.6257,8.4997-7.9403,12.393-13.378,4.4116-6.1633,10.331-11.804,19.002-15.02,11.67-4.3266,24.566-6.3929,35.978-11.866,2.1424,2.8159,3.5009,5.784,2.736,8.7445-1.6819,6.5159-5.0973,8.3446-7.5308,18.831-18.904,1.1353-26.615,31.344-7.0549,26.522v0.29808c-0.0317,2.0384-0.19914,4.1554-0.55557,6.2825-2.7576,1.5551-5.5849,2.2819-8.4807,2.1766,1.2176,3.1457,3.6632,4.1553,6.9522,3.705-0.74076,2.0371-1.7162,4.026-2.977,5.8969-3.4818,0.94248-6.4702-0.085-9.1224-2.4608-0.84985,4.1198,1.3306,6.1049,5.5887,6.6314-1.6007,1.5145-3.4818,2.8907-5.6788,4.0754-3.1318,0.27652-5.5075-1.1099-7.2567-3.8751-1.2722,2.6383-0.54161,4.6538,2.1893,6.0466-3.7266,3.0772-7.7552,2.8261-12.032-0.18011-0.71032,0.67353-1.4714,1.0807-2.2882,1.2266z" fill-rule="evenodd"/>
   <path d="m141.2,147.37c-3.473-0.20167-4.3165-4.3291-3.133-7.3302,0.51498-1.304,1.4092-2.3961,2.6408-2.859-0.54669-2.6294-1.9064-6.2838-6.4956-9.8151,1.4955-0.12938,3.0429-0.0215,4.6373,0.31838,3.4476,3.9917,6.2191,8.5326,5.0394,13.101-0.62787,2.3085-1.6819,4.4293-2.6891,6.5856z" stroke="#ffcd50" stroke-miterlimit="4" stroke-dasharray="none" stroke-width="2.93110073" fill="none"/>
   <path fill="#d40000" d="m141.2,147.37c-3.473-0.20167-4.3165-4.3291-3.133-7.3302,0.51498-1.304,1.4092-2.3961,2.6408-2.859-0.54669-2.6294-1.9064-6.2838-6.4956-9.8151,1.4955-0.12938,3.0429-0.0215,4.6373,0.31838,3.4476,3.9917,6.2191,8.5326,5.0394,13.101-0.62787,2.3085-1.6819,4.4293-2.6891,6.5856z" fill-rule="evenodd"/>
   <g fill="#003d8f" transform="matrix(1.2684237,0,0,1.2684237,-244.57888,-405.05873)" fill-rule="evenodd">
    <path d="m247.43,378.6s-3.322,3.463-7.394,2.238c-6.787-2.042,2.11-5.578,2.904-4.41,1.508,3.069,4.49,2.172,4.49,2.172z"/>
    <path d="m247.43,364.86s-3.321,3.463-7.393,2.238c-6.787-2.042,2.11-5.578,2.904-4.41,1.508,3.069,4.489,2.172,4.489,2.172z"/>
    <path d="m247.43,371.73s-3.321,3.463-7.393,2.238c-6.787-2.042,2.11-5.578,2.904-4.409,1.508,3.068,4.489,2.171,4.489,2.171z"/>
   </g>
   <path fill="#003d8f" d="m98.462,236.18s3.4159-6.54-0.36784-11.872c-6.3053-8.8878-7.0918,5.8119-5.0001,6.3954,5.2107,0.69129,5.368,5.4771,5.368,5.4771z" fill-rule="evenodd"/>
   <path fill="#003d8f" d="m64.622,238.4s-3.4159-6.5388,0.36784-11.871c6.3053-8.8878,7.0918,5.8119,5.0001,6.3954-5.2107,0.69129-5.368,5.4758-5.368,5.4758z" fill-rule="evenodd"/>
   <path fill="#003d8f" d="m51.219,230.4s-2.6612-6.8812,1.6959-11.756c7.263-8.1242,6.3954,6.5704,4.2518,6.9154-5.2551,0.10275-5.9476,4.8403-5.9476,4.8403z" fill-rule="evenodd"/>
   <path fill="#000" d="M41.306,58.957c-0.338-0.162-0.512-0.449-0.625-0.781l-1.116-3.305c-0.19787-0.58982,0.12176-1.2316,0.71286-1.4282,0.58982-0.19787,1.2304,0.12176,1.4282,0.71158l1.0046,2.9732,29.53,14.115,29.531-14.115,1.0046-2.9732c0.19661-0.58982,0.83843-0.90946,1.4282-0.71158,0.59109,0.19661,0.90947,0.83843,0.71287,1.4282l-1.1162,3.3043c-0.11289,0.33233-0.28667,0.619-0.62533,0.78135l-30.921,14.787-30.934-14.786z" fill-rule="evenodd"/>
   <path fill="#000" d="m70.915,28.393,2.5635,0,0,43.654-2.5635,0,0-43.654z" fill-rule="evenodd"/>
   <path fill="#000" d="m69.826,32.356,0-4.442-7.5217,2.585c5.2781-7.4681,7.8718-15.891,9.8922-24.648,2.0204,8.757,4.6142,17.18,9.8922,24.648l-7.5217-2.585v4.442h-4.7414z" fill-rule="evenodd"/>
   <path fill="#FFF" d="m71.623,30.559,1.1467,0,0-5.1599,5.0927,1.7491c-2.476-4.431-4.264-9.2-5.666-14.067-1.4017,4.8656-3.1901,9.6365-5.666,14.066l5.0915-1.7479v5.1599z" fill-rule="evenodd"/>
   <path fill="#003d8f" d="m142.67,219.95s2.0498-7.0879,8.4693-8.3285c10.699-2.0675,1.1112,9.1018-0.80418,8.0786-4.2454-3.1-7.6651,0.24988-7.6651,0.24988z" fill-rule="evenodd"/>
   <path fill="#d40000" d="m151.46,8.5938c1.2469,1.5576,0.4639,3.877-1.0938,4.3438-9.0354-0.31204-16.664,0.62841-19.156,2.0312-4.2061,2.0244,0.0137,3.9065-5.75,4.0625-2.9605,0-6.5412,0.93977-9.8125,1.5625-0.46806,1.4016-0.6228,2.3176,0,4.0312l1.2188-0.15625c-2.9592,5.9197-0.61743,13.855,12.625,7.3125,2.6472-1.5589,7.6325,1.4167,10.125,5,3.4273,4.9849-1.2319,6.9956-5.75,5.75-4.2061-1.2469-11.698-0.3079-14.812,1.0938,0.15601,0.62406,0.16023,1.2525,1.0938,2.0312-2.6472,3.1153-1.0839,7.4768,2.0312,9.9688-0.31203-6.2318,3.2797-8.4013,12.625-6.8438,4.8137,0.19026,5.8214,3.2265,3.3125,5.875-4.2213,4.1795-11.079,6.8122-17.188,10.375-8.3729,4.8847-15.815,11.284-16.062,18.75,1.8696-1.7136,4.4431-1.9665,6.4688-1.3438-4.0501,3.5821-7.0647,9.232-7.6875,13.906l13.5-7v1.25c-8.5809,9.266-18.934,17.565-31.906,24.438-0.53147-2.9555-0.90363-6.101-1.3438-6.7188-0.43888-0.61899-2.3008-1.4242-4.5625-2.3438l-0.59375,0.0937c-0.001,3.0747,0.0122,6.1419,0.0312,9.2188v0.0312c-4.7464,1.1974-8.3168,1.4643-13.094,0.5625l0.0312-4.1875c-1.9648-0.41478-3.4369-0.64414-4.9375-0.53125-3.8294,0.28919-6.9338,3.7253-4.6875,7.0625,2.4189,3.5947,3.3872,4.4403,7.875,5.9688v1.2188c-6.0707-0.56571-4.7856,0.14004-8.5312-3.5625l-0.125,3.875c3.6683,4.1047,4.4596,4.7898,9.75,5.75v1.1562c-6.3142,0.3336-4.666,0.88382-9.4062-2.5625,2.027,5.6775,4.0717,8.3842,10.812,8.7812,3.1013,0.1852,6.4127,0.0622,9.4062,0.0937,3.6277,0.0368,5.6604-1.3265,8.9062-2.6875,3.1673-1.328,6.726-2.6637,10.594-5.5938,2.2134,1.4841,3.2991,3.9563,3.875,6.875,2.1931-0.57968,4.1651-1.4157,5.9688-2.4062,0.19533-1.9572,0.18541-3.9191-0.53125-5.875,1.6858,0.95513,2.7717,2.3594,3.3438,4.125,1.6857-1.1758,3.2418-2.4827,4.75-3.8438-0.0153-2.1043-0.27481-4.0448-1.4062-5.4375,1.9636,0.42873,3.5119,1.2286,4.1562,2.875,2.5724-2.3783,5.2693-4.6077,7.8125-7,4.2682-4.0146,8.8778-7.6968,14.906-8.7812l0.28125-3.2188c-6.1298-2.3356-0.0622-11.295,1.4688-15.188l1,0.40625c-1.3166,3.3474-4.2658,11.453,0.4375,12.906l-0.3125,7.9375c-3.7875,0.10654-6.3383,1.333-9.1875,3.2812,4.4788,5.3934,16.595,14.08,14.031,24-2.1132,8.1801-11.114,16.63-6.375,37.906-2.4278,9.7038-2.5681,19.755,2.375,27.719,1.4916-1.082,2.8646-2.496,4.0938-3.9688-5.0687-10.395,2.2676-11.34-0.75-22.125,2.1386,1.6096,3.9775,4.4919,3.375,7.2812-0.70144,3.2395-3.5854,5.4331-0.28125,11.25,1.9711-3.2053,7.7771-7.0259,5.2188-13.531,6.4294,5.1481,15.968,1.7902,19.281,9.9375,1.6845,4.1428,4.2165,16.276-4.7188,17.594-3.6595,0.53951-6.7416-0.76132-10.094-1.875-8.2029-2.8578-10.712,10.013-4.3125,9.4688-15.921,8.241,3.4257,22.575,9.4062,7.2188-2.1855,10.661,15.247,14.067,16.406,1.0938,2.0891-0.35643,4.2086-1.0562,6.375-2.4375,7.4469,3.1775,12.335-2.0125,12.938-6.9375,0.48643-3.9848-2.1273-9.0821-8.5-6.9688,0.80096-1.2627,1.4266-3.0485,1.4375-4.4062,6.1914-0.87076,6.8445-1.9351,8.4375-8.0625-3.5089,1.1501-5.7984,0.20634-6.6562-3.25,2.7652,0.16714,5.3132-0.25958,7.625-1.4375,0.34677-2.21,0.59398-4.5571,0.71875-7-2.4158,1.8089-4.9278,1.1244-7.5312-1,3.1954-0.42957,5.8456-1.6372,7.625-4.1562-0.0154-2.3031-0.11166-4.6713-0.28125-7.0938-2.8011,2.9701-6.045,4.1483-8.6562,0.5,4.1957-1.4078,6.4543-3.7586,8-7.3125-0.2977-2.4648-0.66631-4.9568-1.0938-7.4688-12.013,9.7924-22.259,10.151-25.719,8.375-0.88261-0.45302-1.4661-1.1131-1.6875-2-0.69074-2.7672,3.3124-6.5487,5.125-8.875,3.2269-4.1401,4.1649-9.1587,4-14.219,7.5128,8.4045,17.67,13.814,28.969,8.7812,10.07-4.4852,17.202-16.004,10.375-26.938-2.1538-3.4501-5.4414-6.4272-8.9688-9.3438-1.6299-1.3484-3.9457-3.3725-5.625-4.75-0.88917,0.34374-1.8307,0.67702-2.8125,0.96875-2.8514,0.85111-1.3216,4.0854,0.25,5.6875-5.6812-2.1043-7.2075-6.6444-1.0938-8.4062,10.887-3.1368,15.131-9.4387,12.781-18.469-2.0256,6.4842-6.128,9.8148-11.688,11,7.4266-4.7566,10.004-10.625,5.5625-18.156-0.87014,7.1679-6.1311,10.986-11.969,14.656-13.052,8.2105-9.7029,20.443,3.9375,22.75,6.3434,1.0731,9.7697,1.4509,13.469,7.1562,4.6716,7.2097,0.19357,14.399-6.25,17.5-10.679,5.1396-19.91-2.8242-25.906-11.906-2.2667-3.4349-2.7684-6.3172-4-10.188-3.4907-10.963-9.4085-20.286-12.656-28.125-1.7301-4.1769-4.1552-10.385-4.3125-14.656,2.755,0.73568,7.3444-0.4751,9.0312-1.8438-3.8446-1.8354-4.7194-3.8298-4.5-7.0312,7.3214,1.4029,11.974-1.7986,14.156-7.4062-4.8288,0.77881-9.1014-0.29631-11.594-5.2812,8.5682,0.6228,13.877-2.0225,14.5-9.1875-6.6986,2.6485-11.224,1.5737-12.938-4.9688,7.4774-0.15602,11.689-3.4281,12-10.594-5.2969,2.8032-10.136,3.1053-13.875-3.2812,4.0501-2.8045,7.0312-6.2341,7.0312-11.219-2.3364,1.0896-4.6948,1.8701-7.0312,0.3125-0.77881,1.5576-2.4746,2.9729-4.6562,4.0625-0.31077-0.31076-0.6267-0.46922-0.9375-0.78125,4.8288-3.7381,5.308-9.3595,4.0625-14.812-3.8954,0.46805-11.068,1.272-12.781,8.2812l-0.9375-0.9375c0.31076-3.1153,1.4135-5.0068,3.75-7.0312-1.8696-1.2469-3.7554-2.3132-5.625-2.7812zm45.316,89.043c-0.0926-6.521,3.9625-12.82,8.2854-18.03,6.0148-7.2503,12.133-13.708,14.983-22.201,11.748-4.116,12.447-15.327,9.3988-22.867-0.54289,1.9305-1.8861,6.5285-5.1828,6.0871,6.4969-11.995-0.78769-24.029-7.2757-25.782,4.9964,9.4248-2.8311,15.211-5.628,23.838-1.2926,3.8915-0.21817,10.992,2.6662,15.522-2.3554,8.2613-8.5682,14.418-14.133,21.126-6.469,7.7982-11.592,17.411-9.2821,27.107,1.8519-1.9001,3.9816-3.322,6.1683-4.7984z" fill-rule="evenodd"/>
   <path fill="#003d8f" d="m148.59,240.27s-3.4824-6.5043,0.24748-11.875c6.2142-8.951,7.1506,5.7394,5.0652,6.3438-5.2044,0.74449-5.3126,5.5312-5.3126,5.5312z" fill-rule="evenodd"/>
   <path fill="#003d8f" d="m166.4,243.5s-3.6328-6.4216-0.0288-11.878c6.0043-9.0931,7.2822,5.5715,5.2114,6.2243-5.1856,0.86535-5.1825,5.6533-5.1825,5.6533z" fill-rule="evenodd"/>
   <path fill="#003d8f" d="m204.02,225.28s-0.81487-7.3335-6.9306-9.6452c-10.193-3.8545-2.6412,8.7803-0.57972,8.0983,4.7098-2.3354,7.5105,1.5473,7.5105,1.5473z" fill-rule="evenodd"/>
   <path fill="#ffcd50" d="m164.56,14.348c-3.8941,0.31204-6.3865,3.2713-7.0093,6.3878l1.7136,2.6485-0.62279,0.46678-3.2725-2.8045c1.2469-4.6728,3.8954-6.5425,8.8802-7.4774l0.31076,0.77881z" fill-rule="evenodd"/>
   <path fill="#ffcd50" d="m141.78,22.323c-0.15602,1.8696-1.0909,3.5833-2.6484,4.2061-1.5577-0.93485-2.6485-2.8045-2.6485-4.8289-0.93485,1.5576-0.93485,3.4273-0.15601,4.8289-1.7136-0.6228-2.8032-2.1804-2.8032-4.2061,0.15474-2.3364,8.4122-2.3364,8.2561,0z" fill-rule="evenodd"/>
   <path fill="#ffcd50" d="m135.54,20.453c2.3364-0.6228,8.1001-1.2456,9.0354,2.1817,0.46805-4.2061-3.582-4.3621-6.6986-4.0514-2.0244,0.31204-6.2305,1.5589-5.7637-2.1804-2.3364,2.9605,0.31204,4.9849,3.4273,4.0501z" fill-rule="evenodd"/>
  </g>
 </g>
</svg>
