<?xml version="1.0" encoding="UTF-8" standalone="no"?>
<!-- Created with Inkscape (http://www.inkscape.org/) -->
<svg
   xmlns:dc="http://purl.org/dc/elements/1.1/"
   xmlns:cc="http://web.resource.org/cc/"
   xmlns:rdf="http://www.w3.org/1999/02/22-rdf-syntax-ns#"
   xmlns:svg="http://www.w3.org/2000/svg"
   xmlns="http://www.w3.org/2000/svg"
   xmlns:xlink="http://www.w3.org/1999/xlink"
   version="1.0"
   width="251"
   height="304.20001"
   id="svg4166">
  <defs
     id="defs4168" />
  <metadata
     id="metadata1880"><rdf:RDF><cc:Work
         rdf:about=""><dc:title>Alvesta kommunvapen</dc:title><dc:date>10-10-2007</dc:date><dc:creator><cc:Agent><dc:title>Lokal_Profil</dc:title></cc:Agent></dc:creator><cc:license
         rdf:resource="http://creativecommons.org/licenses/by-sa/2.5/" /><dc:rights><cc:Agent><dc:title>cc-by-sa-2.5</dc:title></cc:Agent></dc:rights><dc:format>image/svg+xml</dc:format><dc:type
         rdf:resource="http://purl.org/dc/dcmitype/StillImage" /></cc:Work><cc:License
         rdf:about="http://creativecommons.org/licenses/by-sa/2.5/"><cc:permits
         rdf:resource="http://web.resource.org/cc/Reproduction" /><cc:permits
         rdf:resource="http://web.resource.org/cc/Distribution" /><cc:requires
         rdf:resource="http://web.resource.org/cc/Notice" /><cc:requires
         rdf:resource="http://web.resource.org/cc/Attribution" /><cc:permits
         rdf:resource="http://web.resource.org/cc/DerivativeWorks" /><cc:requires
         rdf:resource="http://web.resource.org/cc/ShareAlike" /></cc:License></rdf:RDF>
  </metadata>
  <path
     d="M 249.55058,1.4395041 L 1.4495291,1.4395041 L 1.4495291,174.9361 C 0.68228908,268.65698 81.738969,302.75585 125.50006,302.75585 C 168.49391,302.75585 250.31781,268.65698 249.55058,174.9361 L 249.55058,1.4395041 z "
     style="color:#000000;fill:#225500;fill-opacity:1;stroke:none"
     id="Shield" />
  <path
     d="M 2.469,193.61901 C 11.895331,273.22397 85.49571,302.74401 125.50025,302.74401 C 166.21869,302.74401 239.1941,273.22396 248.5315,193.61901 L 2.469,193.61901 z "
     style="fill:#ffcd50;fill-opacity:1;fill-rule:nonzero;stroke:none;stroke-width:0.69999999;stroke-linecap:butt;stroke-miterlimit:4;stroke-opacity:1"
     id="Stam" />
  <path
     d="M 249.55062,1.4395041 L 1.449569,1.4395041 L 1.449569,174.9361 C 0.68232904,268.65698 81.739009,302.75585 125.5001,302.75585 C 168.49395,302.75585 250.31785,268.65698 249.55062,174.9361 L 249.55062,1.4395041 z "
     style="fill:none;fill-opacity:0;stroke:#000000;stroke-width:1.88832211;stroke-linejoin:bevel"
     id="Frame" />
  <g
     transform="matrix(0.163616,0,0,0.163616,66.99783,60.31079)"
     id="Bee">
    <path
       d="M 397.43823,585.26342 L 440.97307,665.66575 L 446.64569,766.88604 L 465.24078,782.49418 L 465.61145,763.27371 L 458.52545,752.52869 L 455.26111,663.95224 L 403.94552,574.44905 L 397.43823,585.26342 z "
       style="fill:#ffcd50;fill-opacity:1;fill-rule:evenodd;stroke:none;stroke-width:3.09356689px;stroke-linecap:butt;stroke-linejoin:miter;stroke-opacity:1"
       id="path3884" />
    <path
       d="M 315.67897,585.26342 L 272.14413,665.66575 L 266.47152,766.88604 L 247.87643,782.49418 L 247.50576,763.27371 L 254.59176,752.52869 L 257.85609,663.95224 L 309.17168,574.44905 L 315.67897,585.26342 z "
       style="fill:#ffcd50;fill-opacity:1;fill-rule:evenodd;stroke:none;stroke-width:3.09356689px;stroke-linecap:butt;stroke-linejoin:miter;stroke-opacity:1"
       id="path3886" />
    <g
       transform="matrix(4.714027,0,0,4.714027,3432.041,-107.1889)"
       id="g3888">
      <path
         d="M -652.60807,107.3972 C -638.63783,97.437751 -628.0669,179.69999 -653.0922,185.34223 C -677.50848,179.96212 -665.95134,98.415791 -652.60807,107.3972 z "
         style="fill:#ffcd50;fill-opacity:1;fill-rule:evenodd;stroke:#225500;stroke-width:1px;stroke-linecap:butt;stroke-linejoin:miter;stroke-opacity:1"
         id="path3890" />
      <path
         d="M -659.92537,180.8774 C -655.63289,180.20592 -650.98395,179.97224 -646.43893,181.19481 C -645.18634,179.9984 -644.67843,179.02383 -644.0273,177.94211 C -650.53561,175.93984 -656.58248,176.28947 -662.2103,177.43444 C -661.62011,178.5821 -661.01243,179.72975 -659.92537,180.8774 z "
         style="fill:#225500;fill-opacity:1;fill-rule:evenodd;stroke:none;stroke-width:1px;stroke-linecap:butt;stroke-linejoin:miter;stroke-opacity:1"
         id="path3892" />
      <path
         d="M -664.04003,172.91077 C -658.27921,171.40393 -648.17068,171.04598 -641.99517,173.51175 C -641.28276,172.25532 -640.9549,171.34077 -640.66389,170.13901 C -647.1722,167.6216 -658.95658,167.27858 -665.30463,169.22773 C -664.83448,170.73551 -664.64693,171.58306 -664.04003,172.91077 z "
         style="fill:#225500;fill-opacity:1;fill-rule:evenodd;stroke:none;stroke-width:1px;stroke-linecap:butt;stroke-linejoin:miter;stroke-opacity:1"
         id="path3894" />
      <path
         d="M -666.12012,165.03315 C -659.685,163.07154 -646.2887,162.88354 -639.72053,165.87421 C -639.42825,164.49774 -639.34942,163.34013 -639.0584,162.19839 C -646.52702,158.53089 -659.59621,158.82261 -666.78453,161.29009 C -666.55446,162.43775 -666.36691,163.82548 -666.12012,165.03315 z "
         style="fill:#225500;fill-opacity:1;fill-rule:evenodd;stroke:none;stroke-width:1px;stroke-linecap:butt;stroke-linejoin:miter;stroke-opacity:1"
         id="path3896" />
      <path
         d="M -667.16787,156.41912 C -660.65412,153.9857 -645.04625,153.86016 -638.5673,157.38618 C -638.27502,156.00971 -638.07018,154.9151 -638.03116,153.64736 C -645.49978,149.97986 -660.14396,150.20858 -667.33228,152.67606 C -667.35421,154.07572 -667.16266,155.08545 -667.16787,156.41912 z "
         style="fill:#225500;fill-opacity:1;fill-rule:evenodd;stroke:none;stroke-width:1px;stroke-linecap:butt;stroke-linejoin:miter;stroke-opacity:1"
         id="path3898" />
      <path
         d="M -667.16787,147.34719 C -660.65412,144.91377 -645.04625,144.78823 -638.5673,148.31425 C -638.27502,146.93778 -638.60242,145.84317 -638.5634,144.57543 C -646.03202,140.90793 -659.74478,141.00359 -666.9331,143.47107 C -666.95503,144.87073 -667.16266,146.01352 -667.16787,147.34719 z "
         style="fill:#225500;fill-opacity:1;fill-rule:evenodd;stroke:none;stroke-width:1px;stroke-linecap:butt;stroke-linejoin:miter;stroke-opacity:1"
         id="path3900" />
      <path
         d="M -666.76269,138.85113 C -660.24894,136.41771 -644.912,136.48041 -638.43305,140.00643 C -638.37607,138.67702 -638.54771,137.15887 -638.74398,135.98525 C -646.2126,132.31775 -659.07994,132.59353 -666.26826,135.06101 C -666.61961,136.46067 -666.56924,137.61158 -666.76269,138.85113 z "
         style="fill:#225500;fill-opacity:1;fill-rule:evenodd;stroke:none;stroke-width:1px;stroke-linecap:butt;stroke-linejoin:miter;stroke-opacity:1"
         id="path3902" />
      <path
         d="M -665.57376,129.66741 C -659.13864,127.7058 -645.93539,127.79204 -639.36722,130.78271 C -639.40436,129.40624 -639.79613,128.10745 -639.9757,127.01277 C -647.44432,123.34527 -657.77924,123.40981 -664.96756,125.87729 C -665.11397,127.11907 -665.34995,128.41268 -665.57376,129.66741 z "
         style="fill:#225500;fill-opacity:1;fill-rule:evenodd;stroke:none;stroke-width:1px;stroke-linecap:butt;stroke-linejoin:miter;stroke-opacity:1"
         id="path3904" />
      <path
         d="M -663.53518,120.62821 C -657.98639,118.06125 -647.72371,118.70934 -641.53738,121.22919 C -641.53087,119.97276 -641.8277,118.86997 -642.00729,117.66821 C -648.5156,115.1508 -656.14266,114.8159 -662.49071,116.76505 C -663.00881,118.31989 -663.24795,119.25344 -663.53518,120.62821 z "
         style="fill:#225500;fill-opacity:1;fill-rule:evenodd;stroke:none;stroke-width:1px;stroke-linecap:butt;stroke-linejoin:miter;stroke-opacity:1"
         id="path3906" />
    </g>
    <g
       transform="matrix(4.714027,0,0,4.714027,2963.375,992.3937)"
       id="g3908">
      <path
         d="M -542.26931,-153.50316 C -542.13784,-146.51072 -547.11463,-147.52143 -553.24676,-147.52143 C -559.37888,-147.52143 -564.75007,-146.24778 -564.48714,-153.50316 C -564.34129,-157.60074 -559.51035,-160.93101 -553.37823,-160.93101 C -547.2461,-160.93101 -542.26931,-157.60333 -542.26931,-153.50316 z "
         style="fill:#ffcd50;fill-opacity:1;fill-rule:evenodd;stroke:#225500;stroke-width:1;stroke-linecap:round;stroke-linejoin:round;stroke-miterlimit:4;stroke-dashoffset:0;stroke-opacity:1"
         id="path3910" />
      <path
         d="M -564.48714,-153.50316 C -564.34129,-157.60074 -559.51035,-160.93101 -553.37823,-160.93101 C -551.9817,-156.22617 -561.44585,-151.13166 -564.48714,-153.50316 z "
         style="fill:#ffcd50;fill-opacity:1;fill-rule:evenodd;stroke:#225500;stroke-width:1;stroke-linecap:round;stroke-linejoin:round;stroke-miterlimit:4;stroke-dashoffset:0;stroke-opacity:1"
         id="path3912" />
      <path
         d="M -542.26931,-153.50316 C -547.653,-152.06804 -553.65249,-155.44745 -553.37823,-160.93101 C -547.2461,-160.93101 -542.26931,-157.60333 -542.26931,-153.50316 z "
         style="fill:#ffcd50;fill-opacity:1;fill-rule:evenodd;stroke:#225500;stroke-width:1;stroke-linecap:round;stroke-linejoin:round;stroke-miterlimit:4;stroke-dashoffset:0;stroke-opacity:1"
         id="path3914" />
      <path
         d="M -556.95038,-159.9344 C -560.05137,-165.40272 -563.50631,-170.40539 -570.19202,-172.8011"
         style="fill:none;fill-opacity:0.75;fill-rule:evenodd;stroke:#ffcd50;stroke-width:1px;stroke-linecap:butt;stroke-linejoin:miter;stroke-opacity:1"
         id="path3916" />
      <path
         d="M -550.26467,-159.9344 C -551.06203,-164.98391 -544.72992,-170.60568 -537.40167,-172.8011"
         style="fill:none;fill-opacity:0.75;fill-rule:evenodd;stroke:#ffcd50;stroke-width:1px;stroke-linecap:butt;stroke-linejoin:miter;stroke-opacity:1"
         id="path3918" />
    </g>
    <path
       d="M 301.68769,378.25931 L 230.29126,435.37645 L 185.66851,526.40686 L 162.46468,533.5465 L 169.60432,515.69742 L 180.31379,508.55778 L 217.7969,428.23681 L 299.90277,365.76495 L 301.68769,378.25931 z "
       style="fill:#ffcd50;fill-opacity:1;fill-rule:evenodd;stroke:none;stroke-width:3.09356689px;stroke-linecap:butt;stroke-linejoin:miter;stroke-opacity:1"
       id="path3920" />
    <path
       d="M 415.92196,378.25931 L 487.31839,435.37645 L 531.94114,526.40686 L 555.14497,533.5465 L 548.00533,515.69742 L 537.29586,508.55778 L 499.81275,428.23681 L 417.70688,365.76495 L 415.92196,378.25931 z "
       style="fill:#ffcd50;fill-opacity:1;fill-rule:evenodd;stroke:none;stroke-width:3.09356689px;stroke-linecap:butt;stroke-linejoin:miter;stroke-opacity:1"
       id="path3922" />
    <path
       d="M 415.92196,340.7762 L 471.25421,294.36851 L 501.59767,208.69283 L 524.8015,201.55318 L 517.66186,219.40226 L 506.95239,226.5419 L 483.74857,301.50816 L 417.70688,353.27056 L 415.92196,340.7762 z "
       style="fill:#ffcd50;fill-opacity:1;fill-rule:evenodd;stroke:none;stroke-width:3.09356689px;stroke-linecap:butt;stroke-linejoin:miter;stroke-opacity:1"
       id="path3924" />
    <path
       d="M 303.47262,340.7762 L 248.14037,294.36851 L 217.7969,208.69283 L 194.59308,201.55318 L 201.73272,219.40226 L 212.44218,226.5419 L 235.64601,301.50816 L 301.68769,353.27056 L 303.47262,340.7762 z "
       style="fill:#ffcd50;fill-opacity:1;fill-rule:evenodd;stroke:none;stroke-width:3.09356689px;stroke-linecap:butt;stroke-linejoin:miter;stroke-opacity:1"
       id="path3926" />
    <path
       d="M 359.69149,295.29525 C 424.24028,279.93715 459.24724,410.16589 357.37911,407.33751 C 254.02814,407.98762 296.44292,281.23382 359.69149,295.29525 z "
       style="fill:#ffcd50;fill-opacity:1;fill-rule:evenodd;stroke:#225500;stroke-width:5.14819145;stroke-linecap:butt;stroke-linejoin:miter;stroke-miterlimit:4;stroke-dasharray:none;stroke-opacity:1"
       id="path3928" />
    <g
       transform="matrix(-3.082294,-0.263851,-0.263851,3.082294,-1218.344,795.7636)"
       id="g3930">
      <path
         d="M -482.35754,-174.30474 C -499.44175,-157.58869 -485.33404,-60.193838 -447.25355,-57.395807 C -412.0347,-82.231978 -467.01089,-170.03355 -482.35754,-174.30474 z "
         style="fill:#ffcd50;fill-opacity:1;fill-rule:evenodd;stroke:#225500;stroke-width:1.52381575;stroke-linecap:butt;stroke-linejoin:miter;stroke-miterlimit:4;stroke-dasharray:none;stroke-opacity:1"
         id="path3936" />
    </g>
    <g
       transform="matrix(3.082294,-0.263851,0.263851,3.082294,1933.46,797.5485)"
       id="g3938">
      <path
         d="M -482.35754,-174.30474 C -499.44175,-157.58869 -485.33404,-60.193838 -447.25355,-57.395807 C -412.0347,-82.231978 -467.01089,-170.03355 -482.35754,-174.30474 z "
         style="fill:#ffcd50;fill-opacity:1;fill-rule:evenodd;stroke:#225500;stroke-width:1.52381575;stroke-linecap:butt;stroke-linejoin:miter;stroke-miterlimit:4;stroke-dasharray:none;stroke-opacity:1"
         id="path3944" />
    </g>
  </g>
  <g
     transform="matrix(0.447173,0,0,0.447173,70.03856,148.1271)"
     style="fill:#225500;fill-opacity:1"
     id="Bevingat-hjul">
    <use
       transform="matrix(-1,0,0,1,248.056,0)"
       style="fill:#225500;fill-opacity:1"
       id="Wing-2"
       x="0"
       y="0"
       width="251"
       height="304.20001"
       xlink:href="#Wing" />
    <path
       d="M 125,166.34513 C 83.60033,166.34513 50,199.94547 50,241.34513 C 50,282.7448 83.600331,316.34512 125,316.34513 C 166.39967,316.34513 200.00001,282.7448 200,241.34513 C 200,199.94546 166.39967,166.34513 125,166.34513 z M 119.81268,177.15205 L 119.81268,228.16069 C 118.31965,228.73699 116.97186,229.55612 115.76781,230.56909 L 71.64471,205.09564 C 82.377561,189.42384 99.80195,178.73585 119.81268,177.15205 z M 130.15644,177.15205 C 150.16718,178.73585 167.62246,189.42384 178.35529,205.09564 L 134.23219,230.56909 C 133.03236,229.55964 131.64342,228.76753 130.15644,228.19157 L 130.15644,177.15205 z M 66.519144,214.04995 L 110.76575,239.61602 C 110.67988,240.2506 110.64224,240.90327 110.64224,241.56127 C 110.64224,242.41265 110.716,243.25149 110.85838,244.0623 L 66.704405,269.53574 C 62.624731,261.06527 60.343766,251.58673 60.343763,241.56127 C 60.343763,231.71985 62.579148,222.40166 66.519144,214.04995 z M 183.48086,214.04995 C 187.42082,222.40166 189.62531,231.71985 189.62536,241.56127 C 189.62532,251.58673 187.34439,261.06527 183.26472,269.53574 L 139.11075,244.0623 C 139.25521,243.24573 139.32689,242.4191 139.32688,241.56127 C 139.32688,240.89731 139.29078,240.2561 139.20338,239.61602 L 183.48086,214.04995 z M 122.03582,236.4357 L 127.93331,236.46658 L 130.89749,241.56127 L 127.93331,246.68683 L 122.03582,246.68683 L 119.10251,241.56127 L 122.03582,236.4357 z M 116.20008,252.89309 C 117.2923,253.74001 118.50238,254.45584 119.81268,254.96184 L 119.81268,306.00137 C 99.9909,304.43251 82.710352,293.88974 71.953479,278.45917 L 116.20008,252.89309 z M 133.76904,252.89309 L 178.04652,278.45917 C 167.28964,293.88976 149.97816,304.43249 130.15644,306.00137 L 130.15644,254.96184 C 131.46578,254.45512 132.67781,253.74031 133.76904,252.89309 z "
       style="opacity:1;fill:#225500;fill-opacity:1;fill-rule:evenodd;stroke:#ffcd50;stroke-width:2.69219589;stroke-linecap:round;stroke-linejoin:round;stroke-miterlimit:4;stroke-dasharray:none;stroke-opacity:1"
       id="Hjul" />
    <path
       d="M 125.66601,245.43803 C 123.6556,238.56241 132.27646,227.53768 133.48793,224.08448 C 134.6994,220.63131 147.83713,212.44767 153.05815,209.90954 C 158.27907,207.37144 166.16171,205.10177 169.96661,199.86705 C 173.77152,194.63235 173.49873,186.43263 167.93674,178.72106 C 162.37479,171.00949 151.52365,163.7861 149.93705,155.96466 C 148.35049,148.1432 156.0285,139.72374 163.80884,134.37916 C 171.58916,129.03455 179.47176,126.76483 194.09372,127.72857 C 208.7157,128.6923 230.07698,132.88943 259.4914,139.94171 C 288.90582,146.99397 326.37334,156.90135 346.45495,162.50176 C 366.53661,168.10215 369.23235,169.39552 368.60374,170.8872 C 367.97604,172.3787 364.02317,174.06876 358.76808,175.58188 C 353.51301,177.09503 346.95575,178.43121 341.0487,179.85614 C 335.14253,181.28078 329.88744,182.79391 316.54519,180.42692 C 303.20288,178.06 281.77337,171.81291 269.74487,169.06769 C 257.71634,166.32241 255.08879,167.07897 263.14192,169.93411 C 271.19502,172.78925 289.92879,177.74295 301.95732,180.48818 C 313.9858,183.23344 319.30911,183.77024 319.99733,184.97455 C 320.68644,186.17929 316.73955,188.05113 312.79827,189.18596 C 308.85696,190.32083 304.92119,190.71869 300.32488,191.67376 C 295.72945,192.62926 290.47438,194.14239 281.14158,192.69052 C 271.80881,191.23862 258.39835,186.82172 251.7272,185.63824 C 245.05605,184.45476 245.12426,186.50467 249.16786,188.44473 C 253.21148,190.38478 261.23046,192.21495 266.58783,193.77668 C 271.94523,195.33848 274.64096,196.63186 273.9339,198.42211 C 273.22769,200.21213 269.11781,202.49928 265.17651,203.63412 C 261.2352,204.76897 257.46246,204.7515 252.91359,204.47461 C 248.36559,204.19748 243.04232,203.66069 237.68492,202.09892 C 232.32756,200.53715 226.93609,197.95042 224.27444,197.68202 C 221.6128,197.41364 221.681,199.46355 225.72461,201.4036 C 229.76822,203.34365 237.78724,205.17383 241.83084,207.11386 C 245.87446,209.05394 245.94263,211.10384 243.34921,212.88539 C 240.75576,214.6669 235.50068,216.18001 230.21152,216.66822 C 224.92233,217.15637 219.59904,216.61958 215.58953,215.70449 C 211.58003,214.78941 208.8843,213.49601 206.98277,213.03153 C 205.0804,212.56798 203.97305,212.93236 205.66805,214.28416 C 207.36386,215.63568 211.8628,217.97307 213.14269,220.11147 C 214.42169,222.24946 212.4825,224.18752 209.22873,225.63005 C 205.9759,227.07302 201.40936,228.01951 197.09284,227.63024 C 192.77715,227.23996 188.7106,225.51349 186.25164,225.11776 C 183.79179,224.72224 182.93868,225.65774 183.98176,226.89787 C 185.02576,228.13841 187.96508,229.6831 188.26107,231.48392 C 188.55706,233.28409 186.20796,235.34019 182.92923,236.88238 C 179.64959,238.4241 175.43949,239.45283 169.47855,240.13444 C 163.51849,240.81578 133.37691,245.10317 125.66601,245.43803 z "
       style="fill:#225500;fill-opacity:1;stroke:#ffcd50;stroke-width:2.67083836;stroke-miterlimit:4;stroke-dasharray:none;stroke-opacity:1"
       id="Wing" />
  </g>
  <use
     transform="translate(-75,-78.18534)"
     id="use7058"
     x="0"
     y="0"
     width="251"
     height="304.20001"
     xlink:href="#Bee" />
  <use
     transform="translate(75,-78.18534)"
     id="use7060"
     x="0"
     y="0"
     width="251"
     height="304.20001"
     xlink:href="#Bee" />
</svg>
