<!-- Created with Inkscape (http://www.inkscape.org/) -->
<svg xmlns:rdf="http://www.w3.org/1999/02/22-rdf-syntax-ns#" xmlns="http://www.w3.org/2000/svg" height="300" width="248" version="1.0" xmlns:cc="http://creativecommons.org/ns#" xmlns:dc="http://purl.org/dc/elements/1.1/">
 <metadata>
  <rdf:RDF>
   <cc:Work rdf:about="">
    <dc:format>image/svg+xml</dc:format>
    <dc:type rdf:resource="http://purl.org/dc/dcmitype/StillImage"/>
    <dc:title/>
   </cc:Work>
  </rdf:RDF>
 </metadata>
 <path d="m247,1.0001,0,214.77c0,82.42-84.912,44.012-123,82.791-38.089-38.77-123-0.37-123-82.79v-214.77z" stroke="#000" stroke-dasharray="none" stroke-miterlimit="4" stroke-width="2" fill="#003d8f"/>
 <path fill="#ffcd50" d="m124,136.06v162.5c38.09-38.78,123-0.36,123-82.78v-79.72h-123z"/>
 <path fill="#ffcd50" d="m1,1,0,135.06,123,0v-135.06h-123z"/>
 <path stroke-miterlimit="4" d="m247,1.0001,0,214.77c0,82.42-84.912,44.012-123,82.791-38.089-38.77-123-0.37-123-82.79v-214.77z" fill="none"/>
 <path d="m247,1.0001,0,214.77c0,82.42-84.912,44.012-123,82.791-38.089-38.77-123-0.37-123-82.79v-214.77z" stroke="#000" stroke-miterlimit="4" stroke-dasharray="none" stroke-width="2" fill="none"/>
 <g transform="matrix(0.49515616,0,0,0.49515616,1.1013249,-1.3210358)">
  <path fill-rule="evenodd" fill="#003d8f" d="m30.835,237.69s2.2833-7.9003,9.4385-9.2816c11.925-2.3045,1.2385,10.144-0.89635,9.0045-4.7306-3.4568-8.5422,0.2771-8.5422,0.2771z"/>
  <path fill-rule="evenodd" fill="#003d8f" d="m113.75,247.24s2.2847-7.9003,9.44-9.283c11.925-2.3045,1.2385,10.145-0.89635,9.0045-4.732-3.4553-8.5436,0.27852-8.5436,0.27852z"/>
  <path fill-rule="evenodd" fill="#003d8f" d="m90.296,35.449c0.17248,4.1665,5.7287,10.244,17.189,8.5083,14.064-1.91,22.747-2.0839,26.219,1.91l0.34779,3.4723h-2.2578c-0.17-1.389-10.93-6.424-26.56-1.562-11.636,3.646-22.401-3.126-14.934-12.328z"/>
  <path fill-rule="evenodd" fill="#003d8f" d="m109.39,44.651c-0.86807-2.4303-1.3191-5.8687-1.3191-5.8687l6.5275-1.0759c-2.0825,1.5622-3.9926,4.8606-5.2084,6.9446zm0.0354,1.0773c-0.3478,2.6042,0.48493,6.389,0.48493,6.389l6.8074-0.24317c-2.2578-1.3884-5.5562-4.2372-7.2924-6.1458z"/>
  <path fill-rule="evenodd" fill="#d40000" d="m49.841,57.839c-8.4192-0.8808-13.711,1.681-12.152,10.25-3.2857,2.1829-3.7494,7.8834-0.79597,10.712-2.5392,4.4761-0.779,8.7458,3.4709,9.9051,2.3653,0.64611,4.9016-0.09897,7.2768-0.42131,0.78183,0.4001,2.0486,0.54007,2.9435,0.54714-0.176-10.292-0.432-20.613-0.743-30.993z"/>
  <path fill-rule="evenodd" fill="#d40000" d="M100.01,78.874c-7.866-2.199-16.639-5.812-24.503-8.774-1.493-5.869-4.226-13.911-12.445-10.651-0.06503,2.2946-0.12583,4.5892-0.18662,6.8796l3.5373,3.9784-3.6222-0.68711c-0.17814,7.1411-0.33083,14.258-0.44535,21.367,1.8125,0.041,4.7136-0.72952,6.0299-1.4491l2.9859,0.16542c2.9209,2.5463,3.584,5.7584,1.9906,9.6365,1.7418,1.0179,3.4836,1.9779,5.2254,2.8842,1.7107-2.7569,1.7941-5.5152,1.2866-8.2722,1.8139,3.2136,2.7018,6.5841,2.4699,10.141,2.0302,0.96704,4.0618,1.8592,6.0921,2.6876l0.60793-3.2164c-0.636-10.545,2.552-17.491,10.976-24.686z"/>
  <path d="m50.289,42.915c1.4718,44.82,2.231,88.498,0.39869,133.18,1.8804,0,3.7027-0.64752,5.6425-0.64752,1.9383,0,3.7621,0.64752,5.6425,0.64752-1.8323-44.678-1.0731-88.356,0.39869-133.18-4.0011,0.65883-8.0813,0.65883-12.082,0z" stroke="#ffcd50" stroke-dasharray="none" stroke-miterlimit="4" stroke-width="5.04891205" fill="none"/>
  <path fill-rule="evenodd" fill="#000" d="m56.331,56.307c7.3956-4.0166,14.264-2.3667,20.558,2.5166,14.005,10.868,17.773,8.7783,21.044,2.9506l-2.43-2.365c-1.777,8.501-9.223,0.768-12.295-2.233-6.544-6.393-11.156-14.116-26.877-9.883-15.721-4.233-20.332,3.49-26.878,9.883-3.072,3.001-10.516,10.734-12.295,2.233l-2.4303,2.3639c3.2715,5.8277,7.0393,7.9173,21.044-2.9506,6.2942-4.8833,13.162-6.5332,20.558-2.5166z"/>
  <path fill-rule="evenodd" fill="#d40000" d="m50.289,42.915c1.4718,44.82,2.231,88.498,0.39869,133.18,1.8804,0,3.7027-0.64752,5.6425-0.64752,1.9383,0,3.7621,0.64752,5.6425,0.64752-1.8323-44.678-1.0731-88.356,0.39869-133.18-4.0011,0.65883-8.0813,0.65883-12.082,0z"/>
  <path d="m48.415,131.42c6.3223,1.0052,10.333,0.70832,16.615-0.62631m8.31,23.352c-4.296,1.517-6.982,3.0368-11.783,2.9958-3.9619-0.0353-8.3704,0.0891-12.475-0.11735" stroke="#ffcd50" stroke-dasharray="none" stroke-miterlimit="4" stroke-width="6.05869484" fill="none"/>
  <path fill-rule="evenodd" fill="#d40000" d="m52.584,97.451c-6.3268-0.58673-6.3324,3.6335-5.5774,11.517,0.3379,3.5402,0.90483,9.0483-1.7446,11.951-0.66731,0.72952-1.5608,1.2456-2.73,1.2456-1.2738,0-2.3073-1.0321-2.3073-2.3073,0-1.2738,1.0335-2.3059,2.3073-2.3059,0.72387,0,1.3714,0.33224,1.7941,0.85393,2.2635-3.4256,0.05231-8.5266-0.57542-12.118-1.5934-6.495-0.26862-15.179,8.8334-16.45v7.6133z"/>
  <path fill-rule="evenodd" fill="#d40000" d="m82.677,242.51c6.9248,3.7678,5.2297,11.768,1.6697,15.133-4.8804,4.6104-13.68,5.1688-15.265-6.1189-1.8634,0.70832-3.7551,1.0363-5.8376,1.377-0.2559,7.1029-7.2896,10.482-12.747,9.1501-6.4229-1.4534-6.003-6.2716-4.0449-11.006-1.0759,1.0335-1.7418,2.4218-2.2183,3.7975-6.2448,1.0236-9.2265-3.1669-9.365-7.7533-0.04383-5.9323,3.0171-8.6426,8.7868-8.2905-1.5651-0.46231-3.116-0.73376-4.6542-0.81435-2.518-3.075,4.0039-15.16,14.12-9.0582,2.9563,1.7842,5.3625,2.477,7.8438,2.4501,6.8188-0.0735,17.828-5.1137,21.042-13.011,3.7635-9.2448,0.70266-20.54-0.11593-22.815-0.98259,2.5265-2.7937,4.2273-5.1773,4.6712-1.7475-0.28983-3.461-0.64045-5.1222-1.0476,2.6636-2.1235,4.1636-4.8818,1.8351-7.4691-2.2564,4.5086-5.0713,5.6863-6.9404,5.9733-3.0383-1.0519-5.8065-2.3314-8.1774-3.8286,9.2024-2.9266,9.4739-8.8504,13.813-14.911,4.9172-6.8697,11.515-13.157,21.18-16.741,13.007-4.8225,27.382-7.1256,40.102-13.226,2.3879,3.1386,3.9021,6.4469,3.0496,9.7467-1.8747,7.2627-7.2938,8.8532-9.3792,20.81-21.071,1.2654-28.68,35.116-6.8782,29.741v0.33225c-0.0353,2.272-0.22196,4.6316-0.61924,7.0026-3.0736,1.7333-6.225,2.5434-9.4527,2.4261,1.3572,3.5062,4.0831,4.6316,7.749,4.1297-0.82566,2.2706-1.9129,4.4874-3.3182,6.5728-3.8809,1.0505-7.2118-0.0947-10.168-2.7428-0.94725,4.592,1.4831,6.8046,6.2292,7.3914-1.7842,1.6881-3.8809,3.222-6.3296,4.5425-3.4907,0.30821-6.1387-1.2371-8.0884-4.3192-1.418,2.9407-0.60369,5.1872,2.4402,6.7396-4.1537,3.4299-8.644,3.15-13.411-0.20076-0.79173,0.75073-1.64,1.2046-2.5505,1.3672z"/>
  <path d="m133.19,166.53c-3.871-0.22479-4.8112-4.8253-3.4921-8.1704,0.574-1.4534,1.5707-2.6707,2.9435-3.1867-0.60935-2.9308-2.1249-7.004-7.2401-10.94,1.6669-0.14421,3.3917-0.024,5.1688,0.35487,3.8427,4.4492,6.9319,9.5106,5.617,14.602-0.69984,2.5731-1.8747,4.937-2.9973,7.3404z" stroke="#ffcd50" stroke-dasharray="none" stroke-miterlimit="4" stroke-width="3.43326044" fill="none"/>
  <path fill-rule="evenodd" fill="#d40000" d="m133.19,166.53c-3.871-0.22479-4.8112-4.8253-3.4921-8.1704,0.574-1.4534,1.5707-2.6707,2.9435-3.1867-0.60935-2.9308-2.1249-7.004-7.2401-10.94,1.6669-0.14421,3.3917-0.024,5.1688,0.35487,3.8427,4.4492,6.9319,9.5106,5.617,14.602-0.69984,2.5731-1.8747,4.937-2.9973,7.3404z"/>
  <path fill-rule="evenodd" fill="#d40000" d="m144.64,11.834c1.3898,1.7361,0.52028,4.3418-1.2159,4.8621-10.071-0.3478-18.577,0.69418-21.355,2.2578-4.6882,2.2564,0,4.3404-6.4243,4.5143-3.2998,0-7.2938,1.042-10.94,1.7361-0.5217,1.5622-0.69418,2.6042,0,4.5143l1.3884-0.1739c-3.2984,6.5982-0.69418,15.454,14.066,8.1619,2.9506-1.7376,8.5068,1.5622,11.285,5.5562,3.8201,5.5562-1.3884,7.8127-6.4243,6.4243-4.6882-1.3898-13.023-0.3478-16.495,1.2145,0.17389,0.69559,0.17389,1.3898,1.2144,2.2578-2.9506,3.4723-1.2144,8.3344,2.2578,11.112-0.34779-6.946,3.6476-9.3763,14.064-7.6402,5.3654,0.21207,6.4823,3.5896,3.6858,6.5417-4.7051,4.6585-12.328,7.6119-19.137,11.583-9.3325,5.4445-17.647,12.557-17.923,20.879,2.0839-1.91,4.9653-2.1857,7.2231-1.4916-4.5143,3.9926-7.8876,10.295-8.5818,15.505l15.071-7.7971v1.3884c-9.5644,10.328-21.115,19.573-35.574,27.233-0.59238-3.2942-0.99814-6.806-1.4887-7.4946-0.48918-0.68994-2.5759-1.5637-5.0968-2.5887l-0.65272,0.0947c-0.0014,3.4271,0.0085,6.8555,0.02969,10.285l-0.0071,0.0226c-5.2904,1.3346-9.2656,1.6315-14.59,0.62631l0.03676-4.674c-2.19-0.46232-3.8408-0.72387-5.5134-0.59804-4.2683,0.32234-7.7179,4.1764-5.2141,7.8961,2.6961,4.0067,3.7833,4.9398,8.7854,6.6434v1.3544c-6.7665-0.63055-5.3527,0.1739-9.5276-3.953l-0.1131,4.2951c4.0887,4.5751,4.9723,5.3512,10.869,6.4215v1.2936c-7.0379,0.37183-5.2014,0.99532-10.485-2.846,2.2593,6.3282,4.5086,9.3283,12.022,9.7708,3.4567,0.20642,7.1694,0.082,10.506,0.11735,4.0435,0.041,6.3056-1.4788,9.9235-2.9958,3.5303-1.4802,7.496-2.9831,11.807-6.249,2.4671,1.6542,3.6815,4.4068,4.3234,7.66,2.4445-0.64611,4.6316-1.5637,6.642-2.6678,0.21772-2.1815,0.21348-4.3644-0.58532-6.5445,1.879,1.0646,3.0807,2.6226,3.7183,4.5906,1.8789-1.3106,3.6179-2.7696,5.2989-4.2866-0.017-2.3455-0.30538-4.5157-1.5665-6.068,2.1886,0.47787,3.9176,1.3813,4.6358,3.2164,2.8672-2.6509,5.8673-5.1363,8.702-7.8028,4.7574-4.4747,9.8796-8.5918,16.599-9.8006l0.31894-3.5928c-6.8323-2.6033-0.0743-12.567,1.6321-16.906l1.1169,0.43686c-1.4675,3.731-4.7443,12.757,0.49807,14.377l-0.34638,8.8702c-4.2216,0.11876-7.0652,1.4605-10.241,3.6321,4.9921,6.0115,18.5,15.723,15.642,26.78-2.3554,9.1176-12.392,18.528-7.11,42.243-2.706,10.816-2.863,22.017,2.6466,30.894,1.6626-1.206,3.2051-2.7795,4.5751-4.421-5.6496-11.586,2.5364-12.661-0.82708-24.682,2.3837,1.7941,4.421,5.0317,3.7494,8.1407-0.78183,3.6108-4.001,6.0454-0.3181,12.529,2.197-3.5727,8.6807-7.848,5.8291-15.099,3.1938,2.0005,6.0892,2.7555,9.6619,3.485,1.8478,0.37748,1.8846,0.72952,1.903,4.7829,0.0481,10.548-5.3965,20.708-16.243,22.444-4.0718,0.64752-7.5087-0.86948-11.245-2.1108-9.1431-3.1853-11.958,11.158-4.8253,10.551-17.746,9.1855,3.83,25.193,10.496,8.077-2.436,11.883,17.005,15.661,18.297,1.2003,2.3285-0.39728,4.6868-1.1763,7.1015-2.7159,7.2429,6.0369,14.214,1.7786,16.321-3.444,1.6895-4.1919,0.2969-10.517-7.3744-9.9376,1.3926-1.0179,2.3964-2.2734,2.9322-3.8173,6.8484,1.2908,7.9116,0.40434,11.781-5.4969-4.1156-0.0382-6.2193-1.8535-5.8913-5.8093,2.8601,1.1636,5.7231,1.6089,8.5846,1.1904,1.1551-2.2098,2.2352-4.5949,3.239-7.1298-3.1966,1.0476-5.5916-0.57966-7.5822-3.7522,3.5274,0.68711,6.758,0.369,9.5361-1.6556,0.80587-2.4374,1.5495-4.978,2.2352-7.5964-4.018,2.1362-7.8678,2.2282-9.3226-2.5562,4.9328,0.0113,8.1562-1.6584,11.057-4.8592,0.56552-2.7088,1.0702-5.4785,1.5156-8.2835-18.736,7.0068-30.411,1.4534-31.015-1.7248-0.5938-3.1231,3.6844-7.3306,5.7047-9.9235,3.5967-4.6146,4.6627-10.206,4.4789-15.846,8.3739,9.3678,19.697,15.403,32.291,9.7934,11.224-4.9992,19.157-17.839,11.548-30.026-2.4006-3.8455-6.0694-7.1722-10.001-10.423-1.8167-1.5029-4.4026-3.7466-6.2744-5.282-0.99108,0.38314-2.0302,0.74083-3.1245,1.066-3.1782,0.94866-1.4845,4.5623,0.26721,6.348-6.3324-2.3455-8.012-7.3857-1.1975-9.3495,12.135-3.4963,16.864-10.527,14.245-20.592-2.2578,7.2274-6.8513,10.948-13.048,12.269,8.2778-5.3018,11.182-11.859,6.232-20.253-0.96987,7.9894-6.8343,12.262-13.341,16.353-14.548,9.1515-10.821,22.766,4.3828,25.337,7.0704,1.1961,10.889,1.64,15.012,7.9993,5.207,8.036,0.22338,16.016-6.9587,19.472-11.903,5.7287-22.194-3.14-28.878-13.263-2.5265-3.8286-3.1132-7.0421-4.486-11.356-3.8908-12.219-10.471-22.597-14.091-31.334-1.9284-4.6556-4.65-11.58-4.8253-16.341,3.0708,0.82,8.2128-0.52028,10.093-2.0458-4.2852-2.0458-5.2791-4.2725-5.0345-7.8409,8.1605,1.5637,13.356-1.9935,15.788-8.2439-5.3823,0.86807-10.131-0.32942-12.909-5.8857,9.5502,0.69418,15.454-2.2578,16.148-10.244-7.4663,2.952-12.502,1.7361-14.412-5.5562,8.3344-0.1739,13.023-3.8201,13.37-11.807-5.904,3.1245-11.286,3.4723-15.453-3.6462,4.5143-3.1259,7.8127-6.946,7.8127-12.502-2.6042,1.2145-5.2084,2.0825-7.8127,0.34638-0.86807,1.7361-2.7781,3.2998-5.2098,4.5143-0.34639-0.34638-0.69418-0.52028-1.0406-0.86807,5.3823-4.1665,5.9026-10.417,4.5143-16.495-4.3418,0.52169-12.328,1.3898-14.238,9.2024l-1.042-1.042c0.34638-3.4723,1.5622-5.5562,4.1665-7.8127-2.0839-1.3898-4.1665-2.6042-6.2504-3.1259zm50.505,99.259c-0.10321-7.2684,4.4167-14.289,9.235-20.097,6.7042-8.0813,13.524-15.279,16.7-24.746,13.095-4.5878,13.874-17.084,10.476-25.488-0.60511,2.1518-2.1023,7.2768-5.7768,6.7848,7.2415-13.37-0.87797-26.783-8.1096-28.737,5.569,10.505-3.1556,16.954-6.273,26.57-1.4407,4.3375-0.24317,12.252,2.9718,17.301-2.6254,9.2081-9.5502,16.071-15.753,23.547-7.2104,8.692-12.921,19.407-10.346,30.214,2.0642-2.1179,4.4379-3.7027,6.8753-5.3484z"/>
  <path fill-rule="evenodd" fill="#ffcd50" d="m159.23,18.258c-4.3404,0.3478-7.1185,3.6462-7.8127,7.1199l1.91,2.952-0.69417,0.52028-3.6476-3.1259c1.3898-5.2084,4.3418-7.2924,9.898-8.3344l0.34638,0.86807z"/>
  <path fill-rule="evenodd" fill="#ffcd50" d="m133.84,27.147c-0.1739,2.0839-1.2159,3.994-2.952,4.6882-1.7362-1.042-2.952-3.1259-2.952-5.3823-1.042,1.7361-1.042,3.8201-0.17389,5.3823-1.91-0.69418-3.1245-2.4303-3.1245-4.6882,0.17248-2.6042,9.3763-2.6042,9.2024,0z"/>
  <path fill-rule="evenodd" fill="#ffcd50" d="m126.89,25.063c2.6042-0.69418,9.0285-1.3884,10.071,2.4317,0.52169-4.6882-3.9926-4.8621-7.4663-4.5157-2.2564,0.3478-6.9446,1.7376-6.4243-2.4303-2.6042,3.2998,0.3478,5.5562,3.8201,4.5143z"/>
  <g fill-rule="evenodd" fill="#003d8f" transform="matrix(1.4138012,0,0,1.4138012,-296.80025,-449.21782)">
   <path d="m247.43,378.6s-3.322,3.463-7.394,2.238c-6.787-2.042,2.11-5.578,2.904-4.41,1.508,3.069,4.49,2.172,4.49,2.172z"/>
   <path d="m247.43,364.86s-3.321,3.463-7.393,2.238c-6.787-2.042,2.11-5.578,2.904-4.41,1.508,3.069,4.489,2.172,4.489,2.172z"/>
   <path d="m247.43,371.73s-3.321,3.463-7.393,2.238c-6.787-2.042,2.11-5.578,2.904-4.409,1.508,3.068,4.489,2.171,4.489,2.171z"/>
  </g>
  <path fill-rule="evenodd" fill="#003d8f" d="m85.558,265.52s3.8074-7.2896-0.41-13.233c-7.028-9.9065-7.9046,6.478-5.5732,7.1284,5.8079,0.77052,5.9832,6.1048,5.9832,6.1048z"/>
  <path fill-rule="evenodd" fill="#003d8f" d="m47.839,267.99s-3.8074-7.2882,0.41-13.232c7.028-9.9065,7.9046,6.478,5.5732,7.1284-5.8079,0.77052-5.9832,6.1034-5.9832,6.1034z"/>
  <path fill-rule="evenodd" fill="#003d8f" d="m32.9,259.07s-2.9662-7.6699,1.8903-13.103c8.0954-9.0554,7.1284,7.3235,4.7391,7.708-5.8574,0.11452-6.6293,5.3951-6.6293,5.3951z"/>
  <path fill-rule="evenodd" fill="#003d8f" d="m182.47,258.92s1.2371-8.1308-4.6811-12.383c-9.8627-7.0888-5.3753,8.692-2.9591,8.5521,5.7443-1.1565,7.6402,3.8314,7.6402,3.8314z"/>
  <path fill-rule="evenodd" fill="#003d8f" d="m140.12,273.35s-3.8088-7.2896,0.40859-13.233c7.0294-9.9065,7.906,6.478,5.5746,7.1284-5.8093,0.77052-5.9832,6.1048-5.9832,6.1048z"/>
  <path fill-rule="evenodd" fill="#003d8f" d="m118.66,268.95s-2.9662-7.6699,1.8917-13.103c8.094-9.0554,7.1284,7.3235,4.7391,7.708-5.8588,0.11452-6.6307,5.3951-6.6307,5.3951z"/>
  <path fill-rule="evenodd" fill="#000" d="m21.851,67.98c-0.37748-0.18097-0.57118-0.50049-0.697-0.8709l-1.2441-3.683c-0.22055-0.65742,0.13572-1.3728,0.79456-1.5919,0.65742-0.22055,1.3714,0.13572,1.5919,0.79314l1.1197,3.314,32.915,15.733,32.916-15.733,1.1197-3.314c0.21914-0.65742,0.93452-1.0137,1.5919-0.79314,0.65883,0.21914,1.0137,0.93452,0.79456,1.5919l-1.2441,3.683c-0.12583,0.37042-0.31952,0.68994-0.697,0.8709l-34.483,16.481-34.48-16.481z"/>
  <path fill-rule="evenodd" fill="#000" d="m54.853,33.913,2.8573,0,0,48.657-2.8573,0,0-48.657z"/>
  <path fill-rule="evenodd" fill="#000" d="m53.639,38.33,0-4.9511-8.3838,2.8813c5.883-8.324,8.774-17.712,11.026-27.473,2.252,9.7607,5.143,19.149,11.026,27.473l-8.384-2.881v4.951h-5.2848z"/>
  <path fill-rule="evenodd" fill="#FFF" d="m55.642,36.327,1.2781,0,0-5.7513,5.6764,1.9496c-2.7583-4.9384-4.7518-10.254-6.314-15.679-1.5623,5.4233-3.5557,10.741-6.3154,15.678l5.675-1.9482v5.7513z"/>
 </g>
 <path fill-rule="evenodd" fill="#156dc1" d="m160.15,86.392,0.003,0.0015"/>
 <path fill-rule="evenodd" fill="#003b8f" d="m164.51,31.222c3.1209-0.49198,5.8887,0.40068,9.1107,1.854-1.2828-0.16676-8.0339-1.4261-8.882-0.14488-0.59611,0.88058-0.0996,1.5869-0.0996,1.5869-1.7302-0.58328-2.2599-2.9549-0.12903-3.296z"/>
 <g fill-rule="evenodd" transform="matrix(0.75457044,0,0,0.75457044,-39.088313,-241.24652)">
  <path fill="#003b8f" d="m255.24,359.47c1.595,0.113,2.814,1.253,2.722,2.544s-1.461,2.247-3.055,2.133c-1.594-0.113-2.813-1.253-2.721-2.544s1.46-2.247,3.054-2.133z"/>
  <path fill="#FFF" d="m254.18,359.52c0.515,0.037,0.902,0.484,0.866,0.998-0.037,0.515-0.484,0.902-0.998,0.866-0.515-0.037-0.902-0.484-0.866-0.998,0.037-0.515,0.484-0.902,0.998-0.866z"/>
  <path fill="#003b8f" d="m256.48,358.98c1.615,0.496,2.98,2.029,3.064,3.226l-1.589-0.113c-0.22-0.789-0.946-1.559-1.857-1.902-1.368-0.513-3.027,0.146-3.627,1.511l-3.849-0.274,0.037-0.531,3.194-0.612c1.042-1.387,3.017-1.798,4.627-1.305z"/>
 </g>
 <path fill-rule="evenodd" fill="#d40000" d="m132.77,35.338c0.32975,1.9309,2.3037,3.3661,5.4322,2.3392,3.8619-1.2699,5.0081-0.64063,5.8872,0.57121,0.60365,1.4126,0.31314,1.7891,0.31314,1.7891-3.0507-4.1018-7.8626,2.266-11.501,0.43614-1.6359-0.82324-2.0728-3.3707-0.1313-5.1356z"/>
 <path fill-rule="evenodd" fill="#156dc1" d="m160.8,86.249,0.003,0.000755"/>
 <path fill-rule="evenodd" fill="#ffcd50" d="m145.8,40.198c1.4299,0.18412,2.9421,0.48594,3.5261,0.86323,0.40671,0.26561,1.697,0.84436,3.1118,1.3348,2.3709,0.82248,6.595,1.1575,8.5953-0.49877-0.77419,3.382-6.8688,1.9513-9.0684,1.9732-1.9747,0.02113-3.173,1.0949-4.286,3.2182,0,0,1.8562-1.1937,3.1141-0.70024-0.37955,0.65798-1.4035,4.2437-1.4035,4.2437-2.1973,1.2028-3.3986,4.3758-3.1564,6.4093,1.0209-0.99452,3.222-1.3612,3.222-1.3612-2.4984,1.2594-5.3786,4.2128-4.8557,8.1811,0.64969-0.76287,2.3241-1.2367,2.3241-1.2367s-3.7178,2.7617-2.5738,8.3048l1.6118-1.2979s-1.9656,4.1615,1.3137,8.0362l1.1937-1.5869s-0.20751,2.2667,2.2162,6.6138l1.0662-1.6895s1.0843,2.7617,4.3924,4.3901l-0.3788-1.8962s1.9166,0.9485,4.2754,1.5612c-1.8532-1.8842-4.784-5.5446-1.3711-10.154l-0.0807,0.84436c-1.9611,3.3375,0.8421,7.0877,3.431,9.6857,1.1937,1.1945,3.5231,9.3959,3.7178,12.281,0.20902,2.8855,2.9655,6.0796,3.0696,9.5204,0.10186,3.6265,0.60516,8.7583,0.0596,11.704-0.52518,2.8062-1.6699,2.8598-2.7119,4.2422,2.3905-0.14412,4.5682,2.2592,6.7994,1.9574,0.0619-1.3175-0.38559-2.758,0.13959-4.3244,0.12224-0.41124,0.54103-0.18563,0.54103-0.18563s0.4384,0.53499,1.027,0.206c0.93567-0.495-0.54631-2.7195-1.1281-6.2637-0.89945-5.4397-0.84211-13.106-0.79683-15.887,0.0415-2.8025,0.95604-6.3459,1.23-7.7276,0.22939-1.1945,0.8753-1.9574,1.396-3.3586,1.1937-3.173-3.0643-7.6529,1.0345-10.901-2.4531,5.033,1.0949,6.0169,0.26033,11.21,2.9624,0.20524,7.6144,0.22335,12.718-0.97189,5.0141-1.196,9.9196-2.7572,15.443-1.2337-2.1218-4.1403-0.67459-6.7164-0.77042-6.7164,0.14413,2.0185,0.63535,4.2716,2.3316,7.2801,0.96283,1.6691,2.5097,3.5842,4.0324,5.1922,2.2984,2.4312,5.236,4.4648,8.6021,6.032,10.089,3.8725,11.304,4.0792,10.45,10.117-0.5033,3.5857-0.84059,8.5516-1.8842,11.353-1.0036,2.6516-2.9375,3.2454-4.1434,4.5478,2.5361-0.0242,4.6066,2.8379,7.0039,2.4524,0.21883-1.2986,0.4618-2.8342,1.2368-4.2588,0.18788-0.39238,0.56366-0.10338,0.56366-0.10338s0.35842,0.59687,0.9832,0.38559c1.0006-0.32447-0.7523-2.8591-0.54329-6.4448,0.3539-6.7006,2.7881-12.954,3.6159-19.554,0,0-1.5469-1.9989-2.552-2.1022-1.9204-0.1645-7.0002-1.5046-8.7115-5.7491-2.1792-5.3567-0.17279-9.9935,1.1288-12.26,1.482-2.6591,2.2524-2.4109,1.7348-4.1615-0.56668-1.8962-3.5774-6.7398-7.5087-9.4178,4.1675,2.0713,10.204,2.2833,9.3061-3.668-1.6744,0.71609-4.6451,2.2041-13.089,1.7514-3.8196-0.87681-7.4733-1.7076-11.43-1.8472-7.3261-0.25806-14.675,0.9168-21.007,0.42482-9.5928-0.74174-11.214-1.9679-13.638-3.3058-0.18638,1.1334-0.80136,1.8857-1.5137,2.3995,0.62629-2.3769,0.68967-4.698,0.99754-7.1028,0.36446-2.7376,1.0753-5.199,1.282-7.7932,0.0875-1.2186,0.14111-2.7632,0.1562-3.794-5.9264,0.21279-7.2303-3.3088-7.7555-4.1328l0.15619-0.78928c1.8691,3.4899,5.0541,4.3931,8.8836,3.1639,2.0419-0.65648,3.4084-2.1098,4.9885-3.4408,0.40596-0.34031,1.491-1.2179,1.4699-1.7627-0.0604-0.66855-3.385-1.6691-4.2316-1.9068-1.7506-0.49424-4.2694-1.0685-6.2312-1.2511-1.854-0.17129-3.311,0.48443-5.076,0.89417-0.59234,0.13809-2.5867,0.06037-2.392-1.0541,0.661,0.44671,1.9423,0.1313,3.1556-0.23618l-5.9415-2.4441s-2.0041,0.53725-3.4265,0.59837c-1.3952,0.06112-2.0064,1.1945-5.8713,2.0396-3.8468,0.84512-8.6715,1.2156-9.4917,1.4427-0.54178,0.1645-0.91907,1.2164-0.91907,1.2164s0.56517,0.30937,1.9038,0c-1.1077,1.3182-2.4244,0.98773-2.4244,0.98773s-0.85342,1.0323-0.96133,2.349c-0.0656,0.74401,1.8834,0.80513,2.5527,0.86625,1.15,0.07169,3.1518,0.16752,3.5382,1.7657,0.30711,1.2609-1.571,2.1234-2.4131,2.4463-0.55461,0.24071-1.5016,0.25429-1.8261,0.65798-0.26485,0.29051,1.3771,1.7838,3.2703,0.85116,1.4518-0.73722,2.1769-1.0738,3.3903-1.4239zm6.2154,43.619c-3.1488,0.02566-6.0675,0.74174-8.6383,2.355-2.2184,1.3907-1.5031,4.4459-1.0368,6.5421,0.59611,2.6795,0.20901,5.2065,0.30409,7.889,0.10036,2.5436-0.45576,4.012,1.4865,6.272,1.2548,1.4518,1.2398,2.4848,1.3228,4.1584,1.5574-1.7197,4.7342-1.9619,5.6148-4.0543-0.45802-0.42633-1.1039-0.78777-1.7574-1.1537-0.93869-0.52669-2.0766-1.1205-2.5904-2.1128-0.31843-0.62554,0.0513-0.63761,0.37276-0.55838,0.24146,0.0573,1.116,0.45048,1.1937,0.0483,0.0694-0.36974-0.24297-0.89718-0.58857-1.4774-0.45349-0.75985-0.95528-1.6095-0.89643-2.5437,0.17582-2.7602,0.15318-3.7578,0.13809-4.4173v-0.0015c-0.0151-0.68213-0.0226-1.0315,0.17883-2.4267,0.17431-1.1273,2.2071-1.9023,3.4069-1.977,3.9223-0.24825,8.4452,0.65044,12.375,0.82852-0.46104-1.4292-1.0873-2.9828-1.5944-4.3976l-0.60668-0.20072h-0.002c-0.83531-0.27014-2.4765-0.71005-3.6431-1.3114,0.0611,0.68213,0.25655,1.4669,0.25655,2.149-1.7536-0.98547-3.9177-2.1309-5.2963-3.6099zm49.685,2.146-1.2262,1.8276c1.8155-0.07395,4.1682,0.05659,5.9007,0.58253l-1.0617-1.7672c-1.0421-0.27316-3.0288-0.56668-3.6129-0.64289zm-5.7227,0.54404c1.1522,3.1103,2.9708,5.1726,5.4374,7.9117,7.2288,7.9766,7.3148,8.6149,3.3442,13.271-2.3437,2.7814-6.7028,5.6019-8.0113,8.3056-1.1817,2.4433-3.1352,2.9655-4.1471,4.4603,2.3512-0.1645,4.5259,2.1339,6.7194,1.8902,0.0106-1.2413-0.005-1.9694,0.69194-2.9308,0.58178-0.80437,0.62026-0.35767,0.71684,0.17204,0.0581,0.30787,0.22637,0.62177,0.66478,0.65195,1.0632,0.0823,0.24524-2.5542,1.6253-4.5131,3.2205-4.5131,9.0111-8.4678,10.954-10.509,1.9264-2.0396,2.1354-2.7398,2.1354-2.7398s0.74929-2.0841-0.0845-2.6402c-0.62479-0.84512-3.5872-2.9911-3.8483-5.0111-1.7151-1.3967-3.17-2.9662-4.3576-4.7115-2.7406-1.814-6.2561-1.2828-8.8685-1.3235l1.5182-2.7527c-1.4344-0.01358-3.1315,0.08074-4.4904,0.46934z"/>
 <path fill-rule="evenodd" fill="#003b8f" d="m165.17,31.079c3.1202-0.49198,5.8879,0.40068,9.1107,1.854-1.2828-0.16676-8.0339-1.4261-8.882-0.14488-0.59687,0.88058-0.10036,1.5869-0.10036,1.5869-1.7302-0.58328-2.2592-2.9549-0.12828-3.296z"/>
 <path fill-rule="evenodd" fill="#d40000" d="m150.13,46.248c6.859,0.75985,14.101,1.1439,21.001,0.87153l-0.75683,5.1039c-7.14,0.217-14.64-0.212-21.73-1.03l1.4865-4.9462z"/>
 <path fill-rule="evenodd" fill="#d40000" d="m222.74,124.75c-0.47764,0.85116-2.475,3.7268-5.2994,6.1762,0.61724,0.19694,1.3092,0.23316,1.9642,0.22562l1.9762-2.2132-0.63535,3.0402c1.8691,0.0943,7.4808-0.46105,8.2135-2.1792,0.34258-0.80588,0.60215-1.7385,0.69722-2.6161-2.4327-0.14412-4.4784-2.9549-6.9164-2.4335z"/>
 <path fill-rule="evenodd" fill="#d40000" d="m191.93,121.76c-0.39766,0.89039-2.1203,3.9336-4.7062,6.6266,0.63308,0.1411,1.325,0.11394,1.977,0.0483l1.7634-2.3822-0.35163,3.0847c1.8691-0.0739,7.4069-1.1311,7.9773-2.9081,0.26636-0.83304,0.43841-1.7861,0.45274-2.6689-2.4365,0.0762-4.7342-2.5391-7.1126-1.8004z"/>
 <path fill-rule="evenodd" fill="#d40000" d="m165.47,124.48c-0.40747,0.88587-2.1664,3.9087-4.784,6.5716,0.63158,0.14865,1.3235,0.12978,1.9762,0.0709l1.7914-2.361-0.38784,3.0802c1.8698-0.0521,7.4197-1.0458,8.0113-2.816,0.27617-0.83003,0.45953-1.78,0.48368-2.6629-2.4365,0.0475-4.7025-2.5942-7.0907-1.8827z"/>
 <path fill-rule="evenodd" fill="#d40000" d="m145.78,112.72c0.45802,0.86172,1.7951,4.0875,2.3165,7.76,0.50707-0.39992,0.91756-0.94925,1.2714-1.4933l-0.78777-2.844,2.226,2.195c1.1077-1.4865,3.7246-6.4123,2.6719-7.9607-0.49425-0.72514-1.1424-1.4518-1.8328-2.0132-1.4601,1.9242-4.9666,2.0622-5.8653,4.3561z"/>
 <g fill-rule="evenodd" transform="matrix(0.75457044,0,0,0.75457044,-39.088313,-241.24652)">
  <path fill="#003d8f" d="m256.11,359.28c1.594,0.113,2.813,1.253,2.721,2.544s-1.46,2.247-3.054,2.133c-1.595-0.113-2.814-1.253-2.722-2.544s1.461-2.247,3.055-2.133z"/>
  <path fill="#FFF" d="m255.05,359.33c0.514,0.037,0.902,0.484,0.865,0.998-0.036,0.515-0.484,0.902-0.998,0.866-0.514-0.037-0.902-0.484-0.865-0.998,0.037-0.515,0.484-0.902,0.998-0.866z"/>
  <path fill="#003d8f" d="m257.34,358.79c1.616,0.495,2.98,2.028,3.065,3.225l-1.59-0.113c-0.22-0.789-0.945-1.559-1.856-1.902-1.368-0.513-3.027,0.146-3.628,1.511l-3.849-0.274,0.038-0.531,3.193-0.612c1.043-1.386,3.017-1.798,4.627-1.304z"/>
 </g>
 <path fill-rule="evenodd" fill="#d40000" d="m217.92,31.68c1.0911-0.94774,2.0275-2.3731,3.1179-3.3367,1.9649-1.7385,5.2382-2.9715,7.8324-3.0424,1.7302-0.04528,1.3062,0.44369,0.0996,0.90624-2.361,0.90624-4.3576,2.0238-5.9083,4.0468-1.0934,1.4231-2.2177,3.425-0.81796,4.9756,1.9151,2.1317,5.1296,2.7889,7.6951,2.7429,2.6848-0.04829,5.9762-1.1485,8.3342-2.3286,1.1485-0.57423,1.7989-0.55536,0.59536,0.68817-1.6699,1.7272-3.8046,2.8794-5.9407,3.4922-4.6323,1.3288-11.359-0.24146-14.035-2.4554-0.89794-0.5116-1.7076-0.90322-2.1905-0.9666-1.1009-0.14261-6.4606,0.68968-9.6095,0.45652-2.1543-0.15846-5.3152-1.0768-6.3814-1.159-0.89945-0.07093-4.4784,1.1432-7.554,0.73646-2.6802-0.35314-5.6751-1.3846-7.809-2.223-1.7544-0.68892-3.3827,0.11319-5.5891-0.46783l0.003-0.000754c3.4235-2.7149-2.023-3.6182-5.2865-4.6723-2.8334-0.91454-5.0541-1.2269-7.8966-0.82626-0.67081,0.09432-1.7091,0.48443-2.721,0.76287-2.0638-0.24674-4.2912-1.6291-5.9309-2.192l0.69118-1.8472c1.0096-0.31767,1.777-0.47161,1.2677-1.3416-1.4405-2.4674-1.9838-5.3001-2.026-7.2152-0.0558-2.4116,0.6776-4.7908,2.0306-6.7677,0.98019-1.4344,1.1251-0.79984,0.78777,0.45123-0.53499,1.9913-0.80814,3.8559-0.53952,5.9038,0.26108,1.986,0.92586,4.8481,3.837,7.2492,1.2164,1.0013,2.512,2.2245,4.086,1.5612,1.7159-0.72288,1.7627-1.2126,1.5952-2.7866-0.19317-1.8238-0.12299-3.6091,0.41502-4.9319,0.84436-2.0743,2.2086-3.8098,4.1924-5.1696,1.4292-0.97943,1.3356-0.33578,0.57197,0.70854-1.0383,1.4156-1.8736,2.8168-2.312,4.4399-0.60139,2.2245-0.94321,7.0356,2.6146,9.8773,2.1158,1.3997,4.71,2.7104,7.2409,1.8102,1.8449-1.1122,3.1888-4.3584,4.7734-5.7461,1.6857-1.479,3.7283-2.4086,6.1098-2.7331,1.7166-0.23392,1.3454,0.30107,0.19543,0.88964-1.5597,0.79984-3.0341,1.6548-4.1494,2.9066-1.2035,1.3507-2.5618,3.8672-2.1762,5.6963,0.23618,1.1228,1.4216,1.9732,3.8958,2.6078,2.6848,0.68892,5.1605,0.64365,6.9194-0.75457,2.0826-1.654,4.6104-4.5999,7.3193-5.9687,1.9913-1.0043,4.1554-1.4956,6.5512-1.3643,1.7272,0.09583,1.2624,0.55234,0.0264,0.91001-1.6752,0.49122-3.4552,1.2435-4.8579,2.1113-1.7212,1.0624-4.907,3.5518-3.7238,5.0835,0.98396,1.276,6.5059,1.4367,11.223,0.64063,1.2186-0.20449,2.266-0.34559,3.434-1.3575z"/>
 <path fill-rule="evenodd" fill="#d40000" d="m180.61,17.647c1.0322-2.3226,0.74476-5.6812,1.7189-7.5457,0.97415-1.8645,2.4403-3.4001,4.5018-4.5365,1.4918-0.82248,1.3575-0.22863,0.52669,0.68968-1.1258,1.2473-2.0547,2.5074-2.5965,3.9811-0.53499,1.4556-0.98999,5.8109,0.0136,7.0409,1.0375,1.2722,5.0813-0.45652,8.8466-2.7142l-0.008-0.006,0.2807-0.15846,0.0113-0.0075c3.2265-1.9121,5.4782-6.1905,9.3831-8.1056,1.9747-0.97868,4.1675-1.3763,6.5504-1.153,1.7249,0.15318,1.2352,0.55914-0.0174,0.84286-1.6918,0.38936-3.3246,0.84286-4.6896,1.74-1.2828,0.84286-4.9221,3.8521-3.7563,5.208,0.56669,0.65798,3.8974,0.99226,7.1375,1.1115,2.2358,0.08074,4.5259-0.03245,6.2931-0.49877,2.4991-0.65421,3.7464-2.8266,5.8517-4.0754,2.1694-1.2881,5.3522-2.1219,7.8754-1.7898,1.6834,0.2226,1.1952,0.60818-0.0415,0.8504-2.435,0.46859-4.5478,1.1884-6.3671,2.8047-1.2066,1.0738-2.9564,2.9557-2.0328,4.4731,1.3031,2.1422,4.6497,3.1835,6.8938,3.7525,2.5399,0.64591,5.946,0.51235,8.4829,0.06414,1.2382-0.21354,1.8487-0.03396,0.38181,0.77193-2.0456,1.116-4.3742,1.5891-6.555,1.5838-3.628-0.0098-8.4708-1.6608-11.499-3.4839-1.0911-0.65798-2.318-1.1085-2.9858-1.3318-0.79834-0.26636-4.6542,0.25354-6.6742,0.1328-4.1396-0.2475-7.7751-1.3514-8.6315-1.3499-1.6276,0.003-7.3556,5.0934-14.995,5.482-0.50707,0.02566-4.1803,2.9421-9.5498,3.2265-1.119-1.2284-1.2828-2.1732-1.3696-3.5646,1.0768,0.48368,2.4116,0.06414,3.7872-0.66251,1.3544-0.71609,2.6508-1.4563,3.2326-2.7723zm-22.793,6.9073c-0.30712-0.86776-0.85116-1.5778-1.4556-2.0479-1.7393-1.3529-3.1579-2.7361-3.9419-4.0279-1.1847-1.9475-1.6736-4.2248-1.4254-6.4403,0.18336-1.6178,0.61196-1.1605,0.91605,0.0098,0.46406,1.8751,1.11,3.5201,2.3128,5.076,0.69797,0.90398,1.6751,1.8811,3.1315,2.6599,0.31617,1.3205,0.81041,2.6063,1.4707,3.7932l-1.0081,0.97717zm7.0598-2.2109c0.74325-0.56442,0.91303-1.2428,0.40897-1.7951-1.1839-1.2964-1.7717-2.4795-2.0728-3.7789-0.47236-2.0373-0.32673-4.0898,0.53876-6.183,0.62403-1.5069,0.9085-0.96359,0.86851,0.24146-0.0574,1.6352,0.0438,3.1511,0.59611,4.6293,0.42709,1.1417,1.4201,2.9715,3.0032,4.2362-0.0528,0.97641,0.037,1.9287,0.12602,2.9013,0.0619,0.6693-0.17582,0.65572-0.84739,0.91982-0.86926,0.34182-1.9626-0.64063-2.6214-1.1711z"/>
 <g fill-rule="evenodd" transform="translate(-123,135.06)">
  <path fill="#156dc1" d="m160.15,86.392,0.003,0.0015"/>
  <path fill="#003b8f" d="m164.51,31.222c3.1209-0.49198,5.8887,0.40068,9.1107,1.854-1.2828-0.16676-8.0339-1.4261-8.882-0.14488-0.59611,0.88058-0.0996,1.5869-0.0996,1.5869-1.7302-0.58328-2.2599-2.9549-0.12903-3.296z"/>
  <g transform="matrix(0.75457044,0,0,0.75457044,-39.088313,-241.24652)">
   <path fill="#003b8f" d="m255.24,359.47c1.595,0.113,2.814,1.253,2.722,2.544s-1.461,2.247-3.055,2.133c-1.594-0.113-2.813-1.253-2.721-2.544s1.46-2.247,3.054-2.133z"/>
   <path fill="#FFF" d="m254.18,359.52c0.515,0.037,0.902,0.484,0.866,0.998-0.037,0.515-0.484,0.902-0.998,0.866-0.515-0.037-0.902-0.484-0.866-0.998,0.037-0.515,0.484-0.902,0.998-0.866z"/>
   <path fill="#003b8f" d="m256.48,358.98c1.615,0.496,2.98,2.029,3.064,3.226l-1.589-0.113c-0.22-0.789-0.946-1.559-1.857-1.902-1.368-0.513-3.027,0.146-3.627,1.511l-3.849-0.274,0.037-0.531,3.194-0.612c1.042-1.387,3.017-1.798,4.627-1.305z"/>
  </g>
  <path fill="#d40000" d="m132.77,35.338c0.32975,1.9309,2.3037,3.3661,5.4322,2.3392,3.8619-1.2699,5.0081-0.64063,5.8872,0.57121,0.60365,1.4126,0.31314,1.7891,0.31314,1.7891-3.0507-4.1018-7.8626,2.266-11.501,0.43614-1.6359-0.82324-2.0728-3.3707-0.1313-5.1356z"/>
  <path fill="#156dc1" d="m160.8,86.249,0.003,0.000755"/>
  <path fill="#ffcd50" d="m145.8,40.198c1.4299,0.18412,2.9421,0.48594,3.5261,0.86323,0.40671,0.26561,1.697,0.84436,3.1118,1.3348,2.3709,0.82248,6.595,1.1575,8.5953-0.49877-0.77419,3.382-6.8688,1.9513-9.0684,1.9732-1.9747,0.02113-3.173,1.0949-4.286,3.2182,0,0,1.8562-1.1937,3.1141-0.70024-0.37955,0.65798-1.4035,4.2437-1.4035,4.2437-2.1973,1.2028-3.3986,4.3758-3.1564,6.4093,1.0209-0.99452,3.222-1.3612,3.222-1.3612-2.4984,1.2594-5.3786,4.2128-4.8557,8.1811,0.64969-0.76287,2.3241-1.2367,2.3241-1.2367s-3.7178,2.7617-2.5738,8.3048l1.6118-1.2979s-1.9656,4.1615,1.3137,8.0362l1.1937-1.5869s-0.20751,2.2667,2.2162,6.6138l1.0662-1.6895s1.0843,2.7617,4.3924,4.3901l-0.3788-1.8962s1.9166,0.9485,4.2754,1.5612c-1.8532-1.8842-4.784-5.5446-1.3711-10.154l-0.0807,0.84436c-1.9611,3.3375,0.8421,7.0877,3.431,9.6857,1.1937,1.1945,3.5231,9.3959,3.7178,12.281,0.20902,2.8855,2.9655,6.0796,3.0696,9.5204,0.10186,3.6265,0.60516,8.7583,0.0596,11.704-0.52518,2.8062-1.6699,2.8598-2.7119,4.2422,2.3905-0.14412,4.5682,2.2592,6.7994,1.9574,0.0619-1.3175-0.38559-2.758,0.13959-4.3244,0.12224-0.41124,0.54103-0.18563,0.54103-0.18563s0.4384,0.53499,1.027,0.206c0.93567-0.495-0.54631-2.7195-1.1281-6.2637-0.89945-5.4397-0.84211-13.106-0.79683-15.887,0.0415-2.8025,0.95604-6.3459,1.23-7.7276,0.22939-1.1945,0.8753-1.9574,1.396-3.3586,1.1937-3.173-3.0643-7.6529,1.0345-10.901-2.4531,5.033,1.0949,6.0169,0.26033,11.21,2.9624,0.20524,7.6144,0.22335,12.718-0.97189,5.0141-1.196,9.9196-2.7572,15.443-1.2337-2.1218-4.1403-0.67459-6.7164-0.77042-6.7164,0.14413,2.0185,0.63535,4.2716,2.3316,7.2801,0.96283,1.6691,2.5097,3.5842,4.0324,5.1922,2.2984,2.4312,5.236,4.4648,8.6021,6.032,10.089,3.8725,11.304,4.0792,10.45,10.117-0.5033,3.5857-0.84059,8.5516-1.8842,11.353-1.0036,2.6516-2.9375,3.2454-4.1434,4.5478,2.5361-0.0242,4.6066,2.8379,7.0039,2.4524,0.21883-1.2986,0.4618-2.8342,1.2368-4.2588,0.18788-0.39238,0.56366-0.10338,0.56366-0.10338s0.35842,0.59687,0.9832,0.38559c1.0006-0.32447-0.7523-2.8591-0.54329-6.4448,0.3539-6.7006,2.7881-12.954,3.6159-19.554,0,0-1.5469-1.9989-2.552-2.1022-1.9204-0.1645-7.0002-1.5046-8.7115-5.7491-2.1792-5.3567-0.17279-9.9935,1.1288-12.26,1.482-2.6591,2.2524-2.4109,1.7348-4.1615-0.56668-1.8962-3.5774-6.7398-7.5087-9.4178,4.1675,2.0713,10.204,2.2833,9.3061-3.668-1.6744,0.71609-4.6451,2.2041-13.089,1.7514-3.8196-0.87681-7.4733-1.7076-11.43-1.8472-7.3261-0.25806-14.675,0.9168-21.007,0.42482-9.5928-0.74174-11.214-1.9679-13.638-3.3058-0.18638,1.1334-0.80136,1.8857-1.5137,2.3995,0.62629-2.3769,0.68967-4.698,0.99754-7.1028,0.36446-2.7376,1.0753-5.199,1.282-7.7932,0.0875-1.2186,0.14111-2.7632,0.1562-3.794-5.9264,0.21279-7.2303-3.3088-7.7555-4.1328l0.15619-0.78928c1.8691,3.4899,5.0541,4.3931,8.8836,3.1639,2.0419-0.65648,3.4084-2.1098,4.9885-3.4408,0.40596-0.34031,1.491-1.2179,1.4699-1.7627-0.0604-0.66855-3.385-1.6691-4.2316-1.9068-1.7506-0.49424-4.2694-1.0685-6.2312-1.2511-1.854-0.17129-3.311,0.48443-5.076,0.89417-0.59234,0.13809-2.5867,0.06037-2.392-1.0541,0.661,0.44671,1.9423,0.1313,3.1556-0.23618l-5.9415-2.4441s-2.0041,0.53725-3.4265,0.59837c-1.3952,0.06112-2.0064,1.1945-5.8713,2.0396-3.8468,0.84512-8.6715,1.2156-9.4917,1.4427-0.54178,0.1645-0.91907,1.2164-0.91907,1.2164s0.56517,0.30937,1.9038,0c-1.1077,1.3182-2.4244,0.98773-2.4244,0.98773s-0.85342,1.0323-0.96133,2.349c-0.0656,0.74401,1.8834,0.80513,2.5527,0.86625,1.15,0.07169,3.1518,0.16752,3.5382,1.7657,0.30711,1.2609-1.571,2.1234-2.4131,2.4463-0.55461,0.24071-1.5016,0.25429-1.8261,0.65798-0.26485,0.29051,1.3771,1.7838,3.2703,0.85116,1.4518-0.73722,2.1769-1.0738,3.3903-1.4239zm6.2154,43.619c-3.1488,0.02566-6.0675,0.74174-8.6383,2.355-2.2184,1.3907-1.5031,4.4459-1.0368,6.5421,0.59611,2.6795,0.20901,5.2065,0.30409,7.889,0.10036,2.5436-0.45576,4.012,1.4865,6.272,1.2548,1.4518,1.2398,2.4848,1.3228,4.1584,1.5574-1.7197,4.7342-1.9619,5.6148-4.0543-0.45802-0.42633-1.1039-0.78777-1.7574-1.1537-0.93869-0.52669-2.0766-1.1205-2.5904-2.1128-0.31843-0.62554,0.0513-0.63761,0.37276-0.55838,0.24146,0.0573,1.116,0.45048,1.1937,0.0483,0.0694-0.36974-0.24297-0.89718-0.58857-1.4774-0.45349-0.75985-0.95528-1.6095-0.89643-2.5437,0.17582-2.7602,0.15318-3.7578,0.13809-4.4173v-0.0015c-0.0151-0.68213-0.0226-1.0315,0.17883-2.4267,0.17431-1.1273,2.2071-1.9023,3.4069-1.977,3.9223-0.24825,8.4452,0.65044,12.375,0.82852-0.46104-1.4292-1.0873-2.9828-1.5944-4.3976l-0.60668-0.20072h-0.002c-0.83531-0.27014-2.4765-0.71005-3.6431-1.3114,0.0611,0.68213,0.25655,1.4669,0.25655,2.149-1.7536-0.98547-3.9177-2.1309-5.2963-3.6099zm49.685,2.146-1.2262,1.8276c1.8155-0.07395,4.1682,0.05659,5.9007,0.58253l-1.0617-1.7672c-1.0421-0.27316-3.0288-0.56668-3.6129-0.64289zm-5.7227,0.54404c1.1522,3.1103,2.9708,5.1726,5.4374,7.9117,7.2288,7.9766,7.3148,8.6149,3.3442,13.271-2.3437,2.7814-6.7028,5.6019-8.0113,8.3056-1.1817,2.4433-3.1352,2.9655-4.1471,4.4603,2.3512-0.1645,4.5259,2.1339,6.7194,1.8902,0.0106-1.2413-0.005-1.9694,0.69194-2.9308,0.58178-0.80437,0.62026-0.35767,0.71684,0.17204,0.0581,0.30787,0.22637,0.62177,0.66478,0.65195,1.0632,0.0823,0.24524-2.5542,1.6253-4.5131,3.2205-4.5131,9.0111-8.4678,10.954-10.509,1.9264-2.0396,2.1354-2.7398,2.1354-2.7398s0.74929-2.0841-0.0845-2.6402c-0.62479-0.84512-3.5872-2.9911-3.8483-5.0111-1.7151-1.3967-3.17-2.9662-4.3576-4.7115-2.7406-1.814-6.2561-1.2828-8.8685-1.3235l1.5182-2.7527c-1.4344-0.01358-3.1315,0.08074-4.4904,0.46934z"/>
  <path fill="#003b8f" d="m165.17,31.079c3.1202-0.49198,5.8879,0.40068,9.1107,1.854-1.2828-0.16676-8.0339-1.4261-8.882-0.14488-0.59687,0.88058-0.10036,1.5869-0.10036,1.5869-1.7302-0.58328-2.2592-2.9549-0.12828-3.296z"/>
  <path fill="#d40000" d="m150.13,46.248c6.859,0.75985,14.101,1.1439,21.001,0.87153l-0.75683,5.1039c-7.14,0.217-14.64-0.212-21.73-1.03l1.4865-4.9462z"/>
  <path fill="#d40000" d="m222.74,124.75c-0.47764,0.85116-2.475,3.7268-5.2994,6.1762,0.61724,0.19694,1.3092,0.23316,1.9642,0.22562l1.9762-2.2132-0.63535,3.0402c1.8691,0.0943,7.4808-0.46105,8.2135-2.1792,0.34258-0.80588,0.60215-1.7385,0.69722-2.6161-2.4327-0.14412-4.4784-2.9549-6.9164-2.4335z"/>
  <path fill="#d40000" d="m191.93,121.76c-0.39766,0.89039-2.1203,3.9336-4.7062,6.6266,0.63308,0.1411,1.325,0.11394,1.977,0.0483l1.7634-2.3822-0.35163,3.0847c1.8691-0.0739,7.4069-1.1311,7.9773-2.9081,0.26636-0.83304,0.43841-1.7861,0.45274-2.6689-2.4365,0.0762-4.7342-2.5391-7.1126-1.8004z"/>
  <path fill="#d40000" d="m165.47,124.48c-0.40747,0.88587-2.1664,3.9087-4.784,6.5716,0.63158,0.14865,1.3235,0.12978,1.9762,0.0709l1.7914-2.361-0.38784,3.0802c1.8698-0.0521,7.4197-1.0458,8.0113-2.816,0.27617-0.83003,0.45953-1.78,0.48368-2.6629-2.4365,0.0475-4.7025-2.5942-7.0907-1.8827z"/>
  <path fill="#d40000" d="m145.78,112.72c0.45802,0.86172,1.7951,4.0875,2.3165,7.76,0.50707-0.39992,0.91756-0.94925,1.2714-1.4933l-0.78777-2.844,2.226,2.195c1.1077-1.4865,3.7246-6.4123,2.6719-7.9607-0.49425-0.72514-1.1424-1.4518-1.8328-2.0132-1.4601,1.9242-4.9666,2.0622-5.8653,4.3561z"/>
  <g transform="matrix(0.75457044,0,0,0.75457044,-39.088313,-241.24652)">
   <path fill="#003d8f" d="m256.11,359.28c1.594,0.113,2.813,1.253,2.721,2.544s-1.46,2.247-3.054,2.133c-1.595-0.113-2.814-1.253-2.722-2.544s1.461-2.247,3.055-2.133z"/>
   <path fill="#FFF" d="m255.05,359.33c0.514,0.037,0.902,0.484,0.865,0.998-0.036,0.515-0.484,0.902-0.998,0.866-0.514-0.037-0.902-0.484-0.865-0.998,0.037-0.515,0.484-0.902,0.998-0.866z"/>
   <path fill="#003d8f" d="m257.34,358.79c1.616,0.495,2.98,2.028,3.065,3.225l-1.59-0.113c-0.22-0.789-0.945-1.559-1.856-1.902-1.368-0.513-3.027,0.146-3.628,1.511l-3.849-0.274,0.038-0.531,3.193-0.612c1.043-1.386,3.017-1.798,4.627-1.304z"/>
  </g>
  <path fill="#d40000" d="m217.92,31.68c1.0911-0.94774,2.0275-2.3731,3.1179-3.3367,1.9649-1.7385,5.2382-2.9715,7.8324-3.0424,1.7302-0.04528,1.3062,0.44369,0.0996,0.90624-2.361,0.90624-4.3576,2.0238-5.9083,4.0468-1.0934,1.4231-2.2177,3.425-0.81796,4.9756,1.9151,2.1317,5.1296,2.7889,7.6951,2.7429,2.6848-0.04829,5.9762-1.1485,8.3342-2.3286,1.1485-0.57423,1.7989-0.55536,0.59536,0.68817-1.6699,1.7272-3.8046,2.8794-5.9407,3.4922-4.6323,1.3288-11.359-0.24146-14.035-2.4554-0.89794-0.5116-1.7076-0.90322-2.1905-0.9666-1.1009-0.14261-6.4606,0.68968-9.6095,0.45652-2.1543-0.15846-5.3152-1.0768-6.3814-1.159-0.89945-0.07093-4.4784,1.1432-7.554,0.73646-2.6802-0.35314-5.6751-1.3846-7.809-2.223-1.7544-0.68892-3.3827,0.11319-5.5891-0.46783l0.003-0.000754c3.4235-2.7149-2.023-3.6182-5.2865-4.6723-2.8334-0.91454-5.0541-1.2269-7.8966-0.82626-0.67081,0.09432-1.7091,0.48443-2.721,0.76287-2.0638-0.24674-4.2912-1.6291-5.9309-2.192l0.69118-1.8472c1.0096-0.31767,1.777-0.47161,1.2677-1.3416-1.4405-2.4674-1.9838-5.3001-2.026-7.2152-0.0558-2.4116,0.6776-4.7908,2.0306-6.7677,0.98019-1.4344,1.1251-0.79984,0.78777,0.45123-0.53499,1.9913-0.80814,3.8559-0.53952,5.9038,0.26108,1.986,0.92586,4.8481,3.837,7.2492,1.2164,1.0013,2.512,2.2245,4.086,1.5612,1.7159-0.72288,1.7627-1.2126,1.5952-2.7866-0.19317-1.8238-0.12299-3.6091,0.41502-4.9319,0.84436-2.0743,2.2086-3.8098,4.1924-5.1696,1.4292-0.97943,1.3356-0.33578,0.57197,0.70854-1.0383,1.4156-1.8736,2.8168-2.312,4.4399-0.60139,2.2245-0.94321,7.0356,2.6146,9.8773,2.1158,1.3997,4.71,2.7104,7.2409,1.8102,1.8449-1.1122,3.1888-4.3584,4.7734-5.7461,1.6857-1.479,3.7283-2.4086,6.1098-2.7331,1.7166-0.23392,1.3454,0.30107,0.19543,0.88964-1.5597,0.79984-3.0341,1.6548-4.1494,2.9066-1.2035,1.3507-2.5618,3.8672-2.1762,5.6963,0.23618,1.1228,1.4216,1.9732,3.8958,2.6078,2.6848,0.68892,5.1605,0.64365,6.9194-0.75457,2.0826-1.654,4.6104-4.5999,7.3193-5.9687,1.9913-1.0043,4.1554-1.4956,6.5512-1.3643,1.7272,0.09583,1.2624,0.55234,0.0264,0.91001-1.6752,0.49122-3.4552,1.2435-4.8579,2.1113-1.7212,1.0624-4.907,3.5518-3.7238,5.0835,0.98396,1.276,6.5059,1.4367,11.223,0.64063,1.2186-0.20449,2.266-0.34559,3.434-1.3575z"/>
  <path fill="#d40000" d="m180.61,17.647c1.0322-2.3226,0.74476-5.6812,1.7189-7.5457,0.97415-1.8645,2.4403-3.4001,4.5018-4.5365,1.4918-0.82248,1.3575-0.22863,0.52669,0.68968-1.1258,1.2473-2.0547,2.5074-2.5965,3.9811-0.53499,1.4556-0.98999,5.8109,0.0136,7.0409,1.0375,1.2722,5.0813-0.45652,8.8466-2.7142l-0.008-0.006,0.2807-0.15846,0.0113-0.0075c3.2265-1.9121,5.4782-6.1905,9.3831-8.1056,1.9747-0.97868,4.1675-1.3763,6.5504-1.153,1.7249,0.15318,1.2352,0.55914-0.0174,0.84286-1.6918,0.38936-3.3246,0.84286-4.6896,1.74-1.2828,0.84286-4.9221,3.8521-3.7563,5.208,0.56669,0.65798,3.8974,0.99226,7.1375,1.1115,2.2358,0.08074,4.5259-0.03245,6.2931-0.49877,2.4991-0.65421,3.7464-2.8266,5.8517-4.0754,2.1694-1.2881,5.3522-2.1219,7.8754-1.7898,1.6834,0.2226,1.1952,0.60818-0.0415,0.8504-2.435,0.46859-4.5478,1.1884-6.3671,2.8047-1.2066,1.0738-2.9564,2.9557-2.0328,4.4731,1.3031,2.1422,4.6497,3.1835,6.8938,3.7525,2.5399,0.64591,5.946,0.51235,8.4829,0.06414,1.2382-0.21354,1.8487-0.03396,0.38181,0.77193-2.0456,1.116-4.3742,1.5891-6.555,1.5838-3.628-0.0098-8.4708-1.6608-11.499-3.4839-1.0911-0.65798-2.318-1.1085-2.9858-1.3318-0.79834-0.26636-4.6542,0.25354-6.6742,0.1328-4.1396-0.2475-7.7751-1.3514-8.6315-1.3499-1.6276,0.003-7.3556,5.0934-14.995,5.482-0.50707,0.02566-4.1803,2.9421-9.5498,3.2265-1.119-1.2284-1.2828-2.1732-1.3696-3.5646,1.0768,0.48368,2.4116,0.06414,3.7872-0.66251,1.3544-0.71609,2.6508-1.4563,3.2326-2.7723zm-22.793,6.9073c-0.30712-0.86776-0.85116-1.5778-1.4556-2.0479-1.7393-1.3529-3.1579-2.7361-3.9419-4.0279-1.1847-1.9475-1.6736-4.2248-1.4254-6.4403,0.18336-1.6178,0.61196-1.1605,0.91605,0.0098,0.46406,1.8751,1.11,3.5201,2.3128,5.076,0.69797,0.90398,1.6751,1.8811,3.1315,2.6599,0.31617,1.3205,0.81041,2.6063,1.4707,3.7932l-1.0081,0.97717zm7.0598-2.2109c0.74325-0.56442,0.91303-1.2428,0.40897-1.7951-1.1839-1.2964-1.7717-2.4795-2.0728-3.7789-0.47236-2.0373-0.32673-4.0898,0.53876-6.183,0.62403-1.5069,0.9085-0.96359,0.86851,0.24146-0.0574,1.6352,0.0438,3.1511,0.59611,4.6293,0.42709,1.1417,1.4201,2.9715,3.0032,4.2362-0.0528,0.97641,0.037,1.9287,0.12602,2.9013,0.0619,0.6693-0.17582,0.65572-0.84739,0.91982-0.86926,0.34182-1.9626-0.64063-2.6214-1.1711z"/>
 </g>
 <g transform="matrix(0.49515616,0,0,0.49515616,124.10132,133.73896)">
  <path d="m30.835,237.69s2.2833-7.9003,9.4385-9.2816c11.925-2.3045,1.2385,10.144-0.89635,9.0045-4.7306-3.4568-8.5422,0.2771-8.5422,0.2771z" fill-rule="evenodd" fill="#003d8f"/>
  <path d="m113.75,247.24s2.2847-7.9003,9.44-9.283c11.925-2.3045,1.2385,10.145-0.89635,9.0045-4.732-3.4553-8.5436,0.27852-8.5436,0.27852z" fill-rule="evenodd" fill="#003d8f"/>
  <path d="m90.296,35.449c0.17248,4.1665,5.7287,10.244,17.189,8.5083,14.064-1.91,22.747-2.0839,26.219,1.91l0.34779,3.4723h-2.2578c-0.17-1.389-10.93-6.424-26.56-1.562-11.636,3.646-22.401-3.126-14.934-12.328z" fill-rule="evenodd" fill="#003d8f"/>
  <path d="m109.39,44.651c-0.86807-2.4303-1.3191-5.8687-1.3191-5.8687l6.5275-1.0759c-2.0825,1.5622-3.9926,4.8606-5.2084,6.9446zm0.0354,1.0773c-0.3478,2.6042,0.48493,6.389,0.48493,6.389l6.8074-0.24317c-2.2578-1.3884-5.5562-4.2372-7.2924-6.1458z" fill-rule="evenodd" fill="#003d8f"/>
  <path d="m49.841,57.839c-8.4192-0.8808-13.711,1.681-12.152,10.25-3.2857,2.1829-3.7494,7.8834-0.79597,10.712-2.5392,4.4761-0.779,8.7458,3.4709,9.9051,2.3653,0.64611,4.9016-0.09897,7.2768-0.42131,0.78183,0.4001,2.0486,0.54007,2.9435,0.54714-0.176-10.292-0.432-20.613-0.743-30.993z" fill-rule="evenodd" fill="#d40000"/>
  <path d="M100.01,78.874c-7.866-2.199-16.639-5.812-24.503-8.774-1.493-5.869-4.226-13.911-12.445-10.651-0.06503,2.2946-0.12583,4.5892-0.18662,6.8796l3.5373,3.9784-3.6222-0.68711c-0.17814,7.1411-0.33083,14.258-0.44535,21.367,1.8125,0.041,4.7136-0.72952,6.0299-1.4491l2.9859,0.16542c2.9209,2.5463,3.584,5.7584,1.9906,9.6365,1.7418,1.0179,3.4836,1.9779,5.2254,2.8842,1.7107-2.7569,1.7941-5.5152,1.2866-8.2722,1.8139,3.2136,2.7018,6.5841,2.4699,10.141,2.0302,0.96704,4.0618,1.8592,6.0921,2.6876l0.60793-3.2164c-0.636-10.545,2.552-17.491,10.976-24.686z" fill-rule="evenodd" fill="#d40000"/>
  <path d="m50.289,42.915c1.4718,44.82,2.231,88.498,0.39869,133.18,1.8804,0,3.7027-0.64752,5.6425-0.64752,1.9383,0,3.7621,0.64752,5.6425,0.64752-1.8323-44.678-1.0731-88.356,0.39869-133.18-4.0011,0.65883-8.0813,0.65883-12.082,0z" stroke="#ffcd50" stroke-dasharray="none" stroke-miterlimit="4" stroke-width="5.04891205" fill="none"/>
  <path d="m56.331,56.307c7.3956-4.0166,14.264-2.3667,20.558,2.5166,14.005,10.868,17.773,8.7783,21.044,2.9506l-2.43-2.365c-1.777,8.501-9.223,0.768-12.295-2.233-6.544-6.393-11.156-14.116-26.877-9.883-15.721-4.233-20.332,3.49-26.878,9.883-3.072,3.001-10.516,10.734-12.295,2.233l-2.4303,2.3639c3.2715,5.8277,7.0393,7.9173,21.044-2.9506,6.2942-4.8833,13.162-6.5332,20.558-2.5166z" fill-rule="evenodd" fill="#000"/>
  <path d="m50.289,42.915c1.4718,44.82,2.231,88.498,0.39869,133.18,1.8804,0,3.7027-0.64752,5.6425-0.64752,1.9383,0,3.7621,0.64752,5.6425,0.64752-1.8323-44.678-1.0731-88.356,0.39869-133.18-4.0011,0.65883-8.0813,0.65883-12.082,0z" fill-rule="evenodd" fill="#d40000"/>
  <path d="m48.415,131.42c6.3223,1.0052,10.333,0.70832,16.615-0.62631m8.31,23.352c-4.296,1.517-6.982,3.0368-11.783,2.9958-3.9619-0.0353-8.3704,0.0891-12.475-0.11735" stroke="#ffcd50" stroke-dasharray="none" stroke-miterlimit="4" stroke-width="6.05869484" fill="none"/>
  <path d="m52.584,97.451c-6.3268-0.58673-6.3324,3.6335-5.5774,11.517,0.3379,3.5402,0.90483,9.0483-1.7446,11.951-0.66731,0.72952-1.5608,1.2456-2.73,1.2456-1.2738,0-2.3073-1.0321-2.3073-2.3073,0-1.2738,1.0335-2.3059,2.3073-2.3059,0.72387,0,1.3714,0.33224,1.7941,0.85393,2.2635-3.4256,0.05231-8.5266-0.57542-12.118-1.5934-6.495-0.26862-15.179,8.8334-16.45v7.6133z" fill-rule="evenodd" fill="#d40000"/>
  <path d="m82.677,242.51c6.9248,3.7678,5.2297,11.768,1.6697,15.133-4.8804,4.6104-13.68,5.1688-15.265-6.1189-1.8634,0.70832-3.7551,1.0363-5.8376,1.377-0.2559,7.1029-7.2896,10.482-12.747,9.1501-6.4229-1.4534-6.003-6.2716-4.0449-11.006-1.0759,1.0335-1.7418,2.4218-2.2183,3.7975-6.2448,1.0236-9.2265-3.1669-9.365-7.7533-0.04383-5.9323,3.0171-8.6426,8.7868-8.2905-1.5651-0.46231-3.116-0.73376-4.6542-0.81435-2.518-3.075,4.0039-15.16,14.12-9.0582,2.9563,1.7842,5.3625,2.477,7.8438,2.4501,6.8188-0.0735,17.828-5.1137,21.042-13.011,3.7635-9.2448,0.70266-20.54-0.11593-22.815-0.98259,2.5265-2.7937,4.2273-5.1773,4.6712-1.7475-0.28983-3.461-0.64045-5.1222-1.0476,2.6636-2.1235,4.1636-4.8818,1.8351-7.4691-2.2564,4.5086-5.0713,5.6863-6.9404,5.9733-3.0383-1.0519-5.8065-2.3314-8.1774-3.8286,9.2024-2.9266,9.4739-8.8504,13.813-14.911,4.9172-6.8697,11.515-13.157,21.18-16.741,13.007-4.8225,27.382-7.1256,40.102-13.226,2.3879,3.1386,3.9021,6.4469,3.0496,9.7467-1.8747,7.2627-7.2938,8.8532-9.3792,20.81-21.071,1.2654-28.68,35.116-6.8782,29.741v0.33225c-0.0353,2.272-0.22196,4.6316-0.61924,7.0026-3.0736,1.7333-6.225,2.5434-9.4527,2.4261,1.3572,3.5062,4.0831,4.6316,7.749,4.1297-0.82566,2.2706-1.9129,4.4874-3.3182,6.5728-3.8809,1.0505-7.2118-0.0947-10.168-2.7428-0.94725,4.592,1.4831,6.8046,6.2292,7.3914-1.7842,1.6881-3.8809,3.222-6.3296,4.5425-3.4907,0.30821-6.1387-1.2371-8.0884-4.3192-1.418,2.9407-0.60369,5.1872,2.4402,6.7396-4.1537,3.4299-8.644,3.15-13.411-0.20076-0.79173,0.75073-1.64,1.2046-2.5505,1.3672z" fill-rule="evenodd" fill="#d40000"/>
  <path d="m133.19,166.53c-3.871-0.22479-4.8112-4.8253-3.4921-8.1704,0.574-1.4534,1.5707-2.6707,2.9435-3.1867-0.60935-2.9308-2.1249-7.004-7.2401-10.94,1.6669-0.14421,3.3917-0.024,5.1688,0.35487,3.8427,4.4492,6.9319,9.5106,5.617,14.602-0.69984,2.5731-1.8747,4.937-2.9973,7.3404z" stroke="#ffcd50" stroke-dasharray="none" stroke-miterlimit="4" stroke-width="3.43326044" fill="none"/>
  <path d="m133.19,166.53c-3.871-0.22479-4.8112-4.8253-3.4921-8.1704,0.574-1.4534,1.5707-2.6707,2.9435-3.1867-0.60935-2.9308-2.1249-7.004-7.2401-10.94,1.6669-0.14421,3.3917-0.024,5.1688,0.35487,3.8427,4.4492,6.9319,9.5106,5.617,14.602-0.69984,2.5731-1.8747,4.937-2.9973,7.3404z" fill-rule="evenodd" fill="#d40000"/>
  <path d="m144.64,11.834c1.3898,1.7361,0.52028,4.3418-1.2159,4.8621-10.071-0.3478-18.577,0.69418-21.355,2.2578-4.6882,2.2564,0,4.3404-6.4243,4.5143-3.2998,0-7.2938,1.042-10.94,1.7361-0.5217,1.5622-0.69418,2.6042,0,4.5143l1.3884-0.1739c-3.2984,6.5982-0.69418,15.454,14.066,8.1619,2.9506-1.7376,8.5068,1.5622,11.285,5.5562,3.8201,5.5562-1.3884,7.8127-6.4243,6.4243-4.6882-1.3898-13.023-0.3478-16.495,1.2145,0.17389,0.69559,0.17389,1.3898,1.2144,2.2578-2.9506,3.4723-1.2144,8.3344,2.2578,11.112-0.34779-6.946,3.6476-9.3763,14.064-7.6402,5.3654,0.21207,6.4823,3.5896,3.6858,6.5417-4.7051,4.6585-12.328,7.6119-19.137,11.583-9.3325,5.4445-17.647,12.557-17.923,20.879,2.0839-1.91,4.9653-2.1857,7.2231-1.4916-4.5143,3.9926-7.8876,10.295-8.5818,15.505l15.071-7.7971v1.3884c-9.5644,10.328-21.115,19.573-35.574,27.233-0.59238-3.2942-0.99814-6.806-1.4887-7.4946-0.48918-0.68994-2.5759-1.5637-5.0968-2.5887l-0.65272,0.0947c-0.0014,3.4271,0.0085,6.8555,0.02969,10.285l-0.0071,0.0226c-5.2904,1.3346-9.2656,1.6315-14.59,0.62631l0.03676-4.674c-2.19-0.46232-3.8408-0.72387-5.5134-0.59804-4.2683,0.32234-7.7179,4.1764-5.2141,7.8961,2.6961,4.0067,3.7833,4.9398,8.7854,6.6434v1.3544c-6.7665-0.63055-5.3527,0.1739-9.5276-3.953l-0.1131,4.2951c4.0887,4.5751,4.9723,5.3512,10.869,6.4215v1.2936c-7.0379,0.37183-5.2014,0.99532-10.485-2.846,2.2593,6.3282,4.5086,9.3283,12.022,9.7708,3.4567,0.20642,7.1694,0.082,10.506,0.11735,4.0435,0.041,6.3056-1.4788,9.9235-2.9958,3.5303-1.4802,7.496-2.9831,11.807-6.249,2.4671,1.6542,3.6815,4.4068,4.3234,7.66,2.4445-0.64611,4.6316-1.5637,6.642-2.6678,0.21772-2.1815,0.21348-4.3644-0.58532-6.5445,1.879,1.0646,3.0807,2.6226,3.7183,4.5906,1.8789-1.3106,3.6179-2.7696,5.2989-4.2866-0.017-2.3455-0.30538-4.5157-1.5665-6.068,2.1886,0.47787,3.9176,1.3813,4.6358,3.2164,2.8672-2.6509,5.8673-5.1363,8.702-7.8028,4.7574-4.4747,9.8796-8.5918,16.599-9.8006l0.31894-3.5928c-6.8323-2.6033-0.0743-12.567,1.6321-16.906l1.1169,0.43686c-1.4675,3.731-4.7443,12.757,0.49807,14.377l-0.34638,8.8702c-4.2216,0.11876-7.0652,1.4605-10.241,3.6321,4.9921,6.0115,18.5,15.723,15.642,26.78-2.3554,9.1176-12.392,18.528-7.11,42.243-2.706,10.816-2.863,22.017,2.6466,30.894,1.6626-1.206,3.2051-2.7795,4.5751-4.421-5.6496-11.586,2.5364-12.661-0.82708-24.682,2.3837,1.7941,4.421,5.0317,3.7494,8.1407-0.78183,3.6108-4.001,6.0454-0.3181,12.529,2.197-3.5727,8.6807-7.848,5.8291-15.099,3.1938,2.0005,6.0892,2.7555,9.6619,3.485,1.8478,0.37748,1.8846,0.72952,1.903,4.7829,0.0481,10.548-5.3965,20.708-16.243,22.444-4.0718,0.64752-7.5087-0.86948-11.245-2.1108-9.1431-3.1853-11.958,11.158-4.8253,10.551-17.746,9.1855,3.83,25.193,10.496,8.077-2.436,11.883,17.005,15.661,18.297,1.2003,2.3285-0.39728,4.6868-1.1763,7.1015-2.7159,7.2429,6.0369,14.214,1.7786,16.321-3.444,1.6895-4.1919,0.2969-10.517-7.3744-9.9376,1.3926-1.0179,2.3964-2.2734,2.9322-3.8173,6.8484,1.2908,7.9116,0.40434,11.781-5.4969-4.1156-0.0382-6.2193-1.8535-5.8913-5.8093,2.8601,1.1636,5.7231,1.6089,8.5846,1.1904,1.1551-2.2098,2.2352-4.5949,3.239-7.1298-3.1966,1.0476-5.5916-0.57966-7.5822-3.7522,3.5274,0.68711,6.758,0.369,9.5361-1.6556,0.80587-2.4374,1.5495-4.978,2.2352-7.5964-4.018,2.1362-7.8678,2.2282-9.3226-2.5562,4.9328,0.0113,8.1562-1.6584,11.057-4.8592,0.56552-2.7088,1.0702-5.4785,1.5156-8.2835-18.736,7.0068-30.411,1.4534-31.015-1.7248-0.5938-3.1231,3.6844-7.3306,5.7047-9.9235,3.5967-4.6146,4.6627-10.206,4.4789-15.846,8.3739,9.3678,19.697,15.403,32.291,9.7934,11.224-4.9992,19.157-17.839,11.548-30.026-2.4006-3.8455-6.0694-7.1722-10.001-10.423-1.8167-1.5029-4.4026-3.7466-6.2744-5.282-0.99108,0.38314-2.0302,0.74083-3.1245,1.066-3.1782,0.94866-1.4845,4.5623,0.26721,6.348-6.3324-2.3455-8.012-7.3857-1.1975-9.3495,12.135-3.4963,16.864-10.527,14.245-20.592-2.2578,7.2274-6.8513,10.948-13.048,12.269,8.2778-5.3018,11.182-11.859,6.232-20.253-0.96987,7.9894-6.8343,12.262-13.341,16.353-14.548,9.1515-10.821,22.766,4.3828,25.337,7.0704,1.1961,10.889,1.64,15.012,7.9993,5.207,8.036,0.22338,16.016-6.9587,19.472-11.903,5.7287-22.194-3.14-28.878-13.263-2.5265-3.8286-3.1132-7.0421-4.486-11.356-3.8908-12.219-10.471-22.597-14.091-31.334-1.9284-4.6556-4.65-11.58-4.8253-16.341,3.0708,0.82,8.2128-0.52028,10.093-2.0458-4.2852-2.0458-5.2791-4.2725-5.0345-7.8409,8.1605,1.5637,13.356-1.9935,15.788-8.2439-5.3823,0.86807-10.131-0.32942-12.909-5.8857,9.5502,0.69418,15.454-2.2578,16.148-10.244-7.4663,2.952-12.502,1.7361-14.412-5.5562,8.3344-0.1739,13.023-3.8201,13.37-11.807-5.904,3.1245-11.286,3.4723-15.453-3.6462,4.5143-3.1259,7.8127-6.946,7.8127-12.502-2.6042,1.2145-5.2084,2.0825-7.8127,0.34638-0.86807,1.7361-2.7781,3.2998-5.2098,4.5143-0.34639-0.34638-0.69418-0.52028-1.0406-0.86807,5.3823-4.1665,5.9026-10.417,4.5143-16.495-4.3418,0.52169-12.328,1.3898-14.238,9.2024l-1.042-1.042c0.34638-3.4723,1.5622-5.5562,4.1665-7.8127-2.0839-1.3898-4.1665-2.6042-6.2504-3.1259zm50.505,99.259c-0.10321-7.2684,4.4167-14.289,9.235-20.097,6.7042-8.0813,13.524-15.279,16.7-24.746,13.095-4.5878,13.874-17.084,10.476-25.488-0.60511,2.1518-2.1023,7.2768-5.7768,6.7848,7.2415-13.37-0.87797-26.783-8.1096-28.737,5.569,10.505-3.1556,16.954-6.273,26.57-1.4407,4.3375-0.24317,12.252,2.9718,17.301-2.6254,9.2081-9.5502,16.071-15.753,23.547-7.2104,8.692-12.921,19.407-10.346,30.214,2.0642-2.1179,4.4379-3.7027,6.8753-5.3484z" fill-rule="evenodd" fill="#d40000"/>
  <path d="m159.23,18.258c-4.3404,0.3478-7.1185,3.6462-7.8127,7.1199l1.91,2.952-0.69417,0.52028-3.6476-3.1259c1.3898-5.2084,4.3418-7.2924,9.898-8.3344l0.34638,0.86807z" fill-rule="evenodd" fill="#ffcd50"/>
  <path d="m133.84,27.147c-0.1739,2.0839-1.2159,3.994-2.952,4.6882-1.7362-1.042-2.952-3.1259-2.952-5.3823-1.042,1.7361-1.042,3.8201-0.17389,5.3823-1.91-0.69418-3.1245-2.4303-3.1245-4.6882,0.17248-2.6042,9.3763-2.6042,9.2024,0z" fill-rule="evenodd" fill="#ffcd50"/>
  <path d="m126.89,25.063c2.6042-0.69418,9.0285-1.3884,10.071,2.4317,0.52169-4.6882-3.9926-4.8621-7.4663-4.5157-2.2564,0.3478-6.9446,1.7376-6.4243-2.4303-2.6042,3.2998,0.3478,5.5562,3.8201,4.5143z" fill-rule="evenodd" fill="#ffcd50"/>
  <g fill-rule="evenodd" fill="#003d8f" transform="matrix(1.4138012,0,0,1.4138012,-296.80025,-449.21782)">
   <path d="m247.43,378.6s-3.322,3.463-7.394,2.238c-6.787-2.042,2.11-5.578,2.904-4.41,1.508,3.069,4.49,2.172,4.49,2.172z"/>
   <path d="m247.43,364.86s-3.321,3.463-7.393,2.238c-6.787-2.042,2.11-5.578,2.904-4.41,1.508,3.069,4.489,2.172,4.489,2.172z"/>
   <path d="m247.43,371.73s-3.321,3.463-7.393,2.238c-6.787-2.042,2.11-5.578,2.904-4.409,1.508,3.068,4.489,2.171,4.489,2.171z"/>
  </g>
  <path d="m85.558,265.52s3.8074-7.2896-0.41-13.233c-7.028-9.9065-7.9046,6.478-5.5732,7.1284,5.8079,0.77052,5.9832,6.1048,5.9832,6.1048z" fill-rule="evenodd" fill="#003d8f"/>
  <path d="m47.839,267.99s-3.8074-7.2882,0.41-13.232c7.028-9.9065,7.9046,6.478,5.5732,7.1284-5.8079,0.77052-5.9832,6.1034-5.9832,6.1034z" fill-rule="evenodd" fill="#003d8f"/>
  <path d="m32.9,259.07s-2.9662-7.6699,1.8903-13.103c8.0954-9.0554,7.1284,7.3235,4.7391,7.708-5.8574,0.11452-6.6293,5.3951-6.6293,5.3951z" fill-rule="evenodd" fill="#003d8f"/>
  <path d="m182.47,258.92s1.2371-8.1308-4.6811-12.383c-9.8627-7.0888-5.3753,8.692-2.9591,8.5521,5.7443-1.1565,7.6402,3.8314,7.6402,3.8314z" fill-rule="evenodd" fill="#003d8f"/>
  <path d="m140.12,273.35s-3.8088-7.2896,0.40859-13.233c7.0294-9.9065,7.906,6.478,5.5746,7.1284-5.8093,0.77052-5.9832,6.1048-5.9832,6.1048z" fill-rule="evenodd" fill="#003d8f"/>
  <path d="m118.66,268.95s-2.9662-7.6699,1.8917-13.103c8.094-9.0554,7.1284,7.3235,4.7391,7.708-5.8588,0.11452-6.6307,5.3951-6.6307,5.3951z" fill-rule="evenodd" fill="#003d8f"/>
  <path d="m21.851,67.98c-0.37748-0.18097-0.57118-0.50049-0.697-0.8709l-1.2441-3.683c-0.22055-0.65742,0.13572-1.3728,0.79456-1.5919,0.65742-0.22055,1.3714,0.13572,1.5919,0.79314l1.1197,3.314,32.915,15.733,32.916-15.733,1.1197-3.314c0.21914-0.65742,0.93452-1.0137,1.5919-0.79314,0.65883,0.21914,1.0137,0.93452,0.79456,1.5919l-1.2441,3.683c-0.12583,0.37042-0.31952,0.68994-0.697,0.8709l-34.483,16.481-34.48-16.481z" fill-rule="evenodd" fill="#000"/>
  <path d="m54.853,33.913,2.8573,0,0,48.657-2.8573,0,0-48.657z" fill-rule="evenodd" fill="#000"/>
  <path d="m53.639,38.33,0-4.9511-8.3838,2.8813c5.883-8.324,8.774-17.712,11.026-27.473,2.252,9.7607,5.143,19.149,11.026,27.473l-8.384-2.881v4.951h-5.2848z" fill-rule="evenodd" fill="#000"/>
  <path d="m55.642,36.327,1.2781,0,0-5.7513,5.6764,1.9496c-2.7583-4.9384-4.7518-10.254-6.314-15.679-1.5623,5.4233-3.5557,10.741-6.3154,15.678l5.675-1.9482v5.7513z" fill-rule="evenodd" fill="#FFF"/>
 </g>
</svg>
