<!-- Created with Inkscape (http://www.inkscape.org/) -->
<svg xmlns:rdf="http://www.w3.org/1999/02/22-rdf-syntax-ns#" xmlns="http://www.w3.org/2000/svg" height="300" width="248" version="1.0" xmlns:cc="http://creativecommons.org/ns#" xmlns:dc="http://purl.org/dc/elements/1.1/">
 <metadata>
  <rdf:RDF>
   <cc:Work rdf:about="">
    <dc:format>image/svg+xml</dc:format>
    <dc:type rdf:resource="http://purl.org/dc/dcmitype/StillImage"/>
    <dc:title/>
   </cc:Work>
  </rdf:RDF>
 </metadata>
 <g transform="matrix(0.96001114,0,0,0.96001114,-203.89329,-351.60423)">
  <path fill="#800080" d="m388.09,524.8c-1.3977,0-2.5311,1.1334-2.5311,2.5311v2.5311h10.124v5.0622h-15.187v-7.5933c0.0143-4.13,3.4002-7.5933,7.5933-7.5933,1.3965,0.00095,2.5311-1.1334,2.5311-2.5311,0-1.3965-1.1346-2.5299-2.5311-2.5299h-7.5933l5.0622-5.0622h2.5311c4.1288,0.0143,7.5933,3.4002,7.5933,7.5921,0,4.1931-3.4014,7.5933-7.5933,7.5933zm58.213-15.185,0,25.31-5.0622,0,0-20.248zm-229.75-0.00095,5.0622,0,0,20.249,10.124,0,0,5.0622-15.186,0zm201.91-5.0622c-9.7827,0-17.716,7.935-17.716,17.718,0,9.7839,7.9338,17.718,17.716,17.718,9.7839,0,17.718-7.9338,17.718-17.718,0-9.7827-7.9338-17.718-17.718-17.718zm12.655,17.718c0,6.9885-5.667,12.655-12.655,12.655-6.9873,0-12.655-5.667-12.655-12.655,0-6.9873,5.6682-12.655,12.655-12.655,6.9885,0,12.655,5.6682,12.655,12.655zm-88.014-7.5921c2.7954,0,5.0622,2.2668,5.0622,5.0622v5.061c0,2.7954-2.2668,5.0622-5.0622,5.0622h-5.0622v-15.185zm0,20.248c5.5908,0,10.124-4.5336,10.124-10.124v-5.061c0-5.5908-4.5336-10.124-10.124-10.124h-10.13v25.31zm-20.249-25.31,5.0624,0,0,25.31-5.0624,0zm-86.054,0,15.186,0,0,5.0622-10.124,0,0,5.061,10.124,0,0,5.0622-10.124,0,0,5.0622,10.124,0,0,5.0622-15.186,0zm75.931,0,5.0621,0,0,25.31-5.0621,0-10.124-15.89,0,15.89-5.0621,0,0-25.31,5.0621,0,10.124,15.89zm-43.026,5.061,5.0608,0c4.1928,0,7.5933,3.4002,7.5933,7.5933s-3.4635,7.579-7.5933,7.5933h-5.0608v-5.0622h5.0608c1.3976,0,2.5311-1.1334,2.5311-2.5311s-1.1335-2.5311-2.5311-2.5311h-5.0608zm5.0608,25.311c9.7835,0,17.718-7.9338,17.718-17.718,0-9.7827-7.934-17.718-17.718-17.718-9.7834,0-17.718,7.935-17.718,17.718,0,9.7839,7.9341,17.718,17.718,17.718zm-12.66-17.74c0-6.9873,5.6672-12.655,12.655-12.655,6.9881,0,12.655,5.6682,12.655,12.655,0,6.9885-5.6672,12.655-12.655,12.655-6.9881,0-12.655-5.667-12.655-12.655zm196.85,2.5311-7.5933,0,0-5.0622,7.5933,0c1.3977,0.00096,2.5311-1.1334,2.5311-2.5311,0-1.3965-1.1334-2.5299-2.5311-2.5299h-7.5933l5.0622-5.0622h2.5311c4.13,0.0143,7.5933,3.4002,7.5933,7.5921,0,1.9454-0.73218,3.7193-1.9346,5.0634,1.2024,1.3429,1.9346,3.1168,1.9346,5.061,0,4.1931-3.4633,7.579-7.5933,7.5933h-7.5933v-5.0622h7.5933c1.3977,0,2.5311-1.1334,2.5311-2.5311s-1.1334-2.5311-2.5311-2.5311z"/>
 </g>
 <path d="m247,1.0001,0,214.77c0,82.42-84.912,44.012-123,82.791-38.089-38.77-123-0.37-123-82.79v-214.77z" stroke="#000" stroke-miterlimit="4" stroke-dasharray="none" stroke-width="2" fill="#003d8f"/>
 <path d="m187.02,265.65-15.74,0,2.9533-5.3928-6.0215,5.3928-3.5633,0,12.537-11.123c3.3577,3.3401,7.4271,5.9134,11.7,7.944z" fill-rule="evenodd" fill="#ffcd50"/>
 <path d="m190.72,232.63c3.3535-11.508,4.8878-17.427,0.71169-29.51,4.818-1.0372,8.4324-5.323,8.4324-10.451,0-0.56955-0.0454-1.1304-0.1315-1.6758,0.9192-0.23788,1.7893-0.5943,2.5952-1.0526,1.7647,4.0578,4.3713,7.552,8.3585,10.126l-0.15568,7.8613c-3.7886,4.9408-5.908,12.968-8.1846,21.377-1.4151,5.2244-2.9226,10.654-3.6571,15.712-0.5477,3.7679-1.1408,7.4617-1.8624,11.218-0.31794,2.4412-3.2196,2.4669-3.7366,0.15684-0.5005-2.2339-3.5194-0.69834-2.5518,1.404,0.69235,1.5048,0.68481,2.8851-0.17715,3.5484-4.5742-2.0923-8.9866-4.818-12.484-8.4566,0.68036-3.6416,5.4589-5.2737,7.6776-7.8135,1.7286-1.2664,3.4494-6.5576,5.1652-12.446z" fill-rule="evenodd" fill="#FFF"/>
 <path d="m152.66,265.46-15.739,0,2.9531-5.3928-6.0215,5.3928-3.5633,0,12.809-11.5c3.2701,3.4295,7.4989,6.0422,11.714,8.2092z" fill-rule="evenodd" fill="#ffcd50"/>
 <path d="m161.13,232.57c3.588-7.4134,7.0477-16.33,8.1858-26.296,1.8349,1.4818,4.1696,2.3689,6.7112,2.3689,4.1789,0,7.7965-2.4018,9.5546-5.8981,0.85344,0.30421,1.7576,0.50495,2.6955,0.58328l0.20713,3.781c-4.385,6.8436-9.0909,15.403-13.982,23.613-3.3474,5.6175-7.1504,10.722-9.6194,15.64-1.6315,3.2504-0.65618,6.5588-1.9763,9.5372-0.8931,2.3287-3.1877,2.787-3.4339,0.43301-0.23845-2.2766-3.4148-1.1008-2.6973,1.0992,0.23807,0.73006,0.63434,3.1312-0.34482,3.7228-4.4738-2.2378-9.0853-4.9691-12.484-8.6824-1.0093-3.6024,7.2221-7.1755,8.9965-8.7851,1.8634-1.0579,5.5156-5.5982,8.187-11.117z" fill-rule="evenodd" fill="#FFF"/>
 <path d="m59.126,265.44,3.5633,0,6.0215-5.3926-2.9531,5.3926,17.178,0,1.5893-3.18c-4.3243-2.2105-8.6803-4.8824-12.013-8.421z" fill-rule="evenodd" fill="#ffcd50"/>
 <path d="m86.69,211.01c-0.61906,2.0556-0.98515,4.1236-0.5444,6.1468,0.30421,1.3969,0.61403,2.8234,0.26746,4.2804-1.1956,5.0298-2.8874,9.9258-3.9628,14.981-1.2894,6.0598-3.6714,9.0004-6.738,11.102-1.705,1.1687-2.5963,2.6489-2.634,4.5045,3.2771,3.7656,7.8079,6.5439,12.26,8.813,0.60803-1.1704,0.52313-2.7212,0.05492-4.6736-0.62718-2.6158,2.1122-4.2661,3.2602-1.9728,0.92752,1.8533,3.4776,1.8144,3.2436-2.3907,0.26708-16.23,3.3873-30.676,9.3634-43.339l3.9197-9.7333c-0.47865,0.0652-0.96445,0.10075-1.4605,0.10075-1.8392,0-3.5693-0.46704-5.0807-1.2855-1.8738,3.0908-5.2712,5.1592-9.1485,5.1592-0.66121,0-1.3079-0.0615-1.9357-0.17599,0.10405,2.9259-0.06904,5.8368-0.86505,8.4825z" fill-rule="evenodd" fill="#FFF"/>
 <path d="m84.384,219.05c-3.9592-1.5102-8.138-2.6412-12.547-3.5387-1.8003-0.0174-3.2394-0.66489-3.888-2.7042-0.39568-1.2257-0.79156-2.4515-1.1878-3.6778-0.93583-1.4058-0.68307-2.8118,0.10791-4.2191,0.6293-1.3874,1.1809-2.7744,1.6787-4.162,1.7788,1.3218,3.9804,2.1035,6.3663,2.1035,2.8555,0,5.4506-1.1223,7.3689-2.9477,0.92597,0.84591,1.9993,1.5323,3.1796,2.013,0.05531,1.3497,0.05376,2.6961-0.04061,4.0392l-2.3534,0.90122c0.67978,0.49818,1.3727,0.98012,2.0738,1.4429-0.23672,1.2565-0.61615,2.4553-0.8989,3.7101-0.59275,2.6151-0.1377,4.5858,0.14021,7.0396" fill-rule="evenodd" fill="#FFF"/>
 <path d="m121.82,226.81c-0.81864,1.318-2.2022,2.2213-3.712,2.5323-3.8385,0.78924-4.8778,3.7277-7.9862,3.7749-3.6039,0.0543-7.0593-2.2575-10.208-4.953-0.87646-0.75057-1.7651-1.4621-2.6692-2.1353,0.92056-3.6702,2.0355-7.2126,3.3436-10.632,1.6166,0.48735,3.2633,0.91882,4.9414,1.3008,0.64033,0.14543,1.2768-0.0996,1.944-0.54092,1.3491-0.89252,2.1132,0.28235,1.2959,2.1637-0.88594,2.0382,2.2958,2.5667,3.2399,0.10791,0.24987-0.65231,0.59856-1.2607,0.92868-1.8775,3.3753,2.9696,6.6727,6.3542,8.882,10.259" fill-rule="evenodd" fill="#FFF"/>
 <path d="m138.8,217.46-15.818,8.0779c-2.3194-3.9083-5.6432-7.3066-9.0557-10.304l2.4105-2.7502,15.727,3.4838-4.1121,4.338,7.1629-3.6621,3.6849,0.81632z" fill-rule="evenodd" fill="#ffcd50"/>
 <path d="m99.145,29.176,20.812,0,0,6.4491-20.812,0,0-6.4491z" fill-rule="evenodd" fill="#ffcd50"/>
 <path d="m129.24,29.176,20.812,0,0,6.4491-20.812,0,0-6.4491z" fill-rule="evenodd" fill="#ffcd50"/>
 <path d="m121.31,58.571,0-21.398,6.4489,0,0,21.398-6.4489,0z" fill-rule="evenodd" fill="#ffcd50"/>
 <path d="m121.31,27.628,0-21.399,6.4489,0,0,21.399-6.4489,0z" fill-rule="evenodd" fill="#ffcd50"/>
 <path d="m124.6,265.46c-2.9032-6.2321-6.6622-14.967-6.6622-21.981,0-2.9537,1.9241-5.4568,4.5867-6.3296v-9.8484l4.1504-2.1194v11.968c2.6626,0.87279,4.5875,3.3753,4.5875,6.3296,0,7.0142-3.7592,15.749-6.6624,21.981zm-2.0755-53.004,0-16.196c1.0312-0.42798,1.9808-1.0118,2.8234-1.7208,0.40884,0.42817,0.85229,0.82405,1.3271,1.1814v17.655l-4.1504-0.91939zm0-93.645,0-57.76,4.1504,0,0,60.193c-0.86447-0.80975-1.8606-1.4808-2.9552-1.9736l0.002-0.004c-0.38873-0.17483-0.78673-0.32606-1.1967-0.45448" fill-rule="evenodd" fill="#ffcd50"/>
 <path d="m121.85,29.177,5.3713,0,0,6.4468-5.3713,0,0-6.4468z" fill-rule="evenodd" fill="#ffcd50"/>
 <path d="m182.37,100.04c0.82386-0.52023,1.6972-0.99444,2.9937-1.1151,2.9576-0.27404,4.1023,1.6667,7.0997,1.3924,2.9999-0.27887,3.7679-2.4033,6.7237-2.6801,2.9554-0.27462,4.1038,1.6748,7.1014,1.3924,2.9997-0.28178,3.7652-2.4018,6.7249-2.6785,2.9558-0.27423,4.099,1.6709,7.0997,1.3913,2.9994-0.28004,5.391-1.6599,7.6108-5.1706-3.1018,1.5415-4.4262,1.9504-7.4358,1.8858-3.0108-0.0615-3.928-2.1254-6.8997-2.1879-2.9698-0.06247-3.9717,1.9599-6.981,1.8978-3.0102-0.06575-3.93-2.1287-6.8974-2.1888-2.9696-0.06479-3.9729,1.957-6.9836,1.8945-3.0096-0.06633-3.9261-2.1281-6.8968-2.1884-1.3004-0.02746-2.2208,0.34328-3.1802,0.63375,0.74438-0.65077,1.6178-1.125,2.9143-1.2455,2.9576-0.27423,4.1023,1.6665,7.0997,1.3924,2.9999-0.27907,3.7679-2.4033,6.7237-2.6802,2.9554-0.27462,4.1038,1.6748,7.1014,1.3924,2.9997-0.28178,3.7652-2.4016,6.7249-2.6785,2.9558-0.27404,4.099,1.6709,7.0997,1.3913,2.9999-0.28004,5.391-1.6599,7.6108-5.1706-3.1018,1.5415-4.4262,1.9506-7.4358,1.8858-3.0108-0.06131-3.928-2.1254-6.8997-2.1879-2.9692-0.06247-3.9717,1.9599-6.981,1.898-3.0102-0.06575-3.93-2.1287-6.8974-2.189-2.9696-0.06421-3.9729,1.9571-6.9836,1.8945-3.0096-0.06575-3.9261-2.1281-6.8968-2.1883-1.3004-0.02746-2.2208,0.34308-3.1802,0.63414,0.74438-0.65058,1.6178-1.1248,2.9143-1.2455,2.9576-0.27404,4.1023,1.6659,7.0997,1.3924,2.9999-0.27907,3.7679-2.4033,6.7237-2.6802,2.9554-0.27462,4.1038,1.6748,7.1014,1.3924,2.9997-0.28178,3.7652-2.4016,6.7249-2.6785,2.9558-0.27404,4.099,1.6709,7.0997,1.3915,3.0003-0.28023,5.391-1.6601,7.6108-5.1708-3.1018,1.5415-4.4262,1.9506-7.4358,1.8858-3.0108-0.06131-3.928-2.1252-6.8997-2.1879-2.9692-0.06247-3.9717,1.9599-6.981,1.898-3.0102-0.06575-3.93-2.1287-6.8974-2.189-2.9696-0.06401-3.9729,1.9571-6.9836,1.8947-3.0096-0.06575-3.9261-2.1281-6.8968-2.1884-1.3004-0.02746-2.2208,0.34308-3.1802,0.63414,0.74438-0.65116,1.6178-1.1254,2.9143-1.246,2.9576-0.27404,4.1023,1.6661,7.0997,1.3924,2.9999-0.27907,3.7679-2.4033,6.7237-2.6801,2.9554-0.27462,4.1038,1.6748,7.1014,1.3924,2.9997-0.28178,3.7652-2.4018,6.7249-2.6785,2.9558-0.27423,4.099,1.6709,7.0997,1.3913,3.0003-0.28023,5.391-1.6599,7.6108-5.1706-3.1018,1.5415-4.4262,1.9504-7.4358,1.8858-3.0108-0.0615-3.9284-2.1254-6.8997-2.1879-2.9686-0.06247-3.9717,1.9599-6.981,1.8978-3.0102-0.06575-3.93-2.1287-6.8974-2.1888-2.9696-0.06305-3.9729,1.957-6.9836,1.8945-3.0096-0.06517-3.9261-2.1281-6.8968-2.1884-1.3004-0.02746-2.2208,0.34328-3.1802,0.63433,0.74438-0.65077,1.6178-1.125,2.9143-1.2455,2.9576-0.27423,4.1023,1.6653,7.0997,1.3924,2.9999-0.27907,3.7679-2.4035,6.7237-2.6802,2.9554-0.27462,4.1038,1.6748,7.1014,1.3924,2.9997-0.28178,3.7652-2.4018,6.7249-2.6785,2.9558-0.27404,4.099,1.6709,7.0997,1.3913,3.0009-0.28004,5.391-1.6599,7.6108-5.1706-3.1018,1.5415-4.4262,1.9504-7.4358,1.8858-3.0108-0.06131-3.9284-2.1254-6.8997-2.1879-2.9686-0.06247-3.9717,1.9599-6.981,1.8978-3.0102-0.06575-3.93-2.1285-6.8974-2.1888-2.9696-0.06305-3.9729,1.957-6.9836,1.8945-3.0096-0.06517-3.9261-2.1281-6.8968-2.1884-1.3004-0.02727-2.2208,0.34327-3.1007,0.76487l-0.15897,38.997z" fill-rule="evenodd" fill="#ffcd50"/>
 <path d="m196.22,188.69c0.66334,1.1758,1.0461,2.5348,1.0461,3.981,0,4.4647-3.6215,8.086-8.0862,8.086-1.9423,0-3.7261-0.68674-5.1201-1.8287-0.48464,4.0025-3.8928,7.1068-8.0257,7.1068-3.9576,0-7.2529-2.8468-7.95-6.603-1.4814,1.8672-3.7691,3.0666-6.3368,3.0666-4.1235,0-7.529-3.0908-8.0251-7.0806-1.4829,1.7032-3.6642,2.7816-6.0989,2.7816-3.8812,0-7.1256-2.7383-7.9067-6.3872-1.4698,2.0229-3.8528,3.3397-6.5433,3.3397-3.4614,0-6.4162-2.1774-7.5696-5.2365-1.3371,2.622-4.0617,4.4202-7.2061,4.4202-2.9336,0-5.504-1.5657-6.9218-3.9042-0.98998,3.3467-4.0868,5.7918-7.7538,5.7918-2.513,0-4.7594-1.1492-6.243-2.9483-0.60745,3.8642-3.952,6.8218-7.9862,6.8218-3.1796,0-5.9331-1.8392-7.2538-4.509-1.2911,2.751-4.0835,4.6581-7.3223,4.6581-4.0557,0-7.4161-2.9893-7.9978-6.8837-1.4752,1.5694-3.5683,2.5513-5.891,2.5513-4.4645,0-8.086-3.6213-8.086-8.086,0-0.93197,0.15684-1.8272,0.44674-2.6603-0.73954,0.2226-1.523,0.34424-2.3348,0.34424-4.4645,0-8.086-3.6215-8.086-8.086,0-2.0316,0.75172-3.8907,1.9894-5.311-4.3073-0.17831-7.7472-3.7267-7.7472-8.0779,0-3.0222,1.6611-5.6591,4.1187-7.0471-3.2268-1.0625-5.5583-4.099-5.5583-7.6804,0-3.623,2.3863-6.6918,5.6713-7.7197-2.2351-1.439-3.7174-3.9476-3.7174-6.8021,0-3.4772,2.1983-6.4447,5.2797-7.5861-2.4691-1.3843-4.1406-4.0249-4.1406-7.0566,0-2.4927,1.1288-4.7215,2.9034-6.2045,1.65-1.3739,2.4783-4.4372,1.9351-6.8723-1.0153-4.5546-6.8115-4.1829-10.398-3.8928-3.5764,0.76372-6.8788,0.89735-8.513-2.8309,5.9447,0.0174,9.719-4.7579,14.68-3.9394,1.1244,0.18527,1.7877-2.833,0.20828-3.0053-5.0511-0.55137-10.902,5.0381-15.52,4.9362-1.8995-0.92597-4.022-1.1464-3.1916-5.6307,0.36455-0.63162,0.6792-1.2861,0.95169-1.9587,1.9742,0.32935,4.0632,0.50921,6.3532-0.98128,1.5694-1.0174,1.0722-3.0618-0.40632-2.6304-1.4949,0.43262-3.537,1.1929-5.1042,1.0697,0.17812-0.65638,0.33283-1.324,0.47691-1.9956,10.202-11.792,25.546-18.806,42.83-23.43,0.60262,3.004,1.4862,5.9179,2.683,8.7464-1.6966,0.80645-5.5719,3.2614-6.6646,5.4021-1.1149,1.1956-2.657,2.5661-2.657,4.3237-0.9018,1.149-2.0755,2.6686-1.4907,4.2377-0.46859,1.3205-1.1468,2.9481-0.42972,4.3071-0.20945,1.6309-0.70279,3.672,0.55968,5.0534,0.25006,1.7378,0.31639,4.1549,2.0842,5.1553,0.81748,1.7696,1.6589,4.3386,3.8211,4.7364,1.3545,1.5021,3.0634,3.9609,5.3526,3.502,1.5334,1.1892,3.5749,3.0831,5.6032,1.9396,1.6903,0.78556,3.9729,2.1111,5.622,0.59584,1.7756,0.46879,4.1849,1.2867,5.4963-0.48561,1.8036-0.0362,4.3017,0.17754,5.2721-1.6885,1.7131-0.30866,4.2968-0.77725,4.8515-2.7822,1.6709-0.7318,4.0963-1.5502,4.2092-3.6882,0.56897-0.42972,1.2455-0.87762,1.8386-1.3946,3.4766,0.90508,6.0445,4.0632,6.0445,7.8228,0,1.587-0.4595,3.0666-1.2499,4.3154,0.23188-0.0197,0.46704-0.0302,0.70434-0.0302,4.4647,0,8.086,3.6215,8.086,8.086,0,0.31523-0.0197,0.62505-0.0547,0.93099,1.0689-0.52081,2.2706-0.81244,3.5397-0.81244,3.7312,0,6.8717,2.5277,7.8033,5.9648,1.48-1.8879,3.7841-3.0999,6.3685-3.0999,3.1005,0,5.7922,1.7454,7.149,4.3082,1.3569-2.5629,4.0518-4.3082,7.1525-4.3082,2.9247,0,5.4852,1.553,6.9057,3.8795,1.3157-2.6833,4.0764-4.5302,7.2658-4.5302,3.0738,0,5.7469,1.7158,7.1146,4.2425,1.3454-2.5979,4.0601-4.373,7.1869-4.373,3.5169,0,6.5083,2.2461,7.6213,5.3824,1.4779-1.927,3.805-3.1688,6.4205-3.1688,4.4645,0,8.086,3.6215,8.086,8.086l-0.001,0.0818c1.2101-0.72194,2.6249-1.1354,4.1357-1.1354,4.4645,0,8.086,3.6215,8.086,8.086,0,1.3102-0.31408,2.5458-0.86718,3.6401,0.10636-0.004,0.21486-0.006,0.32219-0.006,4.4647,0,8.086,3.6215,8.086,8.086,0,2.5261-1.1609,4.7803-2.9761,6.2633,3.0409,1.1621,5.2031,4.1088,5.2031,7.5569,0,4.1088-3.069,7.5018-7.0374,8.017,0.90798,1.307,1.4419,2.8957,1.4419,4.6072,0,4.4645-3.6215,8.086-8.086,8.086-0.26707,0-0.53183-0.0135-0.79272-0.0395,1.1774-1.717,1.8676-3.7942,1.8676-6.0331,0-2.2683-0.70879-4.3692-1.9142-6.0998,2.4252-1.9602,3.9789-4.9596,3.9789-8.3194,0-3.9182-2.1119-7.3428-5.2568-9.2038,0.7204-1.4385,1.1283-3.0628,1.1283-4.7803,0-5.9026-4.7875-10.69-10.69-10.69v2.604c4.4647,0,8.086,3.6213,8.086,8.086,0,2.3809-1.0312,4.5227-2.6692,6.0022,3.8518,0.61789,6.7978,3.9565,6.7978,7.982,0,3.6114-2.371,6.6727-5.64,7.7098,2.1562,1.4528,3.5755,3.9153,3.5755,6.7094,0,4.7854-4.2065,8.5264-8.9226,8.0438" fill-rule="evenodd" fill="#FFF"/>
 <path d="m73.818,77.988c1.757-1.2499,3.906-1.9846,6.2259-1.9846,5.9399,0,10.757,4.8171,10.757,10.756,0,5.9397-4.8171,10.757-10.757,10.757-4.4334,0-8.5964-2.888-10.244-6.9632-1.0437-2.5816-1.2045-5.55-0.47575-8.2572,1.2323-4.5834,4.9408-7.8485,9.8604-8.2593,0.82734-0.06904,3.2519,0.16245,3.349-1.0124,0.0116-0.13654-0.02417-0.28448-0.10579-0.43088l-0.0012,0.000581c-0.24774-0.44307-0.85229-0.85152-1.5956-1.0023-0.74329-0.15075-1.2657-0.2341-1.7948-0.29618-5.4288-0.62698-10.201,0.86621-14.084,4.4635-1.5584,1.4441-2.5091,2.0361-0.51133,3.5995,0.39897,0.31194,0.86834,0.5796,1.4259,0.78789l-0.17173,0.42102c-1.3934-0.44577-2.3902-1.2072-3.1566-2.1188-1.6812,1.8051-2.8375,3.2262-0.05628,4.3533,0.49161,0.19958,1.0426,0.32896,1.668,0.36668l-0.041,0.45293c-1.5586-0.02031-2.7909-0.5154-3.8315-1.2335-1.7508,2.2316-1.5234,3.1428,1.0938,4.0528,0.85016,0.29551,1.7968,0.38002,2.8862,0.11836l0.09322,0.44461c-2.0411,0.59546-3.759,0.16883-5.2951-0.57283-0.9397,2.651-0.67765,3.3407,2.1511,3.8746,1.1611,0.21989,2.3722,0.11584,3.6445-0.63356l0.21931,0.398c-2.166,1.4203-4.3166,1.2532-6.3224,0.78711-0.40187,3.1285,0.05415,3.6625,3.1659,3.6681,1.4642,0.0039,2.8852-0.37557,4.111-1.7127l0.32606,0.31639c-1.9131,2.3014-4.4283,2.5716-6.768,2.6483,0.47208,3.2624,1.1062,3.6598,4.3127,2.9887,1.7423-0.36493,3.3544-1.0925,4.2924-3.0595l0.40458,0.20732c-1.3162,3.1396-4.1433,3.9936-6.6013,4.8143,1.4319,3.1011,2.2026,3.2854,5.1915,1.7618,1.7257-0.87975,3.2558-2.054,3.6043-4.3889l0.44732,0.08007c-0.35836,3.5645-3.0572,5.1986-5.2331,6.7692,2.3606,2.616,2.9959,2.5673,5.4179,0.31253,1.4994-1.3975,2.7679-3.0108,2.3994-5.476l0.45119-0.05434c0.71749,3.606-1.5164,5.9902-3.1527,8.1738,2.3451,1.8189,3.1506,1.7421,4.6202-0.64651,1.2242-1.9871,2.3606-4.1191,1.1321-6.6847l0.41502-0.18527c1.8162,3.367,0.19011,6.4062-0.71885,9.0481,2.5882,1.2027,3.1862,0.89561,4.099-1.664,0.78402-2.1987,1.4534-4.521-0.28236-6.7752l0.36726-0.26746c2.4768,2.9152,1.5181,6.2265,1.1782,8.9992,2.723,0.72097,3.3036,0.21873,3.6642-2.4774,0.30924-2.3144,0.48174-4.7254-1.6864-6.5696l0.30537-0.33824c3.0295,2.337,2.7783,5.7774,3.0224,8.5602,2.7009-0.0538,3.2744-0.47536,3.0682-3.1868-0.17754-2.3287-0.50979-4.7233-3.0144-6.0768l0.22859-0.39414c3.4482,1.6556,3.9189,5.0714,4.7358,7.7423,2.6582-0.6556,3.0995-1.1907,2.2981-3.895-0.65174-2.1935-1.4976-4.3889-4.1713-5.175l0.14137-0.4332c3.7153,0.90238,4.8873,4.1417,6.2402,6.5835,2.4675-1.1223,2.7998-1.7665,1.5071-4.1582-1.1085-2.0531-2.3874-4.1017-5.2234-4.3193l0.04835-0.45293c3.8215,0.11023,5.6415,3.0338,7.4726,5.1416,2.1987-1.6587,2.3511-2.3436,0.51849-4.4881-1.4878-1.7388-3.1533-3.3999-5.9161-3.0311l-0.04661-0.45274c3.7629-0.68694,6.1524,1.797,8.3825,3.4784,1.9204-1.9243,1.8108-2.7843-0.42798-4.4991-1.8179-1.3919-3.793-2.6719-6.4195-1.7363l-0.13924-0.43301c3.5381-1.4549,6.3921,0.47865,8.923,1.6595,1.4166-2.5383,1.1901-3.1024-1.3563-4.3129-2.0666-0.98341-4.2649-1.8233-6.6386-0.36281l-0.212-0.382c3.1566-2.1571,6.3493-0.86176,9.0696-0.23304,0.88362-2.7009,0.52352-3.2815-2.2204-3.9362-2.2262-0.53164-4.5506-0.89619-6.5684,1.0263l-0.30382-0.33941c2.6402-2.7667,6.0335-2.1625,8.8255-2.1132,0.21814-2.8709-0.21989-3.3167-2.9905-3.3863-2.2892-0.05763-4.6389,0.06633-6.2139,2.3671l-0.36726-0.26862c2.0076-3.2564,5.4529-3.3676,8.1945-3.9004-0.27675-2.8502-0.85887-3.2065-3.6318-2.6928-2.2503,0.4187-4.5233,1.03-5.5846,3.6078l-0.41541-0.18643c1.2861-3.6006,4.6312-4.4274,7.2012-5.5177-0.78731-2.7033-1.5087-2.9576-4.1127-1.8777-2.1128,0.87782-4.2063,1.9479-4.7086,4.6879l-0.445-0.09612c0.50921-3.7886,3.6072-5.2928,5.8948-6.893-1.3963-2.5261-2.1113-2.5679-4.4127-0.9836-1.884,1.2971-3.7085,2.7806-3.6302,5.5649l-0.45486-0.0012c-0.28951-3.8122,2.4279-5.9277,4.333-7.9692-1.8403-2.0904-2.5437-2.1188-4.4196-0.15143-1.6102,1.6903-3.1643,3.5405-2.495,6.306l-0.44558,0.09322c-1.0762-3.6706,1.1447-6.306,2.5836-8.7-2.3143-1.7098-2.9585-1.5085-4.4305,0.89696-1.194,1.9533-2.2602,4.0512-1.0554,6.5653l-0.41657,0.18353c-1.8152-3.3654-0.19243-6.4052,0.71749-9.0452-2.4959-1.1814-3.1713-0.92926-4.0522,1.5294-0.80316,2.2378-1.5328,4.6088,0.23904,6.9084l-0.36958,0.2665c-2.4751-2.9143-1.5207-6.2248-1.1797-8.9959-2.8359-0.5504-3.3177-0.1816-3.6822,2.617-0.29667,2.2706-0.4156,4.6213,1.7065,6.4276l-0.30382,0.33786c-3.0293-2.3376-2.7831-5.7765-3.027-8.5602-1.8717-0.27249-3.2662,0.44171-3.0755,3.0446,0.17599,2.3728,0.47034,4.8379,3.0245,6.2188l-0.22646,0.39433c-3.4488-1.6562-3.9201-5.0716-4.7376-7.7429-0.802-0.05763-1.3721,0.25876-1.7082,0.94898,0.55659,3.0452,1.4456,5.9917,2.6671,8.8387,2.8764-1.0383,6.2047-1.3607,9.2021-1.0138,0.54498,0.06363,1.1064,0.15356,2.0949,0.35497,0.98853,0.20142,1.9106,0.87675,2.2317,1.4513,0.32103,0.57456,0.41522,0.98958,0.38118,1.3942-0.17367,2.1221-2.856,2.1428-4.4415,2.253-1.9171,0.13383-4.1319,1.1441-5.7676,2.4033l0.12822,0.19417z" fill-rule="evenodd" fill="#ffcd50"/>
 <path d="m89.328,88.131c-0.6908,4.5382-4.6751,8.0208-9.4866,8.0208-4.8006,0-8.7789-3.4668-9.4829-7.9895-0.41986-2.7009-0.12783-5.6131,1.2745-7.9725,2.3832-4.0151,9.1019-6.2101,13.376-7.0769,4.4821-0.90934,10.552-1.0635,12.873-0.85674,2.758,0.23246,4.3527,0.398,4.6471,1.2631,0.36668,1.2735-3.0748,6.4079-4.0802,7.824-2.4325,3.4279-5.3543,5.908-9.1216,6.7877" fill-rule="evenodd" fill="#FFF"/>
 <path d="m103.15,75.653c1.8326-3.6992-1.603-4.0754-6.1542-4.3982-4.7442-0.33612-10.186-0.62118-14.871,0.97084,0.13093,0.11778,0.23014,0.24116,0.30189,0.369l0.0012-0.000581c0.08161,0.1464,0.11739,0.29435,0.10579,0.43088-0.09708,1.1749-2.5217,0.94338-3.349,1.0124-0.30208,0.02533-0.59856,0.0615-0.89135,0.10811-1.797,1.3327-3.8023,3.1883-5.7496,2.735,0.05879,0.59817,1.8295,1.8167,3.3896,1.2849,1.3688-0.48174,3.5376-2.2745,4.9464-2.9701,3.496-1.7148,12.917-2.0382,15.884-1.7986,2.6166,0.19958,4.129,0.34153,4.408,1.0844,0.34811,1.0942-2.9164,5.5034-3.8702,6.7193-2.882,3.6756-6.4853,6.0867-11.474,6.13-3.2086,0.02804-4.9635-1.0389-7.0775-3.2848,0.15742,1.0838,0.25663,1.9088,0.38776,2.0436,2.2629,2.0707,4.4573,2.7768,6.6771,3.1281,8.7756,1.3897,14.057-6.9485,17.335-13.564zm-23.178,2.694c4.5945-2.0844,9.9049-1.6622,14.764-1.2039,0,0-5.7546,0.80201-9.1709,1.5388-1.523,0.34482-7.2627,1.7071-4.047,4.4958,0,0-1.5541-0.33728-2.4159-1.1169-1.2039-1.0913-0.50708-3.0864,0.87008-3.7139" fill-rule="evenodd" fill="#003d8f"/>
 <path d="m58.214,73.384c0.58714,1.8069-0.74669,3.8598-2.9773,4.5846-2.2312,0.72523-4.5167-0.15181-5.1039-1.9587-0.58695-1.8075,0.74612-3.8605,2.9773-4.5852,2.2312-0.72484,4.5167,0.15181,5.1039,1.9593z" fill-rule="evenodd" fill="#003d8f"/>
 <path d="m53.677,73.021c0.25604,0.7876-0.17521,1.634-0.96344,1.8901-0.78696,0.25562-1.6334-0.17563-1.8888-0.96323-0.25625-0.78696,0.175-1.6334,0.96217-1.8894,0.78738-0.25562,1.6344,0.17563,1.8901,0.96259z" fill-rule="evenodd" fill="#FFF"/>
 <path d="m60.461,72.77-2.224,0.72252c-0.73354-0.95111-2.1451-1.5986-3.5731-1.5618-2.1424,0.05647-4.0348,1.8678-4.0984,4.0551l-5.3851,1.7492-0.24232-0.74225,4.0046-2.5942c0.65348-2.4598,3.1111-4.1081,5.5727-4.3247,2.4696-0.21718,5.1706,1.1151,5.9457,2.6961z" fill-rule="evenodd" fill="#003d8f"/>
 <rect height="39" width="51" y="61.051" x="129.04" fill="#ffcd50"/>
 <rect height="25" width="37" y="68.051" x="136.04" fill="#d40000"/>
</svg>
