<?xml version="1.0" encoding="UTF-8" standalone="no"?>
<!-- Created with Inkscape (http://www.inkscape.org/) -->
<svg
   xmlns:dc="http://purl.org/dc/elements/1.1/"
   xmlns:cc="http://web.resource.org/cc/"
   xmlns:rdf="http://www.w3.org/1999/02/22-rdf-syntax-ns#"
   xmlns:svg="http://www.w3.org/2000/svg"
   xmlns="http://www.w3.org/2000/svg"
   version="1.0"
   width="251"
   height="304.20001"
   id="svg4166">
  <defs
     id="defs4168" />
  <metadata
     id="metadata1880"><rdf:RDF><cc:Work
         rdf:about=""><dc:title>Karlshamn kommunvapen</dc:title><dc:date>04-10-2007</dc:date><dc:creator><cc:Agent><dc:title>Lokal_Profil</dc:title></cc:Agent></dc:creator><cc:license
         rdf:resource="http://creativecommons.org/licenses/by-sa/2.5/" /><dc:rights><cc:Agent><dc:title>cc-by-sa-2.5</dc:title></cc:Agent></dc:rights><dc:format>image/svg+xml</dc:format><dc:type
         rdf:resource="http://purl.org/dc/dcmitype/StillImage" /></cc:Work><cc:License
         rdf:about="http://creativecommons.org/licenses/by-sa/2.5/"><cc:permits
         rdf:resource="http://web.resource.org/cc/Reproduction" /><cc:permits
         rdf:resource="http://web.resource.org/cc/Distribution" /><cc:requires
         rdf:resource="http://web.resource.org/cc/Notice" /><cc:requires
         rdf:resource="http://web.resource.org/cc/Attribution" /><cc:permits
         rdf:resource="http://web.resource.org/cc/DerivativeWorks" /><cc:requires
         rdf:resource="http://web.resource.org/cc/ShareAlike" /></cc:License></rdf:RDF>
  </metadata>
  <path
     d="M 249.55058,1.4395041 L 125.50008,1.4395041 L 1.4495291,1.4395041 L 1.4495291,174.9361 C 0.68228908,268.65698 81.738969,302.75585 125.50006,302.75585 C 168.49391,302.75585 250.31781,268.65698 249.55058,174.9361 L 249.55058,1.4395041 z "
     style="fill:#ffcd50"
     id="Shield" />
  <g
     transform="matrix(0.958358,0,0,0.958358,6.779173,-10.04061)"
     style="fill:#000000;stroke:#ffcd50;stroke-width:1"
     id="Lion-with-anchor">
    <g
       transform="matrix(0.362501,1.899785e-2,-1.899785e-2,0.362501,268.8598,14.41703)"
       id="Tass">
      <g
         style="fill:#d40000"
         id="g3099">
        <path
           d="M -532.96553,98.172985 C -533.20015,98.084072 -533.36127,98.071747 -533.43479,97.995166 C -543.0036,96.269865 -549.89469,97.800784 -554.26917,102.57559 C -556.90553,106.20598 -557.31735,109.50976 -555.41707,112.42266 C -551.12717,108.49295 -546.81408,106.76487 -542.63893,107.22611 C -538.87365,107.72697 -536.37718,109.55005 -535.3107,112.68302 C -535.22309,112.61876 -534.97436,112.56682 -534.72562,112.51489 C -530.96837,114.71824 -526.70561,115.11521 -521.77619,113.71812 C -519.7642,111.45926 -519.46513,109.28226 -520.80553,107.26375 C -521.33724,106.08766 -521.95659,104.97585 -522.75115,103.99257 C -524.91427,101.27245 -528.37747,99.375429 -532.96553,98.172985 z "
           style="stroke-width:0.53464818"
           id="path3437" />
        <path
           d="M -568.0318,137.07565 C -572.1636,140.23685 -575.3397,144.39366 -577.22379,149.42989 C -577.83906,153.1439 -577.06358,156.75136 -574.91151,160.39315 C -572.83508,155.86838 -569.78885,152.19837 -565.61174,149.39545 C -560.58065,147.79325 -556.51024,147.67878 -553.25348,149.20518 C -553.09235,149.21751 -552.85772,149.30641 -552.78422,149.38301 C -549.89806,149.74565 -547.61716,148.85566 -545.86796,146.78955 L -545.94148,146.71297 C -546.73407,142.46552 -549.4994,139.27357 -554.38452,136.98396 L -554.31103,137.06054 C -554.54565,136.97164 -554.61917,136.89504 -554.76619,136.74187 C -558.9474,134.71898 -563.34007,134.80882 -568.0318,137.07565 z "
           style="stroke-width:0.53464818"
           id="path3439" />
        <path
           d="M -552.06576,183.5713 L -551.9751,184.28784 C -554.15128,185.75358 -555.5923,187.98516 -556.43114,190.68858 C -557.67874,197.47658 -557.12884,203.33763 -554.78139,208.27171 C -552.28192,210.87561 -550.02009,212.6098 -547.83484,213.48656 C -544.22765,214.75592 -540.78762,214.45128 -537.74946,212.48381 C -542.75646,208.97847 -544.80984,204.35075 -544.15836,198.65255 C -541.9772,194.70348 -539.61171,192.9684 -536.84134,193.67699 C -534.02477,187.43474 -535.28664,183.00949 -540.78807,180.38887 C -543.89478,179.79647 -547.08301,180.82998 -550.44041,183.55367 C -551.28832,183.9146 -551.85931,183.94188 -552.06576,183.5713 z "
           style="stroke-width:0.53464818"
           id="path3441" />
      </g>
      <path
         d="M -552.26688,132.71444 C -554.01343,134.04448 -554.72467,135.42266 -554.37874,136.83289 C -554.37874,136.83289 -554.28138,136.92461 -554.369,136.98887 C -549.48387,139.2785 -546.72223,142.45685 -545.92964,146.7043 L -545.86073,146.7761 C -547.60991,148.84219 -549.90635,149.73543 -552.79252,149.37278 C -552.86604,149.2962 -553.07134,149.2184 -553.23246,149.20608 C -555.60099,150.16035 -556.52297,151.71756 -555.98821,153.67448 C -554.94688,157.86997 -553.32438,161.12532 -550.88433,163.51178 C -548.89142,163.8771 -547.10986,164.02222 -545.38279,163.79948 C -543.01125,163.62605 -540.88453,162.8573 -538.9712,161.58437 C -536.48884,163.54829 -535.96887,166.41329 -537.34441,170.42396 C -539.863,170.44423 -542.73591,171.36879 -545.80532,172.83716 C -548.92807,175.64976 -550.86916,178.26445 -551.86911,180.95553 C -552.24474,182.27513 -552.42325,183.19729 -552.05569,183.58021 C -551.84924,183.95081 -551.30211,183.90839 -550.45418,183.54746 C -547.0968,180.82379 -543.90857,179.79027 -540.80187,180.38268 C -535.30043,183.00328 -534.03944,187.43736 -536.85603,193.67961 C -536.09768,196.64709 -534.29823,198.33704 -531.58731,198.82821 C -527.98616,198.53593 -525.30263,197.62791 -523.50813,195.92012 C -523.24636,191.68235 -524.00451,188.05402 -525.49495,185.10149 C -521.60781,186.81805 -519.25535,189.2688 -518.51111,192.37713 C -513.09835,191.01702 -510.05917,188.12707 -509.38755,183.84965 C -509.46,187.81807 -508.53495,191.29949 -506.4,194.30129 C -506.03544,193.90342 -505.66173,193.51506 -505.22367,193.19375 C -500.49571,188.94272 -495.92295,187.15468 -491.42556,187.64056 L -491.00229,188.22735 L -502.09145,196.1166 C -498.75512,199.28126 -494.56196,200.37367 -489.42615,199.34719 C -491.04634,208.2356 -488.51229,215.25962 -481.62517,220.25703 C -482.08945,217.59588 -481.19178,214.9635 -479.01863,212.71697 C -478.82932,212.44758 -478.54635,212.25632 -478.44463,212.05121 C -478.2694,211.9227 -478.09965,211.79818 -477.92445,211.66966 C -477.92445,211.66966 -477.82041,211.59335 -477.73281,211.52907 C -473.35528,207.53512 -465.15629,204.13941 -453.34992,201.35227 L -453.17148,201.34373 L -453.28101,201.42407 C -456.3433,208.49909 -463.11763,213.2234 -473.82737,215.59769 C -463.63617,219.21562 -454.11431,216.39124 -445.15894,207.21225 L -444.70921,207.53494 C -449.22465,213.71822 -451.65897,220.34895 -451.80695,227.50492 C -451.82105,227.64577 -451.85988,227.7803 -451.87396,227.92115 L -451.72291,227.93269 C -451.54768,227.80418 -451.52352,227.6641 -451.43591,227.59983 L -451.35378,227.5396 C -445.97936,220.07368 -438.13455,214.08294 -427.91728,209.32919 C -436.45176,217.54691 -441.00512,223.85591 -441.61736,228.35076 C -442.04632,231.01455 -441.00719,233.00116 -438.46844,234.40169 C -432.87954,225.60388 -422.92587,224.58766 -408.26153,222.44486 C -403.79956,221.46917 -399.62231,224.17442 -395.14648,225.09674 L -373.90608,184.02223 C -349.35362,173.03791 -389.00117,169.10121 -397.96821,163.05419 C -403.02554,161.67392 -408.26445,160.435 -413.33584,159.19557 C -434.10491,154.20096 -455.5843,149.86606 -477.88498,146.38643 C -487.64313,144.93052 -497.73716,144.65085 -508.21831,145.55238 C -508.37943,145.54006 -508.5607,145.5262 -508.72182,145.51387 C -512.29672,148.78862 -517.22758,150.04812 -523.48327,149.28584 C -527.73496,147.9672 -531.53215,146.31517 -534.95308,143.99561 C -536.17157,143.19278 -537.40654,142.40202 -538.52334,141.39408 C -540.53444,136.34381 -544.47007,132.98251 -550.15781,131.41213 C -550.97246,131.84655 -551.6847,132.27108 -552.26688,132.71444 z "
         id="path3435" />
      <path
         d="M -512.56906,105.26802 C -513.80774,103.04439 -516.02424,101.66851 -519.13092,101.07609 L -522.75115,103.99257 C -521.95659,104.97585 -521.33724,106.08766 -520.80553,107.26375 C -519.46513,109.28226 -519.7642,111.45926 -521.77619,113.71812 C -526.70561,115.11521 -530.96837,114.71824 -534.72562,112.51489 C -534.97436,112.56682 -535.22309,112.61876 -535.3107,112.68302 C -539.81614,113.89964 -541.63884,115.88915 -540.93993,118.63921 C -539.72338,122.70619 -536.60457,126.42192 -531.61167,130.06808 C -530.03559,136.22049 -531.07176,140.89579 -534.8672,143.94079 L -534.95483,144.00505 C -531.53392,146.32462 -527.72028,147.96459 -523.4686,149.28323 C -517.21293,150.04552 -512.29761,148.78927 -508.7227,145.51452 C -508.56158,145.52684 -508.40046,145.53917 -508.23933,145.55149 L -508.44879,144.40005 C -509.09846,135.47996 -510.65544,126.70337 -513.11973,118.07026 C -514.12984,114.37388 -514.02918,110.12377 -512.56906,105.26802 z "
         id="path3423" />
    </g>
    <path
       d="M 72.77865,130.34598 C 72.871284,123.56728 73.051075,116.77941 73.27865,110.00223 C 73.27865,110.00223 73.301301,48.408189 73.27865,45.12723 L 53.0599,45.15848 C 52.163645,45.141099 52.297747,39.614556 53.21615,39.09598 C 53.790467,38.771693 56.080308,38.709733 63.84115,38.78348 L 73.5599,38.87723 L 73.5599,34.78348 C 70.294503,33.315267 67.9974,30.062655 67.9974,26.25223 C 67.9974,21.073788 72.19396,16.87723 77.3724,16.87723 C 82.550844,16.87723 86.77865,21.073788 86.77865,26.25223 C 86.778652,30.125798 84.4124,33.446161 81.0599,34.87723 L 81.0599,38.62723 C 87.972296,39.262094 95.399577,38.671101 102.34115,39.00223 L 102.40365,42.68973 C 102.4999,45.564912 103.12089,45.419656 91.4974,45.34598 C 85.895,45.310468 81.237219,45.347746 81.15365,45.43973 C 81.070096,45.531728 80.862034,105.43002 80.71615,111.25223 C 80.570284,117.07444 80.365421,125.57612 80.21615,130.15848 C 80.21615,130.15848 80.211162,145.27445 80.211162,145.27445 C 80.540944,146.20566 82.605384,146.95976 84.798081,146.95976 C 89.444788,146.95976 99.222274,143.77804 106.51574,139.88969 C 110.78609,137.61306 111.86935,136.48595 111.13386,135.03929 C 110.61152,134.01176 109.74383,133.81345 108.38795,134.46382 C 107.14499,135.06005 106.85921,134.29987 107.51425,132.20304 C 108.19236,130.03231 110.38103,127.86665 114.03579,125.74955 C 117.08807,123.98144 118.6742,122.6636 119.80844,121.02246 C 120.46074,120.0786 120.73012,119.99866 121.49343,120.36478 C 122.70239,120.94467 124.33593,124.2752 125.30026,128.17475 C 125.91053,130.64257 126.01653,132.19569 125.76832,135.03929 C 125.44373,138.75796 124.79474,140.38175 123.11602,142.02715 L 122.21111,142.97257 L 120.74455,141.53389 C 118.42975,139.26892 116.23106,139.66203 111.82034,143.09588 C 107.91347,146.13747 106.29961,147.15012 102.80252,148.80949 C 98.339831,150.92706 90.949322,153.86542 90.071478,153.86541 C 89.658485,153.86541 87.483784,154.65243 85.23493,155.63293 C 81.233556,157.37752 78.590993,159.21067 77.059606,161.30543 C 76.323982,162.31161 76.238524,162.35208 75.15619,161.71648 C 74.53746,161.35314 73.42257,160.53548 72.691111,159.94896 C 70.765688,158.405 65.922281,156.16593 61.769876,154.89304 C 59.787809,154.28546 57.551794,153.41874 56.808515,153.00221 C 56.065237,152.58566 54.647995,151.94439 53.656958,151.52242 C 51.055308,150.41466 45.092676,146.2871 41.955634,143.46583 C 37.991915,139.90113 34.36497,139.16054 33.78031,141.78052 C 33.448496,143.26746 32.645073,143.25554 31.22162,141.73942 C 28.525079,138.86722 27.082292,131.53315 28.226081,126.57165 C 28.795051,124.10362 30.628629,120.35004 31.533655,119.83042 C 31.82452,119.66343 33.068215,120.48322 34.497991,121.72125 C 35.860672,122.90117 38.096677,124.44788 39.459352,125.17408 C 45.065823,128.16192 47.925825,131.15462 47.073013,133.18956 C 46.83074,133.76764 46.426712,134.06129 46.043297,133.92945 C 45.696533,133.8102 45.063423,134.04364 44.639138,134.46382 C 43.788114,135.30664 43.960865,136.717 45.138394,138.3277 C 46.619593,140.35375 55.43365,144.19158 62.518761,145.93213 C 69.331557,147.6058 71.557805,147.18248 72.347873,144.0413 C 72.347873,144.0413 72.77865,130.34598 72.77865,130.34598 z M 77.3724,21.68973 C 79.887639,21.68973 81.9349,23.736988 81.9349,26.25223 C 81.9349,28.767472 79.887642,30.81473 77.3724,30.81473 C 74.857156,30.814731 72.84115,28.767472 72.84115,26.25223 C 72.841153,23.736988 74.857158,21.68973 77.3724,21.68973 z "
       style="fill-rule:evenodd"
       id="Anchor" />
    <g
       transform="matrix(0.362998,0,0,0.362998,266.9859,10.19993)"
       id="lion">
      <path
         d="M -402.8896,381.5689 C -411.7896,381.4679 -417.1896,384.9679 -419.0896,392.1689 C -420.0896,397.5689 -419.6896,401.6689 -418.0896,404.4689 C -417.4896,405.3689 -416.8896,406.1689 -416.0896,406.8689 C -414.3896,408.1689 -412.0896,408.8689 -409.2896,408.9689 C -405.0896,409.0699 -399.5896,407.9689 -392.7896,405.4689 C -397.6896,409.5699 -402.3896,412.2689 -406.8896,413.4689 C -407.6896,413.6689 -408.3896,413.7689 -409.1896,413.9689 C -413.2896,414.5699 -417.2896,414.0699 -421.1896,412.2689 C -422.9896,411.4689 -424.8896,410.3699 -426.5896,408.9689 C -427.2896,408.4689 -427.8896,407.8689 -428.5896,407.3689 C -428.1896,408.0689 -427.8896,408.7679 -427.5896,409.4689 C -421.9896,420.2689 -415.5896,423.8689 -408.1896,420.1689 C -408.1896,420.0689 -408.1896,420.0689 -408.0896,419.9689 C -407.3896,419.5699 -406.6896,419.1689 -405.9896,418.8689 C -405.6896,418.6689 -405.3896,418.5689 -405.0896,418.4689 C -401.2896,416.7689 -397.4896,416.1689 -393.6896,416.6689 C -397.4896,416.1689 -401.2896,416.7689 -405.0896,418.4689 C -405.3896,418.5699 -405.6896,418.6689 -405.9896,418.8689 C -406.6896,419.1689 -407.3896,419.5689 -408.0896,419.9689 C -408.1896,420.0689 -408.1896,420.0689 -408.1896,420.1689 C -410.7896,428.4689 -418.4896,433.8689 -431.3896,436.1689 C -417.9896,441.2689 -408.0896,438.4689 -401.4896,427.5689 L -400.7896,428.0689 C -401.4896,431.4679 -402.4896,434.6689 -403.7896,437.6689 C -407.4896,446.2689 -413.7896,453.3689 -422.6896,459.1689 C -415.6896,460.2689 -409.9896,459.4689 -405.3896,456.8689 C -400.5896,454.1689 -397.0896,449.3689 -394.7896,442.6689 C -395.0896,451.0689 -397.6896,457.9689 -402.3896,463.3689 C -401.2896,465.0689 -400.0896,466.7679 -398.5896,468.2679 C -397.1896,469.7679 -395.5896,471.1679 -393.7896,472.4679 C -390.1896,474.9679 -385.8896,476.9679 -380.8896,478.3679 C -387.1896,478.9679 -391.5896,478.3679 -394.1896,476.6679 C -394.7896,476.2679 -395.3896,475.8679 -395.8896,475.5679 C -395.8896,475.5679 -395.8896,475.5679 -395.9896,475.4669 C -396.6896,474.9669 -397.1896,474.6669 -397.3896,474.4669 C -399.4896,473.7669 -400.8896,473.2669 -401.4896,473.0679 C -402.0896,472.8679 -402.7896,472.7669 -403.6896,472.6679 C -406.4896,472.5679 -410.5896,473.1679 -416.1896,474.3679 C -423.2896,477.5679 -431.9896,479.5679 -441.9896,480.2669 C -444.2896,480.1669 -446.2896,479.6669 -448.2896,478.7669 C -450.1896,477.7669 -451.9896,476.3679 -453.5896,474.6669 C -453.9896,468.6669 -455.6896,462.2669 -458.5896,455.1669 C -460.1896,453.9669 -462.6896,453.5669 -465.8896,453.8669 C -467.3896,453.5669 -468.3896,454.0669 -468.6896,455.3669 C -468.7896,455.4669 -468.7896,455.5669 -468.7896,455.6669 C -468.7896,455.7669 -468.7896,455.7669 -468.7896,455.8669 C -462.9896,464.5669 -463.9896,468.5669 -471.8896,467.8669 C -473.8896,467.8669 -476.9896,468.4669 -481.2896,469.5669 C -485.6896,471.7659 -486.8896,474.1669 -485.0896,476.9659 L -484.5896,477.3659 C -484.3896,477.7649 -484.1896,478.0659 -483.8896,478.4659 C -483.8896,478.4659 -483.7896,478.5669 -483.7896,478.6659 C -481.7896,481.3659 -478.9896,483.4659 -475.3896,484.7659 C -469.8896,486.7659 -462.6896,487.2659 -453.6896,486.2659 C -458.6896,490.2659 -466.4896,491.1659 -477.0896,488.7659 C -480.3896,487.7659 -484.1896,485.8669 -488.4896,483.3669 L -491.0896,485.8669 C -486.6896,490.5669 -484.2896,495.1669 -483.7896,499.6669 C -484.3896,502.7669 -486.2896,505.4669 -489.4896,508.0669 C -489.5896,508.1669 -489.6896,508.3669 -489.6896,508.5669 C -490.6896,511.3669 -489.9896,513.3669 -487.5896,514.6669 L -480.7896,514.3669 C -476.8896,512.0669 -474.7896,509.0669 -474.7896,505.0669 C -474.5896,508.9659 -473.6896,511.1669 -472.0896,511.7659 C -468.6896,512.2659 -465.5896,512.0669 -462.6896,511.0669 C -460.0896,509.8669 -457.5896,509.5669 -454.9896,510.2659 C -451.1896,508.3669 -448.7896,505.9659 -447.8896,503.0669 C -448.7896,505.9659 -451.1896,508.3669 -454.9896,510.2659 C -457.5896,509.5669 -460.0896,509.8669 -462.6896,511.0669 C -463.4896,511.3669 -464.2896,511.8669 -465.0896,512.3669 L -471.9896,518.1669 L -469.3896,521.2669 C -469.3896,521.3679 -469.2896,521.4669 -469.2896,521.4669 C -463.1896,522.8669 -458.7896,525.8669 -455.8896,530.3669 C -454.9896,532.3669 -455.2896,533.7659 -456.5896,534.4669 C -456.5896,534.5679 -456.5896,534.5679 -456.6896,534.6669 C -457.0896,536.4669 -455.9896,537.7669 -453.2896,538.1669 C -450.1896,539.4669 -447.6896,539.5669 -445.6896,538.2669 C -440.9896,535.3679 -438.4896,531.1669 -437.8896,525.6669 C -440.2896,522.1669 -438.7896,517.6669 -433.4896,512.0669 C -438.7896,517.6669 -440.2896,522.1669 -437.8896,525.6669 C -436.8896,527.1669 -435.1896,529.8669 -432.7896,533.5669 C -428.9896,526.8669 -425.3896,522.4659 -422.0896,520.5669 C -425.3896,525.2659 -426.6896,530.0669 -425.8896,534.7659 C -425.8896,534.8669 -425.8896,534.9659 -425.7896,534.9659 L -425.7896,534.7659 C -419.4896,528.1659 -411.7896,524.4659 -402.6896,523.7659 C -405.5896,531.9659 -412.6896,537.4659 -423.8896,540.3669 C -423.9896,540.3669 -424.0896,540.3669 -424.0896,540.4669 C -421.8896,546.5679 -415.9896,548.6669 -406.5896,546.7669 C -399.7896,544.1669 -395.2896,539.8679 -392.8896,533.9669 L -392.2896,534.0679 C -391.6896,530.4669 -389.6896,527.2669 -386.3896,524.7669 C -389.6896,527.2669 -391.6896,530.4669 -392.2896,534.0679 C -392.3896,534.5679 -392.3896,535.0679 -392.3896,535.4669 C -393.5896,549.3669 -385.6896,555.9669 -368.8896,555.4669 C -368.6896,555.3669 -368.3896,555.3669 -368.1896,555.3669 C -368.2896,555.3669 -368.4896,555.2659 -368.5896,555.2659 C -368.6896,555.1659 -368.7896,555.1659 -368.7896,555.0669 C -375.0896,552.1669 -378.0896,547.2659 -377.7896,540.5669 L -377.6896,540.2659 C -377.8896,536.5669 -375.5896,532.2659 -370.6896,527.2659 C -365.4896,534.2659 -362.5896,541.7659 -361.8896,549.6659 C -355.9896,540.5659 -353.5896,530.5659 -354.9896,519.4659 C -354.8896,519.7659 -354.7896,520.0669 -354.6896,520.3659 C -354.6896,520.5659 -354.5896,520.7649 -354.5896,520.9659 C -354.0896,522.6659 -353.5896,524.3659 -352.8896,525.8659 C -348.0896,537.2649 -338.3896,542.9659 -323.9896,542.9659 C -332.4896,537.2659 -338.4896,529.8659 -341.9896,520.6659 C -342.8896,519.6659 -343.6896,518.6659 -344.4896,517.5659 C -343.6896,518.6659 -342.8896,519.6659 -341.9896,520.6659 C -336.7896,526.1659 -330.0896,529.1659 -321.6896,529.3659 C -319.4896,529.2649 -317.4896,528.8659 -315.5896,528.1659 C -312.1896,526.7659 -309.3896,524.3659 -307.3896,520.8659 L -307.5896,520.5659 L -307.0896,519.9649 C -307.6896,520.2649 -308.2886,520.6649 -308.8896,520.9649 C -312.2896,522.9649 -315.1896,523.8649 -317.6896,523.7649 C -326.2896,522.4649 -331.1896,516.9649 -332.2896,507.2649 C -331.5896,499.6649 -328.1896,493.1649 -321.8896,488.0659 C -320.5896,486.8659 -319.1896,485.8659 -317.5896,484.8659 L -317.5896,484.6659 L -317.4896,484.4659 C -316.8896,478.8659 -315.3896,472.6659 -313.0896,465.9659 C -299.86021,447.42861 -297.35872,444.81131 -320.6896,436.9639 C -319.7896,429.3639 -317.2896,421.6639 -313.1896,413.9639 C -309.2896,407.2639 -303.3896,400.5649 -295.5896,393.7639 C -295.2886,393.4639 -295.0896,393.1639 -294.8896,392.9639 C -292.5896,390.1639 -291.1896,387.1639 -290.7886,383.8639 C -290.3896,380.3639 -291.0896,376.4639 -292.8896,372.2629 C -293.4896,369.1629 -293.6896,366.2629 -293.5896,363.4629 L -294.5896,361.1629 C -311.5896,362.3629 -325.5896,367.9629 -336.6896,377.8629 C -341.3896,377.2619 -346.1896,376.7619 -350.7896,376.5629 C -359.7896,376.4619 -367.5896,378.6629 -374.2896,383.1629 C -381.2896,391.4629 -387.4896,396.6629 -392.8896,398.6629 C -393.3896,398.8629 -393.8896,399.0629 -394.3896,399.1629 C -399.1896,400.4629 -403.2896,399.4629 -406.7896,396.2629 C -410.5896,392.5689 -409.2896,387.6689 -402.8896,381.5689 z "
         id="path3459" />
      <path
         d="M -110.3595,29.842515 C -114.49389,29.775523 -118.43409,31.007771 -122.10908,33.457771 C -126.10909,37.457773 -127.17672,41.10354 -125.37672,44.30354 L -124.89005,44.094967 C -123.19003,39.494966 -118.77947,36.769212 -111.68046,36.169213 C -108.58046,36.269212 -106.06329,36.768269 -103.96328,37.768269 C -102.36329,38.568271 -101.20897,39.566379 -100.20897,40.96638 C -100.00899,41.266382 -99.783263,41.639719 -99.583263,41.939718 C -99.282253,42.539717 -99.088023,43.286396 -98.888023,43.886395 C -97.787003,51.886394 -99.689003,58.079821 -104.589,62.37982 C -110.68899,67.979821 -118.32339,69.694131 -127.3234,67.594132 C -136.2234,65.394132 -143.3683,66.344624 -148.66731,70.444622 C -150.56731,61.444628 -155.28072,54.743567 -162.78072,50.143569 C -167.98072,48.343569 -173.79123,47.774989 -180.09223,48.474989 L -180.16175,48.474989 C -189.16176,49.874992 -194.56089,54.284579 -196.36088,61.684579 C -197.56086,67.184573 -196.07329,71.650363 -191.77229,75.450362 C -189.07331,77.150362 -186.06563,77.367506 -182.66462,75.867506 C -188.66461,73.867507 -190.60466,70.369358 -188.50465,65.369359 C -187.00464,63.369357 -184.08465,62.301724 -179.88366,62.101724 C -175.88367,62.301726 -172.75784,64.08556 -170.35885,67.385559 C -167.75784,73.385559 -166.96456,78.567544 -168.06455,83.167543 C -168.56455,84.96754 -169.35886,86.642807 -170.35885,88.242806 C -182.15884,104.64281 -189.1942,122.84975 -191.49419,142.74974 C -192.69419,158.44975 -192.95896,169.89468 -192.25896,177.09468 C -192.05995,179.59468 -191.7942,182.28996 -191.49419,185.08996 C -190.79419,190.38995 -189.91322,196.10147 -188.71323,202.40147 C -186.91323,212.10148 -182.16935,226.08549 -174.66935,244.18549 C -170.96935,253.78547 -166.16927,260.93798 -160.06927,265.73798 C -158.26828,267.03798 -156.56354,268.30085 -155.06353,269.70085 C -150.06353,274.10085 -147.28059,278.69712 -146.58159,283.39711 C -148.7806,278.29711 -152.67121,275.18087 -158.47022,274.08088 C -159.37021,273.78089 -160.4207,273.55516 -161.32071,273.45516 C -166.1217,272.85516 -170.80365,273.34563 -175.50364,274.84564 C -178.50365,275.14565 -181.41606,275.06754 -183.91606,274.56755 C -189.21607,273.56753 -193.51707,270.77226 -196.91708,266.57227 C -200.21708,261.07225 -198.80557,255.19122 -192.60658,249.19123 C -199.30557,250.29122 -203.90384,253.89796 -206.30284,259.89795 C -207.90385,265.49795 -207.67712,270.33707 -205.67712,274.63707 C -200.87711,281.53705 -194.90942,284.83997 -187.80941,284.43998 C -187.30939,284.43998 -186.77988,284.37045 -186.27988,284.37045 C -186.77988,284.67046 -187.30942,285.04378 -187.80941,285.34379 C -192.5094,288.44377 -198.21136,290.7962 -204.91235,292.2962 C -200.31137,295.39618 -194.57036,295.54382 -187.67036,292.64383 C -197.47038,299.84384 -200.78184,308.19443 -197.68184,317.39443 C -193.18186,327.29442 -185.91221,331.86021 -175.71221,331.16021 L -175.57316,331.16021 C -175.47216,331.16021 -175.2855,331.16021 -175.08649,331.16021 C -174.1865,331.0602 -173.16647,330.84307 -172.16648,330.74306 C -164.26649,327.54306 -160.77691,323.57634 -161.8769,318.57634 C -164.9769,323.07632 -169.39606,324.94684 -175.29506,324.34684 C -182.19509,322.14683 -185.61612,317.49438 -185.51511,310.09439 C -184.61611,305.59439 -182.68367,302.13529 -179.88366,299.73529 C -176.38367,296.73529 -171.58459,295.2467 -165.28359,295.1467 C -149.9836,296.5467 -140.50916,301.96774 -136.70916,311.06773 C -133.40915,320.76774 -132.87963,329.74309 -135.17963,338.0431 C -139.37962,349.44308 -148.15119,358.06704 -161.25118,363.76704 C -169.55217,366.56805 -177.31031,367.8614 -184.6113,367.66039 C -191.91129,367.46041 -198.72092,365.85465 -205.12093,362.65465 C -213.12094,357.35466 -221.01909,352.34601 -228.62009,347.84601 C -228.72009,347.745 -228.76771,347.66791 -228.96771,347.56791 C -238.76773,340.86789 -246.97069,331.48015 -253.37069,319.48015 C -257.07067,312.58015 -259.57073,305.65339 -260.67073,298.55338 C -260.77075,298.45338 -260.80978,298.37529 -260.80978,298.27528 C -261.61078,289.67529 -263.28403,281.05133 -265.88504,272.55134 L -265.39837,272.1342 C -261.39836,275.73419 -257.40216,277.58756 -253.30117,277.48756 C -260.00116,271.48755 -264.607,264.59983 -267.206,256.69984 C -267.20602,256.09984 -267.27552,255.35316 -267.27552,254.75316 L -268.10981,254.75316 C -322.12294,220.5871 -338.92358,229.97973 -414.18006,248.49599 C -414.18006,248.49599 -394.37839,283.55788 -404.76603,275.43826 C -391.6943,294.38722 -411.53794,292.517 -376.0113,288.61142 C -375.23093,288.50626 -374.60585,288.3691 -373.85605,288.2638 C -370.25536,297.23983 -371.06196,305.75541 -376.35892,313.5706 L -359.81217,300.50006 C -358.61218,308.30004 -359.71887,314.05061 -363.21886,317.95062 C -357.11886,318.55062 -352.56164,314.85723 -349.66165,306.75723 C -349.36164,306.05723 -349.16641,305.44103 -348.96641,304.74103 C -350.5664,312.04104 -348.99971,317.14492 -344.09971,320.24492 C -334.19972,324.8449 -323.79194,327.96973 -313.09194,329.76973 C -311.59193,330.06971 -310.21193,330.49069 -308.71192,331.09068 C -307.71191,331.49068 -306.58332,331.88117 -305.58333,332.48117 C -304.38333,333.08117 -303.27564,333.69736 -302.17665,334.49737 C -297.27665,337.69735 -293.12325,342.29362 -289.52325,348.19363 C -289.72324,348.29363 -289.6623,348.27172 -289.6623,348.47172 C -291.76231,352.37173 -293.11659,356.59564 -293.4166,361.19464 C -293.61661,361.89465 -293.55565,362.68893 -293.55565,363.48894 C -293.65566,366.28893 -293.45941,369.14899 -292.86041,372.24898 C -291.06039,376.44898 -290.3757,380.35953 -290.77469,383.85952 C -291.17468,387.1595 -292.57662,390.16717 -294.87661,392.96718 C -295.07662,393.16719 -295.27086,393.50146 -295.57185,393.80147 C -303.37184,400.60247 -309.26146,407.26349 -313.16147,413.96348 C -317.26146,421.66348 -319.77006,429.37597 -320.67007,436.97597 C -321.27007,444.87597 -321.57389,451.49035 -321.57389,456.79036 C -327.89529,479.32487 -367.56655,467.739 -346.67211,443.58077 C -352.1721,444.68076 -356.6598,447.19896 -360.15979,451.29795 C -244.51256,690.37942 -226.24301,509.63736 -171.9579,450.18556 C -170.35789,446.58555 -170.7693,443.43885 -173.07029,440.93885 C -178.17029,447.03985 -185.69612,451.05897 -195.59612,452.75796 C -201.69613,452.85896 -206.90001,451.78175 -211.1,449.28175 C -202.799,447.18176 -198.39041,442.36077 -197.89041,434.95977 C -198.19042,435.25976 -198.45517,435.56458 -198.65518,435.86359 C -198.95519,436.1636 -199.25898,436.39787 -199.55899,436.69788 C -203.359,440.19789 -207.95524,441.84266 -213.25525,441.84266 C -213.35626,441.84264 -213.50187,441.84266 -213.60287,441.84266 C -213.90288,441.84264 -214.20768,441.84266 -214.50669,441.84266 C -215.70671,441.74164 -217.062,441.65601 -218.26099,441.356 C -224.862,437.85598 -228.58485,432.99497 -229.38486,426.89497 C -225.48485,431.69496 -220.27997,434.17309 -213.88097,434.4731 C -210.08099,433.97311 -207.45523,432.64928 -205.95522,430.64928 C -205.65521,430.24926 -205.39046,429.79783 -205.19045,429.39784 C -207.69045,429.59785 -210.08193,429.4026 -212.28191,428.7026 C -220.7819,426.00259 -228.06588,416.35008 -233.76488,399.85007 C -233.75983,399.86627 -233.69535,399.83341 -233.69535,399.85007 C -228.79536,407.85009 -222.85813,411.2996 -215.75812,410.0006 C -219.15811,406.3006 -221.86297,401.5882 -223.96197,395.8872 C -226.06298,390.08719 -227.40294,383.35567 -228.20295,375.65567 C -228.40295,373.35565 -228.62009,370.85563 -228.62009,368.35563 L -228.62009,363.34989 C -227.81911,364.1499 -227.01623,365.05276 -226.11722,365.85276 C -225.11721,366.95278 -223.88106,367.98136 -222.78006,368.98135 C -212.58106,377.28035 -199.91131,381.19188 -184.6113,380.59188 C -184.51032,380.59191 -184.29316,380.59188 -184.19416,380.59188 C -183.99417,380.59191 -183.76845,380.59188 -183.56844,380.59188 C -183.36843,380.59191 -183.28077,380.59188 -183.08177,380.59188 C -182.98079,380.59191 -182.79411,380.59188 -182.5951,380.59188 C -164.3951,380.89189 -148.31386,374.95364 -134.41486,362.65465 C -118.51485,348.85467 -110.49099,328.06958 -110.28998,300.56958 C -109.69,295.66958 -107.96609,293.06573 -104.86709,292.36573 C -102.4671,291.86573 -99.164183,292.7467 -95.06419,295.1467 C -93.463177,288.54668 -97.000383,284.88377 -105.70138,283.88378 L -105.77091,283.88378 C -105.97089,283.8838 -106.05857,283.88378 -106.25758,283.88378 C -106.05859,283.7838 -105.97091,283.74473 -105.77091,283.74473 C -92.670891,269.34473 -87.823222,259.24077 -90.823217,253.64077 C -92.823221,249.04077 -95.987073,246.06358 -100.48707,244.46359 C -94.287055,251.36359 -96.756643,257.47891 -107.85663,262.67891 C -117.95663,266.07892 -124.18911,274.17332 -126.48911,286.87332 C -129.28912,276.3733 -133.17773,268.357 -138.37774,262.95701 C -144.67774,256.65701 -151.05783,247.18259 -157.35783,234.38258 C -160.75682,225.78259 -162.46357,217.84438 -162.36357,210.74437 C -162.26257,208.84437 -162.17691,207.23863 -161.8769,205.73863 C -161.8769,205.63862 -161.8769,205.59958 -161.8769,205.59958 C -160.97689,201.09958 -158.88925,197.79668 -155.68925,195.79668 C -151.48926,192.99668 -146.51108,192.8881 -140.81108,195.5881 C -138.61209,197.9881 -138.79775,200.26242 -141.29775,202.26242 C -135.49775,201.66242 -133.32243,199.30143 -134.62343,195.10143 C -135.32243,194.00143 -136.08824,192.94237 -136.98725,192.04237 C -141.68724,187.14238 -148.7216,185.79283 -158.1226,187.59283 C -158.3216,187.69282 -158.47778,187.8014 -158.67879,187.8014 C -158.97878,187.9014 -159.28259,187.94902 -159.5826,188.14902 C -165.48161,190.64901 -168.98932,195.63576 -170.28932,203.23576 C -174.46355,187.07341 -175.96585,169.85122 -174.66935,151.30122 C -173.86936,141.20122 -169.68548,131.19726 -162.08547,121.19726 C -152.48449,111.89726 -144.39108,107.27052 -137.89107,107.57052 C -131.39106,107.77052 -125.18906,109.85817 -119.18907,113.75817 C -113.28906,117.75817 -110.67188,124.75447 -111.47189,134.75447 C -112.27187,141.15447 -116.29099,146.17169 -123.29099,149.77168 C -123.59198,149.87168 -123.8958,150.05835 -124.19481,150.25835 C -125.29483,150.75836 -126.66626,151.35741 -128.36626,151.85741 C -129.06624,152.05741 -129.79002,152.28313 -130.59103,152.48313 C -133.69103,153.38312 -136.77679,152.28502 -139.97679,149.28502 C -141.97677,146.78502 -142.50631,142.95258 -141.50632,137.95258 C -147.80632,144.95257 -148.1187,151.34982 -142.61871,157.34982 C -138.21873,162.24982 -132.48429,163.16983 -125.58529,160.26983 C -133.28528,170.56983 -129.75667,176.53754 -115.15667,178.13754 C -113.65666,178.23754 -112.08997,178.48516 -110.28998,178.48516 C -121.28997,177.08515 -124.09483,173.43939 -118.49383,167.63939 C -117.69384,166.73939 -116.56624,165.7889 -115.36524,164.7889 C -114.46523,164.08891 -113.4757,163.26413 -112.3757,162.56413 C -95.175718,151.06413 -88.816516,136.16009 -93.117514,117.8601 C -97.016513,106.5601 -104.46423,97.858062 -115.36524,91.858062 C -117.26422,90.858058 -119.20527,89.877096 -121.20527,89.077096 C -118.90528,89.077094 -116.47476,89.294241 -113.97476,89.494241 C -108.27476,89.694237 -103.37469,87.79326 -99.374683,83.79326 C -92.674695,76.493264 -88.578487,68.281707 -87.277485,59.181709 C -86.977474,53.081708 -88.419461,46.988282 -91.518458,40.688283 C -91.518436,40.588282 -91.587982,40.440662 -91.587982,40.340663 C -91.986973,39.840663 -92.370902,39.241607 -92.769893,38.741607 C -92.9699,38.541604 -93.088036,38.354937 -93.187038,38.254938 C -93.688035,37.654939 -94.077526,37.194932 -94.577521,36.794931 C -96.377523,34.994934 -98.612793,33.545385 -101.11279,32.345385 C -101.31179,32.245388 -101.46797,32.136812 -101.66898,32.136812 C -103.76899,31.13681 -106.1214,30.481563 -108.6214,29.981563 C -109.2214,29.919063 -109.76887,29.852086 -110.3595,29.842515 z "
         id="path3413" />
      <path
         d="M -411.10373,237.70064 C -411.10373,237.70064 -407.50235,234.47088 -423.94016,237.06232 C -448.40131,248.15752 -476.22503,245.84076 -496.82499,249.35567 C -498.99692,250.13665 -501.23129,250.70835 -503.63578,251.16365 C -509.47624,252.48937 -516.00941,253.185 -523.31046,253.18856 C -526.75759,253.0619 -529.84467,252.18212 -532.89626,250.8015 C -534.85798,249.91396 -536.62905,248.64546 -538.30763,247.22468 L -538.82311,247.00455 L -546.20994,241.99336 C -550.64575,239.6558 -553.6856,239.29021 -555.54853,240.76207 C -555.94069,241.246 -556.19647,241.7097 -556.32346,242.20336 C -556.56282,243.41778 -555.78013,244.51143 -554.17794,245.56697 C -549.44778,248.36838 -547.36373,250.78275 -547.82449,252.66858 C -548.07406,256.19306 -549.92678,257.94832 -553.4829,257.77237 C -554.58198,262.89658 -552.41576,267.68797 -546.84972,271.96981 C -544.35183,268.02961 -540.72532,266.57803 -535.6434,267.44431 L -532.71942,275.65999 C -537.4554,277.70583 -541.10504,280.26699 -543.66131,283.29901 L -543.24697,289.42088 C -540.42893,287.16864 -536.73469,287.29262 -532.33195,289.94698 C -528.41482,293.26122 -527.01169,296.76662 -528.36912,300.34103 C -526.30861,303.588 -521.6538,306.24536 -514.54833,308.13736 C -516.32569,304.35716 -516.93189,300.66418 -516.19962,297.24892 C -516.19962,297.24892 -516.18597,297.30202 -516.2473,297.16293 L -514.64336,297.62286 C -508.75915,296.97832 -503.4469,298.4777 -498.98576,302.04028 C -490.03632,299.6962 -483.8716,296.13711 -480.20067,291.51514 C -480.20067,291.51512 -480.07037,291.5645 -479.91418,291.52496 C -480.93588,300.32161 -474.67755,305.38236 -461.04855,306.6986 C -470.20672,303.32676 -470.53595,300.07635 -462.05166,297.08093 C -461.88089,297.26841 -461.68351,297.38542 -461.57451,297.43472 C -455.29035,298.07336 -451.12146,296.8199 -449.2517,293.80798 C -449.06292,293.45248 -448.87205,293.11498 -448.79226,292.71018 C -448.71588,293.07538 -448.72711,293.44034 -448.6979,293.89446 C -448.69789,293.89446 -448.73668,293.85324 -448.78389,293.94212 C -448.61892,298.97686 -447.44513,301.39575 -445.27664,301.38482 C -440.45844,294.85692 -435.3087,291.06663 -429.84242,289.68184 C -434.76177,297.92754 -434.37816,303.75236 -428.80871,307.26415 C -425.34115,302.77061 -422.04638,299.08188 -418.61822,296.44431 C -418.47665,296.17771 -418.32527,296.17871 -418.16908,296.13914 C -413.64427,292.45462 -409.16576,290.37271 -404.59276,289.90647 C -406.29514,293.87593 -409.65416,297.18424 -414.78228,299.71403 C -402.71871,301.0668 -391.3858,297.90897 -385.47092,286.7828"
         style="stroke-width:0.99999952"
         id="use2339" />
      <path
         d="M -242.3896,80.8689 C -243.3896,76.4689 -246.1896,72.4689 -250.9896,68.7689 C -243.6896,67.8689 -239.6896,65.4689 -239.1896,61.3689 C -242.6896,63.1689 -246.2896,63.6689 -249.8896,62.9689 C -252.9896,57.1689 -257.7886,52.7689 -264.2886,49.7689 C -268.0896,48.5689 -272.0896,48.2689 -276.2886,48.9689 C -276.9886,49.0689 -277.6886,49.2689 -278.5896,49.3689 C -277.6896,49.2689 -276.9886,49.0689 -276.2886,48.9689 C -270.4886,47.4689 -268.0896,43.2689 -269.0896,36.1689 C -269.8896,28.4689 -275.0896,22.9689 -284.2886,19.6689 C -287.8896,18.6689 -290.7886,19.0689 -292.8896,20.7689 C -288.2886,21.2689 -285.3896,22.3689 -284.1896,23.9689 C -283.7896,24.4689 -283.4896,24.9689 -283.1896,25.5689 C -281.7896,28.3689 -281.7896,31.0689 -283.0896,33.3689 C -285.5896,36.2689 -289.8896,38.5689 -296.1896,40.5689 C -302.7896,43.4689 -312.8896,45.4689 -326.4896,46.5689 C -326.8896,46.5689 -327.1896,46.6689 -327.5896,46.6689 L -327.6896,46.6689 C -348.9896,49.5689 -364.9896,53.4689 -375.4896,58.3689 C -378.0896,59.5689 -380.3896,60.8689 -382.3896,62.2689 C -382.0896,65.9689 -380.5896,68.1689 -377.7896,68.7689 L -377.6896,68.9689 L -372.7896,66.0689 L -372.7896,63.7689 L -372.7896,66.0689 L -377.6896,68.9689 L -377.7896,69.0689 C -378.2896,72.3689 -378.2896,75.3689 -377.8896,77.9689 C -373.5896,86.3689 -367.2896,92.2689 -358.6896,95.7689 C -358.6896,95.7689 -358.5896,95.7689 -358.5896,95.8689 C -358.4896,95.8689 -358.3896,95.8689 -358.3896,95.9689 C -354.4896,95.8689 -350.8896,95.8689 -347.5896,96.0689 C -343.0896,96.3689 -338.9896,96.7689 -335.4896,97.5689 C -335.3896,97.5689 -335.3896,97.5689 -335.3896,97.5689 C -331.7896,98.2689 -328.7896,99.2689 -326.0896,100.4689 C -321.2896,102.6689 -317.3896,105.1689 -314.2896,107.8689 C -312.8896,109.2689 -311.5896,110.6689 -310.4896,112.1689 C -307.0906,117.4689 -307.0906,121.8689 -310.4896,125.2689 C -310.5896,125.3689 -310.7896,125.5689 -310.8896,125.6689 C -312.7896,127.2689 -316.0896,128.1689 -320.6896,128.3689 C -329.3896,128.2689 -336.4896,127.1689 -341.7896,125.1689 C -342.4896,124.9689 -343.2896,124.6689 -343.9896,124.4689 C -347.7896,123.3689 -352.1896,122.9689 -357.1896,123.1689 C -358.7896,123.1689 -360.4896,123.3689 -362.1896,123.5689 C -364.6896,126.1689 -364.5896,128.8689 -361.9896,131.5689 C -364.9896,136.9689 -370.5896,138.3689 -378.6896,135.8689 C -375.6896,141.0689 -371.9896,143.4689 -367.3896,143.1689 C -363.2896,142.7689 -358.9896,141.1689 -354.7896,138.2689 C -354.4896,138.0689 -354.2896,137.8689 -353.9896,137.6689 C -354.2896,137.9689 -354.4896,138.1689 -354.5896,138.3689 C -358.7896,142.7689 -361.4896,146.6689 -362.6896,149.9689 C -362.7896,150.0689 -362.7896,150.1689 -362.7896,150.1689 C -362.7896,150.2689 -362.7896,150.2689 -362.7896,150.3689 C -363.3896,152.1689 -363.5896,153.7689 -363.2896,155.2689 C -362.7896,153.6689 -361.9896,152.1689 -360.8896,150.7689 C -357.3896,146.7689 -350.9896,144.1689 -341.5896,143.1689 C -342.0896,146.8689 -345.0896,150.7689 -350.6896,154.6689 C -339.7896,153.1689 -332.3896,149.4689 -328.4896,143.5689 C -327.5896,149.2689 -324.3896,152.3689 -318.9896,152.7689 C -320.6896,148.3689 -320.1896,144.7689 -317.3896,142.0689 C -313.4896,149.5689 -306.6896,154.0689 -297.0896,155.6689 C -302.0896,151.6689 -304.3896,146.3689 -303.8896,139.8689 C -299.6896,143.8689 -296.1896,145.7689 -293.1896,145.4689 C -293.7896,139.8689 -292.0896,134.8689 -287.9896,130.3689 C -286.6896,135.4689 -280.9896,138.3689 -270.7896,139.0689 C -278.2896,132.5689 -281.6896,125.8689 -281.0906,118.9689 C -280.5906,112.0689 -279.5906,106.7689 -277.9896,102.8689 C -273.8896,103.3689 -271.0906,106.7689 -269.5906,113.0689 C -268.3906,101.9689 -272.8906,94.5689 -282.7896,90.8689 C -279.8906,91.5689 -277.0906,91.9689 -274.2896,92.0689 C -272.5906,92.0689 -270.8906,91.9689 -269.1896,91.7689 C -263.3896,90.9689 -260.3896,86.0689 -260.2896,77.0689 C -260.1896,75.2689 -260.3906,73.6689 -260.6896,72.2689 C -260.6896,72.1689 -260.6896,72.1689 -260.6896,72.1689 C -261.6896,68.0689 -264.0896,65.2689 -267.8896,63.9689 C -268.0896,63.8689 -268.2886,63.7689 -268.4896,63.7689 C -268.5906,63.6689 -268.6896,63.6689 -268.7896,63.6689 L -268.8896,63.6689 C -269.5896,63.3689 -270.3896,63.1689 -271.1896,63.0689 C -271.9896,62.8689 -272.7896,62.8689 -273.5896,62.7689 C -278.3896,62.8689 -281.5896,64.2689 -283.2886,66.9689 C -281.5896,64.2689 -278.3896,62.8689 -273.5896,62.7689 C -272.7886,62.8689 -271.9886,62.8689 -271.1896,63.0689 C -270.3896,63.1689 -269.5896,63.3689 -268.8896,63.6689 L -268.7886,63.6689 C -268.6886,63.6689 -268.5896,63.6689 -268.4886,63.7689 C -268.2886,63.7689 -268.0896,63.8689 -267.8886,63.9689 C -264.0886,65.2689 -261.6886,68.0689 -260.6886,72.1689 C -260.6886,72.1689 -260.6886,72.1689 -260.6886,72.2689 C -260.3886,73.6689 -260.1886,75.2689 -260.2886,77.0689 C -260.3896,86.0689 -263.3896,90.9689 -269.1886,91.7689 C -270.8886,91.9689 -272.5886,92.0689 -274.2886,92.0689 C -277.0896,91.9689 -279.8896,91.5689 -282.7886,90.8689 C -272.8896,94.5689 -268.3896,101.9689 -269.5896,113.0689 C -271.0896,106.7689 -273.8896,103.3689 -277.9886,102.8689 C -279.5896,106.7689 -280.5896,112.0689 -281.0896,118.9689 C -281.6896,125.8689 -278.2886,132.5689 -270.7886,139.0689 C -280.9886,138.3689 -286.6886,135.4689 -287.9886,130.3689 C -292.0896,134.8689 -293.7886,139.8689 -293.1886,145.4689 C -296.1886,145.7689 -299.6886,143.8689 -303.8886,139.8689 C -304.3886,146.3689 -302.0886,151.6689 -297.0886,155.6689 C -306.6886,154.0689 -313.4876,149.5689 -317.3886,142.0689 C -320.1886,144.7689 -320.6886,148.3689 -318.9886,152.7689 C -324.3886,152.3689 -327.5886,149.2689 -328.4886,143.5689 C -332.3886,149.4689 -339.7886,153.1689 -350.6886,154.6689 C -345.0886,150.7689 -342.0886,146.8689 -341.5886,143.1689 C -350.9886,144.1689 -357.3886,146.7689 -360.8886,150.7689 C -357.5886,152.5689 -355.7886,154.4689 -355.4886,156.3689 C -355.2886,158.6689 -356.3886,160.0689 -358.6886,160.5689 C -360.5886,159.8689 -362.4886,159.3689 -364.3886,158.9689 C -371.2886,157.3689 -378.1886,157.0689 -385.0886,158.2689 C -385.1886,158.2689 -385.3886,158.2689 -385.4886,158.2689 C -386.0886,158.3689 -386.5886,158.4689 -387.0886,158.5689 C -393.5886,155.8689 -397.0886,151.1689 -397.2886,144.5689 C -403.1886,147.1689 -405.6886,151.0689 -405.0886,156.1689 C -401.3886,164.3689 -394.2886,168.5689 -383.9886,168.8689 C -383.6886,168.8689 -383.3886,168.8689 -383.1886,168.8689 C -383.3886,168.8689 -383.6886,168.8689 -383.9886,168.9689 C -397.9886,171.2689 -406.6886,177.3689 -410.0886,187.2689 C -413.9886,193.7689 -419.6886,193.1689 -427.0886,185.2689 C -426.5886,186.3689 -425.9886,187.4689 -425.4886,188.5689 C -423.5886,191.9689 -421.3886,195.1689 -419.0886,197.9689 C -418.9886,198.0689 -418.9886,198.0689 -418.9886,198.1689 C -415.8886,201.7689 -412.3886,204.7689 -408.3886,207.2689 C -408.4886,202.2689 -406.8886,198.2689 -403.4886,195.3689 C -402.8886,194.6689 -402.0886,194.1689 -401.1886,193.5689 C -402.0886,194.1689 -402.8886,194.6689 -403.4886,195.3689 C -406.8886,198.2689 -408.4886,202.2689 -408.3886,207.2689 C -408.8886,212.6689 -411.1886,216.7689 -415.4886,219.4689 C -419.8886,222.1689 -423.5886,221.9689 -426.7886,218.9689 C -427.1886,218.6689 -427.4886,218.2689 -427.7886,217.8689 C -428.7886,216.4689 -428.9886,214.8689 -428.2886,213.2689 C -418.2249,205.14611 -430.47619,207.79149 -432.0886,211.8689 C -432.9886,212.9689 -433.6886,214.2689 -434.1886,215.9689 C -434.5886,218.4689 -434.6886,220.7689 -434.1886,222.7689 C -433.5886,225.7689 -431.9886,228.0689 -429.3886,229.6689 C -428.3886,230.2689 -427.2886,230.8689 -426.0886,231.2689 C -424.3886,231.8689 -422.7886,232.2689 -421.2886,232.6689 C -420.9886,232.6689 -420.6886,232.7689 -420.3886,232.7689 C -419.5886,232.9689 -418.7886,233.0689 -417.9886,233.1689 C -416.1886,233.2689 -414.3886,233.2689 -412.6886,233.0689 C -411.2886,232.7689 -409.9886,232.4689 -408.6886,232.0689 C -408.4886,231.8689 -408.1886,231.7689 -407.9886,231.6689 C -407.2886,231.3689 -406.5886,231.0689 -405.8886,230.7689 C -404.1886,229.7689 -402.4886,228.5689 -400.8886,226.9689 C -398.7886,224.7689 -396.8886,222.1689 -395.2886,218.9689 C -393.1886,214.3689 -390.3886,211.2689 -387.0886,209.9689 C -390.3886,211.2689 -393.1886,214.3689 -395.2886,218.9689 C -396.8886,222.1689 -398.7886,224.7689 -400.8886,226.9689 C -402.4886,228.5689 -404.1886,229.7689 -405.8886,230.7689 C -406.5886,231.0689 -407.2886,231.3689 -407.9886,231.6689 L -408.8886,232.3689 C -410.1886,233.0689 -411.3886,233.4689 -412.4886,233.6689 C -412.7886,233.7689 -412.9886,233.7689 -413.1886,233.7689 C -414.7886,234.0689 -416.3886,233.7689 -417.9886,233.1689 C -418.7886,233.0689 -419.5886,232.9689 -420.3886,232.7689 C -420.6886,232.7689 -420.9886,232.6689 -421.2886,232.6689 C -421.1886,232.7689 -421.0886,233.0689 -421.0886,233.1689 C -420.8886,233.4689 -420.7886,233.7689 -420.5886,234.0689 C -420.4886,234.2689 -420.3886,234.5689 -420.2886,234.6689 C -420.2886,234.7689 -420.1886,234.8689 -420.0886,235.0689 C -417.8886,238.9689 -414.5886,241.3689 -410.4886,242.4689 C -407.9886,240.4689 -405.2886,238.6689 -402.3886,237.2689 C -399.7886,235.9689 -397.0886,234.8689 -394.2886,234.0689 C -385.7886,231.6689 -380.4886,226.8689 -378.4886,219.5689 C -380.4886,226.8689 -385.7886,231.6689 -394.2886,234.0689 C -397.0886,234.8689 -399.7886,235.9689 -402.3886,237.2689 C -405.2886,238.6689 -407.9886,240.4689 -410.4886,242.4689 C -413.4886,244.8689 -416.2886,247.7689 -418.8886,251.0689 C -419.7886,252.1689 -420.5886,253.3689 -421.4886,254.6689 C -423.0886,258.7689 -422.3886,261.8689 -419.3886,264.0689 C -415.6886,259.6689 -411.0886,256.4689 -405.7886,254.3689 C -402.9886,253.2689 -399.8886,252.5689 -396.4886,252.0689 L -396.3886,252.0689 C -390.2886,252.1689 -384.9886,251.0689 -380.5886,248.5689 L -370.0886,241.2689 C -370.9886,243.3689 -371.6886,245.3689 -372.1886,247.2689 C -372.2886,247.3689 -372.2886,247.4689 -372.2886,247.5689 C -374.1886,254.0689 -373.8886,259.4689 -371.5886,263.6689 C -367.2886,270.2689 -361.3886,274.3689 -354.0886,276.0689 C -354.1886,275.9689 -354.2886,275.8689 -354.2886,275.7689 C -355.4886,274.6689 -356.4886,273.5689 -357.2886,272.3689 C -357.4886,272.1689 -357.5886,272.0689 -357.6886,271.8689 C -359.9886,268.6689 -361.4886,265.2689 -362.1886,261.4689 C -361.1886,253.8689 -356.1886,248.5689 -347.2886,245.2689 C -346.9886,245.0689 -346.5886,245.0689 -346.1886,244.8689 C -346.5886,245.0689 -346.9886,245.0689 -347.2886,245.2689 C -348.3886,246.1689 -349.3886,247.1689 -350.2886,248.1689 C -355.3886,253.8689 -356.9886,259.5689 -355.2886,265.1689 C -355.1886,265.3689 -355.0886,265.5689 -354.9886,265.8689 C -354.4886,267.0689 -353.9886,268.0689 -353.2886,268.8689 C -351.2886,271.4689 -348.3886,272.4689 -344.4886,271.9689 C -349.6886,265.4689 -349.5886,259.3689 -344.1886,253.6689 C -343.2886,252.5689 -342.2886,251.4689 -341.1886,250.5689 C -338.5886,248.3689 -335.3886,246.8689 -331.6886,246.0689 C -330.7886,250.2689 -331.4886,254.5689 -333.8886,258.7689 C -334.8886,260.5689 -336.1886,262.2689 -337.7886,264.0689 C -335.4886,263.2689 -333.1886,262.4689 -330.9886,261.5689 C -322.1886,257.5689 -315.2886,251.3689 -310.2886,243.0689 L -310.3886,242.5689 C -310.4886,242.5689 -310.4886,242.5689 -310.5886,242.6689 C -314.3886,244.0689 -318.2886,244.3689 -322.0886,243.9689 L -322.1896,243.9689 C -322.1896,243.8689 -322.1896,243.8689 -322.0896,243.8689 L -322.0896,243.8689 C -319.5896,242.0689 -317.5896,239.9689 -315.9896,237.7689 C -315.6896,237.5689 -315.4896,237.1689 -315.2896,236.8689 C -314.4896,235.6689 -313.7896,234.4689 -313.1896,233.1689 C -312.1896,230.9689 -311.4896,228.5689 -311.0896,225.9689 C -311.4896,228.5689 -312.1896,230.9689 -313.1896,233.1689 C -313.7896,234.4689 -314.4896,235.6689 -315.2896,236.8689 C -315.4896,237.1689 -315.6896,237.5689 -315.9896,237.7689 C -317.5896,239.9689 -319.5896,242.0689 -322.0896,243.8689 L -322.0896,243.8689 C -322.1896,243.8689 -322.1896,243.8689 -322.1896,243.9689 L -322.0896,243.9689 C -318.2896,244.3689 -314.3896,244.0689 -310.5896,242.6689 C -310.4896,242.5689 -310.4896,242.5689 -310.3896,242.5689 C -310.2896,242.5689 -310.0896,242.5689 -309.9896,242.4689 C -307.4896,241.5689 -304.9896,240.2689 -302.5906,238.5689 C -302.8906,236.0689 -302.9896,233.6689 -302.7896,231.4689 C -302.2896,225.3689 -299.8906,220.0689 -295.5906,215.6689 C -299.8906,220.0689 -302.2896,225.3689 -302.7896,231.4689 C -302.9896,233.6689 -302.8906,236.0689 -302.5906,238.5689 C -300.6906,244.3689 -297.7896,248.7689 -294.0906,251.8689 C -290.3906,254.8689 -285.8906,256.6689 -280.5906,257.2689 C -275.6906,257.4689 -271.5906,256.6689 -268.0906,254.7689 C -267.7896,254.6689 -267.5906,254.5689 -267.2896,254.3689 L -267.1896,254.3689 C -267.0896,254.2689 -266.8896,254.1689 -266.6896,254.0689 C -266.2896,253.7689 -266.0896,253.5689 -265.6896,253.3689 C -266.2896,253.2689 -266.7896,253.1689 -267.2896,253.0689 C -273.3906,252.0689 -278.7896,248.8689 -283.3906,243.7689 C -285.8906,240.2689 -285.6906,236.8689 -282.7896,233.5689 L -282.7896,233.5689 L -282.7896,233.4689 C -281.1896,231.5689 -279.8906,229.3689 -278.7896,227.2689 C -276.8906,223.6689 -275.6896,219.8689 -275.0906,215.8689 C -275.6906,219.8689 -276.8906,223.6689 -278.7896,227.2689 C -279.8906,229.3689 -281.1896,231.5689 -282.7896,233.4689 L -282.7896,233.5689 C -276.1896,231.9689 -271.1896,229.2689 -267.7896,225.3689 C -267.5906,225.0689 -267.1896,224.7689 -266.9896,224.3689 C -266.8896,224.3689 -266.8896,224.3689 -266.8896,224.2689 C -266.6896,224.0689 -266.4896,223.7689 -266.2886,223.4689 C -266.2886,223.4689 -266.2886,223.4689 -266.1886,223.3689 L -266.2886,223.3689 C -266.1886,223.2689 -266.0896,223.1689 -266.0896,223.1689 C -263.6896,219.8689 -262.2886,216.3689 -261.7886,212.6689 C -261.7886,212.1689 -261.6886,211.6689 -261.6886,211.1689 C -261.6886,210.9689 -261.6886,210.7689 -261.5886,210.5689 L -261.5886,210.4689 C -261.5886,210.2689 -261.5886,210.0689 -261.5886,209.9689 C -261.5886,208.8689 -261.6886,207.7689 -261.7876,206.6689 C -261.8886,206.5689 -261.8886,206.5689 -261.7876,206.5689 C -262.0886,205.0689 -262.3886,203.4689 -262.8886,201.9689 C -262.3886,203.4689 -262.0886,205.0689 -261.7876,206.5689 C -261.8886,206.5689 -261.8886,206.5689 -261.7876,206.6689 C -261.6876,207.7689 -261.5886,208.8689 -261.5886,209.9689 C -261.5886,210.0689 -261.5886,210.2689 -261.5886,210.4689 L -261.5886,210.5689 C -261.6886,210.7689 -261.6886,210.9689 -261.6886,211.1689 C -261.6886,211.6689 -261.7886,212.1689 -261.7886,212.6689 C -262.2886,216.3689 -263.6886,219.8689 -266.0896,223.1689 C -266.0896,223.1689 -266.1896,223.2689 -266.1896,223.3689 C -266.2896,223.4689 -266.2896,223.4689 -266.2896,223.4689 C -266.4896,223.7689 -266.6896,224.0689 -266.8906,224.2689 C -266.8906,224.3689 -266.8906,224.3689 -266.9906,224.3689 C -266.7906,224.4689 -266.6906,224.5689 -266.5916,224.5689 C -266.1916,224.6689 -265.7906,224.8689 -265.2906,225.0689 C -262.8916,225.7689 -260.3916,226.2689 -257.8916,226.5689 C -252.6916,227.0689 -247.1916,226.3689 -241.5916,224.2689 C -235.6916,222.7689 -231.3916,219.7689 -228.7906,215.4689 C -233.0916,217.5689 -237.9906,218.4689 -243.3916,217.8689 C -248.1916,217.3689 -251.6916,215.1689 -254.0916,211.0689 L -253.8916,210.9689 L -253.7906,210.9689 L -253.6916,209.9689 C -246.3916,198.5689 -240.8916,198.9689 -237.2916,210.9689 C -233.5926,204.0689 -234.3926,197.0689 -239.4916,189.9689 C -231.2916,195.4689 -222.0926,197.4689 -211.6916,196.1689 C -204.6916,193.9689 -200.0916,190.5689 -197.7916,185.8689 C -200.6916,188.0689 -205.4916,188.9689 -212.0926,188.4689 C -220.2916,187.7689 -227.3926,185.0689 -233.4916,180.5689 C -233.5926,180.4689 -233.7916,180.3689 -233.9916,180.1689 C -238.1916,176.8689 -241.8916,172.6689 -245.0926,167.3689 C -227.0926,158.9689 -222.0926,161.6689 -230.0926,175.4689 C -230.1926,175.4689 -230.1926,175.5689 -230.1926,175.6689 C -221.7926,171.1689 -217.5926,166.8689 -217.5926,162.6689 C -217.5926,158.3689 -222.1926,152.4689 -231.3926,144.8689 C -236.2916,143.5689 -239.2916,140.6689 -240.1926,136.1689 C -239.2926,140.6689 -236.2926,143.5689 -231.3926,144.8689 C -230.6926,145.0689 -229.8926,145.1689 -229.0926,145.3689 C -221.7916,145.1689 -216.5926,142.4689 -213.5926,137.0689 C -216.2916,138.5689 -218.6926,139.4689 -220.8926,140.0689 C -220.8926,140.0689 -220.9926,140.0689 -221.0926,140.0689 C -221.0926,140.1689 -221.1926,140.1689 -221.2916,140.1689 C -221.5926,140.1689 -221.7916,140.2689 -221.8926,140.2689 C -224.1926,140.6689 -226.0926,140.5689 -227.7916,139.9689 C -227.8926,139.8689 -228.0926,139.7689 -228.1916,139.7689 C -233.1916,137.1689 -236.2916,132.9689 -237.5916,127.1689 C -233.7906,122.3689 -228.7906,124.9689 -222.5916,134.9689 C -218.5916,126.3689 -220.7906,119.6689 -229.1916,114.6689 C -234.0916,111.7689 -238.0916,108.8689 -240.8916,105.8689 L -241.0916,105.6689 C -241.2906,105.3689 -241.5916,105.1689 -241.6916,104.9689 C -242.5916,104.0689 -243.2916,103.0689 -243.8916,101.9689 C -243.2906,103.0689 -242.5916,104.0689 -241.6916,104.9689 C -241.5916,105.1689 -241.2916,105.3689 -241.0916,105.6689 L -240.8916,105.8689 C -238.5916,108.2689 -235.7906,109.6689 -232.6916,110.2689 C -231.5916,110.4689 -230.5916,110.5689 -229.5916,110.5689 C -226.4906,110.3689 -223.8916,109.0689 -221.6916,106.6689 C -218.8916,103.2689 -218.2916,99.8689 -219.8916,96.2689 C -221.6916,100.3689 -224.5916,102.5689 -228.5916,102.7689 C -231.5916,102.8689 -234.0916,101.8689 -235.7906,99.8689 C -236.4906,99.1689 -237.0916,98.3689 -237.4906,97.3689 C -239.2896,93.6689 -240.9896,88.0689 -242.3896,80.8689 z M -319.8896,61.5689 C -319.4896,61.7689 -319.1896,61.9689 -318.8896,62.1689 C -313.8896,65.1689 -309.6896,68.4689 -306.1896,72.2689 L -306.1896,72.2689 L -300.8896,70.2689 L -306.1896,72.2689 L -306.1896,72.2689 L -316.8896,73.6689 C -317.3896,73.7689 -317.7896,73.7689 -318.2896,73.8689 C -319.5896,73.9689 -320.8896,73.9689 -322.0896,73.8689 C -322.8896,73.7689 -323.5896,73.7689 -324.2896,73.5689 C -326.9896,72.4689 -328.4896,70.5689 -328.7896,67.8689 C -329.1896,65.2689 -328.0896,62.7689 -325.5896,60.6689 C -326.0896,60.6689 -326.6896,60.6689 -327.1896,60.6689 C -328.4896,60.7689 -329.7896,60.9689 -331.1896,61.2689 C -331.2896,58.5689 -329.7896,56.4689 -326.4896,54.9689 C -329.7896,56.4689 -331.2896,58.5689 -331.1896,61.2689 C -329.7896,60.9689 -328.4896,60.7689 -327.1896,60.6689 C -326.6896,60.6689 -326.0896,60.6689 -325.5896,60.6689 C -323.6896,60.6689 -321.7896,60.9689 -319.8896,61.5689 L -319.8896,61.5689 z M -307.9896,97.7689 C -311.5896,94.2689 -315.8896,91.5689 -320.5896,89.6689 C -324.6896,88.3689 -328.7896,87.9689 -333.0896,88.7689 C -328.7896,87.9689 -324.6896,88.3689 -320.5896,89.6689 C -315.8896,91.5689 -311.5896,94.2689 -307.9896,97.7689 z M -275.8896,72.2689 C -276.1896,72.3689 -276.3896,72.4689 -276.5896,72.5689 C -278.7886,73.6689 -280.6896,74.0689 -282.1896,73.9689 C -280.6896,74.0689 -278.7896,73.6689 -276.5896,72.5689 C -276.3896,72.4689 -276.1896,72.3689 -275.8896,72.2689 C -273.9896,71.2689 -271.8896,69.6689 -269.7886,67.6689 C -271.8896,69.6689 -273.9896,71.2689 -275.8896,72.2689 C -273.9896,73.5689 -272.1896,75.2689 -270.6896,77.3689 C -271.2896,80.3689 -272.4896,82.6689 -274.2896,84.0689 C -272.4896,82.6689 -271.2896,80.3689 -270.6896,77.3689 C -272.1896,75.2689 -273.9896,73.5689 -275.8896,72.2689 z M -297.1896,117.8689 C -297.8896,114.6689 -299.1896,111.3689 -300.9896,107.9689 C -299.1896,111.3689 -297.8896,114.6689 -297.1896,117.8689 C -296.4896,123.1689 -299.5896,127.8689 -306.5896,131.8689 C -299.5896,127.8689 -296.4896,123.1689 -297.1896,117.8689 z "
         id="path3415" />
      <path
         d="M -324.2896,67.4689 C -323.8896,65.0689 -322.3896,63.1689 -319.8896,61.5689 C -321.7896,60.9689 -323.6896,60.6689 -325.5896,60.6689 C -328.0896,62.7689 -329.1896,65.2689 -328.7896,67.8689 C -328.4896,70.5689 -326.9896,72.4689 -324.2896,73.5689 C -323.5896,73.7689 -322.8896,73.7689 -322.0896,73.8689 C -323.9896,71.8689 -324.6896,69.6689 -324.2896,67.4689 z "
         id="path3417" />
      <path
         d="M -306.1896,72.2689 C -309.6896,68.4689 -313.8896,65.1689 -318.8896,62.1689 L -318.2896,73.8689 C -317.7896,73.7689 -317.3896,73.7689 -316.8896,73.6689 L -306.1896,72.2689 z "
         id="path3419" />
      <path
         d="M -263.1896,234.3689 C -261.6896,231.6689 -259.9896,229.0689 -257.8896,226.5689 C -260.3896,226.2689 -262.8896,225.7689 -265.2886,225.0689 L -267.7886,225.3689 C -271.1886,229.2689 -276.1886,231.9689 -282.7886,233.5689 C -285.6886,236.8689 -285.8896,240.2689 -283.3896,243.7689 C -278.7886,248.8689 -273.3896,252.0689 -267.2886,253.0689 C -267.1896,246.8689 -265.8896,240.6689 -263.1896,234.3689 z "
         id="path3421" />
      <path
         d="M -351.9896,109.0689 L -352.1896,109.0689 L -353.9896,106.1689 C -361.7896,106.2689 -369.0896,106.2689 -376.0896,106.1689 C -380.4896,105.6689 -384.6896,102.3689 -388.7896,96.1689 C -390.7896,98.5689 -391.4896,101.5689 -390.7896,105.2689 C -388.8896,111.2689 -385.1896,114.9689 -379.7896,116.5689 C -372.5896,118.8689 -364.9896,119.8689 -357.0896,119.6689 C -356.7896,119.5689 -356.4896,119.5689 -356.1896,119.5689 L -352.8896,111.1689 L -347.6896,118.9689 C -339.1896,118.5689 -330.6896,118.7689 -322.0896,119.4689 C -316.8896,119.9689 -312.9896,121.8689 -310.4896,125.2689 C -307.0906,121.8689 -307.0906,117.4689 -310.4896,112.1689 C -311.5896,110.6689 -312.8896,109.2689 -314.2896,107.8689 C -320.1896,106.4689 -325.7896,105.6689 -331.3896,105.6689 C -336.7896,105.8689 -342.5896,105.8689 -348.7896,105.5689 L -351.9896,109.0689 z "
         style="fill:#d40000"
         id="Tongue" />
      <g
         style="fill:#d40000"
         id="Teeth">
        <path
           d="M -347.5896,96.0689 C -350.8896,95.8689 -354.4896,95.8689 -358.3896,95.9689 L -358.6896,96.0689 L -353.9896,106.1689 L -352.1896,109.0689 L -351.9896,109.0689 L -348.7896,105.5689 L -347.5896,96.0689 z "
           id="path3427" />
        <path
           d="M -347.6896,118.9689 L -352.8896,111.1689 L -356.1896,119.5689 L -357.1896,123.1689 C -352.1896,122.9689 -347.7896,123.3689 -343.9896,124.4689 L -347.6896,118.9689 z "
           id="path3433" />
      </g>
      <path
         d="M -307.2896,335.7689 C -308.7896,336.3689 -310.0896,337.1689 -311.0896,338.1689 C -313.1896,339.6689 -314.5896,342.2689 -315.2896,345.9689 C -303.2896,346.1689 -296.0896,351.0699 -293.5896,360.7689 C -293.4886,360.8699 -293.4886,360.9689 -293.3896,361.1689 C -293.0896,356.5689 -291.7886,352.3689 -289.6896,348.4689 C -289.6896,348.2689 -289.6896,348.2689 -289.4896,348.1689 C -293.0906,342.2689 -297.2896,337.6689 -302.1896,334.4689 C -304.0896,334.6689 -305.7896,335.1689 -307.2896,335.7689 z "
         id="path3461" />
      <path
         d="M -511.66051,235.50459 C -510.41206,231.88089 -510.36244,227.71479 -511.62065,222.95698 C -513.39022,220.94391 -515.55532,220.1848 -518.05419,220.81784 C -518.59473,223.10846 -520.27232,224.99487 -522.77459,226.39794 C -527.86334,227.07174 -533.02505,226.61026 -538.57211,225.09264 C -541.60131,225.70618 -542.94853,226.97048 -542.49021,229.16189 C -538.59932,231.25291 -535.7545,233.53201 -533.97035,235.77213 L -527.03567,237.47665 L -533.97035,235.77213 C -533.27266,236.74915 -532.68394,237.67684 -532.40757,238.68368 C -531.43252,243.9747 -531.59111,248.0915 -532.89795,250.807 C -529.84637,252.18761 -526.77677,253.02527 -523.32963,253.15193 C -516.0286,253.14838 -509.45785,252.48374 -503.61743,251.15802 C -507.70147,246.88533 -510.47089,241.66428 -511.66051,235.50459 z "
         style="stroke-width:0.99999952"
         id="path3445" />
      <g
         transform="matrix(0.961261,0.275638,-0.275638,0.961261,55.52635,112.9949)"
         style="fill:#d40000"
         id="Claws">
        <path
           d="M -521.64102,261.74684 C -521.55069,260.7451 -521.83627,259.78972 -522.14274,258.93278 C -528.75004,256.13681 -535.76782,254.70161 -543.47462,254.78935 C -551.27886,254.7613 -556.22832,257.3849 -558.65716,262.50967 C -560.96764,267.65179 -560.47278,271.07384 -556.93585,272.81054 C -553.60191,268.02151 -549.36945,265.90176 -544.02263,266.58439 C -539.74784,267.71881 -538.5014,269.3226 -540.18581,271.51156 L -540.18581,271.51156 C -534.43532,271.44141 -529.34636,270.46225 -524.64047,268.4119 C -522.62187,266.37346 -521.52923,264.09772 -521.64102,261.74684 z "
           style="stroke-width:0.54801726"
           id="path3447" />
        <path
           d="M -549.5455,295.51371 C -551.37658,294.94068 -552.41403,294.07804 -552.51867,292.84469 C -558.58249,292.6659 -563.54594,294.77996 -567.36731,298.99 C -570.38792,304.02797 -570.77699,308.74138 -568.53454,313.13022 C -567.46162,317.85503 -564.39782,321.24784 -559.34316,323.30862 C -560.79888,319.23816 -560.63249,314.99958 -558.74656,310.70871 C -557.03442,307.81332 -554.49351,306.76498 -551.20045,307.34943 C -549.02833,307.46497 -547.05116,307.34895 -545.52657,307.06503 C -542.05968,306.25398 -540.73035,304.01296 -541.46192,300.55619 C -541.53884,298.61642 -544.2264,296.90279 -549.5455,295.51371 z "
           style="stroke-width:0.54801726"
           id="path3449" />
        <path
           d="M -509.65332,341.05034 C -509.33371,337.24025 -511.63164,334.26426 -516.31036,332.15711 C -521.27419,330.81913 -524.88049,331.71225 -526.96855,334.65399 C -529.1261,338.49905 -529.5432,342.19335 -528.33821,345.71955 C -526.90328,351.61495 -523.55368,355.96215 -518.3109,358.86253 C -515.79743,360.24613 -513.23536,360.82487 -510.5481,360.81297 C -505.84194,360.48817 -502.47274,359.56231 -500.53741,357.91663 C -505.72416,357.05447 -509.31681,355.0051 -511.43377,351.75115 C -512.54128,348.34076 -512.02669,344.76223 -509.65332,341.05034 z "
           style="stroke-width:0.54801726"
           id="path3451" />
      </g>
    </g>
  </g>
  <path
     d="M 33.406157,130.18751 C 16.398345,130.18752 11.537038,140.65543 1.4374072,146.59376 L 1.4374072,174.93751 C 0.67016719,268.65839 81.738816,302.75001 125.49991,302.75001 C 168.49376,302.75 250.32964,268.65839 249.56241,174.93751 L 249.56241,142.50001 C 242.67469,136.80388 236.79092,130.18751 223.28116,130.18751 C 199.54415,130.18752 199.58066,150.62501 175.84366,150.62501 C 152.10665,150.625 152.11192,130.18751 128.37491,130.18751 C 104.6379,130.18752 104.64317,150.62501 80.906157,150.62501 C 57.169137,150.625 57.14316,130.18751 33.406157,130.18751 z "
     style="fill:#225500"
     id="wave-divider" />
  <path
     d="M 249.55062,1.4395041 L 125.50012,1.4395041 L 1.449569,1.4395041 L 1.449569,174.9361 C 0.68232904,268.65698 81.739009,302.75585 125.5001,302.75585 C 168.49395,302.75585 250.31785,268.65698 249.55062,174.9361 L 249.55062,1.4395041 z "
     style="fill:none;fill-opacity:0;stroke:#000000;stroke-width:1.88832211;stroke-linejoin:bevel"
     id="Frame" />
</svg>
