<?xml version="1.0" encoding="UTF-8" standalone="no"?>
<!-- Created with Inkscape (http://www.inkscape.org/) -->
<svg
   xmlns:dc="http://purl.org/dc/elements/1.1/"
   xmlns:cc="http://web.resource.org/cc/"
   xmlns:rdf="http://www.w3.org/1999/02/22-rdf-syntax-ns#"
   xmlns:svg="http://www.w3.org/2000/svg"
   xmlns="http://www.w3.org/2000/svg"
   version="1.0"
   width="251"
   height="304.20001"
   id="svg4166">
  <defs
     id="defs4168" />
  <metadata
     id="metadata1880"><rdf:RDF><cc:Work
         rdf:about=""><dc:title>Orkelljunga kommunvapen</dc:title><dc:date>22-01-2007</dc:date><dc:creator><cc:Agent><dc:title>Lokal_Profil</dc:title></cc:Agent></dc:creator><cc:license
         rdf:resource="http://creativecommons.org/licenses/by-sa/2.5/" /><dc:rights><cc:Agent><dc:title>cc-by-sa-2.5</dc:title></cc:Agent></dc:rights><dc:format>image/svg+xml</dc:format><dc:type
         rdf:resource="http://purl.org/dc/dcmitype/StillImage" /></cc:Work><cc:License
         rdf:about="http://creativecommons.org/licenses/by-sa/2.5/"><cc:permits
         rdf:resource="http://web.resource.org/cc/Reproduction" /><cc:permits
         rdf:resource="http://web.resource.org/cc/Distribution" /><cc:requires
         rdf:resource="http://web.resource.org/cc/Notice" /><cc:requires
         rdf:resource="http://web.resource.org/cc/Attribution" /><cc:permits
         rdf:resource="http://web.resource.org/cc/DerivativeWorks" /><cc:requires
         rdf:resource="http://web.resource.org/cc/ShareAlike" /></cc:License></rdf:RDF>
  </metadata>
  <path
     d="M 249.55058,1.4395041 L 125.50008,1.4395041 L 1.4495291,1.4395041 L 1.4495291,174.9361 C 0.68228908,268.65698 81.738969,302.75585 125.50006,302.75585 C 168.49391,302.75585 250.31781,268.65698 249.55058,174.9361 L 249.55058,1.4395041 z "
     style="color:#000000;fill:#003d8f;fill-opacity:1;fill-rule:nonzero;stroke:none;stroke-width:1.88832211;stroke-linecap:round;stroke-linejoin:bevel;marker:none;marker-start:none;marker-mid:none;marker-end:none;stroke-miterlimit:4;stroke-dashoffset:0;stroke-opacity:1;visibility:visible;display:block"
     id="Shield" />
  <path
     d="M 35.094,185.18751 C 18.33593,185.18751 13.545329,195.49263 3.594,201.34376 C 16.702464,275.14855 86.815498,302.75 125.50025,302.75001 C 165.5819,302.75001 236.93418,274.13558 248.06275,197.31251 C 241.27617,191.70002 235.49913,185.18751 222.18775,185.18751 C 198.79929,185.18751 198.8262,205.31251 175.43775,205.31251 C 152.04929,205.3125 152.04496,185.18751 128.6565,185.18751 C 105.26804,185.18751 105.2637,205.31251 81.87525,205.31251 C 58.486781,205.3125 58.482452,185.18751 35.094,185.18751 z "
     style="color:#000000;fill:#eeeeee;fill-opacity:1;fill-rule:nonzero;stroke:none;stroke-width:1.88832211;stroke-linecap:round;stroke-linejoin:bevel;marker:none;marker-start:none;marker-mid:none;marker-end:none;stroke-miterlimit:4;stroke-dashoffset:0;stroke-opacity:1;visibility:visible;display:block"
     id="Vagskuren_stam" />
  <g
     transform="matrix(0.529522,-4.632715e-2,4.632715e-2,0.529522,-14.26985,-23.49193)"
     style="fill:#eeeeee;fill-opacity:1"
     id="Church_bell">
    <path
       d="M 329.0972,385.92515 C 331.92564,388.75359 334.75409,391.58203 336.16831,397.23891 C 337.58253,402.8958 337.58253,411.38113 337.58253,419.86646 L 350.31052,432.59445 L 375.7665,407.13847 C 372.93805,404.31002 370.10961,401.48158 366.57406,402.18869 C 363.03851,402.8958 358.79584,407.13847 354.55318,411.38113 C 353.13896,409.96691 351.72474,408.55269 351.01763,405.01713 C 350.31052,401.48158 350.31052,395.8247 348.8963,390.16781 C 347.48207,384.51093 344.65363,378.85404 341.82519,373.19716"
       style="fill:#eeeeee;fill-opacity:1;fill-rule:evenodd;stroke:#003d8f;stroke-width:2.00001073;stroke-linecap:butt;stroke-linejoin:miter;stroke-miterlimit:10;stroke-opacity:1"
       id="glocke1-1" />
    <path
       d="M 363.03851,351.98384 C 365.86695,354.81229 368.69539,357.64073 374.35228,359.05495 C 380.00916,360.46917 388.49449,360.46917 396.97981,360.46917 L 409.7078,373.19716 L 384.25182,398.65314 C 381.42338,395.8247 378.59494,392.99626 379.30205,389.4607 C 380.00916,385.92515 384.25182,381.68249 388.49449,377.43982 C 387.08026,376.0256 385.66604,374.61138 382.13049,373.90427 C 378.59494,373.19716 372.93805,373.19716 367.28117,371.78294 C 361.62429,370.36872 355.9674,367.54028 350.31052,364.71183"
       style="fill:#eeeeee;fill-opacity:1;fill-rule:evenodd;stroke:#003d8f;stroke-width:2.00001073;stroke-linecap:butt;stroke-linejoin:miter;stroke-miterlimit:10;stroke-opacity:1"
       id="glocke1-2" />
    <path
       d="M 341.82519,373.19716 L 350.31052,364.71183 L 396.97981,402.8958 L 380.00916,419.86646 L 341.82519,373.19716 z "
       style="fill:#eeeeee;fill-opacity:1;fill-rule:evenodd;stroke:#003d8f;stroke-width:2.00001073;stroke-linecap:butt;stroke-linejoin:miter;stroke-miterlimit:10;stroke-opacity:1"
       id="glocke2-1" />
    <path
       d="M 358.79584,322.2852 C 363.03851,326.52786 367.28117,330.77053 367.98828,335.7203 C 368.69539,340.67008 365.86695,346.32696 361.62429,351.98384 C 357.38162,357.64073 351.72474,363.29761 346.06785,368.9545 C 340.41097,374.61138 334.75409,380.26827 329.0972,384.51092 C 323.44032,388.75359 317.78343,391.58203 312.83366,390.87492 C 307.88388,390.16781 303.64122,385.92515 299.39856,381.68249"
       style="fill:#eeeeee;fill-opacity:1;fill-rule:evenodd;stroke:#003d8f;stroke-width:2.00001073;stroke-linecap:butt;stroke-linejoin:miter;stroke-miterlimit:10;stroke-opacity:1"
       id="glocke3-1" />
    <path
       d="M 252.72926,377.43982 C 258.38615,383.09671 264.04303,388.75359 273.94258,390.16781 C 283.84213,391.58203 297.98434,388.75359 313.54077,378.85404 C 329.0972,368.9545 346.06785,351.98384 355.9674,336.42741 C 365.86695,320.87098 368.69539,306.72877 367.28117,296.82922 C 365.86695,286.92967 360.21006,281.27279 354.55318,275.61591 C 340.41097,261.4737 326.26876,247.33148 313.54077,228.94661 C 300.81278,210.56174 289.49901,187.9342 283.13502,168.84221 C 276.77102,149.75023 275.3568,134.1938 273.23547,123.58714 C 271.11414,112.98048 268.28569,107.3236 264.04303,101.66671 C 259.80037,96.00983 254.14348,90.352946 248.4866,84.696062 L 61.809419,271.37324 C 67.466303,277.03013 73.123187,282.68701 78.780071,286.92967 C 84.436956,291.17234 90.09384,294.00078 100.70049,296.12211 C 111.30716,298.24344 126.86359,299.65766 145.95558,306.02166 C 165.04756,312.38565 187.67509,323.69942 206.05997,336.42741 C 224.44484,349.1554 238.58705,363.29761 252.72926,377.43982 z "
       style="fill:#eeeeee;fill-opacity:1;fill-rule:evenodd;stroke:#003d8f;stroke-width:2.00001073;stroke-linecap:butt;stroke-linejoin:miter;stroke-miterlimit:10;stroke-opacity:1"
       id="glocke4-1" />
  </g>
  <path
     d="M 249.55062,1.4395041 L 125.50012,1.4395041 L 1.449569,1.4395041 L 1.449569,174.9361 C 0.68232904,268.65698 81.739009,302.75585 125.5001,302.75585 C 168.49395,302.75585 250.31785,268.65698 249.55062,174.9361 L 249.55062,1.4395041 z "
     style="color:#000000;fill:none;fill-opacity:0;fill-rule:nonzero;stroke:#000000;stroke-width:1.88832211;stroke-linecap:round;stroke-linejoin:bevel;marker:none;marker-start:none;marker-mid:none;marker-end:none;stroke-miterlimit:4;stroke-dashoffset:0;stroke-opacity:1;visibility:visible;display:block"
     id="Frame" />
</svg>
