<?xml version="1.0" encoding="UTF-8" standalone="no"?>
<!-- Created with Inkscape (http://www.inkscape.org/) -->
<svg
   xmlns:dc="http://purl.org/dc/elements/1.1/"
   xmlns:cc="http://web.resource.org/cc/"
   xmlns:rdf="http://www.w3.org/1999/02/22-rdf-syntax-ns#"
   xmlns:svg="http://www.w3.org/2000/svg"
   xmlns="http://www.w3.org/2000/svg"
   xmlns:xlink="http://www.w3.org/1999/xlink"
   version="1.0"
   width="251"
   height="304.20001"
   id="svg4166">
  <defs
     id="defs4168" />
  <metadata
     id="metadata1880"><rdf:RDF><cc:Work
         rdf:about=""><dc:title>Svedala kommunvapen</dc:title><dc:date>01-10-2007</dc:date><dc:creator><cc:Agent><dc:title>Lokal_Profil</dc:title></cc:Agent></dc:creator><cc:license
         rdf:resource="http://creativecommons.org/licenses/by-sa/2.5/" /><dc:rights><cc:Agent><dc:title>cc-by-sa-2.5</dc:title></cc:Agent></dc:rights><dc:format>image/svg+xml</dc:format><dc:type
         rdf:resource="http://purl.org/dc/dcmitype/StillImage" /></cc:Work><cc:License
         rdf:about="http://creativecommons.org/licenses/by-sa/2.5/"><cc:permits
         rdf:resource="http://web.resource.org/cc/Reproduction" /><cc:permits
         rdf:resource="http://web.resource.org/cc/Distribution" /><cc:requires
         rdf:resource="http://web.resource.org/cc/Notice" /><cc:requires
         rdf:resource="http://web.resource.org/cc/Attribution" /><cc:permits
         rdf:resource="http://web.resource.org/cc/DerivativeWorks" /><cc:requires
         rdf:resource="http://web.resource.org/cc/ShareAlike" /></cc:License></rdf:RDF>
  </metadata>
  <path
     d="M 249.55058,1.4395041 L 1.4495291,1.4395041 L 1.4495291,174.9361 C 0.68228908,268.65698 81.738969,302.75585 125.50006,302.75585 C 168.49391,302.75585 250.31781,268.65698 249.55058,174.9361 L 249.55058,1.4395041 z "
     style="color:#000000;fill:#d40000;fill-opacity:1;stroke:none"
     id="Shield" />
  <g
     transform="matrix(0.23,0,0,0.23,68,89.99515)"
     style="fill:#ffcd50;fill-opacity:1"
     id="Naverlonn">
    <path
       d="M 250,246.477 C 244.44956,246.477 235.71673,255.03263 220.71834,291.45724 C 220.71834,291.45724 213.5672,290.75809 209.99616,297.90016 C 209.99617,297.90016 203.56624,313.60987 199.9952,334.32191 C 199.99521,334.3219 173.30047,316.14111 157.15455,333.60068 C 127.87201,354.31271 195.90505,436.86345 184.99376,500.01077 C 126.42865,467.87142 146.44614,440.74426 79.310536,427.88851 C 79.310536,427.88851 55.836846,428.73105 58.587386,446.44797 C 45.017426,433.59222 8.3637151,440.65583 2.8849281,444.30835 C -9.9708229,452.87885 24.305253,513.5938 24.305253,513.5938 C 10.735288,528.59218 15.175977,547.6406 23.58403,552.15517 C 67.864966,565.01089 112.51975,580.19909 114.28986,588.57691 C 17.871698,594.29058 32.873714,632.13079 14.304293,643.55811 C 14.304295,643.5581 34.304298,665.71469 58.587386,672.14257 C 58.587386,672.14258 62.864666,688.56942 70.006756,689.28363 C 70.006756,689.28362 102.86156,690.71702 126.43045,680.00389 C 126.43045,680.00389 131.03969,700.69929 136.43141,699.98176 C 227.13589,687.84022 250,597.85664 250,597.85664 C 250,597.85664 272.84008,687.84022 363.54455,699.98176 C 368.93627,700.69929 373.54551,680.00389 373.54551,680.00389 C 397.1144,690.71702 429.96921,689.28362 429.9692,689.28363 C 437.11129,688.56942 441.4126,672.14258 441.41261,672.14257 C 465.6957,665.71469 485.69569,643.5581 485.6957,643.55811 C 467.12628,632.13079 482.10427,594.29058 385.6861,588.57691 C 387.45621,580.19909 432.11097,565.01089 476.39193,552.15517 C 484.79998,547.6406 489.26471,528.59218 475.69474,513.5938 C 475.69474,513.5938 509.97084,452.87885 497.11507,444.30835 C 491.63628,440.65583 454.98256,433.59222 441.41261,446.44797 C 444.16315,428.73105 420.68947,427.88851 420.68946,427.88851 C 353.55386,440.74426 373.54729,467.87142 314.9822,500.01077 C 304.07091,436.86345 372.12801,354.31271 342.84545,333.60068 C 326.69953,316.14111 299.98077,334.3219 299.98076,334.32191 C 296.40972,313.60987 289.9798,297.90016 289.9798,297.90016 C 286.40876,290.75809 279.28165,291.45724 279.28166,291.45724 C 264.28327,255.03263 255.04542,246.477 250,246.477 z "
       style="fill:#ffcd50;fill-opacity:1;fill-rule:evenodd;stroke:none;stroke-width:3;stroke-linecap:butt;stroke-linejoin:miter;stroke-miterlimit:4;stroke-dasharray:none;stroke-opacity:1"
       id="path1877" />
    <rect
       width="10"
       height="156.66701"
       ry="5"
       x="245"
       y="562.02783"
       style="opacity:1;fill:#ffcd50;fill-opacity:1;fill-rule:nonzero;stroke:none;stroke-width:3;stroke-linecap:round;stroke-linejoin:miter;stroke-miterlimit:4;stroke-dasharray:none;stroke-opacity:1"
       id="rect3654" />
  </g>
  <use
     transform="translate(-60.83333,-118.2549)"
     id="Naverlonn-2"
     x="0"
     y="0"
     width="251"
     height="304.20001"
     xlink:href="#Naverlonn" />
  <use
     transform="translate(60.83333,-118.2549)"
     id="Naverlonn-3"
     x="0"
     y="0"
     width="251"
     height="304.20001"
     xlink:href="#Naverlonn" />
  <path
     d="M 249.55062,1.4395041 L 1.449569,1.4395041 L 1.449569,174.9361 C 0.68232904,268.65698 81.739009,302.75585 125.5001,302.75585 C 168.49395,302.75585 250.31785,268.65698 249.55062,174.9361 L 249.55062,1.4395041 z "
     style="fill:none;fill-opacity:0;stroke:#000000;stroke-width:1.88832211;stroke-linejoin:bevel"
     id="Frame" />
</svg>
