<?xml version="1.0" encoding="UTF-8" standalone="no"?>
<!-- Created with Inkscape (http://www.inkscape.org/) -->
<svg
   xmlns:dc="http://purl.org/dc/elements/1.1/"
   xmlns:cc="http://web.resource.org/cc/"
   xmlns:rdf="http://www.w3.org/1999/02/22-rdf-syntax-ns#"
   xmlns:svg="http://www.w3.org/2000/svg"
   xmlns="http://www.w3.org/2000/svg"
   xmlns:xlink="http://www.w3.org/1999/xlink"
   version="1.0"
   width="251"
   height="304.20001"
   id="svg4166">
  <defs
     id="defs4168" />
  <metadata
     id="metadata1880"><rdf:RDF><cc:Work
         rdf:about=""><dc:title>Skurup kommunvapen</dc:title><dc:date>30-10-2007</dc:date><dc:creator><cc:Agent><dc:title>Lokal_Profil and Marmelad</dc:title></cc:Agent></dc:creator><cc:license
         rdf:resource="http://creativecommons.org/licenses/by-sa/2.5/" /><dc:rights><cc:Agent><dc:title>cc-by-sa-2.5</dc:title></cc:Agent></dc:rights><dc:format>image/svg+xml</dc:format><dc:type
         rdf:resource="http://purl.org/dc/dcmitype/StillImage" /></cc:Work><cc:License
         rdf:about="http://creativecommons.org/licenses/by-sa/2.5/"><cc:permits
         rdf:resource="http://web.resource.org/cc/Reproduction" /><cc:permits
         rdf:resource="http://web.resource.org/cc/Distribution" /><cc:requires
         rdf:resource="http://web.resource.org/cc/Notice" /><cc:requires
         rdf:resource="http://web.resource.org/cc/Attribution" /><cc:permits
         rdf:resource="http://web.resource.org/cc/DerivativeWorks" /><cc:requires
         rdf:resource="http://web.resource.org/cc/ShareAlike" /></cc:License></rdf:RDF>
  </metadata>
  <path
     d="M 249.55058,1.4395041 L 1.4495291,1.4395041 L 1.4495291,174.9361 C 0.68228908,268.65698 81.738969,302.75585 125.50006,302.75585 C 168.49391,302.75585 250.31781,268.65698 249.55058,174.9361 L 249.55058,1.4395041 z "
     style="fill:#eeeeee;stroke:none"
     id="Shield" />
  <path
     d="M 116.19009,261.17117 C 104.88527,256.03313 99.881179,242.69003 105.02024,231.38748 C 110.15932,220.08492 123.50508,215.08183 134.8099,220.21987 C 146.11473,225.35791 151.11882,238.701 145.97975,250.00355 C 140.96565,261.03125 128.19237,266.09998 116.97903,261.51171"
     style="fill:#225500;stroke:none"
     id="Rundel" />
  <use
     transform="translate(46,24)"
     id="Rundel-2"
     x="0"
     y="0"
     width="251"
     height="304.20001"
     xlink:href="#Rundel" />
  <use
     transform="translate(-46,24)"
     id="Rundel-3"
     x="0"
     y="0"
     width="251"
     height="304.20001"
     xlink:href="#Rundel" />
  <g
     transform="matrix(1.015412,0,0,1.015412,-2.10203,-17.8493)"
     id="Tree">
    <g
       transform="matrix(0.380583,0,0,0.380583,-11.24511,62.72751)"
       id="Fruit">
      <g
         transform="matrix(0.898794,-0.438371,0.438371,0.898794,-81.59599,109.5691)"
         id="g1877">
        <path
           d="M 270.17955,263.82918 C 281.43703,265.84976 278.28331,274.41063 277.39589,278.26185 C 281.72569,289.23068 291.82855,306.82254 291.82855,309.43641 C 295.8697,316.65274 294.50729,337.36738 287.41526,338.83198 C 274.77157,341.08643 266.76255,327.47345 265.84975,324.73504 C 261.37563,312.17862 267.43735,279.70511 267.29302,272.77743 C 267.29302,271.04551 265.5611,263.82918 270.17955,263.82918 z "
           style="fill:#225500;stroke:none"
           id="path1873" />
        <path
           d="M 266.57849,273.24319 C 274.66078,280.45952 290.96259,310.87968 294.13778,318.96197"
           style="fill:none;stroke:#eeeeee;stroke-width:1px"
           id="path1875" />
      </g>
      <use
         transform="matrix(-1,0,0,1,550.4084,0)"
         id="use1881"
         x="0"
         y="0"
         width="393"
         height="463"
         xlink:href="#g1877" />
    </g>
    <use
       transform="matrix(-1,0,0,1,251.632,1.8359e-5)"
       style="stroke:none"
       id="Fruit-2"
       x="0"
       y="0"
       width="251"
       height="304.20001"
       xlink:href="#Fruit" />
    <use
       transform="matrix(0.951057,-0.309017,-0.309017,-0.951057,64.53788,270.8191)"
       style="stroke:none"
       id="Fruit-3"
       x="0"
       y="0"
       width="251"
       height="304.20001"
       xlink:href="#Fruit" />
    <use
       transform="matrix(-1,0,0,1,251.795,0)"
       style="stroke:none"
       id="Fruit-4"
       x="0"
       y="0"
       width="251"
       height="304.20001"
       xlink:href="#Fruit-3" />
    <path
       d="M 93.777378,150.4863 C 93.777378,149.4762 94.392347,142.37127 94.8974,140.35107 C 95.402448,138.33086 97.21717,135.43466 99.237371,133.41446 C 101.25757,131.39426 104.28788,130.38416 106.30808,130.88921 C 108.32828,131.39426 109.33838,133.41446 110.34848,135.93971 C 111.35858,138.46496 113.35162,141.68832 113.50659,145.22027 C 114.58955,169.90154 115.30027,172.18847 114.01165,197.14101 C 113.80165,201.20744 112.49649,204.21171 109.97124,203.70667 C 107.44599,203.20161 103.40558,199.16121 99.365176,199.16121 C 95.324772,199.16121 91.284368,203.20161 86.738916,203.20161 C 82.193459,203.20161 77.142954,199.16121 73.102548,198.15111 C 69.062144,197.14101 66.031841,199.16121 63.001538,199.66626 C 59.971235,200.17131 56.940932,199.16121 55.42578,199.16121 C 53.910629,199.16121 53.910629,200.17131 54.92073,201.18141 C 55.930831,202.19151 57.951033,203.20161 59.971235,203.70667 C 61.991437,204.21171 64.011639,204.21171 65.02174,204.71677 C 66.031841,205.22181 66.031841,206.23192 65.52679,207.24202 C 65.02174,208.25212 64.011639,209.26222 64.011639,209.76727 C 64.011639,210.27232 65.02174,210.27232 66.536891,209.26222 C 68.052043,208.25212 70.072245,206.23192 71.587396,205.22181 C 73.102548,204.21171 74.112649,204.21171 74.112649,204.71677 C 74.112649,205.22181 73.102548,206.23192 73.607598,206.73697 C 74.112649,207.24202 76.132851,207.24202 77.142954,207.74707 C 78.153055,208.25212 78.153055,209.26222 77.142954,210.77737 C 76.132851,212.29252 74.112649,214.31272 74.112649,215.32282 C 74.112649,216.33293 76.132851,216.33293 78.153055,215.32282 C 80.173257,214.31272 82.193459,212.29252 83.708613,211.78747 C 85.223762,211.28242 86.233863,212.29252 87.243964,212.29252 C 88.254065,212.29252 89.264166,211.28242 89.769219,211.78747 C 90.274267,212.29252 90.274267,214.31272 89.264166,216.33293 C 88.254065,218.35313 86.233863,220.37333 85.223762,221.88848 C 84.213661,223.40363 84.213661,224.41373 85.728815,224.41373 C 87.243964,224.41373 90.274267,223.40363 92.294469,223.90869 C 94.314671,224.41373 95.324772,226.43394 96.334873,227.44404 C 97.344974,228.45414 98.355075,228.45414 98.860128,227.94909 C 99.365176,227.44404 99.365176,226.43394 98.355075,224.91879 C 97.344974,223.40363 95.324772,221.38343 94.819724,218.85818 C 94.314671,216.33293 95.324772,213.30262 96.334873,211.28242 C 97.344974,209.26222 98.355075,208.25212 99.365176,208.25212 C 100.37528,208.25212 101.38538,209.26222 101.89044,210.77737 C 102.39548,212.29252 102.39548,214.31272 102.90054,215.32282 C 103.40558,216.33293 104.41569,216.33293 104.92074,215.32282 C 105.42579,214.31272 105.42579,212.29252 106.43589,211.78747 C 107.44599,211.28242 109.46619,212.29252 110.98134,212.79757 C 112.49649,213.30262 113.50659,213.30262 113.50659,214.31272 C 113.50659,215.32282 112.49649,217.34303 110.98134,218.85818 C 109.46619,220.37333 107.44599,221.38343 106.43589,223.40363 C 105.42579,225.42383 105.42579,228.45414 105.93084,229.96929 C 106.43589,231.48444 107.44599,231.48444 107.95104,230.47434 C 108.45609,229.46424 108.45609,227.44404 109.46619,225.92889 C 110.47629,224.41373 112.49649,223.40363 114.01165,223.40363 C 115.5268,223.40363 116.5369,224.41373 117.04195,225.92889 C 117.547,227.44404 117.547,229.46424 118.5571,229.96929 C 119.5672,230.47434 121.5874,229.46424 121.5874,226.93899 C 121.5874,224.41373 119.5672,220.37333 119.5672,216.83798 C 119.5672,213.30262 121.5874,210.27232 123.10256,208.75717 C 124.6177,207.24202 125.62781,207.24202 127.14296,207.74707 C 128.65811,208.25212 130.67831,209.26222 132.19346,210.77737 C 133.70861,212.29252 134.71871,214.31272 134.21366,215.82788 C 133.70861,217.34303 131.68841,218.35313 130.17326,219.86828 C 126.55812,222.44044 127.50594,226.43812 129.16316,230.01985 C 129.66821,230.5249 129.79637,228.56385 130.67831,226.4845 C 132.41269,222.39538 135.9595,222.15323 138.75912,222.89858 C 139.76922,223.40363 140.77932,224.41373 140.77932,226.43394 C 140.77932,228.45414 139.76922,231.48444 140.77932,231.98949 C 141.78942,232.49454 144.81972,230.47434 145.32478,227.44404 C 145.82982,224.41373 143.80962,220.37333 142.29447,217.34303 C 140.77932,214.31272 139.76922,212.29252 141.28437,211.78747 C 142.79952,211.28242 146.83992,212.29252 148.35508,213.30262 C 149.87023,214.31272 148.86013,215.32282 149.36518,215.82788 C 149.87023,216.33293 151.89043,216.33293 152.90053,215.32282 C 153.91063,214.31272 153.91063,212.29252 154.41568,211.28242 C 154.92073,210.27232 155.93083,210.27232 156.94093,211.28242 C 157.95104,212.29252 158.96114,214.31272 157.95104,216.83798 C 156.94093,219.36323 153.91063,222.39353 152.90053,224.91879 C 151.89043,227.44404 152.90053,229.46424 153.91063,229.96929 C 154.92073,230.47434 155.93083,229.46424 156.94093,227.94909 C 157.95104,226.43394 158.96114,224.41373 160.47629,223.90869 C 161.99144,223.40363 164.01164,224.41373 165.5268,224.41373 C 167.04194,224.41373 168.05205,223.40363 168.05205,222.39353 C 168.05205,221.38343 167.04194,220.37333 166.03184,219.86828 C 165.02174,219.36323 164.01164,219.36323 163.50659,217.84808 C 163.00154,216.33293 163.00154,213.30262 162.49649,211.28242 C 161.99144,209.26222 160.98134,208.25212 161.99144,208.25212 C 163.00154,208.25212 166.03184,209.26222 168.05205,209.76727 C 170.07225,210.27232 171.08235,210.27232 172.09245,211.28242 C 173.10255,212.29252 174.11265,214.31272 174.11265,215.82788 C 174.11265,217.34303 173.10255,218.35313 173.10255,219.36323 C 173.10255,220.37333 174.11265,221.38343 175.12275,220.87838 C 176.13285,220.37333 177.14295,218.35313 178.65811,217.34303 C 180.17326,216.33293 182.19346,216.33293 183.20356,215.82788 C 184.21366,215.32282 184.21366,214.31272 183.20356,213.80768 C 182.19346,213.30262 180.17326,213.30262 178.65811,212.29252 C 177.14295,211.28242 176.13285,209.26222 176.63791,208.75717 C 177.14295,208.25212 179.16316,209.26222 180.67831,208.75717 C 182.19346,208.25212 183.20356,206.23192 185.22376,205.72687 C 187.24396,205.22181 190.27427,206.23192 193.30457,205.72687 C 196.33487,205.22181 199.36518,203.20161 200.37528,201.68646 C 201.38538,200.17131 200.37528,199.16121 198.86013,199.66626 C 197.34497,200.17131 195.32477,202.19151 192.29447,202.19151 C 189.26417,202.19151 185.22376,200.17131 181.18336,200.67636 C 177.14295,201.18141 173.10255,204.21171 169.06215,203.70667 C 165.02174,203.20161 160.98134,199.16121 157.44599,198.65616 C 153.91063,198.15111 150.88033,201.18141 147.85003,201.68646 C 144.81972,202.19151 141.78942,200.17131 139.76922,197.64606 C 137.74902,195.1208 136.14472,192.12528 136.23387,188.55515 C 136.80964,165.20904 136.27104,166.01551 137.09626,144.21017 C 137.23132,140.64148 137.62121,136.44476 139.13636,134.42456 C 140.65151,132.40436 143.68181,132.40436 146.71212,133.41446 C 149.74242,134.42456 152.77272,136.44476 154.28788,138.46496 C 155.80302,140.48517 157.41226,149.30999 157.91732,150.32009 C 157.91732,150.32009 158.56512,150.46536 158.56512,150.46536 C 158.56512,148.9502 157.6264,138.66179 156.11125,136.64159 C 154.59609,134.62139 152.48494,131.4102 150.58705,130.41552 C 146.98249,128.52637 149.45014,123.90031 150.92087,120.28315 C 151.34624,119.23699 152.43602,118.26294 153.44612,117.75789 C 154.45622,117.25284 167.86976,121.84077 169.38492,121.84077 C 169.55328,120.49397 169.51991,120.96269 169.68825,119.61589 C 168.67815,119.61589 153.54322,114.91574 154.24185,114.02844 C 160.87058,102.69594 169.95512,93.149753 177.52841,82.483091 L 175.09884,81.071021 C 166.57095,92.29095 157.65933,102.9792 149.91077,114.72759 C 147.38552,118.26294 144.35521,122.30335 142.33501,124.32355 C 140.31481,126.34375 139.30471,126.34375 137.78956,126.34375 C 136.27441,126.34375 134.2542,126.34375 133.2441,125.33365 C 132.234,124.32355 132.234,122.30335 133.2441,120.7882 C 134.2542,119.27304 134.93338,117.59242 136.44853,116.58232 C 137.96368,115.57222 139.24198,114.29392 140.25208,112.77877 C 141.26218,111.26361 142.54049,110.04803 143.04555,108.53288 C 143.55059,107.01773 145.01417,100.13018 145.01417,99.120078 L 144.53183,98.637733 C 143.05642,104.40274 141.67372,109.30471 135.2643,113.71749 C 133.18434,115.1495 131.11256,116.33363 130.71885,115.73769 C 130.71885,115.73769 128.10858,63.73769 127.19318,63.73769 C 124.95552,63.73769 126.71787,63.73769 124.48021,63.73769 C 123.56481,63.73769 120.95454,115.73769 120.95454,115.73769 C 120.51396,116.29987 118.64176,114.89736 116.40909,113.71749 C 110.10022,110.38353 108.36823,104.22683 107.22011,98.778577 L 106.73777,99.10381 C 106.73777,100.11391 107.79231,107.15183 108.29736,108.66698 C 108.80241,110.18213 109.81251,111.7282 110.82261,113.24336 C 111.83271,114.75851 113.03246,115.76861 114.54762,116.77871 C 116.06277,117.78881 117.41919,119.27304 118.42929,120.7882 C 119.43939,122.30335 119.43939,124.32355 118.42929,125.33365 C 117.41919,126.34375 115.39899,126.34375 113.88384,126.34375 C 112.36868,126.34375 111.35858,126.34375 109.33838,124.32355 C 107.31818,122.30335 104.28788,118.26294 101.76263,114.72759 C 99.237371,111.19223 77.823561,84.74937 76.812241,82.22461 C 76.812241,82.22461 74.887723,83.028548 74.887723,83.028548 C 76.526585,86.271958 94.558407,112.09678 96.709161,115.42844 C 97.321659,116.37724 83.196968,118.82623 82.186867,118.82623 C 82.186867,118.82623 82.69192,121.25284 82.69192,121.25284 C 89.103583,121.0594 94.720986,119.61656 100.75253,120.28315 C 103.67419,125.65633 101.86866,127.58181 99.742421,129.87911 C 98.286949,131.45167 95.742797,133.59491 94.352336,135.70287 C 93.373596,137.18665 92.837182,139.47506 92.837182,140.99022 C 92.837182,142.50537 93.29504,149.6103 93.29504,150.6204 L 93.777378,150.4863 z "
       style="fill:#225500;stroke:none"
       id="Trunk" />
    <path
       d="M 202.43701,119.91205 C 199.84602,121.15402 195.29825,131.96442 185.97139,128.51103 C 191.74257,133.40602 190.01418,138.48351 189.61456,142.19617 C 188.49681,142.71167 180.50311,142.40429 179.99462,140.71284 C 179.43712,140.39659 178.13078,142.28183 177.44378,142.24583 C 176.93153,142.16158 171.88601,136.50819 171.65941,135.40015 C 171.02666,135.4244 170.37051,136.99174 169.40027,136.88349 C 169.05678,136.86548 160.51629,127.81187 168.04727,119.91205 C 160.51629,112.01227 169.05678,102.95862 169.40027,102.94061 C 170.37051,102.83236 171.02666,104.4059 171.65941,104.43016 C 171.88601,103.32212 176.93153,97.662526 177.44378,97.578271 C 178.13078,97.542267 179.43712,99.427505 179.99462,99.111256 C 180.50311,97.419818 188.49681,97.118643 189.61456,97.634134 C 190.01418,101.34677 191.74257,106.41809 185.97139,111.31307 C 195.29825,107.8597 199.84602,118.67008 202.43701,119.91205 z "
       style="fill:#225500;stroke:none"
       id="Leaf" />
    <use
       transform="matrix(-1,0,0,1,251.135,0)"
       id="Leaf-2"
       x="0"
       y="0"
       width="251"
       height="304.20001"
       xlink:href="#Leaf" />
    <use
       transform="matrix(0.642788,-0.766044,0.766044,0.642788,-23.97548,134.5679)"
       id="Leaf-3"
       x="0"
       y="0"
       width="251"
       height="304.20001"
       xlink:href="#Leaf" />
    <use
       transform="matrix(-1,0,0,1,251.3306,0)"
       id="Leaf-4"
       x="0"
       y="0"
       width="251"
       height="304.20001"
       xlink:href="#Leaf-3" />
    <use
       transform="matrix(0,-1.217037,1.217037,0,-19.86329,269.5336)"
       id="Leaf-5"
       x="0"
       y="0"
       width="251"
       height="304.20001"
       xlink:href="#Leaf" />
  </g>
  <path
     d="M 249.55062,1.4395041 L 1.449569,1.4395041 L 1.449569,174.9361 C 0.68232904,268.65698 81.739009,302.75585 125.5001,302.75585 C 168.49395,302.75585 250.31785,268.65698 249.55062,174.9361 L 249.55062,1.4395041 z "
     style="fill:none;fill-opacity:0;stroke:#000000;stroke-width:1.88832211;stroke-linecap:round"
     id="Frame" />
</svg>
