<?xml version="1.0" encoding="UTF-8" standalone="no"?>
<!-- Created with Inkscape (http://www.inkscape.org/) -->
<svg
   xmlns:dc="http://purl.org/dc/elements/1.1/"
   xmlns:cc="http://web.resource.org/cc/"
   xmlns:rdf="http://www.w3.org/1999/02/22-rdf-syntax-ns#"
   xmlns:svg="http://www.w3.org/2000/svg"
   xmlns="http://www.w3.org/2000/svg"
   version="1.0"
   width="251"
   height="304.20001"
   id="svg4166">
  <defs
     id="defs4168" />
  <metadata
     id="metadata1880"><rdf:RDF><cc:Work
         rdf:about=""><dc:title>Sjobo kommunvapen</dc:title><dc:date>31-08-2007</dc:date><dc:creator><cc:Agent><dc:title>Lokal_Profil</dc:title></cc:Agent></dc:creator><cc:license
         rdf:resource="http://creativecommons.org/licenses/by-sa/2.5/" /><dc:rights><cc:Agent><dc:title>cc-by-sa-2.5</dc:title></cc:Agent></dc:rights><dc:format>image/svg+xml</dc:format><dc:type
         rdf:resource="http://purl.org/dc/dcmitype/StillImage" /></cc:Work><cc:License
         rdf:about="http://creativecommons.org/licenses/by-sa/2.5/"><cc:permits
         rdf:resource="http://web.resource.org/cc/Reproduction" /><cc:permits
         rdf:resource="http://web.resource.org/cc/Distribution" /><cc:requires
         rdf:resource="http://web.resource.org/cc/Notice" /><cc:requires
         rdf:resource="http://web.resource.org/cc/Attribution" /><cc:permits
         rdf:resource="http://web.resource.org/cc/DerivativeWorks" /><cc:requires
         rdf:resource="http://web.resource.org/cc/ShareAlike" /></cc:License></rdf:RDF>
  </metadata>
  <path
     d="M 249.55058,1.4395041 L 125.50008,1.4395041 L 1.4495291,1.4395041 L 1.4495291,174.9361 C 0.68228908,268.65698 81.738969,302.75585 125.50006,302.75585 C 168.49391,302.75585 250.31781,268.65698 249.55058,174.9361 L 249.55058,1.4395041 z "
     style="color:#000000;fill:#ffcd50;fill-opacity:1;fill-rule:nonzero;stroke:none;stroke-width:1.88832211;stroke-linecap:round;stroke-linejoin:bevel;marker:none;marker-start:none;marker-mid:none;marker-end:none;stroke-miterlimit:4;stroke-dashoffset:0;stroke-opacity:1;visibility:visible;display:block"
     id="Shield" />
  <path
     d="M 1.1,1.0980162 L 1.1,91.292012 L 249.6,91.292012 L 249.6,1.0980162 L 125.35,1.0980162 L 1.1,1.0980162 z "
     style="color:#000000;fill:#000000;fill-opacity:1;fill-rule:nonzero;stroke:none;stroke-width:1.88832211;stroke-linecap:round;stroke-linejoin:bevel;marker:none;marker-start:none;marker-mid:none;marker-end:none;stroke-miterlimit:4;stroke-dashoffset:0;stroke-opacity:1;visibility:visible;display:block"
     id="Chef" />
  <path
     d="M 63,19.272623 C 71.951126,31.943702 77.346263,46.780343 78.624998,62.24139 L 78.624998,85.678889 C 109.65797,80.470546 141.34201,80.470546 172.37499,85.678889 L 172.37499,62.24139 C 173.65371,46.780343 179.04886,31.943702 187.99999,19.272623 C 184.17736,15.796811 178.2986,15.936436 174.64524,19.58978 C 170.99192,23.243124 170.85231,29.121858 174.32813,32.944515 L 171.51171,39.140249 C 169.86337,35.931498 166.23242,34.268514 162.72611,35.116451 C 159.21981,35.964389 156.74995,39.102749 156.74999,42.710123 C 156.75002,45.11314 157.85591,47.382452 159.74851,48.863154 C 161.64112,50.343874 164.10986,50.871233 166.44225,50.29303 L 164.56249,54.428874 C 163.72192,56.951046 161.36168,58.65231 158.70311,58.65231 C 156.04457,58.65231 153.68432,56.951046 152.84374,54.428874 L 152.84374,30.991388 C 155.0011,30.991388 156.74999,29.242499 156.74999,27.085124 C 156.74999,24.927765 155.0011,23.178874 152.84374,23.178874 C 150.68639,23.178874 148.93748,24.927765 148.93748,27.085124 C 148.93746,28.829296 150.09372,30.362138 151.77081,30.841202 L 145.03123,54.428874 C 144.12889,57.275592 141.27051,59.025514 138.32484,58.53456 C 135.37915,58.043609 133.24282,55.46125 133.3125,52.475749 L 132.43012,44.977062 C 134.78637,46.804936 137.97769,47.131999 140.65574,45.820045 C 143.33379,44.508092 145.03137,41.786015 145.03123,38.803889 C 145.03123,35.489014 142.93933,32.535031 139.81247,31.434514 C 136.68561,30.333983 133.20468,31.32653 131.12846,33.910655 L 130.64496,29.801717 C 134.6677,27.835999 137.21879,23.749936 137.21875,19.272623 C 137.21867,13.67342 133.25762,8.8564828 127.76389,7.7748108 L 127.45312,5.6007646 C 127.45312,4.5220769 126.57867,3.6476393 125.49999,3.6476393 C 124.42131,3.6476393 123.54687,4.5220769 123.54687,5.6007646 L 123.2361,7.7748108 C 117.74237,8.8564828 113.78132,13.67342 113.78123,19.272623 C 113.78117,23.749936 116.33228,27.835999 120.35502,29.801717 L 119.87152,33.910655 C 117.7953,31.32653 114.31438,30.333983 111.18751,31.434514 C 108.06066,32.535031 105.96876,35.489014 105.96876,38.803889 C 105.96862,41.786015 107.6662,44.508092 110.34424,45.820045 C 113.0223,47.131999 116.21361,46.804936 118.56987,44.977062 L 117.68748,52.475749 C 117.75716,55.46125 115.62084,58.043609 112.67515,58.53456 C 109.72948,59.025514 106.8711,57.275592 105.96876,54.428874 L 99.229152,30.841202 C 100.90625,30.362138 102.06253,28.829296 102.06251,27.085124 C 102.06251,24.927765 100.31362,23.178874 98.156252,23.178874 C 95.99889,23.178874 94.249997,24.927765 94.249997,27.085124 C 94.249997,29.242499 95.99889,30.991388 98.156252,30.991388 L 98.156252,54.428874 C 97.315667,56.951046 94.955425,58.65231 92.296878,58.65231 C 89.638307,58.65231 87.278076,56.951046 86.437498,54.428874 L 84.557716,50.29303 C 86.890135,50.871233 89.358867,50.343874 91.251467,48.863154 C 93.144081,47.382452 94.249962,45.11314 94.249997,42.710123 C 94.250033,39.102749 91.780183,35.964389 88.273889,35.116451 C 84.767575,34.268514 81.136623,35.931498 79.488278,39.140249 L 76.671873,32.944515 C 80.147684,29.121858 80.008075,23.243124 76.354731,19.58978 C 72.701391,15.936436 66.822641,15.796811 63,19.272623 z "
     style="fill:#ffcd50;fill-opacity:1;fill-rule:evenodd;stroke:none;stroke-width:1.0942663;stroke-linecap:butt;stroke-linejoin:miter;stroke-miterlimit:10"
     id="Crown" />
  <g
     transform="matrix(1.49801,0,0,2.033286,-80.1738,38.1525)"
     id="Bear-head">
    <path
       d="M 105.36496,74.945843 C 91.974251,65.561144 83.72977,74.958012 74.126254,76.877579 C 71.031035,76.717933 67.071252,75.632494 66.690785,72.047742 C 66.589393,70.62081 66.072958,68.927697 66.924616,67.662491 C 63.556311,68.549751 62.595268,71.094817 62.698323,74.31435 C 63.074293,79.364255 66.993102,82.748293 71.923198,82.873734 C 77.645477,83.024786 81.679889,78.351733 87.108163,77.129804 C 90.721375,76.579616 100.36765,74.483101 103.3486,76.615693 C 104.36182,77.299947 104.88514,75.357764 105.36496,74.945843 z "
       style="fill:#d40000"
       id="path13675" />
    <path
       d="M 73.15667,66.525627 C 74.738058,69.539248 76.340299,73.401838 79.697563,74.794144 C 78.904756,72.193635 79.371404,69.667013 79.923609,67.090092 C 77.750918,66.216349 75.436982,66.285885 73.15667,66.525627 z "
       style="fill:#d40000"
       id="path12800" />
    <path
       d="M 87.148292,81.695492 C 84.710127,80.060145 82.741933,77.853966 80.520681,75.951562 C 79.667174,75.098055 79.637,76.069598 79.637,76.835244 C 79.979653,79.199167 80.984347,81.468959 82.288044,83.462855 C 84.032987,83.283131 85.747887,82.766751 87.148292,81.695492 z "
       style="fill:#d40000;stroke:#ffcd50;stroke-width:0.5"
       id="path11925" />
    <path
       d="M 148.6875,37.625 C 147.24378,37.705143 145.85351,37.855494 144.40625,37.78125 C 136.24552,38.490281 128.02942,37.51449 119.96875,39.09375 C 119.17649,39.291811 118.60961,39.617835 117.625,39.6875 C 108.41057,40.335887 103.80505,45.217481 99.9375,45.28125 C 95.024431,44.967171 92.802434,47.543105 90.65625,51.1875 C 90.357688,51.784624 89.54137,51.934967 89.03125,52.0625 C 86.486307,52.784175 83.87159,53.464381 81.53125,54.71875 C 79.045229,56.051201 76.07693,55.925249 73.5625,57.0625 C 71.870344,57.827845 71.139749,58.368057 69.90625,59 C 68.239185,60.507618 68.619042,62.544179 69.75,64.28125 C 70.027515,64.836284 70.03125,65.377721 70.03125,66.21875 C 70.031253,66.973209 70.914299,66.78125 71.65625,66.78125 C 76.407802,68.038812 81.349593,68.498853 86.25,68.84375 C 90.20508,67.949716 93.442539,66.301096 98.75,66.5 C 105.83554,66.76554 110.34164,74.917701 100.375,79.75 C 98.312761,80.784094 96.403085,80.243589 94.34375,79.59375 C 92.38651,79.429227 90.395892,79.609212 88.59375,80.34375 C 86.904,82.707133 83.842268,81.645733 81.8125,83.15625 C 81.753703,84.471467 83.001936,85.381282 83.875,86.375 C 87.55108,88.423855 91.713911,86.978138 95.53125,85.9375 C 99.407223,85.287001 103.05178,84.900102 106.84375,86.09375 C 108.03081,87.947137 109.39977,89.50589 110.9375,90.8125 C 112.42606,97.88666 108.32637,106.07985 106.21875,112.15625 C 113.19193,109.7231 118.80214,105.43798 124.15625,102.78125 C 125.885,104.51352 133.93986,110.58145 140.34375,110.4375 C 142.30716,109.2424 140.52591,107.04639 138.59375,104.8125 C 143.29488,106.08482 154.74637,113.39072 169.53125,112.53125 C 169.82296,110.043 166.92369,107.09278 165.09375,104.28125 C 173.87805,105.66598 178.83444,110.49982 191.46875,108.40625 C 185.72618,104.69461 187.06226,96.75389 184.87159,90.773711 C 185.35845,88.320527 188.3897,90.753958 189.7882,91.690928 C 191.02973,88.293285 185.86096,80.532432 183.71757,76.564778 C 184.88328,74.640398 186.66322,73.273867 188.05149,71.558529 C 186.33936,67.073828 180.41499,65.205953 178.67905,61.02713 C 179.20547,58.570831 179.99691,56.171147 180.4375,53.6875 C 180.43695,53.680789 180.43826,53.662606 180.4375,53.65625 C 180.43431,53.646341 180.40963,53.634582 180.40625,53.625 C 180.4063,53.62248 180.40611,53.596862 180.40625,53.59375 C 180.40631,53.591215 180.40608,53.565691 180.40625,53.5625 C 180.40418,53.562715 180.37667,53.562438 180.375,53.5625 C 180.37187,53.557379 180.37823,53.536196 180.375,53.53125 C 180.371,53.53141 180.34491,53.531534 180.34375,53.53125 C 180.3398,53.531321 180.31377,53.531348 180.3125,53.53125 C 178.27338,53.108394 176.24996,53.564952 174.21255,53.775313 C 173.58783,52.085526 174.05667,50.096532 174.22093,48.322422 C 172.50545,48.434521 170.70973,48.94893 169.16213,49.618489 C 168.64453,47.698954 169.47488,45.772535 169.09713,43.90719 C 165.19081,43.266612 160.70251,42.928518 157.15625,45.03125 C 156.81531,44.376608 156.512,43.707992 156.21875,43.03125 C 156.19322,41.611192 156.97365,40.469948 157.62848,39.277203 C 156.71089,39.167406 155.57446,39.682444 154.625,40 C 152.96515,38.724067 150.74349,38.026911 148.6875,37.625 z "
       style="fill:#000000"
       id="path18970" />
    <path
       d="M 99.814394,47.968314 C 99.48392,47.968314 98.235502,47.968314 97.45791,47.968314 C 96.607419,47.968314 96.226729,48.142064 95.690547,48.410155 C 95.057524,48.726666 94.762893,48.895968 94.365025,49.293837 C 93.901663,49.757198 93.786849,50.166572 93.334063,50.619359 C 92.959559,50.993863 92.783782,51.71992 92.597662,52.092162 C 92.37108,52.545325 91.541862,52.871592 91.124859,52.975843 C 90.072383,53.238962 91.696554,53.486964 92.00854,53.564964 C 92.679443,53.732693 93.538093,53.550778 94.070464,53.417684 C 94.731876,53.252329 95.206554,52.723434 95.543267,52.386722 C 96.015429,51.914559 95.970438,53.653562 96.132388,54.301365 C 96.419484,55.449756 97.215769,53.807105 97.45791,53.564964 C 97.893211,53.129662 98.566653,52.975843 99.225273,52.975843 C 100.50227,52.975843 99.86765,53.076111 99.077993,52.681283 C 98.417069,52.350821 98.051184,51.837538 97.60519,51.50304 C 96.783914,50.887085 97.680256,49.955172 97.89975,49.735678 C 98.384314,49.251114 98.764191,48.890477 99.077993,48.262875 C 99.196223,48.026408 99.568925,48.066503 99.814394,47.968314 z "
       style="fill:#ffcd50"
       id="path10175" />
    <path
       d="M 130.74325,28.969162 C 127.2624,29.221291 123.86655,31.239226 121.75915,33.976691 C 120.14221,36.265178 119.01836,38.649878 118.22443,41.340703 C 117.53431,43.398682 117.39363,45.676738 118.22443,47.673754 C 118.37723,47.750151 118.53648,47.820345 118.70309,47.894674 C 119.08991,46.781713 119.54995,45.169389 119.54995,44.728149 C 119.70263,40.922251 121.34491,36.525303 124.11564,33.829411 C 130.5634,30.438602 137.4893,29.320892 142.23111,36.185894 C 144.00074,39.275154 143.03305,42.250083 141.78927,45.46455 C 140.42638,48.986842 138.05129,49.860402 135.45621,51.944881 C 135.15762,52.243471 133.65589,53.254044 132.4922,53.896345 C 133.26908,54.017173 134.09859,54.014829 134.71981,53.859524 C 138.48751,52.624961 140.97702,49.576946 143.40935,46.642792 C 145.42122,43.547104 146.02878,39.054181 144.58759,35.596773 C 142.06014,29.231049 136.53279,28.640138 130.74325,28.969162 z "
       style="fill:#ffcd50"
       id="path15425" />
    <path
       d="M 118.21468,49.24762 C 118.42769,49.119816 119.5402,45.657446 119.5402,44.976493 C 119.69289,41.170589 120.90726,36.773665 124.10589,34.077754 C 126.47778,32.078651 129.78949,31.273452 132.94271,30.984869 C 140.93781,30.888317 146.09818,37.464997 141.77952,45.712894 C 139.75376,49.581743 138.04154,50.108741 135.44647,52.193225 C 134.99683,52.642866 131.82728,54.696989 131.17534,54.696989 C 126.52851,53.782735 122.56041,50.724746 118.21468,49.24762 z "
       style="fill:#000000"
       id="path2230" />
  </g>
  <path
     d="M 249.55062,1.4395041 L 125.50012,1.4395041 L 1.449569,1.4395041 L 1.449569,174.9361 C 0.68232904,268.65698 81.739009,302.75585 125.5001,302.75585 C 168.49395,302.75585 250.31785,268.65698 249.55062,174.9361 L 249.55062,1.4395041 z "
     style="color:#000000;fill:none;fill-opacity:0;fill-rule:nonzero;stroke:#000000;stroke-width:1.88832211;stroke-linecap:round;stroke-linejoin:bevel;marker:none;marker-start:none;marker-mid:none;marker-end:none;stroke-miterlimit:4;stroke-dashoffset:0;stroke-opacity:1;visibility:visible;display:block"
     id="Frame" />
</svg>
