<?xml version="1.0" encoding="UTF-8" standalone="no"?>
<!-- Created with Inkscape (http://www.inkscape.org/) -->
<svg
   xmlns:dc="http://purl.org/dc/elements/1.1/"
   xmlns:cc="http://web.resource.org/cc/"
   xmlns:rdf="http://www.w3.org/1999/02/22-rdf-syntax-ns#"
   xmlns:svg="http://www.w3.org/2000/svg"
   xmlns="http://www.w3.org/2000/svg"
   version="1.0"
   width="251"
   height="304.20001"
   id="svg4166">
  <defs
     id="defs4168" />
  <metadata
     id="metadata1880"><rdf:RDF><cc:Work
         rdf:about=""><dc:title>Horby kommunvapen</dc:title><dc:date>31-08-2007</dc:date><dc:creator><cc:Agent><dc:title>Lokal_Profil</dc:title></cc:Agent></dc:creator><cc:license
         rdf:resource="http://creativecommons.org/licenses/by-sa/2.5/" /><dc:rights><cc:Agent><dc:title>cc-by-sa-2.5</dc:title></cc:Agent></dc:rights><dc:format>image/svg+xml</dc:format><dc:type
         rdf:resource="http://purl.org/dc/dcmitype/StillImage" /></cc:Work><cc:License
         rdf:about="http://creativecommons.org/licenses/by-sa/2.5/"><cc:permits
         rdf:resource="http://web.resource.org/cc/Reproduction" /><cc:permits
         rdf:resource="http://web.resource.org/cc/Distribution" /><cc:requires
         rdf:resource="http://web.resource.org/cc/Notice" /><cc:requires
         rdf:resource="http://web.resource.org/cc/Attribution" /><cc:permits
         rdf:resource="http://web.resource.org/cc/DerivativeWorks" /><cc:requires
         rdf:resource="http://web.resource.org/cc/ShareAlike" /></cc:License></rdf:RDF>
  </metadata>
  <path
     d="M 249.55058,1.4395041 L 125.50008,1.4395041 L 1.4495291,1.4395041 L 1.4495291,174.9361 C 0.68228908,268.65698 81.738969,302.75585 125.50006,302.75585 C 168.49391,302.75585 250.31781,268.65698 249.55058,174.9361 L 249.55058,1.4395041 z "
     style="color:#000000;fill:#eeeeee;fill-opacity:1;fill-rule:nonzero;stroke:none;stroke-width:1.88832211;stroke-linecap:round;stroke-linejoin:bevel;marker:none;marker-start:none;marker-mid:none;marker-end:none;stroke-miterlimit:4;stroke-dashoffset:0;stroke-opacity:1;visibility:visible;display:block"
     id="Shield" />
  <path
     d="M 1.4375,116.9375 L 1.4375,163.09375 L 85.6875,211.75 L 22.5,248.21875 C 30.702626,260.11162 40.736158,269.83863 51.5625,277.59375 L 125.6875,234.8125 L 199.40625,277.375 C 210.22997,269.60466 220.25399,259.89301 228.46875,248 L 165.65625,211.75 L 249.5625,163.3125 L 249.5625,117.125 L 125.6875,188.65625 L 1.4375,116.9375 z "
     style="fill:#d40000;fill-opacity:1;stroke:none;stroke-width:0.1;stroke-miterlimit:4;stroke-opacity:1"
     id="Andreaskors" />
  <path
     d="M 1.223,1.1697392 L 1.223,146.93101 L 249.03918,146.93101 L 249.03918,1.1697392 L 125.13109,1.1697392 L 1.223,1.1697392 z "
     style="fill:#d40000;fill-opacity:1;fill-rule:nonzero;stroke:none;stroke-width:1.88800001;stroke-miterlimit:4;stroke-dasharray:none;stroke-opacity:1"
     id="Delning" />
  <g
     transform="matrix(0.955226,0,0,0.955226,14.31679,-8.813369)"
     id="Scales">
    <path
       d="M 118.49725,28.794822 C 116.84711,29.133473 115.20638,28.967412 113.55988,28.720013 L 110.35808,55.848433 L 121.68409,55.848433 L 118.49725,28.794822 z "
       style="fill:#eeeeee;fill-opacity:1;stroke:#d40000;stroke-width:1.43632329;stroke-miterlimit:4;stroke-dasharray:none;stroke-opacity:1"
       id="path2792" />
    <path
       d="M 110.80693,43.041217 C 110.809,43.10953 110.83685,43.166776 110.83685,43.235722 C 110.83685,43.995844 110.70668,44.71819 110.47777,45.375242 C 110.24886,46.032294 109.91517,46.614793 109.50526,47.110801 C 109.09536,47.606804 108.61193,48.015789 108.06894,48.292775 C 107.52595,48.569761 106.93164,48.726665 106.30346,48.726665 L 67.617847,48.726665 L 67.617847,57.389488 L 115.69941,57.389488 L 116.40261,57.389488 L 164.48417,57.389488 L 164.48417,48.726665 L 125.79855,48.726665 C 125.17038,48.726665 124.57606,48.569761 124.03307,48.292775 C 123.49008,48.015789 123.00665,47.606804 122.59675,47.110801 C 122.18685,46.614793 121.85314,46.032294 121.62424,45.375242 C 121.39533,44.71819 121.26516,43.995844 121.26516,43.235722 C 121.26516,43.166776 121.29302,43.10953 121.29508,43.041217 L 116.40261,43.041217 L 115.69941,43.041217 L 110.80693,43.041217 z "
       style="fill:#eeeeee;fill-opacity:1;stroke:#d40000;stroke-width:1.43632329;stroke-miterlimit:4;stroke-dasharray:none;stroke-opacity:1"
       id="path2795" />
    <g
       transform="matrix(0.478774,0,0,0.478774,-144.2666,-23.56827)"
       id="g2799">
      <g
         id="g2834">
        <path
           d="M 392.875,316.53125 C 401.27961,334.02254 418.92366,346.09376 439.3125,346.09375 C 459.70562,346.09375 477.3475,334.0285 485.75,316.53125 L 392.875,316.53125 z "
           style="opacity:1;fill:#eeeeee;fill-opacity:1;stroke:none;stroke-width:3;stroke-miterlimit:4;stroke-dasharray:none;stroke-opacity:1"
           id="path2801" />
        <path
           d="M 442.69626,168.31586 L 482.28523,316.06389"
           style="fill:none;fill-opacity:0.75;fill-rule:evenodd;stroke:#eeeeee;stroke-width:3;stroke-linecap:butt;stroke-linejoin:miter;stroke-miterlimit:4;stroke-dasharray:none;stroke-opacity:1"
           id="path2803" />
        <path
           d="M 434.28523,168.31586 L 394.69626,316.06389"
           style="fill:none;fill-opacity:0.75;fill-rule:evenodd;stroke:#eeeeee;stroke-width:3;stroke-linecap:butt;stroke-linejoin:miter;stroke-miterlimit:4;stroke-dasharray:none;stroke-opacity:1"
           id="path2805" />
      </g>
    </g>
    <g
       transform="matrix(0.478774,0,0,0.478774,-43.60691,-23.56827)"
       id="g2807">
      <g
         id="g2829">
        <path
           d="M 442.69626,168.31586 L 482.28523,316.06389"
           style="fill:none;fill-opacity:0.75;fill-rule:evenodd;stroke:#eeeeee;stroke-width:3;stroke-linecap:butt;stroke-linejoin:miter;stroke-miterlimit:4;stroke-dasharray:none;stroke-opacity:1"
           id="path2809" />
        <path
           d="M 434.28523,168.31586 L 394.69626,316.06389"
           style="fill:none;fill-opacity:0.75;fill-rule:evenodd;stroke:#eeeeee;stroke-width:3;stroke-linecap:butt;stroke-linejoin:miter;stroke-miterlimit:4;stroke-dasharray:none;stroke-opacity:1"
           id="path2811" />
        <path
           d="M 392.875,316.53125 C 401.27961,334.02254 418.92366,346.09376 439.3125,346.09375 C 459.70562,346.09375 477.3475,334.0285 485.75,316.53125 L 392.875,316.53125 z "
           style="opacity:1;fill:#eeeeee;fill-opacity:1;stroke:none;stroke-width:3;stroke-miterlimit:4;stroke-dasharray:none;stroke-opacity:1"
           id="path2813" />
      </g>
    </g>
    <path
       d="M 179.81628,53.350024 C 179.81628,55.772075 177.85282,57.735536 175.43077,57.735536 C 173.00872,57.735536 171.04526,55.772075 171.04526,53.350024 C 171.04526,50.927973 173.00872,48.964512 175.43077,48.964512 C 177.85282,48.964512 179.81628,50.927973 179.81628,53.350024 z "
       style="fill:#eeeeee;fill-opacity:1;stroke:none;stroke-width:1.43632185;stroke-miterlimit:4;stroke-dasharray:none;stroke-opacity:1"
       id="path2817" />
    <path
       d="M 61.818738,53.350024 C 61.818738,55.772075 59.855276,57.735536 57.43323,57.735536 C 55.011179,57.735536 53.047718,55.772075 53.047718,53.350024 C 53.047718,50.927973 55.011179,48.964512 57.43323,48.964512 C 59.855276,48.964512 61.818738,50.927973 61.818738,53.350024 z "
       style="fill:#eeeeee;fill-opacity:1;stroke:none;stroke-width:1.43632185;stroke-miterlimit:4;stroke-dasharray:none;stroke-opacity:1"
       id="path2821" />
    <rect
       width="6.7588792"
       height="12.717365"
       x="62.358658"
       y="47.501198"
       style="fill:#eeeeee;fill-opacity:1;stroke:#d40000;stroke-width:1.43632197;stroke-miterlimit:4;stroke-dasharray:none;stroke-opacity:1"
       id="rect2823" />
    <rect
       width="6.7588792"
       height="12.717365"
       x="163.12038"
       y="47.501198"
       style="fill:#eeeeee;fill-opacity:1;stroke:#d40000;stroke-width:1.43632197;stroke-miterlimit:4;stroke-dasharray:none;stroke-opacity:1"
       id="rect2825" />
    <path
       d="M 125.52049,24.415434 C 125.52049,26.950751 121.40993,29.006031 116.33929,29.006031 C 111.26865,29.006031 107.15809,26.950751 107.15809,24.415434 C 107.15809,21.880117 111.26865,19.824832 116.33929,19.824832 C 121.40993,19.824832 125.52049,21.880117 125.52049,24.415434 L 125.52049,24.415434 z "
       style="fill:#eeeeee;fill-opacity:1;stroke:#d40000;stroke-width:1.43632329;stroke-miterlimit:4;stroke-dasharray:none;stroke-opacity:1"
       id="path2827" />
  </g>
  <g
     transform="matrix(0.154653,0,0,-0.154653,83.51387,168.1722)"
     id="Sword">
    <path
       d="M 254.81293,227.21933 C 265.02722,185.61219 277.95578,185.61219 287.67007,227.21933 C 297.38436,268.82647 300.38436,320.04076 289.67007,361.6479 C 278.95578,403.25504 261.52722,403.25504 250.81293,361.6479 C 240.09864,320.04076 244.59864,268.82647 254.81293,227.21933 z "
       style="fill:#eeeeee;fill-opacity:1;fill-rule:nonzero;stroke:none;stroke-width:5;stroke-miterlimit:4;stroke-dasharray:none;stroke-opacity:1"
       id="path2198" />
    <g
       transform="translate(5.076465,0)"
       id="g4551">
      <path
         d="M 244.45691,371.58029 L 285.87317,371.58029 L 279.87317,757.43822 L 265.16504,790.79361 L 250.45691,757.43822 L 244.45691,371.58029 z "
         style="fill:#eeeeee;fill-opacity:1;fill-rule:nonzero;stroke:none;stroke-width:5;stroke-miterlimit:4;stroke-opacity:1"
         id="path2201" />
      <path
         d="M 263.15625,375.0625 L 264.65179,742.09375 L 269.15625,375.0625 L 263.15625,375.0625 z "
         style="fill:#d40000;fill-opacity:1;fill-rule:evenodd;stroke:none;stroke-width:4;stroke-linecap:butt;stroke-linejoin:miter;stroke-miterlimit:4;stroke-dasharray:none;stroke-opacity:1"
         id="path2203" />
    </g>
    <rect
       width="161.86885"
       height="21.377804"
       x="189.3071"
       y="358.07336"
       style="fill:#eeeeee;fill-opacity:1;fill-rule:nonzero;stroke:#d40000;stroke-width:5;stroke-miterlimit:4;stroke-dasharray:none;stroke-opacity:1"
       id="rect2206" />
    <g
       transform="translate(0,4)"
       style="fill:#003d8f;fill-opacity:1"
       id="g2208">
      <path
         d="M 317.69297,37.924389 C 317.6989,53.828496 304.80773,66.724467 288.90363,66.724467 C 272.99952,66.724467 260.10835,53.828496 260.11428,37.924389 C 260.10835,22.020282 272.99952,9.1243109 288.90363,9.1243109 C 304.80773,9.1243109 317.6989,22.020282 317.69297,37.924389 L 317.69297,37.924389 z "
         transform="translate(-18.66212,191.199)"
         style="fill:#eeeeee;fill-opacity:1;fill-rule:nonzero;stroke:#d40000;stroke-width:5;stroke-miterlimit:4;stroke-dasharray:none;stroke-opacity:1"
         id="path2210" />
      <path
         d="M 161.6244,35.904083 C 161.62734,43.716645 155.29483,50.051537 147.48226,50.051537 C 139.6697,50.051537 133.33719,43.716645 133.34013,35.904083 C 133.33719,28.091521 139.6697,21.756629 147.48226,21.756629 C 155.29483,21.756629 161.62734,28.091521 161.6244,35.904083 L 161.6244,35.904083 z "
         transform="matrix(0.859198,0,0,0.859198,143.525,198.2747)"
         style="fill:#eeeeee;fill-opacity:1;fill-rule:nonzero;stroke:#d40000;stroke-width:4.65550423;stroke-miterlimit:4;stroke-dasharray:none;stroke-opacity:1"
         id="path2212" />
    </g>
  </g>
  <path
     d="M 249.55062,1.4395041 L 125.50012,1.4395041 L 1.449569,1.4395041 L 1.449569,174.9361 C 0.68232904,268.65698 81.739009,302.75585 125.5001,302.75585 C 168.49395,302.75585 250.31785,268.65698 249.55062,174.9361 L 249.55062,1.4395041 z "
     style="color:#000000;fill:none;fill-opacity:0;fill-rule:nonzero;stroke:#000000;stroke-width:1.88832211;stroke-linecap:round;stroke-linejoin:bevel;marker:none;marker-start:none;marker-mid:none;marker-end:none;stroke-miterlimit:4;stroke-dashoffset:0;stroke-opacity:1;visibility:visible;display:block"
     id="Frame" />
</svg>
