<?xml version="1.0" encoding="UTF-8" standalone="no"?>
<!-- Created with Inkscape (http://www.inkscape.org/) -->

<svg
   xmlns:dc="http://purl.org/dc/elements/1.1/"
   xmlns:cc="http://web.resource.org/cc/"
   xmlns:rdf="http://www.w3.org/1999/02/22-rdf-syntax-ns#"
   xmlns:svg="http://www.w3.org/2000/svg"
   xmlns="http://www.w3.org/2000/svg"
   version="1.0"
   width="251"
   height="304.20001"
   id="svg4166">
  <defs
     id="defs4168" />
   <metadata
           id="metadata1880"><rdf:RDF><cc:Work
     	   rdf:about=""><dc:title>Bastads kommunvapen</dc:title><dc:date>2009-01-25</dc:date><dc:creator><cc:Agent><dc:title>EnDumEn and Lokal_Profil</dc:title></cc:Agent></dc:creator><cc:license
     	   rdf:resource="http://creativecommons.org/licenses/by-sa/2.5/" /><dc:rights><cc:Agent><dc:title>cc-by-sa-2.5</dc:title></cc:Agent></dc:rights><dc:format>image/svg+xml</dc:format><dc:type
     	   rdf:resource="http://purl.org/dc/dcmitype/StillImage" /></cc:Work><cc:License
     	   rdf:about="http://creativecommons.org/licenses/by-sa/2.5/"><cc:permits
     	   rdf:resource="http://web.resource.org/cc/Reproduction" /><cc:permits
     	   rdf:resource="http://web.resource.org/cc/Distribution" /><cc:requires
     	   rdf:resource="http://web.resource.org/cc/Notice" /><cc:requires
     	   rdf:resource="http://web.resource.org/cc/Attribution" /><cc:permits
     	   rdf:resource="http://web.resource.org/cc/DerivativeWorks" /><cc:requires
     	   rdf:resource="http://web.resource.org/cc/ShareAlike" /></cc:License></rdf:RDF>
   </metadata>
  <path
     d="m 249.55058,1.4395041 -124.0505,0 -124.0505509,0 0,173.4965959 C 0.68228908,268.65698 81.738969,302.75585 125.50006,302.75585 c 42.99385,0 124.81775,-34.09887 124.05052,-127.81975 l 0,-173.4965959 z"
     id="Shield"
     style="fill:#eeeeee" />
  <g
     transform="matrix(-0.346711,0,0,0.346711,253.5597,-0.42404)"
     id="skepp"
     style="fill:#d40000;stroke:#eeeeee">
    <path
       d="m 528.76924,652.05089 3.00716,-517.54926 c 0.0251,-4.31777 4.9836,-4.87022 5.01189,0 l 3.00706,517.54926"
       id="fockmast" />
    <path
       d="m 343.29423,632.69208 2.99975,-547.995663 c 0.0287,-5.248605 4.97291,-4.867938 4.9996,0 l 2.99976,547.995663"
       id="stormast" />
    <path
       d="m 188.30666,591.45676 2.99976,-390.41761 c 0.0309,-4.43207 4.96758,-4.59105 4.9996,0 l 2.99976,390.41761"
       id="mesanmast" />
    <path
       d="m 465.17627,399.8179 c 57.47452,52.43122 23.64015,155.55593 0.26415,176.27741 109.13874,-39.43327 153.33799,-47.57485 143.2891,-7.63789 40.49397,-94.26889 5.43915,-117.31672 -13.94003,-139.94167 -57.43122,-13.69819 -75.82843,-20.90372 -129.61322,-28.69785 z"
       id="fock" />
    <path
       d="m 600.68536,428.65901 c -47.72827,-15.93919 -92.85205,-26.21384 -141.97061,-34.01947 -4.35575,-0.6921 -1.57937,-6.48425 0.51456,-6.28513 52.73757,5.01563 96.98532,16.55012 141.71813,33.14625 3.80339,1.41112 7.81087,9.85427 -0.26208,7.15835 z"
       id="fockrå" />
    <path
       d="m 558.91455,576.10343 149.4847,-98.21272 c 3.754,-2.46642 8.4543,1.69815 2.8237,5.6475 l -148.0728,103.8601"
       id="bogspröt" />
    <path
       d="m 92.947053,538.53175 c 28.850297,12.96005 23.865897,48.1446 0.7339,31.05938 24.144097,82.6872 -17.0018,28.9249 -7.3887,134.64067 l 474.499997,0 c 20.5907,0 93.8534,-67.48662 64,-168 -34.3544,33.4258 -75.3439,36.41023 -117.3659,41.02229 28.6648,27.7612 -213.0102,20.36662 -190.2117,-9.19238 -21.3322,-4.07187 -106.1693,-12.5555 -84.8528,-35.35534 -84.3544,-25.30272 -142.298797,-31.55407 -122.5574,-52.77569 7.2095,-7.7501 -39.676597,-29.2591 -35.866397,-19.8175 11.055,27.394 4.8042,72.03749 19.009,78.41857 z"
       id="skrov" />
    <path
       d="m 102.87445,545.01076 c 225.1123,123.27122 521.1642,59.0204 508.1095,27.69916 m -5.6353,-21.21361 c 0,0 57.7954,144.48853 -135.9892,145.33846 -193.7846,0.84993 -220.1325,0.84993 -220.1325,0.84993 -18.1535,-0.12864 -156.306997,17.31597 -136.4104,-131.71005 m -0.054,0.11774 c 109.7454,98.16116 505.8836,77.54168 500.3815,28.54004 m -501.9712,-11.19596 c 84.4371,97.53728 500.8315,81.52854 500.3701,32.28663 m -500.4776,-13.45595 c 50.1804,83.22662 458.7061,82.68748 490.9891,40.98935 m -486.2133,-12.09051 c 48.9715,73.27841 439.309,58.39069 461.2386,38.92065 M 83.034253,512.58082 c 91.249297,49.45371 202.523297,69.43194 268.920497,75.79579"
       id="skrovmönster"
       style="fill:none" />
    <path
       d="m 478.45622,260.33692 c 24.38619,29.04115 12.14425,87.05128 -12.96583,125.50151 104.75813,-14.01695 143.85487,-5.91729 136.49215,32.6769 23.78124,-64.56885 8.05592,-116.12321 -26.8842,-137.23509 -50.98591,-13.50636 -40.15286,-9.65374 -96.64212,-20.94332 z"
       id="förmärssegel" />
    <path
       d="m 588.97124,283.90802 c -51.08834,-17.3764 -62.90804,-20.02055 -117.49768,-26.66034 -4.73875,-0.57642 -2.38591,-5.28095 -0.11619,-5.07615 57.16466,5.15829 70.4208,9.04109 118.90877,26.10925 4.12277,1.45125 5.47467,7.92978 -1.2949,5.62724 z"
       id="förmärsrå" />
    <path
       d="m 482.75362,141.82523 c 22.58031,7.20526 30.57543,53.45168 -4.96308,109.426 93.35124,-11.43606 117.40757,-3.90919 110.03263,24.73914 23.95203,-52.53988 3.6791,-95.43592 -21.27266,-113.57775 -55.8649,-16.98296 -27.36969,-12.32972 -83.79689,-20.58739 z"
       id="förbramsegel" />
    <path
       d="m 571.74736,162.25217 c -55.3505,-20.03219 -49.27464,-17.35104 -91.06355,-22.88077 -3.67362,-0.48611 -1.84912,-4.53227 -0.09,-4.35651 44.304,4.427 54.57783,7.75936 92.15725,22.40781 3.19516,1.24552 4.26482,6.73622 -1.00366,4.82947 z"
       id="förbramrå" />
    <path
       d="m 281.63317,374.84048 c 80.03208,56.42883 33.7306,167.80263 -3.23004,194.87513 97.41129,-37.6612 184.71708,-47.87636 167.67715,2.7596 38.11292,-81.31768 2.704,-149.08244 -39.10042,-171.70808 -55.12037,-14.25504 -71.5736,-18.75723 -125.34669,-25.92665 z"
       id="storsegel" />
    <path
       d="m 423.12843,404.19191 c -47.72837,-15.93919 -92.85215,-26.21383 -141.97071,-34.01935 -4.35565,-0.69222 -1.57937,-6.48437 0.51466,-6.28514 52.73747,5.01552 96.98522,16.55002 141.71813,33.14615 3.80339,1.41111 7.81077,9.85437 -0.26208,7.15834 z"
       id="storrå" />
    <path
       d="m 297.84728,228.46089 c 22.58031,7.20527 35.88996,57.29667 -9.39185,131.53467 119.9239,-26.816 143.09448,2.81952 129.51925,31.46785 36.3526,-54.46237 8.99364,-119.46707 -15.95813,-137.6089 -55.86489,-16.98296 -47.74207,-17.13594 -104.16927,-25.39362 z"
       id="stormärssegel" />
    <path
       d="M 411.59849,255.22602 C 339.71641,229.158 347.60696,232.64699 293.3369,225.45113 c -4.77081,-0.63259 -2.4014,-5.89788 -0.11694,-5.66916 57.53633,5.76088 70.87866,10.0973 119.68195,29.15943 4.14948,1.6208 5.53859,8.76588 -1.30342,6.28462 z"
       id="stormärsrå" />
    <path
       d="m 305.7028,109.54478 c 22.58031,7.20526 30.57543,53.45168 -4.96308,109.426 93.35124,-11.43606 117.40757,-3.9092 110.03263,24.73914 23.95203,-52.53988 3.6791,-95.43593 -21.27266,-113.57776 C 333.63479,113.1492 362.13,117.80245 305.7028,109.54478 z"
       id="storbramsegel" />
    <path
       d="m 394.69654,129.97172 c -55.3505,-20.03219 -49.27464,-17.35105 -91.06355,-22.88077 -3.67362,-0.48611 -1.84912,-4.53227 -0.09,-4.35651 44.304,4.427 54.57784,7.75936 92.15725,22.40781 3.19516,1.24552 4.26482,6.73622 -1.00366,4.82947 z"
       id="storbramrå" />
    <path
       d="m 283.62662,507.69449 c 5.45947,9.04581 -2.33734,9.85592 -3.55234,7.6364 -40.03069,-73.12622 -101.53659,-138.50937 -168.86213,-198.28911 -5.03442,-4.47017 -2.1351,-9.59207 -0.47983,-8.16224 77.89256,67.28441 118.25569,108.28478 172.8943,198.81495 z"
       id="mesansegel" />
    <path
       d="m 112.0378,320.76912 c 59.7051,55.38326 115.03815,113.75922 165.00482,191.78551 -19.8523,-29.3586 -60.39403,-51.44631 -157.9356,-11.40006 30.12629,-114.12438 16.08082,-142.09488 -7.06922,-180.38545 z"
       id="mesanrå" />
  </g>
  <g
     transform="matrix(0.346711,0,0,0.346711,118.99545,-0.424039)"
     id="flagga">
    <path
       d="m 190.35856,276.75957 c -2.51932,0 -2.69124,-66.73467 0.76918,-66.73467 0,0 -15.35948,21.6348 -32.9857,19.0962 -28.20333,-4.06196 -36.99019,25.50611 -62.584091,33.76081 4.496701,22.48352 -4.878337,54.34801 -4.878337,54.34801 39.371268,-9.6633 40.722438,-41.923 70.462198,-33.39101 24.16266,6.93198 29.21675,-7.07934 29.21675,-7.07934 z"
       id="flaggbakgrund"
       style="fill:#000080;stroke:none" />
    <path
       d="m 146.16255,229.51912 c 1.67779,7.48013 2.75378,14.88607 3.34375,22.21875 -20.44548,0.83774 -29.34986,27.5433 -52.968743,31.4375 -0.236259,3.93554 -0.606841,7.81927 -1.125,11.46875 29.867903,-9.06478 36.242853,-31.52404 54.593743,-33.53125 0.18935,7.21759 -0.0558,14.36862 -0.625,21.46875 2.94258,0.0757 5.35597,2.56769 10.6875,1 -0.90163,-6.13258 -1.25986,-13.9853 -1.53125,-22.03125 11.17529,3.33856 22.09977,2.33105 30.09375,-4.46875 -0.0945,-4.35952 -0.14724,-9.04729 -0.125,-13.78125 -5.51006,6.3484 -14.63306,13.55183 -30.25,9.5625 -0.31054,-9.40831 -0.73372,-18.24784 -1.96875,-23.90625 -2.35579,-0.40449 -6.17765,-0.1104 -10.125,0.5625 z"
       id="flaggkors"
       style="fill:#eec400;stroke:none" />
  </g>
  <path
     d="m 249.55062,1.4395041 -124.0505,0 -124.050551,0 0,173.4965959 c -0.76723996,93.72088 80.28944,127.81975 124.050531,127.81975 42.99385,0 124.81775,-34.09887 124.05052,-127.81975 l 0,-173.4965959 z"
     id="Frame"
     style="fill:none;stroke:#000000;stroke-width:1.88832211;stroke-linecap:round;stroke-linejoin:bevel" />
</svg>
