<?xml version="1.0" encoding="UTF-8" standalone="no"?>
<!-- Created with Inkscape (http://www.inkscape.org/) -->
<svg
   xmlns:dc="http://purl.org/dc/elements/1.1/"
   xmlns:cc="http://web.resource.org/cc/"
   xmlns:rdf="http://www.w3.org/1999/02/22-rdf-syntax-ns#"
   xmlns:svg="http://www.w3.org/2000/svg"
   xmlns="http://www.w3.org/2000/svg"
   xmlns:xlink="http://www.w3.org/1999/xlink"
   version="1.0"
   width="251"
   height="304.20001"
   id="svg4166">
  <defs
     id="defs4168" />
  <metadata
     id="metadata1880"><rdf:RDF><cc:Work
         rdf:about=""><dc:title>Hoganas kommunvapen</dc:title><dc:date>24-09-2007</dc:date><dc:creator><cc:Agent><dc:title>Lokal_Profil</dc:title></cc:Agent></dc:creator><cc:license
         rdf:resource="http://creativecommons.org/licenses/by-sa/2.5/" /><dc:rights><cc:Agent><dc:title>cc-by-sa-2.5</dc:title></cc:Agent></dc:rights><dc:format>image/svg+xml</dc:format><dc:type
         rdf:resource="http://purl.org/dc/dcmitype/StillImage" /></cc:Work><cc:License
         rdf:about="http://creativecommons.org/licenses/by-sa/2.5/"><cc:permits
         rdf:resource="http://web.resource.org/cc/Reproduction" /><cc:permits
         rdf:resource="http://web.resource.org/cc/Distribution" /><cc:requires
         rdf:resource="http://web.resource.org/cc/Notice" /><cc:requires
         rdf:resource="http://web.resource.org/cc/Attribution" /><cc:permits
         rdf:resource="http://web.resource.org/cc/DerivativeWorks" /><cc:requires
         rdf:resource="http://web.resource.org/cc/ShareAlike" /></cc:License></rdf:RDF>
  </metadata>
  <path
     d="M 249.55058,1.4395041 L 1.4495291,1.4395041 L 1.4495291,174.9361 C 0.68228908,268.65698 81.738969,302.75585 125.50006,302.75585 C 168.49391,302.75585 250.31781,268.65698 249.55058,174.9361 L 249.55058,1.4395041 z "
     style="color:#000000;fill:#eeeeee;fill-opacity:1;stroke:none"
     id="Shield" />
  <g
     transform="translate(-73.76898,-7.276641)"
     id="Fackla">
    <path
       d="M 87.11757,96.276188 C 86.42359,88.932062 89.11785,85.913921 87.03593,78.821322 C 88.79126,79.87766 90.30167,81.889755 91.07726,83.600045 C 92.2611,75.954092 92.99588,67.805139 92.42438,60.561652 C 95.03697,61.366462 96.83315,67.000303 97.93531,69.666331 C 100.87448,58.801053 101.65009,48.992137 99.56818,43.157075 C 102.22162,43.509215 103.77283,47.332155 105.56898,51.65814 C 107.32431,48.790918 107.03857,42.855281 107.03857,36.718388 C 107.32431,33.800864 107.73253,30.531231 109.20212,28.971877 C 110.63087,42.704352 116.10099,41.547412 119.16262,56.839267 C 120.26482,53.821143 120.46894,50.551499 120.18317,46.426737 C 123.77549,48.992137 126.91875,58.599851 128.59244,72.332344 C 130.18449,71.326294 130.9193,67.453018 131.53163,63.076761 C 135.00144,69.1633 136.2261,76.758945 134.47079,85.813336 C 133.57271,88.378738 133.00118,90.994447 133.28694,93.911974 C 134.75651,92.805343 135.2464,90.139337 136.10364,87.926015 C 136.71595,91.195676 137.3283,95.068916 136.79761,97.885848 C 135.04227,114.18374 119.89003,116.94391 110.31682,116.86157 C 104.95682,116.81358 89.04342,113.12691 87.11757,96.276188 z "
       style="font-style:normal;font-variant:normal;font-weight:normal;font-stretch:normal;letter-spacing:normal;word-spacing:normal;text-anchor:start;fill:#d40000;fill-opacity:1;fill-rule:evenodd;stroke:none;stroke-width:0;stroke-linecap:butt;stroke-linejoin:miter;stroke-miterlimit:10.43299961;stroke-dasharray:none;stroke-dashoffset:0;stroke-opacity:1"
       id="Eld" />
    <path
       d="M 122.5,122.65745 C 122.5,158.34698 118.02,260.51757 112.49999,260.51757 C 106.98,260.51757 102.5,158.34698 102.5,122.65745 C 102.5,122.65745 122.5,122.65745 122.5,122.65745 z "
       style="fill:#000000;fill-opacity:1;fill-rule:nonzero;stroke:none;stroke-width:1;stroke-miterlimit:4;stroke-opacity:1"
       id="Fackla_del_1" />
    <path
       d="M 124.15434,128.26663 C 125.88041,127.676 129.20103,112.89765 126.44596,111.25471 C 116.36711,109.30985 108.27564,108.92739 98.195614,111.04897 C 96.090899,112.59194 99.295714,125.96003 100.76379,128.16091 C 109.15037,129.67187 115.75578,129.38245 124.15434,128.26663 z "
       style="fill:#000000;fill-opacity:1;fill-rule:evenodd;stroke:none;stroke-width:1.43160975;stroke-linecap:butt;stroke-linejoin:miter;stroke-miterlimit:4;stroke-dasharray:none;stroke-opacity:1;display:inline"
       id="Fackla_del_2" />
  </g>
  <use
     transform="translate(174.538,0)"
     id="Fackla-2"
     x="0"
     y="0"
     width="251"
     height="304.20001"
     xlink:href="#Fackla" />
  <path
     d="M 126.92718,27.906032 C 114.43525,27.906051 104.31908,37.673933 104.32284,49.685414 C 104.32003,58.694002 110.00976,66.40267 118.12746,69.704846 L 118.12746,85.489397 L 72.588738,85.489397 C 69.915101,85.489397 70.195978,99.45677 72.203748,99.514 L 117.46747,99.404 C 117.51821,110.20706 117.66036,120.99514 117.52248,131.79808 C 117.01267,154.113 116.57502,176.46635 116.36749,198.78617 C 116.27583,210.87412 115.8478,222.43925 115.37753,224.52545 C 113.60503,232.38854 108.66275,233.4449 93.378136,229.25532 C 77.482614,224.89832 57.707339,215.24254 54.384254,210.17086 C 51.742448,206.13888 51.320004,202.65588 53.229289,200.54613 C 54.18117,199.49429 55.586229,198.87264 56.364198,199.17118 C 57.224388,199.50121 58.13059,198.8033 58.674133,197.35623 C 60.587426,192.26233 54.202803,184.70599 41.624617,177.2268 C 38.567443,175.40889 33.572124,171.54567 30.514933,168.59203 C 27.307213,165.49299 24.512675,163.49913 23.86012,163.91717 C 21.829685,165.21784 17.656826,174.62362 16.380333,180.80169 C 13.814222,193.22139 17.095418,211.56093 23.145142,218.7506 C 26.338676,222.54588 28.120555,222.58275 28.86498,218.86062 C 30.176668,212.3022 38.3418,214.17221 47.234457,223.09549 C 54.272447,230.15769 67.631872,240.39697 73.468712,243.16992 C 75.69211,244.22621 78.895951,245.92208 80.563504,246.96481 C 82.231051,248.00751 87.226388,250.11877 91.673196,251.63967 C 100.98919,254.82602 111.8828,260.47946 116.20251,264.34432 C 117.84356,265.81252 120.31421,267.77965 121.70236,268.6892 C 124.13058,270.28026 124.34186,270.21798 125.99224,267.69921 C 129.42793,262.45565 135.32958,257.87671 144.3067,253.50961 C 149.35206,251.05517 154.21484,249.05475 155.14143,249.05475 C 157.11085,249.05479 173.72848,241.70587 183.74061,236.40512 C 191.58635,232.25132 195.15992,229.71931 203.92503,222.10551 C 213.82054,213.50981 218.80617,212.53089 223.99947,218.20063 L 227.24438,221.77552 L 229.33431,219.46558 C 233.10058,215.34678 234.49091,211.22979 235.21914,201.92109 C 235.77596,194.80297 235.54333,190.93914 234.17416,184.76157 C 232.01069,175.0001 228.36171,166.6337 225.64941,165.18212 C 223.9369,164.26558 223.373,164.52438 221.9095,166.88709 C 219.36482,170.9952 215.77775,174.23078 208.92988,178.65675 C 200.73033,183.95632 195.82167,189.44747 194.30031,194.88129 C 192.83073,200.13013 193.49167,202.03856 196.28026,200.54613 C 199.32225,198.91809 201.26811,199.34894 202.44008,201.92109 C 204.09009,205.54246 201.62597,208.4318 192.04536,214.13074 C 175.68233,223.86419 153.74173,231.84022 143.31673,231.84022 C 138.39743,231.84022 133.77187,229.93645 133.03203,227.60536 C 132.67527,226.48128 132.69766,213.21428 133.03203,198.1262 C 133.36641,183.03809 133.86022,155.03847 134.187,135.86798 C 134.51379,116.69747 134.93479,100.7519 135.12197,100.44897 C 135.30919,100.14611 145.78093,100.00205 158.33134,100.11898 C 184.37,100.36158 182.96622,100.8412 182.75063,91.37424 L 182.64064,85.489397 L 134.90195,85.489397 L 134.90195,69.979838 C 143.44653,66.87291 149.53447,58.989565 149.53158,49.685414 C 149.53533,37.673896 139.41915,27.906032 126.92718,27.906032 z M 137.38845,49.034428 C 137.39025,43.203608 132.4749,38.475872 126.41085,38.475872 C 120.34681,38.475872 115.43143,43.203608 115.43324,49.034428 C 115.43143,54.865265 120.34681,59.592983 126.41085,59.592983 C 132.4749,59.592983 137.39025,54.865265 137.38845,49.034428 z "
     style="fill:#d40000;fill-opacity:1;fill-rule:evenodd;stroke:none;stroke-width:10;stroke-miterlimit:4;stroke-opacity:1"
     id="Anchor" />
  <path
     d="M 249.55062,1.4395041 L 1.449569,1.4395041 L 1.449569,174.9361 C 0.68232904,268.65698 81.739009,302.75585 125.5001,302.75585 C 168.49395,302.75585 250.31785,268.65698 249.55062,174.9361 L 249.55062,1.4395041 z "
     style="fill:none;fill-opacity:0;stroke:#000000;stroke-width:1.88832211;stroke-linejoin:bevel"
     id="Frame" />
</svg>
