<?xml version="1.0" encoding="UTF-8" standalone="no"?>
<!-- Created with Inkscape (http://www.inkscape.org/) -->
<svg
   xmlns:dc="http://purl.org/dc/elements/1.1/"
   xmlns:cc="http://web.resource.org/cc/"
   xmlns:rdf="http://www.w3.org/1999/02/22-rdf-syntax-ns#"
   xmlns:svg="http://www.w3.org/2000/svg"
   xmlns="http://www.w3.org/2000/svg"
   xmlns:xlink="http://www.w3.org/1999/xlink"
   version="1.0"
   width="251"
   height="304.20001"
   id="svg4166">
  <defs
     id="defs4168" />
  <metadata
     id="metadata1880"><rdf:RDF><cc:Work
         rdf:about=""><dc:title>Eslov kommunvapen</dc:title><dc:date>20-10-2007</dc:date><dc:creator><cc:Agent><dc:title>Lokal_Profil</dc:title></cc:Agent></dc:creator><cc:license
         rdf:resource="http://creativecommons.org/licenses/by-sa/2.5/" /><dc:rights><cc:Agent><dc:title>cc-by-sa-2.5</dc:title></cc:Agent></dc:rights><dc:format>image/svg+xml</dc:format><dc:type
         rdf:resource="http://purl.org/dc/dcmitype/StillImage" /></cc:Work><cc:License
         rdf:about="http://creativecommons.org/licenses/by-sa/2.5/"><cc:permits
         rdf:resource="http://web.resource.org/cc/Reproduction" /><cc:permits
         rdf:resource="http://web.resource.org/cc/Distribution" /><cc:requires
         rdf:resource="http://web.resource.org/cc/Notice" /><cc:requires
         rdf:resource="http://web.resource.org/cc/Attribution" /><cc:permits
         rdf:resource="http://web.resource.org/cc/DerivativeWorks" /><cc:requires
         rdf:resource="http://web.resource.org/cc/ShareAlike" /></cc:License></rdf:RDF>
  </metadata>
  <path
     d="M 249.55058,1.4395041 L 1.4495291,1.4395041 L 1.4495291,174.9361 C 0.68228908,268.65698 81.738969,302.75585 125.50006,302.75585 C 168.49391,302.75585 250.31781,268.65698 249.55058,174.9361 L 249.55058,1.4395041 z "
     style="color:#000000;fill:#003d8f;fill-opacity:1;stroke:none"
     id="Shield" />
  <g
     transform="translate(0,8)"
     id="Bevingat-hjul">
    <use
       transform="matrix(-1,0,0,1,251,-1.024783e-6)"
       id="Wing-2"
       x="0"
       y="0"
       width="251"
       height="304.20001"
       xlink:href="#Wing" />
    <path
       d="M 126.18541,152.45658 C 96.994512,152.45658 73.302937,176.14819 73.302937,205.33912 C 73.302937,234.53003 96.994512,258.22164 126.18541,258.22164 C 155.3763,258.22164 179.06789,234.53003 179.06789,205.33912 C 179.06789,176.14816 155.3763,152.45658 126.18541,152.45658 z M 122.52783,160.07655 L 122.52783,196.04275 C 121.47509,196.4491 120.52478,197.02668 119.67579,197.74091 L 88.564614,179.77958 C 96.132342,168.72939 108.41828,161.19329 122.52783,160.07655 z M 129.82122,160.07655 C 143.93079,161.19329 156.23849,168.72939 163.80621,179.77958 L 132.69502,197.74091 C 131.84904,197.02916 130.86969,196.47064 129.82122,196.06454 L 129.82122,160.07655 z M 84.950579,186.09328 L 116.14883,204.11991 C 116.08829,204.56736 116.06176,205.02756 116.06176,205.49152 C 116.06176,206.09182 116.11377,206.68329 116.21416,207.25498 L 85.081206,225.21633 C 82.20463,219.24378 80.596323,212.56047 80.596321,205.49152 C 80.596321,198.55233 82.172488,191.98206 84.950579,186.09328 z M 167.42026,186.09328 C 170.19831,191.98206 171.75269,198.55233 171.75273,205.49152 C 171.75269,212.56047 170.14442,219.24378 167.26784,225.21633 L 136.13489,207.25498 C 136.23676,206.67922 136.28729,206.09637 136.28729,205.49152 C 136.28729,205.02335 136.26183,204.57124 136.20021,204.11991 L 167.42026,186.09328 z M 124.09536,201.87746 L 128.25369,201.89923 L 130.34371,205.49152 L 128.25369,209.10554 L 124.09536,209.10554 L 122.02711,205.49152 L 124.09536,201.87746 z M 119.98059,213.48158 C 120.75071,214.07875 121.60392,214.58349 122.52783,214.94025 L 122.52783,250.92826 C 108.5515,249.82205 96.367002,242.38835 88.782327,231.50824 L 119.98059,213.48158 z M 132.36847,213.48158 L 163.5885,231.50824 C 156.00381,242.38836 143.79751,249.82204 129.82122,250.92826 L 129.82122,214.94025 C 130.74443,214.58297 131.59902,214.07896 132.36847,213.48158 z "
       style="fill:#ffcd50;fill-opacity:1;fill-rule:evenodd;stroke:#003d8f;stroke-width:1.89826751;stroke-linecap:round;stroke-linejoin:round;stroke-miterlimit:4;stroke-dasharray:none;stroke-opacity:1"
       id="Hjul" />
    <path
       d="M 132.99368,207.49943 C 126.11035,207.48363 117.37198,203.82254 131.23439,201.26049 C 134.38174,200.6788 131.08582,192.97043 130.847,191.70257 C 130.36933,189.16685 135.50656,179.53791 137.79984,176.14738 C 140.09312,172.75687 144.80718,168.61155 144.58426,164.054 C 143.64994,144.71446 143.95206,140.6976 139.20678,131.27316 C 136.67613,126.24712 133.79889,120.85146 135.63154,116.81708 C 137.67314,112.32273 142.81197,107.35979 148.7471,103.98377 C 157.72815,98.875157 155.48863,100.25563 175.09409,91.858965 C 195.54182,83.101575 213.83259,71.901677 228.06954,65.884721 C 241.60986,60.162192 244.40856,62.064146 244.55061,63.196588 C 244.69317,64.328682 242.87522,66.754268 240.19973,69.530942 C 233.16511,76.867189 225.14835,83.109019 217.47197,89.732123 C 210.29396,96.038129 199.263,101.44487 191.6236,106.02949 C 184.16433,110.50598 185.8523,116.17323 190.92742,112.92692 C 196.85152,109.13757 207.34373,101.18063 215.65662,96.932741 C 223.40318,92.974258 227.74601,92.146129 228.59081,92.638848 C 228.01561,97.269223 222.6962,103.73411 219.27667,106.69554 C 209.33124,113.01942 199.83539,120.79756 189.4937,126.54068 C 185.00283,128.16991 186.35049,130.99958 188.92032,129.15672 C 192.07347,126.89552 197.27864,123.83917 201.10063,121.89391 C 204.60727,120.10916 208.45327,119.14857 208.65263,120.491 C 208.85247,121.83304 205.72066,128.01186 203.71406,130.09434 C 201.70744,132.17682 199.24528,133.22486 196.52222,134.93088 C 188.73913,139.80701 184.35423,141.445 176.97614,144.92034 C 175.07393,145.81633 176.47441,146.98222 179.1737,145.33476 C 182.32682,143.41031 187.53206,140.69064 190.68519,140.44973 C 193.83832,140.20882 194.60264,141.43655 193.64708,143.43873 C 188.53515,150.9812 180.60517,156.73844 171.82873,159.04262 C 170.50367,159.43024 169.95592,160.04315 171.46751,160.27102 C 172.9795,160.49849 176.51379,157.70813 178.08625,158.83723 C 179.78515,160.05714 179.12011,161.55898 177.64179,163.58695 C 176.16422,165.61486 173.70944,170.15973 170.93639,171.44379 C 168.16349,172.72698 165.07164,173.1064 163.43058,173.73165 C 161.78909,174.35739 161.59795,175.22938 162.67211,175.61892 C 163.74696,176.00836 166.08637,175.91533 166.90202,176.91065 C 167.71741,177.90553 167.00782,179.98924 165.54941,182.08688 C 164.09029,184.18453 162.74777,186.518 159.49111,189.2182 C 148.42636,198.39233 134.96178,206.19027 132.99368,207.49943 z "
       style="fill:#ffcd50;fill-opacity:1;stroke:#003d8f;stroke-width:1.88320816;stroke-miterlimit:4;stroke-dasharray:none;stroke-opacity:1"
       id="Wing" />
  </g>
  <path
     d="M 142.61007,43.389345 C 149.55005,50.993267 143.19775,65.646899 133.34824,73.911603 C 144.48082,71.843101 150.07104,58.948615 162.5212,73.118549 C 168.31364,82.244239 163.90197,92.100403 158.66234,95.190352 C 152.62676,98.111036 145.80138,102.5328 127.39635,79.932459 C 126.76239,87.1783 128.15371,100.83726 130.64413,107.13941 L 125.71954,111.27162 C 125.71954,111.27162 122.29435,102.39275 123.81498,81.534618 C 119.53566,81.768726 117.7265,84.410327 113.45861,87.991452 C 109.19038,91.572919 99.393382,99.233454 90.906554,88.4524 C 82.419125,77.670636 90.838235,68.368068 92.151272,67.266229 C 96.09114,63.960278 108.30746,57.625792 123.61813,73.871796 C 123.61813,73.871796 107.81924,53.293432 123.06604,40.766744 C 128.58439,36.231966 135.67013,35.785491 142.61007,43.389345 z "
     style="fill:#ffcd50;fill-opacity:1"
     id="Trifoil" />
  <path
     d="M 249.55062,1.4395041 L 1.449569,1.4395041 L 1.449569,174.9361 C 0.68232904,268.65698 81.739009,302.75585 125.5001,302.75585 C 168.49395,302.75585 250.31785,268.65698 249.55062,174.9361 L 249.55062,1.4395041 z "
     style="fill:none;fill-opacity:0;stroke:#000000;stroke-width:1.88832211;stroke-linejoin:bevel"
     id="Frame" />
</svg>
