<?xml version="1.0" encoding="UTF-8" standalone="no"?>
<!-- Created with Inkscape (http://www.inkscape.org/) -->
<svg
   xmlns:dc="http://purl.org/dc/elements/1.1/"
   xmlns:cc="http://web.resource.org/cc/"
   xmlns:xlink="http://www.w3.org/1999/xlink"
   xmlns:rdf="http://www.w3.org/1999/02/22-rdf-syntax-ns#"
   xmlns:svg="http://www.w3.org/2000/svg"
   xmlns="http://www.w3.org/2000/svg"
   version="1.0"
   width="251"
   height="304.20001"
   id="svg4166">
<metadata
   id="metadata1880"><rdf:RDF><cc:Work
         rdf:about=""><dc:title>Hylte kommunvapen</dc:title><dc:date>20-05-2007</dc:date><dc:creator><cc:Agent><dc:title>Lokal_Profil</dc:title></cc:Agent></dc:creator><cc:license
         rdf:resource="http://creativecommons.org/licenses/by-sa/2.5/" /><dc:rights><cc:Agent><dc:title>cc-by-sa-2.5</dc:title></cc:Agent></dc:rights><dc:format>image/svg+xml</dc:format><dc:type
         rdf:resource="http://purl.org/dc/dcmitype/StillImage" /></cc:Work><cc:License
         rdf:about="http://creativecommons.org/licenses/by-sa/2.5/"><cc:permits
         rdf:resource="http://web.resource.org/cc/Reproduction" /><cc:permits
         rdf:resource="http://web.resource.org/cc/Distribution" /><cc:requires
         rdf:resource="http://web.resource.org/cc/Notice" /><cc:requires
         rdf:resource="http://web.resource.org/cc/Attribution" /><cc:permits
         rdf:resource="http://web.resource.org/cc/DerivativeWorks" /><cc:requires
         rdf:resource="http://web.resource.org/cc/ShareAlike" /></cc:License></rdf:RDF>
</metadata>
  <defs
     id="defs4168" />
  <path
     d="M 249.55058,1.4395041 L 125.50008,1.4395041 L 1.4495291,1.4395041 L 1.4495291,174.9361 C 0.68228908,268.65698 81.738969,302.75585 125.50006,302.75585 C 168.49391,302.75585 250.31781,268.65698 249.55058,174.9361 L 249.55058,1.4395041 z "
     style="color:#000000;fill:#ffcd50;fill-opacity:1;fill-rule:nonzero;stroke:none;stroke-width:1.88832211;stroke-linecap:round;stroke-linejoin:bevel;marker:none;marker-start:none;marker-mid:none;marker-end:none;stroke-miterlimit:4;stroke-dashoffset:0;stroke-opacity:1;visibility:visible;display:block"
     id="Shield" />
  <path
     d="M 125.5,17.114359 C 86.860012,17.114359 55.5,48.474361 55.5,87.114361 C 55.5,125.75435 86.860002,157.11435 125.5,157.11435 C 164.13999,157.11435 195.5,125.75435 195.5,87.114361 C 195.5,48.474361 164.13999,17.114359 125.5,17.114359 z M 125.5,34.614352 C 128.60001,34.614352 131.64703,34.885692 134.6,35.401856 L 134.6,62.614353 L 116.39999,62.614353 L 116.39999,35.401856 C 119.35296,34.885692 122.39999,34.614352 125.5,34.614352 z M 101,40.695608 L 101,62.614353 L 79.081249,62.614353 C 84.017539,53.285796 91.671447,45.631899 101,40.695608 z M 150,40.695608 C 159.32856,45.631899 166.98246,53.285796 171.91876,62.614353 L 150,62.614353 L 150,40.695608 z M 73.787497,78.014357 L 101,78.014357 L 101,96.214356 L 73.787497,96.214356 C 73.271343,93.261405 73.000002,90.214373 73.000002,87.114361 C 73.000002,84.014339 73.271343,80.967307 73.787497,78.014357 z M 116.39999,78.014357 L 134.6,78.014357 L 134.6,96.214356 L 116.39999,96.214356 L 116.39999,78.014357 z M 150,78.014357 L 177.2125,78.014357 C 177.72867,80.967307 178,84.014339 178,87.114361 C 178,90.214373 177.72867,93.261405 177.2125,96.214356 L 150,96.214356 L 150,78.014357 z M 79.081249,111.61436 L 101,111.61436 L 101,133.53309 C 91.671447,128.59681 84.017539,120.94292 79.081249,111.61436 z M 116.39999,111.61436 L 134.6,111.61436 L 134.6,138.82685 C 131.64703,139.34302 128.60001,139.61436 125.5,139.61436 C 122.39999,139.61436 119.35296,139.34302 116.39999,138.82685 L 116.39999,111.61436 z M 150,111.61436 L 171.91876,111.61436 C 166.98246,120.94292 159.32856,128.59681 150,133.53309 L 150,111.61436 z "
     style="fill:#d40000;fill-opacity:1;fill-rule:evenodd;stroke:none;stroke-width:1.88800001;stroke-linecap:butt;stroke-miterlimit:4;stroke-opacity:1"
     id="Kvarnhjul" />
  <path
     d="M 33.40625,130.1875 C 16.398438,130.18751 11.537131,140.65542 1.4375,146.59375 L 1.4375,158.75 L 249.5625,158.75 L 249.5625,142.5 C 242.67478,136.80387 236.79101,130.1875 223.28125,130.1875 C 199.54424,130.18751 199.58075,150.625 175.84375,150.625 C 152.10674,150.62499 152.11201,130.1875 128.375,130.1875 C 104.63799,130.18751 104.64326,150.625 80.90625,150.625 C 57.16923,150.62499 57.143253,130.1875 33.40625,130.1875 z M 2.5625,194.75 C 4.2474917,208.15618 7.7771748,220.11294 12.625,230.75 L 238.28125,230.75 C 243.16474,220.11299 246.70526,208.15605 248.40625,194.75 L 2.5625,194.75 z M 212.3125,266.75 L 38.40625,266.75 C 65.322681,292.20641 101.17587,302.75 125.5,302.75 C 149.39553,302.74999 185.27607,292.20175 212.3125,266.75 z "
     style="color:#000000;fill:#003d8f;fill-opacity:1;fill-rule:nonzero;stroke:none;stroke-width:1.88832211;stroke-linecap:round;stroke-linejoin:bevel;marker:none;marker-start:none;marker-mid:none;marker-end:none;stroke-miterlimit:4;stroke-dashoffset:0;stroke-opacity:1;visibility:visible;display:block"
     id="VagskuraObjalkar" />
  <path
     d="M 249.55062,1.4395041 L 125.50012,1.4395041 L 1.449569,1.4395041 L 1.449569,174.9361 C 0.68232904,268.65698 81.739009,302.75585 125.5001,302.75585 C 168.49395,302.75585 250.31785,268.65698 249.55062,174.9361 L 249.55062,1.4395041 z "
     style="color:#000000;fill:none;fill-opacity:0;fill-rule:nonzero;stroke:#000000;stroke-width:1.88832211;stroke-linecap:round;stroke-linejoin:bevel;marker:none;marker-start:none;marker-mid:none;marker-end:none;stroke-miterlimit:4;stroke-dashoffset:0;stroke-opacity:1;visibility:visible;display:block"
     id="Frame" />
</svg>
