<?xml version="1.0" encoding="UTF-8" standalone="no"?>
<!-- Created with Inkscape (http://www.inkscape.org/) -->
<svg   
xmlns:dc="http://purl.org/dc/elements/1.1/" 
xmlns:cc="http://web.resource.org/cc/"
   xmlns:rdf="http://www.w3.org/1999/02/22-rdf-syntax-ns#"
  xmlns:svg="http://www.w3.org/2000/svg"
   
xmlns="http://www.w3.org/2000/svg"
      xmlns:xlink="http://www.w3.org/1999/xlink"
 
version="1.0"
   width="251"
   height="304.20001"
   id="svg4166"> 
<metadata
 id="metadata14"><rdf:RDF>
      
 <cc:Work
 rdf:about="">
  <dc:format>image/svg+xml</dc:format><dc:type
           rdf:resource="http://purl.org/dc/dcmitype/StillImage" />
   <cc:license
  rdf:resource="http://creativecommons.org/licenses/by-sa/2.5/" />

     <dc:title>Stenungsunds_kommunvapen</dc:title>
     <dc:date>21-01-2007</dc:date>
     <dc:creator>
      <cc:Agent><dc:title>Lokal_Profil</dc:title></cc:Agent>
     </dc:creator>

 </cc:Work>
 <cc:License
   rdf:about="http://creativecommons.org/licenses/by-sa/2.5/">

  <cc:permits 
 rdf:resource="http://web.resource.org/cc/Reproduction" />

  <cc:permits
  rdf:resource="http://web.resource.org/cc/Distribution" />
  <cc:requires rdf:resource="http://web.resource.org/cc/Notice" />
  <cc:requires
 rdf:resource="http://web.resource.org/cc/Attribution" />

  <cc:permits  rdf:resource="http://web.resource.org/cc/DerivativeWorks" />

  <cc:requires
 rdf:resource="http://web.resource.org/cc/ShareAlike" />
       </cc:License>

</rdf:RDF>
</metadata>  
  
<defs
     id="defs4168" />
  <g
     id="Stenungsunds_kommunvapen">
    <path
       d="M 1.4495603,1.4395041 L 125.50006,1.4395041 L 249.55061,1.4395041 L 249.55061,174.9361 C 250.31785,268.65698 169.26117,302.75585 125.50008,302.75585 C 82.506226,302.75585 0.68233088,268.65698 1.4495603,174.9361 L 1.4495603,1.4395041 z "
       style="color:#000000;fill:#eeeeee;fill-opacity:1;fill-rule:nonzero;stroke:none;stroke-width:1.88832211;stroke-linecap:round;stroke-linejoin:bevel;marker:none;marker-start:none;marker-mid:none;marker-end:none;stroke-miterlimit:4;stroke-dashoffset:0;stroke-opacity:1;visibility:visible;display:block"
       id="Shield" />
    <use
       transform="matrix(0,1,-1,0,151.4606,46.00348)"
       id="use2825"
       x="0"
       y="0"
       width="744.09448"
       height="1052.3622"
       xlink:href="#rect2803" />
    <use
       transform="matrix(0,1,-1,0,230.1654,46.00348)"
       id="use2827"
       x="0"
       y="0"
       width="744.09448"
       height="1052.3622"
       xlink:href="#rect2803" />
    <rect
       width="9.333334"
       height="45.600002"
       x="47.499989"
       y="36.570129"
       style="opacity:1;fill:#000000;fill-opacity:1;fill-rule:evenodd;stroke:none;stroke-width:1.88800001;stroke-linecap:butt;stroke-miterlimit:4;stroke-dasharray:none;stroke-opacity:1"
       id="rect2803" />
    <use
       transform="translate(-2.069634e-5,74.66668)"
       id="use2815"
       x="0"
       y="0"
       width="744.09448"
       height="1052.3622"
       xlink:href="#rect2803" />
    <use
       transform="translate(73.33338,-2.4e-5)"
       id="use2817"
       x="0"
       y="0"
       width="744.09448"
       height="1052.3622"
       xlink:href="#rect2803" />
    <use
       transform="translate(146.6667,-2.4e-5)"
       id="use2819"
       x="0"
       y="0"
       width="744.09448"
       height="1052.3622"
       xlink:href="#rect2803" />
    <use
       transform="translate(146.6667,74.66668)"
       id="use2821"
       x="0"
       y="0"
       width="744.09448"
       height="1052.3622"
       xlink:href="#rect2803" />
    <use
       transform="translate(73.33338,74.66668)"
       id="use2823"
       x="0"
       y="0"
       width="744.09448"
       height="1052.3622"
       xlink:href="#rect2803" />
    <path
       d="M 317.14286 496.64789 A 95.714287 95.714287 0 1 1  125.71429,496.64789 A 95.714287 95.714287 0 1 1  317.14286 496.64789 z"
       transform="matrix(0.278607,0,0,0.278607,-9.52488,-40.19942)"
       style="opacity:1;fill:#000000;fill-opacity:1;fill-rule:evenodd;stroke:none;stroke-width:1.88800001;stroke-linecap:butt;stroke-miterlimit:4;stroke-dasharray:none;stroke-opacity:1"
       id="path1896" />
    <use
       transform="translate(73.33338,-2.4e-5)"
       id="use2785"
       x="0"
       y="0"
       width="744.09448"
       height="1052.3622"
       xlink:href="#path1896" />
    <use
       transform="translate(146.6667,-2.4e-5)"
       id="use2787"
       x="0"
       y="0"
       width="744.09448"
       height="1052.3622"
       xlink:href="#path1896" />
    <path
       d="M 317.14286 496.64789 A 95.714287 95.714287 0 1 1  125.71429,496.64789 A 95.714287 95.714287 0 1 1  317.14286 496.64789 z"
       transform="matrix(0.139303,0,0,0.139303,21.32092,88.9854)"
       style="fill:#d40000;fill-opacity:1;fill-rule:evenodd;stroke:none;stroke-width:1.88800001;stroke-linecap:butt;stroke-miterlimit:4;stroke-dasharray:none;stroke-opacity:1"
       id="use2789" />
    <use
       transform="translate(73.33338,-2.4e-5)"
       id="use2791"
       x="0"
       y="0"
       width="744.09448"
       height="1052.3622"
       xlink:href="#use2789" />
    <use
       transform="translate(146.6667,-2.4e-5)"
       id="use2793"
       x="0"
       y="0"
       width="744.09448"
       height="1052.3622"
       xlink:href="#use2789" />
    <use
       transform="translate(-2.069634e-5,-120)"
       id="use2795"
       x="0"
       y="0"
       width="744.09448"
       height="1052.3622"
       xlink:href="#use2789" />
    <use
       transform="translate(73.33338,-120)"
       id="use2797"
       x="0"
       y="0"
       width="744.09448"
       height="1052.3622"
       xlink:href="#use2789" />
    <use
       transform="translate(146.6667,-120)"
       id="use2799"
       x="0"
       y="0"
       width="744.09448"
       height="1052.3622"
       xlink:href="#use2789" />
    <path
       d="M 35.09375,185.1875 C 18.33568,185.1875 13.545079,195.49262 3.59375,201.34375 C 16.702214,275.14854 86.815248,302.74999 125.5,302.75 C 165.58165,302.75 236.93393,274.13557 248.0625,197.3125 C 241.27592,191.70001 235.49888,185.1875 222.1875,185.1875 C 198.79904,185.1875 198.82595,205.3125 175.4375,205.3125 C 152.04904,205.31249 152.04471,185.1875 128.65625,185.1875 C 105.26779,185.1875 105.26345,205.3125 81.875,205.3125 C 58.486531,205.31249 58.482202,185.1875 35.09375,185.1875 z "
       style="color:#000000;fill:#003d8f;fill-opacity:1;fill-rule:nonzero;stroke:none;stroke-width:1.88832211;stroke-linecap:round;stroke-linejoin:bevel;marker:none;marker-start:none;marker-mid:none;marker-end:none;stroke-miterlimit:4;stroke-dashoffset:0;stroke-opacity:1;visibility:visible;display:block"
       id="use4509" />
    <path
       d="M 1.4495187,1.4395041 L 125.50002,1.4395041 L 249.55056,1.4395041 L 249.55056,174.9361 C 250.3178,268.65698 169.26112,302.75585 125.50004,302.75585 C 82.506185,302.75585 0.68228976,268.65698 1.4495187,174.9361 L 1.4495187,1.4395041 z "
       style="color:#000000;fill:#eeeeee;fill-opacity:0;fill-rule:nonzero;stroke:#000000;stroke-width:1.88832211;stroke-linecap:round;stroke-linejoin:bevel;marker:none;marker-start:none;marker-mid:none;marker-end:none;stroke-miterlimit:4;stroke-dashoffset:0;stroke-opacity:1;visibility:visible;display:block"
       id="Frame" />
  </g>
</svg>
