<?xml version="1.0" encoding="UTF-8" standalone="no"?>
<!-- Created with Inkscape (http://www.inkscape.org/) -->
<svg
   xmlns:dc="http://purl.org/dc/elements/1.1/"
   xmlns:cc="http://web.resource.org/cc/"
   xmlns:rdf="http://www.w3.org/1999/02/22-rdf-syntax-ns#"
   xmlns:svg="http://www.w3.org/2000/svg"
   xmlns="http://www.w3.org/2000/svg"
   version="1.0"
   width="251"
   height="304.20001"
   id="svg4166">
  <defs
     id="defs4168" />
<metadata
   id="metadata1880"><rdf:RDF><cc:Work
         rdf:about=""><dc:title>Tjorn kommunvapen</dc:title><dc:date>02-08-2007</dc:date><dc:creator><cc:Agent><dc:title>Lokal_Profil</dc:title></cc:Agent></dc:creator><cc:license
         rdf:resource="http://creativecommons.org/licenses/by-sa/2.5/" /><dc:rights><cc:Agent><dc:title>cc-by-sa-2.5</dc:title></cc:Agent></dc:rights><dc:format>image/svg+xml</dc:format><dc:type
         rdf:resource="http://purl.org/dc/dcmitype/StillImage" /></cc:Work><cc:License
         rdf:about="http://creativecommons.org/licenses/by-sa/2.5/"><cc:permits
         rdf:resource="http://web.resource.org/cc/Reproduction" /><cc:permits
         rdf:resource="http://web.resource.org/cc/Distribution" /><cc:requires
         rdf:resource="http://web.resource.org/cc/Notice" /><cc:requires
         rdf:resource="http://web.resource.org/cc/Attribution" /><cc:permits
         rdf:resource="http://web.resource.org/cc/DerivativeWorks" /><cc:requires
         rdf:resource="http://web.resource.org/cc/ShareAlike" /></cc:License></rdf:RDF>
</metadata>
  <path
     d="M 249.55058,1.4395041 L 125.50008,1.4395041 L 1.4495291,1.4395041 L 1.4495291,174.9361 C 0.68228908,268.65698 81.738969,302.75585 125.50006,302.75585 C 168.49391,302.75585 250.31781,268.65698 249.55058,174.9361 L 249.55058,1.4395041 z "
     style="color:#000000;fill:#eeeeee;fill-opacity:1;fill-rule:nonzero;stroke:none;stroke-width:1.88832211;stroke-linecap:round;stroke-linejoin:bevel;marker:none;marker-start:none;marker-mid:none;marker-end:none;stroke-miterlimit:4;stroke-dashoffset:0;stroke-opacity:1;visibility:visible;display:block"
     id="Shield" />
  <path
     d="M 249.55058,1.4395041 L 125.50008,1.4395041 L 1.4495291,1.4395041 L 1.4495291,174.9361 C 0.93005707,206.91617 12.661493,237.85261 32.095185,260.34181 C 32.105855,260.35416 32.117153,260.36594 32.128141,260.37801 L 249.55058,1.4395041 z "
     style="color:#000000;fill:#003d8f;fill-opacity:1;fill-rule:nonzero;stroke:none;stroke-width:1.88832211;stroke-linecap:round;stroke-linejoin:bevel;marker:none;marker-start:none;marker-mid:none;marker-end:none;stroke-miterlimit:4;stroke-dashoffset:0;stroke-opacity:1;visibility:visible;display:block"
     id="Ginstyckning" />
  <g
     transform="matrix(0.642788,-0.766044,0.766044,0.642788,-68.58803,143.9817)"
     id="Lobster">
    <path
       d="M 161.49964,249.12501 C 144.21263,249.0311 130.62244,245.93525 115.93726,234.56255 C 113.37384,232.57734 111.12472,230.68844 109.09353,228.87506 C 106.75576,232.7758 103.80367,236.20069 100.71855,238.00004 C 99.314328,240.65086 97.463619,243.79386 93.874819,245.50002 C 88.068165,248.26056 68.264198,249.37039 58.968659,246.62502 C 48.871902,243.81439 40.889425,235.49164 34.468722,227.78131 C 28.568829,220.69641 23.680848,210.24601 23.5625,200.68763 C 23.192597,197.14683 23.919596,190.79942 28.281238,193.18765 C 34.352483,196.33449 67.259494,231.26309 73.718621,222.00008 C 78.746121,215.29376 34.582505,194.48346 34.99997,192.37516 C 35.445567,190.12478 41.205565,190.85832 46.124942,191.03141 C 51.044318,191.2045 58.955244,195.295 64.687394,197.84389 C 75.064196,202.50409 83.530702,210.93798 92.374823,217.28134 C 93.219863,216.22906 94.191874,215.18391 95.218565,214.21885 C 89.965231,207.9568 84.988617,201.89137 75.531116,194.68765 C 56.718273,180.35802 43.999946,179.00019 43.999947,179.00019 C 51.760699,171.98792 60.745854,166.20673 70.03113,160.71899 L 48.624935,162.84398 L 68.312385,154.844 L 26.562492,151.96901 L 261.84314,151.96901 C 261.50653,158.72002 260.04825,162.9743 253.84316,165.56273 C 259.25624,177.44554 256.77324,186.23735 244.40568,186.37517 C 245.57213,202.25019 228.91571,204.40296 226.46823,198.84389 C 222.90249,183.84619 219.32863,173.03018 212.71826,166.68772 C 209.80205,169.16359 206.59927,169.34122 203.74954,167.00022 C 201.22924,170.5498 196.65504,171.14941 192.37457,168.93772 C 189.60428,170.98049 186.77626,173.46646 181.34334,169.87521 C 179.75815,172.26213 176.44329,173.78803 172.28087,174.0627 C 176.64662,178.10232 181.10309,183.82108 180.65585,184.84393 C 180.61022,184.94828 180.42975,185.13544 180.1871,185.34392 C 184.27796,189.00634 189.29599,197.97697 189.81207,199.53139 C 189.89823,199.79089 189.62301,200.1535 189.09332,200.56263 C 190.35195,202.44116 192.23125,206.89463 192.46832,207.50012 C 193.72034,210.69788 196.43787,216.2803 193.62456,216.65634 C 194.61749,220.81533 195.65131,226.75357 190.78082,231.06256 C 190.45379,228.79328 190.82754,223.09241 189.84332,222.62508 C 188.91883,222.18612 187.03576,224.72922 185.46833,227.90631 C 184.49271,223.79978 184.35547,219.493 185.90583,217.12509 C 184.9696,217.11406 184.27787,217.0073 184.18709,216.65634 C 183.31699,213.29234 181.7601,207.41356 182.34334,203.53138 C 182.16473,203.58451 181.99514,203.63579 181.81209,203.68763 C 179.52521,204.40615 176.62832,192.71519 175.37461,188.65642 C 175.30825,188.49602 175.27158,188.36241 175.21836,188.21892 C 174.80461,188.33048 174.49996,188.33627 174.34336,188.18767 C 172.0096,185.97311 168.2009,180.48425 165.99963,176.3752 C 164.42779,177.44724 162.83213,178.33109 161.18715,179.06269 C 163.93381,183.54183 166.16195,188.52306 165.81213,189.18766 C 165.73668,189.331 165.40296,189.60715 164.93714,189.90641 C 168.66809,193.74489 172.37027,204.12024 172.71837,205.78137 C 172.78755,206.11152 172.48445,206.47075 171.81212,206.84387 C 172.81627,208.62835 174.11199,212.92575 174.28086,213.5626 C 175.14449,216.81965 177.13661,222.54792 174.53086,222.81258 C 174.57498,222.8917 174.61125,222.94551 174.65586,223.03133 C 173.77308,228.00998 173.76142,232.16244 169.15588,235.31255 C 169.0891,233.0208 170.14304,227.38882 169.21837,226.81257 C 168.34983,226.27129 166.16828,228.58438 164.24964,231.56256 C 163.7616,227.48973 164.48936,224.21239 166.34338,222.37508 C 165.57849,222.25348 165.04434,222.0381 164.99964,221.71883 C 164.53329,218.38806 164.32383,212.4655 165.31214,208.62511 C 162.98859,208.85626 161.1828,197.04415 160.4059,192.9064 C 160.3097,192.56968 160.27284,192.32525 160.2184,192.06266 C 159.73428,192.16219 159.3702,192.15001 159.2184,191.96891 C 157.48024,189.89522 155.60743,185.29183 154.18716,181.28143 C 152.70949,181.59289 151.21962,181.8049 149.71843,181.96893 C 151.42731,186.49166 152.79613,192.16334 153.03092,194.7189 C 155.28629,199.57239 155.80638,208.13499 155.74966,209.71886 C 155.73879,210.02243 155.41586,210.27344 154.81216,210.46886 C 155.18655,212.40533 155.36531,215.28823 155.37466,215.84385 C 155.43245,219.27674 156.01533,225.46973 153.24967,224.84382 C 151.49125,228.98999 150.23691,232.58192 145.43719,234.37505 C 145.92236,232.13425 148.25903,226.90639 147.49968,226.12507 C 146.7864,225.39116 144.13951,227.10064 141.5622,229.53131 C 141.97427,226.20079 143.0528,223.58256 144.65594,222.00008 C 144.46824,221.8483 144.3897,221.68803 144.40594,221.53133 C 144.76584,218.05803 146.03116,213.92119 148.03093,210.71886 C 147.9982,210.71628 147.97012,210.72151 147.93718,210.71886 C 145.7472,210.60503 146.67234,201.86484 147.03093,197.09389 C 146.87478,197.03357 146.74136,196.95456 146.68718,196.84389 C 145.35323,194.119 144.53088,187.28257 144.09344,182.34393 C 143.3268,182.36174 142.57901,182.37518 141.8122,182.37518 C 140.27949,182.37518 138.62188,182.24907 136.87471,182.03143 C 137.80098,186.07246 138.07869,190.58492 137.81221,192.62516 C 139.2042,197.79012 138.42382,206.15259 138.1247,207.68762 C 138.0673,207.98224 137.7063,208.18114 137.09346,208.28137 C 137.15929,210.25217 136.85823,213.10738 136.78096,213.65635 C 136.30335,217.04994 135.90194,223.23981 133.28097,222.21883 C 130.8957,226.04192 129.11631,229.38354 124.09349,230.40631 C 124.92233,228.26865 128.03414,223.45281 127.40598,222.56258 C 126.81595,221.72637 123.92473,223.03252 120.99975,225.03132 C 121.92685,221.80426 123.41806,219.37511 125.24974,218.06259 C 125.08751,217.88308 125.02169,217.71506 125.06224,217.56259 C 125.95793,214.19438 127.84426,210.28734 130.31223,207.43762 C 130.29117,207.43256 130.27087,207.44273 130.24973,207.43762 C 128.10863,206.98442 130.36727,198.50728 131.46847,193.8439 C 131.32171,193.75954 131.22376,193.65011 131.18722,193.5314 C 130.16889,190.22287 130.76005,185.3112 131.18722,181.06269 C 128.56612,180.50594 125.82673,179.76631 122.99974,178.93769 C 123.15796,184.26947 122.95073,189.81988 120.99975,194.4689 C 119.89168,194.84968 119.6548,195.18363 118.46851,195.1564 C 118.40578,195.15108 118.34322,195.1323 118.28101,195.12515 C 118.32051,201.27931 121.35195,216.41708 116.18726,215.34385 C 115.38391,215.17691 114.61488,214.97611 113.84352,214.78135 C 113.80667,217.31772 113.05548,220.34749 111.84352,223.37508 C 113.30063,224.68151 114.87284,225.99805 116.65601,227.34382 C 129.43393,236.9874 144.30625,243.52743 159.87465,242.71878 C 184.41724,241.31152 209.52551,234.45099 209.34327,209.09386 C 209.2073,190.1746 191.24956,182.84393 191.24957,182.84393 C 206.46162,183.27146 213.44505,202.29619 213.65576,209.09386 C 214.09282,233.54815 187.48123,247.83193 161.49964,249.12501 z M 100.03105,210.25011 C 100.83827,209.66912 101.48505,209.26265 101.96855,208.96886 C 101.64088,207.83602 102.03705,205.72268 102.7498,204.25013 C 103.46151,202.77972 105.25291,195.9346 106.99979,192.25016 C 106.66221,192.47939 106.45818,192.8815 105.96854,193.06265 C 105.62937,187.50371 107.66872,179.86907 109.96853,174.5627 C 104.42707,172.50428 98.939055,170.28057 93.937319,168.12522 C 90.417447,169.74245 85.86803,171.5719 84.187344,170.53146 C 82.506656,169.49103 87.999834,164.28148 87.999834,164.28148 L 86.437338,163.50023 C 75.76017,165.24977 64.169323,169.50478 58.093661,176.4377 C 58.093661,176.4377 70.590806,181.70108 85.281091,194.37515 C 92.040866,200.20716 96.143544,205.3369 100.03105,210.25011 z "
       style="color:#000000;fill:#003d8f;fill-opacity:1;fill-rule:evenodd;stroke:none;stroke-width:1px;stroke-linecap:butt;stroke-linejoin:miter;marker:none;marker-start:none;marker-mid:none;marker-end:none;stroke-miterlimit:4;stroke-dasharray:none;stroke-dashoffset:0;stroke-opacity:1;visibility:visible;display:inline;overflow:visible"
       id="Bottom-half-Lobster" />
    <path
       d="M 161.5,54.8125 C 144.21294,54.906409 130.62272,58.002273 115.9375,69.375 C 113.37407,71.360208 111.12495,73.249124 109.09375,75.0625 C 106.75597,71.161747 103.80388,67.736851 100.71875,65.9375 C 99.314523,63.286675 97.463809,60.143656 93.875,58.4375 C 88.068331,55.676954 68.264313,54.567124 58.96875,57.3125 C 48.871967,60.123127 40.88947,68.445911 34.46875,76.15625 C 28.568842,83.241167 23.680849,93.691604 23.5625,103.25 C 23.192596,106.79081 23.919597,113.13824 28.28125,110.75 C 34.352511,107.60316 67.259607,72.674473 73.71875,81.9375 C 78.746263,88.643841 34.582534,109.45419 35,111.5625 C 35.445598,113.81288 41.205611,113.07934 46.125,112.90625 C 51.044389,112.73316 58.955335,108.64265 64.6875,106.09375 C 75.064329,101.43354 83.530857,92.999629 92.375,86.65625 C 93.220042,87.708528 94.192056,88.753685 95.21875,89.71875 C 89.965402,95.980817 84.988775,102.04626 75.53125,109.25 C 56.718359,123.57967 43.999999,124.9375 44,124.9375 C 51.760772,131.94979 60.74595,137.73099 70.03125,143.21875 L 48.625,141.09375 L 68.3125,149.09375 L 26.5625,151.96875 L 261.84375,151.96875 C 261.50714,145.21772 260.04886,140.96343 253.84375,138.375 C 259.25685,126.49215 256.77384,117.70032 244.40625,117.5625 C 245.5727,101.68744 228.91624,99.534669 226.46875,105.09375 C 222.903,120.09149 219.32913,130.90753 212.71875,137.25 C 209.80253,134.77413 206.59974,134.5965 203.75,136.9375 C 201.2297,133.38791 196.65549,132.7883 192.375,135 C 189.60471,132.95722 186.77668,130.47124 181.34375,134.0625 C 179.75855,131.67558 176.44368,130.14967 172.28125,129.875 C 176.64701,125.83537 181.1035,120.1166 180.65625,119.09375 C 180.61062,118.9894 180.43015,118.80223 180.1875,118.59375 C 184.27837,114.93132 189.29642,105.96067 189.8125,104.40625 C 189.89866,104.14675 189.62344,103.78414 189.09375,103.375 C 190.35238,101.49647 192.23168,97.042986 192.46875,96.4375 C 193.72078,93.239733 196.43832,87.657286 193.625,87.28125 C 194.61793,83.122248 195.65175,77.183998 190.78125,72.875 C 190.45422,75.144279 190.82797,80.845171 189.84375,81.3125 C 188.91926,81.751464 187.03618,79.208347 185.46875,76.03125 C 184.49312,80.1378 184.35588,84.444595 185.90625,86.8125 C 184.97002,86.823532 184.27828,86.930288 184.1875,87.28125 C 183.3174,90.645257 181.76051,96.52406 182.34375,100.40625 C 182.16514,100.35312 181.99555,100.30184 181.8125,100.25 C 179.52561,99.531485 176.62871,111.22247 175.375,115.28125 C 175.30864,115.44165 175.27197,115.57526 175.21875,115.71875 C 174.805,115.60719 174.50035,115.6014 174.34375,115.75 C 172.00998,117.96456 168.20127,123.45344 166,127.5625 C 164.42815,126.49045 162.83249,125.6066 161.1875,124.875 C 163.93417,120.39585 166.16232,115.41461 165.8125,114.75 C 165.73705,114.60666 165.40333,114.33051 164.9375,114.03125 C 168.66846,110.19276 172.37065,99.817393 172.71875,98.15625 C 172.78793,97.826105 172.48483,97.466873 171.8125,97.09375 C 172.81665,95.309265 174.11238,91.011855 174.28125,90.375 C 175.14488,87.117944 177.13701,81.389664 174.53125,81.125 C 174.57537,81.045882 174.61164,80.992075 174.65625,80.90625 C 173.77347,75.927576 173.76181,71.775112 169.15625,68.625 C 169.08947,70.916751 170.14342,76.548752 169.21875,77.125 C 168.3502,77.666277 166.16865,75.353182 164.25,72.375 C 163.76196,76.447836 164.48972,79.72518 166.34375,81.5625 C 165.57886,81.684096 165.0447,81.899481 165,82.21875 C 164.53365,85.549535 164.32419,91.472101 165.3125,95.3125 C 162.98895,95.08135 161.18315,106.89349 160.40625,111.03125 C 160.31005,111.36798 160.27319,111.61241 160.21875,111.875 C 159.73463,111.77547 159.37055,111.78765 159.21875,111.96875 C 157.48058,114.04244 155.60777,118.64584 154.1875,122.65625 C 152.70982,122.34479 151.21995,122.13278 149.71875,121.96875 C 151.42764,117.44601 152.79646,111.77432 153.03125,109.21875 C 155.28663,104.36525 155.80672,95.80263 155.75,94.21875 C 155.73913,93.915185 155.4162,93.664167 154.8125,93.46875 C 155.18689,91.532272 155.36565,88.649367 155.375,88.09375 C 155.43279,84.66085 156.01567,78.467844 153.25,79.09375 C 151.49158,74.947566 150.23724,71.355634 145.4375,69.5625 C 145.92268,71.803298 148.25935,77.031178 147.5,77.8125 C 146.78672,78.54641 144.13982,76.836929 141.5625,74.40625 C 141.97457,77.736784 143.05311,80.355022 144.65625,81.9375 C 144.46855,82.089283 144.39001,82.249554 144.40625,82.40625 C 144.76615,85.879561 146.03148,90.016411 148.03125,93.21875 C 147.99852,93.221326 147.97044,93.216097 147.9375,93.21875 C 145.74751,93.332585 146.67266,102.07279 147.03125,106.84375 C 146.8751,106.90407 146.74168,106.98308 146.6875,107.09375 C 145.35354,109.81865 144.53119,116.6551 144.09375,121.59375 C 143.32711,121.57594 142.57932,121.5625 141.8125,121.5625 C 140.27979,121.5625 138.62218,121.68861 136.875,121.90625 C 137.80127,117.86521 138.07898,113.35274 137.8125,111.3125 C 139.2045,106.14752 138.42412,97.785035 138.125,96.25 C 138.06759,95.955377 137.70659,95.756477 137.09375,95.65625 C 137.15958,93.685438 136.85852,90.830223 136.78125,90.28125 C 136.30364,86.887652 135.90223,80.697768 133.28125,81.71875 C 130.89598,77.895649 129.11658,74.55402 124.09375,73.53125 C 124.92259,75.668912 128.03441,80.484772 127.40625,81.375 C 126.81622,82.211206 123.92499,80.90506 121,78.90625 C 121.9271,82.133316 123.41832,84.562483 125.25,85.875 C 125.08777,86.054511 125.02195,86.22253 125.0625,86.375 C 125.95819,89.743224 127.84453,93.650266 130.3125,96.5 C 130.29144,96.505061 130.27114,96.494892 130.25,96.5 C 128.1089,96.953199 130.36755,105.43036 131.46875,110.09375 C 131.32199,110.17811 131.22404,110.28754 131.1875,110.40625 C 130.16916,113.71479 130.76033,118.62647 131.1875,122.875 C 128.56639,123.43175 125.82699,124.17138 123,125 C 123.15822,119.66821 122.95099,114.11778 121,109.46875 C 119.89193,109.08797 119.65505,108.75402 118.46875,108.78125 C 118.40602,108.78657 118.34346,108.80535 118.28125,108.8125 C 118.32075,102.65832 121.3522,87.520506 116.1875,88.59375 C 115.38415,88.76069 114.61511,88.961486 113.84375,89.15625 C 113.8069,86.619873 113.05571,83.59009 111.84375,80.5625 C 113.30086,79.256058 114.87308,77.93952 116.65625,76.59375 C 129.4342,66.950138 144.30656,60.410095 159.875,61.21875 C 184.41765,62.62601 209.52599,69.486564 209.34375,94.84375 C 209.20778,113.76306 191.24999,121.09375 191.25,121.09375 C 206.46209,120.66622 213.44554,101.64144 213.65625,94.84375 C 214.09331,70.389399 187.48165,56.105576 161.5,54.8125 z M 100.03125,93.6875 C 100.83847,94.268491 101.48525,94.674957 101.96875,94.96875 C 101.64108,96.101602 102.03725,98.214943 102.75,99.6875 C 103.46172,101.15791 105.25312,108.00305 107,111.6875 C 106.66242,111.45827 106.45839,111.05615 105.96875,110.875 C 105.62958,116.43396 107.66894,124.06862 109.96875,129.375 C 104.42728,131.43343 98.939249,133.65714 93.9375,135.8125 C 90.417619,134.19526 85.868191,132.36581 84.1875,133.40625 C 82.506808,134.44668 88,139.65625 88,139.65625 L 86.4375,140.4375 C 75.760305,138.68796 64.169428,134.43293 58.09375,127.5 C 58.09375,127.5 70.590927,122.2366 85.28125,109.5625 C 92.041042,103.73048 96.143731,98.600717 100.03125,93.6875 z "
       style="color:#000000;fill:#eeeeee;fill-opacity:1;fill-rule:evenodd;stroke:none;stroke-width:1px;stroke-linecap:butt;stroke-linejoin:miter;marker:none;marker-start:none;marker-mid:none;marker-end:none;stroke-miterlimit:4;stroke-dasharray:none;stroke-dashoffset:0;stroke-opacity:1;visibility:visible;display:inline;overflow:visible"
       id="Top-half-Lobster" />
  </g>
  <path
     d="M 249.55062,1.4395041 L 125.50012,1.4395041 L 1.449569,1.4395041 L 1.449569,174.9361 C 0.68232904,268.65698 81.739009,302.75585 125.5001,302.75585 C 168.49395,302.75585 250.31785,268.65698 249.55062,174.9361 L 249.55062,1.4395041 z "
     style="color:#000000;fill:none;fill-opacity:0;fill-rule:nonzero;stroke:#000000;stroke-width:1.88832211;stroke-linecap:round;stroke-linejoin:bevel;marker:none;marker-start:none;marker-mid:none;marker-end:none;stroke-miterlimit:4;stroke-dashoffset:0;stroke-opacity:1;visibility:visible;display:block"
     id="Frame" />
</svg>
