<?xml version="1.0" encoding="UTF-8" standalone="no"?>
<!-- Created with Inkscape (http://www.inkscape.org/) -->

<svg
   xmlns:dc="http://purl.org/dc/elements/1.1/"
   xmlns:cc="http://web.resource.org/cc/"
   xmlns:rdf="http://www.w3.org/1999/02/22-rdf-syntax-ns#"
   xmlns:svg="http://www.w3.org/2000/svg"
   xmlns="http://www.w3.org/2000/svg"
   xmlns:xlink="http://www.w3.org/1999/xlink"
   version="1.0"
   width="251"
   height="304.20001"
   id="svg4166">
  <defs
     id="defs4168" />
  <metadata 
     id="metadata1880"><rdf:RDF><cc:Work
         rdf:about=""><dc:title>Orust kommunvapen</dc:title><dc:date>2009-12-06</dc:date><dc:creator><cc:Agent><dc:title>Lokal_Profil</dc:title></cc:Agent></dc:creator><cc:license
         rdf:resource="http://creativecommons.org/licenses/by-sa/2.5/" /><dc:rights><cc:Agent><dc:title>cc-by-sa-2.5</dc:title></cc:Agent></dc:rights><dc:format>image/svg+xml</dc:format><dc:type
         rdf:resource="http://purl.org/dc/dcmitype/StillImage" /></cc:Work><cc:License
         rdf:about="http://creativecommons.org/licenses/by-sa/2.5/"><cc:permits
         rdf:resource="http://web.resource.org/cc/Reproduction" /><cc:permits
         rdf:resource="http://web.resource.org/cc/Distribution" /><cc:requires
         rdf:resource="http://web.resource.org/cc/Notice" /><cc:requires
         rdf:resource="http://web.resource.org/cc/Attribution" /><cc:permits
         rdf:resource="http://web.resource.org/cc/DerivativeWorks" /><cc:requires
         rdf:resource="http://web.resource.org/cc/ShareAlike" /></cc:License></rdf:RDF>
  </metadata>
  <path
     d="m 249.55058,1.4395041 -124.0505,0 -124.0505509,0 0,173.4965959 C 0.68228908,268.65698 81.738969,302.75585 125.50006,302.75585 c 42.99385,0 124.81775,-34.09887 124.05052,-127.81975 l 0,-173.4965959 z"
     id="Shield"
     style="fill:#003d8f;stroke:none" />
  <g
     transform="matrix(0.34205437,0,0,0.34205437,9.9203033,-158.09142)"
     id="Krans">
    <g
       transform="matrix(0.89879414,-0.43837115,0.43837115,0.89879414,-274.24478,266.06263)"
       id="Ek-kvist"
       style="fill:#ffcd50;stroke:#003d8f;stroke-width:1">
      <g
         id="Stam">
        <path
           d="m 480.21172,566.87064 c 31.28091,33.03884 62.37101,68.15143 78.92565,111.20873 25.21048,69.71186 18.34529,151.52796 -22.51882,213.98352 -34.38737,51.78892 -85.32047,91.51452 -141.96933,116.40151 -51.9452,21.5239 -112.11304,23.7726 -164.82707,3.5403 -20.11425,-7.3741 -38.88895,-17.91469 -57.51001,-28.31529 -8.44119,-1.4408 -13.87461,8.6475 -6.98846,13.2918 62.3501,40.62409 130.86012,42.24849 202.05359,28.19729 36.10617,-9.5344 69.76023,-27.27349 98.9907,-50.40159 44.35938,-33.22888 82.62487,-77.43862 99.75908,-130.90226 26.1323,-78.99391 9.28738,-171.3436 -45.16597,-234.64856 -13.72298,-16.78533 -28.87505,-32.35157 -44.68686,-47.16795 1.3125,1.60417 2.625,3.20833 3.9375,4.8125 z"
           id="path4454" />
        <path
           d="m 170.56919,983.29061 c -8.0782,-0.844 -12.1663,11.8146 -5.07622,13.6426 4.18219,-1.0102 10.6653,-12.0116 5.07622,-13.6426 z"
           id="path4456" />
      </g>
      <g
         id="g2961">
        <path
           d="m 474.83502,552.40496 c -4.50321,-5.5932 -14.06167,-2.88572 -17.7587,-7.30051 -3.9406,-4.70562 2.88639,-6.50968 -0.22627,-9.99048 -3.11273,-3.4808 -7.74634,-1.74743 -11.99783,-6.49758 -4.25156,-4.75015 -0.42177,-8.77644 -4.08929,-12.09901 -3.66758,-3.32257 -4.17232,0.8867 -8.37298,-3.72465 -4.2006,-4.61136 -1.7168,-12.71029 -6.3042,-18.55757 -4.48104,-5.71168 -2.9833,-12.49977 2.49623,-11.25734 3.64441,0.82635 5.06419,4.38538 10.46832,5.7566 5.40406,1.37122 7.57648,-2.57756 11.11817,0.9035 3.54176,3.48108 0.30761,9.12257 4.10502,13.97153 3.79741,4.84895 5.82868,1.30269 8.51431,5.62565 2.68578,4.32296 0.50003,6.61043 2.22865,11.66619 1.72847,5.05575 8.37663,3.10422 10.86859,10.74725 2.49189,7.64303 -1.05002,20.75642 -1.05002,20.75642 z"
           id="path30661" />
        <path
           d="m 478.14584,564.79274 c -5.56134,-26.1814 -26.96923,-56.91486 -52.59533,-79.47381 15.22252,11.95581 44.84883,40.53013 54.36173,79.2799 l -1.7664,0.19391 z"
           id="path30663" />
        <path
           d="m 460.17945,524.42647 c -4.16103,-2.88517 -7.25311,-2.85076 -10.50666,-3.25762 2.96319,-0.16315 5.87315,-0.47186 9.49206,1.15583 l 1.0146,2.10179 z"
           id="path30665" />
        <path
           d="m 445.00148,505.47675 c -4.50283,-1.45493 -7.4435,-0.39208 -10.62038,0.29021 2.79394,-1.14668 5.51007,-2.41887 9.26214,-2.02118 l 1.35824,1.73097 z"
           id="path30667" />
        <path
           d="m 449.37754,508.85524 c -2.19487,-5.54064 -2.19804,-9.67824 -2.53252,-14.02788 -0.0942,3.9664 -0.29775,7.86286 0.95236,12.68988 l 1.58016,1.338 z"
           id="path30669" />
        <path
           d="m 462.89869,527.04086 c -2.19494,-5.54065 -2.19804,-9.67823 -2.53252,-14.02788 -0.0942,3.9664 -0.29774,7.86287 0.95244,12.68988 l 1.58008,1.338 z"
           id="path30671" />
      </g>
      <g
         id="g4564">
        <path
           d="m 554.73926,885.60532 c 6.92428,-5.37914 9.12838,-14.93283 14.6253,-19.39166 5.85896,-4.75257 6.2688,5.87727 10.64636,2.0664 4.3775,-3.81088 0.88895,-12.10383 6.8637,-17.30989 5.97469,-5.20607 11.46722,0.26421 15.79911,-4.41334 4.33196,-4.67756 -2.38695,-9.64312 3.4294,-14.8067 5.81629,-5.16358 13.85947,0.49495 21.0719,-4.94868 7.04508,-5.31738 13.91512,-1.44708 11.39046,6.43721 -1.67912,5.24383 -7.00779,7.85625 -9.65253,15.59693 -2.64466,7.74068 3.22943,10.99921 -1.2429,15.45075 -4.47241,4.45154 -10.6669,-2.14882 -16.64644,2.35541 -5.97946,4.50422 -2.09494,12.69095 -7.27164,15.66149 -5.17679,2.97053 -7.69214,-5.14399 -13.43528,-3.77937 -5.74314,1.36463 -2.22588,8.06782 -10.88147,9.94991 -8.65557,1.88209 -24.69597,-2.86846 -24.69597,-2.86846 z"
           id="path30793" />
        <path
           d="m 542.69133,887.43051 c 32.64464,-5.36933 64.27675,-27.48672 93.84843,-60.32831 -16.03386,19.85636 -52.65664,58.26994 -95.85241,63.15097 l 2.00398,-2.82266 z"
           id="path30795" />
        <path
           d="m 587.64296,870.45183 c 3.97666,-5.51977 4.62116,-10.14583 5.76937,-14.90696 -0.47962,4.46462 -0.79315,8.8847 -3.31661,13.89753 l -2.45276,1.00943 z"
           id="path30797" />
        <path
           d="m 611.08526,852.34517 c 2.53495,-6.37448 2.05528,-11.02202 2.03135,-15.93058 0.60084,4.44855 1.35197,8.81101 0.10372,14.31885 l -2.13507,1.61173 z"
           id="path30799" />
        <path
           d="m 606.53793,858.06744 c 6.36021,-1.94453 10.74949,-0.95341 15.43677,-0.40599 -4.18629,-1.09541 -8.2744,-2.33713 -13.66954,-1.63182 l -1.76723,2.03781 z"
           id="path30801" />
        <path
           d="m 584.27104,873.88364 c 6.36013,-1.94452 10.74956,-0.95341 15.43669,-0.406 -4.18628,-1.0954 -8.27424,-2.33711 -13.66946,-1.6318 l -1.76723,2.0378 z"
           id="path30803" />
      </g>
      <g
         id="g3009">
        <path
           d="m 584.54011,802.03323 c 5.85008,-6.61802 6.3197,-16.43082 10.93036,-21.86988 4.91439,-5.79738 7.20469,4.57029 10.83024,-0.0167 3.62555,-4.58701 -1.27558,-12.06604 3.67191,-18.33134 4.94756,-6.2653 11.31692,-1.94568 14.7438,-7.37565 3.42673,-5.42998 -4.05831,-9.01775 0.74112,-15.21084 4.79936,-6.1931 13.70902,-2.179 19.83077,-8.9158 5.97966,-6.58057 13.41889,-4.09823 12.33762,4.13559 -0.7191,5.47632 -5.49229,9.06849 -6.71703,17.18426 -1.22466,8.11578 5.12697,10.18844 1.52206,15.4233 -3.60499,5.23487 -10.86497,-0.0603 -15.94185,5.51615 -5.07687,5.57651 0.19462,12.87497 -4.36567,16.78984 -4.56015,3.91487 -8.47309,-3.57594 -13.87521,-1.13035 -5.40212,2.44559 -0.75503,8.35673 -8.9275,11.87096 -8.17247,3.51425 -24.78062,1.93049 -24.78062,1.93049 z"
           id="path30805" />
        <path
           d="m 573.02344,806.14395 c 31.12987,-11.55484 58.29054,-39.37414 81.52189,-77.33641 -12.23218,22.59747 -41.40397,67.39166 -82.99012,80.4958 l 1.46823,-3.15939 z"
           id="path30807" />
        <path
           d="m 614.18709,780.81317 c 2.92817,-6.18935 2.74018,-10.85957 3.0231,-15.75939 0.32148,4.47984 0.79818,8.88396 -0.79175,14.29565 l -2.23135,1.46374 z"
           id="path30809" />
        <path
           d="m 634.01105,758.51046 c 1.35945,-6.75205 0.0627,-11.22719 -0.83239,-16.04645 1.38046,4.25625 2.8933,8.399 2.64457,14.0519 l -1.81218,1.99455 z"
           id="path30811" />
        <path
           d="m 630.55813,765.00856 c 5.90551,-3.13416 10.39527,-3.00429 15.09905,-3.36776 -4.30883,-0.2714 -8.54702,-0.70551 -13.72416,1.02524 l -1.37489,2.34252 z"
           id="path30813" />
        <path
           d="m 611.48253,784.83426 c 5.9056,-3.13415 10.39543,-3.00428 15.09913,-3.36774 -4.30869,-0.2714 -8.54695,-0.70552 -13.72416,1.02522 l -1.37497,2.34252 z"
           id="path30815" />
      </g>
      <g
         id="g3065">
        <path
           d="m 588.02023,750.36194 c 4.44195,-7.71316 2.99335,-17.42149 6.4508,-23.71905 3.68525,-6.7124 7.94468,2.95793 10.6031,-2.29773 2.65848,-5.25566 -3.59596,-11.54725 0.0307,-18.72489 3.62678,-7.17762 10.70456,-4.28922 13.00445,-10.32849 2.29989,-6.03929 -5.72828,-7.97599 -2.2326,-15.0517 3.49559,-7.07572 13.00188,-5.02161 17.68675,-12.9083 4.57623,-7.70378 12.34444,-6.83992 12.88702,1.45101 0.36077,5.51429 -3.61512,10.03745 -3.23597,18.243 0.37909,8.20555 7.0026,8.8973 4.49032,14.78303 -2.51234,5.88574 -10.65206,2.22956 -14.53942,8.75991 -3.88728,6.53034 2.69469,12.56713 -1.00985,17.36146 -3.70461,4.79432 -8.99356,-1.71698 -13.80831,1.81585 -4.81481,3.53285 0.88593,8.34257 -6.43405,13.50549 -7.32006,5.16291 -23.89291,7.11041 -23.89291,7.11041 z"
           id="path30829" />
        <path
           d="m 577.54112,756.81341 c 28.239,-17.87275 49.42755,-50.83677 64.79525,-92.90585 -7.58431,24.70579 -27.44087,74.71651 -65.61868,96.30904 l 0.82343,-3.40319 z"
           id="path30831" />
        <path
           d="m 612.92714,723.33665 c 1.66384,-6.67787 0.57138,-11.21169 -0.1045,-16.06957 1.18604,4.31929 2.50964,8.53171 2.00504,14.16615 l -1.90054,1.90342 z"
           id="path30833" />
        <path
           d="m 628.00349,697.32034 c 0.0181,-6.89846 -2.12212,-11.00772 -3.93608,-15.53853 2.17967,3.87724 4.46702,7.61546 5.32292,13.2036 l -1.38684,2.33493 z"
           id="path30835" />
        <path
           d="m 625.88578,704.41111 c 5.17388,-4.31316 9.59619,-5.13175 14.13195,-6.47851 -4.27241,0.64185 -8.50749,1.1095 -13.241,3.89492 l -0.89095,2.58359 z"
           id="path30837" />
        <path
           d="m 611.06058,727.8441 c 5.17395,-4.31317 9.59619,-5.13175 14.13203,-6.47851 -4.27249,0.64184 -8.5075,1.1095 -13.24108,3.89491 l -0.89095,2.5836 z"
           id="path30839" />
      </g>
      <g
         id="g3093">
        <path
           d="m 557.39267,638.91126 c 3.61659,-8.64874 0.84483,-18.54195 3.62153,-25.57949 2.9595,-7.50116 8.65077,1.95613 10.73182,-3.88508 2.08122,-5.84121 -5.24542,-11.503 -2.4073,-19.47977 2.83813,-7.97677 10.578,-5.97069 12.1841,-12.57637 1.60603,-6.60568 -6.99864,-7.4879 -4.2836,-15.34019 2.71504,-7.85228 12.87267,-7.05639 16.71938,-15.91986 3.75744,-8.65792 11.95182,-8.8549 13.59633,-0.30815 1.09377,5.68444 -2.45341,10.94959 -0.98995,19.43058 1.46339,8.48099 8.44432,8.26642 6.59734,14.74236 -1.84696,6.47593 -10.79172,3.82107 -13.9853,11.16136 -3.19365,7.34029 4.44062,12.69088 1.211,18.19979 -3.22961,5.50891 -9.58038,-0.51754 -14.12938,3.83587 -4.54892,4.35343 2.00854,8.55203 -4.93454,14.95415 -6.94307,6.40213 -23.93143,10.7648 -23.93143,10.7648 z"
           id="path30841" />
        <path
           d="m 547.33096,647.09906 c 27.05094,-22.57138 44.80086,-59.8447 55.30882,-105.7672 -4.67215,26.7656 -18.81559,81.58109 -55.72214,109.42293 l 0.41332,-3.65573 z"
           id="path30843" />
        <path
           d="m 579.78487,607.29034 c 0.86106,-7.18019 -0.86614,-11.74167 -2.20208,-16.69895 1.79661,4.32515 3.72231,8.51978 3.93135,14.45121 l -1.72927,2.24774 z"
           id="path30845" />
        <path
           d="m 592.08081,578.10515 c -0.87983,-7.17754 -3.64175,-11.14968 -6.11924,-15.6063 2.77289,3.72528 5.63955,7.29077 7.2579,12.9822 l -1.13866,2.6241 z"
           id="path30847" />
        <path
           d="m 590.80129,585.77879 c 4.82094,-5.21568 9.31513,-6.6907 13.85869,-8.73108 -4.3614,1.27008 -8.70656,2.35369 -13.26836,5.91828 l -0.59033,2.8128 z"
           id="path30849" />
        <path
           d="m 578.43009,612.24166 c 4.82102,-5.21566 9.31513,-6.69067 13.85869,-8.73106 -4.3614,1.27007 -8.70656,2.3537 -13.26835,5.91828 l -0.59034,2.81278 z"
           id="path30851" />
      </g>
      <g
         id="g3193">
        <path
           d="m 533.38343,605.31367 c 4.25984,-6.58567 -1.06929,-18.72417 2.2534,-24.10856 3.5416,-5.73908 7.22013,2.94714 9.78486,-1.55634 2.56472,-4.50348 -0.43359,-10.33473 3.06544,-16.48528 3.49897,-6.15056 8.53364,-1.65832 10.78801,-6.86626 2.25432,-5.20796 -2.03529,-5.33573 1.34098,-11.40244 3.37641,-6.0667 12.05092,-3.84577 16.53788,-10.57334 4.38293,-6.57155 11.49085,-5.47279 11.7913,1.83853 0.19988,4.86277 -2.9132,7.16566 -2.76063,14.39479 0.15242,7.22911 4.64951,9.56715 2.20386,14.63085 -2.44558,5.06369 -8.90668,1.55288 -12.62942,7.1231 -3.72274,5.57021 0.33825,7.77472 -3.17548,11.82698 -3.51373,4.05227 -6.37685,1.48718 -10.87936,4.38208 -4.50242,2.89493 -0.72839,11.32901 -7.56863,15.54727 -6.84033,4.21827 -20.75221,1.24862 -20.75221,1.24862 z"
           id="path30855" />
        <path
           d="m 522.0941,611.19992 c 24.25956,-10.56551 48.59561,-42.39604 63.69983,-78.70262 -7.54819,21.38462 -27.46851,63.67332 -63.01713,80.98456 l -0.6827,-2.28194 z"
           id="path30857" />
        <path
           d="m 556.88317,582.64718 c 1.68584,-5.79705 0.79141,-9.82994 0.2868,-14.12948 0.98558,3.84842 2.09981,7.6089 1.50261,12.53945 l -1.78941,1.59003 z"
           id="path30859" />
        <path
           d="m 571.33783,560.43802 c 0.18083,-6.06287 -1.68534,-9.76836 -3.24204,-13.83015 1.9079,3.50329 3.91792,6.88908 4.57025,11.83837 l -1.32821,1.99178 z"
           id="path30861" />
        <path
           d="m 569.22553,566.57815 c 4.85063,-3.56512 8.92821,-4.0914 13.12268,-5.07698 -3.93593,0.37749 -7.83341,0.60349 -12.24358,2.84497 l -0.8791,2.23201 z"
           id="path30863" />
        <path
           d="m 555.06309,586.52761 c 4.85054,-3.56514 8.9282,-4.09142 13.1226,-5.077 -3.93601,0.37748 -7.83348,0.60347 -12.24366,2.84497 l -0.87894,2.23203 z"
           id="path30865" />
      </g>
      <g
         id="g3104">
        <path
           d="m 575.95014,776.49481 c 3.85829,-1.7769 7.91421,-4.09265 12.33404,-7.75403 l 2.05961,3.30459 c -6.37694,5.04479 -11.39158,7.20544 -16.06217,9.01126 l 1.66852,-4.56182 z"
           id="path31018" />
        <path
           d="m 602.13102,768.54971 c 3.25819,-2.69424 4.27056,-6.97068 2.2612,-9.5517 -2.00937,-2.58102 -6.27958,-2.48923 -9.53778,0.20501 -3.2582,2.69424 -4.27057,6.97068 -2.2612,9.5517 2.00937,2.58101 6.27958,2.48923 9.53778,-0.20501 z"
           id="path31020" />
        <path
           d="m 586.69538,769.71848 c -0.11411,-3.00888 1.54804,-6.80803 4.60091,-9.09793 0.73688,-0.55175 2.17409,-1.02516 2.69534,0.20467 1.26101,2.97492 3.96223,6.45411 6.22063,8.1082 1.18145,0.86522 0.72886,2.05737 0.003,2.75116 -2.68802,2.56879 -7.82254,4.0178 -11.67556,1.24242 -0.16347,-1.13245 -0.55999,-2.20706 -1.84415,-3.20852 z"
           id="path31022" />
      </g>
      <g
         id="g3218">
        <path
           d="m 513.09836,602.82079 c 1.3214,-4.16996 4.47764,-10.91863 7.54614,-15.85469 l -1.10902,-0.79986 c -4.19965,7.09852 -5.92149,10.28038 -7.19093,15.29462 l 0.75381,1.35993 z"
           id="path31024" />
        <path
           d="m 520.74391,572.97559 c 2.25737,-3.63832 6.24774,-5.10563 8.91273,-3.27735 2.66499,1.82829 2.99542,6.25985 0.73805,9.89817 -2.25738,3.63831 -6.24775,5.10563 -8.91274,3.27734 -2.66498,-1.82829 -2.99542,-6.25985 -0.73804,-9.89816 z"
           id="path31026" />
        <path
           d="m 519.5548,589.26512 c 3.51104,0.24815 7.94232,-2.45807 9.83313,-5.84415 0.45546,-0.8172 0.76735,-2.35207 -0.45978,-2.77151 -2.96831,-1.01461 -6.55996,-3.47141 -8.36292,-5.64848 -0.94319,-1.1388 -2.03883,-0.55327 -2.63121,0.26655 -2.19325,3.03547 -2.84476,9.27982 0.18659,12.99859 0.55176,-0.0727 0.86978,0.37769 1.43419,0.999 z"
           id="path31028" />
      </g>
      <g
         id="g3226">
        <path
           d="m 530.84745,908.281 c 4.14049,-0.84364 8.58836,-2.16717 13.67752,-4.71913 l 1.30509,3.69728 c -7.2919,3.45001 -12.64157,4.40139 -17.58046,5.08595 l 2.59785,-4.0641 z"
           id="path31030" />
        <path
           d="m 558.06814,906.56692 c 3.75052,-1.87651 5.64774,-5.81358 4.23756,-8.79368 -1.41019,-2.9801 -5.59378,-3.87474 -9.3443,-1.99823 -3.75053,1.87651 -5.64775,5.81358 -4.23756,8.79368 1.41018,2.9801 5.59377,3.87474 9.3443,1.99823 z"
           id="path31032" />
        <path
           d="m 542.76755,904.14916 c 0.52891,-2.96059 2.95828,-6.28242 6.42255,-7.81195 0.8359,-0.36825 2.33818,-0.49867 2.58481,0.8208 0.59665,3.19176 2.4903,7.20721 4.34064,9.34079 0.96791,1.11603 0.27282,2.17429 -0.58274,2.68356 -3.16784,1.8856 -8.48298,2.11533 -11.64978,-1.47926 0.0817,-1.14203 -0.0764,-2.28139 -1.11548,-3.55394 z"
           id="path31034" />
      </g>
      <g
         id="g3251">
        <path
           d="m 493.56078,566.12268 c -1.92758,-7.01612 -11.71732,-8.58864 -13.36904,-14.18694 -1.76055,-5.9671 5.18092,-4.72543 3.69795,-9.22307 -1.48298,-4.49764 -6.39328,-4.87543 -8.42032,-11.01479 -2.02711,-6.13936 3.04482,-8.19666 0.99326,-12.78459 -2.0517,-4.58796 -4.1579,-0.95604 -6.19278,-6.94709 -2.03502,-5.99105 3.39927,-12.33882 1.4942,-19.62269 -1.861,-7.11494 2.16011,-12.68257 6.6801,-9.22801 3.00613,2.29763 2.91194,6.15011 7.31269,9.69042 4.40075,3.54031 7.92851,0.85227 9.80318,5.53176 1.87482,4.67952 -3.28444,8.46453 -1.71065,14.50198 1.57372,6.03745 4.81518,3.65738 5.57899,8.74368 0.76373,5.08629 -2.12684,6.25092 -2.52384,11.60152 -0.39708,5.35059 6.43864,6.38182 5.72777,14.4193 -0.7108,8.03748 -9.07151,18.51852 -9.07151,18.51852 z"
           id="path31054" />
        <path
           d="m 491.7435,578.84157 c 5.15259,-26.27331 -2.39137,-63.41318 -16.98367,-94.87047 9.23283,17.36644 25.12814,56.01262 18.6731,95.44107 l -1.68943,-0.5706 z"
           id="path31056" />
        <path
           d="m 491.10816,534.35798 c -2.67339,-4.39723 -5.5113,-5.67464 -8.3245,-7.42361 2.77065,1.10527 5.54955,2.05501 8.21916,5.07394 l 0.10534,2.34967 z"
           id="path31058" />
        <path
           d="m 484.64959,510.62077 c -3.54465,-3.23527 -6.64627,-3.50905 -9.81497,-4.23045 3.00041,0.13508 5.97871,0.12251 9.25081,2.07413 l 0.56416,2.15632 z"
           id="path31060" />
        <path
           d="m 487.32665,515.55972 c 0.16044,-5.99102 1.77472,-9.77244 3.1692,-13.88781 -1.63627,3.58379 -3.34515,7.05742 -4.08963,11.99655 l 0.92043,1.89126 z"
           id="path31062" />
        <path
           d="m 492.57042,537.89753 c 0.16043,-5.99102 1.77471,-9.77243 3.16927,-13.88781 -1.63641,3.58377 -3.34523,7.05742 -4.08985,11.99655 l 0.92058,1.89126 z"
           id="path31064" />
      </g>
      <g
         id="g3271">
        <path
           d="m 509.67235,575.21987 c -0.20726,-6.88737 -6.92033,-11.39241 -7.20538,-16.88839 -0.30374,-5.858 14.64382,-4.38167 14.25069,-8.79764 -0.39305,-4.41596 -5.46215,-4.80368 -6.00166,-10.83155 -0.53959,-6.02787 5.33183,-8.02764 4.36382,-12.53415 -0.96807,-4.50652 -4.12733,-0.95215 -4.71354,-6.83461 -0.58628,-5.88246 1.95858,-12.39516 1.84453,-19.54501 -0.11141,-6.98402 5.56537,-12.43001 9.42505,-9.02634 2.56712,2.2638 1.4681,6.04154 5.18002,9.52889 3.71205,3.48736 8.35906,0.99677 11.28989,4.52352 2.91495,3.50772 2.30874,6.34561 2.39758,12.27195 0.0889,5.92634 4.11786,3.60362 3.60135,8.59436 -0.51659,4.99071 -3.86077,6.12271 -5.66749,11.36855 -1.80679,5.24583 5.11907,6.28112 2.28458,14.16085 -2.83435,7.87973 -31.04944,24.00957 -31.04944,24.00957 z"
           id="path31066" />
        <path
           d="m 499.2193,585.5839 c 24.4225,-21.57003 36.50177,-63.21236 18.31747,-93.99556 8.18051,15.12882 12.46843,31.12461 8.11177,50.27417 -3.15015,13.84682 -10.82274,30.44663 -24.79954,44.28688 l -1.6297,-0.56549 z"
           id="path31068" />
        <path
           d="m 522.26738,550.76262 c -1.67193,-4.32168 -6.17238,-9.78547 -8.67875,-11.51051 2.62864,1.09363 7.15202,6.23587 9.17775,9.20585 l -0.499,2.30466 z"
           id="path31070" />
        <path
           d="m 526.28659,523.94577 c -2.89031,-3.18519 -6.08339,-3.46458 -9.23052,-4.18315 3.12238,0.14298 6.25981,0.14112 9.19657,2.06651 l 0.034,2.11664 z"
           id="path31072" />
        <path
           d="m 527.44141,524.14629 c 1.72403,-5.87471 4.40437,-9.57743 6.94018,-13.60842 -2.65223,3.50881 -5.35218,6.90936 -7.41794,11.75048 l 0.47776,1.85794 z"
           id="path31074" />
        <path
           d="m 523.16925,551.67049 c 1.72396,-5.87474 7.85616,-3.77683 12.46361,-5.22583 -3.49523,0.0521 -10.87576,-1.47324 -12.94137,3.36787 l 0.47776,1.85796 z"
           id="path31076" />
      </g>
      <g
         id="g3285">
        <path
           d="m 478.90338,575.87307 c -6.49346,-4.61764 -4.56333,-15.68954 -9.70353,-19.49598 -5.47872,-4.05723 -6.71739,3.83946 -10.79053,0.61409 -4.07313,-3.22536 -2.68396,-8.62931 -8.24275,-13.03506 -5.55894,-4.4057 -9.50239,0.28676 -13.4624,-3.58137 -3.95992,-3.86815 0.52447,-4.80719 -4.87963,-9.16738 -5.40397,-4.36025 -13.87585,-0.83863 -20.65187,-5.52952 -6.61883,-4.58208 -13.77994,-2.29266 -11.8746,3.81096 1.26727,4.05951 5.2497,5.35885 7.28602,11.36578 2.03641,6.00691 -1.99486,8.81375 2.12291,12.52546 4.11776,3.71172 9.86352,-0.44636 15.48198,3.43603 5.61854,3.88236 2.00644,6.49408 6.94306,9.16201 4.93661,2.66794 7.17601,-0.009 12.80355,1.50967 5.62747,1.51891 4.21124,9.22572 12.70606,11.38462 8.49487,2.15887 22.26173,-2.99931 22.26173,-2.99931 z"
           id="path31078"
           style="stroke-width:1.00000012" />
        <path
           d="m 492.59645,578.54677 c -28.79169,-4.02285 -64.12722,-25.61348 -91.0886,-52.69864 14.45866,16.2151 48.31648,47.31084 91.06218,54.7181 l 0.0264,-2.01946 z"
           id="path31080"
           style="stroke-width:1.00000012" />
        <path
           d="m 447.23501,561.6971 c -3.5396,-4.46568 -3.8221,-7.974 -4.59692,-11.62701 0.13051,3.37347 0.0986,6.69922 2.22678,10.65996 l 2.37014,0.96705 z"
           id="path31082"
           style="stroke-width:1.00000012" />
        <path
           d="m 425.2432,546.14201 c -2.03336,-4.97786 -1.19182,-8.40426 -0.78475,-12.06514 -0.94713,3.26733 -2.03758,6.45734 -1.22117,10.67631 l 2.00592,1.38883 z"
           id="path31084"
           style="stroke-width:1.00000012" />
        <path
           d="m 429.33664,550.80853 c -6.19831,-2.00541 -10.65782,-1.64839 -15.38022,-1.64842 4.26498,-0.45253 8.44344,-1.02289 13.77487,-0.0263 l 1.60535,1.67471 z"
           id="path31086"
           style="stroke-width:1.00000012" />
        <path
           d="m 450.33361,564.55196 c -6.19825,-2.00542 -10.6579,-1.64836 -15.3803,-1.64839 4.26512,-0.45258 8.44345,-1.02289 13.77502,-0.0263 l 1.60528,1.67474 z"
           id="path31088"
           style="stroke-width:1.00000012" />
      </g>
      <g
         id="g3179">
        <path
           d="m 210.31062,1024.4825 c 9.06857,3.5899 19.28278,0 26.65807,2.7405 7.86114,2.9163 -1.83301,9.7302 4.28331,11.7524 6.11651,2.0221 11.82984,-6.4209 20.18227,-3.6638 8.35244,2.757 6.4465,11.4757 13.34622,12.9302 6.89968,1.4547 7.61812,-8.1699 15.8384,-5.5436 8.22031,2.6264 7.62742,13.9757 16.92424,17.8109 9.08128,3.7463 9.47461,12.8597 0.63331,15.1222 -5.8804,1.5047 -11.4321,-2.1787 -20.2094,-0.1212 -8.77722,2.0575 -8.39353,9.8191 -15.16391,8.0897 -6.7704,-1.7294 -4.21834,-11.8222 -11.91777,-15.0073 -7.69946,-3.1849 -13.08241,5.5849 -18.87994,2.2672 -5.79757,-3.3175 0.31706,-10.6925 -4.31053,-15.5374 -4.62755,-4.8448 -8.83848,2.6681 -15.64956,-4.7388 -6.81108,-7.407 -11.73471,-26.101 -11.73471,-26.101 z"
           id="path30691"
           style="stroke-width:1.00000012" />
        <path
           d="m 201.57249,1013.6935 c 24.0726,28.978 63.20475,46.8582 111.15588,56.2387 -27.9145,-3.8505 -85.18835,-16.8295 -114.96328,-56.5143 l 3.8074,0.2756 z"
           id="path30693"
           style="stroke-width:1.00000012" />
        <path
           d="m 243.67741,1047.8165 c 7.47944,0.5962 12.17854,-1.5571 17.29798,-3.2948 -4.45205,2.2187 -8.7655,4.5746 -14.92292,5.1068 l -2.37506,-1.812 z"
           id="path30695"
           style="stroke-width:1.00000012" />
        <path
           d="m 274.28119,1060.033 c 7.43662,-1.342 11.49962,-4.6177 16.07264,-7.6011 -3.80638,3.2754 -7.44449,6.647 -13.32011,8.7362 l -2.75253,-1.1351 z"
           id="path30697"
           style="stroke-width:1.00000012" />
        <path
           d="m 266.2796,1058.9958 c 5.52961,5.1041 7.16552,10.0332 9.38996,14.9889 -1.41998,-4.7917 -2.64589,-9.5747 -6.45416,-14.4736 l -2.9358,-0.5153 z"
           id="path30699"
           style="stroke-width:1.00000012" />
        <path
           d="m 238.50219,1046.5583 c 5.52975,5.1041 7.1656,10.0333 9.38999,14.9888 -1.41986,-4.7916 -2.64578,-9.5745 -6.45414,-14.4736 l -2.93585,-0.5152 z"
           id="path30701"
           style="stroke-width:1.00000012" />
      </g>
      <use
         transform="translate(59.269831,11.24083)"
         id="use4484"
         x="0"
         y="0"
         width="744.09448"
         height="1052.3622"
         xlink:href="#g3179" />
      <g
         id="g3324">
        <path
           d="m 313.3319,1029.5949 c 3.54155,2.3081 7.62797,4.4835 13.00463,6.2162 l -1.56217,3.6156 c -7.56439,-2.6334 -12.04645,-5.7167 -16.05335,-8.7042 l 4.61089,-1.1276 z"
           id="path30685"
           style="stroke-width:1.00000012" />
        <path
           d="m 334.02466,1047.5617 c 3.9597,1.2801 7.98198,-0.2495 8.98409,-3.4165 1.00206,-3.167 -1.3955,-6.7722 -5.3552,-8.0523 -3.95967,-1.2802 -7.98199,0.2494 -8.98406,3.4164 -1.0021,3.167 1.3955,6.7722 5.35517,8.0524 z"
           id="path30687"
           style="stroke-width:1.00000012" />
        <path
           d="m 324.67854,1034.9987 c 2.38045,-1.784 6.36879,-2.4896 9.88856,-1.1587 0.84875,0.3218 2.01501,1.2872 1.30018,2.4228 -1.72897,2.7469 -3.08394,7.0096 -3.19797,9.8705 -0.0596,1.4965 -1.27369,1.777 -2.23182,1.5441 -3.54768,-0.8622 -7.5172,-4.4469 -7.36034,-9.3017 0.83048,-0.7745 1.48698,-1.7162 1.60139,-3.377 z"
           id="path30689"
           style="stroke-width:1.00000012" />
      </g>
      <g
         id="g3137">
        <path
           d="m 353.52487,1034.1187 c 9.75024,0.9385 18.78811,-5.2867 26.67105,-4.6985 8.40226,0.627 0.69376,9.7917 7.16829,10.0438 6.47452,0.2522 9.88917,-9.3754 18.72957,-9.0352 8.8403,0.3402 9.20528,9.1862 16.29829,8.6816 7.09297,-0.5047 5.3401,-9.8896 14.01834,-9.638 8.67829,0.2517 10.99292,11.2488 21.02827,12.359 9.80241,1.0846 12.50815,9.6765 4.47072,14.2623 -5.34569,3.0499 -11.69334,1.0569 -19.72063,5.4294 -8.02718,4.3724 -5.67538,11.6765 -12.71243,11.8832 -7.03698,0.2067 -7.12258,-10.1283 -15.43582,-11.0562 -8.31307,-0.9279 -11.32266,8.9209 -17.81663,7.3447 -6.49409,-1.5762 -2.41617,-10.2943 -8.15941,-13.6496 -5.74326,-3.3554 -7.93123,4.9721 -16.45487,-0.23 -8.52355,-5.2019 -18.08474,-21.6965 -18.08474,-21.6965 z"
           id="path30769"
           style="stroke-width:1.00000012" />
        <path
           d="m 342.26193,1026.2167 c 30.83849,21.0579 73.52122,27.3895 122.63,23.1874 -28.17805,3.9837 -87.28687,7.3084 -126.40976,-22.4058 l 3.77976,-0.7816 z"
           id="path30771"
           style="stroke-width:1.00000012" />
        <path
           d="m 391.98042,1047.2385 c 7.43896,-1.4831 11.46845,-4.828 16.01344,-7.8917 -3.77214,3.3397 -7.37434,6.7722 -13.23779,8.9697 l -2.77565,-1.078 z"
           id="path30773"
           style="stroke-width:1.00000012" />
        <path
           d="m 424.91055,1050.5033 c 6.90334,-3.3214 10.02718,-7.5633 13.72221,-11.666 -2.87372,4.1711 -5.55914,8.3879 -10.75126,11.9946 l -2.97095,-0.3286 z"
           id="path30775"
           style="stroke-width:1.00000012" />
        <path
           d="m 416.8504,1051.7088 c 6.68819,3.3553 9.53824,7.6119 12.96832,11.7323 -2.60451,-4.1846 -5.01779,-8.4143 -9.97666,-12.046 l -2.99166,0.3137 z"
           id="path30777"
           style="stroke-width:1.00000012" />
        <path
           d="m 386.61759,1047.4573 c 6.68822,3.3552 9.53822,7.6119 12.96835,11.7323 -2.60461,-4.1846 -5.01781,-8.4143 -9.97676,-12.046 l -2.99159,0.3137 z"
           id="path30779"
           style="stroke-width:1.00000012" />
      </g>
      <g
         id="g3126">
        <path
           d="m 380.16462,1014.116 c 0.009,-4.3907 0.41267,-9.1866 1.85324,-14.87102 l -3.73604,-0.63098 c -1.86927,8.1058 -1.75031,13.7523 -1.45772,18.9285 l 3.34052,-3.4265 z"
           id="path31036" />
        <path
           d="m 376.60946,985.97829 c 1.0577,-4.18851 4.41151,-6.875 7.49093,-6.00044 3.07942,0.87456 4.71835,4.97899 3.66065,9.1675 -1.0577,4.1885 -4.4115,6.87499 -7.49092,6.00043 -3.07942,-0.87456 -4.71836,-4.97899 -3.66066,-9.16749 z"
           id="path31038" />
        <path
           d="m 381.79768,1001.152 c 2.69252,-1.1029 5.36488,-4.21613 6.14961,-8.0462 0.18861,-0.9241 0.0263,-2.48377 -1.26549,-2.48499 -3.12445,-0.003 -7.27256,-1.1749 -9.637,-2.66002 -1.23682,-0.77689 -2.10304,0.13433 -2.42092,1.10529 -1.17708,3.59482 -0.38387,9.06908 3.60908,11.62152 1.06187,-0.3004 2.1668,-0.3553 3.56472,0.4644 z"
           id="path31040" />
      </g>
      <g
         id="g3151">
        <path
           d="m 505.88249,948.74554 c 7.67061,-4.1395 11.33406,-13.19501 17.45285,-16.66732 6.5219,-3.70102 5.27007,6.85756 10.18341,3.83574 4.91319,-3.02175 2.76311,-11.79387 9.4698,-15.92283 6.70669,-4.12903 11.27407,2.19589 16.2773,-1.68882 5.00336,-3.88471 -0.8527,-9.91853 5.69104,-14.03235 6.54381,-4.11382 13.59867,2.8273 21.56372,-1.32727 7.78018,-4.05822 13.95606,0.92031 10.23639,8.27436 -2.47402,4.89118 -8.13909,6.56979 -11.95483,13.76195 -3.81573,7.19208 1.47267,11.39885 -3.63402,15.03679 -5.10661,3.63802 -10.1905,-3.92052 -16.79257,-0.48486 -6.60216,3.43565 -4.04469,12.16974 -9.61573,14.22741 -5.57088,2.05761 -6.78859,-6.37416 -12.66826,-5.99677 -5.87962,0.3774 -3.45341,7.58562 -12.28751,7.98212 -8.83411,0.39657 -23.92159,-6.99815 -23.92159,-6.99815 z"
           id="path30781" />
        <path
           d="m 493.70977,948.51348 c 33.04861,0.21063 67.70763,-16.2764 102.00453,-43.69364 -18.91527,16.88819 -61.03796,48.61385 -104.42168,46.14081 l 2.41715,-2.44717 z"
           id="path30783" />
        <path
           d="m 540.71115,939.34505 c 4.78399,-4.77577 6.14079,-9.23194 8.01563,-13.73639 -1.16897,4.32464 -2.16701,8.63347 -5.43812,13.15418 l -2.57751,0.58221 z"
           id="path30785" />
        <path
           d="m 566.66398,925.43363 c 3.49462,-5.86243 3.74551,-10.52956 4.48661,-15.37727 -0.1003,4.49119 -0.0387,8.92278 -2.12868,14.14714 l -2.35793,1.23013 z"
           id="path30787" />
        <path
           d="m 561.2853,930.31294 c 6.57885,-0.84552 10.75554,0.87319 15.29534,2.20434 -3.96006,-1.78731 -7.8004,-3.70253 -13.23402,-3.91704 l -2.06132,1.7127 z"
           id="path30789" />
        <path
           d="m 536.8492,942.16251 c 6.57885,-0.84558 10.75554,0.87314 15.29526,2.2043 -3.96014,-1.78734 -7.8004,-3.7025 -13.23402,-3.91705 l -2.06124,1.71275 z"
           id="path30791" />
      </g>
      <g
         id="g3363">
        <path
           d="m 582.99496,716.21048 c 3.61658,-8.64874 0.84483,-18.54195 3.62153,-25.57949 2.95949,-7.50116 8.65076,1.95613 10.73181,-3.88508 2.08123,-5.84121 -5.24541,-11.503 -2.40729,-19.47977 2.83812,-7.97677 10.57799,-5.97069 12.18409,-12.57637 1.60603,-6.60568 -6.99864,-7.4879 -4.2836,-15.34019 2.71504,-7.85228 12.87267,-7.05639 16.71938,-15.91986 3.75744,-8.65792 11.95182,-8.8549 13.59633,-0.30815 1.09378,5.68444 -2.45341,10.94959 -0.98995,19.43058 1.46339,8.48099 8.44432,8.26642 6.59734,14.74236 -1.84696,6.47593 -10.79171,3.82107 -13.98529,11.16136 -3.19366,7.34029 4.44061,12.69088 1.21099,18.19979 -3.22961,5.50891 -9.58038,-0.51754 -14.12938,3.83587 -4.54892,4.35343 2.00854,8.55203 -4.93454,14.95415 -6.94307,6.40213 -23.93142,10.7648 -23.93142,10.7648 z"
           id="path3075" />
        <path
           d="m 572.93324,724.39828 c 27.05094,-22.57138 44.80086,-59.8447 55.30882,-105.7672 -4.67215,26.7656 -18.81559,81.58109 -55.72214,109.42293 l 0.41332,-3.65573 z"
           id="path3077" />
        <path
           d="m 605.38716,684.58956 c 0.86105,-7.18019 -0.86615,-11.74167 -2.20209,-16.69895 1.79661,4.32515 3.72231,8.51978 3.93135,14.45121 l -1.72926,2.24774 z"
           id="path3079" />
        <path
           d="m 617.68309,655.40437 c -0.87982,-7.17754 -3.64175,-11.14968 -6.11924,-15.6063 2.77289,3.72528 5.63955,7.29077 7.2579,12.9822 l -1.13866,2.6241 z"
           id="path3081" />
        <path
           d="m 616.40357,663.07801 c 4.82094,-5.21568 9.31513,-6.6907 13.85869,-8.73108 -4.3614,1.27008 -8.70656,2.35369 -13.26836,5.91828 l -0.59033,2.8128 z"
           id="path3083" />
        <path
           d="m 604.03238,689.54088 c 4.82101,-5.21566 9.31512,-6.69067 13.85868,-8.73106 -4.36139,1.27007 -8.70656,2.3537 -13.26835,5.91828 l -0.59033,2.81278 z"
           id="path3085" />
      </g>
      <g
         id="g3377">
        <path
           d="m 572.26497,672.07802 c 4.44195,-7.71316 2.99335,-17.42149 6.4508,-23.71905 3.68525,-6.7124 7.94468,2.95793 10.6031,-2.29773 2.65848,-5.25566 -3.59596,-11.54725 0.0307,-18.72489 3.62678,-7.17762 10.70456,-4.28922 13.00445,-10.32849 2.29989,-6.03929 -5.72828,-7.97599 -2.2326,-15.0517 3.49559,-7.07572 13.00188,-5.02161 17.68675,-12.9083 4.57623,-7.70378 12.34444,-6.83992 12.88702,1.45101 0.36077,5.51429 -3.61512,10.03745 -3.23597,18.243 0.37909,8.20555 7.0026,8.8973 4.49032,14.78303 -2.51234,5.88574 -10.65206,2.22956 -14.53942,8.75991 -3.88728,6.53034 2.69469,12.56713 -1.00985,17.36146 -3.70461,4.79432 -8.99356,-1.71698 -13.80831,1.81585 -4.81481,3.53285 0.88593,8.34257 -6.43405,13.50549 -7.32006,5.16291 -23.89291,7.11041 -23.89291,7.11041 z"
           id="path3047" />
        <path
           d="m 561.78586,678.52949 c 28.239,-17.87275 49.42755,-50.83677 64.79525,-92.90585 -7.58431,24.70579 -27.44087,74.71651 -65.61868,96.30904 l 0.82343,-3.40319 z"
           id="path3049" />
        <path
           d="m 597.17188,645.05273 c 1.66384,-6.67787 0.57138,-11.21169 -0.1045,-16.06957 1.18604,4.31929 2.50964,8.53171 2.00504,14.16615 l -1.90054,1.90342 z"
           id="path3051" />
        <path
           d="m 612.24823,619.03642 c 0.0181,-6.89846 -2.12212,-11.00772 -3.93608,-15.53853 2.17967,3.87724 4.46702,7.61546 5.32292,13.2036 l -1.38684,2.33493 z"
           id="path3053" />
        <path
           d="m 610.13052,626.12719 c 5.17388,-4.31316 9.59619,-5.13175 14.13195,-6.47851 -4.27241,0.64185 -8.50749,1.1095 -13.241,3.89492 l -0.89095,2.58359 z"
           id="path3055" />
        <path
           d="m 595.30532,649.56018 c 5.17395,-4.31317 9.59619,-5.13175 14.13203,-6.47851 -4.27249,0.64184 -8.5075,1.1095 -13.24108,3.89491 l -0.89095,2.5836 z"
           id="path3057" />
      </g>
      <use
         transform="matrix(0.8518603,-0.150206,0.150206,0.8518603,-52.21813,85.919983)"
         id="use4688"
         x="0"
         y="0"
         width="744.09448"
         height="1052.3622"
         xlink:href="#g3104" />
      <g
         id="g3405">
        <path
           d="m 574.69307,843.39078 c 5.85008,-6.61802 6.3197,-16.43082 10.93036,-21.86988 4.91439,-5.79738 7.20469,4.57029 10.83024,-0.0167 3.62555,-4.58701 -1.27558,-12.06604 3.67191,-18.33134 4.94756,-6.2653 11.31692,-1.94568 14.7438,-7.37565 3.42673,-5.42998 -4.05831,-9.01775 0.74112,-15.21084 4.79936,-6.1931 13.70902,-2.179 19.83077,-8.9158 5.97966,-6.58057 13.41889,-4.09823 12.33762,4.13559 -0.7191,5.47632 -5.49229,9.06849 -6.71703,17.18426 -1.22466,8.11578 5.12697,10.18844 1.52206,15.4233 -3.60499,5.23487 -10.86497,-0.0603 -15.94185,5.51615 -5.07687,5.57651 0.19462,12.87497 -4.36567,16.78984 -4.56015,3.91487 -8.47309,-3.57594 -13.87521,-1.13035 -5.40212,2.44559 -0.75503,8.35673 -8.9275,11.87096 -8.17247,3.51425 -24.78062,1.93049 -24.78062,1.93049 z"
           id="path2991" />
        <path
           d="m 563.1764,847.5015 c 31.12987,-11.55484 58.29054,-39.37414 81.52189,-77.33641 -12.23218,22.59747 -41.40397,67.39166 -82.99012,80.4958 l 1.46823,-3.15939 z"
           id="path2993" />
        <path
           d="m 604.34005,822.17072 c 2.92817,-6.18935 2.74018,-10.85957 3.0231,-15.75939 0.32148,4.47984 0.79818,8.88396 -0.79175,14.29565 l -2.23135,1.46374 z"
           id="path2995" />
        <path
           d="m 624.16401,799.86801 c 1.35945,-6.75205 0.0627,-11.22719 -0.83239,-16.04645 1.38046,4.25625 2.8933,8.399 2.64457,14.0519 l -1.81218,1.99455 z"
           id="path2997" />
        <path
           d="m 620.71109,806.36611 c 5.90551,-3.13416 10.39527,-3.00429 15.09905,-3.36776 -4.30883,-0.2714 -8.54702,-0.70551 -13.72416,1.02524 l -1.37489,2.34252 z"
           id="path2999" />
        <path
           d="m 601.63549,826.19181 c 5.9056,-3.13415 10.39543,-3.00428 15.09913,-3.36774 -4.30869,-0.2714 -8.54695,-0.70552 -13.72416,1.02522 l -1.37497,2.34252 z"
           id="path3001" />
      </g>
      <use
         transform="matrix(0.9396927,-0.3420202,0.3420202,0.9396927,-152.38271,47.541298)"
         id="use4742"
         x="0"
         y="0"
         width="744.09448"
         height="1052.3622"
         xlink:href="#g3126" />
      <use
         transform="matrix(0.9848078,-0.1736482,0.1736482,0.9848078,-115.68591,58.231548)"
         id="use4744"
         x="0"
         y="0"
         width="744.09448"
         height="1052.3622"
         xlink:href="#g3137" />
      <use
         transform="matrix(0.9848078,0.1736482,-0.1736482,0.9848078,127.58446,-35.332934)"
         id="use4748"
         x="0"
         y="0"
         width="744.09448"
         height="1052.3622"
         xlink:href="#g3151" />
    </g>
    <use
       transform="matrix(-1,0,0,1,675.79739,0)"
       id="Ek-kvist-2"
       x="0"
       y="0"
       width="744.09448"
       height="1052.3622"
       xlink:href="#Ek-kvist" />
  </g>
  <g
     id="Molva-m-krok">
    <path
       d="m 125.55932,42.342273 -3.53475,9.225137 c -0.86599,2.260097 1.65349,3.595781 3.02988,3.59578 1.37639,-10e-7 3.02987,-0.08787 3.02987,-2.059752"
       id="Hook"
       style="fill:none;stroke:#ffcd50;stroke-width:1px" />
    <g
       transform="matrix(0,0.13984682,-0.13984682,0,146.89684,44.173212)"
       id="MolvaMolva"
       style="fill:#eeeeee;stroke:#003d8f">
      <g
         id="Fins-1">
        <path
           d="m 486.0074,103.36014 c 0,-9.414187 5.42281,-24.439897 1.17677,-36.479972 -1.87615,-5.320005 -10.78911,-18.707956 -18.53418,-19.41676 -44.62664,-4.084086 -64.84339,9.461802 -79.13801,21.476113 -9.82342,8.256369 -28.53675,31.772879 -28.53675,31.772879"
           id="path3676" />
        <path
           d="m 490.71449,101.59498 c 15.00386,-14.12128 43.03206,-36.882672 66.78189,-43.246419 20.62548,-5.52658 42.48689,-5.29548 63.83995,-5.29548 108.15826,0 233.33674,9.667851 348.03072,15.298054 12.2107,0.59941 45.05145,12.396012 54.42575,21.770307 8.6879,8.687879 -1.1767,23.829668 -22.3587,41.187068"
           id="path3678" />
        <path
           d="m 1022.616,132.77948 c 0,0 70.3715,-39.441015 99.1432,-33.243851 44.5913,9.604561 72.732,80.298061 5.5897,109.145731 -25.081,10.77604 -111.2051,-23.82967 -112.0877,-37.36256"
           id="path3680" />
        <path
           d="m 552.78929,206.62201 c -0.29419,8.5316 38.64445,41.41151 45.59996,42.36383 73.79096,10.1032 184.71691,4.12136 276.54174,0.58839 43.32375,-1.66689 109.63615,-14.46566 127.97411,-23.24127 15.2373,-7.29179 27.6542,-38.53933 -13.5329,-48.8361"
           id="path3682" />
      </g>
      <path
         d="m 137.90555,168.83266 c -12.28025,-1.27942 -32.6778,-17.98719 -38.404333,-19.97969 -26.6431,-9.27029 -57.326631,-20.19069 -54.665415,-31.30731 3.516872,-14.69093 80.527218,-13.87505 129.628938,-15.20757 17.03403,-0.46227 23.1148,-3.590111 29.67904,-3.590111 51.2184,0 156.21179,-7.792282 165.41447,-6.481572 42.80116,6.096041 134.59976,6.619205 297.91161,11.727613 163.07235,5.10091 435.30474,23.64462 435.30474,49.767 0,11.80535 -144.18917,59.65547 -550.30234,59.65547 -40.66146,0 -121.77038,1.66656 -185.56209,1.66656 -57.46158,0 -115.84298,-1.85326 -171.7017,-15.33051 C 148.4084,188.46091 75.737022,168.32126 75.979712,149.13813 c 0,0 58.399908,29.59629 61.925838,19.69453 z"
         id="Main-body" />
      <path
         d="m 249.37627,122.07797 c 124.68814,-2.04407 296.38986,54.16779 852.37633,32.70508"
         id="Mid-line"
         style="fill:none;stroke-width:1.5" />
      <path
         d="m 144.25,117.8125 c -13.76528,0 -28.9375,4.19492 -28.9375,11.84375 0,7.64884 15.17222,15.84375 28.9375,15.84375 13.76528,0 24.90625,-6.19492 24.90625,-13.84375 0,-7.64883 -11.14097,-13.84375 -24.90625,-13.84375 z M 143.34375,125 c 5.75533,0 10.4375,2.88052 10.4375,6.4375 0,3.55699 -4.68217,6.4375 -10.4375,6.4375 -5.75532,0 -10.40625,-2.88051 -10.40625,-6.4375 0,-3.55698 4.65093,-6.4375 10.40625,-6.4375 z"
         id="Eye"
         style="fill:#003d8f;stroke:none" />
      <g
         id="Nose"
         style="fill:#003d8f;stroke:none">
        <path
           d="m 93.250983,124.99866 c 0,1.47186 -1.286978,2.66504 -2.874545,2.66504 -1.587568,0 -2.874546,-1.19318 -2.874546,-2.66504 0,-1.47185 1.286978,-2.66503 2.874546,-2.66503 1.587567,0 2.874545,1.19318 2.874545,2.66503 z"
           id="path3625" />
        <path
           d="m 104.87935,125.01498 c 0,1.06224 -0.86112,1.92335 -1.92336,1.92335 -1.06224,0 -1.92335,-0.86111 -1.92335,-1.92335 0,-1.06224 0.86111,-1.92336 1.92335,-1.92336 1.06224,0 1.92336,0.86112 1.92336,1.92336 z"
           id="path3649" />
      </g>
      <path
         d="m 60.522627,151.03072 c 0.665084,4.52257 45.890783,40.96917 45.890783,40.96917 -1.99525,0.66508 -50.280336,-34.31832 -53.206705,-43.09743"
         id="Beard" />
      <path
         d="m 136.35361,177.22136 c -6.20563,1.28755 -14.65495,-5.61458 -20.50099,-8.06231 -20.576724,-8.61544 -46.311766,-7.38341 -63.073811,-18.94656 -3.607017,-2.48827 -7.608417,-6.86048 -5.746075,-10.82706 1.83265,-3.90334 6.567698,-1.13354 9.139618,-2.80653 -3.62225,-1.34842 -8.937493,-9.59487 -5.115053,-8.48995 5.152963,3.40788 52.382351,21.27407 70.966151,32.35059 3.62883,2.16289 17.04659,3.99727 18.38879,9.00643 0.50433,1.88219 -0.33021,7.00182 -4.05863,7.77539 z"
         id="Lip" />
      <path
         d="m 51.057299,128.08896 c -3.82244,-1.10492 1.492803,7.14153 5.115053,8.48995 3.62225,1.34842 13.560268,5.31339 20.312286,7.80097 2.527319,0.93112 44.161562,20.61761 48.418102,24.60811"
         id="Lip-line"
         style="fill:none" />
      <g
         id="Fins-2">
        <path
           d="m 230.94177,203.38588 c 11.47354,19.71095 96.78961,54.71996 109.73412,55.89673 -11.76773,-5.00129 -34.12643,-35.3032 -34.12643,-35.3032 -3.82451,3.23613 -45.59997,-18.23999 -47.65932,-20.88773"
           id="path3672" />
        <path
           d="m 281.54303,145.72398 c -0.29419,4.70709 7.05625,5.18587 9.41419,3.82451 2.15455,-1.24393 51.01457,-24.02001 77.37284,-20.29933 10.67458,1.5068 26.63712,6.0367 27.65418,16.76902 1.48621,15.68296 -6.43602,37.96899 -21.18192,46.48254 -9.14421,5.27941 -75.60769,-11.76773 -78.25543,-7.64902"
           id="path3674" />
      </g>
      <g
         id="Gills"
         style="fill:none">
        <path
           d="m 273.30561,151.90204 c 2.35355,11.17935 -39.26301,52.23118 -124.15908,35.73737"
           id="path3662" />
        <path
           d="m 240.94435,189.2646 c 25.00643,-8.8258 33.53804,-22.3587 32.06707,-34.42063"
           id="path3664" />
        <path
           d="m 232.41274,196.91362 c 1.76516,1.47097 32.36127,0.3037 35.89159,-25.58532"
           id="path3666" />
        <path
           d="m 234.76629,200.14975 c 10.00257,-1.47097 16.77376,3.68929 23.8344,-11.02038"
           id="path3668" />
        <path
           d="m 251.8295,198.10938 c -2.78296,9.09626 -49.83967,3.6703 -51.63331,2.77348"
           id="path3670" />
      </g>
    </g>
  </g>
  <use
     transform="matrix(0.91834956,0,0,0.91834956,50.247133,6.5267004)"
     id="Molva-2"
     x="0"
     y="0"
     width="251"
     height="304.20001"
     xlink:href="#Molva-m-krok" />
  <use
     transform="translate(-80,0)"
     id="Molva-3"
     x="0"
     y="0"
     width="251"
     height="304.20001"
     xlink:href="#Molva-2" />
  <path
     d="m 41.375,223.375 c -10.719301,0 -17.852712,5.76143 -23.78125,10.625 -0.835725,0.6856 -1.638555,1.36111 -2.4375,2 24.876904,47.96888 77.874551,66.75 110.34375,66.75 31.93429,0 85.28945,-18.82273 110.3125,-66.90625 -0.73049,-0.59212 -1.48568,-1.21233 -2.25,-1.84375 -5.89498,-4.86996 -13.0723,-10.625 -23.9375,-10.625 -10.87008,0 -18.16022,5.74313 -24.15625,10.625 -5.99603,4.88186 -10.68227,8.78125 -17.90625,8.78125 -7.60732,0 -12.38858,-3.91996 -18.34375,-8.78125 -5.95517,-4.86129 -13.07629,-10.625 -23.71875,-10.625 -10.62753,0 -17.61375,5.77679 -23.46875,10.625 -5.854999,4.84821 -10.577733,8.78125 -18.59375,8.78125 -7.637726,0 -12.170393,-3.90559 -18.03125,-8.78125 C 59.545393,229.12434 52.376086,223.375 41.375,223.375 z"
     id="Vagskura"
     style="fill:#eeeeee" />
  <path
     d="m 249.55062,1.4395041 -124.0505,0 -124.050551,0 0,173.4965959 c -0.76723996,93.72088 80.28944,127.81975 124.050531,127.81975 42.99385,0 124.81775,-34.09887 124.05052,-127.81975 l 0,-173.4965959 z"
     id="Frame"
     style="fill:none;stroke:#000000;stroke-width:1.88832211;stroke-linejoin:bevel" />
</svg>
