<?xml version="1.0" encoding="UTF-8" standalone="no"?>
<!-- Created with Inkscape (http://www.inkscape.org/) -->

<svg
   xmlns:dc="http://purl.org/dc/elements/1.1/"
   xmlns:cc="http://web.resource.org/cc/"
   xmlns:rdf="http://www.w3.org/1999/02/22-rdf-syntax-ns#"
   xmlns:svg="http://www.w3.org/2000/svg"
   xmlns="http://www.w3.org/2000/svg"
   version="1.0"
   width="251"
   height="304.20001"
   id="svg4166">
  <defs
     id="defs4168" />
  <metadata
     id="metadata1880"><rdf:RDF><cc:Work
         rdf:about=""><dc:title>Munkedal kommunvapen</dc:title><dc:date>31-08-2007</dc:date><dc:creator><cc:Agent><dc:title>Lokal_Profil</dc:title></cc:Agent></dc:creator><cc:license
         rdf:resource="http://creativecommons.org/licenses/by-sa/2.5/" /><dc:rights><cc:Agent><dc:title>cc-by-sa-2.5</dc:title></cc:Agent></dc:rights><dc:format>image/svg+xml</dc:format><dc:type
         rdf:resource="http://purl.org/dc/dcmitype/StillImage" /></cc:Work><cc:License
         rdf:about="http://creativecommons.org/licenses/by-sa/2.5/"><cc:permits
         rdf:resource="http://web.resource.org/cc/Reproduction" /><cc:permits
         rdf:resource="http://web.resource.org/cc/Distribution" /><cc:requires
         rdf:resource="http://web.resource.org/cc/Notice" /><cc:requires
         rdf:resource="http://web.resource.org/cc/Attribution" /><cc:permits
         rdf:resource="http://web.resource.org/cc/DerivativeWorks" /><cc:requires
         rdf:resource="http://web.resource.org/cc/ShareAlike" /></cc:License></rdf:RDF>
  </metadata>
  <path
     d="m 249.55058,1.4395082 -124.0505,0 -124.05055,0 0,173.4965918 c -0.76723997,93.72088 80.289439,127.81975 124.05053,127.81975 42.99385,0 124.81775,-34.09887 124.05052,-127.81975 l 0,-173.4965918 z"
     id="Shield"
     style="fill:#003d8f;stroke:none" />
  <g
     transform="matrix(0.974329,0,0,0.974329,-137.4583,-118.3517)"
     id="Papper"
     style="fill:#eeeeee;stroke:#003d8f;stroke-width:1px">
    <path
       d="M 201.51593,342.18558 324.36552,200.9655 c -7.99987,-8.68048 -5.31765,-22.39887 3.3478,-29.52419 11.6951,-9.61649 29.15892,-5.94216 38.03921,5.6294 11.26382,14.67744 6.57832,35.93866 -7.91098,46.55423 -17.64472,12.92737 -42.72935,7.22117 -55.06926,-10.19258 -11.8022,-16.65495 -9.93944,-39.69348 3.09609,-55.08991 0,0 -125.55791,134.97929 -125.55791,134.97929 -14.94416,17.65074 -17.07967,44.06253 -3.54941,63.15607 14.1467,19.96345 42.90417,26.50514 63.1324,11.68496 16.6108,-12.16988 21.98234,-36.54413 9.06929,-53.37062 -10.18052,-13.26585 -30.20136,-17.47817 -43.60884,-6.45364 -9.93423,8.16859 -13.00918,23.89561 -3.83798,33.84707 z"
       id="path8587" />
    <path
       d="m 250.13411,357.05567 c 8.44211,-13.54318 7.21911,-29.03326 -1.17136,-42.26352 -10.18052,-13.26585 -30.20136,-17.47817 -43.60884,-6.45364 0,0 122.35941,-136.8972 122.35941,-136.8972 11.6951,-9.61649 29.15892,-5.94216 38.03921,5.6294 8.21072,11.30635 7.70155,25.12998 1.02176,36.8657 0,0 -116.64018,143.11926 -116.64018,143.11926 z"
       id="path8589" />
  </g>
  <g
     transform="matrix(0.93104,0,0,0.93104,338.535,-12.31136)"
     id="Feather"
     style="fill:#eeeeee;stroke:#003d8f;stroke-width:1px">
    <path
       d="m -145.30348,229.33369 c -27.83102,-13.38144 -44.86052,-27.19141 -56.19632,-40.49829 12.22182,-8.7435 8.63091,-8.06138 -2.37449,-3.82557 -5.17804,1.99294 -14.11504,2.11066 -24.14068,-14.77462 -7.69659,-12.96269 -14.51078,-18.46828 -14.51078,-18.46828 8.66445,0.96904 23.76232,-1.75845 -2.24258,-4.55111 -11.18107,-13.73316 -25.11988,-25.62785 -38.25571,-38.05784 25.3812,10.34421 16.327,-0.67349 -4.68303,-4.02344 -14.01822,-19.176398 -39.76995,-29.481112 -68.06878,-37.859964 19.5303,0.691612 40.92589,-0.0864 49.33667,9.366054 l -0.13191,-4.551111 c 18.97709,4.719857 63.80238,20.999933 65.03555,24.553983 0.94732,2.73024 4.06445,8.828498 5.64337,14.598148 0.49046,-3.50217 0.3801,-7.36484 -0.37312,-11.613218 13.2349,6.003238 37.68831,24.285328 38.75738,28.636608 0.61841,2.51704 2.22558,21.69561 0.83951,30.22236 4.56864,-7.0809 5.19826,-15.95226 6.00848,-24.74154 4.65323,4.72765 23.77135,12.42057 20.20288,49.55372 3.95281,-4.38188 3.16773,-11.39594 4.29083,-17.34987 12.67043,16.1497 23.84716,40.09674 23.36914,63.91164"
       id="path2768" />
    <path
       d="m -207.23815,156.91166 c 0,0 -55.60271,-51.975 -55.60271,-51.975 62.46641,49.70876 114.24851,102.23343 142.37062,160.67399 l -1.74789,0 c 0,0 -3.42982,-5.01281 -5.93623,-7.12347 -2.50641,-2.11066 -10.15755,-7.2554 -10.15755,-7.2554 0,0 -6.58672,-19.98686 -20.20543,-39.38887 -13.61872,-19.40201 -32.64761,-37.87122 -36.56532,-41.97549 -3.91772,-4.10427 -12.15549,-12.95576 -12.15549,-12.95576 z"
       id="path1873" />
  </g>
  <path
     d="m 249.55062,1.4395082 -124.0505,0 -124.050551,0 0,173.4965918 c -0.76723897,93.72088 80.28944,127.81975 124.050531,127.81975 42.99385,0 124.81775,-34.09887 124.05052,-127.81975 l 0,-173.4965918 z"
     id="Frame"
     style="fill:none;stroke:#000000;stroke-width:1.88832211;stroke-linecap:round;stroke-linejoin:bevel" />
</svg>
