<?xml version="1.0" encoding="UTF-8" standalone="no"?>
<!-- Created with Inkscape (http://www.inkscape.org/) -->
<svg
   xmlns:dc="http://purl.org/dc/elements/1.1/"
   xmlns:cc="http://web.resource.org/cc/"
   xmlns:rdf="http://www.w3.org/1999/02/22-rdf-syntax-ns#"
   xmlns:svg="http://www.w3.org/2000/svg"
   xmlns="http://www.w3.org/2000/svg"
   version="1.0"
   width="251"
   height="304.20001"
   id="svg4166">
  <defs
     id="defs4168" />
  <metadata
     id="metadata1880"><rdf:RDF><cc:Work
         rdf:about=""><dc:title>Tanum kommunvapen</dc:title><dc:date>06-10-2007</dc:date><dc:creator><cc:Agent><dc:title>Lokal_Profil</dc:title></cc:Agent></dc:creator><cc:license
         rdf:resource="http://creativecommons.org/licenses/by-sa/2.5/" /><dc:rights><cc:Agent><dc:title>cc-by-sa-2.5</dc:title></cc:Agent></dc:rights><dc:format>image/svg+xml</dc:format><dc:type
         rdf:resource="http://purl.org/dc/dcmitype/StillImage" /></cc:Work><cc:License
         rdf:about="http://creativecommons.org/licenses/by-sa/2.5/"><cc:permits
         rdf:resource="http://web.resource.org/cc/Reproduction" /><cc:permits
         rdf:resource="http://web.resource.org/cc/Distribution" /><cc:requires
         rdf:resource="http://web.resource.org/cc/Notice" /><cc:requires
         rdf:resource="http://web.resource.org/cc/Attribution" /><cc:permits
         rdf:resource="http://web.resource.org/cc/DerivativeWorks" /><cc:requires
         rdf:resource="http://web.resource.org/cc/ShareAlike" /></cc:License></rdf:RDF>
  </metadata>
  <path
     d="M 249.55058,1.4395041 L 1.4495291,1.4395041 L 1.4495291,174.9361 C 0.68228908,268.65698 81.738969,302.75585 125.50006,302.75585 C 168.49391,302.75585 250.31781,268.65698 249.55058,174.9361 L 249.55058,1.4395041 z "
     style="color:#000000;fill:#d40000;fill-opacity:1;stroke:none"
     id="Shield" />
  <path
     d="M 1.223,1.1697432 L 1.223,146.93101 L 249.03918,146.93101 L 249.03918,1.1697432 L 125.13109,1.1697432 L 1.223,1.1697432 z "
     style="fill:#ffcd50;fill-opacity:1;fill-rule:nonzero;stroke:none;stroke-width:1.88800001;stroke-miterlimit:4;stroke-dasharray:none;stroke-opacity:1"
     id="Delning" />
  <path
     d="M 103.61903,129.75696 C 102.70849,129.1795 102.34126,126.89686 102.49104,122.74587 C 102.6132,119.3607 102.2496,115.76269 101.68304,114.75029 C 100.77402,113.12598 100.48812,113.30739 99.251365,116.29319 C 97.275341,120.72378 98.788486,127.60722 93.11,129.00122 C 92.596356,128.48597 92.035448,125.04534 91.863552,121.35536 C 91.585406,115.38467 91.305835,114.61137 89.323228,114.32888 C 88.09796,114.1543 84.711666,115.2579 81.798132,116.78135 C 76.081445,119.77052 74.089715,119.52172 77.100745,116.19455 C 79.19883,113.87619 79.055731,113.43347 76.068584,113.00119 C 71.669451,112.36457 69.513514,114.11354 67.296493,120.11738 C 65.266025,125.616 62.993774,128.5805 60.809597,128.5805 C 60.297955,128.5805 59.979884,126.14201 60.102783,123.16165 C 60.413464,115.62717 60.306046,115.1624 58.254049,115.1624 C 56.145291,115.1624 54.429498,117.5674 53.443465,121.90532 C 52.446541,126.29113 50.182444,128.96789 48.134419,128.18198 C 46.414374,127.52194 46.42711,126.4343 48.240546,119.12437 C 48.759206,117.03364 48.453222,116.12638 46.959891,115.32718 C 45.3985,114.49154 43.559736,115.11131 37.95703,118.36166 C 31.073753,122.35491 27.040924,122.92232 27.040924,119.89754 C 27.040924,118.20028 30.004485,115.60435 32.97585,114.69884 C 35.869876,113.81691 36.019942,112.06591 33.201502,112.06591 C 29.531352,112.06591 29.484596,108.92226 33.106615,105.68599 C 34.929226,104.05749 36.154092,102.29409 35.828538,101.76734 C 35.502984,101.24058 33.392596,99.773202 31.138779,98.506482 C 25.373395,95.266166 25.705586,93.225407 31.943689,93.561624 C 39.672822,93.978194 42.258532,93.601559 42.885456,91.967805 C 43.293614,90.904172 42.013372,89.80496 38.6162,88.302229 L 33.763958,86.155854 L 38.151314,84.191576 C 40.901879,82.960114 42.92089,81.222007 43.563173,79.532669 C 44.955692,75.870067 44.859268,67.972661 43.411094,67.077644 C 42.763981,66.677706 39.508709,66.432275 36.177151,66.532242 C 29.712683,66.726215 26.008763,65.447434 26.008763,63.021597 C 26.008763,62.200854 27.286062,61.225133 28.847206,60.853329 C 36.323243,59.072827 40.385499,53.299117 35.298214,51.684474 C 32.588449,50.824428 32.694163,49.999358 35.814295,47.656233 C 38.923339,45.321438 39.148175,42.354822 36.330374,40.84678 C 33.983995,40.408803 32.026803,39.381843 29.541282,38.782458 C 28.305104,38.782458 26.766616,38.147374 26.122424,37.371162 C 24.019746,34.837603 27.424206,33.265877 33.627857,33.90615 C 38.269827,34.385243 39.861605,35.146315 43.672117,38.708559 C 46.162578,41.03676 49.361411,43.260166 50.780632,43.649463 C 53.945147,44.517499 68.013959,44.628174 88.128346,43.943264 L 103.28461,43.427184 L 106.19118,46.101351 C 107.78979,47.572142 110.89039,49.847706 113.08138,51.158158 C 118.95413,54.670686 122.32985,58.108864 121.64868,59.883961 C 121.12784,61.241257 120.54834,61.250511 116.89047,59.95994 C 112.22898,58.315271 112.06837,58.512452 111.4407,66.650812 C 111.22425,69.457172 110.66501,70.334204 108.93475,70.58075 C 107.20249,70.827582 106.56061,70.229652 106.04688,67.890616 C 105.68357,66.236487 105.50482,64.468016 105.64966,63.960679 C 106.16678,62.149394 104.41111,54.264877 103.49068,54.264877 C 102.9748,54.264877 102.25088,55.774413 101.88196,57.619401 C 100.73545,63.353117 98.133628,70.779458 97.271329,70.779458 C 95.829292,70.779458 94.511778,68.293948 94.317454,65.206935 C 93.968201,59.658884 89.919951,57.589675 86.597476,61.260968 C 85.683972,62.270376 83.671608,63.200944 82.125544,63.328901 L 79.314525,63.561548 L 81.716777,61.004472 C 83.667253,58.928284 83.832254,58.337354 82.594166,57.862252 C 80.018253,56.873782 75.58959,59.230888 74.362608,62.243403 C 71.139023,70.158 70.13794,71.898989 69.024444,71.527027 C 68.214539,71.256483 67.930261,68.978144 68.169196,64.672776 C 68.516374,58.416948 68.454691,58.234046 66.109807,58.566689 C 64.099105,58.851926 63.43041,59.949023 62.134149,65.089436 C 60.143161,72.984789 57.741621,73.888443 56.097925,67.360748 C 53.565012,57.301625 49.898217,59.654344 48.759434,72.069334 C 48.210974,78.048598 48.367306,79.114462 49.862329,79.588966 C 51.788579,80.200334 62.207133,78.720345 72.262025,76.407018 C 79.876764,74.6551 82.777633,74.519026 82.777633,75.913758 C 82.777633,77.291266 77.894467,79.649451 73.333853,80.474356 C 66.968514,81.625695 65.240986,86.261877 71.177317,86.261877 C 76.404831,86.261877 98.830883,81.882433 106.4928,79.365334 C 116.69141,76.014879 131.17115,75.237703 146.25555,77.231131 C 166.66328,79.928048 175.39839,79.382289 171.66,75.643898 C 170.6957,70.245783 164.83214,61.939976 167.92992,56.701959 C 170.69874,52.476221 177.4791,52.222743 176.39047,56.385668 C 175.63806,59.262905 177.74643,67.751585 179.36803,68.373852 C 180.15697,68.676595 182.23838,67.716053 183.99339,66.239312 C 185.74839,64.762571 187.75919,63.554328 188.46184,63.554328 C 189.16448,63.554328 193.05012,66.341165 197.0966,69.747297 C 201.14309,73.153428 204.71282,75.940264 205.02933,75.940264 C 205.80381,75.940264 205.75976,69.747844 204.95674,65.732739 C 204.60029,63.950499 203.78747,62.599513 203.15046,62.730551 C 202.51345,62.861586 199.07456,62.337236 195.50848,61.565328 C 188.6437,60.079388 183.92944,56.234396 183.92944,52.121362 C 182.4473,48.948685 180.22599,45.617018 177.66132,43.155159 C 173.52016,40.25458 176.38897,34.441519 181.07428,36.239447 C 185.21107,40.152976 185.49507,45.82797 188.94471,50.136412 C 191.40227,53.080177 192.57949,53.611529 197.5586,54.024437 C 203.90653,54.550856 204.58742,53.894871 204.22999,47.597201 C 204.08448,45.033385 203.51817,44.432123 200.70842,43.858258 C 198.86693,43.482152 196.67045,42.601936 195.82734,41.902222 C 193.96812,40.359211 195.04382,37.911973 199.80737,32.84753 C 202.51752,29.966184 203.66213,29.493006 207.92182,29.493006 C 212.27625,29.493006 213.00201,29.811138 213.87285,32.101649 C 214.57787,33.956007 214.42562,35.970533 213.34624,39.068738 C 212.51112,41.465883 211.82108,45.348454 211.81281,47.696674 L 211.79779,51.966163 L 216.70056,52.695069 C 224.42147,53.842954 225.78935,56.020618 225.45428,66.630916 C 225.30155,71.467212 224.96425,77.51431 224.70474,80.068909 C 223.04587,96.398581 222.88006,104.03506 224.16706,104.83048 C 225.62786,105.7333 225.70733,107.50239 224.83988,119.80712 L 224.25776,128.06441 L 220.35014,128.77905 C 211.39012,130.41769 209.82406,129.46203 214.44608,125.17624 C 216.92761,122.87524 217.1014,122.07642 217.20592,112.49049 C 217.26727,106.86392 217.02514,99.93802 216.66786,97.099574 C 216.31059,94.26113 215.9976,91.324116 215.97235,90.57288 C 215.87199,87.587423 212.46949,90.142622 210.71748,94.51917 C 209.29229,98.079322 208.97162,100.99004 209.34422,106.98443 C 209.68925,112.53543 209.3508,116.21741 208.17793,119.672 C 207.26911,122.34885 206.79345,125.38311 207.12089,126.4148 C 207.64154,128.05524 206.86589,128.37772 200.939,128.98494 C 197.21151,129.36683 193.6759,129.37901 193.08208,129.01202 C 192.45705,128.62573 193.48747,127.12062 195.52901,125.4378 C 198.58789,122.91642 199.23674,121.52886 200.42111,114.97602 C 202.48031,103.583 202.56145,102.94658 203.18613,93.288907 C 203.82287,83.444808 203.32774,82.166189 195.71343,73.991221 C 192.08052,70.090817 193.56015,69.913043 182.81469,75.540978 C 180.11774,76.953508 179.73803,77.618758 180.3108,79.927663 C 181.06369,82.962519 184.6932,87.294038 186.48333,87.294038 C 188.44925,87.294038 189.91032,89.430337 189.36656,91.509723 C 188.96628,93.040404 187.92111,93.487009 184.73925,93.487009 C 181.47212,93.487009 180.01478,94.144558 177.6345,96.692644 C 175.98751,98.455751 174.63998,100.51855 174.63998,101.27666 C 174.63998,103.21842 166.65456,111.09159 161.73432,114.00093 C 156.72116,116.9652 149.16261,119.3516 147.18749,118.59369 C 144.37678,117.5151 145.57492,113.65613 149.35204,111.62201 C 153.50443,108.71085 157.76062,105.87277 161.57562,102.37131 C 166.20594,97.957682 167.41486,96.146796 167.41486,93.624441 C 167.41486,89.601731 164.89349,88.243961 152.79991,85.754211 C 143.60975,83.862197 143.85575,83.858728 117.35504,86.254106 C 104.66779,87.400896 102.09333,87.756421 91.034923,89.888827 C 86.209569,90.819308 80.756506,91.530828 78.916998,91.469986 C 77.077491,91.409141 74.203902,92.06706 72.531243,92.932027 C 69.980453,94.251098 67.342415,94.417069 61.876367,93.602384 C 60.57668,93.408678 61.015719,89.560655 62.392447,89.079092 C 64.604781,88.305247 60.294177,84.457949 57.188434,84.434404 C 55.651051,84.422749 52.846369,85.57795 50.955811,87.001518 C 47.858605,89.333674 47.565513,89.997471 47.994231,93.708965 C 48.255925,95.974497 49.382663,98.740741 50.498099,99.856179 C 52.458617,101.8167 53.14165,101.84315 71.006422,100.65059 C 81.170568,99.972083 92.737989,99.426246 96.71181,99.437632 C 104.47104,99.459865 112.7103,101.19986 112.7103,102.81624 C 115.16906,104.79976 117.96261,107.13065 120.29287,109.69173 C 124.85708,114.9057 125.15188,115.54911 123.66009,117.04089 C 122.16831,118.53268 121.57607,118.51432 116.89539,116.83117 C 111.22529,114.79222 109.63843,115.17314 109.65956,118.56808 C 109.68448,122.57038 108.8962,128.26868 108.15077,129.47482 C 107.3023,130.84767 105.51434,130.959 103.61903,129.75696 z "
     style="fill:#d40000;fill-opacity:1"
     id="Plowing-man" />
  <path
     d="M 55.377318,191.26435 C 59.296894,190.61405 56.421202,178.30504 52.161584,176.47199 C 33.36101,179.68773 39.298669,207.34298 42.192827,208.3077 C 47.695117,220.15211 68.824809,228.26063 68.561791,230.49622 C 54.734167,238.53554 31.891329,212.90731 29.651486,213.13129 C 26.435762,213.45286 24.811736,218.73123 25.776461,221.30382 C 36.691777,236.91975 58.930776,240.78656 60.522475,240.78656 C 110.99499,248.05507 161.78735,239.81474 212.30483,235.96296 C 223.86016,234.95815 225.48931,234.55016 225.48931,231.13936 C 226.17146,225.22732 195.95979,226.62119 195.95979,225.25687 C 195.27763,221.61869 214.76935,214.28282 218.79145,202.4252 C 230.16077,179.00442 213.37753,174.22099 209.73225,174.22099 C 203.36543,173.9936 200.36762,180.8018 201.04978,181.93873 C 203.38139,187.03748 209.36496,178.6706 213.91269,187.0839 C 217.87837,193.85362 201.60543,209.63996 197.28509,217.43115 C 199.78634,198.55809 195.76195,198.03117 191.08102,197.05266 C 183.80467,201.14561 193.18937,206.63405 188.18687,222.77847 C 188.18687,222.77847 185.29271,223.18045 185.29271,222.77847 C 183.52406,212.72933 188.83001,204.20765 180.54952,201.39389 C 172.02785,204.93118 180.66608,210.25021 178.86126,222.77847 C 178.05733,223.26084 174.03766,222.93926 172.42981,221.81376 C 172.35488,220.78296 178.78203,202.61309 171.46508,201.47428 C 165.51598,205.25276 170.98273,208.06652 166.96307,219.80392 C 166.80228,220.28629 163.90812,220.60787 163.42577,220.2059 C 162.59147,219.12208 169.14319,202.19782 161.01397,200.99192 C 153.39468,203.32866 161.01397,210.23714 157.31589,220.2059 C 156.74553,220.69234 155.38644,220.36668 155.06488,219.88432 C 154.34133,216.74899 157.23548,201.07231 151.52758,200.75074 C 146.786,202.7827 149.70529,208.138 149.59814,220.2059 C 148.8746,220.44708 145.90005,221.00983 145.09612,220.2059 C 145.1765,216.5882 150.32167,204.20765 142.20196,196.81147 C 140.29111,192.69492 124.97144,186.71079 120.5762,194.07812 C 123.55075,204.44883 131.67045,197.37423 135.12736,200.58996 C 135.12736,200.58996 142.19959,202.3253 140.51371,220.04512 C 139.46859,220.76865 136.206,220.44126 136.09208,219.88432 C 134.0456,209.87933 140.68217,210.45841 133.5195,202.84097 C 125.78837,202.04511 131.59341,212.38057 130.11539,220.33909 C 129.45674,220.94641 127.92832,222.07054 126.4449,221.17061 C 124.28473,211.84778 130.75242,207.33017 122.90761,204.26045 C 115.97231,204.26045 123.39369,208.85146 120.01344,221.49219 C 119.21758,222.28804 116.75735,223.05565 115.51142,221.49219 C 113.35126,218.19509 118.54882,205.92684 112.2957,204.67622 C 109.32006,204.67622 108.96628,210.08385 109.07997,222.13533 C 108.5115,222.70379 106.00079,222.11917 103.95431,220.0727 C 104.51336,218.82207 107.91406,208.2202 103.8211,204.12726 C 97.454289,202.99033 100.15395,212.68264 98.789638,220.52748 C 97.931205,220.99613 96.805023,221.30382 95.89548,220.84904 C 93.394238,209.25234 101.33659,205.93019 93.378078,203.20155 C 86.78387,203.31525 89.350337,209.87598 88.554488,221.81376 C 87.758629,222.26853 84.357878,221.81376 83.675714,221.81376 C 83.781328,214.76478 89.093969,203.40943 84.318855,202.84097 C 75.74072,202.49989 80.008561,213.40047 77.962087,221.81376 C 76.37038,222.38222 76.130189,220.84904 74.993257,220.84904 C 72.946783,215.84654 80.073777,203.65632 73.706965,202.51939 C 66.657981,203.20155 70.114484,206.01376 68.977553,220.33909 C 67.158466,219.26585 52.087954,210.16726 49.910576,202.84097 C 47.864101,201.02187 45.668258,188.31502 48.624285,187.40547 C 51.352914,185.58639 51.550753,195.37346 55.377318,191.26435 z "
     style="fill:#ffcd50;fill-opacity:1;fill-rule:evenodd;stroke:none;stroke-width:1px;stroke-linecap:butt;stroke-linejoin:miter;stroke-opacity:1"
     id="Ship" />
  <path
     d="M 249.55062,1.4395041 L 1.449569,1.4395041 L 1.449569,174.9361 C 0.68232904,268.65698 81.739009,302.75585 125.5001,302.75585 C 168.49395,302.75585 250.31785,268.65698 249.55062,174.9361 L 249.55062,1.4395041 z "
     style="fill:none;fill-opacity:0;stroke:#000000;stroke-width:1.88832211;stroke-linejoin:bevel"
     id="Frame" />
</svg>
