<?xml version="1.0" encoding="UTF-8" standalone="no"?>
<!-- Created with Inkscape (http://www.inkscape.org/) -->

<svg
   xmlns:svg="http://www.w3.org/2000/svg"
   xmlns="http://www.w3.org/2000/svg"
   xmlns:xlink="http://www.w3.org/1999/xlink"
   version="1.0"
   width="251"
   height="304.20001"
   id="svg4166">
  <defs
     id="defs4168" />
  <path
     d="m 249.55058,1.4395041 -124.0505,0 -124.0505509,0 0,173.4965959 C 0.68228908,268.65698 81.738969,302.75585 125.50006,302.75585 c 42.99385,0 124.81775,-34.09887 124.05052,-127.81975 l 0,-173.4965959 z"
     id="Shield"
     style="fill:#ffcd50;fill-opacity:1;fill-rule:nonzero;stroke:none;stroke-width:1.88832211;marker:none;visibility:visible;display:block" />
  <path
     d="m 1.1,1.098484 0,90.194 248.5,0 0,-90.194 -124.25,0 -124.25,0 z"
     id="Chef"
     style="fill:#d40000;fill-opacity:1;fill-rule:nonzero;stroke:none;stroke-width:1.88832211;marker:none;visibility:visible;display:block" />
  <use
     transform="translate(-71,2.070312e-7)"
     id="OakLeaf2"
     x="0"
     y="0"
     width="251"
     height="304.60001"
     xlink:href="#OakLeaf" />
  <use
     transform="translate(71,-2.070312e-7)"
     id="OakLeaf3"
     x="0"
     y="0"
     width="251"
     height="304.60001"
     xlink:href="#OakLeaf" />
  <path
     d="m 126.46306,84.086247 c 0,-3.869151 0.43886,-5.487374 1.80307,-6.648536 3.98872,-3.395065 5.21707,-8.137002 2.46208,-9.504633 -1.3191,-0.654828 -1.10323,-1.17877 1.51969,-3.688606 3.70513,-3.545374 6.92792,-7.122308 6.14001,-8.253184 -0.31908,-0.457982 -2.26771,-1.106254 -3.3272,-1.106254 -1.83625,0 -2.39663,-1.493863 -0.15388,-4.151557 3.07246,-3.64089 6.0628,-7.430089 6.0628,-9.236473 0,-1.200161 -0.7266,-1.368346 -4.3474,-1.006319 l -4.34739,0.434666 3.04072,-3.07205 c 3.62968,-3.667053 7.98781,-10.868557 7.05655,-12.205193 -0.36395,-0.522394 -2.2428,-0.814588 -4.1752,-0.649334 l -3.51345,0.300485 1.69236,-3.990282 c 1.19679,-2.088272 1.49894,-4.019901 1.49894,-4.883601 0,-1.931693 -2.05484,-2.08568 -5.45091,-0.915474 l -1.77599,0.450878 0.66378,-2.276513 c 2.82175,-4.9063858 2.57901,-6.3136068 -0.98015,-5.6821688 -1.04631,0.185623 -2.28033,1.44069 -2.74409,1.335374 -0.46376,-0.105313 -0.15725,-1.571008 -0.15725,-1.994232 0,-1.958231 -2.81999,-2.307231 -4.08814,-0.50595 -0.40937,0.581456 0.0866,2.295259 -0.46198,2.485349 -0.5486,0.190081 -2.14178,-1.143529 -2.91423,-1.315506 -1.83086,-0.407622 -2.20607,-0.146732 -2.20308,1.53193 0.002,1.1127728 0.87298,3.2880498 1.93551,4.8339418 l 0.5778,1.553351 -1.50047,-0.05206 c -3.87207,-1.776167 -6.82451,-1.692847 -6.79782,0.191846 0.0117,0.825699 0.86078,3.141969 1.88691,5.147258 l 1.8657,3.645965 -3.28051,0 c -1.8043,0 -3.54874,0.384984 -3.87655,0.855507 -0.72197,1.036206 4.04678,9.841362 5.97953,11.264244 0.75772,0.557822 1.78174,1.683957 2.27558,2.502485 0.80008,1.326107 0.47822,1.438329 -2.95411,1.029955 -3.16101,-0.376093 -3.96268,0.01965 -4.39914,1.112424 -0.82072,2.054784 4.14663,8.049049 6.62747,10.450981 0.5356,0.743251 1.74822,1.293051 1.60675,2.229752 -0.91768,0.193437 -1.83538,0.386882 -2.75309,0.580323 -1.12514,0 -2.31171,0.38177 -2.63678,0.848385 -0.86926,1.247597 0.44308,6.547473 6.37985,8.994348 0.92838,0.78901 1.85679,1.578011 2.78517,2.367026 0.27439,0.516212 -3.77414,1.944995 -3.75657,4.374592 0.5044,2.612278 4.35659,5.720435 4.88077,5.720435 0.53518,0 0.95304,2.632777 0.95304,6.005132 0,4.765988 0.29932,6.005131 1.45066,6.005131 1.12721,0 1.45064,-1.140116 1.45064,-5.113836 z"
     id="OakLeaf"
     style="fill:#ffcd50;fill-opacity:1" />
  <path
     d="m 249.55062,1.4395041 -124.0505,0 -124.050551,0 0,173.4965959 c -0.76723996,93.72088 80.28944,127.81975 124.050531,127.81975 42.99385,0 124.81775,-34.09887 124.05052,-127.81975 l 0,-173.4965959 z"
     id="Frame"
     style="fill:none;stroke:#000000;stroke-width:1.88832211;stroke-linecap:round;stroke-linejoin:bevel;stroke-miterlimit:4;stroke-opacity:1;stroke-dashoffset:0;marker:none;visibility:visible;display:block" />
  <path
     d="m 165.65678,169.78008 c 4.77448,3.80495 6.20018,9.44682 15.18766,10.98263 -0.18516,-1.47719 -1.23454,-2.95436 -1.74375,-3.78323 4.46275,2.60249 7.73723,3.90832 12.74011,5.10609 -0.70057,-1.54665 -2.04929,-2.76914 -2.85791,-3.77554 3.55231,1.67174 9.4301,2.31541 13.63055,1.71802 -0.93666,-0.98017 -1.87332,-1.96035 -2.80998,-2.7244 3.72363,0.0247 7.23119,-0.27473 10.84678,-0.68223 -0.9552,-1.08823 -1.9104,-2.17645 -3.18966,-3.04857 2.76222,-0.53409 5.0553,-1.80283 7.49347,-3.20137 -5.88508,-13.85084 -16.7706,-26.23031 -40.07722,-16.79831 0,-2.11672 1.05836,-3.17508 6.35015,-4.23344 10.5836,-2.11672 44.45109,-10.58359 33.8675,-47.62617 0,26.45899 -46.99002,31.75078 -89.96054,31.75078 -42.64897,0 -95.252338,-5.29179 -95.252338,-31.75078 -10.583593,37.04258 26.458983,45.50945 37.042576,47.62617 5.291796,1.05836 6.350155,2.11672 6.429247,4.38608 -23.306628,-10.80732 -36.3508,2.15736 -40.860946,18.14758 2.546191,0.64215 4.552258,1.28429 7.098448,0.95394 -1.495324,0.54794 -2.558552,1.20397 -3.513742,2.29218 3.615588,0.4075 7.123149,1.24723 10.846775,1.2225 -1.476792,0.54796 -3.061611,1.0959 -4.430377,2.29219 3.768363,0.70545 7.644752,0.8706 11.305087,-0.15282 -1.240704,1.11445 -2.049311,2.12084 -2.749882,3.66749 5.002886,-1.19776 9.897755,-2.2875 14.360518,-4.88998 -0.50924,0.82886 -1.450577,2.4141 -1.635748,3.89128 5.314615,-1.5358 10.30515,-3.17966 15.079641,-6.98461"
     id="path5082"
     style="fill:#000000;fill-opacity:1;fill-rule:evenodd;stroke:#ffcd50;stroke-width:1.00000012;stroke-linecap:butt;stroke-linejoin:miter;stroke-miterlimit:4;stroke-opacity:1;stroke-dasharray:none;stroke-dashoffset:0;marker:none;visibility:visible;display:inline;overflow:visible;enable-background:accumulate" />
  <path
     d="m 205.69652,163.03374 c -11.76341,-7.79343 -27.99537,-0.0382 -35.29021,1e-5 6.76013,18.98691 -1.33675,37.05696 -7.18026,44.92679 -1.1076,6.80014 -8.1945,29.83815 -10.15256,33.14993 -2.01059,3.40065 1.67986,12.88043 -5.34832,24.22118 -6.58321,10.62274 -5.47039,14.8643 -21.00712,14.71149 -15.64478,-0.15385 -18.73093,-4.84838 -24.93763,-16.17186 -6.412984,-11.69978 -1.57225,-20.96245 -4.44705,-24.79529 -2.308409,-3.07772 -7.345945,-20.495 -7.518373,-27.29514 -9.662799,-9.24514 -17.759682,-31.59393 -11.152313,-48.44149 -11.266901,0.26743 -19.249206,-6.72375 -31.318153,-2.13938"
     id="path4104"
     style="fill:#000000;fill-opacity:1;fill-rule:evenodd;stroke:#ffcd50;stroke-width:1.00000012;stroke-linecap:round;stroke-linejoin:miter;stroke-miterlimit:4;stroke-opacity:1;stroke-dasharray:none" />
  <path
     d="m 136.24671,256.23402 c 0.002,23.98521 -3.80478,34.96599 -11.11277,34.96599 -7.30799,0 -11.11496,-10.98078 -11.11277,-34.96599 8.91721,1.73147 13.30371,0.83618 22.22554,0 z"
     id="Tongue"
     style="fill:#d40000;fill-opacity:1;fill-rule:evenodd;stroke:none" />
  <path
     d="m 104.63383,203.37617 c 1.37494,5.95968 2.1388,22.61621 -5.19423,32.09057 -6.642072,8.58164 -9.624603,21.54655 -3.666516,27.50624 5.958086,5.9596 10.541236,8.25183 19.554756,5.80678 9.01353,-2.44496 14.36053,-1.06967 21.23523,-0.15281 6.87472,0.91695 11.61063,2.13944 17.11041,-3.97307 5.8691,-6.52296 6.56917,-16.96217 -1.37495,-27.20058 -7.22883,-9.31655 -6.87472,-30.40964 -5.65253,-33.61869"
     id="path5080"
     style="fill:#000000;fill-opacity:1;fill-rule:evenodd;stroke:#ffcd50;stroke-width:1.00000012;stroke-linecap:round;stroke-linejoin:miter;stroke-miterlimit:4;stroke-opacity:1;stroke-dasharray:none;stroke-dashoffset:0;marker:none;visibility:visible;display:inline;overflow:visible;enable-background:accumulate" />
  <path
     d="m 116.28963,117.70571 c 4.94039,-4.14525 11.88852,-3.52068 17.67856,0.54027 6.5462,-2.74647 11.84294,0.50259 13.93531,3.3497 6.19558,-0.89537 8.1416,-1.06988 12.531,2.3772 5.5483,1.1509 10.89971,2.29722 8.96613,11.77794 1.86968,3.54525 2.20873,6.67928 -0.21605,9.07659 1.71017,3.71402 1.69568,5.94217 -0.54011,8.75241 0.0386,3.38881 -1.94711,7.59674 -5.83339,8.10411 -0.60726,3.02149 -4.11605,6.22789 -9.39826,4.75438 -2.52383,3.48046 -6.66825,4.53598 -10.47849,2.91747 -2.58415,3.30088 -6.88363,3.66161 -9.50627,2.70137 -1.04425,1.69286 -3.25372,4.28819 -4.86115,4.5383 -1.62039,0.25213 -2.88069,1.62081 -3.70807,3.02552 -0.82737,-1.40471 -1.54753,-2.44922 -3.16792,-2.70136 -1.60746,-0.25011 -3.49283,-2.08906 -4.32103,-3.34969 -3.05475,0.41995 -6.49004,0.0592 -9.83036,-2.37721 -3.70222,0.53797 -6.55032,-0.1934 -9.07416,-3.67385 -5.498251,-0.0393 -8.68297,-2.92149 -10.046391,-5.72688 -3.886306,-0.50737 -6.196101,-2.87836 -6.913648,-7.13161 -3.151116,-2.09335 -3.043523,-6.08811 -2.808674,-10.15713 -3.087435,-2.52987 -1.997325,-5.68654 0.648161,-9.07658 -1.360923,-7.95323 4.873004,-8.94265 10.154418,-10.80546 2.813404,-4.03823 7.098733,-5.89021 13.935324,-4.75439 3.49482,-2.04551 6.83442,-4.60717 12.85507,-2.1611 z"
     id="path5107"
     style="fill:#000000;fill-opacity:1;fill-rule:evenodd;stroke:#000000;stroke-width:1.00000012;stroke-linecap:butt;stroke-linejoin:miter;stroke-miterlimit:4;stroke-opacity:1;stroke-dasharray:none;stroke-dashoffset:0;marker:none;visibility:visible;display:inline;overflow:visible;enable-background:accumulate" />
  <path
     d="m 106.13519,242.50873 c 14.25942,-0.54027 12.03759,2.26915 19.22859,2.26915 7.29899,0 7.8859,-3.24164 18.58043,-3.02554"
     id="path5118"
     style="fill:#000000;fill-opacity:0.75;fill-rule:evenodd;stroke:#ffcd50;stroke-width:1.00000012;stroke-linecap:round;stroke-linejoin:miter;stroke-miterlimit:4;stroke-opacity:1;stroke-dasharray:none;stroke-dashoffset:0;marker:none;visibility:visible;display:inline;overflow:visible;enable-background:accumulate" />
  <path
     d="m 119.85447,239.80737 c 2.91669,1.62081 9.39824,1.08054 11.45073,-0.21612"
     id="path5120"
     style="fill:#000000;fill-opacity:0.75;fill-rule:evenodd;stroke:#ffcd50;stroke-width:1.00000012;stroke-linecap:round;stroke-linejoin:miter;stroke-miterlimit:4;stroke-opacity:1;stroke-dasharray:none;stroke-dashoffset:0;marker:none;visibility:visible;display:inline;overflow:visible;enable-background:accumulate" />
  <path
     d="m 144.37632,250.1806 c -10.34045,6.40522 3.71139,16.04857 4.10497,5.72686"
     id="path5122"
     style="fill:#000000;fill-opacity:0.75;fill-rule:evenodd;stroke:#ffcd50;stroke-width:1.00000012;stroke-linecap:round;stroke-linejoin:miter;stroke-miterlimit:4;stroke-opacity:1;stroke-dasharray:none;stroke-dashoffset:0;marker:none;visibility:visible;display:inline;overflow:visible;enable-background:accumulate" />
  <path
     d="m 104.3974,250.1806 c 13.68925,5.6488 -2.84719,17.8855 -4.537081,7.13154"
     id="path5124"
     style="fill:#000000;fill-opacity:0.75;fill-rule:evenodd;stroke:#ffcd50;stroke-width:1.00000012;stroke-linecap:round;stroke-linejoin:miter;stroke-miterlimit:4;stroke-opacity:1;stroke-dasharray:none;stroke-dashoffset:0;marker:none;visibility:visible;display:inline;overflow:visible;enable-background:accumulate" />
  <g
     transform="matrix(1.0583593,0,0,1.0583593,-253.52992,45.813014)"
     id="g4020">
    <path
       d="m 321.90384,122.8368 c 5.00901,-1.85173 12.34679,0.68151 13.99691,1.92069 1.55543,1.16806 5.06782,6.76278 4.35246,13.71918"
       id="path5114"
       style="fill:#000000;fill-opacity:0.75;fill-rule:evenodd;stroke:#ffcd50;stroke-width:0.94485885;stroke-linecap:round;stroke-linejoin:miter;stroke-miterlimit:4;stroke-opacity:1;stroke-dasharray:none;stroke-dashoffset:0;marker:none;visibility:visible;display:inline;overflow:visible;enable-background:accumulate" />
    <path
       d="m 323.27337,134.55997 c -0.025,4.7166 9.43681,5.26304 9.60893,-0.0135 0.0908,-2.78379 -2.7138,-3.26825 -2.32287,-2.62167 1.13801,2.2583 0.13853,4.86506 -2.42187,4.93677 -2.73395,0.0766 -3.6635,-2.82359 -2.30025,-4.98811 0.70652,-0.52589 -2.54772,-0.37598 -2.56394,2.68646 z"
       id="path5126"
       style="fill:#ffcd50;fill-opacity:1;fill-rule:evenodd;stroke:#ffcd50;stroke-width:0.94485885;stroke-linecap:butt;stroke-linejoin:miter;stroke-miterlimit:4;stroke-opacity:1;stroke-dasharray:none" />
  </g>
  <g
     transform="matrix(-1.0583593,0,0,1.0583593,505.13938,45.787217)"
     id="g4024">
    <path
       d="m 321.90384,122.8368 c 5.00901,-1.85173 12.34679,0.68151 13.99691,1.92069 1.55543,1.16806 5.06782,6.76278 4.35246,13.71918"
       id="path4026"
       style="fill:#000000;fill-opacity:0.75;fill-rule:evenodd;stroke:#ffcd50;stroke-width:0.94485885;stroke-linecap:round;stroke-linejoin:miter;stroke-miterlimit:4;stroke-opacity:1;stroke-dasharray:none;stroke-dashoffset:0;marker:none;visibility:visible;display:inline;overflow:visible;enable-background:accumulate" />
    <path
       d="m 323.27337,134.55997 c -0.025,4.7166 9.43681,5.26304 9.60893,-0.0135 0.0908,-2.78379 -2.7138,-3.26825 -2.32287,-2.62167 1.13801,2.2583 0.13853,4.86506 -2.42187,4.93677 -2.73395,0.0766 -3.6635,-2.82359 -2.30025,-4.98811 0.70652,-0.52589 -2.54772,-0.37598 -2.56394,2.68646 z"
       id="path4028"
       style="fill:#ffcd50;fill-opacity:1;fill-rule:evenodd;stroke:#ffcd50;stroke-width:0.94485885;stroke-linecap:butt;stroke-linejoin:miter;stroke-miterlimit:4;stroke-opacity:1;stroke-dasharray:none" />
  </g>
</svg>
