<?xml version="1.0" encoding="UTF-8" standalone="no"?>
<!-- Created with Inkscape (http://www.inkscape.org/) -->
<svg
   xmlns:dc="http://purl.org/dc/elements/1.1/"
   xmlns:cc="http://web.resource.org/cc/"
   xmlns:rdf="http://www.w3.org/1999/02/22-rdf-syntax-ns#"
   xmlns:svg="http://www.w3.org/2000/svg"
   xmlns="http://www.w3.org/2000/svg"
   version="1.0"
   width="251"
   height="304.20001"
   id="svg4166">
  <defs
     id="defs4168" />
  <metadata
     id="metadata1880"><rdf:RDF><cc:Work
         rdf:about=""><dc:title>Bollebygd kommunvapen</dc:title><dc:date>12-11-2007</dc:date><dc:creator><cc:Agent><dc:title>Lokal_Profil</dc:title></cc:Agent></dc:creator><cc:license
         rdf:resource="http://creativecommons.org/licenses/by-sa/2.5/" /><dc:rights><cc:Agent><dc:title>cc-by-sa-2.5</dc:title></cc:Agent></dc:rights><dc:format>image/svg+xml</dc:format><dc:type
         rdf:resource="http://purl.org/dc/dcmitype/StillImage" /></cc:Work><cc:License
         rdf:about="http://creativecommons.org/licenses/by-sa/2.5/"><cc:permits
         rdf:resource="http://web.resource.org/cc/Reproduction" /><cc:permits
         rdf:resource="http://web.resource.org/cc/Distribution" /><cc:requires
         rdf:resource="http://web.resource.org/cc/Notice" /><cc:requires
         rdf:resource="http://web.resource.org/cc/Attribution" /><cc:permits
         rdf:resource="http://web.resource.org/cc/DerivativeWorks" /><cc:requires
         rdf:resource="http://web.resource.org/cc/ShareAlike" /></cc:License></rdf:RDF>
  </metadata>
  <path
     d="M 249.55058,1.4395041 L 1.4495291,1.4395041 L 1.4495291,174.9361 C 0.68228908,268.65698 81.738969,302.75585 125.50006,302.75585 C 168.49391,302.75585 250.31781,268.65698 249.55058,174.9361 L 249.55058,1.4395041 z "
     style="stroke:none"
     id="Shield" />
  <path
     d="M 185.14573,247.02062 C 186.01095,246.15542 186.12405,245.80174 185.75564,245.11335 C 185.18474,244.0467 183.9861,243.39672 182.58995,243.39672 C 181.80972,243.39672 181.44739,243.12756 181.29975,242.43821 C 181.06706,241.35204 169.55017,144.2143 169.55651,143.39194 C 169.55904,143.06684 170.14892,142.85943 171.07105,142.85943 C 173.52646,142.85943 174.6727,141.36808 174.6727,138.17336 C 174.6727,134.69198 173.58252,133.48731 170.43204,133.48731 C 169.00471,133.48731 168.27747,133.30842 168.26729,132.9548 L 167.14515,124.02738 L 172.97687,118.2137 C 190.16143,100.17555 202.26868,81.978008 200.28788,55.954308 C 196.65371,44.003791 185.83974,38.350597 174.06477,40.406045 C 168.37235,41.455816 163.32393,44.482369 158.02829,46.510431 C 157.49651,44.024139 156.95705,37.250091 157.24762,36.707147 C 157.87543,35.534091 157.69511,34.677947 156.58685,33.569661 L 155.54118,32.524012 C 155.54118,32.524012 82.370846,32.524012 82.370846,32.524012 C 81.331179,32.802888 80.294046,35.1406 80.685494,36.160699 C 80.82689,36.529171 80.177763,43.224784 79.242988,51.039843 C 78.308216,58.854894 77.5434,65.458152 77.5434,65.713734 C 77.5434,65.969325 77.151282,66.178445 76.672025,66.178445 C 75.243543,66.178445 73.709347,68.053566 73.709347,69.799487 C 73.709347,71.239843 74.857088,72.984031 76.120791,73.464101 C 76.413824,73.575427 75.350611,83.788296 73.020867,103.24091 C 71.070604,119.52498 69.469167,132.99209 69.462112,133.16782 C 69.455062,133.34353 68.482064,133.48731 67.299898,133.48731 C 64.149377,133.48731 63.059202,134.69198 63.059202,138.17336 C 63.059202,141.36808 64.205456,142.85943 66.66089,142.85943 C 67.582992,142.85943 68.172878,143.06684 68.175399,143.39194 C 68.181773,144.2143 56.664842,241.35204 56.432187,242.43821 C 56.255988,243.2608 55.953455,243.39672 54.298602,243.39672 C 52.811164,243.39672 52.127502,243.63954 51.308165,244.45889 C 50.442964,245.32408 50.329868,245.67775 50.698283,246.36615 C 50.947039,246.83095 51.516976,247.40734 51.964811,247.64701 L 184.08357,247.64701 L 185.14573,247.02062 z M 163.20732,90.673754 C 162.21148,82.004543 161.30364,74.576076 161.18989,74.166042 C 161.05471,73.678719 161.22108,73.420537 161.67021,73.420537 C 162.93625,73.420537 164.44857,71.449511 164.44857,69.799487 C 164.44857,67.980537 162.89694,66.178445 161.33081,66.178445 C 160.18882,66.178445 160.0467,65.621209 159.5193,59.076728 L 159.25054,55.741306 C 163.86173,52.719873 168.56969,49.917761 173.98569,48.658002 C 183.76816,47.485449 186.60486,56.278288 186.78522,64.261416 C 186.69654,76.047118 182.12595,87.173 175.92151,97.025773 C 172.97815,101.42645 166.08946,107.71621 165.27669,106.74506 C 165.13441,106.57506 164.2032,99.342964 163.20732,90.673754 z "
     style="fill:#ffcd50"
     id="Kanna" />
  <path
     d="M 249.55062,1.4395041 L 1.449569,1.4395041 L 1.449569,174.9361 C 0.68232904,268.65698 81.739009,302.75585 125.5001,302.75585 C 168.49395,302.75585 250.31785,268.65698 249.55062,174.9361 L 249.55062,1.4395041 z "
     style="fill:none;fill-opacity:0;stroke:#000000;stroke-width:1.88832211;stroke-linecap:round"
     id="Frame" />
</svg>
