<?xml version="1.0" encoding="UTF-8" standalone="no"?>
<!-- Created with Inkscape (http://www.inkscape.org/) -->
<svg
   xmlns:dc="http://purl.org/dc/elements/1.1/"
   xmlns:cc="http://web.resource.org/cc/"
   xmlns:rdf="http://www.w3.org/1999/02/22-rdf-syntax-ns#"
   xmlns:svg="http://www.w3.org/2000/svg"
   xmlns="http://www.w3.org/2000/svg"
   version="1.0"
   width="251"
   height="304.20001"
   id="svg4166">
  <defs
     id="defs4168" />
  <metadata
     id="metadata1880"><rdf:RDF><cc:Work
         rdf:about=""><dc:title>Gullspang kommunvapen</dc:title><dc:date>2009-02-18</dc:date><dc:creator><cc:Agent><dc:title>Lokal_Profil</dc:title></cc:Agent></dc:creator><cc:license
         rdf:resource="http://creativecommons.org/licenses/by-sa/2.5/" /><dc:rights><cc:Agent><dc:title>cc-by-sa-2.5</dc:title></cc:Agent></dc:rights><dc:format>image/svg+xml</dc:format><dc:type
         rdf:resource="http://purl.org/dc/dcmitype/StillImage" /></cc:Work><cc:License
         rdf:about="http://creativecommons.org/licenses/by-sa/2.5/"><cc:permits
         rdf:resource="http://web.resource.org/cc/Reproduction" /><cc:permits
         rdf:resource="http://web.resource.org/cc/Distribution" /><cc:requires
         rdf:resource="http://web.resource.org/cc/Notice" /><cc:requires
         rdf:resource="http://web.resource.org/cc/Attribution" /><cc:permits
         rdf:resource="http://web.resource.org/cc/DerivativeWorks" /><cc:requires
         rdf:resource="http://web.resource.org/cc/ShareAlike" /></cc:License></rdf:RDF>
  </metadata>
  <path
     d="M 249.55058,1.4395041 L 1.4495291,1.4395041 L 1.4495291,174.9361 C 0.68228908,268.65698 81.738969,302.75585 125.50006,302.75585 C 168.49391,302.75585 250.31781,268.65698 249.55058,174.9361 L 249.55058,1.4395041 z"
     id="Shield"
     style="fill:#003d8f;stroke:none" />
  <path
     d="M 1.4375,33.5 L 1.4375,71.6875 L 249.5625,71.6875 L 249.5625,33.5 L 1.4375,33.5 z"
     id="Smal-bjalke"
     style="fill:#ffcd50" />
  <g
     transform="matrix(0.3804208,-0.1384618,0.1384618,0.3804208,19.618936,120.21704)"
     id="Jumping-Salmon"
     style="fill:#ffcd50;stroke:#003d8f;stroke-width:0.70866197">
    <path
       d="M 44.8509,119.501 C 68.2401,71.4265 167.1479,29.4933 234.7449,30.5379 C 280.1214,30.721302 321.8142,44.4126 348.7719,64.2438 C 372.2604,49.5011 408.0291,45.8104 456.0769,45.8036 C 442.4646,96.4701 446.45923,101.05 445.8132,163.3636 L 432.9221,166.42757 C 445.4943,225.19147 444.5592,259.39637 411.6971,331.66857 L 411.91338,366.11487 L 395.46788,382.71767 L 385.61068,362.63927 C 365.96148,390.41347 340.17298,409.59207 311.92888,434.91057 C 291.47238,470.13647 283.29608,486.94277 250.56048,511.11747 C 224.57438,451.30727 220.69178,450.43987 161.55118,409.04947 C 206.29328,385.92527 238.75558,379.99317 284.72518,380.20097 C 301.17348,362.07167 312.71028,348.85407 323.01928,325.81287 L 303.46758,328.1404 C 300.97309,309.9009 308.30264,296.5729 293.52874,273.4218 C 304.48694,260.3736 316.19204,252.503 330.45714,246.0672 C 324.26911,216.9687 319.30904,202.6058 297.15774,184.5588 C 293.64845,211.88 309.78634,226.9215 275.57844,237.0514 L 271.36389,166.1027 C 238.84429,163.57306 208.77999,162.27139 173.80529,158.51463 C 132.59519,163.78622 106.72959,168.44412 50.175294,159.59917 C 40.185144,151.69164 40.015394,138.87417 45.983414,130.35297 C 48.667254,137.92573 52.579074,143.34987 59.558814,145.70567 C 76.019014,146.42737 90.155414,147.71345 106.61621,141.99058 L 83.531114,121.95838 C 72.478814,118.07066 57.130314,121.54792 44.850614,119.50131 L 44.8509,119.501 z"
       id="Main-body" />
    <g
       id="Anal-fin"
       style="fill:none">
      <path
         d="M 324.188,306.144 C 318.05014,309.82677 311.9123,311.05446 305.7747,317.192"
         id="path39" />
      <path
         d="M 328.484,268.704 C 316.8223,274.22816 310.6844,281.5934 302.0915,288.345"
         id="path41" />
      <path
         d="M 326.643,289.573 C 316.618,293.46015 312.1171,298.57471 304.5469,303.6898"
         id="path43" />
    </g>
    <g
       id="Caudal-fin"
       style="fill:none;stroke-width:0.99212599">
      <path
         d="M 174.622,418.184 C 201.1534,406.0027 221.547,400.5723 261.5819,393.3009"
         id="path47" />
      <path
         d="M 246.033,501.418 C 268.4021,479.2769 280.337,460.8182 296.5685,436.222"
         id="path49" />
      <path
         d="M 188.667,428.113 C 213.1768,416.1 222.9555,411.4524 252.9891,406.8044"
         id="path51" />
      <path
         d="M 240.677,489.069 C 260.1261,470.184 269.7551,456.8229 284.2943,436.0968"
         id="path53" />
      <path
         d="M 198.937,435.704 C 216.7499,427.91212 227.1976,420.7339 254.2172,416.0109"
         id="path55" />
      <path
         d="M 232.846,473.645 C 249.6379,461.1068 262.1333,447.3409 276.4704,432.961"
         id="path57" />
      <path
         d="M 211.977,446.581 C 227.6937,436.59567 237.8862,431.5205 253.6029,425.8317"
         id="path59" />
      <path
         d="M 223.918,459.758 C 237.9047,449.6769 251.8914,439.5957 265.8784,429.5143"
         id="path61" />
    </g>
    <path
       d="M 264.13,165.555 L 271.36345,166.1018 L 275.08506,228.7518 C 269.65274,233.87486 267.8295,237.72034 256.67176,236.17376 L 264.13,165.55506 L 264.13,165.555 z"
       id="Pelvic-fin" />
    <ellipse
       cx="92.896797"
       cy="97.1213"
       rx="4.2936301"
       ry="4.14008"
       id="Eye"
       style="fill:#003d8f;stroke:none" />
    <g
       id="Dorsal-fin"
       style="fill:none">
      <path
         d="M 377.563,91.9616 C 402.86,81.3019 424.4739,85.37246 447.9297,82.07775"
         id="path19" />
      <path
         d="M 393.483,107.951 C 416.8983,99.76454 430.6492,99.74838 446.1655,98.71317"
         id="path21" />
      <path
         d="M 361.629,78.4316 C 380.9049,64.7814 415.9933,64.4418 451.3731,64.4868"
         id="path29" />
      <path
         d="M 405.153,122.663 C 419.9079,116.44974 432.208,118.82886 445.7358,116.9115"
         id="path23" />
      <path
         d="M 414.514,137.297 C 429.7207,132.60141 435.3838,133.49064 445.8309,133.42856"
         id="path25" />
      <path
         d="M 422.572,153.234 C 433.6353,148.57838 438.1175,150.4226 445.8904,149.01661"
         id="path27" />
    </g>
    <g
       id="Face-lines"
       style="fill:none;stroke-width:1.98424995">
      <path
         d="M 197.136,119.555 C 169.5158,128.76165 161.28276,133.75162 139.80066,161.98522"
         id="path145" />
      <path
         d="M 110.30945,164.03055 C 127.69975,147.25425 133.0973,134.4915 140.6675,110.963"
         id="path147" />
      <path
         d="M 160.309,105.439 C 150.284,126.9211 146.34084,143.54816 127.10884,163.18916"
         id="path151" />
      <path
         d="M 248.079,100.528 C 222.9139,120.3734 225.63486,141.1383 160.57436,138.2744"
         id="path157" />
      <path
         d="M 99.9505,81.9403 C 105.57331,84.80273 109.69715,89.36651 113.173,95.2957"
         id="path169" />
      <path
         d="M 105.41105,141.7786 C 111.01121,146.20371 122.02255,143.5962 130.17395,138.45444"
         id="path323" />
    </g>
    <g
       id="Scales-lines"
       style="fill:none;stroke-width:1.98424995">
      <path
         d="M 262.5173,427.40599 C 506.5471,266.44075 351.96849,54.387441 170.717,86.34699"
         id="path9" />
    </g>
    <g
       id="Fat-fin"
       style="fill:none">
      <path
         d="M 409.873,364.534 L 408.898,337.239 L 388.815,363.559"
         id="polyline415" />
      <path
         d="M 402.189,346.03101 L 403.73401,369.92499"
         id="line417" />
      <path
         d="M 396.35101,353.68201 L 399.62701,373.44501"
         id="line419" />
      <path
         d="M 396.10599,375.20599 L 391.41199,359.95001"
         id="line421" />
    </g>
    <path
       d="M 348.62239,64.04361 C 400.10449,100.09175 416.78124,133.31953 433.50263,169.17866"
       id="path3345" />
  </g>
  <path
     d="M 28.314644,198.77655 C 36.006029,209.66435 40.641889,222.41298 41.740656,235.6981 L 41.740656,255.83713 C 68.406237,251.36179 95.631204,251.36179 122.29675,255.83713 L 122.29675,235.6981 C 123.39553,222.41298 128.03139,209.66435 135.72278,198.77655 C 132.43812,195.78991 127.38672,195.90987 124.24752,199.04907 C 121.10834,202.18825 120.98837,207.23965 123.97502,210.52432 L 121.55497,215.84811 C 120.13862,213.09093 117.01866,211.66198 114.00581,212.3906 C 110.99297,213.1192 108.87071,215.8159 108.87074,218.91557 C 108.87076,220.98041 109.82103,222.93034 111.44727,224.20266 C 113.07354,225.47498 115.19483,225.92814 117.19898,225.4313 L 115.58377,228.98509 C 114.86148,231.1523 112.83341,232.61414 110.549,232.61414 C 108.2646,232.61414 106.23653,231.1523 105.51426,228.98509 L 105.51426,208.84606 C 107.36799,208.84606 108.87074,207.34331 108.87074,205.48955 C 108.87074,203.63581 107.36799,202.13306 105.51426,202.13306 C 103.66049,202.13306 102.15775,203.63581 102.15775,205.48955 C 102.15772,206.98827 103.15127,208.30538 104.59232,208.71702 L 98.801227,228.98509 C 98.025858,231.43117 95.569767,232.93481 93.038662,232.51295 C 90.507535,232.09109 88.671855,229.87216 88.731735,227.30684 L 87.97353,220.86347 C 89.998184,222.43411 92.740379,222.71513 95.041534,221.58782 C 97.342678,220.4605 98.801356,218.12152 98.801227,215.55907 C 98.801227,212.71073 97.00373,210.17247 94.316947,209.22684 C 91.630133,208.28118 88.639085,209.13406 86.855067,211.3545 L 86.439602,207.82382 C 89.8962,206.13476 92.088282,202.62375 92.088228,198.77655 C 92.088175,193.96535 88.684583,189.82632 83.963995,188.89687 L 83.696967,187.02879 C 83.696967,186.10191 82.945594,185.35053 82.018726,185.35053 C 81.091858,185.35053 80.340474,186.10191 80.340474,187.02879 L 80.073436,188.89687 C 75.352869,189.82632 71.949277,193.96535 71.949191,198.77655 C 71.949137,202.62375 74.14123,206.13476 77.597828,207.82382 L 77.182374,211.3545 C 75.398357,209.13406 72.407298,208.28118 69.720483,209.22684 C 67.0337,210.17247 65.236193,212.71073 65.236193,215.55907 C 65.236075,218.12152 66.694753,220.4605 68.995908,221.58782 C 71.297052,222.71513 74.039235,222.43411 76.063911,220.86347 L 75.305717,227.30684 C 75.365586,229.87216 73.529895,232.09109 70.998769,232.51295 C 68.467653,232.93481 66.011562,231.43117 65.236193,228.98509 L 59.4451,208.71702 C 60.886163,208.30538 61.87971,206.98827 61.879699,205.48955 C 61.879699,203.63581 60.37692,202.13306 58.523173,202.13306 C 56.669438,202.13306 55.16668,203.63581 55.16668,205.48955 C 55.16668,207.34331 56.669438,208.84606 58.523173,208.84606 L 58.523173,228.98509 C 57.800896,231.1523 55.772827,232.61414 53.488426,232.61414 C 51.204016,232.61414 49.175946,231.1523 48.453659,228.98509 L 46.838438,225.4313 C 48.842616,225.92814 50.963905,225.47498 52.59014,224.20266 C 54.216396,222.93034 55.166658,220.98041 55.16668,218.91557 C 55.166712,215.8159 53.044455,213.1192 50.031624,212.3906 C 47.018768,211.66198 43.898807,213.09093 42.482445,215.84811 L 40.062413,210.52432 C 43.049047,207.23965 42.929093,202.18825 39.7899,199.04907 C 36.650705,195.90987 31.599313,195.78991 28.314644,198.77655 z"
     id="Crown"
     style="fill:#ffcd50;stroke:none" />
  <path
     d="M 249.55062,1.4395041 L 1.449569,1.4395041 L 1.449569,174.9361 C 0.68232904,268.65698 81.739009,302.75585 125.5001,302.75585 C 168.49395,302.75585 250.31785,268.65698 249.55062,174.9361 L 249.55062,1.4395041 z"
     id="Frame"
     style="fill:none;fill-opacity:0;stroke:#000000;stroke-width:1.88832211;stroke-linejoin:bevel" />
</svg>
