<?xml version="1.0" encoding="UTF-8" standalone="no"?>
<!-- Created with Inkscape (http://www.inkscape.org/) -->
<svg
   xmlns:dc="http://purl.org/dc/elements/1.1/"
   xmlns:cc="http://web.resource.org/cc/"
   xmlns:rdf="http://www.w3.org/1999/02/22-rdf-syntax-ns#"
   xmlns:svg="http://www.w3.org/2000/svg"
   xmlns="http://www.w3.org/2000/svg"
   xmlns:xlink="http://www.w3.org/1999/xlink"
   version="1.0"
   width="251"
   height="304.20001"
   id="svg4166">
  <defs
     id="defs4168" />
  <metadata
     id="metadata1880"><rdf:RDF><cc:Work
         rdf:about=""><dc:title>Mellerud kommunvapen</dc:title><dc:date>12-10-2007</dc:date><dc:creator><cc:Agent><dc:title>Lokal_Profil</dc:title></cc:Agent></dc:creator><cc:license
         rdf:resource="http://creativecommons.org/licenses/by-sa/2.5/" /><dc:rights><cc:Agent><dc:title>cc-by-sa-2.5</dc:title></cc:Agent></dc:rights><dc:format>image/svg+xml</dc:format><dc:type
         rdf:resource="http://purl.org/dc/dcmitype/StillImage" /></cc:Work><cc:License
         rdf:about="http://creativecommons.org/licenses/by-sa/2.5/"><cc:permits
         rdf:resource="http://web.resource.org/cc/Reproduction" /><cc:permits
         rdf:resource="http://web.resource.org/cc/Distribution" /><cc:requires
         rdf:resource="http://web.resource.org/cc/Notice" /><cc:requires
         rdf:resource="http://web.resource.org/cc/Attribution" /><cc:permits
         rdf:resource="http://web.resource.org/cc/DerivativeWorks" /><cc:requires
         rdf:resource="http://web.resource.org/cc/ShareAlike" /></cc:License></rdf:RDF>
  </metadata>
  <path
     d="M 249.55058,1.4395041 L 1.4495291,1.4395041 L 1.4495291,174.9361 C 0.68228908,268.65698 81.738969,302.75585 125.50006,302.75585 C 168.49391,302.75585 250.31781,268.65698 249.55058,174.9361 L 249.55058,1.4395041 z "
     style="color:#000000;fill:#eeeeee;fill-opacity:1;stroke:none"
     id="Shield" />
  <path
     d="M 83.844,1.4315152 L 83.844,294.52526 C 98.978271,300.18608 113.70421,302.74401 125.50025,302.74401 C 137.33926,302.74401 151.90428,300.24081 166.844,294.74401 L 166.844,1.4315152 L 125.50025,1.4315152 L 83.844,1.4315152 z "
     style="color:#000000;fill:#003d8f;fill-opacity:1;fill-rule:nonzero;stroke:none;stroke-width:1.88832211;stroke-linecap:round;stroke-linejoin:bevel;marker:none;marker-start:none;marker-mid:none;marker-end:none;stroke-miterlimit:4;stroke-dashoffset:0;stroke-opacity:1;visibility:visible;display:block"
     id="Stolpe" />
  <g
     transform="matrix(0.612166,0.513669,-0.513669,0.612166,48.84965,-2.930451)"
     style="fill:#003d8f;fill-opacity:1;stroke:#eeeeee;stroke-opacity:1"
     id="Bila">
    <rect
       width="259.24927"
       height="13.140292"
       x="-326.03735"
       y="8.5937195"
       transform="matrix(-0.63956,-0.768742,0.768742,-0.63956,0,0)"
       style="fill:#003d8f;fill-opacity:1;stroke:#eeeeee;stroke-width:1.66399896;stroke-miterlimit:4;stroke-dasharray:none;stroke-opacity:1"
       id="rect34" />
    <path
       d="M 59.801325,128.09692 C 59.801325,128.09692 38.03106,124.46973 22.06573,103.42537 C 6.0996138,82.380231 3.1975398,61.81851 3.1975398,61.81851 C 3.1975398,61.81851 15.292392,71.736414 28.596573,71.736414 C 41.900754,71.736414 51.335242,63.269547 51.335242,63.269547 L 56.414265,46.094886 L 74.799036,42.950318 L 90.038462,60.609181 L 83.991028,77.78384 L 65.364549,80.6867 C 65.364549,80.6867 53.269697,93.749174 53.269697,109.47123 C 53.269697,125.19485 59.801325,128.09692 59.801325,128.09692 z "
       style="fill:#003d8f;fill-opacity:1;stroke:#eeeeee;stroke-width:1.66400003;stroke-miterlimit:4;stroke-dasharray:none;stroke-opacity:1"
       id="path42" />
  </g>
  <use
     transform="matrix(-1,0,0,1,251,0)"
     id="Bila-2"
     x="0"
     y="0"
     width="251"
     height="304.20001"
     xlink:href="#Bila" />
  <g
     transform="matrix(0.401417,0,0,0.393914,-48.23241,-97.01514)"
     style="fill:#eeeeee;fill-opacity:1"
     id="Liljekonvalj">
    <path
       d="M 428.48065,908.87516 C 428.48065,908.87516 431.63332,373.55405 428.48065,361.67884 C 425.28107,349.62696 386.05316,362.68227 380.78618,383.51868 L 369.10354,377.39253 C 379.61262,355.97213 421.93464,340.13524 434.35741,356.90937 C 446.02906,372.66928 439.70233,921.69275 434.35741,921.69275 C 434.35741,921.69275 428.48065,908.87516 428.48065,908.87516 z "
       style="opacity:1;fill:#eeeeee;fill-opacity:1;fill-rule:evenodd;stroke:none;stroke-width:3.04377985;stroke-linecap:butt;stroke-linejoin:miter;stroke-miterlimit:4;stroke-dasharray:none;stroke-opacity:1"
       id="path8765" />
    <path
       d="M 432.4644,431.57855 C 456.19429,428.33286 474.89189,432.58198 480.15887,453.41839 L 492.38358,449.50182 C 489.98867,428.488 452.2901,422.0637 435.05959,425.67128 L 432.4644,431.57855 z "
       style="fill:#eeeeee;fill-opacity:1;fill-rule:evenodd;stroke:none;stroke-width:3.04377985;stroke-linecap:butt;stroke-linejoin:miter;stroke-miterlimit:4;stroke-dasharray:none;stroke-opacity:1"
       id="use2144" />
    <path
       d="M 432.19834,506.01721 C 408.46845,502.77152 389.77085,507.02064 384.50387,527.85705 L 372.82123,523.38808 C 379.5527,503.47905 412.37264,496.50236 429.60315,500.10994 L 432.19834,506.01721 z "
       style="fill:#eeeeee;fill-opacity:1;fill-rule:evenodd;stroke:none;stroke-width:3.04377985;stroke-linecap:butt;stroke-linejoin:miter;stroke-miterlimit:4;stroke-dasharray:none;stroke-opacity:1"
       id="use2148" />
    <use
       transform="translate(0.89082,130.7215)"
       style="fill:#eeeeee;fill-opacity:1;stroke:none"
       id="use2152"
       x="0"
       y="0"
       width="744.09448"
       height="1052.3622"
       xlink:href="#use2148" />
    <use
       transform="translate(3.563278,141.615)"
       style="fill:#eeeeee;fill-opacity:1;stroke:none"
       id="use2164"
       x="0"
       y="0"
       width="744.09448"
       height="1052.3622"
       xlink:href="#use2144" />
    <use
       transform="translate(3.563278,270.521)"
       style="fill:#eeeeee;fill-opacity:1;stroke:none"
       id="use2166"
       x="0"
       y="0"
       width="744.09448"
       height="1052.3622"
       xlink:href="#use2144" />
    <path
       d="M 372.43431,396.28727 C 370.62487,390.6835 369.42974,384.97428 369.37599,376.3219 L 381.31174,381.61122 C 382.30627,387.32278 381.08298,390.19247 383.23464,396.89061 C 405.23906,407.92682 426.96593,419.11401 396.98051,458.43182 C 396.2328,465.74764 401.75805,471.1509 411.38094,462.05189 C 408.79,480.25654 387.11279,485.12623 390.76214,465.37029 L 381.59822,465.37029 C 379.51876,469.44914 378.38465,472.62465 384.14096,475.90099 C 383.05002,482.33667 380.02559,487.16343 373.69812,490.38127 C 368.49079,485.85618 363.96048,481.33109 363.89475,476.806 C 370.88242,472.58259 371.66417,468.99036 365.56137,464.76694 C 357.01747,480.90743 343.53391,476.27262 339.37877,459.94018 C 351.2096,467.34817 353.55212,461.63737 355.08833,454.81175 C 325.93896,410.62699 359.17284,411.72993 372.43431,396.28727 z "
       style="fill:#eeeeee;fill-opacity:1;fill-rule:evenodd;stroke:none;stroke-width:3.04377985;stroke-linecap:butt;stroke-linejoin:miter;stroke-miterlimit:4;stroke-dasharray:none;stroke-opacity:1"
       id="path5117" />
    <use
       transform="matrix(-1,0,0,1,861.4903,70.27309)"
       style="fill:#eeeeee;fill-opacity:1"
       id="use2154"
       x="0"
       y="0"
       width="744.09448"
       height="1052.3622"
       xlink:href="#path5117" />
    <use
       transform="translate(2.913132,145.6195)"
       style="fill:#eeeeee;fill-opacity:1"
       id="use2156"
       x="0"
       y="0"
       width="744.09448"
       height="1052.3622"
       xlink:href="#path5117" />
    <use
       transform="translate(3.824192,141.5281)"
       style="fill:#eeeeee;fill-opacity:1"
       id="use2160"
       x="0"
       y="0"
       width="744.09448"
       height="1052.3622"
       xlink:href="#use2154" />
    <use
       transform="translate(4.085108,275.7887)"
       style="fill:#eeeeee;fill-opacity:1"
       id="use2162"
       x="0"
       y="0"
       width="744.09448"
       height="1052.3622"
       xlink:href="#path5117" />
    <use
       transform="translate(0.281156,129.5452)"
       style="fill:#eeeeee;fill-opacity:1"
       id="use2168"
       x="0"
       y="0"
       width="744.09448"
       height="1052.3622"
       xlink:href="#use2160" />
  </g>
  <path
     d="M 249.55062,1.4395041 L 1.449569,1.4395041 L 1.449569,174.9361 C 0.68232904,268.65698 81.739009,302.75585 125.5001,302.75585 C 168.49395,302.75585 250.31785,268.65698 249.55062,174.9361 L 249.55062,1.4395041 z "
     style="fill:none;fill-opacity:0;stroke:#000000;stroke-width:1.88832211;stroke-linejoin:bevel"
     id="Frame" />
</svg>
