<?xml version="1.0" encoding="UTF-8" standalone="no"?>
<!-- Created with Inkscape (http://www.inkscape.org/) -->
<svg
   xmlns:dc="http://purl.org/dc/elements/1.1/"
   xmlns:cc="http://web.resource.org/cc/"
   xmlns:rdf="http://www.w3.org/1999/02/22-rdf-syntax-ns#"
   xmlns:svg="http://www.w3.org/2000/svg"
   xmlns="http://www.w3.org/2000/svg"
   xmlns:xlink="http://www.w3.org/1999/xlink"
   version="1.0"
   width="251"
   height="304.20001"
   id="svg4166">
  <defs
     id="defs4168" />
  <metadata
     id="metadata1880"><rdf:RDF><cc:Work
         rdf:about=""><dc:title>Lilla Edet kommunvapen</dc:title><dc:date>15-10-2007</dc:date><dc:creator><cc:Agent><dc:title>Lokal_Profil</dc:title></cc:Agent></dc:creator><cc:license
         rdf:resource="http://creativecommons.org/licenses/by-sa/2.5/" /><dc:rights><cc:Agent><dc:title>cc-by-sa-2.5</dc:title></cc:Agent></dc:rights><dc:format>image/svg+xml</dc:format><dc:type
         rdf:resource="http://purl.org/dc/dcmitype/StillImage" /></cc:Work><cc:License
         rdf:about="http://creativecommons.org/licenses/by-sa/2.5/"><cc:permits
         rdf:resource="http://web.resource.org/cc/Reproduction" /><cc:permits
         rdf:resource="http://web.resource.org/cc/Distribution" /><cc:requires
         rdf:resource="http://web.resource.org/cc/Notice" /><cc:requires
         rdf:resource="http://web.resource.org/cc/Attribution" /><cc:permits
         rdf:resource="http://web.resource.org/cc/DerivativeWorks" /><cc:requires
         rdf:resource="http://web.resource.org/cc/ShareAlike" /></cc:License></rdf:RDF>
  </metadata>
  <path
     d="M 249.55058,1.4395041 L 125.50008,1.4395041 L 1.4495291,1.4395041 L 1.4495291,174.9361 C 0.68228908,268.65698 81.738969,302.75585 125.50006,302.75585 C 168.49391,302.75585 250.31781,268.65698 249.55058,174.9361 L 249.55058,1.4395041 z "
     style="color:#000000;fill:#ffcd50;fill-opacity:1;fill-rule:nonzero;stroke:none;stroke-width:1.88832211;stroke-linecap:round;stroke-linejoin:bevel;marker:none;marker-start:none;marker-mid:none;marker-end:none;stroke-miterlimit:4;stroke-dashoffset:0;stroke-opacity:1;visibility:visible;display:block"
     id="Shield" />
  <rect
     width="7.9360862"
     height="57.428368"
     x="-8.2739906"
     y="144.95737"
     transform="matrix(0.939693,-0.34202,0.34202,0.939693,0,0)"
     style="opacity:1;fill:#000000;fill-opacity:1;stroke:none;stroke-width:2;stroke-miterlimit:4;stroke-dasharray:none;stroke-opacity:1"
     id="Snedstava" />
  <use
     transform="matrix(-0.999995,0,0,1,250.3061,-3.161327e-4)"
     id="Snedstava-2"
     x="0"
     y="0"
     width="251"
     height="304.20001"
     xlink:href="#Snedstava" />
  <g
     transform="matrix(0.346215,0,0,0.360747,38.65044,24.69731)"
     id="Kupoltorn">
    <g
       transform="matrix(1.090909,0,0,1.09091,-11.40909,-16.56804)"
       id="Kupol">
      <path
         d="M 150.07201,101.4 C 150.07563,125.14727 130.82568,144.40016 107.07841,144.40016 C 83.331136,144.40016 64.081183,125.14727 64.084805,101.4 C 64.081183,77.652728 83.331136,58.39984 107.07841,58.39984 C 130.82568,58.39984 150.07563,77.652728 150.07201,101.4 L 150.07201,101.4 z "
         transform="matrix(1.162964,0,0,1.162964,0.971679,-31.64294)"
         style="opacity:1;fill:#000000;fill-opacity:1;stroke:none;stroke-width:26;stroke-miterlimit:4;stroke-dasharray:none;stroke-opacity:1"
         id="path3080" />
    </g>
    <g
       transform="matrix(1.090909,0,0,1.09091,-11.40909,-23.11349)"
       id="Torn">
      <path
         d="M 71.452854,85.609308 L 71.452854,99.251018 L 71.567829,99.251018 L 71.567829,122.44773 L 80.93824,122.44773 L 80.93824,272.36265 L 169.19948,272.36265 L 169.19948,122.44773 L 179.4322,122.44773 L 179.4322,99.251018 L 179.54718,99.251018 L 179.54718,85.609308 L 162.99087,85.609308 L 162.99087,98.325613 L 149.8263,98.325613 L 149.8263,85.609308 L 133.55742,85.609308 L 133.55742,98.325613 L 117.15516,98.325613 L 117.15516,85.609308 L 100.8863,85.609308 L 100.8863,98.325613 L 87.721727,98.325613 L 87.721727,85.609308 L 71.452854,85.609308 z "
         style="fill:#000000;fill-opacity:1;fill-rule:evenodd;stroke:#ffcd50;stroke-width:2.59380293;stroke-linecap:butt;stroke-linejoin:miter;stroke-miterlimit:4;stroke-dasharray:none;stroke-opacity:1"
         id="Tower-body" />
      <path
         d="M 125.56186,130.84886 C 119.56932,130.84886 114.70504,134.78856 114.70501,139.65834 C 114.70501,139.7016 114.70425,139.73931 114.70501,139.78242 L 114.58096,139.78242 L 114.58096,177.56398 L 136.41871,177.56398 L 136.41871,139.78242 C 136.4195,139.73931 136.41871,139.7016 136.41871,139.65834 C 136.41871,134.78856 131.55444,130.84887 125.56186,130.84886 z "
         style="fill:#000000;fill-opacity:1;fill-rule:evenodd;stroke:#ffcd50;stroke-width:2.59380293;stroke-linecap:square;stroke-linejoin:miter;stroke-miterlimit:4;stroke-dasharray:none;stroke-opacity:1"
         id="Door" />
    </g>
    <g
       transform="matrix(5.701589e-2,0,0,5.701589e-2,104.4171,-28.17952)"
       style="fill:#000000;fill-rule:evenodd;stroke:#ffcd50;stroke-width:5.5367732"
       id="Fleur-de-lis">
      <path
         d="M 370.56125,101.02204 C 369.87226,100.41496 369.69731,100.45927 368.98386,101.37696 C 339.99728,129.7969 314.25011,156.07552 294.05666,185.49277 C 237.53282,267.74062 218.65091,357.06967 250.28341,429.32214 C 313.07862,582.17879 337.04134,620.99774 337.04119,742.71565 L 322.05577,818.3134 C 319.95113,857.2288 296.00469,888.26688 251.07207,905.62348 C 256.85896,922.01827 283.67525,955.43911 320.87268,953.18263 C 328.22132,988.53949 335.51032,1008.3543 368.98386,1040.4927 C 369.83663,1041.2621 369.80699,1041.2621 370.56125,1040.4927 C 404.03473,1008.3543 411.3238,988.53949 418.67238,953.18263 C 455.86985,955.43911 482.68615,922.01827 488.47297,905.62348 C 443.54065,888.26688 419.59399,857.2288 417.48935,818.3134 L 402.50392,742.71565 C 402.504,620.99774 426.46649,582.17879 489.2617,429.32214 C 520.89405,357.06967 502.01223,267.74062 445.48845,185.49277 C 425.25025,156.0103 399.62873,129.51327 370.56125,101.02204 z "
         style="stroke:none;"
         id="path6182" />
      <path
         d="M 421.59612,831.52374 C 437.7612,848.06109 514.14641,893.91783 576.81048,893.91783 C 495.12533,825.33139 465.56039,804.69024 455.92682,752.67736 C 446.29324,700.66448 477.39893,643.42012 499.74184,631.55338 C 513.60973,621.62477 543.27705,617.10435 569.54937,628.65323 C 603.91898,646.00239 605.39034,695.16449 588.20945,717.61856 C 750.53778,691.12499 734.41716,553.36748 679.13511,503.36206 C 634.44081,462.95957 585.71862,456.64146 548.1513,469.3814 C 462.78245,496.27443 394.39027,585.91309 391.59526,719.80874 C 391.59526,719.80874 406.3563,815.93292 421.59612,831.52374 z "
         id="path6190" />
      <path
         d="M 317.94892,831.52374 C 301.78383,848.06109 225.39863,893.91783 162.73457,893.91783 C 244.4197,825.33139 273.98465,804.69024 283.61823,752.67736 C 293.2518,700.66448 262.14612,643.42012 239.80321,631.55338 C 225.93531,621.62477 196.26799,617.10435 169.99567,628.65323 C 135.62606,646.00239 134.15469,695.16449 151.33559,717.61856 C -10.992738,691.12499 5.1278894,553.36748 60.40993,503.36206 C 105.10422,462.95957 153.82642,456.64146 191.39374,469.3814 C 276.76259,496.27443 345.15477,585.91309 347.94979,719.80874 C 347.94979,719.80874 333.18874,815.93292 317.94892,831.52374 z "
         id="path6188" />
      <rect
         width="265.00562"
         height="79.501869"
         x="237.26971"
         y="688.77802"
         style="fill:#000000;fill-opacity:1;stroke:#ffcd50;stroke-width:5.5367732;stroke-miterlimit:4;stroke-dasharray:none;stroke-opacity:1"
         id="rect6184" />
    </g>
  </g>
  <use
     transform="matrix(1.000003,0,0,1,86.10479,1.373966e-4)"
     id="Kupoltorn-2"
     x="0"
     y="0"
     width="251"
     height="304.20001"
     xlink:href="#Kupoltorn" />
  <g
     transform="matrix(0.672255,0,0,0.672257,38.9318,51.37181)"
     id="Huvudborg">
    <path
       d="M 207.6167,93.389191 L 222.42921,93.389191 L 221.61671,236.79333 L 34.085274,236.79333 L 34.491526,93.389191 L 50.460288,93.389191 L 50.460288,104.85794 L 69.022811,104.85794 L 69.022811,93.389191 L 84.460322,93.389191 L 84.460322,104.85794 L 103.02285,104.85794 L 103.02285,93.389191 L 119.89786,93.389191 L 119.89786,104.85794 L 138.46038,104.85794 L 138.46038,93.389191 L 153.89789,93.389191 L 153.89789,104.85794 L 172.46042,104.85794 L 172.46042,93.389191 L 188.42918,93.389191 L 188.42918,104.85794 L 207.6167,104.85794 L 207.6167,93.389191 z "
       style="fill:#000000;fill-opacity:1;fill-rule:evenodd;stroke:#ffcd50;stroke-width:1.48752856;stroke-linecap:butt;stroke-linejoin:miter;stroke-miterlimit:4;stroke-dasharray:none;stroke-opacity:1"
       id="path2336" />
    <path
       d="M 128.74542,151.66703 C 116.55154,151.66703 106.6535,166.48987 106.65346,169.93508 C 106.65346,169.96568 106.65191,169.99236 106.65346,170.02287 L 106.40102,170.02287 L 106.40102,213.94575 L 150.83734,213.94575 L 150.83734,170.02287 C 150.83894,169.99236 150.83734,169.96568 150.83734,169.93508 C 150.83734,166.48987 140.93936,151.66705 128.74542,151.66703 z "
       style="fill:#000000;fill-opacity:1;fill-rule:evenodd;stroke:#ffcd50;stroke-width:1.48752856;stroke-linecap:square;stroke-linejoin:miter;stroke-miterlimit:4;stroke-dasharray:none;stroke-opacity:1"
       id="Port" />
  </g>
  <path
     d="M 33.4065,190.18751 C 18.042667,190.18751 12.575519,198.7222 4.219,204.75001 C 18.717654,276.00024 86.73669,302.75001 125.50025,302.75001 C 164.28839,302.75 234.66296,274.9998 247.50025,200.75001 C 241.40828,195.52965 235.4318,190.18751 223.2815,190.18751 C 199.54449,190.18751 199.581,210.62501 175.844,210.62501 C 152.10699,210.62499 152.11226,190.18751 128.37525,190.18751 C 104.63824,190.18751 104.64351,210.62501 80.9065,210.62501 C 57.169484,210.62499 57.143503,190.18751 33.4065,190.18751 z "
     style="color:#000000;fill:#eeeeee;fill-opacity:1;fill-rule:nonzero;stroke:#ffcd50;stroke-width:2;stroke-linecap:round;stroke-linejoin:bevel;marker:none;marker-start:none;marker-mid:none;marker-end:none;stroke-miterlimit:4;stroke-dashoffset:0;stroke-opacity:1;visibility:visible;display:block"
     id="Vagskura" />
  <path
     d="M 34.064922,114.20229 L 34.134631,138.69209 L 61.774444,138.69209 L 61.774444,114.20229 L 51.910558,114.20229 L 51.910558,124.95391 L 43.928816,124.95391 L 43.928816,114.20229 L 34.064922,114.20229 z "
     style="fill:#000000;fill-opacity:1;fill-rule:evenodd;stroke:#ffcd50;stroke-width:1;stroke-linecap:butt;stroke-linejoin:miter;stroke-miterlimit:4;stroke-dasharray:none;stroke-opacity:1"
     id="Skyttegang" />
  <use
     transform="matrix(0.999987,0,0,1,154.4674,5.84755e-7)"
     id="Skyttegang-2"
     x="0"
     y="0"
     width="251"
     height="304.20001"
     xlink:href="#Skyttegang" />
  <path
     d="M 249.55062,1.4395041 L 125.50012,1.4395041 L 1.449569,1.4395041 L 1.449569,174.9361 C 0.68232904,268.65698 81.739009,302.75585 125.5001,302.75585 C 168.49395,302.75585 250.31785,268.65698 249.55062,174.9361 L 249.55062,1.4395041 z "
     style="color:#000000;fill:none;fill-opacity:0;fill-rule:nonzero;stroke:#000000;stroke-width:1.88832211;stroke-linecap:round;stroke-linejoin:bevel;marker:none;marker-start:none;marker-mid:none;marker-end:none;stroke-miterlimit:4;stroke-dashoffset:0;stroke-opacity:1;visibility:visible;display:block"
     id="Frame" />
</svg>
