<?xml version="1.0" encoding="UTF-8" standalone="no"?>
<!-- Created with Inkscape (http://www.inkscape.org/) -->
<svg
   xmlns:dc="http://purl.org/dc/elements/1.1/"
   xmlns:cc="http://web.resource.org/cc/"
   xmlns:rdf="http://www.w3.org/1999/02/22-rdf-syntax-ns#"
   xmlns:svg="http://www.w3.org/2000/svg"
   xmlns="http://www.w3.org/2000/svg"
   xmlns:xlink="http://www.w3.org/1999/xlink"
   version="1.0"
   width="251"
   height="304.20001"
   id="svg4166">
  <defs
     id="defs4168" />
  <metadata
     id="metadata1880"><rdf:RDF><cc:Work
         rdf:about=""><dc:title>Vara kommunvapen</dc:title><dc:date>09-09-2007</dc:date><dc:creator><cc:Agent><dc:title>Lokal_Profil</dc:title></cc:Agent></dc:creator><cc:license
         rdf:resource="http://creativecommons.org/licenses/by-sa/2.5/" /><dc:rights><cc:Agent><dc:title>cc-by-sa-2.5</dc:title></cc:Agent></dc:rights><dc:format>image/svg+xml</dc:format><dc:type
         rdf:resource="http://purl.org/dc/dcmitype/StillImage" /></cc:Work><cc:License
         rdf:about="http://creativecommons.org/licenses/by-sa/2.5/"><cc:permits
         rdf:resource="http://web.resource.org/cc/Reproduction" /><cc:permits
         rdf:resource="http://web.resource.org/cc/Distribution" /><cc:requires
         rdf:resource="http://web.resource.org/cc/Notice" /><cc:requires
         rdf:resource="http://web.resource.org/cc/Attribution" /><cc:permits
         rdf:resource="http://web.resource.org/cc/DerivativeWorks" /><cc:requires
         rdf:resource="http://web.resource.org/cc/ShareAlike" /></cc:License></rdf:RDF>
  </metadata>
  <path
     d="M 249.55058,1.4395041 L 125.50008,1.4395041 L 1.4495291,1.4395041 L 1.4495291,174.9361 C 0.68228908,268.65698 81.738969,302.75585 125.50006,302.75585 C 168.49391,302.75585 250.31781,268.65698 249.55058,174.9361 L 249.55058,1.4395041 z "
     style="color:#000000;fill:#003d8f;fill-opacity:1;fill-rule:nonzero;stroke:none;stroke-width:1.88832211;stroke-linecap:round;stroke-linejoin:bevel;marker:none;marker-start:none;marker-mid:none;marker-end:none;stroke-miterlimit:4;stroke-dashoffset:0;stroke-opacity:1;visibility:visible;display:block"
     id="Shield" />
  <path
     d="M 1.4375,1.4375 L 1.4375,52.21875 L 80.28125,146.15625 L 11.5,228.125 C 21.73192,251.98545 38.706339,269.33097 57.34375,281.28125 L 125.5,200.0625 L 193.65625,281.28125 C 212.29366,269.33097 229.26808,251.98545 239.5,228.125 L 170.71875,146.15625 L 249.5625,52.21875 L 249.5625,1.4375 L 201.71875,1.4375 L 125.5,92.28125 L 49.28125,1.4375 L 1.4375,1.4375 z "
     style="opacity:1;fill:#d40000;fill-opacity:1;stroke:none;stroke-width:0.83499998;stroke-miterlimit:4;stroke-opacity:1"
     id="Andreaskors" />
  <g
     id="vete-kant">
    <path
       d="M 193.73613,280.43456 L 67.673732,128.75961 L 66.067451,130.01547 C 66.067451,130.01547 192.4992,281.58322 192.4992,281.58322 L 193.73613,280.43456 z "
       style="fill:#ffcd50;fill-opacity:1;fill-rule:evenodd;stroke:none;stroke-width:0.54840147;stroke-linecap:butt;stroke-linejoin:miter;stroke-miterlimit:4;stroke-dasharray:none;stroke-opacity:1;display:inline"
       id="vete-kant-straw" />
    <g
       id="vete-kant-ax">
      <path
         d="M 2.472139,53.426568 C 13.132087,66.153733 8.3946806,75.779535 20.931896,75.465583 C 22.133787,62.803464 12.964174,65.723483 2.472139,53.426568 z "
         style="fill:#ffcd50;fill-opacity:1;fill-rule:evenodd;stroke:none;stroke-width:0.54840147;stroke-linecap:butt;stroke-linejoin:miter;stroke-miterlimit:4;stroke-dasharray:none;stroke-opacity:1;display:inline"
         id="path1930" />
      <path
         d="M 17.230226,55.112798 C 24.295517,70.657909 13.790761,69.193005 28.998651,84.501281 C 29.686652,82.615268 27.495964,79.05776 27.741358,77.511013 C 27.972304,65.587453 20.75738,63.114009 17.230226,55.112798 z "
         style="fill:#ffcd50;fill-opacity:1;fill-rule:evenodd;stroke:#d40000;stroke-width:0.50806391;stroke-linecap:butt;stroke-linejoin:miter;stroke-miterlimit:4;stroke-dasharray:none;stroke-opacity:1;display:inline"
         id="path1934" />
      <path
         d="M 31.319268,63.978721 C 32.510024,73.107617 22.03788,79.026443 35.950618,92.511436 C 35.497478,90.191105 34.73753,86.844069 35.304057,85.66345 C 37.040152,79.312683 31.291563,72.107571 31.319268,63.978721 z "
         style="fill:#ffcd50;fill-opacity:1;fill-rule:evenodd;stroke:#d40000;stroke-width:0.50806391;stroke-linecap:butt;stroke-linejoin:miter;stroke-miterlimit:4;stroke-dasharray:none;stroke-opacity:1;display:inline"
         id="path1936" />
      <path
         d="M 38.142007,71.873667 C 39.332763,81.002564 28.860619,86.92139 42.773357,100.40638 C 42.320218,98.086052 41.560269,94.739016 42.126796,93.558397 C 43.862892,87.20763 38.114303,80.002518 38.142007,71.873667 z "
         style="fill:#ffcd50;fill-opacity:1;fill-rule:evenodd;stroke:#d40000;stroke-width:0.50806391;stroke-linecap:butt;stroke-linejoin:miter;stroke-miterlimit:4;stroke-dasharray:none;stroke-opacity:1;display:inline"
         id="path1938" />
      <path
         d="M 44.652637,79.648675 C 45.843393,88.777572 35.371249,94.696398 49.283987,108.18139 C 48.830847,105.86106 48.070899,102.51402 48.637426,101.3334 C 50.373522,94.982638 44.624932,87.777526 44.652637,79.648675 z "
         style="fill:#ffcd50;fill-opacity:1;fill-rule:evenodd;stroke:#d40000;stroke-width:0.50806391;stroke-linecap:butt;stroke-linejoin:miter;stroke-miterlimit:4;stroke-dasharray:none;stroke-opacity:1;display:inline"
         id="path1940" />
      <path
         d="M 51.386827,87.42946 C 52.577583,96.558357 42.105439,102.47718 56.018177,115.96218 C 55.565037,113.64184 54.805089,110.29481 55.371616,109.11419 C 57.107711,102.76342 51.359122,95.558311 51.386827,87.42946 z "
         style="fill:#ffcd50;fill-opacity:1;fill-rule:evenodd;stroke:#d40000;stroke-width:0.50806391;stroke-linecap:butt;stroke-linejoin:miter;stroke-miterlimit:4;stroke-dasharray:none;stroke-opacity:1;display:inline"
         id="path1942" />
      <path
         d="M 57.8974,95.204472 C 59.088157,104.33337 48.616013,110.25219 62.52875,123.73719 C 62.075611,121.41686 61.315662,118.06982 61.882189,116.8892 C 63.618285,110.53843 57.869696,103.33332 57.8974,95.204472 z "
         style="fill:#ffcd50;fill-opacity:1;fill-rule:evenodd;stroke:#d40000;stroke-width:0.50806391;stroke-linecap:butt;stroke-linejoin:miter;stroke-miterlimit:4;stroke-dasharray:none;stroke-opacity:1;display:inline"
         id="path1944" />
      <path
         d="M 64.63159,102.98527 C 65.822346,112.11416 55.350202,118.03299 69.26294,131.51798 C 68.8098,129.19765 68.049852,125.85062 68.616379,124.67 C 70.352475,118.31923 64.603885,111.11412 64.63159,102.98527 z "
         style="fill:#ffcd50;fill-opacity:1;fill-rule:evenodd;stroke:#d40000;stroke-width:0.50806391;stroke-linecap:butt;stroke-linejoin:miter;stroke-miterlimit:4;stroke-dasharray:none;stroke-opacity:1;display:inline"
         id="path1946" />
      <path
         d="M 1.2448695,68.439983 C 15.499375,77.840973 15.689027,67.236249 28.440951,84.643514 C 26.470776,85.029268 23.298022,82.311061 21.731927,82.312471 C 9.917979,80.682874 8.5988413,73.170678 1.2448695,68.439983 z "
         style="fill:#ffcd50;fill-opacity:1;fill-rule:evenodd;stroke:#003d8f;stroke-width:0.50806427;stroke-linecap:butt;stroke-linejoin:miter;stroke-miterlimit:4;stroke-dasharray:none;stroke-opacity:1;display:inline"
         id="path1950" />
      <path
         d="M 7.8074238,83.738324 C 16.639329,86.336848 24.117471,76.914743 35.270164,92.758597 C 33.048765,91.949477 29.861,90.67733 28.606531,91.052996 C 22.062821,91.778427 15.841333,84.977455 7.8074238,83.738324 z "
         style="fill:#ffcd50;fill-opacity:1;fill-rule:evenodd;stroke:#003d8f;stroke-width:0.50806427;stroke-linecap:butt;stroke-linejoin:miter;stroke-miterlimit:4;stroke-dasharray:none;stroke-opacity:1;display:inline"
         id="path1952" />
      <path
         d="M 14.542968,91.707808 C 23.374873,94.306332 30.853015,84.884227 42.005708,100.72808 C 39.784309,99.918961 36.596545,98.646814 35.342075,99.02248 C 28.798366,99.747911 22.576878,92.946939 14.542968,91.707808 z "
         style="fill:#ffcd50;fill-opacity:1;fill-rule:evenodd;stroke:#003d8f;stroke-width:0.50806427;stroke-linecap:butt;stroke-linejoin:miter;stroke-miterlimit:4;stroke-dasharray:none;stroke-opacity:1;display:inline"
         id="path1954" />
      <path
         d="M 21.208666,99.350307 C 30.040571,101.94883 37.518713,92.526726 48.671406,108.37058 C 46.450007,107.56146 43.262242,106.28931 42.007772,106.66498 C 35.464063,107.39041 29.242575,100.58944 21.208666,99.350307 z "
         style="fill:#ffcd50;fill-opacity:1;fill-rule:evenodd;stroke:#003d8f;stroke-width:0.50806427;stroke-linecap:butt;stroke-linejoin:miter;stroke-miterlimit:4;stroke-dasharray:none;stroke-opacity:1;display:inline"
         id="path1956" />
      <path
         d="M 27.845238,107.21454 C 36.677143,109.81306 44.155285,100.39095 55.307978,116.23481 C 53.08658,115.42569 49.898815,114.15354 48.644345,114.52921 C 42.100636,115.25464 35.879148,108.45367 27.845238,107.21454 z "
         style="fill:#ffcd50;fill-opacity:1;fill-rule:evenodd;stroke:#003d8f;stroke-width:0.50806427;stroke-linecap:butt;stroke-linejoin:miter;stroke-miterlimit:4;stroke-dasharray:none;stroke-opacity:1;display:inline"
         id="path1958" />
      <path
         d="M 34.510949,114.85698 C 43.342854,117.4555 50.820996,108.0334 61.973689,123.87725 C 59.75229,123.06813 56.564525,121.79599 55.310056,122.17165 C 48.766346,122.89708 42.544858,116.09611 34.510949,114.85698 z "
         style="fill:#ffcd50;fill-opacity:1;fill-rule:evenodd;stroke:#003d8f;stroke-width:0.50806427;stroke-linecap:butt;stroke-linejoin:miter;stroke-miterlimit:4;stroke-dasharray:none;stroke-opacity:1;display:inline"
         id="path1960" />
      <path
         d="M 41.147533,122.72121 C 49.979438,125.31973 57.457579,115.89763 68.610272,131.74148 C 66.388874,130.93236 63.201109,129.66022 61.946639,130.03588 C 55.40293,130.76131 49.181442,123.96034 41.147533,122.72121 z "
         style="fill:#ffcd50;fill-opacity:1;fill-rule:evenodd;stroke:#003d8f;stroke-width:0.50806427;stroke-linecap:butt;stroke-linejoin:miter;stroke-miterlimit:4;stroke-dasharray:none;stroke-opacity:1;display:inline"
         id="path1962" />
    </g>
  </g>
  <g
     transform="matrix(-0.173648,0.984808,0.984808,0.173648,-2.207498,-10.70278)"
     id="vete-kant-4">
    <use
       id="use2153"
       x="0"
       y="0"
       width="251"
       height="304.20001"
       xlink:href="#vete-kant-straw" />
    <use
       id="use2155"
       x="0"
       y="0"
       width="251"
       height="304.20001"
       xlink:href="#vete-kant-ax" />
  </g>
  <use
     transform="matrix(-1,0,0,1,250.0002,-2.885304e-4)"
     id="Vete-2"
     x="0"
     y="0"
     width="251"
     height="304.20001"
     xlink:href="#Vete" />
  <g
     transform="matrix(1.039815,0,0,1.039815,-5.140181,-6.107536)"
     id="Vete">
    <g
       id="v-blad" />
    <path
       d="M 217.43991,254.09778 L 77.892054,89.245027 L 76.158244,90.600596 C 76.158244,90.600596 215.77902,255.6111 215.77902,255.6111 L 217.43991,254.09778 z "
       style="opacity:1;fill:#ffcd50;fill-opacity:1;fill-rule:evenodd;stroke:#d40000;stroke-width:0.54840147;stroke-linecap:butt;stroke-linejoin:miter;stroke-miterlimit:4;stroke-dasharray:none;stroke-opacity:1;display:inline"
       id="stalk" />
    <path
       d="M 7.6227336,8.4753652 C 19.129015,22.212988 13.906618,32.058668 27.43921,31.71979 C 28.736523,18.052379 18.947771,21.748579 7.6227336,8.4753652 z "
       style="opacity:1;fill:#ffcd50;fill-opacity:1;fill-rule:evenodd;stroke:#d40000;stroke-width:0.54840147;stroke-linecap:butt;stroke-linejoin:miter;stroke-miterlimit:4;stroke-dasharray:none;stroke-opacity:1;display:inline"
       id="top-korn" />
    <g
       transform="matrix(-0.608138,-1.572984e-2,-1.572984e-2,0.608138,761.9556,-63.92578)"
       style="opacity:1;fill:#ffcd50;fill-opacity:1;stroke:#003d8f;stroke-width:0.90146917;stroke-miterlimit:4;stroke-dasharray:none;stroke-opacity:1"
       id="h-korn">
      <path
         d="M 1210.4388,152.46032 C 1197.1937,179.70899 1215.8935,177.59259 1188.2165,204.04761 C 1187.0827,200.67077 1191.1316,194.46122 1190.7673,191.70645 C 1190.9047,170.54669 1203.8155,166.49048 1210.4388,152.46032 z "
         style="fill:#ffcd50;fill-opacity:1;fill-rule:evenodd;stroke:#d40000;stroke-width:0.90146917;stroke-linecap:butt;stroke-linejoin:miter;stroke-miterlimit:4;stroke-dasharray:none;stroke-opacity:1;display:inline"
         id="path10777" />
      <path
         d="M 1185.0419,167.53968 C 1182.511,183.67724 1200.8142,194.65608 1175.5181,217.93651 C 1176.4283,213.84166 1177.9298,207.93979 1176.9791,205.8197 C 1174.1911,194.47551 1184.7181,181.95933 1185.0419,167.53968 z "
         style="fill:#ffcd50;fill-opacity:1;fill-rule:evenodd;stroke:#d40000;stroke-width:0.90146917;stroke-linecap:butt;stroke-linejoin:miter;stroke-miterlimit:4;stroke-dasharray:none;stroke-opacity:1;display:inline"
         id="path10779" />
      <path
         d="M 1172.578,181.23016 C 1170.0471,197.36772 1188.3503,208.34656 1163.0542,231.62699 C 1163.9644,227.53214 1165.4659,221.63027 1164.5152,219.51018 C 1161.7272,208.16599 1172.2542,195.64981 1172.578,181.23016 z "
         style="fill:#ffcd50;fill-opacity:1;fill-rule:evenodd;stroke:#d40000;stroke-width:0.90146917;stroke-linecap:butt;stroke-linejoin:miter;stroke-miterlimit:4;stroke-dasharray:none;stroke-opacity:1;display:inline"
         id="path10781" />
      <path
         d="M 1160.6732,194.72222 C 1158.1423,210.85978 1176.4455,221.83862 1151.1494,245.11905 C 1152.0596,241.0242 1153.5611,235.12233 1152.6104,233.00224 C 1149.8224,221.65805 1160.3494,209.14187 1160.6732,194.72222 z "
         style="fill:#ffcd50;fill-opacity:1;fill-rule:evenodd;stroke:#d40000;stroke-width:0.90146917;stroke-linecap:butt;stroke-linejoin:miter;stroke-miterlimit:4;stroke-dasharray:none;stroke-opacity:1;display:inline"
         id="path10783" />
      <path
         d="M 1148.3716,208.21427 C 1145.8407,224.35183 1164.1439,235.33067 1138.8478,258.6111 C 1139.758,254.51625 1141.2595,248.61438 1140.3088,246.49429 C 1137.5208,235.1501 1148.0478,222.63392 1148.3716,208.21427 z "
         style="fill:#ffcd50;fill-opacity:1;fill-rule:evenodd;stroke:#d40000;stroke-width:0.90146917;stroke-linecap:butt;stroke-linejoin:miter;stroke-miterlimit:4;stroke-dasharray:none;stroke-opacity:1;display:inline"
         id="path10785" />
      <path
         d="M 1136.4669,221.70634 C 1133.936,237.8439 1152.2392,248.82274 1126.9431,272.10317 C 1127.8533,268.00832 1129.3548,262.10645 1128.4041,259.98636 C 1125.6161,248.64217 1136.1431,236.12599 1136.4669,221.70634 z "
         style="fill:#ffcd50;fill-opacity:1;fill-rule:evenodd;stroke:#d40000;stroke-width:0.90146917;stroke-linecap:butt;stroke-linejoin:miter;stroke-miterlimit:4;stroke-dasharray:none;stroke-opacity:1;display:inline"
         id="path10787" />
      <path
         d="M 1124.1653,235.19841 C 1121.6344,251.33597 1139.9376,262.31481 1114.6415,285.59524 C 1115.5517,281.50039 1117.0532,275.59852 1116.1025,273.47843 C 1113.3145,262.13424 1123.8415,249.61806 1124.1653,235.19841 z "
         style="fill:#ffcd50;fill-opacity:1;fill-rule:evenodd;stroke:#d40000;stroke-width:0.90146917;stroke-linecap:butt;stroke-linejoin:miter;stroke-miterlimit:4;stroke-dasharray:none;stroke-opacity:1;display:inline"
         id="path10789" />
    </g>
    <g
       transform="matrix(7.921175e-2,-0.603163,0.603163,7.921175e-2,-181.6503,742.1517)"
       style="opacity:1;fill:#ffcd50;fill-opacity:1;stroke:#003d8f;stroke-width:0.90146863;stroke-miterlimit:4;stroke-dasharray:none;stroke-opacity:1;display:inline"
       id="v-korn">
      <path
         d="M 1210.4388,152.46032 C 1197.1937,179.70899 1215.8935,177.59259 1188.2165,204.04761 C 1187.0827,200.67077 1191.1316,194.46122 1190.7673,191.70645 C 1190.9047,170.54669 1203.8155,166.49048 1210.4388,152.46032 z "
         style="fill:#ffcd50;fill-opacity:1;fill-rule:evenodd;stroke:#d40000;stroke-width:0.90146863;stroke-linecap:butt;stroke-linejoin:miter;stroke-miterlimit:4;stroke-dasharray:none;stroke-opacity:1;display:inline"
         id="path10793" />
      <path
         d="M 1185.0419,167.53968 C 1182.511,183.67724 1200.8142,194.65608 1175.5181,217.93651 C 1176.4283,213.84166 1177.9298,207.93979 1176.9791,205.8197 C 1174.1911,194.47551 1184.7181,181.95933 1185.0419,167.53968 z "
         style="fill:#ffcd50;fill-opacity:1;fill-rule:evenodd;stroke:#d40000;stroke-width:0.90146863;stroke-linecap:butt;stroke-linejoin:miter;stroke-miterlimit:4;stroke-dasharray:none;stroke-opacity:1;display:inline"
         id="path10795" />
      <path
         d="M 1172.578,181.23016 C 1170.0471,197.36772 1188.3503,208.34656 1163.0542,231.62699 C 1163.9644,227.53214 1165.4659,221.63027 1164.5152,219.51018 C 1161.7272,208.16599 1172.2542,195.64981 1172.578,181.23016 z "
         style="fill:#ffcd50;fill-opacity:1;fill-rule:evenodd;stroke:#d40000;stroke-width:0.90146863;stroke-linecap:butt;stroke-linejoin:miter;stroke-miterlimit:4;stroke-dasharray:none;stroke-opacity:1;display:inline"
         id="path10797" />
      <path
         d="M 1160.6732,194.72222 C 1158.1423,210.85978 1176.4455,221.83862 1151.1494,245.11905 C 1152.0596,241.0242 1153.5611,235.12233 1152.6104,233.00224 C 1149.8224,221.65805 1160.3494,209.14187 1160.6732,194.72222 z "
         style="fill:#ffcd50;fill-opacity:1;fill-rule:evenodd;stroke:#d40000;stroke-width:0.90146863;stroke-linecap:butt;stroke-linejoin:miter;stroke-miterlimit:4;stroke-dasharray:none;stroke-opacity:1;display:inline"
         id="path10799" />
      <path
         d="M 1148.3716,208.21427 C 1145.8407,224.35183 1164.1439,235.33067 1138.8478,258.6111 C 1139.758,254.51625 1141.2595,248.61438 1140.3088,246.49429 C 1137.5208,235.1501 1148.0478,222.63392 1148.3716,208.21427 z "
         style="fill:#ffcd50;fill-opacity:1;fill-rule:evenodd;stroke:#d40000;stroke-width:0.90146863;stroke-linecap:butt;stroke-linejoin:miter;stroke-miterlimit:4;stroke-dasharray:none;stroke-opacity:1;display:inline"
         id="path10801" />
      <path
         d="M 1136.4669,221.70634 C 1133.936,237.8439 1152.2392,248.82274 1126.9431,272.10317 C 1127.8533,268.00832 1129.3548,262.10645 1128.4041,259.98636 C 1125.6161,248.64217 1136.1431,236.12599 1136.4669,221.70634 z "
         style="fill:#ffcd50;fill-opacity:1;fill-rule:evenodd;stroke:#d40000;stroke-width:0.90146863;stroke-linecap:butt;stroke-linejoin:miter;stroke-miterlimit:4;stroke-dasharray:none;stroke-opacity:1;display:inline"
         id="path10803" />
      <path
         d="M 1124.1653,235.19841 C 1121.6344,251.33597 1139.9376,262.31481 1114.6415,285.59524 C 1115.5517,281.50039 1117.0532,275.59852 1116.1025,273.47843 C 1113.3145,262.13424 1123.8415,249.61806 1124.1653,235.19841 z "
         style="fill:#ffcd50;fill-opacity:1;fill-rule:evenodd;stroke:#d40000;stroke-width:0.90146863;stroke-linecap:butt;stroke-linejoin:miter;stroke-miterlimit:4;stroke-dasharray:none;stroke-opacity:1;display:inline"
         id="path10805" />
    </g>
    <g
       id="h-blad" />
  </g>
  <g
     transform="matrix(-1,5.838288e-7,5.838288e-7,1,250.7,-3.201795e-4)"
     id="vete-kant-2">
    <use
       id="use2093"
       x="0"
       y="0"
       width="251"
       height="304.20001"
       xlink:href="#vete-kant-straw" />
    <use
       id="use2095"
       x="0"
       y="0"
       width="251"
       height="304.20001"
       xlink:href="#vete-kant-ax" />
  </g>
  <g
     id="vete-kant-3">
    <use
       transform="matrix(0.172704,0.979452,-0.979452,0.172704,252.9119,-9.400398)"
       id="use2101"
       x="0"
       y="0"
       width="251"
       height="304.20001"
       xlink:href="#vete-kant-straw" />
    <use
       transform="matrix(0.172704,0.979452,-0.979452,0.172704,252.9119,-9.400398)"
       id="use2103"
       x="0"
       y="0"
       width="251"
       height="304.20001"
       xlink:href="#vete-kant-ax" />
  </g>
  <g
     style="fill:#d40000;fill-opacity:1"
     id="weaving">
    <g
       style="fill:#d40000;fill-opacity:1"
       id="g3094">
      <path
         d="M 147.59259,170.98426 L 145.57545,173.38818 L 147.59259,170.98426 z "
         style="fill:#d40000;fill-opacity:1;fill-rule:evenodd;stroke:#d40000;stroke-width:0.54799998;stroke-linecap:butt;stroke-linejoin:miter;stroke-miterlimit:4;stroke-dasharray:none;stroke-opacity:1"
         id="path3088" />
      <path
         d="M 149.14075,172.98123 L 147.12361,175.38515 L 149.14075,172.98123 z "
         style="fill:#d40000;fill-opacity:1;fill-rule:evenodd;stroke:#d40000;stroke-width:0.54799998;stroke-linecap:butt;stroke-linejoin:miter;stroke-miterlimit:4;stroke-dasharray:none;stroke-opacity:1"
         id="use3090" />
    </g>
    <use
       transform="translate(-44.88545,-53.04955)"
       style="fill:#d40000;fill-opacity:1"
       id="use3098"
       x="0"
       y="0"
       width="251"
       height="304.20001"
       xlink:href="#g3094" />
    <g
       style="fill:#d40000;fill-opacity:1"
       id="g3116">
      <path
         d="M 79.393319,145.98733 L 79.031196,146.40646 L 81.893319,149.83108 L 82.299569,149.47472 L 79.393319,145.98733 z "
         style="fill:#d40000;fill-opacity:1;fill-rule:evenodd;stroke:none;stroke-width:0.54799998;stroke-linecap:butt;stroke-linejoin:miter;stroke-miterlimit:4;stroke-opacity:1"
         id="path3104" />
      <use
         transform="translate(1.374246,-2.326132)"
         style="fill:#d40000;fill-opacity:1"
         id="use3106"
         x="0"
         y="0"
         width="251"
         height="304.20001"
         xlink:href="#path3104" />
    </g>
    <g
       transform="matrix(-1,0,0,-1,205.7853,345.2197)"
       style="fill:#d40000;fill-opacity:1"
       id="use3120">
      <path
         d="M 79.153772,145.52084 L 78.791649,145.93997 L 81.653772,149.36459 L 82.060022,149.00823 L 79.153772,145.52084 z "
         style="fill:#d40000;fill-opacity:1;fill-rule:evenodd;stroke:none;stroke-width:0.54799998;stroke-linecap:butt;stroke-linejoin:miter;stroke-miterlimit:4;stroke-opacity:1"
         id="path3124" />
      <use
         transform="translate(1.386854,-2.288309)"
         style="fill:#d40000;fill-opacity:1"
         id="use3126"
         x="0"
         y="0"
         width="251"
         height="304.20001"
         xlink:href="#path3104" />
    </g>
    <g
       transform="translate(45.6093,-53.38322)"
       style="fill:#d40000;fill-opacity:1"
       id="use3128">
      <path
         d="M 80.766234,143.70508 L 80.404111,144.12421 L 83.266234,147.54883 L 83.672484,147.19247 L 80.766234,143.70508 z "
         style="fill:#d40000;fill-opacity:1;fill-rule:evenodd;stroke:none;stroke-width:0.54799998;stroke-linecap:butt;stroke-linejoin:miter;stroke-miterlimit:4;stroke-opacity:1"
         id="path3134" />
      <path
         d="M 79.066323,145.64664 L 78.716808,146.05947 L 81.578931,149.48408 L 81.997789,149.10251 L 79.066323,145.64664 z "
         style="fill:#d40000;fill-opacity:1;fill-rule:evenodd;stroke:none;stroke-width:0.54799998;stroke-linecap:butt;stroke-linejoin:miter;stroke-miterlimit:4;stroke-opacity:1"
         id="use3136" />
    </g>
    <g
       transform="matrix(-1,0,0,-1,251.1262,290.7117)"
       style="fill:#d40000;fill-opacity:1"
       id="use3130">
      <path
         d="M 79.153772,145.52084 L 78.791649,145.93997 L 81.653772,149.36459 L 82.070648,148.98698 L 79.153772,145.52084 z "
         style="fill:#d40000;fill-opacity:1;fill-rule:evenodd;stroke:none;stroke-width:0.54799998;stroke-linecap:butt;stroke-linejoin:miter;stroke-miterlimit:4;stroke-opacity:1"
         id="path3142" />
      <path
         d="M 80.737667,143.62464 L 80.375544,144.04377 L 83.25892,147.45776 L 83.643917,147.11203 L 80.737667,143.62464 z "
         style="fill:#d40000;fill-opacity:1;fill-rule:evenodd;stroke:none;stroke-width:0.54799998;stroke-linecap:butt;stroke-linejoin:miter;stroke-miterlimit:4;stroke-opacity:1"
         id="use3144" />
    </g>
  </g>
  <path
     d="M 249.55062,1.4395041 L 125.50012,1.4395041 L 1.449569,1.4395041 L 1.449569,174.9361 C 0.68232904,268.65698 81.739009,302.75585 125.5001,302.75585 C 168.49395,302.75585 250.31785,268.65698 249.55062,174.9361 L 249.55062,1.4395041 z "
     style="color:#000000;fill:none;fill-opacity:0;fill-rule:nonzero;stroke:#000000;stroke-width:1.88832211;stroke-linecap:round;stroke-linejoin:bevel;marker:none;marker-start:none;marker-mid:none;marker-end:none;stroke-miterlimit:4;stroke-dashoffset:0;stroke-opacity:1;visibility:visible;display:block"
     id="Frame" />
</svg>
