<?xml version="1.0" encoding="UTF-8" standalone="no"?>
<!-- Created with Inkscape (http://www.inkscape.org/) -->
<svg
   xmlns:svg="http://www.w3.org/2000/svg"
   xmlns="http://www.w3.org/2000/svg"
   version="1.0"
   width="251"
   height="304.20001"
   id="svg4166">
  <defs
     id="defs4168" />
  <path
     d="M 249.55058,1.4395041 L 125.50008,1.4395041 L 1.4495291,1.4395041 L 1.4495291,174.9361 C 0.68228908,268.65698 81.738969,302.75585 125.50006,302.75585 C 168.49391,302.75585 250.31781,268.65698 249.55058,174.9361 L 249.55058,1.4395041 z "
     style="fill:#eeeeee;stroke:none"
     id="Shield" />
  <g
     transform="matrix(0.20841,0,0,-0.20841,-16.12408,204.5302)"
     style="fill:#d40000;stroke:#eeeeee;stroke-width:5"
     id="Sword">
    <path
       d="M 254.81293,227.21933 C 265.02722,185.61219 277.95578,185.61219 287.67007,227.21933 C 297.38436,268.82647 300.38436,320.04076 289.67007,361.6479 C 278.95578,403.25504 261.52722,403.25504 250.81293,361.6479 C 240.09864,320.04076 244.59864,268.82647 254.81293,227.21933 z "
       id="path2198" />
    <g
       id="g1926">
      <path
         d="M 249.53338,371.58029 L 290.94964,371.58029 L 284.94964,757.43822 L 270.2415,790.79361 L 255.53338,757.43822 L 249.53338,371.58029 z "
         id="path2201" />
      <path
         d="M 268.23271,375.0625 L 269.72825,742.09375 L 274.23271,375.0625 L 268.23271,375.0625 z "
         style="fill:#eeeeee;stroke:none"
         id="path2203" />
    </g>
    <rect
       width="161.86885"
       height="21.377804"
       x="189.3071"
       y="358.07336"
       id="rect2206" />
    <g
       id="g1932">
      <path
         d="M 299.03085,233.12339 C 299.03678,249.0275 286.14561,261.92347 270.24151,261.92347 C 254.3374,261.92347 241.44623,249.0275 241.45216,233.12339 C 241.44623,217.21928 254.3374,204.32331 270.24151,204.32331 C 286.14561,204.32331 299.03678,217.21928 299.03085,233.12339 L 299.03085,233.12339 z "
         id="path2210" />
      <path
         d="M 282.39236,233.12342 C 282.39489,239.83595 276.95401,245.27888 270.24146,245.27888 C 263.52893,245.27888 258.08805,239.83595 258.09057,233.12342 C 258.08805,226.41088 263.52893,220.96795 270.24146,220.96795 C 276.95401,220.96795 282.39489,226.41088 282.39236,233.12342 L 282.39236,233.12342 z "
         id="path2212" />
    </g>
  </g>
  <g
     transform="matrix(0.152288,0,0,0.208021,257.1178,35.30944)"
     style="fill:#d40000;stroke:#eeeeee;stroke-width:1"
     id="Tass">
    <g
       style="fill:#d40000"
       id="g3099">
      <path
         d="M -532.96553,98.172985 C -533.20015,98.084072 -533.36127,98.071747 -533.43479,97.995166 C -543.0036,96.269865 -549.89469,97.800784 -554.26917,102.57559 C -556.90553,106.20598 -557.31735,109.50976 -555.41707,112.42266 C -551.12717,108.49295 -546.81408,106.76487 -542.63893,107.22611 C -538.87365,107.72697 -536.37718,109.55005 -535.3107,112.68302 C -535.22309,112.61876 -534.97436,112.56682 -534.72562,112.51489 C -530.96837,114.71824 -526.70561,115.11521 -521.77619,113.71812 C -519.7642,111.45926 -519.46513,109.28226 -520.80553,107.26375 C -521.33724,106.08766 -521.95659,104.97585 -522.75115,103.99257 C -524.91427,101.27245 -528.37747,99.375429 -532.96553,98.172985 z "
         style="stroke-width:0.53464818"
         id="path3437" />
      <path
         d="M -568.0318,137.07565 C -572.1636,140.23685 -575.3397,144.39366 -577.22379,149.42989 C -577.83906,153.1439 -577.06358,156.75136 -574.91151,160.39315 C -572.83508,155.86838 -569.78885,152.19837 -565.61174,149.39545 C -560.58065,147.79325 -556.51024,147.67878 -553.25348,149.20518 C -553.09235,149.21751 -552.85772,149.30641 -552.78422,149.38301 C -549.89806,149.74565 -547.61716,148.85566 -545.86796,146.78955 L -545.94148,146.71297 C -546.73407,142.46552 -549.4994,139.27357 -554.38452,136.98396 L -554.31103,137.06054 C -554.54565,136.97164 -554.61917,136.89504 -554.76619,136.74187 C -558.9474,134.71898 -563.34007,134.80882 -568.0318,137.07565 z "
         style="stroke-width:0.53464818"
         id="path3439" />
      <path
         d="M -552.06576,183.5713 L -551.9751,184.28784 C -554.15128,185.75358 -555.5923,187.98516 -556.43114,190.68858 C -557.67874,197.47658 -557.12884,203.33763 -554.78139,208.27171 C -552.28192,210.87561 -550.02009,212.6098 -547.83484,213.48656 C -544.22765,214.75592 -540.78762,214.45128 -537.74946,212.48381 C -542.75646,208.97847 -544.80984,204.35075 -544.15836,198.65255 C -541.9772,194.70348 -539.61171,192.9684 -536.84134,193.67699 C -534.02477,187.43474 -535.28664,183.00949 -540.78807,180.38887 C -543.89478,179.79647 -547.08301,180.82998 -550.44041,183.55367 C -551.28832,183.9146 -551.85931,183.94188 -552.06576,183.5713 z "
         style="stroke-width:0.53464818"
         id="path3441" />
    </g>
    <path
       d="M -552.26688,132.71444 C -554.01343,134.04448 -554.72467,135.42266 -554.37874,136.83289 C -554.37874,136.83289 -554.28138,136.92461 -554.369,136.98887 C -549.48387,139.2785 -546.72223,142.45685 -545.92964,146.7043 L -545.86073,146.7761 C -547.60991,148.84219 -549.90635,149.73543 -552.79252,149.37278 C -552.86604,149.2962 -553.07134,149.2184 -553.23246,149.20608 C -555.60099,150.16035 -556.52297,151.71756 -555.98821,153.67448 C -554.94688,157.86997 -553.32438,161.12532 -550.88433,163.51178 C -548.89142,163.8771 -547.10986,164.02222 -545.38279,163.79948 C -543.01125,163.62605 -540.88453,162.8573 -538.9712,161.58437 C -536.48884,163.54829 -535.96887,166.41329 -537.34441,170.42396 C -539.863,170.44423 -542.73591,171.36879 -545.80532,172.83716 C -548.92807,175.64976 -550.86916,178.26445 -551.86911,180.95553 C -552.24474,182.27513 -552.42325,183.19729 -552.05569,183.58021 C -551.84924,183.95081 -551.30211,183.90839 -550.45418,183.54746 C -547.0968,180.82379 -543.90857,179.79027 -540.80187,180.38268 C -535.30043,183.00328 -534.03944,187.43736 -536.85603,193.67961 C -536.09768,196.64709 -534.29823,198.33704 -531.58731,198.82821 C -527.98616,198.53593 -525.30263,197.62791 -523.50813,195.92012 C -523.24636,191.68235 -524.00451,188.05402 -525.49495,185.10149 C -521.60781,186.81805 -519.25535,189.2688 -518.51111,192.37713 C -513.09835,191.01702 -510.05917,188.12707 -509.38755,183.84965 C -509.46,187.81807 -508.53495,191.29949 -506.4,194.30129 C -506.03544,193.90342 -505.66173,193.51506 -505.22367,193.19375 C -500.49571,188.94272 -495.92295,187.15468 -491.42556,187.64056 L -491.00229,188.22735 L -502.09145,196.1166 C -498.75512,199.28126 -494.56196,200.37367 -489.42615,199.34719 C -491.04634,208.2356 -488.51229,215.25962 -481.62517,220.25703 C -482.08945,217.59588 -481.19178,214.9635 -479.01863,212.71697 C -478.82932,212.44758 -478.54635,212.25632 -478.44463,212.05121 C -478.2694,211.9227 -478.09965,211.79818 -477.92445,211.66966 C -477.92445,211.66966 -477.82041,211.59335 -477.73281,211.52907 C -473.35528,207.53512 -465.15629,204.13941 -453.34992,201.35227 L -453.17148,201.34373 L -453.28101,201.42407 C -456.3433,208.49909 -463.11763,213.2234 -473.82737,215.59769 C -463.63617,219.21562 -454.11431,216.39124 -445.15894,207.21225 L -444.70921,207.53494 C -449.22465,213.71822 -451.65897,220.34895 -451.80695,227.50492 C -451.82105,227.64577 -451.85988,227.7803 -451.87396,227.92115 L -451.72291,227.93269 C -451.54768,227.80418 -451.52352,227.6641 -451.43591,227.59983 L -451.35378,227.5396 C -445.97936,220.07368 -438.13455,214.08294 -427.91728,209.32919 C -436.45176,217.54691 -441.00512,223.85591 -441.61736,228.35076 C -442.04632,231.01455 -441.00719,233.00116 -438.46844,234.40169 C -432.87954,225.60388 -422.92587,224.58766 -408.26153,222.44486 L -408.27476,222.57693 L -407.92386,223.37991 C -417.56709,228.88717 -421.60063,229.10101 -419.94604,232.84669 C -418.90881,232.21637 -417.98303,229.12771 -416.9599,228.63827 C -409.41932,224.6733 -402.13124,225.13027 -395.14648,225.09674 C -398.34775,230.31609 -403.37367,227.89689 -413.01797,229.35915 C -407.04726,232.15759 -402.11764,238.53007 -395.54881,236.9745 C -380.81291,229.72662 -373.4522,228.18863 -378.17309,218.23407 L -373.90608,184.02223 C -349.35362,173.03791 -389.00117,169.10121 -397.96821,163.05419 C -403.02554,161.67392 -408.26445,160.435 -413.33584,159.19557 C -434.10491,154.20096 -455.5843,149.86606 -477.88498,146.38643 C -487.64313,144.93052 -497.73716,144.65085 -508.21831,145.55238 C -508.37943,145.54006 -508.5607,145.5262 -508.72182,145.51387 C -512.29672,148.78862 -517.22758,150.04812 -523.48327,149.28584 C -527.73496,147.9672 -531.53215,146.31517 -534.95308,143.99561 C -536.17157,143.19278 -537.40654,142.40202 -538.52334,141.39408 C -540.53444,136.34381 -544.47007,132.98251 -550.15781,131.41213 C -550.97246,131.84655 -551.6847,132.27108 -552.26688,132.71444 z "
       id="path3435" />
    <path
       d="M -512.56906,105.26802 C -513.80774,103.04439 -516.02424,101.66851 -519.13092,101.07609 L -522.75115,103.99257 C -521.95659,104.97585 -521.33724,106.08766 -520.80553,107.26375 C -519.46513,109.28226 -519.7642,111.45926 -521.77619,113.71812 C -526.70561,115.11521 -530.96837,114.71824 -534.72562,112.51489 C -534.97436,112.56682 -535.22309,112.61876 -535.3107,112.68302 C -539.81614,113.89964 -541.63884,115.88915 -540.93993,118.63921 C -539.72338,122.70619 -536.60457,126.42192 -531.61167,130.06808 C -530.03559,136.22049 -531.07176,140.89579 -534.8672,143.94079 L -534.95483,144.00505 C -531.53392,146.32462 -527.72028,147.96459 -523.4686,149.28323 C -517.21293,150.04552 -512.29761,148.78927 -508.7227,145.51452 C -508.56158,145.52684 -508.40046,145.53917 -508.23933,145.55149 L -508.44879,144.40005 C -509.09846,135.47996 -510.65544,126.70337 -513.11973,118.07026 C -514.12984,114.37388 -514.02918,110.12377 -512.56906,105.26802 z "
       id="path3423" />
  </g>
  <g
     id="g2263">
    <path
       d="M 75.75,29.375 L 75.75,163.21875 L 81.1875,163.21875 C 81.1875,161.34988 81.187501,110.15625 81.1875,110.15625 C 83.736163,96.63875 92.487905,86.125001 102.5,86.125 C 112.51208,86.125 121.26383,96.638746 123.8125,110.15625 C 123.8125,110.15625 123.8125,161.34987 123.8125,163.21875 L 127.1875,163.21875 C 127.1875,161.34987 127.1875,110.15625 127.1875,110.15625 C 129.73617,96.638746 138.48792,86.125 148.5,86.125 C 158.51208,86.125001 167.26384,96.63875 169.8125,110.15625 C 169.8125,110.15625 169.8125,161.34988 169.8125,163.21875 L 175.25,163.21875 L 175.25,29.375 L 164.21875,29.375 L 164.21875,40.90625 L 153.15625,40.90625 L 153.15625,29.375 L 142.09375,29.375 L 142.09375,40.90625 L 131.03125,40.90625 L 131.03125,29.375 L 119.96875,29.375 L 119.96875,40.90625 L 108.90625,40.90625 L 108.90625,29.375 L 97.84375,29.375 L 97.84375,40.90625 L 86.78125,40.90625 L 86.78125,29.375 L 75.75,29.375 z "
       style="fill:#d40000;stroke:#eeeeee;stroke-width:0.47753248"
       id="Tower-body" />
    <g
       transform="matrix(0.2169569,0,0,0.3028956,70.727179,-36.114331)"
       style="fill:none;stroke:#eeeeee;stroke-width:1.36452281"
       id="Valvstenar">
      <path
         d="M 85.551363,396.25076 C 95.440767,388.56637 107.39703,384.00557 119.89186,383.15134"
         id="steink-1" />
      <path
         d="M 207.44873,396.25076 C 197.55933,388.56637 185.60307,384.00557 173.10825,383.15134"
         id="steink-2" />
      <path
         d="M 50.801515,425.63348 L 42.614378,436.54967"
         id="steink-3" />
      <path
         d="M 242.19858,425.63348 L 251.15117,437.82542"
         id="steink-4" />
      <path
         d="M 134.49225,448.64844 L 117.84507,374.9642 C 136.55853,369.50611 156.44157,369.50611 175.15503,374.9642 L 158.50785,448.64844"
         id="steing-1" />
      <path
         d="M 212.99779,448.64844 L 248.83926,419.99346 C 238.81634,406.77485 226.29969,395.64894 211.99714,387.24491 L 176.88343,448.64844"
         id="steing-2" />
      <path
         d="M 80.002306,448.64844 L 44.160837,419.99346 C 54.18376,406.77485 66.70041,395.64894 81.002953,387.24491 L 116.11667,448.64844"
         id="steing-3" />
    </g>
    <g
       transform="matrix(-0.2169569,0,0,0.3028956,180.27574,-36.114331)"
       style="fill:none;stroke:#eeeeee;stroke-width:1.36452281"
       id="g2227">
      <path
         d="M 85.551363,396.25076 C 95.440767,388.56637 107.39703,384.00557 119.89186,383.15134"
         id="path2229" />
      <path
         d="M 207.44873,396.25076 C 197.55933,388.56637 185.60307,384.00557 173.10825,383.15134"
         id="path2231" />
      <path
         d="M 50.801515,425.63348 L 42.614378,436.54967"
         id="path2233" />
      <path
         d="M 242.19858,425.63348 L 251.15117,437.82542"
         id="path2235" />
      <path
         d="M 134.49225,448.64844 L 117.84507,374.9642 C 136.55853,369.50611 156.44157,369.50611 175.15503,374.9642 L 158.50785,448.64844"
         id="path2237" />
      <path
         d="M 212.99779,448.64844 L 248.83926,419.99346 C 238.81634,406.77485 226.29969,395.64894 211.99714,387.24491 L 176.88343,448.64844"
         id="path2239" />
      <path
         d="M 80.002306,448.64844 L 44.160837,419.99346 C 54.18376,406.77485 66.70041,395.64894 81.002953,387.24491 L 116.11667,448.64844"
         id="path2241" />
    </g>
  </g>
  <g
     transform="matrix(0.152288,0,0,0.208021,257.1178,35.30944)"
     style="fill:#d40000;stroke:#eeeeee;stroke-width:1"
     id="lion">
    <path
       d="M -402.8896,381.5689 C -411.7896,381.4679 -417.1896,384.9679 -419.0896,392.1689 C -420.0896,397.5689 -419.6896,401.6689 -418.0896,404.4689 C -417.4896,405.3689 -416.8896,406.1689 -416.0896,406.8689 C -414.3896,408.1689 -412.0896,408.8689 -409.2896,408.9689 C -405.0896,409.0699 -399.5896,407.9689 -392.7896,405.4689 C -397.6896,409.5699 -402.3896,412.2689 -406.8896,413.4689 C -407.6896,413.6689 -408.3896,413.7689 -409.1896,413.9689 C -413.2896,414.5699 -417.2896,414.0699 -421.1896,412.2689 C -422.9896,411.4689 -424.8896,410.3699 -426.5896,408.9689 C -427.2896,408.4689 -427.8896,407.8689 -428.5896,407.3689 C -428.1896,408.0689 -427.8896,408.7679 -427.5896,409.4689 C -421.9896,420.2689 -415.5896,423.8689 -408.1896,420.1689 C -408.1896,420.0689 -408.1896,420.0689 -408.0896,419.9689 C -407.3896,419.5699 -406.6896,419.1689 -405.9896,418.8689 C -405.6896,418.6689 -405.3896,418.5689 -405.0896,418.4689 C -401.2896,416.7689 -397.4896,416.1689 -393.6896,416.6689 C -397.4896,416.1689 -401.2896,416.7689 -405.0896,418.4689 C -405.3896,418.5699 -405.6896,418.6689 -405.9896,418.8689 C -406.6896,419.1689 -407.3896,419.5689 -408.0896,419.9689 C -408.1896,420.0689 -408.1896,420.0689 -408.1896,420.1689 C -410.7896,428.4689 -418.4896,433.8689 -431.3896,436.1689 C -417.9896,441.2689 -408.0896,438.4689 -401.4896,427.5689 L -400.7896,428.0689 C -401.4896,431.4679 -402.4896,434.6689 -403.7896,437.6689 C -407.4896,446.2689 -413.7896,453.3689 -422.6896,459.1689 C -415.6896,460.2689 -409.9896,459.4689 -405.3896,456.8689 C -400.5896,454.1689 -397.0896,449.3689 -394.7896,442.6689 C -395.0896,451.0689 -397.6896,457.9689 -402.3896,463.3689 C -401.2896,465.0689 -400.0896,466.7679 -398.5896,468.2679 C -397.1896,469.7679 -395.5896,471.1679 -393.7896,472.4679 C -390.1896,474.9679 -385.8896,476.9679 -380.8896,478.3679 C -387.1896,478.9679 -391.5896,478.3679 -394.1896,476.6679 C -394.7896,476.2679 -395.3896,475.8679 -395.8896,475.5679 C -395.8896,475.5679 -395.8896,475.5679 -395.9896,475.4669 C -396.6896,474.9669 -397.1896,474.6669 -397.3896,474.4669 C -399.4896,473.7669 -400.8896,473.2669 -401.4896,473.0679 C -402.0896,472.8679 -402.7896,472.7669 -403.6896,472.6679 C -406.4896,472.5679 -410.5896,473.1679 -416.1896,474.3679 C -423.2896,477.5679 -431.9896,479.5679 -441.9896,480.2669 C -444.2896,480.1669 -446.2896,479.6669 -448.2896,478.7669 C -450.1896,477.7669 -451.9896,476.3679 -453.5896,474.6669 C -453.9896,468.6669 -455.6896,462.2669 -458.5896,455.1669 C -460.1896,453.9669 -462.6896,453.5669 -465.8896,453.8669 C -467.3896,453.5669 -468.3896,454.0669 -468.6896,455.3669 C -468.7896,455.4669 -468.7896,455.5669 -468.7896,455.6669 C -468.7896,455.7669 -468.7896,455.7669 -468.7896,455.8669 C -462.9896,464.5669 -463.9896,468.5669 -471.8896,467.8669 C -473.8896,467.8669 -476.9896,468.4669 -481.2896,469.5669 C -485.6896,471.7659 -486.8896,474.1669 -485.0896,476.9659 L -484.5896,477.3659 C -484.3896,477.7649 -484.1896,478.0659 -483.8896,478.4659 C -483.8896,478.4659 -483.7896,478.5669 -483.7896,478.6659 C -481.7896,481.3659 -478.9896,483.4659 -475.3896,484.7659 C -469.8896,486.7659 -462.6896,487.2659 -453.6896,486.2659 C -458.6896,490.2659 -466.4896,491.1659 -477.0896,488.7659 C -480.3896,487.7659 -484.1896,485.8669 -488.4896,483.3669 L -491.0896,485.8669 C -486.6896,490.5669 -484.2896,495.1669 -483.7896,499.6669 C -484.3896,502.7669 -486.2896,505.4669 -489.4896,508.0669 C -489.5896,508.1669 -489.6896,508.3669 -489.6896,508.5669 C -490.6896,511.3669 -489.9896,513.3669 -487.5896,514.6669 L -480.7896,514.3669 C -476.8896,512.0669 -474.7896,509.0669 -474.7896,505.0669 C -474.5896,508.9659 -473.6896,511.1669 -472.0896,511.7659 C -468.6896,512.2659 -465.5896,512.0669 -462.6896,511.0669 C -460.0896,509.8669 -457.5896,509.5669 -454.9896,510.2659 C -451.1896,508.3669 -448.7896,505.9659 -447.8896,503.0669 C -448.7896,505.9659 -451.1896,508.3669 -454.9896,510.2659 C -457.5896,509.5669 -460.0896,509.8669 -462.6896,511.0669 C -463.4896,511.3669 -464.2896,511.8669 -465.0896,512.3669 L -471.9896,518.1669 L -469.3896,521.2669 C -469.3896,521.3679 -469.2896,521.4669 -469.2896,521.4669 C -463.1896,522.8669 -458.7896,525.8669 -455.8896,530.3669 C -454.9896,532.3669 -455.2896,533.7659 -456.5896,534.4669 C -456.5896,534.5679 -456.5896,534.5679 -456.6896,534.6669 C -457.0896,536.4669 -455.9896,537.7669 -453.2896,538.1669 C -450.1896,539.4669 -447.6896,539.5669 -445.6896,538.2669 C -440.9896,535.3679 -438.4896,531.1669 -437.8896,525.6669 C -440.2896,522.1669 -438.7896,517.6669 -433.4896,512.0669 C -438.7896,517.6669 -440.2896,522.1669 -437.8896,525.6669 C -436.8896,527.1669 -435.1896,529.8669 -432.7896,533.5669 C -428.9896,526.8669 -425.3896,522.4659 -422.0896,520.5669 C -425.3896,525.2659 -426.6896,530.0669 -425.8896,534.7659 C -425.8896,534.8669 -425.8896,534.9659 -425.7896,534.9659 L -425.7896,534.7659 C -419.4896,528.1659 -411.7896,524.4659 -402.6896,523.7659 C -405.5896,531.9659 -412.6896,537.4659 -423.8896,540.3669 C -423.9896,540.3669 -424.0896,540.3669 -424.0896,540.4669 C -421.8896,546.5679 -415.9896,548.6669 -406.5896,546.7669 C -399.7896,544.1669 -395.2896,539.8679 -392.8896,533.9669 L -392.2896,534.0679 C -391.6896,530.4669 -389.6896,527.2669 -386.3896,524.7669 C -389.6896,527.2669 -391.6896,530.4669 -392.2896,534.0679 C -392.3896,534.5679 -392.3896,535.0679 -392.3896,535.4669 C -393.5896,549.3669 -385.6896,555.9669 -368.8896,555.4669 C -368.6896,555.3669 -368.3896,555.3669 -368.1896,555.3669 C -368.2896,555.3669 -368.4896,555.2659 -368.5896,555.2659 C -368.6896,555.1659 -368.7896,555.1659 -368.7896,555.0669 C -375.0896,552.1669 -378.0896,547.2659 -377.7896,540.5669 L -377.6896,540.2659 C -377.8896,536.5669 -375.5896,532.2659 -370.6896,527.2659 C -365.4896,534.2659 -362.5896,541.7659 -361.8896,549.6659 C -355.9896,540.5659 -353.5896,530.5659 -354.9896,519.4659 C -354.8896,519.7659 -354.7896,520.0669 -354.6896,520.3659 C -354.6896,520.5659 -354.5896,520.7649 -354.5896,520.9659 C -354.0896,522.6659 -353.5896,524.3659 -352.8896,525.8659 C -348.0896,537.2649 -338.3896,542.9659 -323.9896,542.9659 C -332.4896,537.2659 -338.4896,529.8659 -341.9896,520.6659 C -342.8896,519.6659 -343.6896,518.6659 -344.4896,517.5659 C -343.6896,518.6659 -342.8896,519.6659 -341.9896,520.6659 C -336.7896,526.1659 -330.0896,529.1659 -321.6896,529.3659 C -319.4896,529.2649 -317.4896,528.8659 -315.5896,528.1659 C -312.1896,526.7659 -309.3896,524.3659 -307.3896,520.8659 L -307.5896,520.5659 L -307.0896,519.9649 C -307.6896,520.2649 -308.2886,520.6649 -308.8896,520.9649 C -312.2896,522.9649 -315.1896,523.8649 -317.6896,523.7649 C -326.2896,522.4649 -331.1896,516.9649 -332.2896,507.2649 C -331.5896,499.6649 -328.1896,493.1649 -321.8896,488.0659 C -320.5896,486.8659 -319.1896,485.8659 -317.5896,484.8659 L -317.5896,484.6659 L -317.4896,484.4659 C -316.8896,478.8659 -315.3896,472.6659 -313.0896,465.9659 C -299.86021,447.42861 -297.35872,444.81131 -320.6896,436.9639 C -319.7896,429.3639 -317.2896,421.6639 -313.1896,413.9639 C -309.2896,407.2639 -303.3896,400.5649 -295.5896,393.7639 C -295.2886,393.4639 -295.0896,393.1639 -294.8896,392.9639 C -292.5896,390.1639 -291.1896,387.1639 -290.7886,383.8639 C -290.3896,380.3639 -291.0896,376.4639 -292.8896,372.2629 C -293.4896,369.1629 -293.6896,366.2629 -293.5896,363.4629 L -294.5896,361.1629 C -311.5896,362.3629 -325.5896,367.9629 -336.6896,377.8629 C -341.3896,377.2619 -346.1896,376.7619 -350.7896,376.5629 C -359.7896,376.4619 -367.5896,378.6629 -374.2896,383.1629 C -381.2896,391.4629 -387.4896,396.6629 -392.8896,398.6629 C -393.3896,398.8629 -393.8896,399.0629 -394.3896,399.1629 C -399.1896,400.4629 -403.2896,399.4629 -406.7896,396.2629 C -410.5896,392.5689 -409.2896,387.6689 -402.8896,381.5689 z "
       id="path3459" />
    <path
       d="M -110.3595,29.842515 C -114.49389,29.775523 -118.43409,31.007771 -122.10908,33.457771 C -126.10909,37.457773 -127.17672,41.10354 -125.37672,44.30354 L -124.89005,44.094967 C -123.19003,39.494966 -118.77947,36.769212 -111.68046,36.169213 C -108.58046,36.269212 -106.06329,36.768269 -103.96328,37.768269 C -102.36329,38.568271 -101.20897,39.566379 -100.20897,40.96638 C -100.00899,41.266382 -99.783263,41.639719 -99.583263,41.939718 C -99.282253,42.539717 -99.088023,43.286396 -98.888023,43.886395 C -97.787003,51.886394 -99.689003,58.079821 -104.589,62.37982 C -110.68899,67.979821 -118.32339,69.694131 -127.3234,67.594132 C -136.2234,65.394132 -143.3683,66.344624 -148.66731,70.444622 C -150.56731,61.444628 -155.28072,54.743567 -162.78072,50.143569 C -167.98072,48.343569 -173.79123,47.774989 -180.09223,48.474989 L -180.16175,48.474989 C -189.16176,49.874992 -194.56089,54.284579 -196.36088,61.684579 C -197.56086,67.184573 -196.07329,71.650363 -191.77229,75.450362 C -189.07331,77.150362 -186.06563,77.367506 -182.66462,75.867506 C -188.66461,73.867507 -190.60466,70.369358 -188.50465,65.369359 C -187.00464,63.369357 -184.08465,62.301724 -179.88366,62.101724 C -175.88367,62.301726 -172.75784,64.08556 -170.35885,67.385559 C -167.75784,73.385559 -166.96456,78.567544 -168.06455,83.167543 C -168.56455,84.96754 -169.35886,86.642807 -170.35885,88.242806 C -182.15884,104.64281 -189.1942,122.84975 -191.49419,142.74974 C -192.69419,158.44975 -192.95896,169.89468 -192.25896,177.09468 C -192.05995,179.59468 -191.7942,182.28996 -191.49419,185.08996 C -190.79419,190.38995 -189.91322,196.10147 -188.71323,202.40147 C -186.91323,212.10148 -182.16935,226.08549 -174.66935,244.18549 C -170.96935,253.78547 -166.16927,260.93798 -160.06927,265.73798 C -158.26828,267.03798 -156.56354,268.30085 -155.06353,269.70085 C -150.06353,274.10085 -147.28059,278.69712 -146.58159,283.39711 C -148.7806,278.29711 -152.67121,275.18087 -158.47022,274.08088 C -159.37021,273.78089 -160.4207,273.55516 -161.32071,273.45516 C -166.1217,272.85516 -170.80365,273.34563 -175.50364,274.84564 C -178.50365,275.14565 -181.41606,275.06754 -183.91606,274.56755 C -189.21607,273.56753 -193.51707,270.77226 -196.91708,266.57227 C -200.21708,261.07225 -198.80557,255.19122 -192.60658,249.19123 C -199.30557,250.29122 -203.90384,253.89796 -206.30284,259.89795 C -207.90385,265.49795 -207.67712,270.33707 -205.67712,274.63707 C -200.87711,281.53705 -194.90942,284.83997 -187.80941,284.43998 C -187.30939,284.43998 -186.77988,284.37045 -186.27988,284.37045 C -186.77988,284.67046 -187.30942,285.04378 -187.80941,285.34379 C -192.5094,288.44377 -198.21136,290.7962 -204.91235,292.2962 C -200.31137,295.39618 -194.57036,295.54382 -187.67036,292.64383 C -197.47038,299.84384 -200.78184,308.19443 -197.68184,317.39443 C -193.18186,327.29442 -185.91221,331.86021 -175.71221,331.16021 L -175.57316,331.16021 C -175.47216,331.16021 -175.2855,331.16021 -175.08649,331.16021 C -174.1865,331.0602 -173.16647,330.84307 -172.16648,330.74306 C -164.26649,327.54306 -160.77691,323.57634 -161.8769,318.57634 C -164.9769,323.07632 -169.39606,324.94684 -175.29506,324.34684 C -182.19509,322.14683 -185.61612,317.49438 -185.51511,310.09439 C -184.61611,305.59439 -182.68367,302.13529 -179.88366,299.73529 C -176.38367,296.73529 -171.58459,295.2467 -165.28359,295.1467 C -149.9836,296.5467 -140.50916,301.96774 -136.70916,311.06773 C -133.40915,320.76774 -132.87963,329.74309 -135.17963,338.0431 C -139.37962,349.44308 -148.15119,358.06704 -161.25118,363.76704 C -169.55217,366.56805 -177.31031,367.8614 -184.6113,367.66039 C -191.91129,367.46041 -198.72092,365.85465 -205.12093,362.65465 C -213.12094,357.35466 -221.01909,352.34601 -228.62009,347.84601 C -228.72009,347.745 -228.76771,347.66791 -228.96771,347.56791 C -238.76773,340.86789 -246.97069,331.48015 -253.37069,319.48015 C -257.07067,312.58015 -259.57073,305.65339 -260.67073,298.55338 C -260.77075,298.45338 -260.80978,298.37529 -260.80978,298.27528 C -261.61078,289.67529 -263.28403,281.05133 -265.88504,272.55134 L -265.39837,272.1342 C -261.39836,275.73419 -257.40216,277.58756 -253.30117,277.48756 C -260.00116,271.48755 -264.607,264.59983 -267.206,256.69984 C -267.20602,256.09984 -267.27552,255.35316 -267.27552,254.75316 L -268.10981,254.75316 C -322.12294,220.5871 -338.92358,229.97973 -414.18006,248.49599 C -414.18006,248.49599 -411.60844,244.39867 -426.69518,251.42061 C -441.78192,258.44255 -474.52703,276.58375 -474.52703,276.58375 C -476.73374,277.78261 -477.38596,279.2324 -476.47371,280.68567 C -483.38002,279.87583 -488.91292,280.73299 -493.36808,283.32759 C -495.2406,284.67698 -497.23084,285.84241 -499.41668,286.94284 C -504.66547,289.82706 -510.75382,292.29654 -517.77106,294.31241 C -521.11957,295.14082 -524.32956,295.14603 -527.64349,294.66003 C -529.77386,294.3476 -531.82597,293.61641 -533.83114,292.71335 L -534.38733,292.64383 L -542.86928,289.86286 C -547.77758,288.83853 -550.80044,289.325 -552.18551,291.25334 C -552.42908,291.82662 -552.54714,292.34286 -552.53314,292.8524 C -552.42849,294.08575 -551.37467,294.9213 -549.5436,295.49432 C -544.2245,296.8834 -541.55569,298.6298 -541.47879,300.56958 C -540.74721,304.02632 -542.04434,306.22426 -545.5112,307.03533 C -545.15528,312.26399 -541.75229,316.27267 -535.22162,318.85443 C -533.90657,314.37835 -530.82065,311.9834 -525.69681,311.41535 L -520.62155,318.50681 C -524.61015,321.77881 -527.41246,325.24674 -529.03397,328.86591 L -526.94825,334.63642 C -524.86018,331.69467 -521.27488,330.79557 -516.31105,332.13355 C -511.63213,334.23969 -509.31713,337.22254 -509.63673,341.03264 C -506.76105,343.58588 -501.55409,344.85725 -494.20237,344.71742 C -496.95284,341.57357 -498.55348,338.19074 -498.79096,334.70594 C -498.79096,334.70594 -498.7632,334.75322 -498.86049,334.63642 L -497.19191,334.63642 C -491.71331,332.39494 -486.19355,332.37198 -480.92325,334.56689 C -472.96661,329.84681 -468.02172,324.72636 -465.76699,319.27158 C -465.76699,319.27156 -465.62813,319.28312 -465.48889,319.20205 C -464.04632,327.93956 -456.63549,331.07923 -443.17164,328.58781 C -452.90445,327.87093 -454.11686,324.83718 -446.78689,319.6192 C -446.57106,319.75235 -446.34907,319.81042 -446.2307,319.82777 C -440.01395,318.70951 -436.35205,316.3555 -435.38493,312.94488 C -435.30145,312.55112 -435.211,312.17408 -435.24588,311.76297 C -435.07179,312.09297 -434.98199,312.44689 -434.82874,312.87536 C -434.82873,312.87536 -434.87738,312.84643 -434.89826,312.94488 C -433.35192,317.73911 -431.55686,319.74076 -429.47538,319.13253 C -426.64317,311.52943 -422.73767,306.4665 -417.86484,303.62864 C -420.3208,312.91088 -418.34651,318.40432 -412.02482,320.24492 C -409.93018,314.96965 -407.7798,310.51565 -405.21145,307.03533 C -405.14885,306.74003 -405.00306,306.69927 -404.86383,306.61818 C -401.5299,301.82918 -397.79873,298.59347 -393.53139,296.8848 C -394.07369,301.16973 -396.39069,305.27575 -400.62285,309.12105 C -393.91181,307.9738 -388.04524,305.50422 -382.96372,301.68197 C -379.12833,297.9815 -376.69969,293.58544 -376.0113,288.61142 C -375.23093,288.50626 -374.60585,288.3691 -373.85605,288.2638 C -370.25536,297.23983 -371.06196,305.75541 -376.35892,313.5706 L -359.81217,300.50006 C -358.61218,308.30004 -359.71887,314.05061 -363.21886,317.95062 C -357.11886,318.55062 -352.56164,314.85723 -349.66165,306.75723 C -349.36164,306.05723 -349.16641,305.44103 -348.96641,304.74103 C -350.5664,312.04104 -348.99971,317.14492 -344.09971,320.24492 C -334.19972,324.8449 -323.79194,327.96973 -313.09194,329.76973 C -311.59193,330.06971 -310.21193,330.49069 -308.71192,331.09068 C -307.71191,331.49068 -306.58332,331.88117 -305.58333,332.48117 C -304.38333,333.08117 -303.27564,333.69736 -302.17665,334.49737 C -297.27665,337.69735 -293.12325,342.29362 -289.52325,348.19363 C -289.72324,348.29363 -289.6623,348.27172 -289.6623,348.47172 C -291.76231,352.37173 -293.11659,356.59564 -293.4166,361.19464 C -293.61661,361.89465 -293.55565,362.68893 -293.55565,363.48894 C -293.65566,366.28893 -293.45941,369.14899 -292.86041,372.24898 C -291.06039,376.44898 -290.3757,380.35953 -290.77469,383.85952 C -291.17468,387.1595 -292.57662,390.16717 -294.87661,392.96718 C -295.07662,393.16719 -295.27086,393.50146 -295.57185,393.80147 C -303.37184,400.60247 -309.26146,407.26349 -313.16147,413.96348 C -317.26146,421.66348 -319.77006,429.37597 -320.67007,436.97597 C -321.27007,444.87597 -321.57389,451.49035 -321.57389,456.79036 C -321.57389,459.69035 -322.60247,462.06091 -324.70248,464.15992 C -326.80248,466.1599 -329.99681,467.64852 -334.29681,468.74851 C -338.19679,469.7485 -341.65591,469.7485 -344.65591,468.74851 C -348.05592,467.44851 -350.51689,465.36087 -351.8169,462.56086 C -352.31689,461.56087 -352.55975,460.56275 -352.85976,459.36275 C -353.85977,453.96274 -351.77211,448.77977 -346.67211,443.58077 C -352.1721,444.68076 -356.6598,447.19896 -360.15979,451.29795 C -362.55979,456.39898 -363.26742,461.14084 -361.96742,465.34183 C -361.86742,465.84183 -361.68076,466.30184 -361.48075,466.80184 C -359.38077,472.20183 -356.16453,476.04285 -352.16452,478.34285 C -344.36451,481.24184 -336.48725,481.65522 -328.38726,479.45523 C -328.28727,479.35523 -328.07011,479.38571 -327.97011,479.38571 C -323.8701,477.18572 -320.48055,474.74563 -317.68054,471.94662 C -317.48055,471.74662 -317.25483,471.59144 -317.05482,471.39043 C -316.85481,471.19045 -316.76816,471.00377 -316.56815,470.90376 C -315.26815,469.30275 -314.09193,467.66754 -313.09194,465.96755 C -315.39193,472.66756 -316.87196,478.86097 -317.47196,484.46097 C -317.47196,484.56198 -317.47196,484.57054 -317.47196,484.66955 C -313.97195,480.46953 -310.51187,477.68761 -307.11286,476.1876 C -305.21286,485.48759 -304.87957,492.64865 -306.27857,497.94866 C -308.17857,504.54965 -310.60051,509.4011 -313.30051,512.20111 C -312.10052,512.4011 -310.88526,512.25348 -309.68526,511.85349 C -309.58525,511.85351 -309.61573,511.85349 -309.61573,511.85349 C -305.91574,510.75249 -302.22235,507.56015 -298.42234,502.25916 C -294.92235,497.65915 -293.2166,492.14289 -293.4166,485.64288 C -293.61661,482.04289 -294.00808,479.03522 -294.80709,476.53522 C -295.1081,475.73423 -295.41189,475.05049 -295.7109,474.44949 C -295.21091,475.05049 -294.68137,475.79617 -294.18137,476.39617 C -289.78137,481.79518 -284.68606,484.49145 -278.88606,484.39145 L -277.91272,484.18288 L -273.2546,483.14001 L -267.55362,481.47143 C -269.85363,482.67143 -272.79429,482.94257 -276.10509,483.83526 C -276.66542,483.98632 -277.28478,484.13598 -277.91272,484.18288 C -272.11273,495.68288 -260.59068,502.46203 -243.28969,504.76203 C -252.18971,516.96204 -258.11077,529.23931 -260.80978,541.54031 C -262.80976,548.73929 -264.25933,556.25656 -265.25932,563.85756 C -265.95932,564.75655 -266.7622,565.5919 -267.76219,566.2909 C -268.36321,566.59189 -269.07939,566.96423 -269.77839,567.26424 C -271.67839,568.06527 -274.06985,568.66229 -276.86986,568.8633 C -279.96985,568.66331 -282.68328,567.26137 -285.28228,564.76137 C -288.48226,564.26136 -292.11947,564.26138 -295.91947,564.76137 C -297.91948,565.56236 -298.6052,566.9623 -298.0052,568.8633 L -297.86615,568.8633 C -295.56616,569.5633 -293.8604,571.27662 -292.86041,574.07761 C -292.36042,576.87762 -292.55566,579.57289 -293.55565,582.07289 C -293.65566,582.27187 -293.80227,582.46812 -293.90327,582.76813 C -295.20325,586.76814 -295.05566,590.34437 -293.55565,593.54437 C -285.75466,592.04437 -281.56422,587.93859 -280.76321,581.2386 C -279.96322,585.0396 -278.25747,587.1643 -275.75747,587.5653 C -275.55849,587.56527 -275.60986,587.5653 -275.40985,587.5653 L -275.2708,587.84339 L -275.89652,588.05197 C -278.29551,590.15197 -278.90414,592.27765 -277.70415,594.37866 L -277.5651,594.58724 C -276.26409,593.98628 -275.1118,593.49576 -273.81079,593.19675 C -271.41178,592.49677 -269.12033,592.19294 -266.71933,592.29294 C -263.91934,594.09398 -261.78405,596.07301 -260.18406,598.27202 C -260.08405,598.27199 -260.11453,598.38159 -260.11453,598.48059 C -259.11454,599.78061 -258.42124,601.29108 -257.82024,602.79109 L -257.26404,603.13871 C -250.66405,601.93873 -248.31162,599.28249 -250.31163,595.28248 C -250.41261,595.08345 -250.48872,594.99582 -250.58972,594.79581 L -243.08112,589.99864 L -242.59445,590.55484 C -242.49344,590.85482 -242.2763,591.19771 -242.1773,591.5977 C -241.17729,593.49672 -239.60204,594.89962 -237.10204,595.69962 C -232.80104,594.09963 -229.88205,592.13769 -228.48104,590.13769 C -229.08204,587.03771 -228.10107,584.37288 -225.70008,582.07289 C -223.3001,580.47187 -220.79147,579.6015 -218.19147,579.50049 C -216.59148,579.60145 -214.89431,580.48146 -213.3943,582.28146 C -213.2933,582.28146 -213.28473,582.24242 -213.18573,582.14241 C -211.18572,581.74242 -210.31332,580.9005 -210.61333,579.50049 C -210.31232,577.00047 -210.57809,574.49189 -211.3781,571.99189 C -211.57809,571.7919 -211.55619,571.56718 -211.6562,571.36617 C -212.05619,570.06617 -212.66382,568.88139 -213.46383,567.68139 C -213.66383,567.28137 -213.85906,566.93854 -214.15907,566.63853 C -213.95906,566.73855 -213.80288,566.88614 -213.60287,566.98615 C -212.70286,567.58715 -211.79044,568.04716 -210.89143,568.44615 C -210.59142,568.64614 -210.10951,568.90234 -209.70952,569.00235 C -206.60952,570.30237 -200.95419,569.7814 -192.9542,567.68139 C -199.85418,565.78139 -203.91993,562.94707 -205.12093,559.54706 C -206.81994,555.74604 -207.46659,551.8889 -207.0676,547.58891 C -207.0676,547.08889 -207.0676,546.55081 -207.0676,545.8508 C -207.16761,545.0508 -207.25328,544.2784 -207.55427,543.27841 C -206.65426,543.87941 -205.92093,544.53465 -205.12093,545.43366 C -202.22093,548.63364 -199.68185,553.27754 -197.68184,559.47754 C -193.58183,553.27754 -192.31896,546.88886 -193.71896,540.28887 C -189.21896,542.38988 -184.66176,542.94888 -180.16175,541.74888 C -174.96175,539.64889 -171.38551,537.27831 -169.38551,534.37932 C -172.48551,534.77831 -175.29793,534.99747 -177.79793,534.79646 C -177.89894,534.79644 -177.9075,534.79646 -178.00651,534.79646 C -182.2065,534.39745 -185.78275,533.07364 -188.78275,530.97263 C -189.08374,530.77265 -189.27798,530.54792 -189.47799,530.34692 C -189.47799,530.34692 -189.61704,530.23735 -189.61704,530.13834 L -189.68656,530.13834 C -190.68655,529.23833 -191.55896,528.35737 -192.25896,527.35738 C -194.55995,524.45736 -195.69512,521.1459 -195.59612,517.3459 L -195.31802,516.78971 C -188.41902,518.48972 -182.51984,523.36031 -177.51984,531.4593 C -174.51982,524.85929 -179.4189,515.87535 -192.11991,504.27536 C -186.8189,505.27535 -183.00937,507.03728 -180.50938,509.83729 C -178.40937,507.73628 -177.99698,505.2753 -179.39699,502.6763 C -181.69698,496.77629 -185.7723,492.60099 -191.77229,490.301 C -185.67227,492.50099 -179.77411,494.17527 -173.9741,495.37627 C -172.27411,495.67628 -170.56936,495.98107 -168.96837,496.28008 C -159.46838,496.28008 -153.6959,493.24193 -151.7959,487.24194 C -154.29592,488.14193 -156.68637,488.75814 -158.88736,489.25814 C -159.08737,489.25812 -159.20551,489.25814 -159.30451,489.25814 C -159.40549,489.35912 -159.51308,489.39719 -159.51308,489.39719 C -164.71309,490.29617 -168.79595,489.99338 -172.09695,488.49337 C -172.29594,488.29339 -172.52166,488.17523 -172.72267,488.07623 C -178.52268,485.27522 -182.29415,481.20092 -184.19416,475.70093 C -180.39415,472.90094 -176.21029,472.25424 -171.61028,473.75425 C -166.00928,476.25425 -162.16928,479.77431 -160.06927,483.9743 C -157.46827,477.37431 -159.59598,471.4847 -166.39597,466.38469 C -166.89597,466.18471 -167.38746,465.98946 -167.78645,465.68945 C -175.48646,462.08946 -183.66753,461.64659 -192.46753,464.64659 C -183.46752,460.84659 -176.65789,455.98557 -171.9579,450.18556 C -170.35789,446.58555 -170.7693,443.43885 -173.07029,440.93885 C -178.17029,447.03985 -185.69612,451.05897 -195.59612,452.75796 C -201.69613,452.85896 -206.90001,451.78175 -211.1,449.28175 C -202.799,447.18176 -198.39041,442.36077 -197.89041,434.95977 C -198.19042,435.25976 -198.45517,435.56458 -198.65518,435.86359 C -198.95519,436.1636 -199.25898,436.39787 -199.55899,436.69788 C -203.359,440.19789 -207.95524,441.84266 -213.25525,441.84266 C -213.35626,441.84264 -213.50187,441.84266 -213.60287,441.84266 C -213.90288,441.84264 -214.20768,441.84266 -214.50669,441.84266 C -215.70671,441.74164 -217.062,441.65601 -218.26099,441.356 C -224.862,437.85598 -228.58485,432.99497 -229.38486,426.89497 C -225.48485,431.69496 -220.27997,434.17309 -213.88097,434.4731 C -210.08099,433.97311 -207.45523,432.64928 -205.95522,430.64928 C -205.65521,430.24926 -205.39046,429.79783 -205.19045,429.39784 C -207.69045,429.59785 -210.08193,429.4026 -212.28191,428.7026 C -220.7819,426.00259 -228.06588,416.35008 -233.76488,399.85007 C -233.75983,399.86627 -233.69535,399.83341 -233.69535,399.85007 C -228.79536,407.85009 -222.85813,411.2996 -215.75812,410.0006 C -219.15811,406.3006 -221.86297,401.5882 -223.96197,395.8872 C -226.06298,390.08719 -227.40294,383.35567 -228.20295,375.65567 C -228.40295,373.35565 -228.62009,370.85563 -228.62009,368.35563 L -228.62009,363.34989 C -227.81911,364.1499 -227.01623,365.05276 -226.11722,365.85276 C -225.11721,366.95278 -223.88106,367.98136 -222.78006,368.98135 C -212.58106,377.28035 -199.91131,381.19188 -184.6113,380.59188 C -184.51032,380.59191 -184.29316,380.59188 -184.19416,380.59188 C -183.99417,380.59191 -183.76845,380.59188 -183.56844,380.59188 C -183.36843,380.59191 -183.28077,380.59188 -183.08177,380.59188 C -182.98079,380.59191 -182.79411,380.59188 -182.5951,380.59188 C -164.3951,380.89189 -148.31386,374.95364 -134.41486,362.65465 C -118.51485,348.85467 -110.49099,328.06958 -110.28998,300.56958 C -109.69,295.66958 -107.96609,293.06573 -104.86709,292.36573 C -102.4671,291.86573 -99.164183,292.7467 -95.06419,295.1467 C -93.463177,288.54668 -97.000383,284.88377 -105.70138,283.88378 L -105.77091,283.88378 C -105.97089,283.8838 -106.05857,283.88378 -106.25758,283.88378 C -106.05859,283.7838 -105.97091,283.74473 -105.77091,283.74473 C -92.670891,269.34473 -87.823222,259.24077 -90.823217,253.64077 C -92.823221,249.04077 -95.987073,246.06358 -100.48707,244.46359 C -94.287055,251.36359 -96.756643,257.47891 -107.85663,262.67891 C -117.95663,266.07892 -124.18911,274.17332 -126.48911,286.87332 C -129.28912,276.3733 -133.17773,268.357 -138.37774,262.95701 C -144.67774,256.65701 -151.05783,247.18259 -157.35783,234.38258 C -160.75682,225.78259 -162.46357,217.84438 -162.36357,210.74437 C -162.26257,208.84437 -162.17691,207.23863 -161.8769,205.73863 C -161.8769,205.63862 -161.8769,205.59958 -161.8769,205.59958 C -160.97689,201.09958 -158.88925,197.79668 -155.68925,195.79668 C -151.48926,192.99668 -146.51108,192.8881 -140.81108,195.5881 C -138.61209,197.9881 -138.79775,200.26242 -141.29775,202.26242 C -135.49775,201.66242 -133.32243,199.30143 -134.62343,195.10143 C -135.32243,194.00143 -136.08824,192.94237 -136.98725,192.04237 C -141.68724,187.14238 -148.7216,185.79283 -158.1226,187.59283 C -158.3216,187.69282 -158.47778,187.8014 -158.67879,187.8014 C -158.97878,187.9014 -159.28259,187.94902 -159.5826,188.14902 C -165.48161,190.64901 -168.98932,195.63576 -170.28932,203.23576 C -174.46355,187.07341 -175.96585,169.85122 -174.66935,151.30122 C -173.86936,141.20122 -169.68548,131.19726 -162.08547,121.19726 C -152.48449,111.89726 -144.39108,107.27052 -137.89107,107.57052 C -131.39106,107.77052 -125.18906,109.85817 -119.18907,113.75817 C -113.28906,117.75817 -110.67188,124.75447 -111.47189,134.75447 C -112.27187,141.15447 -116.29099,146.17169 -123.29099,149.77168 C -123.59198,149.87168 -123.8958,150.05835 -124.19481,150.25835 C -125.29483,150.75836 -126.66626,151.35741 -128.36626,151.85741 C -129.06624,152.05741 -129.79002,152.28313 -130.59103,152.48313 C -133.69103,153.38312 -136.77679,152.28502 -139.97679,149.28502 C -141.97677,146.78502 -142.50631,142.95258 -141.50632,137.95258 C -147.80632,144.95257 -148.1187,151.34982 -142.61871,157.34982 C -138.21873,162.24982 -132.48429,163.16983 -125.58529,160.26983 C -133.28528,170.56983 -129.75667,176.53754 -115.15667,178.13754 C -113.65666,178.23754 -112.08997,178.48516 -110.28998,178.48516 C -121.28997,177.08515 -124.09483,173.43939 -118.49383,167.63939 C -117.69384,166.73939 -116.56624,165.7889 -115.36524,164.7889 C -114.46523,164.08891 -113.4757,163.26413 -112.3757,162.56413 C -95.175718,151.06413 -88.816516,136.16009 -93.117514,117.8601 C -97.016513,106.5601 -104.46423,97.858062 -115.36524,91.858062 C -117.26422,90.858058 -119.20527,89.877096 -121.20527,89.077096 C -118.90528,89.077094 -116.47476,89.294241 -113.97476,89.494241 C -108.27476,89.694237 -103.37469,87.79326 -99.374683,83.79326 C -92.674695,76.493264 -88.578487,68.281707 -87.277485,59.181709 C -86.977474,53.081708 -88.419461,46.988282 -91.518458,40.688283 C -91.518436,40.588282 -91.587982,40.440662 -91.587982,40.340663 C -91.986973,39.840663 -92.370902,39.241607 -92.769893,38.741607 C -92.9699,38.541604 -93.088036,38.354937 -93.187038,38.254938 C -93.688035,37.654939 -94.077526,37.194932 -94.577521,36.794931 C -96.377523,34.994934 -98.612793,33.545385 -101.11279,32.345385 C -101.31179,32.245388 -101.46797,32.136812 -101.66898,32.136812 C -103.76899,31.13681 -106.1214,30.481563 -108.6214,29.981563 C -109.2214,29.919063 -109.76887,29.852086 -110.3595,29.842515 z "
       id="path3413" />
    <path
       d="M -242.3896,80.8689 C -243.3896,76.4689 -246.1896,72.4689 -250.9896,68.7689 C -243.6896,67.8689 -239.6896,65.4689 -239.1896,61.3689 C -242.6896,63.1689 -246.2896,63.6689 -249.8896,62.9689 C -252.9896,57.1689 -257.7886,52.7689 -264.2886,49.7689 C -268.0896,48.5689 -272.0896,48.2689 -276.2886,48.9689 C -276.9886,49.0689 -277.6886,49.2689 -278.5896,49.3689 C -277.6896,49.2689 -276.9886,49.0689 -276.2886,48.9689 C -270.4886,47.4689 -268.0896,43.2689 -269.0896,36.1689 C -269.8896,28.4689 -275.0896,22.9689 -284.2886,19.6689 C -287.8896,18.6689 -290.7886,19.0689 -292.8896,20.7689 C -288.2886,21.2689 -285.3896,22.3689 -284.1896,23.9689 C -283.7896,24.4689 -283.4896,24.9689 -283.1896,25.5689 C -281.7896,28.3689 -281.7896,31.0689 -283.0896,33.3689 C -285.5896,36.2689 -289.8896,38.5689 -296.1896,40.5689 C -302.7896,43.4689 -312.8896,45.4689 -326.4896,46.5689 C -326.8896,46.5689 -327.1896,46.6689 -327.5896,46.6689 L -327.6896,46.6689 C -348.9896,49.5689 -364.9896,53.4689 -375.4896,58.3689 C -378.0896,59.5689 -380.3896,60.8689 -382.3896,62.2689 C -382.0896,65.9689 -380.5896,68.1689 -377.7896,68.7689 L -377.6896,68.9689 L -372.7896,66.0689 L -372.7896,63.7689 L -372.7896,66.0689 L -377.6896,68.9689 L -377.7896,69.0689 C -378.2896,72.3689 -378.2896,75.3689 -377.8896,77.9689 C -373.5896,86.3689 -367.2896,92.2689 -358.6896,95.7689 C -358.6896,95.7689 -358.5896,95.7689 -358.5896,95.8689 C -358.4896,95.8689 -358.3896,95.8689 -358.3896,95.9689 C -354.4896,95.8689 -350.8896,95.8689 -347.5896,96.0689 C -343.0896,96.3689 -338.9896,96.7689 -335.4896,97.5689 C -335.3896,97.5689 -335.3896,97.5689 -335.3896,97.5689 C -331.7896,98.2689 -328.7896,99.2689 -326.0896,100.4689 C -321.2896,102.6689 -317.3896,105.1689 -314.2896,107.8689 C -312.8896,109.2689 -311.5896,110.6689 -310.4896,112.1689 C -307.0906,117.4689 -307.0906,121.8689 -310.4896,125.2689 C -310.5896,125.3689 -310.7896,125.5689 -310.8896,125.6689 C -312.7896,127.2689 -316.0896,128.1689 -320.6896,128.3689 C -329.3896,128.2689 -336.4896,127.1689 -341.7896,125.1689 C -342.4896,124.9689 -343.2896,124.6689 -343.9896,124.4689 C -347.7896,123.3689 -352.1896,122.9689 -357.1896,123.1689 C -358.7896,123.1689 -360.4896,123.3689 -362.1896,123.5689 C -364.6896,126.1689 -364.5896,128.8689 -361.9896,131.5689 C -364.9896,136.9689 -370.5896,138.3689 -378.6896,135.8689 C -375.6896,141.0689 -371.9896,143.4689 -367.3896,143.1689 C -363.2896,142.7689 -358.9896,141.1689 -354.7896,138.2689 C -354.4896,138.0689 -354.2896,137.8689 -353.9896,137.6689 C -354.2896,137.9689 -354.4896,138.1689 -354.5896,138.3689 C -358.7896,142.7689 -361.4896,146.6689 -362.6896,149.9689 C -362.7896,150.0689 -362.7896,150.1689 -362.7896,150.1689 C -362.7896,150.2689 -362.7896,150.2689 -362.7896,150.3689 C -363.3896,152.1689 -363.5896,153.7689 -363.2896,155.2689 C -362.7896,153.6689 -361.9896,152.1689 -360.8896,150.7689 C -357.3896,146.7689 -350.9896,144.1689 -341.5896,143.1689 C -342.0896,146.8689 -345.0896,150.7689 -350.6896,154.6689 C -339.7896,153.1689 -332.3896,149.4689 -328.4896,143.5689 C -327.5896,149.2689 -324.3896,152.3689 -318.9896,152.7689 C -320.6896,148.3689 -320.1896,144.7689 -317.3896,142.0689 C -313.4896,149.5689 -306.6896,154.0689 -297.0896,155.6689 C -302.0896,151.6689 -304.3896,146.3689 -303.8896,139.8689 C -299.6896,143.8689 -296.1896,145.7689 -293.1896,145.4689 C -293.7896,139.8689 -292.0896,134.8689 -287.9896,130.3689 C -286.6896,135.4689 -280.9896,138.3689 -270.7896,139.0689 C -278.2896,132.5689 -281.6896,125.8689 -281.0906,118.9689 C -280.5906,112.0689 -279.5906,106.7689 -277.9896,102.8689 C -273.8896,103.3689 -271.0906,106.7689 -269.5906,113.0689 C -268.3906,101.9689 -272.8906,94.5689 -282.7896,90.8689 C -279.8906,91.5689 -277.0906,91.9689 -274.2896,92.0689 C -272.5906,92.0689 -270.8906,91.9689 -269.1896,91.7689 C -263.3896,90.9689 -260.3896,86.0689 -260.2896,77.0689 C -260.1896,75.2689 -260.3906,73.6689 -260.6896,72.2689 C -260.6896,72.1689 -260.6896,72.1689 -260.6896,72.1689 C -261.6896,68.0689 -264.0896,65.2689 -267.8896,63.9689 C -268.0896,63.8689 -268.2886,63.7689 -268.4896,63.7689 C -268.5906,63.6689 -268.6896,63.6689 -268.7896,63.6689 L -268.8896,63.6689 C -269.5896,63.3689 -270.3896,63.1689 -271.1896,63.0689 C -271.9896,62.8689 -272.7896,62.8689 -273.5896,62.7689 C -278.3896,62.8689 -281.5896,64.2689 -283.2886,66.9689 C -281.5896,64.2689 -278.3896,62.8689 -273.5896,62.7689 C -272.7886,62.8689 -271.9886,62.8689 -271.1896,63.0689 C -270.3896,63.1689 -269.5896,63.3689 -268.8896,63.6689 L -268.7886,63.6689 C -268.6886,63.6689 -268.5896,63.6689 -268.4886,63.7689 C -268.2886,63.7689 -268.0896,63.8689 -267.8886,63.9689 C -264.0886,65.2689 -261.6886,68.0689 -260.6886,72.1689 C -260.6886,72.1689 -260.6886,72.1689 -260.6886,72.2689 C -260.3886,73.6689 -260.1886,75.2689 -260.2886,77.0689 C -260.3896,86.0689 -263.3896,90.9689 -269.1886,91.7689 C -270.8886,91.9689 -272.5886,92.0689 -274.2886,92.0689 C -277.0896,91.9689 -279.8896,91.5689 -282.7886,90.8689 C -272.8896,94.5689 -268.3896,101.9689 -269.5896,113.0689 C -271.0896,106.7689 -273.8896,103.3689 -277.9886,102.8689 C -279.5896,106.7689 -280.5896,112.0689 -281.0896,118.9689 C -281.6896,125.8689 -278.2886,132.5689 -270.7886,139.0689 C -280.9886,138.3689 -286.6886,135.4689 -287.9886,130.3689 C -292.0896,134.8689 -293.7886,139.8689 -293.1886,145.4689 C -296.1886,145.7689 -299.6886,143.8689 -303.8886,139.8689 C -304.3886,146.3689 -302.0886,151.6689 -297.0886,155.6689 C -306.6886,154.0689 -313.4876,149.5689 -317.3886,142.0689 C -320.1886,144.7689 -320.6886,148.3689 -318.9886,152.7689 C -324.3886,152.3689 -327.5886,149.2689 -328.4886,143.5689 C -332.3886,149.4689 -339.7886,153.1689 -350.6886,154.6689 C -345.0886,150.7689 -342.0886,146.8689 -341.5886,143.1689 C -350.9886,144.1689 -357.3886,146.7689 -360.8886,150.7689 C -357.5886,152.5689 -355.7886,154.4689 -355.4886,156.3689 C -355.2886,158.6689 -356.3886,160.0689 -358.6886,160.5689 C -360.5886,159.8689 -362.4886,159.3689 -364.3886,158.9689 C -371.2886,157.3689 -378.1886,157.0689 -385.0886,158.2689 C -385.1886,158.2689 -385.3886,158.2689 -385.4886,158.2689 C -386.0886,158.3689 -386.5886,158.4689 -387.0886,158.5689 C -393.5886,155.8689 -397.0886,151.1689 -397.2886,144.5689 C -403.1886,147.1689 -405.6886,151.0689 -405.0886,156.1689 C -401.3886,164.3689 -394.2886,168.5689 -383.9886,168.8689 C -383.6886,168.8689 -383.3886,168.8689 -383.1886,168.8689 C -383.3886,168.8689 -383.6886,168.8689 -383.9886,168.9689 C -397.9886,171.2689 -406.6886,177.3689 -410.0886,187.2689 C -413.9886,193.7689 -419.6886,193.1689 -427.0886,185.2689 C -426.5886,186.3689 -425.9886,187.4689 -425.4886,188.5689 C -423.5886,191.9689 -421.3886,195.1689 -419.0886,197.9689 C -418.9886,198.0689 -418.9886,198.0689 -418.9886,198.1689 C -415.8886,201.7689 -412.3886,204.7689 -408.3886,207.2689 C -408.4886,202.2689 -406.8886,198.2689 -403.4886,195.3689 C -402.8886,194.6689 -402.0886,194.1689 -401.1886,193.5689 C -402.0886,194.1689 -402.8886,194.6689 -403.4886,195.3689 C -406.8886,198.2689 -408.4886,202.2689 -408.3886,207.2689 C -408.8886,212.6689 -411.1886,216.7689 -415.4886,219.4689 C -419.8886,222.1689 -423.5886,221.9689 -426.7886,218.9689 C -427.1886,218.6689 -427.4886,218.2689 -427.7886,217.8689 C -428.7886,216.4689 -428.9886,214.8689 -428.2886,213.2689 C -418.2249,205.14611 -430.47619,207.79149 -432.0886,211.8689 C -432.9886,212.9689 -433.6886,214.2689 -434.1886,215.9689 C -434.5886,218.4689 -434.6886,220.7689 -434.1886,222.7689 C -433.5886,225.7689 -431.9886,228.0689 -429.3886,229.6689 C -428.3886,230.2689 -427.2886,230.8689 -426.0886,231.2689 C -424.3886,231.8689 -422.7886,232.2689 -421.2886,232.6689 C -420.9886,232.6689 -420.6886,232.7689 -420.3886,232.7689 C -419.5886,232.9689 -418.7886,233.0689 -417.9886,233.1689 C -416.1886,233.2689 -414.3886,233.2689 -412.6886,233.0689 C -411.2886,232.7689 -409.9886,232.4689 -408.6886,232.0689 C -408.4886,231.8689 -408.1886,231.7689 -407.9886,231.6689 C -407.2886,231.3689 -406.5886,231.0689 -405.8886,230.7689 C -404.1886,229.7689 -402.4886,228.5689 -400.8886,226.9689 C -398.7886,224.7689 -396.8886,222.1689 -395.2886,218.9689 C -393.1886,214.3689 -390.3886,211.2689 -387.0886,209.9689 C -390.3886,211.2689 -393.1886,214.3689 -395.2886,218.9689 C -396.8886,222.1689 -398.7886,224.7689 -400.8886,226.9689 C -402.4886,228.5689 -404.1886,229.7689 -405.8886,230.7689 C -406.5886,231.0689 -407.2886,231.3689 -407.9886,231.6689 L -408.8886,232.3689 C -410.1886,233.0689 -411.3886,233.4689 -412.4886,233.6689 C -412.7886,233.7689 -412.9886,233.7689 -413.1886,233.7689 C -414.7886,234.0689 -416.3886,233.7689 -417.9886,233.1689 C -418.7886,233.0689 -419.5886,232.9689 -420.3886,232.7689 C -420.6886,232.7689 -420.9886,232.6689 -421.2886,232.6689 C -421.1886,232.7689 -421.0886,233.0689 -421.0886,233.1689 C -420.8886,233.4689 -420.7886,233.7689 -420.5886,234.0689 C -420.4886,234.2689 -420.3886,234.5689 -420.2886,234.6689 C -420.2886,234.7689 -420.1886,234.8689 -420.0886,235.0689 C -417.8886,238.9689 -414.5886,241.3689 -410.4886,242.4689 C -407.9886,240.4689 -405.2886,238.6689 -402.3886,237.2689 C -399.7886,235.9689 -397.0886,234.8689 -394.2886,234.0689 C -385.7886,231.6689 -380.4886,226.8689 -378.4886,219.5689 C -380.4886,226.8689 -385.7886,231.6689 -394.2886,234.0689 C -397.0886,234.8689 -399.7886,235.9689 -402.3886,237.2689 C -405.2886,238.6689 -407.9886,240.4689 -410.4886,242.4689 C -413.4886,244.8689 -416.2886,247.7689 -418.8886,251.0689 C -419.7886,252.1689 -420.5886,253.3689 -421.4886,254.6689 C -423.0886,258.7689 -422.3886,261.8689 -419.3886,264.0689 C -415.6886,259.6689 -411.0886,256.4689 -405.7886,254.3689 C -402.9886,253.2689 -399.8886,252.5689 -396.4886,252.0689 L -396.3886,252.0689 C -390.2886,252.1689 -384.9886,251.0689 -380.5886,248.5689 L -370.0886,241.2689 C -370.9886,243.3689 -371.6886,245.3689 -372.1886,247.2689 C -372.2886,247.3689 -372.2886,247.4689 -372.2886,247.5689 C -374.1886,254.0689 -373.8886,259.4689 -371.5886,263.6689 C -367.2886,270.2689 -361.3886,274.3689 -354.0886,276.0689 C -354.1886,275.9689 -354.2886,275.8689 -354.2886,275.7689 C -355.4886,274.6689 -356.4886,273.5689 -357.2886,272.3689 C -357.4886,272.1689 -357.5886,272.0689 -357.6886,271.8689 C -359.9886,268.6689 -361.4886,265.2689 -362.1886,261.4689 C -361.1886,253.8689 -356.1886,248.5689 -347.2886,245.2689 C -346.9886,245.0689 -346.5886,245.0689 -346.1886,244.8689 C -346.5886,245.0689 -346.9886,245.0689 -347.2886,245.2689 C -348.3886,246.1689 -349.3886,247.1689 -350.2886,248.1689 C -355.3886,253.8689 -356.9886,259.5689 -355.2886,265.1689 C -355.1886,265.3689 -355.0886,265.5689 -354.9886,265.8689 C -354.4886,267.0689 -353.9886,268.0689 -353.2886,268.8689 C -351.2886,271.4689 -348.3886,272.4689 -344.4886,271.9689 C -349.6886,265.4689 -349.5886,259.3689 -344.1886,253.6689 C -343.2886,252.5689 -342.2886,251.4689 -341.1886,250.5689 C -338.5886,248.3689 -335.3886,246.8689 -331.6886,246.0689 C -330.7886,250.2689 -331.4886,254.5689 -333.8886,258.7689 C -334.8886,260.5689 -336.1886,262.2689 -337.7886,264.0689 C -335.4886,263.2689 -333.1886,262.4689 -330.9886,261.5689 C -322.1886,257.5689 -315.2886,251.3689 -310.2886,243.0689 L -310.3886,242.5689 C -310.4886,242.5689 -310.4886,242.5689 -310.5886,242.6689 C -314.3886,244.0689 -318.2886,244.3689 -322.0886,243.9689 L -322.1896,243.9689 C -322.1896,243.8689 -322.1896,243.8689 -322.0896,243.8689 L -322.0896,243.8689 C -319.5896,242.0689 -317.5896,239.9689 -315.9896,237.7689 C -315.6896,237.5689 -315.4896,237.1689 -315.2896,236.8689 C -314.4896,235.6689 -313.7896,234.4689 -313.1896,233.1689 C -312.1896,230.9689 -311.4896,228.5689 -311.0896,225.9689 C -311.4896,228.5689 -312.1896,230.9689 -313.1896,233.1689 C -313.7896,234.4689 -314.4896,235.6689 -315.2896,236.8689 C -315.4896,237.1689 -315.6896,237.5689 -315.9896,237.7689 C -317.5896,239.9689 -319.5896,242.0689 -322.0896,243.8689 L -322.0896,243.8689 C -322.1896,243.8689 -322.1896,243.8689 -322.1896,243.9689 L -322.0896,243.9689 C -318.2896,244.3689 -314.3896,244.0689 -310.5896,242.6689 C -310.4896,242.5689 -310.4896,242.5689 -310.3896,242.5689 C -310.2896,242.5689 -310.0896,242.5689 -309.9896,242.4689 C -307.4896,241.5689 -304.9896,240.2689 -302.5906,238.5689 C -302.8906,236.0689 -302.9896,233.6689 -302.7896,231.4689 C -302.2896,225.3689 -299.8906,220.0689 -295.5906,215.6689 C -299.8906,220.0689 -302.2896,225.3689 -302.7896,231.4689 C -302.9896,233.6689 -302.8906,236.0689 -302.5906,238.5689 C -300.6906,244.3689 -297.7896,248.7689 -294.0906,251.8689 C -290.3906,254.8689 -285.8906,256.6689 -280.5906,257.2689 C -275.6906,257.4689 -271.5906,256.6689 -268.0906,254.7689 C -267.7896,254.6689 -267.5906,254.5689 -267.2896,254.3689 L -267.1896,254.3689 C -267.0896,254.2689 -266.8896,254.1689 -266.6896,254.0689 C -266.2896,253.7689 -266.0896,253.5689 -265.6896,253.3689 C -266.2896,253.2689 -266.7896,253.1689 -267.2896,253.0689 C -273.3906,252.0689 -278.7896,248.8689 -283.3906,243.7689 C -285.8906,240.2689 -285.6906,236.8689 -282.7896,233.5689 L -282.7896,233.5689 L -282.7896,233.4689 C -281.1896,231.5689 -279.8906,229.3689 -278.7896,227.2689 C -276.8906,223.6689 -275.6896,219.8689 -275.0906,215.8689 C -275.6906,219.8689 -276.8906,223.6689 -278.7896,227.2689 C -279.8906,229.3689 -281.1896,231.5689 -282.7896,233.4689 L -282.7896,233.5689 C -276.1896,231.9689 -271.1896,229.2689 -267.7896,225.3689 C -267.5906,225.0689 -267.1896,224.7689 -266.9896,224.3689 C -266.8896,224.3689 -266.8896,224.3689 -266.8896,224.2689 C -266.6896,224.0689 -266.4896,223.7689 -266.2886,223.4689 C -266.2886,223.4689 -266.2886,223.4689 -266.1886,223.3689 L -266.2886,223.3689 C -266.1886,223.2689 -266.0896,223.1689 -266.0896,223.1689 C -263.6896,219.8689 -262.2886,216.3689 -261.7886,212.6689 C -261.7886,212.1689 -261.6886,211.6689 -261.6886,211.1689 C -261.6886,210.9689 -261.6886,210.7689 -261.5886,210.5689 L -261.5886,210.4689 C -261.5886,210.2689 -261.5886,210.0689 -261.5886,209.9689 C -261.5886,208.8689 -261.6886,207.7689 -261.7876,206.6689 C -261.8886,206.5689 -261.8886,206.5689 -261.7876,206.5689 C -262.0886,205.0689 -262.3886,203.4689 -262.8886,201.9689 C -262.3886,203.4689 -262.0886,205.0689 -261.7876,206.5689 C -261.8886,206.5689 -261.8886,206.5689 -261.7876,206.6689 C -261.6876,207.7689 -261.5886,208.8689 -261.5886,209.9689 C -261.5886,210.0689 -261.5886,210.2689 -261.5886,210.4689 L -261.5886,210.5689 C -261.6886,210.7689 -261.6886,210.9689 -261.6886,211.1689 C -261.6886,211.6689 -261.7886,212.1689 -261.7886,212.6689 C -262.2886,216.3689 -263.6886,219.8689 -266.0896,223.1689 C -266.0896,223.1689 -266.1896,223.2689 -266.1896,223.3689 C -266.2896,223.4689 -266.2896,223.4689 -266.2896,223.4689 C -266.4896,223.7689 -266.6896,224.0689 -266.8906,224.2689 C -266.8906,224.3689 -266.8906,224.3689 -266.9906,224.3689 C -266.7906,224.4689 -266.6906,224.5689 -266.5916,224.5689 C -266.1916,224.6689 -265.7906,224.8689 -265.2906,225.0689 C -262.8916,225.7689 -260.3916,226.2689 -257.8916,226.5689 C -252.6916,227.0689 -247.1916,226.3689 -241.5916,224.2689 C -235.6916,222.7689 -231.3916,219.7689 -228.7906,215.4689 C -233.0916,217.5689 -237.9906,218.4689 -243.3916,217.8689 C -248.1916,217.3689 -251.6916,215.1689 -254.0916,211.0689 L -253.8916,210.9689 L -253.7906,210.9689 L -253.6916,209.9689 C -246.3916,198.5689 -240.8916,198.9689 -237.2916,210.9689 C -233.5926,204.0689 -234.3926,197.0689 -239.4916,189.9689 C -231.2916,195.4689 -222.0926,197.4689 -211.6916,196.1689 C -204.6916,193.9689 -200.0916,190.5689 -197.7916,185.8689 C -200.6916,188.0689 -205.4916,188.9689 -212.0926,188.4689 C -220.2916,187.7689 -227.3926,185.0689 -233.4916,180.5689 C -233.5926,180.4689 -233.7916,180.3689 -233.9916,180.1689 C -238.1916,176.8689 -241.8916,172.6689 -245.0926,167.3689 C -227.0926,158.9689 -222.0926,161.6689 -230.0926,175.4689 C -230.1926,175.4689 -230.1926,175.5689 -230.1926,175.6689 C -221.7926,171.1689 -217.5926,166.8689 -217.5926,162.6689 C -217.5926,158.3689 -222.1926,152.4689 -231.3926,144.8689 C -236.2916,143.5689 -239.2916,140.6689 -240.1926,136.1689 C -239.2926,140.6689 -236.2926,143.5689 -231.3926,144.8689 C -230.6926,145.0689 -229.8926,145.1689 -229.0926,145.3689 C -221.7916,145.1689 -216.5926,142.4689 -213.5926,137.0689 C -216.2916,138.5689 -218.6926,139.4689 -220.8926,140.0689 C -220.8926,140.0689 -220.9926,140.0689 -221.0926,140.0689 C -221.0926,140.1689 -221.1926,140.1689 -221.2916,140.1689 C -221.5926,140.1689 -221.7916,140.2689 -221.8926,140.2689 C -224.1926,140.6689 -226.0926,140.5689 -227.7916,139.9689 C -227.8926,139.8689 -228.0926,139.7689 -228.1916,139.7689 C -233.1916,137.1689 -236.2916,132.9689 -237.5916,127.1689 C -233.7906,122.3689 -228.7906,124.9689 -222.5916,134.9689 C -218.5916,126.3689 -220.7906,119.6689 -229.1916,114.6689 C -234.0916,111.7689 -238.0916,108.8689 -240.8916,105.8689 L -241.0916,105.6689 C -241.2906,105.3689 -241.5916,105.1689 -241.6916,104.9689 C -242.5916,104.0689 -243.2916,103.0689 -243.8916,101.9689 C -243.2906,103.0689 -242.5916,104.0689 -241.6916,104.9689 C -241.5916,105.1689 -241.2916,105.3689 -241.0916,105.6689 L -240.8916,105.8689 C -238.5916,108.2689 -235.7906,109.6689 -232.6916,110.2689 C -231.5916,110.4689 -230.5916,110.5689 -229.5916,110.5689 C -226.4906,110.3689 -223.8916,109.0689 -221.6916,106.6689 C -218.8916,103.2689 -218.2916,99.8689 -219.8916,96.2689 C -221.6916,100.3689 -224.5916,102.5689 -228.5916,102.7689 C -231.5916,102.8689 -234.0916,101.8689 -235.7906,99.8689 C -236.4906,99.1689 -237.0916,98.3689 -237.4906,97.3689 C -239.2896,93.6689 -240.9896,88.0689 -242.3896,80.8689 z M -319.8896,61.5689 C -319.4896,61.7689 -319.1896,61.9689 -318.8896,62.1689 C -313.8896,65.1689 -309.6896,68.4689 -306.1896,72.2689 L -306.1896,72.2689 L -300.8896,70.2689 L -306.1896,72.2689 L -306.1896,72.2689 L -316.8896,73.6689 C -317.3896,73.7689 -317.7896,73.7689 -318.2896,73.8689 C -319.5896,73.9689 -320.8896,73.9689 -322.0896,73.8689 C -322.8896,73.7689 -323.5896,73.7689 -324.2896,73.5689 C -326.9896,72.4689 -328.4896,70.5689 -328.7896,67.8689 C -329.1896,65.2689 -328.0896,62.7689 -325.5896,60.6689 C -326.0896,60.6689 -326.6896,60.6689 -327.1896,60.6689 C -328.4896,60.7689 -329.7896,60.9689 -331.1896,61.2689 C -331.2896,58.5689 -329.7896,56.4689 -326.4896,54.9689 C -329.7896,56.4689 -331.2896,58.5689 -331.1896,61.2689 C -329.7896,60.9689 -328.4896,60.7689 -327.1896,60.6689 C -326.6896,60.6689 -326.0896,60.6689 -325.5896,60.6689 C -323.6896,60.6689 -321.7896,60.9689 -319.8896,61.5689 L -319.8896,61.5689 z M -307.9896,97.7689 C -311.5896,94.2689 -315.8896,91.5689 -320.5896,89.6689 C -324.6896,88.3689 -328.7896,87.9689 -333.0896,88.7689 C -328.7896,87.9689 -324.6896,88.3689 -320.5896,89.6689 C -315.8896,91.5689 -311.5896,94.2689 -307.9896,97.7689 z M -275.8896,72.2689 C -276.1896,72.3689 -276.3896,72.4689 -276.5896,72.5689 C -278.7886,73.6689 -280.6896,74.0689 -282.1896,73.9689 C -280.6896,74.0689 -278.7896,73.6689 -276.5896,72.5689 C -276.3896,72.4689 -276.1896,72.3689 -275.8896,72.2689 C -273.9896,71.2689 -271.8896,69.6689 -269.7886,67.6689 C -271.8896,69.6689 -273.9896,71.2689 -275.8896,72.2689 C -273.9896,73.5689 -272.1896,75.2689 -270.6896,77.3689 C -271.2896,80.3689 -272.4896,82.6689 -274.2896,84.0689 C -272.4896,82.6689 -271.2896,80.3689 -270.6896,77.3689 C -272.1896,75.2689 -273.9896,73.5689 -275.8896,72.2689 z M -297.1896,117.8689 C -297.8896,114.6689 -299.1896,111.3689 -300.9896,107.9689 C -299.1896,111.3689 -297.8896,114.6689 -297.1896,117.8689 C -296.4896,123.1689 -299.5896,127.8689 -306.5896,131.8689 C -299.5896,127.8689 -296.4896,123.1689 -297.1896,117.8689 z "
       id="path3415" />
    <path
       d="M -324.2896,67.4689 C -323.8896,65.0689 -322.3896,63.1689 -319.8896,61.5689 C -321.7896,60.9689 -323.6896,60.6689 -325.5896,60.6689 C -328.0896,62.7689 -329.1896,65.2689 -328.7896,67.8689 C -328.4896,70.5689 -326.9896,72.4689 -324.2896,73.5689 C -323.5896,73.7689 -322.8896,73.7689 -322.0896,73.8689 C -323.9896,71.8689 -324.6896,69.6689 -324.2896,67.4689 z "
       id="path3417" />
    <path
       d="M -306.1896,72.2689 C -309.6896,68.4689 -313.8896,65.1689 -318.8896,62.1689 L -318.2896,73.8689 C -317.7896,73.7689 -317.3896,73.7689 -316.8896,73.6689 L -306.1896,72.2689 z "
       id="path3419" />
    <path
       d="M -263.1896,234.3689 C -261.6896,231.6689 -259.9896,229.0689 -257.8896,226.5689 C -260.3896,226.2689 -262.8896,225.7689 -265.2886,225.0689 L -267.7886,225.3689 C -271.1886,229.2689 -276.1886,231.9689 -282.7886,233.5689 C -285.6886,236.8689 -285.8896,240.2689 -283.3896,243.7689 C -278.7886,248.8689 -273.3896,252.0689 -267.2886,253.0689 C -267.1896,246.8689 -265.8896,240.6689 -263.1896,234.3689 z "
       id="path3421" />
    <path
       d="M -351.9896,109.0689 L -352.1896,109.0689 L -353.9896,106.1689 C -361.7896,106.2689 -369.0896,106.2689 -376.0896,106.1689 C -380.4896,105.6689 -384.6896,102.3689 -388.7896,96.1689 C -390.7896,98.5689 -391.4896,101.5689 -390.7896,105.2689 C -388.8896,111.2689 -385.1896,114.9689 -379.7896,116.5689 C -372.5896,118.8689 -364.9896,119.8689 -357.0896,119.6689 C -356.7896,119.5689 -356.4896,119.5689 -356.1896,119.5689 L -352.8896,111.1689 L -347.6896,118.9689 C -339.1896,118.5689 -330.6896,118.7689 -322.0896,119.4689 C -316.8896,119.9689 -312.9896,121.8689 -310.4896,125.2689 C -307.0906,121.8689 -307.0906,117.4689 -310.4896,112.1689 C -311.5896,110.6689 -312.8896,109.2689 -314.2896,107.8689 C -320.1896,106.4689 -325.7896,105.6689 -331.3896,105.6689 C -336.7896,105.8689 -342.5896,105.8689 -348.7896,105.5689 L -351.9896,109.0689 z "
       style="fill:#d40000"
       id="Tongue" />
    <g
       style="fill:#d40000"
       id="Teeth">
      <path
         d="M -347.5896,96.0689 C -350.8896,95.8689 -354.4896,95.8689 -358.3896,95.9689 L -358.6896,96.0689 L -353.9896,106.1689 L -352.1896,109.0689 L -351.9896,109.0689 L -348.7896,105.5689 L -347.5896,96.0689 z "
         id="path3427" />
      <path
         d="M -347.6896,118.9689 L -352.8896,111.1689 L -356.1896,119.5689 L -357.1896,123.1689 C -352.1896,122.9689 -347.7896,123.3689 -343.9896,124.4689 L -347.6896,118.9689 z "
         id="path3433" />
    </g>
    <path
       d="M -511.44678,274.10231 C -511.24553,270.27486 -512.34617,266.25647 -514.86707,262.02978 C -517.12297,260.58245 -519.41344,260.44954 -521.64102,261.74684 C -521.52923,264.09772 -522.62187,266.37346 -524.64047,268.4119 C -529.34636,270.46225 -534.43532,271.44141 -540.18581,271.51156 C -542.92855,272.9363 -543.87509,274.52297 -542.83049,276.50316 C -538.51396,277.4407 -535.15114,278.84737 -532.81864,280.50893 L -525.68277,280.23596 L -532.81864,280.50893 C -531.87867,281.25579 -531.05705,281.98527 -530.51387,282.87693 C -528.11818,287.69423 -527.13588,291.69526 -527.6436,294.66578 C -524.32968,295.15178 -521.1481,295.11089 -517.79958,294.28248 C -510.78236,292.26662 -504.64935,289.81658 -499.40059,286.93237 C -504.50414,283.95092 -508.6054,279.69548 -511.44678,274.10231 z "
       id="path3445" />
    <path
       d="M -307.2896,335.7689 C -308.7896,336.3689 -310.0896,337.1689 -311.0896,338.1689 C -313.1896,339.6689 -314.5896,342.2689 -315.2896,345.9689 C -303.2896,346.1689 -296.0896,351.0699 -293.5896,360.7689 C -293.4886,360.8699 -293.4886,360.9689 -293.3896,361.1689 C -293.0896,356.5689 -291.7886,352.3689 -289.6896,348.4689 C -289.6896,348.2689 -289.6896,348.2689 -289.4896,348.1689 C -293.0906,342.2689 -297.2896,337.6689 -302.1896,334.4689 C -304.0896,334.6689 -305.7896,335.1689 -307.2896,335.7689 z "
       id="path3461" />
    <g
       style="fill:#d40000"
       id="Claws">
      <path
         d="M -521.64102,261.74684 C -521.55069,260.7451 -521.83627,259.78972 -522.14274,258.93278 C -528.75004,256.13681 -535.76782,254.70161 -543.47462,254.78935 C -551.27886,254.7613 -556.22832,257.3849 -558.65716,262.50967 C -560.96764,267.65179 -560.47278,271.07384 -556.93585,272.81054 C -553.60191,268.02151 -549.36945,265.90176 -544.02263,266.58439 C -539.74784,267.71881 -538.5014,269.3226 -540.18581,271.51156 L -540.18581,271.51156 C -534.43532,271.44141 -529.34636,270.46225 -524.64047,268.4119 C -522.62187,266.37346 -521.52923,264.09772 -521.64102,261.74684 z "
         style="stroke-width:0.54801726"
         id="path3447" />
      <path
         d="M -549.5455,295.51371 C -551.37658,294.94068 -552.41403,294.07804 -552.51867,292.84469 C -558.58249,292.6659 -563.54594,294.77996 -567.36731,298.99 C -570.38792,304.02797 -570.77699,308.74138 -568.53454,313.13022 C -567.46162,317.85503 -564.39782,321.24784 -559.34316,323.30862 C -560.79888,319.23816 -560.63249,314.99958 -558.74656,310.70871 C -557.03442,307.81332 -554.49351,306.76498 -551.20045,307.34943 C -549.02833,307.46497 -547.05116,307.34895 -545.52657,307.06503 C -542.05968,306.25398 -540.73035,304.01296 -541.46192,300.55619 C -541.53884,298.61642 -544.2264,296.90279 -549.5455,295.51371 z "
         style="stroke-width:0.54801726"
         id="path3449" />
      <path
         d="M -509.65332,341.05034 C -509.33371,337.24025 -511.63164,334.26426 -516.31036,332.15711 C -521.27419,330.81913 -524.88049,331.71225 -526.96855,334.65399 C -529.1261,338.49905 -529.5432,342.19335 -528.33821,345.71955 C -526.90328,351.61495 -523.55368,355.96215 -518.3109,358.86253 C -515.79743,360.24613 -513.23536,360.82487 -510.5481,360.81297 C -505.84194,360.48817 -502.47274,359.56231 -500.53741,357.91663 C -505.72416,357.05447 -509.31681,355.0051 -511.43377,351.75115 C -512.54128,348.34076 -512.02669,344.76223 -509.65332,341.05034 z "
         style="stroke-width:0.54801726"
         id="path3451" />
      <path
         d="M -307.3896,573.4689 C -310.3896,576.2689 -312.3896,579.4689 -313.3896,583.0699 C -314.3896,587.6699 -314.4896,591.9689 -313.5896,596.0699 C -311.9896,600.7689 -308.2896,604.0699 -302.3896,605.9689 C -304.6896,602.1689 -305.4896,597.9689 -304.6896,593.1689 C -302.4896,587.9689 -298.8896,584.4689 -293.8896,582.7689 C -293.7886,582.4689 -293.6896,582.2689 -293.5896,582.0699 C -292.5896,579.5699 -292.3896,576.8699 -292.8896,574.0699 C -293.8896,571.2689 -295.5896,569.5699 -297.8896,568.8699 L -297.9896,568.8699 C -301.4896,569.6689 -304.5896,571.2689 -307.3896,573.4689 z "
         id="path3467" />
      <path
         d="M -468.9896,455.6689 C -468.9896,455.4689 -469.0896,455.3689 -469.1896,455.1689 C -472.7896,452.1689 -477.3896,450.8689 -482.7896,451.3689 C -490.6896,451.9689 -496.1896,453.9689 -499.1896,457.1689 C -502.8896,460.8689 -504.2896,464.5689 -503.3896,468.2689 C -497.9896,464.2689 -492.0896,462.2689 -485.4896,462.3699 C -481.2896,464.4699 -480.0896,466.9699 -482.0896,469.7689 L -479.9896,469.0699 C -480.4896,469.1699 -480.8896,469.3699 -481.2896,469.5699 C -476.9896,468.4689 -473.8896,467.8699 -471.8896,467.8699 C -463.9896,468.5699 -462.9896,464.5699 -468.7896,455.8699 C -468.8896,455.7689 -468.8896,455.6689 -468.9896,455.6689 z "
         id="path3469" />
      <path
         d="M -456.5896,534.4689 C -455.2896,533.7689 -454.9896,532.3689 -455.8896,530.3689 C -458.7896,525.8689 -463.1896,522.8689 -469.2896,521.4689 C -469.2896,521.4689 -469.3896,521.3689 -469.3896,521.2689 C -474.0896,526.9689 -476.4896,533.2689 -476.4896,540.2689 C -475.5896,550.5699 -469.4896,554.2689 -458.2896,551.2689 C -463.0896,548.2689 -465.0896,543.9689 -464.2896,538.2689 C -462.7896,534.7689 -460.2896,533.5699 -456.8896,534.5699 C -456.7896,534.5699 -456.7896,534.5699 -456.6896,534.5699 C -456.6896,534.4689 -456.6896,534.4689 -456.5896,534.4689 z "
         id="path3471" />
      <path
         d="M -506.3896,499.6689 C -507.3896,505.6689 -506.9896,510.7689 -505.2896,515.2689 C -502.3896,519.9689 -498.4896,522.4689 -493.7896,522.4689 C -495.8896,519.8689 -496.6896,516.5699 -496.1896,512.3689 C -494.9896,509.6689 -492.7896,508.3689 -489.6896,508.5689 C -489.6896,508.3689 -489.5896,508.1689 -489.4896,508.0689 C -486.2896,505.4679 -484.3896,502.7679 -483.7896,499.6689 C -484.2896,495.1689 -486.6896,490.5689 -491.0896,485.8689 C -498.6896,488.2689 -503.7896,492.8689 -506.3896,499.6689 z "
         id="path3473" />
      <path
         d="M -277.6896,594.6689 C -278.0896,599.9689 -277.3896,605.1689 -275.6896,610.1689 C -274.2896,613.4689 -272.1896,615.8689 -269.5896,617.6689 C -265.0896,619.3689 -261.6896,619.6689 -259.1896,618.3689 C -256.3896,617.2679 -254.1896,616.0689 -252.6896,614.7679 C -256.7896,615.1679 -260.0896,614.1679 -262.3896,611.8689 C -265.1896,608.2679 -265.5896,604.6689 -263.2886,601.1689 L -261.0896,598.9689 L -260.1896,598.2689 C -261.7896,596.0699 -263.8896,594.0699 -266.6896,592.2689 C -269.0896,592.1689 -271.3896,592.4689 -273.7896,593.1689 C -275.0906,593.4689 -276.2896,593.9689 -277.5906,594.5689 C -277.5896,594.5689 -277.5896,594.5689 -277.6896,594.6689 z "
         id="path3475" />
      <path
         d="M -228.4896,590.1689 L -228.3896,590.1689 C -225.9896,590.7689 -224.4896,592.0689 -223.9896,593.9689 C -223.0906,595.9689 -222.8896,597.8689 -223.5906,599.5699 C -224.9896,602.6699 -227.8906,604.1699 -232.2896,604.0699 C -231.2896,607.1699 -228.3906,608.8699 -223.3906,609.1699 C -216.4906,608.1699 -212.8906,605.2699 -212.5906,600.3699 C -211.7896,594.4699 -211.9896,588.5699 -213.0906,582.5699 C -213.1906,582.3699 -213.2896,582.2689 -213.3906,582.2689 C -214.8906,580.4689 -216.5906,579.5699 -218.1906,579.4689 C -220.7906,579.5699 -223.2906,580.4689 -225.6906,582.0699 C -228.0896,584.3689 -229.0896,587.0689 -228.4896,590.1689 z "
         id="path3477" />
    </g>
  </g>
  <path
     d="M 33.4065,190.18751 C 18.042667,190.18751 12.575519,198.7222 4.219,204.75001 C 18.717654,276.00024 86.73669,302.75001 125.50025,302.75001 C 164.28839,302.75 234.66296,274.9998 247.50025,200.75001 C 241.40828,195.52965 235.4318,190.18751 223.2815,190.18751 C 199.54449,190.18751 199.581,210.62501 175.844,210.62501 C 152.10699,210.62499 152.11226,190.18751 128.37525,190.18751 C 104.63824,190.18751 104.64351,210.62501 80.9065,210.62501 C 57.169484,210.62499 57.143503,190.18751 33.4065,190.18751 z "
     style="fill:#003d8f;stroke:none"
     id="Vagskura" />
  <path
     d="M 249.55062,1.4395041 L 125.50012,1.4395041 L 1.449569,1.4395041 L 1.449569,174.9361 C 0.68232904,268.65698 81.739009,302.75585 125.5001,302.75585 C 168.49395,302.75585 250.31785,268.65698 249.55062,174.9361 L 249.55062,1.4395041 z "
     style="fill:none;fill-opacity:0;stroke:#000000;stroke-width:1.88832211;stroke-linecap:round"
     id="Frame" />
</svg>
