<?xml version="1.0" encoding="UTF-8" standalone="no"?>
<!-- Created with Inkscape (http://www.inkscape.org/) -->

<svg
   xmlns:dc="http://purl.org/dc/elements/1.1/"
   xmlns:cc="http://web.resource.org/cc/"
   xmlns:xlink="http://www.w3.org/1999/xlink"
   xmlns:rdf="http://www.w3.org/1999/02/22-rdf-syntax-ns#"
   xmlns:svg="http://www.w3.org/2000/svg"
   xmlns="http://www.w3.org/2000/svg"
   version="1.0"
   width="251"
   height="304.20001"
   id="svg4166">
  <defs
     id="defs4168" />
  <metadata
     id="metadata1880"><rdf:RDF><cc:Work
       rdf:about=""><dc:title>Uddevalla kommunvapen</dc:title><dc:date>29-05-2007</dc:date><dc:creator><cc:Agent><dc:title>Lokal_Profil</dc:title></cc:Agent></dc:creator><cc:license
       rdf:resource="http://creativecommons.org/licenses/by-sa/2.5/" /><dc:rights><cc:Agent><dc:title>cc-by-sa-2.5</dc:title></cc:Agent></dc:rights><dc:format>image/svg+xml</dc:format><dc:type
       rdf:resource="http://purl.org/dc/dcmitype/StillImage" /></cc:Work><cc:License
       rdf:about="http://creativecommons.org/licenses/by-sa/2.5/"><cc:permits
       rdf:resource="http://web.resource.org/cc/Reproduction" /><cc:permits
       rdf:resource="http://web.resource.org/cc/Distribution" /><cc:requires
       rdf:resource="http://web.resource.org/cc/Notice" /><cc:requires
       rdf:resource="http://web.resource.org/cc/Attribution" /><cc:permits
       rdf:resource="http://web.resource.org/cc/DerivativeWorks" /><cc:requires
       rdf:resource="http://web.resource.org/cc/ShareAlike" /></cc:License></rdf:RDF>
  </metadata>
  <path
     d="m 249.55058,1.4395041 -124.0505,0 -124.0505509,0 0,173.4965959 C 0.68228908,268.65698 81.738969,302.75585 125.50006,302.75585 c 42.99385,0 124.81775,-34.09887 124.05052,-127.81975 l 0,-173.4965959 z"
     id="Shield"
     style="fill:#eeeeee" />
  <g
     transform="matrix(-0.13373913,0,0,0.33232734,14.045533,64.210815)"
     id="Gran"
     style="fill:#225500">
    <path
       d="m -192.21704,543.37125 c -16.1933,-11.61939 -25.4736,-30.29669 -23.7635,-40.05871 -45.2319,12.46349 -58.0478,27.18802 -48.5134,39.65153 -33.9876,-14.46628 -43.6036,-35.87772 38.3129,-52.2228 -2.2295,-11.99405 -2.9897,-13.63789 -3.1064,-19.64717 -42.7973,-1.62196 -92.1871,-0.96909 -84.4957,24.94072 -22.1376,-6.49791 -33.5548,-16.09093 5.3846,-29.41986 -18.0472,1.11323 -45.4709,-1.1438 -60.0582,17.91659 -43.2708,-18.18644 39.0457,-33.07622 63.5788,-27.28208 27.3425,6.45762 74.8541,-2.16126 68.135,-1.42519 10.8701,-8.99873 18.4672,-85.52393 11.3903,-116.86505 l 66.2712,0 c -7.0768,31.34112 0.5203,107.86632 11.3904,116.86505 -6.7192,-0.73607 40.7925,7.88281 68.135001,1.42519 24.5331,-5.79414 106.8495,9.09564 63.5788,27.28208 -14.5873,-19.06039 -42.011,-16.80336 -60.0582,-17.91659 38.9394,13.32893 27.5222,22.92195 5.3845,29.41986 7.6915,-25.90981 -41.698301,-26.56268 -84.495601,-24.94072 -0.1167,6.00928 -0.877,7.65312 -3.1065,19.64717 81.916501,16.34508 72.300601,37.75652 38.313,52.2228 9.5344,-12.46351 -3.2815,-27.18804 -48.5134,-39.65153 1.7101,9.76202 -7.5702,28.43932 -23.7636,40.05871 z"
       id="path3087" />
    <path
       d="m -183.99354,-153.12487 c -14.78564,29.65407 -23.88373,63.118989 -49.85436,84.515658 0.72692,13.997775 26.08819,-3.993437 25.85675,-3.27887 -6.51266,20.10788 -28.79529,56.751196 -56.06679,67.586963 5.7343,14.860182 21.60954,20.718162 33.73314,8.905453 l -10.52142,15.040182 c 7.2208,4.130539 15.18985,-0.484967 23.31597,-6.936625 -25.25185,48.433767 -58.56769,50.657786 -88.37881,60.055827 20.60811,34.557102 32.55413,15.595912 47.2879,13.858617 -2.06948,7.109441 -6.77506,12.164687 -14.33199,14.997905 8.75085,13.63395 38.90283,-9.293595 58.57567,-14.318612 -44.029,37.415852 -88.54434,60.188952 -131.92758,47.785752 3.11476,13.68221 0.33906,23.31358 12.8242,32.58329 13.72765,10.19217 46.97358,-0.67264 46.97358,-0.67264 l -26.77968,16.91366 c 5.6744,6.23968 10.23776,15.49943 22.11616,15.14714 20.39096,-0.60471 34.77419,-12.36857 52.4038,-19.58746 -47.46727,53.4991 -155.63111,38.81839 -157.21856,33.89503 7.23834,16.10506 1.78241,23.31256 28.02736,44.18071 21.92858,17.43605 54.12275,-2.91825 54.11454,-2.91505 2.96036,1.73015 -28.02189,20.27026 -36.75816,23.04243 -7.3041,2.3177 11.95078,20.76719 22.35689,20.30072 24.84235,-1.11356 47.65016,-13.01803 68.30985,-20.58422 -51.9636,43.48994 -126.13971,44.78487 -181.78193,5.3862 2.72408,24.01505 1.88249,43.50064 27.38748,75.83854 17.76587,22.52544 70.94071,-15.44754 68.75203,-8.41216 -13.77285,10.19048 -24.63033,21.51686 -46.06017,28.72393 41.57748,44.13382 59.25188,4.4468 83.88888,-10.82452 l -26.97434,37.14296 c 25.76558,6.63315 36.38067,23.69693 74.28548,-43.81699 l -11.31828,32.99254 c 20.80071,-4.69793 41.60146,-26.04049 62.40217,-58.50918 l 17.71392,16.69668 17.71395,-14.69214 c 20.88573,20.43269 25.95448,54.7318 66.2959,58.10825 l -12.6902,-29.12481 c 28.665372,40.6514 51.559251,51.00851 70.169749,33.9357 L -70.608198,373.3148 c 13.941164,9.1963 31.343272,27.18139 41.823455,27.52119 21.2734084,-3.13721 24.1508497,-11.3075 33.1479848,-25.11578 -11.6161499,-2.4091 -25.2704738,-10.3688 -31.9980728,-21.50756 11.370618,-0.2842 36.9820992,17.04494 54.856677,8.81992 8.723302,-4.01403 22.887544,-12.59532 30.061149,-76.69134 -48.7445562,33.00869 -102.751208,48.86943 -181.375965,-15.49399 30.171953,8.57703 67.797682,45.03474 85.603774,7.35769 -20.133543,-5.08618 -25.80607,-12.0505 -29.718154,-19.2435 16.456343,3.34105 33.225093,9.62528 48.3989,3.21907 14.8734339,-6.27941 23.1036112,-22.4258 30.34529,-43.4279 -23.695586,-1.5106 -77.218409,21.65918 -154.40158,-37.80337 17.29865,5.83782 36.85378,20.24867 51.890806,17.49853 14.984392,-2.74049 13.433945,-10.46533 18.056909,-15.49399 -5.14469,-0.69244 -10.289343,-5.74191 -15.434033,-12.82905 11.163622,2.39478 22.327282,8.76065 33.490904,6.41451 15.825159,-13.18966 13.108382,-24.93446 16.342012,-37.14296 -63.164828,6.74225 -106.682898,-33.33128 -107.998418,-46.222417 14.05965,5.251773 31.90109,26.291157 40.22952,7.617227 -4.10798,2.05791 -15.53727,-12.406826 -13.37614,-13.489452 0,5.852287 50.367575,14.174622 53.141781,-15.093063 15.814888,-0.768075 -75.864951,7.498086 -89.598551,-63.7209508 8.89258,6.4506498 15.5626,7.7054368 20.80071,5.6126938 l -5.32061,-12.3580563 c 22.43749,10.6581763 26.93907,-5.8099144 29.99131,-9.6817588 -28.02275,-17.1830959 -42.28385,-38.5430889 -54.5036,-65.0393989 8.73058,1.997004 16.70949,15.415869 26.26107,4.936686 -19.1546,-22.721038 -32.6697,-52.58341 -44.10247,-85.08265 z"
       id="path3089" />
  </g>
  <use
     transform="matrix(-1,0,0,1,251.00006,0)"
     id="Gran2"
     x="0"
     y="0"
     width="251"
     height="304.20001"
     xlink:href="#Gran" />
  <g
     transform="matrix(0.315655,0,0,0.388219,62.68434,61.0097)"
     id="Oak-tree">
    <g
       transform="matrix(1.0999461,0,0,1.154092,-19.88982,36.859335)"
       id="Ollon">
      <path
         d="m 117.48957,110.74999 36.00018,0 c 0,-4.00002 0,-8.00004 -2.00001,-12.00006 -2.00001,-4.000025 -6.00003,-8.000045 -10.00005,-10.000055 -4.00002,-2.00001 -8.00004,-2.00001 -12.00006,0 -4.00002,2.00001 -8.00004,6.00003 -10.00005,10.000055 -2.00001,4.00002 -2.00001,8.00004 -2.00001,12.00006 z"
         id="path2772"
         style="fill:#225500" />
      <path
         d="m 123.4896,110.74999 c 0,6.00003 0,12.00006 1.00001,16.00008 1,4.00002 3.00001,6.00003 5.00002,9.00005 2.00001,3.00001 4.00002,7.00003 6.00003,7.00003 2.00001,0 4.00002,-4.00002 6.00003,-7.00003 2.00001,-3.00002 4.00002,-5.00003 5.00003,-9.00005 1,-4.00002 1,-10.00005 1,-16.00008"
         id="path2774"
         style="fill:#ffcd50" />
    </g>
    <use
       transform="translate(140.7938,-7.1472388e-8)"
       id="Ollon2"
       style="stroke:none"
       x="0"
       y="0"
       width="251"
       height="304.20001"
       xlink:href="#Ollon" />
    <use
       transform="matrix(0.951057,-0.32422703,-0.2945205,-0.951057,80.451893,220.67755)"
       id="Ollon3"
       style="stroke:none"
       x="0"
       y="0"
       width="251"
       height="304.20001"
       xlink:href="#Ollon" />
    <use
       transform="matrix(-1,0,0,1,399.73343,-7.1472388e-8)"
       id="Ollon4"
       style="stroke:none"
       x="0"
       y="0"
       width="251"
       height="304.20001"
       xlink:href="#Ollon3" />
    <path
       d="m 166.7106,292.02507 c -1.09997,-9.23278 -2.12456,-16.34638 -2.12456,-23.27096 0,-6.9246 4.00798,-14.58423 4.00798,-20.35471 0,-5.7705 -2.1999,-11.12197 -2.1999,-15.73835 0,-4.61639 4.00799,-15.11958 5.10796,-20.89006 1.09995,-5.77049 1.09995,-12.69508 0,-19.61967 -1.09997,-6.92459 -3.29987,-13.84916 -3.29987,-21.92784 0,-8.0787 2.1999,-22.4632 2.1999,-30.54188 0,-8.07869 -2.1999,-15.00328 -4.39982,-20.77376 -2.19992,-5.77049 -4.39983,-10.38688 -8.79965,-11.54098 -4.39984,-1.1541 -10.99957,1.1541 -15.39941,5.77049 -4.39983,4.61639 -6.59973,11.54097 -7.69969,16.15737 -1.09996,4.61639 -1.09996,6.92458 -1.09996,9.23277 l -6.59975,0 c 0,-2.30819 0,-4.61638 0,-8.07867 0,-3.4623 0,-8.07869 3.29989,-12.69508 3.29986,-4.61639 9.8996,-9.23278 13.19947,-12.69507 3.29988,-3.4623 3.29988,-5.770493 0,-6.924583 -3.29987,-1.154101 -9.89961,-1.154101 -14.29944,0 -4.39984,1.15409 -6.59974,3.462283 -8.79966,5.770483 l -2.05325,2.46207 c -2.73744,4.30864 -5.47559,8.61727 -9.82628,9.92524 -4.3507,1.30798 -10.315401,-0.3847 -13.003694,3.92393 -2.689041,4.30864 -2.102392,14.61857 -6.478023,15.95193 -4.374896,1.33415 -13.712797,-6.30906 -18.332617,-0.84632 -4.619819,5.46271 -4.521557,24.03139 -9.679622,28.46774 -5.157332,4.43711 -15.570259,-5.25731 -19.945888,-3.94933 -4.374896,1.30798 -2.713228,13.61836 -5.841505,19.51733 -3.129012,5.89821 -11.048703,5.38579 -13.639468,2.97449 -2.5915,-2.41052 0.146661,-6.71916 -2.83569,-7.56548 -2.98235,-0.84636 -11.6837436,1.7696 -16.5968849,2.07737 -4.9131415,0.30775 -6.0380312,-1.69269 -7.1621872,-3.69311 -1.1241559,-2.00044 -2.2490457,-4.00088 0.4641818,-8.30952 2.7132275,-4.30863 9.2645719,-10.92544 10.0712071,-14.07999 0.8066349,-3.15452 -4.13143896,-2.84678 -4.83981103,-6.41139 -0.70910585,-3.5654 2.81075683,-11.00237 9.23963943,-10.90007 6.4281488,0.10234 15.7660518,7.74554 19.0409888,4.43712 3.275673,-3.30841 0.489116,-17.56844 6.746404,-20.03051 6.258022,-2.46208 21.559158,6.87381 28.378892,5.41194 6.819734,-1.46186 5.158066,-13.72144 8.433005,-17.02986 3.275672,-3.30841 11.488684,2.33436 16.377627,2.02661 4.888204,-0.30777 6.453084,-6.56605 9.703825,-9.848318 3.25074,-3.283022 8.18881,-3.590779 13.12615,-3.898526 l 15.25274,-4.462515 c 6.59975,0 13.19949,0 16.49936,-1.154098 3.29988,-1.154103 3.29988,-3.462298 2.19992,-5.770493 -1.09996,-2.308196 -3.29988,-4.616391 -5.49979,-5.770483 -2.19992,-1.154103 -4.39982,-1.154103 -7.6997,-1.154103 -3.29987,0 -7.69971,0 -12.09953,0 l 0,0 c -4.39983,2.308195 -8.79965,4.61639 -13.19948,3.462298 C 102.20477,78.514419 97.804953,73.898024 93.405123,76.206224 89.005288,78.514419 84.60546,87.7472 80.205632,86.593108 75.805804,85.439005 71.405975,73.898024 64.806233,76.206224 58.206491,78.514419 49.406834,94.671784 42.807092,95.825896 36.20735,96.979986 31.807521,83.13081 27.407692,81.976717 23.007864,80.822614 18.608036,92.363592 13.108251,95.825896 7.6084661,99.288177 1.0087233,94.671784 -0.0912337,91.209502 -1.1911908,87.7472 3.2086374,85.439005 1.0087233,83.13081 c -2.1999141,-2.308196 -10.99957,-4.616391 -15.3993983,-6.924586 -4.399828,-2.3082 -4.399828,-4.616395 -4.399828,-6.92459 0,-2.308196 0,-4.616391 4.399828,-6.924586 4.3998283,-2.308195 13.1994842,-4.616391 15.3993983,-6.924588 2.1999141,-2.308194 -2.1999141,-4.61639 -1.099957,-8.078676 1.099957,-3.4623 7.6996998,-8.07869 13.1994847,-4.616391 5.499785,3.462287 9.899613,15.003264 14.299441,13.849172 4.399829,-1.154105 8.799658,-15.003276 15.3994,-13.849172 6.599742,1.154091 15.399399,17.31146 21.999141,19.619655 6.599742,2.308195 10.999571,-9.232782 15.399399,-10.386874 4.399828,-1.154104 8.799656,8.078679 13.199491,10.386874 4.39983,2.308195 8.799647,-2.308195 13.199487,-3.462288 4.39983,-1.154103 8.79965,1.154093 13.19948,3.462288 l 0,0 c 4.39982,2.308195 8.79966,4.61639 10.99957,4.61639 2.19992,0 2.19992,-2.308195 1.09996,-4.61639 -1.09996,-2.308195 -3.29987,-4.616391 -7.69971,-6.924588 -4.39982,-2.308194 -10.99957,-4.61639 -17.5993,-6.924585 l -2.49324,-1.07716 C 99.222424,46.712869 94.334218,45.994252 91.376064,42.429631 88.418644,38.864998 87.392018,32.45284 82.552207,31.683443 77.712396,30.914044 69.0594,35.787405 66.077049,32.196633 63.095433,28.605849 65.783728,16.552442 59.110655,14.475078 52.437582,12.397701 36.403141,20.296342 30.365111,17.2703 24.327813,14.244248 28.287659,0.29197872 25.305308,-3.2980311 22.323692,-6.8888152 12.399145,-0.11810436 5.995195,-0.60514212 -0.40875461,-1.0929301 -3.2935756,-8.837708 -2.2911478,-12.326158 c 1.0024276,-3.487678 5.8906365,-2.718279 5.3531243,-5.92437 -0.5375122,-3.205306 -6.502213,-10.386873 -8.8487881,-14.926321 -2.346575,-4.53946 -1.0750244,-6.436798 0.1957925,-8.334898 1.270817,-1.898107 2.5423676,-3.795443 7.4063776,-3.052204 4.8640101,0.744007 13.3219475,4.129363 16.3768945,3.565393 3.055681,-0.564743 0.709105,-5.078031 3.495663,-7.232346 2.786558,-2.154316 10.706248,-1.949656 13.321947,4.205531 2.614964,6.15519 -0.07333,18.260899 4.179836,19.953581 4.253168,1.692672 15.447797,-7.02768 20.214278,-2.128929 4.766481,4.898763 3.104812,23.4151062 7.259716,29.2886966 4.155639,5.872816 14.128583,-0.8978843 18.38175,0.820179 4.253167,1.7188337 2.786557,11.9256814 5.108938,16.4651304 2.321634,4.539447 8.433006,3.411507 12.661239,5.12958 4.22897,1.718062 6.57555,6.283673 8.92212,10.84851 l 1.4666,5.231914 c 4.39984,2.308195 8.79967,4.616391 9.89963,3.462298 1.09994,-1.154103 -1.09996,-5.770493 -3.29988,-10.386884 l -2.19991,-1.07716 c -2.93322,-4.1032 -5.86644,-8.207174 -5.54892,-12.951276 0.31825,-4.744889 3.88652,-10.130678 0.9533,-14.2854323 -2.93322,-4.1547434 -12.36793,-7.07846229 -12.05041,-11.8233393 0.31753,-4.7441124 10.38873,-11.3101584 7.06393,-17.7215544 -3.32407,-6.411408 -20.043418,-12.669691 -22.267532,-19.286516 -2.224846,-6.616828 10.046279,-13.592195 10.363803,-18.337075 0.317523,-4.744877 -11.317099,-7.257741 -15.521868,-12.335771 -4.204036,-5.078019 -0.977495,-12.721236 2.102385,-14.464684 3.07988,-1.744247 6.013099,2.410511 7.797235,-0.256975 1.784858,-2.666743 2.419904,-12.15651 3.81318,-17.10606 1.393286,-4.94953 3.544806,-5.36039 5.695587,-5.77048 2.15078,-0.4101 4.3023,-0.82094 7.23551,3.33381 2.93321,4.15475 6.64814,12.875119 9.21471,14.747056 2.56656,1.871946 3.98478,-3.102988 7.43131,-2.564402 3.44653,0.538576 8.92138,6.590671 6.62394,12.874351 -2.29745,6.283678 -12.36865,12.797399 -10.5354,17.132192 1.83327,4.334024 15.571,6.488339 15.6194,13.515256 0.0491,7.027686 -13.59033,18.927201 -14.61696,26.134159 -1.02664,7.206958 10.55959,9.719809 12.41705,14.054602 1.85819,4.3340182 -6.0131,10.4892078 -7.40637,15.4387506 -1.39329,4.9503044 3.69145,8.6942024 5.52471,13.0543844 1.83326,4.360182 0.41505,9.335114 -1.00243,14.310809 l 2.49324,3.385355 c 0,4.616391 0,9.232781 2.19992,15.003275 2.1999,5.770482 6.59973,12.69507 12.09952,20.773759 5.49978,8.078682 12.09952,17.311463 16.49935,21.927855 4.39984,4.616394 6.59974,4.616394 9.89963,4.616394 3.29986,0 7.69969,0 9.8996,-2.308202 2.19991,-2.308192 2.19991,-6.924584 0,-10.386871 -2.19991,-3.462299 -6.59974,-5.770494 -9.8996,-8.078689 -3.29989,-2.3082 -5.49979,-4.616395 -7.69971,-8.078683 -2.19992,-3.462298 -4.39983,-8.078688 -5.49978,-11.540976 -1.09997,-3.462299 -1.09997,-5.770495 -1.09997,-8.07869 l 6.59975,-6.924586 c 0,4.616391 0,9.232781 2.19992,13.849171 2.1999,4.616393 6.59973,9.232783 10.99957,12.695081 4.39982,3.462288 8.79965,5.770483 9.89961,4.616392 1.09996,-1.154104 -1.09996,-5.770495 -3.29988,-10.386885 -2.19991,-4.616391 -4.39982,-9.232782 -4.39982,-11.540978 0,-2.308195 2.19991,-2.308195 4.39982,-3.462286 2.19992,-1.154104 4.39984,-3.4623 6.59975,-5.770495 l 0,0 c -4.39983,-6.924586 -8.79966,-13.849172 -8.79966,-20.773758 0,-6.924586 4.39983,-13.849172 2.19991,-19.6196554 -2.19991,-5.7704949 -10.99957,-10.3868861 -10.99957,-15.0032776 0,-4.616392 8.79966,-9.232783 6.59975,-16.157369 -2.19991,-6.924586 -15.3994,-16.157368 -15.3994,-23.081954 0,-6.924586 13.19949,-11.540982 14.29944,-16.157375 1.09996,-4.616384 -9.89962,-9.232777 -13.19948,-15.003272 -3.29988,-5.770484 1.09996,-12.695069 5.49978,-13.84918 4.39983,-1.154091 8.79966,3.462313 12.09954,1.154111 3.29986,-2.308202 5.49978,-11.540979 7.69969,-16.157369 2.19991,-4.61638 4.39982,-4.61638 6.59974,-4.61638 2.19992,0 4.39983,0 6.59974,4.61638 2.19991,4.61639 4.39983,13.849167 7.6997,16.157369 3.29987,2.308202 7.6997,-2.308202 12.09953,-1.154111 4.39982,1.154111 8.79966,8.078696 5.49979,13.84918 -3.29987,5.770495 -14.29945,10.386888 -13.19948,15.003272 1.09994,4.616393 14.29943,9.232789 14.29943,16.157375 0,6.924586 -13.19949,16.157368 -15.3994,23.081954 -2.19991,6.924586 6.59975,11.540977 6.59975,16.157369 0,4.6163915 -8.79966,9.2327827 -10.99957,15.0032776 -2.19992,5.7704834 2.19991,12.6950694 2.19991,19.6196554 0,6.924586 -4.39983,13.849172 -8.79966,20.773758 l 1.46662,0 c 2.1999,2.308195 4.39982,4.616391 6.59973,5.770495 2.19992,1.154091 4.39984,1.154091 4.39984,3.462286 0,2.308196 -2.19992,6.924587 -4.39984,11.540978 -2.19991,4.61639 -4.39983,9.232781 -3.29986,10.386885 1.09995,1.154091 5.49978,-1.154104 9.89961,-4.616392 4.39982,-3.462298 8.79966,-8.078688 10.99957,-12.695081 2.19991,-4.61639 2.19991,-9.23278 2.19991,-13.849171 l 6.59975,6.924586 c 0,2.308195 0,4.616391 -1.09996,8.07869 -1.09996,3.462288 -3.29988,8.078678 -5.49979,11.540976 -2.19991,3.462288 -4.39982,5.770483 -7.69969,8.078683 -3.29988,2.308195 -7.6997,4.61639 -9.89962,8.078689 -2.19992,3.462287 -2.19992,8.078679 0,10.386871 2.19992,2.308202 6.59974,2.308202 9.89962,2.308202 3.29987,0 5.49978,0 9.8996,-4.616394 4.39984,-4.616392 10.99957,-13.849173 16.49936,-21.927855 5.49978,-8.078689 9.89962,-15.003277 12.09953,-20.773759 2.19992,-5.770494 2.19992,-10.386884 2.19992,-15.003275 l 1.02662,-3.385355 c -1.41748,-4.975695 -2.83569,-9.950627 -1.00243,-14.310809 1.83326,-4.360182 6.918,-8.10408 5.52471,-13.0543844 -1.39327,-4.9495428 -9.26456,-11.1047324 -7.40637,-15.4387506 1.85747,-4.334793 13.44369,-6.847644 12.41705,-14.054602 -1.02663,-7.206958 -14.66606,-19.106473 -14.61696,-26.134159 0.0484,-7.026917 13.78613,-9.181232 15.6194,-13.515256 1.83325,-4.334793 -8.23795,-10.848514 -10.5354,-17.132192 -2.29744,-6.28368 3.17741,-12.335775 6.62395,-12.874351 3.44652,-0.538586 4.86474,4.436348 7.4313,2.564402 2.56657,-1.871937 6.2815,-10.592306 9.21471,-14.747056 2.93323,-4.15475 5.08473,-3.74391 7.23551,-3.33381 2.15078,0.41009 4.3023,0.82095 5.69559,5.77048 1.39327,4.94955 2.02832,14.439317 3.81317,17.10606 1.78415,2.667486 4.71736,-1.487272 7.79724,0.256975 3.07988,1.743448 6.30641,9.386665 2.10238,14.464684 -4.20476,5.07803 -15.83938,7.590894 -15.52186,12.335771 0.31753,4.74488 12.58864,11.720247 10.3638,18.337075 -2.22412,6.616825 -18.94346,12.875108 -22.26753,19.286516 -3.3248,6.411396 6.7464,12.977442 7.06393,17.7215544 0.31752,4.74487701 -9.11719,7.6685959 -12.05041,11.8233393 -2.93321,4.1547543 0.63505,9.5405433 0.9533,14.2854323 0.31752,4.744102 -2.6157,8.848076 -5.54892,12.951276 l -0.73331,1.07716 c -2.1999,4.616391 -4.39982,9.232781 -3.29986,10.386884 1.09996,1.154093 5.49978,-1.154103 9.89961,-3.462298 l 0,-5.231914 c 2.34657,-4.564837 4.69315,-9.130448 8.92212,-10.84851 4.22823,-1.718073 10.3396,-0.590133 12.66124,-5.12958 2.32238,-4.539449 0.85576,-14.7462967 5.10894,-16.4651304 4.25316,-1.7180633 14.22611,5.052637 18.38173,-0.820179 4.15492,-5.8735904 2.49324,-24.3899336 7.25973,-29.2886966 4.76647,-4.898751 15.96112,3.821601 20.21428,2.128929 4.25323,-1.692682 1.56488,-13.798391 4.17983,-19.953581 2.61569,-6.155187 10.5354,-6.359847 13.32195,-4.205531 2.78655,2.154315 0.43998,6.667603 3.49566,7.232346 3.05495,0.56397 11.51288,-2.821386 16.37689,-3.565393 4.86403,-0.743239 6.13556,1.154097 7.40638,3.052204 1.27082,1.8981 2.54237,3.795438 0.1958,8.334898 -2.34658,4.539448 -8.31128,11.721015 -8.84879,14.926321 -0.53752,3.206091 4.35069,2.436692 5.35313,5.92437 1.00242,3.48845 -1.88241,11.2332279 -8.28636,11.72101588 -6.40395,0.48703776 -16.32848,-6.28367308 -19.31011,-2.69288898 -2.98234,3.59000982 0.9775,17.5422791 -5.05979,20.5683311 -6.03803,3.026042 -22.07248,-4.872599 -28.74554,-2.795222 -6.67308,2.077364 -3.98479,14.130771 -6.9664,17.721555 -2.98236,3.590772 -11.63534,-1.282589 -16.47516,-0.51319 -4.83982,0.769397 -5.86643,7.181555 -8.82386,10.746188 -2.95815,3.564621 -7.84635,4.283238 -12.7353,5.001084 l -1.02663,1.07716 c -6.59974,2.308195 -13.19949,4.616391 -17.59931,6.924585 -4.39983,2.308197 -6.59975,4.616393 -7.69969,6.924588 -1.09996,2.308195 -1.09996,4.61639 1.09994,4.61639 2.19992,0 6.59975,-2.308195 10.99957,-4.61639 l -1.4666,0 c 4.39983,-2.308195 8.79965,-4.616391 13.19948,-3.462288 4.39984,1.154093 8.79966,5.770483 13.19949,3.462288 4.39982,-2.308195 8.79965,-11.540978 13.19949,-10.386874 4.39982,1.154092 8.79965,12.695069 15.39939,10.386874 6.59975,-2.308195 15.3994,-18.465564 21.99914,-19.619655 6.59975,-1.154104 10.99958,12.695067 15.3994,13.849172 4.39983,1.154092 8.79965,-10.386885 14.29944,-13.849172 5.49978,-3.462299 12.09953,1.154091 13.19949,4.616391 1.09996,3.462286 -3.29987,5.770482 -1.09996,8.078676 2.19992,2.308197 10.99957,4.616393 15.39941,6.924588 4.39982,2.308195 4.39982,4.61639 4.39982,6.924586 0,2.308195 0,4.61639 -4.39982,6.92459 -4.39984,2.308195 -13.19949,4.61639 -15.39941,6.924586 -2.19991,2.308195 2.19992,4.61639 1.09996,8.078692 -1.09996,3.462282 -7.69971,8.078675 -13.19949,4.616394 -5.49979,-3.462304 -9.89961,-15.003282 -14.29944,-13.849179 -4.39982,1.154093 -8.79965,15.003269 -15.3994,13.849179 -6.59974,-1.154112 -15.39939,-17.311477 -21.99914,-19.619672 -6.59974,-2.3082 -10.99957,9.232781 -15.39939,10.386884 -4.39984,1.154092 -8.79967,-8.078689 -13.19949,-10.386884 -4.39983,-2.3082 -8.79965,2.308195 -13.19949,3.462298 -4.39983,1.154092 -8.79965,-1.154103 -13.19948,-3.462298 l 1.4666,0 c -4.39982,0 -8.79965,0 -12.09951,0 -3.29988,0 -5.49979,0 -7.69971,1.154103 -2.19992,1.154092 -4.39983,3.462287 -5.49978,5.770483 -1.09996,2.308195 -1.09996,4.61639 2.19992,5.770493 3.29986,1.154098 9.89961,1.154098 16.49935,1.154098 l 13.78613,4.462515 c 4.93734,0.307747 9.87541,0.615504 13.12615,3.898526 3.25074,3.282268 4.81561,9.540548 9.70381,9.848318 4.88895,0.30775 13.10196,-5.33502 16.37764,-2.02661 3.27494,3.30842 1.61326,15.568 8.433,17.02986 6.81974,1.46187 22.12087,-7.87402 28.37888,-5.41194 6.2573,2.46207 3.47074,16.7221 6.74641,20.03051 3.27495,3.30842 12.61284,-4.33482 19.04099,-4.43712 6.42889,-0.10233 9.94875,7.33467 9.23964,10.90007 -0.70837,3.56461 -5.64644,3.25687 -4.8398,6.41139 0.80663,3.15455 7.35798,9.77136 10.07121,14.07999 2.71322,4.30864 1.58834,6.30908 0.46417,8.30952 -1.12416,2.00042 -2.24904,4.00086 -7.16218,3.69311 -4.91314,-0.30777 -13.61454,-2.92373 -16.59689,-2.07737 -2.98234,0.84632 -0.24419,5.15496 -2.83569,7.56548 -2.59076,2.4113 -10.51045,2.92372 -13.63946,-2.97449 -3.12829,-5.89897 -1.46661,-18.20935 -5.84151,-19.51733 -4.37564,-1.30798 -14.78856,8.38644 -19.94589,3.94933 -5.15807,-4.43635 -5.05979,-23.00503 -9.67961,-28.46774 -4.61983,-5.46274 -13.95774,2.18047 -18.33262,0.84632 -4.37563,-1.33336 -3.789,-11.64329 -6.47802,-15.95193 -2.68829,-4.30863 -8.653,-2.61595 -13.0037,-3.92393 -4.35069,-1.30797 -7.08884,-5.6166 -9.82628,-9.92524 l -2.05325,-2.46207 c -2.19992,-2.3082 -4.39982,-4.616393 -8.79966,-5.770483 -4.39983,-1.154101 -10.99957,-1.154101 -14.29943,0 -3.29989,1.15409 -3.29989,3.462283 0,6.924583 3.29986,3.46229 9.8996,8.07868 13.19949,12.69507 3.29986,4.61639 3.29986,9.23278 3.29986,12.69508 0,3.46229 0,5.77048 -1.09996,6.92458 -1.09996,1.15409 -3.29987,1.15409 -4.39982,-1.1541 -1.09997,-2.30819 -1.09997,-6.92458 -4.39983,-11.54098 -3.29988,-4.61639 -9.89963,-9.23277 -16.49936,-11.54097 -6.59974,-2.30819 -13.19949,-2.30819 -16.49935,2.3082 -3.29988,4.61638 -3.29988,13.84917 -4.39984,21.92785 -1.09995,8.07867 -3.29987,20.15499 -3.29987,25.92547 0,5.7705 2.19992,10.38689 2.19992,16.15738 0,5.77048 -2.19992,12.69507 -2.19992,18.46556 0,5.77048 2.19992,10.38688 2.19992,16.15737 0,5.77048 -0.39183,18.58187 -0.39183,24.35236 0,5.77048 2.19992,11.12194 2.19992,16.89243 0,5.77048 -0.39184,13.43014 -1.49179,21.50883 -1.09997,8.07867 -1.09997,18.04653 -0.46192,25.78892 -0.46192,9.69846 2.8442,21.23994 1.41065,29.84117 -1.43353,8.60122 -0.37438,20.1427 1.05915,27.31039 1.43355,7.16768 3.55169,12.90183 3.55169,18.63597 0,5.73415 -1.05898,16.61375 -1.05898,23.78144 0,7.16769 4.67516,16.50398 4.67516,25.1052 0,8.60123 -0.31005,23.08296 -1.7436,34.55125 -1.43353,11.4683 -1.43353,25.80368 0,37.27198 1.43355,11.46829 4.30062,20.06951 11.4683,18.63598 7.16769,-1.43354 18.63599,-12.90184 30.10429,-12.90184 11.46829,0 22.93659,11.4683 35.83842,11.4683 12.90184,0 27.23721,-11.4683 38.70552,-14.33537 11.4683,-2.86707 20.06952,2.86707 28.67074,4.30062 8.60123,1.43353 17.20245,-1.43355 21.50306,-1.43355 4.30061,0 4.30061,2.86708 1.43354,5.73415 -2.86707,2.86707 -8.60122,5.73415 -14.33537,7.16769 -5.73415,1.43353 -11.4683,1.43353 -14.33537,2.86708 -2.86708,1.43353 -2.86708,4.3006 -1.43354,7.16767 1.43354,2.86708 4.30061,5.73416 4.30061,7.16771 0,1.43353 -2.86707,1.43353 -7.16769,-1.43355 -4.30061,-2.86708 -10.03476,-8.60123 -14.33537,-11.4683 -4.30061,-2.86708 -7.16768,-2.86708 -7.16768,-1.43353 0,1.43353 2.86707,4.3006 1.43353,5.73414 -1.43353,1.43353 -7.16768,1.43353 -10.03477,2.86708 -2.86707,1.43353 -2.86707,4.30061 0,8.60123 2.86709,4.3006 8.60124,10.03475 8.60124,12.90183 0,2.86707 -5.73415,2.86707 -11.46831,0 -5.73415,-2.86708 -11.4683,-8.60123 -15.76892,-10.03476 -4.3006,-1.43354 -7.16767,1.43353 -10.03475,1.43353 -2.86707,0 -5.73415,-2.86707 -7.16769,-1.43353 -1.43353,1.43353 -1.43353,7.16768 1.43354,12.90183 2.86708,5.73415 8.60123,11.4683 11.4683,15.76891 2.86707,4.30061 2.86707,7.16768 -1.43354,7.16768 -4.30061,0 -12.90183,-2.86707 -18.63598,-1.43353 -5.73415,1.43353 -8.60123,7.16768 -11.4683,10.03475 -2.86708,2.86708 -5.73415,2.86708 -7.16769,1.43355 -1.43353,-1.43355 -1.43353,-4.30062 1.43354,-8.60122 2.86707,-4.30062 8.60122,-10.03477 10.03475,-17.20245 1.43355,-7.16769 -1.43353,-15.76891 -4.3006,-21.50306 -2.86708,-5.73415 -5.73415,-8.60123 -8.60122,-8.60123 -2.86708,0 -5.73415,2.86708 -7.1677,7.1677 -1.43353,4.3006 -1.43353,10.03475 -2.86707,12.90183 -1.43353,2.86707 -4.3006,2.86707 -5.73415,0 -1.43353,-2.86708 -1.43353,-8.60123 -4.3006,-10.03476 -2.86708,-1.43354 -8.60122,1.43353 -12.90184,2.86708 -4.30061,1.43353 -7.16768,1.43353 -7.16768,4.3006 0,2.86708 2.86707,8.60122 7.16768,12.90184 4.30062,4.30061 10.03476,7.16768 12.90184,12.90183 2.86707,5.73415 2.86707,14.33537 1.43353,18.636 -1.43353,4.3006 -4.30061,4.3006 -5.73415,1.43353 -1.43353,-2.86708 -1.43353,-8.60124 -4.3006,-12.90184 -2.86708,-4.30062 -8.60123,-7.16769 -12.90185,-7.16769 -4.30061,0 -7.16768,2.86707 -8.60122,7.16769 -1.43353,4.3006 -1.43353,10.03476 -4.30061,11.46831 -2.86707,1.43353 -8.60122,-1.43355 -8.60122,-8.60124 0,-7.16769 5.73415,-18.63598 5.73415,-28.67074 0,-10.03476 -5.73415,-18.63598 -10.03477,-22.93659 -4.3006,-4.30063 -7.16768,-4.30063 -11.46829,-2.86708 -4.30061,1.43353 -10.03476,4.30061 -14.33537,8.60123 -4.30061,4.3006 -7.16769,10.03475 -5.73416,14.33537 1.43355,4.3006 7.1677,7.16768 11.4683,11.4683 4.30062,4.3006 7.1677,10.03475 7.1677,17.20244 0,7.16768 -2.86708,15.76891 -4.30062,17.20245 -1.43353,1.43353 -1.43353,-4.30061 -4.30061,-10.03477 -2.86707,-5.73415 -8.60122,-11.4683 -12.90185,-14.33537 -4.3006,-2.86708 -7.16767,-2.86708 -10.03475,-1.43353 -2.86707,1.43353 -5.73415,4.3006 -5.73415,10.03475 0,5.73415 2.86708,14.33538 0,15.76892 -2.86707,1.43353 -11.46829,-4.30061 -12.90184,-12.90185 -1.43353,-8.60122 4.30062,-20.06951 8.60123,-28.67074 4.30061,-8.60122 7.16769,-14.33537 2.86707,-15.7689 -4.3006,-1.43354 -15.7689,1.43353 -20.06952,4.30061 -4.3006,2.86707 -1.43353,5.73415 -2.86707,7.16769 -1.43353,1.43353 -7.16768,1.43353 -10.03475,-1.43354 -2.86708,-2.86708 -2.86708,-8.60123 -4.30063,-11.4683 -1.43353,-2.86707 -4.30061,-2.86707 -7.16768,0 -2.86707,2.86707 -5.73415,8.60122 -2.86707,15.76891 2.86707,7.16768 11.4683,15.7689 14.33538,22.9366 2.86707,7.16767 0,12.90183 -2.86708,14.33538 -2.86708,1.43353 -5.73416,-1.43355 -8.60123,-5.73416 -2.86707,-4.30062 -5.73415,-10.03477 -10.034761,-11.4683 -4.30061,-1.43354 -10.034759,1.43353 -14.335369,1.43353 -4.30061,0 -7.16768,-2.86707 -7.16768,-5.73415 0,-2.86707 2.86707,-5.73414 5.73415,-7.16767 2.86707,-1.43355 5.73414,-1.43355 7.16767,-5.73415 1.43355,-4.30062 1.43355,-12.90184 2.867082,-18.63599 1.433537,-5.73415 4.300617,-8.60123 1.433537,-8.60123 -2.867069,0 -11.468289,2.86708 -17.202439,4.30063 -5.73415,1.43353 -8.60122,1.43353 -11.4683,4.3006 -2.86707,2.86707 -5.73415,8.60122 -5.73415,12.90184 0,4.3006 2.86708,7.16768 2.86708,10.03475 0,2.86708 -2.86708,5.73415 -5.73416,4.30062 -2.86707,-1.43354 -5.73415,-7.16769 -10.03477,-10.03477 -4.3006,-2.86707 -10.03475,-2.86707 -12.90182,-4.3006 -2.86708,-1.43354 -2.86708,-4.30062 0,-5.73415 2.86707,-1.43354 8.60122,-1.43354 12.90182,-4.30062 4.30062,-2.86707 7.1677,-8.60122 5.73415,-10.03475 -1.43353,-1.43355 -7.16768,1.43353 -11.46829,0 -4.30061,-1.43355 -7.16768,-7.1677 -12.90183,-8.60123 -5.73415,-1.43354 -14.33537,1.43353 -22.9365904,0 -8.6012294,-1.43354 -17.2024596,-7.16769 -20.0695296,-11.4683 -2.867069,-4.30061 0,-7.16769 4.3006004,-5.73414 4.30062,1.43353 10.03476973,7.16767 18.6359992,7.16767 8.6012204,0 20.0695204,-5.73414 31.5378204,-4.3006 11.46829,1.43353 22.9366,10.03475 34.40489,8.60122 11.4683,-1.43354 22.936599,-12.90184 32.97135,-14.33537 10.03477,-1.43354 18.63599,7.16768 27.23722,8.60122 8.60122,1.43353 17.20244,-4.30061 22.93659,-11.46829 5.73415,-7.16769 8.60122,-15.76891 10.03475,-25.80367 1.43354,-10.03477 3.99056,-21.50307 2.55702,-31.53782 -1.43353,-10.03477 -3.39656,-24.5165 -3.39656,-31.68418 0,-7.1677 2.86707,-13.63692 2.86707,-20.80459 0,-7.1677 -4.67516,-20.91437 -4.67516,-28.08204 0,-7.1677 4.67516,-13.6369 4.67516,-20.80459 0,-7.16769 -4.67516,-19.44424 -4.67516,-26.61191 0,-7.1677 1.48536,-16.0311 1.48536,-23.19879 z"
       id="use3153"
       style="fill:#225500" />
  </g>
  <path
     d="m 249.55062,1.4395041 -124.0505,0 -124.050551,0 0,173.4965959 c -0.76723996,93.72088 80.28944,127.81975 124.050531,127.81975 42.99385,0 124.81775,-34.09887 124.05052,-127.81975 l 0,-173.4965959 z"
     id="Frame"
     style="fill:none;stroke:#000000;stroke-width:1.88832211;stroke-linejoin:bevel" />
</svg>
