<?xml version="1.0" encoding="UTF-8" standalone="no"?>
<!-- Created with Inkscape (http://www.inkscape.org/) -->
<svg
   xmlns:svg="http://www.w3.org/2000/svg"
   xmlns="http://www.w3.org/2000/svg"
   version="1.0"
   width="251"
   height="304">
  <path
     d="M 249.55058,1.4395041 L 1.4495291,1.4395041 L 1.4495291,174.9361 C 0.68228908,268.65698 81.738969,302.75585 125.50006,302.75585 C 168.49391,302.75585 250.31781,268.65698 249.55058,174.9361 L 249.55058,1.4395041 z"
     id="Shield"
     style="fill:#003d8f" />
  <g
     id="bojort"
     style="fill:#ffcd50;stroke:#003d8f;">
    <path
       id="path3176"
       style="fill:none;stroke:#ffcd50"
       d="M 12.792764,143.00466 C 29.412691,131.91681 84.570169,74.678902 89.349619,27.219778 C 99.810877,40.486913 116.73026,50.743277 151.00858,16.172718 C 162.4679,53.506704 175.70813,120.48134 208.31861,165.17031 M 88.566412,40.261576 C 88.162325,82.256821 68.695738,135.35213 47.374634,168.16617" />
    <path
       d="M 218.21947,127.19303 C 215.43776,134.93174 214.76219,138.15615 211.02851,160.18736 C 210.55586,162.97635 215.13772,160.35158 215.13772,160.35158 C 216.54299,140.13875 218.98039,135.25858 221.16543,125.77881 C 222.13352,121.57876 219.46813,122.32249 218.21947,127.19303 z"
       id="flaggstång" />
    <path
       d="M 152.54911,15.389827 L 88.657123,67.109348 L 89.204876,179.797 C 100.2747,179.16093 100.52464,160.64658 90.463589,148.67489 C 100.74526,147.64532 100.18429,131.70129 90.370916,118.29267 C 97.925375,118.66482 101.09741,102.87413 90.783166,93.091444 C 97.911639,92.443454 100.76758,77.566267 90.473938,68.109943 C 100.65511,74.681496 116.01118,58.881446 113.28274,51.295658 C 122.54352,57.003516 136.11156,41.787857 132.86248,35.460172 C 142.23559,39.472559 151.68545,27.174709 152.54911,15.389827 z"
       id="segel" />
    <path
       id="märsrå"
       d="M 77.042477,45.205457 C 80.399264,43.835354 96.826615,40.500963 99.861563,40.874386 C 101.64065,41.093285 102.38144,38.165161 99.01976,37.984029 C 95.452423,37.791815 83.130142,40.251652 78.546471,41.600774 C 73.745411,43.01388 74.681329,46.169181 77.042477,45.205457 z" />
    <path
       id="gaffel"
       d="M 88.044727,65.009057 C 121.10796,37.681868 124.76925,35.197224 148.9491,16.268947 C 152.58413,13.423398 153.288,17.019972 151.93775,18.199203 C 127.90992,39.183782 118.66708,44.282862 88.461448,71.076406 L 88.044727,65.009057 z" />
    <path
       id="bogspröt"
       d="M 51.93063,167.21256 L 12.64024,142.11549 C 11.020069,141.05406 10.060887,143.46839 11.465025,144.43435 L 53.720569,174.48264" />
    <path
       id="mast"
       d="M 90.447731,197.319 L 84.121118,193.41554 L 86.605203,15.471674 C 86.503431,10.019966 90.598962,9.9766587 90.816564,15.32361 L 90.447731,197.319 z" />
    <g
       transform="matrix(0.9132663,0,0,1.0001607,0.9203017,-1.8320241e-2)"
       id="skrov">
      <path
         d="M 54.578334,166.57536 C 46.047971,212.43015 71.7512,216.25048 134.6306,216.99725 C 198.59259,217.76398 233.819,219.98293 230.75819,179.5559 C 233.66785,178.07171 237.67282,175.91257 241.01019,172.60371 C 239.96313,167.82061 239.32904,162.2249 240.19973,155.60707 C 165.76862,194.44691 84.018418,181.29678 54.578334,166.57536 z"
         id="path2432" />
      <path
         style="fill:none"
         id="path2434"
         d="M 230.84507,179.6184 C 186.70511,202.01882 48.029894,195.08378 53.312509,176.91897 M 230.72128,188.10553 C 163.87302,211.92771 51.23893,196.28003 53.186311,184.36241 M 229.01582,197.21181 C 166.25478,220.18608 54.517472,206.00886 54.145027,191.28508 M 239.7666,165.52514 C 185.61355,197.61698 50.554138,186.91326 53.731371,171.33526" />
    </g>
    <path
       d="M 87.908917,66.398601 L 104.54749,182.41724 C 104.78303,184.02667 106.5699,183.63395 106.34548,182.10469 L 104.03377,166.35216 C 107.02978,168.49065 109.56004,168.84389 111.33991,166.32091 L 115.16421,182.47975 C 115.61273,184.37491 117.37254,183.84262 116.93366,181.97967 L 113.25206,166.35216 C 116.36105,167.97299 119.38552,169.81853 122.18494,166.57095 L 127.75016,182.85481 C 128.26489,184.36092 130.19921,184.32429 129.46253,182.1672 L 89.278816,66.211071 C 88.566883,64.240501 87.917712,64.329707 87.908917,66.398601 z M 92.931881,80.932186 L 98.38294,96.809738 L 96.813263,96.778483 L 92.931881,80.932186 z M 91.447824,80.932186 L 94.929651,96.778483 L 93.873687,96.778483 L 91.447824,80.932186 z M 94.159083,98.778804 L 95.414824,98.778804 L 98.925192,113.65619 C 98.770886,115.20393 98.031177,115.46949 96.35663,113.68745 L 94.159083,98.778804 z M 97.298436,98.810059 L 99.067889,98.841314 L 104.14793,113.74996 C 103.66822,115.34751 102.16267,114.32366 100.8088,113.68745 L 97.298436,98.810059 z M 99.381825,115.65652 L 102.89219,130.53391 C 101.86969,132.20946 100.44075,131.88203 98.811033,130.56516 L 96.642026,115.68777 C 97.489802,116.17941 98.248096,117.35704 99.381825,115.65652 z M 101.29398,115.68777 C 102.58674,116.46237 103.84055,116.98103 104.83288,115.78154 L 104.86142,115.78154 L 109.94147,130.69018 C 109.01053,132.46598 107.26201,132.48004 104.80434,130.56516 L 101.29398,115.68777 z M 103.37736,132.53423 L 106.88773,147.44287 C 105.34228,149.4601 104.18408,149.3929 101.29398,147.47413 L 99.096429,132.56548 C 101.03751,134.05645 102.34629,133.70084 103.37736,132.53423 z M 105.26098,132.56548 C 107.70117,134.56989 109.40261,134.34944 110.62642,132.6905 L 115.735,147.6304 C 113.79619,149.91924 111.42183,148.78829 108.77134,147.47413 L 105.26098,132.56548 z M 107.3729,149.44319 L 110.88327,164.32058 C 108.28098,168.3752 106.06703,165.18703 103.74838,164.35184 L 101.57937,149.47445 C 103.64143,150.69851 105.35818,151.52671 107.3729,149.44319 z M 109.25652,149.47445 C 111.89728,151.47608 114.15622,151.42581 116.41995,149.66198 L 121.47145,164.53937 C 119.51941,168.35077 116.22663,165.96528 112.76688,164.35184 L 109.25652,149.47445 z"
       id="path3299"
       style="stroke-width:0.75" />
    <g
       transform="matrix(0.9132663,0,0,1.0001607,0.9203017,-1.8320241e-2)"
       id="läbord">
      <path
         id="path2438"
         d="M 153.27539,185.77529 C 176.04789,186.86121 171.84182,222.41832 145.62069,214.12026 C 109.50952,202.69235 98.072373,196.64844 101.12633,188.26573 C 103.91889,180.60051 115.85218,184.0076 153.27539,185.77529 z" />
      <path
         d="M 110.8753,183.62732 C 114.86946,187.40805 111.20055,195.35951 105.76578,197.67996 M 112.88597,187.76892 L 166.48466,194.88125 M 109.80261,195.03461 L 161.55198,212.80024 M 111.79358,191.65403 L 167.50793,204.06861"
         style="fill:none"
         id="path2436" />
    </g>
  </g>
  <g
     transform="matrix(-0.2521348,0,0,0.2441038,138.77671,-38.35247)"
     id="flagga">
    <path
       d="M 190.35856,276.75957 C 187.83924,276.75957 187.66732,210.0249 191.12774,210.0249 C 191.12774,210.0249 175.76826,231.6597 158.14204,229.1211 C 129.93871,225.05914 121.15185,254.62721 95.557949,262.88191 C 100.05465,285.36543 90.679612,317.22992 90.679612,317.22992 C 130.05088,307.56662 131.40205,275.30692 161.14181,283.83891 C 185.30447,290.77089 190.35856,276.75957 190.35856,276.75957 z"
       style="fill:#000080;stroke:none"
       id="flaggbakgrund" />
    <path
       d="M 146.16255,229.51912 C 147.84034,236.99925 148.91633,244.40519 149.5063,251.73787 C 129.06082,252.57561 120.15644,279.28117 96.537557,283.17537 C 96.301298,287.11091 95.930716,290.99464 95.412557,294.64412 C 125.28046,285.57934 131.65541,263.12008 150.0063,261.11287 C 150.19565,268.33046 149.95052,275.48149 149.3813,282.58162 C 152.32388,282.65731 154.73727,285.14931 160.0688,283.58162 C 159.16717,277.44904 158.80894,269.59632 158.53755,261.55037 C 169.71284,264.88893 180.63732,263.88142 188.6313,257.08162 C 188.53679,252.7221 188.48406,248.03433 188.5063,243.30037 C 182.99624,249.64877 173.87324,256.8522 158.2563,252.86287 C 157.94576,243.45456 157.52258,234.61503 156.28755,228.95662 C 153.93176,228.55213 150.1099,228.84622 146.16255,229.51912 z"
       style="fill:#eec400;stroke:none"
       id="flaggkors" />
  </g>
  <g
     transform="matrix(-0.2911035,-7.0656947e-2,-6.6173723e-2,0.3083255,290.79667,73.79846)"
     id="flagga2">
    <path
       d="M 190.35856,276.75957 C 187.83924,276.75957 187.66732,210.0249 191.12774,210.0249 C 191.12774,210.0249 175.76826,231.6597 158.14204,229.1211 C 129.93871,225.05914 121.15185,254.62721 95.557949,262.88191 C 100.05465,285.36543 90.679612,317.22992 90.679612,317.22992 C 130.05088,307.56662 131.40205,275.30692 161.14181,283.83891 C 185.30447,290.77089 190.35856,276.75957 190.35856,276.75957 z"
       style="fill:#000080;stroke:none"
       id="path2534" />
    <path
       d="M 146.16255,229.51912 C 147.84034,236.99925 148.91633,244.40519 149.5063,251.73787 C 129.06082,252.57561 120.15644,279.28117 96.537557,283.17537 C 96.301298,287.11091 95.930716,290.99464 95.412557,294.64412 C 125.28046,285.57934 131.65541,263.12008 150.0063,261.11287 C 150.19565,268.33046 149.95052,275.48149 149.3813,282.58162 C 152.32388,282.65731 154.73727,285.14931 160.0688,283.58162 C 159.16717,277.44904 158.80894,269.59632 158.53755,261.55037 C 169.71284,264.88893 180.63732,263.88142 188.6313,257.08162 C 188.53679,252.7221 188.48406,248.03433 188.5063,243.30037 C 182.99624,249.64877 173.87324,256.8522 158.2563,252.86287 C 157.94576,243.45456 157.52258,234.61503 156.28755,228.95662 C 153.93176,228.55213 150.1099,228.84622 146.16255,229.51912 z"
       style="fill:#eec400;stroke:none"
       id="path2536" />
  </g>
  <path
     d="M 33.4065,190.18751 C 18.042667,190.18751 12.575519,198.7222 4.219,204.75001 C 18.717654,276.00024 86.73669,302.75001 125.50025,302.75001 C 164.28839,302.75 234.66296,274.9998 247.50025,200.75001 C 241.40828,195.52965 235.4318,190.18751 223.2815,190.18751 C 199.54449,190.18751 199.581,210.62501 175.844,210.62501 C 152.10699,210.62499 152.11226,190.18751 128.37525,190.18751 C 104.63824,190.18751 104.64351,210.62501 80.9065,210.62501 C 57.169484,210.62499 57.143503,190.18751 33.4065,190.18751 z"
     style="fill:#eeeeee;stroke:#003d8f"
     id="Vagskura" />
  <path
     d="M 249.55062,1.4395041 L 1.449569,1.4395041 L 1.449569,174.9361 C 0.68232904,268.65698 81.739009,302.75585 125.5001,302.75585 C 168.49395,302.75585 250.31785,268.65698 249.55062,174.9361 L 249.55062,1.4395041 z "
     style="fill:none;fill-opacity:0;stroke:#000000;stroke-width:1.88832211;stroke-linejoin:bevel"
     id="Frame" />
</svg>
