<?xml version="1.0" encoding="UTF-8" standalone="no"?>
<!-- Created with Inkscape (http://www.inkscape.org/) -->
<svg
   xmlns:dc="http://purl.org/dc/elements/1.1/"
   xmlns:cc="http://web.resource.org/cc/"
   xmlns:rdf="http://www.w3.org/1999/02/22-rdf-syntax-ns#"
   xmlns:svg="http://www.w3.org/2000/svg"
   xmlns="http://www.w3.org/2000/svg"
   xmlns:xlink="http://www.w3.org/1999/xlink"
   version="1.0"
   width="251"
   height="304.20001"
   id="svg4166">
  <defs
     id="defs4168" />
  <metadata
     id="metadata1880"><rdf:RDF><cc:Work
         rdf:about=""><dc:title>Alingsas kommunvapen</dc:title><dc:date>06-09-2007</dc:date><dc:creator><cc:Agent><dc:title>Lokal_Profil</dc:title></cc:Agent></dc:creator><cc:license
         rdf:resource="http://creativecommons.org/licenses/by-sa/2.5/" /><dc:rights><cc:Agent><dc:title>cc-by-sa-2.5</dc:title></cc:Agent></dc:rights><dc:format>image/svg+xml</dc:format><dc:type
         rdf:resource="http://purl.org/dc/dcmitype/StillImage" /></cc:Work><cc:License
         rdf:about="http://creativecommons.org/licenses/by-sa/2.5/"><cc:permits
         rdf:resource="http://web.resource.org/cc/Reproduction" /><cc:permits
         rdf:resource="http://web.resource.org/cc/Distribution" /><cc:requires
         rdf:resource="http://web.resource.org/cc/Notice" /><cc:requires
         rdf:resource="http://web.resource.org/cc/Attribution" /><cc:permits
         rdf:resource="http://web.resource.org/cc/DerivativeWorks" /><cc:requires
         rdf:resource="http://web.resource.org/cc/ShareAlike" /></cc:License></rdf:RDF>
  </metadata>
  <path
     d="M 249.55058,1.4395041 L 125.50008,1.4395041 L 1.4495291,1.4395041 L 1.4495291,174.9361 C 0.68228908,268.65698 81.738969,302.75585 125.50006,302.75585 C 168.49391,302.75585 250.31781,268.65698 249.55058,174.9361 L 249.55058,1.4395041 z"
     id="Shield"
     style="fill:#eeeeee;fill-opacity:1;fill-rule:nonzero;stroke:none;stroke-width:1.88832211;stroke-linecap:round;stroke-linejoin:bevel;marker:none;marker-start:none;marker-mid:none;marker-end:none;stroke-miterlimit:4;stroke-dashoffset:0;stroke-opacity:1;visibility:visible;display:block" />
  <path
     d="M 35.5625,263.96875 C 62.749056,291.44193 100.30656,302.75 125.5,302.75 C 150.25174,302.74999 187.86468,291.44193 215.1875,263.96875 L 35.5625,263.96875 z"
     id="Mark"
     style="fill:#225500;fill-opacity:1;stroke:#eeeeee;stroke-width:0.1;stroke-miterlimit:4;stroke-opacity:1" />
  <g
     transform="matrix(1,0,0,0.830815,8.537598e-7,-21.55779)"
     id="Oak-tree">
    <path
       d="M 95.196968,144.52557 C 95.196968,143.51547 95.196968,142.50537 95.702021,140.48517 C 96.207069,138.46496 97.21717,135.43466 99.237371,133.41446 C 101.25757,131.39426 104.28788,130.38416 106.30808,130.88921 C 108.32828,131.39426 109.33838,133.41446 110.34848,135.93971 C 111.35858,138.46496 112.36868,141.49527 112.36868,145.03062 C 111.57007,213.5065 113.06021,282.11451 108.83333,350.65378 C 108.83333,350.65378 139.03476,347.82076 139.03476,347.82076 C 139.3531,279.92827 134.99509,211.89491 137.11616,144.02052 C 137.62121,140.48517 137.62121,136.44476 139.13636,134.42456 C 140.65151,132.40436 143.68181,132.40436 146.71212,133.41446 C 149.74242,134.42456 152.77272,136.44476 154.28788,138.46496 C 155.80302,140.48517 155.80302,142.50537 156.30808,143.51547 C 156.81313,144.52557 157.82323,144.52557 158.32828,144.02052 C 158.83333,143.51547 158.83333,142.50537 158.83333,140.99022 C 158.83333,139.47506 158.83333,137.45486 157.31818,135.43466 C 155.80302,133.41446 152.77272,131.39426 151.25757,129.87911 C 149.74242,128.36395 149.74242,127.35385 151.25757,126.8488 C 152.77272,126.34375 155.80302,126.34375 157.82323,126.8488 C 159.84343,127.35385 160.85353,128.36395 161.86363,129.37405 L 162.80639,130.45149 C 164.0633,132.33702 165.32053,134.22254 167.31817,134.79493 C 169.31582,135.36732 172.05454,134.62658 173.28888,136.5121 C 174.52356,138.39763 174.2542,142.90941 176.2633,143.49291 C 178.27205,144.07675 182.55959,140.73197 184.6808,143.12254 C 186.80202,145.51311 186.75689,153.63903 189.12525,155.58045 C 191.49326,157.5222 196.2744,153.27977 198.28349,153.85216 C 200.29225,154.42455 199.52928,159.81176 200.96565,162.39324 C 202.40235,164.97439 206.03871,164.75014 207.22828,163.69492 C 208.41817,162.64004 207.16094,160.75452 208.53029,160.38415 C 209.89966,160.01378 213.89494,161.15856 216.15083,161.29324 C 218.40672,161.42792 218.92322,160.5525 219.43939,159.67708 C 219.95555,158.80166 220.47205,157.92624 219.22626,156.04071 C 217.98046,154.15519 214.97238,151.25958 214.60201,149.8791 C 214.23164,148.49864 216.49898,148.63331 216.82423,147.07338 C 217.14982,145.51311 215.53366,142.25857 212.58181,142.30335 C 209.63029,142.34813 205.34276,145.69291 203.83905,144.2451 C 202.33501,142.79728 203.61447,136.55688 200.7414,135.47944 C 197.86801,134.402 190.84242,138.48752 187.71111,137.84779 C 184.57979,137.20806 185.34275,131.84308 183.83905,130.39527 C 182.33501,128.94746 178.56397,131.41682 176.31918,131.28214 C 174.07474,131.14745 173.35622,128.40874 171.86363,126.97237 C 170.37104,125.53567 168.1037,125.40099 165.8367,125.26631 L 159.50673,123.31345 C 156.47643,123.31345 153.44612,123.31345 151.93097,122.8084 C 150.41582,122.30335 150.41582,121.29325 150.92087,120.28315 C 151.42592,119.27304 152.43602,118.26294 153.44612,117.75789 C 154.45622,117.25284 155.46632,117.25284 156.98148,117.25284 C 158.49663,117.25284 160.51683,117.25284 162.53703,117.25284 L 161.86363,117.25284 C 163.88383,118.26294 165.90403,119.27304 167.92424,118.76799 C 169.94444,118.26294 171.96464,116.24274 173.98484,117.25284 C 176.00504,118.26294 178.02525,122.30335 180.04545,121.7983 C 182.06565,121.29325 184.08585,116.24274 187.11616,117.25284 C 190.14646,118.26294 194.18686,125.33365 197.21716,125.8387 C 200.24747,126.34375 202.26767,120.28315 204.28787,119.7781 C 206.30807,119.27304 208.32828,124.32355 210.85353,125.8387 C 213.37878,127.35385 216.40908,125.33365 216.91414,123.8185 C 217.41918,122.30335 215.39898,121.29325 216.40908,120.28315 C 217.41918,119.27304 221.45959,118.26294 223.47979,117.25284 C 225.49999,116.24274 225.49999,115.23264 225.49999,114.22254 C 225.49999,113.21244 225.49999,112.20233 223.47979,111.19223 C 221.45959,110.18213 217.41918,109.17203 216.40908,108.16193 C 215.39898,107.15183 217.41918,106.14173 216.91414,104.62658 C 216.40908,103.11142 213.37878,101.09122 210.85353,102.60638 C 208.32828,104.12153 206.30807,109.17203 204.28787,108.66698 C 202.26767,108.16193 200.24747,102.10132 197.21716,102.60638 C 194.18686,103.11142 190.14646,110.18213 187.11616,111.19223 C 184.08585,112.20233 182.06565,107.15183 180.04545,106.64678 C 178.02525,106.14173 176.00504,110.18213 173.98484,111.19223 C 171.96464,112.20233 169.94444,110.18213 167.92424,109.67708 C 165.90403,109.17203 163.88383,110.18213 161.86363,111.19223 L 162.53703,111.19223 C 160.51683,112.20233 158.49663,113.21244 157.48653,113.21244 C 156.47643,113.21244 156.47643,112.20233 156.98148,111.19223 C 157.48653,110.18213 158.49663,109.17203 160.51683,108.16193 C 162.53703,107.15183 165.56733,106.14173 168.59764,105.13163 L 169.06902,104.66025 C 171.3138,104.34611 173.55824,104.03163 174.91649,102.4717 C 176.27441,100.91176 176.74578,98.105702 178.96801,97.769002 C 181.19023,97.432302 185.16329,99.564962 186.53265,97.993582 C 187.90168,96.422202 186.66733,91.147452 189.73131,90.238362 C 192.79528,89.329272 200.15757,92.785842 202.92996,91.461602 C 205.70201,90.137352 203.88383,84.031632 205.25319,82.460582 C 206.62221,80.889202 211.17911,83.852172 214.11952,83.639032 C 217.05992,83.425572 218.3845,80.036342 217.92424,78.509742 C 217.46397,76.983482 215.21952,77.320182 215.46632,75.917152 C 215.71312,74.514462 218.45185,71.371702 219.52928,69.385172 C 220.60672,67.398632 220.02289,66.568332 219.43939,65.737692 C 218.85588,64.907052 218.27205,64.076752 216.03871,64.402002 C 213.80538,64.727592 209.92188,66.209072 208.51918,65.962272 C 207.11616,65.715132 208.19359,63.740052 206.91414,62.797292 C 205.63467,61.854522 201.99831,61.944092 200.7973,64.637692 C 199.59663,67.331292 200.83097,72.628932 198.87811,73.369682 C 196.92525,74.110412 191.78518,70.294262 189.59663,72.438022 C 187.40807,74.581802 188.17104,82.684832 186.26329,85.255202 C 184.35521,87.825232 179.77609,84.862272 177.82323,85.614122 C 175.87036,86.366312 176.54376,90.832982 175.47744,92.819512 C 174.41144,94.806042 171.60538,94.312432 169.66397,95.064292 C 167.72222,95.816142 166.64477,97.814122 165.56733,99.811762 L 165.56733,102.10132 C 163.54713,103.11142 161.52693,104.12153 161.02188,103.61648 C 160.51683,103.11142 161.52693,101.09122 162.53703,99.071022 L 162.87373,98.599642 C 164.22053,96.804022 165.56733,95.008062 165.42154,92.931972 C 165.27542,90.855532 163.63703,88.498632 164.98383,86.680452 C 166.33063,84.862272 170.66262,83.582812 170.51683,81.506382 C 170.37104,79.430282 165.7468,76.556882 167.2734,73.751162 C 168.79966,70.945432 176.47643,68.206712 177.49764,65.311092 C 178.51918,62.415472 172.88484,59.362942 172.73905,57.286512 C 172.59326,55.210082 177.93535,54.110422 179.86598,51.888192 C 181.79629,49.665972 180.31481,46.321192 178.90067,45.558232 C 177.48653,44.794932 176.13973,46.613112 175.32053,45.445772 C 174.50101,44.278772 174.20942,40.125902 173.56969,37.959912 C 172.92996,35.793922 171.94208,35.614122 170.95454,35.434662 C 169.967,35.255202 168.97912,35.075402 167.63232,36.893582 C 166.28552,38.711762 164.57979,42.527932 163.40134,43.347122 C 162.22289,44.166312 161.57171,41.989202 159.98922,42.224892 C 158.40673,42.460582 155.89292,45.109072 156.94781,47.858902 C 158.00269,50.608732 162.62693,53.459242 161.78518,55.356212 C 160.94343,57.252842 154.63569,58.195602 154.61346,61.270692 C 154.5909,64.346112 160.85353,69.553512 161.32491,72.707392 C 161.79629,75.861262 156.47643,76.960922 155.62356,78.857892 C 154.77036,80.754522 158.38451,83.448132 159.02424,85.614122 C 159.66396,87.780452 157.32929,89.418832 156.48754,91.326912 C 155.64579,93.235002 156.29696,95.412102 156.94781,97.589542 L 156.47643,99.071022 C 156.47643,101.09122 156.47643,103.11142 155.46632,105.63668 C 154.45622,108.16193 152.43602,111.19223 149.91077,114.72759 C 147.38552,118.26294 144.35521,122.30335 142.33501,124.32355 C 140.31481,126.34375 139.30471,126.34375 137.78956,126.34375 C 136.27441,126.34375 134.2542,126.34375 133.2441,125.33365 C 132.234,124.32355 132.234,122.30335 133.2441,120.7882 C 134.2542,119.27304 136.27441,118.26294 137.78956,117.25284 C 139.30471,116.24274 140.31481,115.23264 141.32491,113.71749 C 142.33501,112.20233 143.34511,110.18213 143.85017,108.66698 C 144.35521,107.15183 144.35521,106.14173 144.35521,105.13163 L 141.32491,102.10132 C 141.32491,104.12153 141.32491,106.14173 140.31481,108.16193 C 139.30471,110.18213 137.28451,112.20233 135.2643,113.71749 C 133.2441,115.23264 131.2239,116.24274 130.71885,115.73769 C 130.2138,115.23264 131.2239,113.21244 132.234,111.19223 C 133.2441,109.17203 134.2542,107.15183 134.2542,106.14173 C 134.2542,105.13163 133.2441,105.13163 132.234,104.62658 C 131.2239,104.12153 130.2138,103.11142 129.2037,102.10132 L 128.5303,102.10132 C 130.5505,99.071022 132.5707,96.040722 132.5707,93.010422 C 132.5707,89.980112 130.5505,86.949812 131.5606,84.424562 C 132.5707,81.899302 136.61111,79.879102 136.61111,77.858902 C 136.61111,75.838702 132.5707,73.818502 133.5808,70.788192 C 134.5909,67.757892 140.65151,63.717492 140.65151,60.687182 C 140.65151,57.656882 134.5909,55.636682 134.08586,53.616482 C 133.5808,51.596282 138.63131,49.576072 140.14646,47.050822 C 141.66161,44.525572 139.64141,41.495272 137.62121,40.990212 C 135.601,40.485172 133.5808,42.505372 132.06565,41.495272 C 130.5505,40.485172 129.5404,36.444762 128.5303,34.424562 C 127.5202,32.404362 126.5101,32.404362 125.5,32.404362 C 124.4899,32.404362 123.47979,32.404362 122.46969,34.424562 C 121.45959,36.444762 120.44949,40.485172 118.93434,41.495272 C 117.41919,42.505372 115.39899,40.485172 113.37878,40.990212 C 111.35858,41.495272 109.33838,44.525572 110.85353,47.050822 C 112.36868,49.576072 117.41919,51.596282 116.91414,53.616482 C 116.40909,55.636682 110.34848,57.656882 110.34848,60.687182 C 110.34848,63.717492 116.40909,67.757892 117.41919,70.788192 C 118.42929,73.818502 114.38889,75.838702 114.38889,77.858902 C 114.38889,79.879102 118.42929,81.899302 119.43939,84.424562 C 120.44949,86.949812 118.42929,89.980112 118.42929,93.010422 C 118.42929,96.040722 120.44949,99.071022 122.46969,102.10132 L 122.46969,102.10132 C 121.45959,103.11142 120.44949,104.12153 119.43939,104.62658 C 118.42929,105.13163 117.41919,105.13163 117.41919,106.14173 C 117.41919,107.15183 118.42929,109.17203 119.43939,111.19223 C 120.44949,113.21244 121.45959,115.23264 120.95454,115.73769 C 120.44949,116.24274 118.42929,115.23264 116.40909,113.71749 C 114.38889,112.20233 112.36868,110.18213 111.35858,108.16193 C 110.34848,106.14173 110.34848,104.12153 110.34848,102.10132 L 107.31818,105.13163 C 107.31818,106.14173 107.31818,107.15183 107.82323,108.66698 C 108.32828,110.18213 109.33838,112.20233 110.34848,113.71749 C 111.35858,115.23264 112.36868,116.24274 113.88384,117.25284 C 115.39899,118.26294 117.41919,119.27304 118.42929,120.7882 C 119.43939,122.30335 119.43939,124.32355 118.42929,125.33365 C 117.41919,126.34375 115.39899,126.34375 113.88384,126.34375 C 112.36868,126.34375 111.35858,126.34375 109.33838,124.32355 C 107.31818,122.30335 104.28788,118.26294 101.76263,114.72759 C 99.237371,111.19223 97.21717,108.16193 96.207069,105.63668 C 95.196968,103.11142 95.196968,101.09122 95.196968,99.071022 L 94.052186,97.589542 C 94.703031,95.412102 95.354204,93.235002 94.512456,91.326912 C 93.670703,89.418832 91.336028,87.780452 91.975757,85.614122 C 92.615486,83.448132 96.229629,80.754522 95.376431,78.857892 C 94.523567,76.960922 89.2037,75.861262 89.675081,72.707392 C 90.146463,69.553512 96.409088,64.346112 96.386532,61.270692 C 96.364305,58.195602 90.056564,57.252842 89.214811,55.356212 C 88.373063,53.459242 92.997302,50.608732 94.052186,47.858902 C 95.107069,45.109072 92.593264,42.460582 91.010772,42.224892 C 89.42828,41.989202 88.777101,44.166312 87.598652,43.347122 C 86.420199,42.527932 84.714475,38.711762 83.367674,36.893582 C 82.020872,35.075402 81.032994,35.255202 80.045453,35.434662 C 79.057913,35.614122 78.070034,35.793922 77.4303,37.959912 C 76.79057,40.125902 76.498986,44.278772 75.67946,45.445772 C 74.860265,46.613112 73.513464,44.794932 72.099323,45.558232 C 70.685181,46.321192 69.2037,49.665972 71.134003,51.888192 C 73.064643,54.110422 78.406734,55.210082 78.260942,57.286512 C 78.11515,59.362942 72.480804,62.415472 73.502353,65.311092 C 74.523565,68.206712 82.200336,70.945432 83.726596,73.751162 C 85.253195,76.556882 80.628955,79.430282 80.483163,81.506382 C 80.337371,83.582812 84.669359,84.862272 86.01616,86.680452 C 87.362962,88.498632 85.724576,90.855532 85.578451,92.931972 C 85.432658,95.008062 86.77946,96.804022 88.126261,98.599642 L 89.136362,99.071022 C 90.146463,101.09122 91.156564,103.11142 90.651516,103.61648 C 90.146463,104.12153 88.126261,103.11142 86.106059,102.10132 L 85.432658,99.811762 C 84.355219,97.814122 83.277775,95.816142 81.336027,95.064292 C 79.394613,94.312432 76.588546,94.806042 75.522557,92.819512 C 74.456225,90.832982 75.129626,86.366312 73.176764,85.614122 C 71.223902,84.862272 66.644777,87.825232 64.736697,85.255202 C 62.828953,82.684832 63.591916,74.581802 61.403363,72.438022 C 59.214811,70.294262 54.074744,74.110412 52.121882,73.369682 C 50.16902,72.628932 51.403364,67.331292 50.20269,64.637692 C 49.00168,61.944092 45.365317,61.854522 44.085856,62.797292 C 42.806394,63.740052 43.883835,65.715132 42.480805,65.962272 C 41.078112,66.209072 37.19461,64.727592 34.96128,64.402002 C 32.72794,64.076752 32.14411,64.907052 31.5606,65.737692 C 30.9771,66.568332 30.39326,67.398632 31.4707,69.385172 C 32.54815,71.371702 35.28687,74.514462 35.53367,75.917152 C 35.780469,77.320182 33.53602,76.983482 33.07575,78.509742 C 32.61549,80.036342 33.94006,83.425572 36.880469,83.639032 C 39.820872,83.852172 44.377775,80.889202 45.746798,82.460582 C 47.116159,84.031632 45.297977,90.137352 48.07003,91.461602 C 50.842421,92.785842 58.20471,89.329272 61.268683,90.238362 C 64.332656,91.147452 63.098313,96.422202 64.467336,97.993582 C 65.836697,99.564962 69.809761,97.432302 72.031983,97.769002 C 74.254205,98.105702 74.725585,100.91176 76.083498,102.4717 C 77.441749,104.03163 79.686192,104.34611 81.930974,104.66025 L 83.075756,105.13163 C 86.106059,106.14173 89.136362,107.15183 91.156564,108.16193 C 93.176766,109.17203 94.186867,110.18213 94.69192,111.19223 C 95.196968,112.20233 95.196968,113.21244 94.186867,113.21244 C 93.176766,113.21244 91.156564,112.20233 89.136362,111.19223 L 89.136362,111.19223 C 87.11616,110.18213 85.095958,109.17203 83.075756,109.67708 C 81.055554,110.18213 79.035352,112.20233 77.01515,111.19223 C 74.994946,110.18213 72.974744,106.14173 70.954542,106.64678 C 68.93434,107.15183 66.914138,112.20233 63.883835,111.19223 C 60.853532,110.18213 56.813128,103.11142 53.782825,102.60638 C 50.752522,102.10132 48.73232,108.16193 46.712118,108.66698 C 44.691916,109.17203 42.671714,104.12153 40.146462,102.60638 C 37.621209,101.09122 34.59091,103.11142 34.08586,104.62658 C 33.58081,106.14173 35.601007,107.15183 34.59091,108.16193 C 33.58081,109.17203 29.5404,110.18213 27.5202,111.19223 C 25.5,112.20233 25.5,113.21244 25.5,114.22254 C 25.5,115.23264 25.5,116.24274 27.5202,117.25284 C 29.5404,118.26294 33.58081,119.27304 34.59091,120.28315 C 35.601007,121.29325 33.58081,122.30335 34.08586,123.8185 C 34.59091,125.33365 37.621209,127.35385 40.146462,125.8387 C 42.671714,124.32355 44.691916,119.27304 46.712118,119.7781 C 48.73232,120.28315 50.752522,126.34375 53.782825,125.8387 C 56.813128,125.33365 60.853532,118.26294 63.883835,117.25284 C 66.914138,116.24274 68.93434,121.29325 70.954542,121.7983 C 72.974744,122.30335 74.994946,118.26294 77.01515,117.25284 C 79.035352,116.24274 81.055554,118.26294 83.075756,118.76799 C 85.095958,119.27304 87.11616,118.26294 89.136362,117.25284 L 89.136362,117.25284 C 91.156564,117.25284 93.176766,117.25284 94.69192,117.25284 C 96.207069,117.25284 97.21717,117.25284 98.227271,117.75789 C 99.237371,118.26294 100.24747,119.27304 100.75253,120.28315 C 101.25757,121.29325 101.25757,122.30335 99.742421,122.8084 C 98.227271,123.31345 95.196968,123.31345 92.166665,123.31345 L 85.163296,125.26631 C 82.896292,125.40099 80.628955,125.53567 79.136362,126.97237 C 77.643768,128.40874 76.925247,131.14745 74.680804,131.28214 C 72.436023,131.41682 68.664979,128.94746 67.160939,130.39527 C 65.657235,131.84308 66.420198,137.20806 63.288885,137.84779 C 60.157572,138.48752 53.131983,134.402 50.258583,135.47944 C 47.385519,136.55688 48.66498,142.79728 47.16094,144.2451 C 45.657236,145.69291 41.369694,142.34813 38.418179,142.30335 C 35.46633,142.25857 33.85017,145.51311 34.17575,147.07338 C 34.50101,148.63331 36.768347,148.49864 36.397977,149.8791 C 36.027607,151.25958 33.01953,154.15519 31.77373,156.04071 C 30.52794,157.92624 31.04444,158.80166 31.5606,159.67708 C 32.07676,160.5525 32.59326,161.42792 34.84916,161.29324 C 37.105048,161.15856 41.100334,160.01378 42.469694,160.38415 C 43.839054,160.75452 42.581815,162.64004 43.771714,163.69492 C 44.961276,164.75014 48.59764,164.97439 50.03434,162.39324 C 51.470704,159.81176 50.707741,154.42455 52.716495,153.85216 C 54.725586,153.27977 59.506731,157.5222 61.874744,155.58045 C 64.243094,153.63903 64.197976,145.51311 66.319188,143.12254 C 68.4404,140.73197 72.727942,144.07675 74.736696,143.49291 C 76.745788,142.90941 76.476426,138.39763 77.711111,136.5121 C 78.945454,134.62658 81.684172,135.36732 83.681819,134.79493 C 85.67946,134.22254 86.936696,132.33702 88.193599,130.45149 L 89.136362,129.37405 C 90.146463,128.36395 91.156564,127.35385 93.176766,126.8488 C 95.196968,126.34375 98.227271,126.34375 99.742421,126.8488 C 101.25757,127.35385 101.25757,128.36395 99.742421,129.87911 C 98.227271,131.39426 95.196968,133.41446 93.681819,135.43466 C 92.166665,137.45486 92.166665,139.47506 92.166665,140.99022 C 92.166665,142.50537 92.166665,143.51547 92.166665,144.52557 L 95.196968,144.52557 z"
       id="Trunk"
       style="fill:#225500;fill-opacity:1;fill-rule:evenodd;stroke:none;stroke-width:2.00001001;stroke-linecap:butt;stroke-linejoin:miter;stroke-miterlimit:10" />
    <use
       transform="translate(64.64618,1.8359e-5)"
       id="Ollon2"
       style="stroke:none"
       x="0"
       y="0"
       width="251"
       height="304.20001"
       xlink:href="#Ollon" />
    <use
       transform="matrix(0.951057,-0.309017,-0.309017,-0.951057,64.53788,270.8191)"
       id="Ollon3"
       style="stroke:none"
       x="0"
       y="0"
       width="251"
       height="304.20001"
       xlink:href="#Ollon" />
    <use
       transform="matrix(-1,0,0,1,251.795,0)"
       id="Ollon4"
       style="stroke:none"
       x="0"
       y="0"
       width="251"
       height="304.20001"
       xlink:href="#Ollon3" />
    <g
       transform="matrix(0.505045,0,0,0.505048,24.99526,100.0341)"
       id="Ollon"
       style="stroke:none">
      <path
         d="M 117.48957,110.74999 L 153.48975,110.74999 C 153.48975,106.74997 153.48975,102.74995 151.48974,98.74993 C 149.48973,94.749905 145.48971,90.749885 141.48969,88.749875 C 137.48967,86.749865 133.48965,86.749865 129.48963,88.749875 C 125.48961,90.749885 121.48959,94.749905 119.48958,98.74993 C 117.48957,102.74995 117.48957,106.74997 117.48957,110.74999 z"
         id="path2772"
         style="fill:#225500;fill-opacity:1;fill-rule:evenodd;stroke:none;stroke-width:2.00001001;stroke-linecap:butt;stroke-linejoin:miter;stroke-miterlimit:10" />
      <path
         d="M 123.4896,105.98356 C 123.4896,111.98359 123.4896,122.75005 124.48961,126.75007 C 125.48961,130.75009 127.48962,132.7501 129.48963,135.75012 C 131.48964,138.75013 133.48965,142.75015 135.48966,142.75015 C 137.48967,142.75015 139.48968,138.75013 141.48969,135.75012 C 143.4897,132.7501 145.48971,130.75009 146.48972,126.75007 C 147.48972,122.75005 147.48972,111.98359 147.48972,105.98356"
         id="path2774"
         style="fill:#225500;fill-opacity:1;fill-rule:evenodd;stroke:none;stroke-width:2.00001001;stroke-linecap:butt;stroke-linejoin:miter;stroke-miterlimit:10" />
    </g>
  </g>
  <g
     transform="matrix(0.3631359,0,0,0.3357994,36.580771,112.375)"
     id="Deer">
    <path
       d="M 168.00084,78.00039 C 168.00084,72.00036 168.00084,66.00033 171.00086,61.000305 C 174.00087,56.00028 180.0009,52.00026 188.00094,49.000245 C 196.00098,46.00023 206.00103,44.00022 212.00106,42.00021 C 218.00109,40.0002 220.0011,38.00019 222.00111,36.00018 C 222.00111,38.00019 222.00111,40.0002 220.0011,43.000215 C 218.00109,46.00023 214.00107,50.00025 207.00104,53.000265 C 200.001,56.00028 190.00095,58.00029 185.00093,61.000305 C 180.0009,64.00032 180.0009,68.00034 181.00091,70.00035 C 182.00091,72.00036 184.00092,72.00036 190.00095,71.000355 C 196.00098,70.00035 206.00103,68.00034 214.00107,67.000335 C 222.00111,66.00033 228.00114,66.00033 232.00116,64.00032 C 236.00118,62.00031 238.00119,58.00029 241.00121,54.00027 C 244.00122,50.00025 248.00124,46.00023 255.00128,44.00022 C 262.00131,42.00021 272.00136,42.00021 279.0014,40.0002 C 286.00143,38.00019 290.00145,34.00017 294.00147,30.00015 C 294.00147,32.00016 294.00147,34.00017 292.00146,37.000185 C 290.00145,40.0002 286.00143,44.00022 279.0014,47.000235 C 272.00136,50.00025 262.00131,52.00026 256.00128,56.00028 C 250.00125,60.0003 248.00124,66.00033 252.00126,67.000335 C 256.00128,68.00034 266.00133,64.00032 274.00137,63.000315 C 282.00141,62.00031 288.00144,64.00032 292.00146,61.000305 C 296.00148,58.00029 298.00149,50.00025 308.00154,45.000225 C 318.00159,40.0002 336.00168,38.00019 346.00173,36.00018 C 356.00178,34.00017 358.00179,32.00016 360.0018,30.00015 C 360.0018,32.00016 360.0018,34.00017 358.00179,36.00018 C 356.00178,38.00019 352.00176,40.0002 344.00172,42.00021 C 336.00168,44.00022 324.00162,46.00023 318.00159,50.00025 C 312.00156,54.00027 312.00156,60.0003 316.00158,62.00031 C 320.0016,64.00032 328.00164,62.00031 334.53501,63.000315 C 341.00171,64.00032 346.00173,68.00034 350.00175,67.000335 C 354.00177,66.00033 357.00179,60.0003 361.46847,56.00028 C 366.00183,52.00026 372.00186,50.00025 379.0019,50.00025 C 386.00193,50.00025 394.00197,52.00026 400.002,52.00026 C 406.00203,52.00026 410.00205,50.00025 414.00207,48.00024 C 414.00207,50.00025 414.00207,52.00026 411.00206,54.00027 C 408.00204,56.00028 402.00201,58.00029 395.00198,59.000295 C 388.00194,60.0003 380.0019,60.0003 374.00187,62.00031 C 368.00184,64.00032 364.00182,68.00034 365.00183,71.000355 C 366.00183,74.00037 372.00186,76.00038 379.0019,76.00038 C 386.00193,76.00038 394.00197,74.00037 401.00201,75.000375 C 408.00204,76.00038 414.00207,80.0004 418.00209,83.000415 C 422.00211,86.00043 424.00212,88.00044 426.00213,90.00045 L 420.0021,90.00045 C 412.00206,88.00044 404.00202,86.00043 395.24664,85.778429 C 386.4906,85.555761 376.97988,87.111769 367.31317,85.97843 C 357.64645,84.845091 347.82374,81.022405 338.06836,78.600393 C 328.31297,76.178381 318.62359,75.155709 308.95688,74.733707 C 299.29016,74.311705 289.64611,74.489039 279.8234,75.755712 C 270.00135,77.022385 260.0013,79.378397 252.3346,79.933733 C 244.66789,80.489069 239.33453,79.245063 229.66782,79.622398 C 220.0011,80.0004 206.00103,82.00041 192.00096,84.00042"
       id="Antler-2"
       style="fill:#ffcd50;fill-opacity:1;fill-rule:evenodd;stroke:#ffcd50;stroke-width:4.00002003;stroke-linecap:butt;stroke-linejoin:miter;stroke-miterlimit:10;stroke-opacity:1" />
    <path
       d="M 342.00171,285.00143 L 288.00144,270.00135 C 286.00143,276.00138 284.00142,282.00141 280.0014,291.00146 C 276.00138,300.0015 270.00135,312.00156 271.00135,322.00161 C 272.00136,332.00166 280.0014,340.0017 284.00142,348.00174 C 288.00144,356.00178 288.00144,364.00182 285.00143,372.00186 C 282.00141,380.0019 276.00138,388.00194 270.00135,395.00198 C 264.00132,402.00201 258.00129,408.00204 253.00127,412.00206 C 248.00124,416.00208 244.00122,418.00209 240.0012,421.00211 C 236.00118,424.00212 232.00116,428.00214 230.53449,430.53549 C 223.38239,446.8319 245.46789,449.00225 245.46789,449.00225 C 247.00124,445.00223 245.00123,440.0022 245.00123,436.53552 C 245.00123,433.00217 247.00124,431.00216 249.00125,429.46881 C 251.00126,428.00214 253.00127,427.00214 255.00128,429.00215 C 257.00129,431.00216 259.0013,436.00218 260.53464,436.53552 C 262.00131,437.00219 263.00132,433.00217 264.00132,429.00215 C 265.00133,425.00213 266.00133,421.00211 270.00135,415.46874 C 274.00137,410.00205 281.00141,403.00202 288.53478,397.46865 C 296.00148,392.00196 304.00152,388.00194 308.00154,385.00193 C 312.00156,382.00191 312.00156,380.0019 311.00156,378.00189 C 310.00155,376.00188 308.00154,374.00187 307.00154,367.00184 C 306.00153,360.0018 306.00153,348.00174 310.00155,338.00169 C 314.00157,328.00164 322.00161,320.0016 328.00164,315.00158 C 334.00167,310.00155 338.00169,308.00154 340.0017,303.46818 C 342.00171,299.0015 342.00171,292.00146 342.00171,285.00143 z"
       id="Leg-3"
       style="fill:#d40000;fill-opacity:1;fill-rule:evenodd;stroke:#d40000;stroke-width:4.00002003;stroke-linecap:butt;stroke-linejoin:miter;stroke-miterlimit:10;stroke-opacity:1" />
    <path
       d="M 198.00099,277.47504 L 156.00078,253.47492 C 156.00078,263.47497 156.00078,273.47502 156.00078,284.47508 C 156.00078,295.47513 156.00078,307.47519 157.00079,316.47524 C 158.00079,325.47528 160.0008,331.47531 160.0008,338.47535 C 160.0008,345.47538 158.00079,353.47542 158.00079,359.47545 C 158.00079,365.47548 160.0008,369.4755 161.00081,375.47553 C 162.00081,381.47556 162.00081,389.4756 160.0008,398.47565 C 158.00079,407.47569 154.00077,417.47574 150.00075,427.47579 C 119.14669,426.57519 155.00078,445.47588 155.00078,445.47588 C 156.00078,441.47586 156.00078,437.47584 157.00079,434.47583 C 158.00079,431.47581 160.0008,429.4758 161.46747,428.4758 C 163.00082,427.47579 164.00082,427.47579 165.00083,429.4758 C 166.00083,431.47581 167.00084,435.47583 168.93418,436.58717 C 170.80085,437.69784 173.60087,435.9205 173.60087,431.92048 C 173.60087,427.92046 170.80085,421.69776 170.40085,409.58703 C 170.00085,397.47564 172.00086,379.47555 174.00087,371.47551 C 176.00088,363.47547 178.00089,365.47548 179.0009,361.47546 C 180.0009,357.47544 180.0009,347.47539 182.00091,334.47533 C 184.00092,321.47526 188.00094,305.47518 191.00096,295.47513 C 194.00097,285.47508 196.00098,281.47506 198.00099,277.47504 z"
       id="Leg-2"
       style="fill:#d40000;fill-opacity:1;fill-rule:evenodd;stroke:#d40000;stroke-width:4.00002003;stroke-linecap:butt;stroke-linejoin:miter;stroke-miterlimit:10;stroke-opacity:1" />
    <path
       d="M 336.37853,420.0021 C 336.37853,420.0021 349.00175,425.00213 349.00175,425.00213 C 350.00175,422.00211 352.00176,418.00209 354.00177,418.00209 C 356.00178,418.00209 358.00179,422.00211 360.0018,424.00212 C 362.00181,426.00213 364.00182,426.00213 365.00183,425.00213 C 366.00183,424.00212 366.00183,422.00211 367.00184,414.00207 C 368.00184,406.00203 370.00185,392.00196 373.00187,382.00191 C 376.00188,372.00186 380.0019,366.00183 384.00192,359.0018 C 388.00194,352.00176 392.00196,344.00172 392.00196,340.0017 C 392.00196,336.00168 388.00194,336.00168 385.00193,331.00166 C 382.00191,326.00163 380.0019,316.00158 382.00191,301.46817 C 384.00192,287.00144 390.00195,268.00134 388.53528,253.00127 C 387.00194,238.00119 378.00189,227.00114 371.46852,221.00111 C 365.00183,215.00108 361.00181,214.00107 355.00178,214.53441 C 349.00175,215.00108 341.00171,217.00109 333.00167,219.0011 L 300.0015,264.00132 C 304.00152,266.00133 308.00154,268.00134 310.00155,271.00135 C 312.00156,274.00137 312.00156,278.00139 314.00157,281.00141 C 316.00158,284.00142 320.0016,286.00143 322.00161,289.00144 C 324.00162,292.00146 324.00162,296.00148 327.00164,300.0015 C 330.00165,304.00152 336.00168,308.00154 343.00172,314.00157 C 350.00175,320.0016 358.00179,328.00164 362.00181,336.00168 C 366.00183,344.00172 366.00183,352.00176 364.00182,364.00182 C 362.00181,376.00188 358.00179,392.00196 353.00177,402.00201 C 348.00174,412.00206 342.37856,416.00208 336.37853,420.0021 z"
       id="Leg-4"
       style="fill:#d40000;fill-opacity:1;fill-rule:evenodd;stroke:#d40000;stroke-width:4.00002003;stroke-linecap:butt;stroke-linejoin:miter;stroke-miterlimit:10;stroke-opacity:1" />
    <path
       d="M 135.5625,57.4375 C 134.40398,57.444583 133.2065,57.493167 132,57.5625 C 127.17398,57.839166 122.66669,58.625326 119,60 C 115.33332,61.374675 111.7866,63.603321 108.28125,66 C 104.7759,68.39668 101.75001,70.625326 99,72 C 96.249987,73.374674 93.21826,74.18233 90.40625,74.875 C 87.593573,75.568333 85.37467,76.083329 84,77 C 82.625324,77.916673 81.82617,79.415659 81.6875,80.875 C 81.549504,82.334337 82.08333,83.541331 83,84 C 83.916671,84.458668 85.40199,84.258335 87,83.875 C 88.598008,83.49166 90.08333,83 91,83 C 91.916673,83.000002 92.4375,83.46433 92.4375,84.125 C 92.4375,84.785006 91.91667,85.54133 91,86 C 90.083333,86.458659 88.59801,86.72267 87,87 C 85.401988,87.277329 83.91667,87.54133 83,88 C 82.083331,88.458661 81.54492,89.20132 81.40625,90 C 81.267578,90.798674 81.54133,91.54133 82,92 C 82.458661,92.458658 83.20916,92.73634 84.5625,92.875 C 85.915179,93.01367 87.70798,93 90,93 C 92.292013,92.999998 95.52732,92.98633 99,93.125 C 102.47268,93.263656 105.70798,93.54133 108,94 C 110.29201,94.458661 112.08999,95.20524 112.75,96.28125 C 113.41067,97.357257 112.86668,98.62532 111,100 C 109.13332,101.37467 105.71735,103.12532 102,105 C 98.282642,106.87468 94.86668,108.62532 93,110 C 91.133318,111.37467 90.59908,112.65641 90.84375,113.59375 C 91.088424,114.53176 92.08333,115 93,115 C 93.916668,115 94.92399,114.522 96,114 C 97.076003,113.47799 98.08333,113 99,113 C 99.916667,113 100.91424,113.47408 102.40625,113.71875 C 103.89759,113.96342 105.70798,113.91667 108,113 C 110.29201,112.08333 113.54099,110.13009 116.875,108.21875 C 120.20902,106.30674 123.13332,104.73142 125,104.46875 C 126.86668,104.27275 127.88058,105.34866 128.78125,107 C 129.68191,108.65068 130.35191,110.62532 131.53125,112 C 132.64392,113.37467 134.49582,114.39266 136.5625,115 C 138.62919,115.60733 140.62532,115.72725 142,115.53125 C 143.37467,115.26858 144.40341,114.65317 145.21875,114.0625 C 146.03409,113.47116 146.54133,113 147,113 C 147.45867,113 148.08474,113.08458 148.96875,113.28125 C 149.85276,113.47859 151,114.46665 150,117 C 149,119.53335 146.62159,121.40917 144.90625,122.0625 C 143.19091,122.71651 141.56059,123 139.53125,123 C 137.43525,123 134.80194,122.27975 131.78125,121.84375 C 128.76124,121.40708 125.75001,121.35608 123,122.46875 C 120.24999,123.64809 117.23193,126.20799 114.28125,129.75 C 111.3299,133.29268 108.86668,137.33332 107,141 C 105.13332,144.66669 103.63851,148.68164 102.5625,153.125 C 101.48583,157.56769 101,161.87464 101,166 C 101,170.12534 101.46824,174.89664 102.40625,180 C 103.34359,185.10335 104.62532,189.87464 106,194 C 107.37467,198.12535 109.11557,202.41864 111.40625,207 C 113.69693,211.58136 116.24999,215.87464 119,220 C 121.75001,224.12536 125.24481,228.89664 129.6875,234 C 134.13086,239.10335 138.95864,243.87464 144,248 C 149.04136,252.12534 155.29346,256.41081 162.6875,260.4375 C 170.08153,264.46484 177.66663,267.70798 185,270 C 192.33336,272.29201 200.86537,274.09783 209.71875,275.3125 C 218.57213,276.52718 226.5833,277 233,277 C 239.4167,277 245.51063,276.53176 252,275.59375 C 258.48936,274.65641 264.5833,273.37467 271,272 C 277.4167,270.62533 285.41029,268.86685 294.125,266.4375 C 302.83972,264.00815 311.12529,261.20801 318,258 C 324.87469,254.79198 331.45187,250.52653 340.78125,243.5625 C 350.11063,236.59914 357,231 357,231 L 345,201 C 345,201 347.27648,201.09749 350.3125,201.6875 C 353.3485,202.27751 355.43524,203.13332 357.53125,205 C 359.5606,206.86668 361.95157,209.8144 364.15625,212.59375 C 366.36158,215.37376 368.08333,217.54133 369,218 C 369.91667,218.45866 370.2135,217.30167 370.4375,215.875 C 370.6615,214.44832 370.81058,213 371.53125,213 C 372.18524,213 373.55141,214.43174 375.21875,216.34375 C 376.88542,218.2551 378.62532,220.35191 380,221.53125 C 381.37467,222.64392 382.65641,223.06633 383.59375,222.875 C 384.53175,222.68301 385,221.91667 385,221 C 384.99999,220.08334 384.522,218.82984 384,217.5625 C 383.47798,216.29449 383,215.18942 383,214.46875 C 383.00001,213.81476 383.46824,213.40917 384.40625,213.0625 C 385.34359,212.71584 386.62532,212.45866 388,212 C 389.37468,211.54133 391.13899,210.78793 392.875,209.78125 C 394.61168,208.77458 396.08333,207.64809 397,206.46875 C 397.91668,205.35608 398.44141,203.97743 398.71875,202.46875 C 398.99609,201.02676 399,199.64809 399,198.46875 C 398.99999,197.35608 398.99608,196.2225 398.71875,195.5625 C 398.44142,194.90182 397.91667,194.81058 397,195.53125 C 396.08334,196.18525 394.59409,197.76632 392.71875,199.625 C 390.84408,201.48368 388.86668,203.35608 387,204.46875 C 385.13332,205.64809 383.14809,206.31933 380.71875,206.25 C 378.28941,206.18066 375.75001,205.37467 373,204 C 370.24998,202.62532 366.75977,200.41034 362.59375,197.875 C 358.4284,195.33965 354.12535,192.86668 350,191 C 345.87464,189.13331 341.10853,187.63459 335.3125,186.28125 C 329.51581,184.92791 323.4167,183.91667 317,183 C 310.58331,182.08333 302.58122,181.07992 293.3125,180.28125 C 284.04313,179.48191 274.70804,179 266,179 C 257.29196,178.99999 247.47888,179.47799 237.6875,180 C 227.89679,180.522 219.4167,181 213,181 C 206.5833,181 200.97002,180.51809 196.25,179.71875 C 191.52999,178.92009 188.29201,177.91667 186,177 C 183.70798,176.08333 181.90217,175.06817 180.6875,173.4375 C 179.47282,171.8075 179,169.75001 179,167 C 178.99999,164.24998 179.48191,160.27494 180.28125,155.65625 C 181.07992,151.03822 182.08333,146.39811 183,142.46875 C 183.91667,138.60607 184.93766,134.6791 185.875,130.84375 C 186.81234,127.00773 187.54133,123.75001 188,121 C 188.45866,118.24999 188.71875,115.47419 188.71875,112.4375 C 188.71875,109.40082 188.45866,106.47726 188,103.53125 C 187.54133,100.51856 186.80843,96.89552 185.59375,92.9375 C 184.37907,88.979477 182.86668,85.208015 181,82 C 179.13332,78.791981 176.6701,75.495599 173.71875,72.40625 C 170.76808,69.316237 167.75001,66.866676 165,65 C 162.24999,63.133327 159.2241,61.620923 155.71875,60.40625 C 152.21339,59.191576 148.66669,58.458669 145,58 C 142.24999,57.655997 139.03805,57.41625 135.5625,57.4375 z M 129,69 C 135.62745,69 141,71.686277 141,75 C 141,78.313723 135.62745,80.999999 129,81 C 122.37255,81 117,78.313723 117,75 C 117,71.686277 122.37255,69 129,69 z M 128.875,71.53125 C 127.25495,71.531248 125.9375,72.848709 125.9375,74.46875 C 125.9375,76.088788 127.25495,77.40625 128.875,77.40625 C 130.49504,77.406253 131.8125,76.088791 131.8125,74.46875 C 131.81249,72.848706 130.49504,71.53125 128.875,71.53125 z"
       transform="translate(21,15)"
       id="Main-body"
       style="fill:#d40000;fill-opacity:1;fill-rule:evenodd;stroke:#d40000;stroke-width:4.00002003;stroke-linecap:butt;stroke-linejoin:miter;stroke-miterlimit:10;stroke-opacity:1" />
    <path
       d="M 204.00102,108.00054 C 206.00103,110.00055 208.00104,112.00056 210.00105,114.00057 C 212.00106,116.00058 214.00107,118.00059 215.00108,121.00061 C 216.00108,124.00062 216.00108,128.00064 220.0011,134.00067 C 224.00112,140.0007 232.00116,148.00074 236.00118,153.00077 C 240.0012,158.00079 240.0012,160.0008 240.0012,163.00082 C 240.0012,166.00083 240.0012,170.00085 240.0012,174.00087 C 242.00121,170.00085 244.00122,166.00083 245.00123,162.00081 C 246.00123,158.00079 246.00123,154.00077 243.00122,148.00074 C 240.0012,142.00071 234.00117,134.00067 231.00116,129.00065 C 228.00114,124.00062 228.00114,122.00061 231.00116,122.00061 C 234.00117,122.00061 240.0012,124.00062 245.00123,126.00063 C 250.00125,128.00064 254.00127,130.00065 256.00128,136.00068 C 258.00129,142.00071 258.00129,152.00076 264.00132,157.00079 C 270.00135,162.00081 282.00141,162.00081 289.00144,165.00083 C 296.00148,168.00084 298.00149,174.00087 300.0015,180.0009 C 300.0015,176.00088 300.0015,172.00086 298.00149,168.00084 C 296.00148,164.00082 292.00146,160.0008 288.00144,157.00079 C 284.00142,154.00077 280.0014,152.00076 277.00139,150.00075 C 274.00137,148.00074 272.00136,146.00073 271.00135,143.00072 C 270.00135,140.0007 270.00135,136.00068 277.00139,136.00068 C 284.00142,136.00068 298.00149,140.0007 306.00153,145.00073 C 314.00157,150.00075 316.00158,156.00078 320.0016,160.0008 C 324.00162,164.00082 330.00165,166.00083 336.00168,166.00083 C 342.00171,166.00083 348.00174,164.00082 354.00177,164.00082 C 360.0018,164.00082 366.00183,166.00083 372.00186,168.00084 C 370.00185,166.00083 368.00184,164.00082 365.00183,162.00081 C 362.00181,160.0008 358.00179,158.00079 352.00176,157.00079 C 346.00173,156.00078 338.00169,156.00078 333.00167,154.00077 C 328.00164,152.00076 326.00163,148.00074 326.53497,145.46739 C 327.00164,143.00072 330.00165,142.00071 336.53502,141.00071 C 343.00172,140.0007 353.00177,139.0007 361.46847,141.46737 C 370.00185,144.00072 377.00189,150.00075 385.46859,151.00076 C 394.00197,152.00076 404.00202,148.00074 411.00206,146.00073 C 418.00209,144.00072 422.00211,144.00072 423.00212,143.00072 C 424.00212,142.00071 422.00211,140.0007 416.00208,140.0007 C 410.00205,140.0007 400.002,142.00071 392.00196,141.00071 C 384.00192,140.0007 378.00189,136.00068 376.00188,132.00066 C 374.00187,128.00064 376.00188,124.00062 382.00191,120.0006 C 388.00194,116.00058 398.00199,112.00056 408.00204,108.00054 L 420.0021,102.00051 C 414.00207,102.00051 408.00204,102.00051 402.00201,103.00052 C 396.00198,104.00052 390.00195,106.00053 383.00192,110.00055 C 376.00188,114.00057 368.00184,120.0006 358.00179,124.00062 C 348.00174,128.00064 336.00168,130.00065 323.00162,130.00065 C 310.00155,130.00065 296.00148,128.00064 285.00143,126.00063 C 274.00137,124.00062 266.00133,122.00061 257.00129,118.00059 C 248.00124,114.00057 238.00119,108.00054 231.00116,104.00052 C 224.00112,100.0005 220.0011,98.00049 216.00108,96.00048"
       id="Antler-1"
       style="fill:#ffcd50;fill-opacity:1;fill-rule:evenodd;stroke:#ffcd50;stroke-width:2.00001001;stroke-linecap:butt;stroke-linejoin:miter;stroke-miterlimit:10;stroke-opacity:1" />
    <path
       d="M 180.0009,264.00132 L 150.00075,234.00117 C 146.00073,238.00119 142.00071,242.00121 139.0007,245.00123 C 136.00068,248.00124 134.00067,250.00125 130.00065,254.00127 C 126.00063,258.00129 120.0006,264.00132 114.00057,268.00134 C 108.00054,272.00136 102.00051,274.00137 97.000485,277.00139 C 92.00046,280.0014 88.00044,284.00142 84.00042,287.00144 C 80.0004,290.00145 76.00038,292.00146 75.000375,298.00149 C 74.00037,304.00152 76.00038,314.00157 75.000375,324.00162 C 74.00037,334.00167 70.00035,344.00172 69.000345,353.00177 C 68.00034,362.00181 70.00035,369.14913 72.00036,377.14917 C 72.00036,377.14917 89.58446,373.25468 85.000425,361.00181 C 84.00042,358.00179 84.00042,356.00178 86.00043,356.00178 C 88.00044,356.00178 92.00046,358.00179 94.00047,358.00179 C 96.00048,358.00179 96.00048,356.00178 94.00047,353.00177 C 92.00046,350.00175 88.00044,346.00173 87.000435,338.00169 C 86.00043,330.00165 88.00044,318.00159 92.00046,310.00155 C 96.00048,302.00151 102.00051,298.00149 109.00055,295.00148 C 116.00058,292.00146 124.00062,290.00145 133.00067,289.00144 C 142.00071,288.00144 152.00076,288.00144 160.0008,287.00144 C 168.00084,286.00143 174.00087,284.00142 177.00089,280.0014 C 180.0009,276.00138 180.0009,270.00135 180.0009,264.00132 z"
       id="Leg-1"
       style="fill:#d40000;fill-opacity:1;fill-rule:evenodd;stroke:#d40000;stroke-width:4.00002003;stroke-linecap:butt;stroke-linejoin:miter;stroke-miterlimit:10;stroke-opacity:1" />
    <path
       d="M 192.00096,90.00045 C 194.00097,90.00045 196.00098,90.00045 200.001,89.000445 C 204.00102,88.00044 210.00105,86.00043 217.00109,87.000435 C 224.00112,88.00044 232.00116,92.00046 236.00118,94.00047 C 240.0012,96.00048 240.0012,96.00048 236.00118,99.000495 C 232.00116,102.00051 224.00112,108.00054 217.00109,110.00055 C 210.00105,112.00056 204.00102,110.00055 198.00099,108.00054 C 192.00096,106.00053 186.00093,104.00052 180.0009,102.00051"
       id="Ear"
       style="fill:#d40000;fill-opacity:1;fill-rule:evenodd;stroke:#eeeeee;stroke-width:2.00001001;stroke-linecap:butt;stroke-linejoin:miter;stroke-miterlimit:10;stroke-opacity:1" />
    <path
       d="M 121.69134,113.77025 C 108.61189,112.69066 83.833928,124.47482 75.530173,109.47619 C 74.367495,107.3761 72.309627,107.32915 70.162595,109.47619 C 68.015564,111.62322 65.868533,115.91728 65.868533,119.13783 C 65.868533,122.35837 68.015564,124.5054 72.309627,125.57892 C 76.603689,126.65243 83.044782,126.65243 89.485876,125.57892 C 95.926969,124.5054 102.36806,122.35837 108.80916,120.21134 C 115.25025,118.06431 121.69134,115.91728 128.13244,113.77025"
       id="Tongue"
       style="fill:#ffcd50;fill-opacity:1;fill-rule:evenodd;stroke:none;stroke-width:1.00000501;stroke-linecap:butt;stroke-linejoin:miter;stroke-miterlimit:10" />
    <path
       d="M 337.72262,313.49382 C 332.72259,309.4938 327.72257,305.49378 325.25589,301.49376 C 322.72254,297.49374 322.72254,293.49372 320.72253,290.4937 C 318.72252,287.49369 314.7225,285.49368 312.72249,282.49367 C 310.72248,279.49365 310.72248,275.49363 308.72247,272.49361 C 306.72246,269.4936 302.72244,267.49359 298.72242,265.49358"
       id="Leg-line-4"
       style="fill:none;fill-rule:evenodd;stroke:#eeeeee;stroke-width:2.00001001;stroke-linecap:butt;stroke-linejoin:miter;stroke-miterlimit:10;stroke-opacity:1" />
    <path
       d="M 275.37733,293.34644 C 282.37736,292.34643 295.34646,289.4278 300.87982,287.89446 C 306.34651,286.42779 309.28063,285.06732 313.28065,283.06731"
       id="Leg-line-3"
       style="fill:none;fill-rule:evenodd;stroke:#eeeeee;stroke-width:2.00001001;stroke-linecap:butt;stroke-linejoin:miter;stroke-miterlimit:10;stroke-opacity:1" />
    <path
       d="M 209.57469,289.06734 C 203.57466,287.06733 197.57463,285.06732 193.57461,283.06731 C 189.57459,281.0673 187.57458,279.06729 185.57457,277.06728"
       id="Leg-line-2"
       style="fill:none;fill-rule:evenodd;stroke:#eeeeee;stroke-width:2.00001001;stroke-linecap:butt;stroke-linejoin:miter;stroke-miterlimit:10;stroke-opacity:1" />
    <path
       d="M 153.00077,291.00146 C 154.00077,290.00145 155.00078,289.00144 159.46746,288.53478 C 164.00082,288.00144 172.00086,288.00144 178.00089,284.00142 C 184.00092,280.0014 188.00094,272.00136 192.00096,264.00132"
       id="Leg-line-1"
       style="fill:none;fill-rule:evenodd;stroke:#eeeeee;stroke-width:2.00001001;stroke-linecap:butt;stroke-linejoin:miter;stroke-miterlimit:10;stroke-opacity:1" />
    <path
       d="M 227.34103,433.46955 C 216.75303,437.52967 214.13155,446.71058 204.90953,454.25607 C 204.90953,454.25607 247.52937,454.62562 247.52937,454.62562 C 249.24913,450.13933 247.00598,438.55402 247.00598,434.6659 C 247.00598,434.6659 227.34103,433.46955 227.34103,433.46955 z"
       id="Hoof-3"
       style="fill:#ffcd50;fill-opacity:1;fill-rule:evenodd;stroke:none;stroke-width:4.00002003;stroke-linecap:butt;stroke-linejoin:miter;stroke-miterlimit:10;stroke-opacity:1" />
    <path
       d="M 70.248298,377.82068 C 73.465069,388.88711 80.630776,391.27507 88.286198,405.4788 C 88.286198,405.4788 91.25243,367.55912 91.25243,367.55912 C 89.488725,365.79541 87.083671,360.98531 85.881145,357.37774 C 85.881145,357.37774 67.810521,369.43417 70.248298,377.82068 z"
       id="Hoof-1"
       style="fill:#ffcd50;fill-opacity:1;fill-rule:evenodd;stroke:none;stroke-width:4.00002003;stroke-linecap:butt;stroke-linejoin:miter;stroke-miterlimit:10" />
    <path
       d="M 136.36954,428.344 C 130.35187,435.23758 127.86328,441.98977 121.58606,446.94154 C 121.58606,446.94154 154.50853,452.43259 154.50853,452.43259 C 155.81454,450.40102 156.68522,448.07923 157.26567,445.75744 C 158.42656,441.11385 158.42656,436.47027 159.58746,432.98759 C 159.58746,432.98759 136.36954,428.344 136.36954,428.344 z"
       id="Hoof-2"
       style="fill:#ffcd50;fill-opacity:1;fill-rule:evenodd;stroke:none;stroke-width:4.00002003;stroke-linecap:butt;stroke-linejoin:miter;stroke-miterlimit:10;stroke-opacity:1" />
    <path
       d="M 336.77075,417.28875 C 325.35242,422.5042 323.87776,434.24681 317.27709,440.84749 C 317.27709,440.84749 345.42288,434.93037 351.01634,431.53434 C 351.01634,429.16008 351.18088,426.83649 352.20348,423.22442 C 353.17601,419.78922 336.77075,417.28875 336.77075,417.28875 z"
       id="Hoof-4"
       style="fill:#ffcd50;fill-opacity:1;fill-rule:evenodd;stroke:none;stroke-width:4.00002003;stroke-linecap:butt;stroke-linejoin:miter;stroke-miterlimit:10;stroke-opacity:1" />
  </g>
  <path
     d="M 249.55062,1.4395041 L 125.50012,1.4395041 L 1.449569,1.4395041 L 1.449569,174.9361 C 0.68232904,268.65698 81.739009,302.75585 125.5001,302.75585 C 168.49395,302.75585 250.31785,268.65698 249.55062,174.9361 L 249.55062,1.4395041 z"
     id="Frame"
     style="fill:none;fill-opacity:0;fill-rule:nonzero;stroke:#000000;stroke-width:1.88832211;stroke-linecap:round;stroke-linejoin:bevel;marker:none;marker-start:none;marker-mid:none;marker-end:none;stroke-miterlimit:4;stroke-dashoffset:0;stroke-opacity:1;visibility:visible;display:block" />
</svg>
