<?xml version="1.0" encoding="UTF-8" standalone="no"?>
<!-- Created with Inkscape (http://www.inkscape.org/) -->

<svg
   xmlns:dc="http://purl.org/dc/elements/1.1/"
   xmlns:cc="http://creativecommons.org/ns#"
   xmlns:rdf="http://www.w3.org/1999/02/22-rdf-syntax-ns#"
   xmlns:svg="http://www.w3.org/2000/svg"
   xmlns="http://www.w3.org/2000/svg"
   xmlns:xlink="http://www.w3.org/1999/xlink"
   version="1.0"
   width="251"
   height="304.20001"
   id="svg4166">
  <defs
     id="defs4168" />
  <metadata 
     id="metadata1880"><rdf:RDF><cc:Work
         rdf:about=""><dc:title>Lidköpings kommunvapen</dc:title><dc:date>2013-03-27</dc:date><dc:creator><cc:Agent><dc:title>Lokal_Profil</dc:title></cc:Agent></dc:creator><cc:license
         rdf:resource="http://creativecommons.org/licenses/by-sa/2.5/" /><dc:rights><cc:Agent><dc:title>cc-by-sa-2.5</dc:title></cc:Agent></dc:rights><dc:format>image/svg+xml</dc:format><dc:type
         rdf:resource="http://purl.org/dc/dcmitype/StillImage" /></cc:Work><cc:License
         rdf:about="http://creativecommons.org/licenses/by-sa/2.5/"><cc:permits
         rdf:resource="http://web.resource.org/cc/Reproduction" /><cc:permits
         rdf:resource="http://web.resource.org/cc/Distribution" /><cc:requires
         rdf:resource="http://web.resource.org/cc/Notice" /><cc:requires
         rdf:resource="http://web.resource.org/cc/Attribution" /><cc:permits
         rdf:resource="http://web.resource.org/cc/DerivativeWorks" /><cc:requires
         rdf:resource="http://web.resource.org/cc/ShareAlike" /></cc:License></rdf:RDF>
  </metadata>
  <path
     d="m 249.55058,1.4395041 -124.0505,0 -124.0505509,0 0,173.4965959 C 0.68228908,268.65698 81.738969,302.75585 125.50006,302.75585 c 42.99385,0 124.81775,-34.09887 124.05052,-127.81975 l 0,-173.4965959 z"
     id="Shield"
     style="fill:#ffcd50" />
  <path
     d="m 249.55062,1.4395041 -124.0505,0 -124.050551,0 0,173.4965959 c -0.76723996,93.72088 80.28944,127.81975 124.050531,127.81975 42.99385,0 124.81775,-34.09887 124.05052,-127.81975 l 0,-173.4965959 z"
     id="Frame"
     style="fill:none;stroke:#000000;stroke-width:1.88832211;stroke-linejoin:bevel" />
  <g
     transform="matrix(0.53984604,0,0,0.43504164,-11.153736,2.9552655)"
     id="Bishop"
     style="fill:#d40000;fill-rule:evenodd;stroke:#ffcd50;stroke-width:2">
    <g
       id="Head"
       style="fill:#eebb99;stroke:#d40000">
      <path
         d="m 231.98532,130.85293 0.54467,33.4235 36.0327,3.05327 1.95937,-36.1497 -38.5367,-0.3271 z"
         id="_108095344" />
      <path
         d="m 272.40332,125.51793 c -5.34014,-2.20913 -3.23933,-19.12716 0.88711,-21.73807 3.13112,0.25836 6.41512,3.98105 4.44092,8.74645 -4.28079,7.47907 0.18794,12.85498 -5.32803,12.99162 z"
         id="_108095896" />
      <g
         id="Hair"
         style="fill:#ffcd50">
        <path
           d="m 274.14224,92.945763 c -5.03377,8.920827 -7.27247,20.833187 -5.80366,34.386797 -1.12749,4.12064 4.797,10.74596 8.72715,13.30216 8.46542,5.50626 20.4238,3.0681 22.1274,-8.22303 -5.64742,-0.85407 -9.71816,-3.54632 -12.2128,-8.07617 l -4.05201,-23.11677 c -0.53735,-4.132699 -5.83876,-6.868714 -8.78608,-8.272987 z"
           id="_108096496" />
        <path
           d="m 229.19358,94.585078 c -6.98028,2.09682 -9.78455,9.315282 -10.55934,20.527152 -0.7497,10.8446 -0.14201,21.8423 -13.9919,19.6633 -0.76653,11.3322 9.91606,13.8057 18.1448,10.2471 5.01578,-2.16954 7.82824,-9.89182 10.45974,-9.85304 l 3.86903,-10.2431 c 1.07784,-15.02436 -1.7298,-20.90161 -7.92233,-30.341412 z"
           id="_108094456" />
      </g>
      <path
         d="m 228.72312,105.09445 c 11.58151,0.046 6.71949,16.26151 2.16697,17.79816 -7.65522,-6.08092 -4.10755,-9.58918 -5.82681,-13.35278 -2.3221,-5.08136 -0.42487,-8.24092 3.65984,-4.44538 z"
         id="_108103336" />
      <path
         d="m 228.27932,92.776631 c 12.29739,-11.185968 31.38917,-13.357077 44.9116,-1.37906 1.52421,3.25032 1.19941,8.829169 -0.40978,14.978799 -2.29245,8.76085 -0.65788,18.0553 -3.32104,27.0434 -0.9496,3.20526 -3.93814,7.71686 -6.89245,10.5081 -3.86399,3.65069 -7.48217,6.86564 -11.1434,7.02933 -11.2133,0.50189 -12.3922,-8.35906 -14.0587,-9.74667 -5.03431,-4.1925 -4.89857,-13.6514 -5.93458,-15.4825 -2.11422,-3.73823 -0.94989,-17.0344 -1.71156,-18.6407 -1.78881,-4.20269 -1.5948,-10.745962 -1.44009,-14.310699 z"
         id="path4123" />
      <path
         d="m 247.63324,103.56944 c -2.27277,0.087 -4.62396,-1.73152 -6.53942,-1.12355 -1.55159,0.49248 -3.43796,0.31055 -4.77167,1.02517 -1.28153,0.68696 -2.84709,0.79105 -4.23784,0.83981"
         id="path4121"
         style="fill:none" />
      <path
         d="m 234.58352,106.99941 c 1.58245,-1.2308 7.86715,-0.64932 7.86715,-0.64932 1.36395,-0.11236 2.12848,0.89656 3.42427,2.50332 -1.78941,1.29793 -8.53009,3.7087 -11.29142,-1.854 z"
         id="path4119" />
      <path
         d="m 241.89512,127.39562 c 1.35796,0.016 3.65097,0.53868 5.16235,1.74921 2.08256,1.66822 4.01085,2.11849 5.01292,0.95017 1.32859,-1.54873 5.06368,-1.79968 5.28098,-2.5143 1.03629,-4.1503 -4.1275,-3.92732 -4.79393,-7.64046 0.32424,-1.44465 -0.0926,-3.07009 -0.16254,-4.64791 -1.02944,-4.01404 0.26612,-10.85657 -0.13374,-13.29927 2.76832,-0.28239 3.97256,0.72601 6.46866,-0.89955 2.0837,-1.543885 4.96216,-0.75341 6.99739,0.86634"
         id="path4128"
         style="fill:none" />
      <path
         d="m 255.36148,108.11172 c 0.84837,-1.40144 3.51096,-1.03239 6.10682,-1.12369 2.56735,-0.0901 3.97436,0.47993 4.91968,0.76396 0.95388,0.28631 1.11928,1.24389 -1.13553,3.13154 -3.37408,1.44681 -8.27838,-0.15924 -9.89097,-2.77181 z"
         id="path4115" />
      <path
         d="m 243.51261,138.14952 c 8.29375,-3.17047 11.2489,0.8036 13.9891,-1.30321"
         id="path4113"
         style="fill:none" />
      <path
         d="m 247.44848,145.75203 c 1.91289,-1.484 4.11249,-1.34821 5.73839,-0.37072"
         id="_89901576"
         style="fill:none" />
      <g
         id="g3093"
         style="fill:#d40000;stroke:none">
        <path
           d="m 240.72954,108.81213 a 1.5733956,1.5733956 0 1 1 -3.14679,0 1.5733956,1.5733956 0 1 1 3.14679,0 z"
           transform="matrix(1.006,0,0,1.006,-0.52237196,-1.1354885)"
           id="path3052" />
        <path
           d="m 240.72954,108.81213 a 1.5733956,1.5733956 0 1 1 -3.14679,0 1.5733956,1.5733956 0 1 1 3.14679,0 z"
           transform="matrix(1.006,0,0,1.006,21.078682,-0.26114054)"
           id="path3052-7" />
      </g>
    </g>
    <g
       id="g4106">
      <path
         d="m 290.81892,72.017631 c 4.19393,-7.97608 9.38879,-14.4165 9.40305,-16.2607 0.0858,-10.9754 -41.623,-46.4362999 -47.7185,-46.2421999 -11.5412,0.368149 -51.7088,34.5634999 -51.078,43.2869999 0.148,2.05091 5.26045,5.82736 11.3735,19.8067 7.8335,17.913 6.52017,25.727369 8.26281,27.019769 17.6865,-12.4341 42.49239,-13.676428 61.69034,-2.539548 0.52305,-0.887415 2.6746,-14.816721 8.0668,-25.071021 z"
         id="path4097" />
      <path
         d="m 260.65557,13.748441 c -0.91966,3.61162 -0.53062,44.73047 0.0277,58.48591 6.07372,1.411283 18.47886,5.846237 24.91306,12.018367 M 217.00656,83.91444 c 7.86258,-4.26893 18.25018,-9.41694 26.63778,-11.58159 l -0.9596,-58.963035"
         id="_108102808"
         style="fill:none" />
    </g>
    <g
       id="R-arm">
      <path
         d="m 131.13932,256.10393 c 0.86148,16.3075 -2.95488,36.4543 2.50518,43.0482 8.26524,9.98193 29.9954,6.78266 35.5257,11.3496 l 2.65761,-22.609 -2.84878,-14.91446 -17.60776,-6.75843 -0.2153,24.9108 c -10.44169,0.98332 -16.70417,2.54061 -17.51147,8.02149 0.88564,-5.39472 7.17879,-7.09185 17.51147,-8.02149 l 0.2153,-24.9108 c -5.95483,-2.58274 -15.13828,-9.25506 -20.23188,-10.11598 z"
         id="_108096160" />
      <path
         d="m 132.35161,212.68769 c -6.64265,10.87839 -17.83889,22.17176 -24.16251,27.1923 l 0,0 c 6.18438,-4.99981 17.55691,-16.2842 24.16251,-27.1923 5.33516,-8.81019 13.711,-23.0243 11.373,-30.3276 11.1993,4.06133 10.27996,22.8334 22.7714,42.607 l -1.29151,53.0093 c -43.9223,-20.4472 -39.352,-25.3974 -57.0154,-38.0964 -2.50261,-4.61056 3.72381,-23.29821 15.57156,-49.14451 6.34766,5.59333 4.40889,16.06324 8.59095,21.95221 z"
         id="_108095728" />
      <path
         d="m 141.04009,148.86156 c -0.2153,-5.59609 0,-10.7616 2.58274,-16.1424 -0.57404,-10.1875 -1.99945,-29.74282 -9.46081,-26.37072 0.18802,15.60189 0.0686,21.38173 0.85166,27.44669 -1.57868,-11.3353 0.93221,-29.343 -4.08956,-33.3609 -2.08057,-0.501605 -3.5871,-0.14315 -4.51987,1.07621 l -1.50653,23.1797 c -4.0867,4.12679 -4.59166,4.45292 -3.41881,9.21084 0.89176,3.97817 3.50913,7.40541 5.57098,10.8711 -5.80886,0.58639 -9.06706,-3.67771 -11.40719,-7.31791 l -0.86092,-0.43032 -3.65924,7.53322 0,0 0,0 3.65924,-7.53322 0.86092,0.43032 c 2.39487,3.61941 5.55194,7.96439 11.40719,7.31791 -2.09137,-3.36353 -4.63621,-6.95975 -5.57098,-10.8711 -1.12583,-4.71179 -6.06518,-8.7925 -9.71046,-3.97977 -0.40922,1.40187 -1.85072,2.07401 -2.04777,4.15857 -0.20162,2.13446 -2.67799,2.82685 -3.2007,5.51995 -0.85864,4.42263 1.6628,11.2538 1.92601,16.9748 0.294,6.38628 2.43588,12.4997 5.38221,15.0835 4.92766,4.32168 3.94783,6.00815 5.01464,11.3901 1.07507,5.42385 3.64584,7.02077 4.79734,12.2011 1.57477,5.63966 3.6455,15.7269 5.88032,21.13021 0,0 10.78038,-15.85224 12.37128,-22.53401 4.65301,-12.19048 -2.53385,-13.3015 3.38533,-21.2708 11.5079,-15.4933 0.69096,-25.7094 7.17049,-37.9185 2.65404,-5.23706 -13.84711,-7.67645 -11.40751,14.20543 -9.18701,8.50655 -10.21942,15.65968 -8.82445,21.7385 -1.32887,-6.24142 -0.24454,-13.27184 8.82445,-21.7385 z"
         id="_108096208" />
      <path
         d="m 117.70025,128.51203 c 3.22864,2.22372 2.78506,2.91422 3.73983,4.80307 2.65461,7.46136 7.83307,10.95415 11.63576,8.65828 -1.39218,-3.03673 -3.29395,-6.12421 -3.42341,-7.6373 -0.29686,-3.47446 -1.63001,-4.83356 -1.84417,-6.9569 -0.48991,-4.85124 -8.65623,-5.35295 -10.10801,1.13285 z"
         id="_108093736" />
    </g>
    <path
       d="m 303.32148,167.44146 17.53027,10.68043 c 10.50258,14.89069 6.00315,58.85494 3.28964,88.47113 l -13.6731,80.04116 c -25.81148,26.92287 -36.93904,23.60624 -60.69214,23.91764 -22.1619,0.2903 -30.09936,-1.48084 -55.36536,-29.33493 -3.52037,-2.98768 -5.5824,-22.29043 -7.49301,-34.52483 4.50761,-8.63139 -1.8915,-50.20547 -2.51002,-77.23167 0,0 -7.95452,-6.01474 -9.90962,-7.63077 l 0,0 9.90962,7.63077 c 0.95454,27.04524 6.00999,71.50444 2.51002,77.23167 -1.58873,3.66464 -5.71931,4.78088 -5.71931,4.78088 -13.75447,3.44356 -10.34633,14.36876 -8.50855,18.45983 -1.88352,-4.03623 -5.08158,-15.01926 8.50855,-18.45983 l -0.4035,21.2846 c -7.19872,-2.27534 -11.9467,-2.28788 -14.5161,-10.1901 -1.65282,-5.08422 -0.52585,-18.8555 0.62109,-32.5126 3.86656,1.36109 17.86188,2.71322 20.01782,16.63722 -2.12842,-14.03727 -16.25471,-15.30241 -20.01782,-16.63722 0,0 -4.92126,0.79597 -4.0919,-4.8754 -0.25437,-20.6833 1.30035,-41.3661 1.95025,-62.0492 0,0 -2.90472,-6.46777 -4.53204,-9.72652 0,0 8.66098,-2.45199 14.77864,3.38078 l -2.77808,39.1954 2.77808,-39.1954 -4.76426,-2.80859 -3.3e-4,2e-5 c -1.49313,-2.62096 2.51773,-9.22767 5.26701,-18.0413 2.18437,-7.00167 4.7078,-15.6761 8.39755,-20.2008 5.02233,-6.15786 8.55012,-5.47432 17.4926,-8.19737 0,0 6.78653,-4.56153 21.00885,-12.00116 l 7.94699,-3.81637 7e-5,4e-5 1.63229,0.65417 c 3.4901,7.86172 12.84894,11.1003 19.5951,11.1762 6.7459,0.0761 16.97561,-2.57365 20.9012,-11.0673 l 8.38215,5.01606 z"
       id="_108094984" />
    <path
       d="m 207.6418,282.5982 c 13.3951,23.8578 26.3191,36.2123 47.7053,33.0681 20.15935,-4.40364 34.39311,-19.02834 44.4405,-34.227 M 191.22169,226.57686 c 7.0741,13.8993 22.3459,29.4727 35.4914,37.3008 10.6489,6.34065 17.378,8.74118 32.5072,8.6753 m 54.61287,-39.68721 c -8.56547,15.44322 -39.93287,54.38415 -56.78924,57.45356 -9.6934,1.48333 -25.7114,-1.15578 -40.2622,-14.7374"
       id="_108096040"
       style="fill:none" />
    <g
       id="g3948">
      <use
         transform="matrix(-1,0,0,1,506.2694,0)"
         id="use3921"
         x="0"
         y="0"
         width="500"
         height="578.45001"
         xlink:href="#g3912" />
      <g
         id="g3912">
        <path
           d="m 127.62791,443.4099 c -6.19722,-4.06789 -19.71019,-12.58791 -27.12619,-17.87427 5.70445,-12.1871 13.95433,-30.16857 19.65733,-44.79107 4.10695,4.18309 14.61107,10.91219 21.15246,15.09443 -3.17532,13.8422 -8.68354,33.72931 -13.6836,47.57091 z"
           id="_89019392" />
        <path
           d="m 140.99981,355.70572 c -6.35948,-3.22351 -21.28225,-15.14311 -23.38151,-23.16759 -1.8098,-6.91803 -5.66196,-7.44111 -9.60409,-9.60409 -9.366257,-5.13897 -10.531397,-2.90584 -14.445597,-0.99694 -9.47947,4.6231 -24.1221,-6.94407 -24.3252,-2.72476 l 0,6.64519 c 16.7321,10.1912 19.7742,5.18111 22.8164,9.89666 l 1.36879,5.01935 c -6.27393,-2.54824 -13.8034,-2.90965 -21.9036,-1.19808 l 0.456265,5.41903 c 13.9457,3.02789 21.0056,3.67094 29.846802,15.3014 8.27151,10.8811 20.52117,31.31037 36.84807,40.89797 7.19571,-15.31405 6.09548,-29.62011 2.32367,-45.48814 z"
           id="path3905" />
        <path
           d="m 215.62416,487.98107 c 0,0 -12.0326,-3.99392 -19.33793,3.73305 -7.09435,4.68185 -10.2491,10.0375 -16.095,16.3212 -9.33404,10.0333 -15.874,7.59909 -22.3587,20.3605 17.3552,7.16535 29.7211,1.11956 39.8641,-8.87749 5.53848,-5.45864 15.8361,-9.26075 24.10735,-12.5644 1.07636,-7.17435 -6.17982,-18.97286 -6.17982,-18.97286 z"
           id="_89017016" />
        <path
           d="m 127.14432,501.10593 54.7566,0.17737 c 1.96023,-0.2287 2.95717,-2.11137 4.48879,-4.03709 2.06061,-2.59073 8.36211,-11.63711 9.85694,-17.56228 -7.62076,-1.65282 -11.30214,-6.55567 -10.41499,-12.9362 -12.9961,-1.48343 -25.9914,-3.94897 -38.9853,-7.797 0.98182,13.6081 -7.07897,23.19658 -12.89262,26.67358 -3.18396,2.66081 -9.39991,12.4795 -6.80942,15.48162 z"
           id="_89019776" />
        <path
           d="m 134.69623,343.26442 c 3.4391,-0.91367 25.51464,13.91 41.50264,15.7345 l 2.87478,43.06668 13.1533,11.56813 -2.96842,60.06631 c -10.5326,-3.57911 -21.10299,-2.38293 -39.50609,-7.96106 -10.2027,-3.09233 -20.7193,-8.83671 -30.6496,-12.6154 3.98262,-7.30052 10.3173,-25.8292 13.7766,-43.437 5.6765,-28.8913 11.0573,-61.4945 -5.94541,-64.65272 z"
           id="_89018624" />
        <path
           d="m 102.78342,324.45993 c 3.27028,18.7853 9.96311,13.6138 11.1799,4.33509"
           id="path3903" />
        <path
           d="m 99.200893,326.0349 c 1.146367,1.07935 1.585517,2.47638 0.981817,3.118 -0.603977,0.64134 -2.024952,0.0587 -3.171602,-1.02032 -1.14637,-1.07935 -1.81394,-2.24824 -1.20996,-2.88958 0.603981,-0.64162 2.25309,-0.28716 3.399735,0.7919 z"
           id="_89017712" />
      </g>
      <path
         d="m 305.96038,495.91497 c -3.37408,2.81715 -9.84905,2.18237 -14.7736,3.27399 l -1.18173,-21.8648 c 0.0471,8.22645 1.88466,19.18899 -2.13931,23.94839 -5.82168,5.83884 -13.29418,11.15463 -34.73104,11.15463 -21.43686,0 -28.90936,-5.31579 -34.73104,-11.15463 -4.02397,-4.7594 -2.18641,-15.72194 -2.13931,-23.94839 l -1.18173,21.8648 c -4.92455,-1.09162 -11.39952,-0.45684 -14.7736,-3.27399 -5.14894,-3.8622 -3.88652,-32.42679 -4.38299,-42.15721 l 0.37385,31.51679 c -4.0964,-0.46169 -8.07246,-3.26825 -9.41017,-6.03122 l -0.76339,-69.1944 c 0.61506,-0.1995 1.2305,-0.39909 1.84565,-0.59876 l 11.8945,6.33524 c 8.6171,15.34593 13.20513,14.26401 19.6647,18.4106 24.5299,15.74572 -2.85764,-8.37029 33.60353,-8.37029 36.46117,0 9.07363,24.11601 33.60353,8.37029 6.45957,-4.14659 11.0476,-3.06467 19.6647,-18.4106 l 11.8945,-6.33524 c 0.61515,0.19967 1.23059,0.39926 1.84565,0.59876 l -0.76339,69.1944 c -1.33771,2.76297 -5.31377,5.56953 -9.41017,6.03122 l 0.37385,-31.51679 c -0.49647,9.73042 0.76595,38.29501 -4.38299,42.15721 z"
         id="use3923" />
      <path
         d="m 294.73317,438.9129 c -16.9574,10.1767 -28.99788,13.74082 -41.59839,13.74082 -12.60051,0 -24.64099,-3.56412 -41.59839,-13.74082 -6.3053,-5.6144 -14.48759,-27.1313 -20.6831,-49.6388 2.66231,14.2498 7.83363,22.84952 11.18233,34.86522 -9.0848,-4.4859 -20.74194,-9.12442 -28.68237,-17.2716 -0.53383,-15.9738 -1.63914,-33.2628 -1.82933,-48.37663 3.85261,-8.50363 13.76501,-17.54025 24.78491,-22.28483 6.6118,-2.84652 13.6232,-4.58831 19.963,-2.51145 8.784,2.8782 12.32002,9.19834 21.8551,14.6182 11.6348,6.61328 28.4165,13.6774 39.0038,12.0049 -12.38757,2.01507 -35.02141,-8.78469 -47.18401,-17.36446 15.9744,4.5886 21.47891,4.92015 36.42241,-1.83228 7.2315,-3.26771 12.49386,-7.3085 23.62842,-7.42615 6.67101,-0.0705 13.35138,-0.33528 19.96318,2.51124 11.0199,4.74458 20.9323,13.7812 24.78491,22.28483 -0.19019,15.11383 -1.2955,32.40283 -1.82933,48.37663 -7.94043,8.14718 -19.59757,12.7857 -28.68237,17.2716 3.3487,-12.0157 8.52002,-20.61542 11.18233,-34.86522 -6.19551,22.5075 -14.3778,44.0244 -20.6831,49.6388 z"
         id="use3907" />
      <path
         d="m 299.53753,380.02821 c -20.39669,39.82199 -64.86893,43.01072 -87.85521,10.31272 m 76.70179,-16.50021 c -35.29238,29.35382 -58.02946,8.0765 -72.7551,-10.82859"
         id="path3899"
         style="fill:none" />
    </g>
    <path
       d="m 340.04917,259.85242 c 12.4093,8.49565 27.23836,-0.37193 32.69786,-12.59729 2.00186,-20.4974 -1.92287,-46.4985 -7.07695,-73.6411 l -4.59088,-2.86905 c -3.49567,6.8535 -7.21831,13.00903 -9.98898,16.26023 -0.33839,1.24077 -2.53864,0.7091 -4.5479,-0.86628 l -9.9574,-8.42139 c -5.38156,-0.28839 -16.0908,-4.75596 -16.0908,-4.75596 -1.86593,0.0638 -3.73194,0.12761 -5.59782,0.19131 l -4.39953,88.2318 c 0.2701,13.35827 12.08105,20.72098 23.57665,21.3261 l 5.81544,-0.34396 c 9.40476,0.6208 19.59591,6.91946 16.22471,14.63978 3.3592,-7.73261 -6.89684,-14.00845 -16.22471,-14.63978 l -5.81544,0.34396 c -5.02419,-0.19798 -10.06971,-1.63206 -17.29105,-6.22922 1.78738,12.12516 -3.48073,22.19941 0.58544,30.78107 1.9842,4.29203 8.44931,6.98951 15.14813,10.70265 l 0.16208,-14.31997 c -5.00925,-1.56282 -13.11256,1.23669 -15.31021,3.61732 2.24092,-2.37778 10.30778,-5.18039 15.31021,-3.61732 l 10.9685,0.69766 c 8.69584,-2.83968 13.4869,-6.74388 14.3743,-11.7123 l -1.33087,-30.41772 c -9.09753,2.97818 -11.85025,1.25745 -16.64078,-2.36054 l -5.32952,-1.20628 c -9.27735,0.82298 -25.16825,0.27699 -22.80338,9.36144 -2.4017,-9.11498 13.69442,-8.44231 22.80338,-9.36144 z"
       id="_108096592" />
    <path
       d="m 211.41906,159.01669 c 2.97969,-1.49826 6.35776,-3.76162 7.06982,-3.34014 2.10481,3.67635 6.93123,25.8055 33.0935,25.9672 26.3433,0.16283 31.0234,-23.3933 32.0021,-26.1477 1.63514,-0.3288 5.33944,1.67905 8.9964,3.59337 3.89336,2.03779 7.73397,4.04422 8.96931,5.49314 -9.18518,31.4711 -31.6864,41.6923 -49.5455,40.883 -16.2867,-0.73801 -40.3618,-8.53957 -49.32939,-42.19166 0.14774,-1.03626 4.65478,-2.20088 8.74376,-4.25721 z"
       id="_108094384" />
    <g
       id="g4046">
      <path
         d="m 335.61404,87.436725 c -0.6744,-8.1318 -11.38894,-11.037 -14.8075,-25.9737 -4.16057,-18.1776 4.6539,-20.0138 -4.96188,-31.8456 5.59837,-0.77935 9.49516,0.42547 11.6915,3.61362 3.47246,-9.2112 11.40833,-8.2191 11.6915,-25.7210999 3.89707,1.98418 5.45578,4.8184399 5.95197,9.1406899 14.6675,-8.0065899 21.6823,4.81816 35.0742,-4.88916 l 2.33836,4.25125 c -1.72069,2.85964 -3.38948,4.17168 -5.10161,5.31434 10.9826,7.0861 8.5735,21.398797 22.1075,21.8947 -2.40993,3.472747 -5.10218,4.39326 -8.07788,2.76354 1.1335,23.7372 -14.73851,22.6036 -15.0924,35.4994 -3.01277,-0.4594 -5.1384,-2.5143 -5.31434,-8.07788 -10.20495,0.3211 -17.57419,-2.7259 -18.7063,-13.1792 -15.7697,4.819 -18.1083,-16.012584 -4.0388,-16.3679 -1.0634,-14.242052 19.27264,-12.045652 15.0924,0.212448 11.19535,1.2049 10.91185,17.28933 -0.21245,15.0927 l -1.70073,0.850078 c 3.6687,6.31638 14.40829,4.04878 17.7413,-4.42662 2.13677,-5.433 0.98187,-18.51977 -9.74553,-26.2891 -10.7402,-7.77903 -24.80625,-2.92123 -30.4762,5.27927 -10.9849,15.888 -7.3501,26.6524 8.0257,40.7416 l -1.55261,62.126829 -1.69792,48.881 -7.628,329.21381 c -5.72723,-2.54544 -9.55073,-6.28911 -10.028,-8.03909 l 8.801,-332.32272 -0.16278,-41.44643 0.84865,-16.551 z"
         id="_108093592" />
      <path
         d="m 329.87432,100.82893 -0.63763,11.6915 c 1.02688,7.94642 9.62576,2.9931 15.9636,4.82814 2.75014,0.7959 4.15115,2.12049 5.29353,-1.85215 l 0.63763,-14.2423 c -0.60227,-1.700159 -3.00935,-1.808519 -4.14488,-4.463979 -6.10353,1.4859 -7.6435,0.572108 -12.64823,0.850355 -1.488,1.062815 -2.97602,2.125672 -4.46402,3.188434 z"
         id="_108094000" />
    </g>
    <path
       d="m 351.13232,186.85393 c 3.6755,-4.527 5.86585,-8.13919 8.79878,-14.005 l -5.73839,-22.5706 c -3.85743,-3.18758 -6.66204,-7.07638 -8.98984,-11.2854 -6.10824,-1.41185 -8.76028,-3.22408 -13.3469,-2.378 -7.58398,1.39902 -9.91321,4.91939 -15.5358,11.1768 -0.82869,4.39925 1.88129,5.35637 2.58251,5.54771 2.74187,-2.80517 4.22368,-4.58918 7.74618,-9.37321 -3.52034,4.786 -7.82376,9.10997 -11.0938,13.0067 -0.89257,1.8493 0.55906,8.70381 3.68304,8.06618 3.31629,-4.66962 4.66945,-8.19337 7.6021,-11.8917 -2.95671,3.70315 -6.15159,10.45519 -9.18116,13.96315 -1.5302,1.8493 2.67772,6.7584 5.16436,6.31211 1.84946,-3.76043 3.5554,-7.52372 5.35597,-11.28513 -1.78532,3.76171 -3.57065,7.52342 -5.35597,11.28513 -0.38241,2.80603 2.2953,5.6112 8.03368,8.41609 2.08456,0.0716 1.68276,-8.84697 -0.63193,-6.67173 -0.74571,-2.81287 0.99523,-5.05199 2.92722,-6.71764 0.26178,0.96842 -0.20275,2.70308 3.36809,4.10524 2.43303,0.95559 10.6966,10.9578 14.6119,14.2993 z"
       id="_108095152" />
  </g>
  <g
     transform="matrix(0.441863,0,0,0.441863,41.129968,-15.533746)"
     id="g3699"
     style="fill-rule:evenodd">
    <g
       transform="matrix(1.2945877,0,0,1.2945877,54.13843,360.98313)"
       id="Book"
       style="fill:#d40000;fill-rule:evenodd;stroke:#ffcd50;stroke-width:1.5">
      <path
         d="m 37.782974,206.20467 -14.887251,31.75558 c -1.223523,2.69344 -2.722648,7.37892 -2.524728,14.21305 9.961051,0.71613 20.968481,0.67005 29.587913,-1.81175 11.984184,-3.45061 22.432228,-9.06802 35.291814,-5.78611 8.782224,2.2412 14.892538,6.65787 20.252098,10.09212 13.04504,-9.50453 23.22806,-11.55637 29.05572,-11.39358 5.69685,0.15927 11.46118,1.91612 16.84428,3.83211 11.94289,4.25123 25.57162,6.02747 39.43427,4.64833 0.35127,-0.23934 0.33629,-8.8521 -2.53027,-12.86211 l -14.87617,-31.98296 c -2.755,5.72833 -12.98133,4.05395 -21.67517,2.03497 -8.32067,-1.93235 -16.75276,-3.9434 -25.30307,-4.08731 -7.6739,-0.12943 -16.25543,2.0322 -21.02174,9.26859 -3.75404,-7.26157 -11.820758,-9.08465 -20.472672,-9.26859 -10.179116,-0.21643 -19.655568,2.18303 -29.582626,4.08731 -7.856712,1.50718 -15.681949,1.79499 -17.592398,-2.73965 l 0,0 z"
         id="path7" />
      <line
         id="line9"
         style="fill:none"
         y2="254.50603"
         x2="105.4313"
         y1="214.129"
         x1="105.4313"
         class="fil3 str0" />
      <path
         d="m 22.911084,237.89944 c 5.501826,1.58663 17.561048,2.92296 28.906779,-1.68256 10.916402,-4.43128 18.392259,-6.10654 25.77117,-5.97472 10.830285,0.19339 19.565547,3.0403 27.796697,9.14231 7.8625,-5.13986 17.21444,-8.26111 26.43593,-8.75843 9.76515,-0.52665 18.16916,2.18995 23.81527,4.56423 11.8953,5.00212 21.69406,5.93669 32.52573,3.48184"
         id="path11"
         style="fill:none" />
    </g>
    <path
       d="m 168.81609,552.78735 a 17.770115,17.770115 0 1 1 -35.54023,0 17.770115,17.770115 0 1 1 35.54023,0 z"
       transform="matrix(1.3634689,0,0,1.3634689,-42.564795,-131.2541)"
       id="use3691"
       style="fill:#d40000;fill-rule:evenodd;stroke:#ffcd50;stroke-width:2" />
    <use
       transform="translate(55.119936,0)"
       id="use4275"
       x="0"
       y="0"
       width="251"
       height="304.20001"
       xlink:href="#use3691" />
    <path
       d="m 168.81609,552.78735 a 17.770115,17.770115 0 1 1 -35.54023,0 17.770115,17.770115 0 1 1 35.54023,0 z"
       transform="matrix(1.3634689,0,0,1.3634689,-15.004827,-171.47676)"
       id="path3657"
       style="fill:#d40000" />
  </g>
</svg>
