<?xml version="1.0" encoding="UTF-8" standalone="no"?>
<!-- Created with Inkscape (http://www.inkscape.org/) -->
<svg
   xmlns:dc="http://purl.org/dc/elements/1.1/"
   xmlns:cc="http://web.resource.org/cc/"
   xmlns:rdf="http://www.w3.org/1999/02/22-rdf-syntax-ns#"
   xmlns:svg="http://www.w3.org/2000/svg"
   xmlns="http://www.w3.org/2000/svg"
   version="1.0"
   width="251"
   height="304.20001"
   id="svg4166">
  <defs
     id="defs4168" />
  <metadata
     id="metadata1880"><rdf:RDF><cc:Work
         rdf:about=""><dc:title>Hjo kommunvapen</dc:title><dc:date>14-10-2007</dc:date><dc:creator><cc:Agent><dc:title>Lokal_Profil</dc:title></cc:Agent></dc:creator><cc:license
         rdf:resource="http://creativecommons.org/licenses/by-sa/2.5/" /><dc:rights><cc:Agent><dc:title>cc-by-sa-2.5</dc:title></cc:Agent></dc:rights><dc:format>image/svg+xml</dc:format><dc:type
         rdf:resource="http://purl.org/dc/dcmitype/StillImage" /></cc:Work><cc:License
         rdf:about="http://creativecommons.org/licenses/by-sa/2.5/"><cc:permits
         rdf:resource="http://web.resource.org/cc/Reproduction" /><cc:permits
         rdf:resource="http://web.resource.org/cc/Distribution" /><cc:requires
         rdf:resource="http://web.resource.org/cc/Notice" /><cc:requires
         rdf:resource="http://web.resource.org/cc/Attribution" /><cc:permits
         rdf:resource="http://web.resource.org/cc/DerivativeWorks" /><cc:requires
         rdf:resource="http://web.resource.org/cc/ShareAlike" /></cc:License></rdf:RDF>
  </metadata>
  <path
     d="M 249.55058,1.4395041 L 1.4495291,1.4395041 L 1.4495291,174.9361 C 0.68228908,268.65698 81.738969,302.75585 125.50006,302.75585 C 168.49391,302.75585 250.31781,268.65698 249.55058,174.9361 L 249.55058,1.4395041 z "
     style="color:#000000;fill:#003d8f;fill-opacity:1;stroke:none"
     id="Shield" />
  <g
     id="Kogg">
    <g
       id="g4032">
      <path
         d="M 122.82191,204.10867 C 122.82191,204.10867 127.26528,204.45047 128.46157,204.10867 C 129.65786,203.76687 130.68325,203.42507 130.68325,203.42507 L 129.99966,176.76485 C 129.99966,176.76485 124.87269,176.93575 123.3346,178.81564 C 121.79652,180.69552 122.99281,204.10867 122.82191,204.10867 z "
         style="fill:#ffcd50;fill-opacity:1;fill-rule:evenodd;stroke:none;stroke-width:1px;stroke-linecap:butt;stroke-linejoin:miter;stroke-opacity:1"
         id="path3279" />
      <path
         d="M 99.750563,196.41822 C 99.750563,196.41822 100.94685,183.42991 114.44787,177.96114 C 127.94887,172.49238 136.83561,174.71406 144.52606,176.59395 C 152.21651,178.47384 160.24876,184.6262 160.24876,184.6262 C 160.24876,184.6262 151.56945,147.56959 154.95089,122.58992 C 157.58399,103.1385 159.73606,94.562504 171.35718,75.763629 C 179.58928,62.446996 184.34549,59.528239 184.34549,59.528239 L 171.52808,63.629808 L 165.37572,71.491159 L 168.4519,71.491159 C 166.81619,74.37611 164.39025,76.865944 160.93235,78.839805 L 159.22336,72.516551 C 159.22336,72.516551 160.93235,72.003855 162.12864,69.782169 C 163.32494,67.560483 163.83763,66.364189 163.83763,66.364189 L 151.19111,70.978458 L 147.60224,77.301717 L 150.33662,77.301717 C 148.90162,80.087641 146.9226,82.601561 143.67157,84.479471 L 140.93718,78.498011 C 140.93718,78.498011 141.96258,78.839805 142.64617,77.643516 C 143.32977,76.447222 144.52606,72.516551 144.52606,72.516551 L 109.4918,85.846662 L 106.75742,91.315426 L 109.4918,91.144524 C 109.27009,91.616429 106.19332,97.366263 103.16854,98.834974 C 102.48495,97.125984 101.11775,94.562504 100.94685,93.36621 C 100.77596,92.169916 100.77596,92.169916 100.77596,92.169916 L 101.97225,91.999019 L 102.48495,87.897446 L 90.180227,92.682617 C 90.180227,92.682617 89.667531,93.024411 89.496629,94.733401 C 89.325732,96.442391 89.325732,97.125984 89.325732,97.125984 L 92.57281,96.613288 C 92.57281,96.613288 89.325732,101.22756 88.129443,102.08205 C 86.933149,102.93655 85.736855,103.96194 85.736855,103.96194 C 85.736855,103.96194 83.776615,102.01189 83.344272,100.71486 C 83.002473,99.689469 82.489777,98.834974 82.489777,98.834974 L 85.395061,96.955087 L 84.540566,94.904298 L 79.071802,97.125984 C 79.071802,97.125984 67.793368,117.97575 73.63236,147.3581 C 77.575303,167.19935 99.750563,196.76002 99.750563,196.41822 z "
         style="fill:#ffcd50;fill-opacity:1;fill-rule:evenodd;stroke:none;stroke-width:1px;stroke-linecap:butt;stroke-linejoin:miter;stroke-opacity:1"
         id="path3281" />
      <path
         d="M 67.279779,96.613288 C 67.109729,97.92101 67.359334,98.656217 68.134274,99.689469 L 85.224159,93.36621 C 85.224159,93.36621 85.395061,91.999019 85.907757,90.973627 C 86.420453,89.948235 86.59135,89.777337 86.59135,89.777337 L 67.279779,96.613288 z "
         style="fill:#ffcd50;fill-opacity:1;fill-rule:evenodd;stroke:none;stroke-width:1px;stroke-linecap:butt;stroke-linejoin:miter;stroke-opacity:1"
         id="path3283" />
      <path
         d="M 90.522026,88.410146 C 90.522026,88.410146 87.787644,89.264637 86.933149,91.486323 C 86.078654,93.708009 85.907757,95.0752 85.907757,96.613288 C 85.907757,98.15138 85.907757,98.15138 85.907757,98.15138 L 84.02787,99.34767 L 85.224159,101.74026 L 85.565958,102.08205 C 85.565958,102.08205 88.30034,100.20216 89.154835,99.176772 C 90.00933,98.15138 90.180227,98.15138 90.180227,98.15138 L 88.129443,98.15138 C 88.129443,98.15138 88.471237,90.80273 90.522026,88.410146 z "
         style="fill:#ffcd50;fill-opacity:1;fill-rule:evenodd;stroke:none;stroke-width:1px;stroke-linecap:butt;stroke-linejoin:miter;stroke-opacity:1"
         id="path3285" />
      <path
         d="M 93.427305,87.726549 C 93.427305,87.726549 92.914609,88.410146 92.401913,89.264637 C 91.889217,90.119132 91.718315,91.144528 91.718315,91.144528 L 103.33944,86.530259 C 103.33944,86.530259 103.51034,84.992167 103.68123,84.308574 C 103.85214,83.624976 104.02303,83.454079 104.02303,83.454079 L 93.427305,87.726549 z "
         style="fill:#ffcd50;fill-opacity:1;fill-rule:evenodd;stroke:none;stroke-width:1px;stroke-linecap:butt;stroke-linejoin:miter;stroke-opacity:1"
         id="path3287" />
      <path
         d="M 108.2955,82.086888 C 108.2955,82.086888 104.87753,82.257785 104.53573,84.82127 C 104.19393,87.38475 103.16854,92.853514 103.16854,92.853514 L 102.14315,93.024415 L 103.33944,96.442391 C 103.33944,96.442391 106.24472,94.391606 106.58652,93.36621 C 106.92831,92.340818 106.92831,92.340818 106.92831,92.340818 L 105.04843,92.340818 C 105.04843,92.340818 107.95371,86.017559 108.2955,82.086888 z "
         style="fill:#ffcd50;fill-opacity:1;fill-rule:evenodd;stroke:none;stroke-width:1px;stroke-linecap:butt;stroke-linejoin:miter;stroke-opacity:1"
         id="path3289" />
      <path
         d="M 110.34629,81.40329 C 110.34629,81.40329 110.51719,82.086888 110.34629,82.941383 C 110.17539,83.795878 110.34629,84.308574 110.34629,84.308574 C 110.34629,84.308574 135.81022,74.738237 140.42449,73.029247 C 145.03876,71.320262 145.20965,71.320262 145.20965,71.320262 L 146.57685,69.269473 L 146.91864,68.244081 C 146.91864,68.244081 113.93517,79.352506 110.34629,81.40329 z "
         style="fill:#ffcd50;fill-opacity:1;fill-rule:evenodd;stroke:none;stroke-width:1px;stroke-linecap:butt;stroke-linejoin:miter;stroke-opacity:1"
         id="path3291" />
      <path
         d="M 152.55831,66.364194 C 152.55831,66.364194 148.45674,67.560483 148.11494,68.414978 C 147.77314,69.269473 143.84246,78.327114 143.84246,78.327114 L 142.47528,79.181609 C 142.47528,79.181609 143.67157,81.232393 144.01337,81.915991 C 144.35516,82.599584 144.35516,82.599584 144.35516,82.599584 C 144.35516,82.599584 145.55145,81.061496 146.57685,79.523403 C 147.60224,77.985315 147.60224,77.985315 147.60224,77.985315 L 146.06415,77.814418 C 146.06415,77.814418 151.02022,67.731385 152.55831,66.364194 z "
         style="fill:#ffcd50;fill-opacity:1;fill-rule:evenodd;stroke:none;stroke-width:1px;stroke-linecap:butt;stroke-linejoin:miter;stroke-opacity:1"
         id="path3293" />
      <path
         d="M 154.77999,66.022395 C 154.77999,66.022395 153.9255,67.047787 153.7546,67.731385 C 153.5837,68.414978 153.5837,68.58588 153.5837,68.58588 C 153.5837,68.58588 160.93235,66.193292 162.47044,65.338802 C 164.00853,64.484307 164.00853,64.484307 164.00853,64.484307 C 164.00853,64.484307 165.37572,62.946214 165.54662,62.262621 C 165.71752,61.579023 165.71752,61.579023 165.71752,61.579023 C 165.71752,61.579023 155.80538,65.1679 154.77999,66.022395 z "
         style="fill:#ffcd50;fill-opacity:1;fill-rule:evenodd;stroke:none;stroke-width:1px;stroke-linecap:butt;stroke-linejoin:miter;stroke-opacity:1"
         id="path3295" />
      <path
         d="M 172.21168,59.528239 C 172.21168,59.528239 168.4519,59.699136 167.7683,60.724533 C 167.08471,61.749925 167.08471,61.749925 167.08471,61.749925 C 167.08471,61.749925 161.95775,71.832958 161.78684,72.687453 C 161.61595,73.541943 161.61595,73.541943 161.61595,73.541943 L 160.76145,73.712845 L 161.44505,75.934531 L 161.78684,76.618124 C 161.78684,76.618124 163.49583,75.934531 164.69213,74.054639 C 165.88842,72.174752 165.88842,72.516551 165.88842,72.516551 L 163.49583,72.687448 C 163.49583,72.687448 171.01538,61.408126 172.21168,59.528239 z "
         style="fill:#ffcd50;fill-opacity:1;fill-rule:evenodd;stroke:none;stroke-width:1px;stroke-linecap:butt;stroke-linejoin:miter;stroke-opacity:1"
         id="path3297" />
      <path
         d="M 175.97145,58.161048 C 175.97145,58.161048 174.09156,59.528239 173.92066,60.211832 C 173.74976,60.89543 173.06617,61.579023 173.06617,61.579023 C 173.06617,61.579023 190.66875,55.597564 192.37774,54.401274 C 194.08673,53.20498 194.59943,53.546779 193.40313,52.521387 C 192.20684,51.495991 176.14235,57.990151 175.97145,58.161048 z "
         style="fill:#ffcd50;fill-opacity:1;fill-rule:evenodd;stroke:none;stroke-width:1px;stroke-linecap:butt;stroke-linejoin:miter;stroke-opacity:1"
         id="path3299" />
      <path
         d="M 124.10698,74.548016 L 123.8653,72.493672 C 123.8653,72.493672 123.98614,71.889454 124.7112,71.889454 C 125.43627,71.889454 126.52386,72.251985 126.52386,72.251985 L 126.52386,73.822955 L 124.10698,74.548016 z "
         style="fill:#ffcd50;fill-opacity:1;fill-rule:evenodd;stroke:none;stroke-width:1px;stroke-linecap:butt;stroke-linejoin:miter;stroke-opacity:1"
         id="path3301" />
      <path
         d="M 122.29433,72.614515 C 122.29433,72.614515 117.94395,72.614515 116.01046,71.889454 C 114.07695,71.164393 111.53954,70.56012 111.53954,70.56012 C 117.88093,68.524029 126.28255,65.942978 136.55378,70.197615 C 136.55378,70.197615 131.35761,72.010298 129.66579,72.614515 C 127.97399,73.218737 127.97399,73.218737 127.97399,73.218737 L 127.85314,70.681015 C 127.85314,70.681015 126.6447,69.83511 124.83204,70.076797 C 123.01939,70.318484 122.29433,71.04355 122.29433,71.04355 L 122.29433,72.614515 z "
         style="fill:#ffcd50;fill-opacity:1;fill-rule:evenodd;stroke:none;stroke-width:1px;stroke-linecap:butt;stroke-linejoin:miter;stroke-opacity:1"
         id="path3303" />
      <path
         d="M 111.1767,69.659694 C 110.91648,67.422482 111.37286,61.381301 110.3308,59.925925 C 110.3308,59.925925 115.16455,57.50905 120.60252,57.14652 C 126.04048,56.783989 131.96183,57.50905 134.98292,58.234111 C 138.00401,58.959172 137.87362,59.608982 137.87362,59.608982 C 137.15997,61.162292 137.40667,67.083436 137.27895,69.418007 C 137.27895,69.418007 131.23676,67.484506 125.91964,67.242819 C 120.60252,67.001132 111.05586,69.538851 111.1767,69.659694 z "
         style="fill:#ffcd50;fill-opacity:1;fill-rule:evenodd;stroke:none;stroke-width:1px;stroke-linecap:butt;stroke-linejoin:miter;stroke-opacity:1"
         id="path3307" />
      <path
         d="M 41.815852,164.63103 C 41.815852,164.63103 37.973196,163.91538 36.093313,163.91538 C 34.213426,163.91538 32.728808,164.47846 33.810226,165.62437 C 35.377654,167.28526 36.688887,167.87811 39.08147,175.22676 C 41.474053,182.57541 51.557086,229.5726 53.949669,236.75035 C 56.342252,243.9281 59.589334,253.66933 59.589334,253.66933 C 59.589334,253.66933 71.210455,257.08731 79.242699,258.2836 C 87.274948,259.4799 89.496629,259.4799 89.496629,259.4799 C 89.496629,259.4799 70.35596,245.80799 61.469221,225.12923 C 52.582478,204.45047 47.797312,190.94945 45.233827,179.15744 C 42.670347,167.36541 42.157651,164.63103 41.815852,164.63103 z "
         style="fill:#ffcd50;fill-opacity:1;fill-rule:evenodd;stroke:none;stroke-width:1px;stroke-linecap:butt;stroke-linejoin:miter;stroke-opacity:1"
         id="path3629" />
      <path
         d="M 231.51358,181.89182 L 225.01942,181.55002 C 225.01942,181.55002 215.79088,221.36945 214.42369,225.98372 C 213.0565,230.59799 211.68931,232.64878 211.68931,232.64878 C 211.68931,232.64878 209.29673,241.53552 207.41684,245.12439 C 205.53695,248.71327 202.28987,251.96035 202.28987,251.96035 C 202.28987,251.96035 211.34751,249.22597 215.10729,246.49158 C 218.86706,243.7572 218.86706,243.7572 218.86706,243.7572 C 218.86706,243.7572 221.67611,200.93128 223.89779,193.92442 C 226.11948,186.91757 230.90464,186.62389 230.90464,186.62389 C 231.012,185.48456 231.67557,183.03115 231.51358,181.89182 z "
         style="fill:#ffcd50;fill-opacity:1;fill-rule:evenodd;stroke:none;stroke-width:1px;stroke-linecap:butt;stroke-linejoin:miter;stroke-opacity:1"
         id="path3631" />
      <path
         d="M 177.85134,257.77091 C 177.85134,257.77091 192.71954,250.59316 200.75178,243.24451 C 208.78403,235.89585 209.98032,234.52866 209.98032,234.52866 C 209.98032,234.52866 206.73324,244.099 204.85336,247.00428 C 202.97347,249.90956 198.0174,253.15664 198.0174,253.15664 C 198.0174,253.15664 180.75662,257.94181 177.85134,257.77091 z "
         style="fill:#ffcd50;fill-opacity:1;fill-rule:evenodd;stroke:none;stroke-width:1px;stroke-linecap:butt;stroke-linejoin:miter;stroke-opacity:1"
         id="path3633" />
      <path
         d="M 16.466746,143.91232 L 19.729527,143.67064 C 19.729527,143.67064 19.487839,154.66741 19.366996,156.35923 C 19.246152,158.05104 19.004464,161.67635 19.004464,161.67635 L 15.499996,161.55551 C 15.499996,161.55551 16.104215,146.57088 16.466746,143.91232 z "
         style="fill:#ffcd50;fill-opacity:1;fill-rule:evenodd;stroke:none;stroke-width:1px;stroke-linecap:butt;stroke-linejoin:miter;stroke-opacity:1"
         id="path3702" />
      <path
         d="M 21.421339,146.57088 L 21.058808,148.50439 C 21.058808,148.50439 47.523585,150.43789 51.632274,150.67957 C 55.740962,150.92126 62.26652,151.40463 62.26652,151.40463 L 62.024838,148.74607 C 62.024838,148.74607 24.804962,146.57088 21.421339,146.57088 z "
         style="fill:#ffcd50;fill-opacity:1;fill-rule:evenodd;stroke:none;stroke-width:1px;stroke-linecap:butt;stroke-linejoin:miter;stroke-opacity:1"
         id="path3704" />
      <path
         d="M 62.508212,165.05998 C 62.508212,165.05998 63.112429,150.92126 63.233273,149.59198 C 63.354116,148.2627 63.595803,147.53763 63.595803,147.53763 L 65.770991,148.02101 C 66.248267,153.88457 64.80279,159.57766 65.287617,165.42251 L 62.508212,165.05998 z "
         style="fill:#ffcd50;fill-opacity:1;fill-rule:evenodd;stroke:none;stroke-width:1px;stroke-linecap:butt;stroke-linejoin:miter;stroke-opacity:1"
         id="path3706" />
      <path
         d="M 20.575433,159.01779 L 20.454589,160.83045 L 60.937242,163.97238 L 61.178929,162.15973 C 61.178929,162.15973 24.321588,159.13863 20.575433,159.01779 z "
         style="fill:#ffcd50;fill-opacity:1;fill-rule:evenodd;stroke:none;stroke-width:1px;stroke-linecap:butt;stroke-linejoin:miter;stroke-opacity:1"
         id="path3708" />
      <path
         d="M 22.629778,149.83366 L 26.134245,153.09645 L 30.726307,150.43789 L 22.629778,149.83366 z "
         style="fill:#ffcd50;fill-opacity:1;fill-rule:evenodd;stroke:none;stroke-width:1px;stroke-linecap:butt;stroke-linejoin:miter;stroke-opacity:1"
         id="path3710" />
      <path
         d="M 24.804962,153.82151 L 21.058808,156.96344 L 21.300495,150.80042 L 24.804962,153.82151 z "
         style="fill:#ffcd50;fill-opacity:1;fill-rule:evenodd;stroke:none;stroke-width:1px;stroke-linecap:butt;stroke-linejoin:miter;stroke-opacity:1"
         id="path3712" />
      <path
         d="M 21.904713,157.80935 L 25.892558,155.02994 L 28.792806,158.41357 L 21.904713,157.80935 z "
         style="fill:#ffcd50;fill-opacity:1;fill-rule:evenodd;stroke:none;stroke-width:1px;stroke-linecap:butt;stroke-linejoin:miter;stroke-opacity:1"
         id="path3714" />
      <path
         d="M 30.001246,157.68851 L 26.980149,154.30488 L 30.605463,151.76716 L 30.001246,157.68851 z "
         style="fill:#ffcd50;fill-opacity:1;fill-rule:evenodd;stroke:none;stroke-width:1px;stroke-linecap:butt;stroke-linejoin:miter;stroke-opacity:1"
         id="path3716" />
      <path
         d="M 32.374711,158.13434 L 32.582373,151.24976 L 36.11148,155.18481 L 32.374711,158.13434 z "
         style="fill:#ffcd50;fill-opacity:1;fill-rule:evenodd;stroke:none;stroke-width:1px;stroke-linecap:butt;stroke-linejoin:miter;stroke-opacity:1"
         id="path3718" />
      <path
         d="M 33.505712,158.7761 L 36.957389,156.16095 L 40.418442,159.25947 L 33.505712,158.7761 z "
         style="fill:#ffcd50;fill-opacity:1;fill-rule:evenodd;stroke:none;stroke-width:1px;stroke-linecap:butt;stroke-linejoin:miter;stroke-opacity:1"
         id="path3720" />
      <path
         d="M 37.25187,154.42573 L 40.756336,151.40463 L 33.868242,150.80042 L 37.25187,154.42573 z "
         style="fill:#ffcd50;fill-opacity:1;fill-rule:evenodd;stroke:none;stroke-width:1px;stroke-linecap:butt;stroke-linejoin:miter;stroke-opacity:1"
         id="path3722" />
      <path
         d="M 38.228002,155.4265 L 41.602245,152.25054 L 41.437992,158.36078 L 38.228002,155.4265 z "
         style="fill:#ffcd50;fill-opacity:1;fill-rule:evenodd;stroke:none;stroke-width:1px;stroke-linecap:butt;stroke-linejoin:miter;stroke-opacity:1"
         id="path3724" />
      <path
         d="M 43.777432,152.85476 L 43.535741,158.29273 L 46.31515,155.87585 L 43.777432,152.85476 z "
         style="fill:#ffcd50;fill-opacity:1;fill-rule:evenodd;stroke:none;stroke-width:1px;stroke-linecap:butt;stroke-linejoin:miter;stroke-opacity:1"
         id="path3726" />
      <path
         d="M 44.985867,151.88801 L 47.470792,154.94312 L 50.665526,152.49223 L 44.985867,151.88801 z "
         style="fill:#ffcd50;fill-opacity:1;fill-rule:evenodd;stroke:none;stroke-width:1px;stroke-linecap:butt;stroke-linejoin:miter;stroke-opacity:1"
         id="path3728" />
      <path
         d="M 48.611182,155.63417 L 51.753117,153.21729 L 51.873961,159.62201 L 48.611182,155.63417 z "
         style="fill:#ffcd50;fill-opacity:1;fill-rule:evenodd;stroke:none;stroke-width:1px;stroke-linecap:butt;stroke-linejoin:miter;stroke-opacity:1"
         id="path3730" />
      <path
         d="M 47.402742,156.72176 L 44.139963,159.62201 L 50.423834,160.22623 L 47.402742,156.72176 z "
         style="fill:#ffcd50;fill-opacity:1;fill-rule:evenodd;stroke:none;stroke-width:1px;stroke-linecap:butt;stroke-linejoin:miter;stroke-opacity:1"
         id="path3732" />
      <path
         d="M 53.590411,153.86492 L 53.624436,159.25947 L 56.500048,156.99747 L 53.590411,153.86492 z "
         style="fill:#ffcd50;fill-opacity:1;fill-rule:evenodd;stroke:none;stroke-width:1px;stroke-linecap:butt;stroke-linejoin:miter;stroke-opacity:1"
         id="path3734" />
      <path
         d="M 54.411679,152.73391 L 57.311927,155.8078 L 60.937242,152.61307 L 54.411679,152.73391 z "
         style="fill:#ffcd50;fill-opacity:1;fill-rule:evenodd;stroke:none;stroke-width:1px;stroke-linecap:butt;stroke-linejoin:miter;stroke-opacity:1"
         id="path3736" />
      <path
         d="M 61.135519,154.3917 L 58.089786,157.0749 L 60.937242,160.34707 L 61.135519,154.3917 z "
         style="fill:#ffcd50;fill-opacity:1;fill-rule:evenodd;stroke:none;stroke-width:1px;stroke-linecap:butt;stroke-linejoin:miter;stroke-opacity:1"
         id="path3738" />
      <path
         d="M 57.07024,157.9302 L 54.222785,160.34707 L 59.849646,160.58876 L 57.07024,157.9302 z "
         style="fill:#ffcd50;fill-opacity:1;fill-rule:evenodd;stroke:none;stroke-width:1px;stroke-linecap:butt;stroke-linejoin:miter;stroke-opacity:1"
         id="path3740" />
      <path
         d="M 167.04042,161.04216 L 170.1166,161.55485 L 170.1166,178.64474 L 168.10728,178.95721 L 167.04042,161.04216 z "
         style="fill:#ffcd50;fill-opacity:1;fill-rule:evenodd;stroke:none;stroke-width:1px;stroke-linecap:butt;stroke-linejoin:miter;stroke-opacity:1"
         id="path3839" />
      <path
         d="M 171.99649,163.26384 L 171.99649,164.97283 L 230.4439,166.34002 L 230.4439,164.11834 L 171.99649,163.26384 z "
         style="fill:#ffcd50;fill-opacity:1;fill-rule:evenodd;stroke:none;stroke-width:1px;stroke-linecap:butt;stroke-linejoin:miter;stroke-opacity:1"
         id="path3841" />
      <path
         d="M 171.82559,175.56856 L 171.82559,177.61934 C 171.82559,177.61934 207.88525,177.96114 217.11379,178.30294 C 226.34233,178.64474 230.95659,178.98654 230.95659,178.98654 L 230.95659,176.59395 C 230.95659,176.59395 197.63131,175.39766 171.82559,175.56856 z "
         style="fill:#ffcd50;fill-opacity:1;fill-rule:evenodd;stroke:none;stroke-width:1px;stroke-linecap:butt;stroke-linejoin:miter;stroke-opacity:1"
         id="path3843" />
      <path
         d="M 171.65469,166.51092 L 171.99649,174.20137 L 175.13679,174.12393 L 175.30769,166.51092 L 171.65469,166.51092 z "
         style="fill:#ffcd50;fill-opacity:1;fill-rule:evenodd;stroke:none;stroke-width:1px;stroke-linecap:butt;stroke-linejoin:miter;stroke-opacity:1"
         id="path3845" />
      <path
         d="M 226.35563,167.61375 L 226.29423,175.22676 L 230.4439,175.22676 L 230.4439,167.70721 L 226.35563,167.61375 z "
         style="fill:#ffcd50;fill-opacity:1;fill-rule:evenodd;stroke:none;stroke-width:1px;stroke-linecap:butt;stroke-linejoin:miter;stroke-opacity:1"
         id="path3847" />
      <path
         d="M 176.95256,167.70721 L 176.95256,173.17598 L 180.37053,170.27069 L 176.95256,167.70721 z "
         style="fill:#ffcd50;fill-opacity:1;fill-rule:evenodd;stroke:none;stroke-width:1px;stroke-linecap:butt;stroke-linejoin:miter;stroke-opacity:1"
         id="path3849" />
      <path
         d="M 178.83244,166.51092 L 182.07952,169.2453 L 185.8393,166.51092 L 178.83244,166.51092 z "
         style="fill:#ffcd50;fill-opacity:1;fill-rule:evenodd;stroke:none;stroke-width:1px;stroke-linecap:butt;stroke-linejoin:miter;stroke-opacity:1"
         id="path3851" />
      <path
         d="M 181.73772,170.95429 L 178.31975,174.03047 L 186.01019,174.71406 L 181.73772,170.95429 z "
         style="fill:#ffcd50;fill-opacity:1;fill-rule:evenodd;stroke:none;stroke-width:1px;stroke-linecap:butt;stroke-linejoin:miter;stroke-opacity:1"
         id="path3853" />
      <path
         d="M 183.78851,170.44159 L 187.20649,167.53631 L 187.37738,173.85957 L 183.78851,170.44159 z "
         style="fill:#ffcd50;fill-opacity:1;fill-rule:evenodd;stroke:none;stroke-width:1px;stroke-linecap:butt;stroke-linejoin:miter;stroke-opacity:1"
         id="path3855" />
      <path
         d="M 188.91548,168.21991 L 189.08637,173.68867 L 192.84615,170.78339 L 188.91548,168.21991 z "
         style="fill:#ffcd50;fill-opacity:1;fill-rule:evenodd;stroke:none;stroke-width:1px;stroke-linecap:butt;stroke-linejoin:miter;stroke-opacity:1"
         id="path3857" />
      <path
         d="M 190.28266,167.02362 L 194.04244,169.758 L 198.14402,166.85272 L 190.28266,167.02362 z "
         style="fill:#ffcd50;fill-opacity:1;fill-rule:evenodd;stroke:none;stroke-width:1px;stroke-linecap:butt;stroke-linejoin:miter;stroke-opacity:1"
         id="path3859" />
      <path
         d="M 194.04244,171.46699 L 191.13716,174.20137 L 197.46042,174.20137 L 194.04244,171.46699 z "
         style="fill:#ffcd50;fill-opacity:1;fill-rule:evenodd;stroke:none;stroke-width:1px;stroke-linecap:butt;stroke-linejoin:miter;stroke-opacity:1"
         id="path3861" />
      <path
         d="M 195.92233,170.61249 L 199.3403,167.70721 L 199.16941,173.34687 L 195.92233,170.61249 z "
         style="fill:#ffcd50;fill-opacity:1;fill-rule:evenodd;stroke:none;stroke-width:1px;stroke-linecap:butt;stroke-linejoin:miter;stroke-opacity:1"
         id="path3863" />
      <path
         d="M 201.56199,168.21991 L 201.73289,173.51777 L 204.97997,171.12519 L 201.56199,168.21991 z "
         style="fill:#ffcd50;fill-opacity:1;fill-rule:evenodd;stroke:none;stroke-width:1px;stroke-linecap:butt;stroke-linejoin:miter;stroke-opacity:1"
         id="path3865" />
      <path
         d="M 202.75828,167.19452 L 206.34716,170.27069 L 210.44873,167.36541 L 202.75828,167.19452 z "
         style="fill:#ffcd50;fill-opacity:1;fill-rule:evenodd;stroke:none;stroke-width:1px;stroke-linecap:butt;stroke-linejoin:miter;stroke-opacity:1"
         id="path3867" />
      <path
         d="M 206.34716,171.80879 L 203.27098,174.20137 L 209.59423,174.71406 L 206.34716,171.80879 z "
         style="fill:#ffcd50;fill-opacity:1;fill-rule:evenodd;stroke:none;stroke-width:1px;stroke-linecap:butt;stroke-linejoin:miter;stroke-opacity:1"
         id="path3869" />
      <path
         d="M 207.88525,171.46699 L 211.47412,168.21991 L 211.64502,173.85957 L 207.88525,171.46699 z "
         style="fill:#ffcd50;fill-opacity:1;fill-rule:evenodd;stroke:none;stroke-width:1px;stroke-linecap:butt;stroke-linejoin:miter;stroke-opacity:1"
         id="path3871" />
      <path
         d="M 213.18311,168.73261 L 213.35401,173.85957 L 217.11379,171.12519 L 213.18311,168.73261 z "
         style="fill:#ffcd50;fill-opacity:1;fill-rule:evenodd;stroke:none;stroke-width:1px;stroke-linecap:butt;stroke-linejoin:miter;stroke-opacity:1"
         id="path3873" />
      <path
         d="M 215.2339,167.70721 L 218.82277,170.0998 L 222.24075,167.70721 L 215.2339,167.70721 z "
         style="fill:#ffcd50;fill-opacity:1;fill-rule:evenodd;stroke:none;stroke-width:1px;stroke-linecap:butt;stroke-linejoin:miter;stroke-opacity:1"
         id="path3875" />
      <path
         d="M 218.82277,171.80879 L 215.35943,174.71406 L 222.55049,174.88496 L 218.82277,171.80879 z "
         style="fill:#ffcd50;fill-opacity:1;fill-rule:evenodd;stroke:none;stroke-width:1px;stroke-linecap:butt;stroke-linejoin:miter;stroke-opacity:1"
         id="path3877" />
      <path
         d="M 220.36087,171.12519 L 224.29154,168.21991 L 224.29154,174.03047 L 220.36087,171.12519 z "
         style="fill:#ffcd50;fill-opacity:1;fill-rule:evenodd;stroke:none;stroke-width:1px;stroke-linecap:butt;stroke-linejoin:miter;stroke-opacity:1"
         id="path3879" />
      <path
         d="M 231.98199,162.92204 L 232.32378,180.01193 L 235.50007,179.94114 L 235.42929,162.82194 L 231.98199,162.92204 z "
         style="fill:#ffcd50;fill-opacity:1;fill-rule:evenodd;stroke:none;stroke-width:1px;stroke-linecap:butt;stroke-linejoin:miter;stroke-opacity:1"
         id="path3881" />
      <path
         d="M 58.861448,166.34002 C 58.861448,166.34002 68.773584,184.96799 77.660323,194.19653 C 86.547062,203.42507 93.553914,210.09013 107.73852,213.8499 C 121.92313,217.60968 133.54425,215.72979 143.45638,212.82451 C 153.36851,209.91923 163.96424,201.88698 171.31289,192.14575 C 178.66154,182.40451 178.83244,179.67013 178.83244,179.67013 L 171.82559,179.67013 L 171.82559,181.20822 L 168.92031,181.20822 C 168.92031,181.20822 158.15368,196.76001 142.43099,202.39968 C 126.7083,208.03934 113.65824,205.00069 107.56762,203.08328 C 98.33908,200.17799 88.948101,196.03176 79.369313,187.70238 C 71.507966,180.86642 63.988413,167.53631 63.988413,167.53631 L 61.254032,167.02362 L 60.228639,166.16912 L 58.861448,166.34002 z "
         style="fill:#ffcd50;fill-opacity:1;fill-rule:evenodd;stroke:none;stroke-width:1px;stroke-linecap:butt;stroke-linejoin:miter;stroke-opacity:1"
         id="path3885" />
      <path
         d="M 54.930777,165.65642 L 57.152459,166.16912 C 57.152459,166.16912 67.235491,186.50609 78.343916,197.10182 C 89.452346,207.69755 97.655487,212.82451 111.3274,216.24249 C 124.99931,219.66046 138.32942,216.58428 149.43784,212.14091 C 160.54627,207.69755 168.40761,198.9817 173.02188,192.65844 C 177.63615,186.33519 181.05413,179.67013 181.05413,179.67013 L 192.50435,179.67013 C 192.50435,179.67013 187.54829,199.4944 173.70548,212.14091 C 159.86267,224.78743 141.2347,229.5726 128.58818,230.08529 C 115.94167,230.59799 101.24436,228.7181 92.699424,223.59114 C 84.154479,218.46417 73.55875,208.89383 67.57729,196.93091 C 57.494258,176.76485 55.101674,166.16912 54.930777,165.65642 z "
         style="fill:#ffcd50;fill-opacity:1;fill-rule:evenodd;stroke:none;stroke-width:1px;stroke-linecap:butt;stroke-linejoin:miter;stroke-opacity:1"
         id="path3887" />
      <path
         d="M 52.961552,165.54335 L 50.665526,165.30166 C 50.665526,165.30166 53.928305,181.61557 58.882897,193.45825 C 63.83749,205.30094 72.659084,226.56944 89.335519,235.0285 C 106.01195,243.48756 121.47995,244.33347 133.56433,244.81684 C 145.6487,245.30022 158.69983,241.31237 168.48817,235.99525 C 178.27651,230.67813 191.56932,219.19797 200.02838,204.0925 C 208.48744,188.98704 209.93757,179.68207 209.93757,179.68207 L 194.10704,179.92375 C 194.10704,179.92375 188.78991,198.05032 177.67229,210.49722 C 166.55467,222.94412 142.26508,231.28234 131.38914,231.88656 C 120.5132,232.49078 109.2296,231.22031 98.640487,227.89872 C 90.825284,225.44724 74.955115,214.48506 67.583648,199.62129 C 59.515751,183.35323 53.203244,165.78504 52.961552,165.54335 z "
         style="fill:#ffcd50;fill-opacity:1;fill-rule:evenodd;stroke:none;stroke-width:1px;stroke-linecap:butt;stroke-linejoin:miter;stroke-opacity:1"
         id="path3889" />
      <path
         d="M 49.698773,165.54335 L 47.644429,165.05998 C 47.644429,165.05998 51.028056,187.53691 58.520367,203.97166 C 66.012678,220.40641 74.350898,236.11609 83.293331,242.39997 C 92.235768,248.68384 96.102769,251.22156 109.63727,254.00097 C 123.17176,256.78037 137.9147,256.05531 144.19857,255.69278 C 150.48245,255.33025 165.46708,251.10071 172.95939,246.99203 C 180.4517,242.88334 189.51498,238.17044 200.02838,226.69028 C 210.54179,215.21013 217.42988,200.10466 220.57182,191.6456 C 223.71375,183.18653 223.23038,180.40713 223.23038,180.40713 L 212.11275,179.92375 C 212.11275,179.92375 206.4331,196.3585 202.44526,203.2466 C 198.45742,210.13469 187.46063,225.11931 179.3641,230.91981 C 171.26757,236.72031 160.63332,242.52081 149.99908,244.81684 C 139.36482,247.11287 121.11742,246.26697 112.41667,244.45431 C 103.71592,242.64166 92.235768,238.29128 87.522862,235.75356 C 82.809956,233.21584 70.846427,221.85653 66.616895,213.27663 C 62.387368,204.69672 58.036993,194.78753 55.620118,187.41607 C 53.203244,180.0446 50.061304,165.66419 49.698773,165.54335 z "
         style="fill:#ffcd50;fill-opacity:1;fill-rule:evenodd;stroke:none;stroke-width:1px;stroke-linecap:butt;stroke-linejoin:miter;stroke-opacity:1"
         id="path3891" />
      <path
         d="M 46.31515,165.05998 L 43.535741,164.69745 C 43.535741,164.69745 47.161055,183.06569 49.336243,190.19547 C 51.51143,197.32526 57.432771,212.55156 59.607959,217.627 C 61.783146,222.70244 66.375208,233.94091 73.988363,242.88334 C 81.601521,251.82578 89.818893,259.0764 100.21146,262.21834 C 110.60402,265.36028 132.35589,265.36028 139.60651,264.8769 C 146.85714,264.39353 160.87501,262.21834 170.17998,259.0764 C 179.48495,255.93447 193.62367,248.07962 202.68694,239.01634 C 211.75022,229.95306 211.75022,229.95306 211.75022,229.95306 C 211.75022,229.95306 217.67157,209.77216 217.91326,206.63022 C 218.15494,203.48828 218.75916,200.2255 218.75916,200.2255 C 218.75916,200.2255 210.3001,217.38531 203.6537,224.99847 C 197.00729,232.61163 186.73557,241.43322 176.46385,246.6295 C 166.19214,251.82578 149.39486,256.78037 141.41917,257.50543 C 133.44348,258.2305 104.68268,255.57193 96.948674,252.18831 C 89.214676,248.80468 78.822116,241.43322 73.867519,234.54512 C 68.912926,227.65703 60.265189,211.97229 56.828553,202.52153 C 50.061304,183.9116 46.194307,164.81829 46.31515,165.05998 z "
         style="fill:#ffcd50;fill-opacity:1;fill-rule:evenodd;stroke:none;stroke-width:1px;stroke-linecap:butt;stroke-linejoin:miter;stroke-opacity:1"
         id="path3893" />
      <path
         d="M 124.125,14.1875 L 124.125,19.90625 L 117.4375,19.90625 L 117.4375,22.75 L 124.125,22.75 L 124.125,52.3125 L 126.9375,52.3125 L 126.9375,22.75 L 133.34375,22.75 L 133.34375,19.90625 L 126.9375,19.90625 L 126.9375,14.1875 L 124.125,14.1875 z "
         style="fill:#ffcd50;fill-opacity:1;stroke:none;stroke-width:2;stroke-miterlimit:4;stroke-opacity:1"
         id="rect2171" />
      <path
         d="M 138.96875,58.21875 C 129.39174,55.089002 119.25539,54.855391 109.96875,58.84375 L 108.28125,54.71875 C 110.71323,53.449889 117.66787,51.732673 123.5,51.5625 C 124.33316,51.53819 125.13587,51.548434 125.90625,51.59375 C 132.06928,51.95628 141.03124,53.749998 141.03125,53.75"
         style="fill:#ffcd50;fill-opacity:1;fill-rule:evenodd;stroke:#003d8f;stroke-width:1px;stroke-linecap:butt;stroke-linejoin:miter;stroke-opacity:1"
         id="path3309" />
      <path
         d="M 80.3125,28.8125 L 80.3125,47.0625 L 128.96875,47.0625 L 128.96875,41.78125 L 118.84375,41.78125 L 118.84375,34.0625 L 128.96875,34.0625 L 128.96875,28.8125 L 80.3125,28.8125 z "
         style="fill:#ffcd50;fill-opacity:1;stroke:#003d8f;stroke-width:1;stroke-miterlimit:4;stroke-dasharray:none;stroke-opacity:1"
         id="rect2177" />
    </g>
    <g
       transform="matrix(0.448349,0,0,0.448349,-18.68651,-1.40929)"
       id="Cirklar">
      <g
         style="fill:#003d8f;fill-opacity:1"
         id="Ytter-cirklar">
        <path
           d="M 340.00696,466.58704 C 340.00951,469.58873 337.61956,472.02347 334.67053,472.02347 C 331.7215,472.02347 329.33155,469.58873 329.3341,466.58704 C 329.33155,463.58535 331.7215,461.15061 334.67053,461.15061 C 337.61956,461.15061 340.00951,463.58535 340.00696,466.58704 z "
           transform="translate(-11.14352,5.8095)"
           style="fill:#003d8f;fill-opacity:1;stroke:none;stroke-width:2;stroke-miterlimit:4;stroke-dasharray:none;stroke-opacity:1"
           id="path4864" />
        <path
           d="M 340.76931,496.12799 C 340.77173,498.5468 339.48271,500.78292 337.38835,501.99303 C 335.294,503.20313 332.71296,503.20313 330.61861,501.99303 C 328.52425,500.78292 327.23523,498.5468 327.23765,496.12799 C 327.23523,493.70918 328.52425,491.47306 330.61861,490.26295 C 332.71296,489.05285 335.294,489.05285 337.38835,490.26295 C 339.48271,491.47306 340.77173,493.70918 340.76931,496.12799 L 340.76931,496.12799 z "
           transform="translate(-10,6)"
           style="fill:#003d8f;fill-opacity:1;stroke:none;stroke-width:2;stroke-miterlimit:4;stroke-dasharray:none;stroke-opacity:1"
           id="path4866" />
        <path
           d="M 341.34105,528.71832 C 341.34105,532.34973 338.56787,535.29357 335.14697,535.29357 C 331.72608,535.29357 328.9529,532.34973 328.9529,528.71832 C 328.9529,525.08691 331.72608,522.14307 335.14697,522.14307 C 338.56787,522.14307 341.34105,525.08691 341.34105,528.71832 L 341.34105,528.71832 z "
           transform="translate(-10,6)"
           style="fill:#003d8f;fill-opacity:1;stroke:none;stroke-width:2;stroke-miterlimit:4;stroke-dasharray:none;stroke-opacity:1"
           id="path4868" />
        <path
           d="M 340.19755,555.97229 C 340.19755,559.07741 337.72302,561.5946 334.67053,561.5946 C 331.61804,561.5946 329.14351,559.07741 329.14351,555.97229 C 329.14351,552.86717 331.61804,550.34998 334.67053,550.34998 C 337.72302,550.34998 340.19755,552.86717 340.19755,555.97229 z "
           transform="translate(-10,6)"
           style="fill:#003d8f;fill-opacity:1;stroke:none;stroke-width:2;stroke-miterlimit:4;stroke-dasharray:none;stroke-opacity:1"
           id="path4870" />
        <path
           d="M 340.5787,579.22388 C 340.57999,582.22465 338.14774,584.65794 335.14698,584.65794 C 332.14621,584.65794 329.71396,582.22465 329.71525,579.22388 C 329.71396,576.22311 332.14621,573.78982 335.14698,573.78982 C 338.14774,573.78982 340.57999,576.22311 340.5787,579.22388 z "
           transform="translate(-10,6)"
           style="fill:#003d8f;fill-opacity:1;stroke:none;stroke-width:2;stroke-miterlimit:4;stroke-dasharray:none;stroke-opacity:1"
           id="path4872" />
        <path
           d="M 340.5787,579.22388 C 340.57999,582.22465 338.14774,584.65794 335.14698,584.65794 C 332.14621,584.65794 329.71396,582.22465 329.71525,579.22388 C 329.71396,576.22311 332.14621,573.78982 335.14698,573.78982 C 338.14774,573.78982 340.57999,576.22311 340.5787,579.22388 z "
           transform="translate(53.21913,-0.661)"
           style="fill:#003d8f;fill-opacity:1;stroke:none;stroke-width:2;stroke-miterlimit:4;stroke-dasharray:none;stroke-opacity:1"
           id="path6822" />
        <path
           d="M 340.5787,579.22388 C 340.57999,582.22465 338.14774,584.65794 335.14698,584.65794 C 332.14621,584.65794 329.71396,582.22465 329.71525,579.22388 C 329.71396,576.22311 332.14621,573.78982 335.14698,573.78982 C 338.14774,573.78982 340.57999,576.22311 340.5787,579.22388 z "
           transform="translate(-74.53834,-4.4344)"
           style="fill:#003d8f;fill-opacity:1;stroke:none;stroke-width:2;stroke-miterlimit:4;stroke-dasharray:none;stroke-opacity:1"
           id="path6826" />
        <path
           d="M 340.5787,579.22388 C 340.57999,582.22465 338.14774,584.65794 335.14698,584.65794 C 332.14621,584.65794 329.71396,582.22465 329.71525,579.22388 C 329.71396,576.22311 332.14621,573.78982 335.14698,573.78982 C 338.14774,573.78982 340.57999,576.22311 340.5787,579.22388 z "
           transform="translate(-68.0696,-27.075)"
           style="fill:#003d8f;fill-opacity:1;stroke:none;stroke-width:2;stroke-miterlimit:4;stroke-dasharray:none;stroke-opacity:1"
           id="path6830" />
        <path
           d="M 340.5787,579.22388 C 340.57999,582.22465 338.14774,584.65794 335.14698,584.65794 C 332.14621,584.65794 329.71396,582.22465 329.71525,579.22388 C 329.71396,576.22311 332.14621,573.78982 335.14698,573.78982 C 338.14774,573.78982 340.57999,576.22311 340.5787,579.22388 z "
           transform="translate(46.21134,-21.1453)"
           style="fill:#003d8f;fill-opacity:1;stroke:none;stroke-width:2;stroke-miterlimit:4;stroke-dasharray:none;stroke-opacity:1"
           id="path6834" />
        <path
           d="M 340.5787,579.22388 C 340.57999,582.22465 338.14774,584.65794 335.14698,584.65794 C 332.14621,584.65794 329.71396,582.22465 329.71525,579.22388 C 329.71396,576.22311 332.14621,573.78982 335.14698,573.78982 C 338.14774,573.78982 340.57999,576.22311 340.5787,579.22388 z "
           transform="translate(37.58636,-50.2546)"
           style="fill:#003d8f;fill-opacity:1;stroke:none;stroke-width:2;stroke-miterlimit:4;stroke-dasharray:none;stroke-opacity:1"
           id="path6838" />
        <path
           d="M 340.5787,579.22388 C 340.57999,582.22465 338.14774,584.65794 335.14698,584.65794 C 332.14621,584.65794 329.71396,582.22465 329.71525,579.22388 C 329.71396,576.22311 332.14621,573.78982 335.14698,573.78982 C 338.14774,573.78982 340.57999,576.22311 340.5787,579.22388 z "
           transform="translate(-61.06181,-52.9499)"
           style="fill:#003d8f;fill-opacity:1;stroke:none;stroke-width:2;stroke-miterlimit:4;stroke-dasharray:none;stroke-opacity:1"
           id="path6842" />
        <path
           d="M 340.5787,579.22388 C 340.57999,582.22465 338.14774,584.65794 335.14698,584.65794 C 332.14621,584.65794 329.71396,582.22465 329.71525,579.22388 C 329.71396,576.22311 332.14621,573.78982 335.14698,573.78982 C 338.14774,573.78982 340.57999,576.22311 340.5787,579.22388 z "
           transform="translate(-53.51496,-82.0592)"
           style="fill:#003d8f;fill-opacity:1;stroke:none;stroke-width:2;stroke-miterlimit:4;stroke-dasharray:none;stroke-opacity:1"
           id="path6846" />
        <path
           d="M 340.5787,579.22388 C 340.57999,582.22465 338.14774,584.65794 335.14698,584.65794 C 332.14621,584.65794 329.71396,582.22465 329.71525,579.22388 C 329.71396,576.22311 332.14621,573.78982 335.14698,573.78982 C 338.14774,573.78982 340.57999,576.22311 340.5787,579.22388 z "
           transform="translate(-46.50716,-109.5513)"
           style="fill:#003d8f;fill-opacity:1;stroke:none;stroke-width:2;stroke-miterlimit:4;stroke-dasharray:none;stroke-opacity:1"
           id="path6850" />
        <path
           d="M 340.5787,579.22388 C 340.57999,582.22465 338.14774,584.65794 335.14698,584.65794 C 332.14621,584.65794 329.71396,582.22465 329.71525,579.22388 C 329.71396,576.22311 332.14621,573.78982 335.14698,573.78982 C 338.14774,573.78982 340.57999,576.22311 340.5787,579.22388 z "
           transform="translate(28.96138,-83.1373)"
           style="fill:#003d8f;fill-opacity:1;stroke:none;stroke-width:2;stroke-miterlimit:4;stroke-dasharray:none;stroke-opacity:1"
           id="path6854" />
        <path
           d="M 340.5787,579.22388 C 340.57999,582.22465 338.14774,584.65794 335.14698,584.65794 C 332.14621,584.65794 329.71396,582.22465 329.71525,579.22388 C 329.71396,576.22311 332.14621,573.78982 335.14698,573.78982 C 338.14774,573.78982 340.57999,576.22311 340.5787,579.22388 z "
           transform="translate(20.87547,-112.2466)"
           style="fill:#003d8f;fill-opacity:1;stroke:none;stroke-width:2;stroke-miterlimit:4;stroke-dasharray:none;stroke-opacity:1"
           id="path6858" />
        <path
           d="M 340.5787,579.22388 C 340.57999,582.22465 338.14774,584.65794 335.14698,584.65794 C 332.14621,584.65794 329.71396,582.22465 329.71525,579.22388 C 329.71396,576.22311 332.14621,573.78982 335.14698,573.78982 C 338.14774,573.78982 340.57999,576.22311 340.5787,579.22388 z "
           transform="translate(123.2971,-29.7703)"
           style="fill:#003d8f;fill-opacity:1;stroke:none;stroke-width:2;stroke-miterlimit:4;stroke-dasharray:none;stroke-opacity:1"
           id="path6862" />
        <path
           d="M 340.5787,579.22388 C 340.57999,582.22465 338.14774,584.65794 335.14698,584.65794 C 332.14621,584.65794 329.71396,582.22465 329.71525,579.22388 C 329.71396,576.22311 332.14621,573.78982 335.14698,573.78982 C 338.14774,573.78982 340.57999,576.22311 340.5787,579.22388 z "
           transform="translate(110.3596,-49.1765)"
           style="fill:#003d8f;fill-opacity:1;stroke:none;stroke-width:2;stroke-miterlimit:4;stroke-dasharray:none;stroke-opacity:1"
           id="path6866" />
        <path
           d="M 340.5787,579.22388 C 340.57999,582.22465 338.14774,584.65794 335.14698,584.65794 C 332.14621,584.65794 329.71396,582.22465 329.71525,579.22388 C 329.71396,576.22311 332.14621,573.78982 335.14698,573.78982 C 338.14774,573.78982 340.57999,576.22311 340.5787,579.22388 z "
           transform="translate(92.03152,-76.6686)"
           style="fill:#003d8f;fill-opacity:1;stroke:none;stroke-width:2;stroke-miterlimit:4;stroke-dasharray:none;stroke-opacity:1"
           id="path6870" />
        <path
           d="M 340.5787,579.22388 C 340.57999,582.22465 338.14774,584.65794 335.14698,584.65794 C 332.14621,584.65794 329.71396,582.22465 329.71525,579.22388 C 329.71396,576.22311 332.14621,573.78982 335.14698,573.78982 C 338.14774,573.78982 340.57999,576.22311 340.5787,579.22388 z "
           transform="translate(72.08627,-104.1607)"
           style="fill:#003d8f;fill-opacity:1;stroke:none;stroke-width:2;stroke-miterlimit:4;stroke-dasharray:none;stroke-opacity:1"
           id="path6874" />
        <path
           d="M 340.5787,579.22388 C 340.57999,582.22465 338.14774,584.65794 335.14698,584.65794 C 332.14621,584.65794 329.71396,582.22465 329.71525,579.22388 C 329.71396,576.22311 332.14621,573.78982 335.14698,573.78982 C 338.14774,573.78982 340.57999,576.22311 340.5787,579.22388 z "
           transform="translate(53.21913,-127.3403)"
           style="fill:#003d8f;fill-opacity:1;stroke:none;stroke-width:2;stroke-miterlimit:4;stroke-dasharray:none;stroke-opacity:1"
           id="path6878" />
        <path
           d="M 340.5787,579.22388 C 340.57999,582.22465 338.14774,584.65794 335.14698,584.65794 C 332.14621,584.65794 329.71396,582.22465 329.71525,579.22388 C 329.71396,576.22311 332.14621,573.78982 335.14698,573.78982 C 338.14774,573.78982 340.57999,576.22311 340.5787,579.22388 z "
           transform="translate(-77.7727,-120.8716)"
           style="fill:#003d8f;fill-opacity:1;stroke:none;stroke-width:2;stroke-miterlimit:4;stroke-dasharray:none;stroke-opacity:1"
           id="path6882" />
        <path
           d="M 340.5787,579.22388 C 340.57999,582.22465 338.14774,584.65794 335.14698,584.65794 C 332.14621,584.65794 329.71396,582.22465 329.71525,579.22388 C 329.71396,576.22311 332.14621,573.78982 335.14698,573.78982 C 338.14774,573.78982 340.57999,576.22311 340.5787,579.22388 z "
           transform="translate(-91.2492,-98.7701)"
           style="fill:#003d8f;fill-opacity:1;stroke:none;stroke-width:2;stroke-miterlimit:4;stroke-dasharray:none;stroke-opacity:1"
           id="path6886" />
        <path
           d="M 340.5787,579.22388 C 340.57999,582.22465 338.14774,584.65794 335.14698,584.65794 C 332.14621,584.65794 329.71396,582.22465 329.71525,579.22388 C 329.71396,576.22311 332.14621,573.78982 335.14698,573.78982 C 338.14774,573.78982 340.57999,576.22311 340.5787,579.22388 z "
           transform="translate(-105.2648,-75.5905)"
           style="fill:#003d8f;fill-opacity:1;stroke:none;stroke-width:2;stroke-miterlimit:4;stroke-dasharray:none;stroke-opacity:1"
           id="path6890" />
        <path
           d="M 340.5787,579.22388 C 340.57999,582.22465 338.14774,584.65794 335.14698,584.65794 C 332.14621,584.65794 329.71396,582.22465 329.71525,579.22388 C 329.71396,576.22311 332.14621,573.78982 335.14698,573.78982 C 338.14774,573.78982 340.57999,576.22311 340.5787,579.22388 z "
           transform="translate(103.3518,-139.1997)"
           style="fill:#003d8f;fill-opacity:1;stroke:none;stroke-width:2;stroke-miterlimit:4;stroke-dasharray:none;stroke-opacity:1"
           id="path6894" />
        <path
           d="M 340.5787,579.22388 C 340.57999,582.22465 338.14774,584.65794 335.14698,584.65794 C 332.14621,584.65794 329.71396,582.22465 329.71525,579.22388 C 329.71396,576.22311 332.14621,573.78982 335.14698,573.78982 C 338.14774,573.78982 340.57999,576.22311 340.5787,579.22388 z "
           transform="translate(133.0002,-122.4888)"
           style="fill:#003d8f;fill-opacity:1;stroke:none;stroke-width:2;stroke-miterlimit:4;stroke-dasharray:none;stroke-opacity:1"
           id="path6898" />
        <path
           d="M 340.5787,579.22388 C 340.57999,582.22465 338.14774,584.65794 335.14698,584.65794 C 332.14621,584.65794 329.71396,582.22465 329.71525,579.22388 C 329.71396,576.22311 332.14621,573.78982 335.14698,573.78982 C 338.14774,573.78982 340.57999,576.22311 340.5787,579.22388 z "
           transform="translate(163.7266,-105.2388)"
           style="fill:#003d8f;fill-opacity:1;stroke:none;stroke-width:2;stroke-miterlimit:4;stroke-dasharray:none;stroke-opacity:1"
           id="path6906" />
        <path
           d="M 340.5787,579.22388 C 340.57999,582.22465 338.14774,584.65794 335.14698,584.65794 C 332.14621,584.65794 329.71396,582.22465 329.71525,579.22388 C 329.71396,576.22311 332.14621,573.78982 335.14698,573.78982 C 338.14774,573.78982 340.57999,576.22311 340.5787,579.22388 z "
           transform="matrix(0.842105,0,0,0.842105,234.2672,0.4477)"
           style="fill:#003d8f;fill-opacity:1;stroke:none;stroke-width:2;stroke-miterlimit:4;stroke-dasharray:none;stroke-opacity:1"
           id="path6910" />
        <path
           d="M 340.5787,579.22388 C 340.57999,582.22465 338.14774,584.65794 335.14698,584.65794 C 332.14621,584.65794 329.71396,582.22465 329.71525,579.22388 C 329.71396,576.22311 332.14621,573.78982 335.14698,573.78982 C 338.14774,573.78982 340.57999,576.22311 340.5787,579.22388 z "
           transform="matrix(0.842105,0,0,0.842105,131.4455,-60.6354)"
           style="fill:#003d8f;fill-opacity:1;stroke:none;stroke-width:2;stroke-miterlimit:4;stroke-dasharray:none;stroke-opacity:1"
           id="path6914" />
        <path
           d="M 340.5787,579.22388 C 340.57999,582.22465 338.14774,584.65794 335.14698,584.65794 C 332.14621,584.65794 329.71396,582.22465 329.71525,579.22388 C 329.71396,576.22311 332.14621,573.78982 335.14698,573.78982 C 338.14774,573.78982 340.57999,576.22311 340.5787,579.22388 z "
           transform="matrix(0.842105,0,0,0.842105,-50.7555,-45.3884)"
           style="fill:#003d8f;fill-opacity:1;stroke:none;stroke-width:2;stroke-miterlimit:4;stroke-dasharray:none;stroke-opacity:1"
           id="path6918" />
        <path
           d="M 340.5787,579.22388 C 340.57999,582.22465 338.14774,584.65794 335.14698,584.65794 C 332.14621,584.65794 329.71396,582.22465 329.71525,579.22388 C 329.71396,576.22311 332.14621,573.78982 335.14698,573.78982 C 338.14774,573.78982 340.57999,576.22311 340.5787,579.22388 z "
           transform="matrix(0.842105,0,0,0.842105,-68.28949,-34.9062)"
           style="fill:#003d8f;fill-opacity:1;stroke:none;stroke-width:2;stroke-miterlimit:4;stroke-dasharray:none;stroke-opacity:1"
           id="path6922" />
        <path
           d="M 340.5787,579.22388 C 340.57999,582.22465 338.14774,584.65794 335.14698,584.65794 C 332.14621,584.65794 329.71396,582.22465 329.71525,579.22388 C 329.71396,576.22311 332.14621,573.78982 335.14698,573.78982 C 338.14774,573.78982 340.57999,576.22311 340.5787,579.22388 z "
           transform="matrix(0.842105,0,0,0.842105,-86.967,-21.3745)"
           style="fill:#003d8f;fill-opacity:1;stroke:none;stroke-width:2;stroke-miterlimit:4;stroke-dasharray:none;stroke-opacity:1"
           id="path6926" />
        <path
           d="M 340.5787,579.22388 C 340.57999,582.22465 338.14774,584.65794 335.14698,584.65794 C 332.14621,584.65794 329.71396,582.22465 329.71525,579.22388 C 329.71396,576.22311 332.14621,573.78982 335.14698,573.78982 C 338.14774,573.78982 340.57999,576.22311 340.5787,579.22388 z "
           transform="matrix(0.631579,0,0,0.614035,-8.4051,57.8413)"
           style="fill:#003d8f;fill-opacity:1;stroke:none;stroke-width:2;stroke-miterlimit:4;stroke-dasharray:none;stroke-opacity:1"
           id="path6930" />
        <path
           d="M 340.5787,579.22388 C 340.57999,582.22465 338.14774,584.65794 335.14698,584.65794 C 332.14621,584.65794 329.71396,582.22465 329.71525,579.22388 C 329.71396,576.22311 332.14621,573.78982 335.14698,573.78982 C 338.14774,573.78982 340.57999,576.22311 340.5787,579.22388 z "
           transform="matrix(0.631579,0,0,0.614035,-24.03322,62.1296)"
           style="fill:#003d8f;fill-opacity:1;stroke:none;stroke-width:2;stroke-miterlimit:4;stroke-dasharray:none;stroke-opacity:1"
           id="path6938" />
        <path
           d="M 340.5787,579.22388 C 340.57999,582.22465 338.14774,584.65794 335.14698,584.65794 C 332.14621,584.65794 329.71396,582.22465 329.71525,579.22388 C 329.71396,576.22311 332.14621,573.78982 335.14698,573.78982 C 338.14774,573.78982 340.57999,576.22311 340.5787,579.22388 z "
           transform="matrix(0.631579,0,0,0.614035,-27.65437,118.7339)"
           style="fill:#003d8f;fill-opacity:1;stroke:none;stroke-width:2;stroke-miterlimit:4;stroke-dasharray:none;stroke-opacity:1"
           id="path6942" />
        <path
           d="M 340.5787,579.22388 C 340.57999,582.22465 338.14774,584.65794 335.14698,584.65794 C 332.14621,584.65794 329.71396,582.22465 329.71525,579.22388 C 329.71396,576.22311 332.14621,573.78982 335.14698,573.78982 C 338.14774,573.78982 340.57999,576.22311 340.5787,579.22388 z "
           transform="matrix(0.631579,0,0,0.614035,-38.70841,66.1319)"
           style="fill:#003d8f;fill-opacity:1;stroke:none;stroke-width:2;stroke-miterlimit:4;stroke-dasharray:none;stroke-opacity:1"
           id="path6950" />
        <path
           d="M 340.5787,579.22388 C 340.57999,582.22465 338.14774,584.65794 335.14698,584.65794 C 332.14621,584.65794 329.71396,582.22465 329.71525,579.22388 C 329.71396,576.22311 332.14621,573.78982 335.14698,573.78982 C 338.14774,573.78982 340.57999,576.22311 340.5787,579.22388 z "
           transform="matrix(0.77193,0,0,0.77193,-40.38691,75.7818)"
           style="fill:#003d8f;fill-opacity:1;stroke:none;stroke-width:2;stroke-miterlimit:4;stroke-dasharray:none;stroke-opacity:1"
           id="path6954" />
        <path
           d="M 340.5787,579.22388 C 340.57999,582.22465 338.14774,584.65794 335.14698,584.65794 C 332.14621,584.65794 329.71396,582.22465 329.71525,579.22388 C 329.71396,576.22311 332.14621,573.78982 335.14698,573.78982 C 338.14774,573.78982 340.57999,576.22311 340.5787,579.22388 z "
           transform="matrix(0.719298,0,0,0.701754,-32.7534,130.9137)"
           style="fill:#003d8f;fill-opacity:1;stroke:none;stroke-width:2;stroke-miterlimit:4;stroke-dasharray:none;stroke-opacity:1"
           id="path6958" />
      </g>
      <g
         style="fill:#ffcd50;fill-opacity:1"
         id="Inner-cirklar">
        <path
           d="M 335.83502,466.36783 C 335.83502,467.85641 334.8093,469.06314 333.54401,469.06314 C 332.27872,469.06314 331.253,467.85641 331.253,466.36783 C 331.253,464.87925 332.27872,463.67252 333.54401,463.67252 C 334.8093,463.67252 335.83502,464.87925 335.83502,466.36783 z "
           transform="matrix(1.470588,0,0,1.3,-166.9619,-133.9103)"
           style="fill:#ffcd50;fill-opacity:1;stroke:none;stroke-width:2;stroke-miterlimit:4;stroke-dasharray:none;stroke-opacity:1"
           id="path5843" />
        <path
           d="M 339.33892,497.63339 C 339.33892,500.16397 337.34782,502.21541 334.89166,502.21541 C 332.43551,502.21541 330.44441,500.16397 330.44441,497.63339 C 330.44441,495.10281 332.43551,493.05137 334.89166,493.05137 C 337.34782,493.05137 339.33892,495.10281 339.33892,497.63339 z "
           transform="matrix(1.060606,0,0,1.029412,-31.21834,-10.2319)"
           style="fill:#ffcd50;fill-opacity:1;stroke:none;stroke-width:2;stroke-miterlimit:4;stroke-dasharray:none;stroke-opacity:1"
           id="path5845" />
        <path
           d="M 340.14751,529.43799 C 340.14906,530.97983 339.4045,532.40528 338.19467,533.1767 C 336.98483,533.94811 335.49381,533.94811 334.28397,533.1767 C 333.07414,532.40528 332.32958,530.97983 332.33113,529.43799 C 332.32958,527.89615 333.07414,526.4707 334.28397,525.69928 C 335.49381,524.92787 336.98483,524.92787 338.19467,525.69928 C 339.4045,526.4707 340.14906,527.89615 340.14751,529.43799 L 340.14751,529.43799 z "
           transform="matrix(1.068966,0,0,1.0625,-34.26704,-27.8984)"
           style="fill:#ffcd50;fill-opacity:1;stroke:none;stroke-width:2;stroke-miterlimit:4;stroke-dasharray:none;stroke-opacity:1"
           id="path5847" />
        <path
           d="M 340.68657,556.93011 C 340.68827,558.47202 339.91806,559.89758 338.66647,560.66906 C 337.41487,561.44054 335.87236,561.44054 334.62076,560.66906 C 333.36917,559.89758 332.59896,558.47202 332.60066,556.93011 C 332.59896,555.3882 333.36917,553.96264 334.62076,553.19116 C 335.87236,552.41968 337.41487,552.41968 338.66647,553.19116 C 339.91806,553.96264 340.68827,555.3882 340.68657,556.93011 L 340.68657,556.93011 z "
           transform="matrix(0.866667,0,0,0.84375,32.9991,91.8075)"
           style="fill:#ffcd50;fill-opacity:1;stroke:none;stroke-width:2;stroke-miterlimit:4;stroke-dasharray:none;stroke-opacity:1"
           id="path5849" />
        <path
           d="M 338.26079,579.16638 C 338.26217,581.02816 336.87402,582.53822 335.16119,582.53822 C 333.44836,582.53822 332.06021,581.02816 332.06159,579.16638 C 332.06021,577.3046 333.44836,575.79454 335.16119,575.79454 C 336.87402,575.79454 338.26217,577.3046 338.26079,579.16638 L 338.26079,579.16638 z "
           transform="translate(-10,6)"
           style="fill:#ffcd50;fill-opacity:1;stroke:none;stroke-width:2;stroke-miterlimit:4;stroke-dasharray:none;stroke-opacity:1"
           id="path5851" />
        <path
           d="M 338.26079,579.16638 C 338.26217,581.02816 336.87402,582.53822 335.16119,582.53822 C 333.44836,582.53822 332.06021,581.02816 332.06159,579.16638 C 332.06021,577.3046 333.44836,575.79454 335.16119,575.79454 C 336.87402,575.79454 338.26217,577.3046 338.26079,579.16638 L 338.26079,579.16638 z "
           transform="translate(53.21913,-0.661)"
           style="fill:#ffcd50;fill-opacity:1;stroke:none;stroke-width:2;stroke-miterlimit:4;stroke-dasharray:none;stroke-opacity:1"
           id="path6824" />
        <path
           d="M 338.26079,579.16638 C 338.26217,581.02816 336.87402,582.53822 335.16119,582.53822 C 333.44836,582.53822 332.06021,581.02816 332.06159,579.16638 C 332.06021,577.3046 333.44836,575.79454 335.16119,575.79454 C 336.87402,575.79454 338.26217,577.3046 338.26079,579.16638 L 338.26079,579.16638 z "
           transform="translate(-74.53834,-4.4344)"
           style="fill:#ffcd50;fill-opacity:1;stroke:none;stroke-width:2;stroke-miterlimit:4;stroke-dasharray:none;stroke-opacity:1"
           id="path6828" />
        <path
           d="M 338.26079,579.16638 C 338.26217,581.02816 336.87402,582.53822 335.16119,582.53822 C 333.44836,582.53822 332.06021,581.02816 332.06159,579.16638 C 332.06021,577.3046 333.44836,575.79454 335.16119,575.79454 C 336.87402,575.79454 338.26217,577.3046 338.26079,579.16638 L 338.26079,579.16638 z "
           transform="translate(-68.0696,-27.075)"
           style="fill:#ffcd50;fill-opacity:1;stroke:none;stroke-width:2;stroke-miterlimit:4;stroke-dasharray:none;stroke-opacity:1"
           id="path6832" />
        <path
           d="M 338.26079,579.16638 C 338.26217,581.02816 336.87402,582.53822 335.16119,582.53822 C 333.44836,582.53822 332.06021,581.02816 332.06159,579.16638 C 332.06021,577.3046 333.44836,575.79454 335.16119,575.79454 C 336.87402,575.79454 338.26217,577.3046 338.26079,579.16638 L 338.26079,579.16638 z "
           transform="translate(46.21134,-21.1453)"
           style="fill:#ffcd50;fill-opacity:1;stroke:none;stroke-width:2;stroke-miterlimit:4;stroke-dasharray:none;stroke-opacity:1"
           id="path6836" />
        <path
           d="M 338.26079,579.16638 C 338.26217,581.02816 336.87402,582.53822 335.16119,582.53822 C 333.44836,582.53822 332.06021,581.02816 332.06159,579.16638 C 332.06021,577.3046 333.44836,575.79454 335.16119,575.79454 C 336.87402,575.79454 338.26217,577.3046 338.26079,579.16638 L 338.26079,579.16638 z "
           transform="translate(37.58636,-50.2546)"
           style="fill:#ffcd50;fill-opacity:1;stroke:none;stroke-width:2;stroke-miterlimit:4;stroke-dasharray:none;stroke-opacity:1"
           id="path6840" />
        <path
           d="M 338.26079,579.16638 C 338.26217,581.02816 336.87402,582.53822 335.16119,582.53822 C 333.44836,582.53822 332.06021,581.02816 332.06159,579.16638 C 332.06021,577.3046 333.44836,575.79454 335.16119,575.79454 C 336.87402,575.79454 338.26217,577.3046 338.26079,579.16638 L 338.26079,579.16638 z "
           transform="translate(-61.06181,-52.9499)"
           style="fill:#ffcd50;fill-opacity:1;stroke:none;stroke-width:2;stroke-miterlimit:4;stroke-dasharray:none;stroke-opacity:1"
           id="path6844" />
        <path
           d="M 338.26079,579.16638 C 338.26217,581.02816 336.87402,582.53822 335.16119,582.53822 C 333.44836,582.53822 332.06021,581.02816 332.06159,579.16638 C 332.06021,577.3046 333.44836,575.79454 335.16119,575.79454 C 336.87402,575.79454 338.26217,577.3046 338.26079,579.16638 L 338.26079,579.16638 z "
           transform="translate(-53.51496,-82.0592)"
           style="fill:#ffcd50;fill-opacity:1;stroke:none;stroke-width:2;stroke-miterlimit:4;stroke-dasharray:none;stroke-opacity:1"
           id="path6848" />
        <path
           d="M 338.26079,579.16638 C 338.26217,581.02816 336.87402,582.53822 335.16119,582.53822 C 333.44836,582.53822 332.06021,581.02816 332.06159,579.16638 C 332.06021,577.3046 333.44836,575.79454 335.16119,575.79454 C 336.87402,575.79454 338.26217,577.3046 338.26079,579.16638 L 338.26079,579.16638 z "
           transform="translate(-46.50716,-109.5513)"
           style="fill:#ffcd50;fill-opacity:1;stroke:none;stroke-width:2;stroke-miterlimit:4;stroke-dasharray:none;stroke-opacity:1"
           id="path6852" />
        <path
           d="M 338.26079,579.16638 C 338.26217,581.02816 336.87402,582.53822 335.16119,582.53822 C 333.44836,582.53822 332.06021,581.02816 332.06159,579.16638 C 332.06021,577.3046 333.44836,575.79454 335.16119,575.79454 C 336.87402,575.79454 338.26217,577.3046 338.26079,579.16638 L 338.26079,579.16638 z "
           transform="translate(28.96138,-83.1373)"
           style="fill:#ffcd50;fill-opacity:1;stroke:none;stroke-width:2;stroke-miterlimit:4;stroke-dasharray:none;stroke-opacity:1"
           id="path6856" />
        <path
           d="M 338.26079,579.16638 C 338.26217,581.02816 336.87402,582.53822 335.16119,582.53822 C 333.44836,582.53822 332.06021,581.02816 332.06159,579.16638 C 332.06021,577.3046 333.44836,575.79454 335.16119,575.79454 C 336.87402,575.79454 338.26217,577.3046 338.26079,579.16638 L 338.26079,579.16638 z "
           transform="translate(20.87547,-112.2466)"
           style="fill:#ffcd50;fill-opacity:1;stroke:none;stroke-width:2;stroke-miterlimit:4;stroke-dasharray:none;stroke-opacity:1"
           id="path6860" />
        <path
           d="M 338.26079,579.16638 C 338.26217,581.02816 336.87402,582.53822 335.16119,582.53822 C 333.44836,582.53822 332.06021,581.02816 332.06159,579.16638 C 332.06021,577.3046 333.44836,575.79454 335.16119,575.79454 C 336.87402,575.79454 338.26217,577.3046 338.26079,579.16638 L 338.26079,579.16638 z "
           transform="translate(123.2971,-29.7703)"
           style="fill:#ffcd50;fill-opacity:1;stroke:none;stroke-width:2;stroke-miterlimit:4;stroke-dasharray:none;stroke-opacity:1"
           id="path6864" />
        <path
           d="M 338.26079,579.16638 C 338.26217,581.02816 336.87402,582.53822 335.16119,582.53822 C 333.44836,582.53822 332.06021,581.02816 332.06159,579.16638 C 332.06021,577.3046 333.44836,575.79454 335.16119,575.79454 C 336.87402,575.79454 338.26217,577.3046 338.26079,579.16638 L 338.26079,579.16638 z "
           transform="translate(110.3596,-49.1765)"
           style="fill:#ffcd50;fill-opacity:1;stroke:none;stroke-width:2;stroke-miterlimit:4;stroke-dasharray:none;stroke-opacity:1"
           id="path6868" />
        <path
           d="M 338.26079,579.16638 C 338.26217,581.02816 336.87402,582.53822 335.16119,582.53822 C 333.44836,582.53822 332.06021,581.02816 332.06159,579.16638 C 332.06021,577.3046 333.44836,575.79454 335.16119,575.79454 C 336.87402,575.79454 338.26217,577.3046 338.26079,579.16638 L 338.26079,579.16638 z "
           transform="translate(92.03152,-76.6686)"
           style="fill:#ffcd50;fill-opacity:1;stroke:none;stroke-width:2;stroke-miterlimit:4;stroke-dasharray:none;stroke-opacity:1"
           id="path6872" />
        <path
           d="M 338.26079,579.16638 C 338.26217,581.02816 336.87402,582.53822 335.16119,582.53822 C 333.44836,582.53822 332.06021,581.02816 332.06159,579.16638 C 332.06021,577.3046 333.44836,575.79454 335.16119,575.79454 C 336.87402,575.79454 338.26217,577.3046 338.26079,579.16638 L 338.26079,579.16638 z "
           transform="translate(72.08627,-104.1607)"
           style="fill:#ffcd50;fill-opacity:1;stroke:none;stroke-width:2;stroke-miterlimit:4;stroke-dasharray:none;stroke-opacity:1"
           id="path6876" />
        <path
           d="M 338.26079,579.16638 C 338.26217,581.02816 336.87402,582.53822 335.16119,582.53822 C 333.44836,582.53822 332.06021,581.02816 332.06159,579.16638 C 332.06021,577.3046 333.44836,575.79454 335.16119,575.79454 C 336.87402,575.79454 338.26217,577.3046 338.26079,579.16638 L 338.26079,579.16638 z "
           transform="translate(53.21913,-127.3403)"
           style="fill:#ffcd50;fill-opacity:1;stroke:none;stroke-width:2;stroke-miterlimit:4;stroke-dasharray:none;stroke-opacity:1"
           id="path6880" />
        <path
           d="M 338.26079,579.16638 C 338.26217,581.02816 336.87402,582.53822 335.16119,582.53822 C 333.44836,582.53822 332.06021,581.02816 332.06159,579.16638 C 332.06021,577.3046 333.44836,575.79454 335.16119,575.79454 C 336.87402,575.79454 338.26217,577.3046 338.26079,579.16638 L 338.26079,579.16638 z "
           transform="translate(-77.7727,-120.8716)"
           style="fill:#ffcd50;fill-opacity:1;stroke:none;stroke-width:2;stroke-miterlimit:4;stroke-dasharray:none;stroke-opacity:1"
           id="path6884" />
        <path
           d="M 338.26079,579.16638 C 338.26217,581.02816 336.87402,582.53822 335.16119,582.53822 C 333.44836,582.53822 332.06021,581.02816 332.06159,579.16638 C 332.06021,577.3046 333.44836,575.79454 335.16119,575.79454 C 336.87402,575.79454 338.26217,577.3046 338.26079,579.16638 L 338.26079,579.16638 z "
           transform="translate(-91.2492,-98.7701)"
           style="fill:#ffcd50;fill-opacity:1;stroke:none;stroke-width:2;stroke-miterlimit:4;stroke-dasharray:none;stroke-opacity:1"
           id="path6888" />
        <path
           d="M 338.26079,579.16638 C 338.26217,581.02816 336.87402,582.53822 335.16119,582.53822 C 333.44836,582.53822 332.06021,581.02816 332.06159,579.16638 C 332.06021,577.3046 333.44836,575.79454 335.16119,575.79454 C 336.87402,575.79454 338.26217,577.3046 338.26079,579.16638 L 338.26079,579.16638 z "
           transform="translate(-105.2648,-75.5905)"
           style="fill:#ffcd50;fill-opacity:1;stroke:none;stroke-width:2;stroke-miterlimit:4;stroke-dasharray:none;stroke-opacity:1"
           id="path6892" />
        <path
           d="M 338.26079,579.16638 C 338.26217,581.02816 336.87402,582.53822 335.16119,582.53822 C 333.44836,582.53822 332.06021,581.02816 332.06159,579.16638 C 332.06021,577.3046 333.44836,575.79454 335.16119,575.79454 C 336.87402,575.79454 338.26217,577.3046 338.26079,579.16638 L 338.26079,579.16638 z "
           transform="translate(103.3518,-139.1997)"
           style="fill:#ffcd50;fill-opacity:1;stroke:none;stroke-width:2;stroke-miterlimit:4;stroke-dasharray:none;stroke-opacity:1"
           id="path6896" />
        <path
           d="M 338.26079,579.16638 C 338.26217,581.02816 336.87402,582.53822 335.16119,582.53822 C 333.44836,582.53822 332.06021,581.02816 332.06159,579.16638 C 332.06021,577.3046 333.44836,575.79454 335.16119,575.79454 C 336.87402,575.79454 338.26217,577.3046 338.26079,579.16638 L 338.26079,579.16638 z "
           transform="translate(133.0002,-122.4888)"
           style="fill:#ffcd50;fill-opacity:1;stroke:none;stroke-width:2;stroke-miterlimit:4;stroke-dasharray:none;stroke-opacity:1"
           id="path6900" />
        <path
           d="M 338.26079,579.16638 C 338.26217,581.02816 336.87402,582.53822 335.16119,582.53822 C 333.44836,582.53822 332.06021,581.02816 332.06159,579.16638 C 332.06021,577.3046 333.44836,575.79454 335.16119,575.79454 C 336.87402,575.79454 338.26217,577.3046 338.26079,579.16638 L 338.26079,579.16638 z "
           transform="translate(163.7266,-105.2388)"
           style="fill:#ffcd50;fill-opacity:1;stroke:none;stroke-width:2;stroke-miterlimit:4;stroke-dasharray:none;stroke-opacity:1"
           id="path6908" />
        <path
           d="M 338.26079,579.16638 C 338.26217,581.02816 336.87402,582.53822 335.16119,582.53822 C 333.44836,582.53822 332.06021,581.02816 332.06159,579.16638 C 332.06021,577.3046 333.44836,575.79454 335.16119,575.79454 C 336.87402,575.79454 338.26217,577.3046 338.26079,579.16638 L 338.26079,579.16638 z "
           transform="matrix(0.842105,0,0,0.842105,234.2672,0.4477)"
           style="fill:#ffcd50;fill-opacity:1;stroke:none;stroke-width:2;stroke-miterlimit:4;stroke-dasharray:none;stroke-opacity:1"
           id="path6912" />
        <path
           d="M 338.26079,579.16638 C 338.26217,581.02816 336.87402,582.53822 335.16119,582.53822 C 333.44836,582.53822 332.06021,581.02816 332.06159,579.16638 C 332.06021,577.3046 333.44836,575.79454 335.16119,575.79454 C 336.87402,575.79454 338.26217,577.3046 338.26079,579.16638 L 338.26079,579.16638 z "
           transform="matrix(0.842105,0,0,0.842105,131.4455,-60.6354)"
           style="fill:#ffcd50;fill-opacity:1;stroke:none;stroke-width:2;stroke-miterlimit:4;stroke-dasharray:none;stroke-opacity:1"
           id="path6916" />
        <path
           d="M 338.26079,579.16638 C 338.26217,581.02816 336.87402,582.53822 335.16119,582.53822 C 333.44836,582.53822 332.06021,581.02816 332.06159,579.16638 C 332.06021,577.3046 333.44836,575.79454 335.16119,575.79454 C 336.87402,575.79454 338.26217,577.3046 338.26079,579.16638 L 338.26079,579.16638 z "
           transform="matrix(0.842105,0,0,0.842105,-50.7555,-45.3884)"
           style="fill:#ffcd50;fill-opacity:1;stroke:none;stroke-width:2;stroke-miterlimit:4;stroke-dasharray:none;stroke-opacity:1"
           id="path6920" />
        <path
           d="M 338.26079,579.16638 C 338.26217,581.02816 336.87402,582.53822 335.16119,582.53822 C 333.44836,582.53822 332.06021,581.02816 332.06159,579.16638 C 332.06021,577.3046 333.44836,575.79454 335.16119,575.79454 C 336.87402,575.79454 338.26217,577.3046 338.26079,579.16638 L 338.26079,579.16638 z "
           transform="matrix(0.842105,0,0,0.842105,-68.28949,-34.9062)"
           style="fill:#ffcd50;fill-opacity:1;stroke:none;stroke-width:2;stroke-miterlimit:4;stroke-dasharray:none;stroke-opacity:1"
           id="path6924" />
        <path
           d="M 338.26079,579.16638 C 338.26217,581.02816 336.87402,582.53822 335.16119,582.53822 C 333.44836,582.53822 332.06021,581.02816 332.06159,579.16638 C 332.06021,577.3046 333.44836,575.79454 335.16119,575.79454 C 336.87402,575.79454 338.26217,577.3046 338.26079,579.16638 L 338.26079,579.16638 z "
           transform="matrix(0.842105,0,0,0.842105,-86.967,-21.3745)"
           style="fill:#ffcd50;fill-opacity:1;stroke:none;stroke-width:2;stroke-miterlimit:4;stroke-dasharray:none;stroke-opacity:1"
           id="path6928" />
        <path
           d="M 338.26079,579.16638 C 338.26217,581.02816 336.87402,582.53822 335.16119,582.53822 C 333.44836,582.53822 332.06021,581.02816 332.06159,579.16638 C 332.06021,577.3046 333.44836,575.79454 335.16119,575.79454 C 336.87402,575.79454 338.26217,577.3046 338.26079,579.16638 L 338.26079,579.16638 z "
           transform="matrix(0.631579,0,0,0.614035,-8.4051,57.8413)"
           style="fill:#ffcd50;fill-opacity:1;stroke:none;stroke-width:2;stroke-miterlimit:4;stroke-dasharray:none;stroke-opacity:1"
           id="path6932" />
        <path
           d="M 338.26079,579.16638 C 338.26217,581.02816 336.87402,582.53822 335.16119,582.53822 C 333.44836,582.53822 332.06021,581.02816 332.06159,579.16638 C 332.06021,577.3046 333.44836,575.79454 335.16119,575.79454 C 336.87402,575.79454 338.26217,577.3046 338.26079,579.16638 L 338.26079,579.16638 z "
           transform="matrix(0.631579,0,0,0.614035,-24.03322,62.1296)"
           style="fill:#ffcd50;fill-opacity:1;stroke:none;stroke-width:2;stroke-miterlimit:4;stroke-dasharray:none;stroke-opacity:1"
           id="path6940" />
        <path
           d="M 338.26079,579.16638 C 338.26217,581.02816 336.87402,582.53822 335.16119,582.53822 C 333.44836,582.53822 332.06021,581.02816 332.06159,579.16638 C 332.06021,577.3046 333.44836,575.79454 335.16119,575.79454 C 336.87402,575.79454 338.26217,577.3046 338.26079,579.16638 L 338.26079,579.16638 z "
           transform="matrix(0.631579,0,0,0.614035,-27.65437,118.7339)"
           style="fill:#ffcd50;fill-opacity:1;stroke:none;stroke-width:2;stroke-miterlimit:4;stroke-dasharray:none;stroke-opacity:1"
           id="path6944" />
        <path
           d="M 338.26079,579.16638 C 338.26217,581.02816 336.87402,582.53822 335.16119,582.53822 C 333.44836,582.53822 332.06021,581.02816 332.06159,579.16638 C 332.06021,577.3046 333.44836,575.79454 335.16119,575.79454 C 336.87402,575.79454 338.26217,577.3046 338.26079,579.16638 L 338.26079,579.16638 z "
           transform="matrix(0.631579,0,0,0.614035,-38.70841,66.1319)"
           style="fill:#ffcd50;fill-opacity:1;stroke:none;stroke-width:2;stroke-miterlimit:4;stroke-dasharray:none;stroke-opacity:1"
           id="path6952" />
        <path
           d="M 338.26079,579.16638 C 338.26217,581.02816 336.87402,582.53822 335.16119,582.53822 C 333.44836,582.53822 332.06021,581.02816 332.06159,579.16638 C 332.06021,577.3046 333.44836,575.79454 335.16119,575.79454 C 336.87402,575.79454 338.26217,577.3046 338.26079,579.16638 L 338.26079,579.16638 z "
           transform="matrix(0.77193,0,0,0.77193,-40.38691,75.7818)"
           style="fill:#ffcd50;fill-opacity:1;stroke:none;stroke-width:2;stroke-miterlimit:4;stroke-dasharray:none;stroke-opacity:1"
           id="path6956" />
        <path
           d="M 338.26079,579.16638 C 338.26217,581.02816 336.87402,582.53822 335.16119,582.53822 C 333.44836,582.53822 332.06021,581.02816 332.06159,579.16638 C 332.06021,577.3046 333.44836,575.79454 335.16119,575.79454 C 336.87402,575.79454 338.26217,577.3046 338.26079,579.16638 L 338.26079,579.16638 z "
           transform="matrix(0.719298,0,0,0.701754,-32.7534,130.9137)"
           style="fill:#ffcd50;fill-opacity:1;stroke:none;stroke-width:2;stroke-miterlimit:4;stroke-dasharray:none;stroke-opacity:1"
           id="path6960" />
      </g>
    </g>
  </g>
  <path
     d="M 249.55062,1.4395041 L 1.449569,1.4395041 L 1.449569,174.9361 C 0.68232904,268.65698 81.739009,302.75585 125.5001,302.75585 C 168.49395,302.75585 250.31785,268.65698 249.55062,174.9361 L 249.55062,1.4395041 z "
     style="fill:none;fill-opacity:0;stroke:#000000;stroke-width:1.88832211;stroke-linejoin:bevel"
     id="Frame" />
</svg>
