<?xml version="1.0" encoding="UTF-8" standalone="no"?>
<!-- Created with Inkscape (http://www.inkscape.org/) -->
<svg
   xmlns:dc="http://purl.org/dc/elements/1.1/"
   xmlns:cc="http://web.resource.org/cc/"
   xmlns:rdf="http://www.w3.org/1999/02/22-rdf-syntax-ns#"
   xmlns:svg="http://www.w3.org/2000/svg"
   xmlns="http://www.w3.org/2000/svg"
   xmlns:xlink="http://www.w3.org/1999/xlink"
   version="1.0"
   width="251"
   height="304.20001"
   id="svg4166">
  <defs
     id="defs4168" />
  <metadata
     id="metadata1880"><rdf:RDF><cc:Work
         rdf:about=""><dc:title>Storfors kommunvapen</dc:title><dc:date>28-11-2007</dc:date><dc:creator><cc:Agent><dc:title>Lokal_Profil</dc:title></cc:Agent></dc:creator><cc:license
         rdf:resource="http://creativecommons.org/licenses/by-sa/2.5/" /><dc:rights><cc:Agent><dc:title>cc-by-sa-2.5</dc:title></cc:Agent></dc:rights><dc:format>image/svg+xml</dc:format><dc:type
         rdf:resource="http://purl.org/dc/dcmitype/StillImage" /></cc:Work><cc:License
         rdf:about="http://creativecommons.org/licenses/by-sa/2.5/"><cc:permits
         rdf:resource="http://web.resource.org/cc/Reproduction" /><cc:permits
         rdf:resource="http://web.resource.org/cc/Distribution" /><cc:requires
         rdf:resource="http://web.resource.org/cc/Notice" /><cc:requires
         rdf:resource="http://web.resource.org/cc/Attribution" /><cc:permits
         rdf:resource="http://web.resource.org/cc/DerivativeWorks" /><cc:requires
         rdf:resource="http://web.resource.org/cc/ShareAlike" /></cc:License></rdf:RDF>
  </metadata>
  <path
     d="M 249.55058,1.4395041 L 1.4495291,1.4395041 L 1.4495291,174.9361 C 0.68228908,268.65698 81.738969,302.75585 125.50006,302.75585 C 168.49391,302.75585 250.31781,268.65698 249.55058,174.9361 L 249.55058,1.4395041 z "
     style="fill:#ffcd50;stroke:none"
     id="Shield" />
  <g
     transform="matrix(0.727484,0,0,0.727484,140.8773,6.70045)"
     style="fill:#d40000;stroke:#ffcd50;stroke-width:2"
     id="Tang">
    <path
       d="M 21.655903,339.78877 C 28.400206,276.48669 25.684163,196.66667 28.44764,129.50874 C 29.46608,104.62889 37.58331,103.09867 44.15118,96.47227 C 95.527272,55.783109 81.22588,47.902961 64.53466,22.3952 C 62.871762,19.853936 70.52506,13.05709 74.36413,17.06777 C 113.87905,58.082731 89.936829,78.526951 52.55744,115.07579 C 45.07054,121.02624 44.64109,122.98984 44.40673,132.03726 C 42.34546,211.70019 39.434404,283.69767 36.444073,343.94565 C 35.842039,356.07518 20.240684,353.07203 21.655903,339.78877 z "
       id="path3692" />
    <use
       transform="matrix(-1,0,0,1,108.9308,0)"
       id="use1880"
       x="0"
       y="0"
       width="108.93076"
       height="352.8017"
       xlink:href="#path3692" />
    <path
       d="M 58.75111,99.57338 C 58.75323,101.10593 57.93684,102.52297 56.60997,103.28986 C 55.28309,104.05674 53.64771,104.05674 52.32083,103.28986 C 50.99396,102.52297 50.17757,101.10593 50.17969,99.57338 C 50.17757,98.04083 50.99396,96.62379 52.32083,95.8569 C 53.64771,95.09002 55.28309,95.09002 56.60997,95.8569 C 57.93684,96.62379 58.75323,98.04083 58.75111,99.57338 z "
       id="path4585" />
  </g>
  <use
     transform="matrix(1,0,0,-1,-110,280.6887)"
     id="Tang-2"
     x="0"
     y="0"
     width="251"
     height="304.20001"
     xlink:href="#Tang" />
  <path
     d="M 1.4375,105.46875 L 1.4375,170.46875 L 249.5625,170.46875 L 249.5625,105.46875 L 1.4375,105.46875 z "
     style="fill:#eeeeee"
     id="Bjalke" />
  <path
     d="M 35.5,105.46875 L 57.375,137.96875 L 103.625,137.96875 L 81.75,105.46875 L 35.5,105.46875 z M 103.625,137.96875 L 125.5,170.46875 L 169.25,170.46875 L 147.375,137.96875 L 103.625,137.96875 z M 147.375,137.96875 L 193.625,137.96875 L 171.75,105.46875 L 125.5,105.46875 L 147.375,137.96875 z M 193.625,137.96875 L 215.5,170.46875 L 249.5625,170.46875 L 249.5625,156.0625 L 237.375,137.96875 L 193.625,137.96875 z M 237.375,137.96875 L 249.5625,137.96875 L 249.5625,105.46875 L 215.5,105.46875 L 237.375,137.96875 z M 57.375,137.96875 L 13.625,137.96875 L 35.5,170.46875 L 79.25,170.46875 L 57.375,137.96875 z M 13.625,137.96875 L 1.4375,119.875 L 1.4375,137.96875 L 13.625,137.96875 z "
     style="fill:#000000;stroke:none"
     id="Spetsrutor" />
  <path
     d="M 249.55062,1.4395041 L 1.449569,1.4395041 L 1.449569,174.9361 C 0.68232904,268.65698 81.739009,302.75585 125.5001,302.75585 C 168.49395,302.75585 250.31785,268.65698 249.55062,174.9361 L 249.55062,1.4395041 z "
     style="fill:none;fill-opacity:0;stroke:#000000;stroke-width:1.88832211;stroke-linecap:round"
     id="Frame" />
</svg>
