<?xml version="1.0" encoding="UTF-8" standalone="no"?>
<!-- Created with Inkscape (http://www.inkscape.org/) -->
<svg
   xmlns:dc="http://purl.org/dc/elements/1.1/"
   xmlns:cc="http://web.resource.org/cc/"
   xmlns:xlink="http://www.w3.org/1999/xlink"
   xmlns:rdf="http://www.w3.org/1999/02/22-rdf-syntax-ns#"
   xmlns:svg="http://www.w3.org/2000/svg"
   xmlns="http://www.w3.org/2000/svg"
   version="1.0"
   width="251"
   height="304.20001"
   id="svg4166">
  <defs
     id="defs4168" />
<metadata
   id="metadata1880"><rdf:RDF><cc:Work
         rdf:about=""><dc:title>Karlstad kommunvapen</dc:title><dc:date>02-08-2007</dc:date><dc:creator><cc:Agent><dc:title>Lokal_Profil</dc:title></cc:Agent></dc:creator><cc:license
         rdf:resource="http://creativecommons.org/licenses/by-sa/2.5/" /><dc:rights><cc:Agent><dc:title>cc-by-sa-2.5</dc:title></cc:Agent></dc:rights><dc:format>image/svg+xml</dc:format><dc:type
         rdf:resource="http://purl.org/dc/dcmitype/StillImage" /></cc:Work><cc:License
         rdf:about="http://creativecommons.org/licenses/by-sa/2.5/"><cc:permits
         rdf:resource="http://web.resource.org/cc/Reproduction" /><cc:permits
         rdf:resource="http://web.resource.org/cc/Distribution" /><cc:requires
         rdf:resource="http://web.resource.org/cc/Notice" /><cc:requires
         rdf:resource="http://web.resource.org/cc/Attribution" /><cc:permits
         rdf:resource="http://web.resource.org/cc/DerivativeWorks" /><cc:requires
         rdf:resource="http://web.resource.org/cc/ShareAlike" /></cc:License></rdf:RDF>
</metadata>
  <path
     d="M 249.55058,1.4395041 L 125.50008,1.4395041 L 1.4495291,1.4395041 L 1.4495291,174.9361 C 0.68228908,268.65698 81.738969,302.75585 125.50006,302.75585 C 168.49391,302.75585 250.31781,268.65698 249.55058,174.9361 L 249.55058,1.4395041 z "
     style="color:#000000;fill:#eeeeee;fill-opacity:1;fill-rule:nonzero;stroke:none;stroke-width:1.88832211;stroke-linecap:round;stroke-linejoin:bevel;marker:none;marker-start:none;marker-mid:none;marker-end:none;stroke-miterlimit:4;stroke-dashoffset:0;stroke-opacity:1;visibility:visible;display:block"
     id="Shield" />
  <g
     transform="matrix(0.9006,0,0,0.9006,-220.5225,22.20109)"
     id="Eagle">
    <path
       d="M 349.28703,204.70109 C 349.306,204.58485 349.46837,199.93789 349.46545,199.97805 C 349.46253,200.01822 343.42255,199.81823 342.3815,200.04073 C 340.60309,200.42082 339.58687,202.24364 339.8696,205.44514 C 340.03224,206.50681 340.14029,207.62306 341.0939,207.89375 C 342.05985,203.44788 343.23325,204.44096 344.25809,204.4566 C 345.4965,204.4755 349.26806,204.81733 349.28703,204.70109 z "
       style="color:#000000;fill:#d40000;fill-opacity:1;fill-rule:nonzero;stroke:none;stroke-width:1.52609396;stroke-linecap:round;stroke-linejoin:round;marker:none;marker-start:none;marker-mid:none;marker-end:none;stroke-miterlimit:4;stroke-dasharray:none;stroke-dashoffset:0;stroke-opacity:1;visibility:visible;display:inline;overflow:visible"
       id="path2345" />
    <path
       d="M 362.29461,185.39917 L 359.12034,188.57344 L 355.87392,186.40917 C 354.81192,185.38567 352.96169,185.14003 350.53536,185.68774 C 353.01795,180.87019 358.22317,181.12496 359.48105,182.87418 L 362.29461,185.39917 z "
       style="color:#000000;fill:#d40000;fill-opacity:1;fill-rule:nonzero;stroke:none;stroke-width:1.52609396;stroke-linecap:round;stroke-linejoin:round;marker:none;marker-start:none;marker-mid:none;marker-end:none;stroke-miterlimit:4;stroke-dasharray:none;stroke-dashoffset:0;stroke-opacity:1;visibility:visible;display:inline;overflow:visible"
       id="path2347" />
    <path
       d="M 361.4289,219.16192 C 364.05555,218.52474 362.40252,211.37363 358.90391,213.96766 C 355.4053,216.56168 351.56441,218.40107 355.72963,224.42834 C 355.94035,220.07435 358.80226,219.7991 361.4289,219.16192 z "
       style="color:#000000;fill:#d40000;fill-opacity:1;fill-rule:nonzero;stroke:none;stroke-width:1.52609396;stroke-linecap:round;stroke-linejoin:round;marker:none;marker-start:none;marker-mid:none;marker-end:none;stroke-miterlimit:4;stroke-dasharray:none;stroke-dashoffset:0;stroke-opacity:1;visibility:visible;display:inline;overflow:visible"
       id="path2349" />
    <path
       d="M 393.17166,203.07412 C 399.31392,199.54726 402.73245,200.30054 403.48806,205.23839 C 400.22373,203.66756 398.09942,204.63011 396.56237,206.89767"
       style="color:#000000;fill:#d40000;fill-opacity:1;fill-rule:nonzero;stroke:none;stroke-width:1.52609396;stroke-linecap:round;stroke-linejoin:round;marker:none;marker-start:none;marker-mid:none;marker-end:none;stroke-miterlimit:4;stroke-dasharray:none;stroke-dashoffset:0;stroke-opacity:1;visibility:visible;display:inline;overflow:visible"
       id="path2351" />
    <path
       d="M 409.90876,166.13708 L 402.98306,162.67424 L 377.87742,197.15842 C 376.16691,194.69093 374.87298,190.9737 373.40458,187.77987 L 361.36914,183.53584 C 359.53887,184.79495 357.7371,186.96461 356.17486,189.59582 C 357.26961,190.76792 358.62526,191.15731 359.98605,191.53129 C 361.81366,190.53704 363.64127,190.15551 365.46889,190.5213 C 367.70423,193.49063 368.40511,195.69273 369.65316,198.16841 C 366.26625,197.28324 362.08126,195.57379 356.59022,193.37199 C 353.56285,195.1567 350.28183,197.47086 346.49025,197.98187 C 346.82581,198.65116 347.03737,199.30495 347.15626,199.94716 C 347.55098,202.07936 346.92423,204.08387 346.42323,206.10411 C 347.28415,207.93029 348.60401,207.30023 349.48823,207.63148 C 354.69474,203.38094 355.00577,202.54143 357.7125,202.43721 C 363.15054,202.57838 364.96645,203.12201 368.21031,203.50697 C 365.22517,206.7261 361.76815,210.39433 357.67748,211.58695 C 357.09759,212.5319 357.15925,213.6907 357.38891,214.90551 C 360.86706,217.23 359.27445,218.55317 359.20486,220.37085 C 359.60293,220.90705 360.74645,220.94628 361.94628,220.94798 C 364.779,216.55591 366.39647,216.61975 368.49888,214.90551 C 369.9956,213.21642 370.44904,211.13603 371.96922,209.99478 C 377.13494,206.11671 381.72484,204.82901 385.87288,205.38268 C 390.86813,207.39588 393.7855,208.41898 397.35594,208.55696 C 397.47737,207.83791 398.17851,208.07424 397.8063,206.36792 C 396.36345,206.1443 394.92059,203.27667 393.47774,201.31793 C 390.00236,201.2915 386.26036,201.79828 384.08169,199.17841 L 409.90876,166.13708 z "
       style="color:#000000;fill:#d40000;fill-opacity:1;fill-rule:nonzero;stroke:none;stroke-width:1.52609396;stroke-linecap:round;stroke-linejoin:round;marker:none;marker-start:none;marker-mid:none;marker-end:none;stroke-miterlimit:4;stroke-dasharray:none;stroke-dashoffset:0;stroke-opacity:1;visibility:visible;display:inline;overflow:visible"
       id="path2353" />
    <path
       d="M 407.53021,71.375974 L 405.59173,70.049646 C 404.67351,70.508761 392.19832,69.753695 389.2167,68.111171 C 386.00292,66.340749 391.2471,55.605197 388.03726,52.063392 C 384.44081,48.095008 375.08881,51.207925 373.06158,50.520887 C 370.05208,49.500958 367.66882,44.687657 367.24267,41.575891 C 366.81482,38.451752 366.38059,33.417509 366.48261,33.162448 C 366.58464,32.907382 366.86492,31.980361 367.84244,31.688211 C 368.94213,31.359546 373.65366,29.935446 374.31229,29.253485 C 374.83916,28.707947 380.34201,24.36473 381.18298,21.429559 C 381.90326,18.915601 381.93066,17.149631 381.93066,15.31318 C 381.93066,13.476728 381.92191,10.678288 381.20774,8.4847485 C 380.49356,6.2912091 378.46181,4.3367289 375.70713,2.2962277 C 372.95245,0.25572459 368.60763,-0.1436242 368.60763,-0.1436242 L 345.28615,0.25209859 C 345.26248,0.2568015 329.80507,-0.039729752 318.09646,-4.9052954 C 325.97861,17.341562 343.98801,12.965588 346.82528,14.241916 C 322.15846,21.906691 310.66613,22.448576 308.25979,21.791771 C 308.29744,22.461996 311.27224,25.882298 314.67478,28.478087 C 317.42725,30.577937 321.24134,32.007271 323.05343,32.300357 C 326.85352,32.914987 331.0348,32.681759 335.54725,32.393073 C 338.07192,32.231556 346.05612,29.762494 345.39692,30.76998 C 344.87968,31.560502 341.33284,34.026858 336.99264,37.677005 C 333.17937,40.884005 328.76083,45.354418 324.40215,48.939045 C 316.60672,55.350105 308.51898,59.205151 308.97396,59.643084 C 311.54705,62.119771 318.70429,63.880477 324.64702,62.130083 C 327.19812,61.37867 328.78587,60.476789 331.57324,58.550421 C 333.72708,57.061889 336.7235,54.16378 338.50012,52.560451 C 341.87177,49.517674 345.03909,46.999924 347.02932,45.257547 C 347.02298,46.626311 345.96909,48.093813 344.68275,50.460825 C 328.56278,80.558232 310.19826,111.06374 310.19826,111.06374 C 325.63382,111.91478 334.35403,96.218755 341.77758,86.543466 C 351.22598,74.229129 349.06803,76.806284 351.11033,74.028625 C 353.15262,71.250967 350.62224,75.781695 346.31515,86.271638 C 341.0976,97.6546 341.23149,106.37573 339.35548,118.36116 C 337.90907,127.30571 335.76043,137.91157 335.70454,136.67204 C 335.50285,139.65807 328.09551,158.92791 321.93115,175.1355 C 329.21458,174.54844 334.44188,170.31753 338.35719,166.36135 C 341.26489,162.05444 343.67887,157.67657 345.49895,153.09808 C 348.8158,145.37421 351.2177,137.9798 353.63538,130.91701 C 358.70043,116.12044 362.236,103.05986 365.80194,93.821495 L 365.68861,113.032 C 366.11837,117.62146 364.60957,138.63465 363.67467,145.06604 C 361.4015,160.70376 360.85256,169.98696 358.96626,178.50233 C 382.938,174.77278 389.10666,126.88962 388.55354,107.18678 C 390.52602,121.92301 392.49851,136.23432 394.471,148.81303 C 399.2617,146.13888 401.96772,143.38779 403.14313,137.99837 C 404.19739,123.09564 405.4557,110.28154 406.50996,97.69845 L 416.4064,78.517733 L 407.53021,71.375974 z "
       style="color:#000000;fill:#003d8f;fill-opacity:1;fill-rule:nonzero;stroke:none;stroke-width:1.52609396;stroke-linecap:butt;stroke-linejoin:round;marker:none;marker-start:none;marker-mid:none;marker-end:none;stroke-miterlimit:4;stroke-dasharray:none;stroke-dashoffset:0;stroke-opacity:1;visibility:visible;display:inline;overflow:visible"
       id="path2367" />
    <path
       d="M 421.30904,17.514905 C 423.22801,18.142897 424.20267,11.260052 419.16651,12.6177 C 404.67657,17.402335 395.15903,19.818793 393.86428,10.679223 C 393.17249,8.1801997 388.68994,6.7449327 389.8853,11.699475 C 396.41685,27.127011 407.96826,14.258003 421.30904,17.514905 z "
       style="color:#000000;fill:#d40000;fill-opacity:1;fill-rule:nonzero;stroke:none;stroke-width:1.52609396;stroke-linecap:butt;stroke-linejoin:round;marker:none;marker-start:none;marker-mid:none;marker-end:none;stroke-miterlimit:4;stroke-dasharray:none;stroke-dashoffset:0;stroke-opacity:1;visibility:visible;display:inline;overflow:visible"
       id="path2371" />
    <path
       d="M 432.63382,6.7002446 L 424.77789,28.737666 C 412.60117,23.032267 405.08979,21.554824 401.61819,23.738436 C 403.78209,20.947421 406.56762,15.658514 421.61511,21.799961 C 419.33442,15.043475 402.07148,7.8473947 398.86351,15.270353 C 394.40511,4.759699 399.07086,-0.031342848 412.84095,0.8848136 L 432.63382,6.7002446 z "
       style="color:#000000;fill:#d40000;fill-opacity:1;fill-rule:nonzero;stroke:none;stroke-width:1.52609396;stroke-linecap:round;stroke-linejoin:round;marker:none;marker-start:none;marker-mid:none;marker-end:none;stroke-miterlimit:4;stroke-dasharray:none;stroke-dashoffset:0;stroke-opacity:1;visibility:visible;display:inline;overflow:visible"
       id="path2373" />
    <path
       d="M 400.18982,63.936327 C 387.13182,68.106399 397.4609,66.104886 396.76365,67.01309 C 388.60757,69.625188 406.30064,99.276635 412.07304,140.16573 C 410.96685,144.80279 409.86066,147.15727 408.75447,149.54427 C 406.86135,152.03388 403.07652,157.0062 397.50022,161.37567 L 399.6645,162.52995 L 396.63451,165.70423 C 401.528,169.02193 409.1471,167.16099 410.63018,176.95848 C 410.8804,168.93219 412.38598,173.56396 414.09303,175.37134 C 414.36825,163.75639 419.21997,159.57115 423.183,154.59426 C 423.49216,160.51199 426.45729,171.28748 417.70016,180.99847 C 410.85328,184.28064 403.84831,183.29444 397.35594,196.14842 C 401.82987,194.99445 401.21772,192.41636 414.3816,193.69557 L 422.75015,188.78987 C 421.02328,194.88069 424.74829,200.33682 402.83878,210.43266 C 387.34859,213.97329 376.48903,220.60101 371.38459,231.06547 C 379.84308,226.86283 388.78598,224.17797 400.24164,221.97549 C 412.35065,215.25733 415.03333,210.99021 421.16301,204.80554 C 419.42131,209.49822 418.4726,213.55652 414.95874,219.66692 C 407.58771,227.03818 397.43632,230.73538 400.24164,251.55396 C 409.52421,236.66749 416.44758,238.81996 426.35728,203.65125 C 428.08992,211.34344 429.92703,218.77443 428.66585,233.95117 C 426.40569,241.18454 426.69327,247.39881 419.14301,256.74824 L 426.06871,255.01682 L 432.49661,274.40876 C 432.49661,274.40876 439.32256,59.376225 439.32256,59.376225 C 440.29081,59.537978 442.65842,60.81081 443.89882,60.972474 C 437.61863,50.023777 440.8433,43.875445 442.12214,39.654355 L 444.06061,44.959658 L 446.36493,34.732392 L 450.69224,38.6341 C 449.81848,34.09659 449.0408,29.394354 446.86268,27.092887 C 450.49555,27.917924 453.07429,27.866495 453.51954,27.648869 C 454.46509,27.186717 449.69475,25.178682 449.51533,21.889609 C 452.6138,22.239425 454.10375,21.72475 456.4643,19.100259 C 457.18529,18.29865 453.09717,19.958321 453.27276,19.435877 C 444.25801,11.05133 452.57584,15.05914 452.91416,13.391641 C 440.13888,6.4070544 450.03577,8.6829327 449.40305,6.6579845 C 439.90861,2.4602615 443.45549,4.6785017 447.33266,-0.65794077 C 445.15734,-0.038350163 442.05446,0.82835067 438.04113,0.17063875 C 438.07142,-0.63432904 430.8991,-2.5900409 419.70473,-2.8147084 C 415.79436,-2.8931893 413.20234,-2.589055 412.94295,1.292915 C 427.31255,18.16091 427.1924,24.770686 419.88066,26.289063 C 421.6149,29.75115 422.84127,31.773061 422.31919,32.858038 C 421.4404,34.68435 416.73836,36.274973 406.48337,42.073072 C 411.31139,43.749735 421.8259,38.33608 406.52775,48.368749 C 396.52835,53.095805 404.32026,51.228944 407.63765,51.081167 C 405.18345,54.725734 402.39052,58.339514 397.84324,61.793803 L 400.18982,63.936327 z "
       style="color:#000000;fill:#003d8f;fill-opacity:1;fill-rule:nonzero;stroke:none;stroke-width:1.52609396;stroke-linecap:butt;stroke-linejoin:round;marker:none;marker-start:none;marker-mid:none;marker-end:none;stroke-miterlimit:4;stroke-dasharray:none;stroke-dashoffset:0;stroke-opacity:1;visibility:visible;display:inline;overflow:visible"
       id="path2375" />
    <path
       d="M 425.07965,5.7279146 C 429.02641,4.4642071 431.03748,6.5753389 429.73286,10.345045 C 425.54498,11.995604 423.80106,9.6560216 425.07965,5.7279146 z "
       style="fill:#eeeeee;fill-opacity:1;fill-rule:nonzero;stroke:none;stroke-width:1.52609396;stroke-linejoin:round;stroke-miterlimit:4;stroke-dasharray:none;stroke-opacity:1"
       id="path2377" />
  </g>
  <g
     transform="matrix(0.553103,0,0,1.02406,-32.29723,-11.93843)"
     id="Torn">
    <path
       d="M 100.75806,127.85645 L 150.17753,127.85645 C 152.56785,127.85645 154.50091,129.76467 154.50091,132.1077 L 154.50091,236.1181 C 150.56433,237.37381 146.62743,238.36449 142.66604,239.08915 L 108.29471,239.03781 C 104.35781,238.31451 100.39641,237.34731 96.434683,236.14057 L 96.434683,132.10635 C 96.434683,129.76467 98.389884,127.8551 100.75806,127.8551 L 100.75806,127.85645 z "
       style="fill:#d40000;fill-opacity:1;fill-rule:evenodd;stroke:none"
       id="path2050" />
    <path
       d="M 96.337728,67.02206 L 102.23084,67.02206 L 102.23084,75.93486 L 109.50145,75.93486 L 109.50145,67.02206 L 115.66093,67.02206 L 115.66093,75.93486 L 122.9312,75.93486 L 122.9312,67.02206 L 129.06586,67.02206 L 129.06586,75.93486 L 136.33613,75.93486 L 136.33613,67.02206 L 142.47079,67.02206 L 142.47079,75.93486 L 149.76488,75.93486 L 149.76488,67.02206 L 154.78774,67.02206 L 154.78774,83.4715 L 96.333703,83.4715 L 96.333703,67.02206 L 96.337728,67.02206 z "
       style="fill:#d40000;fill-opacity:1;fill-rule:evenodd;stroke:none"
       id="path2048" />
    <path
       d="M 99.550993,84.63855 L 150.83138,84.63855 L 150.83138,126.64349 L 99.550993,126.64349 L 99.550993,84.63855 z M 107.59489,103.93828 C 107.95654,97.24806 110.54077,92.63381 114.69641,89.47054 C 118.12573,93.04411 120.54088,97.58622 120.92769,103.93828 L 120.92769,124.46956 L 107.59489,124.46956 L 107.59489,103.93828 z M 129.43019,103.93828 C 129.79184,97.24806 132.37608,92.63381 136.53139,89.47054 C 139.96103,93.04411 142.37618,97.58622 142.78648,103.93828 L 142.78648,124.46956 L 129.43019,124.46956 L 129.43019,103.93828 z "
       style="fill:#d40000;fill-opacity:1;fill-rule:evenodd;stroke:none"
       id="path2044" />
    <path
       d="M 93.005031,65.83322 L 103.37268,65.83322 L 103.37268,74.55178 L 108.26399,74.55178 L 108.26399,65.83322 L 116.92186,65.83322 L 116.92186,74.55178 L 121.54849,74.55178 L 121.54849,65.83322 L 130.37544,65.83322 L 130.37544,74.55178 L 134.9769,74.55178 L 134.9769,65.83322 L 143.7069,65.83322 L 143.7069,74.55178 L 148.35701,74.55178 L 148.35701,65.83322 L 158,65.83322 L 125.10145,32.427419 L 93,65.83322 L 93.005031,65.83322 z "
       style="fill:#d40000;fill-opacity:1;fill-rule:evenodd;stroke:none"
       id="path2038" />
  </g>
  <use
     transform="translate(170.2552,0)"
     id="Torn2"
     x="0"
     y="0"
     width="251"
     height="304.20001"
     xlink:href="#Torn" />
  <path
     d="M 249.55062,1.4395041 L 125.50012,1.4395041 L 1.449569,1.4395041 L 1.449569,174.9361 C 0.68232904,268.65698 81.739009,302.75585 125.5001,302.75585 C 168.49395,302.75585 250.31785,268.65698 249.55062,174.9361 L 249.55062,1.4395041 z "
     style="color:#000000;fill:none;fill-opacity:0;fill-rule:nonzero;stroke:#000000;stroke-width:1.88832211;stroke-linecap:round;stroke-linejoin:bevel;marker:none;marker-start:none;marker-mid:none;marker-end:none;stroke-miterlimit:4;stroke-dashoffset:0;stroke-opacity:1;visibility:visible;display:block"
     id="Frame" />
</svg>
