<?xml version="1.0" encoding="UTF-8" standalone="no"?>
<!-- Created with Inkscape (http://www.inkscape.org/) -->
<svg
   xmlns:dc="http://purl.org/dc/elements/1.1/"
   xmlns:cc="http://web.resource.org/cc/"
   xmlns:rdf="http://www.w3.org/1999/02/22-rdf-syntax-ns#"
   xmlns:svg="http://www.w3.org/2000/svg"
   xmlns="http://www.w3.org/2000/svg"
   version="1.0"
   width="251"
   height="304.20001"
   id="svg4166">
  <defs
     id="defs4168" />
  <metadata
       id="metadata1880"><rdf:RDF><cc:Work
           rdf:about=""><dc:title>Filipstad vapen</dc:title><dc:date>2008-09-03</dc:date><dc:creator><cc:Agent><dc:title>Lokal_Profil</dc:title></cc:Agent></dc:creator><cc:license
           rdf:resource="http://creativecommons.org/licenses/by-sa/2.5/" /><dc:rights><cc:Agent><dc:title>cc-by-sa-2.5</dc:title></cc:Agent></dc:rights><dc:format>image/svg+xml</dc:format><dc:type
           rdf:resource="http://purl.org/dc/dcmitype/StillImage" /></cc:Work><cc:License
           rdf:about="http://creativecommons.org/licenses/by-sa/2.5/"><cc:permits
           rdf:resource="http://web.resource.org/cc/Reproduction" /><cc:permits
           rdf:resource="http://web.resource.org/cc/Distribution" /><cc:requires
           rdf:resource="http://web.resource.org/cc/Notice" /><cc:requires
           rdf:resource="http://web.resource.org/cc/Attribution" /><cc:permits
           rdf:resource="http://web.resource.org/cc/DerivativeWorks" /><cc:requires
           rdf:resource="http://web.resource.org/cc/ShareAlike" /></cc:License></rdf:RDF>
  </metadata>
  <path
     d="M 249.55058,1.4395041 L 1.4495291,1.4395041 L 1.4495291,174.9361 C 0.68228908,268.65698 81.738969,302.75585 125.50006,302.75585 C 168.49391,302.75585 250.31781,268.65698 249.55058,174.9361 L 249.55058,1.4395041 z "
     style="fill:#eeeeee;stroke:none"
     id="Shield" />
  <g
     transform="matrix(0.822734,0,0,0.822734,-174.0743,-288.5809)"
     id="Knight_on_horse">
    <g
       style="fill:#d40000;stroke:#eeeeee"
       id="Horse-main_body">
      <path
         d="M 423.45927,606.3781 C 422.30595,544.72978 386.65198,575.11999 382.58145,586.65532 C 378.51092,598.19065 402.30868,611.50252 383.56122,617.18036 C 373.32945,628.02548 359.68158,637.16518 355.16437,651.91488 C 355.16437,651.91488 363.61726,664.81453 363.61726,664.81453 C 380.16217,664.2158 378.86676,643.4573 391.94937,636.51308 C 401.04272,627.82657 415.6317,617.5359 422.85169,607.1504 C 422.85169,607.1504 418.07712,563.33371 423.45927,606.3781 z "
         id="Horse-leg-back-right" />
      <path
         d="M 272.75352,553.65474 C 256.05032,557.13732 252.03315,575.9855 238.01698,583.4471 C 220.71698,594.58032 239.70172,607.1846 245.9382,617.96286 C 251.4243,627.14102 258.84106,635.18574 264.81782,643.74177 C 260.87913,638.18006 275.63038,622.21877 274.09996,619.74639 C 262.34092,612.60213 245.06983,588.95023 268.25968,586.11322 C 273.69787,580.88981 281.50919,580.80337 287.03115,576.23406"
         id="Horse-leg-front-right" />
      <path
         d="M 288.3125,424.8125 C 283.72319,424.81249 279.12056,426.45764 274.53125,428.125 L 279.125,463.15625 C 279.125,471.49305 279.12351,479.81944 277.59375,488.15625 C 276.06396,496.49305 273.0134,504.82846 270.71875,516.5 C 268.42408,528.17152 266.88091,543.1934 273,554.03125 C 279.11908,564.86913 292.88682,571.52917 305.125,576.53125 C 317.36316,581.53335 328.07433,584.88507 340.3125,585.71875 C 352.55068,586.5524 366.33772,584.86495 376.28125,584.03125 C 383.31413,582.1538 386.63531,582.12372 393.09375,579.03125 C 399.91269,580.4203 406.00881,581.59843 411.46875,582.5625 C 412.72783,589.57489 412.05915,597.52361 417.25,603.34375 C 430.64012,610.98692 441.8674,624.649 427.4375,637.46875 C 420.77239,646.78026 413.37379,656.07568 407.75,666.6875 C 407.75,666.6875 429.53882,672.97261 430.53125,672.0625 C 429.69488,661.90037 437.5136,660.14514 442.28125,654.03125 C 442.32935,638.75641 464.34622,629.56004 458.34375,614.625 C 441.83801,599.09928 467.32033,585.55666 464.3125,569.21875 C 464.11534,564.49972 463.532,559.60812 462.5,554.75 C 462.54503,550.09933 462.36065,545.57217 461.9375,542.34375 C 461.17264,536.50798 459.65477,534.83368 458.125,534 C 456.59524,533.16635 455.04612,533.17743 454.28125,532.34375 C 453.51637,531.5101 453.51934,529.84375 457.34375,529.84375 C 459.78276,528.49634 460.7209,527.84994 459.65625,524 C 455.06695,523.16633 451.99709,523.16737 448.9375,521.5 C 445.87796,519.83264 442.80513,516.50103 435.15625,514 C 427.50743,511.49894 415.29623,509.82362 398.46875,508.15625 C 381.64131,506.48888 360.20693,504.84375 347.96875,504.84375 C 335.73058,504.84374 332.67114,506.48992 331.90625,505.65625 C 330.62813,491.95296 330.5815,488.35116 325.78125,477.3125 C 321.23293,466.05869 322.0905,451.04348 302.84375,428.96875 C 297.48951,426.46771 292.9018,424.8125 288.3125,424.8125 z "
         id="Horse-body" />
      <path
         d="M 277.09586,471.4983 C 279.51986,485.50542 272.35623,508.49761 269.5393,521.63816 C 268.0806,535.70085 266.0631,549.27868 275.29451,561.12519 C 280.93538,570.62648 291.94893,579.73161 288.54299,592.71654 C 286.6113,605.43396 283.89333,618.45169 290.5017,630.40964 C 292.7355,645.99631 279.40925,658.91788 272.07755,671.80912 C 271.93193,674.26374 297.62669,676.42077 297.62669,676.42077 C 301.9483,668.29044 298.65918,657.97372 308.58602,652.13096 C 311.20797,640.06851 305.40348,627.89443 306.5779,615.58823 C 303.43417,601.96917 309.0774,592.05529 314.80767,580.06716 L 314.66142,576.75674 L 315.22033,574.84458 M 314.48814,580.0552 C 329.27051,588.73737 347.43008,587.39826 363.92749,589.15319 C 379.75884,591.32858 393.68569,582.18665 403.81486,571.71821"
         id="Horse-front_leg_and_belly" />
      <path
         d="M 279.13409,428.13797 C 279.13409,424.80324 279.13409,421.46852 282.19363,418.13379 C 285.25318,414.79907 291.37225,411.46434 294.43177,410.63066 C 297.49131,409.79698 297.49131,411.46434 295.96153,414.79907 C 294.43177,418.13379 291.37225,423.13588 288.31271,428.13797"
         id="Horse-ear-right" />
      <g
         id="Horse-teeth">
        <path
           d="M 242.41962,473.15676 L 242.41962,483.16093 L 247.00893,483.16093 L 247.00893,473.15676 L 242.41962,473.15676 z "
           id="pferd-gebiss-1" />
        <path
           d="M 247.00893,473.15676 L 247.00893,483.16093 L 251.59823,483.16093 L 251.59823,473.15676 L 247.00893,473.15676 z "
           id="pferd-gebiss-2" />
        <path
           d="M 237.83031,473.15676 L 237.83031,483.16093 L 242.41962,483.16093 L 242.41962,473.15676 L 237.83031,473.15676 z "
           id="pferd-gebiss-3" />
      </g>
      <path
         d="M 290.60738,425.63692 C 289.84249,424.80324 289.0776,423.96956 287.90478,423.96956 C 286.78294,423.96956 285.25318,424.80324 284.48829,424.80324 C 283.7234,424.80324 283.7234,423.96956 281.42875,424.35861 C 279.13409,424.80324 274.54478,426.47061 267.66082,432.30637 C 260.77686,438.14214 251.59823,448.14632 246.24405,453.98209 C 240.88984,459.81786 239.36008,461.48522 237.83031,462.3189 C 236.30053,463.15258 234.77077,463.15258 234.00588,465.65362 C 233.241,468.15467 233.241,473.15676 236.30053,474.82412 C 239.36008,476.49148 245.47916,474.82412 248.53869,474.82412 C 251.59823,474.82412 251.59823,476.49148 250.83336,477.32516 C 250.06847,478.15884 248.53869,478.15884 245.47916,478.15884 C 242.41962,478.15884 237.83031,478.15884 235.84161,479.56665 C 233.85291,480.97502 234.46481,483.79063 236.6065,484.9211 C 238.74817,486.05101 242.41962,485.49523 245.93808,485.75478 C 249.45656,486.01378 252.82206,487.08867 256.79946,486.79188 C 260.77686,486.49566 265.36617,484.82829 269.95548,482.32725 C 274.54478,479.82621 279.13409,476.49148 282.95853,473.15676 C 286.78294,469.82203 289.84249,466.48731 291.37225,463.15258 C 292.90201,459.81786 292.90201,456.48313 292.90201,453.14841"
         id="Horse-head" />
      <path
         d="M 238.44221,468.26582 L 241.50176,466.93193"
         style="fill:none"
         id="Horse-nose" />
      <g
         style="fill:none;stroke-linecap:round"
         id="Horse-eye">
        <path
           d="M 279.1782,444.23685 C 276.04202,447.3146 274.08719,448.35851 271.79851,448.56736"
           id="_69085128" />
        <path
           d="M 275.14186,443.29101 C 275.11757,443.43672 273.90914,445.17854 273.76343,445.26354 C 272.50327,444.75948 271.22953,445.19666 272.91699,442.41208 C 272.91699,442.41208 274.15123,441.80762 274.32123,441.73476 C 274.53678,441.64238 275.15583,443.20717 275.14186,443.29101 z "
           style="fill:#eeeeee"
           id="_69195392" />
        <path
           d="M 269.30161,442.80104 C 272.42998,443.08399 276.73422,440.11925 279.68198,440.387 C 280.59677,441.79632 277.68704,443.90135 276.30232,444.85298 C 274.90448,445.81362 272.40506,447.14504 270.87074,446.4221 C 269.79975,445.91747 268.12249,442.69439 269.30161,442.80104 z "
           id="path3320" />
      </g>
    </g>
    <path
       d="M 344.03986,476.16787 L 343.49103,467.36175 L 329.16966,479.01901 C 330.62127,482.15889 331.93128,485.18154 333.20586,488.03268 L 337.67572,485.1995 L 344.03986,476.16787 z "
       style="fill:#003d8f;stroke:#eeeeee"
       id="Knight-arm-right" />
    <path
       d="M 457.34375,529.84375 C 461.16816,529.84377 468.81697,531.5191 473.40625,535.6875 C 477.99555,539.85594 479.54614,546.50798 478.78125,552.34375 C 478.01637,558.17953 474.9375,563.19549 474.9375,569.03125 C 474.9375,574.86701 478.01926,581.53022 481.84375,584.03125 C 485.66815,586.53232 490.25286,584.85487 493.3125,583.1875 C 496.372,581.52016 497.8898,579.86493 497.125,579.03125 C 496.36004,578.19759 493.31115,578.20868 491.78125,577.375 C 490.2515,576.54133 490.23506,574.8559 491,570.6875 C 491.76479,566.51909 493.2962,559.85695 492.53125,553.1875 C 491.76631,546.51807 488.71574,539.85591 485.65625,535.6875 C 482.59672,531.51913 479.52678,529.85487 474.9375,528.1875 C 470.3482,526.52015 464.24553,524.83368 459.65625,524 C 455.06695,523.16633 451.99709,523.16737 448.9375,521.5 C 462.25476,537.72706 449.28288,530.62349 457.34375,529.84375 z "
       style="fill:#ffcd50;stroke:#eeeeee"
       id="Horse-tail" />
    <g
       style="fill:#ffcd50;stroke:#eeeeee"
       id="Horse-mane">
      <path
         d="M 317.60914,471.23537 C 319.04056,467.15468 322.54832,466.74681 324.16996,460.35316 C 329.23224,464.64932 330.2421,470.42271 328.22976,478.46521 C 327.29569,482.19842 319.89848,485.07356 320.09768,491.767 C 315.71275,488.25427 314.69261,485.86201 316.10893,481.92523 C 317.69813,477.50746 321.24863,476.05105 317.60914,471.2354 L 317.60914,471.23537 z "
         id="_69071648" />
      <path
         d="M 313.37749,459.29397 C 314.35525,454.29633 315.07305,452.12881 317.20653,447.66834 C 322.63251,451.27114 324.87494,451.99915 324.1687,460.35254 C 323.64271,466.57151 315.88561,469.53786 316.69853,476.1643 C 311.17359,475.33739 310.25914,472.62616 311.30533,468.52623 C 312.47941,463.9253 317.43691,463.60093 313.37749,459.29399 L 313.37749,459.29397 z "
         id="_69118128" />
      <path
         d="M 306.32735,445.09104 C 306.82826,439.98528 311.61291,437.46298 308.47499,431.79888 C 314.37908,434.08298 317.17513,435.38051 318.29103,443.66964 C 318.78296,447.32474 312.5145,452.92653 314.37779,459.24129 C 308.82299,459.70418 306.96901,457.29002 307.3366,453.02539 C 307.74914,448.23975 311.00373,448.38097 306.32735,445.09104 L 306.32735,445.09104 z "
         id="_67943384" />
      <path
         d="M 326.20599,503.37042 C 326.67251,502.28993 331.46266,498.34428 331.3338,497.79444 C 335.28753,499.04885 334.50996,500.229 334.84477,502.08753 C 335.28048,504.50938 335.25089,508.30226 338.52668,509.96107 C 335.65896,512.04586 333.89047,511.72573 332.00117,510.20541 C 329.46701,508.16643 329.92196,502.59118 326.20603,503.37042 L 326.20599,503.37042 z "
         id="_68913520" />
      <path
         d="M 297.82297,434.18655 C 298.1655,432.46037 299.42182,429.93386 298.76697,425.41027 C 304.38605,425.86854 309.79595,428.82026 309.59709,436.35405 C 309.49975,440.05458 304.77003,442.57919 306.63332,448.89436 C 301.07852,449.35725 299.22454,446.94348 299.59212,442.67845 C 300.005,437.89281 302.49934,437.47648 297.82297,434.18655 L 297.82297,434.18655 z "
         id="_68982392" />
      <path
         d="M 278.77421,422.87897 C 281.28171,421.7196 284.1655,421.68074 286.38669,417.86094 C 292.00577,418.3192 297.50341,418.17647 298.93133,426.39749 C 299.6864,430.746 296.95138,434.1383 297.76013,438.55874 C 292.20563,439.02164 291.13244,433.76812 289.95581,429.71783 C 288.66544,425.27699 281.23575,426.16891 278.77421,422.87897 L 278.77421,422.87897 z "
         id="_67967288" />
      <path
         d="M 322.97638,484.83215 C 324.4075,480.75145 327.34878,481.08853 328.97013,474.69487 C 334.03236,478.99068 334.1204,489.37881 332.10805,496.28424 C 331.03582,499.96358 323.77678,502.89223 323.97601,509.58563 C 319.59105,506.0729 318.7984,502.84144 319.35458,498.6072 C 320.10001,492.92696 326.61558,489.64776 322.97638,484.83212 L 322.97638,484.83215 z "
         id="_48716592" />
    </g>
    <path
       d="M 283.7234,428.13797 C 286.78294,426.47061 289.84249,424.80324 292.90201,423.13588 C 295.96153,421.46852 299.02115,419.80116 302.84554,420.63484 C 306.66995,421.46852 311.25923,424.80324 312.78901,426.47061 C 314.31884,428.13797 312.78901,428.13797 308.9646,428.97165 C 305.14019,429.80533 296.75184,432.3455 290.6327,434.01287"
       style="fill:#d40000;stroke:#eeeeee"
       id="Horse-ear-left" />
    <g
       style="fill:#ffcd50;stroke:#eeeeee"
       id="Horse-tack">
      <path
         d="M 334.20582,518.17553 C 323.49741,519.84289 312.78901,521.51025 301.31578,524.84498 C 289.84249,528.1797 277.60433,533.18179 271.48524,536.51652 C 265.36617,539.85124 265.36617,541.5186 266.13106,543.18597 C 266.89593,544.85333 268.4257,546.52069 270.72037,546.52069 C 273.01502,546.52069 276.07455,544.85333 278.3692,545.68701 C 280.66387,546.52069 282.19363,549.85542 284.48829,550.6891 C 286.78294,551.52278 289.84249,549.85542 290.60738,547.35437 C 291.37225,544.85333 289.84249,541.5186 291.37225,539.01756 C 292.90201,536.51652 297.49131,534.84915 300.55091,535.68283 C 303.61043,536.51652 305.14019,539.85124 307.43484,540.68492 C 309.72947,541.5186 312.78901,539.85124 314.31884,537.3502 C 315.8486,534.84915 315.8486,531.51443 319.67301,529.01338 C 323.49741,526.51234 331.1463,524.84498 338.7951,523.17762"
         id="zaum1-1" />
      <path
         d="M 366.33098,478.15884 C 358.6821,481.49357 351.03328,484.82829 340.32487,488.16302 C 329.61654,491.49774 315.8486,494.83247 303.61043,496.49982 C 291.37225,498.16718 280.66387,498.16718 273.7799,499.00087 C 266.89593,499.83454 263.83639,501.5019 263.07152,500.66824 C 262.30663,499.83454 263.83639,496.49982 264.60128,491.49774 C 265.36617,486.49566 265.36617,479.82621 264.60128,474.82412 C 263.83639,469.82203 262.30663,466.48731 260.01197,462.3189 C 257.71732,458.15049 254.65778,453.14841 252.36312,450.64736 C 250.06847,448.14632 248.53869,448.14632 247.77382,448.98 C 247.00893,449.81368 247.00893,451.48104 248.53869,453.98209 C 250.06847,456.48313 253.12801,459.81786 255.42267,463.98626 C 257.71732,468.15467 259.24708,473.15676 260.01197,477.32516 C 260.77686,481.49357 260.77686,484.82829 260.01197,488.9967 C 259.24708,493.16511 257.71732,498.16718 256.95243,501.5019 C 256.18754,504.83663 256.18754,506.50399 256.95243,508.17135 C 257.71732,509.83872 259.24708,511.50608 263.07152,512.33977 C 266.89593,513.17344 273.01502,513.17344 282.95853,511.50608 C 292.90201,509.83872 306.66995,506.50399 318.14324,503.16927 C 329.61654,499.83454 338.7951,496.49982 347.20887,492.33142 C 355.62256,488.16302 363.27146,483.16093 370.92026,478.15884"
         id="zaum1-4" />
      <path
         d="M 265.36617,473.15676 C 269.95548,473.15676 274.54478,473.15676 278.3692,471.48939 C 282.19363,469.82203 285.25318,466.48731 287.54783,463.15258 C 289.84249,459.81786 291.37225,456.48313 290.60738,451.48104 C 289.84249,446.47896 286.78294,439.80951 283.7234,436.47478 C 280.66387,433.14006 277.60433,433.14006 274.54478,433.97374 C 271.48524,434.80742 268.4257,436.47478 266.13106,437.30846 C 263.83639,438.14214 262.30663,438.14214 262.30663,437.30846 C 262.30663,436.47478 263.83639,434.80742 266.89593,433.14006 C 269.95548,431.47269 274.54478,429.80533 278.3692,428.97165 C 282.19363,428.13797 285.25318,428.13797 287.54783,431.47269 C 289.84249,434.80742 291.37225,441.47687 292.13714,446.47896 C 292.90201,451.48104 292.90201,454.81577 292.4941,457.70586 C 292.13714,460.65154 291.37225,463.15258 289.84249,465.65362 C 288.31271,468.15467 286.01807,470.65571 284.13134,472.71211 C 282.19363,474.82412 280.66387,476.49148 277.60433,477.32516 C 274.54478,478.15884 269.95548,478.15884 265.36617,478.15884"
         id="zaum1-6" />
      <path
         d="M 266.48799,476.49148 C 266.48799,473.72891 264.43329,471.48939 261.89868,471.48939 C 259.36408,471.48939 257.30938,473.72891 257.30938,476.49148 C 257.30938,479.25405 259.36408,481.49357 261.89868,481.49357 C 264.43329,481.49357 266.48799,479.25405 266.48799,476.49148 z "
         id="zaum2-1" />
      <path
         d="M 412.53004,510.17219 C 412.42806,511.17262 412.32603,512.17303 413.03998,516.00796 C 413.75383,519.84289 415.28361,526.51234 415.28361,536.51652 C 415.28361,546.52069 413.75383,559.85959 413.75383,568.1964 C 413.75383,576.53321 415.28361,579.86794 418.34313,580.70162 C 421.40273,581.5353 425.99201,579.86794 427.52177,578.20058 C 429.05153,576.53321 427.52177,574.86585 425.99201,572.36481 C 424.46225,569.86376 422.93249,566.52904 422.1676,560.69327 C 421.40273,554.8575 421.40273,546.52069 421.40273,538.18388 C 421.40273,529.84707 421.40273,521.51025 421.3859,516.91556 C 421.36853,512.32142 421.33489,511.46884 421.30069,510.61682"
         id="zaum1-2" />
      <path
         d="M 424.36021,511.83955 C 424.90435,512.28418 425.44788,512.72881 427.25001,516.28586 C 429.05153,519.84289 432.11107,526.51234 433.64083,535.68283 C 435.17059,544.85333 435.17059,556.52487 435.93554,564.028 C 436.70042,571.53113 438.23019,574.86585 441.28971,576.53321 C 444.34923,578.20058 448.93853,578.20058 450.46829,577.3669 C 451.99812,576.53321 450.46829,574.86585 448.93853,571.53113 C 447.40876,568.1964 445.879,563.19431 445.11412,556.52487 C 444.34923,549.85542 444.34923,541.5186 442.05459,534.01547 C 439.75995,526.51234 435.17059,519.84289 430.58131,513.17344"
         id="zaum1-3" />
      <path
         d="M 462.70646,545.68701 C 462.70646,544.85333 462.70646,544.01965 462.70646,543.18597 C 462.70646,542.35228 462.70646,541.5186 462.29854,540.68492 C 461.94157,539.85124 461.1767,539.01756 459.64694,539.01756 C 458.11717,539.01756 455.82253,539.85124 453.1199,540.68492 C 450.46829,541.5186 447.40876,542.35228 442.05459,542.74134 C 436.70042,543.18597 429.05153,543.18597 421.40273,543.18597 C 413.75383,543.18597 406.10503,543.18597 399.22102,542.35228 C 392.33709,541.5186 386.21797,539.85124 382.39356,539.01756 C 378.56916,538.18388 377.03939,538.18388 376.27451,539.85124 C 375.50963,541.5186 375.50963,544.85333 376.27451,546.52069 C 377.03939,548.18805 378.56916,548.18805 382.39356,549.02173 C 386.21797,549.85542 392.33709,551.52278 402.28054,552.35646 C 412.22407,553.19014 425.99201,553.19014 436.70042,552.35646 C 447.40876,551.52278 455.05764,549.85542 458.88205,548.63268 C 462.70646,547.35437 462.70646,546.52069 462.70646,545.68701 z "
         id="zaum1-5" />
      <path
         d="M 422.62654,547.85458 C 422.62654,545.09201 420.57184,542.85249 418.03717,542.85249 C 415.50259,542.85249 413.44788,545.09201 413.44788,547.85458 C 413.44788,550.61715 415.50259,552.85666 418.03717,552.85666 C 420.57184,552.85666 422.62654,550.61715 422.62654,547.85458 L 422.62654,547.85458 z "
         id="zaum2-2" />
      <path
         d="M 444.4512,547.07647 C 444.4512,544.3139 442.3965,542.07439 439.8619,542.07439 C 437.32732,542.07439 435.27262,544.3139 435.27262,547.07647 C 435.27262,549.83904 437.32732,552.07856 439.8619,552.07856 C 442.3965,552.07856 444.4512,549.83904 444.4512,547.07647 z "
         id="zaum2-3" />
      <path
         d="M 335.73558,501.5019 C 334.20582,504.83663 334.20582,511.50608 333.44093,518.17553 C 332.67606,524.84498 331.1463,531.51443 331.1463,537.3502 C 331.1463,543.18597 332.67606,548.18805 337.26534,553.19014 C 341.85464,558.19223 349.50352,563.19431 355.62256,565.69536 C 361.7417,568.1964 366.33098,568.1964 370.92026,566.52904 C 375.50963,564.86168 380.09892,561.52695 382.39356,555.69118 C 384.6882,549.85542 384.6882,541.5186 385.45309,535.68283 C 386.21797,529.84707 387.74773,526.51234 389.2775,521.51025 C 390.80733,516.50817 392.33709,509.83872 391.5722,506.50399 C 390.80733,503.16927 387.74773,503.16927 384.6882,504.00296 C 381.62868,504.83663 378.56916,506.50399 372.45004,506.50399 C 366.33098,506.50399 357.15234,504.83663 351.79817,503.16927 C 346.444,501.5019 344.91424,499.83454 342.61951,499.00087 C 340.32487,498.16718 337.26534,498.16718 335.73558,501.5019 z "
         id="sattel1-1" />
      <path
         d="M 388.51261,498.61182 C 386.21797,498.16718 383.15844,498.16718 382.39356,500.66824 C 381.62868,503.16927 383.15844,508.17135 385.45309,510.67241 C 387.74773,513.17344 390.80733,513.17344 390.80733,515.6745 C 390.80733,518.17553 387.74773,523.17762 386.98285,526.51234 C 386.21797,529.84707 387.74773,531.51443 390.04244,530.68075 C 392.33709,529.84707 395.39661,526.51234 398.45613,521.51025 C 401.51567,516.50817 404.57519,509.83872 404.57519,504.83663 C 404.57519,499.83454 401.51567,496.49982 399.22102,496.05519 C 396.92637,495.66615 395.39661,498.16718 393.86685,499.00087 C 392.33709,499.83454 390.80733,499.00087 388.51261,498.61182 z "
         id="sattel2-1" />
    </g>
    <g
       style="fill:none;stroke:#eeeeee;stroke-width:0.60000002"
       id="Knight-plume">
      <path
         d="M 357.90445,395.36158 C 360.83352,395.01936 363.83054,397.10641 366.37165,400.25296 L 366.49079,400.74596 L 393.62597,395.53019 C 402.43828,402.66825 405.80153,396.81051 407.10614,389.28732 C 408.43314,381.63507 404.68146,379.30171 398.27364,378.54794 C 391.28705,377.7261 388.44747,379.99386 381.84831,383.26506 C 376.05898,386.13482 370.524,388.62055 367.10465,392.99642 C 373.20018,385.93729 382.76348,379.43751 386.6046,372.01473 C 387.03029,375.97437 398.56608,373.80079 399.13782,367.93191 C 399.73972,361.75348 395.79893,359.40379 390.41855,358.77588 C 388.26013,358.52398 385.87003,358.54918 383.4486,358.71543 C 381.43891,357.3521 378.94649,356.61238 376.31175,356.84092 C 368.31073,357.53495 358.99727,367.15808 357.90445,395.36158 z "
         style="fill:#003d8f"
         id="path3000" />
      <path
         d="M 392.3634,366.54851 C 392.9653,360.37008 388.59139,362.02015 390.41855,358.77588"
         id="path4653" />
      <path
         d="M 376.31175,356.84092 C 377.06045,359.81834 377.93521,361.49216 378.8886,363.86386"
         id="path4665" />
      <path
         d="M 362.66204,391.50671 C 366.93221,383.66618 368.10611,375.72551 374.02877,370.03612 C 379.56405,364.49415 379.61988,360.84572 383.4486,358.71543"
         id="path4655" />
      <path
         d="M 364.02847,393.66298 C 370.22347,383.95473 376.33627,374.15324 384.85574,367.08165"
         id="path4669" />
      <path
         d="M 382.83474,366.46497 C 387.74209,366.77205 383.92778,370.90469 386.6046,372.01473"
         id="path4657" />
      <path
         d="M 400.74507,387.97059 C 398.88154,385.58985 400.81911,380.58302 398.27364,378.54794"
         id="path4661" />
      <path
         d="M 360.69788,391.96301 C 363.9854,381.83476 367.11994,372.84458 373.09736,363.73158"
         id="path4671" />
      <path
         d="M 372.78816,362.90859 C 375.55027,364.41748 371.65906,368.15936 374.02877,370.03612"
         id="path4663" />
      <path
         d="M 367.2438,394.76299 C 375.67537,391.57353 384.1189,387.58942 392.49508,388.0806"
         id="path4667" />
      <path
         d="M 393.62597,395.53019 C 389.89731,390.22354 394.95299,383.05713 391.25542,381.84643"
         id="path4659" />
    </g>
    <g
       style="fill:#003d8f;stroke:#eeeeee"
       id="Knight-main_body">
      <g
         id="Knight-leg">
        <path
           d="M 386.00374,514.27055 C 376.80724,525.82853 355.12164,526.06314 344.57085,533.55202 C 341.19852,533.06483 338.60508,533.47082 336.73751,534.42723 L 331.53291,529.43764 L 356.61742,514.20744 L 361.99019,511.86145 C 370.14218,513.1878 378.11725,513.9999 386.00374,514.27055 z "
           id="path7439" />
        <path
           d="M 354.03296,597.58588 L 356.29004,593.39941 C 341.97741,579.93759 349.33291,569.75099 345.81885,562.46055 L 342.31377,550.7221 C 337.57438,549.07115 334.46102,545.83279 333.21471,541.23933 L 331.70109,542.13263 C 338.05637,559.20343 339.72033,571.51039 343.63263,588.96024 C 345.94286,591.40539 348.51858,592.65042 350.35072,596.29557"
           id="path7441" />
        <path
           d="M 320.59278,548.62893 C 325.74418,564.46368 339.86206,584.77364 337.47211,590.81892 C 331.25856,596.043 336.23297,600.15738 314.75096,604.04612 C 321.79657,605.57091 327.74463,607.87163 334.56889,608.45823 C 340.04783,607.11379 351.19162,599.12875 360.38812,599.26408 C 358.90993,597.56779 351.82005,598.00097 350.34186,596.30468 C 348.50973,592.65042 345.934,591.42335 343.62378,588.96922 C 339.71147,571.51937 338.03866,559.20343 331.69224,542.14161 L 320.59278,548.62893 z "
           id="path7443" />
        <path
           d="M 323.18618,521.4526 L 341.64117,503.63281 C 341.79164,503.82227 341.9421,504.01173 342.10142,504.20132 C 342.65013,504.57114 343.19896,504.92312 343.74779,505.27497 L 356.61742,514.19834 L 331.53291,529.42866 L 323.18618,521.4526 z "
           id="path7451" />
        <path
           d="M 314.19332,533.5701 C 314.10481,539.77765 315.97241,544.98364 318.734,549.72054 L 333.21471,541.24831 C 333.14264,540.16362 333.58561,538.42185 333.85421,537.36848"
           id="path7437" />
        <path
           d="M 336.73751,534.41825 L 323.04457,521.31727 C 317.7338,525.06171 314.08708,529.02255 312.89217,533.26327 L 333.50678,538.00017 C 334.02018,536.5204 335.09114,535.25729 336.73751,534.41825 z "
           id="path7435" />
        <path
           d="M 346.89879,533.99405 C 344.30535,539.80472 343.13695,545.43478 342.95991,550.93862 C 329.0988,546.707 329.46173,529.84363 346.89879,533.99405 z "
           id="path7433" />
      </g>
      <path
         d="M 352.28983,395.56088 C 349.61691,399.70722 346.16649,404.73871 347.54072,407.61705 C 348.77994,407.57837 346.55702,406.4966 350.63023,408.12497 C 348.91702,408.51563 349.05867,408.86679 347.34546,407.98784 C 345.20618,410.75936 342.33404,411.18544 342.41294,412.71326 C 342.49184,414.24108 346.35332,413.46076 346.35332,413.46076 L 343.76782,413.77639 L 343.99094,415.54392 C 343.02668,416.44536 343.80122,416.91209 344.23335,417.46443 L 346.41838,417.14093 L 344.24233,417.32389 C 344.05018,418.1363 343.41221,419.05704 344.65233,420.18189 C 347.68741,427.45603 352.52014,424.93113 358.36525,421.24999 C 360.99356,419.06658 385.92384,413.24063 352.28983,395.56088 z "
         style="fill:#eebb99;stroke-width:0.5"
         id="Knight-face" />
      <g
         id="Knight-head">
        <path
           d="M 371.64694,436.04398 C 371.01851,434.28458 369.46072,429.6108 369.73508,427.34612 C 369.98285,423.56564 375.01927,421.68899 376.7365,417.5115 C 383.4723,397.3007 359.09583,385.81481 345.872,399.40297 C 350.87298,402.68717 356.1573,406.25112 361.10513,409.48131 C 360.32173,415.4666 361.71716,414.01696 360.09605,414.97605 L 359.4499,417.52946 L 350.67822,425.55067 C 352.03252,426.49798 353.54614,427.45451 355.23667,428.38373 C 355.17467,431.30709 354.21873,435.36733 354.34275,438.80494 C 360.20439,437.31277 365.93811,437.62787 371.64694,436.04398"
           id="path7401" />
        <path
           d="M 364.30928,408.17305 C 363.21162,407.97448 362.04334,408.5158 361.08741,409.53544 C 359.60927,411.28131 359.17803,412.94853 359.09583,414.95809 C 359.35584,416.82172 359.80911,418.04462 361.59183,418.7927 C 363.58341,419.15354 365.82277,417.06934 366.56623,414.13701 C 367.31868,411.23173 366.3096,408.54299 364.30928,408.17305 z "
           id="path7403" />
        <path
           d="M 364.22957,409.73792 C 364.22957,409.73792 355.57653,390.16118 355.57653,390.16118 C 349.92938,390.98489 346.0113,395.32808 342.8833,399.82542 L 361.32622,412.40625 C 361.66658,411.40714 361.85708,410.40409 364.22957,409.73792 z "
           id="path7409" />
        <path
           d="M 361.88804,414.99515 C 355.69312,416.41875 348.92698,417.9291 342.72584,419.36366 C 345.25377,423.97788 350.68927,425.76575 354.67368,428.50118 L 361.88741,417.62689 L 361.88804,414.99515 z "
           id="path7411" />
        <path
           d="M 363.99949,409.77904 C 362.95498,409.49029 361.68041,410.91593 361.15815,412.95497 C 360.62716,414.99413 361.04312,416.8618 362.08751,417.15054 C 363.13202,417.43031 364.40659,416.01365 364.93771,413.97461 C 365.45984,411.93545 365.04388,410.0588 363.99949,409.77904 z "
           id="path7453" />
      </g>
      <g
         id="Knight-chest">
        <path
           d="M 342.83603,456.57958 L 344.03986,476.17685 L 348.07593,477.71973 L 348.64247,476.71817 C 345.81885,469.41888 344.27878,461.99324 344.74789,455.46988 C 344.10174,455.78556 343.4556,456.1555 342.83603,456.57958 z "
           id="path7449" />
        <path
           d="M 344.74789,455.46077 C 343.86282,455.91191 342.98649,456.43527 342.15445,457.06689 C 341.51716,442.53129 348.54516,436.81093 354.59939,438.72374 C 354.36212,438.81674 354.12856,438.93637 353.90009,439.03955 C 347.98747,442.65764 345.24357,448.54938 344.74789,455.46077 z "
           id="path7423" />
        <path
           d="M 376.29384,472.49565 C 375.27591,472.96475 374.26695,473.68654 373.38176,474.63397 C 372.4967,475.5814 371.85055,476.64607 371.45218,477.70164 L 353.09462,478.80248 L 353.03274,479.61446 L 347.1024,477.3408 L 348.65133,476.70919 C 345.78732,469.96964 344.74303,462.51926 344.66829,455.50592 C 345.19052,448.4383 348.33224,443.3084 353.86478,439.03057 C 354.0892,438.91933 354.33211,438.81949 354.56395,438.71477 C 361.42377,435.91776 362.91069,436.45009 371.00965,436.19739"
           id="path2887" />
        <path
           d="M 389.14588,494.33951 L 384.26005,494.59208 L 383.4899,493.11244 L 355.5376,489.71088 L 349.77544,488.36645 L 347.63339,489.87328 L 341.0392,489.11531 C 339.33981,490.8116 337.80847,492.72442 336.24183,494.60119 C 338.05637,498.29137 339.92394,501.5576 342.10142,504.2103 C 342.65013,504.58024 343.19896,504.9321 343.75652,505.28395 C 344.31408,505.6358 352.00594,510.26456 361.99019,511.87055 C 371.97444,513.47654 381.70205,514.36073 391.29679,514.36984 C 391.94293,507.44036 391.18176,500.86287 389.14588,494.33951"
           id="path7447" />
        <path
           d="M 348.74865,490.80262 L 342.22531,509.70504 L 362.26455,515.96684 L 361.54766,505.17569 L 356.53782,495.76502 L 355.5376,489.70178 L 352.28042,489.31387 L 352.50163,486.44465 L 349.77544,488.36645 L 348.74865,490.80262 z "
           id="path7431" />
      </g>
      <g
         id="Knight-arm-left">
        <path
           d="M 388.81823,450.21898 C 381.68418,448.4506 371.30157,450.28209 364.8224,457.07624 C 356.29875,432.61572 383.58719,427.72554 388.81823,450.21898 z "
           id="path7413" />
        <path
           d="M 382.21517,473.73207 L 394.82829,474.89602 L 397.72266,489.64801 L 382.25946,478.18021 C 382.85246,476.55614 382.86132,474.93207 382.21517,473.73207 z "
           id="path7417" />
        <path
           d="M 386.39297,449.76784 L 393.43868,474.76967 L 382.22403,473.74105 C 382.05585,473.42524 381.8435,473.1456 381.58674,472.89303 C 380.32103,471.67494 378.29414,471.60272 376.30255,472.505 L 367.16806,454.95587 C 372.8329,450.52581 380.35646,449.01 386.39297,449.76784 z "
           id="path7419" />
        <path
           d="M 371.46089,477.71112 L 353.09447,478.81183 L 352.28027,489.31424 L 383.48975,493.10371 C 380.08347,471.64275 368.69951,487.29428 371.46089,477.71112"
           id="path7427" />
        <path
           d="M 382.28604,478.1171 L 393.54486,494.11425 L 384.26876,494.58347 L 378.22327,483.02537 C 378.958,482.58334 379.66602,482.02394 380.30331,481.3292 C 381.22393,480.33662 381.88767,479.22693 382.28604,478.1171 z "
           id="path7421" />
        <path
           d="M 395.57175,488.05101 L 392.32343,492.38191 L 382.39221,478.27052 L 395.57175,488.05101 M 380.58652,481.0134 C 380.59538,480.99531 380.60424,480.98633 380.62195,480.96824 C 380.60424,480.98633 380.59538,480.99531 380.58652,481.0134"
           id="path7425" />
        <path
           d="M 381.58674,472.88392 C 379.67488,471.04332 376.01048,471.82823 373.39047,474.64332 C 370.77058,477.45842 370.20403,481.22992 372.11589,483.08861 C 374.0189,484.93819 377.69228,484.14417 380.31217,481.3292 C 382.91447,478.50513 383.48975,474.73363 381.58674,472.88392 z "
           id="path7415" />
      </g>
      <path
         d="M 353.03259,479.62381 L 343.70335,476.05087 L 340.86201,477.39531 L 340.97716,479.23591 L 339.21577,479.92166 L 338.80854,482.37579 L 337.43665,483.57579 L 337.68443,485.19987 L 336.18853,486.49915 L 337.15344,488.67365 L 347.63324,489.87365 L 352.51034,486.44502 L 353.03259,479.62381 z "
         id="Knight-hand" />
    </g>
    <path
       d="M 323.3955,560.0496 C 329.43756,573.42359 335.47953,586.79758 339.26058,594.32265 C 343.04163,601.84772 344.56182,603.52388 347.61167,605.20887 C 350.66152,606.89386 355.2411,608.58768 358.29578,609.43902 C 361.3505,610.29032 362.88024,610.29915 364.40998,610.30798 L 364.46771,600.30397 C 362.93797,600.29514 361.40823,600.28632 358.34869,600.26866 C 355.28921,600.25101 350.7,600.22452 347.65015,598.53953 C 344.60031,596.85454 343.08974,593.51105 340.81918,589.32949 C 338.54862,585.1479 335.51801,580.12824 332.48741,575.10858"
       style="fill:#ffcd50;stroke:#eeeeee"
       id="Horse-stirrup" />
    <g
       style="fill:#ffcd50;stroke:#eeeeee"
       id="Horse-hoofs">
      <path
         d="M 300.03125,668.625 C 299.64548,668.14349 299.29215,667.61921 298.84375,667.21875 C 298.13109,666.58229 297.36401,666.04389 296.53125,665.5625 C 294.86573,664.59973 292.99032,663.89569 291.125,663.1875 C 289.25968,662.47931 287.40972,661.785 285.71875,660.84375 C 284.87327,660.37312 284.0755,659.83907 283.34375,659.21875 C 282.67311,658.65023 282.06871,657.99333 281.53125,657.25 C 278.25839,662.18185 274.78586,667.02405 272.0625,671.8125 C 266.13913,687.18866 290.00448,676.86329 297.625,676.40625 C 298.93448,673.9427 299.5399,671.30474 300.03125,668.625 z "
         id="Horse-hoof-front-left" />
      <path
         d="M 273.6875,619.46875 C 272.76022,621.04752 271.79642,622.64175 270.71875,624.1875 C 269.61931,625.76448 268.41404,627.29353 267.09375,628.6875 C 265.77346,630.08147 264.32485,631.34544 262.71875,632.40625 C 261.26553,633.36609 259.64411,634.08622 257.90625,634.65625 C 260.26766,637.67283 262.66637,640.67771 264.8125,643.75 C 278.82473,655.64259 279.73139,626.55194 274.09375,619.75 C 273.96584,619.67229 273.81666,619.55032 273.6875,619.46875 z "
         id="Horse-hoof-front-right" />
      <path
         d="M 376.84375,656.75 C 376.61066,655.69243 376.30989,654.73902 375.84375,654.03125 C 375.29813,653.2028 374.59868,652.57209 373.8125,652.09375 C 373.02632,651.61541 372.12932,651.26755 371.1875,651 C 370.24568,650.73245 369.26255,650.5398 368.25,650.34375 C 367.23745,650.1477 366.2171,649.95136 365.21875,649.6875 C 364.2204,649.42364 363.24299,649.09598 362.34375,648.625 C 361.44451,648.15402 360.62145,647.53616 359.90625,646.71875 C 359.36908,646.10481 358.95391,645.25316 358.5625,644.375 C 357.19987,646.74479 355.9835,649.2051 355.15625,651.90625 C 351.12275,660.37187 352.29708,668.12948 363.625,664.8125 C 370.15582,664.57617 373.89089,661.17912 376.84375,656.75 z "
         id="Horse-hoof-back-right" />
      <path
         d="M 430.90625,667.4375 C 429.50442,666.65625 428.14266,665.80846 426.84375,664.90625 C 425.34258,663.86356 423.87512,662.78241 422.375,661.75 C 420.87488,660.71759 419.36412,659.74412 417.71875,658.90625 C 416.38136,658.22521 414.89595,657.72342 413.375,657.28125 C 411.38641,660.32965 409.47659,663.4295 407.75,666.6875 C 395.5775,681.24262 424.69379,679.52255 430.53125,672.0625 C 430.3826,670.25637 430.57382,668.78418 430.90625,667.4375 z "
         id="Horse-hoof-back-left" />
    </g>
  </g>
  <path
     d="M 249.55062,1.4395041 L 1.449569,1.4395041 L 1.449569,174.9361 C 0.68232904,268.65698 81.739009,302.75585 125.5001,302.75585 C 168.49395,302.75585 250.31785,268.65698 249.55062,174.9361 L 249.55062,1.4395041 z "
     style="fill:none;fill-opacity:0;stroke:#000000;stroke-width:1.88832211;stroke-linejoin:bevel"
     id="Frame" />
</svg>
