<?xml version="1.0" encoding="UTF-8" standalone="no"?>
<!-- Created with Inkscape (http://www.inkscape.org/) -->
<svg
   xmlns:dc="http://purl.org/dc/elements/1.1/"
   xmlns:cc="http://web.resource.org/cc/"
   xmlns:rdf="http://www.w3.org/1999/02/22-rdf-syntax-ns#"
   xmlns:svg="http://www.w3.org/2000/svg"
   xmlns="http://www.w3.org/2000/svg"
   xmlns:xlink="http://www.w3.org/1999/xlink"
   version="1.0"
   width="251"
   height="304.20001"
   id="svg4166">
  <defs
     id="defs4168" />
  <metadata
     id="metadata1880"><rdf:RDF><cc:Work
         rdf:about=""><dc:title>Degerfors kommunvapen</dc:title><dc:date>13-12-2006</dc:date><dc:creator><cc:Agent><dc:title>Lokal_Profil</dc:title></cc:Agent></dc:creator><cc:license
         rdf:resource="http://creativecommons.org/licenses/by-sa/2.5/" /><dc:rights><cc:Agent><dc:title>cc-by-sa-2.5</dc:title></cc:Agent></dc:rights><dc:format>image/svg+xml</dc:format><dc:type
         rdf:resource="http://purl.org/dc/dcmitype/StillImage" /></cc:Work><cc:License
         rdf:about="http://creativecommons.org/licenses/by-sa/2.5/"><cc:permits
         rdf:resource="http://web.resource.org/cc/Reproduction" /><cc:permits
         rdf:resource="http://web.resource.org/cc/Distribution" /><cc:requires
         rdf:resource="http://web.resource.org/cc/Notice" /><cc:requires
         rdf:resource="http://web.resource.org/cc/Attribution" /><cc:permits
         rdf:resource="http://web.resource.org/cc/DerivativeWorks" /><cc:requires
         rdf:resource="http://web.resource.org/cc/ShareAlike" /></cc:License></rdf:RDF>
  </metadata>
  <path
     d="M 249.55058,1.4395041 L 1.4495291,1.4395041 L 1.4495291,174.9361 C 0.68228908,268.65698 81.738969,302.75585 125.50006,302.75585 C 168.49391,302.75585 250.31781,268.65698 249.55058,174.9361 L 249.55058,1.4395041 z "
     style="fill:#eeeeee;fill-opacity:1;stroke:none"
     id="Shield" />
  <path
     d="M 1.423,1.3914892 L 1.423,48.281194 C 10.992644,52.923296 23.385168,60.322411 32.401466,70.694472 C 49.195105,90.013352 37.395912,100.26593 54.189549,119.58481 C 70.983201,138.90368 82.785121,128.64985 99.578781,147.96871 C 116.37243,167.28759 104.57323,177.54017 121.36686,196.85904 C 138.16051,216.17792 149.96244,205.92406 166.7561,225.24295 C 183.54975,244.56184 188.51294,274.13328 188.51293,274.13328 C 188.51293,274.13328 190.18522,277.46138 192.8893,282.04201 C 213.62418,269.00271 232.33225,249.29544 242.21727,221.46051 C 229.65515,204.36572 239.00681,194.20126 223.27383,176.10253 C 206.48018,156.78364 194.67824,167.03751 177.88459,147.71863 C 161.09095,128.39977 172.89017,118.14718 156.09651,98.828302 C 139.30286,79.509402 127.50091,89.763262 110.70727,70.444392 C 93.913611,51.125496 105.74408,40.872946 88.950451,21.554061 C 75.354051,5.9132012 65.009631,9.6489682 52.657819,1.3914892 L 1.423,1.3914892 z "
     style="fill:#003d8f;fill-opacity:1;stroke:none"
     id="Stream" />
  <g
     style="fill:none;stroke:#eeeeee;stroke-width:5.19343138"
     id="Mars-Symbol">
    <path
       d="M 147.10829,101.7772 L 130.98474,117.81133"
       id="path26867" />
    <path
       d="M 130.79532,144.59297 C 123.47939,151.86834 111.62254,151.87293 104.3123,144.60323 C 97.002068,137.33353 97.006686,125.54243 104.32262,118.26707 C 111.63855,110.9917 123.4954,110.98711 130.80564,118.25681 C 138.11587,125.5265 138.11125,137.31761 130.79532,144.59297 L 130.79532,144.59297 z "
       id="path26871" />
    <path
       d="M 133.18263,101.94749 C 146.92065,101.94749 146.92065,101.94749 146.92065,101.94749 L 146.92065,115.60932"
       id="path27759" />
  </g>
  <path
     d="M 193.3761,180.77611 C 186.38886,181.32908 180.29792,185.06641 176.55029,190.53799 L 191.95623,199.43226 C 192.37667,199.07859 192.85476,198.79621 193.3761,198.59501 L 193.3761,180.77611 z M 196.98639,180.77611 L 196.98639,198.60108 C 197.5056,198.80216 197.98727,199.07983 198.40624,199.43226 L 213.81219,190.53799 C 210.06454,185.06641 203.97361,181.32908 196.98639,180.77611 z M 174.7603,193.66251 C 173.38457,196.57838 172.61233,199.83064 172.61233,203.26664 C 172.61233,206.76687 173.40861,210.0833 174.83312,213.04062 L 190.24514,204.14028 C 190.19543,203.8572 190.16626,203.56995 190.16626,203.2727 C 190.16626,203.04297 190.18482,202.81474 190.2148,202.5932 L 174.7603,193.66251 z M 215.60216,193.66251 L 200.14767,202.58713 C 200.17819,202.8106 200.19014,203.04089 200.19014,203.2727 C 200.19014,203.5722 200.16172,203.86126 200.11126,204.14635 L 215.52935,213.04062 C 216.95388,210.0833 217.75012,206.76688 217.75014,203.26664 C 217.75014,199.83064 216.9779,196.57838 215.60216,193.66251 z M 192.114,207.22841 L 176.6595,216.15302 C 180.41553,221.54036 186.45484,225.21547 193.3761,225.76321 L 193.3761,207.94431 C 192.91856,207.76766 192.49538,207.52409 192.114,207.22841 z M 198.24847,207.22841 C 197.86743,207.52421 197.44356,207.7674 196.98639,207.94431 L 196.98639,225.76321 C 203.90761,225.21547 209.94694,221.54038 213.70297,216.15302 L 198.24847,207.22841 z M 186.55864,176.53489 L 185.52413,176.89017 L 184.52207,177.31503 L 183.44042,174.99567 L 182.17082,175.57352 L 180.99323,176.13669 L 178.72535,177.42 L 177.54847,178.16637 L 176.47364,178.9499 L 177.93418,181.022 L 177.0565,181.71358 L 176.24145,182.41832 L 174.32284,184.32942 L 173.59046,185.15091 L 172.91453,186.00258 L 170.80209,184.53091 L 169.99929,185.62526 L 169.25832,186.76137 L 167.95883,189.06145 L 167.35314,190.27569 L 166.81547,191.51466 L 169.19552,192.62155 L 168.79012,193.62943 L 168.45274,194.66207 L 167.72293,197.27541 L 167.4822,198.3336 L 167.31489,199.42813 L 164.66477,199.19544 L 164.47961,200.52419 L 164.39648,201.89009 L 164.364,204.54537 L 164.44787,205.87574 L 164.60518,207.24248 L 167.29099,207.00672 L 167.46772,208.08204 L 167.69006,209.16431 L 168.43224,211.7549 L 168.77674,212.7661 L 169.18927,213.80204 L 166.70728,214.95929 L 167.32148,216.36713 L 167.82524,217.41702 L 169.14113,219.75421 L 169.48655,220.3132 L 169.86597,220.88458 L 170.67121,222.00568 L 172.93067,220.40157 L 173.61151,221.25595 L 174.32716,222.09411 L 176.23847,224.01251 L 177.03223,224.71541 L 177.92418,225.38665 L 176.30308,227.72375 L 177.36354,228.51409 L 178.52219,229.27275 L 180.83956,230.57828 L 182.04851,231.17231 L 183.32164,231.72229 L 184.52071,229.11605 L 185.5179,229.49821 L 186.56147,229.85874 L 189.18671,230.58306 L 190.2396,230.81218 L 191.32807,230.99647 L 191.0775,233.8805 L 192.39558,234.04245 L 193.77244,234.14876 L 196.46282,234.16501 L 197.78795,234.06955 L 199.17183,233.91846 L 198.90752,231.02036 L 199.96594,230.83746 L 201.06535,230.62134 L 203.67942,229.86843 L 204.69072,229.52397 L 205.70361,229.1223 L 206.92587,231.74316 L 208.1197,231.21478 L 209.37307,230.60215 L 211.72213,229.28099 L 211.98505,229.08782 L 212.26496,228.90084 L 212.8418,228.53305 L 213.39082,228.13588 L 213.94524,227.75032 L 212.30389,225.38133 L 213.98501,223.99039 L 215.89203,222.08472 L 216.59657,221.23384 L 217.28952,220.38836 L 219.62611,222.03788 L 220.40648,220.92575 L 220.76537,220.3631 L 221.14745,219.78964 L 222.45931,217.45554 L 222.71075,216.84415 L 222.84536,216.52728 L 223.0024,216.22816 L 223.56326,214.97836 L 221.00852,213.7694 L 221.39072,212.77232 L 221.76211,211.75206 L 222.48651,209.12713 L 222.57017,208.57986 L 222.62901,208.31242 L 222.70485,208.05116 L 222.78231,207.5209 L 222.87678,206.99683 L 225.65831,207.23883 L 225.80405,205.88611 L 225.898,204.54341 L 225.89647,201.87574 L 225.82942,201.18698 L 225.78476,200.51599 L 225.64368,199.18404 L 222.92386,199.40742 L 222.73013,198.32592 L 222.53561,197.27302 L 221.78262,194.65925 L 221.40409,193.63567 L 221.02558,192.61209 L 223.44957,191.4819 L 222.96905,190.42118 L 222.30844,189.03496 L 220.99099,186.75497 L 220.22674,185.60064 L 219.44932,184.50892 L 217.28419,186.01255 L 215.89852,184.34322 L 213.98721,182.42482 L 213.15402,181.69794 L 212.31387,181.01667 L 213.7857,178.90447 L 212.65643,178.11798 L 211.54262,177.39488 L 209.25307,176.11875 L 208.00392,175.52934 L 206.7818,174.99792 L 205.71734,177.28726 L 204.66295,176.90355 L 203.6534,176.55539 L 201.04517,175.83726 L 199.95208,175.61277 L 198.92082,175.43003 L 199.13339,172.88844 L 197.7635,172.73653 L 196.41525,172.631 L 193.8045,172.63409 L 192.44536,172.71718 L 191.10709,172.87525 L 191.32977,175.41157 L 190.23114,175.59909 L 189.18352,175.80517 L 186.55864,176.53489 z M 193.3712,205.08023 L 196.99276,205.08023 L 196.99276,201.45906 L 193.3712,201.45906 L 193.3712,205.08023"
     style="fill:#eeeeee;fill-opacity:1;fill-rule:evenodd;stroke:none;stroke-width:1.00140512;stroke-linecap:butt;stroke-linejoin:miter;stroke-miterlimit:4;stroke-opacity:1"
     id="Cogwheel-6spokes-square" />
  <use
     transform="translate(-135.45,-156.579)"
     id="Cogwheel-2"
     x="0"
     y="0"
     width="251"
     height="304.20001"
     xlink:href="#Cogwheel-6spokes-square" />
  <path
     d="M 249.55062,1.4395041 L 1.449569,1.4395041 L 1.449569,174.9361 C 0.68232904,268.65698 81.739009,302.75585 125.5001,302.75585 C 168.49395,302.75585 250.31785,268.65698 249.55062,174.9361 L 249.55062,1.4395041 z "
     style="fill:none;fill-opacity:0;stroke:#000000;stroke-width:1.88832211;stroke-linejoin:bevel"
     id="Frame" />
</svg>
