<!-- Created with Inkscape (http://www.inkscape.org/) -->
<svg xmlns:rdf="http://www.w3.org/1999/02/22-rdf-syntax-ns#" xmlns="http://www.w3.org/2000/svg" height="300" width="248" version="1.0" xmlns:cc="http://creativecommons.org/ns#" xmlns:dc="http://purl.org/dc/elements/1.1/">
 <metadata>
  <rdf:RDF>
   <cc:Work rdf:about="">
    <dc:format>image/svg+xml</dc:format>
    <dc:type rdf:resource="http://purl.org/dc/dcmitype/StillImage"/>
    <dc:title/>
   </cc:Work>
  </rdf:RDF>
 </metadata>
 <path d="m247,1.0001,0,214.77c0,82.42-84.912,44.012-123,82.791-38.089-38.77-123-0.37-123-82.79v-214.77z" fill="#FFF"/>
 <path fill="#003d8f" d="M43.406,184.31c-10.772,0-21.537,7.79-30.406,23.38l-11.344,19.9c7.9888,66.82,86.223,34.21,122.34,70.97,0.32-0.32,0.64-0.62,0.97-0.94l-51.158-89.93c-8.869-15.59-19.633-23.38-30.406-23.38z" fill-rule="evenodd"/>
 <path fill="#003d8f" d="M204.59,184.31c-10.77,0-21.53,7.79-30.4,23.38l-51.16,89.93c0.33,0.32,0.65,0.62,0.97,0.94,36.12-36.77,114.35-4.15,122.34-70.97l-11.34-19.9c-8.87-15.59-19.63-23.38-30.41-23.38z" fill-rule="evenodd"/>
 <path fill="#003d8f" d="M124,141.22c-12.9,0-25.815,9.36-36.438,28.03l-56.437,99.22c28.205,11.59,69.415,6.21,92.875,30.09,23.46-23.88,64.67-18.5,92.88-30.09l-56.44-99.22c-10.62-18.67-23.54-28.03-36.44-28.03z" fill-rule="evenodd"/>
 <path d="m247,1.0001,0,214.77c0,82.42-84.912,44.012-123,82.791-38.089-38.77-123-0.37-123-82.79v-214.77z" stroke="#000" stroke-miterlimit="4" stroke-dasharray="none" stroke-width="2" fill="none"/>
 <path fill-rule="evenodd" fill="#d40000" d="m39.915,86.132c-9.2324,17.845-0.08939,29.06-5.1535,40.082-1.312-6.2832-3.1408-11.175-6.1023-13.004,4.3203,16.532-12.507,20.708-4.977,40.297-2.7084-2.2694-4.2165-6.2199-5.2926-10.778-1.6178,6.2473-1.5114,13.264,4.7473,23.023-3.0858-1.5795-5.4173-4.5019-7.2312-8.3424,1.4039,17.623,11.897,30.198,25.569,31.551,12.268,1.214,27.83-6.6063,29.431-27.92-1.1692,3.3631-3.3039,3.5985-4.7685,5.4693,5.9537-17.115,2.4553-30.319-3.691-42.428,1.1421,6.8191,1.4905,13.083-1.0023,17.365-0.47423-16.279-3.4823-29.61-10.199-38.623,0.26901,2.2649,1.37,8.3291-1.5567,16.131-0.419-12.96-10.293-15.87-9.774-32.821z"/>
 <path fill-rule="evenodd" fill="#d40000" d="m119.88,25.745c-10.911,21.09-0.10565,34.344-6.0906,47.37-1.5506-7.4256-3.7118-13.208-7.2117-15.368,5.1058,19.538-14.78,24.473-5.8819,47.624-3.2009-2.682-4.9832-7.3507-6.2549-12.738-1.912,7.3832-1.7861,15.675,5.6105,27.209-3.6467-1.8666-6.4022-5.3204-8.5459-9.859,1.6592,20.828,14.06,35.689,30.218,37.287,14.498,1.4347,32.889-7.8074,34.782-32.995-1.3819,3.9745-3.9046,4.2528-5.6355,6.4638,7.0362-20.226,2.9017-35.831-4.362-50.142,1.3498,8.0589,1.7614,15.461-1.1845,20.522-0.56049-19.237-4.1156-34.987-12.055-45.642,0.31866,2.6798,1.6199,9.8385-1.839,19.067-0.4923-15.326-12.159-18.769-11.546-38.799z"/>
 <path d="m208.08,86.132c9.2324,17.845,0.0894,29.06,5.1535,40.082,1.312-6.2832,3.1408-11.175,6.1023-13.004-4.3203,16.532,12.507,20.708,4.977,40.297,2.7084-2.2694,4.2165-6.2199,5.2926-10.778,1.6178,6.2473,1.5114,13.264-4.7473,23.023,3.0858-1.5795,5.4173-4.5019,7.2312-8.3424-1.4039,17.623-11.897,30.198-25.569,31.551-12.268,1.214-27.83-6.6063-29.431-27.92,1.1692,3.3631,3.3039,3.5985,4.7685,5.4693-5.9537-17.115-2.4553-30.319,3.691-42.428-1.1421,6.8191-1.4905,13.083,1.0023,17.365,0.47424-16.279,3.4823-29.61,10.199-38.623-0.26901,2.2649-1.37,8.3291,1.5568,16.131,0.41784-12.97,10.293-15.878,9.7731-32.827z" fill-rule="evenodd" fill="#d40000"/>
</svg>
