<?xml version="1.0" encoding="UTF-8" standalone="no"?>
<!-- Created with Inkscape (http://www.inkscape.org/) -->
<svg
   xmlns:svg="http://www.w3.org/2000/svg"
   xmlns="http://www.w3.org/2000/svg"
   version="1.0"
   width="251"
   height="304.20001"
   id="svg4166">
  <defs
     id="defs4168" />
  <g
     id="Kungsor_kommunvapen">
    <path
       d="M 1.4495603,1.4395041 L 125.50006,1.4395041 L 249.55061,1.4395041 L 249.55061,174.9361 C 250.31785,268.65698 169.26117,302.75585 125.50008,302.75585 C 82.506226,302.75585 0.68233088,268.65698 1.4495603,174.9361 L 1.4495603,1.4395041 z "
       style="color:#000000;fill:#eeeeee;fill-opacity:1;fill-rule:nonzero;stroke:none;stroke-width:1.88832211;stroke-linecap:round;stroke-linejoin:bevel;marker:none;marker-start:none;marker-mid:none;marker-end:none;stroke-miterlimit:4;stroke-dashoffset:0;stroke-opacity:1;visibility:visible;display:block"
       id="Shield" />
    <rect
       width="248.11072"
       height="145"
       x="1.4440026"
       y="1.2000122"
       style="fill:#003d8f;fill-opacity:1;fill-rule:evenodd;stroke:none;stroke-width:1.88800001;stroke-linecap:butt;stroke-miterlimit:4;stroke-dasharray:none;stroke-opacity:1"
       id="Division" />
    <path
       d="M 25.5,34.871277 C 39.821783,55.254491 48.454024,79.121361 50.500004,103.99265 L 50.500004,141.69521 C 100.15279,133.31685 150.84721,133.31685 200.49999,141.69521 L 200.49999,103.99265 C 202.54595,79.121361 211.17818,55.254491 225.5,34.871277 C 219.38375,29.279927 209.97778,29.504509 204.1324,35.381466 C 198.28707,41.258354 198.06369,50.715173 203.62502,56.864439 L 199.11873,66.831174 C 196.48139,61.66943 190.67186,58.994319 185.06177,60.358353 C 179.45169,61.722354 175.49994,66.770866 175.5,72.573841 C 175.50003,76.439412 177.26948,80.089943 180.29761,82.471858 C 183.3258,84.853772 187.27576,85.702147 191.00762,84.772028 L 188.00001,91.425123 C 186.65507,95.482391 182.8787,98.219138 178.62498,98.219138 C 174.37131,98.219138 170.59491,95.482391 169.24999,91.425123 L 169.24999,53.722558 C 172.70179,53.722558 175.5,50.909225 175.5,47.438799 C 175.5,43.968371 172.70179,41.155038 169.24999,41.155038 C 165.79822,41.155038 163,43.968371 163,47.438799 C 162.99996,50.244541 164.84998,52.710353 167.53333,53.480986 L 156.74999,91.425123 C 155.30623,96.004475 150.73282,98.819453 146.01972,98.0297 C 141.30667,97.239961 137.88851,93.085837 137.99999,88.283242 L 136.5882,76.220507 C 140.3582,79.160952 145.46434,79.687037 149.7492,77.576609 C 154.03408,75.466113 156.75018,71.087277 156.74999,66.29008 C 156.74999,60.957635 153.40291,56.205738 148.39996,54.435379 C 143.39699,52.665021 137.82748,54.261704 134.50556,58.418626 L 133.73194,51.808816 C 140.1683,48.646697 144.25008,42.073704 144.24998,34.871277 C 144.24987,25.864167 137.91221,18.115414 129.12223,16.375379 L 128.62499,12.878115 C 128.62499,11.142901 127.22588,9.7362351 125.50001,9.7362351 C 123.77412,9.7362351 122.37501,11.142901 122.37501,12.878115 L 121.87777,16.375379 C 113.0878,18.115414 106.75011,25.864167 106.74997,34.871277 C 106.74988,42.073704 110.8317,48.646697 117.26806,51.808816 L 116.49443,58.418626 C 113.17252,54.261704 107.60301,52.665021 102.60003,54.435379 C 97.597052,56.205738 94.249992,60.957635 94.249992,66.29008 C 94.249802,71.087277 96.965922,75.466113 101.25079,77.576609 C 105.53565,79.687037 110.64178,79.160952 114.4118,76.220507 L 113.00001,88.283242 C 113.11149,93.085837 109.69333,97.239961 104.98024,98.0297 C 100.26718,98.819453 95.693772,96.004475 94.249992,91.425123 L 83.466672,53.480986 C 86.149982,52.710353 88.000022,50.244541 88.000002,47.438799 C 88.000002,43.968371 85.201772,41.155038 81.749992,41.155038 C 78.298222,41.155038 75.499992,43.968371 75.499992,47.438799 C 75.499992,50.909225 78.298222,53.722558 81.749992,53.722558 L 81.749992,91.425123 C 80.405062,95.482391 76.62869,98.219138 72.375001,98.219138 C 68.121297,98.219138 64.34492,95.482391 62.999998,91.425123 L 59.992336,84.772028 C 63.724237,85.702147 67.674181,84.853772 70.702361,82.471858 C 73.730526,80.089943 75.499962,76.439412 75.499992,72.573841 C 75.500066,66.770866 71.548306,61.722354 65.938215,60.358353 C 60.328138,58.994319 54.518602,61.66943 51.881227,66.831174 L 47.375012,56.864439 C 52.936266,50.715173 52.712924,41.258354 46.867549,35.381466 C 41.022219,29.504509 31.616245,29.279927 25.5,34.871277 z "
       style="fill:#ffcd50;fill-opacity:1;fill-rule:evenodd;stroke:none;stroke-width:1.0942663;stroke-linecap:butt;stroke-linejoin:miter;stroke-miterlimit:10"
       id="path3616" />
    <path
       d="M 35.09375,185.1875 C 17.823412,185.1875 13.286059,191.95726 2.6875,195.5 C 4.6839071,210.5735 9.0168177,223.80979 14.96875,235.375 C 21.275167,233.8498 28.183123,232.78125 35.09375,232.78125 C 58.482199,232.78125 58.486542,245.1875 81.875,245.1875 C 105.26345,245.1875 105.2678,232.78125 128.65625,232.78125 C 152.0447,232.78125 152.04903,245.1875 175.4375,245.1875 C 198.82595,245.1875 198.79904,232.78125 222.1875,232.78125 C 227.12055,232.78125 232.03805,233.34587 236.75,234.21875 C 242.67762,222.28215 246.86705,208.58417 248.625,192.96875 C 241.58575,189.44067 235.8679,185.1875 222.1875,185.1875 C 198.79904,185.1875 198.82595,197.625 175.4375,197.625 C 152.04904,197.62499 152.04471,185.1875 128.65625,185.1875 C 105.26779,185.1875 105.26345,197.625 81.875,197.625 C 58.486534,197.62499 58.482202,185.1875 35.09375,185.1875 z "
       style="color:#000000;fill:#003d8f;fill-opacity:1;fill-rule:nonzero;stroke:none;stroke-width:1.88832211;stroke-linecap:round;stroke-linejoin:bevel;marker:none;marker-start:none;marker-mid:none;marker-end:none;stroke-miterlimit:4;stroke-dashoffset:0;stroke-opacity:1;visibility:visible;display:block"
       id="use4509" />
    <path
       d="M 100.5,146.1875 L 100.5,299.5625 C 109.56852,301.70729 118.10949,302.75 125.5,302.75 C 132.94924,302.75 141.47693,301.72703 150.5,299.625 L 150.5,146.1875 L 100.5,146.1875 z "
       style="color:#000000;fill:#d40000;fill-opacity:1;fill-rule:nonzero;stroke:none;stroke-width:1.88832211;stroke-linecap:round;stroke-linejoin:bevel;marker:none;marker-start:none;marker-mid:none;marker-end:none;stroke-miterlimit:4;stroke-dashoffset:0;stroke-opacity:1;visibility:visible;display:block"
       id="Kavel" />
    <path
       d="M 1.4495603,1.4395041 L 125.50006,1.4395041 L 249.55061,1.4395041 L 249.55061,174.9361 C 250.31785,268.65698 169.26117,302.75585 125.50008,302.75585 C 82.506226,302.75585 0.68233088,268.65698 1.4495603,174.9361 L 1.4495603,1.4395041 z "
       style="color:#000000;fill:#eeeeee;fill-opacity:0;fill-rule:nonzero;stroke:#000000;stroke-width:1.88832211;stroke-linecap:round;stroke-linejoin:bevel;marker:none;marker-start:none;marker-mid:none;marker-end:none;stroke-miterlimit:4;stroke-dashoffset:0;stroke-opacity:1;visibility:visible;display:block"
       id="Frame" />
  </g>
</svg>
