<?xml version="1.0" encoding="UTF-8" standalone="no"?>
<!-- Created with Inkscape (http://www.inkscape.org/) -->
<svg
   xmlns:dc="http://purl.org/dc/elements/1.1/"
   xmlns:cc="http://web.resource.org/cc/"
   xmlns:xlink="http://www.w3.org/1999/xlink"
   xmlns:rdf="http://www.w3.org/1999/02/22-rdf-syntax-ns#"
   xmlns:svg="http://www.w3.org/2000/svg"
   xmlns="http://www.w3.org/2000/svg"
   version="1.0"
   width="251"
   height="304.20001"
   id="svg4166">
  <defs
     id="defs4168" />
  <metadata
     id="metadata1880"><rdf:RDF><cc:Work
         rdf:about=""><dc:title>Hallstahammar kommunvapen</dc:title><dc:date>03-08-2007</dc:date><dc:creator><cc:Agent><dc:title>Lokal_Profil</dc:title></cc:Agent></dc:creator><cc:license
         rdf:resource="http://creativecommons.org/licenses/by-sa/2.5/" /><dc:rights><cc:Agent><dc:title>cc-by-sa-2.5</dc:title></cc:Agent></dc:rights><dc:format>image/svg+xml</dc:format><dc:type
         rdf:resource="http://purl.org/dc/dcmitype/StillImage" /></cc:Work><cc:License
         rdf:about="http://creativecommons.org/licenses/by-sa/2.5/"><cc:permits
         rdf:resource="http://web.resource.org/cc/Reproduction" /><cc:permits
         rdf:resource="http://web.resource.org/cc/Distribution" /><cc:requires
         rdf:resource="http://web.resource.org/cc/Notice" /><cc:requires
         rdf:resource="http://web.resource.org/cc/Attribution" /><cc:permits
         rdf:resource="http://web.resource.org/cc/DerivativeWorks" /><cc:requires
         rdf:resource="http://web.resource.org/cc/ShareAlike" /></cc:License></rdf:RDF>
  </metadata>
  <path
     d="M 249.55058,1.4395041 L 125.50008,1.4395041 L 1.4495291,1.4395041 L 1.4495291,174.9361 C 0.68228908,268.65698 81.738969,302.75585 125.50006,302.75585 C 168.49391,302.75585 250.31781,268.65698 249.55058,174.9361 L 249.55058,1.4395041 z "
     style="color:#000000;fill:#d40000;fill-opacity:1;fill-rule:nonzero;stroke:none;stroke-width:1.88832211;stroke-linecap:round;stroke-linejoin:bevel;marker:none;marker-start:none;marker-mid:none;marker-end:none;stroke-miterlimit:4;stroke-dashoffset:0;stroke-opacity:1;visibility:visible;display:block"
     id="Shield" />
  <path
     d="M 1.2226551,1.1697363 L 1.2226551,146.93101 L 249.03884,146.93101 L 249.03884,1.1697363 L 125.13075,1.1697363 L 1.2226551,1.1697363 z "
     style="fill:#eeeeee;fill-opacity:1;fill-rule:nonzero;stroke:none;stroke-width:1.88800001;stroke-miterlimit:4;stroke-dasharray:none;stroke-opacity:1"
     id="Delning" />
  <g
     transform="matrix(0,-0.510241,0.510241,0,2.574414,211.2497)"
     style="fill:#000000"
     id="Hammare">
    <path
       d="M 243.47842,69.433125 L 282.00541,69.433125 C 282.00541,72.921125 282.00541,78.769125 282.00541,82.261121 C 275.24042,83.776121 273.09942,79.714125 270.03342,76.761125 C 268.47442,75.538125 266.30242,75.538125 264.04842,75.714125 C 257.10742,76.323125 250.16642,76.933125 243.22442,77.542025 C 243.31042,74.839125 243.39642,72.136125 243.48242,69.429125 L 243.47842,69.433125 z M 242.54442,134.60912 L 239.18942,385.01912 C 240.94342,424.80012 290.17741,418.11212 287.92741,385.01912 L 283.13041,128.81212 C 271.75542,131.26912 274.46242,136.59712 272.25242,141.43312 C 271.01742,146.04612 265.08042,145.71812 262.42742,143.08112 C 257.61542,139.34312 252.51742,135.41312 242.54842,134.60912 L 242.54442,134.60912 z "
       style="fill:#000000;fill-opacity:1;fill-rule:evenodd;stroke:none"
       id="Skaft" />
    <path
       d="M 156.82642,75.284125 C 174.11142,86.730121 194.36142,92.636121 218.19342,91.859121 C 222.92456,93.179795 220.80614,86.654643 225.79142,84.620121 C 237.65842,81.632121 250.37342,79.495125 264.31842,78.601125 C 269.59542,77.519125 271.52542,83.109121 276.29142,84.620121 C 279.33042,85.929121 282.36541,87.237121 285.40041,88.546121 C 322.04441,92.636121 357.92741,101.62012 391.09541,128.07712 C 392.91641,129.64812 393.69341,131.91712 393.43541,134.88212 L 393.44341,134.87812 C 359.55241,128.29212 326.31841,124.10512 294.51341,125.19412 C 280.49842,124.54212 270.60342,127.59312 269.78342,138.80812 C 269.79142,142.13212 266.14242,143.00712 263.01742,139.85512 C 247.33442,129.10112 234.53342,128.71012 223.70942,135.40512 C 217.45545,136.99973 219.38901,131.36678 215.91642,128.53412 C 194.75942,128.12412 174.53742,133.11612 155.24842,143.51912 C 146.36542,125.71012 144.20142,104.37802 156.82242,75.280125"
       style="fill:#000000;fill-opacity:1;fill-rule:evenodd;stroke:#eeeeee;stroke-opacity:1"
       id="Huvud" />
  </g>
  <path
     d="M 57.718457,167.06156 C 48.634395,167.78055 40.715597,172.63999 35.843327,179.75434 L 55.872501,191.31906 C 56.419102,190.85921 57.040678,190.49202 57.718457,190.23042 L 57.718457,167.06156 z M 62.412171,167.06156 L 62.412171,190.23831 C 63.087205,190.49977 63.713419,190.86081 64.258112,191.31906 L 84.287306,179.75434 C 79.415015,172.63999 71.496216,167.78055 62.412171,167.06156 z M 33.516171,183.81698 C 31.727585,187.60832 30.723605,191.83705 30.723605,196.30467 C 30.723605,200.8558 31.758848,205.16796 33.61084,209.01321 L 53.647921,197.44062 C 53.583287,197.07255 53.545367,196.69904 53.545367,196.31255 C 53.545367,196.01385 53.569496,195.7171 53.608466,195.42903 L 33.516171,183.81698 z M 86.614442,183.81698 L 66.522145,195.42114 C 66.561822,195.71171 66.577361,196.01114 66.577361,196.31255 C 66.577361,196.70196 66.540408,197.07783 66.474807,197.4485 L 86.51977,209.01321 C 88.371795,205.16796 89.40699,200.85584 89.407007,196.30467 C 89.407007,191.83705 88.403027,187.60832 86.614442,183.81698 z M 56.077608,201.45592 L 35.985313,213.06007 C 40.868495,220.06492 48.720176,224.84345 57.718457,225.55563 L 57.718457,202.38678 C 57.123619,202.15707 56.573437,201.84039 56.077608,201.45592 z M 64.053003,201.45592 C 63.557613,201.84054 63.006547,202.15674 62.412171,202.38678 L 62.412171,225.55563 C 71.410422,224.84345 79.262117,220.06495 84.145307,213.06007 L 64.053003,201.45592 z M 48.855127,161.54695 L 47.51016,162.0089 L 46.207384,162.56132 L 44.801143,159.54561 L 43.150546,160.29692 L 41.619553,161.02921 L 38.671098,162.69779 L 37.141056,163.66827 L 35.743665,164.68704 L 37.642505,167.38128 L 36.501449,168.2805 L 35.441802,169.19684 L 32.947426,171.68171 L 31.995264,172.74986 L 31.116495,173.85723 L 28.370118,171.9437 L 27.3264,173.36662 L 26.363079,174.84384 L 24.673619,177.83451 L 23.88616,179.41329 L 23.187134,181.02426 L 26.281425,182.46348 L 25.754366,183.77398 L 25.315741,185.11666 L 24.366923,188.51463 L 24.053946,189.89052 L 23.836427,191.31368 L 20.391025,191.01114 L 20.150306,192.73883 L 20.042223,194.51481 L 20,197.96731 L 20.109035,199.69713 L 20.31356,201.47422 L 23.805366,201.16767 L 24.035131,202.56584 L 24.324186,203.97306 L 25.289089,207.34146 L 25.736978,208.65626 L 26.273303,210.00323 L 23.046485,211.50794 L 23.844995,213.33847 L 24.499927,214.70358 L 26.210717,217.74249 L 26.659787,218.46932 L 27.153075,219.21224 L 28.199961,220.66994 L 31.137472,218.58422 L 32.022631,219.69512 L 32.953048,220.78492 L 35.43792,223.27931 L 36.469888,224.19326 L 37.629513,225.06602 L 35.521929,228.10482 L 36.900629,229.13244 L 38.406985,230.1189 L 41.419776,231.8164 L 42.991527,232.58879 L 44.646717,233.3039 L 46.205621,229.91514 L 47.502053,230.41204 L 48.858801,230.88082 L 52.271859,231.82262 L 53.640711,232.12051 L 55.055827,232.36015 L 54.730064,236.11009 L 56.443693,236.32065 L 58.233743,236.45889 L 61.731491,236.48001 L 63.454278,236.3559 L 65.253455,236.15944 L 64.909829,232.3912 L 66.285875,232.1534 L 67.71521,231.8724 L 71.113743,230.89342 L 72.428544,230.44553 L 73.745394,229.92327 L 75.334439,233.33102 L 76.886531,232.644 L 78.51603,231.84744 L 81.570038,230.12961 L 81.911854,229.87843 L 82.275766,229.63531 L 83.025712,229.15711 L 83.739486,228.64071 L 84.460278,228.13937 L 82.326373,225.0591 L 84.51199,223.25055 L 86.991293,220.77272 L 87.90727,219.66636 L 88.808166,218.56704 L 91.845952,220.71183 L 92.860509,219.26578 L 93.32709,218.5342 L 93.823837,217.78856 L 95.529379,214.75367 L 95.856271,213.95872 L 96.031281,213.5467 L 96.235442,213.15778 L 96.964622,211.53274 L 93.643221,209.9608 L 94.140113,208.66435 L 94.622963,207.33776 L 95.564739,203.92473 L 95.673518,203.21314 L 95.750017,202.86539 L 95.848595,202.5257 L 95.949315,201.83623 L 96.07213,201.15481 L 99.688386,201.46947 L 99.877862,199.7106 L 100,197.96476 L 99.998011,194.49616 L 99.910838,193.60062 L 99.852781,192.72816 L 99.669363,190.99631 L 96.133338,191.28675 L 95.881469,189.88055 L 95.628565,188.51152 L 94.649614,185.11298 L 94.157494,183.78209 L 93.665394,182.45119 L 96.816821,180.98164 L 96.192082,179.60247 L 95.33323,177.80008 L 93.620425,174.83552 L 92.626823,173.33462 L 91.616101,171.91511 L 88.80124,173.8702 L 86.99973,171.69967 L 84.514858,169.20528 L 83.431625,168.26016 L 82.339343,167.37434 L 84.252863,164.62798 L 82.784718,163.60535 L 81.336649,162.66514 L 78.360016,161.00586 L 76.736011,160.2395 L 75.14715,159.54851 L 73.76324,162.52522 L 72.392433,162.0263 L 71.079919,161.5736 L 67.688971,160.63986 L 66.267851,160.34798 L 64.927118,160.11038 L 65.203479,156.80568 L 63.422501,156.60816 L 61.66965,156.47095 L 58.275429,156.47496 L 56.50841,156.58299 L 54.768529,156.78854 L 55.058035,160.08635 L 53.62972,160.33017 L 52.267719,160.59814 L 48.855127,161.54695 z M 57.712083,198.66276 L 62.420462,198.66276 L 62.420462,193.95439 L 57.712083,193.95439 L 57.712083,198.66276"
     style="fill:#eeeeee;fill-opacity:1;fill-rule:evenodd;stroke:none;stroke-width:1.00140512;stroke-linecap:butt;stroke-linejoin:miter;stroke-miterlimit:4;stroke-opacity:1"
     id="Cogwheel-6spokes-square" />
  <use
     transform="translate(140,0)"
     id="Cog2"
     x="0"
     y="0"
     width="251"
     height="304.20001"
     xlink:href="#Cogwheel-6spokes-square" />
  <use
     transform="translate(70,59.28966)"
     id="Cog3"
     x="0"
     y="0"
     width="251"
     height="304.20001"
     xlink:href="#Cogwheel-6spokes-square" />
  <path
     d="M 249.55062,1.4395041 L 125.50012,1.4395041 L 1.449569,1.4395041 L 1.449569,174.9361 C 0.68232904,268.65698 81.739009,302.75585 125.5001,302.75585 C 168.49395,302.75585 250.31785,268.65698 249.55062,174.9361 L 249.55062,1.4395041 z "
     style="color:#000000;fill:none;fill-opacity:0;fill-rule:nonzero;stroke:#000000;stroke-width:1.88832211;stroke-linecap:round;stroke-linejoin:bevel;marker:none;marker-start:none;marker-mid:none;marker-end:none;stroke-miterlimit:4;stroke-dashoffset:0;stroke-opacity:1;visibility:visible;display:block"
     id="Frame" />
</svg>
