<?xml version="1.0" encoding="UTF-8" standalone="no"?>
<!-- Created with Inkscape (http://www.inkscape.org/) -->
<svg
   xmlns:dc="http://purl.org/dc/elements/1.1/"
   xmlns:cc="http://web.resource.org/cc/"
   xmlns:xlink="http://www.w3.org/1999/xlink"
   xmlns:rdf="http://www.w3.org/1999/02/22-rdf-syntax-ns#"
   xmlns:svg="http://www.w3.org/2000/svg"
   xmlns="http://www.w3.org/2000/svg"
   version="1.0"
   width="251"
   height="304.20001"
   id="svg4166">
<metadata
   id="metadata1880"><rdf:RDF><cc:Work
         rdf:about=""><dc:title>Norberg kommunvapen</dc:title><dc:date>25-05-2007</dc:date><dc:creator><cc:Agent><dc:title>Lokal_Profil</dc:title></cc:Agent></dc:creator><cc:license
         rdf:resource="http://creativecommons.org/licenses/by-sa/2.5/" /><dc:rights><cc:Agent><dc:title>cc-by-sa-2.5</dc:title></cc:Agent></dc:rights><dc:format>image/svg+xml</dc:format><dc:type
         rdf:resource="http://purl.org/dc/dcmitype/StillImage" /></cc:Work><cc:License
         rdf:about="http://creativecommons.org/licenses/by-sa/2.5/"><cc:permits
         rdf:resource="http://web.resource.org/cc/Reproduction" /><cc:permits
         rdf:resource="http://web.resource.org/cc/Distribution" /><cc:requires
         rdf:resource="http://web.resource.org/cc/Notice" /><cc:requires
         rdf:resource="http://web.resource.org/cc/Attribution" /><cc:permits
         rdf:resource="http://web.resource.org/cc/DerivativeWorks" /><cc:requires
         rdf:resource="http://web.resource.org/cc/ShareAlike" /></cc:License></rdf:RDF>
</metadata>
  <defs
     id="defs4168" />
  <path
     d="M 249.55058,1.4395041 L 125.50008,1.4395041 L 1.4495291,1.4395041 L 1.4495291,174.9361 C 0.68228908,268.65698 81.738969,302.75585 125.50006,302.75585 C 168.49391,302.75585 250.31781,268.65698 249.55058,174.9361 L 249.55058,1.4395041 z "
     style="color:#000000;fill:#003d8f;fill-opacity:1;fill-rule:nonzero;stroke:none;stroke-width:1.88832211;stroke-linecap:round;stroke-linejoin:bevel;marker:none;marker-start:none;marker-mid:none;marker-end:none;stroke-miterlimit:4;stroke-dashoffset:0;stroke-opacity:1;visibility:visible;display:block"
     id="Shield" />
  <path
     d="M 1.1,1.0980142 L 1.1,91.292012 L 249.59999,91.292012 L 249.59999,1.0980142 L 125.34999,1.0980142 L 1.1,1.0980142 z "
     style="color:#000000;fill:#eeeeee;fill-opacity:1;fill-rule:nonzero;stroke:none;stroke-width:1.88832211;stroke-linecap:round;stroke-linejoin:bevel;marker:none;marker-start:none;marker-mid:none;marker-end:none;stroke-miterlimit:4;stroke-dashoffset:0;stroke-opacity:1;visibility:visible;display:block"
     id="Chef" />
  <path
     d="M 249.55062,1.4395041 L 125.50012,1.4395041 L 1.449569,1.4395041 L 1.449569,174.9361 C 0.68232904,268.65698 81.739009,302.75585 125.5001,302.75585 C 168.49395,302.75585 250.31785,268.65698 249.55062,174.9361 L 249.55062,1.4395041 z "
     style="color:#000000;fill:none;fill-opacity:0;fill-rule:nonzero;stroke:#000000;stroke-width:1.88832211;stroke-linecap:round;stroke-linejoin:bevel;marker:none;marker-start:none;marker-mid:none;marker-end:none;stroke-miterlimit:4;stroke-dashoffset:0;stroke-opacity:1;visibility:visible;display:block"
     id="Frame" />
  <g
     transform="matrix(1.249927,0,0,1.249935,-357.289,-597.926)"
     style="stroke:#003d8f;stroke-opacity:1"
     id="Mars-Symbol">
    <g
       transform="matrix(1.948116,0,0,1.937312,-342.4303,-460.0101)"
       style="stroke:#003d8f;stroke-opacity:1"
       id="g1872">
      <path
         d="M 387.95009,489.60348 L 378.66214,498.89143"
         style="opacity:1;color:#000000;fill:none;fill-opacity:0.75;fill-rule:evenodd;stroke:#003d8f;stroke-width:3;stroke-linecap:butt;stroke-linejoin:miter;marker:none;marker-start:none;marker-mid:none;marker-end:none;stroke-miterlimit:4;stroke-dasharray:none;stroke-dashoffset:0;stroke-opacity:1;visibility:visible;display:inline;overflow:visible"
         id="path26867" />
      <path
         d="M 49.396475,36.70454 C 49.396475,45.717349 42.401407,53.023675 33.772553,53.023675 C 25.143698,53.023675 18.14863,45.717349 18.14863,36.70454 C 18.14863,27.691731 25.143698,20.385405 33.772553,20.385405 C 42.401407,20.385405 49.396475,27.691731 49.396475,36.70454 L 49.396475,36.70454 z "
         transform="matrix(0.48802,0.48802,-0.467594,0.467594,371.6094,473.1357)"
         style="opacity:1;color:#000000;fill:none;fill-opacity:1;fill-rule:evenodd;stroke:#003d8f;stroke-width:4.44071579;stroke-linecap:butt;stroke-linejoin:miter;marker:none;marker-start:none;marker-mid:none;marker-end:none;stroke-miterlimit:4;stroke-dasharray:none;stroke-dashoffset:0;stroke-opacity:1;visibility:visible;display:inline;overflow:visible"
         id="path26871" />
      <path
         d="M 379.92823,489.70212 C 387.842,489.70212 387.842,489.70212 387.842,489.70212 L 387.842,497.61589"
         style="fill:none;fill-rule:evenodd;stroke:#003d8f;stroke-width:3;stroke-linecap:butt;stroke-linejoin:miter;stroke-miterlimit:4;stroke-dasharray:none;stroke-opacity:1"
         id="path27759" />
    </g>
  </g>
  <g
     transform="matrix(1.123378,0,0,1.123378,47.53809,-52.8051)"
     id="Triangel">
    <g
       transform="matrix(0,-0.14254,-0.14254,0,148.3118,306.9073)"
       style="fill:#eeeeee;fill-opacity:1;stroke:#003d8f;stroke-opacity:1"
       id="Fleur-de-lis">
      <path
         d="M 370.56125,101.02204 L 368.98386,101.37696 C 339.99728,129.7969 314.25011,156.07552 294.05666,185.49277 C 237.53282,267.74062 218.65091,357.06967 250.28341,429.32214 C 313.07862,582.17879 337.04134,620.99774 337.04119,742.71565 L 322.05577,818.3134 C 319.95113,857.2288 296.00469,888.26688 251.07207,905.62348 C 256.85896,922.01827 283.67525,955.43911 320.87268,953.18263 C 328.22132,988.53949 335.51032,1008.3543 368.98386,1040.4927 L 370.56125,1040.4927 L 370.56125,101.02204 z "
         style="fill:#eeeeee;fill-opacity:1;fill-rule:evenodd;stroke:none;stroke-width:5.5367732;stroke-miterlimit:4;stroke-dasharray:none;stroke-opacity:1"
         id="path6182" />
      <path
         d="M 317.94892,831.52374 C 301.78383,848.06109 225.39863,893.91783 162.73457,893.91783 C 244.4197,825.33139 273.98465,804.69024 283.61823,752.67736 C 293.2518,700.66448 262.14612,643.42012 239.80321,631.55338 C 225.93531,621.62477 196.26799,617.10435 169.99567,628.65323 C 135.62606,646.00239 134.15469,695.16449 151.33559,717.61856 C -10.992738,691.12499 5.1278894,553.36748 60.40993,503.36206 C 105.10422,462.95957 153.82642,456.64146 191.39374,469.3814 C 276.76259,496.27443 345.15477,585.91309 347.94979,719.80874 C 347.94979,719.80874 333.18874,815.93292 317.94892,831.52374 z "
         style="fill:#eeeeee;fill-opacity:1;fill-rule:evenodd;stroke:#003d8f;stroke-width:5.5367732;stroke-miterlimit:4;stroke-dasharray:none;stroke-opacity:1"
         id="path6188" />
      <rect
         width="132.75957"
         height="81.101677"
         x="236.4698"
         y="687.97809"
         style="fill:#eeeeee;fill-opacity:1;stroke:#003d8f;stroke-width:3.93696165;stroke-miterlimit:4;stroke-dasharray:none;stroke-opacity:1"
         id="rect6184" />
    </g>
    <use
       transform="matrix(-0.5,0.866025,-0.866025,-0.5,287.0018,264.8778)"
       id="Fleur2"
       x="0"
       y="0"
       width="251"
       height="304.20001"
       xlink:href="#Fleur-de-lis" />
    <use
       transform="matrix(-0.5,-0.866025,0.866025,-0.5,-86.13407,380.8487)"
       id="Fleur3"
       x="0"
       y="0"
       width="251"
       height="304.20001"
       xlink:href="#Fleur-de-lis" />
  </g>
</svg>
