<?xml version="1.0" encoding="UTF-8" standalone="no"?>
<svg
   xmlns:dc="http://purl.org/dc/elements/1.1/"
   xmlns:cc="http://creativecommons.org/ns#"
   xmlns:rdf="http://www.w3.org/1999/02/22-rdf-syntax-ns#"
   xmlns:svg="http://www.w3.org/2000/svg"
   xmlns="http://www.w3.org/2000/svg"
   xmlns:xlink="http://www.w3.org/1999/xlink"
   id="svg4166"
   height="304.20001"
   width="251"
   version="1.0">
  <defs
     id="defs4168" />
  <metadata
     id="metadata1880"><rdf:RDF><cc:Work
         rdf:about=""><dc:title>Västerås kommunvapen</dc:title><dc:date>2007-11-09</dc:date><dc:creator><cc:Agent><dc:title>Lokal_Profil</dc:title></cc:Agent></dc:creator><cc:license
         rdf:resource="http://creativecommons.org/licenses/by-sa/2.5/" /><dc:rights><cc:Agent><dc:title>cc-by-sa-2.5</dc:title></cc:Agent></dc:rights><dc:format>image/svg+xml</dc:format><dc:type
         rdf:resource="http://purl.org/dc/dcmitype/StillImage" /></cc:Work><cc:License
         rdf:about="http://creativecommons.org/licenses/by-sa/2.5/"><cc:permits
         rdf:resource="http://web.resource.org/cc/Reproduction" /><cc:permits
         rdf:resource="http://web.resource.org/cc/Distribution" /><cc:requires
         rdf:resource="http://web.resource.org/cc/Notice" /><cc:requires
         rdf:resource="http://web.resource.org/cc/Attribution" /><cc:permits
         rdf:resource="http://web.resource.org/cc/DerivativeWorks" /><cc:requires
         rdf:resource="http://web.resource.org/cc/ShareAlike" /></cc:License></rdf:RDF>
  </metadata>
  <path
     id="Shield"
     style="fill:#eeeeee"
     d="M 249.55058,1.4395041 L 125.50008,1.4395041 L 1.4495291,1.4395041 L 1.4495291,174.9361 C 0.68228908,268.65698 81.738969,302.75585 125.50006,302.75585 C 168.49391,302.75585 250.31781,268.65698 249.55058,174.9361 L 249.55058,1.4395041 z " />
  <path
     id="Mariamonogram"
     style="fill:#003d8f;fill-rule:evenodd"
     d="M 60.941123,241.00551 L 71.595369,94.72342 L 125.99355,141.04339 L 180.39167,94.72342 L 190.05887,241.00551 L 222.54656,193.52349 L 192.55792,59.407647 C 192.55792,59.407647 222.54659,64.405746 229.21071,67.737824 L 226.71165,27.752972 L 22.622305,27.752972 L 21.789286,67.737824 C 29.278904,64.693469 60.108113,59.407647 60.108113,59.407647 L 30.119475,193.52349 L 60.941123,241.00551 z M 125.99355,122.717 L 178.06761,69.403855 L 177.56359,56.075576 C 177.56359,56.075576 144.58745,52.039166 126.05283,52.039166 C 106.68516,52.039166 73.43639,56.075576 73.43639,56.075576 L 72.603361,69.403855 L 125.99355,122.717 z " />
  <g
     style="fill:#d40000;stroke:#eeeeee;stroke-width:3"
     id="Rose"
     transform="matrix(0.58574341,0,0,0.58574341,125.53317,234.50243)">
    <g
       id="g3361">
      <path
         id="g1_rose"
         d="m -6,27 -7,36 C -5,77 -1,86 0,95 1,86 5,77 13,63 L 6,27 Z" />
      <use
         height="100%"
         width="100%"
         y="0"
         x="0"
         xlink:href="#g1_rose"
         transform="matrix(0.30901699,0.95105652,-0.95105652,0.30901699,0,0)"
         id="use7" />
      <use
         height="100%"
         width="100%"
         y="0"
         x="0"
         xlink:href="#g1_rose"
         transform="matrix(-0.80901699,0.58778525,-0.58778525,-0.80901699,0,0)"
         id="use9" />
      <use
         height="100%"
         width="100%"
         y="0"
         x="0"
         xlink:href="#g1_rose"
         transform="matrix(-0.80901699,-0.58778525,0.58778525,-0.80901699,0,0)"
         id="use11" />
      <use
         height="100%"
         width="100%"
         y="0"
         x="0"
         xlink:href="#g1_rose"
         transform="matrix(0.30901699,-0.95105652,0.95105652,0.30901699,0,0)"
         id="use13" />
    </g>
    <g
       id="g3368">
      <g
         id="g2_rose">
        <path
           id="path2843"
           d="m -19,-76 c -6.5,0 -12.5,4 -15,12 -2.5,8 -2.01,14 1.69,19.5 L 0,0 32.31,-44.5 C 36.01,-50 36.5,-56 34,-64 c -2.5,-8 -8.5,-12 -15,-12 -2,0 -8,1 -10,2 -5,2 -7,2 -9,2 -2,0 -4,0 -9,-2 -2,-1 -8,-2 -10,-2 z" />
        <path
           d="m 0,-47 c -1,20 -5,32 -7,42 L 7,-5 C 5,-15 1,-27 0,-47 Z"
           id="path17" />
      </g>
      <use
         xlink:href="#g2_rose"
         transform="matrix(0.30901699,0.95105652,-0.95105652,0.30901699,0,0)"
         id="use19"
         x="0"
         y="0"
         width="100%"
         height="100%" />
      <use
         xlink:href="#g2_rose"
         transform="matrix(-0.80901699,0.58778525,-0.58778525,-0.80901699,0,0)"
         id="use21"
         x="0"
         y="0"
         width="100%"
         height="100%" />
      <use
         xlink:href="#g2_rose"
         transform="matrix(-0.80901699,-0.58778525,0.58778525,-0.80901699,0,0)"
         id="use23"
         x="0"
         y="0"
         width="100%"
         height="100%" />
      <use
         xlink:href="#g2_rose"
         transform="matrix(0.30901699,-0.95105652,0.95105652,0.30901699,0,0)"
         id="use25"
         x="0"
         y="0"
         width="100%"
         height="100%" />
    </g>
    <circle
       cy="0"
       cx="0"
       id="circle27"
       r="25" />
  </g>
  <path
     id="Frame"
     style="fill:none;fill-opacity:0;stroke:#000000;stroke-width:1.88832211;stroke-linecap:round"
     d="M 249.55062,1.4395041 L 125.50012,1.4395041 L 1.449569,1.4395041 L 1.449569,174.9361 C 0.68232904,268.65698 81.739009,302.75585 125.5001,302.75585 C 168.49395,302.75585 250.31785,268.65698 249.55062,174.9361 L 249.55062,1.4395041 z " />
</svg>
