<?xml version="1.0" encoding="UTF-8" standalone="no"?>
<!-- Created with Inkscape (http://www.inkscape.org/) -->
<svg
   xmlns:dc="http://purl.org/dc/elements/1.1/"
   xmlns:cc="http://web.resource.org/cc/"
   xmlns:xlink="http://www.w3.org/1999/xlink"
   xmlns:rdf="http://www.w3.org/1999/02/22-rdf-syntax-ns#"
   xmlns:svg="http://www.w3.org/2000/svg"
   xmlns="http://www.w3.org/2000/svg"
   version="1.0"
   width="251"
   height="304.20001"
   id="svg4166">
<metadata
   id="metadata1880"><rdf:RDF><cc:Work
         rdf:about=""><dc:title>Vansbro kommunvapen</dc:title><dc:date>29-05-2007</dc:date><dc:creator><cc:Agent><dc:title>Lokal_Profil</dc:title></cc:Agent></dc:creator><cc:license
         rdf:resource="http://creativecommons.org/licenses/by-sa/2.5/" /><dc:rights><cc:Agent><dc:title>cc-by-sa-2.5</dc:title></cc:Agent></dc:rights><dc:format>image/svg+xml</dc:format><dc:type
         rdf:resource="http://purl.org/dc/dcmitype/StillImage" /></cc:Work><cc:License
         rdf:about="http://creativecommons.org/licenses/by-sa/2.5/"><cc:permits
         rdf:resource="http://web.resource.org/cc/Reproduction" /><cc:permits
         rdf:resource="http://web.resource.org/cc/Distribution" /><cc:requires
         rdf:resource="http://web.resource.org/cc/Notice" /><cc:requires
         rdf:resource="http://web.resource.org/cc/Attribution" /><cc:permits
         rdf:resource="http://web.resource.org/cc/DerivativeWorks" /><cc:requires
         rdf:resource="http://web.resource.org/cc/ShareAlike" /></cc:License></rdf:RDF>
</metadata>
  <defs
     id="defs4168" />
  <path
     d="M 249.55058,1.4395041 L 125.50008,1.4395041 L 1.4495291,1.4395041 L 1.4495291,174.9361 C 0.68228908,268.65698 81.738969,302.75585 125.50006,302.75585 C 168.49391,302.75585 250.31781,268.65698 249.55058,174.9361 L 249.55058,1.4395041 z "
     style="color:#000000;fill:#003d8f;fill-opacity:1;fill-rule:nonzero;stroke:none;stroke-width:1.88832211;stroke-linecap:round;stroke-linejoin:bevel;marker:none;marker-start:none;marker-mid:none;marker-end:none;stroke-miterlimit:4;stroke-dashoffset:0;stroke-opacity:1;visibility:visible;display:block"
     id="Shield" />
  <g
     transform="matrix(2.615546,0,0,2.60104,-829.3762,-1249.081)"
     style="stroke:#ffcd50;stroke-opacity:1"
     id="Mars_symbol">
    <path
       d="M 387.95009,489.60348 L 378.66214,498.89143"
       style="opacity:1;color:#000000;fill:none;fill-opacity:0.75;fill-rule:evenodd;stroke:#ffcd50;stroke-width:3;stroke-linecap:butt;stroke-linejoin:miter;marker:none;marker-start:none;marker-mid:none;marker-end:none;stroke-miterlimit:4;stroke-dasharray:none;stroke-dashoffset:0;stroke-opacity:1;visibility:visible;display:inline;overflow:visible"
       id="path26867" />
    <path
       d="M 49.396475,36.70454 C 49.396475,45.717349 42.401407,53.023675 33.772553,53.023675 C 25.143698,53.023675 18.14863,45.717349 18.14863,36.70454 C 18.14863,27.691731 25.143698,20.385405 33.772553,20.385405 C 42.401407,20.385405 49.396475,27.691731 49.396475,36.70454 L 49.396475,36.70454 z "
       transform="matrix(0.48802,0.48802,-0.467594,0.467594,371.6094,473.1357)"
       style="opacity:1;color:#000000;fill:none;fill-opacity:1;fill-rule:evenodd;stroke:#ffcd50;stroke-width:4.44071579;stroke-linecap:butt;stroke-linejoin:miter;marker:none;marker-start:none;marker-mid:none;marker-end:none;stroke-miterlimit:4;stroke-dasharray:none;stroke-dashoffset:0;stroke-opacity:1;visibility:visible;display:inline;overflow:visible"
       id="path26871" />
    <path
       d="M 379.92823,489.70212 C 387.842,489.70212 387.842,489.70212 387.842,489.70212 L 387.842,497.61589"
       style="fill:none;fill-rule:evenodd;stroke:#ffcd50;stroke-width:3;stroke-linecap:butt;stroke-linejoin:miter;stroke-miterlimit:4;stroke-dasharray:none;stroke-opacity:1"
       id="path27759" />
  </g>
  <g
     transform="matrix(0.354311,0.307997,0.307997,-0.354311,-108.9856,240.3555)"
     id="Sword">
    <path
       d="M 254.81293,227.21933 C 265.02722,185.61219 277.95578,185.61219 287.67007,227.21933 C 297.38436,268.82647 300.38436,320.04076 289.67007,361.6479 C 278.95578,403.25504 261.52722,403.25504 250.81293,361.6479 C 240.09864,320.04076 244.59864,268.82647 254.81293,227.21933 z "
       style="fill:#ffcd50;fill-opacity:1;fill-rule:nonzero;stroke:none;stroke-width:5;stroke-miterlimit:4;stroke-dasharray:none;stroke-opacity:1"
       id="path2198" />
    <g
       transform="translate(5.076465,0)"
       id="g4551">
      <path
         d="M 244.45691,371.58029 L 285.87317,371.58029 L 279.87317,757.43822 L 265.16504,790.79361 L 250.45691,757.43822 L 244.45691,371.58029 z "
         style="fill:#ffcd50;fill-opacity:1;fill-rule:nonzero;stroke:none;stroke-width:5.00081587;stroke-miterlimit:4;stroke-dasharray:none;stroke-opacity:1"
         id="path2201" />
      <path
         d="M 263.15625,375.0625 L 264.65179,742.09375 L 269.15625,375.0625 L 263.15625,375.0625 z "
         style="fill:#003d8f;fill-opacity:1;fill-rule:evenodd;stroke:none;stroke-width:4;stroke-linecap:butt;stroke-linejoin:miter;stroke-miterlimit:4;stroke-dasharray:none;stroke-opacity:1"
         id="path2203" />
    </g>
    <rect
       width="161.86885"
       height="21.377804"
       x="189.3071"
       y="358.07336"
       style="fill:#ffcd50;fill-opacity:1;fill-rule:nonzero;stroke:#003d8f;stroke-width:5;stroke-miterlimit:4;stroke-dasharray:none;stroke-opacity:1"
       id="rect2206" />
    <g
       transform="translate(0,4)"
       style="fill:#003d8f;fill-opacity:1"
       id="g2208">
      <path
         d="M 317.69297,37.924389 C 317.6989,53.828496 304.80773,66.724467 288.90363,66.724467 C 272.99952,66.724467 260.10835,53.828496 260.11428,37.924389 C 260.10835,22.020282 272.99952,9.1243109 288.90363,9.1243109 C 304.80773,9.1243109 317.6989,22.020282 317.69297,37.924389 L 317.69297,37.924389 z "
         transform="translate(-18.66212,191.199)"
         style="fill:#ffcd50;fill-opacity:1;fill-rule:nonzero;stroke:#003d8f;stroke-width:5;stroke-miterlimit:4;stroke-dasharray:none;stroke-opacity:1"
         id="path2210" />
      <path
         d="M 161.6244,35.904083 C 161.62734,43.716645 155.29483,50.051537 147.48226,50.051537 C 139.6697,50.051537 133.33719,43.716645 133.34013,35.904083 C 133.33719,28.091521 139.6697,21.756629 147.48226,21.756629 C 155.29483,21.756629 161.62734,28.091521 161.6244,35.904083 L 161.6244,35.904083 z "
         transform="matrix(0.859198,0,0,0.859198,143.525,198.2747)"
         style="fill:#ffcd50;fill-opacity:1;fill-rule:nonzero;stroke:#003d8f;stroke-width:4.65550423;stroke-miterlimit:4;stroke-dasharray:none;stroke-opacity:1"
         id="path2212" />
    </g>
  </g>
  <path
     d="M 89.875267,99.990622 L 102.20934,91.354218 L 217.89586,245.98793 L 205.56178,254.62434 L 89.875267,99.990622 z M 58.556679,143.24864 C 60.991336,134.32988 65.634209,122.6599 70.808324,112.45403 C 74.464609,105.24205 74.933894,103.6825 73.894411,102.19797 C 72.329688,99.9633 71.253942,95.263924 75.421306,93.3052 C 78.257296,91.972237 80.990684,92.633478 84.219645,96.603833 C 85.797369,98.543817 87.296727,100.24923 87.467655,100.12954 L 106.61093,86.725271 L 84.469148,55.103535 L 79.340749,58.694477 L 74.599532,51.923314 L 62.265463,60.559716 L 67.006669,67.33089 L 62.860155,70.214848 C 50.433014,78.851285 28.643757,87.215143 16.829314,87.88393 C 14.70113,88.004406 12.803125,88.467273 12.611518,88.912542 C 11.833763,90.71998 19.975175,107.61606 27.743493,120.31629 C 31.972352,127.22997 45.243193,143.76459 50.121376,148.19776 C 55.615651,152.6564 55.318035,152.69876 58.556679,143.24864 z "
     style="fill:#ffcd50;fill-opacity:1;fill-rule:evenodd;stroke:#003d8f;stroke-width:2.11970973;stroke-linecap:butt;stroke-linejoin:miter;stroke-miterlimit:4;stroke-dasharray:none;stroke-opacity:1"
     id="Axe1" />
  <path
     d="M 249.55062,1.4395041 L 125.50012,1.4395041 L 1.449569,1.4395041 L 1.449569,174.9361 C 0.68232904,268.65698 81.739009,302.75585 125.5001,302.75585 C 168.49395,302.75585 250.31785,268.65698 249.55062,174.9361 L 249.55062,1.4395041 z "
     style="color:#000000;fill:none;fill-opacity:0;fill-rule:nonzero;stroke:#000000;stroke-width:1.88832211;stroke-linecap:round;stroke-linejoin:bevel;marker:none;marker-start:none;marker-mid:none;marker-end:none;stroke-miterlimit:4;stroke-dashoffset:0;stroke-opacity:1;visibility:visible;display:block"
     id="Frame" />
</svg>
