<?xml version="1.0" encoding="UTF-8" standalone="no"?>
<!-- Created with Inkscape (http://www.inkscape.org/) -->
<svg
   xmlns:svg="http://www.w3.org/2000/svg"
   xmlns="http://www.w3.org/2000/svg"
   version="1.0"
   width="251"
   height="304.04999"
   id="svg2064">
  <defs
     id="defs2066" />
  <g
     id="Leksands_kommunvapen">
    <path
       d="M 1.4495603,1.2894791 L 125.50006,1.2894791 L 249.55061,1.2894791 L 249.55061,174.78608 C 250.31785,268.50696 169.26117,302.60583 125.50008,302.60583 C 82.506226,302.60583 0.68233088,268.50696 1.4495603,174.78608 L 1.4495603,1.2894791 z "
       style="color:#000000;fill:#ffcd50;fill-opacity:1;fill-rule:nonzero;stroke:#000000;stroke-width:1.88832211;stroke-linecap:round;stroke-linejoin:bevel;marker:none;marker-start:none;marker-mid:none;marker-end:none;stroke-miterlimit:4;stroke-dashoffset:0;stroke-opacity:1;visibility:visible;display:block"
       id="Shield" />
    <path
       d="M 103.45642,63.134047 L 103.45642,55.316218 L 94.22774,55.316218 L 94.22774,63.134047 L 78.561012,63.134047 L 78.561012,45.519489 L 118.51117,45.519489 L 118.51117,36.748857 L 116.55283,36.748857 L 116.55283,24.460199 C 116.55284,24.460199 120.61738,21.397031 124.87578,21.113187 C 124.9093,21.110952 124.94015,21.11508 124.97369,21.113187 C 125.14828,21.103362 125.31291,21.113187 125.48777,21.113187 C 129.96396,21.113187 134.44717,24.460199 134.44717,24.460199 L 134.44717,36.748857 L 132.48882,36.748857 L 132.48882,219.60721 C 135.29705,217.95331 138.74656,216.84655 142.50084,216.84655 C 150.99504,216.84655 158.44296,220.78095 164.09156,224.95759 C 169.92231,229.26886 174.61765,236.05724 174.61765,242.18121 C 174.61764,248.58412 171.10971,254.76047 164.92385,260.35771 C 158.6007,266.07918 144.1432,266.69764 140.1998,265.29271 C 138.48822,264.68294 136.95887,263.22735 135.84249,261.45705 C 135.99883,262.39953 136.08729,263.38559 136.08729,264.38877 C 136.08729,271.99782 131.34952,278.16764 125.51224,278.16764 C 119.67498,278.16764 114.93719,271.99782 114.93719,264.38877 C 114.93719,263.37817 115.02338,262.38154 115.18199,261.43259 C 114.06395,263.21571 112.54543,264.67965 110.82469,265.29271 C 106.88128,266.69764 92.3993,266.07918 86.076139,260.35771 C 79.890284,254.76047 76.382353,248.58412 76.382353,242.18121 C 76.382345,236.05724 81.077683,229.2688 86.908439,224.95759 C 92.512897,220.81361 99.891761,216.90712 108.30331,216.84655 C 108.36955,216.84607 108.43279,216.84655 108.49914,216.84655 C 112.17856,216.84655 115.64213,217.91008 118.51117,219.50951 L 118.51117,89.665829 L 78.561012,89.665829 L 78.561012,72.344433 L 94.22774,72.344433 L 94.22774,79.893532 L 103.45642,79.893532 L 103.45642,72.344433 L 118.51117,72.344433 L 118.51117,63.134047 L 103.45642,63.134047 z M 104.90071,228.84207 C 104.96543,228.839 105.03178,228.84435 105.09653,228.84207 C 109.19192,228.69618 113.2819,230.01797 115.59814,231.40726 C 119.08611,233.49931 122.06453,239.20065 125.70807,239.20065 C 129.35163,239.20065 131.93838,233.49931 135.42634,231.40726 C 138.91431,229.31521 146.37507,227.38414 151.90089,230.38116 C 157.64388,233.49601 161.74798,239.37283 161.30093,243.79362 C 160.85387,248.21443 158.44755,252.73682 152.14569,253.15065 C 154.2367,249.93477 151.0391,244.91373 146.17273,245.11289 C 141.30638,245.3121 135.24379,249.8503 134.15342,253.41936 C 133.91066,254.214 133.84087,255.12088 133.93311,256.08229 C 132.00181,252.75835 128.95533,250.60988 125.51224,250.60988 C 122.07793,250.60988 119.02349,252.74835 117.09137,256.05789 C 117.18039,255.105 117.11185,254.20759 116.87106,253.41936 C 115.78071,249.8503 109.69365,245.31204 104.82726,245.11289 C 99.960891,244.91373 96.763291,249.93477 98.854321,253.15065 C 92.552459,252.73682 90.170618,248.21443 89.723554,243.79362 C 89.276489,239.37283 93.356124,233.49601 99.099121,230.38116 C 100.89743,229.40581 102.89401,228.93699 104.90071,228.84207 z "
       style="fill:#000000;fill-opacity:1;fill-rule:evenodd;stroke:#000000;stroke-width:1.76470554;stroke-linecap:butt;stroke-linejoin:miter;stroke-miterlimit:4;stroke-dasharray:none;stroke-opacity:1"
       id="Key" />
  </g>
</svg>
