<?xml version="1.0" encoding="UTF-8" standalone="no"?>
<!-- Created with Inkscape (http://www.inkscape.org/) -->
<svg
   xmlns:dc="http://purl.org/dc/elements/1.1/"
   xmlns:cc="http://web.resource.org/cc/"
   xmlns:rdf="http://www.w3.org/1999/02/22-rdf-syntax-ns#"
   xmlns:svg="http://www.w3.org/2000/svg"
   xmlns="http://www.w3.org/2000/svg"
   version="1.0"
   width="251"
   height="304.20001"
   id="svg4166">
  <defs
     id="defs4168" />
  <metadata
     id="metadata1880"><rdf:RDF><cc:Work
         rdf:about=""><dc:title>Avesta kommunvapen</dc:title><dc:date>05-12-2006</dc:date><dc:creator><cc:Agent><dc:title>Lokal_Profil</dc:title></cc:Agent></dc:creator><cc:license
         rdf:resource="http://creativecommons.org/licenses/by-sa/2.5/" /><dc:rights><cc:Agent><dc:title>cc-by-sa-2.5</dc:title></cc:Agent></dc:rights><dc:format>image/svg+xml</dc:format><dc:type
         rdf:resource="http://purl.org/dc/dcmitype/StillImage" /></cc:Work><cc:License
         rdf:about="http://creativecommons.org/licenses/by-sa/2.5/"><cc:permits
         rdf:resource="http://web.resource.org/cc/Reproduction" /><cc:permits
         rdf:resource="http://web.resource.org/cc/Distribution" /><cc:requires
         rdf:resource="http://web.resource.org/cc/Notice" /><cc:requires
         rdf:resource="http://web.resource.org/cc/Attribution" /><cc:permits
         rdf:resource="http://web.resource.org/cc/DerivativeWorks" /><cc:requires
         rdf:resource="http://web.resource.org/cc/ShareAlike" /></cc:License></rdf:RDF>
  </metadata>
  <path
     d="M 249.55058,1.4395041 L 1.4495291,1.4395041 L 1.4495291,174.9361 C 0.68228908,268.65698 81.738969,302.75585 125.50006,302.75585 C 168.49391,302.75585 250.31781,268.65698 249.55058,174.9361 L 249.55058,1.4395041 z "
     style="color:#000000;fill:#eeeeee;fill-opacity:1;stroke:none"
     id="Shield" />
  <path
     d="M 1.461,1.4355102 L 1.461,48.31051 C 11.027643,52.951156 23.41628,60.34795 32.42975,70.71676 C 49.218122,90.029574 37.42263,100.27894 54.211,119.59176 C 70.999382,138.90457 82.797602,128.65395 99.586004,147.96676 C 116.37438,167.27958 104.57888,177.52895 121.36725,196.84176 C 138.15562,216.15457 149.95386,205.90394 166.74225,225.21676 C 183.53063,244.52959 188.49226,274.09176 188.49225,274.09176 C 188.49225,274.09176 190.16402,277.41882 192.86725,281.99801 C 213.59563,268.96279 232.29783,249.26171 242.17975,221.43551 C 229.62157,204.34608 238.9703,194.1848 223.24225,176.09176 C 206.45387,156.77893 194.65563,167.02957 177.86725,147.71676 C 161.07887,128.40396 172.87439,118.15458 156.086,98.84176 C 139.29761,79.52892 127.49937,89.779562 110.711,70.46676 C 93.922604,51.15392 105.74936,40.904585 88.961004,21.59176 C 75.368868,5.9558042 65.027692,9.6903992 52.67975,1.4355102 L 1.461,1.4355102 z "
     style="color:#000000;fill:#003d8f;fill-opacity:1;fill-rule:nonzero;stroke:none;stroke-width:1.88832211;stroke-linecap:round;stroke-linejoin:bevel;marker:none;marker-start:none;marker-mid:none;marker-end:none;stroke-miterlimit:4;stroke-dashoffset:0;stroke-opacity:1;visibility:visible;display:block"
     id="Vagskuren-balk" />
  <g
     id="Mars-symbol">
    <path
       d="M 233.79697,17.978188 L 207.18881,44.438777"
       style="color:#000000;fill:none;fill-opacity:0.75;fill-rule:evenodd;stroke:#d40000;stroke-width:8.5705471;stroke-linecap:butt;stroke-linejoin:miter;marker:none;marker-start:none;marker-mid:none;marker-end:none;stroke-miterlimit:4;stroke-dasharray:none;stroke-dashoffset:0;stroke-opacity:1;visibility:visible;display:inline;overflow:visible"
       id="path26867" />
    <path
       d="M 206.87631,88.635611 C 194.80306,100.6419 175.23608,100.64948 163.17224,88.652542 C 151.10839,76.655604 151.11601,57.197145 163.18926,45.190858 C 175.2625,33.18457 194.82948,33.176989 206.89332,45.173928 C 218.95717,57.170865 218.94955,76.629324 206.87631,88.635611 L 206.87631,88.635611 z "
       style="color:#000000;fill:none;fill-opacity:1;fill-rule:evenodd;stroke:#d40000;stroke-width:8.5705471;stroke-linecap:butt;stroke-linejoin:miter;marker:none;marker-start:none;marker-mid:none;marker-end:none;stroke-miterlimit:4;stroke-dasharray:none;stroke-dashoffset:0;stroke-opacity:1;visibility:visible;display:inline;overflow:visible"
       id="path26871" />
    <path
       d="M 210.81591,18.259205 C 233.48731,18.259205 233.48731,18.259205 233.48731,18.259205 L 233.48731,40.804871"
       style="fill:none;fill-rule:evenodd;stroke:#d40000;stroke-width:8.5705471;stroke-linecap:butt;stroke-linejoin:miter;stroke-miterlimit:4;stroke-dasharray:none;stroke-opacity:1"
       id="path27759" />
  </g>
  <g
     id="Venus-symbol">
    <path
       d="M 98.223824,190.66899 C 98.223824,208.0068 84.20494,222.06187 66.911785,222.06187 C 49.61863,222.06187 35.599746,208.0068 35.599746,190.66899 C 35.599746,173.33119 49.61863,159.27612 66.911785,159.27612 C 84.20494,159.27612 98.223824,173.33119 98.223824,190.66899 z "
       style="color:#000000;fill:none;fill-opacity:1;fill-rule:evenodd;stroke:#d40000;stroke-width:8.55066299;stroke-linecap:butt;stroke-linejoin:miter;marker:none;marker-start:none;marker-mid:none;marker-end:none;stroke-miterlimit:4;stroke-dasharray:none;stroke-dashoffset:0;stroke-opacity:1;visibility:visible;display:inline;overflow:visible"
       id="path3939" />
    <path
       d="M 66.911893,222.06205 L 66.911893,262.01662"
       style="fill:none;fill-opacity:0.75;fill-rule:evenodd;stroke:#d40000;stroke-width:8.55066299;stroke-linecap:butt;stroke-linejoin:miter;stroke-miterlimit:4;stroke-dasharray:none;stroke-opacity:1"
       id="path3941" />
    <path
       d="M 49.832593,244.89323 L 83.991173,244.89323"
       style="fill:none;fill-opacity:0.75;fill-rule:evenodd;stroke:#d40000;stroke-width:8.55066299;stroke-linecap:butt;stroke-linejoin:miter;stroke-miterlimit:4;stroke-dasharray:none;stroke-opacity:1"
       id="path4816" />
  </g>
  <path
     d="M 249.55062,1.4395041 L 1.449569,1.4395041 L 1.449569,174.9361 C 0.68232904,268.65698 81.739009,302.75585 125.5001,302.75585 C 168.49395,302.75585 250.31785,268.65698 249.55062,174.9361 L 249.55062,1.4395041 z "
     style="fill:none;fill-opacity:0;stroke:#000000;stroke-width:1.88832211;stroke-linejoin:bevel"
     id="Frame" />
</svg>
