<?xml version="1.0" encoding="UTF-8" standalone="no"?>
<!-- Created with Inkscape (http://www.inkscape.org/) -->
<svg
   xmlns:svg="http://www.w3.org/2000/svg"
   xmlns="http://www.w3.org/2000/svg"
   xmlns:xlink="http://www.w3.org/1999/xlink"
   version="1.0"
   width="251"
   height="304.04999"
   id="svg2064">
  <defs
     id="defs2066" />
  <path
     d="M 1.4495152,1.2894791 L 125.49999,1.2894791 L 249.55052,1.2894791 L 249.55052,174.78608 C 250.31775,268.50696 169.26109,302.60583 125.50001,302.60583 C 82.506165,302.60583 0.68228597,268.50696 1.4495152,174.78608 L 1.4495152,1.2894791 z "
     style="color:#000000;fill:#003d8f;fill-opacity:1;fill-rule:nonzero;stroke:#000000;stroke-width:1.88832188;stroke-linecap:round;stroke-linejoin:bevel;marker:none;marker-start:none;marker-mid:none;marker-end:none;stroke-miterlimit:4;stroke-dashoffset:0;stroke-opacity:1;visibility:visible;display:block"
     id="path2124" />
  <path
     d="M 1.460627,1.285129 L 1.460627,48.160129 C 11.02727,52.800775 23.415907,60.197569 32.429377,70.566379 C 49.217749,89.879193 37.422257,100.12856 54.210627,119.44138 C 70.999009,138.75419 82.797229,128.50357 99.585627,147.81638 C 116.37401,167.1292 104.57851,177.37857 121.36688,196.69138 C 138.15525,216.00419 149.95349,205.75356 166.74188,225.06638 C 183.53026,244.37921 188.49189,273.94138 188.49188,273.94138 C 188.49188,273.94138 190.16365,277.26844 192.86688,281.84763 C 213.59526,268.81241 232.29746,249.11133 242.17938,221.28513 C 229.6212,204.1957 238.96993,194.03442 223.24188,175.94138 C 206.4535,156.62855 194.65526,166.87919 177.86688,147.56638 C 161.0785,128.25358 172.87402,118.0042 156.08563,98.691379 C 139.29724,79.378539 127.499,89.629181 110.71063,70.316379 C 93.922226,51.003539 105.74899,40.754204 88.960627,21.441379 C 75.368495,5.8054234 65.027319,9.540018 52.679377,1.285129 L 1.460627,1.285129 z "
     style="color:#000000;fill:#eeeeee;fill-opacity:1;fill-rule:nonzero;stroke:none;stroke-width:1.88832211;stroke-linecap:round;stroke-linejoin:bevel;marker:none;marker-start:none;marker-mid:none;marker-end:none;stroke-miterlimit:4;stroke-dashoffset:0;stroke-opacity:1;visibility:visible;display:block"
     id="path1926" />
  <g
     transform="translate(-3.926411,0)"
     id="g4370">
    <g
       transform="matrix(0.516306,0,0,0.516306,-60.39732,-81.00781)"
       id="g1997">
      <g
         style="stroke:#003d8f;stroke-width:1.93683422"
         id="g3346">
        <path
           d="M 554.7,298.6 C 562.8,295.3 569.3,289.3 574.2,280.8 C 576.3,275.8 577.099,269.8 576.599,262.7 C 572.499,245.5 562.4,238.7 546.299,242.3 C 517.699,254.4 505.499,274.8 509.699,303.4 C 512.899,303 516.199,302.5 519.598,301.9 C 518.598,299.7 518.399,297.1 518.998,294.1 C 519.898,289.6 524.598,285.4 532.998,281.4 C 537.098,280.1 540.698,280.7 543.898,283.4 C 547.597,287.9 547.698,291.9 544.097,295.3 C 541.997,296.8 540.797,299.3 540.597,302.7 C 540.898,305.5 542.597,307.7 545.597,309.2 C 548.297,310.5 549.597,310 549.797,307.6 C 549.6,303.2 551.1,300.2 554.7,298.6 z "
           style="fill:#ffcd50;fill-opacity:1;stroke:#003d8f;stroke-width:1.93683422;stroke-opacity:1"
           id="path2684" />
        <path
           d="M 509.1,187.6 C 505.701,185.2 503.901,182.1 503.8,178.5 C 503.6,175.9 502.2,174.5 499.6,174.2 C 497,174.5 495.7,175.9 495.5,178.5 C 495.4,182.1 493.6,185.2 490.1,187.6 C 482.8,194.1 478.6,204.4 477.6,218.5 C 477.4,234.3 480.9,248.5 488.1,261.1 C 495.2,275.8 497.3,290.1 494.3,303.9 C 495.2,304 496.1,304.1 496.9,304.1 C 497,304.1 497.1,304.1 497.1,304.1 L 502.1,304.1 C 502.201,304.1 502.3,304.1 502.3,304.1 C 503.2,304.1 504.1,304 505,303.9 C 502,290.1 504.1,275.8 511.2,261.1 C 518.3,248.5 521.8,234.3 521.7,218.5 C 520.6,204.4 516.5,194.1 509.1,187.6 z "
           style="fill:#ffcd50;fill-opacity:1;stroke:#003d8f;stroke-width:1.93683422;stroke-opacity:1"
           id="path2686" />
        <path
           d="M 455.1,295.3 C 451.5,291.9 451.6,287.9 455.3,283.4 C 458.5,280.7 462.2,280.1 466.2,281.4 C 474.7,285.4 479.4,289.6 480.3,294.1 C 480.8,297.1 480.6,299.7 479.7,301.9 C 483.1,302.5 486.3,303 489.6,303.4 L 489.6,303.3 C 493.8,274.8 481.6,254.5 453,242.3 C 436.8,238.7 426.7,245.5 422.7,262.7 C 422.2,269.8 423,275.8 425.1,280.8 C 430,289.3 436.5,295.3 444.6,298.6 C 448.1,300.2 449.7,303.2 449.4,307.6 C 449.6,310 451,310.5 453.7,309.2 C 456.7,307.7 458.3,305.5 458.7,302.7 C 458.4,299.3 457.3,296.8 455.1,295.3 z "
           style="fill:#ffcd50;fill-opacity:1;stroke:#003d8f;stroke-width:1.93683422;stroke-opacity:1"
           id="path2688" />
        <path
           d="M 450.2,323.7 C 449.5,331.2 453.1,335.5 461.1,336.6 C 467.8,337 473.4,335.9 477.9,333.5 C 472.8,332.6 468.9,330.4 466,326.9 C 465,325.6 464.1,324.2 463.4,322.6 C 466,320.8 466.7,319.4 465.4,318.1 C 464,316.4 461.4,315.5 457.8,315.5 C 453.8,316.1 451.3,318.9 450.2,323.7 z "
           style="fill:#ffcd50;fill-opacity:1;stroke:#003d8f;stroke-width:1.93683422;stroke-opacity:1"
           id="path2690" />
        <path
           d="M 509.7,303.4 C 508.099,303.6 506.5,303.8 505,303.9 C 504.1,304 503.2,304.1 502.3,304.1 C 502.3,304.1 502.2,304.1 502.1,304.1 L 497.1,304.1 C 497.1,304.1 497,304.1 496.9,304.1 C 496.1,304.1 495.2,304 494.3,303.9 C 492.8,303.8 491.2,303.6 489.6,303.4 C 486.3,303 483.1,302.5 479.7,301.9 C 479.7,301.9 479.7,301.9 479.7,302 L 479.7,301.9 C 479.7,301.9 479.6,301.8 479.4,301.8 C 478.3,301.5 477.2,301.3 476,301.1 C 474.6,301.1 473.7,301.7 473.4,302.7 C 472.9,303.6 473.4,304.5 474.7,305.6 C 482.9,306.9 490.4,307.6 497.3,307.7 C 497.8,307.7 498.4,307.7 499,307.7 L 500.2,307.7 C 500.8,307.7 501.4,307.7 502,307.7 C 508.8,307.6 516.4,306.9 524.6,305.6 C 525.901,304.5 526.3,303.6 525.901,302.7 C 525.6,301.7 524.6,301.1 523.201,301.1 C 522.1,301.3 521.001,301.5 519.901,301.8 C 519.6,301.8 519.6,301.9 519.6,301.9 L 519.6,302 C 519.6,301.9 519.6,301.9 519.6,301.9 C 516.2,302.5 512.9,303 509.7,303.4 z "
           style="fill:#ffcd50;fill-opacity:1;stroke:#003d8f;stroke-width:1.93683422;stroke-opacity:1"
           id="path2692" />
        <path
           d="M 532.2,307.4 C 531.599,305.7 530.3,304.9 528.099,304.9 C 526.9,305.2 525.799,305.4 524.599,305.6 C 516.4,306.9 508.799,307.6 501.999,307.7 C 501.399,307.7 500.799,307.7 500.199,307.7 L 499,307.7 C 498.4,307.7 497.8,307.7 497.3,307.7 C 490.4,307.6 482.9,306.9 474.7,305.6 C 473.5,305.4 472.3,305.2 471.2,304.9 C 469,304.9 467.6,305.7 467,307.4 C 466.7,308.9 467.1,309.8 468.3,310.2 C 469.1,310.4 470.9,310.8 473.5,311.4 C 474.9,311.7 476.6,312.1 478.5,312.5 C 483.2,313.5 489.4,314.1 497.3,314.4 C 498,314.4 498.8,314.4 499.6,314.5 C 500.4,314.4 501.2,314.4 502,314.4 C 509.9,314.1 516.1,313.5 520.8,312.5 C 522.6,312.1 524.3,311.7 525.8,311.4 C 528.401,310.8 530.1,310.4 530.901,310.2 C 532.1,309.8 532.6,308.9 532.2,307.4 z "
           style="fill:#ffcd50;fill-opacity:1;stroke:#003d8f;stroke-width:1.93683422;stroke-opacity:1"
           id="path2694" />
        <path
           d="M 498.9,319.2 L 500.4,319.2 C 501,319.2 501.5,319.2 502.2,319.1 C 503,319.1 503.9,319 504.9,319 L 505,319 C 506.5,318.8 508.3,318.7 510.2,318.5 C 513.099,318.2 516.4,317.8 520.099,317.3 C 521.599,317 523.299,316.8 524.999,316.6 C 526.599,316.3 527.399,315.5 527.499,314.1 C 527.599,313.2 526.999,312.3 525.799,311.4 C 524.299,311.7 522.599,312.1 520.799,312.5 C 516.099,313.5 509.9,314.1 501.999,314.4 C 501.199,314.4 500.399,314.4 499.599,314.5 C 498.799,314.4 497.999,314.4 497.299,314.4 C 489.399,314.1 483.199,313.5 478.499,312.5 C 476.599,312.1 474.899,311.7 473.499,311.4 C 472.299,312.3 471.699,313.2 471.699,314.1 C 471.799,315.5 472.699,316.3 474.299,316.6 C 475.999,316.8 477.599,317 479.199,317.3 C 482.899,317.8 486.199,318.2 488.999,318.5 C 490.999,318.7 492.799,318.8 494.299,319 C 495.299,319 496.299,319.1 497.099,319.1 C 497.7,319.2 498.3,319.2 498.9,319.2 z "
           style="fill:#ffcd50;fill-opacity:1;stroke:#003d8f;stroke-width:1.93683422;stroke-opacity:1"
           id="path2696" />
        <path
           d="M 500.4,319.2 L 498.9,319.2 C 498.3,319.2 497.7,319.2 497.1,319.1 C 496.3,319.1 495.3,319 494.3,319 C 492,328.5 485,335.7 473.5,340.5 L 473.5,340.6 C 481.6,345.3 487.6,344.5 491.6,338.1 C 492.5,336.6 493.3,334.8 493.9,332.7 C 494.3,334.7 494,336.4 493.2,337.7 C 493,338.1 492.7,338.4 492.5,338.8 C 491,341.2 490.3,343.7 490.6,346.3 C 491.2,349.5 492.9,351.7 495.8,352.9 C 495.9,357.3 497.1,361 499.5,364.2 L 499.8,364.2 C 502.1,361 503.3,357.3 503.5,352.9 C 506.3,351.7 508.1,349.5 508.7,346.3 C 509,343.7 508.3,341.2 506.8,338.8 C 506.5,338.4 506.3,338.1 506,337.7 C 505.2,336.4 505,334.7 505.3,332.7 C 506,334.8 506.8,336.6 507.7,338.1 C 511.599,344.5 517.599,345.3 525.8,340.6 L 525.8,340.5 C 514.2,335.7 507.3,328.5 505,319 L 504.9,319 C 503.9,319 503,319.1 502.2,319.1 C 501.5,319.2 501,319.2 500.4,319.2 z "
           style="fill:#ffcd50;fill-opacity:1;stroke:#003d8f;stroke-width:1.93683422;stroke-opacity:1"
           id="path2698" />
        <path
           d="M 466,326.9 C 468.9,330.4 472.8,332.6 477.9,333.5 C 483.3,330.6 487,325.6 489,318.5 C 486.2,318.2 482.9,317.8 479.2,317.3 C 477.6,322 473.3,325.2 466,326.9 z "
           style="fill:#ffcd50;fill-opacity:1;stroke:#003d8f;stroke-width:1.93683422;stroke-opacity:1"
           id="path2700" />
        <path
           d="M 473.5,340.5 L 473.4,340.6 C 473.5,340.6 473.5,340.6 473.5,340.6 L 473.5,340.5 z "
           style="fill:#ffcd50;fill-opacity:1;stroke:#003d8f;stroke-width:1.93683422;stroke-opacity:1"
           id="path2702" />
        <path
           d="M 541.5,315.5 C 537.8,315.5 535.3,316.4 533.9,318.1 C 532.599,319.4 533.299,320.8 535.9,322.6 C 535.099,324.2 534.299,325.6 533.299,326.9 C 530.4,330.4 526.499,332.6 521.4,333.5 C 525.9,335.9 531.4,337 538.099,336.6 C 546.099,335.5 549.799,331.2 549.099,323.7 C 548,318.9 545.4,316.1 541.5,315.5 z "
           style="fill:#ffcd50;fill-opacity:1;stroke:#003d8f;stroke-width:1.93683422;stroke-opacity:1"
           id="path2704" />
        <path
           d="M 520.1,317.3 C 516.401,317.8 513.1,318.2 510.201,318.5 C 512.201,325.6 516.001,330.6 521.401,333.5 C 526.501,332.6 530.401,330.4 533.3,326.9 C 526,325.2 521.6,322 520.1,317.3 z "
           style="fill:#ffcd50;fill-opacity:1;stroke:#003d8f;stroke-width:1.93683422;stroke-opacity:1"
           id="path2706" />
      </g>
    </g>
    <use
       transform="translate(-136.2971,149.9838)"
       id="use4368"
       x="0"
       y="0"
       width="251"
       height="304.04999"
       xlink:href="#g1997" />
  </g>
  <g
     transform="matrix(0.402264,-0.302695,0.302695,0.402264,123.2176,9.133574)"
     id="g4694">
    <path
       d="M -152.42825,210.0929 C -152.42422,254.87465 -158.38325,291.19045 -165.73548,291.19045 C -173.0877,291.19045 -179.04673,254.87465 -179.0427,210.0929 C -179.04673,165.31115 -173.0877,128.99535 -165.73548,128.99535 C -158.38325,128.99535 -152.42422,165.31115 -152.42825,210.0929 L -152.42825,210.0929 z "
       transform="matrix(1.257947,0,0,1,60.8972,0)"
       style="fill:#003d8f;fill-opacity:1;stroke:none;stroke-width:5;stroke-miterlimit:4;stroke-dasharray:none;stroke-opacity:1"
       id="path4632" />
    <g
       transform="matrix(0.712492,0,0,1,-68.9401,-23.38846)"
       id="g4654">
      <path
         d="M -110.38593,249.84625 C -108.94445,241.72956 -108.23219,235.4714 -106.74928,227.46251 C -104.5306,231.56686 -103.59088,233.20697 -99.76286,240.65101 C -96.03289,247.90433 -90.67505,258.21571 -87.85652,263.56517 C -82.75763,273.24271 -82.72949,273.28084 -82.23989,271.17814 C -81.96927,270.01583 -81.69713,267.43948 -81.63514,265.45292 C -81.37856,257.23071 -80.0727,248.89587 -78.95812,248.36665 C -78.69959,248.24389 -73.23675,258.64817 -66.81849,271.48729 L -53.90995,297.44052 C -52.78294,293.52396 -51.93513,291.2093 -50.43925,285.13706 C -48.39716,292.86816 -48.44536,301.26572 -47.79991,309.27036 C -47.41516,313.97118 -47.18904,317.77805 -47.29742,317.73011 C -55.36827,309.88796 -55.676,309.48209 -72.27588,294.61621 C -62.82402,298.85926 -63.87875,298.22734 -59.13078,299.91888 C -58.86428,299.79317 -62.91629,292.20832 -67.38192,282.80337 C -71.84756,273.39843 -75.6415,265.77007 -75.81289,265.85144 C -75.9843,265.93283 -77.01054,272.20253 -78.09345,279.78412 L -80.06237,293.56883 L -90.63268,272.49277 C -96.44635,260.90093 -102.06692,249.57563 -102.67467,248.55945 C -103.37504,252.10889 -105.86986,266.1671 -107.42759,271.44074"
         style="fill:#003d8f"
         id="path4612" />
      <path
         d="M -110.38593,249.84625 C -111.82741,241.72956 -112.53967,235.4714 -114.02258,227.46251 C -116.24126,231.56686 -117.18098,233.20697 -121.009,240.65101 C -124.73897,247.90433 -130.09681,258.21571 -132.91534,263.56517 C -138.01423,273.24271 -138.04237,273.28084 -138.53197,271.17814 C -138.80259,270.01583 -139.07473,267.43948 -139.13672,265.45292 C -139.3933,257.23071 -140.69916,248.89587 -141.81374,248.36665 C -142.07227,248.24389 -147.53511,258.64817 -153.95337,271.48729 L -166.86191,297.44052 C -167.98892,293.52396 -168.83673,291.2093 -170.33261,285.13706 C -172.3747,292.86816 -172.3265,301.26572 -172.97195,309.27036 C -173.3567,313.97118 -173.58282,317.77805 -173.47444,317.73011 C -165.40359,309.88796 -165.09586,309.48209 -148.49598,294.61621 C -157.94784,298.85926 -156.89311,298.22734 -161.64108,299.91888 C -161.90758,299.79317 -157.85557,292.20832 -153.38994,282.80337 C -148.9243,273.39843 -145.13036,265.77007 -144.95897,265.85144 C -144.78756,265.93283 -143.76132,272.20253 -142.67841,279.78412 L -140.70949,293.56883 L -130.13918,272.49277 C -124.32551,260.90093 -118.70494,249.57563 -118.09719,248.55945 C -117.39682,252.10889 -114.902,266.1671 -113.34427,271.44074"
         style="fill:#003d8f"
         id="path4634" />
    </g>
    <g
       transform="matrix(0.712492,0,0,1,-26.99253,0)"
       id="g4650">
      <path
         d="M -169.26033,163.88754 C -167.81885,172.00423 -167.10659,178.26239 -165.62368,186.27128 C -163.405,182.16693 -162.46528,180.52682 -158.63726,173.08278 C -154.90729,165.82946 -149.54945,155.51808 -146.73092,150.16862 C -141.63203,140.49108 -141.60389,140.45295 -141.11429,142.55565 C -140.84367,143.71796 -140.57153,146.29431 -140.50954,148.28087 C -140.25296,156.50308 -138.9471,164.83792 -137.83252,165.36714 C -137.57399,165.4899 -132.11115,155.08562 -125.69289,142.2465 L -112.78435,116.29327 C -111.65734,120.20983 -110.80953,122.52449 -109.31365,128.59673 C -107.27156,120.86563 -107.31976,112.46807 -106.67431,104.46344 C -106.28956,99.762619 -106.06344,95.955749 -106.17182,96.003689 C -114.24267,103.84584 -114.5504,104.25171 -131.15028,119.11758 C -121.69842,114.87453 -122.75315,115.50645 -118.00518,113.81491 C -117.73868,113.94062 -121.79069,121.52547 -126.25632,130.93042 C -130.72196,140.33536 -134.5159,147.96372 -134.68729,147.88235 C -134.8587,147.80096 -135.88494,141.53126 -136.96785,133.94967 L -138.93677,120.16496 L -149.50708,141.24102 C -155.32075,152.83286 -160.94132,164.15816 -161.54907,165.17434 C -162.24944,161.6249 -164.74426,147.56669 -166.30199,142.29305"
         style="fill:#003d8f"
         id="path4636" />
      <path
         d="M -169.26033,163.88755 C -170.70181,172.00424 -171.41407,178.26239 -172.89698,186.27128 C -175.11566,182.16693 -176.05538,180.52682 -179.8834,173.08278 C -183.61337,165.82947 -188.97121,155.51809 -191.78974,150.16863 C -196.88863,140.49109 -196.91677,140.45296 -197.40637,142.55566 C -197.67699,143.71797 -197.94913,146.29432 -198.01112,148.28088 C -198.2677,156.50309 -199.57356,164.83793 -200.68814,165.36715 C -200.94667,165.48991 -206.40951,155.08563 -212.82777,142.24651 L -225.73631,116.29328 C -226.86332,120.20984 -227.71113,122.5245 -229.20701,128.59674 C -231.2491,120.86564 -231.2009,112.46808 -231.84635,104.46344 C -232.2311,99.762624 -232.45722,95.955754 -232.34884,96.003694 C -224.27799,103.84584 -223.97026,104.25171 -207.37038,119.11759 C -216.82224,114.87454 -215.76751,115.50646 -220.51548,113.81492 C -220.78198,113.94063 -216.72997,121.52548 -212.26434,130.93043 C -207.7987,140.33537 -204.00476,147.96373 -203.83337,147.88236 C -203.66196,147.80097 -202.63572,141.53127 -201.55281,133.94968 L -199.58389,120.16497 L -189.01358,141.24103 C -183.19991,152.83287 -177.57934,164.15817 -176.97159,165.17435 C -176.27122,161.62491 -173.7764,147.5667 -172.21867,142.29306"
         style="fill:#003d8f"
         id="path4638" />
    </g>
    <g
       transform="matrix(0.712492,0,0,1,-30.16209,-47.58342)"
       id="g4662">
      <path
         d="M -164.81178,306.46751 C -164.55325,306.34475 -159.09041,316.74903 -152.67215,329.58815 L -139.76361,355.54138 C -138.6366,351.62482 -137.78879,349.31016 -136.29291,343.23792 C -134.25082,350.96902 -134.29902,359.36658 -133.65357,367.37122 C -133.26882,372.07204 -133.0427,375.87891 -133.15108,375.83097 C -141.22193,367.98882 -141.52966,367.58295 -158.12954,352.71707 C -148.67768,356.96012 -149.73241,356.3282 -144.98444,358.01974 C -144.71794,357.89403 -148.76995,350.30918 -153.23558,340.90423 C -157.70122,331.49929 -161.49516,323.87093 -161.66655,323.9523"
         style="fill:#003d8f"
         id="path4642" />
      <path
         d="M -164.81178,306.46751 C -165.07031,306.34475 -170.53315,316.74903 -176.95141,329.58815 L -189.85995,355.54138 C -190.98696,351.62482 -191.83477,349.31016 -193.33065,343.23792 C -195.37274,350.96902 -195.32454,359.36658 -195.96999,367.37122 C -196.35474,372.07204 -196.58086,375.87891 -196.47248,375.83097 C -188.40163,367.98882 -188.0939,367.58295 -171.49402,352.71707 C -180.94588,356.96012 -179.89115,356.3282 -184.63912,358.01974 C -184.90562,357.89403 -180.85361,350.30918 -176.38798,340.90423 C -171.92234,331.49929 -168.1284,323.87093 -167.95701,323.9523"
         style="fill:#003d8f"
         id="path4644" />
    </g>
    <g
       transform="matrix(0.712492,0,0,1,-11.77412,56.4549)"
       id="g4658">
      <path
         d="M -190.61973,92.749315 C -190.87826,92.872075 -196.3411,82.467795 -202.75936,69.628675 L -215.6679,43.675449 C -216.79491,47.592005 -217.64272,49.906665 -219.1386,55.978905 C -221.18069,48.247805 -221.13249,39.850249 -221.77794,31.845609 C -222.16269,27.144789 -222.38881,23.337919 -222.28043,23.385859 C -214.20958,31.228009 -213.90185,31.633879 -197.30197,46.499759 C -206.75383,42.256709 -205.6991,42.888629 -210.44707,41.197089 C -210.71357,41.322799 -206.66156,48.907645 -202.19593,58.312595 C -197.73029,67.717535 -193.93635,75.345895 -193.76496,75.264525"
         style="fill:#003d8f"
         id="path4646" />
      <path
         d="M -190.61973,92.749318 C -190.3612,92.872078 -184.89836,82.467798 -178.4801,69.628678 L -165.57156,43.675448 C -164.44455,47.592008 -163.59674,49.906668 -162.10086,55.978908 C -160.05877,48.247808 -160.10697,39.850248 -159.46152,31.845608 C -159.07677,27.144786 -158.85065,23.337916 -158.95903,23.385856 C -167.02988,31.228008 -167.33761,31.633878 -183.93749,46.499758 C -174.48563,42.256708 -175.54036,42.888628 -170.79239,41.197088 C -170.52589,41.322798 -174.5779,48.907648 -179.04353,58.312598 C -183.50917,67.717538 -187.30311,75.345898 -187.4745,75.264528"
         style="fill:#003d8f"
         id="path4648" />
    </g>
  </g>
  <path
     d="M 1.4495152,1.2894791 L 125.49999,1.2894791 L 249.55052,1.2894791 L 249.55052,174.78608 C 250.31775,268.50696 169.26109,302.60583 125.50001,302.60583 C 82.506165,302.60583 0.68228597,268.50696 1.4495152,174.78608 L 1.4495152,1.2894791 z "
     style="color:#000000;fill:none;fill-opacity:1;fill-rule:nonzero;stroke:#000000;stroke-width:1.88832188;stroke-linecap:round;stroke-linejoin:bevel;marker:none;marker-start:none;marker-mid:none;marker-end:none;stroke-miterlimit:4;stroke-dashoffset:0;stroke-opacity:1;visibility:visible;display:block"
     id="Frame" />
</svg>
