<!-- Created with Inkscape (http://www.inkscape.org/) -->
<svg xmlns:rdf="http://www.w3.org/1999/02/22-rdf-syntax-ns#" xmlns="http://www.w3.org/2000/svg" height="300" width="248" version="1.0" xmlns:cc="http://creativecommons.org/ns#" xmlns:xlink="http://www.w3.org/1999/xlink" xmlns:dc="http://purl.org/dc/elements/1.1/">
 <defs>
  <radialGradient id="radialGradient4554" gradientUnits="userSpaceOnUse" cy="86.199" cx="14.366" r="6.9628">
   <stop stop-color="#59F" offset="0"/>
   <stop stop-color="#003d8f" offset="1"/>
  </radialGradient>
 </defs>
 <metadata>
  <rdf:RDF>
   <cc:Work rdf:about="">
    <dc:format>image/svg+xml</dc:format>
    <dc:type rdf:resource="http://purl.org/dc/dcmitype/StillImage"/>
    <dc:title/>
   </cc:Work>
  </rdf:RDF>
 </metadata>
 <path d="m247,1.0001,0,214.77c0,82.42-84.912,44.012-123,82.791-38.089-38.77-123-0.37-123-82.79v-214.77z" stroke="#000" stroke-dasharray="none" stroke-miterlimit="4" stroke-width="2" fill="#FFF"/>
 <path d="m124,136.06v162.5c-38.09-38.78-123-0.36-123-82.78v-79.72h123z" fill="#000"/>
 <path stroke-miterlimit="4" d="m247,1.0001,0,214.77c0,82.42-84.912,44.012-123,82.791-38.089-38.77-123-0.37-123-82.79v-214.77z" fill="none"/>
 <path d="m124,1,0,135.06,123,0v-135.06h-123z" fill="#000"/>
 <path id="path4488" transform="matrix(0.93352641,0,0,0.93352641,3.8901881,-64.133189)" fill="url(#radialGradient4554)" d="m23.087,88.549a6.9628,6.9628,0,1,1,-13.926,0,6.9628,6.9628,0,1,1,13.926,0z"/>
 <use xlink:href="#path4488" transform="translate(43.557182,-2.7405321e-7)" height="300" width="248" y="0" x="0"/>
 <use xlink:href="#path4488" transform="translate(87.114365,-2.7405321e-7)" height="300" width="248" y="0" x="0"/>
 <use xlink:href="#path4488" transform="translate(0,50)" height="300" width="248" y="0" x="0"/>
 <use xlink:href="#path4488" transform="translate(0,100)" height="300" width="248" y="0" x="0"/>
 <use xlink:href="#path4488" transform="translate(21.778593,25)" height="300" width="248" y="0" x="0"/>
 <use xlink:href="#path4488" transform="translate(65.335774,25)" height="300" width="248" y="0" x="0"/>
 <use xlink:href="#path4488" transform="translate(21.778593,75)" height="300" width="248" y="0" x="0"/>
 <use xlink:href="#path4488" transform="translate(65.335774,75)" height="300" width="248" y="0" x="0"/>
 <use xlink:href="#path4488" transform="translate(43.557182,50)" height="300" width="248" y="0" x="0"/>
 <use xlink:href="#path4488" transform="translate(43.557182,100)" height="300" width="248" y="0" x="0"/>
 <use xlink:href="#path4488" transform="translate(87.114365,50)" height="300" width="248" y="0" x="0"/>
 <use xlink:href="#path4488" transform="translate(87.114365,100)" height="300" width="248" y="0" x="0"/>
 <g transform="translate(119,133.06)">
  <use xlink:href="#path4488" transform="translate(43.557182,-2.7405321e-7)" height="300" width="248" y="0" x="0"/>
  <use xlink:href="#path4488" transform="translate(87.114365,-2.7405321e-7)" height="300" width="248" y="0" x="0"/>
  <use xlink:href="#path4488" transform="translate(0,50)" height="300" width="248" y="0" x="0"/>
  <use xlink:href="#path4488" transform="translate(0,100)" height="300" width="248" y="0" x="0"/>
  <use xlink:href="#path4488" transform="translate(21.778593,25)" height="300" width="248" y="0" x="0"/>
  <use xlink:href="#path4488" transform="translate(65.335774,25)" height="300" width="248" y="0" x="0"/>
  <use xlink:href="#path4488" transform="translate(21.778593,75)" height="300" width="248" y="0" x="0"/>
  <use xlink:href="#path4488" transform="translate(65.335774,75)" height="300" width="248" y="0" x="0"/>
  <use xlink:href="#path4488" transform="translate(43.557182,50)" height="300" width="248" y="0" x="0"/>
  <use xlink:href="#path4488" transform="translate(43.557182,100)" height="300" width="248" y="0" x="0"/>
  <use xlink:href="#path4488" transform="translate(87.114365,50)" height="300" width="248" y="0" x="0"/>
  <use xlink:href="#path4488" transform="translate(87.114365,100)" height="300" width="248" y="0" x="0"/>
  <use xlink:href="#path4488" height="300" width="248" y="0" x="0"/>
 </g>
 <path fill="#d40000" d="m102.76,85.038c1.7646,2.1797,4.6864,6.2518,5.5146,8.2615,0.98165,2.478,0.37347,5.4694,0,8.0409-0.37408,2.945-1.0752,5.7029-1.6834,8.5079-0.84107,3.786-2.1504,7.7132-4.6277,10.845-0.98165,1.3087-1.8233,2.4303-2.805,3.599l4.4877,1.5898c0.32763-1.3557,0.60818-2.1503,1.7763-2.4309,1.8233,1.7292,2.1039,1.0752,2.1974-1.3557,0.0465-1.2158,0.32701-1.7763,0.51405-2.992,1.1687-6.451,2.992-12.481,4.9083-18.558,0.9352-3.0391,2.0568-5.937,2.1039-8.7884,0.13997-3.4596-2.0104-3.7866-3.0856-5.6564-0.60757-1.0287-0.84106-2.5709-0.79461-4.3942,0.14059-3.0855,0.9352-4.4877,2.2439-7.0122,0.88813-1.8227,1.4492-3.786,1.8233-5.7499,0.70109-3.5055,0.70109-7.0115-0.18704-10.658,0.4676,0.23411,1.1216,0.84168,1.5892,0.60818,1.0752-0.56112,0.56112-2.5244-0.4676-3.7866-3.4126-4.2072-7.5727-7.4791-13.697-8.1338-6.8716-0.79461-13.556-0.65464-20.522-0.88813-5.7493-0.18704-8.2279-2.0397-11.36-4.3771-3.2255-2.3845-6.0446-3.7139-9.4418-4.1308-9.3159-1.143-9.888,3.8386-19.57-3.7445l-0.0636-0.02262c1.0611-0.76527,2.467-1.731,3.2218-2.5849,1.3741-1.467,0.0281-3.4871-2.0464-3.3954-2.6791,0.12164-8.1686,0.82579-9.7939,2.901l-0.20355-0.07274-4.4095,0.66075c-2.9572,0.80073-5.8918,1.9975-8.8098,2.5214-6.2774,1.607-12.957,2.8038-13.598,10.098,0.0727,1.4016-0.0446,2.8123,2.9474,3.1785,1.4902,1.761,3.3184,2.4841,5.8257,1.085,0.20599-0.1143,0.40403-0.24939,0.5984-0.3918,1.2329,0.42909,1.066,1.654,1.1583,2.7212,0.27323,4.0061,0.0135,8.0207,3.9272,8.0996-0.18276,2.0153,0.39975,4.0923,1.7634,6.0806,1.0752,1.4957,2.6179,0.98165,3.132-1.3557,0.56112-2.7115,0.70109-5.0018,1.1216-7.4798,0.37408-2.1968,0.4676-4.4407,0.37408-6.6845,2.8025,3.7597,6.797,10.71,13.128,12.426,0.74816,4.0672,4.8227,12.376,8.8893,14.106l0.0281-0.05562c1.5165,4.6546,4.2799,8.6448,4.8337,13.472,0.28056,2.4309-0.23349,5.0018,0,7.9003,0.18704,2.4309,0.79461,4.5342,0.84168,7.0586,0.18643,8.1338-1.5898,15.192-5.2359,21.878l4.8147,1.3551c0.32763-0.7011,0.14059-1.7763,0.23411-3.3184,3.0849,1.3087,2.8979,1.2151,2.9914-0.70171,0.14059-3.646,0.42115-12.481,0.60758-18.886,0.0935-3.1785,0.79522-4.7212,1.2158-7.6197,0.42053-2.3838,0.28056-5.4223-0.18704-7.8062-0.41137-2.0324-0.0159-4.1644,0.47738-6.286l0.0837,0.11491c1.7292,3.319,2.2439,7.7133,2.9914,11.173,0.51466,2.3838,1.3557,4.4407,1.7298,6.918,1.2152,8.0409,1.9168,15.567-0.84168,22.626l4.3942,1.6827c0.23411-0.70109,0.4676-2.7115,0.37408-4.2542,3.1791,0.9352,2.992,0.84168,2.8514-1.0752-0.32701-3.646-2.5244-12.481-3.132-18.886-0.32701-3.132-0.18703-4.4877-0.13997-7.4327,0.0464-1.4957-0.18704-2.9914-0.51405-4.4877,0.23349-3.0849-0.0935-6.264-0.56112-9.4895l0.15648-0.22738c6.7952-0.71943,13.677-2.4529,20.057-3.6992,1.1222-0.23349,1.1222,1.5898,2.2909,1.4963,0.51283-0.04951,1.1064-0.21638,1.7378-0.43337l-0.009,0.10574c0.42115,2.3374,1.2158,4.3478,2.0568,5.797,4.1607,7.5256,3.0385,9.723-0.32702,17.857-1.4022,3.7396-3.4126,7.2927-5.7964,11.126-2.665,4.3007-5.937,8.882-7.4798,10.518l4.1607,1.4963c0.65402-1.2622,1.2622-3.0385,2.4774-2.992,1.4957,1.4493,1.5892,1.5428,2.1039-0.18704,1.1216-8.7414,6.731-14.258,12.06-21.784,2.992-2.5238,4.3007-6.0299,3.1784-9.0219l-0.60574-4.6155z" fill-rule="evenodd"/>
 <path d="m32.605,37.846c0.24572,3.2983,0.18093,5.9639-1.0244,7.5586-3.0837,3.9694-10.809,0.761-14.15,1.2396-1.0324,0.14242-1.775,1.0562-2.6815,1.5581-2.5073,1.3991-4.3355,0.67603-5.8257-1.085-2.992-0.36613-2.8747-1.7769-2.9474-3.1785,0.6412-7.2939,7.3208-8.4908,13.598-10.098,2.9181-0.52383,5.8526-1.7206,8.8098-2.5214,0.25122,0.41137,0.43398,0.88263,0.5275,1.4383,0.22922,1.3337,3.4511,0.73777,3.4798-0.45232-0.0171-0.67359,0.13264-1.2194,0.40219-1.6467m8.8856,3.1748c9.6821,7.5831,10.254,2.6014,19.57,3.7445,3.3973,0.41687,6.2163,1.7463,9.4418,4.1308,3.132,2.3374,5.6106,4.1901,11.36,4.3771,6.9657,0.2335,13.65,0.09352,20.522,0.88813,6.124,0.65464,10.284,3.9266,13.697,8.1338,1.0287,1.2622,1.5428,3.2255,0.4676,3.7866-0.4676,0.23349-1.1216-0.37408-1.5892-0.60818,0.88813,3.6467,0.88813,7.1527,0.18704,10.658-0.37408,1.9639-0.9352,3.9272-1.8233,5.7499-1.3087,2.5244-2.1033,3.9266-2.2439,7.0122-0.0464,1.8233,0.18704,3.3655,0.79461,4.3942,1.0752,1.8698,3.2255,2.1968,3.0856,5.6564-0.0471,2.8514-1.1687,5.7493-2.1039,8.7884-1.9162,6.077-3.7396,12.107-4.9083,18.558-0.18704,1.2158-0.4676,1.7763-0.51405,2.992-0.0935,2.4309-0.37408,3.0849-2.1974,1.3557-1.1681,0.28056-1.4486,1.0752-1.7763,2.4309l-4.4877-1.5898c0.98165-1.1687,1.8233-2.2903,2.805-3.599,2.4774-3.132,3.7866-7.0592,4.6277-10.845,0.60818-2.805,1.3093-5.5629,1.6834-8.5079,0.37347-2.5715,0.98165-5.5629,0-8.0409-0.98166-2.3838-4.9089-7.6662-6.3575-9.2554-2.665-2.945-5.797-9.069-6.6381-13.136-0.74816-3.8802,2.1033-8.3679,0.4676-12.107m-75.003-0.182c-4.2542,0.14059-3.9712-3.9835-4.2518-8.0971-0.0935-1.0752,0.077-2.3099-1.1852-2.731m6.4186,7.0421c-1.9168,3.0849-1.7867,6.5965,0.45721,9.8691,1.0752,1.4957,2.6179,0.98165,3.132-1.3557,0.56112-2.7115,0.70109-5.0018,1.1216-7.4798,0.37408-2.1968,0.4676-4.4407,0.37408-6.6845,2.8025,3.7597,6.797,10.71,13.128,12.426,0.74816,4.0672,4.8227,12.376,8.8893,14.106m42.091,1.1216c0.42115,2.3374,1.2158,4.3478,2.0568,5.797,4.1607,7.5256,3.0385,9.723-0.32702,17.857-1.4022,3.7396-3.4126,7.2927-5.7964,11.126-2.665,4.3007-5.937,8.882-7.4798,10.518l4.1607,1.4963c0.65402-1.2622,1.2622-3.0385,2.4774-2.992,1.4957,1.4493,1.5892,1.5428,2.1039-0.18704,1.1216-8.7414,6.731-14.258,12.06-21.784,2.992-2.5238,4.3007-6.0299,3.1784-9.0219l-0.60757-4.6277m-40.736-5.34c8.3208-0.18704,16.988-2.4774,24.889-4.0201,1.1222-0.23349,1.1222,1.5898,2.2909,1.4963,1.9633-0.18704,5.0953-2.1039,7.0586-1.9639m-29.565,4.395c0.4676,3.2255,0.79461,6.4046,0.56112,9.4895,0.32701,1.4963,0.5605,2.992,0.51405,4.4877-0.0471,2.945-0.18704,4.3007,0.13997,7.4327,0.60758,6.4046,2.805,15.239,3.132,18.886,0.14059,1.9169,0.32763,2.0104-2.8514,1.0752,0.0935,1.5428-0.13997,3.5531-0.37408,4.2542l-4.3942-1.6827c2.7585-7.0586,2.0568-14.585,0.84168-22.626-0.37408-2.4774-1.2152-4.5342-1.7298-6.918-0.74755-3.4596-1.2622-7.8538-2.9914-11.173m7.6662-20.708c-0.88813,3.6461-1.4492,7.2921-1.4492,11.125,0,3.4126-3.8227,6.429-6.1369,8.7536m-11.581-26.004c-0.88814,4.4877-0.88814,11.593,0.14058,17.062,1.1216,5.8435,4.8612,10.378,5.5158,16.081,0.28056,2.4309-0.23349,5.0018,0,7.9003,0.18704,2.4309,0.79461,4.5342,0.84168,7.0586,0.18643,8.1338-1.5898,15.192-5.2359,21.878l4.8147,1.3551c0.32763-0.7011,0.14059-1.7763,0.23411-3.3184,3.0849,1.3087,2.8979,1.2151,2.9914-0.70171,0.14059-3.646,0.42115-12.481,0.60758-18.886,0.0935-3.1785,0.79522-4.7212,1.2158-7.6197,0.42053-2.3838,0.28056-5.4223-0.18704-7.8062-0.74816-3.6931,1.1687-7.7133,1.4957-11.406,0.28056-2.5709,0.37408-4.4877-2.0568-5.9834" stroke="#600" stroke-dasharray="none" stroke-miterlimit="4" stroke-width="0.8" fill="none"/>
 <path d="m109.94,86.387c2.7115,2.6644,4.8227,4.4816,3.2799,7.0996m-92.552-54.993c-1.0874,0.7066-2.1864,1.2194-3.2524,1.5471-2.72,0.73716-2.7414-0.17604-3.6986,2.6589m36.3,5.6136c3.4981-4.0476,9.6099-5.7774,15.687-1.6656m-21.486-16.972c-0.85757-1.3087-7.4009,0.43826-9.1808,1.7818-0.62041,0.50733-1.0935,1.7592-0.16198,2.4101m-28.336,12.184c1.9193,0.7396,3.0678-1.5813,3.4945-2.8423l-0.0471-0.0079c-0.5,1.1504-1.294,1.816-2.2127,2.1247-0.31234,0.13081-0.8539,0.22249-1.4254,0.21149,0.0202,0.14731,0.13203,0.31112,0.19071,0.51405zm2.2915,1.0489c2.0843-1.4303,4.1198-2.3423,6.2237-1.5684m15.324,4.1412c1.2873,3.0214,6.3221,6.5837,9.4204,7.1894-0.28484,1.4786-0.23105,3.228,0.0685,4.775" stroke="#600" stroke-dasharray="none" stroke-miterlimit="4" stroke-width="0.80000001" fill="none"/>
 <g fill-rule="evenodd" transform="matrix(0.61124108,0,0,0.61124108,-254.20609,-256.98506)" stroke="#600" stroke-dasharray="none" stroke-miterlimit="4">
  <path stroke-width="1.30881256000000000" d="m458.69,478.03c-0.56,2.732-3.912,2.187-3.517-0.402l1.46-0.715,2.057,1.117z" fill="#600"/>
  <path stroke-width="1.30881256" d="m453.34,478.22,3.284-1.24,4.147,1.929" fill="none"/>
 </g>
 <path d="m41.359,6.2331c-0.35758,1.654-0.34046,4.9113-0.23472,6.6515,0.0752,1.4016,0.4077,2.1791,2.357,1.7304,1.7322-0.82701,2.5819-2.8203,3.6864-4.3838,0.91258-1.3136,1.5837-2.8618,2.4602-4.2292,0.33435-0.51283,0.73104-0.58251,0.45354,0.13081-0.38325,1.0299-0.68031,2.1222-1.1186,3.1888-0.48288,1.0574-1.0648,3.9138-0.65036,4.5195,0.53483,0.72004,1.5574-0.14181,2.0134-0.53545,1.7622-1.2506,2.6925-3.4211,3.5715-5.3141,0.1363-0.21455,0.20782-0.34291,0.32579-0.46515,0.39853-0.59657,0.42114-0.20843,0.272,0.3374-0.27812,1.2384-0.16993,1.6901-0.68031,2.8869-0.25061,0.57457-0.23288,1.2475,0.21577,1.6656,1.1968,1.2757,2.9902-1.1638,3.989-2.4144,0.57089-0.75305,0.82334-1.0892,0.49999,0.14181-0.18459,0.73043-0.50733,1.4364-0.8374,2.1876-1.121,2.4211-2.2946,4.3557-3.8924,6.2597-2.3404,2.8166-4.8074,5.2744-7.8856,6.9027-2.0703,1.0972-4.3416,1.4865-6.5482,2.0318-2.1522,0.50916-5.382,1.1528-6.5629,3.1332-0.26955,0.42726-0.41931,0.9731-0.40219,1.6467-0.0287,1.1901-3.2506,1.786-3.4798,0.45232-0.24877-1.4816-1.1387-2.3649-2.2451-3.0965-2.3539-1.4908-4.9578-2.4052-7.2383-4.0262-2.2671-1.1864-4.3973-2.588-5.7237-4.4614-1.0996-1.5434-1.5581-3.4462-1.4872-5.6332,0.0403-1.2378,0.18642-1.2573,0.40586-0.11614,0.49877,2.1974,1.9474,4.9541,3.4688,6.2903,1.11,0.97248,1.2225,0.37041,0.79217-0.66564-0.53239-1.2463-1.1204-2.4554-1.3417-3.838-0.34658-2.5043-0.004-5.1185,0.64302-7.0556,0.34597-1.0831,0.38875-0.54889,0.34474,0.20904-0.42236,3.5556-0.0581,6.7334,1.4358,9.4981,0.14242,0.26528,1.1265,2.1705,1.7524,2.6693,1.1944,1.0342,0.58129-0.56112,0.36246-1.1754-0.3918-0.98226-0.68031-2.5183-0.72004-3.5794-0.0801-1.1143,0.0795-2.2323,0.54401-3.4376,0.82456-1.6155,0.69926-1.448,0.49021,0.18826-0.24388,1.8197-0.12897,3.5152,0.49938,5.0195,0.29707,0.72371,1.1259,2.6968,2.066,4.0672,0.91197,1.2695,2.5232,2.382,3.9908,1.1736,0.44743-0.3478,0.8429-2.4737,1.107-3.3814,0.21455-0.62958,0.3588-1.4162,0.51894-1.2427,0.24267,0.23655,0.10086,2.0275,0.22616,2.3857,0.35697,1.1662,1.4108,0.64486,1.8716-0.03484,0.89608-1.2206,1.2524-2.8759,1.4694-4.558,0.35452-3.1858,0.0568-6.7316,0.0892-9.2151,0-2.0574,0.20965-1.6345,0.60635-0.1742,0.13753,0.55256,0.2176,1.1412,0.25305,1.7219,0.14609,2.5623,0.41993,5.1968,0.61186,7.7664,0.11796,1.9352,0.94742,2.6167,1.9431,1.893,1.7078-1.2115,2.9162-4.0971,3.7396-5.9523,0.76711-2.0574,0.73655-4.2157,0.98594-6.3221,0.0733-0.65525,0.20293-1.3496,0.59168-1.8991,0.66869-1.022,0.73776-0.62713,0.39425,0.45782z" fill-rule="evenodd" stroke="#C93" stroke-dasharray="none" stroke-miterlimit="4" stroke-width="0.8" fill="#ffcd50"/>
 <path d="m32.586,31.067c1.0367-2.4859,7.3093-3.105,10.204-3.2364,2.0746-0.09169,3.4205,1.9285,2.0464,3.3954-0.90708,1.0263-2.7549,2.2127-3.8142,3.0201-1.4975,1.1088-3.492,2.316-5.099,2.2084-1.7445-0.13508-1.1589-1.2213-3.047-1.6192" stroke="#600" stroke-miterlimit="4" stroke-dasharray="none" stroke-width="0.80000001" fill="none"/>
 <path d="m54.03,127.05c0.16382,1.3111,0.71149,2.4664-0.70109,3.3655-2.1503,1.2152-5.7029,1.9168-8.0873,1.4492l3.459-3.646-2.5238,2.7108c-0.51467,0.18704-1.0752,0.18704-1.5898,0.14059l4.6283-5.0488,4.8147,1.0287zm14.209-2.5244c0.24816,1.2928,0.75732,2.4786-0.67054,3.3655-2.2506,1.2158-5.8422,1.9633-8.2848,1.4493l3.544-3.6461-2.5862,2.7109c-0.52689,0.18704-1.1015,0.18704-1.676,0.14058l4.7891-5.0488,4.8844,1.0287zm35.649,0.74694c0.16259,1.3038,0.70293,2.4725-0.7011,3.3661-2.1974,1.2152-5.7035,1.9633-8.0873,1.4486l3.459-3.646-2.5238,2.7115c-0.51466,0.18704-1.0752,0.18704-1.5898,0.13997l4.6283-5.0482,4.8148,1.0281zm-19.682-2.16c0.15036,1.2054,0.71637,2.5458-0.7011,3.319-2.1974,1.2622-5.7035,1.9633-8.0873,1.4957l3.459-3.6461-2.5244,2.6644c-0.51405,0.18704-1.0752,0.18704-1.6357,0.18704l4.6742-5.0953,4.8154,1.0752z" fill-rule="evenodd" stroke="#C93" stroke-dasharray="none" stroke-miterlimit="4" stroke-width="0.8" fill="#ffcd50"/>
 <g transform="translate(121.04539,133.11724)">
  <path fill="#d40000" d="m102.76,85.038c1.7646,2.1797,4.6864,6.2518,5.5146,8.2615,0.98165,2.478,0.37347,5.4694,0,8.0409-0.37408,2.945-1.0752,5.7029-1.6834,8.5079-0.84107,3.786-2.1504,7.7132-4.6277,10.845-0.98165,1.3087-1.8233,2.4303-2.805,3.599l4.4877,1.5898c0.32763-1.3557,0.60818-2.1503,1.7763-2.4309,1.8233,1.7292,2.1039,1.0752,2.1974-1.3557,0.0465-1.2158,0.32701-1.7763,0.51405-2.992,1.1687-6.451,2.992-12.481,4.9083-18.558,0.9352-3.0391,2.0568-5.937,2.1039-8.7884,0.13997-3.4596-2.0104-3.7866-3.0856-5.6564-0.60757-1.0287-0.84106-2.5709-0.79461-4.3942,0.14059-3.0855,0.9352-4.4877,2.2439-7.0122,0.88813-1.8227,1.4492-3.786,1.8233-5.7499,0.70109-3.5055,0.70109-7.0115-0.18704-10.658,0.4676,0.23411,1.1216,0.84168,1.5892,0.60818,1.0752-0.56112,0.56112-2.5244-0.4676-3.7866-3.4126-4.2072-7.5727-7.4791-13.697-8.1338-6.8716-0.79461-13.556-0.65464-20.522-0.88813-5.7493-0.18704-8.2279-2.0397-11.36-4.3771-3.2255-2.3845-6.0446-3.7139-9.4418-4.1308-9.3159-1.143-9.888,3.8386-19.57-3.7445l-0.0636-0.02262c1.0611-0.76527,2.467-1.731,3.2218-2.5849,1.3741-1.467,0.0281-3.4871-2.0464-3.3954-2.6791,0.12164-8.1686,0.82579-9.7939,2.901l-0.20355-0.07274-4.4095,0.66075c-2.9572,0.80073-5.8918,1.9975-8.8098,2.5214-6.2774,1.607-12.957,2.8038-13.598,10.098,0.0727,1.4016-0.0446,2.8123,2.9474,3.1785,1.4902,1.761,3.3184,2.4841,5.8257,1.085,0.20599-0.1143,0.40403-0.24939,0.5984-0.3918,1.2329,0.42909,1.066,1.654,1.1583,2.7212,0.27323,4.0061,0.0135,8.0207,3.9272,8.0996-0.18276,2.0153,0.39975,4.0923,1.7634,6.0806,1.0752,1.4957,2.6179,0.98165,3.132-1.3557,0.56112-2.7115,0.70109-5.0018,1.1216-7.4798,0.37408-2.1968,0.4676-4.4407,0.37408-6.6845,2.8025,3.7597,6.797,10.71,13.128,12.426,0.74816,4.0672,4.8227,12.376,8.8893,14.106l0.0281-0.05562c1.5165,4.6546,4.2799,8.6448,4.8337,13.472,0.28056,2.4309-0.23349,5.0018,0,7.9003,0.18704,2.4309,0.79461,4.5342,0.84168,7.0586,0.18643,8.1338-1.5898,15.192-5.2359,21.878l4.8147,1.3551c0.32763-0.7011,0.14059-1.7763,0.23411-3.3184,3.0849,1.3087,2.8979,1.2151,2.9914-0.70171,0.14059-3.646,0.42115-12.481,0.60758-18.886,0.0935-3.1785,0.79522-4.7212,1.2158-7.6197,0.42053-2.3838,0.28056-5.4223-0.18704-7.8062-0.41137-2.0324-0.0159-4.1644,0.47738-6.286l0.0837,0.11491c1.7292,3.319,2.2439,7.7133,2.9914,11.173,0.51466,2.3838,1.3557,4.4407,1.7298,6.918,1.2152,8.0409,1.9168,15.567-0.84168,22.626l4.3942,1.6827c0.23411-0.70109,0.4676-2.7115,0.37408-4.2542,3.1791,0.9352,2.992,0.84168,2.8514-1.0752-0.32701-3.646-2.5244-12.481-3.132-18.886-0.32701-3.132-0.18703-4.4877-0.13997-7.4327,0.0464-1.4957-0.18704-2.9914-0.51405-4.4877,0.23349-3.0849-0.0935-6.264-0.56112-9.4895l0.15648-0.22738c6.7952-0.71943,13.677-2.4529,20.057-3.6992,1.1222-0.23349,1.1222,1.5898,2.2909,1.4963,0.51283-0.04951,1.1064-0.21638,1.7378-0.43337l-0.009,0.10574c0.42115,2.3374,1.2158,4.3478,2.0568,5.797,4.1607,7.5256,3.0385,9.723-0.32702,17.857-1.4022,3.7396-3.4126,7.2927-5.7964,11.126-2.665,4.3007-5.937,8.882-7.4798,10.518l4.1607,1.4963c0.65402-1.2622,1.2622-3.0385,2.4774-2.992,1.4957,1.4493,1.5892,1.5428,2.1039-0.18704,1.1216-8.7414,6.731-14.258,12.06-21.784,2.992-2.5238,4.3007-6.0299,3.1784-9.0219l-0.60574-4.6155z" fill-rule="evenodd"/>
  <path d="m32.605,37.846c0.24572,3.2983,0.18093,5.9639-1.0244,7.5586-3.0837,3.9694-10.809,0.761-14.15,1.2396-1.0324,0.14242-1.775,1.0562-2.6815,1.5581-2.5073,1.3991-4.3355,0.67603-5.8257-1.085-2.992-0.36613-2.8747-1.7769-2.9474-3.1785,0.6412-7.2939,7.3208-8.4908,13.598-10.098,2.9181-0.52383,5.8526-1.7206,8.8098-2.5214,0.25122,0.41137,0.43398,0.88263,0.5275,1.4383,0.22922,1.3337,3.4511,0.73777,3.4798-0.45232-0.0171-0.67359,0.13264-1.2194,0.40219-1.6467m8.8856,3.1748c9.6821,7.5831,10.254,2.6014,19.57,3.7445,3.3973,0.41687,6.2163,1.7463,9.4418,4.1308,3.132,2.3374,5.6106,4.1901,11.36,4.3771,6.9657,0.2335,13.65,0.09352,20.522,0.88813,6.124,0.65464,10.284,3.9266,13.697,8.1338,1.0287,1.2622,1.5428,3.2255,0.4676,3.7866-0.4676,0.23349-1.1216-0.37408-1.5892-0.60818,0.88813,3.6467,0.88813,7.1527,0.18704,10.658-0.37408,1.9639-0.9352,3.9272-1.8233,5.7499-1.3087,2.5244-2.1033,3.9266-2.2439,7.0122-0.0464,1.8233,0.18704,3.3655,0.79461,4.3942,1.0752,1.8698,3.2255,2.1968,3.0856,5.6564-0.0471,2.8514-1.1687,5.7493-2.1039,8.7884-1.9162,6.077-3.7396,12.107-4.9083,18.558-0.18704,1.2158-0.4676,1.7763-0.51405,2.992-0.0935,2.4309-0.37408,3.0849-2.1974,1.3557-1.1681,0.28056-1.4486,1.0752-1.7763,2.4309l-4.4877-1.5898c0.98165-1.1687,1.8233-2.2903,2.805-3.599,2.4774-3.132,3.7866-7.0592,4.6277-10.845,0.60818-2.805,1.3093-5.5629,1.6834-8.5079,0.37347-2.5715,0.98165-5.5629,0-8.0409-0.98166-2.3838-4.9089-7.6662-6.3575-9.2554-2.665-2.945-5.797-9.069-6.6381-13.136-0.74816-3.8802,2.1033-8.3679,0.4676-12.107m-75.003-0.182c-4.2542,0.14059-3.9712-3.9835-4.2518-8.0971-0.0935-1.0752,0.077-2.3099-1.1852-2.731m6.4186,7.0421c-1.9168,3.0849-1.7867,6.5965,0.45721,9.8691,1.0752,1.4957,2.6179,0.98165,3.132-1.3557,0.56112-2.7115,0.70109-5.0018,1.1216-7.4798,0.37408-2.1968,0.4676-4.4407,0.37408-6.6845,2.8025,3.7597,6.797,10.71,13.128,12.426,0.74816,4.0672,4.8227,12.376,8.8893,14.106m42.091,1.1216c0.42115,2.3374,1.2158,4.3478,2.0568,5.797,4.1607,7.5256,3.0385,9.723-0.32702,17.857-1.4022,3.7396-3.4126,7.2927-5.7964,11.126-2.665,4.3007-5.937,8.882-7.4798,10.518l4.1607,1.4963c0.65402-1.2622,1.2622-3.0385,2.4774-2.992,1.4957,1.4493,1.5892,1.5428,2.1039-0.18704,1.1216-8.7414,6.731-14.258,12.06-21.784,2.992-2.5238,4.3007-6.0299,3.1784-9.0219l-0.60757-4.6277m-40.736-5.34c8.3208-0.18704,16.988-2.4774,24.889-4.0201,1.1222-0.23349,1.1222,1.5898,2.2909,1.4963,1.9633-0.18704,5.0953-2.1039,7.0586-1.9639m-29.565,4.395c0.4676,3.2255,0.79461,6.4046,0.56112,9.4895,0.32701,1.4963,0.5605,2.992,0.51405,4.4877-0.0471,2.945-0.18704,4.3007,0.13997,7.4327,0.60758,6.4046,2.805,15.239,3.132,18.886,0.14059,1.9169,0.32763,2.0104-2.8514,1.0752,0.0935,1.5428-0.13997,3.5531-0.37408,4.2542l-4.3942-1.6827c2.7585-7.0586,2.0568-14.585,0.84168-22.626-0.37408-2.4774-1.2152-4.5342-1.7298-6.918-0.74755-3.4596-1.2622-7.8538-2.9914-11.173m7.6662-20.708c-0.88813,3.6461-1.4492,7.2921-1.4492,11.125,0,3.4126-3.8227,6.429-6.1369,8.7536m-11.581-26.004c-0.88814,4.4877-0.88814,11.593,0.14058,17.062,1.1216,5.8435,4.8612,10.378,5.5158,16.081,0.28056,2.4309-0.23349,5.0018,0,7.9003,0.18704,2.4309,0.79461,4.5342,0.84168,7.0586,0.18643,8.1338-1.5898,15.192-5.2359,21.878l4.8147,1.3551c0.32763-0.7011,0.14059-1.7763,0.23411-3.3184,3.0849,1.3087,2.8979,1.2151,2.9914-0.70171,0.14059-3.646,0.42115-12.481,0.60758-18.886,0.0935-3.1785,0.79522-4.7212,1.2158-7.6197,0.42053-2.3838,0.28056-5.4223-0.18704-7.8062-0.74816-3.6931,1.1687-7.7133,1.4957-11.406,0.28056-2.5709,0.37408-4.4877-2.0568-5.9834" stroke="#600" stroke-miterlimit="4" stroke-dasharray="none" stroke-width="0.80000001" fill="none"/>
  <path d="m109.94,86.387c2.7115,2.6644,4.8227,4.4816,3.2799,7.0996m-92.552-54.993c-1.0874,0.7066-2.1864,1.2194-3.2524,1.5471-2.72,0.73716-2.7414-0.17604-3.6986,2.6589m36.3,5.6136c3.4981-4.0476,9.6099-5.7774,15.687-1.6656m-21.486-16.972c-0.85757-1.3087-7.4009,0.43826-9.1808,1.7818-0.62041,0.50733-1.0935,1.7592-0.16198,2.4101m-28.336,12.184c1.9193,0.7396,3.0678-1.5813,3.4945-2.8423l-0.0471-0.0079c-0.5,1.1504-1.294,1.816-2.2127,2.1247-0.31234,0.13081-0.8539,0.22249-1.4254,0.21149,0.0202,0.14731,0.13203,0.31112,0.19071,0.51405zm2.2915,1.0489c2.0843-1.4303,4.1198-2.3423,6.2237-1.5684m15.324,4.1412c1.2873,3.0214,6.3221,6.5837,9.4204,7.1894-0.28484,1.4786-0.23105,3.228,0.0685,4.775" stroke="#600" stroke-miterlimit="4" stroke-dasharray="none" stroke-width="0.80000001" fill="none"/>
  <g fill-rule="evenodd" transform="matrix(0.61124108,0,0,0.61124108,-254.20609,-256.98506)" stroke="#600" stroke-miterlimit="4" stroke-dasharray="none" stroke-width="1.30881262">
   <path d="m458.69,478.03c-0.56,2.732-3.912,2.187-3.517-0.402l1.46-0.715,2.057,1.117z" fill="#600"/>
   <path d="m453.34,478.22,3.284-1.24,4.147,1.929" fill="none"/>
  </g>
  <path d="m41.359,6.2331c-0.35758,1.654-0.34046,4.9113-0.23472,6.6515,0.0752,1.4016,0.4077,2.1791,2.357,1.7304,1.7322-0.82701,2.5819-2.8203,3.6864-4.3838,0.91258-1.3136,1.5837-2.8618,2.4602-4.2292,0.33435-0.51283,0.73104-0.58251,0.45354,0.13081-0.38325,1.0299-0.68031,2.1222-1.1186,3.1888-0.48288,1.0574-1.0648,3.9138-0.65036,4.5195,0.53483,0.72004,1.5574-0.14181,2.0134-0.53545,1.7622-1.2506,2.6925-3.4211,3.5715-5.3141,0.1363-0.21455,0.20782-0.34291,0.32579-0.46515,0.39853-0.59657,0.42114-0.20843,0.272,0.3374-0.27812,1.2384-0.16993,1.6901-0.68031,2.8869-0.25061,0.57457-0.23288,1.2475,0.21577,1.6656,1.1968,1.2757,2.9902-1.1638,3.989-2.4144,0.57089-0.75305,0.82334-1.0892,0.49999,0.14181-0.18459,0.73043-0.50733,1.4364-0.8374,2.1876-1.121,2.4211-2.2946,4.3557-3.8924,6.2597-2.3404,2.8166-4.8074,5.2744-7.8856,6.9027-2.0703,1.0972-4.3416,1.4865-6.5482,2.0318-2.1522,0.50916-5.382,1.1528-6.5629,3.1332-0.26955,0.42726-0.41931,0.9731-0.40219,1.6467-0.0287,1.1901-3.2506,1.786-3.4798,0.45232-0.24877-1.4816-1.1387-2.3649-2.2451-3.0965-2.3539-1.4908-4.9578-2.4052-7.2383-4.0262-2.2671-1.1864-4.3973-2.588-5.7237-4.4614-1.0996-1.5434-1.5581-3.4462-1.4872-5.6332,0.0403-1.2378,0.18642-1.2573,0.40586-0.11614,0.49877,2.1974,1.9474,4.9541,3.4688,6.2903,1.11,0.97248,1.2225,0.37041,0.79217-0.66564-0.53239-1.2463-1.1204-2.4554-1.3417-3.838-0.34658-2.5043-0.004-5.1185,0.64302-7.0556,0.34597-1.0831,0.38875-0.54889,0.34474,0.20904-0.42236,3.5556-0.0581,6.7334,1.4358,9.4981,0.14242,0.26528,1.1265,2.1705,1.7524,2.6693,1.1944,1.0342,0.58129-0.56112,0.36246-1.1754-0.3918-0.98226-0.68031-2.5183-0.72004-3.5794-0.0801-1.1143,0.0795-2.2323,0.54401-3.4376,0.82456-1.6155,0.69926-1.448,0.49021,0.18826-0.24388,1.8197-0.12897,3.5152,0.49938,5.0195,0.29707,0.72371,1.1259,2.6968,2.066,4.0672,0.91197,1.2695,2.5232,2.382,3.9908,1.1736,0.44743-0.3478,0.8429-2.4737,1.107-3.3814,0.21455-0.62958,0.3588-1.4162,0.51894-1.2427,0.24267,0.23655,0.10086,2.0275,0.22616,2.3857,0.35697,1.1662,1.4108,0.64486,1.8716-0.03484,0.89608-1.2206,1.2524-2.8759,1.4694-4.558,0.35452-3.1858,0.0568-6.7316,0.0892-9.2151,0-2.0574,0.20965-1.6345,0.60635-0.1742,0.13753,0.55256,0.2176,1.1412,0.25305,1.7219,0.14609,2.5623,0.41993,5.1968,0.61186,7.7664,0.11796,1.9352,0.94742,2.6167,1.9431,1.893,1.7078-1.2115,2.9162-4.0971,3.7396-5.9523,0.76711-2.0574,0.73655-4.2157,0.98594-6.3221,0.0733-0.65525,0.20293-1.3496,0.59168-1.8991,0.66869-1.022,0.73776-0.62713,0.39425,0.45782z" fill-rule="evenodd" stroke="#C93" stroke-dasharray="none" stroke-miterlimit="4" stroke-width="0.80000001" fill="#ffcd50"/>
  <path d="m32.586,31.067c1.0367-2.4859,7.3093-3.105,10.204-3.2364,2.0746-0.09169,3.4205,1.9285,2.0464,3.3954-0.90708,1.0263-2.7549,2.2127-3.8142,3.0201-1.4975,1.1088-3.492,2.316-5.099,2.2084-1.7445-0.13508-1.1589-1.2213-3.047-1.6192" stroke="#600" stroke-miterlimit="4" stroke-dasharray="none" stroke-width="0.80000001" fill="none"/>
  <path d="m54.03,127.05c0.16382,1.3111,0.71149,2.4664-0.70109,3.3655-2.1503,1.2152-5.7029,1.9168-8.0873,1.4492l3.459-3.646-2.5238,2.7108c-0.51467,0.18704-1.0752,0.18704-1.5898,0.14059l4.6283-5.0488,4.8147,1.0287zm14.209-2.5244c0.24816,1.2928,0.75732,2.4786-0.67054,3.3655-2.2506,1.2158-5.8422,1.9633-8.2848,1.4493l3.544-3.6461-2.5862,2.7109c-0.52689,0.18704-1.1015,0.18704-1.676,0.14058l4.7891-5.0488,4.8844,1.0287zm35.649,0.74694c0.16259,1.3038,0.70293,2.4725-0.7011,3.3661-2.1974,1.2152-5.7035,1.9633-8.0873,1.4486l3.459-3.646-2.5238,2.7115c-0.51466,0.18704-1.0752,0.18704-1.5898,0.13997l4.6283-5.0482,4.8148,1.0281zm-19.682-2.16c0.15036,1.2054,0.71637,2.5458-0.7011,3.319-2.1974,1.2622-5.7035,1.9633-8.0873,1.4957l3.459-3.6461-2.5244,2.6644c-0.51405,0.18704-1.0752,0.18704-1.6357,0.18704l4.6742-5.0953,4.8154,1.0752z" fill-rule="evenodd" stroke="#C93" stroke-dasharray="none" stroke-miterlimit="4" stroke-width="0.80000001" fill="#ffcd50"/>
 </g>
 <g transform="matrix(0.49923009,0,0,0.49923009,1.119937,135.92115)">
  <g fill-rule="evenodd" transform="matrix(0.61932459,0,0,0.61932459,-57.617272,-121.5755)">
   <path fill="#d40000" d="m308.7,243.37c6.895-6.898,32.453-19.911,37.808-6.798,3.707,9.073,6.528,19.869,14.223,21.435l0.199-0.976c-6.145-1.251-8.05-17.848-11.445-26.077,7.721-4.07,26.768-7.728,31.424,2.039,4.546,9.535,7.023,23.052,15.706,24.819l0.199-0.976c-6.414-1.306-8.04-18.721-11.516-26.436,9.943-3.563,28.014-2.744,30.019,10.028,1.628,10.371,0.064,23.359,8.24,27.563l0.457-0.887c-5.784-2.974-2.711-19.711-3.885-28.262,10.514-0.345,31.49,6.774,26.102,20.405-3.553,8.988-8.572,18.617-4.316,24.755l0.82-0.567c-3.608-5.202,5.861-17.17,9.219-24.811,8.759,2.468,16.55,13.879,10.14,21.696-5.996,7.314-13.229,14.727-11.023,21.761l0.953-0.298c-1.763-5.619,9.182-13.173,14.778-19.11,6.178,4.264,10.317,14.493,2.971,18.819-6.669,3.927-12.854,8.053-13.154,13.761l0.996,0.051c0.258-4.884,8.362-7.886,15.371-10.654,2.115,6.751,2.726,17.041-4.81,19.363-4.237,1.306-7.68,3.382-9.254,7.405l0.93,0.364c1.131-2.891,5.524-4.076,10.719-4.743,0.396,7.885-4.531,14.213-11.097,17.113-1.03,0.455-1.968,1.077-2.795,1.902l0.703,0.707c0.918-0.916,2.305-1.31,4.007-1.346-2.272,6.693-9.011,14.451-15.317,16.899,16.045-47.466-13.476-106.73-88.119-95.826l-49.25-23.09z"/>
   <path fill="#ffcd50" d="m371.2,261.74c-6.349-4.905-12.864-10.246-20.971-13.525-12.241-4.951-25.569-2.655-26.422-6.701,4.734-7.669-8.706-16.599,10.979-22.201-18.555-8.33-33.102,1.531-31.917,19.248-11.376-5.66-18.35-3.145-24.697,0.537-11.93-2.89-23.676,2.504-35.695,4.291-5.792,0.862-15.327,0.645-13.456,9.093,4.863,1.444,10.168,1.405,14.483-1.104,2.887-1.678,4.959,1.454,2.184,3.327-5.501,3.712-13.125,2.606-18.966,0.316-3.849,2.919-3.47,8.944-1.546,13.925,8.862-1.813,23.371-8.422,28.068,0.276,1.574,2.927-2.781,5.578-4.354,2.652-2.439-4.515-16.101-1.133-22.836,0.29,0.392,4.85,3.96,9.735,8.899,9.079,5.815-0.723,12.259,1.069,18.791,3.221,0.961,15.954-10.324,18.03-20.401,21.475,4.074,6.051,9.872,9.984,16.578,11.957,8.658-8.169,16.046-18.002,17.556-29.736l0.989,0.125c-0.38,11.817-3.532,20.731-12.849,30.797,5.391,0.686,11.173,0.278,16.997-1.161,5.644-8.397,10.001-20.946,6.436-30.054l0.929-0.363c4.76,9.718,4.106,18.926-0.652,28.306,4.361-1.669,8.671-3.903,12.78-6.68,0.584-7.725,0.268-16.772-1.522-22.092l0.945-0.316c2.546,4.808,4.372,11.135,4.805,19.297,4.056-3.234,7.845-7.027,11.211-11.349-1.155-3.581-2.089-6.82-3.782-10.253l0.894-0.442c1.649,3.343,3.592,6.003,5.667,8.999,4.645-2.32,9.111-4.818,13.427-7.468-3.232-1.814-5.187-4.113-7.019-7.142l0.727-0.684c3.036,3.031,7.014,4.149,10.874,4.921,2.662-1.74,5.267-3.538,7.822-5.385-5.243-2.145-10.206-6.252-13.279-9.351l0.668-0.743c12.492,11.274,37.372,8.79,47.655-5.382zm-99.602-14.69-0.273,0.957c-4.871-1.054-11.876,3.694-20.275,1.521l-0.008-0.996c7.428,1.013,11.057-6.782,20.556-1.482z"/>
   <path fill="#000" d="m370,267.18c6.104-3.659,1.471-7.406-4.832-12.113-8.924-6.663-21.55-14.117-33.283-13.124-3.548,0.3-7.461,0.712-9.601-1.488-0.472,0.922,0.961,3.962,3.72,4.644,2.435,0.575,7.251-0.006,9.943,0.297,6.67,0.122,22.996,8.221,27.078,12.186,3.61,2.726,5.484,4.718,5.197,6.056-0.514,1.911-9.265,5.55-11.779,6.426-7.603,2.647-16.309,3.546-24.621-1.794-4.652-2.989-6.233-6.412-7.208-11.64l-0.965,3.138c1.355,5.111,3.505,8.369,6.398,10.945,11.437,10.189,29.036,3.013,39.953-3.533zm-38.304-17.49c8.607,1.255,18.088,6.625,24.71,11.815,0,0-11.266-4.572-16.909-6.685-2.531-0.919-12.126-3.911-10.058,3.13,0,0-1.942-1.937-2.465-3.871-0.731-2.703,2.139-4.761,4.722-4.389z"/>
   <path fill="#000" d="m294.12,245.16c3.808,0.604,6.502,3.598,6.013,6.682-0.49,3.083-3.978,5.096-7.786,4.491-3.808-0.604-6.502-3.598-6.012-6.681,0.489-3.084,3.977-5.096,7.785-4.492z"/>
   <path fill="#FFF" d="m291.55,245.07c1.228,0.195,2.067,1.35,1.872,2.579-0.195,1.228-1.35,2.067-2.578,1.872-1.229-0.195-2.068-1.351-1.873-2.579s1.351-2.067,2.579-1.872z"/>
   <path fill="#000" d="m297.18,244.23c3.78,1.526,6.741,5.495,6.695,8.39l-3.797-0.603c-0.364-1.941-1.948-3.944-4.067-4.956-3.181-1.518-7.305-0.278-9.032,2.877l-9.194-1.459,0.2-1.268,7.803-0.808c2.794-3.115,7.625-3.694,11.392-2.173z"/>
   <path fill="#ffcd50" d="m206.97,373.43c-2.306-16.913-3.519-34.156-4.357-51.105-0.192-3.887-5.387-5.009-7.86-8.932-3.35-5.315-2.751-9.002-4.563-11.715-4.931-7.384-17.93-13.7-28.624-23.109-2.527,6.739-8.46,4.236-11.231,9.272-2.088,3.794,2.97,8.613-1.503,15.594-2.886-7.426-12.868-8.928-9.259-19.206,2.461-7.008,15.531-4.573,15.661-12.181-2.138-1.776-4.277-3.794-7.145-4.597-3.187-0.892-7.026,0.299-10.168,0.583,0.68-0.985,1.279-2.038,1.881-3.134-5.858-5.858-7.009-11.75-3.352-19.461,5.772-4.279,15.052,0.917,16.64,6.263,1.452,4.887,6.887,8.711,11.97,11.518,13.568,9.764,27.596,18.615,41.799,27.103,5.457,3.262,7.203,0.403,11.31,6.242,5.856,8.327,0.255,11.684,2.078,14.005,6.152,7.827,12.199,15.789,18.123,23.881l-4.376-0.459c0.879,5.359,2.758,12.411,8.174,16.488-10.55,4.729-15.006,12.65-16.713,23.427-5.525,0.353-12.207,0.394-18.485-0.477z"/>
   <path fill="#ffcd50" d="m321.78,466.11c-17.869,5.659-33.277,14.619-45.975,30.027-6.556,7.956-20.551,11.353-25.511,2.95-8.056,9.566,5.26,22.842,20.701,11.772-4.623,8.051-10.866,11.357-19.496,12.207,3.463,10.789,20.084,7.358,27.116-2.752-0.854,4.997-3.665,10.873-10.395,13.856,2.527,1.919,7.371,3.133,11.519,2.852,3.644,1.896,8.349,2.676,12.624,2.143-14.306,10.177-31.305,12.458-47.359,17.397-3.122-0.573-6.0622,1.1424-9.1842,1.5054-3.873,0.451-9.3647,0.61898-13.676,2.785-4.772,2.397-8.1643,5.6123-8.8353,10.654,6.845,5.399,13.896,5.128,21.151,0.75,0.98619,0.90934,1.9095,1.8453,2.7368,2.8249,2.4858-0.0327,6.158-0.86872,7.9106-3.6737,6.4083,7.1282,1.163,27.255,26.165,18.542-14.893-3.238-7.2817-15.841-10.058-22.871,11.101-1.584,23.657-4.5568,34.757-9.8758,0.462,4.07,3.145,7.03,8.048,8.881-0.886-3.609,0.554-7.216,3.052-10.823,3.157,15.239,12.518,18.071,24.699,15.263-18.519-12.179-5.483-25.881,6.66-39.962,3.44-3.989,1.898-8.169-4.097-10.4-6.095-2.269-7.64-9.352,1.599-9.026,2.36,0.084,4.693,0.103,7.02,0.064-3.215-11.983-1.036-24.417,3.767-36.49-8.492-3.317-17.081-4.499-26.279-4.919zm26.285,5.379c0.817-1.867,1.692-3.724,2.613-5.568-7.604-3.705-15.384-4.524-23.136-4.07l-1.559,4.283c7.591,0.637,15.021,2.525,22.082,5.355z"/>
   <path fill="#000" d="m321.88,476.63c-4.506,1.35-5.805,6.782-8.608,8.856,4.234,1.004,8.613,0.545,12.795-1.325l0.468,0.879c-5.816,2.854-7.183,8.21-12.992,11.207,3.369,1.63,9.49,1.058,12.824-0.088l0.377,0.924c-11.011,5.254-22.958,15.609-23.24,28.706l-0.996-0.019c0.226-10.524,1.53-18.167,11.427-25.128-3.667-0.979-6.678-3.51-8.394-6.209,4.042-0.26,6.708-1.718,9.907-4.624-4.708-0.212-8.408-1.491-12.343-4.903,6.915-0.148,12.486-8.686,18.357-9.182l0.418,0.906z"/>
   <path fill="#d40000" d="m213.49,575.32c-5.075,11.49-15.152,18.237-26.399,23.712,3.483,1.824,7.997,2.913,12.897,3.33,6.016-5.497,11.54-11.631,16.538-18.45-2.654,6.359-6.574,12.91-10.739,18.636,16.897-0.313,35.357-7.78,32.195-20.326-0.537-2.131-1.796-4.526-3.876-6.446-6.208,3.756-15.723,3.548-20.616-0.456z"/>
   <path fill="#d40000" d="m153.73,483.26c7.505,9.465,8.735,21.061,8.357,33.084,3.113-2.146,6.061-5.5,8.61-9.484-1.984-7.581-4.731-15.029-8.295-22.336,4.222,5.106,8.042,11.376,11.05,17.484,7.3-14.519,9.212-33.573-2.881-36.5-2.053-0.497-4.656-0.498-7.221,0.412,0.416,6.965-4.021,14.969-9.62,17.34z"/>
   <path fill="#d40000" d="m132.31,247.57c-10.964-1.924-18.909-9.16-26.01-17.672-0.829,3.384-0.807,7.498-0.124,11.803,6.007,4.007,12.458,7.456,19.387,10.307-6.034-0.932-12.503-2.912-18.315-5.279,3.86,14.471,14.207,28.766,24.329,23.379,1.719-0.914,3.512-2.507,4.721-4.704-4.55-4.543-6.393-12.773-3.988-17.834z"/>
   <path fill="#ffcd50" d="m274.27,321.94c-7.977,9.881-15.585,19.192-34.209,17.237,2.348,8.792,9.387,11.459,19.512,10.722-14.634,3.059-26.541,7.419-29.076,21.473,4.167-4.227,10.344-6.961,16.003-6.245-13.633,4.488-11.321,12.67-17.564,12.881-5.767,1.37-27.896,0.17-36.134-3.944-5.847-2.919-4.847-5.034-13.048-4.693-8.972,0.374-10.246,0.166-16.76,6.245-9.613,8.972-2.684,16.481-5.879,28.544-3.528,13.318-6.377,26.536-7.417,39.813-0.3,3.833-2.28,6.412-5.074,9.759-8.174,9.791-3.859,20.975,5.977,27.784,7.605-3.396,10.265-9.649,9.792-17.546,0.901-0.321,1.777-0.613,2.643-0.858-0.328-1.861-0.45-4.041-0.396-6.473,13.964,9.445,31.644,1.89,26.976-16.903-9.282,15.163-15.808,2.261-25.592,5.647,1.934-11.299,7.34-25.543,9.485-37.932,7.948-3.218,14.063-5.774,13.696-16.026l0.996,0.008,0.851,8.008c11.473,8.714,22.946,16.588,34.419,23.455l-0.39,5.854c4.014-0.101,7.276-0.539,10.539-1.561,2.198,10.915-4.323,15.452-13.272,16.394,5.149,7.212,12.698,6.823,19.517,2.342-2.496,6.693-8.929,12.714-16.784,17.565,10.893,4.947,21.391,1.166,31.616-8.587,1.664,7.503-1.226,14.63-7.416,19.126,9.4,1.23,18.592-1.3,27.323-12.1,1.547,3.483,1.498,7.805-0.39,11.71,8.231-1.918,14.29-8.514,17.175-15.778,19.836,3.14,42.033-5.393,60.749,3.73,2.445-3.802,1.155-7.747-2.979-10.196l0.508-0.859c6.136,2.039,11.313,5.263,6.026,15.501-10.079,19.518-15.971,40.009-0.29,59.516-0.66,11.675-7.022,19.092-17.955,22.248,7.411,11.598,24.595,6.239,32.007-7.806-2.805,17.203-18.389,22.128-24.201,33.568-1.866,2.37-4.338,3.932-7.416,4.684-8.177,1.991-13.917,6.639-13.79,16.201,0.048,0.242,0.104,0.469,0.163,0.691,7.326,4.842,14.824,3.841,21.726-1.2,0.799,0.626,1.569,1.25,2.297,1.904,2.237-2.067,4.109-4.975,4.394-6.276,9.207,0.22,9.044,30.013,32.766,12.187-22.253-0.965-4.94-20.567-23.008-23.745,4.426-7.86,15.171-11.852,22.682-18.498,7.379,10.788,15.58,15.496,24.981,11.32-8.277-4.614-14.425-12.315-9.758-23.42,4.238,11.255,13.127,15.634,20.297,11.32-8.306-6.349-10.364-17.613-4.9-27.995,4.929-9.365,13.82-16.303,15.286-24.596,2.127-12.028-7.907-20.254-20.925-12.204-5.945,3.676-8.245-1.633-2.168-4.662,14.174-7.064,16.819-21.297,10.064-35.13,42.883,9.616,26.11-27.774,39.334-37.884-4.496-0.389-9.093,1.346-12.881,4.294-0.15-6.18,1.629-10.691,3.513-14.443-19.898,3.26-9.618,30.632-32.397,31.617-13.122-15.42-27.746-29.027-46.84-35.91-6.801-2.452-9.828-7.463-17.648-14.027-7.119-5.975-14.828-11.865-15.53-17.98,5.204,1.934,10.408,3.727,15.613,1.171-9.108-6.1821-1.041-23.42-1.561-35.13,4.293,2.433,8.586,4.359,12.881,2.732-8.6539-12.135,4.876-37.838-15.714-61.879-0.911-0.052-4.149-0.126-5.076-0.22-9.095,7.103-19.559,13.993-31.69,19.062-9.765,13.837-19.618,20.986-35.679,26.393z"/>
   <path fill="#d40000" d="m324.43,598.73c-4.31,12.359-14.212,20.21-25.436,26.838,3.77,1.604,8.55,2.357,13.675,2.38,5.788-6.213,11.013-13.046,15.634-20.547-2.225,6.826-5.749,13.959-9.595,20.255,17.524-1.739,36.074-11.039,31.74-23.806-0.736-2.169-2.245-4.552-4.566-6.371-6.134,4.42-16.034,5-21.452,1.251z"/>
  </g>
 </g>
 <g transform="matrix(0.49923009,0,0,0.49923009,124.11994,-1.1388515)">
  <g fill-rule="evenodd" transform="matrix(0.61932459,0,0,0.61932459,-57.617272,-121.5755)">
   <path fill="#d40000" d="m308.7,243.37c6.895-6.898,32.453-19.911,37.808-6.798,3.707,9.073,6.528,19.869,14.223,21.435l0.199-0.976c-6.145-1.251-8.05-17.848-11.445-26.077,7.721-4.07,26.768-7.728,31.424,2.039,4.546,9.535,7.023,23.052,15.706,24.819l0.199-0.976c-6.414-1.306-8.04-18.721-11.516-26.436,9.943-3.563,28.014-2.744,30.019,10.028,1.628,10.371,0.064,23.359,8.24,27.563l0.457-0.887c-5.784-2.974-2.711-19.711-3.885-28.262,10.514-0.345,31.49,6.774,26.102,20.405-3.553,8.988-8.572,18.617-4.316,24.755l0.82-0.567c-3.608-5.202,5.861-17.17,9.219-24.811,8.759,2.468,16.55,13.879,10.14,21.696-5.996,7.314-13.229,14.727-11.023,21.761l0.953-0.298c-1.763-5.619,9.182-13.173,14.778-19.11,6.178,4.264,10.317,14.493,2.971,18.819-6.669,3.927-12.854,8.053-13.154,13.761l0.996,0.051c0.258-4.884,8.362-7.886,15.371-10.654,2.115,6.751,2.726,17.041-4.81,19.363-4.237,1.306-7.68,3.382-9.254,7.405l0.93,0.364c1.131-2.891,5.524-4.076,10.719-4.743,0.396,7.885-4.531,14.213-11.097,17.113-1.03,0.455-1.968,1.077-2.795,1.902l0.703,0.707c0.918-0.916,2.305-1.31,4.007-1.346-2.272,6.693-9.011,14.451-15.317,16.899,16.045-47.466-13.476-106.73-88.119-95.826l-49.25-23.09z"/>
   <path fill="#ffcd50" d="m371.2,261.74c-6.349-4.905-12.864-10.246-20.971-13.525-12.241-4.951-25.569-2.655-26.422-6.701,4.734-7.669-8.706-16.599,10.979-22.201-18.555-8.33-33.102,1.531-31.917,19.248-11.376-5.66-18.35-3.145-24.697,0.537-11.93-2.89-23.676,2.504-35.695,4.291-5.792,0.862-15.327,0.645-13.456,9.093,4.863,1.444,10.168,1.405,14.483-1.104,2.887-1.678,4.959,1.454,2.184,3.327-5.501,3.712-13.125,2.606-18.966,0.316-3.849,2.919-3.47,8.944-1.546,13.925,8.862-1.813,23.371-8.422,28.068,0.276,1.574,2.927-2.781,5.578-4.354,2.652-2.439-4.515-16.101-1.133-22.836,0.29,0.392,4.85,3.96,9.735,8.899,9.079,5.815-0.723,12.259,1.069,18.791,3.221,0.961,15.954-10.324,18.03-20.401,21.475,4.074,6.051,9.872,9.984,16.578,11.957,8.658-8.169,16.046-18.002,17.556-29.736l0.989,0.125c-0.38,11.817-3.532,20.731-12.849,30.797,5.391,0.686,11.173,0.278,16.997-1.161,5.644-8.397,10.001-20.946,6.436-30.054l0.929-0.363c4.76,9.718,4.106,18.926-0.652,28.306,4.361-1.669,8.671-3.903,12.78-6.68,0.584-7.725,0.268-16.772-1.522-22.092l0.945-0.316c2.546,4.808,4.372,11.135,4.805,19.297,4.056-3.234,7.845-7.027,11.211-11.349-1.155-3.581-2.089-6.82-3.782-10.253l0.894-0.442c1.649,3.343,3.592,6.003,5.667,8.999,4.645-2.32,9.111-4.818,13.427-7.468-3.232-1.814-5.187-4.113-7.019-7.142l0.727-0.684c3.036,3.031,7.014,4.149,10.874,4.921,2.662-1.74,5.267-3.538,7.822-5.385-5.243-2.145-10.206-6.252-13.279-9.351l0.668-0.743c12.492,11.274,37.372,8.79,47.655-5.382zm-99.602-14.69-0.273,0.957c-4.871-1.054-11.876,3.694-20.275,1.521l-0.008-0.996c7.428,1.013,11.057-6.782,20.556-1.482z"/>
   <path fill="#000" d="m370,267.18c6.104-3.659,1.471-7.406-4.832-12.113-8.924-6.663-21.55-14.117-33.283-13.124-3.548,0.3-7.461,0.712-9.601-1.488-0.472,0.922,0.961,3.962,3.72,4.644,2.435,0.575,7.251-0.006,9.943,0.297,6.67,0.122,22.996,8.221,27.078,12.186,3.61,2.726,5.484,4.718,5.197,6.056-0.514,1.911-9.265,5.55-11.779,6.426-7.603,2.647-16.309,3.546-24.621-1.794-4.652-2.989-6.233-6.412-7.208-11.64l-0.965,3.138c1.355,5.111,3.505,8.369,6.398,10.945,11.437,10.189,29.036,3.013,39.953-3.533zm-38.304-17.49c8.607,1.255,18.088,6.625,24.71,11.815,0,0-11.266-4.572-16.909-6.685-2.531-0.919-12.126-3.911-10.058,3.13,0,0-1.942-1.937-2.465-3.871-0.731-2.703,2.139-4.761,4.722-4.389z"/>
   <path fill="#000" d="m294.12,245.16c3.808,0.604,6.502,3.598,6.013,6.682-0.49,3.083-3.978,5.096-7.786,4.491-3.808-0.604-6.502-3.598-6.012-6.681,0.489-3.084,3.977-5.096,7.785-4.492z"/>
   <path fill="#FFF" d="m291.55,245.07c1.228,0.195,2.067,1.35,1.872,2.579-0.195,1.228-1.35,2.067-2.578,1.872-1.229-0.195-2.068-1.351-1.873-2.579s1.351-2.067,2.579-1.872z"/>
   <path fill="#000" d="m297.18,244.23c3.78,1.526,6.741,5.495,6.695,8.39l-3.797-0.603c-0.364-1.941-1.948-3.944-4.067-4.956-3.181-1.518-7.305-0.278-9.032,2.877l-9.194-1.459,0.2-1.268,7.803-0.808c2.794-3.115,7.625-3.694,11.392-2.173z"/>
   <path fill="#ffcd50" d="m206.97,373.43c-2.306-16.913-3.519-34.156-4.357-51.105-0.192-3.887-5.387-5.009-7.86-8.932-3.35-5.315-2.751-9.002-4.563-11.715-4.931-7.384-17.93-13.7-28.624-23.109-2.527,6.739-8.46,4.236-11.231,9.272-2.088,3.794,2.97,8.613-1.503,15.594-2.886-7.426-12.868-8.928-9.259-19.206,2.461-7.008,15.531-4.573,15.661-12.181-2.138-1.776-4.277-3.794-7.145-4.597-3.187-0.892-7.026,0.299-10.168,0.583,0.68-0.985,1.279-2.038,1.881-3.134-5.858-5.858-7.009-11.75-3.352-19.461,5.772-4.279,15.052,0.917,16.64,6.263,1.452,4.887,6.887,8.711,11.97,11.518,13.568,9.764,27.596,18.615,41.799,27.103,5.457,3.262,7.203,0.403,11.31,6.242,5.856,8.327,0.255,11.684,2.078,14.005,6.152,7.827,12.199,15.789,18.123,23.881l-4.376-0.459c0.879,5.359,2.758,12.411,8.174,16.488-10.55,4.729-15.006,12.65-16.713,23.427-5.525,0.353-12.207,0.394-18.485-0.477z"/>
   <path fill="#ffcd50" d="m321.78,466.11c-17.869,5.659-33.277,14.619-45.975,30.027-6.556,7.956-20.551,11.353-25.511,2.95-8.056,9.566,5.26,22.842,20.701,11.772-4.623,8.051-10.866,11.357-19.496,12.207,3.463,10.789,20.084,7.358,27.116-2.752-0.854,4.997-3.665,10.873-10.395,13.856,2.527,1.919,7.371,3.133,11.519,2.852,3.644,1.896,8.349,2.676,12.624,2.143-14.306,10.177-31.305,12.458-47.359,17.397-3.122-0.573-6.0622,1.1424-9.1842,1.5054-3.873,0.451-9.3647,0.61898-13.676,2.785-4.772,2.397-8.1643,5.6123-8.8353,10.654,6.845,5.399,13.896,5.128,21.151,0.75,0.98619,0.90934,1.9095,1.8453,2.7368,2.8249,2.4858-0.0327,6.158-0.86872,7.9106-3.6737,6.4083,7.1282,1.163,27.255,26.165,18.542-14.893-3.238-7.2817-15.841-10.058-22.871,11.101-1.584,23.657-4.5568,34.757-9.8758,0.462,4.07,3.145,7.03,8.048,8.881-0.886-3.609,0.554-7.216,3.052-10.823,3.157,15.239,12.518,18.071,24.699,15.263-18.519-12.179-5.483-25.881,6.66-39.962,3.44-3.989,1.898-8.169-4.097-10.4-6.095-2.269-7.64-9.352,1.599-9.026,2.36,0.084,4.693,0.103,7.02,0.064-3.215-11.983-1.036-24.417,3.767-36.49-8.492-3.317-17.081-4.499-26.279-4.919zm26.285,5.379c0.817-1.867,1.692-3.724,2.613-5.568-7.604-3.705-15.384-4.524-23.136-4.07l-1.559,4.283c7.591,0.637,15.021,2.525,22.082,5.355z"/>
   <path fill="#000" d="m321.88,476.63c-4.506,1.35-5.805,6.782-8.608,8.856,4.234,1.004,8.613,0.545,12.795-1.325l0.468,0.879c-5.816,2.854-7.183,8.21-12.992,11.207,3.369,1.63,9.49,1.058,12.824-0.088l0.377,0.924c-11.011,5.254-22.958,15.609-23.24,28.706l-0.996-0.019c0.226-10.524,1.53-18.167,11.427-25.128-3.667-0.979-6.678-3.51-8.394-6.209,4.042-0.26,6.708-1.718,9.907-4.624-4.708-0.212-8.408-1.491-12.343-4.903,6.915-0.148,12.486-8.686,18.357-9.182l0.418,0.906z"/>
   <path fill="#d40000" d="m213.49,575.32c-5.075,11.49-15.152,18.237-26.399,23.712,3.483,1.824,7.997,2.913,12.897,3.33,6.016-5.497,11.54-11.631,16.538-18.45-2.654,6.359-6.574,12.91-10.739,18.636,16.897-0.313,35.357-7.78,32.195-20.326-0.537-2.131-1.796-4.526-3.876-6.446-6.208,3.756-15.723,3.548-20.616-0.456z"/>
   <path fill="#d40000" d="m153.73,483.26c7.505,9.465,8.735,21.061,8.357,33.084,3.113-2.146,6.061-5.5,8.61-9.484-1.984-7.581-4.731-15.029-8.295-22.336,4.222,5.106,8.042,11.376,11.05,17.484,7.3-14.519,9.212-33.573-2.881-36.5-2.053-0.497-4.656-0.498-7.221,0.412,0.416,6.965-4.021,14.969-9.62,17.34z"/>
   <path fill="#d40000" d="m132.31,247.57c-10.964-1.924-18.909-9.16-26.01-17.672-0.829,3.384-0.807,7.498-0.124,11.803,6.007,4.007,12.458,7.456,19.387,10.307-6.034-0.932-12.503-2.912-18.315-5.279,3.86,14.471,14.207,28.766,24.329,23.379,1.719-0.914,3.512-2.507,4.721-4.704-4.55-4.543-6.393-12.773-3.988-17.834z"/>
   <path fill="#ffcd50" d="m274.27,321.94c-7.977,9.881-15.585,19.192-34.209,17.237,2.348,8.792,9.387,11.459,19.512,10.722-14.634,3.059-26.541,7.419-29.076,21.473,4.167-4.227,10.344-6.961,16.003-6.245-13.633,4.488-11.321,12.67-17.564,12.881-5.767,1.37-27.896,0.17-36.134-3.944-5.847-2.919-4.847-5.034-13.048-4.693-8.972,0.374-10.246,0.166-16.76,6.245-9.613,8.972-2.684,16.481-5.879,28.544-3.528,13.318-6.377,26.536-7.417,39.813-0.3,3.833-2.28,6.412-5.074,9.759-8.174,9.791-3.859,20.975,5.977,27.784,7.605-3.396,10.265-9.649,9.792-17.546,0.901-0.321,1.777-0.613,2.643-0.858-0.328-1.861-0.45-4.041-0.396-6.473,13.964,9.445,31.644,1.89,26.976-16.903-9.282,15.163-15.808,2.261-25.592,5.647,1.934-11.299,7.34-25.543,9.485-37.932,7.948-3.218,14.063-5.774,13.696-16.026l0.996,0.008,0.851,8.008c11.473,8.714,22.946,16.588,34.419,23.455l-0.39,5.854c4.014-0.101,7.276-0.539,10.539-1.561,2.198,10.915-4.323,15.452-13.272,16.394,5.149,7.212,12.698,6.823,19.517,2.342-2.496,6.693-8.929,12.714-16.784,17.565,10.893,4.947,21.391,1.166,31.616-8.587,1.664,7.503-1.226,14.63-7.416,19.126,9.4,1.23,18.592-1.3,27.323-12.1,1.547,3.483,1.498,7.805-0.39,11.71,8.231-1.918,14.29-8.514,17.175-15.778,19.836,3.14,42.033-5.393,60.749,3.73,2.445-3.802,1.155-7.747-2.979-10.196l0.508-0.859c6.136,2.039,11.313,5.263,6.026,15.501-10.079,19.518-15.971,40.009-0.29,59.516-0.66,11.675-7.022,19.092-17.955,22.248,7.411,11.598,24.595,6.239,32.007-7.806-2.805,17.203-18.389,22.128-24.201,33.568-1.866,2.37-4.338,3.932-7.416,4.684-8.177,1.991-13.917,6.639-13.79,16.201,0.048,0.242,0.104,0.469,0.163,0.691,7.326,4.842,14.824,3.841,21.726-1.2,0.799,0.626,1.569,1.25,2.297,1.904,2.237-2.067,4.109-4.975,4.394-6.276,9.207,0.22,9.044,30.013,32.766,12.187-22.253-0.965-4.94-20.567-23.008-23.745,4.426-7.86,15.171-11.852,22.682-18.498,7.379,10.788,15.58,15.496,24.981,11.32-8.277-4.614-14.425-12.315-9.758-23.42,4.238,11.255,13.127,15.634,20.297,11.32-8.306-6.349-10.364-17.613-4.9-27.995,4.929-9.365,13.82-16.303,15.286-24.596,2.127-12.028-7.907-20.254-20.925-12.204-5.945,3.676-8.245-1.633-2.168-4.662,14.174-7.064,16.819-21.297,10.064-35.13,42.883,9.616,26.11-27.774,39.334-37.884-4.496-0.389-9.093,1.346-12.881,4.294-0.15-6.18,1.629-10.691,3.513-14.443-19.898,3.26-9.618,30.632-32.397,31.617-13.122-15.42-27.746-29.027-46.84-35.91-6.801-2.452-9.828-7.463-17.648-14.027-7.119-5.975-14.828-11.865-15.53-17.98,5.204,1.934,10.408,3.727,15.613,1.171-9.108-6.1821-1.041-23.42-1.561-35.13,4.293,2.433,8.586,4.359,12.881,2.732-8.6539-12.135,4.876-37.838-15.714-61.879-0.911-0.052-4.149-0.126-5.076-0.22-9.095,7.103-19.559,13.993-31.69,19.062-9.765,13.837-19.618,20.986-35.679,26.393z"/>
   <path fill="#d40000" d="m324.43,598.73c-4.31,12.359-14.212,20.21-25.436,26.838,3.77,1.604,8.55,2.357,13.675,2.38,5.788-6.213,11.013-13.046,15.634-20.547-2.225,6.826-5.749,13.959-9.595,20.255,17.524-1.739,36.074-11.039,31.74-23.806-0.736-2.169-2.245-4.552-4.566-6.371-6.134,4.42-16.034,5-21.452,1.251z"/>
  </g>
 </g>
</svg>
