<?xml version="1.0" encoding="UTF-8" standalone="no"?>
<!-- Created with Inkscape (http://www.inkscape.org/) -->
<svg
   xmlns:dc="http://purl.org/dc/elements/1.1/"
   xmlns:cc="http://web.resource.org/cc/"
   xmlns:rdf="http://www.w3.org/1999/02/22-rdf-syntax-ns#"
   xmlns:svg="http://www.w3.org/2000/svg"
   xmlns="http://www.w3.org/2000/svg"
   version="1.0"
   width="251"
   height="304.20001"
   id="svg4166">
  <defs
     id="defs4168" />
  <metadata
     id="metadata1880"><rdf:RDF><cc:Work
         rdf:about=""><dc:title>Ovanaker kommunvapen</dc:title><dc:date>27-08-2007</dc:date><dc:creator><cc:Agent><dc:title>Lokal_Profil</dc:title></cc:Agent></dc:creator><cc:license
         rdf:resource="http://creativecommons.org/licenses/by-sa/2.5/" /><dc:rights><cc:Agent><dc:title>cc-by-sa-2.5</dc:title></cc:Agent></dc:rights><dc:format>image/svg+xml</dc:format><dc:type
         rdf:resource="http://purl.org/dc/dcmitype/StillImage" /></cc:Work><cc:License
         rdf:about="http://creativecommons.org/licenses/by-sa/2.5/"><cc:permits
         rdf:resource="http://web.resource.org/cc/Reproduction" /><cc:permits
         rdf:resource="http://web.resource.org/cc/Distribution" /><cc:requires
         rdf:resource="http://web.resource.org/cc/Notice" /><cc:requires
         rdf:resource="http://web.resource.org/cc/Attribution" /><cc:permits
         rdf:resource="http://web.resource.org/cc/DerivativeWorks" /><cc:requires
         rdf:resource="http://web.resource.org/cc/ShareAlike" /></cc:License></rdf:RDF>
  </metadata>
  <path
     d="M 249.55058,1.4395041 L 125.50008,1.4395041 L 1.4495291,1.4395041 L 1.4495291,174.9361 C 0.68228908,268.65698 81.738969,302.75585 125.50006,302.75585 C 168.49391,302.75585 250.31781,268.65698 249.55058,174.9361 L 249.55058,1.4395041 z "
     style="color:#000000;fill:#d40000;fill-opacity:1;fill-rule:nonzero;stroke:none;stroke-width:1.88832211;stroke-linecap:round;stroke-linejoin:bevel;marker:none;marker-start:none;marker-mid:none;marker-end:none;stroke-miterlimit:4;stroke-dashoffset:0;stroke-opacity:1;visibility:visible;display:block"
     id="Shield" />
  <path
     d="M 33.90625,194.8125 C 18.501407,194.8125 13.230525,202.25972 4.75,207.34375 C 9.6744027,229.2247 19.71575,246.78638 32.34375,260.59375 C 32.868133,260.57691 33.38159,260.5625 33.90625,260.5625 C 57.294701,260.56249 57.299042,277.71875 80.6875,277.71875 C 104.07595,277.71876 104.0803,260.5625 127.46875,260.5625 C 150.8572,260.56249 150.86153,277.71875 174.25,277.71875 C 196.71347,277.71876 197.58878,261.90841 218.34375,260.65625 C 231.50656,246.36389 241.91052,228.04042 246.6875,205.0625 C 239.96907,200.29616 234.21045,194.8125 221,194.8125 C 197.61154,194.8125 197.63845,211.96875 174.25,211.96875 C 150.86154,211.96875 150.85721,194.8125 127.46875,194.8125 C 104.08029,194.8125 104.07595,211.96875 80.6875,211.96875 C 57.299032,211.96875 57.294702,194.8125 33.90625,194.8125 z "
     style="fill:#ffcd50;fill-opacity:1;fill-rule:nonzero;stroke:none;stroke-width:2;stroke-miterlimit:4;stroke-opacity:1"
     id="Vagskuren_bjalke" />
  <path
     d="M 155.50009,42.65648 C 161.22881,50.76597 164.6817,60.26142 165.50009,70.15649 L 165.50009,85.15649 C 185.3612,81.82315 205.63898,81.82315 225.50009,85.15649 L 225.50009,70.15649 C 226.31847,60.26142 229.77137,50.76597 235.50009,42.65648 C 233.0536,40.43196 229.2912,40.52132 226.95305,42.85946 C 224.61492,45.1976 224.52557,48.95999 226.75009,51.40649 L 224.94759,55.37176 C 223.89265,53.31816 221.56884,52.25385 219.3248,52.79653 C 217.08077,53.33921 215.50007,55.34776 215.50009,57.65648 C 215.50011,59.19441 216.20788,60.64677 217.41914,61.59442 C 218.63041,62.54208 220.2104,62.87959 221.70314,62.50954 L 220.50009,65.15648 C 219.96212,66.77067 218.45157,67.85948 216.75009,67.85948 C 215.04862,67.85948 213.53806,66.77067 213.00009,65.15648 L 213.00009,50.15649 C 214.3808,50.15649 215.50009,49.0372 215.50009,47.65648 C 215.50009,46.27577 214.3808,45.15648 213.00009,45.15648 C 211.61938,45.15648 210.50009,46.27577 210.50009,47.65648 C 210.50007,48.77275 211.24008,49.75377 212.31342,50.06037 L 208.00009,65.15648 C 207.42258,66.97838 205.59322,68.09833 203.70799,67.78412 C 201.82275,67.46991 200.4555,65.8172 200.50009,63.90648 L 199.93537,59.10732 C 201.44337,60.27716 203.48582,60.48648 205.19977,59.64683 C 206.91372,58.80718 208.00017,57.06505 208.00009,55.15649 C 208.00009,53.03497 206.66126,51.14442 204.66008,50.44009 C 202.65889,49.73575 200.43109,50.37098 199.10231,52.02482 L 198.79287,49.3951 C 201.36742,48.13704 203.00012,45.52196 203.00009,42.65648 C 203.00004,39.07299 200.46497,35.99015 196.94898,35.29788 L 196.75009,33.90649 C 196.75009,33.21613 196.19045,32.65649 195.50009,32.65649 C 194.80973,32.65649 194.25009,33.21613 194.25009,33.90649 L 194.0512,35.29788 C 190.53521,35.99015 188.00014,39.07299 188.00009,42.65648 C 188.00005,45.52196 189.63276,48.13704 192.20731,49.3951 L 191.89787,52.02482 C 190.56909,50.37098 188.34129,49.73575 186.3401,50.44009 C 184.33892,51.14442 183.00009,53.03497 183.00009,55.15649 C 183.00001,57.06505 184.08646,58.80718 185.80041,59.64683 C 187.51436,60.48648 189.5568,60.27716 191.06481,59.10732 L 190.50009,63.90648 C 190.54468,65.8172 189.17743,67.46991 187.29219,67.78412 C 185.40696,68.09833 183.5776,66.97838 183.00009,65.15648 L 178.68675,50.06037 C 179.76009,49.75377 180.50011,48.77275 180.50009,47.65648 C 180.50009,46.27577 179.3808,45.15648 178.00009,45.15648 C 176.61938,45.15648 175.50009,46.27577 175.50009,47.65648 C 175.50009,49.0372 176.61938,50.15649 178.00009,50.15649 L 178.00009,65.15648 C 177.46212,66.77067 175.95156,67.85948 174.25009,67.85948 C 172.54861,67.85948 171.03806,66.77067 170.50009,65.15648 L 169.29703,62.50954 C 170.78978,62.87959 172.36977,62.54208 173.58103,61.59442 C 174.7923,60.64677 175.50007,59.19441 175.50009,57.65648 C 175.50011,55.34776 173.91941,53.33921 171.67538,52.79653 C 169.43134,52.25385 167.10753,53.31816 166.05259,55.37176 L 164.25009,51.40649 C 166.47461,48.95999 166.38526,45.1976 164.04712,42.85946 C 161.70898,40.52132 157.94658,40.43196 155.50009,42.65648 z "
     style="fill:#ffcd50;fill-opacity:1;fill-rule:evenodd;stroke:none;stroke-width:1.0942663;stroke-linecap:butt;stroke-linejoin:miter;stroke-miterlimit:10"
     id="Crown" />
  <g
     transform="matrix(1.051483,0,0,1.051483,-3.580975,5.624804)"
     id="Svan">
    <path
       d="M 70.89835,25.729429 C 66.623739,25.892625 62.496514,27.010148 58.304918,29.449197 C 55.045146,31.345831 49.74822,34.121705 50.327583,37.785063 L 51.784119,46.994851 C 52.135005,49.213532 54.909807,46.683832 57.072464,47.196526 C 63.163204,48.639975 69.492009,49.187632 75.357591,46.636319 C 76.996798,45.924992 78.35833,44.996574 79.727198,43.880106 C 80.526007,43.22686 82.587924,40.623919 83.446966,40.474053 C 87.501962,39.770613 91.56359,39.512112 95.659459,39.174375 C 101.74518,38.673147 112.42692,39.383585 114.07903,46.770769 C 115.68167,53.937104 111.3273,62.406517 106.86358,67.67766 C 102.13956,73.255699 96.22558,77.506983 89.967765,81.18983 C 76.413825,89.170033 62.70984,96.77557 49.520886,105.34592 C 36.046541,114.10055 25.115979,127.14536 20.166088,142.45397 C 18.360522,148.03774 15.873027,157.75879 22.31728,161.34412 C 25.754883,163.25509 30.720554,162.55416 34.596997,162.55416 C 78.017359,162.55416 121.41622,162.55416 164.8337,162.55416 C 172.28758,162.55416 179.74326,162.55416 187.19713,162.55416 C 191.54254,162.55416 195.01599,162.30516 199.02868,160.20129 C 211.66478,153.58208 222.5758,139.50934 227.37511,126.27521 C 223.5675,129.55578 219.28251,133.92862 214.49037,135.70909 C 210.75375,137.09875 207.01802,137.40459 203.03976,137.3673 C 195.85048,136.64593 189.03962,135.00403 182.67067,131.47393 C 177.22313,128.45365 172.26858,124.37876 167.29861,120.65075 C 155.41256,111.74625 143.05594,105.66967 128.10659,104.40477 C 111.43199,102.99502 95.057304,107.03262 80.264996,114.51089 C 66.79065,121.32443 54.471853,131.56016 42.753597,140.99743 C 56.208582,118.47159 80.951584,104.09715 102.18026,89.884228 C 114.60482,81.567006 125.50813,72.168989 128.48753,56.697621 C 129.83848,49.691908 128.25664,41.384186 123.82662,35.745913 C 119.11049,29.741938 111.47735,27.170548 104.10736,26.513717 C 100.27609,26.173112 96.509717,26.346462 92.679162,26.580942 C 90.713691,26.700692 88.623622,27.00634 86.696161,27.410047 C 84.339173,27.904104 83.56564,27.438192 81.250958,26.894657 C 77.641353,26.050136 74.223045,25.602501 70.89835,25.729429 z M 60.456109,32.227819 C 61.341955,32.227812 62.047094,32.955366 62.047094,33.841213 C 62.047087,34.727059 61.341955,35.432198 60.456109,35.432198 C 59.57027,35.432191 58.842715,34.727059 58.842715,33.841213 C 58.842708,32.955374 59.57027,32.227819 60.456109,32.227819 z "
       style="fill:#eeeeee;fill-opacity:1;stroke:none;stroke-width:3"
       id="path35450" />
    <path
       d="M 59.347822,39.835167 L 51.780189,46.989047 C 50.324163,48.365465 47.936728,48.392341 45.98488,48.844091 C 42.132813,49.741138 38.43635,50.490469 34.490348,50.863342 C 33.530199,50.954409 30.363648,51.14228 29.594955,50.505528 C 28.358021,49.483712 29.137373,47.184726 30.281903,46.885073 C 40.313249,44.25874 45.829398,44.027564 49.295822,38.482584 L 59.347822,39.835167 z "
       style="fill:#ffcd50;fill-opacity:1;stroke:#d40000;stroke-width:1;stroke-miterlimit:4;stroke-dasharray:none;stroke-opacity:1"
       id="use2467" />
  </g>
  <path
     d="M 249.55062,1.4395041 L 125.50012,1.4395041 L 1.449569,1.4395041 L 1.449569,174.9361 C 0.68232904,268.65698 81.739009,302.75585 125.5001,302.75585 C 168.49395,302.75585 250.31785,268.65698 249.55062,174.9361 L 249.55062,1.4395041 z "
     style="color:#000000;fill:none;fill-opacity:0;fill-rule:nonzero;stroke:#000000;stroke-width:1.88832211;stroke-linecap:round;stroke-linejoin:bevel;marker:none;marker-start:none;marker-mid:none;marker-end:none;stroke-miterlimit:4;stroke-dashoffset:0;stroke-opacity:1;visibility:visible;display:block"
     id="Frame" />
</svg>
