<?xml version="1.0" encoding="UTF-8" standalone="no"?>
<!-- Created with Inkscape (http://www.inkscape.org/) -->

<svg
   xmlns:svg="http://www.w3.org/2000/svg"
   xmlns="http://www.w3.org/2000/svg"
   version="1.0"
   width="251"
   height="304.20001"
   id="svg4166">
  <defs
     id="defs4168" />
  <path
     d="m 1.4494787,1.4395053 124.0505013,0 124.05055,0 0,173.4965947 C 250.31777,268.65698 169.26109,302.75585 125.5,302.75585 82.506149,302.75585 0.68224873,268.65698 1.4494787,174.9361 l 0,-173.4965947 z"
     id="Shield"
     style="color:#000000;fill:#eeeeee;fill-opacity:1;fill-rule:nonzero;stroke:none;stroke-width:1.88832211;marker:none;visibility:visible;display:block" />
  <g
     transform="translate(2,-4)"
     id="g2676">
    <g
       transform="matrix(0.6737696,0,0,0.6737696,40.941871,39.936051)"
       id="g3191">
      <g
         transform="matrix(0.4010749,-0.1181381,0.09916601,0.4099196,-199.04368,60.945921)"
         id="Rifle">
        <path
           d="m 641.81811,502.52089 c 11.33537,20.16748 -2.88374,34.17991 -24.00795,29.82425"
           id="avtryckare1"
           style="fill:none;stroke:#d40000;stroke-width:3.22868228;stroke-miterlimit:4;stroke-opacity:1;stroke-dasharray:none" />
        <path
           d="m 630.63688,516.56331 c -1.46892,7.57895 5.88019,9.09189 5.88019,9.09189"
           id="avtryckare2"
           style="fill:none;stroke:#d40000;stroke-width:3.84552193;stroke-miterlimit:4;stroke-opacity:1;stroke-dasharray:none" />
        <path
           d="M 899.46858,145.39372 612.72086,428.04185 c -3.67455,9.84839 7.16267,12.50314 6.98077,14.96525 -7.89941,13.25962 -5.69374,26.33129 -7.34914,29.93048 -11.93777,16.4829 -26.81792,15.91436 -28.10494,15.72642 -14.51178,-3.03534 -19.65525,18.18385 -23.51174,18.94032 -5.32537,5.87333 0.73675,17.62 -6.24402,23.30067 1.10055,0.19263 -45.00882,46.60604 -49.96585,51.53023 -1.8373,4.9242 -32.14787,36.94092 -32.14787,36.94092 4.7751,12.12254 56.02798,45.6569 55.84608,46.78928 37.83707,-45.27633 87.43455,-137.53457 92.57803,-138.09842 27.37277,-31.26021 53.64041,-74.26237 48.86531,-86.38494 3.85645,-21.40709 27.18629,-40.3521 34.53543,-39.403 -4.5932,-13.45228 1.65082,-24.24977 1.83272,-25.38688 L 910.85611,170.96857 c 0,-10.41697 -3.67459,-7.38631 -10.65533,-7.95485 0,0 5.69829,-8.90395 6.79884,-8.90395 0.91865,-6.25394 -4.96158,-9.66046 -7.53104,-8.71605 z"
           id="Wood"
           style="fill:#d40000;fill-opacity:1;stroke:none" />
        <path
           d="m 956.01637,105.77425 -8.0554,-9.25602 -335.24011,331.52362 c -3.67455,9.84839 6.98077,13.64021 6.7943,16.29026 L 848.40217,217.38198 c 0,0 85.38945,-89.06353 107.6142,-111.60773 z"
           id="barrel"
           style="fill:#d40000;fill-opacity:1;stroke:#eeeeee;stroke-width:3.00223327;stroke-miterlimit:4;stroke-opacity:1;stroke-dasharray:none" />
        <path
           d="m 611.62032,429.36686 c 5.87564,6.44187 41.88,21.21919 46.4732,47.92638 -17.81799,28.7981 -38.94216,50.20523 -41.14783,54.94149 -30.12413,-14.58935 -46.4732,-25.57485 -51.80312,-29.93521 1.28699,-4.73626 7.89939,-9.66046 7.89939,-9.66046 4.22486,-7.19834 11.75586,-3.41121 11.75586,-3.41121 15.7988,-7.00572 23.14794,-21.783 20.02366,-32.58053 -3.67459,-13.64022 -1.10054,-10.42163 -1.65539,-12.12258 1.65539,-7.57894 8.45423,-15.15788 8.45423,-15.15788 z"
           id="chamber"
           style="fill:#d40000;fill-opacity:1;stroke:#eeeeee;stroke-width:3.00223327;stroke-miterlimit:4;stroke-opacity:1;stroke-dasharray:none" />
      </g>
      <g
         transform="matrix(-0.4010749,-0.1181381,-0.09916601,0.4099196,450.0439,60.945921)"
         id="use2211">
        <path
           d="m 641.81811,502.52089 c 11.33537,20.16748 -2.88374,34.17991 -24.00795,29.82425"
           id="path2644"
           style="fill:none;stroke:#d40000;stroke-width:3.22868228;stroke-miterlimit:4;stroke-opacity:1;stroke-dasharray:none" />
        <path
           d="m 630.63688,516.56331 c -1.46892,7.57895 5.88019,9.09189 5.88019,9.09189"
           id="path2646"
           style="fill:none;stroke:#d40000;stroke-width:3.84552193;stroke-miterlimit:4;stroke-opacity:1;stroke-dasharray:none" />
        <path
           d="M 899.46858,145.39372 612.72086,428.04185 c -3.67455,9.84839 7.16267,12.50314 6.98077,14.96525 -7.89941,13.25962 -5.69374,26.33129 -7.34914,29.93048 -11.93777,16.4829 -26.81792,15.91436 -28.10494,15.72642 -14.51178,-3.03534 -19.65525,18.18385 -23.51174,18.94032 -5.32537,5.87333 0.73675,17.62 -6.24402,23.30067 1.10055,0.19263 -45.00882,46.60604 -49.96585,51.53023 -1.8373,4.9242 -32.14787,36.94092 -32.14787,36.94092 4.7751,12.12254 56.02798,45.6569 55.84608,46.78928 37.83707,-45.27633 87.43455,-137.53457 92.57803,-138.09842 27.37277,-31.26021 53.64041,-74.26237 48.86531,-86.38494 3.85645,-21.40709 27.18629,-40.3521 34.53543,-39.403 -4.5932,-13.45228 1.65082,-24.24977 1.83272,-25.38688 L 910.85611,170.96857 c 0,-10.41697 -3.67459,-7.38631 -10.65533,-7.95485 0,0 5.69829,-8.90395 6.79884,-8.90395 0.91865,-6.25394 -4.96158,-9.66046 -7.53104,-8.71605 z"
           id="path2648"
           style="fill:#d40000;fill-opacity:1;stroke:none" />
        <path
           d="m 956.01637,105.77425 -8.0554,-9.25602 -335.24011,331.52362 c -3.67455,9.84839 6.98077,13.64021 6.7943,16.29026 L 848.40217,217.38198 c 0,0 85.38945,-89.06353 107.6142,-111.60773 z"
           id="path2650"
           style="fill:#d40000;fill-opacity:1;stroke:#eeeeee;stroke-width:3.00223327;stroke-miterlimit:4;stroke-opacity:1;stroke-dasharray:none" />
        <path
           d="m 611.62032,429.36686 c 5.87564,6.44187 41.88,21.21919 46.4732,47.92638 -17.81799,28.7981 -38.94216,50.20523 -41.14783,54.94149 -30.12413,-14.58935 -46.4732,-25.57485 -51.80312,-29.93521 1.28699,-4.73626 7.89939,-9.66046 7.89939,-9.66046 4.22486,-7.19834 11.75586,-3.41121 11.75586,-3.41121 15.7988,-7.00572 23.14794,-21.783 20.02366,-32.58053 -3.67459,-13.64022 -1.10054,-10.42163 -1.65539,-12.12258 1.65539,-7.57894 8.45423,-15.15788 8.45423,-15.15788 z"
           id="path2652"
           style="fill:#d40000;fill-opacity:1;stroke:#eeeeee;stroke-width:3.00223327;stroke-miterlimit:4;stroke-opacity:1;stroke-dasharray:none" />
      </g>
    </g>
    <path
       d="m 2.0512108,144.25284 c -2.01408001,3.89958 4.16051,6.79325 5.9951,9.88704 11.8397102,12.68638 23.3486802,25.6468 35.5361502,37.92546 4.16977,1.43544 0.07776,0.34836 -2.4954,-0.0645 -11.83175,-2.04069 -23.68952,-4.7077 -35.4421002,-6.46679 -4.34381,0.54531 -0.11321,5.42302 1.3125,7.6875 4.3281802,5.69515 7.9868602,12.29137 12.6250002,17.5625 8.67562,2.3869 19.56158,6.06592 20.96875,16.375 1.90195,8.49459 2.43304,17.83507 8.46875,24.65625 2.96443,3.4162 7.67176,6.99549 12.3125,6.53125 1.72809,-2.16751 3.98162,1.68445 6.53125,0.53125 44.850189,0.74978 89.704549,1.28489 134.562499,1.15625 1.95589,-0.0475 6.98147,0.351 9.99992,0.0445 7.60467,2.13804 7.95804,-2.82463 6.93228,-9.07452 -0.88974,-6.04105 1.34751,-13.4154 -1.57261,-18.58749 -1.10818,-1.85959 -8.03622,-6.28097 -3.17209,-6.10122 3.25875,0.86943 8.61837,-2.78982 4.65625,-5.6875 -2.16879,-1.31426 -6.53841,-0.80656 -7.78125,-1.46875 0.55252,-2.0694 -0.9001,-4.63234 2.65275,-3.64608 3.77343,0.85212 4.99127,-2.38993 7.8785,-0.85392 5.65687,-0.51629 5.02929,-8.66517 7.57501,-12.30405 0.8752,-4.44184 5.04355,-9.13333 3.42499,-13.6022 -8.39054,-1.02047 -16.96544,2.429 -25.34375,2.78125 -6.64988,1.64258 -14.007,1.87408 -21.0625,3.15625 -4.73479,1.40174 -11.3339,-0.16411 -13.40625,5.65625 -3.71714,5.28596 -7.92243,10.45883 -11.9375,15.5625 0.54415,3.90629 -6.85885,0.52315 -9.25,1.8125 -7.91503,0.81112 -16.2258,-0.17072 -23.96808,0.51057 -12.07043,-0.42683 -25.01968,-0.0595 -36.531919,-1.69807 -3.10944,-5.77984 -9.69552,-9.91634 -12.21875,-16.25 -3.59603,-3.16458 -8.71209,-1.86579 -12.6875,-3.625 -3.90038,-0.79181 -9.44748,-1.17383 -12.65625,-2.53125 4.32817,-3.14374 -2.98199,-6.57221 -4.8506,-9.21937 -14.80244,-13.92144 -29.33627,-27.83823 -44.7431502,-41.03063 -1.1003,-0.86384 -1.55656,-0.72723 -2.3125,0.375 z m 205.5312492,87.0625 c 0.10813,0.5229 -0.58552,-0.0629 0,0 z m -1.8125,7.90625 c -0.25402,-0.11158 0.35065,-0.4408 0,0 z m -153.093749,6.09375 c 2.3246,1.33434 0.51231,2.00924 0,0 z m 151.499999,0.9375 c -0.20729,-0.0147 0.15699,-0.13616 0,0 z"
       id="path2656"
       style="fill:#eeeeee;fill-opacity:1" />
    <g
       transform="matrix(1.0781178,0,0,1.0781178,-18.095266,-15.689257)"
       id="g2638">
      <path
         d="m 215.1626,253.69253 3.37363,-0.0233 -0.21251,-10.88969 -0.21251,-10.88975 -2.45373,-2.50114 c -1.34958,-1.37562 -2.71023,-2.89212 -3.02371,-3.37003 l -0.56993,-0.86885 -1.04407,4.6202 c -0.57422,2.54108 -1.34646,5.93245 -1.71606,7.53634 -2.69093,11.67698 -3.57539,15.99343 -3.35144,16.35576 0.077,0.12452 1.42168,0.18757 2.9883,0.14014 1.56665,-0.0474 4.36655,-0.0968 6.22203,-0.10963 z m -11.34112,-3.17791 c 1.06177,-4.46571 1.34118,-5.95388 1.16987,-6.23106 -0.15361,-0.24855 -0.57869,-0.19214 -7.08234,0.9401 -4.63611,0.80712 -10.06391,1.51341 -16.57773,2.15715 -2.67314,0.2642 -6.24544,0.62177 -7.93843,0.79466 -1.69299,0.17287 -4.31754,0.38517 -5.83232,0.47177 -1.5148,0.0866 -3.77481,0.30182 -5.02228,0.47833 -1.24748,0.17646 -6.35076,0.39648 -11.34063,0.48892 -9.59703,0.17781 -12.75624,0.30138 -16.889,0.66066 -3.08612,0.26828 -17.77542,-0.35513 -23.61325,-1.00216 -3.84924,-0.42661 -5.40789,-0.64213 -12.790247,-1.7685 -2.13236,-0.32533 -4.2716,-0.78321 -11.349093,-2.42905 -4.309008,-1.00206 -14.390615,-4.75517 -19.56847,-7.28479 -1.457227,-0.71194 -2.763585,-1.29443 -2.902977,-1.29443 -0.139439,0 -0.161588,0.32806 -0.04922,0.72903 0.335073,1.19644 0.899398,2.18712 1.245723,2.18712 0.178644,0 0.592437,0.24221 0.919529,0.53826 0.327138,0.29607 0.864547,0.69704 1.194293,0.89104 0.329718,0.19404 1.202957,0.75523 1.940589,1.24713 2.035327,1.35721 4.500054,2.63176 7.013968,3.62705 1.24748,0.49389 2.453932,1.04814 2.680997,1.23166 0.227064,0.1835 0.495399,0.25109 0.596324,0.15018 0.100906,-0.10092 0.789959,0.0352 1.531254,0.30244 0.741287,0.26725 1.566498,0.5426 1.833814,0.61184 0.267298,0.0693 2.053458,0.55343 3.969216,1.07595 1.915748,0.52247 3.483189,0.88175 3.483189,0.79837 0,-0.0834 0.228008,0.0764 0.506699,0.35506 1.012294,1.01233 -0.211981,1.47753 -2.265803,0.86098 -0.547296,-0.1643 -2.234419,-0.60758 -3.749197,-0.98501 -3.356826,-0.83645 -6.098346,-1.61546 -6.966389,-1.97948 -0.356419,-0.14949 -1.377077,-0.48413 -2.268129,-0.74367 -1.999552,-0.58239 -6.365989,-2.39153 -6.786146,-2.8117 -0.375793,-0.37579 -1.152303,-0.41008 -1.152303,-0.0509 0,0.14239 1.0472,1.31442 2.327073,2.60449 2.145504,2.16254 5.520423,4.58901 6.382793,4.58901 0.199466,0 0.362643,0.13921 0.362643,0.30935 0,0.70695 1.677805,0.74798 47.954654,1.17361 13.27664,0.12214 24.19549,0.27124 24.26415,0.33138 0.0686,0.0601 12.25008,0.11603 27.06984,0.1242 l 26.9451,0.0148 0.75224,-3.16383 z m -131.198208,1.37245 c -0.22183,-0.26732 -0.568847,-0.48602 -0.77109,-0.48602 -0.860538,0 -6.681333,-5.75738 -6.681333,-6.60855 0,-0.0919 -0.353101,-0.68737 -0.784679,-1.32332 -1.029827,-1.51757 -2.528745,-5.55128 -3.193153,-8.59307 -0.786744,-3.6019 -1.760506,-8.587 -2.215205,-11.34061 -0.478624,-2.89854 -1.233938,-4.79893 -2.624969,-6.60463 -3.501619,-4.54537 -8.34197,-7.60758 -14.835286,-9.38529 -5.588236,-1.52992 -5.332321,-1.40332 -6.501624,-3.21693 -0.600119,-0.93077 -1.205555,-1.83813 -1.345405,-2.01634 -0.854491,-1.08862 -3.164518,-4.43403 -3.915412,-5.6703 -0.4871,-0.80196 -1.393423,-2.16658 -2.014009,-3.03254 -0.620633,-0.86597 -1.128397,-1.71802 -1.128397,-1.89348 0,-0.33458 2.527867,-0.13136 5.184285,0.41678 1.427367,0.29453 2.155934,0.42028 8.424484,1.45401 1.692983,0.27919 3.880094,0.64846 4.860276,0.82061 1.50761,0.26481 5.284574,0.8686 9.2345,1.47629 0.534623,0.0823 2.430147,0.42693 4.212223,0.76595 7.502189,1.4272 12.171476,2.04529 12.554848,1.6619 0.546474,-0.54643 -0.09579,-1.05733 -1.492329,-1.18711 -0.637997,-0.0593 -1.343059,-0.22094 -1.566787,-0.35921 -0.223738,-0.13829 -1.1395,-0.3645 -2.035103,-0.50268 -3.229714,-0.49839 -9.148864,-1.54414 -12.482905,-2.20539 -6.059467,-1.20179 -6.941351,-1.369 -8.586474,-1.62794 -3.472339,-0.5466 -15.019052,-2.70917 -17.334957,-3.24667 -3.023191,-0.70165 -5.197406,-1.05987 -5.372162,-0.88514 -0.165429,0.16546 0.954603,2.03102 1.508348,2.5123 0.102523,0.0891 0.467026,0.66797 0.810053,1.28636 0.342989,0.61841 0.87736,1.40984 1.18748,1.75879 0.31013,0.34894 1.287891,1.73847 2.172803,3.08787 0.884921,1.34939 1.815852,2.69038 2.068785,2.97997 0.252905,0.28959 0.514558,0.66506 0.581371,0.83434 0.06681,0.16931 0.751034,1.17172 1.52046,2.22763 0.769389,1.0559 1.862945,2.63596 2.43011,3.51125 l 1.031183,1.59143 4.695632,1.55495 c 5.429994,1.79811 5.59875,1.87325 8.520418,3.79341 5.513236,3.6234 7.03879,6.93234 9.287275,20.14436 0.662324,3.89172 1.443722,6.62694 2.129065,7.45241 0.221952,0.26731 0.730408,1.14217 1.129995,1.94412 0.880659,1.76755 2.780716,4.42754 3.885262,5.43911 1.518881,1.39105 6.221887,3.89088 7.411068,3.93929 0.358681,0.0146 0.3667,-0.0759 0.04135,-0.46791 z m 81.814528,-4.00988 c 1.7821,-0.17508 4.91696,-0.40477 6.96638,-0.5104 2.04942,-0.10563 4.89268,-0.33853 6.31836,-0.51758 1.42567,-0.17902 4.05021,-0.45624 5.83232,-0.61607 4.02436,-0.36091 8.47249,-0.94917 20.08913,-2.65668 1.24746,-0.18335 3.55497,-0.61206 5.12774,-0.95267 1.57283,-0.34058 3.20107,-0.61927 3.61833,-0.61927 0.41733,0 1.41659,-0.28199 2.2206,-0.62664 1.36111,-0.58342 1.47733,-0.72965 1.686,-2.12107 0.12325,-0.82196 0.13781,-1.58075 0.0324,-1.68618 -0.10547,-0.10548 -1.76337,0.12329 -3.68424,0.50836 -1.92088,0.38502 -4.44023,0.83129 -5.59861,0.99168 -3.35313,0.46424 -6.82168,0.9878 -8.74848,1.32058 -0.98017,0.16925 -3.67763,0.4627 -5.99436,0.65217 -2.31674,0.18941 -5.01417,0.47842 -5.99433,0.64217 -0.98016,0.16377 -3.6047,0.37541 -5.83233,0.47034 -4.60665,0.19626 -9.09995,0.49318 -10.53058,0.69587 -1.17797,0.16686 -38.06527,0.16385 -38.3542,-0.003 -0.11217,-0.0648 -2.24525,-0.21911 -4.7402,-0.34285 -5.71534,-0.28344 -10.64286,-0.7074 -13.04298,-1.12218 -1.024,-0.17699 -2.95539,-0.47205 -4.291977,-0.65574 -4.08995,-0.56215 -8.03482,-1.245 -9.14802,-1.58357 -0.582203,-0.17709 -1.714665,-0.41365 -2.516624,-0.52571 -0.801931,-0.11209 -1.895487,-0.33487 -2.430129,-0.49507 -0.534633,-0.16021 -2.21142,-0.59944 -3.726198,-0.97609 -3.537142,-0.87947 -9.613843,-2.75962 -12.312681,-3.80951 -2.987967,-1.16237 -6.280494,-2.35003 -6.515035,-2.35003 -0.536241,0 0.223018,1.72649 0.967257,2.19939 0.46726,0.29688 0.925192,0.6431 1.017687,0.7693 0.09249,0.12624 1.477675,0.85394 3.078182,1.61717 1.600516,0.7632 2.958594,1.50166 3.017967,1.64106 0.05944,0.13938 0.319737,0.25344 0.578456,0.25344 0.258746,0 0.793351,0.20863 1.188078,0.4636 0.394699,0.255 1.665385,0.78282 2.823744,1.17298 1.158369,0.39016 2.543549,0.88881 3.078173,1.10812 2.753174,1.12932 4.593175,1.79155 4.977883,1.79155 0.236027,0 1.837085,0.42468 3.557946,0.94373 6.548634,1.97527 14.885181,3.52711 25.324041,4.71404 2.40584,0.27355 4.81168,0.55337 5.34629,0.62184 1.96387,0.25152 33.47686,-0.0987 36.61404,-0.40694 z m -10.36859,-6.33958 c 7.67466,-0.1919 18.69288,-0.72477 20.89916,-1.01075 0.62375,-0.0808 2.08184,-0.22424 3.24019,-0.31873 1.15837,-0.0945 4.43905,-0.39897 7.2904,-0.67662 2.85137,-0.27764 6.49657,-0.62606 8.10046,-0.77422 3.46764,-0.32037 9.84413,-1.21961 10.53059,-1.48509 0.26732,-0.10339 1.6525,-0.38412 3.07818,-0.62384 3.15976,-0.53137 8.14665,-1.62419 9.19082,-2.01405 0.79712,-0.29762 1.64972,-2.15411 1.65888,-3.61214 0.005,-0.76676 -0.0225,-0.77338 -2.34423,-0.56488 -1.29202,0.11601 -2.71365,0.27749 -3.15918,0.35882 -0.44553,0.0813 -2.70555,0.37762 -5.02228,0.65842 -2.31673,0.28078 -4.72255,0.64987 -5.34629,0.82018 -0.62374,0.17034 -1.94677,0.3105 -2.9401,0.31148 -0.99332,0.001 -3.25336,0.21253 -5.02231,0.47009 -1.76891,0.25753 -5.91368,0.62017 -9.21056,0.80589 -3.29688,0.18569 -6.72338,0.42043 -7.61444,0.52163 -2.04898,0.23274 -47.59851,0.23385 -51.51884,0.001 -5.42733,-0.32199 -11.78402,-0.90265 -16.038897,-1.46519 -2.17327,-0.28731 -8.011178,-1.05114 -11.50262,-1.50506 -0.712847,-0.0927 -2.170934,-0.36879 -3.240181,-0.6136 -1.069275,-0.24483 -2.600259,-0.53838 -3.40219,-0.65239 -0.801949,-0.11403 -1.968411,-0.33493 -2.592137,-0.49089 -0.623736,-0.15595 -2.737969,-0.66031 -4.698259,-1.12079 -1.960327,-0.46046 -3.782917,-0.92628 -4.050224,-1.03514 -0.267335,-0.10887 -0.832361,-0.25588 -1.255667,-0.32663 -0.423306,-0.0708 -1.808487,-0.46702 -3.078173,-0.88046 -1.269704,-0.41345 -2.789146,-0.85652 -3.376535,-0.98457 -1.03336,-0.2253 -1.063164,-0.20293 -0.917706,0.68725 0.08271,0.50605 0.162298,1.03722 0.176989,1.18039 0.02563,0.2506 4.639502,2.48028 7.317023,3.53602 0.712847,0.28105 2.405493,0.97421 3.761449,1.54031 1.355975,0.56611 2.959846,1.15703 3.564199,1.31314 0.604371,0.15611 3.942075,1.03123 7.417162,1.94466 9.63239,2.53198 11.37947,2.89001 19.603067,4.01731 2.13853,0.29316 4.76307,0.67075 5.83234,0.83907 1.06925,0.16833 3.98542,0.38643 6.48036,0.48464 2.49492,0.0982 5.26529,0.26821 6.15634,0.37777 1.62715,0.20008 13.32634,0.6549 13.93277,0.54166 0.17821,-0.0333 3.82341,-0.148 8.10044,-0.25497 z m -5.08594,-8.85888 c -0.0827,-0.42922 -0.53412,-0.53285 -2.36834,-0.54355 l -2.26625,-0.0132 -0.10667,-1.29608 c -0.14891,-1.80998 0.48206,-3.79503 1.16456,-3.66361 0.29359,0.0565 0.6189,0.46657 0.7229,0.91117 0.15939,0.6813 0.40358,0.82399 1.5533,0.90796 1.35747,0.0992 1.36418,0.0942 1.36418,-1.0134 0,-0.61212 -0.18228,-1.264 -0.40503,-1.44862 -0.26197,-0.21708 -3.55223,-0.31299 -9.31551,-0.27155 -8.90227,0.064 -23.85136,-0.2541 -27.21752,-0.57918 -0.98016,-0.0946 -3.021477,-0.31559 -4.536247,-0.49096 -1.51478,-0.17539 -3.92062,-0.40092 -5.346293,-0.50124 -1.425676,-0.10033 -3.223359,-0.26292 -3.99486,-0.36135 -1.323845,-0.16892 -1.396742,-0.13663 -1.29606,0.57377 0.08284,0.5848 0.341578,0.77538 1.159686,0.85428 0.59153,0.057 1.053061,-0.0495 1.053061,-0.24303 0,-0.57733 1.3039,-0.38364 1.497647,0.22247 0.09967,0.31187 0.340017,0.89805 0.534101,1.30261 0.508231,1.0594 0.01109,1.33145 -1.950748,1.06752 -1.494975,-0.20111 -1.701086,-0.15967 -1.701086,0.34201 0,0.74405 0.336484,0.92799 2.014215,1.10097 0.763408,0.0787 1.752497,0.22041 2.198027,0.31488 0.445512,0.0945 1.90359,0.31557 3.24016,0.49129 1.98763,0.26131 9.857897,1.31068 13.284737,1.77124 0.44553,0.0599 2.77846,0.2026 5.1843,0.31719 2.40582,0.11456 5.4678,0.29122 6.80436,0.39258 4.39189,0.33296 12.96678,0.59713 15.92662,0.49065 2.48263,-0.0893 2.89006,-0.18157 2.80276,-0.63482 z m 4.59991,-0.0877 c 0,-0.59846 -0.16977,-0.65517 -1.69804,-0.56703 -1.3124,0.0757 -1.72255,0.22676 -1.80587,0.66498 -0.0922,0.48509 0.15316,0.56704 1.69808,0.56704 1.60514,0 1.80583,-0.0739 1.80583,-0.66499 z m 4.47778,-0.0544 c -0.0935,-0.64956 -0.26083,-0.7097 -1.72361,-0.6194 -1.84913,0.11415 -1.93236,0.15593 -1.67029,0.83883 0.13824,0.36021 0.65388,0.49999 1.84468,0.49999 1.52252,0 1.6446,-0.0567 1.54922,-0.71942 z m 4.43271,-0.0906 c 0,-0.54003 -0.21599,-0.64802 -1.29605,-0.64802 -1.43528,0 -2.10612,0.32764 -2.10612,1.02865 0,0.35532 0.39648,0.44047 1.7011,0.36537 1.45244,-0.0836 1.70107,-0.19269 1.70107,-0.746 z m 4.05024,-0.162 c 0,-0.55203 -0.21602,-0.64803 -1.45808,-0.64803 -0.99905,0 -1.45809,0.13602 -1.45809,0.43201 0,0.68558 0.34576,0.86407 1.67411,0.86407 1.02604,0 1.24206,-0.11271 1.24206,-0.64805 z m 17.49698,-0.48911 c 2.76225,-0.26915 6.48036,-0.65359 8.26245,-0.85434 1.78211,-0.2007 4.33374,-0.4718 5.67034,-0.60238 1.33657,-0.13061 3.81531,-0.47007 5.5083,-0.75437 1.69299,-0.28432 3.80721,-0.58757 4.69827,-0.6739 2.36342,-0.22893 9.62526,-1.39998 10.29033,-1.6594 0.31344,-0.12225 0.64974,-0.60717 0.74739,-1.07757 0.0977,-0.47041 0.30864,-1.4377 0.46886,-2.14953 0.16025,-0.71185 0.16764,-1.41794 0.0164,-1.56916 -0.26222,-0.26219 -5.37859,0.0632 -12.00904,0.76371 -1.69299,0.17885 -5.77215,0.4802 -9.06482,0.66962 -3.29265,0.18944 -6.42753,0.396 -6.96641,0.45909 -1.51167,0.17691 -6.67754,0.46818 -11.51031,0.64896 -2.40582,0.09 -5.95279,0.3216 -7.88213,0.51476 -1.92933,0.1931 -3.82608,0.27127 -4.21493,0.17367 -1.2219,-0.3067 -1.6322,0.2063 -1.29739,1.62203 0.35404,1.49708 0.99279,1.6094 1.71743,0.30198 0.28951,-0.52231 0.68236,-1.00169 0.87303,-1.06524 0.51793,-0.17266 1.21006,1.77198 1.2289,3.45275 l 0.0165,1.47839 -1.53908,0.0988 c -1.15363,0.074 -1.53908,0.2286 -1.53908,0.61715 0,0.46367 0.60707,0.49605 5.75132,0.30643 3.16322,-0.11658 8.01134,-0.43221 10.7736,-0.70141 z m -31.51077,-2.63128 c 0.61545,-0.16493 0.72906,-0.41666 0.72906,-1.61565 l 0,-1.42029 -1.78211,0 c -1.6334,0 -1.78173,0.0608 -1.77765,0.72903 0.008,1.35787 0.38298,2.15019 1.08164,2.28679 0.38282,0.0749 0.76892,0.15397 0.85802,0.17582 0.0891,0.0218 0.49008,-0.0482 0.89104,-0.1557 z m 5.10331,-1.41586 0,-1.45809 -1.86313,-0.0972 c -2.07461,-0.10821 -2.20619,0.0744 -1.48706,2.06307 0.35285,0.9758 0.46765,1.03709 1.8631,0.99508 l 1.48709,-0.0448 0,-1.45807 z m -61.460903,0.40503 c -0.08644,-0.75128 -0.254999,-0.89106 -1.074565,-0.89106 -1.26434,0 -1.389292,1.15083 -0.162008,1.49218 1.294442,0.36006 1.344376,0.33576 1.236573,-0.60112 z m 65.835133,-0.56086 c 0,-1.25882 -0.10252,-1.47763 -0.7709,-1.64539 -0.42398,-0.10644 -1.18948,-0.14564 -1.7011,-0.0872 -0.82472,0.0943 -0.92471,0.2263 -0.88184,1.1646 0.0821,1.79789 0.28937,2.0199 1.88558,2.0199 l 1.46826,0 0,-1.45191 z m 3.77866,-0.0872 c -0.0957,-0.8465 -0.18313,-1.58393 -0.19424,-1.63873 -0.0111,-0.0548 -0.63991,-0.0548 -1.39731,0 -1.35776,0.0982 -1.37587,0.11554 -1.29127,1.23369 0.13481,1.78172 0.2783,1.94412 1.71836,1.94412 l 1.33849,0 -0.17403,-1.53908 z m -72.79447,-0.081 c 0,-0.54004 -0.216027,-0.64803 -1.296078,-0.64803 -0.902173,0 -1.296078,0.13953 -1.296078,0.45903 0,0.54445 0.48668,0.77661 1.701095,0.81148 0.683586,0.0196 0.891061,-0.12533 0.891061,-0.62248 z m -3.45918,-0.45434 c 0.239532,-0.62422 -0.05276,-0.84172 -1.131097,-0.84172 -1.034584,0 -1.201752,0.45057 -0.350999,0.94609 0.792025,0.46129 1.278153,0.42707 1.482096,-0.10437 z m -3.021182,-0.81004 c 0,-0.40001 -0.358176,-0.74119 -1.020397,-0.97206 -1.394358,-0.48605 -1.571741,-0.45411 -1.571741,0.28308 0,0.44227 0.323934,0.7323 1.053052,0.94282 1.502703,0.43388 1.539086,0.4279 1.539086,-0.25384 z m -3.458975,-0.56891 c 0.354877,-0.3549 -0.461306,-1.08286 -1.214144,-1.08286 -0.388072,0 -0.858902,-0.15332 -1.046303,-0.34072 -0.37483,-0.37484 -0.202401,-1.83387 0.249784,-2.11334 0.625754,-0.38671 0.206821,-0.74879 -1.415732,-1.22362 -5.221303,-1.52794 -9.356499,-2.5457 -9.551395,-2.3508 -0.07656,0.0766 0.111663,0.93507 0.418288,1.90776 l 0.557455,1.7686 2.627259,0.84695 c 1.444947,0.46581 3.866552,1.22514 5.38134,1.68739 1.514796,0.46228 2.899977,0.89045 3.078172,0.95157 0.531091,0.1821 0.691119,0.17319 0.915276,-0.0509 z m 12.628091,-0.31543 c 0.468512,-0.46853 -0.47582,-1.41548 -1.411554,-1.41548 -0.95821,0 -0.962687,0.008 -0.437353,0.81005 0.501072,0.76475 1.396377,1.05792 1.848907,0.60543 z m 49.408756,-0.42948 3.65686,-0.0139 -0.2177,-2.99716 c -0.11972,-1.64844 -0.26108,-3.04823 -0.31411,-3.11064 -0.053,-0.0624 -4.73553,-0.1781 -10.40554,-0.25711 -8.58905,-0.11969 -18.25174,-0.54857 -27.968107,-1.24138 -3.12582,-0.22285 -11.805581,-1.16002 -12.393681,-1.33814 -0.311868,-0.0945 -0.872912,-0.0747 -1.246742,0.044 -0.551866,0.17515 -0.637016,0.3773 -0.452858,1.0749 0.124785,0.47255 0.321298,1.87982 0.436727,3.12728 l 0.209831,2.26812 1.134051,0.0852 c 0.623735,0.0468 2.373428,0.29743 3.888206,0.55683 1.514796,0.25944 4.066436,0.55638 5.670326,0.65987 1.60388,0.10349 3.353567,0.24998 3.888207,0.32548 3.96432,0.5599 16.78854,1.04446 24.46334,0.92439 3.2969,-0.0516 7.63995,-0.10006 9.65119,-0.10773 z m -52.421527,-0.66198 c 0,-0.39948 -0.217485,-0.64972 -0.567044,-0.65247 -0.311849,-0.002 -0.909809,-0.0962 -1.32876,-0.20833 -0.619698,-0.16592 -0.740193,-0.0922 -0.646305,0.39523 0.103121,0.53559 1.002957,0.99086 2.137074,1.08131 0.222765,0.0178 0.405035,-0.25932 0.405035,-0.61574 z m 60.186927,0.081 c 0.0958,-0.28855 -0.33937,-0.40504 -1.51271,-0.40504 -1.21149,0 -1.64707,0.12241 -1.64707,0.4629 0,0.59891 2.95984,0.54467 3.15978,-0.0579 z m 3.50909,0.24301 c 0.60916,0 1.10757,-0.1458 1.10757,-0.32403 0,-0.17822 -0.80196,-0.32402 -1.78212,-0.32402 -1.66075,0 -2.10395,0.21819 -1.556,0.76611 0.12434,0.12436 0.42787,0.14865 0.67452,0.054 0.24667,-0.0947 0.94688,-0.17207 1.55603,-0.17207 z m 4.99577,-0.28294 c 0,-0.15559 -0.65612,-0.29609 -1.45807,-0.31219 -0.80194,-0.0161 -1.45809,0.11124 -1.45809,0.28293 0,0.17169 0.65615,0.3122 1.45809,0.3122 0.80195,0 1.45807,-0.12731 1.45807,-0.28294 z m 3.07818,-0.0411 c 0.11684,-0.18903 -0.21267,-0.32402 -0.79094,-0.32402 -0.54513,0 -0.99118,0.1458 -0.99118,0.32402 0,0.42187 1.52137,0.42187 1.78212,0 z m -75.334165,-0.77226 c 0,-0.24654 -0.40097,-0.5253 -0.891052,-0.61943 -1.059154,-0.20347 -1.130546,-0.15925 -0.864005,0.53529 0.24855,0.64771 1.755057,0.71997 1.755057,0.0841 z m 92.021095,-0.0733 c 4.24434,-0.28482 10.77674,-0.83359 15.22884,-1.27931 2.76226,-0.27652 6.55328,-0.63085 8.42449,-0.78741 6.05511,-0.50658 13.74671,-1.32717 14.69472,-1.5678 1.02386,-0.25987 1.81639,-1.93731 1.82529,-3.86342 0.005,-1.02637 -0.03,-1.05261 -1.37219,-1.0356 -0.75738,0.01 -2.54353,0.15683 -3.96921,0.32713 -4.89633,0.58486 -9.78638,0.98688 -19.44109,1.59831 -2.85137,0.18058 -6.86109,0.47233 -8.91051,0.64835 -2.04939,0.17602 -7.15269,0.41061 -11.34062,0.52126 -11.43689,0.30225 -10.51215,0.19188 -10.63885,1.26967 -0.0596,0.50653 0.0846,1.79023 0.32027,2.85265 l 0.42855,1.93169 6.64612,-0.25885 c 3.65535,-0.14234 7.30223,-0.30286 8.10419,-0.35667 z m -94.937278,-0.61256 c 0,-0.35102 -0.359998,-0.48604 -1.296059,-0.48604 -1.459096,0 -1.642058,0.20585 -0.567026,0.63794 1.113846,0.44772 1.863085,0.38664 1.863085,-0.1519 z m 66.356878,-1.86311 -0.0952,-2.34913 -1.45808,0 -1.45807,0 -0.1012,1.59861 c -0.17169,2.71277 0.0457,3.09965 1.74168,3.09965 l 1.46606,0 -0.0952,-2.34913 z m 4.53732,0.70925 c 0.053,-0.81285 -0.0528,-1.86996 -0.23502,-2.34914 -0.29216,-0.76849 -0.50416,-0.87125 -1.79732,-0.87125 l -1.46613,0 0,2.21411 c 0,1.21779 0.0773,2.29146 0.17183,2.38595 0.0945,0.0945 0.85998,0.15526 1.7011,0.13502 l 1.52926,-0.0368 0.0963,-1.47788 z m 4.00945,-0.61943 c -0.0585,-1.15351 -0.17652,-2.21062 -0.26212,-2.34914 -0.0856,-0.13848 -0.81067,-0.25182 -1.61124,-0.25182 l -1.45561,0 0.0699,1.72624 c 0.1132,2.79874 0.36534,3.18892 1.98505,3.07183 l 1.38058,-0.0998 -0.10652,-2.09731 z m 3.90657,0.80123 c -0.22387,-3.29089 -0.28444,-3.40219 -1.85151,-3.40219 -1.39325,0 -2.12361,0.40146 -1.4678,0.80677 0.18112,0.11195 0.3293,0.89481 0.3293,1.73969 0,1.85798 0.44597,2.37392 1.94273,2.2476 1.10972,-0.0936 1.13344,-0.12516 1.04728,-1.39187 z m 64.32912,-0.0914 c 0.69094,-0.89529 0.28014,-1.1897 -2.21763,-1.58936 -4.02388,-0.64392 -3.94912,-0.67289 -4.37911,1.69839 l -0.1511,0.83328 3.16922,-0.20594 c 2.3757,-0.15438 3.27171,-0.33873 3.57862,-0.73637 z M 85.259971,221.26738 c 0,-0.86407 -0.108,-0.97206 -0.972052,-0.97206 -1.699113,0 -1.026294,1.77524 0.729034,1.92356 0.133663,0.0113 0.243018,-0.41688 0.243018,-0.9515 z m -3.138472,-0.61808 c -0.148793,-0.56906 -0.971453,-0.98675 -1.964813,-0.99757 -0.527343,-0.006 -0.527343,1.18827 0,1.40105 0.222765,0.0899 0.792351,0.17493 1.265751,0.18902 0.692679,0.0206 0.829165,-0.0951 0.699062,-0.5925 z m -3.21348,-0.2212 c 0.108728,-0.28342 0.126588,-0.63035 0.03968,-0.77094 -0.26255,-0.42482 -1.363554,-0.59754 -1.833309,-0.2876 -0.351092,0.2316 -0.285046,0.42159 0.324054,0.93235 0.925547,0.77615 1.210752,0.80064 1.469573,0.12619 z m -3.044565,-0.90233 c 0,-0.24502 -0.460737,-0.53768 -1.023799,-0.65027 -1.170107,-0.23402 -1.40376,-0.1111 -1.132509,0.59582 0.245354,0.63934 2.156308,0.68762 2.156308,0.0545 z M 84.931,218.1082 c -0.0059,-1.83465 -0.198008,-2.18006 -1.372124,-2.46742 -0.990818,-0.24249 -1.078976,0.0725 -0.685894,2.45008 0.190784,1.15392 0.287139,1.23396 1.819963,1.51229 0.133654,0.0243 0.240775,-0.64846 0.238055,-1.49495 z m -2.911211,-0.24104 c 0,-1.92318 -0.500025,-2.75613 -1.654459,-2.75613 -1.00122,0 -1.018304,0.0253 -0.821613,1.21508 0.110448,0.66828 0.20241,1.53344 0.204373,1.92258 0.0027,0.52701 0.230868,0.73662 0.894612,0.82161 1.241032,0.15889 1.377087,0.04 1.377087,-1.20314 z m -9.595347,-0.083 c -0.02021,-0.57916 -0.0567,-1.69438 -0.08101,-2.47823 l -0.04417,-1.4252 -2.345186,-0.23553 c -1.289872,-0.12954 -4.388307,-0.65762 -6.88537,-1.17353 -3.643357,-0.75275 -8.776651,-1.73422 -10.139953,-1.93873 -0.824884,-0.12377 -0.565978,0.20668 1.154004,1.47286 1.069145,0.78707 2.043271,1.59178 2.164682,1.78827 0.338998,0.54848 3.145266,1.885 4.486063,2.13652 0.658474,0.12355 1.197181,0.33765 1.197181,0.47581 0,0.13815 0.40098,0.32282 0.891062,0.41039 0.76608,0.13689 3.485685,0.85314 7.047369,1.85601 0.534633,0.15054 1.336564,0.24913 1.782094,0.21907 0.695147,-0.0469 0.804829,-0.204 0.773231,-1.10771 z m 6.214933,-0.81003 c -0.246569,-1.87457 -0.369035,-2.08278 -1.317835,-2.24105 -0.57453,-0.0958 -0.645726,0.0666 -0.627642,1.43198 0.01498,1.12765 0.188513,1.66724 0.648044,2.01482 1.231658,0.93163 1.540769,0.6444 1.297433,-1.20575 z m -3.000107,-0.532 c -0.07091,-1.62267 -0.277177,-1.92424 -1.402816,-2.05085 -0.735679,-0.0827 -0.811791,0.0312 -0.906127,1.35603 -0.113205,1.58915 0.506306,2.3852 1.720721,2.2111 0.549717,-0.0788 0.640773,-0.31349 0.588222,-1.51628 z m 55.267792,0.28899 1.63983,0 1.63979,0 -3.27962,0 z m 42.72667,-4.61726 c 1.60392,-2.00487 3.51993,-4.59296 4.25779,-5.75132 1.74335,-2.7369 2.0313,-3.16797 2.71073,-4.05781 0.31186,-0.40847 0.57228,-0.86548 0.5787,-1.01556 0.006,-0.15011 0.33444,-0.66552 0.72904,-1.14536 0.62344,-0.75821 0.98255,-0.88184 2.74249,-0.94423 1.11381,-0.0395 2.02511,-0.16429 2.02511,-0.27739 0,-0.11309 2.00488,-0.38934 4.45527,-0.61385 2.45037,-0.22454 5.62169,-0.58666 7.04739,-0.80471 2.48037,-0.37937 2.59664,-0.43526 2.6965,-1.29632 l 0.10439,-0.89985 -1.98998,0.17483 c -1.09447,0.0961 -2.52662,0.31349 -3.18254,0.48299 -0.6559,0.1695 -2.21323,0.40294 -3.46071,0.51878 -1.24746,0.11582 -3.14297,0.40822 -4.21222,0.64978 -1.06929,0.24157 -2.95374,0.53567 -4.18773,0.65357 -1.23396,0.11788 -2.42762,0.28497 -2.65251,0.37127 -0.2249,0.0863 -1.01858,1.09263 -1.76369,2.23628 -0.7451,1.14364 -1.46576,2.07938 -1.6014,2.07938 -0.13567,0 -0.42634,0.43374 -0.64593,0.96391 -0.21958,0.53014 -0.68355,1.29563 -1.031,1.70109 -1.47272,1.71856 -1.79077,2.11951 -3.02332,3.81135 -1.16986,1.60585 -3.29427,4.19556 -4.54425,5.53949 -0.80524,0.86577 -0.55837,1.2689 0.77717,1.2689 1.20942,0 1.35908,-0.13082 4.1707,-3.64522 z m 5.10541,3.16967 c 1.78211,-0.10041 4.18794,-0.25505 5.34631,-0.34368 1.15834,-0.0886 4.36615,-0.30618 7.12841,-0.48344 2.76225,-0.17723 5.45969,-0.39602 5.99433,-0.48611 0.53463,-0.0901 3.5966,-0.38079 6.80438,-0.64593 3.20777,-0.26513 7.85458,-0.6521 10.32621,-0.85995 l 4.49394,-0.37787 1.04608,-1.64693 c 1.98367,-3.12297 2.51112,-4.25029 4.3682,-9.33626 1.21995,-3.34122 1.22465,-4.63205 0.0167,-4.60568 -0.78967,0.0172 -4.36938,0.39321 -6.31836,0.66362 -0.53462,0.0742 -1.95625,0.22754 -3.15918,0.3408 l -2.18711,0.20596 0,1.36586 c 0,0.75121 0.0938,2.05 0.20838,2.88621 0.19158,1.39784 0.2754,1.51246 1.04025,1.4223 0.57229,-0.0675 0.8892,-0.34332 1.0156,-0.88407 0.39217,-1.67742 1.94799,-0.77236 1.94799,1.13317 0,0.61101 0.0365,1.22028 0.081,1.35394 0.0446,0.13366 -0.72093,0.31591 -1.70109,0.40501 l -1.78208,0.16201 0,1.13407 c 0,1.51332 -0.60557,1.75554 -0.81005,0.32402 -0.13542,-0.94774 -0.30842,-1.15091 -1.05307,-1.23659 -0.93328,-0.10738 -1.06242,0.20348 -0.89895,2.16396 0.10189,1.22206 -0.77742,0.64828 -0.96415,-0.62911 -0.12299,-0.84145 -0.33755,-1.13324 -0.89104,-1.21186 -0.73449,-0.10428 -0.81663,0.0412 -0.86546,1.53328 -0.0431,1.3165 -0.83563,1.21533 -0.83563,-0.10666 0,-1.07407 -0.0729,-1.16106 -0.97206,-1.16106 -0.91805,0 -0.97206,0.072 -0.97206,1.29606 0,1.56002 -0.50776,1.71004 -0.82239,0.24304 -0.30507,-1.42231 -0.37524,-1.50417 -1.12203,-1.30888 -0.50519,0.13211 -0.64772,0.44209 -0.64772,1.40854 0,1.70708 -0.58782,1.93005 -0.8452,0.32059 l -0.20967,-1.31131 -1.71221,0 -1.71221,0 -0.21485,-1.27181 c -0.35487,-2.10034 1.15499,-3.75836 1.64495,-1.80636 0.14592,0.58157 0.42186,0.81005 0.9782,0.81005 0.756,0 0.77491,-0.0667 0.77491,-2.73504 0,-1.50426 -0.10935,-2.80165 -0.24301,-2.88308 -0.13366,-0.0814 -2.86755,0.13376 -6.07532,0.47822 -3.20777,0.34444 -6.63429,0.70929 -7.61444,0.81077 -4.48539,0.46436 -4.04696,0.18872 -6.22317,3.91238 -0.74121,1.26828 -4.21902,6.27641 -4.67566,6.73302 -0.24299,0.24302 -0.44181,0.59804 -0.44181,0.78898 0,0.19096 -0.1339,0.34715 -0.29758,0.34715 -0.16369,0 -0.62985,0.54679 -1.03593,1.21507 -0.40614,0.6683 -0.87412,1.30814 -1.04001,1.42186 -0.56053,0.38429 0.12432,0.90702 1.00901,0.7702 0.48315,-0.0747 2.33657,-0.218 4.11866,-0.31846 z m -78.900257,-0.0915 c -0.001,-0.13367 -1.24775,-1.5553 -2.77048,-3.15919 -1.52274,-1.60388 -3.10814,-3.28066 -3.5231,-3.72619 -0.41501,-0.44553 -1.276514,-1.612 -1.914502,-2.59214 -0.637997,-0.98016 -1.454311,-2.14663 -1.814076,-2.59215 -0.359792,-0.44553 -0.661997,-0.95586 -0.67166,-1.13407 -0.04211,-0.77952 -1.019594,-1.53466 -2.162654,-1.67075 -0.680043,-0.081 -1.654132,-0.28321 -2.1647,-0.44941 -1.067397,-0.34752 -1.550254,-0.16514 -1.298657,0.49053 0.104364,0.272 0.892537,0.54536 1.955355,0.67816 1.444367,0.18045 1.846655,0.36771 2.131084,0.99198 0.192849,0.42325 0.473035,0.76955 0.622642,0.76955 0.149588,0 0.244522,0.10935 0.210961,0.243 -0.08482,0.33751 1.366573,2.67316 1.661133,2.67316 0.13199,0 0.403988,0.35991 0.604427,0.79982 0.501418,1.10051 1.659618,2.41535 5.214237,5.91946 2.69959,2.66125 3.92592,3.52415 3.91999,2.75824 z m -5.07022,-0.64843 c 0.08275,-0.13388 -0.89287,-1.36454 -2.16798,-2.73484 -2.998032,-3.22172 -4.331147,-4.85563 -5.831542,-7.14731 -0.997191,-1.52312 -1.382909,-1.8631 -2.113663,-1.8631 l -0.893865,0 0.440849,3.15917 c 0.242494,1.73755 0.579632,3.78094 0.749211,4.54088 0.169541,0.75995 0.308298,1.8143 0.308298,2.34297 0,1.11965 0.142307,1.17312 4.212223,1.58247 3.746399,0.37688 5.118419,0.40787 5.296469,0.11976 z M 81.371755,212.4811 c 0,-0.33564 -0.18227,-0.61223 -0.405035,-0.61468 -0.222747,-0.002 -0.733072,-0.0923 -1.134051,-0.19979 -0.615605,-0.16497 -0.729034,-0.0676 -0.729034,0.62544 0,0.90518 0.40583,1.1553 1.526862,0.94101 0.459783,-0.0879 0.741258,-0.37342 0.741258,-0.75198 z m 2.916164,0.53001 c 0,-0.51941 -1.376526,-1.005 -1.911552,-0.67437 -0.180541,0.11161 -0.246148,0.41692 -0.145737,0.67855 0.245905,0.64081 2.057289,0.63709 2.057289,-0.004 z m -6.214831,-0.89725 c -0.0741,-0.52199 -0.356578,-0.75817 -0.994575,-0.83155 -0.587361,-0.0676 -0.891061,0.0484 -0.891061,0.34021 0,0.62763 0.67196,1.22039 1.383414,1.22039 0.442895,0 0.577941,-0.19603 0.502222,-0.72905 z m -2.857678,-0.40501 c 0,-0.71232 -0.139149,-0.81007 -1.153182,-0.81007 -0.634249,0 -1.094163,0.10938 -1.021995,0.24304 0.07211,0.13364 0.221952,0.49818 0.332961,0.81003 0.12013,0.33757 0.533755,0.56703 1.022014,0.56703 0.658885,0 0.820202,-0.15931 0.820202,-0.81003 z m -3.145948,-0.33644 c -0.03728,-0.34958 -0.169831,-2.60403 -0.294588,-5.00987 -0.299204,-5.7704 -0.350176,-5.93487 -1.928589,-6.22396 -2.48754,-0.45559 -10.044364,-1.61316 -11.479797,-1.75848 -0.801949,-0.0812 -1.968421,-0.27468 -2.592147,-0.42999 -2.132504,-0.53099 -6.431961,-1.22186 -10.044561,-1.61402 -1.336582,-0.1451 -2.648847,-0.35524 -2.916164,-0.467 -0.267297,-0.11174 -1.944103,-0.41578 -3.726216,-0.67563 -1.782085,-0.25987 -4.374372,-0.67568 -5.760609,-0.92404 -1.386246,-0.24836 -2.595848,-0.32958 -2.687978,-0.18048 -0.13713,0.22188 0.848118,1.91897 1.482199,2.55307 0.259148,0.25916 0.943435,1.38981 1.37261,2.26812 0.217719,0.44552 0.571857,0.92144 0.786997,1.05755 0.215092,0.13615 0.921285,1.12036 1.569329,2.18714 0.648053,1.06679 1.206218,1.93961 1.240377,1.93961 0.0342,0 0.862024,0.29589 1.839637,0.65754 0.97764,0.36165 2.433689,0.81119 3.235611,0.99897 0.801968,0.18777 1.676824,0.39256 1.944121,0.45507 0.267317,0.0625 1.944122,0.47116 3.726198,0.90812 7.356461,1.80371 9.245434,2.24784 12.798707,3.00928 2.049411,0.43919 4.382363,0.87094 5.184303,0.95946 0.80195,0.0885 2.332914,0.3575 3.402181,0.59766 2.438661,0.54771 2.933939,0.49416 2.848379,-0.30812 z m 11.894431,-0.20866 c 0,-1.16076 -0.735231,-6.36709 -0.986856,-6.98832 -0.169401,-0.41821 -0.574576,-0.72905 -0.950322,-0.72905 -0.555549,0 -0.653979,0.20904 -0.648539,1.37708 0.01221,2.61968 0.632408,5.8976 1.195489,6.31836 0.684156,0.51122 1.390228,0.52238 1.390228,0.0219 z m 140.419227,-0.50797 c 0.25302,-0.49007 1.14456,-2.71365 1.98117,-4.94126 0.83662,-2.22763 1.93989,-5.14379 2.45175,-6.48038 2.03013,-5.30109 2.9833,-8.12521 2.80316,-8.30537 -0.20328,-0.20323 -4.57461,0.26557 -8.00355,0.85838 -3.62483,0.62666 -5.57972,0.93324 -8.42448,1.32118 -1.51478,0.20656 -2.88201,0.49223 -3.03825,0.63481 -0.15624,0.14261 -0.18966,0.63539 -0.0743,1.09509 0.24469,0.9748 -0.0328,0.98457 9.5589,-0.33626 3.09993,-0.42686 5.77141,-0.77613 5.93661,-0.77613 0.66419,0 -0.25027,4.48434 -1.58574,7.77644 -0.10844,0.26731 -0.5262,1.36087 -0.92837,2.43013 -0.40217,1.06926 -1.24555,3.13336 -1.87419,4.58689 -0.62867,1.45351 -1.05642,2.72934 -0.9506,2.83516 0.52313,0.52313 1.71765,0.13457 2.14792,-0.69868 z M 81.04213,210.33176 c -0.0031,-0.31185 -0.15012,-1.95221 -0.326708,-3.6452 -0.334167,-3.20323 -0.694016,-3.8882 -2.042748,-3.8882 -0.57638,0 -0.61309,0.16152 -0.423269,1.8631 0.114327,1.02469 0.291373,2.66505 0.393447,3.6452 0.2587,2.48429 0.317858,2.59212 1.422666,2.59212 0.721586,0 0.980725,-0.15045 0.976612,-0.56702 z m -3.350405,-2.07264 c -0.114513,-1.09539 -0.208176,-2.59851 -0.208176,-3.34026 0,-1.65275 -0.58568,-2.57246 -1.431489,-2.24789 -0.553595,0.21243 -0.588408,0.51336 -0.414549,3.58355 0.104401,1.84339 0.279428,3.49666 0.388989,3.67392 0.109569,0.17727 0.575894,0.32232 1.036284,0.32232 0.831903,0 0.835791,-0.0124 0.628941,-1.99164 z m -2.959434,-1.97758 c -0.126448,-2.00486 -0.327747,-3.75037 -0.447335,-3.8789 -0.119551,-0.12853 -0.578819,-0.27435 -1.020546,-0.32403 l -0.803156,-0.0903 0.109935,3.56419 c 0.06047,1.96031 0.260568,3.74647 0.444689,3.96924 0.184111,0.22274 0.697399,0.40501 1.140565,0.40501 l 0.805772,0 -0.229924,-3.6452 z m 129.280279,-3.32562 c 0,-1.50193 -0.0598,-1.62259 -0.84871,-1.71408 -0.6536,-0.0758 -0.893,0.0709 -1.04135,0.63826 -0.39048,1.49318 0.35159,2.96063 1.40403,2.77651 0.35566,-0.0622 0.48603,-0.51836 0.48603,-1.70069 z m 2.37015,1.18243 c 0.27532,-0.17459 0.38992,-0.77466 0.32402,-1.69612 -0.0915,-1.27783 -0.18618,-1.42598 -0.91208,-1.42598 -0.65125,0 -0.83088,0.18235 -0.91636,0.93019 -0.22522,1.971 0.40493,2.88911 1.50442,2.19191 z m 2.57121,-0.31108 c 0.23298,-0.14792 0.38289,-0.82397 0.35286,-1.59099 -0.0407,-1.03913 -0.19633,-1.37142 -0.70438,-1.50427 -0.35865,-0.0938 -0.77259,-0.0961 -0.91986,-0.005 -0.43207,0.26704 -0.3144,2.97059 0.13722,3.15285 0.58698,0.23685 0.68556,0.23228 1.13416,-0.0526 z m 3.32109,-0.66441 c 0,-0.33413 -0.0911,-1.06317 -0.20252,-1.62009 -0.17279,-0.86403 -0.34508,-1.01255 -1.17455,-1.01255 -0.91591,0 -0.96037,0.0585 -0.76955,1.01255 0.11136,0.55692 0.20252,1.28596 0.20252,1.62009 0,0.45903 0.23759,0.60754 0.97204,0.60754 0.73446,0 0.97206,-0.14851 0.97206,-0.60754 z M 82.667833,202.63635 c 0,-0.27002 -0.288026,-0.48605 -0.648044,-0.48605 -0.798192,0 -0.85722,0.54586 -0.08101,0.7487 0.311867,0.0815 0.603492,0.1651 0.648053,0.18578 0.04455,0.0207 0.081,-0.18114 0.081,-0.44843 z m -2.592156,-0.31263 c 0,-0.36713 -1.302489,-0.79863 -1.815926,-0.6016 -0.523942,0.20103 -0.519586,0.23601 0.05752,0.46207 0.714903,0.28008 1.758403,0.36286 1.758403,0.13953 z m -3.240181,-0.82144 c -0.633941,-0.4097 -1.296069,-0.4097 -1.296069,0 0,0.17821 0.40097,0.32177 0.891052,0.31906 0.694343,-0.004 0.783772,-0.0743 0.405017,-0.31906 z m -2.592128,-0.32402 c 0,-0.1782 -0.446026,-0.32401 -0.991173,-0.32401 -0.578259,0 -0.907762,0.13496 -0.790941,0.32401 0.260747,0.42188 1.782114,0.42188 1.782114,0 z m 8.039467,-1.21135 c -0.162663,-0.84463 -1.235097,-0.93883 -1.235097,-0.10848 0,0.46369 0.208074,0.67179 0.671791,0.67179 0.46369,0 0.638175,-0.17448 0.563306,-0.56331 z M 203.85056,199.7393 c 0,-0.43501 -0.1428,-0.87918 -0.31731,-0.98704 -0.51984,-0.32126 -1.6268,0.45537 -1.6268,1.14131 0,0.49138 0.22182,0.63665 0.97205,0.63665 0.81459,0 0.97206,-0.12812 0.97206,-0.79092 z m 2.53265,-0.26214 c 0.0885,-0.76969 -0.0121,-0.89105 -0.73922,-0.89105 -0.89637,0 -1.3403,0.64481 -1.01952,1.48081 0.33581,0.87511 1.64054,0.43761 1.75874,-0.58976 z m -126.43914,0.35586 c 0.294326,-0.47627 -0.745239,-1.24691 -1.682067,-1.24691 -0.551679,0 -0.679632,0.14596 -0.552885,0.63069 0.226718,0.86684 1.810206,1.30345 2.234952,0.61622 z m 129.03358,-0.72908 c 0.0947,-0.80331 0.0167,-0.87933 -0.80479,-0.78467 -0.73287,0.0845 -0.92271,0.27964 -0.97712,1.00446 -0.0602,0.80196 0.0272,0.88715 0.80481,0.78467 0.6742,-0.0889 0.89606,-0.31696 0.9771,-1.00446 z m 2.73033,0.4783 c 0.32111,-0.0318 0.30138,-0.72644 -0.0357,-1.25792 -0.38381,-0.60518 -1.98942,-0.14762 -1.98942,0.56693 0,0.76908 0.29477,0.99565 1.09817,0.84408 0.37616,-0.071 0.7933,-0.13983 0.92694,-0.15309 z M 76.835496,199.06412 c 0,-0.3973 -1.166985,-1.12604 -1.803179,-1.12604 -0.337989,0 -0.101616,1.25793 0.264092,1.4055 0.821034,0.33129 1.539087,0.2009 1.539087,-0.27946 z m -2.745352,-0.16819 c 0.31998,-0.51776 -0.481474,-1.28188 -1.344508,-1.28188 -0.993771,0 -1.022416,0.89164 -0.04134,1.286 0.976939,0.39268 1.140892,0.39218 1.385844,-0.004 z m 129.138876,-2.25392 c 0.16364,0 0.29752,-0.36453 0.29752,-0.81004 0,-0.64805 -0.16201,-0.81006 -0.81005,-0.81006 -0.69023,0 -0.81004,0.1489 -0.81004,1.00673 0,0.78486 0.11295,0.96337 0.51253,0.81005 0.28189,-0.10818 0.64641,-0.19668 0.81004,-0.19668 z m 2.37713,-0.19669 c 0.48048,-0.18437 0.71743,-1.4345 0.34289,-1.80904 -0.0933,-0.0933 -0.5307,-0.1006 -0.97204,-0.0162 -0.56645,0.10828 -0.80243,0.36464 -0.80243,0.87167 0,1.08792 0.39533,1.35125 1.43158,0.9536 z m 3.04518,-1.1804 c 0.0885,-0.76969 -0.0121,-0.89103 -0.73922,-0.89103 -0.89636,0 -1.34028,0.64481 -1.0195,1.48081 0.33579,0.8751 1.64052,0.43759 1.75872,-0.58978 z m 2.65163,-0.40501 c 0,-0.98635 -0.10303,-1.13407 -0.79093,-1.13407 -0.97247,0 -1.2755,0.44059 -1.01551,1.4765 0.14392,0.57337 0.42033,0.79162 1.00255,0.79162 0.7027,0 0.80389,-0.14272 0.80389,-1.13405 z m -14.17578,-1.43949 -3.08074,0.31172 1.41889,-0.14656 c 0.78036,-0.0806 1.52819,-0.15493 1.66185,-0.16516 z"
         id="path2555"
         style="fill:#d40000;fill-opacity:1" />
      <path
         d="m 66.334405,192.44004 c 0,-0.15473 -2.063486,-2.23249 -4.585465,-4.61726 -2.522035,-2.38474 -6.057888,-5.73743 -7.857431,-7.45037 -1.799618,-1.71295 -3.84687,-3.60844 -4.549511,-4.21223 -0.70267,-0.60378 -2.24127,-2.04554 -3.419171,-3.20392 -1.177901,-1.15836 -3.15464,-2.99935 -4.392756,-4.09109 -1.238162,-1.09175 -3.059013,-2.76854 -4.046364,-3.7262 -0.987341,-0.95767 -3.028631,-2.82988 -4.536222,-4.16044 -1.50761,-1.33059 -2.972921,-2.64285 -3.256265,-2.91617 -0.283354,-0.27332 -1.733777,-1.59051 -3.223191,-2.92707 -1.489357,-1.33657 -3.553993,-3.21783 -4.588063,-4.18056 -3.231854,-3.00892 -2.204868,-1.18799 1.522049,2.6987 0.534643,0.55753 2.357251,2.52082 4.050243,4.36283 1.692992,1.84199 3.603516,3.91102 4.245625,4.59782 1.339172,1.43237 5.672011,6.21188 6.55311,7.22867 0.325671,0.37587 2.075374,2.22159 3.888216,4.10162 1.812814,1.88003 4.097981,4.29253 5.078126,5.36111 0.980163,1.06858 3.566675,3.85002 5.747758,6.181 2.181093,2.33096 4.22242,4.5474 4.53625,4.92543 0.541156,0.65181 2.225793,1.13187 6.88894,1.96299 0.801978,0.14294 1.56746,0.27936 1.701095,0.30317 0.133663,0.0238 0.243027,-0.0833 0.243027,-0.23803 z"
         id="path2269"
         style="fill:#d40000;fill-opacity:1" />
    </g>
  </g>
  <path
     d="m 249.55062,1.4395041 -124.0505,0 -124.050551,0 0,173.4965959 c -0.76723996,93.72088 80.28944,127.81975 124.050531,127.81975 42.99385,0 124.81775,-34.09887 124.05052,-127.81975 l 0,-173.4965959 z"
     id="Frame"
     style="color:#000000;fill:none;stroke:#000000;stroke-width:1.88832211;stroke-linecap:round;stroke-linejoin:bevel;stroke-miterlimit:4;stroke-opacity:1;stroke-dashoffset:0;marker:none;visibility:visible;display:block" />
</svg>
