<!-- Created with Inkscape (http://www.inkscape.org/) -->
<svg xmlns:rdf="http://www.w3.org/1999/02/22-rdf-syntax-ns#" xmlns="http://www.w3.org/2000/svg" height="300" width="248" version="1.0" xmlns:cc="http://creativecommons.org/ns#" xmlns:dc="http://purl.org/dc/elements/1.1/">
 <metadata>
  <rdf:RDF>
   <cc:Work rdf:about="">
    <dc:format>image/svg+xml</dc:format>
    <dc:type rdf:resource="http://purl.org/dc/dcmitype/StillImage"/>
    <dc:title/>
   </cc:Work>
  </rdf:RDF>
 </metadata>
 <path d="m247,1.0001,0,214.77c0,82.42-84.912,44.012-123,82.791-38.089-38.77-123-0.37-123-82.79v-214.77z" fill="#003d8f"/>
 <path fill="#FFF" d="m124,41.594,0,171.72c17.539,0,23.222,22,41,22,17.785,0,23.461-22,41-22,16.899,0,22.794,20.402,39.094,21.906,1.24-5.54,1.91-11.89,1.91-19.19v-152.44c-17.785,0-23.454-22-41-22-17.539,0-23.215,22-41,22-17.778,0-23.461-22-41-22z"/>
 <path fill="#d40000" d="m124,98.803c17.539,0,23.22,21.998,40.998,21.998,17.785,0,23.458-21.998,40.998-21.998,17.546,0,23.22,21.998,41.005,21.998v57.186c-17.785,0-23.458-21.998-41.005-21.998-17.539,0-23.213,21.998-40.998,21.998-17.778,0-23.458-21.998-40.998-21.998z"/>
 <g transform="matrix(0.51378052,0,0,0.56614704,-2.4205761,32.528172)">
  <path fill-rule="evenodd" fill="#d40000" d="m101.36,31.601c4.4222-4.0546,12.939-16.172,21.32-19.194,4.369,6.393,9.781,11.98,15.724,17.142-4.0169,0.5536-7.9386,1.2024-10.908,3.47l-26.126-1.418z"/>
  <path fill-rule="evenodd" fill="#d40000" d="m205.78,40.883c8.7114-6.61,17.206-13.926,27.645-15.004-3.8309,6.7539-4.0125,14.947-4.0701,23.685-0.0664,10.091-1.2401,20.195,4.1941,27.266-9.048-0.27016-18.342-9.0551-27.388-16.117z"/>
  <path fill-rule="evenodd" fill="#d40000" d="m159.52,65.322c4.555,6.1228,9.6526,11.894,17.363,15.975,5.113-4.2184,7.6618-10.188,8.335-17.363-3.4168-0.20372-6.6764-1.1161-9.7234-2.9872l-15.975,4.3757z"/>
  <path fill-rule="evenodd" fill="#FFF" d="m177.18,40.111c3.811-3.8973,9.2518-5.4917,13.386-2.3805,2.4203,1.8225,0.81711,4.2206-1.4637,3.7446-3.2707-0.67982-5.1551-0.90348-6.8204,0.8614l-5.102-2.2255z"/>
  <path d="M100.97,30.25c-22.415,0.115-41.664,3.174-58.158,8.875-9.562,2.212-25.912,6.446-28.312,9.125l1.5,2.875c3.8241-2.3134,8.8462,0.45263,12.188,4.4688,3.5614,0.96945,1.1543-2.7052,0.15625-3.5938,3.4179,2.4573,3.5144,5.8256-1.0625,4.3438-5.283,0.116-9.869-0.54-11.907-4.094l-1.375,2.438c4.217,4.8909,11.332,5.2813,17.344,4.875-4.1657,0.98998-7.0327,0.88935-9.8125,0.3125,6.745,3.124,15.807,4.869,24.468,5.718,6.674-0.806,11.492-5.501,13.125-10.344,0.99382-2.9478,0.79906-5.8834-0.8125-8.0938-1.6116-2.2103-5.1707-3.9111-10.188-3.875l0.625-0.5625c5.2266-0.03765,9.0355,1.3834,10.875,3.9062,1.8395,2.5229,2.0404,5.8528,0.96875,9.0312-1.5656,4.6438-6.3296,8.9849-12.219,10.5,31.412,8.399,71.79,7.0462,105.94,3.0312,9.8098-3.4434,19.898-6.0948,30.344-7.625,6.765-3.5032,13.93-4.6075,21.969-0.46875,12.494-1.7516,9.8661-20.948-0.71875-20.312-7.1614,3.9151-14.886,2.8067-22.688,0.96875-0.66432-1.7339-2.7238-2.8118-5.0312-2.7188-29.22-6.071-54.808-8.8962-77.219-8.7812z" fill-rule="evenodd" fill="#FFF"/>
  <path fill-rule="evenodd" fill="#d40000" d="m60.619,61.567c2.644,1.1116,5.6799,2.2853,6.0055,4.8894,7.3629,1.5302,14.772,0.33216,20.979-8.0449-6.2313-5.1662-17.536-0.97212-26.985,3.1555z"/>
  <path fill-rule="evenodd" fill="#003d8f" d="m34.744,46.477c2.3441,0,4.2484,1.1287,4.2484,2.522,0,1.3932-1.9043,2.522-4.2484,2.522-2.3465,0-4.2484-1.1287-4.2484-2.522,0-1.3932,1.9019-2.522,4.2484-2.522z"/>
  <path fill-rule="evenodd" fill="#FFF" d="m34.837,45.922c1.353,0,2.4491,1.0983,2.4491,2.4513,0,1.3508-1.0961,2.4491-2.4491,2.4491-1.3508,0-2.4491-1.0983-2.4491-2.4491,0-1.353,1.0983-2.4513,2.4491-2.4513z"/>
  <path fill-rule="evenodd" fill="#d40000" d="m120.52,70.588c2.055,6.6476,5.5559,12.999,10.868,17.771,0.6621-7.436,5.5847-12.483,2.8632-16.723-0.82819-1.2954-2.3251-1.9376-4.5506-1.694-2.2764,0.24801-4.0524,0.53146-6.0054-0.87912l-3.1754,1.5257z"/>
  <path style="direction:ltr;enable-background:accumulate;baseline-shift:baseline;block-progression:tb;text-indent:0;color:#000000;text-transform:none;text-align:start;" fill="#003d8f" d="m47.719,46.656c5.8447,0.36111,4.8665,7.8501,3.4688,11.813-2.0949,5.9087-7.7816,5.9266-11.907,6.0218,6.4298,0.77271,10.843-1.0072,12.641-5.79,1.633-4.456,2.347-12.558-4.203-12.045z"/>
  <path d="m34.812,47.125,0.09375,1.25-1.125-0.65625c-0.11688,0.1912-0.21875,0.4159-0.21875,0.65625,0,0.69453,0.58672,1.25,1.2812,1.25,0.69566,0,1.25-0.55547,1.25-1.25,0-0.69566-0.55434-1.25-1.25-1.25-0.01085,0-0.02046-0.000274-0.03125,0z" fill-rule="evenodd" fill="#003d8f"/>
 </g>
 <g transform="matrix(0.51378052,0,0,0.56614704,-2.4205761,170.91044)">
  <path d="m101.36,31.601c4.4222-4.0546,12.939-16.172,21.32-19.194,4.369,6.393,9.781,11.98,15.724,17.142-4.0169,0.5536-7.9386,1.2024-10.908,3.47l-26.126-1.418z" fill-rule="evenodd" fill="#d40000"/>
  <path d="m205.78,40.883c8.7114-6.61,17.206-13.926,27.645-15.004-3.8309,6.7539-4.0125,14.947-4.0701,23.685-0.0664,10.091-1.2401,20.195,4.1941,27.266-9.048-0.27016-18.342-9.0551-27.388-16.117z" fill-rule="evenodd" fill="#d40000"/>
  <path d="m159.52,65.322c4.555,6.1228,9.6526,11.894,17.363,15.975,5.113-4.2184,7.6618-10.188,8.335-17.363-3.4168-0.20372-6.6764-1.1161-9.7234-2.9872l-15.975,4.3757z" fill-rule="evenodd" fill="#d40000"/>
  <path d="m177.18,40.111c3.811-3.8973,9.2518-5.4917,13.386-2.3805,2.4203,1.8225,0.81711,4.2206-1.4637,3.7446-3.2707-0.67982-5.1551-0.90348-6.8204,0.8614l-5.102-2.2255z" fill-rule="evenodd" fill="#FFF"/>
  <path d="M100.97,30.25c-22.415,0.115-41.664,3.174-58.158,8.875-9.562,2.212-25.912,6.446-28.312,9.125l1.5,2.875c3.8241-2.3134,8.8462,0.45263,12.188,4.4688,3.5614,0.96945,1.1543-2.7052,0.15625-3.5938,3.4179,2.4573,3.5144,5.8256-1.0625,4.3438-5.283,0.116-9.869-0.54-11.907-4.094l-1.375,2.438c4.217,4.8909,11.332,5.2813,17.344,4.875-4.1657,0.98998-7.0327,0.88935-9.8125,0.3125,6.745,3.124,15.807,4.869,24.468,5.718,6.674-0.806,11.492-5.501,13.125-10.344,0.99382-2.9478,0.79906-5.8834-0.8125-8.0938-1.6116-2.2103-5.1707-3.9111-10.188-3.875l0.625-0.5625c5.2266-0.03765,9.0355,1.3834,10.875,3.9062,1.8395,2.5229,2.0404,5.8528,0.96875,9.0312-1.5656,4.6438-6.3296,8.9849-12.219,10.5,31.412,8.399,71.79,7.0462,105.94,3.0312,9.8098-3.4434,19.898-6.0948,30.344-7.625,6.765-3.5032,13.93-4.6075,21.969-0.46875,12.494-1.7516,9.8661-20.948-0.71875-20.312-7.1614,3.9151-14.886,2.8067-22.688,0.96875-0.66432-1.7339-2.7238-2.8118-5.0312-2.7188-29.22-6.071-54.808-8.8962-77.219-8.7812z" fill-rule="evenodd" fill="#FFF"/>
  <path d="m60.619,61.567c2.644,1.1116,5.6799,2.2853,6.0055,4.8894,7.3629,1.5302,14.772,0.33216,20.979-8.0449-6.2313-5.1662-17.536-0.97212-26.985,3.1555z" fill-rule="evenodd" fill="#d40000"/>
  <path d="m34.744,46.477c2.3441,0,4.2484,1.1287,4.2484,2.522,0,1.3932-1.9043,2.522-4.2484,2.522-2.3465,0-4.2484-1.1287-4.2484-2.522,0-1.3932,1.9019-2.522,4.2484-2.522z" fill-rule="evenodd" fill="#003d8f"/>
  <path d="m34.837,45.922c1.353,0,2.4491,1.0983,2.4491,2.4513,0,1.3508-1.0961,2.4491-2.4491,2.4491-1.3508,0-2.4491-1.0983-2.4491-2.4491,0-1.353,1.0983-2.4513,2.4491-2.4513z" fill-rule="evenodd" fill="#FFF"/>
  <path d="m120.52,70.588c2.055,6.6476,5.5559,12.999,10.868,17.771,0.6621-7.436,5.5847-12.483,2.8632-16.723-0.82819-1.2954-2.3251-1.9376-4.5506-1.694-2.2764,0.24801-4.0524,0.53146-6.0054-0.87912l-3.1754,1.5257z" fill-rule="evenodd" fill="#d40000"/>
  <path style="direction:ltr;enable-background:accumulate;baseline-shift:baseline;block-progression:tb;text-indent:0;color:#000000;text-transform:none;text-align:start;" d="m47.719,46.656c5.8447,0.36111,4.8665,7.8501,3.4688,11.813-2.0949,5.9087-7.7816,5.9266-11.907,6.0218,6.4298,0.77271,10.843-1.0072,12.641-5.79,1.633-4.456,2.347-12.558-4.203-12.045z" fill="#003d8f"/>
  <path fill-rule="evenodd" fill="#003d8f" d="m34.812,47.125,0.09375,1.25-1.125-0.65625c-0.11688,0.1912-0.21875,0.4159-0.21875,0.65625,0,0.69453,0.58672,1.25,1.2812,1.25,0.69566,0,1.25-0.55547,1.25-1.25,0-0.69566-0.55434-1.25-1.25-1.25-0.01085,0-0.02046-0.000274-0.03125,0z"/>
 </g>
 <g transform="matrix(-0.51378052,0,0,0.56614704,124.05197,101.7193)">
  <path fill-rule="evenodd" fill="#d40000" d="m101.36,31.601c4.4222-4.0546,12.939-16.172,21.32-19.194,4.369,6.393,9.781,11.98,15.724,17.142-4.0169,0.5536-7.9386,1.2024-10.908,3.47l-26.126-1.418z"/>
  <path fill-rule="evenodd" fill="#d40000" d="m205.78,40.883c8.7114-6.61,17.206-13.926,27.645-15.004-3.8309,6.7539-4.0125,14.947-4.0701,23.685-0.0664,10.091-1.2401,20.195,4.1941,27.266-9.048-0.27016-18.342-9.0551-27.388-16.117z"/>
  <path fill-rule="evenodd" fill="#d40000" d="m159.52,65.322c4.555,6.1228,9.6526,11.894,17.363,15.975,5.113-4.2184,7.6618-10.188,8.335-17.363-3.4168-0.20372-6.6764-1.1161-9.7234-2.9872l-15.975,4.3757z"/>
  <path fill-rule="evenodd" fill="#FFF" d="m177.18,40.111c3.811-3.8973,9.2518-5.4917,13.386-2.3805,2.4203,1.8225,0.81711,4.2206-1.4637,3.7446-3.2707-0.67982-5.1551-0.90348-6.8204,0.8614l-5.102-2.2255z"/>
  <path d="M100.97,30.25c-22.415,0.115-41.664,3.174-58.158,8.875-9.562,2.212-25.912,6.446-28.312,9.125l1.5,2.875c3.8241-2.3134,8.8462,0.45263,12.188,4.4688,3.5614,0.96945,1.1543-2.7052,0.15625-3.5938,3.4179,2.4573,3.5144,5.8256-1.0625,4.3438-5.283,0.116-9.869-0.54-11.907-4.094l-1.375,2.438c4.217,4.8909,11.332,5.2813,17.344,4.875-4.1657,0.98998-7.0327,0.88935-9.8125,0.3125,6.745,3.124,15.807,4.869,24.468,5.718,6.674-0.806,11.492-5.501,13.125-10.344,0.99382-2.9478,0.79906-5.8834-0.8125-8.0938-1.6116-2.2103-5.1707-3.9111-10.188-3.875l0.625-0.5625c5.2266-0.03765,9.0355,1.3834,10.875,3.9062,1.8395,2.5229,2.0404,5.8528,0.96875,9.0312-1.5656,4.6438-6.3296,8.9849-12.219,10.5,31.412,8.399,71.79,7.0462,105.94,3.0312,9.8098-3.4434,19.898-6.0948,30.344-7.625,6.765-3.5032,13.93-4.6075,21.969-0.46875,12.494-1.7516,9.8661-20.948-0.71875-20.312-7.1614,3.9151-14.886,2.8067-22.688,0.96875-0.66432-1.7339-2.7238-2.8118-5.0312-2.7188-29.22-6.071-54.808-8.8962-77.219-8.7812z" fill-rule="evenodd" fill="#FFF"/>
  <path fill-rule="evenodd" fill="#d40000" d="m60.619,61.567c2.644,1.1116,5.6799,2.2853,6.0055,4.8894,7.3629,1.5302,14.772,0.33216,20.979-8.0449-6.2313-5.1662-17.536-0.97212-26.985,3.1555z"/>
  <path fill-rule="evenodd" fill="#003d8f" d="m34.744,46.477c2.3441,0,4.2484,1.1287,4.2484,2.522,0,1.3932-1.9043,2.522-4.2484,2.522-2.3465,0-4.2484-1.1287-4.2484-2.522,0-1.3932,1.9019-2.522,4.2484-2.522z"/>
  <path fill-rule="evenodd" fill="#FFF" d="m34.837,45.922c1.353,0,2.4491,1.0983,2.4491,2.4513,0,1.3508-1.0961,2.4491-2.4491,2.4491-1.3508,0-2.4491-1.0983-2.4491-2.4491,0-1.353,1.0983-2.4513,2.4491-2.4513z"/>
  <path fill-rule="evenodd" fill="#d40000" d="m120.52,70.588c2.055,6.6476,5.5559,12.999,10.868,17.771,0.6621-7.436,5.5847-12.483,2.8632-16.723-0.82819-1.2954-2.3251-1.9376-4.5506-1.694-2.2764,0.24801-4.0524,0.53146-6.0054-0.87912l-3.1754,1.5257z"/>
  <path style="direction:ltr;enable-background:accumulate;baseline-shift:baseline;block-progression:tb;text-indent:0;color:#000000;text-transform:none;text-align:start;" fill="#003d8f" d="m47.719,46.656c5.8447,0.36111,4.8665,7.8501,3.4688,11.813-2.0949,5.9087-7.7816,5.9266-11.907,6.0218,6.4298,0.77271,10.843-1.0072,12.641-5.79,1.633-4.456,2.347-12.558-4.203-12.045z"/>
  <path d="m34.812,47.125,0.09375,1.25-1.125-0.65625c-0.11688,0.1912-0.21875,0.4159-0.21875,0.65625,0,0.69453,0.58672,1.25,1.2812,1.25,0.69566,0,1.25-0.55547,1.25-1.25,0-0.69566-0.55434-1.25-1.25-1.25-0.01085,0-0.02046-0.000274-0.03125,0z" fill-rule="evenodd" fill="#003d8f"/>
 </g>
 <path fill="#FFF" d="M123,1v296.59c0.34,0.33,0.67,0.64,1,0.97,0.33-0.33,0.66-0.64,1-0.97v-296.59h-2z"/>
 <path d="m247,1.0001,0,214.77c0,82.42-84.912,44.012-123,82.791-38.089-38.77-123-0.37-123-82.79v-214.77z" stroke="#000" stroke-dasharray="none" stroke-miterlimit="4" stroke-width="2" fill="none"/>
</svg>
