<?xml version="1.0" encoding="UTF-8" standalone="no"?>
<!-- Created with Inkscape (http://www.inkscape.org/) -->
<svg
   xmlns:dc="http://purl.org/dc/elements/1.1/"
   xmlns:cc="http://web.resource.org/cc/"
   xmlns:rdf="http://www.w3.org/1999/02/22-rdf-syntax-ns#"
   xmlns:svg="http://www.w3.org/2000/svg"
   xmlns="http://www.w3.org/2000/svg"
   version="1.0"
   width="251"
   height="304.20001"
   id="svg4166">
  <defs
     id="defs4168" />
  <metadata
     id="metadata1880"><rdf:RDF><cc:Work
         rdf:about=""><dc:title>Ange kommunvapen</dc:title><dc:date>12-12-2006</dc:date><dc:creator><cc:Agent><dc:title>Lokal_Profil</dc:title></cc:Agent></dc:creator><cc:license
         rdf:resource="http://creativecommons.org/licenses/by-sa/2.5/" /><dc:rights><cc:Agent><dc:title>cc-by-sa-2.5</dc:title></cc:Agent></dc:rights><dc:format>image/svg+xml</dc:format><dc:type
         rdf:resource="http://purl.org/dc/dcmitype/StillImage" /></cc:Work><cc:License
         rdf:about="http://creativecommons.org/licenses/by-sa/2.5/"><cc:permits
         rdf:resource="http://web.resource.org/cc/Reproduction" /><cc:permits
         rdf:resource="http://web.resource.org/cc/Distribution" /><cc:requires
         rdf:resource="http://web.resource.org/cc/Notice" /><cc:requires
         rdf:resource="http://web.resource.org/cc/Attribution" /><cc:permits
         rdf:resource="http://web.resource.org/cc/DerivativeWorks" /><cc:requires
         rdf:resource="http://web.resource.org/cc/ShareAlike" /></cc:License></rdf:RDF>
  </metadata>
  <path
     d="M 249.55058,1.4395041 L 125.50008,1.4395041 L 1.4495291,1.4395041 L 1.4495291,174.9361 C 0.68228908,268.65698 81.738969,302.75585 125.50006,302.75585 C 168.49391,302.75585 250.31781,268.65698 249.55058,174.9361 L 249.55058,1.4395041 z "
     style="color:#000000;fill:#d40000;fill-opacity:1;fill-rule:nonzero;stroke:none;stroke-width:1.88832211;stroke-linecap:round;stroke-linejoin:bevel;marker:none;marker-start:none;marker-mid:none;marker-end:none;stroke-miterlimit:4;stroke-dashoffset:0;stroke-opacity:1;visibility:visible;display:block"
     id="Shield" />
  <g
     transform="matrix(1.004278,0,0,1.004278,3.288079,-2.231522)"
     id="10-spoke-wheel">
    <path
       d="M 220.76744,143.81634 C 220.76744,198.78117 176.15827,243.39031 121.19344,243.39031 C 66.228596,243.39031 21.619433,198.78117 21.619433,143.81634 C 21.619433,88.851464 66.228596,44.242335 121.19344,44.242335 C 176.15827,44.242335 220.76744,88.851464 220.76744,143.81634 z "
       style="fill:#ffcd50;fill-opacity:1;stroke:none;stroke-width:0.63458198;stroke-miterlimit:4;stroke-opacity:1"
       id="path3449" />
    <g
       transform="translate(319.6454,-50.13591)"
       style="fill:#d40000;fill-opacity:1"
       id="g2979">
      <path
         d="M -195.40625,108.09375 L -195.40625,185.09375 L -150.1875,122.875 C -163.16709,114.05154 -178.67467,108.67584 -195.40625,108.09375 z "
         style="fill:#d40000;fill-opacity:1;fill-rule:nonzero;stroke:none;stroke-width:1.88800001;stroke-miterlimit:4;stroke-opacity:1"
         id="path2981" />
      <path
         d="M -145.5,126.28125 L -190.71875,188.5 L -117.59375,164.71875 C -123.14017,149.41836 -132.91985,136.1323 -145.5,126.28125 z "
         style="fill:#d40000;fill-opacity:1;fill-rule:nonzero;stroke:none;stroke-width:1.88800001;stroke-miterlimit:4;stroke-opacity:1"
         id="path2983" />
      <path
         d="M -115.78125,170.28125 L -188.90625,194.03125 L -115.8125,217.75 C -113.64367,210.20361 -112.46875,202.24081 -112.46875,194 C -112.46875,185.77605 -113.62267,177.81301 -115.78125,170.28125 z "
         style="fill:#d40000;fill-opacity:1;fill-rule:nonzero;stroke:none;stroke-width:1.88800001;stroke-miterlimit:4;stroke-opacity:1"
         id="path2985" />
      <path
         d="M -117.59375,223.28125 L -190.6875,199.53125 L -145.53125,261.75 C -132.93411,251.89005 -123.1491,238.59693 -117.59375,223.28125 z "
         style="fill:#d40000;fill-opacity:1;fill-rule:nonzero;stroke:none;stroke-width:1.88800001;stroke-miterlimit:4;stroke-opacity:1"
         id="path2987" />
      <path
         d="M -150.1875,265.15625 L -195.40625,202.9375 L -195.40625,279.9375 C -178.67667,279.35555 -163.16747,273.98391 -150.1875,265.15625 z "
         style="fill:#d40000;fill-opacity:1;fill-rule:nonzero;stroke:none;stroke-width:1.88800001;stroke-miterlimit:4;stroke-opacity:1"
         id="path2989" />
      <path
         d="M -201.21875,279.9375 L -201.21875,202.96875 L -246.5,265.28125 C -233.49664,274.07453 -217.95895,279.40518 -201.21875,279.9375 z "
         style="fill:#d40000;fill-opacity:1;fill-rule:nonzero;stroke:none;stroke-width:1.88800001;stroke-miterlimit:4;stroke-opacity:1"
         id="path2991" />
      <path
         d="M -251.15625,261.875 L -205.90625,199.5625 L -279.25,223.375 C -273.66049,238.72106 -263.81299,252.02119 -251.15625,261.875 z "
         style="fill:#d40000;fill-opacity:1;fill-rule:nonzero;stroke:none;stroke-width:1.88800001;stroke-miterlimit:4;stroke-opacity:1"
         id="path2993" />
      <path
         d="M -281.0625,217.84375 L -207.71875,194 L -281.09375,170.1875 C -283.27147,177.74704 -284.4375,185.74169 -284.4375,194 C -284.4375,202.27152 -283.24632,210.27216 -281.0625,217.84375 z "
         style="fill:#d40000;fill-opacity:1;fill-rule:nonzero;stroke:none;stroke-width:1.88800001;stroke-miterlimit:4;stroke-opacity:1"
         id="path2995" />
      <path
         d="M -279.28125,164.65625 L -205.90625,188.5 L -251.1875,126.125 C -263.86141,135.98021 -273.69541,149.29271 -279.28125,164.65625 z "
         style="fill:#d40000;fill-opacity:1;fill-rule:nonzero;stroke:none;stroke-width:1.88800001;stroke-miterlimit:4;stroke-opacity:1"
         id="path2997" />
      <path
         d="M -246.5,122.75 L -201.21875,185.0625 L -201.21875,108.09375 C -217.95957,108.62612 -233.49078,113.96599 -246.5,122.75 z "
         style="fill:#d40000;fill-opacity:1;fill-rule:nonzero;stroke:none;stroke-width:1.88800001;stroke-miterlimit:4;stroke-opacity:1"
         id="path2999" />
    </g>
    <path
       d="M 201.86002,145.62495 C 201.86287,152.64185 195.89094,158.33161 188.52319,158.33161 C 181.15544,158.33161 175.18351,152.64185 175.18636,145.62495 C 175.18351,138.60805 181.15544,132.91829 188.52319,132.91829 C 195.89094,132.91829 201.86287,138.60805 201.86002,145.62495 L 201.86002,145.62495 z "
       transform="matrix(1.617288,0,0,1.698153,-183.6819,-103.4974)"
       style="fill:#ffcd50;fill-opacity:1;fill-rule:nonzero;stroke:none;stroke-width:1.88800001;stroke-miterlimit:4;stroke-dasharray:none;stroke-opacity:1"
       id="path3077" />
    <path
       d="M 136.97162,143.81634 C 136.97162,152.52591 129.90304,159.59452 121.19344,159.59452 C 112.48383,159.59452 105.41525,152.52591 105.41525,143.81634 C 105.41525,135.10673 112.48383,128.03812 121.19344,128.03812 C 129.90304,128.03812 136.97162,135.10673 136.97162,143.81634 z "
       style="fill:#d40000;fill-opacity:1;stroke:none;stroke-width:0.63458198;stroke-miterlimit:4;stroke-opacity:1"
       id="path3463" />
    <path
       d="M 132.77081,143.81634 C 132.77081,150.20705 127.58418,155.39372 121.19344,155.39372 C 114.80269,155.39372 109.61606,150.20705 109.61606,143.81634 C 109.61606,137.42559 114.80269,132.23893 121.19344,132.23893 C 127.58418,132.23893 132.77081,137.42559 132.77081,143.81634 z "
       style="fill:#ffcd50;fill-opacity:1;stroke:none;stroke-width:0.63458198;stroke-miterlimit:4;stroke-opacity:1"
       id="path3465" />
  </g>
  <path
     d="M 249.55062,1.4395041 L 125.50012,1.4395041 L 1.449569,1.4395041 L 1.449569,174.9361 C 0.68232904,268.65698 81.739009,302.75585 125.5001,302.75585 C 168.49395,302.75585 250.31785,268.65698 249.55062,174.9361 L 249.55062,1.4395041 z "
     style="color:#000000;fill:none;fill-opacity:0;fill-rule:nonzero;stroke:#000000;stroke-width:1.88832211;stroke-linecap:round;stroke-linejoin:bevel;marker:none;marker-start:none;marker-mid:none;marker-end:none;stroke-miterlimit:4;stroke-dashoffset:0;stroke-opacity:1;visibility:visible;display:block"
     id="Frame" />
</svg>
