<?xml version="1.0" encoding="UTF-8" standalone="no"?>
<!-- Created with Inkscape (http://www.inkscape.org/) -->
<svg
   xmlns:svg="http://www.w3.org/2000/svg"
   xmlns="http://www.w3.org/2000/svg"
   version="1.0"
   width="251"
   height="304.20001"
   id="svg4166">
  <defs
     id="defs4168" />
  <path
     d="M 249.55058,1.4395041 L 1.4495291,1.4395041 L 1.4495291,174.9361 C 0.68228908,268.65698 81.738969,302.75585 125.50006,302.75585 C 168.49391,302.75585 250.31781,268.65698 249.55058,174.9361 L 249.55058,1.4395041 z "
     style="fill:#eeeeee;fill-opacity:1;stroke:none"
     id="Shield" />
  <g
     transform="translate(-6,12)"
     id="g2146">
    <path
       d="M 128.30055,150.40719 C 122.16943,146.27909 111.28876,139.89828 107.02194,136.89097 C 111.45521,130.79314 112.21536,129.88873 114.98963,122.67564 C 112.90893,130.93185 108.33694,133.2123 102.23356,144.86421 C 101.12385,150.40719 97.5395,154.04703 95.580869,156.51057 C 94.326902,158.08636 70.068727,157.06543 70.068727,157.06543 C 66.756255,153.85283 66.822837,149.73027 69.791301,147.71061 C 70.834424,146.94491 73.053836,145.69649 77.076521,144.86421 C 81.787224,144.10406 84.805624,147.21124 85.599064,144.86421 C 89.477486,138.76083 90.587192,123.23049 82.824799,118.23681 C 72.149426,110.3579 64.525746,108.25501 50.105116,101.59677 C 38.458752,95.498939 39.568458,96.608645 32.360917,88.28585 C 28.293845,84.030127 30.141505,81.633162 30.141505,81.633162 C 33.842375,73.493469 39.013605,70.119963 48.440557,64.438268 C 55.309637,62.290987 56.902066,62.568413 60.919201,62.568413 C 65.846296,62.634996 71.75548,62.956811 76.937807,63.328562 C 84.350645,63.467275 93.500171,63.539406 101.4956,62.401958 C 115.36138,59.627693 123.65643,54.01258 138.28236,50.566943 C 151.58773,48.902384 164.33825,48.219915 174.47542,53.851673 C 192.73008,64.005483 206.16307,76.373156 213.61475,92.153175 C 220.21195,111.37328 221.64902,131.45896 221.79328,151.10631 C 221.79328,151.10631 221.79328,151.96633 221.79328,151.96633 C 215.80119,171.46496 222.31846,187.14531 202.42891,166.38696 C 199.11644,160.91611 201.08617,158.03642 195.67635,156.09444 C 179.59671,154.42988 161.56954,154.84602 147.15446,154.84602 C 147.15446,154.84602 134.60368,154.74059 128.30055,150.40719 z "
       style="fill:#000000;stroke:#eeeeee;stroke-width:2.21941209px"
       id="sylwetka" />
    <g
       transform="matrix(0.165669,0.455173,-0.455173,0.165669,81.84385,14.35166)"
       style="fill:#000000;stroke:#eeeeee;stroke-width:1"
       id="Pike">
      <path
         d="M 157.56817,110.31711 C 132.50155,111.6974 107.33612,109.7467 82.594983,111.26283 C 71.371657,112.4408 59.221482,112.29848 49.114138,115.0566 C 45.942777,115.92201 44.795122,116.4696 39.211195,117.63289 C 35.389239,118.71526 31.208472,119.57684 28.373403,121.29622 C 25.036742,123.31978 17.735496,125.27567 8.9806002,127.26407 C 6.218409,128.1078 5.7980664,129.31894 9.1718599,129.77954 C 12.722402,130.08977 16.575994,130.51296 19.601572,131.87312 C 16.027362,132.36059 10.070136,132.39663 6.8370752,130.70558 C 5.4809843,130.41475 5.3678002,130.89337 5.5890339,131.73181 C 9.7125665,135.00608 15.715353,135.65984 21.59027,136.48217 C 27.790672,138.62065 33.474475,140.36346 41.113518,140.81947 C 44.317492,141.56935 47.608848,141.08749 49.657655,142.43916 C 50.678421,142.93574 51.732815,143.29908 52.820944,143.5262 L 53.19054,142.66743 L 57.071273,142.03695 L 61.669455,143.7436 C 69.327252,144.00716 81.157743,144.85742 91.280439,144.74368 C 99.155189,145.02909 108.7101,144.10394 113.64086,146.51555 C 115.58852,145.56406 117.07935,144.44305 122.85896,144.885 C 135.32061,145.13506 147.73257,145.04228 160.01401,144.21103 C 161.99335,143.95492 163.76084,143.35779 166.24275,143.93927 C 174.50753,144.1367 181.47312,142.59245 187.79876,138.10186 C 189.44813,136.99013 191.10468,136.14889 193.63617,135.52558 C 200.56435,134.89689 207.48604,134.37859 214.19211,137.52573 C 215.64084,131.9169 213.15592,129.36093 214.43125,126.62272 C 211.4272,123.56033 212.61266,119.32975 211.10491,116.52411 C 206.68871,119.37674 189.9647,120.27122 186.85304,116.54585 C 180.05319,112.52101 170.68951,110.18782 157.56817,110.31711 z "
         style="stroke-width:0.75"
         id="path5654" />
      <path
         d="M 242.00947,102.8274 C 240.71946,102.81947 239.03293,103.19317 237.01996,103.80574 C 227.5598,106.68453 219.59682,110.98287 211.10491,116.52411 C 212.69273,119.66824 211.34247,123.48311 214.43446,126.62272 C 213.15912,129.36093 215.6427,131.92218 214.19397,137.53101 C 214.19397,137.53101 241.02777,148.80104 243.16173,145.88507 C 246.37363,140.09983 243.14822,137.04978 237.29172,123.8725 C 239.59494,120.75988 246.73269,111.78764 244.6075,104.13185 C 244.18591,103.22107 243.29948,102.83533 242.00947,102.8274 z "
         id="path5656" />
      <path
         d="M 57.071767,142.04074 L 53.188392,142.66282 L 52.647017,143.91753 C 56.461398,152.12162 60.12446,161.48439 64.919703,162.332 C 70.180537,161.48889 69.37204,155.38396 67.028561,147.95045 C 65.54446,146.48695 63.223804,145.43842 61.829544,143.8136 L 57.071767,142.04074 z "
         id="path5658" />
      <path
         d="M 193.56008,135.57993 L 191.12511,136.32999 C 191.12204,136.33121 191.11731,136.32876 191.11424,136.32999 C 189.86819,136.82621 188.82962,137.40703 187.79876,138.10186 C 181.50931,142.56675 174.5868,144.1158 166.38406,143.93927 C 175.63515,148.67943 181.73305,154.95296 193.56008,155.90759 C 200.29941,155.15679 205.36508,152.88906 203.24561,142.8631 C 202.18993,137.70712 198.67437,136.47163 193.56008,135.57993 z "
         id="path5660" />
      <path
         d="M 183.33103,94.674595 C 181.32733,94.698082 179.07028,95.197073 176.41745,96.42473 C 175.19986,97.031424 163.95387,105.80989 157.83993,110.24101 L 158.18778,110.31711 C 170.86504,110.2678 179.99309,112.54221 186.66824,116.43715 C 192.27528,116.19379 192.96911,115.96305 195.85373,115.7197 C 198.1765,115.5102 198.8378,114.45729 199.29965,113.31734 C 201.46694,104.65944 198.51516,101.12887 194.36449,98.664034 C 190.91878,96.862097 187.73916,94.622925 183.33103,94.674595 z "
         id="path5662" />
      <path
         d="M 120.03266,144.78716 C 116.5077,144.8539 115.22334,145.74246 113.64086,146.51555 C 113.60455,146.49779 113.56897,146.4786 113.53215,146.4612 L 113.48867,146.54817 C 113.48867,146.54817 121.76146,157.17906 126.23966,160.54925 C 128.92016,162.56653 129.98943,162.35 131.02264,160.54925 C 132.51059,157.71453 132.32106,152.69514 130.57695,149.12445 C 129.95028,147.84148 126.53913,146.59649 125.00043,145.13502 L 123.78295,144.89587 C 123.47512,144.89012 123.16686,144.89117 122.85896,144.885 C 121.77528,144.80213 120.84611,144.77176 120.03266,144.78716 z "
         id="path5664" />
      <g
         transform="matrix(0.465767,0,0,0.465767,-10.39143,74.35751)"
         id="g5666">
        <path
           d="M 100.56486,102.64624 C 100.32228,104.8667 97.941624,106.45037 95.313956,106.69051 C 93.314814,106.87322 90.673175,105.47749 90.518306,102.84343 C 90.351377,100.00425 92.048497,98.02087 95.663807,98.164419 C 99.670037,98.31986 100.77904,100.68571 100.56486,102.64624 z "
           style="fill:#eeeeee;stroke:none"
           id="path5668" />
        <path
           d="M 97.656616,102.76717 C 97.428591,103.72772 96.969046,104.22914 96.07393,104.29941 C 94.260291,104.4418 92.047988,104.10006 92.698882,102.47799 C 93.155141,101.34096 94.594494,100.21644 95.694035,100.15507 C 96.975693,100.08354 97.942984,101.56083 97.656616,102.76717 z "
           style="stroke:none"
           id="path5670" />
      </g>
      <path
         d="M 10.433682,128.23836 C 16.860733,128.08165 27.073137,126.81534 33.456501,130.63172 C 35.09618,131.61202 35.952809,134.13875 31.623995,134.29673 C 27.797226,134.43639 23.429252,133.08945 19.194822,131.82683"
         style="fill:none;stroke-width:0.5"
         id="path5674" />
      <path
         d="M 56.004294,115.92973 C 56.951506,116.13095 59.478636,117.67626 61.343465,119.95916 C 71.476505,132.95446 58.936581,139.87991 47.63576,141.62387 L 47.494447,141.63474 C 45.626167,141.2703 43.347821,141.3424 41.113518,140.81947 C 33.902007,140.38898 28.429065,138.80438 22.622958,136.83003 L 21.981605,136.44956 C 35.811449,135.93071 40.075095,143.26695 48.835213,135.72853 C 56.463233,126.75612 48.86873,123.44716 50.666124,118.99929"
         style="fill:none;stroke-width:0.80000001"
         id="path5672" />
    </g>
    <path
       d="M 61.593514,95.017537 C 53.83112,90.02386 35.854827,92.541572 31.787754,88.28585 C 27.720682,84.030127 29.568342,81.633162 29.568342,81.633162 C 33.269212,73.493469 38.440442,70.119963 47.867394,64.438268 C 54.736474,62.290987 56.328902,62.568413 60.346038,62.568413 C 65.273133,62.634996 71.182317,62.956811 76.364644,63.328562 C 83.777481,63.467275 92.927007,63.539406 100.92244,62.401958 C 114.78822,59.627693 123.08327,54.01258 137.70919,50.566943 C 151.01457,48.902384 163.76509,48.219915 173.90225,53.851673 C 192.15692,64.005483 205.58991,76.373156 213.04158,92.153175 C 219.80962,111.42177 219.0895,131.93416 221.01549,151.34881 C 222.85707,169.91264 234.30023,185.78511 243.14194,202.39364 C 245.04584,206.36969 244.47764,209.61416 243.23004,212.81409 C 241.09877,216.2948 237.72542,217.24857 234.754,216.20917 C 228.24276,213.93853 222.24941,208.79685 216.82203,202.98254 C 206.95204,189.4391 199.69137,178.06238 197.53093,157.13271 C 196.43202,150.83231 199.31325,148.86484 194.97841,145.09039"
       style="fill:#000000;stroke:#eeeeee;stroke-width:1.5"
       id="path29490" />
    <path
       d="M 140.70706,111.51755 C 131.19688,126.03805 129.61,140.38655 146.94361,154.33555"
       style="fill:none;stroke:#eeeeee;stroke-width:2.21941209px"
       id="kolano" />
    <path
       d="M 141.17314,149.40291 C 136.39031,148.34314 132.47859,147.32776 126.94671,146.8062 C 123.46778,146.57316 119.46729,145.99611 116.03275,147.23343 C 114.20174,147.89371 111.99342,153.37011 112.9977,155.55623 C 112.9977,155.55623 136.13508,155.02357 136.13508,155.02357 C 136.13508,155.02357 147.7315,154.64627 147.7315,154.64627 C 147.7315,154.64627 141.17314,149.40291 141.17314,149.40291 z "
       style="fill:#000000;stroke:#eeeeee;stroke-width:2.21941209px"
       id="stopa" />
    <path
       d="M 57.60118,74.569884 C 57.351496,76.278831 55.609258,77.438474 53.700564,77.166596 C 51.786321,76.889169 45.533128,75.146931 50.893008,74.037225 C 52.485436,73.41579 52.940415,72.716675 54.638265,72.650092 C 56.541411,72.92197 57.845316,72.866485 57.60118,74.569884 C 57.60118,74.569884 57.60118,74.569884 57.60118,74.569884 z "
       style="fill:#eeeeee;stroke:#eeeeee;stroke-width:2.21941209px"
       id="oko" />
    <path
       d="M 28.870892,83.68057 C 28.593466,82.36002 28.282748,81.461158 29.115028,80.212739 C 30.013889,79.103033 32.255495,77.599381 32.372014,77.7159 C 33.237585,80.767592 32.582859,85.411711 31.2956,87.042979 C 29.808594,85.550425 29.841885,85.206416 28.870892,83.68057 z "
       style="fill:#000000;stroke:#eeeeee;stroke-width:1"
       id="nos" />
    <path
       d="M 73.503267,68.211268 C 73.503267,68.211268 76.482828,67.240276 79.467937,67.240276 C 82.724925,67.933842 82.863639,71.401673 81.998068,73.066232 C 80.194796,75.807206 79.429097,76.606194 77.348399,77.7159 C 77.331753,77.776934 76.277532,77.333052 76.654832,75.735075 C 76.898968,73.621085 77.348399,72.128531 75.029113,70.086672 C 73.813985,69.770405 73.641981,69.076839 73.503267,68.24456 L 73.503267,68.211268 z "
       style="fill:#eeeeee;stroke:#eeeeee;stroke-width:1.10970604px"
       id="ucho" />
    <path
       d="M 39.611881,91.127265 L 42.002654,95.483358 L 44.368276,91.838884 L 45.269936,94.647257 L 48.018712,92.172249 L 49.679533,95.07982 L 51.233349,92.340721 L 53.63465,96.495898 L 55.4315,92.963669"
       style="fill:#eeeeee;stroke:#eeeeee;stroke-width:1px"
       id="Teeth" />
    <path
       d="M 53.807426,75.33611 C 53.807426,76.442121 52.909794,77.339752 51.803783,77.339752 C 50.697772,77.339752 49.800141,76.442121 49.800141,75.33611 C 49.800141,74.230099 50.697772,73.332468 51.803783,73.332468 C 52.909794,73.332468 53.807426,74.230099 53.807426,75.33611 z "
       style="fill:#000000;stroke:none"
       id="eye" />
  </g>
  <path
     d="M 249.55062,1.4395041 L 1.449569,1.4395041 L 1.449569,174.9361 C 0.68232904,268.65698 81.739009,302.75585 125.5001,302.75585 C 168.49395,302.75585 250.31785,268.65698 249.55062,174.9361 L 249.55062,1.4395041 z "
     style="fill:none;fill-opacity:0;stroke:#000000;stroke-width:1.88832211;stroke-linejoin:bevel"
     id="Frame" />
</svg>
