<?xml version="1.0" encoding="UTF-8" standalone="no"?>
<!-- Created with Inkscape (http://www.inkscape.org/) -->
<svg
   xmlns:dc="http://purl.org/dc/elements/1.1/"
   xmlns:cc="http://web.resource.org/cc/"
   xmlns:rdf="http://www.w3.org/1999/02/22-rdf-syntax-ns#"
   xmlns:svg="http://www.w3.org/2000/svg"
   xmlns:xlink="http://www.w3.org/1999/xlink"
   xmlns="http://www.w3.org/2000/svg"
   version="1.0"
   width="251"
   height="304.20001"
   id="svg4166">
  <defs
     id="defs4168" />
     <metadata
           id="metadata1880"><rdf:RDF><cc:Work
     	   rdf:about=""><dc:title>Sundsvall vapen</dc:title><dc:date>06-07-2008</dc:date><dc:creator><cc:Agent><dc:title>Lokal_Profil</dc:title></cc:Agent></dc:creator><cc:license
     	   rdf:resource="http://creativecommons.org/licenses/by-sa/2.5/" /><dc:rights><cc:Agent><dc:title>cc-by-sa-2.5</dc:title></cc:Agent></dc:rights><dc:format>image/svg+xml</dc:format><dc:type
     	   rdf:resource="http://purl.org/dc/dcmitype/StillImage" /></cc:Work><cc:License
     	   rdf:about="http://creativecommons.org/licenses/by-sa/2.5/"><cc:permits
     	   rdf:resource="http://web.resource.org/cc/Reproduction" /><cc:permits
     	   rdf:resource="http://web.resource.org/cc/Distribution" /><cc:requires
     	   rdf:resource="http://web.resource.org/cc/Notice" /><cc:requires
     	   rdf:resource="http://web.resource.org/cc/Attribution" /><cc:permits
     	   rdf:resource="http://web.resource.org/cc/DerivativeWorks" /><cc:requires
     	   rdf:resource="http://web.resource.org/cc/ShareAlike" /></cc:License></rdf:RDF>
     </metadata>
  <path
     d="M 249.55058,1.4395041 L 125.50008,1.4395041 L 1.4495291,1.4395041 L 1.4495291,174.9361 C 0.68228908,268.65698 81.738969,302.75585 125.50006,302.75585 C 168.49391,302.75585 250.31781,268.65698 249.55058,174.9361 L 249.55058,1.4395041 z "
     style="fill:#eeeeee;stroke:none"
     id="Shield" />
  <g
     transform="translate(0,-6)"
     style="fill:#003d8f;stroke:#eeeeee"
     id="Stormhatt">
    <path
       d="M 235.49997,106.69703 C 209.66293,91.780009 180.19059,80.240654 180.19059,80.240654 C 180.19059,28.510905 147.75321,13.623957 125.49999,13.623957 C 102.67992,13.623957 70.809415,28.976678 70.809415,80.240654 C 70.809415,80.240654 42.771301,90.951951 15.500035,106.69703 C 15.500035,106.69703 77.953827,109.67855 125.50001,109.67855 C 173.04619,109.67855 235.49997,106.69703 235.49997,106.69703 z "
       style="stroke:none"
       id="path1878" />
    <g
       id="g2031">
      <path
         d="M 180.0919,79.712195 C 180.0919,79.712195 180.0919,73.893695 180.0919,73.893695 C 180.0919,73.893695 149.0967,75.373394 125.50001,75.373394 C 101.90331,75.373394 70.908103,73.893695 70.908103,73.893695 C 70.908103,73.893695 70.908103,79.712195 70.908103,79.712195 C 70.908103,79.712195 101.90331,81.191894 125.50001,81.191894 C 149.0967,81.191894 180.0919,79.712195 180.0919,79.712195 z "
         id="use1884" />
      <path
         d="M 127.31515,78.295241 C 127.31515,79.297197 126.50195,80.110407 125.49998,80.110407 C 124.49802,80.110407 123.68486,79.297197 123.68486,78.295241 C 123.68486,77.293286 124.49802,76.480105 125.49998,76.480105 C 126.50195,76.480105 127.31515,77.293286 127.31515,78.295241 z "
         style="stroke-width:0.75"
         id="path1922" />
      <use
         transform="translate(-41.74131,-1.043533)"
         id="use1925"
         x="0"
         y="0"
         width="218"
         height="398"
         xlink:href="#path1922" />
      <use
         transform="translate(41.74131,-1.043533)"
         id="use1927"
         x="0"
         y="0"
         width="218"
         height="398"
         xlink:href="#path1922" />
      <use
         transform="translate(20.87065,-0.298152)"
         id="use1929"
         x="0"
         y="0"
         width="218"
         height="398"
         xlink:href="#path1922" />
      <use
         transform="translate(-20.87065,-0.298152)"
         id="use1931"
         x="0"
         y="0"
         width="218"
         height="398"
         xlink:href="#path1922" />
    </g>
  </g>
  <g
     transform="matrix(0.336479,-0.400998,0.400998,0.336479,-12.71841,164.06)"
     style="fill:#003d8f;stroke:#eeeeee;stroke-width:2"
     id="Muskotgaffel">
    <path
       d="M 91.317538,388.7789 L 91.317538,217.13042 L 116.52065,217.13042 L 116.52065,388.7789 L 91.317538,388.7789 z "
       id="use2007" />
    <path
       d="M 88.908773,220.16518 L 98.112734,140.04978 L 109.72546,140.04978 L 118.92942,220.16518 L 88.908773,220.16518 z "
       id="path2001" />
    <path
       d="M 103.9191,130.35738 L 92.83551,129.66039 C 92.83551,129.66039 92.11029,116.37531 89.35058,112.23574 C 87.12563,108.89831 65.75392,97.612864 63.28061,77.238943 C 62.49295,70.750659 61.25352,31.803745 51.16722,29.716652 C 44.69064,28.376492 42.28949,36.353157 47.53142,46.022073 C 47.9515,46.796924 50.25803,51.158797 57.28923,52.991933 C 59.0888,53.461108 45.50806,55.814722 42.37778,51.045099 C 35.79913,41.021166 36.1152,23.709956 45.14546,22.334678 C 73.36465,18.03699 62.569926,73.85806 78.89579,92.720135 C 89.298634,104.73905 118.48052,104.94349 128.94241,92.720135 C 145.1809,73.747566 134.47355,18.03699 162.69274,22.334678 C 171.723,23.709956 172.03907,41.021166 165.46042,51.045099 C 162.33014,55.814722 148.7494,53.461108 150.54897,52.991933 C 157.58017,51.158797 159.8867,46.796924 160.30678,46.022073 C 165.54871,36.353157 163.14756,28.376492 156.67098,29.716652 C 146.58468,31.803745 145.34525,70.750659 144.55759,77.238943 C 142.08428,97.612864 120.71257,108.89831 118.48762,112.23574 C 115.72791,116.37531 115.00269,129.66039 115.00269,129.66039 L 103.9191,130.35738 z "
       style="stroke:none"
       id="path2003" />
    <path
       d="M 103.78411,125.41665 C 112.52516,125.45585 119.80779,130.68862 119.75434,137.09873 C 119.70089,143.50883 112.56332,148.67943 103.82227,148.64023 C 95.081214,148.60104 88.030403,143.36682 88.083853,136.95671 C 88.136306,130.66609 95.208138,125.56237 103.78411,125.41665 z "
       id="path2005" />
    <path
       d="M 88.908773,385.74432 L 118.92942,385.74432 C 118.92942,385.74432 108.69154,446.58961 103.9191,446.58961 C 98.982609,446.58961 88.908773,385.74432 88.908773,385.74432 z "
       id="use2011" />
  </g>
  <use
     transform="matrix(-1,0,0,1,251.0001,0)"
     id="Muskotgaffel-2"
     x="0"
     y="0"
     width="251"
     height="304.20001"
     xlink:href="#Muskotgaffel" />
  <path
     d="M 249.55062,1.4395041 L 125.50012,1.4395041 L 1.449569,1.4395041 L 1.449569,174.9361 C 0.68232904,268.65698 81.739009,302.75585 125.5001,302.75585 C 168.49395,302.75585 250.31785,268.65698 249.55062,174.9361 L 249.55062,1.4395041 z "
     style="fill:none;fill-opacity:0;stroke:#000000;stroke-width:1.88832211;stroke-linecap:round"
     id="Frame" />
</svg>
