<?xml version="1.0" encoding="UTF-8" standalone="no"?>
<!-- Created with Inkscape (http://www.inkscape.org/) -->
<svg
   xmlns:dc="http://purl.org/dc/elements/1.1/"
   xmlns:cc="http://web.resource.org/cc/"
   xmlns:rdf="http://www.w3.org/1999/02/22-rdf-syntax-ns#"
   xmlns:svg="http://www.w3.org/2000/svg"
   xmlns="http://www.w3.org/2000/svg"
   xmlns:xlink="http://www.w3.org/1999/xlink"
   version="1.0"
   width="251"
   height="304.20001"
   id="svg4166">
  <defs
     id="defs4168" />
  <metadata
     id="metadata1880"><rdf:RDF><cc:Work
         rdf:about=""><dc:title>Ornskoldsvik kommunvapen</dc:title><dc:date>31-01-2008</dc:date><dc:creator><cc:Agent><dc:title>Lokal_Profil</dc:title></cc:Agent></dc:creator><cc:license
         rdf:resource="http://creativecommons.org/licenses/by-sa/2.5/" /><dc:rights><cc:Agent><dc:title>cc-by-sa-2.5</dc:title></cc:Agent></dc:rights><dc:format>image/svg+xml</dc:format><dc:type
         rdf:resource="http://purl.org/dc/dcmitype/StillImage" /></cc:Work><cc:License
         rdf:about="http://creativecommons.org/licenses/by-sa/2.5/"><cc:permits
         rdf:resource="http://web.resource.org/cc/Reproduction" /><cc:permits
         rdf:resource="http://web.resource.org/cc/Distribution" /><cc:requires
         rdf:resource="http://web.resource.org/cc/Notice" /><cc:requires
         rdf:resource="http://web.resource.org/cc/Attribution" /><cc:permits
         rdf:resource="http://web.resource.org/cc/DerivativeWorks" /><cc:requires
         rdf:resource="http://web.resource.org/cc/ShareAlike" /></cc:License></rdf:RDF>
  </metadata>
  <path
     d="M 249.55058,1.4395041 L 125.50008,1.4395041 L 1.4495291,1.4395041 L 1.4495291,174.9361 C 0.68228908,268.65698 81.738969,302.75585 125.50006,302.75585 C 168.49391,302.75585 250.31781,268.65698 249.55058,174.9361 L 249.55058,1.4395041 z "
     style="fill:#eeeeee;stroke:none"
     id="Shield" />
  <path
     d="M 30,204.75 C 29.937654,205.23227 29.850344,205.71781 29.75,206.1875 C 29.492782,207.3915 29.144751,208.54967 28.65625,209.65625 C 28.167748,210.76283 27.568853,211.82821 26.875,212.8125 C 26.181148,213.7968 25.342022,214.72534 24.46875,215.5625 C 23.595479,216.39966 22.683006,217.14734 21.65625,217.8125 C 20.629493,218.47766 19.498062,219.0317 18.34375,219.5 C 17.18944,219.9683 16.00593,220.34717 14.75,220.59375 C 13.494069,220.84033 12.175369,220.96874 10.84375,220.96875 C 10.090906,220.96875 9.3560399,220.92421 8.625,220.84375 C 8.6972639,221.052 8.7701593,221.26165 8.84375,221.46875 C 8.8546894,221.49953 8.8640391,221.53174 8.875,221.5625 C 9.2739543,222.68209 9.6979234,223.78166 10.125,224.875 C 10.431799,225.66036 10.741585,226.44684 11.0625,227.21875 C 11.360422,227.93535 11.658935,228.63869 11.96875,229.34375 C 12.019423,229.45907 12.074013,229.57249 12.125,229.6875 C 12.431605,230.37926 12.744679,231.06934 13.0625,231.75 C 13.237682,232.12513 13.41522,232.50323 13.59375,232.875 C 13.845755,233.39965 14.085178,233.91952 14.34375,234.4375 C 14.43255,234.61549 14.535434,234.79155 14.625,234.96875 C 15.04992,235.80886 15.495669,236.64623 15.9375,237.46875 C 16.440869,238.40594 16.944135,239.33551 17.46875,240.25 C 17.503319,240.31026 17.527841,240.37734 17.5625,240.4375 C 18.023734,241.2381 18.523011,242.02923 19,242.8125 C 19.512906,243.65475 20.031986,244.49015 20.5625,245.3125 C 21.018797,246.01981 21.468612,246.71357 21.9375,247.40625 C 22.072219,247.60527 22.208013,247.80218 22.34375,248 C 22.834126,248.71465 23.340373,249.42599 23.84375,250.125 C 24.971417,251.69092 26.123245,253.19929 27.3125,254.6875 C 27.907128,255.43161 28.515923,256.18137 29.125,256.90625 C 29.713366,257.60624 30.304987,258.31781 30.90625,259 C 31.54806,259.72833 32.187911,260.41682 32.84375,261.125 C 33.200473,261.51021 33.545534,261.90196 33.90625,262.28125 C 34.19252,262.58232 34.492527,262.89015 34.78125,263.1875 C 34.924604,263.33507 35.074802,263.47834 35.21875,263.625 C 35.725349,264.14134 36.23623,264.6512 36.75,265.15625 C 37.410561,265.80559 38.078147,266.4317 38.75,267.0625 C 39.421853,267.6933 40.098737,268.32511 40.78125,268.9375 C 41.199479,269.31268 41.609211,269.69419 42.03125,270.0625 C 42.298178,270.2955 42.575345,270.51974 42.84375,270.75 C 43.536292,271.34411 44.23556,271.92403 44.9375,272.5 C 46.34138,273.65194 47.74982,274.76355 49.1875,275.84375 C 49.90634,276.38385 50.648657,276.91514 51.375,277.4375 C 51.470368,277.50608 51.560758,277.58797 51.65625,277.65625 C 52.286619,278.10696 52.927001,278.53125 53.5625,278.96875 C 54.0453,279.30111 54.514448,279.64397 55,279.96875 C 55.487558,280.29486 55.9786,280.619 56.46875,280.9375 C 56.645622,281.05243 56.822806,281.1673 57,281.28125 C 57.643707,281.69522 58.289813,282.09899 58.9375,282.5 C 59.06046,282.57613 59.189406,282.64308 59.3125,282.71875 C 59.895305,283.07696 60.476859,283.43344 61.0625,283.78125 C 61.476531,284.02715 61.897179,284.25926 62.3125,284.5 C 62.649748,284.69553 62.974464,284.90162 63.3125,285.09375 C 63.676973,285.30089 64.040929,285.51554 64.40625,285.71875 C 64.623402,285.83953 64.845069,285.94311 65.0625,286.0625 C 66.476869,286.83914 67.888662,287.59395 69.3125,288.3125 C 70.573447,288.94911 71.828392,289.56455 73.09375,290.15625 C 73.456148,290.32565 73.824891,290.4905 74.1875,290.65625 C 74.322649,290.71805 74.458578,290.78246 74.59375,290.84375 C 75.897666,291.43477 77.226913,291.98694 78.53125,292.53125 C 79.817281,293.06792 81.091556,293.60184 82.375,294.09375 C 82.612499,294.18477 82.8564,294.25425 83.09375,294.34375 C 83.128228,294.35675 83.153025,294.39328 83.1875,294.40625 C 84.655125,294.95848 86.103259,295.47406 87.5625,295.96875 C 87.602781,295.98241 87.647227,295.98639 87.6875,296 C 89.042275,296.45791 90.406269,296.9034 91.75,297.3125 C 92.030708,297.39796 92.313618,297.47915 92.59375,297.5625 C 93.474945,297.82472 94.343925,298.07101 95.21875,298.3125 C 95.719266,298.4506 96.220581,298.58738 96.71875,298.71875 C 97.725246,298.98416 98.723004,299.23056 99.71875,299.46875 C 100.47172,299.64894 101.22271,299.8352 101.96875,300 C 102.6188,300.14359 103.26194,300.24299 103.90625,300.375 C 104.91769,300.58223 105.91038,300.78977 106.90625,300.96875 C 107.32462,301.04394 107.74085,301.11725 108.15625,301.1875 C 109.13278,301.35264 110.10354,301.51815 111.0625,301.65625 C 111.84476,301.7689 112.63669,301.87388 113.40625,301.96875 C 114.11394,302.056 114.80379,302.11513 115.5,302.1875 C 116.07549,302.24725 116.65155,302.32532 117.21875,302.375 C 117.93944,302.43813 118.63716,302.48423 119.34375,302.53125 C 120.15983,302.58567 120.98514,302.62305 121.78125,302.65625 C 123.04722,302.70904 124.28864,302.75 125.5,302.75 C 126.84356,302.75 128.24056,302.72363 129.65625,302.65625 C 165.14117,300.96737 222.09941,277.87044 242.21875,221.09375 C 240.97502,221.07846 239.77012,220.9497 238.59375,220.71875 C 237.33782,220.47217 236.12306,220.12454 234.96875,219.65625 C 233.81444,219.18795 232.71425,218.60266 231.6875,217.9375 C 230.66074,217.27234 229.68576,216.52466 228.8125,215.6875 C 227.93922,214.85033 227.1626,213.9218 226.46875,212.9375 C 225.77489,211.9532 225.176,210.91908 224.6875,209.8125 C 224.199,208.70593 223.81972,207.54774 223.5625,206.34375 C 223.45127,205.82304 223.37694,205.28603 223.3125,204.75 C 223.26229,204.75 223.08198,204.75 223.03125,204.75 C 221.92594,213.96052 213.77962,221.09375 203.875,221.09375 C 193.97037,221.09375 185.82406,213.96052 184.71875,204.75 C 184.61138,204.75 184.54518,204.75 184.4375,204.75 C 183.33219,213.96052 175.18587,221.09375 165.28125,221.09375 C 155.37633,221.09375 147.19868,213.96091 146.09375,204.75 C 145.97258,204.75 145.965,204.75 145.84375,204.75 C 144.73843,213.96052 136.59212,221.09375 126.6875,221.09375 C 116.78258,221.09375 108.60493,213.96091 107.5,204.75 C 107.37822,204.75 107.3717,204.75 107.25,204.75 C 106.14468,213.96052 97.998368,221.09375 88.09375,221.09375 C 78.189126,221.09375 70.01156,213.96052 68.90625,204.75 C 68.808952,204.75 68.753308,204.75 68.65625,204.75 C 67.551316,213.96091 59.373659,221.09375 49.46875,221.09375 C 39.564123,221.09375 31.41781,213.96052 30.3125,204.75 C 30.252838,204.75 30.059032,204.75 30,204.75 z "
     style="fill:#003d8f"
     id="Karvskura" />
  <g
     transform="matrix(1.076407,0,0,1.076407,-9.7237591,-1.2738827)"
     id="EagleAndSheild">
    <g
       transform="matrix(0.2095894,0,0,0.2095894,25.795082,-8.1174385)"
       id="Eagle">
      <path
         d="M 520.01538,593.14153 C 519.82699,592.9936 519.61798,592.87476 519.34041,592.77913 C 517.5783,592.17217 515.51558,591.16069 514.77467,590.53899 C 514.03375,589.91727 510.77546,589.75174 507.50984,590.15423 C 507.09574,590.20528 506.72418,590.22555 506.36516,590.25437 C 502.71167,591.85278 499.27128,594.58834 496.12297,599.44633 C 496.11129,599.46429 496.09442,599.47615 496.08279,599.49421 C 494.14551,605.13937 493.15097,612.32708 494.33671,615.28492 C 495.75336,618.81873 496.32614,618.47775 501.19714,611.04698 C 505.27289,604.82952 507.44588,602.99127 510.67516,603.00874 C 516.02877,603.03768 522.8412,595.3606 520.01538,593.14153 z "
         style="fill:#ffcd50"
         id="path2286" />
      <path
         d="M 327.10562,511.30978 C 327.74912,511.28854 328.30402,511.53317 328.66812,512.12228 C 330.58022,515.21622 328.31522,527.62592 323.90682,536.75019 C 320.87952,542.03961 318.86122,545.69757 311.02922,547.11066 C 318.4931,538.76672 320.82214,525.29676 320.70264,516.62922 C 321.34654,513.41425 325.42192,512.6297 327.10562,511.30978 z "
         style="fill:#ffcd50"
         id="path2523" />
      <g
         style="fill:#000000"
         id="Wings">
        <path
           d="M 508.51187,92.341195 C 502.35063,92.350288 494.26231,92.589204 482.66812,92.966195 C 415.90633,95.136975 414.03667,96.380905 423.76187,132.49745 C 427.30148,145.6426 453.36667,170.12245 463.82437,170.12245 C 468.48526,170.12245 470.70585,162.89576 466.41812,156.93495 C 445.76694,128.22566 444.41548,131.63036 470.16812,153.5912 C 475.64774,158.26401 501.88047,176.06196 511.07437,180.80995 C 524.97175,187.98698 539.11133,183.38879 534.39953,173.04748 C 533.3336,169.13251 530.88823,166.7586 527.48062,164.43495 C 525.45862,163.74471 522.78155,162.93624 519.98062,162.18495 C 515.05819,160.86461 509.52614,156.54947 490.73062,144.6537 C 517.6307,159.62054 521.05797,160.18007 523.44937,159.49745 C 526.7632,158.55151 531.60157,158.1325 531.16812,150.74745 C 530.89376,146.07288 527.29107,142.85047 518.23062,133.37245 C 524.74872,137.87706 533.86934,144.35728 539.48062,147.80995 C 552.99313,156.12428 563.05772,159.11819 566.85562,155.9662 C 567.69677,155.26811 568.31795,154.83727 568.82437,154.68495 C 569.34098,151.45361 565.67295,145.42319 550.82437,133.99745 C 561.49764,141.52565 575.4264,136.20457 566.82437,125.37245 C 566.81781,125.3677 566.79968,125.3772 566.79312,125.37245 C 563.51749,122.99993 560.11846,119.89982 556.13687,116.2162 C 548.45355,109.10787 529.58773,93.473583 548.91812,108.1537 C 551.18494,109.8752 558.45412,114.78211 564.91812,119.2787 C 578.44303,128.68696 589.46907,133.10276 592.32437,130.24745 C 592.80644,129.76537 594.00167,129.92688 595.57437,130.5287 C 595.48345,128.01587 591.68866,122.52566 587.63687,118.1537 C 586.08966,117.60951 583.88995,116.2703 581.57437,114.37245 C 575.80255,109.64175 567.54972,105.80139 556.66812,102.7787 C 555.5681,102.47313 547.01812,99.852345 537.66812,96.966195 C 526.25698,93.44383 522.06659,92.32119 508.51187,92.341195 z M 590.51187,117.7787 C 590.38569,117.77798 590.26874,117.7923 590.16812,117.80995 C 590.06854,117.82741 589.99155,117.86788 589.91812,117.9037 C 592.54698,122.83304 595.29167,127.74841 599.54312,132.49745 C 603.31305,134.70716 607.70573,138.06134 610.66812,141.30995 C 614.8858,145.93509 626.96042,151.85646 630.73062,151.1537 C 632.9002,150.74932 635.34312,150.36286 636.16812,150.2787 C 642.332,149.64989 621.83607,130.12245 615.01187,130.12245 C 614.54227,130.12245 608.93652,126.97235 602.54312,123.12245 C 597.10035,119.84496 592.40452,117.78946 590.51187,117.7787 z M 570.16812,127.5912 C 572.42242,138.62765 567.19112,139.63438 561.29312,139.7162 C 567.52307,144.56124 570.09989,150.40659 570.73062,156.7787 C 570.78216,156.95521 570.8347,157.11046 570.88687,157.30995 C 572.65208,164.06015 601.41927,179.99745 611.94937,180.05995 C 618.70485,180.10004 621.99806,178.41973 621.35562,173.4037 C 621.75734,168.34932 616.77238,164.63634 615.76187,162.2787 C 614.87625,163.18313 613.48421,162.8928 609.41812,162.43495 C 602.85089,161.69547 596.11105,158.27645 586.57437,148.4037 C 598.46571,156.4475 599.76396,158.0463 604.29312,158.12245 C 622.73072,158.43239 612.03549,146.86405 601.29312,136.24745 C 595.51557,130.53754 592.05799,133.3733 587.91812,133.1537 C 581.47584,132.81196 576.03222,131.2034 570.16812,127.5912 z M 641.54312,146.49745 C 640.25078,146.57959 639.68086,147.90257 639.04312,150.3412 C 637.9237,154.62193 628.02957,155.16208 619.63687,151.4037 C 617.23409,150.32765 616.67362,151.42554 616.91812,156.62245 C 617.02968,158.99472 617.08748,160.50689 616.73062,161.43495 C 619.16851,165.48974 620.95992,165.01922 624.48062,176.6537 C 631.13006,186.42542 645.17797,193.79877 653.51187,191.1537 C 659.8495,189.14223 658.51812,183.75154 649.35562,174.49745 C 633.56455,158.54853 642.90107,164.31053 661.76187,182.1537 C 667.34484,187.43546 671.76834,191.9128 674.73062,195.12245 C 679.3865,199.75301 683.73532,203.72412 687.07437,204.99745 C 703.74857,211.35601 696.58334,194.61354 682.48062,181.37245 C 693.6875,190.35804 699.09737,198.3835 697.57437,205.24745 L 713.16812,219.55995 L 713.23062,219.74745 C 739.94318,237.31218 751.04815,233.30882 730.16812,212.87245 C 716.4557,199.45137 692.01127,180.04785 672.63687,167.18495 C 666.05567,162.81556 656.72007,156.29056 651.88687,152.68495 C 646.06819,148.34415 643.2047,146.39183 641.54312,146.49745 z M 537.23062,152.37245 C 535.95903,152.3562 535.66812,153.22413 535.66812,154.87245 C 535.6681,156.38776 534.33727,158.73188 532.69937,160.0912 C 532.02259,160.65287 531.50299,161.34215 531.16812,162.0287 C 531.73292,165.11703 533.19873,167.75202 535.38687,170.0287 C 536.98181,171.00717 539.31253,172.67074 542.76187,175.2162 C 552.80639,182.62865 571.05567,186.35915 577.44937,182.30995 C 584.12696,178.081 573.42622,162.12245 563.91812,162.12245 C 560.84741,162.12245 553.92327,159.86783 548.51187,157.12245 C 542.1253,153.88234 538.86552,152.39334 537.23062,152.37245 z M 471.23062,164.4662 C 469.9915,164.4457 469.66812,165.41464 469.66812,167.1537 C 469.66813,168.81861 468.57847,171.88914 467.26187,173.99745 C 464.40867,178.56607 465.73602,179.84836 492.60562,198.5912 C 527.14332,222.68282 544.64647,230.68944 554.51187,226.9037 C 566.55139,222.28372 542.46022,192.12245 526.73062,192.12245 C 518.43554,192.12245 508.74417,187.56388 487.88687,173.8412 C 477.91038,167.27737 473.29582,164.50036 471.23062,164.4662 z M 582.79312,176.5912 C 580.05859,176.7373 580.6224,179.4389 584.13687,184.7162 L 607.48062,201.5287 C 615.96568,205.21893 631.84451,206.30742 635.54312,202.6537 C 635.5538,202.64315 635.56389,202.63307 635.57437,202.62245 C 636.34834,200.44466 636.78649,198.19133 636.69937,195.7787 C 634.9908,195.29502 632.84165,193.30704 631.60562,190.99745 C 628.33543,184.88697 623.53647,183.36839 617.01187,186.3412 C 612.55847,188.37027 609.89247,187.73316 596.76187,181.49745 C 589.68793,178.13806 585.09078,176.46843 582.79312,176.5912 z M 540.26187,180.74745 C 532.97355,181.15034 535.64416,189.94224 550.16812,201.2787 C 557.0431,206.64489 564.38382,212.61582 566.48062,214.5287 C 587.59924,233.79511 627.94702,242.98541 624.91812,227.8412 C 624.47674,225.6342 624.43968,224.24604 624.66812,223.55995 C 622.64887,219.4664 619.73868,215.6719 617.35562,212.7162 C 615.35572,211.78787 611.86785,209.17892 608.04312,205.62245 C 601.65871,198.36992 593.78897,194.83074 586.63687,189.49745 C 586.51996,189.54266 586.31171,189.49525 586.01187,189.30995 C 584.71524,188.50861 580.52077,188.9906 576.69937,190.37245 C 570.21079,192.71875 568.78737,192.4049 555.32437,185.49745 C 549.01827,182.262 544.21418,180.80543 541.01187,180.74745 C 540.75613,180.74282 540.49698,180.73444 540.26187,180.74745 z M 488.16812,183.1537 C 492.46556,183.06474 527.50446,205.84234 534.48062,211.9037 C 547.2805,223.02508 544.06793,221.19562 524.66812,208.55995 C 495.14472,189.33049 487.84637,185.00473 487.76187,183.4662 C 487.75017,183.25306 487.88162,183.15963 488.16812,183.1537 z M 663.26187,188.7787 C 662.53032,188.8346 662.31306,189.86109 662.04312,191.7162 C 661.89355,192.7442 661.47313,193.638 660.85562,194.43495 C 669.25267,199.99643 677.81996,207.16108 677.57437,217.9662 C 677.39577,220.79268 677.33277,224.05684 677.44937,225.2162 C 677.80916,228.79494 704.14397,247.66958 716.26187,253.0287 C 736.34549,261.91062 742.55267,249.16555 725.19937,234.68495 C 719.09972,229.59509 711.61234,221.29053 710.32437,218.7787 L 697.10562,206.68495 C 692.11586,210.61963 684.68796,205.53326 678.76187,200.62245 C 678.01852,200.49254 675.21711,198.35185 669.94937,193.7162 C 666.00191,190.24241 664.20243,188.70683 663.26187,188.7787 z M 660.23062,195.0287 C 657.67513,197.97589 652.47283,198.794 646.13687,197.24745 C 643.4802,196.59894 640.17857,196.07006 638.19937,195.93495 C 638.08714,199.12921 637.42991,202.1288 636.19937,204.9037 C 635.9373,211.87411 653.71665,221.51904 661.16812,221.5912 C 669.40091,221.67441 673.39747,223.18664 673.19937,214.3412 C 673.12288,210.92722 672.58118,208.80079 671.79312,207.4037 C 668.55117,202.44855 663.28588,197.76257 660.23062,195.0287 z M 561.07437,196.12245 C 563.89657,195.8575 585.32309,207.47313 592.66812,213.30995 C 619.8333,234.89704 617.82182,236.81252 589.23062,216.55995 C 579.59918,209.93158 570.96251,202.25186 561.07437,196.12245 z M 622.44937,211.4662 C 620.74361,211.48876 619.53849,211.8791 619.13687,212.68495 C 623.17398,217.53798 627.84434,224.11969 628.19937,227.24745 C 628.66215,228.28662 629.14827,229.48662 629.60562,230.87245 C 637.64443,255.23019 740.79317,327.70622 746.44937,312.9662 C 751.89334,298.77936 736.56102,274.59915 711.29312,257.55995 C 704.35405,252.88065 696.86812,247.55448 694.66812,245.7162 C 674.2087,228.62079 673.36387,228.12245 664.38687,228.12245 C 657.54849,228.12245 652.59121,227.11551 644.69937,220.3412 C 638.48587,215.00754 627.89329,211.39422 622.44937,211.4662 z M 567.07437,226.4037 C 567.05457,226.41019 567.05042,226.4209 567.04312,226.43495 C 566.84439,226.81693 565.54312,229.13111 564.16812,231.5912 C 560.7963,237.62381 560.03902,236.46329 575.16812,248.43495 C 625.4284,288.20599 677.66812,312.61926 677.66812,296.3412 C 677.6681,281.74815 637.35827,245.52981 620.69937,245.1537 C 604.83154,244.79544 604.71082,243.7669 622.16812,256.7162 C 636.7389,267.52438 651.66812,281.6317 651.66812,284.5912 C 651.6681,285.46501 641.54312,278.7154 629.16812,269.5912 C 601.35587,249.08503 569.55376,226.94923 567.16812,226.4037 C 567.12964,226.39489 567.09417,226.3972 567.07437,226.4037 z M 647.32437,235.5287 C 648.40684,235.41116 655.45773,240.14519 669.07437,250.4662 C 694.35067,269.62488 720.18382,294.12245 715.10562,294.12245 C 714.64342,294.12245 700.41832,282.59539 683.48062,268.49745 C 658.47987,247.68819 645.63572,235.71205 647.32437,235.5287 z M 905.69142,489.66504 C 903.18902,482.7637 897.80812,470.34146 893.73392,462.06006 C 889.65982,453.77866 885.75612,444.77866 885.05922,442.06006 C 883.93822,437.6876 872.12772,416.14104 861.52052,399.11714 C 859.46432,395.81714 856.30092,390.4818 854.49062,387.26082 C 850.86652,380.81268 815.53702,328.39874 808.86352,319.56968 C 804.15822,313.34462 792.73412,299.09378 786.67042,291.8853 C 784.47042,289.26994 778.62042,282.13004 773.67042,276.01882 C 752.44762,249.81742 738.87022,236.11714 734.12662,236.11714 C 729.39802,236.11714 729.39802,236.11714 733.77262,242.26068 C 736.92282,246.6847 737.85462,250.20726 737.10182,254.84622 C 736.19692,260.42254 737.30712,262.63102 745.36342,271.2806 C 760.34602,287.36654 793.94522,326.10954 804.19352,339.11714 C 809.39342,345.71714 817.92802,356.53552 823.15912,363.158 C 849.28092,396.22706 878.57592,442.6865 896.57072,479.5829 C 909.36742,505.82094 913.00942,509.84682 905.69142,489.66504 z M 863.72702,384.61714 C 854.37302,353.70178 750.04582,219.80152 743.52862,230.34662 C 741.77952,233.17664 742.15712,233.71462 757.99532,250.96238 C 763.12402,256.5475 770.17422,264.71048 773.66232,269.10234 C 777.15052,273.4942 780.61092,277.5442 781.35202,278.10234 C 782.09322,278.66048 792.14302,291.59238 803.68502,306.83988 C 822.56312,331.77882 833.18502,346.30646 856.89582,379.61714 C 865.50972,391.71858 865.97982,392.06266 863.72702,384.61714 z M 908.04352,526.6816 C 900.06912,498.91362 877.71852,451.02516 861.25152,426.42498 C 823.30282,369.73306 810.96312,352.97368 786.65972,325.11714 C 783.78072,321.81714 776.75532,313.75902 771.04772,307.2102 C 765.34022,300.66138 756.55982,290.76138 751.53572,285.2102 C 746.51172,279.65902 740.01832,272.46048 737.10612,269.21346 C 728.06602,259.13408 729.04552,264.9516 738.78352,279.17536 C 748.28892,293.05946 753.67042,305.26956 753.67042,312.95246 C 753.67042,315.3353 757.79812,321.74714 762.84312,327.20102 C 767.88812,332.65488 775.31312,341.17532 779.34312,346.1353 C 783.37312,351.09528 792.89642,362.57912 800.50592,371.65492 C 814.39312,388.21814 826.64352,405.39802 855.02862,448.11714 C 879.36092,484.73696 880.61172,486.84842 896.02192,517.31854 C 911.17662,547.28332 914.76172,550.0756 908.04352,526.6816 z M 911.67042,591.72034 C 911.67042,569.99132 883.27982,496.34306 871.73252,488.11714 C 870.96052,487.56714 867.63102,482.16714 864.33372,476.11714 C 861.03632,470.06714 854.75872,459.26714 850.38342,452.11714 C 846.00812,444.96714 841.13282,436.9349 839.54932,434.26772 C 837.96592,431.60056 835.59242,428.00056 834.27482,426.26772 C 832.95732,424.5349 823.50732,411.49162 813.27482,397.28264 C 784.83242,357.78682 751.18522,321.70878 745.86162,324.99898 C 740.20972,328.49202 705.86312,310.01002 689.19132,294.50456 C 686.17772,291.70186 683.24092,289.87996 682.66502,290.45586 C 680.19882,292.9221 688.12192,306.01094 696.05812,312.58118 C 755.83572,362.06952 825.70192,443.82442 861.28332,509.48354 C 876.34742,537.28164 880.41259,545.57653 896.78468,579.52043 C 880.55513,547.7027 870.83501,532.85739 857.51192,511.61714 C 850.53665,500.49686 842.23952,486.61714 838.51162,481.11714 C 834.78372,475.61714 830.59442,469.42194 829.20202,467.35002 C 794.28692,415.39506 691.67072,310.11714 675.94432,310.11714 C 667.91952,310.11714 667.99012,312.27738 676.17042,317.0353 C 679.74542,319.11462 683.12042,321.33466 683.67042,321.96872 C 684.22042,322.60278 691.42042,328.93156 699.67042,336.0327 C 773.11722,399.25158 835.96622,480.43352 876.99402,565.08126 C 887.96942,587.72542 888.05732,587.86518 897.93512,598.38228 C 909.09482,610.26422 911.67042,609.015 911.67042,591.72034 z "
           id="path2494" />
        <path
           d="M 339.63687,166.3412 C 302.45349,167.44298 257.98399,200.55959 195.88687,266.99745 C 142.81727,323.77668 67.26112,453.52155 57.60562,504.43495 C 54.718718,519.6574 58.31482,520.42113 63.60562,505.7162 C 75.897919,471.55204 113.69752,397.02442 135.29312,364.4037 C 153.97762,336.18023 158.08797,336.14233 141.54312,361.12245 C 121.40409,391.52922 79.12201,475.87956 76.01187,489.05995 C 74.383831,495.9594 70.66697,501.97884 69.82437,503.0912 C 54.548473,523.25775 67.45037,533.93394 84.69937,515.40369 C 89.108066,510.66749 95.91267,500.57886 99.82437,492.9662 C 103.73607,485.35353 118.02207,457.52245 131.57437,431.12245 C 155.67317,384.17757 180.13687,341.3824 180.13687,345.0287 C 169.7336,363.40619 150.99575,399.91437 137.23062,430.37245 C 124.11532,457.86963 116.70612,475.12202 113.41812,482.4662 C 110.75802,488.40777 116.99442,488.11445 126.41812,481.87245 C 136.09722,475.46131 145.43667,462.18464 159.38687,435.0287 C 163.88317,426.27611 170.80672,413.27245 174.79312,406.12245 C 178.77953,398.97245 187.48552,382.76345 194.10562,370.12245 C 208.26918,346.40436 224.21883,318.67508 241.26187,295.9037 C 241.93957,296.58144 212.41522,341.77935 206.60562,352.55995 C 173.06472,414.79978 173.04517,418.70583 186.82437,415.24745 C 198.18398,412.39636 204.54267,405.879 212.63687,388.7162 C 221.15427,370.65621 224.49907,368.84271 217.76187,385.93495 C 212.84808,398.40144 212.84847,398.12245 217.01187,398.12245 C 222.07018,398.12245 236.53602,381.93661 240.85562,371.43495 C 244.26081,363.1563 249.91787,357.41147 246.88687,365.30995 C 243.86057,373.19638 243.33102,378.12245 245.54312,378.12245 C 251.76772,378.12245 260.08338,371.62891 265.41812,360.74745 C 269.67705,352.06035 279.37341,324.95324 270.85562,353.12245 C 266.24858,368.35838 266.92647,368.12245 272.26187,368.12245 C 277.28877,368.12245 287.59802,358.3571 287.73062,353.4662 C 287.76563,352.17561 289.94658,349.73252 290.94937,347.12245 C 302.40091,317.31619 294.55363,351.53639 290.66812,360.8412 C 289.2118,364.32874 304.31792,356.6282 307.66812,352.2162 C 308.21813,351.49185 310.61747,349.53704 313.01187,347.9037 C 315.40627,346.27033 324.44762,338.2316 333.10562,330.0287 C 341.76363,321.82582 353.47482,311.97245 359.10562,308.12245 C 368.20803,301.89885 369.47762,300.12423 370.66812,292.12245 C 371.40462,287.17245 374.80076,278.2192 378.19937,272.24745 C 398.57656,236.44233 379.8775,192.26184 346.57437,203.37245 C 331.34166,208.45439 329.49292,206.50443 318.85562,201.12245 C 302.92393,193.06175 294.36709,192.51784 255.41812,224.05995 C 201.34702,267.84843 239.1176,235.69144 251.91812,223.5287 C 281.46299,195.45588 307.72407,183.93005 319.32437,194.74745 C 323.50638,198.64725 326.96223,204.45903 345.32437,199.18495 C 380.37519,189.11747 403.97762,233.07403 387.66812,271.12245 C 376.36739,297.48589 390.21922,305.433 413.66812,286.0287 C 418.61813,281.93253 425.88537,277.44013 429.82437,276.05995 C 447.01617,270.03597 446.95277,268.69676 428.19937,237.2787 C 399.57862,189.32958 372.44574,165.36904 339.63687,166.3412 z M 271.85562,229.9037 C 265.66856,234.88156 260.05275,239.51162 257.66812,244.87245 L 255.29312,241.99745 C 261.50965,236.87111 266.43811,233.83283 271.85562,229.9037 z M 242.01187,254.05995 C 242.56697,253.89163 241.25317,255.48184 236.69937,260.24745 C 226.02506,271.41822 208.35652,282.3542 200.16812,278.8412 C 198.79312,278.25129 197.56199,276.25147 197.82437,274.43495 C 201.03845,252.18313 199.51679,268.18863 198.98062,273.62245 C 198.28296,280.69289 213.02366,275.8408 233.57437,260.3412 C 237.48218,257.39387 241.29817,254.27636 242.01187,254.05995 z M 275.60562,257.7162 C 276.39357,257.6194 271.91943,261.38763 258.04312,272.30995 C 248.60487,279.73897 245.59427,279.23614 242.07437,275.7162 C 238.36377,272.0056 239.23127,269.80848 243.38687,272.4037 C 246.46187,274.32405 249.31931,273.92729 258.69937,268.0912 C 267.04499,262.89872 274.71261,257.82591 275.60562,257.7162 z "
           id="path2508" />
      </g>
      <path
         d="M 283.22542,501.00374 C 291.69812,495.06922 288.23405,479.94713 278.38842,480.11714 C 271.83561,480.23029 266.21249,486.56352 276.68422,484.9419 C 280.57635,484.33918 282.43631,487.16768 282.35364,490.13624 C 282.24971,493.86855 277.95002,498.22568 274.60002,496.11714 C 268.74468,492.43171 267.77422,496.01253 269.67042,500.11714 C 271.95243,505.0569 277.18022,505.23792 283.22542,501.00374 z "
         style="fill:#000000"
         id="Eye" />
      <path
         d="M 489.6875,206.84375 C 487.46669,207.1576 487.06537,212.35449 485.875,227.40625 C 483.36061,259.20102 477.923,271.31416 464.9375,274.0625 C 417.8244,284.03391 382.23421,327.50281 399.53125,350.96875 C 401.35696,353.4456 403.0892,353.125 400.3125,353.125 C 393.04692,353.125 389.1929,330.8437 394.625,312.9375 C 396.26299,307.53768 397.613,302.83117 397.625,302.46875 C 397.65909,301.42929 385.26665,304.14356 378.65625,306.625 C 370.54346,309.67038 360.6408,317.0891 327.625,344.875 C 324.85479,347.20639 317.33335,353.175 310.90625,358.125 C 279.56496,382.26343 273.3393,390.61361 266.4375,417.84375 C 263.7524,428.43749 258.91595,444.325 255.71875,453.125 C 243.38414,487.07517 247.38245,516.60181 264.90625,521 C 272.35474,522.86945 275.78345,518.97269 270.15625,515.03125 C 263.82355,510.59564 262.83175,500.89516 266.78125,481.875 C 268.69444,472.66134 270.8231,457.925 271.5,449.125 C 272.73091,433.12501 272.72195,433.13064 275.40625,445 C 276.88264,451.52816 277.6601,460.75314 277.125,465.5 C 276.2158,473.56688 276.4712,474.125 281,474.125 C 286.846,474.12501 295.65625,482.41285 295.65625,487.90625 C 295.65626,499.63894 288.42945,507.96196 278.15625,508.0625 C 271.20926,508.13049 269.92275,510.19594 274.46875,513.96875 C 276.11715,515.33681 279.5145,515.73388 282.6875,514.9375 C 287.62419,513.69847 287.896,513.93424 285.9375,517.59375 C 284.75781,519.79809 284.3679,522.14911 285.0625,522.84375 C 287.95199,525.7332 290.8806,523.62009 294.5625,515.9375 C 301.10699,502.2817 313.08785,497.48394 317.84375,506.625 C 321.21846,513.11129 321.25855,513.10491 325.65625,509.125 C 327.86346,507.12754 329.65625,502.97374 329.65625,499.875 C 329.65626,475.67056 370.0939,435.12102 390.4375,438.9375 C 398.60841,440.47037 401.8474,447.07088 405.6875,470.125 C 411.3439,504.08393 426.34145,522.14062 458.78125,533.96875 C 470.73394,538.32696 480.56115,545.08983 510.46875,569.53125 C 525.81356,582.07157 536.82664,578.29467 550.15625,587.46875 C 558.89973,593.48643 560.59063,590.17036 560.8125,574.03125 C 560.99521,560.74059 552.41811,546.09178 539.4375,547.4375 C 531.98477,548.21014 531.66255,543.73871 538.65625,539.15625 C 552.35346,530.18155 565.60624,556.13033 562.9375,586.875 C 561.87404,599.12708 564.71971,601.69283 567.40625,593.46875 C 568.66716,591.72314 571.50679,584.4019 571.78125,576.3125 C 570.94476,563.98059 573.31213,565.19089 573.46875,579.6875 C 573.51969,584.39859 572.30625,591.48851 570.65625,595.4375 C 566.90596,604.41323 566.8839,604.125 571.625,604.125 C 575.95426,604.125 576.33554,629.37355 584.84686,617.19313 C 591.5425,607.61112 607.33688,609.1426 605.05783,618.65254 C 600.84845,636.21729 615.8307,602.125 627.625,602.125 C 635.97944,602.125 636.75875,598.97145 630.65625,589.75 C 623.34949,578.70861 617.7246,561.75143 616.25,546.3125 C 614.76052,530.71854 617.87125,531.01625 621.40625,546.8125 C 625.03406,563.02287 635.0952,590.34943 639.75,596.65625 C 645.28935,604.16161 643.16539,605.37779 630.96875,604.78592 C 622.69488,604.38441 616.95034,610.28049 620.52814,612.32818 C 622.17815,613.27254 628.05625,610.30588 634.65625,611.0625 C 641.70096,611.87013 652.43735,615.17531 660.65625,619.09375 C 675.13906,625.99852 679.1144,626.97289 684.5,624.90625 C 689.91955,622.82663 688.06905,618.31241 675.53125,602.96875 C 661.2116,585.44438 661.00115,585.36027 662.78125,597.625 C 663.53969,602.85 663.74775,606.675 663.21875,606.125 C 662.07838,604.93922 636.47825,528.9224 628.53125,503.125 C 620.02067,475.49815 607.3839,444.67551 600.375,434.40625 C 600.10545,434.01125 596.91955,435.81125 593.28125,438.40625 C 584.22389,444.86631 572.2439,443.61225 558.65625,437.375 C 534.76982,426.41021 543.40516,428.85734 555.125,433 C 572.26446,439.0584 584.58342,439.99464 592.46875,431.5625 C 574.43319,425.61061 571.05182,423.45371 580.125,425.90625 C 584.23397,427.01692 595.08543,428.31049 602.6875,429.0625 C 621.88516,430.96158 635.09109,423.39661 621.34375,419.75 C 596.35521,413.12153 599.97558,414.07767 630.90625,418.9375 C 642.67845,420.78716 647.99905,418.06832 652.15625,415.3125 C 658.67406,410.9918 659.37145,406.125 653.46875,406.125 C 647.19826,406.12501 628.81815,400.41678 624.46875,397.125 C 619.44348,393.32174 623.09545,393.36606 633.90625,397.25 C 646.12086,401.63828 660.81356,401.85196 669.09375,399.4375 C 685.34575,394.69852 678.73211,393.49818 670.4375,388.90625 C 645.88748,375.31522 639.36415,372.14463 674.84375,387.09375 C 686.00506,391.79648 704.3161,390.9909 713.875,387.9375 C 738.05331,380.2142 738.7023,375.69598 716.1875,372.0625 C 703.39402,369.99788 686.53691,362.04986 683.15625,360.625 C 645.92955,344.93496 689.8946,361.36 695.875,363 C 738.92467,374.80549 719.9069,361.99336 662.3125,317.625 C 647.37923,306.12101 645.82953,300.77485 649.15625,313.25 C 650.99928,320.16128 647.23917,326.50425 641.09375,330.875 C 643.37368,334.55438 646.52354,338.34248 647.28125,342.71875 C 648.4887,352.90137 636.33405,362.56852 620.65625,363.875 C 618.87636,364.02333 617.65625,366.1008 617.65625,369 C 617.65626,375.0104 611.2532,379.78824 601,381.4375 C 595.7488,382.2822 592.82605,384.01223 591.71875,386.90625 C 589.40036,392.96627 583.63915,397.4721 576.15625,399.0625 C 572.58126,399.82234 569.65625,401.12445 569.65625,401.96875 C 569.65626,404.40892 563.05485,411.284 558.28125,413.8125 C 552.92079,416.65192 536.70925,412.89086 532.09375,412.0625 C 538.61913,412.07661 543.8344,412.125 546.5,412.125 C 556.76816,408.40143 569.75197,401.89007 562.34375,396.28125 C 560.70713,395.04215 558.67802,394.35236 554.34375,392.34375 C 555.90934,392.51129 561.96835,394.65149 565.65625,394.9375 C 569.57304,395.24128 577.2373,393.9932 582.625,389 C 588.40934,383.63936 587.72843,380.97822 581.03125,379.875 C 571.32037,378.27534 569.15204,376.8042 589.15625,378.125 C 609.95162,379.49803 616.9001,366.58374 603.1875,360.5 C 594.66334,356.71813 594.65625,356.73038 607.65625,356.625 C 626.79846,356.46984 641.58649,349.17368 642.125,339.8125 C 642.29427,336.86985 641.27461,334.14041 640.40625,331.34375 C 632.86129,336.38642 622.07447,338.54863 613.46875,335.40625 C 598.85974,330.07175 578.91432,325.50699 613.8125,331.9375 C 621.25668,333.3092 634.8595,327.203 638.4375,323.625 C 645.63005,316.43249 646.4742,307.84635 639.5625,312.21875 C 636.09103,314.41487 624.29663,314.28238 618.6875,312.28125 C 591.74408,302.66881 591.46365,304.25773 622.6875,309.3125 C 630.1617,310.5225 634.2072,308.25042 637.03125,306.5625 C 642.308,303.4086 639.99091,297.82882 624.3125,289.3125 C 609.45588,281.24255 596.44663,271.06332 587.125,265.4375 C 566.6949,253.10743 558.12386,248.84089 556.40625,249.5 C 552.30236,251.07481 553.09035,254.125 557.59375,254.125 C 565.4566,254.125 569.24725,276.25275 562.53125,282.96875 C 558.68855,286.62901 553.27259,287.54221 548.1875,287.28125 C 553.8197,289.59752 563.65625,298.68158 563.65625,302.5625 C 563.65626,309.10208 556.0395,321.56083 551.25,322.84375 C 545.85952,324.28767 546.55065,324.33293 537.65625,321.59375 C 534.30569,320.55217 531.23821,319.36511 528.21875,317.65625 C 531.09662,323.04375 533.8642,333.33428 532.28125,335.84375 C 526.2861,345.34813 514.86755,349.08836 505.65625,344.5625 C 498.65626,341.12312 498.65625,341.10495 507.65625,340.03125 C 524.35216,338.03944 531.57945,329.18436 525.59375,318 C 524.4551,315.87232 524.3233,314.125 525.3125,314.125 C 528.40301,316.23693 531.70789,318.47632 535.65625,318.28125 C 551.74686,314.53585 559.89135,295.6164 548.15625,289.25 C 544.56246,287.30032 543.80775,286.23982 545.96875,286.1875 C 550.04756,285.8434 553.66207,286.3217 554.65625,282.625 C 556.32948,278.54721 556.38535,277.92458 555.96875,266.4375 C 555.7201,259.58214 554.81275,257.51293 551.65625,256.6875 C 547.14246,255.50711 546.65655,253.90594 549.84375,250.71875 C 555.5915,244.97099 547.67795,238.42354 512.65625,219.9375 C 506.05629,216.45373 498.11965,211.83692 495.03125,209.65625 C 492.50308,207.87109 490.85078,206.67935 489.6875,206.84375 z M 507.25,290.5 C 507.38238,290.48029 507.51419,290.48812 507.65625,290.5 C 507.8186,290.51357 507.98438,290.56772 508.15625,290.625 C 513.55416,292.42428 510.9381,302.77144 503.875,307.53125 C 495.52289,313.15972 491.35215,313.31387 486.65625,308.125 C 483.11966,304.21712 483.15665,304.12501 488.53125,304.125 C 495.05024,304.125 505.65625,297.11677 505.65625,292.8125 C 505.65626,291.53638 506.32337,290.63796 507.25,290.5 z M 474.1875,309.28125 C 475.29201,309.10363 475.33446,311.12633 474.40625,317.4375 C 472.94206,327.39289 458.54285,330.39202 450.28125,323.28125 C 447.19495,320.62484 445.3442,317.78275 446.1875,316.9375 C 447.03089,316.09224 448.79215,316.44833 450.09375,317.75 C 453.68984,321.34611 458.3548,320.619 466.3125,315.21875 C 470.32812,312.49367 472.93573,309.48257 474.1875,309.28125 z M 576.28125,332.25 C 576.7821,332.29696 577.75543,333.487 579.71875,335.84375 C 590.73156,349.06309 576.77123,366.23748 561.375,358.40625 C 552.70958,353.99866 551.37558,349.75637 559.15625,351.3125 C 565.85947,352.65313 575.59828,343.34276 575.71875,335.46875 C 575.75201,333.29919 575.78043,332.20305 576.28125,332.25 z M 493.875,348.28125 C 494.91668,348.22111 496.22197,349.43675 497.59375,352 C 502.83767,361.79817 493.7703,383.55158 487.1875,376.96875 C 486.63629,376.41749 487.38535,372.64755 488.84375,368.5625 C 490.30205,364.47749 491.5142,358.20001 491.5625,354.625 C 491.61774,350.5339 492.53569,348.35858 493.875,348.28125 z M 544.9375,356.875 C 546.21359,356.77686 547.65628,360.57288 547.65625,366.1875 C 547.65623,376.99155 533.18538,386.00246 522.28125,381.96875 C 514.15263,378.96178 512.49188,372.20137 520.15625,373.3125 C 528.56005,374.53082 542.39853,366.89302 543.3125,360.53125 C 543.66858,358.0525 544.2691,356.92642 544.9375,356.875 z M 466.28125,364.625 C 467.13034,364.44704 468.40954,365.64396 470.34375,367.78125 C 475.67506,373.67226 473.6629,390.15686 467.3125,392.59375 C 465.25611,393.38288 464.65625,390.30373 464.65625,378.875 C 464.65626,369.03089 464.86611,364.92161 466.28125,364.625 z M 402.53125,366.34375 C 403.02276,366.34178 403.6504,366.39218 404.40625,366.5 C 414.07235,367.87906 413.02795,391.82968 403.21875,393.71875 C 400.33956,394.27322 400.21775,393.58256 402.21875,388.28125 C 403.90416,383.81616 403.93975,380.04185 402.34375,374.0625 C 400.66836,367.78578 400.40137,366.3523 402.53125,366.34375 z M 449.40625,374.21875 C 450.30876,374.19693 451.66288,374.94413 453.25,376.53125 C 459.36261,382.64388 454.38375,400.12501 446.53125,400.125 C 443.66235,400.125 441.66905,399.45001 442.09375,398.625 C 447.25785,388.59284 449.6273,381.12666 448.625,377.96875 C 447.85157,375.53185 448.24588,374.24681 449.40625,374.21875 z M 355.4375,376.75 C 361.91267,376.37449 371.13412,389.97253 368.4375,397 C 366.19791,402.83607 362.19575,400.13281 359.65625,391.0625 C 358.26195,386.08243 355.6486,381.18349 353.875,380.1875 C 350.96129,378.55132 351.0021,378.2585 354.1875,377.03125 C 354.59055,376.87597 355.00582,376.77504 355.4375,376.75 z M 423.65625,384.3125 C 424.51869,384.19336 425.68164,384.96289 427.25,386.53125 C 434.02461,393.30588 428.9707,412.12501 420.375,412.125 C 416.12401,412.125 416.0284,411.84223 418.75,406.625 C 420.32799,403.6 421.64945,397.30001 421.65625,392.625 C 421.66419,387.16136 422.21884,384.51108 423.65625,384.3125 z M 379.09375,386.125 C 379.55248,386.10953 380.0862,386.12501 380.6875,386.125 C 386.68959,386.125 388.4307,389.6204 388.5625,401.90625 C 388.6881,413.6212 384.46025,414.92168 382.65625,403.71875 C 381.89435,398.9875 379.97595,393.10001 378.40625,390.625 C 376.05494,386.91757 375.88267,386.23327 379.09375,386.125 z M 488.75,388.34375 C 489.39948,388.37369 490.62887,389.34762 492.53125,391.25 C 499.89044,398.60913 494.56475,416.12501 484.96875,416.125 C 478.91274,416.125 478.8971,416.11787 483.25,412.0625 C 488.42749,407.23894 490.57215,400.01143 488.84375,393.125 C 488.02385,389.85815 487.91495,388.30526 488.75,388.34375 z M 512.125,391.25 C 512.17097,391.22999 512.2215,391.24172 512.28125,391.25 C 513.02486,391.35303 514.87746,393.72164 518.6875,400.15625 C 527.20177,414.5356 512.5291,435.94641 500.875,427.125 C 494.06789,422.55701 495.01255,424.39789 502.15625,422.3125 C 508.08712,420.58116 514.84148,404.87043 513.09375,398.1875 C 512.24569,394.94442 511.43548,391.55022 512.125,391.25 z M 346.15625,400.625 C 350.40245,400.66283 355.29733,405.91756 356.75,412.53125 C 358.55999,420.77231 354.49945,424.62631 351.71875,417.3125 C 350.57785,414.31175 349.65625,411.05978 349.65625,410.09375 C 349.65626,409.12774 347.7025,406.98651 345.3125,405.3125 C 341.41791,402.58461 341.3099,402.11369 344.375,400.9375 C 344.9433,400.71942 345.54965,400.61961 346.15625,400.625 z M 314.09375,402.125 C 319.92825,402.125 324.80505,406.95717 326.71875,414.625 C 328.61836,422.2365 325.98305,421.24451 316.90625,410.9375 C 309.31655,402.31913 309.25235,402.12501 314.09375,402.125 z M 396.75,402.15625 C 408.39471,402.32362 412.7952,412.11188 405.6875,422.09375 C 400.78659,428.97638 394.11285,430.75415 397.59375,424.25 C 400.40327,419.00043 400.1964,407.47768 397.25,404.53125 C 395.93001,403.21126 395.705,402.14124 396.75,402.15625 z M 368.09375,407.5625 C 368.22586,407.54601 368.3523,407.55562 368.5,407.5625 C 369.91789,407.62854 372.04864,408.76739 374.53125,411.25 C 380.07234,416.79105 376.9702,434.12501 370.4375,434.125 C 369.9162,434.125 370.05805,430.97985 370.78125,427.125 C 371.69976,422.22896 371.1273,418.62495 368.875,415.1875 C 365.91461,410.6693 366.11205,407.8098 368.09375,407.5625 z M 465.1875,409.125 C 466.49775,409.226 467.65625,412.08947 467.65625,417.09375 C 467.65626,427.29494 452.5741,442.47605 448.6875,436.1875 C 448.15469,435.32531 450.72915,431.43018 454.40625,427.53125 C 458.08345,423.63235 461.65205,417.61478 462.34375,414.15625 C 463.04445,410.65259 464.16842,409.04645 465.1875,409.125 z M 437.1875,417.90625 C 437.71631,417.87692 438.08215,418.38647 438.4375,419.3125 C 442.74439,430.53611 429.4021,443.32154 418.125,438.78125 C 416.53269,438.14019 418.01645,436.15398 422.09375,433.40625 C 425.66035,431.00268 430.51985,426.13496 432.90625,422.59375 C 435.03244,419.4388 436.30615,417.95514 437.1875,417.90625 z M 336.34375,424.125 C 338.01164,424.125 341.2202,426.47667 343.5,429.375 C 347.79711,434.83777 349.15775,444.12501 345.65625,444.125 C 344.55626,444.125 343.65625,442.39686 343.65625,440.28125 C 343.65626,438.16562 341.31655,433.66564 338.46875,430.28125 C 334.63516,425.72522 334.09835,424.12501 336.34375,424.125 z M 526.84375,424.53125 C 527.67039,424.54018 528.5357,426.88872 529.625,433.8125 C 530.36967,438.54552 516.41655,450.12501 510.84375,450.125 C 505.77685,450.125 505.87813,449.91221 513.875,442.6875 C 518.3938,438.60507 522.92118,433.00531 523.96875,430.25 C 525.01118,427.50822 525.90692,424.52114 526.84375,424.53125 z M 313.34375,427.9375 C 314.8564,427.86089 317.53765,429.17531 320.84375,432.28125 C 325.61656,436.76502 327.51435,446.12501 323.65625,446.125 C 322.55626,446.125 321.65885,445.45001 321.65625,444.625 C 321.65366,443.8 318.95855,439.97501 315.65625,436.125 C 311.39882,431.16138 311.13295,428.04948 313.34375,427.9375 z M 490.8125,435.0625 C 491.14924,435.11362 491.40182,436.23439 491.4375,438.125 C 491.64421,449.0867 467.75125,462.36895 462.65625,454.125 C 460.96956,451.39582 463.25365,448.12501 466.84375,448.125 C 471.23095,448.125 489.1254,438.64177 490.3125,435.6875 C 490.48937,435.24731 490.65944,435.03927 490.8125,435.0625 z M 559.40625,443.5 C 560.02357,443.43973 559.9517,445.14559 559.65625,448.75 C 558.93831,457.50938 542.72548,466.70909 538.65625,460.125 C 537.97643,459.025 538.81958,458.12501 540.53125,458.125 C 542.24307,458.125 548.98684,456.73564 552.5625,452 C 556.68596,446.53892 558.61258,443.57751 559.40625,443.5 z M 445.59375,457.75 C 445.80891,457.74036 445.97835,457.73719 446.15625,457.75 C 448.52829,457.92089 447.58119,460.02524 443.28125,464.03125 C 437.32384,469.5814 423.65265,469.6147 418.65625,464.09375 C 413.94364,458.88644 415.4297,457.63486 422.9375,460.46875 C 427.7301,462.27774 430.8691,462.09873 438.3125,459.5625 C 441.64179,458.42811 444.08763,457.81745 445.59375,457.75 z M 524.90625,464.34375 C 525.65857,464.28764 525.65628,464.86957 525.65625,465.90625 C 525.65623,473.34377 509.08345,481.2249 500.28125,477.96875 C 492.55525,475.11073 492.9864,472.12501 501.125,472.125 C 505.3573,472.125 512.34108,470.32501 516.65625,468.125 C 521.72448,465.54106 523.93901,464.41591 524.90625,464.34375 z M 478.40625,473.25 C 480.34955,473.48144 477.60618,477.30701 473.9375,480.28125 C 469.24428,484.08613 466.30935,484.56867 458.65625,482.6875 C 449.74288,480.0541 445.68295,469.75366 453.78125,476.34375 C 460.27538,477.80423 468.3776,478.75327 474.75,474.40625 C 476.58043,473.52025 477.75848,473.17286 478.40625,473.25 z M 551.375,474.03125 C 552.76674,473.96353 550.93658,477.69133 545.15625,483.46875 C 540.11163,488.51086 535.96208,489.66136 531.15625,488.59375 C 526.82983,487.6326 526.51014,484.09479 530.75,484.125 C 532.46534,484.13722 541.13027,483.51905 544.21875,480.0625 C 547.95108,475.88542 550.42279,474.07759 551.375,474.03125 z M 614.59375,485.90625 C 615.67022,485.26025 626.19211,522.23366 635.625,553.625 C 641.63132,573.61319 639.7969,575.67193 631.8125,557.90625 C 624.98043,542.7047 614.2589,495.19297 614.5,486.28125 C 614.50596,486.06233 614.54081,485.93802 614.59375,485.90625 z M 430.84375,487.3125 C 431.81314,487.29901 433.5355,487.94095 436.59375,489.21875 C 440.40834,490.81262 446.25835,492.12501 449.59375,492.125 C 456.68194,492.125 457.66855,495.09854 451.15625,496.84375 C 444.94966,498.50708 443.58205,498.35257 436.15625,495.125 C 432.58126,493.57117 429.65625,490.95949 429.65625,489.3125 C 429.65626,487.99212 429.87436,487.326 430.84375,487.3125 z M 507.90625,490.59375 C 510.69571,490.55752 505.29055,497.84124 499.1875,499.96875 C 491.72501,502.5702 488.03945,502.52483 482.15625,499.6875 C 475.7362,492.43921 472.80182,489.0799 487.15625,494.75 C 492.01752,496.67023 499.54684,495.30357 502.09375,493.53125 C 505.11495,491.42889 506.97643,490.60584 507.90625,490.59375 z M 258.6875,524.21875 C 253.70203,524.40561 249.78439,526.72132 251.65625,529.75 C 253.37805,532.53595 257.97365,532.68941 265.03125,529.90625 C 271.37674,527.52496 269.43535,526.92931 265.71875,525.40625 C 263.45478,524.47851 260.95362,524.13382 258.6875,524.21875 z "
         style="fill:#000000"
         id="Body" />
    </g>
    <g
       transform="matrix(0.2124568,-0.2531961,0.2531961,0.2124568,1.2911852,193.81763)"
       id="O-II-shield">
      <path
         d="M 433.09351,31.142356 L 333.50007,31.142356 L 233.90658,31.142356 L 233.90658,170.4334 C 233.2906,245.67684 298.36663,273.05298 333.50005,273.05298 C 368.01749,273.05298 433.70948,245.67684 433.09351,170.4334 L 433.09351,31.142356 z "
         style="fill:#003d8f;stroke:none"
         id="use2422" />
      <g
         transform="translate(262.53693,42.809809)"
         style="fill:#ffcd50;stroke:#003d8f;stroke-width:0.5"
         id="Monogram">
        <g
           id="O-II">
          <g
             id="g10992">
            <path
               d="M 64.421742,64.893655 L 64.421742,90.976549 L 68.836939,90.976549 L 68.836939,63.481912 L 64.421742,64.893655 z "
               id="path6110" />
            <path
               d="M 75.965637,61.830728 L 75.965637,90.190334 L 80.372484,90.190334 L 80.372484,60.295758 L 75.965637,61.830728 z "
               id="path7081" />
            <path
               d="M 77.337729,143.37745 L 77.337729,166.27797 L 79.903501,166.27797 L 79.903501,142.13795 L 77.337729,143.37745 z "
               id="path7083" />
            <path
               d="M 65.339546,143.9588 L 65.339546,166.85932 L 67.905318,166.85932 L 67.905318,142.7193 L 65.339546,143.9588 z "
               id="path7085" />
          </g>
          <g
             transform="translate(-101.63384,70.532716)"
             id="II">
            <path
               d="M 155.44714,19.325788 L 171.44607,19.325788 L 171.44607,21.546237 L 169.59493,21.546237 L 169.59493,71.629675 L 171.44607,71.629675 L 171.44607,74.343555 L 155.44714,74.343555 L 155.44714,71.629675 L 157.29827,71.629675 L 157.29827,21.546237 L 155.44714,21.546237 L 155.44714,19.325788 z "
               id="path2222" />
            <path
               d="M 177.12174,18.824061 L 193.12067,18.824061 L 193.12067,21.04451 L 191.26953,21.04451 L 191.26953,71.127948 L 193.12067,71.127948 L 193.12067,73.841828 L 177.12174,73.841828 L 177.12174,71.127948 L 178.97287,71.127948 L 178.97287,21.04451 L 177.12174,21.04451 L 177.12174,18.824061 z "
               id="path3195" />
          </g>
          <path
             d="M 73.207195,54.394425 C 75.672049,51.124022 79.104123,51.147355 80.151134,54.839826 C 93.068633,50.892901 109.64009,55.374933 116.65479,63.601587 C 125.10102,73.507107 121.82036,149.24693 122.70939,162.53319 C 131.25437,165.83892 129.15075,176.25607 125.23362,178.76161 C 121.22798,181.32376 114.04132,180.51805 108.14796,174.50825 C 102.4553,168.69914 103.72014,147.5782 103.53262,133.47031 C 100.36657,126.54393 95.824109,130.79505 93.948062,131.43165 C 92.305612,129.67034 96.435149,125.27067 96.435149,125.27067 C 94.205596,124.05684 94.871941,121.24018 94.871941,121.24018 C 96.399131,118.16958 105.32725,122.74126 105.32725,122.74126 L 105.98729,111.97258 C 104.0711,109.91772 99.583207,114.42326 95.980415,113.89508 C 94.11375,110.42198 97.567038,109.12261 97.567038,109.12261 C 92.255641,109.11664 92.981417,103.79534 92.981417,103.79534 C 97.097446,107.91496 102.21435,106.16098 102.21435,106.16098 C 105.96365,105.56609 108.22806,78.674965 100.15768,67.466161 C 94.474259,59.572564 82.794341,61.905325 79.957874,61.806273 C 74.263379,65.616289 70.573291,57.889127 73.207195,54.394425 z "
             id="path2161" />
          <path
             d="M 98.739866,185.50191 C 97.535721,192.3254 102.37526,196.15027 107.36957,195.73714 C 114.9307,195.11169 118.26131,184.55478 112.98891,179.2805 C 106.9761,173.26553 100.93743,163.36581 70.643156,164.83076 C 46.16359,166.01453 29.339912,179.07293 24.082894,186.30467 C 21.529312,189.81747 23.918809,195.91313 27.896019,195.93783 C 32.07392,195.96252 32.035102,192.02662 31.909835,189.91711 C 58.746948,169.29185 98.943233,184.3495 98.739866,185.50191 z "
             id="path4166" />
          <path
             d="M 62.013452,60.270859 C 62.013452,60.270859 60.756944,67.342986 67.231413,67.337403 C 72.502327,67.332858 76.143121,52.909393 63.016906,52.8453 C 11.640065,52.594436 24.684966,110.84494 25.086348,122.28431 C 25.086348,122.28431 10.837302,124.89329 13.646973,132.11816 C 16.779291,131.35862 21.825123,128.25486 26.290493,138.33957 C 30.361009,147.53253 30.83925,158.81284 29.100164,168.44319 C 26.931223,180.4539 23.006146,170.28708 19.667697,176.06944 C 18.237534,178.54656 18.728895,186.31949 32.311216,178.47773 C 52.295925,166.93955 44.553354,146.5679 42.747137,108.03527 C 44.754045,109.31364 51.17615,107.4332 51.17615,105.82767 C 53.985821,102.41593 45.155426,107.03181 43.750591,97.599345 C 43.829753,95.428542 38.733321,60.872931 62.013452,60.270859 z "
             id="path5137" />
          <path
             d="M 120.19762,169.86604 C 120.45376,169.31106 121.07209,169.93751 121.12003,170.29177 C 121.24994,171.25179 120.16581,171.81323 119.34616,171.71087 C 117.87998,171.52777 117.12645,169.92722 117.43038,168.58885 C 117.87641,166.62475 120.05267,165.65586 121.90054,166.17639 C 124.36345,166.87017 125.55288,169.64033 124.80968,171.99469 C 123.87445,174.95743 120.50274,176.36945 117.64324,175.40052 C 114.17999,174.22703 112.5443,170.24982 113.74072,166.88593 C 115.15066,162.9217 119.73565,161.06172 123.60346,162.48674"
             style="fill:none;stroke-width:0.80000001"
             id="path8060" />
          <path
             d="M 105.72281,182.56534 C 106.50781,182.25587 107.30298,182.88907 107.50802,183.6313 C 107.84399,184.84745 106.88163,185.99438 105.72281,186.24077 C 104.02595,186.60156 102.47993,185.26038 102.1984,183.6313 C 101.81431,181.40875 103.57643,179.42359 105.72281,179.11116 C 108.51209,178.70513 110.97193,180.92535 111.31217,183.6313 C 111.33005,183.77351 111.34244,183.91641 111.34936,184.05958"
             transform="matrix(-1.3493632,0,0,1.3493632,248.47048,-62.301763)"
             style="fill:none;stroke-width:0.80000001"
             id="path8062" />
          <path
             d="M 66.248928,63.062667 C 66.204448,63.681195 65.474265,63.929645 64.956325,63.766883 C 64.126591,63.506141 63.818657,62.517218 64.128103,61.757183 C 64.547288,60.727618 65.806665,60.358341 66.780862,60.80283 C 67.392204,61.081762 67.846803,61.637095 68.027197,62.281417"
             transform="matrix(-1.688051,0,0,1.688051,176.48388,-44.335674)"
             style="fill:none;stroke-width:0.40000001"
             id="path9035" />
        </g>
        <g
           transform="matrix(0.5119751,0,0,0.4906692,36.451992,-1.8395865)"
           id="krona">
          <path
             d="M 66.59375,53.09375 C 64.954526,53.153056 63.479111,53.329036 62.15625,53.5625 C 43.339431,55.267096 34.20058,61.157944 28.15625,65.1875 C 21.209076,69.81895 21.546989,70.555822 18.875,80.53125 L 17.28125,87.65625 C 17.28125,87.65625 19.603041,91.03432 21.5625,92.28125 C 23.52196,93.528179 43.109184,90.668762 47.5625,90.3125 C 49.942721,90.122082 60.523813,86.526773 70.0625,82.78125 C 79.594102,86.522895 90.153314,90.122265 92.53125,90.3125 C 96.984564,90.668762 117.29054,94.403179 119.25,93.15625 C 121.20946,91.90932 123.71875,87.46875 123.71875,87.46875 L 121.21875,80.53125 C 118.54676,70.555822 118.88467,69.81895 111.9375,65.1875 C 105.89317,61.157944 96.754319,55.267096 77.9375,53.5625 C 76.033819,53.226531 73.82256,53.05726 71.25,53.09375 C 70.83862,53.099585 70.466374,53.115574 70.0625,53.125 C 69.648207,53.11523 69.265948,53.099739 68.84375,53.09375 C 68.058853,53.082617 67.313473,53.067711 66.59375,53.09375 z "
             id="path3712" />
          <path
             d="M 81.120874,26.264706 C 81.121703,32.093031 76.397144,36.818262 70.568819,36.818262 C 64.740494,36.818262 60.015935,32.093031 60.016764,26.264706 C 60.015935,20.436381 64.740494,15.71115 70.568819,15.71115 C 76.397144,15.71115 81.121703,20.436381 81.120874,26.264706 L 81.120874,26.264706 z "
             id="path4642" />
          <path
             d="M 67.882251,60.013519 C 66.644814,59.659966 65.760931,60.543849 65.584154,58.422529 C 65.407377,56.301209 65.760931,54.003111 65.760931,54.003111 C 65.760931,54.003111 65.230601,54.356665 64.16994,53.472781 C 63.10928,52.588898 63.63961,41.805519 62.932504,40.037753 C 62.225397,38.269986 65.295919,35.234021 65.295919,35.234021 L 67.362062,30.489885 L 73.226454,30.424566 C 73.226454,30.424566 75.083955,33.73911 76.013979,35.264782 C 76.683838,36.363663 78.139097,39.211401 78.139097,39.211401 C 78.139097,39.211401 77.604969,43.573286 77.428193,45.51783 C 77.251416,47.462374 77.074639,52.765675 77.074639,52.765675 L 75.483649,54.356665 C 75.483649,54.356665 76.367532,59.129636 75.130096,59.659966 C 73.892659,60.190296 68.766135,60.190296 68.766135,60.190296 L 67.882251,60.013519 z "
             id="path4401" />
          <path
             d="M 67.801835,58.925129 C 65.857291,57.864469 66.468038,57.538645 66.468038,52.942451 C 66.468038,48.346257 67.175144,33.497015 67.175144,32.789908 C 67.175144,32.082801 67.705474,30.491811 67.705474,30.491811 L 73.688846,30.587479 C 73.688846,30.587479 75.130096,57.008315 74.599766,58.068975 C 74.069435,59.129636 68.155388,58.925129 67.801835,58.925129 z "
             id="path4399" />
          <path
             d="M 72.994574,55.564894 C 72.994574,56.816437 71.922389,57.831012 70.599782,57.831012 C 69.277175,57.831012 68.204991,56.816437 68.204991,55.564894 C 68.204991,54.313352 69.277175,53.298776 70.599782,53.298776 C 71.922389,53.298776 72.994574,54.313352 72.994574,55.564894 z "
             id="path4499" />
          <path
             d="M 70.783168,75.872124 C 68.332575,83.490386 62.764501,87.591446 55.9375,82.46875 C 55.9375,82.46875 53.072021,86.915617 49.6875,87.09375 C 46.302979,87.271883 42.031252,81.406253 42.03125,81.40625 C 40.073725,88.554468 35.364896,90.696048 29.03125,86.5625 C 26.800316,93.197541 21.175388,89.821155 16.9375,88.53125 C 18.249262,89.810596 21.199939,92.096745 22.625,95.125 C 24.050062,98.153255 24.59375,112.21875 24.59375,112.21875 C 24.59375,112.21875 116.84375,112.21875 116.84375,112.21875 C 116.84375,112.21875 117.38744,98.153255 118.8125,95.125 C 120.23757,92.096745 123.12526,89.873575 124.5,88.53125 C 119.75795,91.3927 115.35147,91.840786 112.375,86.5625 C 112.375,86.562502 109.80694,89.315058 106.34375,88.875 C 101.90273,88.310693 100.72438,84.893574 99.375,81.40625 C 99.375003,81.406253 95.103271,87.271883 91.71875,87.09375 C 88.334226,86.915617 85.5,82.46875 85.5,82.46875 C 78.501188,88.524425 73.506767,82.738919 70.783168,75.872124 z "
             id="path3303" />
          <path
             d="M 120.98352,91.39222 C 115.61163,94.648201 114.23024,90.414799 111.3125,89.84375 C 106.7603,92.477052 100.52144,90.045468 98.75,85.1875 C 94.36116,91.086943 88.396369,89.415785 84.993288,84.960121 C 83.85878,86.29126 80.010919,88.558146 77.275497,87.106952 C 74.027312,86.41631 72.482533,83.270793 70.875,80.6875 C 68.002633,88.354074 61.419599,88.646492 56.375,85.15625 C 53.556608,89.52981 47.216928,90.405488 43.78125,86.3125 C 42.022281,84.195086 40.964323,89.474456 38.4375,89.84375 C 35.694824,91.618946 32.076683,89.94103 29.6875,89.71875 C 27.615637,92.330946 24.221573,93.669875 20.4511,91.927306"
             id="path3326" />
          <path
             d="M 73.559954,79.144927 C 73.559954,79.144927 69.277354,79.144927 68.143724,79.270886 C 67.010095,79.396845 65.750507,82.04198 63.735165,82.797733 C 62.104843,83.230499 61.531346,84.251561 60.334277,83.553486 C 59.200648,82.293898 57.948287,80.14206 57.563183,76.121915 C 57.22342,72.575095 58.570854,68.564386 58.570854,68.564386 C 58.570854,68.564386 65.498589,71.33548 66.254342,72.091233 C 67.010095,72.846986 68.017765,73.980615 68.269683,73.350821 C 68.521601,72.721027 66.632218,70.201851 64.994754,68.438427 C 63.357289,66.675004 61.593865,62.014527 61.593865,62.014527 L 63.735165,61.762609 C 63.735165,61.762609 63.987083,60.880898 64.490918,60.754939 C 64.994754,60.62898 66.254342,60.377062 66.254342,60.377062 C 66.254342,60.377062 66.758177,58.109803 67.51393,57.605968 C 68.269683,57.102133 73.685913,57.228092 74.189748,57.480009 C 74.693583,57.731927 75.323377,60.754939 75.323377,60.754939 C 75.323377,60.754939 77.014704,60.790565 77.140663,61.294401 C 77.266621,61.798236 79.480018,62.392404 79.480018,62.392404 C 79.480018,62.392404 74.441665,69.823974 73.685913,70.957604 C 72.93016,72.091233 72.804201,73.854657 73.433995,73.728698 C 74.063789,73.602739 75.449336,71.965274 76.457007,70.957604 C 77.464677,69.949933 82.251113,68.438427 82.251113,68.438427 C 82.251113,68.438427 83.888577,72.212998 83.510701,76.121916 C 83.122861,80.133895 81.243442,83.427527 80.613648,83.679445 C 79.983854,83.931363 77.365314,82.919341 75.953171,81.664103 C 74.819542,80.656433 73.559954,78.89301 73.559954,79.144927 z "
             id="path3332" />
          <path
             d="M 60.743244,102.29961 C 60.74387,104.07089 59.308138,105.50713 57.536856,105.50713 C 55.765574,105.50713 54.329842,104.07089 54.330468,102.29961 C 54.329842,100.52833 55.765574,99.092091 57.536856,99.092091 C 59.308138,99.092091 60.74387,100.52833 60.743244,102.29961 z "
             id="path3688" />
          <path
             d="M 86.83968,102.29961 C 86.840306,104.07089 85.404574,105.50713 83.633292,105.50713 C 81.86201,105.50713 80.426278,104.07089 80.426904,102.29961 C 80.426278,100.52833 81.86201,99.092091 83.633292,99.092091 C 85.404574,99.092091 86.840306,100.52833 86.83968,102.29961 z "
             id="path3692" />
          <path
             d="M 112.93612,102.29961 C 112.93674,104.07089 111.50101,105.50713 109.72973,105.50713 C 107.95845,105.50713 106.52271,104.07089 106.52334,102.29961 C 106.52271,100.52833 107.95845,99.092091 109.72973,99.092091 C 111.50101,99.092091 112.93674,100.52833 112.93612,102.29961 z "
             id="path3696" />
          <path
             d="M 28.234032,102.29961 C 28.233406,104.07089 29.669138,105.50713 31.44042,105.50713 C 33.211702,105.50713 34.647434,104.07089 34.646808,102.29961 C 34.647434,100.52833 33.211702,99.092091 31.44042,99.092091 C 29.669138,99.092091 28.233406,100.52833 28.234032,102.29961 z "
             id="path3700" />
          <path
             d="M 72.994574,33.417201 C 72.994574,34.668744 71.922389,35.683319 70.599782,35.683319 C 69.277175,35.683319 68.204991,34.668744 68.204991,33.417201 C 68.204991,32.165659 69.277175,31.151083 70.599782,31.151083 C 71.922389,31.151083 72.994574,32.165659 72.994574,33.417201 z "
             id="path4487" />
          <path
             d="M 72.994574,35.727083 C 72.994574,36.978626 71.922389,37.993201 70.599782,37.993201 C 69.277175,37.993201 68.204991,36.978626 68.204991,35.727083 C 68.204991,34.475541 69.277175,33.460965 70.599782,33.460965 C 71.922389,33.460965 72.994574,34.475541 72.994574,35.727083 z "
             id="path4489" />
          <path
             d="M 72.994574,38.308716 C 72.994574,39.560259 71.922389,40.574834 70.599782,40.574834 C 69.277175,40.574834 68.204991,39.560259 68.204991,38.308716 C 68.204991,37.057174 69.277175,36.042598 70.599782,36.042598 C 71.922389,36.042598 72.994574,37.057174 72.994574,38.308716 z "
             id="path4491" />
          <path
             d="M 72.994574,42.113228 C 72.994574,43.364771 71.922389,44.379346 70.599782,44.379346 C 69.277175,44.379346 68.204991,43.364771 68.204991,42.113228 C 68.204991,40.861686 69.277175,39.84711 70.599782,39.84711 C 71.922389,39.84711 72.994574,40.861686 72.994574,42.113228 z "
             id="path4493" />
          <path
             d="M 72.994574,46.461241 C 72.994574,47.712784 71.922389,48.727359 70.599782,48.727359 C 69.277175,48.727359 68.204991,47.712784 68.204991,46.461241 C 68.204991,45.209699 69.277175,44.195123 70.599782,44.195123 C 71.922389,44.195123 72.994574,45.209699 72.994574,46.461241 z "
             id="path4495" />
          <path
             d="M 72.994574,50.94513 C 72.994574,52.196673 71.922389,53.211248 70.599782,53.211248 C 69.277175,53.211248 68.204991,52.196673 68.204991,50.94513 C 68.204991,49.693588 69.277175,48.679012 70.599782,48.679012 C 71.922389,48.679012 72.994574,49.693588 72.994574,50.94513 z "
             id="path4497" />
          <path
             d="M 70.439828,0.71875 L 67,4.03125 L 68.5,5.5 L 68.5,7.8125 L 66.78125,7.8125 L 64.65625,5.71875 L 61.25,9.125 L 64.65625,12.53125 L 66.5,11.09375 L 68.78125,11.09375 L 68.78125,15.40625 L 69.5,15.40625 L 71.5,15.40625 L 72.21875,15.40625 L 72.21875,11.09375 L 74.53125,11.09375 L 76.34375,12.53125 L 79.75,9.125 L 76.34375,5.71875 L 74.21875,7.8125 L 72.5,7.8125 L 72.5,5.5 L 74,4.03125 L 70.439828,0.71875 z "
             id="path4637" />
          <path
             d="M 70.439828,0.71875 L 67,4.03125 L 68.5,5.5 L 68.5,7.8125 L 66.78125,7.8125 L 64.65625,5.71875 L 61.25,9.125 L 64.65625,12.53125 L 66.5,11.09375 L 68.78125,11.09375 L 68.78125,15.40625 L 69.5,15.40625 L 71.5,15.40625 L 72.21875,15.40625 L 72.21875,11.09375 L 74.53125,11.09375 L 76.34375,12.53125 L 79.75,9.125 L 76.34375,5.71875 L 74.21875,7.8125 L 72.5,7.8125 L 72.5,5.5 L 74,4.03125 L 70.439828,0.71875 z "
             id="path4644" />
          <path
             d="M 70.53125,15.0625 C 68.832808,15.0625 67.865501,16.217375 67.59375,16.625 L 67.46875,24.375 C 67.469626,24.395896 67.468384,24.416688 67.46875,24.4375 C 66.621492,24.41865 62.490222,24.316411 61.875,24.5625 C 61.195622,24.83425 59.908935,25.792125 59.908935,25.792125 C 59.908937,25.792125 60.452437,29.649436 60.65625,30.125 C 60.860066,30.600564 61.816561,30.96875 62.15625,30.96875 C 62.415112,30.96875 66.888907,30.425248 69.494562,30.425248 C 70.308142,30.425248 71.807062,30.425248 71.807062,30.425248 C 74.412716,30.425248 79.022386,30.96875 79.28125,30.96875 C 79.620939,30.96875 80.577435,30.600564 80.78125,30.125 C 80.985063,29.649436 81.256813,25.792125 81.256814,25.792125 C 81.256814,25.792125 80.241875,24.83425 79.5625,24.5625 C 78.883123,24.290749 73.437499,24.4375 73.4375,24.4375 C 73.4375,24.4375 73.448378,16.944313 73.3125,16.46875 C 73.176625,15.993186 72.229695,15.0625 70.53125,15.0625 z "
             id="path4657" />
          <path
             d="M 69.21875,4.09375 L 69.9375,4.9281863 L 69.9375,8.9210786 L 65.8125,8.9210786 L 64.574632,7.96875 L 63.03125,9.4375 L 64.548284,10.9375 L 65.807843,9.84375 L 69.84375,9.84375 L 69.84375,14.8125 L 70.21875,14.90625 L 70.21875,15.03125 L 70.4375,14.96875 L 70.6875,15.03125 L 70.6875,14.90625 L 71.0625,14.8125 L 71.0625,9.84375 L 75.273775,9.84375 L 76.341176,10.9375 L 77.90625,9.4375 L 76.458946,7.96875 L 75.317157,8.9210786 L 71,8.9210786 L 71,4.9281863 L 71.6875,4.09375 L 70.4375,2.875 L 69.21875,4.09375 z "
             id="path4649" />
          <path
             d="M 72.247258,16.228959 C 72.247258,17.089947 71.509658,17.787916 70.599781,17.787916 C 69.689905,17.787916 68.952305,17.089947 68.952305,16.228959 C 68.952305,15.36797 69.689905,14.670001 70.599781,14.670001 C 71.509658,14.670001 72.247258,15.36797 72.247258,16.228959 z "
             id="path4682" />
          <path
             d="M 72.247258,18.810592 C 72.247258,19.67158 71.509658,20.369549 70.599781,20.369549 C 69.689905,20.369549 68.952305,19.67158 68.952305,18.810592 C 68.952305,17.949603 69.689905,17.251634 70.599781,17.251634 C 71.509658,17.251634 72.247258,17.949603 72.247258,18.810592 z "
             id="path4680" />
          <path
             d="M 72.247258,21.120475 C 72.247258,21.981463 71.509658,22.679432 70.599781,22.679432 C 69.689905,22.679432 68.952305,21.981463 68.952305,21.120475 C 68.952305,20.259486 69.689905,19.561517 70.599781,19.561517 C 71.509658,19.561517 72.247258,20.259486 72.247258,21.120475 z "
             id="path4678" />
          <path
             d="M 60.368903,27.723654 C 60.368903,28.684247 61.191834,29.462961 62.206971,29.462961 C 63.222107,29.462961 64.045038,28.684247 64.045038,27.723654 C 64.045038,26.763062 63.222107,25.984347 62.206971,25.984347 C 61.191834,25.984347 60.368903,26.763062 60.368903,27.723654 z "
             id="path4670" />
          <path
             d="M 81.10241,27.723654 C 81.10241,28.684247 80.279479,29.462961 79.264342,29.462961 C 78.249206,29.462961 77.426275,28.684247 77.426275,27.723654 C 77.426275,26.763062 78.249206,25.984347 79.264342,25.984347 C 80.279479,25.984347 81.10241,26.763062 81.10241,27.723654 z "
             id="path4668" />
          <path
             d="M 78.337939,27.311924 C 78.337939,28.272517 77.515008,29.051231 76.499871,29.051231 C 75.484735,29.051231 74.661804,28.272517 74.661804,27.311924 C 74.661804,26.351332 75.484735,25.572617 76.499871,25.572617 C 77.515008,25.572617 78.337939,26.351332 78.337939,27.311924 z "
             id="path4666" />
          <path
             d="M 75.632287,27.135468 C 75.632287,28.096061 74.809356,28.874775 73.794219,28.874775 C 72.779083,28.874775 71.956152,28.096061 71.956152,27.135468 C 71.956152,26.174876 72.779083,25.396161 73.794219,25.396161 C 74.809356,25.396161 75.632287,26.174876 75.632287,27.135468 z "
             id="path4664" />
          <path
             d="M 63.133374,27.311924 C 63.133374,28.272517 63.956305,29.051231 64.971442,29.051231 C 65.986578,29.051231 66.809509,28.272517 66.809509,27.311924 C 66.809509,26.351332 65.986578,25.572617 64.971442,25.572617 C 63.956305,25.572617 63.133374,26.351332 63.133374,27.311924 z "
             id="path4672" />
          <path
             d="M 69.601082,27.135468 C 69.601082,28.096061 68.778151,28.874775 67.763014,28.874775 C 66.747878,28.874775 65.924947,28.096061 65.924947,27.135468 C 65.924947,26.174876 66.747878,25.396161 67.763014,25.396161 C 68.778151,25.396161 69.601082,26.174876 69.601082,27.135468 z "
             id="path4526" />
          <path
             d="M 72.247258,23.323906 C 72.247258,24.184894 71.509658,24.882863 70.599781,24.882863 C 69.689905,24.882863 68.952305,24.184894 68.952305,23.323906 C 68.952305,22.462917 69.689905,21.764948 70.599781,21.764948 C 71.509658,21.764948 72.247258,22.462917 72.247258,23.323906 z "
             id="path4530" />
          <path
             d="M 72.786889,26.451356 C 72.786889,27.594361 71.807687,28.520951 70.599781,28.520951 C 69.391874,28.520951 68.412672,27.594361 68.412672,26.451356 C 68.412672,25.30835 69.391874,24.381761 70.599781,24.381761 C 71.807687,24.381761 72.786889,25.30835 72.786889,26.451356 z "
             id="path4532" />
          <path
             d="M 72.603197,76.178887 C 72.603197,77.209052 71.720664,78.044165 70.632004,78.044165 C 69.543345,78.044165 68.660812,77.209052 68.660812,76.178887 C 68.660812,75.148722 69.543345,74.313608 70.632004,74.313608 C 71.720664,74.313608 72.603197,75.148722 72.603197,76.178887 z "
             id="path4534" />
          <path
             d="M 88.047521,81.698694 C 88.047521,82.841699 87.068319,83.768289 85.860413,83.768289 C 84.652506,83.768289 83.673304,82.841699 83.673304,81.698694 C 83.673304,80.555688 84.652506,79.629099 85.860413,79.629099 C 87.068319,79.629099 88.047521,80.555688 88.047521,81.698694 z "
             id="path4579" />
          <path
             d="M 53.53839,81.698694 C 53.53839,82.841699 54.517592,83.768289 55.725498,83.768289 C 56.933405,83.768289 57.912607,82.841699 57.912607,81.698694 C 57.912607,80.555688 56.933405,79.629099 55.725498,79.629099 C 54.517592,79.629099 53.53839,80.555688 53.53839,81.698694 z "
             id="path4583" />
          <g
             transform="translate(-0.4995873,0)"
             id="g3458">
            <g
               transform="translate(-0.4803922,0)"
               id="g4567">
              <path
                 d="M 78.523236,37.758288 C 78.523236,38.942442 79.537689,39.902388 80.78908,39.902388 C 82.040471,39.902388 83.054924,38.942442 83.054924,37.758288 C 83.054924,36.574134 82.040471,35.614188 80.78908,35.614188 C 79.537689,35.614188 78.523236,36.574134 78.523236,37.758288 z "
                 id="path4501" />
              <path
                 d="M 75.866676,60.204624 L 75.25596,62.168304"
                 id="path4505" />
              <path
                 d="M 129.32644,70.089791 C 130.45491,59.019207 138.01216,58.702149 119.42694,45.871383 C 118.36628,44.9875 114.47719,43.573286 114.47719,43.573286 L 114.12364,38.800316 C 114.12364,38.800316 117.12884,37.739655 120.4876,38.446762 C 123.84636,39.153869 130.56387,41.805519 132.15486,43.750063 C 133.74585,45.694607 137.81172,51.705014 138.34205,53.649558 C 138.87238,55.594102 136.57428,65.84715 136.04395,66.731034 C 135.51362,67.614917 130.3871,71.504004 130.3871,71.504004 L 128.44255,69.736237 L 129.32644,70.089791 z "
                 id="path4507" />
              <path
                 d="M 112.09139,37.90109 C 112.09139,39.152633 113.16358,40.167208 114.48618,40.167208 C 115.80879,40.167208 116.88098,39.152633 116.88098,37.90109 C 116.88098,36.649548 115.80879,35.634972 114.48618,35.634972 C 113.16358,35.634972 112.09139,36.649548 112.09139,37.90109 z "
                 id="path4509" />
              <path
                 d="M 109.35067,65.670373 C 111.11844,64.609713 116.06818,60.543849 117.30562,56.831539 C 118.54306,53.119228 119.07339,47.992704 118.71983,45.694607 C 118.36628,43.39651 111.64877,37.739655 110.58811,37.209325 C 109.52745,36.678995 104.22415,35.088005 101.21894,34.911228 C 98.213738,34.734452 83.010942,37.916432 81.773506,38.269986 C 80.536069,38.623539 76.646981,42.689403 76.823758,43.750063 C 103.98436,45.828815 112.58116,34.198545 104.40092,62.134839 L 109.35067,65.670373 z "
                 id="path4511" />
              <path
                 d="M 78.530163,37.629339 C 78.530163,38.880882 79.602348,39.895457 80.924955,39.895457 C 82.247562,39.895457 83.319746,38.880882 83.319746,37.629339 C 83.319746,36.377797 82.247562,35.363221 80.924955,35.363221 C 79.602348,35.363221 78.530163,36.377797 78.530163,37.629339 z "
                 id="path4519" />
              <path
                 d="M 82.606426,36.814086 C 82.606426,38.065629 83.678611,39.080204 85.001218,39.080204 C 86.323825,39.080204 87.396009,38.065629 87.396009,36.814086 C 87.396009,35.562544 86.323825,34.547968 85.001218,34.547968 C 83.678611,34.547968 82.606426,35.562544 82.606426,36.814086 z "
                 id="path4521" />
              <path
                 d="M 86.682689,35.862958 C 86.682689,37.114501 87.754874,38.129076 89.077481,38.129076 C 90.400088,38.129076 91.472272,37.114501 91.472272,35.862958 C 91.472272,34.611416 90.400088,33.59684 89.077481,33.59684 C 87.754874,33.59684 86.682689,34.611416 86.682689,35.862958 z "
                 id="path4523" />
              <path
                 d="M 90.894827,34.91183 C 90.894827,36.163373 91.967012,37.177948 93.289619,37.177948 C 94.612226,37.177948 95.68441,36.163373 95.68441,34.91183 C 95.68441,33.660288 94.612226,32.645712 93.289619,32.645712 C 91.967012,32.645712 90.894827,33.660288 90.894827,34.91183 z "
                 id="path4525" />
              <path
                 d="M 95.242843,34.232453 C 95.242843,35.483996 96.315028,36.498571 97.637635,36.498571 C 98.960242,36.498571 100.03243,35.483996 100.03243,34.232453 C 100.03243,32.980911 98.960242,31.966335 97.637635,31.966335 C 96.315028,31.966335 95.242843,32.980911 95.242843,34.232453 z "
                 id="path4527" />
              <path
                 d="M 99.590853,34.096578 C 99.590853,35.348121 100.66304,36.362696 101.98565,36.362696 C 103.30825,36.362696 104.38044,35.348121 104.38044,34.096578 C 104.38044,32.845036 103.30825,31.83046 101.98565,31.83046 C 100.66304,31.83046 99.590853,32.845036 99.590853,34.096578 z "
                 id="path4529" />
              <path
                 d="M 104.34649,35.183581 C 104.34649,36.435124 105.41868,37.449699 106.74128,37.449699 C 108.06389,37.449699 109.13608,36.435124 109.13608,35.183581 C 109.13608,33.932039 108.06389,32.917463 106.74128,32.917463 C 105.41868,32.917463 104.34649,33.932039 104.34649,35.183581 z "
                 id="path4531" />
              <path
                 d="M 108.42275,37.629339 C 108.42275,38.880882 109.49494,39.895457 110.81754,39.895457 C 112.14015,39.895457 113.21234,38.880882 113.21234,37.629339 C 113.21234,36.377797 112.14015,35.363221 110.81754,35.363221 C 109.49494,35.363221 108.42275,36.377797 108.42275,37.629339 z "
                 id="path4533" />
              <path
                 d="M 111.27614,41.569726 C 111.27614,42.821269 112.34833,43.835844 113.67093,43.835844 C 114.99354,43.835844 116.06573,42.821269 116.06573,41.569726 C 116.06573,40.318184 114.99354,39.303608 113.67093,39.303608 C 112.34833,39.303608 111.27614,40.318184 111.27614,41.569726 z "
                 id="path4535" />
              <path
                 d="M 112.62394,46.393304 C 112.62394,47.751361 113.78738,48.852284 115.22255,48.852284 C 116.65772,48.852284 117.82115,47.751361 117.82115,46.393304 C 117.82115,45.035247 116.65772,43.934325 115.22255,43.934325 C 113.78738,43.934325 112.62394,45.035247 112.62394,46.393304 z "
                 id="path4537" />
              <path
                 d="M 112.78117,51.410301 C 112.78117,52.762927 113.93995,53.859447 115.36938,53.859447 C 116.79881,53.859447 117.95759,52.762927 117.95759,51.410301 C 117.95759,50.057676 116.79881,48.961156 115.36938,48.961156 C 113.93995,48.961156 112.78117,50.057676 112.78117,51.410301 z "
                 id="path4539" />
              <path
                 d="M 111.14026,56.244272 C 111.14026,57.495815 112.21245,58.51039 113.53505,58.51039 C 114.85766,58.51039 115.92985,57.495815 115.92985,56.244272 C 115.92985,54.99273 114.85766,53.978154 113.53505,53.978154 C 112.21245,53.978154 111.14026,54.99273 111.14026,56.244272 z "
                 id="path4541" />
              <path
                 d="M 108.28688,60.184659 C 108.28688,61.436202 109.35907,62.450777 110.68167,62.450777 C 112.00428,62.450777 113.07647,61.436202 113.07647,60.184659 C 113.07647,58.933117 112.00428,57.918541 110.68167,57.918541 C 109.35907,57.918541 108.28688,58.933117 108.28688,60.184659 z "
                 id="path4543" />
              <path
                 d="M 116.16765,37.629339 C 116.16765,38.880882 117.23984,39.895457 118.56244,39.895457 C 119.88505,39.895457 120.95724,38.880882 120.95724,37.629339 C 120.95724,36.377797 119.88505,35.363221 118.56244,35.363221 C 117.23984,35.363221 116.16765,36.377797 116.16765,37.629339 z "
                 id="path4545" />
              <path
                 d="M 120.37979,38.444591 C 120.37979,39.696134 121.45198,40.710709 122.77458,40.710709 C 124.09719,40.710709 125.16938,39.696134 125.16938,38.444591 C 125.16938,37.193049 124.09719,36.178473 122.77458,36.178473 C 121.45198,36.178473 120.37979,37.193049 120.37979,38.444591 z "
                 id="path4547" />
              <path
                 d="M 124.59193,40.346847 C 124.59193,41.59839 125.66412,42.612965 126.98672,42.612965 C 128.30933,42.612965 129.38152,41.59839 129.38152,40.346847 C 129.38152,39.095305 128.30933,38.080729 126.98672,38.080729 C 125.66412,38.080729 124.59193,39.095305 124.59193,40.346847 z "
                 id="path4549" />
              <path
                 d="M 128.53232,42.792605 C 128.53232,44.044148 129.60451,45.058723 130.92711,45.058723 C 132.24972,45.058723 133.32191,44.044148 133.32191,42.792605 C 133.32191,41.541063 132.24972,40.526487 130.92711,40.526487 C 129.60451,40.526487 128.53232,41.541063 128.53232,42.792605 z "
                 id="path4551" />
              <path
                 d="M 132.06508,46.053615 C 132.06508,47.305158 133.13727,48.319733 134.45987,48.319733 C 135.78248,48.319733 136.85467,47.305158 136.85467,46.053615 C 136.85467,44.802073 135.78248,43.787497 134.45987,43.787497 C 133.13727,43.787497 132.06508,44.802073 132.06508,46.053615 z "
                 id="path4553" />
              <path
                 d="M 134.51083,50.129878 C 134.51083,51.381421 135.58302,52.395996 136.90562,52.395996 C 138.22823,52.395996 139.30042,51.381421 139.30042,50.129878 C 139.30042,48.878336 138.22823,47.86376 136.90562,47.86376 C 135.58302,47.86376 134.51083,48.878336 134.51083,50.129878 z "
                 id="path4555" />
              <path
                 d="M 136.00546,54.342016 C 136.00546,55.593559 137.07765,56.608134 138.40025,56.608134 C 139.72286,56.608134 140.79505,55.593559 140.79505,54.342016 C 140.79505,53.090474 139.72286,52.075898 138.40025,52.075898 C 137.07765,52.075898 136.00546,53.090474 136.00546,54.342016 z "
                 id="path4557" />
              <path
                 d="M 136.14134,58.690029 C 136.14134,59.941572 137.21353,60.956147 138.53613,60.956147 C 139.85874,60.956147 140.93093,59.941572 140.93093,58.690029 C 140.93093,57.438487 139.85874,56.423911 138.53613,56.423911 C 137.21353,56.423911 136.14134,57.438487 136.14134,58.690029 z "
                 id="path4559" />
              <path
                 d="M 135.32609,62.902167 C 135.32609,64.15371 136.39828,65.168285 137.72088,65.168285 C 139.04349,65.168285 140.11568,64.15371 140.11568,62.902167 C 140.11568,61.650625 139.04349,60.636049 137.72088,60.636049 C 136.39828,60.636049 135.32609,61.650625 135.32609,62.902167 z "
                 id="path4561" />
              <path
                 d="M 133.96733,66.842554 C 133.96733,68.094097 135.03952,69.108672 136.36212,69.108672 C 137.68473,69.108672 138.75692,68.094097 138.75692,66.842554 C 138.75692,65.591012 137.68473,64.576436 136.36212,64.576436 C 135.03952,64.576436 133.96733,65.591012 133.96733,66.842554 z "
                 id="path4563" />
              <path
                 d="M 131.52157,69.560062 C 131.52157,70.811605 132.59376,71.82618 133.91636,71.82618 C 135.23897,71.82618 136.31116,70.811605 136.31116,69.560062 C 136.31116,68.30852 135.23897,67.293944 133.91636,67.293944 C 132.59376,67.293944 131.52157,68.30852 131.52157,69.560062 z "
                 id="path4565" />
            </g>
            <path
               d="M 97.582267,59.875 C 97.582267,59.874999 100.60638,60.166084 100.89477,61.03125 C 101.18316,61.896416 101.33718,61.822097 101.33718,61.822097 C 101.59285,61.9755 102.42561,60.754928 102.76977,60.5 C 103.56284,61.076778 103.9238,60.93282 104.64477,61.4375 C 106.51929,60.283945 107.45505,61.170764 108.17602,61.53125 C 108.89699,61.53125 110.11352,62.1875 110.11352,62.1875 C 110.11352,62.187498 110.44836,64.053508 110.14477,64.8125 C 110.4521,64.663162 110.9595,64.594419 111.58227,64.78125 C 113.02421,65.213836 113.58227,66.21875 113.58227,66.21875 C 113.58227,66.218748 110.54832,69.822334 109.39477,70.6875 C 108.59052,71.290688 106.29908,72.359286 104.67602,73.09375 C 104.66002,73.215131 104.66103,73.282386 104.64477,73.40625 C 103.29658,73.602873 103.62874,76.133482 104.26977,76.09375 C 104.91081,76.054017 107.26022,74.112317 108.39477,73.25 C 109.52933,72.387679 113.20727,72.3125 113.20727,72.3125 C 113.20727,72.3125 112.53991,76.089888 111.92602,79.96875 C 111.12576,85.025194 108.60042,84.386908 108.26977,87.0625 C 106.92689,88.014556 105.03066,87.371986 103.80102,85.9375 C 102.81389,84.785931 102.55475,83.128269 102.39477,83 C 102.39477,83.000001 98.785027,82.434577 97.644767,82.40625 C 96.504518,82.377926 94.899977,84.429658 92.801017,84.90625 C 91.127177,85.114826 90.529883,84.439989 89.582267,83.875 C 88.773372,82.618021 88.607876,78.853654 88.457267,76.625 C 88.369539,75.326813 88.548718,74.40946 89.363517,73.0625 C 91.480463,73.913483 91.341777,65.680336 91.988517,66.53125 C 92.635256,67.382163 99.997587,74.621242 100.33227,74.03125 C 100.47695,73.776202 100.59778,73.086608 100.58227,72.25 C 98.590655,70.384308 98.019767,68.35858 98.019767,66.78125 C 98.019767,65.195113 98.752794,62.033472 98.176017,61.3125 C 97.599238,60.591531 97.582267,59.875 97.582267,59.875 z "
               id="path4524" />
            <path
               d="M 122.19902,89.867936 C 122.46622,88.79914 121.93182,88.442874 119.0817,88.621007 C 116.23157,88.79914 115.78624,89.51167 115.51904,88.442874 C 115.25184,87.374078 116.14251,84.880221 116.23157,84.523955 C 116.32064,84.16769 115.87531,81.317567 116.40971,80.694103 C 116.9441,80.070638 118.90356,76.418919 118.99263,76.062653 C 119.0817,75.706388 119.52703,73.123464 119.52703,73.123464 C 119.52703,73.123464 123.17875,77.84398 124.15848,79.358108 C 125.13821,80.872236 126.207,81.584766 126.207,81.584766 C 126.207,81.584766 126.7414,80.605037 125.6726,79.090909 C 124.60381,77.576781 124.33661,77.309582 124.51474,75.528255 C 124.69287,73.746928 125.04914,68.224815 125.49447,68.046683 C 125.9398,67.86855 130.30405,70.896806 132.17445,70.985872 C 134.04484,71.074938 136.18243,71.342137 135.7371,71.876535 C 135.29177,72.410933 136.18243,73.925061 133.15418,74.014127 C 130.12592,74.103194 128.96806,79.53624 128.70086,80.426904 C 128.43366,81.317567 126.4742,85.681818 125.76167,86.572481 C 125.04914,87.463145 122.37715,90.046068 122.19902,89.867936 z "
               id="path3338" />
            <path
               d="M 101.89905,79.147812 C 101.89905,80.177977 101.01652,81.01309 99.927856,81.01309 C 98.839197,81.01309 97.956664,80.177977 97.956664,79.147812 C 97.956664,78.117647 98.839197,77.282533 99.927856,77.282533 C 101.01652,77.282533 101.89905,78.117647 101.89905,79.147812 z "
               id="path4573" />
            <path
               d="M 115.28485,85.755317 C 115.28485,86.898322 114.30565,87.824912 113.09774,87.824912 C 111.88983,87.824912 110.91063,86.898322 110.91063,85.755317 C 110.91063,84.612311 111.88983,83.685722 113.09774,83.685722 C 114.30565,83.685722 115.28485,84.612311 115.28485,85.755317 z "
               id="path4577" />
            <path
               d="M 126.79828,83.235784 C 125.71018,83.235784 124.82953,84.081153 124.82953,85.110784 C 124.82953,86.140418 125.49324,87.033995 126.58134,87.033994 C 127.70617,86.547866 128.34313,85.228055 128.37688,84.076003 C 128.10309,83.429371 127.65202,83.235781 126.79828,83.235784 z "
               id="path4585" />
          </g>
          <rect
             width="94.612976"
             height="2.7781951"
             x="23.197884"
             y="107.16541"
             id="rect2485" />
          <use
             transform="matrix(1.0326264,0,0,1,-1.9851432,-12)"
             id="use2487"
             x="0"
             y="0"
             width="139.76123"
             height="115.03125"
             xlink:href="#rect2485" />
          <use
             transform="matrix(-1,0,0,1,141.4056,0)"
             id="use3496"
             x="0"
             y="0"
             width="139.76123"
             height="115.03125"
             xlink:href="#g3458" />
        </g>
      </g>
    </g>
    <g
       style="fill:#ffcd50"
       id="Eagle-grabbing">
      <path
         d="M 116.99892,117.96455 C 117.32262,117.57878 118.41654,116.89109 119.42988,116.43636 C 121.56665,115.47745 122.02811,114.62459 120.9154,113.69092 C 119.77547,112.7344 117.44518,113.30747 116.66302,114.73669 C 115.45889,116.93695 115.72396,119.48399 116.99892,117.96455 z "
         id="path2273" />
      <path
         d="M 118.6875,105.46875 L 124.75,110.5625 L 126.28125,111.84375 C 126.28125,111.84375 127.68569,112.69023 126.03125,112.4375 C 125.89826,112.59596 124.67674,112.44255 123.34375,112.09375 C 120.94282,111.4655 119.0362,111.63154 118.28125,112.53125 C 117.99537,112.87192 118.24747,112.96073 119.21875,112.90625 C 121.54592,112.77564 122.71698,114.40668 121.40625,115.96875 C 120.29232,117.29625 120.35865,117.76826 121.65625,117.90625 C 122.28332,117.97293 122.9334,117.70311 123.28125,117.21875 C 123.59953,116.77559 124.07582,115.96176 124.34375,115.40625 C 124.86916,114.31698 125.76422,114.41957 128.40625,115.875 C 129.06825,116.23968 129.88794,116.35846 130.21875,116.125 C 130.49425,115.93058 130.62285,115.85618 130.625,115.90625 C 130.87316,115.59087 131.09815,115.37208 131.34375,115.21875 C 131.9965,114.58305 133.67801,114.55021 134.4375,115.1875 C 134.87712,115.55638 135.72835,115.63081 136.59375,115.40625 C 138.42219,114.93179 140.37039,116.09735 140.9375,118 C 141.33557,119.3356 142.28326,120.45968 142.65625,120.03125 C 142.76982,119.90083 143.18201,119.53801 143.59375,119.25 C 144.41241,118.67731 143.6388,117.41959 142.1875,116.25 C 140.73616,115.08038 138.62021,113.99958 136.78125,113.75 C 130.55998,112.90562 129.50841,112.50812 125.3125,109.34375 C 122.37409,107.12772 120.24194,105.88181 118.6875,105.46875 z M 126.03125,112.4375 C 126.06701,112.39489 126.0536,112.35775 126.03125,112.3125 C 126.04565,112.35242 126.06303,112.39962 126.03125,112.4375 z M 118.125,111.40625 C 117.72217,111.45441 117.39266,111.47351 117.1875,111.4375 C 117.39714,111.47465 117.70679,111.45801 118.125,111.40625 z "
         id="path2267" />
      <path
         d="M 129.6407,131.05778 C 129.80879,130.17397 130.88034,129.27748 132.04346,129.04766 C 133.68473,128.72332 134.18439,128.13294 133.82556,126.94193 C 132.8287,123.6331 127.54186,126.3056 128.3455,129.71212 C 128.75673,131.45528 129.43175,132.15659 129.6407,131.05778 z "
         id="path2275" />
      <path
         d="M 147.94353,140.91881 C 149.18174,140.6195 151.09057,138.20424 150.90317,137.17397 C 150.62661,135.65376 149.31301,135.90496 147.31978,137.85923 C 146.33257,138.82712 145.29058,139.69642 145.00424,139.79104 C 144.14355,140.07539 146.96083,141.15636 147.94353,140.91881 z "
         id="path2271" />
      <path
         d="M 137.1875,116.40625 C 136.99102,116.42531 136.74627,116.47889 136.46875,116.5625 C 135.27028,116.92357 134.63314,117.76916 134.4375,118.6875 L 136.46875,120.375 C 137.31037,121.06954 138.06959,121.78169 138.8125,122.5 C 139.32294,122.65506 139.86079,122.87996 140.28125,123.15625 C 142.01125,124.29304 137.64149,124.6693 135.5625,123.5625 C 134.03613,122.7499 132.60335,122.83876 131.8125,123.78125 C 131.19758,124.51407 131.2358,124.56221 132.3125,124.65625 C 134.87704,124.88024 135.93425,127.71792 134,129.1875 C 133.17608,129.81348 133.8155,130.21577 135.3125,130.03125 C 136.62802,129.86909 137.85333,128.75445 137.59375,127.96875 C 137.14447,126.60889 142.74145,126.69656 145.75,128.09375 C 147.11313,128.7268 148.43451,130.65278 147.96875,131.34375 C 147.8757,131.48178 147.37726,132.13319 146.875,132.8125 C 145.40144,134.80551 145.98636,137.55389 147.5,135.75 C 148.57327,134.47093 151.99935,135.3455 151.78125,136.84375 C 151.60262,138.07081 152.69631,138.18305 153.34375,137 C 154.30695,135.23995 154.16942,134.47839 152.59375,133.15625 C 150.75732,131.6153 150.32838,128.63135 151.34375,124.4375 C 152.229,120.7812 151.7952,120.37566 148.84375,122 C 145.10731,124.05639 144.35119,123.70733 138.90625,117.53125 C 138.12413,116.64411 137.77695,116.34908 137.1875,116.40625 z "
         id="path2269" />
      <path
         d="M 86.838701,104.69511 C 86.541264,102.81628 86.925563,101.94279 85.067465,101.78298 C 84.59739,101.74255 84.030048,101.73595 83.458102,102.58884 C 82.525978,103.97882 81.748299,103.87941 81.45022,103.97376 C 79.864446,104.47567 81.926523,107.12469 84.740952,108.29034 C 86.676971,109.09218 88.287857,109.0078 88.854817,108.88154 C 87.379052,107.80082 87.115632,106.29697 86.838701,104.69511 z "
         id="Beak" />
    </g>
  </g>
  <path
     d="M 249.55062,1.4395041 L 125.50012,1.4395041 L 1.449569,1.4395041 L 1.449569,174.9361 C 0.68232904,268.65698 81.739009,302.75585 125.5001,302.75585 C 168.49395,302.75585 250.31785,268.65698 249.55062,174.9361 L 249.55062,1.4395041 z "
     style="fill:none;fill-opacity:0;stroke:#000000;stroke-width:1.88832211;stroke-linecap:round"
     id="Frame" />
</svg>
