<?xml version="1.0" encoding="UTF-8" standalone="no"?>
<!-- Created with Inkscape (http://www.inkscape.org/) -->
<svg
   xmlns:dc="http://purl.org/dc/elements/1.1/"
   xmlns:cc="http://web.resource.org/cc/"
   xmlns:rdf="http://www.w3.org/1999/02/22-rdf-syntax-ns#"
   xmlns:svg="http://www.w3.org/2000/svg"
   xmlns="http://www.w3.org/2000/svg"
   xmlns:xlink="http://www.w3.org/1999/xlink"
   version="1.0"
   width="251"
   height="304.20001"
   id="svg4166">
  <defs
     id="defs4168" />
  <metadata
     id="metadata1880"><rdf:RDF><cc:Work
         rdf:about=""><dc:title>Ragunda kommunvapen</dc:title><dc:date>13-10-2007</dc:date><dc:creator><cc:Agent><dc:title>Lokal_Profil</dc:title></cc:Agent></dc:creator><cc:license
         rdf:resource="http://creativecommons.org/licenses/by-sa/2.5/" /><dc:rights><cc:Agent><dc:title>cc-by-sa-2.5</dc:title></cc:Agent></dc:rights><dc:format>image/svg+xml</dc:format><dc:type
         rdf:resource="http://purl.org/dc/dcmitype/StillImage" /></cc:Work><cc:License
         rdf:about="http://creativecommons.org/licenses/by-sa/2.5/"><cc:permits
         rdf:resource="http://web.resource.org/cc/Reproduction" /><cc:permits
         rdf:resource="http://web.resource.org/cc/Distribution" /><cc:requires
         rdf:resource="http://web.resource.org/cc/Notice" /><cc:requires
         rdf:resource="http://web.resource.org/cc/Attribution" /><cc:permits
         rdf:resource="http://web.resource.org/cc/DerivativeWorks" /><cc:requires
         rdf:resource="http://web.resource.org/cc/ShareAlike" /></cc:License></rdf:RDF>
  </metadata>
  <path
     d="M 249.55058,1.4395041 L 125.50008,1.4395041 L 1.4495291,1.4395041 L 1.4495291,174.9361 C 0.68228908,268.65698 81.738969,302.75585 125.50006,302.75585 C 168.49391,302.75585 250.31781,268.65698 249.55058,174.9361 L 249.55058,1.4395041 z "
     style="color:#000000;fill:#eeeeee;fill-opacity:1;fill-rule:nonzero;stroke:none;stroke-width:1.88832211;stroke-linecap:round;stroke-linejoin:bevel;marker:none;marker-start:none;marker-mid:none;marker-end:none;stroke-miterlimit:4;stroke-dashoffset:0;stroke-opacity:1;visibility:visible;display:block"
     id="Shield" />
  <use
     transform="matrix(-1,0,0,1,250.8499,-2.535823e-4)"
     id="Blixt-2"
     x="0"
     y="0"
     width="251"
     height="304.20001"
     xlink:href="#Blixt" />
  <path
     d="M 11.674644,15.89636 L 37.924504,41.60923 L 35.399274,33.146927 L 76.976387,55.020708 L 37.433,64.590609 L 48.401078,69.88215 L 194.443,143.57652 L 152.70133,153.47823 L 143.78529,155.59614 L 151.91411,159.85497 L 244.9179,208.91536 L 245.25922,201.67948 L 163.25175,158.05584 L 205.51823,148.00968 L 214.95856,145.77803 L 206.21438,141.5699 L 62.396368,68.958948 L 88.766779,60.726008 L 99.816729,59.567054 L 90.047039,54.265707 L 37.969522,26.709142 L 47.54343,23.865357 L 11.674644,15.89636 z "
     style="fill:#d40000;fill-opacity:1;fill-rule:evenodd;stroke:#d40000;stroke-width:2.01904926pt;marker-start:none;stroke-opacity:1"
     id="Blixt" />
  <path
     d="M 33.40625,211.1875 C 21.123695,211.18749 15.165206,216.63852 9,221.90625 C 10.973009,227.38916 13.299462,232.54635 15.90625,237.40625 C 20.29502,234.42357 25.555545,232.1875 33.40625,232.1875 C 57.143253,232.1875 57.169232,252.62497 80.90625,252.625 C 104.64326,252.625 104.638,232.18749 128.375,232.1875 C 152.11201,232.1875 152.10675,252.62497 175.84375,252.625 C 199.58075,252.625 199.54425,232.18749 223.28125,232.1875 C 228.66278,232.1875 232.81156,233.24847 236.3125,234.875 C 238.9644,229.6575 241.29305,224.0978 243.21875,218.1875 C 238.31599,214.35244 232.62762,211.1875 223.28125,211.1875 C 199.54425,211.18749 199.58075,231.625 175.84375,231.625 C 152.10675,231.62497 152.11201,211.1875 128.375,211.1875 C 104.638,211.18749 104.64326,231.625 80.90625,231.625 C 57.169232,231.62497 57.143253,211.1875 33.40625,211.1875 z "
     style="color:#000000;fill:#003d8f;fill-opacity:1;fill-rule:nonzero;stroke:none;stroke-width:2;stroke-linecap:round;stroke-linejoin:bevel;marker:none;marker-start:none;marker-mid:none;marker-end:none;stroke-miterlimit:4;stroke-dashoffset:0;stroke-opacity:1;visibility:visible;display:block"
     id="path5215" />
  <path
     d="M 33.40625,253.1875 C 30.878948,253.1875 28.642372,253.43101 26.59375,253.84375 C 42.241416,273.81375 63.21031,286.94662 83.53125,294.53125 C 104.66712,293.07794 105.55083,274.18751 128.375,274.1875 C 149.46954,274.1875 151.83017,290.31264 168.75,293.90625 C 188.7356,286.1542 209.28093,272.99687 224.65625,253.21875 C 224.20386,253.20304 223.75179,253.1875 223.28125,253.1875 C 199.54425,253.18749 199.58075,273.625 175.84375,273.625 C 152.10675,273.62499 152.11201,253.1875 128.375,253.1875 C 104.638,253.18749 104.64326,273.625 80.90625,273.625 C 57.169232,273.62499 57.143253,253.1875 33.40625,253.1875 z "
     style="color:#000000;fill:#003d8f;fill-opacity:1;fill-rule:nonzero;stroke:none;stroke-width:2;stroke-linecap:round;stroke-linejoin:bevel;marker:none;marker-start:none;marker-mid:none;marker-end:none;stroke-miterlimit:4;stroke-dashoffset:0;stroke-opacity:1;visibility:visible;display:block"
     id="Vagskura-1" />
  <g
     transform="matrix(0.366148,0,0,0.366148,36.61832,3.929695)"
     style="fill:#003d8f;fill-opacity:1;stroke:#eeeeee;stroke-width:1.36426771;stroke-miterlimit:4;stroke-dasharray:none;stroke-opacity:1"
     id="Pine">
    <path
       d="M 88.246609,259.83724 C 89.803855,262.81431 94.11495,265.2662 98.051788,266.84094 C 101.7961,268.33866 103.40483,270.10522 107.1566,271.04316 C 109.07878,271.5237 113.68958,274.30965 115.56104,275.24538 C 118.09087,276.51029 124.01656,275.94575 126.76695,275.94575 C 130.96917,275.94575 135.17139,275.94575 139.37361,275.94575 C 144.0699,275.94575 149.13382,276.30717 153.38101,275.24538 C 157.85832,274.12605 160.95574,274.25949 164.58693,272.4439 C 168.45086,270.51193 169.44575,269.68619 171.59063,267.54131 C 174.41487,264.71706 175.33308,263.25174 177.89396,259.83724 C 180.04945,256.96325 182.00213,253.722 183.49692,250.73243 C 185.20198,247.3223 188.50109,245.02788 190.50062,243.02836 C 193.1267,240.40227 195.47184,238.7575 198.20469,236.02466 C 201.16418,233.06516 204.3832,231.12207 208.71023,231.12207 C 212.47466,231.12207 214.62774,230.15015 218.51541,231.12207 C 221.02553,231.7496 220.92625,223.27009 221.31689,221.31689 C 222.0885,217.45883 222.01726,212.49937 222.01726,208.71023 C 222.01726,202.90885 221.7367,202.12634 219.91615,200.3058 C 219.28975,199.67939 212.31041,203.75848 212.21208,203.80764 C 209.25322,205.28708 204.59605,207.22146 202.40691,209.4106 C 199.72586,212.09165 197.03653,213.38023 194.00247,216.4143 C 191.10016,219.31661 188.53002,223.85734 186.99877,226.91985 C 185.08713,230.74312 182.9114,234.47078 180.69544,237.4254 C 177.99516,241.02577 175.79881,244.41718 174.39211,247.23058 C 172.77229,250.47021 169.82132,252.40959 167.38841,254.23428 C 164.04385,256.7427 160.71341,258.36507 156.88286,261.23798 C 153.50885,263.76848 150.08968,264.98475 146.37731,266.84094 C 143.55299,268.2531 137.65959,268.94205 134.47102,268.94205 C 129.80713,268.94205 127.84122,268.33651 126.76695,264.03946 C 125.96901,260.84768 128.91188,259.79342 130.96917,257.73613 C 133.44217,255.26313 134.34739,253.0808 135.87176,250.03206 C 138.01128,245.75302 135.90136,246.34772 132.36991,247.23058 C 126.87456,248.60442 126.77917,247.18172 125.36621,252.83354 C 124.4501,256.49799 122.54966,259.16702 121.164,261.93835 C 120.43922,263.3879 116.96178,254.67855 116.96178,252.83354 C 116.96178,249.99307 114.25776,247.07985 112.05919,246.53021 C 107.28191,245.33589 104.47448,246.76893 106.45623,250.73243 C 107.70109,253.22215 107.85697,256.24431 107.85697,259.83724 C 107.85697,266.4074 103.82895,262.76937 100.85327,260.53761 C 98.385095,258.68648 94.31851,256.92004 93.149199,256.33539 C 92.184041,255.85281 88.430931,259.699 88.246609,259.83724 z "
       style="fill:#003d8f;fill-opacity:1;fill-rule:evenodd;stroke:#eeeeee;stroke-width:1.36426771;stroke-linecap:butt;stroke-linejoin:miter;stroke-miterlimit:4;stroke-dasharray:none;stroke-opacity:1"
       id="path4864" />
    <path
       d="M 125.53254,203.58361 C 126.0665,205.59809 128.63879,207.82035 131.11328,209.46481 C 133.4668,211.02883 134.26575,212.35151 136.73028,213.5926 C 137.99295,214.22844 140.71314,216.69999 141.85408,217.59015 C 143.39641,218.79345 147.67561,219.56824 149.61226,220.07967 C 152.57121,220.86107 155.53016,221.64246 158.48911,222.42386 C 161.79595,223.29713 165.29336,224.44817 168.48462,224.62273 C 171.84879,224.80674 174.00459,225.46001 176.90454,225.08328 C 179.99036,224.68239 180.84695,224.38896 182.76254,223.54506 C 185.28491,222.43385 186.20834,221.75558 188.6568,220.25343 C 190.71765,218.98905 192.7051,217.47417 194.32257,216.01997 C 196.16758,214.3612 198.92418,213.64528 200.70996,212.85858 C 203.05534,211.82534 205.01746,211.30844 207.45818,210.23321 C 210.10132,209.06879 212.73514,208.54153 215.78198,209.34614 C 218.43266,210.04613 220.1324,209.88336 222.6862,211.1694 C 224.33509,211.99975 225.86753,207.06826 226.51168,206.00923 C 227.78405,203.91735 228.67107,201.03061 229.3871,198.83518 C 230.48337,195.47387 230.43368,194.96831 229.49577,193.57496 C 229.17308,193.09555 223.48783,194.16116 223.4093,194.17137 C 221.04629,194.47836 217.40146,194.73313 215.44632,195.59444 C 213.05186,196.64931 210.91469,196.89583 208.20495,198.08959 C 205.61288,199.2315 202.9451,201.38448 201.28817,202.87417 C 199.21962,204.73389 196.9832,206.48912 194.86453,207.78896 C 192.28281,209.3729 190.0954,210.92947 188.57325,212.29798 C 186.82049,213.87381 184.37612,214.44876 182.3182,215.05358 C 179.48915,215.88504 176.83749,216.20575 173.59735,217.15802 C 170.7434,217.9968 168.10599,218.06572 165.14121,218.45088 C 162.88564,218.7439 158.60567,218.04721 156.36047,217.4543 C 153.07645,216.58705 151.80659,215.87065 151.86217,213.18118 C 151.90345,211.1835 154.17486,211.11988 156.01223,210.31044 C 158.22089,209.33744 159.27068,208.24132 160.92016,206.75834 C 163.23528,204.67692 161.63722,204.62915 158.98376,204.48401 C 154.85465,204.25815 155.05633,203.4161 152.99341,206.42803 C 151.65587,208.38085 149.81333,209.5739 148.31395,210.92194 C 147.52968,211.62703 146.72686,205.93423 147.07551,204.86523 C 147.61226,203.21947 146.25876,201.02874 144.81453,200.30146 C 141.67634,198.72114 139.42872,199.0294 140.07518,201.69436 C 140.48126,203.36837 140.01993,205.1484 139.34098,207.23013 C 138.09944,211.03688 135.95062,208.18 134.27705,206.3336 C 132.88892,204.8021 130.35927,203.02246 129.64639,202.46627 C 129.05798,202.0072 125.68847,203.53779 125.53254,203.58361 z "
       style="fill:#003d8f;fill-opacity:1;fill-rule:evenodd;stroke:#eeeeee;stroke-width:1.36426771;stroke-linecap:butt;stroke-linejoin:miter;stroke-miterlimit:4;stroke-dasharray:none;stroke-opacity:1"
       id="path7485" />
    <path
       d="M 143.76764,154.64362 C 144.3016,156.6581 146.87389,158.88036 149.34838,160.52482 C 151.7019,162.08884 152.50085,163.41152 154.96538,164.65261 C 156.22805,165.28845 158.94824,167.76 160.08918,168.65016 C 161.63151,169.85346 165.91071,170.62825 167.84736,171.13968 C 170.80631,171.92108 173.76526,172.70247 176.72421,173.48387 C 180.03105,174.35714 183.52846,175.50818 186.71972,175.68274 C 190.08389,175.86675 192.23969,176.52002 195.13964,176.14329 C 198.22546,175.7424 199.08205,175.44897 200.99764,174.60507 C 203.52001,173.49386 204.44344,172.81559 206.8919,171.31344 C 208.95275,170.04906 210.9402,168.53418 212.55767,167.07998 C 214.40268,165.42121 217.15928,164.70529 218.94506,163.91859 C 221.29044,162.88535 223.25256,162.36845 225.69328,161.29322 C 228.33642,160.1288 230.97024,159.60154 234.01708,160.40615 C 236.66776,161.10614 238.3675,160.94337 240.9213,162.22941 C 242.57019,163.05976 244.10263,158.12827 244.74678,157.06924 C 246.01915,154.97736 246.90617,152.09062 247.6222,149.89519 C 248.71847,146.53388 248.66878,146.02832 247.73087,144.63497 C 247.40818,144.15556 241.72293,145.22117 241.6444,145.23138 C 239.28139,145.53837 235.63656,145.79314 233.68142,146.65445 C 231.28696,147.70932 229.14979,147.95584 226.44005,149.1496 C 223.84798,150.29151 221.1802,152.44449 219.52327,153.93418 C 217.45472,155.7939 215.2183,157.54913 213.09963,158.84897 C 210.51791,160.43291 208.3305,161.98948 206.80835,163.35799 C 205.05559,164.93382 202.61122,165.50877 200.5533,166.11359 C 197.72425,166.94505 195.07259,167.26576 191.83245,168.21803 C 188.9785,169.05681 186.34109,169.12573 183.37631,169.51089 C 181.12074,169.80391 176.84077,169.10722 174.59557,168.51431 C 171.31155,167.64706 170.04169,166.93066 170.09727,164.24119 C 170.13855,162.24351 172.40996,162.17989 174.24733,161.37045 C 176.45599,160.39745 177.50578,159.30133 179.15526,157.81835 C 181.47038,155.73693 179.87232,155.68916 177.21886,155.54402 C 173.08975,155.31816 173.29143,154.47611 171.22851,157.48804 C 169.89097,159.44086 168.04843,160.63391 166.54905,161.98195 C 165.76478,162.68704 164.96196,156.99424 165.31061,155.92524 C 165.84736,154.27948 164.49386,152.08875 163.04963,151.36147 C 159.91144,149.78115 157.66382,150.08941 158.31028,152.75437 C 158.71636,154.42838 158.25503,156.20841 157.57608,158.29014 C 156.33454,162.09689 154.18572,159.24001 152.51215,157.39361 C 151.12402,155.86211 148.59437,154.08247 147.88149,153.52628 C 147.29308,153.06721 143.92357,154.5978 143.76764,154.64362 z "
       style="fill:#003d8f;fill-opacity:1;fill-rule:evenodd;stroke:#eeeeee;stroke-width:1.36426771;stroke-linecap:butt;stroke-linejoin:miter;stroke-miterlimit:4;stroke-dasharray:none;stroke-opacity:1"
       id="path7487" />
    <path
       d="M 174.17029,109.94917 C 174.82251,111.8963 177.00889,113.85536 179.04913,115.25066 C 180.98962,116.57771 181.74949,117.81346 183.73084,118.80965 C 184.74596,119.32002 187.07356,121.51224 188.03113,122.28644 C 189.32557,123.33298 192.58955,123.69385 194.08728,124.01663 C 196.37561,124.50981 198.66394,125.00297 200.95227,125.49614 C 203.50965,126.04729 206.24345,126.85579 208.6261,126.72497 C 211.13785,126.58705 212.81578,127.02964 214.91255,126.37978 C 217.14372,125.68826 217.73981,125.31565 219.04885,124.29621 C 220.77255,122.95385 221.36891,122.19318 222.98801,120.47013 C 224.3508,119.01982 225.6273,117.32805 226.63789,115.7317 C 227.79066,113.91078 229.73809,112.93817 230.95844,111.98783 C 232.56118,110.73966 233.9464,110.04011 235.61431,108.74122 C 237.42053,107.33458 239.30125,106.56078 241.65755,107.0686 C 243.70748,107.51039 244.94387,107.18706 246.99699,108.21933 C 248.32262,108.88583 248.8262,103.84877 249.16737,102.73706 C 249.84128,100.54112 250.12865,97.59354 250.37784,95.347889 C 250.75938,91.909694 250.65805,91.413008 249.78638,90.120402 C 249.48648,89.675653 245.4176,91.274034 245.36082,91.29164 C 243.65227,91.821184 240.98898,92.421023 239.65291,93.461498 C 238.01662,94.735789 236.46739,95.183847 234.61566,96.625922 C 232.84432,98.00537 231.14613,100.39481 230.11088,102.03011 C 228.81844,104.07163 227.3885,106.02549 225.98747,107.51648 C 224.28026,109.33335 222.86119,111.08551 221.91015,112.58779 C 220.81502,114.31766 219.08052,115.12072 217.63567,115.91659 C 215.64941,117.0107 213.72912,117.58134 211.45424,118.83442 C 209.4505,119.93816 207.50859,120.25772 205.36494,120.92211 C 203.73407,121.42757 200.4795,121.14423 198.74316,120.77002 C 196.20343,120.22267 195.17269,119.63308 194.8703,116.96035 C 194.6457,114.97509 196.31757,114.69565 197.57317,113.71784 C 199.08248,112.54244 199.71895,111.35531 200.74954,109.72737 C 202.19603,107.44249 201.00796,107.54732 199.02684,107.6561 C 195.94398,107.82537 195.9856,106.97101 194.84449,110.15476 C 194.10462,112.21898 192.89419,113.57775 191.95738,115.05756 C 191.46737,115.83158 190.14648,110.26187 190.26783,109.16841 C 190.45462,107.48501 189.17373,105.44114 188.01265,104.85737 C 185.48971,103.58889 183.86667,104.1087 184.68518,106.69027 C 185.19933,108.31189 185.08547,110.12128 184.84918,112.25063 C 184.4171,116.14445 182.46288,113.51564 180.98924,111.84376 C 179.76692,110.45702 177.66862,108.93289 177.07032,108.44916 C 176.57648,108.04989 174.27977,109.88888 174.17029,109.94917 z "
       style="fill:#003d8f;fill-opacity:1;fill-rule:evenodd;stroke:#eeeeee;stroke-width:1.36426771;stroke-linecap:butt;stroke-linejoin:miter;stroke-miterlimit:4;stroke-dasharray:none;stroke-opacity:1"
       id="path7489" />
    <path
       d="M 397.24949,261.69629 C 395.69225,264.67336 391.38115,267.12525 387.44431,268.69999 C 383.7,270.19771 382.09127,271.96427 378.3395,272.90221 C 376.41732,273.38275 371.80652,276.1687 369.93506,277.10443 C 367.40523,278.36934 361.47954,277.8048 358.72915,277.8048 C 354.52693,277.8048 350.32471,277.8048 346.12249,277.8048 C 341.4262,277.8048 336.36228,278.16622 332.11509,277.10443 C 327.63778,275.9851 324.54036,276.11854 320.90917,274.30295 C 317.04524,272.37098 316.05035,271.54524 313.90547,269.40036 C 311.08123,266.57611 310.16302,265.11079 307.60214,261.69629 C 305.44665,258.8223 303.49397,255.58105 301.99918,252.59148 C 300.29412,249.18135 296.99501,246.88693 294.99548,244.88741 C 292.3694,242.26132 290.02426,240.61655 287.29141,237.88371 C 284.33192,234.92421 281.1129,232.98112 276.78587,232.98112 C 273.02144,232.98112 270.86836,232.0092 266.98069,232.98112 C 264.47057,233.60865 264.56985,225.12914 264.17921,223.17594 C 263.4076,219.31788 263.47884,214.35842 263.47884,210.56928 C 263.47884,204.7679 263.7594,203.98539 265.57995,202.16485 C 266.20635,201.53844 273.18569,205.61753 273.28402,205.66669 C 276.24288,207.14613 280.90005,209.08051 283.08919,211.26965 C 285.77024,213.9507 288.45957,215.23928 291.49363,218.27335 C 294.39594,221.17566 296.96608,225.71639 298.49733,228.7789 C 300.40897,232.60217 302.5847,236.32983 304.80066,239.28445 C 307.50094,242.88482 309.69729,246.27623 311.10399,249.08963 C 312.72381,252.32926 315.67478,254.26864 318.10769,256.09333 C 321.45225,258.60175 324.78269,260.22412 328.61324,263.09703 C 331.98725,265.62753 335.40642,266.8438 339.11879,268.69999 C 341.94311,270.11215 347.83651,270.8011 351.02508,270.8011 C 355.68897,270.8011 357.65488,270.19556 358.72915,265.89851 C 359.52709,262.70673 356.58422,261.65247 354.52693,259.59518 C 352.05393,257.12218 351.14871,254.93985 349.62434,251.89111 C 347.48482,247.61207 349.59474,248.20677 353.12619,249.08963 C 358.62154,250.46347 358.71693,249.04077 360.12989,254.69259 C 361.046,258.35704 362.94644,261.02607 364.3321,263.7974 C 365.05688,265.24695 368.53432,256.5376 368.53432,254.69259 C 368.53432,251.85212 371.23834,248.9389 373.43691,248.38926 C 378.21419,247.19494 381.02162,248.62798 379.03987,252.59148 C 377.79501,255.0812 377.63913,258.10336 377.63913,261.69629 C 377.63913,268.26645 381.66715,264.62842 384.64283,262.39666 C 387.111,260.54553 391.17759,258.77909 392.3469,258.19444 C 393.31206,257.71186 397.06517,261.55805 397.24949,261.69629 z "
       style="fill:#003d8f;fill-opacity:1;fill-rule:evenodd;stroke:#eeeeee;stroke-width:1.36426771;stroke-linecap:butt;stroke-linejoin:miter;stroke-miterlimit:4;stroke-dasharray:none;stroke-opacity:1"
       id="path8386" />
    <path
       d="M 359.96356,205.44266 C 359.4296,207.45714 356.85731,209.6794 354.38282,211.32386 C 352.0293,212.88788 351.23035,214.21056 348.76582,215.45165 C 347.50315,216.08749 344.78296,218.55904 343.64202,219.4492 C 342.09969,220.6525 337.82049,221.42729 335.88384,221.93872 C 332.92489,222.72012 329.96594,223.50151 327.00699,224.28291 C 323.70015,225.15618 320.20274,226.30722 317.01148,226.48178 C 313.64731,226.66579 311.49151,227.31906 308.59156,226.94233 C 305.50574,226.54144 304.64915,226.24801 302.73356,225.40411 C 300.21119,224.2929 299.28776,223.61463 296.8393,222.11248 C 294.77845,220.8481 292.791,219.33322 291.17353,217.87902 C 289.32852,216.22025 286.57192,215.50433 284.78614,214.71763 C 282.44076,213.68439 280.47864,213.16749 278.03792,212.09226 C 275.39478,210.92784 272.76096,210.40058 269.71412,211.20519 C 267.06344,211.90518 265.3637,211.74241 262.8099,213.02845 C 261.16101,213.8588 259.62857,208.92731 258.98442,207.86828 C 257.71205,205.7764 256.82503,202.88966 256.109,200.69423 C 255.01273,197.33292 255.06242,196.82736 256.00033,195.43401 C 256.32302,194.9546 262.00827,196.02021 262.0868,196.03042 C 264.44981,196.33741 268.09464,196.59218 270.04978,197.45349 C 272.44424,198.50836 274.58141,198.75488 277.29115,199.94864 C 279.88322,201.09055 282.551,203.24353 284.20793,204.73322 C 286.27648,206.59294 288.5129,208.34817 290.63157,209.64801 C 293.21329,211.23195 295.4007,212.78852 296.92285,214.15703 C 298.67561,215.73286 301.11998,216.30781 303.1779,216.91263 C 306.00695,217.74409 308.65861,218.0648 311.89875,219.01707 C 314.7527,219.85585 317.39011,219.92477 320.35489,220.30993 C 322.61046,220.60295 326.89043,219.90626 329.13563,219.31335 C 332.41965,218.4461 333.68951,217.7297 333.63393,215.04023 C 333.59265,213.04255 331.32124,212.97893 329.48387,212.16949 C 327.27521,211.19649 326.22542,210.10037 324.57594,208.61739 C 322.26082,206.53597 323.85888,206.4882 326.51234,206.34306 C 330.64145,206.1172 330.43977,205.27515 332.50269,208.28708 C 333.84023,210.2399 335.68277,211.43295 337.18215,212.78099 C 337.96642,213.48608 338.76924,207.79328 338.42059,206.72428 C 337.88384,205.07852 339.23734,202.88779 340.68157,202.16051 C 343.81976,200.58019 346.06738,200.88845 345.42092,203.55341 C 345.01484,205.22742 345.47617,207.00745 346.15512,209.08918 C 347.39666,212.89593 349.54548,210.03905 351.21905,208.19265 C 352.60718,206.66115 355.13683,204.88151 355.84971,204.32532 C 356.43812,203.86625 359.80763,205.39684 359.96356,205.44266 z "
       style="fill:#003d8f;fill-opacity:1;fill-rule:evenodd;stroke:#eeeeee;stroke-width:1.36426771;stroke-linecap:butt;stroke-linejoin:miter;stroke-miterlimit:4;stroke-dasharray:none;stroke-opacity:1"
       id="path8388" />
    <path
       d="M 341.72846,156.50267 C 341.1945,158.51715 338.62221,160.73941 336.14772,162.38387 C 333.7942,163.94789 332.99525,165.27057 330.53072,166.51166 C 329.26805,167.1475 326.54786,169.61905 325.40692,170.50921 C 323.86459,171.71251 319.58539,172.4873 317.64874,172.99873 C 314.68979,173.78013 311.73084,174.56152 308.77189,175.34292 C 305.46505,176.21619 301.96764,177.36723 298.77638,177.54179 C 295.41221,177.7258 293.25641,178.37907 290.35646,178.00234 C 287.27064,177.60145 286.41405,177.30802 284.49846,176.46412 C 281.97609,175.35291 281.05266,174.67464 278.6042,173.17249 C 276.54335,171.90811 274.5559,170.39323 272.93843,168.93903 C 271.09342,167.28026 268.33682,166.56434 266.55104,165.77764 C 264.20566,164.7444 262.24354,164.2275 259.80282,163.15227 C 257.15968,161.98785 254.52586,161.46059 251.47902,162.2652 C 248.82834,162.96519 247.1286,162.80242 244.5748,164.08846 C 242.92591,164.91881 241.39347,159.98732 240.74932,158.92829 C 239.47695,156.83641 238.58993,153.94967 237.8739,151.75424 C 236.77763,148.39293 236.82732,147.88737 237.76523,146.49402 C 238.08792,146.01461 243.77317,147.08022 243.8517,147.09043 C 246.21471,147.39742 249.85954,147.65219 251.81468,148.5135 C 254.20914,149.56837 256.34631,149.81489 259.05605,151.00865 C 261.64812,152.15056 264.3159,154.30354 265.97283,155.79323 C 268.04138,157.65295 270.2778,159.40818 272.39647,160.70802 C 274.97819,162.29196 277.1656,163.84853 278.68775,165.21704 C 280.44051,166.79287 282.88488,167.36782 284.9428,167.97264 C 287.77185,168.8041 290.42351,169.12481 293.66365,170.07708 C 296.5176,170.91586 299.15501,170.98478 302.11979,171.36994 C 304.37536,171.66296 308.65533,170.96627 310.90053,170.37336 C 314.18455,169.50611 315.45441,168.78971 315.39883,166.10024 C 315.35755,164.10256 313.08614,164.03894 311.24877,163.2295 C 309.04011,162.2565 307.99032,161.16038 306.34084,159.6774 C 304.02572,157.59598 305.62378,157.54821 308.27724,157.40307 C 312.40635,157.17721 312.20467,156.33516 314.26759,159.34709 C 315.60513,161.29991 317.44767,162.49296 318.94705,163.841 C 319.73132,164.54609 320.53414,158.85329 320.18549,157.78429 C 319.64874,156.13853 321.00224,153.9478 322.44647,153.22052 C 325.58466,151.6402 327.83228,151.94846 327.18582,154.61342 C 326.77974,156.28743 327.24107,158.06746 327.92002,160.14919 C 329.16156,163.95594 331.31038,161.09906 332.98395,159.25266 C 334.37208,157.72116 336.90173,155.94152 337.61461,155.38533 C 338.20302,154.92626 341.57253,156.45685 341.72846,156.50267 z "
       style="fill:#003d8f;fill-opacity:1;fill-rule:evenodd;stroke:#eeeeee;stroke-width:1.36426771;stroke-linecap:butt;stroke-linejoin:miter;stroke-miterlimit:4;stroke-dasharray:none;stroke-opacity:1"
       id="path8390" />
    <path
       d="M 311.32581,111.80822 C 310.67359,113.75535 308.48721,115.71441 306.44697,117.10971 C 304.50648,118.43676 303.74661,119.67251 301.76526,120.6687 C 300.75014,121.17907 298.42254,123.37129 297.46497,124.14549 C 296.17053,125.19203 292.90655,125.5529 291.40882,125.87568 C 289.12049,126.36886 286.83216,126.86202 284.54383,127.35519 C 281.98645,127.90634 279.25265,128.71484 276.87,128.58402 C 274.35825,128.4461 272.68032,128.88869 270.58355,128.23883 C 268.35238,127.54731 267.75629,127.1747 266.44725,126.15526 C 264.72355,124.8129 264.12719,124.05223 262.50809,122.32918 C 261.1453,120.87887 259.8688,119.1871 258.85821,117.59075 C 257.70544,115.76983 255.75801,114.79722 254.53766,113.84688 C 252.93492,112.59871 251.5497,111.89916 249.88179,110.60027 C 248.07557,109.19363 246.19485,108.41983 243.83855,108.92765 C 241.78862,109.36944 240.55223,109.04611 238.49911,110.07838 C 237.17348,110.74488 236.6699,105.70782 236.32873,104.59611 C 235.65482,102.40017 235.36745,99.45259 235.11826,97.206939 C 234.73672,93.768744 234.83805,93.272058 235.70972,91.979452 C 236.00962,91.534703 240.0785,93.133084 240.13528,93.15069 C 241.84383,93.680234 244.50712,94.280073 245.84319,95.320548 C 247.47948,96.594839 249.02871,97.042897 250.88044,98.484972 C 252.65178,99.86442 254.34997,102.25386 255.38522,103.88916 C 256.67766,105.93068 258.1076,107.88454 259.50863,109.37553 C 261.21584,111.1924 262.63491,112.94456 263.58595,114.44684 C 264.68108,116.17671 266.41558,116.97977 267.86043,117.77564 C 269.84669,118.86975 271.76698,119.44039 274.04186,120.69347 C 276.0456,121.79721 277.98751,122.11677 280.13116,122.78116 C 281.76203,123.28662 285.0166,123.00328 286.75294,122.62907 C 289.29267,122.08172 290.32341,121.49213 290.6258,118.8194 C 290.8504,116.83414 289.17853,116.5547 287.92293,115.57689 C 286.41362,114.40149 285.77715,113.21436 284.74656,111.58642 C 283.30007,109.30154 284.48814,109.40637 286.46926,109.51515 C 289.55212,109.68442 289.5105,108.83006 290.65161,112.01381 C 291.39148,114.07803 292.60191,115.4368 293.53872,116.91661 C 294.02873,117.69063 295.34962,112.12092 295.22827,111.02746 C 295.04148,109.34406 296.32237,107.30019 297.48345,106.71642 C 300.00639,105.44794 301.62943,105.96775 300.81092,108.54932 C 300.29677,110.17094 300.41063,111.98033 300.64692,114.10968 C 301.079,118.0035 303.03322,115.37469 304.50686,113.70281 C 305.72918,112.31607 307.82748,110.79194 308.42578,110.30821 C 308.91962,109.90894 311.21633,111.74793 311.32581,111.80822 z "
       style="fill:#003d8f;fill-opacity:1;fill-rule:evenodd;stroke:#eeeeee;stroke-width:1.36426771;stroke-linecap:butt;stroke-linejoin:miter;stroke-miterlimit:4;stroke-dasharray:none;stroke-opacity:1"
       id="path8392" />
    <rect
       width="42.722565"
       height="320.1413"
       x="221.31689"
       y="141.47473"
       style="fill:#003d8f;fill-opacity:1;stroke:#eeeeee;stroke-width:1.36426771;stroke-linejoin:miter;stroke-miterlimit:4;stroke-dasharray:none;stroke-opacity:1"
       id="rect8398" />
    <path
       d="M 263.44498,212.56538 C 264.869,212.87601 270.04548,213.74093 273.03904,213.38364 C 275.47116,213.09338 279.91743,210.55029 281.43017,209.27358 C 283.98408,207.11815 285.83091,206.35542 287.60934,203.46419 C 289.45231,200.468 290.05946,198.39966 290.55347,194.44149 C 291.05938,190.38805 286.33884,190.52703 284.34623,190.76484 C 282.62839,190.96987 279.45719,193.70234 278.4158,194.58122 C 276.08003,196.55256 274.77228,196.79754 272.22258,195.64761 C 271.10098,195.14177 271.70774,188.72779 271.51714,186.73326 C 271.13382,182.7219 271.55835,181.23419 270.72878,178.48325 C 269.41487,174.12625 267.24983,174.41215 264.4386,175.47095 C 262.2073,176.31135 260.25851,179.43244 258.34236,180.61601 C 255.14466,182.59116 253.21263,180.10803 251.96928,178.26803 C 250.72671,176.42918 250.42751,172.83829 249.23175,171.06871 C 247.33337,168.25936 247.37296,167.39266 243.10742,166.72773 C 240.47254,166.317 238.29887,170.04557 237.60561,171.96545 C 236.35465,175.42975 234.80157,177.76985 231.2606,179.10351 C 229.0536,179.93476 226.51738,172.8712 226.06238,172.19786 C 223.98234,169.1197 219.61772,173.47647 219.19181,173.83591 C 216.97849,175.70388 218.26375,181.09055 218.70836,182.56493 C 219.91541,186.56763 218.46901,189.30271 215.93005,190.25898 C 213.47907,191.1821 210.76405,188.10454 208.45098,187.06134 C 205.79756,185.86464 202.9739,185.4245 200.12872,185.76407 C 197.14603,186.12004 198.53773,193.63823 198.96791,195.06475 C 200.10158,198.82411 201.20269,200.19316 204.00032,203.29907 C 206.2275,205.7717 208.31886,207.70883 209.95884,208.96874 C 211.66728,210.28121 214.65974,211.79057 216.76053,212.73802 C 219.26233,213.86634 222.98947,213.70901 225.67723,214.12797 C 229.0883,214.6597 232.11129,213.98579 235.00852,212.19624 C 237.51246,210.64959 240.34653,209.75944 243.23381,209.41485 C 246.07939,209.07523 248.19204,208.83321 251.72188,209.38345 C 255.933,210.03989 259.48078,211.94745 263.44498,212.56538 z "
       style="fill:#003d8f;fill-opacity:1;fill-rule:evenodd;stroke:#eeeeee;stroke-width:1.36426771;stroke-linecap:butt;stroke-linejoin:miter;stroke-miterlimit:4;stroke-dasharray:none;stroke-opacity:1"
       id="path8396" />
    <path
       d="M 244.09375,54.34375 C 241.74288,54.44662 238.85259,55.667453 238.125,56.03125 C 238.1185,56.035159 238.09996,56.057434 238.09375,56.0625 C 238.08782,56.068705 238.06815,56.086422 238.0625,56.09375 C 238.05699,56.101633 238.03648,56.11602 238.03125,56.125 C 237.40721,57.291555 238.8125,66.568865 238.8125,68.625 C 238.8125,71.205706 238.93395,72.451622 238.53125,73.03125 C 238.13173,73.565377 237.22892,73.53125 235.3125,73.53125 C 235.30283,73.53125 235.29096,73.531504 235.28125,73.53125 C 232.80597,73.402931 229.04111,65.175966 228.3125,63.71875 C 226.34119,59.776118 226.78697,61.528962 221.3125,63.71875 C 221.49812,66.252841 223.67,70.263747 225.53125,72.125 C 227.67914,74.272878 228.10561,76.927804 231.125,78.4375 C 231.19763,78.473815 231.27032,78.524616 231.34375,78.5625 L 231.34375,150.59375 L 256.84375,150.59375 L 256.84375,79.9375 C 256.90938,79.902461 256.96475,79.876999 257.03125,79.84375 C 259.5324,78.593171 263.19502,77.306857 265.4375,75.625 C 268.96616,72.978511 270.41112,71.370125 273.15625,68.625 C 276.00837,65.772883 274.71681,61.779312 273.15625,60.21875 C 269.99401,57.056499 265.4786,58.730299 264.03125,61.625 C 262.7265,64.234504 260.22622,67.555025 258.4375,69.34375 C 255.67344,72.107811 254.45982,73.426339 251.4375,74.9375 C 250.9248,75.19385 250.46784,75.238475 250.09375,75.125 C 249.9083,75.064284 249.71749,74.946179 249.5625,74.8125 C 248.07314,73.483624 247.9375,69.054446 247.9375,67.25 C 247.9375,63.180189 248.00786,59.187683 247.21875,56.03125 C 247.12763,55.666785 246.96455,55.359049 246.75,55.125 C 246.71762,55.090984 246.65971,55.031423 246.625,55 C 246.03405,54.484347 245.10342,54.299569 244.09375,54.34375 z "
       style="fill:#003d8f;fill-opacity:1;fill-rule:evenodd;stroke:#eeeeee;stroke-width:1.36426771;stroke-linecap:butt;stroke-linejoin:miter;stroke-miterlimit:4;stroke-dasharray:none;stroke-opacity:1"
       id="path7491" />
    <path
       d="M 263.44498,155.13505 C 264.869,155.44568 270.04548,156.3106 273.03904,155.95331 C 275.47116,155.66305 279.91743,153.11996 281.43017,151.84325 C 283.98408,149.68782 285.83091,148.92509 287.60934,146.03386 C 289.45231,143.03767 290.05946,140.96933 290.55347,137.01116 C 291.05938,132.95772 286.33884,133.0967 284.34623,133.33451 C 282.62839,133.53954 279.45719,136.27201 278.4158,137.15089 C 276.08003,139.12223 274.77228,139.36721 272.22258,138.21728 C 271.10098,137.71144 271.70774,131.29746 271.51714,129.30293 C 271.13382,125.29157 271.55835,123.80386 270.72878,121.05292 C 269.41487,116.69592 267.24983,116.98182 264.4386,118.04062 C 262.2073,118.88102 260.25851,122.00211 258.34236,123.18568 C 255.14466,125.16083 253.21263,122.6777 251.96928,120.8377 C 250.72671,118.99885 250.42751,115.40796 249.23175,113.63837 C 247.33337,110.82902 247.37296,109.96232 243.10742,109.2974 C 240.47254,108.88667 238.29887,112.61524 237.60561,114.53512 C 236.35465,117.99942 234.80157,120.33952 231.2606,121.67318 C 229.0536,122.50443 226.51738,115.44087 226.06238,114.76753 C 223.98234,111.68937 219.61772,116.04614 219.19181,116.40558 C 216.97849,118.27355 218.26375,123.66022 218.70836,125.1346 C 219.91541,129.1373 218.46901,131.87238 215.93005,132.82865 C 213.47907,133.75177 210.76405,130.67421 208.45098,129.63101 C 205.79756,128.43431 202.9739,127.99417 200.12872,128.33374 C 197.14603,128.68971 198.53773,136.2079 198.96791,137.63442 C 200.10158,141.39378 201.20269,142.76283 204.00032,145.86874 C 206.2275,148.34137 208.31886,150.2785 209.95884,151.53841 C 211.66728,152.85088 214.65974,154.36024 216.76053,155.30769 C 219.26233,156.43601 222.98947,156.27868 225.67723,156.69764 C 229.0883,157.22937 232.11129,156.55546 235.00852,154.76591 C 237.51246,153.21926 240.34653,152.32911 243.23381,151.98452 C 246.07939,151.6449 248.19204,151.40288 251.72188,151.95312 C 255.933,152.60956 259.48078,154.51712 263.44498,155.13505 z "
       style="fill:#003d8f;fill-opacity:1;fill-rule:evenodd;stroke:#eeeeee;stroke-width:1.36426771;stroke-linecap:butt;stroke-linejoin:miter;stroke-miterlimit:4;stroke-dasharray:none;stroke-opacity:1"
       id="path8394" />
    <path
       d="M 264.49553,65.837878 C 265.91955,66.148515 271.09603,67.013436 274.08959,66.656147 C 276.52171,66.365886 280.96798,63.822796 282.48072,62.546083 C 285.03463,60.39065 286.88146,59.627924 288.65989,56.736695 C 290.50286,53.740502 291.11001,51.672166 291.60402,47.71399 C 292.10993,43.660557 287.38939,43.799536 285.39678,44.037345 C 283.67894,44.242376 280.50774,46.974843 279.46635,47.853723 C 277.13058,49.825058 275.82283,50.07004 273.27313,48.920114 C 272.15153,48.414275 272.75829,42.000292 272.56769,40.00576 C 272.18437,35.994404 272.6089,34.506693 271.77933,31.755753 C 270.46542,27.398755 268.30038,27.684651 265.48915,28.743449 C 263.25785,29.583851 261.30906,32.704939 259.39291,33.888509 C 256.19521,35.86366 254.26318,33.380532 253.01983,31.540534 C 251.77726,29.701686 251.47806,26.11079 250.2823,24.341209 C 248.38392,21.531859 248.42351,20.665158 244.15797,20.000236 C 241.52309,19.589506 239.34942,23.31807 238.65616,25.237956 C 237.4052,28.70225 235.85212,31.042349 232.31115,32.376014 C 230.10415,33.207266 227.56793,26.143705 227.11293,25.470362 C 225.03289,22.392204 220.66827,26.748968 220.24236,27.108408 C 218.02904,28.976387 219.3143,34.363053 219.75891,35.837435 C 220.96596,39.840136 219.51956,42.575212 216.9806,43.531482 C 214.52962,44.454603 211.8146,41.377039 209.50153,40.333844 C 206.84811,39.137143 204.02445,38.696998 201.17927,39.036569 C 198.19658,39.392547 199.58828,46.910732 200.01846,48.337256 C 201.15213,52.096608 202.25324,53.46566 205.05087,56.571577 C 207.27805,59.0442 209.36941,60.981335 211.00939,62.241245 C 212.71783,63.553717 215.71029,65.063071 217.81108,66.010526 C 220.31288,67.138838 224.04002,66.98151 226.72778,67.400474 C 230.13885,67.932204 233.16184,67.258293 236.05907,65.468743 C 238.56301,63.922097 241.39708,63.03194 244.28436,62.687349 C 247.12994,62.347729 249.24259,62.105716 252.77243,62.655956 C 256.98355,63.312396 260.53133,65.219954 264.49553,65.837878 z "
       style="fill:#003d8f;fill-opacity:1;fill-rule:evenodd;stroke:#eeeeee;stroke-width:1.36426771;stroke-linecap:butt;stroke-linejoin:miter;stroke-miterlimit:4;stroke-dasharray:none;stroke-opacity:1"
       id="path4860" />
    <path
       d="M 164.21913,205.42714 C 165.76198,205.7195 171.37041,206.53352 174.61377,206.19726 C 177.24884,205.92407 182.06614,203.53063 183.70511,202.32905 C 186.47213,200.30045 188.47308,199.5826 190.3999,196.86151 C 192.39666,194.04162 193.05448,192.095 193.58972,188.36973 C 194.13784,184.55482 189.02339,184.68562 186.8645,184.90944 C 185.00332,185.1024 181.56749,187.67408 180.4392,188.50125 C 177.90852,190.35658 176.49165,190.58714 173.72919,189.50488 C 172.514,189.02881 173.17138,182.99226 172.96488,181.11509 C 172.54957,177.33978 173.00953,175.93961 172.11073,173.35054 C 170.68719,169.24993 168.34148,169.519 165.29567,170.5155 C 162.87817,171.30644 160.76676,174.24388 158.69072,175.3578 C 155.22618,177.21673 153.13293,174.87971 151.78583,173.14799 C 150.43957,171.41735 150.11541,168.03775 148.81986,166.3723 C 146.76307,163.72826 146.80596,162.91256 142.18448,162.28677 C 139.32973,161.90021 136.97468,165.40937 136.22357,167.21628 C 134.86823,170.47672 133.18555,172.67912 129.3491,173.93431 C 126.95793,174.71664 124.21007,168.06873 123.7171,167.43501 C 121.4635,164.53798 116.73466,168.63838 116.27321,168.97667 C 113.8752,170.73473 115.26771,175.80442 115.74943,177.19205 C 117.0572,180.95921 115.4901,183.53334 112.73927,184.43334 C 110.08377,185.30214 107.14219,182.40568 104.6361,181.42387 C 101.76126,180.29759 98.701987,179.88334 95.619393,180.20293 C 92.387809,180.53796 93.895644,187.61374 94.361724,188.95633 C 95.589994,192.49446 96.782976,193.78295 99.814061,196.70611 C 102.22709,199.03323 104.49297,200.85637 106.26979,202.04214 C 108.12079,203.27739 111.36297,204.69792 113.63906,205.58963 C 116.34962,206.65154 120.38778,206.50347 123.29982,206.89778 C 126.99552,207.39822 130.27078,206.76397 133.40976,205.07972 C 136.12265,203.62409 139.19321,202.78631 142.32142,202.462 C 145.40446,202.14236 147.69339,201.91459 151.51779,202.43245 C 156.08031,203.05026 159.92414,204.84557 164.21913,205.42714 z "
       style="fill:#003d8f;fill-opacity:1;fill-rule:evenodd;stroke:#eeeeee;stroke-width:1.36426771;stroke-linecap:butt;stroke-linejoin:miter;stroke-miterlimit:4;stroke-dasharray:none;stroke-opacity:1"
       id="path4854" />
    <path
       d="M 130.96917,254.23428 C 132.65972,254.32597 138.76695,254.38594 142.17509,253.53391 C 144.94403,252.84167 149.71578,249.49507 151.2799,247.93095 C 153.92057,245.29028 155.94495,244.20381 157.58323,240.92725 C 159.28099,237.53173 159.68434,235.29495 159.68434,231.12207 C 159.68434,226.84877 154.24884,227.75345 151.98027,228.32059 C 150.02454,228.80952 146.7537,232.14642 145.67694,233.22318 C 143.26182,235.6383 141.7858,236.10243 138.67324,235.32429 C 137.30403,234.98199 137.0801,228.25135 136.57213,226.21948 C 135.55052,222.13305 135.82656,220.52613 134.47102,217.81504 C 132.32409,213.52118 129.86317,214.16583 126.76695,215.71393 C 124.30944,216.94269 122.5074,220.48443 120.46363,222.01726 C 117.05292,224.57529 114.4619,222.31886 112.75956,220.61652 C 111.05827,218.91523 110.19454,215.25003 108.55734,213.61282 C 105.95814,211.01363 105.87889,210.11097 100.85327,210.11097 C 97.74889,210.11097 95.774593,214.31716 95.250308,216.4143 C 94.30427,220.19846 92.846919,222.86877 88.946979,224.81874 C 86.516231,226.03412 82.566247,219.13838 81.94328,218.51541 C 79.095388,215.66752 74.679586,220.87652 74.239211,221.31689 C 71.950706,223.6054 74.213064,228.96867 74.939581,230.4217 C 76.911928,234.3664 75.634829,237.42796 72.838471,238.82614 C 70.139023,240.17586 66.557351,237.43095 63.733662,236.72503 C 60.494464,235.91523 57.167681,235.91523 53.928483,236.72503 C 50.532722,237.57397 53.22555,245.12434 53.928483,246.53021 C 55.780918,250.23508 57.250941,251.47335 60.932182,254.23428 C 63.862801,256.43224 66.559197,258.09834 68.636251,259.13687 C 70.800008,260.21875 74.476133,261.29721 77.04069,261.93835 C 80.094765,262.70187 84.379544,261.93835 87.546239,261.93835 C 91.565107,261.93835 94.961585,260.75415 98.051788,258.4365 C 100.72253,256.43344 103.86947,255.05606 107.1566,254.23428 C 110.39627,253.42436 112.80296,252.83354 116.96178,252.83354 C 121.92327,252.83354 126.29861,254.23428 130.96917,254.23428 z "
       style="fill:#003d8f;fill-opacity:1;fill-rule:evenodd;stroke:#eeeeee;stroke-width:1.36426771;stroke-linecap:butt;stroke-linejoin:miter;stroke-miterlimit:4;stroke-dasharray:none;stroke-opacity:1"
       id="path3979" />
    <path
       d="M 180.03825,156.16808 C 181.30023,156.41931 185.88768,157.11882 188.5406,156.82986 C 190.69597,156.59511 194.6363,154.53837 195.97691,153.50582 C 198.24021,151.7626 199.87689,151.14574 201.45295,148.80744 C 203.08621,146.38425 203.62427,144.71147 204.06207,141.51027 C 204.51041,138.23203 200.32702,138.34443 198.56115,138.53676 C 197.03878,138.70258 194.22843,140.91248 193.30554,141.62328 C 191.23556,143.21761 190.07662,143.41574 187.81705,142.48573 C 186.82308,142.07663 187.36079,136.88928 187.19188,135.27619 C 186.85218,132.03198 187.2284,130.82878 186.49323,128.60394 C 185.32883,125.08019 183.41015,125.31141 180.91881,126.16772 C 178.94141,126.8474 177.21437,129.3716 175.51626,130.32882 C 172.68242,131.92624 170.97024,129.91799 169.86837,128.42988 C 168.76719,126.9427 168.50204,124.03854 167.44234,122.60738 C 165.75998,120.3353 165.79506,119.63435 162.0149,119.09659 C 159.67984,118.76441 157.75351,121.77991 157.13914,123.33263 C 156.03053,126.1344 154.65417,128.02697 151.51613,129.10558 C 149.56026,129.77786 147.31264,124.06516 146.90941,123.52059 C 145.06606,121.03111 141.19809,124.55467 140.82064,124.84537 C 138.85918,126.35611 139.99819,130.71261 140.39221,131.90503 C 141.46191,135.14224 140.18009,137.35425 137.93004,138.12764 C 135.75796,138.87422 133.35188,136.38522 131.30201,135.54153 C 128.95052,134.57369 126.44817,134.21772 123.92674,134.49235 C 121.28345,134.78025 122.51679,140.86063 122.89802,142.01434 C 123.90269,145.05474 124.8785,146.16197 127.35779,148.6739 C 129.33154,150.67365 131.18493,152.24032 132.63829,153.25928 C 134.15233,154.32075 136.80428,155.54145 138.66602,156.30771 C 140.88314,157.22024 144.18617,157.093 146.56809,157.43184 C 149.59101,157.86188 152.27002,157.31685 154.83757,155.86954 C 157.05659,154.61868 159.56817,153.89876 162.12691,153.62007 C 164.64869,153.3454 166.52094,153.14967 169.64912,153.59468 C 173.38106,154.12558 176.52514,155.66833 180.03825,156.16808 z "
       style="fill:#003d8f;fill-opacity:1;fill-rule:evenodd;stroke:#eeeeee;stroke-width:1.36426771;stroke-linecap:butt;stroke-linejoin:miter;stroke-miterlimit:4;stroke-dasharray:none;stroke-opacity:1"
       id="path4856" />
    <path
       d="M 354.52693,256.09333 C 352.83638,256.18502 346.72915,256.24499 343.32101,255.39296 C 340.55207,254.70072 335.78032,251.35412 334.2162,249.79 C 331.57553,247.14933 329.55115,246.06286 327.91287,242.7863 C 326.21511,239.39078 325.81176,237.154 325.81176,232.98112 C 325.81176,228.70782 331.24726,229.6125 333.51583,230.17964 C 335.47156,230.66857 338.7424,234.00547 339.81916,235.08223 C 342.23428,237.49735 343.7103,237.96148 346.82286,237.18334 C 348.19207,236.84104 348.416,230.1104 348.92397,228.07853 C 349.94558,223.9921 349.66954,222.38518 351.02508,219.67409 C 353.17201,215.38023 355.63293,216.02488 358.72915,217.57298 C 361.18666,218.80174 362.9887,222.34348 365.03247,223.87631 C 368.44318,226.43434 371.0342,224.17791 372.73654,222.47557 C 374.43783,220.77428 375.30156,217.10908 376.93876,215.47187 C 379.53796,212.87268 379.61721,211.97002 384.64283,211.97002 C 387.74721,211.97002 389.72151,216.17621 390.24579,218.27335 C 391.19183,222.05751 392.64918,224.72782 396.54912,226.67779 C 398.97987,227.89317 402.92985,220.99743 403.55282,220.37446 C 406.40071,217.52657 410.81651,222.73557 411.25689,223.17594 C 413.54539,225.46445 411.28304,230.82772 410.55652,232.28075 C 408.58417,236.22545 409.86127,239.28701 412.65763,240.68519 C 415.35708,242.03491 418.93875,239.29 421.76244,238.58408 C 425.00164,237.77428 428.32842,237.77428 431.56762,238.58408 C 434.96338,239.43302 432.27055,246.98339 431.56762,248.38926 C 429.71518,252.09413 428.24516,253.3324 424.56392,256.09333 C 421.6333,258.29129 418.9369,259.95739 416.85985,260.99592 C 414.69609,262.0778 411.01997,263.15626 408.45541,263.7974 C 405.40134,264.56092 401.11656,263.7974 397.94986,263.7974 C 393.93099,263.7974 390.53452,262.6132 387.44431,260.29555 C 384.77357,258.29249 381.62663,256.91511 378.3395,256.09333 C 375.09983,255.28341 372.69314,254.69259 368.53432,254.69259 C 363.57283,254.69259 359.19749,256.09333 354.52693,256.09333 z "
       style="fill:#003d8f;fill-opacity:1;fill-rule:evenodd;stroke:#eeeeee;stroke-width:1.36426771;stroke-linecap:butt;stroke-linejoin:miter;stroke-miterlimit:4;stroke-dasharray:none;stroke-opacity:1"
       id="path8378" />
    <path
       d="M 321.27697,207.28619 C 319.73412,207.57855 314.12569,208.39257 310.88233,208.05631 C 308.24726,207.78312 303.42996,205.38968 301.79099,204.1881 C 299.02397,202.1595 297.02302,201.44165 295.0962,198.72056 C 293.09944,195.90067 292.44162,193.95405 291.90638,190.22878 C 291.35826,186.41387 296.47271,186.54467 298.6316,186.76849 C 300.49278,186.96145 303.92861,189.53313 305.0569,190.3603 C 307.58758,192.21563 309.00445,192.44619 311.76691,191.36393 C 312.9821,190.88786 312.32472,184.85131 312.53122,182.97414 C 312.94653,179.19883 312.48657,177.79866 313.38537,175.20959 C 314.80891,171.10898 317.15462,171.37805 320.20043,172.37455 C 322.61793,173.16549 324.72934,176.10293 326.80538,177.21685 C 330.26992,179.07578 332.36317,176.73876 333.71027,175.00704 C 335.05653,173.2764 335.38069,169.8968 336.67624,168.23135 C 338.73303,165.58731 338.69014,164.77161 343.31162,164.14582 C 346.16637,163.75926 348.52142,167.26842 349.27253,169.07533 C 350.62787,172.33577 352.31055,174.53817 356.147,175.79336 C 358.53817,176.57569 361.28603,169.92778 361.779,169.29406 C 364.0326,166.39703 368.76144,170.49743 369.22289,170.83572 C 371.6209,172.59378 370.22839,177.66347 369.74667,179.0511 C 368.4389,182.81826 370.006,185.39239 372.75683,186.29239 C 375.41233,187.16119 378.35391,184.26473 380.86,183.28292 C 383.73484,182.15664 386.79411,181.74239 389.87671,182.06198 C 393.10829,182.39701 391.60046,189.47279 391.13438,190.81538 C 389.90611,194.35351 388.71312,195.642 385.68204,198.56516 C 383.26901,200.89228 381.00313,202.71542 379.22631,203.90119 C 377.37531,205.13644 374.13313,206.55697 371.85704,207.44868 C 369.14648,208.51059 365.10832,208.36252 362.19628,208.75683 C 358.50058,209.25727 355.22532,208.62302 352.08634,206.93877 C 349.37345,205.48314 346.30289,204.64536 343.17468,204.32105 C 340.09164,204.00141 337.80271,203.77364 333.97831,204.2915 C 329.41579,204.90931 325.57196,206.70462 321.27697,207.28619 z "
       style="fill:#003d8f;fill-opacity:1;fill-rule:evenodd;stroke:#eeeeee;stroke-width:1.36426771;stroke-linecap:butt;stroke-linejoin:miter;stroke-miterlimit:4;stroke-dasharray:none;stroke-opacity:1"
       id="path8380" />
    <path
       d="M 305.45785,158.02713 C 304.19587,158.27836 299.60842,158.97787 296.9555,158.68891 C 294.80013,158.45416 290.8598,156.39742 289.51919,155.36487 C 287.25589,153.62165 285.61921,153.00479 284.04315,150.66649 C 282.40989,148.2433 281.87183,146.57052 281.43403,143.36932 C 280.98569,140.09108 285.16908,140.20348 286.93495,140.39581 C 288.45732,140.56163 291.26767,142.77153 292.19056,143.48233 C 294.26054,145.07666 295.41948,145.27479 297.67905,144.34478 C 298.67302,143.93568 298.13531,138.74833 298.30422,137.13524 C 298.64392,133.89103 298.2677,132.68783 299.00287,130.46299 C 300.16727,126.93924 302.08595,127.17046 304.57729,128.02677 C 306.55469,128.70645 308.28173,131.23065 309.97984,132.18787 C 312.81368,133.78529 314.52586,131.77704 315.62773,130.28893 C 316.72891,128.80175 316.99406,125.89759 318.05376,124.46643 C 319.73612,122.19435 319.70104,121.4934 323.4812,120.95564 C 325.81626,120.62346 327.74259,123.63896 328.35696,125.19168 C 329.46557,127.99345 330.84193,129.88602 333.97997,130.96463 C 335.93584,131.63691 338.18346,125.92421 338.58669,125.37964 C 340.43004,122.89016 344.29801,126.41372 344.67546,126.70442 C 346.63692,128.21516 345.49791,132.57166 345.10389,133.76408 C 344.03419,137.00129 345.31601,139.2133 347.56606,139.98669 C 349.73814,140.73327 352.14422,138.24427 354.19409,137.40058 C 356.54558,136.43274 359.04793,136.07677 361.56936,136.3514 C 364.21265,136.6393 362.97931,142.71968 362.59808,143.87339 C 361.59341,146.91379 360.6176,148.02102 358.13831,150.53295 C 356.16456,152.5327 354.31117,154.09937 352.85781,155.11833 C 351.34377,156.1798 348.69182,157.4005 346.83008,158.16676 C 344.61296,159.07929 341.30993,158.95205 338.92801,159.29089 C 335.90509,159.72093 333.22608,159.1759 330.65853,157.72859 C 328.43951,156.47773 325.92793,155.75781 323.36919,155.47912 C 320.84741,155.20445 318.97516,155.00872 315.84698,155.45373 C 312.11504,155.98463 308.97096,157.52738 305.45785,158.02713 z "
       style="fill:#003d8f;fill-opacity:1;fill-rule:evenodd;stroke:#eeeeee;stroke-width:1.36426771;stroke-linecap:butt;stroke-linejoin:miter;stroke-miterlimit:4;stroke-dasharray:none;stroke-opacity:1"
       id="path8382" />
    <path
       d="M 280.24453,110.75216 C 278.98255,111.00339 274.3951,111.7029 271.74218,111.41394 C 269.58681,111.17919 265.64648,109.12245 264.30587,108.0899 C 262.04257,106.34668 260.40589,105.72982 258.82983,103.39152 C 257.19657,100.96832 256.65851,99.295545 256.22071,96.094345 C 255.77237,92.816105 259.95576,92.928505 261.72163,93.120835 C 263.244,93.286655 266.05435,95.496555 266.97724,96.207355 C 269.04722,97.801685 270.20616,97.999815 272.46573,97.069805 C 273.4597,96.660705 272.92199,91.473355 273.0909,89.860265 C 273.4306,86.616055 273.05438,85.412855 273.78955,83.188015 C 274.95395,79.664265 276.87263,79.895485 279.36397,80.751795 C 281.34137,81.431475 283.06841,83.955675 284.76652,84.912895 C 287.60036,86.510315 289.31254,84.502065 290.41441,83.013955 C 291.51559,81.526775 291.78074,78.622615 292.84044,77.191455 C 294.5228,74.919375 294.48772,74.218425 298.26788,73.680665 C 300.60294,73.348485 302.52927,76.363985 303.14364,77.916705 C 304.25225,80.718475 305.62861,82.611045 308.76665,83.689655 C 310.72252,84.361935 312.97014,78.649235 313.37337,78.104665 C 315.21672,75.615185 319.08469,79.138745 319.46214,79.429445 C 321.4236,80.940185 320.28459,85.296685 319.89057,86.489105 C 318.82087,89.726315 320.10269,91.938325 322.35274,92.711715 C 324.52482,93.458295 326.9309,90.969295 328.98077,90.125605 C 331.33226,89.157765 333.83461,88.801795 336.35604,89.076425 C 338.99933,89.364325 337.76599,95.444705 337.38476,96.598415 C 336.38009,99.638815 335.40428,100.74605 332.92499,103.25798 C 330.95124,105.25773 329.09785,106.8244 327.64449,107.84336 C 326.13045,108.90483 323.4785,110.12553 321.61676,110.89179 C 319.39964,111.80432 316.09661,111.67708 313.71469,112.01592 C 310.69177,112.44596 308.01276,111.90093 305.44521,110.45362 C 303.22619,109.20276 300.71461,108.48284 298.15587,108.20415 C 295.63409,107.92948 293.76184,107.73375 290.63366,108.17876 C 286.90172,108.70966 283.75764,110.25241 280.24453,110.75216 z "
       style="fill:#003d8f;fill-opacity:1;fill-rule:evenodd;stroke:#eeeeee;stroke-width:1.36426771;stroke-linecap:butt;stroke-linejoin:miter;stroke-miterlimit:4;stroke-dasharray:none;stroke-opacity:1"
       id="path8384" />
    <path
       d="M 205.25157,108.89311 C 206.51355,109.14434 211.101,109.84385 213.75392,109.55489 C 215.90929,109.32014 219.84962,107.2634 221.19023,106.23085 C 223.45353,104.48763 225.09021,103.87077 226.66627,101.53247 C 228.29953,99.109275 228.83759,97.436495 229.27539,94.235295 C 229.72373,90.957055 225.54034,91.069455 223.77447,91.261785 C 222.2521,91.427605 219.44175,93.637505 218.51886,94.348305 C 216.44888,95.942635 215.28994,96.140765 213.03037,95.210755 C 212.0364,94.801655 212.57411,89.614305 212.4052,88.001215 C 212.0655,84.757005 212.44172,83.553805 211.70655,81.328965 C 210.54215,77.805215 208.62347,78.036435 206.13213,78.892745 C 204.15473,79.572425 202.42769,82.096625 200.72958,83.053845 C 197.89574,84.651265 196.18356,82.643015 195.08169,81.154905 C 193.98051,79.667725 193.71536,76.763565 192.65566,75.332405 C 190.9733,73.060325 191.00838,72.359375 187.22822,71.821615 C 184.89316,71.489435 182.96683,74.504935 182.35246,76.057655 C 181.24385,78.859425 179.86749,80.751995 176.72945,81.830605 C 174.77358,82.502885 172.52596,76.790185 172.12273,76.245615 C 170.27938,73.756135 166.41141,77.279695 166.03396,77.570395 C 164.0725,79.081135 165.21151,83.437635 165.60553,84.630055 C 166.67523,87.867265 165.39341,90.079275 163.14336,90.852665 C 160.97128,91.599245 158.5652,89.110245 156.51533,88.266555 C 154.16384,87.298715 151.66149,86.942745 149.14006,87.217375 C 146.49677,87.505275 147.73011,93.585655 148.11134,94.739365 C 149.11601,97.779765 150.09182,98.886995 152.57111,101.39893 C 154.54486,103.39868 156.39825,104.96535 157.85161,105.98431 C 159.36565,107.04578 162.0176,108.26648 163.87934,109.03274 C 166.09646,109.94527 169.39949,109.81803 171.78141,110.15687 C 174.80433,110.58691 177.48334,110.04188 180.05089,108.59457 C 182.26991,107.34371 184.78149,106.62379 187.34023,106.3451 C 189.86201,106.07043 191.73426,105.8747 194.86244,106.31971 C 198.59438,106.85061 201.73846,108.39336 205.25157,108.89311 z "
       style="fill:#003d8f;fill-opacity:1;fill-rule:evenodd;stroke:#eeeeee;stroke-width:1.36426771;stroke-linecap:butt;stroke-linejoin:miter;stroke-miterlimit:4;stroke-dasharray:none;stroke-opacity:1"
       id="path4858" />
    <path
       d="M 222.01726,444.59113 C 221.85803,445.49808 220.03072,451.18736 215.01356,453.69594 C 210.78497,455.81023 208.15705,457.89816 203.10727,457.89816 C 197.16081,457.89816 190.34248,456.81369 187.69914,462.10038 C 184.53771,468.42323 185.20855,471.01045 175.79285,466.3026 C 170.12213,463.46724 166.60638,463.58277 162.48582,467.70334 C 156.80584,473.38331 154.29775,469.68345 146.37731,467.70334 C 139.06078,465.8742 137.68079,467.6801 132.36991,469.80445 C 129.06226,471.12751 127.70073,473.88992 122.56473,472.60593 C 116.69246,471.13786 115.74743,467.61014 108.55734,471.20519 C 103.6819,473.6429 98.155792,474.30485 93.149199,476.80815 C 89.750377,478.50756 88.946979,482.21731 88.946979,485.91295 C 88.946979,491.71415 91.997672,488.21601 93.149199,485.91295 C 94.72079,482.76977 96.107316,482.33279 98.752158,481.01036 C 102.65758,479.05765 106.20395,478.51762 105.05549,483.11147 C 104.04005,487.17324 100.08892,485.65702 101.55364,491.51591 C 102.56289,495.55294 98.051788,495.04433 98.051788,499.21998 C 98.051788,503.17059 102.38057,502.30836 104.35512,501.32109 C 107.08968,499.95381 107.85697,496.82417 107.85697,493.61702 C 107.85697,489.40316 107.98713,489.47471 110.65845,485.91295 C 112.5991,483.32541 115.01237,481.55903 116.96178,479.60962 C 119.97371,476.59769 125.37413,479.44047 127.46732,481.01036 C 130.49782,483.28323 134.72437,482.34777 137.2725,481.71073 C 140.79679,480.82966 142.17509,478.68835 142.17509,484.51221 C 142.17509,487.30354 136.43043,488.99784 135.17139,491.51591 C 133.7056,494.44751 135.87176,496.32424 135.87176,499.92035 C 135.87176,503.80486 130.34338,505.13584 128.16769,506.22368 C 123.34799,508.63354 121.22337,507.3118 118.36252,511.12627 C 115.395,515.08296 120.40518,516.72923 123.2651,516.72923 C 128.08182,516.72923 127.5879,514.91802 130.96917,513.22738 C 135.01404,511.20495 135.92862,509.08202 139.37361,512.52701 C 142.59732,515.75072 136.2781,520.10142 135.17139,520.93145 C 131.28908,523.84319 129.41356,522.25134 128.16769,527.23478 C 127.10619,531.48078 132.37731,531.43515 135.17139,530.73663 C 137.93037,530.04689 140.65156,525.95683 142.17509,524.4333 C 145.27736,521.33103 147.77805,519.54254 147.77805,514.62812 C 147.77805,510.42459 145.84892,510.06949 144.2762,506.92405 C 142.73807,503.8478 142.05896,501.7856 142.87546,498.51961 C 143.54952,495.82339 147.94608,493.66609 149.87916,492.21628 C 151.62036,490.91038 152.88185,486.50887 153.38101,484.51221 C 154.25649,481.01031 160.06032,482.68019 161.78545,483.11147 C 162.84239,483.37571 160.38471,491.34682 160.38471,492.21628 C 160.38471,496.02711 162.39633,498.16165 163.18619,501.32109 C 163.78955,503.73452 158.98731,510.41923 158.2836,511.82664 C 156.26302,515.8678 160.83786,518.24326 163.18619,518.83034 C 165.02148,519.28916 165.79406,510.49998 165.98767,509.72553 C 166.63724,507.12726 169.41937,505.8039 170.18989,502.72183 C 171.22115,498.5968 169.48952,496.74034 169.48952,492.91665 C 169.48952,488.78467 170.97702,487.97069 173.69174,486.61332 C 176.61031,485.15404 177.90847,483.81184 182.79655,483.81184 C 187.74213,483.81184 188.27761,479.89886 193.3021,482.4111 C 196.75703,484.13857 191.53939,492.96378 191.20099,494.31739 C 190.04955,498.92315 187.31112,500.07653 192.60173,502.72183 C 195.0357,503.93882 197.49765,497.1322 198.20469,495.71813 C 199.9044,492.31871 200.28472,489.45696 201.70654,486.61332 C 203.3566,483.3132 206.56868,483.15192 208.71023,481.01036 C 210.95263,478.76797 213.98363,478.86801 215.71393,475.40741 C 216.35509,474.12509 223.48376,474.70704 225.51911,474.70704 C 230.00071,474.70704 231.43749,473.37582 233.22318,469.80445 C 234.96698,466.31684 234.7275,463.21505 233.92355,459.99927 C 233.13346,456.83892 230.77206,453.22925 229.02096,450.89446 C 226.76591,447.88772 225.27658,447.19859 222.01726,444.59113 z "
       style="fill:#003d8f;fill-opacity:1;fill-rule:evenodd;stroke:none;stroke-width:1.36426771;stroke-linecap:butt;stroke-linejoin:miter;stroke-miterlimit:4;stroke-dasharray:none;stroke-opacity:1"
       id="path12784" />
    <path
       d="M 263.99586,444.06378 C 264.15509,444.97073 265.9824,450.66001 270.99956,453.16859 C 275.22815,455.28288 277.85607,457.37081 282.90585,457.37081 C 288.85231,457.37081 295.67064,456.28634 298.31398,461.57303 C 301.47541,467.89588 300.80457,470.4831 310.22027,465.77525 C 315.89099,462.93989 319.40674,463.05542 323.5273,467.17599 C 329.20728,472.85596 331.71537,469.1561 339.63581,467.17599 C 346.95234,465.34685 348.33233,467.15275 353.64321,469.2771 C 356.95086,470.60016 358.31239,473.36257 363.44839,472.07858 C 369.32066,470.61051 370.26569,467.08279 377.45578,470.67784 C 382.33122,473.11555 387.85733,473.7775 392.86392,476.2808 C 396.26275,477.98021 397.06614,481.68996 397.06614,485.3856 C 397.06614,491.1868 394.01545,487.68866 392.86392,485.3856 C 391.29233,482.24242 389.90581,481.80544 387.26097,480.48301 C 383.35554,478.5303 379.80917,477.99027 380.95763,482.58412 C 381.97307,486.64589 385.9242,485.12967 384.45948,490.98856 C 383.45023,495.02559 387.96134,494.51698 387.96134,498.69263 C 387.96134,502.64324 383.63255,501.78101 381.658,500.79374 C 378.92344,499.42646 378.15615,496.29682 378.15615,493.08967 C 378.15615,488.87581 378.02599,488.94736 375.35467,485.3856 C 373.41402,482.79806 371.00075,481.03168 369.05134,479.08227 C 366.03941,476.07034 360.63899,478.91312 358.5458,480.48301 C 355.5153,482.75588 351.28875,481.82042 348.74062,481.18338 C 345.21633,480.30231 343.83803,478.161 343.83803,483.98486 C 343.83803,486.77619 349.58269,488.47049 350.84173,490.98856 C 352.30752,493.92016 350.14136,495.79689 350.14136,499.393 C 350.14136,503.27751 355.66974,504.60849 357.84543,505.69633 C 362.66513,508.10619 364.78975,506.78445 367.6506,510.59892 C 370.61812,514.55561 365.60794,516.20188 362.74802,516.20188 C 357.9313,516.20188 358.42522,514.39067 355.04395,512.70003 C 350.99908,510.6776 350.0845,508.55467 346.63951,511.99966 C 343.4158,515.22337 349.73502,519.57407 350.84173,520.4041 C 354.72404,523.31584 356.59956,521.72399 357.84543,526.70743 C 358.90693,530.95343 353.63581,530.9078 350.84173,530.20928 C 348.08275,529.51954 345.36156,525.42948 343.83803,523.90595 C 340.73576,520.80368 338.23507,519.01519 338.23507,514.10077 C 338.23507,509.89724 340.1642,509.54214 341.73692,506.3967 C 343.27505,503.32045 343.95416,501.25825 343.13766,497.99226 C 342.4636,495.29604 338.06704,493.13874 336.13396,491.68893 C 334.39276,490.38303 333.13127,485.98152 332.63211,483.98486 C 331.75663,480.48296 325.9528,482.15284 324.22767,482.58412 C 323.17073,482.84836 325.62841,490.81947 325.62841,491.68893 C 325.62841,495.49976 323.61679,497.6343 322.82693,500.79374 C 322.22357,503.20717 327.02581,509.89188 327.72952,511.29929 C 329.7501,515.34045 325.17526,517.71591 322.82693,518.30299 C 320.99164,518.76181 320.21906,509.97263 320.02545,509.19818 C 319.37588,506.59991 316.59375,505.27655 315.82323,502.19448 C 314.79197,498.06945 316.5236,496.21299 316.5236,492.3893 C 316.5236,488.25732 315.0361,487.44334 312.32138,486.08597 C 309.40281,484.62669 308.10465,483.28449 303.21657,483.28449 C 298.27099,483.28449 297.73551,479.37151 292.71102,481.88375 C 289.25609,483.61122 294.47373,492.43643 294.81213,493.79004 C 295.96357,498.3958 298.702,499.54918 293.41139,502.19448 C 290.97742,503.41147 288.51547,496.60485 287.80843,495.19078 C 286.10872,491.79136 285.7284,488.92961 284.30658,486.08597 C 282.65652,482.78585 279.44444,482.62457 277.30289,480.48301 C 275.06049,478.24062 272.02949,478.34066 270.29919,474.88006 C 269.65803,473.59774 262.52936,474.17969 260.49401,474.17969 C 256.01241,474.17969 254.57563,472.84847 252.78994,469.2771 C 251.04614,465.78949 251.28562,462.6877 252.08957,459.47192 C 252.87966,456.31157 255.24106,452.7019 256.99216,450.36711 C 259.24721,447.36037 260.73654,446.67124 263.99586,444.06378 z "
       style="fill:#003d8f;fill-opacity:1;fill-rule:evenodd;stroke:none;stroke-width:1.36426771;stroke-linecap:butt;stroke-linejoin:miter;stroke-miterlimit:4;stroke-dasharray:none;stroke-opacity:1"
       id="path13659" />
    <path
       d="M 227.9214,445.98206 C 228.07559,447.4496 226.70331,454.19581 227.24594,459.1764 C 227.66953,463.06453 228.3525,466.34245 226.98442,469.70548 C 225.43931,473.50373 225.71407,473.89261 227.13684,477.56928 C 227.81206,479.31414 221.51386,486.52106 220.5304,488.04247 C 218.37037,491.384 217.31992,493.23476 216.64166,497.60186 C 215.68484,503.76257 219.932,498.95654 221.52155,497.13992 C 223.46297,494.92114 223.97222,491.41622 225.62267,489.52998 C 228.29058,486.48093 230.39557,488.3247 231.41207,490.9515 C 232.55584,493.90723 230.97521,498.18694 230.45342,501.54657 C 229.80359,505.73065 231.57776,508.66889 230.1919,512.07564 C 228.85803,515.3546 225.55974,515.79673 222.18038,516.11664 C 218.69266,516.44679 214.78449,516.81674 211.02636,517.1725 C 207.65268,517.49186 202.38828,521.42343 201.13586,523.36092 C 198.1204,528.02578 203.5284,528.28225 205.81418,527.51369 C 209.16863,526.38581 212.79388,524.77386 215.21995,523.34072 C 218.31711,521.51116 222.00854,524.49063 223.86864,525.14809 C 227.45655,526.41626 222.92728,532.8005 222.00049,533.8597 C 220.17727,535.94339 212.72797,537.31424 209.80622,538.29664 C 205.80177,539.64306 202.91534,540.32615 201.09756,542.40362 C 198.53113,545.3367 198.05543,547.14778 199.08782,549.81559 C 200.3884,553.17655 206.92796,547.43191 207.24093,547.07423 C 209.61767,544.35795 212.69689,544.62912 215.53564,545.63252 C 219.33652,546.97598 215.41153,550.8807 214.84935,552.26268 C 214.58747,552.90644 214.52619,553.6063 214.36461,554.27812 C 213.75104,556.82925 212.19015,558.32806 211.65774,561.75608 C 211.15016,565.02419 218.46588,560.55186 219.18453,559.73053 C 220.95758,557.70419 221.46429,552.79137 221.74981,550.95295 C 222.23214,547.84734 223.3431,545.45078 225.08301,542.75918 C 227.3557,539.24337 230.0578,541.68619 230.79077,536.96671 C 231.14528,534.68422 232.9097,532.1688 233.42686,528.83893 C 234.06866,524.7065 233.90741,523.79359 237.66956,522.52863 C 241.98996,521.07596 242.45351,520.41812 244.29768,525.18379 C 245.28529,527.7359 242.90228,531.76998 243.26824,535.12904 C 243.68095,538.91722 246.03522,541.13223 246.49235,545.32816 C 246.77696,547.94049 245.85945,551.61466 245.39213,554.62358 C 244.60028,559.72201 252.90221,557.10356 254.04082,556.43094 C 256.26183,555.11894 252.34206,547.30323 252.14016,545.45004 C 251.75172,541.88465 250.3727,539.94888 249.05764,536.55056 C 248.16501,534.24384 250.52955,529.28459 250.855,527.18914 C 251.5796,522.5236 254.2659,523.82239 257.05833,525.9454 C 260.85372,528.83091 261.82784,529.40005 263.55569,533.8651 C 264.82248,537.1387 264.37519,541.58528 265.38555,544.19619 C 266.70077,547.59493 266.61037,550.16254 267.77094,553.16166 C 269.20936,556.87877 274.06951,554.62822 275.58092,553.73538 C 278.11961,552.23571 274.00403,545.95914 273.19552,544.76993 C 271.59109,542.41 271.75951,538.0539 271.43646,535.08865 C 271.229,533.18442 279.92957,539.05158 280.36834,539.49529 C 283.00184,542.15845 287.53325,542.75616 291.25,542.40432 C 295.93246,541.96107 293.55088,537.59767 291.23916,535.84015 C 288.37819,533.66504 283.82276,533.84354 281.05463,532.86512 C 278.1054,531.82268 275.62415,528.14051 272.53669,525.79322 C 270.45267,524.2088 265.39382,523.45898 262.97849,522.10237 C 258.95615,519.84318 260.05606,517.75245 261.43181,514.37055 C 262.91492,510.7247 268.08135,514.22172 269.93891,514.87828 C 273.8804,516.27145 274.6616,517.91659 279.49711,518.56912 C 285.2176,519.34108 282.02865,514.65306 281.02213,513.1726 C 279.11296,510.36445 275.1512,509.9011 272.71658,508.05015 C 269.96602,505.95899 263.3211,506.31346 259.88513,506.63873 C 255.24077,507.07837 254.41093,509.6288 249.98377,506.26297 C 247.52543,504.39396 249.18231,498.15549 249.54817,495.79989 C 250.30451,490.93 247.92385,489.49721 252.11345,487.02229 C 254.64271,485.52819 260.32869,490.23845 261.67166,490.71313 C 265.93944,492.22162 267.86719,493.62383 270.94668,491.80469 C 274.4507,489.73478 270.54542,485.53969 269.4708,484.72269 C 267.22077,483.01207 261.26816,482.76057 258.58914,481.81365 C 254.46985,480.35765 255.77814,477.81766 254.18316,473.69597 C 253.15832,471.04762 256.82977,465.66486 256.46525,462.31911 C 256.08768,458.85341 255.71009,455.38771 255.33252,451.92202 C 254.94679,448.38155 253.13996,445.46446 250.85575,443.15452 C 246.7596,439.01225 235.89626,441.54714 231.96255,444.28648"
       style="fill:#003d8f;fill-opacity:1;fill-rule:evenodd;stroke:none;stroke-width:1.31780636;stroke-linecap:butt;stroke-linejoin:miter;stroke-miterlimit:4;stroke-dasharray:none;stroke-opacity:1"
       id="path13661" />
  </g>
  <path
     d="M 249.55062,1.4395041 L 125.50012,1.4395041 L 1.449569,1.4395041 L 1.449569,174.9361 C 0.68232904,268.65698 81.739009,302.75585 125.5001,302.75585 C 168.49395,302.75585 250.31785,268.65698 249.55062,174.9361 L 249.55062,1.4395041 z "
     style="color:#000000;fill:none;fill-opacity:0;fill-rule:nonzero;stroke:#000000;stroke-width:1.88832211;stroke-linecap:round;stroke-linejoin:bevel;marker:none;marker-start:none;marker-mid:none;marker-end:none;stroke-miterlimit:4;stroke-dashoffset:0;stroke-opacity:1;visibility:visible;display:block"
     id="Frame" />
</svg>
