<?xml version="1.0" encoding="UTF-8" standalone="no"?>
<!-- Created with Inkscape (http://www.inkscape.org/) -->
<svg
   xmlns:dc="http://purl.org/dc/elements/1.1/"
   xmlns:cc="http://web.resource.org/cc/"
   xmlns:rdf="http://www.w3.org/1999/02/22-rdf-syntax-ns#"
   xmlns:svg="http://www.w3.org/2000/svg"
   xmlns="http://www.w3.org/2000/svg"
   version="1.0"
   width="251"
   height="304.20001"
   id="svg4166">
  <defs
     id="defs4168" />
  <metadata
     id="metadata1880"><rdf:RDF><cc:Work
         rdf:about=""><dc:title>Berg kommunvapen</dc:title><dc:date>22-08-2007</dc:date><dc:creator><cc:Agent><dc:title>Lokal_Profil</dc:title></cc:Agent></dc:creator><cc:license
         rdf:resource="http://creativecommons.org/licenses/by-sa/2.5/" /><dc:rights><cc:Agent><dc:title>cc-by-sa-2.5</dc:title></cc:Agent></dc:rights><dc:format>image/svg+xml</dc:format><dc:type
         rdf:resource="http://purl.org/dc/dcmitype/StillImage" /></cc:Work><cc:License
         rdf:about="http://creativecommons.org/licenses/by-sa/2.5/"><cc:permits
         rdf:resource="http://web.resource.org/cc/Reproduction" /><cc:permits
         rdf:resource="http://web.resource.org/cc/Distribution" /><cc:requires
         rdf:resource="http://web.resource.org/cc/Notice" /><cc:requires
         rdf:resource="http://web.resource.org/cc/Attribution" /><cc:permits
         rdf:resource="http://web.resource.org/cc/DerivativeWorks" /><cc:requires
         rdf:resource="http://web.resource.org/cc/ShareAlike" /></cc:License></rdf:RDF>
  </metadata>
  <path
     d="M 249.55058,1.4395041 L 125.50008,1.4395041 L 1.4495291,1.4395041 L 1.4495291,174.9361 C 0.68228908,268.65698 81.738969,302.75585 125.50006,302.75585 C 168.49391,302.75585 250.31781,268.65698 249.55058,174.9361 L 249.55058,1.4395041 z "
     style="color:#000000;fill:#003d8f;fill-opacity:1;fill-rule:nonzero;stroke:none;stroke-width:1.88832211;stroke-linecap:round;stroke-linejoin:bevel;marker:none;marker-start:none;marker-mid:none;marker-end:none;stroke-miterlimit:4;stroke-dashoffset:0;stroke-opacity:1;visibility:visible;display:block"
     id="Shield" />
  <path
     d="M 95.641082,114.63308 C 94.808312,103.54285 98.041407,98.985214 95.543117,88.274827 C 97.649517,89.869983 99.462007,92.908403 100.39272,95.491072 C 101.81331,83.945083 102.69507,71.639511 102.00927,60.701265 C 105.14437,61.916582 107.29978,70.424145 108.62238,74.450059 C 112.14938,58.042615 113.08011,43.230375 110.58183,34.418951 C 113.76593,34.95071 115.62741,40.723654 117.78279,47.25624 C 119.88919,42.926503 119.5463,33.96322 119.5463,24.696017 C 119.88919,20.29033 120.37904,15.352912 122.14255,12.998169 C 123.85705,33.735304 130.42121,31.988237 134.09514,55.080161 C 135.41777,50.522552 135.66272,45.585126 135.31981,39.356406 C 139.63058,43.230375 143.4025,57.738778 145.41092,78.475953 C 147.32139,76.956736 148.20314,71.107774 148.93795,64.49928 C 153.10174,73.690437 154.57133,85.160467 152.46494,98.833319 C 151.38725,102.70728 150.70142,106.65721 151.04434,111.06292 C 152.80782,109.3918 153.39568,105.36592 154.42438,102.02363 C 155.15916,106.96108 155.89395,112.80999 155.25715,117.06378 C 153.15073,141.67491 134.96805,145.84298 123.48021,145.71862 C 117.04819,145.64618 97.952107,140.07901 95.641082,114.63308 z "
     style="font-style:normal;font-variant:normal;font-weight:normal;font-stretch:normal;letter-spacing:normal;word-spacing:normal;text-anchor:start;fill:#ffcd50;fill-opacity:1;fill-rule:evenodd;stroke:none;stroke-width:0;stroke-linecap:butt;stroke-linejoin:miter;stroke-miterlimit:10.43299961;stroke-dasharray:none;stroke-dashoffset:0;stroke-opacity:1"
     id="Eld" />
  <path
     d="M 35.072404,46.608113 L 25.437463,46.78164 L 23.708888,174.29186 L 33.343827,174.11832 L 35.072404,46.608113 z M 67.560682,57.561607 C 62.945069,53.742006 56.151187,49.309726 49.633008,45.865797 C 45.026936,43.432139 44.197296,42.781142 44.177048,41.584617 C 44.146576,39.78349 42.935762,36.855457 40.041223,37.426564 C 38.071424,37.815209 36.904918,39.229377 36.726637,42.60369 C 36.63953,44.252432 36.504748,45.745449 36.371235,45.747853 L 21.417164,46.017168 L 20.985992,20.530244 L 24.992126,20.458094 L 24.899793,15.000578 L 34.534739,14.827052 L 34.627079,20.284569 L 37.858865,20.215837 C 47.542013,20.006205 61.969981,16.017205 68.338643,11.788904 C 69.485858,11.027243 70.642693,10.537839 70.909397,10.701341 C 71.992017,11.365035 74.1326,23.551213 74.887993,33.351068 C 75.299207,38.685854 74.648003,52.669829 73.78991,56.931514 C 72.622421,61.445905 72.79244,61.353032 67.560682,57.561607 z "
     style="fill:#eeeeee;fill-opacity:1;fill-rule:evenodd;stroke:#003d8f;stroke-width:1.3779844;stroke-linecap:butt;stroke-linejoin:miter;stroke-miterlimit:4;stroke-dasharray:none;stroke-opacity:1"
     id="Axe1" />
  <path
     d="M 124.9418,148.84281 C 109.58556,148.92595 94.997124,155.31851 82.87831,164.71349 C 75.787134,170.85699 69.385817,179.55703 67.224617,185.97771 C 66.665699,187.63818 66.179476,187.68233 64.093879,186.19469 C 63.202902,185.55916 60.69929,184.21491 58.514345,183.21894 C 42.096931,175.73542 24.982996,175.84651 8.515521,183.52892 L 2.781,186.69065 C 8.415556,271.06901 84.636897,302.125 125.49975,302.12501 C 167.16295,302.12501 242.87167,270.96214 248.2185,186.25669 L 246.04868,185.04779 C 227.78425,175.35018 207.07051,175.73345 189.01345,185.29577 C 187.05302,186.46773 185.39265,187.35594 185.29376,187.24861 C 185.19485,187.14128 184.26306,185.2882 183.21693,183.12595 C 179.87142,176.21108 176.90808,172.23605 171.03495,166.72832 C 159.92958,156.31396 147.77477,150.913 131.57524,149.21478 C 129.35439,148.95932 127.13554,148.83094 124.9418,148.84281 z "
     style="fill:#eeeeee;fill-opacity:1"
     id="Treberg" />
  <path
     d="M 249.55062,1.4395041 L 125.50012,1.4395041 L 1.449569,1.4395041 L 1.449569,174.9361 C 0.68232904,268.65698 81.739009,302.75585 125.5001,302.75585 C 168.49395,302.75585 250.31785,268.65698 249.55062,174.9361 L 249.55062,1.4395041 z "
     style="color:#000000;fill:none;fill-opacity:0;fill-rule:nonzero;stroke:#000000;stroke-width:1.88832211;stroke-linecap:round;stroke-linejoin:bevel;marker:none;marker-start:none;marker-mid:none;marker-end:none;stroke-miterlimit:4;stroke-dashoffset:0;stroke-opacity:1;visibility:visible;display:block"
     id="Frame" />
  <g
     transform="matrix(-0.178032,-0.149387,-0.149387,0.178032,396.6073,134.688)"
     id="g2829">
    <path
       d="M 641.81811,502.52089 C 653.15348,522.68837 638.93437,536.7008 617.81016,532.34514"
       style="fill:none;stroke:#eeeeee;stroke-width:2.56468868;stroke-miterlimit:4;stroke-dasharray:none;stroke-opacity:1"
       id="path2831" />
    <path
       d="M 630.63688,516.56331 C 629.16796,524.14226 636.51707,525.6552 636.51707,525.6552"
       style="fill:none;stroke:#eeeeee;stroke-width:3.05467224;stroke-miterlimit:4;stroke-dasharray:none;stroke-opacity:1"
       id="path2833" />
    <path
       d="M 899.46858,145.39372 L 612.72086,428.04185 C 609.04631,437.89024 619.88353,440.54499 619.70163,443.0071 C 611.80222,456.26672 614.00789,469.33839 612.35249,472.93758 C 600.41472,489.42048 585.53457,488.85194 584.24755,488.664 C 569.73577,485.62866 564.5923,506.84785 560.73581,507.60432 C 555.41044,513.47765 561.47256,525.22432 554.49179,530.90499 C 555.59234,531.09762 509.48297,577.51103 504.52594,582.43522 C 502.68864,587.35942 472.37807,619.37614 472.37807,619.37614 C 477.15317,631.49868 528.40605,665.03304 528.22415,666.16542 C 566.06122,620.88909 615.6587,528.63085 620.80218,528.067 C 648.17495,496.80679 674.44259,453.80463 669.66749,441.68206 C 673.52394,420.27497 696.85378,401.32996 704.20292,402.27906 C 699.60972,388.82678 705.85374,378.02929 706.03564,376.89218 L 910.85611,170.96857 C 910.85611,160.5516 907.18152,163.58226 900.20078,163.01372 C 900.20078,163.01372 905.89907,154.10977 906.99962,154.10977 C 907.91827,147.85583 902.03804,144.44931 899.46858,145.39372 z "
       style="fill:#eeeeee;fill-opacity:1;stroke:none;stroke-width:1.68045974;stroke-opacity:1"
       id="path2835" />
    <path
       d="M 956.01637,105.77425 L 947.96097,96.51823 L 612.72086,428.04185 C 609.04631,437.89024 619.70163,441.68206 619.51516,444.33211 L 848.40217,217.38198 C 848.40217,217.38198 933.79162,128.31845 956.01637,105.77425 z "
       style="fill:#eeeeee;fill-opacity:1;stroke:#003d8f;stroke-width:2.38480997;stroke-miterlimit:4;stroke-dasharray:none;stroke-opacity:1"
       id="path2837" />
    <path
       d="M 611.62032,429.36686 C 617.49596,435.80873 653.50032,450.58605 658.09352,477.29324 C 640.27553,506.09134 619.15136,527.49847 616.94569,532.23473 C 586.82156,517.64538 570.47249,506.65988 565.14257,502.29952 C 566.42956,497.56326 573.04196,492.63906 573.04196,492.63906 C 577.26682,485.44072 584.79782,489.22785 584.79782,489.22785 C 600.59662,482.22213 607.94576,467.44485 604.82148,456.64732 C 601.14689,443.0071 603.72094,446.22569 603.16609,444.52474 C 604.82148,436.9458 611.62032,429.36686 611.62032,429.36686 z "
       style="fill:#eeeeee;fill-opacity:1;stroke:#003d8f;stroke-width:2.38480997;stroke-miterlimit:4;stroke-dasharray:none;stroke-opacity:1"
       id="path2839" />
  </g>
</svg>
