<!-- Created with Inkscape (http://www.inkscape.org/) -->
<svg xmlns:rdf="http://www.w3.org/1999/02/22-rdf-syntax-ns#" xmlns="http://www.w3.org/2000/svg" height="300" width="248" version="1.0" xmlns:cc="http://creativecommons.org/ns#" xmlns:xlink="http://www.w3.org/1999/xlink" xmlns:dc="http://purl.org/dc/elements/1.1/">
 <metadata>
  <rdf:RDF>
   <cc:Work rdf:about="">
    <dc:format>image/svg+xml</dc:format>
    <dc:type rdf:resource="http://purl.org/dc/dcmitype/StillImage"/>
    <dc:title/>
   </cc:Work>
  </rdf:RDF>
 </metadata>
 <path d="m247,1.0001,0,214.77c0,82.42-84.912,44.012-123,82.791-38.089-38.77-123-0.37-123-82.79v-214.77z" fill="#003d8f"/>
 <path d="m1,140,0,76.031c0,82.54,84.912,44.07,123,82.906v-158.94h-123z" fill="#FFF"/>
 <path id="path3256-1" fill-rule="evenodd" fill="#ffcd50" d="m33.047,30.567-6.921-1.5942-2.079,6.7908-2.079-6.7908-6.921,1.5942,4.844-5.1946-4.844-5.1965,6.921,1.5961,2.079-6.7927,2.079,6.7927,6.921-1.5961-4.844,5.1965,4.844,5.1946z"/>
 <use xlink:href="#path3256-1" transform="translate(154.3364,97.302842)" height="300" width="248" y="0" x="0"/>
 <use xlink:href="#path3256-1" transform="translate(113.27293,82.252277)" height="300" width="248" y="0" x="0"/>
 <use xlink:href="#path3256-1" transform="translate(77.711401,97.302842)" height="300" width="248" y="0" x="0"/>
 <use xlink:href="#path3256-1" transform="translate(5e-7,90.755767)" height="300" width="248" y="0" x="0"/>
 <use xlink:href="#path3256-1" transform="translate(33.306168,66.998775)" height="300" width="248" y="0" x="0"/>
 <use xlink:href="#path3256-1" transform="translate(199.90241,45.376281)" height="300" width="248" y="0" x="0"/>
 <use xlink:href="#path3256-1" transform="translate(5e-7,45.376281)" height="300" width="248" y="0" x="0"/>
 <use xlink:href="#path3256-1" transform="translate(163.53274,15.83345)" height="300" width="248" y="0" x="0"/>
 <use xlink:href="#path3256-1" transform="translate(95.241266,15.83345)" height="300" width="248" y="0" x="0"/>
 <use xlink:href="#path3256-1" transform="translate(199.90241,4.9999994e-7)" height="300" width="248" y="0" x="0"/>
 <use xlink:href="#path3256-1" transform="translate(129.38617,4.9999994e-7)" height="300" width="248" y="0" x="0"/>
 <use xlink:href="#path3256-1" transform="translate(45.498115,4.9999994e-7)" height="300" width="248" y="0" x="0"/>
 <use xlink:href="#path3256-1" transform="translate(199.90241,90.755767)" height="300" width="248" y="0" x="0"/>
 <g transform="matrix(0.68593324,0,0,0.62210989,42.157743,-13.10837)">
  <path fill-rule="evenodd" fill="#d40000" d="m16.287,105.86c-1.1757-1.2369,0.06705-2.5455,1.2427-1.3098,2.6091,2.7478,5.7165,5.446,9.1036,7.1881,1.882,0.96874,2.8773,0.66355,1.2392-1.126-1.1641-1.2716-2.1271-2.6473-2.8866-4.1235-0.78147-1.5178,0.66586-2.438,1.4473-0.9225,1.5537,3.023,4.9801,5.8194,8.2285,6.9141,4.7836,1.6126,2.4877-1.3838,1.615-4.4391-0.81846-2.8611-0.8751-6.4702-2.5814-8.9152-0.97568-1.3965,0.39767-2.1652,1.3722-0.76875,1.0346,1.4809,1.8542,3.0068,2.3594,4.6194,1.4624,4.6668,1.8878,1.4728,3.9004-0.55951,1.3017-1.0959,2.5328,0.089,1.23,1.1849-2.2716,1.9132-2.6935,7.7892-1.2774,10.104,2.0785,3.3987,5.0784,5.2587,8.8019,6.4344-2.1606-0.0162-4.394,0.14797-6.654,0.36646-1.1895-0.68321-2.3444-1.4543-3.4669-2.3282-2.8658-2.23-6.2772-1.9456-9.6319-2.6357-5.7361-1.178-10.165-5.5986-14.042-9.6828zm41.336,15.858,0.55951,0.0809c1.8912,0.26126,1.7306,2.8808,0.16184,3.2195,0.03121-0.0925,0.06011-0.18727,0.08323-0.28438v-0.007l0.0023-0.008,0.01272-0.0312,0.0023-0.0104-0.0023-0.001c0.19305-0.85892,0.02428-1.7225-0.40923-2.4253-0.11791-0.18958-0.25548-0.36876-0.41038-0.53292z"/>
  <path fill-rule="evenodd" fill="#d40000" d="m15.376,126.45c-1.467-0.32368-1.1976-1.7202,0.36761-1.4959,1.215,0.17456,2.3768-0.067,3.3178-0.0971,3.364-0.10751,1.7722-1.3306-0.01156-2.534-1.4994-1.0127-2.5779-2.6473-3.9154-4.3062-0.94215-1.1722,0.35605-2.208,1.2994-1.0358,8.2505,10.233,22.954,4.4021,34.603,4.8183,1.7745,0.0335,4.2252-0.47859,6.1419-1.3884l-0.3364,3.9328-3.8357,3.7397-1.5306-2.6519c-0.7121-0.0116-1.1988-0.28553-1.4785-0.68205-6.3523-0.52829-11.609,1.2346-17.143,4.9558-3.4634,2.3305-6.7176,4.5189-10.427,4.5374-1.5028,0.005-1.867-1.3098-0.0092-1.445,1.986-0.27398,2.1779-1.6866,0.08092-1.8034-1.1271-0.0613-2.1571-0.0728-3.2923-0.25316-1.7282-0.25433-1.5109-1.408-0.0092-1.4126,4.6865-0.0231,6.0379-1.6762,0.32137-2.1571-1.4265-0.11791-2.7444-0.41038-4.1432-0.72135z"/>
  <path fill-rule="evenodd" fill="#d40000" d="m40.147,48.993c-2.0057-0.51558-1.267-2.527,0.73869-2.0115,3.816,0.99302,7.9638,1.4704,12.136,2.0092,8.1985,1.8485,16.766,3.2785,24.197,7.4332,1.3433,2.1409,3.9224,4.0715,5.809,4.001,1.4427,1.2069,2.7952,2.5213,4.0333,3.927,0.30056,3.3085,3.0415,7.9175,5.7246,9.0539,0.74447,1.7826,1.3155,3.6357,1.682,5.5327-1.6878,3.26-0.10751,7.3846-0.76644,11.707-0.18381,1.1988-0.41963,2.3606-0.69939,3.4912-3.5559,9.292-11.492,16.71-20.574,21.19-1.8508,0.91326-3.7386,1.6994-5.6344,2.3536-0.03006-0.37108-0.0763-0.75025-0.13757-1.1352,10.437-5.59,19.083-15.08,20.878-26.834,2.267-14.837-8.367-28.416-21.637-33.89-8.071-3.331-16.996-4.545-25.751-6.823zm22.364-4.422c-0.61962-1.1502-1.3271-2.1941-1.8542-2.8137-0.94562-1.1098,0.47859-2.3756,1.4231-1.267,1.3595,1.5988,2.4623,3.0137,3.2704,4.4911-0.94215-0.14681-1.8901-0.28091-2.8392-0.41038zm12.41-3.4565c0.95602-4.3593,2.6334-8.351,6.9604-10.962,1.2497-0.75025,2.119,0.6913,0.87048,1.4427-4.4483,2.6843-4.9639,9.4458-5.5997,15.821-1.2161-1.7583-1.1502-4.2934-2.2311-6.3014zm13.427,13.298c3.5467-6.0425,6.0656-12.847,13.605-15.938,0.62193-0.25317,1.0994-0.08786,1.3051,0.21849-0.43467,0.47975-0.84621,0.97452-1.2381,1.4832-5.5928,2.7051-7.9037,9.7198-11.008,15.937-0.95024-0.25779-1.8253-0.9121-2.5317-1.5745l-0.13294-0.126z"/>
  <path fill-rule="evenodd" fill="#d40000" d="m47.527,45.989c-2.0635-0.53408-1.3028-2.6172,0.7595-2.0831,6.4852,1.6993,13.906,1.9398,20.818,3.4183,5.7038,1.2196,1.4427-6.5523-0.47859-8.8273-0.97221-1.1491,0.49246-2.46,1.4647-1.3121,2.6276,3.1131,4.3246,5.5466,4.824,9.0123,0.46125,3.1941,5.431,6.9465,6.4771,2.4623,1.8647-7.9811,1.1248-17.353,9.0689-22.178,1.2843-0.778,2.1791,0.71557,0.89476,1.4924-6.0413,3.6703-5.031,14.698-6.5615,22.45-0.69823,3.5305,5.8864,9.3533,8.3152,6.7615,6.528-6.9673,7.7753-17.869,17.999-22.087,1.3907-0.57223,2.0878,0.90632,0.69823,1.4774-8.151,3.3628-9.7938,15.318-15.443,22.586-2.5166,3.238,3.4149,13.931,7.4632,12.187,5.8702-2.5305,10.753-6.4332,18.308-5.4876,1.4959,0.18149,1.2173,1.9409-0.27976,1.7583-5.4136-0.67627-10.242,3.3455-15.328,6.2945-6.2147,3.6033-3.001,9.2192-3.9096,15.205-2.8762,18.941-17.605,29.631-34.45,34.21-0.71095-0.008-1.4207-0.015-2.1328-0.0208,0.45547-1.2288,0.73522-2.5259,0.79534-3.92,14.035-4.67,27.154-16.16,29.444-31.244,2.333-15.364-8.608-29.422-22.258-35.092-8.304-3.447-17.485-4.705-26.491-7.065zm14.064,78.811c-0.61269,0.10867-1.2265,0.2104-1.8415,0.30403-3.2287,0.48437-2.9987-3.5016-0.43004-3.8865,1.3664-0.20809,2.7409-0.489,4.1143-0.83465-0.15722,0.98146-0.46009,1.8959-0.87857,2.7617-0.27398,0.56414-0.59766,1.1144-0.96412,1.6554z"/>
  <path fill-rule="evenodd" fill="#FFF" d="m87.346,193c-0.7017,0.73754-1.4496,1.4624-2.2831,2.1872-3.6565,2.9999-7.321,6.1269-10.863,9.3267-2.2565,2.1398-4.3177,4.2299-6.2552,6.3928-2.1398,2.3224-4.164,4.505-5.7165,7.1488-1.0439,1.778-2.623,4.0044-3.3917,5.8309-0.96412,2.3744-2.2138,0.74794-3.3247-0.35952-0.76412,1.2046-1.3976,2.045-2.4958,2.8056-3.7663,3.5605-10.361,3.7883-15.277,3.0126-1.7941-0.27976-1.5028-1.1005-0.12601-1.771,3.6773-1.7918,5.9419-4.0599,8.7753-6.8748,0.5572-0.66356,1.1768-1.3213,1.8612-1.9768,1.7017-1.8473,3.8807-2.0011,5.4703-3.3836,2.9189-3.0692,5.6679-6.3038,8.4424-9.5001,3.475-4.009,7.1083-8.2458,9.9602-12.705,0.61384-1.0393,1.3179-2.045,2.0485-3.0438,4.1848,2.0161,8.5996,2.9964,13.175,2.9097zm86.89-14.163c-4.4911,1.9155-5.135,3.5305-6.1835-1.3502,2.2831-0.7306,3.46-1.178,5.7096-2.0057,0.096,1.1086,0.19768,2.2542,0.47397,3.3559zm41.023-41.717c0.50518-0.24276,1.4115-0.70864,1.8855-0.97683-1.3629-0.63581-2.5062-1.1156-3.3998-1.3687,0.88435-0.20577,2.4947,0.089,4.5246,0.68667,1.6438-1.0589,3.0958-2.2889,4.4275-3.7096-3.2588-0.76412-5.8494-1.3514-7.5025-1.4242,1.2947-0.64274,4.661-0.47743,8.7348,0.015,1.1549-1.4103,2.2265-2.986,3.2704-4.7385-4.6726-0.0647-8.3788-0.1919-10.442,0.163,1.393-1.1179,6.1442-1.704,11.544-2.0947,0.84158-1.5364,1.6774-3.1952,2.5351-4.9836-8.4019-1.5144-16.58-0.93175-22.217,5.5801-9.6516-5.824-19.998-6.5118-31.059-4.4368-17.48,3.2796-35.758,2.2415-54.574-0.22196-9.9856-1.3074-18.722,1.9698-27.952,3.9143-9.5024,2.0011-19.859,1.4681-29.578,1.4126-1.1352,2.2022-2.9328,3.9062-5.7096,5.9408l-1.3826-0.0532c4.7339-4.4749,8.284-8.8192,6.254-15.908-7.6158,1.7456-11.358,5.2506-11.127,12.226-0.45547-0.79996-0.81961-1.6415-1.082-2.5143-6.1847-0.29363-11.065,2.2774-15.277,7.1384-5.6344,2.8045-9.6423,4.8079-14.198,6.6552-3.9339,1.5942-4.8818,4.7188-4.1085,8.6216,1.7548-0.3156,3.453-1.3028,5.1512-3.2033-0.68667,2.6265-2.0866,4.2934-4.4437,5.5812,0.77915,1.8045,2.3351,2.853,3.8992,2.89,3.238-1.1641,5.965-2.3236,8.9314-3.8981,2.1467-0.91556,3.0565,1.5433,0.92828,2.3062-2.9259,0.63928-5.6171,1.5918-8.1973,2.6924,0.92366,1.5375,2.4623,2.2161,4.446,1.8658,3.4206-1.1757,8.136-1.6693,11.814-1.3514,3.6692-2.312,5.3338-2.3883,9.1314-2.3883,3.7143,0,7.7626,0.2312,9.3464-4.1778l0.78725-0.33755c-0.31097,6.7546-4.5096,6.9187-10.184,6.2043-2.7062-0.34103-5.9199-0.16531-7.6678,1.0647,4.4148,0.83001,8.5557,1.1352,11.216,5.4206,3.4114,5.4945,2.5571,6.6517,5.4402,12.997,0.48668,0.89129,1.2335,1.9999,1.7375,2.8311,0.60806-5.7176,1.0462-10.519,0.87395-12.938,1.1121,1.7121,1.0994,7.7141,0.86239,14.037-0.09595,2.5583,1.5282,3.6287,3.1559,5.535,0.4231-6.7268,0.80227-12.309,0.52136-15.011,1.2381,1.7745,1.3664,8.4285,1.3075,15.163-0.02081,2.4195,1.3167,2.9004,3.2773,4.2079,0.18959-6.6945,0.4809-12.094,0.11329-14.77,1.2231,1.6358,1.5976,7.6586,1.7722,13.992,0.0763,2.8403,1.5248,2.9143,4.1721,3.9062-0.03353-6.3985-0.09826-11.62-0.5387-14.194,1.208,1.5098,1.7849,6.98,2.1675,12.924,0.16762,2.6207,1.2161,2.2947,3.8033,2.6796-0.19999-6.061-0.31097-10.931-0.8173-13.392,1.1872,1.3861,1.9294,6.3257,2.4958,11.864,0.26126,2.5675,1.3976,1.9144,3.8865,1.7641-0.36414-5.8124-0.65893-10.476-1.2288-12.849,1.3005,1.4196,2.2369,6.8043,3.0091,12.684,0.76759-0.0948,1.5398-0.22311,2.3155-0.38264,0.5283-0.18265,1.0473-0.3838,1.5236-0.60228-0.49477-5.4876-0.96758-9.8828-1.5918-12.146,1.2404,1.2681,2.2843,5.9049,3.1964,11.203,1.1572-0.64737,2.4727-1.4866,3.6079-2.3456-0.58032-4.8726-1.1098-8.6701-1.7537-10.736,1.1514,1.1017,2.2334,4.9165,3.2287,9.4932,0.98493-0.84389,1.9594-1.771,2.9189-2.7779-0.66933-4.4564-1.1421-7.9973-1.8115-9.9232,1.0936,0.9803,2.0369,4.3432,3.1004,8.4031,0.61268-0.70517,1.3872-1.5271,1.9872-2.3028l3.9674-0.15606c0.0751-0.62078-0.0809-1.1595-0.70979-2.0115-2.8611-3.875-8.4031-7.2089-10.498-11.464l0.99417,0.0451c2.8299,4.1258,7.9464,5.7304,11.282,10.602,3.6033,5.2656-3.5894,14.441-5.5697,19.457-2.4912,6.3107-2.7398,8.5094,2.9698,11.63,3.5767,2.0427,7.1153,3.868,10.368,6.3985,2.5236,1.7086,5.0483,3.4172,7.5719,5.1246,1.5791,1.8323,3.7397,3.1756,6.1061,3.6912,0.80805,0.0705,1.5444,0.18381,2.2276,0.32716,3.0681,0.64505,6.6124,2.0727,9.5521,3.3189,0.78262,0.2393,1.326-0.19652,1.1814-1.0381-2.0011-3.3258-4.5119-6.5823-7.5222-9.0701-1.7698-1.6462-4.2345-2.8889-6.5754-3.4183-0.10173-0.0902-0.97684-0.18149-1.0774-0.27166,1.0924-0.70864,2.0323-1.6878,1.5629-2.5525-0.49362-0.90747-3.1721-0.68783-4.09-0.86586-3.1143-0.60575-6.1315-2.3039-8.7036-3.8646-5.9685-3.9339-4.8541-4.1316-0.43004-9.5672,2.0404-2.5074,4.0807-5.0136,6.1199-7.5199,3.7339-4.5859,3.401-10.058,2.2901-15.578l0.88204,0.0994c0.38842,1.7259,1.4069,3.9224,1.5294,6.5511,15.113,2.3675,29.799,0.73292,43.27-4.4668-0.13063-2.0172-0.11561-4.1062-1.2277-5.8136-1.8242-2.7987-3.4079-5.557-4.7593-7.8852l1.2392-0.28091c1.6855,2.4739,3.0658,4.8356,4.9431,7.1627,1.993,2.4704,1.8045,7.0332,2.2392,10.075,1.3468,9.4366,4.9246,17.583,2.6242,21.713-0.82886,2.4195-1.9745,4.5848-3.3756,6.6216-1.2103,1.7837-2.5467,3.5663-3.8842,5.3489-3.0935,3.9975-7.1488,6.7766-11.142,9.8007-3.7779,1.1502-6.7893,4.3235-7.1314,4.7766-2.8611,2.3259-6.0448,3.9998-9.3591,5.0934-0.87395,0.21849-1.4658,1.0497-0.38264,1.5918,1.9097,1.0196,3.9478,1.4647,6.113,1.4647,4.6703-0.22773,8.9013-1.6751,12.353-4.8391,0.77221-0.90516,1.8716-1.2046,3.09-2.0276,0.21271,1.1156,1.4335,2.9871,2.5687,1.0508,2.238-4.5154,3.7929-6.8748,7.6493-10.547,5.0171-4.8495,10.124-9.536,15.537-13.945,1.5953-1.2762,2.734-3.4646,3.4958-6.3581,1.0728-4.0784-0.40807-7.3904-0.88551-11.501-0.42079-3.6056-1.4069-7.4783,0.47975-10.805,2.6369-4.653,7.6956-7.5777,11.164-11.725,6.135-7.3372,9.8319-14.996,7.0713-24.998l1.1109-0.3075c2.7374,9.9186-0.38149,19.112-6.6228,26.577-3.2854,3.9293-8.7742,6.9453-11.199,11.547-0.47628,0.90401-0.67165,1.9352-0.87973,2.9259,6.3407,7.7846,15.375,8.9707,20.805,14.172,5.8668,5.6182,6.5997,11.771,7.3835,18.957,0.52252,5.0922,1.7329,9.9568,6.1303,13.044,1.2277,0.68898,2.5143,0.91903,3.6727,1.8346,3.1628,2.1618,4.9813,4.8032,7.2262,7.4875,0.69593,1.0277,1.6693,0.53408,1.2335-0.45084-0.76181-2.134-0.55373-4.372-1.0242-6.5523-0.62078-3.2299-2.4034-5.6587-4.5246-7.995-1.0566-1.015-1.6681-1.6103-2.6958-2.2149,1.3028-0.85198,1.6011-1.6138,1.1444-2.3756-0.82886-1.3803-2.4681-1.7236-3.3444-3.4923-0.89938-1.8161-1.2728-3.9432-1.5063-5.9315-0.89591-6.1858-0.6335-13.607-1.9236-19.663-0.51096-2.3999-0.90747-5.9673-3.5524-6.9927-2.9409-1.0393-5.0414-2.3016-7.2586-4.7038-3.5802-3.8819-5.8575-8.8296-2.675-14.207,4.0854-6.9049,5.9974-15.577,1.9248-22.938z"/>
  <path fill-rule="evenodd" fill="#003d8f" d="m48.372,129.28c-1.7803,0.3179-3.1686,0.8855-2.8715,2.5513s1.9814,2.7582,3.7617,2.4404c1.7803-0.31675,2.9825-1.9259,2.6854-3.5906-0.2971-1.6658-1.7964-1.719-3.5756-1.4011z"/>
  <path fill-rule="evenodd" fill="#FFF" d="m46.725,130.26c-0.46587,0.0832-0.778,0.52945-0.69476,0.99648,0.08323,0.46588,0.52945,0.77685,0.99648,0.69361,0.46587-0.0832,0.77684-0.52945,0.69361-0.99533-0.083-0.46-0.529-0.77-0.995-0.69z"/>
  <path fill-rule="evenodd" fill="#003d8f" d="m40.318,134.38c2.6889-0.46818,2.7929-4.2796,6.9268-5.6344,1.0265-0.3364,2.1548-0.50633,3.2311-0.3838,1.2913,0.14797,2.7467,0.80575,3.6576,1.9259-2.119-0.3861-4.5304-0.55951-6.4471,0.12948-2.9085,1.045-3.4195,5.0518-7.3684,3.9628z"/>
  <path fill="none" d="m39.747,155c4.7628-4.4102,19.493,0.53523,20.959-8.1696"/>
  <path fill="none" d="m45.89,152.96c3.6715-0.38726,7.9222-0.29478,10.947-1.5098"/>
  <path fill-rule="evenodd" fill="#003d8f" d="m56.347,127.93c-0.61384-0.4312-1.2462-1.2936-0.88204-2.2658,1.2612-3.342,3.8842-5.8356,6.9719-7.8459,0,0-2.3074,3.3524-3.6449,5.4333-0.60344,0.96296-2.7976,3.8356,0.06936,4.2218,0,0-1.7017,1.1063-2.5143,0.45663z"/>
  <path fill-rule="evenodd" fill="#003d8f" d="m75.882,157.33c3.5721,2.4623,7.9118,4.9223,11.953,4.6946l0.06358,0.78444c-5.2344,0.29594-8.1915-0.40807-13.327-3.9501-2.9918-2.0623-5.9304-4.3408-9.3244-4.6113l0.09017-0.78444c4.3512,0.34681,6.5165,1.089,10.544,3.8669z"/>
  <path fill="none" d="m89,142.68c-1.986,3.0392-1.7479,8.9129,2.2276,11.365"/>
  <path fill="none" d="m87.886,145.78c-0.289,1.9398,0.0058,4.1166,1.0369,5.8841"/>
  <path fill-rule="evenodd" fill="#003d8f" d="m90.891,153.42-0.0796,0.87626c-4.7917-2.7895-4.5119-8.4296-1.1965-11.775l0.42409,0.61847c-1.8704,1.8808-2.0912,7.9765,0.85198,10.28z"/>
  <g fill-rule="evenodd" stroke="#d40000" stroke-dasharray="none" stroke-miterlimit="4" stroke-width="0.5" fill="#d40000">
   <path d="m59.137,223.23c-0.10982,0.22311-0.21155,0.44276-0.30056,0.65662-0.85545,2.1063-1.934,1.0624-2.9432,0.0277,1.067-2.1155,1.9953-2.8114,3.2438-0.68436z"/>
   <path d="m54.211,225.3c-0.34449,0.37339-0.72829,0.7121-1.1953,1.0358-3.7663,3.5605-10.361,3.7883-15.277,3.0126-1.7941-0.27976-1.5028-1.1005-0.12601-1.771,2.23-1.0866,3.9409-2.349,5.5743-3.8021,2.6322,1.3248,6.587,1.6589,11.024,1.5248z"/>
   <path d="m234.58,229.03c1.8519,1.734,3.2565,3.6576,4.883,5.6032,0.69593,1.0277,1.6693,0.53408,1.2335-0.45084-0.76181-2.134-0.55373-4.372-1.0242-6.5523-0.62078-3.2299-2.4034-5.6587-4.5246-7.995-0.21502-0.20693-0.41269-0.39652-0.59881-0.57223,0.37339,3.3929,0.51789,6.7326,0.0312,9.9672z"/>
   <path d="m232.6,217.32c1.1734-0.81152,1.4323-1.541,0.99301-2.2727-0.42541-0.70863-1.0658-1.1444-1.7051-1.6404-2.6195,1.0288-0.85429,2.4739,0.71211,3.9131z"/>
   <path d="m164.81,227.47c0.32252,1.1167,1.452,2.6126,2.5086,0.81037,0.1549-0.31444,0.30865-0.61732,0.45778-0.9121-1.0416-2.6993-1.1479-1.5849-2.9663,0.10173z"/>
   <path d="m138,223.35c2.3698,0.72713,4.8368,1.734,6.9823,2.6438,0.78262,0.2393,1.326-0.19652,1.1814-1.0381-2.0011-3.3258-4.5119-6.5823-7.5222-9.0701-1.0924-1.0161-2.4496-1.8797-3.8796-2.5155,1.3329,2.8738,2.438,6.513,3.238,9.9799z"/>
   <path d="m131.25,212.01c0.9699-0.68783,1.7248-1.5756,1.2936-2.3687-0.25548-0.46819-1.0913-0.63697-1.9675-0.71442-2.075,2.0993-2.1028,2.0531,0.67395,3.0831z"/>
   <path d="m150.79,227.53c-2.2727,1.5202-4.7027,2.6785-7.2066,3.505-0.87395,0.21849-1.4658,1.0497-0.38264,1.5918,1.9097,1.0196,3.9478,1.4647,6.113,1.4647,4.6703-0.22773,8.9013-1.6751,12.353-4.8391l0.052-0.059c-4.3015,0.0647-8.0794-0.36299-10.929-1.6635z"/>
  </g>
 </g>
 <rect height="2" width="246" y="139" x="1" fill="#FFF"/>
 <path fill="#d40000" d="m55.199,232.74c3.1862-5.1419,5.1582-15.224,8.1911-22.612,3.0336,7.3885,5.0048,17.473,8.1926,22.614-0.01973,2.0022-0.95966,4.5984-1.063,6.6441-0.1993,3.9604,0.74985,8.1374,2.6284,12.424,0.38676,0.8827,0.28415,2.0733-0.0263,3.0086-0.41505,1.253-0.07301,2.0424,0.44662,3.3355,0.24272,0.60249,0.19009,1.5819-0.09932,2.1864-1.1228,2.3502,0.0809,3.8828,1.6885,3.8025,1.1616-0.0579,2.287,0.10064,3.1941,0.84324,1.0031,0.82089,1.9707,1.6852,3.4756,2.2061,0.6058,0.72287,1.8457,1.4411,2.8317,1.2583,0.70974-0.13155,1.3629-0.62884,0.93667-1.2524h0.01973c1.0583,0.49924,2.2028-0.14537,1.4537-0.73273,0.91625,0.20127,1.2813-0.56831,0.81166-0.92612l0.0079-0.002c0.60644,0.0684,0.87811-0.74329,0.08288-1.0998l-0.20391-0.0717c0.27692-0.56239-0.25258-1.0642-0.81038-1.205-2.7587-0.69657-4.065-2.3666-6.2672-3.792-1.211-0.78404-1.7667-2.5916-1.1149-4.7412,3.7341-12.309,3.6585-19.732,0.2289-24.871,0.17233-0.86627,0.17036-1.8871-0.0296-3.0718,1.8687-7.6578,1.6168-18.098-0.59529-26.928,0.78276,0.49925,1.8266,0.5545,2.7291,0.12827,1.8878-0.89129,4.2965-0.95246,5.0827-3.0165,0.665-1.7444,1.6326-3.4355,3.0599-5.0008,2.5962-2.8494,4.874-5.7497,6.0363-8.9336,0.69198-1.897,0.84195-2.3541-0.8939-3.6032-3.6453-2.6251-7.2834-6.3777-10.858-7.7392l-0.04405,0.002c-0.69593-2.2529-3.1533-4.3261-6.6485-4.4899-2.0292-1.1754-4.7675-2.5706-7.9918-3.4013h-12.819c-3.225,0.83075-5.9633,2.2259-7.9923,3.4013-4.4491,0.0382-7.8991,3.2546-7.3209,7.2755-1.5885,1.6076-2.3713,3.3783-2.7876,5.2228l-0.025,0.0783c-0.90244-1.2353-1.8371-2.4344-2.3226-4.0979,0.60052-0.8314,1.1248-1.3997,1.2853-2.3121,0.18549-1.0524-0.09275-2.2239-0.33086-3.2434-0.26113-1.111-0.35059-1.4754-1.2682-1.6273-0.6025-1.3148-1.2155-3.2151-2.7067-3.0382-0.69593,0.0822-1.9832,0.22363-1.8358,1.0906l-0.06841-0.005c-0.99651-0.55909-2.0252,0.01-2.0364,0.96755l0.01644,0.0322-0.01513-0.004c-1.1202-0.67817-1.9628,0.098-2.0779,0.93204l0.0046,0.007h-0.01447c-0.72158-0.17299-1.5254,0.2322-1.949,0.89257-0.45649,0.71369-0.03223,1.3886,0.18352,2.141l0.93401,2.0476c1.1024,2.0832,1.2655,3.7144,3.8538,3.8183,1.3385,4.3432-0.25784,10.404,4.988,16.22,1.3451,1.4924,2.0956,0.90574,3.5572-0.0132,3.5519-2.2377,6.4941-6.4823,8.9765-12.237,0.3519,3.0415,1.18,6.0836,2.9112,9.126-5.1824,9.5981-6.6899,25.648-4.0887,36.308-0.20062,1.1873-0.20259,2.2101-0.02894,3.0783-3.4256,5.138-3.5006,12.56,0.23219,24.864,0.65252,2.1496,0.09604,3.9571-1.1143,4.7412-2.2028,1.4254-3.5085,3.0954-6.2672,3.792-0.55977,0.14142-1.0899,0.64463-0.80905,1.209l0.0934,0.0677c-0.79588,0.3565-0.52425,1.1682,0.08288,1.0998l0.0053,0.004c-0.14602,0.11182-0.21049,0.26376-0.20259,0.41373,0.01776,0.32954,0.38808,0.64858,1.0162,0.51045-0.74852,0.58739,0.39598,1.232,1.4543,0.73273l0.02171-0.003c-0.43083,0.62554,0.22298,1.1241,0.93401,1.2557,0.986,0.18286,2.2259-0.53541,2.8317-1.2583,1.505-0.52095,2.4725-1.3852,3.4756-2.2061,0.90707-0.7426,2.0325-0.90115,3.1934-0.84324,1.6082,0.0803,2.8119-1.4523,1.6891-3.8025-0.28942-0.60446-0.34204-1.5839-0.09933-2.1864,0.51962-1.2932,0.86169-2.0825,0.44596-3.3355-0.31046-0.93534-0.41242-2.1259-0.02565-3.0086,1.8786-4.2873,2.8277-8.4639,2.6278-12.424-0.10261-2.0463-1.0439-4.6432-1.0623-6.646zm30.912-49.387c-0.18615,1.2576-0.24009,2.5633-0.27231,3.9472-0.04208,1.8016-1.478,2.7764-2.9685,3.6058-1.2925-0.25718-1.9996,0.0211-2.6659,0.27166-2.3462,0.8827-2.5035,1.6155-2.489,2.366l0.01184,0.0493-0.41702,0.11774-0.05985,0.0263c-0.4782-1.1866-0.99913-2.3114-1.5648-3.3599,2.0088-3.5316,2.8034-7.3106,3.0454-10.841l0.01184-0.0184c1.947,1.9581,4.4563,3.1658,7.3683,3.8354z" fill-rule="evenodd"/>
 <path d="m40.969,186.62c0.4065-5.7043-3.4072-7.0052-4.5833-11.036,0.71172-0.98531,1.3162-1.601,1.3353-2.8586,0.01052-0.71433-0.09537-1.5082-0.29336-2.3278" stroke="#FFF" stroke-miterlimit="4" stroke-dasharray="none" stroke-width="0.75" fill="none"/>
 <path d="m86.747,180.73c-0.73145,2.0588-0.85113,4.1972-0.90638,6.5637-0.04208,1.8016-1.478,2.7764-2.9685,3.6058-1.2925-0.25718-1.9996,0.0211-2.6659,0.27166-2.3462,0.8827-2.5035,1.6155-2.489,2.366" stroke="#FFF" stroke-miterlimit="4" stroke-dasharray="none" stroke-width="0.75" fill="none"/>
 <path d="m77.912,178.59c2.0536,2.5298,4.8918,4.0117,8.2666,4.7767m-1.8431-11.777c3.5743,1.3616,7.2124,5.1143,10.858,7.7392,1.7359,1.2491,1.5859,1.7063,0.8939,3.6032-1.1623,3.1842-3.4401,6.0842-6.0363,8.9336-1.4273,1.5655-2.3949,3.2566-3.0599,5.0008-0.78601,2.0641-3.1948,2.1252-5.0827,3.0165-0.90574,0.42755-1.9536,0.37032-2.737-0.13352-0.26113-0.16773-0.49267-0.38611-0.68014-0.65183l-1.232-2.2699c-0.52884-0.97416-1.2761-2.5653,0.0513-3.1191l2.1371-0.60185m-9.793-29.41c3.2244,0.83075,5.9628,2.2259,7.9918,3.4013,4.4491,0.20851,7.2183,3.5105,6.8103,6.3387m-27.616-9.7402c-3.225,0.83076-5.9633,2.2259-7.9923,3.4013-4.4491,0.0382-7.8991,3.2546-7.3209,7.2755-1.5885,1.6076-2.3713,3.3783-2.7876,5.2228m9.1679,1.6063c-2.4863,5.7773-5.4344,10.038-8.9957,12.28-1.4616,0.91891-2.2121,1.5056-3.5572,0.0132-5.2455-5.8158-3.6493-11.877-4.988-16.22-2.5883-0.10393-2.7514-1.7352-3.8538-3.8183" stroke="#FFF" stroke-miterlimit="4" stroke-dasharray="none" stroke-width="0.5" fill="none"/>
 <path d="m77.251,193.74c-0.47819-1.1873-1.0005-2.3133-1.5662-3.3625,2.0088-3.5316,2.8034-7.3106,3.0454-10.841" stroke="#FFF" stroke-miterlimit="4" stroke-dasharray="none" stroke-width="0.49332261" fill="none"/>
 <path d="m48.89,232.85c-1.8562-1.0281-2.7172-3.0178-2.1851-6.1685-2.6014-10.66-1.0938-26.71,4.0887-36.308-2.0098-3.5322-2.8036-7.0629-3.0458-10.594m29.839,53.067c1.8562-1.0281,2.7172-3.0178,2.1858-6.1685,1.8693-7.6618,1.6168-18.108-0.59791-26.942m-30.046,25.773c1.3774-0.33941,2.983,0.40847,3.5907,2.0371m-3.5565,0.62159c0.42491,0.56436,1.0577,0.94387,1.5885,0.93203m26.599-3.5914c-1.378-0.33941-2.9836,0.40847-3.5907,2.0371m3.5559,0.62159c-0.42492,0.56436-1.057,0.94387-1.5879,0.93203m-24.85-61.981c3.0619,0.69129,5.9756,0.56767,8.7422,2.2219m15.99-2.2219c-3.0619,0.69129-5.9766,0.56767-8.7422,2.2219m-15.398,11.71c0.17233,2.7409,10.791,2.0739,10.743-0.14866m-6.7205-0.39268c0,0.53673-0.4361,0.97219-0.97219,0.97219-0.53674,0-0.97219-0.43544-0.97219-0.97219m5.5351,8.2898c0.13418,1.7852,8.3534,1.3511,8.314-0.096m-4.2518,3.2506c0.45978,0,0.83209,0.37229,0.83209,0.8314s-0.3723,0.83139-0.83209,0.83139m11.869-12.576c-0.17299,2.7409-10.792,2.0739-10.743-0.14865m6.7205-0.39269c0,0.53674,0.43544,0.9722,0.97219,0.9722,0.53609,0,0.9715-0.43545,0.9715-0.9722" stroke="#FFF" stroke-miterlimit="4" stroke-dasharray="none" stroke-width="0.75" fill="none"/>
 <path d="m34.698,181.43-1.1563-4.8273-0.75444,0.20128" stroke="#FFF" stroke-miterlimit="4" stroke-dasharray="none" stroke-width="0.75" fill="none"/>
 <path d="m86.427,263.89,1.5438,0.54133c0.79524,0.35651,0.52356,1.1682-0.08288,1.0998m-1.9062-0.75182,1.7135,0.6538c0.74196,0.28283,0.37822,1.284-0.68014,1.0143m-1.995-0.93929,1.7201,0.75641c1.3379,0.62292,0.05196,1.4839-1.1254,0.92809m-14.034-34.53c0.0053,2.0128-0.95902,4.6497-1.0636,6.7225-0.1993,3.9604,0.74985,8.1374,2.6284,12.424,0.38676,0.8827,0.28415,2.0733-0.0263,3.0086-0.41505,1.253-0.07301,2.0424,0.44662,3.3355,0.24272,0.60249,0.19009,1.5819-0.09932,2.1864-1.1228,2.3502,0.0809,3.8828,1.6885,3.8025,1.1616-0.0579,2.287,0.10064,3.1941,0.84324,1.0031,0.82089,1.9707,1.6852,3.4756,2.2061,0.6058,0.72287,1.8457,1.4411,2.8317,1.2583,0.83998-0.15589,1.6017-0.82351,0.58607-1.6076l-1.6503-0.8538m-11.166-32.04c-3.7039-4.6017-5.7457-15.799-9.0392-23.82-3.2928,8.0209-5.3343,19.218-9.0377,23.82m25.412-4.2491c3.469,5.1399,3.5592,12.574-0.18944,24.929-0.65183,2.1496-0.09604,3.9571,1.1149,4.7412,2.2022,1.4254,3.5085,3.0955,6.2672,3.792,0.55908,0.14142,1.0893,0.64462,0.80841,1.209m-32.566-31.71c-0.0053,2.0128,0.95902,4.6497,1.063,6.7225,0.19996,3.9604-0.74921,8.1374-2.6278,12.424-0.38676,0.88271-0.28481,2.0733,0.02565,3.0086,0.41571,1.253,0.07367,2.0424-0.44596,3.3355-0.24271,0.6025-0.19009,1.5819,0.09933,2.1864,1.1228,2.3502-0.08091,3.8828-1.6891,3.8025-1.1609-0.0579-2.2864,0.10064-3.1934,0.84323-1.0031,0.82089-1.9707,1.6852-3.4756,2.2061-0.6058,0.72287-1.8457,1.4412-2.8317,1.2583-0.84062-0.15589-1.6017-0.8235-0.58607-1.6076l1.6503-0.85379m3.5315-36.291c-3.4684,5.1399-3.5585,12.574,0.18944,24.929,0.65252,2.1496,0.09604,3.9571-1.1143,4.7412-2.2028,1.4254-3.5085,3.0954-6.2672,3.792-0.55977,0.14142-1.0899,0.64462-0.80905,1.209m1.6372-0.47359-1.5438,0.54132c-0.79588,0.35651-0.52425,1.1682,0.08288,1.0998m1.9056-0.75182-1.7135,0.6538c-0.74132,0.28284-0.37755,1.284,0.68079,1.0143m1.9944-0.93929-1.7194,0.75642c-1.3385,0.62291-0.05262,1.4839,1.1254,0.92808" stroke="#FFF" stroke-miterlimit="4" stroke-dasharray="none" stroke-width="0.5" fill="none"/>
 <path d="m19.855,174.12c10.828-4.5254,21.675-8.5779,25.392-14.606,10.404-1.0709,21.096-5.3022,32.178-12.011,3.8736-2.3449,7.5099-4.1584,12.303-2.9777,4.3899,1.0814,4.4432,5.2608,2.024,8.5596-2.9566,4.0314-6.5252,4.4109-10.926,4.9062-9.1876,1.036-19.464,4.7918-29.402,7.7022-10.037,3.4835-20.084,7.353-30.11,11.46-2.4068,0.98601-3.7058-2.095-1.4602-3.0336z" fill-rule="evenodd" stroke="#FFF" stroke-dasharray="none" stroke-miterlimit="4" stroke-width="0.5" fill="#ffcd50"/>
 <path fill="#d40000" d="m36.386,175.58c0.71172-0.98531,1.3162-1.601,1.3353-2.8586,0.01052-0.71433-0.09537-1.5082-0.29336-2.3278-0.33875-1.4024-0.3427-1.8286-1.3557-1.9963-0.6025-1.3149-1.2155-3.2151-2.7067-3.0382-0.69593,0.0822-1.9832,0.22364-1.8358,1.0906l-0.06841-0.005c-0.99651-0.55908-2.0252,0.01-2.0364,0.96756l0.01644,0.0322-0.01513-0.004c-1.1202-0.67817-1.9628,0.098-2.0779,0.93203l0.0046,0.007h-0.01447c-0.72158-0.17299-1.5254,0.23219-1.949,0.89257-0.45649,0.71369-0.03223,1.3886,0.18352,2.141l1.3984-0.7426c0.58276,0.90771,1.3116,1.9595,2.633,1.2031,0.61502,0.56894,1.7082,0.29073,1.6076-1.0103l-0.0039-0.0171c0.82745,0.72617,1.724,0.18746,1.7148-0.89257,0.27758,0.40387,0.77353,0.43873,1.1636,0.19667,0.31046,0.0428,0.64857,0.0414,0.99059,0.004,0.06183,0.40584,0.12432,0.81102,0.18681,1.2162-1.1577,0.44136-1.997,1.1215-2.6192,1.9641l3.7414,2.245z" fill-rule="evenodd"/>
 <path d="m25.981,169.61c0.91033,0.0441,1.5076,3.4796,3.6302,2.2548m-2.2732-3.4894c-0.72158-0.173-1.5254,0.23219-1.949,0.89257-0.45978,0.71892-0.0046,1.728,0.31112,2.4199m5.5114-0.82878c0.10788,1.3964-1.1603,1.6148-1.7352,0.87155l-2.1285-3.3625c0.11511-0.83406,0.95769-1.6102,2.0779-0.93204m3.496,2.4982c0.01842,1.0952-0.89257,1.6431-1.7266,0.89651l-0.83534-1.6148-0.93534-1.8082c0.01118-0.95768,1.0399-1.5267,2.0364-0.96755m4.6096,1.9522c-0.6025-1.3149-1.2142-3.2151-2.7054-3.0382-0.75182,0.0888-2.1949,0.24601-1.772,1.3136l1.2208,3.077c0.23614,0.59066,0.82419,0.67817,1.2714,0.40058m-0.51172-4.2367c0.17102,0.75711,0.39926,1.5714,0.68537,2.3456m2.1266,7.3209c0.71172-0.98531,1.3162-1.601,1.3353-2.8586,0.01052-0.71433-0.09537-1.5082-0.29336-2.3278-0.3986-1.6497-0.33414-1.9496-1.993-2.0654-0.92809-0.0645-1.9095-0.10064-2.6744-0.13681-0.45517,1.6648,0.9051,2.116,2.3166,1.9634,0.06183,0.40584,0.12432,0.81103,0.18681,1.2162-1.1577,0.44136-1.997,1.1215-2.6192,1.9641" stroke="#FFF" stroke-miterlimit="4" stroke-dasharray="none" stroke-width="0.5" fill="none"/>
 <path d="m83.013,209.18-0.90771,0.36506,0.10064,0.18878-0.63801,0.0875,0.06775,0.22825-0.75118,0.1276,0.15918,0.2289-0.75908,0.11709,0.16181,0.31375-0.77812,0.0428,0.07893,0.2585-1.0787-0.0947,0.05328,0.20983c-0.50122-0.0447-0.96494-0.2243-1.3464-0.69918l-0.08353,0.13287c-0.34664-0.84324-0.55908-1.7128-0.48609-2.6159,0.24403-0.8722,0.74457-1.6142,1.3616-2.2857l0.03221,0.15325c0.52292-0.31309,1.0196-0.32098,1.505-0.18944l-0.12168,0.17826,1.0445,0.28481-0.16378,0.21509,0.71566,0.30915-0.26114,0.23811,0.67156,0.37295-0.22824,0.15984,0.66041,0.37953-0.14208,0.19075,0.56767,0.30323-0.15918,0.14208,0.72484,0.6571z" fill-rule="evenodd" stroke="#FFF" stroke-dasharray="none" stroke-miterlimit="4" stroke-width="0.3" fill="#250"/>
 <path d="m82.944,209.17-6.1705-0.93203,0.05854-0.32888,6.1118,1.2609z" fill-rule="evenodd" stroke="#FFF" stroke-dasharray="none" stroke-miterlimit="4" stroke-width="0.1" fill="#FFF"/>
 <path d="m83.792,205.12-0.80446,0.55711,0.13945,0.16181-0.6025,0.22627,0.11642,0.20786-0.70446,0.29073,0.20588,0.18746-0.71433,0.28218,0.22758,0.27034-0.74985,0.21378,0.13418,0.23482-1.0728,0.14602,0.098,0.19272c-0.4986,0.0671-0.98995-0.005-1.4675-0.38413l-0.05197,0.148c-0.52425-0.74591-0.92414-1.5464-1.0524-2.4436,0.04539-0.9051,0.36901-1.7391,0.82222-2.5304l0.06578,0.14274c0.44004-0.42163,0.9235-0.53871,1.4254-0.51834l-0.07959,0.20128,1.082,0.0467-0.11182,0.246,0.76564,0.1434-0.20128,0.29007,0.73737,0.21509-0.18746,0.20588,0.7275,0.22495-0.09604,0.21706,0.62094,0.17036-0.12432,0.17365,0.85246,0.48017z" fill-rule="evenodd" stroke="#FFF" stroke-dasharray="none" stroke-miterlimit="4" stroke-width="0.3" fill="#250"/>
 <path d="m83.723,205.12-6.2238,0.45451-0.01579-0.33348,6.2395-0.12103z" fill-rule="evenodd" stroke="#FFF" stroke-dasharray="none" stroke-miterlimit="4" stroke-width="0.1" fill="#FFF"/>
 <path d="m83.891,201.52-0.73273,0.64858,0.15786,0.14405-0.57161,0.29599,0.1401,0.19273-0.665,0.37229,0.22693,0.16181-0.6762,0.36506,0.25784,0.2414-0.71892,0.30059,0.16049,0.21707-1.0478,0.27231,0.12037,0.18023c-0.4874,0.12497-0.98403,0.11182-1.503-0.20786l-0.03419,0.15261c-0.60911-0.67817-1.1005-1.426-1.3339-2.3015-0.06249-0.90377,0.16049-1.7707,0.517-2.61l0.08156,0.13352c0.38743-0.4703,0.8531-0.64393,1.3543-0.68276l-0.05525,0.20917,1.08-0.0816-0.08222,0.25718,0.77748,0.052-0.16576,0.31178,0.75774,0.12629-0.16181,0.22693,0.74921,0.13681-0.06972,0.22693,0.63673,0.0954-0.10261,0.18746,0.90313,0.37558z" fill-rule="evenodd" stroke="#FFF" stroke-dasharray="none" stroke-miterlimit="4" stroke-width="0.3" fill="#250"/>
 <path d="m83.827,201.54-6.1256,1.1886-0.05525-0.32954,6.1808-0.85903z" fill-rule="evenodd" stroke="#FFF" stroke-dasharray="none" stroke-miterlimit="4" stroke-width="0.1" fill="#FFF"/>
 <path d="m78.953,210.57-0.95443,0.21772,0.06972,0.20259-0.64329-0.0138,0.03024,0.23548-0.76169,0.009,0.12103,0.25061-0.76825-0.004,0.11116,0.33546-0.7755-0.0803,0.03749,0.26772-1.0504-0.26311,0.01909,0.21575c-0.4874-0.123-0.91694-0.37295-1.2195-0.90244l-0.10327,0.11774c-0.20917-0.88734-0.28284-1.7793-0.06841-2.6594,0.37822-0.8235,0.98926-1.4774,1.7043-2.043l0.0079,0.15655c0.565-0.22759,1.057-0.15721,1.5161,0.0493l-0.14865,0.15655,0.98664,0.44596-0.19536,0.18681,0.65775,0.41767-0.29468,0.1947,0.60447,0.47359-0.25061,0.12169,0.59199,0.47885-0.17036,0.16576,0.51306,0.38873-0.17957,0.11512,0.61305,0.76302z" fill-rule="evenodd" stroke="#FFF" stroke-dasharray="none" stroke-miterlimit="4" stroke-width="0.3" fill="#250"/>
 <path d="m78.889,210.54-5.947-1.8917,0.10985-0.31507,5.837,2.2068z" fill-rule="evenodd" stroke="#FFF" stroke-dasharray="none" stroke-miterlimit="4" stroke-width="0.1" fill="#FFF"/>
 <path d="m79.58,199.2-0.45846,0.8643,0.19864,0.0796-0.43083,0.47819,0.19865,0.1309-0.49135,0.58212,0.26902,0.0717-0.50516,0.5795,0.32691,0.1355-0.56767,0.53412,0.22693,0.14668-0.88537,0.62356,0.17562,0.12629c-0.41176,0.28876-0.88142,0.45057-1.4793,0.33348l0.02106,0.15524c-0.80841-0.42097-1.5313-0.94782-2.0575-1.6858-0.3769-0.8242-0.47228-1.7135-0.43412-2.6245l0.12366,0.096c0.19733-0.5762,0.57225-0.90312,1.0281-1.1156l0.02171,0.21509,0.98206-0.45583,0.01381,0.26968,0.7459-0.22495-0.04538,0.35058,0.7538-0.14799-0.07169,0.26903,0.74921-0.13551,0.01445,0.23746,0.62948-0.13484-0.03024,0.21179,0.97811,0.0342z" fill-rule="evenodd" stroke="#FFF" stroke-dasharray="none" stroke-miterlimit="4" stroke-width="0.3" fill="#250"/>
 <path d="m79.525,199.23-5.3165,3.2664-0.16773-0.28942,5.4843-2.977z" fill-rule="evenodd" stroke="#FFF" stroke-dasharray="none" stroke-miterlimit="4" stroke-width="0.1" fill="#FFF"/>
 <path d="m79.654,206.46-0.80249,0.55908,0.1401,0.16181-0.60185,0.22824,0.11642,0.2072-0.70249,0.29336,0.20588,0.18681-0.71369,0.28481,0.2289,0.26902-0.74921,0.21575,0.13484,0.23482-1.0721,0.14931,0.09866,0.19273c-0.4986,0.0684-0.99059-0.002-1.4688-0.37953l-0.05196,0.148c-0.52687-0.74393-0.92878-1.5438-1.0597-2.4403,0.04208-0.9051,0.36308-1.7398,0.81364-2.5324l0.06644,0.14207c0.43873-0.42294,0.92153-0.54201,1.4241-0.52292l-0.07893,0.20128,1.0814,0.0434-0.1105,0.24666,0.76628,0.14076-0.20062,0.29073,0.73801,0.21312-0.1868,0.20654,0.72814,0.22232-0.09538,0.21772,0.62159,0.16773-0.12366,0.1743,0.85379,0.47754z" fill-rule="evenodd" stroke="#FFF" stroke-dasharray="none" stroke-miterlimit="4" stroke-width="0.3" fill="#250"/>
 <path d="m79.589,206.46-6.2223,0.47491-0.01643-0.33349,6.2391-0.14142z" fill-rule="evenodd" stroke="#FFF" stroke-dasharray="none" stroke-miterlimit="4" stroke-width="0.1" fill="#FFF"/>
 <path d="m78.396,204.01-0.80313,0.55977,0.1401,0.16116-0.60121,0.22824,0.11642,0.20785-0.70313,0.29271,0.20654,0.1868-0.71369,0.28481,0.22825,0.26969-0.74852,0.21574,0.13418,0.23417-1.0721,0.14997,0.09866,0.19206c-0.49791,0.0691-0.98995-0.002-1.4688-0.37887l-0.05131,0.148c-0.52687-0.74457-0.92878-1.5438-1.0603-2.4403,0.04208-0.9051,0.36374-1.7404,0.81433-2.5331l0.06578,0.14207c0.43938-0.42228,0.92153-0.54132,1.4241-0.52228l-0.07893,0.20128,1.082,0.0434-0.11117,0.24666,0.76628,0.14076-0.20062,0.29074,0.73865,0.21245-0.1868,0.20654,0.72814,0.22233-0.09538,0.21771,0.62095,0.16773-0.12366,0.17431,0.85444,0.47754z" fill-rule="evenodd" stroke="#FFF" stroke-dasharray="none" stroke-miterlimit="4" stroke-width="0.3" fill="#250"/>
 <path d="m78.331,204.02-6.2223,0.47491-0.01643-0.33349,6.2391-0.14142z" fill-rule="evenodd" stroke="#FFF" stroke-dasharray="none" stroke-miterlimit="4" stroke-width="0.1" fill="#FFF"/>
 <path d="m74.306,212.34-0.95048-0.23417-0.02827,0.2118-0.56895-0.30125-0.07893,0.22429-0.68409-0.3348-0.0039,0.27824-0.68473-0.34796-0.05196,0.34927-0.65646-0.42031-0.08683,0.25587-0.82025-0.70644-0.07959,0.20062c-0.38084-0.32888-0.65183-0.74526-0.68409-1.3537l-0.14537,0.0585c0.21114-0.88665,0.5466-1.7161,1.134-2.4061,0.70777-0.56634,1.5471-0.8755,2.4396-1.0603l-0.06314,0.14339c0.60777,0.0506,1.0156,0.3348,1.3326,0.72553l-0.20325,0.073,0.68143,0.84126-0.2585,0.0796,0.39992,0.66894-0.35125,0.0408,0.32757,0.69524-0.27823-0.004,0.31375,0.69396-0.22693,0.0717,0.28415,0.57753-0.21312,0.0224,0.20522,0.95705z" fill-rule="evenodd" stroke="#FFF" stroke-dasharray="none" stroke-miterlimit="4" stroke-width="0.3" fill="#250"/>
 <path d="m74.257,212.29-4.4636-4.3616,0.24008-0.23219,4.2235,4.5938z" fill-rule="evenodd" stroke="#FFF" stroke-dasharray="none" stroke-miterlimit="4" stroke-width="0.1" fill="#FFF"/>
 <path d="m74.311,199.21-0.41899,0.88403,0.20193,0.0704-0.40913,0.49727,0.20456,0.12169-0.46504,0.60383,0.27231,0.0598-0.4782,0.60122,0.33217,0.12037-0.54266,0.55977,0.2335,0.13616-0.85641,0.66238,0.18089,0.1184c-0.39795,0.30718-0.86036,0.49003-1.4628,0.39992l0.02827,0.15457c-0.82617-0.38479-1.5727-0.87875-2.1318-1.5918-0.41307-0.80644-0.54922-1.6905-0.55119-2.6021l0.12761,0.0901c0.17102-0.58474,0.53082-0.92745,0.97678-1.1609l0.03093,0.21444,0.96035-0.49989,0.02629,0.26903,0.7354-0.2585-0.0296,0.3519,0.7459-0.18154-0.0592,0.27166,0.7426-0.16905,0.02501,0.2368,0.62292-0.16313-0.02106,0.21311,0.97875-0.01z" fill-rule="evenodd" stroke="#FFF" stroke-dasharray="none" stroke-miterlimit="4" stroke-width="0.3" fill="#250"/>
 <path d="m74.252,199.25-5.1646,3.5026-0.18022-0.28152,5.3452-3.221z" fill-rule="evenodd" stroke="#FFF" stroke-dasharray="none" stroke-miterlimit="4" stroke-width="0.1" fill="#FFF"/>
 <path d="m75.179,205.48-0.80249,0.55977,0.1401,0.16115-0.60185,0.22825,0.11642,0.20719-0.70249,0.29337,0.20588,0.1868-0.71369,0.28482,0.22824,0.26902-0.74852,0.21574,0.13484,0.23483-1.0721,0.14931,0.098,0.19273c-0.49791,0.0684-0.98995-0.002-1.4681-0.37954l-0.05196,0.148c-0.52687-0.74393-0.92878-1.5438-1.0597-2.4403,0.04208-0.9051,0.36309-1.7398,0.81364-2.5324l0.06644,0.14207c0.43873-0.42294,0.92153-0.54201,1.4241-0.52228l-0.07893,0.20062,1.0814,0.0434-0.1105,0.24666,0.76628,0.14077-0.20062,0.29073,0.73801,0.21311-0.1868,0.20654,0.72814,0.22167-0.09538,0.21838,0.62159,0.16772-0.12366,0.17431,0.85379,0.47754z" fill-rule="evenodd" stroke="#FFF" stroke-dasharray="none" stroke-miterlimit="4" stroke-width="0.3" fill="#250"/>
 <path d="m75.11,205.48-6.2223,0.4749-0.01643-0.33414,6.2391-0.14076z" fill-rule="evenodd" stroke="#FFF" stroke-dasharray="none" stroke-miterlimit="4" stroke-width="0.1" fill="#FFF"/>
 <path d="m70.315,212.62-0.94979-0.23416-0.02896,0.2118-0.56831-0.30126-0.07893,0.2243-0.68409-0.3348-0.0044,0.27889-0.68473-0.34862-0.05196,0.34928-0.65577-0.42031-0.08749,0.25587-0.82025-0.70644-0.07959,0.20128c-0.38018-0.32954-0.65183-0.74527-0.68409-1.3543l-0.14537,0.0592c0.2118-0.88665,0.5466-1.7168,1.134-2.4068,0.70777-0.56569,1.5471-0.8755,2.4403-1.0596l-0.06314,0.14338c0.60713,0.0506,1.0149,0.33481,1.332,0.72484l-0.20325,0.0737,0.68143,0.84126-0.2585,0.0789,0.39992,0.66894-0.35058,0.0414,0.3269,0.6946-0.27823-0.004,0.31375,0.69396-0.22693,0.0717,0.28415,0.57818-0.21246,0.0217,0.20456,0.95705z" fill-rule="evenodd" stroke="#FFF" stroke-dasharray="none" stroke-miterlimit="4" stroke-width="0.3" fill="#250"/>
 <path d="m70.271,212.57-4.4629-4.361,0.23942-0.23285,4.2235,4.5938z" fill-rule="evenodd" stroke="#FFF" stroke-dasharray="none" stroke-miterlimit="4" stroke-width="0.1" fill="#FFF"/>
 <path d="m70.576,200.19-0.419,0.88468,0.20194,0.0704-0.40847,0.49663,0.2039,0.12234-0.46438,0.60319,0.27165,0.0599-0.47754,0.60185,0.33151,0.12037-0.54265,0.55908,0.23351,0.13682-0.85577,0.66238,0.18089,0.1184c-0.3986,0.30652-0.86036,0.49004-1.4635,0.39992l0.02896,0.15392c-0.82681-0.38414-1.5727-0.87811-2.1318-1.5911-0.41373-0.80644-0.54922-1.6911-0.55188-2.6028l0.1276,0.0908c0.17102-0.58474,0.53082-0.92809,0.97678-1.1609l0.03157,0.21378,0.96035-0.49989,0.02629,0.26903,0.7347-0.25784-0.0296,0.3519,0.74654-0.1822-0.05985,0.27232,0.7426-0.16905,0.02501,0.23614,0.62292-0.16247-0.02037,0.21246,0.97811-0.01z" fill-rule="evenodd" stroke="#FFF" stroke-dasharray="none" stroke-miterlimit="4" stroke-width="0.3" fill="#250"/>
 <path d="m70.517,200.22-5.1646,3.5026-0.17957-0.28087,5.3442-3.2217z" fill-rule="evenodd" stroke="#FFF" stroke-dasharray="none" stroke-miterlimit="4" stroke-width="0.1" fill="#FFF"/>
 <path d="m70.769,206.11-0.80313,0.55977,0.1401,0.16115-0.60185,0.22825,0.11708,0.20719-0.70313,0.29337,0.20588,0.1868-0.713,0.28481,0.22824,0.26968-0.74921,0.21575,0.13484,0.23416-1.0721,0.14998,0.09866,0.19207c-0.4986,0.0691-0.99059-0.002-1.4688-0.37954l-0.05197,0.148c-0.52623-0.74393-0.92878-1.5431-1.0597-2.4396,0.04208-0.90574,0.36309-1.7404,0.81364-2.5331l0.06643,0.14207c0.43873-0.42294,0.92153-0.54132,1.4241-0.52228l-0.07893,0.20128,1.0814,0.0428-0.1105,0.24666,0.76628,0.14077-0.20062,0.29073,0.73801,0.21311-0.18681,0.20654,0.72878,0.22232-0.09603,0.21772,0.62159,0.16773-0.12366,0.17431,0.85444,0.47754z" fill-rule="evenodd" stroke="#FFF" stroke-dasharray="none" stroke-miterlimit="4" stroke-width="0.3" fill="#250"/>
 <path d="m70.705,206.11-6.2218,0.47491-0.01712-0.33349,6.2391-0.14142z" fill-rule="evenodd" stroke="#FFF" stroke-dasharray="none" stroke-miterlimit="4" stroke-width="0.1" fill="#FFF"/>
 <path d="m66.117,212.76-0.95048-0.23416-0.02827,0.2118-0.56895-0.30126-0.07893,0.2243-0.68409-0.3348-0.0039,0.27823-0.68537-0.34795-0.05131,0.34927-0.65646-0.42031-0.08748,0.25587-0.81956-0.70644-0.07959,0.20061c-0.38084-0.32887-0.65252-0.74526-0.68473-1.3537l-0.14471,0.0585c0.21114-0.88665,0.5466-1.7161,1.1333-2.4061,0.70777-0.5657,1.5477-0.8755,2.4403-1.0603l-0.06315,0.14339c0.60713,0.0513,1.0149,0.33546,1.3326,0.72553l-0.20325,0.073,0.68078,0.84127-0.25784,0.0796,0.39992,0.66894-0.35125,0.0408,0.32757,0.69524-0.27823-0.004,0.31375,0.69396-0.22693,0.0717,0.28415,0.57754-0.21312,0.0223,0.20522,0.95705z" fill-rule="evenodd" stroke="#FFF" stroke-dasharray="none" stroke-miterlimit="4" stroke-width="0.3" fill="#250"/>
 <path d="m66.072,212.71-4.4636-4.3616,0.24008-0.23218,4.2235,4.5938z" fill-rule="evenodd" stroke="#FFF" stroke-dasharray="none" stroke-miterlimit="4" stroke-width="0.1" fill="#FFF"/>
 <path d="m65.914,199.91-0.419,0.88467,0.20194,0.0704-0.40913,0.49727,0.20457,0.12169-0.46504,0.60318,0.27231,0.0599-0.47819,0.60185,0.33217,0.12037-0.54266,0.55908,0.23285,0.13682-0.85577,0.66238,0.18088,0.1184c-0.39794,0.30651-0.86036,0.49003-1.4628,0.39992l0.02827,0.15391c-0.82681-0.38413-1.5727-0.87811-2.1318-1.5911-0.41307-0.80644-0.54922-1.6911-0.55188-2.6028l0.12826,0.0908c0.17102-0.58474,0.53082-0.92809,0.97614-1.1609l0.03157,0.21377,0.96035-0.49924,0.02629,0.26903,0.7354-0.25851-0.03024,0.35191,0.74655-0.1822-0.0592,0.27231,0.7426-0.16904,0.02501,0.23613,0.62223-0.16246-0.02038,0.21246,0.97875-0.01z" fill-rule="evenodd" stroke="#FFF" stroke-dasharray="none" stroke-miterlimit="4" stroke-width="0.3" fill="#250"/>
 <path d="m65.855,199.94-5.1641,3.5032-0.18023-0.28152,5.3442-3.2217z" fill-rule="evenodd" stroke="#FFF" stroke-dasharray="none" stroke-miterlimit="4" stroke-width="0.1" fill="#FFF"/>
 <path d="m65.949,204.26-0.80313,0.55977,0.14076,0.16116-0.60185,0.22824,0.11642,0.20786-0.70313,0.2927,0.20654,0.18681-0.71369,0.28481,0.22825,0.26968-0.74852,0.21574,0.13484,0.23417-1.0721,0.14997,0.098,0.19207c-0.49791,0.0691-0.98995-0.002-1.4688-0.37888l-0.05131,0.14734c-0.52687-0.74393-0.92878-1.5431-1.0603-2.4396,0.04208-0.9051,0.36374-1.7404,0.81433-2.5331l0.06578,0.14208c0.43938-0.42228,0.92153-0.54132,1.4241-0.52228l-0.07893,0.20127,1.082,0.0434-0.11117,0.246,0.76628,0.14142-0.20062,0.29073,0.73865,0.21246-0.1868,0.20654,0.72814,0.22232-0.09538,0.21772,0.62094,0.16773-0.12366,0.17431,0.85443,0.47753z" fill-rule="evenodd" stroke="#FFF" stroke-dasharray="none" stroke-miterlimit="4" stroke-width="0.3" fill="#250"/>
 <path d="m65.88,204.26-6.2223,0.47491-0.01643-0.33348,6.2391-0.14143z" fill-rule="evenodd" stroke="#FFF" stroke-dasharray="none" stroke-miterlimit="4" stroke-width="0.1" fill="#FFF"/>
 <path d="m65.648,208.05-0.93337,0.2927,0.08551,0.19601-0.64265,0.0369,0.04869,0.23284-0.75838,0.0684,0.14076,0.24074-0.76628,0.0572,0.13747,0.32559-0.77945-0.0191,0.05854,0.26442-1.0682-0.17891,0.03616,0.21311c-0.49594-0.0842-0.94387-0.29928-1.2872-0.80248l-0.0934,0.12497c-0.2789-0.86761-0.42294-1.751-0.2789-2.6455,0.31178-0.85049,0.86889-1.551,1.5366-2.172l0.02037,0.15589c0.54527-0.27166,1.0419-0.24074,1.5155-0.071l-0.13616,0.16773,1.0189,0.36637-0.17957,0.20194,0.68868,0.36374-0.27823,0.21772,0.63999,0.42425-0.24009,0.14077,0.62815,0.43083-0.15655,0.17891,0.54266,0.34664-0.17036,0.12893,0.67092,0.71236z" fill-rule="evenodd" stroke="#FFF" stroke-dasharray="none" stroke-miterlimit="4" stroke-width="0.3" fill="#250"/>
 <path d="m65.584,208.03-6.0782-1.4135,0.0842-0.32362,5.9944,1.7371z" fill-rule="evenodd" stroke="#FFF" stroke-dasharray="none" stroke-miterlimit="4" stroke-width="0.1" fill="#FFF"/>
 <path d="m61.149,211.78-0.94979-0.23416-0.02896,0.2118-0.56895-0.30126-0.07827,0.2243-0.68409-0.3348-0.0044,0.27823-0.68473-0.34795-0.05196,0.34927-0.65646-0.42031-0.08682,0.25586-0.82025-0.70643-0.07959,0.20062c-0.38019-0.32889-0.65183-0.74527-0.68409-1.3537l-0.14536,0.0585c0.2118-0.88665,0.5466-1.7161,1.134-2.4061,0.70777-0.56569,1.5471-0.8755,2.4403-1.0603l-0.06314,0.14339c0.60713,0.0513,1.0149,0.33546,1.332,0.72553l-0.20325,0.073,0.68143,0.84126-0.2585,0.0796,0.39992,0.66894-0.35059,0.0408,0.32691,0.69524-0.27823-0.004,0.31375,0.69396-0.22693,0.0717,0.28415,0.57754-0.21246,0.0223,0.20457,0.95705z" fill-rule="evenodd" stroke="#FFF" stroke-dasharray="none" stroke-miterlimit="4" stroke-width="0.3" fill="#250"/>
 <path d="m61.105,211.73-4.4629-4.3616,0.23942-0.2322,4.2235,4.5938z" fill-rule="evenodd" stroke="#FFF" stroke-dasharray="none" stroke-miterlimit="4" stroke-width="0.1" fill="#FFF"/>
 <path d="m61.055,199.91-0.41899,0.88403,0.20193,0.0704-0.40913,0.49727,0.20457,0.12235-0.46504,0.60318,0.27231,0.0599-0.47819,0.60121,0.33217,0.12103-0.54266,0.55908,0.23285,0.13615-0.85577,0.66303,0.18089,0.11774c-0.39795,0.30718-0.86036,0.49003-1.4628,0.40058l0.02827,0.15392c-0.82681-0.38414-1.5727-0.87876-2.1318-1.5918-0.41308-0.80643-0.54922-1.6905-0.55188-2.6021l0.12826,0.0901c0.17102-0.58473,0.53082-0.92744,0.97614-1.1603l0.03157,0.21378,0.96035-0.49989,0.02629,0.26903,0.7354-0.2585-0.03024,0.3519,0.74655-0.18154-0.0592,0.27166,0.7426-0.16905,0.02501,0.23679,0.62292-0.16312-0.02107,0.21311,0.97875-0.01z" fill-rule="evenodd" stroke="#FFF" stroke-dasharray="none" stroke-miterlimit="4" stroke-width="0.3" fill="#250"/>
 <path d="m60.996,199.94-5.1641,3.5026-0.18023-0.28153,5.3442-3.221z" fill-rule="evenodd" stroke="#FFF" stroke-dasharray="none" stroke-miterlimit="4" stroke-width="0.1" fill="#FFF"/>
 <path d="m60.976,205.41-0.80313,0.55908,0.14076,0.16181-0.60185,0.22824,0.11642,0.2072-0.70313,0.2927,0.20654,0.18681-0.71369,0.28481,0.22825,0.26968-0.74852,0.21575,0.13484,0.23416-1.0721,0.14997,0.098,0.19273c-0.49791,0.0684-0.98995-0.002-1.4688-0.37953l-0.05131,0.14799c-0.52687-0.74457-0.92878-1.5438-1.0597-2.4403,0.04144-0.9051,0.36309-1.7404,0.81364-2.5331l0.06644,0.14208c0.43873-0.42229,0.92153-0.54132,1.4241-0.52228l-0.07959,0.20127,1.082,0.0434-0.11116,0.24666,0.76697,0.14076-0.20128,0.29073,0.73865,0.21246-0.1868,0.20654,0.72814,0.22232-0.09538,0.21772,0.62159,0.16773-0.12432,0.17497,0.85444,0.47753z" fill-rule="evenodd" stroke="#FFF" stroke-dasharray="none" stroke-miterlimit="4" stroke-width="0.3" fill="#250"/>
 <path d="m60.907,205.41-6.2223,0.4749-0.01643-0.33348,6.2391-0.14142z" fill-rule="evenodd" stroke="#FFF" stroke-dasharray="none" stroke-miterlimit="4" stroke-width="0.1" fill="#FFF"/>
 <path d="m55.826,212.5-0.90638-0.36834-0.0592,0.20587-0.51898-0.38019-0.1105,0.21115-0.62884-0.43018-0.04405,0.27495-0.62815-0.44268-0.10129,0.33809-0.58868-0.50975-0.123,0.24074-0.71038-0.81758-0.10788,0.18746c-0.32888-0.38019-0.53807-0.83139-0.48214-1.4379l-0.1526,0.0375c0.33678-0.84718,0.78798-1.6201,1.4681-2.2193,0.78142-0.45781,1.6569-0.64394,2.5672-0.69791l-0.08353,0.13287c0.59396,0.13748,0.95705,0.47688,1.2149,0.90905l-0.2118,0.0434,0.55316,0.93006-0.26706,0.0414,0.29928,0.71961-0.35256-0.01,0.22364,0.73471-0.27495-0.0441,0.21114,0.73209-0.23482,0.0388,0.19799,0.61236-0.21378-0.009,0.06512,0.97613z" fill-rule="evenodd" stroke="#FFF" stroke-dasharray="none" stroke-miterlimit="4" stroke-width="0.3" fill="#250"/>
 <path d="m55.787,212.44-3.7907-4.9574,0.271-0.19535,3.5197,5.1528z" fill-rule="evenodd" stroke="#FFF" stroke-dasharray="none" stroke-miterlimit="4" stroke-width="0.1" fill="#FFF"/>
 <path d="m56.749,199.27-0.41834,0.88468,0.20193,0.0704-0.40913,0.49663,0.2039,0.12234-0.46438,0.60319,0.27166,0.0599-0.47754,0.60186,0.33217,0.12037-0.54265,0.55908,0.23285,0.13681-0.85577,0.66239,0.18089,0.11773c-0.3986,0.30718-0.86036,0.49004-1.4635,0.40058l0.02896,0.15392c-0.82681-0.38413-1.5727-0.87812-2.1318-1.5911-0.41308-0.80644-0.54922-1.6911-0.55188-2.6028l0.12826,0.0908c0.17102-0.58543,0.53082-0.92809,0.97614-1.1609l0.03157,0.21377,0.96035-0.49988,0.02629,0.26902,0.7347-0.2585-0.0296,0.35256,0.74654-0.1822-0.05986,0.27166,0.7426-0.16839,0.02565,0.23614,0.62223-0.16313-0.02037,0.21312,0.97811-0.01z" fill-rule="evenodd" stroke="#FFF" stroke-dasharray="none" stroke-miterlimit="4" stroke-width="0.3" fill="#250"/>
 <path d="m56.694,199.31-5.1646,3.5026-0.17957-0.28086,5.3442-3.2218z" fill-rule="evenodd" stroke="#FFF" stroke-dasharray="none" stroke-miterlimit="4" stroke-width="0.1" fill="#FFF"/>
 <path d="m56.497,203.94-0.80313,0.55977,0.14076,0.16115-0.60185,0.22824,0.11642,0.2072-0.70313,0.29336,0.20654,0.1868-0.71369,0.28482,0.22824,0.26902-0.74852,0.21575,0.13484,0.23482-1.0721,0.14997,0.09801,0.19207c-0.49791,0.0691-0.98995-0.002-1.4688-0.37953l-0.05131,0.14799c-0.52687-0.74393-0.92878-1.5431-1.0603-2.4403,0.04209-0.9051,0.36374-1.7398,0.81433-2.5324l0.06578,0.14208c0.43939-0.42294,0.92153-0.54202,1.4241-0.52228l-0.07893,0.20127,1.082,0.0428-0.11116,0.24667,0.76697,0.14076-0.20128,0.29073,0.73865,0.21312-0.1868,0.20653,0.72814,0.22233-0.09538,0.21772,0.62094,0.16773-0.12366,0.1743,0.85443,0.47754z" fill-rule="evenodd" stroke="#FFF" stroke-dasharray="none" stroke-miterlimit="4" stroke-width="0.3" fill="#250"/>
 <path d="m56.433,203.94-6.2223,0.4749-0.01644-0.33349,6.2391-0.14141z" fill-rule="evenodd" stroke="#FFF" stroke-dasharray="none" stroke-miterlimit="4" stroke-width="0.1" fill="#FFF"/>
 <path d="m56.778,207.02-0.80249,0.55908,0.1401,0.16181-0.60185,0.22825,0.11642,0.20719-0.70249,0.2927,0.20588,0.18747-0.71369,0.28415,0.2289,0.26969-0.74921,0.21574,0.13484,0.23482-1.0721,0.14932,0.09866,0.19272c-0.4986,0.0684-0.99059-0.002-1.4688-0.37953l-0.05196,0.148c-0.52623-0.74393-0.92878-1.5438-1.0597-2.4403,0.0421-0.9051,0.36308-1.7404,0.81364-2.5324l0.06644,0.14208c0.43873-0.42294,0.92153-0.54201,1.4241-0.52292l-0.07893,0.20128,1.0814,0.0434-0.1105,0.24666,0.76628,0.14076-0.20062,0.29073,0.73801,0.21312-0.18681,0.20654,0.72878,0.22166-0.09604,0.21838,0.62159,0.16773-0.12366,0.17431,0.85379,0.47753z" fill-rule="evenodd" stroke="#FFF" stroke-dasharray="none" stroke-miterlimit="4" stroke-width="0.3" fill="#250"/>
 <path d="m56.709,207.02-6.2223,0.47556-0.01644-0.33414,6.2391-0.14142z" fill-rule="evenodd" stroke="#FFF" stroke-dasharray="none" stroke-miterlimit="4" stroke-width="0.1" fill="#FFF"/>
 <path d="m49.802,212.04-0.59791-0.77486-0.15457,0.14799-0.25718-0.59001-0.20128,0.12629-0.32691-0.68735-0.17694,0.21509-0.31902-0.69918-0.25784,0.24139-0.25192-0.73736-0.22758,0.14602-0.20193-1.0636-0.18746,0.10787c-0.09274-0.49466-0.04604-0.98926,0.30783-1.4859l-0.15063-0.0441c0.71764-0.56238,1.4964-1.0031,2.3857-1.1774,0.90638-0.002,1.7562,0.27823,2.5699,0.68932l-0.13879,0.073c0.44333,0.41768,0.58543,0.8939,0.59066,1.3971l-0.20456-0.0691,0.0092,1.0827-0.25126-0.0993-0.10327,0.77289-0.3006-0.18681-0.17628,0.74788-0.21574-0.17628-0.18615,0.73801-0.22233-0.0848-0.13747,0.62884-0.18022-0.11511-0.43544,0.87678z" fill-rule="evenodd" stroke="#FFF" stroke-dasharray="none" stroke-miterlimit="4" stroke-width="0.3" fill="#250"/>
 <path d="m49.796,211.97-0.77684-6.1917,0.33217-0.0329,0.44465,6.2242z" fill-rule="evenodd" stroke="#FFF" stroke-dasharray="none" stroke-miterlimit="4" stroke-width="0.1" fill="#FFF"/>
 <path d="m41.082,205.76,0.7538-0.6242-0.15326-0.14931,0.58079-0.27758-0.13353-0.19667,0.67684-0.34993-0.22101-0.1697,0.68735-0.3427-0.24995-0.24929,0.72814-0.27692-0.15326-0.22298,1.0557-0.23745-0.1138-0.18417c0.49069-0.1092,0.98729-0.0796,1.4951,0.25652l0.03947-0.15128c0.58607,0.6979,1.0531,1.4616,1.2576,2.3443,0.03355,0.90509-0.21772,1.7641-0.60121,2.5909l-0.07762-0.13616c-0.40255,0.4578-0.87353,0.61631-1.376,0.6387l0.06183-0.20719-1.0814,0.0467,0.09011-0.25521-0.7755-0.077,0.17628-0.30652-0.7538-0.15063,0.16905-0.22101-0.74393-0.16115,0.07696-0.22495-0.63278-0.11643,0.10853-0.18351-0.8906-0.40519z" fill-rule="evenodd" stroke="#FFF" stroke-dasharray="none" stroke-miterlimit="4" stroke-width="0.3" fill="#250"/>
 <path d="m41.148,205.75,6.1621-0.98798,0.04407,0.33086-6.206,0.6571z" fill-rule="evenodd" stroke="#FFF" stroke-dasharray="none" stroke-miterlimit="4" stroke-width="0.1" fill="#FFF"/>
 <path d="m43.325,200.29,0.95704,0.20588,0.02236-0.21246,0.57684,0.28482,0.07235-0.22693,0.69396,0.31507-0.0039-0.27824,0.6946,0.32823,0.04144-0.35125,0.6683,0.40124,0.07959-0.2585,0.84062,0.68275,0.07367-0.20324c0.39006,0.3177,0.67353,0.72617,0.72356,1.3333l0.14339-0.0631c-0.18614,0.89257-0.49663,1.7319-1.0636,2.439-0.69129,0.58607-1.5214,0.91955-2.4081,1.13l0.05854-0.14536c-0.60841-0.0329-1.0241-0.3052-1.353-0.68606l0.20128-0.0789-0.70511-0.82153,0.25587-0.0868-0.41966-0.65646,0.34993-0.0513-0.3473-0.68537,0.27823-0.004-0.33349-0.68473,0.2243-0.0783-0.3006-0.56894,0.2118-0.0283-0.23285-0.95049z" fill-rule="evenodd" stroke="#FFF" stroke-dasharray="none" stroke-miterlimit="4" stroke-width="0.3" fill="#250"/>
 <path d="m43.373,200.34,4.5885,4.2301-0.23285,0.23942-4.3557-4.4695z" fill-rule="evenodd" stroke="#FFF" stroke-dasharray="none" stroke-miterlimit="4" stroke-width="0.1" fill="#FFF"/>
 <path d="m52.373,198.16-0.10919,0.97219,0.21443,0.001-0.22561,0.60249,0.23285,0.0493-0.24338,0.72158,0.27626-0.0316-0.25653,0.72419,0.35322,0.006-0.33151,0.70511,0.26508,0.0533-0.5946,0.9051,0.20983,0.0526c-0.27758,0.41966-0.65513,0.74329-1.2544,0.8538l0.07696,0.13616c-0.90638-0.0947-1.7727-0.31968-2.5331-0.81236-0.65252-0.62884-1.0682-1.4208-1.3668-2.2824l0.15063,0.044c-0.02828-0.60911,0.20062-1.0498,0.5466-1.4148l0.09866,0.19206,0.7459-0.78472,0.11248,0.246,0.61108-0.48346,0.08617,0.3427,0.64724-0.41439,0.03157,0.27691,0.64788-0.40123,0.10064,0.21574,0.53609-0.3565,0.04933,0.20785,0.92217-0.32691z" fill-rule="evenodd" stroke="#FFF" stroke-dasharray="none" stroke-miterlimit="4" stroke-width="0.3" fill="#250"/>
 <path d="m52.328,198.22-3.7466,4.99-0.26179-0.20719,4.0084-4.7826z" fill-rule="evenodd" stroke="#FFF" stroke-dasharray="none" stroke-miterlimit="4" stroke-width="0.1" fill="#FFF"/>
 <path d="m47.617,196.44,0.64527,0.73539,0.14471-0.1572,0.29402,0.57289,0.19338-0.13945,0.36966,0.66634,0.16247-0.22628,0.36243,0.67748,0.24272-0.25718,0.29797,0.72025,0.21772-0.15984,0.26837,1.0485,0.18022-0.11905c0.12366,0.4874,0.10853,0.98403-0.21312,1.5017l0.1526,0.0349c-0.68078,0.60644-1.43,1.0952-2.3068,1.3254-0.90377,0.0592-1.77-0.16707-2.6074-0.52623l0.13353-0.0816c-0.46899-0.3894-0.64068-0.85577-0.67817-1.357l0.20917,0.0559-0.07761-1.0794,0.25718,0.0822,0.0546-0.77684,0.31112,0.16707,0.12892-0.75774,0.22627,0.16247,0.13945-0.74852,0.22758,0.071,0.09735-0.63673,0.18681,0.10392,0.37953-0.90243z" fill-rule="evenodd" stroke="#FFF" stroke-dasharray="none" stroke-miterlimit="4" stroke-width="0.3" fill="#250"/>
 <path d="m47.627,196.51,1.1662,6.1305-0.3302,0.0539-0.83603-6.1843z" fill-rule="evenodd" stroke="#FFF" stroke-dasharray="none" stroke-miterlimit="4" stroke-width="0.1" fill="#FFF"/>
 <path d="m43.724,209.4,0.11577-0.9715-0.21377-0.002,0.22956-0.60121-0.23219-0.0507,0.24798-0.72025-0.27626,0.0302,0.26179-0.72222-0.35322-0.009,0.33678-0.70313-0.26508-0.0553,0.60121-0.90046-0.20917-0.0539c0.28021-0.41834,0.66041-0.73865,1.2603-0.84521l-0.0763-0.13681c0.90574,0.10129,1.7707,0.33283,2.5271,0.83075,0.64857,0.63343,1.0583,1.4287,1.3511,2.2923l-0.15063-0.0454c0.02434,0.60911-0.20785,1.0485-0.55647,1.4109l-0.09801-0.19272-0.75118,0.77945-0.1105-0.24666-0.61502,0.47885-0.08353-0.34335-0.64985,0.40978-0.03026-0.27692-0.64985,0.39663-0.09932-0.2164-0.53871,0.35256-0.04801-0.20851-0.92414,0.32033z" fill-rule="evenodd" stroke="#FFF" stroke-dasharray="none" stroke-miterlimit="4" stroke-width="0.3" fill="#250"/>
 <path d="m43.766,209.35,3.7828-4.9633,0.25982,0.20982-4.0426,4.7537z" fill-rule="evenodd" stroke="#FFF" stroke-dasharray="none" stroke-miterlimit="4" stroke-width="0.1" fill="#FFF"/>
 <path d="m51.564,206.23-0.97742,0.0381,0.03092,0.21179-0.63012-0.13155-0.01316,0.23746-0.75049-0.13221,0.07367,0.26836-0.75513-0.1447,0.04736,0.35058-0.74724-0.22166-0.0125,0.26968-0.98403-0.45123-0.02105,0.21509c-0.45649-0.21048-0.83273-0.5354-1.0327-1.111l-0.123,0.0967c-0.04276-0.91033,0.04933-1.801,0.42163-2.6264,0.52292-0.73998,1.2438-1.2702,2.0502-1.6951l-0.02039,0.15524c0.59727-0.11972,1.0682,0.0401,1.4806,0.3269l-0.17431,0.12696,0.88734,0.61961-0.22627,0.148,0.57028,0.53145-0.32625,0.13682,0.50778,0.57684-0.26902,0.073,0.49396,0.58015-0.19798,0.13155,0.43347,0.47622-0.19865,0.0802,0.46241,0.86297z" fill-rule="evenodd" stroke="#FFF" stroke-dasharray="none" stroke-miterlimit="4" stroke-width="0.3" fill="#250"/>
 <path d="m51.505,206.2-5.4981-2.952,0.16576-0.29008,5.3323,3.2421z" fill-rule="evenodd" stroke="#FFF" stroke-dasharray="none" stroke-miterlimit="4" stroke-width="0.1" fill="#FFF"/>
 <path d="m55.283,146.87,0,4.8227-2.7074,4.6293,1.8292-0.0414-1.9851,3.2855,2.0397-0.25258-1.211,3.7492,2.7034-1.1129,14.468,0,2.7034,1.1129-1.211-3.7492,2.0404,0.25258-1.9858-3.2855,1.8292,0.0414-2.7067-4.6293,0-4.9505-15.807,0.1276z" fill-rule="evenodd" stroke="#FFF" stroke-dasharray="none" stroke-miterlimit="4" stroke-width="0.5" fill="#d40000"/>
 <path d="m63.186,154.35-5.9278,0-1.797,3.2099,0.89129-0.0112-1.724,3.2704,1.259-0.29862-0.20917,3.667,1.524-0.93273,0.40387,2.2496,1.6023-0.96494,0.97614,2.2259,1.6286-1.138,1.3728,1.6819,1.3728-1.6819,1.6286,1.138,0.97614-2.2259,1.6017,0.96494,0.40386-2.2496,1.5247,0.93273-0.20917-3.667,1.259,0.29862-1.724-3.2704,0.89129,0.0112-1.797-3.2099-5.9278,0z" fill-rule="evenodd" stroke="#FFF" stroke-dasharray="none" stroke-miterlimit="4" stroke-width="0.5" fill="#d40000"/>
 <path d="m69.708,149.95c-0.25389,3.7538-0.91891,6.6051-2.2278,8.0436l-8.5897-0.00064c-1.3096-1.4385-1.9753-4.2899-2.2298-8.0431l6.5651-4.1512,6.4823,4.1512z" fill-rule="evenodd" stroke="#FFF" stroke-dasharray="none" stroke-miterlimit="4" stroke-width="0.5" fill="#d40000"/>
 <path d="m59.028,158.89c-0.22496,1.3826,0.38414,2.7744,2.7422,3.0895,0.88931-0.62618,1.8306-0.62687,2.8244,0,2.3587-0.31507,2.9678-1.7069,2.7429-3.0895" stroke="#FFF" stroke-miterlimit="4" stroke-dasharray="none" stroke-width="0.5" fill="none"/>
 <path d="m63.186,152.49,0,3.0931" stroke="#FFF" stroke-linecap="round" stroke-dasharray="none" stroke-miterlimit="4" stroke-width="0.75" fill="none"/>
 <path d="m58.228,151.93c1.699-1.2991,2.7758,0.15589,4.1636,0" stroke="#FFF" stroke-miterlimit="4" stroke-dasharray="none" stroke-width="0.65" fill="none"/>
 <path d="m58.909,152.66c0.90707-0.58409,1.6227-0.1184,2.612,0" stroke="#FFF" stroke-miterlimit="4" stroke-dasharray="none" stroke-width="0.5" fill="none"/>
 <path d="m68.139,151.93c-1.6996-1.2991-2.7758,0.15589-4.1643,0" stroke="#FFF" stroke-miterlimit="4" stroke-dasharray="none" stroke-width="0.65" fill="none"/>
 <path d="m67.463,152.66c-0.90707-0.58409-1.6227-0.1184-2.612,0" stroke="#FFF" stroke-miterlimit="4" stroke-dasharray="none" stroke-width="0.5" fill="none"/>
 <path d="m59.437,152.42,0,0.34841c0,0.40321,0.32757,0.73076,0.73076,0.73076,0.40255,0,0.73012-0.32757,0.73012-0.73076v-0.22237" stroke="#FFF" stroke-miterlimit="4" stroke-dasharray="none" stroke-width="0.5" fill="none"/>
 <path d="m65.47,152.52,0,0.25037c0,0.40321,0.3269,0.73076,0.73012,0.73076,0.40321,0,0.73012-0.32756,0.73012-0.73076v-0.3204" stroke="#FFF" stroke-miterlimit="4" stroke-dasharray="none" stroke-width="0.5" fill="none"/>
 <path d="m67.168,157.59c0.22825,0.33743,0.49135,0.65844,0.87678,0.84393-0.99982,1.032-3.3927,1.2248-4.8582,0.43347-1.4655,0.79129-3.8584,0.59854-4.8589-0.43347,0.40584-0.19536,0.6762-0.54068,0.91363-0.89721,1.1287-1.6957,1.655-0.38742,3.1401-0.84457,0.56372,0.38151,1.0465,0.38151,1.6102,0,1.5425,0.47425,1.9976-0.83998,3.1764,0.89785z" fill-rule="evenodd" stroke="#FFF" stroke-dasharray="none" stroke-miterlimit="4" stroke-width="0.5" fill="#d40000"/>
 <path d="m75.278,148.28-0.68473,0.28612,0.07827,0.14208-0.4828,0.0724,0.05328,0.17299-0.56831,0.10458,0.123,0.17168-0.57487,0.096,0.12629,0.23679-0.59001,0.0401,0.06248,0.19536-0.81892-0.0612,0.04208,0.15852c-0.38084-0.0289-0.73406-0.15984-1.0281-0.51636l-0.06249,0.10129c-0.271-0.63604-0.4407-1.2938-0.39466-1.9792,0.17628-0.66436,0.54858-1.232,1.0097-1.7477l0.02629,0.11577c0.39334-0.24271,0.77022-0.2539,1.1399-0.15918l-0.09077,0.13682,0.7946,0.20587-0.12168,0.16444,0.54596,0.22759-0.19536,0.18351,0.51306,0.27626-0.17168,0.123,0.50452,0.28153-0.1059,0.14602,0.43412,0.2243-0.11971,0.10919,0.55647,0.49135z" fill-rule="evenodd" stroke="#FFF" stroke-dasharray="none" stroke-miterlimit="4" stroke-width="0.3" fill="#250"/>
 <path d="m75.228,148.27-4.6899-0.64527,0.04144-0.24995,4.6484,0.89524z" fill-rule="evenodd" stroke="#FFF" stroke-dasharray="none" stroke-miterlimit="4" stroke-width="0.1" fill="#FFF"/>
 <path d="m73.147,144.76-0.36506,0.6466,0.14931,0.0645-0.33678,0.35387,0.148,0.10327-0.38414,0.43149,0.20259,0.0599-0.39466,0.42886,0.24469,0.10919-0.4407,0.394,0.16904,0.11577-0.68409,0.45517,0.13089,0.0993c-0.31836,0.21049-0.67748,0.32362-1.1287,0.22298l0.01317,0.1184c-0.60447-0.33612-1.1425-0.75049-1.5267-1.3201-0.26902-0.63279-0.32362-1.3089-0.27626-1.9989l0.09209,0.075c0.16115-0.43281,0.45188-0.67289,0.8018-0.82483l0.01184,0.16312,0.7538-0.32559,0.0053,0.20457,0.57028-0.15524-0.04144,0.26442,0.57487-0.0967-0.05985,0.20259,0.57092-0.0875,0.0059,0.18023,0.48017-0.0895-0.02698,0.15984,0.74062,0.0454z" fill-rule="evenodd" stroke="#FFF" stroke-dasharray="none" stroke-miterlimit="4" stroke-width="0.3" fill="#250"/>
 <path d="m73.102,144.78-4.0979,2.3699-0.12103-0.22232,4.2189-2.1476z" fill-rule="evenodd" stroke="#FFF" stroke-dasharray="none" stroke-miterlimit="4" stroke-width="0.1" fill="#FFF"/>
 <path d="m73.482,152.05-0.72553-0.15655-0.01712,0.16116-0.43807-0.21641-0.0546,0.17168-0.52623-0.23877,0.0025,0.21114-0.52687-0.24929-0.03157,0.26639-0.50649-0.30454-0.06117,0.19601-0.63673-0.51833-0.05591,0.15392c-0.29599-0.24075-0.51044-0.55055-0.54857-1.0117l-0.10853,0.048c0.14076-0.67748,0.37755-1.3136,0.80772-1.8496,0.52425-0.44465,1.1544-0.69721,1.8273-0.85641l-0.04475,0.10985c0.46175,0.0257,0.77684,0.23219,1.0261,0.52095l-0.1526,0.0605,0.53476,0.62292-0.19404,0.0658,0.3177,0.4986-0.26508,0.0388,0.2631,0.51962-0.21114,0.003,0.25258,0.51898-0.17036,0.0599,0.22824,0.4315-0.16115,0.0217,0.17628,0.72089z" fill-rule="evenodd" stroke="#FFF" stroke-dasharray="none" stroke-miterlimit="4" stroke-width="0.3" fill="#250"/>
 <path d="m73.448,152.01-3.4783-3.2105,0.17628-0.18155,3.302,3.3921z" fill-rule="evenodd" stroke="#FFF" stroke-dasharray="none" stroke-miterlimit="4" stroke-width="0.1" fill="#FFF"/>
 <path d="m71.084,149.41-0.73076,0.13089,0.04539,0.15589-0.4874-0.0335,0.01515,0.17957-0.57753-0.0204,0.08288,0.19404-0.58212-0.0296,0.07235,0.25784-0.58474-0.0888,0.0184,0.20457-0.7867-0.2368,0.0073,0.16379c-0.36506-0.11051-0.68212-0.31507-0.89193-0.72681l-0.08288,0.0855c-0.12695-0.67945-0.15063-1.3576,0.04277-2.0173,0.31573-0.61039,0.8018-1.0847,1.3635-1.4879l0.000494,0.11905c0.43675-0.1526,0.80708-0.0816,1.1471,0.0908l-0.1184,0.1138,0.73209,0.37295-0.15457,0.13484,0.48346,0.3394-0.23022,0.13682,0.44136,0.38084-0.19404,0.0829,0.43149,0.38414-0.13484,0.11971,0.37492,0.31244-0.1401,0.0816,0.43742,0.59988z" fill-rule="evenodd" stroke="#FFF" stroke-dasharray="none" stroke-miterlimit="4" stroke-width="0.3" fill="#250"/>
 <path d="m71.035,149.39-4.4393-1.6438,0.09406-0.23548,4.3452,1.8792z" fill-rule="evenodd" stroke="#FFF" stroke-dasharray="none" stroke-miterlimit="4" stroke-width="0.1" fill="#FFF"/>
 <path d="m69.698,143.99-0.36506,0.64591,0.14865,0.0645-0.33612,0.35388,0.148,0.10327-0.38414,0.43149,0.20194,0.0599-0.394,0.42952,0.24469,0.10918-0.44136,0.39334,0.1697,0.11643-0.68409,0.45451,0.13089,0.0993c-0.31836,0.21049-0.67817,0.32428-1.1294,0.22364l0.01317,0.11774c-0.60447-0.33546-1.1419-0.74985-1.5267-1.3195-0.26837-0.63278-0.32362-1.3096-0.2756-1.9996l0.09143,0.0756c0.16115-0.43347,0.45254-0.67354,0.8018-0.82548l0.01248,0.16378,0.7538-0.32624,0.0053,0.20522,0.57028-0.15589-0.04144,0.26507,0.57423-0.0973-0.05986,0.20259,0.57092-0.0875,0.0066,0.18022,0.48017-0.0894-0.02763,0.15984,0.74132,0.046z" fill-rule="evenodd" stroke="#FFF" stroke-dasharray="none" stroke-miterlimit="4" stroke-width="0.3" fill="#250"/>
 <path d="m69.654,144.01-4.0985,2.3706-0.12103-0.22299,4.2195-2.1476z" fill-rule="evenodd" stroke="#FFF" stroke-dasharray="none" stroke-miterlimit="4" stroke-width="0.1" fill="#FFF"/>
 <path d="m65.717,143.04-0.18154,0.71961,0.16115,0.023-0.23088,0.43018,0.1697,0.0605-0.25653,0.51764,0.21114,0.004-0.26639,0.51833,0.26442,0.0408-0.32099,0.49594,0.19404,0.0671-0.53935,0.61962,0.15194,0.0612c-0.25061,0.28744-0.56767,0.492-1.0294,0.51439l0.04405,0.10984c-0.67225-0.16378-1.3004-0.42096-1.8213-0.86888-0.42689-0.53871-0.65844-1.1767-0.79524-1.8549l0.10853,0.048c0.0408-0.46044,0.25784-0.76825,0.55514-1.0077l0.05525,0.15457,0.64068-0.5137,0.0592,0.19601,0.50911-0.30059,0.0296,0.26639,0.5282-0.246-0.0039,0.21114,0.52751-0.23482,0.05394,0.17167,0.43939-0.21311,0.01579,0.16181,0.72681-0.15194z" fill-rule="evenodd" stroke="#FFF" stroke-dasharray="none" stroke-miterlimit="4" stroke-width="0.3" fill="#250"/>
 <path d="m65.678,143.07-3.3256,3.3697-0.17562-0.18286,3.5013-3.1869z" fill-rule="evenodd" stroke="#FFF" stroke-dasharray="none" stroke-miterlimit="4" stroke-width="0.1" fill="#FFF"/>
 <path d="m67.572,147.97-0.62618,0.39795,0.1013,0.12695-0.46372,0.15392,0.08156,0.16049-0.54201,0.1993,0.15063,0.14865-0.55055,0.19273,0.16444,0.2118-0.57423,0.13945,0.09472,0.18154-0.81758,0.0796,0.0684,0.14865c-0.37953,0.0362-0.75049-0.0335-1.1011-0.3348l-0.04405,0.1105c-0.37492-0.58079-0.6538-1.1998-0.72484-1.8838,0.06117-0.68409,0.33151-1.307,0.69854-1.893l0.04539,0.10985c0.34664-0.30652,0.7163-0.38084,1.0965-0.35059l-0.06643,0.14997,0.81827,0.0677-0.09143,0.18351,0.5762,0.13156-0.16181,0.21377,0.55316,0.18483-0.14865,0.15063,0.54527,0.19207-0.07959,0.16181,0.4657,0.14734-0.09932,0.12826,0.63145,0.38939z" fill-rule="evenodd" stroke="#FFF" stroke-dasharray="none" stroke-miterlimit="4" stroke-width="0.3" fill="#250"/>
 <path d="m67.523,147.97-4.7313,0.15984-0.002-0.25324,4.7333,0.0934z" fill-rule="evenodd" stroke="#FFF" stroke-dasharray="none" stroke-miterlimit="4" stroke-width="0.1" fill="#FFF"/>
 <path d="m61.968,142.87-0.05985,0.73999,0.16181-0.004-0.15655,0.4624,0.1776,0.0316-0.16773,0.55252,0.20917-0.0303-0.17825,0.55514,0.26837-0.004-0.23482,0.54266,0.20193,0.0342-0.42952,0.69988,0.15984,0.0355c-0.19996,0.32427-0.47885,0.57817-0.93075,0.67619l0.06183,0.10196c-0.69001-0.0506-1.3517-0.20128-1.9397-0.55711-0.50975-0.4611-0.84324-1.0524-1.0899-1.699l0.11511,0.0302c-0.03552-0.46109,0.12761-0.80115,0.38151-1.086l0.07959,0.14339,0.54724-0.61236,0.09077,0.18417,0.45254-0.38084,0.07301,0.25784,0.48082-0.32953,0.03093,0.20916,0.48148-0.31901,0.08091,0.16115,0.3986-0.28284,0.04208,0.15655,0.69198-0.26968z" fill-rule="evenodd" stroke="#FFF" stroke-dasharray="none" stroke-miterlimit="4" stroke-width="0.3" fill="#250"/>
 <path d="m61.938,142.91-2.7245,3.8716-0.20325-0.15128,2.9277-3.7203z" fill-rule="evenodd" stroke="#FFF" stroke-dasharray="none" stroke-miterlimit="4" stroke-width="0.1" fill="#FFF"/>
 <path d="m63.951,147.26-0.52228,0.52687,0.12695,0.1013-0.41768,0.25323,0.11511,0.13879-0.48411,0.31441,0.17957,0.11116-0.49396,0.31046,0.20786,0.1697-0.52948,0.26377,0.13287,0.15655-0.77945,0.2585,0.09998,0.13023c-0.36242,0.11972-0.73934,0.13419-1.1478-0.0816l-0.0184,0.11708c-0.4953-0.4828-0.90441-1.0241-1.1254-1.6753-0.09275-0.68079,0.03221-1.3478,0.25982-2.0009l0.06907,0.0967c0.26968-0.37558,0.61305-0.53017,0.99059-0.58473l-0.03093,0.16049,0.813-0.11577-0.04933,0.19931h0.59135l-0.10985,0.24468,0.58015,0.0572-0.11116,0.17957,0.57423,0.0658-0.04144,0.17563,0.48609,0.0401-0.06841,0.14734,0.70313,0.23942z" fill-rule="evenodd" stroke="#FFF" stroke-dasharray="none" stroke-miterlimit="4" stroke-width="0.3" fill="#250"/>
 <path d="m63.902,147.27-4.5774,1.2076-0.05789-0.24666,4.6353-0.96099z" fill-rule="evenodd" stroke="#FFF" stroke-dasharray="none" stroke-miterlimit="4" stroke-width="0.1" fill="#FFF"/>
 <path d="m52.003,146.95,0.72089-0.17825-0.05591-0.15194,0.48872,0.002-0.02629-0.17891,0.57753-0.0165-0.09537-0.18811,0.58276-0.008-0.0888-0.25258,0.58937,0.0507-0.03157-0.20259,0.79982,0.18549-0.01712-0.16313c0.37098,0.0868,0.70052,0.27034,0.93667,0.66761l0.07696-0.0901c0.17036,0.67028,0.23811,1.3451,0.08682,2.0161-0.2756,0.62948-0.73012,1.134-1.2649,1.5721l-0.0079-0.1184c-0.42623,0.18023-0.80051,0.13287-1.1511-0.0171l0.1105-0.12103-0.7538-0.32493,0.14536-0.14405-0.50452-0.30849,0.22101-0.15129-0.46504-0.35125,0.18878-0.0954-0.45517-0.35585,0.12695-0.12826-0.39466-0.28745,0.13484-0.0901-0.47491-0.57028z" fill-rule="evenodd" stroke="#FFF" stroke-dasharray="none" stroke-miterlimit="4" stroke-width="0.3" fill="#250"/>
 <path d="m52.052,146.96,4.5353,1.3556-0.07893,0.24074-4.4563-1.5964z" fill-rule="evenodd" stroke="#FFF" stroke-dasharray="none" stroke-miterlimit="4" stroke-width="0.1" fill="#FFF"/>
 <path d="m52.698,152.33,0.24534-0.70052-0.15786-0.0368,0.26902-0.40781-0.16378-0.0756,0.30257-0.49267-0.20982-0.023,0.31244-0.49201-0.26048-0.0645,0.36506-0.46504-0.18681-0.0842,0.59263-0.56831-0.14602-0.075c0.27626-0.2631,0.61039-0.43807,1.0721-0.41834l-0.03355-0.11379c0.6538,0.22363,1.2563,0.53673,1.7352,1.03,0.37558,0.57556,0.54922,1.232,0.62356,1.9194l-0.09373-0.0567c-0.08222,0.45518-0.32625,0.7426-0.64393,0.95374l-0.0408-0.15918-0.68473,0.45386-0.0408-0.20062-0.53412,0.25324-0.0059-0.26771-0.54858,0.19667,0.02368-0.20983-0.54724,0.18681-0.03749-0.17694-0.45715,0.17299-0.0015-0.16246-0.73737,0.0855z" fill-rule="evenodd" stroke="#FFF" stroke-dasharray="none" stroke-miterlimit="4" stroke-width="0.3" fill="#250"/>
 <path d="m52.738,152.3,3.617-3.0546,0.15786,0.19798-3.7749,2.8567z" fill-rule="evenodd" stroke="#FFF" stroke-dasharray="none" stroke-miterlimit="4" stroke-width="0.1" fill="#FFF"/>
 <path d="m58.145,143.08,0.14997,0.7275,0.15457-0.05-0.02037,0.48806,0.17891-0.0191-0.0059,0.57753,0.19207-0.0881-0.01445,0.58276,0.25587-0.0789-0.07301,0.58671,0.20325-0.0237-0.21574,0.79193,0.16378-0.0112c-0.10129,0.36835-0.29731,0.69001-0.70382,0.91102l0.08814,0.0803c-0.67684,0.14471-1.3543,0.18615-2.0187,0.01-0.61828-0.29994-1.1044-0.77353-1.5227-1.3247l0.11906-0.004c-0.16378-0.43215-0.10196-0.80446,0.06117-1.1491l0.11708,0.11576,0.35322-0.74131,0.13879,0.15062,0.32757-0.492,0.14274,0.22693,0.36901-0.45123,0.08814,0.19207,0.3723-0.44137,0.12366,0.13156,0.30257-0.38348,0.08485,0.13879,0.58804-0.4532z" fill-rule="evenodd" stroke="#FFF" stroke-dasharray="none" stroke-miterlimit="4" stroke-width="0.3" fill="#250"/>
 <path d="m58.125,143.13-1.5287,4.4807-0.23745-0.0888,1.7661-4.3919z" fill-rule="evenodd" stroke="#FFF" stroke-dasharray="none" stroke-miterlimit="4" stroke-width="0.1" fill="#FFF"/>
 <path d="m59.871,146.76-0.24864,0.69919,0.1572,0.0375-0.271,0.4065,0.16378,0.0763-0.3052,0.4907,0.20983,0.0243-0.31507,0.49069,0.25982,0.0658-0.36703,0.46307,0.18614,0.0855-0.59593,0.56501,0.14537,0.0756c-0.27692,0.26179-0.61236,0.43478-1.0741,0.41242l0.03355,0.11445c-0.65316-0.22759-1.2537-0.54399-1.7299-1.0399-0.37295-0.57684-0.54266-1.2346-0.61369-1.9226l0.10327,0.0592c0.08485-0.45451,0.33086-0.74062,0.64921-0.95048l0.04011,0.15918,0.6867-0.44991,0.04011,0.20062,0.5354-0.25061,0.0044,0.26837,0.54922-0.19404-0.02432,0.20983,0.54793-0.18418,0.03685,0.17694,0.4578-0.17036,0.000494,0.16247,0.73737-0.0816z" fill-rule="evenodd" stroke="#FFF" stroke-dasharray="none" stroke-miterlimit="4" stroke-width="0.3" fill="#250"/>
 <path d="m59.832,146.79-3.6322,3.0356-0.15786-0.19864,3.79-2.837z" fill-rule="evenodd" stroke="#FFF" stroke-dasharray="none" stroke-miterlimit="4" stroke-width="0.1" fill="#FFF"/>
 <path stroke-linejoin="miter" d="m41.523,266.84c1.117-0.47315,1.3618,0.60999,0.69139,0.86425" stroke="#FFF" stroke-linecap="butt" stroke-dasharray="none" stroke-miterlimit="4" stroke-width="0.24666131" fill="none"/>
 <path stroke-linejoin="miter" d="m85.031,266.8c-1.117-0.47314-1.3618,0.61-0.69139,0.86426" stroke="#FFF" stroke-linecap="butt" stroke-dasharray="none" stroke-miterlimit="4" stroke-width="0.24666131" fill="none"/>
 <path d="m247,1.0001,0,214.77c0,82.42-84.912,44.012-123,82.791-38.089-38.77-123-0.37-123-82.79v-214.77z" stroke="#000" stroke-miterlimit="4" stroke-dasharray="none" stroke-width="2" fill="none"/>
 <g transform="matrix(0.46914303,0,0,0.46914303,258.34772,165.20355)">
  <path fill-rule="evenodd" fill="#d40000" d="m-184.47-22.967c4.4222-4.0546,12.939-16.172,21.32-19.194,4.369,6.393,9.781,11.98,15.724,17.142-4.0169,0.5536-7.9386,1.2024-10.908,3.47l-26.126-1.418z"/>
  <path fill-rule="evenodd" fill="#d40000" d="m-80.049-13.685c8.7114-6.61,17.206-13.926,27.645-15.004-3.8309,6.7539-4.0125,14.947-4.0701,23.685-0.0664,10.091-1.2401,20.195,4.1941,27.266-9.048-0.27016-18.342-9.0551-27.388-16.117z"/>
  <path fill-rule="evenodd" fill="#d40000" d="m-126.31,10.754c4.555,6.1228,9.6526,11.894,17.363,15.975,5.113-4.2184,7.6618-10.188,8.335-17.363-3.4168-0.20372-6.6764-1.1161-9.7234-2.9872l-15.975,4.3757z"/>
  <path fill-rule="evenodd" fill="#FFF" d="m-108.65-14.457c3.811-3.8973,9.2518-5.4917,13.386-2.3805,2.4203,1.8225,0.81711,4.2206-1.4637,3.7446-3.2707-0.67982-5.1551-0.90348-6.8204,0.8614l-5.102-2.2255z"/>
  <path fill-rule="evenodd" fill="#FFF" d="m-184.86-24.318c-22.415,0.115-41.664,3.174-58.158,8.875-9.562,2.212-25.912,6.446-28.312,9.125l1.5,2.875c3.8241-2.3134,8.8462,0.45263,12.188,4.4688,3.5614,0.96945,1.1543-2.7052,0.15625-3.5938,3.4179,2.4573,3.5144,5.8256-1.0625,4.3438-5.283,0.116-9.869-0.54-11.907-4.094l-1.375,2.438c4.217,4.8909,11.332,5.2813,17.344,4.875-4.1657,0.98998-7.0327,0.88935-9.8125,0.3125,6.745,3.124,15.807,4.869,24.468,5.718,6.674-0.806,11.492-5.501,13.125-10.344,0.99382-2.9478,0.79906-5.8834-0.8125-8.0938-1.6116-2.2103-5.1707-3.9111-10.188-3.875l0.625-0.5625c5.2266-0.03765,9.0355,1.3834,10.875,3.9062,1.8395,2.5229,2.0404,5.8528,0.96875,9.0312-1.5656,4.6438-6.3296,8.9849-12.219,10.5,31.412,8.399,71.79,7.0462,105.94,3.0312,9.8098-3.4434,19.898-6.0948,30.344-7.625,6.765-3.5032,13.93-4.6075,21.969-0.46875,12.494-1.7516,9.8661-20.948-0.71875-20.312-7.1614,3.9151-14.886,2.8067-22.688,0.96875-0.66432-1.7339-2.7238-2.8118-5.0312-2.7188-29.22-6.071-54.808-8.8962-77.219-8.7812z"/>
  <path fill-rule="evenodd" fill="#d40000" d="m-225.21,6.999c2.644,1.1116,5.6799,2.2853,6.0055,4.8894,7.3629,1.5302,14.772,0.33216,20.979-8.0449-6.2313-5.1662-17.536-0.97212-26.985,3.1555z"/>
  <path fill-rule="evenodd" fill="#003d8f" d="m-251.09-8.091c2.3441,0,4.2484,1.1287,4.2484,2.522,0,1.3932-1.9043,2.522-4.2484,2.522-2.3465,0-4.2484-1.1287-4.2484-2.522,0-1.3932,1.9019-2.522,4.2484-2.522z"/>
  <path fill-rule="evenodd" fill="#FFF" d="m-250.99-8.646c1.353,0,2.4491,1.0983,2.4491,2.4513,0,1.3508-1.0961,2.4491-2.4491,2.4491-1.3508,0-2.4491-1.0983-2.4491-2.4491,0-1.353,1.0983-2.4513,2.4491-2.4513z"/>
  <path fill-rule="evenodd" fill="#d40000" d="m-165.31,16.02c2.055,6.6476,5.5559,12.999,10.868,17.771,0.6621-7.436,5.5847-12.483,2.8632-16.723-0.82819-1.2954-2.3251-1.9376-4.5506-1.694-2.2764,0.24801-4.0524,0.53146-6.0054-0.87912l-3.1754,1.5257z"/>
  <path style="direction:ltr;enable-background:accumulate;baseline-shift:baseline;block-progression:tb;text-indent:0;color:#000000;text-transform:none;text-align:start;" fill="#003d8f" d="m-238.11-7.912c5.8447,0.36111,4.8665,7.8501,3.4688,11.813-2.0949,5.9087-7.7816,5.9266-11.907,6.0218,6.4298,0.77271,10.843-1.0072,12.641-5.79,1.633-4.456,2.347-12.558-4.203-12.045z"/>
  <path fill-rule="evenodd" fill="#003d8f" d="m-251.02-7.443,0.094,1.25-1.125-0.656c-0.117,0.191-0.219,0.416-0.219,0.656,0,0.695,0.587,1.25,1.282,1.25s1.25-0.555,1.25-1.25c0-0.696-0.555-1.25-1.25-1.25h-0.032z"/>
 </g>
 <path fill-rule="evenodd" fill="#003d8f" d="m224.4,201.42-0.0441,0.58643,0.52778-0.30776c0.0549,0.0896,0.10275,0.19517,0.10275,0.30776,0,0.32606-0.27539,0.58643-0.60144,0.58643-0.32606,0-0.58643-0.26037-0.58643-0.58643,0-0.32652,0.26037-0.58643,0.58643-0.58643h0.015z"/>
 <g transform="matrix(0.46914303,0,0,0.46914303,258.34772,244.63576)">
  <path d="m-184.47-22.967c4.4222-4.0546,12.939-16.172,21.32-19.194,4.369,6.393,9.781,11.98,15.724,17.142-4.0169,0.5536-7.9386,1.2024-10.908,3.47l-26.126-1.418z" fill-rule="evenodd" fill="#d40000"/>
  <path d="m-80.049-13.685c8.7114-6.61,17.206-13.926,27.645-15.004-3.8309,6.7539-4.0125,14.947-4.0701,23.685-0.0664,10.091-1.2401,20.195,4.1941,27.266-9.048-0.27016-18.342-9.0551-27.388-16.117z" fill-rule="evenodd" fill="#d40000"/>
  <path d="m-126.31,10.754c4.555,6.1228,9.6526,11.894,17.363,15.975,5.113-4.2184,7.6618-10.188,8.335-17.363-3.4168-0.20372-6.6764-1.1161-9.7234-2.9872l-15.975,4.3757z" fill-rule="evenodd" fill="#d40000"/>
  <path d="m-108.65-14.457c3.811-3.8973,9.2518-5.4917,13.386-2.3805,2.4203,1.8225,0.81711,4.2206-1.4637,3.7446-3.2707-0.67982-5.1551-0.90348-6.8204,0.8614l-5.102-2.2255z" fill-rule="evenodd" fill="#FFF"/>
  <path d="m-184.86-24.318c-22.415,0.115-41.664,3.174-58.158,8.875-9.562,2.212-25.912,6.446-28.312,9.125l1.5,2.875c3.8241-2.3134,8.8462,0.45263,12.188,4.4688,3.5614,0.96945,1.1543-2.7052,0.15625-3.5938,3.4179,2.4573,3.5144,5.8256-1.0625,4.3438-5.283,0.116-9.869-0.54-11.907-4.094l-1.375,2.438c4.217,4.8909,11.332,5.2813,17.344,4.875-4.1657,0.98998-7.0327,0.88935-9.8125,0.3125,6.745,3.124,15.807,4.869,24.468,5.718,6.674-0.806,11.492-5.501,13.125-10.344,0.99382-2.9478,0.79906-5.8834-0.8125-8.0938-1.6116-2.2103-5.1707-3.9111-10.188-3.875l0.625-0.5625c5.2266-0.03765,9.0355,1.3834,10.875,3.9062,1.8395,2.5229,2.0404,5.8528,0.96875,9.0312-1.5656,4.6438-6.3296,8.9849-12.219,10.5,31.412,8.399,71.79,7.0462,105.94,3.0312,9.8098-3.4434,19.898-6.0948,30.344-7.625,6.765-3.5032,13.93-4.6075,21.969-0.46875,12.494-1.7516,9.8661-20.948-0.71875-20.312-7.1614,3.9151-14.886,2.8067-22.688,0.96875-0.66432-1.7339-2.7238-2.8118-5.0312-2.7188-29.22-6.071-54.808-8.8962-77.219-8.7812z" fill-rule="evenodd" fill="#FFF"/>
  <path d="m-225.21,6.999c2.644,1.1116,5.6799,2.2853,6.0055,4.8894,7.3629,1.5302,14.772,0.33216,20.979-8.0449-6.2313-5.1662-17.536-0.97212-26.985,3.1555z" fill-rule="evenodd" fill="#d40000"/>
  <path d="m-251.09-8.091c2.3441,0,4.2484,1.1287,4.2484,2.522,0,1.3932-1.9043,2.522-4.2484,2.522-2.3465,0-4.2484-1.1287-4.2484-2.522,0-1.3932,1.9019-2.522,4.2484-2.522z" fill-rule="evenodd" fill="#003d8f"/>
  <path d="m-250.99-8.646c1.353,0,2.4491,1.0983,2.4491,2.4513,0,1.3508-1.0961,2.4491-2.4491,2.4491-1.3508,0-2.4491-1.0983-2.4491-2.4491,0-1.353,1.0983-2.4513,2.4491-2.4513z" fill-rule="evenodd" fill="#FFF"/>
  <path d="m-165.31,16.02c2.055,6.6476,5.5559,12.999,10.868,17.771,0.6621-7.436,5.5847-12.483,2.8632-16.723-0.82819-1.2954-2.3251-1.9376-4.5506-1.694-2.2764,0.24801-4.0524,0.53146-6.0054-0.87912l-3.1754,1.5257z" fill-rule="evenodd" fill="#d40000"/>
  <path style="direction:ltr;enable-background:accumulate;baseline-shift:baseline;block-progression:tb;text-indent:0;color:#000000;text-transform:none;text-align:start;" fill="#003d8f" d="m-238.11-7.912c5.8447,0.36111,4.8665,7.8501,3.4688,11.813-2.0949,5.9087-7.7816,5.9266-11.907,6.0218,6.4298,0.77271,10.843-1.0072,12.641-5.79,1.633-4.456,2.347-12.558-4.203-12.045z"/>
  <path d="m-251.02-7.443,0.094,1.25-1.125-0.656c-0.117,0.191-0.219,0.416-0.219,0.656,0,0.695,0.587,1.25,1.282,1.25s1.25-0.555,1.25-1.25c0-0.696-0.555-1.25-1.25-1.25h-0.032z" fill-rule="evenodd" fill="#003d8f"/>
 </g>
 <g transform="matrix(-0.46914303,0,0,0.46914303,106.29397,204.91966)">
  <path fill-rule="evenodd" fill="#d40000" d="m-184.47-22.967c4.4222-4.0546,12.939-16.172,21.32-19.194,4.369,6.393,9.781,11.98,15.724,17.142-4.0169,0.5536-7.9386,1.2024-10.908,3.47l-26.126-1.418z"/>
  <path fill-rule="evenodd" fill="#d40000" d="m-80.049-13.685c8.7114-6.61,17.206-13.926,27.645-15.004-3.8309,6.7539-4.0125,14.947-4.0701,23.685-0.0664,10.091-1.2401,20.195,4.1941,27.266-9.048-0.27016-18.342-9.0551-27.388-16.117z"/>
  <path fill-rule="evenodd" fill="#d40000" d="m-126.31,10.754c4.555,6.1228,9.6526,11.894,17.363,15.975,5.113-4.2184,7.6618-10.188,8.335-17.363-3.4168-0.20372-6.6764-1.1161-9.7234-2.9872l-15.975,4.3757z"/>
  <path fill-rule="evenodd" fill="#FFF" d="m-108.65-14.457c3.811-3.8973,9.2518-5.4917,13.386-2.3805,2.4203,1.8225,0.81711,4.2206-1.4637,3.7446-3.2707-0.67982-5.1551-0.90348-6.8204,0.8614l-5.102-2.2255z"/>
  <path fill-rule="evenodd" fill="#FFF" d="m-184.86-24.318c-22.415,0.115-41.664,3.174-58.158,8.875-9.562,2.212-25.912,6.446-28.312,9.125l1.5,2.875c3.8241-2.3134,8.8462,0.45263,12.188,4.4688,3.5614,0.96945,1.1543-2.7052,0.15625-3.5938,3.4179,2.4573,3.5144,5.8256-1.0625,4.3438-5.283,0.116-9.869-0.54-11.907-4.094l-1.375,2.438c4.217,4.8909,11.332,5.2813,17.344,4.875-4.1657,0.98998-7.0327,0.88935-9.8125,0.3125,6.745,3.124,15.807,4.869,24.468,5.718,6.674-0.806,11.492-5.501,13.125-10.344,0.99382-2.9478,0.79906-5.8834-0.8125-8.0938-1.6116-2.2103-5.1707-3.9111-10.188-3.875l0.625-0.5625c5.2266-0.03765,9.0355,1.3834,10.875,3.9062,1.8395,2.5229,2.0404,5.8528,0.96875,9.0312-1.5656,4.6438-6.3296,8.9849-12.219,10.5,31.412,8.399,71.79,7.0462,105.94,3.0312,9.8098-3.4434,19.898-6.0948,30.344-7.625,6.765-3.5032,13.93-4.6075,21.969-0.46875,12.494-1.7516,9.8661-20.948-0.71875-20.312-7.1614,3.9151-14.886,2.8067-22.688,0.96875-0.66432-1.7339-2.7238-2.8118-5.0312-2.7188-29.22-6.071-54.808-8.8962-77.219-8.7812z"/>
  <path fill-rule="evenodd" fill="#d40000" d="m-225.21,6.999c2.644,1.1116,5.6799,2.2853,6.0055,4.8894,7.3629,1.5302,14.772,0.33216,20.979-8.0449-6.2313-5.1662-17.536-0.97212-26.985,3.1555z"/>
  <path fill-rule="evenodd" fill="#003d8f" d="m-251.09-8.091c2.3441,0,4.2484,1.1287,4.2484,2.522,0,1.3932-1.9043,2.522-4.2484,2.522-2.3465,0-4.2484-1.1287-4.2484-2.522,0-1.3932,1.9019-2.522,4.2484-2.522z"/>
  <path fill-rule="evenodd" fill="#FFF" d="m-250.99-8.646c1.353,0,2.4491,1.0983,2.4491,2.4513,0,1.3508-1.0961,2.4491-2.4491,2.4491-1.3508,0-2.4491-1.0983-2.4491-2.4491,0-1.353,1.0983-2.4513,2.4491-2.4513z"/>
  <path fill-rule="evenodd" fill="#d40000" d="m-165.31,16.02c2.055,6.6476,5.5559,12.999,10.868,17.771,0.6621-7.436,5.5847-12.483,2.8632-16.723-0.82819-1.2954-2.3251-1.9376-4.5506-1.694-2.2764,0.24801-4.0524,0.53146-6.0054-0.87912l-3.1754,1.5257z"/>
  <path style="direction:ltr;enable-background:accumulate;baseline-shift:baseline;block-progression:tb;text-indent:0;color:#000000;text-transform:none;text-align:start;" fill="#003d8f" d="m-238.11-7.912c5.8447,0.36111,4.8665,7.8501,3.4688,11.813-2.0949,5.9087-7.7816,5.9266-11.907,6.0218,6.4298,0.77271,10.843-1.0072,12.641-5.79,1.633-4.456,2.347-12.558-4.203-12.045z"/>
  <path fill-rule="evenodd" fill="#003d8f" d="m-251.02-7.443,0.094,1.25-1.125-0.656c-0.117,0.191-0.219,0.416-0.219,0.656,0,0.695,0.587,1.25,1.282,1.25s1.25-0.555,1.25-1.25c0-0.696-0.555-1.25-1.25-1.25h-0.032z"/>
 </g>
</svg>
