<?xml version="1.0" encoding="UTF-8" standalone="no"?>
<!-- Created with Inkscape (http://www.inkscape.org/) -->
<svg
   xmlns:svg="http://www.w3.org/2000/svg"
   xmlns="http://www.w3.org/2000/svg"
   xmlns:xlink="http://www.w3.org/1999/xlink"
   version="1.0"
   width="251"
   height="304.20001"
   id="svg4166">
  <defs
     id="defs4168" />
  <path
     d="M 249.55058,1.4395041 L 125.50008,1.4395041 L 1.4495291,1.4395041 L 1.4495291,174.9361 C 0.68228908,268.65698 81.738969,302.75585 125.50006,302.75585 C 168.49391,302.75585 250.31781,268.65698 249.55058,174.9361 L 249.55058,1.4395041 z "
     style="color:#000000;fill:#ffcd50;fill-opacity:1;fill-rule:nonzero;stroke:none;stroke-width:1.88832211;stroke-linecap:round;stroke-linejoin:bevel;marker:none;marker-start:none;marker-mid:none;marker-end:none;stroke-miterlimit:4;stroke-dashoffset:0;stroke-opacity:1;visibility:visible;display:block"
     id="Shield" />
  <path
     d="M 1.1,1.0980162 L 1.1,91.292012 L 249.6,91.292012 L 249.6,1.0980162 L 125.35,1.0980162 L 1.1,1.0980162 z "
     style="color:#000000;fill:#000000;fill-opacity:1;fill-rule:nonzero;stroke:none;stroke-width:1.88832211;stroke-linecap:round;stroke-linejoin:bevel;marker:none;marker-start:none;marker-mid:none;marker-end:none;stroke-miterlimit:4;stroke-dashoffset:0;stroke-opacity:1;visibility:visible;display:block"
     id="Chef" />
  <path
     d="M 249.55062,1.4395041 L 125.50012,1.4395041 L 1.449569,1.4395041 L 1.449569,174.9361 C 0.68232904,268.65698 81.739009,302.75585 125.5001,302.75585 C 168.49395,302.75585 250.31785,268.65698 249.55062,174.9361 L 249.55062,1.4395041 z "
     style="color:#000000;fill:none;fill-opacity:0;fill-rule:nonzero;stroke:#000000;stroke-width:1.88832211;stroke-linecap:round;stroke-linejoin:bevel;marker:none;marker-start:none;marker-mid:none;marker-end:none;stroke-miterlimit:4;stroke-dashoffset:0;stroke-opacity:1;visibility:visible;display:block"
     id="Frame" />
  <g
     transform="translate(1.2377441,0.7793032)"
     id="g3432">
    <g
       transform="matrix(0.4491891,0,0,-0.4491891,-136.75649,249.07573)"
       id="g3425">
      <rect
         width="69.159111"
         height="46.704853"
         x="399.46667"
         y="370.31769"
         style="opacity:1;fill:#ffcd50;fill-opacity:1;stroke:none;stroke-width:2.22623396;stroke-miterlimit:4;stroke-dasharray:none;stroke-dashoffset:0;stroke-opacity:1"
         id="rect2181" />
      <path
         d="M 434.97402,547.65534 C 475.00968,535.06934 509.80642,476.34793 509.80642,420.87334 C 482.30679,413.10175 455.37466,399.70453 433.73722,382.49395 C 414.25642,400.64925 382.71502,415.29735 358.28602,420.25514 C 358.95301,476.02084 394.10122,536.83515 434.97402,547.65614 L 434.97402,547.65534 z "
         style="fill:#ffcd50;stroke:#000000;stroke-width:0.99212599"
         id="path2294" />
      <path
         d="M 463.58902,412.46535 C 463.37727,445.73925 456.38335,469.68805 442.60722,484.31204"
         style="fill:none;stroke:#000000;stroke-width:2.22623396"
         id="path2298" />
      <path
         d="M 406.60702,412.46535 C 406.81877,445.73925 413.81269,469.68805 427.58882,484.31204"
         style="fill:none;stroke:#000000;stroke-width:2.22623396"
         id="path2300" />
    </g>
    <use
       transform="translate(131.79983,0)"
       id="use3430"
       x="0"
       y="0"
       width="251"
       height="304.20001"
       xlink:href="#g3425" />
  </g>
  <g
     transform="matrix(4.6809941,0,0,4.6809941,-2879.2124,-4665.024)"
     id="g3439">
    <g
       id="g3441">
      <path
         d="M 625.34215,1027.4814 C 626.43271,1024.5463 625.40089,1024.4744 625.2816,1023.978 C 625.16231,1023.4816 625.8316,1023.9406 626.29006,1022.0779 C 625.32081,1020.1381 622.41833,1019.6175 625.18192,1019.6472 C 626.01947,1019.4539 626.31564,1019.4971 627.47008,1019.3417 C 630.25361,1018.9672 631.51508,1019.8199 632.93708,1023.0373 C 634.63333,1027.4793 634.89346,1028.7426 639.39362,1031.6325 C 641.04023,1032.484 645.50207,1037.3218 644.84331,1037.5414 C 644.26666,1037.7336 639.91769,1036.3794 639.31006,1035.8184 C 639.08012,1035.6061 638.42347,1035.4324 637.85085,1035.4324 C 636.36805,1035.4324 634.99593,1034.5969 635.27677,1033.8651 C 635.41389,1033.5077 635.10229,1033.0257 634.54076,1032.7265 C 633.65927,1032.2569 633.62421,1032.2771 634.17095,1032.9399 C 634.68469,1033.5626 634.6814,1033.6721 634.14894,1033.6721 C 633.80464,1033.6721 633.24534,1033.4245 632.90605,1033.1219 C 632.38123,1032.654 632.37614,1032.6868 632.87192,1033.342 C 633.61003,1034.3174 633.01291,1034.3445 631.95129,1033.3838 C 631.50865,1032.9832 631.14649,1032.8676 631.14649,1033.1268 C 631.14649,1033.6454 634.34809,1036.3184 634.95054,1036.3028 C 635.15775,1036.2974 634.85477,1035.9296 634.27724,1035.4856 C 632.74703,1034.3089 633.73169,1034.0926 635.63014,1035.1883 L 637.25324,1036.1251 L 634.8098,1036.6931 C 632.39961,1037.2535 632.34914,1037.2447 631.10089,1036.0488 C 629.44373,1034.4612 629.83368,1034.1099 631.60175,1035.5977 C 633.83086,1037.4733 633.86053,1036.9188 631.65259,1034.6476 C 630.52707,1033.4898 629.52846,1032.5938 629.43346,1032.6566 C 629.33845,1032.7193 629.51123,1033.0724 629.81741,1033.4414 C 630.16591,1033.8613 630.1987,1034.1121 629.90508,1034.1121 C 629.64712,1034.1121 629.10944,1033.6666 628.71023,1033.1219 L 627.9844,1032.1318 L 628.29234,1033.177 C 628.50264,1033.891 628.44579,1034.1269 628.11304,1033.9212 C 627.84507,1033.7556 627.62581,1032.953 627.62581,1032.1377 C 627.62581,1030.3332 629.4419,1028.655 631.06003,1028.9644 C 631.62838,1029.073 631.92985,1029.0077 631.72996,1028.8192 C 630.84094,1027.9808 629.54719,1028.2147 628.3561,1029.4289 C 627.23902,1030.5677 627.13332,1030.9199 627.3627,1032.7378 C 627.50389,1033.8568 627.67036,1035.2014 627.73263,1035.7259 C 627.7949,1036.2505 628.02594,1036.8446 628.24604,1037.0462 C 628.4823,1037.2626 628.51961,1037.0624 628.33712,1036.5573 C 628.03457,1035.7199 628.04731,1035.7192 628.93753,1036.5249 C 629.51564,1037.0481 629.6753,1037.4541 629.37572,1037.6392 C 629.07063,1037.8278 629.17362,1038.1497 629.66776,1038.5518 C 630.34374,1039.102 630.39808,1039.085 630.14249,1038.403 C 629.76933,1037.4073 630.21655,1037.4413 631.58657,1038.513 C 632.50875,1039.2343 632.55796,1039.3752 631.89066,1039.3834 C 631.4528,1039.3888 631.21694,1039.5912 631.36653,1039.8332 C 631.51612,1040.0753 631.93557,1040.2733 632.29864,1040.2733 C 632.66171,1040.2733 632.83638,1040.0753 632.68678,1039.8332 C 632.53719,1039.5912 632.57501,1039.3962 632.77083,1039.3999 C 633.40231,1039.4119 634.00704,1040.0365 634.00704,1040.6767 C 634.00704,1041.0196 634.28614,1041.3932 634.62727,1041.5069 C 635.03911,1041.6442 635.1612,1041.4887 634.99064,1041.0443 C 634.77273,1040.4764 634.92704,1040.4479 636.00824,1040.856 C 636.83435,1041.1678 637.09805,1041.4511 636.75782,1041.6614 C 636.46915,1041.8398 636.38652,1042.1394 636.5742,1042.3271 C 636.76189,1042.5147 637.07799,1042.4053 637.27666,1042.0838 C 637.50254,1041.7183 637.99062,1041.6114 638.57938,1041.7982 C 639.0972,1041.9625 639.40239,1042.2887 639.25757,1042.5231 C 639.09796,1042.7813 639.44207,1042.8367 640.13135,1042.6637 C 640.8869,1042.4741 641.26844,1042.5578 641.26844,1042.9132 C 641.26844,1043.2074 641.5419,1043.3431 641.87612,1043.2149 C 642.21035,1043.0867 644.04221,1043.3261 645.94691,1043.747 C 648.49867,1044.3109 650.22068,1045.0395 652.4906,1046.5157 C 654.18492,1047.6176 656.41285,1048.9453 657.44155,1049.4661 C 658.47025,1049.987 659.31191,1050.6072 659.31191,1050.8443 C 659.31191,1051.0814 659.2624,1051.2598 659.20189,1051.2407 C 659.14138,1051.2216 658.49775,1050.9915 657.77161,1050.7295 C 657.04547,1050.4674 654.32717,1048.9751 651.73093,1047.4133 L 647.0105,1044.5737 L 644.02945,1044.8223 C 642.38987,1044.9591 640.3725,1045.207 639.54641,1045.3732 C 638.36147,1045.6115 637.90773,1045.4999 637.3968,1044.8447 C 636.88509,1044.1884 636.80195,1044.168 637.00064,1044.7478 C 637.14883,1045.1802 636.97764,1045.5868 636.58377,1045.7379 C 635.51065,1046.1497 635.10725,1046.0394 635.10725,1045.3343 C 635.10725,1044.9712 634.84182,1044.6742 634.51741,1044.6742 C 633.11553,1044.6742 628.40341,1041.8321 626.81687,1040.0297 C 623.89849,1036.7143 623.33742,1031.9401 625.34215,1027.4814 z M 628.94606,1053.9159 C 628.38192,1053.5514 628.39792,1053.4884 629.05609,1053.4826 C 629.47967,1053.4789 629.82623,1053.6739 629.82623,1053.9159 C 629.82623,1054.4527 629.7766,1054.4527 628.94606,1053.9159 z M 630.26632,1053.9452 C 630.26632,1053.7192 630.81092,1053.4518 631.47655,1053.351 C 632.60298,1053.1803 632.58773,1053.1631 631.25651,1053.1017 C 629.78304,1053.0338 629.5796,1052.7856 630.19822,1051.8106 C 630.4205,1051.4603 630.87781,1051.369 631.40172,1051.5703 C 632.17175,1051.8663 632.14911,1051.9222 631.14649,1052.2015 C 630.11854,1052.4878 630.13812,1052.5108 631.44461,1052.5518 C 632.9989,1052.6006 634.49241,1051.1305 634.93767,1049.1135 C 635.44057,1046.8355 635.59318,1046.5111 636.2872,1046.2447 C 637.35475,1045.8351 637.36481,1046.0959 636.3598,1048.1271 C 635.85239,1049.1527 635.55625,1050.1108 635.70169,1050.2562 C 636.12955,1050.6841 637.30727,1049.4808 638.22895,1047.6742 C 638.70027,1046.7503 639.38901,1045.9944 639.75948,1045.9944 C 640.27469,1045.9944 640.16911,1046.3405 639.31045,1047.4662 C 638.69302,1048.2757 638.18784,1049.3649 638.18784,1049.8867 C 638.18784,1050.6873 638.44205,1050.8354 639.81616,1050.8354 C 640.91436,1050.8354 641.29951,1050.9803 640.99919,1051.2806 C 640.71211,1051.5677 639.57974,1051.5927 637.81185,1051.3509 C 635.41855,1051.0236 635.08666,1051.0649 635.20247,1051.6758 C 635.29231,1052.1496 635.97352,1052.4467 637.31161,1052.5957 C 638.6132,1052.7406 639.09047,1052.9433 638.70939,1053.1894 C 638.39113,1053.3949 637.48331,1053.4416 636.69201,1053.2932 C 635.84412,1053.1341 634.47768,1053.2969 633.3646,1053.6897 C 631.196,1054.4548 630.26632,1054.5315 630.26632,1053.9452 z M 639.86017,1052.9478 C 640.27091,1052.537 640.50562,1052.537 640.91637,1052.9478 C 641.32711,1053.3585 641.20976,1053.4759 640.38827,1053.4759 C 639.56677,1053.4759 639.44942,1053.3585 639.86017,1052.9478 z M 628.50598,1052.1556 C 628.10934,1051.8993 628.05506,1051.7263 628.36999,1051.7223 C 628.65826,1051.7186 629.01651,1051.9136 629.16611,1052.1556 C 629.50379,1052.702 629.35144,1052.702 628.50598,1052.1556 z M 632.46674,1051.2754 C 632.46674,1051.0334 632.66478,1050.8354 632.90683,1050.8354 C 633.14887,1050.8354 633.34691,1051.0334 633.34691,1051.2754 C 633.34691,1051.5175 633.14887,1051.7155 632.90683,1051.7155 C 632.66478,1051.7155 632.46674,1051.5175 632.46674,1051.2754 z M 628.62517,1051.0095 C 628.77141,1050.8633 629.15098,1050.8477 629.46867,1050.9748 C 629.81973,1051.1153 629.71546,1051.2196 629.20278,1051.2407 C 628.73886,1051.2598 628.47893,1051.1558 628.62517,1051.0095 z M 640.38827,1043.8078 C 640.38827,1043.5733 640.09121,1043.4955 639.72814,1043.6349 C 638.88288,1043.9592 638.88288,1044.2341 639.72814,1044.2341 C 640.09121,1044.2341 640.38827,1044.0423 640.38827,1043.8078 z M 638.18784,1043.3539 C 638.18784,1042.7845 637.43956,1042.7845 637.08763,1043.3539 C 636.93804,1043.596 637.12439,1043.794 637.50174,1043.794 C 637.8791,1043.794 638.18784,1043.596 638.18784,1043.3539 z M 635.19527,1042.3857 C 634.91288,1042.1033 634.53574,1042.0184 634.35718,1042.1969 C 634.17862,1042.3755 634.31812,1042.6981 634.66717,1042.9138 C 635.48906,1043.4218 635.8602,1043.0507 635.19527,1042.3857 z M 632.90683,1041.8136 C 632.90683,1041.4506 632.60977,1041.1535 632.2467,1041.1535 C 631.1014,1041.1535 631.47255,1042.0208 632.79681,1042.439 C 632.85732,1042.4581 632.90683,1042.1767 632.90683,1041.8136 z M 630.7064,1040.2733 C 630.7064,1040.0313 630.39766,1039.8332 630.0203,1039.8332 C 629.64295,1039.8332 629.4566,1040.0313 629.60619,1040.2733 C 629.95812,1040.8427 630.7064,1040.8427 630.7064,1040.2733 z M 628.50598,1038.5389 C 628.50598,1038.3112 628.30794,1038.0024 628.0659,1037.8529 C 627.82385,1037.7033 627.62581,1037.8896 627.62581,1038.267 C 627.62581,1038.6443 627.82385,1038.9531 628.0659,1038.9531 C 628.30794,1038.9531 628.50598,1038.7667 628.50598,1038.5389 z M 626.96568,1036.3126 C 626.61716,1035.7486 626.30556,1035.7486 626.30556,1036.3126 C 626.30556,1036.5546 626.51528,1036.7526 626.77162,1036.7526 C 627.02795,1036.7526 627.11528,1036.5546 626.96568,1036.3126 z M 625.50607,1034.8969 C 625.19028,1034.5812 624.9853,1034.5552 624.9853,1034.8309 C 624.9853,1035.4184 625.50575,1035.9388 625.79946,1035.6451 C 625.92452,1035.5201 625.79249,1035.1834 625.50607,1034.8969 z M 626.79515,1033.9856 C 626.43575,1033.6262 626.30556,1033.6754 626.30556,1034.1708 C 626.30556,1035.0456 626.89734,1035.6374 627.11605,1034.9813 C 627.20883,1034.703 627.06443,1034.2549 626.79515,1033.9856 z M 626.74564,1031.9117 C 626.74564,1031.6697 626.5476,1031.4716 626.30556,1031.4716 C 626.06351,1031.4716 625.86547,1031.6697 625.86547,1031.9117 C 625.86547,1032.1538 626.06351,1032.3518 626.30556,1032.3518 C 626.5476,1032.3518 626.74564,1032.1538 626.74564,1031.9117 z M 625.86547,1030.5655 C 625.86547,1030.3377 625.66743,1030.1514 625.42539,1030.1514 C 625.18334,1030.1514 624.9853,1030.4601 624.9853,1030.8375 C 624.9853,1031.2148 625.18334,1031.4012 625.42539,1031.2516 C 625.66743,1031.102 625.86547,1030.7932 625.86547,1030.5655 z M 627.62581,1029.2452 C 627.62581,1029.0175 627.42777,1028.8311 627.18573,1028.8311 C 626.94368,1028.8311 626.74564,1029.1399 626.74564,1029.5172 C 626.74564,1029.8946 626.94368,1030.0809 627.18573,1029.9313 C 627.42777,1029.7817 627.62581,1029.473 627.62581,1029.2452 z M 628.94606,1027.7049 C 628.94606,1027.5982 628.74803,1027.5109 628.50598,1027.5109 C 628.26393,1027.5109 628.0659,1027.7206 628.0659,1027.9769 C 628.0659,1028.2333 628.26393,1028.3206 628.50598,1028.171 C 628.74803,1028.0214 628.94606,1027.8117 628.94606,1027.7049 z M 627.62581,1027.4849 C 627.62581,1027.2286 627.42777,1027.1412 627.18573,1027.2908 C 626.62181,1027.6393 626.62181,1027.951 627.18573,1027.951 C 627.42777,1027.951 627.62581,1027.7412 627.62581,1027.4849 z M 628.94606,1026.3847 C 628.94606,1026.2779 628.74803,1026.1906 628.50598,1026.1906 C 628.26393,1026.1906 628.0659,1026.4004 628.0659,1026.6567 C 628.0659,1026.913 628.26393,1027.0003 628.50598,1026.8507 C 628.74803,1026.7012 628.94606,1026.4914 628.94606,1026.3847 z M 633.34691,1049.9552 C 633.34691,1049.7131 633.54495,1049.5151 633.787,1049.5151 C 634.02904,1049.5151 634.22708,1049.7131 634.22708,1049.9552 C 634.22708,1050.1972 634.02904,1050.3953 633.787,1050.3953 C 633.54495,1050.3953 633.34691,1050.1972 633.34691,1049.9552 z M 631.70576,1049.6893 C 631.852,1049.543 632.23157,1049.5274 632.54926,1049.6546 C 632.90033,1049.795 632.79605,1049.8993 632.28337,1049.9204 C 631.81945,1049.9396 631.55953,1049.8355 631.70576,1049.6893 z M 654.80454,1047.4218 C 652.4465,1046.0316 650.51563,1044.7707 650.51371,1044.6197 C 650.5048,1043.9201 653.30359,1045.0947 656.37273,1047.0786 C 659.40342,1049.0376 660.38301,1049.9608 659.42193,1049.9522 C 659.2404,1049.9507 657.16257,1048.8119 654.80454,1047.4218 z M 656.72781,1046.7784 C 655.18553,1045.7618 654.15008,1044.8545 654.4268,1044.7622 C 654.97334,1044.5801 658.91597,1046.9675 659.77205,1047.999 C 660.69856,1049.1153 659.61197,1048.6797 656.72781,1046.7784 z M 650.07013,1043.9378 C 642.85484,1042.7806 637.51465,1041.2726 633.58232,1039.2819 L 631.83736,1038.3985 L 633.36228,1037.8881 C 634.68413,1037.4456 635.20143,1037.5139 637.24669,1038.4015 C 641.07325,1040.0621 646.99822,1041.6397 650.07013,1041.8158 C 651.64343,1041.9061 653.07921,1041.992 653.26074,1042.0068 C 653.44228,1042.0216 653.59081,1042.2548 653.59081,1042.525 C 653.59081,1043.7081 642.55093,1041.5247 636.90353,1039.2247 C 635.35,1038.592 633.99981,1038.1535 633.90311,1038.2502 C 633.61954,1038.5338 640.74469,1041.1681 644.15283,1042.0397 C 645.87517,1042.4803 648.95086,1042.9808 650.98769,1043.1521 C 655.36704,1043.5204 657.19873,1044.2302 653.59081,1044.1608 C 652.25955,1044.1352 650.67525,1044.0348 650.07013,1043.9378 z M 646.98954,1040.9294 C 644.21552,1040.3656 636.55754,1037.9095 636.07791,1037.4299 C 635.26098,1036.613 636.90921,1036.9076 640.8712,1038.2866 C 643.36989,1039.1564 646.37091,1039.9484 647.54014,1040.0467 C 650.12653,1040.2641 651.39038,1040.6372 651.39038,1041.1832 C 651.39038,1041.7025 650.55662,1041.6545 646.98954,1040.9294 z M 645.88933,1039.3126 C 643.38604,1038.7769 638.4848,1037.1548 637.98981,1036.6982 C 637.28418,1036.0473 638.76965,1036.2573 641.48848,1037.1927 C 642.89552,1037.6768 644.57199,1038.0729 645.21398,1038.0729 C 646.34601,1038.0729 648.31197,1039.1335 647.86902,1039.5053 C 647.74837,1039.6066 646.85751,1039.5199 645.88933,1039.3126 z M 629.38615,1036.0925 C 628.56505,1035.2454 628.08061,1034.5605 628.30963,1034.5705 C 629.0277,1034.6021 632.21107,1037.6328 631.52618,1037.6328 C 631.17027,1037.6328 630.20725,1036.9397 629.38615,1036.0925 z "
         style="fill:#000000"
         id="path3669" />
      <path
         d="M -442.38104,95.81897 C -442.38104,99.272655 -445.1808,102.07242 -448.63449,102.07242 C -452.08818,102.07242 -454.88794,99.272655 -454.88794,95.81897 C -454.88794,92.365285 -452.08818,89.56552 -448.63449,89.56552 C -445.1808,89.56552 -442.38104,92.365285 -442.38104,95.81897 z "
         transform="matrix(-9.8701624e-2,0,0,9.8701624e-2,583.98067,1011.744)"
         style="fill:#d40000;fill-opacity:1;stroke:none;stroke-width:4;stroke-miterlimit:4;stroke-dasharray:16, 32;stroke-dashoffset:0"
         id="path3447" />
      <path
         d="M 629.55005,1021.6999 C 628.58875,1021.7662 628.18072,1022.2822 627.36378,1021.4653 C 626.54685,1020.6484 627.94413,1020.1811 628.98671,1020.6205 C 630.02929,1021.0599 630.81626,1020.8066 631.50502,1022.0427 C 632.50148,1024.2297 629.9206,1025.3365 627.84894,1023.6107 C 627.27752,1023.1346 627.04586,1022.7385 627.33413,1022.7305 C 627.6224,1022.7224 627.98066,1022.9139 628.13025,1023.1559 C 628.27985,1023.398 628.99844,1023.596 629.72713,1023.596 C 630.8495,1023.596 631.03045,1023.4447 630.91095,1022.6058 C 630.79977,1021.8255 630.51135,1021.6335 629.55005,1021.6999 z M 627.91021,1021.2376 C 627.97897,1021.6044 628.437,1021.6114 628.56749,1021.4002 C 628.69797,1021.1891 628.60347,1020.8919 628.35747,1020.7399 C 628.11148,1020.5879 627.83176,1020.8191 627.91021,1021.2376 z "
         style="fill:#ffcd50;fill-opacity:1"
         id="path3449" />
      <path
         d="M 625.2816,1023.978 C 625.85244,1025.5853 627.7348,1019.4674 625.18427,1019.5748 C 624.34604,1019.6425 623.53996,1019.6899 623.09132,1019.687 C 620.32773,1019.6573 625.06198,1020.158 626.03123,1022.0978 C 626.0456,1022.4122 625.83319,1022.6699 625.59114,1022.6699 C 625.3491,1022.6699 625.15106,1022.4766 625.15106,1022.2404 C 625.15106,1022.0041 624.47056,1021.2756 623.50074,1020.9396 C 621.77773,1020.3425 622.28871,1020.5996 623.05771,1021.1644 C 624.18035,1021.6997 624.71075,1022.3708 625.2816,1023.978 z "
         style="fill:#d40000;fill-opacity:1"
         id="path3451" />
      <path
         d="M 626.1511,1022.0576 C 625.76674,1021.7922 625.31467,1021.6273 624.97059,1021.304 C 624.66982,1021.1988 624.87055,1021.4417 625.01837,1021.502 C 625.36517,1021.8057 625.61578,1022.1994 625.8421,1022.5964 C 626.11389,1022.7905 626.10665,1022.1869 626.1511,1022.0576 z "
         style="fill:#d40000;fill-opacity:1;fill-rule:evenodd;stroke:#d40000;stroke-width:0.09870163px;stroke-linecap:butt;stroke-linejoin:miter;stroke-opacity:1"
         id="path3453" />
    </g>
  </g>
</svg>
