<?xml version="1.0" encoding="UTF-8" standalone="no"?>
<!-- Created with Inkscape (http://www.inkscape.org/) -->
<svg
   xmlns:dc="http://purl.org/dc/elements/1.1/"
   xmlns:cc="http://web.resource.org/cc/"
   xmlns:rdf="http://www.w3.org/1999/02/22-rdf-syntax-ns#"
   xmlns:svg="http://www.w3.org/2000/svg"
   xmlns="http://www.w3.org/2000/svg"
   xmlns:xlink="http://www.w3.org/1999/xlink"
   version="1.0"
   width="251"
   height="304.20001"
   id="svg4166">
  <defs
     id="defs4168" />
  <metadata
     id="metadata1880"><rdf:RDF><cc:Work
         rdf:about=""><dc:title>Norsjo kommunvapen</dc:title><dc:date>28-09-2007</dc:date><dc:creator><cc:Agent><dc:title>Lokal_Profil</dc:title></cc:Agent></dc:creator><cc:license
         rdf:resource="http://creativecommons.org/licenses/by-sa/2.5/" /><dc:rights><cc:Agent><dc:title>cc-by-sa-2.5</dc:title></cc:Agent></dc:rights><dc:format>image/svg+xml</dc:format><dc:type
         rdf:resource="http://purl.org/dc/dcmitype/StillImage" /></cc:Work><cc:License
         rdf:about="http://creativecommons.org/licenses/by-sa/2.5/"><cc:permits
         rdf:resource="http://web.resource.org/cc/Reproduction" /><cc:permits
         rdf:resource="http://web.resource.org/cc/Distribution" /><cc:requires
         rdf:resource="http://web.resource.org/cc/Notice" /><cc:requires
         rdf:resource="http://web.resource.org/cc/Attribution" /><cc:permits
         rdf:resource="http://web.resource.org/cc/DerivativeWorks" /><cc:requires
         rdf:resource="http://web.resource.org/cc/ShareAlike" /></cc:License></rdf:RDF>
  </metadata>
  <path
     d="M 249.55058,1.4395041 L 125.50008,1.4395041 L 1.4495291,1.4395041 L 1.4495291,174.9361 C 0.68228908,268.65698 81.738969,302.75585 125.50006,302.75585 C 168.49391,302.75585 250.31781,268.65698 249.55058,174.9361 L 249.55058,1.4395041 z "
     style="fill:#ffcd50"
     id="Shield" />
  <path
     d="M 137.5625,1.4375 C 136.76251,9.208933 132.37288,14.409066 127.03125,20.875 C 121.11731,28.033698 114.125,36.74311 114.125,49.9375 C 114.125,63.137818 121.10284,71.999843 127.03125,79.28125 C 132.95964,86.562659 137.71875,92.258657 137.71875,101.03125 C 137.71875,110.26937 132.93466,116.04946 127.03125,123.28125 C 121.12784,130.51305 114.125,139.16983 114.125,152.09375 C 114.125,164.99952 121.14372,173.4836 127.03125,180.59375 C 132.91878,187.70388 137.71875,193.45308 137.71875,203.1875 C 137.71875,212.46255 132.95211,217.94525 127.03125,225.0625 C 121.11038,232.17977 114.125,240.89059 114.125,254.25 C 114.125,267.26722 121.12507,275.92557 127.03125,283.125 C 131.90685,289.0682 136.46408,300.05627 137.25,302 C 181.82635,296.53307 250.26459,260.70123 249.5625,174.9375 L 249.5625,1.4375 L 137.5625,1.4375 z "
     style="fill:#225500"
     id="vagskure-kluven" />
  <g
     transform="matrix(0.220441,0,0,0.407939,106.0495,57.1568)"
     style="fill:#225500"
     id="Gran">
    <path
       d="M -219.86513,331.1238 C -212.77407,395.011 -222.22845,459.26966 -233.12034,477.61306 L -148.54551,477.61306 C -162.60968,460.35081 -173.95243,390.55001 -164.79941,331.61336"
       id="path2884" />
    <path
       d="M -183.99354,-98.168766 C -198.77918,-71.397756 -207.87727,-41.186397 -233.8479,-21.869977 C -233.12098,-9.2331076 -207.75971,-25.47516 -207.99115,-24.830065 C -214.50381,-6.677134 -236.78644,26.403608 -264.05794,36.185889 C -258.32364,49.601319 -242.4484,54.889769 -230.3248,44.225527 L -240.84622,57.803457 C -233.62542,61.532413 -225.65637,57.36564 -217.53025,51.541232 C -242.7821,95.266122 -276.09794,97.273915 -305.90906,105.75825 C -285.30095,136.95561 -273.35493,119.83788 -258.62116,118.26949 C -260.69064,124.68773 -265.39622,129.25149 -272.95315,131.80925 C -264.2023,144.11767 -234.05032,123.41921 -214.37748,118.88274 C -258.40648,152.66091 -302.92182,173.21994 -346.30506,162.02262 C -343.1903,174.3746 -345.966,183.06958 -333.48086,191.43806 C -319.75321,200.63932 -286.50728,190.83082 -286.50728,190.83082 L -313.28696,206.10008 C -307.61256,211.73312 -303.0492,220.09261 -291.1708,219.77457 C -270.77984,219.22865 -256.39661,208.60851 -238.767,202.09146 C -286.23427,250.38922 -394.39811,237.13581 -395.98556,232.69111 C -388.74722,247.23039 -394.20315,253.73716 -367.9582,272.57644 C -346.02962,288.31731 -313.83545,269.94191 -313.84366,269.9448 C -310.8833,271.50674 -341.86555,288.24433 -350.60182,290.74698 C -357.90592,292.83934 -338.65104,309.49512 -328.24493,309.074 C -303.40258,308.0687 -280.59477,297.32162 -259.93508,290.49104 C -311.89868,329.75276 -386.07479,330.92179 -441.71701,295.35358 C -438.99293,317.03381 -439.83452,334.62495 -414.32953,363.81887 C -396.56366,384.15431 -343.38882,349.87318 -345.5775,356.22456 C -359.35035,365.42429 -370.20783,375.64949 -391.63767,382.15586 C -350.06019,421.99886 -332.38579,386.17033 -307.74879,372.38374 L -334.72313,405.91555 C -308.95755,411.9038 -298.34246,427.30859 -260.43765,366.35858 L -271.75593,396.14348 C -250.95522,391.9023 -230.15447,372.63473 -209.35376,343.32274 L -191.63984,358.39612 L -173.92589,345.13239 C -153.04016,363.57856 -147.97141,394.543 -107.62999,397.59118 L -120.32019,371.29798 C -91.654818,407.99712 -68.760939,417.34728 -50.150441,401.93434 L -70.608198,377.08885 C -56.667034,385.39106 -39.264926,401.62758 -28.784743,401.93434 C -7.5113346,399.10214 -4.6338933,391.72619 4.3632418,379.2604 C -7.2529081,377.08552 -20.907232,369.89968 -27.634831,359.84387 C -16.264213,359.5873 9.3472682,375.23165 27.221846,367.80629 C 35.945148,364.18251 50.10939,356.43552 57.282995,298.57111 C 8.5384388,328.3706 -45.468213,342.68931 -124.09297,284.58349 C -93.921017,292.32664 -56.295288,325.23982 -38.489196,291.22585 C -58.622739,286.63416 -64.295266,280.34693 -68.20735,273.85326 C -51.751007,276.86948 -34.982257,282.54274 -19.80845,276.75936 C -4.9350161,271.09045 3.2951612,256.51386 10.53684,237.55365 C -13.158746,236.18992 -66.681569,257.10706 -143.86474,203.42564 C -126.56609,208.69589 -107.01096,221.70567 -91.973934,219.22291 C -76.989542,216.74886 -78.539989,209.77505 -73.917025,205.23529 C -79.061715,204.61017 -84.206368,200.05163 -89.351058,193.65352 C -78.187436,195.81547 -67.023776,201.56243 -55.860154,199.44439 C -40.034995,187.53707 -42.751772,176.93414 -39.518142,165.91258 C -102.68297,171.99933 -146.20104,135.82187 -147.51656,124.18405 C -133.45691,128.92523 -115.61547,147.9191 -107.28704,131.06071 C -111.39502,132.91854 -122.82431,119.86011 -120.66318,118.88274 C -120.66318,124.16605 -70.295605,131.67926 -67.521399,105.25707 C -51.706511,104.56367 -143.38635,112.02617 -157.11995,47.731263 C -148.22737,53.554761 -141.55735,54.687554 -136.31924,52.798274 L -141.63985,41.641705 C -119.20236,51.263661 -114.70078,36.396648 -111.64854,32.901236 C -139.67129,17.388733 -153.93239,-1.8945777 -166.15214,-25.814836 C -157.42156,-24.011987 -149.44265,-11.897744 -139.89107,-21.35811 C -159.04567,-41.87014 -172.56077,-68.829203 -183.99354,-98.168766 z "
       id="path2886" />
  </g>
  <g
     transform="matrix(1.132788,0,0,1.18338,-21.74796,-14.06734)"
     id="Kornax">
    <path
       d="M 177.78991,62.179245 C 177.75767,98.153315 157.02153,106.55542 178.26982,123.4968 C 197.90138,104.15253 178.07822,97.205248 177.78991,62.179245 z "
       style="fill:#ffcd50;fill-opacity:1;fill-rule:evenodd;stroke:#225500;stroke-width:1.10092282;stroke-linecap:butt;stroke-linejoin:miter;stroke-miterlimit:4;stroke-dasharray:none;stroke-opacity:1;display:inline"
       id="top-korn" />
    <path
       d="M 177.35,46.919864 L 178.35,46.919864 L 178.35,85.253659 L 177.35,86.703324 L 177.35,46.919864 z "
       style="opacity:1;fill:#ffcd50;fill-opacity:1;fill-rule:evenodd;stroke:none;stroke-width:1.29999995;stroke-linecap:butt;stroke-miterlimit:4;stroke-opacity:1"
       id="path4858" />
    <path
       d="M 199.01644,85.728687 C 189.73349,119.07064 175.33137,103.1098 178.99996,146.69273 C 182.52544,144.6607 183.75893,136.2828 186.15515,134.20089 C 202.04854,115.98812 194.06853,102.74754 199.01644,85.728687 z "
       style="fill:#ffcd50;fill-opacity:1;fill-rule:evenodd;stroke:#225500;stroke-width:1.02979469;stroke-linecap:butt;stroke-linejoin:miter;stroke-miterlimit:4;stroke-dasharray:none;stroke-opacity:1;display:inline"
       id="path10777" />
    <path
       d="M 195.95,40.861414 L 196.95,40.861414 L 196.95,93.974442 L 195.95,95.983012 L 195.95,40.861414 z "
       style="fill:#ffcd50;fill-opacity:1;fill-rule:evenodd;stroke:none;stroke-width:1.29999995;stroke-linecap:butt;stroke-miterlimit:4;stroke-opacity:1"
       id="path4854" />
    <path
       d="M 156.83351,85.594425 C 166.71815,118.76302 180.82917,102.54422 177.94965,146.18645 C 174.38798,144.21853 173.00313,135.86431 170.56963,133.82609 C 154.34933,115.90381 162.08851,102.521 156.83351,85.594425 z "
       style="fill:#ffcd50;fill-opacity:1;fill-rule:evenodd;stroke:#225500;stroke-width:1.02979553;stroke-linecap:butt;stroke-linejoin:miter;stroke-miterlimit:4;stroke-dasharray:none;stroke-opacity:1;display:inline"
       id="path10793" />
    <use
       transform="matrix(-0.935393,0,0,0.935393,343.2757,6.001175)"
       id="use4856"
       x="0"
       y="0"
       width="251"
       height="304.20001"
       xlink:href="#path4854" />
    <path
       d="M 206.52832,112.50496 C 197.39775,126.79938 175.60816,122.75107 179.27415,158.25992 C 181.38252,154.44844 184.27378,148.82455 186.47154,147.82919 C 196.44289,140.92195 196.86239,123.94495 206.52832,112.50496 z "
       style="fill:#ffcd50;fill-opacity:1;fill-rule:evenodd;stroke:#225500;stroke-width:0.93606222;stroke-linecap:butt;stroke-linejoin:miter;stroke-miterlimit:4;stroke-dasharray:none;stroke-opacity:1;display:inline"
       id="path10779" />
    <use
       transform="matrix(0.850253,0,0,0.850253,22.6942,-25.50229)"
       id="use1901"
       x="0"
       y="0"
       width="251"
       height="304.20001"
       xlink:href="#rect2188" />
    <path
       d="M 149.94458,112.548 C 159.33227,126.67492 181.04509,122.23307 178.02209,157.8025 C 175.84511,154.02977 172.85257,148.4591 170.63716,147.50366 C 160.54246,140.77793 159.81591,123.81127 149.94458,112.548 z "
       style="fill:#ffcd50;fill-opacity:1;fill-rule:evenodd;stroke:#225500;stroke-width:0.93606329;stroke-linecap:butt;stroke-linejoin:miter;stroke-miterlimit:4;stroke-dasharray:none;stroke-opacity:1;display:inline"
       id="path10795" />
    <use
       transform="matrix(0.850253,0,0,0.850253,30.02179,-25.41726)"
       id="use1904"
       x="0"
       y="0"
       width="251"
       height="304.20001"
       xlink:href="#use4852" />
    <path
       d="M 209.94206,127.04486 C 199.66277,143.13755 175.132,138.57999 179.25913,178.55596 C 181.63277,174.265 184.8878,167.93362 187.36204,166.81306 C 198.58781,159.0368 199.0601,139.92405 209.94206,127.04486 z "
       style="fill:#ffcd50;fill-opacity:1;fill-rule:evenodd;stroke:#225500;stroke-width:1.05382323;stroke-linecap:butt;stroke-linejoin:miter;stroke-miterlimit:4;stroke-dasharray:none;stroke-opacity:1;display:inline"
       id="path10781" />
    <use
       transform="matrix(0.904462,0,0,0.904462,14.2249,-19.48015)"
       id="use1897"
       x="0"
       y="0"
       width="251"
       height="304.20001"
       xlink:href="#rect2188" />
    <path
       d="M 146.97347,127.50991 C 157.37023,143.15539 181.41705,138.23603 178.06908,177.62893 C 175.65806,173.45068 172.34391,167.28116 169.89034,166.22302 C 158.71049,158.77438 157.90589,139.98388 146.97347,127.50991 z "
       style="fill:#ffcd50;fill-opacity:1;fill-rule:evenodd;stroke:#225500;stroke-width:1.03668284;stroke-linecap:butt;stroke-linejoin:miter;stroke-miterlimit:4;stroke-dasharray:none;stroke-opacity:1;display:inline"
       id="path10797" />
    <use
       transform="matrix(0.904462,0,0,0.904462,19.38411,-19.1807)"
       id="use1899"
       x="0"
       y="0"
       width="251"
       height="304.20001"
       xlink:href="#use4852" />
    <path
       d="M 213.84847,144.33924 C 202.44653,162.18983 175.23622,157.13438 179.81413,201.4769 C 182.44705,196.71723 186.05759,189.69426 188.80204,188.45124 C 201.25407,179.82567 201.77788,158.62519 213.84847,144.33924 z "
       style="fill:#ffcd50;fill-opacity:1;fill-rule:evenodd;stroke:#225500;stroke-width:1.16893113;stroke-linecap:butt;stroke-linejoin:miter;stroke-miterlimit:4;stroke-dasharray:none;stroke-opacity:1;display:inline"
       id="path10783" />
    <use
       transform="matrix(0.931554,0,0,0.931554,11.46887,-5.793958)"
       id="use1893"
       x="0"
       y="0"
       width="251"
       height="304.20001"
       xlink:href="#rect2188" />
    <path
       d="M 143.39217,144.39124 C 155.1153,162.03259 182.22974,156.4857 178.45468,200.90392 C 175.73608,196.19266 171.99917,189.23607 169.23258,188.04298 C 156.62653,179.64408 155.71925,158.45651 143.39217,144.39124 z "
       style="fill:#ffcd50;fill-opacity:1;fill-rule:evenodd;stroke:#225500;stroke-width:1.16893244;stroke-linecap:butt;stroke-linejoin:miter;stroke-miterlimit:4;stroke-dasharray:none;stroke-opacity:1;display:inline"
       id="path10799" />
    <use
       transform="matrix(0.931554,0,0,0.931554,12.72823,-5.800805)"
       id="use1895"
       x="0"
       y="0"
       width="251"
       height="304.20001"
       xlink:href="#use4852" />
    <path
       d="M 217.21422,161.11695 C 204.84616,180.4798 175.3305,174.99607 180.29643,223.09554 C 183.15229,217.93252 187.06874,210.31456 190.04573,208.96622 C 203.55266,199.6098 204.12086,176.61317 217.21422,161.11695 z "
       style="fill:#ffcd50;fill-opacity:1;fill-rule:evenodd;stroke:#225500;stroke-width:1.26796722;stroke-linecap:butt;stroke-linejoin:miter;stroke-miterlimit:4;stroke-dasharray:none;stroke-opacity:1;display:inline"
       id="path10785" />
    <path
       d="M 210.189,49.919061 L 211.189,49.919061 L 211.189,168.8468 L 210.189,169.71101 L 210.189,49.919061 z "
       style="fill:#ffcd50;fill-opacity:1;fill-rule:evenodd;stroke:none;stroke-width:1.29999995;stroke-linecap:butt;stroke-miterlimit:4;stroke-opacity:1"
       id="rect2188" />
    <path
       d="M 140.46847,161.17621 C 153.18484,180.31219 182.5965,174.29535 178.50155,222.47687 C 175.55275,217.36635 171.4992,209.82039 168.49822,208.52622 C 154.82421,199.41567 153.84004,176.43304 140.46847,161.17621 z "
       style="fill:#ffcd50;fill-opacity:1;fill-rule:evenodd;stroke:#225500;stroke-width:1.26796842;stroke-linecap:butt;stroke-linejoin:miter;stroke-miterlimit:4;stroke-dasharray:none;stroke-opacity:1;display:inline"
       id="path10801" />
    <use
       transform="matrix(-1,0,0,1,357.528,-0.1)"
       id="use4852"
       x="0"
       y="0"
       width="251"
       height="304.20001"
       xlink:href="#rect2188" />
    <path
       d="M 149.40722,16.390642 L 223.55687,16.390642 L 223.55687,49.605467 L 137.29794,49.605467 L 149.40722,16.390642 z "
       style="fill:#225500;fill-opacity:1;fill-rule:nonzero;stroke:none;stroke-width:1;stroke-linecap:round;stroke-linejoin:miter;stroke-miterlimit:4;stroke-opacity:1"
       id="rect2844" />
  </g>
  <path
     d="M 249.55062,1.4395041 L 125.50012,1.4395041 L 1.449569,1.4395041 L 1.449569,174.9361 C 0.68232904,268.65698 81.739009,302.75585 125.5001,302.75585 C 168.49395,302.75585 250.31785,268.65698 249.55062,174.9361 L 249.55062,1.4395041 z "
     style="fill:none;fill-opacity:0;stroke:#000000;stroke-width:1.88832211;stroke-linecap:round;stroke-linejoin:bevel"
     id="Frame" />
</svg>
