<?xml version="1.0" encoding="UTF-8" standalone="no"?>
<!-- Created with Inkscape (http://www.inkscape.org/) -->
<svg
   xmlns:dc="http://purl.org/dc/elements/1.1/"
   xmlns:cc="http://web.resource.org/cc/"
   xmlns:rdf="http://www.w3.org/1999/02/22-rdf-syntax-ns#"
   xmlns:svg="http://www.w3.org/2000/svg"
   xmlns="http://www.w3.org/2000/svg"
   xmlns:xlink="http://www.w3.org/1999/xlink"
   version="1.0"
   width="251"
   height="304.20001"
   id="svg4166">
  <metadata
     id="metadata1880"><rdf:RDF><cc:Work
         rdf:about=""><dc:title>Vannas kommunvapen</dc:title><dc:date>13-10-2007</dc:date><dc:creator><cc:Agent><dc:title>Lokal_Profil</dc:title></cc:Agent></dc:creator><cc:license
         rdf:resource="http://creativecommons.org/licenses/by-sa/2.5/" /><dc:rights><cc:Agent><dc:title>cc-by-sa-2.5</dc:title></cc:Agent></dc:rights><dc:format>image/svg+xml</dc:format><dc:type
         rdf:resource="http://purl.org/dc/dcmitype/StillImage" /></cc:Work><cc:License
         rdf:about="http://creativecommons.org/licenses/by-sa/2.5/"><cc:permits
         rdf:resource="http://web.resource.org/cc/Reproduction" /><cc:permits
         rdf:resource="http://web.resource.org/cc/Distribution" /><cc:requires
         rdf:resource="http://web.resource.org/cc/Notice" /><cc:requires
         rdf:resource="http://web.resource.org/cc/Attribution" /><cc:permits
         rdf:resource="http://web.resource.org/cc/DerivativeWorks" /><cc:requires
         rdf:resource="http://web.resource.org/cc/ShareAlike" /></cc:License></rdf:RDF>
  </metadata>
  <defs
     id="defs4168">
    <clipPath
       id="clipPath2809">
      <use
         transform="matrix(0.844044,0,0,1.096622,19.57268,5.369247)"
         id="use3433"
         x="0"
         y="0"
         width="1"
         height="1"
         xlink:href="#Shield" />
    </clipPath>
  </defs>
  <path
     d="M 249.55058,1.4395041 L 1.4495291,1.4395041 L 1.4495291,174.9361 C 0.68228908,268.65698 81.738969,302.75585 125.50006,302.75585 C 168.49391,302.75585 250.31781,268.65698 249.55058,174.9361 L 249.55058,1.4395041 z "
     style="color:#000000;fill:#003d8f;fill-opacity:1;fill-rule:nonzero;stroke:none;stroke-width:1.88832211;stroke-linecap:round;stroke-linejoin:bevel;marker:none;marker-start:none;marker-mid:none;marker-end:none;stroke-miterlimit:4;stroke-dashoffset:0;stroke-opacity:1;visibility:visible;display:block"
     id="Shield" />
  <path
     d="M 125.53138,17.559677 C 39.680211,17.559677 1.444,114.81479 1.444,114.81479 L 14.907199,120.18124 C 14.907199,120.18124 50.826232,32.027123 125.53138,32.027123 C 199.3988,32.027123 236.15557,120.24401 236.15557,120.24401 L 249.556,114.78341 C 249.556,114.78341 210.65459,17.559677 125.53138,17.559677 z "
     style="fill:#eeeeee;fill-opacity:1;fill-rule:evenodd;stroke:none;stroke-width:14.41475582;stroke-linecap:butt;stroke-linejoin:miter;stroke-miterlimit:4;stroke-dasharray:none;stroke-opacity:1"
     id="path1895" />
  <g
     transform="matrix(1.184773,0,0,0.911891,-23.18919,-4.896165)"
     clip-path="url(#clipPath2809)"
     id="Bridge">
    <path
       d="M -48.476501,131.69636 L -48.476501,254.75621 L 299.47682,254.75621 L 299.47682,131.69636 L -48.476501,131.69636 z "
       style="fill:#eeeeee;fill-opacity:1;fill-rule:evenodd;stroke:none;stroke-width:10;stroke-linecap:butt;stroke-linejoin:miter;stroke-miterlimit:10"
       id="feldu-1" />
    <path
       d="M 223.7458,256.5502 C 211.99848,211.92261 171.64798,180.81904 125.50016,180.81904 C 79.35234,180.81904 39.001838,211.92261 27.254515,256.5502"
       style="fill:#003d8f;fill-opacity:1;fill-rule:evenodd;stroke:none;stroke-width:1.36452281;stroke-linecap:butt;stroke-linejoin:miter;stroke-miterlimit:10"
       id="Valv" />
    <g
       transform="translate(-20.99989,-222.8)"
       style="stroke:#ffcd50;stroke-opacity:1"
       id="Valvstenar">
      <path
         d="M 85.551363,396.25076 C 95.440767,388.56637 107.39703,384.00557 119.89186,383.15134"
         style="fill:none;fill-rule:evenodd;stroke:#003d8f;stroke-width:1.36452281;stroke-linecap:butt;stroke-linejoin:miter;stroke-miterlimit:10;stroke-opacity:1"
         id="steink-1" />
      <path
         d="M 207.44873,396.25076 C 197.55933,388.56637 185.60307,384.00557 173.10825,383.15134"
         style="fill:none;fill-rule:evenodd;stroke:#003d8f;stroke-width:1.36452281;stroke-linecap:butt;stroke-linejoin:miter;stroke-miterlimit:10;stroke-opacity:1"
         id="steink-2" />
      <path
         d="M 50.801515,425.63348 L 42.614378,436.54967"
         style="fill:none;fill-rule:evenodd;stroke:#003d8f;stroke-width:1.36452281;stroke-linecap:butt;stroke-linejoin:miter;stroke-miterlimit:10;stroke-opacity:1"
         id="steink-3" />
      <path
         d="M 242.19858,425.63348 L 250.38572,436.54967"
         style="fill:none;fill-rule:evenodd;stroke:#003d8f;stroke-width:1.36452281;stroke-linecap:butt;stroke-linejoin:miter;stroke-miterlimit:10;stroke-opacity:1"
         id="steink-4" />
      <path
         d="M 134.49225,448.64844 L 117.84507,374.9642 C 136.55853,369.50611 156.44157,369.50611 175.15503,374.9642 L 158.50785,448.64844"
         style="fill:none;fill-rule:evenodd;stroke:#003d8f;stroke-width:1.36452281;stroke-linecap:butt;stroke-linejoin:miter;stroke-miterlimit:10;stroke-opacity:1"
         id="steing-1" />
      <path
         d="M 212.99779,448.64844 L 248.83926,419.99346 C 238.81634,406.77485 226.29969,395.64894 211.99714,387.24491 L 176.88343,448.64844"
         style="fill:none;fill-rule:evenodd;stroke:#003d8f;stroke-width:1.36452281;stroke-linecap:butt;stroke-linejoin:miter;stroke-miterlimit:10;stroke-opacity:1"
         id="steing-2" />
      <path
         d="M 80.002306,448.64844 L 44.160837,419.99346 C 54.18376,406.77485 66.70041,395.64894 81.002953,387.24491 L 116.11667,448.64844"
         style="fill:none;fill-rule:evenodd;stroke:#003d8f;stroke-width:1.36452281;stroke-linecap:butt;stroke-linejoin:miter;stroke-miterlimit:10;stroke-opacity:1"
         id="steing-3" />
    </g>
  </g>
  <rect
     width="21.25984"
     height="90"
     rx="1.1356752"
     ry="2.4460697"
     x="215.94257"
     y="-115.5"
     transform="matrix(0,1,-1,0,0,0)"
     style="opacity:1;fill:#ffcd50;fill-opacity:1;stroke:none;stroke-width:5;stroke-miterlimit:4;stroke-dasharray:none;stroke-opacity:1"
     id="rect1904" />
  <use
     transform="translate(110,1.302083e-7)"
     id="use2869"
     x="0"
     y="0"
     width="251"
     height="304.20001"
     xlink:href="#rect1904" />
  <use
     transform="translate(55,38.9376)"
     id="use2871"
     x="0"
     y="0"
     width="251"
     height="304.20001"
     xlink:href="#rect1904" />
  <path
     d="M 249.55062,1.4395041 L 125.50012,1.4395041 L 1.449569,1.4395041 L 1.449569,174.9361 C 0.68232904,268.65698 81.739009,302.75585 125.5001,302.75585 C 168.49395,302.75585 250.31785,268.65698 249.55062,174.9361 L 249.55062,1.4395041 z "
     style="color:#000000;fill:none;fill-opacity:0;fill-rule:nonzero;stroke:#000000;stroke-width:1.88832211;stroke-linecap:round;stroke-linejoin:bevel;marker:none;marker-start:none;marker-mid:none;marker-end:none;stroke-miterlimit:4;stroke-dashoffset:0;stroke-opacity:1;visibility:visible;display:block"
     id="Frame" />
</svg>
