<?xml version="1.0" encoding="UTF-8" standalone="no"?>
<!-- Created with Inkscape (http://www.inkscape.org/) -->

<svg
   xmlns:dc="http://purl.org/dc/elements/1.1/"
   xmlns:cc="http://web.resource.org/cc/"
   xmlns:rdf="http://www.w3.org/1999/02/22-rdf-syntax-ns#"
   xmlns:svg="http://www.w3.org/2000/svg"
   xmlns="http://www.w3.org/2000/svg"
   xmlns:xlink="http://www.w3.org/1999/xlink"
   version="1.0"
   width="251"
   height="304.20001"
   id="svg4166">
  <defs
     id="defs4168" />
  <metadata
     id="metadata1880"><rdf:RDF><cc:Work
         rdf:about=""><dc:title>Umea kommunvapen</dc:title><dc:date>10-10-2007</dc:date><dc:creator><cc:Agent><dc:title>Lokal_Profil</dc:title></cc:Agent></dc:creator><cc:license
         rdf:resource="http://creativecommons.org/licenses/by-sa/2.5/" /><dc:rights><cc:Agent><dc:title>cc-by-sa-2.5</dc:title></cc:Agent></dc:rights><dc:format>image/svg+xml</dc:format><dc:type
         rdf:resource="http://purl.org/dc/dcmitype/StillImage" /></cc:Work><cc:License
         rdf:about="http://creativecommons.org/licenses/by-sa/2.5/"><cc:permits
         rdf:resource="http://web.resource.org/cc/Reproduction" /><cc:permits
         rdf:resource="http://web.resource.org/cc/Distribution" /><cc:requires
         rdf:resource="http://web.resource.org/cc/Notice" /><cc:requires
         rdf:resource="http://web.resource.org/cc/Attribution" /><cc:permits
         rdf:resource="http://web.resource.org/cc/DerivativeWorks" /><cc:requires
         rdf:resource="http://web.resource.org/cc/ShareAlike" /></cc:License></rdf:RDF>
  </metadata>
  <path
     d="m 249.55058,1.4395041 -248.1010509,0 0,173.4965959 C 0.68228908,268.65698 81.738969,302.75585 125.50006,302.75585 c 42.99385,0 124.81775,-34.09887 124.05052,-127.81975 l 0,-173.4965959 z"
     id="Shield"
     style="color:#000000;fill:#003d8f;stroke:none" />
  <g
     transform="matrix(0.553213,0,0,0.553213,50.63778,133.9527)"
     id="Ren">
    <path
       d="m 71.294224,225.23123 c -23.390492,16.39252 -30.341285,17.13294 -36.5251,11.76557 -0.84281,17.87501 21.306626,-0.65075 40.03621,-3.86557 0,0 6.14444,-7.9 -3.51111,-7.9 z"
       id="path2825"
       style="fill:#d40000" />
    <path
       d="m 129.93736,161.73092 c 2.10421,-0.0316 9.37805,0.88148 16.25305,1.04838 26.23441,0.63687 29.7998,1.44058 22.95771,5.17511 -1.76452,0.96311 -5.18885,3.6016 -7.93507,5.40746 -10.11646,6.65239 -24.46086,12.88055 -29.02264,4.74582 -0.2427,-0.43279 -0.7875,-0.89993 -1.75,-0.8972 -1.34059,0.004 -1.04816,0.59916 1.25,2.54487 2.7703,2.86779 4.87863,3.3257 8.75,3.36122 3.77579,-0.0766 7.51243,-1.49847 11.11249,-2.51891 4.65966,-1.5877 4.76523,-1.57561 8.42814,0.96543 2.04015,1.41529 7.08372,5.85132 11.20792,9.85784 8.28838,7.26273 17.05903,13.7409 26.50145,19.31558 1.57387,1.29009 1.95331,1.45824 2.68485,1.71695 0.73153,0.25871 -58.29331,54.94381 -59.80605,53.36627 -2.04382,-7.1862 -6.91665,-11.71378 -10.52817,-17.61422 -1.0751,-1.925 -3.05574,-5.3 -4.40143,-7.5 -1.34568,-2.2 -2.92449,-5.72422 -3.50847,-7.8316 -1.02974,-3.71599 -0.93059,-3.97246 3.28583,-8.5 4.32039,-5.31127 8.50252,-12.07001 9.77344,-18.96373 -5.55943,6.41879 -9.50474,17.11199 -19.63056,22.76343 -7.79231,3.9856 -13.10479,4.84798 -23.632707,3.83634 -10.05595,-0.9663 -12.27951,-0.2412 -19.49441,6.35709 -4.87632,4.45958 -7.91503,5.83847 -12.86644,5.83847 -2.863851,0 -6.784206,-1.39149 -6.438759,-3.22035 0.220656,-1.16819 11.572524,-5.37257 19.337599,-8.57955 2.896021,-1.19606 3.069861,-2.77432 0.18582,-2.2001 -4.67419,0.93065 -6.196546,1.47735 -10.73665,3.5 -6.424327,2.86209 -8.27309,4.28147 -13.46271,1.5 -2.05236,-1.1 -4.31038,-2 -5.01782,-2 -0.70743,0 -1.7982,-1.12362 -2.42392,-2.49694 -0.92189,-2.02333 -0.79814,-3.12742 0.65243,-5.82097 1.5014,-2.78795 1.58792,-3.70185 0.53642,-5.66659 -1.0515,-1.96474 -1.35465,-4.39688 -0.69949,-5.4741 0.65516,-1.07722 2.31619,-2.95253 3.69119,-4.16735 4.35055,-3.84372 14.92194,-12.7055 20.81568,-17.44934 3.12638,-2.51641 6.90792,-6.38893 8.40343,-8.60559 2.71691,-4.02704 14.44595,-13.5432 20.64119,-16.74688 1.80421,-0.93299 3.813176,-3.52708 5.308807,-5.13429 6.15641,-6.61569 20.93593,-0.14945 29.57785,0.0874 z"
       id="path1875"
       style="fill:#eeeeee" />
    <path
       d="m 137.1993,177.87466 c -2.51108,-0.65369 -4.61511,-1.83046 -4.77237,-2.66914 -0.23019,-1.2276 1.15519,-1.5083 7.62885,-1.54569 7.11781,-0.0411 8.28412,-0.33096 11.64399,-2.89365 2.57697,-1.96555 5.84528,-3.20661 10.54839,-4.00548 6.7283,-1.14286 8.95643,-0.34099 2.68078,0.96479 -1.78119,0.37061 -4.57673,1.85504 -6.54861,2.57866 -5.84715,2.14572 -9.42285,6.12697 -9.63105,6.39892 -1.06762,0.82635 -2.49332,1.50245 -3.16821,1.50245 -2.86967,0.66455 -5.51351,0.34002 -8.38177,-0.33086 z"
       id="Ear"
       style="fill:#003d8f" />
    <path
       d="m 48.789482,220.62081 c -0.28599,-1.43267 -0.0039,-2.40088 0.927331,-3.18233 0.736107,-0.61775 1.54513,-1.71285 1.79783,-2.43355 0.252699,-0.72071 0.975455,-1.31037 1.606126,-1.31037 1.953898,0 1.471846,4.98438 -0.691247,7.14747 -2.36385,2.36385 -3.13333,2.31709 -3.64004,-0.22122 z"
       id="Nose"
       style="fill:#003d8f" />
    <g
       id="Eye">
      <path
         d="m 90.190403,194.31251 c 0,-0.49116 0.64099,-1.13898 1.42443,-1.43962 0.78343,-0.30063 2.16529,-2.10786 3.0708,-4.01607 5.375807,-5.1617 7.042127,-5.66894 14.004767,-1.6513 1.65,1.09275 2.36043,1.98979 1.57874,1.99341 -0.78169,0.004 -2.2507,0.75722 -3.26445,1.67466 -1.13479,1.02696 -4.18925,3.27607 -7.538817,2.01008 -3.442008,-1.30093 -6.1411,0.78748 -6.68555,1.33193 -1.23221,1.23221 -2.58992,1.28301 -2.58992,0.0969 z"
         id="path2025"
         style="fill:#003d8f" />
      <path
         d="m 105.12197,188.6528 c 0,-1.3769 -1.27176,-2.50344 -2.82614,-2.50344 -1.55437,0 -2.826136,1.12654 -2.826136,2.50344 0,1.3769 1.271766,2.50344 2.826136,2.50344 1.55438,0 2.82614,-1.12654 2.82614,-2.50344 z"
         id="use1973"
         style="fill:#eeeeee" />
    </g>
    <path
       d="m 122.99812,163.60063 c -0.79032,5.31463 -9.79485,3.96627 -12.38834,1.04265 -2.11405,-2.38315 1.96481,-3.9904 -1.05424,-6.36518 -3.3255,-2.61584 -6.93385,-2.63147 -11.380737,-0.0493 -9.05476,5.25781 -11.88793,6.16366 -15.52422,4.96358 -1.9031,-0.62808 -3.46018,-1.45473 -3.46018,-1.83701 0,-0.38227 1.54859,-1.52901 3.44131,-2.54831 8.71821,-4.69507 3.8597,-11.5589 -8.30306,-11.73011 -5.63571,-0.0793 -11.58633,1.85969 -16.36072,5.33119 -1.23716,0.89955 -2.02786,0.94705 -2.80633,0.16857 -0.77847,-0.77847 -0.33379,-1.97525 1.57826,-4.24759 3.15835,-3.75349 2.25651,-5.69417 -3.11431,-6.70174 -3.85257,-0.72275 -5.92026,-2.71528 -5.0827,-4.89794 0.46065,-1.20043 1.12583,-1.29258 3.31701,-0.45949 3.96667,1.50812 10.10959,0.20242 11.89947,-2.52928 1.70722,-2.60555 1.85189,-5.14927 0.86821,-15.26551 -0.61102,-6.28379 -0.48048,-7.31578 0.99712,-7.88278 2.41174,-0.92548 3.47074,0.52225 5.18557,7.08907 0.82733,3.16819 2.5469,7.41202 3.82126,9.43075 3.3446,5.29818 12.57707,11.85862 22.46808,15.96543 8.047007,3.34117 9.287147,3.5689 19.590827,3.59743 10.66964,0.0296 11.23501,-0.0817 18.82473,-3.70573 8.79732,-4.2006 10.98445,-5.73721 18.34638,-12.88962 15.28109,-14.8462 18.82929,-44.191068 8.1964,-67.787093 -2.28631,-5.073669 -4.79845,-8.234569 -12.02939,-15.135971 -6.70641,-6.400776 -8.96767,-9.171124 -8.49378,-10.406053 1.23297,-3.213068 8.65043,0.756813 18.73308,10.026087 5.13122,4.717279 6.43925,5.428835 9.97964,5.428835 2.24094,0 4.90463,-0.444308 5.91931,-0.98735 3.16885,-1.695917 6.02252,-7.428193 6.03895,-12.130684 0.0186,-5.309983 1.15787,-7.413224 3.52388,-6.5053 1.4891,0.571421 1.65063,1.533107 1.11626,6.645717 -0.34363,3.287689 -0.41756,5.977617 -0.16429,5.977617 0.25328,0 1.93388,-0.898318 3.73467,-1.996262 3.31783,-2.02288 11.18571,-2.764896 12.18433,-1.149098 0.7437,1.203326 -3.42029,4.765233 -6.41016,5.483296 -1.375,0.330228 -6.39864,3.977274 -11.16364,8.104547 -9.80197,8.490112 -11.43306,11.58353 -10.33138,19.59373 0.89234,6.488115 4.20633,9.392779 9.8566,8.639193 5.44295,-0.725934 9.118,-4.710064 12.55421,-13.610033 2.99482,-7.756751 5.04458,-9.469325 6.08066,-5.080404 0.32264,1.366733 1.79839,3.165118 3.27945,3.996411 2.56897,1.441928 3.01295,1.544225 5.64448,-1.484969 3.95125,-4.548352 11.72595,-22.477234 11.46719,-13.211496 -0.12966,4.927482 -4.88877,15.244017 -9.40509,20.387825 -1.64037,1.868269 -2.98248,4.038664 -2.98248,4.823101 0,2.153006 4.07226,5.504159 6.68856,5.504159 2.63831,0 3.0916,1.486646 0.72965,2.393011 -2.64585,1.015309 -5.14594,0.698459 -11.30379,-1.432594 -8.24803,-2.854404 -10.95791,-2.179623 -20.86372,5.195228 -6.19639,4.61319 -8.87003,9.41155 -12.69514,22.78382 -1.48508,5.1917 -3.34096,10.67866 -4.12419,12.19325 -1.75104,3.38614 -1.5826,3.50173 8.67181,5.95093 10.38817,2.48114 14.23527,2.41614 19.1087,-0.32288 5.12404,-2.87987 6.78812,-6.22662 6.78812,-13.65208 0,-3.29486 0.40313,-6.23979 0.89584,-6.5443 1.79769,-1.11104 5.16073,2.90943 5.38327,6.43562 0.12149,1.925 0.67089,3.83061 1.22089,4.23469 1.8026,1.32434 6.91847,0.75838 11.3592,-1.25665 5.14483,-2.33452 5.14983,-2.33524 5.1092,-0.72804 -0.0639,2.52914 -4.63881,6.33706 -10.9684,9.12959 -3.575,1.57724 -7.625,3.88209 -9,5.12187 -3.70378,3.33958 -6.42893,4.49494 -10.68426,4.52975 l -3.81574,0.0312 6.26072,5.88822 c 6.13538,5.77034 11.31146,8.04935 18.28164,8.04935 2.42706,0 9.95764,-3.20345 9.95764,-4.2359 0,-0.42026 0.45,-0.7641 1,-0.7641 2.05176,0 0.89554,4.04938 -2.14501,7.51237 -3.76818,4.29173 -8.60476,6.48763 -14.28928,6.48763 -4.0698,0 -11.80229,-2.95574 -13.06115,-4.99262 -1.24877,-2.02056 -2.25347,-0.91609 -2.78733,3.06413 -0.88263,6.58051 -4.76698,11.45214 -10.70346,13.42392 -4.09835,1.36125 -5.37816,1.44704 -6.58949,0.44173 -1.29863,-1.07777 -1.02657,-1.6406 1.99817,-4.13385 4.75148,-3.91657 7.25172,-11.58591 5.67997,-17.42294 -1.87505,-6.96343 -10.31589,-13.30678 -17.7755,-13.35841 -4.33373,-0.03 -8.84511,4.56352 -9.69368,9.87016 -0.35936,2.24734 -1.41491,4.44595 -2.37916,4.98557 -0.96425,0.53962 -0.58179,-1.66519 -0.76605,-2.62769 -0.17113,-1.61086 -1.32134,-3.30165 -4.03185,-4.13449 -4.09589,-1.13093 -8.15201,0.35262 -15.26409,5.58293 -2.36935,1.74245 -5.51935,3.44004 -7,3.77242 -4.07379,0.91449 -6.90704,3.7143 -7.38438,6.92425 z"
       id="Horn"
       style="fill:#d40000;stroke:#003d8f;stroke-width:0.90381104" />
  </g>
  <use
     transform="translate(-59.167,-134.7521)"
     id="Ren-2"
     x="0"
     y="0"
     width="251"
     height="304.20001"
     xlink:href="#Ren" />
  <use
     transform="translate(59.16666,-136.3654)"
     id="Ren-3"
     x="0"
     y="0"
     width="251"
     height="304.20001"
     xlink:href="#Ren" />
  <path
     d="m 249.55062,1.4395041 -248.101051,0 0,173.4965959 c -0.76723996,93.72088 80.28944,127.81975 124.050531,127.81975 42.99385,0 124.81775,-34.09887 124.05052,-127.81975 l 0,-173.4965959 z"
     id="Frame"
     style="fill:none;stroke:#000000;stroke-width:1.88832211;stroke-linejoin:bevel" />
</svg>
