<?xml version="1.0" encoding="UTF-8" standalone="no"?>
<!-- Created with Inkscape (http://www.inkscape.org/) -->
<svg
   xmlns:dc="http://purl.org/dc/elements/1.1/"
   xmlns:cc="http://web.resource.org/cc/"
   xmlns:rdf="http://www.w3.org/1999/02/22-rdf-syntax-ns#"
   xmlns:svg="http://www.w3.org/2000/svg"
   xmlns="http://www.w3.org/2000/svg"
   xmlns:xlink="http://www.w3.org/1999/xlink"
   version="1.0"
   width="251"
   height="304.20001"
   id="svg4166">
  <defs
     id="defs4168" />
  <metadata
     id="metadata1880"><rdf:RDF><cc:Work
         rdf:about=""><dc:title>Overtornea kommunvapen</dc:title><dc:date>20-10-2007</dc:date><dc:creator><cc:Agent><dc:title>Lokal_Profil</dc:title></cc:Agent></dc:creator><cc:license
         rdf:resource="http://creativecommons.org/licenses/by-sa/2.5/" /><dc:rights><cc:Agent><dc:title>cc-by-sa-2.5</dc:title></cc:Agent></dc:rights><dc:format>image/svg+xml</dc:format><dc:type
         rdf:resource="http://purl.org/dc/dcmitype/StillImage" /></cc:Work><cc:License
         rdf:about="http://creativecommons.org/licenses/by-sa/2.5/"><cc:permits
         rdf:resource="http://web.resource.org/cc/Reproduction" /><cc:permits
         rdf:resource="http://web.resource.org/cc/Distribution" /><cc:requires
         rdf:resource="http://web.resource.org/cc/Notice" /><cc:requires
         rdf:resource="http://web.resource.org/cc/Attribution" /><cc:permits
         rdf:resource="http://web.resource.org/cc/DerivativeWorks" /><cc:requires
         rdf:resource="http://web.resource.org/cc/ShareAlike" /></cc:License></rdf:RDF>
  </metadata>
  <path
     d="M 249.55058,1.4395041 L 1.4495291,1.4395041 L 1.4495291,174.9361 C 0.68228908,268.65698 81.738969,302.75585 125.50006,302.75585 C 168.49391,302.75585 250.31781,268.65698 249.55058,174.9361 L 249.55058,1.4395041 z "
     style="color:#000000;fill:#eeeeee;fill-opacity:1;stroke:none"
     id="Shield" />
  <path
     d="M 25.5,34.914076 L 54.55664,42.134106 L 62.92901,13.222466 L 71.20463,41.996276 L 100.42901,34.791146 L 79.64798,56.344946 L 100.5,78.051446 L 71.44332,70.831426 L 63.07096,99.743056 L 54.79534,70.969256 L 25.570968,78.174396 L 46.35201,56.620576 L 25.5,34.914076 z "
     style="fill:#d40000;fill-opacity:1;fill-rule:nonzero;stroke:none;stroke-width:2;stroke-miterlimit:4;stroke-dasharray:none;stroke-opacity:1"
     id="6-pt-star-sharp" />
  <use
     transform="translate(125,0)"
     id="Star-2"
     x="0"
     y="0"
     width="251"
     height="304.20001"
     xlink:href="#6-pt-star-sharp" />
  <use
     transform="translate(62.5,191.5517)"
     id="Star-3"
     x="0"
     y="0"
     width="251"
     height="304.20001"
     xlink:href="#6-pt-star-sharp" />
  <g
     id="Fox">
    <path
       d="M 66.168338,136.77593 C 64.592816,136.55375 63.448457,136.03448 61.805915,136.02319 C 58.680787,135.62306 56.352834,137.74696 53.342039,138.30489 C 47.059561,139.46911 43.962466,139.24428 39.585788,137.47452 C 37.820108,136.76054 37.706244,139.03657 38.38428,139.48768 C 42.418492,142.1717 51.068027,142.394 56.062898,139.76778 C 59.003414,138.2217 62.007871,137.90136 65.172725,137.74339 C 65.650442,137.52061 65.793527,137.07026 66.168338,136.77593 z "
       style="fill:#d40000;fill-opacity:1;fill-rule:evenodd;stroke:none;stroke-width:1px;stroke-linecap:butt;stroke-linejoin:miter;stroke-opacity:1"
       id="path13675" />
    <path
       d="M 79.475353,202.73096 C 79.022878,202.03855 78.941889,201.06402 79.309197,200.73162 C 79.503799,200.55551 79.730747,200.13409 79.813527,199.79511 L 79.964036,199.1788 L 79.210628,199.69401 C 78.41866,200.2356 77.92764,200.81269 77.914554,201.21728 C 77.906809,201.45673 75.961053,203.02897 75.655486,203.0427 C 75.567769,203.04663 75.339063,202.80131 75.147254,202.49753 C 74.814309,201.97024 74.824473,201.90893 75.371594,201.14433 C 75.830722,200.50272 75.914711,200.21261 75.793956,199.68546 L 75.643228,199.02744 L 76.335812,199.14089 C 77.134394,199.27169 78.126939,198.96417 78.126939,198.58594 C 78.126939,198.37798 77.902114,198.3528 76.976286,198.45708 C 76.343426,198.52837 75.620362,198.69684 75.369477,198.83147 C 74.832682,199.11952 73.943381,201.22743 73.943381,202.21174 C 73.943381,203.01065 73.395876,203.30089 72.902384,202.76358 C 72.45981,202.28171 72.688044,200.87513 73.386259,199.78154 C 73.692675,199.30161 73.943381,198.8009 73.943381,198.66887 C 73.943381,198.39665 74.932273,197.593 75.594785,197.3268 C 75.836991,197.22949 76.827833,197.0075 77.796658,196.83351 C 80.616369,196.32711 81.817872,195.86121 83.12349,194.76797 C 83.766269,194.22975 84.292182,193.68604 84.292182,193.55972 C 84.292182,193.4334 84.429073,193.26516 84.596383,193.18584 C 84.763698,193.10652 85.229217,192.6359 85.630877,192.13999 C 86.032536,191.64409 86.42631,191.19777 86.505926,191.14818 C 86.585547,191.0986 87.18518,190.22795 87.838449,189.21344 C 88.491717,188.19891 89.137772,187.19936 89.274125,186.99221 C 89.410489,186.78505 90.302248,185.94368 91.255821,185.12248 C 93.408796,183.26836 94.148803,182.4877 94.901206,181.27677 C 95.446763,180.39875 95.694904,179.79742 96.743645,176.81208 C 97.614108,174.33422 97.192653,171.17485 95.697253,168.96781 C 95.327649,168.42231 94.826571,167.65141 94.583744,167.25469 C 94.195775,166.62084 93.558539,165.90613 92.573986,165.00058 C 92.412234,164.85181 92.151465,164.52893 91.994496,164.28307 C 91.837526,164.03721 91.327889,163.44107 90.861956,162.95833 C 89.85491,161.91495 89.675302,161.43308 89.955949,160.52756 C 90.215543,159.68996 89.470609,157.55078 88.888771,157.46302 C 88.358616,157.38307 88.30852,157.68142 88.486113,159.86123 C 88.66748,162.08734 88.947789,162.66085 91.07982,165.16793 C 92.344863,166.65551 92.450478,167.0082 91.723497,167.31722 C 91.451022,167.43305 90.336327,167.93126 89.246401,168.42437 C 87.313129,169.29902 86.756029,169.53058 85.172931,170.11748 C 84.74907,170.27461 84.253649,170.48289 84.071995,170.5803 C 83.661156,170.80062 79.959346,172.21371 79.793023,172.21371 C 79.72611,172.21371 78.639127,172.61946 77.3775,173.11535 C 76.115875,173.61126 75.034078,174.017 74.973509,174.017 C 74.91294,174.017 74.116567,174.30342 73.203793,174.65349 C 71.520493,175.29909 69.555233,176.72497 66.849583,179.26374 C 66.278327,179.79976 65.559966,180.47333 65.253225,180.76056 C 64.946485,181.04779 64.695516,181.34005 64.695516,181.41004 C 64.695516,181.48003 64.398263,181.79204 64.034954,182.10338 C 63.671644,182.41473 63.374392,182.74858 63.374392,182.84527 C 63.374392,182.94196 62.692071,183.81503 61.858124,184.78544 C 59.867658,187.10161 58.970647,188.48764 58.970647,189.24706 C 58.970647,189.5855 58.87527,190.06785 58.7587,190.31895 C 58.493846,190.88947 57.443734,191.8695 57.097275,191.8695 C 56.954678,191.8695 56.61905,191.52084 56.351438,191.0947 C 55.974287,190.49416 55.912008,190.21837 56.074491,189.86836 C 56.189784,189.62001 56.234118,189.20261 56.173009,188.9408 C 56.059117,188.45287 56.159084,188.34495 57.842288,187.13878 C 58.692629,186.52943 58.741586,186.09899 57.960551,186.09899 C 57.567297,186.09899 57.007631,186.40541 56.153663,187.08825 L 54.916495,188.07752 L 54.897847,189.33994 C 54.88038,190.52253 54.831786,190.64243 54.129389,191.23593 C 52.915902,192.26129 52.473207,192.00824 52.398532,190.24654 C 52.335317,188.75516 52.772424,187.62308 53.769762,186.69515 C 54.465003,186.0483 54.576744,185.85383 54.32776,185.72405 C 54.156529,185.63481 53.882619,185.6021 53.719066,185.65136 C 53.175569,185.81506 52.169387,186.5463 52.157024,186.78658 C 52.138754,187.14164 51.012421,188.96149 50.664626,189.19788 C 50.433568,189.35492 50.285456,189.34202 50.043359,189.14375 C 49.767232,188.9176 49.766484,188.72289 50.03765,187.66146 C 50.356264,186.41431 50.670619,185.91866 51.142987,185.91866 C 51.28893,185.91866 51.986445,185.42575 52.693026,184.8233 C 53.555317,184.08809 54.104321,183.75506 54.362775,183.81041 C 55.040326,183.95552 57.649523,182.23558 57.649523,181.64384 C 57.649523,181.55288 57.823215,181.32116 58.035505,181.12888 C 58.793675,180.44222 61.005595,177.70272 61.63,176.67704 C 62.060014,175.97068 65.47174,172.93502 65.835599,172.93502 C 66.462417,172.93502 69.385073,170.85573 70.753612,169.43616 C 71.222388,168.94989 72.008004,168.20188 72.499424,167.77391 C 72.990842,167.34593 73.690165,166.69761 74.053474,166.33319 C 74.416783,165.96878 74.999815,165.42158 75.349099,165.1172 L 75.984164,164.56378 L 76.696334,165.25849 C 77.302207,165.84953 77.497148,165.935 78.002418,165.83114 C 78.402073,165.74899 78.700582,165.50472 78.91506,165.08433 C 79.408708,164.11673 80.328812,164.36027 80.328812,165.45852 C 80.328812,166.44979 81.863782,166.73978 83.557144,166.06843 L 84.502455,165.69365 L 85.472332,166.26408 C 86.438976,166.83261 87.360498,166.93742 87.53674,166.49887 C 87.584227,166.38071 87.344277,166.1653 87.00352,166.02016 C 86.662762,165.87503 85.95868,165.42396 85.438892,165.01777 C 84.259009,164.09577 83.564472,164.05259 82.750937,164.85067 C 82.39927,165.19566 82.064408,165.36941 81.905863,165.28916 C 81.507353,165.08746 80.989373,163.94938 80.989373,163.2755 C 80.989373,162.90548 80.790138,162.48673 80.468289,162.1803 L 79.947204,161.68416 L 79.344342,162.21531 C 79.012769,162.50745 78.57766,163.03049 78.377431,163.37763 C 78.177203,163.72475 77.923063,164.00877 77.812679,164.00877 C 77.702292,164.00877 77.381048,163.65114 77.098802,163.21402 C 76.698394,162.5939 76.585628,162.13325 76.585628,161.1177 C 76.585628,158.81244 76.256974,158.25123 75.374598,159.04975 C 74.50833,159.83368 74.165234,159.43468 74.160197,157.63745 C 74.158343,156.9761 74.069257,156.32172 73.96223,156.1833 C 73.678154,155.81587 73.119931,156.06435 72.596181,156.79135 C 72.1163,157.45745 71.442626,157.62821 71.214597,157.14155 C 71.011389,156.70786 71.05381,155.42262 71.332673,153.56423 C 71.610955,151.70972 71.489971,150.93498 70.922094,150.93498 C 70.480918,150.93498 69.099261,151.98691 69.099261,152.32281 C 69.099261,152.45213 68.909287,152.55793 68.677098,152.55793 C 68.379565,152.55793 68.156428,152.33168 67.921267,151.79153 C 67.535534,150.90554 67.038633,147.75924 67.241902,147.48987 C 67.317428,147.38979 67.318463,147.10965 67.244202,146.86734 C 67.006944,146.09314 65.963929,146.42539 65.07108,147.55956 C 64.853879,147.83547 64.581439,148.01326 64.465656,147.95467 C 64.348701,147.89546 64.255141,146.77372 64.255141,145.43066 C 64.255141,143.22847 64.292914,142.99666 64.67936,142.82728 C 64.994572,142.68913 65.348188,142.72483 66.055531,142.96623 C 66.579103,143.14493 67.453361,143.39354 67.998325,143.5187 C 69.063956,143.76346 69.743538,144.0266 72.571083,145.28931 C 74.8086,146.28853 75.158947,146.24321 74.954505,144.98105 C 74.815221,144.12114 74.831539,144.08249 75.333881,144.08249 C 75.622586,144.08249 76.294815,144.32446 76.827728,144.6202 C 78.476388,145.53512 80.129649,145.27794 79.493166,144.20558 C 79.12497,143.58523 78.96684,142.50151 79.225424,142.37062 C 79.352611,142.30625 79.789044,142.34341 80.195279,142.4532 C 80.748222,142.60266 81.079233,142.59861 81.512097,142.43708 C 82.161445,142.19478 82.2094,141.92774 81.818508,140.73081 C 81.563339,139.94947 81.576812,139.87856 82.038695,139.57226 C 82.541401,139.23888 82.750303,138.13167 82.310497,138.13167 C 81.858164,138.13167 82.11184,137.42759 82.688018,137.08385 L 83.285728,136.72726 L 82.853158,136.0685 C 82.363663,135.32305 81.546881,134.81036 81.081678,134.95656 C 80.669886,135.08597 80.681192,135.54083 81.099466,135.67228 C 81.573604,135.82128 81.506516,136.46639 80.989373,136.73088 C 80.522619,136.96961 80.400966,137.49447 80.769186,137.68084 C 80.890289,137.74214 80.989373,137.98393 80.989373,138.21814 C 80.989373,138.54469 80.835332,138.6717 80.328812,138.76281 C 79.577348,138.89799 79.462755,139.33013 80.000235,140.00193 C 80.219015,140.27539 80.284182,140.6136 80.191337,140.99378 C 80.066386,141.50545 80.010174,141.54227 79.694212,141.31934 C 79.089846,140.89292 78.068318,140.68923 77.528496,140.8875 C 77.086996,141.04965 77.046317,141.17732 77.104457,142.21826 C 77.171835,143.42454 76.939039,143.83489 76.358055,143.53396 C 76.180463,143.44197 75.851295,143.36546 75.626571,143.36394 C 75.401846,143.36243 74.917458,143.15409 74.550152,142.90097 C 74.050519,142.55665 73.68206,142.45447 73.087152,142.49523 C 72.316267,142.54804 72.294108,142.56981 72.361722,143.20786 C 72.471688,144.24552 72.415777,144.24593 69.209354,143.23074 C 68.60384,143.03902 67.761623,142.75519 67.337763,142.59999 C 66.199475,142.18323 65.778753,142.06859 64.820711,141.9142 C 63.785459,141.74736 60.474006,142.12125 59.521115,142.51256 C 59.157806,142.66176 58.034122,143.04449 57.024039,143.36307 C 52.646859,144.74363 50.151341,144.78106 49.300409,143.47889 C 49.137222,143.22918 49.073099,142.87738 49.157913,142.69712 C 49.293186,142.40963 49.074591,142.42449 49.936929,142.359 C 51.532881,142.2378 52.972625,141.712 54.701837,141.02778 C 58.100095,139.41213 58.427132,139.62529 61.646418,139.36975 C 63.933144,139.18823 65.93644,138.25954 67.098399,136.83589 C 66.775733,136.33717 65.349092,135.17222 64.727227,134.89966 C 64.073824,134.61326 62.708747,134.82322 61.694829,135.00753 C 53.570471,136.48442 51.936837,138.91441 43.816126,137.89907 C 42.611407,137.74844 42.422419,137.61963 42.016228,136.60484 C 42.016228,136.07228 42.092538,135.63529 42.51865,135.36462 C 43.252669,134.89837 44.177548,134.58883 45.319037,134.02226 C 45.586524,133.8895 48.513636,131.26011 51.996776,128.78393 C 53.065819,128.02394 54.302443,126.99639 54.74483,126.50049 C 55.59621,125.54612 56.3284,124.37148 56.3284,123.95998 C 56.3284,123.6144 57.181773,121.4197 57.661158,120.53242 C 58.593342,118.80708 60.72958,117.71234 66.016639,116.25058 C 69.384231,115.31952 69.119637,115.28379 69.759823,116.75595 C 70.119576,117.58323 70.442718,118.04239 70.69252,118.08125 C 71.046524,118.1363 71.064912,117.93667 70.941535,115.37795 C 70.816904,112.79324 70.843991,112.51062 71.361864,110.99226 C 71.666312,110.09963 72.035162,108.77521 72.181532,108.0491 C 72.552883,106.20691 73.295658,106.10315 74.196788,107.76761 C 75.104455,108.89504 75.68225,110.13253 76.261477,111.39833 C 77.107738,113.72424 77.516652,114.7997 77.699449,115.18022 C 77.805416,115.40081 77.95833,116.45574 78.039258,117.52448 C 78.202947,119.68623 78.409655,120.25016 78.912949,119.90807 C 79.153889,119.74431 78.617345,119.28805 78.617345,117.6403 C 78.699169,113.95761 76.662337,110.48098 74.749069,107.22909 C 75.216147,106.84656 80.989373,111.89382 80.989373,112.7168 C 80.989373,112.82867 81.17311,113.13559 81.397677,113.39885 C 82.253624,114.40228 82.964195,117.18144 82.972401,119.55785 C 82.978756,121.39798 83.068233,121.5788 84.220049,122.07923 C 85.726433,122.7337 86.705203,123.36743 88.10284,124.59326 C 88.98004,125.36262 89.356483,125.5053 89.356483,125.0684 C 89.356483,124.7255 86.897249,122.95992 86.313174,122.6372 C 84.024707,121.3727 83.635007,120.44184 83.608757,119.61297 C 83.530061,117.12813 83.82543,117.41521 85.383847,118.11522 C 86.113178,118.44283 90.745869,122.19988 92.511312,124.54172 C 94.65068,127.37955 96.167762,129.09163 97.613515,130.29975 C 99.281635,131.69369 100.5031,132.19341 103.11819,132.5518 C 103.72371,132.63479 104.71454,132.78932 105.32006,132.8952 C 106.81113,133.15591 121.30296,133.28767 125.13692,133.07536 C 126.83236,132.98148 129.40855,132.82456 130.86179,132.72669 C 132.31503,132.62881 137.51695,132.54544 142.42162,132.54145 C 149.982,132.53528 151.52352,132.57828 152.55024,132.824 C 153.2163,132.9834 154.60348,133.21805 155.63285,133.34545 C 157.20277,133.53973 157.83345,133.72986 159.54557,134.52498 C 161.9431,135.63841 164.54119,137.6237 165.31587,138.93428 C 166.28736,140.57784 168.54975,142.09953 171.15605,142.86242 C 172.6058,143.28677 174.53577,144.07049 175.25682,144.52766 C 175.57459,144.72913 176.11956,145.03366 176.46785,145.20439 C 177.57532,145.74724 177.96013,145.96206 178.89967,146.56201 C 179.40447,146.88435 179.89988,147.15177 180.0006,147.15627 C 180.10133,147.16077 180.62962,147.52585 181.17458,147.96755 C 181.71954,148.40926 182.33882,148.81677 182.55075,148.87316 C 182.76268,148.92953 182.93608,149.0422 182.93608,149.12353 C 182.93608,149.20486 183.65444,149.73878 184.53243,150.31004 C 185.41042,150.8813 186.78475,151.89005 187.58649,152.55172 C 189.20461,153.88716 191.59075,155.62351 191.80783,155.62351 C 191.88492,155.62351 192.52129,156.0908 193.22196,156.66194 C 193.92263,157.23308 195.48356,158.43001 196.69069,159.32179 C 199.54163,161.42794 202.7297,164.15553 202.9482,164.67546 C 202.99504,164.78693 203.41572,165.29114 203.88305,165.79592 C 204.91293,166.90835 204.94738,167.16452 204.06715,167.16452 C 203.21671,167.16452 202.99624,167.59717 203.58007,168.12042 C 203.82343,168.33853 204.19363,168.7939 204.40275,169.13236 C 204.61186,169.47082 205.12924,170.03886 205.5525,170.39467 C 206.34845,171.06377 207.50802,172.73411 207.942,173.83667 C 208.19094,174.46918 208.7282,175.4874 209.70228,177.17274 C 209.98887,177.66865 210.32797,178.46532 210.45581,178.94313 C 210.58363,179.42093 210.91633,180.27298 211.19515,180.83657 C 211.47396,181.40016 211.82744,182.51046 211.98065,183.30391 C 212.13386,184.09734 212.42155,185.35514 212.61998,186.09899 C 213.14231,188.05692 213.12192,194.20709 212.58532,196.55803 C 212.37029,197.50025 212.15284,198.52567 212.1021,198.83674 C 211.99067,199.52023 210.98501,201.50019 210.38722,202.21303 C 209.9784,202.70055 209.89349,202.72208 208.83098,202.60784 C 208.21287,202.54137 207.3108,202.29471 206.82639,202.0597 C 205.63872,201.48349 202.97312,199.62053 202.97312,199.36667 C 202.97312,199.25453 202.79972,199.03226 202.58779,198.87274 C 202.06095,198.47617 201.53564,197.90157 200.67989,196.78583 C 199.78771,195.62257 199.54914,193.94448 199.9149,191.40465 C 200.17348,189.60904 200.07297,188.9563 199.19519,186.73014 C 198.55234,185.0998 198.129,183.30508 198.129,182.21014 C 198.129,181.67114 198.05469,181.23137 197.96386,181.23289 C 197.43263,181.24177 197.19161,181.65126 197.08653,182.72344 C 196.99192,183.68873 197.11957,184.39727 197.79316,186.64551 C 198.45162,188.84322 198.56781,189.47477 198.37685,189.818 C 198.24573,190.0537 198.04397,190.24654 197.92853,190.24654 C 197.57742,190.24654 196.81247,189.23366 196.40167,188.22483 C 195.99867,187.23517 195.99561,187.07352 196.2837,182.00281 C 196.41714,179.6541 196.32104,178.70553 195.94964,178.70553 C 195.58533,178.70553 195.2104,179.79861 195.32813,180.51749 C 195.39924,180.95171 195.32825,181.43671 195.15046,181.7313 C 194.98759,182.00115 194.77369,183.11365 194.67512,184.20353 C 194.52679,185.84358 194.43216,186.1951 194.12604,186.24301 C 193.5682,186.3303 193.41831,185.05288 193.73761,182.93256 C 194.14598,180.22094 194.24375,176.23383 193.91827,175.56584 C 193.26593,174.22701 193.17326,174.37767 193.24781,176.65572 C 193.30208,178.31435 193.2354,179.08342 192.98791,179.65277 C 192.80481,180.074 192.59615,180.89597 192.52423,181.47937 C 192.34301,182.9492 192.12741,183.22527 191.63827,182.61389 C 191.22213,182.09374 191.22715,181.99811 191.85314,178.5252 C 192.26594,176.23512 192.19392,174.31548 191.64005,172.84487 C 191.24434,171.79418 189.77306,169.98589 189.24507,169.90131 C 188.79893,169.82983 188.75688,170.35231 189.17621,170.75689 C 189.3385,170.91347 189.69676,171.54741 189.97235,172.16567 C 190.43638,173.20666 190.46708,173.51642 190.38757,176.35621 C 190.31485,178.95348 190.24381,179.47009 189.92327,179.73261 C 189.21847,180.30982 189.03818,179.81067 189.18325,177.6837 C 189.39203,174.62279 189.31665,174.1684 188.35061,172.66454 C 188.14928,172.35112 188.00031,171.66839 187.99649,171.04158 C 187.98787,169.63154 187.72156,168.73329 187.08523,167.96797 C 186.03833,166.70888 185.75883,167.29561 186.11014,170.01489 C 186.25869,171.16462 187.06878,173.45962 187.45917,173.83667 C 187.8708,174.23423 188.29021,175.65504 188.05323,175.84913 C 187.68738,176.14876 187.23721,175.82048 186.35755,174.61262 L 185.48535,173.41502 L 185.33149,170.60535 C 185.1437,167.1763 184.75556,164.64137 184.36287,164.27927 C 184.20153,164.13049 184.03744,163.68418 183.99822,163.28746 C 183.94073,162.70584 183.84164,162.56615 183.48655,162.56615 C 183.11075,162.56615 183.05393,162.67191 183.09912,163.28746 C 183.12826,163.68418 183.23672,165.0637 183.34017,166.35304 C 183.52143,168.61243 183.3966,169.47139 182.92189,169.23111 C 182.50344,169.01931 181.82856,167.69536 181.29869,166.04681 C 180.17843,162.56139 179.57752,160.93455 179.31364,160.6727 C 179.16371,160.52393 178.73426,159.95589 178.3593,159.4104 C 177.31241,157.88739 174.49403,155.8735 172.97153,155.56055 C 172.12103,155.38573 172.10764,155.61379 172.92688,156.32105 C 173.85605,157.12321 174.22119,157.96211 174.04157,158.88205 C 173.79198,160.16029 173.50501,160.46819 172.50712,160.5283 C 171.30069,160.60098 171.05336,161.03568 171.0492,163.09074 L 171.04596,164.69728 L 170.05512,165.4423 L 169.06428,166.18732 L 169.06428,167.47852 C 169.06428,169.69917 169.62557,171.18011 170.91645,172.36542 C 171.50872,172.90926 173.80984,173.79187 175.04197,173.94779 C 175.56899,174.01449 176.26318,174.21964 176.58464,174.40368 C 176.90609,174.58773 177.26429,174.7383 177.38064,174.7383 C 178.11067,174.7383 179.49705,176.28155 180.08906,177.75317 C 180.35776,178.4211 181.12961,179.45994 181.44282,179.57521 C 181.57818,179.62502 182.41747,180.71494 183.29474,181.98013 C 183.43144,182.17729 183.95299,182.70118 184.45373,183.14433 C 184.95448,183.58748 185.61481,184.25098 185.92115,184.61878 C 186.22749,184.98659 186.82063,185.69233 187.23926,186.18709 C 188.11586,187.22314 188.17181,187.57673 187.56001,188.21373 C 187.3178,188.4659 187.11963,188.78693 187.11963,188.92711 C 187.11963,189.0673 187.3178,189.51791 187.56001,189.92847 C 188.15537,190.93766 188.1175,191.26181 187.31705,192.00845 C 186.71369,192.57125 186.65004,192.73231 186.77315,193.38472 C 186.84985,193.7911 187.09246,194.32647 187.31228,194.57442 C 188.02712,195.38071 188.46603,196.20872 188.34464,196.52196 C 188.2793,196.69057 188.2414,196.8691 188.26041,196.91869 C 188.27942,196.96828 188.17795,197.18794 188.03491,197.40683 C 187.70214,197.91607 186.42332,198.12773 185.43956,197.8364 C 184.59328,197.58577 183.81683,197.81928 183.81683,198.32442 C 183.81683,198.72229 182.80402,199.62362 182.35695,199.62362 C 182.16933,199.62362 181.85131,199.78646 181.65025,199.98548 C 181.38804,200.24501 180.90212,200.3792 179.93174,200.46 C 178.70557,200.5621 178.55549,200.53698 178.33005,200.192 C 178.03686,199.74334 178.23855,198.9023 178.63934,198.9023 C 178.79303,198.9023 179.04214,198.78058 179.1929,198.63181 C 179.34366,198.48304 179.69673,198.36131 179.97752,198.36131 C 180.59561,198.36131 180.90666,198.02053 180.48718,197.80293 C 180.00443,197.55251 179.6829,197.61145 179.19577,198.03967 C 178.82306,198.36731 178.53394,198.43196 177.59164,198.39838 C 176.1471,198.34691 175.74596,198.24275 175.57333,197.87436 C 175.41312,197.53242 176.6784,196.58967 177.74511,196.25618 C 178.39891,196.05178 178.40327,196.04333 177.87177,196.01081 C 177.02209,195.95882 176.24287,196.03707 176.00018,196.19875 C 175.87908,196.27943 175.40842,196.4023 174.95429,196.4718 C 174.29497,196.5727 174.12859,196.54301 174.12859,196.3244 C 174.12859,196.00726 176.13606,194.5746 176.5812,194.57406 C 176.85828,194.57372 180.7942,193.09334 182.05532,192.51513 C 182.94968,192.10507 183.18831,191.55801 183.03373,190.27205 C 182.60674,186.71972 179.96362,183.9485 174.05395,180.85709 C 172.03775,179.80239 170.37987,179.24674 169.24879,179.24661 C 168.80531,179.24656 167.66583,179.36822 166.71663,179.51698 C 165.76743,179.66573 164.12719,179.78746 163.07165,179.78748 C 160.93727,179.78751 160.08813,179.55932 158.56833,178.57727 C 158.06353,178.25109 157.56061,177.98422 157.45073,177.98422 C 157.34084,177.98422 157.01072,177.77157 156.71712,177.51167 C 156.10975,176.97398 154.99932,176.54802 152.45166,175.87545 C 151.4765,175.618 150.33185,175.25825 149.90799,175.076 C 148.78927,174.59497 146.20742,172.89627 146.05454,172.54067 C 145.89227,172.16325 143.33116,169.01886 142.17615,167.77901 C 141.70564,167.27394 141.32069,166.76772 141.32069,166.65405 C 141.32069,166.5404 140.29955,165.61469 139.05148,164.59694 C 136.78014,162.74473 134.39049,161.45579 133.50169,161.60346 C 133.03674,161.68071 134.06075,162.54397 136.64155,164.2504 C 139.34426,166.03745 139.15513,166.24772 135.24106,165.80749 C 133.68484,165.63246 130.30175,165.47424 126.89841,165.41732 C 121.88946,165.33355 121.04964,165.35943 120.1827,165.62425 C 119.63774,165.79071 118.89461,165.99402 118.5313,166.07605 C 117.68358,166.26746 114.63738,167.12987 113.36438,167.53887 C 112.13982,167.93229 111.57528,167.74132 110.57773,166.59623 C 109.28131,165.10804 109.09853,164.6609 108.96716,162.65631 C 108.89591,161.56917 108.74929,160.76785 108.62288,160.77457 C 108.29463,160.79203 107.83705,164.02762 107.98699,165.27108 C 108.11736,166.35225 108.99136,167.92898 109.7438,168.4404 C 109.93489,168.5703 110.38808,169.02988 110.75085,169.46172 C 111.32441,170.14445 111.39055,170.34577 111.25783,171.00488 C 111.17134,171.43439 110.68657,172.28138 110.13927,172.95927 C 109.60801,173.61728 109.17334,174.23625 109.17334,174.33475 C 109.17334,174.43324 109.01439,174.62186 108.82013,174.7539 C 108.62586,174.88595 108.37838,175.15961 108.27019,175.36205 C 108.16198,175.56449 107.9758,175.85184 107.85644,176.00061 C 107.73709,176.14938 107.30512,176.83914 106.89654,177.5334 C 105.59949,179.73734 104.167,181.65909 103.29878,182.35998 C 102.01261,183.39827 100.54722,184.47604 100.42168,184.47604 C 100.35978,184.47604 99.936341,184.73977 99.480698,185.06211 C 97.83989,186.22287 97.435384,186.4792 96.859756,186.72298 C 96.105403,187.04246 93.159843,189.51069 92.737711,190.17705 C 92.559301,190.4587 92.331667,190.73155 92.231851,190.78341 C 92.132047,190.83526 91.705169,191.41179 91.283242,192.06459 C 90.689273,192.98357 90.480331,193.5641 90.357658,194.63627 C 90.185931,196.13707 89.865115,196.48912 88.857827,196.28207 C 88.438229,196.19582 88.265514,196.30103 87.862468,196.88833 C 87.594253,197.27917 87.374804,197.8769 87.374804,198.21662 C 87.374804,198.92115 86.447592,199.95874 86.316436,199.40097 C 86.209051,198.94431 85.486819,198.84601 84.797639,199.19425 C 83.617993,199.79033 80.989373,202.0336 80.989373,202.44424 C 80.989373,203.06912 79.838728,203.28703 79.475353,202.73096 z "
       style="fill:#000000"
       id="path1913" />
    <path
       d="M 182.05532,182.78648 C 182.05532,182.55148 181.67218,181.96316 181.2039,181.4791 C 180.3609,180.60767 179.70302,179.56071 178.76944,177.6048 C 178.03762,176.07158 177.14675,175.68117 174.07211,175.54628 C 173.368,175.51538 172.38285,175.32345 171.85576,175.11449 C 170.73316,174.66942 170.60559,174.65707 170.60559,174.99348 C 170.60559,175.13381 171.05696,175.57404 171.60865,175.97174 C 172.62825,176.70676 174.18366,177.2629 175.21975,177.2629 C 176.03941,177.2629 176.6271,177.66368 177.11551,178.55572 C 177.34979,178.98363 177.67044,179.45611 177.82805,179.6057 C 177.98566,179.75528 178.46587,180.32398 178.89517,180.86947 C 179.70998,181.90484 181.30641,183.1991 181.78009,183.20836 C 181.93148,183.21132 182.05532,183.02147 182.05532,182.78648 z "
       style="fill:#eeeeee;fill-opacity:1"
       id="path1911" />
    <path
       d="M 105.99834,175.14405 C 106.19298,174.77212 106.49534,174.14455 106.67024,173.74946 C 107.15416,172.65626 107.55206,172.25675 108.28896,172.1242 C 108.71858,172.04693 109.07851,171.81695 109.28727,171.48634 C 109.985,170.38131 109.64515,169.82752 107.40119,168.4129 C 106.33834,167.74287 105.67642,167.16158 105.29867,166.56647 C 104.99543,166.08876 104.62849,165.73201 104.48323,165.77368 C 104.08558,165.88777 104.20407,167.65401 104.6356,168.04453 C 104.8304,168.22081 104.98978,168.45463 104.98978,168.56411 C 104.98978,168.6736 105.19446,168.81638 105.44462,168.8814 C 106.05967,169.04127 107.41184,170.03068 107.41184,170.32084 C 107.41184,170.44938 107.01551,170.98654 106.5311,171.51453 C 106.04668,172.04251 105.65035,172.62272 105.65035,172.80388 C 105.65035,172.98504 105.51131,173.35346 105.34138,173.62259 C 105.17145,173.89171 104.96202,174.4963 104.87601,174.9661 C 104.73168,175.7543 104.75532,175.82028 105.18202,175.82028 C 105.50666,175.82028 105.74988,175.6188 105.99834,175.14405 z "
       style="fill:#eeeeee;fill-opacity:1"
       id="path1909" />
    <path
       d="M 70.036605,138.29684 C 70.608967,138.02386 71.301134,136.79651 71.301134,136.05458 C 71.301134,135.5365 71.108379,135.23866 70.344696,134.57671 C 69.756984,134.06729 69.286655,133.79909 69.12471,133.88107 C 68.816465,134.03709 68.996942,134.65152 69.484689,135.10662 C 69.8757,135.47146 69.728083,136.89131 69.214921,137.70139 C 68.750238,138.43493 69.145897,138.72165 70.036605,138.29684 z "
       style="fill:#eeeeee;fill-opacity:1"
       id="path1907" />
    <path
       d="M 57.444676,132.15143 C 59.535601,131.27719 59.55797,131.27253 60.355085,131.5453 C 62.095599,132.14088 65.13332,131.66684 65.967832,130.66942 C 66.829449,129.63959 66.546433,128.80295 65.1373,128.2142 C 63.971264,127.72702 63.755893,127.74931 62.243719,128.51371 C 61.280251,129.00075 60.871846,129.12147 60.690386,128.97286 C 60.508923,128.82424 60.599504,128.60447 61.034902,128.13696 C 61.857661,127.25354 62.911087,126.63389 64.243465,126.24962 C 66.159465,125.69702 66.32028,125.14803 64.566148,125.14803 C 63.341526,125.14803 61.393097,125.92145 60.175155,126.89101 C 59.447154,127.47055 59.238455,127.8068 58.927439,128.90132 C 58.496323,130.41848 57.891144,131.09802 56.163258,132.00512 C 55.527469,132.3389 55.007276,132.71784 55.007276,132.84723 C 55.007276,133.16581 55.043054,133.1556 57.444676,132.15143 z "
       style="fill:#eeeeee;fill-opacity:1"
       id="path1905" />
    <path
       d="M 63.07658,129.98355 C 62.821436,129.64986 63.212152,128.84416 63.704084,128.68956 C 64.499097,128.43972 65.389152,129.3966 65.044979,130.13115 C 64.872779,130.49866 63.385147,130.3871 63.07658,129.98355 z "
       style="fill:#000000"
       id="path1903" />
    <path
       d="M 88.47574,196.99821 C 88.47574,196.95447 88.574824,196.91869 88.69593,196.91869 C 88.817029,196.91869 88.916119,197.00463 88.916119,197.10967 C 88.916119,197.21469 88.817029,197.25048 88.69593,197.18918 C 88.574824,197.12789 88.47574,197.04195 88.47574,196.99821 z "
       style="fill:#000000"
       id="path1899" />
    <path
       d="M 131.41225,194.93271 C 131.13947,194.78637 131.23532,194.64675 131.96272,194.13075 C 132.44713,193.78714 132.96148,193.50295 133.10571,193.49922 C 133.24994,193.4955 133.42815,193.41268 133.50173,193.31518 C 133.58242,193.20826 133.21617,193.13937 132.57893,193.14161 C 131.99782,193.14366 131.32418,193.10792 131.08198,193.06219 C 130.83977,193.01647 130.51775,192.97285 130.36637,192.96527 C 129.8144,192.93759 130.11412,192.3442 131.07937,191.55368 C 131.85622,190.91747 132.17412,190.76827 132.56563,190.8562 C 132.83954,190.91771 133.44396,191.02009 133.90877,191.08371 C 134.70556,191.19275 134.74963,191.1747 134.67943,190.76803 C 134.60957,190.36334 134.50447,190.33341 132.9774,190.28321 C 131.30857,190.22835 130.24017,190.47638 129.65413,191.05469 C 129.50151,191.20529 129.24204,191.32851 129.07753,191.32851 C 128.72109,191.32851 128.40031,190.43859 128.6968,190.27227 C 128.81043,190.20853 129.17384,189.86125 129.50442,189.50053 C 130.05681,188.89774 130.22511,188.83333 131.58455,188.70445 C 133.35017,188.53704 134.01623,188.576 134.60497,188.88112 C 134.84718,189.00664 135.57335,189.16599 136.21869,189.23521 C 137.31233,189.35254 137.46938,189.31875 138.53065,188.73786 C 139.1569,188.39508 139.8179,187.93231 139.99955,187.70949 C 140.18121,187.48667 140.60232,187.04273 140.93536,186.72295 C 141.26839,186.40317 141.54087,186.09056 141.54087,186.02826 C 141.54087,185.96594 141.86904,185.53034 142.27013,185.06025 C 142.67123,184.59017 143.06954,184.08382 143.15528,183.93505 C 143.24101,183.78628 143.54884,183.33997 143.83932,182.94325 C 144.98375,181.38028 145.91497,179.63833 146.16705,178.58898 C 146.52043,177.11796 146.1776,176.52881 143.86708,174.63633 C 140.22299,171.65158 136.6727,167.99472 136.99909,167.5622 C 137.07386,167.46312 137.72651,167.40831 138.44941,167.44039 C 139.8856,167.50414 140.55442,167.85407 141.27256,168.91748 C 143.57441,172.32603 146.77793,175.50262 148.31163,175.89739 C 148.58411,175.96752 148.80704,176.08956 148.80704,176.16859 C 148.80704,176.3291 150.01358,176.7062 151.99977,177.16646 C 154.2331,177.68399 154.59946,177.79805 155.01305,178.10459 C 155.23284,178.26749 155.41266,178.51741 155.41266,178.65995 C 155.41266,178.80251 155.61084,179.12547 155.85304,179.37764 C 156.09525,179.62981 156.29342,179.98053 156.29342,180.157 C 156.29342,180.62752 154.92604,181.70126 153.71448,182.1821 C 152.04147,182.8461 150.85535,183.63784 149.69246,184.86684 C 147.83704,186.82771 147.40357,187.17689 146.45733,187.47285 C 145.4164,187.79842 145.14664,188.20183 145.00382,189.64646 C 144.93735,190.31879 144.74845,190.73799 144.32718,191.14801 C 143.90104,191.56278 143.74186,191.92068 143.7395,192.4694 C 143.73771,192.88331 143.61026,193.42483 143.45626,193.67278 C 143.21638,194.05903 143.01972,194.12544 142.08334,194.1364 C 141.48222,194.14345 140.56592,194.29538 140.04711,194.47402 C 139.16041,194.77934 139.02741,194.78127 137.83078,194.50629 C 136.14972,194.12001 135.3133,194.15018 133.72422,194.65445 C 132.20318,195.13713 131.86843,195.17742 131.41225,194.93271 z "
       style="fill:#000000"
       id="path1897" />
    <path
       d="M 58.870692,117.95867 C 58.502628,117.4953 58.227598,116.97307 57.948395,116.47096 C 57.705021,116.21736 57.107263,115.03109 56.494525,113.58572 C 56.347365,113.23858 56.148559,111.68261 56.052736,110.128 C 55.953104,108.70974 55.71087,107.15596 55.548326,105.81637 C 55.871555,105.55165 57.080127,106.065 57.266621,106.54623 C 59.640607,109.17225 61.811966,111.96526 63.229669,115.02471 C 63.775522,116.12489 63.781363,116.17596 63.394809,116.46853 C 63.174408,116.63533 62.350032,116.99775 61.562863,117.27391 C 60.775693,117.55006 59.986558,117.88812 59.809226,118.02513 C 59.392153,118.34739 59.278875,118.33937 58.870692,117.95867 z "
       style="fill:#000000"
       id="path1883" />
    <path
       d="M 63.619863,114.2267 C 63.036956,113.2845 62.338816,112.21299 62.068444,111.84559 C 60.809691,110.13513 58.778447,107.48062 58.778447,107.33509 C 61.746349,109.28893 64.749113,111.12069 68.045441,112.72112 C 69.202452,112.94693 69.452538,113.51691 68.931588,114.74078 C 68.025996,115.59534 66.593215,115.69789 65.330149,115.97905 C 64.743521,115.94368 64.575699,115.77173 63.619863,114.2267 z "
       style="fill:#000000"
       id="path1881" />
  </g>
  <path
     d="M 249.55062,1.4395041 L 1.449569,1.4395041 L 1.449569,174.9361 C 0.68232904,268.65698 81.739009,302.75585 125.5001,302.75585 C 168.49395,302.75585 250.31785,268.65698 249.55062,174.9361 L 249.55062,1.4395041 z "
     style="fill:none;fill-opacity:0;stroke:#000000;stroke-width:1.88832211;stroke-linejoin:bevel"
     id="Frame" />
</svg>
