<?xml version="1.0" encoding="UTF-8" standalone="no"?>
<!-- Created with Inkscape (http://www.inkscape.org/) -->

<svg
   xmlns:svg="http://www.w3.org/2000/svg"
   xmlns="http://www.w3.org/2000/svg"
   xmlns:xlink="http://www.w3.org/1999/xlink"
   version="1.0"
   width="251"
   height="304.20001"
   id="svg4166">
  <defs
     id="defs4168" />
  <path
     d="m 249.55058,1.4395041 -124.0505,0 -124.0505509,0 0,173.4965959 C 0.68228908,268.65698 81.738969,302.75585 125.50006,302.75585 c 42.99385,0 124.81775,-34.09887 124.05052,-127.81975 l 0,-173.4965959 z"
     id="Shield"
     style="fill:#225500;stroke:none" />
  <path
     d="m 2.386,2.3617683 0,143.8058817 c 8.920577,-4.81942 21.915644,-10.31277 34.914508,-10.31277 23.206999,0 23.211298,17.46076 46.418314,17.46076 23.206988,0 23.180298,-17.46076 46.387298,-17.46076 23.20701,0 23.21131,17.46076 46.41832,17.46076 23.20701,0 23.21131,-17.46076 46.41831,-17.46076 9.00066,0 17.99649,2.6501 25.64325,5.86572 l 0,-139.3588317 -123.1,0 -123.1,0 z"
     id="path2124"
     style="fill:#eeeeee" />
  <path
     d="m 163.64422,251.05546 c 0,19.33027 -15.67003,35.00055 -34.99999,35.00055 -19.32997,0 -35.000003,-15.67028 -35.000003,-35.00055 0,-19.33026 15.670033,-35.00054 35.000003,-35.00054 19.32996,0 34.99999,15.67028 34.99999,35.00054 l 0,0 z"
     id="path1307"
     style="fill:#eeeeee" />
  <use
     transform="translate(67.60586,-55.99999)"
     id="use3679"
     x="0"
     y="0"
     width="251"
     height="304.04999"
     xlink:href="#path1307" />
  <use
     transform="translate(-74.39414,-55.99999)"
     id="use3681"
     x="0"
     y="0"
     width="251"
     height="304.04999"
     xlink:href="#path1307" />
  <path
     d="m 249.55062,1.4395041 -124.0505,0 -124.050551,0 0,173.4965959 c -0.76723996,93.72088 80.28944,127.81975 124.050531,127.81975 42.99385,0 124.81775,-34.09887 124.05052,-127.81975 l 0,-173.4965959 z"
     id="Frame"
     style="color:#000000;fill:none;stroke:#000000;stroke-width:1.88832211;stroke-linecap:round;stroke-linejoin:bevel;stroke-miterlimit:4;stroke-opacity:1;stroke-dashoffset:0;marker:none;visibility:visible;display:block" />
</svg>
