<?xml version="1.0" encoding="UTF-8" standalone="no"?>
<!-- Created with Inkscape (http://www.inkscape.org/) -->
<svg
   xmlns:svg="http://www.w3.org/2000/svg"
   xmlns="http://www.w3.org/2000/svg"
   xmlns:xlink="http://www.w3.org/1999/xlink"
   version="1.0"
   width="252"
   height="303.20468"
   id="svg1903">
  <defs
     id="defs1906">
    <clipPath
       id="clipPath3484">
      <path
         d="M -367.62203,465.27543 L -243.57153,465.27543 L -119.52098,465.27543 L -119.52098,638.77203 C -118.75374,732.49291 -199.81042,766.59178 -243.57151,766.59178 C -286.56536,766.59178 -368.38926,732.49291 -367.62203,638.77203 L -367.62203,465.27543 z "
         style="opacity:0.63500007;color:#000000;fill:#003d8f;fill-opacity:1;fill-rule:nonzero;stroke:none;stroke-width:1.88832211;stroke-linecap:round;stroke-linejoin:bevel;marker:none;marker-start:none;marker-mid:none;marker-end:none;stroke-miterlimit:4;stroke-dashoffset:0;stroke-opacity:1;visibility:visible;display:block"
         id="path3486" />
    </clipPath>
    <clipPath
       id="clipPath3480">
      <path
         d="M -372.54808,459.71959 L -248.49758,459.71959 L -124.44703,459.71959 L -124.44703,633.21619 C -123.67979,726.93707 -204.73647,761.03594 -248.49756,761.03594 C -291.49141,761.03594 -373.31531,726.93707 -372.54808,633.21619 L -372.54808,459.71959 z "
         style="opacity:0.63500007;color:#000000;fill:#003d8f;fill-opacity:1;fill-rule:nonzero;stroke:none;stroke-width:1.88832211;stroke-linecap:round;stroke-linejoin:bevel;marker:none;marker-start:none;marker-mid:none;marker-end:none;stroke-miterlimit:4;stroke-dashoffset:0;stroke-opacity:1;visibility:visible;display:block"
         id="path3482" />
    </clipPath>
  </defs>
  <g
     transform="translate(-0.5,-0.495343)"
     id="g3440">
    <path
       d="M 249.55058,1.4395041 L 125.50008,1.4395041 L 1.4495291,1.4395041 L 1.4495291,174.9361 C 0.68228908,268.65698 81.738969,302.75585 125.50006,302.75585 C 168.49391,302.75585 250.31781,268.65698 249.55058,174.9361 L 249.55058,1.4395041 z "
       style="color:#000000;fill:#d40000;fill-opacity:1;fill-rule:nonzero;stroke:none;stroke-width:1.88832211;stroke-linecap:round;stroke-linejoin:bevel;marker:none;marker-start:none;marker-mid:none;marker-end:none;stroke-miterlimit:4;stroke-dashoffset:0;stroke-opacity:1;visibility:visible;display:block"
       id="Shield" />
    <path
       d="M 125.5,1.4375 C 125.5,1.4375 125.5,70.067161 125.5,137.40625 L 249.5625,137.40625 L 249.5625,1.4375 L 125.5,1.4375 z M 125.5,137.40625 L 1.4375,137.40625 L 1.4375,174.9375 C 0.67026003,268.65838 81.738909,302.75 125.5,302.75 C 125.5,302.75 125.5,219.29343 125.5,137.40625 z "
       style="color:#000000;fill:#ffcd50;fill-opacity:1;fill-rule:nonzero;stroke:none;stroke-width:1.88832211;stroke-linecap:round;stroke-linejoin:bevel;marker:none;marker-start:none;marker-mid:none;marker-end:none;stroke-miterlimit:4;stroke-dashoffset:0;stroke-opacity:1;visibility:visible;display:block"
       id="Field-2-and-3" />
    <path
       d="M 249.55062,1.4395041 L 125.50012,1.4395041 L 1.449569,1.4395041 L 1.449569,174.9361 C 0.68232904,268.65698 81.739009,302.75585 125.5001,302.75585 C 168.49395,302.75585 250.31785,268.65698 249.55062,174.9361 L 249.55062,1.4395041 z "
       style="color:#000000;fill:none;fill-opacity:0;fill-rule:nonzero;stroke:#000000;stroke-width:1.88832211;stroke-linecap:round;stroke-linejoin:bevel;marker:none;marker-start:none;marker-mid:none;marker-end:none;stroke-miterlimit:4;stroke-dashoffset:0;stroke-opacity:1;visibility:visible;display:block"
       id="Frame" />
    <g
       transform="translate(36.678087,129.28009)"
       id="g4794">
      <g
         transform="matrix(0.8533948,0,0,0.8533947,-283.41378,-385.27837)"
         style="stroke:#eeeeee;stroke-width:4.27133083;stroke-opacity:1"
         id="g4796">
        <g
           transform="matrix(3.2189033,0,0,3.2010517,-836.73755,-1070.4569)"
           style="stroke:#003d8f;stroke-width:2.19864964;stroke-opacity:1"
           id="g4798">
          <path
             d="M 387.95009,489.60348 L 378.66214,498.89143"
             style="opacity:1;color:#000000;fill:none;fill-opacity:0.75;fill-rule:evenodd;stroke:#003d8f;stroke-width:2.748312;stroke-linecap:butt;stroke-linejoin:miter;marker:none;marker-start:none;marker-mid:none;marker-end:none;stroke-miterlimit:4;stroke-dasharray:none;stroke-dashoffset:0;stroke-opacity:1;visibility:visible;display:inline;overflow:visible"
             id="path4800" />
          <path
             d="M 49.396475,36.70454 C 49.396475,45.717349 42.401407,53.023675 33.772553,53.023675 C 25.143698,53.023675 18.14863,45.717349 18.14863,36.70454 C 18.14863,27.691731 25.143698,20.385405 33.772553,20.385405 C 42.401407,20.385405 49.396475,27.691731 49.396475,36.70454 L 49.396475,36.70454 z "
             transform="matrix(0.48802,0.48802,-0.467594,0.467594,371.6094,473.1357)"
             style="opacity:1;color:#000000;fill:none;fill-opacity:1;fill-rule:evenodd;stroke:#003d8f;stroke-width:4.06815767;stroke-linecap:butt;stroke-linejoin:miter;marker:none;marker-start:none;marker-mid:none;marker-end:none;stroke-miterlimit:4;stroke-dasharray:none;stroke-dashoffset:0;stroke-opacity:1;visibility:visible;display:inline;overflow:visible"
             id="path4802" />
          <path
             d="M 379.92823,489.70212 C 387.842,489.70212 387.842,489.70212 387.842,489.70212 L 387.842,497.61589"
             style="fill:none;fill-rule:evenodd;stroke:#003d8f;stroke-width:2.748312;stroke-linecap:butt;stroke-linejoin:miter;stroke-miterlimit:4;stroke-dasharray:none;stroke-opacity:1"
             id="path4804" />
        </g>
      </g>
    </g>
    <g
       transform="matrix(0.4785643,0,0,0.4785643,126.37991,5.4888559)"
       id="g4830">
      <path
         d="M -160.06318,251.32546 C -159.33282,249.67546 -158.31142,248.32546 -157.79339,248.32546 C -157.27537,248.32546 -157.54964,249.67546 -158.40289,251.32546 C -159.84588,254.11589 -159.83021,254.3225 -158.17857,254.28313 C -155.61976,254.22214 -151.9079,248.0679 -153.12172,245.89892 C -154.45627,243.51421 -153.35362,241.32546 -150.8177,241.32546 C -148.96418,241.32546 -148.7698,240.94849 -149.39967,238.57546 C -150.60941,234.01783 -151.09785,204.35632 -150.0954,196.32546 C -149.5805,192.20046 -149.27824,188.68626 -149.42372,188.51613 C -149.56919,188.346 -152.09902,188.80264 -155.04555,189.53089 C -159.44348,190.61785 -160.35923,191.2105 -160.15911,192.84022 C -160.02503,193.9321 -159.53022,198.6964 -159.05954,203.42756 C -158.58885,208.15871 -157.82494,212.64256 -157.36197,213.39168 C -156.89899,214.14079 -156.21493,219.15544 -155.84184,224.53535 C -155.05447,235.88905 -156.45071,243.70489 -160.14603,248.62918 C -163.77876,253.47008 -164.16318,254.32546 -162.70602,254.32546 C -161.98282,254.32546 -160.79354,252.97546 -160.06318,251.32546 z "
         style="fill:#ffcd50;fill-opacity:1"
         id="path4832" />
      <path
         d="M -208.53775,248.25288 C -207.08857,247.11296 -205.90289,245.29474 -205.90289,244.21239 C -205.90289,241.79193 -201.99187,236.32546 -200.26014,236.32546 C -199.5635,236.32546 -198.7395,234.63796 -198.42905,232.57546 C -196.04617,216.74496 -188.78296,202.07454 -181.65427,198.69333 C -179.31601,197.58427 -173.80289,194.83839 -169.40289,192.59139 C -165.00289,190.34438 -158.55081,187.94898 -155.06494,187.26828 C -150.99168,186.47288 -148.51649,185.458 -148.13788,184.42805 C -143.52052,184.08565 -131.31813,185.23855 -120.90289,183.83949 C -110.62691,182.08525 -106.39996,180.62705 -93.402887,174.35266 C -87.902887,171.6975 -82.110147,169.23275 -80.530137,168.87542 C -77.941097,168.2899 -77.710487,167.90969 -78.195057,165.0256 C -78.490777,163.26552 -79.067727,160.97656 -79.477157,159.93901 C -80.012777,158.5817 -79.841047,158.17941 -78.864917,158.50478 C -78.118757,158.7535 -76.788077,161.85241 -75.907867,165.39123 C -72.951187,177.27838 -70.899927,180.19863 -58.574017,190.0684 C -47.910167,198.6073 -46.189497,202.4621 -45.701837,218.90582 C -45.413847,228.61674 -45.508657,229.139 -48.288887,233.15582 C -49.876187,235.44912 -51.901187,237.34022 -52.788887,237.35825 C -54.632967,237.39572 -62.458877,246.1028 -61.505437,247.05625 C -61.160507,247.40118 -59.552047,246.70286 -57.931077,245.50443 C -54.771887,243.16873 -52.725617,242.54819 -54.702887,244.52546 C -56.505367,246.32794 -56.147227,248.32546 -54.021577,248.32546 C -51.392437,248.32546 -46.902887,242.09659 -46.902887,238.44889 C -46.902887,236.46118 -46.138857,234.90372 -44.653327,233.86321 C -42.595387,232.42178 -42.299937,232.42955 -41.184857,233.95453 C -38.749897,237.28453 -38.093237,231.31177 -38.802797,212.2882 C -39.469137,194.42324 -39.578187,193.70079 -42.170717,189.97488 C -45.383087,185.35816 -45.649127,183.81418 -46.331817,165.82546 C -46.624037,158.12546 -47.280947,150.39683 -47.791617,148.65073 C -48.856697,145.00894 -48.462217,144.32546 -45.295237,144.32546 C -44.044367,144.32546 -42.742807,143.87546 -42.402887,143.32546 C -42.062967,142.77546 -41.073517,142.32546 -40.204117,142.32546 C -38.691067,142.32546 -36.001377,139.648 -35.934687,138.07546 C -35.917197,137.66296 -37.435487,137.32546 -39.308657,137.32546 C -41.181837,137.32546 -48.494337,136.17651 -55.558657,134.77225 C -69.547977,131.99141 -77.151337,132.04744 -89.902887,135.02532 C -95.133317,136.24679 -99.137347,136.37932 -110.40289,135.70386 C -118.10289,135.24218 -129.33751,134.97186 -135.36871,135.10317 C -156.34114,135.55974 -161.86584,131.53595 -169.95638,109.91203 C -171.99478,104.46392 -172.00345,104.45647 -176.09271,104.64084 C -178.34499,104.74238 -180.35617,104.35296 -180.56199,103.77546 C -180.77553,103.17633 -179.49473,102.72546 -177.57923,102.72546 C -175.51892,102.72546 -172.46462,101.56126 -169.67195,99.711479 L -165.12167,96.697492 L -169.51417,95.40054 C -174.72166,93.862953 -179.70703,94.596956 -183.31104,97.431873 C -184.74712,98.561489 -186.44952,99.309919 -187.09415,99.095039 C -189.399,98.326749 -181.13422,93.31756 -175.93486,92.331522 C -173.02432,91.779549 -169.13504,90.395986 -167.29202,89.256939 C -164.11948,87.296202 -159.81425,86.643159 -155.4412,87.459335 C -152.46247,88.015279 -152.41015,84.909113 -155.34875,81.970511 C -156.75353,80.565733 -157.90289,78.360989 -157.90289,77.071082 C -157.90289,73.12121 -152.81741,66.464207 -147.90847,63.988174 C -140.67186,60.338074 -138.90289,58.961051 -138.90289,56.977923 C -138.90289,55.588931 -139.35055,55.298221 -140.65289,55.841481 C -146.42892,58.250909 -147.77209,58.58963 -149.27043,58.014661 C -152.49193,56.778456 -153.13728,52.500457 -151.32842,44.372266 C -149.1577,34.618014 -148.47324,28.325459 -149.58296,28.325459 C -150.06776,28.325459 -150.97398,29.675459 -151.59679,31.325459 C -153.00087,35.045297 -155.11246,35.145784 -157.88225,31.624571 C -159.59105,29.452179 -159.95117,27.801769 -159.72261,23.190119 C -159.56633,20.036658 -159.73802,17.156997 -160.10414,16.790871 C -161.03969,15.855326 -162.90289,17.17787 -162.90289,18.777487 C -162.90289,21.566182 -165.93792,21.068659 -171.13513,17.427999 C -177.25104,13.143787 -182.05823,11.185401 -183.80646,12.265865 C -185.3397,13.213455 -184.09144,14.240772 -177.20999,17.694796 C -169.48494,21.572246 -161.65939,29.687596 -159.13225,36.441993 C -151.84652,55.914844 -158.67513,78.564243 -174.30183,86.757035 C -180.20894,89.854027 -190.05448,90.305418 -195.20255,87.715274 C -201.61304,84.489969 -205.81503,79.322849 -208.10641,71.847596 C -209.48061,67.364461 -210.41264,65.548601 -210.68413,66.825459 C -212.06797,73.334038 -217.91591,73.671583 -224.13206,67.601676 C -226.20602,65.576514 -227.90289,64.426364 -227.90289,65.045786 C -227.90289,67.155222 -222.6741,72.394213 -219.06282,73.903102 C -217.08243,74.730563 -212.07378,78.678686 -207.9325,82.676709 C -203.79121,86.674733 -199.05289,90.439076 -197.40289,91.041916 C -195.75289,91.644756 -193.50289,92.462545 -192.40289,92.859226 C -190.94852,93.383698 -192.59603,94.076628 -198.44179,95.39914 C -202.86318,96.399413 -209.25044,98.592039 -212.6357,100.27164 C -216.02096,101.95124 -219.07122,103.32546 -219.41407,103.32546 C -220.83632,103.32546 -232.88427,110.92863 -233.36158,112.1274 C -233.6467,112.84346 -233.43513,113.15441 -232.89143,112.81838 C -232.32329,112.46725 -231.90289,113.49337 -231.90289,115.23126 C -231.90289,118.73291 -229.70848,120.30269 -224.71863,120.37056 L -221.40289,120.41567 L -224.36892,121.68067 C -226.60057,122.63246 -226.94845,123.094 -225.77392,123.54471 C -224.91534,123.87417 -222.26066,123.2697 -219.87461,122.20144 C -216.12852,120.52426 -214.21393,120.35022 -205.84839,120.92638 L -196.16044,121.59363 L -195.98281,136.80161 C -195.8642,146.95723 -195.29565,153.80621 -194.27143,157.41753 C -193.42787,160.39189 -192.47751,163.95046 -192.15952,165.32546 C -191.84154,166.70046 -191.03268,168.27546 -190.36207,168.82546 C -182.16711,176.78157 -179.84763,176.94245 -171.82638,176.40115 C -171.7843,176.63452 -171.59911,177.61296 -171.41486,178.57546 C -171.23061,179.53796 -171.52804,180.32546 -172.07583,180.32546 C -173.21692,180.32546 -183.17779,187.95491 -189.58316,193.73506 C -194.07697,197.79024 -196.90289,202.31308 -196.90289,205.45016 C -196.90289,206.44975 -198.45596,212.93373 -200.35417,219.85901 C -202.97719,229.42866 -204.65135,233.57536 -207.33025,237.13794 C -211.95063,243.28245 -215.83117,250.34075 -213.54647,248.44462 C -212.6425,247.69439 -211.86736,246.34817 -211.82394,245.45302 C -211.77801,244.50613 -211.54178,244.32505 -211.25909,245.02002 C -210.99184,245.67703 -211.2682,247.13953 -211.87322,248.27002 C -213.28143,250.90129 -211.8956,250.89417 -208.53775,248.25288 z "
         style="fill:#ffcd50;fill-opacity:1"
         id="path4834" />
      <path
         d="M -208.65289,107.0503 C -211.59336,105.7036 -211.5159,103.56189 -208.47663,102.17711 C -205.42059,100.78468 -200.90289,101.84885 -200.90289,103.96114 C -200.90289,105.06676 -201.5192,105.39755 -202.90427,105.03535 C -204.00503,104.7475 -204.68498,104.86902 -204.41528,105.30541 C -203.42587,106.9063 -206.34384,108.10781 -208.65289,107.0503 z "
         style="fill:#d40000;fill-opacity:1"
         id="path4836" />
      <path
         d="M -108.02665,237.71151 C -107.13358,235.44883 -105.78529,232.86133 -105.03045,231.96151 C -103.26726,229.85967 -100.26171,229.86187 -99.084257,231.96586 C -97.798297,234.26373 -96.244197,232.95835 -95.491947,228.94847 C -94.746877,224.97692 -90.042157,218.42545 -81.400327,209.32546 C -76.114487,203.75937 -75.134587,202.13874 -74.580317,198.04589 C -74.224317,195.41713 -72.997247,191.091 -71.853497,188.43228 L -69.773947,183.59824 L -72.838417,178.76607 C -74.523877,176.10837 -75.902887,173.38773 -75.902887,172.72019 C -75.902887,171.14315 -85.802517,173.61948 -87.125677,175.52751 C -87.625057,176.24763 -87.755167,182.65225 -87.417947,189.91381 L -86.810127,203.00216 L -90.301537,209.7005 C -95.385697,219.45455 -99.078287,223.63086 -107.70974,229.38913 C -114.87861,234.17166 -122.28809,241.32546 -120.07269,241.32546 C -119.53599,241.32546 -117.67809,239.63796 -115.94401,237.57546 C -113.70632,234.91396 -113.13493,234.55112 -113.97552,236.32546 C -114.62692,237.70046 -115.87453,239.6436 -116.74799,240.64354 C -118.25594,242.36987 -118.11691,242.44557 -113.99325,242.14354 C -109.93807,241.84653 -109.54287,241.55297 -108.02665,237.71151 z "
         style="fill:#ffcd50;fill-opacity:1"
         id="path4838" />
      <path
         d="M -198.90289,93.446779 C -198.90289,92.462178 -202.47363,90.930263 -208.28576,89.421348 C -213.78931,87.992546 -219.17934,83.95756 -221.79046,79.311715 C -224.50391,74.483773 -226.14181,74.176644 -225.71686,78.575459 C -225.22263,83.691363 -228.72728,83.516815 -233.27929,78.198815 C -235.59364,75.495026 -236.90289,74.559894 -236.90289,75.610664 C -236.90289,78.404754 -230.97392,84.187855 -224.26002,87.942481 C -216.66247,92.191271 -198.90289,96.046362 -198.90289,93.446779 z "
         style="fill:#003d8f;fill-opacity:1"
         id="path4840" />
      <path
         d="M -162.87561,72.998102 C -161.91585,71.443055 -161.34309,69.35812 -161.60282,68.364912 C -161.86255,67.371704 -161.36132,65.178861 -160.48897,63.491929 C -158.02095,58.719295 -158.37379,57.050338 -161.69651,57.780131 C -163.88987,58.261873 -165.01794,57.831027 -166.94651,55.774998 C -169.19793,53.374786 -169.3934,52.412383 -169.28922,44.24087 C -169.17608,35.367215 -169.86925,33.52558 -171.89657,37.313652 C -173.62866,40.550092 -177.1273,40.752168 -182.6834,37.936683 C -188.29557,35.092782 -191.45275,31.651404 -192.39803,27.347597 C -192.74641,25.761429 -193.73435,23.880295 -194.59346,23.167299 C -195.98342,22.013729 -196.07616,22.340364 -195.43544,26.132786 C -194.54507,31.402856 -195.53399,32.745288 -202.61287,35.875903 C -205.52238,37.162627 -207.90289,38.742648 -207.90289,39.387061 C -207.90289,40.161778 -207.14062,40.299936 -205.65289,39.794863 C -204.41539,39.374741 -199.74395,38.896271 -195.27191,38.731597 C -187.55469,38.447424 -186.87468,38.600069 -181.90844,41.731376 C -176.15469,45.359216 -171.53951,51.413253 -169.71153,57.730851 C -167.75202,64.503016 -168.17201,74.146187 -170.67381,79.825459 L -172.87638,84.825459 L -168.7485,80.325459 C -166.47817,77.850459 -163.83536,74.553148 -162.87561,72.998102 z "
         style="fill:#003d8f;fill-opacity:1"
         id="path4842" />
      <path
         d="M -46.902884,238.44889 C -46.902884,234.80119 -50.944804,237.32078 -52.788884,237.35825 C -54.632964,237.39572 -62.458874,246.1028 -61.505434,247.05625 C -61.160504,247.40118 -59.552044,246.70286 -57.931074,245.50443 C -54.771884,243.16873 -52.725614,242.54819 -54.702884,244.52546 C -56.505364,246.32794 -56.147224,248.32546 -54.021574,248.32546 C -51.392434,248.32546 -46.902884,242.09659 -46.902884,238.44889 z "
         style="fill:#003d8f;fill-opacity:1"
         id="path4844" />
      <path
         d="M -205.90289,244.21239 C -205.90289,243.13004 -207.18705,241.96975 -211.37415,242.91495 C -215.99453,249.05946 -215.83117,250.34075 -213.54647,248.44462 C -212.6425,247.69439 -211.86736,246.34817 -211.82394,245.45302 C -211.77801,244.50613 -211.54178,244.32505 -211.25909,245.02002 C -210.99184,245.67703 -211.2682,247.13953 -211.87322,248.27002 C -213.28143,250.90129 -211.8956,250.89417 -208.53775,248.25288 C -207.08857,247.11296 -205.90289,245.29474 -205.90289,244.21239 z "
         style="fill:#003d8f;fill-opacity:1"
         id="path4846" />
      <path
         d="M -192.40289,92.859224 C -191.30289,93.255905 -178.8454,92.883493 -175.93486,92.33152 C -173.02432,91.779547 -169.13504,90.395984 -167.29202,89.256937 C -164.11948,87.2962 -159.81425,86.643157 -155.4412,87.459333 C -152.46247,88.015277 -152.41015,84.909111 -155.34875,81.970509 C -156.75353,80.565731 -157.90289,78.360987 -157.90289,77.07108 C -157.90289,73.121208 -152.81741,66.464205 -147.90847,63.988172 C -140.67186,60.338072 -138.90289,58.961049 -138.90289,56.977921 C -138.90289,55.588929 -139.35055,55.298219 -140.65289,55.841479 C -146.42892,58.250907 -147.77209,58.589628 -149.27043,58.014659 C -152.49193,56.778454 -153.13728,52.500455 -151.32842,44.372264 C -149.1577,34.618012 -148.47324,28.325457 -149.58296,28.325457 C -150.06776,28.325457 -150.97398,29.675457 -151.59679,31.325457 C -153.00087,35.045295 -155.11246,35.145782 -157.88225,31.624569 C -159.59105,29.452177 -159.95117,27.801767 -159.72261,23.190117 C -159.56633,20.036656 -159.73802,17.156995 -160.10414,16.790869 C -161.03969,15.855324 -162.90289,17.177868 -162.90289,18.777485 C -162.90289,21.56618 -165.93792,21.068657 -171.13513,17.427997 C -177.25104,13.143785 -182.05823,11.185399 -183.80646,12.265863 C -185.3397,13.213453 -184.09144,14.24077 -177.20999,17.694794 C -169.48494,21.572244 -161.65939,29.687594 -159.13225,36.441991 C -151.84652,55.914842 -158.67513,78.564241 -174.30183,86.757033 C -180.20894,89.854025 -190.05448,90.305416 -195.20255,87.715272 C -201.61304,84.489967 -205.81503,79.322847 -208.10641,71.847594 C -209.48061,67.364459 -210.41264,65.548599 -210.68413,66.825457 C -212.06797,73.334036 -217.91591,73.671581 -224.13206,67.601674 C -226.20602,65.576512 -227.90289,64.426362 -227.90289,65.045784 C -227.90289,67.15522 -222.6741,72.394211 -219.06282,73.9031 C -217.08243,74.730561 -212.07378,78.678684 -207.9325,82.676707 C -203.79121,86.674731 -199.05289,90.439074 -197.40289,91.041914 C -195.75289,91.644754 -193.50289,92.462543 -192.40289,92.859224 z "
         style="fill:#003d8f;fill-opacity:1"
         id="path4848" />
      <path
         d="M -153.12172,245.89892 C -154.33554,243.72994 -156.5133,243.78828 -160.14603,248.62918 C -163.77876,253.47008 -164.16318,254.32546 -162.70602,254.32546 C -161.98282,254.32546 -160.79354,252.97546 -160.06318,251.32546 C -159.33282,249.67546 -158.31142,248.32546 -157.79339,248.32546 C -157.27537,248.32546 -157.54964,249.67546 -158.40289,251.32546 C -159.84588,254.11589 -159.83021,254.3225 -158.17857,254.28313 C -155.61976,254.22214 -151.9079,248.0679 -153.12172,245.89892 z "
         style="fill:#003d8f;fill-opacity:1"
         id="path4850" />
      <path
         d="M -105.03045,231.96151 C -104.27561,231.06169 -104.01309,228.79368 -107.70974,229.38913 C -114.87861,234.17166 -122.28809,241.32546 -120.07269,241.32546 C -119.53599,241.32546 -117.67809,239.63796 -115.94401,237.57546 C -113.70632,234.91396 -113.13493,234.55112 -113.97552,236.32546 C -114.62692,237.70046 -115.87453,239.6436 -116.74799,240.64354 C -118.25594,242.36987 -118.11691,242.44557 -113.99325,242.14354 C -109.93807,241.84653 -109.54287,241.55297 -108.02665,237.71151 C -107.13358,235.44883 -105.78529,232.86133 -105.03045,231.96151 z "
         style="fill:#003d8f;fill-opacity:1"
         id="path4852" />
    </g>
    <use
       transform="translate(119.99873,-135.34036)"
       id="use4854"
       x="0"
       y="0"
       width="261.00262"
       height="314.9234"
       xlink:href="#g4794" />
    <use
       transform="translate(117.40758,130.14105)"
       id="use4856"
       x="0"
       y="0"
       width="261.00262"
       height="314.9234"
       xlink:href="#g4830" />
  </g>
</svg>
