<?xml version="1.0" encoding="UTF-8" standalone="no"?>
<svg
   xmlns:dc="http://purl.org/dc/elements/1.1/"
   xmlns:cc="http://creativecommons.org/ns#"
   xmlns:rdf="http://www.w3.org/1999/02/22-rdf-syntax-ns#"
   xmlns:svg="http://www.w3.org/2000/svg"
   xmlns="http://www.w3.org/2000/svg"
   xmlns:xlink="http://www.w3.org/1999/xlink"
   id="svg4166"
   height="304.20001"
   width="251"
   version="1.0">
  <defs
     id="defs4168" />
  <metadata
     id="metadata1880"><rdf:RDF><cc:Work
         rdf:about=""><dc:title>Haparanda kommunvapen</dc:title><dc:date>2007-11-02</dc:date><dc:creator><cc:Agent><dc:title>Lokal_Profil</dc:title></cc:Agent></dc:creator><cc:license
         rdf:resource="http://creativecommons.org/licenses/by-sa/2.5/" /><dc:rights><cc:Agent><dc:title>cc-by-sa-2.5</dc:title></cc:Agent></dc:rights><dc:format>image/svg+xml</dc:format><dc:type
         rdf:resource="http://purl.org/dc/dcmitype/StillImage" /></cc:Work><cc:License
         rdf:about="http://creativecommons.org/licenses/by-sa/2.5/"><cc:permits
         rdf:resource="http://web.resource.org/cc/Reproduction" /><cc:permits
         rdf:resource="http://web.resource.org/cc/Distribution" /><cc:requires
         rdf:resource="http://web.resource.org/cc/Notice" /><cc:requires
         rdf:resource="http://web.resource.org/cc/Attribution" /><cc:permits
         rdf:resource="http://web.resource.org/cc/DerivativeWorks" /><cc:requires
         rdf:resource="http://web.resource.org/cc/ShareAlike" /></cc:License></rdf:RDF>
  </metadata>
  <path
     id="Shield"
     style="fill:#eeeeee"
     d="M 249.55058,1.4395041 L 125.50008,1.4395041 L 1.4495291,1.4395041 L 1.4495291,174.9361 C 0.68228908,268.65698 81.738969,302.75585 125.50006,302.75585 C 168.49391,302.75585 250.31781,268.65698 249.55058,174.9361 L 249.55058,1.4395041 z " />
  <path
     id="Treberg-2"
     style="fill:#003d8f"
     d="M 124.875,186.84375 C 108.27402,186.90148 92.507381,191.35178 79.40625,197.875 C 71.740281,202.14062 64.836382,208.16692 62.5,212.625 C 61.895771,213.77792 61.348399,213.81416 59.09375,212.78125 C 58.130549,212.33999 55.308764,211.72464 53.0625,210.71875 C 37.711599,203.84455 20.783164,202.79665 5.03125,208.4375 C 5.5370127,210.59426 6.0844548,212.70858 6.6875,214.78125 C 29.529207,214.78125 219.95552,214.78125 244.25,214.78125 C 244.89994,212.56595 245.52464,210.3114 246.0625,208 C 228.90747,202.36189 210.52719,203.36705 194.15625,212.15625 C 192.03692,212.96998 190.23191,213.57452 190.125,213.5 C 190.01809,213.42548 189.00593,212.15757 187.875,210.65625 C 184.25831,205.85503 181.06795,203.07418 174.71875,199.25 C 162.71321,192.01899 149.57512,188.27287 132.0625,187.09375 C 129.66163,186.91638 127.24657,186.8355 124.875,186.84375 z " />
  <path
     id="Riksgransstolpe"
     style="fill:#ffcd50;stroke:none"
     d="M 150.5,224.20001 L 100.5,224.20001 L 110.93228,184.23644 L 113.2421,184.23644 L 114.21979,181.5722 L 116.04076,181.5722 L 119.19383,157.59406 L 116.10796,156.26194 L 116.10796,154.92982 L 134.89204,154.92982 L 134.89204,156.26194 L 131.80617,157.59406 L 134.95926,181.5722 L 136.78022,181.5722 L 137.75791,184.23644 L 140.06772,184.23644 L 150.5,224.20001 z " />
  <path
     id="Treberg"
     style="fill:#225500"
     d="M 90.5625,232.21875 C 84.793818,238.4101 80.517314,245.05963 77.28125,252.6875 C 66.565721,238.08932 41.084972,237.87123 25.6875,252.625 C 52.940297,288.3703 97.08335,302.75 125.5,302.75 C 153.58557,302.74999 198.24688,288.21691 225.625,252 C 210.08351,237.78273 184.99106,238.29787 174.53125,252.9375 C 172.2219,245.64807 167.91178,239.83079 162.84375,234.25 C 141.10676,210.31381 108.60041,212.85921 90.5625,232.21875 z " />
  <path
     id="Sun"
     style="fill:#ffcd50"
     d="M 125.5,2.79326 C 123.53156,5.420415 123.36819,8.189491 123.86008,11.063521 C 124.34787,13.913738 124.12974,16.680924 122.37761,19.116567 C 121.50806,15.889378 119.8783,13.724895 117.74018,12.279896 C 115.18777,10.554907 113.83074,8.2955075 113.06474,5.2694496 C 112.25152,8.4499136 113.15581,11.067258 114.71011,13.534277 C 116.25071,15.979578 117.11075,18.619532 116.42605,21.538459 C 114.38788,18.890678 112.05208,17.51546 109.52422,16.998775 C 106.50599,16.381855 104.38492,14.815057 102.51922,12.312475 C 102.985,15.562051 104.82545,17.633056 107.20552,19.317486 C 109.56599,20.988058 111.37051,23.100313 111.8538,26.06185 C 108.9567,24.394546 106.27481,24.013231 103.74102,24.503369 C 100.71644,25.088441 98.157578,24.456116 95.47619,22.858003 C 97.150077,25.681973 99.64314,26.888042 102.48663,27.533442 C 105.30561,28.17328 107.77596,29.437111 109.35589,31.986243 C 106.04361,31.555755 103.42257,32.231547 101.27027,33.653331 C 98.69981,35.351325 96.088843,35.743601 93,35.293264 C 95.627151,37.261706 98.396231,37.425082 101.27027,36.933196 C 104.12048,36.445388 106.88767,36.663519 109.32331,38.415648 C 106.09611,39.285213 103.93164,40.914953 102.48663,43.05308 C 100.76165,45.605495 98.502248,46.962526 95.47619,47.728524 C 98.65665,48.541763 101.274,47.637444 103.74102,46.083157 C 106.18631,44.54256 108.82627,43.682508 111.7452,44.367206 C 109.09741,46.405379 107.72219,48.741181 107.20552,51.269044 C 106.5886,54.287284 105.02179,56.408357 102.51922,58.274044 C 105.76879,57.808276 107.83979,55.967826 109.52422,53.587753 C 111.1948,51.227276 113.30705,49.422756 116.26859,48.939469 C 114.60128,51.836581 114.21997,54.518476 114.71011,57.052242 C 115.29516,60.076826 114.66286,62.635686 113.06474,65.317066 C 115.8887,63.643191 117.09477,61.150124 117.74018,58.306646 C 118.38055,55.48535 119.64507,53.011692 122.19842,51.43195 C 121.76631,54.74695 122.43751,57.374981 123.86008,59.528436 C 125.55806,62.09888 125.95033,64.704426 125.5,67.79326 C 127.46845,65.166119 127.63182,62.40247 127.13992,59.528436 C 126.65213,56.678208 126.8754,53.905903 128.62782,51.469956 C 129.49752,54.695386 131.1225,56.86759 133.25981,58.312071 C 135.81224,60.03707 137.16926,62.291028 137.93526,65.317066 C 138.74849,62.136614 137.84419,59.524694 136.28989,57.057679 C 134.74839,54.610963 133.89233,51.963969 134.57937,49.042635 C 136.61735,51.690605 138.9479,53.071075 141.47578,53.587753 C 144.49402,54.204656 146.61509,55.771481 148.48077,58.274044 C 148.015,55.024461 146.17453,52.95347 143.7945,51.269044 C 141.434,49.598478 139.63463,47.481075 139.15163,44.519248 C 142.04726,46.185019 144.72623,46.573091 147.25899,46.083157 C 150.28356,45.498077 152.84243,46.13042 155.52379,47.728524 C 153.84993,44.904546 151.35687,43.698482 148.51336,43.05308 C 145.69438,42.413248 143.22929,41.144372 141.64954,38.594849 C 144.95947,39.024099 147.58403,38.354207 149.73517,36.933196 C 152.30561,35.235206 154.91115,34.842925 158,35.293264 C 155.37286,33.324821 152.6092,33.161441 149.73517,33.653331 C 146.88495,34.141143 144.11262,33.917868 141.67669,32.165443 C 144.90208,31.29574 147.07433,29.670762 148.51879,27.533442 C 150.24378,24.981038 152.49776,23.623996 155.52379,22.858003 C 152.34335,22.044771 149.73143,22.949079 147.26442,24.503369 C 144.8177,26.044862 142.17069,26.90094 139.24938,26.213894 C 141.89733,24.175906 143.2778,21.84535 143.7945,19.317486 C 144.41139,16.299243 145.97821,14.178178 148.48077,12.312475 C 145.23121,12.778257 143.1602,14.618712 141.47578,16.998775 C 139.8052,19.35925 137.68779,21.158629 134.72598,21.641633 C 136.39174,18.746009 136.77983,16.067013 136.28989,13.534277 C 135.70482,10.509699 136.33714,7.950831 137.93526,5.2694496 C 135.11129,6.9433365 133.90521,9.4363958 133.25981,12.279896 C 132.6203,15.097439 131.35392,17.56386 128.80702,19.143721 C 129.23607,15.833978 128.56094,13.214664 127.13992,11.063521 C 125.44194,8.4930749 125.04966,5.8821046 125.5,2.79326 z " />
  <g
     id="Populus-tremula-tree"
     transform="matrix(0.546139,0,0,0.674156,124.0986,10.97496)">
    <path
       id="Trunk"
       style="fill:#225500"
       d="M 93.325255,184.4863 C 93.325255,183.4762 94.392347,176.37127 94.8974,174.35107 C 95.402448,172.33086 97.21717,169.43466 99.237371,167.41446 C 101.25757,165.39426 104.28788,164.38416 106.30808,164.88921 C 108.32828,165.39426 109.33838,167.41446 110.34848,169.93971 C 111.35858,172.46496 113.50659,175.68492 113.50659,179.22027 C 113.23043,202.73229 116.18958,324.20588 114.01165,346.92945 C 114.01165,346.92945 138.50671,347.4345 138.50671,347.4345 C 136.82313,334.24931 136.60341,194.06836 138.25407,178.21017 C 138.75912,174.67482 137.62121,170.44476 139.13636,168.42456 C 140.65151,166.40436 143.68181,166.40436 146.71212,167.41446 C 149.74242,168.42456 152.77272,170.44476 154.28788,172.46496 C 155.80302,174.48517 157.59311,183.30999 158.09817,184.32009 C 158.09817,184.32009 158.74597,184.46536 158.74597,184.46536 C 158.74597,182.9502 157.6264,172.66179 156.11125,170.64159 C 154.59609,168.62139 152.48494,165.4102 150.58705,164.41552 C 146.98249,162.52637 149.45014,157.90031 150.92087,154.28315 C 151.34624,153.23699 152.43602,152.26294 153.44612,151.75789 C 154.45622,151.25284 167.86976,155.84077 169.38492,155.84077 C 169.38492,155.84077 169.68825,153.61589 169.68825,153.61589 C 168.67815,153.61589 153.54322,148.91574 154.24185,148.02844 C 160.87058,136.69594 173.55849,126.01184 181.13178,115.34518 L 178.70221,113.93311 C 170.17432,125.15304 157.65933,136.9792 149.91077,148.72759 C 147.38552,152.26294 144.35521,156.30335 142.33501,158.32355 C 140.31481,160.34375 139.30471,160.34375 137.78956,160.34375 C 136.27441,160.34375 134.2542,160.34375 133.2441,159.33365 C 132.234,158.32355 132.234,156.30335 133.2441,154.7882 C 134.2542,153.27304 134.93338,151.59242 136.44853,150.58232 C 137.96368,149.57222 139.24198,148.29392 140.25208,146.77877 C 141.26218,145.26361 142.54049,144.04803 143.04555,142.53288 C 143.55059,141.01773 145.01417,134.13018 145.01417,133.12008 L 144.53183,132.63773 C 143.05642,138.40274 141.67372,143.30471 135.2643,147.71749 C 133.18434,149.1495 131.11256,150.33363 130.71885,149.73769 C 130.71885,149.73769 128.10858,93.944672 127.19318,93.944672 C 127.19318,93.944672 124.48021,93.944672 124.48021,93.944672 C 123.56481,93.944672 120.95454,149.73769 120.95454,149.73769 C 120.51396,150.29987 118.64176,148.89736 116.40909,147.71749 C 110.10022,144.38353 108.36823,138.22683 107.22011,132.77858 L 106.73777,133.10381 C 106.73777,134.11391 107.79231,141.15183 108.29736,142.66698 C 108.80241,144.18213 109.81251,145.7282 110.82261,147.24336 C 111.83271,148.75851 113.03246,149.76861 114.54762,150.77871 C 116.06277,151.78881 117.41919,153.27304 118.42929,154.7882 C 119.43939,156.30335 119.43939,158.32355 118.42929,159.33365 C 117.41919,160.34375 115.39899,160.34375 113.88384,160.34375 C 112.36868,160.34375 111.35858,160.34375 109.33838,158.32355 C 107.31818,156.30335 104.28788,152.26294 101.76263,148.72759 C 99.237371,145.19223 73.461591,116.66321 72.450271,114.13845 C 72.450271,114.13845 70.525753,114.94239 70.525753,114.94239 C 72.164615,118.1858 94.558407,146.09678 96.709161,149.42844 C 97.321659,150.37724 83.196968,154.34344 82.186867,154.34344 C 82.186867,154.34344 82.312618,155.44249 82.312618,155.44249 C 88.724281,155.24905 94.720986,153.61656 100.75253,154.28315 C 103.67419,159.65633 101.86866,161.58181 99.742421,163.87911 C 98.286949,165.45167 95.742797,167.59491 94.352336,169.70287 C 93.373596,171.18665 92.837182,173.47506 92.837182,174.99022 C 92.837182,176.50537 92.842917,183.6103 92.842917,184.6204 L 93.325255,184.4863 z " />
    <use
       xlink:href="#Leaf"
       height="304.20001"
       width="251"
       y="0"
       x="0"
       id="Small-leaf"
       transform="matrix(0,0.532915,-0.532915,0,175.5392,93.34051)" />
    <g
       id="Leaf">
      <path
         id="Leaf-body"
         style="fill:#225500;stroke:none"
         d="M 222.29009,154.73575 C 219.52763,158.03216 215.86075,158.28478 217.85793,161.58826 C 214.06695,163.45726 214.61797,164.73341 213.22004,166.22028 C 212.20034,167.30483 210.1546,167.81921 211.39486,170.30269 C 209.76768,170.86973 207.41037,170.15088 207.16843,174.92001 C 204.76245,174.49226 204.5423,174.70437 202.80093,175.11399 C 201.01373,175.53439 200.48937,174.86704 198.55981,178.20298 C 197.66112,178.13065 195.39707,175.55787 194.51855,176.1368 C 193.83289,176.63496 193.50306,177.40105 193.5075,178.92894 C 192.1028,179.54659 189.84392,176.64724 187.70866,177.71509 C 186.46219,178.21778 187.27116,180.67339 185.85703,181.28903 C 184.05017,180.90951 182.25386,176.62645 181.0516,176.43364 C 180.30867,176.40932 179.17146,177.93323 178.2477,178.27058 C 174.49598,175.436 176.54203,171.74923 174.53268,170.21745 C 173.31053,169.97721 172.38187,170.81089 171.48778,171.50184 C 168.22106,166.78376 171.24408,165.14044 169.73901,162.87852 C 169.73901,162.87852 169.21751,163.34862 168.66918,163.41638 C 164.99759,160.28322 169.26058,156.14187 168.82202,154.73575 C 169.26058,153.32963 164.99759,149.19122 168.66918,146.05806 C 169.21751,146.12582 169.73901,146.59298 169.73901,146.59298 C 171.24408,144.33106 168.22106,142.69068 171.48778,137.9726 C 172.38187,138.66355 173.31053,139.49723 174.53268,139.25699 C 176.54203,137.72521 174.49598,134.03844 178.2477,131.20386 C 179.17146,131.54121 180.30867,133.06218 181.0516,133.03786 C 182.25386,132.84505 184.05017,128.56493 185.85703,128.1854 C 187.27116,128.80105 186.46219,131.25666 187.70866,131.75935 C 189.84392,132.8272 192.1028,129.92784 193.5075,130.5455 C 193.50306,132.07339 193.83289,132.83948 194.51855,133.33764 C 195.39707,133.91657 197.66112,131.34378 198.55981,131.27146 C 200.48937,134.6074 201.01373,133.93711 202.80093,134.35751 C 204.5423,134.76713 204.76245,134.98218 207.16843,134.55443 C 207.41037,139.32356 209.76768,138.6047 211.39486,139.17175 C 210.1546,141.65523 212.20034,142.16667 213.22004,143.25122 C 214.61797,144.73809 214.06695,146.01718 217.85793,147.88618 C 215.86075,151.18966 219.52763,151.43934 222.29009,154.73575 z " />
      <path
         id="Nerver"
         style="fill:none;stroke:#eeeeee;stroke-width:0.1881023px"
         d="M 221.36056,154.7351 L 169.46562,154.7351 M 207.73488,167.57845 C 198.34685,167.64364 194.36997,161.45015 187.06817,154.7351 M 213.27642,161.64574 C 206.17021,163.08002 206.95254,157.99483 202.78008,154.7351 M 214.7759,157.92964 C 214.7759,157.92964 211.90734,155.51744 211.90734,154.7351 M 203.8232,137.45664 C 201.21541,135.89197 178.2017,137.32625 170.37834,154.73416 C 178.2017,172.14207 201.21541,173.57636 203.8232,172.01168 M 203.59663,141.88988 C 194.2086,141.82468 190.23172,148.01817 182.92992,154.73322 M 206.65009,146.58389 C 201.43452,147.04026 199.80465,151.47349 195.6322,154.73322 M 213.64729,151.53869 C 213.64729,151.53869 210.77872,153.95089 210.77872,154.73322" />
    </g>
    <use
       xlink:href="#Leaf"
       height="304.20001"
       width="251"
       y="0"
       x="0"
       id="Leaf-2"
       transform="matrix(-1,0,0,1,252.3216,0)" />
    <use
       xlink:href="#Leaf"
       height="304.20001"
       width="251"
       y="0"
       x="0"
       id="Leaf-3"
       transform="matrix(0.642788,-0.766044,0.766044,0.642788,-47.62856,145.2151)" />
    <use
       xlink:href="#Leaf"
       height="304.20001"
       width="251"
       y="0"
       x="0"
       id="Leaf-5"
       transform="matrix(0,-1.217037,1.217037,0,-62.69737,300.1096)" />
    <use
       transform="matrix(0,0.532915,0.532915,0,75.793104,93.34051)"
       id="use1034"
       x="0"
       y="0"
       width="251"
       height="304.20001"
       xlink:href="#Leaf" />
    <use
       transform="matrix(-0.642788,-0.766044,-0.766044,0.642788,298.95976,145.2151)"
       id="use1036"
       x="0"
       y="0"
       width="251"
       height="304.20001"
       xlink:href="#Leaf" />
    <use
       transform="matrix(-0.16467979,-0.50683254,-0.50683254,0.16467979,213.44886,194.13806)"
       id="use1038"
       x="0"
       y="0"
       width="251"
       height="304.20001"
       xlink:href="#Leaf" />
    <use
       xlink:href="#Leaf"
       height="304.20001"
       width="251"
       y="0"
       x="0"
       id="use1044"
       transform="matrix(0.16467979,-0.50683254,0.50683254,0.16467979,38.346841,194.13806)" />
  </g>
  <use
     xlink:href="#Populus-tremula-tree"
     height="304.20001"
     width="251"
     y="0"
     x="0"
     id="Tree-2"
     transform="translate(-135,1.308151e-6)" />
  <g
     id="Orb"
     style="fill:#ffcd50;stroke:none"
     transform="matrix(0.4,0,0,0.4,-14.50002,53.24999)">
    <path
       id="Kors"
       d="M 344.44872,94.050862 L 344.44872,116.84405 L 318.68641,116.84405 L 318.68641,128.60054 L 344.44872,128.60054 L 344.44872,156.37225 C 346.27415,156.17002 348.118,156.04235 349.99706,156.04235 C 351.87612,156.04235 353.71997,156.17002 355.5454,156.37225 L 355.5454,128.60054 L 381.3377,128.60054 L 381.3377,116.84405 L 355.5454,116.84405 L 355.5454,94.050862 L 344.44872,94.050862 z " />
    <path
       id="Sphere"
       style="fill:#003d8f"
       d="M 400.00007,204.20004 C 400.00007,231.81428 377.6143,254.20005 350.00005,254.20005 C 322.3858,254.20005 300.00004,231.81428 300.00004,204.20004 C 300.00004,176.5858 322.3858,154.20002 350.00005,154.20002 C 377.6143,154.20002 400.00007,176.5858 400.00007,204.20004 L 400.00007,204.20004 z " />
    <path
       id="Crown"
       d="m 330,221.57182 c 2.86437,4.05475 4.5908,8.80247 4.99999,13.75 v 7.50001 c 9.93057,-1.66667 20.06945,-1.66667 30.00001,0 v -7.50001 c 0.40919,-4.94753 2.13563,-9.69525 5,-13.75 -1.22325,-1.11224 -3.10445,-1.06758 -4.27352,0.1015 -1.16906,1.16906 -1.21374,3.05025 -0.10148,4.2735 l -0.90124,1.98264 c -0.52748,-1.02681 -1.68939,-1.55896 -2.8114,-1.28761 -1.12202,0.27133 -1.91237,1.27561 -1.91236,2.42997 10e-6,0.76896 0.35389,1.49514 0.95953,1.96898 0.60563,0.47382 1.39562,0.64258 2.142,0.45756 L 362.5,232.82182 c -0.26898,0.80709 -1.02427,1.3515 -1.87499,1.3515 -0.85075,0 -1.60602,-0.54441 -1.87502,-1.3515 v -7.5 c 0.69036,0 1.25001,-0.55965 1.25001,-1.24999 0,-0.69037 -0.55965,-1.25 -1.25001,-1.25 -0.69034,0 -1.24999,0.55963 -1.24999,1.25 -10e-6,0.55814 0.36999,1.04863 0.90665,1.20194 l -2.15665,7.54805 c -0.28876,0.91095 -1.20343,1.47092 -2.14605,1.31383 -0.94261,-0.15711 -1.62626,-0.98346 -1.60395,-1.93882 l -0.28236,-2.39959 c 0.75399,0.58493 1.77523,0.68959 2.6322,0.26976 0.85698,-0.41982 1.4002,-1.29089 1.40016,-2.24517 0,-1.06078 -0.66941,-2.00605 -1.67,-2.35821 -1.00059,-0.35216 -2.11449,-0.0345 -2.77889,0.79236 l -0.15472,-1.31484 c 1.28727,-0.62904 2.10362,-1.93658 2.10361,-3.36932 -2e-5,-1.79175 -1.26757,-3.33318 -3.02556,-3.67931 l -0.0994,-0.69567 c 0,-0.3452 -0.27982,-0.62502 -0.625,-0.62502 -0.34518,0 -0.625,0.27982 -0.625,0.62502 l -0.0994,0.69567 c -1.75799,0.34613 -3.02554,1.88756 -3.02556,3.67931 -10e-6,1.43274 0.81634,2.74028 2.10361,3.36932 l -0.15472,1.31484 c -0.6644,-0.82691 -1.7783,-1.14452 -2.77889,-0.79236 -1.00058,0.35216 -1.67,1.29743 -1.67,2.35821 -3e-5,0.95428 0.54319,1.82535 1.40016,2.24517 0.85697,0.41983 1.87821,0.31517 2.6322,-0.26976 L 347.5,232.19683 c 0.0223,0.95536 -0.66134,1.78171 -1.60395,1.93882 -0.94262,0.15709 -1.85729,-0.40288 -2.14605,-1.31383 l -2.15666,-7.54805 c 0.53667,-0.15331 0.90667,-0.6438 0.90666,-1.20194 0,-0.69037 -0.55965,-1.25 -1.24999,-1.25 -0.69036,0 -1.25001,0.55963 -1.25001,1.25 0,0.69034 0.55965,1.24999 1.25001,1.24999 v 7.5 c -0.269,0.80709 -1.02427,1.3515 -1.87502,1.3515 -0.85072,0 -1.60601,-0.54441 -1.87499,-1.3515 l -0.60154,-1.32346 c 0.74639,0.18502 1.53638,0.0163 2.14201,-0.45756 0.60564,-0.47384 0.95953,-1.20002 0.95953,-1.96898 10e-6,-1.15436 -0.79034,-2.15864 -1.91236,-2.42997 -1.12201,-0.27135 -2.28392,0.2608 -2.8114,1.28761 l -0.90123,-1.98264 c 1.11225,-1.22325 1.06757,-3.10444 -0.10149,-4.2735 -1.16907,-1.16908 -3.05027,-1.21374 -4.27352,-0.1015 z" />
    <use
       xlink:href="#Crown"
       height="304.20001"
       width="251"
       y="0"
       x="0"
       id="Crown-2"
       transform="translate(-23.33334,-39.03464)" />
    <use
       xlink:href="#Crown"
       height="304.20001"
       width="251"
       y="0"
       x="0"
       id="Crown-3"
       transform="translate(23.33333,-39.03464)" />
  </g>
  <path
     id="Frame"
     style="fill:none;fill-opacity:0;stroke:#000000;stroke-width:1.88832211;stroke-linecap:round"
     d="M 249.55062,1.4395041 L 125.50012,1.4395041 L 1.449569,1.4395041 L 1.449569,174.9361 C 0.68232904,268.65698 81.739009,302.75585 125.5001,302.75585 C 168.49395,302.75585 250.31785,268.65698 249.55062,174.9361 L 249.55062,1.4395041 z " />
</svg>
